<?xml version="1.0" encoding="UTF-8" standalone="no"?>
<!-- Created with Inkscape (http://www.inkscape.org/) -->

<svg
   xmlns:dc="http://purl.org/dc/elements/1.1/"
   xmlns:cc="http://creativecommons.org/ns#"
   xmlns:rdf="http://www.w3.org/1999/02/22-rdf-syntax-ns#"
   xmlns:svg="http://www.w3.org/2000/svg"
   xmlns="http://www.w3.org/2000/svg"
   xmlns:xlink="http://www.w3.org/1999/xlink"
   xmlns:sodipodi="http://sodipodi.sourceforge.net/DTD/sodipodi-0.dtd"
   xmlns:inkscape="http://www.inkscape.org/namespaces/inkscape"
   width="130.00006"
   height="58.99995"
   id="svg2"
   version="1.1"
   inkscape:version="0.48.2 r9819"
   sodipodi:docname="PROG_KORR.svg">
  <defs
     id="defs4">
    <linearGradient
       id="linearGradient4491">
      <stop
         style="stop-color:#ffe010;stop-opacity:1;"
         offset="0"
         id="stop4493" />
      <stop
         style="stop-color:#6a610a;stop-opacity:1;"
         offset="1"
         id="stop4495" />
    </linearGradient>
    <radialGradient
       inkscape:collect="always"
       xlink:href="#linearGradient4491"
       id="radialGradient4497"
       cx="222.94675"
       cy="193.7533"
       fx="222.94675"
       fy="193.7533"
       r="4.9470291"
       gradientTransform="matrix(1,0,0,2.7064082,0,-330.62219)"
       gradientUnits="userSpaceOnUse" />
    <radialGradient
       inkscape:collect="always"
       xlink:href="#linearGradient4491"
       id="radialGradient4501"
       gradientUnits="userSpaceOnUse"
       gradientTransform="matrix(0.93240251,0.12282069,-0.08114404,12.31052,30.433814,-2221.7527)"
       cx="222.94675"
       cy="193.7533"
       fx="222.94675"
       fy="193.7533"
       r="4.9470291" />
  </defs>
  <sodipodi:namedview
     id="base"
     pagecolor="#ffffff"
     bordercolor="#666666"
     borderopacity="1.0"
     inkscape:pageopacity="0.0"
     inkscape:pageshadow="2"
     inkscape:zoom="2.56"
     inkscape:cx="78.811331"
     inkscape:cy="55.353527"
     inkscape:document-units="px"
     inkscape:current-layer="layer1"
     showgrid="false"
     fit-margin-top="0"
     fit-margin-left="0"
     fit-margin-right="0"
     fit-margin-bottom="0"
     inkscape:window-width="1485"
     inkscape:window-height="952"
     inkscape:window-x="341"
     inkscape:window-y="113"
     inkscape:window-maximized="0" />
  <metadata
     id="metadata7">
    <rdf:RDF>
      <cc:Work
         rdf:about="">
        <dc:format>image/svg+xml</dc:format>
        <dc:type
           rdf:resource="http://purl.org/dc/dcmitype/StillImage" />
        <dc:title></dc:title>
      </cc:Work>
    </rdf:RDF>
  </metadata>
  <g
     inkscape:label="Ebene 1"
     inkscape:groupmode="layer"
     id="layer1"
     transform="translate(-73.860905,-252.2598)">
    <g
       id="g3007"
       transform="matrix(1.031456,0,0,1.0442469,2.8893515,-22.60407)">
      <path
         style="fill:#e6f0fa"
         d="m 68.824905,291.71732 0,-28 62.999995,0 63,0 0,28 0,28 -63,0 -62.999995,0 0,-28 z"
         id="path3081"
         inkscape:connector-curvature="0" />
      <path
         style="fill:#e4eef8"
         d="m 68.824905,291.96732 0,-27.75 62.999995,0 63,0 0,27.75 0,27.75 -63,0 -62.999995,0 0,-27.75 z"
         id="path3079"
         inkscape:connector-curvature="0" />
      <path
         style="fill:#e2ecf6"
         d="m 68.824905,291.51732 c 0,-21.93333 0.266667,-27.93333 1.2,-27 1.733444,1.73344 121.866555,1.73344 123.599995,0 0.93333,-0.93333 1.2,5.06667 1.2,27 l 0,28.2 -63,0 -62.999995,0 0,-28.2 z"
         id="path3077"
         inkscape:connector-curvature="0" />
      <path
         style="fill:#e0eaf4"
         d="m 68.824905,291.59487 c 0,-26.04599 0.122102,-28.0211 1.653695,-26.74999 2.454415,2.03698 120.23819,2.03698 122.69262,0 1.53158,-1.27111 1.65368,0.704 1.65368,26.74999 l 0,28.12245 -63,0 -62.999995,0 0,-28.12245 z"
         id="path3075"
         inkscape:connector-curvature="0" />
      <path
         style="fill:#dee8f2"
         d="m 68.824905,291.79396 0,-27.92335 3.25,1.67335 c 2.925702,1.50639 8.887802,1.67336 59.749995,1.67336 50.8622,0 56.8243,-0.16697 59.75,-1.67336 l 3.25,-1.67335 0,27.92335 0,27.92336 -63,0 -62.999995,0 0,-27.92336 z"
         id="path3073"
         inkscape:connector-curvature="0" />
      <path
         style="fill:#dce6f0"
         d="m 68.824905,291.73713 0,-27.98019 4.442444,2.48019 4.442444,2.48019 54.115107,0 54.11512,0 4.44244,-2.48019 4.44244,-2.48019 0,27.98019 0,27.98019 -63,0 -62.999995,0 0,-27.98019 z"
         id="path3071"
         inkscape:connector-curvature="0" />
      <path
         style="fill:#dce5ef"
         d="m 68.824905,291.70477 0,-28.01254 4.25,2.76255 4.25,2.76254 54.499995,0 54.5,0 4.25,-2.76254 4.25,-2.76255 0,28.01254 0,28.01255 -63,0 -62.999995,0 0,-28.01255 z"
         id="path3069"
         inkscape:connector-curvature="0" />
      <path
         style="fill:#dae4ed"
         d="m 68.824905,291.66928 0,-28.04804 4.430175,3.04804 4.430175,3.04804 54.139645,0 54.13966,0 4.43016,-3.04804 4.43018,-3.04804 0,28.04804 0,28.04804 -63,0 -62.999995,0 0,-28.04804 z"
         id="path3067"
         inkscape:connector-curvature="0" />
      <path
         style="fill:#d8e2ec"
         d="m 68.824905,291.59487 c 0,-31.26087 -0.676718,-28.78457 6.326725,-23.15126 l 2.826726,2.27371 53.846544,0 53.84655,0 2.82672,-2.27371 c 7.00345,-5.63331 6.32673,-8.10961 6.32673,23.15126 l 0,28.12245 -63,0 -62.999995,0 0,-28.12245 z"
         id="path3065"
         inkscape:connector-curvature="0" />
      <path
         style="fill:#d7e1ea"
         d="m 68.824905,291.64923 0,-28.0681 2.75,1.96017 c 1.5125,1.07809 3.607244,2.90873 4.654988,4.06809 1.892468,2.09408 2.257818,2.10793 55.595007,2.10793 53.3372,0 53.70254,-0.0138 55.59501,-2.10793 1.04775,-1.15936 3.14249,-2.99 4.65499,-4.06809 l 2.75,-1.96017 0,28.0681 0,28.06809 -63,0 -62.999995,0 0,-28.06809 z"
         id="path3063"
         inkscape:connector-curvature="0" />
      <path
         style="fill:#d6e0ea"
         d="m 68.824905,291.64923 0,-28.0681 2.75,1.9699 c 1.5125,1.08345 3.759524,3.13909 4.993387,4.5681 l 2.243386,2.59819 53.013222,0 53.01323,0 2.24338,-2.59819 c 1.23387,-1.42901 3.48089,-3.48465 4.99339,-4.5681 l 2.75,-1.9699 0,28.0681 0,28.06809 -63,0 -62.999995,0 0,-28.06809 z"
         id="path3061"
         inkscape:connector-curvature="0" />
      <path
         style="fill:#d5dfe9"
         d="m 68.824905,291.66062 c 0,-31.41361 -0.408566,-30.10909 6.831129,-21.81129 l 3.168871,3.63202 0,18.11798 0,18.11799 52.999995,0 53,0 0,-18.11799 0,-18.11798 3.16887,-3.63202 c 7.2397,-8.2978 6.83113,-9.60232 6.83113,21.81129 l 0,28.0567 -63,0 -62.999995,0 0,-28.0567 z"
         id="path3059"
         inkscape:connector-curvature="0" />
      <path
         style="fill:#d4dee8"
         d="m 68.824905,291.48203 0,-28.2353 4.25,4.24715 4.25,4.24715 0.5,19.23814 0.5,19.23815 53.499995,0 53.5,0 0.5,-19.23815 0.5,-19.23814 4.25,-4.24715 4.25,-4.24715 0,28.2353 0,28.23529 -63,0 -62.999995,0 0,-28.23529 z"
         id="path3057"
         inkscape:connector-curvature="0" />
      <path
         style="fill:#d4dde7"
         d="m 68.824905,291.51437 0,-28.20295 3.979471,3.88585 3.97947,3.88585 0.27053,19.5671 0.270529,19.5671 54.499995,0 54.5,0 0.27053,-19.5671 0.27053,-19.5671 3.97947,-3.88585 3.97947,-3.88585 0,28.20295 0,28.20295 -63,0 -62.999995,0 0,-28.20295 z"
         id="path3055"
         inkscape:connector-curvature="0" />
      <path
         style="fill:#d2dce6"
         d="m 68.849909,291.46732 0.025,-28.25 3.974997,4.21128 3.974996,4.21127 0,19.53873 0,19.53872 54.999998,0 55,0 0,-19.53872 0,-19.53873 3.975,-4.21127 3.975,-4.21128 0.025,28.25 0.025,28.25 -63,0 -62.999998,0 0.025,-28.25 z"
         id="path3053"
         inkscape:connector-curvature="0" />
      <path
         style="fill:#d2dce5"
         d="m 68.824905,291.48399 0,-28.23334 3.75,3.74744 3.75,3.74744 0.5,20.2359 0.5,20.23589 54.499995,0 54.5,0 0.5,-20.23589 0.5,-20.2359 3.75,-3.74744 3.75,-3.74744 0,28.23334 0,28.23333 -63,0 -62.999995,0 0,-28.23333 z"
         id="path3051"
         inkscape:connector-curvature="0" />
      <path
         style="fill:#d1dae4"
         d="m 68.824905,291.48655 0,-28.23077 3.25,3.2474 3.25,3.2474 0.5,20.73337 0.5,20.73337 55.499995,0 55.5,0 0.5,-20.73337 0.5,-20.73337 3.25,-3.2474 3.25,-3.2474 0,28.23077 0,28.23077 -63,0 -62.999995,0 0,-28.23077 z"
         id="path3049"
         inkscape:connector-curvature="0" />
      <path
         style="fill:#d0d9e2"
         d="m 68.866532,291.46732 0.04163,-28.25 3.438124,3.89318 3.438124,3.89319 0.27025,20.10681 0.270249,20.10682 55.499991,0 55.5,0 0.27025,-20.10682 0.27025,-20.10681 3.43812,-3.89319 3.43813,-3.89318 0.0416,28.25 0.0416,28.25 -63,0 -62.999991,0 0.04163,-28.25 z"
         id="path3047"
         inkscape:connector-curvature="0" />
      <path
         style="fill:#cfd8e1"
         d="m 68.824905,291.56233 c 0,-27.74722 0.02794,-28.1297 1.9292,-26.40908 4.466641,4.04225 5.0708,7.31459 5.0708,27.4652 l 0,19.09887 55.999995,0 56,0 0,-19.09887 c 0,-20.15061 0.60416,-23.42295 5.07081,-27.4652 1.90125,-1.72062 1.92919,-1.33814 1.92919,26.40908 l 0,28.15499 -63,0 -62.999995,0 0,-28.15499 z"
         id="path3045"
         inkscape:connector-curvature="0" />
      <path
         style="fill:#ced7e0"
         d="m 68.865546,291.46732 0.04064,-28.25 2.939645,3.43861 2.939645,3.43861 0.269714,20.56139 0.269715,20.56139 56.499995,0 56.5,0 0.26971,-20.56139 0.26972,-20.56139 2.93964,-3.43861 2.93965,-3.43861 0.0406,28.25 0.0406,28.25 -63,0 -62.999995,0 0.04064,-28.25 z"
         id="path3043"
         inkscape:connector-curvature="0" />
      <path
         style="fill:#ccd5de"
         d="m 68.824905,291.71732 c 0,-15.4 0.208777,-28 0.463949,-28 0.255172,0 1.605172,1.67946 3,3.73213 2.507462,3.69007 2.536051,3.95941 2.536051,23.89302 0,17.46159 0.211781,20.24214 1.581788,20.76786 0.869983,0.33384 25.808177,0.60699 55.418207,0.60699 29.61004,0 54.54823,-0.27315 55.41821,-0.60699 1.37001,-0.52572 1.58179,-3.30627 1.58179,-20.76786 0,-19.93361 0.0286,-20.20295 2.53605,-23.89302 1.39483,-2.05267 2.74483,-3.73213 3,-3.73213 0.25517,0 0.46395,12.6 0.46395,28 l 0,28 -63,0 -62.999995,0 0,-28 z"
         id="path3041"
         inkscape:connector-curvature="0" />
      <path
         style="fill:#cbd4dd"
         d="m 68.829872,291.46732 0.005,-28.25 2.45907,3 c 2.4211,2.95368 2.459836,3.3011 2.508688,22.5 0.02729,10.725 0.320957,20.5125 0.652594,21.75 l 0.602977,2.25 56.766729,0 56.76674,0 0.60297,-2.25 c 0.33164,-1.2375 0.62531,-11.025 0.6526,-21.75 0.0489,-19.1989 0.0876,-19.54632 2.50869,-22.5 l 2.45907,-3 0.005,28.25 0.005,28.25 -63,0 -62.999992,0 0.005,-28.25 z"
         id="path3039"
         inkscape:connector-curvature="0" />
      <path
         style="fill:#c8d1d9"
         d="m 68.824905,291.71732 c 0,-15.4 0.188298,-28 0.418441,-28 0.230142,0 1.355142,1.51562 2.5,3.36803 1.936823,3.13385 2.081559,4.8374 2.081559,24.5 l 0,21.13197 57.999995,0 58,0 0,-21.13197 c 0,-19.6626 0.14475,-21.36615 2.08156,-24.5 1.14487,-1.85241 2.26987,-3.36803 2.5,-3.36803 0.23014,0 0.41844,12.6 0.41844,28 l 0,28 -63,0 -62.999995,0 0,-28 z"
         id="path3037"
         inkscape:connector-curvature="0" />
      <path
         style="fill:#c7d0d9"
         d="m 68.824905,291.71732 c 0,-15.4 0.213444,-28 0.47432,-28 0.260876,0 1.160876,1.32765 2,2.95034 1.225979,2.37078 1.52568,7.09014 1.52568,24.02475 l 0,21.07441 2.5651,0.97525 c 3.447214,1.31063 109.422585,1.31063 112.869795,0 l 2.5651,-0.97525 0,-21.07441 c 0,-16.93461 0.2997,-21.65397 1.52568,-24.02475 0.83912,-1.62269 1.73912,-2.95034 2,-2.95034 0.26088,0 0.47432,12.6 0.47432,28 l 0,28 -63,0 -62.999995,0 0,-28 z"
         id="path3035"
         inkscape:connector-curvature="0" />
      <path
         style="fill:#c7cfd8"
         d="m 68.824905,291.71732 c 0,-15.4 0.213444,-28 0.47432,-28 0.260876,0 1.160876,1.32765 2,2.95034 1.228411,2.37549 1.52568,7.12831 1.52568,24.39301 0,18.63042 0.207455,21.52228 1.581788,22.04966 2.066437,0.79297 112.769977,0.79297 114.836417,0 1.37434,-0.52738 1.58179,-3.41924 1.58179,-22.04966 0,-17.2647 0.29727,-22.01752 1.52568,-24.39301 0.83912,-1.62269 1.73912,-2.95034 2,-2.95034 0.26088,0 0.47432,12.6 0.47432,28 l 0,28 -63,0 -62.999995,0 0,-28 z"
         id="path3033"
         inkscape:connector-curvature="0" />
      <path
         style="fill:#c4cdd6"
         d="m 68.824905,291.71732 c 0,-15.4 0.203887,-28 0.453083,-28 0.249195,0 1.143139,1.4625 1.986541,3.25 1.199503,2.54222 1.590834,7.93226 1.796917,24.75 l 0.263459,21.5 58.499995,0 58.5,0 0.26346,-21.5 c 0.20608,-16.81774 0.59741,-22.20778 1.79692,-24.75 0.8434,-1.7875 1.73734,-3.25 1.98654,-3.25 0.24919,0 0.45308,12.6 0.45308,28 l 0,28 -63,0 -62.999995,0 0,-28 z"
         id="path3031"
         inkscape:connector-curvature="0" />
      <path
         style="fill:#c1c9d2"
         d="m 68.824905,291.51732 c 0,-22.559 0.250044,-27.95033 1.25,-26.95188 0.912658,0.91128 1.331101,7.7121 1.550515,25.2 l 0.300516,23.95188 59.898964,0 59.89897,0 0.30051,-23.95188 c 0.21942,-17.4879 0.63786,-24.28872 1.55052,-25.2 0.99996,-0.99845 1.25,4.39288 1.25,26.95188 l 0,28.2 -63,0 -62.999995,0 0,-28.2 z"
         id="path3029"
         inkscape:connector-curvature="0" />
      <path
         style="fill:#bfc8d0"
         d="m 68.824905,291.51732 c 0,-18.45005 0.339425,-27.86058 0.981726,-27.21827 0.573431,0.57343 1.0933,11.15796 1.25,25.45 l 0.268274,24.46827 60.499995,0 60.5,0 0.26827,-24.46827 c 0.1567,-14.29204 0.67657,-24.87657 1.25,-25.45 0.64231,-0.64231 0.98173,8.76822 0.98173,27.21827 l 0,28.2 -63,0 -62.999995,0 0,-28.2 z"
         id="path3027"
         inkscape:connector-curvature="0" />
      <path
         style="fill:#bcc5cd"
         d="m 68.824905,291.6583 c 0,-18.45136 0.342409,-27.84739 1,-27.44098 0.623417,0.38529 1,10.01038 1,25.55902 l 0,24.94098 60.999995,0 61,0 0,-24.94098 c 0,-15.54864 0.37658,-25.17373 1,-25.55902 0.65759,-0.40641 1,8.98962 1,27.44098 l 0,28.05902 -63,0 -62.999995,0 0,-28.05902 z"
         id="path3025"
         inkscape:connector-curvature="0" />
      <path
         style="fill:#bac2ca"
         d="m 69.058151,291.46732 0.233247,-28.25 0.291655,27.5 c 0.187172,17.64844 0.627906,26.96264 1.230279,26 0.817398,-1.30627 8.697229,-1.5 61.011568,-1.5 52.31435,0 60.19419,0.19373 61.01157,1.5 0.60238,0.96264 1.04312,-8.35156 1.23028,-26 l 0.29166,-27.5 0.23324,28.25 0.23325,28.25 -63,0 -62.999995,0 0.233246,-28.25 z"
         id="path3023"
         inkscape:connector-curvature="0" />
      <path
         style="fill:#b9c2ca"
         d="m 70.002105,317.80518 c 0.656782,-1.05167 2.516845,-2.17667 4.133474,-2.5 1.616629,-0.32332 27.576831,-0.58786 57.689321,-0.58786 30.1125,0 56.0727,0.26454 57.68933,0.58786 1.61663,0.32333 3.47669,1.44833 4.13347,2.5 1.17111,1.87526 -0.0214,1.91214 -61.8228,1.91214 -61.801378,0 -62.993908,-0.0369 -61.822795,-1.91214 z"
         id="path3021"
         inkscape:connector-curvature="0" />
      <path
         style="fill:#b7c0c8"
         d="m 70.056978,317.71732 c 1.226669,-1.96421 2.332027,-2 61.767922,-2 59.4359,0 60.54126,0.0358 61.76793,2 1.24407,1.99205 0.99869,2 -61.76793,2 -62.766616,0 -63.011981,-0.008 -61.767922,-2 z"
         id="path3019"
         inkscape:connector-curvature="0" />
      <path
         style="fill:#b2bac2"
         d="m 70.685689,317.68405 c 2.288555,-1.90656 4.159123,-1.96673 61.139211,-1.96673 56.98009,0 58.85066,0.0602 61.13922,1.96673 2.35243,1.95978 2.1363,1.96673 -61.13922,1.96673 -63.275512,0 -63.491649,-0.007 -61.139211,-1.96673 z"
         id="path3017"
         inkscape:connector-curvature="0" />
      <path
         style="fill:#aeb6bd"
         d="m 69.824905,318.21732 c 1.081571,-1.30321 9.215408,-1.5 61.999995,-1.5 52.78459,0 60.91843,0.19679 62,1.5 1.10434,1.33064 -5.8957,1.5 -62,1.5 -56.104292,0 -63.104332,-0.16936 -61.999995,-1.5 z"
         id="path3015"
         inkscape:connector-curvature="0" />
      <path
         style="fill:#aab2ba"
         d="m 69.674905,318.46732 c 0.972633,-0.97263 14.763333,-1.25 62.149995,-1.25 47.38667,0 61.17737,0.27737 62.15,1.25 1,1 -11.43,1.25 -62.15,1.25 -50.719995,0 -63.149995,-0.25 -62.149995,-1.25 z"
         id="path3013"
         inkscape:connector-curvature="0" />
      <path
         style="fill:#a3abb2"
         d="m 69.324905,318.71732 c 0.401249,-0.64924 22.324045,-1 62.499995,-1 40.17595,0 62.09875,0.35076 62.5,1 0.40954,0.66263 -20.67595,1 -62.5,1 -41.82404,0 -62.909524,-0.33737 -62.499995,-1 z"
         id="path3011"
         inkscape:connector-curvature="0" />
      <path
         style="fill:#9ca3aa"
         d="m 100.07491,318.96783 c 17.4625,-0.15323 46.03749,-0.15323 63.49999,0 17.4625,0.15323 3.175,0.2786 -31.75,0.2786 -34.924995,0 -49.212495,-0.12537 -31.74999,-0.2786 z"
         id="path3009"
         inkscape:connector-curvature="0" />
    </g>
    <rect
       style="opacity:0;fill:#ffffff;fill-opacity:1;stroke:#000000;stroke-width:1.04717219;stroke-miterlimit:4;stroke-opacity:1;stroke-dasharray:none"
       id="rect4371"
       width="32.619827"
       height="40.552231"
       x="82.780258"
       y="261.47369" />
  </g>
</svg>
