<?xml version="1.0" encoding="UTF-8" standalone="no"?>
<!-- Generator: Adobe Illustrator 16.0.1, SVG Export Plug-In . SVG Version: 6.00 Build 0)  -->

<svg
   xmlns:dc="http://purl.org/dc/elements/1.1/"
   xmlns:cc="http://creativecommons.org/ns#"
   xmlns:rdf="http://www.w3.org/1999/02/22-rdf-syntax-ns#"
   xmlns:svg="http://www.w3.org/2000/svg"
   xmlns="http://www.w3.org/2000/svg"
   xmlns:xlink="http://www.w3.org/1999/xlink"
   xmlns:sodipodi="http://sodipodi.sourceforge.net/DTD/sodipodi-0.dtd"
   xmlns:inkscape="http://www.inkscape.org/namespaces/inkscape"
   version="1.0"
   id="_x31_"
   x="0px"
   y="0px"
   width="350"
   height="350"
   viewBox="0 0 350 350"
   enable-background="new 0 0 612 792"
   xml:space="preserve"
   inkscape:version="0.48.2 r9819"
   sodipodi:docname="7004.svg"><metadata
   id="metadata34"><rdf:RDF><cc:Work
       rdf:about=""><dc:format>image/svg+xml</dc:format><dc:type
         rdf:resource="http://purl.org/dc/dcmitype/StillImage" /></cc:Work></rdf:RDF></metadata><defs
   id="defs32"><radialGradient
     r="333.18735"
     fy="467.91885"
     fx="373.24265"
     cy="467.91885"
     cx="373.24265"
     gradientTransform="matrix(0.83535071,2.5391117e-7,-2.4564601e-7,0.80815889,783.12101,707.99698)"
     gradientUnits="userSpaceOnUse"
     id="radialGradient3736"
     xlink:href="#linearGradient5443"
     inkscape:collect="always" /><linearGradient
     y2="254.73526"
     x2="123.47623"
     y1="344.03848"
     x1="123.50603"
     gradientTransform="matrix(2.3189708,0,0,2.0930998,-99.17808,-231.54972)"
     gradientUnits="userSpaceOnUse"
     id="linearGradient3734"
     xlink:href="#linearGradient3187"
     inkscape:collect="always" /><radialGradient
     r="333.18735"
     fy="710.99164"
     fx="373.24265"
     cy="710.99164"
     cx="373.24265"
     gradientTransform="matrix(0.86272608,1.0667183e-7,-5.1097115e-8,0.31434,772.90338,992.7076)"
     gradientUnits="userSpaceOnUse"
     id="radialGradient3732"
     xlink:href="#linearGradient5443"
     inkscape:collect="always" /><radialGradient
     r="333.18735"
     fy="710.99164"
     fx="373.24265"
     cy="710.99164"
     cx="373.24265"
     gradientTransform="matrix(0.86272608,1.0667183e-7,-5.1097115e-8,0.31434,772.90338,992.7076)"
     gradientUnits="userSpaceOnUse"
     id="radialGradient3722"
     xlink:href="#linearGradient5443"
     inkscape:collect="always" /><radialGradient
     r="333.18735"
     fy="467.91885"
     fx="373.24265"
     cy="467.91885"
     cx="373.24265"
     gradientTransform="matrix(0.83535071,2.5391117e-7,-2.4564601e-7,0.80815889,783.12101,707.99698)"
     gradientUnits="userSpaceOnUse"
     id="radialGradient3718"
     xlink:href="#linearGradient5443"
     inkscape:collect="always" /><radialGradient
     r="333.18735"
     fy="467.91885"
     fx="373.24265"
     cy="467.91885"
     cx="373.24265"
     gradientTransform="matrix(0.9201975,2.7970099e-7,-2.7059634e-7,0.8902438,-163.70313,61.921561)"
     gradientUnits="userSpaceOnUse"
     id="radialGradient3703"
     xlink:href="#linearGradient5443"
     inkscape:collect="always" /><linearGradient
     y2="254.73526"
     x2="123.47623"
     y1="344.03848"
     x1="123.50603"
     gradientTransform="matrix(2.3189708,0,0,2.0930998,-99.17808,-231.54972)"
     gradientUnits="userSpaceOnUse"
     id="linearGradient3701"
     xlink:href="#linearGradient3187"
     inkscape:collect="always" /><radialGradient
     r="333.18735"
     fy="710.99164"
     fx="373.24265"
     cy="710.99164"
     cx="373.24265"
     gradientTransform="matrix(0.9503534,1.1750652e-7,-5.6287062e-8,0.3462676,-174.95857,375.55031)"
     gradientUnits="userSpaceOnUse"
     id="radialGradient3699"
     xlink:href="#linearGradient5443"
     inkscape:collect="always" /><radialGradient
     r="333.18735"
     fy="467.91885"
     fx="373.24265"
     cy="467.91885"
     cx="373.24265"
     gradientTransform="matrix(0.9201975,2.7970099e-7,-2.7059634e-7,0.8902438,-163.70313,61.921561)"
     gradientUnits="userSpaceOnUse"
     id="radialGradient3680"
     xlink:href="#linearGradient5443"
     inkscape:collect="always" /><linearGradient
     y2="254.73526"
     x2="123.47623"
     y1="344.03848"
     x1="123.50603"
     gradientTransform="matrix(2.3189708,0,0,2.0930998,-99.17808,-231.54972)"
     gradientUnits="userSpaceOnUse"
     id="linearGradient3678"
     xlink:href="#linearGradient3187"
     inkscape:collect="always" /><radialGradient
     r="333.18735"
     fy="710.99164"
     fx="373.24265"
     cy="710.99164"
     cx="373.24265"
     gradientTransform="matrix(0.9503534,1.1750652e-7,-5.6287062e-8,0.3462676,-174.95857,375.55031)"
     gradientUnits="userSpaceOnUse"
     id="radialGradient3676"
     xlink:href="#linearGradient5443"
     inkscape:collect="always" /><radialGradient
     r="333.18735"
     fy="467.91885"
     fx="373.24265"
     cy="467.91885"
     cx="373.24265"
     gradientTransform="matrix(0.9201975,2.7970099e-7,-2.7059634e-7,0.8902438,-163.70313,61.921561)"
     gradientUnits="userSpaceOnUse"
     id="radialGradient3654"
     xlink:href="#linearGradient5443"
     inkscape:collect="always" /><linearGradient
     y2="254.73526"
     x2="123.47623"
     y1="344.03848"
     x1="123.50603"
     gradientTransform="matrix(2.3189708,0,0,2.0930998,-99.17808,-231.54972)"
     gradientUnits="userSpaceOnUse"
     id="linearGradient3652"
     xlink:href="#linearGradient3187"
     inkscape:collect="always" /><radialGradient
     r="333.18735"
     fy="710.99164"
     fx="373.24265"
     cy="710.99164"
     cx="373.24265"
     gradientTransform="matrix(0.9503534,1.1750652e-7,-5.6287062e-8,0.3462676,-174.95857,375.55031)"
     gradientUnits="userSpaceOnUse"
     id="radialGradient3650"
     xlink:href="#linearGradient5443"
     inkscape:collect="always" /><radialGradient
     r="333.18735"
     fy="467.91885"
     fx="373.24265"
     cy="467.91885"
     cx="373.24265"
     gradientTransform="matrix(0.9201975,2.7970099e-7,-2.7059634e-7,0.8902438,-163.70313,61.921561)"
     gradientUnits="userSpaceOnUse"
     id="radialGradient3627"
     xlink:href="#linearGradient5443"
     inkscape:collect="always" /><linearGradient
     y2="254.73526"
     x2="123.47623"
     y1="344.03848"
     x1="123.50603"
     gradientTransform="matrix(2.3189708,0,0,2.0930998,-99.17808,-231.54972)"
     gradientUnits="userSpaceOnUse"
     id="linearGradient3625"
     xlink:href="#linearGradient3187"
     inkscape:collect="always" /><radialGradient
     r="333.18735"
     fy="710.99164"
     fx="373.24265"
     cy="710.99164"
     cx="373.24265"
     gradientTransform="matrix(0.9503534,1.1750652e-7,-5.6287062e-8,0.3462676,-174.95857,375.55031)"
     gradientUnits="userSpaceOnUse"
     id="radialGradient3623"
     xlink:href="#linearGradient5443"
     inkscape:collect="always" /><radialGradient
     r="333.18735"
     fy="467.91885"
     fx="373.24265"
     cy="467.91885"
     cx="373.24265"
     gradientTransform="matrix(0.9201975,2.7970099e-7,-2.7059634e-7,0.8902438,-163.70313,61.921561)"
     gradientUnits="userSpaceOnUse"
     id="radialGradient3599"
     xlink:href="#linearGradient5443"
     inkscape:collect="always" /><linearGradient
     y2="254.73526"
     x2="123.47623"
     y1="344.03848"
     x1="123.50603"
     gradientTransform="matrix(2.3189708,0,0,2.0930998,-99.17808,-231.54972)"
     gradientUnits="userSpaceOnUse"
     id="linearGradient3597"
     xlink:href="#linearGradient3187"
     inkscape:collect="always" /><radialGradient
     r="333.18735"
     fy="710.99164"
     fx="373.24265"
     cy="710.99164"
     cx="373.24265"
     gradientTransform="matrix(0.9503534,1.1750652e-7,-5.6287062e-8,0.3462676,-174.95857,375.55031)"
     gradientUnits="userSpaceOnUse"
     id="radialGradient3595"
     xlink:href="#linearGradient5443"
     inkscape:collect="always" /><radialGradient
     r="333.18735"
     fy="467.91885"
     fx="373.24265"
     cy="467.91885"
     cx="373.24265"
     gradientTransform="matrix(0.9201975,2.7970099e-7,-2.7059634e-7,0.8902438,-163.70313,61.921561)"
     gradientUnits="userSpaceOnUse"
     id="radialGradient3525"
     xlink:href="#linearGradient5443"
     inkscape:collect="always" /><linearGradient
     y2="254.73526"
     x2="123.47623"
     y1="344.03848"
     x1="123.50603"
     gradientTransform="matrix(2.3189708,0,0,2.0930998,-99.17808,-231.54972)"
     gradientUnits="userSpaceOnUse"
     id="linearGradient3523"
     xlink:href="#linearGradient3187"
     inkscape:collect="always" /><radialGradient
     r="333.18735"
     fy="710.99164"
     fx="373.24265"
     cy="710.99164"
     cx="373.24265"
     gradientTransform="matrix(0.9503534,1.1750652e-7,-5.6287062e-8,0.3462676,-174.95857,375.55031)"
     gradientUnits="userSpaceOnUse"
     id="radialGradient3521"
     xlink:href="#linearGradient5443"
     inkscape:collect="always" /><radialGradient
     r="333.18735"
     fy="467.91885"
     fx="373.24265"
     cy="467.91885"
     cx="373.24265"
     gradientTransform="matrix(0.9201975,2.7970099e-7,-2.7059634e-7,0.8902438,-163.70313,61.921561)"
     gradientUnits="userSpaceOnUse"
     id="radialGradient3497"
     xlink:href="#linearGradient5443"
     inkscape:collect="always" /><linearGradient
     y2="254.73526"
     x2="123.47623"
     y1="344.03848"
     x1="123.50603"
     gradientTransform="matrix(2.3189708,0,0,2.0930998,-99.17808,-231.54972)"
     gradientUnits="userSpaceOnUse"
     id="linearGradient3495"
     xlink:href="#linearGradient3187"
     inkscape:collect="always" /><radialGradient
     r="333.18735"
     fy="710.99164"
     fx="373.24265"
     cy="710.99164"
     cx="373.24265"
     gradientTransform="matrix(0.9503534,1.1750652e-7,-5.6287062e-8,0.3462676,-174.95857,375.55031)"
     gradientUnits="userSpaceOnUse"
     id="radialGradient3493"
     xlink:href="#linearGradient5443"
     inkscape:collect="always" /><linearGradient
     id="linearGradient5443"><stop
       id="stop5445"
       offset="0"
       style="stop-color:#ffffff;stop-opacity:0;" /><stop
       id="stop5447"
       offset="1"
       style="stop-color:#000000;stop-opacity:0.33962265;" /></linearGradient><linearGradient
     id="linearGradient3157"><stop
       style="stop-color:#49bcff;stop-opacity:1;"
       offset="0"
       id="stop3159" /><stop
       style="stop-color:#494c96;stop-opacity:1;"
       offset="1"
       id="stop3161" /></linearGradient><linearGradient
     id="linearGradient3171"><stop
       id="stop3173"
       offset="0"
       style="stop-color:#49bcff;stop-opacity:1;" /><stop
       id="stop3175"
       offset="1"
       style="stop-color:#494cdc;stop-opacity:1;" /></linearGradient><linearGradient
     id="linearGradient3187"><stop
       style="stop-color:#ffffff;stop-opacity:0.39622641;"
       offset="0"
       id="stop3189" /><stop
       style="stop-color:#000000;stop-opacity:1;"
       offset="1"
       id="stop3191" /></linearGradient><linearGradient
     id="linearGradient4395"><stop
       style="stop-color:#110084;stop-opacity:1;"
       offset="0"
       id="stop4397" /><stop
       style="stop-color:#a695ff;stop-opacity:1;"
       offset="1"
       id="stop4399" /></linearGradient><linearGradient
     id="linearGradient4383"><stop
       style="stop-color:#00037f;stop-opacity:1;"
       offset="0"
       id="stop4385" /><stop
       style="stop-color:#00037f;stop-opacity:0;"
       offset="1"
       id="stop4387" /></linearGradient><inkscape:perspective
     sodipodi:type="inkscape:persp3d"
     inkscape:vp_x="0 : 526.18109 : 1"
     inkscape:vp_y="0 : 1000 : 0"
     inkscape:vp_z="744.09448 : 526.18109 : 1"
     inkscape:persp3d-origin="372.04724 : 350.78739 : 1"
     id="perspective3214" /><linearGradient
     inkscape:collect="always"
     xlink:href="#linearGradient4383"
     id="linearGradient4389"
     x1="371.42194"
     y1="298.59412"
     x2="396.91168"
     y2="655.4505"
     gradientUnits="userSpaceOnUse" /><linearGradient
     inkscape:collect="always"
     xlink:href="#linearGradient4395"
     id="linearGradient4401"
     x1="360.49777"
     y1="167.50403"
     x2="360.49777"
     y2="540.86719"
     gradientUnits="userSpaceOnUse" /><linearGradient
     inkscape:collect="always"
     xlink:href="#linearGradient3187"
     id="linearGradient4562"
     gradientUnits="userSpaceOnUse"
     gradientTransform="matrix(2.3189708,0,0,2.0930998,93.115298,-256.84999)"
     x1="123.50603"
     y1="344.03848"
     x2="123.47623"
     y2="254.73526" /><radialGradient
     inkscape:collect="always"
     xlink:href="#linearGradient3171"
     id="radialGradient4569"
     gradientUnits="userSpaceOnUse"
     gradientTransform="matrix(0.9201975,2.7970099e-7,-2.7059634e-7,0.8902438,28.590287,48.634335)"
     cx="373.24265"
     cy="467.91885"
     fx="373.24265"
     fy="467.91885"
     r="333.18735" /><radialGradient
     inkscape:collect="always"
     xlink:href="#linearGradient3157"
     id="radialGradient4572"
     gradientUnits="userSpaceOnUse"
     gradientTransform="matrix(0.9503534,1.1750652e-7,-5.6287062e-8,0.3462676,17.334826,362.44227)"
     cx="373.24265"
     cy="710.99164"
     fx="373.24265"
     fy="710.99164"
     r="333.18735" /><filter
     inkscape:collect="always"
     id="filter4659"
     color-interpolation-filters="sRGB"><feGaussianBlur
       inkscape:collect="always"
       stdDeviation="2.7750933"
       id="feGaussianBlur4661" /></filter><radialGradient
     inkscape:collect="always"
     xlink:href="#linearGradient3157"
     id="radialGradient4766"
     gradientUnits="userSpaceOnUse"
     gradientTransform="matrix(0.9503534,1.1750652e-7,-5.6287062e-8,0.3462676,17.334826,362.44227)"
     cx="373.24265"
     cy="710.99164"
     fx="373.24265"
     fy="710.99164"
     r="333.18735" /><radialGradient
     inkscape:collect="always"
     xlink:href="#linearGradient3171"
     id="radialGradient4768"
     gradientUnits="userSpaceOnUse"
     gradientTransform="matrix(0.9201975,2.7970099e-7,-2.7059634e-7,0.8902438,28.590287,48.634335)"
     cx="373.24265"
     cy="467.91885"
     fx="373.24265"
     fy="467.91885"
     r="333.18735" /><linearGradient
     inkscape:collect="always"
     xlink:href="#linearGradient3187"
     id="linearGradient4770"
     gradientUnits="userSpaceOnUse"
     gradientTransform="matrix(2.3189708,0,0,2.0930998,93.115298,-256.84999)"
     x1="123.50603"
     y1="344.03848"
     x2="123.47623"
     y2="254.73526" /><linearGradient
     inkscape:collect="always"
     xlink:href="#linearGradient3187"
     id="linearGradient4773"
     gradientUnits="userSpaceOnUse"
     gradientTransform="matrix(2.3189708,0,0,2.0930998,93.115298,-256.84999)"
     x1="123.50603"
     y1="344.03848"
     x2="123.47623"
     y2="254.73526" /><radialGradient
     inkscape:collect="always"
     xlink:href="#linearGradient3171"
     id="radialGradient4776"
     gradientUnits="userSpaceOnUse"
     gradientTransform="matrix(0.9201975,2.7970099e-7,-2.7059634e-7,0.8902438,28.590287,48.634335)"
     cx="373.24265"
     cy="467.91885"
     fx="373.24265"
     fy="467.91885"
     r="333.18735" /><radialGradient
     inkscape:collect="always"
     xlink:href="#linearGradient3157"
     id="radialGradient4779"
     gradientUnits="userSpaceOnUse"
     gradientTransform="matrix(0.9503534,1.1750652e-7,-5.6287062e-8,0.3462676,17.334826,362.44227)"
     cx="373.24265"
     cy="710.99164"
     fx="373.24265"
     fy="710.99164"
     r="333.18735" /><radialGradient
     inkscape:collect="always"
     xlink:href="#linearGradient3157"
     id="radialGradient4790"
     gradientUnits="userSpaceOnUse"
     gradientTransform="matrix(0.9503534,1.1750652e-7,-5.6287062e-8,0.3462676,17.334826,362.44227)"
     cx="373.24265"
     cy="710.99164"
     fx="373.24265"
     fy="710.99164"
     r="333.18735" /><radialGradient
     inkscape:collect="always"
     xlink:href="#linearGradient3171"
     id="radialGradient4792"
     gradientUnits="userSpaceOnUse"
     gradientTransform="matrix(0.9201975,2.7970099e-7,-2.7059634e-7,0.8902438,28.590287,48.634335)"
     cx="373.24265"
     cy="467.91885"
     fx="373.24265"
     fy="467.91885"
     r="333.18735" /><linearGradient
     inkscape:collect="always"
     xlink:href="#linearGradient3187"
     id="linearGradient4794"
     gradientUnits="userSpaceOnUse"
     gradientTransform="matrix(2.3189708,0,0,2.0930998,93.115298,-256.84999)"
     x1="123.50603"
     y1="344.03848"
     x2="123.47623"
     y2="254.73526" /><linearGradient
     inkscape:collect="always"
     xlink:href="#linearGradient3187"
     id="linearGradient4799"
     gradientUnits="userSpaceOnUse"
     gradientTransform="matrix(2.3189708,0,0,2.0930998,93.115298,-256.84999)"
     x1="123.50603"
     y1="344.03848"
     x2="123.47623"
     y2="254.73526" /><radialGradient
     inkscape:collect="always"
     xlink:href="#linearGradient3171"
     id="radialGradient4802"
     gradientUnits="userSpaceOnUse"
     gradientTransform="matrix(0.9201975,2.7970099e-7,-2.7059634e-7,0.8902438,28.590287,48.634335)"
     cx="373.24265"
     cy="467.91885"
     fx="373.24265"
     fy="467.91885"
     r="333.18735" /><radialGradient
     inkscape:collect="always"
     xlink:href="#linearGradient3157"
     id="radialGradient4805"
     gradientUnits="userSpaceOnUse"
     gradientTransform="matrix(0.9503534,1.1750652e-7,-5.6287062e-8,0.3462676,17.334826,362.44227)"
     cx="373.24265"
     cy="710.99164"
     fx="373.24265"
     fy="710.99164"
     r="333.18735" /><radialGradient
     inkscape:collect="always"
     xlink:href="#linearGradient3157"
     id="radialGradient4820"
     gradientUnits="userSpaceOnUse"
     gradientTransform="matrix(0.9503534,1.1750652e-7,-5.6287062e-8,0.3462676,17.334826,362.44227)"
     cx="373.24265"
     cy="710.99164"
     fx="373.24265"
     fy="710.99164"
     r="333.18735" /><radialGradient
     inkscape:collect="always"
     xlink:href="#linearGradient3171"
     id="radialGradient4822"
     gradientUnits="userSpaceOnUse"
     gradientTransform="matrix(0.9201975,2.7970099e-7,-2.7059634e-7,0.8902438,28.590287,48.634335)"
     cx="373.24265"
     cy="467.91885"
     fx="373.24265"
     fy="467.91885"
     r="333.18735" /><linearGradient
     inkscape:collect="always"
     xlink:href="#linearGradient3187"
     id="linearGradient4824"
     gradientUnits="userSpaceOnUse"
     gradientTransform="matrix(2.3189708,0,0,2.0930998,93.115298,-256.84999)"
     x1="123.50603"
     y1="344.03848"
     x2="123.47623"
     y2="254.73526" /><linearGradient
     inkscape:collect="always"
     xlink:href="#linearGradient3187"
     id="linearGradient4827"
     gradientUnits="userSpaceOnUse"
     gradientTransform="matrix(2.3189708,0,0,2.0930998,-99.17808,-231.54972)"
     x1="123.50603"
     y1="344.03848"
     x2="123.47623"
     y2="254.73526" /><radialGradient
     inkscape:collect="always"
     xlink:href="#linearGradient5443"
     id="radialGradient4832"
     gradientUnits="userSpaceOnUse"
     gradientTransform="matrix(0.9201975,2.7970099e-7,-2.7059634e-7,0.8902438,-163.70313,61.921561)"
     cx="373.24265"
     cy="467.91885"
     fx="373.24265"
     fy="467.91885"
     r="333.18735" /><radialGradient
     inkscape:collect="always"
     xlink:href="#linearGradient5443"
     id="radialGradient4835"
     gradientUnits="userSpaceOnUse"
     gradientTransform="matrix(0.9503534,1.1750652e-7,-5.6287062e-8,0.3462676,-174.95857,375.55031)"
     cx="373.24265"
     cy="710.99164"
     fx="373.24265"
     fy="710.99164"
     r="333.18735" /><filter
     inkscape:collect="always"
     id="filter5511"
     color-interpolation-filters="sRGB"><feGaussianBlur
       inkscape:collect="always"
       stdDeviation="3.2374974"
       id="feGaussianBlur5513" /></filter><radialGradient
     inkscape:collect="always"
     xlink:href="#linearGradient5443-5"
     id="radialGradient4835-3"
     gradientUnits="userSpaceOnUse"
     gradientTransform="matrix(0.9503534,1.1750652e-7,-5.6287062e-8,0.3462676,317.80591,185.68771)"
     cx="373.24265"
     cy="710.99164"
     fx="373.24265"
     fy="710.99164"
     r="333.18735" /><linearGradient
     id="linearGradient5443-5"><stop
       id="stop5445-4"
       offset="0"
       style="stop-color:#ffffff;stop-opacity:0;" /><stop
       id="stop5447-3"
       offset="1"
       style="stop-color:#000000;stop-opacity:0.33962265;" /></linearGradient><radialGradient
     inkscape:collect="always"
     xlink:href="#linearGradient5443"
     id="radialGradient3272"
     gradientUnits="userSpaceOnUse"
     gradientTransform="matrix(0.9503534,1.1750652e-7,-5.6287062e-8,0.3462676,-174.95857,375.55031)"
     cx="373.24265"
     cy="710.99164"
     fx="373.24265"
     fy="710.99164"
     r="333.18735" /><linearGradient
     inkscape:collect="always"
     xlink:href="#linearGradient3187"
     id="linearGradient3274"
     gradientUnits="userSpaceOnUse"
     gradientTransform="matrix(2.3189708,0,0,2.0930998,-99.17808,-231.54972)"
     x1="123.50603"
     y1="344.03848"
     x2="123.47623"
     y2="254.73526" /><radialGradient
     inkscape:collect="always"
     xlink:href="#linearGradient5443"
     id="radialGradient3276"
     gradientUnits="userSpaceOnUse"
     gradientTransform="matrix(0.9201975,2.7970099e-7,-2.7059634e-7,0.8902438,-163.70313,61.921561)"
     cx="373.24265"
     cy="467.91885"
     fx="373.24265"
     fy="467.91885"
     r="333.18735" /><radialGradient
     inkscape:collect="always"
     xlink:href="#linearGradient5443"
     id="radialGradient3383"
     gradientUnits="userSpaceOnUse"
     gradientTransform="matrix(0.86272608,1.0667183e-7,-5.1097115e-8,0.31434,772.90338,992.7076)"
     cx="373.24265"
     cy="710.99164"
     fx="373.24265"
     fy="710.99164"
     r="333.18735" /><linearGradient
     inkscape:collect="always"
     xlink:href="#linearGradient3187"
     id="linearGradient3385"
     gradientUnits="userSpaceOnUse"
     gradientTransform="matrix(2.3189708,0,0,2.0930998,-99.17808,-231.54972)"
     x1="123.50603"
     y1="344.03848"
     x2="123.47623"
     y2="254.73526" /><radialGradient
     inkscape:collect="always"
     xlink:href="#linearGradient5443"
     id="radialGradient3387"
     gradientUnits="userSpaceOnUse"
     gradientTransform="matrix(0.83535071,2.5391117e-7,-2.4564601e-7,0.80815889,783.12101,707.99698)"
     cx="373.24265"
     cy="467.91885"
     fx="373.24265"
     fy="467.91885"
     r="333.18735" /></defs><sodipodi:namedview
   pagecolor="#ffffff"
   bordercolor="#666666"
   borderopacity="1"
   objecttolerance="10"
   gridtolerance="10"
   guidetolerance="10"
   inkscape:pageopacity="0"
   inkscape:pageshadow="2"
   inkscape:window-width="1920"
   inkscape:window-height="1071"
   id="namedview30"
   showgrid="false"
   inkscape:zoom="0.84281414"
   inkscape:cx="674.16991"
   inkscape:cy="-120.37346"
   inkscape:window-x="0"
   inkscape:window-y="0"
   inkscape:window-maximized="1"
   inkscape:current-layer="_x31_"
   fit-margin-top="0"
   fit-margin-left="0"
   fit-margin-right="0"
   fit-margin-bottom="0" />





<g
   id="LWPOLYLINE_5_"
   style="fill:#000000;fill-opacity:1;stroke:none"
   transform="translate(674.51705,104.3927)">
	
		
</g>

<g
   id="LWPOLYLINE_7_"
   style="fill:#000000;fill-opacity:1;stroke:none"
   transform="translate(674.51705,104.3927)">
	
		
</g>

<g
   id="g3725"
   transform="translate(-919.90955,-911.15)"><rect
     inkscape:export-ydpi="29.879425"
     inkscape:export-xdpi="29.879425"
     inkscape:export-filename="C:\Documents and Settings\adscro24\Desktop\128.png"
     style="opacity:0.61338286;fill:#464646;fill-opacity:0.78540775;stroke:none;filter:url(#filter4659)"
     id="rect3279"
     width="152.93848"
     height="152.93848"
     x="135.39355"
     y="48.636749"
     rx="16.067965"
     ry="12.45238"
     transform="matrix(2.1051501,0,0,2.1051501,648.90657,822.78311)" /><rect
     inkscape:export-ydpi="29.879425"
     inkscape:export-xdpi="29.879425"
     inkscape:export-filename="C:\Documents and Settings\adscro24\Desktop\128.png"
     style="opacity:0.61338286;fill:url(#radialGradient3383);fill-opacity:1;stroke:#000000;stroke-width:3.26806188;stroke-miterlimit:4;stroke-opacity:1;stroke-dasharray:none"
     id="rect3155"
     width="321.95847"
     height="321.95847"
     x="933.9303"
     y="925.17072"
     rx="33.825481"
     ry="26.21413" /><path
     transform="matrix(0.90779502,0,0,0.90779502,931.7299,651.7849)"
     inkscape:export-ydpi="29.879425"
     inkscape:export-xdpi="29.879425"
     inkscape:export-filename="C:\Documents and Settings\adscro24\Desktop\128.png"
     inkscape:connector-curvature="0"
     style="opacity:0.61338286;fill:url(#linearGradient3385);fill-opacity:1;stroke:none;filter:url(#filter5511)"
     d="m 46.58172,323.34879 c -19.62748,0 -35.44272,12.0976 -35.44272,27.14163 l 0,124.30857 c 29.25482,11.38638 132.70149,11.89599 165.40488,-5.79022 33.32802,-18.02397 127.54379,-68.44264 171.82484,-52.72052 l 0,-65.79783 c 0,-15.04403 -15.7986,-27.14163 -35.4261,-27.14163 l -266.3609,0 z M 11.139,586.81982 l 0,42.88373 c 0,1.33144 0.14331,2.63588 0.38253,3.915 -0.11919,-12.81092 -0.25965,-28.88939 -0.38253,-46.79873 z"
     id="rect3177" /><rect
     inkscape:export-ydpi="29.879425"
     inkscape:export-xdpi="29.879425"
     inkscape:export-filename="C:\Documents and Settings\adscro24\Desktop\128.png"
     style="opacity:0.61338286;fill:url(#radialGradient3387);fill-opacity:1;stroke:#ffffff;stroke-width:0.68992418;stroke-linecap:square;stroke-miterlimit:4;stroke-opacity:1;stroke-dasharray:none"
     id="rect3473"
     width="306.12445"
     height="306.12445"
     x="941.84735"
     y="933.08777"
     rx="32.161926"
     ry="24.924913" /><rect
     inkscape:export-ydpi="29.879425"
     inkscape:export-xdpi="29.879425"
     inkscape:export-filename="C:\Documents and Settings\adscro24\Desktop\128.png"
     style="opacity:0.61338286;fill:#ffffff;fill-opacity:0;stroke:#000000;stroke-width:3.26806188;stroke-miterlimit:4;stroke-opacity:1;stroke-dasharray:none"
     id="rect3155-2"
     width="321.95847"
     height="321.95847"
     x="933.9303"
     y="925.17072"
     rx="33.825481"
     ry="26.21413" /></g><g
   id="LWPOLYLINE_2_-9"
   style="fill:#000000;fill-opacity:1;stroke:none"
   transform="translate(400.39149,135.82107)">
	
		
</g><g
   id="g2997"
   transform="matrix(0.499996,0,0,0.499996,22.001216,-22.749426)"><g
     style="fill:#000000;fill-opacity:1;stroke:none"
     id="LWPOLYLINE_4_">
	
		<path
   id="path16"
   d="m 293.96875,461.75 c -0.039,-10e-4 -70.65625,166.3125 -70.65625,166.3125 l 0.375,0 0.3125,0 0.375,0 0.40625,0 0.5,0 0.53125,0 0.625,0 0.65625,0 0.71875,0 0.71875,0 0.78125,0 0.8125,0 0.84375,0 0.84375,0 0.90625,0 0.875,0 0.90625,0 0.90625,0 0.90625,0 0.90625,0 0.875,0 0.90625,0 0.84375,0 0.84375,0 0.8125,0 0.78125,0 0.71875,0 0.71875,0 0.65625,0 0.59375,0 0.5625,0 0.5,0 0.4375,0 0.34375,0 0.3125,0 0.3125,0 c 0.071,-0.047 0.1875,-0.28125 0.1875,-0.28125 l 0.15625,-0.375 0.21875,-0.5 0.25,-0.6875 0.3125,-0.78125 0.34375,-0.84375 0.40625,-1 0.4375,-1.125 0.46875,-1.1875 0.5,-1.25 0.53125,-1.34375 0.5625,-1.375 0.59375,-1.46875 0.59375,-1.5 0.625,-1.5625 0.625,-1.5625 0.65625,-1.625 0.65625,-1.625 0.65625,-1.625 0.625,-1.65625 0.65625,-1.59375 0.65625,-1.59375 0.625,-1.625 0.625,-1.5625 0.59375,-1.46875 0.59375,-1.4375 0.5625,-1.4375 0.53125,-1.3125 0.5,-1.28125 0.46875,-1.1875 0.4375,-1.0625 0.40625,-1 0.34375,-0.90625 0.3125,-0.78125 0.28125,-0.625 0.1875,-0.53125 0.15625,-0.375 c 0.095,-0.236 0.125,-0.3125 0.125,-0.3125 l 0.5625,0 0.6875,0 0.9375,0 1.1875,0 1.375,0 1.59375,0 1.8125,0 1.96875,0 2.125,0 2.28125,0 2.40625,0 2.5,0 2.625,0 2.71875,0 2.78125,0 2.875,0 2.875,0 2.9375,0 2.90625,0 2.9375,0 2.9375,0 2.875,0 2.875,0 2.78125,0 2.6875,0 2.65625,0 2.5,0 2.40625,0 2.28125,0 2.125,0 1.96875,0 1.8125,0 1.59375,0 1.375,0 1.1875,0 0.9375,0 0.65625,0 0.4375,0 c 0.189,0.094 0.28125,0.3125 0.28125,0.3125 l 0.125,0.375 0.25,0.53125 0.21875,0.625 0.34375,0.78125 0.3125,0.90625 0.4375,1 0.4375,1.0625 0.46875,1.1875 0.5,1.28125 0.53125,1.3125 0.5625,1.4375 0.5625,1.4375 0.625,1.46875 0.625,1.5625 0.65625,1.625 0.59375,1.59375 0.65625,1.59375 0.6875,1.65625 0.65625,1.625 0.59375,1.625 0.6875,1.625 0.59375,1.5625 0.625,1.5625 0.59375,1.5 0.625,1.46875 0.5625,1.375 0.53125,1.34375 0.5,1.25 0.5,1.1875 0.40625,1.125 0.375,1 0.375,0.84375 0.28125,0.78125 0.3125,0.6875 0.1875,0.5 0.125,0.375 c 0.095,0.236 0.15625,0.28125 0.15625,0.28125 l 0.40625,0 0.28125,0 0.375,0 0.4375,0 0.53125,0 0.5625,0 0.65625,0 0.65625,0 0.75,0 0.75,0 0.8125,0 0.84375,0 0.90625,0 0.90625,0 0.875,0 0.96875,0 0.875,0 0.96875,0 0.9375,0 0.9375,0 0.9375,0 0.90625,0 0.90625,0 0.875,0 0.8125,0 0.84375,0 0.75,0 0.71875,0 0.71875,0 0.59375,0 0.5625,0 0.53125,0 0.46875,0 0.375,0 0.28125,0 0.375,0 c 0.047,0 -0.0937,-0.28125 -0.0937,-0.28125 l -0.375,-0.875 -0.5625,-1.46875 -0.84375,-2 -1,-2.5 -1.21875,-2.96875 -1.375,-3.34375 -1.5625,-3.84375 -1.65625,-4.15625 -1.84375,-4.53125 -1.96875,-4.8125 -2.0625,-5.09375 -2.1875,-5.375 -2.28125,-5.59375 -2.34375,-5.75 -2.40625,-5.90625 -2.46875,-6.09375 -2.5,-6.125 -2.5,-6.1875 -2.5625,-6.25 -2.53125,-6.21875 -2.5,-6.1875 -2.5,-6.15625 -2.46875,-6.03125 -2.40625,-5.9375 -2.34375,-5.78125 -2.28125,-5.5625 -2.1875,-5.34375 -2.0625,-5.09375 -1.96875,-4.875 -1.84375,-4.46875 -1.71875,-4.21875 -1.5625,-3.78125 -1.375,-3.375 -1.15625,-3 -1.0625,-2.4375 -0.78125,-2.03125 -0.625,-1.46875 -0.3125,-0.90625 -0.15625,-0.28125 -0.375,0 -0.28125,0 -0.375,0 -0.4375,0 -0.53125,0 -0.5,0 -0.625,0 -0.65625,0 -0.71875,0 -0.75,0 -0.75,0 -0.8125,0 -0.84375,0 -0.84375,0 -0.90625,0 -0.875,0 -0.90625,0 -0.90625,0 -0.90625,0 -0.90625,0 -0.875,0 -0.90625,0 -0.84375,0 -0.84375,0 -0.8125,0 -0.78125,0 -0.71875,0 -0.71875,0 -0.65625,0 -0.625,0 -0.53125,0 -0.5,0 -0.40625,0 -0.375,0 -0.3125,0 -0.3125,0 z m 10.59375,23.1875 c 0.048,0.188 0.21875,0.625 0.21875,0.625 l 0.28125,0.6875 0.34375,1 0.5,1.1875 0.53125,1.46875 0.625,1.65625 0.6875,1.84375 0.8125,2.03125 0.84375,2.21875 0.90625,2.34375 0.9375,2.5 1,2.59375 1.03125,2.75 1.09375,2.84375 1.09375,2.875 1.125,2.9375 1.125,3 1.125,3.03125 1.1875,3.0625 1.1875,3.03125 1.125,3.03125 1.15625,3 1.125,2.9375 1.09375,2.875 1.0625,2.84375 1.0625,2.71875 0.96875,2.625 0.96875,2.5 0.875,2.34375 0.84375,2.21875 0.78125,2.03125 0.6875,1.84375 0.65625,1.65625 0.53125,1.46875 0.46875,1.21875 0.375,0.9375 0.28125,0.71875 0.15625,0.46875 c -0.048,0.141 -0.375,0.15625 -0.375,0.15625 l -0.5625,0 -0.78125,0 -0.9375,0 -1.09375,0 -1.25,0 -1.46875,0 -1.5625,0 -1.6875,0 -1.84375,0 -1.9375,0 -2.03125,0 -2.09375,0 -2.21875,0 -2.21875,0 -2.25,0 -2.3125,0 -2.375,0 -2.375,0 -2.34375,0 -2.34375,0 -2.3125,0 -2.28125,0 -2.25,0 -2.15625,0 -2.125,0 -2.03125,0 -1.9375,0 -1.8125,0 -1.6875,0 -1.59375,0 -1.4375,0 -1.28125,0 -1.125,0 -0.9375,0 -0.75,0 -0.5625,0 -0.3125,0 c -0.123,0.002 31.78125,-81.28125 31.78125,-81.28125 z"
   style="fill:#000000;fill-opacity:1;stroke:none"
   inkscape:connector-curvature="0" />
</g><g
     style="fill:#000000;fill-opacity:1;stroke:none"
     id="LWPOLYLINE_6_">
	
		<path
   id="path22"
   d="m 408.15625,461.75 c -0.099,-0.009 -0.0937,166.3125 -0.0937,166.3125 l 0.375,0 0.25,0 0.375,0 0.375,0 0.5,0 0.53125,0 0.5625,0 0.625,0 0.71875,0 0.6875,0 0.75,0 0.78125,0 0.78125,0 0.84375,0 0.875,0 0.84375,0 0.84375,0 0.84375,0 0.90625,0 0.84375,0 0.84375,0 0.875,0 0.84375,0 0.8125,0 0.75,0 0.75,0 0.71875,0 0.65625,0 0.65625,0 0.5625,0 0.53125,0 0.46875,0 0.40625,0 0.34375,0 0.28125,0 0.34375,0 c 0.047,-0.143 0.0312,-0.5 0.0312,-0.5 l 0,-0.65625 0,-0.90625 0,-1.125 0,-1.375 0,-1.53125 0,-1.75 0,-1.875 0,-2.03125 0,-2.21875 0,-2.3125 0,-2.40625 0,-2.5625 0,-2.59375 0,-2.6875 0,-2.75 0,-2.78125 0,-2.78125 0,-2.8125 0,-2.84375 0,-2.84375 0,-2.78125 0,-2.75 0,-2.6875 0,-2.59375 0,-2.53125 0,-2.4375 0,-2.3125 0,-2.15625 0,-2.09375 0,-1.875 0,-1.6875 0,-1.5625 0,-1.34375 0,-1.125 0,-0.90625 0,-0.65625 0,-0.40625 c 0.236,-0.143 0.46875,-0.15625 0.46875,-0.15625 l 0.34375,0 0.46875,0 0.53125,0 0.5625,0 0.65625,0 0.6875,0 0.8125,0 0.84375,0 0.90625,0 0.9375,0 0.96875,0 1.03125,0 0.96875,0 1.09375,0 1.03125,0 1.09375,0 1.09375,0 1.09375,0 1.09375,0 1.0625,0 1.0625,0 1.03125,0 0.96875,0 1,0 0.9375,0 0.90625,0 0.84375,0 0.78125,0 0.75,0 0.65625,0 0.5625,0 0.53125,0 0.40625,0 0.375,0 0.25,0 2.25,0 2,0.0625 1.875,0.0937 1.84375,0.0937 1.75,0.0937 1.65625,0.125 1.59375,0.1875 1.5625,0.25 1.46875,0.21875 1.375,0.28125 1.3125,0.34375 1.28125,0.375 1.1875,0.375 1.1875,0.4375 1.0625,0.46875 1,0.53125 1,0.5625 0.9375,0.59375 0.84375,0.625 0.8125,0.71875 0.8125,0.6875 0.6875,0.8125 0.71875,0.8125 0.625,0.875 0.59375,0.90625 0.5625,1 0.53125,1 0.53125,1.0625 0.46875,1.15625 0.40625,1.15625 0.40625,1.25 0.375,1.3125 0.375,1.3125 0.3125,1.4375 0.28125,1.4375 0.28125,1.5625 0.28125,1.5625 0.25,1.65625 0.25,1.75 0.21875,1.75 0.0625,1 0.0937,0.9375 0.0937,1.03125 0.0937,1.03125 0.0937,1.0625 0.125,1.0625 0.0937,1.09375 0.15625,1.125 0.125,1.15625 0.15625,1.125 0.125,1.1875 0.15625,1.15625 0.15625,1.1875 0.125,1.1875 0.1875,1.21875 0.1875,1.1875 0.1875,1.21875 0.15625,1.25 0.21875,1.1875 0.1875,1.21875 0.1875,1.21875 0.1875,1.1875 0.25,1.21875 0.1875,1.1875 0.25,1.21875 0.21875,1.1875 0.25,1.125 0.21875,1.1875 0.25,1.15625 0.21875,1.125 0.28125,1.125 0.25,1.09375 0.28125,1.03125 0.21875,1.09375 0.3125,1 0.28125,1.03125 0.28125,0.9375 0.21875,0.9375 0.34375,0.9375 0.28125,0.875 0.375,0 0.28125,0 0.375,0 0.4375,0 0.46875,0 0.5625,0 0.625,0 0.65625,0 0.6875,0 0.71875,0 0.8125,0 0.78125,0 0.875,0 0.84375,0 0.84375,0 0.90625,0 0.875,0 0.96875,0 0.875,0 0.90625,0 0.90625,0 0.84375,0 0.90625,0 0.78125,0 0.875,0 0.75,0 0.75,0 0.71875,0 0.65625,0 0.5625,0 0.5625,0 0.53125,0 0.40625,0 0.34375,0 0.28125,0 0.375,0 c 0.047,0 -0.375,-1.375 -0.375,-1.375 l -0.4375,-1.3125 -0.40625,-1.375 -0.375,-1.34375 -0.375,-1.3125 -0.34375,-1.3125 -0.375,-1.28125 -0.34375,-1.3125 -0.3125,-1.28125 -0.28125,-1.28125 -0.34375,-1.28125 -0.28125,-1.25 -0.28125,-1.25 -0.28125,-1.28125 -0.25,-1.21875 -0.28125,-1.28125 -0.21875,-1.21875 -0.25,-1.28125 -0.21875,-1.21875 -0.1875,-1.28125 -0.25,-1.21875 -0.1875,-1.28125 -0.25,-1.28125 -0.1875,-1.21875 -0.1875,-1.28125 -0.1875,-1.28125 -0.125,-1.25 -0.1875,-1.28125 -0.1875,-1.3125 -0.15625,-1.34375 -0.1875,-1.28125 -0.125,-1.34375 -0.15625,-1.34375 -0.125,-1.3125 -0.1875,-1.375 -0.15625,-1.375 -0.15625,-1.40625 -0.125,-1.40625 -0.15625,-1.4375 -0.125,-1.40625 -0.25,-1.59375 -0.21875,-1.53125 -0.25,-1.46875 L 518.281,569.9061 518,568.53125 517.65625,567.25 517.34375,566 517,564.75 l -0.3125,-1.15625 -0.4375,-1.15625 -0.375,-1.0625 -0.4375,-1.0625 -0.40625,-0.96875 -0.46875,-0.96875 -0.46875,-0.9375 -0.53125,-0.84375 -0.53125,-0.84375 -0.5625,-0.8125 -0.5625,-0.8125 -0.625,-0.75 -0.59375,-0.6875 -0.65625,-0.6875 -0.71875,-0.65625 -0.71875,-0.59375 -0.6875,-0.59375 -0.8125,-0.5625 -0.75,-0.5625 -0.84375,-0.46875 -0.875,-0.53125 -0.84375,-0.46875 -0.9375,-0.40625 -0.9375,-0.4375 -0.96875,-0.375 -1.03125,-0.375 -1.03125,-0.375 -1.09375,-0.375 -1.09375,-0.34375 -1.125,-0.3125 -1.1875,-0.28125 -1.21875,-0.3125 0.375,-0.125 0.375,-0.15625 0.375,-0.1875 0.375,-0.125 0.4375,-0.15625 0.4375,-0.125 0.40625,-0.15625 0.4375,-0.1875 0.46875,-0.125 0.4375,-0.1875 0.46875,-0.15625 0.46875,-0.1875 0.46875,-0.1875 0.46875,-0.1875 0.53125,-0.1875 0.46875,-0.1875 0.53125,-0.1875 0.5,-0.25 0.53125,-0.21875 0.5,-0.25 0.53125,-0.21875 0.53125,-0.25 0.5625,-0.25 0.5,-0.28125 0.59375,-0.28125 0.5625,-0.28125 0.5,-0.3125 0.5625,-0.28125 0.59375,-0.34375 0.5625,-0.375 0.5625,-0.34375 0.5625,-0.375 0.5625,-0.375 0.5625,-0.40625 0.625,-0.375 0.5625,-0.5 0.5625,-0.40625 0.5625,-0.46875 0.625,-0.46875 0.5625,-0.53125 L 514,532.75 l 0.46875,-0.625 0.46875,-0.625 0.5,-0.59375 0.5,-0.625 0.40625,-0.59375 0.46875,-0.6875 0.46875,-0.65625 0.4375,-0.65625 0.4375,-0.65625 0.40625,-0.71875 0.375,-0.6875 0.4375,-0.65625 0.375,-0.71875 0.375,-0.75 0.34375,-0.71875 0.375,-0.75 0.3125,-0.71875 0.34375,-0.75 0.34375,-0.75 0.28125,-0.8125 0.28125,-0.75 0.28125,-0.75 0.28125,-0.8125 0.21875,-0.8125 0.25,-0.78125 0.1875,-0.8125 0.21875,-0.8125 0.1875,-0.78125 0.15625,-0.875 0.1875,-0.78125 0.15625,-0.875 0.125,-0.84375 0.0937,-0.78125 0.0937,-0.875 0.0937,-0.84375 0.0625,-0.90625 0.0312,-0.84375 0.0625,-0.84375 0,-0.84375 -0.0625,-0.9375 0,-0.96875 -0.0312,-0.9375 -0.0937,-0.9375 -0.0937,-0.9375 -0.15625,-0.96875 -0.125,-0.9375 -0.15625,-0.9375 -0.1875,-0.90625 -0.25,-0.9375 -0.21875,-0.90625 -0.25,-0.9375 -0.28125,-0.90625 -0.28125,-0.9375 -0.3125,-0.875 -0.375,-0.90625 -0.34375,-0.90625 -0.4375,-0.84375 -0.40625,-0.90625 -0.4375,-0.875 -0.46875,-0.875 -0.46875,-0.84375 -0.53125,-0.84375 -0.5,-0.84375 -0.5625,-0.84375 -0.625,-0.8125 -0.625,-0.8125 -0.59375,-0.84375 -0.65625,-0.75 -0.6875,-0.8125 -0.6875,-0.75 -0.75,-0.8125 -0.78125,-0.6875 -0.75,-0.78125 -0.8125,-0.6875 -0.84375,-0.78125 -0.84375,-0.65625 -0.90625,-0.6875 -0.875,-0.65625 -0.90625,-0.6875 -1,-0.5625 -0.9375,-0.5625 -1,-0.46875 -0.96875,-0.53125 -1,-0.40625 -1.03125,-0.4375 -1.0625,-0.4375 -1.03125,-0.375 -1.03125,-0.375 -1.09375,-0.3125 -1.03125,-0.34375 -1.09375,-0.28125 -1.09375,-0.28125 -1.03125,-0.21875 -1.09375,-0.25 -1.0625,-0.25 -1.0625,-0.1875 -1.0625,-0.1875 -1.0625,-0.125 -1.0625,-0.1875 -1.0625,-0.15625 -1.03125,-0.0937 -1.03125,-0.125 -1,-0.0937 -1.03125,-0.0625 -1,-0.0937 -0.9375,-0.0937 -1,-0.0625 -0.9375,-0.0312 -0.90625,-0.0625 -0.875,0 -0.90625,-0.0312 -0.84375,0 -0.875,-0.0625 -0.78125,0 -0.8125,0 -0.75,0 -0.75,0 -0.65625,0 -0.71875,0 -0.4375,0 -0.5,0 -0.71875,0 -0.90625,0 -1.09375,0 -1.21875,0 -1.375,0 -1.5,0 -1.59375,0 -1.75,0 -1.84375,0 -1.9375,0 -2,0 -2.0625,0 -2.1875,0 -2.15625,0 -2.21875,0 -2.21875,0 -2.21875,0 -2.28125,0 -2.21875,0 -2.21875,0 -2.15625,0 -2.1875,0 -2.0625,0 -2,0 -1.9375,0 -1.84375,0 -1.75,0 -1.59375,0 -1.5,0 -1.375,0 -1.25,0 -1.0625,0 -0.90625,0 -0.71875,0 -0.5,0 -0.34375,0 z m 23.09375,19.3125 0.28125,0 0.28125,0 0.4375,0 0.5625,0 0.59375,0 0.78125,0 0.78125,0 0.90625,0 1,0 1.03125,0 1.09375,0 1.125,0 1.21875,0 1.25,0 1.25,0 1.28125,0 1.3125,0 1.375,0 1.34375,0 1.3125,0 1.375,0 1.3125,0 1.28125,0 1.28125,0 1.21875,0 1.21875,0 1.15625,0 1.125,0 1.03125,0 0.9375,0 0.90625,0 0.8125,0 0.75,0 0.59375,0 0.59375,0 0.40625,0 0.28125,0 0.28125,0 0.65625,0 0.78125,0.0625 0.78125,0 0.8125,0 0.90625,0.0312 0.875,0 0.96875,0.0937 0.96875,0.0625 1.0625,0.0937 0.96875,0.0937 1.09375,0.125 1.09375,0.1875 1.09375,0.1875 1.0625,0.25 1.09375,0.28125 1.125,0.28125 1.09375,0.34375 1.09375,0.40625 1.09375,0.4375 1.0625,0.46875 1.09375,0.53125 1.03125,0.59375 1,0.65625 1,0.6875 0.9375,0.75 0.9375,0.84375 0.90625,0.90625 0.84375,0.9375 0.8125,1.03125 L 496,492.5 l 0.6875,1.1875 0.65625,1.25 0.59375,1.34375 0.5,1.46875 0.4375,1.5 0.375,1.59375 0.28125,1.65625 0.1875,1.8125 0.125,1.875 0.0625,2 0,1.34375 -0.0937,1.34375 -0.0937,1.25 -0.1875,1.25 -0.25,1.1875 -0.21875,1.15625 -0.34375,1.15625 -0.3125,1.0625 -0.375,1.0625 -0.4375,0.96875 -0.46875,1 -0.53125,0.9375 -0.5,0.90625 -0.625,0.84375 -0.625,0.84375 -0.59375,0.8125 -0.71875,0.75 -0.71875,0.71875 -0.6875,0.71875 -0.8125,0.59375 -0.75,0.625 -0.84375,0.625 -0.875,0.5 L 488,530.375 l -0.90625,0.5 -0.875,0.4375 -0.9375,0.4375 -0.96875,0.375 -0.9375,0.3125 -1,0.34375 -0.96875,0.28125 -1.0625,0.28125 -1.03125,0.25 -1.03125,0.1875 -1.03125,0.125 -1.0625,0.15625 -1.0625,0.0937 -1.09375,0.0937 -1.09375,0.0312 -1.09375,0 -0.28125,0 -0.3125,0 -0.53125,0 -0.59375,0 -0.71875,0 -0.84375,0 -0.90625,0 -1.03125,0 -1.09375,0 -1.1875,0 -1.21875,0 -1.3125,0 -1.375,0 -1.4375,0 -1.40625,0 -1.5,0 -1.46875,0 -1.5625,0 -1.5,0 -1.53125,0 -1.5,0 -1.53125,0 -1.4375,0 -1.46875,0 -1.4375,0 -1.3125,0 -1.3125,0 -1.21875,0 -1.1875,0 -1.15625,0 -0.96875,0 -0.9375,0 -0.875,0 -0.6875,0 -0.625,0 -0.46875,0 -0.375,0 -0.28125,0 0,-53.21875 z"
   style="fill:#000000;fill-opacity:1;stroke:none"
   inkscape:connector-curvature="0" />
</g><g
     style="fill:#000000;fill-opacity:1;stroke:none"
     id="LWPOLYLINE">
	
		<rect
   style="fill:#000000;fill-opacity:1;stroke:none"
   id="rect4"
   height="147.006"
   width="29.042"
   stroke-miterlimit="10"
   y="145.5"
   x="490.23001" />
</g><g
     style="fill:#000000;fill-opacity:1;stroke:none"
     id="LWPOLYLINE_1_">
	
		<polygon
   style="fill:#000000;fill-opacity:1;stroke:none"
   id="polygon7"
   points="337.273,232.768 337.273,279.92 490.23,219.451 337.273,159.998 337.273,206.135 84.062,206.135 84.062,232.768 "
   stroke-miterlimit="10" />
</g><g
     style="fill:#000000;fill-opacity:1;stroke:none"
     id="LWPOLYLINE_2_">
	
		<path
   style="fill:#000000;fill-opacity:1;stroke:none"
   id="path10"
   d="m 17.312,645.5 c 0.095,0 0.307,0 0.307,0 h 0.354 0.496 0.59 0.732 0.826 0.921 1.039 1.086 1.181 1.251 1.299 1.37 1.416 1.44 1.487 1.488 1.511 1.535 1.511 1.511 1.512 1.464 1.44 1.417 1.369 1.299 1.251 1.181 1.109 1.016 0.921 0.826 0.732 0.613 0.473 0.354 c 0.235,0 0.307,0 0.307,0 0,-0.189 0,-0.33 0,-0.33 0,-0.143 0,-0.379 0,-0.379 0,-0.236 0,-0.473 0,-0.473 v -0.33 -0.283 -0.33 -0.379 -0.377 -0.377 -0.426 -0.379 -0.424 -0.426 -0.473 -0.424 -0.426 -0.424 -0.426 -0.426 -0.424 -0.379 -0.424 -0.379 -0.33 -0.33 -0.33 -0.283 -0.283 c 0,-0.236 0,-0.426 0,-0.426 0,-0.189 0,-0.33 0,-0.33 -0.165,-0.189 -0.354,-0.189 -0.354,-0.189 H 57.31 56.98 56.602 56.13 55.635 55.068 54.478 53.817 53.132 52.423 51.668 50.912 50.109 49.306 48.48 47.653 46.827 45.977 45.15 44.347 43.521 42.742 41.963 41.232 40.5 39.815 39.177 38.564 38.021 37.501 37.052 36.65 36.32 36.06 c -0.213,0 -0.331,0 -0.331,0 -0.023,0 -0.023,-0.33 -0.023,-0.33 v -0.945 -1.559 -2.125 -2.645 -3.117 -3.635 -4.014 -4.486 -4.77 -5.148 -5.43 -5.715 -5.949 -6.141 -6.279 -6.422 -6.518 -6.611 -6.658 -6.611 -6.611 -6.518 -6.422 -6.328 -6.139 -5.902 -5.715 -5.43 -5.148 -4.816 -4.439 -4.014 -3.637 -3.115 -2.693 -2.076 -1.559 -0.992 -0.33 c 0.142,0 0.354,0 0.354,0 h 0.26 0.33 0.401 0.449 0.52 0.543 0.613 0.638 0.685 0.732 0.731 0.779 0.779 0.826 0.803 0.827 0.85 0.826 0.827 0.826 0.803 0.803 0.756 0.755 0.709 0.685 0.661 0.59 0.567 0.495 0.473 0.378 0.33 0.283 c 0.189,0 0.308,0 0.308,0 0.047,-0.143 0.047,-0.283 0.047,-0.283 0,-0.189 0,-0.379 0,-0.379 0,-0.236 0,-0.52 0,-0.52 v -0.283 -0.33 -0.33 -0.379 -0.377 -0.379 -0.377 -0.426 -0.424 -0.426 -0.426 -0.424 -0.473 -0.426 -0.424 -0.426 -0.424 -0.379 -0.377 -0.379 -0.377 -0.33 -0.332 -0.279 -0.234 c 0,-0.236 0,-0.473 0,-0.473 0,-0.143 0,-0.283 0,-0.283 -0.071,-0.189 -0.307,-0.189 -0.307,-0.189 H 57.287 56.814 56.201 55.469 54.643 53.722 52.706 51.597 50.416 49.165 47.866 46.497 45.08 43.64 42.176 40.664 39.153 37.642 36.107 34.596 33.108 31.621 30.181 28.765 27.395 26.096 24.845 23.664 22.578 21.539 20.618 19.792 19.06 18.47 17.974 17.62 c -0.212,0 -0.307,0 -0.307,0 V 645.5 z"
   stroke-miterlimit="10"
   inkscape:connector-curvature="0" />
</g><g
     style="fill:#000000;fill-opacity:1;stroke:none"
     id="LWPOLYLINE_3_">
	
		<path
   style="fill:#000000;fill-opacity:1;stroke:none"
   id="path13"
   d="m 219.452,461.754 c -0.166,0 -0.378,0 -0.378,0 h -0.26 -0.354 -0.425 -0.473 -0.52 -0.59 -0.638 -0.661 -0.708 -0.756 -0.779 -0.803 -0.826 -0.85 -0.851 -0.873 -0.851 -0.873 -0.874 -0.85 -0.851 -0.826 -0.803 -0.779 -0.756 -0.708 -0.661 -0.638 -0.59 -0.52 -0.473 -0.425 -0.331 -0.283 c -0.212,0 -0.33,0 -0.33,0 -0.048,0 -0.142,0.236 -0.142,0.236 l -0.26,0.803 -0.449,1.229 -0.613,1.699 -0.732,2.125 -0.897,2.551 -1.038,2.881 -1.134,3.258 -1.275,3.588 -1.369,3.826 -1.464,4.156 -1.535,4.344 -1.629,4.58 -1.677,4.77 -1.747,4.912 -1.794,5.1 -1.818,5.146 -1.865,5.242 -1.865,5.289 -1.89,5.336 -1.889,5.338 -1.865,5.287 -1.865,5.242 -1.818,5.195 -1.794,5.053 -1.747,4.912 -1.677,4.77 -1.629,4.58 -1.535,4.391 -1.464,4.109 -1.369,3.873 -1.252,3.541 -1.157,3.258 -1.038,2.928 -0.874,2.504 -0.756,2.125 -0.613,1.699 -0.426,1.275 -0.283,0.756 -0.094,0.236 -0.095,-0.236 -0.236,-0.756 -0.425,-1.275 -0.566,-1.699 -0.709,-2.125 -0.85,-2.504 -0.968,-2.928 -1.087,-3.258 -1.181,-3.541 -1.274,-3.873 -1.394,-4.109 -1.44,-4.391 -1.534,-4.58 -1.582,-4.77 -1.653,-4.912 -1.676,-5.053 -1.724,-5.195 -1.748,-5.242 -1.771,-5.287 -1.771,-5.338 -1.795,-5.336 -1.747,-5.289 -1.747,-5.242 -1.724,-5.146 -1.7,-5.1 -1.629,-4.912 -1.605,-4.77 -1.512,-4.58 -1.464,-4.344 -1.369,-4.156 -1.299,-3.826 -1.181,-3.588 -1.086,-3.258 -0.969,-2.881 -0.85,-2.551 -0.708,-2.125 -0.567,-1.699 -0.401,-1.229 -0.26,-0.803 -0.094,-0.236 c -0.189,0 -0.426,0 -0.426,0 H 97.823 97.45 96.978 96.435 95.844 95.183 94.475 93.72 92.917 92.091 91.194 90.297 89.376 88.432 87.464 86.496 85.504 84.536 83.544 82.6 81.632 80.71 79.813 78.94 78.089 77.286 76.53 75.822 75.161 74.571 74.027 73.579 73.178 72.871 c -0.236,0 -0.378,0 -0.378,0 -0.048,0 0.07,0.283 0.07,0.283 l 0.331,0.896 0.52,1.465 0.708,2.031 0.897,2.455 1.062,2.975 1.228,3.4 1.37,3.777 1.511,4.203 1.629,4.486 1.747,4.863 1.842,5.102 1.913,5.336 2.03,5.572 2.078,5.762 2.125,5.949 2.172,6.045 2.22,6.139 2.243,6.186 2.243,6.234 2.243,6.234 2.243,6.186 2.195,6.139 2.196,6.092 2.125,5.902 2.078,5.762 2.007,5.572 1.937,5.385 1.841,5.1 1.748,4.816 1.629,4.533 1.511,4.156 1.37,3.824 1.204,3.354 1.086,2.975 0.897,2.504 0.708,1.982 0.52,1.465 0.331,0.896 0.117,0.283 c 0.166,0 0.401,0 0.401,0 h 0.308 0.354 0.449 0.52 0.566 0.638 0.685 0.732 0.778 0.803 0.851 0.874 0.896 0.897 0.944 0.921 0.944 0.944 0.945 0.92 0.921 0.897 0.874 0.826 0.826 0.756 0.732 0.685 0.638 0.566 0.52 0.448 0.378 0.307 c 0.213,0 0.354,0 0.354,0 0.049,10e-4 61.936,-166.319 61.936,-166.319 z"
   stroke-miterlimit="10"
   inkscape:connector-curvature="0" />
</g><g
     style="fill:#000000;fill-opacity:1;stroke:none"
     id="LWPOLYLINE_8_">
	
		<path
   style="fill:#000000;fill-opacity:1;stroke:none"
   id="path28"
   d="m 594.688,445.32 c -0.047,0 -0.283,0 -0.283,0 h -0.33 -0.52 -0.614 -0.708 -0.851 -0.896 -1.039 -1.086 -1.181 -1.229 -1.322 -1.369 -1.417 -1.464 -1.464 -1.464 -1.558 -1.512 -1.511 -1.512 -1.511 -1.464 -1.464 -1.417 -1.322 -1.322 -1.275 -1.133 -1.134 -0.991 -0.944 -0.851 -0.708 -0.614 -0.472 -0.378 c -0.189,0 -0.283,0 -0.283,0 0,0.189 0,0.33 0,0.33 0,0.143 0,0.379 0,0.379 0,0.236 0,0.471 0,0.471 v 0.283 0.332 0.33 0.377 0.379 0.377 0.379 0.424 0.426 0.424 0.426 0.473 0.424 0.426 0.426 0.424 0.426 0.377 0.379 0.377 0.379 0.33 0.33 0.283 0.283 c 0,0.236 0,0.426 0,0.426 0,0.189 0,0.33 0,0.33 0.188,0.143 0.378,0.143 0.378,0.143 h 0.235 0.331 0.425 0.425 0.52 0.566 0.614 0.614 0.708 0.708 0.756 0.756 0.803 0.803 0.803 0.85 0.851 0.803 0.85 0.803 0.804 0.803 0.755 0.756 0.708 0.709 0.661 0.566 0.566 0.52 0.473 0.378 0.33 0.283 c 0.189,0 0.283,0 0.283,0 0.048,0 0.048,0.33 0.048,0.33 v 0.992 1.559 2.076 2.693 3.115 3.637 4.014 4.439 4.816 5.148 5.43 5.715 5.902 6.139 6.328 6.422 6.518 6.611 6.611 6.658 6.611 6.518 6.422 6.279 6.141 5.949 5.715 5.43 5.148 4.77 4.486 4.014 3.635 3.117 2.645 2.125 1.559 0.945 0.33 c -0.142,0 -0.331,0 -0.331,0 h -0.283 -0.33 -0.378 -0.473 -0.52 -0.566 -0.566 -0.661 -0.709 -0.708 -0.756 -0.755 -0.803 -0.804 -0.803 -0.85 -0.803 -0.851 -0.85 -0.803 -0.803 -0.803 -0.756 -0.756 -0.708 -0.708 -0.614 -0.614 -0.566 -0.52 -0.425 -0.425 -0.331 -0.235 c -0.189,0 -0.331,0 -0.331,0 -0.047,0.189 -0.047,0.33 -0.047,0.33 0,0.189 0,0.379 0,0.379 0,0.236 0,0.52 0,0.52 v 0.283 0.33 0.33 0.33 0.379 0.424 0.379 0.424 0.426 0.426 0.424 0.426 0.424 0.473 0.426 0.424 0.379 0.426 0.377 0.377 0.379 0.33 0.283 0.33 0.236 c 0,0.236 0,0.473 0,0.473 0,0.143 0,0.283 0,0.283 0.094,0.189 0.283,0.189 0.283,0.189 h 0.378 0.472 0.614 0.708 0.851 0.944 0.991 1.134 1.133 1.275 1.322 1.322 1.417 1.464 1.464 1.511 1.512 1.511 1.512 1.558 1.464 1.464 1.464 1.417 1.369 1.322 1.229 1.181 1.086 1.039 0.896 0.851 0.708 0.614 0.52 0.33 c 0.236,0 0.283,0 0.283,0 V 445.32 z"
   stroke-miterlimit="10"
   inkscape:connector-curvature="0" />
</g></g></svg>