<?xml version="1.0" encoding="UTF-8" standalone="no"?>
<!-- Generator: Adobe Illustrator 16.0.1, SVG Export Plug-In . SVG Version: 6.00 Build 0)  -->

<svg
   xmlns:dc="http://purl.org/dc/elements/1.1/"
   xmlns:cc="http://creativecommons.org/ns#"
   xmlns:rdf="http://www.w3.org/1999/02/22-rdf-syntax-ns#"
   xmlns:svg="http://www.w3.org/2000/svg"
   xmlns="http://www.w3.org/2000/svg"
   xmlns:xlink="http://www.w3.org/1999/xlink"
   xmlns:sodipodi="http://sodipodi.sourceforge.net/DTD/sodipodi-0.dtd"
   xmlns:inkscape="http://www.inkscape.org/namespaces/inkscape"
   version="1.0"
   id="_x31_"
   x="0px"
   y="0px"
   width="350"
   height="350"
   viewBox="0 0 350 350"
   enable-background="new 0 0 612 792"
   xml:space="preserve"
   inkscape:version="0.48.2 r9819"
   sodipodi:docname="7017.svg"><metadata
   id="metadata103"><rdf:RDF><cc:Work
       rdf:about=""><dc:format>image/svg+xml</dc:format><dc:type
         rdf:resource="http://purl.org/dc/dcmitype/StillImage" /></cc:Work></rdf:RDF></metadata><defs
   id="defs101"><radialGradient
     r="333.18735"
     fy="467.91885"
     fx="373.24265"
     cy="467.91885"
     cx="373.24265"
     gradientTransform="matrix(0.83535071,2.5391117e-7,-2.4564601e-7,0.80815889,783.12101,707.99698)"
     gradientUnits="userSpaceOnUse"
     id="radialGradient3736"
     xlink:href="#linearGradient5443"
     inkscape:collect="always" /><linearGradient
     y2="254.73526"
     x2="123.47623"
     y1="344.03848"
     x1="123.50603"
     gradientTransform="matrix(2.3189708,0,0,2.0930998,-99.17808,-231.54972)"
     gradientUnits="userSpaceOnUse"
     id="linearGradient3734"
     xlink:href="#linearGradient3187"
     inkscape:collect="always" /><radialGradient
     r="333.18735"
     fy="710.99164"
     fx="373.24265"
     cy="710.99164"
     cx="373.24265"
     gradientTransform="matrix(0.86272608,1.0667183e-7,-5.1097115e-8,0.31434,772.90338,992.7076)"
     gradientUnits="userSpaceOnUse"
     id="radialGradient3732"
     xlink:href="#linearGradient5443"
     inkscape:collect="always" /><radialGradient
     r="333.18735"
     fy="710.99164"
     fx="373.24265"
     cy="710.99164"
     cx="373.24265"
     gradientTransform="matrix(0.86272608,1.0667183e-7,-5.1097115e-8,0.31434,772.90338,992.7076)"
     gradientUnits="userSpaceOnUse"
     id="radialGradient3722"
     xlink:href="#linearGradient5443"
     inkscape:collect="always" /><radialGradient
     r="333.18735"
     fy="467.91885"
     fx="373.24265"
     cy="467.91885"
     cx="373.24265"
     gradientTransform="matrix(0.83535071,2.5391117e-7,-2.4564601e-7,0.80815889,783.12101,707.99698)"
     gradientUnits="userSpaceOnUse"
     id="radialGradient3718"
     xlink:href="#linearGradient5443"
     inkscape:collect="always" /><radialGradient
     r="333.18735"
     fy="467.91885"
     fx="373.24265"
     cy="467.91885"
     cx="373.24265"
     gradientTransform="matrix(0.9201975,2.7970099e-7,-2.7059634e-7,0.8902438,-163.70313,61.921561)"
     gradientUnits="userSpaceOnUse"
     id="radialGradient3703"
     xlink:href="#linearGradient5443"
     inkscape:collect="always" /><linearGradient
     y2="254.73526"
     x2="123.47623"
     y1="344.03848"
     x1="123.50603"
     gradientTransform="matrix(2.3189708,0,0,2.0930998,-99.17808,-231.54972)"
     gradientUnits="userSpaceOnUse"
     id="linearGradient3701"
     xlink:href="#linearGradient3187"
     inkscape:collect="always" /><radialGradient
     r="333.18735"
     fy="710.99164"
     fx="373.24265"
     cy="710.99164"
     cx="373.24265"
     gradientTransform="matrix(0.9503534,1.1750652e-7,-5.6287062e-8,0.3462676,-174.95857,375.55031)"
     gradientUnits="userSpaceOnUse"
     id="radialGradient3699"
     xlink:href="#linearGradient5443"
     inkscape:collect="always" /><radialGradient
     r="333.18735"
     fy="467.91885"
     fx="373.24265"
     cy="467.91885"
     cx="373.24265"
     gradientTransform="matrix(0.9201975,2.7970099e-7,-2.7059634e-7,0.8902438,-163.70313,61.921561)"
     gradientUnits="userSpaceOnUse"
     id="radialGradient3680"
     xlink:href="#linearGradient5443"
     inkscape:collect="always" /><linearGradient
     y2="254.73526"
     x2="123.47623"
     y1="344.03848"
     x1="123.50603"
     gradientTransform="matrix(2.3189708,0,0,2.0930998,-99.17808,-231.54972)"
     gradientUnits="userSpaceOnUse"
     id="linearGradient3678"
     xlink:href="#linearGradient3187"
     inkscape:collect="always" /><radialGradient
     r="333.18735"
     fy="710.99164"
     fx="373.24265"
     cy="710.99164"
     cx="373.24265"
     gradientTransform="matrix(0.9503534,1.1750652e-7,-5.6287062e-8,0.3462676,-174.95857,375.55031)"
     gradientUnits="userSpaceOnUse"
     id="radialGradient3676"
     xlink:href="#linearGradient5443"
     inkscape:collect="always" /><radialGradient
     r="333.18735"
     fy="467.91885"
     fx="373.24265"
     cy="467.91885"
     cx="373.24265"
     gradientTransform="matrix(0.9201975,2.7970099e-7,-2.7059634e-7,0.8902438,-163.70313,61.921561)"
     gradientUnits="userSpaceOnUse"
     id="radialGradient3654"
     xlink:href="#linearGradient5443"
     inkscape:collect="always" /><linearGradient
     y2="254.73526"
     x2="123.47623"
     y1="344.03848"
     x1="123.50603"
     gradientTransform="matrix(2.3189708,0,0,2.0930998,-99.17808,-231.54972)"
     gradientUnits="userSpaceOnUse"
     id="linearGradient3652"
     xlink:href="#linearGradient3187"
     inkscape:collect="always" /><radialGradient
     r="333.18735"
     fy="710.99164"
     fx="373.24265"
     cy="710.99164"
     cx="373.24265"
     gradientTransform="matrix(0.9503534,1.1750652e-7,-5.6287062e-8,0.3462676,-174.95857,375.55031)"
     gradientUnits="userSpaceOnUse"
     id="radialGradient3650"
     xlink:href="#linearGradient5443"
     inkscape:collect="always" /><radialGradient
     r="333.18735"
     fy="467.91885"
     fx="373.24265"
     cy="467.91885"
     cx="373.24265"
     gradientTransform="matrix(0.9201975,2.7970099e-7,-2.7059634e-7,0.8902438,-163.70313,61.921561)"
     gradientUnits="userSpaceOnUse"
     id="radialGradient3627"
     xlink:href="#linearGradient5443"
     inkscape:collect="always" /><linearGradient
     y2="254.73526"
     x2="123.47623"
     y1="344.03848"
     x1="123.50603"
     gradientTransform="matrix(2.3189708,0,0,2.0930998,-99.17808,-231.54972)"
     gradientUnits="userSpaceOnUse"
     id="linearGradient3625"
     xlink:href="#linearGradient3187"
     inkscape:collect="always" /><radialGradient
     r="333.18735"
     fy="710.99164"
     fx="373.24265"
     cy="710.99164"
     cx="373.24265"
     gradientTransform="matrix(0.9503534,1.1750652e-7,-5.6287062e-8,0.3462676,-174.95857,375.55031)"
     gradientUnits="userSpaceOnUse"
     id="radialGradient3623"
     xlink:href="#linearGradient5443"
     inkscape:collect="always" /><radialGradient
     r="333.18735"
     fy="467.91885"
     fx="373.24265"
     cy="467.91885"
     cx="373.24265"
     gradientTransform="matrix(0.9201975,2.7970099e-7,-2.7059634e-7,0.8902438,-163.70313,61.921561)"
     gradientUnits="userSpaceOnUse"
     id="radialGradient3599"
     xlink:href="#linearGradient5443"
     inkscape:collect="always" /><linearGradient
     y2="254.73526"
     x2="123.47623"
     y1="344.03848"
     x1="123.50603"
     gradientTransform="matrix(2.3189708,0,0,2.0930998,-99.17808,-231.54972)"
     gradientUnits="userSpaceOnUse"
     id="linearGradient3597"
     xlink:href="#linearGradient3187"
     inkscape:collect="always" /><radialGradient
     r="333.18735"
     fy="710.99164"
     fx="373.24265"
     cy="710.99164"
     cx="373.24265"
     gradientTransform="matrix(0.9503534,1.1750652e-7,-5.6287062e-8,0.3462676,-174.95857,375.55031)"
     gradientUnits="userSpaceOnUse"
     id="radialGradient3595"
     xlink:href="#linearGradient5443"
     inkscape:collect="always" /><radialGradient
     r="333.18735"
     fy="467.91885"
     fx="373.24265"
     cy="467.91885"
     cx="373.24265"
     gradientTransform="matrix(0.9201975,2.7970099e-7,-2.7059634e-7,0.8902438,-163.70313,61.921561)"
     gradientUnits="userSpaceOnUse"
     id="radialGradient3525"
     xlink:href="#linearGradient5443"
     inkscape:collect="always" /><linearGradient
     y2="254.73526"
     x2="123.47623"
     y1="344.03848"
     x1="123.50603"
     gradientTransform="matrix(2.3189708,0,0,2.0930998,-99.17808,-231.54972)"
     gradientUnits="userSpaceOnUse"
     id="linearGradient3523"
     xlink:href="#linearGradient3187"
     inkscape:collect="always" /><radialGradient
     r="333.18735"
     fy="710.99164"
     fx="373.24265"
     cy="710.99164"
     cx="373.24265"
     gradientTransform="matrix(0.9503534,1.1750652e-7,-5.6287062e-8,0.3462676,-174.95857,375.55031)"
     gradientUnits="userSpaceOnUse"
     id="radialGradient3521"
     xlink:href="#linearGradient5443"
     inkscape:collect="always" /><radialGradient
     r="333.18735"
     fy="467.91885"
     fx="373.24265"
     cy="467.91885"
     cx="373.24265"
     gradientTransform="matrix(0.9201975,2.7970099e-7,-2.7059634e-7,0.8902438,-163.70313,61.921561)"
     gradientUnits="userSpaceOnUse"
     id="radialGradient3497"
     xlink:href="#linearGradient5443"
     inkscape:collect="always" /><linearGradient
     y2="254.73526"
     x2="123.47623"
     y1="344.03848"
     x1="123.50603"
     gradientTransform="matrix(2.3189708,0,0,2.0930998,-99.17808,-231.54972)"
     gradientUnits="userSpaceOnUse"
     id="linearGradient3495"
     xlink:href="#linearGradient3187"
     inkscape:collect="always" /><radialGradient
     r="333.18735"
     fy="710.99164"
     fx="373.24265"
     cy="710.99164"
     cx="373.24265"
     gradientTransform="matrix(0.9503534,1.1750652e-7,-5.6287062e-8,0.3462676,-174.95857,375.55031)"
     gradientUnits="userSpaceOnUse"
     id="radialGradient3493"
     xlink:href="#linearGradient5443"
     inkscape:collect="always" /><linearGradient
     id="linearGradient5443"><stop
       id="stop5445"
       offset="0"
       style="stop-color:#ffffff;stop-opacity:0;" /><stop
       id="stop5447"
       offset="1"
       style="stop-color:#000000;stop-opacity:0.33962265;" /></linearGradient><linearGradient
     id="linearGradient3157"><stop
       style="stop-color:#49bcff;stop-opacity:1;"
       offset="0"
       id="stop3159" /><stop
       style="stop-color:#494c96;stop-opacity:1;"
       offset="1"
       id="stop3161" /></linearGradient><linearGradient
     id="linearGradient3171"><stop
       id="stop3173"
       offset="0"
       style="stop-color:#49bcff;stop-opacity:1;" /><stop
       id="stop3175"
       offset="1"
       style="stop-color:#494cdc;stop-opacity:1;" /></linearGradient><linearGradient
     id="linearGradient3187"><stop
       style="stop-color:#ffffff;stop-opacity:0.39622641;"
       offset="0"
       id="stop3189" /><stop
       style="stop-color:#000000;stop-opacity:1;"
       offset="1"
       id="stop3191" /></linearGradient><linearGradient
     id="linearGradient4395"><stop
       style="stop-color:#110084;stop-opacity:1;"
       offset="0"
       id="stop4397" /><stop
       style="stop-color:#a695ff;stop-opacity:1;"
       offset="1"
       id="stop4399" /></linearGradient><linearGradient
     id="linearGradient4383"><stop
       style="stop-color:#00037f;stop-opacity:1;"
       offset="0"
       id="stop4385" /><stop
       style="stop-color:#00037f;stop-opacity:0;"
       offset="1"
       id="stop4387" /></linearGradient><inkscape:perspective
     sodipodi:type="inkscape:persp3d"
     inkscape:vp_x="0 : 526.18109 : 1"
     inkscape:vp_y="0 : 1000 : 0"
     inkscape:vp_z="744.09448 : 526.18109 : 1"
     inkscape:persp3d-origin="372.04724 : 350.78739 : 1"
     id="perspective3214" /><linearGradient
     inkscape:collect="always"
     xlink:href="#linearGradient4383"
     id="linearGradient4389"
     x1="371.42194"
     y1="298.59412"
     x2="396.91168"
     y2="655.4505"
     gradientUnits="userSpaceOnUse" /><linearGradient
     inkscape:collect="always"
     xlink:href="#linearGradient4395"
     id="linearGradient4401"
     x1="360.49777"
     y1="167.50403"
     x2="360.49777"
     y2="540.86719"
     gradientUnits="userSpaceOnUse" /><linearGradient
     inkscape:collect="always"
     xlink:href="#linearGradient3187"
     id="linearGradient4562"
     gradientUnits="userSpaceOnUse"
     gradientTransform="matrix(2.3189708,0,0,2.0930998,93.115298,-256.84999)"
     x1="123.50603"
     y1="344.03848"
     x2="123.47623"
     y2="254.73526" /><radialGradient
     inkscape:collect="always"
     xlink:href="#linearGradient3171"
     id="radialGradient4569"
     gradientUnits="userSpaceOnUse"
     gradientTransform="matrix(0.9201975,2.7970099e-7,-2.7059634e-7,0.8902438,28.590287,48.634335)"
     cx="373.24265"
     cy="467.91885"
     fx="373.24265"
     fy="467.91885"
     r="333.18735" /><radialGradient
     inkscape:collect="always"
     xlink:href="#linearGradient3157"
     id="radialGradient4572"
     gradientUnits="userSpaceOnUse"
     gradientTransform="matrix(0.9503534,1.1750652e-7,-5.6287062e-8,0.3462676,17.334826,362.44227)"
     cx="373.24265"
     cy="710.99164"
     fx="373.24265"
     fy="710.99164"
     r="333.18735" /><filter
     inkscape:collect="always"
     id="filter4659"
     color-interpolation-filters="sRGB"><feGaussianBlur
       inkscape:collect="always"
       stdDeviation="2.7750933"
       id="feGaussianBlur4661" /></filter><radialGradient
     inkscape:collect="always"
     xlink:href="#linearGradient3157"
     id="radialGradient4766"
     gradientUnits="userSpaceOnUse"
     gradientTransform="matrix(0.9503534,1.1750652e-7,-5.6287062e-8,0.3462676,17.334826,362.44227)"
     cx="373.24265"
     cy="710.99164"
     fx="373.24265"
     fy="710.99164"
     r="333.18735" /><radialGradient
     inkscape:collect="always"
     xlink:href="#linearGradient3171"
     id="radialGradient4768"
     gradientUnits="userSpaceOnUse"
     gradientTransform="matrix(0.9201975,2.7970099e-7,-2.7059634e-7,0.8902438,28.590287,48.634335)"
     cx="373.24265"
     cy="467.91885"
     fx="373.24265"
     fy="467.91885"
     r="333.18735" /><linearGradient
     inkscape:collect="always"
     xlink:href="#linearGradient3187"
     id="linearGradient4770"
     gradientUnits="userSpaceOnUse"
     gradientTransform="matrix(2.3189708,0,0,2.0930998,93.115298,-256.84999)"
     x1="123.50603"
     y1="344.03848"
     x2="123.47623"
     y2="254.73526" /><linearGradient
     inkscape:collect="always"
     xlink:href="#linearGradient3187"
     id="linearGradient4773"
     gradientUnits="userSpaceOnUse"
     gradientTransform="matrix(2.3189708,0,0,2.0930998,93.115298,-256.84999)"
     x1="123.50603"
     y1="344.03848"
     x2="123.47623"
     y2="254.73526" /><radialGradient
     inkscape:collect="always"
     xlink:href="#linearGradient3171"
     id="radialGradient4776"
     gradientUnits="userSpaceOnUse"
     gradientTransform="matrix(0.9201975,2.7970099e-7,-2.7059634e-7,0.8902438,28.590287,48.634335)"
     cx="373.24265"
     cy="467.91885"
     fx="373.24265"
     fy="467.91885"
     r="333.18735" /><radialGradient
     inkscape:collect="always"
     xlink:href="#linearGradient3157"
     id="radialGradient4779"
     gradientUnits="userSpaceOnUse"
     gradientTransform="matrix(0.9503534,1.1750652e-7,-5.6287062e-8,0.3462676,17.334826,362.44227)"
     cx="373.24265"
     cy="710.99164"
     fx="373.24265"
     fy="710.99164"
     r="333.18735" /><radialGradient
     inkscape:collect="always"
     xlink:href="#linearGradient3157"
     id="radialGradient4790"
     gradientUnits="userSpaceOnUse"
     gradientTransform="matrix(0.9503534,1.1750652e-7,-5.6287062e-8,0.3462676,17.334826,362.44227)"
     cx="373.24265"
     cy="710.99164"
     fx="373.24265"
     fy="710.99164"
     r="333.18735" /><radialGradient
     inkscape:collect="always"
     xlink:href="#linearGradient3171"
     id="radialGradient4792"
     gradientUnits="userSpaceOnUse"
     gradientTransform="matrix(0.9201975,2.7970099e-7,-2.7059634e-7,0.8902438,28.590287,48.634335)"
     cx="373.24265"
     cy="467.91885"
     fx="373.24265"
     fy="467.91885"
     r="333.18735" /><linearGradient
     inkscape:collect="always"
     xlink:href="#linearGradient3187"
     id="linearGradient4794"
     gradientUnits="userSpaceOnUse"
     gradientTransform="matrix(2.3189708,0,0,2.0930998,93.115298,-256.84999)"
     x1="123.50603"
     y1="344.03848"
     x2="123.47623"
     y2="254.73526" /><linearGradient
     inkscape:collect="always"
     xlink:href="#linearGradient3187"
     id="linearGradient4799"
     gradientUnits="userSpaceOnUse"
     gradientTransform="matrix(2.3189708,0,0,2.0930998,93.115298,-256.84999)"
     x1="123.50603"
     y1="344.03848"
     x2="123.47623"
     y2="254.73526" /><radialGradient
     inkscape:collect="always"
     xlink:href="#linearGradient3171"
     id="radialGradient4802"
     gradientUnits="userSpaceOnUse"
     gradientTransform="matrix(0.9201975,2.7970099e-7,-2.7059634e-7,0.8902438,28.590287,48.634335)"
     cx="373.24265"
     cy="467.91885"
     fx="373.24265"
     fy="467.91885"
     r="333.18735" /><radialGradient
     inkscape:collect="always"
     xlink:href="#linearGradient3157"
     id="radialGradient4805"
     gradientUnits="userSpaceOnUse"
     gradientTransform="matrix(0.9503534,1.1750652e-7,-5.6287062e-8,0.3462676,17.334826,362.44227)"
     cx="373.24265"
     cy="710.99164"
     fx="373.24265"
     fy="710.99164"
     r="333.18735" /><radialGradient
     inkscape:collect="always"
     xlink:href="#linearGradient3157"
     id="radialGradient4820"
     gradientUnits="userSpaceOnUse"
     gradientTransform="matrix(0.9503534,1.1750652e-7,-5.6287062e-8,0.3462676,17.334826,362.44227)"
     cx="373.24265"
     cy="710.99164"
     fx="373.24265"
     fy="710.99164"
     r="333.18735" /><radialGradient
     inkscape:collect="always"
     xlink:href="#linearGradient3171"
     id="radialGradient4822"
     gradientUnits="userSpaceOnUse"
     gradientTransform="matrix(0.9201975,2.7970099e-7,-2.7059634e-7,0.8902438,28.590287,48.634335)"
     cx="373.24265"
     cy="467.91885"
     fx="373.24265"
     fy="467.91885"
     r="333.18735" /><linearGradient
     inkscape:collect="always"
     xlink:href="#linearGradient3187"
     id="linearGradient4824"
     gradientUnits="userSpaceOnUse"
     gradientTransform="matrix(2.3189708,0,0,2.0930998,93.115298,-256.84999)"
     x1="123.50603"
     y1="344.03848"
     x2="123.47623"
     y2="254.73526" /><linearGradient
     inkscape:collect="always"
     xlink:href="#linearGradient3187"
     id="linearGradient4827"
     gradientUnits="userSpaceOnUse"
     gradientTransform="matrix(2.3189708,0,0,2.0930998,-99.17808,-231.54972)"
     x1="123.50603"
     y1="344.03848"
     x2="123.47623"
     y2="254.73526" /><radialGradient
     inkscape:collect="always"
     xlink:href="#linearGradient5443"
     id="radialGradient4832"
     gradientUnits="userSpaceOnUse"
     gradientTransform="matrix(0.9201975,2.7970099e-7,-2.7059634e-7,0.8902438,-163.70313,61.921561)"
     cx="373.24265"
     cy="467.91885"
     fx="373.24265"
     fy="467.91885"
     r="333.18735" /><radialGradient
     inkscape:collect="always"
     xlink:href="#linearGradient5443"
     id="radialGradient4835"
     gradientUnits="userSpaceOnUse"
     gradientTransform="matrix(0.9503534,1.1750652e-7,-5.6287062e-8,0.3462676,-174.95857,375.55031)"
     cx="373.24265"
     cy="710.99164"
     fx="373.24265"
     fy="710.99164"
     r="333.18735" /><filter
     inkscape:collect="always"
     id="filter5511"
     color-interpolation-filters="sRGB"><feGaussianBlur
       inkscape:collect="always"
       stdDeviation="3.2374974"
       id="feGaussianBlur5513" /></filter><radialGradient
     inkscape:collect="always"
     xlink:href="#linearGradient5443-5"
     id="radialGradient4835-3"
     gradientUnits="userSpaceOnUse"
     gradientTransform="matrix(0.9503534,1.1750652e-7,-5.6287062e-8,0.3462676,317.80591,185.68771)"
     cx="373.24265"
     cy="710.99164"
     fx="373.24265"
     fy="710.99164"
     r="333.18735" /><linearGradient
     id="linearGradient5443-5"><stop
       id="stop5445-4"
       offset="0"
       style="stop-color:#ffffff;stop-opacity:0;" /><stop
       id="stop5447-3"
       offset="1"
       style="stop-color:#000000;stop-opacity:0.33962265;" /></linearGradient><radialGradient
     inkscape:collect="always"
     xlink:href="#linearGradient5443"
     id="radialGradient3272"
     gradientUnits="userSpaceOnUse"
     gradientTransform="matrix(0.9503534,1.1750652e-7,-5.6287062e-8,0.3462676,-174.95857,375.55031)"
     cx="373.24265"
     cy="710.99164"
     fx="373.24265"
     fy="710.99164"
     r="333.18735" /><linearGradient
     inkscape:collect="always"
     xlink:href="#linearGradient3187"
     id="linearGradient3274"
     gradientUnits="userSpaceOnUse"
     gradientTransform="matrix(2.3189708,0,0,2.0930998,-99.17808,-231.54972)"
     x1="123.50603"
     y1="344.03848"
     x2="123.47623"
     y2="254.73526" /><radialGradient
     inkscape:collect="always"
     xlink:href="#linearGradient5443"
     id="radialGradient3276"
     gradientUnits="userSpaceOnUse"
     gradientTransform="matrix(0.9201975,2.7970099e-7,-2.7059634e-7,0.8902438,-163.70313,61.921561)"
     cx="373.24265"
     cy="467.91885"
     fx="373.24265"
     fy="467.91885"
     r="333.18735" /><radialGradient
     inkscape:collect="always"
     xlink:href="#linearGradient5443"
     id="radialGradient3427"
     gradientUnits="userSpaceOnUse"
     gradientTransform="matrix(0.86272608,1.0667183e-7,-5.1097115e-8,0.31434,772.90338,992.7076)"
     cx="373.24265"
     cy="710.99164"
     fx="373.24265"
     fy="710.99164"
     r="333.18735" /><linearGradient
     inkscape:collect="always"
     xlink:href="#linearGradient3187"
     id="linearGradient3429"
     gradientUnits="userSpaceOnUse"
     gradientTransform="matrix(2.3189708,0,0,2.0930998,-99.17808,-231.54972)"
     x1="123.50603"
     y1="344.03848"
     x2="123.47623"
     y2="254.73526" /><radialGradient
     inkscape:collect="always"
     xlink:href="#linearGradient5443"
     id="radialGradient3431"
     gradientUnits="userSpaceOnUse"
     gradientTransform="matrix(0.83535071,2.5391117e-7,-2.4564601e-7,0.80815889,783.12101,707.99698)"
     cx="373.24265"
     cy="467.91885"
     fx="373.24265"
     fy="467.91885"
     r="333.18735" /></defs><sodipodi:namedview
   pagecolor="#ffffff"
   bordercolor="#666666"
   borderopacity="1"
   objecttolerance="10"
   gridtolerance="10"
   guidetolerance="10"
   inkscape:pageopacity="0"
   inkscape:pageshadow="2"
   inkscape:window-width="1920"
   inkscape:window-height="1071"
   id="namedview99"
   showgrid="false"
   inkscape:zoom="0.5959596"
   inkscape:cx="874.06148"
   inkscape:cy="-140.35759"
   inkscape:window-x="0"
   inkscape:window-y="0"
   inkscape:window-maximized="1"
   inkscape:current-layer="_x31_"
   fit-margin-top="0"
   fit-margin-left="0"
   fit-margin-right="0"
   fit-margin-bottom="0" />
<g
   id="LWPOLYLINE"
   style="fill:#000000;fill-opacity:1;stroke:none"
   transform="translate(287.42375,49.152534)">
	
		
</g>
<g
   id="LWPOLYLINE_1_"
   style="fill:#000000;fill-opacity:1;stroke:none"
   transform="translate(287.42375,49.152534)">
	
		
</g>



<g
   id="LWPOLYLINE_5_"
   style="fill:#000000;fill-opacity:1;stroke:none"
   transform="translate(287.42375,49.152534)">
	
		
</g>


<g
   id="LINE"
   transform="translate(287.42375,49.152534)">
	
		
</g>
<g
   id="LINE_1_"
   transform="translate(287.42375,49.152534)">
	
		
</g>
<g
   id="LINE_2_"
   transform="translate(287.42375,49.152534)">
	
		
</g>
<g
   id="LINE_3_"
   transform="translate(287.42375,49.152534)">
	
		
</g>
<g
   id="LINE_4_"
   transform="translate(287.42375,49.152534)">
	
		
</g>
<g
   id="LINE_5_"
   transform="translate(287.42375,49.152534)">
	
		
</g>
<g
   id="LINE_6_"
   transform="translate(287.42375,49.152534)">
	
		
</g>

<g
   id="LINE_8_"
   transform="translate(287.42375,49.152534)">
	
		
</g>
<g
   id="LINE_9_"
   transform="translate(287.42375,49.152534)">
	
		
</g>
<g
   id="LINE_10_"
   transform="translate(287.42375,49.152534)">
	
		
</g>
<g
   id="LINE_11_"
   transform="translate(287.42375,49.152534)">
	
		
</g>

<g
   id="LINE_13_"
   transform="translate(287.42375,49.152534)">
	
		
</g>
<g
   id="LINE_14_"
   transform="translate(287.42375,49.152534)">
	
		
</g>
<g
   id="LINE_15_"
   transform="translate(287.42375,49.152534)">
	
		
</g>
<g
   id="LINE_16_"
   transform="translate(287.42375,49.152534)">
	
		
</g>







<g
   id="g3725"
   transform="translate(-919.90955,-911.15)"><rect
     inkscape:export-ydpi="29.879425"
     inkscape:export-xdpi="29.879425"
     inkscape:export-filename="C:\Documents and Settings\adscro24\Desktop\128.png"
     style="opacity:0.61338286;fill:#464646;fill-opacity:0.78540775;stroke:none;filter:url(#filter4659)"
     id="rect3279"
     width="152.93848"
     height="152.93848"
     x="135.39355"
     y="48.636749"
     rx="16.067965"
     ry="12.45238"
     transform="matrix(2.1051501,0,0,2.1051501,648.90657,822.78311)" /><rect
     inkscape:export-ydpi="29.879425"
     inkscape:export-xdpi="29.879425"
     inkscape:export-filename="C:\Documents and Settings\adscro24\Desktop\128.png"
     style="opacity:0.61338286;fill:url(#radialGradient3427);fill-opacity:1;stroke:#000000;stroke-width:3.26806188;stroke-miterlimit:4;stroke-opacity:1;stroke-dasharray:none"
     id="rect3155"
     width="321.95847"
     height="321.95847"
     x="933.9303"
     y="925.17072"
     rx="33.825481"
     ry="26.21413" /><path
     transform="matrix(0.90779502,0,0,0.90779502,931.7299,651.7849)"
     inkscape:export-ydpi="29.879425"
     inkscape:export-xdpi="29.879425"
     inkscape:export-filename="C:\Documents and Settings\adscro24\Desktop\128.png"
     inkscape:connector-curvature="0"
     style="opacity:0.61338286;fill:url(#linearGradient3429);fill-opacity:1;stroke:none;filter:url(#filter5511)"
     d="m 46.58172,323.34879 c -19.62748,0 -35.44272,12.0976 -35.44272,27.14163 l 0,124.30857 c 29.25482,11.38638 132.70149,11.89599 165.40488,-5.79022 33.32802,-18.02397 127.54379,-68.44264 171.82484,-52.72052 l 0,-65.79783 c 0,-15.04403 -15.7986,-27.14163 -35.4261,-27.14163 l -266.3609,0 z M 11.139,586.81982 l 0,42.88373 c 0,1.33144 0.14331,2.63588 0.38253,3.915 -0.11919,-12.81092 -0.25965,-28.88939 -0.38253,-46.79873 z"
     id="rect3177" /><rect
     inkscape:export-ydpi="29.879425"
     inkscape:export-xdpi="29.879425"
     inkscape:export-filename="C:\Documents and Settings\adscro24\Desktop\128.png"
     style="opacity:0.61338286;fill:url(#radialGradient3431);fill-opacity:1;stroke:#ffffff;stroke-width:0.68992418;stroke-linecap:square;stroke-miterlimit:4;stroke-opacity:1;stroke-dasharray:none"
     id="rect3473"
     width="306.12445"
     height="306.12445"
     x="941.84735"
     y="933.08777"
     rx="32.161926"
     ry="24.924913" /><rect
     inkscape:export-ydpi="29.879425"
     inkscape:export-xdpi="29.879425"
     inkscape:export-filename="C:\Documents and Settings\adscro24\Desktop\128.png"
     style="opacity:0.61338286;fill:#ffffff;fill-opacity:0;stroke:#000000;stroke-width:3.26806188;stroke-miterlimit:4;stroke-opacity:1;stroke-dasharray:none"
     id="rect3155-2"
     width="321.95847"
     height="321.95847"
     x="933.9303"
     y="925.17072"
     rx="33.825481"
     ry="26.21413" /></g><g
   id="LWPOLYLINE_2_-7"
   style="fill:#000000;fill-opacity:1;stroke:none"
   transform="translate(400.39147,135.8211)">
	
		
</g><g
   id="g3027"
   transform="matrix(0.50021803,0,0,0.50021803,21.953736,-22.890727)"><g
     style="fill:#000000;fill-opacity:1;stroke:none"
     id="LWPOLYLINE_2_">
	
		<path
   inkscape:connector-curvature="0"
   id="path10"
   d="m 145.21875,552.71875 c 0.31567,30.24682 -0.62921,61.75418 0.4687,91.21875 14.67805,-1.11913 30.49836,2.85075 44.25,-3.656 12.14165,-7.85454 13.72342,-27.55473 5.06255,-38.50025 -2.47228,-3.88307 -13.25086,-6.87554 -12,-6.0625 15.99155,-3.91126 17.89668,-25.70207 8.15655,-36.6875 -8.99871,-10.05296 -24.22739,-5.00049 -35.96905,-6.3122 -3.32273,-2.9e-4 -6.64654,5e-4 -9.96875,-3e-4 z M 156.25,562.9375 c 9.58082,0.84593 23.23659,-3.35042 28.59375,7.37485 4.757,9.63916 -3.02984,22.52336 -14.21875,20.9374 -4.78125,0 -9.5625,0 -14.34375,0 -0.0477,-9.4372 -0.0246,-18.87575 -0.0312,-28.31225 z m 0,37.71875 c 10.65659,0.49717 25.77565,-2.75348 30.96875,9.3436 4.96526,10.8624 -3.26749,25.36347 -15.9374,23.68745 -4.97917,0 -9.95833,0 -14.9375,0 -0.14823,-11.00893 -0.0726,-22.02188 -0.0939,-33.03105 z"
   style="fill:#000000;fill-opacity:1;stroke:none" />
</g><g
     style="fill:#000000;fill-opacity:1;stroke:none"
     id="LWPOLYLINE_3_">
	
		<path
   inkscape:connector-curvature="0"
   id="path13"
   d="m 263.947,643.926 c -0.36514,-3.25308 0.75105,-7.81205 -0.537,-10.254 -10.83167,0 -21.66333,0 -32.495,0 -0.20754,-26.91955 0.41567,-54.35328 -0.307,-80.954 -3.37059,0.43381 -8.30628,-0.8932 -10.689,0.652 0,30.12067 0,60.24133 0,90.362 14.6725,0.2726 29.353,0.14287 44.028,0.194 z"
   style="fill:#000000;fill-opacity:1;stroke:none" />
</g><g
     style="fill:#000000;fill-opacity:1;stroke:none"
     id="LWPOLYLINE_4_">
	
		<path
   inkscape:connector-curvature="0"
   id="path16"
   d="m 299.3125,551.15625 c -14.48006,-1.23031 -28.33027,10.16711 -28.125,25.125 0.21909,17.05884 -1.85787,34.51863 1.96865,51.28125 4.1334,18.39045 28.06845,22.11751 42.5,14 15.68822,-11.4271 11.16333,-32.97342 11.9375,-49.71875 0.52308,-13.55445 0.77726,-31.31567 -13.84375,-37.8125 -4.47028,-2.15428 -9.51564,-2.85872 -14.4374,-2.875 z m -1,9.4375 c 11.57001,-1.50097 19.08155,10.40629 17.5312,20.9685 -1.01912,15.73797 2.47118,32.29035 -2.9999,47.40625 -6.212,11.96665 -28.3863,8.56426 -29,-5.84375 -1.9037,-15.88435 -1.07237,-32.06494 -0.6875,-48.03125 0.69901,-8.01247 6.98646,-14.54603 15.1562,-14.49975 z"
   style="fill:#000000;fill-opacity:1;stroke:none" />
</g><g
     style="fill:#000000;fill-opacity:1;stroke:none"
     id="LWPOLYLINE_6_">
	
		<path
   inkscape:connector-curvature="0"
   id="path22"
   d="m 397.589,577.863 c 2.11268,-11.47243 -3.5528,-25.72664 -16.774,-26.293 -13.33388,-2.28234 -30.67845,2.1832 -33.472,17.465 -3.0348,16.05524 -1.44008,32.6551 -1.23829,48.91158 0.15909,13.20178 8.73206,28.0613 23.54129,27.44142 11.71569,1.73559 25.80893,-3.33412 28.217,-16.237 0.29746,-3.63136 3.44209,-11.57156 -0.23,-12.744 -3.17039,0.74556 -8.91946,-1.58179 -10.293,1.305 1.0729,9.77823 -6.72331,20.65266 -17.276,18.156 -12.73875,-1.68358 -12.61282,-17.52322 -12.589,-27.484 0.94668,-13.71458 -2.24764,-28.40671 2.835,-41.5 6.11804,-9.43616 25.04009,-8.51114 25.791,4.463 0.86557,3.07079 -1.08977,8.38994 4.17132,6.529 2.4355,-0.007 4.90248,0.0157 7.31668,-0.013 z"
   style="fill:#000000;fill-opacity:1;stroke:none" />
</g><g
     style="fill:#000000;fill-opacity:1;stroke:none"
     id="LWPOLYLINE_7_">
	
		<path
   inkscape:connector-curvature="0"
   id="path25"
   d="m 414.863,643.926 c 3.44703,-0.50304 8.76974,1.04596 11.022,-0.768 0.28524,-15.62284 -0.57575,-32.15325 0.421,-47.213 10.86442,15.36738 20.49419,32.43798 31.282,47.982 4.57469,-0.2889 10.85141,0.5762 14.436,-0.384 -11.23397,-16.76786 -23.56808,-33.40356 -34.13,-50.249 10.42011,-13.42719 22.10951,-27.43209 31.666,-40.573 -5.44115,0.80654 -12.97475,-2.64941 -15.43,4.184 -9.43156,11.79346 -18.19363,24.86106 -28.018,35.892 -0.74783,-12.8844 0.33756,-27.26773 -0.538,-40.076 -3.533,0 -7.066,0 -10.599,0 -0.1542,30.40118 -0.0843,60.80343 -0.112,91.205 z"
   style="fill:#000000;fill-opacity:1;stroke:none" />
</g><g
     id="LINE_7_">
	
		<path
   inkscape:connector-curvature="0"
   id="line49"
   d="m 393.67401,145.5 c -71.54567,0 -143.09134,0 -214.63701,0 0.90945,6.57897 -1.76787,16.74471 1.23725,21.228 65.88725,0 131.7745,0 197.66175,0 0,66.037 0,132.07399 0,198.11099 -66.29967,0 -132.59933,0 -198.899,0 0.91109,6.57099 -1.77011,16.73429 1.23725,21.20901 71.13325,0 142.26651,0 213.39976,0 12.30933,-40.2195 24.61865,-80.43901 36.92798,-120.65851 C 418.29266,225.42633 405.98334,185.46316 393.67401,145.5 z"
   style="fill:#000000;fill-opacity:1;stroke:none" />
</g><g
     style="fill:#000000;fill-opacity:0.21864953;stroke:none"
     id="LINE_12_">
	
		<path
   inkscape:connector-curvature="0"
   id="line64"
   d="m 179.03125,180.875 c 0,56.07292 0,112.14583 0,168.21875 56.07292,0 112.14583,0 168.21875,0 0,-56.07292 0,-112.14583 0,-168.21875 -56.07292,0 -112.14583,0 -168.21875,0 z m 15.71875,16.5 c 45.60417,0 91.20833,0 136.8125,0 0,45.33333 0,90.66667 0,136 -45.60417,0 -91.20833,0 -136.8125,0 0,-45.33333 0,-90.66667 0,-136 z"
   style="fill:#000000;fill-opacity:1;stroke:none" />
</g><g
     style="fill:#000000;fill-opacity:1;stroke:none"
     id="LWPOLYLINE_8_">
	
		<path
   inkscape:connector-curvature="0"
   id="polygon79"
   d="m 194.756,257.856 c 24.452,0 48.904,0 73.356,0 0,-8.63033 0,-17.26067 0,-25.891 20.88233,11.09367 41.76467,22.18733 62.647,33.281 -20.88233,10.921 -41.76467,21.842 -62.647,32.763 0,-8.45167 0,-16.90333 0,-25.355 -24.452,0 -48.904,0 -73.356,0 0,-4.93267 0,-9.86533 0,-14.798 z"
   style="fill:#000000;fill-opacity:1;stroke:none" />
</g><g
     style="fill:#000000;fill-opacity:1;stroke:none"
     id="LWPOLYLINE_9_">
	
		<path
   inkscape:connector-curvature="0"
   id="path82"
   d="m 124.011,486.696 c -1.51797,12.88951 6.12177,27.33575 20.055,28.484 14.40533,3.05704 33.87682,-2.86385 35.375,-19.843 3.18975,-13.76437 -6.76453,-26.01547 -18.886,-31.131 -9.45074,-4.94837 -24.86424,-10.5555 -22.07,-24.032 2.60371,-14.4237 28.60659,-13.34454 28.543,2.072 -0.8005,4.07807 1.18827,4.96086 4.8,4.337 3.38274,-0.23417 9.07806,1.58732 7.215,-4.07 0.90581,-13.23148 -11.02996,-23.74246 -23.931,-22.647 -15.05361,-1.74215 -30.69779,10.4259 -28.6852,26.37836 0.72063,17.6437 20.1596,22.90637 32.6212,30.70364 10.92997,4.70007 12.57726,22.82306 0.766,27.254 -9.61813,4.14989 -23.81613,-0.45863 -23.877,-12.477 1.8815,-8.234 -6.31205,-4.18901 -11.926,-5.029 z"
   style="fill:#000000;fill-opacity:1;stroke:none" />
</g><g
     style="fill:#000000;fill-opacity:1;stroke:none"
     id="LWPOLYLINE_10_">
	
		<path
   inkscape:connector-curvature="0"
   id="path85"
   d="m 206.56,422.207 c -3.75646,0.46437 -8.94805,-0.95952 -11.803,0.691 0.22305,30.35499 -0.45316,61.28132 0.326,91.283 3.76167,0 7.52333,0 11.285,0 0.26433,-30.65659 0.14449,-61.31629 0.192,-91.974 z"
   style="fill:#000000;fill-opacity:1;stroke:none" />
</g><g
     style="fill:#000000;fill-opacity:1;stroke:none"
     id="LWPOLYLINE_11_">
	
		<path
   inkscape:connector-curvature="0"
   id="path88"
   d="m 279.667,422.207 c -0.1854,25.43055 0.36624,53.38568 -0.27,77.272 -12.21266,-25.63593 -23.64745,-52.22867 -36.35,-77.272 -5.34167,0 -10.68333,0 -16.025,0 0.16475,30.59094 -0.43286,61.70682 0.288,91.974 3.39045,-0.38844 8.16067,0.79692 10.688,-0.576 0,-26.48633 0,-52.97267 0,-79.459 12.56674,26.55838 24.4206,53.74462 37.195,80.035 4.93429,-0.48157 11.48777,0.96663 15.468,-0.652 0,-30.37667 0,-60.75333 0,-91.13 -3.65614,-0.27364 -7.33088,-0.13927 -10.994,-0.192 z"
   style="fill:#000000;fill-opacity:1;stroke:none" />
</g><g
     style="fill:#000000;fill-opacity:1;stroke:none"
     id="LWPOLYLINE_12_">
	
		<path
   inkscape:connector-curvature="0"
   id="path91"
   d="m 366.15,446.583 c 1.45673,-11.58993 -5.00826,-24.69095 -17.734,-25.835 -14.72039,-3.32866 -34.36509,0.95388 -38.234,17.811 -2.88092,15.51369 -0.98258,31.53087 -1.266,47.252 -0.21877,13.73825 8.05113,29.22532 23.338,29.634 11.5316,1.09455 24.24509,-0.88386 33.893,-7.059 -0.31243,-14.6921 0.62146,-30.45623 -0.459,-44.488 -9.41847,0.21653 -19.69394,-0.42394 -28.636,0.269 0.48791,3.0873 -1.00084,7.98314 0.729,9.94 5.32045,0.37623 12.01299,-0.7279 16.581,0.461 -0.50882,9.04148 0.9881,19.04411 -0.614,27.562 -7.87198,4.311 -18.90383,5.05818 -26.755,0.453 -9.94005,-10.57909 -5.24571,-26.72552 -6.449,-39.8 0.24652,-10.91357 -2.59402,-27.41619 10.67,-31.859 8.97501,-2.89437 22.24398,0.37871 22.147,11.783 -1.49206,7.23531 8.57702,2.56046 12.789,3.876 z"
   style="fill:#000000;fill-opacity:1;stroke:none" />
</g><g
     style="fill:#000000;fill-opacity:1;stroke:none"
     id="LWPOLYLINE_13_">
	
		<path
   inkscape:connector-curvature="0"
   id="path94"
   d="m 430.602,514.181 c -0.36738,-3.2382 0.75375,-7.79207 -0.538,-10.216 -11.35,0 -22.7,0 -34.05,0 -0.23401,-27.17638 0.46861,-54.96271 -0.346,-81.761 -3.63328,0.46943 -8.71132,-0.96208 -11.445,0.691 0,30.37667 0,60.75333 0,91.13 15.45752,0.21917 30.91995,0.11491 46.379,0.156 z"
   style="fill:#000000;fill-opacity:1;stroke:none" />
</g><g
     style="fill:#000000;fill-opacity:1;stroke:none"
     id="LWPOLYLINE_14_">
	
		<path
   inkscape:connector-curvature="0"
   id="path97"
   d="m 487.988,514.181 c -0.38898,-3.22946 0.80068,-7.86132 -0.576,-10.216 -12.03649,-0.17315 -24.63584,0.3172 -36.355,-0.23 0.43987,-10.39646 -0.85963,-22.5323 0.537,-31.972 10.92509,-0.25891 22.83602,0.46802 33.245,-0.307 -0.37062,-3.14567 0.75381,-7.61272 -0.537,-9.948 -10.98632,-0.15901 -22.579,0.28834 -33.245,-0.191 0.18227,-9.78306 -0.35915,-20.28982 0.229,-29.667 11.86163,-0.20603 24.5126,0.37726 35.934,-0.269 -0.46882,-2.87686 0.98492,-7.38927 -0.768,-9.182 -15.69967,0 -31.39933,0 -47.099,0 -0.27277,30.58763 -0.0376,61.21723 -0.115,91.821 16.24782,0.22623 32.50062,0.11857 48.75,0.161 z"
   style="fill:#000000;fill-opacity:1;stroke:none" />
</g></g></svg>