<?xml version="1.0" encoding="UTF-8" standalone="no"?>
<!-- Generator: Adobe Illustrator 16.0.1, SVG Export Plug-In . SVG Version: 6.00 Build 0)  -->

<svg
   xmlns:dc="http://purl.org/dc/elements/1.1/"
   xmlns:cc="http://creativecommons.org/ns#"
   xmlns:rdf="http://www.w3.org/1999/02/22-rdf-syntax-ns#"
   xmlns:svg="http://www.w3.org/2000/svg"
   xmlns="http://www.w3.org/2000/svg"
   xmlns:xlink="http://www.w3.org/1999/xlink"
   xmlns:sodipodi="http://sodipodi.sourceforge.net/DTD/sodipodi-0.dtd"
   xmlns:inkscape="http://www.inkscape.org/namespaces/inkscape"
   version="1.0"
   id="_x31_"
   x="0px"
   y="0px"
   width="350"
   height="350"
   viewBox="0 0 350 350"
   enable-background="new 0 0 612 792"
   xml:space="preserve"
   inkscape:version="0.48.2 r9819"
   sodipodi:docname="7048.svg"><metadata
   id="metadata28"><rdf:RDF><cc:Work
       rdf:about=""><dc:format>image/svg+xml</dc:format><dc:type
         rdf:resource="http://purl.org/dc/dcmitype/StillImage" /></cc:Work></rdf:RDF></metadata><defs
   id="defs26"><radialGradient
     r="333.18735"
     fy="710.99164"
     fx="373.24265"
     cy="710.99164"
     cx="373.24265"
     gradientTransform="matrix(0.86272608,1.0667183e-7,-5.1097115e-8,0.31434,-147.00617,81.5576)"
     gradientUnits="userSpaceOnUse"
     id="radialGradient3092"
     xlink:href="#linearGradient5443"
     inkscape:collect="always" /><radialGradient
     r="333.18735"
     fy="467.91885"
     fx="373.24265"
     cy="467.91885"
     cx="373.24265"
     gradientTransform="matrix(0.83535071,2.5391117e-7,-2.4564601e-7,0.80815889,-136.78854,-203.15302)"
     gradientUnits="userSpaceOnUse"
     id="radialGradient3088"
     xlink:href="#linearGradient5443"
     inkscape:collect="always" /><radialGradient
     r="333.18735"
     fy="467.91885"
     fx="373.24265"
     cy="467.91885"
     cx="373.24265"
     gradientTransform="matrix(0.83535071,2.5391117e-7,-2.4564601e-7,0.80815889,783.12101,707.99698)"
     gradientUnits="userSpaceOnUse"
     id="radialGradient3736"
     xlink:href="#linearGradient5443"
     inkscape:collect="always" /><linearGradient
     y2="254.73526"
     x2="123.47623"
     y1="344.03848"
     x1="123.50603"
     gradientTransform="matrix(2.3189708,0,0,2.0930998,-99.17808,-231.54972)"
     gradientUnits="userSpaceOnUse"
     id="linearGradient3734"
     xlink:href="#linearGradient3187"
     inkscape:collect="always" /><radialGradient
     r="333.18735"
     fy="710.99164"
     fx="373.24265"
     cy="710.99164"
     cx="373.24265"
     gradientTransform="matrix(0.86272608,1.0667183e-7,-5.1097115e-8,0.31434,772.90338,992.7076)"
     gradientUnits="userSpaceOnUse"
     id="radialGradient3732"
     xlink:href="#linearGradient5443"
     inkscape:collect="always" /><radialGradient
     r="333.18735"
     fy="710.99164"
     fx="373.24265"
     cy="710.99164"
     cx="373.24265"
     gradientTransform="matrix(0.86272608,1.0667183e-7,-5.1097115e-8,0.31434,772.90338,992.7076)"
     gradientUnits="userSpaceOnUse"
     id="radialGradient3722"
     xlink:href="#linearGradient5443"
     inkscape:collect="always" /><radialGradient
     r="333.18735"
     fy="467.91885"
     fx="373.24265"
     cy="467.91885"
     cx="373.24265"
     gradientTransform="matrix(0.83535071,2.5391117e-7,-2.4564601e-7,0.80815889,783.12101,707.99698)"
     gradientUnits="userSpaceOnUse"
     id="radialGradient3718"
     xlink:href="#linearGradient5443"
     inkscape:collect="always" /><radialGradient
     r="333.18735"
     fy="467.91885"
     fx="373.24265"
     cy="467.91885"
     cx="373.24265"
     gradientTransform="matrix(0.9201975,2.7970099e-7,-2.7059634e-7,0.8902438,-163.70313,61.921561)"
     gradientUnits="userSpaceOnUse"
     id="radialGradient3703"
     xlink:href="#linearGradient5443"
     inkscape:collect="always" /><linearGradient
     y2="254.73526"
     x2="123.47623"
     y1="344.03848"
     x1="123.50603"
     gradientTransform="matrix(2.3189708,0,0,2.0930998,-99.17808,-231.54972)"
     gradientUnits="userSpaceOnUse"
     id="linearGradient3701"
     xlink:href="#linearGradient3187"
     inkscape:collect="always" /><radialGradient
     r="333.18735"
     fy="710.99164"
     fx="373.24265"
     cy="710.99164"
     cx="373.24265"
     gradientTransform="matrix(0.9503534,1.1750652e-7,-5.6287062e-8,0.3462676,-174.95857,375.55031)"
     gradientUnits="userSpaceOnUse"
     id="radialGradient3699"
     xlink:href="#linearGradient5443"
     inkscape:collect="always" /><radialGradient
     r="333.18735"
     fy="467.91885"
     fx="373.24265"
     cy="467.91885"
     cx="373.24265"
     gradientTransform="matrix(0.9201975,2.7970099e-7,-2.7059634e-7,0.8902438,-163.70313,61.921561)"
     gradientUnits="userSpaceOnUse"
     id="radialGradient3680"
     xlink:href="#linearGradient5443"
     inkscape:collect="always" /><linearGradient
     y2="254.73526"
     x2="123.47623"
     y1="344.03848"
     x1="123.50603"
     gradientTransform="matrix(2.3189708,0,0,2.0930998,-99.17808,-231.54972)"
     gradientUnits="userSpaceOnUse"
     id="linearGradient3678"
     xlink:href="#linearGradient3187"
     inkscape:collect="always" /><radialGradient
     r="333.18735"
     fy="710.99164"
     fx="373.24265"
     cy="710.99164"
     cx="373.24265"
     gradientTransform="matrix(0.9503534,1.1750652e-7,-5.6287062e-8,0.3462676,-174.95857,375.55031)"
     gradientUnits="userSpaceOnUse"
     id="radialGradient3676"
     xlink:href="#linearGradient5443"
     inkscape:collect="always" /><radialGradient
     r="333.18735"
     fy="467.91885"
     fx="373.24265"
     cy="467.91885"
     cx="373.24265"
     gradientTransform="matrix(0.9201975,2.7970099e-7,-2.7059634e-7,0.8902438,-163.70313,61.921561)"
     gradientUnits="userSpaceOnUse"
     id="radialGradient3654"
     xlink:href="#linearGradient5443"
     inkscape:collect="always" /><linearGradient
     y2="254.73526"
     x2="123.47623"
     y1="344.03848"
     x1="123.50603"
     gradientTransform="matrix(2.3189708,0,0,2.0930998,-99.17808,-231.54972)"
     gradientUnits="userSpaceOnUse"
     id="linearGradient3652"
     xlink:href="#linearGradient3187"
     inkscape:collect="always" /><radialGradient
     r="333.18735"
     fy="710.99164"
     fx="373.24265"
     cy="710.99164"
     cx="373.24265"
     gradientTransform="matrix(0.9503534,1.1750652e-7,-5.6287062e-8,0.3462676,-174.95857,375.55031)"
     gradientUnits="userSpaceOnUse"
     id="radialGradient3650"
     xlink:href="#linearGradient5443"
     inkscape:collect="always" /><radialGradient
     r="333.18735"
     fy="467.91885"
     fx="373.24265"
     cy="467.91885"
     cx="373.24265"
     gradientTransform="matrix(0.9201975,2.7970099e-7,-2.7059634e-7,0.8902438,-163.70313,61.921561)"
     gradientUnits="userSpaceOnUse"
     id="radialGradient3627"
     xlink:href="#linearGradient5443"
     inkscape:collect="always" /><linearGradient
     y2="254.73526"
     x2="123.47623"
     y1="344.03848"
     x1="123.50603"
     gradientTransform="matrix(2.3189708,0,0,2.0930998,-99.17808,-231.54972)"
     gradientUnits="userSpaceOnUse"
     id="linearGradient3625"
     xlink:href="#linearGradient3187"
     inkscape:collect="always" /><radialGradient
     r="333.18735"
     fy="710.99164"
     fx="373.24265"
     cy="710.99164"
     cx="373.24265"
     gradientTransform="matrix(0.9503534,1.1750652e-7,-5.6287062e-8,0.3462676,-174.95857,375.55031)"
     gradientUnits="userSpaceOnUse"
     id="radialGradient3623"
     xlink:href="#linearGradient5443"
     inkscape:collect="always" /><radialGradient
     r="333.18735"
     fy="467.91885"
     fx="373.24265"
     cy="467.91885"
     cx="373.24265"
     gradientTransform="matrix(0.9201975,2.7970099e-7,-2.7059634e-7,0.8902438,-163.70313,61.921561)"
     gradientUnits="userSpaceOnUse"
     id="radialGradient3599"
     xlink:href="#linearGradient5443"
     inkscape:collect="always" /><linearGradient
     y2="254.73526"
     x2="123.47623"
     y1="344.03848"
     x1="123.50603"
     gradientTransform="matrix(2.3189708,0,0,2.0930998,-99.17808,-231.54972)"
     gradientUnits="userSpaceOnUse"
     id="linearGradient3597"
     xlink:href="#linearGradient3187"
     inkscape:collect="always" /><radialGradient
     r="333.18735"
     fy="710.99164"
     fx="373.24265"
     cy="710.99164"
     cx="373.24265"
     gradientTransform="matrix(0.9503534,1.1750652e-7,-5.6287062e-8,0.3462676,-174.95857,375.55031)"
     gradientUnits="userSpaceOnUse"
     id="radialGradient3595"
     xlink:href="#linearGradient5443"
     inkscape:collect="always" /><radialGradient
     r="333.18735"
     fy="467.91885"
     fx="373.24265"
     cy="467.91885"
     cx="373.24265"
     gradientTransform="matrix(0.9201975,2.7970099e-7,-2.7059634e-7,0.8902438,-163.70313,61.921561)"
     gradientUnits="userSpaceOnUse"
     id="radialGradient3525"
     xlink:href="#linearGradient5443"
     inkscape:collect="always" /><linearGradient
     y2="254.73526"
     x2="123.47623"
     y1="344.03848"
     x1="123.50603"
     gradientTransform="matrix(2.3189708,0,0,2.0930998,-99.17808,-231.54972)"
     gradientUnits="userSpaceOnUse"
     id="linearGradient3523"
     xlink:href="#linearGradient3187"
     inkscape:collect="always" /><radialGradient
     r="333.18735"
     fy="710.99164"
     fx="373.24265"
     cy="710.99164"
     cx="373.24265"
     gradientTransform="matrix(0.9503534,1.1750652e-7,-5.6287062e-8,0.3462676,-174.95857,375.55031)"
     gradientUnits="userSpaceOnUse"
     id="radialGradient3521"
     xlink:href="#linearGradient5443"
     inkscape:collect="always" /><radialGradient
     r="333.18735"
     fy="467.91885"
     fx="373.24265"
     cy="467.91885"
     cx="373.24265"
     gradientTransform="matrix(0.9201975,2.7970099e-7,-2.7059634e-7,0.8902438,-163.70313,61.921561)"
     gradientUnits="userSpaceOnUse"
     id="radialGradient3497"
     xlink:href="#linearGradient5443"
     inkscape:collect="always" /><linearGradient
     y2="254.73526"
     x2="123.47623"
     y1="344.03848"
     x1="123.50603"
     gradientTransform="matrix(2.3189708,0,0,2.0930998,-99.17808,-231.54972)"
     gradientUnits="userSpaceOnUse"
     id="linearGradient3495"
     xlink:href="#linearGradient3187"
     inkscape:collect="always" /><radialGradient
     r="333.18735"
     fy="710.99164"
     fx="373.24265"
     cy="710.99164"
     cx="373.24265"
     gradientTransform="matrix(0.9503534,1.1750652e-7,-5.6287062e-8,0.3462676,-174.95857,375.55031)"
     gradientUnits="userSpaceOnUse"
     id="radialGradient3493"
     xlink:href="#linearGradient5443"
     inkscape:collect="always" /><linearGradient
     id="linearGradient5443"><stop
       id="stop5445"
       offset="0"
       style="stop-color:#ffffff;stop-opacity:0;" /><stop
       id="stop5447"
       offset="1"
       style="stop-color:#000000;stop-opacity:0.33962265;" /></linearGradient><linearGradient
     id="linearGradient3157"><stop
       style="stop-color:#49bcff;stop-opacity:1;"
       offset="0"
       id="stop3159" /><stop
       style="stop-color:#494c96;stop-opacity:1;"
       offset="1"
       id="stop3161" /></linearGradient><linearGradient
     id="linearGradient3171"><stop
       id="stop3173"
       offset="0"
       style="stop-color:#49bcff;stop-opacity:1;" /><stop
       id="stop3175"
       offset="1"
       style="stop-color:#494cdc;stop-opacity:1;" /></linearGradient><linearGradient
     id="linearGradient3187"><stop
       style="stop-color:#ffffff;stop-opacity:0.39622641;"
       offset="0"
       id="stop3189" /><stop
       style="stop-color:#000000;stop-opacity:1;"
       offset="1"
       id="stop3191" /></linearGradient><linearGradient
     id="linearGradient4395"><stop
       style="stop-color:#110084;stop-opacity:1;"
       offset="0"
       id="stop4397" /><stop
       style="stop-color:#a695ff;stop-opacity:1;"
       offset="1"
       id="stop4399" /></linearGradient><linearGradient
     id="linearGradient4383"><stop
       style="stop-color:#00037f;stop-opacity:1;"
       offset="0"
       id="stop4385" /><stop
       style="stop-color:#00037f;stop-opacity:0;"
       offset="1"
       id="stop4387" /></linearGradient><inkscape:perspective
     sodipodi:type="inkscape:persp3d"
     inkscape:vp_x="0 : 526.18109 : 1"
     inkscape:vp_y="0 : 1000 : 0"
     inkscape:vp_z="744.09448 : 526.18109 : 1"
     inkscape:persp3d-origin="372.04724 : 350.78739 : 1"
     id="perspective3214" /><linearGradient
     inkscape:collect="always"
     xlink:href="#linearGradient4383"
     id="linearGradient4389"
     x1="371.42194"
     y1="298.59412"
     x2="396.91168"
     y2="655.4505"
     gradientUnits="userSpaceOnUse" /><linearGradient
     inkscape:collect="always"
     xlink:href="#linearGradient4395"
     id="linearGradient4401"
     x1="360.49777"
     y1="167.50403"
     x2="360.49777"
     y2="540.86719"
     gradientUnits="userSpaceOnUse" /><linearGradient
     inkscape:collect="always"
     xlink:href="#linearGradient3187"
     id="linearGradient4562"
     gradientUnits="userSpaceOnUse"
     gradientTransform="matrix(2.3189708,0,0,2.0930998,93.115298,-256.84999)"
     x1="123.50603"
     y1="344.03848"
     x2="123.47623"
     y2="254.73526" /><radialGradient
     inkscape:collect="always"
     xlink:href="#linearGradient3171"
     id="radialGradient4569"
     gradientUnits="userSpaceOnUse"
     gradientTransform="matrix(0.9201975,2.7970099e-7,-2.7059634e-7,0.8902438,28.590287,48.634335)"
     cx="373.24265"
     cy="467.91885"
     fx="373.24265"
     fy="467.91885"
     r="333.18735" /><radialGradient
     inkscape:collect="always"
     xlink:href="#linearGradient3157"
     id="radialGradient4572"
     gradientUnits="userSpaceOnUse"
     gradientTransform="matrix(0.9503534,1.1750652e-7,-5.6287062e-8,0.3462676,17.334826,362.44227)"
     cx="373.24265"
     cy="710.99164"
     fx="373.24265"
     fy="710.99164"
     r="333.18735" /><filter
     inkscape:collect="always"
     id="filter4659"
     color-interpolation-filters="sRGB"><feGaussianBlur
       inkscape:collect="always"
       stdDeviation="2.7750933"
       id="feGaussianBlur4661" /></filter><radialGradient
     inkscape:collect="always"
     xlink:href="#linearGradient3157"
     id="radialGradient4766"
     gradientUnits="userSpaceOnUse"
     gradientTransform="matrix(0.9503534,1.1750652e-7,-5.6287062e-8,0.3462676,17.334826,362.44227)"
     cx="373.24265"
     cy="710.99164"
     fx="373.24265"
     fy="710.99164"
     r="333.18735" /><radialGradient
     inkscape:collect="always"
     xlink:href="#linearGradient3171"
     id="radialGradient4768"
     gradientUnits="userSpaceOnUse"
     gradientTransform="matrix(0.9201975,2.7970099e-7,-2.7059634e-7,0.8902438,28.590287,48.634335)"
     cx="373.24265"
     cy="467.91885"
     fx="373.24265"
     fy="467.91885"
     r="333.18735" /><linearGradient
     inkscape:collect="always"
     xlink:href="#linearGradient3187"
     id="linearGradient4770"
     gradientUnits="userSpaceOnUse"
     gradientTransform="matrix(2.3189708,0,0,2.0930998,93.115298,-256.84999)"
     x1="123.50603"
     y1="344.03848"
     x2="123.47623"
     y2="254.73526" /><linearGradient
     inkscape:collect="always"
     xlink:href="#linearGradient3187"
     id="linearGradient4773"
     gradientUnits="userSpaceOnUse"
     gradientTransform="matrix(2.3189708,0,0,2.0930998,93.115298,-256.84999)"
     x1="123.50603"
     y1="344.03848"
     x2="123.47623"
     y2="254.73526" /><radialGradient
     inkscape:collect="always"
     xlink:href="#linearGradient3171"
     id="radialGradient4776"
     gradientUnits="userSpaceOnUse"
     gradientTransform="matrix(0.9201975,2.7970099e-7,-2.7059634e-7,0.8902438,28.590287,48.634335)"
     cx="373.24265"
     cy="467.91885"
     fx="373.24265"
     fy="467.91885"
     r="333.18735" /><radialGradient
     inkscape:collect="always"
     xlink:href="#linearGradient3157"
     id="radialGradient4779"
     gradientUnits="userSpaceOnUse"
     gradientTransform="matrix(0.9503534,1.1750652e-7,-5.6287062e-8,0.3462676,17.334826,362.44227)"
     cx="373.24265"
     cy="710.99164"
     fx="373.24265"
     fy="710.99164"
     r="333.18735" /><radialGradient
     inkscape:collect="always"
     xlink:href="#linearGradient3157"
     id="radialGradient4790"
     gradientUnits="userSpaceOnUse"
     gradientTransform="matrix(0.9503534,1.1750652e-7,-5.6287062e-8,0.3462676,17.334826,362.44227)"
     cx="373.24265"
     cy="710.99164"
     fx="373.24265"
     fy="710.99164"
     r="333.18735" /><radialGradient
     inkscape:collect="always"
     xlink:href="#linearGradient3171"
     id="radialGradient4792"
     gradientUnits="userSpaceOnUse"
     gradientTransform="matrix(0.9201975,2.7970099e-7,-2.7059634e-7,0.8902438,28.590287,48.634335)"
     cx="373.24265"
     cy="467.91885"
     fx="373.24265"
     fy="467.91885"
     r="333.18735" /><linearGradient
     inkscape:collect="always"
     xlink:href="#linearGradient3187"
     id="linearGradient4794"
     gradientUnits="userSpaceOnUse"
     gradientTransform="matrix(2.3189708,0,0,2.0930998,93.115298,-256.84999)"
     x1="123.50603"
     y1="344.03848"
     x2="123.47623"
     y2="254.73526" /><linearGradient
     inkscape:collect="always"
     xlink:href="#linearGradient3187"
     id="linearGradient4799"
     gradientUnits="userSpaceOnUse"
     gradientTransform="matrix(2.3189708,0,0,2.0930998,93.115298,-256.84999)"
     x1="123.50603"
     y1="344.03848"
     x2="123.47623"
     y2="254.73526" /><radialGradient
     inkscape:collect="always"
     xlink:href="#linearGradient3171"
     id="radialGradient4802"
     gradientUnits="userSpaceOnUse"
     gradientTransform="matrix(0.9201975,2.7970099e-7,-2.7059634e-7,0.8902438,28.590287,48.634335)"
     cx="373.24265"
     cy="467.91885"
     fx="373.24265"
     fy="467.91885"
     r="333.18735" /><radialGradient
     inkscape:collect="always"
     xlink:href="#linearGradient3157"
     id="radialGradient4805"
     gradientUnits="userSpaceOnUse"
     gradientTransform="matrix(0.9503534,1.1750652e-7,-5.6287062e-8,0.3462676,17.334826,362.44227)"
     cx="373.24265"
     cy="710.99164"
     fx="373.24265"
     fy="710.99164"
     r="333.18735" /><radialGradient
     inkscape:collect="always"
     xlink:href="#linearGradient3157"
     id="radialGradient4820"
     gradientUnits="userSpaceOnUse"
     gradientTransform="matrix(0.9503534,1.1750652e-7,-5.6287062e-8,0.3462676,17.334826,362.44227)"
     cx="373.24265"
     cy="710.99164"
     fx="373.24265"
     fy="710.99164"
     r="333.18735" /><radialGradient
     inkscape:collect="always"
     xlink:href="#linearGradient3171"
     id="radialGradient4822"
     gradientUnits="userSpaceOnUse"
     gradientTransform="matrix(0.9201975,2.7970099e-7,-2.7059634e-7,0.8902438,28.590287,48.634335)"
     cx="373.24265"
     cy="467.91885"
     fx="373.24265"
     fy="467.91885"
     r="333.18735" /><linearGradient
     inkscape:collect="always"
     xlink:href="#linearGradient3187"
     id="linearGradient4824"
     gradientUnits="userSpaceOnUse"
     gradientTransform="matrix(2.3189708,0,0,2.0930998,93.115298,-256.84999)"
     x1="123.50603"
     y1="344.03848"
     x2="123.47623"
     y2="254.73526" /><linearGradient
     inkscape:collect="always"
     xlink:href="#linearGradient3187"
     id="linearGradient4827"
     gradientUnits="userSpaceOnUse"
     gradientTransform="matrix(2.3189708,0,0,2.0930998,-99.17808,-231.54972)"
     x1="123.50603"
     y1="344.03848"
     x2="123.47623"
     y2="254.73526" /><radialGradient
     inkscape:collect="always"
     xlink:href="#linearGradient5443"
     id="radialGradient4832"
     gradientUnits="userSpaceOnUse"
     gradientTransform="matrix(0.9201975,2.7970099e-7,-2.7059634e-7,0.8902438,-163.70313,61.921561)"
     cx="373.24265"
     cy="467.91885"
     fx="373.24265"
     fy="467.91885"
     r="333.18735" /><radialGradient
     inkscape:collect="always"
     xlink:href="#linearGradient5443"
     id="radialGradient4835"
     gradientUnits="userSpaceOnUse"
     gradientTransform="matrix(0.9503534,1.1750652e-7,-5.6287062e-8,0.3462676,-174.95857,375.55031)"
     cx="373.24265"
     cy="710.99164"
     fx="373.24265"
     fy="710.99164"
     r="333.18735" /><filter
     inkscape:collect="always"
     id="filter5511"
     color-interpolation-filters="sRGB"><feGaussianBlur
       inkscape:collect="always"
       stdDeviation="3.2374974"
       id="feGaussianBlur5513" /></filter><radialGradient
     inkscape:collect="always"
     xlink:href="#linearGradient5443-5"
     id="radialGradient4835-3"
     gradientUnits="userSpaceOnUse"
     gradientTransform="matrix(0.9503534,1.1750652e-7,-5.6287062e-8,0.3462676,317.80591,185.68771)"
     cx="373.24265"
     cy="710.99164"
     fx="373.24265"
     fy="710.99164"
     r="333.18735" /><linearGradient
     id="linearGradient5443-5"><stop
       id="stop5445-4"
       offset="0"
       style="stop-color:#ffffff;stop-opacity:0;" /><stop
       id="stop5447-3"
       offset="1"
       style="stop-color:#000000;stop-opacity:0.33962265;" /></linearGradient><radialGradient
     inkscape:collect="always"
     xlink:href="#linearGradient5443"
     id="radialGradient3272"
     gradientUnits="userSpaceOnUse"
     gradientTransform="matrix(0.9503534,1.1750652e-7,-5.6287062e-8,0.3462676,-174.95857,375.55031)"
     cx="373.24265"
     cy="710.99164"
     fx="373.24265"
     fy="710.99164"
     r="333.18735" /><linearGradient
     inkscape:collect="always"
     xlink:href="#linearGradient3187"
     id="linearGradient3274"
     gradientUnits="userSpaceOnUse"
     gradientTransform="matrix(2.3189708,0,0,2.0930998,-99.17808,-231.54972)"
     x1="123.50603"
     y1="344.03848"
     x2="123.47623"
     y2="254.73526" /><radialGradient
     inkscape:collect="always"
     xlink:href="#linearGradient5443"
     id="radialGradient3276"
     gradientUnits="userSpaceOnUse"
     gradientTransform="matrix(0.9201975,2.7970099e-7,-2.7059634e-7,0.8902438,-163.70313,61.921561)"
     cx="373.24265"
     cy="467.91885"
     fx="373.24265"
     fy="467.91885"
     r="333.18735" /></defs><sodipodi:namedview
   pagecolor="#ffffff"
   bordercolor="#666666"
   borderopacity="1"
   objecttolerance="10"
   gridtolerance="10"
   guidetolerance="10"
   inkscape:pageopacity="0"
   inkscape:pageshadow="2"
   inkscape:window-width="1920"
   inkscape:window-height="1068"
   id="namedview24"
   showgrid="false"
   inkscape:zoom="0.5959596"
   inkscape:cx="-516.50225"
   inkscape:cy="494.06499"
   inkscape:window-x="0"
   inkscape:window-y="0"
   inkscape:window-maximized="1"
   inkscape:current-layer="_x31_"
   fit-margin-top="0"
   fit-margin-left="0"
   fit-margin-right="0"
   fit-margin-bottom="0" />
<g
   id="g3287"
   transform="translate(-4.0524846e-6,3.5529445e-6)"><rect
     inkscape:export-ydpi="29.879425"
     inkscape:export-xdpi="29.879425"
     inkscape:export-filename="C:\Documents and Settings\adscro24\Desktop\128.png"
     style="opacity:0.61338286;fill:#464646;fill-opacity:0.78540775;stroke:none;filter:url(#filter4659)"
     id="rect3279"
     width="152.93848"
     height="152.93848"
     x="135.39355"
     y="48.636749"
     rx="16.067965"
     ry="12.45238"
     transform="matrix(2.1051501,0,0,2.1051501,-271.00298,-88.36689)" /><rect
     inkscape:export-ydpi="29.879425"
     inkscape:export-xdpi="29.879425"
     inkscape:export-filename="C:\Documents and Settings\adscro24\Desktop\128.png"
     style="opacity:0.61338286;fill:url(#radialGradient3092);fill-opacity:1;stroke:#000000;stroke-width:3.26806188;stroke-miterlimit:4;stroke-opacity:1;stroke-dasharray:none"
     id="rect3155"
     width="321.95847"
     height="321.95847"
     x="14.020748"
     y="14.020716"
     rx="33.825481"
     ry="26.21413" /><path
     transform="matrix(0.90779502,0,0,0.90779502,11.82035,-259.3651)"
     inkscape:export-ydpi="29.879425"
     inkscape:export-xdpi="29.879425"
     inkscape:export-filename="C:\Documents and Settings\adscro24\Desktop\128.png"
     inkscape:connector-curvature="0"
     style="opacity:0.61338286;fill:url(#linearGradient3734);fill-opacity:1;stroke:none;filter:url(#filter5511)"
     d="m 46.58172,323.34879 c -19.62748,0 -35.44272,12.0976 -35.44272,27.14163 l 0,124.30857 c 29.25482,11.38638 132.70149,11.89599 165.40488,-5.79022 33.32802,-18.02397 127.54379,-68.44264 171.82484,-52.72052 l 0,-65.79783 c 0,-15.04403 -15.7986,-27.14163 -35.4261,-27.14163 l -266.3609,0 z M 11.139,586.81982 l 0,42.88373 c 0,1.33144 0.14331,2.63588 0.38253,3.915 -0.11919,-12.81092 -0.25965,-28.88939 -0.38253,-46.79873 z"
     id="rect3177" /><rect
     inkscape:export-ydpi="29.879425"
     inkscape:export-xdpi="29.879425"
     inkscape:export-filename="C:\Documents and Settings\adscro24\Desktop\128.png"
     style="opacity:0.61338286;fill:url(#radialGradient3088);fill-opacity:1;stroke:#ffffff;stroke-width:0.68992418;stroke-linecap:square;stroke-miterlimit:4;stroke-opacity:1;stroke-dasharray:none"
     id="rect3473"
     width="306.12445"
     height="306.12445"
     x="21.937801"
     y="21.937769"
     rx="32.161926"
     ry="24.924913" /><rect
     inkscape:export-ydpi="29.879425"
     inkscape:export-xdpi="29.879425"
     inkscape:export-filename="C:\Documents and Settings\adscro24\Desktop\128.png"
     style="opacity:0.61338286;fill:#ffffff;fill-opacity:0;stroke:#000000;stroke-width:3.26806188;stroke-miterlimit:4;stroke-opacity:1;stroke-dasharray:none"
     id="rect3155-2"
     width="321.95847"
     height="321.95847"
     x="14.020748"
     y="14.020716"
     rx="33.825481"
     ry="26.21413" /><g
     transform="translate(400.39145,135.8211)"
     style="fill:#000000;fill-opacity:1;stroke:none"
     id="LWPOLYLINE_2_-7">
	
		
</g></g><g
   id="LWPOLYLINE"
   transform="translate(-303.77966,-556.83899)">
	
		
</g>
<g
   id="LWPOLYLINE_1_"
   transform="translate(-303.77966,-556.83899)">
	
		
</g>



<g
   id="g2993"
   transform="matrix(0.5,0,0,0.5,21.999996,-23.000006)"><g
     style="fill:#000000;fill-opacity:1;stroke:none"
     id="LWPOLYLINE_2_">
	
		<path
   id="polygon10"
   d="m 306,146 -4.375,0.0312 -4.34375,0.125 -4.34375,0.1875 -4.375,0.25 -4.34375,0.34375 -4.375,0.40625 -4.3125,0.5 -4.3125,0.5625 -4.34375,0.65625 -4.28125,0.71875 -4.3125,0.78125 -4.25,0.875 -4.25,0.96875 -4.25,1.03125 -4.21875,1.09375 -4.25,1.125 -4.15625,1.25 -4.15625,1.3125 -4.125,1.375 -4.125,1.46875 -4.09375,1.53125 -4.0625,1.59375 -4.03125,1.6875 -4,1.75 -3.96875,1.8125 -3.9375,1.84375 -3.90625,1.96875 -3.875,2 -3.84375,2.09375 L 181,179.5 l -3.75,2.21875 -3.71875,2.25 -3.6875,2.375 -3.65625,2.375 -3.5625,2.46875 -3.5625,2.5625 -3.53125,2.59375 -3.4375,2.65625 -3.40625,2.6875 -3.40625,2.8125 -3.28125,2.8125 -3.28125,2.90625 -3.21875,2.9375 -3.1875,3 -3.09375,3.0625 -3.0625,3.09375 -3,3.1875 -2.9375,3.21875 -2.90625,3.28125 -2.8125,3.28125 -2.8125,3.40625 -2.6875,3.40625 -2.65625,3.4375 -2.59375,3.53125 -2.5625,3.5625 -2.46875,3.5625 -2.375,3.65625 -2.375,3.6875 -2.25,3.71875 L 89.5,271 87.34375,274.78125 85.25,278.625 l -2,3.875 -1.96875,3.90625 -1.84375,3.9375 -1.8125,3.96875 -1.75,4 -1.6875,4.03125 -1.59375,4.0625 -1.53125,4.09375 -1.46875,4.125 -1.375,4.125 -1.3125,4.15625 -1.25,4.15625 -1.125,4.25 -1.09375,4.21875 -1.03125,4.25 -0.96875,4.25 -0.875,4.25 -0.78125,4.3125 -0.71875,4.28125 -0.65625,4.34375 -0.5625,4.3125 -0.5,4.3125 -0.40625,4.34375 -0.3125,4.375 -0.28125,4.375 -0.1875,4.34375 -0.125,4.34375 L 56,396 l 0.03125,4.375 0.125,4.375 0.1875,4.3125 0.28125,4.375 0.3125,4.34375 0.40625,4.375 0.5,4.3125 0.5625,4.3125 0.65625,4.34375 0.71875,4.3125 0.78125,4.28125 0.875,4.25 0.96875,4.28125 1.03125,4.21875 1.09375,4.21875 1.125,4.25 1.25,4.15625 1.3125,4.15625 1.375,4.125 1.46875,4.125 1.53125,4.0625 1.59375,4.09375 1.6875,4.0625 1.75,3.96875 1.8125,3.96875 1.84375,3.96875 1.96875,3.84375 2,3.9375 2.09375,3.8125 2.15625,3.8125 2.21875,3.75 2.25,3.71875 2.375,3.65625 2.375,3.65625 2.46875,3.5625 2.5625,3.5625 2.59375,3.53125 2.65625,3.4375 2.6875,3.40625 2.8125,3.375 2.8125,3.34375 2.90625,3.25 2.9375,3.21875 3,3.15625 3.0625,3.15625 3.09375,3.03125 3.1875,3 3.21875,2.96875 3.28125,2.90625 3.28125,2.78125 3.40625,2.8125 3.40625,2.6875 3.4375,2.65625 3.53125,2.59375 3.5625,2.53125 3.5625,2.5 3.65625,2.375 3.6875,2.34375 3.71875,2.28125 3.75,2.25 3.78125,2.125 3.84375,2.09375 3.875,2 3.90625,1.96875 3.9375,1.875 3.96875,1.78125 4,1.75 4.03125,1.65625 4.0625,1.625 4.09375,1.53125 4.125,1.4375 4.125,1.40625 4.15625,1.28125 4.15625,1.28125 4.25,1.15625 4.21875,1.0625 4.25,1.03125 4.25,0.96875 4.25,0.875 4.3125,0.8125 4.28125,0.6875 4.34375,0.625 4.3125,0.59375 4.3125,0.46875 4.375,0.40625 4.34375,0.34375 4.375,0.28125 4.34375,0.1875 4.34375,0.0937 L 306,646 l 4.375,-0.0625 4.375,-0.0937 4.3125,-0.1875 4.375,-0.28125 4.34375,-0.34375 4.375,-0.40625 4.3125,-0.46875 4.3125,-0.59375 4.34375,-0.625 4.3125,-0.6875 4.28125,-0.8125 4.25,-0.875 4.28125,-0.96875 4.21875,-1.03125 4.21875,-1.0625 4.25,-1.15625 4.15625,-1.28125 4.15625,-1.28125 4.125,-1.40625 4.125,-1.4375 4.0625,-1.53125 4.09375,-1.625 4.0625,-1.65625 3.96875,-1.75 3.96875,-1.78125 3.96875,-1.875 3.84375,-1.96875 3.9375,-2 3.8125,-2.09375 3.8125,-2.125 3.75,-2.25 L 438.5,608 l 3.65625,-2.34375 3.65625,-2.375 3.5625,-2.5 3.5625,-2.53125 3.53125,-2.59375 3.4375,-2.65625 3.40625,-2.6875 3.375,-2.8125 3.34375,-2.78125 3.25,-2.90625 3.21875,-2.96875 3.15625,-3 3.15625,-3.03125 3.03125,-3.15625 3,-3.15625 2.96875,-3.21875 2.90625,-3.25 2.78125,-3.34375 2.8125,-3.375 2.6875,-3.40625 2.65625,-3.4375 2.59375,-3.53125 2.53125,-3.5625 2.5,-3.5625 2.375,-3.65625 L 518,528.5 l 2.28125,-3.71875 2.25,-3.75 2.125,-3.8125 2.09375,-3.8125 2,-3.9375 1.96875,-3.84375 1.875,-3.96875 1.78125,-3.96875 1.75,-3.96875 1.65625,-4.0625 1.625,-4.09375 1.53125,-4.0625 1.4375,-4.125 1.40625,-4.125 1.28125,-4.15625 1.28125,-4.15625 1.15625,-4.25 1.0625,-4.21875 1.03125,-4.21875 0.96875,-4.28125 0.875,-4.25 0.8125,-4.28125 0.6875,-4.3125 0.625,-4.34375 0.59375,-4.3125 0.46875,-4.3125 0.40625,-4.375 0.34375,-4.34375 0.28125,-4.375 0.1875,-4.3125 0.0937,-4.375 L 556,396 l -0.0625,-4.375 -0.0937,-4.34375 -0.1875,-4.34375 -0.28125,-4.375 -0.34375,-4.375 -0.40625,-4.34375 -0.46875,-4.3125 -0.59375,-4.3125 -0.625,-4.34375 -0.6875,-4.28125 -0.8125,-4.3125 -0.875,-4.25 -0.96875,-4.25 -1.03125,-4.25 -1.0625,-4.21875 -1.15625,-4.25 -1.28125,-4.15625 -1.28125,-4.15625 -1.40625,-4.125 -1.4375,-4.125 -1.53125,-4.09375 -1.625,-4.0625 -1.65625,-4.03125 -1.75,-4 -1.78125,-3.96875 -1.875,-3.9375 -1.9688,-3.90625 -2,-3.875 -2.09375,-3.84375 -2.125,-3.78125 -2.25,-3.75 -2.28125,-3.71875 -2.34375,-3.6875 -2.375,-3.65625 -2.5,-3.5625 -2.53125,-3.5625 -2.59375,-3.53125 L 503,242.09375 500.3125,238.6875 497.5,235.28125 494.71875,232 491.8125,228.71875 488.84375,225.5 l -3,-3.1875 -3.03125,-3.09375 -3.15625,-3.0625 -3.15625,-3 -3.21875,-2.9375 -3.25,-2.90625 -3.34375,-2.8125 -3.375,-2.8125 -3.40625,-2.6875 -3.4375,-2.65625 -3.53125,-2.59375 -3.5625,-2.5625 -3.5625,-2.46875 -3.65625,-2.375 -3.65625,-2.375 -3.71875,-2.25 -3.75,-2.21875 -3.8125,-2.15625 -3.8125,-2.09375 -3.9375,-2 -3.84375,-1.96875 -3.96875,-1.84375 -3.96875,-1.8125 -3.96875,-1.75 -4.0625,-1.6875 -4.09375,-1.59375 -4.0625,-1.53125 -4.125,-1.46875 -4.125,-1.375 -4.15625,-1.3125 -4.15625,-1.25 -4.25,-1.125 -4.21875,-1.09375 -4.21875,-1.03125 -4.28125,-0.96875 -4.25,-0.875 -4.28125,-0.78125 -4.3125,-0.71875 -4.34375,-0.65625 -4.3125,-0.5625 -4.3125,-0.5 -4.375,-0.40625 -4.34375,-0.34375 -4.375,-0.25 -4.3125,-0.1875 -4.375,-0.125 L 306,146 z m 0,32.28125 3.8125,0.0312 3.78125,0.125 3.8125,0.125 3.8125,0.25 3.75,0.3125 3.78125,0.34375 3.8125,0.4375 3.75,0.5 3.78125,0.5625 3.6875,0.625 3.78125,0.6875 3.71875,0.75 3.6875,0.84375 3.71875,0.875 3.65625,0.9375 3.6875,1.03125 3.59375,1.0625 3.65625,1.15625 3.625,1.21875 3.5625,1.28125 3.5625,1.3125 3.5,1.40625 3.5,1.4375 3.53125,1.5 3.4375,1.5625 3.4375,1.65625 3.40625,1.6875 3.40625,1.75 3.28125,1.84375 3.3125,1.84375 3.3125,1.9375 3.21875,2 3.1875,2.03125 3.21875,2.09375 3.09375,2.15625 3.09375,2.1875 3.0625,2.28125 3,2.3125 3,2.375 2.90625,2.40625 2.875,2.46875 2.875,2.5 2.78125,2.59375 2.75,2.59375 2.75,2.6875 2.65625,2.6875 2.59375,2.78125 2.59375,2.78125 2.46875,2.875 2.5,2.84375 2.40625,2.96875 2.375,2.96875 2.28125,3 2.3125,3.0625 2.1875,3.09375 2.1875,3.125 2.0625,3.1875 2.03125,3.1875 2,3.25 1.9375,3.28125 1.875,3.3125 1.78125,3.3125 1.78125,3.375 1.6875,3.40625 1.625,3.40625 1.5625,3.46875 1.53125,3.5 1.46875,3.5 1.375,3.53125 1.3125,3.5625 1.28125,3.59375 1.21875,3.59375 1.125,3.625 1.0625,3.625 1.03125,3.6875 0.96875,3.6875 0.90625,3.6875 0.8125,3.6875 0.75,3.75 0.6875,3.71875 0.65625,3.75 0.5625,3.78125 0.4375,3.75 0.46875,3.78125 0.34375,3.78125 0.3125,3.78125 0.21875,3.78125 0.1875,3.8125 0.0937,3.8125 0,3.78125 0,3.8125 -0.0937,3.75 -0.1875,3.84375 -0.21875,3.8125 -0.3125,3.75 -0.34375,3.78125 -0.46875,3.8125 -0.4375,3.75 -0.5625,3.75 -0.65625,3.71875 -0.6875,3.78125 -0.75,3.71875 -0.8125,3.6875 -0.90625,3.71875 -0.96875,3.65625 -1.03125,3.6875 -1.0625,3.59375 -1.125,3.65625 -1.21875,3.625 -1.28125,3.5625 -1.3125,3.5625 -1.375,3.5 -1.46875,3.5 -1.53125,3.53125 -1.5625,3.4375 -1.625,3.4375 -1.6875,3.40625 -1.78125,3.40625 -1.78125,3.28125 -1.875,3.3125 -1.9375,3.3125 -2,3.21875 -2.03125,3.1875 -2.0625,3.21875 -2.1875,3.09375 -2.1875,3.09375 -2.3125,3.0625 -2.28125,3 -2.375,3 -2.40625,2.90625 -2.5,2.875 -2.46875,2.875 -2.59375,2.78125 -2.59375,2.75 -2.65625,2.75 -2.75,2.65625 -2.75,2.59375 -2.78125,2.59375 -2.875,2.46875 -2.875,2.5 -2.90625,2.40625 -3,2.375 -3,2.28125 -3.0625,2.3125 -3.09375,2.1875 -3.09375,2.1875 -3.21875,2.0625 -3.1875,2.03125 -3.21875,2 -3.3125,1.9375 -3.3125,1.875 -3.28125,1.78125 -3.40625,1.78125 -3.40625,1.6875 -3.4375,1.625 -3.4375,1.5625 -3.53125,1.53125 -3.5,1.46875 -3.5,1.375 -3.5625,1.3125 -3.5625,1.28125 -3.625,1.21875 -3.65625,1.125 -3.59375,1.0625 -3.6875,1.03125 -3.65625,0.96875 -3.71875,0.90625 -3.6875,0.8125 -3.71875,0.75 -3.78125,0.6875 -3.6875,0.65625 -3.78125,0.5625 -3.75,0.4375 -3.8125,0.46875 -3.78125,0.34375 -3.75,0.3125 -3.8125,0.21875 -3.8125,0.1875 -3.78125,0.0937 -3.8125,0 -3.78125,0 -3.8125,-0.0937 -3.8125,-0.1875 -3.78125,-0.21875 -3.78125,-0.3125 -3.78125,-0.34375 -3.78125,-0.46875 -3.75,-0.4375 -3.78125,-0.5625 -3.75,-0.65625 -3.71875,-0.6875 -3.75,-0.75 -3.6875,-0.8125 -3.6875,-0.90625 -3.6875,-0.96875 -3.6875,-1.03125 -3.625,-1.0625 -3.625,-1.125 -3.59375,-1.21875 -3.59375,-1.28125 -3.5625,-1.3125 -3.53125,-1.375 -3.5,-1.46875 -3.5,-1.53125 -3.4375,-1.5625 -3.4375,-1.625 -3.40625,-1.6875 -3.375,-1.78125 -3.3125,-1.78125 -3.3125,-1.875 -3.28125,-1.9375 -3.25,-2 -3.1875,-2.03125 -3.1875,-2.0625 -3.125,-2.1875 -3.09375,-2.1875 -3.0625,-2.3125 -3,-2.28125 -2.96875,-2.375 -2.96875,-2.40625 -2.84375,-2.5 -2.875,-2.46875 -2.78125,-2.59375 -2.78125,-2.59375 -2.6875,-2.65625 -2.6875,-2.75 -2.59375,-2.75 -2.59375,-2.78125 -2.5,-2.875 -2.46875,-2.875 -2.40625,-2.90625 -2.375,-3 -2.3125,-3 -2.28125,-3.0625 -2.1875,-3.09375 -2.15625,-3.09375 -2.09375,-3.21875 -2.03125,-3.1875 -2,-3.21875 -1.9375,-3.3125 -1.84375,-3.3125 L 113.75,498.25 112,494.84375 110.3125,491.4375 108.65625,488 l -1.5625,-3.4375 -1.5,-3.53125 -1.4375,-3.5 -1.40625,-3.5 -1.3125,-3.5625 -1.28125,-3.5625 -1.21875,-3.625 -1.15625,-3.65625 -1.0625,-3.59375 -1.03125,-3.6875 -0.9375,-3.65625 -0.875,-3.71875 -0.84375,-3.6875 -0.75,-3.71875 -0.6875,-3.78125 -0.625,-3.71875 -0.5625,-3.75 -0.5,-3.75 -0.4375,-3.8125 -0.34375,-3.78125 -0.3125,-3.75 -0.21875,-3.8125 -0.15625,-3.84375 -0.125,-3.75 -0.03125,-3.8125 0.03125,-3.78125 0.125,-3.8125 0.15625,-3.8125 0.21875,-3.78125 0.3125,-3.78125 0.34375,-3.78125 0.4375,-3.78125 0.5,-3.75 0.5625,-3.78125 0.625,-3.75 0.6875,-3.71875 0.75,-3.75 0.84375,-3.6875 0.875,-3.6875 0.9375,-3.6875 1.03125,-3.6875 1.0625,-3.625 1.15625,-3.625 1.21875,-3.59375 1.28125,-3.59375 1.3125,-3.5625 1.40625,-3.53125 1.4375,-3.5 1.5,-3.5 1.5625,-3.46875 1.65625,-3.40625 1.6875,-3.40625 1.75,-3.375 1.84375,-3.3125 1.84375,-3.3125 1.9375,-3.28125 2,-3.25 2.03125,-3.1875 2.09375,-3.1875 2.15625,-3.125 2.1875,-3.09375 2.28125,-3.0625 2.3125,-3 2.375,-2.96875 2.40625,-2.96875 2.46875,-2.84375 2.5,-2.875 2.59375,-2.78125 2.59375,-2.78125 2.6875,-2.6875 2.6875,-2.6875 2.78125,-2.59375 2.78125,-2.59375 2.875,-2.5 2.84375,-2.46875 2.96875,-2.40625 2.96875,-2.375 3,-2.3125 3.0625,-2.28125 3.09375,-2.1875 3.125,-2.15625 3.1875,-2.09375 3.1875,-2.03125 3.25,-2 3.28125,-1.9375 3.3125,-1.84375 3.3125,-1.84375 3.375,-1.75 3.40625,-1.6875 3.4375,-1.65625 3.4375,-1.5625 3.5,-1.5 3.5,-1.4375 3.53125,-1.40625 3.5625,-1.3125 3.59375,-1.28125 3.59375,-1.21875 3.625,-1.15625 3.625,-1.0625 3.6875,-1.03125 3.6875,-0.9375 3.6875,-0.875 3.6875,-0.84375 3.75,-0.75 3.71875,-0.6875 3.75,-0.625 3.78125,-0.5625 3.75,-0.5 3.78125,-0.4375 3.78125,-0.34375 3.78125,-0.3125 3.78125,-0.25 3.8125,-0.125 3.8125,-0.125 L 306,178.2813 z"
   style="fill:#000000;fill-opacity:1;stroke:none"
   inkscape:connector-curvature="0" />
</g><g
     style="fill:#000000;fill-opacity:1;stroke:none"
     id="LWPOLYLINE_6_">
	
		<path
   id="polygon22"
   d="m 305.125,347.03125 -0.84375,0.0312 -0.84375,0.0625 -0.84375,0.0312 -0.875,0.0625 -0.84375,0.0937 -0.84375,0.0937 -0.84375,0.125 -0.84375,0.125 -0.84375,0.125 -0.84375,0.15625 -0.84375,0.1875 -0.8125,0.15625 -0.84375,0.21875 -0.8125,0.1875 -0.84375,0.25 -0.8125,0.25 -0.8125,0.25 -0.8125,0.28125 -0.78125,0.28125 -0.84375,0.3125 -0.78125,0.28125 -0.78125,0.34375 -0.78125,0.3125 -0.78125,0.375 -0.78125,0.375 -0.75,0.375 -0.78125,0.375 -0.71875,0.4375 -0.78125,0.40625 -0.71875,0.4375 -0.71875,0.4375 -0.71875,0.46875 -0.71875,0.46875 -0.6875,0.5 -0.71875,0.5 -0.6875,0.46875 -0.65625,0.53125 -0.6875,0.53125 -0.65625,0.5625 -0.65625,0.5625 -0.625,0.53125 -0.65625,0.59375 -0.59375,0.59375 -0.625,0.59375 -0.59375,0.625 -0.59375,0.59375 -0.59375,0.65625 -0.53125,0.625 -0.5625,0.65625 -0.5625,0.65625 -0.53125,0.6875 -0.53125,0.65625 -0.46875,0.6875 -0.5,0.71875 -0.5,0.6875 -0.46875,0.71875 -0.46875,0.71875 -0.4375,0.71875 -0.4375,0.71875 -0.40625,0.78125 -0.40625,0.71875 -0.40625,0.78125 -0.375,0.75 -0.375,0.78125 -0.375,0.78125 -0.3125,0.78125 -0.34375,0.78125 -0.28125,0.78125 -0.3125,0.84375 -0.28125,0.78125 -0.28125,0.8125 -0.25,0.8125 -0.25,0.8125 -0.25,0.84375 -0.1875,0.8125 -0.21875,0.84375 -0.15625,0.8125 -0.1875,0.84375 -0.15625,0.84375 -0.125,0.84375 -0.125,0.84375 -0.125,0.84375 -0.0937,0.84375 -0.0937,0.84375 -0.0625,0.875 -0.0312,0.84375 -0.0625,0.84375 -0.0312,0.84375 0,0.875 0,0.875 0.0312,0.84375 0.0625,0.8125 0.0312,0.875 0.0625,0.875 0.0937,0.84375 0.0937,0.8125 0.125,0.875 0.125,0.875 0.125,0.8125 0.15625,0.84375 0.1875,0.84375 0.15625,0.84375 0.21875,0.8125 0.1875,0.8125 0.25,0.8125 0.25,0.8125 0.25,0.8125 0.28125,0.8125 0.28125,0.8125 0.3125,0.84375 0.28125,0.8125 0.34375,0.75 0.3125,0.8125 0.375,0.75 0.375,0.78125 0.375,0.75 0.40625,0.78125 0.40625,0.75 0.40625,0.71875 0.4375,0.75 0.4375,0.71875 0.46875,0.71875 0.46875,0.71875 0.5,0.6875 0.5,0.71875 0.46875,0.65625 0.53125,0.71875 0.53125,0.65625 0.5625,0.65625 0.5625,0.6875 0.53125,0.59375 0.59375,0.625 0.59375,0.65625 0.59375,0.59375 0.625,0.5625 0.59375,0.625 0.65625,0.5625 0.625,0.5625 0.65625,0.5625 0.65625,0.5625 0.6875,0.5 0.65625,0.5625 0.6875,0.5 0.71875,0.46875 0.6875,0.5 0.71875,0.46875 0.71875,0.4375 0.71875,0.46875 0.71875,0.4375 0.78125,0.40625 0.71875,0.40625 0.78125,0.4375 0.75,0.34375 0.78125,0.34375 0.78125,0.375 0.78125,0.34375 0.78125,0.3125 0.78125,0.34375 0.84375,0.25 0.78125,0.3125 0.8125,0.25 0.8125,0.25 0.8125,0.28125 0.84375,0.25 0.8125,0.1875 0.84375,0.21875 0.8125,0.1875 0.84375,0.15625 0.84375,0.15625 0.84375,0.15625 0.84375,0.0937 0.84375,0.0937 0.84375,0.125 0.84375,0.0937 0.875,0.0625 0.84375,0.0312 0.84375,0.0625 0.84375,0 0.875,0.0312 0.875,-0.0312 0.84375,0 0.8125,-0.0625 0.875,-0.0312 0.875,-0.0625 0.84375,-0.0937 0.8125,-0.125 0.875,-0.0937 0.875,-0.0937 0.8125,-0.15625 0.84375,-0.15625 0.84375,-0.15625 0.84375,-0.1875 0.8125,-0.21875 0.8125,-0.1875 0.8125,-0.25 0.8125,-0.28125 0.8125,-0.25 0.8125,-0.25 0.8125,-0.3125 0.84375,-0.25 0.8125,-0.34375 0.75,-0.3125 0.8125,-0.34375 0.75,-0.375 0.78125,-0.34375 0.75,-0.34375 0.78125,-0.4375 0.75,-0.40625 0.71875,-0.40625 0.75,-0.4375 0.71875,-0.46875 0.71875,-0.4375 0.71875,-0.46875 0.6875,-0.5 0.71875,-0.46875 0.65625,-0.5 0.71875,-0.5625 0.65625,-0.5 0.6875,-0.5625 0.65625,-0.5625 0.59375,-0.5625 0.625,-0.5625 0.65625,-0.625 0.59375,-0.5625 0.5625,-0.59375 0.625,-0.65625 0.5625,-0.625 0.5625,-0.59375 0.5625,-0.6875 0.5625,-0.65625 0.5,-0.65625 0.5625,-0.71875 0.5,-0.65625 0.46875,-0.71875 0.5,-0.6875 0.46875,-0.71875 0.4375,-0.71875 0.46875,-0.71875 0.4375,-0.75 0.40625,-0.71875 0.4375,-0.75 0.40625,-0.78125 0.34375,-0.75 0.34375,-0.78125 0.375,-0.75 0.34375,-0.8125 0.3125,-0.75 0.34375,-0.8125 0.25,-0.84375 0.3125,-0.8125 0.25,-0.8125 0.25,-0.8125 0.28125,-0.8125 0.25,-0.8125 0.1875,-0.8125 0.21875,-0.8125 0.1875,-0.84375 0.15625,-0.84375 0.15625,-0.84375 0.15625,-0.8125 0.0937,-0.875 0.0937,-0.875 0.125,-0.8125 0.0937,-0.84375 0.0625,-0.875 0.0312,-0.875 0.0625,-0.8125 0,-0.84375 0.0312,-0.875 -0.0312,-0.875 0,-0.84375 -0.0625,-0.84375 -0.0312,-0.84375 -0.0625,-0.875 -0.0937,-0.84375 -0.125,-0.84375 -0.0937,-0.84375 -0.0937,-0.84375 -0.15625,-0.84375 -0.15625,-0.84375 -0.15625,-0.84375 -0.1875,-0.8125 -0.21875,-0.84375 -0.1875,-0.8125 -0.25,-0.84375 -0.28125,-0.8125 -0.25,-0.8125 -0.25,-0.8125 -0.3125,-0.78125 -0.25,-0.84375 -0.34375,-0.78125 -0.3125,-0.78125 -0.34375,-0.78125 -0.375,-0.78125 -0.34375,-0.78125 -0.34375,-0.75 L 349.25,373 l -0.4375,-0.71875 -0.40625,-0.78125 -0.4375,-0.71875 -0.46875,-0.71875 -0.4375,-0.71875 -0.46875,-0.71875 -0.5,-0.6875 -0.46875,-0.71875 -0.5,-0.6875 -0.5625,-0.65625 -0.5,-0.6875 -0.5625,-0.65625 -0.5625,-0.65625 -0.5625,-0.625 -0.5625,-0.65625 -0.625,-0.59375 -0.5625,-0.625 -0.59375,-0.59375 -0.65625,-0.59375 -0.625,-0.59375 -0.59375,-0.53125 L 337.5,358.5 l -0.6875,-0.5625 -0.65625,-0.53125 -0.71875,-0.53125 -0.65625,-0.46875 -0.71875,-0.5 -0.6875,-0.5 -0.71875,-0.46875 -0.71875,-0.46875 -0.71875,-0.4375 -0.75,-0.4375 L 329.75,353.1875 329,352.75 l -0.78125,-0.375 -0.75,-0.375 -0.78125,-0.375 -0.75,-0.375 -0.8125,-0.3125 -0.75,-0.34375 -0.8125,-0.28125 -0.84375,-0.3125 -0.8125,-0.28125 -0.8125,-0.28125 -0.8125,-0.25 -0.8125,-0.25 -0.8125,-0.25 -0.8125,-0.1875 -0.8125,-0.21875 -0.84375,-0.15625 -0.84375,-0.1875 -0.84375,-0.15625 -0.8125,-0.125 -0.875,-0.125 -0.875,-0.125 -0.8125,-0.0937 -0.84375,-0.0937 -0.875,-0.0625 -0.875,-0.0312 -0.8125,-0.0625 -0.84375,-0.0312 -0.875,0 -0.875,0 z M 305.5625,371 306,371 l 0.46875,0 0.40625,0.0312 0.4375,0 0.40625,0.0312 0.46875,0.0312 0.40625,0.0312 0.46875,0.0625 0.40625,0.0312 0.4375,0.0937 0.40625,0.0625 0.46875,0.0937 0.40625,0.0625 0.46875,0.0937 0.40625,0.125 0.40625,0.0937 0.4375,0.125 0.40625,0.125 0.40625,0.125 0.40625,0.125 0.40625,0.15625 0.40625,0.15625 0.40625,0.1875 0.4375,0.125 0.40625,0.1875 0.40625,0.1875 0.34375,0.1875 0.40625,0.1875 0.40625,0.21875 0.34375,0.1875 0.40625,0.21875 0.375,0.21875 0.34375,0.21875 0.40625,0.25 0.375,0.25 0.34375,0.25 0.34375,0.25 0.375,0.25 0.34375,0.25 0.3125,0.28125 0.34375,0.28125 0.3125,0.28125 0.34375,0.28125 0.3125,0.3125 0.3125,0.3125 0.34375,0.28125 0.3125,0.3125 0.25,0.34375 0.3125,0.3125 0.3125,0.3125 0.3125,0.34375 0.25,0.3125 0.25,0.375 0.3125,0.3125 0.25,0.375 0.25,0.34375 0.25,0.34375 0.21875,0.40625 0.25,0.34375 0.1875,0.375 0.25,0.375 0.21875,0.375 0.1875,0.375 0.21875,0.40625 0.1875,0.375 0.15625,0.40625 0.21875,0.375 0.15625,0.40625 0.1875,0.4375 0.15625,0.40625 0.15625,0.40625 0.15625,0.40625 0.0937,0.40625 0.15625,0.40625 0.0937,0.40625 0.15625,0.4375 0.0937,0.40625 0.125,0.4375 0.0937,0.4375 0.0625,0.40625 0.0937,0.4375 0.0312,0.4375 0.125,0.4375 0.0312,0.40625 0.0625,0.4375 0.0625,0.4375 0,0.4375 0.0312,0.4375 0,0.4375 0,0.4375 0.0625,0.4375 -0.0625,0.46875 0,0.40625 0,0.4375 -0.0312,0.40625 0,0.46875 -0.0625,0.40625 -0.0625,0.46875 -0.0312,0.40625 -0.125,0.4375 -0.0312,0.40625 -0.0937,0.46875 -0.0625,0.40625 -0.0937,0.46875 -0.125,0.40625 -0.0937,0.40625 -0.15625,0.4375 -0.0937,0.40625 -0.15625,0.40625 -0.0937,0.40625 -0.15625,0.40625 -0.15625,0.40625 -0.15625,0.40625 -0.1875,0.4375 -0.15625,0.40625 -0.21875,0.40625 -0.15625,0.34375 -0.1875,0.40625 -0.21875,0.40625 -0.1875,0.34375 -0.21875,0.40625 -0.25,0.375 -0.1875,0.34375 -0.25,0.40625 -0.21875,0.375 -0.25,0.34375 -0.25,0.34375 -0.25,0.375 -0.3125,0.34375 -0.25,0.3125 -0.25,0.34375 -0.3125,0.3125 -0.3125,0.34375 -0.3125,0.3125 -0.25,0.3125 -0.3125,0.34375 -0.34375,0.3125 -0.3125,0.25 -0.3125,0.3125 -0.34375,0.3125 -0.3125,0.3125 -0.34375,0.25 -0.3125,0.25 -0.34375,0.3125 -0.375,0.25 -0.34375,0.25 -0.34375,0.25 -0.375,0.21875 -0.40625,0.25 -0.34375,0.1875 -0.375,0.25 -0.40625,0.21875 -0.34375,0.1875 -0.40625,0.21875 -0.40625,0.1875 -0.34375,0.15625 -0.40625,0.21875 -0.40625,0.15625 -0.4375,0.1875 -0.40625,0.15625 -0.40625,0.15625 -0.40625,0.15625 -0.40625,0.0937 -0.40625,0.15625 -0.40625,0.0937 -0.4375,0.15625 -0.40625,0.0937 -0.40625,0.125 -0.46875,0.0937 -0.40625,0.0625 -0.46875,0.0937 -0.40625,0.0312 -0.4375,0.125 -0.40625,0.0312 -0.46875,0.0625 -0.40625,0.0625 -0.46875,0 -0.40625,0.0312 -0.4375,0 -0.40625,0 -0.46875,0.0625 -0.4375,-0.0625 -0.4375,0 -0.4375,0 -0.4375,-0.0312 -0.4375,0 -0.4375,-0.0625 -0.4375,-0.0625 -0.40625,-0.0312 -0.4375,-0.125 -0.4375,-0.0312 -0.4375,-0.0937 -0.40625,-0.0625 -0.4375,-0.0937 -0.4375,-0.125 -0.40625,-0.0937 -0.4375,-0.15625 -0.40625,-0.0937 -0.40625,-0.15625 -0.40625,-0.0937 -0.40625,-0.15625 -0.40625,-0.15625 -0.40625,-0.15625 -0.4375,-0.1875 -0.40625,-0.15625 -0.375,-0.21875 -0.40625,-0.15625 -0.375,-0.1875 -0.40625,-0.21875 -0.375,-0.1875 -0.375,-0.21875 -0.375,-0.25 -0.375,-0.1875 -0.34375,-0.25 L 292,416.75 l -0.34375,-0.25 -0.34375,-0.25 -0.375,-0.25 -0.3125,-0.3125 -0.375,-0.25 -0.3125,-0.25 -0.34375,-0.3125 -0.3125,-0.3125 -0.3125,-0.3125 -0.34375,-0.25 -0.3125,-0.3125 -0.28125,-0.34375 -0.3125,-0.3125 -0.3125,-0.3125 -0.28125,-0.34375 -0.28125,-0.3125 -0.28125,-0.34375 -0.28125,-0.3125 -0.25,-0.34375 -0.25,-0.375 -0.25,-0.34375 -0.25,-0.34375 -0.25,-0.375 -0.25,-0.40625 -0.21875,-0.34375 -0.21875,-0.375 -0.21875,-0.40625 -0.1875,-0.34375 -0.21875,-0.40625 -0.1875,-0.40625 -0.1875,-0.34375 -0.1875,-0.40625 -0.1875,-0.40625 -0.125,-0.4375 -0.1875,-0.40625 -0.15625,-0.40625 -0.15625,-0.40625 -0.125,-0.40625 -0.125,-0.40625 -0.125,-0.40625 -0.125,-0.4375 -0.0937,-0.40625 -0.125,-0.40625 -0.0937,-0.46875 -0.0625,-0.40625 -0.0937,-0.46875 -0.0625,-0.40625 -0.0937,-0.4375 -0.0312,-0.40625 -0.0625,-0.46875 -0.0312,-0.40625 -0.0312,-0.46875 -0.0312,-0.40625 0,-0.4375 L 281,396.46875 281,396 l 0,-0.4375 0.0312,-0.4375 0,-0.4375 0.0312,-0.4375 0.0312,-0.4375 0.0312,-0.4375 0.0625,-0.4375 0.0312,-0.40625 0.0937,-0.4375 0.0625,-0.4375 0.0937,-0.4375 0.0625,-0.40625 0.0937,-0.4375 0.125,-0.4375 0.0937,-0.40625 0.125,-0.4375 0.125,-0.40625 0.125,-0.40625 0.125,-0.40625 0.15625,-0.40625 0.15625,-0.40625 0.1875,-0.40625 0.125,-0.4375 0.1875,-0.40625 0.1875,-0.375 0.1875,-0.40625 0.1875,-0.375 0.21875,-0.40625 0.1875,-0.375 0.21875,-0.375 0.21875,-0.375 0.21875,-0.375 0.25,-0.34375 0.25,-0.40625 0.25,-0.34375 0.25,-0.34375 0.25,-0.375 0.25,-0.3125 0.28125,-0.375 0.28125,-0.3125 0.28125,-0.34375 0.28125,-0.3125 0.3125,-0.3125 0.3125,-0.34375 0.28125,-0.3125 0.3125,-0.28125 0.34375,-0.3125 0.3125,-0.3125 0.3125,-0.28125 0.34375,-0.28125 0.3125,-0.28125 0.375,-0.28125 0.3125,-0.25 0.375,-0.25 0.34375,-0.25 0.34375,-0.25 0.40625,-0.25 0.34375,-0.25 0.375,-0.21875 0.375,-0.21875 0.375,-0.21875 0.375,-0.1875 0.40625,-0.21875 0.375,-0.1875 0.40625,-0.1875 0.375,-0.1875 0.40625,-0.1875 0.4375,-0.125 0.40625,-0.1875 0.40625,-0.15625 0.40625,-0.15625 0.40625,-0.125 0.40625,-0.125 0.40625,-0.125 0.4375,-0.125 0.40625,-0.0937 0.4375,-0.125 0.4375,-0.0937 0.40625,-0.0625 0.4375,-0.0937 0.4375,-0.0625 0.4375,-0.0937 0.40625,-0.0312 0.4375,-0.0625 0.4375,-0.0312 0.4375,-0.0312 0.4375,-0.0312 0.4375,0 0.4375,-0.0312 z"
   style="fill:#000000;fill-opacity:1;stroke:none"
   inkscape:connector-curvature="0" />
</g><g
     transform="matrix(1.0149866,0,0,1.0111692,-1.666326,-3.0967201)"
     style="fill:#000000;fill-opacity:1;stroke:none"
     id="LWPOLYLINE_3_">
	
		<path
   inkscape:connector-curvature="0"
   id="polygon13"
   d="m 269.53,362.047 -146.745,-84.791 -11.597,20.473 146.77,85.757 z"
   style="fill:#000000;fill-opacity:1;stroke:none" />
</g><g
     transform="matrix(1.04838,0,0,1.0223328,-21.263038,-7.3551328)"
     style="fill:#000000;fill-opacity:1;stroke:none"
     id="LWPOLYLINE_4_">
	
		<path
   inkscape:connector-curvature="0"
   id="polygon16"
   d="m 354.932,382.469 145.88,-84.817 -12.564,-21.439 -146.846,84.791 z"
   style="fill:#000000;fill-opacity:1;stroke:none" />
</g><g
     transform="matrix(1,0,0,1.0316363,0,-17.010041)"
     style="fill:#000000;fill-opacity:1;stroke:none"
     id="LWPOLYLINE_5_">
	
		<path
   inkscape:connector-curvature="0"
   id="rect19"
   d="m 294.53,443.914 23.982,0 0,168.77001 -23.982,0 z"
   style="fill:#000000;fill-opacity:1;stroke:none" />
</g></g>

</svg>