<?xml version="1.0" encoding="UTF-8" standalone="no"?>
<!-- Generator: Adobe Illustrator 16.0.1, SVG Export Plug-In . SVG Version: 6.00 Build 0)  -->

<svg
   xmlns:dc="http://purl.org/dc/elements/1.1/"
   xmlns:cc="http://creativecommons.org/ns#"
   xmlns:rdf="http://www.w3.org/1999/02/22-rdf-syntax-ns#"
   xmlns:svg="http://www.w3.org/2000/svg"
   xmlns="http://www.w3.org/2000/svg"
   xmlns:xlink="http://www.w3.org/1999/xlink"
   xmlns:sodipodi="http://sodipodi.sourceforge.net/DTD/sodipodi-0.dtd"
   xmlns:inkscape="http://www.inkscape.org/namespaces/inkscape"
   version="1.0"
   id="_x31_"
   x="0px"
   y="0px"
   width="350"
   height="350"
   viewBox="0 0 350 350"
   enable-background="new 0 0 612 792"
   xml:space="preserve"
   inkscape:version="0.48.2 r9819"
   sodipodi:docname="7055.svg"><metadata
   id="metadata16"><rdf:RDF><cc:Work
       rdf:about=""><dc:format>image/svg+xml</dc:format><dc:type
         rdf:resource="http://purl.org/dc/dcmitype/StillImage" /></cc:Work></rdf:RDF></metadata><defs
   id="defs14"><radialGradient
     r="333.18735"
     fy="710.99164"
     fx="373.24265"
     cy="710.99164"
     cx="373.24265"
     gradientTransform="matrix(0.86272608,1.0667183e-7,-5.1097115e-8,0.31434,-147.00617,81.5576)"
     gradientUnits="userSpaceOnUse"
     id="radialGradient3092"
     xlink:href="#linearGradient5443"
     inkscape:collect="always" /><radialGradient
     r="333.18735"
     fy="467.91885"
     fx="373.24265"
     cy="467.91885"
     cx="373.24265"
     gradientTransform="matrix(0.83535071,2.5391117e-7,-2.4564601e-7,0.80815889,-136.78854,-203.15302)"
     gradientUnits="userSpaceOnUse"
     id="radialGradient3088"
     xlink:href="#linearGradient5443"
     inkscape:collect="always" /><radialGradient
     r="333.18735"
     fy="467.91885"
     fx="373.24265"
     cy="467.91885"
     cx="373.24265"
     gradientTransform="matrix(0.83535071,2.5391117e-7,-2.4564601e-7,0.80815889,783.12101,707.99698)"
     gradientUnits="userSpaceOnUse"
     id="radialGradient3736"
     xlink:href="#linearGradient5443"
     inkscape:collect="always" /><linearGradient
     y2="254.73526"
     x2="123.47623"
     y1="344.03848"
     x1="123.50603"
     gradientTransform="matrix(2.3189708,0,0,2.0930998,-99.17808,-231.54972)"
     gradientUnits="userSpaceOnUse"
     id="linearGradient3734"
     xlink:href="#linearGradient3187"
     inkscape:collect="always" /><radialGradient
     r="333.18735"
     fy="710.99164"
     fx="373.24265"
     cy="710.99164"
     cx="373.24265"
     gradientTransform="matrix(0.86272608,1.0667183e-7,-5.1097115e-8,0.31434,772.90338,992.7076)"
     gradientUnits="userSpaceOnUse"
     id="radialGradient3732"
     xlink:href="#linearGradient5443"
     inkscape:collect="always" /><radialGradient
     r="333.18735"
     fy="710.99164"
     fx="373.24265"
     cy="710.99164"
     cx="373.24265"
     gradientTransform="matrix(0.86272608,1.0667183e-7,-5.1097115e-8,0.31434,772.90338,992.7076)"
     gradientUnits="userSpaceOnUse"
     id="radialGradient3722"
     xlink:href="#linearGradient5443"
     inkscape:collect="always" /><radialGradient
     r="333.18735"
     fy="467.91885"
     fx="373.24265"
     cy="467.91885"
     cx="373.24265"
     gradientTransform="matrix(0.83535071,2.5391117e-7,-2.4564601e-7,0.80815889,783.12101,707.99698)"
     gradientUnits="userSpaceOnUse"
     id="radialGradient3718"
     xlink:href="#linearGradient5443"
     inkscape:collect="always" /><radialGradient
     r="333.18735"
     fy="467.91885"
     fx="373.24265"
     cy="467.91885"
     cx="373.24265"
     gradientTransform="matrix(0.9201975,2.7970099e-7,-2.7059634e-7,0.8902438,-163.70313,61.921561)"
     gradientUnits="userSpaceOnUse"
     id="radialGradient3703"
     xlink:href="#linearGradient5443"
     inkscape:collect="always" /><linearGradient
     y2="254.73526"
     x2="123.47623"
     y1="344.03848"
     x1="123.50603"
     gradientTransform="matrix(2.3189708,0,0,2.0930998,-99.17808,-231.54972)"
     gradientUnits="userSpaceOnUse"
     id="linearGradient3701"
     xlink:href="#linearGradient3187"
     inkscape:collect="always" /><radialGradient
     r="333.18735"
     fy="710.99164"
     fx="373.24265"
     cy="710.99164"
     cx="373.24265"
     gradientTransform="matrix(0.9503534,1.1750652e-7,-5.6287062e-8,0.3462676,-174.95857,375.55031)"
     gradientUnits="userSpaceOnUse"
     id="radialGradient3699"
     xlink:href="#linearGradient5443"
     inkscape:collect="always" /><radialGradient
     r="333.18735"
     fy="467.91885"
     fx="373.24265"
     cy="467.91885"
     cx="373.24265"
     gradientTransform="matrix(0.9201975,2.7970099e-7,-2.7059634e-7,0.8902438,-163.70313,61.921561)"
     gradientUnits="userSpaceOnUse"
     id="radialGradient3680"
     xlink:href="#linearGradient5443"
     inkscape:collect="always" /><linearGradient
     y2="254.73526"
     x2="123.47623"
     y1="344.03848"
     x1="123.50603"
     gradientTransform="matrix(2.3189708,0,0,2.0930998,-99.17808,-231.54972)"
     gradientUnits="userSpaceOnUse"
     id="linearGradient3678"
     xlink:href="#linearGradient3187"
     inkscape:collect="always" /><radialGradient
     r="333.18735"
     fy="710.99164"
     fx="373.24265"
     cy="710.99164"
     cx="373.24265"
     gradientTransform="matrix(0.9503534,1.1750652e-7,-5.6287062e-8,0.3462676,-174.95857,375.55031)"
     gradientUnits="userSpaceOnUse"
     id="radialGradient3676"
     xlink:href="#linearGradient5443"
     inkscape:collect="always" /><radialGradient
     r="333.18735"
     fy="467.91885"
     fx="373.24265"
     cy="467.91885"
     cx="373.24265"
     gradientTransform="matrix(0.9201975,2.7970099e-7,-2.7059634e-7,0.8902438,-163.70313,61.921561)"
     gradientUnits="userSpaceOnUse"
     id="radialGradient3654"
     xlink:href="#linearGradient5443"
     inkscape:collect="always" /><linearGradient
     y2="254.73526"
     x2="123.47623"
     y1="344.03848"
     x1="123.50603"
     gradientTransform="matrix(2.3189708,0,0,2.0930998,-99.17808,-231.54972)"
     gradientUnits="userSpaceOnUse"
     id="linearGradient3652"
     xlink:href="#linearGradient3187"
     inkscape:collect="always" /><radialGradient
     r="333.18735"
     fy="710.99164"
     fx="373.24265"
     cy="710.99164"
     cx="373.24265"
     gradientTransform="matrix(0.9503534,1.1750652e-7,-5.6287062e-8,0.3462676,-174.95857,375.55031)"
     gradientUnits="userSpaceOnUse"
     id="radialGradient3650"
     xlink:href="#linearGradient5443"
     inkscape:collect="always" /><radialGradient
     r="333.18735"
     fy="467.91885"
     fx="373.24265"
     cy="467.91885"
     cx="373.24265"
     gradientTransform="matrix(0.9201975,2.7970099e-7,-2.7059634e-7,0.8902438,-163.70313,61.921561)"
     gradientUnits="userSpaceOnUse"
     id="radialGradient3627"
     xlink:href="#linearGradient5443"
     inkscape:collect="always" /><linearGradient
     y2="254.73526"
     x2="123.47623"
     y1="344.03848"
     x1="123.50603"
     gradientTransform="matrix(2.3189708,0,0,2.0930998,-99.17808,-231.54972)"
     gradientUnits="userSpaceOnUse"
     id="linearGradient3625"
     xlink:href="#linearGradient3187"
     inkscape:collect="always" /><radialGradient
     r="333.18735"
     fy="710.99164"
     fx="373.24265"
     cy="710.99164"
     cx="373.24265"
     gradientTransform="matrix(0.9503534,1.1750652e-7,-5.6287062e-8,0.3462676,-174.95857,375.55031)"
     gradientUnits="userSpaceOnUse"
     id="radialGradient3623"
     xlink:href="#linearGradient5443"
     inkscape:collect="always" /><radialGradient
     r="333.18735"
     fy="467.91885"
     fx="373.24265"
     cy="467.91885"
     cx="373.24265"
     gradientTransform="matrix(0.9201975,2.7970099e-7,-2.7059634e-7,0.8902438,-163.70313,61.921561)"
     gradientUnits="userSpaceOnUse"
     id="radialGradient3599"
     xlink:href="#linearGradient5443"
     inkscape:collect="always" /><linearGradient
     y2="254.73526"
     x2="123.47623"
     y1="344.03848"
     x1="123.50603"
     gradientTransform="matrix(2.3189708,0,0,2.0930998,-99.17808,-231.54972)"
     gradientUnits="userSpaceOnUse"
     id="linearGradient3597"
     xlink:href="#linearGradient3187"
     inkscape:collect="always" /><radialGradient
     r="333.18735"
     fy="710.99164"
     fx="373.24265"
     cy="710.99164"
     cx="373.24265"
     gradientTransform="matrix(0.9503534,1.1750652e-7,-5.6287062e-8,0.3462676,-174.95857,375.55031)"
     gradientUnits="userSpaceOnUse"
     id="radialGradient3595"
     xlink:href="#linearGradient5443"
     inkscape:collect="always" /><radialGradient
     r="333.18735"
     fy="467.91885"
     fx="373.24265"
     cy="467.91885"
     cx="373.24265"
     gradientTransform="matrix(0.9201975,2.7970099e-7,-2.7059634e-7,0.8902438,-163.70313,61.921561)"
     gradientUnits="userSpaceOnUse"
     id="radialGradient3525"
     xlink:href="#linearGradient5443"
     inkscape:collect="always" /><linearGradient
     y2="254.73526"
     x2="123.47623"
     y1="344.03848"
     x1="123.50603"
     gradientTransform="matrix(2.3189708,0,0,2.0930998,-99.17808,-231.54972)"
     gradientUnits="userSpaceOnUse"
     id="linearGradient3523"
     xlink:href="#linearGradient3187"
     inkscape:collect="always" /><radialGradient
     r="333.18735"
     fy="710.99164"
     fx="373.24265"
     cy="710.99164"
     cx="373.24265"
     gradientTransform="matrix(0.9503534,1.1750652e-7,-5.6287062e-8,0.3462676,-174.95857,375.55031)"
     gradientUnits="userSpaceOnUse"
     id="radialGradient3521"
     xlink:href="#linearGradient5443"
     inkscape:collect="always" /><radialGradient
     r="333.18735"
     fy="467.91885"
     fx="373.24265"
     cy="467.91885"
     cx="373.24265"
     gradientTransform="matrix(0.9201975,2.7970099e-7,-2.7059634e-7,0.8902438,-163.70313,61.921561)"
     gradientUnits="userSpaceOnUse"
     id="radialGradient3497"
     xlink:href="#linearGradient5443"
     inkscape:collect="always" /><linearGradient
     y2="254.73526"
     x2="123.47623"
     y1="344.03848"
     x1="123.50603"
     gradientTransform="matrix(2.3189708,0,0,2.0930998,-99.17808,-231.54972)"
     gradientUnits="userSpaceOnUse"
     id="linearGradient3495"
     xlink:href="#linearGradient3187"
     inkscape:collect="always" /><radialGradient
     r="333.18735"
     fy="710.99164"
     fx="373.24265"
     cy="710.99164"
     cx="373.24265"
     gradientTransform="matrix(0.9503534,1.1750652e-7,-5.6287062e-8,0.3462676,-174.95857,375.55031)"
     gradientUnits="userSpaceOnUse"
     id="radialGradient3493"
     xlink:href="#linearGradient5443"
     inkscape:collect="always" /><linearGradient
     id="linearGradient5443"><stop
       id="stop5445"
       offset="0"
       style="stop-color:#ffffff;stop-opacity:0;" /><stop
       id="stop5447"
       offset="1"
       style="stop-color:#000000;stop-opacity:0.33962265;" /></linearGradient><linearGradient
     id="linearGradient3157"><stop
       style="stop-color:#49bcff;stop-opacity:1;"
       offset="0"
       id="stop3159" /><stop
       style="stop-color:#494c96;stop-opacity:1;"
       offset="1"
       id="stop3161" /></linearGradient><linearGradient
     id="linearGradient3171"><stop
       id="stop3173"
       offset="0"
       style="stop-color:#49bcff;stop-opacity:1;" /><stop
       id="stop3175"
       offset="1"
       style="stop-color:#494cdc;stop-opacity:1;" /></linearGradient><linearGradient
     id="linearGradient3187"><stop
       style="stop-color:#ffffff;stop-opacity:0.39622641;"
       offset="0"
       id="stop3189" /><stop
       style="stop-color:#000000;stop-opacity:1;"
       offset="1"
       id="stop3191" /></linearGradient><linearGradient
     id="linearGradient4395"><stop
       style="stop-color:#110084;stop-opacity:1;"
       offset="0"
       id="stop4397" /><stop
       style="stop-color:#a695ff;stop-opacity:1;"
       offset="1"
       id="stop4399" /></linearGradient><linearGradient
     id="linearGradient4383"><stop
       style="stop-color:#00037f;stop-opacity:1;"
       offset="0"
       id="stop4385" /><stop
       style="stop-color:#00037f;stop-opacity:0;"
       offset="1"
       id="stop4387" /></linearGradient><inkscape:perspective
     sodipodi:type="inkscape:persp3d"
     inkscape:vp_x="0 : 526.18109 : 1"
     inkscape:vp_y="0 : 1000 : 0"
     inkscape:vp_z="744.09448 : 526.18109 : 1"
     inkscape:persp3d-origin="372.04724 : 350.78739 : 1"
     id="perspective3214" /><linearGradient
     inkscape:collect="always"
     xlink:href="#linearGradient4383"
     id="linearGradient4389"
     x1="371.42194"
     y1="298.59412"
     x2="396.91168"
     y2="655.4505"
     gradientUnits="userSpaceOnUse" /><linearGradient
     inkscape:collect="always"
     xlink:href="#linearGradient4395"
     id="linearGradient4401"
     x1="360.49777"
     y1="167.50403"
     x2="360.49777"
     y2="540.86719"
     gradientUnits="userSpaceOnUse" /><linearGradient
     inkscape:collect="always"
     xlink:href="#linearGradient3187"
     id="linearGradient4562"
     gradientUnits="userSpaceOnUse"
     gradientTransform="matrix(2.3189708,0,0,2.0930998,93.115298,-256.84999)"
     x1="123.50603"
     y1="344.03848"
     x2="123.47623"
     y2="254.73526" /><radialGradient
     inkscape:collect="always"
     xlink:href="#linearGradient3171"
     id="radialGradient4569"
     gradientUnits="userSpaceOnUse"
     gradientTransform="matrix(0.9201975,2.7970099e-7,-2.7059634e-7,0.8902438,28.590287,48.634335)"
     cx="373.24265"
     cy="467.91885"
     fx="373.24265"
     fy="467.91885"
     r="333.18735" /><radialGradient
     inkscape:collect="always"
     xlink:href="#linearGradient3157"
     id="radialGradient4572"
     gradientUnits="userSpaceOnUse"
     gradientTransform="matrix(0.9503534,1.1750652e-7,-5.6287062e-8,0.3462676,17.334826,362.44227)"
     cx="373.24265"
     cy="710.99164"
     fx="373.24265"
     fy="710.99164"
     r="333.18735" /><filter
     inkscape:collect="always"
     id="filter4659"
     color-interpolation-filters="sRGB"><feGaussianBlur
       inkscape:collect="always"
       stdDeviation="2.7750933"
       id="feGaussianBlur4661" /></filter><radialGradient
     inkscape:collect="always"
     xlink:href="#linearGradient3157"
     id="radialGradient4766"
     gradientUnits="userSpaceOnUse"
     gradientTransform="matrix(0.9503534,1.1750652e-7,-5.6287062e-8,0.3462676,17.334826,362.44227)"
     cx="373.24265"
     cy="710.99164"
     fx="373.24265"
     fy="710.99164"
     r="333.18735" /><radialGradient
     inkscape:collect="always"
     xlink:href="#linearGradient3171"
     id="radialGradient4768"
     gradientUnits="userSpaceOnUse"
     gradientTransform="matrix(0.9201975,2.7970099e-7,-2.7059634e-7,0.8902438,28.590287,48.634335)"
     cx="373.24265"
     cy="467.91885"
     fx="373.24265"
     fy="467.91885"
     r="333.18735" /><linearGradient
     inkscape:collect="always"
     xlink:href="#linearGradient3187"
     id="linearGradient4770"
     gradientUnits="userSpaceOnUse"
     gradientTransform="matrix(2.3189708,0,0,2.0930998,93.115298,-256.84999)"
     x1="123.50603"
     y1="344.03848"
     x2="123.47623"
     y2="254.73526" /><linearGradient
     inkscape:collect="always"
     xlink:href="#linearGradient3187"
     id="linearGradient4773"
     gradientUnits="userSpaceOnUse"
     gradientTransform="matrix(2.3189708,0,0,2.0930998,93.115298,-256.84999)"
     x1="123.50603"
     y1="344.03848"
     x2="123.47623"
     y2="254.73526" /><radialGradient
     inkscape:collect="always"
     xlink:href="#linearGradient3171"
     id="radialGradient4776"
     gradientUnits="userSpaceOnUse"
     gradientTransform="matrix(0.9201975,2.7970099e-7,-2.7059634e-7,0.8902438,28.590287,48.634335)"
     cx="373.24265"
     cy="467.91885"
     fx="373.24265"
     fy="467.91885"
     r="333.18735" /><radialGradient
     inkscape:collect="always"
     xlink:href="#linearGradient3157"
     id="radialGradient4779"
     gradientUnits="userSpaceOnUse"
     gradientTransform="matrix(0.9503534,1.1750652e-7,-5.6287062e-8,0.3462676,17.334826,362.44227)"
     cx="373.24265"
     cy="710.99164"
     fx="373.24265"
     fy="710.99164"
     r="333.18735" /><radialGradient
     inkscape:collect="always"
     xlink:href="#linearGradient3157"
     id="radialGradient4790"
     gradientUnits="userSpaceOnUse"
     gradientTransform="matrix(0.9503534,1.1750652e-7,-5.6287062e-8,0.3462676,17.334826,362.44227)"
     cx="373.24265"
     cy="710.99164"
     fx="373.24265"
     fy="710.99164"
     r="333.18735" /><radialGradient
     inkscape:collect="always"
     xlink:href="#linearGradient3171"
     id="radialGradient4792"
     gradientUnits="userSpaceOnUse"
     gradientTransform="matrix(0.9201975,2.7970099e-7,-2.7059634e-7,0.8902438,28.590287,48.634335)"
     cx="373.24265"
     cy="467.91885"
     fx="373.24265"
     fy="467.91885"
     r="333.18735" /><linearGradient
     inkscape:collect="always"
     xlink:href="#linearGradient3187"
     id="linearGradient4794"
     gradientUnits="userSpaceOnUse"
     gradientTransform="matrix(2.3189708,0,0,2.0930998,93.115298,-256.84999)"
     x1="123.50603"
     y1="344.03848"
     x2="123.47623"
     y2="254.73526" /><linearGradient
     inkscape:collect="always"
     xlink:href="#linearGradient3187"
     id="linearGradient4799"
     gradientUnits="userSpaceOnUse"
     gradientTransform="matrix(2.3189708,0,0,2.0930998,93.115298,-256.84999)"
     x1="123.50603"
     y1="344.03848"
     x2="123.47623"
     y2="254.73526" /><radialGradient
     inkscape:collect="always"
     xlink:href="#linearGradient3171"
     id="radialGradient4802"
     gradientUnits="userSpaceOnUse"
     gradientTransform="matrix(0.9201975,2.7970099e-7,-2.7059634e-7,0.8902438,28.590287,48.634335)"
     cx="373.24265"
     cy="467.91885"
     fx="373.24265"
     fy="467.91885"
     r="333.18735" /><radialGradient
     inkscape:collect="always"
     xlink:href="#linearGradient3157"
     id="radialGradient4805"
     gradientUnits="userSpaceOnUse"
     gradientTransform="matrix(0.9503534,1.1750652e-7,-5.6287062e-8,0.3462676,17.334826,362.44227)"
     cx="373.24265"
     cy="710.99164"
     fx="373.24265"
     fy="710.99164"
     r="333.18735" /><radialGradient
     inkscape:collect="always"
     xlink:href="#linearGradient3157"
     id="radialGradient4820"
     gradientUnits="userSpaceOnUse"
     gradientTransform="matrix(0.9503534,1.1750652e-7,-5.6287062e-8,0.3462676,17.334826,362.44227)"
     cx="373.24265"
     cy="710.99164"
     fx="373.24265"
     fy="710.99164"
     r="333.18735" /><radialGradient
     inkscape:collect="always"
     xlink:href="#linearGradient3171"
     id="radialGradient4822"
     gradientUnits="userSpaceOnUse"
     gradientTransform="matrix(0.9201975,2.7970099e-7,-2.7059634e-7,0.8902438,28.590287,48.634335)"
     cx="373.24265"
     cy="467.91885"
     fx="373.24265"
     fy="467.91885"
     r="333.18735" /><linearGradient
     inkscape:collect="always"
     xlink:href="#linearGradient3187"
     id="linearGradient4824"
     gradientUnits="userSpaceOnUse"
     gradientTransform="matrix(2.3189708,0,0,2.0930998,93.115298,-256.84999)"
     x1="123.50603"
     y1="344.03848"
     x2="123.47623"
     y2="254.73526" /><linearGradient
     inkscape:collect="always"
     xlink:href="#linearGradient3187"
     id="linearGradient4827"
     gradientUnits="userSpaceOnUse"
     gradientTransform="matrix(2.3189708,0,0,2.0930998,-99.17808,-231.54972)"
     x1="123.50603"
     y1="344.03848"
     x2="123.47623"
     y2="254.73526" /><radialGradient
     inkscape:collect="always"
     xlink:href="#linearGradient5443"
     id="radialGradient4832"
     gradientUnits="userSpaceOnUse"
     gradientTransform="matrix(0.9201975,2.7970099e-7,-2.7059634e-7,0.8902438,-163.70313,61.921561)"
     cx="373.24265"
     cy="467.91885"
     fx="373.24265"
     fy="467.91885"
     r="333.18735" /><radialGradient
     inkscape:collect="always"
     xlink:href="#linearGradient5443"
     id="radialGradient4835"
     gradientUnits="userSpaceOnUse"
     gradientTransform="matrix(0.9503534,1.1750652e-7,-5.6287062e-8,0.3462676,-174.95857,375.55031)"
     cx="373.24265"
     cy="710.99164"
     fx="373.24265"
     fy="710.99164"
     r="333.18735" /><filter
     inkscape:collect="always"
     id="filter5511"
     color-interpolation-filters="sRGB"><feGaussianBlur
       inkscape:collect="always"
       stdDeviation="3.2374974"
       id="feGaussianBlur5513" /></filter><radialGradient
     inkscape:collect="always"
     xlink:href="#linearGradient5443-5"
     id="radialGradient4835-3"
     gradientUnits="userSpaceOnUse"
     gradientTransform="matrix(0.9503534,1.1750652e-7,-5.6287062e-8,0.3462676,317.80591,185.68771)"
     cx="373.24265"
     cy="710.99164"
     fx="373.24265"
     fy="710.99164"
     r="333.18735" /><linearGradient
     id="linearGradient5443-5"><stop
       id="stop5445-4"
       offset="0"
       style="stop-color:#ffffff;stop-opacity:0;" /><stop
       id="stop5447-3"
       offset="1"
       style="stop-color:#000000;stop-opacity:0.33962265;" /></linearGradient><radialGradient
     inkscape:collect="always"
     xlink:href="#linearGradient5443"
     id="radialGradient3272"
     gradientUnits="userSpaceOnUse"
     gradientTransform="matrix(0.9503534,1.1750652e-7,-5.6287062e-8,0.3462676,-174.95857,375.55031)"
     cx="373.24265"
     cy="710.99164"
     fx="373.24265"
     fy="710.99164"
     r="333.18735" /><linearGradient
     inkscape:collect="always"
     xlink:href="#linearGradient3187"
     id="linearGradient3274"
     gradientUnits="userSpaceOnUse"
     gradientTransform="matrix(2.3189708,0,0,2.0930998,-99.17808,-231.54972)"
     x1="123.50603"
     y1="344.03848"
     x2="123.47623"
     y2="254.73526" /><radialGradient
     inkscape:collect="always"
     xlink:href="#linearGradient5443"
     id="radialGradient3276"
     gradientUnits="userSpaceOnUse"
     gradientTransform="matrix(0.9201975,2.7970099e-7,-2.7059634e-7,0.8902438,-163.70313,61.921561)"
     cx="373.24265"
     cy="467.91885"
     fx="373.24265"
     fy="467.91885"
     r="333.18735" /></defs><sodipodi:namedview
   pagecolor="#ffffff"
   bordercolor="#666666"
   borderopacity="1"
   objecttolerance="10"
   gridtolerance="10"
   guidetolerance="10"
   inkscape:pageopacity="0"
   inkscape:pageshadow="2"
   inkscape:window-width="1920"
   inkscape:window-height="1068"
   id="namedview12"
   showgrid="false"
   inkscape:zoom="0.84281414"
   inkscape:cx="5.0764056"
   inkscape:cy="171.03021"
   inkscape:window-x="0"
   inkscape:window-y="0"
   inkscape:window-maximized="1"
   inkscape:current-layer="_x31_"
   fit-margin-top="0"
   fit-margin-left="0"
   fit-margin-right="0"
   fit-margin-bottom="0" />

<g
   id="g3274"
   transform="translate(-4.0524846e-6,3.5529445e-6)"><rect
     inkscape:export-ydpi="29.879425"
     inkscape:export-xdpi="29.879425"
     inkscape:export-filename="C:\Documents and Settings\adscro24\Desktop\128.png"
     style="opacity:0.61338286;fill:#464646;fill-opacity:0.78540775;stroke:none;filter:url(#filter4659)"
     id="rect3279"
     width="152.93848"
     height="152.93848"
     x="135.39355"
     y="48.636749"
     rx="16.067965"
     ry="12.45238"
     transform="matrix(2.1051501,0,0,2.1051501,-271.00298,-88.36689)" /><rect
     inkscape:export-ydpi="29.879425"
     inkscape:export-xdpi="29.879425"
     inkscape:export-filename="C:\Documents and Settings\adscro24\Desktop\128.png"
     style="opacity:0.61338286;fill:url(#radialGradient3092);fill-opacity:1;stroke:#000000;stroke-width:3.26806188;stroke-miterlimit:4;stroke-opacity:1;stroke-dasharray:none"
     id="rect3155"
     width="321.95847"
     height="321.95847"
     x="14.020748"
     y="14.020716"
     rx="33.825481"
     ry="26.21413" /><path
     transform="matrix(0.90779502,0,0,0.90779502,11.82035,-259.3651)"
     inkscape:export-ydpi="29.879425"
     inkscape:export-xdpi="29.879425"
     inkscape:export-filename="C:\Documents and Settings\adscro24\Desktop\128.png"
     inkscape:connector-curvature="0"
     style="opacity:0.61338286;fill:url(#linearGradient3734);fill-opacity:1;stroke:none;filter:url(#filter5511)"
     d="m 46.58172,323.34879 c -19.62748,0 -35.44272,12.0976 -35.44272,27.14163 l 0,124.30857 c 29.25482,11.38638 132.70149,11.89599 165.40488,-5.79022 33.32802,-18.02397 127.54379,-68.44264 171.82484,-52.72052 l 0,-65.79783 c 0,-15.04403 -15.7986,-27.14163 -35.4261,-27.14163 l -266.3609,0 z M 11.139,586.81982 l 0,42.88373 c 0,1.33144 0.14331,2.63588 0.38253,3.915 -0.11919,-12.81092 -0.25965,-28.88939 -0.38253,-46.79873 z"
     id="rect3177" /><rect
     inkscape:export-ydpi="29.879425"
     inkscape:export-xdpi="29.879425"
     inkscape:export-filename="C:\Documents and Settings\adscro24\Desktop\128.png"
     style="opacity:0.61338286;fill:url(#radialGradient3088);fill-opacity:1;stroke:#ffffff;stroke-width:0.68992418;stroke-linecap:square;stroke-miterlimit:4;stroke-opacity:1;stroke-dasharray:none"
     id="rect3473"
     width="306.12445"
     height="306.12445"
     x="21.937801"
     y="21.937769"
     rx="32.161926"
     ry="24.924913" /><rect
     inkscape:export-ydpi="29.879425"
     inkscape:export-xdpi="29.879425"
     inkscape:export-filename="C:\Documents and Settings\adscro24\Desktop\128.png"
     style="opacity:0.61338286;fill:#ffffff;fill-opacity:0;stroke:#000000;stroke-width:3.26806188;stroke-miterlimit:4;stroke-opacity:1;stroke-dasharray:none"
     id="rect3155-2"
     width="321.95847"
     height="321.95847"
     x="14.020748"
     y="14.020716"
     rx="33.825481"
     ry="26.21413" /><g
     transform="translate(400.39145,135.8211)"
     style="fill:#000000;fill-opacity:1;stroke:none"
     id="LWPOLYLINE_2_-2">
	
		
</g></g><g
   id="LWPOLYLINE_1_"
   transform="translate(325.66648,-258.25001)">
	
		
</g>
<g
   id="g2986"
   transform="matrix(0.91696997,0,0,0.91696997,35.432756,-302.28288)"><g
     transform="matrix(0.499951,0,0,0.499951,-0.78132656,322.78163)"
     style="fill:#000000;fill-opacity:1;stroke:none"
     id="LWPOLYLINE">
	
		<path
   inkscape:connector-curvature="0"
   id="path4"
   d="m -1.25,145.5 c -0.4093029,166.66577 -0.2351826,333.33345 -0.3125,500 22.822917,0 45.645833,0 68.46875,0 C 67.126596,571.2865 66.93691,497.06162 67,422.84375 c 57.36232,-2.18011 116.0989,4.68086 172.34375,-10.125 26.78039,-6.60789 50.25216,-22.90715 67.24113,-44.44204 25.67738,-29.43322 33.86992,-70.41201 28.70118,-108.41194 -3.33157,-30.96869 -18.21171,-60.15954 -41.13972,-81.21843 C 267.70817,151.12148 227.56079,146.37746 191.34375,145.81255 127.15482,145.1009 62.944586,145.69413 -1.25,145.5 z M 67,201.875 c 41.17164,0.45137 82.39643,-0.98856 123.53125,0.87495 25.76183,1.62264 54.11422,12.5545 64.98721,37.7994 10.4378,25.04021 10.15303,54.60034 0.10654,79.73185 -11.43392,27.13838 -40.91239,40.29219 -68.57417,43.58445 -35.62329,4.10512 -71.58841,1.4226 -107.36333,2.1968 C 66.549154,369.42955 65.183452,360.5109 67.299194,348.49154 67.018637,299.62003 67.0265,250.74716 67,201.875 z"
   style="fill:#000000;fill-opacity:1;stroke:none" />
</g><g
     transform="matrix(0.499951,0,0,0.499951,-0.78132656,322.78163)"
     style="fill:#000000;fill-opacity:1;stroke:none"
     id="LWPOLYLINE_2_">
	
		<path
   inkscape:connector-curvature="0"
   style="fill:#000000;fill-opacity:1;stroke:none"
   id="path10"
   d="m 544.992,645.5 c 0.477,0 1.078,0 1.078,0 h 0.836 0.957 1.316 1.316 1.555 1.797 1.797 2.031 2.156 2.152 2.273 2.395 2.512 2.516 2.512 2.516 2.633 2.512 2.512 2.633 2.395 2.512 2.395 2.273 2.156 2.152 2.035 1.797 1.793 1.555 1.316 1.316 0.961 0.836 c 0.598,0 0.957,0 0.957,0 0.121,0 0.121,-0.957 0.121,-0.957 v -2.633 -4.43 -5.984 -7.539 -8.855 V 604.93 593.442 580.997 567.352 552.872 537.556 521.4 504.646 487.291 469.459 451.33 432.9 414.23 395.5 376.77 358.102 339.672 321.48 303.71 286.355 269.601 253.507 238.128 223.648 210.062 197.5 v -11.43 -10.172 -8.918 -7.48 -5.98 -4.371 -2.691 -0.958 c -0.48,0 -0.957,0 -0.957,0 h -0.84 -0.957 -1.078 -1.316 -1.434 -1.559 -1.793 -1.797 -2.035 -2.031 -2.156 -2.152 -2.273 -2.395 -2.273 -2.395 -2.395 -2.391 -2.395 -2.273 -2.395 -2.273 -2.156 -2.152 -2.035 -2.035 -1.793 -1.797 -1.555 -1.438 -1.316 -1.074 -0.957 -0.84 c -0.477,0 -0.836,0 -0.836,0 -0.121,0 -2.156,1.676 -2.156,1.676 l -2.152,1.734 -2.273,1.734 -2.273,1.738 -2.277,1.793 -2.391,1.855 -2.516,1.855 -2.512,1.914 -2.512,1.914 -2.633,1.914 -2.754,1.918 -2.754,1.973 -2.75,2.035 -2.875,1.973 -2.871,2.035 -2.992,2.035 -2.992,2.035 -2.992,2.035 -3.109,2.094 -3.113,2.035 -3.109,2.094 -3.113,2.035 -3.23,2.094 -3.23,2.094 -3.352,2.035 -3.23,2.094 -3.352,2.035 -3.352,2.094 -3.352,2.035 -3.352,2.031 -3.469,2.035 -3.473,2.035 -3.348,1.977 -3.473,1.973 -3.469,1.977 -3.473,1.914 -3.469,1.973 -3.473,1.855 -3.59,1.914 -3.469,1.855 c 0,0.48 0,1.137 0,1.137 v 0.84 1.074 1.258 1.438 1.613 1.797 1.914 2.094 2.156 2.332 2.336 2.512 2.512 2.574 2.633 2.633 2.691 2.633 2.695 2.57 2.574 2.574 2.453 2.395 2.273 2.211 2.035 1.914 1.797 1.617 1.434 1.316 1.021 0.895 0.602 c 0,0.535 2.633,-0.602 2.633,-0.602 l 2.633,-1.195 2.75,-1.258 2.754,-1.316 2.871,-1.375 2.875,-1.438 2.871,-1.434 2.992,-1.559 2.992,-1.555 2.992,-1.613 2.992,-1.676 3.109,-1.676 3.113,-1.734 3.109,-1.738 3.113,-1.793 3.109,-1.855 3.113,-1.855 3.23,-1.855 3.113,-1.914 3.109,-1.914 3.113,-1.914 3.109,-1.977 3.113,-1.973 2.992,-1.977 3.109,-1.973 2.992,-2.035 2.992,-1.977 2.992,-1.973 2.871,-2.035 2.875,-1.977 2.871,-2.031 2.754,-1.977 2.75,-1.973 2.633,-1.977 2.633,-1.973 2.516,-1.918 2.512,-1.914 2.395,-1.914 2.273,-1.855 2.273,-1.855 V 645.5 z"
   stroke-miterlimit="10" />
</g></g>
</svg>