<?xml version="1.0" encoding="UTF-8" standalone="no"?>
<!-- Generator: Adobe Illustrator 16.0.1, SVG Export Plug-In . SVG Version: 6.00 Build 0)  -->

<svg
   xmlns:dc="http://purl.org/dc/elements/1.1/"
   xmlns:cc="http://creativecommons.org/ns#"
   xmlns:rdf="http://www.w3.org/1999/02/22-rdf-syntax-ns#"
   xmlns:svg="http://www.w3.org/2000/svg"
   xmlns="http://www.w3.org/2000/svg"
   xmlns:xlink="http://www.w3.org/1999/xlink"
   xmlns:sodipodi="http://sodipodi.sourceforge.net/DTD/sodipodi-0.dtd"
   xmlns:inkscape="http://www.inkscape.org/namespaces/inkscape"
   version="1.0"
   id="_x31_"
   x="0px"
   y="0px"
   width="348"
   height="348"
   viewBox="0 0 348 348"
   enable-background="new 0 0 612 792"
   xml:space="preserve"
   inkscape:version="0.48.2 r9819"
   sodipodi:docname="7071.svg"><metadata
   id="metadata19"><rdf:RDF><cc:Work
       rdf:about=""><dc:format>image/svg+xml</dc:format><dc:type
         rdf:resource="http://purl.org/dc/dcmitype/StillImage" /></cc:Work></rdf:RDF></metadata><defs
   id="defs17"><radialGradient
     r="333.18735"
     fy="710.99164"
     fx="373.24265"
     cy="710.99164"
     cx="373.24265"
     gradientTransform="matrix(0.86272608,1.0667183e-7,-5.1097115e-8,0.31434,-147.00617,81.5576)"
     gradientUnits="userSpaceOnUse"
     id="radialGradient3092"
     xlink:href="#linearGradient5443"
     inkscape:collect="always" /><radialGradient
     r="333.18735"
     fy="467.91885"
     fx="373.24265"
     cy="467.91885"
     cx="373.24265"
     gradientTransform="matrix(0.83535071,2.5391117e-7,-2.4564601e-7,0.80815889,-136.78854,-203.15302)"
     gradientUnits="userSpaceOnUse"
     id="radialGradient3088"
     xlink:href="#linearGradient5443"
     inkscape:collect="always" /><radialGradient
     r="333.18735"
     fy="467.91885"
     fx="373.24265"
     cy="467.91885"
     cx="373.24265"
     gradientTransform="matrix(0.83535071,2.5391117e-7,-2.4564601e-7,0.80815889,783.12101,707.99698)"
     gradientUnits="userSpaceOnUse"
     id="radialGradient3736"
     xlink:href="#linearGradient5443"
     inkscape:collect="always" /><linearGradient
     y2="254.73526"
     x2="123.47623"
     y1="344.03848"
     x1="123.50603"
     gradientTransform="matrix(2.3189708,0,0,2.0930998,-99.17808,-231.54972)"
     gradientUnits="userSpaceOnUse"
     id="linearGradient3734"
     xlink:href="#linearGradient3187"
     inkscape:collect="always" /><radialGradient
     r="333.18735"
     fy="710.99164"
     fx="373.24265"
     cy="710.99164"
     cx="373.24265"
     gradientTransform="matrix(0.86272608,1.0667183e-7,-5.1097115e-8,0.31434,772.90338,992.7076)"
     gradientUnits="userSpaceOnUse"
     id="radialGradient3732"
     xlink:href="#linearGradient5443"
     inkscape:collect="always" /><radialGradient
     r="333.18735"
     fy="710.99164"
     fx="373.24265"
     cy="710.99164"
     cx="373.24265"
     gradientTransform="matrix(0.86272608,1.0667183e-7,-5.1097115e-8,0.31434,772.90338,992.7076)"
     gradientUnits="userSpaceOnUse"
     id="radialGradient3722"
     xlink:href="#linearGradient5443"
     inkscape:collect="always" /><radialGradient
     r="333.18735"
     fy="467.91885"
     fx="373.24265"
     cy="467.91885"
     cx="373.24265"
     gradientTransform="matrix(0.83535071,2.5391117e-7,-2.4564601e-7,0.80815889,783.12101,707.99698)"
     gradientUnits="userSpaceOnUse"
     id="radialGradient3718"
     xlink:href="#linearGradient5443"
     inkscape:collect="always" /><radialGradient
     r="333.18735"
     fy="467.91885"
     fx="373.24265"
     cy="467.91885"
     cx="373.24265"
     gradientTransform="matrix(0.9201975,2.7970099e-7,-2.7059634e-7,0.8902438,-163.70313,61.921561)"
     gradientUnits="userSpaceOnUse"
     id="radialGradient3703"
     xlink:href="#linearGradient5443"
     inkscape:collect="always" /><linearGradient
     y2="254.73526"
     x2="123.47623"
     y1="344.03848"
     x1="123.50603"
     gradientTransform="matrix(2.3189708,0,0,2.0930998,-99.17808,-231.54972)"
     gradientUnits="userSpaceOnUse"
     id="linearGradient3701"
     xlink:href="#linearGradient3187"
     inkscape:collect="always" /><radialGradient
     r="333.18735"
     fy="710.99164"
     fx="373.24265"
     cy="710.99164"
     cx="373.24265"
     gradientTransform="matrix(0.9503534,1.1750652e-7,-5.6287062e-8,0.3462676,-174.95857,375.55031)"
     gradientUnits="userSpaceOnUse"
     id="radialGradient3699"
     xlink:href="#linearGradient5443"
     inkscape:collect="always" /><radialGradient
     r="333.18735"
     fy="467.91885"
     fx="373.24265"
     cy="467.91885"
     cx="373.24265"
     gradientTransform="matrix(0.9201975,2.7970099e-7,-2.7059634e-7,0.8902438,-163.70313,61.921561)"
     gradientUnits="userSpaceOnUse"
     id="radialGradient3680"
     xlink:href="#linearGradient5443"
     inkscape:collect="always" /><linearGradient
     y2="254.73526"
     x2="123.47623"
     y1="344.03848"
     x1="123.50603"
     gradientTransform="matrix(2.3189708,0,0,2.0930998,-99.17808,-231.54972)"
     gradientUnits="userSpaceOnUse"
     id="linearGradient3678"
     xlink:href="#linearGradient3187"
     inkscape:collect="always" /><radialGradient
     r="333.18735"
     fy="710.99164"
     fx="373.24265"
     cy="710.99164"
     cx="373.24265"
     gradientTransform="matrix(0.9503534,1.1750652e-7,-5.6287062e-8,0.3462676,-174.95857,375.55031)"
     gradientUnits="userSpaceOnUse"
     id="radialGradient3676"
     xlink:href="#linearGradient5443"
     inkscape:collect="always" /><radialGradient
     r="333.18735"
     fy="467.91885"
     fx="373.24265"
     cy="467.91885"
     cx="373.24265"
     gradientTransform="matrix(0.9201975,2.7970099e-7,-2.7059634e-7,0.8902438,-163.70313,61.921561)"
     gradientUnits="userSpaceOnUse"
     id="radialGradient3654"
     xlink:href="#linearGradient5443"
     inkscape:collect="always" /><linearGradient
     y2="254.73526"
     x2="123.47623"
     y1="344.03848"
     x1="123.50603"
     gradientTransform="matrix(2.3189708,0,0,2.0930998,-99.17808,-231.54972)"
     gradientUnits="userSpaceOnUse"
     id="linearGradient3652"
     xlink:href="#linearGradient3187"
     inkscape:collect="always" /><radialGradient
     r="333.18735"
     fy="710.99164"
     fx="373.24265"
     cy="710.99164"
     cx="373.24265"
     gradientTransform="matrix(0.9503534,1.1750652e-7,-5.6287062e-8,0.3462676,-174.95857,375.55031)"
     gradientUnits="userSpaceOnUse"
     id="radialGradient3650"
     xlink:href="#linearGradient5443"
     inkscape:collect="always" /><radialGradient
     r="333.18735"
     fy="467.91885"
     fx="373.24265"
     cy="467.91885"
     cx="373.24265"
     gradientTransform="matrix(0.9201975,2.7970099e-7,-2.7059634e-7,0.8902438,-163.70313,61.921561)"
     gradientUnits="userSpaceOnUse"
     id="radialGradient3627"
     xlink:href="#linearGradient5443"
     inkscape:collect="always" /><linearGradient
     y2="254.73526"
     x2="123.47623"
     y1="344.03848"
     x1="123.50603"
     gradientTransform="matrix(2.3189708,0,0,2.0930998,-99.17808,-231.54972)"
     gradientUnits="userSpaceOnUse"
     id="linearGradient3625"
     xlink:href="#linearGradient3187"
     inkscape:collect="always" /><radialGradient
     r="333.18735"
     fy="710.99164"
     fx="373.24265"
     cy="710.99164"
     cx="373.24265"
     gradientTransform="matrix(0.9503534,1.1750652e-7,-5.6287062e-8,0.3462676,-174.95857,375.55031)"
     gradientUnits="userSpaceOnUse"
     id="radialGradient3623"
     xlink:href="#linearGradient5443"
     inkscape:collect="always" /><radialGradient
     r="333.18735"
     fy="467.91885"
     fx="373.24265"
     cy="467.91885"
     cx="373.24265"
     gradientTransform="matrix(0.9201975,2.7970099e-7,-2.7059634e-7,0.8902438,-163.70313,61.921561)"
     gradientUnits="userSpaceOnUse"
     id="radialGradient3599"
     xlink:href="#linearGradient5443"
     inkscape:collect="always" /><linearGradient
     y2="254.73526"
     x2="123.47623"
     y1="344.03848"
     x1="123.50603"
     gradientTransform="matrix(2.3189708,0,0,2.0930998,-99.17808,-231.54972)"
     gradientUnits="userSpaceOnUse"
     id="linearGradient3597"
     xlink:href="#linearGradient3187"
     inkscape:collect="always" /><radialGradient
     r="333.18735"
     fy="710.99164"
     fx="373.24265"
     cy="710.99164"
     cx="373.24265"
     gradientTransform="matrix(0.9503534,1.1750652e-7,-5.6287062e-8,0.3462676,-174.95857,375.55031)"
     gradientUnits="userSpaceOnUse"
     id="radialGradient3595"
     xlink:href="#linearGradient5443"
     inkscape:collect="always" /><radialGradient
     r="333.18735"
     fy="467.91885"
     fx="373.24265"
     cy="467.91885"
     cx="373.24265"
     gradientTransform="matrix(0.9201975,2.7970099e-7,-2.7059634e-7,0.8902438,-163.70313,61.921561)"
     gradientUnits="userSpaceOnUse"
     id="radialGradient3525"
     xlink:href="#linearGradient5443"
     inkscape:collect="always" /><linearGradient
     y2="254.73526"
     x2="123.47623"
     y1="344.03848"
     x1="123.50603"
     gradientTransform="matrix(2.3189708,0,0,2.0930998,-99.17808,-231.54972)"
     gradientUnits="userSpaceOnUse"
     id="linearGradient3523"
     xlink:href="#linearGradient3187"
     inkscape:collect="always" /><radialGradient
     r="333.18735"
     fy="710.99164"
     fx="373.24265"
     cy="710.99164"
     cx="373.24265"
     gradientTransform="matrix(0.9503534,1.1750652e-7,-5.6287062e-8,0.3462676,-174.95857,375.55031)"
     gradientUnits="userSpaceOnUse"
     id="radialGradient3521"
     xlink:href="#linearGradient5443"
     inkscape:collect="always" /><radialGradient
     r="333.18735"
     fy="467.91885"
     fx="373.24265"
     cy="467.91885"
     cx="373.24265"
     gradientTransform="matrix(0.9201975,2.7970099e-7,-2.7059634e-7,0.8902438,-163.70313,61.921561)"
     gradientUnits="userSpaceOnUse"
     id="radialGradient3497"
     xlink:href="#linearGradient5443"
     inkscape:collect="always" /><linearGradient
     y2="254.73526"
     x2="123.47623"
     y1="344.03848"
     x1="123.50603"
     gradientTransform="matrix(2.3189708,0,0,2.0930998,-99.17808,-231.54972)"
     gradientUnits="userSpaceOnUse"
     id="linearGradient3495"
     xlink:href="#linearGradient3187"
     inkscape:collect="always" /><radialGradient
     r="333.18735"
     fy="710.99164"
     fx="373.24265"
     cy="710.99164"
     cx="373.24265"
     gradientTransform="matrix(0.9503534,1.1750652e-7,-5.6287062e-8,0.3462676,-174.95857,375.55031)"
     gradientUnits="userSpaceOnUse"
     id="radialGradient3493"
     xlink:href="#linearGradient5443"
     inkscape:collect="always" /><linearGradient
     id="linearGradient5443"><stop
       id="stop5445"
       offset="0"
       style="stop-color:#ffffff;stop-opacity:0;" /><stop
       id="stop5447"
       offset="1"
       style="stop-color:#000000;stop-opacity:0.33962265;" /></linearGradient><linearGradient
     id="linearGradient3157"><stop
       style="stop-color:#49bcff;stop-opacity:1;"
       offset="0"
       id="stop3159" /><stop
       style="stop-color:#494c96;stop-opacity:1;"
       offset="1"
       id="stop3161" /></linearGradient><linearGradient
     id="linearGradient3171"><stop
       id="stop3173"
       offset="0"
       style="stop-color:#49bcff;stop-opacity:1;" /><stop
       id="stop3175"
       offset="1"
       style="stop-color:#494cdc;stop-opacity:1;" /></linearGradient><linearGradient
     id="linearGradient3187"><stop
       style="stop-color:#ffffff;stop-opacity:0.39622641;"
       offset="0"
       id="stop3189" /><stop
       style="stop-color:#000000;stop-opacity:1;"
       offset="1"
       id="stop3191" /></linearGradient><linearGradient
     id="linearGradient4395"><stop
       style="stop-color:#110084;stop-opacity:1;"
       offset="0"
       id="stop4397" /><stop
       style="stop-color:#a695ff;stop-opacity:1;"
       offset="1"
       id="stop4399" /></linearGradient><linearGradient
     id="linearGradient4383"><stop
       style="stop-color:#00037f;stop-opacity:1;"
       offset="0"
       id="stop4385" /><stop
       style="stop-color:#00037f;stop-opacity:0;"
       offset="1"
       id="stop4387" /></linearGradient><inkscape:perspective
     sodipodi:type="inkscape:persp3d"
     inkscape:vp_x="0 : 526.18109 : 1"
     inkscape:vp_y="0 : 1000 : 0"
     inkscape:vp_z="744.09448 : 526.18109 : 1"
     inkscape:persp3d-origin="372.04724 : 350.78739 : 1"
     id="perspective3214" /><linearGradient
     inkscape:collect="always"
     xlink:href="#linearGradient4383"
     id="linearGradient4389"
     x1="371.42194"
     y1="298.59412"
     x2="396.91168"
     y2="655.4505"
     gradientUnits="userSpaceOnUse" /><linearGradient
     inkscape:collect="always"
     xlink:href="#linearGradient4395"
     id="linearGradient4401"
     x1="360.49777"
     y1="167.50403"
     x2="360.49777"
     y2="540.86719"
     gradientUnits="userSpaceOnUse" /><linearGradient
     inkscape:collect="always"
     xlink:href="#linearGradient3187"
     id="linearGradient4562"
     gradientUnits="userSpaceOnUse"
     gradientTransform="matrix(2.3189708,0,0,2.0930998,93.115298,-256.84999)"
     x1="123.50603"
     y1="344.03848"
     x2="123.47623"
     y2="254.73526" /><radialGradient
     inkscape:collect="always"
     xlink:href="#linearGradient3171"
     id="radialGradient4569"
     gradientUnits="userSpaceOnUse"
     gradientTransform="matrix(0.9201975,2.7970099e-7,-2.7059634e-7,0.8902438,28.590287,48.634335)"
     cx="373.24265"
     cy="467.91885"
     fx="373.24265"
     fy="467.91885"
     r="333.18735" /><radialGradient
     inkscape:collect="always"
     xlink:href="#linearGradient3157"
     id="radialGradient4572"
     gradientUnits="userSpaceOnUse"
     gradientTransform="matrix(0.9503534,1.1750652e-7,-5.6287062e-8,0.3462676,17.334826,362.44227)"
     cx="373.24265"
     cy="710.99164"
     fx="373.24265"
     fy="710.99164"
     r="333.18735" /><filter
     inkscape:collect="always"
     id="filter4659"
     color-interpolation-filters="sRGB"><feGaussianBlur
       inkscape:collect="always"
       stdDeviation="2.7750933"
       id="feGaussianBlur4661" /></filter><radialGradient
     inkscape:collect="always"
     xlink:href="#linearGradient3157"
     id="radialGradient4766"
     gradientUnits="userSpaceOnUse"
     gradientTransform="matrix(0.9503534,1.1750652e-7,-5.6287062e-8,0.3462676,17.334826,362.44227)"
     cx="373.24265"
     cy="710.99164"
     fx="373.24265"
     fy="710.99164"
     r="333.18735" /><radialGradient
     inkscape:collect="always"
     xlink:href="#linearGradient3171"
     id="radialGradient4768"
     gradientUnits="userSpaceOnUse"
     gradientTransform="matrix(0.9201975,2.7970099e-7,-2.7059634e-7,0.8902438,28.590287,48.634335)"
     cx="373.24265"
     cy="467.91885"
     fx="373.24265"
     fy="467.91885"
     r="333.18735" /><linearGradient
     inkscape:collect="always"
     xlink:href="#linearGradient3187"
     id="linearGradient4770"
     gradientUnits="userSpaceOnUse"
     gradientTransform="matrix(2.3189708,0,0,2.0930998,93.115298,-256.84999)"
     x1="123.50603"
     y1="344.03848"
     x2="123.47623"
     y2="254.73526" /><linearGradient
     inkscape:collect="always"
     xlink:href="#linearGradient3187"
     id="linearGradient4773"
     gradientUnits="userSpaceOnUse"
     gradientTransform="matrix(2.3189708,0,0,2.0930998,93.115298,-256.84999)"
     x1="123.50603"
     y1="344.03848"
     x2="123.47623"
     y2="254.73526" /><radialGradient
     inkscape:collect="always"
     xlink:href="#linearGradient3171"
     id="radialGradient4776"
     gradientUnits="userSpaceOnUse"
     gradientTransform="matrix(0.9201975,2.7970099e-7,-2.7059634e-7,0.8902438,28.590287,48.634335)"
     cx="373.24265"
     cy="467.91885"
     fx="373.24265"
     fy="467.91885"
     r="333.18735" /><radialGradient
     inkscape:collect="always"
     xlink:href="#linearGradient3157"
     id="radialGradient4779"
     gradientUnits="userSpaceOnUse"
     gradientTransform="matrix(0.9503534,1.1750652e-7,-5.6287062e-8,0.3462676,17.334826,362.44227)"
     cx="373.24265"
     cy="710.99164"
     fx="373.24265"
     fy="710.99164"
     r="333.18735" /><radialGradient
     inkscape:collect="always"
     xlink:href="#linearGradient3157"
     id="radialGradient4790"
     gradientUnits="userSpaceOnUse"
     gradientTransform="matrix(0.9503534,1.1750652e-7,-5.6287062e-8,0.3462676,17.334826,362.44227)"
     cx="373.24265"
     cy="710.99164"
     fx="373.24265"
     fy="710.99164"
     r="333.18735" /><radialGradient
     inkscape:collect="always"
     xlink:href="#linearGradient3171"
     id="radialGradient4792"
     gradientUnits="userSpaceOnUse"
     gradientTransform="matrix(0.9201975,2.7970099e-7,-2.7059634e-7,0.8902438,28.590287,48.634335)"
     cx="373.24265"
     cy="467.91885"
     fx="373.24265"
     fy="467.91885"
     r="333.18735" /><linearGradient
     inkscape:collect="always"
     xlink:href="#linearGradient3187"
     id="linearGradient4794"
     gradientUnits="userSpaceOnUse"
     gradientTransform="matrix(2.3189708,0,0,2.0930998,93.115298,-256.84999)"
     x1="123.50603"
     y1="344.03848"
     x2="123.47623"
     y2="254.73526" /><linearGradient
     inkscape:collect="always"
     xlink:href="#linearGradient3187"
     id="linearGradient4799"
     gradientUnits="userSpaceOnUse"
     gradientTransform="matrix(2.3189708,0,0,2.0930998,93.115298,-256.84999)"
     x1="123.50603"
     y1="344.03848"
     x2="123.47623"
     y2="254.73526" /><radialGradient
     inkscape:collect="always"
     xlink:href="#linearGradient3171"
     id="radialGradient4802"
     gradientUnits="userSpaceOnUse"
     gradientTransform="matrix(0.9201975,2.7970099e-7,-2.7059634e-7,0.8902438,28.590287,48.634335)"
     cx="373.24265"
     cy="467.91885"
     fx="373.24265"
     fy="467.91885"
     r="333.18735" /><radialGradient
     inkscape:collect="always"
     xlink:href="#linearGradient3157"
     id="radialGradient4805"
     gradientUnits="userSpaceOnUse"
     gradientTransform="matrix(0.9503534,1.1750652e-7,-5.6287062e-8,0.3462676,17.334826,362.44227)"
     cx="373.24265"
     cy="710.99164"
     fx="373.24265"
     fy="710.99164"
     r="333.18735" /><radialGradient
     inkscape:collect="always"
     xlink:href="#linearGradient3157"
     id="radialGradient4820"
     gradientUnits="userSpaceOnUse"
     gradientTransform="matrix(0.9503534,1.1750652e-7,-5.6287062e-8,0.3462676,17.334826,362.44227)"
     cx="373.24265"
     cy="710.99164"
     fx="373.24265"
     fy="710.99164"
     r="333.18735" /><radialGradient
     inkscape:collect="always"
     xlink:href="#linearGradient3171"
     id="radialGradient4822"
     gradientUnits="userSpaceOnUse"
     gradientTransform="matrix(0.9201975,2.7970099e-7,-2.7059634e-7,0.8902438,28.590287,48.634335)"
     cx="373.24265"
     cy="467.91885"
     fx="373.24265"
     fy="467.91885"
     r="333.18735" /><linearGradient
     inkscape:collect="always"
     xlink:href="#linearGradient3187"
     id="linearGradient4824"
     gradientUnits="userSpaceOnUse"
     gradientTransform="matrix(2.3189708,0,0,2.0930998,93.115298,-256.84999)"
     x1="123.50603"
     y1="344.03848"
     x2="123.47623"
     y2="254.73526" /><linearGradient
     inkscape:collect="always"
     xlink:href="#linearGradient3187"
     id="linearGradient4827"
     gradientUnits="userSpaceOnUse"
     gradientTransform="matrix(2.3189708,0,0,2.0930998,-99.17808,-231.54972)"
     x1="123.50603"
     y1="344.03848"
     x2="123.47623"
     y2="254.73526" /><radialGradient
     inkscape:collect="always"
     xlink:href="#linearGradient5443"
     id="radialGradient4832"
     gradientUnits="userSpaceOnUse"
     gradientTransform="matrix(0.9201975,2.7970099e-7,-2.7059634e-7,0.8902438,-163.70313,61.921561)"
     cx="373.24265"
     cy="467.91885"
     fx="373.24265"
     fy="467.91885"
     r="333.18735" /><radialGradient
     inkscape:collect="always"
     xlink:href="#linearGradient5443"
     id="radialGradient4835"
     gradientUnits="userSpaceOnUse"
     gradientTransform="matrix(0.9503534,1.1750652e-7,-5.6287062e-8,0.3462676,-174.95857,375.55031)"
     cx="373.24265"
     cy="710.99164"
     fx="373.24265"
     fy="710.99164"
     r="333.18735" /><filter
     inkscape:collect="always"
     id="filter5511"
     color-interpolation-filters="sRGB"><feGaussianBlur
       inkscape:collect="always"
       stdDeviation="3.2374974"
       id="feGaussianBlur5513" /></filter><radialGradient
     inkscape:collect="always"
     xlink:href="#linearGradient5443-5"
     id="radialGradient4835-3"
     gradientUnits="userSpaceOnUse"
     gradientTransform="matrix(0.9503534,1.1750652e-7,-5.6287062e-8,0.3462676,317.80591,185.68771)"
     cx="373.24265"
     cy="710.99164"
     fx="373.24265"
     fy="710.99164"
     r="333.18735" /><linearGradient
     id="linearGradient5443-5"><stop
       id="stop5445-4"
       offset="0"
       style="stop-color:#ffffff;stop-opacity:0;" /><stop
       id="stop5447-3"
       offset="1"
       style="stop-color:#000000;stop-opacity:0.33962265;" /></linearGradient><radialGradient
     inkscape:collect="always"
     xlink:href="#linearGradient5443"
     id="radialGradient3272"
     gradientUnits="userSpaceOnUse"
     gradientTransform="matrix(0.9503534,1.1750652e-7,-5.6287062e-8,0.3462676,-174.95857,375.55031)"
     cx="373.24265"
     cy="710.99164"
     fx="373.24265"
     fy="710.99164"
     r="333.18735" /><linearGradient
     inkscape:collect="always"
     xlink:href="#linearGradient3187"
     id="linearGradient3274"
     gradientUnits="userSpaceOnUse"
     gradientTransform="matrix(2.3189708,0,0,2.0930998,-99.17808,-231.54972)"
     x1="123.50603"
     y1="344.03848"
     x2="123.47623"
     y2="254.73526" /><radialGradient
     inkscape:collect="always"
     xlink:href="#linearGradient5443"
     id="radialGradient3276"
     gradientUnits="userSpaceOnUse"
     gradientTransform="matrix(0.9201975,2.7970099e-7,-2.7059634e-7,0.8902438,-163.70313,61.921561)"
     cx="373.24265"
     cy="467.91885"
     fx="373.24265"
     fy="467.91885"
     r="333.18735" /></defs><sodipodi:namedview
   pagecolor="#ffffff"
   bordercolor="#666666"
   borderopacity="1"
   objecttolerance="10"
   gridtolerance="10"
   guidetolerance="10"
   inkscape:pageopacity="0"
   inkscape:pageshadow="2"
   inkscape:window-width="1920"
   inkscape:window-height="1068"
   id="namedview15"
   showgrid="false"
   inkscape:zoom="0.84281414"
   inkscape:cx="69.563868"
   inkscape:cy="174"
   inkscape:window-x="0"
   inkscape:window-y="0"
   inkscape:window-maximized="1"
   inkscape:current-layer="_x31_"
   fit-margin-top="0"
   fit-margin-left="0"
   fit-margin-right="0"
   fit-margin-bottom="0" />



<g
   id="g3277"
   transform="matrix(0.99428571,0,0,0.99428571,-4.0293276e-6,3.5326419e-6)"><rect
     inkscape:export-ydpi="29.879425"
     inkscape:export-xdpi="29.879425"
     inkscape:export-filename="C:\Documents and Settings\adscro24\Desktop\128.png"
     style="opacity:0.61338286;fill:#464646;fill-opacity:0.78540775;stroke:none;filter:url(#filter4659)"
     id="rect3279"
     width="152.93848"
     height="152.93848"
     x="135.39355"
     y="48.636749"
     rx="16.067965"
     ry="12.45238"
     transform="matrix(2.1051501,0,0,2.1051501,-271.00298,-88.36689)" /><rect
     inkscape:export-ydpi="29.879425"
     inkscape:export-xdpi="29.879425"
     inkscape:export-filename="C:\Documents and Settings\adscro24\Desktop\128.png"
     style="opacity:0.61338286;fill:url(#radialGradient3092);fill-opacity:1;stroke:#000000;stroke-width:3.26806188;stroke-miterlimit:4;stroke-opacity:1;stroke-dasharray:none"
     id="rect3155"
     width="321.95847"
     height="321.95847"
     x="14.020748"
     y="14.020716"
     rx="33.825481"
     ry="26.21413" /><path
     transform="matrix(0.90779502,0,0,0.90779502,11.82035,-259.3651)"
     inkscape:export-ydpi="29.879425"
     inkscape:export-xdpi="29.879425"
     inkscape:export-filename="C:\Documents and Settings\adscro24\Desktop\128.png"
     inkscape:connector-curvature="0"
     style="opacity:0.61338286;fill:url(#linearGradient3734);fill-opacity:1;stroke:none;filter:url(#filter5511)"
     d="m 46.58172,323.34879 c -19.62748,0 -35.44272,12.0976 -35.44272,27.14163 l 0,124.30857 c 29.25482,11.38638 132.70149,11.89599 165.40488,-5.79022 33.32802,-18.02397 127.54379,-68.44264 171.82484,-52.72052 l 0,-65.79783 c 0,-15.04403 -15.7986,-27.14163 -35.4261,-27.14163 l -266.3609,0 z M 11.139,586.81982 l 0,42.88373 c 0,1.33144 0.14331,2.63588 0.38253,3.915 -0.11919,-12.81092 -0.25965,-28.88939 -0.38253,-46.79873 z"
     id="rect3177" /><rect
     inkscape:export-ydpi="29.879425"
     inkscape:export-xdpi="29.879425"
     inkscape:export-filename="C:\Documents and Settings\adscro24\Desktop\128.png"
     style="opacity:0.61338286;fill:url(#radialGradient3088);fill-opacity:1;stroke:#ffffff;stroke-width:0.68992418;stroke-linecap:square;stroke-miterlimit:4;stroke-opacity:1;stroke-dasharray:none"
     id="rect3473"
     width="306.12445"
     height="306.12445"
     x="21.937801"
     y="21.937769"
     rx="32.161926"
     ry="24.924913" /><rect
     inkscape:export-ydpi="29.879425"
     inkscape:export-xdpi="29.879425"
     inkscape:export-filename="C:\Documents and Settings\adscro24\Desktop\128.png"
     style="opacity:0.61338286;fill:#ffffff;fill-opacity:0;stroke:#000000;stroke-width:3.26806188;stroke-miterlimit:4;stroke-opacity:1;stroke-dasharray:none"
     id="rect3155-2"
     width="321.95847"
     height="321.95847"
     x="14.020748"
     y="14.020716"
     rx="33.825481"
     ry="26.21413" /><g
     transform="translate(400.39145,135.8211)"
     style="fill:#000000;fill-opacity:1;stroke:none"
     id="LWPOLYLINE_2_-2">
	
		
</g></g><g
   id="g2987"
   transform="matrix(0.50662475,0,0,0.50662475,18.972847,-26.370066)"><g
     style="fill:#000000;fill-opacity:1;stroke:none"
     id="LWPOLYLINE">
	
		<path
   id="path4"
   d="m 27.96875,203.0625 c -0.275,-0.006 -0.28125,384.875 -0.28125,384.875 l 0.875,0 0.59375,0 0.84375,0 0.90625,0 1.125,0 1.1875,0 1.28125,0 1.5,0 1.5,0 1.625,0 1.6875,0 1.8125,0 1.78125,0 1.90625,0 1.9375,0 1.9375,0 1.96875,0 1.96875,0 2,0 1.96875,0 1.9375,0 1.9375,0 1.84375,0 1.84375,0 1.78125,0 1.71875,0 1.59375,0 1.53125,0 1.4375,0 1.34375,0 1.1875,0 1.09375,0 0.9375,0 0.78125,0 0.625,0 0.75,0 c 0.092,-0.277 0.09375,-1.28125 0.09375,-1.28125 l 0,-1.46875 0,-2.03125 0,-2.59375 0,-3.03125 0,-3.5 0,-3.96875 0,-4.3125 0,-4.625 0,-4.96875 0,-5.34375 0,-5.53125 0,-5.71875 0,-5.96875 0,-6.09375 0,-6.25 0,-6.34375 0,-6.375 0,-6.4375 0,-6.46875 0,-6.34375 0,-6.34375 0,-6.28125 0,-6.0625 0,-6 0,-5.71875 0,-5.53125 0,-5.25 0,-5.0625 0,-4.59375 0,-4.34375 0,-3.90625 0,-3.5 0,-3.03125 0,-2.59375 0,-2.0625 0,-1.46875 0,-0.96875 c 0.461,-0.273 1,-0.28125 1,-0.28125 l 0.75,0 0.90625,0 1.125,0 1.28125,0 1.4375,0 1.5625,0 1.65625,0 1.84375,0 1.875,0 2.03125,0 2.0625,0 2.1875,0 2.1875,0 2.28125,0 2.28125,0 2.3125,0 2.34375,0 2.34375,0 2.3125,0 2.3125,0 2.25,0 2.21875,0 2.15625,0 2.0625,0 2.03125,0 1.90625,0 1.84375,0 1.65625,0 1.5625,0 1.4375,0 1.28125,0 1.09375,0 0.9375,0 0.71875,0 0.5625,0 c 0.461,0 5.46875,-0.0625 5.46875,-0.0625 l 4.90625,-0.0937 4.6875,-0.0937 4.59375,-0.1875 4.46875,-0.21875 4.34375,-0.21875 4.1875,-0.34375 4.0625,-0.34375 3.90625,-0.4375 3.8125,-0.40625 3.6875,-0.5 3.59375,-0.5625 3.46875,-0.53125 3.3125,-0.65625 3.28125,-0.65625 3.125,-0.6875 3,-0.71875 2.9375,-0.78125 2.8125,-0.84375 2.75,-0.875 2.625,-0.9375 2.53125,-0.90625 2.5,-0.96875 2.40625,-1.0625 2.28125,-1 2.21875,-1.125 2.15625,-1.125 2.09375,-1.15625 2,-1.21875 1.9375,-1.1875 1.84375,-1.28125 1.84375,-1.3125 1.75,-1.3125 1.71875,-1.34375 1.65625,-1.4375 1.625,-1.40625 1.5625,-1.4375 1.46875,-1.46875 1.46875,-1.53125 1.46875,-1.5625 1.53125,-1.5625 1.46875,-1.5625 1.46875,-1.625 1.375,-1.5625 1.40625,-1.65625 1.3125,-1.625 1.3125,-1.65625 L 269,369.375 l 1.21875,-1.65625 1.15625,-1.6875 1.09375,-1.71875 1.09375,-1.6875 1.03125,-1.75 1,-1.75 0.96875,-1.75 0.9375,-1.8125 0.875,-1.78125 0.8125,-1.8125 0.84375,-1.78125 0.71875,-1.84375 0.75,-1.84375 0.6875,-1.84375 0.65625,-1.90625 0.59375,-1.875 0.53125,-1.9375 0.5625,-1.875 0.5,-1.9375 0.4375,-1.9375 0.4375,-2 0.375,-1.96875 0.3125,-1.96875 0.34375,-2 0.28125,-2.03125 0.21875,-2.03125 0.1875,-2.0625 0.1875,-2.03125 0.0937,-2.0625 0.0937,-2.125 0.0312,-2.0625 0.0625,-2.125 0,-2.125 -0.0625,-2.09375 -0.0937,-2.125 -0.0937,-2.09375 -0.125,-2.0625 -0.1875,-2.125 -0.1875,-2.03125 -0.2187,-2.0625 -0.25,-2.0625 -0.3125,-2.03125 -0.3125,-2.03125 -0.375,-2.03125 -0.375,-1.96875 -0.46875,-2.03125 -0.4375,-1.96875 -0.53125,-2 -0.5,-1.9375 -0.59375,-1.90625 -0.59375,-1.9375 -0.65625,-1.9375 -0.6875,-1.90625 -0.71875,-1.875 -0.8125,-1.90625 -0.8125,-1.84375 -0.84375,-1.84375 -0.90625,-1.84375 -0.9375,-1.78125 -0.9375,-1.8125 -1.03125,-1.78125 -1.0625,-1.75 -1.15625,-1.75 -1.15625,-1.71875 -1.1875,-1.6875 -1.25,-1.71875 -1.28125,-1.65625 -1.34375,-1.65625 -1.375,-1.59375 -1.4375,-1.625 -1.46875,-1.59375 -1.5625,-1.59375 -1.84375,-2.0625 -1.875,-1.9375 -1.90625,-1.875 -1.9375,-1.8125 -1.96875,-1.6875 -2.03125,-1.625 -2.03125,-1.53125 -2.0625,-1.46875 -2.125,-1.34375 -2.125,-1.28125 -2.15625,-1.1875 -2.21875,-1.15625 -2.25,-1.0625 -2.3125,-1 -2.28125,-0.9375 -2.40625,-0.875 -2.40625,-0.78125 -2.4375,-0.71875 -2.46875,-0.6875 -2.53125,-0.65625 -2.53125,-0.5625 -2.625,-0.5 -2.6875,-0.5 -2.65625,-0.4375 -2.78125,-0.40625 -2.75,-0.3125 -2.875,-0.3125 -2.90625,-0.25 -2.875,-0.28125 -3,-0.15625 -3.03125,-0.1875 -3.09375,-0.15625 -3.125,-0.0937 -3.1875,-0.0937 -3.21875,-0.0937 -3.3125,-0.0312 -3.34375,-0.0625 -3.40625,-0.0312 -3.4375,0 -3.5,0 -0.9375,0 -1.15625,0 -1.5,0 -1.9375,0 -2.3125,0 -2.5625,0 -2.96875,0 -3.21875,0 -3.5,0 -3.6875,0 -3.96875,0 -4.125,0 -4.28125,0 -4.46875,0 -4.5625,0 -4.65625,0 -4.75,0 -4.78125,0 -4.8125,0 -4.78125,0 -4.78125,0 -4.75,0 -4.65625,0 -4.5625,0 -4.46875,0 -4.28125,0 -4.125,0 -3.96875,0 -3.6875,0 -3.5,0 -3.21875,0 -2.96875,0 -2.5625,0 -2.3125,0 -1.9375,0 -1.5,0 -1.125,0 -0.6875,0 z m 52.5625,43.375 0.5625,0 0.625,0 0.875,0 1.125,0 1.28125,0 1.53125,0 1.65625,0 1.875,0 1.96875,0 2.125,0 2.25,0 2.40625,0 2.4375,0 2.59375,0 2.625,0 2.65625,0 2.71875,0 2.71875,0 2.78125,0 2.75,0 2.71875,0 2.71875,0 2.65625,0 2.625,0 2.59375,0 2.4375,0 2.40625,0 2.25,0 2.125,0 1.96875,0 1.90625,0 1.65625,0 1.5,0 1.3125,0 1.09375,0 0.875,0 0.65625,0 0.53125,0 2.1875,0 2.1875,0 2.3125,0.0625 2.34375,0.0312 2.40625,0.0625 2.4375,0.0937 2.53125,0.0937 2.5,0.15625 2.5625,0.1875 2.53125,0.28125 2.59375,0.28125 2.5625,0.40625 2.59375,0.4375 2.5625,0.5 2.59375,0.59375 2.53125,0.6875 2.53125,0.78125 2.5,0.875 2.4375,0.96875 2.375,1.0625 2.375,1.1875 2.25,1.3125 2.21875,1.40625 2.15625,1.5625 2.0625,1.71875 2,1.84375 1.875,1.96875 1.75,2.1875 1.71875,2.28125 1.5625,2.4375 1.46875,2.625 1.28125,2.8125 1.1875,3 1.0625,3.1875 0.9375,3.34375 0.78125,3.59375 0.59375,3.78125 0.40625,3.96875 0.28125,4.1875 0.0937,4.40625 -0.0937,4.5625 -0.28125,4.34375 -0.5,4.15625 -0.65625,3.9375 -0.8125,3.75 -0.96875,3.5 -1.15625,3.34375 -1.28125,3.1875 -1.46875,3 -1.5625,2.8125 -1.75,2.65625 -1.84375,2.5 -1.9375,2.3125 -2.09375,2.15625 -2.1875,2.03125 -2.28125,1.875 -2.375,1.75 -2.5,1.625 -2.53125,1.5 -2.625,1.40625 -2.65625,1.21875 -2.78125,1.125 -2.75,1.0625 -2.875,0.90625 -2.90625,0.84375 -2.875,0.71875 -3,0.6875 -2.96875,0.5625 -2.96875,0.5 -3,0.46875 -3,0.3125 -3,0.34375 -2.96875,0.28125 -2.96875,0.15625 -2.9375,0.15625 -2.90625,0.125 -2.84375,0.0937 -2.875,0.0625 -2.75,0 -2.71875,0 -1.03125,0 -0.71875,0 -0.9375,0 -1.09375,0 -1.28125,0 -1.4375,0 -1.5625,0 -1.65625,0 -1.84375,0 -1.90625,0 -2,0 -2.09375,0 -2.15625,0 -2.21875,0 -2.25,0 -2.3125,0 -2.28125,0 -2.375,0 -2.34375,0 -2.28125,0 -2.3125,0 -2.25,0 -2.21875,0 -2.15625,0 -2.09375,0 -2.03125,0 -1.875,0 -1.84375,0 -1.65625,0 -1.5625,0 -1.4375,0 -1.28125,0 -1.125,0 -0.90625,0 -0.75,0 -0.53125,0 c -0.462,0.001 -0.46875,-126.40625 -0.46875,-126.40625 z"
   style="fill:#000000;fill-opacity:1;stroke:none"
   inkscape:connector-curvature="0" />
</g><g
     id="LWPOLYLINE_1_">
	
		
</g><g
     style="fill:#000000;fill-opacity:1;stroke:none"
     id="LWPOLYLINE_2_">
	
		<path
   id="polygon10"
   d="m 442.8125,195.5 -4.15625,0.0937 -4.15625,0.21875 -4.21875,0.40625 -4.15625,0.5625 -4.21875,0.75 -4.25,0.8125 -4.25,1.0625 -4.21875,1.15625 -4.15625,1.34375 -4.25,1.40625 -4.125,1.625 -4.0625,1.8125 -4.0625,1.875 -4.03125,2.03125 -3.96875,2.15625 -3.875,2.3125 -3.875,2.4375 -3.6875,2.59375 -3.6875,2.6875 -3.5,2.875 -3.5,2.9375 -3.3125,3.09375 -3.21875,3.21875 -3.125,3.3125 -2.9375,3.46875 -2.78125,3.59375 -2.75,3.6875 -2.5,3.8125 -2.40625,3.90625 -2.1875,4.03125 -2.03125,4.125 -1.84375,4.25 -1.65625,4.375 -1.375,4.46875 -1.3125,4.5625 -1,4.65625 -0.84375,4.71875 -0.625,4.90625 -0.375,4.90625 -0.0937,5.0625 0.0937,6.84375 0.375,6.65625 0.4375,6.46875 0.75,6.25 0.90625,6.09375 1.125,5.90625 1.28125,5.6875 1.375,5.53125 1.65625,5.34375 1.84375,5.15625 1.9375,4.96875 2.125,4.8125 2.3125,4.59375 2.375,4.46875 2.59375,4.25 2.75,4.09375 2.875,3.875 2.9375,3.71875 3.125,3.53125 3.25,3.4375 3.3125,3.15625 3.5,3.0625 3.5,2.84375 3.6875,2.65625 3.78125,2.5625 3.84375,2.34375 3.96875,2.15625 4.0625,2.03125 4.03125,1.84375 4.25,1.6875 4.25,1.53125 4.3125,1.34375 4.34375,1.1875 4.40625,1.0625 4.53125,0.84375 4.5,0.71875 4.625,0.5625 4.5,0.34375 4.6875,0.25 4.625,0.0937 2.3125,0 2.28125,-0.0937 2.3125,-0.0937 2.3125,-0.15625 2.375,-0.125 2.3125,-0.21875 2.40625,-0.28125 2.28125,-0.3125 2.40625,-0.375 2.40625,-0.4375 2.375,-0.5 2.40625,-0.5 2.375,-0.59375 2.3125,-0.6875 2.40625,-0.6875 2.40625,-0.78125 2.28125,-0.875 2.3125,-0.875 2.40625,-1.03125 2.28125,-1.0625 2.3125,-1.15625 2.21875,-1.1875 2.28125,-1.28125 2.21875,-1.34375 2.21875,-1.46875 2.125,-1.53125 2.1875,-1.65625 2.125,-1.6875 2.03125,-1.8125 2.03125,-1.875 2.03125,-2 1.9375,-2.0625 1.9375,-2.15625 1.9375,-2.3125 1.84375,-2.34375 1.75,-2.5 1.75,-2.5625 1.65625,-2.71875 1.65625,-2.8125 1.5625,-2.90625 0,8.375 -0.0937,8.125 -0.28125,7.875 -0.28125,7.625 -0.375,7.375 -0.4375,7.1875 -0.5625,6.875 -0.5625,6.71875 -0.71875,6.4375 -0.84375,6.1875 -0.90625,6 -1.03125,5.78125 -1.1875,5.53125 -1.1875,5.34375 -1.40625,5.0625 -1.375,4.875 -1.5625,4.625 -1.65625,4.40625 -1.75,4.25 -1.9375,3.96875 -1.9375,3.78125 -2.21875,3.59375 -2.1875,3.40625 -2.40625,3.125 -2.5,2.9375 -2.5625,2.78125 -2.78125,2.5625 -2.84375,2.3125 -3.03125,2.125 -3.125,2.03125 -3.25,1.75 -3.40625,1.5625 -3.59375,1.375 -3.6875,1.1875 -3.84375,0.9375 -3.96875,0.8125 -4.15625,0.65625 -4.3125,0.46875 -4.4375,0.28125 -4.59375,0.0625 -1.84375,0 -1.84375,-0.0625 -1.9375,-0.0937 -1.9375,-0.1875 -1.9375,-0.1875 -2.03125,-0.28125 -1.9375,-0.375 -2.03125,-0.375 -2,-0.4375 -1.9375,-0.46875 -2.03125,-0.5625 -1.9375,-0.625 -2.03125,-0.75 -1.9375,-0.75 -1.9375,-0.8125 -1.84375,-0.9375 -1.9375,-1 -1.75,-1 -1.84375,-1.21875 -1.75,-1.1875 -1.75,-1.28125 -1.65625,-1.5 -1.5625,-1.46875 -1.5625,-1.5625 -1.46875,-1.65625 -1.375,-1.75 -1.40625,-1.9375 -1.28125,-1.9375 -1.1875,-2.125 -1.125,-2.09375 -1,-2.3125 -0.90625,-2.40625 -0.84375,-2.46875 -0.75,-2.59375 -0.625,-2.75 -0.5625,-2.875 -0.46875,-2.9375 -0.25,-3.125 -0.1875,-3.15625 -0.0937,-3.40625 -58.40625,0 0.0937,1.21875 0.0937,1.1875 0.15625,1.1875 0.0937,1.3125 0.1875,1.1875 0.0937,1.375 0.1875,1.28125 0.0937,1.40625 0.1875,1.375 0.1875,1.46875 0.0937,1.375 0.1875,1.5 0.28125,1.46875 0.15625,1.5625 0.28125,1.46875 0.28125,1.5625 0.28125,1.5625 0.28125,1.65625 0.375,1.5625 0.34375,1.65625 0.375,1.59375 0.46875,1.65625 0.46875,1.65625 0.53125,1.65625 0.5625,1.75 0.5625,1.65625 0.625,1.65625 0.75,1.75 0.75,1.65625 0.71875,1.75 0.84375,1.75 0.90645,1.6562 0.9375,1.75 1,1.75 1.03125,1.65625 1.09375,1.75 1.1875,1.75 1.3125,1.65625 1.28125,1.75 1.375,1.65625 1,1.21875 1.125,1.09375 1.09375,1.1875 1.21875,1.3125 1.1875,1.1875 1.375,1.1875 1.375,1.28125 1.375,1.3125 1.5,1.28125 1.5625,1.1875 1.65625,1.3125 1.65625,1.28125 1.75,1.28125 1.84375,1.21875 1.9375,1.28125 1.9375,1.1875 2.03125,1.1875 2,1.21875 2.21875,1.1875 2.21875,1.1875 2.3125,1.125 2.375,1 2.40625,1.125 2.5625,1 2.59375,0.90625 2.65625,1.03125 2.6875,0.8125 2.84375,0.84375 2.875,0.8125 2.9375,0.75 3.03125,0.65625 3.15625,0.625 3.21875,0.5625 3.3125,0.46875 3.3125,0.4375 3.5,0.375 3.5,0.28125 3.59375,0.1875 3.6875,0.0937 3.78125,0.0937 9.03125,-0.1875 8.65625,-0.65625 8.28125,-1.09375 7.84375,-1.375 7.53125,-1.84375 7.28125,-2.125 6.8125,-2.5 6.5625,-2.84375 6.25,-3.125 5.90625,-3.5 5.625,-3.78125 5.34375,-4.0625 4.96875,-4.21875 4.6875,-4.625 4.53125,-4.78125 4.125,-4.96875 3.96875,-5.25 3.6875,-5.4375 3.40625,-5.53125 3.21875,-5.8125 2.96875,-5.875 2.75,-6.09375 2.5,-6.15625 2.28125,-6.28125 2.125,-6.34375 1.9375,-6.46875 1.75,-6.53125 1.5625,-6.625 1.375,-6.65625 1.3125,-6.625 1.09375,-6.625 0.9375,-6.625 0.71875,-6.71875 0.75,-6.59375 0.53125,-6.5625 0.375,-6.53125 0.375,-6.4375 0.1875,-6.375 0.0937,-6.25 0.0937,-6.125 -0.0937,-7.09375 -0.0937,-7.15625 -0.1875,-7.1875 -0.28125,-7.21875 -0.46875,-7.1875 -0.4375,-7.21875 -0.65625,-7.1875 -0.75,-7.1875 -0.90625,-7.09375 -1,-7.09375 -1.21875,-7.0625 -1.28125,-6.9375 -1.5625,-6.875 -1.65625,-6.78125 -1.84375,-6.65625 -2.03125,-6.5625 -2.3125,-6.375 -2.46875,-6.34375 -2.6875,-6.125 -2.84375,-5.9375 -3.125,-5.75 -3.34375,-5.625 -3.65625,-5.375 -3.78125,-5.15625 -4.15625,-5 -4.4375,-4.71875 -4.6875,-4.46875 -4.875,-4.1875 -5.25,-3.96875 -5.625,-3.6875 -5.8125,-3.375 -6.15625,-3.03125 -6.5625,-2.75 -6.8125,-2.46875 -7.1875,-2.0625 -7.53125,-1.6875 -7.84375,-1.40625 -8.28125,-0.96875 -8.5625,-0.59375 L 442.8125,195.5 z m 3.78125,41.5 2.75,0.0625 2.84375,0.15625 2.875,0.28125 2.75,0.375 2.875,0.46875 2.75,0.59375 2.75,0.6875 2.6875,0.78125 2.75,0.875 2.6875,1.03125 2.5625,1.09375 2.59375,1.1875 2.59375,1.34375 2.46875,1.375 2.5,1.53125 2.375,1.65625 2.40625,1.6875 2.21875,1.84375 2.28125,1.9375 2.125,2.03125 2.125,2.125 1.9375,2.25 1.9375,2.34375 1.9375,2.46875 1.75,2.5 1.65625,2.6875 1.5625,2.78125 1.46875,2.78125 1.46875,3 1.3125,3.03125 1.09375,3.15625 1.09375,3.25 1.03125,3.375 0.8125,3.4375 0.75,3.5625 0.5625,3.625 0.4375,3.78125 0.375,3.875 0.1875,3.96875 0.0937,4.0625 -0.0937,3.5 -0.0937,3.4375 -0.28125,3.375 -0.375,3.34375 L 520.75,337 l -0.5625,3.1875 -0.65625,3.125 -0.8125,3.09375 -0.84375,3 -0.90625,2.875 -1.125,2.875 -1.09375,2.8125 -1.1875,2.71875 -1.375,2.625 -1.40625,2.53125 -1.46875,2.46875 -1.5625,2.375 -1.75,2.28125 -1.75,2.25 -1.84375,2.125 -1.84375,2.03125 -2.03125,1.9375 -2.03125,1.875 -2.1875,1.75 -2.21875,1.71875 -2.3125,1.5625 -2.375,1.46875 -2.40625,1.375 -2.59375,1.3125 -2.5625,1.15625 -2.6875,1.03125 -2.65625,0.96875 -2.875,0.875 -2.84375,0.75 -2.9375,0.65625 -2.96875,0.5 -3.03125,0.40625 -3.125,0.3125 -3.125,0.1875 -3.25,0.0625 -3.125,-0.0625 -3.03125,-0.1875 -3.03125,-0.25 -2.96875,-0.4375 -2.9375,-0.4375 -2.84375,-0.65625 -2.875,-0.6875 -2.75,-0.84375 L 424,394.8125 l -2.65625,-1.03125 -2.6875,-1.125 -2.46875,-1.21875 -2.59375,-1.34375 -2.375,-1.40625 -2.40625,-1.5625 -2.3125,-1.625 -2.21875,-1.6875 -2.1875,-1.84375 -2.125,-1.90625 -2.03125,-2.03125 -1.9375,-2.0625 -1.84375,-2.21875 -1.75,-2.25 -1.75,-2.40625 -1.5625,-2.4375 -1.5625,-2.53125 -1.375,-2.625 -1.375,-2.71875 -1.21875,-2.8125 -1.1875,-2.84375 -1.03125,-3 -0.90625,-3.03125 L 379.59375,344 378.875,340.78125 378.21875,337.5 l -0.53125,-3.3125 -0.375,-3.46875 -0.28125,-3.5 -0.1875,-3.53125 -0.0937,-3.625 0,-3.40625 0.1875,-3.375 0.1875,-3.3125 0.375,-3.28125 0.34375,-3.21875 0.5625,-3.21875 0.5625,-3.15625 0.71875,-3.0625 0.75,-3.09375 0.84375,-3 1,-2.9375 1,-2.84375 1.125,-2.8125 1.1875,-2.78125 1.28125,-2.71875 1.40625,-2.5625 1.46875,-2.59375 1.5625,-2.4375 1.65625,-2.40625 1.75,-2.28125 1.75,-2.21875 1.9375,-2.15625 1.9375,-2.03125 2.09375,-1.9375 2.125,-1.90625 2.21875,-1.75 2.3125,-1.65625 2.375,-1.5 2.5,-1.4375 2.59375,-1.34375 2.65625,-1.21875 2.6875,-1.125 2.84375,-0.96875 2.84375,-0.875 2.96875,-0.75 3.03125,-0.59375 3.125,-0.4375 3.21875,-0.375 3.25,-0.1875 3.40625,-0.0937 z"
   style="fill:#000000;fill-opacity:1;stroke:none"
   inkscape:connector-curvature="0" />
</g><g
     id="LWPOLYLINE_3_">
	
		
</g></g>
</svg>