<?xml version="1.0" encoding="UTF-8" standalone="no"?>
<!-- Generator: Adobe Illustrator 16.0.1, SVG Export Plug-In . SVG Version: 6.00 Build 0)  -->

<svg
   xmlns:dc="http://purl.org/dc/elements/1.1/"
   xmlns:cc="http://creativecommons.org/ns#"
   xmlns:rdf="http://www.w3.org/1999/02/22-rdf-syntax-ns#"
   xmlns:svg="http://www.w3.org/2000/svg"
   xmlns="http://www.w3.org/2000/svg"
   xmlns:sodipodi="http://sodipodi.sourceforge.net/DTD/sodipodi-0.dtd"
   xmlns:inkscape="http://www.inkscape.org/namespaces/inkscape"
   version="1.0"
   id="_x31_"
   x="0px"
   y="0px"
   width="612px"
   height="792px"
   viewBox="0 0 612 792"
   enable-background="new 0 0 612 792"
   xml:space="preserve"
   inkscape:version="0.48.2 r9819"
   sodipodi:docname="7002.svg"><metadata
   id="metadata43"><rdf:RDF><cc:Work
       rdf:about=""><dc:format>image/svg+xml</dc:format><dc:type
         rdf:resource="http://purl.org/dc/dcmitype/StillImage" /></cc:Work></rdf:RDF></metadata><defs
   id="defs41" /><sodipodi:namedview
   pagecolor="#ffffff"
   bordercolor="#666666"
   borderopacity="1"
   objecttolerance="10"
   gridtolerance="10"
   guidetolerance="10"
   inkscape:pageopacity="0"
   inkscape:pageshadow="2"
   inkscape:window-width="1920"
   inkscape:window-height="1071"
   id="namedview39"
   showgrid="false"
   inkscape:zoom="0.84281414"
   inkscape:cx="84.962643"
   inkscape:cy="403.82761"
   inkscape:window-x="0"
   inkscape:window-y="0"
   inkscape:window-maximized="1"
   inkscape:current-layer="_x31_" />
<g
   id="LWPOLYLINE_5_"
   style="stroke:none;fill:#000000;fill-opacity:1">
	
		<path
   style="stroke:none;fill:#000000;fill-opacity:1"
   d="M 370.34375 547.59375 L 368.90625 547.6875 L 367.5625 547.75 L 366.1875 547.90625 L 364.9375 548.125 L 363.65625 548.34375 L 362.40625 548.59375 L 361.21875 548.90625 L 360.0625 549.28125 L 358.9375 549.65625 L 357.875 550.09375 L 356.8125 550.5625 L 355.8125 551.0625 L 354.84375 551.625 L 353.875 552.1875 L 353 552.8125 L 352.125 553.46875 L 351.3125 554.125 L 350.5 554.90625 L 349.75 555.65625 L 349.03125 556.4375 L 348.34375 557.28125 L 347.71875 558.15625 L 347.125 559.03125 L 346.5625 560 L 346 560.9375 L 345.53125 561.9375 L 345.03125 562.96875 L 344.65625 564.0625 L 344.25 565.125 L 343.875 566.28125 L 343.59375 567.4375 L 343.34375 568.625 L 343.09375 569.84375 L 342.90625 571.09375 L 342.6875 572.375 L 342.5625 573.6875 L 342.5 575 L 342.46875 576.375 L 342.40625 577.75 L 342.40625 578 L 342.40625 578.28125 L 342.40625 578.625 L 342.40625 579.125 L 342.40625 579.6875 L 342.40625 580.3125 L 342.40625 581 L 342.40625 581.78125 L 342.40625 582.625 L 342.40625 583.53125 L 342.40625 584.46875 L 342.40625 585.5 L 342.40625 586.53125 L 342.40625 587.59375 L 342.40625 588.6875 L 342.40625 589.84375 L 342.40625 590.9375 L 342.40625 592.09375 L 342.40625 593.25 L 342.40625 594.46875 L 342.40625 595.625 L 342.40625 596.71875 L 342.40625 597.875 L 342.40625 598.96875 L 342.40625 600.03125 L 342.40625 601.0625 L 342.40625 602.0625 L 342.40625 603.03125 L 342.40625 603.9375 L 342.40625 604.78125 L 342.40625 605.5625 L 342.40625 606.25 L 342.40625 606.875 L 342.40625 607.4375 L 342.40625 607.9375 L 342.40625 608.28125 L 342.40625 608.5625 L 342.40625 608.8125 L 342.46875 610.71875 L 342.5 612.59375 L 342.5625 614.40625 L 342.6875 616.1875 L 342.90625 617.84375 L 343.09375 619.53125 L 343.34375 621.125 L 343.59375 622.625 L 343.875 624.09375 L 344.25 625.53125 L 344.65625 626.9375 L 345.03125 628.25 L 345.53125 629.46875 L 346 630.71875 L 346.5625 631.875 L 347.125 633 L 347.71875 634.0625 L 348.34375 635.0625 L 349.03125 636.03125 L 349.75 636.9375 L 350.5 637.8125 L 351.3125 638.59375 L 352.125 639.375 L 353 640.125 L 353.875 640.75 L 354.84375 641.40625 L 355.8125 642 L 356.8125 642.5 L 357.875 643 L 358.9375 643.4375 L 360.0625 643.8125 L 361.21875 644.1875 L 362.40625 644.5 L 363.65625 644.78125 L 364.9375 644.96875 L 366.1875 645.1875 L 367.5625 645.34375 L 368.90625 645.40625 L 370.34375 645.5 L 371.78125 645.5 L 373.25 645.5 L 374.65625 645.40625 L 376.03125 645.34375 L 377.34375 645.1875 L 378.6875 644.96875 L 379.9375 644.78125 L 381.1875 644.5 L 382.375 644.1875 L 383.53125 643.8125 L 384.65625 643.4375 L 385.71875 643 L 386.75 642.5 L 387.78125 642 L 388.75 641.40625 L 389.71875 640.75 L 390.59375 640.125 L 391.46875 639.375 L 392.3125 638.59375 L 393.0625 637.8125 L 393.8125 636.9375 L 394.53125 636.03125 L 395.21875 635.0625 L 395.84375 634.0625 L 396.46875 633 L 397.03125 631.875 L 397.5625 630.71875 L 398.09375 629.46875 L 398.53125 628.25 L 398.96875 626.9375 L 399.34375 625.53125 L 399.65625 624.09375 L 400 622.625 L 400.28125 621.125 L 400.5 619.53125 L 400.71875 617.84375 L 400.875 616.1875 L 401.03125 614.40625 L 401.09375 612.59375 L 401.15625 610.71875 L 401.1875 608.8125 L 401.1875 608.5625 L 401.1875 608.28125 L 401.1875 607.9375 L 401.1875 607.4375 L 401.1875 606.875 L 401.1875 606.25 L 401.1875 605.5625 L 401.1875 604.78125 L 401.1875 603.9375 L 401.1875 603.03125 L 401.1875 602.0625 L 401.1875 601.0625 L 401.1875 600.03125 L 401.1875 598.96875 L 401.1875 597.875 L 401.1875 596.71875 L 401.1875 595.625 L 401.1875 594.46875 L 401.1875 593.25 L 401.1875 592.09375 L 401.1875 590.9375 L 401.1875 589.84375 L 401.1875 588.6875 L 401.1875 587.59375 L 401.1875 586.53125 L 401.1875 585.5 L 401.1875 584.46875 L 401.1875 583.53125 L 401.1875 582.625 L 401.1875 581.78125 L 401.1875 581 L 401.1875 580.3125 L 401.1875 579.6875 L 401.1875 579.125 L 401.1875 578.625 L 401.1875 578.28125 L 401.1875 578 L 401.1875 577.75 L 401.15625 576.375 L 401.09375 575 L 401.03125 573.6875 L 400.875 572.375 L 400.71875 571.09375 L 400.5 569.84375 L 400.28125 568.625 L 400 567.4375 L 399.65625 566.28125 L 399.34375 565.125 L 398.96875 564.0625 L 398.53125 562.96875 L 398.09375 561.9375 L 397.5625 560.9375 L 397.03125 560 L 396.46875 559.03125 L 395.84375 558.15625 L 395.21875 557.28125 L 394.53125 556.4375 L 393.8125 555.65625 L 393.0625 554.90625 L 392.3125 554.125 L 391.46875 553.46875 L 390.59375 552.8125 L 389.71875 552.1875 L 388.75 551.625 L 387.78125 551.0625 L 386.75 550.5625 L 385.71875 550.09375 L 384.65625 549.65625 L 383.53125 549.28125 L 382.375 548.90625 L 381.1875 548.59375 L 379.9375 548.34375 L 378.6875 548.125 L 377.34375 547.90625 L 376.03125 547.75 L 374.65625 547.6875 L 373.25 547.59375 L 371.78125 547.59375 L 370.34375 547.59375 z M 371.46875 557.375 L 371.78125 557.375 L 372.09375 557.375 L 372.46875 557.40625 L 372.84375 557.40625 L 373.25 557.40625 L 373.6875 557.4375 L 374.1875 557.46875 L 374.65625 557.5625 L 375.125 557.59375 L 375.65625 557.71875 L 376.21875 557.8125 L 376.71875 557.90625 L 377.28125 558.09375 L 377.875 558.25 L 378.4375 558.4375 L 379 558.6875 L 379.59375 558.90625 L 380.1875 559.1875 L 380.75 559.5 L 381.34375 559.84375 L 381.90625 560.21875 L 382.46875 560.625 L 383.03125 561.09375 L 383.53125 561.59375 L 384.09375 562.15625 L 384.59375 562.6875 L 385.09375 563.34375 L 385.5625 564.03125 L 386.03125 564.71875 L 386.46875 565.5 L 386.84375 566.3125 L 387.21875 567.21875 L 387.5625 568.125 L 387.84375 569.125 L 388.125 570.15625 L 388.375 571.28125 L 388.5625 572.46875 L 388.71875 573.6875 L 388.84375 574.96875 L 388.9375 576.3125 L 388.9375 577.75 L 388.9375 578 L 388.9375 578.28125 L 388.9375 578.6875 L 388.9375 579.15625 L 388.9375 579.71875 L 388.9375 580.34375 L 388.9375 581.0625 L 388.9375 581.875 L 388.9375 582.75 L 388.9375 583.65625 L 388.9375 584.65625 L 388.9375 585.6875 L 388.9375 586.71875 L 388.9375 587.84375 L 388.9375 589 L 388.9375 590.15625 L 388.9375 591.3125 L 388.9375 592.5 L 388.9375 593.6875 L 388.9375 594.90625 L 388.9375 596.0625 L 388.9375 597.25 L 388.9375 598.40625 L 388.9375 599.53125 L 388.9375 600.625 L 388.9375 601.71875 L 388.9375 602.75 L 388.9375 603.6875 L 388.9375 604.625 L 388.9375 605.5 L 388.9375 606.28125 L 388.9375 607 L 388.9375 607.6875 L 388.9375 608.25 L 388.9375 608.71875 L 388.9375 609.09375 L 388.9375 609.34375 L 388.9375 609.59375 L 388.9375 611.125 L 388.875 612.53125 L 388.84375 613.9375 L 388.75 615.28125 L 388.6875 616.5625 L 388.5625 617.8125 L 388.40625 619 L 388.25 620.15625 L 388.09375 621.21875 L 387.875 622.28125 L 387.65625 623.25 L 387.40625 624.21875 L 387.125 625.125 L 386.84375 626 L 386.53125 626.8125 L 386.21875 627.59375 L 385.84375 628.3125 L 385.46875 629.03125 L 385.0625 629.6875 L 384.65625 630.3125 L 384.21875 630.875 L 383.75 631.4375 L 383.28125 631.90625 L 382.78125 632.40625 L 382.21875 632.84375 L 381.71875 633.21875 L 381.15625 633.59375 L 380.5625 633.9375 L 379.90625 634.21875 L 379.3125 634.5 L 378.65625 634.75 L 377.96875 634.9375 L 377.28125 635.125 L 376.5625 635.3125 L 375.8125 635.40625 L 375.0625 635.53125 L 374.25 635.625 L 373.46875 635.65625 L 372.65625 635.6875 L 371.78125 635.6875 L 370.9375 635.6875 L 370.09375 635.65625 L 369.3125 635.625 L 368.5625 635.53125 L 367.78125 635.40625 L 367.03125 635.3125 L 366.3125 635.125 L 365.65625 634.9375 L 364.96875 634.75 L 364.28125 634.5 L 363.65625 634.21875 L 363.0625 633.9375 L 362.4375 633.59375 L 361.90625 633.21875 L 361.34375 632.84375 L 360.8125 632.40625 L 360.3125 631.90625 L 359.8125 631.4375 L 359.375 630.875 L 358.9375 630.3125 L 358.5 629.6875 L 358.09375 629.03125 L 357.75 628.3125 L 357.40625 627.59375 L 357.0625 626.8125 L 356.75 626 L 356.46875 625.125 L 356.1875 624.21875 L 355.96875 623.25 L 355.71875 622.28125 L 355.53125 621.21875 L 355.375 620.15625 L 355.1875 619 L 355.03125 617.8125 L 354.9375 616.5625 L 354.84375 615.3125 L 354.75 613.9375 L 354.6875 612.5625 L 354.6875 611.125 L 354.65625 609.59375 L 354.65625 609.34375 L 354.65625 609.09375 L 354.65625 608.71875 L 354.65625 608.25 L 354.65625 607.6875 L 354.65625 607 L 354.65625 606.28125 L 354.65625 605.5 L 354.65625 604.625 L 354.65625 603.6875 L 354.65625 602.75 L 354.65625 601.71875 L 354.65625 600.625 L 354.65625 599.53125 L 354.65625 598.40625 L 354.65625 597.25 L 354.65625 596.0625 L 354.65625 594.90625 L 354.65625 593.6875 L 354.65625 592.5 L 354.65625 591.3125 L 354.65625 590.15625 L 354.65625 589 L 354.65625 587.84375 L 354.65625 586.71875 L 354.65625 585.6875 L 354.65625 584.65625 L 354.65625 583.65625 L 354.65625 582.75 L 354.65625 581.875 L 354.65625 581.0625 L 354.65625 580.34375 L 354.65625 579.71875 L 354.65625 579.15625 L 354.65625 578.6875 L 354.65625 578.28125 L 354.65625 578 L 354.65625 577.75 L 354.6875 576.3125 L 354.75 574.96875 L 354.875 573.6875 L 355.03125 572.46875 L 355.25 571.28125 L 355.46875 570.15625 L 355.71875 569.125 L 356.03125 568.125 L 356.40625 567.21875 L 356.75 566.3125 L 357.15625 565.5 L 357.59375 564.71875 L 358.03125 564.03125 L 358.5 563.34375 L 359 562.6875 L 359.5 562.15625 L 360.03125 561.59375 L 360.59375 561.09375 L 361.125 560.625 L 361.6875 560.21875 L 362.25 559.84375 L 362.84375 559.5 L 363.40625 559.1875 L 364 558.90625 L 364.5625 558.6875 L 365.15625 558.4375 L 365.71875 558.25 L 366.28125 558.09375 L 366.84375 557.90625 L 367.40625 557.8125 L 367.90625 557.71875 L 368.4375 557.59375 L 368.96875 557.5625 L 369.4375 557.46875 L 369.90625 557.4375 L 370.3125 557.40625 L 370.75 557.40625 L 371.09375 557.40625 L 371.46875 557.375 z "
   id="path19" />
</g><g
   id="LWPOLYLINE_1_"
   style="stroke:none;fill:#000000;fill-opacity:1">
	
		<path
   style="stroke:none;fill:#000000;fill-opacity:1"
   d="M 141.65625 549.21875 L 141.65625 643.875 L 141.96875 643.875 L 142.375 643.875 L 142.59375 643.875 L 142.84375 643.875 L 143.125 643.875 L 143.46875 643.875 L 143.78125 643.875 L 144.125 643.875 L 144.5 643.875 L 144.875 643.875 L 145.28125 643.875 L 145.6875 643.875 L 146.09375 643.875 L 146.53125 643.875 L 146.9375 643.875 L 147.375 643.875 L 147.78125 643.875 L 148.21875 643.875 L 148.65625 643.875 L 149.0625 643.875 L 149.46875 643.875 L 149.875 643.875 L 150.25 643.875 L 150.625 643.875 L 150.96875 643.875 L 151.3125 643.875 L 151.625 643.875 L 151.90625 643.875 L 152.15625 643.875 L 152.40625 643.875 L 152.75 643.875 L 153 643.875 C 153.1 643.797 153.09375 643.5625 153.09375 643.5625 L 153.09375 643.1875 L 153.09375 642.65625 L 153.09375 642.03125 L 153.09375 641.25 L 153.09375 640.34375 L 153.09375 639.375 L 153.09375 638.28125 L 153.09375 637.125 L 153.09375 635.84375 L 153.09375 634.53125 L 153.09375 633.15625 L 153.09375 631.6875 L 153.09375 630.1875 L 153.09375 628.65625 L 153.09375 627.09375 L 153.09375 625.5 L 153.09375 623.875 L 153.09375 622.21875 L 153.09375 620.625 L 153.09375 619 L 153.09375 617.40625 L 153.09375 615.84375 L 153.09375 614.3125 L 153.09375 612.8125 L 153.09375 611.34375 L 153.09375 609.96875 L 153.09375 608.65625 L 153.09375 607.375 L 153.09375 606.21875 L 153.09375 605.125 L 153.09375 604.125 L 153.09375 603.25 L 153.09375 602.46875 L 153.09375 601.8125 L 153.09375 601.3125 L 153.09375 600.9375 L 153.09375 600.71875 C 153.19375 600.63875 153.3125 600.625 153.3125 600.625 L 153.65625 600.625 L 153.9375 600.625 L 154.21875 600.625 L 154.53125 600.625 L 154.875 600.625 L 155.25 600.625 L 155.65625 600.625 L 156.09375 600.625 L 156.53125 600.625 L 157 600.625 L 157.46875 600.625 L 157.96875 600.625 L 158.46875 600.625 L 159 600.625 L 159.5 600.625 L 160.03125 600.625 L 160.53125 600.625 L 161.0625 600.625 L 161.5625 600.625 L 162.09375 600.625 L 162.59375 600.625 L 163.0625 600.625 L 163.53125 600.625 L 163.96875 600.625 L 164.40625 600.625 L 164.78125 600.625 L 165.15625 600.625 L 165.5 600.625 L 165.8125 600.625 L 166.125 600.625 L 166.375 600.625 L 166.5625 600.625 L 166.875 600.625 L 167.28125 600.625 L 167.59375 600.625 L 167.96875 600.625 L 168.3125 600.625 L 168.6875 600.625 L 169.0625 600.6875 L 169.46875 600.6875 L 169.875 600.71875 L 170.3125 600.75 L 170.71875 600.78125 L 171.15625 600.875 L 171.59375 600.9375 L 172.03125 601.03125 L 172.46875 601.125 L 172.90625 601.21875 L 173.375 601.34375 L 173.8125 601.5 L 174.25 601.65625 L 174.6875 601.8125 L 175.09375 602.0625 L 175.53125 602.25 L 175.96875 602.5 L 176.375 602.78125 L 176.75 603.09375 L 177.15625 603.40625 L 177.53125 603.78125 L 177.90625 604.125 L 178.21875 604.53125 L 178.5625 604.96875 L 178.875 605.4375 L 179.1875 605.9375 L 179.46875 606.5 L 179.71875 607.03125 L 179.9375 607.65625 L 180.15625 608.28125 L 180.34375 608.96875 L 180.5 609.6875 L 180.65625 610.4375 L 180.75 611.21875 L 180.8125 612.03125 L 180.875 612.96875 L 180.9375 613.90625 L 180.96875 614.8125 L 181.03125 615.71875 L 181.0625 616.59375 L 181.09375 617.53125 L 181.15625 618.4375 L 181.15625 619.34375 L 181.1875 620.25 L 181.21875 621.15625 L 181.25 622.03125 L 181.28125 622.9375 L 181.3125 623.8125 L 181.3125 624.6875 L 181.375 625.5625 L 181.375 626.40625 L 181.4375 627.28125 L 181.46875 628.125 L 181.5 628.96875 L 181.53125 629.8125 L 181.59375 630.625 L 181.65625 631.4375 L 181.71875 632.21875 L 181.75 633.03125 L 181.84375 633.78125 L 181.9375 634.59375 L 182 635.34375 L 182.09375 636.0625 L 182.1875 636.8125 L 182.3125 637.53125 L 182.4375 638.25 L 182.59375 638.9375 L 182.71875 639.59375 L 182.875 640.25 L 183.0625 640.90625 L 183.25 641.53125 L 183.40625 642.15625 L 183.625 642.75 L 183.84375 643.3125 L 184.09375 643.875 L 184.28125 643.875 L 184.65625 643.875 L 184.90625 643.875 L 185.15625 643.875 L 185.4375 643.875 L 185.78125 643.875 L 186.125 643.875 L 186.5 643.875 L 186.9375 643.875 L 187.34375 643.875 L 187.78125 643.875 L 188.21875 643.875 L 188.6875 643.875 L 189.15625 643.875 L 189.65625 643.875 L 190.125 643.875 L 190.625 643.875 L 191.125 643.875 L 191.625 643.875 L 192.09375 643.875 L 192.5625 643.875 L 193.03125 643.875 L 193.46875 643.875 L 193.90625 643.875 L 194.34375 643.875 L 194.75 643.875 L 195.125 643.875 L 195.46875 643.875 L 195.78125 643.875 L 196.09375 643.875 L 196.375 643.875 L 196.59375 643.875 L 196.9375 643.875 L 197.15625 643.875 L 196.96875 643.40625 L 196.8125 642.84375 L 196.625 642.28125 L 196.46875 641.6875 L 196.3125 641.09375 L 196.15625 640.4375 L 196 639.8125 L 195.875 639.125 L 195.71875 638.4375 L 195.625 637.71875 L 195.5 637 L 195.375 636.28125 L 195.25 635.5625 L 195.15625 634.8125 L 195.0625 634.0625 L 194.96875 633.3125 L 194.84375 632.59375 L 194.78125 631.84375 L 194.6875 631.0625 L 194.59375 630.3125 L 194.53125 629.5625 L 194.46875 628.8125 L 194.40625 628.09375 L 194.34375 627.375 L 194.28125 626.65625 L 194.21875 625.96875 L 194.1875 625.25 L 194.125 624.625 L 194.09375 623.9375 L 194.0625 623.34375 L 194 622.75 L 194 622.15625 L 193.96875 621.59375 L 193.9375 621.0625 L 193.9375 620.5625 L 193.90625 620.125 L 193.90625 619.6875 L 193.90625 619.28125 L 193.90625 618.875 L 193.90625 618.5625 L 193.8125 617.21875 L 193.75 615.90625 L 193.65625 614.625 L 193.53125 613.375 L 193.40625 612.21875 L 193.3125 611.125 L 193.125 610.0625 L 192.96875 609.03125 L 192.8125 608.09375 L 192.625 607.15625 L 192.40625 606.28125 L 192.1875 605.5 L 191.9375 604.6875 L 191.6875 603.9375 L 191.4375 603.21875 L 191.125 602.53125 L 190.8125 601.90625 L 190.5 601.3125 L 190.15625 600.75 L 189.8125 600.21875 L 189.4375 599.71875 L 189.03125 599.21875 L 188.625 598.78125 L 188.1875 598.34375 L 187.75 597.96875 L 187.25 597.59375 L 186.75 597.25 L 186.25 596.9375 L 185.71875 596.59375 L 185.15625 596.3125 L 184.59375 596.0625 L 184 595.78125 L 183.375 595.53125 L 182.71875 595.28125 L 182.0625 595.09375 L 181.375 594.84375 L 180.6875 594.65625 L 179.9375 594.46875 L 179.1875 594.3125 L 178.375 594.09375 L 179.1875 593.96875 L 179.96875 593.78125 L 180.71875 593.625 L 181.4375 593.375 L 182.15625 593.15625 L 182.875 592.90625 L 183.5625 592.59375 L 184.25 592.28125 L 184.90625 591.9375 L 185.53125 591.59375 L 186.1875 591.1875 L 186.78125 590.78125 L 187.34375 590.40625 L 187.9375 589.90625 L 188.46875 589.46875 L 189 589 L 189.53125 588.46875 L 190 587.96875 L 190.46875 587.40625 L 190.9375 586.84375 L 191.375 586.28125 L 191.78125 585.6875 L 192.1875 585.09375 L 192.5625 584.46875 L 192.90625 583.8125 L 193.21875 583.1875 L 193.53125 582.5 L 193.8125 581.8125 L 194.09375 581.15625 L 194.34375 580.4375 L 194.5625 579.71875 L 194.75 579 L 194.9375 578.28125 L 195.09375 577.53125 L 195.21875 576.75 L 195.34375 576 L 195.40625 575.25 L 195.46875 574.4375 L 195.53125 573.65625 L 195.53125 572.84375 L 195.53125 571.9375 L 195.46875 571.0625 L 195.40625 570.15625 L 195.34375 569.21875 L 195.25 568.34375 L 195.125 567.46875 L 194.96875 566.5625 L 194.8125 565.71875 L 194.59375 564.84375 L 194.375 564 L 194.125 563.1875 L 193.84375 562.375 L 193.53125 561.59375 L 193.21875 560.78125 L 192.875 560.03125 L 192.46875 559.28125 L 192.0625 558.5 L 191.625 557.78125 L 191.125 557.125 L 190.625 556.4375 L 190.09375 555.8125 L 189.53125 555.15625 L 188.90625 554.5625 L 188.3125 554 L 187.625 553.4375 L 186.9375 552.96875 L 186.21875 552.4375 L 185.46875 552 L 184.65625 551.5625 L 183.8125 551.1875 L 182.9375 550.8125 L 182.0625 550.5 L 181.125 550.1875 L 180.125 549.9375 L 179.125 549.71875 L 178.09375 549.53125 L 177 549.375 L 175.84375 549.3125 L 174.6875 549.21875 L 173.5 549.21875 L 173.25 549.21875 L 172.96875 549.21875 L 172.59375 549.21875 L 172.125 549.21875 L 171.53125 549.21875 L 170.90625 549.21875 L 170.15625 549.21875 L 169.375 549.21875 L 168.53125 549.21875 L 167.59375 549.21875 L 166.59375 549.21875 L 165.59375 549.21875 L 164.5 549.21875 L 163.40625 549.21875 L 162.28125 549.21875 L 161.125 549.21875 L 159.9375 549.21875 L 158.78125 549.21875 L 157.59375 549.21875 L 156.375 549.21875 L 155.1875 549.21875 L 154 549.21875 L 152.84375 549.21875 L 151.75 549.21875 L 150.625 549.21875 L 149.5625 549.21875 L 148.53125 549.21875 L 147.5625 549.21875 L 146.65625 549.21875 L 145.75 549.21875 L 144.96875 549.21875 L 144.25 549.21875 L 143.59375 549.21875 L 143.03125 549.21875 L 142.5625 549.21875 L 142.1875 549.21875 L 141.90625 549.21875 L 141.65625 549.21875 z M 153.09375 559.84375 L 153.375 559.84375 L 153.59375 559.84375 L 153.84375 559.84375 L 154.1875 559.84375 L 154.5625 559.84375 L 154.9375 559.84375 L 155.40625 559.84375 L 155.875 559.84375 L 156.40625 559.84375 L 156.96875 559.84375 L 157.53125 559.84375 L 158.15625 559.84375 L 158.78125 559.84375 L 159.40625 559.84375 L 160.0625 559.84375 L 160.71875 559.84375 L 161.375 559.84375 L 162.0625 559.84375 L 162.75 559.84375 L 163.40625 559.84375 L 164.09375 559.84375 L 164.71875 559.84375 L 165.375 559.84375 L 166 559.84375 L 166.59375 559.84375 L 167.15625 559.84375 L 167.71875 559.84375 L 168.25 559.84375 L 168.71875 559.84375 L 169.1875 559.84375 L 169.59375 559.84375 L 169.96875 559.84375 L 170.28125 559.84375 L 170.53125 559.84375 L 170.75 559.84375 L 171 559.84375 L 171.71875 559.84375 L 172.34375 559.875 L 172.96875 559.9375 L 173.5625 560.03125 L 174.15625 560.15625 L 174.6875 560.3125 L 175.25 560.46875 L 175.78125 560.625 L 176.28125 560.8125 L 176.75 561.0625 L 177.21875 561.3125 L 177.65625 561.59375 L 178.0625 561.84375 L 178.5 562.1875 L 178.875 562.5 L 179.25 562.8125 L 179.59375 563.1875 L 179.9375 563.53125 L 180.25 563.9375 L 180.53125 564.28125 L 180.8125 564.71875 L 181.0625 565.125 L 181.34375 565.5625 L 181.5625 566 L 181.78125 566.4375 L 182 566.875 L 182.1875 567.34375 L 182.34375 567.78125 L 182.5 568.28125 L 182.625 568.75 L 182.78125 569.28125 L 182.875 569.75 L 182.96875 570.21875 L 183.0625 570.75 L 183.125 571.21875 L 183.1875 571.6875 L 183.21875 572.21875 L 183.28125 572.6875 L 183.28125 573.21875 L 183.28125 573.6875 L 183.28125 574.375 L 183.28125 575 L 183.21875 575.6875 L 183.1875 576.3125 L 183.09375 576.96875 L 183 577.59375 L 182.90625 578.25 L 182.78125 578.84375 L 182.6875 579.4375 L 182.53125 580.03125 L 182.375 580.625 L 182.1875 581.1875 L 182 581.75 L 181.8125 582.28125 L 181.5625 582.8125 L 181.34375 583.3125 L 181.09375 583.8125 L 180.8125 584.3125 L 180.53125 584.78125 L 180.21875 585.21875 L 179.9375 585.65625 L 179.59375 586.09375 L 179.25 586.5 L 178.875 586.84375 L 178.5 587.21875 L 178.125 587.5625 L 177.71875 587.875 L 177.28125 588.21875 L 176.84375 588.46875 L 176.40625 588.71875 L 175.9375 588.96875 L 175.46875 589.1875 L 174.96875 589.34375 L 174.4375 589.5625 L 173.9375 589.6875 L 173.375 589.78125 L 172.8125 589.875 L 172.25 589.96875 L 171.65625 590 L 171.0625 590.03125 L 170.75 590.03125 L 170.53125 590.03125 L 170.28125 590.03125 L 169.96875 590.03125 L 169.59375 590.03125 L 169.1875 590.03125 L 168.71875 590.03125 L 168.25 590.03125 L 167.71875 590.03125 L 167.15625 590.03125 L 166.59375 590.03125 L 166 590.03125 L 165.375 590.03125 L 164.71875 590.03125 L 164.09375 590.03125 L 163.40625 590.03125 L 162.75 590.03125 L 162.0625 590.03125 L 161.40625 590.03125 L 160.71875 590.03125 L 160.0625 590.03125 L 159.40625 590.03125 L 158.78125 590.03125 L 158.15625 590.03125 L 157.53125 590.03125 L 156.96875 590.03125 L 156.40625 590.03125 L 155.875 590.03125 L 155.40625 590.03125 L 154.96875 590.03125 L 154.5625 590.03125 L 154.1875 590.03125 L 153.84375 590.03125 L 153.59375 590.03125 L 153.375 590.03125 L 153.125 590.03125 C 153.103 590.02925 153.09375 559.84375 153.09375 559.84375 z "
   id="path7" />
</g><g
   id="LWPOLYLINE_4_"
   style="stroke:none;fill:#000000;fill-opacity:1">
	
		<path
   style="stroke:none;fill:#000000;fill-opacity:1"
   d="M 274.0625 549.21875 C 273.8825 549.37775 273.875 549.90625 273.875 549.90625 L 273.875 550.75 L 273.875 551.84375 L 273.875 553.28125 L 273.875 554.96875 L 273.875 556.875 L 273.875 559.0625 L 273.875 561.4375 L 273.875 564 L 273.875 566.75 L 273.875 569.65625 L 273.875 572.6875 L 273.875 575.875 L 273.875 579.15625 L 273.875 582.53125 L 273.875 585.96875 L 273.875 589.46875 L 273.875 592.96875 L 273.875 596.53125 L 273.875 600.0625 L 273.875 603.625 L 273.875 607.125 L 273.875 610.5625 L 273.875 613.9375 L 273.875 617.21875 L 273.875 620.40625 L 273.875 623.4375 L 273.875 626.34375 L 273.875 629.09375 L 273.875 631.6875 L 273.875 634.03125 L 273.875 636.1875 L 273.875 638.125 L 273.875 639.8125 L 273.875 641.25 L 273.875 642.34375 L 273.875 643.1875 L 273.875 643.71875 C 273.871 643.87475 285.28125 643.875 285.28125 643.875 L 285.28125 643.59375 L 285.28125 643.1875 L 285.28125 642.71875 L 285.28125 642.0625 L 285.28125 641.34375 L 285.28125 640.46875 L 285.28125 639.5625 L 285.28125 638.5 L 285.28125 637.375 L 285.28125 636.1875 L 285.28125 634.90625 L 285.28125 633.53125 L 285.28125 632.15625 L 285.28125 630.71875 L 285.28125 629.25 L 285.28125 627.71875 L 285.28125 626.1875 L 285.28125 624.625 L 285.28125 623.0625 L 285.28125 621.5 L 285.28125 619.96875 L 285.28125 618.40625 L 285.28125 616.875 L 285.28125 615.40625 L 285.28125 613.96875 L 285.28125 612.59375 L 285.28125 611.21875 L 285.28125 609.9375 L 285.28125 608.75 L 285.28125 607.65625 L 285.28125 606.5625 L 285.28125 605.65625 L 285.28125 604.78125 L 285.28125 604.0625 L 285.28125 603.40625 L 285.28125 602.90625 L 285.28125 602.53125 L 285.28125 602.34375 C 285.40125 602.26375 285.5625 602.25 285.5625 602.25 L 285.9375 602.25 L 286.21875 602.25 L 286.53125 602.25 L 286.90625 602.25 L 287.3125 602.25 L 287.6875 602.25 L 288.1875 602.25 L 288.65625 602.25 L 289.125 602.25 L 289.65625 602.25 L 290.21875 602.25 L 290.71875 602.25 L 291.34375 602.25 L 291.875 602.25 L 292.5 602.25 L 293.03125 602.25 L 293.65625 602.25 L 294.1875 602.25 L 294.8125 602.25 L 295.34375 602.25 L 295.90625 602.25 L 296.4375 602.25 L 296.9375 602.25 L 297.46875 602.25 L 297.9375 602.25 L 298.375 602.25 L 298.78125 602.25 L 299.1875 602.25 L 299.53125 602.25 L 299.84375 602.25 L 300.125 602.25 L 300.375 602.25 L 300.6875 602.25 C 300.8065 602.25 301.53125 602.21875 301.53125 602.21875 L 302.34375 602.21875 L 303.09375 602.1875 L 303.9375 602.09375 L 304.71875 601.96875 L 305.5625 601.875 L 306.4375 601.75 L 307.28125 601.59375 L 308.15625 601.375 L 309.03125 601.15625 L 309.90625 600.90625 L 310.78125 600.625 L 311.625 600.3125 L 312.5 599.96875 L 313.375 599.59375 L 314.25 599.15625 L 315.09375 598.71875 L 315.90625 598.25 L 316.71875 597.71875 L 317.5 597.15625 L 318.3125 596.5625 L 319.0625 595.9375 L 319.8125 595.21875 L 320.53125 594.5 L 321.21875 593.75 L 321.90625 592.90625 L 322.53125 592.0625 L 323.125 591.15625 L 323.6875 590.1875 L 324.21875 589.15625 L 324.6875 588.125 L 325.125 587 L 325.53125 585.84375 L 325.875 584.625 L 326.1875 583.34375 L 326.4375 582.03125 L 326.625 580.625 L 326.8125 579.1875 L 326.875 577.71875 L 326.90625 576.125 L 326.875 574.53125 L 326.8125 572.96875 L 326.6875 571.46875 L 326.53125 570.03125 L 326.28125 568.65625 L 326.03125 567.34375 L 325.71875 566.09375 L 325.375 564.875 L 325 563.71875 L 324.5625 562.625 L 324.09375 561.59375 L 323.5625 560.625 L 323.0625 559.65625 L 322.5 558.78125 L 321.90625 557.96875 L 321.25 557.15625 L 320.59375 556.40625 L 319.90625 555.6875 L 319.1875 555.03125 L 318.46875 554.40625 L 317.65625 553.84375 L 316.90625 553.28125 L 316.125 552.8125 L 315.28125 552.34375 L 314.4375 551.9375 L 313.59375 551.53125 L 312.71875 551.1875 L 311.84375 550.875 L 310.9375 550.59375 L 310.0625 550.3125 L 309.15625 550.09375 L 308.21875 549.90625 L 307.3125 549.71875 L 306.34375 549.59375 L 305.4375 549.46875 L 304.53125 549.375 L 303.5625 549.3125 L 302.65625 549.21875 L 301.71875 549.21875 L 300.8125 549.21875 L 300.375 549.21875 L 300.0625 549.21875 L 299.65625 549.21875 L 299.1875 549.21875 L 298.625 549.21875 L 298 549.21875 L 297.3125 549.21875 L 296.59375 549.21875 L 295.78125 549.21875 L 295 549.21875 L 294.125 549.21875 L 293.21875 549.21875 L 292.28125 549.21875 L 291.34375 549.21875 L 290.34375 549.21875 L 289.34375 549.21875 L 288.34375 549.21875 L 287.34375 549.21875 L 286.3125 549.21875 L 285.3125 549.21875 L 284.3125 549.21875 L 283.34375 549.21875 L 282.375 549.21875 L 281.4375 549.21875 L 280.5625 549.21875 L 279.6875 549.21875 L 278.84375 549.21875 L 278.09375 549.21875 L 277.34375 549.21875 L 276.65625 549.21875 L 276.0625 549.21875 L 275.5 549.21875 L 275.03125 549.21875 L 274.625 549.21875 L 274.3125 549.21875 L 274.0625 549.21875 z M 285.28125 559.84375 L 285.5625 559.84375 L 286 559.84375 L 286.28125 559.84375 L 286.625 559.84375 L 286.96875 559.84375 L 287.375 559.84375 L 287.875 559.84375 L 288.3125 559.84375 L 288.8125 559.84375 L 289.34375 559.84375 L 289.90625 559.84375 L 290.4375 559.84375 L 291.0625 559.84375 L 291.65625 559.84375 L 292.25 559.84375 L 292.84375 559.84375 L 293.4375 559.84375 L 294.09375 559.84375 L 294.6875 559.84375 L 295.28125 559.84375 L 295.875 559.84375 L 296.46875 559.84375 L 297.03125 559.84375 L 297.5625 559.84375 L 298.09375 559.84375 L 298.59375 559.84375 L 299.0625 559.84375 L 299.5 559.84375 L 299.9375 559.84375 L 300.3125 559.84375 L 300.625 559.84375 L 300.9375 559.84375 L 301.1875 559.84375 L 301.5 559.84375 L 301.8125 559.84375 L 302.0625 559.84375 L 302.28125 559.875 L 302.5625 559.875 L 302.875 559.90625 L 303.21875 559.9375 L 303.5625 560.03125 L 303.90625 560.09375 L 304.28125 560.1875 L 304.6875 560.3125 L 305.0625 560.4375 L 305.5 560.53125 L 305.9375 560.71875 L 306.375 560.875 L 306.8125 561.0625 L 307.25 561.25 L 307.6875 561.5 L 308.1875 561.78125 L 308.625 562.0625 L 309.0625 562.375 L 309.5 562.6875 L 309.9375 563.0625 L 310.375 563.4375 L 310.78125 563.875 L 311.15625 564.3125 L 311.5625 564.8125 L 311.96875 565.3125 L 312.3125 565.84375 L 312.65625 566.4375 L 312.96875 567.03125 L 313.28125 567.71875 L 313.5625 568.40625 L 313.78125 569.125 L 314 569.875 L 314.1875 570.65625 L 314.34375 571.5 L 314.46875 572.40625 L 314.59375 573.34375 L 314.625 574.28125 L 314.65625 575.3125 L 314.625 576.40625 L 314.59375 577.4375 L 314.46875 578.40625 L 314.34375 579.34375 L 314.15625 580.21875 L 313.96875 581.09375 L 313.71875 581.90625 L 313.4375 582.65625 L 313.125 583.375 L 312.8125 584.0625 L 312.4375 584.71875 L 312.09375 585.34375 L 311.65625 585.875 L 311.25 586.4375 L 310.8125 586.9375 L 310.34375 587.40625 L 309.84375 587.84375 L 309.375 588.28125 L 308.84375 588.625 L 308.34375 589 L 307.8125 589.3125 L 307.3125 589.625 L 306.75 589.875 L 306.1875 590.125 L 305.65625 590.34375 L 305.09375 590.5625 L 304.5625 590.75 L 304.03125 590.90625 L 303.46875 591.03125 L 302.9375 591.15625 L 302.4375 591.28125 L 301.90625 591.34375 L 301.40625 591.4375 L 300.90625 591.5 L 300.4375 591.53125 L 300 591.59375 L 299.53125 591.625 L 299.125 591.625 L 298.71875 591.625 L 298.34375 591.625 L 298.125 591.625 L 297.78125 591.625 L 297.53125 591.625 L 297.28125 591.625 L 296.96875 591.625 L 296.65625 591.625 L 296.3125 591.625 L 295.90625 591.625 L 295.5 591.625 L 295.09375 591.625 L 294.65625 591.625 L 294.21875 591.625 L 293.75 591.625 L 293.28125 591.625 L 292.78125 591.625 L 292.3125 591.625 L 291.78125 591.625 L 291.3125 591.625 L 290.84375 591.625 L 290.375 591.625 L 289.875 591.625 L 289.40625 591.625 L 288.96875 591.625 L 288.53125 591.625 L 288.09375 591.625 L 287.6875 591.625 L 287.34375 591.625 L 286.96875 591.625 L 286.65625 591.625 L 286.34375 591.625 L 286.0625 591.625 L 285.84375 591.625 L 285.5 591.625 L 285.28125 591.625 L 285.28125 559.84375 z "
   id="path16" />
</g><g
   id="LWPOLYLINE_6_"
   style="stroke:none;fill:#000000;fill-opacity:1">
	
		
</g><g
   id="LWPOLYLINE"
   style="stroke:none;fill:#000000;fill-opacity:1">
	
		
</g>

<g
   id="LWPOLYLINE_2_"
   style="stroke:none;fill:#000000;fill-opacity:1">
	
		<path
   fill="none"
   stroke="#000000"
   stroke-width="0.7087"
   stroke-linecap="round"
   stroke-linejoin="round"
   stroke-miterlimit="10"
   d="   M259.988,643.865c0-0.158,0-0.277,0-0.277c0-0.16,0-0.359,0-0.359v-0.199v-0.238v-0.279v-0.279v-0.318v-0.319v-0.358v-0.358v-0.359   v-0.358v-0.398v-0.398v-0.398v-0.398v-0.398v-0.398v-0.398v-0.358v-0.398v-0.359v-0.358v-0.358v-0.318v-0.279v-0.318v-0.239v-0.239   v-0.239c0-0.199,0-0.358,0-0.358c0-0.12,0-0.199,0-0.199c-0.06-0.08-0.259-0.08-0.259-0.08h-0.319h-0.438h-0.559h-0.657h-0.737   h-0.837h-0.936h-0.997h-1.056h-1.136h-1.175h-1.235h-1.275h-1.315h-1.314h-1.354h-1.375h-1.375h-1.375h-1.374h-1.355H236.2h-1.315   h-1.275h-1.215h-1.195h-1.116h-1.075h-0.997h-0.916h-0.837h-0.757h-0.657h-0.538h-0.438h-0.339c-0.18,0-0.259,0-0.259,0   c0-0.079,0-0.239,0-0.239v-0.278v-0.398v-0.479v-0.598v-0.678v-0.717v-0.837v-0.877v-0.956v-0.996v-1.036v-1.115v-1.116v-1.155   v-1.195V619.4v-1.235v-1.235v-1.195v-1.235v-1.195v-1.195v-1.156v-1.115v-1.116v-1.036v-0.996v-0.956v-0.877v-0.836v-0.758v-0.638   v-0.598v-0.478v-0.398v-0.279c0-0.199,0-0.239,0-0.239c0.06,0,0.239,0,0.239,0h0.299h0.398h0.498h0.598h0.677h0.777h0.837h0.896   h0.977h1.036h1.075h1.116h1.155h1.195h1.216h1.235h1.255h1.255h1.256h1.234h1.235h1.216h1.195h1.155h1.136h1.076h1.016h0.977h0.916   h0.837h0.758h0.677h0.598h0.498h0.398h0.299c0.18,0,0.239,0,0.239,0c0-0.159,0-0.318,0-0.318c0-0.159,0-0.319,0-0.319v-0.238   v-0.239v-0.279v-0.278v-0.319v-0.318v-0.319v-0.358v-0.358v-0.398v-0.398v-0.358v-0.399v-0.398v-0.398v-0.398v-0.398v-0.398v-0.358   v-0.358v-0.358v-0.359v-0.318v-0.318v-0.279v-0.279v-0.239v-0.199c0-0.199,0-0.358,0-0.358c0-0.119,0-0.239,0-0.239   c-0.06-0.039-0.239-0.039-0.239-0.039h-0.299h-0.398h-0.498h-0.598h-0.677h-0.758h-0.837h-0.916h-0.977h-1.016h-1.076h-1.136   h-1.155h-1.195h-1.216h-1.235h-1.234h-1.256h-1.255h-1.255h-1.235h-1.216h-1.195h-1.155h-1.116h-1.075h-1.036h-0.977h-0.896h-0.837   h-0.777h-0.677h-0.598h-0.498h-0.398h-0.299c-0.18,0-0.239,0-0.239,0c0-0.08,0-0.239,0-0.239v-0.279v-0.358v-0.438V588.2v-0.638   v-0.678v-0.757v-0.837v-0.877v-0.916v-0.996v-0.996v-1.036v-1.076v-1.115v-1.116v-1.115v-1.116v-1.155v-1.116v-1.115v-1.116v-1.036   v-1.075v-0.996v-0.996v-0.917v-0.877v-0.797v-0.757v-0.717v-0.598v-0.559v-0.438v-0.359v-0.278c0-0.16,0-0.199,0-0.199   c0.06,0,0.259,0,0.259,0h0.319h0.438h0.538h0.638h0.718h0.836h0.896h0.977h1.036h1.096h1.155h1.216h1.235h1.275h1.314h1.315h1.354   h1.335h1.354h1.335h1.314h1.315h1.275h1.255h1.195h1.155h1.096h1.057h0.976h0.897h0.816H257h0.638h0.538h0.418h0.318   c0.199,0,0.26,0,0.26,0c0-0.16,0-0.319,0-0.319c0-0.159,0-0.318,0-0.318v-0.239v-0.239v-0.278v-0.279v-0.318v-0.319v-0.318v-0.359   v-0.358v-0.398v-0.398v-0.358v-0.398v-0.398v-0.398v-0.398v-0.398v-0.398v-0.359v-0.358v-0.358v-0.358v-0.319v-0.318v-0.279v-0.278   v-0.239v-0.199c0-0.199,0-0.358,0-0.358c0-0.12,0-0.239,0-0.239c-0.08-0.04-0.339-0.04-0.339-0.04h-0.419h-0.558h-0.717h-0.837   h-0.956h-1.097h-1.175h-1.295h-1.375h-1.454h-1.515h-1.594h-1.634h-1.693h-1.714h-1.753h-1.753h-1.794h-1.753h-1.773h-1.753h-1.714   h-1.693h-1.634h-1.594h-1.514h-1.455h-1.374h-1.295h-1.176h-1.096h-0.956h-0.837h-0.718h-0.558h-0.418h-0.26   c-0.079,0.159-0.079,0.678-0.079,0.678v0.837v1.115v1.435v1.674v1.912v2.191v2.352v2.59v2.749v2.909v3.028v3.188v3.268v3.388v3.427   v3.506v3.507v3.547v3.546v3.547v3.506v3.427v3.388v3.267v3.188v3.028v2.908v2.75v2.59v2.351v2.152v1.952v1.674v1.435v1.115v0.838   v0.518C211.854,643.865,259.988,643.865,259.988,643.865z"
   id="path10"
   style="stroke:none;fill:#000000;fill-opacity:1" />
</g>
<g
   id="LWPOLYLINE_3_"
   style="stroke:none;fill:#000000;fill-opacity:1">
	
		
</g>



<g
   id="LWPOLYLINE_7_"
   style="stroke:none;fill:#000000;fill-opacity:1">
	
		<path
   fill="none"
   stroke="#000000"
   stroke-width="0.7087"
   stroke-linecap="round"
   stroke-linejoin="round"
   stroke-miterlimit="10"
   d="   M418.32,615.296l-0.08,0.717l-0.039,0.718l-0.04,0.797l-0.04,0.797l-0.04,0.877v0.876v0.877l0.04,0.956l0.08,0.957l0.079,0.956   l0.12,0.956l0.119,0.996l0.159,1.036l0.239,0.996l0.239,0.996l0.279,0.996l0.358,1.036l0.358,0.996l0.438,0.957l0.479,0.996   l0.518,0.956l0.598,0.916l0.638,0.917l0.717,0.877l0.758,0.876l0.836,0.797l0.917,0.797l0.996,0.758l1.036,0.717l1.115,0.638   l1.235,0.637l1.275,0.559l1.354,0.518l1.475,0.439l1.554,0.398l1.634,0.318l1.714,0.279l1.833,0.158l1.952,0.121l2.032,0.039h1.076   l1.115-0.039l1.076-0.08l1.076-0.08l1.075-0.119l1.076-0.121l1.076-0.199l1.036-0.199l1.036-0.238l0.996-0.238l0.996-0.279   l0.996-0.318l0.956-0.359l0.956-0.398l0.917-0.438l0.916-0.439l0.877-0.478l0.877-0.519l0.837-0.558l0.797-0.598l0.797-0.638   l0.757-0.678l0.717-0.677l0.678-0.757l0.678-0.798l0.598-0.797l0.598-0.876l0.558-0.917l0.518-0.956l0.479-0.956l0.438-1.036   l0.398-1.076l0.358-1.115l0.319-1.195l0.278-1.196l0.199-1.234l0.199-1.315l0.12-1.354l0.079-1.395V619.4l-0.079-2.192   l-0.199-2.111l-0.359-1.952l-0.518-1.873l-0.598-1.754l-0.757-1.634l-0.837-1.594l-0.956-1.474l-1.036-1.395l-1.156-1.315   l-1.195-1.235l-1.274-1.195l-1.355-1.115l-1.395-1.076l-1.435-0.996l-1.475-0.957l-1.514-0.956l-1.554-0.916l-1.555-0.837   l-1.554-0.877l-1.554-0.837l-1.555-0.797l-1.514-0.837l-1.515-0.797l-1.514-0.837l-1.435-0.836l-1.395-0.837l-1.315-0.877   l-1.314-0.877l-1.195-0.956l-1.116-0.956l-1.036-0.996l-0.956-1.076l-0.877-1.076l-0.717-1.195l-0.638-1.235l-0.479-1.274   l-0.358-1.396l-0.239-1.474l-0.079-1.555v-0.717l0.039-0.678l0.08-0.677l0.08-0.678l0.119-0.638l0.159-0.638l0.159-0.598l0.2-0.558   l0.199-0.558l0.238-0.558l0.239-0.519l0.279-0.479l0.278-0.478l0.319-0.479l0.318-0.438l0.358-0.398l0.359-0.398l0.358-0.398   l0.398-0.358l0.398-0.358l0.438-0.319l0.438-0.318l0.438-0.279l0.438-0.278l0.479-0.239l0.479-0.239l0.478-0.239l0.519-0.199   l0.478-0.199l0.519-0.159l0.518-0.159l0.519-0.12l0.558-0.119l0.518-0.119l0.559-0.08l0.518-0.08l0.558-0.04l0.559-0.039h0.558   l0.558-0.04l0.757,0.04l0.758,0.039l0.717,0.04l0.718,0.12l0.677,0.119l0.638,0.12l0.638,0.199l0.598,0.159l0.558,0.239   l0.558,0.238l0.559,0.279l0.478,0.279l0.479,0.318l0.479,0.318l0.438,0.359l0.398,0.358l0.398,0.398l0.359,0.398l0.358,0.438   l0.318,0.438l0.319,0.478l0.318,0.479l0.239,0.518l0.279,0.519l0.238,0.518l0.199,0.559l0.2,0.558l0.199,0.598l0.159,0.598   l0.159,0.638l0.119,0.598l0.12,0.638l0.119,0.677l0.08,0.638l0.079,0.678l0.04,0.717l0.04,0.678l0.04,0.717l0.04,0.718v0.717   c0.199,0,0.318,0,0.318,0c0.199,0,0.398,0,0.398,0h0.279h0.278h0.279h0.358h0.358h0.359h0.398h0.398h0.438h0.438h0.438h0.438h0.479   h0.438h0.478h0.438h0.479h0.438h0.438h0.398h0.438h0.398h0.358h0.359h0.318h0.319h0.278h0.239h0.239c0.159,0,0.318,0,0.318,0   c0.199,0,0.239-1.354,0.239-1.354v-1.354l-0.04-1.315l-0.079-1.275l-0.12-1.234l-0.119-1.196l-0.199-1.155l-0.239-1.115   l-0.279-1.076l-0.278-1.036l-0.319-0.996l-0.398-0.956l-0.398-0.957l-0.438-0.876l-0.478-0.837l-0.519-0.837l-0.518-0.797   l-0.598-0.717l-0.598-0.718l-0.638-0.678l-0.678-0.637l-0.717-0.598l-0.718-0.599l-0.797-0.518l-0.797-0.518l-0.797-0.479   l-0.877-0.398l-0.876-0.398l-0.917-0.398l-0.956-0.319l-0.996-0.318l-0.996-0.239l-1.036-0.239l-1.036-0.199l-1.076-0.199   l-1.115-0.119l-1.155-0.12l-1.156-0.079l-1.195-0.04h-1.195h-1.155l-1.155,0.04l-1.116,0.079l-1.115,0.12l-1.116,0.119l-1.076,0.16   l-1.036,0.238l-1.075,0.199l-1.036,0.279l-0.996,0.279l-0.996,0.318l-0.957,0.358l-0.956,0.398l-0.916,0.438l-0.877,0.438   l-0.877,0.479l-0.837,0.518l-0.836,0.558l-0.797,0.559l-0.758,0.637l-0.757,0.638l-0.678,0.678l-0.677,0.717l-0.638,0.718   l-0.638,0.797l-0.558,0.797l-0.558,0.837l-0.479,0.876l-0.479,0.877l-0.438,0.956l-0.398,0.957l-0.358,0.996l-0.318,1.036   l-0.279,1.075l-0.239,1.116l-0.199,1.115l-0.159,1.156l-0.119,1.235l-0.08,1.234v1.235l0.08,2.112l0.199,1.952l0.358,1.873   l0.518,1.753l0.638,1.674l0.718,1.594l0.876,1.515l0.917,1.395l1.075,1.314l1.116,1.275l1.195,1.195l1.275,1.156l1.354,1.075   l1.395,1.036l1.435,0.996l1.475,0.956l1.514,0.877l1.555,0.917l1.554,0.837l1.554,0.836l1.555,0.797l1.554,0.837l1.554,0.797   l1.515,0.797l1.475,0.798l1.435,0.836l1.395,0.837l1.354,0.837l1.275,0.877l1.195,0.916l1.115,0.957l1.076,0.996l0.916,0.996   l0.877,1.115l0.718,1.116l0.637,1.195l0.479,1.274l0.398,1.315l0.199,1.395l0.08,1.515v0.837l-0.04,0.797l-0.08,0.797l-0.079,0.757   l-0.12,0.757l-0.159,0.718l-0.159,0.677l-0.199,0.638l-0.199,0.638l-0.239,0.638L460,627.21l-0.278,0.558l-0.279,0.559   l-0.318,0.518l-0.359,0.479l-0.358,0.478l-0.398,0.438l-0.398,0.398l-0.398,0.398l-0.438,0.398l-0.438,0.358l-0.478,0.319   l-0.479,0.318l-0.518,0.319l-0.519,0.239l-0.518,0.278l-0.558,0.239l-0.559,0.199l-0.558,0.199l-0.558,0.159l-0.598,0.159   l-0.598,0.16l-0.638,0.119l-0.598,0.12l-0.638,0.079l-0.638,0.08l-0.638,0.04l-0.677,0.039l-0.678,0.04h-0.638h-0.558l-0.558-0.04   l-0.559-0.039l-0.558-0.04l-0.558-0.08l-0.558-0.079l-0.559-0.12l-0.558-0.119l-0.518-0.16l-0.559-0.159l-0.518-0.199l-0.558-0.199   l-0.519-0.239l-0.518-0.238l-0.519-0.279l-0.478-0.279l-0.479-0.318l-0.478-0.319l-0.479-0.398l-0.438-0.358l-0.438-0.398   l-0.438-0.438l-0.398-0.478l-0.398-0.479l-0.358-0.518l-0.358-0.559l-0.319-0.558l-0.318-0.598l-0.318-0.598l-0.279-0.678   l-0.239-0.677l-0.239-0.718l-0.199-0.717l-0.159-0.757l-0.159-0.837l-0.159-0.797l-0.08-0.877l-0.08-0.917l-0.039-0.916   l-0.04-0.956c0-0.199,0-0.279,0-0.279c0-0.199,0-0.239,0-0.239c0-0.159,0-0.278,0-0.278c0-0.16,0-0.239,0-0.239   c0-0.199,0-0.279,0-0.279c0-0.199,0-0.278,0-0.278c0-0.16,0-0.239,0-0.239c0-0.159,0-0.239,0-0.239c0-0.199,0-0.239,0-0.239   C429.717,615.296,418.32,615.296,418.32,615.296z"
   id="path25"
   style="stroke:none;fill:#000000;fill-opacity:1" />
</g>
<g
   id="LWPOLYLINE_8_"
   style="stroke:none;fill:#000000;fill-opacity:1">
	
		<polygon
   fill="none"
   stroke="#000000"
   stroke-width="0.7087"
   stroke-linecap="round"
   stroke-linejoin="round"
   stroke-miterlimit="10"
   points="   369.349,259.502 369.747,259.502 370.186,259.522 370.584,259.542 370.982,259.562 371.421,259.602 371.819,259.642    372.218,259.682 372.655,259.741 373.055,259.801 373.453,259.86 373.852,259.94 374.25,260.021 374.688,260.1 375.086,260.199    375.485,260.299 375.884,260.419 376.282,260.519 376.641,260.638 377.039,260.777 377.438,260.917 377.836,261.056    378.194,261.195 378.593,261.354 378.991,261.515 379.35,261.693 379.709,261.854 380.107,262.053 380.466,262.231    380.824,262.431 381.183,262.63 381.542,262.829 381.9,263.049 382.219,263.268 382.578,263.486 382.937,263.706 383.255,263.945    383.574,264.185 383.933,264.443 384.251,264.683 384.57,264.941 384.889,265.22 385.168,265.479 385.486,265.758 385.806,266.037    386.084,266.315 386.363,266.615 386.642,266.914 386.921,267.192 387.2,267.512 387.479,267.811 387.758,268.129 387.997,268.447    388.236,268.767 388.475,269.105 388.714,269.424 388.953,269.763 389.192,270.102 389.432,270.44 389.631,270.778 389.83,271.138    390.029,271.496 390.229,271.854 390.428,272.213 390.627,272.572 390.786,272.931 390.985,273.309 391.145,273.688    391.304,274.046 391.424,274.425 391.583,274.804 391.742,275.202 391.862,275.58 391.981,275.959 392.102,276.357    392.221,276.756 392.301,277.135 392.42,277.533 392.5,277.932 392.579,278.33 392.659,278.729 392.738,279.127 392.778,279.525    392.818,279.924 392.898,280.342 392.938,280.74 392.938,281.139 392.978,281.558 393.018,281.956 393.018,282.354    393.018,282.772 393.018,283.171 393.018,283.569 392.978,283.988 392.938,284.387 392.938,284.785 392.898,285.203    392.818,285.602 392.778,286 392.738,286.398 392.659,286.797 392.579,287.195 392.5,287.594 392.42,287.992 392.301,288.392    392.221,288.79 392.102,289.168 391.981,289.566 391.862,289.945 391.742,290.344 391.583,290.723 391.424,291.101    391.304,291.479 391.145,291.857 390.985,292.217 390.786,292.595 390.627,292.953 390.428,293.332 390.229,293.69 390.029,294.05    389.83,294.388 389.631,294.747 389.432,295.085 389.192,295.424 388.953,295.763 388.714,296.102 388.475,296.44 388.236,296.759    387.997,297.078 387.758,297.396 387.479,297.715 387.2,298.034 386.921,298.333 386.642,298.632 386.363,298.931 386.084,299.21    385.806,299.488 385.486,299.768 385.168,300.046 384.889,300.325 384.57,300.584 384.251,300.844 383.933,301.103    383.574,301.342 383.255,301.58 382.937,301.819 382.578,302.039 382.219,302.277 381.9,302.497 381.542,302.696 381.183,302.915    380.824,303.114 380.466,303.294 380.107,303.493 379.709,303.673 379.35,303.852 378.991,304.011 378.593,304.171 378.194,304.33    377.836,304.47 377.438,304.629 377.039,304.748 376.641,304.888 376.282,305.008 375.884,305.127 375.485,305.227    375.086,305.326 374.688,305.426 374.25,305.525 373.852,305.605 373.453,305.665 373.055,305.744 372.655,305.805    372.218,305.844 371.819,305.904 371.421,305.943 370.982,305.964 370.584,305.983 370.186,306.004 369.747,306.023    369.349,306.023 368.95,306.023 368.512,306.004 368.113,305.983 367.715,305.964 367.276,305.943 366.878,305.904    366.479,305.844 366.041,305.805 365.643,305.744 365.244,305.665 364.846,305.605 364.407,305.525 364.009,305.426    363.61,305.326 363.212,305.227 362.813,305.127 362.415,305.008 362.017,304.888 361.658,304.748 361.26,304.629 360.861,304.47    360.463,304.33 360.104,304.171 359.705,304.011 359.347,303.852 358.988,303.673 358.59,303.493 358.231,303.294 357.872,303.114    357.514,302.915 357.155,302.696 356.797,302.497 356.478,302.277 356.119,302.039 355.761,301.819 355.441,301.58    355.123,301.342 354.765,301.103 354.445,300.844 354.127,300.584 353.809,300.325 353.529,300.046 353.21,299.768    352.892,299.488 352.612,299.21 352.334,298.931 352.055,298.632 351.776,298.333 351.497,298.034 351.218,297.715    350.939,297.396 350.7,297.078 350.461,296.759 350.182,296.44 349.943,296.102 349.744,295.763 349.505,295.424 349.266,295.085    349.066,294.747 348.867,294.388 348.668,294.05 348.469,293.69 348.27,293.332 348.07,292.953 347.911,292.595 347.712,292.217    347.552,291.857 347.393,291.479 347.233,291.101 347.114,290.723 346.954,290.344 346.835,289.945 346.716,289.566    346.596,289.168 346.477,288.79 346.396,288.392 346.277,287.992 346.197,287.594 346.117,287.195 346.038,286.797    345.958,286.398 345.918,286 345.839,285.602 345.799,285.203 345.759,284.785 345.719,284.387 345.719,283.988 345.68,283.569    345.68,283.171 345.68,282.772 345.68,282.354 345.68,281.956 345.719,281.558 345.719,281.139 345.759,280.74 345.799,280.342    345.839,279.924 345.918,279.525 345.958,279.127 346.038,278.729 346.117,278.33 346.197,277.932 346.277,277.533    346.396,277.135 346.477,276.756 346.596,276.357 346.716,275.959 346.835,275.58 346.954,275.202 347.114,274.804    347.233,274.425 347.393,274.046 347.552,273.688 347.712,273.309 347.911,272.931 348.07,272.572 348.27,272.213 348.469,271.854    348.668,271.496 348.867,271.138 349.066,270.778 349.266,270.44 349.505,270.102 349.744,269.763 349.943,269.424    350.182,269.105 350.461,268.767 350.7,268.447 350.939,268.129 351.218,267.811 351.497,267.512 351.776,267.192 352.055,266.914    352.334,266.615 352.612,266.315 352.892,266.037 353.21,265.758 353.529,265.479 353.809,265.22 354.127,264.941 354.445,264.683    354.765,264.443 355.123,264.185 355.441,263.945 355.761,263.706 356.119,263.486 356.478,263.268 356.797,263.049    357.155,262.829 357.514,262.63 357.872,262.431 358.231,262.231 358.59,262.053 358.988,261.854 359.347,261.693 359.705,261.515    360.104,261.354 360.463,261.195 360.861,261.056 361.26,260.917 361.658,260.777 362.017,260.638 362.415,260.519    362.813,260.419 363.212,260.299 363.61,260.199 364.009,260.1 364.407,260.021 364.846,259.94 365.244,259.86 365.643,259.801    366.041,259.741 366.479,259.682 366.878,259.642 367.276,259.602 367.715,259.562 368.113,259.542 368.512,259.522    368.95,259.502  "
   id="polygon28"
   style="stroke:none;fill:#000000;fill-opacity:1" />
</g>
<g
   id="LWPOLYLINE_9_"
   style="stroke:none;fill:#000000;fill-opacity:1">
	
		<path
   fill="none"
   stroke="#000000"
   stroke-width="0.7087"
   stroke-linecap="round"
   stroke-linejoin="round"
   stroke-miterlimit="10"
   d="   M326.114,191.702l-1.713-2.41l-1.714-2.352l-1.713-2.291l-1.714-2.231l-1.753-2.172l-1.754-2.111l-1.753-2.053l-1.753-1.992   l-1.793-1.912l-1.794-1.873l-1.793-1.793l-1.793-1.733l-1.793-1.674l-1.793-1.613l-1.833-1.555l-1.833-1.475l-1.793-1.414   l-1.833-1.335l-1.833-1.275l-1.833-1.215l-1.833-1.136l-1.793-1.076l-1.833-0.996l-1.833-0.937l-1.813-0.876l-1.812-0.777   l-1.813-0.737l-1.812-0.638l-1.794-0.577l-1.793-0.519l-1.793-0.418l-1.773-0.359l-1.772-0.278l-1.754-0.22l-1.753-0.139   l-1.733-0.04l-1.733,0.02l-1.713,0.08l-1.694,0.179l-1.693,0.26l-1.673,0.259l-1.694,0.358l-1.673,0.438l-1.654,0.518l-1.673,0.578   l-1.674,0.657l-1.653,0.758l-1.654,0.816l-1.674,0.896l-1.653,0.956l-1.653,1.036l-1.634,1.116l-1.653,1.175l-1.634,1.256   l-1.654,1.314l-1.634,1.395l-1.634,1.455l-1.613,1.514l-1.634,1.594l-1.634,1.634l-1.614,1.733l-1.613,1.773l-1.614,1.833   l-1.613,1.913l-1.614,1.952l-1.613,2.032l-1.594,2.072l-1.614,2.132l-1.594,2.191l-1.594,2.251l-1.594,2.312l-1.594,2.371   l-1.595,2.41l-1.573,2.471l-1.574,2.511l-1.594,2.569l-1.574,2.61l-1.574,2.67l-1.554,2.729l-1.574,2.749l-1.494,2.65l-1.494,2.67   l-1.475,2.729l-1.474,2.789l-1.455,2.809l-1.454,2.89l-1.435,2.908l-1.435,2.969l-1.414,3.028l-1.415,3.049l-1.395,3.128   l-1.395,3.168l-1.395,3.207l-1.375,3.268l-1.354,3.327l-1.375,3.367l-1.354,3.407l-1.355,3.467l-1.335,3.526l-1.334,3.566   l-1.335,3.626l-1.315,3.686l-1.314,3.726l-1.315,3.785l-1.314,3.846l-1.315,3.885l-1.295,3.945l-1.295,4.005l-1.295,4.044   l-1.295,4.124l-1.295,4.164l-1.275,4.204l-1.295,4.283l-1.275,4.323l-1.275,4.403l-1.274,4.443l-1.295,4.482l-1.275,4.562   l-1.275,4.622l-1.275,4.683c0.16,0,0.359,0,0.359,0h0.259h0.318h0.379h0.458h0.479h0.558h0.578h0.638h0.657h0.697h0.717h0.758   h0.776h0.777h0.797h0.816h0.797h0.817h0.816h0.797h0.777h0.777h0.757h0.718h0.697h0.657h0.638h0.577h0.559h0.498h0.438h0.379h0.319   h0.259c0.199,0,0.318,0,0.318,0c0.04,0,0.279-1.515,0.279-1.515l0.239-1.494l0.238-1.494l0.279-1.475l0.259-1.474l0.279-1.475   l0.299-1.475l0.299-1.454l0.299-1.455l0.318-1.454l0.319-1.454l0.339-1.435l0.339-1.454l0.338-1.455l0.359-1.435l0.378-1.454   l0.379-1.435l0.378-1.454l0.398-1.435l0.399-1.455l0.398-1.454l0.418-1.454l0.438-1.454l0.438-1.475l0.438-1.475l0.458-1.475   l0.458-1.474l0.479-1.494l0.478-1.495l0.479-1.514l0.498-1.515l0.518-1.514l0.498-1.534l0.538-1.554l0.519-1.555l0.538-1.554   l0.558-1.574l0.558-1.594l0.558-1.613l0.578-1.614l0.598-1.693l0.578-1.693l0.598-1.693l0.598-1.714l0.598-1.714l0.617-1.732   l0.618-1.733l0.617-1.733l0.638-1.733l0.638-1.733l0.638-1.754l0.638-1.733l0.657-1.753l0.657-1.753l0.678-1.733l0.657-1.754   l0.678-1.753l0.677-1.753l0.697-1.733l0.678-1.754l0.717-1.732l0.698-1.733l0.697-1.733l0.717-1.733l0.737-1.714l0.717-1.733   l0.737-1.693l0.737-1.713l0.737-1.694l0.757-1.693l0.757-1.673l0.758-1.674l0.776-1.654l0.777-1.653l0.777-1.634l0.776-1.634   l0.797-1.613l0.798-1.594l0.797-1.595l0.816-1.573l0.937-1.693l0.956-1.674l0.977-1.693l0.996-1.674l0.996-1.693l1.036-1.674   l1.036-1.674l1.036-1.673l1.075-1.654l1.057-1.653l1.096-1.634l1.075-1.634l1.097-1.594l1.115-1.614l1.096-1.573l1.116-1.555   l1.115-1.554l1.116-1.515l1.115-1.514l1.116-1.475l1.115-1.454l1.116-1.415l1.096-1.414l1.115-1.375l1.096-1.335l1.096-1.314   l1.076-1.275l1.076-1.235l1.075-1.215l1.036-1.156l1.057-1.136l1.016-1.096l1.017-1.036l0.996-1.016l0.976-0.956l0.977-0.917   l0.937-0.876l0.916-0.817l0.917-0.777l0.877-0.717l1.096-0.737l1.075-0.697l1.057-0.638l1.035-0.617l1.036-0.559l1.017-0.518   l0.996-0.498l0.996-0.438l0.977-0.398l0.956-0.379l0.956-0.318l0.937-0.299l0.937-0.259l0.916-0.22l0.897-0.179l0.916-0.159   l0.877-0.12l0.896-0.079l0.876-0.04l0.877-0.021l0.856,0.021l0.877,0.04l0.856,0.079l0.837,0.12l0.856,0.139l0.857,0.16   l0.837,0.199l0.837,0.219l0.836,0.239l0.857,0.278l0.837,0.319l0.836,0.318l0.837,0.359l0.857,0.378l0.836,0.398l0.857,0.419   l0.856,0.458l0.856,0.458l0.856,0.498l0.857,0.519l0.757,0.299l0.777,0.338l0.776,0.339l0.777,0.398l0.777,0.398l0.797,0.438   l0.797,0.438l0.797,0.498l0.777,0.498l0.836,0.538l0.797,0.558l0.798,0.578l0.797,0.598l0.836,0.638l0.798,0.657l0.797,0.678   l0.797,0.697l0.797,0.717l0.797,0.757l0.757,0.777l0.797,0.797l0.757,0.817l0.797,0.837l0.718,0.856l0.757,0.896l0.757,0.916   l0.718,0.917l0.717,0.956l0.718,0.977l0.677,0.996l0.678,1.016l0.678,1.057l0.677,1.056l0.638,1.076l0.598,1.115l0.638,1.116   l0.558,1.155l0.599,1.176l0.518,1.175l0.558,1.216c0.12-0.08,0.279-0.18,0.279-0.18l0.199-0.119l0.239-0.159l0.318-0.199   l0.319-0.22l0.398-0.259l0.438-0.259l0.438-0.299l0.519-0.319l0.518-0.339l0.558-0.338l0.559-0.359l0.598-0.378l0.598-0.398   l0.598-0.379l0.638-0.398l0.637-0.418l0.638-0.398l0.638-0.399l0.638-0.418l0.638-0.398l0.598-0.398l0.598-0.379l0.598-0.378   l0.598-0.358l0.519-0.359l0.518-0.318l0.518-0.319l0.438-0.299l0.438-0.259l0.398-0.259l0.358-0.219l0.279-0.199l0.279-0.16   l0.199-0.119C325.955,191.782,326.074,191.723,326.114,191.702z"
   id="path31"
   style="stroke:none;fill:#000000;fill-opacity:1" />
</g>
<g
   id="LWPOLYLINE_10_"
   style="stroke:none;fill:#000000;fill-opacity:1">
	
		<path
   fill="none"
   stroke="#000000"
   stroke-width="0.7087"
   stroke-linecap="round"
   stroke-linejoin="round"
   stroke-miterlimit="10"
   d="   M477.055,252.987l-4.024,0.239l-4.024,0.299l-3.984,0.318l-3.985,0.358l-3.944,0.398l-3.945,0.438l-3.905,0.458l-3.864,0.498   l-3.865,0.538l-3.826,0.578l-3.825,0.598l-3.785,0.617l-3.745,0.678l-3.706,0.697l-3.706,0.718l-3.706,0.757l-3.665,0.777   l-3.627,0.816l-3.586,0.856l-3.586,0.857l-3.547,0.896l-3.506,0.936l-3.507,0.957l-3.467,0.976l-3.467,0.997l-3.427,1.035   l-3.387,1.057l-3.348,1.075l-3.347,1.096l-3.308,1.116l-3.268,1.155l-3.268,1.176l-3.228,1.176l-3.188,1.215l-3.188,1.235   l-3.148,1.255l-3.107,1.256l-3.108,1.295l-3.028,1.314l-3.028,1.315l-2.988,1.295l-2.909,1.314l-2.869,1.315l-2.829,1.354   l-2.749,1.355l-2.71,1.395l-2.67,1.414l-2.59,1.415l-2.55,1.454l-2.551,1.454l-2.471,1.494l-2.391,1.515l-2.391,1.515l-2.351,1.554   l-2.352,1.554l-2.271,1.594l-2.231,1.594l-2.23,1.614l-2.192,1.653l-2.132,1.654l-2.132,1.673l-2.111,1.694l-2.092,1.713   l-2.053,1.733l-2.052,1.753l-2.032,1.773l-2.013,1.793l-1.992,1.813l-1.992,1.833l-1.973,1.833l-1.973,1.872l-1.952,1.873   l-1.952,1.893l-1.953,1.913l-1.952,1.933l-1.952,1.952l-1.953,1.973l-1.952,1.992l-1.952,2.013l-1.973,2.012l-1.793,1.893   l-1.773,1.933l-1.773,1.993l-1.773,2.052l-1.753,2.092l-1.733,2.132l-1.733,2.172l-1.713,2.212l-1.693,2.251l-1.694,2.291   l-1.673,2.312l-1.654,2.351l-1.653,2.351l-1.614,2.392l-1.613,2.41l-1.594,2.431l-1.574,2.431l-1.554,2.451l-1.534,2.47   l-1.515,2.451l-1.494,2.471l-1.494,2.47l-1.454,2.471l-1.415,2.451l-1.414,2.45l-1.395,2.451l-1.355,2.431l-1.335,2.391   l-1.314,2.391l-1.295,2.391l-1.256,2.352l-1.235,2.311l-1.215,2.271l-1.176,2.271l-1.155,2.191l-1.116,2.191l-1.096,2.151   l-1.075,2.072l-1.017,2.072l-1.016,1.992l-0.857,1.952l-0.876,1.993l-0.877,1.952l-0.877,1.952l-0.876,1.993l-0.877,1.952   l-0.877,1.952l-0.856,1.953l-0.877,1.952l-0.856,1.913l-0.856,1.952l-0.856,1.952l-0.857,1.913l-0.836,1.952l-0.837,1.913   l-0.837,1.952l-0.817,1.913l-0.797,1.912l-0.797,1.913l-0.797,1.952l-0.777,1.913l-0.757,1.912l-0.757,1.873l-0.737,1.913   l-0.717,1.912l-0.718,1.913l-0.697,1.872l-0.657,1.913l-0.678,1.873l-0.638,1.912l-0.617,1.873l-0.598,1.873l-0.578,1.873   l-0.558,1.872l-0.538,1.873l-0.518,1.873l-0.498,1.873l-0.459,1.872l-0.458,1.873l-0.418,1.833c0.159,0,0.339,0,0.339,0h0.259   h0.299h0.378h0.419h0.478h0.538h0.559h0.598h0.657h0.657h0.697h0.737h0.737h0.757h0.777h0.776h0.777h0.777h0.776h0.777h0.757h0.737   h0.737h0.697h0.657h0.658h0.598h0.558h0.538h0.478h0.419h0.379h0.299h0.259c0.179,0,0.299,0,0.299,0   c0.04,0,1.613-4.582,1.613-4.582l1.574-4.583l1.614-4.463l1.613-4.423l1.614-4.383l1.653-4.304l1.653-4.224l1.674-4.184   l1.693-4.145l1.693-4.064l1.733-4.024l1.733-3.984l1.733-3.905l1.773-3.865l1.773-3.785l1.772-3.786l1.813-3.705l1.813-3.666   l1.833-3.587l1.853-3.586l1.853-3.507l1.893-3.466l1.894-3.428l1.893-3.387l1.933-3.347l1.933-3.268l1.933-3.268l1.972-3.228   l1.973-3.168l1.992-3.147l2.013-3.089l2.012-3.068l2.053-3.028l2.052-2.988l2.053-2.969l2.092-2.929l2.092-2.889l2.092-2.849   l2.132-2.829l2.132-2.81l2.312-2.71l2.311-2.649l2.312-2.61l2.291-2.55l2.291-2.511l2.291-2.45l2.292-2.431l2.271-2.371   l2.292-2.312l2.291-2.291l2.291-2.231l2.291-2.191l2.312-2.132l2.291-2.111l2.331-2.053l2.311-2.012l2.352-1.973l2.311-1.933   l2.392-1.893l2.351-1.854l2.391-1.812l2.391-1.754l2.431-1.732l2.431-1.694l2.431-1.634l2.471-1.613l2.511-1.574l2.51-1.534   l2.551-1.514l2.55-1.455l2.591-1.435l2.63-1.374l2.669-1.355l2.67-1.314l2.71-1.295l2.749-1.255l2.75-1.216l2.829-1.176   l2.829-1.155l2.869-1.115l2.868-1.275l2.869-1.235l2.909-1.216l2.909-1.195l2.948-1.175l2.948-1.136l2.989-1.116l2.988-1.096   l3.028-1.076l3.028-1.035l3.068-1.017l3.068-0.996l3.107-0.956l3.108-0.937l3.148-0.917l3.147-0.876l3.147-0.857l3.188-0.836   l3.188-0.797l3.228-0.758l3.188-0.737l3.268-0.717l3.228-0.678l3.268-0.657l3.308-0.617l3.268-0.598l3.307-0.559l3.308-0.518   l3.347-0.498l3.308-0.479l3.348-0.418l3.347-0.419l3.387-0.358l3.348-0.339l3.387-0.299l3.387-0.278l3.428-0.239l3.387-0.199   l3.427-0.159l3.387-0.14c0-0.14,0-0.339,0-0.339v-0.239v-0.318v-0.379v-0.418v-0.479v-0.519V270.6v-0.598v-0.638v-0.678v-0.697   v-0.737v-0.736v-0.758v-0.776v-0.777v-0.777v-0.776v-0.797v-0.758v-0.757v-0.757v-0.718v-0.697v-0.677v-0.638v-0.618v-0.558v-0.518   v-0.479v-0.438v-0.358v-0.319v-0.259C477.055,253.127,477.055,253.007,477.055,252.987z"
   id="path34"
   style="stroke:none;fill:#000000;fill-opacity:1" />
</g>
<g
   id="LWPOLYLINE_11_"
   style="stroke:none;fill:#000000;fill-opacity:1">
	
		<polygon
   fill="none"
   stroke="#000000"
   stroke-width="0.7087"
   stroke-linecap="round"
   stroke-linejoin="round"
   stroke-miterlimit="10"
   points="   354.884,175.405 359.546,261.136 357.235,260.358 280.39,221.747 280.39,220.213 353.33,174.628  "
   id="polygon37"
   style="stroke:none;fill:#000000;fill-opacity:1" />
</g>
</svg>