<?xml version="1.0" encoding="UTF-8" standalone="no"?>
<!-- Generator: Adobe Illustrator 16.0.1, SVG Export Plug-In . SVG Version: 6.00 Build 0)  -->

<svg
   xmlns:dc="http://purl.org/dc/elements/1.1/"
   xmlns:cc="http://creativecommons.org/ns#"
   xmlns:rdf="http://www.w3.org/1999/02/22-rdf-syntax-ns#"
   xmlns:svg="http://www.w3.org/2000/svg"
   xmlns="http://www.w3.org/2000/svg"
   xmlns:sodipodi="http://sodipodi.sourceforge.net/DTD/sodipodi-0.dtd"
   xmlns:inkscape="http://www.inkscape.org/namespaces/inkscape"
   version="1.0"
   id="_x31_"
   x="0px"
   y="0px"
   width="612px"
   height="792px"
   viewBox="0 0 612 792"
   enable-background="new 0 0 612 792"
   xml:space="preserve"
   inkscape:version="0.48.2 r9819"
   sodipodi:docname="7003.svg"><metadata
   id="metadata97"><rdf:RDF><cc:Work
       rdf:about=""><dc:format>image/svg+xml</dc:format><dc:type
         rdf:resource="http://purl.org/dc/dcmitype/StillImage" /></cc:Work></rdf:RDF></metadata><defs
   id="defs95" /><sodipodi:namedview
   pagecolor="#ffffff"
   bordercolor="#666666"
   borderopacity="1"
   objecttolerance="10"
   gridtolerance="10"
   guidetolerance="10"
   inkscape:pageopacity="0"
   inkscape:pageshadow="2"
   inkscape:window-width="1920"
   inkscape:window-height="1071"
   id="namedview93"
   showgrid="false"
   inkscape:zoom="0.84281414"
   inkscape:cx="189.88573"
   inkscape:cy="65.435784"
   inkscape:window-x="0"
   inkscape:window-y="0"
   inkscape:window-maximized="1"
   inkscape:current-layer="_x31_" />
<g
   id="LWPOLYLINE_1_"
   style="stroke:none;stroke-opacity:1;fill:#000000;fill-opacity:1">
	
		<path
   style="fill:#000000;fill-opacity:1;stroke:none"
   d="m 263.15625,545.46875 c -0.44299,32.8366 -0.057,65.77955 -0.1875,98.65625 11.27054,4.05309 13.44636,-1.41304 11.9375,-10.37011 0.1729,-10.90045 -0.34055,-22.33679 0.25,-32.91114 13.70295,-0.001 30.94986,2.07753 39.25,-11.6249 7.85522,-14.00541 4.73353,-37.37134 -12.71875,-42.3125 -12.51993,-2.79093 -25.78204,-0.87173 -38.53125,-1.4376 z m 11.75,11.0625 c 9.59965,0.84588 22.65745,-3.33654 28.5625,6.9373 6.23251,10.75715 -0.62955,27.18125 -14.12505,26.3123 -4.8125,0 -9.625,0 -14.4375,0 3e-5,-11.08293 -7e-5,-22.168 5e-5,-33.2496 z"
   id="path7"
   inkscape:connector-curvature="0" />
</g><g
   id="LWPOLYLINE_2_"
   style="stroke:none;stroke-opacity:1;fill:#000000;fill-opacity:1">
	
		<path
   style="fill:#000000;fill-opacity:1;stroke:none"
   d="m 365.1875,543.78125 c -14.08556,-1.06095 -28.46732,8.64295 -29.96875,23.2499 -1.32912,16.40011 -0.74223,33.01311 -0.26592,49.4552 0.34023,13.32159 8.64755,27.77335 23.07842,28.9823 13.33751,2.51934 30.07798,-1.87921 34.59375,-16.1875 5.62384,-17.8916 2.43781,-36.99417 3.18745,-55.4375 0.77763,-14.45308 -9.77869,-28.9467 -24.81245,-29.6875 -1.92122,-0.33919 -3.86905,-0.34249 -5.8125,-0.3749 z M 364.46875,554 c 11.0793,-1.24075 19.3286,9.28929 18.5937,19.81235 -0.8525,17.24439 2.0031,34.93686 -2.15615,51.84375 -4.37645,15.04273 -30.76453,13.20545 -32.25,-2.875 -2.6569,-16.62193 -0.9461,-33.62922 -1.24995,-50.4061 0.0292,-9.65076 6.84613,-18.70365 17.0624,-18.375 z"
   id="path10"
   inkscape:connector-curvature="0" />
</g><g
   id="LWPOLYLINE_13_"
   style="stroke:none;stroke-opacity:1;fill:#000000;fill-opacity:1">
	
		<path
   style="fill:#000000;fill-opacity:1;stroke:none"
   d="m 22.78125,545.46875 c 0.229533,32.82255 -0.458824,66.56299 0.34375,98.8125 3.651554,-0.47713 8.860984,0.97133 11.5625,-0.6875 0.175006,-14.75936 -0.35024,-30.00408 0.25,-44.4687 8.705588,1.01269 19.791455,-2.88866 26.40625,4.56225 5.69832,12.62424 0.285207,27.6994 5.75,40.59395 4.190476,-0.38134 10.553554,0.77448 13.4375,-0.53125 -5.1548,-14.55738 -0.286101,-31.14961 -7.46875,-45.03125 -1.889378,-4.14818 -10.177669,-5.61037 -11.09375,-6.53125 21.96013,-3.52092 22.928975,-39.95985 2,-45.65625 -13.482649,-2.31756 -27.534619,-0.46829 -41.1875,-1.0625 z m 11.90625,11.0625 c 8.896805,0.95455 19.033352,-2.38042 26.9375,2.78115 8.554667,8.18134 5.325424,28.41836 -8.1875,28.74995 -6.239583,0 -12.479167,0 -18.71875,0 -0.05041,-10.51012 -0.02437,-21.02136 -0.03125,-31.5311 z"
   id="path82"
   inkscape:connector-curvature="0" />
</g><g
   id="LWPOLYLINE"
   style="stroke:none;stroke-opacity:1;fill:#000000;fill-opacity:1">
	
		
</g>


<g
   id="LWPOLYLINE_3_"
   style="stroke:none;stroke-opacity:1;fill:#000000;fill-opacity:1">
	
		
</g>
<g
   id="LWPOLYLINE_4_"
   style="stroke:none;stroke-opacity:1;fill:#000000;fill-opacity:1">
	
		<path
   style="fill:#000000;fill-opacity:1;stroke:none"
   d="m 429.056,545.475 c -3.75909,0.46717 -9.21128,-0.96916 -11.895,0.707 0.23243,32.62719 -0.45355,65.82274 0.333,98.107 3.826,0 7.652,0 11.478,0 0.11664,-32.93772 0.0615,-65.87608 0.084,-98.814 z"
   id="path16"
   inkscape:connector-curvature="0" />
</g>
<g
   id="LWPOLYLINE_5_"
   style="stroke:none;stroke-opacity:1;fill:#000000;fill-opacity:1">
	
		<path
   style="fill:#000000;fill-opacity:1;stroke:none"
   d="m 504.043,545.475 c 0,28.05867 0,56.11733 0,84.176 -12.78887,-27.92254 -24.77964,-56.48725 -37.763,-84.176 -5.545,0 -11.09,0 -16.635,0 -0.0926,32.85444 -0.4339,66.22252 0.166,98.814 3.40562,-0.419 8.29816,0.86015 10.772,-0.623 0,-28.12733 0,-56.25467 0,-84.382 13.07191,28.19584 25.3262,57.04223 38.594,85.006 5.268,0 10.536,0 15.804,0 0.29296,-32.84643 0.0377,-65.74058 0.124,-98.605 -3.67721,-0.29912 -7.3765,-0.15242 -11.062,-0.21 z"
   id="path19"
   inkscape:connector-curvature="0" />
</g>
<g
   id="LWPOLYLINE_6_"
   style="stroke:none;stroke-opacity:1;fill:#000000;fill-opacity:1">
	
		<path
   style="fill:#000000;fill-opacity:1;stroke:none"
   d="m 526.169,545.475 c 0.46366,3.47252 -0.9648,8.73017 0.707,11.064 8.22067,0 16.44133,0 24.662,0 0.65018,29.12287 -0.46683,59.00886 0.541,87.75 3.9816,-0.43449 9.22442,0.88177 12.435,-0.623 0,-28.986 0,-57.972 0,-86.958 8.09079,-0.64378 16.81793,0.41071 24.703,-0.459 0,-3.56333 0,-7.12667 0,-10.69 -21.01559,-0.11389 -42.0321,-0.0638 -63.048,-0.084 z"
   id="path22"
   inkscape:connector-curvature="0" />
</g>
<g
   id="LWPOLYLINE_7_"
   style="stroke:none;fill:#000000;fill-opacity:1">
	
		<path
   style="fill:#000000;stroke:none;stroke-width:0.70870000000000000;stroke-linecap:round;stroke-linejoin:round;stroke-miterlimit:10;fill-opacity:1"
   d="M 295.34375 292.5 L 294.125 292.53125 L 292.90625 292.53125 L 291.6875 292.59375 L 290.46875 292.6875 L 289.25 292.78125 L 288.03125 292.90625 L 286.84375 293.03125 L 285.625 293.1875 L 284.4375 293.375 L 283.21875 293.59375 L 282 293.78125 L 280.8125 294.03125 L 279.625 294.3125 L 278.4375 294.59375 L 277.28125 294.90625 L 276.09375 295.21875 L 274.90625 295.5625 L 273.75 295.9375 L 272.59375 296.3125 L 271.4375 296.75 L 270.3125 297.1875 L 269.1875 297.625 L 268.0625 298.09375 L 266.9375 298.59375 L 265.84375 299.09375 L 264.71875 299.625 L 263.625 300.1875 L 262.5625 300.75 L 261.5 301.3125 L 260.4375 301.9375 L 259.375 302.53125 L 258.3125 303.1875 L 257.3125 303.84375 L 256.28125 304.53125 L 255.28125 305.21875 L 254.28125 305.9375 L 253.3125 306.65625 L 252.34375 307.40625 L 251.375 308.15625 L 250.4375 308.9375 L 249.5 309.75 L 248.625 310.5625 L 247.6875 311.375 L 246.8125 312.25 L 245.9375 313.09375 L 245.09375 313.96875 L 244.28125 314.84375 L 243.4375 315.75 L 242.625 316.6875 L 241.84375 317.59375 L 241.0625 318.5625 L 240.3125 319.5 L 239.5625 320.5 L 238.84375 321.46875 L 238.125 322.46875 L 237.4375 323.5 L 236.75 324.5 L 236.125 325.53125 L 235.46875 326.59375 L 234.84375 327.65625 L 234.25 328.71875 L 233.65625 329.78125 L 233.09375 330.875 L 232.5625 331.96875 L 232.03125 333.0625 L 231.53125 334.1875 L 231.03125 335.3125 L 230.59375 336.46875 L 230.125 337.59375 L 229.71875 338.75 L 229.3125 339.90625 L 228.9375 341.0625 L 228.5625 342.25 L 228.1875 343.40625 L 227.875 344.59375 L 227.5625 345.78125 L 227.28125 346.96875 L 227.03125 348.15625 L 226.78125 349.375 L 226.5625 350.59375 L 226.375 351.78125 L 226.1875 353 L 226 354.21875 L 225.875 355.4375 L 225.75 356.65625 L 225.65625 357.875 L 225.59375 359.09375 L 225.53125 360.34375 L 225.5 361.5625 L 225.5 362.78125 L 225.5 364.03125 L 225.53125 365.21875 L 225.59375 366.4375 L 225.65625 367.6875 L 225.75 368.90625 L 225.875 370.125 L 226 371.34375 L 226.1875 372.5625 L 226.375 373.78125 L 226.5625 374.96875 L 226.78125 376.1875 L 227.03125 377.375 L 227.28125 378.59375 L 227.5625 379.78125 L 227.875 380.96875 L 228.1875 382.15625 L 228.5625 383.34375 L 228.9375 384.5 L 229.3125 385.65625 L 229.71875 386.8125 L 230.125 387.96875 L 230.59375 389.09375 L 231.03125 390.25 L 231.53125 391.375 L 232.03125 392.46875 L 232.5625 393.59375 L 233.09375 394.6875 L 233.65625 395.78125 L 234.25 396.84375 L 234.84375 397.90625 L 235.46875 399 L 236.125 400.03125 L 236.75 401.0625 L 237.4375 402.0625 L 238.125 403.0625 L 238.84375 404.0625 L 239.5625 405.0625 L 240.3125 406.0625 L 241.0625 407.03125 L 241.84375 407.9375 L 242.625 408.90625 L 243.4375 409.8125 L 244.28125 410.71875 L 245.09375 411.59375 L 245.9375 412.46875 L 246.8125 413.34375 L 247.6875 414.1875 L 248.625 415 L 249.5 415.8125 L 250.4375 416.625 L 251.375 417.375 L 252.34375 418.15625 L 253.3125 418.90625 L 254.28125 419.625 L 255.28125 420.34375 L 256.28125 421.03125 L 257.3125 421.6875 L 258.3125 422.375 L 259.375 423.03125 L 260.4375 423.625 L 261.5 424.25 L 262.5625 424.8125 L 263.625 425.40625 L 264.71875 425.9375 L 265.84375 426.46875 L 266.9375 426.96875 L 268.0625 427.46875 L 269.1875 427.9375 L 270.3125 428.40625 L 271.4375 428.8125 L 272.59375 429.21875 L 273.75 429.59375 L 274.90625 429.96875 L 276.09375 430.3125 L 277.28125 430.65625 L 278.4375 430.96875 L 279.625 431.28125 L 280.8125 431.53125 L 282 431.78125 L 283.21875 431.96875 L 284.4375 432.1875 L 285.625 432.34375 L 286.84375 432.53125 L 288.03125 432.6875 L 289.25 432.78125 L 290.46875 432.90625 L 291.6875 432.96875 L 292.90625 433 L 294.125 433.0625 L 295.34375 433.0625 L 296.5625 433.0625 L 297.78125 433 L 299 432.96875 L 300.21875 432.90625 L 301.4375 432.78125 L 302.65625 432.6875 L 303.84375 432.53125 L 305.0625 432.34375 L 306.28125 432.1875 L 307.5 431.96875 L 308.65625 431.78125 L 309.84375 431.53125 L 311.0625 431.28125 L 312.21875 430.96875 L 313.4375 430.65625 L 314.59375 430.3125 L 315.75 429.96875 L 316.9375 429.59375 L 318.09375 429.21875 L 319.21875 428.8125 L 320.375 428.40625 L 321.5 427.9375 L 322.625 427.46875 L 323.75 426.96875 L 324.875 426.46875 L 325.9375 425.9375 L 327.03125 425.40625 L 328.125 424.8125 L 329.1875 424.25 L 330.28125 423.625 L 331.3125 423.03125 L 332.34375 422.375 L 333.40625 421.6875 L 334.40625 421.03125 L 335.40625 420.34375 L 336.40625 419.625 L 337.375 418.90625 L 338.34375 418.15625 L 339.3125 417.375 L 340.21875 416.625 L 341.1875 415.8125 L 342.09375 415 L 342.96875 414.1875 L 343.875 413.34375 L 344.75 412.46875 L 345.59375 411.59375 L 346.40625 410.71875 L 347.25 409.8125 L 348.03125 408.90625 L 348.8125 407.9375 L 349.625 407.03125 L 350.375 406.0625 L 351.125 405.0625 L 351.875 404.0625 L 352.5625 403.0625 L 353.25 402.0625 L 353.90625 401.0625 L 354.5625 400.03125 L 355.21875 399 L 355.8125 397.90625 L 356.4375 396.84375 L 357.03125 395.78125 L 357.5625 394.6875 L 358.09375 393.59375 L 358.65625 392.46875 L 359.15625 391.375 L 359.65625 390.25 L 360.09375 389.09375 L 360.5625 387.96875 L 360.96875 386.8125 L 361.375 385.65625 L 361.75 384.5 L 362.125 383.34375 L 362.46875 382.15625 L 362.8125 380.96875 L 363.09375 379.78125 L 363.375 378.59375 L 363.6875 377.375 L 363.875 376.1875 L 364.125 374.96875 L 364.34375 373.78125 L 364.5 372.5625 L 364.6875 371.34375 L 364.8125 370.125 L 364.9375 368.90625 L 365 367.6875 L 365.09375 366.4375 L 365.125 365.21875 L 365.1875 364.03125 L 365.1875 362.78125 L 365.1875 361.5625 L 365.125 360.34375 L 365.09375 359.09375 L 365 357.875 L 364.9375 356.65625 L 364.8125 355.4375 L 364.6875 354.21875 L 364.5 353 L 364.34375 351.78125 L 364.125 350.59375 L 363.875 349.375 L 363.6875 348.15625 L 363.375 346.96875 L 363.09375 345.78125 L 362.8125 344.59375 L 362.46875 343.40625 L 362.125 342.25 L 361.75 341.0625 L 361.375 339.90625 L 360.96875 338.75 L 360.5625 337.59375 L 360.09375 336.46875 L 359.65625 335.3125 L 359.15625 334.1875 L 358.65625 333.0625 L 358.09375 331.96875 L 357.5625 330.875 L 357.03125 329.78125 L 356.4375 328.71875 L 355.8125 327.65625 L 355.21875 326.59375 L 354.5625 325.53125 L 353.90625 324.5 L 353.25 323.5 L 352.5625 322.46875 L 351.875 321.46875 L 351.125 320.5 L 350.375 319.5 L 349.625 318.5625 L 348.8125 317.59375 L 348.03125 316.6875 L 347.25 315.75 L 346.40625 314.84375 L 345.59375 313.96875 L 344.75 313.09375 L 343.875 312.25 L 342.96875 311.375 L 342.09375 310.5625 L 341.1875 309.75 L 340.21875 308.9375 L 339.3125 308.15625 L 338.34375 307.40625 L 337.375 306.65625 L 336.40625 305.9375 L 335.40625 305.21875 L 334.40625 304.53125 L 333.40625 303.84375 L 332.34375 303.1875 L 331.3125 302.53125 L 330.28125 301.9375 L 329.1875 301.3125 L 328.125 300.75 L 327.03125 300.1875 L 325.9375 299.625 L 324.875 299.09375 L 323.75 298.59375 L 322.625 298.09375 L 321.5 297.625 L 320.375 297.1875 L 319.21875 296.75 L 318.09375 296.3125 L 316.9375 295.9375 L 315.75 295.5625 L 314.59375 295.21875 L 313.4375 294.90625 L 312.21875 294.59375 L 311.0625 294.3125 L 309.84375 294.03125 L 308.65625 293.78125 L 307.5 293.59375 L 306.28125 293.375 L 305.0625 293.1875 L 303.84375 293.03125 L 302.65625 292.90625 L 301.4375 292.78125 L 300.21875 292.6875 L 299 292.59375 L 297.78125 292.53125 L 296.5625 292.53125 L 295.34375 292.5 z M 294.5 317.21875 C 319.1 317.21875 339.168 336.898 339.625 361.5 L 294.5 362.34375 L 294.5 407.46875 L 293.625 407.46875 C 268.692 407.01075 248.896 386.434 249.375 361.5 L 294.5 362.34375 L 294.5 317.21875 z "
   id="polygon25" />
</g>
<g
   id="LINE">
	
		
</g>
<g
   id="LINE_1_">
	
		<path
   style="fill:none;stroke:#000000;stroke-width:0.7087;stroke-linecap:round;stroke-linejoin:round;stroke-miterlimit:10"
   d="m 512.52698,350.43799 0,25.535"
   id="line31" />
</g>
<g
   id="LINE_2_"
   style="stroke:none;fill:#000000;fill-opacity:1">
	
		<path
   style="fill:#000000;stroke:none;stroke-width:0.70870000000000000;stroke-linecap:round;stroke-linejoin:round;stroke-miterlimit:10;fill-opacity:1"
   d="m 512.52698,375.97299 -150.76499,0 0,-25.535 150.76499,0"
   id="line34"
   inkscape:connector-curvature="0"
   sodipodi:nodetypes="cccc" />
</g>
<g
   id="LINE_3_">
	
		
</g>
<g
   id="LINE_4_">
	
		
</g>
<g
   id="LINE_5_">
	
		
</g>
<g
   id="LINE_6_">
	
		
</g>
<g
   id="LINE_7_">
	
		
</g>
<g
   id="LINE_8_">
	
		
</g>
<g
   id="LINE_9_">
	
		<path
   style="fill:#000000;stroke:none;stroke-width:0.70870000000000000;stroke-linecap:round;stroke-linejoin:round;stroke-miterlimit:10;fill-opacity:1"
   d="m 107.956,373.436 0,-21.29299 42.589,0 0,-31.52601 72.38901,42.58799 -72.38901,42.60901 0,-32.378 z"
   id="line55"
   inkscape:connector-curvature="0"
   sodipodi:nodetypes="cccccccc" />
</g>
<g
   id="LINE_10_">
	
		
</g>
<g
   id="LINE_11_">
	
		<path
   style="fill:none;stroke:#000000;stroke-width:0.7087;stroke-linecap:round;stroke-linejoin:round;stroke-miterlimit:10"
   d="m 308.10999,146 -25.53598,0"
   id="line61"
   inkscape:connector-curvature="0"
   sodipodi:nodetypes="cc" />
</g>
<g
   id="LINE_12_"
   style="stroke:none;fill:#000000;fill-opacity:1">
	
		<path
   style="fill:#000000;stroke:none;stroke-width:0.71407449000000001;stroke-linecap:round;stroke-linejoin:round;stroke-miterlimit:10;fill-opacity:1"
   d="m 282.57401,146 0,148.73245 25.53598,0 0,-148.73245"
   id="line64"
   inkscape:connector-curvature="0"
   sodipodi:nodetypes="cccc" />
</g>
<g
   id="LWPOLYLINE_8_">
	
		<path
   stroke-miterlimit="10"
   d="   M294.489,407.479c24.934,0,45.146-20.193,45.146-45.127c0-0.291,0-0.561,0-0.852l-45.146,0.852V407.479z"
   id="path67"
   stroke-linejoin="round"
   stroke-linecap="round"
   stroke-width="0.7087"
   stroke="#000000"
   fill="none" />
</g>
<g
   id="LWPOLYLINE_9_">
	
		
</g>
<g
   id="LWPOLYLINE_10_">
	
		<path
   stroke-miterlimit="10"
   d="   M294.489,317.205c-24.601,0-44.668,19.693-45.125,44.295l45.125,0.852V317.205z"
   id="path73"
   stroke-linejoin="round"
   stroke-linecap="round"
   stroke-width="0.7087"
   stroke="#000000"
   fill="none" />
</g>
<g
   id="LWPOLYLINE_11_">
	
		
</g>
<g
   id="LWPOLYLINE_12_"
   style="stroke:none;stroke-opacity:1;fill:#000000;fill-opacity:1">
	
		
</g>

<g
   id="LWPOLYLINE_14_"
   style="stroke:none;stroke-opacity:1;fill:#000000;fill-opacity:1">
	
		<path
   style="fill:#000000;fill-opacity:1;stroke:none"
   d="m 146.282,644.293 c -0.42583,-3.4928 0.87616,-8.52264 -0.625,-11.062 -12.47989,-0.17045 -25.63512,0.33446 -37.701,-0.25 0.18874,-11.1786 -0.34543,-23.0801 0.25,-33.852 11.44244,-0.21156 23.70365,0.39565 34.671,-0.291 -0.38786,-3.41244 0.78858,-8.20289 -0.561,-10.771 -11.37325,-0.15109 -23.33179,0.28312 -34.364,-0.209 0.22085,-10.30882 -0.39339,-21.45273 0.271,-31.318 12.29597,-0.20536 25.39627,0.3936 37.211,-0.293 -0.24854,-3.48748 0.50349,-7.76588 -0.354,-10.772 -16.32033,0 -32.64067,0 -48.961,0 -0.245691,32.86723 -0.03166,65.76809 -0.104,98.648 16.75366,0.23559 33.51176,0.12289 50.267,0.17 z"
   id="path85"
   inkscape:connector-curvature="0" />
</g>
<g
   id="LWPOLYLINE_15_"
   style="stroke:none;stroke-opacity:1;fill:#000000;fill-opacity:1">
	
		<path
   style="fill:#000000;fill-opacity:1;stroke:none"
   d="m 172.691,644.293 c 0.17541,-14.98863 -0.35052,-30.48533 0.25,-45.166 11.15103,-0.22031 23.14569,0.40302 33.823,-0.291 -0.37497,-3.41894 0.76188,-8.16237 -0.541,-10.771 -11.08944,-0.15756 -22.78252,0.28852 -33.532,-0.209 0.2033,-10.3187 -0.36231,-21.40631 0.25,-31.316 11.73401,-0.20565 24.27309,0.39376 35.526,-0.293 -0.50717,-3.36209 1.0456,-8.59312 -0.77,-10.772 -15.61233,0 -31.22467,0 -46.837,0 -0.24569,32.86723 -0.0317,65.76809 -0.104,98.648 3.97218,0.24226 7.95778,0.12332 11.935,0.17 z"
   id="path88"
   inkscape:connector-curvature="0" />
</g>
<g
   id="LWPOLYLINE_16_"
   style="stroke:none;stroke-opacity:1;fill:#000000;fill-opacity:1">
	
		<path
   style="fill:#000000;fill-opacity:1;stroke:none"
   d="m 229.754,629.82 c -4.06995,0.4381 -9.57558,-0.89354 -12.777,0.623 0.27364,4.50564 -0.53803,9.78315 0.354,13.849 4.07167,0 8.14333,0 12.215,0 0.27964,-4.81702 0.16082,-9.64915 0.208,-14.472 z"
   id="path91"
   inkscape:connector-curvature="0" />
</g>
</svg>