<?xml version="1.0" encoding="UTF-8" standalone="no"?>
<!-- Generator: Adobe Illustrator 16.0.1, SVG Export Plug-In . SVG Version: 6.00 Build 0)  -->

<svg
   xmlns:dc="http://purl.org/dc/elements/1.1/"
   xmlns:cc="http://creativecommons.org/ns#"
   xmlns:rdf="http://www.w3.org/1999/02/22-rdf-syntax-ns#"
   xmlns:svg="http://www.w3.org/2000/svg"
   xmlns="http://www.w3.org/2000/svg"
   xmlns:xlink="http://www.w3.org/1999/xlink"
   xmlns:sodipodi="http://sodipodi.sourceforge.net/DTD/sodipodi-0.dtd"
   xmlns:inkscape="http://www.inkscape.org/namespaces/inkscape"
   version="1.0"
   id="_x31_"
   x="0px"
   y="0px"
   width="350"
   height="350"
   viewBox="0 0 350 350"
   enable-background="new 0 0 612 792"
   xml:space="preserve"
   inkscape:version="0.48.2 r9819"
   sodipodi:docname="7005.svg"><metadata
   id="metadata61"><rdf:RDF><cc:Work
       rdf:about=""><dc:format>image/svg+xml</dc:format><dc:type
         rdf:resource="http://purl.org/dc/dcmitype/StillImage" /></cc:Work></rdf:RDF></metadata><defs
   id="defs59"><radialGradient
     r="333.18735"
     fy="467.91885"
     fx="373.24265"
     cy="467.91885"
     cx="373.24265"
     gradientTransform="matrix(0.83535071,2.5391117e-7,-2.4564601e-7,0.80815889,783.12101,707.99698)"
     gradientUnits="userSpaceOnUse"
     id="radialGradient3736"
     xlink:href="#linearGradient5443"
     inkscape:collect="always" /><linearGradient
     y2="254.73526"
     x2="123.47623"
     y1="344.03848"
     x1="123.50603"
     gradientTransform="matrix(2.3189708,0,0,2.0930998,-99.17808,-231.54972)"
     gradientUnits="userSpaceOnUse"
     id="linearGradient3734"
     xlink:href="#linearGradient3187"
     inkscape:collect="always" /><radialGradient
     r="333.18735"
     fy="710.99164"
     fx="373.24265"
     cy="710.99164"
     cx="373.24265"
     gradientTransform="matrix(0.86272608,1.0667183e-7,-5.1097115e-8,0.31434,772.90338,992.7076)"
     gradientUnits="userSpaceOnUse"
     id="radialGradient3732"
     xlink:href="#linearGradient5443"
     inkscape:collect="always" /><radialGradient
     r="333.18735"
     fy="710.99164"
     fx="373.24265"
     cy="710.99164"
     cx="373.24265"
     gradientTransform="matrix(0.86272608,1.0667183e-7,-5.1097115e-8,0.31434,772.90338,992.7076)"
     gradientUnits="userSpaceOnUse"
     id="radialGradient3722"
     xlink:href="#linearGradient5443"
     inkscape:collect="always" /><radialGradient
     r="333.18735"
     fy="467.91885"
     fx="373.24265"
     cy="467.91885"
     cx="373.24265"
     gradientTransform="matrix(0.83535071,2.5391117e-7,-2.4564601e-7,0.80815889,783.12101,707.99698)"
     gradientUnits="userSpaceOnUse"
     id="radialGradient3718"
     xlink:href="#linearGradient5443"
     inkscape:collect="always" /><radialGradient
     r="333.18735"
     fy="467.91885"
     fx="373.24265"
     cy="467.91885"
     cx="373.24265"
     gradientTransform="matrix(0.9201975,2.7970099e-7,-2.7059634e-7,0.8902438,-163.70313,61.921561)"
     gradientUnits="userSpaceOnUse"
     id="radialGradient3703"
     xlink:href="#linearGradient5443"
     inkscape:collect="always" /><linearGradient
     y2="254.73526"
     x2="123.47623"
     y1="344.03848"
     x1="123.50603"
     gradientTransform="matrix(2.3189708,0,0,2.0930998,-99.17808,-231.54972)"
     gradientUnits="userSpaceOnUse"
     id="linearGradient3701"
     xlink:href="#linearGradient3187"
     inkscape:collect="always" /><radialGradient
     r="333.18735"
     fy="710.99164"
     fx="373.24265"
     cy="710.99164"
     cx="373.24265"
     gradientTransform="matrix(0.9503534,1.1750652e-7,-5.6287062e-8,0.3462676,-174.95857,375.55031)"
     gradientUnits="userSpaceOnUse"
     id="radialGradient3699"
     xlink:href="#linearGradient5443"
     inkscape:collect="always" /><radialGradient
     r="333.18735"
     fy="467.91885"
     fx="373.24265"
     cy="467.91885"
     cx="373.24265"
     gradientTransform="matrix(0.9201975,2.7970099e-7,-2.7059634e-7,0.8902438,-163.70313,61.921561)"
     gradientUnits="userSpaceOnUse"
     id="radialGradient3680"
     xlink:href="#linearGradient5443"
     inkscape:collect="always" /><linearGradient
     y2="254.73526"
     x2="123.47623"
     y1="344.03848"
     x1="123.50603"
     gradientTransform="matrix(2.3189708,0,0,2.0930998,-99.17808,-231.54972)"
     gradientUnits="userSpaceOnUse"
     id="linearGradient3678"
     xlink:href="#linearGradient3187"
     inkscape:collect="always" /><radialGradient
     r="333.18735"
     fy="710.99164"
     fx="373.24265"
     cy="710.99164"
     cx="373.24265"
     gradientTransform="matrix(0.9503534,1.1750652e-7,-5.6287062e-8,0.3462676,-174.95857,375.55031)"
     gradientUnits="userSpaceOnUse"
     id="radialGradient3676"
     xlink:href="#linearGradient5443"
     inkscape:collect="always" /><radialGradient
     r="333.18735"
     fy="467.91885"
     fx="373.24265"
     cy="467.91885"
     cx="373.24265"
     gradientTransform="matrix(0.9201975,2.7970099e-7,-2.7059634e-7,0.8902438,-163.70313,61.921561)"
     gradientUnits="userSpaceOnUse"
     id="radialGradient3654"
     xlink:href="#linearGradient5443"
     inkscape:collect="always" /><linearGradient
     y2="254.73526"
     x2="123.47623"
     y1="344.03848"
     x1="123.50603"
     gradientTransform="matrix(2.3189708,0,0,2.0930998,-99.17808,-231.54972)"
     gradientUnits="userSpaceOnUse"
     id="linearGradient3652"
     xlink:href="#linearGradient3187"
     inkscape:collect="always" /><radialGradient
     r="333.18735"
     fy="710.99164"
     fx="373.24265"
     cy="710.99164"
     cx="373.24265"
     gradientTransform="matrix(0.9503534,1.1750652e-7,-5.6287062e-8,0.3462676,-174.95857,375.55031)"
     gradientUnits="userSpaceOnUse"
     id="radialGradient3650"
     xlink:href="#linearGradient5443"
     inkscape:collect="always" /><radialGradient
     r="333.18735"
     fy="467.91885"
     fx="373.24265"
     cy="467.91885"
     cx="373.24265"
     gradientTransform="matrix(0.9201975,2.7970099e-7,-2.7059634e-7,0.8902438,-163.70313,61.921561)"
     gradientUnits="userSpaceOnUse"
     id="radialGradient3627"
     xlink:href="#linearGradient5443"
     inkscape:collect="always" /><linearGradient
     y2="254.73526"
     x2="123.47623"
     y1="344.03848"
     x1="123.50603"
     gradientTransform="matrix(2.3189708,0,0,2.0930998,-99.17808,-231.54972)"
     gradientUnits="userSpaceOnUse"
     id="linearGradient3625"
     xlink:href="#linearGradient3187"
     inkscape:collect="always" /><radialGradient
     r="333.18735"
     fy="710.99164"
     fx="373.24265"
     cy="710.99164"
     cx="373.24265"
     gradientTransform="matrix(0.9503534,1.1750652e-7,-5.6287062e-8,0.3462676,-174.95857,375.55031)"
     gradientUnits="userSpaceOnUse"
     id="radialGradient3623"
     xlink:href="#linearGradient5443"
     inkscape:collect="always" /><radialGradient
     r="333.18735"
     fy="467.91885"
     fx="373.24265"
     cy="467.91885"
     cx="373.24265"
     gradientTransform="matrix(0.9201975,2.7970099e-7,-2.7059634e-7,0.8902438,-163.70313,61.921561)"
     gradientUnits="userSpaceOnUse"
     id="radialGradient3599"
     xlink:href="#linearGradient5443"
     inkscape:collect="always" /><linearGradient
     y2="254.73526"
     x2="123.47623"
     y1="344.03848"
     x1="123.50603"
     gradientTransform="matrix(2.3189708,0,0,2.0930998,-99.17808,-231.54972)"
     gradientUnits="userSpaceOnUse"
     id="linearGradient3597"
     xlink:href="#linearGradient3187"
     inkscape:collect="always" /><radialGradient
     r="333.18735"
     fy="710.99164"
     fx="373.24265"
     cy="710.99164"
     cx="373.24265"
     gradientTransform="matrix(0.9503534,1.1750652e-7,-5.6287062e-8,0.3462676,-174.95857,375.55031)"
     gradientUnits="userSpaceOnUse"
     id="radialGradient3595"
     xlink:href="#linearGradient5443"
     inkscape:collect="always" /><radialGradient
     r="333.18735"
     fy="467.91885"
     fx="373.24265"
     cy="467.91885"
     cx="373.24265"
     gradientTransform="matrix(0.9201975,2.7970099e-7,-2.7059634e-7,0.8902438,-163.70313,61.921561)"
     gradientUnits="userSpaceOnUse"
     id="radialGradient3525"
     xlink:href="#linearGradient5443"
     inkscape:collect="always" /><linearGradient
     y2="254.73526"
     x2="123.47623"
     y1="344.03848"
     x1="123.50603"
     gradientTransform="matrix(2.3189708,0,0,2.0930998,-99.17808,-231.54972)"
     gradientUnits="userSpaceOnUse"
     id="linearGradient3523"
     xlink:href="#linearGradient3187"
     inkscape:collect="always" /><radialGradient
     r="333.18735"
     fy="710.99164"
     fx="373.24265"
     cy="710.99164"
     cx="373.24265"
     gradientTransform="matrix(0.9503534,1.1750652e-7,-5.6287062e-8,0.3462676,-174.95857,375.55031)"
     gradientUnits="userSpaceOnUse"
     id="radialGradient3521"
     xlink:href="#linearGradient5443"
     inkscape:collect="always" /><radialGradient
     r="333.18735"
     fy="467.91885"
     fx="373.24265"
     cy="467.91885"
     cx="373.24265"
     gradientTransform="matrix(0.9201975,2.7970099e-7,-2.7059634e-7,0.8902438,-163.70313,61.921561)"
     gradientUnits="userSpaceOnUse"
     id="radialGradient3497"
     xlink:href="#linearGradient5443"
     inkscape:collect="always" /><linearGradient
     y2="254.73526"
     x2="123.47623"
     y1="344.03848"
     x1="123.50603"
     gradientTransform="matrix(2.3189708,0,0,2.0930998,-99.17808,-231.54972)"
     gradientUnits="userSpaceOnUse"
     id="linearGradient3495"
     xlink:href="#linearGradient3187"
     inkscape:collect="always" /><radialGradient
     r="333.18735"
     fy="710.99164"
     fx="373.24265"
     cy="710.99164"
     cx="373.24265"
     gradientTransform="matrix(0.9503534,1.1750652e-7,-5.6287062e-8,0.3462676,-174.95857,375.55031)"
     gradientUnits="userSpaceOnUse"
     id="radialGradient3493"
     xlink:href="#linearGradient5443"
     inkscape:collect="always" /><linearGradient
     id="linearGradient5443"><stop
       id="stop5445"
       offset="0"
       style="stop-color:#ffffff;stop-opacity:0;" /><stop
       id="stop5447"
       offset="1"
       style="stop-color:#000000;stop-opacity:0.33962265;" /></linearGradient><linearGradient
     id="linearGradient3157"><stop
       style="stop-color:#49bcff;stop-opacity:1;"
       offset="0"
       id="stop3159" /><stop
       style="stop-color:#494c96;stop-opacity:1;"
       offset="1"
       id="stop3161" /></linearGradient><linearGradient
     id="linearGradient3171"><stop
       id="stop3173"
       offset="0"
       style="stop-color:#49bcff;stop-opacity:1;" /><stop
       id="stop3175"
       offset="1"
       style="stop-color:#494cdc;stop-opacity:1;" /></linearGradient><linearGradient
     id="linearGradient3187"><stop
       style="stop-color:#ffffff;stop-opacity:0.39622641;"
       offset="0"
       id="stop3189" /><stop
       style="stop-color:#000000;stop-opacity:1;"
       offset="1"
       id="stop3191" /></linearGradient><linearGradient
     id="linearGradient4395"><stop
       style="stop-color:#110084;stop-opacity:1;"
       offset="0"
       id="stop4397" /><stop
       style="stop-color:#a695ff;stop-opacity:1;"
       offset="1"
       id="stop4399" /></linearGradient><linearGradient
     id="linearGradient4383"><stop
       style="stop-color:#00037f;stop-opacity:1;"
       offset="0"
       id="stop4385" /><stop
       style="stop-color:#00037f;stop-opacity:0;"
       offset="1"
       id="stop4387" /></linearGradient><inkscape:perspective
     sodipodi:type="inkscape:persp3d"
     inkscape:vp_x="0 : 526.18109 : 1"
     inkscape:vp_y="0 : 1000 : 0"
     inkscape:vp_z="744.09448 : 526.18109 : 1"
     inkscape:persp3d-origin="372.04724 : 350.78739 : 1"
     id="perspective3214" /><linearGradient
     inkscape:collect="always"
     xlink:href="#linearGradient4383"
     id="linearGradient4389"
     x1="371.42194"
     y1="298.59412"
     x2="396.91168"
     y2="655.4505"
     gradientUnits="userSpaceOnUse" /><linearGradient
     inkscape:collect="always"
     xlink:href="#linearGradient4395"
     id="linearGradient4401"
     x1="360.49777"
     y1="167.50403"
     x2="360.49777"
     y2="540.86719"
     gradientUnits="userSpaceOnUse" /><linearGradient
     inkscape:collect="always"
     xlink:href="#linearGradient3187"
     id="linearGradient4562"
     gradientUnits="userSpaceOnUse"
     gradientTransform="matrix(2.3189708,0,0,2.0930998,93.115298,-256.84999)"
     x1="123.50603"
     y1="344.03848"
     x2="123.47623"
     y2="254.73526" /><radialGradient
     inkscape:collect="always"
     xlink:href="#linearGradient3171"
     id="radialGradient4569"
     gradientUnits="userSpaceOnUse"
     gradientTransform="matrix(0.9201975,2.7970099e-7,-2.7059634e-7,0.8902438,28.590287,48.634335)"
     cx="373.24265"
     cy="467.91885"
     fx="373.24265"
     fy="467.91885"
     r="333.18735" /><radialGradient
     inkscape:collect="always"
     xlink:href="#linearGradient3157"
     id="radialGradient4572"
     gradientUnits="userSpaceOnUse"
     gradientTransform="matrix(0.9503534,1.1750652e-7,-5.6287062e-8,0.3462676,17.334826,362.44227)"
     cx="373.24265"
     cy="710.99164"
     fx="373.24265"
     fy="710.99164"
     r="333.18735" /><filter
     inkscape:collect="always"
     id="filter4659"
     color-interpolation-filters="sRGB"><feGaussianBlur
       inkscape:collect="always"
       stdDeviation="2.7750933"
       id="feGaussianBlur4661" /></filter><radialGradient
     inkscape:collect="always"
     xlink:href="#linearGradient3157"
     id="radialGradient4766"
     gradientUnits="userSpaceOnUse"
     gradientTransform="matrix(0.9503534,1.1750652e-7,-5.6287062e-8,0.3462676,17.334826,362.44227)"
     cx="373.24265"
     cy="710.99164"
     fx="373.24265"
     fy="710.99164"
     r="333.18735" /><radialGradient
     inkscape:collect="always"
     xlink:href="#linearGradient3171"
     id="radialGradient4768"
     gradientUnits="userSpaceOnUse"
     gradientTransform="matrix(0.9201975,2.7970099e-7,-2.7059634e-7,0.8902438,28.590287,48.634335)"
     cx="373.24265"
     cy="467.91885"
     fx="373.24265"
     fy="467.91885"
     r="333.18735" /><linearGradient
     inkscape:collect="always"
     xlink:href="#linearGradient3187"
     id="linearGradient4770"
     gradientUnits="userSpaceOnUse"
     gradientTransform="matrix(2.3189708,0,0,2.0930998,93.115298,-256.84999)"
     x1="123.50603"
     y1="344.03848"
     x2="123.47623"
     y2="254.73526" /><linearGradient
     inkscape:collect="always"
     xlink:href="#linearGradient3187"
     id="linearGradient4773"
     gradientUnits="userSpaceOnUse"
     gradientTransform="matrix(2.3189708,0,0,2.0930998,93.115298,-256.84999)"
     x1="123.50603"
     y1="344.03848"
     x2="123.47623"
     y2="254.73526" /><radialGradient
     inkscape:collect="always"
     xlink:href="#linearGradient3171"
     id="radialGradient4776"
     gradientUnits="userSpaceOnUse"
     gradientTransform="matrix(0.9201975,2.7970099e-7,-2.7059634e-7,0.8902438,28.590287,48.634335)"
     cx="373.24265"
     cy="467.91885"
     fx="373.24265"
     fy="467.91885"
     r="333.18735" /><radialGradient
     inkscape:collect="always"
     xlink:href="#linearGradient3157"
     id="radialGradient4779"
     gradientUnits="userSpaceOnUse"
     gradientTransform="matrix(0.9503534,1.1750652e-7,-5.6287062e-8,0.3462676,17.334826,362.44227)"
     cx="373.24265"
     cy="710.99164"
     fx="373.24265"
     fy="710.99164"
     r="333.18735" /><radialGradient
     inkscape:collect="always"
     xlink:href="#linearGradient3157"
     id="radialGradient4790"
     gradientUnits="userSpaceOnUse"
     gradientTransform="matrix(0.9503534,1.1750652e-7,-5.6287062e-8,0.3462676,17.334826,362.44227)"
     cx="373.24265"
     cy="710.99164"
     fx="373.24265"
     fy="710.99164"
     r="333.18735" /><radialGradient
     inkscape:collect="always"
     xlink:href="#linearGradient3171"
     id="radialGradient4792"
     gradientUnits="userSpaceOnUse"
     gradientTransform="matrix(0.9201975,2.7970099e-7,-2.7059634e-7,0.8902438,28.590287,48.634335)"
     cx="373.24265"
     cy="467.91885"
     fx="373.24265"
     fy="467.91885"
     r="333.18735" /><linearGradient
     inkscape:collect="always"
     xlink:href="#linearGradient3187"
     id="linearGradient4794"
     gradientUnits="userSpaceOnUse"
     gradientTransform="matrix(2.3189708,0,0,2.0930998,93.115298,-256.84999)"
     x1="123.50603"
     y1="344.03848"
     x2="123.47623"
     y2="254.73526" /><linearGradient
     inkscape:collect="always"
     xlink:href="#linearGradient3187"
     id="linearGradient4799"
     gradientUnits="userSpaceOnUse"
     gradientTransform="matrix(2.3189708,0,0,2.0930998,93.115298,-256.84999)"
     x1="123.50603"
     y1="344.03848"
     x2="123.47623"
     y2="254.73526" /><radialGradient
     inkscape:collect="always"
     xlink:href="#linearGradient3171"
     id="radialGradient4802"
     gradientUnits="userSpaceOnUse"
     gradientTransform="matrix(0.9201975,2.7970099e-7,-2.7059634e-7,0.8902438,28.590287,48.634335)"
     cx="373.24265"
     cy="467.91885"
     fx="373.24265"
     fy="467.91885"
     r="333.18735" /><radialGradient
     inkscape:collect="always"
     xlink:href="#linearGradient3157"
     id="radialGradient4805"
     gradientUnits="userSpaceOnUse"
     gradientTransform="matrix(0.9503534,1.1750652e-7,-5.6287062e-8,0.3462676,17.334826,362.44227)"
     cx="373.24265"
     cy="710.99164"
     fx="373.24265"
     fy="710.99164"
     r="333.18735" /><radialGradient
     inkscape:collect="always"
     xlink:href="#linearGradient3157"
     id="radialGradient4820"
     gradientUnits="userSpaceOnUse"
     gradientTransform="matrix(0.9503534,1.1750652e-7,-5.6287062e-8,0.3462676,17.334826,362.44227)"
     cx="373.24265"
     cy="710.99164"
     fx="373.24265"
     fy="710.99164"
     r="333.18735" /><radialGradient
     inkscape:collect="always"
     xlink:href="#linearGradient3171"
     id="radialGradient4822"
     gradientUnits="userSpaceOnUse"
     gradientTransform="matrix(0.9201975,2.7970099e-7,-2.7059634e-7,0.8902438,28.590287,48.634335)"
     cx="373.24265"
     cy="467.91885"
     fx="373.24265"
     fy="467.91885"
     r="333.18735" /><linearGradient
     inkscape:collect="always"
     xlink:href="#linearGradient3187"
     id="linearGradient4824"
     gradientUnits="userSpaceOnUse"
     gradientTransform="matrix(2.3189708,0,0,2.0930998,93.115298,-256.84999)"
     x1="123.50603"
     y1="344.03848"
     x2="123.47623"
     y2="254.73526" /><linearGradient
     inkscape:collect="always"
     xlink:href="#linearGradient3187"
     id="linearGradient4827"
     gradientUnits="userSpaceOnUse"
     gradientTransform="matrix(2.3189708,0,0,2.0930998,-99.17808,-231.54972)"
     x1="123.50603"
     y1="344.03848"
     x2="123.47623"
     y2="254.73526" /><radialGradient
     inkscape:collect="always"
     xlink:href="#linearGradient5443"
     id="radialGradient4832"
     gradientUnits="userSpaceOnUse"
     gradientTransform="matrix(0.9201975,2.7970099e-7,-2.7059634e-7,0.8902438,-163.70313,61.921561)"
     cx="373.24265"
     cy="467.91885"
     fx="373.24265"
     fy="467.91885"
     r="333.18735" /><radialGradient
     inkscape:collect="always"
     xlink:href="#linearGradient5443"
     id="radialGradient4835"
     gradientUnits="userSpaceOnUse"
     gradientTransform="matrix(0.9503534,1.1750652e-7,-5.6287062e-8,0.3462676,-174.95857,375.55031)"
     cx="373.24265"
     cy="710.99164"
     fx="373.24265"
     fy="710.99164"
     r="333.18735" /><filter
     inkscape:collect="always"
     id="filter5511"
     color-interpolation-filters="sRGB"><feGaussianBlur
       inkscape:collect="always"
       stdDeviation="3.2374974"
       id="feGaussianBlur5513" /></filter><radialGradient
     inkscape:collect="always"
     xlink:href="#linearGradient5443-5"
     id="radialGradient4835-3"
     gradientUnits="userSpaceOnUse"
     gradientTransform="matrix(0.9503534,1.1750652e-7,-5.6287062e-8,0.3462676,317.80591,185.68771)"
     cx="373.24265"
     cy="710.99164"
     fx="373.24265"
     fy="710.99164"
     r="333.18735" /><linearGradient
     id="linearGradient5443-5"><stop
       id="stop5445-4"
       offset="0"
       style="stop-color:#ffffff;stop-opacity:0;" /><stop
       id="stop5447-3"
       offset="1"
       style="stop-color:#000000;stop-opacity:0.33962265;" /></linearGradient><radialGradient
     inkscape:collect="always"
     xlink:href="#linearGradient5443"
     id="radialGradient3272"
     gradientUnits="userSpaceOnUse"
     gradientTransform="matrix(0.9503534,1.1750652e-7,-5.6287062e-8,0.3462676,-174.95857,375.55031)"
     cx="373.24265"
     cy="710.99164"
     fx="373.24265"
     fy="710.99164"
     r="333.18735" /><linearGradient
     inkscape:collect="always"
     xlink:href="#linearGradient3187"
     id="linearGradient3274"
     gradientUnits="userSpaceOnUse"
     gradientTransform="matrix(2.3189708,0,0,2.0930998,-99.17808,-231.54972)"
     x1="123.50603"
     y1="344.03848"
     x2="123.47623"
     y2="254.73526" /><radialGradient
     inkscape:collect="always"
     xlink:href="#linearGradient5443"
     id="radialGradient3276"
     gradientUnits="userSpaceOnUse"
     gradientTransform="matrix(0.9201975,2.7970099e-7,-2.7059634e-7,0.8902438,-163.70313,61.921561)"
     cx="373.24265"
     cy="467.91885"
     fx="373.24265"
     fy="467.91885"
     r="333.18735" /><radialGradient
     inkscape:collect="always"
     xlink:href="#linearGradient5443"
     id="radialGradient3410"
     gradientUnits="userSpaceOnUse"
     gradientTransform="matrix(0.86272608,1.0667183e-7,-5.1097115e-8,0.31434,772.90338,992.7076)"
     cx="373.24265"
     cy="710.99164"
     fx="373.24265"
     fy="710.99164"
     r="333.18735" /><linearGradient
     inkscape:collect="always"
     xlink:href="#linearGradient3187"
     id="linearGradient3412"
     gradientUnits="userSpaceOnUse"
     gradientTransform="matrix(2.3189708,0,0,2.0930998,-99.17808,-231.54972)"
     x1="123.50603"
     y1="344.03848"
     x2="123.47623"
     y2="254.73526" /><radialGradient
     inkscape:collect="always"
     xlink:href="#linearGradient5443"
     id="radialGradient3414"
     gradientUnits="userSpaceOnUse"
     gradientTransform="matrix(0.83535071,2.5391117e-7,-2.4564601e-7,0.80815889,783.12101,707.99698)"
     cx="373.24265"
     cy="467.91885"
     fx="373.24265"
     fy="467.91885"
     r="333.18735" /></defs><sodipodi:namedview
   pagecolor="#ffffff"
   bordercolor="#666666"
   borderopacity="1"
   objecttolerance="10"
   gridtolerance="10"
   guidetolerance="10"
   inkscape:pageopacity="0"
   inkscape:pageshadow="2"
   inkscape:window-width="1920"
   inkscape:window-height="1071"
   id="namedview57"
   showgrid="false"
   showguides="true"
   inkscape:guide-bbox="true"
   inkscape:zoom="0.84281414"
   inkscape:cx="408.15235"
   inkscape:cy="74.648178"
   inkscape:window-x="0"
   inkscape:window-y="0"
   inkscape:window-maximized="1"
   inkscape:current-layer="_x31_"
   fit-margin-top="0"
   fit-margin-left="0"
   fit-margin-right="0"
   fit-margin-bottom="0" />

<g
   id="LWPOLYLINE_1_"
   style="fill:#000000;fill-opacity:1;stroke:none"
   transform="translate(498.91485,-307.32319)">
	
		
</g>



<g
   id="LWPOLYLINE_5_"
   style="fill:#000000;fill-opacity:1;stroke:none"
   transform="translate(498.91485,-307.32319)">
	
		
</g>



<g
   id="LWPOLYLINE_9_"
   style="fill:#000000;fill-opacity:1;stroke:none"
   transform="translate(498.91485,-307.32319)">
	
		
</g>





<g
   id="LWPOLYLINE_15_"
   style="fill:#000000;fill-opacity:1;stroke:none"
   transform="translate(498.91485,-307.32319)">
	
		
</g>
<g
   id="LWPOLYLINE_16_"
   style="fill:#000000;fill-opacity:1;stroke:none"
   transform="translate(498.91485,-307.32319)">
	
		
</g>

<g
   id="g3725"
   transform="translate(-919.90955,-911.15)"><rect
     inkscape:export-ydpi="29.879425"
     inkscape:export-xdpi="29.879425"
     inkscape:export-filename="C:\Documents and Settings\adscro24\Desktop\128.png"
     style="opacity:0.61338286;fill:#464646;fill-opacity:0.78540775;stroke:none;filter:url(#filter4659)"
     id="rect3279"
     width="152.93848"
     height="152.93848"
     x="135.39355"
     y="48.636749"
     rx="16.067965"
     ry="12.45238"
     transform="matrix(2.1051501,0,0,2.1051501,648.90657,822.78311)" /><rect
     inkscape:export-ydpi="29.879425"
     inkscape:export-xdpi="29.879425"
     inkscape:export-filename="C:\Documents and Settings\adscro24\Desktop\128.png"
     style="opacity:0.61338286;fill:url(#radialGradient3410);fill-opacity:1;stroke:#000000;stroke-width:3.26806188;stroke-miterlimit:4;stroke-opacity:1;stroke-dasharray:none"
     id="rect3155"
     width="321.95847"
     height="321.95847"
     x="933.9303"
     y="925.17072"
     rx="33.825481"
     ry="26.21413" /><path
     transform="matrix(0.90779502,0,0,0.90779502,931.7299,651.7849)"
     inkscape:export-ydpi="29.879425"
     inkscape:export-xdpi="29.879425"
     inkscape:export-filename="C:\Documents and Settings\adscro24\Desktop\128.png"
     inkscape:connector-curvature="0"
     style="opacity:0.61338286;fill:url(#linearGradient3412);fill-opacity:1;stroke:none;filter:url(#filter5511)"
     d="m 46.58172,323.34879 c -19.62748,0 -35.44272,12.0976 -35.44272,27.14163 l 0,124.30857 c 29.25482,11.38638 132.70149,11.89599 165.40488,-5.79022 33.32802,-18.02397 127.54379,-68.44264 171.82484,-52.72052 l 0,-65.79783 c 0,-15.04403 -15.7986,-27.14163 -35.4261,-27.14163 l -266.3609,0 z M 11.139,586.81982 l 0,42.88373 c 0,1.33144 0.14331,2.63588 0.38253,3.915 -0.11919,-12.81092 -0.25965,-28.88939 -0.38253,-46.79873 z"
     id="rect3177" /><rect
     inkscape:export-ydpi="29.879425"
     inkscape:export-xdpi="29.879425"
     inkscape:export-filename="C:\Documents and Settings\adscro24\Desktop\128.png"
     style="opacity:0.61338286;fill:url(#radialGradient3414);fill-opacity:1;stroke:#ffffff;stroke-width:0.68992418;stroke-linecap:square;stroke-miterlimit:4;stroke-opacity:1;stroke-dasharray:none"
     id="rect3473"
     width="306.12445"
     height="306.12445"
     x="941.84735"
     y="933.08777"
     rx="32.161926"
     ry="24.924913" /><rect
     inkscape:export-ydpi="29.879425"
     inkscape:export-xdpi="29.879425"
     inkscape:export-filename="C:\Documents and Settings\adscro24\Desktop\128.png"
     style="opacity:0.61338286;fill:#ffffff;fill-opacity:0;stroke:#000000;stroke-width:3.26806188;stroke-miterlimit:4;stroke-opacity:1;stroke-dasharray:none"
     id="rect3155-2"
     width="321.95847"
     height="321.95847"
     x="933.9303"
     y="925.17072"
     rx="33.825481"
     ry="26.21413" /></g><g
   id="LWPOLYLINE_2_-2"
   style="fill:#000000;fill-opacity:1;stroke:none"
   transform="translate(400.39147,135.8211)">
	
		
</g><g
   id="g3012"
   transform="matrix(0.49984966,0,0,0.49984966,21.792636,-22.728126)"><g
     style="fill:#000000;fill-opacity:1;stroke:none"
     id="LWPOLYLINE_10_">
	
		<path
   inkscape:connector-curvature="0"
   id="path34"
   d="m 196.65625,547.53125 c -0.0534,32.00164 -0.54905,64.84588 0.125,96.34375 16.15812,-0.84111 34.86615,3.24304 48.40625,-7.96875 10.43383,-11.13946 8.70111,-27.85071 9.4059,-42 -0.86664,-13.96183 0.43027,-30.90234 -11.2184,-40.90625 -11.47158,-8.58233 -26.61731,-4.52811 -39.90625,-5.4686 -2.27075,-1.4e-4 -4.54201,2.4e-4 -6.8125,-1.5e-4 z m 11.4375,10.78125 c 9.84426,0.93391 22.39277,-3.09492 29.5625,5.78115 7.09179,12.37469 3.65664,27.30056 4.48081,40.88585 0.23478,10.5811 -1.71406,25.58727 -14.66831,27.3955 -6.36993,1.13894 -12.87755,0.47657 -19.3125,0.65615 -0.10016,-24.90589 -0.0482,-49.81289 -0.0625,-74.71865 z"
   style="fill:#000000;fill-opacity:1;stroke:none" />
</g><g
     style="fill:#000000;fill-opacity:1;stroke:none"
     id="LWPOLYLINE_2_">
	
		<path
   inkscape:connector-curvature="0"
   id="path10"
   d="m 159.28125,410.4375 c -0.43988,32.01409 -0.0618,64.13311 -0.1875,96.1875 9.86185,3.24341 13.37727,-0.30241 11.625,-8.9375 0.17817,-10.99887 -0.34919,-22.5486 0.25,-33.21875 12.71267,-0.0873 28.27401,1.97899 37,-9.53115 7.57383,-10.99832 7.04963,-27.90491 -2.0313,-37.90625 -11.53923,-10.10756 -27.85098,-5.55358 -41.78125,-6.5936 -1.62481,-2.2e-4 -3.25065,3.9e-4 -4.87495,-2.5e-4 z m 11.4375,10.8125 c 9.06161,0.89711 20.75503,-3.08838 27.125,5.59355 6.33668,9.40501 1.97312,25.89573 -10.71875,26.56265 -5.43888,0.53229 -10.94079,0.12299 -16.40625,0.2498 0,-10.80183 0,-21.605 0,-32.406 z"
   style="fill:#000000;fill-opacity:1;stroke:none" />
</g><g
     style="fill:#000000;fill-opacity:1;stroke:none"
     id="LWPOLYLINE_6_">
	
		<path
   inkscape:connector-curvature="0"
   id="path22"
   d="m 346.96875,410.46875 c -0.004,31.979 -0.6309,64.96979 0.1875,96.34375 16.1397,-0.86092 34.87805,3.28927 48.375,-7.96875 10.63121,-11.43579 8.63383,-28.52963 9.4059,-42.97978 -0.96793,-14.40096 0.21686,-32.75465 -13.5934,-41.61397 -12.35642,-6.42762 -26.80589,-2.85996 -40.15625,-3.7811 -1.40617,-1.3e-4 -2.81283,2.3e-4 -4.21875,-1.5e-4 z M 358.4375,421.25 c 9.85746,0.91492 22.41547,-3.06136 29.59375,5.81245 7.03563,12.62151 3.60531,27.72375 4.40615,41.53125 0.26591,10.42348 -1.97729,24.98897 -14.6249,26.75 -6.37015,1.13603 -12.87727,0.47851 -19.3125,0.65615 -0.10848,-24.91621 -0.0489,-49.83391 -0.0625,-74.74985 z"
   style="fill:#000000;fill-opacity:1;stroke:none" />
</g><g
     style="fill:#000000;fill-opacity:1;stroke:none"
     id="LWPOLYLINE_14_">
	
		<path
   id="polygon46"
   d="m 222.9375,145.5 0,44.5 -178.46875,0 0,22.28125 178.46875,0 0,89.03125 -178.46875,0 0,22.28125 178.46875,0 0,44.5 89.21875,0 0,-44.5 44.59375,0 0,-133.59375 -44.59375,0 0,-44.5 -89.21875,0 z m 22.5,22.4375 44.03125,0 0,177.71875 -44.03125,0 0,-177.71875 z m 66.46875,44 22.4375,0 0,89.71875 -22.4375,0 0,-89.71875 z"
   style="fill:#000000;fill-opacity:1;stroke:none"
   inkscape:connector-curvature="0" />
</g><g
     style="fill:#000000;fill-opacity:1;stroke:none"
     id="LWPOLYLINE">
	
		<path
   inkscape:connector-curvature="0"
   id="path4"
   d="m 84.321,477.758 c -1.973202,11.9912 3.474967,26.63739 16.528,29.368 13.7956,3.67659 33.28544,0.65409 38.369,-14.801 4.76729,-12.97271 -0.85429,-28.39607 -13.322,-34.718 -9.52936,-6.76756 -25.09779,-9.83423 -27.376,-23.166 -1.914355,-10.6529 9.71773,-18.15291 19.241,-15.199 7.95424,1.40912 9.68256,10.87787 10.101,16.982 3.97433,0 7.94867,0 11.923,0 2.00182,-12.04482 -5.5914,-25.64863 -18.534,-26.872 -13.62668,-2.77185 -31.309868,2.80351 -34.453,17.949 -3.627189,12.47726 3.588953,25.49103 14.95741,31.02358 9.33255,6.23443 24.21214,9.32682 26.51259,22.07342 1.71467,9.43552 -6.3815,18.09142 -15.854,17.27 -10.83579,1.19422 -18.123448,-9.81672 -16.443,-19.784 -3.87988,-0.1794 -7.76729,-0.0915 -11.65,-0.126 z"
   style="fill:#000000;fill-opacity:1;stroke:none" />
</g><g
     style="fill:#000000;fill-opacity:1;stroke:none"
     id="LWPOLYLINE_3_">
	
		<path
   inkscape:connector-curvature="0"
   id="path13"
   d="m 242.147,410.455 c -3.85267,0 -7.70533,0 -11.558,0 -0.19003,32.04938 -0.0267,64.11889 -0.081,96.176 3.76641,0.39113 7.70564,0.0502 11.538,0.162 0.13667,-32.11215 0.0753,-64.22547 0.101,-96.338 z"
   style="fill:#000000;fill-opacity:1;stroke:none" />
</g><g
     style="fill:#000000;fill-opacity:1;stroke:none"
     id="LWPOLYLINE_4_">
	
		<path
   inkscape:connector-curvature="0"
   id="path16"
   d="m 315.229,410.455 c 0,27.35533 0,54.71067 0,82.066 -12.45883,-27.22409 -24.13936,-55.07414 -36.806,-82.066 -5.40633,0 -10.81267,0 -16.219,0 -0.28387,32.03803 -0.0399,64.12079 -0.121,96.176 3.48474,0.39129 7.15245,0.0502 10.707,0.162 0.19331,-27.61995 0.0238,-55.26401 0.081,-82.893 12.71463,27.50503 24.72984,55.65348 37.62,82.896 5.134,0 10.268,0 15.402,0 0.28391,-32.03077 0.0398,-64.10756 0.121,-96.156 -3.58693,-0.26371 -7.19146,-0.13417 -10.785,-0.185 z"
   style="fill:#000000;fill-opacity:1;stroke:none" />
</g><g
     style="fill:#000000;fill-opacity:1;stroke:none"
     id="LWPOLYLINE_7_">
	
		<path
   inkscape:connector-curvature="0"
   id="path25"
   d="m 472.224,506.797 c -0.38772,-3.41881 0.79555,-8.22819 -0.567,-10.787 -11.438,0 -22.876,0 -34.314,0 0,-28.46467 0,-56.92933 0,-85.394 -3.74444,-0.39055 -7.66085,-0.0506 -11.471,-0.162 -0.38241,32.02144 -0.0537,64.12357 -0.163,96.176 15.50279,0.22783 31.01057,0.12253 46.515,0.167 z"
   style="fill:#000000;fill-opacity:1;stroke:none" />
</g><g
     style="fill:#000000;fill-opacity:1;stroke:none"
     id="LWPOLYLINE_8_">
	
		<path
   inkscape:connector-curvature="0"
   id="path28"
   d="m 530.341,506.797 c -0.38772,-3.41881 0.79555,-8.22819 -0.567,-10.787 -12.17911,-0.16489 -25.02103,0.33303 -36.788,-0.244 0.16706,-10.90661 -0.3271,-22.47443 0.244,-32.977 11.14752,-0.22248 23.17538,0.43538 33.786,-0.324 -0.36762,-3.317 0.74706,-7.93248 -0.527,-10.458 -11.08249,-0.16651 -22.82478,0.32678 -33.503,-0.244 0.17695,-10.07172 -0.33113,-20.82846 0.244,-30.502 11.98794,-0.2204 24.86052,0.44386 36.301,-0.324 -0.25575,-3.3867 0.51958,-7.59853 -0.365,-10.482 -15.91133,0 -31.82267,0 -47.734,0 -0.19003,32.04938 -0.0267,64.11889 -0.081,96.176 16.32803,0.22407 32.66046,0.1249 48.99,0.166 z"
   style="fill:#000000;fill-opacity:1;stroke:none" />
</g><g
     style="fill:#000000;fill-opacity:1;stroke:none"
     id="LWPOLYLINE_11_">
	
		<path
   inkscape:connector-curvature="0"
   id="path37"
   d="m 324.355,643.877 c -0.3877,-3.43289 0.79577,-8.25298 -0.568,-10.827 -12.17912,-0.16354 -25.01572,0.33039 -36.786,-0.242 0.16644,-10.90623 -0.32582,-22.47115 0.243,-32.975 11.16204,-0.1953 23.09709,0.38243 33.787,-0.285 -0.36735,-3.33072 0.74655,-7.95522 -0.527,-10.497 -11.08322,-0.16512 -22.82072,0.32405 -33.503,-0.242 0.1765,-10.07183 -0.33025,-20.82691 0.243,-30.502 12.00237,-0.19229 24.77674,0.38741 36.301,-0.283 -0.25687,-3.39247 0.52096,-7.61297 -0.365,-10.502 -15.91133,0 -31.82267,0 -47.734,0 -0.19002,32.04278 -0.0267,64.10627 -0.081,96.157 16.3272,0.26726 32.66065,0.14898 48.99,0.198 z"
   style="fill:#000000;fill-opacity:1;stroke:none" />
</g><g
     style="fill:#000000;fill-opacity:1;stroke:none"
     id="LWPOLYLINE_12_">
	
		<path
   inkscape:connector-curvature="0"
   id="path40"
   d="m 391.638,574.08 c 1.65899,-10.81947 -2.07611,-24.79201 -14.396,-27.133 -13.41371,-3.0058 -31.92359,-0.90476 -37.398,13.87 -5.26735,15.52897 -2.15576,32.25567 -2.999,48.33656 -0.0112,13.37184 3.27365,31.21958 18.292,35.17044 12.42178,2.90349 29.74452,1.89032 35.293,-11.76 2.31002,-5.42783 3.47069,-12.41818 2.553,-17.762 -3.972,0 -7.944,0 -11.916,0 0.13654,8.90528 -3.87926,20.68958 -14.469,20.723 -8.96413,1.46257 -15.9356,-6.35618 -16.414,-14.842 -1.5341,-15.98716 -1.00321,-32.18968 -0.406,-48.227 -0.13796,-7.51048 4.34496,-15.07674 12.281,-16.171 7.32258,-2.04462 16.74932,1.76348 17.306,10.173 1.378,2.8625 -1.31244,9.06686 3.67884,7.62 2.86399,10e-4 5.73353,-0.003 8.59416,0.002 z"
   style="fill:#000000;fill-opacity:1;stroke:none" />
</g><g
     style="fill:#000000;fill-opacity:1;stroke:none"
     id="LWPOLYLINE_13_">
	
		<path
   inkscape:connector-curvature="0"
   id="path43"
   d="m 419.055,629.723 c -3.96888,0.42589 -9.30465,-0.87027 -12.443,0.609 0.24928,4.41395 -0.49102,9.51467 0.324,13.536 3.972,0 7.944,0 11.916,0 0.27312,-4.70818 0.15686,-9.43113 0.203,-14.145 z"
   style="fill:#000000;fill-opacity:1;stroke:none" />
</g><g
     style="fill:#000000;fill-opacity:1;stroke:none"
     id="LWPOLYLINE_17_">
	
		<rect
   style="fill:#000000;fill-opacity:1;stroke:none"
   id="rect55"
   height="21.596001"
   width="166.119"
   stroke-miterlimit="10"
   y="245.99899"
   x="402.42599" />
</g></g></svg>