<?xml version="1.0" encoding="UTF-8" standalone="no"?>
<!-- Generator: Adobe Illustrator 16.0.1, SVG Export Plug-In . SVG Version: 6.00 Build 0)  -->

<svg
   xmlns:dc="http://purl.org/dc/elements/1.1/"
   xmlns:cc="http://creativecommons.org/ns#"
   xmlns:rdf="http://www.w3.org/1999/02/22-rdf-syntax-ns#"
   xmlns:svg="http://www.w3.org/2000/svg"
   xmlns="http://www.w3.org/2000/svg"
   xmlns:sodipodi="http://sodipodi.sourceforge.net/DTD/sodipodi-0.dtd"
   xmlns:inkscape="http://www.inkscape.org/namespaces/inkscape"
   version="1.0"
   id="_x31_"
   x="0px"
   y="0px"
   width="612px"
   height="792px"
   viewBox="0 0 612 792"
   enable-background="new 0 0 612 792"
   xml:space="preserve"
   inkscape:version="0.48.2 r9819"
   sodipodi:docname="7006.svg"><metadata
   id="metadata37"><rdf:RDF><cc:Work
       rdf:about=""><dc:format>image/svg+xml</dc:format><dc:type
         rdf:resource="http://purl.org/dc/dcmitype/StillImage" /></cc:Work></rdf:RDF></metadata><defs
   id="defs35" /><sodipodi:namedview
   pagecolor="#ffffff"
   bordercolor="#666666"
   borderopacity="1"
   objecttolerance="10"
   gridtolerance="10"
   guidetolerance="10"
   inkscape:pageopacity="0"
   inkscape:pageshadow="2"
   inkscape:window-width="1920"
   inkscape:window-height="1071"
   id="namedview33"
   showgrid="false"
   inkscape:zoom="1.1919192"
   inkscape:cx="148.29013"
   inkscape:cy="344.48132"
   inkscape:window-x="0"
   inkscape:window-y="0"
   inkscape:window-maximized="1"
   inkscape:current-layer="_x31_" />
<g
   id="LWPOLYLINE_7_"
   style="stroke:none;fill:#000000;fill-opacity:1">
	
		<path
   style="stroke:none;fill:#000000;fill-opacity:1"
   d="M 510.90625 396.40625 L 509.09375 396.4375 L 507.34375 396.53125 L 505.65625 396.6875 L 504.03125 396.90625 L 502.46875 397.1875 L 500.96875 397.53125 L 499.53125 397.875 L 498.15625 398.3125 L 496.8125 398.84375 L 495.53125 399.375 L 494.34375 399.96875 L 493.1875 400.59375 L 492.0625 401.28125 L 490.96875 402 L 489.96875 402.75 L 489.03125 403.5625 L 488.125 404.40625 L 487.25 405.28125 L 486.46875 406.21875 L 485.6875 407.15625 L 484.96875 408.15625 L 484.34375 409.15625 L 483.6875 410.21875 L 483.09375 411.28125 L 482.5625 412.375 L 482.09375 413.5 L 481.625 414.65625 L 481.21875 415.8125 L 480.8125 417 L 480.5 418.21875 L 480.1875 419.40625 L 479.90625 420.65625 L 479.6875 421.90625 L 479.5 423.125 L 479.28125 424.40625 L 479.1875 425.6875 L 479.0625 426.96875 L 479 428.25 L 478.96875 429.53125 L 478.9375 430.8125 L 478.96875 432.65625 L 479.0625 434.40625 L 479.1875 436.15625 L 479.34375 437.78125 L 479.5625 439.4375 L 479.84375 440.96875 L 480.1875 442.46875 L 480.53125 443.9375 L 480.9375 445.34375 L 481.40625 446.71875 L 481.90625 448.03125 L 482.46875 449.3125 L 483 450.5 L 483.65625 451.65625 L 484.28125 452.78125 L 485.03125 453.875 L 485.75 454.875 L 486.5 455.875 L 487.34375 456.78125 L 488.1875 457.6875 L 489.0625 458.5 L 489.9375 459.3125 L 490.90625 460.03125 L 491.84375 460.75 L 492.84375 461.40625 L 493.90625 462.03125 L 494.96875 462.59375 L 496.0625 463.125 L 497.1875 463.59375 L 498.3125 464.03125 L 499.46875 464.4375 L 500.65625 464.75 L 501.875 465.0625 L 503.09375 465.34375 L 504.34375 465.5625 L 505.625 465.75 L 506.90625 465.875 L 508.21875 466 L 509.5625 466.0625 L 510.90625 466.0625 L 512.1875 466.0625 L 513.46875 466 L 514.71875 465.875 L 515.9375 465.75 L 517.1875 465.5625 L 518.40625 465.34375 L 519.59375 465.0625 L 520.75 464.75 L 521.90625 464.4375 L 523.03125 464.03125 L 524.15625 463.59375 L 525.25 463.125 L 526.28125 462.59375 L 527.3125 462.03125 L 528.3125 461.40625 L 529.3125 460.75 L 530.28125 460.03125 L 531.1875 459.3125 L 532.09375 458.5 L 532.90625 457.6875 L 533.75 456.78125 L 534.5625 455.875 L 535.3125 454.875 L 536.03125 453.875 L 536.71875 452.78125 L 537.40625 451.65625 L 538 450.5 L 538.5625 449.3125 L 539.125 448.03125 L 539.59375 446.71875 L 540.03125 445.34375 L 540.5 443.9375 L 540.84375 442.46875 L 541.15625 440.96875 L 541.40625 439.4375 L 541.65625 437.78125 L 541.8125 436.15625 L 541.96875 434.40625 L 542.03125 432.65625 L 542.03125 430.8125 L 542.03125 429.53125 L 542 428.25 L 541.9375 426.96875 L 541.8125 425.6875 L 541.6875 424.40625 L 541.53125 423.125 L 541.3125 421.90625 L 541.09375 420.65625 L 540.84375 419.40625 L 540.53125 418.21875 L 540.21875 417 L 539.8125 415.8125 L 539.40625 414.65625 L 538.96875 413.5 L 538.46875 412.375 L 537.9375 411.28125 L 537.375 410.21875 L 536.75 409.15625 L 536.09375 408.15625 L 535.40625 407.15625 L 534.65625 406.21875 L 533.875 405.28125 L 533.03125 404.40625 L 532.125 403.5625 L 531.1875 402.75 L 530.25 402 L 529.1875 401.28125 L 528.125 400.59375 L 527 399.96875 L 525.8125 399.375 L 524.5625 398.84375 L 523.28125 398.3125 L 521.90625 397.875 L 520.5 397.53125 L 519.0625 397.1875 L 517.5625 396.90625 L 516 396.6875 L 514.34375 396.53125 L 512.65625 396.4375 L 510.90625 396.40625 z M 510.0625 407.875 L 510.90625 407.875 L 511.71875 407.875 L 512.46875 407.96875 L 513.21875 408.0625 L 513.9375 408.15625 L 514.625 408.3125 L 515.3125 408.53125 L 516 408.78125 L 516.625 409 L 517.21875 409.3125 L 517.84375 409.65625 L 518.4375 410 L 518.96875 410.375 L 519.5 410.8125 L 520.03125 411.25 L 520.5 411.71875 L 521 412.25 L 521.4375 412.78125 L 521.875 413.34375 L 522.3125 413.9375 L 522.6875 414.53125 L 523.0625 415.15625 L 523.4375 415.84375 L 523.75 416.53125 L 524.0625 417.25 L 524.34375 418 L 524.625 418.78125 L 524.875 419.5625 L 525.125 420.375 L 525.34375 421.21875 L 525.5625 422.0625 L 525.71875 422.9375 L 525.875 423.8125 L 526.03125 424.75 L 526.15625 425.6875 L 526.25 426.625 L 526.3125 427.625 L 526.40625 428.5625 L 526.4375 429.5625 L 526.46875 430.625 L 526.46875 431.65625 L 526.46875 432.5 L 526.4375 433.375 L 526.4375 434.21875 L 526.40625 435.09375 L 526.3125 435.9375 L 526.25 436.78125 L 526.15625 437.625 L 526.03125 438.46875 L 525.90625 439.25 L 525.8125 440.0625 L 525.625 440.875 L 525.4375 441.65625 L 525.25 442.46875 L 525.03125 443.21875 L 524.8125 443.9375 L 524.5625 444.71875 L 524.28125 445.375 L 523.96875 446.09375 L 523.625 446.78125 L 523.3125 447.4375 L 522.96875 448.0625 L 522.5625 448.65625 L 522.15625 449.28125 L 521.71875 449.84375 L 521.25 450.34375 L 520.75 450.875 L 520.21875 451.34375 L 519.71875 451.84375 L 519.125 452.21875 L 518.5 452.625 L 517.90625 453 L 517.21875 453.3125 L 516.5625 453.625 L 515.875 453.875 L 515.125 454.0625 L 514.34375 454.28125 L 513.5 454.4375 L 512.65625 454.5 L 511.84375 454.59375 L 510.90625 454.59375 L 509.9375 454.59375 L 509.03125 454.5 L 508.09375 454.4375 L 507.28125 454.28125 L 506.4375 454.0625 L 505.65625 453.875 L 504.90625 453.625 L 504.1875 453.3125 L 503.46875 453 L 502.8125 452.625 L 502.1875 452.21875 L 501.59375 451.84375 L 501.03125 451.34375 L 500.46875 450.875 L 499.9375 450.34375 L 499.46875 449.84375 L 499.03125 449.28125 L 498.59375 448.65625 L 498.1875 448.0625 L 497.78125 447.4375 L 497.4375 446.78125 L 497.09375 446.09375 L 496.78125 445.375 L 496.5 444.71875 L 496.25 443.9375 L 496.03125 443.21875 L 495.78125 442.46875 L 495.59375 441.65625 L 495.375 440.875 L 495.21875 440.0625 L 495.09375 439.25 L 494.96875 438.46875 L 494.875 437.625 L 494.75 436.78125 L 494.6875 435.9375 L 494.625 435.09375 L 494.59375 434.21875 L 494.53125 433.375 L 494.53125 432.5 L 494.5 431.65625 L 494.53125 430.625 L 494.53125 429.5625 L 494.59375 428.5625 L 494.65625 427.625 L 494.75 426.625 L 494.875 425.6875 L 494.96875 424.75 L 495.09375 423.8125 L 495.3125 422.9375 L 495.46875 422.0625 L 495.65625 421.21875 L 495.90625 420.375 L 496.15625 419.5625 L 496.375 418.78125 L 496.65625 418 L 496.96875 417.25 L 497.3125 416.53125 L 497.65625 415.84375 L 498.03125 415.15625 L 498.4375 414.53125 L 498.8125 413.9375 L 499.25 413.34375 L 499.6875 412.78125 L 500.1875 412.25 L 500.65625 411.71875 L 501.1875 411.25 L 501.75 410.8125 L 502.3125 410.375 L 502.90625 410 L 503.5 409.65625 L 504.15625 409.3125 L 504.78125 409 L 505.46875 408.78125 L 506.1875 408.53125 L 506.90625 408.3125 L 507.65625 408.15625 L 508.4375 408.0625 L 509.21875 407.96875 L 510.0625 407.875 z "
   id="polygon25" />
</g><g
   id="LWPOLYLINE_5_"
   style="stroke:none;fill:#000000;fill-opacity:1">
	
		<path
   style="stroke:none;fill:#000000;fill-opacity:1"
   d="M 418.1875 325.9375 L 416.5 326.03125 L 414.84375 326.1875 L 413.25 326.40625 L 411.75 326.65625 L 410.25 326.96875 L 408.84375 327.34375 L 407.5 327.75 L 406.1875 328.25 L 404.90625 328.75 L 403.6875 329.3125 L 402.53125 329.9375 L 401.4375 330.59375 L 400.375 331.3125 L 399.375 332.0625 L 398.40625 332.84375 L 397.5 333.65625 L 396.65625 334.53125 L 395.8125 335.4375 L 395.0625 336.375 L 394.28125 337.34375 L 393.59375 338.34375 L 392.96875 339.375 L 392.375 340.4375 L 391.8125 341.53125 L 391.28125 342.65625 L 390.8125 343.78125 L 390.375 344.9375 L 389.96875 346.15625 L 389.59375 347.34375 L 389.28125 348.59375 L 389 349.84375 L 388.75 351.125 L 388.53125 352.40625 L 388.375 353.6875 L 388.21875 355 L 388.125 356.3125 L 388.03125 357.65625 L 387.96875 359 L 387.96875 360.34375 L 388 362.09375 L 388.09375 363.8125 L 388.21875 365.46875 L 388.40625 367.09375 L 388.65625 368.6875 L 388.9375 370.21875 L 389.25 371.71875 L 389.65625 373.15625 L 390.03125 374.53125 L 390.53125 375.875 L 391.03125 377.1875 L 391.59375 378.4375 L 392.21875 379.65625 L 392.84375 380.8125 L 393.53125 381.9375 L 394.25 383 L 395 384.0625 L 395.8125 385.03125 L 396.65625 385.96875 L 397.5 386.875 L 398.375 387.75 L 399.28125 388.53125 L 400.25 389.3125 L 401.25 390.03125 L 402.25 390.6875 L 403.28125 391.34375 L 404.34375 391.90625 L 405.4375 392.46875 L 406.53125 392.96875 L 407.65625 393.40625 L 408.8125 393.84375 L 409.96875 394.1875 L 411.1875 394.53125 L 412.375 394.8125 L 413.625 395.0625 L 414.84375 395.25 L 416.09375 395.40625 L 417.375 395.5 L 418.65625 395.5625 L 419.9375 395.59375 L 421.21875 395.5625 L 422.5 395.5 L 423.75 395.40625 L 425.03125 395.25 L 426.25 395.0625 L 427.46875 394.8125 L 428.65625 394.53125 L 429.875 394.1875 L 431.03125 393.84375 L 432.1875 393.40625 L 433.3125 392.96875 L 434.4375 392.46875 L 435.5 391.90625 L 436.59375 391.34375 L 437.59375 390.6875 L 438.625 390.03125 L 439.59375 389.3125 L 440.5625 388.53125 L 441.46875 387.75 L 442.34375 386.875 L 443.21875 385.96875 L 444.0625 385.03125 L 444.84375 384.0625 L 445.59375 383 L 446.3125 381.9375 L 447 380.8125 L 447.625 379.65625 L 448.25 378.4375 L 448.78125 377.1875 L 449.3125 375.875 L 449.8125 374.53125 L 450.25 373.15625 L 450.59375 371.71875 L 450.96875 370.21875 L 451.25 368.6875 L 451.46875 367.09375 L 451.625 365.46875 L 451.8125 363.8125 L 451.875 362.09375 L 451.875 360.34375 L 451.875 359 L 451.84375 357.65625 L 451.75 356.3125 L 451.625 355 L 451.46875 353.6875 L 451.3125 352.40625 L 451.125 351.125 L 450.84375 349.84375 L 450.5625 348.59375 L 450.25 347.34375 L 449.875 346.15625 L 449.46875 344.9375 L 449.03125 343.78125 L 448.5625 342.65625 L 448.03125 341.53125 L 447.46875 340.4375 L 446.875 339.375 L 446.25 338.34375 L 445.5625 337.34375 L 444.84375 336.375 L 444.03125 335.4375 L 443.21875 334.53125 L 442.34375 333.65625 L 441.4375 332.84375 L 440.46875 332.0625 L 439.46875 331.3125 L 438.4375 330.59375 L 437.3125 329.9375 L 436.15625 329.3125 L 434.9375 328.75 L 433.71875 328.25 L 432.375 327.75 L 431.03125 327.34375 L 429.59375 326.96875 L 428.15625 326.65625 L 426.59375 326.40625 L 425.03125 326.1875 L 423.375 326.03125 L 421.6875 325.9375 L 419.9375 325.9375 L 418.1875 325.9375 z M 419.9375 337.375 L 420.78125 337.40625 L 421.59375 337.46875 L 422.375 337.5625 L 423.1875 337.6875 L 423.9375 337.84375 L 424.65625 338.0625 L 425.34375 338.28125 L 426.03125 338.53125 L 426.71875 338.84375 L 427.34375 339.15625 L 427.9375 339.5 L 428.53125 339.875 L 429.09375 340.3125 L 429.625 340.78125 L 430.15625 341.25 L 430.65625 341.75 L 431.15625 342.28125 L 431.59375 342.84375 L 432.03125 343.4375 L 432.4375 344.0625 L 432.8125 344.6875 L 433.1875 345.375 L 433.5625 346.0625 L 433.875 346.78125 L 434.15625 347.5 L 434.4375 348.28125 L 434.71875 349.0625 L 434.9375 349.90625 L 435.1875 350.71875 L 435.375 351.5625 L 435.5625 352.46875 L 435.71875 353.34375 L 435.875 354.25 L 436 355.1875 L 436.0625 356.125 L 436.1875 357.125 L 436.21875 358.09375 L 436.28125 359.09375 L 436.3125 360.125 L 436.3125 361.15625 L 436.3125 362.03125 L 436.3125 362.875 L 436.28125 363.75 L 436.1875 364.59375 L 436.09375 365.4375 L 436.03125 366.28125 L 435.90625 367.125 L 435.78125 367.96875 L 435.65625 368.78125 L 435.5 369.59375 L 435.3125 370.375 L 435.09375 371.1875 L 434.875 371.96875 L 434.625 372.71875 L 434.375 373.46875 L 434.09375 374.21875 L 433.78125 374.90625 L 433.46875 375.59375 L 433.09375 376.28125 L 432.75 376.9375 L 432.34375 377.5625 L 431.90625 378.1875 L 431.46875 378.78125 L 431.03125 379.34375 L 430.5 379.875 L 430 380.40625 L 429.46875 380.875 L 428.90625 381.34375 L 428.3125 381.75 L 427.65625 382.15625 L 427.03125 382.5 L 426.34375 382.84375 L 425.65625 383.125 L 424.90625 383.375 L 424.1875 383.59375 L 423.375 383.78125 L 422.53125 383.9375 L 421.6875 384.03125 L 420.8125 384.09375 L 419.9375 384.125 L 419.03125 384.09375 L 418.125 384.03125 L 417.3125 383.9375 L 416.5 383.78125 L 415.6875 383.59375 L 414.9375 383.375 L 414.21875 383.125 L 413.5 382.84375 L 412.8125 382.5 L 412.1875 382.15625 L 411.5625 381.75 L 410.96875 381.34375 L 410.40625 380.875 L 409.84375 380.40625 L 409.34375 379.875 L 408.84375 379.34375 L 408.375 378.78125 L 407.9375 378.1875 L 407.53125 377.5625 L 407.125 376.9375 L 406.71875 376.28125 L 406.40625 375.59375 L 406.0625 374.90625 L 405.78125 374.21875 L 405.5 373.46875 L 405.21875 372.71875 L 404.96875 371.96875 L 404.78125 371.1875 L 404.53125 370.375 L 404.375 369.59375 L 404.21875 368.78125 L 404.0625 367.96875 L 403.9375 367.125 L 403.8125 366.28125 L 403.71875 365.4375 L 403.65625 364.59375 L 403.625 363.75 L 403.5625 362.875 L 403.53125 362.03125 L 403.53125 361.15625 L 403.53125 360.125 L 403.5625 359.09375 L 403.625 358.09375 L 403.6875 357.125 L 403.78125 356.125 L 403.90625 355.1875 L 404 354.25 L 404.125 353.34375 L 404.28125 352.46875 L 404.5 351.5625 L 404.6875 350.71875 L 404.90625 349.90625 L 405.125 349.0625 L 405.40625 348.28125 L 405.6875 347.5 L 406 346.78125 L 406.34375 346.0625 L 406.6875 345.375 L 407.0625 344.6875 L 407.40625 344.0625 L 407.84375 343.4375 L 408.25 342.84375 L 408.75 342.28125 L 409.21875 341.75 L 409.6875 341.25 L 410.21875 340.78125 L 410.78125 340.3125 L 411.34375 339.875 L 411.90625 339.5 L 412.53125 339.15625 L 413.1875 338.84375 L 413.8125 338.53125 L 414.5 338.28125 L 415.21875 338.0625 L 415.9375 337.84375 L 416.6875 337.6875 L 417.46875 337.5625 L 418.25 337.46875 L 419.09375 337.40625 L 419.9375 337.375 z "
   id="polygon19" />
</g><g
   id="LWPOLYLINE_3_"
   style="stroke:none;fill:#000000;fill-opacity:1">
	
		<path
   style="stroke:none;fill:#000000;fill-opacity:1"
   d="M 306.8125 325.9375 L 303.875 326 L 301.0625 326.25 L 298.34375 326.625 L 295.78125 327.15625 L 293.34375 327.84375 L 291.03125 328.65625 L 288.8125 329.59375 L 286.71875 330.65625 L 284.71875 331.8125 L 282.8125 333.09375 L 281.0625 334.5 L 279.375 336 L 277.78125 337.5625 L 276.3125 339.25 L 274.90625 341 L 273.59375 342.84375 L 272.375 344.71875 L 271.25 346.71875 L 270.1875 348.71875 L 269.21875 350.8125 L 268.3125 352.9375 L 267.5 355.125 L 266.75 357.3125 L 266.03125 359.5625 L 265.40625 361.8125 L 264.84375 364.09375 L 264.34375 366.375 L 263.875 368.6875 L 263.46875 371 L 263.125 373.28125 L 262.84375 375.59375 L 262.5625 377.84375 L 262.34375 380.125 L 262.1875 382.34375 L 262.03125 384.5 L 261.90625 386.6875 L 261.84375 388.78125 L 261.78125 390.84375 L 261.75 392.84375 L 261.75 394.78125 L 261.75 397.09375 L 261.8125 399.40625 L 261.875 401.75 L 261.96875 404.125 L 262.125 406.53125 L 262.3125 408.96875 L 262.53125 411.40625 L 262.8125 413.84375 L 263.125 416.25 L 263.46875 418.6875 L 263.90625 421.125 L 264.34375 423.53125 L 264.84375 425.9375 L 265.4375 428.3125 L 266.0625 430.65625 L 266.75 432.96875 L 267.5 435.25 L 268.3125 437.46875 L 269.1875 439.65625 L 270.15625 441.78125 L 271.15625 443.875 L 272.25 445.90625 L 273.4375 447.8125 L 274.65625 449.71875 L 275.96875 451.5 L 277.375 453.21875 L 278.875 454.875 L 280.4375 456.40625 L 282.09375 457.875 L 283.875 459.1875 L 285.71875 460.4375 L 287.65625 461.5625 L 289.6875 462.59375 L 291.84375 463.46875 L 294.0625 464.28125 L 296.40625 464.90625 L 298.84375 465.40625 L 301.40625 465.8125 L 304.03125 466 L 306.8125 466.0625 L 309.59375 466 L 312.25 465.8125 L 314.8125 465.40625 L 317.28125 464.90625 L 319.59375 464.28125 L 321.84375 463.46875 L 324 462.59375 L 326.09375 461.5625 L 328 460.4375 L 329.90625 459.1875 L 331.6875 457.875 L 333.375 456.40625 L 334.96875 454.875 L 336.5 453.21875 L 337.90625 451.5 L 339.25 449.71875 L 340.53125 447.8125 L 341.75 445.90625 L 342.84375 443.875 L 343.90625 441.78125 L 344.90625 439.65625 L 345.78125 437.46875 L 346.65625 435.25 L 347.4375 432.96875 L 348.15625 430.65625 L 348.78125 428.3125 L 349.375 425.9375 L 349.9375 423.53125 L 350.4375 421.125 L 350.875 418.6875 L 351.21875 416.25 L 351.59375 413.84375 L 351.875 411.40625 L 352.09375 408.96875 L 352.3125 406.53125 L 352.46875 404.125 L 352.59375 401.75 L 352.65625 399.40625 L 352.71875 397.09375 L 352.71875 394.78125 L 352.71875 392.84375 L 352.65625 390.84375 L 352.625 388.78125 L 352.53125 386.6875 L 352.4375 384.5 L 352.25 382.34375 L 352.09375 380.125 L 351.875 377.84375 L 351.625 375.59375 L 351.3125 373.28125 L 350.9375 371 L 350.53125 368.6875 L 350.09375 366.375 L 349.59375 364.09375 L 348.96875 361.8125 L 348.375 359.5625 L 347.65625 357.3125 L 346.90625 355.125 L 346.0625 352.9375 L 345.15625 350.8125 L 344.15625 348.71875 L 343.0625 346.71875 L 341.9375 344.71875 L 340.6875 342.84375 L 339.34375 341 L 337.9375 339.25 L 336.40625 337.5625 L 334.8125 336 L 333.09375 334.5 L 331.28125 333.09375 L 329.375 331.8125 L 327.34375 330.65625 L 325.15625 329.59375 L 322.9375 328.65625 L 320.5625 327.84375 L 318.0625 327.15625 L 315.4375 326.625 L 312.6875 326.25 L 309.84375 326 L 306.8125 325.9375 z M 306.8125 341.5 L 308.40625 341.53125 L 309.875 341.65625 L 311.375 341.875 L 312.75 342.15625 L 314.09375 342.5625 L 315.40625 343 L 316.65625 343.53125 L 317.8125 344.125 L 318.96875 344.8125 L 320.0625 345.5625 L 321.09375 346.40625 L 322.0625 347.3125 L 323 348.28125 L 323.875 349.34375 L 324.71875 350.4375 L 325.53125 351.625 L 326.28125 352.84375 L 327 354.15625 L 327.6875 355.53125 L 328.34375 356.96875 L 328.9375 358.46875 L 329.5 360 L 330 361.59375 L 330.5 363.25 L 330.9375 364.96875 L 331.34375 366.75 L 331.6875 368.59375 L 332.0625 370.4375 L 332.375 372.375 L 332.65625 374.34375 L 332.90625 376.375 L 333.09375 378.4375 L 333.28125 380.53125 L 333.46875 382.6875 L 333.5625 384.875 L 333.6875 387.09375 L 333.78125 389.375 L 333.8125 391.6875 L 333.84375 394.03125 L 333.84375 396.40625 L 333.84375 398.28125 L 333.84375 400.125 L 333.78125 402 L 333.75 403.875 L 333.65625 405.8125 L 333.53125 407.6875 L 333.40625 409.5625 L 333.25 411.5 L 333.09375 413.375 L 332.84375 415.25 L 332.625 417.09375 L 332.375 418.9375 L 332.0625 420.78125 L 331.71875 422.5625 L 331.375 424.34375 L 330.96875 426.0625 L 330.53125 427.78125 L 330.0625 429.46875 L 329.53125 431.09375 L 328.9375 432.65625 L 328.34375 434.21875 L 327.6875 435.6875 L 327 437.15625 L 326.25 438.53125 L 325.4375 439.875 L 324.625 441.15625 L 323.71875 442.34375 L 322.78125 443.46875 L 321.78125 444.53125 L 320.71875 445.5 L 319.59375 446.4375 L 318.4375 447.21875 L 317.21875 448 L 315.9375 448.625 L 314.5625 449.1875 L 313.15625 449.65625 L 311.6875 450.03125 L 310.125 450.28125 L 308.53125 450.46875 L 306.8125 450.5 L 305.1875 450.46875 L 303.625 450.28125 L 302.125 450.03125 L 300.71875 449.65625 L 299.34375 449.1875 L 298.03125 448.625 L 296.78125 448 L 295.59375 447.21875 L 294.46875 446.4375 L 293.40625 445.5 L 292.34375 444.53125 L 291.40625 443.46875 L 290.46875 442.34375 L 289.625 441.15625 L 288.78125 439.875 L 288.03125 438.53125 L 287.3125 437.15625 L 286.625 435.6875 L 286 434.21875 L 285.40625 432.65625 L 284.875 431.09375 L 284.34375 429.46875 L 283.875 427.78125 L 283.4375 426.0625 L 283.0625 424.34375 L 282.6875 422.5625 L 282.375 420.78125 L 282.0625 418.9375 L 281.8125 417.09375 L 281.59375 415.25 L 281.375 413.375 L 281.1875 411.5 L 281.0625 409.5625 L 280.90625 407.6875 L 280.8125 405.8125 L 280.71875 403.875 L 280.65625 402 L 280.625 400.125 L 280.59375 398.28125 L 280.59375 396.40625 L 280.59375 394.03125 L 280.625 391.6875 L 280.6875 389.375 L 280.78125 387.09375 L 280.875 384.875 L 281 382.6875 L 281.15625 380.53125 L 281.34375 378.4375 L 281.5625 376.375 L 281.8125 374.34375 L 282.09375 372.375 L 282.375 370.4375 L 282.71875 368.59375 L 283.09375 366.75 L 283.5 364.96875 L 283.9375 363.25 L 284.375 361.59375 L 284.90625 360 L 285.4375 358.46875 L 286.03125 356.96875 L 286.625 355.53125 L 287.28125 354.15625 L 288 352.84375 L 288.71875 351.625 L 289.5 350.4375 L 290.34375 349.34375 L 291.21875 348.28125 L 292.125 347.3125 L 293.0625 346.40625 L 294.0625 345.5625 L 295.125 344.8125 L 296.21875 344.125 L 297.375 343.53125 L 298.5625 343 L 299.8125 342.5625 L 301.09375 342.15625 L 302.46875 341.875 L 303.84375 341.65625 L 305.3125 341.53125 L 306.8125 341.5 z "
   id="polygon13" />
</g><g
   id="LWPOLYLINE_1_"
   style="stroke:none;fill:#000000;fill-opacity:1">
	
		<path
   style="stroke:none;fill:#000000;fill-opacity:1"
   d="M 193.6875 325.9375 L 190.75 326 L 187.9375 326.25 L 185.25 326.625 L 182.6875 327.15625 L 180.21875 327.84375 L 177.90625 328.65625 L 175.6875 329.59375 L 173.59375 330.65625 L 171.59375 331.8125 L 169.71875 333.09375 L 167.9375 334.5 L 166.28125 336 L 164.6875 337.5625 L 163.1875 339.25 L 161.8125 341 L 160.46875 342.84375 L 159.28125 344.71875 L 158.15625 346.71875 L 157.09375 348.71875 L 156.09375 350.8125 L 155.1875 352.9375 L 154.375 355.125 L 153.625 357.3125 L 152.9375 359.5625 L 152.3125 361.8125 L 151.75 364.09375 L 151.25 366.375 L 150.78125 368.6875 L 150.375 371 L 150.03125 373.28125 L 149.71875 375.59375 L 149.46875 377.84375 L 149.25 380.125 L 149.0625 382.34375 L 148.90625 384.5 L 148.8125 386.6875 L 148.71875 388.78125 L 148.6875 390.84375 L 148.625 392.84375 L 148.625 394.78125 L 148.625 397.09375 L 148.6875 399.40625 L 148.75 401.75 L 148.875 404.125 L 149.03125 406.53125 L 149.1875 408.96875 L 149.4375 411.40625 L 149.6875 413.84375 L 150.03125 416.25 L 150.375 418.6875 L 150.78125 421.125 L 151.25 423.53125 L 151.75 425.9375 L 152.3125 428.3125 L 152.96875 430.65625 L 153.625 432.96875 L 154.40625 435.25 L 155.1875 437.46875 L 156.09375 439.65625 L 157.03125 441.78125 L 158.03125 443.875 L 159.15625 445.90625 L 160.3125 447.8125 L 161.5625 449.71875 L 162.875 451.5 L 164.28125 453.21875 L 165.78125 454.875 L 167.34375 456.40625 L 169 457.875 L 170.78125 459.1875 L 172.59375 460.4375 L 174.5625 461.5625 L 176.5625 462.59375 L 178.71875 463.46875 L 180.9375 464.28125 L 183.28125 464.90625 L 185.75 465.40625 L 188.28125 465.8125 L 190.9375 466 L 193.6875 466.0625 L 196.46875 466 L 199.15625 465.8125 L 201.71875 465.40625 L 204.15625 464.90625 L 206.5 464.28125 L 208.75 463.46875 L 210.90625 462.59375 L 212.96875 461.5625 L 214.90625 460.4375 L 216.78125 459.1875 L 218.5625 457.875 L 220.25 456.40625 L 221.84375 454.875 L 223.375 453.21875 L 224.8125 451.5 L 226.15625 449.71875 L 227.4375 447.8125 L 228.625 445.90625 L 229.75 443.875 L 230.8125 441.78125 L 231.78125 439.65625 L 232.6875 437.46875 L 233.53125 435.25 L 234.3125 432.96875 L 235.03125 430.65625 L 235.6875 428.3125 L 236.28125 425.9375 L 236.8125 423.53125 L 237.3125 421.125 L 237.75 418.6875 L 238.125 416.25 L 238.46875 413.84375 L 238.75 411.40625 L 238.96875 408.96875 L 239.1875 406.53125 L 239.34375 404.125 L 239.46875 401.75 L 239.53125 399.40625 L 239.59375 397.09375 L 239.59375 394.78125 L 239.59375 392.84375 L 239.5625 390.84375 L 239.5 388.78125 L 239.4375 386.6875 L 239.3125 384.5 L 239.15625 382.34375 L 238.96875 380.125 L 238.75 377.84375 L 238.5 375.59375 L 238.21875 373.28125 L 237.84375 371 L 237.4375 368.6875 L 236.96875 366.375 L 236.46875 364.09375 L 235.875 361.8125 L 235.25 359.5625 L 234.5625 357.3125 L 233.78125 355.125 L 232.9375 352.9375 L 232.03125 350.8125 L 231.03125 348.71875 L 229.96875 346.71875 L 228.8125 344.71875 L 227.5625 342.84375 L 226.25 341 L 224.8125 339.25 L 223.3125 337.5625 L 221.6875 336 L 220 334.5 L 218.1875 333.09375 L 216.25 331.8125 L 214.21875 330.65625 L 212.0625 329.59375 L 209.84375 328.65625 L 207.4375 327.84375 L 204.9375 327.15625 L 202.34375 326.625 L 199.59375 326.25 L 196.71875 326 L 193.6875 325.9375 z M 193.6875 341.5 L 195.28125 341.53125 L 196.78125 341.65625 L 198.25 341.875 L 199.65625 342.15625 L 200.96875 342.5625 L 202.28125 343 L 203.53125 343.53125 L 204.71875 344.125 L 205.84375 344.8125 L 206.9375 345.5625 L 207.96875 346.40625 L 208.9375 347.3125 L 209.875 348.28125 L 210.78125 349.34375 L 211.625 350.4375 L 212.4375 351.625 L 213.1875 352.84375 L 213.90625 354.15625 L 214.59375 355.53125 L 215.21875 356.96875 L 215.8125 358.46875 L 216.375 360 L 216.90625 361.59375 L 217.375 363.25 L 217.8125 364.96875 L 218.21875 366.75 L 218.59375 368.59375 L 218.96875 370.4375 L 219.25 372.375 L 219.53125 374.34375 L 219.78125 376.375 L 220 378.4375 L 220.1875 380.53125 L 220.34375 382.6875 L 220.46875 384.875 L 220.5625 387.09375 L 220.65625 389.375 L 220.71875 391.6875 L 220.75 394.03125 L 220.75 396.40625 L 220.75 398.28125 L 220.71875 400.125 L 220.6875 402 L 220.625 403.875 L 220.53125 405.8125 L 220.4375 407.6875 L 220.28125 409.5625 L 220.15625 411.5 L 219.96875 413.375 L 219.75 415.25 L 219.5 417.09375 L 219.25 418.9375 L 218.96875 420.78125 L 218.625 422.5625 L 218.25 424.34375 L 217.84375 426.0625 L 217.40625 427.78125 L 216.9375 429.46875 L 216.40625 431.09375 L 215.84375 432.65625 L 215.21875 434.21875 L 214.59375 435.6875 L 213.90625 437.15625 L 213.15625 438.53125 L 212.34375 439.875 L 211.5 441.15625 L 210.625 442.34375 L 209.65625 443.46875 L 208.65625 444.53125 L 207.625 445.5 L 206.5 446.4375 L 205.3125 447.21875 L 204.09375 448 L 202.8125 448.625 L 201.46875 449.1875 L 200.03125 449.65625 L 198.5625 450.03125 L 197.03125 450.28125 L 195.40625 450.46875 L 193.6875 450.5 L 192.09375 450.46875 L 190.53125 450.28125 L 189.03125 450.03125 L 187.59375 449.65625 L 186.25 449.1875 L 184.90625 448.625 L 183.6875 448 L 182.5 447.21875 L 181.34375 446.4375 L 180.28125 445.5 L 179.25 444.53125 L 178.28125 443.46875 L 177.375 442.34375 L 176.5 441.15625 L 175.6875 439.875 L 174.90625 438.53125 L 174.1875 437.15625 L 173.53125 435.6875 L 172.875 434.21875 L 172.28125 432.65625 L 171.75 431.09375 L 171.25 429.46875 L 170.78125 427.78125 L 170.34375 426.0625 L 169.9375 424.34375 L 169.59375 422.5625 L 169.28125 420.78125 L 168.96875 418.9375 L 168.71875 417.09375 L 168.46875 415.25 L 168.28125 413.375 L 168.09375 411.5 L 167.9375 409.5625 L 167.8125 407.6875 L 167.71875 405.8125 L 167.625 403.875 L 167.5625 402 L 167.5 400.125 L 167.5 398.28125 L 167.5 396.40625 L 167.5 394.03125 L 167.53125 391.6875 L 167.59375 389.375 L 167.65625 387.09375 L 167.78125 384.875 L 167.90625 382.6875 L 168.0625 380.53125 L 168.25 378.4375 L 168.4375 376.375 L 168.71875 374.34375 L 168.96875 372.375 L 169.28125 370.4375 L 169.59375 368.59375 L 169.96875 366.75 L 170.375 364.96875 L 170.8125 363.25 L 171.28125 361.59375 L 171.78125 360 L 172.34375 358.46875 L 172.90625 356.96875 L 173.53125 355.53125 L 174.1875 354.15625 L 174.90625 352.84375 L 175.625 351.625 L 176.40625 350.4375 L 177.21875 349.34375 L 178.09375 348.28125 L 179 347.3125 L 179.96875 346.40625 L 180.96875 345.5625 L 182 344.8125 L 183.125 344.125 L 184.25 343.53125 L 185.46875 343 L 186.6875 342.5625 L 188 342.15625 L 189.34375 341.875 L 190.75 341.65625 L 192.1875 341.53125 L 193.6875 341.5 z "
   id="polygon7" />
</g><g
   id="LWPOLYLINE"
   style="stroke:none;fill:#000000;fill-opacity:1">
	
		<path
   fill="none"
   stroke="#000000"
   stroke-width="0.7087"
   stroke-linecap="round"
   stroke-linejoin="round"
   stroke-miterlimit="10"
   d="   M101.911,463.636c0.141,0,0.28,0,0.28,0h0.22h0.28h0.32h0.36h0.42h0.44h0.5h0.521h0.561h0.58h0.601h0.62h0.641h0.66h0.66h0.681   h0.681h0.66h0.68h0.661h0.66h0.641h0.62h0.6h0.581h0.56h0.521h0.5h0.44h0.421h0.359h0.32h0.28h0.221c0.159,0,0.239,0,0.239,0   c0.04,0,0.04-0.279,0.04-0.279v-0.721v-1.201v-1.601v-2.041v-2.401v-2.762v-3.081v-3.402v-3.642v-3.922v-4.162v-4.362v-4.522   v-4.723v-4.803v-4.923v-4.963v-5.042V396v-5.062v-5.043v-5.003v-4.902v-4.822v-4.683v-4.542V357.6v-4.162v-3.922v-3.683v-3.382   v-3.102v-2.762v-2.4v-2.021v-1.621v-1.181v-0.74v-0.24c-0.12,0-0.279,0-0.279,0h-0.2H119.2h-0.3h-0.36h-0.38h-0.44h-0.46h-0.501   h-0.54h-0.54h-0.58h-0.601h-0.62h-0.621h-0.64h-0.641h-0.641h-0.64h-0.641h-0.641h-0.62h-0.62h-0.601h-0.58h-0.54h-0.541h-0.5   h-0.46h-0.44h-0.38h-0.36h-0.301h-0.26h-0.2c-0.16,0-0.24,0-0.24,0c-0.04,0-0.601,0.5-0.601,0.5l-0.58,0.501l-0.6,0.5l-0.621,0.5   l-0.62,0.521l-0.66,0.521l-0.66,0.54l-0.681,0.521l-0.7,0.54l-0.7,0.521l-0.741,0.54l-0.74,0.54l-0.74,0.561l-0.78,0.54   l-0.78,0.541l-0.78,0.56l-0.82,0.541l-0.801,0.56l-0.841,0.561l-0.84,0.54l-0.841,0.561l-0.86,0.561l-0.881,0.54l-0.88,0.561   l-0.881,0.54l-0.9,0.561l-0.921,0.54l-0.9,0.54l-0.92,0.541l-0.94,0.54l-0.94,0.54l-0.94,0.54l-0.94,0.521l-0.961,0.521   l-0.961,0.521l-0.96,0.52l-0.98,0.521l-0.961,0.501l-0.98,0.5l-0.98,0.5c0,0.14,0,0.32,0,0.32v0.22v0.301v0.36v0.399v0.44v0.5   v0.521v0.58v0.601v0.641v0.66v0.681v0.7v0.721v0.72v0.721v0.74v0.74v0.74v0.721v0.721v0.7v0.681v0.66v0.62v0.62v0.561v0.54v0.501   v0.439v0.4v0.36v0.28v0.24c0,0.18,0,0.28,0,0.28c0,0.04,0.74-0.28,0.74-0.28l0.74-0.32l0.781-0.36l0.78-0.36l0.78-0.36l0.78-0.38   l0.82-0.4l0.801-0.42l0.82-0.42l0.82-0.421l0.841-0.46l0.82-0.44l0.84-0.46l0.841-0.48l0.841-0.48l0.84-0.5l0.86-0.48l0.841-0.52   l0.841-0.501l0.86-0.52l0.84-0.541l0.841-0.52l0.841-0.541l0.84-0.54l0.82-0.54l0.82-0.561l0.821-0.54l0.82-0.561l0.8-0.561   l0.801-0.56l0.801-0.561l0.78-0.561l0.78-0.561l0.761-0.56l0.74-0.581l0.74-0.56l0.721-0.561l0.72-0.561l0.7-0.54l0.681-0.561   V463.636z"
   id="path4"
   style="stroke:none;fill:#000000;fill-opacity:1" />
</g><g
   id="LWPOLYLINE_2_"
   style="stroke:none;fill:#000000;fill-opacity:1">
	
		
</g><g
   id="LWPOLYLINE_4_"
   style="stroke:none;fill:#000000;fill-opacity:1">
	
		
</g><g
   id="LWPOLYLINE_6_"
   style="stroke:none;fill:#000000;fill-opacity:1">
	
		
</g><g
   id="LWPOLYLINE_8_"
   style="stroke:none;fill:#000000;fill-opacity:1">
	
		
</g><g
   id="LWPOLYLINE_9_"
   style="stroke:none;fill:#000000;fill-opacity:1">
	
		<path
   fill="none"
   stroke="#000000"
   stroke-width="0.7087"
   stroke-linecap="round"
   stroke-linejoin="round"
   stroke-miterlimit="10"
   d="   M427.305,471l0.16-0.28l0.48-0.8l0.76-1.321l1.041-1.801l1.28-2.241l1.562-2.682l1.761-3.041l2.001-3.442l2.161-3.762l2.361-4.082   l2.521-4.322l2.682-4.643l2.801-4.803l2.922-5.043l3.002-5.202l3.081-5.323l3.162-5.483l3.201-5.522l3.242-5.603l3.241-5.604   l3.282-5.623l3.241-5.583l3.202-5.543l3.162-5.442l3.081-5.343l3.002-5.203l2.921-5.022l2.802-4.843l2.682-4.603l2.521-4.362   l2.361-4.062l2.161-3.762l2.001-3.441l1.761-3.042l1.561-2.682l1.281-2.241l1.04-1.801l0.761-1.32l0.48-0.801l0.16-0.28   c-0.08,0-0.2,0-0.2,0c-0.16,0-0.36,0-0.36,0h-0.24h-0.28h-0.28h-0.32h-0.359h-0.4h-0.4h-0.4h-0.44h-0.479h-0.44h-0.48h-0.48h-0.521   h-0.479h-0.48h-0.48h-0.48h-0.479h-0.48h-0.44h-0.44h-0.44h-0.399h-0.4h-0.32h-0.36h-0.28h-0.28h-0.24c-0.199,0-0.319,0-0.319,0   c-0.2,0-0.24,0-0.24,0l-0.16,0.28l-0.48,0.801l-0.761,1.32l-1.04,1.801l-1.281,2.241l-1.561,2.682l-1.761,3.042l-2.001,3.441   l-2.161,3.762l-2.361,4.062l-2.521,4.362l-2.682,4.603l-2.802,4.843l-2.881,5.022l-3.042,5.203l-3.081,5.343l-3.162,5.442   l-3.202,5.543l-3.241,5.583L457.641,396l-3.281,5.604l-3.202,5.603l-3.241,5.522l-3.122,5.483l-3.121,5.323l-3.002,5.202   l-2.922,5.043l-2.801,4.803l-2.642,4.643l-2.521,4.322l-2.361,4.082l-2.201,3.762l-1.961,3.442l-1.801,3.041l-1.521,2.682   l-1.32,2.241l-1.041,1.801l-0.76,1.321l-0.48,0.8l-0.16,0.28H427.305z"
   id="path31"
   style="stroke:none;fill:#000000;fill-opacity:1" />
</g>









</svg>