<?xml version="1.0" encoding="UTF-8" standalone="no"?>
<!-- Generator: Adobe Illustrator 16.0.1, SVG Export Plug-In . SVG Version: 6.00 Build 0)  -->

<svg
   xmlns:dc="http://purl.org/dc/elements/1.1/"
   xmlns:cc="http://creativecommons.org/ns#"
   xmlns:rdf="http://www.w3.org/1999/02/22-rdf-syntax-ns#"
   xmlns:svg="http://www.w3.org/2000/svg"
   xmlns="http://www.w3.org/2000/svg"
   xmlns:sodipodi="http://sodipodi.sourceforge.net/DTD/sodipodi-0.dtd"
   xmlns:inkscape="http://www.inkscape.org/namespaces/inkscape"
   version="1.0"
   id="_x31_"
   x="0px"
   y="0px"
   width="612px"
   height="792px"
   viewBox="0 0 612 792"
   enable-background="new 0 0 612 792"
   xml:space="preserve"
   inkscape:version="0.48.2 r9819"
   sodipodi:docname="7007.svg"><metadata
   id="metadata58"><rdf:RDF><cc:Work
       rdf:about=""><dc:format>image/svg+xml</dc:format><dc:type
         rdf:resource="http://purl.org/dc/dcmitype/StillImage" /></cc:Work></rdf:RDF></metadata><defs
   id="defs56" /><sodipodi:namedview
   pagecolor="#ffffff"
   bordercolor="#666666"
   borderopacity="1"
   objecttolerance="10"
   gridtolerance="10"
   guidetolerance="10"
   inkscape:pageopacity="0"
   inkscape:pageshadow="2"
   inkscape:window-width="1920"
   inkscape:window-height="1071"
   id="namedview54"
   showgrid="false"
   inkscape:zoom="0.84281414"
   inkscape:cx="335.3517"
   inkscape:cy="317.139"
   inkscape:window-x="0"
   inkscape:window-y="0"
   inkscape:window-maximized="1"
   inkscape:current-layer="_x31_" />
<g
   id="LWPOLYLINE_2_"
   style="stroke:none;fill:#000000;fill-opacity:1">
	
		<path
   style="stroke:none;fill:#000000;fill-opacity:1"
   d="M 158.84375 410.4375 C 158.64175 410.6195 158.65625 411.15625 158.65625 411.15625 L 158.65625 412 L 158.65625 413.15625 L 158.65625 414.59375 L 158.65625 416.3125 L 158.65625 418.25 L 158.65625 420.5 L 158.65625 422.875 L 158.65625 425.53125 L 158.65625 428.3125 L 158.65625 431.28125 L 158.65625 434.375 L 158.65625 437.59375 L 158.65625 440.9375 L 158.65625 444.375 L 158.65625 447.875 L 158.65625 451.4375 L 158.65625 455 L 158.65625 458.625 L 158.65625 462.25 L 158.65625 465.84375 L 158.65625 469.40625 L 158.65625 472.875 L 158.65625 476.34375 L 158.65625 479.65625 L 158.65625 482.90625 L 158.65625 486 L 158.65625 488.9375 L 158.65625 491.75 L 158.65625 494.375 L 158.65625 496.78125 L 158.65625 499 L 158.65625 500.9375 L 158.65625 502.65625 L 158.65625 504.125 L 158.65625 505.25 L 158.65625 506.09375 L 158.65625 506.625 C 158.65525 506.793 170.28125 506.8125 170.28125 506.8125 L 170.28125 506.5 L 170.28125 506.15625 L 170.28125 505.625 L 170.28125 504.96875 L 170.28125 504.25 L 170.28125 503.40625 L 170.28125 502.40625 L 170.28125 501.3125 L 170.28125 500.1875 L 170.28125 498.96875 L 170.28125 497.6875 L 170.28125 496.28125 L 170.28125 494.875 L 170.28125 493.40625 L 170.28125 491.90625 L 170.28125 490.375 L 170.28125 488.78125 L 170.28125 487.21875 L 170.28125 485.625 L 170.28125 484.03125 L 170.28125 482.46875 L 170.28125 480.875 L 170.28125 479.375 L 170.28125 477.84375 L 170.28125 476.375 L 170.28125 474.96875 L 170.28125 473.59375 L 170.28125 472.28125 L 170.28125 471.0625 L 170.28125 469.9375 L 170.28125 468.84375 L 170.28125 467.90625 L 170.28125 467 L 170.28125 466.28125 L 170.28125 465.625 L 170.28125 465.15625 L 170.28125 464.75 L 170.28125 464.53125 C 170.38225 464.44925 170.53125 464.46875 170.53125 464.46875 L 170.9375 464.46875 L 171.21875 464.46875 L 171.5625 464.46875 L 171.9375 464.46875 L 172.3125 464.46875 L 172.71875 464.46875 L 173.1875 464.46875 L 173.6875 464.46875 L 174.1875 464.46875 L 174.71875 464.46875 L 175.28125 464.46875 L 175.8125 464.46875 L 176.40625 464.46875 L 177 464.46875 L 177.5625 464.46875 L 178.15625 464.46875 L 178.75 464.46875 L 179.34375 464.46875 L 179.9375 464.46875 L 180.5 464.46875 L 181.0625 464.46875 L 181.625 464.46875 L 182.15625 464.46875 L 182.65625 464.46875 L 183.125 464.46875 L 183.59375 464.46875 L 184 464.46875 L 184.40625 464.46875 L 184.78125 464.46875 L 185.09375 464.46875 L 185.375 464.46875 L 185.59375 464.46875 L 185.9375 464.46875 L 186.8125 464.46875 L 187.59375 464.40625 L 188.375 464.375 L 189.21875 464.28125 L 190.0625 464.21875 L 190.90625 464.09375 L 191.78125 463.9375 L 192.65625 463.78125 L 193.53125 463.5625 L 194.40625 463.3125 L 195.3125 463.0625 L 196.1875 462.78125 L 197.0625 462.46875 L 197.96875 462.09375 L 198.84375 461.75 L 199.71875 461.28125 L 200.5625 460.84375 L 201.4375 460.375 L 202.25 459.84375 L 203.0625 459.28125 L 203.875 458.65625 L 204.65625 458 L 205.4375 457.28125 L 206.15625 456.5625 L 206.84375 455.78125 L 207.53125 454.9375 L 208.15625 454.0625 L 208.78125 453.15625 L 209.34375 452.15625 L 209.875 451.15625 L 210.375 450.0625 L 210.8125 448.9375 L 211.21875 447.75 L 211.59375 446.5 L 211.90625 445.21875 L 212.15625 443.84375 L 212.34375 442.46875 L 212.53125 440.96875 L 212.59375 439.46875 L 212.65625 437.84375 L 212.59375 436.21875 L 212.53125 434.65625 L 212.40625 433.09375 L 212.21875 431.65625 L 212 430.28125 L 211.71875 428.9375 L 211.4375 427.625 L 211.0625 426.40625 L 210.6875 425.25 L 210.21875 424.15625 L 209.75 423.0625 L 209.21875 422.0625 L 208.71875 421.09375 L 208.125 420.21875 L 207.5 419.34375 L 206.875 418.53125 L 206.1875 417.78125 L 205.46875 417.03125 L 204.78125 416.40625 L 204.03125 415.75 L 203.21875 415.1875 L 202.4375 414.625 L 201.625 414.125 L 200.8125 413.65625 L 199.9375 413.21875 L 199.0625 412.8125 L 198.1875 412.46875 L 197.28125 412.125 L 196.375 411.84375 L 195.46875 411.59375 L 194.53125 411.375 L 193.59375 411.15625 L 192.65625 410.96875 L 191.71875 410.84375 L 190.78125 410.71875 L 189.8125 410.625 L 188.875 410.5625 L 187.9375 410.5 L 187 410.46875 L 186.0625 410.4375 L 185.59375 410.4375 L 185.28125 410.4375 L 184.875 410.4375 L 184.40625 410.4375 L 183.8125 410.4375 L 183.1875 410.4375 L 182.5 410.4375 L 181.78125 410.4375 L 180.96875 410.4375 L 180.125 410.4375 L 179.25 410.4375 L 178.34375 410.4375 L 177.375 410.4375 L 176.40625 410.4375 L 175.40625 410.4375 L 174.40625 410.4375 L 173.375 410.4375 L 172.34375 410.4375 L 171.3125 410.4375 L 170.3125 410.4375 L 169.28125 410.4375 L 168.28125 410.4375 L 167.3125 410.4375 L 166.375 410.4375 L 165.4375 410.4375 L 164.5625 410.4375 L 163.71875 410.4375 L 162.90625 410.4375 L 162.1875 410.4375 L 161.5 410.4375 L 160.875 410.4375 L 160.3125 410.4375 L 159.8125 410.4375 L 159.40625 410.4375 L 159.09375 410.4375 L 158.84375 410.4375 z M 170.28125 421.25 L 170.53125 421.25 L 171 421.25 L 171.28125 421.25 L 171.625 421.25 L 172 421.25 L 172.40625 421.25 L 172.875 421.25 L 173.34375 421.25 L 173.875 421.25 L 174.40625 421.25 L 174.9375 421.25 L 175.53125 421.25 L 176.125 421.25 L 176.71875 421.25 L 177.34375 421.25 L 177.9375 421.25 L 178.5625 421.25 L 179.1875 421.25 L 179.8125 421.25 L 180.4375 421.25 L 181.03125 421.25 L 181.625 421.25 L 182.1875 421.25 L 182.75 421.25 L 183.3125 421.25 L 183.8125 421.25 L 184.28125 421.25 L 184.75 421.25 L 185.15625 421.25 L 185.53125 421.25 L 185.875 421.25 L 186.1875 421.25 L 186.40625 421.25 L 186.78125 421.25 L 187.09375 421.25 L 187.3125 421.25 L 187.5625 421.3125 L 187.875 421.3125 L 188.15625 421.34375 L 188.5 421.4375 L 188.84375 421.46875 L 189.21875 421.5625 L 189.59375 421.625 L 190 421.75 L 190.40625 421.875 L 190.875 422 L 191.28125 422.15625 L 191.71875 422.3125 L 192.1875 422.53125 L 192.65625 422.75 L 193.09375 423 L 193.5625 423.25 L 194 423.53125 L 194.46875 423.84375 L 194.90625 424.1875 L 195.375 424.5625 L 195.78125 424.9375 L 196.21875 425.40625 L 196.625 425.84375 L 197.03125 426.34375 L 197.40625 426.84375 L 197.78125 427.375 L 198.125 428 L 198.4375 428.59375 L 198.75 429.28125 L 199.03125 429.96875 L 199.28125 430.71875 L 199.5 431.46875 L 199.6875 432.28125 L 199.875 433.15625 L 200 434.0625 L 200.09375 435 L 200.15625 435.96875 L 200.15625 437.03125 L 200.15625 438.125 L 200.09375 439.1875 L 200 440.1875 L 199.84375 441.125 L 199.65625 442.03125 L 199.4375 442.90625 L 199.1875 443.71875 L 198.9375 444.5 L 198.59375 445.21875 L 198.28125 445.96875 L 197.90625 446.59375 L 197.53125 447.21875 L 197.09375 447.78125 L 196.6875 448.34375 L 196.21875 448.875 L 195.78125 449.3125 L 195.28125 449.78125 L 194.78125 450.21875 L 194.28125 450.59375 L 193.75 450.9375 L 193.1875 451.28125 L 192.65625 451.59375 L 192.125 451.84375 L 191.5625 452.125 L 191 452.3125 L 190.46875 452.53125 L 189.875 452.71875 L 189.34375 452.875 L 188.78125 453 L 188.25 453.125 L 187.71875 453.25 L 187.21875 453.34375 L 186.6875 453.40625 L 186.1875 453.5 L 185.71875 453.53125 L 185.25 453.5625 L 184.78125 453.625 L 184.34375 453.625 L 183.9375 453.65625 L 183.5625 453.65625 L 183.34375 453.65625 L 183 453.65625 L 182.75 453.65625 L 182.5 453.65625 L 182.1875 453.65625 L 181.84375 453.65625 L 181.5 453.65625 L 181.09375 453.65625 L 180.6875 453.65625 L 180.25 453.65625 L 179.8125 453.65625 L 179.375 453.65625 L 178.875 453.65625 L 178.375 453.65625 L 177.90625 453.65625 L 177.40625 453.65625 L 176.90625 453.65625 L 176.4375 453.65625 L 175.90625 453.65625 L 175.4375 453.65625 L 174.9375 453.65625 L 174.46875 453.65625 L 174 453.65625 L 173.5625 453.65625 L 173.125 453.65625 L 172.71875 453.65625 L 172.34375 453.65625 L 171.96875 453.65625 L 171.65625 453.65625 L 171.34375 453.65625 L 171.0625 453.65625 L 170.84375 453.65625 L 170.46875 453.65625 L 170.28125 453.65625 L 170.28125 421.25 z "
   id="path10" />
</g><g
   id="LWPOLYLINE_6_"
   style="stroke:none;fill:#000000;fill-opacity:1">
	
		<path
   style="stroke:none;fill:#000000;fill-opacity:1"
   d="M 346.5625 410.46875 C 346.3635 410.46075 346.34375 506.8125 346.34375 506.8125 L 346.6875 506.8125 L 346.9375 506.8125 L 347.25 506.8125 L 347.625 506.8125 L 348.0625 506.8125 L 348.5 506.8125 L 349.03125 506.8125 L 349.59375 506.8125 L 350.21875 506.8125 L 350.84375 506.8125 L 351.5 506.8125 L 352.1875 506.8125 L 352.9375 506.8125 L 353.65625 506.8125 L 354.4375 506.8125 L 355.1875 506.8125 L 355.96875 506.8125 L 356.75 506.8125 L 357.5 506.8125 L 358.28125 506.8125 L 359.0625 506.8125 L 359.8125 506.8125 L 360.5625 506.8125 L 361.28125 506.8125 L 361.96875 506.8125 L 362.625 506.8125 L 363.25 506.8125 L 363.875 506.8125 L 364.4375 506.8125 L 364.96875 506.8125 L 365.46875 506.8125 L 365.84375 506.8125 L 366.21875 506.8125 L 366.5625 506.8125 L 366.78125 506.8125 L 367.0625 506.8125 L 368.34375 506.8125 L 369.5625 506.8125 L 370.71875 506.75 L 371.90625 506.6875 L 373.03125 506.625 L 374.125 506.5 L 375.21875 506.4375 L 376.28125 506.3125 L 377.34375 506.1875 L 378.34375 506.03125 L 379.375 505.875 L 380.34375 505.6875 L 381.28125 505.5 L 382.21875 505.3125 L 383.09375 505.0625 L 384 504.8125 L 384.84375 504.5625 L 385.65625 504.28125 L 386.46875 504 L 387.28125 503.71875 L 388.0625 503.40625 L 388.78125 503.03125 L 389.5 502.71875 L 390.1875 502.34375 L 390.875 501.9375 L 391.53125 501.5625 L 392.1875 501.125 L 392.78125 500.71875 L 393.40625 500.28125 L 393.96875 499.8125 L 394.53125 499.34375 L 395.0625 498.84375 L 395.59375 498.3125 L 396.125 497.8125 L 396.5625 497.28125 L 397.0625 496.75 L 397.5 496.125 L 397.90625 495.5625 L 398.3125 494.96875 L 398.65625 494.34375 L 399 493.875 L 399.28125 493.34375 L 399.5625 492.78125 L 399.84375 492.21875 L 400.125 491.625 L 400.375 491.03125 L 400.65625 490.375 L 400.90625 489.71875 L 401.09375 489.09375 L 401.34375 488.40625 L 401.53125 487.65625 L 401.75 486.9375 L 401.9375 486.15625 L 402.15625 485.40625 L 402.34375 484.59375 L 402.53125 483.71875 L 402.6875 482.875 L 402.84375 482 L 403 481.09375 L 403.125 480.125 L 403.28125 479.1875 L 403.40625 478.1875 L 403.53125 477.15625 L 403.65625 476.09375 L 403.75 475.0625 L 403.84375 473.96875 L 403.9375 472.8125 L 404.03125 471.65625 L 404.09375 470.46875 L 404.1875 469.25 L 404.21875 468 L 404.3125 466.71875 L 404.34375 465.40625 L 404.375 464.0625 L 404.4375 462.6875 L 404.4375 461.3125 L 404.46875 459.84375 L 404.46875 458.375 L 404.5 456.875 L 404.5 455.34375 L 404.5 455.0625 L 404.46875 454.6875 L 404.46875 454.3125 L 404.46875 453.875 L 404.46875 453.40625 L 404.4375 452.875 L 404.4375 452.25 L 404.375 451.65625 L 404.34375 451 L 404.3125 450.3125 L 404.25 449.59375 L 404.21875 448.8125 L 404.1875 448.03125 L 404.09375 447.21875 L 404.0625 446.375 L 403.96875 445.53125 L 403.90625 444.625 L 403.8125 443.75 L 403.75 442.84375 L 403.65625 441.90625 L 403.5625 441.03125 L 403.4375 440.09375 L 403.375 439.15625 L 403.25 438.21875 L 403.125 437.28125 L 402.96875 436.34375 L 402.84375 435.46875 L 402.6875 434.53125 L 402.5625 433.625 L 402.40625 432.78125 L 402.25 431.9375 L 402.03125 431.09375 L 401.875 430.28125 L 401.65625 429.46875 L 401.46875 428.71875 L 401.25 427.96875 L 401.0625 427.28125 L 400.8125 426.625 L 400.5625 426 L 400.34375 425.40625 L 399.96875 424.625 L 399.5625 423.875 L 399.15625 423.09375 L 398.75 422.375 L 398.3125 421.6875 L 397.84375 421 L 397.40625 420.34375 L 396.96875 419.71875 L 396.46875 419.125 L 395.9375 418.5 L 395.46875 418 L 394.9375 417.40625 L 394.40625 416.9375 L 393.84375 416.40625 L 393.28125 415.9375 L 392.71875 415.5 L 392.15625 415.0625 L 391.53125 414.65625 L 390.9375 414.25 L 390.28125 413.90625 L 389.625 413.5625 L 388.96875 413.21875 L 388.28125 412.90625 L 387.59375 412.625 L 386.90625 412.34375 L 386.1875 412.09375 L 385.46875 411.875 L 384.71875 411.65625 L 383.96875 411.46875 L 383.1875 411.3125 L 382.375 411.125 L 381.59375 411 L 380.75 410.875 L 379.9375 410.78125 L 379.09375 410.65625 L 378.1875 410.59375 L 377.34375 410.53125 L 376.4375 410.5 L 375.5 410.46875 L 374.59375 410.46875 L 374.125 410.46875 L 373.8125 410.46875 L 373.375 410.46875 L 372.875 410.46875 L 372.3125 410.46875 L 371.65625 410.46875 L 370.9375 410.46875 L 370.21875 410.46875 L 369.34375 410.46875 L 368.5 410.46875 L 367.59375 410.46875 L 366.625 410.46875 L 365.65625 410.46875 L 364.65625 410.46875 L 363.625 410.46875 L 362.5625 410.46875 L 361.53125 410.46875 L 360.46875 410.46875 L 359.40625 410.46875 L 358.34375 410.46875 L 357.3125 410.46875 L 356.28125 410.46875 L 355.28125 410.46875 L 354.3125 410.46875 L 353.375 410.46875 L 352.4375 410.46875 L 351.59375 410.46875 L 350.78125 410.46875 L 350 410.46875 L 349.28125 410.46875 L 348.65625 410.46875 L 348.0625 410.46875 L 347.5625 410.46875 L 347.15625 410.46875 L 346.8125 410.46875 L 346.5625 410.46875 z M 358 421.25 L 358.25 421.25 L 358.65625 421.25 L 358.9375 421.25 L 359.25 421.25 L 359.625 421.25 L 360.03125 421.25 L 360.46875 421.25 L 360.90625 421.25 L 361.40625 421.25 L 361.875 421.25 L 362.40625 421.25 L 362.96875 421.25 L 363.5625 421.25 L 364.125 421.25 L 364.6875 421.25 L 365.28125 421.25 L 365.84375 421.25 L 366.46875 421.25 L 367.03125 421.25 L 367.65625 421.25 L 368.21875 421.25 L 368.78125 421.25 L 369.3125 421.25 L 369.84375 421.25 L 370.34375 421.25 L 370.84375 421.25 L 371.28125 421.25 L 371.75 421.25 L 372.09375 421.25 L 372.46875 421.25 L 372.78125 421.25 L 373.0625 421.25 L 373.3125 421.25 L 373.65625 421.25 L 374.6875 421.25 L 375.59375 421.3125 L 376.4375 421.375 L 377.28125 421.46875 L 378.09375 421.59375 L 378.90625 421.71875 L 379.6875 421.90625 L 380.46875 422.125 L 381.1875 422.34375 L 381.875 422.59375 L 382.5625 422.875 L 383.21875 423.25 L 383.8125 423.5625 L 384.4375 423.96875 L 385 424.4375 L 385.5625 424.875 L 386.09375 425.34375 L 386.625 425.875 L 387.09375 426.4375 L 387.5625 427.0625 L 388 427.71875 L 388.40625 428.40625 L 388.8125 429.125 L 389.1875 429.84375 L 389.53125 430.65625 L 389.875 431.53125 L 390.15625 432.375 L 390.4375 433.3125 L 390.65625 434.28125 L 390.90625 435.25 L 391.125 436.3125 L 391.3125 437.40625 L 391.46875 438.53125 L 391.65625 439.75 L 391.78125 440.96875 L 391.84375 442.21875 L 391.9375 443.5625 L 391.96875 444.9375 L 392 446.375 L 392 447.8125 L 392 448.15625 L 392 448.34375 L 392 448.625 L 392 449 L 392 449.375 L 392 449.8125 L 392 450.3125 L 392 450.8125 L 392 451.40625 L 392 451.96875 L 392 452.5625 L 392 453.21875 L 392 453.875 L 392 454.5625 L 392 455.25 L 392 455.96875 L 392 456.65625 L 392 457.40625 L 392 458.09375 L 392 458.8125 L 392 459.5 L 392 460.1875 L 392 460.875 L 392 461.5625 L 392 462.1875 L 392 462.8125 L 392 463.40625 L 392 463.96875 L 392 464.4375 L 392 464.9375 L 392 465.375 L 392 465.78125 L 392 466.09375 L 392 466.375 L 392 466.625 L 392 466.875 L 392 468.59375 L 391.96875 470.15625 L 391.9375 471.6875 L 391.84375 473.21875 L 391.71875 474.625 L 391.59375 476 L 391.46875 477.3125 L 391.28125 478.5625 L 391.0625 479.78125 L 390.875 480.9375 L 390.59375 482.03125 L 390.3125 483.09375 L 390.03125 484.125 L 389.6875 485.09375 L 389.28125 485.96875 L 388.9375 486.84375 L 388.46875 487.6875 L 388.03125 488.46875 L 387.5625 489.1875 L 387.0625 489.875 L 386.5 490.53125 L 385.9375 491.125 L 385.3125 491.6875 L 384.6875 492.21875 L 383.96875 492.71875 L 383.28125 493.15625 L 382.5625 493.5625 L 381.78125 493.96875 L 380.96875 494.28125 L 380.125 494.625 L 379.25 494.90625 L 378.3125 495.15625 L 377.375 495.34375 L 376.34375 495.5 L 375.34375 495.65625 L 374.28125 495.78125 L 373.15625 495.875 L 372.03125 495.96875 L 370.84375 496 L 369.59375 496 L 369.25 496 L 368.90625 496 L 368.65625 496 L 368.40625 496 L 368.09375 496 L 367.8125 496 L 367.4375 496 L 367.125 496 L 366.71875 496 L 366.34375 496 L 365.9375 496 L 365.53125 496 L 365.09375 496 L 364.6875 496 L 364.21875 496 L 363.78125 496 L 363.34375 496 L 362.9375 496 L 362.5 496 L 362.09375 496 L 361.625 496 L 361.28125 496 L 360.875 496 L 360.5 496 L 360.125 496 L 359.8125 496 L 359.5 496 L 359.21875 496 L 358.9375 496 L 358.6875 496 L 358.3125 496 L 358.0625 496 C 357.9865 496.014 358 421.25 358 421.25 z "
   id="path22" />
</g><g
   id="LWPOLYLINE_13_"
   style="stroke:none;fill:#000000;fill-opacity:1">
	
		<path
   style="stroke:none;fill:#000000;fill-opacity:1"
   d="M 222.46875 145.5 L 222.46875 190 L 44.03125 190 L 44.03125 212.28125 L 222.46875 212.28125 L 222.46875 301.3125 L 44.03125 301.3125 L 44.03125 323.59375 L 222.46875 323.59375 L 222.46875 368.09375 L 311.71875 368.09375 L 311.71875 323.59375 L 356.34375 323.59375 L 356.34375 190 L 311.71875 190 L 311.71875 145.5 L 222.46875 145.5 z M 245.03125 167.9375 L 289.0625 167.9375 L 289.0625 345.65625 L 245.03125 345.65625 L 245.03125 167.9375 z M 311.46875 211.9375 L 333.90625 211.9375 L 333.90625 301.65625 L 311.46875 301.65625 L 311.46875 211.9375 z "
   id="polygon43" />
</g><g
   id="LWPOLYLINE"
   style="stroke:none;fill:#000000;fill-opacity:1">
	
		<path
   fill="none"
   stroke="#000000"
   stroke-width="0.7087"
   stroke-linecap="round"
   stroke-linejoin="round"
   stroke-miterlimit="10"
   d="   M83.896,477.758l-0.061,0.689l-0.061,0.771l-0.041,0.77l-0.04,0.812l-0.021,0.893v0.891v0.934l0.04,0.934l0.062,0.973l0.081,0.973   l0.101,1.014l0.143,1.016l0.183,1.014l0.223,1.014l0.243,1.014l0.305,1.055l0.324,1.014l0.405,1.014l0.426,0.973l0.487,1.014   l0.547,0.975l0.589,0.932l0.669,0.934l0.71,0.893l0.79,0.893l0.853,0.852l0.933,0.77l0.993,0.771l1.055,0.73l1.156,0.689   l1.216,0.607l1.318,0.568l1.399,0.527l1.48,0.445l1.581,0.406l1.663,0.324l1.765,0.283l1.865,0.162l1.967,0.123l2.049,0.039h1.135   l1.115-0.039l1.096-0.082l1.115-0.08l1.095-0.123l1.075-0.121l1.074-0.203l1.075-0.203l1.034-0.203l1.034-0.283l1.034-0.283   l0.993-0.324l0.994-0.365l0.953-0.406l0.953-0.406l0.933-0.486l0.893-0.486l0.871-0.527l0.853-0.568l0.831-0.607l0.791-0.648   l0.771-0.689l0.729-0.689l0.71-0.771l0.669-0.811l0.629-0.811l0.608-0.893l0.567-0.934l0.527-0.973l0.487-0.975l0.445-1.053   l0.406-1.096l0.365-1.135l0.304-1.178l0.284-1.256l0.223-1.258l0.162-1.338l0.143-1.379l0.081-1.42l0.02-1.461l-0.081-2.23   l-0.223-2.148l-0.386-1.988l-0.486-1.906l-0.648-1.783l-0.751-1.664l-0.872-1.621l-0.953-1.502l-1.074-1.418l-1.136-1.34   l-1.237-1.256l-1.298-1.217l-1.358-1.137l-1.439-1.094l-1.46-1.014l-1.501-0.975l-1.541-0.973l-1.562-0.893l-1.581-0.893   l-1.582-0.893l-1.603-0.852l-1.581-0.811l-1.562-0.852l-1.541-0.811l-1.501-0.852l-1.46-0.852l-1.419-0.854l-1.379-0.891   l-1.298-0.893l-1.237-0.975l-1.136-0.973l-1.074-1.014l-0.953-1.096l-0.872-1.094l-0.751-1.217l-0.628-1.258l-0.527-1.297   l-0.365-1.42l-0.223-1.502l-0.081-1.541l0.02-0.77l0.041-0.689l0.061-0.689l0.102-0.689l0.122-0.648l0.142-0.609l0.162-0.607   l0.183-0.609l0.223-0.568l0.224-0.525l0.264-0.527l0.283-0.527l0.284-0.488l0.324-0.486l0.325-0.445l0.345-0.406l0.364-0.404   l0.386-0.406l0.405-0.365l0.405-0.365l0.427-0.324l0.445-0.324l0.467-0.283l0.467-0.285l0.466-0.242l0.487-0.244l0.507-0.244   l0.486-0.201l0.527-0.162l0.527-0.203l0.527-0.162l0.527-0.123l0.547-0.121l0.548-0.121l0.548-0.082l0.547-0.041l0.568-0.08   l0.547-0.041h0.568l0.547-0.041l0.812,0.041l0.75,0.041l0.75,0.041l0.71,0.121l0.689,0.121l0.67,0.123l0.628,0.201l0.608,0.203   l0.588,0.203l0.568,0.244l0.527,0.283l0.527,0.283l0.486,0.326l0.466,0.324l0.446,0.365l0.406,0.363l0.405,0.406l0.385,0.406   l0.365,0.445l0.324,0.447l0.325,0.486l0.283,0.486l0.284,0.527l0.264,0.527l0.243,0.527l0.224,0.566l0.202,0.609l0.183,0.568   l0.162,0.607l0.162,0.648l0.122,0.609l0.122,0.648l0.101,0.689l0.102,0.689l0.081,0.648l0.062,0.73l0.04,0.689l0.021,0.73   l0.021,0.73l0.02,0.77c0.183,0,0.345,0,0.345,0c0.183,0,0.406,0,0.406,0h0.243h0.304h0.305h0.345h0.345h0.385h0.406h0.426h0.426   h0.446h0.445h0.467h0.467h0.466h0.467h0.466h0.446h0.467h0.446h0.426h0.405h0.405h0.386h0.365h0.345h0.304h0.284h0.264h0.223   c0.183,0,0.324,0,0.324,0c0.203,0,0.244-1.42,0.244-1.42v-1.379l-0.041-1.338l-0.061-1.297l-0.122-1.258l-0.162-1.217l-0.183-1.176   l-0.243-1.137l-0.264-1.094l-0.304-1.055l-0.345-1.014l-0.365-0.975l-0.426-0.973l-0.446-0.893l-0.486-0.852l-0.508-0.852   l-0.567-0.811l-0.567-0.73l-0.629-0.73l-0.649-0.689l-0.689-0.648l-0.709-0.629l-0.771-0.568l-0.771-0.547l-0.812-0.508   l-0.852-0.486l-0.872-0.445l-0.893-0.406l-0.953-0.365l-0.953-0.344l-0.993-0.305l-1.014-0.264l-1.055-0.242l-1.075-0.225   l-1.095-0.162l-1.136-0.141l-1.155-0.123l-1.177-0.08l-1.217-0.041l-1.236-0.02l-1.177,0.02l-1.155,0.041l-1.156,0.08l-1.136,0.123   l-1.115,0.141l-1.095,0.162l-1.095,0.203l-1.055,0.244l-1.055,0.264l-1.034,0.303l-0.993,0.326l-0.994,0.363l-0.953,0.406   l-0.933,0.426l-0.912,0.447l-0.893,0.506l-0.872,0.508l-0.831,0.566l-0.791,0.59l-0.791,0.627l-0.75,0.65l-0.71,0.689l-0.689,0.729   l-0.649,0.73l-0.628,0.811l-0.589,0.812l-0.547,0.852l-0.527,0.893l-0.467,0.891l-0.445,0.975l-0.406,0.973l-0.365,1.014   l-0.324,1.055l-0.283,1.096l-0.244,1.135l-0.202,1.137l-0.162,1.217l-0.122,1.217l-0.061,1.256l-0.021,1.299l0.061,2.109   l0.243,1.986l0.365,1.906l0.507,1.824l0.629,1.703l0.771,1.582l0.852,1.541l0.974,1.42l1.055,1.379l1.155,1.258l1.237,1.217   l1.298,1.176l1.358,1.096l1.42,1.055l1.48,1.014l1.5,0.973l1.541,0.934l1.562,0.891l1.582,0.854l1.581,0.852l1.582,0.852   l1.582,0.811l1.562,0.811l1.541,0.812l1.521,0.852l1.46,0.811l1.42,0.852l1.358,0.852l1.318,0.934l1.217,0.891l1.155,0.975   l1.055,1.014l0.974,1.055l0.872,1.094l0.75,1.137l0.629,1.217l0.507,1.297l0.365,1.34l0.243,1.459l0.081,1.5l-0.021,0.852   l-0.041,0.852l-0.061,0.771l-0.102,0.771l-0.121,0.77l-0.143,0.73l-0.182,0.689l-0.183,0.648l-0.224,0.648l-0.243,0.65   l-0.264,0.566l-0.284,0.568l-0.304,0.568l-0.345,0.527l-0.345,0.486l-0.365,0.486l-0.385,0.445l-0.406,0.406l-0.426,0.445   l-0.446,0.365l-0.466,0.365l-0.467,0.324l-0.507,0.324l-0.507,0.326l-0.507,0.283l-0.548,0.244l-0.547,0.242l-0.568,0.203   l-0.567,0.203l-0.608,0.203l-0.588,0.162l-0.608,0.121l-0.629,0.121l-0.629,0.123l-0.648,0.08l-0.649,0.082l-0.669,0.039   l-0.669,0.041l-0.669,0.041h-0.689h-0.548l-0.567-0.041l-0.568-0.041l-0.567-0.039l-0.568-0.082l-0.567-0.08l-0.548-0.123   l-0.567-0.121l-0.568-0.162l-0.547-0.162l-0.548-0.203l-0.527-0.203l-0.547-0.242l-0.508-0.244l-0.527-0.283l-0.507-0.285   l-0.486-0.324l-0.486-0.324l-0.467-0.365l-0.467-0.404l-0.445-0.406l-0.426-0.447l-0.406-0.486l-0.405-0.486l-0.386-0.527   l-0.364-0.527l-0.345-0.607l-0.305-0.609l-0.304-0.607l-0.284-0.689l-0.264-0.689l-0.223-0.689l-0.224-0.771l-0.183-0.77   l-0.162-0.812l-0.121-0.852l-0.102-0.891l-0.081-0.934l-0.041-0.934l-0.021-0.973c0-0.203,0-0.244,0-0.244c0-0.201,0-0.283,0-0.283   c0-0.162,0-0.244,0-0.244c0-0.201,0-0.283,0-0.283c0-0.203,0-0.283,0-0.283c0-0.203,0-0.285,0-0.285c0-0.162,0-0.242,0-0.242   c0-0.162,0-0.244,0-0.244c0-0.203,0-0.242,0-0.242C95.515,477.758,83.896,477.758,83.896,477.758z"
   id="path4"
   style="stroke:none;fill:#000000;fill-opacity:1" />
</g>
<g
   id="LWPOLYLINE_1_"
   style="stroke:none;fill:#000000;fill-opacity:1">
	
		
</g>

<g
   id="LWPOLYLINE_3_"
   style="stroke:none;fill:#000000;fill-opacity:1">
	
		<path
   fill="none"
   stroke="#000000"
   stroke-width="0.7087"
   stroke-linecap="round"
   stroke-linejoin="round"
   stroke-miterlimit="10"
   d="   M241.701,410.455c-0.183,0-0.325,0-0.325,0c-0.183,0-0.385,0-0.385,0h-0.224h-0.264H240.2h-0.304h-0.345h-0.365h-0.365h-0.386   h-0.405h-0.426h-0.426h-0.426h-0.426h-0.446h-0.426h-0.426h-0.446h-0.405h-0.426h-0.406h-0.385h-0.365h-0.365h-0.345h-0.304h-0.305   h-0.263h-0.244c-0.202,0-0.364,0-0.364,0c-0.143,0-0.244,0-0.244,0c-0.081,0.182-0.081,0.709-0.081,0.709v0.832v1.156v1.439v1.725   v1.945v2.23v2.393v2.637v2.799v2.961v3.082v3.244v3.326v3.447v3.488v3.568v3.568v3.609v3.65v3.568v3.57v3.488v3.447v3.324v3.244   v3.084v2.959v2.799v2.637v2.393v2.23v1.947v1.703v1.461v1.135v0.852v0.527c0.183,0.162,0.325,0.162,0.325,0.162   c0.162,0,0.364,0,0.364,0h0.244h0.263h0.305h0.304h0.345h0.365h0.365h0.385h0.406h0.426h0.405h0.446h0.426h0.426h0.446h0.426h0.426   h0.426h0.426h0.405h0.386h0.365h0.365h0.345h0.304h0.304h0.264h0.224c0.202,0,0.385,0,0.385,0c0.143,0,0.244,0,0.244,0   C241.701,506.797,241.701,410.455,241.701,410.455z"
   id="path13"
   style="stroke:none;fill:#000000;fill-opacity:1" />
</g>
<g
   id="LWPOLYLINE_4_"
   style="stroke:none;fill:#000000;fill-opacity:1">
	
		<path
   fill="none"
   stroke="#000000"
   stroke-width="0.7087"
   stroke-linecap="round"
   stroke-linejoin="round"
   stroke-miterlimit="10"
   d="   M314.804,410.455c0,0.162,0,0.607,0,0.607v0.711v0.994v1.236v1.459v1.664v1.906v2.027v2.23v2.393v2.555v2.637v2.758v2.84v2.92v3   v3.043v3.041v3.082v3.082v3.082v3.043v2.961v2.961v2.838v2.758v2.637v2.514v2.393v2.23v2.068v1.906v1.664v1.459v1.217v1.014v0.689   v0.447c-0.081,0-0.284-0.447-0.284-0.447l-0.324-0.689l-0.405-1.014l-0.568-1.217l-0.648-1.459l-0.73-1.664l-0.852-1.906   l-0.933-2.068l-0.974-2.23l-1.054-2.393l-1.136-2.514l-1.177-2.637l-1.217-2.758l-1.257-2.838l-1.298-2.961l-1.338-2.961   l-1.339-3.043l-1.379-3.082l-1.379-3.082l-1.379-3.082l-1.338-3.041l-1.339-3.043l-1.338-3l-1.298-2.92l-1.258-2.84l-1.257-2.758   l-1.177-2.637l-1.115-2.555l-1.054-2.393l-0.994-2.23l-0.912-2.027l-0.832-1.906l-0.75-1.664l-0.648-1.459l-0.548-1.236   l-0.446-0.994l-0.324-0.711l-0.183-0.445c-0.203-0.162-0.345-0.162-0.345-0.162c-0.203,0-0.446,0-0.446,0h-0.284h-0.345h-0.385   h-0.405h-0.467h-0.467h-0.526h-0.527h-0.548h-0.588h-0.588h-0.608h-0.608h-0.629h-0.608h-0.629h-0.628h-0.608h-0.608h-0.588h-0.568   h-0.547h-0.548h-0.507h-0.487h-0.445h-0.426h-0.365h-0.345h-0.305h-0.243c-0.203,0-0.345,0-0.345,0   c-0.121,0.182-0.121,0.709-0.121,0.709v0.832v1.156v1.439v1.725v1.945v2.23v2.393v2.637v2.799v2.961v3.082v3.244v3.326v3.447v3.488   v3.568v3.568v3.609v3.65v3.568v3.57v3.488v3.447v3.324v3.244v3.084v2.959v2.799v2.637v2.393v2.23v1.947v1.703v1.461v1.135v0.852   v0.527c0.182,0.162,0.304,0.162,0.304,0.162c0.162,0,0.345,0,0.345,0h0.223h0.264h0.264h0.284h0.324h0.324h0.345h0.365h0.386h0.385   h0.386h0.405h0.386h0.405h0.405h0.406h0.405h0.385h0.386h0.385h0.345h0.365h0.324h0.305h0.304h0.264h0.244h0.223   c0.203,0,0.365,0,0.365,0c0.121,0,0.223,0,0.223,0c0.081-0.121,0.081-0.607,0.081-0.607V505.5v-1.016v-1.256v-1.461v-1.703v-1.906   v-2.068v-2.271v-2.393v-2.555v-2.678v-2.797v-2.881v-2.959v-3.002v-3.082v-3.082v-3.123v-3.082v-3.123v-3.043v-3.041v-2.961v-2.879   v-2.758v-2.678v-2.555v-2.434v-2.23v-2.109v-1.865v-1.703v-1.5v-1.217v-1.014v-0.73V423.9c0.061,0,0.264,0.445,0.264,0.445   l0.324,0.73l0.446,1.014l0.568,1.217l0.669,1.5l0.75,1.703l0.852,1.865l0.953,2.109l1.014,2.23l1.075,2.434l1.156,2.555   l1.196,2.678l1.257,2.758l1.298,2.879l1.318,2.961l1.358,3.041l1.379,3.043l1.42,3.123l1.379,3.082l1.419,3.123l1.379,3.082   l1.379,3.082l1.379,3.002l1.298,2.959l1.298,2.881l1.258,2.797l1.216,2.678l1.136,2.555l1.096,2.393l1.014,2.271l0.933,2.068   l0.852,1.906l0.771,1.703l0.649,1.461l0.567,1.256l0.446,1.016l0.324,0.689l0.203,0.486c0.202,0.121,0.324,0.121,0.324,0.121   c0.203,0,0.446,0,0.446,0h0.284h0.324h0.324h0.405h0.446h0.446h0.486h0.487h0.567h0.527h0.567h0.568h0.567h0.608h0.568h0.608h0.608   h0.567h0.567h0.568h0.527h0.527h0.526h0.487h0.446h0.445h0.406h0.324h0.324h0.284h0.243c0.203,0,0.324,0,0.324,0   c0.122-0.162,0.122-0.689,0.122-0.689v-0.852v-1.135v-1.461v-1.703v-1.947v-2.23v-2.393v-2.637v-2.799v-2.959v-3.084v-3.244v-3.324   v-3.447v-3.488v-3.57v-3.568v-3.65v-3.609v-3.568v-3.568v-3.488v-3.447v-3.326v-3.244v-3.082v-2.961v-2.799v-2.637v-2.393v-2.23   v-1.945v-1.725v-1.439v-1.156v-0.832v-0.527C325.592,410.455,314.804,410.455,314.804,410.455z"
   id="path16"
   style="stroke:none;fill:#000000;fill-opacity:1" />
</g>
<g
   id="LWPOLYLINE_5_"
   style="stroke:none;fill:#000000;fill-opacity:1">
	
		
</g>

<g
   id="LWPOLYLINE_7_"
   style="stroke:none;fill:#000000;fill-opacity:1">
	
		<path
   fill="none"
   stroke="#000000"
   stroke-width="0.7087"
   stroke-linecap="round"
   stroke-linejoin="round"
   stroke-miterlimit="10"
   d="   M471.798,506.797c0-0.162,0-0.283,0-0.283c0-0.162,0-0.365,0-0.365v-0.203v-0.244v-0.283v-0.283v-0.324v-0.326v-0.363v-0.365   v-0.365v-0.365v-0.406v-0.404v-0.406v-0.406v-0.404v-0.406v-0.406v-0.365v-0.404v-0.365v-0.365v-0.324v-0.365v-0.283v-0.324v-0.244   V496.9v-0.242c0-0.162,0-0.324,0-0.324c0-0.162,0-0.244,0-0.244c-0.081-0.08-0.284-0.08-0.284-0.08h-0.284h-0.445h-0.487h-0.648   h-0.689h-0.812h-0.892h-0.934h-1.014h-1.055h-1.136h-1.176h-1.217h-1.217h-1.298h-1.257h-1.298h-1.338h-1.298h-1.298h-1.298h-1.258   h-1.217h-1.217h-1.176h-1.136h-1.055h-1.014h-0.973h-0.853h-0.811h-0.689h-0.649h-0.527h-0.405h-0.284c-0.202,0-0.283,0-0.283,0   c0-0.164,0-0.609,0-0.609v-0.77v-1.016v-1.297v-1.5v-1.744v-1.947v-2.148v-2.354v-2.475v-2.635v-2.758v-2.84v-2.961v-3.041v-3.123   v-3.164v-3.203v-3.203v-3.205v-3.162v-3.164v-3.123v-3.041v-2.961v-2.881v-2.758v-2.635v-2.475v-2.312v-2.148v-1.947v-1.744v-1.52   v-1.299v-1.014v-0.75v-0.467c-0.162-0.162-0.325-0.162-0.325-0.162c-0.162,0-0.364,0-0.364,0h-0.243h-0.244h-0.324h-0.284h-0.364   h-0.365h-0.365h-0.365h-0.405h-0.446h-0.405h-0.446h-0.405h-0.446h-0.446h-0.405h-0.446h-0.405h-0.446h-0.405h-0.365h-0.365h-0.365   h-0.364h-0.284h-0.324h-0.244h-0.243c-0.202,0-0.365,0-0.365,0c-0.162,0-0.243,0-0.243,0c-0.081,0.182-0.081,0.709-0.081,0.709   v0.832v1.156v1.439v1.725v1.945v2.23v2.393v2.637v2.799v2.961v3.082v3.244v3.326v3.447v3.488v3.568v3.568v3.609v3.65v3.568v3.57   v3.488v3.447v3.324v3.244v3.084v2.959v2.799v2.637v2.393v2.23v1.947v1.703v1.461v1.135v0.852v0.527   C425.279,506.797,471.798,506.797,471.798,506.797z"
   id="path25"
   style="stroke:none;fill:#000000;fill-opacity:1" />
</g>
<g
   id="LWPOLYLINE_8_"
   style="stroke:none;fill:#000000;fill-opacity:1">
	
		<path
   fill="none"
   stroke="#000000"
   stroke-width="0.7087"
   stroke-linecap="round"
   stroke-linejoin="round"
   stroke-miterlimit="10"
   d="   M529.915,506.797c0-0.162,0-0.283,0-0.283c0-0.162,0-0.365,0-0.365v-0.203v-0.244v-0.283v-0.283v-0.324v-0.326v-0.363v-0.365   v-0.365v-0.365v-0.406v-0.404v-0.406v-0.406v-0.404v-0.406v-0.406v-0.365v-0.404v-0.365v-0.365v-0.324v-0.365v-0.283v-0.324v-0.244   V496.9v-0.242c0-0.162,0-0.324,0-0.324c0-0.162,0-0.244,0-0.244c-0.081-0.08-0.284-0.08-0.284-0.08h-0.324h-0.446h-0.527h-0.689   h-0.771h-0.852h-0.933h-1.014h-1.096h-1.135h-1.217h-1.258h-1.257h-1.339h-1.379h-1.379h-1.379h-1.419h-1.379h-1.42h-1.379h-1.338   h-1.339h-1.298h-1.257h-1.176h-1.177h-1.055h-1.054h-0.934h-0.852h-0.729h-0.689h-0.568h-0.445h-0.325c-0.202,0-0.243,0-0.243,0   c0-0.041,0-0.244,0-0.244v-0.283v-0.406v-0.486v-0.609v-0.648v-0.77v-0.854v-0.891v-0.975v-1.014v-1.055v-1.135v-1.137v-1.176   v-1.217v-1.217v-1.256v-1.258v-1.217v-1.258v-1.217v-1.217v-1.176v-1.135v-1.137v-1.055v-1.014v-0.973v-0.893v-0.852v-0.77v-0.65   v-0.607v-0.486v-0.406v-0.283c0-0.203,0-0.244,0-0.244c0.041,0,0.243,0,0.243,0h0.284h0.405h0.527h0.608h0.689h0.771h0.852h0.934   h0.973h1.055h1.095h1.136h1.177h1.216h1.258h1.257h1.258h1.257h1.298h1.257h1.258h1.257h1.217h1.177h1.135h1.096h1.054h0.974h0.933   h0.853h0.771h0.689h0.608h0.526h0.406h0.283c0.203,0,0.244,0,0.244,0c0-0.162,0-0.324,0-0.324c0-0.162,0-0.324,0-0.324V461.9   v-0.242v-0.285v-0.283v-0.283v-0.365v-0.324v-0.365v-0.365v-0.406v-0.365v-0.404v-0.406v-0.406v-0.404v-0.406v-0.406v-0.404v-0.365   v-0.365v-0.365v-0.365v-0.324v-0.324v-0.283V453.1v-0.242v-0.203c0-0.203,0-0.365,0-0.365c0-0.121,0-0.203,0-0.203   c-0.041-0.08-0.244-0.08-0.244-0.08h-0.283h-0.406h-0.526h-0.608h-0.689h-0.771h-0.853h-0.933h-0.974h-1.054h-1.096h-1.135h-1.177   h-1.217h-1.257h-1.258h-1.257h-1.298h-1.257h-1.258h-1.257h-1.258h-1.216h-1.177h-1.136h-1.095h-1.055h-0.973h-0.934h-0.852h-0.771   h-0.689h-0.608h-0.527h-0.405h-0.284c-0.202,0-0.243,0-0.243,0c0-0.082,0-0.244,0-0.244v-0.283v-0.365v-0.447v-0.527v-0.648v-0.689   v-0.77v-0.852v-0.893v-0.934v-0.973v-1.055v-1.055v-1.096v-1.135v-1.135v-1.137v-1.135v-1.176v-1.137v-1.135v-1.096v-1.096v-1.094   v-1.014v-0.975v-0.973v-0.893v-0.811v-0.771v-0.729v-0.609v-0.568v-0.445v-0.365v-0.283c0-0.162,0-0.203,0-0.203   c0.041,0,0.243,0,0.243,0h0.325h0.445h0.527h0.649h0.771h0.811h0.934h0.973h1.055h1.136h1.176h1.217h1.298h1.298h1.298h1.379h1.339   h1.379h1.379h1.338h1.379h1.298h1.338h1.258h1.217h1.176h1.136h1.055h0.973h0.934h0.852h0.729h0.649h0.527h0.446h0.324   c0.202,0,0.283,0,0.283,0c0-0.162,0-0.324,0-0.324c0-0.162,0-0.324,0-0.324v-0.244v-0.244v-0.283v-0.283v-0.285v-0.365v-0.324   v-0.365v-0.363v-0.406v-0.365v-0.406v-0.426v-0.385v-0.406v-0.404v-0.406v-0.385v-0.385v-0.387v-0.365v-0.344v-0.324v-0.324v-0.285   v-0.264v-0.264v-0.201c0-0.203,0-0.365,0-0.365c0-0.123,0-0.223,0-0.223c-0.121-0.082-0.364-0.082-0.364-0.082h-0.406h-0.608   h-0.689h-0.892h-0.974h-1.095h-1.217h-1.298h-1.379h-1.501h-1.541h-1.622h-1.663h-1.703h-1.784h-1.744h-1.825h-1.784h-1.825h-1.784   h-1.785h-1.743h-1.704h-1.703h-1.582h-1.581h-1.46h-1.42h-1.298h-1.217h-1.095h-0.974h-0.852h-0.729h-0.568h-0.446h-0.243   c-0.081,0.182-0.081,0.709-0.081,0.709v0.832v1.156v1.439v1.725v1.945v2.23v2.393v2.637v2.799v2.961v3.082v3.244v3.326v3.447v3.488   v3.568v3.568v3.609v3.65v3.568v3.57v3.488v3.447v3.324v3.244v3.084v2.959v2.799v2.637v2.393v2.23v1.947v1.703v1.461v1.135v0.852   v0.527C480.923,506.797,529.915,506.797,529.915,506.797z"
   id="path28"
   style="stroke:none;fill:#000000;fill-opacity:1" />
</g>
<g
   id="LWPOLYLINE_9_"
   style="stroke:none;fill:#000000;fill-opacity:1">
	
		<path
   fill="none"
   stroke="#000000"
   stroke-width="0.7087"
   stroke-linecap="round"
   stroke-linejoin="round"
   stroke-miterlimit="10"
   d="   M220.104,547.516c-0.183,0-0.324,0-0.324,0c-0.162,0-0.386,0-0.386,0h-0.223h-0.284h-0.284H218.3h-0.345h-0.365h-0.365h-0.385   h-0.405h-0.427h-0.426h-0.426h-0.426h-0.446h-0.426h-0.426h-0.445h-0.406h-0.426h-0.405h-0.386H211h-0.365h-0.345h-0.305h-0.304   h-0.264h-0.224c-0.223,0-0.385,0-0.385,0c-0.142,0-0.243,0-0.243,0c-0.081,0.162-0.081,0.689-0.081,0.689v0.852v1.135v1.461v1.703   v1.988v2.189v2.434v2.596v2.799v2.959v3.123v3.205v3.365v3.406v3.488v3.57v3.609v3.609v3.609v3.568v3.568v3.488v3.447v3.326v3.244   v3.082v2.961v2.799v2.637v2.393v2.23v1.945v1.705v1.459v1.137v0.852v0.527c0.183,0.201,0.324,0.201,0.324,0.201   c0.162,0,0.385,0,0.385,0h0.224h0.264h0.304h0.305h0.345H211h0.364h0.386h0.405h0.426h0.406h0.445h0.426h0.426h0.446h0.426h0.426   h0.426h0.427h0.405h0.385h0.365h0.365h0.345h0.304h0.284h0.284h0.223c0.224,0,0.386,0,0.386,0c0.142,0,0.243,0,0.243,0   C220.104,643.877,220.104,547.516,220.104,547.516z"
   id="path31"
   style="stroke:none;fill:#000000;fill-opacity:1" />
</g>
<g
   id="LWPOLYLINE_10_"
   style="stroke:none;fill:#000000;fill-opacity:1">
	
		<path
   fill="none"
   stroke="#000000"
   stroke-width="0.7087"
   stroke-linecap="round"
   stroke-linejoin="round"
   stroke-miterlimit="10"
   d="   M293.188,547.516c0,0.162,0,0.607,0,0.607v0.689v1.016v1.217v1.459v1.662v1.906v2.068v2.23v2.395v2.514v2.637v2.758v2.838v2.961   v2.961v3.041v3.082v3.084v3.082v3.041v3.041v3.002v2.92v2.84v2.758v2.635v2.557v2.393v2.23v2.027v1.906v1.662v1.461v1.258v0.973   v0.73v0.445c-0.041,0-0.244-0.445-0.244-0.445l-0.324-0.73l-0.446-0.973l-0.526-1.258l-0.649-1.461l-0.771-1.662l-0.812-1.906   l-0.933-2.027l-0.973-2.23l-1.096-2.393l-1.115-2.557l-1.176-2.635l-1.217-2.758l-1.277-2.84l-1.298-2.92l-1.318-3.002   l-1.358-3.041l-1.358-3.041l-1.359-3.082l-1.379-3.084l-1.358-3.082l-1.358-3.041l-1.318-2.961l-1.298-2.961l-1.277-2.838   l-1.217-2.758l-1.176-2.637l-1.136-2.514l-1.055-2.395l-0.993-2.23l-0.913-2.068l-0.831-1.906l-0.751-1.662l-0.648-1.459   l-0.548-1.217l-0.445-1.016l-0.325-0.689l-0.183-0.445c-0.202-0.162-0.345-0.162-0.345-0.162c-0.202,0-0.445,0-0.445,0h-0.284   h-0.345h-0.386h-0.405h-0.467h-0.466h-0.527h-0.527h-0.548h-0.588h-0.588h-0.608h-0.608h-0.608h-0.629h-0.628h-0.608h-0.629h-0.588   h-0.608h-0.567h-0.548h-0.548h-0.507h-0.486h-0.446h-0.426h-0.365h-0.345h-0.304h-0.244c-0.202,0-0.345,0-0.345,0   c-0.121,0.162-0.121,0.689-0.121,0.689v0.852v1.135v1.461v1.703v1.988v2.189v2.434v2.596v2.799v2.959v3.123v3.205v3.365v3.406   v3.488v3.57v3.609v3.609v3.609v3.568v3.568v3.488v3.447v3.326v3.244v3.082v2.961v2.799v2.637v2.393v2.23v1.945v1.705v1.459v1.137   v0.852v0.527c0.183,0.201,0.304,0.201,0.304,0.201c0.162,0,0.365,0,0.365,0h0.203h0.264h0.264h0.283h0.325h0.324h0.345h0.365h0.385   h0.386h0.385h0.406h0.405h0.385h0.406h0.405h0.405h0.386h0.385h0.386h0.365h0.345h0.324h0.304h0.305h0.264h0.243h0.223   c0.203,0,0.365,0,0.365,0c0.122,0,0.224,0,0.224,0c0.081-0.162,0.081-0.607,0.081-0.607v-0.73v-1.014v-1.217v-1.5v-1.703v-1.867   v-2.107v-2.23v-2.434v-2.555v-2.678v-2.799v-2.838v-2.961v-3.041v-3.043v-3.123v-3.082v-3.123v-3.123v-3.041v-3.041v-2.92v-2.881   v-2.799v-2.676v-2.555v-2.393v-2.271v-2.109v-1.865v-1.703v-1.461v-1.258v-1.014v-0.729v-0.447c0.061,0,0.264,0.447,0.264,0.447   l0.324,0.729l0.446,1.014l0.567,1.258l0.669,1.461l0.751,1.703l0.852,1.865l0.953,2.109l1.014,2.271l1.074,2.393l1.156,2.555   l1.196,2.676l1.258,2.799l1.298,2.881l1.317,2.92l1.379,3.041l1.379,3.041l1.379,3.123l1.399,3.123l1.399,3.082l1.399,3.123   l1.379,3.043l1.358,3.041l1.338,2.961l1.298,2.838l1.237,2.799l1.217,2.678l1.136,2.555l1.095,2.434l1.014,2.23l0.933,2.107   l0.853,1.867l0.75,1.703l0.689,1.5l0.567,1.217l0.446,1.014l0.324,0.73l0.203,0.445c0.162,0.162,0.324,0.162,0.324,0.162   c0.162,0,0.406,0,0.406,0h0.283h0.324h0.365h0.406h0.405h0.486h0.487h0.486h0.527h0.567h0.527h0.608h0.567h0.568h0.608h0.608h0.567   h0.568h0.608h0.526h0.568h0.527h0.486h0.486h0.487h0.405h0.405h0.365h0.324h0.284h0.243c0.162,0,0.325,0,0.325,0   c0.121-0.201,0.121-0.729,0.121-0.729v-0.852v-1.137v-1.459v-1.705v-1.945v-2.23v-2.393v-2.637v-2.799v-2.961v-3.082v-3.244v-3.326   v-3.447v-3.488v-3.568v-3.568v-3.609v-3.609v-3.609v-3.57v-3.488v-3.406v-3.365v-3.205v-3.123v-2.959v-2.799v-2.596v-2.434v-2.189   v-1.988v-1.703v-1.461v-1.135v-0.852v-0.527C304.016,547.516,293.188,547.516,293.188,547.516z"
   id="path34"
   style="stroke:none;fill:#000000;fill-opacity:1" />
</g>
<g
   id="LWPOLYLINE_11_"
   style="stroke:none;fill:#000000;fill-opacity:1">
	
		<path
   fill="none"
   stroke="#000000"
   stroke-width="0.7087"
   stroke-linecap="round"
   stroke-linejoin="round"
   stroke-miterlimit="10"
   d="   M377.909,574.08l0.122-1.42l0.081-1.379l0.041-1.338v-1.299l-0.041-1.256l-0.081-1.217l-0.081-1.217l-0.162-1.137l-0.162-1.135   l-0.203-1.055l-0.243-1.055l-0.284-1.014l-0.324-0.973l-0.324-0.934l-0.406-0.893l-0.405-0.852l-0.486-0.852l-0.487-0.77   l-0.527-0.771l-0.567-0.73l-0.608-0.648l-0.648-0.648l-0.689-0.609l-0.73-0.607l-0.771-0.527l-0.812-0.486l-0.811-0.486   l-0.893-0.447l-0.892-0.404l-0.974-0.365l-0.974-0.324l-1.055-0.285l-1.054-0.242l-1.136-0.244l-1.136-0.203l-1.176-0.121   l-1.258-0.121l-1.257-0.082l-1.298-0.08h-1.379h-1.42l-1.379,0.039l-1.338,0.082l-1.339,0.121l-1.298,0.121l-1.298,0.164   l-1.217,0.201l-1.217,0.244l-1.176,0.283l-1.176,0.324l-1.096,0.365l-1.095,0.365l-1.055,0.447l-1.014,0.486l-0.974,0.527   l-0.973,0.566l-0.893,0.609l-0.893,0.648l-0.852,0.689l-0.811,0.771l-0.771,0.811l-0.771,0.852l-0.689,0.893l-0.649,0.973   l-0.648,1.014l-0.568,1.055l-0.567,1.137l-0.527,1.176l-0.446,1.258l-0.446,1.297l-0.405,1.338l-0.365,1.461l-0.324,1.459   l-0.243,1.541l-0.243,1.623l-0.203,1.703l-0.162,1.744l-0.081,1.824l-0.081,1.867v1.986c0,0.162,0,0.406,0,0.406v0.324v0.445v0.486   v0.527v0.65v0.689v0.729v0.812v0.852v0.852v0.932v0.934v0.973v1.016v1.014v1.014v1.014v1.055v1.014v1.014v0.973v1.016v0.932v0.934   v0.852v0.852v0.811v0.73v0.689v0.648v0.527v0.486v0.406v0.365v0.242c0,0.162,0,2.92,0,2.92l0.121,2.596l0.162,2.475l0.203,2.352   l0.324,2.191l0.324,2.107l0.406,1.988l0.446,1.865l0.486,1.785l0.527,1.621l0.608,1.582l0.648,1.42l0.649,1.379l0.729,1.258   l0.73,1.135l0.811,1.096l0.812,1.014l0.812,0.893l0.892,0.852l0.893,0.77l0.893,0.689l0.933,0.65l0.973,0.566l0.974,0.486   l0.974,0.447l0.974,0.406l0.973,0.363l1.015,0.285l1.014,0.283l1.014,0.203l0.974,0.162l1.014,0.162l1.014,0.121l0.974,0.082   l0.974,0.08l0.973,0.041l0.934,0.041h0.933h0.892h0.893h0.527h0.567h0.608h0.689l0.689-0.041l0.73-0.041l0.771-0.08l0.812-0.082   l0.811-0.08l0.852-0.121l0.893-0.164l0.893-0.201l0.892-0.244l0.893-0.244l0.933-0.283l0.893-0.365l0.933-0.404l0.893-0.447   l0.933-0.486l0.892-0.527l0.853-0.607l0.892-0.689l0.812-0.73l0.852-0.771l0.771-0.893l0.771-0.932l0.73-1.014l0.689-1.055   l0.648-1.176l0.608-1.258l0.527-1.338l0.527-1.461l0.446-1.5l0.364-1.623l0.365-1.703l0.243-1.824l0.203-1.906l0.122-2.027   l0.081-2.15l-0.041-2.23c-0.203,0-0.324,0-0.324,0c-0.203,0-0.405,0-0.405,0h-0.284h-0.284h-0.284h-0.364h-0.365h-0.365h-0.405   h-0.405h-0.446h-0.446h-0.446H374.3h-0.486h-0.446h-0.486h-0.446h-0.486h-0.446h-0.446h-0.405h-0.446h-0.406h-0.364h-0.365h-0.324   h-0.325h-0.283h-0.243h-0.244c-0.162,0-0.324,0-0.324,0c-0.203,0-0.203,1.379-0.203,1.379l-0.081,1.338l-0.081,1.299l-0.162,1.217   l-0.162,1.135l-0.162,1.096l-0.243,1.055l-0.243,0.973l-0.284,0.934l-0.324,0.852l-0.325,0.852l-0.364,0.77l-0.406,0.73   l-0.364,0.689l-0.446,0.648l-0.405,0.568l-0.446,0.568l-0.487,0.527l-0.446,0.486l-0.486,0.404l-0.486,0.406l-0.487,0.365   l-0.486,0.365l-0.527,0.283l-0.486,0.283l-0.487,0.244l-0.526,0.203l-0.487,0.203l-0.486,0.162l-0.487,0.162l-0.445,0.121   l-0.487,0.121l-0.446,0.082l-0.445,0.08l-0.406,0.041l-0.405,0.041l-0.405,0.041h-0.365l-0.365,0.041h-0.324h-0.648l-0.689-0.041   l-0.689-0.041l-0.649-0.041l-0.648-0.08l-0.649-0.082l-0.608-0.121l-0.648-0.121l-0.608-0.162l-0.608-0.203l-0.568-0.203   l-0.567-0.244l-0.567-0.283l-0.568-0.324l-0.527-0.324l-0.527-0.406l-0.527-0.406l-0.486-0.445l-0.486-0.527l-0.446-0.527   l-0.446-0.568l-0.405-0.648l-0.406-0.648l-0.405-0.73l-0.365-0.77l-0.364-0.852l-0.325-0.852l-0.283-0.934l-0.284-1.014   l-0.284-1.014l-0.243-1.137l-0.203-1.135l-0.202-1.258l-0.162-1.258l-0.162-1.379l-0.122-1.418l-0.081-1.502l-0.081-1.541   l-0.041-1.662v-1.703c0-0.162,0-0.406,0-0.406v-0.283v-0.406v-0.445v-0.527v-0.609v-0.648v-0.689v-0.73v-0.811v-0.811v-0.893   v-0.893v-0.893v-0.932v-0.975v-0.932v-0.975v-0.973v-0.973v-0.934v-0.934v-0.932v-0.893v-0.852v-0.811v-0.812v-0.729v-0.73v-0.648   v-0.568v-0.527v-0.447v-0.404v-0.285v-0.242c0-0.203,0-1.42,0-1.42v-1.135l0.041-1.137l0.04-1.055v-1.014l0.081-0.973l0.041-0.934   l0.04-0.891l0.082-0.854l0.04-0.77l0.081-0.771l0.081-0.689l0.081-0.689l0.081-0.648l0.081-0.607l0.081-0.568l0.122-0.527   l0.081-0.486l0.081-0.447l0.122-0.445l0.081-0.406l0.081-0.365l0.081-0.363l0.121-0.326l0.082-0.283l0.081-0.283l0.081-0.285   l0.081-0.201l0.081-0.203c0.081-0.203,0.121-0.406,0.121-0.406c0.081-0.121,0.122-0.283,0.122-0.283   c0.041-0.123,0.122-0.244,0.122-0.244c0.04-0.203,0.081-0.283,0.081-0.283c0-0.121,0.081-0.244,0.081-0.244   c0.081-0.162,0.162-0.324,0.162-0.324c0.121-0.162,0.243-0.365,0.243-0.365c0.122-0.203,0.284-0.404,0.284-0.404l0.162-0.203   l0.162-0.203l0.203-0.244l0.202-0.242l0.203-0.244l0.243-0.242l0.243-0.244l0.284-0.244l0.284-0.283l0.283-0.244l0.325-0.242   l0.324-0.244l0.365-0.283l0.364-0.244l0.406-0.242l0.364-0.244l0.446-0.203l0.446-0.242l0.446-0.203l0.486-0.203l0.487-0.203   l0.486-0.203l0.527-0.162l0.567-0.162l0.568-0.162l0.608-0.162l0.608-0.08l0.608-0.123l0.648-0.08l0.689-0.082l0.689-0.039   l0.73-0.041h0.729c0.122,0,0.284,0,0.284,0c0.162,0,0.324,0,0.324,0c0.203,0.041,0.405,0.041,0.405,0.041l0.203,0.039h0.203   l0.243,0.041l0.243,0.041l0.243,0.041l0.243,0.039l0.284,0.082l0.284,0.041l0.243,0.039l0.284,0.082l0.283,0.08l0.325,0.082   l0.283,0.082l0.284,0.08l0.284,0.121l0.324,0.082l0.284,0.121l0.283,0.121l0.325,0.123l0.283,0.121l0.284,0.121l0.284,0.162   l0.283,0.162l0.284,0.123l0.284,0.203l0.243,0.162l0.284,0.162l0.243,0.203l0.243,0.201l0.243,0.203l0.243,0.244l0.203,0.203   l0.203,0.242l0.202,0.244l0.163,0.242l0.202,0.285l0.162,0.242l0.162,0.285l0.163,0.283l0.162,0.283l0.121,0.285l0.162,0.283   l0.122,0.283l0.122,0.326l0.121,0.324l0.122,0.283l0.121,0.324l0.122,0.324l0.122,0.324l0.081,0.365l0.081,0.324l0.121,0.365   l0.081,0.324l0.081,0.365l0.041,0.365l0.081,0.365l0.081,0.365l0.041,0.365l0.081,0.404l0.04,0.365l0.041,0.406l0.04,0.365   l0.081,0.406v0.404l0.041,0.406l0.04,0.404l0.041,0.406v0.406l0.04,0.404v0.447v0.406v0.445l0.041,0.406v0.445H377.909z"
   id="path37"
   style="stroke:none;fill:#000000;fill-opacity:1" />
</g>
<g
   id="LWPOLYLINE_12_"
   style="stroke:none;fill:#000000;fill-opacity:1">
	
		<path
   fill="none"
   stroke="#000000"
   stroke-width="0.7087"
   stroke-linecap="round"
   stroke-linejoin="round"
   stroke-miterlimit="10"
   d="   M405.326,629.723c-0.203,0-0.325,0-0.325,0c-0.202,0-0.446,0-0.446,0h-0.243h-0.283h-0.325h-0.324h-0.365h-0.364h-0.406h-0.405   h-0.446h-0.446h-0.446h-0.486h-0.446h-0.446h-0.486h-0.446h-0.486h-0.446h-0.446h-0.446h-0.405h-0.405h-0.365h-0.365h-0.324h-0.324   h-0.284h-0.243h-0.243c-0.162,0-0.324,0-0.324,0c-0.203,0.123-0.203,0.244-0.203,0.244c0,0.162,0,0.365,0,0.365v0.242v0.326v0.324   v0.324v0.404v0.406v0.447v0.445v0.445v0.527v0.486v0.527v0.488v0.527v0.527v0.525v0.527v0.527v0.527v0.486v0.488v0.486v0.445v0.447   v0.404v0.406v0.324v0.324v0.285v0.283v0.203c0,0.162,0,0.283,0,0.283c0.203,0.121,0.365,0.121,0.365,0.121c0.162,0,0.405,0,0.405,0   h0.243h0.284h0.324h0.324h0.365h0.365h0.405h0.405h0.446h0.446h0.446h0.486h0.446h0.486h0.446h0.446h0.486h0.446h0.446h0.446h0.405   h0.406h0.364h0.365h0.324h0.325h0.283h0.243h0.244c0.202,0,0.324,0,0.324,0C405.326,643.877,405.326,629.723,405.326,629.723z"
   id="path40"
   style="stroke:none;fill:#000000;fill-opacity:1" />
</g>

<g
   id="LWPOLYLINE_14_"
   style="stroke:none;fill:#000000;fill-opacity:1">
	
		
</g>
<g
   id="LWPOLYLINE_15_"
   style="stroke:none;fill:#000000;fill-opacity:1">
	
		
</g>
<g
   id="LWPOLYLINE_16_"
   style="stroke:none;fill:#000000;fill-opacity:1">
	
		<polygon
   fill="none"
   stroke="#000000"
   stroke-width="0.7087"
   stroke-linecap="round"
   stroke-linejoin="round"
   stroke-miterlimit="10"
   points="   437.73,245.999 402,245.999 402,267.595 474.271,267.595 474.271,339.866 495.848,339.866 495.848,267.595 568.971,267.595    568.971,245.999 495.848,245.999 495.848,172.916 474.271,172.916 474.271,245.999  "
   id="polygon52"
   style="stroke:none;fill:#000000;fill-opacity:1" />
</g>
</svg>