<?xml version="1.0" encoding="UTF-8" standalone="no"?>
<!-- Generator: Adobe Illustrator 16.0.1, SVG Export Plug-In . SVG Version: 6.00 Build 0)  -->

<svg
   xmlns:dc="http://purl.org/dc/elements/1.1/"
   xmlns:cc="http://creativecommons.org/ns#"
   xmlns:rdf="http://www.w3.org/1999/02/22-rdf-syntax-ns#"
   xmlns:svg="http://www.w3.org/2000/svg"
   xmlns="http://www.w3.org/2000/svg"
   xmlns:xlink="http://www.w3.org/1999/xlink"
   xmlns:sodipodi="http://sodipodi.sourceforge.net/DTD/sodipodi-0.dtd"
   xmlns:inkscape="http://www.inkscape.org/namespaces/inkscape"
   version="1.0"
   id="_x31_"
   x="0px"
   y="0px"
   width="350"
   height="350"
   viewBox="0 0 350 350"
   enable-background="new 0 0 612 792"
   xml:space="preserve"
   inkscape:version="0.48.2 r9819"
   sodipodi:docname="7007.svg"><metadata
   id="metadata58"><rdf:RDF><cc:Work
       rdf:about=""><dc:format>image/svg+xml</dc:format><dc:type
         rdf:resource="http://purl.org/dc/dcmitype/StillImage" /></cc:Work></rdf:RDF></metadata><defs
   id="defs56"><radialGradient
     r="333.18735"
     fy="467.91885"
     fx="373.24265"
     cy="467.91885"
     cx="373.24265"
     gradientTransform="matrix(0.83535071,2.5391117e-7,-2.4564601e-7,0.80815889,783.12101,707.99698)"
     gradientUnits="userSpaceOnUse"
     id="radialGradient3736"
     xlink:href="#linearGradient5443"
     inkscape:collect="always" /><linearGradient
     y2="254.73526"
     x2="123.47623"
     y1="344.03848"
     x1="123.50603"
     gradientTransform="matrix(2.3189708,0,0,2.0930998,-99.17808,-231.54972)"
     gradientUnits="userSpaceOnUse"
     id="linearGradient3734"
     xlink:href="#linearGradient3187"
     inkscape:collect="always" /><radialGradient
     r="333.18735"
     fy="710.99164"
     fx="373.24265"
     cy="710.99164"
     cx="373.24265"
     gradientTransform="matrix(0.86272608,1.0667183e-7,-5.1097115e-8,0.31434,772.90338,992.7076)"
     gradientUnits="userSpaceOnUse"
     id="radialGradient3732"
     xlink:href="#linearGradient5443"
     inkscape:collect="always" /><radialGradient
     r="333.18735"
     fy="710.99164"
     fx="373.24265"
     cy="710.99164"
     cx="373.24265"
     gradientTransform="matrix(0.86272608,1.0667183e-7,-5.1097115e-8,0.31434,772.90338,992.7076)"
     gradientUnits="userSpaceOnUse"
     id="radialGradient3722"
     xlink:href="#linearGradient5443"
     inkscape:collect="always" /><radialGradient
     r="333.18735"
     fy="467.91885"
     fx="373.24265"
     cy="467.91885"
     cx="373.24265"
     gradientTransform="matrix(0.83535071,2.5391117e-7,-2.4564601e-7,0.80815889,783.12101,707.99698)"
     gradientUnits="userSpaceOnUse"
     id="radialGradient3718"
     xlink:href="#linearGradient5443"
     inkscape:collect="always" /><radialGradient
     r="333.18735"
     fy="467.91885"
     fx="373.24265"
     cy="467.91885"
     cx="373.24265"
     gradientTransform="matrix(0.9201975,2.7970099e-7,-2.7059634e-7,0.8902438,-163.70313,61.921561)"
     gradientUnits="userSpaceOnUse"
     id="radialGradient3703"
     xlink:href="#linearGradient5443"
     inkscape:collect="always" /><linearGradient
     y2="254.73526"
     x2="123.47623"
     y1="344.03848"
     x1="123.50603"
     gradientTransform="matrix(2.3189708,0,0,2.0930998,-99.17808,-231.54972)"
     gradientUnits="userSpaceOnUse"
     id="linearGradient3701"
     xlink:href="#linearGradient3187"
     inkscape:collect="always" /><radialGradient
     r="333.18735"
     fy="710.99164"
     fx="373.24265"
     cy="710.99164"
     cx="373.24265"
     gradientTransform="matrix(0.9503534,1.1750652e-7,-5.6287062e-8,0.3462676,-174.95857,375.55031)"
     gradientUnits="userSpaceOnUse"
     id="radialGradient3699"
     xlink:href="#linearGradient5443"
     inkscape:collect="always" /><radialGradient
     r="333.18735"
     fy="467.91885"
     fx="373.24265"
     cy="467.91885"
     cx="373.24265"
     gradientTransform="matrix(0.9201975,2.7970099e-7,-2.7059634e-7,0.8902438,-163.70313,61.921561)"
     gradientUnits="userSpaceOnUse"
     id="radialGradient3680"
     xlink:href="#linearGradient5443"
     inkscape:collect="always" /><linearGradient
     y2="254.73526"
     x2="123.47623"
     y1="344.03848"
     x1="123.50603"
     gradientTransform="matrix(2.3189708,0,0,2.0930998,-99.17808,-231.54972)"
     gradientUnits="userSpaceOnUse"
     id="linearGradient3678"
     xlink:href="#linearGradient3187"
     inkscape:collect="always" /><radialGradient
     r="333.18735"
     fy="710.99164"
     fx="373.24265"
     cy="710.99164"
     cx="373.24265"
     gradientTransform="matrix(0.9503534,1.1750652e-7,-5.6287062e-8,0.3462676,-174.95857,375.55031)"
     gradientUnits="userSpaceOnUse"
     id="radialGradient3676"
     xlink:href="#linearGradient5443"
     inkscape:collect="always" /><radialGradient
     r="333.18735"
     fy="467.91885"
     fx="373.24265"
     cy="467.91885"
     cx="373.24265"
     gradientTransform="matrix(0.9201975,2.7970099e-7,-2.7059634e-7,0.8902438,-163.70313,61.921561)"
     gradientUnits="userSpaceOnUse"
     id="radialGradient3654"
     xlink:href="#linearGradient5443"
     inkscape:collect="always" /><linearGradient
     y2="254.73526"
     x2="123.47623"
     y1="344.03848"
     x1="123.50603"
     gradientTransform="matrix(2.3189708,0,0,2.0930998,-99.17808,-231.54972)"
     gradientUnits="userSpaceOnUse"
     id="linearGradient3652"
     xlink:href="#linearGradient3187"
     inkscape:collect="always" /><radialGradient
     r="333.18735"
     fy="710.99164"
     fx="373.24265"
     cy="710.99164"
     cx="373.24265"
     gradientTransform="matrix(0.9503534,1.1750652e-7,-5.6287062e-8,0.3462676,-174.95857,375.55031)"
     gradientUnits="userSpaceOnUse"
     id="radialGradient3650"
     xlink:href="#linearGradient5443"
     inkscape:collect="always" /><radialGradient
     r="333.18735"
     fy="467.91885"
     fx="373.24265"
     cy="467.91885"
     cx="373.24265"
     gradientTransform="matrix(0.9201975,2.7970099e-7,-2.7059634e-7,0.8902438,-163.70313,61.921561)"
     gradientUnits="userSpaceOnUse"
     id="radialGradient3627"
     xlink:href="#linearGradient5443"
     inkscape:collect="always" /><linearGradient
     y2="254.73526"
     x2="123.47623"
     y1="344.03848"
     x1="123.50603"
     gradientTransform="matrix(2.3189708,0,0,2.0930998,-99.17808,-231.54972)"
     gradientUnits="userSpaceOnUse"
     id="linearGradient3625"
     xlink:href="#linearGradient3187"
     inkscape:collect="always" /><radialGradient
     r="333.18735"
     fy="710.99164"
     fx="373.24265"
     cy="710.99164"
     cx="373.24265"
     gradientTransform="matrix(0.9503534,1.1750652e-7,-5.6287062e-8,0.3462676,-174.95857,375.55031)"
     gradientUnits="userSpaceOnUse"
     id="radialGradient3623"
     xlink:href="#linearGradient5443"
     inkscape:collect="always" /><radialGradient
     r="333.18735"
     fy="467.91885"
     fx="373.24265"
     cy="467.91885"
     cx="373.24265"
     gradientTransform="matrix(0.9201975,2.7970099e-7,-2.7059634e-7,0.8902438,-163.70313,61.921561)"
     gradientUnits="userSpaceOnUse"
     id="radialGradient3599"
     xlink:href="#linearGradient5443"
     inkscape:collect="always" /><linearGradient
     y2="254.73526"
     x2="123.47623"
     y1="344.03848"
     x1="123.50603"
     gradientTransform="matrix(2.3189708,0,0,2.0930998,-99.17808,-231.54972)"
     gradientUnits="userSpaceOnUse"
     id="linearGradient3597"
     xlink:href="#linearGradient3187"
     inkscape:collect="always" /><radialGradient
     r="333.18735"
     fy="710.99164"
     fx="373.24265"
     cy="710.99164"
     cx="373.24265"
     gradientTransform="matrix(0.9503534,1.1750652e-7,-5.6287062e-8,0.3462676,-174.95857,375.55031)"
     gradientUnits="userSpaceOnUse"
     id="radialGradient3595"
     xlink:href="#linearGradient5443"
     inkscape:collect="always" /><radialGradient
     r="333.18735"
     fy="467.91885"
     fx="373.24265"
     cy="467.91885"
     cx="373.24265"
     gradientTransform="matrix(0.9201975,2.7970099e-7,-2.7059634e-7,0.8902438,-163.70313,61.921561)"
     gradientUnits="userSpaceOnUse"
     id="radialGradient3525"
     xlink:href="#linearGradient5443"
     inkscape:collect="always" /><linearGradient
     y2="254.73526"
     x2="123.47623"
     y1="344.03848"
     x1="123.50603"
     gradientTransform="matrix(2.3189708,0,0,2.0930998,-99.17808,-231.54972)"
     gradientUnits="userSpaceOnUse"
     id="linearGradient3523"
     xlink:href="#linearGradient3187"
     inkscape:collect="always" /><radialGradient
     r="333.18735"
     fy="710.99164"
     fx="373.24265"
     cy="710.99164"
     cx="373.24265"
     gradientTransform="matrix(0.9503534,1.1750652e-7,-5.6287062e-8,0.3462676,-174.95857,375.55031)"
     gradientUnits="userSpaceOnUse"
     id="radialGradient3521"
     xlink:href="#linearGradient5443"
     inkscape:collect="always" /><radialGradient
     r="333.18735"
     fy="467.91885"
     fx="373.24265"
     cy="467.91885"
     cx="373.24265"
     gradientTransform="matrix(0.9201975,2.7970099e-7,-2.7059634e-7,0.8902438,-163.70313,61.921561)"
     gradientUnits="userSpaceOnUse"
     id="radialGradient3497"
     xlink:href="#linearGradient5443"
     inkscape:collect="always" /><linearGradient
     y2="254.73526"
     x2="123.47623"
     y1="344.03848"
     x1="123.50603"
     gradientTransform="matrix(2.3189708,0,0,2.0930998,-99.17808,-231.54972)"
     gradientUnits="userSpaceOnUse"
     id="linearGradient3495"
     xlink:href="#linearGradient3187"
     inkscape:collect="always" /><radialGradient
     r="333.18735"
     fy="710.99164"
     fx="373.24265"
     cy="710.99164"
     cx="373.24265"
     gradientTransform="matrix(0.9503534,1.1750652e-7,-5.6287062e-8,0.3462676,-174.95857,375.55031)"
     gradientUnits="userSpaceOnUse"
     id="radialGradient3493"
     xlink:href="#linearGradient5443"
     inkscape:collect="always" /><linearGradient
     id="linearGradient5443"><stop
       id="stop5445"
       offset="0"
       style="stop-color:#ffffff;stop-opacity:0;" /><stop
       id="stop5447"
       offset="1"
       style="stop-color:#000000;stop-opacity:0.33962265;" /></linearGradient><linearGradient
     id="linearGradient3157"><stop
       style="stop-color:#49bcff;stop-opacity:1;"
       offset="0"
       id="stop3159" /><stop
       style="stop-color:#494c96;stop-opacity:1;"
       offset="1"
       id="stop3161" /></linearGradient><linearGradient
     id="linearGradient3171"><stop
       id="stop3173"
       offset="0"
       style="stop-color:#49bcff;stop-opacity:1;" /><stop
       id="stop3175"
       offset="1"
       style="stop-color:#494cdc;stop-opacity:1;" /></linearGradient><linearGradient
     id="linearGradient3187"><stop
       style="stop-color:#ffffff;stop-opacity:0.39622641;"
       offset="0"
       id="stop3189" /><stop
       style="stop-color:#000000;stop-opacity:1;"
       offset="1"
       id="stop3191" /></linearGradient><linearGradient
     id="linearGradient4395"><stop
       style="stop-color:#110084;stop-opacity:1;"
       offset="0"
       id="stop4397" /><stop
       style="stop-color:#a695ff;stop-opacity:1;"
       offset="1"
       id="stop4399" /></linearGradient><linearGradient
     id="linearGradient4383"><stop
       style="stop-color:#00037f;stop-opacity:1;"
       offset="0"
       id="stop4385" /><stop
       style="stop-color:#00037f;stop-opacity:0;"
       offset="1"
       id="stop4387" /></linearGradient><inkscape:perspective
     sodipodi:type="inkscape:persp3d"
     inkscape:vp_x="0 : 526.18109 : 1"
     inkscape:vp_y="0 : 1000 : 0"
     inkscape:vp_z="744.09448 : 526.18109 : 1"
     inkscape:persp3d-origin="372.04724 : 350.78739 : 1"
     id="perspective3214" /><linearGradient
     inkscape:collect="always"
     xlink:href="#linearGradient4383"
     id="linearGradient4389"
     x1="371.42194"
     y1="298.59412"
     x2="396.91168"
     y2="655.4505"
     gradientUnits="userSpaceOnUse" /><linearGradient
     inkscape:collect="always"
     xlink:href="#linearGradient4395"
     id="linearGradient4401"
     x1="360.49777"
     y1="167.50403"
     x2="360.49777"
     y2="540.86719"
     gradientUnits="userSpaceOnUse" /><linearGradient
     inkscape:collect="always"
     xlink:href="#linearGradient3187"
     id="linearGradient4562"
     gradientUnits="userSpaceOnUse"
     gradientTransform="matrix(2.3189708,0,0,2.0930998,93.115298,-256.84999)"
     x1="123.50603"
     y1="344.03848"
     x2="123.47623"
     y2="254.73526" /><radialGradient
     inkscape:collect="always"
     xlink:href="#linearGradient3171"
     id="radialGradient4569"
     gradientUnits="userSpaceOnUse"
     gradientTransform="matrix(0.9201975,2.7970099e-7,-2.7059634e-7,0.8902438,28.590287,48.634335)"
     cx="373.24265"
     cy="467.91885"
     fx="373.24265"
     fy="467.91885"
     r="333.18735" /><radialGradient
     inkscape:collect="always"
     xlink:href="#linearGradient3157"
     id="radialGradient4572"
     gradientUnits="userSpaceOnUse"
     gradientTransform="matrix(0.9503534,1.1750652e-7,-5.6287062e-8,0.3462676,17.334826,362.44227)"
     cx="373.24265"
     cy="710.99164"
     fx="373.24265"
     fy="710.99164"
     r="333.18735" /><filter
     inkscape:collect="always"
     id="filter4659"
     color-interpolation-filters="sRGB"><feGaussianBlur
       inkscape:collect="always"
       stdDeviation="2.7750933"
       id="feGaussianBlur4661" /></filter><radialGradient
     inkscape:collect="always"
     xlink:href="#linearGradient3157"
     id="radialGradient4766"
     gradientUnits="userSpaceOnUse"
     gradientTransform="matrix(0.9503534,1.1750652e-7,-5.6287062e-8,0.3462676,17.334826,362.44227)"
     cx="373.24265"
     cy="710.99164"
     fx="373.24265"
     fy="710.99164"
     r="333.18735" /><radialGradient
     inkscape:collect="always"
     xlink:href="#linearGradient3171"
     id="radialGradient4768"
     gradientUnits="userSpaceOnUse"
     gradientTransform="matrix(0.9201975,2.7970099e-7,-2.7059634e-7,0.8902438,28.590287,48.634335)"
     cx="373.24265"
     cy="467.91885"
     fx="373.24265"
     fy="467.91885"
     r="333.18735" /><linearGradient
     inkscape:collect="always"
     xlink:href="#linearGradient3187"
     id="linearGradient4770"
     gradientUnits="userSpaceOnUse"
     gradientTransform="matrix(2.3189708,0,0,2.0930998,93.115298,-256.84999)"
     x1="123.50603"
     y1="344.03848"
     x2="123.47623"
     y2="254.73526" /><linearGradient
     inkscape:collect="always"
     xlink:href="#linearGradient3187"
     id="linearGradient4773"
     gradientUnits="userSpaceOnUse"
     gradientTransform="matrix(2.3189708,0,0,2.0930998,93.115298,-256.84999)"
     x1="123.50603"
     y1="344.03848"
     x2="123.47623"
     y2="254.73526" /><radialGradient
     inkscape:collect="always"
     xlink:href="#linearGradient3171"
     id="radialGradient4776"
     gradientUnits="userSpaceOnUse"
     gradientTransform="matrix(0.9201975,2.7970099e-7,-2.7059634e-7,0.8902438,28.590287,48.634335)"
     cx="373.24265"
     cy="467.91885"
     fx="373.24265"
     fy="467.91885"
     r="333.18735" /><radialGradient
     inkscape:collect="always"
     xlink:href="#linearGradient3157"
     id="radialGradient4779"
     gradientUnits="userSpaceOnUse"
     gradientTransform="matrix(0.9503534,1.1750652e-7,-5.6287062e-8,0.3462676,17.334826,362.44227)"
     cx="373.24265"
     cy="710.99164"
     fx="373.24265"
     fy="710.99164"
     r="333.18735" /><radialGradient
     inkscape:collect="always"
     xlink:href="#linearGradient3157"
     id="radialGradient4790"
     gradientUnits="userSpaceOnUse"
     gradientTransform="matrix(0.9503534,1.1750652e-7,-5.6287062e-8,0.3462676,17.334826,362.44227)"
     cx="373.24265"
     cy="710.99164"
     fx="373.24265"
     fy="710.99164"
     r="333.18735" /><radialGradient
     inkscape:collect="always"
     xlink:href="#linearGradient3171"
     id="radialGradient4792"
     gradientUnits="userSpaceOnUse"
     gradientTransform="matrix(0.9201975,2.7970099e-7,-2.7059634e-7,0.8902438,28.590287,48.634335)"
     cx="373.24265"
     cy="467.91885"
     fx="373.24265"
     fy="467.91885"
     r="333.18735" /><linearGradient
     inkscape:collect="always"
     xlink:href="#linearGradient3187"
     id="linearGradient4794"
     gradientUnits="userSpaceOnUse"
     gradientTransform="matrix(2.3189708,0,0,2.0930998,93.115298,-256.84999)"
     x1="123.50603"
     y1="344.03848"
     x2="123.47623"
     y2="254.73526" /><linearGradient
     inkscape:collect="always"
     xlink:href="#linearGradient3187"
     id="linearGradient4799"
     gradientUnits="userSpaceOnUse"
     gradientTransform="matrix(2.3189708,0,0,2.0930998,93.115298,-256.84999)"
     x1="123.50603"
     y1="344.03848"
     x2="123.47623"
     y2="254.73526" /><radialGradient
     inkscape:collect="always"
     xlink:href="#linearGradient3171"
     id="radialGradient4802"
     gradientUnits="userSpaceOnUse"
     gradientTransform="matrix(0.9201975,2.7970099e-7,-2.7059634e-7,0.8902438,28.590287,48.634335)"
     cx="373.24265"
     cy="467.91885"
     fx="373.24265"
     fy="467.91885"
     r="333.18735" /><radialGradient
     inkscape:collect="always"
     xlink:href="#linearGradient3157"
     id="radialGradient4805"
     gradientUnits="userSpaceOnUse"
     gradientTransform="matrix(0.9503534,1.1750652e-7,-5.6287062e-8,0.3462676,17.334826,362.44227)"
     cx="373.24265"
     cy="710.99164"
     fx="373.24265"
     fy="710.99164"
     r="333.18735" /><radialGradient
     inkscape:collect="always"
     xlink:href="#linearGradient3157"
     id="radialGradient4820"
     gradientUnits="userSpaceOnUse"
     gradientTransform="matrix(0.9503534,1.1750652e-7,-5.6287062e-8,0.3462676,17.334826,362.44227)"
     cx="373.24265"
     cy="710.99164"
     fx="373.24265"
     fy="710.99164"
     r="333.18735" /><radialGradient
     inkscape:collect="always"
     xlink:href="#linearGradient3171"
     id="radialGradient4822"
     gradientUnits="userSpaceOnUse"
     gradientTransform="matrix(0.9201975,2.7970099e-7,-2.7059634e-7,0.8902438,28.590287,48.634335)"
     cx="373.24265"
     cy="467.91885"
     fx="373.24265"
     fy="467.91885"
     r="333.18735" /><linearGradient
     inkscape:collect="always"
     xlink:href="#linearGradient3187"
     id="linearGradient4824"
     gradientUnits="userSpaceOnUse"
     gradientTransform="matrix(2.3189708,0,0,2.0930998,93.115298,-256.84999)"
     x1="123.50603"
     y1="344.03848"
     x2="123.47623"
     y2="254.73526" /><linearGradient
     inkscape:collect="always"
     xlink:href="#linearGradient3187"
     id="linearGradient4827"
     gradientUnits="userSpaceOnUse"
     gradientTransform="matrix(2.3189708,0,0,2.0930998,-99.17808,-231.54972)"
     x1="123.50603"
     y1="344.03848"
     x2="123.47623"
     y2="254.73526" /><radialGradient
     inkscape:collect="always"
     xlink:href="#linearGradient5443"
     id="radialGradient4832"
     gradientUnits="userSpaceOnUse"
     gradientTransform="matrix(0.9201975,2.7970099e-7,-2.7059634e-7,0.8902438,-163.70313,61.921561)"
     cx="373.24265"
     cy="467.91885"
     fx="373.24265"
     fy="467.91885"
     r="333.18735" /><radialGradient
     inkscape:collect="always"
     xlink:href="#linearGradient5443"
     id="radialGradient4835"
     gradientUnits="userSpaceOnUse"
     gradientTransform="matrix(0.9503534,1.1750652e-7,-5.6287062e-8,0.3462676,-174.95857,375.55031)"
     cx="373.24265"
     cy="710.99164"
     fx="373.24265"
     fy="710.99164"
     r="333.18735" /><filter
     inkscape:collect="always"
     id="filter5511"
     color-interpolation-filters="sRGB"><feGaussianBlur
       inkscape:collect="always"
       stdDeviation="3.2374974"
       id="feGaussianBlur5513" /></filter><radialGradient
     inkscape:collect="always"
     xlink:href="#linearGradient5443-5"
     id="radialGradient4835-3"
     gradientUnits="userSpaceOnUse"
     gradientTransform="matrix(0.9503534,1.1750652e-7,-5.6287062e-8,0.3462676,317.80591,185.68771)"
     cx="373.24265"
     cy="710.99164"
     fx="373.24265"
     fy="710.99164"
     r="333.18735" /><linearGradient
     id="linearGradient5443-5"><stop
       id="stop5445-4"
       offset="0"
       style="stop-color:#ffffff;stop-opacity:0;" /><stop
       id="stop5447-3"
       offset="1"
       style="stop-color:#000000;stop-opacity:0.33962265;" /></linearGradient><radialGradient
     inkscape:collect="always"
     xlink:href="#linearGradient5443"
     id="radialGradient3272"
     gradientUnits="userSpaceOnUse"
     gradientTransform="matrix(0.9503534,1.1750652e-7,-5.6287062e-8,0.3462676,-174.95857,375.55031)"
     cx="373.24265"
     cy="710.99164"
     fx="373.24265"
     fy="710.99164"
     r="333.18735" /><linearGradient
     inkscape:collect="always"
     xlink:href="#linearGradient3187"
     id="linearGradient3274"
     gradientUnits="userSpaceOnUse"
     gradientTransform="matrix(2.3189708,0,0,2.0930998,-99.17808,-231.54972)"
     x1="123.50603"
     y1="344.03848"
     x2="123.47623"
     y2="254.73526" /><radialGradient
     inkscape:collect="always"
     xlink:href="#linearGradient5443"
     id="radialGradient3276"
     gradientUnits="userSpaceOnUse"
     gradientTransform="matrix(0.9201975,2.7970099e-7,-2.7059634e-7,0.8902438,-163.70313,61.921561)"
     cx="373.24265"
     cy="467.91885"
     fx="373.24265"
     fy="467.91885"
     r="333.18735" /><radialGradient
     inkscape:collect="always"
     xlink:href="#linearGradient5443"
     id="radialGradient3409"
     gradientUnits="userSpaceOnUse"
     gradientTransform="matrix(0.86272608,1.0667183e-7,-5.1097115e-8,0.31434,772.90338,992.7076)"
     cx="373.24265"
     cy="710.99164"
     fx="373.24265"
     fy="710.99164"
     r="333.18735" /><linearGradient
     inkscape:collect="always"
     xlink:href="#linearGradient3187"
     id="linearGradient3411"
     gradientUnits="userSpaceOnUse"
     gradientTransform="matrix(2.3189708,0,0,2.0930998,-99.17808,-231.54972)"
     x1="123.50603"
     y1="344.03848"
     x2="123.47623"
     y2="254.73526" /><radialGradient
     inkscape:collect="always"
     xlink:href="#linearGradient5443"
     id="radialGradient3413"
     gradientUnits="userSpaceOnUse"
     gradientTransform="matrix(0.83535071,2.5391117e-7,-2.4564601e-7,0.80815889,783.12101,707.99698)"
     cx="373.24265"
     cy="467.91885"
     fx="373.24265"
     fy="467.91885"
     r="333.18735" /></defs><sodipodi:namedview
   pagecolor="#ffffff"
   bordercolor="#666666"
   borderopacity="1"
   objecttolerance="10"
   gridtolerance="10"
   guidetolerance="10"
   inkscape:pageopacity="0"
   inkscape:pageshadow="2"
   inkscape:window-width="1920"
   inkscape:window-height="1071"
   id="namedview54"
   showgrid="false"
   inkscape:zoom="0.84281414"
   inkscape:cx="616.54354"
   inkscape:cy="-12.124022"
   inkscape:window-x="0"
   inkscape:window-y="0"
   inkscape:window-maximized="1"
   inkscape:current-layer="_x31_"
   fit-margin-top="0"
   fit-margin-left="0"
   fit-margin-right="0"
   fit-margin-bottom="0" />

<g
   id="LWPOLYLINE_1_"
   style="fill:#000000;fill-opacity:1;stroke:none"
   transform="translate(432.47075,-112.73699)">
	
		
</g>



<g
   id="LWPOLYLINE_5_"
   style="fill:#000000;fill-opacity:1;stroke:none"
   transform="translate(432.47075,-112.73699)">
	
		
</g>








<g
   id="LWPOLYLINE_14_"
   style="fill:#000000;fill-opacity:1;stroke:none"
   transform="translate(432.47075,-112.73699)">
	
		
</g>
<g
   id="LWPOLYLINE_15_"
   style="fill:#000000;fill-opacity:1;stroke:none"
   transform="translate(432.47075,-112.73699)">
	
		
</g>

<g
   id="g3725"
   transform="translate(-919.90955,-911.15)"><rect
     inkscape:export-ydpi="29.879425"
     inkscape:export-xdpi="29.879425"
     inkscape:export-filename="C:\Documents and Settings\adscro24\Desktop\128.png"
     style="opacity:0.61338286;fill:#464646;fill-opacity:0.78540775;stroke:none;filter:url(#filter4659)"
     id="rect3279"
     width="152.93848"
     height="152.93848"
     x="135.39355"
     y="48.636749"
     rx="16.067965"
     ry="12.45238"
     transform="matrix(2.1051501,0,0,2.1051501,648.90657,822.78311)" /><rect
     inkscape:export-ydpi="29.879425"
     inkscape:export-xdpi="29.879425"
     inkscape:export-filename="C:\Documents and Settings\adscro24\Desktop\128.png"
     style="opacity:0.61338286;fill:url(#radialGradient3409);fill-opacity:1;stroke:#000000;stroke-width:3.26806188;stroke-miterlimit:4;stroke-opacity:1;stroke-dasharray:none"
     id="rect3155"
     width="321.95847"
     height="321.95847"
     x="933.9303"
     y="925.17072"
     rx="33.825481"
     ry="26.21413" /><path
     transform="matrix(0.90779502,0,0,0.90779502,931.7299,651.7849)"
     inkscape:export-ydpi="29.879425"
     inkscape:export-xdpi="29.879425"
     inkscape:export-filename="C:\Documents and Settings\adscro24\Desktop\128.png"
     inkscape:connector-curvature="0"
     style="opacity:0.61338286;fill:url(#linearGradient3411);fill-opacity:1;stroke:none;filter:url(#filter5511)"
     d="m 46.58172,323.34879 c -19.62748,0 -35.44272,12.0976 -35.44272,27.14163 l 0,124.30857 c 29.25482,11.38638 132.70149,11.89599 165.40488,-5.79022 33.32802,-18.02397 127.54379,-68.44264 171.82484,-52.72052 l 0,-65.79783 c 0,-15.04403 -15.7986,-27.14163 -35.4261,-27.14163 l -266.3609,0 z M 11.139,586.81982 l 0,42.88373 c 0,1.33144 0.14331,2.63588 0.38253,3.915 -0.11919,-12.81092 -0.25965,-28.88939 -0.38253,-46.79873 z"
     id="rect3177" /><rect
     inkscape:export-ydpi="29.879425"
     inkscape:export-xdpi="29.879425"
     inkscape:export-filename="C:\Documents and Settings\adscro24\Desktop\128.png"
     style="opacity:0.61338286;fill:url(#radialGradient3413);fill-opacity:1;stroke:#ffffff;stroke-width:0.68992418;stroke-linecap:square;stroke-miterlimit:4;stroke-opacity:1;stroke-dasharray:none"
     id="rect3473"
     width="306.12445"
     height="306.12445"
     x="941.84735"
     y="933.08777"
     rx="32.161926"
     ry="24.924913" /><rect
     inkscape:export-ydpi="29.879425"
     inkscape:export-xdpi="29.879425"
     inkscape:export-filename="C:\Documents and Settings\adscro24\Desktop\128.png"
     style="opacity:0.61338286;fill:#ffffff;fill-opacity:0;stroke:#000000;stroke-width:3.26806188;stroke-miterlimit:4;stroke-opacity:1;stroke-dasharray:none"
     id="rect3155-2"
     width="321.95847"
     height="321.95847"
     x="933.9303"
     y="925.17072"
     rx="33.825481"
     ry="26.21413" /></g><g
   id="LWPOLYLINE_2_-7"
   style="fill:#000000;fill-opacity:1;stroke:none"
   transform="translate(400.39143,135.8211)">
	
		
</g><g
   id="g3011"
   transform="matrix(0.500001,0,0,0.500001,21.749126,-22.750149)"><g
     style="fill:#000000;fill-opacity:1;stroke:none"
     id="LWPOLYLINE_2_">
	
		<path
   id="path10"
   d="m 158.84375,410.4375 c -0.202,0.182 -0.1875,0.71875 -0.1875,0.71875 l 0,0.84375 0,1.15625 0,1.4375 0,1.71875 0,1.9375 0,2.25 0,2.375 0,2.65625 0,2.78125 0,2.96875 0,3.09375 0,3.21875 0,3.34375 0,3.4375 0,3.5 0,3.5625 0,3.5625 0,3.625 0,3.625 0,3.59375 0,3.5625 0,3.46875 0,3.46875 0,3.3125 0,3.25 0,3.09375 0,2.9375 0,2.8125 0,2.625 0,2.40625 0,2.21875 0,1.9375 0,1.71875 0,1.46875 0,1.125 0,0.84375 0,0.53125 c -0.001,0.168 11.625,0.1875 11.625,0.1875 l 0,-0.3125 0,-0.34375 0,-0.53125 0,-0.65625 0,-0.71875 0,-0.84375 0,-1 0,-1.09375 0,-1.125 0,-1.21875 0,-1.28125 0,-1.40625 0,-1.40625 0,-1.46875 0,-1.5 0,-1.53125 0,-1.59375 0,-1.5625 0,-1.59375 0,-1.59375 0,-1.5625 0,-1.59375 0,-1.5 0,-1.53125 0,-1.46875 0,-1.40625 0,-1.375 0,-1.3125 0,-1.21875 0,-1.125 0,-1.09375 0,-0.9375 0,-0.90625 0,-0.71875 0,-0.65625 0,-0.46875 0,-0.40625 0,-0.21875 c 0.101,-0.082 0.25,-0.0625 0.25,-0.0625 l 0.40625,0 0.28125,0 0.34375,0 0.375,0 0.375,0 0.40625,0 0.46875,0 0.5,0 0.5,0 0.53125,0 0.5625,0 0.53125,0 0.59375,0 0.59375,0 0.5625,0 0.59375,0 0.59375,0 0.59375,0 0.59375,0 0.5625,0 0.5625,0 0.5625,0 0.53125,0 0.5,0 0.46875,0 0.46875,0 0.40625,0 0.40625,0 0.375,0 0.3125,0 0.28125,0 0.21875,0 0.34375,0 0.875,0 0.78125,-0.0625 0.78125,-0.0312 0.84375,-0.0937 0.84375,-0.0625 0.84375,-0.125 0.875,-0.15625 0.875,-0.15625 0.875,-0.21875 0.875,-0.25 0.90625,-0.25 0.875,-0.28125 0.875,-0.3125 0.90625,-0.375 0.875,-0.34375 0.875,-0.46875 0.84375,-0.4375 0.875,-0.46875 0.8125,-0.53125 0.8125,-0.5625 0.8125,-0.625 0.78125,-0.65625 0.78125,-0.71875 0.71875,-0.71875 0.6875,-0.78125 0.6875,-0.84375 0.625,-0.875 0.625,-0.90625 0.5625,-1 0.53125,-1 0.5,-1.09375 0.4375,-1.125 0.40625,-1.1875 0.375,-1.25 0.3125,-1.28125 0.25,-1.375 0.1875,-1.375 0.1875,-1.5 0.0625,-1.5 0.0625,-1.625 -0.0625,-1.625 -0.0625,-1.5625 -0.125,-1.5625 -0.1875,-1.4375 -0.21875,-1.375 -0.28125,-1.34375 -0.28125,-1.3125 -0.375,-1.21875 -0.375,-1.15625 -0.46875,-1.09375 -0.46875,-1.09375 -0.53125,-1 -0.5,-0.96875 -0.59375,-0.875 -0.625,-0.875 -0.625,-0.8125 -0.6875,-0.75 -0.71875,-0.75 -0.6875,-0.625 -0.75,-0.65625 -0.8125,-0.5625 -0.78125,-0.5625 -0.8125,-0.5 -0.8125,-0.46875 -0.875,-0.4375 -0.875,-0.40625 -0.875,-0.34375 -0.90625,-0.34375 -0.90625,-0.28125 -0.90625,-0.25 -0.9375,-0.21875 -0.9375,-0.21875 -0.9375,-0.1875 -0.9375,-0.125 -0.9375,-0.125 -0.96875,-0.0937 -0.9375,-0.0625 -0.9375,-0.0625 -0.9375,-0.0312 -0.9375,-0.0312 -0.46875,0 -0.3125,0 -0.40625,0 -0.46875,0 -0.59375,0 -0.625,0 -0.6875,0 -0.71875,0 -0.8125,0 -0.84375,0 -0.875,0 -0.90625,0 -0.96875,0 -0.96875,0 -1,0 -1,0 -1.03125,0 -1.03125,0 -1.03125,0 -1,0 -1.03125,0 -1,0 -0.96875,0 -0.9375,0 -0.9375,0 -0.875,0 -0.84375,0 -0.8125,0 -0.71875,0 -0.6875,0 -0.625,0 -0.5625,0 -0.5,0 -0.40625,0 -0.3125,0 -0.25,0 z m 11.4375,10.8125 0.25,0 0.46875,0 0.28125,0 0.34375,0 0.375,0 0.40625,0 0.46875,0 0.46875,0 0.53125,0 0.53125,0 0.53125,0 0.59375,0 0.59375,0 0.59375,0 0.625,0 0.59375,0 0.625,0 0.625,0 0.625,0 0.625,0 0.59375,0 0.59375,0 0.5625,0 0.5625,0 0.5625,0 0.5,0 0.46875,0 0.46875,0 0.40625,0 0.375,0 0.34375,0 0.3125,0 0.21875,0 0.375,0 0.3125,0 0.21875,0 0.25,0.0625 0.3125,0 0.28125,0.0312 0.34375,0.0937 0.34375,0.0312 0.375,0.0937 0.375,0.0625 0.40625,0.125 0.40625,0.125 0.46875,0.125 0.40625,0.15625 0.4375,0.15625 0.46875,0.21875 0.46875,0.21875 0.4375,0.25 0.46875,0.25 0.4375,0.28125 0.46875,0.3125 0.4375,0.34375 0.46875,0.375 0.40625,0.375 0.4375,0.46875 0.40625,0.4375 0.40625,0.5 0.375,0.5 0.375,0.53125 0.34375,0.625 0.3125,0.59375 0.3125,0.6875 0.28125,0.6875 0.25,0.75 0.21875,0.75 0.1875,0.8125 0.1875,0.875 0.125,0.90625 0.0937,0.9375 0.0625,0.96875 0,1.0625 0,1.09375 -0.0625,1.0625 -0.0937,1 -0.15625,0.9375 -0.1875,0.90625 -0.21875,0.875 -0.25,0.8125 -0.25,0.78125 -0.34375,0.71875 -0.3125,0.75 -0.375,0.625 -0.375,0.625 -0.4375,0.5625 -0.40625,0.5625 -0.46875,0.53125 -0.4375,0.4375 -0.5,0.46875 -0.5,0.4375 -0.5,0.375 -0.53125,0.34375 -0.5625,0.34375 -0.53125,0.3125 -0.53125,0.25 -0.5625,0.28125 -0.5625,0.1875 -0.53125,0.21875 -0.59375,0.1875 -0.53125,0.15625 -0.5625,0.125 -0.53125,0.125 -0.53125,0.125 -0.5,0.0937 -0.53125,0.0625 -0.5,0.0937 -0.46875,0.0312 -0.46875,0.0312 -0.46875,0.0625 -0.4375,0 -0.40625,0.0312 -0.375,0 -0.21875,0 -0.34375,0 -0.25,0 -0.25,0 -0.3125,0 -0.34375,0 -0.34375,0 -0.40625,0 -0.40625,0 -0.4375,0 -0.4375,0 -0.4375,0 -0.5,0 -0.5,0 -0.46875,0 -0.5,0 -0.5,0 -0.46875,0 -0.53125,0 -0.46875,0 -0.5,0 -0.46875,0 -0.46875,0 -0.4375,0 -0.4375,0 -0.40625,0 -0.375,0 -0.375,0 -0.3125,0 -0.3125,0 -0.28125,0 -0.21875,0 -0.375,0 -0.1875,0 0,-32.40625 z"
   style="fill:#000000;fill-opacity:1;stroke:none"
   inkscape:connector-curvature="0" />
</g><g
     style="fill:#000000;fill-opacity:1;stroke:none"
     id="LWPOLYLINE_6_">
	
		<path
   id="path22"
   d="m 346.5625,410.46875 c -0.199,-0.008 -0.21875,96.34375 -0.21875,96.34375 l 0.34375,0 0.25,0 0.3125,0 0.375,0 0.4375,0 0.4375,0 0.53125,0 0.5625,0 0.625,0 0.625,0 0.65625,0 0.6875,0 0.75,0 0.71875,0 0.78125,0 0.75,0 0.78125,0 0.78125,0 0.75,0 0.78125,0 0.78125,0 0.75,0 0.75,0 0.71875,0 0.6875,0 0.65625,0 0.625,0 0.625,0 0.5625,0 0.53125,0 0.5,0 0.375,0 0.375,0 0.34375,0 0.21875,0 0.28125,0 1.28125,0 1.21875,0 1.15625,-0.0625 1.1875,-0.0625 1.125,-0.0625 1.09375,-0.125 1.09375,-0.0625 1.0625,-0.125 1.0625,-0.125 1,-0.15625 1.03125,-0.15625 0.96875,-0.1875 0.9375,-0.1875 0.9375,-0.1875 0.875,-0.25 0.90625,-0.25 0.84375,-0.25 0.8125,-0.28125 0.8125,-0.28125 0.8125,-0.28125 0.78125,-0.3125 0.71875,-0.375 0.71875,-0.3125 0.6875,-0.375 0.6875,-0.40625 0.65625,-0.375 0.65625,-0.4375 0.59375,-0.40625 0.625,-0.4375 0.5625,-0.46875 0.5625,-0.46875 0.53125,-0.5 0.53125,-0.53125 0.53125,-0.5 0.4375,-0.53125 0.5,-0.53125 0.4375,-0.625 0.40625,-0.5625 0.40625,-0.59375 0.34375,-0.625 L 399,493.875 l 0.28125,-0.53125 0.28125,-0.5625 0.28125,-0.5625 0.28125,-0.59375 0.25,-0.59375 0.28125,-0.65625 0.25,-0.65625 0.1875,-0.625 0.25,-0.6875 0.1875,-0.75 0.21875,-0.71875 0.1875,-0.78125 0.21875,-0.75 0.1875,-0.8125 0.1875,-0.875 0.15625,-0.84375 0.15625,-0.875 0.15625,-0.90625 0.125,-0.96875 0.15625,-0.9375 0.125,-1 0.125,-1.03125 0.125,-1.0625 0.0937,-1.03125 0.0937,-1.09375 0.0937,-1.15625 0.0937,-1.15625 0.0625,-1.1875 0.0937,-1.21875 0.0312,-1.25 0.0937,-1.28125 0.0312,-1.3125 0.0312,-1.34375 0.0625,-1.375 0,-1.375 0.0312,-1.46875 0,-1.46875 0.0312,-1.5 0,-1.53125 0,-0.28125 -0.0312,-0.375 0,-0.375 0,-0.4375 0,-0.46875 -0.0312,-0.53125 0,-0.625 -0.0625,-0.59375 -0.0312,-0.65625 -0.0312,-0.6875 -0.0625,-0.71875 -0.0312,-0.78125 -0.0312,-0.78125 -0.0937,-0.8125 -0.0312,-0.84375 -0.0937,-0.84375 -0.0625,-0.90625 -0.0937,-0.875 -0.0625,-0.90625 -0.0937,-0.9375 -0.0937,-0.875 -0.125,-0.9375 -0.0625,-0.9375 -0.125,-0.9375 -0.125,-0.9375 -0.15625,-0.9375 -0.125,-0.875 -0.15625,-0.9375 -0.125,-0.90625 -0.15625,-0.84375 -0.15625,-0.84375 -0.21875,-0.84375 -0.15625,-0.8125 -0.21875,-0.8125 -0.1875,-0.75 -0.21875,-0.75 -0.1875,-0.6875 -0.25,-0.65625 -0.25,-0.625 -0.21875,-0.59375 -0.375,-0.78125 -0.40625,-0.75 -0.40625,-0.78125 -0.40625,-0.71875 -0.4375,-0.6875 -0.46875,-0.6875 -0.4375,-0.65625 -0.4375,-0.625 -0.5,-0.59375 -0.53125,-0.625 -0.46875,-0.5 -0.53125,-0.59375 -0.53125,-0.46875 -0.5625,-0.53125 -0.5625,-0.46875 -0.5625,-0.4375 -0.5625,-0.4375 -0.625,-0.40625 -0.59375,-0.40625 -0.65625,-0.34375 -0.65625,-0.34375 -0.65625,-0.34375 -0.6875,-0.3125 -0.6875,-0.28125 -0.6875,-0.28125 -0.71875,-0.25 -0.71875,-0.21875 -0.75,-0.21875 -0.75,-0.1875 -0.78125,-0.15625 -0.8125,-0.1875 -0.78125,-0.125 -0.84375,-0.125 -0.8125,-0.0937 -0.84375,-0.125 -0.90625,-0.0625 -0.84375,-0.0625 -0.90625,-0.0312 -0.9375,-0.0312 -0.90625,0 -0.46875,0 -0.3125,0 -0.4375,0 -0.5,0 -0.5625,0 -0.65625,0 -0.71875,0 -0.71875,0 -0.875,0 -0.84375,0 -0.90625,0 -0.96875,0 -0.96875,0 -1,0 -1.03125,0 -1.0625,0 -1.03125,0 -1.0625,0 -1.0625,0 -1.0625,0 -1.03125,0 -1.03125,0 -1,0 -0.96875,0 -0.9375,0 -0.9375,0 -0.84375,0 -0.8125,0 -0.78125,0 -0.71875,0 -0.625,0 -0.59375,0 -0.5,0 -0.40625,0 -0.34375,0 -0.25,0 z M 358,421.25 l 0.25,0 0.40625,0 0.28125,0 0.3125,0 0.375,0 0.40625,0 0.4375,0 0.4375,0 0.5,0 0.46875,0 0.53125,0 0.5625,0 0.59375,0 0.5625,0 0.5625,0 0.59375,0 0.5625,0 0.625,0 0.5625,0 0.625,0 0.5625,0 0.5625,0 0.53125,0 0.53125,0 0.5,0 0.5,0 0.4375,0 0.46875,0 0.34375,0 0.375,0 0.3125,0 0.28125,0 0.25,0 0.34375,0 1.03125,0 0.90625,0.0625 0.84375,0.0625 0.84375,0.0937 0.8125,0.125 0.8125,0.125 0.78125,0.1875 0.78125,0.21875 0.71875,0.21875 0.6875,0.25 0.6875,0.28125 0.65625,0.375 0.59375,0.3125 0.625,0.40625 0.5625,0.46875 0.5625,0.4375 0.53125,0.46875 0.53125,0.53125 0.46875,0.5625 0.46875,0.625 0.4375,0.65625 0.40625,0.6875 0.40625,0.71875 0.375,0.71875 0.34375,0.8125 0.34375,0.875 0.28125,0.84375 0.28125,0.9375 0.21875,0.96875 0.25,0.96875 0.21875,1.0625 0.1875,1.09375 0.15625,1.125 0.1875,1.21875 0.125,1.21875 0.0625,1.25 0.0937,1.34375 0.0312,1.375 0.0312,1.4375 0,1.4375 0,0.34375 0,0.1875 0,0.28125 0,0.375 0,0.375 0,0.4375 0,0.5 0,0.5 0,0.59375 0,0.5625 0,0.59375 0,0.65625 0,0.65625 0,0.6875 0,0.6875 0,0.71875 0,0.6875 0,0.75 0,0.6875 0,0.71875 0,0.6875 0,0.6875 0,0.6875 0,0.6875 0,0.625 0,0.625 0,0.59375 0,0.5625 0,0.46875 0,0.5 0,0.4375 0,0.40625 0,0.3125 0,0.28125 0,0.25 0,0.25 0,1.71875 -0.0312,1.5625 -0.0312,1.53125 -0.0937,1.53125 -0.125,1.40625 -0.125,1.375 -0.125,1.3125 -0.1875,1.25 -0.21875,1.21875 -0.1875,1.15625 -0.28125,1.09375 -0.28125,1.0625 -0.28125,1.03125 -0.34375,0.96875 -0.40625,0.875 -0.34375,0.875 -0.46875,0.84375 -0.4375,0.78125 -0.46875,0.71875 -0.5,0.6875 -0.5625,0.65625 -0.5625,0.59375 -0.625,0.5625 -0.625,0.53125 -0.71875,0.5 -0.6875,0.4375 -0.71875,0.40625 -0.78125,0.40625 -0.8125,0.3125 -0.84375,0.34375 -0.875,0.28125 -0.9375,0.25 -0.9375,0.1875 -1.03125,0.15625 -1,0.15625 -1.0625,0.125 -1.125,0.0937 -1.125,0.0937 -1.1875,0.0312 -1.25,0 -0.34375,0 -0.34375,0 -0.25,0 -0.25,0 -0.3125,0 -0.28125,0 -0.375,0 -0.3125,0 -0.40625,0 -0.375,0 -0.40625,0 -0.40625,0 -0.4375,0 -0.40625,0 -0.46875,0 -0.4375,0 -0.4375,0 -0.40625,0 -0.4375,0 -0.40625,0 -0.46875,0 -0.34375,0 -0.40625,0 -0.375,0 -0.375,0 -0.3125,0 -0.3125,0 -0.28125,0 -0.28125,0 -0.25,0 -0.375,0 -0.25,0 C 357.9865,496.014 358,421.25 358,421.25 z"
   style="fill:#000000;fill-opacity:1;stroke:none"
   inkscape:connector-curvature="0" />
</g><g
     style="fill:#000000;fill-opacity:1;stroke:none"
     id="LWPOLYLINE_13_">
	
		<path
   id="polygon43"
   d="m 222.46875,145.5 0,44.5 -178.4375,0 0,22.28125 178.4375,0 0,89.03125 -178.4375,0 0,22.28125 178.4375,0 0,44.5 89.25,0 0,-44.5 44.625,0 0,-133.59375 -44.625,0 0,-44.5 -89.25,0 z m 22.5625,22.4375 44.03125,0 0,177.71875 -44.03125,0 0,-177.71875 z m 66.4375,44 22.4375,0 0,89.71875 -22.4375,0 0,-89.71875 z"
   style="fill:#000000;fill-opacity:1;stroke:none"
   inkscape:connector-curvature="0" />
</g><g
     style="fill:#000000;fill-opacity:1;stroke:none"
     id="LWPOLYLINE">
	
		<path
   style="fill:#000000;fill-opacity:1;stroke:none"
   id="path4"
   d="m 83.896,477.758 -0.061,0.689 -0.061,0.771 -0.041,0.77 -0.04,0.812 -0.021,0.893 v 0.891 0.934 l 0.04,0.934 0.062,0.973 0.081,0.973 0.101,1.014 0.143,1.016 0.183,1.014 0.223,1.014 0.243,1.014 0.305,1.055 0.324,1.014 0.405,1.014 0.426,0.973 0.487,1.014 0.547,0.975 0.589,0.932 0.669,0.934 0.71,0.893 0.79,0.893 0.853,0.852 0.933,0.77 0.993,0.771 1.055,0.73 1.156,0.689 1.216,0.607 1.318,0.568 1.399,0.527 1.48,0.445 1.581,0.406 1.663,0.324 1.765,0.283 1.865,0.162 1.967,0.123 2.049,0.039 h 1.135 l 1.115,-0.039 1.096,-0.082 1.115,-0.08 1.095,-0.123 1.075,-0.121 1.074,-0.203 1.075,-0.203 1.034,-0.203 1.034,-0.283 1.034,-0.283 0.993,-0.324 0.994,-0.365 0.953,-0.406 0.953,-0.406 0.933,-0.486 0.893,-0.486 0.871,-0.527 0.853,-0.568 0.831,-0.607 0.791,-0.648 0.771,-0.689 0.729,-0.689 0.71,-0.771 0.669,-0.811 0.629,-0.811 0.608,-0.893 0.567,-0.934 0.527,-0.973 0.487,-0.975 0.445,-1.053 0.406,-1.096 0.365,-1.135 0.304,-1.178 0.284,-1.256 0.223,-1.258 0.162,-1.338 0.143,-1.379 0.081,-1.42 0.02,-1.461 -0.081,-2.23 -0.223,-2.148 -0.386,-1.988 -0.486,-1.906 -0.648,-1.783 -0.751,-1.664 -0.872,-1.621 -0.953,-1.502 -1.074,-1.418 -1.136,-1.34 -1.237,-1.256 -1.298,-1.217 -1.358,-1.137 -1.439,-1.094 -1.46,-1.014 -1.501,-0.975 -1.541,-0.973 -1.562,-0.893 -1.581,-0.893 -1.582,-0.893 -1.603,-0.852 -1.581,-0.811 -1.562,-0.852 -1.541,-0.811 -1.501,-0.852 -1.46,-0.852 -1.419,-0.854 -1.379,-0.891 -1.298,-0.893 -1.237,-0.975 -1.136,-0.973 -1.074,-1.014 -0.953,-1.096 -0.872,-1.094 -0.751,-1.217 -0.628,-1.258 -0.527,-1.297 -0.365,-1.42 -0.223,-1.502 -0.081,-1.541 0.02,-0.77 0.041,-0.689 0.061,-0.689 0.102,-0.689 0.122,-0.648 0.142,-0.609 0.162,-0.607 0.183,-0.609 0.223,-0.568 0.224,-0.525 0.264,-0.527 0.283,-0.527 0.284,-0.488 0.324,-0.486 0.325,-0.445 0.345,-0.406 0.364,-0.404 0.386,-0.406 0.405,-0.365 0.405,-0.365 0.427,-0.324 0.445,-0.324 0.467,-0.283 0.467,-0.285 0.466,-0.242 0.487,-0.244 0.507,-0.244 0.486,-0.201 0.527,-0.162 0.527,-0.203 0.527,-0.162 0.527,-0.123 0.547,-0.121 0.548,-0.121 0.548,-0.082 0.547,-0.041 0.568,-0.08 0.547,-0.041 h 0.568 l 0.547,-0.041 0.812,0.041 0.75,0.041 0.75,0.041 0.71,0.121 0.689,0.121 0.67,0.123 0.628,0.201 0.608,0.203 0.588,0.203 0.568,0.244 0.527,0.283 0.527,0.283 0.486,0.326 0.466,0.324 0.446,0.365 0.406,0.363 0.405,0.406 0.385,0.406 0.365,0.445 0.324,0.447 0.325,0.486 0.283,0.486 0.284,0.527 0.264,0.527 0.243,0.527 0.224,0.566 0.202,0.609 0.183,0.568 0.162,0.607 0.162,0.648 0.122,0.609 0.122,0.648 0.101,0.689 0.102,0.689 0.081,0.648 0.062,0.73 0.04,0.689 0.021,0.73 0.021,0.73 0.02,0.77 c 0.183,0 0.345,0 0.345,0 0.183,0 0.406,0 0.406,0 h 0.243 0.304 0.305 0.345 0.345 0.385 0.406 0.426 0.426 0.446 0.445 0.467 0.467 0.466 0.467 0.466 0.446 0.467 0.446 0.426 0.405 0.405 0.386 0.365 0.345 0.304 0.284 0.264 0.223 c 0.183,0 0.324,0 0.324,0 0.203,0 0.244,-1.42 0.244,-1.42 v -1.379 l -0.041,-1.338 -0.061,-1.297 -0.122,-1.258 -0.162,-1.217 -0.183,-1.176 -0.243,-1.137 -0.264,-1.094 -0.304,-1.055 -0.345,-1.014 -0.365,-0.975 -0.426,-0.973 -0.446,-0.893 -0.486,-0.852 -0.508,-0.852 -0.567,-0.811 -0.567,-0.73 -0.629,-0.73 -0.649,-0.689 -0.689,-0.648 -0.709,-0.629 -0.771,-0.568 -0.771,-0.547 -0.812,-0.508 -0.852,-0.486 -0.872,-0.445 -0.893,-0.406 -0.953,-0.365 -0.953,-0.344 -0.993,-0.305 -1.014,-0.264 -1.055,-0.242 -1.075,-0.225 -1.095,-0.162 -1.136,-0.141 -1.155,-0.123 -1.177,-0.08 -1.217,-0.041 -1.236,-0.02 -1.177,0.02 -1.155,0.041 -1.156,0.08 -1.136,0.123 -1.115,0.141 -1.095,0.162 -1.095,0.203 -1.055,0.244 -1.055,0.264 -1.034,0.303 -0.993,0.326 -0.994,0.363 -0.953,0.406 -0.933,0.426 -0.912,0.447 -0.893,0.506 -0.872,0.508 -0.831,0.566 -0.791,0.59 -0.791,0.627 -0.75,0.65 -0.71,0.689 -0.689,0.729 -0.649,0.73 -0.628,0.811 -0.589,0.812 -0.547,0.852 -0.527,0.893 -0.467,0.891 -0.445,0.975 -0.406,0.973 -0.365,1.014 -0.324,1.055 -0.283,1.096 -0.244,1.135 -0.202,1.137 -0.162,1.217 -0.122,1.217 -0.061,1.256 -0.021,1.299 0.061,2.109 0.243,1.986 0.365,1.906 0.507,1.824 0.629,1.703 0.771,1.582 0.852,1.541 0.974,1.42 1.055,1.379 1.155,1.258 1.237,1.217 1.298,1.176 1.358,1.096 1.42,1.055 1.48,1.014 1.5,0.973 1.541,0.934 1.562,0.891 1.582,0.854 1.581,0.852 1.582,0.852 1.582,0.811 1.562,0.811 1.541,0.812 1.521,0.852 1.46,0.811 1.42,0.852 1.358,0.852 1.318,0.934 1.217,0.891 1.155,0.975 1.055,1.014 0.974,1.055 0.872,1.094 0.75,1.137 0.629,1.217 0.507,1.297 0.365,1.34 0.243,1.459 0.081,1.5 -0.021,0.852 -0.041,0.852 -0.061,0.771 -0.102,0.771 -0.121,0.77 -0.143,0.73 -0.182,0.689 -0.183,0.648 -0.224,0.648 -0.243,0.65 -0.264,0.566 -0.284,0.568 -0.304,0.568 -0.345,0.527 -0.345,0.486 -0.365,0.486 -0.385,0.445 -0.406,0.406 -0.426,0.445 -0.446,0.365 -0.466,0.365 -0.467,0.324 -0.507,0.324 -0.507,0.326 -0.507,0.283 -0.548,0.244 -0.547,0.242 -0.568,0.203 -0.567,0.203 -0.608,0.203 -0.588,0.162 -0.608,0.121 -0.629,0.121 -0.629,0.123 -0.648,0.08 -0.649,0.082 -0.669,0.039 -0.669,0.041 -0.669,0.041 h -0.689 -0.548 l -0.567,-0.041 -0.568,-0.041 -0.567,-0.039 -0.568,-0.082 -0.567,-0.08 -0.548,-0.123 -0.567,-0.121 -0.568,-0.162 -0.547,-0.162 -0.548,-0.203 -0.527,-0.203 -0.547,-0.242 -0.508,-0.244 -0.527,-0.283 -0.507,-0.285 -0.486,-0.324 -0.486,-0.324 -0.467,-0.365 -0.467,-0.404 -0.445,-0.406 -0.426,-0.447 -0.406,-0.486 -0.405,-0.486 -0.386,-0.527 -0.364,-0.527 -0.345,-0.607 -0.305,-0.609 -0.304,-0.607 -0.284,-0.689 -0.264,-0.689 -0.223,-0.689 -0.224,-0.771 -0.183,-0.77 -0.162,-0.812 -0.121,-0.852 -0.102,-0.891 -0.081,-0.934 -0.041,-0.934 -0.021,-0.973 c 0,-0.203 0,-0.244 0,-0.244 0,-0.201 0,-0.283 0,-0.283 0,-0.162 0,-0.244 0,-0.244 0,-0.201 0,-0.283 0,-0.283 0,-0.203 0,-0.283 0,-0.283 0,-0.203 0,-0.285 0,-0.285 0,-0.162 0,-0.242 0,-0.242 0,-0.162 0,-0.244 0,-0.244 0,-0.203 0,-0.242 0,-0.242 -0.001,-0.126 -11.62,-0.126 -11.62,-0.126 z"
   stroke-miterlimit="10"
   inkscape:connector-curvature="0" />
</g><g
     style="fill:#000000;fill-opacity:1;stroke:none"
     id="LWPOLYLINE_3_">
	
		<path
   style="fill:#000000;fill-opacity:1;stroke:none"
   id="path13"
   d="m 241.701,410.455 c -0.183,0 -0.325,0 -0.325,0 -0.183,0 -0.385,0 -0.385,0 h -0.224 -0.264 -0.303 -0.304 -0.345 -0.365 -0.365 -0.386 -0.405 -0.426 -0.426 -0.426 -0.426 -0.446 -0.426 -0.426 -0.446 -0.405 -0.426 -0.406 -0.385 -0.365 -0.365 -0.345 -0.304 -0.305 -0.263 -0.244 c -0.202,0 -0.364,0 -0.364,0 -0.143,0 -0.244,0 -0.244,0 -0.081,0.182 -0.081,0.709 -0.081,0.709 v 0.832 1.156 1.439 1.725 1.945 2.23 2.393 2.637 2.799 2.961 3.082 3.244 3.326 3.447 3.488 3.568 3.568 3.609 3.65 3.568 3.57 3.488 3.447 3.324 3.244 3.084 2.959 2.799 2.637 2.393 2.23 1.947 1.703 1.461 1.135 0.852 0.527 c 0.183,0.162 0.325,0.162 0.325,0.162 0.162,0 0.364,0 0.364,0 h 0.244 0.263 0.305 0.304 0.345 0.365 0.365 0.385 0.406 0.426 0.405 0.446 0.426 0.426 0.446 0.426 0.426 0.426 0.426 0.405 0.386 0.365 0.365 0.345 0.304 0.304 0.264 0.224 c 0.202,0 0.385,0 0.385,0 0.143,0 0.244,0 0.244,0 0.08,0.004 0.08,-96.338 0.08,-96.338 z"
   stroke-miterlimit="10"
   inkscape:connector-curvature="0" />
</g><g
     style="fill:#000000;fill-opacity:1;stroke:none"
     id="LWPOLYLINE_4_">
	
		<path
   style="fill:#000000;fill-opacity:1;stroke:none"
   id="path16"
   d="m 314.804,410.455 c 0,0.162 0,0.607 0,0.607 v 0.711 0.994 1.236 1.459 1.664 1.906 2.027 2.23 2.393 2.555 2.637 2.758 2.84 2.92 3 3.043 3.041 3.082 3.082 3.082 3.043 2.961 2.961 2.838 2.758 2.637 2.514 2.393 2.23 2.068 1.906 1.664 1.459 1.217 1.014 0.689 0.447 c -0.081,0 -0.284,-0.447 -0.284,-0.447 l -0.324,-0.689 -0.405,-1.014 -0.568,-1.217 -0.648,-1.459 -0.73,-1.664 -0.852,-1.906 -0.933,-2.068 -0.974,-2.23 -1.054,-2.393 -1.136,-2.514 -1.177,-2.637 -1.217,-2.758 -1.257,-2.838 -1.298,-2.961 -1.338,-2.961 -1.339,-3.043 -1.379,-3.082 -1.379,-3.082 -1.379,-3.082 -1.338,-3.041 -1.339,-3.043 -1.338,-3 -1.298,-2.92 -1.258,-2.84 -1.257,-2.758 -1.177,-2.637 -1.115,-2.555 -1.054,-2.393 -0.994,-2.23 -0.912,-2.027 -0.832,-1.906 -0.75,-1.664 -0.648,-1.459 -0.548,-1.236 -0.446,-0.994 -0.324,-0.711 -0.183,-0.445 c -0.203,-0.162 -0.345,-0.162 -0.345,-0.162 -0.203,0 -0.446,0 -0.446,0 h -0.284 -0.345 -0.385 -0.405 -0.467 -0.467 -0.526 -0.527 -0.548 -0.588 -0.588 -0.608 -0.608 -0.629 -0.608 -0.629 -0.628 -0.608 -0.608 -0.588 -0.568 -0.547 -0.548 -0.507 -0.487 -0.445 -0.426 -0.365 -0.345 -0.305 -0.243 c -0.203,0 -0.345,0 -0.345,0 -0.121,0.182 -0.121,0.709 -0.121,0.709 v 0.832 1.156 1.439 1.725 1.945 2.23 2.393 2.637 2.799 2.961 3.082 3.244 3.326 3.447 3.488 3.568 3.568 3.609 3.65 3.568 3.57 3.488 3.447 3.324 3.244 3.084 2.959 2.799 2.637 2.393 2.23 1.947 1.703 1.461 1.135 0.852 0.527 c 0.182,0.162 0.304,0.162 0.304,0.162 0.162,0 0.345,0 0.345,0 h 0.223 0.264 0.264 0.284 0.324 0.324 0.345 0.365 0.386 0.385 0.386 0.405 0.386 0.405 0.405 0.406 0.405 0.385 0.386 0.385 0.345 0.365 0.324 0.305 0.304 0.264 0.244 0.223 c 0.203,0 0.365,0 0.365,0 0.121,0 0.223,0 0.223,0 0.081,-0.121 0.081,-0.607 0.081,-0.607 v -0.686 -1.016 -1.256 -1.461 -1.703 -1.906 -2.068 -2.271 -2.393 -2.555 -2.678 -2.797 -2.881 -2.959 -3.002 -3.082 -3.082 -3.123 -3.082 -3.123 -3.043 -3.041 -2.961 -2.879 -2.758 -2.678 -2.555 -2.434 -2.23 -2.109 -1.865 -1.703 -1.5 -1.217 -1.014 -0.73 -0.445 c 0.061,0 0.264,0.445 0.264,0.445 l 0.324,0.73 0.446,1.014 0.568,1.217 0.669,1.5 0.75,1.703 0.852,1.865 0.953,2.109 1.014,2.23 1.075,2.434 1.156,2.555 1.196,2.678 1.257,2.758 1.298,2.879 1.318,2.961 1.358,3.041 1.379,3.043 1.42,3.123 1.379,3.082 1.419,3.123 1.379,3.082 1.379,3.082 1.379,3.002 1.298,2.959 1.298,2.881 1.258,2.797 1.216,2.678 1.136,2.555 1.096,2.393 1.014,2.271 0.933,2.068 0.852,1.906 0.771,1.703 0.649,1.461 0.567,1.256 0.446,1.016 0.324,0.689 0.203,0.486 c 0.202,0.121 0.324,0.121 0.324,0.121 0.203,0 0.446,0 0.446,0 h 0.284 0.324 0.324 0.405 0.446 0.446 0.486 0.487 0.567 0.527 0.567 0.568 0.567 0.608 0.568 0.608 0.608 0.567 0.567 0.568 0.527 0.527 0.526 0.487 0.446 0.445 0.406 0.324 0.324 0.284 0.243 c 0.203,0 0.324,0 0.324,0 0.122,-0.162 0.122,-0.689 0.122,-0.689 v -0.852 -1.135 -1.461 -1.703 -1.947 -2.23 -2.393 -2.637 -2.799 -2.959 -3.084 -3.244 -3.324 -3.447 -3.488 -3.57 -3.568 -3.65 -3.609 -3.568 -3.568 -3.488 -3.447 -3.326 -3.244 -3.082 -2.961 -2.799 -2.637 -2.393 -2.23 -1.945 -1.725 -1.439 -1.156 -0.832 -0.527 c 0.007,-0.185 -10.781,-0.185 -10.781,-0.185 z"
   stroke-miterlimit="10"
   inkscape:connector-curvature="0" />
</g><g
     style="fill:#000000;fill-opacity:1;stroke:none"
     id="LWPOLYLINE_7_">
	
		<path
   style="fill:#000000;fill-opacity:1;stroke:none"
   id="path25"
   d="m 471.798,506.797 c 0,-0.162 0,-0.283 0,-0.283 0,-0.162 0,-0.365 0,-0.365 v -0.203 -0.244 -0.283 -0.283 -0.324 -0.326 -0.363 -0.365 -0.365 -0.365 -0.406 -0.404 -0.406 -0.406 -0.404 -0.406 -0.406 -0.365 -0.404 -0.365 -0.365 -0.324 -0.365 -0.283 -0.324 -0.244 -0.251 -0.242 c 0,-0.162 0,-0.324 0,-0.324 0,-0.162 0,-0.244 0,-0.244 -0.081,-0.08 -0.284,-0.08 -0.284,-0.08 h -0.284 -0.445 -0.487 -0.648 -0.689 -0.812 -0.892 -0.934 -1.014 -1.055 -1.136 -1.176 -1.217 -1.217 -1.298 -1.257 -1.298 -1.338 -1.298 -1.298 -1.298 -1.258 -1.217 -1.217 -1.176 -1.136 -1.055 -1.014 -0.973 -0.853 -0.811 -0.689 -0.649 -0.527 -0.405 -0.284 c -0.202,0 -0.283,0 -0.283,0 0,-0.164 0,-0.609 0,-0.609 v -0.77 -1.016 -1.297 -1.5 -1.744 -1.947 -2.148 -2.354 -2.475 -2.635 -2.758 -2.84 -2.961 -3.041 -3.123 -3.164 -3.203 -3.203 -3.205 -3.162 -3.164 -3.123 -3.041 -2.961 -2.881 -2.758 -2.635 -2.475 -2.312 -2.148 -1.947 -1.744 -1.52 -1.299 -1.014 -0.75 -0.467 c -0.162,-0.162 -0.325,-0.162 -0.325,-0.162 -0.162,0 -0.364,0 -0.364,0 h -0.243 -0.244 -0.324 -0.284 -0.364 -0.365 -0.365 -0.365 -0.405 -0.446 -0.405 -0.446 -0.405 -0.446 -0.446 -0.405 -0.446 -0.405 -0.446 -0.405 -0.365 -0.365 -0.365 -0.364 -0.284 -0.324 -0.244 -0.243 c -0.202,0 -0.365,0 -0.365,0 -0.162,0 -0.243,0 -0.243,0 -0.081,0.182 -0.081,0.709 -0.081,0.709 v 0.832 1.156 1.439 1.725 1.945 2.23 2.393 2.637 2.799 2.961 3.082 3.244 3.326 3.447 3.488 3.568 3.568 3.609 3.65 3.568 3.57 3.488 3.447 3.324 3.244 3.084 2.959 2.799 2.637 2.393 2.23 1.947 1.703 1.461 1.135 0.852 0.527 c -0.005,0.167 46.514,0.167 46.514,0.167 z"
   stroke-miterlimit="10"
   inkscape:connector-curvature="0" />
</g><g
     style="fill:#000000;fill-opacity:1;stroke:none"
     id="LWPOLYLINE_8_">
	
		<path
   style="fill:#000000;fill-opacity:1;stroke:none"
   id="path28"
   d="m 529.915,506.797 c 0,-0.162 0,-0.283 0,-0.283 0,-0.162 0,-0.365 0,-0.365 v -0.203 -0.244 -0.283 -0.283 -0.324 -0.326 -0.363 -0.365 -0.365 -0.365 -0.406 -0.404 -0.406 -0.406 -0.404 -0.406 -0.406 -0.365 -0.404 -0.365 -0.365 -0.324 -0.365 -0.283 -0.324 -0.244 -0.251 -0.242 c 0,-0.162 0,-0.324 0,-0.324 0,-0.162 0,-0.244 0,-0.244 -0.081,-0.08 -0.284,-0.08 -0.284,-0.08 h -0.324 -0.446 -0.527 -0.689 -0.771 -0.852 -0.933 -1.014 -1.096 -1.135 -1.217 -1.258 -1.257 -1.339 -1.379 -1.379 -1.379 -1.419 -1.379 -1.42 -1.379 -1.338 -1.339 -1.298 -1.257 -1.176 -1.177 -1.055 -1.054 -0.934 -0.852 -0.729 -0.689 -0.568 -0.445 -0.325 c -0.202,0 -0.243,0 -0.243,0 0,-0.041 0,-0.244 0,-0.244 v -0.283 -0.406 -0.486 -0.609 -0.648 -0.77 -0.854 -0.891 -0.975 -1.014 -1.055 -1.135 -1.137 -1.176 -1.217 -1.217 -1.256 -1.258 -1.217 -1.258 -1.217 -1.217 -1.176 -1.135 -1.137 -1.055 -1.014 -0.973 -0.893 -0.852 -0.77 -0.65 -0.607 -0.486 -0.406 -0.283 c 0,-0.203 0,-0.244 0,-0.244 0.041,0 0.243,0 0.243,0 h 0.284 0.405 0.527 0.608 0.689 0.771 0.852 0.934 0.973 1.055 1.095 1.136 1.177 1.216 1.258 1.257 1.258 1.257 1.298 1.257 1.258 1.257 1.217 1.177 1.135 1.096 1.054 0.974 0.933 0.853 0.771 0.689 0.608 0.526 0.406 0.283 c 0.203,0 0.244,0 0.244,0 0,-0.162 0,-0.324 0,-0.324 0,-0.162 0,-0.324 0,-0.324 v -0.241 -0.242 -0.285 -0.283 -0.283 -0.365 -0.324 -0.365 -0.365 -0.406 -0.365 -0.404 -0.406 -0.406 -0.404 -0.406 -0.406 -0.404 -0.365 -0.365 -0.365 -0.365 -0.324 -0.324 -0.283 -0.29 -0.242 -0.203 c 0,-0.203 0,-0.365 0,-0.365 0,-0.121 0,-0.203 0,-0.203 -0.041,-0.08 -0.244,-0.08 -0.244,-0.08 h -0.283 -0.406 -0.526 -0.608 -0.689 -0.771 -0.853 -0.933 -0.974 -1.054 -1.096 -1.135 -1.177 -1.217 -1.257 -1.258 -1.257 -1.298 -1.257 -1.258 -1.257 -1.258 -1.216 -1.177 -1.136 -1.095 -1.055 -0.973 -0.934 -0.852 -0.771 -0.689 -0.608 -0.527 -0.405 -0.284 c -0.202,0 -0.243,0 -0.243,0 0,-0.082 0,-0.244 0,-0.244 v -0.283 -0.365 -0.447 -0.527 -0.648 -0.689 -0.77 -0.852 -0.893 -0.934 -0.973 -1.055 -1.055 -1.096 -1.135 -1.135 -1.137 -1.135 -1.176 -1.137 -1.135 -1.096 -1.096 -1.094 -1.014 -0.975 -0.973 -0.893 -0.811 -0.771 -0.729 -0.609 -0.568 -0.445 -0.365 -0.283 c 0,-0.162 0,-0.203 0,-0.203 0.041,0 0.243,0 0.243,0 h 0.325 0.445 0.527 0.649 0.771 0.811 0.934 0.973 1.055 1.136 1.176 1.217 1.298 1.298 1.298 1.379 1.339 1.379 1.379 1.338 1.379 1.298 1.338 1.258 1.217 1.176 1.136 1.055 0.973 0.934 0.852 0.729 0.649 0.527 0.446 0.324 c 0.202,0 0.283,0 0.283,0 0,-0.162 0,-0.324 0,-0.324 0,-0.162 0,-0.324 0,-0.324 v -0.244 -0.244 -0.283 -0.283 -0.285 -0.365 -0.324 -0.365 -0.363 -0.406 -0.365 -0.406 -0.426 -0.385 -0.406 -0.404 -0.406 -0.385 -0.385 -0.387 -0.365 -0.344 -0.324 -0.324 -0.285 -0.264 -0.264 -0.201 c 0,-0.203 0,-0.365 0,-0.365 0,-0.123 0,-0.223 0,-0.223 -0.121,-0.082 -0.364,-0.082 -0.364,-0.082 h -0.406 -0.608 -0.689 -0.892 -0.974 -1.095 -1.217 -1.298 -1.379 -1.501 -1.541 -1.622 -1.663 -1.703 -1.784 -1.744 -1.825 -1.784 -1.825 -1.784 -1.785 -1.743 -1.704 -1.703 -1.582 -1.581 -1.46 -1.42 -1.298 -1.217 -1.095 -0.974 -0.852 -0.729 -0.568 -0.446 -0.243 c -0.081,0.182 -0.081,0.709 -0.081,0.709 v 0.832 1.156 1.439 1.725 1.945 2.23 2.393 2.637 2.799 2.961 3.082 3.244 3.326 3.447 3.488 3.568 3.568 3.609 3.65 3.568 3.57 3.488 3.447 3.324 3.244 3.084 2.959 2.799 2.637 2.393 2.23 1.947 1.703 1.461 1.135 0.852 0.527 c -0.002,0.166 48.99,0.166 48.99,0.166 z"
   stroke-miterlimit="10"
   inkscape:connector-curvature="0" />
</g><g
     style="fill:#000000;fill-opacity:1;stroke:none"
     id="LWPOLYLINE_9_">
	
		<path
   style="fill:#000000;fill-opacity:1;stroke:none"
   id="path31"
   d="m 220.104,547.516 c -0.183,0 -0.324,0 -0.324,0 -0.162,0 -0.386,0 -0.386,0 h -0.223 -0.284 -0.284 -0.303 -0.345 -0.365 -0.365 -0.385 -0.405 -0.427 -0.426 -0.426 -0.426 -0.446 -0.426 -0.426 -0.445 -0.406 -0.426 -0.405 -0.386 -0.364 -0.365 -0.345 -0.305 -0.304 -0.264 -0.224 c -0.223,0 -0.385,0 -0.385,0 -0.142,0 -0.243,0 -0.243,0 -0.081,0.162 -0.081,0.689 -0.081,0.689 v 0.852 1.135 1.461 1.703 1.988 2.189 2.434 2.596 2.799 2.959 3.123 3.205 3.365 3.406 3.488 3.57 3.609 3.609 3.609 3.568 3.568 3.488 3.447 3.326 3.244 3.082 2.961 2.799 2.637 2.393 2.23 1.945 1.705 1.459 1.137 0.852 0.527 c 0.183,0.201 0.324,0.201 0.324,0.201 0.162,0 0.385,0 0.385,0 h 0.224 0.264 0.304 0.305 0.345 0.365 0.364 0.386 0.405 0.426 0.406 0.445 0.426 0.426 0.446 0.426 0.426 0.426 0.427 0.405 0.385 0.365 0.365 0.345 0.304 0.284 0.284 0.223 c 0.224,0 0.386,0 0.386,0 0.142,0 0.243,0 0.243,0 0.08,0.003 0.08,-96.358 0.08,-96.358 z"
   stroke-miterlimit="10"
   inkscape:connector-curvature="0" />
</g><g
     style="fill:#000000;fill-opacity:1;stroke:none"
     id="LWPOLYLINE_10_">
	
		<path
   style="fill:#000000;fill-opacity:1;stroke:none"
   id="path34"
   d="m 293.188,547.516 c 0,0.162 0,0.607 0,0.607 v 0.689 1.016 1.217 1.459 1.662 1.906 2.068 2.23 2.395 2.514 2.637 2.758 2.838 2.961 2.961 3.041 3.082 3.084 3.082 3.041 3.041 3.002 2.92 2.84 2.758 2.635 2.557 2.393 2.23 2.027 1.906 1.662 1.461 1.258 0.973 0.73 0.445 c -0.041,0 -0.244,-0.445 -0.244,-0.445 l -0.324,-0.73 -0.446,-0.973 -0.526,-1.258 -0.649,-1.461 -0.771,-1.662 -0.812,-1.906 -0.933,-2.027 -0.973,-2.23 -1.096,-2.393 -1.115,-2.557 -1.176,-2.635 -1.217,-2.758 -1.277,-2.84 -1.298,-2.92 -1.318,-3.002 -1.358,-3.041 -1.358,-3.041 -1.359,-3.082 -1.379,-3.084 -1.358,-3.082 -1.358,-3.041 -1.318,-2.961 -1.298,-2.961 -1.277,-2.838 -1.217,-2.758 -1.176,-2.637 -1.136,-2.514 -1.055,-2.395 -0.993,-2.23 -0.913,-2.068 -0.831,-1.906 -0.751,-1.662 -0.648,-1.459 -0.548,-1.217 -0.445,-1.016 -0.325,-0.689 -0.183,-0.445 c -0.202,-0.162 -0.345,-0.162 -0.345,-0.162 -0.202,0 -0.445,0 -0.445,0 h -0.284 -0.345 -0.386 -0.405 -0.467 -0.466 -0.527 -0.527 -0.548 -0.588 -0.588 -0.608 -0.608 -0.608 -0.629 -0.628 -0.608 -0.629 -0.588 -0.608 -0.567 -0.548 -0.548 -0.507 -0.486 -0.446 -0.426 -0.365 -0.345 -0.304 -0.244 c -0.202,0 -0.345,0 -0.345,0 -0.121,0.162 -0.121,0.689 -0.121,0.689 v 0.852 1.135 1.461 1.703 1.988 2.189 2.434 2.596 2.799 2.959 3.123 3.205 3.365 3.406 3.488 3.57 3.609 3.609 3.609 3.568 3.568 3.488 3.447 3.326 3.244 3.082 2.961 2.799 2.637 2.393 2.23 1.945 1.705 1.459 1.137 0.852 0.527 c 0.183,0.201 0.304,0.201 0.304,0.201 0.162,0 0.365,0 0.365,0 h 0.203 0.264 0.264 0.283 0.325 0.324 0.345 0.365 0.385 0.386 0.385 0.406 0.405 0.385 0.406 0.405 0.405 0.386 0.385 0.386 0.365 0.345 0.324 0.304 0.305 0.264 0.243 0.223 c 0.203,0 0.365,0 0.365,0 0.122,0 0.224,0 0.224,0 0.081,-0.162 0.081,-0.607 0.081,-0.607 v -0.73 -1.014 -1.217 -1.5 -1.703 -1.867 -2.107 -2.23 -2.434 -2.555 -2.678 -2.799 -2.838 -2.961 -3.041 -3.043 -3.123 -3.082 -3.123 -3.123 -3.041 -3.041 -2.92 -2.881 -2.799 -2.676 -2.555 -2.393 -2.271 -2.109 -1.865 -1.703 -1.461 -1.258 -1.014 -0.729 -0.447 c 0.061,0 0.264,0.447 0.264,0.447 l 0.324,0.729 0.446,1.014 0.567,1.258 0.669,1.461 0.751,1.703 0.852,1.865 0.953,2.109 1.014,2.271 1.074,2.393 1.156,2.555 1.196,2.676 1.258,2.799 1.298,2.881 1.317,2.92 1.379,3.041 1.379,3.041 1.379,3.123 1.399,3.123 1.399,3.082 1.399,3.123 1.379,3.043 1.358,3.041 1.338,2.961 1.298,2.838 1.237,2.799 1.217,2.678 1.136,2.555 1.095,2.434 1.014,2.23 0.933,2.107 0.853,1.867 0.75,1.703 0.689,1.5 0.567,1.217 0.446,1.014 0.324,0.73 0.203,0.445 c 0.162,0.162 0.324,0.162 0.324,0.162 0.162,0 0.406,0 0.406,0 h 0.283 0.324 0.365 0.406 0.405 0.486 0.487 0.486 0.527 0.567 0.527 0.608 0.567 0.568 0.608 0.608 0.567 0.568 0.608 0.526 0.568 0.527 0.486 0.486 0.487 0.405 0.405 0.365 0.324 0.284 0.243 c 0.162,0 0.325,0 0.325,0 0.121,-0.201 0.121,-0.729 0.121,-0.729 v -0.852 -1.137 -1.459 -1.705 -1.945 -2.23 -2.393 -2.637 -2.799 -2.961 -3.082 -3.244 -3.326 -3.447 -3.488 -3.568 -3.568 -3.609 -3.609 -3.609 -3.57 -3.488 -3.406 -3.365 -3.205 -3.123 -2.959 -2.799 -2.596 -2.434 -2.189 -1.988 -1.703 -1.461 -1.135 -0.852 -0.527 c 0.007,-0.161 -10.821,-0.161 -10.821,-0.161 z"
   stroke-miterlimit="10"
   inkscape:connector-curvature="0" />
</g><g
     style="fill:#000000;fill-opacity:1;stroke:none"
     id="LWPOLYLINE_11_">
	
		<path
   style="fill:#000000;fill-opacity:1;stroke:none"
   id="path37"
   d="m 377.909,574.08 0.122,-1.42 0.081,-1.379 0.041,-1.338 v -1.299 l -0.041,-1.256 -0.081,-1.217 -0.081,-1.217 -0.162,-1.137 -0.162,-1.135 -0.203,-1.055 -0.243,-1.055 -0.284,-1.014 -0.324,-0.973 -0.324,-0.934 -0.406,-0.893 -0.405,-0.852 -0.486,-0.852 -0.487,-0.77 -0.527,-0.771 -0.567,-0.73 -0.608,-0.648 -0.648,-0.648 -0.689,-0.609 -0.73,-0.607 -0.771,-0.527 -0.812,-0.486 -0.811,-0.486 -0.893,-0.447 -0.892,-0.404 -0.974,-0.365 -0.974,-0.324 -1.055,-0.285 -1.054,-0.242 -1.136,-0.244 -1.136,-0.203 -1.176,-0.121 -1.258,-0.121 -1.257,-0.082 -1.298,-0.08 h -1.379 -1.42 l -1.379,0.039 -1.338,0.082 -1.339,0.121 -1.298,0.121 -1.298,0.164 -1.217,0.201 -1.217,0.244 -1.176,0.283 -1.176,0.324 -1.096,0.365 -1.095,0.365 -1.055,0.447 -1.014,0.486 -0.974,0.527 -0.973,0.566 -0.893,0.609 -0.893,0.648 -0.852,0.689 -0.811,0.771 -0.771,0.811 -0.771,0.852 -0.689,0.893 -0.649,0.973 -0.648,1.014 -0.568,1.055 -0.567,1.137 -0.527,1.176 -0.446,1.258 -0.446,1.297 -0.405,1.338 -0.365,1.461 -0.324,1.459 -0.243,1.541 -0.243,1.623 -0.203,1.703 -0.162,1.744 -0.081,1.824 -0.081,1.867 v 1.986 c 0,0.162 0,0.406 0,0.406 v 0.324 0.445 0.486 0.527 0.65 0.689 0.729 0.812 0.852 0.852 0.932 0.934 0.973 1.016 1.014 1.014 1.014 1.055 1.014 1.014 0.973 1.016 0.932 0.934 0.852 0.852 0.811 0.73 0.689 0.648 0.527 0.486 0.406 0.365 0.242 c 0,0.162 0,2.92 0,2.92 l 0.121,2.596 0.162,2.475 0.203,2.352 0.324,2.191 0.324,2.107 0.406,1.988 0.446,1.865 0.486,1.785 0.527,1.621 0.608,1.582 0.648,1.42 0.649,1.379 0.729,1.258 0.73,1.135 0.811,1.096 0.812,1.014 0.812,0.893 0.892,0.852 0.893,0.77 0.893,0.689 0.933,0.65 0.973,0.566 0.974,0.486 0.974,0.447 0.974,0.406 0.973,0.363 1.015,0.285 1.014,0.283 1.014,0.203 0.974,0.162 1.014,0.162 1.014,0.121 0.974,0.082 0.974,0.08 0.973,0.041 0.934,0.041 h 0.933 0.892 0.893 0.527 0.567 0.608 0.689 l 0.689,-0.041 0.73,-0.041 0.771,-0.08 0.812,-0.082 0.811,-0.08 0.852,-0.121 0.893,-0.164 0.893,-0.201 0.892,-0.244 0.893,-0.244 0.933,-0.283 0.893,-0.365 0.933,-0.404 0.893,-0.447 0.933,-0.486 0.892,-0.527 0.853,-0.607 0.892,-0.689 0.812,-0.73 0.852,-0.771 0.771,-0.893 0.771,-0.932 0.73,-1.014 0.689,-1.055 0.648,-1.176 0.608,-1.258 0.527,-1.338 0.527,-1.461 0.446,-1.5 0.364,-1.623 0.365,-1.703 0.243,-1.824 0.203,-1.906 0.122,-2.027 0.081,-2.15 -0.041,-2.23 c -0.203,0 -0.324,0 -0.324,0 -0.203,0 -0.405,0 -0.405,0 h -0.284 -0.284 -0.284 -0.364 -0.365 -0.365 -0.405 -0.405 -0.446 -0.446 -0.446 -0.455 -0.486 -0.446 -0.486 -0.446 -0.486 -0.446 -0.446 -0.405 -0.446 -0.406 -0.364 -0.365 -0.324 -0.325 -0.283 -0.243 -0.244 c -0.162,0 -0.324,0 -0.324,0 -0.203,0 -0.203,1.379 -0.203,1.379 l -0.081,1.338 -0.081,1.299 -0.162,1.217 -0.162,1.135 -0.162,1.096 -0.243,1.055 -0.243,0.973 -0.284,0.934 -0.324,0.852 -0.325,0.852 -0.364,0.77 -0.406,0.73 -0.364,0.689 -0.446,0.648 -0.405,0.568 -0.446,0.568 -0.487,0.527 -0.446,0.486 -0.486,0.404 -0.486,0.406 -0.487,0.365 -0.486,0.365 -0.527,0.283 -0.486,0.283 -0.487,0.244 -0.526,0.203 -0.487,0.203 -0.486,0.162 -0.487,0.162 -0.445,0.121 -0.487,0.121 -0.446,0.082 -0.445,0.08 -0.406,0.041 -0.405,0.041 -0.405,0.041 h -0.365 l -0.365,0.041 h -0.324 -0.648 l -0.689,-0.041 -0.689,-0.041 -0.649,-0.041 -0.648,-0.08 -0.649,-0.082 -0.608,-0.121 -0.648,-0.121 -0.608,-0.162 -0.608,-0.203 -0.568,-0.203 -0.567,-0.244 -0.567,-0.283 -0.568,-0.324 -0.527,-0.324 -0.527,-0.406 -0.527,-0.406 -0.486,-0.445 -0.486,-0.527 -0.446,-0.527 -0.446,-0.568 -0.405,-0.648 -0.406,-0.648 -0.405,-0.73 -0.365,-0.77 -0.364,-0.852 -0.325,-0.852 -0.283,-0.934 -0.284,-1.014 -0.284,-1.014 -0.243,-1.137 -0.203,-1.135 -0.202,-1.258 -0.162,-1.258 -0.162,-1.379 -0.122,-1.418 -0.081,-1.502 -0.081,-1.541 -0.041,-1.662 v -1.703 c 0,-0.162 0,-0.406 0,-0.406 v -0.283 -0.406 -0.445 -0.527 -0.609 -0.648 -0.689 -0.73 -0.811 -0.811 -0.893 -0.893 -0.893 -0.932 -0.975 -0.932 -0.975 -0.973 -0.973 -0.934 -0.934 -0.932 -0.893 -0.852 -0.811 -0.812 -0.729 -0.73 -0.648 -0.568 -0.527 -0.447 -0.404 -0.285 -0.242 c 0,-0.203 0,-1.42 0,-1.42 v -1.135 l 0.041,-1.137 0.04,-1.055 v -1.014 l 0.081,-0.973 0.041,-0.934 0.04,-0.891 0.082,-0.854 0.04,-0.77 0.081,-0.771 0.081,-0.689 0.081,-0.689 0.081,-0.648 0.081,-0.607 0.081,-0.568 0.122,-0.527 0.081,-0.486 0.081,-0.447 0.122,-0.445 0.081,-0.406 0.081,-0.365 0.081,-0.363 0.121,-0.326 0.082,-0.283 0.081,-0.283 0.081,-0.285 0.081,-0.201 0.081,-0.203 c 0.081,-0.203 0.121,-0.406 0.121,-0.406 0.081,-0.121 0.122,-0.283 0.122,-0.283 0.041,-0.123 0.122,-0.244 0.122,-0.244 0.04,-0.203 0.081,-0.283 0.081,-0.283 0,-0.121 0.081,-0.244 0.081,-0.244 0.081,-0.162 0.162,-0.324 0.162,-0.324 0.121,-0.162 0.243,-0.365 0.243,-0.365 0.122,-0.203 0.284,-0.404 0.284,-0.404 l 0.162,-0.203 0.162,-0.203 0.203,-0.244 0.202,-0.242 0.203,-0.244 0.243,-0.242 0.243,-0.244 0.284,-0.244 0.284,-0.283 0.283,-0.244 0.325,-0.242 0.324,-0.244 0.365,-0.283 0.364,-0.244 0.406,-0.242 0.364,-0.244 0.446,-0.203 0.446,-0.242 0.446,-0.203 0.486,-0.203 0.487,-0.203 0.486,-0.203 0.527,-0.162 0.567,-0.162 0.568,-0.162 0.608,-0.162 0.608,-0.08 0.608,-0.123 0.648,-0.08 0.689,-0.082 0.689,-0.039 0.73,-0.041 h 0.729 c 0.122,0 0.284,0 0.284,0 0.162,0 0.324,0 0.324,0 0.203,0.041 0.405,0.041 0.405,0.041 l 0.203,0.039 h 0.203 l 0.243,0.041 0.243,0.041 0.243,0.041 0.243,0.039 0.284,0.082 0.284,0.041 0.243,0.039 0.284,0.082 0.283,0.08 0.325,0.082 0.283,0.082 0.284,0.08 0.284,0.121 0.324,0.082 0.284,0.121 0.283,0.121 0.325,0.123 0.283,0.121 0.284,0.121 0.284,0.162 0.283,0.162 0.284,0.123 0.284,0.203 0.243,0.162 0.284,0.162 0.243,0.203 0.243,0.201 0.243,0.203 0.243,0.244 0.203,0.203 0.203,0.242 0.202,0.244 0.163,0.242 0.202,0.285 0.162,0.242 0.162,0.285 0.163,0.283 0.162,0.283 0.121,0.285 0.162,0.283 0.122,0.283 0.122,0.326 0.121,0.324 0.122,0.283 0.121,0.324 0.122,0.324 0.122,0.324 0.081,0.365 0.081,0.324 0.121,0.365 0.081,0.324 0.081,0.365 0.041,0.365 0.081,0.365 0.081,0.365 0.041,0.365 0.081,0.404 0.04,0.365 0.041,0.406 0.04,0.365 0.081,0.406 v 0.404 l 0.041,0.406 0.04,0.404 0.041,0.406 v 0.406 l 0.04,0.404 v 0.447 0.406 0.445 l 0.041,0.406 v 0.445 h 11.593 z"
   stroke-miterlimit="10"
   inkscape:connector-curvature="0" />
</g><g
     style="fill:#000000;fill-opacity:1;stroke:none"
     id="LWPOLYLINE_12_">
	
		<path
   style="fill:#000000;fill-opacity:1;stroke:none"
   id="path40"
   d="m 405.326,629.723 c -0.203,0 -0.325,0 -0.325,0 -0.202,0 -0.446,0 -0.446,0 h -0.243 -0.283 -0.325 -0.324 -0.365 -0.364 -0.406 -0.405 -0.446 -0.446 -0.446 -0.486 -0.446 -0.446 -0.486 -0.446 -0.486 -0.446 -0.446 -0.446 -0.405 -0.405 -0.365 -0.365 -0.324 -0.324 -0.284 -0.243 -0.243 c -0.162,0 -0.324,0 -0.324,0 -0.203,0.123 -0.203,0.244 -0.203,0.244 0,0.162 0,0.365 0,0.365 v 0.242 0.326 0.324 0.324 0.404 0.406 0.447 0.445 0.445 0.527 0.486 0.527 0.488 0.527 0.527 0.525 0.527 0.527 0.527 0.486 0.488 0.486 0.445 0.447 0.404 0.406 0.324 0.324 0.285 0.283 0.203 c 0,0.162 0,0.283 0,0.283 0.203,0.121 0.365,0.121 0.365,0.121 0.162,0 0.405,0 0.405,0 h 0.243 0.284 0.324 0.324 0.365 0.365 0.405 0.405 0.446 0.446 0.446 0.486 0.446 0.486 0.446 0.446 0.486 0.446 0.446 0.446 0.405 0.406 0.364 0.365 0.324 0.325 0.283 0.243 0.244 c 0.202,0 0.324,0 0.324,0 0.203,0.009 0.203,-14.145 0.203,-14.145 z"
   stroke-miterlimit="10"
   inkscape:connector-curvature="0" />
</g><g
     style="fill:#000000;fill-opacity:1;stroke:none"
     id="LWPOLYLINE_16_">
	
		<polygon
   style="fill:#000000;fill-opacity:1;stroke:none"
   id="polygon52"
   points="568.971,267.595 568.971,245.999 495.848,245.999 495.848,172.916 474.271,172.916 474.271,245.999 437.73,245.999 402,245.999 402,267.595 474.271,267.595 474.271,339.866 495.848,339.866 495.848,267.595 "
   stroke-miterlimit="10" />
</g></g></svg>