<?xml version="1.0" encoding="UTF-8" standalone="no"?>
<!-- Generator: Adobe Illustrator 16.0.1, SVG Export Plug-In . SVG Version: 6.00 Build 0)  -->

<svg
   xmlns:dc="http://purl.org/dc/elements/1.1/"
   xmlns:cc="http://creativecommons.org/ns#"
   xmlns:rdf="http://www.w3.org/1999/02/22-rdf-syntax-ns#"
   xmlns:svg="http://www.w3.org/2000/svg"
   xmlns="http://www.w3.org/2000/svg"
   xmlns:xlink="http://www.w3.org/1999/xlink"
   xmlns:sodipodi="http://sodipodi.sourceforge.net/DTD/sodipodi-0.dtd"
   xmlns:inkscape="http://www.inkscape.org/namespaces/inkscape"
   version="1.0"
   id="_x31_"
   x="0px"
   y="0px"
   width="350"
   height="350"
   viewBox="0 0 350 350"
   enable-background="new 0 0 612 792"
   xml:space="preserve"
   inkscape:version="0.48.2 r9819"
   sodipodi:docname="7009.svg"><metadata
   id="metadata193"><rdf:RDF><cc:Work
       rdf:about=""><dc:format>image/svg+xml</dc:format><dc:type
         rdf:resource="http://purl.org/dc/dcmitype/StillImage" /></cc:Work></rdf:RDF></metadata><defs
   id="defs191"><radialGradient
     r="333.18735"
     fy="467.91885"
     fx="373.24265"
     cy="467.91885"
     cx="373.24265"
     gradientTransform="matrix(0.83535071,2.5391117e-7,-2.4564601e-7,0.80815889,783.12101,707.99698)"
     gradientUnits="userSpaceOnUse"
     id="radialGradient3736"
     xlink:href="#linearGradient5443"
     inkscape:collect="always" /><linearGradient
     y2="254.73526"
     x2="123.47623"
     y1="344.03848"
     x1="123.50603"
     gradientTransform="matrix(2.3189708,0,0,2.0930998,-99.17808,-231.54972)"
     gradientUnits="userSpaceOnUse"
     id="linearGradient3734"
     xlink:href="#linearGradient3187"
     inkscape:collect="always" /><radialGradient
     r="333.18735"
     fy="710.99164"
     fx="373.24265"
     cy="710.99164"
     cx="373.24265"
     gradientTransform="matrix(0.86272608,1.0667183e-7,-5.1097115e-8,0.31434,772.90338,992.7076)"
     gradientUnits="userSpaceOnUse"
     id="radialGradient3732"
     xlink:href="#linearGradient5443"
     inkscape:collect="always" /><radialGradient
     r="333.18735"
     fy="710.99164"
     fx="373.24265"
     cy="710.99164"
     cx="373.24265"
     gradientTransform="matrix(0.86272608,1.0667183e-7,-5.1097115e-8,0.31434,772.90338,992.7076)"
     gradientUnits="userSpaceOnUse"
     id="radialGradient3722"
     xlink:href="#linearGradient5443"
     inkscape:collect="always" /><radialGradient
     r="333.18735"
     fy="467.91885"
     fx="373.24265"
     cy="467.91885"
     cx="373.24265"
     gradientTransform="matrix(0.83535071,2.5391117e-7,-2.4564601e-7,0.80815889,783.12101,707.99698)"
     gradientUnits="userSpaceOnUse"
     id="radialGradient3718"
     xlink:href="#linearGradient5443"
     inkscape:collect="always" /><radialGradient
     r="333.18735"
     fy="467.91885"
     fx="373.24265"
     cy="467.91885"
     cx="373.24265"
     gradientTransform="matrix(0.9201975,2.7970099e-7,-2.7059634e-7,0.8902438,-163.70313,61.921561)"
     gradientUnits="userSpaceOnUse"
     id="radialGradient3703"
     xlink:href="#linearGradient5443"
     inkscape:collect="always" /><linearGradient
     y2="254.73526"
     x2="123.47623"
     y1="344.03848"
     x1="123.50603"
     gradientTransform="matrix(2.3189708,0,0,2.0930998,-99.17808,-231.54972)"
     gradientUnits="userSpaceOnUse"
     id="linearGradient3701"
     xlink:href="#linearGradient3187"
     inkscape:collect="always" /><radialGradient
     r="333.18735"
     fy="710.99164"
     fx="373.24265"
     cy="710.99164"
     cx="373.24265"
     gradientTransform="matrix(0.9503534,1.1750652e-7,-5.6287062e-8,0.3462676,-174.95857,375.55031)"
     gradientUnits="userSpaceOnUse"
     id="radialGradient3699"
     xlink:href="#linearGradient5443"
     inkscape:collect="always" /><radialGradient
     r="333.18735"
     fy="467.91885"
     fx="373.24265"
     cy="467.91885"
     cx="373.24265"
     gradientTransform="matrix(0.9201975,2.7970099e-7,-2.7059634e-7,0.8902438,-163.70313,61.921561)"
     gradientUnits="userSpaceOnUse"
     id="radialGradient3680"
     xlink:href="#linearGradient5443"
     inkscape:collect="always" /><linearGradient
     y2="254.73526"
     x2="123.47623"
     y1="344.03848"
     x1="123.50603"
     gradientTransform="matrix(2.3189708,0,0,2.0930998,-99.17808,-231.54972)"
     gradientUnits="userSpaceOnUse"
     id="linearGradient3678"
     xlink:href="#linearGradient3187"
     inkscape:collect="always" /><radialGradient
     r="333.18735"
     fy="710.99164"
     fx="373.24265"
     cy="710.99164"
     cx="373.24265"
     gradientTransform="matrix(0.9503534,1.1750652e-7,-5.6287062e-8,0.3462676,-174.95857,375.55031)"
     gradientUnits="userSpaceOnUse"
     id="radialGradient3676"
     xlink:href="#linearGradient5443"
     inkscape:collect="always" /><radialGradient
     r="333.18735"
     fy="467.91885"
     fx="373.24265"
     cy="467.91885"
     cx="373.24265"
     gradientTransform="matrix(0.9201975,2.7970099e-7,-2.7059634e-7,0.8902438,-163.70313,61.921561)"
     gradientUnits="userSpaceOnUse"
     id="radialGradient3654"
     xlink:href="#linearGradient5443"
     inkscape:collect="always" /><linearGradient
     y2="254.73526"
     x2="123.47623"
     y1="344.03848"
     x1="123.50603"
     gradientTransform="matrix(2.3189708,0,0,2.0930998,-99.17808,-231.54972)"
     gradientUnits="userSpaceOnUse"
     id="linearGradient3652"
     xlink:href="#linearGradient3187"
     inkscape:collect="always" /><radialGradient
     r="333.18735"
     fy="710.99164"
     fx="373.24265"
     cy="710.99164"
     cx="373.24265"
     gradientTransform="matrix(0.9503534,1.1750652e-7,-5.6287062e-8,0.3462676,-174.95857,375.55031)"
     gradientUnits="userSpaceOnUse"
     id="radialGradient3650"
     xlink:href="#linearGradient5443"
     inkscape:collect="always" /><radialGradient
     r="333.18735"
     fy="467.91885"
     fx="373.24265"
     cy="467.91885"
     cx="373.24265"
     gradientTransform="matrix(0.9201975,2.7970099e-7,-2.7059634e-7,0.8902438,-163.70313,61.921561)"
     gradientUnits="userSpaceOnUse"
     id="radialGradient3627"
     xlink:href="#linearGradient5443"
     inkscape:collect="always" /><linearGradient
     y2="254.73526"
     x2="123.47623"
     y1="344.03848"
     x1="123.50603"
     gradientTransform="matrix(2.3189708,0,0,2.0930998,-99.17808,-231.54972)"
     gradientUnits="userSpaceOnUse"
     id="linearGradient3625"
     xlink:href="#linearGradient3187"
     inkscape:collect="always" /><radialGradient
     r="333.18735"
     fy="710.99164"
     fx="373.24265"
     cy="710.99164"
     cx="373.24265"
     gradientTransform="matrix(0.9503534,1.1750652e-7,-5.6287062e-8,0.3462676,-174.95857,375.55031)"
     gradientUnits="userSpaceOnUse"
     id="radialGradient3623"
     xlink:href="#linearGradient5443"
     inkscape:collect="always" /><radialGradient
     r="333.18735"
     fy="467.91885"
     fx="373.24265"
     cy="467.91885"
     cx="373.24265"
     gradientTransform="matrix(0.9201975,2.7970099e-7,-2.7059634e-7,0.8902438,-163.70313,61.921561)"
     gradientUnits="userSpaceOnUse"
     id="radialGradient3599"
     xlink:href="#linearGradient5443"
     inkscape:collect="always" /><linearGradient
     y2="254.73526"
     x2="123.47623"
     y1="344.03848"
     x1="123.50603"
     gradientTransform="matrix(2.3189708,0,0,2.0930998,-99.17808,-231.54972)"
     gradientUnits="userSpaceOnUse"
     id="linearGradient3597"
     xlink:href="#linearGradient3187"
     inkscape:collect="always" /><radialGradient
     r="333.18735"
     fy="710.99164"
     fx="373.24265"
     cy="710.99164"
     cx="373.24265"
     gradientTransform="matrix(0.9503534,1.1750652e-7,-5.6287062e-8,0.3462676,-174.95857,375.55031)"
     gradientUnits="userSpaceOnUse"
     id="radialGradient3595"
     xlink:href="#linearGradient5443"
     inkscape:collect="always" /><radialGradient
     r="333.18735"
     fy="467.91885"
     fx="373.24265"
     cy="467.91885"
     cx="373.24265"
     gradientTransform="matrix(0.9201975,2.7970099e-7,-2.7059634e-7,0.8902438,-163.70313,61.921561)"
     gradientUnits="userSpaceOnUse"
     id="radialGradient3525"
     xlink:href="#linearGradient5443"
     inkscape:collect="always" /><linearGradient
     y2="254.73526"
     x2="123.47623"
     y1="344.03848"
     x1="123.50603"
     gradientTransform="matrix(2.3189708,0,0,2.0930998,-99.17808,-231.54972)"
     gradientUnits="userSpaceOnUse"
     id="linearGradient3523"
     xlink:href="#linearGradient3187"
     inkscape:collect="always" /><radialGradient
     r="333.18735"
     fy="710.99164"
     fx="373.24265"
     cy="710.99164"
     cx="373.24265"
     gradientTransform="matrix(0.9503534,1.1750652e-7,-5.6287062e-8,0.3462676,-174.95857,375.55031)"
     gradientUnits="userSpaceOnUse"
     id="radialGradient3521"
     xlink:href="#linearGradient5443"
     inkscape:collect="always" /><radialGradient
     r="333.18735"
     fy="467.91885"
     fx="373.24265"
     cy="467.91885"
     cx="373.24265"
     gradientTransform="matrix(0.9201975,2.7970099e-7,-2.7059634e-7,0.8902438,-163.70313,61.921561)"
     gradientUnits="userSpaceOnUse"
     id="radialGradient3497"
     xlink:href="#linearGradient5443"
     inkscape:collect="always" /><linearGradient
     y2="254.73526"
     x2="123.47623"
     y1="344.03848"
     x1="123.50603"
     gradientTransform="matrix(2.3189708,0,0,2.0930998,-99.17808,-231.54972)"
     gradientUnits="userSpaceOnUse"
     id="linearGradient3495"
     xlink:href="#linearGradient3187"
     inkscape:collect="always" /><radialGradient
     r="333.18735"
     fy="710.99164"
     fx="373.24265"
     cy="710.99164"
     cx="373.24265"
     gradientTransform="matrix(0.9503534,1.1750652e-7,-5.6287062e-8,0.3462676,-174.95857,375.55031)"
     gradientUnits="userSpaceOnUse"
     id="radialGradient3493"
     xlink:href="#linearGradient5443"
     inkscape:collect="always" /><linearGradient
     id="linearGradient5443"><stop
       id="stop5445"
       offset="0"
       style="stop-color:#ffffff;stop-opacity:0;" /><stop
       id="stop5447"
       offset="1"
       style="stop-color:#000000;stop-opacity:0.33962265;" /></linearGradient><linearGradient
     id="linearGradient3157"><stop
       style="stop-color:#49bcff;stop-opacity:1;"
       offset="0"
       id="stop3159" /><stop
       style="stop-color:#494c96;stop-opacity:1;"
       offset="1"
       id="stop3161" /></linearGradient><linearGradient
     id="linearGradient3171"><stop
       id="stop3173"
       offset="0"
       style="stop-color:#49bcff;stop-opacity:1;" /><stop
       id="stop3175"
       offset="1"
       style="stop-color:#494cdc;stop-opacity:1;" /></linearGradient><linearGradient
     id="linearGradient3187"><stop
       style="stop-color:#ffffff;stop-opacity:0.39622641;"
       offset="0"
       id="stop3189" /><stop
       style="stop-color:#000000;stop-opacity:1;"
       offset="1"
       id="stop3191" /></linearGradient><linearGradient
     id="linearGradient4395"><stop
       style="stop-color:#110084;stop-opacity:1;"
       offset="0"
       id="stop4397" /><stop
       style="stop-color:#a695ff;stop-opacity:1;"
       offset="1"
       id="stop4399" /></linearGradient><linearGradient
     id="linearGradient4383"><stop
       style="stop-color:#00037f;stop-opacity:1;"
       offset="0"
       id="stop4385" /><stop
       style="stop-color:#00037f;stop-opacity:0;"
       offset="1"
       id="stop4387" /></linearGradient><inkscape:perspective
     sodipodi:type="inkscape:persp3d"
     inkscape:vp_x="0 : 526.18109 : 1"
     inkscape:vp_y="0 : 1000 : 0"
     inkscape:vp_z="744.09448 : 526.18109 : 1"
     inkscape:persp3d-origin="372.04724 : 350.78739 : 1"
     id="perspective3214" /><linearGradient
     inkscape:collect="always"
     xlink:href="#linearGradient4383"
     id="linearGradient4389"
     x1="371.42194"
     y1="298.59412"
     x2="396.91168"
     y2="655.4505"
     gradientUnits="userSpaceOnUse" /><linearGradient
     inkscape:collect="always"
     xlink:href="#linearGradient4395"
     id="linearGradient4401"
     x1="360.49777"
     y1="167.50403"
     x2="360.49777"
     y2="540.86719"
     gradientUnits="userSpaceOnUse" /><linearGradient
     inkscape:collect="always"
     xlink:href="#linearGradient3187"
     id="linearGradient4562"
     gradientUnits="userSpaceOnUse"
     gradientTransform="matrix(2.3189708,0,0,2.0930998,93.115298,-256.84999)"
     x1="123.50603"
     y1="344.03848"
     x2="123.47623"
     y2="254.73526" /><radialGradient
     inkscape:collect="always"
     xlink:href="#linearGradient3171"
     id="radialGradient4569"
     gradientUnits="userSpaceOnUse"
     gradientTransform="matrix(0.9201975,2.7970099e-7,-2.7059634e-7,0.8902438,28.590287,48.634335)"
     cx="373.24265"
     cy="467.91885"
     fx="373.24265"
     fy="467.91885"
     r="333.18735" /><radialGradient
     inkscape:collect="always"
     xlink:href="#linearGradient3157"
     id="radialGradient4572"
     gradientUnits="userSpaceOnUse"
     gradientTransform="matrix(0.9503534,1.1750652e-7,-5.6287062e-8,0.3462676,17.334826,362.44227)"
     cx="373.24265"
     cy="710.99164"
     fx="373.24265"
     fy="710.99164"
     r="333.18735" /><filter
     inkscape:collect="always"
     id="filter4659"
     color-interpolation-filters="sRGB"><feGaussianBlur
       inkscape:collect="always"
       stdDeviation="2.7750933"
       id="feGaussianBlur4661" /></filter><radialGradient
     inkscape:collect="always"
     xlink:href="#linearGradient3157"
     id="radialGradient4766"
     gradientUnits="userSpaceOnUse"
     gradientTransform="matrix(0.9503534,1.1750652e-7,-5.6287062e-8,0.3462676,17.334826,362.44227)"
     cx="373.24265"
     cy="710.99164"
     fx="373.24265"
     fy="710.99164"
     r="333.18735" /><radialGradient
     inkscape:collect="always"
     xlink:href="#linearGradient3171"
     id="radialGradient4768"
     gradientUnits="userSpaceOnUse"
     gradientTransform="matrix(0.9201975,2.7970099e-7,-2.7059634e-7,0.8902438,28.590287,48.634335)"
     cx="373.24265"
     cy="467.91885"
     fx="373.24265"
     fy="467.91885"
     r="333.18735" /><linearGradient
     inkscape:collect="always"
     xlink:href="#linearGradient3187"
     id="linearGradient4770"
     gradientUnits="userSpaceOnUse"
     gradientTransform="matrix(2.3189708,0,0,2.0930998,93.115298,-256.84999)"
     x1="123.50603"
     y1="344.03848"
     x2="123.47623"
     y2="254.73526" /><linearGradient
     inkscape:collect="always"
     xlink:href="#linearGradient3187"
     id="linearGradient4773"
     gradientUnits="userSpaceOnUse"
     gradientTransform="matrix(2.3189708,0,0,2.0930998,93.115298,-256.84999)"
     x1="123.50603"
     y1="344.03848"
     x2="123.47623"
     y2="254.73526" /><radialGradient
     inkscape:collect="always"
     xlink:href="#linearGradient3171"
     id="radialGradient4776"
     gradientUnits="userSpaceOnUse"
     gradientTransform="matrix(0.9201975,2.7970099e-7,-2.7059634e-7,0.8902438,28.590287,48.634335)"
     cx="373.24265"
     cy="467.91885"
     fx="373.24265"
     fy="467.91885"
     r="333.18735" /><radialGradient
     inkscape:collect="always"
     xlink:href="#linearGradient3157"
     id="radialGradient4779"
     gradientUnits="userSpaceOnUse"
     gradientTransform="matrix(0.9503534,1.1750652e-7,-5.6287062e-8,0.3462676,17.334826,362.44227)"
     cx="373.24265"
     cy="710.99164"
     fx="373.24265"
     fy="710.99164"
     r="333.18735" /><radialGradient
     inkscape:collect="always"
     xlink:href="#linearGradient3157"
     id="radialGradient4790"
     gradientUnits="userSpaceOnUse"
     gradientTransform="matrix(0.9503534,1.1750652e-7,-5.6287062e-8,0.3462676,17.334826,362.44227)"
     cx="373.24265"
     cy="710.99164"
     fx="373.24265"
     fy="710.99164"
     r="333.18735" /><radialGradient
     inkscape:collect="always"
     xlink:href="#linearGradient3171"
     id="radialGradient4792"
     gradientUnits="userSpaceOnUse"
     gradientTransform="matrix(0.9201975,2.7970099e-7,-2.7059634e-7,0.8902438,28.590287,48.634335)"
     cx="373.24265"
     cy="467.91885"
     fx="373.24265"
     fy="467.91885"
     r="333.18735" /><linearGradient
     inkscape:collect="always"
     xlink:href="#linearGradient3187"
     id="linearGradient4794"
     gradientUnits="userSpaceOnUse"
     gradientTransform="matrix(2.3189708,0,0,2.0930998,93.115298,-256.84999)"
     x1="123.50603"
     y1="344.03848"
     x2="123.47623"
     y2="254.73526" /><linearGradient
     inkscape:collect="always"
     xlink:href="#linearGradient3187"
     id="linearGradient4799"
     gradientUnits="userSpaceOnUse"
     gradientTransform="matrix(2.3189708,0,0,2.0930998,93.115298,-256.84999)"
     x1="123.50603"
     y1="344.03848"
     x2="123.47623"
     y2="254.73526" /><radialGradient
     inkscape:collect="always"
     xlink:href="#linearGradient3171"
     id="radialGradient4802"
     gradientUnits="userSpaceOnUse"
     gradientTransform="matrix(0.9201975,2.7970099e-7,-2.7059634e-7,0.8902438,28.590287,48.634335)"
     cx="373.24265"
     cy="467.91885"
     fx="373.24265"
     fy="467.91885"
     r="333.18735" /><radialGradient
     inkscape:collect="always"
     xlink:href="#linearGradient3157"
     id="radialGradient4805"
     gradientUnits="userSpaceOnUse"
     gradientTransform="matrix(0.9503534,1.1750652e-7,-5.6287062e-8,0.3462676,17.334826,362.44227)"
     cx="373.24265"
     cy="710.99164"
     fx="373.24265"
     fy="710.99164"
     r="333.18735" /><radialGradient
     inkscape:collect="always"
     xlink:href="#linearGradient3157"
     id="radialGradient4820"
     gradientUnits="userSpaceOnUse"
     gradientTransform="matrix(0.9503534,1.1750652e-7,-5.6287062e-8,0.3462676,17.334826,362.44227)"
     cx="373.24265"
     cy="710.99164"
     fx="373.24265"
     fy="710.99164"
     r="333.18735" /><radialGradient
     inkscape:collect="always"
     xlink:href="#linearGradient3171"
     id="radialGradient4822"
     gradientUnits="userSpaceOnUse"
     gradientTransform="matrix(0.9201975,2.7970099e-7,-2.7059634e-7,0.8902438,28.590287,48.634335)"
     cx="373.24265"
     cy="467.91885"
     fx="373.24265"
     fy="467.91885"
     r="333.18735" /><linearGradient
     inkscape:collect="always"
     xlink:href="#linearGradient3187"
     id="linearGradient4824"
     gradientUnits="userSpaceOnUse"
     gradientTransform="matrix(2.3189708,0,0,2.0930998,93.115298,-256.84999)"
     x1="123.50603"
     y1="344.03848"
     x2="123.47623"
     y2="254.73526" /><linearGradient
     inkscape:collect="always"
     xlink:href="#linearGradient3187"
     id="linearGradient4827"
     gradientUnits="userSpaceOnUse"
     gradientTransform="matrix(2.3189708,0,0,2.0930998,-99.17808,-231.54972)"
     x1="123.50603"
     y1="344.03848"
     x2="123.47623"
     y2="254.73526" /><radialGradient
     inkscape:collect="always"
     xlink:href="#linearGradient5443"
     id="radialGradient4832"
     gradientUnits="userSpaceOnUse"
     gradientTransform="matrix(0.9201975,2.7970099e-7,-2.7059634e-7,0.8902438,-163.70313,61.921561)"
     cx="373.24265"
     cy="467.91885"
     fx="373.24265"
     fy="467.91885"
     r="333.18735" /><radialGradient
     inkscape:collect="always"
     xlink:href="#linearGradient5443"
     id="radialGradient4835"
     gradientUnits="userSpaceOnUse"
     gradientTransform="matrix(0.9503534,1.1750652e-7,-5.6287062e-8,0.3462676,-174.95857,375.55031)"
     cx="373.24265"
     cy="710.99164"
     fx="373.24265"
     fy="710.99164"
     r="333.18735" /><filter
     inkscape:collect="always"
     id="filter5511"
     color-interpolation-filters="sRGB"><feGaussianBlur
       inkscape:collect="always"
       stdDeviation="3.2374974"
       id="feGaussianBlur5513" /></filter><radialGradient
     inkscape:collect="always"
     xlink:href="#linearGradient5443-5"
     id="radialGradient4835-3"
     gradientUnits="userSpaceOnUse"
     gradientTransform="matrix(0.9503534,1.1750652e-7,-5.6287062e-8,0.3462676,317.80591,185.68771)"
     cx="373.24265"
     cy="710.99164"
     fx="373.24265"
     fy="710.99164"
     r="333.18735" /><linearGradient
     id="linearGradient5443-5"><stop
       id="stop5445-4"
       offset="0"
       style="stop-color:#ffffff;stop-opacity:0;" /><stop
       id="stop5447-3"
       offset="1"
       style="stop-color:#000000;stop-opacity:0.33962265;" /></linearGradient><radialGradient
     inkscape:collect="always"
     xlink:href="#linearGradient5443"
     id="radialGradient3272"
     gradientUnits="userSpaceOnUse"
     gradientTransform="matrix(0.9503534,1.1750652e-7,-5.6287062e-8,0.3462676,-174.95857,375.55031)"
     cx="373.24265"
     cy="710.99164"
     fx="373.24265"
     fy="710.99164"
     r="333.18735" /><linearGradient
     inkscape:collect="always"
     xlink:href="#linearGradient3187"
     id="linearGradient3274"
     gradientUnits="userSpaceOnUse"
     gradientTransform="matrix(2.3189708,0,0,2.0930998,-99.17808,-231.54972)"
     x1="123.50603"
     y1="344.03848"
     x2="123.47623"
     y2="254.73526" /><radialGradient
     inkscape:collect="always"
     xlink:href="#linearGradient5443"
     id="radialGradient3276"
     gradientUnits="userSpaceOnUse"
     gradientTransform="matrix(0.9201975,2.7970099e-7,-2.7059634e-7,0.8902438,-163.70313,61.921561)"
     cx="373.24265"
     cy="467.91885"
     fx="373.24265"
     fy="467.91885"
     r="333.18735" /><radialGradient
     inkscape:collect="always"
     xlink:href="#linearGradient5443"
     id="radialGradient3504"
     gradientUnits="userSpaceOnUse"
     gradientTransform="matrix(0.86272608,1.0667183e-7,-5.1097115e-8,0.31434,772.90338,992.7076)"
     cx="373.24265"
     cy="710.99164"
     fx="373.24265"
     fy="710.99164"
     r="333.18735" /><linearGradient
     inkscape:collect="always"
     xlink:href="#linearGradient3187"
     id="linearGradient3506"
     gradientUnits="userSpaceOnUse"
     gradientTransform="matrix(2.3189708,0,0,2.0930998,-99.17808,-231.54972)"
     x1="123.50603"
     y1="344.03848"
     x2="123.47623"
     y2="254.73526" /><radialGradient
     inkscape:collect="always"
     xlink:href="#linearGradient5443"
     id="radialGradient3508"
     gradientUnits="userSpaceOnUse"
     gradientTransform="matrix(0.83535071,2.5391117e-7,-2.4564601e-7,0.80815889,783.12101,707.99698)"
     cx="373.24265"
     cy="467.91885"
     fx="373.24265"
     fy="467.91885"
     r="333.18735" /></defs><sodipodi:namedview
   pagecolor="#ffffff"
   bordercolor="#666666"
   borderopacity="1"
   objecttolerance="10"
   gridtolerance="10"
   guidetolerance="10"
   inkscape:pageopacity="0"
   inkscape:pageshadow="2"
   inkscape:window-width="1920"
   inkscape:window-height="1071"
   id="namedview189"
   showgrid="false"
   inkscape:zoom="1.1919192"
   inkscape:cx="469.8365"
   inkscape:cy="47.283588"
   inkscape:window-x="0"
   inkscape:window-y="0"
   inkscape:window-maximized="1"
   inkscape:current-layer="_x31_"
   fit-margin-top="0"
   fit-margin-left="0"
   fit-margin-right="0"
   fit-margin-bottom="0" />



<g
   id="LWPOLYLINE_3_"
   style="fill:#000000;fill-opacity:1;stroke:none"
   transform="translate(281.55085,-127.03391)">
	
		
</g>


























































<g
   id="g3725"
   transform="translate(-919.90955,-911.15)"><rect
     inkscape:export-ydpi="29.879425"
     inkscape:export-xdpi="29.879425"
     inkscape:export-filename="C:\Documents and Settings\adscro24\Desktop\128.png"
     style="opacity:0.61338286;fill:#464646;fill-opacity:0.78540775;stroke:none;filter:url(#filter4659)"
     id="rect3279"
     width="152.93848"
     height="152.93848"
     x="135.39355"
     y="48.636749"
     rx="16.067965"
     ry="12.45238"
     transform="matrix(2.1051501,0,0,2.1051501,648.90657,822.78311)" /><rect
     inkscape:export-ydpi="29.879425"
     inkscape:export-xdpi="29.879425"
     inkscape:export-filename="C:\Documents and Settings\adscro24\Desktop\128.png"
     style="opacity:0.61338286;fill:url(#radialGradient3504);fill-opacity:1;stroke:#000000;stroke-width:3.26806188;stroke-miterlimit:4;stroke-opacity:1;stroke-dasharray:none"
     id="rect3155"
     width="321.95847"
     height="321.95847"
     x="933.9303"
     y="925.17072"
     rx="33.825481"
     ry="26.21413" /><path
     transform="matrix(0.90779502,0,0,0.90779502,931.7299,651.7849)"
     inkscape:export-ydpi="29.879425"
     inkscape:export-xdpi="29.879425"
     inkscape:export-filename="C:\Documents and Settings\adscro24\Desktop\128.png"
     inkscape:connector-curvature="0"
     style="opacity:0.61338286;fill:url(#linearGradient3506);fill-opacity:1;stroke:none;filter:url(#filter5511)"
     d="m 46.58172,323.34879 c -19.62748,0 -35.44272,12.0976 -35.44272,27.14163 l 0,124.30857 c 29.25482,11.38638 132.70149,11.89599 165.40488,-5.79022 33.32802,-18.02397 127.54379,-68.44264 171.82484,-52.72052 l 0,-65.79783 c 0,-15.04403 -15.7986,-27.14163 -35.4261,-27.14163 l -266.3609,0 z M 11.139,586.81982 l 0,42.88373 c 0,1.33144 0.14331,2.63588 0.38253,3.915 -0.11919,-12.81092 -0.25965,-28.88939 -0.38253,-46.79873 z"
     id="rect3177" /><rect
     inkscape:export-ydpi="29.879425"
     inkscape:export-xdpi="29.879425"
     inkscape:export-filename="C:\Documents and Settings\adscro24\Desktop\128.png"
     style="opacity:0.61338286;fill:url(#radialGradient3508);fill-opacity:1;stroke:#ffffff;stroke-width:0.68992418;stroke-linecap:square;stroke-miterlimit:4;stroke-opacity:1;stroke-dasharray:none"
     id="rect3473"
     width="306.12445"
     height="306.12445"
     x="941.84735"
     y="933.08777"
     rx="32.161926"
     ry="24.924913" /><rect
     inkscape:export-ydpi="29.879425"
     inkscape:export-xdpi="29.879425"
     inkscape:export-filename="C:\Documents and Settings\adscro24\Desktop\128.png"
     style="opacity:0.61338286;fill:#ffffff;fill-opacity:0;stroke:#000000;stroke-width:3.26806188;stroke-miterlimit:4;stroke-opacity:1;stroke-dasharray:none"
     id="rect3155-2"
     width="321.95847"
     height="321.95847"
     x="933.9303"
     y="925.17072"
     rx="33.825481"
     ry="26.21413" /></g><g
   id="LWPOLYLINE_2_-8"
   style="fill:#000000;fill-opacity:1;stroke:none"
   transform="translate(400.39145,135.8211)">
	
		
</g><g
   id="g3057"
   transform="matrix(0.50337557,0,0,0.50337557,20.963296,-25.182126)"><g
     transform="matrix(0.61238983,0,0,0.61238983,124.1809,55.599934)"
     id="g3338"><g
       id="LINE_22_-39">
	
		
</g><g
       id="LINE_19_-8"
       transform="translate(0,5.817545)">
	
		
</g><g
       id="LINE_20_-6"
       transform="translate(0,5.817545)">
	
		
</g><g
       id="LINE_21_-5"
       transform="translate(0,5.817545)">
	
		
</g><g
       id="LINE_24_-7"
       transform="translate(0,5.817545)">
	
		
</g><g
       id="LINE_25_-6"
       transform="translate(0,5.817545)">
	
		
</g><g
       id="LINE_26_-2"
       transform="translate(0,5.817545)">
	
		
</g><g
       id="LINE_27_-7"
       transform="translate(0,5.817545)">
	
		
</g><g
       id="LINE_28_-0"
       transform="translate(0,5.817545)">
	
		
</g><g
       id="g7296"
       transform="translate(0,1.4543991)"><g
         style="fill:#000000;fill-opacity:1;stroke:none"
         transform="matrix(1.0836102,0,0,1.0836102,-22.135893,-27.277612)"
         id="LINE_23_-3">
	
		<path
   sodipodi:nodetypes="ccccccccccc"
   id="line118-9"
   d="M 103.3485,460.55349 122.3535,440.31351 233.092,549.77002 385.008,397.914 233.092,246 122.3535,355.50101 102.715,335.22951 233.092,204.25 426.78699,395.00523 233.092,587.40324 z"
   style="fill:#000000;fill-opacity:1;stroke:none"
   inkscape:connector-curvature="0" />
</g><g
         transform="translate(-0.0106951,8.1292637)"
         style="fill:#000000;fill-opacity:1;stroke:none"
         id="LWPOLYLINE_7_-0">
	
		<path
   id="polyline85-3"
   d="m 228.90625,261.1875 c -6.28931,-0.10731 -12.5371,2.06237 -17.1875,7.0625 -3.41366,3.6329 -5.49187,8.33735 -6.46875,13.1875 l -2.53125,6.34375 c -13.9968,-0.62873 -26.5196,11.21906 -26.3125,25.3125 l -0.28125,10.125 c -14.15978,-0.66194 -27.63545,10.76942 -27.65625,26.59375 -0.17,32.06617 -0.15625,62.85659 -0.15625,93.65625 -0.81169,47.61268 46.31592,89.32503 93.5625,81.40625 39.28634,-5.48371 72.39949,-41.2824 72.25,-81.40625 0,-26.998 -0.008,-53.99299 -0.65625,-81.625 -1.27296,-3.20997 -2.18176,-5.83859 -3.9375,-7.875 -8.82152,-7.85674 -20.02984,2.80732 -27.0625,5.96875 l 0,-46.84375 c 0.13568,-14.68694 -13.63034,-25.96683 -27.84375,-25.3125 l 0,-5.0625 c -1.56174,-12.83193 -13.71189,-21.32639 -25.71875,-21.53125 z m 1.125,26 c 2.79003,-0.0718 5.5859,2.6751 5.59375,8.1875 0.0155,37.12434 0.002,74.25067 0.125,111.375 0.86006,6.35007 13.0152,6.3486 13.8125,0.0312 -0.002,-31.252 -0.0143,-62.45925 0.15625,-93.09375 -0.27509,-9.47195 11.23981,-9.45508 11.1875,0.65625 0.016,37.55667 0.0325,75.13084 0.0625,112.6875 0.80916,8.9255 14.34511,8.83066 15.125,0 -5e-4,-11.39233 0.61044,-24.61036 0.75,-34.65625 2.31274,-11.85843 8.27098,-13.28738 16.0625,-13.71875 1.58427,1.19492 1.04093,3.62861 0.9375,4.6875 -9.9e-4,19.61783 10e-6,39.87367 0,60.125 0.15901,25.94241 -17.42596,50.43187 -41.5625,59.5 -38.62623,15.73725 -84.4378,-18.72636 -83.75,-59.5 0,-30.79966 -2.5e-4,-61.59258 0.0312,-92.40625 -0.86331,-9.34654 13.28447,-9.29096 12.46875,0 0.17,18.56266 0.1875,37.13259 0.1875,56.34375 3.23595,6.55118 10.89899,4.4928 13.90625,-0.59375 0.0165,-30.86015 0.0312,-61.67034 0.0312,-92.5625 l 0,-4.4375 c 1.5744,-7.71726 12.84327,-3.58225 12.625,3.90625 l 0,93.03125 c 1.3386,6.43526 14.79729,6.41619 16.09375,0 l 0.375,0 c 0,-36.702 7.5e-4,-73.38524 0.15625,-110.84375 0.0341,-5.73549 2.83497,-8.6469 5.625,-8.71875 z"
   style="fill:#000000;fill-opacity:1;stroke:none"
   inkscape:connector-curvature="0" />
</g></g><g
       id="LINE-9"
       transform="translate(576.25589,334.30194)">
	
		
</g><g
       id="LINE_1_-1"
       transform="translate(576.25589,334.30194)">
	
		
</g><g
       id="LINE_2_-7"
       transform="translate(576.25589,334.30194)">
	
		
</g><g
       id="LINE_3_-2"
       transform="translate(576.25589,334.30194)">
	
		
</g><g
       id="LINE_4_-3"
       transform="translate(576.25589,334.30194)">
	
		
</g><g
       id="LINE_5_-6"
       style="fill:#000000;fill-opacity:1;stroke:none"
       transform="translate(-5.9983476,7.09855)">
	
		<path
   style="fill:#000000;fill-opacity:1;stroke:none"
   d="m 467.45149,183.979 c 0,141.33633 0,282.67265 0,424.00898 -141.33733,0 -282.67466,0 -424.011992,0 0,12.67067 0,25.34135 0,38.01202 150.628332,0 301.256672,0 451.885002,0 22.35301,-82.69533 44.70601,-165.39067 67.05902,-248.086 C 540.03051,313.94267 517.67751,229.97133 495.3245,146 c -150.62833,0 -301.25667,0 -451.885002,0 0,12.65967 0,25.31933 0,37.979 141.337332,0 282.674662,0 424.011992,0 z"
   id="line19"
   inkscape:connector-curvature="0" />
</g><g
       id="LINE_6_-5"
       transform="translate(576.25589,334.30194)">
	
		
</g><g
       id="LINE_7_-5"
       transform="translate(576.25589,334.30194)">
	
		
</g><g
       id="LINE_8_-8"
       transform="translate(576.25589,334.30194)">
	
		
</g><g
       id="LINE_9_-1"
       transform="translate(576.25589,334.30194)">
	
		
</g><g
       id="LINE_10_-4"
       transform="translate(576.25589,334.30194)">
	
		
</g><g
       id="LWPOLYLINE-7"
       transform="translate(576.25589,334.30194)">
	
		
</g><g
       id="LINE_11_-1"
       transform="translate(576.25589,334.30194)">
	
		
</g><g
       id="ARC"
       transform="translate(576.25589,334.30194)">
	
		
</g><g
       id="LINE_12_-3"
       transform="translate(576.25589,334.30194)">
	
		
</g><g
       id="LINE_13_-8"
       transform="translate(576.25589,334.30194)">
	
		
</g><g
       id="LWPOLYLINE_1_-4"
       transform="translate(576.25589,334.30194)">
	
		
</g><g
       id="LINE_14_-8"
       transform="translate(576.25589,334.30194)">
	
		
</g><g
       id="LWPOLYLINE_2_-0"
       transform="translate(576.25589,334.30194)">
	
		
</g><g
       id="LINE_15_-4"
       transform="translate(576.25589,334.30194)">
	
		
</g><g
       id="LWPOLYLINE_3_-6"
       transform="translate(576.25589,334.30194)">
	
		
</g><g
       id="LINE_16_-0"
       transform="translate(576.25589,334.30194)">
	
		
</g><g
       id="LWPOLYLINE_4_-3"
       transform="translate(576.25589,334.30194)">
	
		
</g><g
       id="LINE_17_-2"
       transform="translate(576.25589,334.30194)">
	
		
</g><g
       id="LINE_18_-6"
       transform="translate(576.25589,334.30194)">
	
		
</g><g
       id="LWPOLYLINE_5_-9"
       transform="translate(576.25589,334.30194)">
	
		
</g><g
       id="LWPOLYLINE_6_-4"
       transform="translate(576.25589,334.30194)">
	
		
</g><g
       id="LINE_20_-1"
       transform="translate(576.25589,334.30194)">
	
		
</g><g
       id="LINE_22_-3"
       transform="translate(576.25589,334.30194)">
	
		
</g><g
       id="LINE_23_-7"
       transform="translate(576.25589,334.30194)">
	
		
</g><g
       id="LINE_28_-8"
       transform="translate(576.25589,334.30194)">
	
		
</g><g
       id="LINE_29_-8"
       transform="translate(576.25589,334.30194)">
	
		
</g><g
       id="LINE_31_-3"
       transform="translate(576.25589,334.30194)">
	
		
</g><g
       id="LINE_32_-8"
       transform="translate(576.25589,334.30194)">
	
		
</g><g
       id="LINE_33_-1"
       transform="translate(576.25589,334.30194)">
	
		
</g><g
       id="LINE_34_-5"
       transform="translate(576.25589,334.30194)">
	
		
</g><g
       id="LINE_35_-3"
       transform="translate(576.25589,334.30194)">
	
		
</g><g
       id="LWPOLYLINE_8_-5"
       transform="translate(576.25589,334.30194)">
	
		
</g><g
       id="LWPOLYLINE_9_-4"
       transform="translate(576.25589,334.30194)">
	
		
</g><g
       id="LWPOLYLINE_10_-3"
       transform="translate(576.25589,334.30194)">
	
		
</g><g
       id="LWPOLYLINE_11_-6"
       transform="translate(576.25589,334.30194)">
	
		
</g><g
       id="LWPOLYLINE_12_-5"
       transform="translate(576.25589,334.30194)">
	
		
</g><g
       id="LWPOLYLINE_13_-9"
       transform="translate(576.25589,334.30194)">
	
		
</g><g
       id="LWPOLYLINE_14_-5"
       transform="translate(576.25589,334.30194)">
	
		
</g></g><g
     id="g4168"><g
       id="LWPOLYLINE_2_"
       style="fill:#000000;fill-opacity:1;stroke:none">
	
		<path
   style="fill:#000000;fill-opacity:1;stroke:none"
   d="M 214.96875,541.5625 C 214.84475,541.5625 183,644.21875 183,644.21875 l 0.375,0 0.40625,0 0.28125,0 0.28125,0 0.34375,0 0.375,0 0.375,0 0.40625,0 0.4375,0 0.4375,0 0.46875,0 0.46875,0 0.46875,0 0.5,0 0.5,0 0.5,0 0.5,0 0.5,0 0.46875,0 0.5,0 0.46875,0 0.46875,0 0.4375,0 0.40625,0 0.4375,0 0.375,0 0.375,0 0.3125,0 0.3125,0 0.28125,0 0.21875,0 0.34375,0 c 0.217,0 0.25,-0.0312 0.25,-0.0312 0.043,-0.174 0.0937,-0.375 0.0937,-0.375 l 0.0937,-0.28125 0.125,-0.375 0.15625,-0.4375 0.15625,-0.53125 0.1875,-0.5625 0.21875,-0.59375 0.1875,-0.6875 0.21875,-0.75 0.28135,-0.7188 0.21875,-0.8125 0.28125,-0.84375 0.28125,-0.84375 0.28125,-0.875 0.28125,-0.90625 0.3125,-0.90625 0.3125,-0.9375 0.28125,-0.90625 0.28125,-0.96875 0.3125,-0.90625 0.28125,-0.90625 0.3125,-0.90625 0.28125,-0.875 0.28125,-0.84375 0.25,-0.84375 0.25,-0.8125 0.25,-0.78125 0.21875,-0.6875 0.21875,-0.6875 0.1875,-0.59375 0.21875,-0.5625 0.125,-0.53125 0.15625,-0.4375 0.125,-0.375 0.0937,-0.3125 c 0.065,-0.215 0.125,-0.34375 0.125,-0.34375 0.086,-0.043 0.28125,-0.0312 0.28125,-0.0312 l 0.34375,0 0.4375,0 0.5625,0 0.6875,0 0.78125,0 0.875,0 0.9375,0 1.03125,0 1.125,0 1.15625,0 1.21875,0 1.28125,0 1.3125,0 1.375,0 1.375,0 1.40625,0 1.40625,0 1.4375,0 1.40625,0 1.4375,0 1.40625,0 1.375,0 1.375,0 1.3125,0 1.28125,0 1.1875,0 1.1875,0 1.125,0 1.03125,0 0.9375,0 0.875,0 0.78125,0 0.65625,0 0.59375,0 0.4375,0 0.34375,0 0.28125,0 c 0.044,0.174 0.0937,0.375 0.0937,0.375 l 0.0937,0.3125 0.0937,0.375 0.15625,0.4375 0.125,0.53125 0.15625,0.5625 0.1875,0.59375 0.1875,0.6875 0.21875,0.6875 0.21875,0.78125 0.21875,0.8125 0.21875,0.84375 0.28125,0.84375 0.21875,0.875 0.25,0.90625 0.28125,0.90625 0.25,0.90625 0.28125,0.96875 0.25,0.90625 0.28125,0.9375 0.25,0.90625 0.25,0.90625 0.28125,0.875 0.21875,0.84375 0.25,0.84375 0.21875,0.8125 0.21875,0.71875 0.1875,0.75 0.21875,0.6875 0.15625,0.59375 0.1875,0.5625 0.15625,0.53125 0.0937,0.4375 0.0937,0.375 0.0937,0.28125 c 0.064,0.215 0.125,0.375 0.125,0.375 0.129,0.043 0.25,0.0312 0.25,0.0312 l 0.375,0 0.28125,0 0.3125,0 0.34375,0 0.375,0 0.40625,0 0.46875,0 0.4375,0 0.46875,0 0.53125,0 0.53125,0 0.53125,0 0.53125,0 0.5625,0 0.5625,0 0.5625,0 0.5625,0 0.5625,0 0.53125,0 0.5625,0 0.5625,0 0.5,0 0.5,0 0.46875,0 0.5,0 0.40625,0 0.40625,0 0.375,0 0.34375,0 0.34375,0 0.25,0 0.21875,0 0.3125,0 c 0.043,-0.217 -0.125,-0.78125 -0.125,-0.78125 l -0.28125,-0.84375 -0.40625,-1.25 L 263,639.8125 262.40625,637.96875 261.75,635.875 l -0.78125,-2.3125 -0.8125,-2.59375 -0.875,-2.8125 -0.96875,-2.96875 -0.96875,-3.125 -1.0625,-3.3125 -1.09375,-3.46875 -1.15625,-3.53125 -1.15625,-3.6875 -1.1875,-3.71875 -1.21875,-3.8125 -1.21875,-3.78125 -1.21875,-3.84375 -1.25,-3.84375 -1.1875,-3.84375 -1.21875,-3.78125 -1.1875,-3.75 -1.15625,-3.625 -1.15625,-3.59375 -1.09375,-3.40625 -1.0625,-3.34375 -1,-3.15625 -0.96875,-2.96875 -0.875,-2.78125 -0.8125,-2.5625 -0.75,-2.34375 -0.6875,-2.125 -0.5625,-1.8125 -0.5,-1.5625 -0.375,-1.1875 -0.3125,-0.90625 -0.15625,-0.5625 c -0.173,-0.174 -0.34375,-0.1875 -0.34375,-0.1875 l -0.4375,0 -0.3125,0 -0.34375,0 -0.375,0 -0.4375,0 -0.4375,0 -0.5,0 -0.53125,0 -0.53125,0 -0.5625,0 -0.59375,0 -0.59375,0 -0.59375,0 -0.625,0 -0.625,0 -0.625,0 -0.625,0 -0.625,0 -0.65625,0 -0.59375,0 -0.59375,0 -0.59375,0 -0.5625,0 -0.53125,0 -0.53125,0 -0.46875,0 -0.4375,0 -0.4375,0 -0.40625,0 -0.34375,0 -0.28125,0 -0.25,0 -0.34375,0 z m 7.8125,12.5 c 0.044,-0.09 15.9375,53.875 15.9375,53.875 l -0.21875,0 -0.28125,0 -0.375,0 -0.46875,0 -0.59375,0 -0.625,0 -0.71875,0 -0.8125,0 -0.875,0 -0.90625,0 -0.96875,0 -1.0625,0 -1.03125,0 -1.125,0 -1.125,0 -1.1875,0 -1.15625,0 -1.1875,0 -1.1875,0 -1.21875,0 -1.15625,0 -1.1875,0 -1.15625,0 -1.125,0 -1.125,0 -1.0625,0 -1.03125,0 -0.96875,0 -0.9375,0 -0.84375,0 -0.8125,0 -0.71875,0 -0.65625,0 -0.5625,0 -0.46875,0 -0.40625,0 -0.28125,0 -0.21875,0 c 0.043,-0.086 0.125,-0.40625 0.125,-0.40625 l 0.125,-0.46875 0.1875,-0.65625 0.25,-0.8125 0.28125,-0.9375 0.3125,-1.09375 0.375,-1.25 0.40625,-1.34375 0.4375,-1.46875 0.4375,-1.5625 0.5,-1.6875 0.53125,-1.71875 0.5,-1.8125 0.5625,-1.84375 0.5625,-1.96875 0.59375,-1.9375 0.59375,-1.96875 0.59375,-2.03125 0.59375,-2.03125 0.59375,-2 0.59375,-2.03125 0.5625,-1.96875 0.59375,-2 0.5625,-1.90625 0.5625,-1.84375 0.53125,-1.8125 0.5,-1.75 0.5,-1.6875 0.46875,-1.53125 0.4375,-1.46875 0.40625,-1.34375 0.34375,-1.25 0.34375,-1.09375 0.28125,-1 0.21875,-0.78125 0.21875,-0.625 0.125,-0.5 0.0937,-0.28125 z"
   id="path10"
   inkscape:connector-curvature="0" />
</g><g
       id="LWPOLYLINE"
       style="fill:#000000;fill-opacity:1;stroke:none">
	
		<path
   stroke-miterlimit="10"
   d="m 44.938,541.562 c 0,0.174 0,0.303 0,0.303 0,0.172 0,0.389 0,0.389 v 0.26 0.26 0.258 0.346 0.303 0.346 0.389 0.389 0.389 0.434 0.389 0.432 0.432 0.432 0.434 0.432 0.432 0.389 0.434 0.389 0.389 0.389 0.346 0.346 0.303 0.303 0.258 0.217 c 0,0.217 0,0.389 0,0.389 0,0.129 0,0.217 0,0.217 0.194,0.086 0.41,0.086 0.41,0.086 h 0.324 0.41 0.454 0.54 0.627 0.647 0.735 0.756 0.821 0.863 0.887 0.929 0.929 0.973 0.972 0.994 0.994 0.993 0.994 0.972 0.973 0.95 0.908 0.907 0.843 0.82 0.778 0.713 0.67 0.604 0.54 0.476 0.389 0.324 0.237 c 0.194,0.172 0.194,0.648 0.194,0.648 v 0.82 1.08 1.383 1.6 1.857 2.117 2.291 2.463 2.635 2.809 2.938 3.068 3.154 3.24 3.285 3.369 3.414 3.414 3.414 3.412 3.328 3.326 3.242 3.154 3.066 2.939 2.809 2.635 2.463 2.291 2.074 1.857 1.643 1.383 1.08 0.777 0.52 c 0.195,0.172 0.368,0.172 0.368,0.172 0.194,0 0.432,0 0.432,0 h 0.281 0.302 0.324 0.367 0.367 0.411 0.432 0.454 0.453 0.476 0.476 0.497 0.496 0.497 0.497 0.497 0.476 0.496 0.476 0.454 0.453 0.411 0.41 0.389 0.367 0.324 0.303 0.281 0.237 c 0.194,0 0.346,0 0.346,0 0.216,-0.172 0.216,-0.691 0.216,-0.691 v -0.777 -1.08 -1.383 -1.643 -1.857 -2.074 -2.291 -2.463 -2.635 -2.809 -2.939 -3.066 -3.154 -3.242 -3.326 -3.328 -3.412 -3.414 -3.414 -3.414 -3.369 -3.285 -3.24 -3.154 -3.068 -2.938 -2.809 -2.635 -2.463 -2.291 -2.117 -1.857 -1.6 -1.383 -1.08 -0.82 -0.477 c 0.194,-0.172 0.41,-0.172 0.41,-0.172 h 0.303 0.389 0.454 0.519 0.604 0.627 0.713 0.734 0.8 0.821 0.863 0.887 0.907 0.929 0.95 0.951 0.972 0.951 0.972 0.951 0.929 0.907 0.886 0.864 0.821 0.8 0.734 0.691 0.647 0.584 0.54 0.453 0.39 0.302 0.217 c 0.194,-0.174 0.194,-0.303 0.194,-0.303 0,-0.172 0,-0.389 0,-0.389 v -0.217 -0.258 -0.303 -0.303 -0.346 -0.346 -0.389 -0.389 -0.389 -0.434 -0.389 -0.432 -0.432 -0.434 -0.432 -0.432 -0.432 -0.389 -0.434 -0.389 -0.389 -0.389 -0.346 -0.303 -0.346 -0.258 -0.26 -0.26 c 0,-0.217 0,-0.389 0,-0.389 0,-0.129 0,-0.217 0,-0.217 0.003,-0.086 -65.482,-0.086 -65.482,-0.086 z"
   id="path4"
   style="fill:#000000;fill-opacity:1;stroke:none"
   inkscape:connector-curvature="0" />
</g><g
       id="LWPOLYLINE_1_"
       style="fill:#000000;fill-opacity:1;stroke:none">
	
		<path
   stroke-miterlimit="10"
   d="m 175.021,644.229 c 0,-0.217 0,-0.346 0,-0.346 0,-0.172 0,-0.389 0,-0.389 v -0.217 -0.258 -0.303 -0.303 -0.346 -0.346 -0.346 -0.389 -0.432 -0.391 -0.432 -0.432 -0.389 -0.432 -0.434 -0.432 -0.432 -0.432 -0.389 -0.434 -0.389 -0.346 -0.346 -0.346 -0.303 -0.301 -0.26 -0.217 c 0,-0.215 0,-0.389 0,-0.389 0,-0.129 0,-0.26 0,-0.26 -0.086,-0.086 -0.28,-0.086 -0.28,-0.086 h -0.367 -0.476 -0.583 -0.713 -0.821 -0.907 -0.994 -1.08 -1.167 -1.21 -1.296 -1.318 -1.383 -1.426 -1.447 -1.469 -1.491 -1.49 -1.491 -1.469 -1.491 -1.426 -1.426 -1.383 -1.34 -1.274 -1.231 -1.145 -1.081 -1.015 -0.908 -0.799 -0.713 -0.605 -0.475 -0.346 c -0.217,0 -0.281,0 -0.281,0 0,-0.043 0,-0.26 0,-0.26 v -0.301 -0.434 -0.518 -0.605 -0.734 -0.82 -0.865 -0.994 -0.992 -1.125 -1.123 -1.166 -1.245 -1.252 -1.297 -1.297 -1.295 -1.34 -1.34 -1.297 -1.34 -1.252 -1.297 -1.209 -1.168 -1.166 -1.08 -1.037 -0.951 -0.906 -0.779 -0.734 -0.648 -0.518 -0.432 -0.303 c 0,-0.174 0,-0.26 0,-0.26 0.064,0 0.26,0 0.26,0 h 0.323 0.433 0.54 0.648 0.734 0.821 0.929 0.972 1.059 1.103 1.188 1.209 1.254 1.296 1.317 1.34 1.361 1.34 1.36 1.361 1.34 1.317 1.297 1.253 1.21 1.166 1.124 1.059 0.972 0.908 0.842 0.735 0.647 0.54 0.433 0.324 c 0.194,0 0.259,0 0.259,0 0,-0.172 0,-0.303 0,-0.303 0,-0.172 0,-0.389 0,-0.389 v -0.215 -0.26 -0.303 -0.303 -0.346 -0.346 -0.389 -0.389 -0.389 -0.432 -0.391 -0.432 -0.432 -0.432 -0.432 -0.434 -0.432 -0.389 -0.432 -0.389 -0.391 -0.389 -0.346 -0.301 -0.346 -0.26 -0.26 -0.26 c 0,-0.215 0,-0.389 0,-0.389 0,-0.129 0,-0.215 0,-0.215 -0.064,-0.088 -0.259,-0.088 -0.259,-0.088 h -0.324 -0.433 -0.54 -0.647 -0.735 -0.842 -0.908 -0.972 -1.059 -1.124 -1.166 -1.21 -1.253 -1.297 -1.317 -1.34 -1.361 -1.36 -1.34 -1.361 -1.34 -1.317 -1.296 -1.254 -1.209 -1.188 -1.103 -1.059 -0.972 -0.929 -0.821 -0.734 -0.648 -0.54 -0.433 -0.323 c -0.195,0 -0.26,0 -0.26,0 0,-0.043 0,-0.258 0,-0.258 v -0.26 -0.389 -0.52 -0.561 -0.691 -0.734 -0.822 -0.863 -0.951 -1.037 -1.037 -1.123 -1.123 -1.168 -1.166 -1.209 -1.254 -1.209 -1.211 -1.252 -1.211 -1.166 -1.168 -1.123 -1.123 -1.037 -0.994 -0.949 -0.908 -0.82 -0.734 -0.691 -0.562 -0.52 -0.389 -0.258 c 0,-0.174 0,-0.26 0,-0.26 0.064,0 0.281,0 0.281,0 h 0.346 0.453 0.584 0.691 0.799 0.886 0.973 1.059 1.145 1.188 1.253 1.297 1.36 1.383 1.426 1.427 1.447 1.469 1.447 1.47 1.426 1.426 1.383 1.34 1.317 1.253 1.188 1.124 1.059 0.993 0.886 0.8 0.691 0.562 0.476 0.346 c 0.216,0 0.28,0 0.28,0 0,-0.174 0,-0.303 0,-0.303 0,-0.172 0,-0.389 0,-0.389 v -0.217 -0.258 -0.303 -0.303 -0.346 -0.346 -0.389 -0.389 -0.389 -0.434 -0.389 -0.432 -0.432 -0.434 -0.432 -0.432 -0.432 -0.389 -0.434 -0.389 -0.389 -0.389 -0.346 -0.303 -0.346 -0.258 -0.26 -0.26 c 0,-0.217 0,-0.389 0,-0.389 0,-0.129 0,-0.217 0,-0.217 -0.086,-0.086 -0.367,-0.086 -0.367,-0.086 h -0.453 -0.627 -0.756 -0.907 -1.059 -1.167 -1.297 -1.382 -1.491 -1.577 -1.663 -1.707 -1.793 -1.815 -1.88 -1.879 -1.923 -1.923 -1.923 -1.901 -1.901 -1.857 -1.837 -1.771 -1.729 -1.663 -1.577 -1.491 -1.383 -1.296 -1.167 -1.037 -0.929 -0.756 -0.627 -0.454 -0.259 c -0.108,0.174 -0.108,0.734 -0.108,0.734 v 0.908 1.209 1.557 1.814 2.117 2.334 2.592 2.766 2.98 3.154 3.328 3.414 3.586 3.629 3.76 3.76 3.846 3.846 3.846 3.801 3.803 3.717 3.672 3.543 3.457 3.328 3.111 2.98 2.809 2.594 2.332 2.074 1.857 1.514 1.252 0.865 0.561 c -0.004,0.236 52.215,0.236 52.215,0.236 z"
   id="path7"
   style="fill:#000000;fill-opacity:1;stroke:none"
   inkscape:connector-curvature="0" />
</g><g
       id="LWPOLYLINE_4_"
       style="fill:#000000;fill-opacity:1;stroke:none">
	
		<path
   stroke-miterlimit="10"
   d="m 330.748,569.865 0.13,-1.512 0.086,-1.428 0.044,-1.469 v -1.383 l -0.044,-1.34 -0.043,-1.295 -0.129,-1.254 -0.13,-1.252 -0.216,-1.211 -0.217,-1.123 -0.259,-1.123 -0.303,-1.08 -0.303,-1.037 -0.389,-0.994 -0.432,-0.951 -0.433,-0.906 -0.519,-0.908 -0.519,-0.82 -0.562,-0.822 -0.604,-0.734 -0.648,-0.734 -0.691,-0.691 -0.734,-0.648 -0.778,-0.648 -0.82,-0.561 -0.821,-0.52 -0.907,-0.518 -0.951,-0.475 -0.95,-0.391 -1.037,-0.389 -1.037,-0.389 -1.123,-0.303 -1.124,-0.258 -1.21,-0.26 -1.21,-0.174 -1.253,-0.172 -1.339,-0.129 -1.34,-0.088 -1.383,-0.086 h -1.447 -1.513 l -1.49,0.043 -1.448,0.086 -1.404,0.131 -1.404,0.129 -1.339,0.174 -1.34,0.215 -1.274,0.26 -1.274,0.303 -1.21,0.346 -1.188,0.389 -1.167,0.432 -1.123,0.432 -1.08,0.52 -1.037,0.561 -1.016,0.605 -0.994,0.648 -0.929,0.691 -0.907,0.777 -0.864,0.777 -0.821,0.865 -0.799,0.908 -0.735,0.949 -0.713,1.037 -0.669,1.08 -0.627,1.123 -0.604,1.211 -0.541,1.254 -0.519,1.338 -0.453,1.383 -0.433,1.469 -0.367,1.514 -0.346,1.555 -0.28,1.686 -0.26,1.686 -0.216,1.814 -0.151,1.857 -0.107,1.945 -0.065,1.988 -0.021,2.117 c 0,0.215 0,0.432 0,0.432 v 0.389 0.432 0.52 0.604 0.648 0.734 0.779 0.863 0.908 0.906 0.994 1.037 1.037 1.037 1.08 1.08 1.123 1.08 1.08 1.082 1.08 1.037 0.992 0.994 0.951 0.863 0.865 0.777 0.734 0.691 0.562 0.522 0.477 0.346 0.258 c 0,0.217 0.021,3.111 0.021,3.111 l 0.108,2.766 0.173,2.637 0.237,2.506 0.303,2.377 0.367,2.203 0.432,2.117 0.476,1.988 0.519,1.9 0.583,1.771 0.627,1.643 0.691,1.512 0.713,1.469 0.756,1.34 0.8,1.254 0.821,1.123 0.886,1.08 0.886,0.951 0.929,0.906 0.95,0.822 0.973,0.734 0.994,0.691 1.015,0.604 1.016,0.52 1.059,0.518 1.037,0.389 1.059,0.391 1.08,0.301 1.059,0.303 1.081,0.217 1.059,0.172 1.059,0.174 1.08,0.129 1.037,0.088 1.037,0.086 1.015,0.043 1.016,0.043 h 0.994 l 0.95,0.043 h 0.951 0.562 0.604 l 0.648,-0.043 h 0.734 l 0.735,-0.043 0.777,-0.043 0.821,-0.043 0.864,-0.088 0.864,-0.129 0.907,-0.129 0.95,-0.174 0.951,-0.215 0.95,-0.217 0.95,-0.303 0.994,-0.303 0.951,-0.389 0.993,-0.432 0.951,-0.432 0.993,-0.562 0.951,-0.562 0.95,-0.646 0.907,-0.691 0.908,-0.779 0.863,-0.863 0.821,-0.908 0.821,-0.994 0.777,-1.08 0.734,-1.166 0.691,-1.254 0.648,-1.338 0.562,-1.426 0.562,-1.514 0.475,-1.641 0.433,-1.729 0.346,-1.816 0.259,-1.943 0.216,-2.031 0.173,-2.16 0.044,-2.291 -0.044,-2.375 c -0.216,0 -0.346,0 -0.346,0 -0.216,0 -0.432,0 -0.432,0 h -0.303 -0.303 -0.302 -0.389 -0.346 -0.433 -0.432 -0.433 -0.476 -0.475 -0.476 -0.476 -0.519 -0.475 -0.519 -0.476 -0.519 -0.476 -0.475 -0.433 -0.476 -0.389 -0.432 -0.39 -0.345 -0.346 -0.303 -0.26 -0.259 c -0.173,0 -0.346,0 -0.346,0 -0.216,0 -0.216,1.469 -0.216,1.469 l -0.087,1.426 -0.086,1.383 -0.13,1.297 -0.173,1.209 -0.216,1.166 -0.26,1.125 -0.259,1.037 -0.303,0.992 -0.346,0.951 -0.346,0.865 -0.389,0.82 -0.389,0.777 -0.433,0.734 -0.432,0.691 -0.476,0.648 -0.476,0.562 -0.475,0.561 -0.519,0.52 -0.519,0.432 -0.519,0.432 -0.519,0.432 -0.519,0.346 -0.519,0.303 -0.562,0.303 -0.519,0.26 -0.519,0.26 -0.562,0.172 -0.518,0.174 -0.519,0.172 -0.476,0.129 -0.519,0.131 -0.476,0.086 -0.476,0.086 -0.432,0.043 -0.432,0.045 -0.433,0.043 h -0.389 l -0.367,0.043 h -0.346 -0.713 l -0.735,-0.043 -0.713,-0.043 -0.691,-0.045 -0.69,-0.086 -0.691,-0.086 -0.67,-0.129 -0.67,-0.131 -0.648,-0.172 -0.647,-0.217 -0.627,-0.217 -0.604,-0.258 -0.605,-0.303 -0.604,-0.346 -0.562,-0.346 -0.562,-0.432 -0.54,-0.434 -0.519,-0.475 -0.519,-0.562 -0.476,-0.561 -0.475,-0.605 -0.454,-0.691 -0.432,-0.691 -0.433,-0.777 -0.389,-0.82 -0.367,-0.865 -0.346,-0.951 -0.324,-0.992 -0.303,-1.037 -0.28,-1.125 -0.26,-1.166 -0.237,-1.252 -0.216,-1.297 -0.173,-1.383 -0.151,-1.469 -0.13,-1.514 -0.107,-1.598 -0.065,-1.643 -0.043,-1.729 -0.021,-1.857 c 0,-0.174 0,-0.432 0,-0.432 v -0.303 -0.432 -0.477 -0.561 -0.648 -0.648 -0.777 -0.779 -0.863 -0.863 -0.908 -0.951 -0.994 -0.992 -1.037 -0.994 -1.037 -1.037 -0.994 -1.037 -0.994 -0.994 -0.949 -0.908 -0.863 -0.865 -0.777 -0.734 -0.691 -0.648 -0.562 -0.475 -0.432 -0.303 -0.26 c 0,-0.172 0,-1.469 0,-1.469 l 0.021,-1.254 0.021,-1.209 0.021,-1.123 0.043,-1.08 0.044,-1.037 0.064,-0.994 0.064,-0.951 0.065,-0.906 0.064,-0.822 0.087,-0.82 0.064,-0.734 0.086,-0.734 0.108,-0.691 0.087,-0.648 0.086,-0.562 0.108,-0.604 0.086,-0.52 0.108,-0.475 0.086,-0.477 0.108,-0.432 0.108,-0.389 0.086,-0.389 0.108,-0.346 0.086,-0.303 0.087,-0.303 0.086,-0.26 0.087,-0.258 0.086,-0.217 c 0.087,-0.217 0.151,-0.389 0.151,-0.389 0.064,-0.172 0.13,-0.346 0.13,-0.346 0.043,-0.129 0.107,-0.26 0.107,-0.26 0.065,-0.172 0.087,-0.258 0.087,-0.258 0.021,-0.174 0.086,-0.303 0.086,-0.303 0.087,-0.174 0.194,-0.346 0.194,-0.346 0.108,-0.174 0.238,-0.389 0.238,-0.389 0.151,-0.174 0.302,-0.434 0.302,-0.434 l 0.173,-0.215 0.195,-0.217 0.194,-0.26 0.216,-0.258 0.237,-0.26 0.26,-0.26 0.259,-0.26 0.281,-0.258 0.303,-0.26 0.323,-0.303 0.346,-0.26 0.346,-0.258 0.367,-0.26 0.411,-0.303 0.41,-0.26 0.411,-0.215 0.453,-0.26 0.476,-0.26 0.476,-0.215 0.518,-0.217 0.519,-0.217 0.541,-0.215 0.562,-0.174 0.583,-0.172 0.627,-0.174 0.626,-0.129 0.648,-0.131 0.67,-0.129 0.691,-0.086 0.713,-0.086 0.734,-0.045 0.777,-0.043 h 0.778 c 0.151,0 0.303,0 0.303,0 0.173,0 0.346,0 0.346,0 0.216,0.043 0.432,0.043 0.432,0.043 l 0.216,0.045 0.238,0.043 h 0.237 l 0.259,0.043 0.26,0.043 0.303,0.043 0.259,0.086 0.303,0.043 0.303,0.088 0.302,0.043 0.303,0.086 0.303,0.086 0.302,0.088 0.303,0.086 0.346,0.129 0.303,0.086 0.303,0.131 0.346,0.129 0.302,0.131 0.303,0.129 0.303,0.129 0.302,0.174 0.303,0.172 0.303,0.174 0.303,0.172 0.302,0.174 0.26,0.215 0.259,0.174 0.26,0.215 0.259,0.217 0.26,0.26 0.216,0.215 0.216,0.26 0.216,0.26 0.173,0.26 0.217,0.303 0.173,0.258 0.173,0.303 0.173,0.303 0.173,0.303 0.129,0.303 0.173,0.303 0.13,0.301 0.173,0.346 0.13,0.346 0.13,0.303 0.086,0.346 0.13,0.346 0.13,0.389 0.086,0.346 0.087,0.346 0.129,0.389 0.087,0.346 0.086,0.391 0.087,0.389 0.043,0.389 0.087,0.389 0.086,0.389 0.043,0.432 0.043,0.389 0.087,0.434 0.043,0.389 0.043,0.432 0.044,0.432 v 0.432 l 0.043,0.434 0.043,0.432 v 0.432 l 0.043,0.475 v 0.434 0.432 l 0.044,0.475 v 0.477 0.432 h 12.373 z"
   id="path16"
   style="fill:#000000;fill-opacity:1;stroke:none"
   inkscape:connector-curvature="0" />
</g><g
       id="LWPOLYLINE_5_"
       style="fill:#000000;fill-opacity:1;stroke:none">
	
		<path
   stroke-miterlimit="10"
   d="m 350.235,644.229 c 0.217,0 0.346,0 0.346,0 0.173,0 0.39,0 0.39,0 h 0.259 0.303 0.303 0.346 0.346 0.389 0.389 0.432 0.433 0.432 0.433 0.476 0.475 0.433 0.475 0.476 0.433 0.475 0.433 0.432 0.433 0.389 0.389 0.346 0.346 0.303 0.259 0.26 c 0.216,0 0.432,0 0.432,0 0.13,0 0.26,0 0.26,0 0.086,-0.086 0.086,-0.346 0.086,-0.346 v -0.432 -0.562 -0.691 -0.82 -0.951 -1.08 -1.166 -1.297 -1.34 -1.469 -1.512 -1.557 -1.641 -1.643 -1.729 -1.729 -1.729 -1.771 -1.771 -1.729 -1.729 -1.729 -1.641 -1.643 -1.557 -1.512 -1.469 -1.34 -1.297 -1.166 -1.08 -0.951 -0.82 -0.691 -0.562 -0.432 -0.26 c 0.044,-0.086 0.26,-0.086 0.26,-0.086 h 0.302 0.433 0.519 0.604 0.735 0.82 0.864 0.994 0.994 1.123 1.123 1.21 1.21 1.253 1.297 1.296 1.34 1.296 1.34 1.339 1.297 1.296 1.253 1.21 1.21 1.124 1.08 1.037 0.95 0.907 0.778 0.734 0.648 0.519 0.432 0.303 c 0.173,0 0.259,0 0.259,0 0,0.086 0,0.346 0,0.346 v 0.432 0.562 0.691 0.82 0.951 1.08 1.166 1.297 1.34 1.469 1.512 1.557 1.643 1.641 1.729 1.729 1.729 1.771 1.771 1.729 1.729 1.729 1.643 1.641 1.557 1.512 1.469 1.34 1.297 1.166 1.08 0.951 0.82 0.691 0.562 0.432 0.26 c 0.217,0.086 0.389,0.086 0.389,0.086 0.173,0 0.433,0 0.433,0 h 0.259 0.303 0.346 0.346 0.389 0.39 0.432 0.432 0.476 0.476 0.476 0.519 0.475 0.519 0.476 0.476 0.519 0.475 0.476 0.476 0.432 0.433 0.389 0.389 0.346 0.346 0.303 0.259 0.26 c 0.216,0 0.346,0 0.346,0 0.216,-0.217 0.216,-0.777 0.216,-0.777 v -0.865 -1.252 -1.514 -1.857 -2.074 -2.332 -2.594 -2.809 -2.98 -3.111 -3.328 -3.457 -3.543 -3.672 -3.717 -3.803 -3.801 -3.846 -3.846 -3.846 -3.76 -3.76 -3.629 -3.586 -3.414 -3.328 -3.154 -2.98 -2.766 -2.592 -2.334 -2.117 -1.814 -1.557 -1.209 -0.908 -0.561 c -0.216,-0.174 -0.346,-0.174 -0.346,-0.174 -0.216,0 -0.476,0 -0.476,0 h -0.259 -0.303 -0.346 -0.346 -0.389 -0.389 -0.433 -0.432 -0.494 -0.476 -0.475 -0.519 -0.476 -0.476 -0.519 -0.475 -0.519 -0.476 -0.476 -0.476 -0.432 -0.432 -0.39 -0.383 -0.346 -0.346 -0.303 -0.259 -0.26 c -0.173,0 -0.345,0 -0.345,0 -0.217,0.086 -0.217,0.303 -0.217,0.303 v 0.389 0.562 0.646 0.779 0.906 0.994 1.123 1.211 1.295 1.34 1.426 1.471 1.555 1.555 1.643 1.6 1.686 1.641 1.643 1.686 1.598 1.6 1.598 1.514 1.512 1.426 1.34 1.297 1.209 1.08 1.037 0.908 0.777 0.648 0.561 0.389 0.217 c -0.086,0.086 -0.259,0.086 -0.259,0.086 h -0.303 -0.432 -0.519 -0.648 -0.734 -0.778 -0.907 -0.95 -1.037 -1.08 -1.124 -1.21 -1.21 -1.253 -1.296 -1.297 -1.339 -1.34 -1.296 -1.34 -1.296 -1.297 -1.253 -1.21 -1.21 -1.123 -1.123 -0.994 -0.994 -0.864 -0.82 -0.735 -0.604 -0.519 -0.433 -0.302 c -0.216,0 -0.26,0 -0.26,0 0,-0.086 0,-0.303 0,-0.303 v -0.389 -0.561 -0.648 -0.777 -0.908 -1.037 -1.08 -1.209 -1.301 -1.34 -1.426 -1.512 -1.514 -1.598 -1.6 -1.598 -1.686 -1.643 -1.641 -1.686 -1.6 -1.643 -1.555 -1.555 -1.471 -1.426 -1.34 -1.295 -1.211 -1.123 -0.994 -0.906 -0.779 -0.646 -0.562 -0.389 -0.217 c -0.216,-0.086 -0.346,-0.086 -0.346,-0.086 -0.216,0 -0.432,0 -0.432,0 h -0.26 -0.259 -0.303 -0.346 -0.346 -0.389 -0.389 -0.433 -0.432 -0.433 -0.475 -0.433 -0.476 -0.475 -0.433 -0.475 -0.476 -0.424 -0.432 -0.433 -0.432 -0.389 -0.389 -0.346 -0.346 -0.303 -0.303 -0.259 c -0.217,0 -0.39,0 -0.39,0 -0.129,0 -0.259,0 -0.259,0 -0.084,0.004 -0.084,102.671 -0.084,102.671 z"
   id="path19"
   style="fill:#000000;fill-opacity:1;stroke:none"
   inkscape:connector-curvature="0" />
</g><g
       id="LWPOLYLINE_6_"
       style="fill:#000000;fill-opacity:1;stroke:none">
	
		<path
   stroke-miterlimit="10"
   d="m 477.661,541.562 c -0.173,0 -0.346,0 -0.346,0 -0.173,0 -0.389,0 -0.389,0 h -0.26 -0.303 -0.302 -0.346 -0.346 -0.389 -0.39 -0.432 -0.433 -0.432 -0.433 -0.475 -0.476 -0.432 -0.476 -0.476 -0.425 -0.476 -0.433 -0.432 -0.389 -0.433 -0.346 -0.389 -0.346 -0.303 -0.259 -0.26 c -0.216,0 -0.432,0 -0.432,0 -0.13,0 -0.259,0 -0.259,0 -0.087,0.174 -0.087,0.734 -0.087,0.734 v 0.908 1.209 1.557 1.814 2.117 2.334 2.592 2.766 2.98 3.154 3.328 3.414 3.586 3.629 3.76 3.76 3.846 3.846 3.846 3.801 3.803 3.717 3.672 3.543 3.457 3.328 3.111 2.98 2.809 2.594 2.332 2.074 1.857 1.514 1.252 0.865 0.561 c 0.216,0.217 0.346,0.217 0.346,0.217 0.216,0 0.432,0 0.432,0 h 0.26 0.259 0.303 0.346 0.389 0.346 0.433 0.389 0.432 0.433 0.476 0.432 0.476 0.476 0.432 0.476 0.475 0.433 0.432 0.433 0.432 0.39 0.389 0.346 0.346 0.302 0.303 0.26 0.216 c 0.173,0 0.346,0 0.346,0 0.166,0 0.166,-102.667 0.166,-102.667 z"
   id="path22"
   style="fill:#000000;fill-opacity:1;stroke:none"
   inkscape:connector-curvature="0" />
</g><g
       id="LWPOLYLINE_7_"
       style="fill:#000000;fill-opacity:1;stroke:none">
	
		<path
   stroke-miterlimit="10"
   d="m 555.524,541.562 c 0,0.174 0,0.648 0,0.648 v 0.734 1.08 1.297 1.555 1.814 1.988 2.203 2.377 2.549 2.68 2.809 2.938 3.025 3.154 3.154 3.24 3.285 3.283 3.283 3.242 3.24 3.197 3.111 3.025 2.938 2.852 2.68 2.549 2.377 2.203 1.988 1.771 1.555 1.34 1.037 0.777 0.477 c -0.043,0 -0.259,-0.477 -0.259,-0.477 l -0.346,-0.777 -0.476,-1.037 -0.562,-1.34 -0.691,-1.555 -0.821,-1.771 -0.864,-1.988 -0.993,-2.203 -1.037,-2.377 -1.167,-2.549 -1.167,-2.68 -1.253,-2.852 -1.339,-2.938 -1.34,-3.025 -1.383,-3.111 -1.426,-3.197 -1.426,-3.24 -1.426,-3.242 -1.47,-3.283 -1.469,-3.283 -1.469,-3.285 -1.427,-3.24 -1.426,-3.154 -1.383,-3.154 -1.339,-3.025 -1.297,-2.938 -1.253,-2.809 -1.21,-2.68 -1.123,-2.549 -1.037,-2.377 -0.994,-2.203 -0.907,-1.988 -0.777,-1.814 -0.691,-1.555 -0.605,-1.297 -0.432,-1.08 -0.346,-0.734 -0.216,-0.475 c -0.217,-0.174 -0.346,-0.174 -0.346,-0.174 -0.217,0 -0.476,0 -0.476,0 h -0.346 -0.346 -0.389 -0.476 -0.476 -0.519 -0.519 -0.562 -0.604 -0.605 -0.647 -0.648 -0.648 -0.648 -0.691 -0.647 -0.648 -0.648 -0.647 -0.648 -0.604 -0.605 -0.562 -0.519 -0.519 -0.476 -0.475 -0.39 -0.343 -0.346 -0.259 c -0.216,0 -0.346,0 -0.346,0 -0.13,0.174 -0.13,0.734 -0.13,0.734 v 0.908 1.209 1.557 1.814 2.117 2.334 2.592 2.766 2.98 3.154 3.328 3.414 3.586 3.629 3.76 3.76 3.846 3.846 3.846 3.801 3.803 3.717 3.672 3.543 3.457 3.328 3.111 2.98 2.809 2.594 2.332 2.074 1.857 1.514 1.252 0.865 0.561 c 0.173,0.217 0.303,0.217 0.303,0.217 0.173,0 0.389,0 0.389,0 h 0.216 0.26 0.303 0.302 0.346 0.346 0.389 0.39 0.389 0.389 0.433 0.432 0.433 0.432 0.432 0.433 0.432 0.39 0.432 0.389 0.39 0.345 0.39 0.302 0.303 0.303 0.259 0.26 c 0.173,0 0.346,0 0.346,0 0.173,0 0.259,0 0.259,0 0.087,-0.172 0.087,-0.648 0.087,-0.648 v -0.777 -1.08 -1.297 -1.598 -1.816 -1.986 -2.248 -2.375 -2.594 -2.723 -2.852 -2.938 -3.068 -3.154 -3.24 -3.24 -3.328 -3.283 -3.328 -3.283 -3.283 -3.199 -3.154 -3.066 -2.982 -2.852 -2.723 -2.549 -2.42 -2.203 -2.031 -1.814 -1.557 -1.338 -1.082 -0.734 -0.518 c 0.086,0 0.303,0.518 0.303,0.518 l 0.345,0.734 0.476,1.082 0.562,1.338 0.735,1.557 0.82,1.814 0.907,2.031 0.994,2.203 1.08,2.42 1.167,2.549 1.21,2.723 1.296,2.852 1.34,2.982 1.34,3.066 1.426,3.154 1.469,3.199 1.469,3.283 1.47,3.283 1.512,3.328 1.47,3.283 1.512,3.328 1.47,3.24 1.426,3.24 1.426,3.154 1.383,3.068 1.34,2.938 1.253,2.852 1.253,2.723 1.123,2.594 1.124,2.375 0.994,2.248 0.907,1.986 0.777,1.816 0.734,1.598 0.605,1.297 0.475,1.08 0.346,0.777 0.217,0.477 c 0.173,0.172 0.346,0.172 0.346,0.172 0.173,0 0.432,0 0.432,0 h 0.303 0.346 0.389 0.433 0.432 0.519 0.519 0.519 0.562 0.605 0.562 0.647 0.605 0.604 0.648 0.648 0.604 0.605 0.647 0.562 0.604 0.562 0.562 0.519 0.476 0.433 0.432 0.389 0.346 0.303 0.259 c 0.173,0 0.346,0 0.346,0 0.13,-0.217 0.13,-0.777 0.13,-0.777 v -0.865 -1.252 -1.514 -1.857 -2.074 -2.332 -2.594 -2.809 -2.98 -3.111 -3.328 -3.457 -3.543 -3.672 -3.717 -3.803 -3.801 -3.846 -3.846 -3.846 -3.76 -3.76 -3.629 -3.586 -3.414 -3.328 -3.154 -2.98 -2.766 -2.592 -2.334 -2.117 -1.814 -1.557 -1.209 -0.908 -0.561 c -0.015,-0.174 -11.553,-0.174 -11.553,-0.174 z"
   id="path25"
   style="fill:#000000;fill-opacity:1;stroke:none"
   inkscape:connector-curvature="0" />
</g></g></g></svg>