<?xml version="1.0" encoding="UTF-8" standalone="no"?>
<!-- Generator: Adobe Illustrator 16.0.1, SVG Export Plug-In . SVG Version: 6.00 Build 0)  -->

<svg
   xmlns:dc="http://purl.org/dc/elements/1.1/"
   xmlns:cc="http://creativecommons.org/ns#"
   xmlns:rdf="http://www.w3.org/1999/02/22-rdf-syntax-ns#"
   xmlns:svg="http://www.w3.org/2000/svg"
   xmlns="http://www.w3.org/2000/svg"
   xmlns:sodipodi="http://sodipodi.sourceforge.net/DTD/sodipodi-0.dtd"
   xmlns:inkscape="http://www.inkscape.org/namespaces/inkscape"
   version="1.0"
   id="_x31_"
   x="0px"
   y="0px"
   width="612px"
   height="792px"
   viewBox="0 0 612 792"
   enable-background="new 0 0 612 792"
   xml:space="preserve"
   inkscape:version="0.48.2 r9819"
   sodipodi:docname="7009.svg"><metadata
   id="metadata193"><rdf:RDF><cc:Work
       rdf:about=""><dc:format>image/svg+xml</dc:format><dc:type
         rdf:resource="http://purl.org/dc/dcmitype/StillImage" /></cc:Work></rdf:RDF></metadata><defs
   id="defs191" /><sodipodi:namedview
   pagecolor="#ffffff"
   bordercolor="#666666"
   borderopacity="1"
   objecttolerance="10"
   gridtolerance="10"
   guidetolerance="10"
   inkscape:pageopacity="0"
   inkscape:pageshadow="2"
   inkscape:window-width="1920"
   inkscape:window-height="1071"
   id="namedview189"
   showgrid="false"
   inkscape:zoom="1.1919192"
   inkscape:cx="295.25599"
   inkscape:cy="362.24969"
   inkscape:window-x="0"
   inkscape:window-y="0"
   inkscape:window-maximized="1"
   inkscape:current-layer="_x31_" />
<g
   id="g3338"
   transform="matrix(0.61238983,0,0,0.61238983,124.1809,55.599934)"><g
     id="LINE_22_-39">
	
		
</g><g
     transform="translate(0,5.817545)"
     id="LINE_19_-8">
	
		
</g><g
     transform="translate(0,5.817545)"
     id="LINE_20_-6">
	
		
</g><g
     transform="translate(0,5.817545)"
     id="LINE_21_-5">
	
		
</g><g
     transform="translate(0,5.817545)"
     id="LINE_24_-7">
	
		
</g><g
     transform="translate(0,5.817545)"
     id="LINE_25_-6">
	
		
</g><g
     transform="translate(0,5.817545)"
     id="LINE_26_-2">
	
		
</g><g
     transform="translate(0,5.817545)"
     id="LINE_27_-7">
	
		
</g><g
     transform="translate(0,5.817545)"
     id="LINE_28_-0">
	
		
</g><g
     transform="translate(0,1.4543991)"
     id="g7296"><g
       id="LINE_23_-3"
       transform="matrix(1.0836102,0,0,1.0836102,-22.135893,-27.277612)"
       style="fill:#000000;fill-opacity:1;stroke:none">
	
		<path
   inkscape:connector-curvature="0"
   style="fill:#000000;fill-opacity:1;stroke:none"
   d="M 103.3485,460.55349 122.3535,440.31351 233.092,549.77002 385.008,397.914 233.092,246 122.3535,355.50101 102.715,335.22951 233.092,204.25 426.78699,395.00523 233.092,587.40324 z"
   id="line118-9"
   sodipodi:nodetypes="ccccccccccc" />
</g><g
       id="LWPOLYLINE_7_-0"
       style="fill:#000000;fill-opacity:1;stroke:none"
       transform="translate(-0.0106951,8.1292637)">
	
		<path
   inkscape:connector-curvature="0"
   style="fill:#000000;fill-opacity:1;stroke:none"
   d="m 228.90625,261.1875 c -6.28931,-0.10731 -12.5371,2.06237 -17.1875,7.0625 -3.41366,3.6329 -5.49187,8.33735 -6.46875,13.1875 l -2.53125,6.34375 c -13.9968,-0.62873 -26.5196,11.21906 -26.3125,25.3125 l -0.28125,10.125 c -14.15978,-0.66194 -27.63545,10.76942 -27.65625,26.59375 -0.17,32.06617 -0.15625,62.85659 -0.15625,93.65625 -0.81169,47.61268 46.31592,89.32503 93.5625,81.40625 39.28634,-5.48371 72.39949,-41.2824 72.25,-81.40625 0,-26.998 -0.008,-53.99299 -0.65625,-81.625 -1.27296,-3.20997 -2.18176,-5.83859 -3.9375,-7.875 -8.82152,-7.85674 -20.02984,2.80732 -27.0625,5.96875 l 0,-46.84375 c 0.13568,-14.68694 -13.63034,-25.96683 -27.84375,-25.3125 l 0,-5.0625 c -1.56174,-12.83193 -13.71189,-21.32639 -25.71875,-21.53125 z m 1.125,26 c 2.79003,-0.0718 5.5859,2.6751 5.59375,8.1875 0.0155,37.12434 0.002,74.25067 0.125,111.375 0.86006,6.35007 13.0152,6.3486 13.8125,0.0312 -0.002,-31.252 -0.0143,-62.45925 0.15625,-93.09375 -0.27509,-9.47195 11.23981,-9.45508 11.1875,0.65625 0.016,37.55667 0.0325,75.13084 0.0625,112.6875 0.80916,8.9255 14.34511,8.83066 15.125,0 -5e-4,-11.39233 0.61044,-24.61036 0.75,-34.65625 2.31274,-11.85843 8.27098,-13.28738 16.0625,-13.71875 1.58427,1.19492 1.04093,3.62861 0.9375,4.6875 -9.9e-4,19.61783 10e-6,39.87367 0,60.125 0.15901,25.94241 -17.42596,50.43187 -41.5625,59.5 -38.62623,15.73725 -84.4378,-18.72636 -83.75,-59.5 0,-30.79966 -2.5e-4,-61.59258 0.0312,-92.40625 -0.86331,-9.34654 13.28447,-9.29096 12.46875,0 0.17,18.56266 0.1875,37.13259 0.1875,56.34375 3.23595,6.55118 10.89899,4.4928 13.90625,-0.59375 0.0165,-30.86015 0.0312,-61.67034 0.0312,-92.5625 l 0,-4.4375 c 1.5744,-7.71726 12.84327,-3.58225 12.625,3.90625 l 0,93.03125 c 1.3386,6.43526 14.79729,6.41619 16.09375,0 l 0.375,0 c 0,-36.702 7.5e-4,-73.38524 0.15625,-110.84375 0.0341,-5.73549 2.83497,-8.6469 5.625,-8.71875 z"
   id="polyline85-3" />
</g></g><g
     transform="translate(576.25589,334.30194)"
     id="LINE-9">
	
		
</g><g
     transform="translate(576.25589,334.30194)"
     id="LINE_1_-1">
	
		
</g><g
     transform="translate(576.25589,334.30194)"
     id="LINE_2_-7">
	
		
</g><g
     transform="translate(576.25589,334.30194)"
     id="LINE_3_-2">
	
		
</g><g
     transform="translate(576.25589,334.30194)"
     id="LINE_4_-3">
	
		
</g><g
     transform="translate(-5.9983476,7.09855)"
     style="fill:#000000;fill-opacity:1;stroke:none"
     id="LINE_5_-6">
	
		<path
   inkscape:connector-curvature="0"
   id="line19"
   d="m 467.45149,183.979 c 0,141.33633 0,282.67265 0,424.00898 -141.33733,0 -282.67466,0 -424.011992,0 0,12.67067 0,25.34135 0,38.01202 150.628332,0 301.256672,0 451.885002,0 22.35301,-82.69533 44.70601,-165.39067 67.05902,-248.086 C 540.03051,313.94267 517.67751,229.97133 495.3245,146 c -150.62833,0 -301.25667,0 -451.885002,0 0,12.65967 0,25.31933 0,37.979 141.337332,0 282.674662,0 424.011992,0 z"
   style="fill:#000000;fill-opacity:1;stroke:none" />
</g><g
     transform="translate(576.25589,334.30194)"
     id="LINE_6_-5">
	
		
</g><g
     transform="translate(576.25589,334.30194)"
     id="LINE_7_-5">
	
		
</g><g
     transform="translate(576.25589,334.30194)"
     id="LINE_8_-8">
	
		
</g><g
     transform="translate(576.25589,334.30194)"
     id="LINE_9_-1">
	
		
</g><g
     transform="translate(576.25589,334.30194)"
     id="LINE_10_-4">
	
		
</g><g
     transform="translate(576.25589,334.30194)"
     id="LWPOLYLINE-7">
	
		
</g><g
     transform="translate(576.25589,334.30194)"
     id="LINE_11_-1">
	
		
</g><g
     transform="translate(576.25589,334.30194)"
     id="ARC">
	
		
</g><g
     transform="translate(576.25589,334.30194)"
     id="LINE_12_-3">
	
		
</g><g
     transform="translate(576.25589,334.30194)"
     id="LINE_13_-8">
	
		
</g><g
     transform="translate(576.25589,334.30194)"
     id="LWPOLYLINE_1_-4">
	
		
</g><g
     transform="translate(576.25589,334.30194)"
     id="LINE_14_-8">
	
		
</g><g
     transform="translate(576.25589,334.30194)"
     id="LWPOLYLINE_2_-0">
	
		
</g><g
     transform="translate(576.25589,334.30194)"
     id="LINE_15_-4">
	
		
</g><g
     transform="translate(576.25589,334.30194)"
     id="LWPOLYLINE_3_-6">
	
		
</g><g
     transform="translate(576.25589,334.30194)"
     id="LINE_16_-0">
	
		
</g><g
     transform="translate(576.25589,334.30194)"
     id="LWPOLYLINE_4_-3">
	
		
</g><g
     transform="translate(576.25589,334.30194)"
     id="LINE_17_-2">
	
		
</g><g
     transform="translate(576.25589,334.30194)"
     id="LINE_18_-6">
	
		
</g><g
     transform="translate(576.25589,334.30194)"
     id="LWPOLYLINE_5_-9">
	
		
</g><g
     transform="translate(576.25589,334.30194)"
     id="LWPOLYLINE_6_-4">
	
		
</g><g
     transform="translate(576.25589,334.30194)"
     id="LINE_20_-1">
	
		
</g><g
     transform="translate(576.25589,334.30194)"
     id="LINE_22_-3">
	
		
</g><g
     transform="translate(576.25589,334.30194)"
     id="LINE_23_-7">
	
		
</g><g
     transform="translate(576.25589,334.30194)"
     id="LINE_28_-8">
	
		
</g><g
     transform="translate(576.25589,334.30194)"
     id="LINE_29_-8">
	
		
</g><g
     transform="translate(576.25589,334.30194)"
     id="LINE_31_-3">
	
		
</g><g
     transform="translate(576.25589,334.30194)"
     id="LINE_32_-8">
	
		
</g><g
     transform="translate(576.25589,334.30194)"
     id="LINE_33_-1">
	
		
</g><g
     transform="translate(576.25589,334.30194)"
     id="LINE_34_-5">
	
		
</g><g
     transform="translate(576.25589,334.30194)"
     id="LINE_35_-3">
	
		
</g><g
     transform="translate(576.25589,334.30194)"
     id="LWPOLYLINE_8_-5">
	
		
</g><g
     transform="translate(576.25589,334.30194)"
     id="LWPOLYLINE_9_-4">
	
		
</g><g
     transform="translate(576.25589,334.30194)"
     id="LWPOLYLINE_10_-3">
	
		
</g><g
     transform="translate(576.25589,334.30194)"
     id="LWPOLYLINE_11_-6">
	
		
</g><g
     transform="translate(576.25589,334.30194)"
     id="LWPOLYLINE_12_-5">
	
		
</g><g
     transform="translate(576.25589,334.30194)"
     id="LWPOLYLINE_13_-9">
	
		
</g><g
     transform="translate(576.25589,334.30194)"
     id="LWPOLYLINE_14_-5">
	
		
</g></g>


<g
   id="LWPOLYLINE_3_"
   style="stroke:none;fill:#000000;fill-opacity:1">
	
		
</g>



<g
   id="g4168"><g
     style="stroke:none;fill:#000000;fill-opacity:1"
     id="LWPOLYLINE_2_">
	
		<path
   id="path10"
   d="M 214.96875 541.5625 C 214.84475 541.5625 183 644.21875 183 644.21875 L 183.375 644.21875 L 183.78125 644.21875 L 184.0625 644.21875 L 184.34375 644.21875 L 184.6875 644.21875 L 185.0625 644.21875 L 185.4375 644.21875 L 185.84375 644.21875 L 186.28125 644.21875 L 186.71875 644.21875 L 187.1875 644.21875 L 187.65625 644.21875 L 188.125 644.21875 L 188.625 644.21875 L 189.125 644.21875 L 189.625 644.21875 L 190.125 644.21875 L 190.625 644.21875 L 191.09375 644.21875 L 191.59375 644.21875 L 192.0625 644.21875 L 192.53125 644.21875 L 192.96875 644.21875 L 193.375 644.21875 L 193.8125 644.21875 L 194.1875 644.21875 L 194.5625 644.21875 L 194.875 644.21875 L 195.1875 644.21875 L 195.46875 644.21875 L 195.6875 644.21875 L 196.03125 644.21875 C 196.24825 644.21875 196.28125 644.1875 196.28125 644.1875 C 196.32425 644.0135 196.375 643.8125 196.375 643.8125 L 196.46875 643.53125 L 196.59375 643.15625 L 196.75 642.71875 L 196.90625 642.1875 L 197.09375 641.625 L 197.3125 641.03125 L 197.5 640.34375 L 197.71875 639.59375 L 198 638.875 L 198.21875 638.0625 L 198.5 637.21875 L 198.78125 636.375 L 199.0625 635.5 L 199.34375 634.59375 L 199.65625 633.6875 L 199.96875 632.75 L 200.25 631.84375 L 200.53125 630.875 L 200.84375 629.96875 L 201.125 629.0625 L 201.4375 628.15625 L 201.71875 627.28125 L 202 626.4375 L 202.25 625.59375 L 202.5 624.78125 L 202.75 624 L 202.96875 623.3125 L 203.1875 622.625 L 203.375 622.03125 L 203.59375 621.46875 L 203.71875 620.9375 L 203.875 620.5 L 204 620.125 L 204.09375 619.8125 C 204.15875 619.5975 204.21875 619.46875 204.21875 619.46875 C 204.30475 619.42575 204.5 619.4375 204.5 619.4375 L 204.84375 619.4375 L 205.28125 619.4375 L 205.84375 619.4375 L 206.53125 619.4375 L 207.3125 619.4375 L 208.1875 619.4375 L 209.125 619.4375 L 210.15625 619.4375 L 211.28125 619.4375 L 212.4375 619.4375 L 213.65625 619.4375 L 214.9375 619.4375 L 216.25 619.4375 L 217.625 619.4375 L 219 619.4375 L 220.40625 619.4375 L 221.8125 619.4375 L 223.25 619.4375 L 224.65625 619.4375 L 226.09375 619.4375 L 227.5 619.4375 L 228.875 619.4375 L 230.25 619.4375 L 231.5625 619.4375 L 232.84375 619.4375 L 234.03125 619.4375 L 235.21875 619.4375 L 236.34375 619.4375 L 237.375 619.4375 L 238.3125 619.4375 L 239.1875 619.4375 L 239.96875 619.4375 L 240.625 619.4375 L 241.21875 619.4375 L 241.65625 619.4375 L 242 619.4375 L 242.28125 619.4375 C 242.32525 619.6115 242.375 619.8125 242.375 619.8125 L 242.46875 620.125 L 242.5625 620.5 L 242.71875 620.9375 L 242.84375 621.46875 L 243 622.03125 L 243.1875 622.625 L 243.375 623.3125 L 243.59375 624 L 243.8125 624.78125 L 244.03125 625.59375 L 244.25 626.4375 L 244.53125 627.28125 L 244.75 628.15625 L 245 629.0625 L 245.28125 629.96875 L 245.53125 630.875 L 245.8125 631.84375 L 246.0625 632.75 L 246.34375 633.6875 L 246.59375 634.59375 L 246.84375 635.5 L 247.125 636.375 L 247.34375 637.21875 L 247.59375 638.0625 L 247.8125 638.875 L 248.03125 639.59375 L 248.21875 640.34375 L 248.4375 641.03125 L 248.59375 641.625 L 248.78125 642.1875 L 248.9375 642.71875 L 249.03125 643.15625 L 249.125 643.53125 L 249.21875 643.8125 C 249.28275 644.0275 249.34375 644.1875 249.34375 644.1875 C 249.47275 644.2305 249.59375 644.21875 249.59375 644.21875 L 249.96875 644.21875 L 250.25 644.21875 L 250.5625 644.21875 L 250.90625 644.21875 L 251.28125 644.21875 L 251.6875 644.21875 L 252.15625 644.21875 L 252.59375 644.21875 L 253.0625 644.21875 L 253.59375 644.21875 L 254.125 644.21875 L 254.65625 644.21875 L 255.1875 644.21875 L 255.75 644.21875 L 256.3125 644.21875 L 256.875 644.21875 L 257.4375 644.21875 L 258 644.21875 L 258.53125 644.21875 L 259.09375 644.21875 L 259.65625 644.21875 L 260.15625 644.21875 L 260.65625 644.21875 L 261.125 644.21875 L 261.625 644.21875 L 262.03125 644.21875 L 262.4375 644.21875 L 262.8125 644.21875 L 263.15625 644.21875 L 263.5 644.21875 L 263.75 644.21875 L 263.96875 644.21875 L 264.28125 644.21875 C 264.32425 644.00175 264.15625 643.4375 264.15625 643.4375 L 263.875 642.59375 L 263.46875 641.34375 L 263 639.8125 L 262.40625 637.96875 L 261.75 635.875 L 260.96875 633.5625 L 260.15625 630.96875 L 259.28125 628.15625 L 258.3125 625.1875 L 257.34375 622.0625 L 256.28125 618.75 L 255.1875 615.28125 L 254.03125 611.75 L 252.875 608.0625 L 251.6875 604.34375 L 250.46875 600.53125 L 249.25 596.75 L 248.03125 592.90625 L 246.78125 589.0625 L 245.59375 585.21875 L 244.375 581.4375 L 243.1875 577.6875 L 242.03125 574.0625 L 240.875 570.46875 L 239.78125 567.0625 L 238.71875 563.71875 L 237.71875 560.5625 L 236.75 557.59375 L 235.875 554.8125 L 235.0625 552.25 L 234.3125 549.90625 L 233.625 547.78125 L 233.0625 545.96875 L 232.5625 544.40625 L 232.1875 543.21875 L 231.875 542.3125 L 231.71875 541.75 C 231.54575 541.576 231.375 541.5625 231.375 541.5625 L 230.9375 541.5625 L 230.625 541.5625 L 230.28125 541.5625 L 229.90625 541.5625 L 229.46875 541.5625 L 229.03125 541.5625 L 228.53125 541.5625 L 228 541.5625 L 227.46875 541.5625 L 226.90625 541.5625 L 226.3125 541.5625 L 225.71875 541.5625 L 225.125 541.5625 L 224.5 541.5625 L 223.875 541.5625 L 223.25 541.5625 L 222.625 541.5625 L 222 541.5625 L 221.34375 541.5625 L 220.75 541.5625 L 220.15625 541.5625 L 219.5625 541.5625 L 219 541.5625 L 218.46875 541.5625 L 217.9375 541.5625 L 217.46875 541.5625 L 217.03125 541.5625 L 216.59375 541.5625 L 216.1875 541.5625 L 215.84375 541.5625 L 215.5625 541.5625 L 215.3125 541.5625 L 214.96875 541.5625 z M 222.78125 554.0625 C 222.82525 553.9725 238.71875 607.9375 238.71875 607.9375 L 238.5 607.9375 L 238.21875 607.9375 L 237.84375 607.9375 L 237.375 607.9375 L 236.78125 607.9375 L 236.15625 607.9375 L 235.4375 607.9375 L 234.625 607.9375 L 233.75 607.9375 L 232.84375 607.9375 L 231.875 607.9375 L 230.8125 607.9375 L 229.78125 607.9375 L 228.65625 607.9375 L 227.53125 607.9375 L 226.34375 607.9375 L 225.1875 607.9375 L 224 607.9375 L 222.8125 607.9375 L 221.59375 607.9375 L 220.4375 607.9375 L 219.25 607.9375 L 218.09375 607.9375 L 216.96875 607.9375 L 215.84375 607.9375 L 214.78125 607.9375 L 213.75 607.9375 L 212.78125 607.9375 L 211.84375 607.9375 L 211 607.9375 L 210.1875 607.9375 L 209.46875 607.9375 L 208.8125 607.9375 L 208.25 607.9375 L 207.78125 607.9375 L 207.375 607.9375 L 207.09375 607.9375 L 206.875 607.9375 C 206.918 607.8515 207 607.53125 207 607.53125 L 207.125 607.0625 L 207.3125 606.40625 L 207.5625 605.59375 L 207.84375 604.65625 L 208.15625 603.5625 L 208.53125 602.3125 L 208.9375 600.96875 L 209.375 599.5 L 209.8125 597.9375 L 210.3125 596.25 L 210.84375 594.53125 L 211.34375 592.71875 L 211.90625 590.875 L 212.46875 588.90625 L 213.0625 586.96875 L 213.65625 585 L 214.25 582.96875 L 214.84375 580.9375 L 215.4375 578.9375 L 216.03125 576.90625 L 216.59375 574.9375 L 217.1875 572.9375 L 217.75 571.03125 L 218.3125 569.1875 L 218.84375 567.375 L 219.34375 565.625 L 219.84375 563.9375 L 220.3125 562.40625 L 220.75 560.9375 L 221.15625 559.59375 L 221.5 558.34375 L 221.84375 557.25 L 222.125 556.25 L 222.34375 555.46875 L 222.5625 554.84375 L 222.6875 554.34375 L 222.78125 554.0625 z "
   style="stroke:none;fill:#000000;fill-opacity:1" />
</g><g
     style="stroke:none;fill:#000000;fill-opacity:1"
     id="LWPOLYLINE">
	
		<path
   style="stroke:none;fill:#000000;fill-opacity:1"
   id="path4"
   d="   M44.938,541.562c0,0.174,0,0.303,0,0.303c0,0.172,0,0.389,0,0.389v0.26v0.26v0.258v0.346v0.303v0.346v0.389v0.389v0.389v0.434   v0.389v0.432v0.432v0.432v0.434v0.432v0.432v0.389v0.434v0.389v0.389v0.389v0.346v0.346v0.303v0.303v0.258v0.217   c0,0.217,0,0.389,0,0.389c0,0.129,0,0.217,0,0.217c0.194,0.086,0.41,0.086,0.41,0.086h0.324h0.41h0.454h0.54h0.627h0.647h0.735   h0.756h0.821h0.863h0.887h0.929h0.929h0.973h0.972h0.994h0.994h0.993h0.994h0.972h0.973h0.95h0.908h0.907h0.843h0.82h0.778h0.713   h0.67h0.604h0.54h0.476h0.389h0.324h0.237c0.194,0.172,0.194,0.648,0.194,0.648v0.82v1.08v1.383v1.6v1.857v2.117v2.291v2.463v2.635   v2.809v2.938v3.068v3.154v3.24v3.285v3.369v3.414v3.414v3.414v3.412v3.328v3.326v3.242v3.154v3.066v2.939v2.809v2.635v2.463v2.291   v2.074v1.857v1.643v1.383v1.08v0.777v0.52c0.195,0.172,0.368,0.172,0.368,0.172c0.194,0,0.432,0,0.432,0h0.281h0.302h0.324h0.367   h0.367h0.411h0.432h0.454h0.453h0.476h0.476h0.497h0.496h0.497h0.497h0.497h0.476h0.496h0.476h0.454h0.453h0.411h0.41h0.389h0.367   h0.324h0.303h0.281h0.237c0.194,0,0.346,0,0.346,0c0.216-0.172,0.216-0.691,0.216-0.691v-0.777v-1.08v-1.383v-1.643v-1.857v-2.074   v-2.291v-2.463v-2.635v-2.809v-2.939v-3.066v-3.154v-3.242v-3.326v-3.328v-3.412v-3.414v-3.414v-3.414v-3.369v-3.285v-3.24v-3.154   v-3.068v-2.938v-2.809v-2.635v-2.463v-2.291v-2.117v-1.857v-1.6v-1.383v-1.08v-0.82v-0.477c0.194-0.172,0.41-0.172,0.41-0.172   h0.303h0.389h0.454h0.519h0.604h0.627h0.713h0.734h0.8h0.821h0.863h0.887h0.907h0.929h0.95h0.951h0.972h0.951h0.972h0.951h0.929   h0.907h0.886h0.864h0.821h0.8h0.734h0.691h0.647h0.584h0.54h0.453h0.39h0.302h0.217c0.194-0.174,0.194-0.303,0.194-0.303   c0-0.172,0-0.389,0-0.389v-0.217v-0.258v-0.303v-0.303v-0.346v-0.346v-0.389v-0.389v-0.389v-0.434v-0.389v-0.432v-0.432v-0.434   v-0.432v-0.432v-0.432v-0.389v-0.434v-0.389v-0.389v-0.389v-0.346v-0.303v-0.346v-0.258v-0.26v-0.26c0-0.217,0-0.389,0-0.389   c0-0.129,0-0.217,0-0.217C110.423,541.562,44.938,541.562,44.938,541.562z"
   stroke-miterlimit="10"
   stroke-linejoin="round"
   stroke-linecap="round"
   stroke-width="0.7087"
   stroke="#000000"
   fill="none" />
</g><g
     style="stroke:none;fill:#000000;fill-opacity:1"
     id="LWPOLYLINE_1_">
	
		<path
   style="stroke:none;fill:#000000;fill-opacity:1"
   id="path7"
   d="   M175.021,644.229c0-0.217,0-0.346,0-0.346c0-0.172,0-0.389,0-0.389v-0.217v-0.258v-0.303v-0.303v-0.346v-0.346v-0.346v-0.389   v-0.432v-0.391v-0.432v-0.432v-0.389v-0.432v-0.434v-0.432v-0.432v-0.432v-0.389v-0.434v-0.389v-0.346v-0.346v-0.346v-0.303v-0.301   v-0.26v-0.217c0-0.215,0-0.389,0-0.389c0-0.129,0-0.26,0-0.26c-0.086-0.086-0.28-0.086-0.28-0.086h-0.367h-0.476h-0.583h-0.713   h-0.821h-0.907h-0.994h-1.08h-1.167h-1.21h-1.296h-1.318h-1.383h-1.426h-1.447h-1.469h-1.491h-1.49h-1.491h-1.469h-1.491h-1.426   h-1.426h-1.383h-1.34h-1.274h-1.231h-1.145h-1.081h-1.015h-0.908h-0.799h-0.713h-0.605h-0.475h-0.346c-0.217,0-0.281,0-0.281,0   c0-0.043,0-0.26,0-0.26v-0.301v-0.434v-0.518v-0.605v-0.734v-0.82v-0.865v-0.994v-0.992v-1.125v-1.123v-1.166V621.5v-1.252v-1.297   v-1.297v-1.295v-1.34v-1.34v-1.297v-1.34v-1.252v-1.297v-1.209v-1.168v-1.166v-1.08v-1.037v-0.951v-0.906v-0.779v-0.734v-0.648   v-0.518v-0.432v-0.303c0-0.174,0-0.26,0-0.26c0.064,0,0.26,0,0.26,0h0.323h0.433h0.54h0.648h0.734h0.821h0.929h0.972h1.059h1.103   h1.188h1.209h1.254h1.296h1.317h1.34h1.361h1.34h1.36h1.361h1.34h1.317h1.297h1.253h1.21h1.166h1.124h1.059h0.972h0.908h0.842   h0.735h0.647h0.54h0.433h0.324c0.194,0,0.259,0,0.259,0c0-0.172,0-0.303,0-0.303c0-0.172,0-0.389,0-0.389v-0.215v-0.26v-0.303   v-0.303v-0.346v-0.346v-0.389v-0.389v-0.389v-0.432v-0.391v-0.432v-0.432v-0.432v-0.432v-0.434v-0.432v-0.389v-0.432v-0.389v-0.391   v-0.389v-0.346v-0.301v-0.346v-0.26v-0.26v-0.26c0-0.215,0-0.389,0-0.389c0-0.129,0-0.215,0-0.215   c-0.064-0.088-0.259-0.088-0.259-0.088h-0.324h-0.433h-0.54h-0.647h-0.735h-0.842h-0.908h-0.972h-1.059h-1.124h-1.166h-1.21h-1.253   h-1.297h-1.317h-1.34h-1.361h-1.36h-1.34h-1.361h-1.34h-1.317h-1.296h-1.254h-1.209h-1.188h-1.103h-1.059h-0.972h-0.929h-0.821   h-0.734h-0.648h-0.54h-0.433h-0.323c-0.195,0-0.26,0-0.26,0c0-0.043,0-0.258,0-0.258v-0.26v-0.389v-0.52v-0.561v-0.691v-0.734   v-0.822v-0.863v-0.951v-1.037v-1.037v-1.123v-1.123v-1.168v-1.166v-1.209v-1.254v-1.209v-1.211v-1.252v-1.211v-1.166v-1.168v-1.123   v-1.123v-1.037v-0.994v-0.949v-0.908v-0.82v-0.734v-0.691v-0.562v-0.52v-0.389v-0.258c0-0.174,0-0.26,0-0.26   c0.064,0,0.281,0,0.281,0h0.346h0.453h0.584h0.691h0.799h0.886h0.973h1.059h1.145h1.188h1.253h1.297h1.36h1.383h1.426h1.427h1.447   h1.469h1.447h1.47h1.426h1.426h1.383h1.34h1.317h1.253h1.188h1.124h1.059h0.993h0.886h0.8h0.691h0.562h0.476h0.346   c0.216,0,0.28,0,0.28,0c0-0.174,0-0.303,0-0.303c0-0.172,0-0.389,0-0.389v-0.217v-0.258v-0.303v-0.303v-0.346v-0.346v-0.389v-0.389   v-0.389v-0.434v-0.389v-0.432v-0.432v-0.434v-0.432v-0.432v-0.432v-0.389v-0.434v-0.389v-0.389v-0.389v-0.346v-0.303v-0.346v-0.258   v-0.26v-0.26c0-0.217,0-0.389,0-0.389c0-0.129,0-0.217,0-0.217c-0.086-0.086-0.367-0.086-0.367-0.086h-0.453h-0.627h-0.756h-0.907   h-1.059h-1.167h-1.297h-1.382h-1.491h-1.577h-1.663h-1.707h-1.793h-1.815h-1.88h-1.879h-1.923h-1.923h-1.923h-1.901h-1.901h-1.857   h-1.837h-1.771h-1.729h-1.663h-1.577h-1.491h-1.383h-1.296h-1.167h-1.037h-0.929h-0.756h-0.627h-0.454h-0.259   c-0.108,0.174-0.108,0.734-0.108,0.734v0.908v1.209v1.557v1.814v2.117v2.334v2.592v2.766v2.98v3.154v3.328v3.414v3.586v3.629v3.76   v3.76v3.846v3.846v3.846v3.801v3.803v3.717v3.672v3.543v3.457v3.328v3.111v2.98v2.809v2.594v2.332v2.074v1.857v1.514v1.252v0.865   v0.561C122.802,644.229,175.021,644.229,175.021,644.229z"
   stroke-miterlimit="10"
   stroke-linejoin="round"
   stroke-linecap="round"
   stroke-width="0.7087"
   stroke="#000000"
   fill="none" />
</g><g
     style="stroke:none;fill:#000000;fill-opacity:1"
     id="LWPOLYLINE_4_">
	
		<path
   style="stroke:none;fill:#000000;fill-opacity:1"
   id="path16"
   d="   M330.748,569.865l0.13-1.512l0.086-1.428l0.044-1.469v-1.383l-0.044-1.34l-0.043-1.295l-0.129-1.254l-0.13-1.252l-0.216-1.211   l-0.217-1.123l-0.259-1.123l-0.303-1.08l-0.303-1.037l-0.389-0.994l-0.432-0.951l-0.433-0.906l-0.519-0.908l-0.519-0.82   l-0.562-0.822l-0.604-0.734l-0.648-0.734l-0.691-0.691l-0.734-0.648l-0.778-0.648l-0.82-0.561l-0.821-0.52l-0.907-0.518   l-0.951-0.475l-0.95-0.391l-1.037-0.389l-1.037-0.389l-1.123-0.303l-1.124-0.258l-1.21-0.26l-1.21-0.174l-1.253-0.172l-1.339-0.129   l-1.34-0.088l-1.383-0.086h-1.447h-1.513l-1.49,0.043l-1.448,0.086l-1.404,0.131l-1.404,0.129l-1.339,0.174l-1.34,0.215   l-1.274,0.26l-1.274,0.303l-1.21,0.346l-1.188,0.389l-1.167,0.432l-1.123,0.432l-1.08,0.52l-1.037,0.561l-1.016,0.605l-0.994,0.648   l-0.929,0.691l-0.907,0.777l-0.864,0.777l-0.821,0.865l-0.799,0.908l-0.735,0.949l-0.713,1.037l-0.669,1.08l-0.627,1.123   l-0.604,1.211l-0.541,1.254l-0.519,1.338l-0.453,1.383l-0.433,1.469l-0.367,1.514l-0.346,1.555l-0.28,1.686l-0.26,1.686   l-0.216,1.814l-0.151,1.857l-0.107,1.945l-0.065,1.988l-0.021,2.117c0,0.215,0,0.432,0,0.432v0.389v0.432v0.52v0.604v0.648v0.734   v0.779v0.863v0.908v0.906v0.994v1.037v1.037v1.037v1.08v1.08v1.123v1.08v1.08v1.082v1.08v1.037v0.992v0.994v0.951v0.863v0.865   v0.777v0.734v0.691v0.562V604v0.477v0.346v0.258c0,0.217,0.021,3.111,0.021,3.111l0.108,2.766l0.173,2.637l0.237,2.506l0.303,2.377   l0.367,2.203l0.432,2.117l0.476,1.988l0.519,1.9l0.583,1.771l0.627,1.643l0.691,1.512l0.713,1.469l0.756,1.34l0.8,1.254   l0.821,1.123l0.886,1.08l0.886,0.951l0.929,0.906l0.95,0.822l0.973,0.734l0.994,0.691l1.015,0.604l1.016,0.52l1.059,0.518   l1.037,0.389l1.059,0.391l1.08,0.301l1.059,0.303l1.081,0.217l1.059,0.172l1.059,0.174l1.08,0.129l1.037,0.088l1.037,0.086   l1.015,0.043l1.016,0.043h0.994l0.95,0.043h0.951h0.562h0.604l0.648-0.043h0.734l0.735-0.043l0.777-0.043l0.821-0.043l0.864-0.088   l0.864-0.129l0.907-0.129l0.95-0.174l0.951-0.215l0.95-0.217l0.95-0.303l0.994-0.303l0.951-0.389l0.993-0.432l0.951-0.432   l0.993-0.562l0.951-0.562l0.95-0.646l0.907-0.691l0.908-0.779l0.863-0.863l0.821-0.908l0.821-0.994l0.777-1.08l0.734-1.166   l0.691-1.254l0.648-1.338l0.562-1.426l0.562-1.514l0.475-1.641l0.433-1.729l0.346-1.816l0.259-1.943l0.216-2.031l0.173-2.16   l0.044-2.291l-0.044-2.375c-0.216,0-0.346,0-0.346,0c-0.216,0-0.432,0-0.432,0h-0.303h-0.303h-0.302h-0.389h-0.346h-0.433h-0.432   h-0.433h-0.476h-0.475h-0.476h-0.476h-0.519h-0.475h-0.519h-0.476h-0.519h-0.476h-0.475h-0.433h-0.476h-0.389h-0.432h-0.39h-0.345   h-0.346h-0.303h-0.26h-0.259c-0.173,0-0.346,0-0.346,0c-0.216,0-0.216,1.469-0.216,1.469l-0.087,1.426l-0.086,1.383l-0.13,1.297   l-0.173,1.209l-0.216,1.166l-0.26,1.125l-0.259,1.037l-0.303,0.992l-0.346,0.951l-0.346,0.865l-0.389,0.82l-0.389,0.777   l-0.433,0.734l-0.432,0.691l-0.476,0.648l-0.476,0.562l-0.475,0.561l-0.519,0.52l-0.519,0.432l-0.519,0.432l-0.519,0.432   l-0.519,0.346l-0.519,0.303l-0.562,0.303l-0.519,0.26l-0.519,0.26l-0.562,0.172l-0.518,0.174l-0.519,0.172l-0.476,0.129   l-0.519,0.131l-0.476,0.086l-0.476,0.086l-0.432,0.043l-0.432,0.045l-0.433,0.043h-0.389l-0.367,0.043h-0.346h-0.713l-0.735-0.043   l-0.713-0.043l-0.691-0.045l-0.69-0.086l-0.691-0.086l-0.67-0.129l-0.67-0.131l-0.648-0.172l-0.647-0.217l-0.627-0.217   l-0.604-0.258l-0.605-0.303l-0.604-0.346l-0.562-0.346l-0.562-0.432l-0.54-0.434l-0.519-0.475l-0.519-0.562l-0.476-0.561   l-0.475-0.605l-0.454-0.691l-0.432-0.691l-0.433-0.777l-0.389-0.82l-0.367-0.865l-0.346-0.951l-0.324-0.992l-0.303-1.037   l-0.28-1.125l-0.26-1.166l-0.237-1.252l-0.216-1.297l-0.173-1.383l-0.151-1.469l-0.13-1.514l-0.107-1.598l-0.065-1.643   l-0.043-1.729l-0.021-1.857c0-0.174,0-0.432,0-0.432v-0.303v-0.432v-0.477v-0.561v-0.648v-0.648v-0.777v-0.779v-0.863v-0.863   v-0.908v-0.951v-0.994v-0.992v-1.037v-0.994v-1.037v-1.037v-0.994v-1.037v-0.994v-0.994v-0.949v-0.908v-0.863v-0.865v-0.777v-0.734   v-0.691v-0.648v-0.562v-0.475v-0.432v-0.303v-0.26c0-0.172,0-1.469,0-1.469l0.021-1.254l0.021-1.209l0.021-1.123l0.043-1.08   l0.044-1.037l0.064-0.994l0.064-0.951l0.065-0.906l0.064-0.822l0.087-0.82l0.064-0.734l0.086-0.734l0.108-0.691l0.087-0.648   l0.086-0.562l0.108-0.604l0.086-0.52l0.108-0.475l0.086-0.477l0.108-0.432l0.108-0.389l0.086-0.389l0.108-0.346l0.086-0.303   l0.087-0.303l0.086-0.26l0.087-0.258l0.086-0.217c0.087-0.217,0.151-0.389,0.151-0.389c0.064-0.172,0.13-0.346,0.13-0.346   c0.043-0.129,0.107-0.26,0.107-0.26c0.065-0.172,0.087-0.258,0.087-0.258c0.021-0.174,0.086-0.303,0.086-0.303   c0.087-0.174,0.194-0.346,0.194-0.346c0.108-0.174,0.238-0.389,0.238-0.389c0.151-0.174,0.302-0.434,0.302-0.434l0.173-0.215   l0.195-0.217l0.194-0.26l0.216-0.258l0.237-0.26l0.26-0.26l0.259-0.26l0.281-0.258l0.303-0.26l0.323-0.303l0.346-0.26l0.346-0.258   l0.367-0.26l0.411-0.303l0.41-0.26l0.411-0.215l0.453-0.26l0.476-0.26l0.476-0.215l0.518-0.217l0.519-0.217l0.541-0.215   l0.562-0.174l0.583-0.172l0.627-0.174l0.626-0.129l0.648-0.131l0.67-0.129l0.691-0.086l0.713-0.086l0.734-0.045l0.777-0.043h0.778   c0.151,0,0.303,0,0.303,0c0.173,0,0.346,0,0.346,0c0.216,0.043,0.432,0.043,0.432,0.043l0.216,0.045l0.238,0.043h0.237l0.259,0.043   l0.26,0.043l0.303,0.043l0.259,0.086l0.303,0.043l0.303,0.088l0.302,0.043l0.303,0.086l0.303,0.086l0.302,0.088l0.303,0.086   l0.346,0.129l0.303,0.086l0.303,0.131l0.346,0.129l0.302,0.131l0.303,0.129l0.303,0.129l0.302,0.174l0.303,0.172l0.303,0.174   l0.303,0.172l0.302,0.174l0.26,0.215l0.259,0.174l0.26,0.215l0.259,0.217l0.26,0.26l0.216,0.215l0.216,0.26l0.216,0.26l0.173,0.26   l0.217,0.303l0.173,0.258l0.173,0.303l0.173,0.303l0.173,0.303l0.129,0.303l0.173,0.303l0.13,0.301l0.173,0.346l0.13,0.346   l0.13,0.303l0.086,0.346l0.13,0.346l0.13,0.389l0.086,0.346l0.087,0.346l0.129,0.389l0.087,0.346l0.086,0.391l0.087,0.389   l0.043,0.389l0.087,0.389l0.086,0.389l0.043,0.432l0.043,0.389l0.087,0.434l0.043,0.389l0.043,0.432l0.044,0.432v0.432l0.043,0.434   l0.043,0.432v0.432l0.043,0.475v0.434v0.432l0.044,0.475v0.477v0.432H330.748z"
   stroke-miterlimit="10"
   stroke-linejoin="round"
   stroke-linecap="round"
   stroke-width="0.7087"
   stroke="#000000"
   fill="none" />
</g><g
     style="stroke:none;fill:#000000;fill-opacity:1"
     id="LWPOLYLINE_5_">
	
		<path
   style="stroke:none;fill:#000000;fill-opacity:1"
   id="path19"
   d="   M350.235,644.229c0.217,0,0.346,0,0.346,0c0.173,0,0.39,0,0.39,0h0.259h0.303h0.303h0.346h0.346h0.389h0.389h0.432h0.433h0.432   h0.433h0.476h0.475h0.433h0.475h0.476h0.433h0.475h0.433h0.432h0.433h0.389h0.389h0.346h0.346h0.303h0.259h0.26   c0.216,0,0.432,0,0.432,0c0.13,0,0.26,0,0.26,0c0.086-0.086,0.086-0.346,0.086-0.346v-0.432v-0.562v-0.691v-0.82v-0.951v-1.08   v-1.166v-1.297v-1.34v-1.469v-1.512v-1.557v-1.641v-1.643v-1.729v-1.729v-1.729v-1.771v-1.771v-1.729v-1.729v-1.729v-1.641v-1.643   v-1.557v-1.512v-1.469v-1.34v-1.297v-1.166v-1.08v-0.951v-0.82v-0.691v-0.562v-0.432v-0.26c0.044-0.086,0.26-0.086,0.26-0.086   h0.302h0.433h0.519h0.604h0.735h0.82h0.864h0.994h0.994h1.123h1.123h1.21h1.21h1.253h1.297h1.296h1.34h1.296h1.34h1.339h1.297   h1.296h1.253h1.21h1.21h1.124h1.08h1.037h0.95h0.907h0.778h0.734h0.648h0.519h0.432h0.303c0.173,0,0.259,0,0.259,0   c0,0.086,0,0.346,0,0.346v0.432v0.562v0.691v0.82v0.951v1.08v1.166v1.297v1.34v1.469v1.512v1.557v1.643v1.641v1.729v1.729v1.729   v1.771v1.771v1.729v1.729v1.729v1.643v1.641v1.557v1.512v1.469v1.34v1.297v1.166v1.08v0.951v0.82v0.691v0.562v0.432v0.26   c0.217,0.086,0.389,0.086,0.389,0.086c0.173,0,0.433,0,0.433,0h0.259h0.303h0.346h0.346h0.389h0.39h0.432h0.432h0.476h0.476h0.476   h0.519h0.475h0.519h0.476h0.476h0.519h0.475h0.476h0.476h0.432h0.433h0.389h0.389h0.346h0.346h0.303h0.259h0.26   c0.216,0,0.346,0,0.346,0c0.216-0.217,0.216-0.777,0.216-0.777v-0.865v-1.252v-1.514v-1.857v-2.074v-2.332v-2.594v-2.809v-2.98   v-3.111v-3.328v-3.457v-3.543v-3.672v-3.717v-3.803v-3.801v-3.846v-3.846v-3.846v-3.76v-3.76v-3.629v-3.586v-3.414v-3.328v-3.154   v-2.98v-2.766v-2.592v-2.334v-2.117v-1.814v-1.557v-1.209v-0.908v-0.561c-0.216-0.174-0.346-0.174-0.346-0.174   c-0.216,0-0.476,0-0.476,0h-0.259h-0.303h-0.346h-0.346h-0.389h-0.389h-0.433h-0.432H407.1h-0.476h-0.475h-0.519h-0.476h-0.476   h-0.519h-0.475h-0.519h-0.476h-0.476h-0.476h-0.432h-0.432h-0.39H400.1h-0.346h-0.346h-0.303h-0.259h-0.26   c-0.173,0-0.345,0-0.345,0c-0.217,0.086-0.217,0.303-0.217,0.303v0.389v0.562v0.646v0.779v0.906v0.994v1.123v1.211v1.295v1.34   v1.426v1.471v1.555v1.555v1.643v1.6v1.686v1.641v1.643v1.686v1.598v1.6v1.598v1.514v1.512v1.426v1.34v1.297v1.209v1.08v1.037v0.908   v0.777v0.648v0.561v0.389v0.217c-0.086,0.086-0.259,0.086-0.259,0.086h-0.303h-0.432h-0.519h-0.648h-0.734h-0.778h-0.907h-0.95   h-1.037h-1.08h-1.124h-1.21h-1.21h-1.253h-1.296h-1.297h-1.339h-1.34h-1.296h-1.34h-1.296h-1.297h-1.253h-1.21h-1.21h-1.123h-1.123   h-0.994h-0.994h-0.864h-0.82h-0.735h-0.604h-0.519h-0.433h-0.302c-0.216,0-0.26,0-0.26,0c0-0.086,0-0.303,0-0.303v-0.389v-0.561   v-0.648v-0.777v-0.908v-1.037v-1.08v-1.209V577.6v-1.34v-1.426v-1.512v-1.514v-1.598v-1.6v-1.598v-1.686v-1.643v-1.641v-1.686v-1.6   v-1.643v-1.555v-1.555v-1.471v-1.426v-1.34v-1.295v-1.211v-1.123v-0.994v-0.906v-0.779v-0.646v-0.562v-0.389v-0.217   c-0.216-0.086-0.346-0.086-0.346-0.086c-0.216,0-0.432,0-0.432,0h-0.26h-0.259h-0.303h-0.346h-0.346h-0.389h-0.389h-0.433h-0.432   h-0.433h-0.475h-0.433h-0.476h-0.475h-0.433h-0.475h-0.476H354.6h-0.432h-0.433h-0.432h-0.389h-0.389h-0.346h-0.346h-0.303h-0.303   h-0.259c-0.217,0-0.39,0-0.39,0c-0.129,0-0.259,0-0.259,0C350.235,541.562,350.235,644.229,350.235,644.229z"
   stroke-miterlimit="10"
   stroke-linejoin="round"
   stroke-linecap="round"
   stroke-width="0.7087"
   stroke="#000000"
   fill="none" />
</g><g
     style="stroke:none;fill:#000000;fill-opacity:1"
     id="LWPOLYLINE_6_">
	
		<path
   style="stroke:none;fill:#000000;fill-opacity:1"
   id="path22"
   d="   M477.661,541.562c-0.173,0-0.346,0-0.346,0c-0.173,0-0.389,0-0.389,0h-0.26h-0.303h-0.302h-0.346h-0.346h-0.389h-0.39h-0.432   h-0.433h-0.432h-0.433h-0.475h-0.476h-0.432h-0.476h-0.476H470.1h-0.476h-0.433h-0.432h-0.389h-0.433h-0.346h-0.389h-0.346h-0.303   h-0.259h-0.26c-0.216,0-0.432,0-0.432,0c-0.13,0-0.259,0-0.259,0c-0.087,0.174-0.087,0.734-0.087,0.734v0.908v1.209v1.557v1.814   v2.117v2.334v2.592v2.766v2.98v3.154v3.328v3.414v3.586v3.629v3.76v3.76v3.846v3.846v3.846v3.801v3.803v3.717v3.672v3.543v3.457   v3.328v3.111v2.98v2.809v2.594v2.332v2.074v1.857v1.514v1.252v0.865v0.561c0.216,0.217,0.346,0.217,0.346,0.217   c0.216,0,0.432,0,0.432,0h0.26h0.259h0.303h0.346h0.389h0.346h0.433h0.389h0.432h0.433h0.476h0.432h0.476h0.476h0.432h0.476h0.475   h0.433h0.432h0.433h0.432h0.39h0.389h0.346h0.346h0.302h0.303h0.26h0.216c0.173,0,0.346,0,0.346,0   C477.661,644.229,477.661,541.562,477.661,541.562z"
   stroke-miterlimit="10"
   stroke-linejoin="round"
   stroke-linecap="round"
   stroke-width="0.7087"
   stroke="#000000"
   fill="none" />
</g><g
     style="stroke:none;fill:#000000;fill-opacity:1"
     id="LWPOLYLINE_7_">
	
		<path
   style="stroke:none;fill:#000000;fill-opacity:1"
   id="path25"
   d="   M555.524,541.562c0,0.174,0,0.648,0,0.648v0.734v1.08v1.297v1.555v1.814v1.988v2.203v2.377v2.549v2.68v2.809v2.938v3.025v3.154   v3.154v3.24v3.285v3.283v3.283v3.242v3.24v3.197v3.111v3.025v2.938v2.852v2.68v2.549v2.377v2.203v1.988v1.771v1.555v1.34v1.037   v0.777v0.477c-0.043,0-0.259-0.477-0.259-0.477l-0.346-0.777l-0.476-1.037l-0.562-1.34l-0.691-1.555l-0.821-1.771l-0.864-1.988   l-0.993-2.203l-1.037-2.377l-1.167-2.549l-1.167-2.68l-1.253-2.852l-1.339-2.938l-1.34-3.025l-1.383-3.111l-1.426-3.197   l-1.426-3.24l-1.426-3.242l-1.47-3.283l-1.469-3.283l-1.469-3.285l-1.427-3.24l-1.426-3.154l-1.383-3.154l-1.339-3.025   l-1.297-2.938l-1.253-2.809l-1.21-2.68l-1.123-2.549l-1.037-2.377l-0.994-2.203l-0.907-1.988l-0.777-1.814l-0.691-1.555   l-0.605-1.297l-0.432-1.08l-0.346-0.734l-0.216-0.475c-0.217-0.174-0.346-0.174-0.346-0.174c-0.217,0-0.476,0-0.476,0h-0.346   h-0.346h-0.389h-0.476h-0.476h-0.519h-0.519h-0.562h-0.604h-0.605h-0.647h-0.648h-0.648h-0.648h-0.691h-0.647h-0.648h-0.648h-0.647   h-0.648h-0.604h-0.605h-0.562h-0.519h-0.519h-0.476h-0.475h-0.39H500h-0.346h-0.259c-0.216,0-0.346,0-0.346,0   c-0.13,0.174-0.13,0.734-0.13,0.734v0.908v1.209v1.557v1.814v2.117v2.334v2.592v2.766v2.98v3.154v3.328v3.414v3.586v3.629v3.76   v3.76v3.846v3.846v3.846v3.801v3.803v3.717v3.672v3.543v3.457v3.328v3.111v2.98v2.809v2.594v2.332v2.074v1.857v1.514v1.252v0.865   v0.561c0.173,0.217,0.303,0.217,0.303,0.217c0.173,0,0.389,0,0.389,0h0.216h0.26h0.303h0.302h0.346h0.346h0.389h0.39h0.389h0.389   h0.433h0.432h0.433h0.432h0.432h0.433h0.432h0.39h0.432h0.389h0.39h0.345h0.39h0.302h0.303h0.303h0.259h0.26   c0.173,0,0.346,0,0.346,0c0.173,0,0.259,0,0.259,0c0.087-0.172,0.087-0.648,0.087-0.648v-0.777v-1.08v-1.297v-1.598v-1.816v-1.986   v-2.248v-2.375v-2.594v-2.723v-2.852v-2.938v-3.068v-3.154v-3.24v-3.24v-3.328v-3.283v-3.328v-3.283v-3.283v-3.199v-3.154v-3.066   v-2.982v-2.852v-2.723v-2.549v-2.42v-2.203v-2.031v-1.814v-1.557v-1.338v-1.082v-0.734v-0.518c0.086,0,0.303,0.518,0.303,0.518   l0.345,0.734l0.476,1.082l0.562,1.338l0.735,1.557l0.82,1.814l0.907,2.031l0.994,2.203l1.08,2.42l1.167,2.549l1.21,2.723   l1.296,2.852l1.34,2.982l1.34,3.066l1.426,3.154l1.469,3.199l1.469,3.283l1.47,3.283l1.512,3.328l1.47,3.283l1.512,3.328l1.47,3.24   l1.426,3.24l1.426,3.154l1.383,3.068l1.34,2.938l1.253,2.852l1.253,2.723l1.123,2.594l1.124,2.375l0.994,2.248l0.907,1.986   l0.777,1.816l0.734,1.598l0.605,1.297l0.475,1.08l0.346,0.777l0.217,0.477c0.173,0.172,0.346,0.172,0.346,0.172   c0.173,0,0.432,0,0.432,0h0.303h0.346h0.389h0.433h0.432h0.519h0.519h0.519h0.562h0.605h0.562h0.647h0.605h0.604h0.648h0.648h0.604   h0.605h0.647h0.562h0.604h0.562h0.562h0.519h0.476h0.433h0.432h0.389h0.346h0.303h0.259c0.173,0,0.346,0,0.346,0   c0.13-0.217,0.13-0.777,0.13-0.777v-0.865v-1.252v-1.514v-1.857v-2.074v-2.332v-2.594v-2.809v-2.98v-3.111v-3.328v-3.457v-3.543   v-3.672v-3.717v-3.803v-3.801v-3.846v-3.846v-3.846v-3.76v-3.76v-3.629v-3.586v-3.414v-3.328v-3.154v-2.98v-2.766v-2.592v-2.334   v-2.117v-1.814v-1.557v-1.209v-0.908v-0.561C567.062,541.562,555.524,541.562,555.524,541.562z"
   stroke-miterlimit="10"
   stroke-linejoin="round"
   stroke-linecap="round"
   stroke-width="0.7087"
   stroke="#000000"
   fill="none" />
</g></g>






















































</svg>