<?xml version="1.0" encoding="UTF-8" standalone="no"?>
<!-- Generator: Adobe Illustrator 16.0.1, SVG Export Plug-In . SVG Version: 6.00 Build 0)  -->

<svg
   xmlns:dc="http://purl.org/dc/elements/1.1/"
   xmlns:cc="http://creativecommons.org/ns#"
   xmlns:rdf="http://www.w3.org/1999/02/22-rdf-syntax-ns#"
   xmlns:svg="http://www.w3.org/2000/svg"
   xmlns="http://www.w3.org/2000/svg"
   xmlns:sodipodi="http://sodipodi.sourceforge.net/DTD/sodipodi-0.dtd"
   xmlns:inkscape="http://www.inkscape.org/namespaces/inkscape"
   version="1.0"
   id="_x31_"
   x="0px"
   y="0px"
   width="612px"
   height="792px"
   viewBox="0 0 612 792"
   enable-background="new 0 0 612 792"
   xml:space="preserve"
   inkscape:version="0.48.2 r9819"
   sodipodi:docname="7010.svg"><metadata
   id="metadata15261"><rdf:RDF><cc:Work
       rdf:about=""><dc:format>image/svg+xml</dc:format><dc:type
         rdf:resource="http://purl.org/dc/dcmitype/StillImage" /></cc:Work></rdf:RDF></metadata><defs
   id="defs15259" /><sodipodi:namedview
   pagecolor="#ffffff"
   bordercolor="#666666"
   borderopacity="1"
   objecttolerance="10"
   gridtolerance="10"
   guidetolerance="10"
   inkscape:pageopacity="0"
   inkscape:pageshadow="2"
   inkscape:window-width="1920"
   inkscape:window-height="1071"
   id="namedview15257"
   showgrid="false"
   inkscape:zoom="0.2979798"
   inkscape:cx="97.796544"
   inkscape:cy="-131.44849"
   inkscape:window-x="0"
   inkscape:window-y="0"
   inkscape:window-maximized="1"
   inkscape:current-layer="_x31_" />
<g
   id="LWPOLYLINE"
   style="fill:#000000;fill-opacity:1;stroke:none"
   transform="matrix(50.200748,0,0,50.200748,-15073.406,-19527.16)">
	
		<rect
   x="310.39999"
   y="391.01999"
   stroke-miterlimit="10"
   width="0.60000002"
   height="3.04"
   id="rect15249"
   style="fill:#000000;fill-opacity:1;stroke:none" />
</g>
<g
   id="LWPOLYLINE_1_"
   style="fill:#000000;fill-opacity:1;stroke:none"
   transform="matrix(50.200748,0,0,50.200748,-15073.406,-19527.16)">
	
		<polygon
   stroke-miterlimit="10"
   points="307.236,393.8 310.4,392.549 307.236,391.32 307.236,392.274 302,392.274 302,392.825 307.236,392.825 "
   id="polygon15252"
   style="fill:#000000;fill-opacity:1;stroke:none" />
</g>
<g
   id="LWPOLYLINE_2_"
   style="fill:#000000;fill-opacity:1;stroke:none"
   transform="matrix(50.200748,0,0,50.200748,-15073.406,-19527.16)">
	
		<polygon
   stroke-miterlimit="10"
   points="306.445,400.98 306.452,400.98 306.46,400.98 306.469,400.98 306.479,400.98 306.49,400.98 306.503,400.98 306.516,400.98 306.529,400.98 306.544,400.98 306.559,400.98 306.574,400.98 306.59,400.98 306.606,400.98 306.623,400.98 306.64,400.98 306.656,400.98 306.673,400.98 306.689,400.98 306.706,400.98 306.723,400.98 306.738,400.98 306.754,400.98 306.769,400.98 306.783,400.98 306.797,400.98 306.811,400.98 306.822,400.98 306.834,400.98 306.844,400.98 306.853,400.98 306.86,400.98 306.867,400.98 306.873,400.98 306.879,400.98 306.88,400.974 306.88,400.955 306.88,400.926 306.88,400.885 306.88,400.834 306.88,400.773 306.88,400.704 306.88,400.626 306.88,400.541 306.88,400.449 306.88,400.35 306.88,400.246 306.88,400.136 306.88,400.022 306.88,399.904 306.88,399.783 306.88,399.659 306.88,399.534 306.88,399.407 306.88,399.28 306.88,399.152 306.88,399.025 306.88,398.9 306.88,398.776 306.88,398.656 306.88,398.538 306.88,398.424 306.88,398.314 306.88,398.21 306.88,398.111 306.88,398.019 306.88,397.934 306.88,397.855 306.88,397.786 306.88,397.727 306.88,397.675 306.88,397.635 306.88,397.604 306.88,397.586 306.88,397.58 306.873,397.58 306.868,397.58 306.861,397.58 306.854,397.58 306.846,397.58 306.836,397.58 306.825,397.58 306.813,397.58 306.801,397.58 306.788,397.58 306.774,397.58 306.76,397.58 306.745,397.58 306.729,397.58 306.714,397.58 306.698,397.58 306.683,397.58 306.667,397.58 306.65,397.58 306.635,397.58 306.619,397.58 306.604,397.58 306.588,397.58 306.573,397.58 306.559,397.58 306.545,397.58 306.532,397.58 306.52,397.58 306.508,397.58 306.497,397.58 306.487,397.58 306.479,397.58 306.472,397.58 306.465,397.58 306.46,397.58 306.454,397.58 306.439,397.593 306.425,397.605 306.41,397.618 306.395,397.631 306.379,397.644 306.363,397.656 306.347,397.67 306.329,397.684 306.312,397.696 306.295,397.71 306.276,397.724 306.258,397.737 306.239,397.751 306.221,397.765 306.201,397.778 306.182,397.792 306.161,397.807 306.142,397.82 306.121,397.834 306.1,397.848 306.079,397.861 306.058,397.876 306.036,397.89 306.014,397.903 305.992,397.917 305.97,397.931 305.947,397.944 305.924,397.959 305.901,397.972 305.878,397.985 305.855,397.999 305.832,398.013 305.809,398.025 305.785,398.039 305.761,398.052 305.737,398.065 305.713,398.078 305.688,398.091 305.665,398.104 305.64,398.116 305.64,398.124 305.64,398.13 305.64,398.137 305.64,398.146 305.64,398.156 305.64,398.167 305.64,398.18 305.64,398.193 305.64,398.207 305.64,398.223 305.64,398.238 305.64,398.255 305.64,398.272 305.64,398.29 305.64,398.308 305.64,398.326 305.64,398.345 305.64,398.363 305.64,398.382 305.64,398.4 305.64,398.418 305.64,398.437 305.64,398.454 305.64,398.471 305.64,398.487 305.64,398.504 305.64,398.519 305.64,398.533 305.64,398.547 305.64,398.559 305.64,398.57 305.64,398.58 305.64,398.589 305.64,398.597 305.64,398.603 305.64,398.609 305.658,398.603 305.677,398.594 305.696,398.585 305.715,398.576 305.735,398.567 305.755,398.558 305.774,398.548 305.794,398.537 305.815,398.526 305.835,398.516 305.856,398.505 305.876,398.493 305.897,398.481 305.918,398.47 305.939,398.457 305.96,398.445 305.981,398.433 306.002,398.42 306.023,398.407 306.044,398.394 306.065,398.381 306.086,398.367 306.106,398.354 306.127,398.34 306.148,398.326 306.169,398.312 306.188,398.299 306.209,398.285 306.229,398.271 306.249,398.257 306.269,398.242 306.288,398.229 306.307,398.215 306.326,398.2 306.345,398.186 306.363,398.172 306.381,398.158 306.398,398.144 306.416,398.13 306.433,398.116 306.433,400.98 306.44,400.98 "
   id="polygon15255"
   style="fill:#000000;fill-opacity:1;stroke:none" />
</g>
</svg>