<?xml version="1.0" encoding="UTF-8" standalone="no"?>
<!-- Generator: Adobe Illustrator 16.0.1, SVG Export Plug-In . SVG Version: 6.00 Build 0)  -->

<svg
   xmlns:dc="http://purl.org/dc/elements/1.1/"
   xmlns:cc="http://creativecommons.org/ns#"
   xmlns:rdf="http://www.w3.org/1999/02/22-rdf-syntax-ns#"
   xmlns:svg="http://www.w3.org/2000/svg"
   xmlns="http://www.w3.org/2000/svg"
   xmlns:sodipodi="http://sodipodi.sourceforge.net/DTD/sodipodi-0.dtd"
   xmlns:inkscape="http://www.inkscape.org/namespaces/inkscape"
   version="1.0"
   id="_x31_"
   x="0px"
   y="0px"
   width="612px"
   height="792px"
   viewBox="0 0 612 792"
   enable-background="new 0 0 612 792"
   xml:space="preserve"
   inkscape:version="0.48.2 r9819"
   sodipodi:docname="7013.svg"><metadata
   id="metadata85"><rdf:RDF><cc:Work
       rdf:about=""><dc:format>image/svg+xml</dc:format><dc:type
         rdf:resource="http://purl.org/dc/dcmitype/StillImage" /></cc:Work></rdf:RDF></metadata><defs
   id="defs83" /><sodipodi:namedview
   pagecolor="#ffffff"
   bordercolor="#666666"
   borderopacity="1"
   objecttolerance="10"
   gridtolerance="10"
   guidetolerance="10"
   inkscape:pageopacity="0"
   inkscape:pageshadow="2"
   inkscape:window-width="1920"
   inkscape:window-height="1068"
   id="namedview81"
   showgrid="false"
   inkscape:zoom="0.5"
   inkscape:cx="-166.74058"
   inkscape:cy="499.56451"
   inkscape:window-x="0"
   inkscape:window-y="0"
   inkscape:window-maximized="1"
   inkscape:current-layer="_x31_" />
<g
   id="LWPOLYLINE_14_"
   style="fill:#000000;fill-opacity:0.93247586000000005;stroke:none">
	<path
   style="fill:#000000;fill-opacity:0.93247585;stroke:none"
   d="m 389.75,547.53125 c -0.44244,32.0012 -0.0603,64.11283 -0.1875,96.15625 13.3827,5.36833 12.38098,-4.20192 11.625,-13.25 0.50769,-9.3802 -0.99245,-20.60338 0.65625,-28.9375 13.8545,0.24818 31.885,1.6428 38.9375,-13.3125 7.18128,-15.0522 1.08974,-39.01492 -18.125,-40.3125 -10.92943,-0.76158 -21.94888,-0.14992 -32.90625,-0.34375 z m 11.4375,10.78125 c 9.67933,0.723 23.51808,-3.40602 28.46875,8.031 5.30773,10.94683 -2.52413,25.81362 -15.4062,24.3434 -4.35417,0 -8.70833,0 -13.0625,0 -3e-5,-10.79106 7e-5,-21.58535 -5e-5,-32.3744 z"
   id="path46"
   inkscape:connector-curvature="0" />
</g><g
   id="LWPOLYLINE_11_"
   style="fill:#000000;fill-opacity:0.93247586000000005;stroke:none">
	<path
   style="fill:#000000;fill-opacity:0.93247585;stroke:none"
   d="M 337.40625,545.84375 C 321.2162,544.8306 307.88387,559.2371 309,575.1875 c 1.25435,19.46877 -3.67594,40.56327 5.40625,58.6875 9.63226,15.17172 35.15005,15.57895 46.9375,2.90625 11.78712,-17.04195 5.9585,-38.95723 7.43745,-58.28125 1.92248,-15.57804 -8.80077,-32.41868 -25.56245,-32.4375 -1.93163,-0.2433 -3.87088,-0.23052 -5.8125,-0.21875 z m 0.40625,10 c 12.4453,-1.6543 20.38287,11.40632 18.4999,22.6874 -1.2734,16.86426 3.10448,34.99334 -3.90605,50.90625 -7.67575,10.99773 -29.16953,7.08627 -29.84385,-7.53115 -1.8579,-17.17267 -1.41378,-34.70381 -0.5312,-51.9375 0.95517,-7.93441 7.75765,-14.22701 15.7812,-14.125 z"
   id="path37"
   inkscape:connector-curvature="0" />
</g><g
   id="LWPOLYLINE_2_"
   style="fill:#000000;fill-opacity:0.93247586000000005;stroke:none">
	<path
   style="fill:#000000;fill-opacity:0.93247585;stroke:none"
   d="m 161.34375,412.9375 c -0.43786,32.00393 -0.0635,64.11206 -0.1875,96.15625 13.38059,5.40612 12.38234,-4.16916 11.625,-13.21875 0.18669,-9.56513 -0.37477,-19.71441 0.25,-28.9375 13.96977,0.19881 32.19683,1.79523 39.34375,-13.3124 7.147,-15.0701 1.08555,-39.04772 -18.15625,-40.28135 -10.91304,-0.88476 -21.92967,-0.18787 -32.875,-0.40625 z M 172.75,423.75 c 9.6825,0.71902 23.49831,-3.39045 28.49995,7.99985 5.33464,10.94645 -2.51635,25.86866 -15.4062,24.3749 -4.36458,0 -8.72917,0 -13.09375,0 0,-10.79141 0,-21.58417 0,-32.37475 z"
   id="path10"
   inkscape:connector-curvature="0" />
</g><g
   id="LWPOLYLINE_6_"
   style="fill:#000000;fill-opacity:0.93247586000000005;stroke:none">
	<path
   style="fill:#000000;fill-opacity:0.93247585;stroke:none"
   d="m 349.0625,412.96875 c 0.26137,31.82267 -1.36397,66.01048 0.65625,96.34375 16.98584,-0.91039 38.6814,3.98388 50.65625,-11.2811 8.54331,-15.26558 6.61116,-33.94622 6.0625,-50.87515 -0.15912,-13.64603 -5.17492,-30.86722 -20.78125,-33.375 -12.05729,-1.68886 -24.43991,-0.42198 -36.59375,-0.8125 z M 360.46875,423.75 c 10.79143,0.74564 26.54715,-3.54925 31.5625,9.40605 4.12101,15.06545 2.38784,31.14747 1.9375,46.625 0.4015,13.39044 -12.67387,20.74412 -24.71875,18.7186 -3.10382,-0.86875 -10.29246,2.38332 -8.71564,-3.20732 -0.0626,-23.84715 -0.055,-47.69626 -0.0656,-71.54233 z"
   id="path22"
   inkscape:connector-curvature="0" />
</g><g
   id="LWPOLYLINE">
	<path
   style="fill:#000000;fill-opacity:0.93247585;stroke:none"
   d="m 86.4,480.232 c -2.7671,14.04716 6.243622,29.92217 21.515,30.382 15.3837,3.01204 34.93992,-5.5442 34.855,-23.319 2.47654,-16.58849 -12.47131,-27.48107 -25.816,-33.34 -10.84748,-3.85696 -22.130145,-16.87495 -13.34,-27.861 7.81358,-9.07011 26.059,-5.01261 25.731,8.309 -1.6206,7.10495 6.86594,3.39888 11.096,4.297 3.96332,-2.49851 0.48622,-11.8295 -1.319,-16.185 -9.44188,-15.88237 -36.37169,-14.64141 -46.882,-0.488 -9.369202,13.58173 -2.486792,32.85241 12.268,39.183 10.48693,6.32152 28.60177,11.45636 25.573,27.18 -2.38974,16.7151 -31.41218,15.2867 -31.815,-1.949 1.693026,-8.88932 -4.705212,-5.94384 -11.866,-6.209 z"
   id="path4"
   inkscape:connector-curvature="0" />
</g>
<g
   id="LWPOLYLINE_1_"
   style="fill:#000000;fill-opacity:0.93247586000000005;stroke:none">
	
</g>

<g
   id="LWPOLYLINE_3_"
   style="fill:#000000;fill-opacity:0.93247586000000005;stroke:none">
	<path
   style="fill:#000000;fill-opacity:0.93247585;stroke:none"
   d="m 244.206,412.949 c -3.66942,0.46524 -9.03251,-0.96769 -11.621,0.709 0.21953,31.82069 -0.43983,64.13122 0.325,95.648 4.06981,-1.05498 13.24365,3.02715 11.24174,-4.1389 0.0581,-30.73932 0.0471,-61.47874 0.0543,-92.2181 z"
   id="path13"
   inkscape:connector-curvature="0" />
</g>
<g
   id="LWPOLYLINE_4_"
   style="fill:#000000;fill-opacity:0.93247586000000005;stroke:none">
	<path
   style="fill:#000000;fill-opacity:0.93247585;stroke:none"
   d="m 317.288,412.949 c -0.17684,26.83819 0.3381,56.38661 -0.243,81.641 -12.26887,-27.14036 -24.00223,-54.80007 -36.564,-81.641 -5.2062,0.52132 -12.17612,-1.04759 -16.34,0.709 0.20531,31.82676 -0.41136,64.09546 0.304,95.648 3.69874,-0.9679 12.02189,2.71784 10.505,-3.568 0.19677,-25.89682 -0.37215,-54.58494 0.264,-78.88 12.52351,27.42258 24.54544,55.3156 37.373,82.451 4.91607,-0.50471 11.63282,1.01537 15.482,-0.689 0,-31.82933 0,-63.65867 0,-95.488 l -5.38787,-0.16012 -5.39313,-0.0229 0,0 z"
   id="path16"
   inkscape:connector-curvature="0" />
</g>
<g
   id="LWPOLYLINE_5_"
   style="fill:#000000;fill-opacity:0.93247586000000005;stroke:none">
	
</g>

<g
   id="LWPOLYLINE_7_"
   style="fill:#000000;fill-opacity:0.93247586000000005;stroke:none">
	<path
   style="fill:#000000;fill-opacity:0.93247585;stroke:none"
   d="m 474.282,509.311 c -0.62001,-3.30706 1.29931,-9.06569 -0.973,-10.783 -11.30267,0 -22.60533,0 -33.908,0 -0.23122,-28.44895 0.44597,-57.46009 -0.325,-85.575 -3.56223,0.46807 -8.82149,-0.9658 -11.307,0.709 0,31.81567 0,63.63133 0,95.447 15.50131,0.27449 31.00931,0.15301 46.513,0.202 z"
   id="path25"
   inkscape:connector-curvature="0" />
</g>
<g
   id="LWPOLYLINE_8_"
   style="fill:#000000;fill-opacity:0.93247586000000005;stroke:none">
	<path
   style="fill:#000000;fill-opacity:0.93247585;stroke:none"
   d="m 532.44,509.311 c -0.65511,-3.2984 1.38306,-9.2035 -1.054,-10.783 -11.82995,-0.47371 -25.52185,0.91452 -36.343,-0.568 0.19559,-10.78241 -0.38327,-22.33927 0.244,-32.69 11.14339,-0.22694 23.18758,0.44691 33.826,-0.285 -0.62505,-3.21337 1.2973,-8.81424 -0.972,-10.497 -10.79059,-0.40408 -23.17044,0.78111 -33.098,-0.486 0.22912,-9.95121 -0.44832,-20.80899 0.284,-30.257 11.95533,-0.22634 24.80945,0.44611 36.26,-0.285 -0.50579,-3.27237 1.04424,-8.41299 -0.77,-10.5 -15.77633,0 -31.55267,0 -47.329,0 -0.18915,32.04277 -0.0274,64.10551 -0.081,96.156 16.34166,0.26495 32.68923,0.14771 49.033,0.195 z"
   id="path28"
   inkscape:connector-curvature="0" />
</g>
<g
   id="LWPOLYLINE_9_"
   style="fill:#000000;fill-opacity:0.93247586000000005;stroke:none">
	<path
   style="fill:#000000;fill-opacity:0.93247585;stroke:none"
   d="m 172.766,614.799 c -2.7047,14.05469 6.20696,29.90024 21.533,30.382 15.40667,2.99531 34.94225,-5.56309 34.86,-23.36 2.5573,-17.3887 -13.67504,-27.97172 -27.358,-34.151 -10.87661,-3.80587 -20.55804,-17.92822 -11.048,-27.82 8.22948,-8.08118 25.2796,-3.72833 24.983,9.121 -1.63545,7.09035 6.83212,3.40718 11.07,4.297 4.01866,-2.48034 0.47599,-11.84646 -1.299,-16.226 -9.66307,-16.07121 -37.417,-14.65832 -47.427,0.404 -8.64552,13.64207 -1.53304,32.06609 12.817,38.331 10.29587,6.26349 27.97304,11.12001 25.694,26.451 -1.57634,17.30403 -31.51234,16.36815 -31.935,-1.218 1.29992,-9.22906 -3.86216,-5.73584 -11.89,-6.211 z"
   id="path31"
   inkscape:connector-curvature="0" />
</g>
<g
   id="LWPOLYLINE_10_"
   style="fill:#000000;fill-opacity:0.93247586000000005;stroke:none">
	<path
   style="fill:#000000;fill-opacity:0.93247585;stroke:none"
   d="m 237.555,547.516 c 0.65641,3.31055 -1.39147,9.15871 1.074,10.78 7.73327,0.49442 16.91452,-0.95819 23.85,0.609 0.24646,28.23817 -0.4745,57.09083 0.345,84.965 3.87187,-0.44723 9.07305,0.9123 12.126,-0.648 0.27571,-28.21091 -0.53085,-57.14133 0.386,-84.926 7.65897,-0.5222 16.95178,1.02221 23.706,-0.648 -0.71781,-4.52472 2.83391,-13.29781 -5.67582,-10.0848 -18.60369,-0.0451 -37.20745,-0.0427 -55.81118,-0.0472 z"
   id="path34"
   inkscape:connector-curvature="0" />
</g>

<g
   id="LWPOLYLINE_12_"
   style="fill:#000000;fill-opacity:0.93247586000000005;stroke:none">
	
</g>
<g
   id="LWPOLYLINE_13_"
   style="fill:#000000;fill-opacity:0.93247586000000005;stroke:none">
	
</g>

<g
   id="LWPOLYLINE_15_"
   style="fill:#000000;fill-opacity:1"
   transform="matrix(0.99360583,0,0,0.99360583,1.2959413,1.6420033)">
	
		<path
   style="fill:#000000;fill-opacity:1;stroke:#000000;stroke-width:0.5;stroke-linecap:round;stroke-linejoin:round;stroke-miterlimit:10"
   d="m 224.98641,145.50714 c 0,14.83444 0,29.66888 0,44.50331 -59.48453,0 -118.96904,0 -178.453563,0 2.227269,6.64529 -4.879911,22.62503 4.350289,22.26738 58.034424,0 116.068844,0 174.103274,0 0,29.67936 0,59.35872 0,89.03808 -59.48453,0 -118.96904,0 -178.453563,0 2.227269,6.64529 -4.879911,22.62502 4.350289,22.26738 58.034424,0 116.068844,0 174.103274,0 0,14.83443 0,29.66887 0,44.50331 29.74225,0 59.48452,0 89.22678,0 0,-14.83444 0,-29.66888 0,-44.50331 14.86588,0 29.73177,0 44.59766,0 0,-44.52428 0,-89.04856 0,-133.57284 -14.86589,0 -29.73178,0 -44.59766,0 0,-14.83443 0,-29.66887 0,-44.50331 -29.74226,0 -59.48453,0 -89.22678,0 z m 22.8335,21.85852 c 14.76105,0 29.5221,0 44.28315,0 0,59.6208 0,119.24162 0,178.86242 -14.76105,0 -29.5221,0 -44.28315,0 0,-59.6208 0,-119.24162 0,-178.86242 z m 66.86504,44.28315 c 6.79203,2.18536 22.76846,-4.81367 22.58189,4.35029 0,28.64861 0,57.29721 0,85.94583 -6.79203,-2.18537 -22.76845,4.81367 -22.58189,-4.35029 0,-28.64861 0,-57.29722 0,-85.94583 z"
   id="polygon49"
   inkscape:connector-curvature="0" />
</g>
<g
   id="LWPOLYLINE_16_"
   style="fill:#00b700;fill-opacity:1">
	
		
</g>

<g
   id="LWPOLYLINE_18_"
   style="stroke:none;fill:#00b700;fill-opacity:1">
	
		<path
   style="fill:#000000;fill-opacity:1;stroke:none"
   d="m 478.875,169.59375 c -52.67863,-1.74306 -97.34947,51.64064 -86.25713,103.21275 7.76863,53.96291 72.25478,88.38087 121.3757,64.64463 50.0473,-19.79691 68.80145,-88.84583 36.03095,-131.4054 C 533.84,183.51489 506.69826,169.31582 478.875,169.59375 z m -0.46875,17.4375 c 43.97676,-1.58768 80.23649,45.18183 67.51666,87.38158 -9.71893,44.60139 -67.77582,67.25691 -105.1664,41.11035 -37.79122,-22.3947 -43.00657,-80.86793 -9.97566,-109.72296 12.7926,-11.9403 30.11181,-18.84322 47.6254,-18.76897 z"
   id="polygon58"
   inkscape:connector-curvature="0" />
</g>
<g
   id="LWPOLYLINE_19_"
   style="stroke:none;fill:#00b7ff;fill-opacity:1">
	
		
</g>
<g
   id="LINE"
   style="fill:#000000;fill-opacity:0.93247586">
	
		
</g>
<g
   id="LINE_1_"
   style="fill:#000000;fill-opacity:0.93247586">
	
		<path
   style="fill:#000000;stroke:#000000;stroke-width:0.5;stroke-linecap:round;stroke-linejoin:round;stroke-miterlimit:10"
   d="m 417.78125,224.40625 c 20.20833,34.05208 40.41667,68.10417 60.625,102.15625 20.21875,-34.05208 40.4375,-68.10417 60.65625,-102.15625 -40.42708,0 -80.85417,0 -121.28125,0 z m 25.75,12.46875 c 24.09375,0 48.1875,0 72.28125,0 C 503.20833,257.91667 490.60417,278.95833 478,300 466.51042,278.95833 455.02083,257.91667 443.53125,236.875 z"
   id="line67"
   inkscape:connector-curvature="0" />
</g>
<g
   id="LINE_2_"
   style="fill:#000000;fill-opacity:0.93247586">
	
		<path
   style="fill:#000000;stroke:#000000;stroke-width:0.5;stroke-linecap:round;stroke-linejoin:round;stroke-miterlimit:10"
   d="m 478.41901,326.564 c 19.94033,-34.054 39.88065,-68.10801 59.82098,-102.16201"
   id="line70"
   inkscape:connector-curvature="0" />
</g>
<g
   id="LINE_3_"
   style="fill:#000000;fill-opacity:0.93247586">
	
		
</g>
<g
   id="LINE_4_"
   style="fill:#000000;fill-opacity:0.93247586">
	
		
</g>
<g
   id="LINE_5_"
   style="fill:#000070;fill-opacity:0.93247586000000005;stroke:none">
	
		
</g>
<g
   id="LWPOLYLINE_17_"
   style="fill:#00b700;fill-opacity:1">
	
		
</g></svg>