<?xml version="1.0" encoding="UTF-8" standalone="no"?>
<!-- Generator: Adobe Illustrator 16.0.1, SVG Export Plug-In . SVG Version: 6.00 Build 0)  -->

<svg
   xmlns:dc="http://purl.org/dc/elements/1.1/"
   xmlns:cc="http://creativecommons.org/ns#"
   xmlns:rdf="http://www.w3.org/1999/02/22-rdf-syntax-ns#"
   xmlns:svg="http://www.w3.org/2000/svg"
   xmlns="http://www.w3.org/2000/svg"
   xmlns:sodipodi="http://sodipodi.sourceforge.net/DTD/sodipodi-0.dtd"
   xmlns:inkscape="http://www.inkscape.org/namespaces/inkscape"
   version="1.0"
   id="_x31_"
   x="0px"
   y="0px"
   width="612px"
   height="792px"
   viewBox="0 0 612 792"
   enable-background="new 0 0 612 792"
   xml:space="preserve"
   inkscape:version="0.48.2 r9819"
   sodipodi:docname="7014.svg"><metadata
   id="metadata67"><rdf:RDF><cc:Work
       rdf:about=""><dc:format>image/svg+xml</dc:format><dc:type
         rdf:resource="http://purl.org/dc/dcmitype/StillImage" /></cc:Work></rdf:RDF></metadata><defs
   id="defs65" /><sodipodi:namedview
   pagecolor="#ffffff"
   bordercolor="#666666"
   borderopacity="1"
   objecttolerance="10"
   gridtolerance="10"
   guidetolerance="10"
   inkscape:pageopacity="0"
   inkscape:pageshadow="2"
   inkscape:window-width="1920"
   inkscape:window-height="1068"
   id="namedview63"
   showgrid="false"
   inkscape:zoom="0.42140707"
   inkscape:cx="177.37537"
   inkscape:cy="385.02883"
   inkscape:window-x="0"
   inkscape:window-y="0"
   inkscape:window-maximized="1"
   inkscape:current-layer="_x31_" />
<g
   id="LWPOLYLINE_6_"
   style="stroke:none;fill:#000000;fill-opacity:1">
	
		<path
   style="fill:#000000;fill-opacity:1;stroke:none"
   d="m 345.4375,414.375 c 0.31332,31.9163 -1.34074,66.19881 0.6875,96.625 17.04485,-0.91795 38.75385,4.00559 50.8125,-11.28125 8.64679,-15.64611 6.65397,-34.70443 6,-52 -0.10637,-13.71308 -5.88629,-30.69128 -21.53125,-32.6875 -11.87341,-1.40484 -24.01598,-0.31471 -35.96875,-0.65625 z m 11.46875,10.8125 c 10.82251,0.75655 26.65505,-3.582 31.65625,9.4374 4.15017,15.52075 2.51787,32.1141 1.78125,48.03125 -0.0988,13.23865 -13.47641,19.30597 -25.0625,17.4998 -2.97086,-0.83756 -9.87016,2.33432 -8.22192,-3.21758 -0.14599,-23.91639 -0.12855,-47.83511 -0.15308,-71.75087 z"
   id="path22"
   inkscape:connector-curvature="0" />
</g><g
   id="LWPOLYLINE_2_"
   style="stroke:none;fill:#000000;fill-opacity:1">
	
		<path
   style="fill:#000000;fill-opacity:1;stroke:none"
   d="m 157.125,414.34375 c -0.44245,32.11578 -0.0603,64.342 -0.1875,96.5 14.61941,6.04816 11.82688,-5.76639 11.65625,-14.7381 0.18762,-9.12958 -0.36997,-18.77569 0.25,-27.6056 14.0131,0.20375 32.32232,1.79878 39.46875,-13.37485 7.21919,-15.09887 1.06649,-39.17463 -18.21875,-40.40645 -10.94592,-0.82532 -21.99151,-0.16761 -32.96875,-0.375 z m 11.46875,10.84375 c 9.70267,0.73996 23.60071,-3.4447 28.5625,8.0311 5.36485,11.01326 -2.53073,25.83565 -15.4375,24.4686 -4.375,0 -8.75,0 -13.125,0 0,-10.83303 0,-21.66767 0,-32.4997 z"
   id="path10"
   inkscape:connector-curvature="0" />
</g><g
   id="LWPOLYLINE_13_"
   style="stroke:none;fill:#000000;fill-opacity:1">
	
		<path
   style="fill:#000000;fill-opacity:1;stroke:none"
   d="m 220.96875,146 c 0,14.88542 0,29.77083 0,44.65625 -59.6875,0 -119.375,0 -179.0625,0 2.238574,6.66541 -4.903341,22.7113 4.368189,22.34375 58.231441,0 116.462871,0 174.694311,0 0,29.78125 0,59.5625 0,89.34375 -59.6875,0 -119.375,0 -179.0625,0 2.242991,6.65057 -4.910246,22.69737 4.368189,22.3125 58.231441,0 116.462871,0 174.694311,0 0,14.88542 0,29.77083 0,44.65625 29.84375,0 59.6875,0 89.53125,0 0,-14.88542 0,-29.77083 0,-44.65625 14.91667,0 29.83333,0 44.75,0 0,-44.66667 0,-89.33333 0,-134 -14.91667,0 -29.83333,0 -44.75,0 0,-14.88542 0,-29.77083 0,-44.65625 -29.84375,0 -59.6875,0 -89.53125,0 z m 22.625,22.5 c 14.71875,0 29.4375,0 44.15625,0 0,59.4375 0,118.875 0,178.3125 -14.71875,0 -29.4375,0 -44.15625,0 0,-59.4375 0,-118.875 0,-178.3125 z M 310.25,212.65625 c 6.73894,2.21712 22.78174,-4.86962 22.5,4.36819 0,28.54394 0,57.08787 0,85.63181 -6.73894,-2.21712 -22.78174,4.86962 -22.5,-4.36819 0,-28.54394 0,-57.08787 0,-85.63181 z"
   id="polygon43"
   inkscape:connector-curvature="0" />
</g><g
   id="LWPOLYLINE"
   style="stroke:none;fill:#000000;fill-opacity:1">
	
		<path
   style="fill:#000000;fill-opacity:1;stroke:none"
   d="m 81.916,481.816 c -2.730374,14.10597 6.221675,30.03059 21.604,30.52 15.44812,2.96148 35.0722,-5.56626 34.954,-23.436 2.61697,-17.44633 -13.68355,-28.09473 -27.425,-34.265 -10.27542,-3.84781 -19.976798,-16.31985 -12.185,-26.692 7.54228,-9.63586 26.49485,-5.67717 26.143,7.89 -1.61009,7.12166 6.87488,3.4104 11.13,4.31 4.03139,-2.46582 0.4739,-11.86536 -1.304,-16.239 -9.69713,-16.13811 -37.548949,-14.71542 -47.606,0.406 -8.62904,13.66483 -1.542017,32.17224 12.861,38.419 10.51825,6.35699 28.74055,11.50368 25.653,27.303 -2.39097,16.73975 -31.485082,15.31429 -31.898,-1.953 1.308124,-9.24121 -3.876401,-5.79788 -11.927,-6.263 z"
   id="path4"
   inkscape:connector-curvature="0" />
</g>
<g
   id="LWPOLYLINE_1_"
   style="stroke:none;fill:#000000;fill-opacity:1">
	
		
</g>

<g
   id="LWPOLYLINE_3_"
   style="stroke:none;fill:#000000;fill-opacity:1">
	
		<path
   style="fill:#000000;fill-opacity:1;stroke:none"
   d="m 240.262,414.352 c -3.69428,0.45441 -9.0347,-0.94422 -11.68,0.691 0.22456,31.91117 -0.44758,64.37807 0.326,95.949 4.05377,-1.06456 13.20534,3.05201 11.21734,-4.15307 0.14628,-30.82865 0.11855,-61.658 0.13666,-92.48693 z"
   id="path13"
   inkscape:connector-curvature="0" />
</g>
<g
   id="LWPOLYLINE_4_"
   style="stroke:none;fill:#000000;fill-opacity:1">
	
		<path
   style="fill:#000000;fill-opacity:1;stroke:none"
   d="m 313.585,414.352 c -0.17751,26.91374 0.33939,56.54896 -0.244,81.872 -12.34962,-27.19448 -24.06059,-54.98773 -36.686,-81.872 -5.23015,0.51028 -12.17572,-1.02426 -16.395,0.691 0.21004,31.91785 -0.41867,64.33992 0.305,95.949 3.7048,-0.97104 12.05009,2.72724 10.521,-3.58 0.21245,-25.97864 -0.40176,-54.79153 0.285,-79.144 12.53353,27.52862 24.61886,55.45145 37.457,82.725 4.94609,-0.50638 11.69949,1.01878 15.575,-0.691 0,-31.929 0,-63.858 0,-95.787 l -5.40713,-0.14263 -5.41087,-0.0204 0,0 z"
   id="path16"
   inkscape:connector-curvature="0" />
</g>
<g
   id="LWPOLYLINE_5_"
   style="stroke:none;fill:#000000;fill-opacity:1">
	
		
</g>

<g
   id="LWPOLYLINE_7_"
   style="stroke:none;fill:#000000;fill-opacity:1">
	
		<path
   style="fill:#000000;fill-opacity:1;stroke:none"
   d="m 471.097,510.99 c -0.62464,-3.32124 1.30514,-9.03939 -0.976,-10.816 -11.34,0 -22.68,0 -34.02,0 -0.23132,-28.52338 0.44609,-57.67447 -0.325,-85.825 -3.57917,0.4587 -8.81531,-0.94514 -11.347,0.691 0,31.929 0,63.858 0,95.787 15.55404,0.2215 31.11242,0.12346 46.668,0.163 z"
   id="path25"
   inkscape:connector-curvature="0" />
</g>
<g
   id="LWPOLYLINE_8_"
   style="stroke:none;fill:#000000;fill-opacity:1">
	
		<path
   style="fill:#000000;fill-opacity:1;stroke:none"
   d="m 529.405,510.99 c -0.64522,-3.31355 1.35154,-9.11425 -1.017,-10.816 -11.89062,-0.43938 -25.50947,0.84947 -36.461,-0.529 0.19538,-10.81929 -0.38319,-22.41252 0.244,-32.8 11.14713,-0.26053 23.32817,0.51283 33.897,-0.326 -0.60633,-3.2114 1.25663,-8.80342 -0.935,-10.492 -10.80563,-0.4387 -23.33666,0.848 -33.206,-0.527 0.19594,-9.99106 -0.38377,-20.75777 0.244,-30.317 11.98885,-0.26015 25.01038,0.51238 36.421,-0.326 -0.50492,-3.26135 1.04534,-8.47872 -0.773,-10.492 -15.82867,0 -31.65733,0 -47.486,0 -0.19113,32.14975 -0.026,64.3203 -0.081,96.478 16.38282,0.19974 32.76899,0.11135 49.153,0.147 z"
   id="path28"
   inkscape:connector-curvature="0" />
</g>
<g
   id="LWPOLYLINE_9_"
   style="stroke:none;fill:#000000;fill-opacity:1">
	
		<path
   style="fill:#000000;fill-opacity:1;stroke:none"
   d="m 241.096,646 c -0.63685,-3.31646 1.33402,-9.08115 -0.998,-10.816 -11.33933,0 -22.67867,0 -34.018,0 -0.23198,-28.54399 0.44739,-57.6497 -0.326,-85.86 -3.56501,0.48223 -8.88544,-0.99591 -11.335,0.732 0,31.929 0,63.858 0,95.787 15.55704,0.2133 31.1185,0.11894 46.677,0.157 z"
   id="path31"
   inkscape:connector-curvature="0" />
</g>
<g
   id="LWPOLYLINE_10_"
   style="stroke:none;fill:#000000;fill-opacity:1">
	
		<path
   style="fill:#000000;fill-opacity:1;stroke:none"
   d="m 299.425,646 c -0.6627,-3.30955 1.39548,-9.18177 -1.057,-10.816 -11.88315,-0.43918 -25.49377,0.8491 -36.438,-0.529 0.19532,-10.81934 -0.38304,-22.41238 0.244,-32.8 11.15258,-0.26075 23.33972,0.51305 33.914,-0.326 -0.62833,-3.2222 1.30289,-8.84805 -0.976,-10.531 -10.81129,-0.41538 -23.25511,0.80177 -33.182,-0.498 0.21322,-9.98178 -0.41762,-20.80762 0.265,-30.32 11.97393,-0.26007 24.9801,0.5121 36.376,-0.326 -0.50835,-3.28114 1.04857,-8.44402 -0.773,-10.533 -15.81633,0 -31.63267,0 -47.449,0 -0.23818,32.15884 -0.0345,64.34832 -0.102,96.519 16.39087,0.21738 32.78571,0.12121 49.178,0.16 z"
   id="path34"
   inkscape:connector-curvature="0" />
</g>
<g
   id="LWPOLYLINE_11_"
   style="stroke:none;fill:#000000;fill-opacity:1">
	
		<path
   style="fill:#000000;fill-opacity:1;stroke:none"
   d="m 325.263,646 c 0.17501,-14.64966 -0.32846,-29.78707 0.244,-44.151 10.87593,-0.26074 22.78643,0.5131 33.084,-0.326 -0.6073,-3.23038 1.25605,-8.7727 -0.935,-10.531 -10.552,-0.40967 -22.71479,0.79146 -32.393,-0.492 0.19591,-9.99209 -0.38394,-20.75994 0.244,-30.32 11.43274,-0.26059 23.89943,0.51276 34.754,-0.326 -0.48547,-3.29105 0.99894,-8.36602 -0.732,-10.533 -15.28667,0 -30.57333,0 -45.86,0 -0.18914,32.16406 -0.0274,64.34747 -0.081,96.519 3.88609,0.22811 7.78435,0.11602 11.675,0.16 z"
   id="path37"
   inkscape:connector-curvature="0" />
</g>
<g
   id="LWPOLYLINE_12_"
   style="stroke:none;fill:#000000;fill-opacity:1">
	
		<path
   style="fill:#000000;fill-opacity:1;stroke:none"
   d="m 361.925,549.32 c 0.64566,3.34241 -1.36975,9.17506 1.057,10.859 7.75055,0.49366 16.99651,-0.95788 23.922,0.609 0.26137,28.31194 -0.50329,57.29179 0.366,85.208 3.89386,-0.4246 9.01969,0.86272 12.16,-0.609 0.26143,-28.30058 -0.50338,-57.34275 0.366,-85.204 7.65091,-0.5554 17.11001,1.08825 23.757,-0.691 -0.71919,-4.539 2.83403,-13.32981 -5.68104,-10.12587 -18.64894,-0.044 -37.29797,-0.0418 -55.94696,-0.0461 z"
   id="path40"
   inkscape:connector-curvature="0" />
</g>

<g
   id="LWPOLYLINE_14_">
	
		
</g>
<g
   id="LWPOLYLINE_15_">
	
		
</g>
<g
   id="ARC"
   style="stroke:none;fill:#000000;fill-opacity:1">
	
		<path
   style="fill:#000000;fill-opacity:1;stroke:none"
   d="m 428.819,316.594 c 33.71482,35.97568 98.31157,31.04144 126.16575,-9.65488 30.26663,-38.72715 15.7941,-101.58599 -28.46353,-123.07126 -31.25115,-16.96233 -72.94223,-10.70601 -97.70222,14.86814 9.47335,16.62135 18.35983,6.87468 30.87074,-1.55261 37.21594,-18.86843 87.00085,6.51962 93.51904,47.75054 9.39451,40.60399 -27.11099,82.80325 -68.6479,79.31959 -18.48902,4.70819 -35.87292,-20.69534 -48.06373,-15.32466 -2.55938,2.55505 -5.11877,5.11009 -7.67815,7.66514 z"
   id="path52"
   inkscape:connector-curvature="0" />
</g>
<g
   id="ARC_1_">
	
		
</g>
<g
   id="LWPOLYLINE_16_"
   style="stroke:none;fill:#000000;fill-opacity:1">
	
		<path
   style="fill:#000000;fill-opacity:1;stroke:none"
   d="m 463.568,220.158 c -21.403,8.05667 -42.806,16.11333 -64.209,24.17 7.46,-21.99967 14.92,-43.99933 22.38,-65.999 13.943,13.943 27.886,27.886 41.829,41.829 z"
   id="polygon58"
   inkscape:connector-curvature="0" />
</g>

</svg>