<?xml version="1.0" encoding="UTF-8" standalone="no"?>
<!-- Generator: Adobe Illustrator 16.0.1, SVG Export Plug-In . SVG Version: 6.00 Build 0)  -->

<svg
   xmlns:dc="http://purl.org/dc/elements/1.1/"
   xmlns:cc="http://creativecommons.org/ns#"
   xmlns:rdf="http://www.w3.org/1999/02/22-rdf-syntax-ns#"
   xmlns:svg="http://www.w3.org/2000/svg"
   xmlns="http://www.w3.org/2000/svg"
   xmlns:sodipodi="http://sodipodi.sourceforge.net/DTD/sodipodi-0.dtd"
   xmlns:inkscape="http://www.inkscape.org/namespaces/inkscape"
   version="1.0"
   id="_x31_"
   x="0px"
   y="0px"
   width="612px"
   height="792px"
   viewBox="0 0 612 792"
   enable-background="new 0 0 612 792"
   xml:space="preserve"
   inkscape:version="0.48.2 r9819"
   sodipodi:docname="7016.svg"><metadata
   id="metadata22"><rdf:RDF><cc:Work
       rdf:about=""><dc:format>image/svg+xml</dc:format><dc:type
         rdf:resource="http://purl.org/dc/dcmitype/StillImage" /></cc:Work></rdf:RDF></metadata><defs
   id="defs20" /><sodipodi:namedview
   pagecolor="#ffffff"
   bordercolor="#666666"
   borderopacity="1"
   objecttolerance="10"
   gridtolerance="10"
   guidetolerance="10"
   inkscape:pageopacity="0"
   inkscape:pageshadow="2"
   inkscape:window-width="1448"
   inkscape:window-height="925"
   id="namedview18"
   showgrid="false"
   inkscape:zoom="0.42140707"
   inkscape:cx="-319.52495"
   inkscape:cy="530.95364"
   inkscape:window-x="314"
   inkscape:window-y="112"
   inkscape:window-maximized="0"
   inkscape:current-layer="_x31_" />
<g
   id="LWPOLYLINE"
   style="stroke:none;fill:#000000;fill-opacity:1">
	
		<rect
   x="501.14"
   y="145.5"
   fill="none"
   stroke="#000000"
   stroke-width="0.7087"
   stroke-linecap="round"
   stroke-linejoin="round"
   stroke-miterlimit="10"
   width="29.922"
   height="151.68"
   id="rect4"
   style="stroke:none;fill:#000000;fill-opacity:1" />
</g>
<g
   id="LWPOLYLINE_1_"
   style="stroke:none;fill:#000000;fill-opacity:1">
	
		<polygon
   fill="none"
   stroke="#000000"
   stroke-width="0.7087"
   stroke-linecap="round"
   stroke-linejoin="round"
   stroke-miterlimit="10"
   points="   81.938,235.559 343.244,235.559 343.244,284.217 501.14,221.814 343.244,160.461 343.244,208.049 81.938,208.049  "
   id="polygon7"
   style="stroke:none;fill:#000000;fill-opacity:1" />
</g>
<g
   id="LWPOLYLINE_2_"
   style="stroke:none;fill:#000000;fill-opacity:1">
	
		<path
   fill="none"
   stroke="#000000"
   stroke-width="0.7087"
   stroke-linecap="round"
   stroke-linejoin="round"
   stroke-miterlimit="10"
   d="   M243.269,642.527c0.146,0,0.342,0,0.342,0h0.268h0.341h0.391h0.463h0.512h0.561h0.608h0.634h0.707h0.706h0.756h0.779h0.78h0.804   h0.828h0.829h0.853h0.828h0.829h0.828h0.804h0.805h0.779h0.731h0.73h0.683h0.658h0.584h0.561h0.512h0.463h0.391h0.341h0.268   c0.195,0,0.317,0,0.317,0c0.049,0,0.049-0.342,0.049-0.342v-0.877v-1.512v-2.047v-2.533v-3.021v-3.461v-3.85v-4.287v-4.582v-4.922   v-5.215v-5.457v-5.703v-5.896v-6.043v-6.141v-6.285v-6.336v-6.336v-6.334v-6.336v-6.287v-6.139v-6.043v-5.898v-5.701v-5.457v-5.215   v-4.922v-4.582v-4.287v-3.852v-3.459v-3.021v-2.533v-2.047v-1.512v-0.877v-0.342c-0.171,0-0.342,0-0.342,0h-0.268h-0.316h-0.366   h-0.438h-0.487h-0.536h-0.585h-0.608h-0.658h-0.683h-0.73h-0.731h-0.755h-0.78h-0.779h-0.805h-0.779h-0.804h-0.805h-0.779h-0.78   h-0.755h-0.731h-0.73h-0.683h-0.658h-0.608h-0.585h-0.536h-0.487h-0.414h-0.391h-0.316h-0.268c-0.171,0-0.293,0-0.293,0   c-0.049,0-0.73,0.635-0.73,0.635l-0.731,0.633l-0.73,0.633l-0.756,0.635l-0.779,0.633l-0.805,0.682l-0.828,0.635l-0.853,0.682   l-0.854,0.682l-0.877,0.635l-0.901,0.682l-0.926,0.682l-0.926,0.684l-0.95,0.682l-0.976,0.682l-0.975,0.732l-0.999,0.682   l-0.999,0.682l-1.023,0.684l-1.047,0.73l-1.048,0.682l-1.072,0.684l-1.072,0.682l-1.097,0.682l-1.097,0.73l-1.12,0.684   l-1.121,0.682l-1.121,0.682l-1.146,0.684l-1.145,0.682l-1.17,0.633l-1.17,0.684l-1.169,0.682l-1.194,0.633l-1.17,0.684   l-1.193,0.633l-1.219,0.633l-1.193,0.635l-1.219,0.633l-1.219,0.635c0,0.145,0,0.389,0,0.389v0.293v0.389v0.439v0.488v0.535v0.633   v0.684v0.73v0.73v0.828v0.781v0.877v0.877v0.877v0.926v0.926v0.926v0.926v0.926v0.926v0.879v0.877v0.877v0.828v0.779v0.73v0.732   v0.682v0.633v0.537v0.486v0.439v0.391v0.291c0,0.244,0,0.342,0,0.342c0,0.049,0.927-0.342,0.927-0.342l0.926-0.389l0.95-0.439   l0.975-0.438l0.975-0.488l0.975-0.486l0.999-0.488l0.999-0.535l0.999-0.537l1.023-0.535l1.023-0.537l1.048-0.584l1.023-0.586   l1.048-0.584l1.048-0.586l1.047-0.633l1.048-0.633l1.048-0.635l1.048-0.633l1.048-0.633l1.023-0.684l1.048-0.682l1.048-0.633   l1.023-0.684l1.048-0.682l0.999-0.682l1.023-0.732l0.999-0.682l1.023-0.682l0.975-0.73l0.975-0.684l0.975-0.73l0.95-0.682   l0.95-0.732l0.926-0.682l0.926-0.73l0.878-0.684l0.901-0.73l0.853-0.682l0.853-0.682V642.527z"
   id="path10"
   style="stroke:none;fill:#000000;fill-opacity:1" />
</g>
<g
   id="LWPOLYLINE_3_">
	
		<path
   d="M 356.40625 469.875 L 352.65625 469.96875 L 349.09375 470.25 L 345.71875 470.75 L 342.46875 471.4375 L 339.40625 472.25 L 336.46875 473.28125 L 333.65625 474.4375 L 331 475.75 L 328.46875 477.21875 L 326.125 478.875 L 323.90625 480.59375 L 321.75 482.5 L 319.75 484.5 L 317.90625 486.59375 L 316.15625 488.78125 L 314.5 491.0625 L 312.9375 493.4375 L 311.53125 495.875 L 310.1875 498.46875 L 308.9375 501.0625 L 307.8125 503.71875 L 306.78125 506.46875 L 305.8125 509.1875 L 304.9375 512.03125 L 304.15625 514.84375 L 303.4375 517.71875 L 302.78125 520.59375 L 302.21875 523.46875 L 301.71875 526.34375 L 301.28125 529.21875 L 300.90625 532.09375 L 300.5625 534.9375 L 300.3125 537.75 L 300.0625 540.53125 L 299.875 543.3125 L 299.71875 546 L 299.625 548.625 L 299.59375 551.1875 L 299.53125 553.71875 L 299.53125 556.125 L 299.53125 559 L 299.59375 561.9375 L 299.6875 564.90625 L 299.8125 567.875 L 300.03125 570.875 L 300.25 573.90625 L 300.5 576.96875 L 300.84375 580.0625 L 301.25 583.0625 L 301.71875 586.15625 L 302.21875 589.15625 L 302.78125 592.1875 L 303.46875 595.21875 L 304.15625 598.1875 L 305 601.09375 L 305.8125 604.03125 L 306.78125 606.84375 L 307.8125 609.6875 L 308.9375 612.40625 L 310.09375 615.09375 L 311.375 617.6875 L 312.78125 620.21875 L 314.25 622.65625 L 315.8125 624.96875 L 317.46875 627.28125 L 319.28125 629.40625 L 321.125 631.46875 L 323.125 633.40625 L 325.21875 635.21875 L 327.46875 636.875 L 329.75 638.4375 L 332.1875 639.84375 L 334.75 641.15625 L 337.4375 642.28125 L 340.28125 643.21875 L 343.25 644.03125 L 346.3125 644.65625 L 349.53125 645.09375 L 352.90625 645.40625 L 356.40625 645.5 L 359.875 645.40625 L 363.21875 645.09375 L 366.5 644.65625 L 369.5625 644.03125 L 372.53125 643.21875 L 375.34375 642.28125 L 378.09375 641.15625 L 380.6875 639.84375 L 383.15625 638.4375 L 385.5 636.875 L 387.75 635.21875 L 389.875 633.40625 L 391.875 631.46875 L 393.78125 629.40625 L 395.59375 627.28125 L 397.34375 624.96875 L 398.90625 622.65625 L 400.46875 620.21875 L 401.875 617.6875 L 403.1875 615.09375 L 404.40625 612.40625 L 405.5625 609.6875 L 406.59375 606.84375 L 407.625 604.03125 L 408.5 601.09375 L 409.3125 598.1875 L 410.09375 595.21875 L 410.78125 592.1875 L 411.375 589.15625 L 411.90625 586.15625 L 412.40625 583.0625 L 412.84375 580.0625 L 413.1875 576.96875 L 413.53125 573.90625 L 413.75 570.875 L 413.96875 567.875 L 414.09375 564.90625 L 414.1875 561.9375 L 414.25 559 L 414.3125 556.125 L 414.3125 553.71875 L 414.25 551.1875 L 414.15625 548.625 L 414.0625 546 L 413.90625 543.3125 L 413.75 540.53125 L 413.53125 537.75 L 413.21875 534.9375 L 412.875 532.09375 L 412.5 529.21875 L 412.0625 526.34375 L 411.5625 523.46875 L 410.96875 520.59375 L 410.3125 517.71875 L 409.625 514.84375 L 408.78125 512.03125 L 407.90625 509.1875 L 406.9375 506.46875 L 405.875 503.71875 L 404.75 501.0625 L 403.46875 498.46875 L 402.125 495.875 L 400.65625 493.4375 L 399.09375 491.0625 L 397.4375 488.78125 L 395.625 486.59375 L 393.71875 484.5 L 391.6875 482.5 L 389.53125 480.59375 L 387.25 478.875 L 384.8125 477.21875 L 382.28125 475.75 L 379.5625 474.4375 L 376.71875 473.28125 L 373.6875 472.25 L 370.59375 471.4375 L 367.28125 470.75 L 363.8125 470.25 L 360.15625 469.96875 L 356.40625 469.875 z M 356.40625 489.34375 L 358.34375 489.40625 L 360.25 489.59375 L 362.09375 489.84375 L 363.84375 490.25 L 365.5625 490.6875 L 367.21875 491.25 L 368.78125 491.9375 L 370.25 492.6875 L 371.71875 493.5625 L 373.0625 494.46875 L 374.375 495.5625 L 375.59375 496.65625 L 376.78125 497.875 L 377.9375 499.1875 L 379 500.5625 L 380 502.0625 L 380.96875 503.625 L 381.875 505.25 L 382.71875 506.9375 L 383.5625 508.75 L 384.28125 510.59375 L 384.96875 512.5625 L 385.65625 514.59375 L 386.21875 516.65625 L 386.8125 518.78125 L 387.3125 521.03125 L 387.78125 523.3125 L 388.21875 525.65625 L 388.625 528.0625 L 388.96875 530.53125 L 389.25 533.0625 L 389.53125 535.65625 L 389.78125 538.28125 L 389.96875 540.96875 L 390.125 543.75 L 390.28125 546.53125 L 390.375 549.40625 L 390.46875 552.28125 L 390.53125 555.1875 L 390.53125 558.21875 L 390.53125 560.5 L 390.46875 562.84375 L 390.40625 565.25 L 390.3125 567.5625 L 390.21875 569.96875 L 390.0625 572.34375 L 389.9375 574.6875 L 389.75 577.0625 L 389.5 579.40625 L 389.25 581.8125 L 388.96875 584.15625 L 388.625 586.4375 L 388.21875 588.71875 L 387.78125 590.96875 L 387.34375 593.21875 L 386.8125 595.34375 L 386.28125 597.5 L 385.6875 599.59375 L 385 601.625 L 384.3125 603.625 L 383.5625 605.59375 L 382.71875 607.4375 L 381.84375 609.25 L 380.90625 611 L 379.90625 612.65625 L 378.8125 614.25 L 377.6875 615.78125 L 376.53125 617.1875 L 375.25 618.5 L 373.9375 619.71875 L 372.53125 620.875 L 371.0625 621.90625 L 369.5 622.84375 L 367.84375 623.65625 L 366.15625 624.34375 L 364.40625 624.9375 L 362.5 625.375 L 360.53125 625.71875 L 358.5 625.90625 L 356.40625 626 L 354.34375 625.90625 L 352.34375 625.71875 L 350.46875 625.375 L 348.65625 624.9375 L 346.9375 624.34375 L 345.28125 623.65625 L 343.71875 622.84375 L 342.21875 621.90625 L 340.8125 620.875 L 339.4375 619.71875 L 338.125 618.5 L 336.90625 617.1875 L 335.78125 615.78125 L 334.65625 614.25 L 333.65625 612.65625 L 332.65625 611 L 331.75 609.25 L 330.90625 607.4375 L 330.125 605.59375 L 329.34375 603.625 L 328.6875 601.625 L 328.03125 599.59375 L 327.46875 597.5 L 326.90625 595.34375 L 326.375 593.21875 L 325.9375 590.96875 L 325.5625 588.71875 L 325.15625 586.4375 L 324.8125 584.15625 L 324.53125 581.8125 L 324.28125 579.40625 L 324.03125 577.0625 L 323.84375 574.6875 L 323.6875 572.34375 L 323.5625 569.96875 L 323.46875 567.5625 L 323.40625 565.25 L 323.375 562.84375 L 323.3125 560.5 L 323.3125 558.21875 L 323.3125 555.1875 L 323.375 552.28125 L 323.40625 549.40625 L 323.5 546.53125 L 323.65625 543.75 L 323.8125 540.96875 L 324.03125 538.28125 L 324.25 535.65625 L 324.53125 533.0625 L 324.8125 530.53125 L 325.15625 528.0625 L 325.5625 525.65625 L 326 523.3125 L 326.4375 521.03125 L 326.96875 518.78125 L 327.5 516.65625 L 328.09375 514.59375 L 328.71875 512.5625 L 329.40625 510.59375 L 330.125 508.75 L 330.90625 506.9375 L 331.75 505.25 L 332.625 503.625 L 333.5625 502.0625 L 334.5625 500.5625 L 335.59375 499.1875 L 336.65625 497.875 L 337.84375 496.65625 L 339.0625 495.5625 L 340.3125 494.46875 L 341.625 493.5625 L 343 492.6875 L 344.46875 491.9375 L 345.96875 491.25 L 347.53125 490.6875 L 349.1875 490.25 L 350.90625 489.84375 L 352.65625 489.59375 L 354.5 489.40625 L 356.40625 489.34375 z "
   id="polygon13" />
</g>
<g
   id="LWPOLYLINE_4_">
	
		
</g>
</svg>