<?xml version="1.0" encoding="UTF-8" standalone="no"?>
<!-- Generator: Adobe Illustrator 16.0.1, SVG Export Plug-In . SVG Version: 6.00 Build 0)  -->

<svg
   xmlns:dc="http://purl.org/dc/elements/1.1/"
   xmlns:cc="http://creativecommons.org/ns#"
   xmlns:rdf="http://www.w3.org/1999/02/22-rdf-syntax-ns#"
   xmlns:svg="http://www.w3.org/2000/svg"
   xmlns="http://www.w3.org/2000/svg"
   xmlns:sodipodi="http://sodipodi.sourceforge.net/DTD/sodipodi-0.dtd"
   xmlns:inkscape="http://www.inkscape.org/namespaces/inkscape"
   version="1.0"
   id="_x31_"
   x="0px"
   y="0px"
   width="612px"
   height="792px"
   viewBox="0 0 612 792"
   enable-background="new 0 0 612 792"
   xml:space="preserve"
   inkscape:version="0.48.2 r9819"
   sodipodi:docname="7017.svg"><metadata
   id="metadata103"><rdf:RDF><cc:Work
       rdf:about=""><dc:format>image/svg+xml</dc:format><dc:type
         rdf:resource="http://purl.org/dc/dcmitype/StillImage" /></cc:Work></rdf:RDF></metadata><defs
   id="defs101" /><sodipodi:namedview
   pagecolor="#ffffff"
   bordercolor="#666666"
   borderopacity="1"
   objecttolerance="10"
   gridtolerance="10"
   guidetolerance="10"
   inkscape:pageopacity="0"
   inkscape:pageshadow="2"
   inkscape:window-width="1920"
   inkscape:window-height="1068"
   id="namedview99"
   showgrid="false"
   inkscape:zoom="0.5959596"
   inkscape:cx="800.57841"
   inkscape:cy="350.79495"
   inkscape:window-x="0"
   inkscape:window-y="0"
   inkscape:window-maximized="1"
   inkscape:current-layer="_x31_" />
<g
   id="LWPOLYLINE_2_"
   style="stroke:none;fill:#000000;fill-opacity:1">
	
		<path
   style="fill:#000000;fill-opacity:1;stroke:none"
   d="m 145.21875,552.71875 c 0.31567,30.24682 -0.62921,61.75418 0.4687,91.21875 14.67805,-1.11913 30.49836,2.85075 44.25,-3.656 12.14165,-7.85454 13.72342,-27.55473 5.06255,-38.50025 -2.47228,-3.88307 -13.25086,-6.87554 -12,-6.0625 15.99155,-3.91126 17.89668,-25.70207 8.15655,-36.6875 -8.99871,-10.05296 -24.22739,-5.00049 -35.96905,-6.3122 -3.32273,-2.9e-4 -6.64654,5e-4 -9.96875,-3e-4 z M 156.25,562.9375 c 9.58082,0.84593 23.23659,-3.35042 28.59375,7.37485 4.757,9.63916 -3.02984,22.52336 -14.21875,20.9374 -4.78125,0 -9.5625,0 -14.34375,0 -0.0477,-9.4372 -0.0246,-18.87575 -0.0312,-28.31225 z m 0,37.71875 c 10.65659,0.49717 25.77565,-2.75348 30.96875,9.3436 4.96526,10.8624 -3.26749,25.36347 -15.9374,23.68745 -4.97917,0 -9.95833,0 -14.9375,0 -0.14823,-11.00893 -0.0726,-22.02188 -0.0939,-33.03105 z"
   id="path10"
   inkscape:connector-curvature="0" />
</g><g
   id="LWPOLYLINE"
   style="stroke:none;fill:#000000;fill-opacity:1">
	
		
</g>
<g
   id="LWPOLYLINE_1_"
   style="stroke:none;fill:#000000;fill-opacity:1">
	
		
</g>

<g
   id="LWPOLYLINE_3_"
   style="stroke:none;fill:#000000;fill-opacity:1">
	
		<path
   style="fill:#000000;fill-opacity:1;stroke:none"
   d="m 263.947,643.926 c -0.36514,-3.25308 0.75105,-7.81205 -0.537,-10.254 -10.83167,0 -21.66333,0 -32.495,0 -0.20754,-26.91955 0.41567,-54.35328 -0.307,-80.954 -3.37059,0.43381 -8.30628,-0.8932 -10.689,0.652 0,30.12067 0,60.24133 0,90.362 14.6725,0.2726 29.353,0.14287 44.028,0.194 z"
   id="path13"
   inkscape:connector-curvature="0" />
</g>
<g
   id="LWPOLYLINE_4_"
   style="stroke:none;fill:#000000;fill-opacity:1">
	
		<path
   style="fill:#000000;fill-opacity:1;stroke:none"
   d="m 299.3125,551.15625 c -14.48006,-1.23031 -28.33027,10.16711 -28.125,25.125 0.21909,17.05884 -1.85787,34.51863 1.96865,51.28125 4.1334,18.39045 28.06845,22.11751 42.5,14 15.68822,-11.4271 11.16333,-32.97342 11.9375,-49.71875 0.52308,-13.55445 0.77726,-31.31567 -13.84375,-37.8125 -4.47028,-2.15428 -9.51564,-2.85872 -14.4374,-2.875 z m -1,9.4375 c 11.57001,-1.50097 19.08155,10.40629 17.5312,20.9685 -1.01912,15.73797 2.47118,32.29035 -2.9999,47.40625 -6.212,11.96665 -28.3863,8.56426 -29,-5.84375 -1.9037,-15.88435 -1.07237,-32.06494 -0.6875,-48.03125 0.69901,-8.01247 6.98646,-14.54603 15.1562,-14.49975 z"
   id="path16"
   inkscape:connector-curvature="0" />
</g>
<g
   id="LWPOLYLINE_5_"
   style="stroke:none;fill:#000000;fill-opacity:1">
	
		
</g>
<g
   id="LWPOLYLINE_6_"
   style="stroke:none;fill:#000000;fill-opacity:1">
	
		<path
   style="fill:#000000;fill-opacity:1;stroke:none"
   d="m 397.589,577.863 c 2.11268,-11.47243 -3.5528,-25.72664 -16.774,-26.293 -13.33388,-2.28234 -30.67845,2.1832 -33.472,17.465 -3.0348,16.05524 -1.44008,32.6551 -1.23829,48.91158 0.15909,13.20178 8.73206,28.0613 23.54129,27.44142 11.71569,1.73559 25.80893,-3.33412 28.217,-16.237 0.29746,-3.63136 3.44209,-11.57156 -0.23,-12.744 -3.17039,0.74556 -8.91946,-1.58179 -10.293,1.305 1.0729,9.77823 -6.72331,20.65266 -17.276,18.156 -12.73875,-1.68358 -12.61282,-17.52322 -12.589,-27.484 0.94668,-13.71458 -2.24764,-28.40671 2.835,-41.5 6.11804,-9.43616 25.04009,-8.51114 25.791,4.463 0.86557,3.07079 -1.08977,8.38994 4.17132,6.529 2.4355,-0.007 4.90248,0.0157 7.31668,-0.013 z"
   id="path22"
   inkscape:connector-curvature="0" />
</g>
<g
   id="LWPOLYLINE_7_"
   style="stroke:none;fill:#000000;fill-opacity:1">
	
		<path
   style="fill:#000000;fill-opacity:1;stroke:none"
   d="m 414.863,643.926 c 3.44703,-0.50304 8.76974,1.04596 11.022,-0.768 0.28524,-15.62284 -0.57575,-32.15325 0.421,-47.213 10.86442,15.36738 20.49419,32.43798 31.282,47.982 4.57469,-0.2889 10.85141,0.5762 14.436,-0.384 -11.23397,-16.76786 -23.56808,-33.40356 -34.13,-50.249 10.42011,-13.42719 22.10951,-27.43209 31.666,-40.573 -5.44115,0.80654 -12.97475,-2.64941 -15.43,4.184 -9.43156,11.79346 -18.19363,24.86106 -28.018,35.892 -0.74783,-12.8844 0.33756,-27.26773 -0.538,-40.076 -3.533,0 -7.066,0 -10.599,0 -0.1542,30.40118 -0.0843,60.80343 -0.112,91.205 z"
   id="path25"
   inkscape:connector-curvature="0" />
</g>
<g
   id="LINE">
	
		
</g>
<g
   id="LINE_1_">
	
		
</g>
<g
   id="LINE_2_">
	
		
</g>
<g
   id="LINE_3_">
	
		
</g>
<g
   id="LINE_4_">
	
		
</g>
<g
   id="LINE_5_">
	
		
</g>
<g
   id="LINE_6_">
	
		
</g>
<g
   id="LINE_7_">
	
		<path
   style="fill:#000000;fill-opacity:1;stroke:none"
   d="m 393.67401,145.5 c -71.54567,0 -143.09134,0 -214.63701,0 0.90945,6.57897 -1.76787,16.74471 1.23725,21.228 65.88725,0 131.7745,0 197.66175,0 0,66.037 0,132.07399 0,198.11099 -66.29967,0 -132.59933,0 -198.899,0 0.91109,6.57099 -1.77011,16.73429 1.23725,21.20901 71.13325,0 142.26651,0 213.39976,0 12.30933,-40.2195 24.61865,-80.43901 36.92798,-120.65851 C 418.29266,225.42633 405.98334,185.46316 393.67401,145.5 z"
   id="line49"
   inkscape:connector-curvature="0" />
</g>
<g
   id="LINE_8_">
	
		
</g>
<g
   id="LINE_9_">
	
		
</g>
<g
   id="LINE_10_">
	
		
</g>
<g
   id="LINE_11_">
	
		
</g>
<g
   id="LINE_12_"
   style="stroke:none;fill:#000000;fill-opacity:0.21864952">
	
		<path
   style="fill:#000000;fill-opacity:1;stroke:none"
   d="m 179.03125,180.875 c 0,56.07292 0,112.14583 0,168.21875 56.07292,0 112.14583,0 168.21875,0 0,-56.07292 0,-112.14583 0,-168.21875 -56.07292,0 -112.14583,0 -168.21875,0 z m 15.71875,16.5 c 45.60417,0 91.20833,0 136.8125,0 0,45.33333 0,90.66667 0,136 -45.60417,0 -91.20833,0 -136.8125,0 0,-45.33333 0,-90.66667 0,-136 z"
   id="line64"
   inkscape:connector-curvature="0" />
</g>
<g
   id="LINE_13_">
	
		
</g>
<g
   id="LINE_14_">
	
		
</g>
<g
   id="LINE_15_">
	
		
</g>
<g
   id="LINE_16_">
	
		
</g>
<g
   id="LWPOLYLINE_8_"
   style="stroke:none;fill:#000000;fill-opacity:1">
	
		<path
   style="fill:#000000;fill-opacity:1;stroke:none"
   d="m 194.756,257.856 c 24.452,0 48.904,0 73.356,0 0,-8.63033 0,-17.26067 0,-25.891 20.88233,11.09367 41.76467,22.18733 62.647,33.281 -20.88233,10.921 -41.76467,21.842 -62.647,32.763 0,-8.45167 0,-16.90333 0,-25.355 -24.452,0 -48.904,0 -73.356,0 0,-4.93267 0,-9.86533 0,-14.798 z"
   id="polygon79"
   inkscape:connector-curvature="0" />
</g>
<g
   id="LWPOLYLINE_9_"
   style="stroke:none;fill:#000000;fill-opacity:1">
	
		<path
   style="fill:#000000;fill-opacity:1;stroke:none"
   d="m 124.011,486.696 c -1.51797,12.88951 6.12177,27.33575 20.055,28.484 14.40533,3.05704 33.87682,-2.86385 35.375,-19.843 3.18975,-13.76437 -6.76453,-26.01547 -18.886,-31.131 -9.45074,-4.94837 -24.86424,-10.5555 -22.07,-24.032 2.60371,-14.4237 28.60659,-13.34454 28.543,2.072 -0.8005,4.07807 1.18827,4.96086 4.8,4.337 3.38274,-0.23417 9.07806,1.58732 7.215,-4.07 0.90581,-13.23148 -11.02996,-23.74246 -23.931,-22.647 -15.05361,-1.74215 -30.69779,10.4259 -28.6852,26.37836 0.72063,17.6437 20.1596,22.90637 32.6212,30.70364 10.92997,4.70007 12.57726,22.82306 0.766,27.254 -9.61813,4.14989 -23.81613,-0.45863 -23.877,-12.477 1.8815,-8.234 -6.31205,-4.18901 -11.926,-5.029 z"
   id="path82"
   inkscape:connector-curvature="0" />
</g>
<g
   id="LWPOLYLINE_10_"
   style="stroke:none;fill:#000000;fill-opacity:1">
	
		<path
   style="fill:#000000;fill-opacity:1;stroke:none"
   d="m 206.56,422.207 c -3.75646,0.46437 -8.94805,-0.95952 -11.803,0.691 0.22305,30.35499 -0.45316,61.28132 0.326,91.283 3.76167,0 7.52333,0 11.285,0 0.26433,-30.65659 0.14449,-61.31629 0.192,-91.974 z"
   id="path85"
   inkscape:connector-curvature="0" />
</g>
<g
   id="LWPOLYLINE_11_"
   style="stroke:none;fill:#000000;fill-opacity:1">
	
		<path
   style="fill:#000000;fill-opacity:1;stroke:none"
   d="m 279.667,422.207 c -0.1854,25.43055 0.36624,53.38568 -0.27,77.272 -12.21266,-25.63593 -23.64745,-52.22867 -36.35,-77.272 -5.34167,0 -10.68333,0 -16.025,0 0.16475,30.59094 -0.43286,61.70682 0.288,91.974 3.39045,-0.38844 8.16067,0.79692 10.688,-0.576 0,-26.48633 0,-52.97267 0,-79.459 12.56674,26.55838 24.4206,53.74462 37.195,80.035 4.93429,-0.48157 11.48777,0.96663 15.468,-0.652 0,-30.37667 0,-60.75333 0,-91.13 -3.65614,-0.27364 -7.33088,-0.13927 -10.994,-0.192 z"
   id="path88"
   inkscape:connector-curvature="0" />
</g>
<g
   id="LWPOLYLINE_12_"
   style="stroke:none;fill:#000000;fill-opacity:1">
	
		<path
   style="fill:#000000;fill-opacity:1;stroke:none"
   d="m 366.15,446.583 c 1.45673,-11.58993 -5.00826,-24.69095 -17.734,-25.835 -14.72039,-3.32866 -34.36509,0.95388 -38.234,17.811 -2.88092,15.51369 -0.98258,31.53087 -1.266,47.252 -0.21877,13.73825 8.05113,29.22532 23.338,29.634 11.5316,1.09455 24.24509,-0.88386 33.893,-7.059 -0.31243,-14.6921 0.62146,-30.45623 -0.459,-44.488 -9.41847,0.21653 -19.69394,-0.42394 -28.636,0.269 0.48791,3.0873 -1.00084,7.98314 0.729,9.94 5.32045,0.37623 12.01299,-0.7279 16.581,0.461 -0.50882,9.04148 0.9881,19.04411 -0.614,27.562 -7.87198,4.311 -18.90383,5.05818 -26.755,0.453 -9.94005,-10.57909 -5.24571,-26.72552 -6.449,-39.8 0.24652,-10.91357 -2.59402,-27.41619 10.67,-31.859 8.97501,-2.89437 22.24398,0.37871 22.147,11.783 -1.49206,7.23531 8.57702,2.56046 12.789,3.876 z"
   id="path91"
   inkscape:connector-curvature="0" />
</g>
<g
   id="LWPOLYLINE_13_"
   style="stroke:none;fill:#000000;fill-opacity:1">
	
		<path
   style="fill:#000000;fill-opacity:1;stroke:none"
   d="m 430.602,514.181 c -0.36738,-3.2382 0.75375,-7.79207 -0.538,-10.216 -11.35,0 -22.7,0 -34.05,0 -0.23401,-27.17638 0.46861,-54.96271 -0.346,-81.761 -3.63328,0.46943 -8.71132,-0.96208 -11.445,0.691 0,30.37667 0,60.75333 0,91.13 15.45752,0.21917 30.91995,0.11491 46.379,0.156 z"
   id="path94"
   inkscape:connector-curvature="0" />
</g>
<g
   id="LWPOLYLINE_14_"
   style="stroke:none;fill:#000000;fill-opacity:1">
	
		<path
   style="fill:#000000;fill-opacity:1;stroke:none"
   d="m 487.988,514.181 c -0.38898,-3.22946 0.80068,-7.86132 -0.576,-10.216 -12.03649,-0.17315 -24.63584,0.3172 -36.355,-0.23 0.43987,-10.39646 -0.85963,-22.5323 0.537,-31.972 10.92509,-0.25891 22.83602,0.46802 33.245,-0.307 -0.37062,-3.14567 0.75381,-7.61272 -0.537,-9.948 -10.98632,-0.15901 -22.579,0.28834 -33.245,-0.191 0.18227,-9.78306 -0.35915,-20.28982 0.229,-29.667 11.86163,-0.20603 24.5126,0.37726 35.934,-0.269 -0.46882,-2.87686 0.98492,-7.38927 -0.768,-9.182 -15.69967,0 -31.39933,0 -47.099,0 -0.27277,30.58763 -0.0376,61.21723 -0.115,91.821 16.24782,0.22623 32.50062,0.11857 48.75,0.161 z"
   id="path97"
   inkscape:connector-curvature="0" />
</g>
</svg>