<?xml version="1.0" encoding="UTF-8" standalone="no"?>
<!-- Generator: Adobe Illustrator 16.0.1, SVG Export Plug-In . SVG Version: 6.00 Build 0)  -->

<svg
   xmlns:dc="http://purl.org/dc/elements/1.1/"
   xmlns:cc="http://creativecommons.org/ns#"
   xmlns:rdf="http://www.w3.org/1999/02/22-rdf-syntax-ns#"
   xmlns:svg="http://www.w3.org/2000/svg"
   xmlns="http://www.w3.org/2000/svg"
   xmlns:sodipodi="http://sodipodi.sourceforge.net/DTD/sodipodi-0.dtd"
   xmlns:inkscape="http://www.inkscape.org/namespaces/inkscape"
   version="1.0"
   id="_x31_"
   x="0px"
   y="0px"
   width="612px"
   height="792px"
   viewBox="0 0 612 792"
   enable-background="new 0 0 612 792"
   xml:space="preserve"
   inkscape:version="0.48.2 r9819"
   sodipodi:docname="7019.svg"><metadata
   id="metadata28"><rdf:RDF><cc:Work
       rdf:about=""><dc:format>image/svg+xml</dc:format><dc:type
         rdf:resource="http://purl.org/dc/dcmitype/StillImage" /></cc:Work></rdf:RDF></metadata><defs
   id="defs26" /><sodipodi:namedview
   pagecolor="#ffffff"
   bordercolor="#666666"
   borderopacity="1"
   objecttolerance="10"
   gridtolerance="10"
   guidetolerance="10"
   inkscape:pageopacity="0"
   inkscape:pageshadow="2"
   inkscape:window-width="1920"
   inkscape:window-height="1068"
   id="namedview24"
   showgrid="false"
   inkscape:zoom="1.1919192"
   inkscape:cx="166.81059"
   inkscape:cy="510.80902"
   inkscape:window-x="0"
   inkscape:window-y="0"
   inkscape:window-maximized="1"
   inkscape:current-layer="_x31_" />
<g
   id="LWPOLYLINE_3_"
   style="stroke:none;fill:#000000;fill-opacity:1">
	
		<path
   style="fill:#000000;fill-opacity:1;stroke:none"
   d="m 284.46875,470.03125 c -22.85979,-1.39868 -43.26244,15.2315 -49.6875,36.62495 -9.83091,30.45981 -9.39817,63.96635 -1.8125,94.875 5.17389,21.82756 22.05345,43.18897 45.99588,44.18654 22.3948,3.21036 44.66273,-10.60706 52.95808,-31.40095 12.72765,-30.18869 12.97343,-64.62758 6.60859,-96.37934 -4.3882,-22.33469 -20.2926,-44.79208 -44.4879,-47.22314 -3.16289,-0.5261 -6.37477,-0.62985 -9.57465,-0.68306 z m 0,19.53125 c 18.23202,-1.109 29.05924,17.13006 31.26727,33.03725 4.1585,27.50868 5.27382,56.80586 -4.04852,83.40025 -4.89037,16.22389 -24.70446,26.07189 -39.90625,17.28125 -18.07369,-12.25733 -19.04569,-36.92827 -20.31618,-56.68866 0.17741,-23.05891 -1.32268,-49.13907 13.28493,-68.49884 4.85366,-5.67713 12.30079,-8.71067 19.71875,-8.53125 z"
   id="polygon13"
   inkscape:connector-curvature="0" />
</g><g
   id="LWPOLYLINE_5_"
   style="stroke:none;fill:#000000;fill-opacity:1">
	
		<path
   style="fill:#000000;fill-opacity:1;stroke:none"
   d="m 424.46875,470.03125 c -22.24262,-1.31549 -42.45675,14.38234 -49.13224,35.18382 -10.36819,30.25364 -9.94056,63.74787 -2.8031,94.67905 4.88496,22.41914 21.83404,44.78112 46.43154,45.82364 22.40742,3.20998 44.6471,-10.60573 52.95793,-31.40122 12.84315,-30.60978 13.07576,-65.56786 6.26526,-97.68023 -4.55134,-22.37428 -21.24123,-44.27266 -45.4461,-46.11066 -2.74012,-0.37174 -5.51171,-0.44472 -8.27329,-0.4944 z m 0,19.53125 c 18.24184,-1.10634 29.01994,17.14367 31.28438,33.03394 4.08757,27.27565 5.27126,56.29907 -3.81885,82.71405 -4.62049,16.55521 -24.68667,26.92299 -40.15303,17.97076 -18.08482,-12.26626 -19.01985,-36.92596 -20.33356,-56.68836 0.22649,-23.06298 -1.31795,-49.12822 13.30236,-68.49914 4.84278,-5.6776 12.31013,-8.70993 19.7187,-8.53125 z"
   id="polygon19"
   inkscape:connector-curvature="0" />
</g><g
   id="LWPOLYLINE"
   style="stroke:none;fill:#000000;fill-opacity:1">
	
		<path
   style="fill:#000000;fill-opacity:1;stroke:none"
   d="m 501.51999,146 c 9.99333,0 19.98667,0 29.98,0 0,50.66733 0,101.33467 0,152.002 -9.99333,0 -19.98667,0 -29.98,0 0,-50.66733 0,-101.33467 0,-152.002 z"
   id="rect4"
   inkscape:connector-curvature="0" />
</g>
<g
   id="LWPOLYLINE_1_"
   style="stroke:none;fill:#000000;fill-opacity:1">
	
		<path
   style="fill:#000000;fill-opacity:1;stroke:none"
   d="m 343.316,236.258 c 0,16.24333 0,32.48667 0,48.73 52.73467,-20.841 105.46933,-41.682 158.204,-62.523 -52.73467,-20.49167 -105.46933,-40.98333 -158.204,-61.475 0,15.90167 0,31.80333 0,47.705 -87.272,0 -174.544,0 -261.816,0 0,9.18767 0,18.37533 0,27.563 87.272,0 174.544,0 261.816,0 z"
   id="polygon7"
   inkscape:connector-curvature="0" />
</g>
<g
   id="LWPOLYLINE_2_"
   style="stroke:none;fill:#000000;fill-opacity:1">
	
		<path
   style="fill:#000000;fill-opacity:1;stroke:none"
   d="m 171.148,643.021 c 7.32478,-0.26498 15.5664,0.52761 22.367,-0.342 0,-56.56033 0,-113.12067 0,-169.681 -7.24663,0.48231 -15.21377,-0.96546 -22.043,0.635 -11.94111,10.66753 -26.55986,18.66375 -39.965,26.574 0,8.08967 0,16.17933 0,24.269 14.32343,-6.205 27.47827,-14.93686 39.648,-24.661 -0.005,47.733 0.009,95.48467 -0.007,143.206 z"
   id="path10"
   inkscape:connector-curvature="0" />
</g>

<g
   id="LWPOLYLINE_4_"
   style="stroke:none;fill:#000000;fill-opacity:1">
	
		
</g>

<g
   id="LWPOLYLINE_6_"
   style="stroke:none;fill:#000000;fill-opacity:1">
	
		
</g>
</svg>