<?xml version="1.0" encoding="UTF-8" standalone="no"?>
<!-- Generator: Adobe Illustrator 16.0.1, SVG Export Plug-In . SVG Version: 6.00 Build 0)  -->

<svg
   xmlns:dc="http://purl.org/dc/elements/1.1/"
   xmlns:cc="http://creativecommons.org/ns#"
   xmlns:rdf="http://www.w3.org/1999/02/22-rdf-syntax-ns#"
   xmlns:svg="http://www.w3.org/2000/svg"
   xmlns="http://www.w3.org/2000/svg"
   xmlns:sodipodi="http://sodipodi.sourceforge.net/DTD/sodipodi-0.dtd"
   xmlns:inkscape="http://www.inkscape.org/namespaces/inkscape"
   version="1.0"
   id="_x31_"
   x="0px"
   y="0px"
   width="612px"
   height="792px"
   viewBox="0 0 612 792"
   enable-background="new 0 0 612 792"
   xml:space="preserve"
   inkscape:version="0.48.2 r9819"
   sodipodi:docname="7022.svg"><metadata
   id="metadata10"><rdf:RDF><cc:Work
       rdf:about=""><dc:format>image/svg+xml</dc:format><dc:type
         rdf:resource="http://purl.org/dc/dcmitype/StillImage" /></cc:Work></rdf:RDF></metadata><defs
   id="defs8" /><sodipodi:namedview
   pagecolor="#ffffff"
   bordercolor="#666666"
   borderopacity="1"
   objecttolerance="10"
   gridtolerance="10"
   guidetolerance="10"
   inkscape:pageopacity="0"
   inkscape:pageshadow="2"
   inkscape:window-width="1920"
   inkscape:window-height="1068"
   id="namedview6"
   showgrid="false"
   inkscape:zoom="0.2979798"
   inkscape:cx="-432.30508"
   inkscape:cy="396"
   inkscape:window-x="0"
   inkscape:window-y="0"
   inkscape:window-maximized="1"
   inkscape:current-layer="_x31_" />
<g
   id="LWPOLYLINE"
   style="stroke:none;fill:#000000;fill-opacity:1">
	
		<path
   fill="none"
   stroke="#000000"
   stroke-width="0.7087"
   stroke-linecap="round"
   stroke-linejoin="round"
   stroke-miterlimit="10"
   d="   M271.41,645.5c0.48,0,1.082,0,1.082,0h0.84h1.023h1.203H277h1.566h1.742h1.863h1.984h2.105h2.227h2.344h2.344h2.465h2.527h2.527   h2.582h2.586h2.527h2.645h2.527h2.523h2.406h2.406h2.285h2.285h2.043h2.047h1.922h1.684h1.562h1.445h1.203h1.082h0.84   c0.602,0,0.965,0,0.965,0c0.121-0.359,0.121-1.441,0.121-1.441v-1.684v-2.406v-2.887v-3.488v-3.969v-4.449v-4.809v-5.293v-5.652   v-6.012v-6.254v-6.496v-6.734v-6.977v-7.094v-7.098v-7.336v-7.215v-7.336v-7.215v-7.219v-7.094v-6.855v-6.734v-6.613v-6.254v-5.895   v-5.652v-5.293v-4.93v-4.449v-3.969v-3.488v-2.887v-2.285v-1.742v-1.023c0-0.359,0.359-0.961,0.359-0.961l0.961-1.625l1.805-2.707   l2.285-3.668l2.887-4.57l3.488-5.41l3.969-6.254l4.449-6.977l4.93-7.637l5.293-8.297l5.531-8.84l6.012-9.441l6.254-9.801   l6.617-10.223l6.734-10.582l6.855-10.883l7.094-11.125l7.215-11.246l7.219-11.426l7.336-11.426l7.215-11.426l7.336-11.422   l7.098-11.246l7.094-11.125l6.977-10.824l6.734-10.582l6.492-10.281l6.254-9.805l6.016-9.379l5.652-8.898l5.289-8.301l4.812-7.637   l4.449-6.973l3.969-6.254l3.488-5.414l2.887-4.57l2.406-3.668l1.684-2.707l1.082-1.621c-0.242-0.543-0.965-0.543-0.965-0.543h-0.84   h-1.203h-1.324h-1.562h-1.684h-1.926h-2.164h-2.164h-2.285h-2.523h-2.527h-2.645h-2.766h-2.77h-2.766h-2.887h-2.883h-2.887h-2.766   h-2.887h-2.766h-2.648h-2.645h-2.645h-2.406h-2.406h-2.164h-2.047h-1.922h-1.805h-1.562h-1.324h-1.082h-0.961h-0.723   c-0.48,0-0.844,0.422-0.844,0.422l-0.719,1.324l-1.324,2.164l-1.805,2.887l-2.285,3.668l-2.645,4.328l-3.125,4.992l-3.371,5.531   l-3.848,6.133l-3.969,6.617l-4.449,7.094l-4.57,7.457l-4.809,7.879l-5.051,8.176l-5.293,8.48l-5.293,8.656l-5.41,8.84l-5.652,9.02   l-5.531,9.082l-5.652,9.141l-5.656,9.141l-5.531,9.078l-5.531,9.02l-5.531,8.84l-5.293,8.719l-5.293,8.418l-4.93,8.18l-4.93,7.875   l-4.57,7.457l-4.328,7.098l-4.09,6.613l-3.848,6.133l-3.367,5.531l-3.129,4.992l-2.645,4.328l-2.285,3.672l-1.805,2.945   l-1.203,2.105l-0.84,1.32c-0.602,0-1.324-1.32-1.324-1.32l-1.324-2.105l-1.805-2.945l-2.223-3.672l-2.586-4.328l-3.008-4.992   l-3.426-5.531l-3.668-6.133l-4.031-6.613l-4.27-7.098l-4.57-7.457l-4.75-7.875l-4.988-8.18l-5.113-8.418l-5.23-8.719l-5.352-8.84   l-5.473-9.02l-5.531-9.078l-5.531-9.141l-5.535-9.141l-5.531-9.082l-5.41-9.02l-5.414-8.84l-5.23-8.656l-5.113-8.48l-4.988-8.176   l-4.75-7.879l-4.512-7.457l-4.328-7.094l-3.969-6.617l-3.73-6.133l-3.367-5.531l-3.004-4.992l-2.648-4.328l-2.223-3.668   l-1.746-2.887l-1.32-2.164l-0.785-1.324c-0.418-0.422-0.898-0.422-0.898-0.422h-0.723h-1.023h-1.203h-1.504h-1.742h-1.926h-2.043   h-2.285h-2.465h-2.527h-2.703h-2.828h-2.887h-3.008h-3.004h-3.129h-3.125h-3.129h-3.125h-3.129h-3.066h-3.066h-3.008h-2.883h-2.828   h-2.645h-2.586h-2.465h-2.285h-2.047h-1.922h-1.746H80.43h-1.262h-1.023h-0.723c-0.238,0.543,0.781,2.164,0.781,2.164l1.746,2.648   l2.285,3.668l2.945,4.508l3.426,5.414l3.969,6.133l4.453,6.914l4.867,7.637l5.293,8.238l5.652,8.781l6.016,9.32l6.25,9.742   l6.496,10.16l6.797,10.523l6.914,10.766l7.035,11.004l7.215,11.184l7.215,11.305l7.336,11.363l7.277,11.305l7.215,11.309   l7.219,11.184l7.094,11.004l6.914,10.824l6.738,10.461l6.492,10.164l6.312,9.742l5.953,9.32l5.652,8.777l5.293,8.238l4.871,7.637   l4.449,6.914l3.969,6.195l3.488,5.352l2.887,4.57l2.344,3.609l1.684,2.645l1.082,1.625C271.41,448.449,271.41,645.5,271.41,645.5z"
   id="path4"
   style="stroke:none;fill:#000000;fill-opacity:1" />
</g>
</svg>