<?xml version="1.0" encoding="UTF-8" standalone="no"?>
<!-- Generator: Adobe Illustrator 16.0.1, SVG Export Plug-In . SVG Version: 6.00 Build 0)  -->

<svg
   xmlns:dc="http://purl.org/dc/elements/1.1/"
   xmlns:cc="http://creativecommons.org/ns#"
   xmlns:rdf="http://www.w3.org/1999/02/22-rdf-syntax-ns#"
   xmlns:svg="http://www.w3.org/2000/svg"
   xmlns="http://www.w3.org/2000/svg"
   xmlns:sodipodi="http://sodipodi.sourceforge.net/DTD/sodipodi-0.dtd"
   xmlns:inkscape="http://www.inkscape.org/namespaces/inkscape"
   version="1.0"
   id="_x31_"
   x="0px"
   y="0px"
   width="612px"
   height="792px"
   viewBox="0 0 612 792"
   enable-background="new 0 0 612 792"
   xml:space="preserve"
   inkscape:version="0.48.2 r9819"
   sodipodi:docname="7023.svg"><metadata
   id="metadata34"><rdf:RDF><cc:Work
       rdf:about=""><dc:format>image/svg+xml</dc:format><dc:type
         rdf:resource="http://purl.org/dc/dcmitype/StillImage" /></cc:Work></rdf:RDF></metadata><defs
   id="defs32" /><sodipodi:namedview
   pagecolor="#ffffff"
   bordercolor="#666666"
   borderopacity="1"
   objecttolerance="10"
   gridtolerance="10"
   guidetolerance="10"
   inkscape:pageopacity="0"
   inkscape:pageshadow="2"
   inkscape:window-width="1920"
   inkscape:window-height="1068"
   id="namedview30"
   showgrid="false"
   inkscape:zoom="0.84281414"
   inkscape:cx="11.306346"
   inkscape:cy="380.82494"
   inkscape:window-x="0"
   inkscape:window-y="0"
   inkscape:window-maximized="1"
   inkscape:current-layer="_x31_" />
<g
   id="LWPOLYLINE_3_"
   style="stroke:none;fill:#000000;fill-opacity:1">
	
		<path
   style="fill:#000000;fill-opacity:1;stroke:none"
   d="m 213.46875,470.03125 c -22.85694,-1.40257 -43.174,15.20482 -49.68684,36.54422 -9.99014,31.37668 -9.58907,65.98704 -1.0051,97.63987 5.65179,22.12211 24.51676,42.22879 48.59294,41.72842 23.73189,2.17055 44.91545,-15.22429 51.88037,-37.19053 C 273.81236,577.9485 274.08151,543.66907 266,512.25 c -5.39811,-22.11703 -24.05326,-41.84962 -47.88845,-42.06058 -1.54275,-0.13965 -3.09616,-0.0931 -4.6428,-0.15817 z m 0,19.53125 c 18.66979,-1.10982 29.35483,17.84739 31.46875,34.0312 3.85976,27.63037 5.2218,57.17061 -4.80727,83.69225 -5.56069,17.58961 -29.67334,25.8322 -43.63023,12.87025 -16.78242,-17.82903 -15.75076,-44.66818 -16.12485,-67.56245 1.15778,-20.21521 0.95692,-45.0722 18.3124,-58.84375 4.32265,-2.91611 9.59539,-4.26171 14.7812,-4.1875 z"
   id="polygon13"
   inkscape:connector-curvature="0" />
</g><g
   id="LWPOLYLINE_5_"
   style="stroke:none;fill:#000000;fill-opacity:1">
	
		<path
   style="fill:#000000;fill-opacity:1;stroke:none"
   d="m 353.46875,470.03125 c -22.86796,-1.39727 -43.26329,15.21726 -49.6875,36.625 -9.9485,30.89875 -9.46126,64.94688 -1.42178,96.22115 5.45232,22.10194 23.49575,42.86966 47.64043,43.02885 22.97421,2.51314 44.5706,-13.03118 52.11937,-34.36195 11.75276,-30.95006 11.99114,-65.84828 4.29062,-97.80221 -5.03322,-22.15673 -22.98113,-42.61858 -46.86999,-43.44335 -2.01803,-0.21304 -4.04525,-0.2124 -6.07115,-0.26749 z m 0,19.53125 c 18.67867,-1.10423 29.32776,17.86008 31.5,34.0312 3.78908,27.83394 5.28819,57.64822 -5.0937,84.28125 -5.78568,17.25186 -29.62217,25.05918 -43.34375,12.28125 -16.5087,-17.33341 -15.7375,-43.628 -16.15763,-66.02636 0.96912,-20.32831 0.69352,-44.73521 17.03263,-59.44234 4.53577,-3.5393 10.34673,-5.22026 16.06245,-5.125 z"
   id="polygon19"
   inkscape:connector-curvature="0" />
</g><g
   id="LWPOLYLINE_7_"
   style="stroke:none;fill:#000000;fill-opacity:1">
	
		<path
   style="fill:#000000;fill-opacity:1;stroke:none"
   d="m 493.5,470.03125 c -22.88222,-1.42194 -43.26221,15.23396 -49.71875,36.62495 -9.81749,30.4537 -9.43949,63.98573 -1.78125,94.875 5.14483,22.60401 23.29248,44.20213 47.96875,44.375 22.97611,2.50851 44.59271,-13.01802 52.17545,-34.3516 11.69547,-30.96899 11.9549,-65.8437 4.2832,-97.80866 -5.07833,-22.14227 -22.98181,-42.63261 -46.88764,-43.4463 -2.00782,-0.2091 -4.02422,-0.2147 -6.03976,-0.26839 z m 0,19.53125 c 18.66468,-1.09731 29.32392,17.8569 31.4375,34.0312 3.86041,27.82852 5.2864,57.64039 -5.0625,84.28125 -5.79948,17.26877 -29.63227,25.04682 -43.375,12.28125 -16.45664,-17.37672 -15.72153,-43.61914 -16.12633,-66.02648 0.95057,-20.33671 0.70111,-44.69399 17.00133,-59.44227 4.56091,-3.54359 10.38716,-5.21798 16.125,-5.12495 z"
   id="polygon25"
   inkscape:connector-curvature="0" />
</g><g
   id="LWPOLYLINE"
   style="stroke:none;fill:#000000;fill-opacity:1">
	
		<path
   style="fill:#000000;fill-opacity:1;stroke:none"
   d="m 498.48001,146 c 10.00967,0 20.01933,0 30.029,0 0,50.66733 0,101.33467 0,152.002 -10.00967,0 -20.01933,0 -30.029,0 0,-50.66733 0,-101.33467 0,-152.002 z"
   id="rect4"
   inkscape:connector-curvature="0" />
</g>
<g
   id="LWPOLYLINE_1_"
   style="stroke:none;fill:#000000;fill-opacity:1">
	
		<path
   style="fill:#000000;fill-opacity:1;stroke:none"
   d="m 340.326,236.258 c 0,16.24333 0,32.48667 0,48.73 52.718,-20.841 105.436,-41.682 158.154,-62.523 -52.718,-20.49167 -105.436,-40.98333 -158.154,-61.475 0,15.90167 0,31.80333 0,47.705 -87.272,0 -174.544,0 -261.816,0 0,9.18767 0,18.37533 0,27.563 87.272,0 174.544,0 261.816,0 z"
   id="polygon7"
   inkscape:connector-curvature="0" />
</g>
<g
   id="LWPOLYLINE_2_"
   style="stroke:none;fill:#000000;fill-opacity:1">
	
		<path
   style="fill:#000000;fill-opacity:1;stroke:none"
   d="m 100.141,643.021 c 7.32291,-0.26559 15.56442,0.5284 22.363,-0.342 0,-56.56033 0,-113.12067 0,-169.681 -7.24754,0.48167 -15.21476,-0.96453 -22.045,0.635 -11.899845,10.80377 -26.991395,18.6067 -39.964,26.867 0,7.992 0,15.984 0,23.976 14.327964,-6.19705 27.488787,-14.92426 39.649,-24.661 -0.002,47.73433 0.004,95.47667 -0.003,143.206 z"
   id="path10"
   inkscape:connector-curvature="0" />
</g>

<g
   id="LWPOLYLINE_4_"
   style="stroke:none;fill:#000000;fill-opacity:1">
	
		
</g>

<g
   id="LWPOLYLINE_6_"
   style="stroke:none;fill:#000000;fill-opacity:1">
	
		
</g>

<g
   id="LWPOLYLINE_8_"
   style="stroke:none;fill:#000000;fill-opacity:1">
	
		
</g>
</svg>