<?xml version="1.0" encoding="UTF-8" standalone="no"?>
<!-- Generator: Adobe Illustrator 16.0.1, SVG Export Plug-In . SVG Version: 6.00 Build 0)  -->

<svg
   xmlns:dc="http://purl.org/dc/elements/1.1/"
   xmlns:cc="http://creativecommons.org/ns#"
   xmlns:rdf="http://www.w3.org/1999/02/22-rdf-syntax-ns#"
   xmlns:svg="http://www.w3.org/2000/svg"
   xmlns="http://www.w3.org/2000/svg"
   xmlns:sodipodi="http://sodipodi.sourceforge.net/DTD/sodipodi-0.dtd"
   xmlns:inkscape="http://www.inkscape.org/namespaces/inkscape"
   version="1.0"
   id="_x31_"
   x="0px"
   y="0px"
   width="612px"
   height="792px"
   viewBox="0 0 612 792"
   enable-background="new 0 0 612 792"
   xml:space="preserve"
   inkscape:version="0.48.2 r9819"
   sodipodi:docname="7025.svg"><metadata
   id="metadata144"><rdf:RDF><cc:Work
       rdf:about=""><dc:format>image/svg+xml</dc:format><dc:type
         rdf:resource="http://purl.org/dc/dcmitype/StillImage" /></cc:Work></rdf:RDF></metadata><defs
   id="defs142" /><sodipodi:namedview
   pagecolor="#ffffff"
   bordercolor="#666666"
   borderopacity="1"
   objecttolerance="10"
   gridtolerance="10"
   guidetolerance="10"
   inkscape:pageopacity="0"
   inkscape:pageshadow="2"
   inkscape:window-width="1920"
   inkscape:window-height="1068"
   id="namedview140"
   showgrid="false"
   inkscape:zoom="0.84281414"
   inkscape:cx="473.49442"
   inkscape:cy="505.69788"
   inkscape:window-x="0"
   inkscape:window-y="0"
   inkscape:window-maximized="1"
   inkscape:current-layer="_x31_" />
<g
   id="LWPOLYLINE_4_"
   style="stroke:none;fill:#000000;fill-opacity:1">
	
		<path
   style="stroke:none;fill:#000000;fill-opacity:1"
   d="M 374.875 399.125 C 374.665 399.154 374.65625 500.28125 374.65625 500.28125 L 375.0625 500.28125 L 375.3125 500.28125 L 375.59375 500.28125 L 376.03125 500.28125 L 376.46875 500.28125 L 376.96875 500.28125 L 377.46875 500.28125 L 378.0625 500.28125 L 378.71875 500.28125 L 379.40625 500.28125 L 380.125 500.28125 L 380.84375 500.28125 L 381.5625 500.28125 L 382.375 500.28125 L 383.15625 500.28125 L 383.96875 500.28125 L 384.78125 500.28125 L 385.5625 500.28125 L 386.4375 500.28125 L 387.25 500.28125 L 388.0625 500.28125 L 388.8125 500.28125 L 389.59375 500.28125 L 390.34375 500.28125 L 391.0625 500.28125 L 391.8125 500.28125 L 392.46875 500.28125 L 393.0625 500.28125 L 393.6875 500.28125 L 394.21875 500.28125 L 394.75 500.28125 L 395.15625 500.28125 L 395.5625 500.28125 L 395.875 500.28125 L 396.15625 500.28125 L 396.4375 500.28125 L 397.8125 500.28125 L 399.09375 500.28125 L 400.3125 500.25 L 401.5 500.15625 L 402.6875 500.125 L 403.90625 500 L 405.03125 499.90625 L 406.15625 499.78125 L 407.21875 499.65625 L 408.3125 499.5 L 409.34375 499.3125 L 410.375 499.15625 L 411.34375 498.9375 L 412.3125 498.71875 L 413.25 498.46875 L 414.1875 498.21875 L 415.09375 497.9375 L 416 497.65625 L 416.84375 497.34375 L 417.65625 497.0625 L 418.46875 496.71875 L 419.21875 496.34375 L 420 496 L 420.75 495.59375 L 421.4375 495.1875 L 422.15625 494.8125 L 422.8125 494.34375 L 423.5 493.90625 L 424.125 493.4375 L 424.71875 492.96875 L 425.3125 492.46875 L 425.875 491.9375 L 426.4375 491.375 L 426.9375 490.84375 L 427.4375 490.28125 L 427.90625 489.71875 L 428.375 489.125 L 428.8125 488.5 L 429.25 487.84375 L 429.65625 487.21875 L 429.96875 486.6875 L 430.3125 486.15625 L 430.59375 485.5625 L 430.90625 484.96875 L 431.15625 484.34375 L 431.46875 483.71875 L 431.71875 483.03125 L 431.96875 482.34375 L 432.21875 481.6875 L 432.4375 480.9375 L 432.6875 480.1875 L 432.90625 479.40625 L 433.125 478.59375 L 433.28125 477.78125 L 433.5 476.9375 L 433.6875 476.0625 L 433.875 475.15625 L 434 474.21875 L 434.1875 473.28125 L 434.34375 472.25 L 434.46875 471.28125 L 434.625 470.21875 L 434.75 469.15625 L 434.875 468.03125 L 435 466.9375 L 435.09375 465.78125 L 435.15625 464.59375 L 435.25 463.34375 L 435.34375 462.125 L 435.40625 460.84375 L 435.5 459.53125 L 435.5625 458.21875 L 435.59375 456.8125 L 435.625 455.40625 L 435.6875 453.9375 L 435.71875 452.5 L 435.71875 450.96875 L 435.75 449.4375 L 435.75 447.84375 L 435.75 446.25 L 435.75 445.9375 L 435.75 445.5625 L 435.75 445.1875 L 435.71875 444.71875 L 435.71875 444.1875 L 435.6875 443.625 L 435.6875 443 L 435.625 442.375 L 435.59375 441.6875 L 435.59375 440.96875 L 435.5 440.1875 L 435.46875 439.375 L 435.40625 438.5625 L 435.375 437.71875 L 435.28125 436.8125 L 435.25 435.9375 L 435.15625 435 L 435.09375 434.0625 L 435 433.125 L 434.90625 432.125 L 434.78125 431.1875 L 434.6875 430.21875 L 434.5625 429.25 L 434.4375 428.25 L 434.3125 427.28125 L 434.1875 426.3125 L 434 425.375 L 433.875 424.375 L 433.71875 423.4375 L 433.53125 422.5625 L 433.375 421.65625 L 433.21875 420.75 L 433 419.90625 L 432.78125 419.0625 L 432.59375 418.28125 L 432.34375 417.53125 L 432.125 416.75 L 431.875 416.0625 L 431.65625 415.4375 L 431.40625 414.78125 L 431 414 L 430.59375 413.1875 L 430.1875 412.375 L 429.71875 411.59375 L 429.28125 410.875 L 428.8125 410.15625 L 428.3125 409.46875 L 427.84375 408.8125 L 427.3125 408.1875 L 426.8125 407.5625 L 426.25 407 L 425.71875 406.40625 L 425.15625 405.875 L 424.59375 405.34375 L 424 404.875 L 423.40625 404.40625 L 422.75 403.9375 L 422.125 403.5 L 421.5 403.0625 L 420.8125 402.6875 L 420.125 402.34375 L 419.4375 402 L 418.71875 401.65625 L 418.03125 401.375 L 417.28125 401.0625 L 416.53125 400.8125 L 415.71875 400.5625 L 414.96875 400.34375 L 414.15625 400.125 L 413.34375 399.96875 L 412.53125 399.78125 L 411.6875 399.625 L 410.84375 399.5 L 409.9375 399.40625 L 409.03125 399.3125 L 408.15625 399.25 L 407.21875 399.15625 L 406.28125 399.125 L 405.34375 399.125 L 404.34375 399.125 L 403.875 399.125 L 403.5 399.125 L 403.0625 399.125 L 402.53125 399.125 L 401.9375 399.125 L 401.25 399.125 L 400.53125 399.125 L 399.71875 399.125 L 398.875 399.125 L 397.9375 399.125 L 397 399.125 L 396 399.125 L 394.9375 399.125 L 393.90625 399.125 L 392.8125 399.125 L 391.75 399.125 L 390.65625 399.125 L 389.53125 399.125 L 388.375 399.125 L 387.3125 399.125 L 386.21875 399.125 L 385.15625 399.125 L 384.09375 399.125 L 383.0625 399.125 L 382.03125 399.125 L 381.09375 399.125 L 380.15625 399.125 L 379.3125 399.125 L 378.5 399.125 L 377.78125 399.125 L 377.09375 399.125 L 376.5 399.125 L 375.9375 399.125 L 375.53125 399.125 L 375.1875 399.125 L 374.875 399.125 z M 386.90625 410.46875 L 387.15625 410.46875 L 387.625 410.46875 L 387.90625 410.46875 L 388.25 410.46875 L 388.625 410.46875 L 389.03125 410.46875 L 389.5 410.46875 L 389.96875 410.46875 L 390.46875 410.46875 L 391.03125 410.46875 L 391.59375 410.46875 L 392.125 410.46875 L 392.71875 410.46875 L 393.3125 410.46875 L 393.96875 410.46875 L 394.5625 410.46875 L 395.1875 410.46875 L 395.8125 410.46875 L 396.4375 410.46875 L 397.03125 410.46875 L 397.625 410.46875 L 398.21875 410.46875 L 398.8125 410.46875 L 399.375 410.46875 L 399.875 410.46875 L 400.40625 410.46875 L 400.875 410.46875 L 401.34375 410.46875 L 401.75 410.46875 L 402.15625 410.46875 L 402.5 410.46875 L 402.78125 410.46875 L 403 410.46875 L 403.34375 410.46875 L 404.4375 410.46875 L 405.375 410.5 L 406.3125 410.59375 L 407.21875 410.6875 L 408.0625 410.8125 L 408.9375 410.96875 L 409.71875 411.15625 L 410.5 411.375 L 411.28125 411.625 L 412 411.875 L 412.71875 412.21875 L 413.40625 412.5625 L 414.09375 412.9375 L 414.6875 413.3125 L 415.3125 413.78125 L 415.90625 414.25 L 416.46875 414.78125 L 416.96875 415.34375 L 417.5 415.9375 L 418 416.5625 L 418.46875 417.25 L 418.90625 417.96875 L 419.3125 418.75 L 419.6875 419.5 L 420.03125 420.34375 L 420.375 421.25 L 420.71875 422.15625 L 421.03125 423.125 L 421.28125 424.15625 L 421.53125 425.21875 L 421.75 426.28125 L 421.90625 427.4375 L 422.125 428.625 L 422.25 429.90625 L 422.375 431.1875 L 422.46875 432.53125 L 422.5625 433.90625 L 422.65625 435.34375 L 422.6875 436.84375 L 422.6875 438.375 L 422.6875 438.71875 L 422.6875 438.9375 L 422.6875 439.25 L 422.6875 439.59375 L 422.6875 440.03125 L 422.6875 440.46875 L 422.6875 440.96875 L 422.6875 441.53125 L 422.6875 442.125 L 422.6875 442.71875 L 422.6875 443.34375 L 422.6875 444.03125 L 422.6875 444.71875 L 422.6875 445.4375 L 422.6875 446.15625 L 422.6875 446.9375 L 422.6875 447.65625 L 422.6875 448.4375 L 422.6875 449.15625 L 422.6875 449.90625 L 422.6875 450.65625 L 422.6875 451.40625 L 422.6875 452.09375 L 422.6875 452.8125 L 422.6875 453.46875 L 422.6875 454.125 L 422.6875 454.71875 L 422.6875 455.34375 L 422.6875 455.875 L 422.6875 456.34375 L 422.6875 456.8125 L 422.6875 457.25 L 422.6875 457.59375 L 422.6875 457.875 L 422.6875 458.15625 L 422.6875 458.4375 L 422.6875 460.1875 L 422.65625 461.84375 L 422.5625 463.46875 L 422.46875 465.03125 L 422.375 466.53125 L 422.25 467.96875 L 422.09375 469.34375 L 421.90625 470.65625 L 421.71875 471.9375 L 421.4375 473.1875 L 421.1875 474.3125 L 420.90625 475.4375 L 420.5625 476.5 L 420.21875 477.53125 L 419.84375 478.46875 L 419.40625 479.40625 L 418.96875 480.25 L 418.5 481.0625 L 418 481.8125 L 417.4375 482.5625 L 416.84375 483.21875 L 416.25 483.875 L 415.625 484.46875 L 414.9375 485.03125 L 414.25 485.53125 L 413.46875 486 L 412.71875 486.46875 L 411.90625 486.84375 L 411.0625 487.1875 L 410.15625 487.53125 L 409.21875 487.84375 L 408.28125 488.09375 L 407.25 488.3125 L 406.25 488.46875 L 405.125 488.625 L 404.03125 488.78125 L 402.875 488.84375 L 401.65625 488.9375 L 400.40625 488.96875 L 399.125 488.96875 L 398.78125 488.96875 L 398.375 488.96875 L 398.15625 488.96875 L 397.84375 488.96875 L 397.5625 488.96875 L 397.21875 488.96875 L 396.875 488.96875 L 396.5 488.96875 L 396.09375 488.96875 L 395.6875 488.96875 L 395.25 488.96875 L 394.8125 488.96875 L 394.34375 488.96875 L 393.9375 488.96875 L 393.46875 488.96875 L 393 488.96875 L 392.5625 488.96875 L 392.09375 488.96875 L 391.625 488.96875 L 391.1875 488.96875 L 390.78125 488.96875 L 390.34375 488.96875 L 389.9375 488.96875 L 389.53125 488.96875 L 389.15625 488.96875 L 388.8125 488.96875 L 388.46875 488.96875 L 388.1875 488.96875 L 387.875 488.96875 L 387.65625 488.96875 L 387.40625 488.96875 L 387.125 488.96875 C 386.905 488.95375 386.90625 410.46875 386.90625 410.46875 z "
   id="path16" />
</g><g
   id="LWPOLYLINE_7_"
   style="stroke:none;fill:#000000;fill-opacity:1">
	
		<path
   style="stroke:none;fill:#000000;fill-opacity:1"
   d="M 339.09375 541.3125 L 337.625 541.40625 L 336.125 541.53125 L 334.71875 541.65625 L 333.3125 541.875 L 331.96875 542.125 L 330.625 542.40625 L 329.34375 542.75 L 328.125 543.09375 L 326.9375 543.53125 L 325.78125 544 L 324.6875 544.5 L 323.5625 545 L 322.53125 545.59375 L 321.53125 546.25 L 320.59375 546.875 L 319.65625 547.5625 L 318.75 548.34375 L 317.9375 549.09375 L 317.125 549.90625 L 316.375 550.78125 L 315.65625 551.65625 L 314.96875 552.59375 L 314.28125 553.5625 L 313.6875 554.5625 L 313.125 555.59375 L 312.5625 556.65625 L 312.09375 557.75 L 311.625 558.90625 L 311.21875 560.09375 L 310.875 561.28125 L 310.53125 562.53125 L 310.21875 563.8125 L 309.96875 565.125 L 309.75 566.4375 L 309.59375 567.8125 L 309.46875 569.21875 L 309.34375 570.625 L 309.28125 572.09375 L 309.25 573.59375 L 309.25 573.8125 L 309.25 574.09375 L 309.25 574.53125 L 309.25 575 L 309.25 575.59375 L 309.25 576.28125 L 309.25 577.03125 L 309.25 577.84375 L 309.25 578.75 L 309.25 579.71875 L 309.25 580.75 L 309.25 581.8125 L 309.25 582.9375 L 309.25 584.0625 L 309.25 585.25 L 309.25 586.46875 L 309.25 587.6875 L 309.25 588.9375 L 309.25 590.15625 L 309.25 591.40625 L 309.25 592.625 L 309.25 593.875 L 309.25 595.0625 L 309.25 596.25 L 309.25 597.40625 L 309.25 598.5 L 309.25 599.5625 L 309.25 600.59375 L 309.25 601.53125 L 309.25 602.46875 L 309.25 603.28125 L 309.25 604.03125 L 309.25 604.71875 L 309.25 605.28125 L 309.25 605.78125 L 309.25 606.21875 L 309.25 606.46875 L 309.25 606.71875 L 309.28125 608.78125 L 309.34375 610.78125 L 309.46875 612.71875 L 309.59375 614.59375 L 309.75 616.4375 L 309.96875 618.1875 L 310.21875 619.875 L 310.53125 621.5 L 310.875 623.125 L 311.21875 624.625 L 311.625 626.09375 L 312.09375 627.5 L 312.5625 628.875 L 313.125 630.15625 L 313.6875 631.4375 L 314.28125 632.59375 L 314.96875 633.71875 L 315.65625 634.84375 L 316.375 635.84375 L 317.125 636.84375 L 317.9375 637.71875 L 318.75 638.625 L 319.65625 639.4375 L 320.59375 640.1875 L 321.53125 640.9375 L 322.53125 641.5625 L 323.5625 642.21875 L 324.6875 642.75 L 325.78125 643.3125 L 326.9375 643.78125 L 328.125 644.21875 L 329.34375 644.59375 L 330.625 644.90625 L 331.96875 645.1875 L 333.3125 645.4375 L 334.71875 645.625 L 336.125 645.78125 L 337.625 645.90625 L 339.09375 645.96875 L 340.6875 646 L 342.21875 645.96875 L 343.75 645.90625 L 345.1875 645.78125 L 346.65625 645.625 L 348 645.4375 L 349.375 645.1875 L 350.6875 644.90625 L 351.96875 644.59375 L 353.1875 644.21875 L 354.40625 643.78125 L 355.53125 643.3125 L 356.6875 642.75 L 357.75 642.21875 L 358.78125 641.5625 L 359.8125 640.9375 L 360.78125 640.21875 L 361.6875 639.4375 L 362.5625 638.625 L 363.40625 637.71875 L 364.21875 636.84375 L 365 635.84375 L 365.71875 634.84375 L 366.40625 633.71875 L 367.03125 632.59375 L 367.625 631.4375 L 368.25 630.15625 L 368.75 628.875 L 369.25 627.5 L 369.6875 626.09375 L 370.125 624.625 L 370.5 623.125 L 370.78125 621.5 L 371.09375 619.875 L 371.34375 618.1875 L 371.5625 616.4375 L 371.78125 614.59375 L 371.90625 612.75 L 372 610.78125 L 372.03125 608.78125 L 372.0625 606.71875 L 372.0625 606.46875 L 372.0625 606.21875 L 372.0625 605.78125 L 372.0625 605.28125 L 372.0625 604.71875 L 372.0625 604.03125 L 372.0625 603.28125 L 372.0625 602.46875 L 372.0625 601.53125 L 372.0625 600.59375 L 372.0625 599.5625 L 372.0625 598.5 L 372.0625 597.40625 L 372.0625 596.25 L 372.0625 595.0625 L 372.0625 593.875 L 372.0625 592.625 L 372.0625 591.40625 L 372.0625 590.15625 L 372.0625 588.9375 L 372.0625 587.6875 L 372.0625 586.46875 L 372.0625 585.28125 L 372.0625 584.0625 L 372.0625 582.9375 L 372.0625 581.8125 L 372.0625 580.75 L 372.0625 579.71875 L 372.0625 578.75 L 372.0625 577.84375 L 372.0625 577.0625 L 372.0625 576.28125 L 372.0625 575.59375 L 372.0625 575 L 372.0625 574.53125 L 372.0625 574.09375 L 372.0625 573.8125 L 372.0625 573.59375 L 372.03125 572.09375 L 372 570.625 L 371.90625 569.21875 L 371.78125 567.8125 L 371.5625 566.4375 L 371.34375 565.125 L 371.09375 563.8125 L 370.78125 562.53125 L 370.5 561.28125 L 370.125 560.09375 L 369.6875 558.90625 L 369.25 557.75 L 368.75 556.65625 L 368.25 555.59375 L 367.625 554.5625 L 367.03125 553.59375 L 366.40625 552.59375 L 365.71875 551.65625 L 365 550.78125 L 364.21875 549.90625 L 363.4375 549.09375 L 362.5625 548.34375 L 361.6875 547.5625 L 360.78125 546.875 L 359.8125 546.25 L 358.78125 545.59375 L 357.75 545 L 356.6875 544.5 L 355.53125 544 L 354.40625 543.53125 L 353.1875 543.09375 L 351.96875 542.75 L 350.6875 542.40625 L 349.375 542.125 L 348 541.875 L 346.65625 541.65625 L 345.1875 541.53125 L 343.75 541.40625 L 342.21875 541.3125 L 340.6875 541.3125 L 339.09375 541.3125 z M 339.53125 551.78125 L 339.96875 551.78125 L 340.34375 551.78125 L 340.6875 551.78125 L 341.03125 551.78125 L 341.40625 551.78125 L 341.78125 551.78125 L 342.25 551.84375 L 342.71875 551.875 L 343.1875 551.90625 L 343.71875 551.96875 L 344.25 552.03125 L 344.8125 552.125 L 345.375 552.25 L 345.96875 552.375 L 346.5625 552.5 L 347.15625 552.71875 L 347.75 552.9375 L 348.40625 553.15625 L 349 553.40625 L 349.625 553.71875 L 350.21875 554.0625 L 350.875 554.4375 L 351.46875 554.8125 L 352.0625 555.28125 L 352.65625 555.75 L 353.25 556.3125 L 353.8125 556.84375 L 354.34375 557.5 L 354.875 558.125 L 355.375 558.875 L 355.84375 559.625 L 356.3125 560.46875 L 356.75 561.34375 L 357.125 562.28125 L 357.5 563.28125 L 357.84375 564.34375 L 358.15625 565.46875 L 358.40625 566.65625 L 358.5625 567.90625 L 358.75 569.21875 L 358.875 570.5625 L 358.96875 572.0625 L 359 573.59375 L 359 573.84375 L 359 574.15625 L 359 574.53125 L 359 575.0625 L 359 575.65625 L 359 576.375 L 359 577.125 L 359 578 L 359 578.875 L 359 579.90625 L 359 580.9375 L 359 582.03125 L 359 583.1875 L 359 584.34375 L 359 585.5625 L 359 586.8125 L 359 588.03125 L 359 589.3125 L 359 590.59375 L 359 591.875 L 359 593.15625 L 359 594.375 L 359 595.625 L 359 596.84375 L 359 598 L 359 599.15625 L 359 600.25 L 359 601.28125 L 359 602.3125 L 359 603.1875 L 359 604.03125 L 359 604.84375 L 359 605.53125 L 359 606.125 L 359 606.65625 L 359 607.0625 L 359 607.375 L 359 607.59375 L 359 609.1875 L 358.96875 610.75 L 358.875 612.28125 L 358.78125 613.6875 L 358.71875 615.0625 L 358.5625 616.40625 L 358.4375 617.6875 L 358.28125 618.875 L 358.0625 620.0625 L 357.84375 621.15625 L 357.59375 622.21875 L 357.34375 623.25 L 357.03125 624.21875 L 356.75 625.125 L 356.40625 626.03125 L 356.0625 626.84375 L 355.6875 627.65625 L 355.3125 628.375 L 354.875 629.09375 L 354.40625 629.71875 L 353.9375 630.375 L 353.46875 630.9375 L 352.9375 631.46875 L 352.40625 632 L 351.84375 632.40625 L 351.25 632.84375 L 350.65625 633.28125 L 350 633.59375 L 349.375 633.9375 L 348.6875 634.1875 L 347.96875 634.46875 L 347.28125 634.71875 L 346.53125 634.875 L 345.75 635.0625 L 344.9375 635.21875 L 344.125 635.3125 L 343.3125 635.40625 L 342.46875 635.46875 L 341.5625 635.53125 L 340.6875 635.53125 L 339.75 635.53125 L 338.90625 635.46875 L 338.03125 635.40625 L 337.1875 635.3125 L 336.375 635.21875 L 335.5625 635.0625 L 334.8125 634.875 L 334.0625 634.71875 L 333.34375 634.46875 L 332.65625 634.1875 L 332 633.9375 L 331.3125 633.59375 L 330.71875 633.25 L 330.0625 632.84375 L 329.53125 632.40625 L 328.90625 632 L 328.40625 631.46875 L 327.90625 630.90625 L 327.375 630.375 L 326.90625 629.71875 L 326.5 629.09375 L 326.0625 628.375 L 325.625 627.625 L 325.25 626.84375 L 324.90625 626.03125 L 324.5625 625.125 L 324.28125 624.21875 L 323.96875 623.25 L 323.71875 622.21875 L 323.46875 621.15625 L 323.25 620.0625 L 323.09375 618.875 L 322.90625 617.6875 L 322.75 616.40625 L 322.625 615.0625 L 322.53125 613.65625 L 322.4375 612.25 L 322.40625 610.71875 L 322.34375 609.1875 L 322.34375 607.59375 L 322.34375 607.375 L 322.34375 607.0625 L 322.34375 606.65625 L 322.34375 606.125 L 322.34375 605.53125 L 322.34375 604.84375 L 322.34375 604.03125 L 322.34375 603.1875 L 322.34375 602.28125 L 322.34375 601.28125 L 322.34375 600.25 L 322.34375 599.15625 L 322.34375 598 L 322.34375 596.84375 L 322.34375 595.625 L 322.34375 594.375 L 322.34375 593.15625 L 322.34375 591.875 L 322.34375 590.59375 L 322.34375 589.3125 L 322.34375 588.03125 L 322.34375 586.8125 L 322.34375 585.5625 L 322.34375 584.34375 L 322.34375 583.1875 L 322.34375 582.03125 L 322.34375 580.9375 L 322.34375 579.90625 L 322.34375 578.875 L 322.34375 578 L 322.34375 577.125 L 322.34375 576.375 L 322.34375 575.65625 L 322.34375 575.0625 L 322.34375 574.53125 L 322.34375 574.15625 L 322.34375 573.84375 L 322.34375 573.59375 L 322.34375 572.0625 L 322.4375 570.5625 L 322.5625 569.21875 L 322.75 567.90625 L 322.9375 566.65625 L 323.21875 565.46875 L 323.5 564.34375 L 323.8125 563.28125 L 324.1875 562.28125 L 324.5625 561.34375 L 325 560.46875 L 325.46875 559.625 L 325.9375 558.875 L 326.4375 558.125 L 327 557.5 L 327.5625 556.84375 L 328.125 556.3125 L 328.65625 555.75 L 329.25 555.28125 L 329.84375 554.8125 L 330.5 554.4375 L 331.09375 554.0625 L 331.71875 553.71875 L 332.3125 553.40625 L 332.96875 553.15625 L 333.5625 552.9375 L 334.15625 552.71875 L 334.8125 552.5 L 335.40625 552.375 L 335.9375 552.25 L 336.5625 552.125 L 337.09375 552.03125 L 337.625 551.96875 L 338.125 551.90625 L 338.625 551.875 L 339.09375 551.84375 L 339.53125 551.78125 z "
   id="path25" />
</g><g
   id="LWPOLYLINE_10_"
   style="stroke:none;fill:#000000;fill-opacity:1">
	
		<path
   style="stroke:none;fill:#000000;fill-opacity:1"
   d="M 394.09375 543.0625 C 393.88075 543.2325 393.875 543.78125 393.875 543.78125 L 393.875 544.6875 L 393.875 545.875 L 393.875 547.40625 L 393.875 549.1875 L 393.875 551.28125 L 393.875 553.5625 L 393.875 556.125 L 393.875 558.84375 L 393.875 561.78125 L 393.875 564.90625 L 393.875 568.1875 L 393.875 571.5625 L 393.875 575.09375 L 393.875 578.65625 L 393.875 582.375 L 393.875 586.0625 L 393.875 589.875 L 393.875 593.65625 L 393.875 597.4375 L 393.875 601.1875 L 393.875 604.9375 L 393.875 608.59375 L 393.875 612.21875 L 393.875 615.71875 L 393.875 619.125 L 393.875 622.34375 L 393.875 625.46875 L 393.875 628.40625 L 393.875 631.1875 L 393.875 633.71875 L 393.875 636.03125 L 393.875 638.0625 L 393.875 639.875 L 393.875 641.40625 L 393.875 642.59375 L 393.875 643.46875 L 393.875 644.03125 C 393.878 644.24925 406.09375 644.25 406.09375 644.25 L 406.09375 643.90625 L 406.09375 643.53125 L 406.09375 642.96875 L 406.09375 642.34375 L 406.09375 641.53125 L 406.09375 640.625 L 406.09375 639.625 L 406.09375 638.5 L 406.09375 637.28125 L 406.09375 636 L 406.09375 634.625 L 406.09375 633.1875 L 406.09375 631.6875 L 406.09375 630.15625 L 406.09375 628.59375 L 406.09375 626.96875 L 406.09375 625.3125 L 406.09375 623.6875 L 406.09375 621.96875 L 406.09375 620.3125 L 406.09375 618.65625 L 406.09375 617.03125 L 406.09375 615.4375 L 406.09375 613.84375 L 406.09375 612.28125 L 406.09375 610.78125 L 406.09375 609.375 L 406.09375 608 L 406.09375 606.6875 L 406.09375 605.5 L 406.09375 604.40625 L 406.09375 603.375 L 406.09375 602.46875 L 406.09375 601.65625 L 406.09375 600.96875 L 406.09375 600.46875 L 406.09375 600.09375 L 406.09375 599.84375 C 406.22175 599.75975 406.34375 599.75 406.34375 599.75 L 406.78125 599.75 L 407.09375 599.75 L 407.4375 599.75 L 407.8125 599.75 L 408.21875 599.75 L 408.65625 599.75 L 409.15625 599.75 L 409.6875 599.75 L 410.1875 599.75 L 410.75 599.75 L 411.34375 599.75 L 411.9375 599.75 L 412.53125 599.75 L 413.125 599.75 L 413.78125 599.75 L 414.375 599.75 L 415 599.75 L 415.59375 599.75 L 416.25 599.75 L 416.84375 599.75 L 417.4375 599.75 L 418 599.75 L 418.53125 599.75 L 419.09375 599.75 L 419.59375 599.75 L 420.0625 599.75 L 420.5625 599.75 L 420.9375 599.75 L 421.3125 599.75 L 421.65625 599.75 L 421.9375 599.75 L 422.21875 599.75 L 422.5625 599.75 L 423.5 599.75 L 424.3125 599.71875 L 425.15625 599.65625 L 426 599.59375 L 426.90625 599.5 L 427.78125 599.375 L 428.6875 599.1875 L 429.59375 599.03125 L 430.53125 598.8125 L 431.46875 598.59375 L 432.40625 598.3125 L 433.34375 598 L 434.28125 597.65625 L 435.15625 597.3125 L 436.09375 596.90625 L 437.03125 596.46875 L 437.9375 596 L 438.8125 595.4375 L 439.6875 594.90625 L 440.5625 594.28125 L 441.375 593.65625 L 442.25 592.96875 L 443 592.25 L 443.78125 591.4375 L 444.53125 590.625 L 445.21875 589.78125 L 445.90625 588.84375 L 446.53125 587.875 L 447.125 586.84375 L 447.6875 585.78125 L 448.1875 584.625 L 448.71875 583.4375 L 449.125 582.1875 L 449.46875 580.90625 L 449.8125 579.5625 L 450.0625 578.09375 L 450.34375 576.65625 L 450.46875 575.125 L 450.5625 573.5 L 450.59375 571.84375 L 450.59375 570.09375 L 450.5 568.4375 L 450.34375 566.8125 L 450.15625 565.28125 L 449.9375 563.84375 L 449.65625 562.4375 L 449.3125 561.0625 L 448.96875 559.8125 L 448.53125 558.5625 L 448.0625 557.40625 L 447.5625 556.3125 L 447.0625 555.25 L 446.46875 554.21875 L 445.84375 553.28125 L 445.21875 552.375 L 444.53125 551.53125 L 443.8125 550.71875 L 443.0625 550 L 442.3125 549.28125 L 441.53125 548.59375 L 440.71875 548 L 439.875 547.4375 L 439.03125 546.875 L 438.125 546.40625 L 437.21875 545.9375 L 436.34375 545.53125 L 435.40625 545.15625 L 434.46875 544.8125 L 433.46875 544.5 L 432.53125 544.25 L 431.5625 544 L 430.59375 543.78125 L 429.59375 543.59375 L 428.59375 543.4375 L 427.59375 543.3125 L 426.625 543.21875 L 425.59375 543.125 L 424.625 543.09375 L 423.65625 543.0625 L 422.65625 543.0625 L 422.1875 543.0625 L 421.84375 543.0625 L 421.4375 543.0625 L 420.90625 543.0625 L 420.3125 543.0625 L 419.6875 543.0625 L 418.96875 543.0625 L 418.15625 543.0625 L 417.34375 543.0625 L 416.4375 543.0625 L 415.5 543.0625 L 414.53125 543.0625 L 413.5625 543.0625 L 412.53125 543.0625 L 411.46875 543.0625 L 410.40625 543.0625 L 409.34375 543.0625 L 408.28125 543.0625 L 407.21875 543.0625 L 406.09375 543.0625 L 405.03125 543.0625 L 404 543.0625 L 403 543.0625 L 401.96875 543.0625 L 401.03125 543.0625 L 400.09375 543.0625 L 399.1875 543.0625 L 398.40625 543.0625 L 397.59375 543.0625 L 396.84375 543.0625 L 396.21875 543.0625 L 395.625 543.0625 L 395.125 543.0625 L 394.6875 543.0625 L 394.34375 543.0625 L 394.09375 543.0625 z M 406.09375 554.375 L 406.34375 554.375 L 406.8125 554.375 L 407.15625 554.375 L 407.5 554.375 L 407.90625 554.375 L 408.34375 554.375 L 408.8125 554.375 L 409.34375 554.375 L 409.84375 554.375 L 410.40625 554.375 L 411 554.375 L 411.59375 554.375 L 412.25 554.375 L 412.875 554.375 L 413.53125 554.375 L 414.15625 554.375 L 414.78125 554.375 L 415.46875 554.375 L 416.125 554.375 L 416.75 554.375 L 417.40625 554.375 L 418.03125 554.375 L 418.625 554.375 L 419.21875 554.375 L 419.78125 554.375 L 420.28125 554.375 L 420.8125 554.375 L 421.28125 554.375 L 421.75 554.375 L 422.125 554.375 L 422.46875 554.375 L 422.8125 554.375 L 423.0625 554.375 L 423.40625 554.375 L 423.75 554.375 L 424 554.4375 L 424.25 554.4375 L 424.5625 554.46875 L 424.90625 554.5 L 425.21875 554.5625 L 425.625 554.59375 L 426 554.6875 L 426.375 554.78125 L 426.8125 554.90625 L 427.28125 555.03125 L 427.71875 555.15625 L 428.1875 555.3125 L 428.65625 555.53125 L 429.125 555.71875 L 429.59375 555.96875 L 430.0625 556.21875 L 430.5625 556.46875 L 431.03125 556.78125 L 431.5 557.125 L 431.96875 557.5 L 432.4375 557.875 L 432.90625 558.25 L 433.34375 558.71875 L 433.8125 559.1875 L 434.1875 559.71875 L 434.59375 560.28125 L 435 560.875 L 435.34375 561.46875 L 435.6875 562.15625 L 436 562.8125 L 436.3125 563.5625 L 436.5625 564.3125 L 436.8125 565.125 L 437 566.03125 L 437.15625 566.90625 L 437.34375 567.84375 L 437.4375 568.84375 L 437.46875 569.90625 L 437.5 570.96875 L 437.46875 572.125 L 437.4375 573.21875 L 437.28125 574.28125 L 437.15625 575.25 L 436.9375 576.25 L 436.75 577.125 L 436.46875 578 L 436.1875 578.8125 L 435.875 579.59375 L 435.5 580.34375 L 435.125 581 L 434.75 581.65625 L 434.3125 582.28125 L 433.84375 582.84375 L 433.375 583.40625 L 432.875 583.90625 L 432.34375 584.375 L 431.84375 584.8125 L 431.28125 585.21875 L 430.71875 585.5625 L 430.1875 585.90625 L 429.625 586.25 L 429.03125 586.5625 L 428.46875 586.8125 L 427.875 587.03125 L 427.28125 587.28125 L 426.71875 587.4375 L 426.125 587.625 L 425.5625 587.78125 L 424.96875 587.90625 L 424.4375 588 L 423.875 588.125 L 423.34375 588.21875 L 422.8125 588.25 L 422.28125 588.3125 L 421.8125 588.34375 L 421.34375 588.375 L 420.875 588.4375 L 420.46875 588.4375 L 420.03125 588.4375 L 419.8125 588.4375 L 419.4375 588.4375 L 419.1875 588.4375 L 418.9375 588.4375 L 418.59375 588.4375 L 418.25 588.4375 L 417.875 588.4375 L 417.46875 588.4375 L 417.0625 588.4375 L 416.59375 588.4375 L 416.125 588.4375 L 415.65625 588.4375 L 415.125 588.4375 L 414.625 588.4375 L 414.125 588.4375 L 413.59375 588.4375 L 413.09375 588.4375 L 412.53125 588.4375 L 412.03125 588.4375 L 411.5 588.4375 L 411 588.4375 L 410.5 588.4375 L 410.03125 588.4375 L 409.5625 588.4375 L 409.09375 588.4375 L 408.65625 588.4375 L 408.28125 588.4375 L 407.90625 588.4375 L 407.5625 588.4375 L 407.21875 588.4375 L 406.9375 588.4375 L 406.6875 588.4375 L 406.3125 588.4375 L 406.09375 588.4375 L 406.09375 554.375 z "
   id="path34" />
</g><g
   id="LINE"
   style="fill:#000000;fill-opacity:1;stroke:none"
   transform="translate(0,-5.18233)">
	
		<path
   style="fill:#000000;fill-opacity:1;stroke:none"
   d="m 438.34375,203.71875 63.6875,107.3125 63.25,-107.3125 -126.9375,0 z m 27.03125,13.125 75.90625,0 -39.6875,66.28125 -36.21875,-66.28125 z"
   id="line43"
   inkscape:connector-curvature="0" />
</g><g
   id="LWPOLYLINE_11_"
   style="fill:#000000;fill-opacity:1;stroke:none"
   transform="translate(0,-1.99483)">
	
		<path
   style="fill:#000000;fill-opacity:1;stroke:none"
   d="m 502.46875,146.15625 -1.59375,0.0312 -1.625,0.0312 -1.5625,0.0937 -1.625,0.0937 -1.625,0.125 -1.59375,0.15625 -1.59375,0.15625 -1.59375,0.21875 -1.5625,0.25 -1.59375,0.25 -1.59375,0.28125 -1.53125,0.34375 -1.59375,0.34375 -1.5625,0.375 -1.53125,0.40625 -1.59375,0.40625 -1.53125,0.46875 -1.53125,0.5 -1.53125,0.5 -1.5,0.53125 -1.53125,0.5625 L 468,152.875 l -1.5,0.625 -1.4375,0.625 -1.46875,0.65625 -1.4375,0.6875 -1.46875,0.71875 -1.4375,0.75 -1.40625,0.78125 -1.40625,0.78125 -1.34375,0.8125 -1.375,0.84375 -1.375,0.84375 -1.34375,0.90625 -1.34375,0.90625 -1.25,0.9375 -1.34375,0.9375 -1.28125,1 -1.21875,1 -1.25,1 -1.21875,1.0625 -1.1875,1.0625 -1.1875,1.09375 -1.15625,1.09375 -1.15625,1.125 -1.15625,1.125 -1.0625,1.1875 -1.09375,1.1875 -1.0625,1.1875 -1.03125,1.25 -1.03125,1.21875 -1.03125,1.25 -0.96875,1.28125 -0.9375,1.28125 -0.9375,1.3125 -0.9375,1.34375 -0.84375,1.34375 -0.90625,1.34375 -0.8125,1.375 -0.8125,1.375 L 422,193.5625 421.21875,195 420.5,196.40625 l -0.71875,1.4375 -0.6875,1.46875 -0.6875,1.46875 -0.625,1.46875 -0.65625,1.46875 -0.5625,1.5 -0.59375,1.5 -0.5,1.5 -0.5,1.53125 -0.53125,1.53125 -0.40625,1.53125 -0.4375,1.5625 -0.4375,1.5625 -0.375,1.5625 -0.34375,1.5625 -0.28125,1.59375 -0.3125,1.5625 -0.25,1.5625 -0.25,1.625 L 411.125,227 l -0.15625,1.59375 -0.1875,1.59375 -0.125,1.59375 -0.0937,1.59375 -0.0625,1.625 -0.0625,1.59375 0,1.59375 0,1.625 0.0625,1.59375 0.0625,1.59375 0.0937,1.625 0.125,1.59375 0.1875,1.59375 0.15625,1.59375 0.21875,1.59375 0.25,1.59375 0.25,1.59375 0.3125,1.5625 0.28125,1.59375 0.34375,1.53125 0.375,1.59375 0.4375,1.5625 0.4375,1.53125 0.40625,1.53125 0.53125,1.53125 0.5,1.53125 0.5,1.5 0.59375,1.53125 0.5625,1.46875 0.65625,1.5 0.625,1.46875 0.6875,1.46875 0.6875,1.4375 0.71875,1.4375 0.71875,1.4375 0.78125,1.40625 0.78125,1.40625 0.8125,1.375 0.8125,1.375 0.90625,1.34375 0.84375,1.34375 0.9375,1.3125 0.9375,1.3125 0.9375,1.28125 0.96875,1.28125 1.03125,1.28125 1.03125,1.21875 1.03125,1.21875 1.0625,1.21875 1.09375,1.15625 1.0625,1.1875 1.15625,1.15625 1.15625,1.125 1.15625,1.09375 1.1875,1.09375 1.1875,1.0625 1.21875,1.03125 1.25,1.03125 1.21875,1 1.28125,0.96875 1.34375,0.9375 1.25,0.9375 L 451,314.5 l 1.34375,0.875 1.375,0.875 1.375,0.8125 1.34375,0.84375 1.40625,0.78125 1.40625,0.75 1.4375,0.75 1.46875,0.71875 1.4375,0.6875 1.46875,0.65625 1.4375,0.65625 1.5,0.625 1.46875,0.59375 1.53125,0.53125 1.5,0.53125 1.53125,0.53125 1.53125,0.46875 1.53125,0.46875 1.59375,0.40625 1.53125,0.40625 1.5625,0.40625 1.59375,0.34375 1.53125,0.3125 1.59375,0.28125 1.59375,0.25 1.5625,0.28125 1.59375,0.1875 1.59375,0.1875 1.59375,0.15625 1.625,0.125 1.625,0.0937 1.5625,0.0625 1.625,0.0625 1.59375,0 1.59375,0 1.625,-0.0625 1.625,-0.0625 1.5625,-0.0937 1.625,-0.125 1.625,-0.15625 1.5625,-0.1875 1.5625,-0.1875 1.625,-0.28125 1.59375,-0.25 1.5625,-0.28125 1.5625,-0.3125 1.59375,-0.34375 1.53125,-0.40625 1.5625,-0.40625 1.53125,-0.40625 1.53125,-0.46875 1.5625,-0.46875 1.53125,-0.53125 1.53125,-0.53125 1.46875,-0.53125 1.5,-0.59375 1.5,-0.625 1.5,-0.65625 1.4375,-0.65625 1.4375,-0.6875 1.46875,-0.71875 1.40625,-0.75 1.375,-0.75 1.40625,-0.78125 1.40625,-0.84375 1.375,-0.8125 1.375,-0.875 1.3125,-0.875 1.3125,-0.9375 1.3125,-0.9375 1.28125,-0.9375 1.28125,-0.96875 1.25,-1 1.28125,-1.03125 1.1875,-1.03125 1.1875,-1.0625 1.1875,-1.09375 1.1875,-1.09375 1.15625,-1.125 1.09375,-1.15625 1.125,-1.1875 1.0625,-1.15625 1.0625,-1.21875 1.0625,-1.21875 L 574,296.125 l 0.96875,-1.28125 1,-1.28125 0.96875,-1.28125 0.9375,-1.3125 0.90625,-1.3125 0.875,-1.34375 0.84375,-1.34375 0.875,-1.375 0.8125,-1.375 0.75,-1.40625 0.78125,-1.40625 0.75,-1.4375 0.71875,-1.4375 0.6875,-1.4375 0.6875,-1.46875 0.625,-1.46875 0.59375,-1.5 0.625,-1.46875 0.53125,-1.53125 0.5625,-1.5 0.5,-1.53125 0.46875,-1.53125 0.46875,-1.53125 0.4375,-1.53125 0.375,-1.5625 0.375,-1.59375 0.34375,-1.53125 0.34375,-1.59375 0.3125,-1.5625 0.25,-1.59375 0.21875,-1.59375 0.21875,-1.59375 0.1875,-1.59375 0.15625,-1.59375 0.125,-1.59375 0.0625,-1.625 0.0937,-1.59375 0.0312,-1.59375 0,-1.625 0,-1.59375 -0.0312,-1.59375 -0.0937,-1.625 -0.0625,-1.59375 -0.125,-1.59375 L 594,228.59375 593.8125,227 l -0.21875,-1.59375 -0.21875,-1.625 -0.25,-1.5625 -0.3125,-1.5625 -0.34375,-1.59375 -0.34375,-1.5625 -0.375,-1.5625 -0.375,-1.5625 -0.4375,-1.5625 -0.46875,-1.53125 L 590,209.75 l -0.5,-1.53125 -0.5625,-1.5 -0.53125,-1.5 -0.625,-1.5 -0.59375,-1.46875 -0.625,-1.46875 -0.6875,-1.46875 -0.6875,-1.46875 -0.71875,-1.4375 -0.75,-1.40625 -0.78125,-1.4375 -0.75,-1.375 -0.8125,-1.375 -0.875,-1.375 -0.84375,-1.34375 -0.875,-1.34375 -0.90625,-1.34375 -0.9375,-1.3125 -0.96875,-1.28125 -1,-1.28125 -0.96875,-1.25 -1.03125,-1.21875 -1.0625,-1.25 -1.0625,-1.1875 -1.0625,-1.1875 -1.125,-1.1875 -1.09375,-1.125 -1.15625,-1.125 -1.1875,-1.09375 -1.1875,-1.09375 -1.1875,-1.0625 -1.1875,-1.0625 -1.28125,-1 -1.25,-1 -1.28125,-1 -1.28125,-0.9375 -1.3125,-0.9375 -1.3125,-0.90625 L 552.625,161 l -1.375,-0.84375 -1.375,-0.84375 -1.40625,-0.8125 -1.40625,-0.78125 -1.375,-0.78125 -1.40625,-0.75 -1.46875,-0.71875 -1.4375,-0.6875 -1.4375,-0.65625 -1.5,-0.625 -1.5,-0.625 -1.5,-0.59375 -1.46875,-0.5625 -1.53125,-0.53125 -1.53125,-0.5 -1.5625,-0.5 -1.53125,-0.46875 -1.53125,-0.40625 -1.5625,-0.40625 -1.53125,-0.375 -1.59375,-0.34375 -1.5625,-0.34375 -1.5625,-0.28125 -1.59375,-0.25 -1.625,-0.25 -1.5625,-0.21875 -1.5625,-0.15625 -1.625,-0.15625 -1.625,-0.125 -1.5625,-0.0937 -1.625,-0.0937 -1.625,-0.0312 -1.59375,-0.0312 z m -0.4375,18.3125 1.25,0.0312 1.34375,0.0312 1.28125,0.0625 1.21875,0.0937 1.28125,0.0625 1.28125,0.125 1.28125,0.15625 1.28125,0.1875 1.28125,0.1875 1.21875,0.1875 1.28125,0.21875 1.21875,0.28125 1.25,0.25 1.28125,0.3125 1.21875,0.3125 1.25,0.34375 1.1875,0.375 1.25,0.40625 1.21875,0.40625 1.1875,0.40625 1.1875,0.46875 1.21875,0.46875 1.1875,0.46875 1.15625,0.53125 1.1875,0.53125 1.15625,0.53125 1.125,0.5625 1.125,0.59375 1.15625,0.625 1.09375,0.625 1.09375,0.65625 1.0625,0.65625 1.09375,0.6875 L 543,177 l 1.0625,0.71875 1.0625,0.75 1.03125,0.78125 1,0.78125 1,0.78125 0.96875,0.8125 0.96875,0.84375 1,0.84375 0.9375,0.875 0.9375,0.875 0.875,0.875 0.90625,0.9375 0.875,0.90625 0.875,0.96875 0.84375,0.9375 0.8125,0.96875 0.8125,1 0.8125,1 0.75,1 0.78125,1.03125 0.75,1.03125 0.71875,1.0625 0.6875,1.0625 0.6875,1.09375 0.6875,1.09375 0.625,1.09375 0.65625,1.125 0.59375,1.125 0.59375,1.125 0.59375,1.15625 0.5625,1.15625 0.5,1.125 0.5,1.1875 0.53125,1.1875 0.46875,1.1875 0.40625,1.1875 0.4375,1.21875 0.4375,1.21875 0.375,1.21875 0.34375,1.21875 0.34375,1.21875 0.34375,1.25 0.28125,1.25 0.25,1.25 0.25,1.25 0.28125,1.25 0.1875,1.28125 0.1875,1.25 0.15625,1.25 0.125,1.28125 0.15625,1.28125 0.125,1.28125 0.0312,1.28125 0.0937,1.28125 0.0312,1.25 0,1.28125 0,1.28125 -0.0312,1.28125 -0.0937,1.28125 -0.0312,1.28125 -0.125,1.28125 -0.15625,1.28125 -0.125,1.25 -0.15625,1.28125 -0.1875,1.25 -0.1875,1.25 -0.28125,1.25 -0.25,1.28125 -0.25,1.25 -0.28125,1.21875 -0.34375,1.25 -0.34375,1.21875 -0.34375,1.25 -0.375,1.21875 -0.4375,1.21875 -0.4375,1.1875 -0.40625,1.21875 -0.46875,1.1875 -0.53125,1.15625 -0.5,1.1875 -0.5,1.15625 -0.5625,1.15625 -0.59375,1.15625 -0.59375,1.125 -0.59375,1.125 -0.65625,1.125 -0.625,1.09375 -0.6875,1.09375 -0.6875,1.0625 -0.6875,1.09375 -0.71875,1.03125 -0.75,1.03125 -0.78125,1.03125 -0.75,1.03125 -0.8125,1 -0.8125,0.96875 -0.8125,0.96875 -0.84375,0.96875 -0.875,0.9375 -0.875,0.9375 -0.90625,0.90625 -0.875,0.90625 -0.9375,0.875 -0.9375,0.875 -1,0.84375 -0.96875,0.84375 -0.96875,0.8125 -1,0.78125 -1,0.78125 -1.03125,0.75 -1.0625,0.75 L 543,298.5 l -1.0625,0.6875 -1.09375,0.71875 -1.0625,0.65625 -1.09375,0.65625 -1.09375,0.625 -1.15625,0.625 -1.125,0.5625 -1.125,0.5625 -1.15625,0.5625 -1.1875,0.53125 -1.15625,0.53125 -1.1875,0.46875 -1.21875,0.46875 -1.1875,0.46875 -1.1875,0.40625 -1.21875,0.40625 -1.25,0.375 -1.1875,0.375 -1.25,0.34375 -1.21875,0.3125 -1.28125,0.3125 -1.25,0.28125 -1.21875,0.25 -1.28125,0.21875 -1.21875,0.21875 -1.28125,0.1875 -1.28125,0.1875 -1.28125,0.125 -1.28125,0.125 -1.28125,0.0937 -1.21875,0.0937 -1.28125,0.0312 -1.34375,0.0625 -1.25,0 -1.28125,0 -1.28125,-0.0625 -1.28125,-0.0312 -1.28125,-0.0937 -1.25,-0.0937 -1.25,-0.125 -1.28125,-0.125 -1.28125,-0.1875 -1.28125,-0.1875 -1.25,-0.21875 -1.28125,-0.21875 -1.21875,-0.25 -1.25,-0.28125 -1.25,-0.3125 -1.25,-0.3125 -1.25,-0.34375 -1.1875,-0.375 -1.21875,-0.375 -1.25,-0.40625 -1.1875,-0.40625 -1.1875,-0.46875 -1.1875,-0.46875 -1.1875,-0.46875 -1.15625,-0.53125 -1.1875,-0.53125 -1.15625,-0.5625 -1.125,-0.5625 -1.125,-0.5625 -1.15625,-0.625 -1.125,-0.625 -1.09375,-0.65625 -1.0625,-0.65625 -1.0625,-0.71875 -1.125,-0.6875 -1,-0.71875 -1.0625,-0.75 -1.03125,-0.75 -1.03125,-0.78125 -0.96875,-0.78125 -1,-0.8125 -0.96875,-0.84375 -0.96875,-0.84375 -0.9375,-0.875 -0.9375,-0.875 -0.90625,-0.90625 -0.875,-0.90625 -0.90625,-0.9375 -0.84375,-0.9375 -0.875,-0.96875 -0.78125,-0.96875 -0.8125,-0.96875 -0.8125,-1 -0.78125,-1.03125 -0.75,-1.03125 L 442,279.78125 441.28125,278.75 l -0.6875,-1.09375 -0.6875,-1.0625 L 439.25,275.5 l -0.65625,-1.09375 -0.625,-1.125 -0.59375,-1.125 -0.59375,-1.125 -0.625,-1.15625 -0.53125,-1.15625 -0.53125,-1.15625 -0.5,-1.1875 -0.5,-1.15625 -0.46875,-1.1875 -0.4375,-1.21875 -0.4375,-1.1875 -0.40625,-1.21875 -0.40625,-1.21875 -0.3125,-1.25 -0.34375,-1.21875 -0.34375,-1.25 -0.3125,-1.21875 -0.25,-1.25 -0.25,-1.28125 -0.25,-1.25 -0.21875,-1.25 -0.1875,-1.25 -0.15625,-1.28125 -0.125,-1.25 -0.125,-1.28125 -0.125,-1.28125 -0.0625,-1.28125 -0.0625,-1.28125 -0.0625,-1.28125 0,-1.28125 0,-1.28125 0.0625,-1.25 0.0625,-1.28125 0.0625,-1.28125 0.125,-1.28125 0.125,-1.28125 0.125,-1.28125 0.15625,-1.25 0.1875,-1.25 0.21875,-1.28125 0.25,-1.25 0.25,-1.25 0.25,-1.25 0.3125,-1.25 0.34375,-1.25 0.34375,-1.21875 0.3125,-1.21875 0.40625,-1.21875 0.40625,-1.21875 0.4375,-1.21875 0.4375,-1.1875 0.46875,-1.1875 0.5,-1.1875 0.5,-1.1875 0.53125,-1.125 0.53125,-1.15625 0.625,-1.15625 0.59375,-1.125 0.59375,-1.125 0.625,-1.125 0.65625,-1.09375 0.65625,-1.09375 0.6875,-1.09375 0.6875,-1.0625 0.71875,-1.0625 0.78125,-1.03125 0.75,-1.03125 0.78125,-1 0.8125,-1 0.8125,-1 0.78125,-0.96875 0.875,-0.9375 0.84375,-0.96875 0.90625,-0.90625 0.875,-0.9375 0.90625,-0.875 0.9375,-0.875 0.9375,-0.875 0.96875,-0.84375 0.96875,-0.84375 1,-0.8125 0.96875,-0.78125 1.03125,-0.78125 1.03125,-0.78125 1.0625,-0.75 1,-0.71875 1.125,-0.6875 1.0625,-0.6875 1.0625,-0.65625 1.09375,-0.65625 1.125,-0.625 1.15625,-0.625 1.125,-0.59375 1.125,-0.5625 1.15625,-0.53125 1.1875,-0.53125 1.15625,-0.53125 1.1875,-0.46875 1.1875,-0.46875 1.1875,-0.46875 1.1875,-0.40625 1.25,-0.40625 1.21875,-0.40625 1.1875,-0.375 1.25,-0.34375 1.25,-0.3125 1.25,-0.3125 1.25,-0.25 1.21875,-0.28125 1.28125,-0.21875 1.25,-0.1875 1.28125,-0.1875 1.28125,-0.1875 1.28125,-0.15625 1.25,-0.125 1.25,-0.0625 1.28125,-0.0937 1.28125,-0.0625 1.28125,-0.0312 1.28125,-0.0312 z"
   id="polygon37"
   inkscape:connector-curvature="0" />
</g><g
   id="LWPOLYLINE"
   style="stroke:none;fill:#000000;fill-opacity:1">
	
		<path
   fill="none"
   stroke="#000000"
   stroke-width="0.7087"
   stroke-linecap="round"
   stroke-linejoin="round"
   stroke-miterlimit="10"
   d="   M193.251,500.295c0-0.084,0-0.299,0-0.299v-0.426v-0.553v-0.682v-0.852v-0.938v-1.064v-1.15v-1.234v-1.363v-1.406v-1.49v-1.533   v-1.619v-1.66v-1.66v-1.705v-1.746v-1.703v-1.746v-1.703v-1.748v-1.66v-1.66v-1.576v-1.576v-1.49v-1.406v-1.32v-1.277v-1.15v-1.064   v-0.938v-0.809v-0.725v-0.553v-0.385v-0.256c0.063-0.084,0.255-0.084,0.255-0.084h0.299h0.426h0.532h0.617h0.703h0.81h0.873h0.937   h1.022h1.064h1.129h1.171h1.214h1.235h1.257h1.299h1.299h1.299h1.32h1.3h1.277h1.277h1.235h1.214h1.171h1.129h1.065h1.021h0.938   h0.873h0.81h0.702h0.618h0.532h0.404h0.319c0.171,0,0.256,0,0.256,0c0-0.17,0-0.342,0-0.342c0-0.127,0-0.34,0-0.34v-0.256v-0.256   v-0.256v-0.34v-0.299v-0.383v-0.34v-0.385v-0.383v-0.426v-0.383v-0.426v-0.426v-0.426v-0.428v-0.426v-0.426v-0.426v-0.383v-0.383   v-0.383v-0.385v-0.34V444.5v-0.297v-0.299v-0.256v-0.213c0-0.213,0-0.383,0-0.383c0-0.129,0-0.213,0-0.213   c-0.085-0.086-0.256-0.086-0.256-0.086h-0.319h-0.404h-0.532h-0.618h-0.702h-0.81h-0.873h-0.938h-1.021h-1.065h-1.129h-1.171   h-1.214h-1.235h-1.277h-1.277h-1.3h-1.32h-1.299h-1.299h-1.299h-1.257h-1.235h-1.214h-1.171h-1.129h-1.064h-1.022h-0.937h-0.873   h-0.81h-0.703h-0.617h-0.532h-0.426h-0.299c-0.191,0-0.255,0-0.255,0c0-0.084,0-0.256,0-0.256v-0.254v-0.426v-0.469v-0.555v-0.682   v-0.723v-0.811v-0.895v-0.936v-0.98v-1.021v-1.107v-1.107v-1.15v-1.193v-1.15v-1.234v-1.191v-1.236v-1.191v-1.193v-1.15v-1.15   v-1.148v-1.066v-1.021v-1.021v-0.938v-0.852v-0.809v-0.768v-0.639v-0.555v-0.51v-0.385v-0.297c0-0.17,0-0.213,0-0.213   c0.063,0,0.276,0,0.276,0h0.319h0.426h0.554h0.66h0.746h0.83h0.916h1.001h1.064h1.129h1.171h1.235h1.256h1.32h1.321h1.362h1.363   h1.362h1.385h1.362h1.342h1.342h1.299h1.278h1.214h1.192h1.129h1.064h0.979h0.938h0.83h0.745h0.66h0.532h0.447h0.319   c0.192,0,0.256,0,0.256,0c0-0.17,0-0.342,0-0.342c0-0.127,0-0.34,0-0.34v-0.256v-0.256v-0.256v-0.34v-0.299V408v-0.34v-0.385   v-0.383v-0.426v-0.383v-0.426v-0.426v-0.428v-0.426v-0.426v-0.426v-0.426v-0.383v-0.383v-0.385v-0.383v-0.34v-0.342v-0.297v-0.299   v-0.256v-0.213c0-0.213,0-0.383,0-0.383c0-0.129,0-0.213,0-0.213c-0.085-0.086-0.341-0.086-0.341-0.086h-0.426h-0.596h-0.725   h-0.873h-1.001h-1.107h-1.235h-1.32h-1.427h-1.49h-1.576h-1.64h-1.683h-1.746h-1.768h-1.81h-1.811h-1.831h-1.832h-1.831h-1.811   h-1.768h-1.725h-1.703h-1.641h-1.575h-1.491h-1.427h-1.32h-1.235h-1.107h-1h-0.874h-0.724h-0.597h-0.426h-0.255   c-0.086,0.17-0.086,0.725-0.086,0.725v0.895v1.191v1.533v1.789v2.088v2.299v2.514v2.768v2.939v3.109v3.236v3.408v3.492v3.621v3.662   v3.748v3.791v3.791v3.789v3.748v3.748v3.664v3.619v3.492v3.408v3.236v3.109v2.939v2.768v2.514v2.342v2.045v1.789v1.533v1.191v0.895   v0.555C181.048,500.295,193.251,500.295,193.251,500.295z"
   id="path4"
   style="stroke:none;fill:#000000;fill-opacity:1" />
</g>
<g
   id="LWPOLYLINE_1_"
   style="stroke:none;fill:#000000;fill-opacity:1">
	
		<path
   fill="none"
   stroke="#000000"
   stroke-width="0.7087"
   stroke-linecap="round"
   stroke-linejoin="round"
   stroke-miterlimit="10"
   d="   M293.574,500.295c0-0.17,0-0.299,0-0.299c0-0.17,0-0.383,0-0.383V499.4v-0.256v-0.297v-0.299v-0.34v-0.342v-0.383v-0.383v-0.385   v-0.383v-0.426v-0.426v-0.426v-0.426v-0.426v-0.426v-0.385v-0.426v-0.426v-0.383v-0.383v-0.342v-0.383v-0.299v-0.297v-0.299v-0.256   v-0.256c0-0.17,0-0.34,0-0.34c0-0.17,0-0.256,0-0.256c-0.085-0.084-0.298-0.084-0.298-0.084h-0.341h-0.469h-0.596h-0.682h-0.81   h-0.895h-0.979h-1.064h-1.15h-1.214h-1.256h-1.32h-1.363h-1.384h-1.428h-1.447h-1.47h-1.47h-1.469h-1.47h-1.448h-1.427h-1.384   h-1.363h-1.32h-1.277h-1.193h-1.149h-1.065h-0.979h-0.895h-0.809h-0.682h-0.597h-0.468h-0.341c-0.213,0-0.299,0-0.299,0   c0-0.043,0-0.256,0-0.256v-0.299v-0.426v-0.512v-0.639v-0.682v-0.809v-0.895v-0.938v-1.021v-1.064v-1.107v-1.193v-1.191v-1.236   v-1.277v-1.277v-1.32v-1.277v-1.32v-1.32v-1.279v-1.277v-1.234v-1.193v-1.191v-1.107v-1.066v-1.021v-0.938v-0.895v-0.809v-0.682   v-0.639v-0.512v-0.426v-0.297c0-0.213,0-0.256,0-0.256c0.064,0,0.256,0,0.256,0h0.319h0.426h0.533h0.639h0.745h0.81h0.895h0.979   h1.043h1.086h1.15h1.214h1.235h1.277h1.277h1.32h1.342h1.342h1.342h1.342h1.32h1.299h1.257h1.256h1.192h1.15h1.107h1.022h0.979   h0.895h0.809h0.745h0.64h0.532h0.426h0.319c0.191,0,0.256,0,0.256,0c0-0.17,0-0.342,0-0.342c0-0.127,0-0.34,0-0.34v-0.256v-0.256   v-0.256v-0.34v-0.299v-0.383v-0.34v-0.385v-0.383v-0.426v-0.383v-0.426v-0.426v-0.426v-0.428v-0.426v-0.426v-0.426v-0.383v-0.383   v-0.383v-0.385v-0.34V444.5v-0.297v-0.299v-0.256v-0.213c0-0.213,0-0.383,0-0.383c0-0.129,0-0.213,0-0.213   c-0.064-0.086-0.256-0.086-0.256-0.086h-0.319h-0.426h-0.532h-0.64h-0.745h-0.809h-0.895h-0.979h-1.022h-1.107h-1.15h-1.192h-1.256   h-1.257h-1.299h-1.32h-1.342h-1.342h-1.342h-1.342h-1.32h-1.277h-1.277h-1.235h-1.214h-1.15h-1.086h-1.043h-0.979h-0.895h-0.81   h-0.745h-0.639h-0.533h-0.426h-0.319c-0.191,0-0.256,0-0.256,0c0-0.084,0-0.256,0-0.256v-0.254v-0.426v-0.469v-0.555v-0.682v-0.723   v-0.811v-0.895v-0.936v-0.98v-1.021v-1.107v-1.107v-1.15v-1.193v-1.15v-1.234v-1.191v-1.236v-1.191v-1.193v-1.15v-1.15v-1.148   v-1.066v-1.021v-1.021v-0.938v-0.852v-0.809v-0.768v-0.639v-0.555v-0.51v-0.385v-0.297c0-0.17,0-0.213,0-0.213   c0.086,0,0.277,0,0.277,0h0.341h0.469h0.574h0.682h0.788h0.873h0.958h1.044h1.107h1.192h1.235h1.277h1.342h1.363h1.384h1.427h1.427   h1.427h1.448h1.427h1.427h1.385h1.362h1.342h1.278h1.234h1.193h1.107h1.043h0.958h0.873h0.788h0.682h0.575h0.469h0.341   c0.191,0,0.276,0,0.276,0c0-0.17,0-0.342,0-0.342c0-0.127,0-0.34,0-0.34v-0.256v-0.256v-0.256v-0.34v-0.299V408v-0.34v-0.385   v-0.383v-0.426v-0.383v-0.426v-0.426v-0.428v-0.426v-0.426v-0.426v-0.426v-0.383v-0.383v-0.385v-0.383v-0.34v-0.342v-0.297v-0.299   v-0.256v-0.213c0-0.213,0-0.383,0-0.383c0-0.129,0-0.213,0-0.213c-0.106-0.086-0.384-0.086-0.384-0.086h-0.446h-0.597h-0.767   h-0.895h-1.022h-1.149h-1.278h-1.384h-1.47h-1.555h-1.618h-1.704h-1.746h-1.81h-1.832h-1.874h-1.874h-1.895h-1.896h-1.896h-1.853   h-1.853h-1.789h-1.768h-1.683h-1.64h-1.555h-1.469h-1.363h-1.278h-1.149h-1.044h-0.894h-0.768h-0.596h-0.447h-0.277   c-0.085,0.17-0.085,0.725-0.085,0.725v0.895v1.191v1.533v1.789v2.088v2.299v2.514v2.768v2.939v3.109v3.236v3.408v3.492v3.621v3.662   v3.748v3.791v3.791v3.789v3.748v3.748v3.664v3.619v3.492v3.408v3.236v3.109v2.939v2.768v2.514v2.342v2.045v1.789v1.533v1.191v0.895   v0.555C242.103,500.295,293.574,500.295,293.574,500.295z"
   id="path7"
   style="stroke:none;fill:#000000;fill-opacity:1" />
</g>
<g
   id="LWPOLYLINE_2_"
   style="stroke:none;fill:#000000;fill-opacity:1">
	
		<path
   fill="none"
   stroke="#000000"
   stroke-width="0.7087"
   stroke-linecap="round"
   stroke-linejoin="round"
   stroke-miterlimit="10"
   d="   M359.847,500.295c0-0.17,0-0.299,0-0.299c0-0.17,0-0.383,0-0.383V499.4v-0.256v-0.297v-0.299v-0.34v-0.342v-0.383v-0.383v-0.385   v-0.383v-0.426v-0.426v-0.426v-0.426v-0.426v-0.426v-0.385v-0.426v-0.426v-0.383v-0.383v-0.342v-0.383v-0.299v-0.297v-0.299v-0.256   v-0.256c0-0.17,0-0.34,0-0.34c0-0.17,0-0.256,0-0.256c-0.043-0.084-0.256-0.084-0.256-0.084h-0.384h-0.468h-0.554h-0.725h-0.809   h-0.895h-0.979h-1.065h-1.107h-1.234h-1.235h-1.32h-1.363h-1.405h-1.448h-1.448h-1.448h-1.49h-1.448h-1.448h-1.448h-1.448h-1.405   h-1.363h-1.32h-1.234h-1.235h-1.107h-1.064h-1.022h-0.895h-0.767h-0.724h-0.597h-0.469h-0.341c-0.213,0-0.255,0-0.255,0   c0-0.043,0-0.256,0-0.256v-0.299v-0.426v-0.512v-0.639v-0.682v-0.809v-0.895v-0.938v-1.021v-1.064v-1.107v-1.193v-1.191v-1.236   v-1.277v-1.277v-1.32v-1.277v-1.32v-1.32v-1.279v-1.277v-1.234v-1.193v-1.191v-1.107v-1.066v-1.021v-0.938v-0.895v-0.809v-0.682   v-0.639v-0.512v-0.426v-0.297c0-0.213,0-0.256,0-0.256c0.042,0,0.255,0,0.255,0h0.299h0.426h0.554h0.639h0.724h0.81h0.895h0.979   h1.022h1.107h1.149h1.192h1.235h1.278h1.32h1.32h1.32h1.32h1.362h1.32h1.32h1.32h1.278h1.235h1.192h1.149h1.107h1.022h0.979h0.895   h0.81h0.724h0.639h0.554h0.426h0.299c0.213,0,0.255,0,0.255,0c0-0.17,0-0.342,0-0.342c0-0.127,0-0.34,0-0.34v-0.256v-0.256v-0.256   v-0.34v-0.299v-0.383v-0.34v-0.385v-0.383v-0.426v-0.383v-0.426v-0.426v-0.426v-0.428v-0.426v-0.426v-0.426v-0.383v-0.383v-0.383   v-0.385v-0.34V444.5v-0.297v-0.299v-0.256v-0.213c0-0.213,0-0.383,0-0.383c0-0.129,0-0.213,0-0.213   c-0.042-0.086-0.255-0.086-0.255-0.086H355.8h-0.426h-0.554h-0.639h-0.724h-0.81h-0.895h-0.979h-1.022h-1.107h-1.149h-1.192h-1.235   h-1.278h-1.32h-1.32h-1.32h-1.362h-1.32h-1.32h-1.32h-1.32h-1.278h-1.235h-1.192h-1.149h-1.107h-1.022h-0.979h-0.895h-0.81h-0.724   h-0.639H321.6h-0.426h-0.299c-0.213,0-0.255,0-0.255,0c0-0.084,0-0.256,0-0.256v-0.254v-0.426v-0.469v-0.555v-0.682v-0.723v-0.811   v-0.895v-0.936v-0.98v-1.021v-1.107v-1.107v-1.15v-1.193v-1.15v-1.234v-1.191v-1.236v-1.191v-1.193v-1.15v-1.15v-1.148v-1.066   v-1.021v-1.021v-0.938v-0.852v-0.809v-0.768v-0.639v-0.555v-0.51v-0.385v-0.297c0-0.17,0-0.213,0-0.213c0.042,0,0.255,0,0.255,0   h0.341h0.469h0.554h0.682h0.809h0.853h0.979h1.021h1.15h1.15h1.234h1.32h1.32h1.363h1.405h1.406h1.405h1.448h1.448h1.447h1.406   h1.405h1.362h1.321h1.277h1.235h1.192h1.107h1.022h0.979h0.895h0.767h0.681h0.597h0.426h0.341c0.213,0,0.298,0,0.298,0   c0-0.17,0-0.342,0-0.342c0-0.127,0-0.34,0-0.34v-0.256v-0.256v-0.256v-0.34v-0.299V408v-0.34v-0.385v-0.383v-0.426v-0.383v-0.426   v-0.426v-0.428v-0.426v-0.426v-0.426v-0.426v-0.383v-0.383v-0.385v-0.383v-0.34v-0.342v-0.297v-0.299v-0.256v-0.213   c0-0.213,0-0.383,0-0.383c0-0.129,0-0.213,0-0.213c-0.085-0.086-0.383-0.086-0.383-0.086h-0.426h-0.64h-0.724h-0.895h-1.064h-1.15   h-1.277h-1.363h-1.448h-1.575h-1.619h-1.703h-1.746h-1.789h-1.874h-1.831h-1.917h-1.874h-1.917h-1.874h-1.874h-1.831h-1.789h-1.746   h-1.703H319.3h-1.533h-1.448h-1.406h-1.277h-1.15h-1.021h-0.895h-0.767h-0.597h-0.426h-0.298c-0.085,0.17-0.085,0.725-0.085,0.725   v0.895v1.191v1.533v1.789v2.088v2.299v2.514v2.768v2.939v3.109v3.236v3.408v3.492v3.621v3.662v3.748v3.791v3.791v3.789v3.748v3.748   v3.664v3.619v3.492v3.408v3.236v3.109v2.939v2.768v2.514v2.342v2.045v1.789v1.533v1.191v0.895v0.555   C308.396,500.295,359.847,500.295,359.847,500.295z"
   id="path10"
   style="stroke:none;fill:#000000;fill-opacity:1" />
</g>
<g
   id="LWPOLYLINE_3_"
   style="stroke:none;fill:#000000;fill-opacity:1">
	
		
</g>

<g
   id="LWPOLYLINE_5_"
   style="stroke:none;fill:#000000;fill-opacity:1">
	
		<path
   fill="none"
   stroke="#000000"
   stroke-width="0.7087"
   stroke-linecap="round"
   stroke-linejoin="round"
   stroke-miterlimit="10"
   d="   M166.205,613.715l-0.063,0.725l-0.043,0.809l-0.063,0.811l-0.021,0.895l-0.021,0.895l-0.021,0.936l0.021,0.98l0.043,0.98   l0.042,1.021l0.085,1.021l0.128,1.064l0.149,1.066l0.191,1.064l0.213,1.064l0.277,1.107l0.298,1.064l0.362,1.064l0.404,1.064   l0.469,1.066l0.511,1.021l0.554,1.021l0.639,1.023l0.682,0.936l0.767,0.98l0.831,0.895l0.895,0.895l0.958,0.852l1.043,0.768   l1.129,0.766l1.214,0.725l1.278,0.639l1.384,0.596l1.47,0.555l1.555,0.469l1.66,0.426l1.747,0.34l1.853,0.299l1.938,0.213   l2.065,0.127l2.173,0.043l1.171-0.043l1.172-0.043l1.171-0.041l1.149-0.129l1.15-0.086l1.15-0.17l1.128-0.17l1.107-0.213   l1.107-0.256l1.086-0.297l1.065-0.299l1.064-0.342l1.022-0.383l1.021-0.426l1.001-0.426l0.959-0.512l0.958-0.51l0.916-0.555   l0.895-0.596l0.852-0.639l0.852-0.682l0.788-0.682l0.788-0.768l0.724-0.809l0.703-0.809l0.682-0.895l0.617-0.938l0.597-0.938   l0.554-1.021l0.511-1.064l0.469-1.107l0.426-1.15l0.383-1.193l0.341-1.234l0.277-1.32l0.234-1.32l0.191-1.406l0.149-1.404   l0.063-1.533l0.043-1.533l-0.086-2.344l-0.233-2.215l-0.405-2.129l-0.532-1.959l-0.66-1.875l-0.788-1.787l-0.916-1.662   l-1.021-1.576l-1.107-1.49l-1.214-1.406l-1.278-1.361l-1.384-1.236l-1.427-1.191l-1.491-1.15l-1.533-1.107l-1.597-1.021   l-1.618-1.023l-1.641-0.938l-1.66-0.936l-1.661-0.895l-1.661-0.895l-1.661-0.895l-1.64-0.895l-1.619-0.852l-1.575-0.895   l-1.555-0.852l-1.491-0.938l-1.427-0.938l-1.362-0.938l-1.3-0.979l-1.214-1.021l-1.107-1.107l-1.021-1.107l-0.895-1.193   l-0.81-1.234l-0.66-1.32l-0.532-1.406l-0.384-1.49l-0.233-1.533l-0.086-1.662v-0.766l0.043-0.768l0.085-0.725l0.085-0.723   l0.128-0.682l0.149-0.639l0.191-0.639l0.191-0.639l0.234-0.598l0.234-0.553l0.277-0.555l0.276-0.553l0.319-0.512l0.319-0.469   l0.362-0.469l0.362-0.469l0.383-0.426l0.405-0.426l0.426-0.383l0.426-0.34l0.447-0.385l0.469-0.297l0.468-0.342l0.49-0.256   l0.511-0.297l0.512-0.256l0.511-0.213l0.532-0.256l0.532-0.17l0.554-0.17l0.554-0.172l0.575-0.17l0.554-0.127l0.575-0.086   l0.575-0.084l0.596-0.086l0.575-0.086l0.597-0.043h0.574h0.597h0.83l0.81,0.043l0.788,0.086l0.745,0.086l0.725,0.127l0.681,0.17   l0.682,0.17l0.639,0.213l0.618,0.213l0.575,0.256l0.574,0.299l0.533,0.299l0.511,0.34l0.489,0.34l0.469,0.385l0.447,0.383   l0.426,0.426l0.405,0.426l0.361,0.469l0.362,0.512l0.319,0.469l0.319,0.553l0.298,0.512l0.277,0.553l0.234,0.598l0.234,0.596   l0.213,0.596l0.213,0.639l0.17,0.639l0.149,0.639l0.149,0.682l0.127,0.682l0.106,0.682l0.107,0.725l0.063,0.725l0.063,0.723   l0.043,0.768l0.043,0.725l0.021,0.766v0.809c0.213,0,0.362,0,0.362,0c0.213,0,0.447,0,0.447,0h0.256h0.298h0.341h0.341h0.383h0.405   h0.426h0.426h0.469h0.468h0.469h0.49h0.489h0.469h0.511h0.469h0.49h0.468h0.469h0.469h0.426h0.426h0.405h0.383h0.341h0.341h0.298   h0.256h0.234c0.191,0,0.361,0,0.361,0c0.214,0,0.256-1.49,0.256-1.49v-1.447l-0.042-1.406l-0.086-1.363l-0.128-1.277l-0.148-1.277   l-0.213-1.236l-0.234-1.191l-0.277-1.15l-0.319-1.15l-0.361-1.064l-0.405-1.021l-0.426-0.98l-0.469-0.979l-0.511-0.895   l-0.554-0.895l-0.575-0.811l-0.617-0.809l-0.639-0.766l-0.703-0.725l-0.703-0.682l-0.767-0.639l-0.787-0.596l-0.81-0.598   l-0.873-0.51l-0.873-0.512l-0.916-0.469l-0.958-0.426l-0.979-0.383l-1.001-0.385l-1.044-0.297l-1.086-0.299l-1.086-0.256   l-1.129-0.213l-1.171-0.17l-1.172-0.17l-1.214-0.129l-1.256-0.041l-1.257-0.086h-1.299h-1.235l-1.235,0.086l-1.192,0.041   l-1.192,0.129l-1.171,0.17l-1.172,0.17l-1.128,0.213l-1.129,0.256l-1.086,0.256l-1.086,0.34l-1.065,0.342l-1.022,0.383l-1,0.426   l-1.001,0.426l-0.959,0.469l-0.915,0.555l-0.916,0.51l-0.873,0.598l-0.852,0.639l-0.81,0.639l-0.788,0.682l-0.745,0.723   l-0.725,0.768l-0.702,0.809l-0.639,0.811l-0.618,0.852l-0.596,0.895l-0.533,0.936l-0.511,0.98l-0.469,0.98l-0.404,1.021   l-0.404,1.107l-0.341,1.107l-0.298,1.107l-0.256,1.191l-0.213,1.236l-0.149,1.234l-0.128,1.277l-0.085,1.32l-0.021,1.363   l0.085,2.215l0.234,2.131l0.405,2l0.532,1.875l0.66,1.789l0.788,1.66l0.915,1.619l1.022,1.49l1.107,1.449l1.214,1.361l1.277,1.279   l1.363,1.191l1.448,1.193l1.49,1.064l1.533,1.064l1.598,1.023l1.618,0.979l1.64,0.938l1.661,0.895l1.661,0.895l1.661,0.895   l1.661,0.852l1.64,0.852l1.619,0.895l1.575,0.852l1.555,0.852l1.491,0.895l1.427,0.938l1.362,0.938l1.299,0.979l1.214,0.98   l1.107,1.064l1.022,1.107l0.895,1.15l0.788,1.191l0.682,1.277l0.532,1.363l0.383,1.449l0.234,1.49l0.085,1.576v0.895l-0.042,0.895   l-0.085,0.852l-0.086,0.809l-0.127,0.768l-0.171,0.766l-0.17,0.725l-0.213,0.725l-0.213,0.68l-0.256,0.641l-0.277,0.639   l-0.319,0.596l-0.319,0.553l-0.341,0.555l-0.361,0.512l-0.384,0.51l-0.426,0.469l-0.426,0.469l-0.426,0.426l-0.469,0.383   l-0.49,0.385l-0.511,0.383l-0.511,0.34l-0.533,0.299l-0.554,0.299l-0.554,0.254l-0.574,0.256l-0.597,0.213l-0.617,0.213   l-0.618,0.213l-0.617,0.172l-0.66,0.127l-0.639,0.127l-0.682,0.129l-0.66,0.086l-0.682,0.084l-0.703,0.086l-0.702,0.043h-0.703   h-0.724H194.4h-0.575l-0.596-0.043l-0.597-0.086l-0.596-0.084l-0.597-0.086l-0.597-0.129l-0.574-0.127l-0.597-0.17l-0.575-0.17   l-0.574-0.172l-0.575-0.254l-0.554-0.215l-0.554-0.297l-0.532-0.256l-0.533-0.34l-0.532-0.342l-0.489-0.34l-0.512-0.385   l-0.468-0.426l-0.469-0.426l-0.447-0.469l-0.447-0.51l-0.404-0.512l-0.405-0.553l-0.383-0.555l-0.362-0.596l-0.341-0.639   l-0.319-0.682l-0.276-0.682l-0.277-0.725l-0.256-0.766l-0.213-0.811l-0.191-0.809l-0.17-0.852l-0.128-0.895l-0.106-0.938   l-0.085-0.938l-0.043-1.021l-0.021-1.021c0-0.213,0-0.256,0-0.256c0-0.213,0-0.299,0-0.299c0-0.17,0-0.256,0-0.256   c0-0.213,0-0.297,0-0.297c0-0.172,0-0.299,0-0.299c0-0.17,0-0.299,0-0.299c0-0.17,0-0.254,0-0.254c0-0.172,0-0.256,0-0.256   c0-0.172,0-0.213,0-0.213C178.429,613.715,166.205,613.715,166.205,613.715z"
   id="path19"
   style="stroke:none;fill:#000000;fill-opacity:1" />
</g>
<g
   id="LWPOLYLINE_6_"
   style="stroke:none;fill:#000000;fill-opacity:1">
	
		<path
   fill="none"
   stroke="#000000"
   stroke-width="0.7087"
   stroke-linecap="round"
   stroke-linejoin="round"
   stroke-miterlimit="10"
   d="   M234.245,543.057c0,0.17,0,0.299,0,0.299c0,0.17,0,0.383,0,0.383v0.256v0.256v0.256v0.34v0.299v0.34v0.383v0.385v0.383v0.426v0.383   v0.426v0.426v0.426v0.426v0.428V550v0.383v0.426v0.383v0.383v0.385v0.34v0.342v0.297v0.256v0.299v0.213c0,0.213,0,0.383,0,0.383   c0,0.127,0,0.213,0,0.213c0.191,0.086,0.426,0.086,0.426,0.086h0.319h0.383h0.469h0.532h0.597h0.66h0.702h0.767h0.81h0.831h0.873   h0.915h0.938h0.937h0.979h0.98h0.979h0.979h0.958h0.979h0.938h0.937h0.916h0.873h0.852h0.788h0.767h0.703h0.66h0.596h0.533h0.468   h0.405h0.298h0.234c0.191,0.17,0.191,0.639,0.191,0.639v0.809v1.064v1.363v1.576v1.832v2.086v2.215v2.471v2.598v2.77v2.895v3.025   v3.109v3.193v3.236v3.322v3.365v3.365v3.365v3.363v3.279v3.279v3.195v3.109v3.023v2.896v2.768v2.6v2.428v2.256v2.045v1.832v1.617   v1.363v1.064v0.768v0.512c0.213,0.17,0.362,0.17,0.362,0.17c0.191,0,0.426,0,0.426,0h0.276h0.299h0.319h0.361h0.384h0.404h0.426   h0.427h0.447h0.468h0.49h0.469h0.489h0.49h0.489h0.49h0.489h0.469h0.469h0.447h0.447h0.426h0.404h0.384h0.341h0.341h0.298h0.255   h0.234c0.192,0,0.362,0,0.362,0c0.191-0.17,0.191-0.682,0.191-0.682v-0.768v-1.064v-1.363v-1.617v-1.832v-2.045v-2.256v-2.428v-2.6   v-2.768v-2.896v-3.023v-3.109v-3.195v-3.279v-3.279v-3.363v-3.365v-3.365v-3.365v-3.322v-3.236v-3.193v-3.109v-3.025v-2.895v-2.77   v-2.598v-2.471v-2.215v-2.086v-1.832v-1.576v-1.363v-1.064v-0.809v-0.469c0.192-0.17,0.405-0.17,0.405-0.17h0.319h0.361h0.469   h0.512h0.574h0.64h0.681h0.746h0.767h0.809h0.853h0.873h0.915h0.916h0.938h0.937h0.938h0.958h0.937h0.938h0.916h0.894h0.895h0.831   h0.83h0.767h0.745h0.682h0.639h0.575h0.512h0.447h0.383h0.298h0.234c0.171-0.172,0.171-0.299,0.171-0.299c0-0.17,0-0.383,0-0.383   v-0.213v-0.299v-0.256v-0.297v-0.342v-0.34v-0.385v-0.383v-0.383v-0.426V550v-0.426v-0.428v-0.426v-0.426v-0.426v-0.426v-0.383   v-0.426v-0.383v-0.385v-0.383v-0.34v-0.299v-0.34v-0.256v-0.256v-0.256c0-0.213,0-0.383,0-0.383c0-0.129,0-0.213,0-0.213   C298.792,543.057,234.245,543.057,234.245,543.057z"
   id="path22"
   style="stroke:none;fill:#000000;fill-opacity:1" />
</g>

<g
   id="LWPOLYLINE_8_"
   style="stroke:none;fill:#000000;fill-opacity:1">
	
		
</g>
<g
   id="LWPOLYLINE_9_"
   style="stroke:none;fill:#000000;fill-opacity:1">
	
		
</g>


<g
   id="LWPOLYLINE_12_">
	
		
</g>

<g
   id="LINE_1_">
	
		
</g>
<g
   id="LINE_2_">
	
		
</g>
<g
   id="LINE_3_">
	
		
</g>
<g
   id="LINE_4_">
	
		
</g>
<g
   id="LINE_5_">
	
		
</g>













<g
   id="TRACE_13_">
	
	
</g>


<path
   style="fill:#000000;fill-opacity:1;stroke:#000000;stroke-width:0.02097458;stroke-miterlimit:10;stroke-opacity:1;stroke-dasharray:none"
   d="m 207.17988,261.86838 c -27.13437,-62.62954 -28.08665,-64.78529 -28.60076,-64.74577 -0.50048,0.0385 -2.18231,3.84999 -28.54531,64.69236 -15.40742,35.55832 -28.06576,64.65128 -28.12964,64.65103 -0.0639,-2.5e-4 -12.72513,-29.09326 -28.136116,-64.65112 -26.123306,-60.27445 -28.05519,-64.65337 -28.540135,-64.69064 -0.494826,-0.038 -0.942593,0.90913 -9.195305,19.45091 l -8.675148,19.49089 -9.842643,0 c -9.28682,0 -9.834831,-0.0207 -9.704296,-0.36706 0.07609,-0.20188 8.510103,-20.54641 18.74225,-45.21006 12.25111,-29.53018 18.664745,-44.74872 18.782077,-44.56689 0.098,0.15187 12.750485,29.29523 28.11664,64.76303 26.288066,60.6775 27.968806,64.48692 28.452126,64.48712 0.48337,2.1e-4 2.16503,-3.81055 28.52624,-64.64235 15.40693,-35.55342 28.06118,-64.69116 28.12057,-64.75055 0.0594,-0.0594 12.7443,29.04474 28.1887,64.67583 25.8823,59.71189 28.1181,64.78163 28.55806,64.75615 0.41218,-0.0239 0.71477,-0.57156 2.21698,-4.01281 0.95682,-2.19184 13.58322,-31.33079 28.05868,-64.75323 14.47545,-33.42243 26.36619,-60.76758 26.42387,-60.767 0.0577,5.8e-4 12.375,28.3324 27.37182,62.95959 14.99683,34.62719 27.6213,63.76566 28.05436,64.75217 1.3964,3.18085 0.50773,4.64775 10.42762,-17.21232 l 8.65054,-19.06289 10.27769,0 c 9.45708,0 10.2671,0.0276 10.14513,0.34543 -0.0729,0.18999 -8.69568,20.34828 -19.16174,44.79619 l -19.02919,44.45074 -0.41949,-0.91839 c -0.23072,-0.50511 -12.87839,-29.67517 -28.10593,-64.82237 -26.25828,-60.60762 -27.7135,-63.90407 -28.21081,-63.90562 -0.49789,-0.001 -1.93536,3.25613 -28.4806,64.54473 -15.37594,35.5005 -28.02623,64.65958 -28.11177,64.79796 -0.0897,0.14505 -12.04228,-27.18452 -28.22447,-64.53506 l 0,0 z"
   id="path3968"
   inkscape:connector-curvature="0" /></svg>