<?xml version="1.0" encoding="UTF-8" standalone="no"?>
<!-- Generator: Adobe Illustrator 16.0.1, SVG Export Plug-In . SVG Version: 6.00 Build 0)  -->

<svg
   xmlns:dc="http://purl.org/dc/elements/1.1/"
   xmlns:cc="http://creativecommons.org/ns#"
   xmlns:rdf="http://www.w3.org/1999/02/22-rdf-syntax-ns#"
   xmlns:svg="http://www.w3.org/2000/svg"
   xmlns="http://www.w3.org/2000/svg"
   xmlns:sodipodi="http://sodipodi.sourceforge.net/DTD/sodipodi-0.dtd"
   xmlns:inkscape="http://www.inkscape.org/namespaces/inkscape"
   version="1.0"
   id="_x31_"
   x="0px"
   y="0px"
   width="612px"
   height="792px"
   viewBox="0 0 612 792"
   enable-background="new 0 0 612 792"
   xml:space="preserve"
   inkscape:version="0.48.2 r9819"
   sodipodi:docname="7026.svg"><metadata
   id="metadata132"><rdf:RDF><cc:Work
       rdf:about=""><dc:format>image/svg+xml</dc:format><dc:type
         rdf:resource="http://purl.org/dc/dcmitype/StillImage" /></cc:Work></rdf:RDF></metadata><defs
   id="defs130" /><sodipodi:namedview
   pagecolor="#ffffff"
   bordercolor="#666666"
   borderopacity="1"
   objecttolerance="10"
   gridtolerance="10"
   guidetolerance="10"
   inkscape:pageopacity="0"
   inkscape:pageshadow="2"
   inkscape:window-width="1385"
   inkscape:window-height="856"
   id="namedview128"
   showgrid="false"
   inkscape:zoom="0.35355339"
   inkscape:cx="587.95204"
   inkscape:cy="292.56097"
   inkscape:window-x="272"
   inkscape:window-y="129"
   inkscape:window-maximized="0"
   inkscape:current-layer="_x31_" />
<g
   id="LWPOLYLINE_4_"
   style="stroke:none;fill:#000000;fill-opacity:1">
	
		<path
   style="fill:#000000;fill-opacity:1;stroke:none"
   d="m 368.375,402 c -0.0807,33.2496 -0.54619,67.29769 0.125,100.03125 16.14428,-0.84543 34.33835,3.02701 48.53125,-6.78105 11.57629,-9.62953 10.63082,-26.23538 11.42423,-39.88932 -0.0906,-13.20994 0.0608,-27.09793 -5.04923,-39.48588 -5.10217,-11.36773 -18.30521,-14.74099 -29.71875,-13.87485 -8.43745,-1e-4 -16.8753,2e-4 -25.3125,-1.5e-4 z m 11.84375,11.25 c 9.52058,0.83444 20.43123,-2.42002 28.65625,3.74995 9.17361,9.79204 6.07556,24.45461 6.71865,36.6875 -0.33853,11.20464 1.52573,24.94106 -7.6249,33.25 -8.07241,5.66053 -18.42556,3.43081 -27.65625,3.90615 -0.11734,-25.86408 -0.0684,-51.72976 -0.0937,-77.5936 z"
   id="path16"
   inkscape:connector-curvature="0" />
</g><g
   id="LWPOLYLINE_10_"
   style="stroke:none;fill:#000000;fill-opacity:1">
	
		<path
   style="fill:#000000;fill-opacity:1;stroke:none"
   d="m 354.34375,544.28125 c 0.0208,33.32292 -0.0416,66.72908 0.0312,100 3.94252,-0.24651 8.47479,0.50044 12.0625,-0.34375 0.15802,-15.05844 -0.31075,-30.53027 0.21875,-45.3437 8.20922,0.77956 17.43444,-1.99235 24.8125,2.59345 6.60715,6.32394 3.87958,16.46072 4.8746,24.65625 0.39227,6.16655 0.27418,12.98941 3.06205,18.4375 4.54167,0 9.08333,0 13.625,0 -5.22617,-14.27393 -1.05101,-30.2571 -6.71705,-44.3435 -2.353,-5.08993 -7.99058,-7.20968 -13.125,-8.25 13.93189,-1.63265 20.83692,-17.45701 17.31255,-29.96875 -1.54395,-11.09826 -12.58777,-18.60069 -23.46875,-17.43745 -10.89612,-3e-5 -21.79224,7e-5 -32.68835,-5e-5 z M 366.4375,555.5 c 8.44457,0.67262 17.44438,-1.56377 25.46875,1.56235 9.21095,6.11812 8.27525,21.82376 0.0937,28.40625 -7.33241,3.76071 -16.08662,1.1572 -24.03125,1.9374 -3.6341,-0.88154 -0.47073,-8.56054 -1.53125,-12.01566 3e-5,-6.62995 -7e-5,-13.26124 5e-5,-19.89034 z"
   id="path34"
   inkscape:connector-curvature="0" />
</g><g
   id="LWPOLYLINE_12_"
   style="stroke:none;fill:#000000;fill-opacity:1">
	
		<path
   style="stroke:none;fill:#000000;fill-opacity:1"
   d="M 497.5 146 L 398.71875 244.75 L 498.0625 344.125 L 596.84375 245.375 L 497.5 146 z M 497.5625 167.90625 L 571.90625 245.28125 L 498 322.1875 L 423.65625 244.8125 L 497.5625 167.90625 z "
   id="polygon40" />
</g><g
   id="LWPOLYLINE_3_-5"
   style="fill:#000000;fill-opacity:1;stroke:none"
   transform="translate(-5.1009972,0.91929)">
	
		
</g><g
   id="LWPOLYLINE_8_-7"
   style="fill:#000000;fill-opacity:1;stroke:none"
   transform="translate(-5.1009972,0.91929)">
	
		
</g><g
   id="LWPOLYLINE_9_-1"
   style="fill:#000000;fill-opacity:1;stroke:none"
   transform="translate(-5.1009972,0.91929)">
	
		
</g><g
   id="LWPOLYLINE_12_-3"
   transform="translate(-5.1009972,0.91929)">
	
		
</g><g
   id="LINE_1_"
   transform="translate(-5.1009972,0.91929)">
	
		
</g><g
   id="LINE_2_"
   transform="translate(-5.1009972,0.91929)">
	
		
</g><g
   id="LINE_3_"
   transform="translate(-5.1009972,0.91929)">
	
		
</g><g
   id="LINE_4_"
   transform="translate(-5.1009972,0.91929)">
	
		
</g><g
   id="LINE_5_"
   transform="translate(-5.1009972,0.91929)">
	
		
</g><g
   id="TRACE_13_-8"
   transform="translate(-5.1009972,0.91929)">
	
	
</g><path
   style="fill:#000000;fill-opacity:1;stroke:#000000;stroke-width:0.02097458;stroke-miterlimit:10;stroke-opacity:1;stroke-dasharray:none"
   d="m 202.07888,262.78767 c -27.13437,-62.62954 -28.08665,-64.78529 -28.60076,-64.74577 -0.50048,0.0385 -2.18231,3.84999 -28.54531,64.69236 -15.40742,35.55832 -28.06576,64.65128 -28.12964,64.65103 -0.0639,-2.5e-4 -12.72513,-29.09326 -28.136113,-64.65112 -26.123306,-60.27445 -28.05519,-64.65337 -28.540135,-64.69064 -0.494826,-0.038 -0.942593,0.90913 -9.195305,19.45091 l -8.675148,19.49089 -9.842643,0 c -9.28682,0 -9.834831,-0.0207 -9.704296,-0.36706 0.07609,-0.20188 8.510103,-20.54641 18.74225,-45.21006 12.25111,-29.53018 18.664745,-44.74872 18.782077,-44.56689 0.098,0.15187 12.750485,29.29523 28.11664,64.76303 26.288063,60.6775 27.968803,64.48692 28.452123,64.48712 0.48337,2.1e-4 2.16503,-3.81055 28.52624,-64.64235 15.40693,-35.55342 28.06118,-64.69116 28.12057,-64.75055 0.0594,-0.0594 12.7443,29.04474 28.1887,64.67583 25.8823,59.71189 28.1181,64.78163 28.55806,64.75615 0.41218,-0.0239 0.71477,-0.57156 2.21698,-4.01281 0.95682,-2.19184 13.58322,-31.33079 28.05868,-64.75323 14.47545,-33.42243 26.36619,-60.76758 26.42387,-60.767 0.0577,5.8e-4 12.375,28.3324 27.37182,62.95959 14.99683,34.62719 27.6213,63.76566 28.05436,64.75217 1.3964,3.18085 0.50773,4.64775 10.42762,-17.21232 l 8.65054,-19.06289 10.27769,0 c 9.45708,0 10.2671,0.0276 10.14513,0.34543 -0.0729,0.18999 -8.69568,20.34828 -19.16174,44.79619 l -19.02919,44.45074 -0.41949,-0.91839 c -0.23072,-0.50511 -12.87839,-29.67517 -28.10593,-64.82237 -26.25828,-60.60762 -27.7135,-63.90407 -28.21081,-63.90562 -0.49789,-0.001 -1.93536,3.25613 -28.4806,64.54473 -15.37594,35.5005 -28.02623,64.65958 -28.11177,64.79796 -0.0897,0.14505 -12.04228,-27.18452 -28.22447,-64.53506 l 0,0 z"
   id="path3968"
   inkscape:connector-curvature="0" /><g
   id="LWPOLYLINE"
   style="stroke:none;fill:#000000;fill-opacity:1">
	
		<path
   style="fill:#000000;fill-opacity:1;stroke:none"
   d="m 188.851,502.035 c 0.18221,-15.15703 -0.36033,-30.83709 0.253,-45.683 11.40733,0 22.81467,0 34.222,0 -0.17698,-3.68131 0.36148,-7.87506 -0.253,-11.243 -11.33397,-0.14303 -23.24464,0.29064 -34.222,-0.209 0.17163,-10.46737 -0.34611,-21.62411 0.253,-31.664 11.98233,0 23.96467,0 35.947,0 -0.24717,-3.64549 0.50622,-8.08343 -0.357,-11.241 -15.94633,0 -31.89267,0 -47.839,0 -0.19708,33.27233 -0.0271,66.56493 -0.084,99.845 4.01932,0.26213 8.05454,0.15079 12.08,0.195 z"
   id="path4"
   inkscape:connector-curvature="0" />
</g>
<g
   id="LWPOLYLINE_1_"
   style="stroke:none;fill:#000000;fill-opacity:1">
	
		<path
   style="fill:#000000;fill-opacity:1;stroke:none"
   d="m 287.983,502.035 c -0.19247,-3.65825 0.3923,-7.88654 -0.273,-11.198 -12.74787,-0.17546 -26.20406,0.3574 -38.518,-0.252 0.16639,-11.32794 -0.34124,-23.32991 0.252,-34.231 11.69567,0 23.39133,0 35.087,0 -0.17629,-3.68165 0.36007,-7.87309 -0.252,-11.243 -11.62254,-0.14279 -23.82097,0.2903 -35.087,-0.209 0.18532,-10.46035 -0.37364,-21.66497 0.273,-31.664 12.551,0 25.102,0 37.653,0 -0.24717,-3.64549 0.50622,-8.08343 -0.357,-11.241 -16.51567,0 -33.03133,0 -49.547,0 -0.244,33.26737 -0.0335,66.56578 -0.104,99.845 16.95497,0.26163 33.91601,0.14656 50.873,0.193 z"
   id="path7"
   inkscape:connector-curvature="0" />
</g>
<g
   id="LWPOLYLINE_2_"
   style="stroke:none;fill:#000000;fill-opacity:1">
	
		<path
   style="fill:#000000;fill-opacity:1;stroke:none"
   d="m 353.482,502.035 c -0.17791,-3.66549 0.3625,-7.84483 -0.252,-11.198 -12.75052,-0.17548 -26.20945,0.35745 -38.526,-0.252 0.16639,-11.32794 -0.34124,-23.32991 0.252,-34.231 11.70533,0 23.41067,0 35.116,0 -0.20562,-3.66719 0.42037,-7.95818 -0.295,-11.243 -11.61787,-0.1428 -23.81175,0.29042 -35.073,-0.209 0.17094,-10.46773 -0.34473,-21.62207 0.252,-31.664 12.56133,0 25.12267,0 37.684,0 -0.26164,-3.6384 0.53629,-8.12724 -0.379,-11.241 -16.51067,0 -33.02133,0 -49.532,0 -0.244,33.26737 -0.0335,66.56578 -0.104,99.845 16.94964,0.26159 33.90534,0.14657 50.857,0.193 z"
   id="path10"
   inkscape:connector-curvature="0" />
</g>
<g
   id="LWPOLYLINE_3_"
   style="stroke:none;fill:#000000;fill-opacity:1">
	
		
</g>

<g
   id="LWPOLYLINE_5_"
   style="stroke:none;fill:#000000;fill-opacity:1">
	
		<path
   style="fill:#000000;fill-opacity:1;stroke:none"
   d="m 129.35,614.092 c -1.7274,11.92539 2.84908,26.45674 15.616,30.062 13.69558,4.01865 32.57723,2.33868 39.968,-11.663 6.50729,-12.83705 2.63494,-30.17598 -10.0497,-37.70648 C 164.99305,587.16251 150.06737,584.593 144.709,572.2 c -3.41223,-9.13616 3.85832,-19.60291 13.654,-19.284 8.52349,-1.37991 15.78376,5.98224 15.631,14.316 -1.24558,4.6064 2.47075,3.83041 5.682,3.747 2.73628,-0.64268 8.5541,1.91863 7.471,-2.862 0.60823,-10.88271 -5.97795,-22.49966 -17.296,-24.506 -13.79645,-3.45349 -32.26439,0.68797 -37.21869,15.66509 -4.4741,11.95383 0.39445,26.18262 11.53382,32.56976 9.8938,7.46279 24.69229,9.92347 30.17387,22.12015 3.10518,9.09191 -2.91641,20.34577 -13.067,20.632 -9.47284,2.10117 -19.68345,-4.88905 -19.694,-14.947 1.28999,-6.08033 -2.83862,-6.48192 -8.40644,-5.55009 l -1.93489,-0.006 -1.88767,-0.003 0,0 z"
   id="path19"
   inkscape:connector-curvature="0" />
</g>
<g
   id="LWPOLYLINE_6_"
   style="stroke:none;fill:#000000;fill-opacity:1">
	
		<path
   style="fill:#000000;fill-opacity:1;stroke:none"
   d="m 196.596,544.299 c 0.28964,3.61088 -0.59358,8.18371 0.421,11.2 8.41833,0 16.83667,0 25.255,0 0.44689,29.47874 0.0623,59.07934 0.189,88.605 4.16441,0.40548 8.49802,0.0521 12.727,0.168 0.44687,-29.47941 0.0623,-59.08067 0.189,-88.607 8.18184,-0.64204 17.10218,0.4097 25.003,-0.504 0,-3.607 0,-7.214 0,-10.821 -21.26124,-0.0565 -42.52269,-0.0308 -63.784,-0.041 z"
   id="path22"
   inkscape:connector-curvature="0" />
</g>
<g
   id="LWPOLYLINE_7_"
   style="stroke:none;fill:#000000;fill-opacity:1">
	
		<path
   style="fill:#000000;fill-opacity:1;stroke:none"
   d="m 293.28125,544.3125 c -10.24022,33.19102 -21.43301,67.2927 -30.8125,99.96875 4.1494,-0.2765 8.95236,0.55263 12.71875,-0.375 2.67938,-7.82458 4.86124,-16.32019 7.8749,-23.74995 12.27083,0 24.54167,0 36.8125,0 2.44431,7.96414 4.39653,16.46283 7.1248,24.125 4.77083,0 9.54167,0 14.3125,0 -10.37761,-33.32096 -21.15232,-66.55205 -31.7497,-99.81255 -5.33364,-0.38454 -10.87536,-0.0437 -16.28125,-0.15625 z m 7.59375,12.125 c 5.06267,17.4152 10.86164,35.50404 15.3125,52.53125 -10.26042,0 -20.52083,0 -30.78125,0 5.11436,-17.51933 10.32209,-35.01833 15.46875,-52.53125 z"
   id="path25"
   inkscape:connector-curvature="0" />
</g>
<g
   id="LWPOLYLINE_8_"
   style="stroke:none;fill:#000000;fill-opacity:1">
	
		
</g>
<g
   id="LWPOLYLINE_9_"
   style="stroke:none;fill:#000000;fill-opacity:1">
	
		
</g>

<g
   id="LWPOLYLINE_11_"
   style="stroke:none;fill:#000000;fill-opacity:1">
	
		<path
   style="fill:#000000;fill-opacity:1;stroke:none"
   d="m 418.14,544.299 c 0.28964,3.61088 -0.59358,8.18371 0.421,11.2 8.421,0 16.842,0 25.263,0 0.4989,29.46524 0.0695,59.08158 0.211,88.605 4.1646,0.40584 8.49002,0.0521 12.716,0.168 0.49651,-29.46656 0.0692,-59.08281 0.21,-88.607 8.18687,-0.64255 17.1077,0.41032 25.01,-0.504 0,-3.607 0,-7.214 0,-10.821 -21.27691,-0.0564 -42.55402,-0.0309 -63.831,-0.041 z"
   id="path37"
   inkscape:connector-curvature="0" />
</g>


<g
   id="LWPOLYLINE_14_"
   style="stroke:none;fill:#000000;fill-opacity:1">
	
		<rect
   x="487.975"
   y="192.535"
   fill="none"
   stroke="#000000"
   stroke-width="0.7087"
   stroke-linecap="round"
   stroke-linejoin="round"
   stroke-miterlimit="10"
   width="16.375"
   height="104.332"
   id="rect46"
   style="stroke:none;fill:#000000;fill-opacity:1" />
</g>
















<g
   id="g6177"
   transform="matrix(0.74849942,0,0,0.77870064,125.19271,54.231289)">
	
		
</g></svg>