<?xml version="1.0" encoding="UTF-8" standalone="no"?>
<!-- Generator: Adobe Illustrator 16.0.1, SVG Export Plug-In . SVG Version: 6.00 Build 0)  -->

<svg
   xmlns:dc="http://purl.org/dc/elements/1.1/"
   xmlns:cc="http://creativecommons.org/ns#"
   xmlns:rdf="http://www.w3.org/1999/02/22-rdf-syntax-ns#"
   xmlns:svg="http://www.w3.org/2000/svg"
   xmlns="http://www.w3.org/2000/svg"
   xmlns:sodipodi="http://sodipodi.sourceforge.net/DTD/sodipodi-0.dtd"
   xmlns:inkscape="http://www.inkscape.org/namespaces/inkscape"
   version="1.0"
   id="_x31_"
   x="0px"
   y="0px"
   width="612px"
   height="792px"
   viewBox="0 0 612 792"
   enable-background="new 0 0 612 792"
   xml:space="preserve"
   inkscape:version="0.48.2 r9819"
   sodipodi:docname="7027.svg"><metadata
   id="metadata118"><rdf:RDF><cc:Work
       rdf:about=""><dc:format>image/svg+xml</dc:format><dc:type
         rdf:resource="http://purl.org/dc/dcmitype/StillImage" /></cc:Work></rdf:RDF></metadata><defs
   id="defs116" /><sodipodi:namedview
   pagecolor="#ffffff"
   bordercolor="#666666"
   borderopacity="1"
   objecttolerance="10"
   gridtolerance="10"
   guidetolerance="10"
   inkscape:pageopacity="0"
   inkscape:pageshadow="2"
   inkscape:window-width="1920"
   inkscape:window-height="1068"
   id="namedview114"
   showgrid="false"
   inkscape:zoom="0.84281414"
   inkscape:cx="305.82809"
   inkscape:cy="470.14569"
   inkscape:window-x="0"
   inkscape:window-y="0"
   inkscape:window-maximized="1"
   inkscape:current-layer="_x31_" />
<g
   id="LWPOLYLINE_5_"
   style="stroke:none;fill:#000000;fill-opacity:1">
	
		<path
   style="fill:#000000;fill-opacity:1;stroke:none"
   d="m 305.28125,534.40625 c -0.51263,36.90835 -0.0722,73.94762 -0.21875,110.90625 6.97453,0.45112 16.08439,2.59208 13.40625,-6.8772 0,-13.8951 0,-27.7902 0,-41.6853 13.22295,-0.57707 28.43182,2.27905 39.36074,-7.26068 11.30579,-9.9114 11.5778,-27.53361 6.20176,-40.58292 -5.30638,-11.96279 -19.49361,-15.40457 -31.4375,-14.49985 -9.10406,-2e-4 -18.20895,4.1e-4 -27.3125,-3e-4 z m 13.1875,12.4375 c 8.21457,0.59795 16.81358,-1.34327 24.75,1.2186 11.2844,4.75484 12.48903,21.10514 5.71875,30.03125 -7.4664,8.59367 -19.82831,5.51221 -29.8125,6.09355 -1.55948,-2.92175 -0.19807,-8.76438 -0.65625,-12.78743 0,-8.18509 0,-16.37205 0,-24.55597 z"
   id="path19"
   inkscape:connector-curvature="0" />
</g><g
   id="LWPOLYLINE_8_"
   style="stroke:none;fill:#000000;fill-opacity:1">
	
		<path
   style="fill:#000000;fill-opacity:1;stroke:none"
   d="m 424.09375,534.40625 c -0.31696,37.02926 -0.16515,74.06276 -0.21875,111.09375 16.59354,-0.71029 34.18787,2.43957 49.78125,-4.7185 11.94563,-5.48317 15.5309,-19.43758 16.35794,-31.43574 1.41847,-18.74026 1.73348,-38.06698 -3.32659,-56.31426 -3.68109,-11.01054 -14.62687,-18.32111 -26.09375,-18.49995 -12.15524,-0.29001 -24.33671,-0.0439 -36.5001,-0.1253 z m 13.21875,12.4375 c 9.62625,0.71569 19.94606,-1.80688 29.03125,2.24995 10.10546,5.94331 10.05988,19.40123 10.21865,29.75 -0.61818,14.54376 1.9849,29.79842 -3.5624,43.65625 -4.49329,10.15708 -16.88072,11.02263 -26.53125,10.56235 -3.03125,0 -6.0625,0 -9.09375,0 -0.11071,-28.73901 -0.0499,-57.47992 -0.0625,-86.21855 z"
   id="path28"
   inkscape:connector-curvature="0" />
</g><g
   id="LWPOLYLINE_1_"
   style="stroke:none;fill:#000000;fill-opacity:1">
	
		<path
   style="fill:#000000;fill-opacity:1;stroke:none"
   d="m 131.65625,534.40625 c 0,37.03125 0,74.0625 0,111.09375 4.36174,-0.26202 9.55041,0.53494 13.4062,-0.375 0,-16.76042 0,-33.52083 0,-50.28125 8.38768,0.29844 17.21171,-1.28372 25.34375,1.31225 9.01158,4.15829 7.14927,15.34505 7.7099,23.4393 0.54044,8.59752 -0.16455,18.18796 3.6017,25.90445 5.03125,0 10.0625,0 15.09375,0 -5.22158,-15.13654 -1.94977,-31.62984 -6.4048,-46.87475 -2.0052,-6.92486 -9.01436,-10.38039 -15.6255,-11.5625 13.24306,-1.52995 21.75827,-15.43235 20,-28.09375 -0.24674,-11.07852 -7.59798,-22.3843 -19.1562,-24 -14.56697,-1.24777 -29.33876,-0.24172 -43.9688,-0.5625 z m 13.40625,12.4375 c 8.84679,0.51361 17.95777,-1.0854 26.625,0.93745 10.82509,4.74371 10.7356,20.11026 5.2187,28.875 -5.19958,8.03111 -15.65918,5.12705 -23.65625,5.6561 -4.4212,-0.14091 -10.9418,1.80808 -8.18053,-5.54368 -0.0126,-9.9748 -0.01,-19.95073 -0.007,-29.92487 z"
   id="path7"
   inkscape:connector-curvature="0" />
</g><g
   id="LWPOLYLINE"
   style="stroke:none;fill:#000000;fill-opacity:1">
	
		
</g>

<g
   id="LWPOLYLINE_2_"
   style="stroke:none;fill:#000000;fill-opacity:1">
	
		<path
   style="fill:#000000;fill-opacity:1;stroke:none"
   d="M 237.15625,534.40625 C 225.49323,571.39599 214.08406,608.46583 202.5625,645.5 c 4.72531,-0.29542 10.2491,0.59664 14.5,-0.4062 2.99775,-8.71782 5.40298,-18.10111 8.78115,-26.40625 13.63542,0 27.27083,0 40.90625,0 2.69381,8.85666 4.87942,18.35476 7.906,26.81245 5.3125,0 10.625,0 15.9375,0 -11.59922,-37.00149 -23.51022,-73.95262 -35.31215,-110.90625 -5.93062,-0.46143 -12.10884,-0.0524 -18.125,-0.1875 z m 8.5,13.5 c 5.62209,19.3538 11.98603,39.37907 17,58.34375 -11.40625,0 -22.8125,0 -34.21875,0 5.70743,-19.44593 11.43678,-38.9131 17.21875,-58.34375 z"
   id="path10"
   inkscape:connector-curvature="0" />
</g>
<g
   id="LWPOLYLINE_3_"
   style="stroke:none;fill:#000000;fill-opacity:1">
	
		
</g>
<g
   id="LWPOLYLINE_4_"
   style="stroke:none;fill:#000000;fill-opacity:1">
	
		
</g>

<g
   id="LWPOLYLINE_6_"
   style="stroke:none;fill:#000000;fill-opacity:1">
	
		<path
   style="fill:#000000;fill-opacity:1;stroke:none"
   d="m 400.858,534.398 c -4.42967,0 -8.85933,0 -13.289,0 -0.21793,36.9628 -0.0307,73.94915 -0.093,110.921 4.33631,0.45484 8.8747,0.0578 13.288,0.188 0.12979,-37.03595 0.0705,-74.07276 0.094,-111.109 z"
   id="path22"
   inkscape:connector-curvature="0" />
</g>
<g
   id="LWPOLYLINE_7_"
   style="stroke:none;fill:#000000;fill-opacity:1">
	
		
</g>

<g
   id="LWPOLYLINE_9_"
   style="stroke:none;fill:#000000;fill-opacity:1">
	
		<path
   style="fill:#000000;stroke:none;stroke-width:0.02000000000000000;stroke-linecap:round;stroke-linejoin:round;stroke-miterlimit:10;fill-opacity:1"
   d="m 546.957,335.041 c -3.22815,31.27712 -32.59715,56.96562 -64.091,55.6 -30.86876,-0.19926 -58.0866,-24.9749 -61.47,-55.6 L 405.537,205.76 c -0.99913,-29.43382 -38.75363,-47.26535 -62.17586,-29.55889 -9.46017,6.43539 -15.84329,17.11436 -16.97914,28.50589 l -17.028,130.334 c -3.16467,31.10463 -32.17677,56.96141 -63.599,55.6 -30.91294,0.0123 -58.50033,-26.0665 -61.15918,-56.68723 -5.85229,-45.34925 -10.52489,-90.90478 -17.15627,-136.11784 -6.82395,-28.06528 -46.18004,-38.32909 -65.91742,-17.3558 -12.605788,11.52635 -12.005059,29.43155 -15.854095,44.81873 -7.983448,0 -15.966896,0 -23.950344,0 4.812106,-19.66213 5.074531,-41.96828 19.577309,-57.71286 20.1333,-24.76179 59.69305,-29.38188 85.002,-9.941 17.21754,11.99503 25.66514,32.83989 26.43825,53.3023 5.21327,41.4724 10.0302,83.00126 15.49553,124.43775 4.80539,28.71641 43.85392,41.67071 64.91847,21.67822 7.78614,-6.70483 12.77756,-16.52261 13.56275,-26.77227 l 16.842,-130.215 c 3.37441,-31.54141 33.77009,-56.48084 65.259,-54.523 29.91118,0.75366 56.76455,24.61525 60.162,54.523 l 15.25,131.291 c 1.82559,29.36139 40.02984,46.13328 62.92853,27.79555 9.25247,-6.68436 15.33892,-17.48681 16.22547,-28.87155 l 2.38935,-25.64637 23.87834,0.59325 z"
   id="polyline31"
   inkscape:connector-curvature="0"
   sodipodi:nodetypes="cccccccccccccccccccccccccccc" />
</g>

<g
   id="LWPOLYLINE_10_">
	
		
</g>

<g
   id="LWPOLYLINE_11_">
	
		
</g>

<g
   id="LWPOLYLINE_12_">
	
		
</g>



<g
   id="LWPOLYLINE_13_">
	
		
</g>

<g
   id="LWPOLYLINE_14_">
	
		
</g>

<g
   id="LWPOLYLINE_15_">
	
		
</g>

<g
   id="LWPOLYLINE_16_">
	
		
</g>



</svg>