<?xml version="1.0" encoding="UTF-8" standalone="no"?>
<!-- Generator: Adobe Illustrator 16.0.1, SVG Export Plug-In . SVG Version: 6.00 Build 0)  -->

<svg
   xmlns:dc="http://purl.org/dc/elements/1.1/"
   xmlns:cc="http://creativecommons.org/ns#"
   xmlns:rdf="http://www.w3.org/1999/02/22-rdf-syntax-ns#"
   xmlns:svg="http://www.w3.org/2000/svg"
   xmlns="http://www.w3.org/2000/svg"
   xmlns:sodipodi="http://sodipodi.sourceforge.net/DTD/sodipodi-0.dtd"
   xmlns:inkscape="http://www.inkscape.org/namespaces/inkscape"
   version="1.0"
   id="_x31_"
   x="0px"
   y="0px"
   width="612px"
   height="792px"
   viewBox="0 0 612 792"
   enable-background="new 0 0 612 792"
   xml:space="preserve"
   inkscape:version="0.48.2 r9819"
   sodipodi:docname="7028.svg"><metadata
   id="metadata10"><rdf:RDF><cc:Work
       rdf:about=""><dc:format>image/svg+xml</dc:format><dc:type
         rdf:resource="http://purl.org/dc/dcmitype/StillImage" /></cc:Work></rdf:RDF></metadata><defs
   id="defs8" /><sodipodi:namedview
   pagecolor="#ffffff"
   bordercolor="#666666"
   borderopacity="1"
   objecttolerance="10"
   gridtolerance="10"
   guidetolerance="10"
   inkscape:pageopacity="0"
   inkscape:pageshadow="2"
   inkscape:window-width="1920"
   inkscape:window-height="1068"
   id="namedview6"
   showgrid="false"
   inkscape:zoom="0.84281414"
   inkscape:cx="53.303989"
   inkscape:cy="267.73977"
   inkscape:window-x="0"
   inkscape:window-y="0"
   inkscape:window-maximized="1"
   inkscape:current-layer="_x31_" />
<g
   id="LWPOLYLINE"
   style="stroke:none;fill:#000000;fill-opacity:1">
	
		<path
   fill="none"
   stroke="#000000"
   stroke-width="0.7087"
   stroke-linecap="round"
   stroke-linejoin="round"
   stroke-miterlimit="10"
   d="   M118.836,645.5h0.664h2.043h3.309h4.449h5.652h6.613h7.637h8.602h9.379h10.164h10.883h11.484h12.027h12.566h12.988h13.352h13.59   h13.828h13.953h14.008h14.074h13.949h13.832h13.59h13.348h12.867h12.629h12.027h11.543h10.824h10.223h9.383h8.539h7.574h6.734   h5.535h4.57h3.246h2.043h0.602c0-0.48,0-1.082,0-1.082v-0.723v-0.84v-1.082v-1.324v-1.441v-1.445v-1.684v-1.805v-1.922v-1.926   v-2.164v-2.043v-2.285v-2.164v-2.285V617v-2.285v-2.285v-2.406v-2.164v-2.285v-2.164v-2.168v-2.043v-2.043v-1.805v-1.805v-1.684   v-1.562v-1.445v-1.203v-1.082v-0.961v-0.723c0-0.602,0-0.84,0-0.84c-0.48-0.121-2.043-0.121-2.043-0.121h-2.648h-3.484h-4.453   h-5.289h-6.016h-6.734h-7.457h-8.055h-8.539h-9.02h-9.621h-9.863h-10.223h-10.582H378.43h-10.945h-10.945h-11.062H334.41h-11.062   h-10.945h-10.703h-10.523h-10.223h-9.922h-9.559h-9.082h-8.539h-8.059h-7.395h-6.734h-6.074h-5.23h-4.449h-3.488h-2.648h-1.562   c-0.539,0,0-0.723,0-0.723l1.562-2.043l2.527-3.246l3.488-4.332l4.328-5.531l5.172-6.613l5.953-7.578l6.613-8.418l7.336-9.262   l7.879-9.98l8.418-10.703l8.961-11.426l9.379-11.906l9.742-12.387l10.043-12.75l10.344-13.168l10.523-13.469l10.82-13.59   l10.824-13.77l10.824-13.891l10.945-13.832l10.824-13.77l10.703-13.652l10.582-13.406l10.344-13.172l10.102-12.809l9.742-12.387   l9.379-11.844l8.902-11.367l8.418-10.762l7.938-9.984l7.215-9.32l6.613-8.418l6.016-7.516l5.172-6.613l4.328-5.473l3.488-4.449   l2.523-3.25l1.566-1.984l0.602-0.719c0-0.48,0-1.082,0-1.082v-0.844v-1.023v-1.203v-1.441v-1.562v-1.746v-1.863v-1.984v-2.105   v-2.223v-2.348v-2.344v-2.465v-2.527v-2.523v-2.586v-2.586v-2.586v-2.586v-2.523v-2.527v-2.465v-2.344v-2.348v-2.223v-2.105v-1.984   v-1.863v-1.746v-1.562v-1.445v-1.199v-1.023v-0.844c0-0.602,0-0.961,0-0.961c0-0.121-0.723-0.121-0.723-0.121h-1.926h-3.246h-4.328   h-5.414h-6.375h-7.453h-8.301h-9.02h-9.859h-10.465h-11.184h-11.668h-12.145h-12.508h-12.867h-13.23h-13.348H320.82h-13.59h-13.527   h-13.531h-13.348h-13.172h-12.867h-12.566H216.07h-11.664H193.34h-10.523h-9.859h-9.082h-8.238h-7.395h-6.434h-5.473h-4.328h-3.129   h-1.984h-0.66c0,0.422,0,0.902,0,0.902v0.723v0.902v1.023v1.199v1.383v1.504v1.566v1.742v1.805v1.922v1.984v2.047v2.105v2.102   v2.227v2.164v2.227v2.223v2.227v2.164v2.164v2.105v2.043v1.984v1.867v1.863v1.684v1.621v1.445v1.383v1.203v1.023v0.898v0.723   c0,0.48,0,0.844,0,0.844c0.48,0.117,2.043,0.117,2.043,0.117h2.465h3.367h4.211h4.992h5.711h6.434h7.035h7.637h8.117h8.602h9.078   h9.441h9.684h10.039h10.164h10.402h10.465h10.52h10.523h10.465h10.344h10.223h9.98h9.742h9.379h9.02h8.66h8.18h7.574h7.098h6.371   h5.773h4.934h4.207h3.367h2.527h1.441c0.602,0,0,0.664,0,0.664l-1.562,1.984l-2.527,3.305l-3.367,4.453l-4.328,5.531l-5.172,6.613   l-5.891,7.637l-6.617,8.48l-7.215,9.32l-7.816,10.102l-8.301,10.824l-8.898,11.426l-9.262,11.965l-9.621,12.449l-9.98,12.926   l-10.344,13.23l-10.461,13.531l-10.645,13.707l-10.703,13.832l-10.824,13.949l-10.762,13.953l-10.766,13.828l-10.645,13.77   l-10.461,13.473l-10.285,13.289l-9.98,12.867l-9.621,12.508l-9.32,11.906l-8.84,11.426l-8.359,10.824l-7.816,10.102l-7.277,9.379   l-6.551,8.418l-5.895,7.578l-5.113,6.613l-4.328,5.652l-3.426,4.453l-2.527,3.246l-1.562,2.043l-0.543,0.602V645.5z"
   id="path4"
   style="stroke:none;fill:#000000;fill-opacity:1" />
</g>
</svg>