<?xml version="1.0" encoding="UTF-8" standalone="no"?>
<!-- Generator: Adobe Illustrator 16.0.1, SVG Export Plug-In . SVG Version: 6.00 Build 0)  -->

<svg
   xmlns:dc="http://purl.org/dc/elements/1.1/"
   xmlns:cc="http://creativecommons.org/ns#"
   xmlns:rdf="http://www.w3.org/1999/02/22-rdf-syntax-ns#"
   xmlns:svg="http://www.w3.org/2000/svg"
   xmlns="http://www.w3.org/2000/svg"
   xmlns:xlink="http://www.w3.org/1999/xlink"
   xmlns:sodipodi="http://sodipodi.sourceforge.net/DTD/sodipodi-0.dtd"
   xmlns:inkscape="http://www.inkscape.org/namespaces/inkscape"
   version="1.0"
   id="_x31_"
   x="0px"
   y="0px"
   width="350"
   height="350"
   viewBox="0 0 350 350"
   enable-background="new 0 0 612 792"
   xml:space="preserve"
   inkscape:version="0.48.2 r9819"
   sodipodi:docname="7029.svg"><metadata
   id="metadata40"><rdf:RDF><cc:Work
       rdf:about=""><dc:format>image/svg+xml</dc:format><dc:type
         rdf:resource="http://purl.org/dc/dcmitype/StillImage" /></cc:Work></rdf:RDF></metadata><defs
   id="defs38"><radialGradient
     r="333.18735"
     fy="710.99164"
     fx="373.24265"
     cy="710.99164"
     cx="373.24265"
     gradientTransform="matrix(0.86272608,1.0667183e-7,-5.1097115e-8,0.31434,-147.00617,81.5576)"
     gradientUnits="userSpaceOnUse"
     id="radialGradient3092"
     xlink:href="#linearGradient5443"
     inkscape:collect="always" /><radialGradient
     r="333.18735"
     fy="467.91885"
     fx="373.24265"
     cy="467.91885"
     cx="373.24265"
     gradientTransform="matrix(0.83535071,2.5391117e-7,-2.4564601e-7,0.80815889,-136.78854,-203.15302)"
     gradientUnits="userSpaceOnUse"
     id="radialGradient3088"
     xlink:href="#linearGradient5443"
     inkscape:collect="always" /><radialGradient
     r="333.18735"
     fy="467.91885"
     fx="373.24265"
     cy="467.91885"
     cx="373.24265"
     gradientTransform="matrix(0.83535071,2.5391117e-7,-2.4564601e-7,0.80815889,783.12101,707.99698)"
     gradientUnits="userSpaceOnUse"
     id="radialGradient3736"
     xlink:href="#linearGradient5443"
     inkscape:collect="always" /><linearGradient
     y2="254.73526"
     x2="123.47623"
     y1="344.03848"
     x1="123.50603"
     gradientTransform="matrix(2.3189708,0,0,2.0930998,-99.17808,-231.54972)"
     gradientUnits="userSpaceOnUse"
     id="linearGradient3734"
     xlink:href="#linearGradient3187"
     inkscape:collect="always" /><radialGradient
     r="333.18735"
     fy="710.99164"
     fx="373.24265"
     cy="710.99164"
     cx="373.24265"
     gradientTransform="matrix(0.86272608,1.0667183e-7,-5.1097115e-8,0.31434,772.90338,992.7076)"
     gradientUnits="userSpaceOnUse"
     id="radialGradient3732"
     xlink:href="#linearGradient5443"
     inkscape:collect="always" /><radialGradient
     r="333.18735"
     fy="710.99164"
     fx="373.24265"
     cy="710.99164"
     cx="373.24265"
     gradientTransform="matrix(0.86272608,1.0667183e-7,-5.1097115e-8,0.31434,772.90338,992.7076)"
     gradientUnits="userSpaceOnUse"
     id="radialGradient3722"
     xlink:href="#linearGradient5443"
     inkscape:collect="always" /><radialGradient
     r="333.18735"
     fy="467.91885"
     fx="373.24265"
     cy="467.91885"
     cx="373.24265"
     gradientTransform="matrix(0.83535071,2.5391117e-7,-2.4564601e-7,0.80815889,783.12101,707.99698)"
     gradientUnits="userSpaceOnUse"
     id="radialGradient3718"
     xlink:href="#linearGradient5443"
     inkscape:collect="always" /><radialGradient
     r="333.18735"
     fy="467.91885"
     fx="373.24265"
     cy="467.91885"
     cx="373.24265"
     gradientTransform="matrix(0.9201975,2.7970099e-7,-2.7059634e-7,0.8902438,-163.70313,61.921561)"
     gradientUnits="userSpaceOnUse"
     id="radialGradient3703"
     xlink:href="#linearGradient5443"
     inkscape:collect="always" /><linearGradient
     y2="254.73526"
     x2="123.47623"
     y1="344.03848"
     x1="123.50603"
     gradientTransform="matrix(2.3189708,0,0,2.0930998,-99.17808,-231.54972)"
     gradientUnits="userSpaceOnUse"
     id="linearGradient3701"
     xlink:href="#linearGradient3187"
     inkscape:collect="always" /><radialGradient
     r="333.18735"
     fy="710.99164"
     fx="373.24265"
     cy="710.99164"
     cx="373.24265"
     gradientTransform="matrix(0.9503534,1.1750652e-7,-5.6287062e-8,0.3462676,-174.95857,375.55031)"
     gradientUnits="userSpaceOnUse"
     id="radialGradient3699"
     xlink:href="#linearGradient5443"
     inkscape:collect="always" /><radialGradient
     r="333.18735"
     fy="467.91885"
     fx="373.24265"
     cy="467.91885"
     cx="373.24265"
     gradientTransform="matrix(0.9201975,2.7970099e-7,-2.7059634e-7,0.8902438,-163.70313,61.921561)"
     gradientUnits="userSpaceOnUse"
     id="radialGradient3680"
     xlink:href="#linearGradient5443"
     inkscape:collect="always" /><linearGradient
     y2="254.73526"
     x2="123.47623"
     y1="344.03848"
     x1="123.50603"
     gradientTransform="matrix(2.3189708,0,0,2.0930998,-99.17808,-231.54972)"
     gradientUnits="userSpaceOnUse"
     id="linearGradient3678"
     xlink:href="#linearGradient3187"
     inkscape:collect="always" /><radialGradient
     r="333.18735"
     fy="710.99164"
     fx="373.24265"
     cy="710.99164"
     cx="373.24265"
     gradientTransform="matrix(0.9503534,1.1750652e-7,-5.6287062e-8,0.3462676,-174.95857,375.55031)"
     gradientUnits="userSpaceOnUse"
     id="radialGradient3676"
     xlink:href="#linearGradient5443"
     inkscape:collect="always" /><radialGradient
     r="333.18735"
     fy="467.91885"
     fx="373.24265"
     cy="467.91885"
     cx="373.24265"
     gradientTransform="matrix(0.9201975,2.7970099e-7,-2.7059634e-7,0.8902438,-163.70313,61.921561)"
     gradientUnits="userSpaceOnUse"
     id="radialGradient3654"
     xlink:href="#linearGradient5443"
     inkscape:collect="always" /><linearGradient
     y2="254.73526"
     x2="123.47623"
     y1="344.03848"
     x1="123.50603"
     gradientTransform="matrix(2.3189708,0,0,2.0930998,-99.17808,-231.54972)"
     gradientUnits="userSpaceOnUse"
     id="linearGradient3652"
     xlink:href="#linearGradient3187"
     inkscape:collect="always" /><radialGradient
     r="333.18735"
     fy="710.99164"
     fx="373.24265"
     cy="710.99164"
     cx="373.24265"
     gradientTransform="matrix(0.9503534,1.1750652e-7,-5.6287062e-8,0.3462676,-174.95857,375.55031)"
     gradientUnits="userSpaceOnUse"
     id="radialGradient3650"
     xlink:href="#linearGradient5443"
     inkscape:collect="always" /><radialGradient
     r="333.18735"
     fy="467.91885"
     fx="373.24265"
     cy="467.91885"
     cx="373.24265"
     gradientTransform="matrix(0.9201975,2.7970099e-7,-2.7059634e-7,0.8902438,-163.70313,61.921561)"
     gradientUnits="userSpaceOnUse"
     id="radialGradient3627"
     xlink:href="#linearGradient5443"
     inkscape:collect="always" /><linearGradient
     y2="254.73526"
     x2="123.47623"
     y1="344.03848"
     x1="123.50603"
     gradientTransform="matrix(2.3189708,0,0,2.0930998,-99.17808,-231.54972)"
     gradientUnits="userSpaceOnUse"
     id="linearGradient3625"
     xlink:href="#linearGradient3187"
     inkscape:collect="always" /><radialGradient
     r="333.18735"
     fy="710.99164"
     fx="373.24265"
     cy="710.99164"
     cx="373.24265"
     gradientTransform="matrix(0.9503534,1.1750652e-7,-5.6287062e-8,0.3462676,-174.95857,375.55031)"
     gradientUnits="userSpaceOnUse"
     id="radialGradient3623"
     xlink:href="#linearGradient5443"
     inkscape:collect="always" /><radialGradient
     r="333.18735"
     fy="467.91885"
     fx="373.24265"
     cy="467.91885"
     cx="373.24265"
     gradientTransform="matrix(0.9201975,2.7970099e-7,-2.7059634e-7,0.8902438,-163.70313,61.921561)"
     gradientUnits="userSpaceOnUse"
     id="radialGradient3599"
     xlink:href="#linearGradient5443"
     inkscape:collect="always" /><linearGradient
     y2="254.73526"
     x2="123.47623"
     y1="344.03848"
     x1="123.50603"
     gradientTransform="matrix(2.3189708,0,0,2.0930998,-99.17808,-231.54972)"
     gradientUnits="userSpaceOnUse"
     id="linearGradient3597"
     xlink:href="#linearGradient3187"
     inkscape:collect="always" /><radialGradient
     r="333.18735"
     fy="710.99164"
     fx="373.24265"
     cy="710.99164"
     cx="373.24265"
     gradientTransform="matrix(0.9503534,1.1750652e-7,-5.6287062e-8,0.3462676,-174.95857,375.55031)"
     gradientUnits="userSpaceOnUse"
     id="radialGradient3595"
     xlink:href="#linearGradient5443"
     inkscape:collect="always" /><radialGradient
     r="333.18735"
     fy="467.91885"
     fx="373.24265"
     cy="467.91885"
     cx="373.24265"
     gradientTransform="matrix(0.9201975,2.7970099e-7,-2.7059634e-7,0.8902438,-163.70313,61.921561)"
     gradientUnits="userSpaceOnUse"
     id="radialGradient3525"
     xlink:href="#linearGradient5443"
     inkscape:collect="always" /><linearGradient
     y2="254.73526"
     x2="123.47623"
     y1="344.03848"
     x1="123.50603"
     gradientTransform="matrix(2.3189708,0,0,2.0930998,-99.17808,-231.54972)"
     gradientUnits="userSpaceOnUse"
     id="linearGradient3523"
     xlink:href="#linearGradient3187"
     inkscape:collect="always" /><radialGradient
     r="333.18735"
     fy="710.99164"
     fx="373.24265"
     cy="710.99164"
     cx="373.24265"
     gradientTransform="matrix(0.9503534,1.1750652e-7,-5.6287062e-8,0.3462676,-174.95857,375.55031)"
     gradientUnits="userSpaceOnUse"
     id="radialGradient3521"
     xlink:href="#linearGradient5443"
     inkscape:collect="always" /><radialGradient
     r="333.18735"
     fy="467.91885"
     fx="373.24265"
     cy="467.91885"
     cx="373.24265"
     gradientTransform="matrix(0.9201975,2.7970099e-7,-2.7059634e-7,0.8902438,-163.70313,61.921561)"
     gradientUnits="userSpaceOnUse"
     id="radialGradient3497"
     xlink:href="#linearGradient5443"
     inkscape:collect="always" /><linearGradient
     y2="254.73526"
     x2="123.47623"
     y1="344.03848"
     x1="123.50603"
     gradientTransform="matrix(2.3189708,0,0,2.0930998,-99.17808,-231.54972)"
     gradientUnits="userSpaceOnUse"
     id="linearGradient3495"
     xlink:href="#linearGradient3187"
     inkscape:collect="always" /><radialGradient
     r="333.18735"
     fy="710.99164"
     fx="373.24265"
     cy="710.99164"
     cx="373.24265"
     gradientTransform="matrix(0.9503534,1.1750652e-7,-5.6287062e-8,0.3462676,-174.95857,375.55031)"
     gradientUnits="userSpaceOnUse"
     id="radialGradient3493"
     xlink:href="#linearGradient5443"
     inkscape:collect="always" /><linearGradient
     id="linearGradient5443"><stop
       id="stop5445"
       offset="0"
       style="stop-color:#ffffff;stop-opacity:0;" /><stop
       id="stop5447"
       offset="1"
       style="stop-color:#000000;stop-opacity:0.33962265;" /></linearGradient><linearGradient
     id="linearGradient3157"><stop
       style="stop-color:#49bcff;stop-opacity:1;"
       offset="0"
       id="stop3159" /><stop
       style="stop-color:#494c96;stop-opacity:1;"
       offset="1"
       id="stop3161" /></linearGradient><linearGradient
     id="linearGradient3171"><stop
       id="stop3173"
       offset="0"
       style="stop-color:#49bcff;stop-opacity:1;" /><stop
       id="stop3175"
       offset="1"
       style="stop-color:#494cdc;stop-opacity:1;" /></linearGradient><linearGradient
     id="linearGradient3187"><stop
       style="stop-color:#ffffff;stop-opacity:0.39622641;"
       offset="0"
       id="stop3189" /><stop
       style="stop-color:#000000;stop-opacity:1;"
       offset="1"
       id="stop3191" /></linearGradient><linearGradient
     id="linearGradient4395"><stop
       style="stop-color:#110084;stop-opacity:1;"
       offset="0"
       id="stop4397" /><stop
       style="stop-color:#a695ff;stop-opacity:1;"
       offset="1"
       id="stop4399" /></linearGradient><linearGradient
     id="linearGradient4383"><stop
       style="stop-color:#00037f;stop-opacity:1;"
       offset="0"
       id="stop4385" /><stop
       style="stop-color:#00037f;stop-opacity:0;"
       offset="1"
       id="stop4387" /></linearGradient><inkscape:perspective
     sodipodi:type="inkscape:persp3d"
     inkscape:vp_x="0 : 526.18109 : 1"
     inkscape:vp_y="0 : 1000 : 0"
     inkscape:vp_z="744.09448 : 526.18109 : 1"
     inkscape:persp3d-origin="372.04724 : 350.78739 : 1"
     id="perspective3214" /><linearGradient
     inkscape:collect="always"
     xlink:href="#linearGradient4383"
     id="linearGradient4389"
     x1="371.42194"
     y1="298.59412"
     x2="396.91168"
     y2="655.4505"
     gradientUnits="userSpaceOnUse" /><linearGradient
     inkscape:collect="always"
     xlink:href="#linearGradient4395"
     id="linearGradient4401"
     x1="360.49777"
     y1="167.50403"
     x2="360.49777"
     y2="540.86719"
     gradientUnits="userSpaceOnUse" /><linearGradient
     inkscape:collect="always"
     xlink:href="#linearGradient3187"
     id="linearGradient4562"
     gradientUnits="userSpaceOnUse"
     gradientTransform="matrix(2.3189708,0,0,2.0930998,93.115298,-256.84999)"
     x1="123.50603"
     y1="344.03848"
     x2="123.47623"
     y2="254.73526" /><radialGradient
     inkscape:collect="always"
     xlink:href="#linearGradient3171"
     id="radialGradient4569"
     gradientUnits="userSpaceOnUse"
     gradientTransform="matrix(0.9201975,2.7970099e-7,-2.7059634e-7,0.8902438,28.590287,48.634335)"
     cx="373.24265"
     cy="467.91885"
     fx="373.24265"
     fy="467.91885"
     r="333.18735" /><radialGradient
     inkscape:collect="always"
     xlink:href="#linearGradient3157"
     id="radialGradient4572"
     gradientUnits="userSpaceOnUse"
     gradientTransform="matrix(0.9503534,1.1750652e-7,-5.6287062e-8,0.3462676,17.334826,362.44227)"
     cx="373.24265"
     cy="710.99164"
     fx="373.24265"
     fy="710.99164"
     r="333.18735" /><filter
     inkscape:collect="always"
     id="filter4659"
     color-interpolation-filters="sRGB"><feGaussianBlur
       inkscape:collect="always"
       stdDeviation="2.7750933"
       id="feGaussianBlur4661" /></filter><radialGradient
     inkscape:collect="always"
     xlink:href="#linearGradient3157"
     id="radialGradient4766"
     gradientUnits="userSpaceOnUse"
     gradientTransform="matrix(0.9503534,1.1750652e-7,-5.6287062e-8,0.3462676,17.334826,362.44227)"
     cx="373.24265"
     cy="710.99164"
     fx="373.24265"
     fy="710.99164"
     r="333.18735" /><radialGradient
     inkscape:collect="always"
     xlink:href="#linearGradient3171"
     id="radialGradient4768"
     gradientUnits="userSpaceOnUse"
     gradientTransform="matrix(0.9201975,2.7970099e-7,-2.7059634e-7,0.8902438,28.590287,48.634335)"
     cx="373.24265"
     cy="467.91885"
     fx="373.24265"
     fy="467.91885"
     r="333.18735" /><linearGradient
     inkscape:collect="always"
     xlink:href="#linearGradient3187"
     id="linearGradient4770"
     gradientUnits="userSpaceOnUse"
     gradientTransform="matrix(2.3189708,0,0,2.0930998,93.115298,-256.84999)"
     x1="123.50603"
     y1="344.03848"
     x2="123.47623"
     y2="254.73526" /><linearGradient
     inkscape:collect="always"
     xlink:href="#linearGradient3187"
     id="linearGradient4773"
     gradientUnits="userSpaceOnUse"
     gradientTransform="matrix(2.3189708,0,0,2.0930998,93.115298,-256.84999)"
     x1="123.50603"
     y1="344.03848"
     x2="123.47623"
     y2="254.73526" /><radialGradient
     inkscape:collect="always"
     xlink:href="#linearGradient3171"
     id="radialGradient4776"
     gradientUnits="userSpaceOnUse"
     gradientTransform="matrix(0.9201975,2.7970099e-7,-2.7059634e-7,0.8902438,28.590287,48.634335)"
     cx="373.24265"
     cy="467.91885"
     fx="373.24265"
     fy="467.91885"
     r="333.18735" /><radialGradient
     inkscape:collect="always"
     xlink:href="#linearGradient3157"
     id="radialGradient4779"
     gradientUnits="userSpaceOnUse"
     gradientTransform="matrix(0.9503534,1.1750652e-7,-5.6287062e-8,0.3462676,17.334826,362.44227)"
     cx="373.24265"
     cy="710.99164"
     fx="373.24265"
     fy="710.99164"
     r="333.18735" /><radialGradient
     inkscape:collect="always"
     xlink:href="#linearGradient3157"
     id="radialGradient4790"
     gradientUnits="userSpaceOnUse"
     gradientTransform="matrix(0.9503534,1.1750652e-7,-5.6287062e-8,0.3462676,17.334826,362.44227)"
     cx="373.24265"
     cy="710.99164"
     fx="373.24265"
     fy="710.99164"
     r="333.18735" /><radialGradient
     inkscape:collect="always"
     xlink:href="#linearGradient3171"
     id="radialGradient4792"
     gradientUnits="userSpaceOnUse"
     gradientTransform="matrix(0.9201975,2.7970099e-7,-2.7059634e-7,0.8902438,28.590287,48.634335)"
     cx="373.24265"
     cy="467.91885"
     fx="373.24265"
     fy="467.91885"
     r="333.18735" /><linearGradient
     inkscape:collect="always"
     xlink:href="#linearGradient3187"
     id="linearGradient4794"
     gradientUnits="userSpaceOnUse"
     gradientTransform="matrix(2.3189708,0,0,2.0930998,93.115298,-256.84999)"
     x1="123.50603"
     y1="344.03848"
     x2="123.47623"
     y2="254.73526" /><linearGradient
     inkscape:collect="always"
     xlink:href="#linearGradient3187"
     id="linearGradient4799"
     gradientUnits="userSpaceOnUse"
     gradientTransform="matrix(2.3189708,0,0,2.0930998,93.115298,-256.84999)"
     x1="123.50603"
     y1="344.03848"
     x2="123.47623"
     y2="254.73526" /><radialGradient
     inkscape:collect="always"
     xlink:href="#linearGradient3171"
     id="radialGradient4802"
     gradientUnits="userSpaceOnUse"
     gradientTransform="matrix(0.9201975,2.7970099e-7,-2.7059634e-7,0.8902438,28.590287,48.634335)"
     cx="373.24265"
     cy="467.91885"
     fx="373.24265"
     fy="467.91885"
     r="333.18735" /><radialGradient
     inkscape:collect="always"
     xlink:href="#linearGradient3157"
     id="radialGradient4805"
     gradientUnits="userSpaceOnUse"
     gradientTransform="matrix(0.9503534,1.1750652e-7,-5.6287062e-8,0.3462676,17.334826,362.44227)"
     cx="373.24265"
     cy="710.99164"
     fx="373.24265"
     fy="710.99164"
     r="333.18735" /><radialGradient
     inkscape:collect="always"
     xlink:href="#linearGradient3157"
     id="radialGradient4820"
     gradientUnits="userSpaceOnUse"
     gradientTransform="matrix(0.9503534,1.1750652e-7,-5.6287062e-8,0.3462676,17.334826,362.44227)"
     cx="373.24265"
     cy="710.99164"
     fx="373.24265"
     fy="710.99164"
     r="333.18735" /><radialGradient
     inkscape:collect="always"
     xlink:href="#linearGradient3171"
     id="radialGradient4822"
     gradientUnits="userSpaceOnUse"
     gradientTransform="matrix(0.9201975,2.7970099e-7,-2.7059634e-7,0.8902438,28.590287,48.634335)"
     cx="373.24265"
     cy="467.91885"
     fx="373.24265"
     fy="467.91885"
     r="333.18735" /><linearGradient
     inkscape:collect="always"
     xlink:href="#linearGradient3187"
     id="linearGradient4824"
     gradientUnits="userSpaceOnUse"
     gradientTransform="matrix(2.3189708,0,0,2.0930998,93.115298,-256.84999)"
     x1="123.50603"
     y1="344.03848"
     x2="123.47623"
     y2="254.73526" /><linearGradient
     inkscape:collect="always"
     xlink:href="#linearGradient3187"
     id="linearGradient4827"
     gradientUnits="userSpaceOnUse"
     gradientTransform="matrix(2.3189708,0,0,2.0930998,-99.17808,-231.54972)"
     x1="123.50603"
     y1="344.03848"
     x2="123.47623"
     y2="254.73526" /><radialGradient
     inkscape:collect="always"
     xlink:href="#linearGradient5443"
     id="radialGradient4832"
     gradientUnits="userSpaceOnUse"
     gradientTransform="matrix(0.9201975,2.7970099e-7,-2.7059634e-7,0.8902438,-163.70313,61.921561)"
     cx="373.24265"
     cy="467.91885"
     fx="373.24265"
     fy="467.91885"
     r="333.18735" /><radialGradient
     inkscape:collect="always"
     xlink:href="#linearGradient5443"
     id="radialGradient4835"
     gradientUnits="userSpaceOnUse"
     gradientTransform="matrix(0.9503534,1.1750652e-7,-5.6287062e-8,0.3462676,-174.95857,375.55031)"
     cx="373.24265"
     cy="710.99164"
     fx="373.24265"
     fy="710.99164"
     r="333.18735" /><filter
     inkscape:collect="always"
     id="filter5511"
     color-interpolation-filters="sRGB"><feGaussianBlur
       inkscape:collect="always"
       stdDeviation="3.2374974"
       id="feGaussianBlur5513" /></filter><radialGradient
     inkscape:collect="always"
     xlink:href="#linearGradient5443-5"
     id="radialGradient4835-3"
     gradientUnits="userSpaceOnUse"
     gradientTransform="matrix(0.9503534,1.1750652e-7,-5.6287062e-8,0.3462676,317.80591,185.68771)"
     cx="373.24265"
     cy="710.99164"
     fx="373.24265"
     fy="710.99164"
     r="333.18735" /><linearGradient
     id="linearGradient5443-5"><stop
       id="stop5445-4"
       offset="0"
       style="stop-color:#ffffff;stop-opacity:0;" /><stop
       id="stop5447-3"
       offset="1"
       style="stop-color:#000000;stop-opacity:0.33962265;" /></linearGradient><radialGradient
     inkscape:collect="always"
     xlink:href="#linearGradient5443"
     id="radialGradient3272"
     gradientUnits="userSpaceOnUse"
     gradientTransform="matrix(0.9503534,1.1750652e-7,-5.6287062e-8,0.3462676,-174.95857,375.55031)"
     cx="373.24265"
     cy="710.99164"
     fx="373.24265"
     fy="710.99164"
     r="333.18735" /><linearGradient
     inkscape:collect="always"
     xlink:href="#linearGradient3187"
     id="linearGradient3274"
     gradientUnits="userSpaceOnUse"
     gradientTransform="matrix(2.3189708,0,0,2.0930998,-99.17808,-231.54972)"
     x1="123.50603"
     y1="344.03848"
     x2="123.47623"
     y2="254.73526" /><radialGradient
     inkscape:collect="always"
     xlink:href="#linearGradient5443"
     id="radialGradient3276"
     gradientUnits="userSpaceOnUse"
     gradientTransform="matrix(0.9201975,2.7970099e-7,-2.7059634e-7,0.8902438,-163.70313,61.921561)"
     cx="373.24265"
     cy="467.91885"
     fx="373.24265"
     fy="467.91885"
     r="333.18735" /></defs><sodipodi:namedview
   pagecolor="#ffffff"
   bordercolor="#666666"
   borderopacity="1"
   objecttolerance="10"
   gridtolerance="10"
   guidetolerance="10"
   inkscape:pageopacity="0"
   inkscape:pageshadow="2"
   inkscape:window-width="1920"
   inkscape:window-height="1071"
   id="namedview36"
   showgrid="false"
   inkscape:zoom="0.84281414"
   inkscape:cx="378.27205"
   inkscape:cy="-113.02344"
   inkscape:window-x="0"
   inkscape:window-y="0"
   inkscape:window-maximized="0"
   inkscape:current-layer="_x31_"
   fit-margin-top="0"
   fit-margin-left="0"
   fit-margin-right="0"
   fit-margin-bottom="0" />
<g
   id="LWPOLYLINE"
   style="fill:#000000;fill-opacity:1;stroke:none"
   transform="translate(459.76029,98.460227)">
	
		
</g>




<g
   id="LWPOLYLINE_5_"
   style="fill:#000000;fill-opacity:1;stroke:none"
   transform="translate(459.76029,98.460227)">
	
		
</g>




<g
   id="LWPOLYLINE_10_"
   style="fill:#000000;fill-opacity:1;stroke:none"
   transform="translate(459.76029,98.460227)">
	
		
</g>
<g
   id="g3300"
   transform="translate(-4.0524847e-6,3.5529445e-6)"><rect
     inkscape:export-ydpi="29.879425"
     inkscape:export-xdpi="29.879425"
     inkscape:export-filename="C:\Documents and Settings\adscro24\Desktop\128.png"
     style="opacity:0.61338286;fill:#464646;fill-opacity:0.78540775;stroke:none;filter:url(#filter4659)"
     id="rect3279"
     width="152.93848"
     height="152.93848"
     x="135.39355"
     y="48.636749"
     rx="16.067965"
     ry="12.45238"
     transform="matrix(2.1051501,0,0,2.1051501,-271.00298,-88.36689)" /><rect
     inkscape:export-ydpi="29.879425"
     inkscape:export-xdpi="29.879425"
     inkscape:export-filename="C:\Documents and Settings\adscro24\Desktop\128.png"
     style="opacity:0.61338286;fill:url(#radialGradient3092);fill-opacity:1;stroke:#000000;stroke-width:3.26806188;stroke-miterlimit:4;stroke-opacity:1;stroke-dasharray:none"
     id="rect3155"
     width="321.95847"
     height="321.95847"
     x="14.020748"
     y="14.020716"
     rx="33.825481"
     ry="26.21413" /><path
     transform="matrix(0.90779502,0,0,0.90779502,11.82035,-259.3651)"
     inkscape:export-ydpi="29.879425"
     inkscape:export-xdpi="29.879425"
     inkscape:export-filename="C:\Documents and Settings\adscro24\Desktop\128.png"
     inkscape:connector-curvature="0"
     style="opacity:0.61338286;fill:url(#linearGradient3734);fill-opacity:1;stroke:none;filter:url(#filter5511)"
     d="m 46.58172,323.34879 c -19.62748,0 -35.44272,12.0976 -35.44272,27.14163 l 0,124.30857 c 29.25482,11.38638 132.70149,11.89599 165.40488,-5.79022 33.32802,-18.02397 127.54379,-68.44264 171.82484,-52.72052 l 0,-65.79783 c 0,-15.04403 -15.7986,-27.14163 -35.4261,-27.14163 l -266.3609,0 z M 11.139,586.81982 l 0,42.88373 c 0,1.33144 0.14331,2.63588 0.38253,3.915 -0.11919,-12.81092 -0.25965,-28.88939 -0.38253,-46.79873 z"
     id="rect3177" /><rect
     inkscape:export-ydpi="29.879425"
     inkscape:export-xdpi="29.879425"
     inkscape:export-filename="C:\Documents and Settings\adscro24\Desktop\128.png"
     style="opacity:0.61338286;fill:url(#radialGradient3088);fill-opacity:1;stroke:#ffffff;stroke-width:0.68992418;stroke-linecap:square;stroke-miterlimit:4;stroke-opacity:1;stroke-dasharray:none"
     id="rect3473"
     width="306.12445"
     height="306.12445"
     x="21.937801"
     y="21.937769"
     rx="32.161926"
     ry="24.924913" /><rect
     inkscape:export-ydpi="29.879425"
     inkscape:export-xdpi="29.879425"
     inkscape:export-filename="C:\Documents and Settings\adscro24\Desktop\128.png"
     style="opacity:0.61338286;fill:#ffffff;fill-opacity:0;stroke:#000000;stroke-width:3.26806188;stroke-miterlimit:4;stroke-opacity:1;stroke-dasharray:none"
     id="rect3155-2"
     width="321.95847"
     height="321.95847"
     x="14.020748"
     y="14.020716"
     rx="33.825481"
     ry="26.21413" /><g
     transform="translate(400.39145,135.8211)"
     style="fill:#000000;fill-opacity:1;stroke:none"
     id="LWPOLYLINE_2_-7">
	
		
</g></g><g
   id="g3000"
   transform="matrix(0.500004,0,0,0.500004,21.997896,-23.000583)"><g
     style="fill:#000000;fill-opacity:1;stroke:none"
     id="LWPOLYLINE_4_">
	
		<path
   id="path16"
   d="m 208.65625,542.875 c -0.12,0 -31.59375,101.375 -31.59375,101.375 l 0.375,0 0.4375,0 0.25,0 0.3125,0 0.34375,0 0.3125,0 0.40625,0 0.40625,0 0.40625,0 0.46875,0 0.4375,0 0.46875,0 0.46875,0 0.5,0 0.46875,0 0.5,0 0.5,0 0.5,0 0.46875,0 0.46875,0 0.46875,0 0.46875,0 0.40625,0 0.4375,0 0.40625,0 0.375,0 0.375,0 0.3125,0 0.3125,0 0.28125,0 0.1875,0 0.375,0 c 0.214,0 0.25,-0.0312 0.25,-0.0312 0.043,-0.127 0.0937,-0.34375 0.0937,-0.34375 l 0.0937,-0.3125 0.125,-0.34375 0.125,-0.46875 0.15625,-0.46875 0.1875,-0.5625 0.1875,-0.625 0.21875,-0.65625 0.21875,-0.71875 0.25,-0.75 0.25,-0.78125 0.28125,-0.8125 0.25,-0.84375 0.3125,-0.90625 0.25,-0.84375 0.3125,-0.9375 0.28125,-0.90625 0.28125,-0.90625 0.3125,-0.9375 0.3125,-0.875 0.25,-0.90625 0.3125,-0.90625 0.28125,-0.875 0.28125,-0.875 0.25,-0.8125 0.25,-0.75 0.25,-0.78125 0.21875,-0.71875 0.21875,-0.65625 0.1875,-0.59375 0.1875,-0.59375 0.15625,-0.46875 0.15625,-0.4375 0.0937,-0.375 0.125,-0.28125 c 0.063,-0.213 0.0937,-0.34375 0.0937,-0.34375 0.085,-0.043 0.28125,-0.0625 0.28125,-0.0625 l 0.34375,0 0.4375,0 0.5625,0 0.65625,0 0.78125,0 0.875,0 0.9375,0 1,0 1.09375,0 1.15625,0 1.21875,0 1.25,0 1.3125,0 1.3125,0 1.375,0 1.375,0 1.4375,0 1.40625,0 1.40625,0 1.40625,0 1.375,0 1.375,0 1.3125,0 1.3125,0 1.28125,0 1.1875,0 1.15625,0 1.09375,0 1.03125,0 0.9375,0 0.875,0 0.75,0 0.65625,0 0.5625,0 0.4375,0 0.34375,0 0.28125,0 c 0.043,0.172 0.125,0.40625 0.125,0.40625 l 0.0625,0.28125 0.125,0.375 0.125,0.4375 0.125,0.46875 0.15625,0.59375 0.1875,0.59375 0.1875,0.65625 0.1875,0.71875 0.25,0.78125 0.21875,0.75 0.21875,0.8125 0.21875,0.875 0.28125,0.875 0.25,0.90625 0.25,0.90625 0.25,0.875 0.28125,0.9375 0.25,0.90625 0.28125,0.90625 0.25,0.9375 0.25,0.84375 0.25,0.90625 0.25,0.84375 0.21875,0.8125 0.25,0.78125 0.1875,0.75 0.21875,0.71875 0.1875,0.65625 0.15625,0.625 0.1875,0.5625 0.125,0.46875 0.125,0.46875 0.0937,0.34375 0.0937,0.3125 c 0.064,0.215 0.0937,0.34375 0.0937,0.34375 0.107,0.043 0.28125,0.0312 0.28125,0.0312 l 0.375,0 0.28125,0 0.28125,0 0.34375,0 0.375,0 0.40625,0 0.4375,0 0.46875,0 0.46875,0 0.5,0 0.5,0 0.53125,0 0.5625,0 0.53125,0 0.53125,0 0.59375,0 0.5625,0 0.53125,0 0.53125,0 0.5625,0 0.53125,0 0.53125,0 0.46875,0 0.46875,0 0.46875,0 0.4375,0 0.40625,0 0.375,0 0.34375,0 0.28125,0 0.28125,0 0.21875,0 0.3125,0 c 0.043,-0.17 -0.125,-0.71875 -0.125,-0.71875 l -0.3125,-0.90625 -0.375,-1.1875 -0.46875,-1.53125 -0.5625,-1.8125 -0.6875,-2.03125 -0.71875,-2.34375 -0.8125,-2.53125 -0.875,-2.78125 -0.9375,-2.9375 -1.03125,-3.125 -1,-3.21875 -1.09375,-3.4375 -1.125,-3.5 -1.15625,-3.625 -1.1875,-3.65625 -1.1875,-3.75 -1.1875,-3.78125 -1.21875,-3.84375 -1.21875,-3.78125 -1.1875,-3.75 -1.21875,-3.78125 -1.15625,-3.65625 -1.15625,-3.625 -1.125,-3.5 -1.09375,-3.40625 -1.03125,-3.25 -1,-3.125 -0.9375,-2.9375 -0.875,-2.78125 -0.8125,-2.5 -0.75,-2.375 -0.65625,-2.03125 -0.5625,-1.8125 -0.46875,-1.53125 -0.40625,-1.1875 -0.28125,-0.90625 -0.1875,-0.53125 c -0.171,-0.17 -0.3125,-0.1875 -0.3125,-0.1875 l -0.4375,0 -0.3125,0 -0.34375,0 -0.375,0 -0.40625,0 -0.4375,0 -0.5,0 -0.53125,0 -0.53125,0 -0.53125,0 -0.59375,0 -0.59375,0 -0.59375,0 -0.625,0 -0.625,0 -0.59375,0 -0.625,0 -0.625,0 -0.625,0 -0.59375,0 -0.59375,0 -0.59375,0 -0.53125,0 -0.53125,0 -0.53125,0 -0.46875,0 -0.46875,0 -0.40625,0 -0.375,0 -0.34375,0 -0.3125,0 -0.21875,0 -0.34375,0 z m 7.71875,12.34375 c 0.045,-0.126 15.75,53.21875 15.75,53.21875 l -0.21875,0 -0.28125,0 -0.375,0 -0.46875,0 -0.5625,0 -0.65625,0 -0.6875,0 -0.8125,0 -0.84375,0 -0.90625,0 -0.96875,0 -1.03125,0 -1.0625,0 -1.0625,0 -1.125,0 -1.15625,0 -1.15625,0 -1.15625,0 -1.1875,0 -1.1875,0 -1.1875,0 -1.125,0 -1.15625,0 -1.125,0 -1.09375,0 -1.0625,0 -1,0 -0.96875,0 -0.90625,0 -0.84375,0 -0.8125,0 -0.71875,0 -0.625,0 -0.5625,0 -0.46875,0 -0.375,0 -0.28125,0 -0.25,0 c 0.043,-0.127 0.125,-0.375 0.125,-0.375 l 0.125,-0.46875 0.21875,-0.65625 0.21875,-0.8125 0.28125,-0.9375 0.3125,-1.09375 0.375,-1.21875 0.40625,-1.34375 0.40625,-1.46875 0.46875,-1.53125 0.46875,-1.625 0.5,-1.6875 0.53125,-1.8125 0.5625,-1.875 0.5625,-1.875 0.5625,-1.90625 0.59375,-2.03125 0.5625,-1.9375 0.59375,-2.03125 0.59375,-2 0.59375,-1.96875 0.5625,-2 0.59375,-1.90625 0.53125,-1.875 0.5625,-1.875 0.53125,-1.8125 0.5,-1.6875 0.5,-1.625 0.4375,-1.5625 0.4375,-1.4375 0.40625,-1.375 0.34375,-1.1875 0.3125,-1.09375 0.28125,-0.9375 0.25,-0.8125 0.1875,-0.65625 0.125,-0.46875 0.0937,-0.25 z"
   style="fill:#000000;fill-opacity:1;stroke:none"
   inkscape:connector-curvature="0" />
</g><g
     style="fill:#000000;fill-opacity:1;stroke:none"
     id="LWPOLYLINE_1_">
	
		<path
   id="path7"
   d="m 234,401.25 c -0.171,0.127 -0.3125,0.46875 -0.3125,0.46875 l -0.28125,0.5625 -0.34375,0.8125 -0.40625,0.9375 -0.46875,1.1875 -0.59375,1.3125 -0.625,1.5 -0.71875,1.625 -0.75,1.78125 -0.8125,1.875 -0.875,2.03125 -0.875,2.09375 -0.9375,2.15625 -0.96875,2.28125 -1,2.28125 -1.03125,2.40625 -1.03125,2.375 -1.03125,2.4375 -1.0625,2.4375 -1.03125,2.46875 -1.0625,2.4375 -1,2.40625 -1.03125,2.375 -1,2.3125 -0.96875,2.25 -0.9375,2.1875 -0.90625,2.09375 -0.84375,2 -0.8125,1.875 -0.78125,1.8125 -0.6875,1.625 -0.65625,1.46875 -0.53125,1.34375 -0.53125,1.15625 -0.40625,0.96875 -0.34375,0.8125 -0.21875,0.5625 -0.1875,0.34375 c -0.043,0.213 -0.0312,0.28125 -0.0312,0.28125 l 0,0.3125 0,0.40625 0,0.28125 0,0.25 0,0.28125 0,0.3125 0,0.34375 0,0.34375 0,0.375 0,0.375 0,0.40625 0,0.375 0,0.375 0,0.4375 0,0.375 0,0.4375 0,0.375 0,0.4375 0,0.375 0,0.40625 0,0.375 0,0.34375 0,0.375 0,0.3125 0,0.34375 0,0.28125 0,0.25 0,0.28125 0,0.1875 0,0.40625 0,0.1875 c 0.002,0.086 32.46875,0.0937 32.46875,0.0937 l 0,0.40625 0,0.28125 0,0.375 0,0.46875 0,0.53125 0,0.5625 0,0.625 0,0.6875 0,0.78125 0,0.75 0,0.8125 0,0.84375 0,0.90625 0,0.90625 0,0.875 0,0.9375 0,0.96875 0,0.96875 0,0.9375 0,0.9375 0,0.9375 0,0.9375 0,0.90625 0,0.84375 0,0.84375 0,0.8125 0,0.8125 0,0.75 0,0.65625 0,0.65625 0,0.5625 0,0.5 0,0.46875 0,0.375 0,0.3125 0,0.21875 c 0.213,0.213 0.34375,0.21875 0.34375,0.21875 l 0.40625,0 0.28125,0 0.28125,0 0.3125,0 0.34375,0 0.375,0 0.375,0 0.40625,0 0.4375,0 0.4375,0 0.46875,0 0.4375,0 0.46875,0 0.46875,0 0.46875,0 0.46875,0 0.5,0 0.4375,0 0.46875,0 0.4375,0 0.4375,0 0.4375,0 0.40625,0 0.40625,0 0.34375,0 0.34375,0 0.3125,0 0.28125,0 0.25,0 0.25,0 0.34375,0 C 251.0045,502.4745 251,502.25 251,502.25 l 0,-0.3125 0,-0.375 0,-0.46875 0,-0.5 0,-0.5625 0,-0.65625 0,-0.65625 0,-0.75 0,-0.8125 0,-0.8125 0,-0.84375 0,-0.84375 0,-0.90625 0,-0.9375 0,-0.9375 0,-0.9375 0,-0.9375 0,-0.96875 0,-0.96875 0,-0.9375 0,-0.875 0,-0.90625 0,-0.90625 0,-0.84375 0,-0.8125 0,-0.75 0,-0.78125 0,-0.6875 0,-0.625 0,-0.5625 0,-0.53125 0,-0.46875 0,-0.375 0,-0.28125 0,-0.21875 c 0.191,-0.17 0.3125,-0.1875 0.3125,-0.1875 l 0.40625,0 0.25,0 0.25,0 0.3125,0 0.3125,0 0.34375,0 0.34375,0 0.375,0 0.40625,0 0.40625,0 0.40625,0 0.4375,0 0.4375,0 0.4375,0 0.4375,0 0.40625,0 0.46875,0 0.40625,0 0.4375,0 0.4375,0 0.40625,0 0.375,0 0.375,0 0.375,0 0.34375,0 0.3125,0 0.28125,0 0.28125,0 0.21875,0 0.40625,0 0.21875,0 c 0.085,-0.17 0.0937,-0.28125 0.0937,-0.28125 l 0,-0.40625 0,-0.1875 0,-0.28125 0,-0.25 0,-0.28125 0,-0.34375 0,-0.3125 0,-0.375 0,-0.34375 0,-0.375 0,-0.40625 0,-0.375 0,-0.4375 0,-0.375 0,-0.4375 0,-0.375 0,-0.4375 0,-0.375 0,-0.375 0,-0.40625 0,-0.375 0,-0.375 0,-0.34375 0,-0.34375 0,-0.3125 0,-0.28125 0,-0.25 0,-0.28125 0,-0.1875 0,-0.40625 0,-0.21875 c -0.171,-0.086 -0.3125,-0.0625 -0.3125,-0.0625 l -0.40625,0 -0.21875,0 -0.28125,0 -0.28125,0 -0.3125,0 -0.34375,0 -0.375,0 -0.375,0 -0.375,0 -0.40625,0 -0.4375,0 -0.4375,0 -0.40625,0 -0.46875,0 -0.40625,0 -0.4375,0 -0.4375,0 -0.4375,0 -0.4375,0 -0.40625,0 -0.40625,0 -0.40625,0 -0.375,0 -0.34375,0 -0.34375,0 -0.3125,0 -0.3125,0 -0.25,0 -0.25,0 -0.40625,0 -0.21875,0 C 251.00875,466.3105 251,465.96875 251,465.96875 l 0,-0.5625 0,-0.8125 0,-0.96875 0,-1.15625 0,-1.34375 0,-1.46875 0,-1.625 0,-1.8125 0,-1.875 0,-2 0,-2.09375 0,-2.1875 0,-2.25 0,-2.3125 0,-2.375 0,-2.40625 0,-2.4375 0,-2.46875 0,-2.4375 0,-2.4375 0,-2.375 0,-2.40625 0,-2.28125 0,-2.28125 0,-2.15625 0,-2.09375 0,-2.03125 0,-1.875 0,-1.78125 0,-1.625 0,-1.5 0,-1.3125 0,-1.1875 0,-0.9375 0,-0.8125 0,-0.5625 0,-0.34375 c -0.128,-0.127 -0.28125,-0.125 -0.28125,-0.125 l -0.4375,0 -0.3125,0 -0.34375,0 -0.40625,0 -0.4375,0 -0.4375,0 -0.53125,0 -0.5,0 -0.5625,0 -0.5625,0 -0.59375,0 -0.625,0 -0.625,0 -0.625,0 -0.625,0 -0.65625,0 -0.625,0 -0.65625,0 -0.625,0 -0.625,0 -0.625,0 -0.59375,0 -0.5625,0 -0.5625,0 -0.53125,0 -0.46875,0 -0.46875,0 -0.4375,0 -0.40625,0 -0.34375,0 -0.28125,0 -0.28125,0 -0.34375,0 z m 4.34375,12.78125 c 0.021,0 0.0312,0.28125 0.0312,0.28125 l 0,0.46875 0,0.59375 0,0.8125 0,0.9375 0,1.09375 0,1.1875 0,1.3125 0,1.40625 0,1.53125 0,1.625 0,1.6875 0,1.75 0,1.8125 0,1.875 0,1.9375 0,1.90625 0,1.96875 0,1.96875 0,1.96875 0,1.96875 0,1.90625 0,1.9375 0,1.875 0,1.78125 0,1.78125 0,1.6875 0,1.625 0,1.53125 0,1.40625 0,1.3125 0,1.1875 0,1.0625 0,0.96875 0,0.78125 0,0.625 0,0.46875 0,0.28125 c -0.004,0.084 -20.75,0.0937 -20.75,0.0937 0.043,-0.084 0.15625,-0.375 0.15625,-0.375 l 0.1875,-0.46875 0.25,-0.625 0.3125,-0.78125 0.34375,-0.96875 0.4375,-1.0625 0.5,-1.1875 0.5,-1.3125 0.5625,-1.40625 0.625,-1.53125 0.59375,-1.625 0.6875,-1.6875 0.6875,-1.78125 0.71875,-1.78125 0.75,-1.875 0.75,-1.9375 0.78125,-1.90625 0.75,-1.96875 0.78125,-1.96875 0.78125,-1.96875 0.78125,-1.96875 0.75,-1.90625 0.75,-1.9375 0.75,-1.875 0.75,-1.8125 0.65625,-1.75 0.6875,-1.6875 0.625,-1.625 0.625,-1.53125 0.5625,-1.40625 0.5,-1.3125 0.5,-1.1875 0.40625,-1.09375 0.375,-0.9375 0.3125,-0.8125 0.25,-0.59375 0.15625,-0.46875 0.125,-0.28125 z"
   style="fill:#000000;fill-opacity:1;stroke:none"
   inkscape:connector-curvature="0" />
</g><g
     style="fill:#000000;fill-opacity:1;stroke:none"
     id="LWPOLYLINE_9_">
	
		<path
   id="path31"
   d="m 320.625,146 c -0.214,0 -0.3125,0.1875 -0.3125,0.1875 l -0.40625,0.59375 -0.625,0.90625 -0.90625,1.25 -1.0625,1.53125 -1.28125,1.875 -1.5,2.09375 -1.65625,2.375 -1.84375,2.625 -1.96875,2.8125 -2.09375,3.03125 -2.21875,3.1875 -2.34375,3.34375 -2.4375,3.5 -2.5,3.625 -2.59375,3.6875 -2.625,3.78125 -2.6875,3.84375 -2.71875,3.875 -2.6875,3.90625 -2.71875,3.875 -2.71875,3.90625 -2.6875,3.8125 -2.625,3.78125 -2.59375,3.6875 -2.5,3.625 -2.4375,3.5 -2.34375,3.34375 -2.21875,3.1875 -2.125,3.03125 -1.96875,2.8125 -1.8125,2.625 -1.65625,2.375 -1.46875,2.125 -1.3125,1.84375 -1.0625,1.5625 -0.875,1.25 -0.625,0.90625 -0.40625,0.5625 c -0.128,0.191 -0.125,0.21875 -0.125,0.21875 l 0,0.4375 0,0.375 0,0.4375 0,0.5 0,0.625 0,0.65625 0,0.75 0,0.8125 0,0.875 0,0.90625 0,0.96875 0,1 0,1.03125 0,1.0625 0,1.0625 0,1.09375 0,1.125 0,1.09375 0,1.125 0,1.09375 0,1.125 0,1.0625 0,1.0625 0,1.03125 0,1 0,0.96875 0,0.875 0,0.875 0,0.8125 0,0.75 0,0.65625 0,0.625 0,0.53125 0,0.4375 0,0.375 0,0.25 c 0.149,0.213 0.53125,0.21875 0.53125,0.21875 l 0.6875,0 0.9375,0 1.15625,0 1.34375,0 1.59375,0 1.75,0 1.9375,0 2.0625,0 2.25,0 2.375,0 2.46875,0 2.5625,0 2.6875,0 2.71875,0 2.8125,0 2.8125,0 2.875,0 2.875,0 2.875,0 2.90625,0 2.8125,0 2.8125,0 2.71875,0 2.6875,0 2.5625,0 2.5,0 2.34375,0 2.25,0 2.09375,0 1.90625,0 1.75,0 1.59375,0 1.375,0 1.15625,0 0.875,0 0.6875,0 0.4375,0 c 0.131,0.008 0.125,35.84375 0.125,35.84375 l 0.375,0 0.3125,0 0.34375,0 0.40625,0 0.46875,0 0.5625,0 0.59375,0 0.65625,0 0.6875,0 0.71875,0 0.78125,0 0.75,0 0.8125,0 0.84375,0 0.875,0 0.84375,0 0.90625,0 0.875,0 0.90625,0 0.84375,0 0.90625,0 0.84375,0 0.8125,0 0.875,0 0.75,0 0.78125,0 0.71875,0 0.6875,0 0.65625,0 0.59375,0 0.5,0 0.5,0 0.4375,0 0.34375,0 0.25,0 0.34375,0 c 0.043,-0.064 0.0625,-0.25 0.0625,-0.25 l 0,-0.3125 0,-0.4375 0,-0.53125 0,-0.625 0,-0.75 0,-0.8125 0,-0.90625 0,-0.96875 0,-1.0625 0,-1.09375 0,-1.15625 0,-1.21875 0,-1.21875 0,-1.25 0,-1.3125 0,-1.3125 0,-1.34375 0,-1.34375 0,-1.375 0,-1.34375 0,-1.3125 0,-1.3125 0,-1.25 0,-1.21875 0,-1.21875 0,-1.15625 0,-1.09375 0,-1.0625 0,-0.96875 0,-0.90625 0,-0.8125 0,-0.71875 0,-0.65625 0,-0.53125 0,-0.4375 0,-0.3125 0,-0.25 0.375,0 0.28125,0 0.40625,0 0.40625,0 0.53125,0 0.5625,0 0.59375,0 0.6875,0 0.71875,0 0.71875,0 0.8125,0 0.8125,0 0.84375,0 0.875,0 0.875,0 0.90625,0 0.9375,0 0.90625,0 0.875,0 0.9375,0 0.90625,0 0.90625,0 0.84375,0 0.84375,0 0.8125,0 0.8125,0 0.71875,0 0.75,0 0.6875,0 0.59375,0 0.5625,0 0.5,0 0.4375,0 0.375,0 0.28125,0 0.34375,0 c 0.043,-0.127 0.0625,-0.3125 0.0625,-0.3125 l 0,-0.25 0,-0.28125 0,-0.375 0,-0.40625 0,-0.46875 0,-0.5 0,-0.5625 0,-0.5625 0,-0.625 0,-0.65625 0,-0.65625 0,-0.71875 0,-0.6875 0,-0.75 0,-0.71875 0,-0.75 0,-0.78125 0,-0.75 0,-0.75 0,-0.71875 0,-0.75 0,-0.71875 0,-0.6875 0,-0.6875 0,-0.625 0,-0.625 0,-0.59375 0,-0.53125 0,-0.53125 0,-0.4375 0,-0.4375 0,-0.34375 0,-0.28125 0,-0.25 0,-0.28125 C 372.73525,259.6445 372.5,259.625 372.5,259.625 l -0.28125,0 -0.375,0 -0.4375,0 -0.5,0 -0.5625,0 -0.59375,0 -0.6875,0 -0.75,0 -0.71875,0 -0.8125,0 -0.8125,0 -0.84375,0 -0.84375,0 -0.90625,0 -0.90625,0 -0.9375,0 -0.875,0 -0.90625,0 -0.9375,0 -0.90625,0 -0.875,0 -0.875,0 -0.84375,0 -0.8125,0 -0.8125,0 -0.71875,0 -0.71875,0 -0.6875,0 -0.59375,0 -0.5625,0 -0.53125,0 -0.40625,0 -0.40625,0 -0.28125,0 -0.34375,0 c -0.043,-0.213 -0.0312,-0.8125 -0.0312,-0.8125 l 0,-1 0,-1.34375 0,-1.71875 0,-2 0,-2.34375 0,-2.59375 0,-2.84375 0,-3.09375 0,-3.28125 0,-3.5 0,-3.65625 0,-3.8125 0,-3.9375 0,-4.03125 0,-4.15625 0,-4.1875 0,-4.25 0,-4.21875 0,-4.28125 0,-4.21875 0,-4.21875 0,-4.125 0,-4.03125 0,-3.9375 0,-3.8125 0,-3.65625 0,-3.5 0,-3.3125 0,-3.0625 0,-2.875 0,-2.5625 0,-2.34375 0,-2.03125 0,-1.6875 0,-1.34375 0,-1 0,-0.625 C 348.2263,146.00575 347.9688,146 347.9688,146 l -0.34375,0 -0.4375,0 -0.5,0 -0.5625,0 -0.65625,0 -0.6875,0 -0.75,0 -0.8125,0 -0.84375,0 -0.90625,0 -0.9375,0 -1,0 -0.96875,0 -1.03125,0 -1,0 -1.09375,0 -1,0 -1.0625,0 -1.03125,0 -1.0625,0 -1,0 -1.03125,0 -0.9375,0 -0.9375,0 -0.9375,0 -0.84375,0 -0.8125,0 -0.71875,0 -0.71875,0 -0.65625,0 -0.5625,0 -0.5,0 -0.4375,0 -0.34375,0 -0.21875,0 z m 4.9375,24.65625 c 0.128,0 0.125,0.5 0.125,0.5 l 0,0.75 0,1.0625 0,1.34375 0,1.59375 0,1.8125 0,2.03125 0,2.25 0,2.40625 0,2.59375 0,2.75 0,2.84375 0,3 0,3.09375 0,3.1875 0,3.25 0,3.28125 0,3.3125 0,3.34375 0,3.34375 0,3.34375 0,3.28125 0,3.25 0,3.15625 0,3.09375 0,2.96875 0,2.90625 0,2.71875 0,2.59375 0,2.40625 0,2.25 0,2.03125 0,1.8125 0,1.59375 0,1.34375 0,1.0625 0,0.78125 0,0.5 c 0,0.151 -58.59375,0.15625 -58.59375,0.15625 0.106,-0.148 0.4375,-0.65625 0.4375,-0.65625 l 0.5,-0.78125 0.71875,-1.0625 0.875,-1.34375 1.03125,-1.59375 1.1875,-1.8125 1.34375,-2.03125 1.5,-2.25 1.5625,-2.40625 1.71875,-2.59375 1.78125,-2.71875 1.875,-2.90625 1.96875,-2.96875 2.0625,-3.09375 2.0625,-3.15625 2.125,-3.25 L 292,221.75 l 2.1875,-3.34375 2.1875,-3.34375 2.1875,-3.34375 2.21875,-3.3125 2.15625,-3.28125 2.125,-3.25 2.09375,-3.1875 2,-3.09375 1.96875,-3 L 313,189.75 314.84375,187 316.5,184.40625 318.125,182 l 1.4375,-2.25 1.34375,-2.03125 1.1875,-1.8125 1.0625,-1.59375 0.84375,-1.34375 0.75,-1.0625 0.5,-0.75 0.3125,-0.5 z"
   style="fill:#000000;fill-opacity:1;stroke:none"
   inkscape:connector-curvature="0" />
</g><g
     style="fill:#000000;fill-opacity:1;stroke:none"
     id="LWPOLYLINE_2_">
	
		<path
   style="fill:#000000;fill-opacity:1;stroke:none"
   id="path10"
   d="m 264.47,401.262 c 0,0.17 0,0.299 0,0.299 0,0.17 0,0.383 0,0.383 v 0.213 0.299 0.258 0.299 0.34 0.342 0.385 0.385 0.383 0.428 0.383 0.428 0.426 0.428 0.428 0.426 0.428 0.383 0.428 0.385 0.383 0.385 0.342 0.342 0.297 0.258 0.299 0.213 c 0,0.213 0,0.385 0,0.385 0,0.127 0,0.213 0,0.213 0.192,0.086 0.427,0.086 0.427,0.086 h 0.32 0.384 0.47 0.534 0.597 0.662 0.704 0.769 0.811 0.832 0.896 0.896 0.939 0.96 0.96 0.982 0.981 0.981 0.981 0.961 0.96 0.918 0.918 0.875 0.854 0.811 0.747 0.726 0.641 0.618 0.534 0.448 0.405 0.32 0.213 c 0.192,0.17 0.192,0.639 0.192,0.639 v 0.812 1.066 1.365 1.58 1.834 2.049 2.264 2.475 2.604 2.775 2.902 2.986 3.158 3.201 3.244 3.33 3.371 3.373 3.371 3.373 3.285 3.287 3.201 3.115 3.031 2.902 2.773 2.604 2.434 2.262 2.049 1.836 1.621 1.367 1.066 0.768 0.512 c 0.213,0.172 0.362,0.172 0.362,0.172 0.214,0 0.448,0 0.448,0 h 0.257 0.298 0.32 0.363 0.384 0.405 0.427 0.427 0.47 0.47 0.47 0.47 0.49 0.491 0.49 0.491 0.491 0.469 0.47 0.448 0.448 0.427 0.405 0.385 0.341 0.342 0.299 0.256 0.235 c 0.191,0 0.362,0 0.362,0 0.214,-0.172 0.214,-0.684 0.214,-0.684 v -0.768 -1.066 -1.367 -1.621 -1.836 -2.049 -2.262 -2.434 -2.604 -2.773 -2.902 -3.031 -3.115 -3.201 -3.287 -3.285 -3.373 -3.371 -3.373 -3.377 -3.33 -3.244 -3.201 -3.158 -2.986 -2.902 -2.775 -2.604 -2.475 -2.264 -2.049 -1.834 -1.58 -1.365 -1.066 -0.812 -0.469 c 0.17,-0.17 0.405,-0.17 0.405,-0.17 h 0.299 0.384 0.448 0.513 0.597 0.598 0.726 0.726 0.769 0.811 0.854 0.896 0.896 0.896 0.939 0.981 0.938 0.939 0.939 0.938 0.939 0.896 0.854 0.854 0.811 0.812 0.726 0.683 0.64 0.598 0.513 0.427 0.384 0.299 0.214 c 0.213,-0.172 0.213,-0.299 0.213,-0.299 0,-0.172 0,-0.385 0,-0.385 v -0.213 -0.299 -0.258 -0.297 -0.342 -0.342 -0.385 -0.383 -0.385 -0.428 -0.383 -0.428 -0.426 -0.428 -0.428 -0.426 -0.428 -0.383 -0.428 -0.383 -0.385 -0.385 -0.342 -0.34 -0.299 -0.258 -0.299 -0.213 c 0,-0.213 0,-0.383 0,-0.383 0,-0.129 0,-0.215 0,-0.215 -0.001,-0.078 -64.707,-0.078 -64.707,-0.078 z"
   stroke-miterlimit="10"
   inkscape:connector-curvature="0" />
</g><g
     style="fill:#000000;fill-opacity:1;stroke:none"
     id="LWPOLYLINE_3_">
	
		<path
   style="fill:#000000;fill-opacity:1;stroke:none"
   id="path13"
   d="m 341.383,502.674 c 0.214,0 0.342,0 0.342,0 0.214,0 0.427,0 0.427,0 h 0.256 0.257 0.298 0.342 0.384 0.342 0.427 0.385 0.427 0.427 0.469 0.428 0.469 0.47 0.47 0.427 0.47 0.427 0.427 0.427 0.427 0.384 0.385 0.341 0.342 0.299 0.299 0.256 c 0.214,0 0.384,0 0.384,0 0.171,0 0.257,0 0.257,0 0.085,-0.086 0.085,-0.342 0.085,-0.342 v -0.426 -0.557 -0.682 -0.811 -0.982 -1.025 -1.193 -1.238 -1.365 -1.41 -1.494 -1.535 -1.623 -1.664 -1.664 -1.707 -1.75 -1.707 -1.75 -1.709 -1.707 -1.707 -1.621 -1.623 -1.535 -1.494 -1.453 -1.324 -1.279 -1.152 -1.068 -0.938 -0.812 -0.682 -0.555 -0.428 -0.256 c 0.086,-0.086 0.256,-0.086 0.256,-0.086 h 0.299 0.427 0.513 0.64 0.726 0.769 0.896 0.939 1.023 1.067 1.152 1.152 1.195 1.28 1.238 1.323 1.28 1.323 1.28 1.323 1.28 1.28 1.238 1.237 1.152 1.11 1.109 0.981 0.982 0.854 0.811 0.726 0.598 0.512 0.428 0.299 c 0.213,0 0.256,0 0.256,0 0,0.086 0,0.342 0,0.342 v 0.428 0.555 0.682 0.812 0.938 1.068 1.152 1.279 1.324 1.451 1.494 1.535 1.623 1.621 1.707 1.707 1.709 1.75 1.707 1.75 1.707 1.664 1.664 1.623 1.535 1.494 1.41 1.365 1.238 1.193 1.025 0.982 0.811 0.682 0.557 0.426 0.256 c 0.213,0.086 0.384,0.086 0.384,0.086 0.214,0 0.427,0 0.427,0 h 0.256 0.299 0.342 0.342 0.384 0.427 0.427 0.427 0.47 0.47 0.47 0.469 0.47 0.513 0.469 0.513 0.47 0.469 0.47 0.47 0.427 0.427 0.427 0.384 0.342 0.342 0.299 0.256 0.213 c 0.214,0 0.385,0 0.385,0 0.213,-0.213 0.213,-0.768 0.213,-0.768 v -0.896 -1.195 -1.537 -1.793 -2.049 -2.305 -2.561 -2.775 -2.943 -3.117 -3.244 -3.414 -3.5 -3.627 -3.672 -3.756 -3.756 -3.799 -3.799 -3.799 -3.756 -3.67 -3.586 -3.543 -3.371 -3.287 -3.115 -2.945 -2.732 -2.561 -2.305 -2.092 -1.791 -1.537 -1.195 -0.896 -0.555 c -0.213,-0.17 -0.384,-0.17 -0.384,-0.17 -0.214,0 -0.427,0 -0.427,0 h -0.256 -0.299 -0.342 -0.342 -0.384 -0.427 -0.427 -0.427 -0.47 -0.47 -0.469 -0.47 -0.513 -0.469 -0.513 -0.47 -0.469 -0.47 -0.47 -0.47 -0.427 -0.427 -0.427 -0.384 -0.342 -0.342 -0.299 -0.261 -0.213 c -0.214,0 -0.385,0 -0.385,0 -0.213,0.084 -0.213,0.299 -0.213,0.299 v 0.383 0.555 0.641 0.768 0.896 0.982 1.109 1.195 1.281 1.322 1.408 1.451 1.537 1.537 1.621 1.58 1.621 1.664 1.623 1.621 1.623 1.578 1.58 1.494 1.494 1.408 1.322 1.281 1.195 1.066 1.023 0.896 0.77 0.641 0.512 0.383 0.258 c -0.043,0.084 -0.256,0.084 -0.256,0.084 h -0.299 -0.428 -0.512 -0.598 -0.726 -0.811 -0.854 -0.982 -0.981 -1.109 -1.11 -1.152 -1.237 -1.238 -1.28 -1.28 -1.323 -1.28 -1.323 -1.28 -1.323 -1.238 -1.28 -1.195 -1.152 -1.152 -1.067 -1.023 -0.939 -0.896 -0.769 -0.726 -0.64 -0.513 -0.427 -0.299 c -0.17,0 -0.256,0 -0.256,0 0,-0.084 0,-0.342 0,-0.342 v -0.383 -0.512 -0.641 -0.77 -0.896 -1.018 -1.066 -1.195 -1.281 -1.322 -1.408 -1.494 -1.494 -1.58 -1.578 -1.623 -1.621 -1.623 -1.664 -1.621 -1.58 -1.621 -1.537 -1.537 -1.451 -1.408 -1.322 -1.281 -1.195 -1.109 -0.982 -0.896 -0.768 -0.641 -0.555 -0.383 -0.215 c -0.171,-0.084 -0.342,-0.084 -0.342,-0.084 -0.17,0 -0.384,0 -0.384,0 h -0.256 -0.299 -0.299 -0.342 -0.341 -0.385 -0.384 -0.427 -0.427 -0.427 -0.427 -0.47 -0.427 -0.47 -0.47 -0.469 -0.428 -0.469 -0.427 -0.427 -0.385 -0.427 -0.342 -0.384 -0.342 -0.298 -0.257 -0.256 c -0.213,0 -0.427,0 -0.427,0 -0.128,0 -0.214,0 -0.214,0 -0.123,-0.003 -0.123,101.409 -0.123,101.409 z"
   stroke-miterlimit="10"
   inkscape:connector-curvature="0" />
</g><g
     style="fill:#000000;fill-opacity:1;stroke:none"
     id="LWPOLYLINE_6_">
	
		<path
   style="fill:#000000;fill-opacity:1;stroke:none"
   id="path22"
   d="m 303.823,591.836 c 0.042,-0.127 0.191,-0.383 0.191,-0.383 l 0.235,-0.428 0.319,-0.598 0.406,-0.725 0.49,-0.854 0.534,-1.025 0.64,-1.109 0.684,-1.238 0.726,-1.322 0.768,-1.408 0.854,-1.494 0.854,-1.58 0.938,-1.664 0.939,-1.664 0.938,-1.75 0.981,-1.793 1.024,-1.793 0.982,-1.836 1.024,-1.834 1.024,-1.836 1.023,-1.836 0.982,-1.793 0.981,-1.791 0.981,-1.709 0.939,-1.707 0.896,-1.664 0.896,-1.58 0.812,-1.492 0.769,-1.41 0.768,-1.322 0.684,-1.238 0.597,-1.109 0.556,-1.023 0.469,-0.855 0.428,-0.725 0.341,-0.598 0.214,-0.428 0.128,-0.256 c -0.171,-0.084 -0.342,-0.084 -0.342,-0.084 -0.171,0 -0.427,0 -0.427,0 h -0.299 -0.299 -0.384 -0.385 -0.384 -0.427 -0.47 -0.469 -0.47 -0.513 -0.512 -0.513 -0.512 -0.513 -0.512 -0.555 -0.513 -0.512 -0.47 -0.512 -0.47 -0.427 -0.427 -0.427 -0.385 -0.341 -0.299 -0.299 -0.257 c -0.213,0 -0.384,0 -0.384,0 -0.171,0 -0.213,0 -0.213,0 -0.043,0.043 -0.171,0.256 -0.171,0.256 l -0.171,0.342 -0.256,0.469 -0.299,0.598 -0.385,0.725 -0.427,0.77 -0.47,0.896 -0.512,1.023 -0.598,1.068 -0.598,1.109 -0.64,1.236 -0.684,1.238 -0.683,1.324 -0.769,1.365 -0.726,1.408 -0.768,1.451 -0.769,1.451 -0.769,1.451 -0.811,1.451 -0.769,1.494 -0.79,1.451 -0.768,1.451 -0.769,1.451 -0.747,1.408 -0.726,1.367 -0.704,1.279 -0.683,1.281 -0.641,1.236 -0.598,1.111 -0.576,1.066 -0.533,0.982 -0.47,0.896 -0.427,0.811 -0.384,0.725 -0.32,0.555 -0.235,0.471 -0.191,0.383 c -0.107,0.215 -0.149,0.256 -0.149,0.256 -0.043,-0.041 -0.149,-0.256 -0.149,-0.256 l -0.171,-0.383 -0.234,-0.471 -0.32,-0.555 -0.342,-0.725 -0.427,-0.811 -0.448,-0.896 -0.512,-0.982 -0.534,-1.066 -0.598,-1.111 -0.597,-1.236 -0.662,-1.281 -0.661,-1.279 -0.705,-1.367 -0.726,-1.408 -0.726,-1.451 -0.746,-1.451 -0.747,-1.451 -0.747,-1.494 -0.747,-1.451 -0.747,-1.451 -0.747,-1.451 -0.747,-1.451 -0.704,-1.408 -0.704,-1.365 -0.661,-1.324 -0.662,-1.238 -0.619,-1.236 -0.576,-1.109 -0.555,-1.068 -0.49,-1.023 -0.47,-0.896 -0.405,-0.77 -0.363,-0.725 -0.299,-0.598 -0.234,-0.469 -0.171,-0.342 c -0.106,-0.213 -0.149,-0.256 -0.149,-0.256 -0.106,0 -0.234,0 -0.234,0 -0.192,0 -0.406,0 -0.406,0 h -0.256 -0.32 -0.341 -0.363 -0.405 -0.427 -0.47 -0.47 -0.49 -0.513 -0.533 -0.555 -0.534 -0.555 -0.555 -0.555 -0.555 -0.556 -0.533 -0.533 -0.513 -0.512 -0.47 -0.448 -0.448 -0.405 -0.362 -0.342 -0.299 -0.277 -0.214 c -0.171,0 -0.299,0 -0.299,0 -0.063,0.084 0.086,0.34 0.086,0.34 l 0.234,0.428 0.32,0.598 0.405,0.725 0.491,0.855 0.555,1.023 0.619,1.109 0.661,1.238 0.747,1.322 0.79,1.41 0.832,1.492 0.875,1.58 0.896,1.664 0.938,1.707 0.982,1.709 0.981,1.791 1.003,1.793 1.003,1.836 1.003,1.836 1.024,1.834 1.003,1.836 1.003,1.793 0.981,1.793 0.982,1.75 0.938,1.664 0.896,1.664 0.875,1.58 0.832,1.494 0.79,1.408 0.726,1.322 0.683,1.238 0.619,1.109 0.555,1.025 0.491,0.854 0.405,0.725 0.32,0.598 0.234,0.428 0.149,0.256 c 0,0.213 -0.149,0.469 -0.149,0.469 l -0.256,0.471 -0.32,0.639 -0.427,0.77 -0.491,0.938 -0.576,1.068 -0.64,1.195 -0.704,1.322 -0.747,1.451 -0.832,1.494 -0.854,1.621 -0.896,1.709 -0.939,1.75 -0.96,1.791 -1.003,1.879 -1.024,1.92 -1.024,1.922 -1.046,1.963 -1.046,1.963 -1.046,1.963 -1.046,1.965 -1.024,1.92 -1.024,1.922 -1.003,1.877 -0.96,1.793 -0.939,1.75 -0.896,1.707 -0.875,1.621 -0.812,1.494 -0.747,1.451 -0.704,1.324 -0.64,1.195 -0.576,1.066 -0.491,0.939 -0.427,0.768 -0.32,0.641 -0.256,0.426 -0.149,0.299 c 0.149,0.086 0.32,0.086 0.32,0.086 0.191,0 0.427,0 0.427,0 h 0.277 0.299 0.32 0.362 0.363 0.405 0.427 0.448 0.448 0.469 0.47 0.491 0.49 0.491 0.491 0.49 0.47 0.491 0.469 0.448 0.448 0.406 0.405 0.384 0.363 0.319 0.299 0.277 0.235 c 0.192,0 0.341,0 0.341,0 0.214,0 0.257,-0.086 0.257,-0.086 l 0.106,-0.213 0.192,-0.385 0.277,-0.512 0.32,-0.682 0.384,-0.77 0.448,-0.896 0.49,-0.98 0.556,-1.109 0.598,-1.195 0.64,-1.238 0.662,-1.365 0.704,-1.41 0.726,-1.451 0.768,-1.535 0.769,-1.537 0.812,-1.58 0.789,-1.621 0.832,-1.621 0.812,-1.666 0.811,-1.621 0.833,-1.623 0.789,-1.621 0.812,-1.58 0.768,-1.578 0.769,-1.494 0.726,-1.494 0.704,-1.365 0.662,-1.365 0.64,-1.281 0.598,-1.195 0.555,-1.066 0.491,-1.025 0.448,-0.854 0.384,-0.811 0.32,-0.641 0.277,-0.512 0.192,-0.385 0.106,-0.256 c 0.085,0 0.214,0.256 0.214,0.256 l 0.213,0.385 0.277,0.512 0.363,0.641 0.405,0.811 0.491,0.854 0.533,1.025 0.598,1.066 0.64,1.195 0.684,1.281 0.726,1.365 0.747,1.365 0.811,1.494 0.811,1.494 0.833,1.578 0.875,1.58 0.854,1.621 0.896,1.623 0.854,1.621 0.896,1.666 0.896,1.621 0.854,1.621 0.854,1.58 0.854,1.537 0.811,1.535 0.812,1.451 0.768,1.41 0.684,1.365 0.726,1.238 0.64,1.195 0.555,1.109 0.556,0.98 0.469,0.896 0.428,0.77 0.341,0.682 0.299,0.512 0.214,0.385 0.128,0.213 c 0.171,0.086 0.299,0.086 0.299,0.086 0.171,0 0.384,0 0.384,0 h 0.256 0.299 0.342 0.384 0.385 0.427 0.469 0.47 0.513 0.512 0.555 0.513 0.555 0.555 0.555 0.556 0.555 0.555 0.555 0.513 0.512 0.513 0.469 0.47 0.427 0.385 0.384 0.342 0.298 0.257 0.213 c 0.214,0 0.342,0 0.342,0 0.092,-10e-4 -29.614,-52.415 -29.614,-52.415 z"
   stroke-miterlimit="10"
   inkscape:connector-curvature="0" />
</g><g
     style="fill:#000000;fill-opacity:1;stroke:none"
     id="LWPOLYLINE_7_">
	
		<path
   style="fill:#000000;fill-opacity:1;stroke:none"
   id="path25"
   d="m 358.029,542.881 c -0.214,0 -0.342,0 -0.342,0 -0.213,0 -0.427,0 -0.427,0 h -0.256 -0.256 -0.299 -0.342 -0.384 -0.342 -0.427 -0.384 -0.427 -0.427 -0.47 -0.427 -0.47 -0.47 -0.47 -0.427 -0.469 -0.428 -0.427 -0.427 -0.427 -0.384 -0.384 -0.336 -0.342 -0.299 -0.299 -0.256 c -0.213,0 -0.384,0 -0.384,0 -0.171,0 -0.256,0 -0.256,0 -0.086,0.17 -0.086,0.725 -0.086,0.725 v 0.896 1.195 1.537 1.793 2.047 2.348 2.52 2.773 2.945 3.115 3.244 3.414 3.5 3.629 3.67 3.756 3.758 3.797 3.842 3.756 3.756 3.672 3.627 3.5 3.416 3.242 3.117 2.945 2.773 2.518 2.348 2.049 1.793 1.537 1.195 0.896 0.555 c 0.171,0.17 0.342,0.17 0.342,0.17 0.171,0 0.384,0 0.384,0 h 0.256 0.299 0.299 0.342 0.342 0.384 0.384 0.427 0.427 0.427 0.428 0.469 0.427 0.47 0.47 0.47 0.427 0.47 0.427 0.427 0.384 0.427 0.342 0.384 0.342 0.299 0.256 0.256 c 0.214,0 0.427,0 0.427,0 0.128,0 0.214,0 0.214,0 0.122,0 0.122,-101.369 0.122,-101.369 z"
   stroke-miterlimit="10"
   inkscape:connector-curvature="0" />
</g><g
     style="fill:#000000;fill-opacity:1;stroke:none"
     id="LWPOLYLINE_8_">
	
		<path
   style="fill:#000000;fill-opacity:1;stroke:none"
   id="path28"
   d="m 375.486,613.689 -0.043,0.727 -0.085,0.811 -0.043,0.811 -0.043,0.854 v 0.939 0.939 0.98 l 0.043,0.982 0.043,1.023 0.085,1.025 0.128,1.066 0.171,1.068 0.171,1.066 0.213,1.066 0.257,1.068 0.341,1.109 0.342,1.066 0.427,1.066 0.427,1.025 0.513,1.066 0.597,1.025 0.598,0.98 0.726,0.982 0.726,0.939 0.854,0.939 0.896,0.895 0.982,0.812 1.024,0.811 1.109,0.768 1.237,0.727 1.281,0.641 1.365,0.596 1.494,0.557 1.536,0.469 1.665,0.426 1.75,0.342 1.878,0.299 1.964,0.172 2.048,0.127 2.177,0.043 h 1.195 l 1.152,-0.043 1.152,-0.084 1.195,-0.086 1.152,-0.129 1.11,-0.127 1.152,-0.215 1.109,-0.213 1.109,-0.213 1.11,-0.299 1.066,-0.299 1.024,-0.342 1.067,-0.385 1.024,-0.426 0.981,-0.428 0.982,-0.512 0.938,-0.512 0.896,-0.555 0.896,-0.598 0.896,-0.641 0.811,-0.684 0.811,-0.725 0.769,-0.727 0.769,-0.811 0.683,-0.854 0.683,-0.854 0.641,-0.939 0.598,-0.98 0.555,-1.025 0.513,-1.023 0.469,-1.109 0.427,-1.152 0.385,-1.195 0.299,-1.238 0.299,-1.324 0.256,-1.322 0.171,-1.408 0.128,-1.451 0.085,-1.494 0.043,-1.537 -0.085,-2.348 -0.257,-2.262 -0.384,-2.092 -0.512,-2.006 -0.684,-1.877 -0.811,-1.75 -0.896,-1.707 -1.024,-1.58 -1.109,-1.494 -1.195,-1.408 -1.323,-1.324 -1.366,-1.279 -1.408,-1.195 -1.494,-1.152 -1.579,-1.066 -1.579,-1.025 -1.622,-1.023 -1.622,-0.939 -1.664,-0.939 -1.665,-0.939 -1.707,-0.896 -1.665,-0.854 -1.621,-0.896 -1.622,-0.854 -1.579,-0.896 -1.537,-0.895 -1.494,-0.896 -1.451,-0.939 -1.365,-0.939 -1.28,-1.023 -1.238,-1.025 -1.109,-1.066 -1.024,-1.152 -0.896,-1.152 -0.811,-1.281 -0.641,-1.322 -0.555,-1.367 -0.385,-1.494 -0.256,-1.578 -0.085,-1.623 0.042,-0.811 0.043,-0.725 0.043,-0.727 0.128,-0.725 0.128,-0.684 0.128,-0.641 0.171,-0.639 0.214,-0.641 0.213,-0.598 0.256,-0.555 0.257,-0.555 0.299,-0.557 0.298,-0.512 0.342,-0.512 0.342,-0.469 0.384,-0.428 0.384,-0.426 0.428,-0.428 0.384,-0.385 0.47,-0.383 0.427,-0.342 0.47,-0.342 0.469,-0.299 0.513,-0.299 0.47,-0.256 0.512,-0.256 0.555,-0.256 0.513,-0.215 0.555,-0.17 0.555,-0.213 0.555,-0.172 0.555,-0.127 0.556,-0.129 0.597,-0.127 0.556,-0.086 0.598,-0.043 0.597,-0.086 0.556,-0.041 h 0.598 l 0.597,-0.043 0.854,0.043 0.811,0.041 0.769,0.043 0.726,0.129 0.726,0.127 0.726,0.129 0.64,0.213 0.641,0.213 0.641,0.215 0.597,0.256 0.556,0.299 0.555,0.299 0.512,0.342 0.47,0.34 0.47,0.385 0.47,0.385 0.384,0.426 0.427,0.428 0.384,0.469 0.342,0.471 0.342,0.512 0.299,0.512 0.299,0.555 0.256,0.555 0.256,0.555 0.256,0.598 0.214,0.641 0.171,0.598 0.17,0.641 0.171,0.684 0.171,0.639 0.086,0.684 0.128,0.727 0.085,0.725 0.085,0.684 0.086,0.768 0.043,0.727 v 0.768 l 0.042,0.768 v 0.811 c 0.214,0 0.385,0 0.385,0 0.17,0 0.427,0 0.427,0 h 0.256 0.299 0.342 0.341 0.385 0.384 0.427 0.47 0.427 0.47 0.469 0.513 0.47 0.512 0.47 0.512 0.47 0.47 0.47 0.469 0.427 0.428 0.384 0.384 0.385 0.299 0.299 0.298 0.214 c 0.214,0 0.342,0 0.342,0 0.213,0 0.256,-1.492 0.256,-1.492 v -1.451 l -0.043,-1.41 -0.043,-1.365 -0.128,-1.322 -0.17,-1.281 -0.214,-1.238 -0.256,-1.195 -0.256,-1.152 -0.342,-1.109 -0.342,-1.066 -0.384,-1.025 -0.47,-1.023 -0.47,-0.939 -0.512,-0.896 -0.513,-0.896 -0.598,-0.854 -0.597,-0.768 -0.684,-0.768 -0.683,-0.727 -0.726,-0.684 -0.726,-0.639 -0.811,-0.641 -0.812,-0.555 -0.854,-0.555 -0.896,-0.471 -0.938,-0.469 -0.939,-0.428 -0.981,-0.426 -1.024,-0.342 -1.024,-0.299 -1.067,-0.299 -1.109,-0.256 -1.152,-0.213 -1.152,-0.215 -1.195,-0.127 -1.195,-0.129 -1.237,-0.084 -1.281,-0.043 h -1.322 -1.238 l -1.195,0.043 -1.237,0.084 -1.195,0.129 -1.152,0.127 -1.152,0.215 -1.152,0.213 -1.11,0.213 -1.109,0.299 -1.109,0.299 -1.024,0.385 -1.067,0.383 -0.981,0.385 -0.981,0.471 -0.982,0.469 -0.938,0.512 -0.896,0.555 -0.896,0.598 -0.811,0.598 -0.854,0.684 -0.769,0.682 -0.769,0.727 -0.726,0.768 -0.683,0.77 -0.641,0.854 -0.64,0.854 -0.556,0.896 -0.555,0.938 -0.512,0.939 -0.47,1.025 -0.427,1.023 -0.384,1.068 -0.342,1.109 -0.299,1.152 -0.256,1.195 -0.214,1.195 -0.171,1.279 -0.128,1.281 -0.042,1.322 -0.043,1.365 0.085,2.221 0.256,2.092 0.385,2.006 0.512,1.92 0.684,1.793 0.811,1.664 0.896,1.623 1.024,1.494 1.109,1.451 1.195,1.322 1.323,1.281 1.365,1.236 1.409,1.152 1.494,1.111 1.579,1.066 1.579,1.023 1.622,0.982 1.622,0.939 1.664,0.896 1.665,0.896 1.664,0.896 1.665,0.854 1.664,0.854 1.622,0.854 1.579,0.896 1.537,0.854 1.493,0.896 1.451,0.896 1.366,0.98 1.28,0.939 1.238,1.023 1.109,1.068 1.024,1.109 0.896,1.152 0.811,1.195 0.641,1.279 0.555,1.367 0.384,1.408 0.257,1.537 0.085,1.578 -0.043,0.896 -0.042,0.896 -0.043,0.811 -0.128,0.811 -0.128,0.812 -0.128,0.768 -0.214,0.727 -0.171,0.682 -0.256,0.684 -0.256,0.684 -0.256,0.596 -0.299,0.598 -0.342,0.598 -0.342,0.555 -0.384,0.514 -0.384,0.512 -0.385,0.469 -0.427,0.428 -0.47,0.469 -0.469,0.385 -0.47,0.385 -0.513,0.34 -0.531,0.339 -0.513,0.342 -0.555,0.299 -0.598,0.256 -0.555,0.256 -0.598,0.215 -0.598,0.213 -0.64,0.213 -0.641,0.172 -0.64,0.127 -0.641,0.129 -0.683,0.127 -0.684,0.086 -0.683,0.086 -0.683,0.041 -0.726,0.043 -0.684,0.043 h -0.726 -0.597 l -0.598,-0.043 -0.598,-0.043 -0.598,-0.041 -0.598,-0.086 -0.598,-0.086 -0.555,-0.127 -0.598,-0.129 -0.598,-0.17 -0.598,-0.172 -0.555,-0.213 -0.555,-0.213 -0.555,-0.256 -0.555,-0.258 -0.556,-0.299 -0.555,-0.297 -0.512,-0.342 -0.513,-0.342 -0.47,-0.385 -0.512,-0.426 -0.47,-0.428 -0.427,-0.469 -0.427,-0.514 -0.427,-0.512 -0.427,-0.555 -0.384,-0.555 -0.342,-0.641 -0.342,-0.641 -0.299,-0.639 -0.299,-0.727 -0.299,-0.725 -0.213,-0.727 -0.256,-0.811 -0.171,-0.811 -0.171,-0.854 -0.128,-0.896 -0.128,-0.939 -0.086,-0.982 -0.042,-0.98 v -1.025 c 0,-0.213 0,-0.256 0,-0.256 0,-0.213 0,-0.299 0,-0.299 0,-0.17 0,-0.256 0,-0.256 0,-0.213 0,-0.299 0,-0.299 0,-0.213 0,-0.299 0,-0.299 0,-0.213 0,-0.299 0,-0.299 0,-0.17 0,-0.256 0,-0.256 0,-0.17 0,-0.256 0,-0.256 0,-0.213 0,-0.256 0,-0.256 0.015,-0.124 -12.235,-0.124 -12.235,-0.124 z"
   stroke-miterlimit="10"
   inkscape:connector-curvature="0" />
</g></g></svg>