<?xml version="1.0" encoding="UTF-8" standalone="no"?>
<!-- Generator: Adobe Illustrator 16.0.1, SVG Export Plug-In . SVG Version: 6.00 Build 0)  -->

<svg
   xmlns:dc="http://purl.org/dc/elements/1.1/"
   xmlns:cc="http://creativecommons.org/ns#"
   xmlns:rdf="http://www.w3.org/1999/02/22-rdf-syntax-ns#"
   xmlns:svg="http://www.w3.org/2000/svg"
   xmlns="http://www.w3.org/2000/svg"
   xmlns:xlink="http://www.w3.org/1999/xlink"
   xmlns:sodipodi="http://sodipodi.sourceforge.net/DTD/sodipodi-0.dtd"
   xmlns:inkscape="http://www.inkscape.org/namespaces/inkscape"
   version="1.0"
   id="_x31_"
   x="0px"
   y="0px"
   width="350"
   height="350"
   viewBox="0 0 350 350"
   enable-background="new 0 0 612 792"
   xml:space="preserve"
   inkscape:version="0.48.2 r9819"
   sodipodi:docname="7030.svg"><metadata
   id="metadata34"><rdf:RDF><cc:Work
       rdf:about=""><dc:format>image/svg+xml</dc:format><dc:type
         rdf:resource="http://purl.org/dc/dcmitype/StillImage" /></cc:Work></rdf:RDF></metadata><defs
   id="defs32"><radialGradient
     r="333.18735"
     fy="710.99164"
     fx="373.24265"
     cy="710.99164"
     cx="373.24265"
     gradientTransform="matrix(0.86272608,1.0667183e-7,-5.1097115e-8,0.31434,-147.00617,81.5576)"
     gradientUnits="userSpaceOnUse"
     id="radialGradient3092"
     xlink:href="#linearGradient5443"
     inkscape:collect="always" /><radialGradient
     r="333.18735"
     fy="467.91885"
     fx="373.24265"
     cy="467.91885"
     cx="373.24265"
     gradientTransform="matrix(0.83535071,2.5391117e-7,-2.4564601e-7,0.80815889,-136.78854,-203.15302)"
     gradientUnits="userSpaceOnUse"
     id="radialGradient3088"
     xlink:href="#linearGradient5443"
     inkscape:collect="always" /><radialGradient
     r="333.18735"
     fy="467.91885"
     fx="373.24265"
     cy="467.91885"
     cx="373.24265"
     gradientTransform="matrix(0.83535071,2.5391117e-7,-2.4564601e-7,0.80815889,783.12101,707.99698)"
     gradientUnits="userSpaceOnUse"
     id="radialGradient3736"
     xlink:href="#linearGradient5443"
     inkscape:collect="always" /><linearGradient
     y2="254.73526"
     x2="123.47623"
     y1="344.03848"
     x1="123.50603"
     gradientTransform="matrix(2.3189708,0,0,2.0930998,-99.17808,-231.54972)"
     gradientUnits="userSpaceOnUse"
     id="linearGradient3734"
     xlink:href="#linearGradient3187"
     inkscape:collect="always" /><radialGradient
     r="333.18735"
     fy="710.99164"
     fx="373.24265"
     cy="710.99164"
     cx="373.24265"
     gradientTransform="matrix(0.86272608,1.0667183e-7,-5.1097115e-8,0.31434,772.90338,992.7076)"
     gradientUnits="userSpaceOnUse"
     id="radialGradient3732"
     xlink:href="#linearGradient5443"
     inkscape:collect="always" /><radialGradient
     r="333.18735"
     fy="710.99164"
     fx="373.24265"
     cy="710.99164"
     cx="373.24265"
     gradientTransform="matrix(0.86272608,1.0667183e-7,-5.1097115e-8,0.31434,772.90338,992.7076)"
     gradientUnits="userSpaceOnUse"
     id="radialGradient3722"
     xlink:href="#linearGradient5443"
     inkscape:collect="always" /><radialGradient
     r="333.18735"
     fy="467.91885"
     fx="373.24265"
     cy="467.91885"
     cx="373.24265"
     gradientTransform="matrix(0.83535071,2.5391117e-7,-2.4564601e-7,0.80815889,783.12101,707.99698)"
     gradientUnits="userSpaceOnUse"
     id="radialGradient3718"
     xlink:href="#linearGradient5443"
     inkscape:collect="always" /><radialGradient
     r="333.18735"
     fy="467.91885"
     fx="373.24265"
     cy="467.91885"
     cx="373.24265"
     gradientTransform="matrix(0.9201975,2.7970099e-7,-2.7059634e-7,0.8902438,-163.70313,61.921561)"
     gradientUnits="userSpaceOnUse"
     id="radialGradient3703"
     xlink:href="#linearGradient5443"
     inkscape:collect="always" /><linearGradient
     y2="254.73526"
     x2="123.47623"
     y1="344.03848"
     x1="123.50603"
     gradientTransform="matrix(2.3189708,0,0,2.0930998,-99.17808,-231.54972)"
     gradientUnits="userSpaceOnUse"
     id="linearGradient3701"
     xlink:href="#linearGradient3187"
     inkscape:collect="always" /><radialGradient
     r="333.18735"
     fy="710.99164"
     fx="373.24265"
     cy="710.99164"
     cx="373.24265"
     gradientTransform="matrix(0.9503534,1.1750652e-7,-5.6287062e-8,0.3462676,-174.95857,375.55031)"
     gradientUnits="userSpaceOnUse"
     id="radialGradient3699"
     xlink:href="#linearGradient5443"
     inkscape:collect="always" /><radialGradient
     r="333.18735"
     fy="467.91885"
     fx="373.24265"
     cy="467.91885"
     cx="373.24265"
     gradientTransform="matrix(0.9201975,2.7970099e-7,-2.7059634e-7,0.8902438,-163.70313,61.921561)"
     gradientUnits="userSpaceOnUse"
     id="radialGradient3680"
     xlink:href="#linearGradient5443"
     inkscape:collect="always" /><linearGradient
     y2="254.73526"
     x2="123.47623"
     y1="344.03848"
     x1="123.50603"
     gradientTransform="matrix(2.3189708,0,0,2.0930998,-99.17808,-231.54972)"
     gradientUnits="userSpaceOnUse"
     id="linearGradient3678"
     xlink:href="#linearGradient3187"
     inkscape:collect="always" /><radialGradient
     r="333.18735"
     fy="710.99164"
     fx="373.24265"
     cy="710.99164"
     cx="373.24265"
     gradientTransform="matrix(0.9503534,1.1750652e-7,-5.6287062e-8,0.3462676,-174.95857,375.55031)"
     gradientUnits="userSpaceOnUse"
     id="radialGradient3676"
     xlink:href="#linearGradient5443"
     inkscape:collect="always" /><radialGradient
     r="333.18735"
     fy="467.91885"
     fx="373.24265"
     cy="467.91885"
     cx="373.24265"
     gradientTransform="matrix(0.9201975,2.7970099e-7,-2.7059634e-7,0.8902438,-163.70313,61.921561)"
     gradientUnits="userSpaceOnUse"
     id="radialGradient3654"
     xlink:href="#linearGradient5443"
     inkscape:collect="always" /><linearGradient
     y2="254.73526"
     x2="123.47623"
     y1="344.03848"
     x1="123.50603"
     gradientTransform="matrix(2.3189708,0,0,2.0930998,-99.17808,-231.54972)"
     gradientUnits="userSpaceOnUse"
     id="linearGradient3652"
     xlink:href="#linearGradient3187"
     inkscape:collect="always" /><radialGradient
     r="333.18735"
     fy="710.99164"
     fx="373.24265"
     cy="710.99164"
     cx="373.24265"
     gradientTransform="matrix(0.9503534,1.1750652e-7,-5.6287062e-8,0.3462676,-174.95857,375.55031)"
     gradientUnits="userSpaceOnUse"
     id="radialGradient3650"
     xlink:href="#linearGradient5443"
     inkscape:collect="always" /><radialGradient
     r="333.18735"
     fy="467.91885"
     fx="373.24265"
     cy="467.91885"
     cx="373.24265"
     gradientTransform="matrix(0.9201975,2.7970099e-7,-2.7059634e-7,0.8902438,-163.70313,61.921561)"
     gradientUnits="userSpaceOnUse"
     id="radialGradient3627"
     xlink:href="#linearGradient5443"
     inkscape:collect="always" /><linearGradient
     y2="254.73526"
     x2="123.47623"
     y1="344.03848"
     x1="123.50603"
     gradientTransform="matrix(2.3189708,0,0,2.0930998,-99.17808,-231.54972)"
     gradientUnits="userSpaceOnUse"
     id="linearGradient3625"
     xlink:href="#linearGradient3187"
     inkscape:collect="always" /><radialGradient
     r="333.18735"
     fy="710.99164"
     fx="373.24265"
     cy="710.99164"
     cx="373.24265"
     gradientTransform="matrix(0.9503534,1.1750652e-7,-5.6287062e-8,0.3462676,-174.95857,375.55031)"
     gradientUnits="userSpaceOnUse"
     id="radialGradient3623"
     xlink:href="#linearGradient5443"
     inkscape:collect="always" /><radialGradient
     r="333.18735"
     fy="467.91885"
     fx="373.24265"
     cy="467.91885"
     cx="373.24265"
     gradientTransform="matrix(0.9201975,2.7970099e-7,-2.7059634e-7,0.8902438,-163.70313,61.921561)"
     gradientUnits="userSpaceOnUse"
     id="radialGradient3599"
     xlink:href="#linearGradient5443"
     inkscape:collect="always" /><linearGradient
     y2="254.73526"
     x2="123.47623"
     y1="344.03848"
     x1="123.50603"
     gradientTransform="matrix(2.3189708,0,0,2.0930998,-99.17808,-231.54972)"
     gradientUnits="userSpaceOnUse"
     id="linearGradient3597"
     xlink:href="#linearGradient3187"
     inkscape:collect="always" /><radialGradient
     r="333.18735"
     fy="710.99164"
     fx="373.24265"
     cy="710.99164"
     cx="373.24265"
     gradientTransform="matrix(0.9503534,1.1750652e-7,-5.6287062e-8,0.3462676,-174.95857,375.55031)"
     gradientUnits="userSpaceOnUse"
     id="radialGradient3595"
     xlink:href="#linearGradient5443"
     inkscape:collect="always" /><radialGradient
     r="333.18735"
     fy="467.91885"
     fx="373.24265"
     cy="467.91885"
     cx="373.24265"
     gradientTransform="matrix(0.9201975,2.7970099e-7,-2.7059634e-7,0.8902438,-163.70313,61.921561)"
     gradientUnits="userSpaceOnUse"
     id="radialGradient3525"
     xlink:href="#linearGradient5443"
     inkscape:collect="always" /><linearGradient
     y2="254.73526"
     x2="123.47623"
     y1="344.03848"
     x1="123.50603"
     gradientTransform="matrix(2.3189708,0,0,2.0930998,-99.17808,-231.54972)"
     gradientUnits="userSpaceOnUse"
     id="linearGradient3523"
     xlink:href="#linearGradient3187"
     inkscape:collect="always" /><radialGradient
     r="333.18735"
     fy="710.99164"
     fx="373.24265"
     cy="710.99164"
     cx="373.24265"
     gradientTransform="matrix(0.9503534,1.1750652e-7,-5.6287062e-8,0.3462676,-174.95857,375.55031)"
     gradientUnits="userSpaceOnUse"
     id="radialGradient3521"
     xlink:href="#linearGradient5443"
     inkscape:collect="always" /><radialGradient
     r="333.18735"
     fy="467.91885"
     fx="373.24265"
     cy="467.91885"
     cx="373.24265"
     gradientTransform="matrix(0.9201975,2.7970099e-7,-2.7059634e-7,0.8902438,-163.70313,61.921561)"
     gradientUnits="userSpaceOnUse"
     id="radialGradient3497"
     xlink:href="#linearGradient5443"
     inkscape:collect="always" /><linearGradient
     y2="254.73526"
     x2="123.47623"
     y1="344.03848"
     x1="123.50603"
     gradientTransform="matrix(2.3189708,0,0,2.0930998,-99.17808,-231.54972)"
     gradientUnits="userSpaceOnUse"
     id="linearGradient3495"
     xlink:href="#linearGradient3187"
     inkscape:collect="always" /><radialGradient
     r="333.18735"
     fy="710.99164"
     fx="373.24265"
     cy="710.99164"
     cx="373.24265"
     gradientTransform="matrix(0.9503534,1.1750652e-7,-5.6287062e-8,0.3462676,-174.95857,375.55031)"
     gradientUnits="userSpaceOnUse"
     id="radialGradient3493"
     xlink:href="#linearGradient5443"
     inkscape:collect="always" /><linearGradient
     id="linearGradient5443"><stop
       id="stop5445"
       offset="0"
       style="stop-color:#ffffff;stop-opacity:0;" /><stop
       id="stop5447"
       offset="1"
       style="stop-color:#000000;stop-opacity:0.33962265;" /></linearGradient><linearGradient
     id="linearGradient3157"><stop
       style="stop-color:#49bcff;stop-opacity:1;"
       offset="0"
       id="stop3159" /><stop
       style="stop-color:#494c96;stop-opacity:1;"
       offset="1"
       id="stop3161" /></linearGradient><linearGradient
     id="linearGradient3171"><stop
       id="stop3173"
       offset="0"
       style="stop-color:#49bcff;stop-opacity:1;" /><stop
       id="stop3175"
       offset="1"
       style="stop-color:#494cdc;stop-opacity:1;" /></linearGradient><linearGradient
     id="linearGradient3187"><stop
       style="stop-color:#ffffff;stop-opacity:0.39622641;"
       offset="0"
       id="stop3189" /><stop
       style="stop-color:#000000;stop-opacity:1;"
       offset="1"
       id="stop3191" /></linearGradient><linearGradient
     id="linearGradient4395"><stop
       style="stop-color:#110084;stop-opacity:1;"
       offset="0"
       id="stop4397" /><stop
       style="stop-color:#a695ff;stop-opacity:1;"
       offset="1"
       id="stop4399" /></linearGradient><linearGradient
     id="linearGradient4383"><stop
       style="stop-color:#00037f;stop-opacity:1;"
       offset="0"
       id="stop4385" /><stop
       style="stop-color:#00037f;stop-opacity:0;"
       offset="1"
       id="stop4387" /></linearGradient><inkscape:perspective
     sodipodi:type="inkscape:persp3d"
     inkscape:vp_x="0 : 526.18109 : 1"
     inkscape:vp_y="0 : 1000 : 0"
     inkscape:vp_z="744.09448 : 526.18109 : 1"
     inkscape:persp3d-origin="372.04724 : 350.78739 : 1"
     id="perspective3214" /><linearGradient
     inkscape:collect="always"
     xlink:href="#linearGradient4383"
     id="linearGradient4389"
     x1="371.42194"
     y1="298.59412"
     x2="396.91168"
     y2="655.4505"
     gradientUnits="userSpaceOnUse" /><linearGradient
     inkscape:collect="always"
     xlink:href="#linearGradient4395"
     id="linearGradient4401"
     x1="360.49777"
     y1="167.50403"
     x2="360.49777"
     y2="540.86719"
     gradientUnits="userSpaceOnUse" /><linearGradient
     inkscape:collect="always"
     xlink:href="#linearGradient3187"
     id="linearGradient4562"
     gradientUnits="userSpaceOnUse"
     gradientTransform="matrix(2.3189708,0,0,2.0930998,93.115298,-256.84999)"
     x1="123.50603"
     y1="344.03848"
     x2="123.47623"
     y2="254.73526" /><radialGradient
     inkscape:collect="always"
     xlink:href="#linearGradient3171"
     id="radialGradient4569"
     gradientUnits="userSpaceOnUse"
     gradientTransform="matrix(0.9201975,2.7970099e-7,-2.7059634e-7,0.8902438,28.590287,48.634335)"
     cx="373.24265"
     cy="467.91885"
     fx="373.24265"
     fy="467.91885"
     r="333.18735" /><radialGradient
     inkscape:collect="always"
     xlink:href="#linearGradient3157"
     id="radialGradient4572"
     gradientUnits="userSpaceOnUse"
     gradientTransform="matrix(0.9503534,1.1750652e-7,-5.6287062e-8,0.3462676,17.334826,362.44227)"
     cx="373.24265"
     cy="710.99164"
     fx="373.24265"
     fy="710.99164"
     r="333.18735" /><filter
     inkscape:collect="always"
     id="filter4659"
     color-interpolation-filters="sRGB"><feGaussianBlur
       inkscape:collect="always"
       stdDeviation="2.7750933"
       id="feGaussianBlur4661" /></filter><radialGradient
     inkscape:collect="always"
     xlink:href="#linearGradient3157"
     id="radialGradient4766"
     gradientUnits="userSpaceOnUse"
     gradientTransform="matrix(0.9503534,1.1750652e-7,-5.6287062e-8,0.3462676,17.334826,362.44227)"
     cx="373.24265"
     cy="710.99164"
     fx="373.24265"
     fy="710.99164"
     r="333.18735" /><radialGradient
     inkscape:collect="always"
     xlink:href="#linearGradient3171"
     id="radialGradient4768"
     gradientUnits="userSpaceOnUse"
     gradientTransform="matrix(0.9201975,2.7970099e-7,-2.7059634e-7,0.8902438,28.590287,48.634335)"
     cx="373.24265"
     cy="467.91885"
     fx="373.24265"
     fy="467.91885"
     r="333.18735" /><linearGradient
     inkscape:collect="always"
     xlink:href="#linearGradient3187"
     id="linearGradient4770"
     gradientUnits="userSpaceOnUse"
     gradientTransform="matrix(2.3189708,0,0,2.0930998,93.115298,-256.84999)"
     x1="123.50603"
     y1="344.03848"
     x2="123.47623"
     y2="254.73526" /><linearGradient
     inkscape:collect="always"
     xlink:href="#linearGradient3187"
     id="linearGradient4773"
     gradientUnits="userSpaceOnUse"
     gradientTransform="matrix(2.3189708,0,0,2.0930998,93.115298,-256.84999)"
     x1="123.50603"
     y1="344.03848"
     x2="123.47623"
     y2="254.73526" /><radialGradient
     inkscape:collect="always"
     xlink:href="#linearGradient3171"
     id="radialGradient4776"
     gradientUnits="userSpaceOnUse"
     gradientTransform="matrix(0.9201975,2.7970099e-7,-2.7059634e-7,0.8902438,28.590287,48.634335)"
     cx="373.24265"
     cy="467.91885"
     fx="373.24265"
     fy="467.91885"
     r="333.18735" /><radialGradient
     inkscape:collect="always"
     xlink:href="#linearGradient3157"
     id="radialGradient4779"
     gradientUnits="userSpaceOnUse"
     gradientTransform="matrix(0.9503534,1.1750652e-7,-5.6287062e-8,0.3462676,17.334826,362.44227)"
     cx="373.24265"
     cy="710.99164"
     fx="373.24265"
     fy="710.99164"
     r="333.18735" /><radialGradient
     inkscape:collect="always"
     xlink:href="#linearGradient3157"
     id="radialGradient4790"
     gradientUnits="userSpaceOnUse"
     gradientTransform="matrix(0.9503534,1.1750652e-7,-5.6287062e-8,0.3462676,17.334826,362.44227)"
     cx="373.24265"
     cy="710.99164"
     fx="373.24265"
     fy="710.99164"
     r="333.18735" /><radialGradient
     inkscape:collect="always"
     xlink:href="#linearGradient3171"
     id="radialGradient4792"
     gradientUnits="userSpaceOnUse"
     gradientTransform="matrix(0.9201975,2.7970099e-7,-2.7059634e-7,0.8902438,28.590287,48.634335)"
     cx="373.24265"
     cy="467.91885"
     fx="373.24265"
     fy="467.91885"
     r="333.18735" /><linearGradient
     inkscape:collect="always"
     xlink:href="#linearGradient3187"
     id="linearGradient4794"
     gradientUnits="userSpaceOnUse"
     gradientTransform="matrix(2.3189708,0,0,2.0930998,93.115298,-256.84999)"
     x1="123.50603"
     y1="344.03848"
     x2="123.47623"
     y2="254.73526" /><linearGradient
     inkscape:collect="always"
     xlink:href="#linearGradient3187"
     id="linearGradient4799"
     gradientUnits="userSpaceOnUse"
     gradientTransform="matrix(2.3189708,0,0,2.0930998,93.115298,-256.84999)"
     x1="123.50603"
     y1="344.03848"
     x2="123.47623"
     y2="254.73526" /><radialGradient
     inkscape:collect="always"
     xlink:href="#linearGradient3171"
     id="radialGradient4802"
     gradientUnits="userSpaceOnUse"
     gradientTransform="matrix(0.9201975,2.7970099e-7,-2.7059634e-7,0.8902438,28.590287,48.634335)"
     cx="373.24265"
     cy="467.91885"
     fx="373.24265"
     fy="467.91885"
     r="333.18735" /><radialGradient
     inkscape:collect="always"
     xlink:href="#linearGradient3157"
     id="radialGradient4805"
     gradientUnits="userSpaceOnUse"
     gradientTransform="matrix(0.9503534,1.1750652e-7,-5.6287062e-8,0.3462676,17.334826,362.44227)"
     cx="373.24265"
     cy="710.99164"
     fx="373.24265"
     fy="710.99164"
     r="333.18735" /><radialGradient
     inkscape:collect="always"
     xlink:href="#linearGradient3157"
     id="radialGradient4820"
     gradientUnits="userSpaceOnUse"
     gradientTransform="matrix(0.9503534,1.1750652e-7,-5.6287062e-8,0.3462676,17.334826,362.44227)"
     cx="373.24265"
     cy="710.99164"
     fx="373.24265"
     fy="710.99164"
     r="333.18735" /><radialGradient
     inkscape:collect="always"
     xlink:href="#linearGradient3171"
     id="radialGradient4822"
     gradientUnits="userSpaceOnUse"
     gradientTransform="matrix(0.9201975,2.7970099e-7,-2.7059634e-7,0.8902438,28.590287,48.634335)"
     cx="373.24265"
     cy="467.91885"
     fx="373.24265"
     fy="467.91885"
     r="333.18735" /><linearGradient
     inkscape:collect="always"
     xlink:href="#linearGradient3187"
     id="linearGradient4824"
     gradientUnits="userSpaceOnUse"
     gradientTransform="matrix(2.3189708,0,0,2.0930998,93.115298,-256.84999)"
     x1="123.50603"
     y1="344.03848"
     x2="123.47623"
     y2="254.73526" /><linearGradient
     inkscape:collect="always"
     xlink:href="#linearGradient3187"
     id="linearGradient4827"
     gradientUnits="userSpaceOnUse"
     gradientTransform="matrix(2.3189708,0,0,2.0930998,-99.17808,-231.54972)"
     x1="123.50603"
     y1="344.03848"
     x2="123.47623"
     y2="254.73526" /><radialGradient
     inkscape:collect="always"
     xlink:href="#linearGradient5443"
     id="radialGradient4832"
     gradientUnits="userSpaceOnUse"
     gradientTransform="matrix(0.9201975,2.7970099e-7,-2.7059634e-7,0.8902438,-163.70313,61.921561)"
     cx="373.24265"
     cy="467.91885"
     fx="373.24265"
     fy="467.91885"
     r="333.18735" /><radialGradient
     inkscape:collect="always"
     xlink:href="#linearGradient5443"
     id="radialGradient4835"
     gradientUnits="userSpaceOnUse"
     gradientTransform="matrix(0.9503534,1.1750652e-7,-5.6287062e-8,0.3462676,-174.95857,375.55031)"
     cx="373.24265"
     cy="710.99164"
     fx="373.24265"
     fy="710.99164"
     r="333.18735" /><filter
     inkscape:collect="always"
     id="filter5511"
     color-interpolation-filters="sRGB"><feGaussianBlur
       inkscape:collect="always"
       stdDeviation="3.2374974"
       id="feGaussianBlur5513" /></filter><radialGradient
     inkscape:collect="always"
     xlink:href="#linearGradient5443-5"
     id="radialGradient4835-3"
     gradientUnits="userSpaceOnUse"
     gradientTransform="matrix(0.9503534,1.1750652e-7,-5.6287062e-8,0.3462676,317.80591,185.68771)"
     cx="373.24265"
     cy="710.99164"
     fx="373.24265"
     fy="710.99164"
     r="333.18735" /><linearGradient
     id="linearGradient5443-5"><stop
       id="stop5445-4"
       offset="0"
       style="stop-color:#ffffff;stop-opacity:0;" /><stop
       id="stop5447-3"
       offset="1"
       style="stop-color:#000000;stop-opacity:0.33962265;" /></linearGradient><radialGradient
     inkscape:collect="always"
     xlink:href="#linearGradient5443"
     id="radialGradient3272"
     gradientUnits="userSpaceOnUse"
     gradientTransform="matrix(0.9503534,1.1750652e-7,-5.6287062e-8,0.3462676,-174.95857,375.55031)"
     cx="373.24265"
     cy="710.99164"
     fx="373.24265"
     fy="710.99164"
     r="333.18735" /><linearGradient
     inkscape:collect="always"
     xlink:href="#linearGradient3187"
     id="linearGradient3274"
     gradientUnits="userSpaceOnUse"
     gradientTransform="matrix(2.3189708,0,0,2.0930998,-99.17808,-231.54972)"
     x1="123.50603"
     y1="344.03848"
     x2="123.47623"
     y2="254.73526" /><radialGradient
     inkscape:collect="always"
     xlink:href="#linearGradient5443"
     id="radialGradient3276"
     gradientUnits="userSpaceOnUse"
     gradientTransform="matrix(0.9201975,2.7970099e-7,-2.7059634e-7,0.8902438,-163.70313,61.921561)"
     cx="373.24265"
     cy="467.91885"
     fx="373.24265"
     fy="467.91885"
     r="333.18735" /></defs><sodipodi:namedview
   pagecolor="#ffffff"
   bordercolor="#666666"
   borderopacity="1"
   objecttolerance="10"
   gridtolerance="10"
   guidetolerance="10"
   inkscape:pageopacity="0"
   inkscape:pageshadow="2"
   inkscape:window-width="1920"
   inkscape:window-height="1068"
   id="namedview30"
   showgrid="false"
   inkscape:zoom="1.1919192"
   inkscape:cx="375.19739"
   inkscape:cy="36.908142"
   inkscape:window-x="0"
   inkscape:window-y="0"
   inkscape:window-maximized="1"
   inkscape:current-layer="_x31_"
   fit-margin-top="0"
   fit-margin-left="0"
   fit-margin-right="0"
   fit-margin-bottom="0" />




<g
   id="LWPOLYLINE_4_"
   style="fill:#000000;fill-opacity:1;stroke:none"
   transform="translate(357.05932,-48.1695)">
	
		
</g>




<g
   id="g3298"
   transform="translate(-4.0524845e-6,3.5529445e-6)"><rect
     inkscape:export-ydpi="29.879425"
     inkscape:export-xdpi="29.879425"
     inkscape:export-filename="C:\Documents and Settings\adscro24\Desktop\128.png"
     style="opacity:0.61338286;fill:#464646;fill-opacity:0.78540775;stroke:none;filter:url(#filter4659)"
     id="rect3279"
     width="152.93848"
     height="152.93848"
     x="135.39355"
     y="48.636749"
     rx="16.067965"
     ry="12.45238"
     transform="matrix(2.1051501,0,0,2.1051501,-271.00298,-88.36689)" /><rect
     inkscape:export-ydpi="29.879425"
     inkscape:export-xdpi="29.879425"
     inkscape:export-filename="C:\Documents and Settings\adscro24\Desktop\128.png"
     style="opacity:0.61338286;fill:url(#radialGradient3092);fill-opacity:1;stroke:#000000;stroke-width:3.26806188;stroke-miterlimit:4;stroke-opacity:1;stroke-dasharray:none"
     id="rect3155"
     width="321.95847"
     height="321.95847"
     x="14.020748"
     y="14.020716"
     rx="33.825481"
     ry="26.21413" /><path
     transform="matrix(0.90779502,0,0,0.90779502,11.82035,-259.3651)"
     inkscape:export-ydpi="29.879425"
     inkscape:export-xdpi="29.879425"
     inkscape:export-filename="C:\Documents and Settings\adscro24\Desktop\128.png"
     inkscape:connector-curvature="0"
     style="opacity:0.61338286;fill:url(#linearGradient3734);fill-opacity:1;stroke:none;filter:url(#filter5511)"
     d="m 46.58172,323.34879 c -19.62748,0 -35.44272,12.0976 -35.44272,27.14163 l 0,124.30857 c 29.25482,11.38638 132.70149,11.89599 165.40488,-5.79022 33.32802,-18.02397 127.54379,-68.44264 171.82484,-52.72052 l 0,-65.79783 c 0,-15.04403 -15.7986,-27.14163 -35.4261,-27.14163 l -266.3609,0 z M 11.139,586.81982 l 0,42.88373 c 0,1.33144 0.14331,2.63588 0.38253,3.915 -0.11919,-12.81092 -0.25965,-28.88939 -0.38253,-46.79873 z"
     id="rect3177" /><rect
     inkscape:export-ydpi="29.879425"
     inkscape:export-xdpi="29.879425"
     inkscape:export-filename="C:\Documents and Settings\adscro24\Desktop\128.png"
     style="opacity:0.61338286;fill:url(#radialGradient3088);fill-opacity:1;stroke:#ffffff;stroke-width:0.68992418;stroke-linecap:square;stroke-miterlimit:4;stroke-opacity:1;stroke-dasharray:none"
     id="rect3473"
     width="306.12445"
     height="306.12445"
     x="21.937801"
     y="21.937769"
     rx="32.161926"
     ry="24.924913" /><rect
     inkscape:export-ydpi="29.879425"
     inkscape:export-xdpi="29.879425"
     inkscape:export-filename="C:\Documents and Settings\adscro24\Desktop\128.png"
     style="opacity:0.61338286;fill:#ffffff;fill-opacity:0;stroke:#000000;stroke-width:3.26806188;stroke-miterlimit:4;stroke-opacity:1;stroke-dasharray:none"
     id="rect3155-2"
     width="321.95847"
     height="321.95847"
     x="14.020748"
     y="14.020716"
     rx="33.825481"
     ry="26.21413" /><g
     transform="translate(400.39145,135.8211)"
     style="fill:#000000;fill-opacity:1;stroke:none"
     id="LWPOLYLINE_2_-9">
	
		
</g></g><g
   id="g2998"
   transform="matrix(0.500004,0,0,0.500004,21.997896,-23.000588)"><g
     style="fill:#000000;fill-opacity:1;stroke:none"
     id="LWPOLYLINE_3_">
	
		<path
   id="path13"
   d="m 208.65625,542.875 c -0.12,0 -31.59375,101.375 -31.59375,101.375 l 0.375,0 0.4375,0 0.25,0 0.3125,0 0.34375,0 0.3125,0 0.40625,0 0.40625,0 0.40625,0 0.46875,0 0.4375,0 0.46875,0 0.46875,0 0.5,0 0.46875,0 0.5,0 0.5,0 0.5,0 0.46875,0 0.46875,0 0.46875,0 0.46875,0 0.40625,0 0.4375,0 0.40625,0 0.375,0 0.375,0 0.3125,0 0.3125,0 0.28125,0 0.1875,0 0.375,0 c 0.214,0 0.25,-0.0312 0.25,-0.0312 0.043,-0.127 0.0937,-0.34375 0.0937,-0.34375 l 0.0937,-0.3125 0.125,-0.34375 0.125,-0.46875 0.15625,-0.46875 0.1875,-0.5625 0.1875,-0.625 0.21875,-0.65625 0.21875,-0.71875 0.25,-0.75 0.25,-0.78125 0.28125,-0.8125 0.25,-0.84375 0.3125,-0.90625 0.25,-0.84375 0.3125,-0.9375 0.28125,-0.90625 0.28125,-0.90625 0.3125,-0.9375 0.3125,-0.875 0.25,-0.90625 0.3125,-0.90625 0.28125,-0.875 0.28125,-0.875 0.25,-0.8125 0.25,-0.75 0.25,-0.78125 0.21875,-0.71875 0.21875,-0.65625 0.1875,-0.59375 0.1875,-0.59375 0.15625,-0.46875 0.15625,-0.4375 0.0937,-0.375 0.125,-0.28125 c 0.063,-0.213 0.0937,-0.34375 0.0937,-0.34375 0.085,-0.043 0.28125,-0.0625 0.28125,-0.0625 l 0.34375,0 0.4375,0 0.5625,0 0.65625,0 0.78125,0 0.875,0 0.9375,0 1,0 1.09375,0 1.15625,0 1.21875,0 1.25,0 1.3125,0 1.3125,0 1.375,0 1.375,0 1.4375,0 1.40625,0 1.40625,0 1.40625,0 1.375,0 1.375,0 1.3125,0 1.3125,0 1.28125,0 1.1875,0 1.15625,0 1.09375,0 1.03125,0 0.9375,0 0.875,0 0.75,0 0.65625,0 0.5625,0 0.4375,0 0.34375,0 0.28125,0 c 0.043,0.172 0.125,0.40625 0.125,0.40625 l 0.0625,0.28125 0.125,0.375 0.125,0.4375 0.125,0.46875 0.15625,0.59375 0.1875,0.59375 0.1875,0.65625 0.1875,0.71875 0.25,0.78125 0.21875,0.75 0.21875,0.8125 0.21875,0.875 0.28125,0.875 0.25,0.90625 0.25,0.90625 0.25,0.875 0.28125,0.9375 0.25,0.90625 0.28125,0.90625 0.25,0.9375 0.25,0.84375 0.25,0.90625 0.25,0.84375 0.21875,0.8125 0.25,0.78125 0.1875,0.75 0.21875,0.71875 0.1875,0.65625 0.15625,0.625 0.1875,0.5625 0.125,0.46875 0.125,0.46875 0.0937,0.34375 0.0937,0.3125 c 0.064,0.215 0.0937,0.34375 0.0937,0.34375 0.107,0.043 0.28125,0.0312 0.28125,0.0312 l 0.375,0 0.28125,0 0.28125,0 0.34375,0 0.375,0 0.40625,0 0.4375,0 0.46875,0 0.46875,0 0.5,0 0.5,0 0.53125,0 0.5625,0 0.53125,0 0.53125,0 0.59375,0 0.5625,0 0.53125,0 0.53125,0 0.5625,0 0.53125,0 0.53125,0 0.46875,0 0.46875,0 0.46875,0 0.4375,0 0.40625,0 0.375,0 0.34375,0 0.28125,0 0.28125,0 0.21875,0 0.3125,0 c 0.043,-0.17 -0.125,-0.71875 -0.125,-0.71875 l -0.3125,-0.90625 -0.375,-1.1875 -0.46875,-1.53125 -0.5625,-1.8125 -0.6875,-2.03125 -0.71875,-2.34375 -0.8125,-2.53125 -0.875,-2.78125 -0.9375,-2.9375 -1.03125,-3.125 -1,-3.21875 -1.09375,-3.4375 -1.125,-3.5 -1.15625,-3.625 -1.1875,-3.65625 -1.1875,-3.75 -1.1875,-3.78125 -1.21875,-3.84375 -1.21875,-3.78125 -1.1875,-3.75 -1.21875,-3.78125 -1.15625,-3.65625 -1.15625,-3.625 -1.125,-3.5 -1.09375,-3.40625 -1.03125,-3.25 -1,-3.125 -0.9375,-2.9375 -0.875,-2.78125 -0.8125,-2.5 -0.75,-2.375 -0.65625,-2.03125 -0.5625,-1.8125 -0.46875,-1.53125 -0.40625,-1.1875 -0.28125,-0.90625 -0.1875,-0.53125 c -0.171,-0.17 -0.3125,-0.1875 -0.3125,-0.1875 l -0.4375,0 -0.3125,0 -0.34375,0 -0.375,0 -0.40625,0 -0.4375,0 -0.5,0 -0.53125,0 -0.53125,0 -0.53125,0 -0.59375,0 -0.59375,0 -0.59375,0 -0.625,0 -0.625,0 -0.59375,0 -0.625,0 -0.625,0 -0.625,0 -0.59375,0 -0.59375,0 -0.59375,0 -0.53125,0 -0.53125,0 -0.53125,0 -0.46875,0 -0.46875,0 -0.40625,0 -0.375,0 -0.34375,0 -0.3125,0 -0.21875,0 -0.34375,0 z m 7.71875,12.34375 c 0.045,-0.126 15.75,53.21875 15.75,53.21875 l -0.21875,0 -0.28125,0 -0.375,0 -0.46875,0 -0.5625,0 -0.65625,0 -0.6875,0 -0.8125,0 -0.84375,0 -0.90625,0 -0.96875,0 -1.03125,0 -1.0625,0 -1.0625,0 -1.125,0 -1.15625,0 -1.15625,0 -1.15625,0 -1.1875,0 -1.1875,0 -1.1875,0 -1.125,0 -1.15625,0 -1.125,0 -1.09375,0 -1.0625,0 -1,0 -0.96875,0 -0.90625,0 -0.84375,0 -0.8125,0 -0.71875,0 -0.625,0 -0.5625,0 -0.46875,0 -0.375,0 -0.28125,0 -0.25,0 c 0.043,-0.127 0.125,-0.375 0.125,-0.375 l 0.125,-0.46875 0.21875,-0.65625 0.21875,-0.8125 0.28125,-0.9375 0.3125,-1.09375 0.375,-1.21875 0.40625,-1.34375 0.40625,-1.46875 0.46875,-1.53125 0.46875,-1.625 0.5,-1.6875 0.53125,-1.8125 0.5625,-1.875 0.5625,-1.875 0.5625,-1.90625 0.59375,-2.03125 0.5625,-1.9375 0.59375,-2.03125 0.59375,-2 0.59375,-1.96875 0.5625,-2 0.59375,-1.90625 0.53125,-1.875 0.5625,-1.875 0.53125,-1.8125 0.5,-1.6875 0.5,-1.625 0.4375,-1.5625 0.4375,-1.4375 0.40625,-1.375 0.34375,-1.1875 0.3125,-1.09375 0.28125,-0.9375 0.25,-0.8125 0.1875,-0.65625 0.125,-0.46875 0.0937,-0.25 z"
   style="fill:#000000;fill-opacity:1;stroke:none"
   inkscape:connector-curvature="0" />
</g><g
     style="fill:#000000;fill-opacity:1;stroke:none"
     id="LWPOLYLINE">
	
		<path
   style="fill:#000000;fill-opacity:1;stroke:none"
   id="path4"
   d="m 211.182,401.262 c 0,0.084 0,0.426 0,0.426 v 0.469 0.684 0.854 1.025 1.152 1.322 1.408 1.58 1.621 1.75 1.836 1.92 1.965 2.049 2.09 2.092 2.135 2.135 2.133 2.092 2.135 2.049 2.049 1.963 1.92 1.836 1.75 1.664 1.537 1.451 1.279 1.154 1.023 0.854 0.684 0.512 0.299 c 0.17,0.086 0.319,0.086 0.319,0.086 0.171,0 0.385,0 0.385,0 h 0.234 0.256 0.299 0.299 0.342 0.362 0.363 0.384 0.406 0.405 0.427 0.427 0.427 0.448 0.427 0.427 0.427 0.427 0.405 0.406 0.384 0.384 0.342 0.342 0.319 0.277 0.278 0.234 c 0.192,0 0.362,0 0.362,0 0.149,0 0.257,0 0.257,0 0.085,0 0.213,-0.514 0.213,-0.514 l 0.149,-0.555 0.149,-0.512 0.149,-0.512 0.171,-0.471 0.171,-0.469 0.171,-0.512 0.191,-0.428 0.192,-0.469 0.213,-0.428 0.214,-0.426 0.214,-0.428 0.234,-0.383 0.234,-0.385 0.257,-0.385 0.256,-0.383 0.256,-0.342 0.277,-0.342 0.299,-0.342 0.299,-0.299 0.299,-0.299 0.32,-0.299 0.32,-0.256 0.341,-0.256 0.342,-0.256 0.362,-0.213 0.363,-0.215 0.384,-0.213 0.385,-0.17 0.405,-0.172 0.427,-0.17 0.405,-0.129 0.448,-0.127 0.448,-0.086 0.47,-0.086 0.469,-0.084 0.491,-0.043 0.491,-0.043 0.533,-0.043 h 0.513 0.854 l 0.811,0.086 0.769,0.084 0.726,0.172 0.704,0.17 0.661,0.256 0.619,0.256 0.598,0.299 0.555,0.342 0.534,0.385 0.49,0.426 0.47,0.471 0.448,0.469 0.405,0.512 0.384,0.557 0.363,0.598 0.32,0.596 0.32,0.641 0.277,0.684 0.256,0.684 0.256,0.725 0.214,0.768 0.191,0.77 0.192,0.811 0.149,0.811 0.149,0.854 0.128,0.854 0.106,0.896 0.107,0.939 0.085,0.896 0.064,0.982 0.063,0.938 0.064,0.982 0.042,1.023 0.021,1.025 0.021,1.023 0.021,1.025 0.021,1.066 v 1.068 1.109 0.725 0.77 l -0.021,0.768 -0.021,0.725 -0.021,0.77 -0.042,0.768 -0.043,0.77 -0.043,0.768 -0.063,0.768 -0.086,0.727 -0.085,0.768 -0.107,0.727 -0.106,0.725 -0.149,0.727 -0.149,0.725 -0.171,0.684 -0.191,0.682 -0.214,0.684 -0.234,0.641 -0.256,0.641 -0.277,0.641 -0.299,0.596 -0.342,0.557 -0.342,0.555 -0.384,0.555 -0.405,0.512 -0.448,0.469 -0.47,0.428 -0.491,0.426 -0.555,0.428 -0.555,0.342 -0.598,0.342 -0.64,0.299 -0.684,0.256 -0.704,0.213 -0.747,0.17 -0.789,0.172 -0.833,0.084 -0.875,0.086 h -0.896 -0.598 l -0.576,-0.043 -0.556,-0.043 -0.555,-0.127 -0.512,-0.086 -0.513,-0.17 -0.512,-0.129 -0.47,-0.213 -0.47,-0.213 -0.427,-0.215 -0.448,-0.256 -0.405,-0.256 -0.405,-0.299 -0.385,-0.342 -0.362,-0.299 -0.342,-0.383 -0.341,-0.342 -0.32,-0.385 -0.32,-0.426 -0.277,-0.385 -0.277,-0.426 -0.256,-0.471 -0.257,-0.469 -0.234,-0.471 -0.213,-0.469 -0.192,-0.512 -0.192,-0.514 -0.171,-0.512 -0.171,-0.555 -0.148,-0.512 -0.129,-0.555 -0.106,-0.555 -0.106,-0.598 -0.086,-0.555 -0.085,-0.598 -0.043,-0.598 -0.063,-0.598 -0.021,-0.598 -0.021,-0.598 v -0.598 c -0.213,0 -0.362,0 -0.362,0 -0.171,0 -0.406,0 -0.406,0 h -0.256 -0.277 -0.32 -0.341 -0.363 -0.384 -0.385 -0.427 -0.424 -0.448 -0.448 -0.469 -0.448 -0.47 -0.47 -0.47 -0.448 -0.469 -0.427 -0.448 -0.406 -0.405 -0.384 -0.363 -0.341 -0.299 -0.299 -0.256 -0.214 c -0.192,0 -0.342,0 -0.342,0 -0.191,0 -0.191,1.025 -0.191,1.025 l 0.021,0.98 0.042,1.025 0.043,0.98 0.085,0.982 0.086,0.939 0.128,0.98 0.128,0.939 0.149,0.939 0.192,0.896 0.213,0.896 0.235,0.854 0.256,0.896 0.299,0.811 0.32,0.854 0.362,0.768 0.385,0.77 0.427,0.768 0.469,0.725 0.491,0.727 0.533,0.684 0.576,0.639 0.619,0.641 0.662,0.598 0.704,0.598 0.747,0.512 0.789,0.514 0.854,0.469 0.875,0.469 0.939,0.428 0.981,0.342 1.046,0.342 1.109,0.299 1.131,0.299 1.217,0.213 1.259,0.17 1.323,0.172 1.388,0.084 1.43,0.086 1.516,0.043 1.75,-0.043 1.686,-0.129 1.601,-0.17 1.515,-0.213 1.452,-0.299 1.365,-0.385 1.302,-0.426 1.238,-0.471 1.152,-0.512 1.088,-0.598 1.046,-0.641 0.96,-0.682 0.918,-0.727 0.854,-0.768 0.79,-0.812 0.726,-0.895 0.704,-0.896 0.619,-0.939 0.598,-0.939 0.533,-1.023 0.491,-1.025 0.469,-1.066 0.406,-1.068 0.362,-1.109 0.342,-1.152 0.299,-1.152 0.256,-1.152 0.234,-1.195 0.214,-1.236 0.171,-1.195 0.149,-1.238 0.128,-1.238 0.106,-1.238 0.085,-1.236 0.064,-1.238 0.043,-1.238 0.042,-1.238 0.021,-1.279 v -1.195 l 0.021,-1.238 -0.021,-1.75 -0.042,-1.707 -0.043,-1.621 -0.086,-1.58 -0.106,-1.537 -0.128,-1.492 -0.171,-1.451 -0.171,-1.367 -0.213,-1.365 -0.214,-1.281 -0.256,-1.279 -0.277,-1.195 -0.32,-1.152 -0.32,-1.109 -0.362,-1.068 -0.384,-0.98 -0.406,-0.982 -0.427,-0.939 -0.469,-0.854 -0.491,-0.854 -0.513,-0.811 -0.533,-0.727 -0.576,-0.725 -0.598,-0.641 -0.619,-0.641 -0.64,-0.555 -0.684,-0.555 -0.704,-0.469 -0.726,-0.471 -0.768,-0.426 -0.79,-0.342 -0.811,-0.342 -0.854,-0.299 -0.875,-0.256 -0.917,-0.17 -0.918,-0.172 -0.981,-0.17 -0.981,-0.086 -1.024,-0.043 -1.046,-0.043 -0.47,0.043 h -0.47 l -0.49,0.043 h -0.47 l -0.47,0.043 -0.47,0.086 -0.49,0.043 -0.47,0.084 -0.47,0.086 -0.47,0.086 -0.469,0.084 -0.47,0.129 -0.47,0.127 -0.47,0.129 -0.448,0.129 -0.447,0.17 -0.448,0.129 -0.427,0.17 -0.428,0.17 -0.427,0.172 -0.405,0.213 -0.405,0.213 -0.405,0.172 -0.385,0.256 -0.362,0.213 -0.363,0.213 -0.362,0.258 -0.32,0.256 -0.342,0.256 -0.299,0.256 -0.298,0.256 -0.278,0.299 -0.277,0.256 -0.256,0.299 -0.234,0.299 -0.214,0.342 -0.191,0.299 -0.192,0.299 -0.149,0.342 -0.149,0.34 c 0,-0.213 0,-0.469 0,-0.469 v -0.385 -0.426 -0.512 -0.641 -0.684 -0.725 -0.812 -0.895 -0.896 -0.982 -0.982 -1.023 -1.066 -1.111 -1.066 -1.152 -1.109 -1.109 -1.111 -1.109 -1.066 -1.066 -1.025 -1.023 -0.939 -0.939 -0.854 -0.811 -0.77 -0.682 -0.598 -0.512 -0.471 -0.342 -0.256 c 0.063,-0.256 0.234,-0.256 0.234,-0.256 h 0.277 0.385 0.47 0.576 0.661 0.726 0.811 0.854 0.938 0.981 1.024 1.089 1.109 1.131 1.174 1.174 1.195 1.195 1.216 1.195 1.174 1.152 1.152 1.11 1.066 1.046 0.981 0.918 0.875 0.812 0.726 0.661 0.555 0.491 0.384 0.277 c 0.171,0 0.235,0 0.235,0 0,-0.17 0,-0.299 0,-0.299 0,-0.17 0,-0.383 0,-0.383 v -0.258 -0.256 -0.299 -0.342 -0.34 -0.342 -0.385 -0.385 -0.426 -0.428 -0.426 -0.428 -0.426 -0.428 -0.469 -0.428 -0.426 -0.439 -0.426 -0.385 -0.426 -0.385 -0.342 -0.342 -0.342 -0.256 -0.299 -0.213 c 0,-0.213 0,-0.385 0,-0.385 0,-0.17 0,-0.256 0,-0.256 0.004,-0.081 -45.367,-0.081 -45.367,-0.081 z"
   stroke-miterlimit="10"
   inkscape:connector-curvature="0" />
</g><g
     style="fill:#000000;fill-opacity:1;stroke:none"
     id="LWPOLYLINE_1_">
	
		<path
   style="fill:#000000;fill-opacity:1;stroke:none"
   id="path7"
   d="m 264.47,401.262 c 0,0.17 0,0.299 0,0.299 0,0.17 0,0.383 0,0.383 v 0.213 0.299 0.258 0.299 0.34 0.342 0.385 0.385 0.383 0.428 0.383 0.428 0.426 0.428 0.428 0.426 0.428 0.383 0.428 0.385 0.383 0.385 0.342 0.342 0.297 0.258 0.299 0.213 c 0,0.213 0,0.385 0,0.385 0,0.127 0,0.213 0,0.213 0.192,0.086 0.427,0.086 0.427,0.086 h 0.32 0.384 0.47 0.534 0.597 0.662 0.704 0.769 0.811 0.832 0.896 0.896 0.939 0.96 0.96 0.982 0.981 0.981 0.981 0.961 0.96 0.918 0.918 0.875 0.854 0.811 0.747 0.726 0.641 0.618 0.534 0.448 0.405 0.32 0.213 c 0.192,0.17 0.192,0.639 0.192,0.639 v 0.812 1.066 1.365 1.58 1.834 2.049 2.264 2.475 2.604 2.775 2.902 2.986 3.158 3.201 3.244 3.33 3.371 3.373 3.371 3.373 3.285 3.287 3.201 3.115 3.031 2.902 2.773 2.604 2.434 2.262 2.049 1.836 1.621 1.367 1.066 0.768 0.512 c 0.213,0.172 0.362,0.172 0.362,0.172 0.214,0 0.448,0 0.448,0 h 0.257 0.298 0.32 0.363 0.384 0.405 0.427 0.427 0.47 0.47 0.47 0.47 0.49 0.491 0.49 0.491 0.491 0.469 0.47 0.448 0.448 0.427 0.405 0.385 0.341 0.342 0.299 0.256 0.235 c 0.191,0 0.362,0 0.362,0 0.214,-0.172 0.214,-0.684 0.214,-0.684 v -0.768 -1.066 -1.367 -1.621 -1.836 -2.049 -2.262 -2.434 -2.604 -2.773 -2.902 -3.031 -3.115 -3.201 -3.287 -3.285 -3.373 -3.371 -3.373 -3.377 -3.33 -3.244 -3.201 -3.158 -2.986 -2.902 -2.775 -2.604 -2.475 -2.264 -2.049 -1.834 -1.58 -1.365 -1.066 -0.812 -0.469 c 0.17,-0.17 0.405,-0.17 0.405,-0.17 h 0.299 0.384 0.448 0.513 0.597 0.598 0.726 0.726 0.769 0.811 0.854 0.896 0.896 0.896 0.939 0.981 0.938 0.939 0.939 0.938 0.939 0.896 0.854 0.854 0.811 0.812 0.726 0.683 0.64 0.598 0.513 0.427 0.384 0.299 0.214 c 0.213,-0.172 0.213,-0.299 0.213,-0.299 0,-0.172 0,-0.385 0,-0.385 v -0.213 -0.299 -0.258 -0.297 -0.342 -0.342 -0.385 -0.383 -0.385 -0.428 -0.383 -0.428 -0.426 -0.428 -0.428 -0.426 -0.428 -0.383 -0.428 -0.383 -0.385 -0.385 -0.342 -0.34 -0.299 -0.258 -0.299 -0.213 c 0,-0.213 0,-0.383 0,-0.383 0,-0.129 0,-0.215 0,-0.215 -0.001,-0.078 -64.707,-0.078 -64.707,-0.078 z"
   stroke-miterlimit="10"
   inkscape:connector-curvature="0" />
</g><g
     style="fill:#000000;fill-opacity:1;stroke:none"
     id="LWPOLYLINE_2_">
	
		<path
   style="fill:#000000;fill-opacity:1;stroke:none"
   id="path10"
   d="m 341.383,502.674 c 0.214,0 0.342,0 0.342,0 0.214,0 0.427,0 0.427,0 h 0.256 0.257 0.298 0.342 0.384 0.342 0.427 0.385 0.427 0.427 0.469 0.428 0.469 0.47 0.47 0.427 0.47 0.427 0.427 0.427 0.427 0.384 0.385 0.341 0.342 0.299 0.299 0.256 c 0.214,0 0.384,0 0.384,0 0.171,0 0.257,0 0.257,0 0.085,-0.086 0.085,-0.342 0.085,-0.342 v -0.426 -0.557 -0.682 -0.811 -0.982 -1.025 -1.193 -1.238 -1.365 -1.41 -1.494 -1.535 -1.623 -1.664 -1.664 -1.707 -1.75 -1.707 -1.75 -1.709 -1.707 -1.707 -1.621 -1.623 -1.535 -1.494 -1.453 -1.324 -1.279 -1.152 -1.068 -0.938 -0.812 -0.682 -0.555 -0.428 -0.256 c 0.086,-0.086 0.256,-0.086 0.256,-0.086 h 0.299 0.427 0.513 0.64 0.726 0.769 0.896 0.939 1.023 1.067 1.152 1.152 1.195 1.28 1.238 1.323 1.28 1.323 1.28 1.323 1.28 1.28 1.238 1.237 1.152 1.11 1.109 0.981 0.982 0.854 0.811 0.726 0.598 0.512 0.428 0.299 c 0.213,0 0.256,0 0.256,0 0,0.086 0,0.342 0,0.342 v 0.428 0.555 0.682 0.812 0.938 1.068 1.152 1.279 1.324 1.451 1.494 1.535 1.623 1.621 1.707 1.707 1.709 1.75 1.707 1.75 1.707 1.664 1.664 1.623 1.535 1.494 1.41 1.365 1.238 1.193 1.025 0.982 0.811 0.682 0.557 0.426 0.256 c 0.213,0.086 0.384,0.086 0.384,0.086 0.214,0 0.427,0 0.427,0 h 0.256 0.299 0.342 0.342 0.384 0.427 0.427 0.427 0.47 0.47 0.47 0.469 0.47 0.513 0.469 0.513 0.47 0.469 0.47 0.47 0.427 0.427 0.427 0.384 0.342 0.342 0.299 0.256 0.213 c 0.214,0 0.385,0 0.385,0 0.213,-0.213 0.213,-0.768 0.213,-0.768 v -0.896 -1.195 -1.537 -1.793 -2.049 -2.305 -2.561 -2.775 -2.943 -3.117 -3.244 -3.414 -3.5 -3.627 -3.672 -3.756 -3.756 -3.799 -3.799 -3.799 -3.756 -3.67 -3.586 -3.543 -3.371 -3.287 -3.115 -2.945 -2.732 -2.561 -2.305 -2.092 -1.791 -1.537 -1.195 -0.896 -0.555 c -0.213,-0.17 -0.384,-0.17 -0.384,-0.17 -0.214,0 -0.427,0 -0.427,0 h -0.256 -0.299 -0.342 -0.342 -0.384 -0.427 -0.427 -0.427 -0.47 -0.47 -0.469 -0.47 -0.513 -0.469 -0.513 -0.47 -0.469 -0.47 -0.47 -0.47 -0.427 -0.427 -0.427 -0.384 -0.342 -0.342 -0.299 -0.261 -0.213 c -0.214,0 -0.385,0 -0.385,0 -0.213,0.084 -0.213,0.299 -0.213,0.299 v 0.383 0.555 0.641 0.768 0.896 0.982 1.109 1.195 1.281 1.322 1.408 1.451 1.537 1.537 1.621 1.58 1.621 1.664 1.623 1.621 1.623 1.578 1.58 1.494 1.494 1.408 1.322 1.281 1.195 1.066 1.023 0.896 0.77 0.641 0.512 0.383 0.258 c -0.043,0.084 -0.256,0.084 -0.256,0.084 h -0.299 -0.428 -0.512 -0.598 -0.726 -0.811 -0.854 -0.982 -0.981 -1.109 -1.11 -1.152 -1.237 -1.238 -1.28 -1.28 -1.323 -1.28 -1.323 -1.28 -1.323 -1.238 -1.28 -1.195 -1.152 -1.152 -1.067 -1.023 -0.939 -0.896 -0.769 -0.726 -0.64 -0.513 -0.427 -0.299 c -0.17,0 -0.256,0 -0.256,0 0,-0.084 0,-0.342 0,-0.342 v -0.383 -0.512 -0.641 -0.77 -0.896 -1.018 -1.066 -1.195 -1.281 -1.322 -1.408 -1.494 -1.494 -1.58 -1.578 -1.623 -1.621 -1.623 -1.664 -1.621 -1.58 -1.621 -1.537 -1.537 -1.451 -1.408 -1.322 -1.281 -1.195 -1.109 -0.982 -0.896 -0.768 -0.641 -0.555 -0.383 -0.215 c -0.171,-0.084 -0.342,-0.084 -0.342,-0.084 -0.17,0 -0.384,0 -0.384,0 h -0.256 -0.299 -0.299 -0.342 -0.341 -0.385 -0.384 -0.427 -0.427 -0.427 -0.427 -0.47 -0.427 -0.47 -0.47 -0.469 -0.428 -0.469 -0.427 -0.427 -0.385 -0.427 -0.342 -0.384 -0.342 -0.298 -0.257 -0.256 c -0.213,0 -0.427,0 -0.427,0 -0.128,0 -0.214,0 -0.214,0 -0.123,-0.003 -0.123,101.409 -0.123,101.409 z"
   stroke-miterlimit="10"
   inkscape:connector-curvature="0" />
</g><g
     style="fill:#000000;fill-opacity:1;stroke:none"
     id="LWPOLYLINE_5_">
	
		<path
   style="fill:#000000;fill-opacity:1;stroke:none"
   id="path19"
   d="m 303.823,591.836 c 0.042,-0.127 0.191,-0.383 0.191,-0.383 l 0.235,-0.428 0.319,-0.598 0.406,-0.725 0.49,-0.854 0.534,-1.025 0.64,-1.109 0.684,-1.238 0.726,-1.322 0.768,-1.408 0.854,-1.494 0.854,-1.58 0.938,-1.664 0.939,-1.664 0.938,-1.75 0.981,-1.793 1.024,-1.793 0.982,-1.836 1.024,-1.834 1.024,-1.836 1.023,-1.836 0.982,-1.793 0.981,-1.791 0.981,-1.709 0.939,-1.707 0.896,-1.664 0.896,-1.58 0.812,-1.492 0.769,-1.41 0.768,-1.322 0.684,-1.238 0.597,-1.109 0.556,-1.023 0.469,-0.855 0.428,-0.725 0.341,-0.598 0.214,-0.428 0.128,-0.256 c -0.171,-0.084 -0.342,-0.084 -0.342,-0.084 -0.171,0 -0.427,0 -0.427,0 h -0.299 -0.299 -0.384 -0.385 -0.384 -0.427 -0.47 -0.469 -0.47 -0.513 -0.512 -0.513 -0.512 -0.513 -0.512 -0.555 -0.513 -0.512 -0.47 -0.512 -0.47 -0.427 -0.427 -0.427 -0.385 -0.341 -0.299 -0.299 -0.257 c -0.213,0 -0.384,0 -0.384,0 -0.171,0 -0.213,0 -0.213,0 -0.043,0.043 -0.171,0.256 -0.171,0.256 l -0.171,0.342 -0.256,0.469 -0.299,0.598 -0.385,0.725 -0.427,0.77 -0.47,0.896 -0.512,1.023 -0.598,1.068 -0.598,1.109 -0.64,1.236 -0.684,1.238 -0.683,1.324 -0.769,1.365 -0.726,1.408 -0.768,1.451 -0.769,1.451 -0.769,1.451 -0.811,1.451 -0.769,1.494 -0.79,1.451 -0.768,1.451 -0.769,1.451 -0.747,1.408 -0.726,1.367 -0.704,1.279 -0.683,1.281 -0.641,1.236 -0.598,1.111 -0.576,1.066 -0.533,0.982 -0.47,0.896 -0.427,0.811 -0.384,0.725 -0.32,0.555 -0.235,0.471 -0.191,0.383 c -0.107,0.215 -0.149,0.256 -0.149,0.256 -0.043,-0.041 -0.149,-0.256 -0.149,-0.256 l -0.171,-0.383 -0.234,-0.471 -0.32,-0.555 -0.342,-0.725 -0.427,-0.811 -0.448,-0.896 -0.512,-0.982 -0.534,-1.066 -0.598,-1.111 -0.597,-1.236 -0.662,-1.281 -0.661,-1.279 -0.705,-1.367 -0.726,-1.408 -0.726,-1.451 -0.746,-1.451 -0.747,-1.451 -0.747,-1.494 -0.747,-1.451 -0.747,-1.451 -0.747,-1.451 -0.747,-1.451 -0.704,-1.408 -0.704,-1.365 -0.661,-1.324 -0.662,-1.238 -0.619,-1.236 -0.576,-1.109 -0.555,-1.068 -0.49,-1.023 -0.47,-0.896 -0.405,-0.77 -0.363,-0.725 -0.299,-0.598 -0.234,-0.469 -0.171,-0.342 c -0.106,-0.213 -0.149,-0.256 -0.149,-0.256 -0.106,0 -0.234,0 -0.234,0 -0.192,0 -0.406,0 -0.406,0 h -0.256 -0.32 -0.341 -0.363 -0.405 -0.427 -0.47 -0.47 -0.49 -0.513 -0.533 -0.555 -0.534 -0.555 -0.555 -0.555 -0.555 -0.556 -0.533 -0.533 -0.513 -0.512 -0.47 -0.448 -0.448 -0.405 -0.362 -0.342 -0.299 -0.277 -0.214 c -0.171,0 -0.299,0 -0.299,0 -0.063,0.084 0.086,0.34 0.086,0.34 l 0.234,0.428 0.32,0.598 0.405,0.725 0.491,0.855 0.555,1.023 0.619,1.109 0.661,1.238 0.747,1.322 0.79,1.41 0.832,1.492 0.875,1.58 0.896,1.664 0.938,1.707 0.982,1.709 0.981,1.791 1.003,1.793 1.003,1.836 1.003,1.836 1.024,1.834 1.003,1.836 1.003,1.793 0.981,1.793 0.982,1.75 0.938,1.664 0.896,1.664 0.875,1.58 0.832,1.494 0.79,1.408 0.726,1.322 0.683,1.238 0.619,1.109 0.555,1.025 0.491,0.854 0.405,0.725 0.32,0.598 0.234,0.428 0.149,0.256 c 0,0.213 -0.149,0.469 -0.149,0.469 l -0.256,0.471 -0.32,0.639 -0.427,0.77 -0.491,0.938 -0.576,1.068 -0.64,1.195 -0.704,1.322 -0.747,1.451 -0.832,1.494 -0.854,1.621 -0.896,1.709 -0.939,1.75 -0.96,1.791 -1.003,1.879 -1.024,1.92 -1.024,1.922 -1.046,1.963 -1.046,1.963 -1.046,1.963 -1.046,1.965 -1.024,1.92 -1.024,1.922 -1.003,1.877 -0.96,1.793 -0.939,1.75 -0.896,1.707 -0.875,1.621 -0.812,1.494 -0.747,1.451 -0.704,1.324 -0.64,1.195 -0.576,1.066 -0.491,0.939 -0.427,0.768 -0.32,0.641 -0.256,0.426 -0.149,0.299 c 0.149,0.086 0.32,0.086 0.32,0.086 0.191,0 0.427,0 0.427,0 h 0.277 0.299 0.32 0.362 0.363 0.405 0.427 0.448 0.448 0.469 0.47 0.491 0.49 0.491 0.491 0.49 0.47 0.491 0.469 0.448 0.448 0.406 0.405 0.384 0.363 0.319 0.299 0.277 0.235 c 0.192,0 0.341,0 0.341,0 0.214,0 0.257,-0.086 0.257,-0.086 l 0.106,-0.213 0.192,-0.385 0.277,-0.512 0.32,-0.682 0.384,-0.77 0.448,-0.896 0.49,-0.98 0.556,-1.109 0.598,-1.195 0.64,-1.238 0.662,-1.365 0.704,-1.41 0.726,-1.451 0.768,-1.535 0.769,-1.537 0.812,-1.58 0.789,-1.621 0.832,-1.621 0.812,-1.666 0.811,-1.621 0.833,-1.623 0.789,-1.621 0.812,-1.58 0.768,-1.578 0.769,-1.494 0.726,-1.494 0.704,-1.365 0.662,-1.365 0.64,-1.281 0.598,-1.195 0.555,-1.066 0.491,-1.025 0.448,-0.854 0.384,-0.811 0.32,-0.641 0.277,-0.512 0.192,-0.385 0.106,-0.256 c 0.085,0 0.214,0.256 0.214,0.256 l 0.213,0.385 0.277,0.512 0.363,0.641 0.405,0.811 0.491,0.854 0.533,1.025 0.598,1.066 0.64,1.195 0.684,1.281 0.726,1.365 0.747,1.365 0.811,1.494 0.811,1.494 0.833,1.578 0.875,1.58 0.854,1.621 0.896,1.623 0.854,1.621 0.896,1.666 0.896,1.621 0.854,1.621 0.854,1.58 0.854,1.537 0.811,1.535 0.812,1.451 0.768,1.41 0.684,1.365 0.726,1.238 0.64,1.195 0.555,1.109 0.556,0.98 0.469,0.896 0.428,0.77 0.341,0.682 0.299,0.512 0.214,0.385 0.128,0.213 c 0.171,0.086 0.299,0.086 0.299,0.086 0.171,0 0.384,0 0.384,0 h 0.256 0.299 0.342 0.384 0.385 0.427 0.469 0.47 0.513 0.512 0.555 0.513 0.555 0.555 0.555 0.556 0.555 0.555 0.555 0.513 0.512 0.513 0.469 0.47 0.427 0.385 0.384 0.342 0.298 0.257 0.213 c 0.214,0 0.342,0 0.342,0 0.092,-10e-4 -29.614,-52.415 -29.614,-52.415 z"
   stroke-miterlimit="10"
   inkscape:connector-curvature="0" />
</g><g
     style="fill:#000000;fill-opacity:1;stroke:none"
     id="LWPOLYLINE_6_">
	
		<path
   style="fill:#000000;fill-opacity:1;stroke:none"
   id="path22"
   d="m 358.029,542.881 c -0.214,0 -0.342,0 -0.342,0 -0.213,0 -0.427,0 -0.427,0 h -0.256 -0.256 -0.299 -0.342 -0.384 -0.342 -0.427 -0.384 -0.427 -0.427 -0.47 -0.427 -0.47 -0.47 -0.47 -0.427 -0.469 -0.428 -0.427 -0.427 -0.427 -0.384 -0.384 -0.336 -0.342 -0.299 -0.299 -0.256 c -0.213,0 -0.384,0 -0.384,0 -0.171,0 -0.256,0 -0.256,0 -0.086,0.17 -0.086,0.725 -0.086,0.725 v 0.896 1.195 1.537 1.793 2.047 2.348 2.52 2.773 2.945 3.115 3.244 3.414 3.5 3.629 3.67 3.756 3.758 3.797 3.842 3.756 3.756 3.672 3.627 3.5 3.416 3.242 3.117 2.945 2.773 2.518 2.348 2.049 1.793 1.537 1.195 0.896 0.555 c 0.171,0.17 0.342,0.17 0.342,0.17 0.171,0 0.384,0 0.384,0 h 0.256 0.299 0.299 0.342 0.342 0.384 0.384 0.427 0.427 0.427 0.428 0.469 0.427 0.47 0.47 0.47 0.427 0.47 0.427 0.427 0.384 0.427 0.342 0.384 0.342 0.299 0.256 0.256 c 0.214,0 0.427,0 0.427,0 0.128,0 0.214,0 0.214,0 0.122,0 0.122,-101.369 0.122,-101.369 z"
   stroke-miterlimit="10"
   inkscape:connector-curvature="0" />
</g><g
     style="fill:#000000;fill-opacity:1;stroke:none"
     id="LWPOLYLINE_7_">
	
		<path
   style="fill:#000000;fill-opacity:1;stroke:none"
   id="path25"
   d="m 375.486,613.689 -0.043,0.727 -0.085,0.811 -0.043,0.811 -0.043,0.854 v 0.939 0.939 0.98 l 0.043,0.982 0.043,1.023 0.085,1.025 0.128,1.066 0.171,1.068 0.171,1.066 0.213,1.066 0.257,1.068 0.341,1.109 0.342,1.066 0.427,1.066 0.427,1.025 0.513,1.066 0.597,1.025 0.598,0.98 0.726,0.982 0.726,0.939 0.854,0.939 0.896,0.895 0.982,0.812 1.024,0.811 1.109,0.768 1.237,0.727 1.281,0.641 1.365,0.596 1.494,0.557 1.536,0.469 1.665,0.426 1.75,0.342 1.878,0.299 1.964,0.172 2.048,0.127 2.177,0.043 h 1.195 l 1.152,-0.043 1.152,-0.084 1.195,-0.086 1.152,-0.129 1.11,-0.127 1.152,-0.215 1.109,-0.213 1.109,-0.213 1.11,-0.299 1.066,-0.299 1.024,-0.342 1.067,-0.385 1.024,-0.426 0.981,-0.428 0.982,-0.512 0.938,-0.512 0.896,-0.555 0.896,-0.598 0.896,-0.641 0.811,-0.684 0.811,-0.725 0.769,-0.727 0.769,-0.811 0.683,-0.854 0.683,-0.854 0.641,-0.939 0.598,-0.98 0.555,-1.025 0.513,-1.023 0.469,-1.109 0.427,-1.152 0.385,-1.195 0.299,-1.238 0.299,-1.324 0.256,-1.322 0.171,-1.408 0.128,-1.451 0.085,-1.494 0.043,-1.537 -0.085,-2.348 -0.257,-2.262 -0.384,-2.092 -0.512,-2.006 -0.684,-1.877 -0.811,-1.75 -0.896,-1.707 -1.024,-1.58 -1.109,-1.494 -1.195,-1.408 -1.323,-1.324 -1.366,-1.279 -1.408,-1.195 -1.494,-1.152 -1.579,-1.066 -1.579,-1.025 -1.622,-1.023 -1.622,-0.939 -1.664,-0.939 -1.665,-0.939 -1.707,-0.896 -1.665,-0.854 -1.621,-0.896 -1.622,-0.854 -1.579,-0.896 -1.537,-0.895 -1.494,-0.896 -1.451,-0.939 -1.365,-0.939 -1.28,-1.023 -1.238,-1.025 -1.109,-1.066 -1.024,-1.152 -0.896,-1.152 -0.811,-1.281 -0.641,-1.322 -0.555,-1.367 -0.385,-1.494 -0.256,-1.578 -0.085,-1.623 0.042,-0.811 0.043,-0.725 0.043,-0.727 0.128,-0.725 0.128,-0.684 0.128,-0.641 0.171,-0.639 0.214,-0.641 0.213,-0.598 0.256,-0.555 0.257,-0.555 0.299,-0.557 0.298,-0.512 0.342,-0.512 0.342,-0.469 0.384,-0.428 0.384,-0.426 0.428,-0.428 0.384,-0.385 0.47,-0.383 0.427,-0.342 0.47,-0.342 0.469,-0.299 0.513,-0.299 0.47,-0.256 0.512,-0.256 0.555,-0.256 0.513,-0.215 0.555,-0.17 0.555,-0.213 0.555,-0.172 0.555,-0.127 0.556,-0.129 0.597,-0.127 0.556,-0.086 0.598,-0.043 0.597,-0.086 0.556,-0.041 h 0.598 l 0.597,-0.043 0.854,0.043 0.811,0.041 0.769,0.043 0.726,0.129 0.726,0.127 0.726,0.129 0.64,0.213 0.641,0.213 0.641,0.215 0.597,0.256 0.556,0.299 0.555,0.299 0.512,0.342 0.47,0.34 0.47,0.385 0.47,0.385 0.384,0.426 0.427,0.428 0.384,0.469 0.342,0.471 0.342,0.512 0.299,0.512 0.299,0.555 0.256,0.555 0.256,0.555 0.256,0.598 0.214,0.641 0.171,0.598 0.17,0.641 0.171,0.684 0.171,0.639 0.086,0.684 0.128,0.727 0.085,0.725 0.085,0.684 0.086,0.768 0.043,0.727 v 0.768 l 0.042,0.768 v 0.811 c 0.214,0 0.385,0 0.385,0 0.17,0 0.427,0 0.427,0 h 0.256 0.299 0.342 0.341 0.385 0.384 0.427 0.47 0.427 0.47 0.469 0.513 0.47 0.512 0.47 0.512 0.47 0.47 0.47 0.469 0.427 0.428 0.384 0.384 0.385 0.299 0.299 0.298 0.214 c 0.214,0 0.342,0 0.342,0 0.213,0 0.256,-1.492 0.256,-1.492 v -1.451 l -0.043,-1.41 -0.043,-1.365 -0.128,-1.322 -0.17,-1.281 -0.214,-1.238 -0.256,-1.195 -0.256,-1.152 -0.342,-1.109 -0.342,-1.066 -0.384,-1.025 -0.47,-1.023 -0.47,-0.939 -0.512,-0.896 -0.513,-0.896 -0.598,-0.854 -0.597,-0.768 -0.684,-0.768 -0.683,-0.727 -0.726,-0.684 -0.726,-0.639 -0.811,-0.641 -0.812,-0.555 -0.854,-0.555 -0.896,-0.471 -0.938,-0.469 -0.939,-0.428 -0.981,-0.426 -1.024,-0.342 -1.024,-0.299 -1.067,-0.299 -1.109,-0.256 -1.152,-0.213 -1.152,-0.215 -1.195,-0.127 -1.195,-0.129 -1.237,-0.084 -1.281,-0.043 h -1.322 -1.238 l -1.195,0.043 -1.237,0.084 -1.195,0.129 -1.152,0.127 -1.152,0.215 -1.152,0.213 -1.11,0.213 -1.109,0.299 -1.109,0.299 -1.024,0.385 -1.067,0.383 -0.981,0.385 -0.981,0.471 -0.982,0.469 -0.938,0.512 -0.896,0.555 -0.896,0.598 -0.811,0.598 -0.854,0.684 -0.769,0.682 -0.769,0.727 -0.726,0.768 -0.683,0.77 -0.641,0.854 -0.64,0.854 -0.556,0.896 -0.555,0.938 -0.512,0.939 -0.47,1.025 -0.427,1.023 -0.384,1.068 -0.342,1.109 -0.299,1.152 -0.256,1.195 -0.214,1.195 -0.171,1.279 -0.128,1.281 -0.042,1.322 -0.043,1.365 0.085,2.221 0.256,2.092 0.385,2.006 0.512,1.92 0.684,1.793 0.811,1.664 0.896,1.623 1.024,1.494 1.109,1.451 1.195,1.322 1.323,1.281 1.365,1.236 1.409,1.152 1.494,1.111 1.579,1.066 1.579,1.023 1.622,0.982 1.622,0.939 1.664,0.896 1.665,0.896 1.664,0.896 1.665,0.854 1.664,0.854 1.622,0.854 1.579,0.896 1.537,0.854 1.493,0.896 1.451,0.896 1.366,0.98 1.28,0.939 1.238,1.023 1.109,1.068 1.024,1.109 0.896,1.152 0.811,1.195 0.641,1.279 0.555,1.367 0.384,1.408 0.257,1.537 0.085,1.578 -0.043,0.896 -0.042,0.896 -0.043,0.811 -0.128,0.811 -0.128,0.812 -0.128,0.768 -0.214,0.727 -0.171,0.682 -0.256,0.684 -0.256,0.684 -0.256,0.596 -0.299,0.598 -0.342,0.598 -0.342,0.555 -0.384,0.514 -0.384,0.512 -0.385,0.469 -0.427,0.428 -0.47,0.469 -0.469,0.385 -0.47,0.385 -0.513,0.34 -0.531,0.339 -0.513,0.342 -0.555,0.299 -0.598,0.256 -0.555,0.256 -0.598,0.215 -0.598,0.213 -0.64,0.213 -0.641,0.172 -0.64,0.127 -0.641,0.129 -0.683,0.127 -0.684,0.086 -0.683,0.086 -0.683,0.041 -0.726,0.043 -0.684,0.043 h -0.726 -0.597 l -0.598,-0.043 -0.598,-0.043 -0.598,-0.041 -0.598,-0.086 -0.598,-0.086 -0.555,-0.127 -0.598,-0.129 -0.598,-0.17 -0.598,-0.172 -0.555,-0.213 -0.555,-0.213 -0.555,-0.256 -0.555,-0.258 -0.556,-0.299 -0.555,-0.297 -0.512,-0.342 -0.513,-0.342 -0.47,-0.385 -0.512,-0.426 -0.47,-0.428 -0.427,-0.469 -0.427,-0.514 -0.427,-0.512 -0.427,-0.555 -0.384,-0.555 -0.342,-0.641 -0.342,-0.641 -0.299,-0.639 -0.299,-0.727 -0.299,-0.725 -0.213,-0.727 -0.256,-0.811 -0.171,-0.811 -0.171,-0.854 -0.128,-0.896 -0.128,-0.939 -0.086,-0.982 -0.042,-0.98 v -1.025 c 0,-0.213 0,-0.256 0,-0.256 0,-0.213 0,-0.299 0,-0.299 0,-0.17 0,-0.256 0,-0.256 0,-0.213 0,-0.299 0,-0.299 0,-0.213 0,-0.299 0,-0.299 0,-0.213 0,-0.299 0,-0.299 0,-0.17 0,-0.256 0,-0.256 0,-0.17 0,-0.256 0,-0.256 0,-0.213 0,-0.256 0,-0.256 0.015,-0.124 -12.235,-0.124 -12.235,-0.124 z"
   stroke-miterlimit="10"
   inkscape:connector-curvature="0" />
</g><g
     style="fill:#000000;fill-opacity:1;stroke:none"
     id="LWPOLYLINE_8_">
	
		<path
   style="fill:#000000;fill-opacity:1;stroke:none"
   id="path28"
   d="m 254.866,274.516 0.171,2.135 0.234,2.092 0.299,2.027 0.385,2.006 0.448,1.92 0.512,1.9 0.576,1.834 0.641,1.793 0.704,1.729 0.747,1.688 0.832,1.643 0.875,1.578 0.96,1.537 0.982,1.473 1.066,1.43 1.11,1.367 1.174,1.322 1.216,1.26 1.26,1.215 1.323,1.152 1.365,1.111 1.408,1.045 1.473,0.982 1.516,0.959 1.536,0.875 1.601,0.834 1.644,0.768 1.686,0.725 1.708,0.662 1.771,0.598 1.792,0.555 1.836,0.49 1.878,0.428 1.899,0.385 1.92,0.32 1.985,0.277 1.984,0.191 2.027,0.148 2.07,0.086 2.092,0.043 2.731,-0.064 2.646,-0.127 2.646,-0.236 2.562,-0.318 2.518,-0.428 2.476,-0.49 2.434,-0.576 2.348,-0.662 2.305,-0.768 2.219,-0.812 2.22,-0.916 2.092,-0.982 2.091,-1.066 2.007,-1.131 1.92,-1.195 1.879,-1.281 1.792,-1.344 1.75,-1.41 1.665,-1.492 1.622,-1.537 1.536,-1.602 1.451,-1.664 1.408,-1.729 1.323,-1.771 1.28,-1.836 1.153,-1.898 1.109,-1.941 1.024,-2.006 0.981,-2.027 0.854,-2.092 0.812,-2.156 0.683,-2.176 0.641,-2.221 0.555,-2.262 0.47,-2.305 0.427,-2.348 0.299,-2.369 0.213,-2.412 0.128,-2.453 0.043,-2.477 -0.043,-2.219 -0.085,-2.197 -0.171,-2.199 -0.214,-2.176 -0.256,-2.135 -0.341,-2.135 -0.428,-2.09 -0.469,-2.07 -0.513,-2.049 -0.598,-2.006 -0.683,-1.965 -0.726,-1.941 -0.769,-1.898 -0.854,-1.857 -0.896,-1.814 -0.981,-1.771 -1.067,-1.729 -1.066,-1.664 -1.195,-1.623 -1.238,-1.578 -1.28,-1.516 -1.365,-1.451 -1.409,-1.387 -1.493,-1.346 -1.537,-1.258 -1.622,-1.195 -1.664,-1.131 -1.75,-1.068 -1.793,-1.002 -1.878,-0.896 -1.963,-0.854 -2.007,-0.746 -2.049,-0.684 -2.134,-0.598 -2.22,-0.512 -2.262,-0.406 -2.305,-0.342 -2.391,-0.234 -2.476,-0.148 -2.518,-0.043 -1.494,0.021 -1.451,0.043 -1.451,0.084 -1.366,0.129 -1.365,0.148 -1.323,0.172 -1.302,0.213 -1.281,0.234 -1.237,0.256 -1.195,0.299 -1.174,0.299 -1.131,0.342 -1.131,0.342 -1.067,0.385 -1.046,0.383 -1.024,0.428 -0.981,0.426 -0.96,0.449 -0.939,0.447 -0.896,0.471 -0.875,0.469 -0.832,0.49 -0.811,0.514 -0.79,0.512 -0.747,0.512 -0.726,0.512 -0.704,0.533 -0.661,0.514 -0.641,0.533 -0.619,0.533 -0.576,0.533 -0.555,0.512 -0.533,0.535 -0.513,0.512 -0.47,0.512 -0.448,0.512 -0.427,0.492 -0.384,0.49 -0.362,0.469 -0.342,0.471 c 0,-0.107 0.021,-0.406 0.021,-0.406 l 0.021,-0.469 0.042,-0.662 0.064,-0.832 0.063,-0.982 0.064,-1.109 0.085,-1.26 0.086,-1.387 0.085,-1.494 0.107,-1.6 0.106,-1.686 0.106,-1.793 0.128,-1.836 0.128,-1.898 0.107,-1.965 0.128,-2.006 0.128,-2.027 0.128,-2.049 0.149,-2.07 0.128,-2.07 0.128,-2.049 0.128,-2.027 0.128,-2.006 0.128,-1.963 0.107,-1.898 0.128,-1.857 0.106,-1.771 0.106,-1.686 0.107,-1.602 0.085,-1.492 0.106,-1.389 0.064,-1.258 0.085,-1.133 0.064,-0.98 0.043,-0.811 0.042,-0.662 0.021,-0.49 0.021,-0.299 c 0.149,-0.086 0.555,-0.086 0.555,-0.086 h 0.641 0.896 1.109 1.323 1.515 1.708 1.856 2.027 2.155 2.283 2.391 2.497 2.561 2.646 2.689 2.774 2.731 2.816 2.774 2.774 2.731 2.689 2.646 2.604 2.476 2.39 2.306 2.134 2.006 1.878 1.707 1.494 1.323 1.109 0.896 0.641 0.427 c 0.128,-0.15 0.128,-0.32 0.128,-0.32 v -0.234 -0.277 -0.342 -0.406 -0.426 -0.49 -0.514 -0.555 -0.598 -0.619 -0.639 -0.684 -0.684 -0.682 -0.727 -0.703 -0.727 -0.73 -0.705 -0.727 -0.682 -0.684 -0.684 -0.639 -0.619 -0.598 -0.555 -0.512 -0.492 -0.426 -0.406 -0.342 -0.277 -0.234 c 0,-0.17 0,-0.277 0,-0.277 C 356.962,146 356.45,146 356.45,146 h -0.854 -1.11 -1.451 -1.707 -1.921 -2.177 -2.39 -2.604 -2.773 -2.903 -3.072 -3.201 -3.287 -3.414 -3.458 -3.499 -3.543 -3.586 -3.564 -3.563 -3.521 -3.457 -3.395 -3.308 -3.18 -3.073 -2.924 -2.774 -2.582 -2.391 -2.177 -1.942 -1.707 -1.43 -1.131 -0.833 -0.512 c -0.192,0.191 -0.214,0.748 -0.214,0.748 l -0.042,0.875 -0.043,1.193 -0.064,1.516 -0.085,1.793 -0.085,2.049 -0.107,2.283 -0.106,2.539 -0.106,2.711 -0.128,2.924 -0.149,3.094 -0.128,3.244 -0.149,3.373 -0.149,3.479 -0.171,3.584 -0.149,3.65 -0.171,3.713 -0.149,3.734 -0.171,3.777 -0.171,3.756 -0.149,3.756 -0.17,3.715 -0.149,3.648 -0.149,3.564 -0.171,3.5 -0.128,3.371 -0.149,3.223 -0.128,3.096 -0.129,2.922 -0.128,2.732 -0.106,2.518 -0.106,2.307 -0.086,2.047 -0.063,1.771 -0.086,1.516 -0.042,1.195 -0.043,0.896 -0.021,0.533 c 0.149,0.191 0.342,0.191 0.342,0.191 h 0.256 0.342 0.384 0.448 0.491 0.555 0.598 0.618 0.684 0.704 0.726 0.769 0.768 0.79 0.811 0.812 0.832 0.811 0.812 0.811 0.79 0.789 0.747 0.747 0.704 0.662 0.64 0.576 0.556 0.512 0.417 0.405 0.32 0.256 c 0.192,0 0.32,0 0.32,0 0.043,0 0.385,-1.109 0.385,-1.109 l 0.362,-1.066 0.384,-1.045 0.406,-1.025 0.427,-1.002 0.448,-0.961 0.469,-0.939 0.513,-0.918 0.512,-0.896 0.534,-0.854 0.576,-0.832 0.576,-0.811 0.619,-0.789 0.618,-0.748 0.662,-0.725 0.683,-0.705 0.683,-0.662 0.726,-0.639 0.726,-0.619 0.769,-0.598 0.769,-0.555 0.811,-0.535 0.832,-0.49 0.833,-0.49 0.875,-0.449 0.875,-0.404 0.917,-0.406 0.918,-0.363 0.96,-0.318 0.961,-0.32 0.981,-0.277 1.024,-0.236 1.024,-0.234 1.046,-0.17 1.067,-0.172 1.109,-0.127 1.088,-0.107 1.152,-0.064 1.153,-0.041 1.152,-0.021 1.493,0.021 1.451,0.062 1.451,0.129 1.409,0.17 1.365,0.215 1.323,0.277 1.323,0.32 1.28,0.361 1.238,0.406 1.195,0.447 1.194,0.514 1.152,0.533 1.11,0.598 1.066,0.639 1.024,0.705 0.982,0.727 0.981,0.768 0.938,0.832 0.896,0.875 0.854,0.896 0.812,0.961 0.769,1.002 0.726,1.047 0.726,1.088 0.64,1.131 0.641,1.174 0.598,1.217 0.512,1.258 0.513,1.303 0.469,1.344 0.427,1.389 0.342,1.43 0.342,1.451 0.299,1.514 0.256,1.559 0.171,1.58 0.171,1.643 0.128,1.664 0.042,1.707 0.043,1.75 -0.043,1.516 -0.042,1.494 -0.086,1.473 -0.17,1.494 -0.171,1.451 -0.214,1.451 -0.256,1.43 -0.299,1.408 -0.342,1.408 -0.384,1.367 -0.427,1.365 -0.47,1.322 -0.512,1.303 -0.556,1.279 -0.597,1.238 -0.641,1.238 -0.683,1.174 -0.726,1.152 -0.769,1.131 -0.811,1.088 -0.854,1.047 -0.896,1.002 -0.982,0.961 -0.981,0.918 -1.024,0.896 -1.067,0.832 -1.152,0.789 -1.152,0.727 -1.237,0.682 -1.28,0.641 -1.323,0.598 -1.323,0.512 -1.409,0.492 -1.451,0.404 -1.536,0.363 -1.536,0.277 -1.622,0.234 -1.622,0.172 -1.707,0.105 -1.75,0.021 h -0.896 l -0.939,-0.043 -0.938,-0.062 -0.961,-0.107 -0.938,-0.107 -0.939,-0.148 -0.96,-0.193 -0.939,-0.191 -0.938,-0.234 -0.961,-0.277 -0.917,-0.277 -0.939,-0.32 -0.918,-0.363 -0.917,-0.383 -0.896,-0.406 -0.875,-0.449 -0.875,-0.49 -0.854,-0.512 -0.812,-0.533 -0.832,-0.576 -0.789,-0.598 -0.769,-0.641 -0.747,-0.684 -0.704,-0.703 -0.704,-0.748 -0.662,-0.768 -0.619,-0.811 -0.618,-0.832 -0.555,-0.896 -0.534,-0.918 -0.49,-0.939 -0.448,-1.002 -0.427,-1.025 -0.363,-1.045 -0.342,-1.111 -0.277,-1.131 -0.234,-1.174 -0.192,-1.215 -0.149,-1.26 -0.085,-1.281 h -25.357 z"
   stroke-miterlimit="10"
   inkscape:connector-curvature="0" />
</g></g></svg>