<?xml version="1.0" encoding="UTF-8" standalone="no"?>
<!-- Generator: Adobe Illustrator 16.0.1, SVG Export Plug-In . SVG Version: 6.00 Build 0)  -->

<svg
   xmlns:dc="http://purl.org/dc/elements/1.1/"
   xmlns:cc="http://creativecommons.org/ns#"
   xmlns:rdf="http://www.w3.org/1999/02/22-rdf-syntax-ns#"
   xmlns:svg="http://www.w3.org/2000/svg"
   xmlns="http://www.w3.org/2000/svg"
   xmlns:sodipodi="http://sodipodi.sourceforge.net/DTD/sodipodi-0.dtd"
   xmlns:inkscape="http://www.inkscape.org/namespaces/inkscape"
   version="1.0"
   id="_x31_"
   x="0px"
   y="0px"
   width="612px"
   height="792px"
   viewBox="0 0 612 792"
   enable-background="new 0 0 612 792"
   xml:space="preserve"
   inkscape:version="0.48.2 r9819"
   sodipodi:docname="7031.svg"><metadata
   id="metadata40"><rdf:RDF><cc:Work
       rdf:about=""><dc:format>image/svg+xml</dc:format><dc:type
         rdf:resource="http://purl.org/dc/dcmitype/StillImage" /></cc:Work></rdf:RDF></metadata><defs
   id="defs38" /><sodipodi:namedview
   pagecolor="#ffffff"
   bordercolor="#666666"
   borderopacity="1"
   objecttolerance="10"
   gridtolerance="10"
   guidetolerance="10"
   inkscape:pageopacity="0"
   inkscape:pageshadow="2"
   inkscape:window-width="1920"
   inkscape:window-height="1068"
   id="namedview36"
   showgrid="false"
   inkscape:zoom="1.1919192"
   inkscape:cx="128.58359"
   inkscape:cy="453.27094"
   inkscape:window-x="0"
   inkscape:window-y="0"
   inkscape:window-maximized="1"
   inkscape:current-layer="_x31_" />
<g
   id="LWPOLYLINE_4_"
   style="stroke:none;fill:#000000;fill-opacity:1">
	
		<path
   style="stroke:none;fill:#000000;fill-opacity:1"
   d="M 209.3125 543.59375 C 209.2025 543.59675 177.9375 644.25 177.9375 644.25 L 178.34375 644.25 L 178.75 644.25 L 179 644.25 L 179.3125 644.25 L 179.65625 644.25 L 179.96875 644.25 L 180.375 644.25 L 180.78125 644.25 L 181.1875 644.25 L 181.625 644.25 L 182.09375 644.25 L 182.5625 644.25 L 183 644.25 L 183.5 644.25 L 184 644.25 L 184.46875 644.25 L 184.96875 644.25 L 185.4375 644.25 L 185.90625 644.25 L 186.375 644.25 L 186.84375 644.25 L 187.3125 644.25 L 187.75 644.25 L 188.15625 644.25 L 188.5625 644.25 L 188.9375 644.25 L 189.3125 644.25 L 189.625 644.25 L 189.90625 644.25 L 190.1875 644.25 L 190.40625 644.25 L 190.78125 644.25 C 190.99325 644.25 191 644.21875 191 644.21875 C 191.043 644.09175 191.09375 643.875 191.09375 643.875 L 191.1875 643.59375 L 191.3125 643.25 L 191.4375 642.78125 L 191.625 642.3125 L 191.78125 641.75 L 191.96875 641.125 L 192.1875 640.5 L 192.40625 639.78125 L 192.65625 639 L 192.90625 638.25 L 193.1875 637.4375 L 193.4375 636.59375 L 193.71875 635.6875 L 194 634.84375 L 194.3125 633.90625 L 194.59375 633.03125 L 194.875 632.125 L 195.1875 631.1875 L 195.46875 630.3125 L 195.75 629.4375 L 196.03125 628.53125 L 196.3125 627.625 L 196.59375 626.78125 L 196.84375 626 L 197.09375 625.21875 L 197.34375 624.46875 L 197.5625 623.75 L 197.78125 623.09375 L 197.96875 622.46875 L 198.15625 621.90625 L 198.3125 621.4375 L 198.46875 620.96875 L 198.5625 620.65625 L 198.65625 620.34375 C 198.71925 620.13275 198.78125 620 198.78125 620 C 198.86625 619.957 199.0625 619.96875 199.0625 619.96875 L 199.375 619.96875 L 199.84375 619.96875 L 200.375 619.96875 L 201.03125 619.96875 L 201.8125 619.96875 L 202.6875 619.96875 L 203.59375 619.96875 L 204.625 619.96875 L 205.71875 619.96875 L 206.84375 619.96875 L 208.0625 619.96875 L 209.3125 619.96875 L 210.59375 619.96875 L 211.90625 619.96875 L 213.28125 619.96875 L 214.65625 619.96875 L 216.03125 619.96875 L 217.4375 619.96875 L 218.84375 619.96875 L 220.25 619.96875 L 221.625 619.96875 L 222.96875 619.96875 L 224.28125 619.96875 L 225.59375 619.96875 L 226.84375 619.96875 L 228.03125 619.96875 L 229.1875 619.96875 L 230.28125 619.96875 L 231.28125 619.96875 L 232.25 619.96875 L 233.09375 619.96875 L 233.84375 619.96875 L 234.5 619.96875 L 235.0625 619.96875 L 235.5 619.96875 L 235.84375 619.96875 L 236.125 619.96875 C 236.168 620.13875 236.21875 620.34375 236.21875 620.34375 L 236.3125 620.65625 L 236.40625 620.96875 L 236.53125 621.4375 L 236.65625 621.90625 L 236.84375 622.46875 L 237 623.09375 L 237.1875 623.75 L 237.375 624.46875 L 237.625 625.21875 L 237.84375 626 L 238.0625 626.78125 L 238.28125 627.625 L 238.5625 628.53125 L 238.8125 629.4375 L 239.0625 630.3125 L 239.3125 631.1875 L 239.59375 632.125 L 239.84375 633.03125 L 240.09375 633.90625 L 240.34375 634.84375 L 240.59375 635.6875 L 240.875 636.59375 L 241.09375 637.4375 L 241.3125 638.25 L 241.5625 639 L 241.78125 639.78125 L 241.96875 640.5 L 242.15625 641.125 L 242.3125 641.75 L 242.5 642.3125 L 242.625 642.78125 L 242.75 643.25 L 242.84375 643.59375 L 242.9375 643.875 C 243.0015 644.088 243.03125 644.21875 243.03125 644.21875 C 243.13625 644.25975 243.28125 644.25 243.28125 644.25 L 243.6875 644.25 L 243.9375 644.25 L 244.25 644.25 L 244.59375 644.25 L 244.9375 644.25 L 245.34375 644.25 L 245.78125 644.25 L 246.25 644.25 L 246.71875 644.25 L 247.21875 644.25 L 247.71875 644.25 L 248.25 644.25 L 248.78125 644.25 L 249.3125 644.25 L 249.875 644.25 L 250.4375 644.25 L 251 644.25 L 251.53125 644.25 L 252.0625 644.25 L 252.625 644.25 L 253.125 644.25 L 253.65625 644.25 L 254.15625 644.25 L 254.625 644.25 L 255.0625 644.25 L 255.5 644.25 L 255.90625 644.25 L 256.25 644.25 L 256.59375 644.25 L 256.90625 644.25 L 257.1875 644.25 L 257.375 644.25 L 257.71875 644.25 C 257.76075 644.082 257.5625 643.53125 257.5625 643.53125 L 257.28125 642.65625 L 256.90625 641.46875 L 256.4375 639.9375 L 255.875 638.15625 L 255.21875 636.09375 L 254.46875 633.78125 L 253.65625 631.28125 L 252.78125 628.53125 L 251.84375 625.625 L 250.84375 622.53125 L 249.84375 619.28125 L 248.75 615.90625 L 247.625 612.4375 L 246.5 608.8125 L 245.3125 605.1875 L 244.125 601.4375 L 242.9375 597.6875 L 241.75 593.90625 L 240.53125 590.125 L 239.34375 586.40625 L 238.15625 582.6875 L 237 579.03125 L 235.84375 575.4375 L 234.71875 571.9375 L 233.65625 568.5625 L 232.625 565.34375 L 231.625 562.25 L 230.6875 559.3125 L 229.84375 556.5625 L 229.03125 554.0625 L 228.28125 551.71875 L 227.625 549.6875 L 227.0625 547.90625 L 226.59375 546.375 L 226.21875 545.1875 L 225.90625 544.3125 L 225.75 543.75 C 225.58 543.582 225.4375 543.59375 225.4375 543.59375 L 224.96875 543.59375 L 224.6875 543.59375 L 224.34375 543.59375 L 223.96875 543.59375 L 223.5625 543.59375 L 223.125 543.59375 L 222.625 543.59375 L 222.125 543.59375 L 221.59375 543.59375 L 221.03125 543.59375 L 220.46875 543.59375 L 219.875 543.59375 L 219.28125 543.59375 L 218.65625 543.59375 L 218.0625 543.59375 L 217.4375 543.59375 L 216.8125 543.59375 L 216.21875 543.59375 L 215.59375 543.59375 L 215 543.59375 L 214.40625 543.59375 L 213.84375 543.59375 L 213.28125 543.59375 L 212.75 543.59375 L 212.25 543.59375 L 211.78125 543.59375 L 211.3125 543.59375 L 210.90625 543.59375 L 210.53125 543.59375 L 210.1875 543.59375 L 209.875 543.59375 L 209.65625 543.59375 L 209.3125 543.59375 z M 216.96875 555.84375 C 217.02275 555.71275 232.65625 608.6875 232.65625 608.6875 L 232.40625 608.6875 L 232.125 608.6875 L 231.78125 608.6875 L 231.3125 608.6875 L 230.75 608.6875 L 230.09375 608.6875 L 229.40625 608.6875 L 228.59375 608.6875 L 227.75 608.6875 L 226.875 608.6875 L 225.875 608.6875 L 224.90625 608.6875 L 223.84375 608.6875 L 222.75 608.6875 L 221.65625 608.6875 L 220.5 608.6875 L 219.34375 608.6875 L 218.1875 608.6875 L 217.03125 608.6875 L 215.84375 608.6875 L 214.6875 608.6875 L 213.53125 608.6875 L 212.375 608.6875 L 211.28125 608.6875 L 210.1875 608.6875 L 209.125 608.6875 L 208.15625 608.6875 L 207.1875 608.6875 L 206.28125 608.6875 L 205.4375 608.6875 L 204.65625 608.6875 L 203.9375 608.6875 L 203.28125 608.6875 L 202.75 608.6875 L 202.28125 608.6875 L 201.90625 608.6875 L 201.625 608.6875 L 201.375 608.6875 C 201.418 608.5605 201.5 608.3125 201.5 608.3125 L 201.625 607.84375 L 201.8125 607.21875 L 202.0625 606.40625 L 202.34375 605.46875 L 202.65625 604.375 L 203 603.1875 L 203.40625 601.84375 L 203.84375 600.40625 L 204.28125 598.875 L 204.78125 597.25 L 205.25 595.5625 L 205.78125 593.78125 L 206.34375 591.90625 L 206.90625 590.0625 L 207.46875 588.09375 L 208.03125 586.15625 L 208.59375 584.1875 L 209.1875 582.21875 L 209.78125 580.21875 L 210.375 578.28125 L 210.9375 576.28125 L 211.5 574.375 L 212.0625 572.5 L 212.625 570.625 L 213.15625 568.84375 L 213.625 567.15625 L 214.125 565.5625 L 214.5625 564.03125 L 215 562.59375 L 215.375 561.21875 L 215.75 560.03125 L 216.0625 558.9375 L 216.34375 558 L 216.5625 557.1875 L 216.75 556.5625 L 216.875 556.09375 L 216.96875 555.84375 z "
   id="path16" />
</g><g
   id="LWPOLYLINE_1_"
   style="stroke:none;fill:#000000;fill-opacity:1">
	
		<path
   style="stroke:none;fill:#000000;fill-opacity:1"
   d="M 234.375 401.21875 L 232.40625 401.25 L 230.5625 401.375 L 228.78125 401.625 L 227.125 401.9375 L 225.53125 402.34375 L 224.03125 402.8125 L 222.65625 403.40625 L 221.34375 404.03125 L 220.09375 404.78125 L 218.9375 405.5625 L 217.875 406.46875 L 216.875 407.40625 L 215.9375 408.40625 L 215.09375 409.46875 L 214.28125 410.625 L 213.5625 411.8125 L 212.90625 413.0625 L 212.3125 414.375 L 211.75 415.75 L 211.25 417.1875 L 210.8125 418.625 L 210.40625 420.15625 L 210.0625 421.71875 L 209.75 423.28125 L 209.5 424.9375 L 209.25 426.625 L 209.03125 428.34375 L 208.875 430.125 L 208.75 431.90625 L 208.625 433.6875 L 208.53125 435.5 L 208.46875 437.375 L 208.40625 439.28125 L 208.375 441.1875 L 208.375 443.09375 L 208.34375 445 L 208.34375 446.9375 L 208.34375 448.90625 L 208.34375 450.90625 L 208.34375 452.84375 L 208.34375 454.78125 L 208.34375 456.78125 L 208.34375 458.71875 L 208.375 460.6875 L 208.375 462.625 L 208.4375 464.59375 L 208.5 466.5 L 208.5625 468.40625 L 208.625 470.25 L 208.75 472.125 L 208.875 473.9375 L 209.03125 475.78125 L 209.21875 477.5625 L 209.46875 479.28125 L 209.71875 481.03125 L 210 482.6875 L 210.34375 484.34375 L 210.71875 485.90625 L 211.125 487.46875 L 211.59375 488.9375 L 212.125 490.375 L 212.65625 491.78125 L 213.3125 493.15625 L 213.96875 494.46875 L 214.6875 495.6875 L 215.46875 496.84375 L 216.34375 497.9375 L 217.28125 499 L 218.25 499.96875 L 219.3125 500.875 L 220.46875 501.65625 L 221.65625 502.4375 L 222.96875 503.09375 L 224.34375 503.6875 L 225.78125 504.21875 L 227.3125 504.59375 L 228.96875 504.9375 L 230.6875 505.1875 L 232.46875 505.3125 L 234.375 505.34375 L 235.75 505.34375 L 237.125 505.28125 L 238.4375 505.09375 L 239.6875 504.90625 L 240.90625 504.625 L 242.09375 504.34375 L 243.21875 503.96875 L 244.3125 503.53125 L 245.375 503.0625 L 246.40625 502.5625 L 247.375 501.96875 L 248.34375 501.375 L 249.21875 500.6875 L 250.09375 500.03125 L 250.90625 499.25 L 251.6875 498.5 L 252.4375 497.65625 L 253.15625 496.78125 L 253.84375 495.90625 L 254.46875 494.96875 L 255.0625 494 L 255.65625 492.96875 L 256.1875 491.96875 L 256.6875 490.90625 L 257.15625 489.78125 L 257.59375 488.6875 L 258 487.5625 L 258.34375 486.375 L 258.6875 485.1875 L 259 484 L 259.28125 482.71875 L 259.53125 481.5 L 259.71875 480.21875 L 259.9375 478.9375 L 260.0625 477.625 L 260.1875 476.3125 L 260.3125 475 L 260.375 473.65625 L 260.40625 472.28125 L 260.4375 470.9375 L 260.40625 469.03125 L 260.34375 467.15625 L 260.25 465.34375 L 260.125 463.65625 L 259.9375 461.9375 L 259.71875 460.375 L 259.46875 458.84375 L 259.1875 457.375 L 258.875 455.96875 L 258.53125 454.625 L 258.15625 453.34375 L 257.75 452.125 L 257.3125 450.96875 L 256.84375 449.875 L 256.34375 448.8125 L 255.84375 447.78125 L 255.28125 446.875 L 254.6875 445.96875 L 254.09375 445.125 L 253.46875 444.375 L 252.8125 443.59375 L 252.15625 442.90625 L 251.4375 442.28125 L 250.71875 441.6875 L 249.96875 441.09375 L 249.25 440.59375 L 248.46875 440.125 L 247.6875 439.6875 L 246.84375 439.3125 L 246.03125 438.96875 L 245.1875 438.6875 L 244.3125 438.375 L 243.46875 438.15625 L 242.59375 437.96875 L 241.6875 437.78125 L 240.78125 437.65625 L 239.875 437.5625 L 238.9375 437.5 L 238 437.4375 L 237.0625 437.4375 L 236.625 437.4375 L 236.125 437.4375 L 235.65625 437.5 L 235.1875 437.53125 L 234.71875 437.625 L 234.25 437.65625 L 233.78125 437.75 L 233.3125 437.875 L 232.84375 437.96875 L 232.40625 438.09375 L 231.9375 438.25 L 231.46875 438.375 L 231.03125 438.5625 L 230.59375 438.71875 L 230.15625 438.9375 L 229.6875 439.09375 L 229.28125 439.3125 L 228.84375 439.5625 L 228.40625 439.78125 L 228 440.03125 L 227.5625 440.28125 L 227.15625 440.59375 L 226.71875 440.84375 L 226.34375 441.125 L 225.9375 441.46875 L 225.5625 441.78125 L 225.15625 442.125 L 224.8125 442.4375 L 224.4375 442.78125 L 224.0625 443.1875 L 223.71875 443.5625 L 223.375 443.9375 L 223.03125 444.3125 L 222.71875 444.75 L 222.375 445.15625 L 222.0625 445.59375 L 221.75 446 L 221.46875 446.46875 L 221.1875 446.9375 L 220.90625 447.40625 L 220.90625 445.375 L 220.9375 443.46875 L 220.9375 441.5625 L 221 439.75 L 221.0625 438 L 221.125 436.3125 L 221.1875 434.6875 L 221.28125 433.09375 L 221.375 431.59375 L 221.5 430.125 L 221.625 428.71875 L 221.78125 427.40625 L 221.9375 426.09375 L 222.125 424.90625 L 222.3125 423.71875 L 222.53125 422.5625 L 222.78125 421.53125 L 223.03125 420.5 L 223.3125 419.5625 L 223.59375 418.625 L 223.90625 417.78125 L 224.25 416.96875 L 224.625 416.21875 L 224.96875 415.5 L 225.375 414.84375 L 225.8125 414.21875 L 226.25 413.65625 L 226.71875 413.15625 L 227.21875 412.65625 L 227.71875 412.21875 L 228.28125 411.84375 L 228.84375 411.5 L 229.4375 411.21875 L 230.0625 410.96875 L 230.71875 410.75 L 231.375 410.5625 L 232.09375 410.4375 L 232.8125 410.3125 L 233.59375 410.28125 L 234.375 410.28125 L 234.96875 410.28125 L 235.5625 410.3125 L 236.125 410.40625 L 236.6875 410.5 L 237.1875 410.625 L 237.71875 410.78125 L 238.21875 410.96875 L 238.71875 411.15625 L 239.15625 411.375 L 239.625 411.625 L 240.03125 411.9375 L 240.46875 412.21875 L 240.875 412.53125 L 241.25 412.875 L 241.625 413.21875 L 241.96875 413.59375 L 242.34375 413.96875 L 242.65625 414.40625 L 242.9375 414.8125 L 243.25 415.25 L 243.53125 415.71875 L 243.78125 416.1875 L 244.0625 416.625 L 244.28125 417.09375 L 244.5 417.625 L 244.71875 418.125 L 244.875 418.625 L 245.0625 419.15625 L 245.21875 419.65625 L 245.375 420.1875 L 245.5 420.75 L 245.625 421.25 L 245.71875 421.8125 L 245.8125 422.375 L 245.875 422.90625 L 245.9375 423.46875 L 246 424.03125 L 246.03125 424.5625 L 246.03125 425.125 L 246.0625 425.6875 L 246.40625 425.6875 L 246.8125 425.6875 L 247.0625 425.6875 L 247.34375 425.6875 L 247.65625 425.6875 L 248 425.6875 L 248.375 425.6875 L 248.78125 425.6875 L 249.1875 425.6875 L 249.59375 425.6875 L 250.03125 425.6875 L 250.46875 425.6875 L 250.9375 425.6875 L 251.40625 425.6875 L 251.875 425.6875 L 252.34375 425.6875 L 252.8125 425.6875 L 253.28125 425.6875 L 253.71875 425.6875 L 254.1875 425.6875 L 254.65625 425.6875 L 255.09375 425.6875 L 255.5 425.6875 L 255.90625 425.6875 L 256.28125 425.6875 L 256.65625 425.6875 L 257 425.6875 L 257.3125 425.6875 L 257.625 425.6875 L 257.875 425.6875 L 258.09375 425.6875 L 258.40625 425.6875 C 258.61825 425.6875 258.6875 424.53125 258.6875 424.53125 L 258.6875 423.375 L 258.625 422.3125 L 258.5625 421.21875 L 258.4375 420.1875 L 258.28125 419.1875 L 258.09375 418.15625 L 257.8125 417.1875 L 257.5625 416.25 L 257.25 415.3125 L 256.90625 414.4375 L 256.5 413.59375 L 256.09375 412.75 L 255.625 411.9375 L 255.125 411.15625 L 254.625 410.40625 L 254.0625 409.6875 L 253.46875 408.96875 L 252.875 408.28125 L 252.21875 407.65625 L 251.5625 407.0625 L 250.84375 406.46875 L 250.125 405.90625 L 249.40625 405.34375 L 248.59375 404.90625 L 247.8125 404.4375 L 246.96875 403.96875 L 246.125 403.59375 L 245.25 403.1875 L 244.375 402.84375 L 243.4375 402.5625 L 242.5 402.25 L 241.5625 402 L 240.5625 401.8125 L 239.5625 401.625 L 238.59375 401.46875 L 237.53125 401.34375 L 236.5 401.25 L 235.4375 401.21875 L 234.375 401.21875 z M 234.375 448.3125 L 235.21875 448.34375 L 236.0625 448.40625 L 236.84375 448.53125 L 237.59375 448.65625 L 238.3125 448.8125 L 239 449.0625 L 239.65625 449.3125 L 240.25 449.625 L 240.84375 449.90625 L 241.40625 450.3125 L 241.9375 450.6875 L 242.4375 451.09375 L 242.90625 451.53125 L 243.34375 452.03125 L 243.78125 452.5 L 244.15625 453.0625 L 244.53125 453.5625 L 244.875 454.15625 L 245.1875 454.75 L 245.5 455.34375 L 245.78125 455.9375 L 246.03125 456.5625 L 246.25 457.25 L 246.46875 457.875 L 246.65625 458.5625 L 246.84375 459.25 L 247 459.96875 L 247.15625 460.65625 L 247.28125 461.375 L 247.40625 462.09375 L 247.46875 462.8125 L 247.5625 463.46875 L 247.65625 464.1875 L 247.6875 464.9375 L 247.75 465.65625 L 247.78125 466.375 L 247.8125 467.09375 L 247.84375 467.75 L 247.84375 468.46875 L 247.84375 469.15625 L 247.84375 470.09375 L 247.84375 471.03125 L 247.8125 472 L 247.8125 472.9375 L 247.75 473.875 L 247.71875 474.8125 L 247.65625 475.71875 L 247.59375 476.65625 L 247.5 477.5625 L 247.40625 478.4375 L 247.28125 479.34375 L 247.15625 480.21875 L 247.03125 481.0625 L 246.90625 481.90625 L 246.71875 482.71875 L 246.53125 483.5625 L 246.3125 484.34375 L 246.09375 485.09375 L 245.875 485.875 L 245.59375 486.59375 L 245.3125 487.3125 L 245.03125 487.96875 L 244.71875 488.625 L 244.375 489.25 L 244 489.84375 L 243.59375 490.40625 L 243.1875 490.9375 L 242.75 491.40625 L 242.28125 491.875 L 241.78125 492.34375 L 241.28125 492.71875 L 240.71875 493.09375 L 240.15625 493.40625 L 239.5625 493.6875 L 238.9375 493.96875 L 238.25 494.125 L 237.5625 494.3125 L 236.8125 494.4375 L 236.0625 494.46875 L 235.28125 494.5 L 234.375 494.46875 L 233.46875 494.4375 L 232.625 494.3125 L 231.8125 494.125 L 231.0625 493.90625 L 230.3125 493.65625 L 229.625 493.375 L 228.96875 493.03125 L 228.3125 492.65625 L 227.71875 492.21875 L 227.15625 491.75 L 226.625 491.28125 L 226.125 490.78125 L 225.65625 490.21875 L 225.21875 489.625 L 224.78125 489.03125 L 224.40625 488.40625 L 224.03125 487.71875 L 223.71875 487.0625 L 223.375 486.375 L 223.09375 485.65625 L 222.8125 484.875 L 222.59375 484.125 L 222.34375 483.375 L 222.125 482.5625 L 221.9375 481.75 L 221.8125 480.9375 L 221.65625 480.125 L 221.5 479.28125 L 221.40625 478.4375 L 221.28125 477.625 L 221.21875 476.78125 L 221.125 475.9375 L 221.0625 475.0625 L 221 474.21875 L 220.96875 473.40625 L 220.9375 472.5625 L 220.9375 471.71875 L 220.90625 470.84375 L 220.90625 470.0625 L 220.90625 469.40625 L 220.9375 468.78125 L 220.9375 468.15625 L 220.96875 467.46875 L 221 466.78125 L 221.0625 466.0625 L 221.125 465.375 L 221.1875 464.65625 L 221.28125 463.9375 L 221.375 463.21875 L 221.46875 462.5 L 221.59375 461.75 L 221.75 461.03125 L 221.9375 460.3125 L 222.09375 459.59375 L 222.28125 458.875 L 222.5 458.1875 L 222.71875 457.46875 L 222.96875 456.78125 L 223.25 456.09375 L 223.5625 455.46875 L 223.90625 454.84375 L 224.21875 454.1875 L 224.59375 453.59375 L 225 453.0625 L 225.40625 452.5 L 225.84375 451.9375 L 226.34375 451.5 L 226.8125 451.03125 L 227.34375 450.5625 L 227.90625 450.1875 L 228.5 449.78125 L 229.09375 449.4375 L 229.78125 449.15625 L 230.4375 448.90625 L 231.15625 448.6875 L 231.9375 448.53125 L 232.71875 448.40625 L 233.53125 448.34375 L 234.375 448.3125 z "
   id="path7" />
</g><g
   id="LWPOLYLINE_9_"
   style="stroke:none;fill:#000000;fill-opacity:1">
	
		<path
   style="stroke:none;fill:#000000;fill-opacity:1"
   d="M 314.28125 146 L 310.375 146.09375 L 306.625 146.4375 L 303.0625 146.9375 L 299.65625 147.65625 L 296.40625 148.5625 L 293.28125 149.65625 L 290.3125 150.90625 L 287.5 152.34375 L 284.8125 153.90625 L 282.28125 155.65625 L 279.875 157.53125 L 277.59375 159.53125 L 275.40625 161.6875 L 273.375 163.9375 L 271.46875 166.3125 L 269.6875 168.8125 L 267.96875 171.375 L 266.40625 174.03125 L 264.9375 176.78125 L 263.5625 179.625 L 262.3125 182.53125 L 261.125 185.46875 L 260.0625 188.5 L 259.0625 191.53125 L 258.15625 194.65625 L 257.34375 197.78125 L 256.5625 200.9375 L 255.90625 204.09375 L 255.3125 207.28125 L 254.78125 210.4375 L 254.34375 213.59375 L 253.9375 216.78125 L 253.59375 219.90625 L 253.3125 223.03125 L 253.09375 226.0625 L 252.90625 229.09375 L 252.78125 232.0625 L 252.6875 235 L 252.625 237.84375 L 252.625 240.59375 L 252.625 242.25 L 252.625 243.90625 L 252.65625 245.53125 L 252.6875 247.1875 L 252.75 248.84375 L 252.8125 250.53125 L 252.875 252.1875 L 252.96875 253.84375 L 253.09375 255.53125 L 253.21875 257.21875 L 253.34375 258.90625 L 253.5 260.5625 L 253.6875 262.25 L 253.875 263.90625 L 254.0625 265.5625 L 254.3125 267.21875 L 254.5625 268.90625 L 254.84375 270.53125 L 255.125 272.1875 L 255.4375 273.8125 L 255.78125 275.4375 L 256.125 277.0625 L 256.5 278.65625 L 256.90625 280.25 L 257.375 281.8125 L 257.8125 283.375 L 258.3125 284.9375 L 258.8125 286.4375 L 259.375 287.96875 L 259.9375 289.4375 L 260.53125 290.9375 L 261.1875 292.375 L 261.84375 293.8125 L 262.53125 295.1875 L 263.25 296.59375 L 264 297.9375 L 264.8125 299.28125 L 265.625 300.59375 L 266.46875 301.84375 L 267.375 303.09375 L 268.09375 303.96875 L 268.84375 304.78125 L 269.625 305.59375 L 270.4375 306.375 L 271.25 307.125 L 272.125 307.90625 L 272.96875 308.625 L 273.875 309.34375 L 274.78125 310.03125 L 275.71875 310.71875 L 276.65625 311.40625 L 277.625 312.03125 L 278.625 312.65625 L 279.625 313.25 L 280.625 313.84375 L 281.65625 314.40625 L 282.71875 314.96875 L 283.78125 315.46875 L 284.84375 315.96875 L 285.9375 316.46875 L 287 316.9375 L 288.125 317.375 L 289.25 317.78125 L 290.375 318.1875 L 291.5 318.5625 L 292.65625 318.90625 L 293.78125 319.25 L 294.96875 319.53125 L 296.125 319.84375 L 297.28125 320.09375 L 298.46875 320.3125 L 299.625 320.53125 L 300.78125 320.71875 L 301.96875 320.90625 L 303.15625 321.03125 L 304.3125 321.15625 L 305.5 321.21875 L 306.6875 321.28125 L 307.875 321.34375 L 309.0625 321.34375 L 311.25 321.3125 L 313.46875 321.1875 L 315.625 321.03125 L 317.8125 320.75 L 320 320.40625 L 322.09375 320 L 324.21875 319.5 L 326.34375 318.96875 L 328.375 318.3125 L 330.46875 317.59375 L 332.4375 316.84375 L 334.4375 315.96875 L 336.40625 315.03125 L 338.25 314.03125 L 340.125 312.96875 L 341.9375 311.8125 L 343.71875 310.59375 L 345.46875 309.3125 L 347.125 307.90625 L 348.78125 306.46875 L 350.34375 304.9375 L 351.8125 303.375 L 353.25 301.71875 L 354.65625 299.96875 L 355.96875 298.15625 L 357.25 296.28125 L 358.4375 294.3125 L 359.53125 292.3125 L 360.5625 290.1875 L 361.53125 288.03125 L 362.40625 285.78125 L 363.21875 283.46875 L 363.90625 281.0625 L 364.53125 278.59375 L 365.09375 276.0625 L 365.5 273.46875 L 365.90625 270.78125 L 366.15625 268.03125 L 366.28125 265.21875 L 366.3125 262.3125 L 366.28125 259.6875 L 366.15625 257.09375 L 365.9375 254.59375 L 365.625 252.15625 L 365.25 249.78125 L 364.84375 247.46875 L 364.28125 245.21875 L 363.6875 243.0625 L 362.96875 240.9375 L 362.25 238.90625 L 361.40625 236.90625 L 360.5 235 L 359.5625 233.15625 L 358.53125 231.375 L 357.46875 229.65625 L 356.3125 228 L 355.09375 226.40625 L 353.8125 224.875 L 352.5 223.4375 L 351.15625 222.0625 L 349.6875 220.71875 L 348.25 219.46875 L 346.71875 218.3125 L 345.125 217.1875 L 343.5 216.125 L 341.84375 215.15625 L 340.15625 214.25 L 338.4375 213.40625 L 336.65625 212.625 L 334.8125 211.90625 L 333 211.25 L 331.09375 210.6875 L 329.1875 210.15625 L 327.28125 209.71875 L 325.28125 209.34375 L 323.28125 209.03125 L 321.3125 208.8125 L 319.28125 208.625 L 317.1875 208.53125 L 315.125 208.5 L 313.34375 208.53125 L 311.59375 208.59375 L 309.90625 208.71875 L 308.25 208.875 L 306.6875 209.0625 L 305.125 209.3125 L 303.65625 209.59375 L 302.21875 209.90625 L 300.8125 210.25 L 299.5 210.65625 L 298.1875 211.0625 L 296.9375 211.5 L 295.75 212 L 294.5625 212.5 L 293.4375 213.03125 L 292.375 213.5625 L 291.3125 214.15625 L 290.3125 214.75 L 289.34375 215.34375 L 288.4375 215.96875 L 287.53125 216.625 L 286.65625 217.28125 L 285.84375 217.9375 L 285.0625 218.59375 L 284.3125 219.3125 L 283.5625 220 L 282.84375 220.6875 L 282.1875 221.375 L 281.53125 222.09375 L 280.9375 222.78125 L 280.34375 223.46875 L 279.78125 224.15625 L 279.21875 224.84375 L 278.71875 225.53125 L 278.25 226.1875 L 277.75 226.84375 L 277.3125 227.5 L 276.84375 228.125 L 276.46875 228.75 L 276.0625 229.34375 L 276.1875 226.0625 L 276.40625 222.875 L 276.59375 219.75 L 276.84375 216.75 L 277.15625 213.8125 L 277.5 210.96875 L 277.84375 208.21875 L 278.25 205.5625 L 278.6875 202.96875 L 279.1875 200.46875 L 279.71875 198.0625 L 280.28125 195.75 L 280.875 193.5 L 281.53125 191.34375 L 282.21875 189.28125 L 282.9375 187.28125 L 283.71875 185.375 L 284.5 183.5625 L 285.34375 181.8125 L 286.25 180.15625 L 287.1875 178.59375 L 288.15625 177.125 L 289.1875 175.71875 L 290.21875 174.375 L 291.34375 173.15625 L 292.5 171.96875 L 293.6875 170.90625 L 294.90625 169.90625 L 296.21875 169 L 297.53125 168.15625 L 298.90625 167.40625 L 300.3125 166.75 L 301.8125 166.15625 L 303.3125 165.625 L 304.875 165.1875 L 306.46875 164.84375 L 308.125 164.5625 L 309.8125 164.375 L 311.59375 164.28125 L 313.375 164.21875 L 314.1875 164.21875 L 315 164.28125 L 315.78125 164.3125 L 316.59375 164.40625 L 317.4375 164.46875 L 318.28125 164.59375 L 319.125 164.75 L 320 164.9375 L 320.84375 165.125 L 321.71875 165.34375 L 322.5625 165.59375 L 323.40625 165.875 L 324.28125 166.1875 L 325.0625 166.53125 L 325.9375 166.90625 L 326.71875 167.3125 L 327.53125 167.78125 L 328.34375 168.25 L 329.09375 168.75 L 329.875 169.3125 L 330.625 169.90625 L 331.34375 170.53125 L 332.03125 171.1875 L 332.71875 171.90625 L 333.34375 172.65625 L 333.9375 173.4375 L 334.53125 174.28125 L 335.0625 175.15625 L 335.59375 176.0625 L 336.09375 177.03125 L 336.53125 178.03125 L 336.9375 179.09375 L 337.28125 180.21875 L 337.625 181.375 L 337.90625 182.59375 L 338.125 183.84375 L 338.3125 185.15625 L 338.4375 186.5 L 338.5 187.9375 L 338.5625 189.40625 L 363.71875 189.40625 L 363.71875 188.875 L 363.71875 188.3125 L 363.71875 187.78125 L 363.71875 187.1875 L 363.71875 186.625 L 363.6875 186.0625 L 363.6875 185.4375 L 363.65625 184.84375 L 363.65625 184.21875 L 363.59375 183.59375 L 363.5625 182.9375 L 363.46875 182.3125 L 363.4375 181.65625 L 363.34375 180.96875 L 363.25 180.28125 L 363.1875 179.625 L 363.0625 178.9375 L 362.9375 178.25 L 362.8125 177.53125 L 362.625 176.8125 L 362.46875 176.09375 L 362.28125 175.34375 L 362.0625 174.625 L 361.875 173.90625 L 361.625 173.15625 L 361.34375 172.40625 L 361.0625 171.65625 L 360.75 170.90625 L 360.4375 170.15625 L 360.09375 169.375 L 359.71875 168.625 L 359.28125 167.84375 L 358.84375 167.0625 L 358.40625 166.28125 L 357.9375 165.53125 L 357.40625 164.75 L 356.875 163.9375 L 356.28125 163.15625 L 355.6875 162.40625 L 355.03125 161.625 L 354.5625 161.15625 L 354.09375 160.6875 L 353.5625 160.1875 L 353.0625 159.6875 L 352.46875 159.21875 L 351.90625 158.6875 L 351.28125 158.15625 L 350.625 157.65625 L 349.96875 157.125 L 349.28125 156.625 L 348.5625 156.09375 L 347.84375 155.5625 L 347.03125 155.03125 L 346.28125 154.53125 L 345.40625 154 L 344.5625 153.46875 L 343.6875 153 L 342.75 152.5 L 341.8125 152 L 340.84375 151.53125 L 339.8125 151.0625 L 338.75 150.59375 L 337.71875 150.15625 L 336.59375 149.71875 L 335.46875 149.3125 L 334.3125 148.9375 L 333.09375 148.5625 L 331.84375 148.21875 L 330.59375 147.875 L 329.28125 147.5625 L 327.96875 147.28125 L 326.5625 147.03125 L 325.15625 146.8125 L 323.71875 146.59375 L 322.21875 146.40625 L 320.71875 146.25 L 319.125 146.15625 L 317.5625 146.0625 L 315.90625 146 L 314.28125 146 z M 311.625 226.71875 L 313.6875 226.78125 L 315.625 226.90625 L 317.5 227.15625 L 319.28125 227.46875 L 320.96875 227.875 L 322.5625 228.34375 L 324.09375 228.875 L 325.53125 229.53125 L 326.9375 230.21875 L 328.25 230.96875 L 329.46875 231.78125 L 330.625 232.65625 L 331.71875 233.5625 L 332.78125 234.5625 L 333.71875 235.5625 L 334.65625 236.59375 L 335.5 237.71875 L 336.25 238.8125 L 337.03125 239.96875 L 337.71875 241.15625 L 338.3125 242.34375 L 338.90625 243.5625 L 339.40625 244.8125 L 339.90625 246.03125 L 340.34375 247.28125 L 340.71875 248.53125 L 341.09375 249.75 L 341.40625 251.03125 L 341.6875 252.25 L 341.90625 253.4375 L 342.125 254.65625 L 342.3125 255.8125 L 342.4375 257 L 342.59375 258.125 L 342.71875 259.21875 L 342.75 260.25 L 342.84375 261.28125 L 342.875 262.25 L 342.875 263.1875 L 342.875 264.0625 L 342.875 266.09375 L 342.75 268.09375 L 342.625 270 L 342.40625 271.875 L 342.125 273.6875 L 341.78125 275.40625 L 341.40625 277.09375 L 340.96875 278.6875 L 340.46875 280.25 L 339.9375 281.75 L 339.34375 283.15625 L 338.71875 284.53125 L 338.03125 285.875 L 337.3125 287.125 L 336.5625 288.34375 L 335.8125 289.5 L 334.9375 290.59375 L 334.09375 291.65625 L 333.15625 292.625 L 332.28125 293.5625 L 331.3125 294.4375 L 330.34375 295.28125 L 329.3125 296.0625 L 328.25 296.78125 L 327.1875 297.5 L 326.125 298.125 L 325.03125 298.6875 L 323.9375 299.25 L 322.78125 299.75 L 321.65625 300.1875 L 320.5 300.59375 L 319.34375 300.9375 L 318.15625 301.25 L 316.96875 301.53125 L 315.78125 301.75 L 314.65625 301.9375 L 313.46875 302.0625 L 312.28125 302.1875 L 311.09375 302.21875 L 309.90625 302.25 L 308.53125 302.21875 L 307.1875 302.125 L 305.875 302 L 304.59375 301.78125 L 303.28125 301.53125 L 302.03125 301.21875 L 300.78125 300.875 L 299.5625 300.4375 L 298.375 300 L 297.21875 299.46875 L 296.03125 298.90625 L 294.9375 298.28125 L 293.84375 297.625 L 292.78125 296.90625 L 291.75 296.15625 L 290.71875 295.34375 L 289.75 294.5 L 288.8125 293.625 L 287.90625 292.6875 L 287 291.71875 L 286.15625 290.71875 L 285.34375 289.65625 L 284.5625 288.5625 L 283.84375 287.4375 L 283.15625 286.25 L 282.46875 285.0625 L 281.875 283.8125 L 281.28125 282.5625 L 280.75 281.25 L 280.25 279.90625 L 279.78125 278.53125 L 279.375 277.125 L 279.03125 275.71875 L 278.6875 274.25 L 278.4375 272.75 L 278.1875 271.21875 L 278.03125 269.6875 L 277.90625 268.125 L 277.8125 266.53125 L 277.78125 264.90625 L 277.8125 263.5 L 277.875 262.0625 L 277.96875 260.625 L 278.125 259.21875 L 278.3125 257.8125 L 278.5625 256.40625 L 278.84375 255 L 279.15625 253.625 L 279.5 252.25 L 279.90625 250.875 L 280.34375 249.5625 L 280.84375 248.25 L 281.375 246.9375 L 281.9375 245.6875 L 282.53125 244.4375 L 283.1875 243.21875 L 283.90625 242.03125 L 284.625 240.875 L 285.40625 239.75 L 286.25 238.65625 L 287.125 237.59375 L 288.03125 236.59375 L 288.96875 235.59375 L 289.96875 234.6875 L 291.03125 233.75 L 292.09375 232.90625 L 293.21875 232.09375 L 294.375 231.375 L 295.5625 230.65625 L 296.8125 230 L 298.125 229.40625 L 299.4375 228.875 L 300.8125 228.375 L 302.25 227.96875 L 303.71875 227.5625 L 305.21875 227.28125 L 306.75 227.03125 L 308.34375 226.84375 L 309.96875 226.75 L 311.625 226.71875 z "
   id="polygon31" />
</g><g
   id="LWPOLYLINE"
   style="stroke:none;fill:#000000;fill-opacity:1">
	
		
</g>

<g
   id="LWPOLYLINE_2_"
   style="stroke:none;fill:#000000;fill-opacity:1">
	
		<path
   fill="none"
   stroke="#000000"
   stroke-width="0.7087"
   stroke-linecap="round"
   stroke-linejoin="round"
   stroke-miterlimit="10"
   d="   M264.757,402.951c0,0.17,0,0.297,0,0.297c0,0.17,0,0.383,0,0.383v0.211v0.297v0.254v0.297v0.34v0.338v0.383v0.381v0.381v0.424   v0.383v0.424v0.424v0.424v0.424v0.424v0.424v0.381v0.424v0.383v0.381v0.381v0.34v0.297v0.338v0.256v0.254v0.254   c0,0.213,0,0.381,0,0.381c0,0.127,0,0.213,0,0.213c0.19,0.084,0.424,0.084,0.424,0.084h0.318h0.381h0.467h0.529h0.594h0.657h0.699   h0.763h0.806h0.826h0.891h0.89h0.933h0.954h0.953h0.976h0.975h0.975h0.976h0.953h0.954h0.911h0.911h0.869h0.848h0.806h0.741h0.721   h0.636h0.615h0.529h0.445h0.402h0.318h0.212c0.19,0.17,0.19,0.637,0.19,0.637v0.805v1.061v1.355v1.568v1.822v2.035v2.246v2.459   v2.586v2.754v2.883v2.967v3.137v3.18v3.221v3.307v3.35v3.348v3.35v3.305v3.307v3.264v3.18v3.094v3.01v2.883v2.754v2.586v2.416   v2.248v2.033v1.822v1.611v1.314v1.102v0.764v0.508c0.212,0.17,0.36,0.17,0.36,0.17c0.212,0,0.445,0,0.445,0h0.254h0.297h0.318h0.36   h0.381h0.403h0.424h0.424h0.466h0.467h0.466h0.466h0.488h0.487h0.487h0.487h0.487h0.467h0.466h0.445h0.445h0.424h0.402h0.382h0.339   h0.339h0.297h0.254h0.233c0.19,0,0.36,0,0.36,0c0.212-0.17,0.212-0.678,0.212-0.678v-0.764v-1.102v-1.314v-1.611v-1.822v-2.033   v-2.248v-2.416v-2.586v-2.754v-2.883v-3.01v-3.094v-3.18v-3.264V465.6v-3.305v-3.35v-3.348v-3.35v-3.307v-3.221v-3.18v-3.137   v-2.967v-2.883v-2.754v-2.586v-2.459v-2.246v-2.035v-1.822v-1.568v-1.355v-1.061v-0.805v-0.467c0.17-0.17,0.402-0.17,0.402-0.17   h0.297h0.382h0.445h0.508h0.594h0.594h0.721h0.721h0.763h0.806h0.848h0.89h0.891h0.89h0.933h0.975h0.933h0.933h0.933h0.933h0.933   h0.89h0.848h0.848h0.806h0.806h0.721h0.678h0.636h0.594h0.509h0.424h0.381h0.297h0.212c0.212-0.17,0.212-0.297,0.212-0.297   c0-0.168,0-0.381,0-0.381v-0.254v-0.254v-0.256v-0.338v-0.297v-0.34v-0.381v-0.381v-0.383v-0.424v-0.381v-0.424v-0.424v-0.424   v-0.424v-0.424v-0.424v-0.383v-0.424v-0.381v-0.381v-0.383v-0.338v-0.34v-0.297v-0.254v-0.297v-0.211c0-0.213,0-0.383,0-0.383   c0-0.127,0-0.211,0-0.211C329.016,402.951,264.757,402.951,264.757,402.951z"
   id="path10"
   style="stroke:none;fill:#000000;fill-opacity:1" />
</g>
<g
   id="LWPOLYLINE_3_"
   style="stroke:none;fill:#000000;fill-opacity:1">
	
		<path
   fill="none"
   stroke="#000000"
   stroke-width="0.7087"
   stroke-linecap="round"
   stroke-linejoin="round"
   stroke-miterlimit="10"
   d="   M341.139,503.664c0.212,0,0.339,0,0.339,0c0.212,0,0.424,0,0.424,0h0.255h0.254h0.297h0.339h0.382h0.339h0.424h0.382h0.424h0.424   h0.466h0.424h0.467h0.466h0.467h0.424h0.466h0.424h0.424h0.424h0.424h0.382h0.382h0.339h0.339h0.297h0.297h0.254   c0.212,0,0.382,0,0.382,0c0.17,0,0.254,0,0.254,0c0.085-0.084,0.085-0.34,0.085-0.34V502.9v-0.551v-0.678v-0.805v-0.975v-1.018   v-1.188v-1.229v-1.357v-1.398v-1.484v-1.525v-1.611v-1.652v-1.652v-1.695v-1.738v-1.695v-1.738v-1.695v-1.695v-1.695v-1.611v-1.611   v-1.525v-1.484v-1.439v-1.314v-1.271v-1.145v-1.061v-0.932v-0.807v-0.721v-0.551v-0.381v-0.254   c0.085-0.086,0.255-0.086,0.255-0.086h0.296h0.424h0.509h0.636h0.721h0.764h0.89h0.933h1.018h1.06h1.145h1.145h1.187h1.271h1.229   h1.313h1.271h1.314h1.271h1.314h1.271h1.271h1.229h1.229h1.145h1.103h1.102h0.976h0.975h0.848h0.806h0.721h0.593h0.509h0.424h0.297   c0.212,0,0.254,0,0.254,0c0,0.086,0,0.34,0,0.34v0.381v0.551v0.721v0.807v0.932v1.061v1.145v1.271v1.314v1.439v1.484v1.525v1.611   v1.611v1.695v1.695v1.695v1.738v1.695v1.738v1.695v1.652v1.652v1.611v1.525v1.484v1.398v1.357v1.229v1.188v1.018v0.975v0.805v0.678   v0.551v0.424v0.256c0.213,0.084,0.382,0.084,0.382,0.084c0.212,0,0.424,0,0.424,0h0.255h0.296h0.34h0.339h0.382h0.424h0.424h0.424   h0.466h0.467h0.466h0.466h0.467h0.509h0.466h0.509h0.467h0.466h0.466h0.467h0.424h0.424h0.424h0.382h0.339h0.339h0.297h0.254h0.212   c0.212,0,0.382,0,0.382,0c0.212-0.211,0.212-0.764,0.212-0.764v-0.889v-1.188v-1.525v-1.781v-2.033v-2.332v-2.502v-2.754v-2.926   v-3.094v-3.221v-3.391v-3.477v-3.604v-3.645v-3.73v-3.73v-3.771v-3.773v-3.771v-3.73v-3.645v-3.561v-3.52v-3.348v-3.264v-3.096   v-2.924v-2.713v-2.543v-2.289v-2.076v-1.781v-1.525v-1.188v-0.891v-0.551c-0.212-0.17-0.382-0.17-0.382-0.17   c-0.212,0-0.424,0-0.424,0h-0.254h-0.297h-0.339h-0.339h-0.382h-0.424h-0.424h-0.424h-0.467h-0.466h-0.466h-0.467h-0.509h-0.466   h-0.509h-0.467h-0.466h-0.466h-0.467h-0.466h-0.424h-0.424h-0.424h-0.382h-0.339h-0.34h-0.296h-0.255h-0.212   c-0.212,0-0.381,0-0.381,0c-0.213,0.086-0.213,0.297-0.213,0.297v0.383v0.508v0.678v0.764v0.891v0.975v1.102v1.188v1.271v1.314   v1.398v1.441v1.525v1.525v1.611v1.568v1.611v1.652v1.611v1.609v1.611v1.568v1.568v1.484v1.482v1.398v1.314v1.271v1.188v1.059v1.018   v0.891v0.764v0.635v0.51v0.381v0.254c-0.042,0.086-0.254,0.086-0.254,0.086h-0.297h-0.424h-0.509h-0.593h-0.721h-0.806h-0.848   h-0.975h-0.976h-1.102h-1.103h-1.145h-1.229h-1.229h-1.271h-1.271h-1.314h-1.271h-1.314h-1.271h-1.313h-1.229h-1.271h-1.187h-1.145   h-1.145h-1.06h-1.018h-0.933h-0.89h-0.764h-0.721h-0.636h-0.509h-0.424h-0.296c-0.17,0-0.255,0-0.255,0c0-0.086,0-0.34,0-0.34   v-0.381v-0.51v-0.635v-0.764v-0.891v-1.018v-1.059v-1.188v-1.271v-1.314v-1.398v-1.482v-1.484v-1.568v-1.568v-1.611v-1.609v-1.611   v-1.652v-1.611v-1.568v-1.611v-1.525v-1.525v-1.441v-1.398v-1.314v-1.271v-1.188v-1.102v-0.975v-0.891v-0.764v-0.678v-0.508v-0.383   v-0.211c-0.169-0.086-0.339-0.086-0.339-0.086c-0.17,0-0.382,0-0.382,0h-0.254h-0.297h-0.297h-0.339h-0.339h-0.382h-0.382h-0.424   h-0.424h-0.424h-0.424h-0.466h-0.424h-0.467h-0.466h-0.467h-0.424h-0.466h-0.424h-0.424h-0.382h-0.424h-0.339h-0.382h-0.339h-0.297   h-0.254h-0.255c-0.212,0-0.424,0-0.424,0c-0.127,0-0.212,0-0.212,0C341.139,402.951,341.139,503.664,341.139,503.664z"
   id="path13"
   style="stroke:none;fill:#000000;fill-opacity:1" />
</g>

<g
   id="LWPOLYLINE_5_"
   style="stroke:none;fill:#000000;fill-opacity:1">
	
		
</g>
<g
   id="LWPOLYLINE_6_"
   style="stroke:none;fill:#000000;fill-opacity:1">
	
		<path
   fill="none"
   stroke="#000000"
   stroke-width="0.7087"
   stroke-linecap="round"
   stroke-linejoin="round"
   stroke-miterlimit="10"
   d="   M303.838,592.168c0.042-0.084,0.19-0.338,0.19-0.338l0.233-0.424l0.318-0.594l0.402-0.721l0.487-0.848l0.53-1.018l0.636-1.102   l0.678-1.23l0.721-1.312l0.763-1.398l0.848-1.484l0.849-1.568l0.932-1.652l0.933-1.654l0.933-1.738l0.976-1.779l1.017-1.781   l0.976-1.822l1.017-1.822l1.018-1.822l1.018-1.822l0.975-1.781l0.975-1.779l0.976-1.738l0.933-1.654l0.89-1.652l0.891-1.568   l0.805-1.484l0.763-1.398l0.764-1.312l0.678-1.23l0.594-1.102l0.551-1.018l0.467-0.848l0.424-0.721l0.339-0.594l0.212-0.424   l0.127-0.254c-0.169-0.084-0.339-0.084-0.339-0.084c-0.17,0-0.424,0-0.424,0h-0.297h-0.297h-0.381h-0.382h-0.382h-0.424h-0.466   h-0.467h-0.466h-0.509h-0.509h-0.509h-0.509h-0.508h-0.509h-0.552h-0.508h-0.509h-0.467h-0.509h-0.466h-0.424h-0.424h-0.424h-0.382   h-0.339h-0.297h-0.297h-0.254c-0.212,0-0.382,0-0.382,0c-0.169,0-0.212,0-0.212,0c-0.042,0.041-0.169,0.254-0.169,0.254   l-0.17,0.338l-0.254,0.467l-0.297,0.594l-0.382,0.721l-0.424,0.764l-0.466,0.889l-0.509,1.018l-0.594,1.061l-0.594,1.102   l-0.636,1.229l-0.678,1.23l-0.679,1.312l-0.763,1.357l-0.721,1.398l-0.763,1.441l-0.763,1.441l-0.764,1.441l-0.805,1.441   l-0.764,1.482l-0.784,1.441l-0.763,1.441l-0.763,1.441l-0.742,1.398l-0.721,1.355l-0.699,1.273l-0.678,1.271l-0.636,1.186   l-0.594,1.145l-0.572,1.061l-0.529,0.975l-0.467,0.891l-0.424,0.805l-0.382,0.721l-0.317,0.551l-0.233,0.467l-0.19,0.381   c-0.106,0.213-0.148,0.254-0.148,0.254c-0.042-0.041-0.148-0.254-0.148-0.254l-0.17-0.381l-0.232-0.467l-0.318-0.551l-0.339-0.721   l-0.424-0.805l-0.445-0.891l-0.509-0.975l-0.529-1.061l-0.594-1.145l-0.594-1.186l-0.656-1.271l-0.657-1.273l-0.699-1.355   l-0.721-1.398l-0.721-1.441l-0.742-1.441l-0.741-1.441l-0.742-1.482l-0.741-1.441l-0.742-1.441l-0.742-1.441l-0.741-1.441   l-0.699-1.398l-0.7-1.357l-0.656-1.312l-0.657-1.23l-0.614-1.229l-0.572-1.102l-0.552-1.061l-0.487-1.018l-0.466-0.889   l-0.403-0.764l-0.36-0.721l-0.296-0.594l-0.233-0.467l-0.17-0.338c-0.105-0.213-0.148-0.254-0.148-0.254c-0.105,0-0.232,0-0.232,0   c-0.191,0-0.403,0-0.403,0h-0.254h-0.318h-0.339h-0.36h-0.402h-0.424h-0.467h-0.466h-0.487h-0.509h-0.53h-0.551h-0.529h-0.552   h-0.551h-0.551h-0.552h-0.551h-0.529h-0.53h-0.509h-0.509h-0.466h-0.445h-0.445h-0.402h-0.36h-0.339h-0.297h-0.275h-0.212   c-0.17,0-0.297,0-0.297,0c-0.063,0.084,0.085,0.338,0.085,0.338l0.233,0.424l0.317,0.594l0.403,0.721l0.487,0.848l0.551,1.018   l0.614,1.102l0.657,1.23l0.742,1.312l0.784,1.398l0.826,1.484l0.869,1.568l0.89,1.652l0.933,1.654l0.976,1.738l0.975,1.779   l0.996,1.781l0.996,1.822l0.996,1.822l1.018,1.822l0.996,1.822l0.996,1.781l0.975,1.779l0.975,1.738l0.933,1.654l0.891,1.652   l0.868,1.568l0.827,1.484l0.784,1.398l0.721,1.312l0.678,1.23l0.614,1.102l0.552,1.018l0.487,0.848l0.402,0.721l0.318,0.594   l0.232,0.424l0.148,0.254c0,0.211-0.148,0.467-0.148,0.467l-0.254,0.465l-0.317,0.637l-0.425,0.764l-0.487,0.932l-0.572,1.061   l-0.636,1.186l-0.699,1.314l-0.741,1.398l-0.827,1.527l-0.848,1.609l-0.89,1.695l-0.933,1.738l-0.954,1.781l-0.996,1.863   l-1.018,1.908l-1.017,1.908l-1.039,1.949l-1.038,1.949l-1.039,1.951l-1.038,1.949l-1.018,1.906l-1.017,1.908l-0.996,1.822   l-0.954,1.822l-0.933,1.738l-0.89,1.695l-0.869,1.611l-0.806,1.484l-0.742,1.441l-0.699,1.312l-0.636,1.188l-0.572,1.061   l-0.487,0.889l-0.424,0.807l-0.317,0.635l-0.255,0.424l-0.148,0.297c0.148,0.084,0.318,0.084,0.318,0.084c0.19,0,0.424,0,0.424,0   h0.275h0.297h0.317h0.36h0.36h0.403h0.424h0.444h0.445h0.467h0.466h0.487h0.487h0.487h0.488h0.487h0.466h0.487h0.467h0.445h0.444   h0.403h0.402h0.382h0.36h0.317h0.297h0.275h0.233c0.19,0,0.339,0,0.339,0c0.212,0,0.254-0.084,0.254-0.084l0.106-0.211l0.19-0.383   l0.275-0.508l0.318-0.678l0.382-0.764l0.444-0.891l0.487-0.975l0.552-1.102l0.593-1.188l0.636-1.229l0.657-1.357l0.699-1.398   l0.721-1.441l0.764-1.525l0.763-1.525l0.806-1.568l0.783-1.611l0.827-1.611l0.806-1.652l0.805-1.611l0.827-1.609l0.784-1.611   l0.805-1.568l0.764-1.568l0.763-1.484l0.721-1.482l0.699-1.398l0.657-1.314l0.636-1.271l0.593-1.188l0.552-1.061l0.487-1.016   l0.445-0.848l0.381-0.807l0.318-0.635l0.275-0.51l0.19-0.381l0.106-0.254c0.085,0,0.212,0.254,0.212,0.254l0.212,0.381l0.275,0.51   l0.36,0.635l0.402,0.807l0.487,0.848l0.53,1.016l0.594,1.061l0.636,1.188l0.678,1.271l0.721,1.314l0.742,1.398l0.805,1.482   l0.806,1.484l0.826,1.568l0.869,1.568l0.848,1.611l0.891,1.609l0.848,1.611l0.89,1.652l0.891,1.611l0.848,1.611l0.848,1.568   l0.848,1.525l0.806,1.525l0.805,1.441l0.764,1.398l0.678,1.357l0.721,1.229l0.636,1.188l0.551,1.102l0.552,0.975l0.466,0.891   l0.424,0.764l0.339,0.678l0.297,0.508l0.212,0.383l0.127,0.211c0.17,0.084,0.297,0.084,0.297,0.084c0.17,0,0.382,0,0.382,0h0.254   h0.297h0.339h0.382h0.382h0.424h0.466h0.467h0.508h0.509h0.552h0.508h0.552h0.551h0.551h0.551h0.552h0.551h0.551h0.509h0.509h0.509   h0.466h0.467h0.424h0.381h0.382h0.339h0.297h0.255h0.212c0.212,0,0.339,0,0.339,0C333.34,644.262,303.838,592.168,303.838,592.168z   "
   id="path22"
   style="stroke:none;fill:#000000;fill-opacity:1" />
</g>
<g
   id="LWPOLYLINE_7_"
   style="stroke:none;fill:#000000;fill-opacity:1">
	
		<path
   fill="none"
   stroke="#000000"
   stroke-width="0.7087"
   stroke-linecap="round"
   stroke-linejoin="round"
   stroke-miterlimit="10"
   d="   M357.67,543.594c-0.212,0-0.339,0-0.339,0c-0.212,0-0.424,0-0.424,0h-0.255h-0.254h-0.297h-0.339h-0.382h-0.339h-0.424h-0.382   h-0.424h-0.424h-0.466h-0.425h-0.466h-0.466H351.1h-0.424h-0.466h-0.424h-0.424h-0.425h-0.424h-0.381h-0.382h-0.339h-0.339h-0.297   h-0.297h-0.254c-0.212,0-0.382,0-0.382,0c-0.17,0-0.254,0-0.254,0c-0.085,0.168-0.085,0.721-0.085,0.721v0.889v1.188v1.525v1.781   v2.033v2.332v2.5v2.756v2.926v3.094v3.221v3.391v3.477v3.604v3.645v3.73v3.73v3.771v3.773v3.771v3.73v3.645v3.604v3.477v3.391   v3.221v3.094v2.926v2.756v2.5v2.289v2.076v1.781v1.525v1.188v0.891v0.551c0.169,0.168,0.339,0.168,0.339,0.168   c0.17,0,0.382,0,0.382,0h0.254h0.297h0.297h0.339h0.339h0.382h0.381h0.424h0.425h0.424h0.424h0.466h0.424h0.467h0.466h0.466h0.425   h0.466h0.424h0.424h0.382h0.424h0.339h0.382h0.339h0.297h0.254h0.255c0.212,0,0.424,0,0.424,0c0.127,0,0.212,0,0.212,0   C357.67,644.262,357.67,543.594,357.67,543.594z"
   id="path25"
   style="stroke:none;fill:#000000;fill-opacity:1" />
</g>
<g
   id="LWPOLYLINE_8_"
   style="stroke:none;fill:#000000;fill-opacity:1">
	
		<path
   fill="none"
   stroke="#000000"
   stroke-width="0.7087"
   stroke-linecap="round"
   stroke-linejoin="round"
   stroke-miterlimit="10"
   d="   M375.006,613.871l-0.042,0.764l-0.085,0.762l-0.042,0.848l-0.043,0.848v0.934v0.932v0.934l0.043,1.018l0.042,1.016l0.085,1.018   l0.127,1.061l0.17,1.059l0.169,1.061l0.212,1.059l0.255,1.061l0.339,1.102l0.339,1.061l0.424,1.059l0.424,1.018l0.509,1.061   l0.594,1.018l0.594,0.975l0.72,0.975l0.721,0.932l0.848,0.934l0.891,0.891l0.975,0.805l1.018,0.805l1.102,0.764l1.229,0.721   l1.271,0.635l1.356,0.594l1.483,0.551l1.526,0.467l1.653,0.424l1.737,0.34l1.865,0.297l1.95,0.168l2.034,0.129L403.66,646h1.187   l1.145-0.041l1.145-0.086l1.187-0.084l1.145-0.127l1.103-0.127l1.145-0.213l1.102-0.211l1.103-0.213l1.102-0.297l1.06-0.297   l1.018-0.338l1.06-0.383l1.018-0.424l0.975-0.467l0.975-0.465l0.933-0.51l0.891-0.551l0.89-0.594l0.891-0.635l0.806-0.678   l0.805-0.721l0.763-0.721l0.764-0.807l0.678-0.848l0.679-0.848l0.636-0.932l0.593-0.975l0.552-1.018l0.509-1.018l0.466-1.102   l0.424-1.145l0.382-1.188l0.297-1.271l0.296-1.271l0.255-1.314l0.169-1.398l0.128-1.441l0.084-1.482l0.043-1.527l-0.085-2.33   l-0.254-2.248l-0.382-2.076l-0.509-1.992l-0.678-1.865l-0.806-1.738l-0.891-1.695l-1.017-1.568l-1.103-1.482l-1.187-1.398   l-1.314-1.314l-1.356-1.271l-1.398-1.188l-1.483-1.145l-1.568-1.061l-1.568-1.016l-1.61-1.018l-1.611-0.934l-1.653-0.932   l-1.652-0.934l-1.696-0.889l-1.652-0.848l-1.611-0.891l-1.61-0.848l-1.568-0.891l-1.526-0.891l-1.483-0.889l-1.44-0.934   l-1.356-0.932l-1.272-1.018l-1.229-1.018l-1.103-1.061l-1.018-1.145l-0.89-1.143l-0.806-1.273l-0.636-1.312l-0.551-1.357   l-0.382-1.482l-0.254-1.568l-0.085-1.611l0.042-0.805l0.043-0.721l0.042-0.721l0.128-0.721l0.127-0.678l0.127-0.637l0.17-0.678   l0.212-0.594l0.212-0.594l0.254-0.594l0.254-0.551l0.297-0.508l0.297-0.51l0.339-0.508l0.34-0.467l0.381-0.424l0.382-0.424   l0.424-0.424l0.382-0.381l0.466-0.383l0.424-0.338l0.466-0.34l0.467-0.297l0.509-0.297l0.466-0.254l0.509-0.254l0.551-0.254   l0.509-0.213l0.551-0.211l0.552-0.17l0.551-0.17l0.551-0.127l0.552-0.127l0.593-0.127l0.551-0.086l0.594-0.041l0.594-0.086   l0.551-0.041h0.594l0.593-0.043l0.848,0.043l0.806,0.041l0.763,0.043l0.721,0.127l0.721,0.127l0.721,0.127l0.636,0.213l0.636,0.211   l0.636,0.213l0.594,0.254l0.551,0.297l0.551,0.297l0.509,0.338l0.467,0.34l0.466,0.381l0.467,0.383l0.381,0.424l0.424,0.424   l0.382,0.467l0.339,0.465l0.339,0.51l0.297,0.508l0.297,0.551l0.255,0.551l0.254,0.551l0.254,0.594l0.212,0.637l0.17,0.594   l0.17,0.635l0.169,0.678l0.17,0.637l0.085,0.678l0.127,0.721l0.085,0.678l0.085,0.721l0.084,0.764l0.043,0.721v0.764l0.042,0.762   v0.764c0.212,0,0.382,0,0.382,0c0.169,0,0.424,0,0.424,0h0.254h0.297h0.339h0.34h0.381h0.382h0.424h0.466h0.424h0.467h0.466h0.509   h0.467h0.508h0.467h0.509h0.466h0.467h0.466h0.467h0.424h0.424h0.381h0.382h0.382h0.296h0.297h0.297h0.212c0.212,0,0.339,0,0.339,0   c0.212,0,0.255-1.441,0.255-1.441v-1.441l-0.043-1.398l-0.042-1.357l-0.127-1.312l-0.17-1.271l-0.212-1.23l-0.254-1.186   l-0.255-1.145l-0.339-1.104l-0.339-1.059l-0.382-1.018l-0.466-1.018l-0.467-0.932l-0.509-0.891l-0.509-0.891l-0.593-0.848   l-0.594-0.764l-0.678-0.762l-0.679-0.721l-0.721-0.678l-0.721-0.637l-0.805-0.635l-0.806-0.553l-0.848-0.551l-0.89-0.465   l-0.933-0.467l-0.933-0.424l-0.976-0.424l-1.017-0.34l-1.018-0.338l-1.06-0.256l-1.103-0.254l-1.145-0.211l-1.144-0.213   l-1.188-0.127l-1.187-0.127l-1.229-0.086l-1.271-0.041h-1.314h-1.229l-1.188,0.041l-1.229,0.086l-1.188,0.127l-1.145,0.127   l-1.145,0.213l-1.144,0.211l-1.103,0.213l-1.102,0.297l-1.103,0.295l-1.018,0.383l-1.06,0.338l-0.975,0.424l-0.975,0.467   l-0.976,0.467l-0.933,0.508l-0.89,0.551l-0.891,0.594l-0.805,0.594l-0.848,0.678l-0.764,0.68l-0.763,0.721l-0.721,0.762   l-0.678,0.764l-0.636,0.848l-0.636,0.848l-0.552,0.891l-0.551,0.932l-0.509,0.934l-0.466,1.016l-0.424,1.018l-0.382,1.061   l-0.339,1.102l-0.297,1.145l-0.254,1.188l-0.212,1.186l-0.17,1.271l-0.127,1.271l-0.043,1.314l-0.042,1.357l0.085,2.203   l0.254,2.078l0.382,1.992l0.509,1.906l0.678,1.738l0.806,1.695l0.89,1.611l1.018,1.482l1.102,1.441l1.188,1.314l1.313,1.271   l1.356,1.23l1.399,1.143l1.483,1.104l1.568,1.059l1.568,1.018l1.61,0.975l1.61,0.934l1.653,0.889l1.653,0.891l1.653,0.891   l1.653,0.848l1.652,0.848l1.611,0.848l1.568,0.891l1.525,0.848l1.483,0.891l1.441,0.889l1.356,0.934l1.271,0.975l1.229,1.018   l1.103,1.059l1.017,1.104l0.891,1.145l0.805,1.186l0.636,1.271l0.552,1.357l0.381,1.398l0.255,1.525l0.085,1.568l-0.043,0.891   l-0.042,0.891l-0.043,0.805l-0.127,0.805l-0.127,0.807l-0.127,0.762l-0.212,0.721l-0.17,0.68l-0.254,0.678l-0.255,0.678   l-0.254,0.594l-0.297,0.594l-0.339,0.594l-0.339,0.551l-0.382,0.508l-0.382,0.51l-0.381,0.465l-0.424,0.424l-0.467,0.424   l-0.466,0.424l-0.467,0.383l-0.509,0.338l-0.508,0.34l-0.509,0.34l-0.552,0.254l-0.593,0.297l-0.552,0.254l-0.593,0.211   l-0.594,0.213l-0.636,0.211l-0.636,0.17l-0.636,0.127l-0.636,0.127l-0.679,0.129l-0.678,0.084l-0.679,0.084l-0.678,0.043   l-0.721,0.043l-0.678,0.041h-0.721h-0.594l-0.594-0.041l-0.593-0.043l-0.594-0.043l-0.594-0.084l-0.593-0.084l-0.551-0.129   l-0.594-0.127l-0.594-0.168l-0.593-0.17l-0.552-0.213l-0.551-0.211l-0.551-0.256l-0.552-0.254l-0.551-0.297l-0.551-0.297   l-0.509-0.338l-0.509-0.34l-0.466-0.381l-0.509-0.424l-0.466-0.424l-0.425-0.467l-0.424-0.508l-0.424-0.51l-0.424-0.551   l-0.381-0.594l-0.34-0.594l-0.339-0.635l-0.297-0.637l-0.296-0.721l-0.297-0.719l-0.212-0.764l-0.255-0.764l-0.169-0.805   l-0.17-0.891l-0.127-0.848l-0.127-0.932l-0.085-0.975l-0.043-0.977v-1.018c0-0.211,0-0.254,0-0.254c0-0.211,0-0.297,0-0.297   c0-0.168,0-0.297,0-0.297c0-0.168,0-0.254,0-0.254c0-0.211,0-0.297,0-0.297c0-0.211,0-0.297,0-0.297c0-0.168,0-0.254,0-0.254   c0-0.17,0-0.254,0-0.254c0-0.213,0-0.254,0-0.254C387.171,613.871,375.006,613.871,375.006,613.871z"
   id="path28"
   style="stroke:none;fill:#000000;fill-opacity:1" />
</g>

<g
   id="LWPOLYLINE_10_"
   style="stroke:none;fill:#000000;fill-opacity:1">
	
		
</g>
</svg>