<?xml version="1.0" encoding="UTF-8" standalone="no"?>
<!-- Generator: Adobe Illustrator 16.0.1, SVG Export Plug-In . SVG Version: 6.00 Build 0)  -->

<svg
   xmlns:dc="http://purl.org/dc/elements/1.1/"
   xmlns:cc="http://creativecommons.org/ns#"
   xmlns:rdf="http://www.w3.org/1999/02/22-rdf-syntax-ns#"
   xmlns:svg="http://www.w3.org/2000/svg"
   xmlns="http://www.w3.org/2000/svg"
   xmlns:sodipodi="http://sodipodi.sourceforge.net/DTD/sodipodi-0.dtd"
   xmlns:inkscape="http://www.inkscape.org/namespaces/inkscape"
   version="1.0"
   id="_x31_"
   x="0px"
   y="0px"
   width="612px"
   height="792px"
   viewBox="0 0 612 792"
   enable-background="new 0 0 612 792"
   xml:space="preserve"
   inkscape:version="0.48.2 r9819"
   sodipodi:docname="7041.svg"><metadata
   id="metadata19"><rdf:RDF><cc:Work
       rdf:about=""><dc:format>image/svg+xml</dc:format><dc:type
         rdf:resource="http://purl.org/dc/dcmitype/StillImage" /></cc:Work></rdf:RDF></metadata><defs
   id="defs17" /><sodipodi:namedview
   pagecolor="#ffffff"
   bordercolor="#666666"
   borderopacity="1"
   objecttolerance="10"
   gridtolerance="10"
   guidetolerance="10"
   inkscape:pageopacity="0"
   inkscape:pageshadow="2"
   inkscape:window-width="1920"
   inkscape:window-height="1068"
   id="namedview15"
   showgrid="false"
   inkscape:zoom="1.1919192"
   inkscape:cx="64.640253"
   inkscape:cy="369.76429"
   inkscape:window-x="0"
   inkscape:window-y="0"
   inkscape:window-maximized="1"
   inkscape:current-layer="_x31_" />
<g
   id="LWPOLYLINE"
   style="stroke:none;stroke-opacity:1;fill:#000000;fill-opacity:1">
	
		<polygon
   fill="none"
   stroke="#000000"
   stroke-width="0.7087"
   stroke-linecap="round"
   stroke-linejoin="round"
   stroke-miterlimit="10"
   points="   390.08,297.609 390.609,297.609 391.193,297.635 391.723,297.662 392.254,297.689 392.836,297.742 393.365,297.795    393.896,297.848 394.479,297.928 395.008,298.006 395.539,298.086 396.068,298.191 396.598,298.299 397.182,298.404    397.711,298.537 398.24,298.668 398.771,298.801 399.301,298.961 399.777,299.119 400.309,299.305 400.838,299.49 401.367,299.676    401.844,299.861 402.375,300.072 402.904,300.285 403.381,300.523 403.857,300.736 404.389,300.975 404.865,301.238    405.342,301.504 405.818,301.77 406.295,302.033 406.773,302.326 407.197,302.617 407.674,302.908 408.15,303.199 408.574,303.518    408.998,303.836 409.475,304.18 409.898,304.498 410.322,304.842 410.746,305.213 411.117,305.559 411.541,305.928    411.967,306.299 412.336,306.67 412.707,307.068 413.078,307.439 413.449,307.863 413.82,308.26 414.191,308.658 414.562,309.082    414.881,309.506 415.199,309.93 415.516,310.354 415.834,310.805 416.152,311.254 416.471,311.705 416.787,312.154    417.053,312.605 417.318,313.082 417.582,313.559 417.848,314.037 418.113,314.514 418.377,314.99 418.59,315.467 418.855,315.971    419.066,316.447 419.279,316.951 419.438,317.455 419.65,317.957 419.861,318.488 420.021,318.99 420.18,319.494 420.338,320.023    420.498,320.527 420.604,321.059 420.762,321.588 420.869,322.117 420.975,322.646 421.08,323.178 421.186,323.707 421.24,324.236    421.293,324.768 421.398,325.324 421.451,325.854 421.451,326.383 421.504,326.939 421.557,327.469 421.557,328 421.557,328.557    421.557,329.086 421.557,329.615 421.504,330.172 421.451,330.701 421.451,331.232 421.398,331.789 421.293,332.318    421.24,332.848 421.186,333.379 421.08,333.908 420.975,334.438 420.869,334.969 420.762,335.498 420.604,336.027 420.498,336.559    420.338,337.061 420.18,337.592 420.021,338.094 419.861,338.625 419.65,339.127 419.438,339.631 419.279,340.135 419.066,340.639    418.855,341.115 418.59,341.619 418.377,342.096 418.113,342.6 417.848,343.076 417.582,343.553 417.318,344.004 417.053,344.48    416.787,344.93 416.471,345.381 416.152,345.832 415.834,346.281 415.516,346.732 415.199,347.156 414.881,347.58 414.562,348.004    414.191,348.428 413.82,348.824 413.449,349.25 413.078,349.646 412.707,350.045 412.336,350.414 411.967,350.785 411.541,351.156    411.117,351.527 410.746,351.898 410.322,352.242 409.898,352.588 409.475,352.906 408.998,353.25 408.574,353.568 408.15,353.887    407.674,354.178 407.197,354.496 406.773,354.787 406.295,355.051 405.818,355.344 405.342,355.607 404.865,355.846    404.389,356.111 403.857,356.35 403.381,356.588 402.904,356.801 402.375,357.012 401.844,357.225 401.367,357.41 400.838,357.621    400.309,357.781 399.777,357.967 399.301,358.125 398.771,358.283 398.24,358.416 397.711,358.549 397.182,358.682    396.598,358.787 396.068,358.893 395.539,359 395.008,359.105 394.479,359.186 393.896,359.238 393.365,359.318 392.836,359.371    392.254,359.396 391.723,359.424 391.193,359.449 390.609,359.477 390.08,359.477 389.551,359.477 388.967,359.449    388.438,359.424 387.908,359.396 387.324,359.371 386.795,359.318 386.266,359.238 385.682,359.186 385.152,359.105 384.623,359    384.092,358.893 383.51,358.787 382.98,358.682 382.449,358.549 381.92,358.416 381.391,358.283 380.859,358.125 380.33,357.967    379.854,357.781 379.322,357.621 378.793,357.41 378.264,357.225 377.787,357.012 377.256,356.801 376.779,356.588 376.303,356.35    375.773,356.111 375.295,355.846 374.818,355.607 374.342,355.344 373.865,355.051 373.389,354.787 372.965,354.496    372.486,354.178 372.01,353.887 371.586,353.568 371.162,353.25 370.686,352.906 370.262,352.588 369.838,352.242 369.414,351.898    369.043,351.527 368.619,351.156 368.195,350.785 367.824,350.414 367.453,350.045 367.082,349.646 366.711,349.25 366.34,348.824    365.969,348.428 365.598,348.004 365.281,347.58 364.963,347.156 364.592,346.732 364.273,346.281 364.008,345.832    363.691,345.381 363.373,344.93 363.107,344.48 362.844,344.004 362.578,343.553 362.312,343.076 362.049,342.6 361.783,342.096    361.57,341.619 361.307,341.115 361.094,340.639 360.883,340.135 360.67,339.631 360.512,339.127 360.299,338.625 360.141,338.094    359.98,337.592 359.822,337.061 359.664,336.559 359.557,336.027 359.398,335.498 359.293,334.969 359.186,334.438 359.08,333.908    358.975,333.379 358.922,332.848 358.816,332.318 358.762,331.789 358.709,331.232 358.656,330.701 358.656,330.172    358.604,329.615 358.604,329.086 358.604,328.557 358.604,328 358.604,327.469 358.656,326.939 358.656,326.383 358.709,325.854    358.762,325.324 358.816,324.768 358.922,324.236 358.975,323.707 359.08,323.178 359.186,322.646 359.293,322.117    359.398,321.588 359.557,321.059 359.664,320.527 359.822,320.023 359.98,319.494 360.141,318.99 360.299,318.488 360.512,317.957    360.67,317.455 360.883,316.951 361.094,316.447 361.307,315.971 361.57,315.467 361.783,314.99 362.049,314.514 362.312,314.037    362.578,313.559 362.844,313.082 363.107,312.605 363.373,312.154 363.691,311.705 364.008,311.254 364.273,310.805    364.592,310.354 364.963,309.93 365.281,309.506 365.598,309.082 365.969,308.658 366.34,308.26 366.711,307.863 367.082,307.439    367.453,307.068 367.824,306.67 368.195,306.299 368.619,305.928 369.043,305.559 369.414,305.213 369.838,304.842    370.262,304.498 370.686,304.18 371.162,303.836 371.586,303.518 372.01,303.199 372.486,302.908 372.965,302.617 373.389,302.326    373.865,302.033 374.342,301.77 374.818,301.504 375.295,301.238 375.773,300.975 376.303,300.736 376.779,300.523    377.256,300.285 377.787,300.072 378.264,299.861 378.793,299.676 379.322,299.49 379.854,299.305 380.33,299.119 380.859,298.961    381.391,298.801 381.92,298.668 382.449,298.537 382.98,298.404 383.51,298.299 384.092,298.191 384.623,298.086 385.152,298.006    385.682,297.928 386.266,297.848 386.795,297.795 387.324,297.742 387.908,297.689 388.438,297.662 388.967,297.635    389.551,297.609  "
   id="polygon4"
   style="stroke:none;stroke-opacity:1;fill:#000000;fill-opacity:1" />
</g>
<g
   id="LWPOLYLINE_1_"
   style="stroke:none;fill:#000000;fill-opacity:1">
	
		<path
   fill="none"
   stroke="#000000"
   stroke-width="0.7087"
   stroke-linecap="round"
   stroke-linejoin="round"
   stroke-miterlimit="10"
   d="   M332.584,207.443l-2.277-3.205l-2.279-3.127l-2.279-3.047l-2.277-2.967l-2.332-2.889l-2.332-2.809l-2.332-2.729l-2.33-2.65   l-2.385-2.543l-2.385-2.49l-2.385-2.385l-2.385-2.332l-2.385-2.225l-2.385-2.121l-2.438-2.066l-2.438-1.961l-2.385-1.881   l-2.438-1.775l-2.438-1.695l-2.438-1.617l-2.438-1.51l-2.385-1.43l-2.438-1.326l-2.438-1.244l-2.412-1.166l-2.41-1.033l-2.412-0.98   l-2.41-0.848l-2.385-0.77l-2.385-0.688l-2.385-0.557l-2.357-0.477l-2.359-0.371l-2.33-0.293l-2.332-0.158l-2.305-0.08l-2.307,0.027   l-2.277,0.105l-2.252,0.238l-2.252,0.346l-2.227,0.344l-2.252,0.477l-2.227,0.584l-2.199,0.662l-2.225,0.795l-2.227,0.873   l-2.199,1.008l-2.199,1.086l-2.225,1.166l-2.199,1.299l-2.199,1.377l-2.172,1.484l-2.199,1.562l-2.174,1.67l-2.199,1.748   l-2.172,1.828l-2.172,1.961l-2.146,2.014l-2.174,2.119l-2.172,2.174l-2.146,2.277l-2.146,2.385l-2.146,2.438l-2.145,2.545   l-2.146,2.596l-2.146,2.703l-2.119,2.756l-2.146,2.834l-2.119,2.914l-2.121,2.994l-2.119,3.074l-2.119,3.152l-2.119,3.207   l-2.094,3.285l-2.094,3.338l-2.119,3.418l-2.094,3.471l-2.094,3.551l-2.066,3.631l-2.092,3.656l-1.988,3.523l-1.986,3.551   l-1.961,3.629l-1.961,3.684l-1.934,3.762l-1.936,3.816l-1.906,3.895l-1.908,3.947l-1.881,4.027l-1.881,4.055l-1.855,4.16   l-1.855,4.213l-1.854,4.266l-1.828,4.346l-1.803,4.424l-1.828,4.479l-1.801,4.529l-1.803,4.611l-1.775,4.689l-1.775,4.742   l-1.773,4.822l-1.75,4.902l-1.748,4.955l-1.748,5.033l-1.75,5.113l-1.748,5.168l-1.723,5.246l-1.723,5.326l-1.721,5.377   l-1.723,5.484l-1.723,5.512l-1.695,5.617l-1.723,5.697l-1.695,5.75l-1.695,5.828l-1.697,5.936l-1.721,5.988l-1.697,6.041   l-1.695,6.146l-1.695,6.199c0.211,0,0.477,0,0.477,0h0.346h0.424h0.502h0.609h0.637h0.742h0.768h0.848h0.875h0.928h0.953h1.008   h1.033h1.033h1.059h1.088h1.059h1.086h1.088h1.059h1.033h1.033h1.008h0.953h0.928h0.875h0.848h0.768h0.742h0.662h0.584h0.502h0.424   h0.346c0.264,0,0.424,0,0.424,0c0.053,0,0.371-2.014,0.371-2.014l0.318-1.961l0.316-1.959l0.371-2.014l0.346-1.961l0.371-1.961   l0.396-1.908l0.398-1.961l0.396-1.961l0.424-1.906l0.424-1.908l0.451-1.961l0.449-1.908l0.451-1.906l0.477-1.961l0.504-1.908   l0.504-1.908l0.502-1.934l0.531-1.908l0.529-1.934l0.529-1.934l0.557-1.936l0.584-1.934l0.582-1.961l0.584-1.961l0.609-1.961   l0.609-1.961l0.635-1.986l0.637-1.986l0.635-2.014l0.662-2.014l0.689-2.014l0.662-2.041l0.717-2.066l0.688-2.066l0.717-2.066   l0.74-2.094l0.742-2.119l0.742-2.146l0.77-2.146l0.795-2.252l0.768-2.252l0.795-2.252l0.795-2.279L134,335.1l0.82-2.305   l0.822-2.305l0.82-2.305l0.85-2.305l0.848-2.307l0.848-2.332l0.848-2.305l0.875-2.332l0.873-2.33l0.9-2.307l0.875-2.33l0.9-2.332   l0.902-2.332l0.926-2.305l0.902-2.332l0.953-2.305l0.928-2.305l0.928-2.307l0.953-2.305l0.98-2.277l0.953-2.279l0.98-2.279   l0.98-2.277l0.98-2.254l1.008-2.252l1.006-2.225l1.008-2.227l1.033-2.199l1.033-2.199l1.033-2.172l1.033-2.172l1.059-2.146   l1.061-2.119l1.061-2.121l1.086-2.092l1.246-2.254l1.271-2.225l1.297-2.252l1.326-2.227l1.324-2.252l1.377-2.225l1.379-2.227   l1.377-2.225l1.432-2.199l1.404-2.199l1.457-2.174l1.43-2.172l1.459-2.146l1.482-2.119l1.457-2.094l1.484-2.094l1.484-2.039   l1.482-2.014l1.484-2.014l1.484-1.961l1.482-1.934l1.484-1.908l1.457-1.855l1.484-1.828l1.457-1.775l1.457-1.748l1.432-1.695   l1.43-1.643l1.432-1.617l1.377-1.537l1.404-1.51l1.352-1.457l1.352-1.377l1.324-1.352l1.299-1.271l1.299-1.219l1.244-1.166   l1.219-1.086l1.219-1.035l1.166-0.953l1.457-0.98l1.432-0.928l1.404-0.848l1.377-0.82l1.379-0.742l1.352-0.715l1.324-0.637   l1.324-0.582l1.299-0.531l1.271-0.502l1.271-0.426l1.246-0.396l1.244-0.344l1.219-0.293l1.193-0.238l1.219-0.211l1.166-0.16   l1.191-0.105l1.166-0.053l1.166-0.027l1.139,0.027l1.166,0.053l1.141,0.105l1.111,0.16l1.141,0.186l1.139,0.211l1.113,0.266   l1.113,0.291l1.111,0.346l1.141,0.344l1.111,0.424l1.113,0.424l1.113,0.477l1.139,0.504l1.113,0.529l1.139,0.557l1.141,0.609   l1.139,0.609l1.139,0.662l1.141,0.689l1.006,0.396l1.033,0.451l1.033,0.451l1.033,0.502l1.033,0.557l1.061,0.584l1.061,0.609   l1.059,0.635l1.033,0.664l1.113,0.715l1.061,0.742l1.059,0.768l1.061,0.795l1.113,0.848l1.059,0.875l1.061,0.9l1.061,0.928   l1.059,0.953l1.061,1.008l1.008,1.033l1.059,1.059l1.008,1.088l1.059,1.111l0.955,1.141l1.006,1.191l1.008,1.193l0.953,1.244   l0.953,1.271l0.955,1.299l0.9,1.324l0.9,1.352l0.9,1.404l0.902,1.404l0.848,1.432l0.795,1.482l0.848,1.484l0.742,1.537l0.795,1.562   l0.688,1.564l0.742,1.615c0.16-0.105,0.371-0.238,0.371-0.238l0.266-0.158l0.318-0.238l0.424-0.238l0.424-0.293l0.529-0.344   l0.582-0.344l0.584-0.398l0.689-0.424l0.688-0.451l0.742-0.449l0.742-0.477l0.795-0.504l0.795-0.529l0.795-0.504l0.848-0.529   l0.848-0.557l0.848-0.531l0.848-0.529l0.848-0.557l0.85-0.529l0.795-0.531l0.795-0.502l0.795-0.504l0.793-0.477l0.689-0.477   l0.689-0.424l0.689-0.424l0.582-0.398l0.584-0.371l0.529-0.318l0.477-0.291l0.371-0.266l0.371-0.211l0.266-0.158   C332.373,207.551,332.531,207.471,332.584,207.443z"
   id="path7"
   style="stroke:none;fill:#000000;fill-opacity:1" />
</g>
<g
   id="LWPOLYLINE_2_"
   style="stroke:none;fill:#000000;fill-opacity:1">
	
		<path
   fill="none"
   stroke="#000000"
   stroke-width="0.7087"
   stroke-linecap="round"
   stroke-linejoin="round"
   stroke-miterlimit="10"
   d="   M533.316,288.945l-5.352,0.318l-5.354,0.396l-5.299,0.424l-5.299,0.477l-5.246,0.531l-5.246,0.582l-5.193,0.609l-5.141,0.662   l-5.141,0.717l-5.086,0.74l-5.088,0.822l-5.033,0.82l-4.982,0.902l-4.928,0.926l-4.928,0.955l-4.928,1.006l-4.875,1.033   l-4.822,1.088l-4.77,1.139l-4.77,1.139l-4.717,1.193l-4.662,1.244l-4.664,1.271l-4.609,1.299l-4.611,1.324l-4.557,1.379   l-4.504,1.404l-4.451,1.43l-4.453,1.459l-4.396,1.482l-4.346,1.537l-4.346,1.537l-4.293,1.59l-4.238,1.615l-4.24,1.643l-4.186,1.67   l-4.133,1.67l-4.135,1.721l-4.027,1.75l-4.027,1.748l-3.973,1.723l-3.869,1.723l-3.816,1.775l-3.762,1.801l-3.656,1.803   l-3.604,1.854l-3.551,1.881l-3.443,1.883l-3.393,1.934l-3.391,1.934l-3.285,1.988l-3.18,2.014l-3.18,2.014l-3.127,2.066   l-3.127,2.066l-3.02,2.119l-2.967,2.119l-2.969,2.146l-2.914,2.199l-2.836,2.199l-2.834,2.227l-2.809,2.252l-2.783,2.277   l-2.729,2.307l-2.729,2.33l-2.703,2.359l-2.676,2.385l-2.65,2.41l-2.648,2.412l-2.623,2.438l-2.623,2.49l-2.598,2.49l-2.596,2.543   l-2.596,2.545l-2.598,2.596l-2.596,2.598l-2.598,2.596l-2.596,2.65l-2.598,2.648l-2.623,2.703l-2.385,2.49l-2.357,2.598   l-2.357,2.648l-2.359,2.703l-2.332,2.809l-2.305,2.809l-2.305,2.914l-2.279,2.967l-2.252,2.969l-2.252,3.02l-2.225,3.074   l-2.199,3.127l-2.199,3.18l-2.146,3.178l-2.146,3.18l-2.119,3.232l-2.094,3.232l-2.066,3.287l-2.041,3.232l-2.014,3.285   l-1.986,3.285l-1.986,3.285l-1.936,3.285l-1.881,3.285l-1.881,3.232l-1.855,3.232l-1.801,3.232l-1.775,3.232l-1.748,3.18   l-1.723,3.127l-1.67,3.127l-1.643,3.074l-1.615,3.072l-1.564,2.969l-1.537,2.967l-1.482,2.914l-1.457,2.809l-1.432,2.809   l-1.352,2.703l-1.352,2.648l-1.139,2.65l-1.166,2.596l-1.166,2.65l-1.166,2.596l-1.166,2.598l-1.164,2.596l-1.166,2.598   l-1.141,2.596l-1.166,2.598l-1.139,2.596l-1.139,2.598l-1.141,2.543l-1.139,2.596l-1.113,2.545l-1.111,2.596l-1.113,2.543   l-1.086,2.598l-1.061,2.543l-1.061,2.543l-1.059,2.545l-1.033,2.543l-1.008,2.543l-1.006,2.545l-0.98,2.543l-0.955,2.49   l-0.953,2.545l-0.928,2.543l-0.875,2.49l-0.9,2.543l-0.848,2.492l-0.82,2.49l-0.795,2.543l-0.77,2.49l-0.742,2.49l-0.715,2.492   l-0.689,2.49l-0.662,2.49l-0.609,2.438l-0.609,2.49l-0.557,2.49c0.213,0,0.451,0,0.451,0h0.344h0.398h0.504h0.555h0.637h0.715   h0.742h0.795h0.875h0.873h0.928h0.98h0.98h1.008h1.033h1.033h1.033h1.033h1.033h1.033h1.008h0.979h0.98h0.928h0.875h0.875h0.793   h0.742h0.717h0.635h0.557h0.504h0.396h0.346c0.238,0,0.396,0,0.396,0c0.053,0,2.146-6.146,2.146-6.146l2.094-6.041l2.146-5.988   l2.145-5.881l2.146-5.777l2.199-5.723l2.199-5.67l2.227-5.564l2.252-5.51l2.252-5.406l2.305-5.352l2.305-5.246l2.305-5.246   l2.359-5.088l2.357-5.088l2.359-4.98l2.41-4.928l2.412-4.875l2.438-4.822l2.463-4.717l2.465-4.662l2.518-4.664l2.516-4.504   l2.518-4.504l2.57-4.451l2.57-4.398l2.57-4.346l2.623-4.24l2.623-4.238l2.648-4.188l2.676-4.133l2.678-4.08l2.729-4.027   l2.729-3.975l2.729-3.922l2.783-3.867l2.781-3.869l2.783-3.814l2.834-3.764l2.836-3.709l3.072-3.604l3.074-3.498l3.074-3.496   l3.047-3.393l3.047-3.338l3.047-3.285l3.047-3.18l3.02-3.18l3.047-3.072l3.049-3.021l3.047-2.967l3.047-2.916l3.072-2.861   l3.047-2.809l3.102-2.756l3.072-2.648l3.127-2.65l3.074-2.543l3.178-2.543l3.127-2.438l3.18-2.412l3.18-2.332l3.232-2.305   l3.232-2.252l3.232-2.199l3.285-2.119l3.34-2.094l3.338-2.039l3.391-2.014l3.393-1.936l3.443-1.906l3.498-1.83l3.551-1.801   l3.551-1.748l3.602-1.723l3.658-1.67l3.656-1.615l3.762-1.564l3.762-1.535l3.816-1.484l3.814-1.695l3.816-1.643l3.867-1.617   l3.869-1.59l3.922-1.562l3.92-1.512l3.975-1.482l3.975-1.457l4.027-1.432l4.027-1.377l4.08-1.352l4.08-1.324l4.135-1.273   l4.133-1.244l4.186-1.219l4.188-1.166l4.186-1.139l4.24-1.113l4.238-1.061l4.293-1.006l4.238-0.98l4.346-0.955l4.293-0.9   l4.346-0.875l4.398-0.82l4.344-0.795l4.398-0.742l4.398-0.689l4.451-0.662l4.398-0.635l4.451-0.557l4.451-0.557l4.504-0.477   l4.451-0.451l4.506-0.396l4.504-0.371l4.557-0.318l4.504-0.266l4.559-0.211l4.504-0.186c0-0.213,0-0.451,0-0.451v-0.318v-0.424   v-0.502v-0.557v-0.637v-0.689v-0.768v-0.795v-0.848v-0.9v-0.928v-0.98v-0.98v-1.008v-1.033v-1.033v-1.033v-1.033v-1.059v-1.008   v-1.006v-1.008v-0.953v-0.928v-0.9v-0.848v-0.822v-0.742v-0.689v-0.635v-0.584v-0.477v-0.424v-0.344   C533.316,289.131,533.316,288.998,533.316,288.945z"
   id="path10"
   style="stroke:none;fill:#000000;fill-opacity:1" />
</g>
<g
   id="LWPOLYLINE_3_"
   style="stroke:none;fill:#000000;fill-opacity:1">
	
		<polygon
   fill="none"
   stroke="#000000"
   stroke-width="0.7087"
   stroke-linecap="round"
   stroke-linejoin="round"
   stroke-miterlimit="10"
   points="   370.844,185.771 377.045,299.781 373.971,298.748 271.777,247.4 271.777,245.359 368.777,184.738  "
   id="polygon13"
   style="stroke:none;fill:#000000;fill-opacity:1" />
</g>
</svg>