<?xml version="1.0" encoding="UTF-8" standalone="no"?>
<!-- Generator: Adobe Illustrator 16.0.1, SVG Export Plug-In . SVG Version: 6.00 Build 0)  -->

<svg
   xmlns:dc="http://purl.org/dc/elements/1.1/"
   xmlns:cc="http://creativecommons.org/ns#"
   xmlns:rdf="http://www.w3.org/1999/02/22-rdf-syntax-ns#"
   xmlns:svg="http://www.w3.org/2000/svg"
   xmlns="http://www.w3.org/2000/svg"
   xmlns:sodipodi="http://sodipodi.sourceforge.net/DTD/sodipodi-0.dtd"
   xmlns:inkscape="http://www.inkscape.org/namespaces/inkscape"
   version="1.0"
   id="_x31_"
   x="0px"
   y="0px"
   width="612px"
   height="792px"
   viewBox="0 0 612 792"
   enable-background="new 0 0 612 792"
   xml:space="preserve"
   inkscape:version="0.48.2 r9819"
   sodipodi:docname="7044.svg"><metadata
   id="metadata169"><rdf:RDF><cc:Work
       rdf:about=""><dc:format>image/svg+xml</dc:format><dc:type
         rdf:resource="http://purl.org/dc/dcmitype/StillImage" /></cc:Work></rdf:RDF></metadata><defs
   id="defs167" /><sodipodi:namedview
   pagecolor="#ffffff"
   bordercolor="#666666"
   borderopacity="1"
   objecttolerance="10"
   gridtolerance="10"
   guidetolerance="10"
   inkscape:pageopacity="0"
   inkscape:pageshadow="2"
   inkscape:window-width="1920"
   inkscape:window-height="1068"
   id="namedview165"
   showgrid="false"
   inkscape:zoom="0.42140707"
   inkscape:cx="215.6077"
   inkscape:cy="85.978802"
   inkscape:window-x="2"
   inkscape:window-y="0"
   inkscape:window-maximized="0"
   inkscape:current-layer="_x31_" />





































<g
   id="LINE_22_">
	
		
</g>















<g
   id="LINE_19_"
   transform="translate(0,5.817545)">
	
		
</g><g
   id="LINE_20_"
   transform="translate(0,5.817545)">
	
		
</g><g
   id="LINE_21_"
   transform="translate(0,5.817545)">
	
		
</g><g
   id="LINE_24_"
   transform="translate(0,5.817545)">
	
		
</g><g
   id="LINE_25_"
   transform="translate(0,5.817545)">
	
		
</g><g
   id="LINE_26_"
   transform="translate(0,5.817545)">
	
		
</g><g
   id="LINE_27_"
   transform="translate(0,5.817545)">
	
		
</g><g
   id="LINE_28_"
   transform="translate(0,5.817545)">
	
		
</g>
<g
   id="g7296"
   transform="translate(0,1.4543991)"><g
     style="fill:#000000;fill-opacity:1;stroke:none"
     transform="matrix(1.0836102,0,0,1.0836102,-22.135893,-27.277612)"
     id="LINE_23_">
	
		<path
   sodipodi:nodetypes="ccccccccccc"
   id="line118"
   d="M 103.3485,460.55349 122.3535,440.31351 233.092,549.77002 385.008,397.914 233.092,246 122.3535,355.50101 102.715,335.22951 233.092,204.25 426.78699,395.00523 233.092,587.40324 z"
   style="fill:#000000;fill-opacity:1;stroke:none"
   inkscape:connector-curvature="0" />
</g><g
     transform="translate(-0.0106951,8.1292637)"
     style="fill:#000000;fill-opacity:1;stroke:none"
     id="LWPOLYLINE_7_-0">
	
		<path
   id="polyline85-3"
   d="m 228.90625,261.1875 c -6.28931,-0.10731 -12.5371,2.06237 -17.1875,7.0625 -3.41366,3.6329 -5.49187,8.33735 -6.46875,13.1875 l -2.53125,6.34375 c -13.9968,-0.62873 -26.5196,11.21906 -26.3125,25.3125 l -0.28125,10.125 c -14.15978,-0.66194 -27.63545,10.76942 -27.65625,26.59375 -0.17,32.06617 -0.15625,62.85659 -0.15625,93.65625 -0.81169,47.61268 46.31592,89.32503 93.5625,81.40625 39.28634,-5.48371 72.39949,-41.2824 72.25,-81.40625 0,-26.998 -0.008,-53.99299 -0.65625,-81.625 -1.27296,-3.20997 -2.18176,-5.83859 -3.9375,-7.875 -8.82152,-7.85674 -20.02984,2.80732 -27.0625,5.96875 l 0,-46.84375 c 0.13568,-14.68694 -13.63034,-25.96683 -27.84375,-25.3125 l 0,-5.0625 c -1.56174,-12.83193 -13.71189,-21.32639 -25.71875,-21.53125 z m 1.125,26 c 2.79003,-0.0718 5.5859,2.6751 5.59375,8.1875 0.0155,37.12434 0.002,74.25067 0.125,111.375 0.86006,6.35007 13.0152,6.3486 13.8125,0.0312 -0.002,-31.252 -0.0143,-62.45925 0.15625,-93.09375 -0.27509,-9.47195 11.23981,-9.45508 11.1875,0.65625 0.016,37.55667 0.0325,75.13084 0.0625,112.6875 0.80916,8.9255 14.34511,8.83066 15.125,0 -5e-4,-11.39233 0.61044,-24.61036 0.75,-34.65625 2.31274,-11.85843 8.27098,-13.28738 16.0625,-13.71875 1.58427,1.19492 1.04093,3.62861 0.9375,4.6875 -9.9e-4,19.61783 10e-6,39.87367 0,60.125 0.15901,25.94241 -17.42596,50.43187 -41.5625,59.5 -38.62623,15.73725 -84.4378,-18.72636 -83.75,-59.5 0,-30.79966 -2.5e-4,-61.59258 0.0312,-92.40625 -0.86331,-9.34654 13.28447,-9.29096 12.46875,0 0.17,18.56266 0.1875,37.13259 0.1875,56.34375 3.23595,6.55118 10.89899,4.4928 13.90625,-0.59375 0.0165,-30.86015 0.0312,-61.67034 0.0312,-92.5625 l 0,-4.4375 c 1.5744,-7.71726 12.84327,-3.58225 12.625,3.90625 l 0,93.03125 c 1.3386,6.43526 14.79729,6.41619 16.09375,0 l 0.375,0 c 0,-36.702 7.5e-4,-73.38524 0.15625,-110.84375 0.0341,-5.73549 2.83497,-8.6469 5.625,-8.71875 z"
   style="fill:#000000;fill-opacity:1;stroke:none"
   inkscape:connector-curvature="0" />
</g></g><g
   id="LINE-9"
   transform="translate(576.25589,334.30194)">
	
		
</g><g
   id="LINE_1_-1"
   transform="translate(576.25589,334.30194)">
	
		
</g><g
   id="LINE_2_-7"
   transform="translate(576.25589,334.30194)">
	
		
</g><g
   id="LINE_3_-2"
   transform="translate(576.25589,334.30194)">
	
		
</g><g
   id="LINE_4_-3"
   transform="translate(576.25589,334.30194)">
	
		
</g><g
   id="LINE_5_-6"
   style="fill:#000000;fill-opacity:1;stroke:none"
   transform="translate(-5.9983476,7.09855)">
	
		<path
   style="fill:#000000;fill-opacity:1;stroke:none"
   d="m 471.04099,183.979 c 0,141.33633 0,282.67265 0,424.00898 -141.33733,0 -282.67466,0 -424.011991,0 0,12.67067 0,25.34135 0,38.01202 150.628331,0 301.256671,0 451.885001,0 22.35301,-82.69533 44.70601,-165.39067 67.05902,-248.086 C 543.62001,313.94267 521.26701,229.97133 498.914,146 c -150.62833,0 -301.25667,0 -451.885001,0 0,12.65967 0,25.31933 0,37.979 141.337331,0 282.674661,0 424.011991,0 z"
   id="line19"
   inkscape:connector-curvature="0" />
</g><g
   id="LINE_6_-5"
   transform="translate(576.25589,334.30194)">
	
		
</g><g
   id="LINE_7_-5"
   transform="translate(576.25589,334.30194)">
	
		
</g><g
   id="LINE_8_-8"
   transform="translate(576.25589,334.30194)">
	
		
</g><g
   id="LINE_9_-1"
   transform="translate(576.25589,334.30194)">
	
		
</g><g
   id="LINE_10_-4"
   transform="translate(576.25589,334.30194)">
	
		
</g><g
   id="LWPOLYLINE-7"
   transform="translate(576.25589,334.30194)">
	
		
</g><g
   id="LINE_11_-1"
   transform="translate(576.25589,334.30194)">
	
		
</g><g
   id="ARC"
   transform="translate(576.25589,334.30194)">
	
		
</g><g
   id="LINE_12_-3"
   transform="translate(576.25589,334.30194)">
	
		
</g><g
   id="LINE_13_-8"
   transform="translate(576.25589,334.30194)">
	
		
</g><g
   id="LWPOLYLINE_1_-4"
   transform="translate(576.25589,334.30194)">
	
		
</g><g
   id="LINE_14_-8"
   transform="translate(576.25589,334.30194)">
	
		
</g><g
   id="LWPOLYLINE_2_-0"
   transform="translate(576.25589,334.30194)">
	
		
</g><g
   id="LINE_15_-4"
   transform="translate(576.25589,334.30194)">
	
		
</g><g
   id="LWPOLYLINE_3_-6"
   transform="translate(576.25589,334.30194)">
	
		
</g><g
   id="LINE_16_-0"
   transform="translate(576.25589,334.30194)">
	
		
</g><g
   id="LWPOLYLINE_4_-3"
   transform="translate(576.25589,334.30194)">
	
		
</g><g
   id="LINE_17_-2"
   transform="translate(576.25589,334.30194)">
	
		
</g><g
   id="LINE_18_-6"
   transform="translate(576.25589,334.30194)">
	
		
</g><g
   id="LWPOLYLINE_5_-9"
   transform="translate(576.25589,334.30194)">
	
		
</g><g
   id="LWPOLYLINE_6_-4"
   transform="translate(576.25589,334.30194)">
	
		
</g><g
   id="LINE_20_-1"
   transform="translate(576.25589,334.30194)">
	
		
</g><g
   id="LINE_22_-3"
   transform="translate(576.25589,334.30194)">
	
		
</g><g
   id="LINE_23_-7"
   transform="translate(576.25589,334.30194)">
	
		
</g><g
   id="LINE_28_-8"
   transform="translate(576.25589,334.30194)">
	
		
</g><g
   id="LINE_29_-8"
   transform="translate(576.25589,334.30194)">
	
		
</g><g
   id="LINE_31_-3"
   transform="translate(576.25589,334.30194)">
	
		
</g><g
   id="LINE_32_-8"
   transform="translate(576.25589,334.30194)">
	
		
</g><g
   id="LINE_33_-1"
   transform="translate(576.25589,334.30194)">
	
		
</g><g
   id="LINE_34_-5"
   transform="translate(576.25589,334.30194)">
	
		
</g><g
   id="LINE_35_-3"
   transform="translate(576.25589,334.30194)">
	
		
</g><g
   id="LWPOLYLINE_8_-5"
   transform="translate(576.25589,334.30194)">
	
		
</g><g
   id="LWPOLYLINE_9_-4"
   transform="translate(576.25589,334.30194)">
	
		
</g><g
   id="LWPOLYLINE_10_-3"
   transform="translate(576.25589,334.30194)">
	
		
</g><g
   id="LWPOLYLINE_11_-6"
   transform="translate(576.25589,334.30194)">
	
		
</g><g
   id="LWPOLYLINE_12_-5"
   transform="translate(576.25589,334.30194)">
	
		
</g><g
   id="LWPOLYLINE_13_-9"
   transform="translate(576.25589,334.30194)">
	
		
</g><g
   id="LWPOLYLINE_14_-5"
   transform="translate(576.25589,334.30194)">
	
		
</g></svg>