<?xml version="1.0" encoding="UTF-8" standalone="no"?>
<!-- Generator: Adobe Illustrator 16.0.1, SVG Export Plug-In . SVG Version: 6.00 Build 0)  -->

<svg
   xmlns:dc="http://purl.org/dc/elements/1.1/"
   xmlns:cc="http://creativecommons.org/ns#"
   xmlns:rdf="http://www.w3.org/1999/02/22-rdf-syntax-ns#"
   xmlns:svg="http://www.w3.org/2000/svg"
   xmlns="http://www.w3.org/2000/svg"
   xmlns:sodipodi="http://sodipodi.sourceforge.net/DTD/sodipodi-0.dtd"
   xmlns:inkscape="http://www.inkscape.org/namespaces/inkscape"
   version="1.0"
   id="_x31_"
   x="0px"
   y="0px"
   width="612px"
   height="792px"
   viewBox="0 0 612 792"
   enable-background="new 0 0 612 792"
   xml:space="preserve"
   inkscape:version="0.48.2 r9819"
   sodipodi:docname="7048.svg"><metadata
   id="metadata28"><rdf:RDF><cc:Work
       rdf:about=""><dc:format>image/svg+xml</dc:format><dc:type
         rdf:resource="http://purl.org/dc/dcmitype/StillImage" /></cc:Work></rdf:RDF></metadata><defs
   id="defs26" /><sodipodi:namedview
   pagecolor="#ffffff"
   bordercolor="#666666"
   borderopacity="1"
   objecttolerance="10"
   gridtolerance="10"
   guidetolerance="10"
   inkscape:pageopacity="0"
   inkscape:pageshadow="2"
   inkscape:window-width="1920"
   inkscape:window-height="1071"
   id="namedview24"
   showgrid="false"
   inkscape:zoom="0.5959596"
   inkscape:cx="1.2180862"
   inkscape:cy="379.22601"
   inkscape:window-x="0"
   inkscape:window-y="0"
   inkscape:window-maximized="1"
   inkscape:current-layer="_x31_" />
<g
   id="LWPOLYLINE_2_"
   style="fill:#000000;fill-opacity:1;stroke:none">
	
		<path
   style="fill:#000000;stroke:none;stroke-width:0.70870000000000000;stroke-linecap:round;stroke-linejoin:round;stroke-miterlimit:10;fill-opacity:1"
   d="M 306 146 L 301.625 146.03125 L 297.28125 146.15625 L 292.9375 146.34375 L 288.5625 146.59375 L 284.21875 146.9375 L 279.84375 147.34375 L 275.53125 147.84375 L 271.21875 148.40625 L 266.875 149.0625 L 262.59375 149.78125 L 258.28125 150.5625 L 254.03125 151.4375 L 249.78125 152.40625 L 245.53125 153.4375 L 241.3125 154.53125 L 237.0625 155.65625 L 232.90625 156.90625 L 228.75 158.21875 L 224.625 159.59375 L 220.5 161.0625 L 216.40625 162.59375 L 212.34375 164.1875 L 208.3125 165.875 L 204.3125 167.625 L 200.34375 169.4375 L 196.40625 171.28125 L 192.5 173.25 L 188.625 175.25 L 184.78125 177.34375 L 181 179.5 L 177.25 181.71875 L 173.53125 183.96875 L 169.84375 186.34375 L 166.1875 188.71875 L 162.625 191.1875 L 159.0625 193.75 L 155.53125 196.34375 L 152.09375 199 L 148.6875 201.6875 L 145.28125 204.5 L 142 207.3125 L 138.71875 210.21875 L 135.5 213.15625 L 132.3125 216.15625 L 129.21875 219.21875 L 126.15625 222.3125 L 123.15625 225.5 L 120.21875 228.71875 L 117.3125 232 L 114.5 235.28125 L 111.6875 238.6875 L 109 242.09375 L 106.34375 245.53125 L 103.75 249.0625 L 101.1875 252.625 L 98.71875 256.1875 L 96.34375 259.84375 L 93.96875 263.53125 L 91.71875 267.25 L 89.5 271 L 87.34375 274.78125 L 85.25 278.625 L 83.25 282.5 L 81.28125 286.40625 L 79.4375 290.34375 L 77.625 294.3125 L 75.875 298.3125 L 74.1875 302.34375 L 72.59375 306.40625 L 71.0625 310.5 L 69.59375 314.625 L 68.21875 318.75 L 66.90625 322.90625 L 65.65625 327.0625 L 64.53125 331.3125 L 63.4375 335.53125 L 62.40625 339.78125 L 61.4375 344.03125 L 60.5625 348.28125 L 59.78125 352.59375 L 59.0625 356.875 L 58.40625 361.21875 L 57.84375 365.53125 L 57.34375 369.84375 L 56.9375 374.1875 L 56.625 378.5625 L 56.34375 382.9375 L 56.15625 387.28125 L 56.03125 391.625 L 56 396 L 56.03125 400.375 L 56.15625 404.75 L 56.34375 409.0625 L 56.625 413.4375 L 56.9375 417.78125 L 57.34375 422.15625 L 57.84375 426.46875 L 58.40625 430.78125 L 59.0625 435.125 L 59.78125 439.4375 L 60.5625 443.71875 L 61.4375 447.96875 L 62.40625 452.25 L 63.4375 456.46875 L 64.53125 460.6875 L 65.65625 464.9375 L 66.90625 469.09375 L 68.21875 473.25 L 69.59375 477.375 L 71.0625 481.5 L 72.59375 485.5625 L 74.1875 489.65625 L 75.875 493.71875 L 77.625 497.6875 L 79.4375 501.65625 L 81.28125 505.625 L 83.25 509.46875 L 85.25 513.40625 L 87.34375 517.21875 L 89.5 521.03125 L 91.71875 524.78125 L 93.96875 528.5 L 96.34375 532.15625 L 98.71875 535.8125 L 101.1875 539.375 L 103.75 542.9375 L 106.34375 546.46875 L 109 549.90625 L 111.6875 553.3125 L 114.5 556.6875 L 117.3125 560.03125 L 120.21875 563.28125 L 123.15625 566.5 L 126.15625 569.65625 L 129.21875 572.8125 L 132.3125 575.84375 L 135.5 578.84375 L 138.71875 581.8125 L 142 584.71875 L 145.28125 587.5 L 148.6875 590.3125 L 152.09375 593 L 155.53125 595.65625 L 159.0625 598.25 L 162.625 600.78125 L 166.1875 603.28125 L 169.84375 605.65625 L 173.53125 608 L 177.25 610.28125 L 181 612.53125 L 184.78125 614.65625 L 188.625 616.75 L 192.5 618.75 L 196.40625 620.71875 L 200.34375 622.59375 L 204.3125 624.375 L 208.3125 626.125 L 212.34375 627.78125 L 216.40625 629.40625 L 220.5 630.9375 L 224.625 632.375 L 228.75 633.78125 L 232.90625 635.0625 L 237.0625 636.34375 L 241.3125 637.5 L 245.53125 638.5625 L 249.78125 639.59375 L 254.03125 640.5625 L 258.28125 641.4375 L 262.59375 642.25 L 266.875 642.9375 L 271.21875 643.5625 L 275.53125 644.15625 L 279.84375 644.625 L 284.21875 645.03125 L 288.5625 645.375 L 292.9375 645.65625 L 297.28125 645.84375 L 301.625 645.9375 L 306 646 L 310.375 645.9375 L 314.75 645.84375 L 319.0625 645.65625 L 323.4375 645.375 L 327.78125 645.03125 L 332.15625 644.625 L 336.46875 644.15625 L 340.78125 643.5625 L 345.125 642.9375 L 349.4375 642.25 L 353.71875 641.4375 L 357.96875 640.5625 L 362.25 639.59375 L 366.46875 638.5625 L 370.6875 637.5 L 374.9375 636.34375 L 379.09375 635.0625 L 383.25 633.78125 L 387.375 632.375 L 391.5 630.9375 L 395.5625 629.40625 L 399.65625 627.78125 L 403.71875 626.125 L 407.6875 624.375 L 411.65625 622.59375 L 415.625 620.71875 L 419.46875 618.75 L 423.40625 616.75 L 427.21875 614.65625 L 431.03125 612.53125 L 434.78125 610.28125 L 438.5 608 L 442.15625 605.65625 L 445.8125 603.28125 L 449.375 600.78125 L 452.9375 598.25 L 456.46875 595.65625 L 459.90625 593 L 463.3125 590.3125 L 466.6875 587.5 L 470.03125 584.71875 L 473.28125 581.8125 L 476.5 578.84375 L 479.65625 575.84375 L 482.8125 572.8125 L 485.84375 569.65625 L 488.84375 566.5 L 491.8125 563.28125 L 494.71875 560.03125 L 497.5 556.6875 L 500.3125 553.3125 L 503 549.90625 L 505.65625 546.46875 L 508.25 542.9375 L 510.78125 539.375 L 513.28125 535.8125 L 515.65625 532.15625 L 518 528.5 L 520.28125 524.78125 L 522.53125 521.03125 L 524.65625 517.21875 L 526.75 513.40625 L 528.75 509.46875 L 530.71875 505.625 L 532.59375 501.65625 L 534.375 497.6875 L 536.125 493.71875 L 537.78125 489.65625 L 539.40625 485.5625 L 540.9375 481.5 L 542.375 477.375 L 543.78125 473.25 L 545.0625 469.09375 L 546.34375 464.9375 L 547.5 460.6875 L 548.5625 456.46875 L 549.59375 452.25 L 550.5625 447.96875 L 551.4375 443.71875 L 552.25 439.4375 L 552.9375 435.125 L 553.5625 430.78125 L 554.15625 426.46875 L 554.625 422.15625 L 555.03125 417.78125 L 555.375 413.4375 L 555.65625 409.0625 L 555.84375 404.75 L 555.9375 400.375 L 556 396 L 555.9375 391.625 L 555.84375 387.28125 L 555.65625 382.9375 L 555.375 378.5625 L 555.03125 374.1875 L 554.625 369.84375 L 554.15625 365.53125 L 553.5625 361.21875 L 552.9375 356.875 L 552.25 352.59375 L 551.4375 348.28125 L 550.5625 344.03125 L 549.59375 339.78125 L 548.5625 335.53125 L 547.5 331.3125 L 546.34375 327.0625 L 545.0625 322.90625 L 543.78125 318.75 L 542.375 314.625 L 540.9375 310.5 L 539.40625 306.40625 L 537.78125 302.34375 L 536.125 298.3125 L 534.375 294.3125 L 532.59375 290.34375 L 530.71875 286.40625 L 528.75 282.5 L 526.75 278.625 L 524.65625 274.78125 L 522.53125 271 L 520.28125 267.25 L 518 263.53125 L 515.65625 259.84375 L 513.28125 256.1875 L 510.78125 252.625 L 508.25 249.0625 L 505.65625 245.53125 L 503 242.09375 L 500.3125 238.6875 L 497.5 235.28125 L 494.71875 232 L 491.8125 228.71875 L 488.84375 225.5 L 485.84375 222.3125 L 482.8125 219.21875 L 479.65625 216.15625 L 476.5 213.15625 L 473.28125 210.21875 L 470.03125 207.3125 L 466.6875 204.5 L 463.3125 201.6875 L 459.90625 199 L 456.46875 196.34375 L 452.9375 193.75 L 449.375 191.1875 L 445.8125 188.71875 L 442.15625 186.34375 L 438.5 183.96875 L 434.78125 181.71875 L 431.03125 179.5 L 427.21875 177.34375 L 423.40625 175.25 L 419.46875 173.25 L 415.625 171.28125 L 411.65625 169.4375 L 407.6875 167.625 L 403.71875 165.875 L 399.65625 164.1875 L 395.5625 162.59375 L 391.5 161.0625 L 387.375 159.59375 L 383.25 158.21875 L 379.09375 156.90625 L 374.9375 155.65625 L 370.6875 154.53125 L 366.46875 153.4375 L 362.25 152.40625 L 357.96875 151.4375 L 353.71875 150.5625 L 349.4375 149.78125 L 345.125 149.0625 L 340.78125 148.40625 L 336.46875 147.84375 L 332.15625 147.34375 L 327.78125 146.9375 L 323.4375 146.59375 L 319.0625 146.34375 L 314.75 146.15625 L 310.375 146.03125 L 306 146 z M 306 178.28125 L 309.8125 178.3125 L 313.59375 178.4375 L 317.40625 178.5625 L 321.21875 178.8125 L 324.96875 179.125 L 328.75 179.46875 L 332.5625 179.90625 L 336.3125 180.40625 L 340.09375 180.96875 L 343.78125 181.59375 L 347.5625 182.28125 L 351.28125 183.03125 L 354.96875 183.875 L 358.6875 184.75 L 362.34375 185.6875 L 366.03125 186.71875 L 369.625 187.78125 L 373.28125 188.9375 L 376.90625 190.15625 L 380.46875 191.4375 L 384.03125 192.75 L 387.53125 194.15625 L 391.03125 195.59375 L 394.5625 197.09375 L 398 198.65625 L 401.4375 200.3125 L 404.84375 202 L 408.25 203.75 L 411.53125 205.59375 L 414.84375 207.4375 L 418.15625 209.375 L 421.375 211.375 L 424.5625 213.40625 L 427.78125 215.5 L 430.875 217.65625 L 433.96875 219.84375 L 437.03125 222.125 L 440.03125 224.4375 L 443.03125 226.8125 L 445.9375 229.21875 L 448.8125 231.6875 L 451.6875 234.1875 L 454.46875 236.78125 L 457.21875 239.375 L 459.96875 242.0625 L 462.625 244.75 L 465.21875 247.53125 L 467.8125 250.3125 L 470.28125 253.1875 L 472.78125 256.03125 L 475.1875 259 L 477.5625 261.96875 L 479.84375 264.96875 L 482.15625 268.03125 L 484.34375 271.125 L 486.53125 274.25 L 488.59375 277.4375 L 490.625 280.625 L 492.625 283.875 L 494.5625 287.15625 L 496.4375 290.46875 L 498.21875 293.78125 L 500 297.15625 L 501.6875 300.5625 L 503.3125 303.96875 L 504.875 307.4375 L 506.40625 310.9375 L 507.875 314.4375 L 509.25 317.96875 L 510.5625 321.53125 L 511.84375 325.125 L 513.0625 328.71875 L 514.1875 332.34375 L 515.25 335.96875 L 516.28125 339.65625 L 517.25 343.34375 L 518.15625 347.03125 L 518.96875 350.71875 L 519.71875 354.46875 L 520.40625 358.1875 L 521.0625 361.9375 L 521.625 365.71875 L 522.0625 369.46875 L 522.53125 373.25 L 522.875 377.03125 L 523.1875 380.8125 L 523.40625 384.59375 L 523.59375 388.40625 L 523.6875 392.21875 L 523.6875 396 L 523.6875 399.8125 L 523.59375 403.5625 L 523.40625 407.40625 L 523.1875 411.21875 L 522.875 414.96875 L 522.53125 418.75 L 522.0625 422.5625 L 521.625 426.3125 L 521.0625 430.0625 L 520.40625 433.78125 L 519.71875 437.5625 L 518.96875 441.28125 L 518.15625 444.96875 L 517.25 448.6875 L 516.28125 452.34375 L 515.25 456.03125 L 514.1875 459.625 L 513.0625 463.28125 L 511.84375 466.90625 L 510.5625 470.46875 L 509.25 474.03125 L 507.875 477.53125 L 506.40625 481.03125 L 504.875 484.5625 L 503.3125 488 L 501.6875 491.4375 L 500 494.84375 L 498.21875 498.25 L 496.4375 501.53125 L 494.5625 504.84375 L 492.625 508.15625 L 490.625 511.375 L 488.59375 514.5625 L 486.53125 517.78125 L 484.34375 520.875 L 482.15625 523.96875 L 479.84375 527.03125 L 477.5625 530.03125 L 475.1875 533.03125 L 472.78125 535.9375 L 470.28125 538.8125 L 467.8125 541.6875 L 465.21875 544.46875 L 462.625 547.21875 L 459.96875 549.96875 L 457.21875 552.625 L 454.46875 555.21875 L 451.6875 557.8125 L 448.8125 560.28125 L 445.9375 562.78125 L 443.03125 565.1875 L 440.03125 567.5625 L 437.03125 569.84375 L 433.96875 572.15625 L 430.875 574.34375 L 427.78125 576.53125 L 424.5625 578.59375 L 421.375 580.625 L 418.15625 582.625 L 414.84375 584.5625 L 411.53125 586.4375 L 408.25 588.21875 L 404.84375 590 L 401.4375 591.6875 L 398 593.3125 L 394.5625 594.875 L 391.03125 596.40625 L 387.53125 597.875 L 384.03125 599.25 L 380.46875 600.5625 L 376.90625 601.84375 L 373.28125 603.0625 L 369.625 604.1875 L 366.03125 605.25 L 362.34375 606.28125 L 358.6875 607.25 L 354.96875 608.15625 L 351.28125 608.96875 L 347.5625 609.71875 L 343.78125 610.40625 L 340.09375 611.0625 L 336.3125 611.625 L 332.5625 612.0625 L 328.75 612.53125 L 324.96875 612.875 L 321.21875 613.1875 L 317.40625 613.40625 L 313.59375 613.59375 L 309.8125 613.6875 L 306 613.6875 L 302.21875 613.6875 L 298.40625 613.59375 L 294.59375 613.40625 L 290.8125 613.1875 L 287.03125 612.875 L 283.25 612.53125 L 279.46875 612.0625 L 275.71875 611.625 L 271.9375 611.0625 L 268.1875 610.40625 L 264.46875 609.71875 L 260.71875 608.96875 L 257.03125 608.15625 L 253.34375 607.25 L 249.65625 606.28125 L 245.96875 605.25 L 242.34375 604.1875 L 238.71875 603.0625 L 235.125 601.84375 L 231.53125 600.5625 L 227.96875 599.25 L 224.4375 597.875 L 220.9375 596.40625 L 217.4375 594.875 L 214 593.3125 L 210.5625 591.6875 L 207.15625 590 L 203.78125 588.21875 L 200.46875 586.4375 L 197.15625 584.5625 L 193.875 582.625 L 190.625 580.625 L 187.4375 578.59375 L 184.25 576.53125 L 181.125 574.34375 L 178.03125 572.15625 L 174.96875 569.84375 L 171.96875 567.5625 L 169 565.1875 L 166.03125 562.78125 L 163.1875 560.28125 L 160.3125 557.8125 L 157.53125 555.21875 L 154.75 552.625 L 152.0625 549.96875 L 149.375 547.21875 L 146.78125 544.46875 L 144.1875 541.6875 L 141.6875 538.8125 L 139.21875 535.9375 L 136.8125 533.03125 L 134.4375 530.03125 L 132.125 527.03125 L 129.84375 523.96875 L 127.65625 520.875 L 125.5 517.78125 L 123.40625 514.5625 L 121.375 511.375 L 119.375 508.15625 L 117.4375 504.84375 L 115.59375 501.53125 L 113.75 498.25 L 112 494.84375 L 110.3125 491.4375 L 108.65625 488 L 107.09375 484.5625 L 105.59375 481.03125 L 104.15625 477.53125 L 102.75 474.03125 L 101.4375 470.46875 L 100.15625 466.90625 L 98.9375 463.28125 L 97.78125 459.625 L 96.71875 456.03125 L 95.6875 452.34375 L 94.75 448.6875 L 93.875 444.96875 L 93.03125 441.28125 L 92.28125 437.5625 L 91.59375 433.78125 L 90.96875 430.0625 L 90.40625 426.3125 L 89.90625 422.5625 L 89.46875 418.75 L 89.125 414.96875 L 88.8125 411.21875 L 88.59375 407.40625 L 88.4375 403.5625 L 88.3125 399.8125 L 88.28125 396 L 88.3125 392.21875 L 88.4375 388.40625 L 88.59375 384.59375 L 88.8125 380.8125 L 89.125 377.03125 L 89.46875 373.25 L 89.90625 369.46875 L 90.40625 365.71875 L 90.96875 361.9375 L 91.59375 358.1875 L 92.28125 354.46875 L 93.03125 350.71875 L 93.875 347.03125 L 94.75 343.34375 L 95.6875 339.65625 L 96.71875 335.96875 L 97.78125 332.34375 L 98.9375 328.71875 L 100.15625 325.125 L 101.4375 321.53125 L 102.75 317.96875 L 104.15625 314.4375 L 105.59375 310.9375 L 107.09375 307.4375 L 108.65625 303.96875 L 110.3125 300.5625 L 112 297.15625 L 113.75 293.78125 L 115.59375 290.46875 L 117.4375 287.15625 L 119.375 283.875 L 121.375 280.625 L 123.40625 277.4375 L 125.5 274.25 L 127.65625 271.125 L 129.84375 268.03125 L 132.125 264.96875 L 134.4375 261.96875 L 136.8125 259 L 139.21875 256.03125 L 141.6875 253.1875 L 144.1875 250.3125 L 146.78125 247.53125 L 149.375 244.75 L 152.0625 242.0625 L 154.75 239.375 L 157.53125 236.78125 L 160.3125 234.1875 L 163.1875 231.6875 L 166.03125 229.21875 L 169 226.8125 L 171.96875 224.4375 L 174.96875 222.125 L 178.03125 219.84375 L 181.125 217.65625 L 184.25 215.5 L 187.4375 213.40625 L 190.625 211.375 L 193.875 209.375 L 197.15625 207.4375 L 200.46875 205.59375 L 203.78125 203.75 L 207.15625 202 L 210.5625 200.3125 L 214 198.65625 L 217.4375 197.09375 L 220.9375 195.59375 L 224.4375 194.15625 L 227.96875 192.75 L 231.53125 191.4375 L 235.125 190.15625 L 238.71875 188.9375 L 242.34375 187.78125 L 245.96875 186.71875 L 249.65625 185.6875 L 253.34375 184.75 L 257.03125 183.875 L 260.71875 183.03125 L 264.46875 182.28125 L 268.1875 181.59375 L 271.9375 180.96875 L 275.71875 180.40625 L 279.46875 179.90625 L 283.25 179.46875 L 287.03125 179.125 L 290.8125 178.8125 L 294.59375 178.5625 L 298.40625 178.4375 L 302.21875 178.3125 L 306 178.28125 z "
   id="polygon10" />
</g><g
   id="LWPOLYLINE_6_"
   style="fill:#000000;fill-opacity:1;stroke:none">
	
		<path
   style="fill:#000000;stroke:none;stroke-width:0.70870000000000000;stroke-linecap:round;stroke-linejoin:round;stroke-miterlimit:10;fill-opacity:1"
   d="M 305.125 347.03125 L 304.28125 347.0625 L 303.4375 347.125 L 302.59375 347.15625 L 301.71875 347.21875 L 300.875 347.3125 L 300.03125 347.40625 L 299.1875 347.53125 L 298.34375 347.65625 L 297.5 347.78125 L 296.65625 347.9375 L 295.8125 348.125 L 295 348.28125 L 294.15625 348.5 L 293.34375 348.6875 L 292.5 348.9375 L 291.6875 349.1875 L 290.875 349.4375 L 290.0625 349.71875 L 289.28125 350 L 288.4375 350.3125 L 287.65625 350.59375 L 286.875 350.9375 L 286.09375 351.25 L 285.3125 351.625 L 284.53125 352 L 283.78125 352.375 L 283 352.75 L 282.28125 353.1875 L 281.5 353.59375 L 280.78125 354.03125 L 280.0625 354.46875 L 279.34375 354.9375 L 278.625 355.40625 L 277.9375 355.90625 L 277.21875 356.40625 L 276.53125 356.875 L 275.875 357.40625 L 275.1875 357.9375 L 274.53125 358.5 L 273.875 359.0625 L 273.25 359.59375 L 272.59375 360.1875 L 272 360.78125 L 271.375 361.375 L 270.78125 362 L 270.1875 362.59375 L 269.59375 363.25 L 269.0625 363.875 L 268.5 364.53125 L 267.9375 365.1875 L 267.40625 365.875 L 266.875 366.53125 L 266.40625 367.21875 L 265.90625 367.9375 L 265.40625 368.625 L 264.9375 369.34375 L 264.46875 370.0625 L 264.03125 370.78125 L 263.59375 371.5 L 263.1875 372.28125 L 262.78125 373 L 262.375 373.78125 L 262 374.53125 L 261.625 375.3125 L 261.25 376.09375 L 260.9375 376.875 L 260.59375 377.65625 L 260.3125 378.4375 L 260 379.28125 L 259.71875 380.0625 L 259.4375 380.875 L 259.1875 381.6875 L 258.9375 382.5 L 258.6875 383.34375 L 258.5 384.15625 L 258.28125 385 L 258.125 385.8125 L 257.9375 386.65625 L 257.78125 387.5 L 257.65625 388.34375 L 257.53125 389.1875 L 257.40625 390.03125 L 257.3125 390.875 L 257.21875 391.71875 L 257.15625 392.59375 L 257.125 393.4375 L 257.0625 394.28125 L 257.03125 395.125 L 257.03125 396 L 257.03125 396.875 L 257.0625 397.71875 L 257.125 398.53125 L 257.15625 399.40625 L 257.21875 400.28125 L 257.3125 401.125 L 257.40625 401.9375 L 257.53125 402.8125 L 257.65625 403.6875 L 257.78125 404.5 L 257.9375 405.34375 L 258.125 406.1875 L 258.28125 407.03125 L 258.5 407.84375 L 258.6875 408.65625 L 258.9375 409.46875 L 259.1875 410.28125 L 259.4375 411.09375 L 259.71875 411.90625 L 260 412.71875 L 260.3125 413.5625 L 260.59375 414.375 L 260.9375 415.125 L 261.25 415.9375 L 261.625 416.6875 L 262 417.46875 L 262.375 418.21875 L 262.78125 419 L 263.1875 419.75 L 263.59375 420.46875 L 264.03125 421.21875 L 264.46875 421.9375 L 264.9375 422.65625 L 265.40625 423.375 L 265.90625 424.0625 L 266.40625 424.78125 L 266.875 425.4375 L 267.40625 426.15625 L 267.9375 426.8125 L 268.5 427.46875 L 269.0625 428.15625 L 269.59375 428.75 L 270.1875 429.375 L 270.78125 430.03125 L 271.375 430.625 L 272 431.1875 L 272.59375 431.8125 L 273.25 432.375 L 273.875 432.9375 L 274.53125 433.5 L 275.1875 434.0625 L 275.875 434.5625 L 276.53125 435.125 L 277.21875 435.625 L 277.9375 436.09375 L 278.625 436.59375 L 279.34375 437.0625 L 280.0625 437.5 L 280.78125 437.96875 L 281.5 438.40625 L 282.28125 438.8125 L 283 439.21875 L 283.78125 439.65625 L 284.53125 440 L 285.3125 440.34375 L 286.09375 440.71875 L 286.875 441.0625 L 287.65625 441.375 L 288.4375 441.71875 L 289.28125 441.96875 L 290.0625 442.28125 L 290.875 442.53125 L 291.6875 442.78125 L 292.5 443.0625 L 293.34375 443.3125 L 294.15625 443.5 L 295 443.71875 L 295.8125 443.90625 L 296.65625 444.0625 L 297.5 444.21875 L 298.34375 444.375 L 299.1875 444.46875 L 300.03125 444.5625 L 300.875 444.6875 L 301.71875 444.78125 L 302.59375 444.84375 L 303.4375 444.875 L 304.28125 444.9375 L 305.125 444.9375 L 306 444.96875 L 306.875 444.9375 L 307.71875 444.9375 L 308.53125 444.875 L 309.40625 444.84375 L 310.28125 444.78125 L 311.125 444.6875 L 311.9375 444.5625 L 312.8125 444.46875 L 313.6875 444.375 L 314.5 444.21875 L 315.34375 444.0625 L 316.1875 443.90625 L 317.03125 443.71875 L 317.84375 443.5 L 318.65625 443.3125 L 319.46875 443.0625 L 320.28125 442.78125 L 321.09375 442.53125 L 321.90625 442.28125 L 322.71875 441.96875 L 323.5625 441.71875 L 324.375 441.375 L 325.125 441.0625 L 325.9375 440.71875 L 326.6875 440.34375 L 327.46875 440 L 328.21875 439.65625 L 329 439.21875 L 329.75 438.8125 L 330.46875 438.40625 L 331.21875 437.96875 L 331.9375 437.5 L 332.65625 437.0625 L 333.375 436.59375 L 334.0625 436.09375 L 334.78125 435.625 L 335.4375 435.125 L 336.15625 434.5625 L 336.8125 434.0625 L 337.5 433.5 L 338.15625 432.9375 L 338.75 432.375 L 339.375 431.8125 L 340.03125 431.1875 L 340.625 430.625 L 341.1875 430.03125 L 341.8125 429.375 L 342.375 428.75 L 342.9375 428.15625 L 343.5 427.46875 L 344.0625 426.8125 L 344.5625 426.15625 L 345.125 425.4375 L 345.625 424.78125 L 346.09375 424.0625 L 346.59375 423.375 L 347.0625 422.65625 L 347.5 421.9375 L 347.96875 421.21875 L 348.40625 420.46875 L 348.8125 419.75 L 349.25 419 L 349.65625 418.21875 L 350 417.46875 L 350.34375 416.6875 L 350.71875 415.9375 L 351.0625 415.125 L 351.375 414.375 L 351.71875 413.5625 L 351.96875 412.71875 L 352.28125 411.90625 L 352.53125 411.09375 L 352.78125 410.28125 L 353.0625 409.46875 L 353.3125 408.65625 L 353.5 407.84375 L 353.71875 407.03125 L 353.90625 406.1875 L 354.0625 405.34375 L 354.21875 404.5 L 354.375 403.6875 L 354.46875 402.8125 L 354.5625 401.9375 L 354.6875 401.125 L 354.78125 400.28125 L 354.84375 399.40625 L 354.875 398.53125 L 354.9375 397.71875 L 354.9375 396.875 L 354.96875 396 L 354.9375 395.125 L 354.9375 394.28125 L 354.875 393.4375 L 354.84375 392.59375 L 354.78125 391.71875 L 354.6875 390.875 L 354.5625 390.03125 L 354.46875 389.1875 L 354.375 388.34375 L 354.21875 387.5 L 354.0625 386.65625 L 353.90625 385.8125 L 353.71875 385 L 353.5 384.15625 L 353.3125 383.34375 L 353.0625 382.5 L 352.78125 381.6875 L 352.53125 380.875 L 352.28125 380.0625 L 351.96875 379.28125 L 351.71875 378.4375 L 351.375 377.65625 L 351.0625 376.875 L 350.71875 376.09375 L 350.34375 375.3125 L 350 374.53125 L 349.65625 373.78125 L 349.25 373 L 348.8125 372.28125 L 348.40625 371.5 L 347.96875 370.78125 L 347.5 370.0625 L 347.0625 369.34375 L 346.59375 368.625 L 346.09375 367.9375 L 345.625 367.21875 L 345.125 366.53125 L 344.5625 365.875 L 344.0625 365.1875 L 343.5 364.53125 L 342.9375 363.875 L 342.375 363.25 L 341.8125 362.59375 L 341.1875 362 L 340.625 361.375 L 340.03125 360.78125 L 339.375 360.1875 L 338.75 359.59375 L 338.15625 359.0625 L 337.5 358.5 L 336.8125 357.9375 L 336.15625 357.40625 L 335.4375 356.875 L 334.78125 356.40625 L 334.0625 355.90625 L 333.375 355.40625 L 332.65625 354.9375 L 331.9375 354.46875 L 331.21875 354.03125 L 330.46875 353.59375 L 329.75 353.1875 L 329 352.75 L 328.21875 352.375 L 327.46875 352 L 326.6875 351.625 L 325.9375 351.25 L 325.125 350.9375 L 324.375 350.59375 L 323.5625 350.3125 L 322.71875 350 L 321.90625 349.71875 L 321.09375 349.4375 L 320.28125 349.1875 L 319.46875 348.9375 L 318.65625 348.6875 L 317.84375 348.5 L 317.03125 348.28125 L 316.1875 348.125 L 315.34375 347.9375 L 314.5 347.78125 L 313.6875 347.65625 L 312.8125 347.53125 L 311.9375 347.40625 L 311.125 347.3125 L 310.28125 347.21875 L 309.40625 347.15625 L 308.53125 347.125 L 307.71875 347.0625 L 306.875 347.03125 L 306 347.03125 L 305.125 347.03125 z M 305.5625 371 L 306 371 L 306.46875 371 L 306.875 371.03125 L 307.3125 371.03125 L 307.71875 371.0625 L 308.1875 371.09375 L 308.59375 371.125 L 309.0625 371.1875 L 309.46875 371.21875 L 309.90625 371.3125 L 310.3125 371.375 L 310.78125 371.46875 L 311.1875 371.53125 L 311.65625 371.625 L 312.0625 371.75 L 312.46875 371.84375 L 312.90625 371.96875 L 313.3125 372.09375 L 313.71875 372.21875 L 314.125 372.34375 L 314.53125 372.5 L 314.9375 372.65625 L 315.34375 372.84375 L 315.78125 372.96875 L 316.1875 373.15625 L 316.59375 373.34375 L 316.9375 373.53125 L 317.34375 373.71875 L 317.75 373.9375 L 318.09375 374.125 L 318.5 374.34375 L 318.875 374.5625 L 319.21875 374.78125 L 319.625 375.03125 L 320 375.28125 L 320.34375 375.53125 L 320.6875 375.78125 L 321.0625 376.03125 L 321.40625 376.28125 L 321.71875 376.5625 L 322.0625 376.84375 L 322.375 377.125 L 322.71875 377.40625 L 323.03125 377.71875 L 323.34375 378.03125 L 323.6875 378.3125 L 324 378.625 L 324.25 378.96875 L 324.5625 379.28125 L 324.875 379.59375 L 325.1875 379.9375 L 325.4375 380.25 L 325.6875 380.625 L 326 380.9375 L 326.25 381.3125 L 326.5 381.65625 L 326.75 382 L 326.96875 382.40625 L 327.21875 382.75 L 327.40625 383.125 L 327.65625 383.5 L 327.875 383.875 L 328.0625 384.25 L 328.28125 384.65625 L 328.46875 385.03125 L 328.625 385.4375 L 328.84375 385.8125 L 329 386.21875 L 329.1875 386.65625 L 329.34375 387.0625 L 329.5 387.46875 L 329.65625 387.875 L 329.75 388.28125 L 329.90625 388.6875 L 330 389.09375 L 330.15625 389.53125 L 330.25 389.9375 L 330.375 390.375 L 330.46875 390.8125 L 330.53125 391.21875 L 330.625 391.65625 L 330.65625 392.09375 L 330.78125 392.53125 L 330.8125 392.9375 L 330.875 393.375 L 330.9375 393.8125 L 330.9375 394.25 L 330.96875 394.6875 L 330.96875 395.125 L 330.96875 395.5625 L 331.03125 396 L 330.96875 396.46875 L 330.96875 396.875 L 330.96875 397.3125 L 330.9375 397.71875 L 330.9375 398.1875 L 330.875 398.59375 L 330.8125 399.0625 L 330.78125 399.46875 L 330.65625 399.90625 L 330.625 400.3125 L 330.53125 400.78125 L 330.46875 401.1875 L 330.375 401.65625 L 330.25 402.0625 L 330.15625 402.46875 L 330 402.90625 L 329.90625 403.3125 L 329.75 403.71875 L 329.65625 404.125 L 329.5 404.53125 L 329.34375 404.9375 L 329.1875 405.34375 L 329 405.78125 L 328.84375 406.1875 L 328.625 406.59375 L 328.46875 406.9375 L 328.28125 407.34375 L 328.0625 407.75 L 327.875 408.09375 L 327.65625 408.5 L 327.40625 408.875 L 327.21875 409.21875 L 326.96875 409.625 L 326.75 410 L 326.5 410.34375 L 326.25 410.6875 L 326 411.0625 L 325.6875 411.40625 L 325.4375 411.71875 L 325.1875 412.0625 L 324.875 412.375 L 324.5625 412.71875 L 324.25 413.03125 L 324 413.34375 L 323.6875 413.6875 L 323.34375 414 L 323.03125 414.25 L 322.71875 414.5625 L 322.375 414.875 L 322.0625 415.1875 L 321.71875 415.4375 L 321.40625 415.6875 L 321.0625 416 L 320.6875 416.25 L 320.34375 416.5 L 320 416.75 L 319.625 416.96875 L 319.21875 417.21875 L 318.875 417.40625 L 318.5 417.65625 L 318.09375 417.875 L 317.75 418.0625 L 317.34375 418.28125 L 316.9375 418.46875 L 316.59375 418.625 L 316.1875 418.84375 L 315.78125 419 L 315.34375 419.1875 L 314.9375 419.34375 L 314.53125 419.5 L 314.125 419.65625 L 313.71875 419.75 L 313.3125 419.90625 L 312.90625 420 L 312.46875 420.15625 L 312.0625 420.25 L 311.65625 420.375 L 311.1875 420.46875 L 310.78125 420.53125 L 310.3125 420.625 L 309.90625 420.65625 L 309.46875 420.78125 L 309.0625 420.8125 L 308.59375 420.875 L 308.1875 420.9375 L 307.71875 420.9375 L 307.3125 420.96875 L 306.875 420.96875 L 306.46875 420.96875 L 306 421.03125 L 305.5625 420.96875 L 305.125 420.96875 L 304.6875 420.96875 L 304.25 420.9375 L 303.8125 420.9375 L 303.375 420.875 L 302.9375 420.8125 L 302.53125 420.78125 L 302.09375 420.65625 L 301.65625 420.625 L 301.21875 420.53125 L 300.8125 420.46875 L 300.375 420.375 L 299.9375 420.25 L 299.53125 420.15625 L 299.09375 420 L 298.6875 419.90625 L 298.28125 419.75 L 297.875 419.65625 L 297.46875 419.5 L 297.0625 419.34375 L 296.65625 419.1875 L 296.21875 419 L 295.8125 418.84375 L 295.4375 418.625 L 295.03125 418.46875 L 294.65625 418.28125 L 294.25 418.0625 L 293.875 417.875 L 293.5 417.65625 L 293.125 417.40625 L 292.75 417.21875 L 292.40625 416.96875 L 292 416.75 L 291.65625 416.5 L 291.3125 416.25 L 290.9375 416 L 290.625 415.6875 L 290.25 415.4375 L 289.9375 415.1875 L 289.59375 414.875 L 289.28125 414.5625 L 288.96875 414.25 L 288.625 414 L 288.3125 413.6875 L 288.03125 413.34375 L 287.71875 413.03125 L 287.40625 412.71875 L 287.125 412.375 L 286.84375 412.0625 L 286.5625 411.71875 L 286.28125 411.40625 L 286.03125 411.0625 L 285.78125 410.6875 L 285.53125 410.34375 L 285.28125 410 L 285.03125 409.625 L 284.78125 409.21875 L 284.5625 408.875 L 284.34375 408.5 L 284.125 408.09375 L 283.9375 407.75 L 283.71875 407.34375 L 283.53125 406.9375 L 283.34375 406.59375 L 283.15625 406.1875 L 282.96875 405.78125 L 282.84375 405.34375 L 282.65625 404.9375 L 282.5 404.53125 L 282.34375 404.125 L 282.21875 403.71875 L 282.09375 403.3125 L 281.96875 402.90625 L 281.84375 402.46875 L 281.75 402.0625 L 281.625 401.65625 L 281.53125 401.1875 L 281.46875 400.78125 L 281.375 400.3125 L 281.3125 399.90625 L 281.21875 399.46875 L 281.1875 399.0625 L 281.125 398.59375 L 281.09375 398.1875 L 281.0625 397.71875 L 281.03125 397.3125 L 281.03125 396.875 L 281 396.46875 L 281 396 L 281 395.5625 L 281.03125 395.125 L 281.03125 394.6875 L 281.0625 394.25 L 281.09375 393.8125 L 281.125 393.375 L 281.1875 392.9375 L 281.21875 392.53125 L 281.3125 392.09375 L 281.375 391.65625 L 281.46875 391.21875 L 281.53125 390.8125 L 281.625 390.375 L 281.75 389.9375 L 281.84375 389.53125 L 281.96875 389.09375 L 282.09375 388.6875 L 282.21875 388.28125 L 282.34375 387.875 L 282.5 387.46875 L 282.65625 387.0625 L 282.84375 386.65625 L 282.96875 386.21875 L 283.15625 385.8125 L 283.34375 385.4375 L 283.53125 385.03125 L 283.71875 384.65625 L 283.9375 384.25 L 284.125 383.875 L 284.34375 383.5 L 284.5625 383.125 L 284.78125 382.75 L 285.03125 382.40625 L 285.28125 382 L 285.53125 381.65625 L 285.78125 381.3125 L 286.03125 380.9375 L 286.28125 380.625 L 286.5625 380.25 L 286.84375 379.9375 L 287.125 379.59375 L 287.40625 379.28125 L 287.71875 378.96875 L 288.03125 378.625 L 288.3125 378.3125 L 288.625 378.03125 L 288.96875 377.71875 L 289.28125 377.40625 L 289.59375 377.125 L 289.9375 376.84375 L 290.25 376.5625 L 290.625 376.28125 L 290.9375 376.03125 L 291.3125 375.78125 L 291.65625 375.53125 L 292 375.28125 L 292.40625 375.03125 L 292.75 374.78125 L 293.125 374.5625 L 293.5 374.34375 L 293.875 374.125 L 294.25 373.9375 L 294.65625 373.71875 L 295.03125 373.53125 L 295.4375 373.34375 L 295.8125 373.15625 L 296.21875 372.96875 L 296.65625 372.84375 L 297.0625 372.65625 L 297.46875 372.5 L 297.875 372.34375 L 298.28125 372.21875 L 298.6875 372.09375 L 299.09375 371.96875 L 299.53125 371.84375 L 299.9375 371.75 L 300.375 371.625 L 300.8125 371.53125 L 301.21875 371.46875 L 301.65625 371.375 L 302.09375 371.3125 L 302.53125 371.21875 L 302.9375 371.1875 L 303.375 371.125 L 303.8125 371.09375 L 304.25 371.0625 L 304.6875 371.03125 L 305.125 371.03125 L 305.5625 371 z "
   id="polygon22" />
</g><g
   id="LWPOLYLINE">
	
		
</g>
<g
   id="LWPOLYLINE_1_">
	
		
</g>

<g
   id="LWPOLYLINE_3_"
   style="fill:#000000;fill-opacity:1;stroke:none"
   transform="matrix(1.0149866,0,0,1.0111692,-1.666326,-3.0967201)">
	
		<path
   style="fill:#000000;fill-opacity:1;stroke:none"
   d="m 269.53,362.047 -146.745,-84.791 -11.597,20.473 146.77,85.757 z"
   id="polygon13"
   inkscape:connector-curvature="0" />
</g>
<g
   id="LWPOLYLINE_4_"
   style="fill:#000000;fill-opacity:1;stroke:none"
   transform="matrix(1.04838,0,0,1.0223328,-21.263038,-7.3551328)">
	
		<path
   style="fill:#000000;fill-opacity:1;stroke:none"
   d="m 354.932,382.469 145.88,-84.817 -12.564,-21.439 -146.846,84.791 z"
   id="polygon16"
   inkscape:connector-curvature="0" />
</g>
<g
   id="LWPOLYLINE_5_"
   style="fill:#000000;fill-opacity:1;stroke:none"
   transform="matrix(1,0,0,1.0316363,0,-17.010041)">
	
		<path
   style="fill:#000000;fill-opacity:1;stroke:none"
   d="m 294.53,443.914 23.982,0 0,168.77001 -23.982,0 z"
   id="rect19"
   inkscape:connector-curvature="0" />
</g>

</svg>