<?xml version="1.0" encoding="UTF-8" standalone="no"?>
<!-- Generator: Adobe Illustrator 16.0.1, SVG Export Plug-In . SVG Version: 6.00 Build 0)  -->

<svg
   xmlns:dc="http://purl.org/dc/elements/1.1/"
   xmlns:cc="http://creativecommons.org/ns#"
   xmlns:rdf="http://www.w3.org/1999/02/22-rdf-syntax-ns#"
   xmlns:svg="http://www.w3.org/2000/svg"
   xmlns="http://www.w3.org/2000/svg"
   xmlns:sodipodi="http://sodipodi.sourceforge.net/DTD/sodipodi-0.dtd"
   xmlns:inkscape="http://www.inkscape.org/namespaces/inkscape"
   version="1.0"
   id="_x31_"
   x="0px"
   y="0px"
   width="612px"
   height="792px"
   viewBox="0 0 612 792"
   enable-background="new 0 0 612 792"
   xml:space="preserve"
   inkscape:version="0.48.2 r9819"
   sodipodi:docname="7051.svg"><metadata
   id="metadata31"><rdf:RDF><cc:Work
       rdf:about=""><dc:format>image/svg+xml</dc:format><dc:type
         rdf:resource="http://purl.org/dc/dcmitype/StillImage" /></cc:Work></rdf:RDF></metadata><defs
   id="defs29" /><sodipodi:namedview
   pagecolor="#ffffff"
   bordercolor="#666666"
   borderopacity="1"
   objecttolerance="10"
   gridtolerance="10"
   guidetolerance="10"
   inkscape:pageopacity="0"
   inkscape:pageshadow="2"
   inkscape:window-width="1920"
   inkscape:window-height="1071"
   id="namedview27"
   showgrid="false"
   inkscape:zoom="0.5959596"
   inkscape:cx="119.01779"
   inkscape:cy="256.86288"
   inkscape:window-x="0"
   inkscape:window-y="0"
   inkscape:window-maximized="1"
   inkscape:current-layer="_x31_" />
<g
   id="LWPOLYLINE"
   style="stroke:none;fill:#000000;fill-opacity:1">
	
		<path
   style="fill:#000000;stroke:none;stroke-width:0.70870000000000000;stroke-linecap:round;stroke-linejoin:round;stroke-miterlimit:10;fill-opacity:1"
   d="M 306 146 L 301.625 146.03125 L 297.28125 146.15625 L 292.90625 146.34375 L 288.53125 146.59375 L 284.21875 146.9375 L 279.84375 147.375 L 275.53125 147.84375 L 271.1875 148.4375 L 266.875 149.0625 L 262.59375 149.8125 L 258.28125 150.59375 L 254.03125 151.4375 L 249.75 152.40625 L 245.5 153.40625 L 241.28125 154.5 L 237.0625 155.6875 L 232.90625 156.90625 L 228.75 158.21875 L 224.59375 159.59375 L 220.5 161.0625 L 216.375 162.59375 L 212.34375 164.1875 L 208.3125 165.84375 L 204.3125 167.59375 L 200.34375 169.4375 L 196.40625 171.3125 L 192.46875 173.25 L 188.625 175.25 L 184.78125 177.3125 L 180.96875 179.46875 L 177.21875 181.71875 L 173.5 184 L 169.84375 186.3125 L 166.1875 188.71875 L 162.59375 191.21875 L 159.0625 193.75 L 155.53125 196.3125 L 152.09375 198.96875 L 148.65625 201.6875 L 145.3125 204.46875 L 141.96875 207.3125 L 138.71875 210.1875 L 135.5 213.15625 L 132.34375 216.15625 L 129.21875 219.21875 L 126.15625 222.34375 L 123.15625 225.5 L 120.1875 228.71875 L 117.3125 231.96875 L 114.46875 235.3125 L 111.6875 238.65625 L 108.96875 242.09375 L 106.3125 245.53125 L 103.75 249.0625 L 101.21875 252.59375 L 98.71875 256.1875 L 96.3125 259.84375 L 94 263.5 L 91.71875 267.21875 L 89.46875 270.96875 L 87.3125 274.78125 L 85.25 278.625 L 83.25 282.46875 L 81.3125 286.40625 L 79.4375 290.34375 L 77.59375 294.3125 L 75.84375 298.3125 L 74.1875 302.34375 L 72.59375 306.375 L 71.0625 310.5 L 69.59375 314.59375 L 68.21875 318.75 L 66.90625 322.90625 L 65.6875 327.0625 L 64.5 331.28125 L 63.40625 335.5 L 62.40625 339.75 L 61.4375 344.03125 L 60.59375 348.28125 L 59.8125 352.59375 L 59.0625 356.875 L 58.4375 361.1875 L 57.84375 365.53125 L 57.375 369.84375 L 56.9375 374.21875 L 56.59375 378.53125 L 56.34375 382.90625 L 56.15625 387.28125 L 56.03125 391.625 L 56 396 L 56.03125 400.34375 L 56.15625 404.6875 L 56.34375 409.0625 L 56.59375 413.40625 L 56.9375 417.78125 L 57.375 422.125 L 57.84375 426.46875 L 58.4375 430.78125 L 59.0625 435.09375 L 59.8125 439.40625 L 60.59375 443.6875 L 61.4375 447.96875 L 62.40625 452.21875 L 63.40625 456.46875 L 64.5 460.65625 L 65.6875 464.875 L 66.90625 469.0625 L 68.21875 473.21875 L 69.59375 477.375 L 71.0625 481.5 L 72.59375 485.59375 L 74.1875 489.65625 L 75.84375 493.6875 L 77.59375 497.6875 L 79.4375 501.65625 L 81.3125 505.59375 L 83.25 509.5 L 85.25 513.34375 L 87.3125 517.1875 L 89.46875 521 L 91.71875 524.75 L 94 528.5 L 96.3125 532.125 L 98.71875 535.78125 L 101.21875 539.375 L 103.75 542.9375 L 106.3125 546.40625 L 108.96875 549.90625 L 111.6875 553.3125 L 114.46875 556.6875 L 117.3125 560 L 120.1875 563.28125 L 123.15625 566.46875 L 126.15625 569.65625 L 129.21875 572.75 L 132.34375 575.8125 L 135.5 578.84375 L 138.71875 581.78125 L 141.96875 584.65625 L 145.3125 587.5 L 148.65625 590.28125 L 152.09375 592.96875 L 155.53125 595.65625 L 159.0625 598.25 L 162.59375 600.78125 L 166.1875 603.25 L 169.84375 605.625 L 173.5 608 L 177.21875 610.28125 L 180.96875 612.46875 L 184.78125 614.65625 L 188.625 616.71875 L 192.46875 618.75 L 196.40625 620.6875 L 200.34375 622.5625 L 204.3125 624.375 L 208.3125 626.09375 L 212.34375 627.78125 L 216.375 629.375 L 220.5 630.90625 L 224.59375 632.375 L 228.75 633.75 L 232.90625 635.0625 L 237.0625 636.28125 L 241.28125 637.5 L 245.5 638.5625 L 249.75 639.5625 L 254.03125 640.53125 L 258.28125 641.40625 L 262.59375 642.1875 L 266.875 642.90625 L 271.1875 643.5625 L 275.53125 644.125 L 279.84375 644.625 L 284.21875 645.03125 L 288.53125 645.40625 L 292.90625 645.65625 L 297.28125 645.84375 L 301.625 645.9375 L 306 646 L 310.34375 645.9375 L 314.6875 645.84375 L 319.0625 645.65625 L 323.40625 645.40625 L 327.78125 645.03125 L 332.125 644.625 L 336.46875 644.125 L 340.78125 643.5625 L 345.09375 642.90625 L 349.40625 642.1875 L 353.6875 641.40625 L 357.96875 640.53125 L 362.21875 639.5625 L 366.46875 638.5625 L 370.65625 637.5 L 374.875 636.28125 L 379.0625 635.0625 L 383.21875 633.75 L 387.375 632.375 L 391.5 630.90625 L 395.59375 629.375 L 399.65625 627.78125 L 403.6875 626.09375 L 407.6875 624.375 L 411.65625 622.5625 L 415.59375 620.6875 L 419.5 618.75 L 423.34375 616.71875 L 427.1875 614.65625 L 431 612.46875 L 434.75 610.28125 L 438.5 608 L 442.125 605.625 L 445.78125 603.25 L 449.375 600.78125 L 452.9375 598.25 L 456.40625 595.65625 L 459.90625 592.96875 L 463.3125 590.28125 L 466.6875 587.5 L 470 584.65625 L 473.28125 581.78125 L 476.46875 578.84375 L 479.65625 575.8125 L 482.75 572.75 L 485.8125 569.65625 L 488.84375 566.46875 L 491.78125 563.28125 L 494.65625 560 L 497.5 556.6875 L 500.28125 553.3125 L 502.96875 549.90625 L 505.65625 546.40625 L 508.25 542.9375 L 510.78125 539.375 L 513.25 535.78125 L 515.625 532.125 L 518 528.5 L 520.28125 524.75 L 522.46875 521 L 524.65625 517.1875 L 526.71875 513.34375 L 528.75 509.5 L 530.6875 505.59375 L 532.5625 501.65625 L 534.375 497.6875 L 536.09375 493.6875 L 537.78125 489.65625 L 539.375 485.59375 L 540.90625 481.5 L 542.375 477.375 L 543.75 473.21875 L 545.0625 469.0625 L 546.28125 464.875 L 547.5 460.65625 L 548.5625 456.46875 L 549.5625 452.21875 L 550.53125 447.96875 L 551.40625 443.6875 L 552.1875 439.40625 L 552.90625 435.09375 L 553.5625 430.78125 L 554.125 426.46875 L 554.625 422.125 L 555.03125 417.78125 L 555.40625 413.40625 L 555.65625 409.0625 L 555.84375 404.6875 L 555.9375 400.34375 L 556 396 L 555.9375 391.625 L 555.84375 387.28125 L 555.65625 382.90625 L 555.40625 378.53125 L 555.03125 374.21875 L 554.625 369.84375 L 554.125 365.53125 L 553.5625 361.1875 L 552.90625 356.875 L 552.1875 352.59375 L 551.40625 348.28125 L 550.53125 344.03125 L 549.5625 339.75 L 548.5625 335.5 L 547.5 331.28125 L 546.28125 327.0625 L 545.0625 322.90625 L 543.75 318.75 L 542.375 314.59375 L 540.90625 310.5 L 539.375 306.375 L 537.78125 302.34375 L 536.09375 298.3125 L 534.375 294.3125 L 532.5625 290.34375 L 530.6875 286.40625 L 528.75 282.46875 L 526.71875 278.625 L 524.65625 274.78125 L 522.46875 270.96875 L 520.28125 267.21875 L 518 263.5 L 515.625 259.84375 L 513.25 256.1875 L 510.78125 252.59375 L 508.25 249.0625 L 505.65625 245.53125 L 502.96875 242.09375 L 500.28125 238.65625 L 497.5 235.3125 L 494.65625 231.96875 L 491.78125 228.71875 L 488.84375 225.5 L 485.8125 222.34375 L 482.75 219.21875 L 479.65625 216.15625 L 476.46875 213.15625 L 473.28125 210.1875 L 470 207.3125 L 466.6875 204.46875 L 463.3125 201.6875 L 459.90625 198.96875 L 456.40625 196.3125 L 452.9375 193.75 L 449.375 191.21875 L 445.78125 188.71875 L 442.125 186.3125 L 438.5 184 L 434.75 181.71875 L 431 179.46875 L 427.1875 177.3125 L 423.34375 175.25 L 419.5 173.25 L 415.59375 171.3125 L 411.65625 169.4375 L 407.6875 167.59375 L 403.6875 165.84375 L 399.65625 164.1875 L 395.59375 162.59375 L 391.5 161.0625 L 387.375 159.59375 L 383.21875 158.21875 L 379.0625 156.90625 L 374.875 155.6875 L 370.65625 154.5 L 366.46875 153.40625 L 362.21875 152.40625 L 357.96875 151.4375 L 353.6875 150.59375 L 349.40625 149.8125 L 345.09375 149.0625 L 340.78125 148.4375 L 336.46875 147.84375 L 332.125 147.375 L 327.78125 146.9375 L 323.40625 146.59375 L 319.0625 146.34375 L 314.6875 146.15625 L 310.34375 146.03125 L 306 146 z M 306 176.0625 L 309.84375 176.125 L 313.6875 176.21875 L 317.5 176.375 L 321.34375 176.625 L 325.125 176.9375 L 328.96875 177.28125 L 332.78125 177.71875 L 336.59375 178.21875 L 340.375 178.78125 L 344.1875 179.40625 L 347.9375 180.125 L 351.71875 180.875 L 355.46875 181.71875 L 359.15625 182.59375 L 362.90625 183.5625 L 366.625 184.59375 L 370.25 185.6875 L 373.96875 186.84375 L 377.59375 188.0625 L 381.21875 189.34375 L 384.8125 190.6875 L 388.34375 192.09375 L 391.90625 193.5625 L 395.4375 195.09375 L 398.9375 196.6875 L 402.375 198.3125 L 405.8125 200.03125 L 409.21875 201.8125 L 412.59375 203.65625 L 415.9375 205.53125 L 419.25 207.5 L 422.53125 209.5 L 425.78125 211.53125 L 428.96875 213.65625 L 432.09375 215.84375 L 435.25 218.0625 L 438.34375 220.34375 L 441.375 222.6875 L 444.375 225.09375 L 447.34375 227.53125 L 450.25 230 L 453.125 232.5625 L 455.96875 235.15625 L 458.75 237.8125 L 461.5 240.5 L 464.15625 243.21875 L 466.8125 246 L 469.4375 248.84375 L 471.96875 251.71875 L 474.4375 254.625 L 476.875 257.59375 L 479.25 260.59375 L 481.59375 263.625 L 483.9375 266.71875 L 486.15625 269.84375 L 488.28125 273 L 490.40625 276.21875 L 492.46875 279.4375 L 494.5 282.71875 L 496.4375 286.03125 L 498.3125 289.375 L 500.1875 292.75 L 501.96875 296.15625 L 503.625 299.5625 L 505.3125 303.03125 L 506.875 306.53125 L 508.4375 310.0625 L 509.90625 313.59375 L 511.28125 317.1875 L 512.65625 320.78125 L 513.90625 324.40625 L 515.125 328.03125 L 516.28125 331.6875 L 517.40625 335.34375 L 518.40625 339.09375 L 519.375 342.78125 L 520.25 346.53125 L 521.09375 350.28125 L 521.875 354.03125 L 522.5625 357.8125 L 523.1875 361.59375 L 523.78125 365.40625 L 524.25 369.1875 L 524.6875 373 L 525.0625 376.8125 L 525.34375 380.65625 L 525.59375 384.5 L 525.75 388.3125 L 525.875 392.125 L 525.90625 396 L 525.875 399.84375 L 525.75 403.6875 L 525.59375 407.5 L 525.34375 411.34375 L 525.0625 415.125 L 524.6875 418.96875 L 524.25 422.78125 L 523.78125 426.59375 L 523.1875 430.375 L 522.5625 434.1875 L 521.875 437.9375 L 521.09375 441.71875 L 520.25 445.46875 L 519.375 449.1875 L 518.40625 452.90625 L 517.40625 456.625 L 516.28125 460.25 L 515.125 463.96875 L 513.90625 467.59375 L 512.65625 471.21875 L 511.28125 474.8125 L 509.90625 478.34375 L 508.4375 481.90625 L 506.875 485.4375 L 505.3125 488.9375 L 503.625 492.375 L 501.96875 495.8125 L 500.1875 499.21875 L 498.3125 502.59375 L 496.4375 505.9375 L 494.5 509.25 L 492.46875 512.53125 L 490.40625 515.78125 L 488.28125 518.96875 L 486.15625 522.09375 L 483.9375 525.25 L 481.59375 528.34375 L 479.25 531.375 L 476.875 534.375 L 474.4375 537.34375 L 471.96875 540.25 L 469.4375 543.125 L 466.8125 545.96875 L 464.15625 548.75 L 461.5 551.5 L 458.75 554.15625 L 455.96875 556.8125 L 453.125 559.4375 L 450.25 561.96875 L 447.34375 564.4375 L 444.375 566.875 L 441.375 569.25 L 438.34375 571.59375 L 435.25 573.9375 L 432.09375 576.15625 L 428.96875 578.28125 L 425.78125 580.40625 L 422.53125 582.46875 L 419.25 584.5 L 415.9375 586.4375 L 412.59375 588.3125 L 409.21875 590.1875 L 405.8125 591.96875 L 402.375 593.625 L 398.9375 595.3125 L 395.4375 596.875 L 391.90625 598.4375 L 388.34375 599.90625 L 384.8125 601.28125 L 381.21875 602.65625 L 377.59375 603.90625 L 373.96875 605.125 L 370.25 606.28125 L 366.625 607.40625 L 362.90625 608.40625 L 359.15625 609.375 L 355.46875 610.25 L 351.71875 611.09375 L 347.9375 611.875 L 344.1875 612.5625 L 340.375 613.1875 L 336.59375 613.78125 L 332.78125 614.25 L 328.96875 614.6875 L 325.125 615.0625 L 321.34375 615.34375 L 317.5 615.59375 L 313.6875 615.75 L 309.84375 615.875 L 306 615.90625 L 302.125 615.875 L 298.3125 615.75 L 294.5 615.59375 L 290.65625 615.34375 L 286.8125 615.0625 L 283 614.6875 L 279.1875 614.25 L 275.40625 613.78125 L 271.59375 613.1875 L 267.8125 612.5625 L 264.03125 611.875 L 260.28125 611.09375 L 256.53125 610.25 L 252.78125 609.375 L 249.09375 608.40625 L 245.34375 607.40625 L 241.6875 606.28125 L 238.03125 605.125 L 234.40625 603.90625 L 230.78125 602.65625 L 227.1875 601.28125 L 223.59375 599.90625 L 220.0625 598.4375 L 216.53125 596.875 L 213.03125 595.3125 L 209.5625 593.625 L 206.15625 591.96875 L 202.75 590.1875 L 199.375 588.3125 L 196.03125 586.4375 L 192.71875 584.5 L 189.4375 582.46875 L 186.21875 580.40625 L 183 578.28125 L 179.84375 576.15625 L 176.71875 573.9375 L 173.625 571.59375 L 170.59375 569.25 L 167.59375 566.875 L 164.625 564.4375 L 161.71875 561.96875 L 158.84375 559.4375 L 156 556.8125 L 153.21875 554.15625 L 150.5 551.5 L 147.8125 548.75 L 145.15625 545.96875 L 142.5625 543.125 L 140 540.25 L 137.53125 537.34375 L 135.09375 534.375 L 132.6875 531.375 L 130.34375 528.34375 L 128.0625 525.25 L 125.84375 522.09375 L 123.65625 518.96875 L 121.53125 515.78125 L 119.5 512.53125 L 117.5 509.25 L 115.53125 505.9375 L 113.65625 502.59375 L 111.8125 499.21875 L 110.03125 495.8125 L 108.3125 492.375 L 106.6875 488.9375 L 105.09375 485.4375 L 103.5625 481.90625 L 102.09375 478.34375 L 100.6875 474.8125 L 99.34375 471.21875 L 98.0625 467.59375 L 96.84375 463.96875 L 95.6875 460.25 L 94.59375 456.625 L 93.5625 452.90625 L 92.59375 449.1875 L 91.71875 445.46875 L 90.875 441.71875 L 90.125 437.9375 L 89.40625 434.1875 L 88.78125 430.375 L 88.21875 426.59375 L 87.71875 422.78125 L 87.28125 418.96875 L 86.9375 415.125 L 86.625 411.34375 L 86.375 407.5 L 86.21875 403.6875 L 86.125 399.84375 L 86.0625 396 L 86.125 392.125 L 86.21875 388.3125 L 86.375 384.5 L 86.625 380.65625 L 86.9375 376.8125 L 87.28125 373 L 87.71875 369.1875 L 88.21875 365.40625 L 88.78125 361.59375 L 89.40625 357.8125 L 90.125 354.03125 L 90.875 350.28125 L 91.71875 346.53125 L 92.59375 342.78125 L 93.5625 339.09375 L 94.59375 335.34375 L 95.6875 331.6875 L 96.84375 328.03125 L 98.0625 324.40625 L 99.34375 320.78125 L 100.6875 317.1875 L 102.09375 313.59375 L 103.5625 310.0625 L 105.09375 306.53125 L 106.6875 303.03125 L 108.3125 299.5625 L 110.03125 296.15625 L 111.8125 292.75 L 113.65625 289.375 L 115.53125 286.03125 L 117.5 282.71875 L 119.5 279.4375 L 121.53125 276.21875 L 123.65625 273 L 125.84375 269.84375 L 128.0625 266.71875 L 130.34375 263.625 L 132.6875 260.59375 L 135.09375 257.59375 L 137.53125 254.625 L 140 251.71875 L 142.5625 248.84375 L 145.15625 246 L 147.8125 243.21875 L 150.5 240.5 L 153.21875 237.8125 L 156 235.15625 L 158.84375 232.5625 L 161.71875 230 L 164.625 227.53125 L 167.59375 225.09375 L 170.59375 222.6875 L 173.625 220.34375 L 176.71875 218.0625 L 179.84375 215.84375 L 183 213.65625 L 186.21875 211.53125 L 189.4375 209.5 L 192.71875 207.5 L 196.03125 205.53125 L 199.375 203.65625 L 202.75 201.8125 L 206.15625 200.03125 L 209.5625 198.3125 L 213.03125 196.6875 L 216.53125 195.09375 L 220.0625 193.5625 L 223.59375 192.09375 L 227.1875 190.6875 L 230.78125 189.34375 L 234.40625 188.0625 L 238.03125 186.84375 L 241.6875 185.6875 L 245.34375 184.59375 L 249.09375 183.5625 L 252.78125 182.59375 L 256.53125 181.71875 L 260.28125 180.875 L 264.03125 180.125 L 267.8125 179.40625 L 271.59375 178.78125 L 275.40625 178.21875 L 279.1875 177.71875 L 283 177.28125 L 286.8125 176.9375 L 290.65625 176.625 L 294.5 176.375 L 298.3125 176.21875 L 302.125 176.125 L 306 176.0625 z "
   id="polygon13" />
</g><g
   id="LINE"
   style="stroke:none;fill:#000000;fill-opacity:1">
	
		<path
   style="fill:#000000;stroke:none;stroke-width:0.70870000000000000;stroke-linecap:round;stroke-linejoin:round;stroke-miterlimit:10;fill-opacity:1"
   d="M 115.09375 290.1875 L 307 612.78125 L 497.375 290.1875 L 115.09375 290.1875 z M 159.71875 315.0625 L 453.8125 315.0625 L 306.5 562.96875 L 159.71875 315.0625 z "
   id="line4" />
</g>
<g
   id="LINE_1_">
	
		
</g>
<g
   id="LINE_2_">
	
		
</g>

<g
   id="LWPOLYLINE_1_">
	
		
</g>
<g
   id="LINE_3_">
	
		
</g>
<g
   id="LINE_4_">
	
		
</g>
<g
   id="LINE_5_">
	
		
</g>
</svg>