<?xml version="1.0" encoding="UTF-8" standalone="no"?>
<!-- Generator: Adobe Illustrator 16.0.1, SVG Export Plug-In . SVG Version: 6.00 Build 0)  -->

<svg
   xmlns:dc="http://purl.org/dc/elements/1.1/"
   xmlns:cc="http://creativecommons.org/ns#"
   xmlns:rdf="http://www.w3.org/1999/02/22-rdf-syntax-ns#"
   xmlns:svg="http://www.w3.org/2000/svg"
   xmlns="http://www.w3.org/2000/svg"
   xmlns:sodipodi="http://sodipodi.sourceforge.net/DTD/sodipodi-0.dtd"
   xmlns:inkscape="http://www.inkscape.org/namespaces/inkscape"
   version="1.0"
   id="_x31_"
   x="0px"
   y="0px"
   width="612px"
   height="792px"
   viewBox="0 0 612 792"
   enable-background="new 0 0 612 792"
   xml:space="preserve"
   inkscape:version="0.48.2 r9819"
   sodipodi:docname="7053.svg"><metadata
   id="metadata64"><rdf:RDF><cc:Work
       rdf:about=""><dc:format>image/svg+xml</dc:format><dc:type
         rdf:resource="http://purl.org/dc/dcmitype/StillImage" /></cc:Work></rdf:RDF></metadata><defs
   id="defs62" /><sodipodi:namedview
   pagecolor="#ffffff"
   bordercolor="#666666"
   borderopacity="1"
   objecttolerance="10"
   gridtolerance="10"
   guidetolerance="10"
   inkscape:pageopacity="0"
   inkscape:pageshadow="2"
   inkscape:window-width="1920"
   inkscape:window-height="1073"
   id="namedview60"
   showgrid="false"
   inkscape:zoom="1.1919192"
   inkscape:cx="115.03039"
   inkscape:cy="354.07833"
   inkscape:window-x="0"
   inkscape:window-y="0"
   inkscape:window-maximized="1"
   inkscape:current-layer="_x31_" />
<g
   id="LINE_9_"
   style="stroke:none;fill:#000000;fill-opacity:1">
	
		<path
   style="fill:#000000;stroke:none;stroke-width:0.70870000000000000;stroke-linecap:round;stroke-linejoin:round;stroke-miterlimit:10;fill-opacity:1"
   d="M 47.03125 210.5625 L 47.03125 578.875 L 415.34375 578.875 L 415.34375 210.5625 L 47.03125 210.5625 z M 76.125 239.65625 L 386.25 239.65625 L 386.25 549.78125 L 76.125 549.78125 L 76.125 239.65625 z "
   id="line31" />
</g><g
   id="LINE">
	
		
</g>
<g
   id="LINE_1_">
	
		
</g>
<g
   id="LINE_2_"
   style="fill:#000000;fill-opacity:1;stroke:none">
	
		<path
   style="fill:#000000;stroke:none;stroke-width:0.70870000000000000;stroke-linecap:round;stroke-linejoin:round;stroke-miterlimit:10;fill-opacity:1"
   d="M 498.914,646 565.97302,397.914 498.914,146 l -451.885001,0 0,37.979 424.011991,0 0,424.00898 -424.011991,0 0,38.01202 z"
   id="line10"
   inkscape:connector-curvature="0"
   sodipodi:nodetypes="cccccccccc" />
</g>
<g
   id="LINE_3_">
	
		
</g>
<g
   id="LINE_4_">
	
		
</g>
<g
   id="LINE_5_">
	
		
</g>
<g
   id="LINE_6_">
	
		
</g>
<g
   id="LINE_7_">
	
		
</g>
<g
   id="LINE_8_">
	
		
</g>

<g
   id="LINE_10_">
	
		
</g>
<g
   id="LINE_11_">
	
		
</g>
<g
   id="LINE_12_">
	
		
</g>
<g
   id="LINE_13_">
	
		
</g>
<g
   id="LINE_14_">
	
		
</g>
<g
   id="LINE_15_">
	
		
</g>
<g
   id="LINE_16_">
	
		
</g>
<g
   id="LWPOLYLINE"
   style="stroke:none;fill:#000000;fill-opacity:1">
	
		<path
   fill="none"
   stroke="#000000"
   stroke-width="0.7087"
   stroke-linecap="round"
   stroke-linejoin="round"
   stroke-miterlimit="10"
   d="   M164.736,300.695l1.854-0.709l1.854-0.65l1.793-0.648l1.762-0.588l1.762-0.586l1.699-0.525l1.668-0.494l1.67-0.494l1.607-0.434   l1.605-0.402l1.545-0.4l1.516-0.371l1.514-0.34l1.453-0.309l1.42-0.279l1.391-0.277l1.33-0.248l1.328-0.246l1.268-0.186   l1.268-0.186l1.205-0.186l1.143-0.154l1.143-0.125l1.082-0.123l1.051-0.123l0.988-0.094l0.99-0.061l0.926-0.094l0.865-0.061   l0.836-0.031l0.803-0.062l0.742-0.031h0.711l0.68-0.031l0.617-0.029h0.557h0.525h0.463h0.434h0.4h0.742h0.865h0.959l1.051,0.029   l1.143,0.031l1.205,0.062l1.268,0.062l1.328,0.123l1.391,0.123l1.453,0.154l1.482,0.186l1.514,0.217l1.576,0.277l1.576,0.311   l1.607,0.369l1.607,0.434l1.637,0.463l1.639,0.525l1.607,0.619l1.605,0.648l1.607,0.742l1.545,0.803l1.545,0.865l1.516,0.959   l1.451,1.051l1.391,1.143l1.359,1.205l1.299,1.328l1.236,1.391l1.143,1.516l1.082,1.637l0.959,1.73l0.895,1.824l0.805,1.945   l0.68,2.072l0.586,2.193l0.465,2.318l0.34,2.439l0.186,2.598l0.092,2.688l-0.031,1.514l-0.061,1.516l-0.125,1.482l-0.154,1.453   l-0.215,1.451l-0.248,1.422l-0.277,1.422l-0.34,1.391l-0.402,1.422l-0.434,1.391l-0.494,1.391l-0.525,1.391l-0.586,1.422   l-0.619,1.391l-0.68,1.391l-0.742,1.42l-0.771,1.391l-0.834,1.453l-0.865,1.422l-0.959,1.451l-0.957,1.453l-1.051,1.484   l-1.082,1.514l-1.143,1.514l-1.176,1.576l-1.236,1.576l-1.297,1.576l-1.359,1.637l-1.391,1.67l-1.484,1.699l-1.482,1.73   l-1.576,1.762l-1.639,1.793l-1.668,1.854l-1.73,1.885l-1.793,1.916l-1.854,1.979l-1.885,2.039l-1.979,2.07l-2.008,2.133   l-1.391,1.391l-1.299,1.359l-1.266,1.297l-1.176,1.236l-1.111,1.174l-1.082,1.113l-0.988,1.113l-0.928,0.988l-0.896,1.051   l-0.834,0.928l-0.773,0.926l-0.711,0.928l-0.68,0.865l-0.617,0.803l-0.588,0.805l-0.525,0.803l-0.494,0.742l-0.463,0.74   l-0.402,0.742l-0.371,0.742l-0.34,0.68l-0.309,0.742l-0.277,0.68l-0.248,0.742l-0.186,0.68l-0.217,0.74l-0.154,0.68l-0.123,0.742   l-0.123,0.742l-0.094,0.742l-0.092,0.803l-0.062,0.742l-0.062,0.865l-0.029,0.803l-0.031,0.865v0.928l-0.031,0.926v0.99v0.988   v1.051c0,0.309,0,0.617,0,0.617v0.434v0.557v0.68v0.742v0.865v0.926v0.99v1.111v1.113v1.174v1.236v1.297v1.361v1.297v1.422v1.359   v1.359v1.422v1.359v1.359v1.359v1.361v1.236v1.297v1.174v1.113v1.111v0.99v0.926v0.865v0.742v0.68v0.557v0.434v0.309   c0.217,0.309,0.494,0.309,0.494,0.309h0.34h0.434h0.525h0.617h0.68h0.742h0.803h0.865h0.896h0.959h0.988h1.051h1.051h1.082h1.08   h1.113h1.113h1.111h1.113h1.082h1.08h1.051h1.02h0.99h0.957h0.928h0.865h0.803h0.742h0.68h0.588h0.525h0.463h0.34   c0.277,0,0.432,0,0.432,0c0.062-0.309,0.062-0.617,0.062-0.617v-0.434v-0.557v-0.68v-0.742v-0.865v-0.926v-0.99v-1.111v-1.113   v-1.174v-1.297v-1.236v-1.361v-1.359v-1.359v-1.359v-1.422v-1.359v-1.359v-1.422v-1.297v-1.361v-1.297v-1.236v-1.174v-1.113v-1.111   v-0.99v-0.926v-0.865v-0.742v-0.68v-0.557v-0.434v-0.309c0-0.309,0-0.617,0-0.617v-0.371v-0.309l0.031-0.371v-0.309   c0.031-0.311,0.062-0.619,0.062-0.619c0.029-0.309,0.061-0.617,0.061-0.617c0.062-0.248,0.094-0.557,0.094-0.557   c0.061-0.248,0.123-0.557,0.123-0.557c0.062-0.246,0.123-0.557,0.123-0.557c0.062-0.246,0.125-0.494,0.125-0.494   c0.092-0.246,0.186-0.494,0.186-0.494c0.061-0.248,0.154-0.494,0.154-0.494c0.092-0.248,0.215-0.494,0.215-0.494   c0.094-0.248,0.217-0.494,0.217-0.494c0.094-0.248,0.217-0.434,0.217-0.434c0.123-0.248,0.246-0.494,0.246-0.494   c0.125-0.248,0.279-0.494,0.279-0.494c0.123-0.248,0.277-0.494,0.277-0.494c0.154-0.248,0.309-0.496,0.309-0.496   c0.156-0.246,0.311-0.494,0.311-0.494c0.186-0.246,0.34-0.557,0.34-0.557c0.215-0.309,0.309-0.369,0.309-0.369   c0.154-0.186,0.371-0.434,0.371-0.434c0.277-0.246,0.586-0.617,0.586-0.617l0.371-0.371l0.402-0.434l0.432-0.494l0.496-0.557   l0.525-0.555l0.555-0.557l0.588-0.68l0.617-0.619l0.619-0.68l0.648-0.68l0.648-0.742l0.682-0.68l0.68-0.74l0.68-0.742l0.711-0.742   l0.68-0.742l0.68-0.74l0.68-0.742l0.68-0.68l0.648-0.742l0.619-0.68l0.617-0.617l0.588-0.682l0.586-0.617l0.525-0.557l0.494-0.494   l0.465-0.494l0.432-0.494l0.371-0.371l0.34-0.371c0.309-0.309,0.525-0.557,0.525-0.557c0.309-0.309,2.504-2.533,2.504-2.533   l2.131-2.164l2.072-2.07l2.008-2.039l1.947-2.008l1.885-1.947l1.822-1.885l1.762-1.855l1.699-1.822l1.639-1.793l1.607-1.762   l1.514-1.699l1.482-1.699l1.422-1.67l1.359-1.668l1.299-1.637l1.236-1.607l1.174-1.607l1.113-1.607l1.111-1.576l0.99-1.605   l0.988-1.607l0.865-1.576l0.865-1.607l0.803-1.607l0.742-1.637l0.68-1.639l0.68-1.668l0.557-1.699l0.557-1.699l0.432-1.732   l0.434-1.76l0.371-1.793l0.371-1.854l0.246-1.885l0.248-1.916l0.186-1.979l0.123-2.01l0.062-2.07v-2.131v-1.145l-0.062-1.174   v-1.143l-0.123-1.176l-0.062-1.143l-0.123-1.113l-0.125-1.143l-0.186-1.143l-0.184-1.113l-0.186-1.113l-0.248-1.111l-0.248-1.082   l-0.246-1.113l-0.248-1.08l-0.309-1.082l-0.309-1.051l-0.371-1.082l-0.371-1.051l-0.371-1.051l-0.371-1.02l-0.432-1.02l-0.434-1.02   l-0.432-1.02l-0.434-0.99l-0.494-0.988l-0.494-0.988l-0.494-0.959l-0.557-0.988l-0.494-0.928l-0.617-0.926l-0.557-0.928   l-0.557-0.928l-0.617-0.895l-0.619-0.896l-0.617-0.865l-0.68-0.865l-0.682-0.865l-0.68-0.834l-0.68-0.836l-0.68-0.803l-1.111-1.174   l-1.113-1.113l-1.113-1.082l-1.174-1.051l-1.236-1.051l-1.236-0.988l-1.266-0.957l-1.299-0.928l-1.328-0.928l-1.359-0.865   l-1.391-0.834l-1.422-0.803l-1.422-0.805l-1.482-0.74l-1.516-0.711l-1.545-0.711l-1.545-0.648l-1.607-0.65l-1.637-0.586   l-1.639-0.588l-1.668-0.557l-1.73-0.525l-1.73-0.463l-1.762-0.463l-1.824-0.434l-1.822-0.402l-1.854-0.369l-1.855-0.34l-1.916-0.34   l-1.945-0.279l-1.979-0.246l-1.979-0.248l-2.008-0.217l-2.07-0.154l-2.07-0.154l-2.102-0.123l-2.133-0.094l-2.162-0.061   l-2.164-0.062h-2.225h-1.854l-1.793,0.031l-1.793,0.031l-1.73,0.061l-1.73,0.094l-1.668,0.061l-1.639,0.125l-1.607,0.092   l-1.574,0.154l-1.547,0.125l-1.514,0.154l-1.482,0.154l-1.453,0.186l-1.422,0.186l-1.391,0.186l-1.359,0.184l-1.328,0.217   l-1.299,0.217l-1.266,0.217l-1.236,0.215l-1.205,0.217l-1.176,0.248l-1.143,0.217l-1.143,0.246l-1.082,0.248l-1.082,0.215   l-1.02,0.248l-1.02,0.248l-0.99,0.246l-0.988,0.217l-0.928,0.248l-0.895,0.215l-0.896,0.248l-0.865,0.217l-0.834,0.215   l-0.836,0.217l-0.771,0.217l-0.773,0.186l-0.74,0.186l-0.742,0.186V300.695z"
   id="path55"
   style="stroke:none;fill:#000000;fill-opacity:1" />
</g>
<g
   id="LWPOLYLINE_1_"
   style="stroke:none;fill:#000000;fill-opacity:1">
	
		<path
   fill="none"
   stroke="#000000"
   stroke-width="0.7087"
   stroke-linecap="round"
   stroke-linejoin="round"
   stroke-miterlimit="10"
   d="   M197.955,524.49c0.279,0,0.619,0,0.619,0h0.432h0.588h0.68h0.773h0.865h0.957h1.02h1.113h1.143h1.236h1.268h1.328h1.33h1.391h1.391   h1.42h1.422h1.422h1.422h1.391h1.391h1.328h1.328h1.268h1.236h1.174h1.082h1.051h0.928h0.865h0.771h0.68h0.588h0.432h0.342   c0.277-0.309,0.277-0.617,0.277-0.617v-0.434v-0.494v-0.68v-0.68v-0.865v-0.865v-0.988v-1.051v-1.113v-1.111v-1.236v-1.236v-1.299   v-1.297v-1.299v-1.359v-1.359v-1.359v-1.299v-1.359v-1.297v-1.236v-1.236v-1.236v-1.174v-1.113v-0.988v-0.988v-0.928v-0.803v-0.742   v-0.619v-0.555v-0.434v-0.309c-0.277-0.248-0.619-0.248-0.619-0.248h-0.432h-0.588h-0.68h-0.771h-0.865h-0.928h-1.051h-1.082   h-1.174h-1.236h-1.268h-1.328h-1.328h-1.391h-1.391h-1.422h-1.422h-1.422h-1.42h-1.391h-1.391h-1.33h-1.328h-1.268h-1.236h-1.143   h-1.113h-1.02h-0.957h-0.865h-0.773h-0.68h-0.588h-0.432h-0.34C197.955,488.582,197.955,524.49,197.955,524.49z"
   id="path58"
   style="stroke:none;fill:#000000;fill-opacity:1" />
</g>
</svg>