<?xml version="1.0" encoding="UTF-8" standalone="no"?>
<!-- Generator: Adobe Illustrator 16.0.1, SVG Export Plug-In . SVG Version: 6.00 Build 0)  -->

<svg
   xmlns:dc="http://purl.org/dc/elements/1.1/"
   xmlns:cc="http://creativecommons.org/ns#"
   xmlns:rdf="http://www.w3.org/1999/02/22-rdf-syntax-ns#"
   xmlns:svg="http://www.w3.org/2000/svg"
   xmlns="http://www.w3.org/2000/svg"
   xmlns:sodipodi="http://sodipodi.sourceforge.net/DTD/sodipodi-0.dtd"
   xmlns:inkscape="http://www.inkscape.org/namespaces/inkscape"
   version="1.0"
   id="_x31_"
   x="0px"
   y="0px"
   width="612px"
   height="792px"
   viewBox="0 0 612 792"
   enable-background="new 0 0 612 792"
   xml:space="preserve"
   inkscape:version="0.48.2 r9819"
   sodipodi:docname="7054.svg"><metadata
   id="metadata34"><rdf:RDF><cc:Work
       rdf:about=""><dc:format>image/svg+xml</dc:format><dc:type
         rdf:resource="http://purl.org/dc/dcmitype/StillImage" /></cc:Work></rdf:RDF></metadata><defs
   id="defs32" /><sodipodi:namedview
   pagecolor="#ffffff"
   bordercolor="#666666"
   borderopacity="1"
   objecttolerance="10"
   gridtolerance="10"
   guidetolerance="10"
   inkscape:pageopacity="0"
   inkscape:pageshadow="2"
   inkscape:window-width="1920"
   inkscape:window-height="1073"
   id="namedview30"
   showgrid="false"
   inkscape:zoom="0.84281414"
   inkscape:cx="70.165002"
   inkscape:cy="396.19448"
   inkscape:window-x="0"
   inkscape:window-y="0"
   inkscape:window-maximized="1"
   inkscape:current-layer="_x31_" />
<g
   id="LWPOLYLINE_4_"
   style="stroke:none;stroke-opacity:1;fill:#000000;fill-opacity:1">
	
		<path
   style="fill:#000000;stroke:none;stroke-width:0.70870000000000000;stroke-linecap:round;stroke-linejoin:round;stroke-miterlimit:10;stroke-opacity:1;fill-opacity:1"
   d="M 79.34375 196 L -0.65625 276 L -0.65625 516 L 79.34375 596 L 426 596 L 506 516 L 506 276 L 426 196 L 266 196 L 79.34375 196 z M 106 222.65625 L 398.28125 222.65625 L 398.28125 569.34375 L 106 569.34375 L 106 222.65625 z M 79.34375 234.40625 L 79.34375 557.625 L 26 504.28125 L 26 395.46875 L 26 286.6875 L 79.34375 234.40625 z M 426 234.40625 L 479.34375 286.6875 L 479.34375 395.46875 L 479.34375 505.3125 L 426 557.625 L 426 234.40625 z "
   id="polygon16" />
</g><g
   id="LWPOLYLINE">
	
		<path
   style="fill:none;stroke:#000000;stroke-width:0.7087;stroke-linecap:round;stroke-linejoin:round;stroke-miterlimit:10"
   d="m 79.333,196 -80,80 0,240 80,80"
   id="polyline4" />
</g>
<g
   id="LWPOLYLINE_1_">
	
		
</g>
<g
   id="LWPOLYLINE_2_">
	
		
</g>
<g
   id="LWPOLYLINE_3_">
	
		
</g>

<g
   id="LWPOLYLINE_5_"
   style="fill:#000000;fill-opacity:1;stroke:none"
   transform="matrix(1.0194679,0,0,1,-11.927153,0)">
	
		<path
   style="fill:#000000;fill-opacity:1;stroke:none"
   d="m 506,342.15625 0,26.65625 80,0 0,53.34375 -80,0 0,26.65625 106.65625,0 0,-106.65625 -106.65625,0 z"
   id="rect19"
   inkscape:connector-curvature="0" />
</g>
<g
   id="LWPOLYLINE_6_">
	
		
</g>
<g
   id="LWPOLYLINE_7_"
   style="stroke:none;fill:#000000;fill-opacity:1">
	
		<path
   fill="none"
   stroke="#000000"
   stroke-width="0.7087"
   stroke-linecap="round"
   stroke-linejoin="round"
   stroke-miterlimit="10"
   d="   M198.812,315.688l1.562-0.599l1.536-0.547l1.511-0.547l1.484-0.495l1.484-0.494l1.431-0.444l1.406-0.416l1.406-0.417l1.354-0.364   l1.355-0.339l1.301-0.339l1.302-0.312l1.25-0.286l1.225-0.261l1.197-0.234l1.172-0.234l1.147-0.208l1.094-0.208l1.094-0.156   l1.041-0.156l1.016-0.156l0.964-0.131l0.964-0.103l0.911-0.105l0.886-0.104l0.833-0.078l0.833-0.052l0.781-0.078l0.729-0.051   l0.703-0.027l0.677-0.051l0.625-0.027h0.6l0.572-0.026l0.522-0.025h0.469h0.442h0.391h0.364h0.339h0.625h0.73h0.806l0.886,0.025   l0.964,0.026l1.016,0.052l1.067,0.053l1.121,0.103l1.172,0.104l1.223,0.13l1.25,0.156l1.302,0.183l1.303,0.234l1.328,0.261   l1.353,0.312l1.381,0.364l1.353,0.391l1.381,0.442l1.353,0.522l1.354,0.547l1.355,0.625l1.301,0.676l1.302,0.73l1.276,0.806   l1.224,0.886l1.172,0.964l1.147,1.016l1.094,1.119l1.041,1.172l0.964,1.276l0.911,1.38l0.834,1.459l0.728,1.536l0.678,1.641   l0.572,1.746l0.495,1.848l0.391,1.953l0.286,2.058l0.156,2.188l0.078,2.266l-0.025,1.275l-0.053,1.276l-0.103,1.25l-0.131,1.224   l-0.156,1.225l-0.234,1.197l-0.234,1.198l-0.286,1.172l-0.339,1.199l-0.364,1.172l-0.417,1.172l-0.442,1.172l-0.495,1.197   l-0.521,1.172l-0.573,1.172l-0.625,1.198l-0.65,1.172l-0.703,1.224l-0.73,1.198l-0.808,1.224l-0.806,1.225l-0.886,1.25   l-0.911,1.275l-0.964,1.276l-0.989,1.328l-1.042,1.328l-1.094,1.328l-1.145,1.38l-1.172,1.406l-1.225,1.433l-1.275,1.458   l-1.328,1.484l-1.381,1.511l-1.406,1.562l-1.458,1.589l-1.511,1.614l-1.536,1.667l-1.614,1.719l-1.667,1.744l-1.692,1.797   l-1.172,1.172l-1.094,1.147l-1.069,1.094l-0.989,1.041l-0.938,0.99l-0.911,0.938l-0.834,0.938l-0.781,0.833l-0.755,0.886   l-0.703,0.781l-0.651,0.781l-0.599,0.781l-0.573,0.729l-0.521,0.678l-0.495,0.677l-0.442,0.677l-0.417,0.625l-0.391,0.625   l-0.337,0.625l-0.312,0.625l-0.288,0.573l-0.259,0.625L231,410.74l-0.209,0.625l-0.156,0.572l-0.156,0.625l-0.156,0.573   l-0.103,0.625l-0.105,0.625l-0.078,0.625l-0.078,0.677l-0.051,0.625l-0.053,0.729l-0.025,0.677l-0.027,0.729v0.781v0.781   l-0.026,0.833v0.834v0.885c0,0.261,0,0.521,0,0.521v0.364v0.469v0.573v0.625v0.729v0.781v0.834v0.938v0.938v0.989v1.042v1.094   v1.146v1.094v1.198v1.146v1.146v1.198v1.146v1.146v1.146v1.146v1.042v1.094v0.989v0.938v0.938v0.834v0.781v0.729v0.625v0.573v0.469   v0.364v0.261c0.183,0.261,0.417,0.261,0.417,0.261h0.286h0.366h0.469h0.494h0.573h0.625h0.677h0.729h0.755h0.808h0.859h0.859h0.886   h0.911h0.911h0.938h0.938h0.938h0.938h0.913h0.911h0.886h0.859h0.833h0.808h0.781h0.728h0.678h0.625h0.572h0.495h0.442h0.391h0.288   c0.234,0,0.364,0,0.364,0c0.052-0.261,0.052-0.521,0.052-0.521v-0.364v-0.469v-0.573v-0.625v-0.729v-0.781v-0.834v-0.938v-0.938   v-0.989v-1.094v-1.042v-1.146v-1.146v-1.146v-1.146v-1.198v-1.146v-1.146v-1.198v-1.094v-1.146v-1.094v-1.042v-0.989v-0.938v-0.938   v-0.834v-0.781v-0.729v-0.625v-0.573v-0.469v-0.364v-0.261c0-0.261,0-0.521,0-0.521v-0.312v-0.261l0.026-0.312v-0.261   c0.027-0.26,0.052-0.521,0.052-0.521c0.026-0.261,0.053-0.521,0.053-0.521c0.051-0.209,0.078-0.469,0.078-0.469   c0.051-0.209,0.103-0.469,0.103-0.469c0.053-0.209,0.104-0.469,0.104-0.469c0.052-0.209,0.105-0.417,0.105-0.417   c0.078-0.208,0.156-0.417,0.156-0.417c0.051-0.208,0.129-0.416,0.129-0.416c0.078-0.209,0.183-0.417,0.183-0.417   c0.078-0.208,0.181-0.417,0.181-0.417c0.078-0.208,0.183-0.364,0.183-0.364c0.105-0.208,0.208-0.417,0.208-0.417   c0.104-0.208,0.234-0.416,0.234-0.416c0.104-0.209,0.234-0.417,0.234-0.417c0.131-0.208,0.261-0.417,0.261-0.417   c0.13-0.208,0.261-0.416,0.261-0.416c0.129-0.209,0.286-0.469,0.286-0.469c0.183-0.261,0.261-0.312,0.261-0.312   c0.129-0.156,0.312-0.365,0.312-0.365c0.234-0.208,0.494-0.521,0.494-0.521l0.312-0.312l0.339-0.364l0.364-0.417l0.417-0.469   l0.442-0.469l0.469-0.469l0.495-0.573l0.521-0.521l0.522-0.573l0.547-0.572l0.547-0.625l0.572-0.573l0.573-0.625l0.574-0.625   l0.598-0.625l0.574-0.625l0.572-0.625l0.573-0.625l0.574-0.573l0.547-0.625l0.52-0.572l0.521-0.521l0.495-0.572l0.496-0.521   l0.442-0.469l0.417-0.416l0.391-0.417l0.364-0.417l0.312-0.312l0.286-0.312c0.261-0.26,0.444-0.469,0.444-0.469   c0.259-0.26,2.109-2.134,2.109-2.134l1.797-1.824l1.744-1.745l1.694-1.719l1.641-1.692l1.587-1.641l1.538-1.589l1.484-1.562   l1.431-1.536l1.381-1.511l1.353-1.484l1.276-1.431l1.25-1.433l1.199-1.406l1.145-1.406l1.094-1.379l1.042-1.355l0.989-1.354   l0.964-1.353l0.884-1.328l0.859-1.355l0.808-1.354l0.781-1.328l0.703-1.353l0.677-1.355l0.625-1.379l0.6-1.381l0.521-1.406   l0.52-1.431l0.418-1.433l0.417-1.458l0.364-1.484l0.312-1.511l0.261-1.562l0.259-1.589l0.156-1.614l0.156-1.667l0.105-1.692   l0.051-1.745l0.054-1.797v-0.962l-0.054-0.991l-0.051-0.962l-0.052-0.991l-0.104-0.962l-0.105-0.938l-0.103-0.964l-0.156-0.964   l-0.104-0.938l-0.208-0.938l-0.156-0.938l-0.21-0.911l-0.207-0.938l-0.262-0.911l-0.259-0.913l-0.261-0.884l-0.262-0.913   l-0.312-0.884l-0.312-0.886l-0.312-0.859l-0.364-0.859l-0.364-0.859l-0.366-0.859l-0.391-0.833l-0.416-0.834l-0.417-0.833   l-0.417-0.808l-0.442-0.833l-0.469-0.781l-0.469-0.781l-0.495-0.781l-0.494-0.781l-0.496-0.754l-0.52-0.756l-0.547-0.728   l-0.547-0.73l-0.547-0.729l-0.574-0.703l-0.598-0.703l-0.6-0.677l-0.911-0.989l-0.938-0.938l-0.964-0.913l-0.989-0.884   l-1.016-0.886l-1.042-0.833l-1.067-0.808l-1.094-0.781l-1.12-0.781l-1.146-0.729l-1.172-0.703l-1.198-0.677l-1.197-0.676   l-1.25-0.625l-1.277-0.6l-1.301-0.599l-1.303-0.547l-1.353-0.547l-1.381-0.495l-1.38-0.494l-1.406-0.469l-1.458-0.444l-1.459-0.391   l-1.484-0.391l-1.509-0.364l-1.562-0.339l-1.562-0.312l-1.562-0.286l-1.616-0.286l-1.641-0.234l-1.641-0.209l-1.692-0.208   l-1.692-0.183l-1.746-0.13l-1.745-0.129l-1.771-0.105l-1.797-0.078l-1.797-0.051l-1.848-0.053h-1.875h-1.538l-1.536,0.026   l-1.511,0.027l-1.458,0.051l-1.458,0.078l-1.406,0.052l-1.381,0.104l-1.353,0.078l-1.328,0.13l-1.303,0.104l-1.275,0.13   l-1.25,0.131l-1.225,0.156l-1.197,0.156l-1.172,0.156l-1.147,0.156l-1.119,0.181l-1.094,0.183l-1.069,0.183l-1.041,0.181   l-1.016,0.183l-0.991,0.208l-0.962,0.183l-0.964,0.208l-0.911,0.209l-0.913,0.181l-0.859,0.209l-0.859,0.208l-0.833,0.208   l-0.808,0.183l-0.806,0.208l-0.756,0.183l-0.755,0.208l-0.729,0.183l-0.703,0.183l-0.677,0.181l-0.676,0.183l-0.652,0.156   l-0.625,0.156l-0.598,0.156V315.688z"
   id="path25"
   style="stroke:none;fill:#000000;fill-opacity:1" />
</g>
<g
   id="LWPOLYLINE_8_"
   style="stroke:none;fill:#000000;fill-opacity:1">
	
		<path
   fill="none"
   stroke="#000000"
   stroke-width="0.7087"
   stroke-linecap="round"
   stroke-linejoin="round"
   stroke-miterlimit="10"
   d="   M226.781,504.281c0.234,0,0.52,0,0.52,0h0.364h0.495h0.574h0.65h0.729h0.808h0.859h0.938h0.962h1.042h1.067h1.12h1.121h1.172h1.172   h1.197h1.198h1.199h1.197h1.172h1.172h1.147h1.094h1.067h1.042h0.989h0.911h0.886h0.781h0.73h0.676h0.547h0.496h0.364h0.286   c0.234-0.26,0.234-0.521,0.234-0.521v-0.364v-0.417v-0.573v-0.572v-0.729v-0.729v-0.833v-0.886v-0.938v-0.938v-1.041v-1.042v-1.094   v-1.094v-1.094v-1.146v-1.146v-1.146v-1.094v-1.146v-1.094v-1.042v-1.042v-1.041v-0.99v-0.938v-0.833v-0.833v-0.781v-0.678v-0.625   v-0.521v-0.469v-0.364v-0.261c-0.234-0.208-0.521-0.208-0.521-0.208h-0.364h-0.496h-0.547h-0.676h-0.73h-0.781h-0.886h-0.911   h-0.989h-1.042h-1.067h-1.094h-1.147h-1.172h-1.172h-1.197h-1.199h-1.198h-1.197h-1.172h-1.172h-1.121h-1.12h-1.067h-1.042h-0.962   h-0.938h-0.859h-0.808h-0.729h-0.65h-0.574h-0.495h-0.364h-0.286C226.781,474.021,226.781,504.281,226.781,504.281z"
   id="path28"
   style="stroke:none;fill:#000000;fill-opacity:1" />
</g>
</svg>