<?xml version="1.0" encoding="UTF-8" standalone="no"?>
<!-- Generator: Adobe Illustrator 16.0.1, SVG Export Plug-In . SVG Version: 6.00 Build 0)  -->

<svg
   xmlns:dc="http://purl.org/dc/elements/1.1/"
   xmlns:cc="http://creativecommons.org/ns#"
   xmlns:rdf="http://www.w3.org/1999/02/22-rdf-syntax-ns#"
   xmlns:svg="http://www.w3.org/2000/svg"
   xmlns="http://www.w3.org/2000/svg"
   xmlns:sodipodi="http://sodipodi.sourceforge.net/DTD/sodipodi-0.dtd"
   xmlns:inkscape="http://www.inkscape.org/namespaces/inkscape"
   version="1.0"
   id="_x31_"
   x="0px"
   y="0px"
   width="612px"
   height="792px"
   viewBox="0 0 612 792"
   enable-background="new 0 0 612 792"
   xml:space="preserve"
   inkscape:version="0.48.2 r9819"
   sodipodi:docname="7057.svg"><metadata
   id="metadata61"><rdf:RDF><cc:Work
       rdf:about=""><dc:format>image/svg+xml</dc:format><dc:type
         rdf:resource="http://purl.org/dc/dcmitype/StillImage" /></cc:Work></rdf:RDF></metadata><defs
   id="defs59" /><sodipodi:namedview
   pagecolor="#ffffff"
   bordercolor="#666666"
   borderopacity="1"
   objecttolerance="10"
   gridtolerance="10"
   guidetolerance="10"
   inkscape:pageopacity="0"
   inkscape:pageshadow="2"
   inkscape:window-width="1920"
   inkscape:window-height="1073"
   id="namedview57"
   showgrid="false"
   inkscape:zoom="0.5959596"
   inkscape:cx="-12.460856"
   inkscape:cy="432.49494"
   inkscape:window-x="0"
   inkscape:window-y="0"
   inkscape:window-maximized="1"
   inkscape:current-layer="_x31_" />
<g
   id="LWPOLYLINE_11_"
   style="stroke:none;fill:#000000;fill-opacity:1">
	
		<path
   style="fill:#000000;stroke:none;stroke-width:0.70870000000000000;stroke-linecap:round;stroke-linejoin:round;stroke-miterlimit:10;fill-opacity:1"
   d="M 137.09375 486.34375 L 100.65625 547.15625 C 88.85125 567.28075 95.708 593.13075 115.875 604.84375 C 136.063 616.51575 161.913 609.666 173.625 589.5 C 181.214 576.387 181.202 560.22825 173.5 547.15625 L 137.09375 486.34375 z M 137.09375 526.90625 L 155.71875 558.375 C 158.96675 564.685 158.9885 571.92725 155.8125 578.03125 C 150.4515 588.38225 137.67475 592.43325 127.34375 587.03125 C 116.99275 581.67025 112.983 568.933 118.4375 558.375 L 137.09375 526.90625 z "
   id="polyline46" />
</g><g
   id="LWPOLYLINE_5_"
   style="stroke:none;fill:#000000;fill-opacity:1">
	
		<path
   style="fill:#000000;stroke:none;stroke-width:0.70870000000000000;stroke-linecap:round;stroke-linejoin:round;stroke-miterlimit:10;fill-opacity:1"
   d="M 284.875 378.28125 L 284.875 420.5 L 348.21875 420.5 L 348.21875 378.28125 L 327.125 378.28125 L 327.125 399.375 L 306 399.375 L 306 378.28125 L 284.875 378.28125 z "
   id="rect28" />
</g><g
   id="LWPOLYLINE_9_"
   style="stroke:none;fill:#000000;fill-opacity:1">
	
		<path
   style="fill:#000000;stroke:none;stroke-width:0.70870000000000000;stroke-linecap:round;stroke-linejoin:round;stroke-miterlimit:10;fill-opacity:1"
   d="M 284.875 209.34375 L 284.875 272.6875 L 306 272.6875 L 306 209.34375 L 284.875 209.34375 z M 327.125 209.34375 L 327.125 272.6875 L 348.21875 272.6875 L 348.21875 209.34375 L 327.125 209.34375 z "
   id="rect40" />
</g><g
   id="LWPOLYLINE_7_"
   style="stroke:none;fill:#000000;fill-opacity:1">
	
		<path
   style="fill:#000000;stroke:none;stroke-width:0.70870000000000000;stroke-linecap:round;stroke-linejoin:round;stroke-miterlimit:10;fill-opacity:1"
   d="M 221.53125 146 L 221.53125 209.34375 L 411.5625 209.34375 L 411.5625 146 L 221.53125 146 z M 242.65625 167.125 L 390.46875 167.125 L 390.46875 188.21875 L 242.65625 188.21875 L 242.65625 167.125 z "
   id="rect34" />
</g><g
   id="LWPOLYLINE"
   style="stroke:none;fill:#000000;fill-opacity:1">
	
		<path
   fill="none"
   stroke="#000000"
   stroke-width="0.7087"
   stroke-linecap="round"
   stroke-linejoin="round"
   stroke-miterlimit="10"
   d="   M320.891,646c0.165,0,0.33,0,0.33,0h0.206h0.288h0.33h0.371h0.454h0.453h0.536h0.536h0.578h0.618h0.618h0.66h0.66h0.701h0.701   h0.701h0.7h0.701h0.701h0.701h0.701h0.66h0.66h0.659h0.577h0.578h0.577h0.495h0.494h0.413h0.371h0.371h0.247h0.248   c0.165,0,0.247,0,0.247,0c0.041,0,0.041-0.248,0.041-0.248v-0.783v-1.279V642v-2.186v-2.516v-2.93v-3.299v-3.588v-3.918V619.4   v-4.414v-4.619v-4.824v-4.99v-5.072v-5.238v-5.279v-5.361v-5.402v-5.361v-5.361v-5.277v-5.238v-5.113v-4.99v-4.783v-4.66v-4.373   v-4.205v-3.877v-3.588v-3.299v-2.93v-2.557v-2.145v-1.732v-1.236v-0.783V502.4c-0.123,0-0.288,0-0.288,0h-0.207h-0.288h-0.289   h-0.371h-0.412h-0.454h-0.494h-0.536h-0.536h-0.578h-0.618h-0.619h-0.659h-0.66h-0.66h-0.659h-0.66h-0.701h-0.66h-0.659h-0.66   h-0.66h-0.618h-0.577h-0.619h-0.536h-0.536h-0.495h-0.412h-0.412h-0.371h-0.33h-0.289h-0.206c-0.165,0-0.247,0-0.247,0   c-0.041,0-0.619,0.535-0.619,0.535l-0.618,0.537l-0.619,0.535l-0.659,0.537l-0.66,0.578l-0.66,0.535l-0.701,0.578l-0.7,0.535   l-0.743,0.578l-0.742,0.576l-0.783,0.578l-0.742,0.578l-0.825,0.576l-0.783,0.578l-0.825,0.576l-0.824,0.578l-0.825,0.578   l-0.866,0.576l-0.866,0.619l-0.907,0.578l-0.866,0.576l-0.907,0.578l-0.907,0.576l-0.928,0.619l-0.928,0.578l-0.948,0.576   l-0.949,0.578l-0.948,0.578l-0.969,0.576l-0.99,0.578l-0.969,0.576l-0.99,0.537l-0.989,0.578l-1.011,0.576l-1.011,0.537   l-1.01,0.535l-1.011,0.537l-1.031,0.535l-1.01,0.537l-1.031,0.535c0,0.166,0,0.33,0,0.33v0.248v0.33v0.371v0.412v0.494v0.496v0.576   v0.619v0.619v0.701v0.701v0.701v0.742v0.783v0.742v0.783v0.783v0.783v0.785v0.783v0.742v0.742v0.742v0.701v0.66v0.66v0.576v0.578   v0.535v0.455v0.453v0.371v0.289v0.246c0,0.207,0,0.33,0,0.33c0,0.043,0.783-0.33,0.783-0.33l0.784-0.328l0.804-0.371l0.805-0.371   l0.824-0.414l0.846-0.412l0.825-0.412l0.865-0.412l0.846-0.453l0.866-0.455l0.866-0.494l0.866-0.453l0.887-0.496l0.887-0.535   l0.865-0.496l0.887-0.535l0.887-0.494l0.887-0.537l0.887-0.578l0.887-0.535l0.887-0.578l0.887-0.535l0.866-0.578l0.907-0.576   l0.866-0.578l0.866-0.578l0.824-0.576l0.866-0.619l0.866-0.578l0.824-0.576l0.825-0.619l0.825-0.576l0.783-0.619l0.825-0.578   l0.783-0.619l0.783-0.576l0.743-0.619l0.742-0.578l0.742-0.617l0.701-0.578V646z"
   id="path4"
   style="stroke:none;fill:#000000;fill-opacity:1" />
</g>
<g
   id="ARC">
	
		
</g>
<g
   id="ARC_1_">
	
		
</g>
<g
   id="ARC_2_">
	
		
</g>
<g
   id="LWPOLYLINE_1_">
	
		
</g>
<g
   id="LWPOLYLINE_2_">
	
		
</g>
<g
   id="LWPOLYLINE_3_"
   style="fill:#000000;fill-opacity:1">
	
		<path
   style="fill:#000000;stroke:#000000;stroke-width:0.70870000000000000;stroke-linecap:round;stroke-linejoin:round;stroke-miterlimit:10;fill-opacity:1"
   d="m 158.196,441.611 -42.23,0 0,-84.4605 c 0,-34.9915 28.354,-63.3435 63.346,-63.3435 l 316.727,0 0,-21.116 -316.727,0 c -46.643,0 -84.46,37.816 -84.46,84.459 l 0,105.577 84.46,0 0,-84.461 316.727,0 0,-21.116 -316.727,0 c -11.671,0 -21.115,9.445 -21.1155,21.1155 z"
   id="polyline22"
   inkscape:connector-curvature="0"
   sodipodi:nodetypes="cccccccccccccccc" />
</g>
<g
   id="LWPOLYLINE_4_">
	
		
</g>

<g
   id="LWPOLYLINE_6_">
	
		
</g>

<g
   id="LWPOLYLINE_8_">
	
		
</g>

<g
   id="LWPOLYLINE_10_"
   style="fill:#000000;fill-opacity:1;stroke:none">
	
		<path
   style="fill:#000000;stroke:none;stroke-width:0.70870000000000000;stroke-linecap:round;stroke-linejoin:round;stroke-miterlimit:10;fill-opacity:1"
   d="m 496.039,230.461 21.115,0 0,190.035 -21.115,0 z"
   id="rect43"
   inkscape:connector-curvature="0"
   sodipodi:nodetypes="ccccc" />
</g>

<g
   id="LWPOLYLINE_12_">
	
		
</g>
<g
   id="ARC_3_">
	
		
</g>
<g
   id="ARC_4_">
	
		
</g>
</svg>