<?xml version="1.0" encoding="UTF-8" standalone="no"?>
<!-- Generator: Adobe Illustrator 16.0.1, SVG Export Plug-In . SVG Version: 6.00 Build 0)  -->

<svg
   xmlns:dc="http://purl.org/dc/elements/1.1/"
   xmlns:cc="http://creativecommons.org/ns#"
   xmlns:rdf="http://www.w3.org/1999/02/22-rdf-syntax-ns#"
   xmlns:svg="http://www.w3.org/2000/svg"
   xmlns="http://www.w3.org/2000/svg"
   xmlns:sodipodi="http://sodipodi.sourceforge.net/DTD/sodipodi-0.dtd"
   xmlns:inkscape="http://www.inkscape.org/namespaces/inkscape"
   version="1.0"
   id="_x31_"
   x="0px"
   y="0px"
   width="612px"
   height="792px"
   viewBox="0 0 612 792"
   enable-background="new 0 0 612 792"
   xml:space="preserve"
   inkscape:version="0.48.2 r9819"
   sodipodi:docname="7061.svg"><metadata
   id="metadata64"><rdf:RDF><cc:Work
       rdf:about=""><dc:format>image/svg+xml</dc:format><dc:type
         rdf:resource="http://purl.org/dc/dcmitype/StillImage" /></cc:Work></rdf:RDF></metadata><defs
   id="defs62" /><sodipodi:namedview
   pagecolor="#ffffff"
   bordercolor="#666666"
   borderopacity="1"
   objecttolerance="10"
   gridtolerance="10"
   guidetolerance="10"
   inkscape:pageopacity="0"
   inkscape:pageshadow="2"
   inkscape:window-width="1920"
   inkscape:window-height="1073"
   id="namedview60"
   showgrid="false"
   inkscape:zoom="1.6856283"
   inkscape:cx="224.35505"
   inkscape:cy="339.57703"
   inkscape:window-x="0"
   inkscape:window-y="0"
   inkscape:window-maximized="1"
   inkscape:current-layer="_x31_" />
<g
   id="LWPOLYLINE"
   style="stroke:none;stroke-opacity:1;fill:#000000;fill-opacity:1">
	
		<path
   style="fill:#000000;fill-opacity:1;stroke:none"
   d="m 316.0625,498.09375 c -15.2946,-0.60422 -30.4584,7.7785 -37.50921,21.47015 -10.6769,20.16689 -11.1971,43.88275 -9.74089,66.15485 1.71514,18.57138 6.13059,38.98195 21.03125,51.59375 17.0927,13.62618 45.37879,11.25024 58.94552,-6.3333 13.25601,-17.16772 15.84598,-39.82334 16.04494,-60.85642 -0.3172,-20.24083 -2.53882,-42.37101 -16.13148,-58.43031 -8.05202,-9.39776 -20.47141,-13.79868 -32.64013,-13.59872 z m 0,16.4375 c 10.85378,-0.65108 20.07326,7.59648 23.32956,17.5004 6.14972,17.34694 5.78657,36.19505 4.92054,54.3433 -1.25998,13.76377 -3.37154,29.47162 -14.625,38.875 -10.12925,7.74288 -26.46836,4.79975 -32.57092,-6.63762 -8.93161,-15.58756 -8.87409,-34.28275 -8.8504,-51.73946 0.72678,-15.18884 1.18091,-31.91528 10.70345,-44.56893 4.09377,-5.14792 10.56312,-7.92152 17.09277,-7.77269 z"
   id="polygon4"
   inkscape:connector-curvature="0" />
</g><g
   id="ARC_3_"
   style="stroke:none;fill:#000000;fill-opacity:1">
	
		<path
   style="fill:#000000;fill-opacity:1;stroke:none"
   d="m 137.9375,484.65625 c -12.67801,21.45729 -25.93907,42.59278 -38.235663,64.26061 -10.611772,21.5675 1.899463,50.16211 24.898323,57.09624 22.4827,8.28197 49.53904,-6.91692 54.26095,-30.36083 3.49875,-13.22571 -1.34312,-26.70145 -8.86743,-37.55071 -10.6854,-17.81509 -21.37074,-35.63029 -32.05618,-53.44531 z m 0,40.34375 c 6.46437,11.26398 13.61337,22.17824 19.62226,33.67503 5.82602,13.61664 -6.52074,30.2641 -21.29999,28.42547 -15.65022,-0.55413 -24.93241,-20.53705 -15.6045,-32.97675 5.76075,-9.70791 11.52149,-19.41583 17.28223,-29.12375 z"
   id="path55"
   inkscape:connector-curvature="0" />
</g><g
   id="LWPOLYLINE_6_"
   style="stroke:none;fill:#000000;fill-opacity:1">
	
		<path
   style="fill:#000000;stroke:none;stroke-width:0.70870000000000000;stroke-linecap:round;stroke-linejoin:round;stroke-miterlimit:10;fill-opacity:1"
   d="M 285 377.09375 L 285 419.09375 L 348.03125 419.09375 L 348.03125 377.09375 L 327 377.09375 L 327 398.09375 L 306 398.09375 L 306 377.09375 L 285 377.09375 z "
   id="rect31" />
</g><g
   id="LWPOLYLINE_10_"
   style="stroke:none;fill:#000000;fill-opacity:1">
	
		<path
   style="fill:#000000;stroke:none;stroke-width:0.70870000000000000;stroke-linecap:round;stroke-linejoin:round;stroke-miterlimit:10;fill-opacity:1"
   d="M 285 209.03125 L 285 272.03125 L 306 272.03125 L 306 209.03125 L 285 209.03125 z M 327 209.03125 L 327 272.03125 L 348.03125 272.03125 L 348.03125 209.03125 L 327 209.03125 z "
   id="rect43" />
</g><g
   id="LWPOLYLINE_8_"
   style="stroke:none;fill:#000000;fill-opacity:1">
	
		<path
   style="fill:#000000;stroke:none;stroke-width:0.70870000000000000;stroke-linecap:round;stroke-linejoin:round;stroke-miterlimit:10;fill-opacity:1"
   d="M 221.96875 146 L 221.96875 209.03125 L 411.03125 209.03125 L 411.03125 146 L 221.96875 146 z M 242.96875 167 L 390.03125 167 L 390.03125 188.03125 L 242.96875 188.03125 L 242.96875 167 z "
   id="rect37" />
</g>
<g
   id="LWPOLYLINE_1_">
	
		
</g>
<g
   id="ARC">
	
		
</g>
<g
   id="ARC_1_">
	
		
</g>
<g
   id="ARC_2_">
	
		
</g>
<g
   id="LWPOLYLINE_2_"
   style="stroke:none;fill:#000000;fill-opacity:1">
	
		<path
   style="fill:#000000;stroke:none;stroke-width:0.70870000000000000;stroke-linecap:round;stroke-linejoin:round;stroke-miterlimit:10;fill-opacity:1"
   d="m 495.072,293.053 0,-21.008 -315.116,0 c -46.405,0 -84.03,37.627 -84.03,84.031 l 0,105.039 84.03,0 0,-84.031 315.116,0 0,-21.008 -315.116,0 c -11.611,0 -21.007,9.418 -21.007,21.008 l 0,63.023 -42.015,0 0,-84.031 c 0,-34.793 28.208,-63.023 63.022,-63.023 z"
   id="polyline19"
   inkscape:connector-curvature="0"
   sodipodi:nodetypes="cccccccccccccccc" />
</g>
<g
   id="LWPOLYLINE_3_">
	
		
</g>
<g
   id="LWPOLYLINE_4_">
	
		
</g>
<g
   id="LWPOLYLINE_5_">
	
		
</g>

<g
   id="LWPOLYLINE_7_">
	
		
</g>

<g
   id="LWPOLYLINE_9_">
	
		
</g>

<g
   id="LWPOLYLINE_11_"
   style="stroke:none;fill:#000000;fill-opacity:1">
	
		<path
   style="fill:#000000;stroke:none;stroke-width:0.70870000000000000;stroke-linecap:round;stroke-linejoin:round;stroke-miterlimit:10;fill-opacity:1"
   d="m 495.07199,230.03101 21.008,0 0,189.06799 -21.008,0 z"
   id="rect46"
   inkscape:connector-curvature="0"
   sodipodi:nodetypes="ccccc" />
</g>
<g
   id="LWPOLYLINE_12_">
	
		
</g>
<g
   id="LWPOLYLINE_13_">
	
		
</g>

<g
   id="ARC_4_">
	
		
</g>
</svg>