<?xml version="1.0" encoding="UTF-8" standalone="no"?>
<!-- Generator: Adobe Illustrator 16.0.1, SVG Export Plug-In . SVG Version: 6.00 Build 0)  -->

<svg
   xmlns:dc="http://purl.org/dc/elements/1.1/"
   xmlns:cc="http://creativecommons.org/ns#"
   xmlns:rdf="http://www.w3.org/1999/02/22-rdf-syntax-ns#"
   xmlns:svg="http://www.w3.org/2000/svg"
   xmlns="http://www.w3.org/2000/svg"
   xmlns:sodipodi="http://sodipodi.sourceforge.net/DTD/sodipodi-0.dtd"
   xmlns:inkscape="http://www.inkscape.org/namespaces/inkscape"
   version="1.0"
   id="_x31_"
   x="0px"
   y="0px"
   width="612px"
   height="792px"
   viewBox="0 0 612 792"
   enable-background="new 0 0 612 792"
   xml:space="preserve"
   inkscape:version="0.48.2 r9819"
   sodipodi:docname="7063.svg"><metadata
   id="metadata16"><rdf:RDF><cc:Work
       rdf:about=""><dc:format>image/svg+xml</dc:format><dc:type
         rdf:resource="http://purl.org/dc/dcmitype/StillImage" /></cc:Work></rdf:RDF></metadata><defs
   id="defs14" /><sodipodi:namedview
   pagecolor="#ffffff"
   bordercolor="#666666"
   borderopacity="1"
   objecttolerance="10"
   gridtolerance="10"
   guidetolerance="10"
   inkscape:pageopacity="0"
   inkscape:pageshadow="2"
   inkscape:window-width="1920"
   inkscape:window-height="1073"
   id="namedview12"
   showgrid="false"
   inkscape:zoom="0.84281414"
   inkscape:cx="54.215184"
   inkscape:cy="499.35624"
   inkscape:window-x="0"
   inkscape:window-y="0"
   inkscape:window-maximized="1"
   inkscape:current-layer="_x31_" />
<g
   id="LWPOLYLINE"
   style="stroke:none;fill:#000000;fill-opacity:1">
	
		<path
   style="fill:#000000;fill-opacity:1;stroke:none"
   d="m 23.53125,195.5 c -0.31647,130.77027 -0.165485,261.54174 -0.21875,392.3125 17.916667,0 35.833333,0 53.75,0 0.220236,-58.21201 0.03097,-116.43862 0.09375,-174.65625 49.01987,-2.30697 100.27626,5.24879 147.44036,-12.11374 38.38913,-15.64374 65.20114,-56.29376 64.05959,-97.85501 0.8087,-30.507 -10.61507,-61.44429 -33.62028,-81.99499 -26.12274,-26.32374 -65.76597,-25.46221 -100.18182,-25.69231 -43.77422,-1.4e-4 -87.548971,2.7e-4 -131.32285,-2e-4 z m 53.625,44.21875 c 34.47498,0.6954 69.0969,-1.55945 103.4656,1.50602 22.72074,1.84066 44.75864,17.65911 48.4378,41.06977 5.821,27.05233 -0.15382,61.23213 -26.8722,75.04906 -31.73233,16.11237 -68.46707,9.90909 -102.6875,11.2499 -7.291667,0 -14.583333,0 -21.875,0 -0.632949,-42.95205 -0.350534,-85.91891 -0.4687,-128.87475 z"
   id="path4"
   inkscape:connector-curvature="0" />
</g>
<g
   id="LWPOLYLINE_1_">
	
		
</g>
<g
   id="LWPOLYLINE_2_"
   style="stroke:none;fill:#000000;fill-opacity:1">
	
		<path
   style="fill:#000000;fill-opacity:1;stroke:none"
   d="m 330.953,493.528 c 1.21079,38.05672 24.16468,74.90316 59.58749,90.0163 43.04275,19.00965 95.37455,15.11996 135.95864,-8.29587 41.89644,-24.04489 64.82698,-73.26757 62.05055,-120.75563 -0.99977,-44.87485 -22.95723,-92.58888 -65.57768,-111.7618 -38.89858,-16.99643 -88.13727,-14.59494 -122.447,11.691 -4.34482,2.73794 -9.65281,10.13272 -11.83,11.313 1.92355,-41.27462 3.82177,-82.57074 5.739,-123.848 57.54128,-0.56012 115.18323,-0.0768 172.763,-0.238 0.64165,-15.25271 0.10201,-30.71946 0.281,-46.056 -73.57945,-0.22024 -147.17092,-0.0315 -220.755,-0.094 -4.04681,77.29398 -6.5162,154.86202 -9.951,232.255 17.07719,0.98132 34.58368,0.15557 51.83,0.425 5.79591,-24.75284 25.51594,-46.34343 51.30829,-50.09903 29.18282,-6.31769 64.08771,2.18013 79.95971,29.34503 17.62952,30.08648 16.54981,68.96398 2.912,100.38 -11.63017,27.21471 -41.24404,43.88644 -70.49404,41.44257 -27.94658,-0.36793 -58.694,-18.71031 -61.29299,-48.73742 2.73822,-11.84401 -11.55917,-5.3724 -18.43087,-6.98215 -13.87037,0 -27.74073,0 -41.6111,0 z"
   id="path10"
   inkscape:connector-curvature="0" />
</g>
</svg>