<?xml version="1.0" encoding="UTF-8" standalone="no"?>
<!-- Generator: Adobe Illustrator 16.0.1, SVG Export Plug-In . SVG Version: 6.00 Build 0)  -->

<svg
   xmlns:dc="http://purl.org/dc/elements/1.1/"
   xmlns:cc="http://creativecommons.org/ns#"
   xmlns:rdf="http://www.w3.org/1999/02/22-rdf-syntax-ns#"
   xmlns:svg="http://www.w3.org/2000/svg"
   xmlns="http://www.w3.org/2000/svg"
   xmlns:sodipodi="http://sodipodi.sourceforge.net/DTD/sodipodi-0.dtd"
   xmlns:inkscape="http://www.inkscape.org/namespaces/inkscape"
   version="1.0"
   id="_x31_"
   x="0px"
   y="0px"
   width="612px"
   height="792px"
   viewBox="0 0 612 792"
   enable-background="new 0 0 612 792"
   xml:space="preserve"
   inkscape:version="0.48.2 r9819"
   sodipodi:docname="7064.svg"><metadata
   id="metadata19"><rdf:RDF><cc:Work
       rdf:about=""><dc:format>image/svg+xml</dc:format><dc:type
         rdf:resource="http://purl.org/dc/dcmitype/StillImage" /></cc:Work></rdf:RDF></metadata><defs
   id="defs17" /><sodipodi:namedview
   pagecolor="#ffffff"
   bordercolor="#666666"
   borderopacity="1"
   objecttolerance="10"
   gridtolerance="10"
   guidetolerance="10"
   inkscape:pageopacity="0"
   inkscape:pageshadow="2"
   inkscape:window-width="1920"
   inkscape:window-height="1073"
   id="namedview15"
   showgrid="false"
   inkscape:zoom="0.84281414"
   inkscape:cx="11.79781"
   inkscape:cy="434.39461"
   inkscape:window-x="0"
   inkscape:window-y="0"
   inkscape:window-maximized="1"
   inkscape:current-layer="_x31_" />
<g
   id="LWPOLYLINE_2_"
   style="stroke:none;fill:#000000;fill-opacity:1">
	
		<path
   style="fill:#000000;fill-opacity:1;stroke:none"
   d="m 465.46875,195.5 c -39.79295,-0.98917 -80.0508,17.33204 -102.57118,50.69149 -31.88887,46.07437 -39.53058,103.945 -40.756,158.69776 -0.43562,51.64832 4.86543,107.33542 36.56917,150.13485 36.33758,42.4267 101.62741,50.57626 151.25407,28.63077 41.27839,-17.23339 69.3937,-58.77762 73.22269,-102.93612 5.5768,-43.99806 -7.52589,-93.81484 -45.33953,-120.28942 -35.17961,-24.67247 -84.45376,-28.83392 -123.03547,-9.80433 -15.73761,8.03257 -27.70055,21.44374 -38.0625,35.4375 2.30918,-41.24104 5.02587,-85.52754 28.82596,-120.81288 20.38953,-30.02684 66.27127,-37.23428 95.73654,-16.90587 14.15017,10.37326 20.19374,28.27711 20.71875,45.25 18.85417,0 37.70833,0 56.5625,0 1.0136,-29.95407 -12.1598,-61.28967 -38.59375,-77 C 518.1472,201.86686 491.61947,195.42959 465.46875,195.5 z m -7.5625,184.90625 c 25.99571,-1.17608 52.47054,13.12254 62.50741,37.73356 12.97741,31.70722 13.18175,70.28236 -4.17509,100.3955 -19.60105,34.12386 -69.05619,43.94813 -100.80107,21.21469 -35.52777,-24.90041 -43.14721,-76.58485 -26.62505,-114.78125 11.41959,-27.41244 39.36448,-45.49193 69.0938,-44.5625 z"
   id="polygon10"
   inkscape:connector-curvature="0" />
</g><g
   id="LWPOLYLINE"
   style="stroke:none;fill:#000000;fill-opacity:1">
	
		<path
   style="fill:#000000;fill-opacity:1;stroke:none"
   d="m 27.96875,203.0625 c -0.381214,128.29085 -0.21069,256.58343 -0.28125,384.875 17.583333,0 35.166667,0 52.75,0 0.2202,-57.1181 0.03099,-114.25115 0.09375,-171.375 48.13406,-2.11436 98.36733,5.11335 144.65327,-11.83898 37.41812,-15.25218 63.72379,-54.71453 62.88688,-95.25006 0.91055,-30.17313 -10.19845,-60.895 -33.01749,-81.21603 -25.81434,-26.02288 -65.03134,-24.96492 -99.02266,-25.19468 -42.68741,-1.7e-4 -85.375505,3.4e-4 -128.0625,-2.5e-4 z m 52.5625,43.375 c 33.83367,0.67243 67.81229,-1.51815 101.54148,1.4645 21.81339,1.86122 43.0752,16.5928 47.23977,38.97285 6.12783,26.84888 0.59901,61.18909 -26.125,74.9375 -31.10511,15.866 -67.15424,9.70765 -100.71875,11.0312 -7.15625,0 -14.3125,0 -21.46875,0 -0.629819,-42.12907 -0.345625,-84.27301 -0.46875,-126.40605 z"
   id="path4"
   inkscape:connector-curvature="0" />
</g>
<g
   id="LWPOLYLINE_1_">
	
		
</g>

<g
   id="LWPOLYLINE_3_">
	
		
</g>
</svg>