<?xml version="1.0" encoding="UTF-8" standalone="no"?>
<!-- Generator: Adobe Illustrator 16.0.1, SVG Export Plug-In . SVG Version: 6.00 Build 0)  -->

<svg
   xmlns:dc="http://purl.org/dc/elements/1.1/"
   xmlns:cc="http://creativecommons.org/ns#"
   xmlns:rdf="http://www.w3.org/1999/02/22-rdf-syntax-ns#"
   xmlns:svg="http://www.w3.org/2000/svg"
   xmlns="http://www.w3.org/2000/svg"
   xmlns:sodipodi="http://sodipodi.sourceforge.net/DTD/sodipodi-0.dtd"
   xmlns:inkscape="http://www.inkscape.org/namespaces/inkscape"
   version="1.0"
   id="_x31_"
   x="0px"
   y="0px"
   width="612px"
   height="792px"
   viewBox="0 0 612 792"
   enable-background="new 0 0 612 792"
   xml:space="preserve"
   inkscape:version="0.48.2 r9819"
   sodipodi:docname="7065.svg"><metadata
   id="metadata76"><rdf:RDF><cc:Work
       rdf:about=""><dc:format>image/svg+xml</dc:format><dc:type
         rdf:resource="http://purl.org/dc/dcmitype/StillImage" /></cc:Work></rdf:RDF></metadata><defs
   id="defs74" /><sodipodi:namedview
   pagecolor="#ffffff"
   bordercolor="#666666"
   borderopacity="1"
   objecttolerance="10"
   gridtolerance="10"
   guidetolerance="10"
   inkscape:pageopacity="0"
   inkscape:pageshadow="2"
   inkscape:window-width="1920"
   inkscape:window-height="1073"
   id="namedview72"
   showgrid="false"
   inkscape:zoom="1.1919192"
   inkscape:cx="-25.889289"
   inkscape:cy="263.28399"
   inkscape:window-x="0"
   inkscape:window-y="0"
   inkscape:window-maximized="1"
   inkscape:current-layer="_x31_" />
<g
   id="LWPOLYLINE_8_"
   style="stroke:none;fill:#000000;fill-opacity:1">
	
		<path
   style="fill:#000000;stroke:none;stroke-width:0.70870000000000000;stroke-linecap:round;stroke-linejoin:round;stroke-miterlimit:10;fill-opacity:1"
   d="M 145.1875 269.5 C 117.5959 269.35584 90.619913 283.35551 74.9375 306.0625 C 52.409195 337.08536 54.831577 383.02947 80.46875 411.53125 C 105.22378 441.0068 150.6401 449.71103 184.53125 431.46875 C 219.21693 414.32869 238.42985 371.89957 228.40625 334.53125 C 219.78824 297.16916 183.51493 268.87018 145.1875 269.5 z M 146.875 290.90625 C 182.19394 290.98055 212.85164 324.43948 209.34375 359.75 C 207.86959 395.76049 171.74645 424.99314 136.21875 418.9375 C 100.40606 414.95851 73.798242 376.9224 82.28125 341.90625 C 88.067243 312.74002 115.44219 290.54697 145.1875 290.9375 C 145.75035 290.92173 146.31438 290.90507 146.875 290.90625 z "
   id="polygon52" />
</g><g
   id="LWPOLYLINE"
   style="stroke:none;fill:#000000;fill-opacity:1">
	
		<path
   style="fill:#000000;stroke:none;stroke-width:0.70870000000000000;stroke-linecap:round;stroke-linejoin:round;stroke-miterlimit:10;fill-opacity:1"
   d="m 309.56,646 c 6.30013,-0.19389 13.25466,0.38572 19.181,-0.25 -0.19899,-48.41867 0.40403,-97.63937 -0.293,-145.56 -7.60466,1.1062 -17.10871,-3.06936 -22.594,3.854 -9.2139,7.73975 -20.66957,13.47821 -30.298,19.72 0,6.855 0,13.71 0,20.565 12.28668,-5.3116 23.5774,-12.79566 33.997,-21.151 0.005,40.93833 -0.009,81.89533 0.007,122.822 z"
   id="path4"
   inkscape:connector-curvature="0" />
</g>
<g
   id="LWPOLYLINE_1_"
   style="stroke-width:4.709;stroke-miterlimit:10;stroke-dasharray:none">
	
		<path
   style="fill:none;stroke:#000000;stroke-width:4.709;stroke-linecap:round;stroke-linejoin:round;stroke-miterlimit:10;stroke-dasharray:none"
   d="m 145.196,333.814 c 16.17426,-0.74568 27.41063,19.49906 18.174,32.811 -7.90876,14.12814 -31.05665,12.91332 -37.437,-1.969 -7.11939,-13.78431 3.74083,-31.15503 19.263,-30.842 z"
   id="polygon7"
   inkscape:connector-curvature="0" />
</g>
<g
   id="LWPOLYLINE_2_">
	
		<path
   style="fill:none;stroke:#000000;stroke-width:4.709;stroke-linecap:round;stroke-linejoin:round;stroke-miterlimit:10;stroke-dasharray:none"
   d="m 466.804,333.814 c 16.17558,-0.73904 27.41722,19.50995 18.175,32.811 -7.91876,14.12908 -31.04922,12.9104 -37.438,-1.969 -7.13176,-13.76559 3.74619,-31.15501 19.263,-30.842 z"
   id="polygon10"
   inkscape:connector-curvature="0" />
</g>
<g
   id="ARC">
	
		
</g>
<g
   id="ARC_1_">
	
		
</g>
<g
   id="LINE"
   style="stroke:none;fill:#000000;fill-opacity:1">
	
		<path
   style="fill:#000000;stroke:none;stroke-width:0.70870000000000000;stroke-linecap:round;stroke-linejoin:round;stroke-miterlimit:10;fill-opacity:1"
   d="m 310.19324,164.1944 3.58375,0.54708 c 28.82966,4.41539 39.12818,45.82955 15.68588,63.20454 -21.64953,19.80233 -60.57828,1.4738 -59.05787,-27.87352 -6.00234,-0.0315 -12.00467,-0.0315 -18.00701,0 -1.61335,37.34362 41.54502,65.65274 75.15368,49.88419 36.65546,-13.61755 44.73804,-68.09052 13.35602,-91.60073 -9.57488,-7.95825 -21.9587,-12.40201 -34.44719,-12.35596 -0.0415,6.00267 -0.0415,12.00533 5e-4,18.008 z"
   id="line19"
   inkscape:connector-curvature="0"
   sodipodi:nodetypes="cccccccccc" />
</g>
<g
   id="LINE_1_">
	
		
</g>
<g
   id="LWPOLYLINE_3_">
	
		
</g>
<g
   id="LWPOLYLINE_4_">
	
		
</g>
<g
   id="LINE_2_">
	
		
</g>
<g
   id="LINE_3_"
   style="stroke:none;fill:#000000;fill-opacity:1">
	
		<path
   style="fill:#000000;stroke:none;stroke-width:0.70870000000000000;stroke-linecap:round;stroke-linejoin:round;stroke-miterlimit:10;fill-opacity:1"
   d="m 464.25,200.041 c 0.0466,11.97077 -6.35586,23.66297 -16.458,30.088 -19.33101,13.62585 -49.6276,2.53564 -55.15,-20.582 -7.03774,-22.19122 12.4704,-46.68049 35.552,-45.539 0,-6.00267 0,-12.00533 0,-18.008 -31.37035,-1.21899 -59.04532,29.01642 -54.522,60.197 2.72444,31.41942 36.55578,54.60515 66.876,46.358 23.88341,-5.32469 42.01817,-27.99637 41.708,-52.514 -6.00199,0 -12.004,0 -18.006,0 z"
   id="line34"
   inkscape:connector-curvature="0"
   sodipodi:nodetypes="ccccccccc" />
</g>
<g
   id="LWPOLYLINE_5_">
	
		
</g>
<g
   id="LWPOLYLINE_6_">
	
		
</g>
<g
   id="LINE_4_"
   style="stroke:none;fill:#000000;fill-opacity:1">
	
		<path
   style="fill:#000000;stroke:none;stroke-width:0.70870000000000000;stroke-linecap:round;stroke-linejoin:round;stroke-miterlimit:10;fill-opacity:1"
   d="m 185.073,254.062 c 31.81701,0.75143 59.0409,-29.92529 54.009,-61.035 -3.23194,-31.35819 -37.40016,-54.03838 -67.588,-45.31 -23.53613,5.67713 -41.18946,28.04687 -40.871,52.324 6.00233,0 12.00467,0 18.013,-0.096 -0.0162,-11.72143 6.07828,-23.01696 15.699,-29.506 19.02513,-14.06147 49.54221,-3.70406 55.636,19.276 7.54992,22.01162 -11.35859,46.98229 -34.898,46.33999 -0.429,6.00234 -0.429,12.00467 0,18.00701 z"
   id="line43"
   inkscape:connector-curvature="0"
   sodipodi:nodetypes="ccccccccc" />
</g>
<g
   id="LINE_5_">
	
		
</g>
<g
   id="LWPOLYLINE_7_">
	
		
</g>

<g
   id="LWPOLYLINE_9_"
   style="stroke:none;fill:#000000;fill-opacity:1">
	
		<path
   style="fill:#000000;stroke:none;stroke-width:0.70870000000000000;stroke-linecap:round;stroke-linejoin:round;stroke-miterlimit:10;fill-opacity:1"
   d="M 469.0625 269.46875 C 468.30654 269.46799 467.57145 269.47743 466.8125 269.5 C 463.34743 269.49584 459.87662 269.70234 456.4375 270.125 C 414.35209 274.30944 380.12081 313.25809 381.0625 355.5 C 379.78677 399.41958 417.62433 438.72556 461.1875 440.875 C 506.24368 445.25825 548.87473 407.79244 552.34375 363.0625 C 558.09697 315.50144 516.68817 269.51686 469.0625 269.46875 z M 468.65625 290.90625 C 507.48187 290.76685 539.63834 331.90795 529.65625 369.6875 C 521.84751 407.19118 476.97062 430.79987 441.84375 414.71875 C 407.6988 400.92228 391.34188 355.79256 410.59375 323.90625 C 421.73929 304.0241 443.88041 290.56733 466.8125 290.9375 C 467.432 290.9143 468.03997 290.90846 468.65625 290.90625 z "
   id="polygon55" />
</g>
<g
   id="LWPOLYLINE_10_">
	
		
</g>
<g
   id="LINE_6_"
   style="stroke:none;fill:#000000;fill-opacity:1">
	
		<path
   style="fill:#000000;stroke:none;stroke-width:0.70870000000000000;stroke-linecap:round;stroke-linejoin:round;stroke-miterlimit:10;fill-opacity:1"
   d="m 145.196,269.492 c 107.20266,0 214.40533,0 321.60799,0 l 0,21.44199 c -107.20266,0 -214.40533,0 -321.60799,0 z"
   id="line61"
   inkscape:connector-curvature="0"
   sodipodi:nodetypes="ccccc" />
</g>
<g
   id="LINE_7_">
	
		
</g>
<g
   id="LINE_8_"
   style="stroke:none;fill:#000000;fill-opacity:1">
	
		<path
   style="fill:#000000;stroke:none;stroke-width:0.70870000000000000;stroke-linecap:round;stroke-linejoin:round;stroke-miterlimit:10;fill-opacity:1"
   d="m 466.80399,419.57599 c -107.20266,0 -214.40533,0 -321.60799,0 l 0,21.44202 c 107.20266,0 214.40533,0 321.60799,0 z"
   id="line67"
   inkscape:connector-curvature="0"
   sodipodi:nodetypes="ccccc" />
</g>
<g
   id="LINE_9_">
	
		
</g>
</svg>