<?xml version="1.0" encoding="UTF-8" standalone="no"?>
<!-- Generator: Adobe Illustrator 16.0.1, SVG Export Plug-In . SVG Version: 6.00 Build 0)  -->

<svg
   xmlns:dc="http://purl.org/dc/elements/1.1/"
   xmlns:cc="http://creativecommons.org/ns#"
   xmlns:rdf="http://www.w3.org/1999/02/22-rdf-syntax-ns#"
   xmlns:svg="http://www.w3.org/2000/svg"
   xmlns="http://www.w3.org/2000/svg"
   xmlns:sodipodi="http://sodipodi.sourceforge.net/DTD/sodipodi-0.dtd"
   xmlns:inkscape="http://www.inkscape.org/namespaces/inkscape"
   version="1.0"
   id="_x31_"
   x="0px"
   y="0px"
   width="612px"
   height="792px"
   viewBox="0 0 612 792"
   enable-background="new 0 0 612 792"
   xml:space="preserve"
   inkscape:version="0.48.2 r9819"
   sodipodi:docname="7066.svg"><metadata
   id="metadata46"><rdf:RDF><cc:Work
       rdf:about=""><dc:format>image/svg+xml</dc:format><dc:type
         rdf:resource="http://purl.org/dc/dcmitype/StillImage" /></cc:Work></rdf:RDF></metadata><defs
   id="defs44" /><sodipodi:namedview
   pagecolor="#ffffff"
   bordercolor="#666666"
   borderopacity="1"
   objecttolerance="10"
   gridtolerance="10"
   guidetolerance="10"
   inkscape:pageopacity="0"
   inkscape:pageshadow="2"
   inkscape:window-width="1920"
   inkscape:window-height="1073"
   id="namedview42"
   showgrid="false"
   inkscape:zoom="1.6856283"
   inkscape:cx="225.97339"
   inkscape:cy="422.35021"
   inkscape:window-x="0"
   inkscape:window-y="0"
   inkscape:window-maximized="1"
   inkscape:current-layer="_x31_" />
<g
   id="LWPOLYLINE_12_"
   style="stroke:none;fill:#000000;fill-opacity:1">
	
		<path
   style="fill:#000000;stroke:none;stroke-width:0.70870000000000000;stroke-linecap:round;stroke-linejoin:round;stroke-miterlimit:10;fill-opacity:1"
   d="M 350.53125 146 L 350.53125 196.5 L 106.5 196.5 L 106.5 222.1875 L 350.53125 222.1875 L 350.53125 323.21875 L 106.5 323.21875 L 106.5 348.0625 L 350.53125 348.0625 L 350.53125 398.5625 L 451.5625 398.5625 L 451.5625 348.0625 L 502.0625 348.0625 L 502.0625 196.5 L 451.5625 196.5 L 451.5625 146 L 350.53125 146 z M 376.1875 171.65625 L 425.03125 171.65625 L 425.03125 372.875 L 376.1875 372.875 L 376.1875 171.65625 z M 451.5625 221.34375 L 475.53125 221.34375 L 475.53125 322.34375 L 451.5625 322.34375 L 451.5625 221.34375 z "
   id="polygon40" />
</g><g
   id="LWPOLYLINE"
   style="stroke:none;fill:#000000;fill-opacity:1">
	
		<path
   fill="none"
   stroke="#000000"
   stroke-width="0.7087"
   stroke-linecap="round"
   stroke-linejoin="round"
   stroke-miterlimit="10"
   d="   M92.811,638.309c0.146,0,0.293,0,0.293,0h0.229h0.293h0.334h0.377h0.438h0.46h0.522h0.544h0.585h0.606h0.627h0.647h0.669h0.69   h0.689h0.711h0.711h0.689h0.711h0.689h0.689h0.669h0.648h0.627h0.606h0.585h0.544h0.522h0.46h0.438h0.376h0.335h0.293h0.229   c0.167,0,0.251,0,0.251,0c0.042,0,0.042-0.252,0.042-0.252v-0.793v-1.213v-1.715v-2.09v-2.508v-2.885v-3.262v-3.512v-3.846v-4.098   v-4.348v-4.557v-4.723v-4.893v-5.059v-5.1v-5.227v-5.268v-5.309v-5.268v-5.268v-5.227v-5.141v-5.018v-4.891v-4.768v-4.514v-4.348   v-4.098v-3.846v-3.555V508.5v-2.885v-2.508v-2.133v-1.672v-1.254v-0.752v-0.252c-0.126,0-0.293,0-0.293,0h-0.209h-0.271h-0.313   h-0.377h-0.396h-0.46h-0.481h-0.522h-0.564h-0.563h-0.606h-0.627h-0.648h-0.647h-0.669h-0.669h-0.669h-0.669h-0.669h-0.669h-0.648   h-0.647h-0.627H98.12h-0.564h-0.564h-0.522h-0.48h-0.46h-0.397h-0.376h-0.313h-0.272H93.96c-0.167,0-0.25,0-0.25,0   c-0.042,0-0.628,0.502-0.628,0.502l-0.605,0.543l-0.628,0.502l-0.647,0.545l-0.648,0.543l-0.689,0.543l-0.689,0.543l-0.711,0.545   l-0.731,0.584L87,502.439l-0.773,0.543l-0.773,0.584l-0.773,0.586l-0.815,0.543l-0.815,0.586l-0.815,0.586l-0.856,0.543   l-0.836,0.586l-0.878,0.584l-0.878,0.586l-0.878,0.586l-0.899,0.584l-0.92,0.545l-0.919,0.584l-0.92,0.586l-0.94,0.586   l-0.962,0.543l-0.94,0.586l-0.962,0.543l-0.982,0.584l-0.982,0.545l-0.982,0.584l-0.982,0.545l-1.003,0.543l-1.004,0.543   l-1.003,0.543l-1.024,0.545l-1.004,0.502l-1.023,0.543l-1.024,0.502c0,0.166,0,0.334,0,0.334v0.25v0.293v0.377v0.418v0.459v0.545   v0.543v0.584v0.629v0.668v0.711v0.711v0.711v0.752v0.752v0.754v0.793v0.752v0.795v0.752v0.754v0.711v0.709v0.711v0.627v0.67v0.586   v0.543v0.543v0.461v0.418v0.375v0.293v0.252c0,0.166,0,0.291,0,0.291c0,0.043,0.773-0.291,0.773-0.291l0.773-0.336l0.815-0.375   l0.814-0.377l0.815-0.377l0.815-0.418l0.856-0.418l0.837-0.418l0.856-0.459l0.857-0.418l0.878-0.461l0.856-0.502l0.878-0.459   l0.878-0.502l0.878-0.502l0.878-0.543l0.899-0.502l0.878-0.543l0.878-0.502l0.898-0.543l0.878-0.586l0.878-0.543l0.878-0.543   l0.878-0.586l0.857-0.543l0.856-0.586l0.857-0.586l0.857-0.584l0.836-0.586l0.836-0.586l0.836-0.584l0.815-0.586l0.815-0.586   l0.794-0.584l0.773-0.586l0.773-0.586l0.753-0.584l0.752-0.586l0.731-0.586l0.711-0.584V638.309z"
   id="path4"
   style="stroke:none;fill:#000000;fill-opacity:1" />
</g>
<g
   id="LWPOLYLINE_1_"
   style="stroke:none;fill:#000000;fill-opacity:1">
	
		<path
   style="fill:#000000;stroke:none;stroke-width:0.70870000000000000;stroke-linecap:round;stroke-linejoin:round;stroke-miterlimit:10;fill-opacity:1"
   d="M 188.6875 494.4375 L 185.625 494.53125 L 182.6875 494.78125 L 179.875 495.21875 L 177.1875 495.75 L 174.625 496.46875 L 172.1875 497.3125 L 169.875 498.3125 L 167.71875 499.375 L 165.625 500.65625 L 163.65625 501.96875 L 161.78125 503.4375 L 160.03125 505 L 158.375 506.625 L 156.8125 508.375 L 155.375 510.21875 L 154 512.125 L 152.75 514.09375 L 151.5625 516.1875 L 150.4375 518.28125 L 149.40625 520.46875 L 148.46875 522.6875 L 147.625 524.96875 L 146.8125 527.28125 L 146.125 529.625 L 145.4375 531.9375 L 144.84375 534.34375 L 144.34375 536.71875 L 143.84375 539.15625 L 143.4375 541.53125 L 143.0625 543.9375 L 142.75 546.34375 L 142.46875 548.71875 L 142.25 551.0625 L 142.0625 553.40625 L 141.90625 555.65625 L 141.8125 557.90625 L 141.6875 560.125 L 141.65625 562.25 L 141.625 564.34375 L 141.625 566.40625 L 141.625 568.78125 L 141.6875 571.21875 L 141.75 573.6875 L 141.875 576.1875 L 142.03125 578.6875 L 142.21875 581.1875 L 142.46875 583.75 L 142.71875 586.3125 L 143.0625 588.84375 L 143.4375 591.40625 L 143.84375 593.90625 L 144.34375 596.46875 L 144.875 598.9375 L 145.46875 601.4375 L 146.125 603.84375 L 146.84375 606.28125 L 147.625 608.65625 L 148.46875 611 L 149.40625 613.28125 L 150.40625 615.53125 L 151.4375 617.65625 L 152.59375 619.78125 L 153.8125 621.78125 L 155.125 623.75 L 156.5 625.65625 L 157.96875 627.4375 L 159.5 629.15625 L 161.15625 630.78125 L 162.90625 632.28125 L 164.75 633.65625 L 166.65625 634.96875 L 168.6875 636.1875 L 170.8125 637.21875 L 173.03125 638.15625 L 175.375 638.96875 L 177.8125 639.65625 L 180.375 640.1875 L 183.03125 640.5625 L 185.8125 640.78125 L 188.6875 640.84375 L 191.59375 640.78125 L 194.375 640.5625 L 197.0625 640.1875 L 199.625 639.65625 L 202.0625 638.96875 L 204.40625 638.15625 L 206.65625 637.21875 L 208.8125 636.1875 L 210.84375 634.96875 L 212.8125 633.65625 L 214.65625 632.28125 L 216.4375 630.78125 L 218.09375 629.15625 L 219.6875 627.4375 L 221.1875 625.65625 L 222.59375 623.75 L 223.9375 621.78125 L 225.15625 619.78125 L 226.34375 617.65625 L 227.4375 615.53125 L 228.46875 613.28125 L 229.40625 611 L 230.3125 608.65625 L 231.125 606.28125 L 231.84375 603.84375 L 232.5625 601.4375 L 233.1875 598.9375 L 233.75 596.46875 L 234.25 593.90625 L 234.6875 591.40625 L 235.09375 588.84375 L 235.4375 586.3125 L 235.75 583.75 L 236 581.1875 L 236.21875 578.6875 L 236.375 576.1875 L 236.5 573.6875 L 236.59375 571.21875 L 236.625 568.78125 L 236.65625 566.40625 L 236.65625 564.34375 L 236.59375 562.25 L 236.53125 560.125 L 236.46875 557.90625 L 236.34375 555.65625 L 236.1875 553.40625 L 236 551.0625 L 235.78125 548.71875 L 235.5 546.34375 L 235.1875 543.9375 L 234.8125 541.53125 L 234.375 539.15625 L 233.90625 536.71875 L 233.375 534.34375 L 232.75 531.9375 L 232.09375 529.625 L 231.375 527.28125 L 230.5625 524.96875 L 229.6875 522.6875 L 228.71875 520.46875 L 227.6875 518.28125 L 226.5625 516.1875 L 225.375 514.09375 L 224.09375 512.125 L 222.6875 510.21875 L 221.1875 508.375 L 219.625 506.625 L 217.9375 505 L 216.15625 503.4375 L 214.25 501.96875 L 212.25 500.65625 L 210.125 499.375 L 207.875 498.3125 L 205.53125 497.3125 L 203.0625 496.46875 L 200.4375 495.75 L 197.71875 495.21875 L 194.84375 494.78125 L 191.84375 494.53125 L 188.6875 494.4375 z M 188.6875 510.71875 L 190.34375 510.75 L 191.90625 510.9375 L 193.4375 511.125 L 194.90625 511.4375 L 196.3125 511.84375 L 197.65625 512.3125 L 198.96875 512.84375 L 200.1875 513.46875 L 201.375 514.1875 L 202.5 514.96875 L 203.59375 515.84375 L 204.625 516.8125 L 205.59375 517.8125 L 206.53125 518.90625 L 207.4375 520.09375 L 208.25 521.28125 L 209.0625 522.59375 L 209.8125 523.96875 L 210.53125 525.40625 L 211.1875 526.90625 L 211.78125 528.4375 L 212.375 530.0625 L 212.90625 531.75 L 213.40625 533.46875 L 213.875 535.25 L 214.3125 537.125 L 214.6875 539.03125 L 215.0625 540.96875 L 215.375 543 L 215.6875 545.03125 L 215.9375 547.1875 L 216.15625 549.3125 L 216.34375 551.53125 L 216.5 553.71875 L 216.65625 556.03125 L 216.78125 558.375 L 216.84375 560.75 L 216.90625 563.15625 L 216.96875 565.59375 L 216.96875 568.0625 L 216.96875 570.03125 L 216.9375 571.96875 L 216.875 573.9375 L 216.8125 575.9375 L 216.71875 577.90625 L 216.625 579.875 L 216.46875 581.875 L 216.3125 583.84375 L 216.125 585.8125 L 215.90625 587.78125 L 215.65625 589.6875 L 215.375 591.625 L 215.0625 593.53125 L 214.71875 595.40625 L 214.34375 597.25 L 213.9375 599.09375 L 213.46875 600.84375 L 212.96875 602.59375 L 212.40625 604.3125 L 211.8125 606 L 211.1875 607.59375 L 210.53125 609.15625 L 209.78125 610.6875 L 209 612.09375 L 208.1875 613.46875 L 207.3125 614.8125 L 206.375 616.0625 L 205.375 617.25 L 204.3125 618.375 L 203.25 619.375 L 202.0625 620.34375 L 200.84375 621.21875 L 199.5625 621.96875 L 198.21875 622.625 L 196.8125 623.21875 L 195.3125 623.71875 L 193.78125 624.09375 L 192.15625 624.375 L 190.46875 624.5625 L 188.6875 624.59375 L 187 624.5625 L 185.375 624.375 L 183.8125 624.09375 L 182.3125 623.71875 L 180.90625 623.21875 L 179.53125 622.625 L 178.21875 621.96875 L 177 621.21875 L 175.78125 620.34375 L 174.65625 619.375 L 173.59375 618.375 L 172.59375 617.25 L 171.625 616.0625 L 170.75 614.8125 L 169.875 613.46875 L 169.0625 612.09375 L 168.3125 610.6875 L 167.625 609.15625 L 166.96875 607.59375 L 166.3125 606 L 165.75 604.3125 L 165.25 602.59375 L 164.75 600.84375 L 164.3125 599.09375 L 163.875 597.25 L 163.5 595.40625 L 163.15625 593.53125 L 162.84375 591.625 L 162.59375 589.6875 L 162.34375 587.78125 L 162.125 585.8125 L 161.9375 583.84375 L 161.78125 581.875 L 161.65625 579.875 L 161.53125 577.90625 L 161.46875 575.9375 L 161.40625 573.9375 L 161.34375 571.96875 L 161.3125 570.03125 L 161.3125 568.0625 L 161.3125 565.59375 L 161.34375 563.15625 L 161.40625 560.75 L 161.5 558.375 L 161.59375 556.03125 L 161.75 553.71875 L 161.90625 551.53125 L 162.09375 549.3125 L 162.3125 547.1875 L 162.59375 545.03125 L 162.84375 543 L 163.15625 540.96875 L 163.53125 539.03125 L 163.90625 537.125 L 164.3125 535.25 L 164.78125 533.46875 L 165.28125 531.75 L 165.8125 530.0625 L 166.375 528.4375 L 166.96875 526.90625 L 167.625 525.40625 L 168.3125 523.96875 L 169.03125 522.59375 L 169.8125 521.28125 L 170.625 520.09375 L 171.5 518.90625 L 172.375 517.8125 L 173.34375 516.8125 L 174.34375 515.84375 L 175.40625 514.96875 L 176.5 514.1875 L 177.625 513.46875 L 178.8125 512.84375 L 180.09375 512.3125 L 181.375 511.84375 L 182.75 511.4375 L 184.125 511.125 L 185.59375 510.9375 L 187.125 510.75 L 188.6875 510.71875 z "
   id="polygon7" />
</g>
<g
   id="LWPOLYLINE_2_">
	
		
</g>
<g
   id="LWPOLYLINE_3_"
   style="stroke:none;fill:#000000;fill-opacity:1">
	
		<path
   style="fill:#000000;stroke:none;stroke-width:0.70870000000000000;stroke-linecap:round;stroke-linejoin:round;stroke-miterlimit:10;fill-opacity:1"
   d="M 306.84375 494.4375 L 303.78125 494.53125 L 300.84375 494.78125 L 298.03125 495.21875 L 295.34375 495.75 L 292.78125 496.46875 L 290.375 497.3125 L 288.03125 498.3125 L 285.84375 499.375 L 283.75 500.65625 L 281.78125 501.96875 L 279.9375 503.4375 L 278.1875 505 L 276.53125 506.625 L 274.96875 508.375 L 273.53125 510.21875 L 272.15625 512.125 L 270.875 514.09375 L 269.6875 516.1875 L 268.59375 518.28125 L 267.59375 520.46875 L 266.625 522.6875 L 265.78125 524.96875 L 265 527.28125 L 264.25 529.625 L 263.59375 531.9375 L 263 534.34375 L 262.46875 536.71875 L 262 539.15625 L 261.59375 541.53125 L 261.21875 543.9375 L 260.90625 546.34375 L 260.65625 548.71875 L 260.40625 551.0625 L 260.21875 553.40625 L 260.0625 555.65625 L 259.9375 557.90625 L 259.875 560.125 L 259.8125 562.25 L 259.78125 564.34375 L 259.75 566.40625 L 259.78125 568.78125 L 259.8125 571.21875 L 259.90625 573.6875 L 260 576.1875 L 260.1875 578.6875 L 260.375 581.1875 L 260.59375 583.75 L 260.90625 586.3125 L 261.21875 588.84375 L 261.59375 591.40625 L 262.03125 593.90625 L 262.5 596.46875 L 263.03125 598.9375 L 263.625 601.4375 L 264.28125 603.84375 L 265 606.28125 L 265.78125 608.65625 L 266.625 611 L 267.5625 613.28125 L 268.53125 615.53125 L 269.59375 617.65625 L 270.75 619.78125 L 271.96875 621.78125 L 273.28125 623.75 L 274.65625 625.65625 L 276.09375 627.4375 L 277.6875 629.15625 L 279.3125 630.78125 L 281.03125 632.28125 L 282.875 633.65625 L 284.8125 634.96875 L 286.84375 636.1875 L 288.96875 637.21875 L 291.1875 638.15625 L 293.53125 638.96875 L 295.96875 639.65625 L 298.53125 640.1875 L 301.1875 640.5625 L 303.9375 640.78125 L 306.84375 640.84375 L 309.75 640.78125 L 312.53125 640.5625 L 315.1875 640.1875 L 317.78125 639.65625 L 320.21875 638.96875 L 322.5625 638.15625 L 324.8125 637.21875 L 327 636.1875 L 329 634.96875 L 330.96875 633.65625 L 332.84375 632.28125 L 334.59375 630.78125 L 336.28125 629.15625 L 337.84375 627.4375 L 339.3125 625.65625 L 340.75 623.75 L 342.09375 621.78125 L 343.34375 619.78125 L 344.5 617.65625 L 345.59375 615.53125 L 346.625 613.28125 L 347.5625 611 L 348.46875 608.65625 L 349.28125 606.28125 L 350.03125 603.84375 L 350.6875 601.4375 L 351.3125 598.9375 L 351.90625 596.46875 L 352.40625 593.90625 L 352.875 591.40625 L 353.25 588.84375 L 353.625 586.3125 L 353.90625 583.75 L 354.15625 581.1875 L 354.375 578.6875 L 354.53125 576.1875 L 354.65625 573.6875 L 354.75 571.21875 L 354.78125 568.78125 L 354.78125 566.40625 L 354.78125 564.34375 L 354.75 562.25 L 354.71875 560.125 L 354.625 557.90625 L 354.5 555.65625 L 354.3125 553.40625 L 354.15625 551.0625 L 353.90625 548.71875 L 353.65625 546.34375 L 353.3125 543.9375 L 352.9375 541.53125 L 352.53125 539.15625 L 352.0625 536.71875 L 351.53125 534.34375 L 350.90625 531.9375 L 350.28125 529.625 L 349.53125 527.28125 L 348.71875 524.96875 L 347.84375 522.6875 L 346.875 520.46875 L 345.84375 518.28125 L 344.71875 516.1875 L 343.53125 514.09375 L 342.25 512.125 L 340.8125 510.21875 L 339.375 508.375 L 337.78125 506.625 L 336.09375 505 L 334.3125 503.4375 L 332.4375 501.96875 L 330.40625 500.65625 L 328.28125 499.375 L 326.03125 498.3125 L 323.6875 497.3125 L 321.21875 496.46875 L 318.59375 495.75 L 315.875 495.21875 L 312.96875 494.78125 L 310 494.53125 L 306.84375 494.4375 z M 306.84375 510.71875 L 308.5 510.75 L 310.0625 510.9375 L 311.59375 511.125 L 313.0625 511.4375 L 314.4375 511.84375 L 315.8125 512.3125 L 317.125 512.84375 L 318.34375 513.46875 L 319.53125 514.1875 L 320.6875 514.96875 L 321.75 515.84375 L 322.75 516.8125 L 323.78125 517.8125 L 324.6875 518.90625 L 325.5625 520.09375 L 326.40625 521.28125 L 327.1875 522.59375 L 327.9375 523.96875 L 328.65625 525.40625 L 329.3125 526.90625 L 329.96875 528.4375 L 330.53125 530.0625 L 331.09375 531.75 L 331.59375 533.46875 L 332.03125 535.25 L 332.46875 537.125 L 332.84375 539.03125 L 333.21875 540.96875 L 333.5625 543 L 333.84375 545.03125 L 334.09375 547.1875 L 334.3125 549.3125 L 334.5 551.53125 L 334.6875 553.71875 L 334.8125 556.03125 L 334.9375 558.375 L 335 560.75 L 335.0625 563.15625 L 335.09375 565.59375 L 335.09375 568.0625 L 335.09375 570.03125 L 335.09375 571.96875 L 335 573.9375 L 334.96875 575.9375 L 334.875 577.90625 L 334.75 579.875 L 334.625 581.875 L 334.46875 583.84375 L 334.3125 585.8125 L 334.0625 587.78125 L 333.8125 589.6875 L 333.5625 591.625 L 333.21875 593.53125 L 332.875 595.40625 L 332.5 597.25 L 332.09375 599.09375 L 331.625 600.84375 L 331.125 602.59375 L 330.59375 604.3125 L 329.96875 606 L 329.3125 607.59375 L 328.65625 609.15625 L 327.9375 610.6875 L 327.15625 612.09375 L 326.3125 613.46875 L 325.4375 614.8125 L 324.53125 616.0625 L 323.53125 617.25 L 322.46875 618.375 L 321.375 619.375 L 320.21875 620.34375 L 319 621.21875 L 317.71875 621.96875 L 316.375 622.625 L 314.9375 623.21875 L 313.46875 623.71875 L 311.9375 624.09375 L 310.3125 624.375 L 308.625 624.5625 L 306.84375 624.59375 L 305.15625 624.5625 L 303.53125 624.375 L 301.96875 624.09375 L 300.46875 623.71875 L 299.03125 623.21875 L 297.6875 622.625 L 296.375 621.96875 L 295.125 621.21875 L 293.9375 620.34375 L 292.84375 619.375 L 291.75 618.375 L 290.75 617.25 L 289.78125 616.0625 L 288.875 614.8125 L 288.03125 613.46875 L 287.21875 612.09375 L 286.46875 610.6875 L 285.78125 609.15625 L 285.09375 607.59375 L 284.5 606 L 283.9375 604.3125 L 283.375 602.59375 L 282.90625 600.84375 L 282.4375 599.09375 L 282.03125 597.25 L 281.65625 595.40625 L 281.3125 593.53125 L 281 591.625 L 280.71875 589.6875 L 280.5 587.78125 L 280.28125 585.8125 L 280.09375 583.84375 L 279.9375 581.875 L 279.78125 579.875 L 279.6875 577.90625 L 279.59375 575.9375 L 279.53125 573.9375 L 279.5 571.96875 L 279.46875 570.03125 L 279.46875 568.0625 L 279.46875 565.59375 L 279.5 563.15625 L 279.5625 560.75 L 279.65625 558.375 L 279.78125 556.03125 L 279.90625 553.71875 L 280.0625 551.53125 L 280.25 549.3125 L 280.46875 547.1875 L 280.71875 545.03125 L 281.03125 543 L 281.34375 540.96875 L 281.6875 539.03125 L 282.0625 537.125 L 282.46875 535.25 L 282.9375 533.46875 L 283.4375 531.75 L 283.96875 530.0625 L 284.53125 528.4375 L 285.125 526.90625 L 285.78125 525.40625 L 286.46875 523.96875 L 287.1875 522.59375 L 287.96875 521.28125 L 288.78125 520.09375 L 289.625 518.90625 L 290.5625 517.8125 L 291.5 516.8125 L 292.5 515.84375 L 293.53125 514.96875 L 294.65625 514.1875 L 295.78125 513.46875 L 297 512.84375 L 298.21875 512.3125 L 299.53125 511.84375 L 300.875 511.4375 L 302.3125 511.125 L 303.75 510.9375 L 305.28125 510.75 L 306.84375 510.71875 z "
   id="polygon13" />
</g>
<g
   id="LWPOLYLINE_4_">
	
		
</g>
<g
   id="LWPOLYLINE_5_"
   style="stroke:none;fill:#000000;fill-opacity:1">
	
		<path
   style="fill:#000000;stroke:none;stroke-width:0.70870000000000000;stroke-linecap:round;stroke-linejoin:round;stroke-miterlimit:10;fill-opacity:1"
   d="M 425.03125 494.4375 L 423.1875 494.5 L 421.4375 494.5625 L 419.71875 494.75 L 418.03125 494.96875 L 416.4375 495.25 L 414.90625 495.59375 L 413.4375 495.96875 L 412.03125 496.375 L 410.65625 496.875 L 409.3125 497.4375 L 408.0625 498 L 406.84375 498.6875 L 405.71875 499.34375 L 404.59375 500.09375 L 403.53125 500.90625 L 402.53125 501.6875 L 401.5625 502.5625 L 400.6875 503.4375 L 399.8125 504.40625 L 399.03125 505.375 L 398.21875 506.40625 L 397.5 507.46875 L 396.84375 508.5 L 396.21875 509.625 L 395.625 510.75 L 395.09375 511.9375 L 394.59375 513.15625 L 394.125 514.34375 L 393.71875 515.59375 L 393.34375 516.875 L 393 518.15625 L 392.71875 519.4375 L 392.46875 520.78125 L 392.21875 522.125 L 392.03125 523.46875 L 391.875 524.84375 L 391.78125 526.21875 L 391.6875 527.59375 L 391.625 529.03125 L 391.625 530.40625 L 391.65625 532.25 L 391.75 534.03125 L 391.875 535.8125 L 392.09375 537.46875 L 392.34375 539.15625 L 392.625 540.71875 L 392.96875 542.28125 L 393.375 543.78125 L 393.78125 545.25 L 394.28125 546.65625 L 394.84375 548 L 395.4375 549.34375 L 396.0625 550.59375 L 396.71875 551.8125 L 397.4375 552.96875 L 398.1875 554.125 L 398.96875 555.1875 L 399.8125 556.1875 L 400.6875 557.21875 L 401.5625 558.125 L 402.5 559.03125 L 403.4375 559.875 L 404.46875 560.6875 L 405.5 561.4375 L 406.53125 562.125 L 407.625 562.8125 L 408.71875 563.40625 L 409.875 563.96875 L 411.03125 564.53125 L 412.1875 564.96875 L 413.40625 565.40625 L 414.625 565.78125 L 415.875 566.15625 L 417.125 566.4375 L 418.40625 566.6875 L 419.71875 566.875 L 421 567.03125 L 422.34375 567.15625 L 423.6875 567.1875 L 425.03125 567.25 L 426.375 567.1875 L 427.6875 567.15625 L 429 567.03125 L 430.34375 566.875 L 431.625 566.6875 L 432.875 566.4375 L 434.125 566.15625 L 435.375 565.78125 L 436.59375 565.40625 L 437.8125 564.96875 L 439 564.53125 L 440.15625 563.96875 L 441.28125 563.40625 L 442.40625 562.8125 L 443.46875 562.125 L 444.53125 561.4375 L 445.5625 560.6875 L 446.5625 559.875 L 447.5 559.03125 L 448.4375 558.125 L 449.34375 557.21875 L 450.21875 556.1875 L 451.03125 555.1875 L 451.8125 554.125 L 452.5625 552.96875 L 453.28125 551.8125 L 453.9375 550.59375 L 454.59375 549.34375 L 455.15625 548 L 455.71875 546.65625 L 456.21875 545.25 L 456.65625 543.78125 L 457.03125 542.28125 L 457.4375 540.71875 L 457.71875 539.15625 L 457.96875 537.46875 L 458.125 535.8125 L 458.3125 534.03125 L 458.375 532.25 L 458.375 530.40625 L 458.375 529.03125 L 458.34375 527.59375 L 458.25 526.21875 L 458.125 524.84375 L 457.96875 523.46875 L 457.8125 522.125 L 457.59375 520.78125 L 457.3125 519.4375 L 457 518.15625 L 456.65625 516.875 L 456.28125 515.59375 L 455.875 514.34375 L 455.40625 513.15625 L 454.90625 511.9375 L 454.375 510.75 L 453.78125 509.625 L 453.15625 508.5 L 452.5 507.46875 L 451.78125 506.40625 L 451.03125 505.375 L 450.1875 504.40625 L 449.34375 503.4375 L 448.4375 502.5625 L 447.46875 501.6875 L 446.46875 500.90625 L 445.4375 500.09375 L 444.34375 499.34375 L 443.15625 498.6875 L 441.96875 498 L 440.6875 497.4375 L 439.40625 496.875 L 438.03125 496.375 L 436.59375 495.96875 L 435.09375 495.59375 L 433.59375 495.25 L 431.96875 494.96875 L 430.34375 494.75 L 428.625 494.5625 L 426.875 494.5 L 425.03125 494.4375 z M 424.15625 506.4375 L 425.03125 506.4375 L 425.90625 506.4375 L 426.75 506.53125 L 427.5625 506.625 L 428.40625 506.75 L 429.1875 506.90625 L 429.96875 507.125 L 430.65625 507.375 L 431.375 507.625 L 432.09375 507.96875 L 432.75 508.28125 L 433.375 508.65625 L 434 509.03125 L 434.59375 509.5 L 435.125 509.96875 L 435.6875 510.46875 L 436.21875 511 L 436.71875 511.5625 L 437.1875 512.125 L 437.65625 512.78125 L 438.0625 513.40625 L 438.46875 514.0625 L 438.875 514.78125 L 439.25 515.46875 L 439.5625 516.21875 L 439.875 517.03125 L 440.15625 517.8125 L 440.4375 518.65625 L 440.6875 519.5 L 440.9375 520.375 L 441.15625 521.25 L 441.3125 522.1875 L 441.5 523.09375 L 441.65625 524.0625 L 441.78125 525.0625 L 441.875 526.03125 L 442 527.0625 L 442.03125 528.0625 L 442.09375 529.125 L 442.125 530.1875 L 442.125 531.28125 L 442.125 532.15625 L 442.125 533.09375 L 442.09375 533.96875 L 442 534.875 L 441.90625 535.75 L 441.8125 536.625 L 441.6875 537.5 L 441.5625 538.40625 L 441.4375 539.21875 L 441.28125 540.0625 L 441.0625 540.90625 L 440.875 541.75 L 440.625 542.5625 L 440.375 543.375 L 440.125 544.125 L 439.8125 544.90625 L 439.5 545.625 L 439.15625 546.375 L 438.78125 547.09375 L 438.40625 547.75 L 437.96875 548.4375 L 437.53125 549.0625 L 437.0625 549.6875 L 436.59375 550.28125 L 436.0625 550.8125 L 435.53125 551.34375 L 434.96875 551.84375 L 434.375 552.34375 L 433.75 552.78125 L 433.09375 553.1875 L 432.4375 553.5625 L 431.71875 553.90625 L 431 554.1875 L 430.21875 554.5 L 429.46875 554.6875 L 428.625 554.90625 L 427.75 555.0625 L 426.875 555.15625 L 425.9375 555.25 L 425.03125 555.25 L 424.0625 555.25 L 423.15625 555.15625 L 422.25 555.0625 L 421.4375 554.90625 L 420.59375 554.6875 L 419.8125 554.5 L 419.03125 554.1875 L 418.28125 553.90625 L 417.59375 553.5625 L 416.90625 553.1875 L 416.28125 552.78125 L 415.65625 552.34375 L 415.0625 551.84375 L 414.5 551.34375 L 413.9375 550.8125 L 413.4375 550.28125 L 412.9375 549.6875 L 412.46875 549.0625 L 412.0625 548.4375 L 411.65625 547.75 L 411.21875 547.09375 L 410.90625 546.375 L 410.53125 545.625 L 410.21875 544.90625 L 409.9375 544.125 L 409.625 543.375 L 409.375 542.5625 L 409.1875 541.75 L 408.9375 540.90625 L 408.75 540.0625 L 408.59375 539.21875 L 408.4375 538.40625 L 408.3125 537.5 L 408.1875 536.625 L 408.09375 535.75 L 408 534.875 L 407.96875 533.96875 L 407.9375 533.09375 L 407.875 532.15625 L 407.875 531.28125 L 407.875 530.1875 L 407.9375 529.125 L 407.96875 528.0625 L 408.0625 527.0625 L 408.125 526.03125 L 408.25 525.0625 L 408.375 524.0625 L 408.5 523.09375 L 408.6875 522.1875 L 408.875 521.25 L 409.09375 520.375 L 409.3125 519.5 L 409.5625 518.65625 L 409.84375 517.8125 L 410.125 517.03125 L 410.46875 516.21875 L 410.8125 515.46875 L 411.1875 514.78125 L 411.5625 514.0625 L 411.9375 513.40625 L 412.40625 512.78125 L 412.8125 512.125 L 413.3125 511.5625 L 413.8125 511 L 414.3125 510.46875 L 414.875 509.96875 L 415.4375 509.5 L 416.03125 509.03125 L 416.625 508.65625 L 417.28125 508.28125 L 417.96875 507.96875 L 418.625 507.625 L 419.34375 507.375 L 420.09375 507.125 L 420.84375 506.90625 L 421.625 506.75 L 422.4375 506.625 L 423.28125 506.53125 L 424.15625 506.4375 z "
   id="polygon19" />
</g>
<g
   id="LWPOLYLINE_6_">
	
		
</g>
<g
   id="LWPOLYLINE_7_"
   style="stroke:none;fill:#000000;fill-opacity:1">
	
		<path
   style="fill:#000000;stroke:none;stroke-width:0.70870000000000000;stroke-linecap:round;stroke-linejoin:round;stroke-miterlimit:10;fill-opacity:1"
   d="M 520.0625 568.0625 L 518.15625 568.125 L 516.3125 568.25 L 514.5625 568.40625 L 512.84375 568.625 L 511.21875 568.90625 L 509.6875 569.25 L 508.1875 569.65625 L 506.71875 570.125 L 505.34375 570.625 L 504 571.15625 L 502.75 571.78125 L 501.53125 572.46875 L 500.34375 573.1875 L 499.21875 573.9375 L 498.1875 574.71875 L 497.1875 575.5625 L 496.25 576.46875 L 495.34375 577.40625 L 494.5 578.34375 L 493.71875 579.3125 L 492.96875 580.375 L 492.28125 581.40625 L 491.625 582.5 L 491 583.625 L 490.4375 584.75 L 489.9375 585.96875 L 489.4375 587.125 L 489.03125 588.34375 L 488.59375 589.59375 L 488.28125 590.84375 L 487.9375 592.125 L 487.65625 593.40625 L 487.4375 594.71875 L 487.21875 596.03125 L 487.03125 597.34375 L 486.90625 598.6875 L 486.78125 600 L 486.71875 601.34375 L 486.6875 602.6875 L 486.65625 604.0625 L 486.6875 605.9375 L 486.78125 607.78125 L 486.90625 609.59375 L 487.0625 611.34375 L 487.3125 613.03125 L 487.59375 614.65625 L 487.9375 616.21875 L 488.3125 617.75 L 488.71875 619.1875 L 489.25 620.625 L 489.75 622 L 490.3125 623.34375 L 490.90625 624.59375 L 491.5625 625.8125 L 492.25 626.96875 L 493 628.09375 L 493.75 629.1875 L 494.53125 630.1875 L 495.4375 631.15625 L 496.3125 632.0625 L 497.21875 632.96875 L 498.15625 633.78125 L 499.15625 634.59375 L 500.15625 635.3125 L 501.1875 636 L 502.28125 636.625 L 503.40625 637.21875 L 504.53125 637.78125 L 505.71875 638.28125 L 506.875 638.71875 L 508.09375 639.15625 L 509.34375 639.53125 L 510.59375 639.8125 L 511.90625 640.09375 L 513.1875 640.34375 L 514.53125 640.53125 L 515.875 640.6875 L 517.25 640.78125 L 518.625 640.84375 L 520.0625 640.84375 L 521.375 640.84375 L 522.71875 640.78125 L 524.03125 640.6875 L 525.3125 640.53125 L 526.625 640.34375 L 527.875 640.09375 L 529.125 639.8125 L 530.34375 639.53125 L 531.53125 639.15625 L 532.71875 638.71875 L 533.875 638.28125 L 535 637.78125 L 536.09375 637.21875 L 537.1875 636.625 L 538.21875 636 L 539.28125 635.3125 L 540.28125 634.59375 L 541.25 633.78125 L 542.15625 632.96875 L 543.03125 632.0625 L 543.90625 631.15625 L 544.75 630.1875 L 545.5625 629.1875 L 546.3125 628.09375 L 547 626.96875 L 547.71875 625.8125 L 548.34375 624.59375 L 548.9375 623.34375 L 549.53125 622 L 550.03125 620.625 L 550.46875 619.1875 L 550.9375 617.75 L 551.3125 616.21875 L 551.65625 614.65625 L 551.90625 613.03125 L 552.15625 611.34375 L 552.3125 609.59375 L 552.5 607.78125 L 552.5625 605.9375 L 552.5625 604.0625 L 552.5625 602.6875 L 552.53125 601.34375 L 552.4375 600 L 552.3125 598.6875 L 552.1875 597.34375 L 552.03125 596.03125 L 551.8125 594.71875 L 551.5625 593.40625 L 551.3125 592.125 L 550.96875 590.84375 L 550.65625 589.59375 L 550.21875 588.34375 L 549.8125 587.125 L 549.34375 585.96875 L 548.84375 584.75 L 548.28125 583.625 L 547.6875 582.5 L 547.0625 581.40625 L 546.34375 580.375 L 545.625 579.3125 L 544.84375 578.34375 L 544.03125 577.40625 L 543.15625 576.46875 L 542.21875 575.5625 L 541.25 574.71875 L 540.25 573.9375 L 539.15625 573.1875 L 538.03125 572.46875 L 536.84375 571.78125 L 535.59375 571.15625 L 534.3125 570.625 L 532.96875 570.125 L 531.53125 569.65625 L 530.09375 569.25 L 528.5625 568.90625 L 527 568.625 L 525.34375 568.40625 L 523.65625 568.25 L 521.875 568.125 L 520.0625 568.0625 z M 520.0625 580.0625 L 520.875 580.125 L 521.6875 580.15625 L 522.46875 580.25 L 523.21875 580.375 L 523.9375 580.53125 L 524.65625 580.75 L 525.34375 581 L 526.03125 581.28125 L 526.65625 581.5625 L 527.28125 581.90625 L 527.90625 582.28125 L 528.4375 582.71875 L 529.03125 583.125 L 529.59375 583.59375 L 530.09375 584.09375 L 530.59375 584.625 L 531.03125 585.1875 L 531.5 585.75 L 531.96875 586.375 L 532.34375 587.0625 L 532.75 587.71875 L 533.125 588.40625 L 533.46875 589.15625 L 533.8125 589.90625 L 534.09375 590.65625 L 534.375 591.4375 L 534.625 592.28125 L 534.875 593.125 L 535.125 594 L 535.34375 594.875 L 535.53125 595.78125 L 535.6875 596.75 L 535.84375 597.6875 L 535.96875 598.6875 L 536.0625 599.6875 L 536.15625 600.6875 L 536.21875 601.71875 L 536.28125 602.78125 L 536.3125 603.8125 L 536.3125 604.90625 L 536.3125 605.8125 L 536.28125 606.6875 L 536.28125 607.625 L 536.21875 608.5 L 536.15625 609.375 L 536.0625 610.25 L 535.96875 611.125 L 535.84375 612 L 535.71875 612.84375 L 535.59375 613.71875 L 535.4375 614.5625 L 535.21875 615.34375 L 535 616.1875 L 534.8125 617 L 534.5625 617.78125 L 534.3125 618.53125 L 534 619.28125 L 533.6875 620 L 533.34375 620.71875 L 533 621.375 L 532.625 622.03125 L 532.21875 622.6875 L 531.78125 623.3125 L 531.34375 623.875 L 530.84375 624.46875 L 530.34375 625 L 529.78125 625.53125 L 529.25 625.96875 L 528.625 626.40625 L 528 626.8125 L 527.375 627.1875 L 526.65625 627.53125 L 525.9375 627.84375 L 525.21875 628.09375 L 524.4375 628.34375 L 523.65625 628.53125 L 522.75 628.6875 L 521.875 628.78125 L 521 628.84375 L 520.0625 628.90625 L 519.03125 628.84375 L 518.09375 628.78125 L 517.125 628.6875 L 516.25 628.53125 L 515.375 628.34375 L 514.5625 628.09375 L 513.78125 627.84375 L 513.03125 627.53125 L 512.28125 627.1875 L 511.59375 626.8125 L 510.9375 626.40625 L 510.3125 625.96875 L 509.71875 625.53125 L 509.125 625 L 508.59375 624.46875 L 508.09375 623.875 L 507.625 623.3125 L 507.15625 622.6875 L 506.75 622.03125 L 506.34375 621.375 L 505.96875 620.71875 L 505.625 620 L 505.28125 619.28125 L 505 618.53125 L 504.75 617.78125 L 504.5 617 L 504.25 616.1875 L 504.03125 615.34375 L 503.8125 614.5625 L 503.65625 613.71875 L 503.53125 612.84375 L 503.40625 612 L 503.28125 611.125 L 503.15625 610.25 L 503.125 609.375 L 503.03125 608.5 L 503 607.625 L 502.9375 606.6875 L 502.9375 605.8125 L 502.90625 604.90625 L 502.9375 603.8125 L 502.9375 602.78125 L 503 601.71875 L 503.0625 600.6875 L 503.15625 599.6875 L 503.28125 598.6875 L 503.40625 597.6875 L 503.53125 596.75 L 503.75 595.78125 L 503.90625 594.875 L 504.125 594 L 504.375 593.125 L 504.625 592.28125 L 504.875 591.4375 L 505.15625 590.65625 L 505.5 589.90625 L 505.84375 589.15625 L 506.21875 588.40625 L 506.59375 587.71875 L 507 587.0625 L 507.4375 586.375 L 507.875 585.75 L 508.34375 585.1875 L 508.84375 584.625 L 509.34375 584.09375 L 509.875 583.59375 L 510.46875 583.125 L 511.0625 582.71875 L 511.6875 582.28125 L 512.3125 581.90625 L 512.96875 581.5625 L 513.65625 581.28125 L 514.375 581 L 515.125 580.75 L 515.875 580.53125 L 516.65625 580.375 L 517.46875 580.25 L 518.28125 580.15625 L 519.15625 580.125 L 520.0625 580.0625 z "
   id="polygon25" />
</g>
<g
   id="LWPOLYLINE_8_">
	
		
</g>
<g
   id="LWPOLYLINE_9_"
   style="stroke:none;fill:#000000;fill-opacity:1">
	
		<path
   fill="none"
   stroke="#000000"
   stroke-width="0.7087"
   stroke-linecap="round"
   stroke-linejoin="round"
   stroke-miterlimit="10"
   d="   M432.715,646l0.167-0.293l0.502-0.836l0.794-1.379l1.087-1.881l1.338-2.342l1.63-2.801l1.84-3.178l2.091-3.596l2.257-3.93   l2.467-4.223l2.634-4.557l2.801-4.807l2.927-5.059l3.052-5.268l3.136-5.436l3.219-5.561l3.303-5.686l3.345-5.811l3.386-5.811   l3.387-5.895l3.428-5.854l3.387-5.852l3.344-5.77l3.303-5.686l3.22-5.604l3.135-5.434l3.053-5.227l2.926-5.059l2.801-4.807   l2.634-4.557l2.467-4.266l2.258-3.93l2.09-3.594l1.84-3.178l1.63-2.801l1.338-2.342l1.087-1.881l0.795-1.338l0.502-0.879   l0.167-0.293c-0.084,0-0.209,0-0.209,0c-0.168,0-0.377,0-0.377,0h-0.25h-0.293h-0.293h-0.334h-0.377h-0.418h-0.418h-0.418h-0.46   h-0.501h-0.46h-0.502h-0.502h-0.543h-0.502h-0.502h-0.501h-0.502h-0.502h-0.502h-0.459h-0.46h-0.46h-0.418h-0.418h-0.335h-0.376   h-0.293h-0.293h-0.25c-0.209,0-0.335,0-0.335,0c-0.209,0-0.251,0-0.251,0l-0.167,0.293l-0.502,0.879l-0.794,1.338l-1.087,1.881   l-1.338,2.342l-1.631,2.801l-1.839,3.178l-2.091,3.594l-2.257,3.93l-2.467,4.266l-2.634,4.557l-2.801,4.807l-2.927,5.059   l-3.01,5.227l-3.178,5.434l-3.219,5.604l-3.303,5.686l-3.345,5.77l-3.386,5.852l-3.387,5.854l-3.428,5.895l-3.345,5.811   l-3.387,5.811l-3.261,5.686l-3.261,5.561l-3.136,5.436l-3.052,5.268l-2.926,5.059l-2.76,4.807l-2.634,4.557l-2.466,4.223l-2.3,3.93   l-2.049,3.596l-1.881,3.178l-1.589,2.801l-1.379,2.342l-1.088,1.881l-0.794,1.379l-0.502,0.836L419.002,646H432.715z"
   id="path31"
   style="stroke:none;fill:#000000;fill-opacity:1" />
</g>
<g
   id="LWPOLYLINE_10_">
	
		
</g>
<g
   id="LWPOLYLINE_11_">
	
		
</g>

</svg>