<?xml version="1.0" encoding="UTF-8" standalone="no"?>
<!-- Generator: Adobe Illustrator 16.0.1, SVG Export Plug-In . SVG Version: 6.00 Build 0)  -->

<svg
   xmlns:dc="http://purl.org/dc/elements/1.1/"
   xmlns:cc="http://creativecommons.org/ns#"
   xmlns:rdf="http://www.w3.org/1999/02/22-rdf-syntax-ns#"
   xmlns:svg="http://www.w3.org/2000/svg"
   xmlns="http://www.w3.org/2000/svg"
   xmlns:xlink="http://www.w3.org/1999/xlink"
   xmlns:sodipodi="http://sodipodi.sourceforge.net/DTD/sodipodi-0.dtd"
   xmlns:inkscape="http://www.inkscape.org/namespaces/inkscape"
   version="1.0"
   id="_x31_"
   x="0px"
   y="0px"
   width="350"
   height="350"
   viewBox="0 0 350 350"
   enable-background="new 0 0 612 792"
   xml:space="preserve"
   inkscape:version="0.48.2 r9819"
   sodipodi:docname="7066.svg"><metadata
   id="metadata46"><rdf:RDF><cc:Work
       rdf:about=""><dc:format>image/svg+xml</dc:format><dc:type
         rdf:resource="http://purl.org/dc/dcmitype/StillImage" /></cc:Work></rdf:RDF></metadata><defs
   id="defs44"><radialGradient
     r="333.18735"
     fy="710.99164"
     fx="373.24265"
     cy="710.99164"
     cx="373.24265"
     gradientTransform="matrix(0.86272608,1.0667183e-7,-5.1097115e-8,0.31434,-147.00617,81.5576)"
     gradientUnits="userSpaceOnUse"
     id="radialGradient3092"
     xlink:href="#linearGradient5443"
     inkscape:collect="always" /><radialGradient
     r="333.18735"
     fy="467.91885"
     fx="373.24265"
     cy="467.91885"
     cx="373.24265"
     gradientTransform="matrix(0.83535071,2.5391117e-7,-2.4564601e-7,0.80815889,-136.78854,-203.15302)"
     gradientUnits="userSpaceOnUse"
     id="radialGradient3088"
     xlink:href="#linearGradient5443"
     inkscape:collect="always" /><radialGradient
     r="333.18735"
     fy="467.91885"
     fx="373.24265"
     cy="467.91885"
     cx="373.24265"
     gradientTransform="matrix(0.83535071,2.5391117e-7,-2.4564601e-7,0.80815889,783.12101,707.99698)"
     gradientUnits="userSpaceOnUse"
     id="radialGradient3736"
     xlink:href="#linearGradient5443"
     inkscape:collect="always" /><linearGradient
     y2="254.73526"
     x2="123.47623"
     y1="344.03848"
     x1="123.50603"
     gradientTransform="matrix(2.3189708,0,0,2.0930998,-99.17808,-231.54972)"
     gradientUnits="userSpaceOnUse"
     id="linearGradient3734"
     xlink:href="#linearGradient3187"
     inkscape:collect="always" /><radialGradient
     r="333.18735"
     fy="710.99164"
     fx="373.24265"
     cy="710.99164"
     cx="373.24265"
     gradientTransform="matrix(0.86272608,1.0667183e-7,-5.1097115e-8,0.31434,772.90338,992.7076)"
     gradientUnits="userSpaceOnUse"
     id="radialGradient3732"
     xlink:href="#linearGradient5443"
     inkscape:collect="always" /><radialGradient
     r="333.18735"
     fy="710.99164"
     fx="373.24265"
     cy="710.99164"
     cx="373.24265"
     gradientTransform="matrix(0.86272608,1.0667183e-7,-5.1097115e-8,0.31434,772.90338,992.7076)"
     gradientUnits="userSpaceOnUse"
     id="radialGradient3722"
     xlink:href="#linearGradient5443"
     inkscape:collect="always" /><radialGradient
     r="333.18735"
     fy="467.91885"
     fx="373.24265"
     cy="467.91885"
     cx="373.24265"
     gradientTransform="matrix(0.83535071,2.5391117e-7,-2.4564601e-7,0.80815889,783.12101,707.99698)"
     gradientUnits="userSpaceOnUse"
     id="radialGradient3718"
     xlink:href="#linearGradient5443"
     inkscape:collect="always" /><radialGradient
     r="333.18735"
     fy="467.91885"
     fx="373.24265"
     cy="467.91885"
     cx="373.24265"
     gradientTransform="matrix(0.9201975,2.7970099e-7,-2.7059634e-7,0.8902438,-163.70313,61.921561)"
     gradientUnits="userSpaceOnUse"
     id="radialGradient3703"
     xlink:href="#linearGradient5443"
     inkscape:collect="always" /><linearGradient
     y2="254.73526"
     x2="123.47623"
     y1="344.03848"
     x1="123.50603"
     gradientTransform="matrix(2.3189708,0,0,2.0930998,-99.17808,-231.54972)"
     gradientUnits="userSpaceOnUse"
     id="linearGradient3701"
     xlink:href="#linearGradient3187"
     inkscape:collect="always" /><radialGradient
     r="333.18735"
     fy="710.99164"
     fx="373.24265"
     cy="710.99164"
     cx="373.24265"
     gradientTransform="matrix(0.9503534,1.1750652e-7,-5.6287062e-8,0.3462676,-174.95857,375.55031)"
     gradientUnits="userSpaceOnUse"
     id="radialGradient3699"
     xlink:href="#linearGradient5443"
     inkscape:collect="always" /><radialGradient
     r="333.18735"
     fy="467.91885"
     fx="373.24265"
     cy="467.91885"
     cx="373.24265"
     gradientTransform="matrix(0.9201975,2.7970099e-7,-2.7059634e-7,0.8902438,-163.70313,61.921561)"
     gradientUnits="userSpaceOnUse"
     id="radialGradient3680"
     xlink:href="#linearGradient5443"
     inkscape:collect="always" /><linearGradient
     y2="254.73526"
     x2="123.47623"
     y1="344.03848"
     x1="123.50603"
     gradientTransform="matrix(2.3189708,0,0,2.0930998,-99.17808,-231.54972)"
     gradientUnits="userSpaceOnUse"
     id="linearGradient3678"
     xlink:href="#linearGradient3187"
     inkscape:collect="always" /><radialGradient
     r="333.18735"
     fy="710.99164"
     fx="373.24265"
     cy="710.99164"
     cx="373.24265"
     gradientTransform="matrix(0.9503534,1.1750652e-7,-5.6287062e-8,0.3462676,-174.95857,375.55031)"
     gradientUnits="userSpaceOnUse"
     id="radialGradient3676"
     xlink:href="#linearGradient5443"
     inkscape:collect="always" /><radialGradient
     r="333.18735"
     fy="467.91885"
     fx="373.24265"
     cy="467.91885"
     cx="373.24265"
     gradientTransform="matrix(0.9201975,2.7970099e-7,-2.7059634e-7,0.8902438,-163.70313,61.921561)"
     gradientUnits="userSpaceOnUse"
     id="radialGradient3654"
     xlink:href="#linearGradient5443"
     inkscape:collect="always" /><linearGradient
     y2="254.73526"
     x2="123.47623"
     y1="344.03848"
     x1="123.50603"
     gradientTransform="matrix(2.3189708,0,0,2.0930998,-99.17808,-231.54972)"
     gradientUnits="userSpaceOnUse"
     id="linearGradient3652"
     xlink:href="#linearGradient3187"
     inkscape:collect="always" /><radialGradient
     r="333.18735"
     fy="710.99164"
     fx="373.24265"
     cy="710.99164"
     cx="373.24265"
     gradientTransform="matrix(0.9503534,1.1750652e-7,-5.6287062e-8,0.3462676,-174.95857,375.55031)"
     gradientUnits="userSpaceOnUse"
     id="radialGradient3650"
     xlink:href="#linearGradient5443"
     inkscape:collect="always" /><radialGradient
     r="333.18735"
     fy="467.91885"
     fx="373.24265"
     cy="467.91885"
     cx="373.24265"
     gradientTransform="matrix(0.9201975,2.7970099e-7,-2.7059634e-7,0.8902438,-163.70313,61.921561)"
     gradientUnits="userSpaceOnUse"
     id="radialGradient3627"
     xlink:href="#linearGradient5443"
     inkscape:collect="always" /><linearGradient
     y2="254.73526"
     x2="123.47623"
     y1="344.03848"
     x1="123.50603"
     gradientTransform="matrix(2.3189708,0,0,2.0930998,-99.17808,-231.54972)"
     gradientUnits="userSpaceOnUse"
     id="linearGradient3625"
     xlink:href="#linearGradient3187"
     inkscape:collect="always" /><radialGradient
     r="333.18735"
     fy="710.99164"
     fx="373.24265"
     cy="710.99164"
     cx="373.24265"
     gradientTransform="matrix(0.9503534,1.1750652e-7,-5.6287062e-8,0.3462676,-174.95857,375.55031)"
     gradientUnits="userSpaceOnUse"
     id="radialGradient3623"
     xlink:href="#linearGradient5443"
     inkscape:collect="always" /><radialGradient
     r="333.18735"
     fy="467.91885"
     fx="373.24265"
     cy="467.91885"
     cx="373.24265"
     gradientTransform="matrix(0.9201975,2.7970099e-7,-2.7059634e-7,0.8902438,-163.70313,61.921561)"
     gradientUnits="userSpaceOnUse"
     id="radialGradient3599"
     xlink:href="#linearGradient5443"
     inkscape:collect="always" /><linearGradient
     y2="254.73526"
     x2="123.47623"
     y1="344.03848"
     x1="123.50603"
     gradientTransform="matrix(2.3189708,0,0,2.0930998,-99.17808,-231.54972)"
     gradientUnits="userSpaceOnUse"
     id="linearGradient3597"
     xlink:href="#linearGradient3187"
     inkscape:collect="always" /><radialGradient
     r="333.18735"
     fy="710.99164"
     fx="373.24265"
     cy="710.99164"
     cx="373.24265"
     gradientTransform="matrix(0.9503534,1.1750652e-7,-5.6287062e-8,0.3462676,-174.95857,375.55031)"
     gradientUnits="userSpaceOnUse"
     id="radialGradient3595"
     xlink:href="#linearGradient5443"
     inkscape:collect="always" /><radialGradient
     r="333.18735"
     fy="467.91885"
     fx="373.24265"
     cy="467.91885"
     cx="373.24265"
     gradientTransform="matrix(0.9201975,2.7970099e-7,-2.7059634e-7,0.8902438,-163.70313,61.921561)"
     gradientUnits="userSpaceOnUse"
     id="radialGradient3525"
     xlink:href="#linearGradient5443"
     inkscape:collect="always" /><linearGradient
     y2="254.73526"
     x2="123.47623"
     y1="344.03848"
     x1="123.50603"
     gradientTransform="matrix(2.3189708,0,0,2.0930998,-99.17808,-231.54972)"
     gradientUnits="userSpaceOnUse"
     id="linearGradient3523"
     xlink:href="#linearGradient3187"
     inkscape:collect="always" /><radialGradient
     r="333.18735"
     fy="710.99164"
     fx="373.24265"
     cy="710.99164"
     cx="373.24265"
     gradientTransform="matrix(0.9503534,1.1750652e-7,-5.6287062e-8,0.3462676,-174.95857,375.55031)"
     gradientUnits="userSpaceOnUse"
     id="radialGradient3521"
     xlink:href="#linearGradient5443"
     inkscape:collect="always" /><radialGradient
     r="333.18735"
     fy="467.91885"
     fx="373.24265"
     cy="467.91885"
     cx="373.24265"
     gradientTransform="matrix(0.9201975,2.7970099e-7,-2.7059634e-7,0.8902438,-163.70313,61.921561)"
     gradientUnits="userSpaceOnUse"
     id="radialGradient3497"
     xlink:href="#linearGradient5443"
     inkscape:collect="always" /><linearGradient
     y2="254.73526"
     x2="123.47623"
     y1="344.03848"
     x1="123.50603"
     gradientTransform="matrix(2.3189708,0,0,2.0930998,-99.17808,-231.54972)"
     gradientUnits="userSpaceOnUse"
     id="linearGradient3495"
     xlink:href="#linearGradient3187"
     inkscape:collect="always" /><radialGradient
     r="333.18735"
     fy="710.99164"
     fx="373.24265"
     cy="710.99164"
     cx="373.24265"
     gradientTransform="matrix(0.9503534,1.1750652e-7,-5.6287062e-8,0.3462676,-174.95857,375.55031)"
     gradientUnits="userSpaceOnUse"
     id="radialGradient3493"
     xlink:href="#linearGradient5443"
     inkscape:collect="always" /><linearGradient
     id="linearGradient5443"><stop
       id="stop5445"
       offset="0"
       style="stop-color:#ffffff;stop-opacity:0;" /><stop
       id="stop5447"
       offset="1"
       style="stop-color:#000000;stop-opacity:0.33962265;" /></linearGradient><linearGradient
     id="linearGradient3157"><stop
       style="stop-color:#49bcff;stop-opacity:1;"
       offset="0"
       id="stop3159" /><stop
       style="stop-color:#494c96;stop-opacity:1;"
       offset="1"
       id="stop3161" /></linearGradient><linearGradient
     id="linearGradient3171"><stop
       id="stop3173"
       offset="0"
       style="stop-color:#49bcff;stop-opacity:1;" /><stop
       id="stop3175"
       offset="1"
       style="stop-color:#494cdc;stop-opacity:1;" /></linearGradient><linearGradient
     id="linearGradient3187"><stop
       style="stop-color:#ffffff;stop-opacity:0.39622641;"
       offset="0"
       id="stop3189" /><stop
       style="stop-color:#000000;stop-opacity:1;"
       offset="1"
       id="stop3191" /></linearGradient><linearGradient
     id="linearGradient4395"><stop
       style="stop-color:#110084;stop-opacity:1;"
       offset="0"
       id="stop4397" /><stop
       style="stop-color:#a695ff;stop-opacity:1;"
       offset="1"
       id="stop4399" /></linearGradient><linearGradient
     id="linearGradient4383"><stop
       style="stop-color:#00037f;stop-opacity:1;"
       offset="0"
       id="stop4385" /><stop
       style="stop-color:#00037f;stop-opacity:0;"
       offset="1"
       id="stop4387" /></linearGradient><inkscape:perspective
     sodipodi:type="inkscape:persp3d"
     inkscape:vp_x="0 : 526.18109 : 1"
     inkscape:vp_y="0 : 1000 : 0"
     inkscape:vp_z="744.09448 : 526.18109 : 1"
     inkscape:persp3d-origin="372.04724 : 350.78739 : 1"
     id="perspective3214" /><linearGradient
     inkscape:collect="always"
     xlink:href="#linearGradient4383"
     id="linearGradient4389"
     x1="371.42194"
     y1="298.59412"
     x2="396.91168"
     y2="655.4505"
     gradientUnits="userSpaceOnUse" /><linearGradient
     inkscape:collect="always"
     xlink:href="#linearGradient4395"
     id="linearGradient4401"
     x1="360.49777"
     y1="167.50403"
     x2="360.49777"
     y2="540.86719"
     gradientUnits="userSpaceOnUse" /><linearGradient
     inkscape:collect="always"
     xlink:href="#linearGradient3187"
     id="linearGradient4562"
     gradientUnits="userSpaceOnUse"
     gradientTransform="matrix(2.3189708,0,0,2.0930998,93.115298,-256.84999)"
     x1="123.50603"
     y1="344.03848"
     x2="123.47623"
     y2="254.73526" /><radialGradient
     inkscape:collect="always"
     xlink:href="#linearGradient3171"
     id="radialGradient4569"
     gradientUnits="userSpaceOnUse"
     gradientTransform="matrix(0.9201975,2.7970099e-7,-2.7059634e-7,0.8902438,28.590287,48.634335)"
     cx="373.24265"
     cy="467.91885"
     fx="373.24265"
     fy="467.91885"
     r="333.18735" /><radialGradient
     inkscape:collect="always"
     xlink:href="#linearGradient3157"
     id="radialGradient4572"
     gradientUnits="userSpaceOnUse"
     gradientTransform="matrix(0.9503534,1.1750652e-7,-5.6287062e-8,0.3462676,17.334826,362.44227)"
     cx="373.24265"
     cy="710.99164"
     fx="373.24265"
     fy="710.99164"
     r="333.18735" /><filter
     inkscape:collect="always"
     id="filter4659"
     color-interpolation-filters="sRGB"><feGaussianBlur
       inkscape:collect="always"
       stdDeviation="2.7750933"
       id="feGaussianBlur4661" /></filter><radialGradient
     inkscape:collect="always"
     xlink:href="#linearGradient3157"
     id="radialGradient4766"
     gradientUnits="userSpaceOnUse"
     gradientTransform="matrix(0.9503534,1.1750652e-7,-5.6287062e-8,0.3462676,17.334826,362.44227)"
     cx="373.24265"
     cy="710.99164"
     fx="373.24265"
     fy="710.99164"
     r="333.18735" /><radialGradient
     inkscape:collect="always"
     xlink:href="#linearGradient3171"
     id="radialGradient4768"
     gradientUnits="userSpaceOnUse"
     gradientTransform="matrix(0.9201975,2.7970099e-7,-2.7059634e-7,0.8902438,28.590287,48.634335)"
     cx="373.24265"
     cy="467.91885"
     fx="373.24265"
     fy="467.91885"
     r="333.18735" /><linearGradient
     inkscape:collect="always"
     xlink:href="#linearGradient3187"
     id="linearGradient4770"
     gradientUnits="userSpaceOnUse"
     gradientTransform="matrix(2.3189708,0,0,2.0930998,93.115298,-256.84999)"
     x1="123.50603"
     y1="344.03848"
     x2="123.47623"
     y2="254.73526" /><linearGradient
     inkscape:collect="always"
     xlink:href="#linearGradient3187"
     id="linearGradient4773"
     gradientUnits="userSpaceOnUse"
     gradientTransform="matrix(2.3189708,0,0,2.0930998,93.115298,-256.84999)"
     x1="123.50603"
     y1="344.03848"
     x2="123.47623"
     y2="254.73526" /><radialGradient
     inkscape:collect="always"
     xlink:href="#linearGradient3171"
     id="radialGradient4776"
     gradientUnits="userSpaceOnUse"
     gradientTransform="matrix(0.9201975,2.7970099e-7,-2.7059634e-7,0.8902438,28.590287,48.634335)"
     cx="373.24265"
     cy="467.91885"
     fx="373.24265"
     fy="467.91885"
     r="333.18735" /><radialGradient
     inkscape:collect="always"
     xlink:href="#linearGradient3157"
     id="radialGradient4779"
     gradientUnits="userSpaceOnUse"
     gradientTransform="matrix(0.9503534,1.1750652e-7,-5.6287062e-8,0.3462676,17.334826,362.44227)"
     cx="373.24265"
     cy="710.99164"
     fx="373.24265"
     fy="710.99164"
     r="333.18735" /><radialGradient
     inkscape:collect="always"
     xlink:href="#linearGradient3157"
     id="radialGradient4790"
     gradientUnits="userSpaceOnUse"
     gradientTransform="matrix(0.9503534,1.1750652e-7,-5.6287062e-8,0.3462676,17.334826,362.44227)"
     cx="373.24265"
     cy="710.99164"
     fx="373.24265"
     fy="710.99164"
     r="333.18735" /><radialGradient
     inkscape:collect="always"
     xlink:href="#linearGradient3171"
     id="radialGradient4792"
     gradientUnits="userSpaceOnUse"
     gradientTransform="matrix(0.9201975,2.7970099e-7,-2.7059634e-7,0.8902438,28.590287,48.634335)"
     cx="373.24265"
     cy="467.91885"
     fx="373.24265"
     fy="467.91885"
     r="333.18735" /><linearGradient
     inkscape:collect="always"
     xlink:href="#linearGradient3187"
     id="linearGradient4794"
     gradientUnits="userSpaceOnUse"
     gradientTransform="matrix(2.3189708,0,0,2.0930998,93.115298,-256.84999)"
     x1="123.50603"
     y1="344.03848"
     x2="123.47623"
     y2="254.73526" /><linearGradient
     inkscape:collect="always"
     xlink:href="#linearGradient3187"
     id="linearGradient4799"
     gradientUnits="userSpaceOnUse"
     gradientTransform="matrix(2.3189708,0,0,2.0930998,93.115298,-256.84999)"
     x1="123.50603"
     y1="344.03848"
     x2="123.47623"
     y2="254.73526" /><radialGradient
     inkscape:collect="always"
     xlink:href="#linearGradient3171"
     id="radialGradient4802"
     gradientUnits="userSpaceOnUse"
     gradientTransform="matrix(0.9201975,2.7970099e-7,-2.7059634e-7,0.8902438,28.590287,48.634335)"
     cx="373.24265"
     cy="467.91885"
     fx="373.24265"
     fy="467.91885"
     r="333.18735" /><radialGradient
     inkscape:collect="always"
     xlink:href="#linearGradient3157"
     id="radialGradient4805"
     gradientUnits="userSpaceOnUse"
     gradientTransform="matrix(0.9503534,1.1750652e-7,-5.6287062e-8,0.3462676,17.334826,362.44227)"
     cx="373.24265"
     cy="710.99164"
     fx="373.24265"
     fy="710.99164"
     r="333.18735" /><radialGradient
     inkscape:collect="always"
     xlink:href="#linearGradient3157"
     id="radialGradient4820"
     gradientUnits="userSpaceOnUse"
     gradientTransform="matrix(0.9503534,1.1750652e-7,-5.6287062e-8,0.3462676,17.334826,362.44227)"
     cx="373.24265"
     cy="710.99164"
     fx="373.24265"
     fy="710.99164"
     r="333.18735" /><radialGradient
     inkscape:collect="always"
     xlink:href="#linearGradient3171"
     id="radialGradient4822"
     gradientUnits="userSpaceOnUse"
     gradientTransform="matrix(0.9201975,2.7970099e-7,-2.7059634e-7,0.8902438,28.590287,48.634335)"
     cx="373.24265"
     cy="467.91885"
     fx="373.24265"
     fy="467.91885"
     r="333.18735" /><linearGradient
     inkscape:collect="always"
     xlink:href="#linearGradient3187"
     id="linearGradient4824"
     gradientUnits="userSpaceOnUse"
     gradientTransform="matrix(2.3189708,0,0,2.0930998,93.115298,-256.84999)"
     x1="123.50603"
     y1="344.03848"
     x2="123.47623"
     y2="254.73526" /><linearGradient
     inkscape:collect="always"
     xlink:href="#linearGradient3187"
     id="linearGradient4827"
     gradientUnits="userSpaceOnUse"
     gradientTransform="matrix(2.3189708,0,0,2.0930998,-99.17808,-231.54972)"
     x1="123.50603"
     y1="344.03848"
     x2="123.47623"
     y2="254.73526" /><radialGradient
     inkscape:collect="always"
     xlink:href="#linearGradient5443"
     id="radialGradient4832"
     gradientUnits="userSpaceOnUse"
     gradientTransform="matrix(0.9201975,2.7970099e-7,-2.7059634e-7,0.8902438,-163.70313,61.921561)"
     cx="373.24265"
     cy="467.91885"
     fx="373.24265"
     fy="467.91885"
     r="333.18735" /><radialGradient
     inkscape:collect="always"
     xlink:href="#linearGradient5443"
     id="radialGradient4835"
     gradientUnits="userSpaceOnUse"
     gradientTransform="matrix(0.9503534,1.1750652e-7,-5.6287062e-8,0.3462676,-174.95857,375.55031)"
     cx="373.24265"
     cy="710.99164"
     fx="373.24265"
     fy="710.99164"
     r="333.18735" /><filter
     inkscape:collect="always"
     id="filter5511"
     color-interpolation-filters="sRGB"><feGaussianBlur
       inkscape:collect="always"
       stdDeviation="3.2374974"
       id="feGaussianBlur5513" /></filter><radialGradient
     inkscape:collect="always"
     xlink:href="#linearGradient5443-5"
     id="radialGradient4835-3"
     gradientUnits="userSpaceOnUse"
     gradientTransform="matrix(0.9503534,1.1750652e-7,-5.6287062e-8,0.3462676,317.80591,185.68771)"
     cx="373.24265"
     cy="710.99164"
     fx="373.24265"
     fy="710.99164"
     r="333.18735" /><linearGradient
     id="linearGradient5443-5"><stop
       id="stop5445-4"
       offset="0"
       style="stop-color:#ffffff;stop-opacity:0;" /><stop
       id="stop5447-3"
       offset="1"
       style="stop-color:#000000;stop-opacity:0.33962265;" /></linearGradient><radialGradient
     inkscape:collect="always"
     xlink:href="#linearGradient5443"
     id="radialGradient3272"
     gradientUnits="userSpaceOnUse"
     gradientTransform="matrix(0.9503534,1.1750652e-7,-5.6287062e-8,0.3462676,-174.95857,375.55031)"
     cx="373.24265"
     cy="710.99164"
     fx="373.24265"
     fy="710.99164"
     r="333.18735" /><linearGradient
     inkscape:collect="always"
     xlink:href="#linearGradient3187"
     id="linearGradient3274"
     gradientUnits="userSpaceOnUse"
     gradientTransform="matrix(2.3189708,0,0,2.0930998,-99.17808,-231.54972)"
     x1="123.50603"
     y1="344.03848"
     x2="123.47623"
     y2="254.73526" /><radialGradient
     inkscape:collect="always"
     xlink:href="#linearGradient5443"
     id="radialGradient3276"
     gradientUnits="userSpaceOnUse"
     gradientTransform="matrix(0.9201975,2.7970099e-7,-2.7059634e-7,0.8902438,-163.70313,61.921561)"
     cx="373.24265"
     cy="467.91885"
     fx="373.24265"
     fy="467.91885"
     r="333.18735" /></defs><sodipodi:namedview
   pagecolor="#ffffff"
   bordercolor="#666666"
   borderopacity="1"
   objecttolerance="10"
   gridtolerance="10"
   guidetolerance="10"
   inkscape:pageopacity="0"
   inkscape:pageshadow="2"
   inkscape:window-width="1920"
   inkscape:window-height="1068"
   id="namedview42"
   showgrid="false"
   inkscape:zoom="1.6856283"
   inkscape:cx="99.360544"
   inkscape:cy="225.67511"
   inkscape:window-x="0"
   inkscape:window-y="0"
   inkscape:window-maximized="1"
   inkscape:current-layer="_x31_"
   fit-margin-top="0"
   fit-margin-left="0"
   fit-margin-right="0"
   fit-margin-bottom="0" />











<g
   id="g3595"
   transform="translate(-4.0524846e-6,3.5529444e-6)"><rect
     inkscape:export-ydpi="29.879425"
     inkscape:export-xdpi="29.879425"
     inkscape:export-filename="C:\Documents and Settings\adscro24\Desktop\128.png"
     style="opacity:0.61338286;fill:#464646;fill-opacity:0.78540775;stroke:none;filter:url(#filter4659)"
     id="rect3279"
     width="152.93848"
     height="152.93848"
     x="135.39355"
     y="48.636749"
     rx="16.067965"
     ry="12.45238"
     transform="matrix(2.1051501,0,0,2.1051501,-271.00298,-88.36689)" /><rect
     inkscape:export-ydpi="29.879425"
     inkscape:export-xdpi="29.879425"
     inkscape:export-filename="C:\Documents and Settings\adscro24\Desktop\128.png"
     style="opacity:0.61338286;fill:url(#radialGradient3092);fill-opacity:1;stroke:#000000;stroke-width:3.26806188;stroke-miterlimit:4;stroke-opacity:1;stroke-dasharray:none"
     id="rect3155"
     width="321.95847"
     height="321.95847"
     x="14.020748"
     y="14.020716"
     rx="33.825481"
     ry="26.21413" /><path
     transform="matrix(0.90779502,0,0,0.90779502,11.82035,-259.3651)"
     inkscape:export-ydpi="29.879425"
     inkscape:export-xdpi="29.879425"
     inkscape:export-filename="C:\Documents and Settings\adscro24\Desktop\128.png"
     inkscape:connector-curvature="0"
     style="opacity:0.61338286;fill:url(#linearGradient3734);fill-opacity:1;stroke:none;filter:url(#filter5511)"
     d="m 46.58172,323.34879 c -19.62748,0 -35.44272,12.0976 -35.44272,27.14163 l 0,124.30857 c 29.25482,11.38638 132.70149,11.89599 165.40488,-5.79022 33.32802,-18.02397 127.54379,-68.44264 171.82484,-52.72052 l 0,-65.79783 c 0,-15.04403 -15.7986,-27.14163 -35.4261,-27.14163 l -266.3609,0 z M 11.139,586.81982 l 0,42.88373 c 0,1.33144 0.14331,2.63588 0.38253,3.915 -0.11919,-12.81092 -0.25965,-28.88939 -0.38253,-46.79873 z"
     id="rect3177" /><rect
     inkscape:export-ydpi="29.879425"
     inkscape:export-xdpi="29.879425"
     inkscape:export-filename="C:\Documents and Settings\adscro24\Desktop\128.png"
     style="opacity:0.61338286;fill:url(#radialGradient3088);fill-opacity:1;stroke:#ffffff;stroke-width:0.68992418;stroke-linecap:square;stroke-miterlimit:4;stroke-opacity:1;stroke-dasharray:none"
     id="rect3473"
     width="306.12445"
     height="306.12445"
     x="21.937801"
     y="21.937769"
     rx="32.161926"
     ry="24.924913" /><rect
     inkscape:export-ydpi="29.879425"
     inkscape:export-xdpi="29.879425"
     inkscape:export-filename="C:\Documents and Settings\adscro24\Desktop\128.png"
     style="opacity:0.61338286;fill:#ffffff;fill-opacity:0;stroke:#000000;stroke-width:3.26806188;stroke-miterlimit:4;stroke-opacity:1;stroke-dasharray:none"
     id="rect3155-2"
     width="321.95847"
     height="321.95847"
     x="14.020748"
     y="14.020716"
     rx="33.825481"
     ry="26.21413" /><g
     transform="translate(400.39145,135.8211)"
     style="fill:#000000;fill-opacity:1;stroke:none"
     id="LWPOLYLINE_2_-6">
	
		
</g></g><g
   id="g3001"
   transform="matrix(0.5,0,0,0.5,22.000621,-23.000006)"><g
     style="fill:#000000;fill-opacity:1;stroke:none"
     id="LWPOLYLINE_12_">
	
		<path
   id="polygon40"
   d="m 350.53125,146 0,50.5 -244.03125,0 0,25.6875 244.03125,0 0,101.03125 -244.03125,0 0,24.84375 244.03125,0 0,50.5 101.03125,0 0,-50.5 50.5,0 0,-151.5625 -50.5,0 0,-50.5 -101.03125,0 z m 25.65625,25.65625 48.84375,0 0,201.21875 -48.84375,0 0,-201.21875 z m 75.375,49.6875 23.96875,0 0,101 -23.96875,0 0,-101 z"
   style="fill:#000000;fill-opacity:1;stroke:none"
   inkscape:connector-curvature="0" />
</g><g
     style="fill:#000000;fill-opacity:1;stroke:none"
     id="LWPOLYLINE">
	
		<path
   style="fill:#000000;fill-opacity:1;stroke:none"
   id="path4"
   d="m 92.811,638.309 c 0.146,0 0.293,0 0.293,0 h 0.229 0.293 0.334 0.377 0.438 0.46 0.522 0.544 0.585 0.606 0.627 0.647 0.669 0.69 0.689 0.711 0.711 0.689 0.711 0.689 0.689 0.669 0.648 0.627 0.606 0.585 0.544 0.522 0.46 0.438 0.376 0.335 0.293 0.229 c 0.167,0 0.251,0 0.251,0 0.042,0 0.042,-0.252 0.042,-0.252 v -0.793 -1.213 -1.715 -2.09 -2.508 -2.885 -3.262 -3.512 -3.846 -4.098 -4.348 -4.557 -4.723 -4.893 -5.059 -5.1 -5.227 -5.268 -5.309 -5.268 -5.268 -5.227 -5.141 -5.018 -4.891 -4.768 -4.514 -4.348 -4.098 -3.846 -3.555 -3.209 -2.885 -2.508 -2.133 -1.672 -1.254 -0.752 -0.252 c -0.126,0 -0.293,0 -0.293,0 h -0.209 -0.271 -0.313 -0.377 -0.396 -0.46 -0.481 -0.522 -0.564 -0.563 -0.606 -0.627 -0.648 -0.647 -0.669 -0.669 -0.669 -0.669 -0.669 -0.669 H 100 99.353 98.726 98.12 97.556 96.992 96.47 95.99 95.53 95.133 94.757 94.444 94.172 93.96 c -0.167,0 -0.25,0 -0.25,0 -0.042,0 -0.628,0.502 -0.628,0.502 l -0.605,0.543 -0.628,0.502 -0.647,0.545 -0.648,0.543 -0.689,0.543 -0.689,0.543 -0.711,0.545 -0.731,0.584 -0.734,0.545 -0.773,0.543 -0.773,0.584 -0.773,0.586 -0.815,0.543 -0.815,0.586 -0.815,0.586 -0.856,0.543 -0.836,0.586 -0.878,0.584 -0.878,0.586 -0.878,0.586 -0.899,0.584 -0.92,0.545 -0.919,0.584 -0.92,0.586 -0.94,0.586 -0.962,0.543 -0.94,0.586 -0.962,0.543 -0.982,0.584 -0.982,0.545 -0.982,0.584 -0.982,0.545 -1.003,0.543 -1.004,0.543 -1.003,0.543 -1.024,0.545 -1.004,0.502 -1.023,0.543 -1.024,0.502 c 0,0.166 0,0.334 0,0.334 v 0.25 0.293 0.377 0.418 0.459 0.545 0.543 0.584 0.629 0.668 0.711 0.711 0.711 0.752 0.752 0.754 0.793 0.752 0.795 0.752 0.754 0.711 0.709 0.711 0.627 0.67 0.586 0.543 0.543 0.461 0.418 0.375 0.293 0.252 c 0,0.166 0,0.291 0,0.291 0,0.043 0.773,-0.291 0.773,-0.291 l 0.773,-0.336 0.815,-0.375 0.814,-0.377 0.815,-0.377 0.815,-0.418 0.856,-0.418 0.837,-0.418 0.856,-0.459 0.857,-0.418 0.878,-0.461 0.856,-0.502 0.878,-0.459 0.878,-0.502 0.878,-0.502 0.878,-0.543 0.899,-0.502 0.878,-0.543 0.878,-0.502 0.898,-0.543 0.878,-0.586 0.878,-0.543 0.878,-0.543 0.878,-0.586 0.857,-0.543 0.856,-0.586 0.857,-0.586 0.857,-0.584 0.836,-0.586 0.836,-0.586 0.836,-0.584 0.815,-0.586 0.815,-0.586 0.794,-0.584 0.773,-0.586 0.773,-0.586 0.753,-0.584 0.752,-0.586 0.731,-0.586 0.711,-0.584 v 119.021 z"
   stroke-miterlimit="10"
   inkscape:connector-curvature="0" />
</g><g
     style="fill:#000000;fill-opacity:1;stroke:none"
     id="LWPOLYLINE_1_">
	
		<path
   id="polygon7"
   d="m 188.6875,494.4375 -3.0625,0.0937 -2.9375,0.25 -2.8125,0.4375 -2.6875,0.53125 -2.5625,0.71875 -2.4375,0.84375 -2.3125,1 -2.15625,1.0625 -2.09375,1.28125 -1.96875,1.3125 -1.875,1.46875 -1.75,1.5625 -1.65625,1.625 -1.5625,1.75 -1.4375,1.84375 -1.375,1.90625 -1.25,1.96875 -1.1875,2.09375 -1.125,2.09375 -1.03125,2.1875 -0.9375,2.21875 -0.84375,2.28125 -0.8125,2.3125 -0.6875,2.34375 -0.6875,2.3125 -0.59375,2.40625 -0.5,2.375 -0.5,2.4375 -0.40625,2.375 -0.375,2.40625 -0.3125,2.40625 -0.28125,2.375 -0.21875,2.34375 -0.1875,2.34375 -0.15625,2.25 -0.0937,2.25 -0.125,2.21875 -0.0312,2.125 -0.0312,2.09375 0,2.0625 0,2.375 0.0625,2.4375 0.0625,2.46875 0.125,2.5 0.15625,2.5 0.1875,2.5 0.25,2.5625 0.25,2.5625 0.34375,2.53125 0.375,2.5625 0.40625,2.5 0.5,2.5625 0.53125,2.46875 0.59375,2.5 0.65625,2.40625 0.71875,2.4375 0.78125,2.375 0.84375,2.34375 0.9375,2.28125 1,2.25 1.03125,2.125 1.15625,2.125 1.21875,2 1.3125,1.96875 1.375,1.90625 1.46875,1.78125 1.53125,1.71875 1.65625,1.625 1.75,1.5 1.84375,1.375 1.90625,1.3125 2.03125,1.21875 2.125,1.03125 2.21875,0.9375 2.34375,0.8125 2.4375,0.6875 2.5625,0.53125 2.65625,0.375 2.78125,0.21875 2.875,0.0625 2.90625,-0.0625 2.78125,-0.21875 2.6875,-0.375 2.5625,-0.53125 2.4375,-0.6875 2.34375,-0.8125 2.25,-0.9375 2.15625,-1.03125 2.03125,-1.21875 1.96875,-1.3125 1.84375,-1.375 1.78125,-1.5 1.65625,-1.625 1.59375,-1.71875 1.5,-1.78125 1.40625,-1.90625 1.34375,-1.96875 1.21875,-2 1.1875,-2.125 1.09375,-2.125 1.03125,-2.25 0.9375,-2.28125 0.90625,-2.34375 0.8125,-2.375 0.71875,-2.4375 0.71875,-2.40625 0.625,-2.5 0.5625,-2.46875 0.5,-2.5625 0.4375,-2.5 0.40625,-2.5625 0.34375,-2.53125 0.3125,-2.5625 0.25,-2.5625 0.21875,-2.5 0.15625,-2.5 0.125,-2.5 0.0937,-2.46875 0.0312,-2.4375 0.0312,-2.375 0,-2.0625 -0.0625,-2.09375 -0.0625,-2.125 -0.0625,-2.21875 -0.125,-2.25 -0.15625,-2.25 -0.1875,-2.34375 -0.21875,-2.34375 -0.28125,-2.375 -0.3125,-2.40625 -0.375,-2.40625 -0.4375,-2.375 -0.46875,-2.4375 -0.53125,-2.375 -0.625,-2.40625 -0.65625,-2.3125 -0.71875,-2.34375 -0.8125,-2.3125 -0.875,-2.28125 -0.96875,-2.21875 -1.03125,-2.1875 -1.125,-2.09375 -1.1875,-2.09375 -1.28125,-1.96875 -1.40625,-1.90625 -1.5,-1.84375 -1.5625,-1.75 -1.6875,-1.625 -1.78125,-1.5625 -1.90625,-1.46875 -2,-1.3125 -2.125,-1.28125 -2.25,-1.0625 -2.34375,-1 -2.46875,-0.84375 -2.625,-0.71875 -2.71875,-0.53125 -2.875,-0.4375 -3,-0.25 -3.15625,-0.0937 z m 0,16.28125 1.65625,0.0312 1.5625,0.1875 1.53125,0.1875 1.46875,0.3125 1.40625,0.40625 1.34375,0.46875 1.3125,0.53125 1.21875,0.625 1.1875,0.71875 1.125,0.78125 1.09375,0.875 1.03125,0.96875 0.96875,1 0.9375,1.09375 0.90625,1.1875 0.8125,1.1875 0.8125,1.3125 0.75,1.375 0.71875,1.4375 0.65625,1.5 0.59375,1.53125 0.59375,1.625 0.53125,1.6875 0.5,1.71875 0.46875,1.78125 0.4375,1.875 0.375,1.90625 0.375,1.9375 0.3125,2.03125 0.3125,2.03125 0.25,2.15625 0.21875,2.125 0.1875,2.21875 0.15625,2.1875 0.15625,2.3125 0.125,2.34375 0.0625,2.375 0.0625,2.40625 0.0625,2.4375 0,2.46875 0,1.96875 -0.0312,1.9375 -0.0625,1.96875 -0.0625,2 -0.0937,1.96875 -0.0937,1.96875 -0.15625,2 -0.15625,1.96875 -0.1875,1.96875 -0.21875,1.96875 -0.25,1.90625 -0.28125,1.9375 -0.3125,1.90625 -0.34375,1.875 -0.375,1.84375 -0.40625,1.84375 -0.46875,1.75 -0.5,1.75 -0.5625,1.71875 -0.59375,1.6875 -0.625,1.59375 -0.65625,1.5625 -0.75,1.53125 -0.78125,1.40625 -0.8125,1.375 -0.875,1.34375 -0.9375,1.25 -1,1.1875 -1.0625,1.125 -1.0625,1 -1.1875,0.96875 -1.21875,0.875 -1.28125,0.75 -1.34375,0.65625 -1.40625,0.59375 -1.5,0.5 -1.53125,0.375 -1.625,0.28125 -1.6875,0.1875 -1.78125,0.0312 -1.6875,-0.0312 -1.625,-0.1875 -1.5625,-0.28125 -1.5,-0.375 -1.40625,-0.5 -1.375,-0.59375 -1.3125,-0.65625 -1.21875,-0.75 -1.21875,-0.875 -1.125,-0.96875 -1.0625,-1 -1,-1.125 -0.96875,-1.1875 -0.875,-1.25 -0.875,-1.34375 -0.8125,-1.375 -0.75,-1.40625 -0.6875,-1.53125 -0.65625,-1.5625 -0.6564,-1.5937 -0.5625,-1.6875 -0.5,-1.71875 -0.5,-1.75 -0.4375,-1.75 -0.4375,-1.84375 -0.375,-1.84375 -0.34375,-1.875 -0.3125,-1.90625 -0.25,-1.9375 -0.25,-1.90625 -0.21875,-1.96875 -0.1875,-1.96875 -0.15625,-1.96875 -0.125,-2 -0.125,-1.96875 -0.0625,-1.96875 -0.0625,-2 -0.0625,-1.96875 -0.0312,-1.9375 0,-1.96875 0,-2.46875 0.0312,-2.4375 0.0625,-2.40625 0.0937,-2.375 0.0937,-2.34375 0.15625,-2.3125 0.15625,-2.1875 0.1875,-2.21875 0.21875,-2.125 0.28125,-2.15625 0.25,-2.03125 0.3125,-2.03125 0.375,-1.9375 0.375,-1.90625 0.40625,-1.875 0.46875,-1.78125 0.5,-1.71875 0.53125,-1.6875 0.5625,-1.625 0.59375,-1.53125 0.65625,-1.5 0.6875,-1.4375 0.71875,-1.375 0.78125,-1.3125 0.8125,-1.1875 0.875,-1.1875 0.875,-1.09375 0.96875,-1 1,-0.96875 1.0625,-0.875 1.09375,-0.78125 1.125,-0.71875 1.1875,-0.625 1.28125,-0.53125 1.28125,-0.46875 1.375,-0.40625 1.375,-0.3125 1.46875,-0.1875 1.53125,-0.1875 1.5625,-0.0312 z"
   style="fill:#000000;fill-opacity:1;stroke:none"
   inkscape:connector-curvature="0" />
</g><g
     id="LWPOLYLINE_2_">
	
		
</g><g
     style="fill:#000000;fill-opacity:1;stroke:none"
     id="LWPOLYLINE_3_">
	
		<path
   id="polygon13"
   d="m 306.84375,494.4375 -3.0625,0.0937 -2.9375,0.25 -2.8125,0.4375 -2.6875,0.53125 -2.5625,0.71875 -2.40625,0.84375 -2.34375,1 -2.1875,1.0625 -2.09375,1.28125 -1.96875,1.3125 -1.84375,1.46875 -1.75,1.5625 -1.65625,1.625 -1.5625,1.75 -1.4375,1.84375 -1.375,1.90625 -1.28125,1.96875 -1.1875,2.09375 -1.09375,2.09375 -1,2.1875 -0.96875,2.21875 -0.84375,2.28125 -0.78125,2.3125 -0.75,2.34375 -0.65625,2.3125 -0.59375,2.40625 -0.53125,2.375 -0.46875,2.4375 -0.40625,2.375 -0.375,2.40625 -0.3125,2.40625 -0.25,2.375 -0.25,2.34375 -0.1875,2.34375 -0.15625,2.25 -0.125,2.25 -0.0625,2.21875 -0.0625,2.125 -0.0312,2.09375 -0.0312,2.0625 0.0312,2.375 0.0312,2.4375 0.0937,2.46875 0.0937,2.5 0.1875,2.5 0.1875,2.5 0.21875,2.5625 0.3125,2.5625 0.3125,2.53125 0.375,2.5625 0.4375,2.5 0.46875,2.5625 0.53125,2.46875 0.59375,2.5 0.65625,2.40625 0.71875,2.4375 0.78125,2.375 0.84375,2.34375 0.9375,2.28125 0.96875,2.25 1.0625,2.125 1.15625,2.125 1.21875,2 1.3125,1.96875 1.375,1.90625 1.4375,1.78125 1.59375,1.71875 1.625,1.625 1.71875,1.5 1.84375,1.375 1.9375,1.3125 2.03125,1.21875 2.125,1.03125 2.21875,0.9375 2.34375,0.8125 2.4375,0.6875 2.5625,0.53125 2.65625,0.375 2.75,0.21875 2.90625,0.0625 2.90625,-0.0625 2.78125,-0.21875 2.65625,-0.375 2.59375,-0.53125 2.4375,-0.6875 2.34375,-0.8125 2.25,-0.9375 2.1875,-1.03125 2,-1.21875 1.96875,-1.3125 1.875,-1.375 1.75,-1.5 1.6875,-1.625 1.5625,-1.71875 1.46875,-1.78125 1.4375,-1.90625 1.34375,-1.96875 1.25,-2 1.15625,-2.125 1.09375,-2.125 1.03125,-2.25 0.9375,-2.28125 0.90625,-2.34375 0.8125,-2.375 0.75,-2.4375 0.65625,-2.40625 0.625,-2.5 0.59375,-2.46875 0.5,-2.5625 0.46875,-2.5 0.375,-2.5625 0.375,-2.53125 0.28125,-2.5625 0.25,-2.5625 0.21875,-2.5 0.15625,-2.5 0.125,-2.5 0.0937,-2.46875 0.0312,-2.4375 0,-2.375 0,-2.0625 -0.0312,-2.09375 -0.0312,-2.125 -0.0937,-2.21875 -0.125,-2.25 -0.1875,-2.25 -0.15625,-2.34375 -0.25,-2.34375 -0.25,-2.375 -0.34375,-2.40625 -0.375,-2.40625 -0.40625,-2.375 -0.46875,-2.4375 -0.53125,-2.375 -0.625,-2.40625 -0.625,-2.3125 -0.75,-2.34375 -0.8125,-2.3125 -0.875,-2.28125 -0.96875,-2.21875 -1.03125,-2.1875 -1.125,-2.09375 -1.1875,-2.09375 -1.28125,-1.96875 -1.4375,-1.90625 -1.4375,-1.84375 -1.59375,-1.75 -1.6875,-1.625 -1.78125,-1.5625 -1.875,-1.46875 -2.03125,-1.3125 -2.125,-1.28125 -2.25,-1.0625 -2.34375,-1 -2.46875,-0.84375 -2.625,-0.71875 -2.71875,-0.53125 -2.90625,-0.4375 -2.96875,-0.25 -3.15625,-0.0937 z m 0,16.28125 1.65625,0.0312 1.5625,0.1875 1.53125,0.1875 1.46875,0.3125 1.375,0.40625 1.375,0.46875 1.3125,0.53125 1.21875,0.625 1.1875,0.71875 1.15625,0.78125 1.0625,0.875 1,0.96875 1.03125,1 0.90625,1.09375 0.875,1.1875 0.84375,1.1875 0.78125,1.3125 0.75,1.375 0.71875,1.4375 0.65625,1.5 0.65625,1.53125 0.5625,1.625 0.5625,1.6875 0.5,1.71875 0.4375,1.78125 0.4375,1.875 0.375,1.90625 0.375,1.9375 0.34375,2.03125 0.28125,2.03125 0.25,2.15625 0.21875,2.125 0.1875,2.21875 0.1875,2.1875 0.125,2.3125 0.125,2.34375 0.0625,2.375 0.0625,2.40625 0.0312,2.4375 0,2.46875 0,1.96875 0,1.9375 -0.0937,1.96875 -0.0312,2 -0.0937,1.96875 -0.125,1.96875 -0.125,2 -0.15625,1.96875 -0.15625,1.96875 -0.25,1.96875 -0.25,1.90625 -0.25,1.9375 -0.34375,1.90625 -0.34375,1.875 -0.375,1.84375 -0.40625,1.84375 -0.46875,1.75 -0.5,1.75 -0.53125,1.71875 -0.625,1.6875 -0.65625,1.59375 -0.65625,1.5625 -0.71875,1.53125 -0.78125,1.40625 -0.84375,1.375 -0.875,1.34375 -0.90625,1.25 -1,1.1875 -1.0625,1.125 -1.09375,1 -1.15625,0.96875 -1.21875,0.875 -1.28125,0.75 -1.34375,0.65625 -1.4375,0.59375 -1.46875,0.5 -1.53125,0.375 -1.625,0.28125 -1.6875,0.1875 -1.78125,0.0312 -1.6875,-0.0312 -1.625,-0.1875 -1.5625,-0.28125 -1.5,-0.375 -1.4375,-0.5 -1.34375,-0.59375 -1.3125,-0.65625 -1.25,-0.75 -1.1875,-0.875 -1.09375,-0.96875 -1.09375,-1 -1,-1.125 -0.96875,-1.1875 -0.90625,-1.25 -0.84375,-1.34375 -0.8125,-1.375 -0.75,-1.40625 -0.6875,-1.53125 -0.6875,-1.5625 L 284.5,606 l -0.5625,-1.6875 -0.5625,-1.71875 -0.46875,-1.75 -0.46875,-1.75 -0.40625,-1.84375 -0.375,-1.84375 -0.34375,-1.875 L 281,591.625 l -0.28125,-1.9375 -0.21875,-1.90625 -0.21875,-1.96875 -0.1875,-1.96875 -0.15625,-1.96875 -0.15625,-2 -0.0937,-1.96875 -0.0937,-1.96875 -0.0625,-2 -0.0312,-1.96875 -0.0312,-1.9375 0,-1.96875 0,-2.46875 0.0312,-2.4375 0.0625,-2.40625 0.0937,-2.375 0.125,-2.34375 0.125,-2.3125 0.15625,-2.1875 0.1875,-2.21875 0.21875,-2.125 0.25,-2.15625 0.3125,-2.03125 0.3125,-2.03125 0.34375,-1.9375 0.375,-1.90625 0.40625,-1.875 0.46875,-1.78125 0.5,-1.71875 0.53125,-1.6875 0.5625,-1.625 0.59375,-1.53125 0.65625,-1.5 0.6875,-1.4375 0.71875,-1.375 0.78125,-1.3125 0.8125,-1.1875 0.84375,-1.1875 0.9375,-1.09375 0.9375,-1 1,-0.96875 1.03125,-0.875 1.125,-0.78125 1.125,-0.71875 1.21875,-0.625 1.21875,-0.53125 1.3125,-0.46875 1.34375,-0.40625 1.4375,-0.3125 1.4375,-0.1875 1.53125,-0.1875 1.5625,-0.0312 z"
   style="fill:#000000;fill-opacity:1;stroke:none"
   inkscape:connector-curvature="0" />
</g><g
     id="LWPOLYLINE_4_">
	
		
</g><g
     style="fill:#000000;fill-opacity:1;stroke:none"
     id="LWPOLYLINE_5_">
	
		<path
   id="polygon19"
   d="m 425.03125,494.4375 -1.84375,0.0625 -1.75,0.0625 -1.71875,0.1875 -1.6875,0.21875 -1.59375,0.28125 -1.53125,0.34375 -1.46875,0.375 -1.40625,0.40625 -1.375,0.5 -1.34375,0.5625 -1.25,0.5625 -1.21875,0.6875 -1.125,0.65625 -1.125,0.75 -1.0625,0.8125 -1,0.78125 -0.96875,0.875 -0.875,0.875 -0.875,0.96875 -0.78125,0.96875 -0.8125,1.03125 -0.71875,1.0625 -0.65625,1.03125 -0.625,1.125 -0.59375,1.125 -0.53125,1.1875 -0.5,1.21875 -0.46875,1.1875 -0.40625,1.25 -0.375,1.28125 -0.34375,1.28125 -0.28125,1.28125 -0.25,1.34375 -0.25,1.34375 -0.1875,1.34375 -0.15625,1.375 -0.0937,1.375 -0.0937,1.375 -0.0625,1.4375 0,1.375 0.0312,1.84375 0.0937,1.78125 0.125,1.78125 0.21875,1.65625 0.25,1.6875 0.28125,1.5625 0.34375,1.5625 0.40625,1.5 0.40625,1.46875 0.5,1.40625 0.5625,1.34375 0.59375,1.34375 0.625,1.25 0.65625,1.21875 0.71875,1.15625 0.75,1.15625 0.78125,1.0625 0.84375,1 0.875,1.03125 0.875,0.90625 0.9375,0.90625 0.9375,0.84375 1.03125,0.8125 1.03125,0.75 1.03125,0.6875 1.09375,0.6875 1.09375,0.59375 1.15625,0.5625 1.15625,0.5625 1.15625,0.4375 1.21875,0.4375 1.21875,0.375 1.25,0.375 1.25,0.28125 1.28125,0.25 1.3125,0.1875 1.28125,0.15625 1.34375,0.125 1.34375,0.0312 1.34375,0.0625 1.34375,-0.0625 1.3125,-0.0312 1.3125,-0.125 1.34375,-0.15625 1.28125,-0.1875 1.25,-0.25 1.25,-0.28125 1.25,-0.375 1.21875,-0.375 1.21875,-0.4375 1.1875,-0.4375 1.15625,-0.5625 1.125,-0.5625 1.125,-0.59375 1.0625,-0.6875 1.0625,-0.6875 1.03125,-0.75 1,-0.8125 0.9375,-0.84375 0.9375,-0.90625 0.90625,-0.90625 0.875,-1.03125 0.8125,-1 0.78125,-1.0625 0.75,-1.15625 0.71875,-1.15625 0.65625,-1.21875 0.65625,-1.25 0.5625,-1.34375 0.5625,-1.34375 0.5,-1.40625 0.4375,-1.46875 0.375,-1.5 0.40625,-1.5625 0.28125,-1.5625 0.25,-1.6875 0.15625,-1.65625 0.1875,-1.78125 0.0625,-1.78125 0,-1.84375 0,-1.375 -0.0312,-1.4375 -0.0937,-1.375 -0.125,-1.375 -0.15625,-1.375 -0.15625,-1.34375 -0.21875,-1.34375 -0.28125,-1.34375 -0.3125,-1.28125 -0.34375,-1.28125 -0.375,-1.28125 -0.40625,-1.25 -0.46875,-1.1875 -0.5,-1.21875 -0.53125,-1.1875 -0.59375,-1.125 -0.625,-1.125 -0.65625,-1.03125 -0.71875,-1.0625 -0.75,-1.03125 -0.84375,-0.96875 -0.84375,-0.96875 -0.90625,-0.875 -0.96875,-0.875 -1,-0.78125 -1.03125,-0.8125 -1.09375,-0.75 -1.1875,-0.65625 -1.1875,-0.6875 -1.28125,-0.5625 -1.28125,-0.5625 -1.375,-0.5 -1.4375,-0.40625 -1.5,-0.375 -1.5,-0.34375 -1.625,-0.28125 -1.625,-0.21875 -1.71875,-0.1875 -1.75,-0.0625 -1.84375,-0.0625 z m -0.875,12 0.875,0 0.875,0 0.84375,0.0937 0.8125,0.0937 0.84375,0.125 0.78125,0.15625 0.78125,0.21875 0.6875,0.25 0.71875,0.25 0.71875,0.34375 0.65625,0.3125 0.625,0.375 0.625,0.375 0.59375,0.46875 0.53125,0.46875 0.5625,0.5 0.53125,0.53125 0.5,0.5625 0.46875,0.5625 0.46875,0.65625 0.40625,0.625 0.40625,0.65625 0.40625,0.71875 0.375,0.6875 0.3125,0.75 0.3125,0.8125 0.28125,0.78125 0.28125,0.84375 0.25,0.84375 0.25,0.875 0.21875,0.875 0.15625,0.9375 0.1875,0.90625 0.15625,0.96875 0.125,1 0.0937,0.96875 0.125,1.03125 0.0312,1 0.0625,1.0625 0.0312,1.0625 0,1.09375 0,0.875 0,0.9375 -0.0312,0.875 -0.0937,0.90625 -0.0937,0.875 -0.0937,0.875 -0.125,0.875 -0.125,0.90625 -0.125,0.8125 -0.15625,0.84375 -0.21875,0.84375 -0.1875,0.84375 -0.25,0.8125 -0.25,0.8125 -0.25,0.75 -0.3125,0.78125 -0.3125,0.71875 -0.34375,0.75 -0.375,0.71875 -0.375,0.65625 -0.4375,0.6875 -0.4375,0.625 -0.46875,0.625 -0.46875,0.59375 -0.53125,0.53125 -0.53125,0.53125 -0.5625,0.5 -0.59375,0.5 -0.625,0.4375 -0.65625,0.40625 -0.65625,0.375 -0.71875,0.34375 -0.71875,0.28125 -0.78125,0.3125 -0.75,0.1875 -0.84375,0.21875 -0.875,0.15625 -0.875,0.0937 -0.9375,0.0937 -0.90625,0 -0.96875,0 -0.90625,-0.0937 -0.90625,-0.0937 -0.8125,-0.15625 -0.84375,-0.21875 -0.78125,-0.1875 -0.78125,-0.3125 -0.75,-0.28125 -0.6875,-0.34375 -0.6875,-0.375 -0.625,-0.40625 -0.625,-0.4375 -0.59375,-0.5 -0.5625,-0.5 -0.5625,-0.53125 -0.5,-0.53125 -0.5,-0.59375 -0.46875,-0.625 -0.40625,-0.625 -0.40625,-0.6875 -0.4375,-0.65625 -0.3125,-0.71875 -0.375,-0.75 -0.3125,-0.71875 -0.28125,-0.78125 -0.3125,-0.75 -0.25,-0.8125 -0.1875,-0.8125 -0.25,-0.84375 -0.1875,-0.84375 -0.15625,-0.84375 -0.15625,-0.8125 -0.125,-0.90625 -0.125,-0.875 -0.0937,-0.875 -0.0937,-0.875 -0.0312,-0.90625 -0.0312,-0.875 -0.0625,-0.9375 0,-0.875 0,-1.09375 0.0625,-1.0625 0.0312,-1.0625 0.0937,-1 0.0625,-1.03125 0.125,-0.96875 0.125,-1 0.125,-0.96875 0.1875,-0.90625 0.1875,-0.9375 0.21875,-0.875 0.21875,-0.875 0.25,-0.84375 0.28125,-0.84375 0.28125,-0.78125 0.34375,-0.8125 0.34375,-0.75 0.375,-0.6875 0.375,-0.71875 0.375,-0.65625 0.46875,-0.625 0.40625,-0.65625 0.5,-0.5625 0.5,-0.5625 0.5,-0.53125 0.5625,-0.5 0.5625,-0.46875 0.59375,-0.46875 0.59375,-0.375 0.65625,-0.375 0.6875,-0.3125 0.65625,-0.34375 0.71875,-0.25 0.75,-0.25 0.75,-0.21875 0.78125,-0.15625 0.8125,-0.125 0.84375,-0.0937 0.875,-0.0937 z"
   style="fill:#000000;fill-opacity:1;stroke:none"
   inkscape:connector-curvature="0" />
</g><g
     id="LWPOLYLINE_6_">
	
		
</g><g
     style="fill:#000000;fill-opacity:1;stroke:none"
     id="LWPOLYLINE_7_">
	
		<path
   id="polygon25"
   d="m 520.0625,568.0625 -1.90625,0.0625 -1.84375,0.125 -1.75,0.15625 -1.71875,0.21875 -1.625,0.28125 -1.53125,0.34375 -1.5,0.40625 -1.46875,0.46875 -1.375,0.5 -1.34375,0.53125 -1.25,0.625 -1.21875,0.6875 -1.1875,0.71875 -1.125,0.75 -1.03125,0.78125 -1,0.84375 -0.9375,0.90625 -0.90625,0.9375 -0.84375,0.9375 -0.78125,0.96875 -0.75,1.0625 -0.6875,1.03125 -0.65625,1.09375 -0.625,1.125 -0.5625,1.125 -0.5,1.21875 -0.5,1.15625 -0.40625,1.21875 -0.4375,1.25 -0.3125,1.25 -0.34375,1.28125 -0.28125,1.28125 -0.21875,1.3125 -0.21875,1.3125 -0.1875,1.3125 -0.125,1.34375 -0.125,1.3125 -0.0625,1.34375 -0.0312,1.34375 -0.0312,1.375 0.0312,1.875 0.0937,1.84375 0.125,1.8125 0.15625,1.75 0.25,1.6875 0.28125,1.625 0.34375,1.5625 0.375,1.53125 0.40625,1.4375 0.53125,1.4375 0.5,1.375 0.5625,1.34375 0.59375,1.25 0.65625,1.21875 0.6875,1.15625 0.75,1.125 0.75,1.09375 0.78125,1 0.90625,0.96875 0.875,0.90625 0.90625,0.90625 0.9375,0.8125 1,0.8125 1,0.71875 1.03125,0.6875 1.09375,0.625 1.125,0.59375 1.125,0.5625 1.1875,0.5 1.15625,0.4375 1.21875,0.4375 1.25,0.375 1.25,0.28125 1.3125,0.28125 1.28125,0.25 1.34375,0.1875 1.34375,0.15625 1.375,0.0937 1.375,0.0625 1.4375,0 1.3125,0 1.34375,-0.0625 1.3125,-0.0937 1.28125,-0.15625 1.3125,-0.1875 1.25,-0.25 1.25,-0.28125 1.21875,-0.28125 1.1875,-0.375 1.1875,-0.4375 1.15625,-0.4375 1.125,-0.5 1.09375,-0.5625 1.09375,-0.59375 1.03125,-0.625 1.0625,-0.6875 1,-0.71875 0.96875,-0.8125 0.90625,-0.8125 0.875,-0.90625 0.875,-0.90625 0.84375,-0.96875 0.8125,-1 0.75,-1.09375 0.6875,-1.125 0.71875,-1.15625 0.625,-1.21875 0.59375,-1.25 0.59375,-1.34375 0.5,-1.375 0.4375,-1.4375 0.46875,-1.4375 0.375,-1.53125 0.34375,-1.5625 0.25,-1.625 0.25,-1.6875 0.15625,-1.75 0.1875,-1.8125 0.0625,-1.84375 0,-1.875 0,-1.375 -0.0312,-1.34375 -0.0937,-1.34375 -0.125,-1.3125 -0.125,-1.34375 -0.15625,-1.3125 -0.21875,-1.3125 -0.25,-1.3125 -0.25,-1.28125 -0.34375,-1.28125 -0.3125,-1.25 -0.4375,-1.25 -0.40625,-1.21875 -0.46875,-1.15625 -0.5,-1.21875 -0.5625,-1.125 -0.59375,-1.125 -0.625,-1.09375 -0.71875,-1.03125 -0.71875,-1.0625 -0.78125,-0.96875 -0.8125,-0.9375 -0.875,-0.9375 -0.9375,-0.90625 -0.96875,-0.84375 -1,-0.78125 -1.09375,-0.75 -1.125,-0.71875 -1.1875,-0.6875 -1.25,-0.625 -1.28125,-0.53125 -1.34375,-0.5 -1.4375,-0.46875 -1.4375,-0.40625 -1.53125,-0.34375 L 527,568.625 l -1.65625,-0.21875 -1.6875,-0.15625 -1.78125,-0.125 -1.8125,-0.0625 z m 0,12 0.8125,0.0625 0.8125,0.0312 0.78125,0.0937 0.75,0.125 0.71875,0.15625 0.71875,0.21875 0.6875,0.25 0.6875,0.28125 0.625,0.28125 0.625,0.34375 0.625,0.375 0.53125,0.4375 0.59375,0.40625 0.5625,0.46875 0.5,0.5 0.5,0.53125 0.4375,0.5625 0.46875,0.5625 0.46875,0.625 0.375,0.6875 0.40625,0.65625 0.375,0.6875 0.34375,0.75 0.34375,0.75 0.28125,0.75 0.28125,0.78125 0.25,0.84375 0.25,0.84375 0.25,0.875 0.21875,0.875 0.1875,0.90625 0.15625,0.96875 0.15625,0.9375 0.125,1 0.0937,1 0.0937,1 0.0625,1.03125 0.0625,1.0625 0.0312,1.03125 0,1.09375 0,0.90625 -0.0312,0.875 0,0.9375 -0.0625,0.875 -0.0625,0.875 -0.0937,0.875 -0.0937,0.875 -0.125,0.875 -0.125,0.84375 -0.125,0.875 -0.15625,0.84375 -0.21875,0.78125 L 535,616.1875 534.8125,617 l -0.25,0.78125 -0.25,0.75 -0.3125,0.75 L 533.6875,620 533.34375,620.71875 533,621.375 l -0.375,0.65625 -0.40625,0.65625 -0.4375,0.625 -0.4375,0.5625 -0.5,0.59375 -0.5,0.53125 -0.5625,0.53125 -0.53125,0.4375 -0.625,0.4375 -0.625,0.40625 -0.625,0.375 -0.71875,0.34375 -0.71875,0.3125 -0.71875,0.25 -0.78125,0.25 -0.78125,0.1875 -0.90625,0.15625 -0.875,0.0937 -0.875,0.0625 -0.9375,0.0625 -1.03125,-0.0625 -0.9375,-0.0625 -0.96875,-0.0937 -0.875,-0.15625 -0.875,-0.1875 -0.8125,-0.25 -0.78125,-0.25 -0.75,-0.3125 -0.75,-0.34375 -0.6875,-0.375 -0.65625,-0.40625 -0.625,-0.4375 -0.59375,-0.4375 L 509.125,625 l -0.53125,-0.53125 -0.5,-0.59375 -0.46875,-0.5625 -0.46875,-0.625 -0.40625,-0.65625 -0.40625,-0.65625 -0.375,-0.65625 L 505.625,620 l -0.34375,-0.71875 -0.28125,-0.75 -0.25,-0.75 L 504.5,617 l -0.25,-0.8125 -0.21875,-0.84375 -0.21875,-0.78125 -0.15625,-0.84375 -0.125,-0.875 -0.125,-0.84375 -0.125,-0.875 -0.125,-0.875 -0.0312,-0.875 -0.0937,-0.875 -0.0312,-0.875 -0.0625,-0.9375 0,-0.875 -0.0312,-0.90625 0.0312,-1.09375 0,-1.03125 0.0625,-1.0625 0.0625,-1.03125 0.0937,-1 0.125,-1 0.125,-1 0.125,-0.9375 0.21875,-0.96875 0.15625,-0.90625 0.21875,-0.875 0.25,-0.875 0.25,-0.84375 0.25,-0.84375 0.28125,-0.78125 0.34375,-0.75 0.34375,-0.75 0.375,-0.75 0.375,-0.6875 0.40625,-0.65625 0.4375,-0.6875 0.4375,-0.625 0.46875,-0.5625 0.5,-0.5625 0.5,-0.53125 0.53125,-0.5 0.59375,-0.46875 0.59375,-0.40625 0.625,-0.4375 0.625,-0.375 0.65625,-0.34375 0.6875,-0.28125 L 514.375,581 l 0.75,-0.25 0.75,-0.21875 0.78125,-0.15625 0.8125,-0.125 0.8125,-0.0937 0.875,-0.0312 0.90625,-0.0625 z"
   style="fill:#000000;fill-opacity:1;stroke:none"
   inkscape:connector-curvature="0" />
</g><g
     id="LWPOLYLINE_8_">
	
		
</g><g
     style="fill:#000000;fill-opacity:1;stroke:none"
     id="LWPOLYLINE_9_">
	
		<path
   style="fill:#000000;fill-opacity:1;stroke:none"
   id="path31"
   d="m 432.715,646 0.167,-0.293 0.502,-0.836 0.794,-1.379 1.087,-1.881 1.338,-2.342 1.63,-2.801 1.84,-3.178 2.091,-3.596 2.257,-3.93 2.467,-4.223 2.634,-4.557 2.801,-4.807 2.927,-5.059 3.052,-5.268 3.136,-5.436 3.219,-5.561 3.303,-5.686 3.345,-5.811 3.386,-5.811 3.387,-5.895 3.428,-5.854 3.387,-5.852 3.344,-5.77 3.303,-5.686 3.22,-5.604 3.135,-5.434 3.053,-5.227 2.926,-5.059 2.801,-4.807 2.634,-4.557 2.467,-4.266 2.258,-3.93 2.09,-3.594 1.84,-3.178 1.63,-2.801 1.338,-2.342 1.087,-1.881 0.795,-1.338 0.502,-0.879 0.167,-0.293 c -0.084,0 -0.209,0 -0.209,0 -0.168,0 -0.377,0 -0.377,0 h -0.25 -0.293 -0.293 -0.334 -0.377 -0.418 -0.418 -0.418 -0.46 -0.501 -0.46 -0.502 -0.502 -0.543 -0.502 -0.502 -0.501 -0.502 -0.502 -0.502 -0.459 -0.46 -0.46 -0.418 -0.418 -0.335 -0.376 -0.293 -0.293 -0.25 c -0.209,0 -0.335,0 -0.335,0 -0.209,0 -0.251,0 -0.251,0 l -0.167,0.293 -0.502,0.879 -0.794,1.338 -1.087,1.881 -1.338,2.342 -1.631,2.801 -1.839,3.178 -2.091,3.594 -2.257,3.93 -2.467,4.266 -2.634,4.557 -2.801,4.807 -2.927,5.059 -3.01,5.227 -3.178,5.434 -3.219,5.604 -3.303,5.686 -3.345,5.77 -3.386,5.852 -3.387,5.854 -3.428,5.895 -3.345,5.811 -3.387,5.811 -3.261,5.686 -3.261,5.561 -3.136,5.436 -3.052,5.268 -2.926,5.059 -2.76,4.807 -2.634,4.557 -2.466,4.223 -2.3,3.93 -2.049,3.596 -1.881,3.178 -1.589,2.801 -1.379,2.342 -1.088,1.881 -0.794,1.379 -0.502,0.836 -0.166,0.293 h 13.713 z"
   stroke-miterlimit="10"
   inkscape:connector-curvature="0" />
</g><g
     id="LWPOLYLINE_10_">
	
		
</g><g
     id="LWPOLYLINE_11_">
	
		
</g></g>

</svg>