<?xml version="1.0" encoding="UTF-8" standalone="no"?>
<!-- Generator: Adobe Illustrator 16.0.1, SVG Export Plug-In . SVG Version: 6.00 Build 0)  -->

<svg
   xmlns:dc="http://purl.org/dc/elements/1.1/"
   xmlns:cc="http://creativecommons.org/ns#"
   xmlns:rdf="http://www.w3.org/1999/02/22-rdf-syntax-ns#"
   xmlns:svg="http://www.w3.org/2000/svg"
   xmlns="http://www.w3.org/2000/svg"
   xmlns:sodipodi="http://sodipodi.sourceforge.net/DTD/sodipodi-0.dtd"
   xmlns:inkscape="http://www.inkscape.org/namespaces/inkscape"
   version="1.0"
   id="_x31_"
   x="0px"
   y="0px"
   width="612px"
   height="792px"
   viewBox="0 0 612 792"
   enable-background="new 0 0 612 792"
   xml:space="preserve"
   inkscape:version="0.48.2 r9819"
   sodipodi:docname="7069.svg"><metadata
   id="metadata79"><rdf:RDF><cc:Work
       rdf:about=""><dc:format>image/svg+xml</dc:format><dc:type
         rdf:resource="http://purl.org/dc/dcmitype/StillImage" /></cc:Work></rdf:RDF></metadata><defs
   id="defs77" /><sodipodi:namedview
   pagecolor="#ffffff"
   bordercolor="#666666"
   borderopacity="1"
   objecttolerance="10"
   gridtolerance="10"
   guidetolerance="10"
   inkscape:pageopacity="0"
   inkscape:pageshadow="2"
   inkscape:window-width="1920"
   inkscape:window-height="1073"
   id="namedview75"
   showgrid="false"
   inkscape:zoom="0.84281414"
   inkscape:cx="176.50211"
   inkscape:cy="383.62319"
   inkscape:window-x="0"
   inkscape:window-y="0"
   inkscape:window-maximized="1"
   inkscape:current-layer="_x31_" />
<g
   id="LWPOLYLINE_9_"
   style="stroke:none;fill:#000000;fill-opacity:1">
	
		<path
   style="fill:#000000;stroke:none;stroke-width:0.70870000000000000;stroke-linecap:round;stroke-linejoin:round;stroke-miterlimit:10;fill-opacity:1"
   d="M 144.34375 268.875 C 128.5146 269.16036 112.82542 273.97248 99.5625 282.625 C 64.903068 304.15379 50.729603 352.05324 68.09375 388.96875 C 84.14934 426.97945 130.10695 448.39615 169.53125 436.1875 C 208.92868 425.74452 236.48331 384.13122 230.6875 343.78125 C 226.52651 302.6993 188.82176 268.72974 147.53125 268.875 C 146.47565 268.85357 145.39903 268.85598 144.34375 268.875 z M 144.375 290.15625 C 145.29487 290.14109 146.23203 290.15919 147.15625 290.1875 C 183.00507 289.81797 213.90414 324.16334 209.75 359.78125 C 207.64558 395.58907 171.2389 423.98572 136 417.40625 C 100.45583 412.76545 74.618126 374.48074 83.6875 339.78125 C 89.738985 311.76956 115.85916 290.62621 144.375 290.15625 z "
   id="polygon55" />
</g><g
   id="LWPOLYLINE_10_"
   style="stroke:none;fill:#000000;fill-opacity:1">
	
		<path
   style="fill:#000000;stroke:none;stroke-width:0.70870000000000000;stroke-linecap:round;stroke-linejoin:round;stroke-miterlimit:10;fill-opacity:1"
   d="M 464.40625 268.875 C 449.02102 269.13612 433.751 273.68878 420.71875 281.875 C 385.28378 303.04806 370.48036 351.52339 388.03125 388.875 C 404.04816 426.9235 450.02475 448.40426 489.46875 436.1875 C 529.40718 425.65361 557.06392 383.08228 550.46875 342.3125 C 545.61464 301.84013 508.23384 268.75776 467.46875 268.875 C 466.44278 268.85418 465.43193 268.85759 464.40625 268.875 z M 464.34375 290.1875 C 465.2644 290.17216 466.16857 290.1594 467.09375 290.1875 C 502.94639 289.81932 533.87633 324.16207 529.71875 359.78125 C 527.61941 395.57783 491.20496 423.97921 455.96875 417.40625 C 420.39944 412.77908 394.59905 374.49397 403.625 339.78125 C 409.72669 311.76796 435.80354 290.66313 464.34375 290.1875 z "
   id="polygon58" />
</g><g
   id="LWPOLYLINE"
   style="stroke:none;stroke-opacity:1;fill:#000000;fill-opacity:1">
	
		<path
   style="fill:#000000;stroke:none;stroke-width:0.70870000000000000;stroke-linecap:round;stroke-linejoin:round;stroke-miterlimit:10;stroke-opacity:1;fill-opacity:1"
   d="M 304.78125 495.75 C 288.26772 495.87002 271.79385 504.19318 265.21875 520.28125 C 253.29124 547.67464 254.0324 579.41927 260.75 608.0625 C 265.82009 629.998 283.83073 648.43183 307.71875 645.90625 C 332.11284 645.65817 347.58013 622.35352 351.1875 600.4375 C 355.97314 572.11023 356.79797 540.35988 341.78125 514.8125 C 333.93613 501.91599 319.35201 495.6441 304.78125 495.75 z M 303.1875 512.4375 C 304.22663 512.40767 305.29441 512.44106 306.40625 512.5625 C 324.80889 513.09573 331.41105 533.80016 332.71875 549.0625 C 334.23219 572.40751 336.35963 598.32354 323.90625 619.25 C 315.07897 633.6798 291.15599 632.13532 284.4375 616.5 C 273.94842 593.87953 275.65235 567.65371 278.34375 543.5 C 280.10265 529.67767 287.60051 512.88492 303.1875 512.4375 z "
   id="polygon4" />
</g>
<g
   id="LWPOLYLINE_1_">
	
		
</g>
<g
   id="LWPOLYLINE_2_"
   style="stroke-width:5.1;stroke-miterlimit:10;stroke-dasharray:none;stroke:#000000;stroke-opacity:1">
	
		<path
   style="fill:none;stroke:#000000;stroke-width:5.1;stroke-linecap:round;stroke-linejoin:round;stroke-miterlimit:10;stroke-dasharray:none;stroke-opacity:1"
   d="m 146.396,332.852 c 15.94634,-0.45434 26.79321,19.52312 17.706,32.642 -7.81153,13.89615 -30.51743,12.90622 -37.08,-1.625 -7.47345,-13.87103 3.60332,-31.62511 19.374,-31.017 z"
   id="polygon10"
   inkscape:connector-curvature="0" />
</g>
<g
   id="LWPOLYLINE_3_"
   style="stroke-width:5.1;stroke-miterlimit:10;stroke-dasharray:none;stroke:#000000;stroke-opacity:1">
	
		<path
   style="fill:none;stroke:#000000;stroke-width:5.1;stroke-linecap:round;stroke-linejoin:round;stroke-miterlimit:10;stroke-dasharray:none;stroke-opacity:1"
   d="m 466.355,332.852 c 15.94526,-0.44714 26.80356,19.52761 17.707,32.642 -7.81625,13.89587 -30.51278,12.9039 -37.08,-1.625 -7.48576,-13.85676 3.61041,-31.62439 19.373,-31.017 z"
   id="polygon13"
   inkscape:connector-curvature="0" />
</g>
<g
   id="ARC">
	
		
</g>
<g
   id="ARC_1_">
	
		
</g>
<g
   id="LINE">
	
		
</g>
<g
   id="LINE_1_"
   style="stroke:none;fill:#000000;fill-opacity:1">
	
		<path
   style="fill:#000000;stroke:none;stroke-width:0.70870000000000000;stroke-linecap:round;stroke-linejoin:round;stroke-miterlimit:10;fill-opacity:1"
   d="m 306.45849,163.916 3.71287,0.18542 3.5654,0.54421 c 28.68515,4.38989 38.92296,45.58242 15.60551,62.87164 -21.54112,19.72267 -60.26894,1.45478 -58.75427,-27.74177 -5.97133,-0.0315 -11.94267,-0.0315 -17.914,0 -1.7877,39.22769 45.85223,67.60946 79.47303,47.36033 34.96662,-16.997 37.62612,-71.66694 4.43812,-91.94333 -8.81191,-5.98237 -19.43482,-9.22235 -30.12666,-9.1925 -0.0415,5.972 -0.0415,11.944 0,17.916 z"
   id="line25"
   inkscape:connector-curvature="0"
   sodipodi:nodetypes="cccccccccc" />
</g>
<g
   id="LWPOLYLINE_4_">
	
		
</g>
<g
   id="LWPOLYLINE_5_">
	
		
</g>
<g
   id="LINE_2_"
   style="stroke:none;fill:#000000;fill-opacity:1">
	
		<path
   style="fill:#000000;stroke:none;stroke-width:0.70870000000000000;stroke-linecap:round;stroke-linejoin:round;stroke-miterlimit:10;fill-opacity:1"
   d="m 427.56799,163.916 c -22.9678,-1.16163 -42.3738,23.2349 -35.36999,45.307 5.5566,23.24771 36.21022,34.16174 55.409,20.121 9.75023,-6.48979 15.87589,-17.88419 15.832,-29.6 5.97166,0 11.94333,0 17.915,0 0.28523,23.72553 -16.74737,45.80511 -39.663,51.785 -30.19124,9.37482 -64.98759,-13.16108 -68.241,-44.724 -5.1441,-31.27663 22.56375,-62.07481 54.11799,-60.805 0,5.972 0,11.944 0,17.916 z"
   id="line34"
   inkscape:connector-curvature="0"
   sodipodi:nodetypes="ccccccccc" />
</g>
<g
   id="LINE_3_">
	
		
</g>
<g
   id="LWPOLYLINE_6_">
	
		
</g>
<g
   id="LWPOLYLINE_7_">
	
		
</g>
<g
   id="LINE_4_"
   style="stroke:none;fill:#000000;fill-opacity:1">
	
		<path
   style="fill:#000000;stroke:none;stroke-width:0.70870000000000000;stroke-linecap:round;stroke-linejoin:round;stroke-miterlimit:10;fill-opacity:1"
   d="m 185.6925,253.508 c 31.995,0.76135 59.25917,-30.45357 53.5865,-61.658 -3.7517,-31.51292 -38.88347,-53.47905 -68.928,-43.662 -22.51357,6.29284 -39.13871,28.11464 -38.829,51.556 5.97167,0 11.94333,0 17.915,-0.1055 -0.0102,-11.23979 5.61415,-22.10607 14.605,-28.6435 18.63459,-14.79491 49.67395,-5.11761 56.198,17.876 8.00708,21.98769 -10.88618,47.39478 -34.5475,46.71199 -0.42649,5.98234 -0.42649,11.95367 0,17.92501 z"
   id="line46"
   inkscape:connector-curvature="0"
   sodipodi:nodetypes="ccccccccc" />
</g>
<g
   id="LINE_5_">
	
		
</g>
<g
   id="LWPOLYLINE_8_">
	
		
</g>


<g
   id="LWPOLYLINE_11_">
	
		
</g>
<g
   id="LINE_6_">
	
		
</g>
<g
   id="LINE_7_"
   style="stroke:none;fill:#000000;fill-opacity:1">
	
		<path
   style="fill:#000000;stroke:none;stroke-width:0.70870000000000000;stroke-linecap:round;stroke-linejoin:round;stroke-miterlimit:10;fill-opacity:1"
   d="m 465.98001,290.19101 c -106.653,0 -213.30601,0 -319.95901,0 l 0,-21.332 c 106.653,0 213.30601,0 319.95901,0 z"
   id="line67"
   inkscape:connector-curvature="0"
   sodipodi:nodetypes="ccccc" />
</g>
<g
   id="LINE_8_"
   style="stroke:none;fill:#000000;fill-opacity:1">
	
		<path
   style="fill:#000000;stroke:none;stroke-width:0.70870000000000000;stroke-linecap:round;stroke-linejoin:round;stroke-miterlimit:10;fill-opacity:1"
   d="m 465.98001,418.15399 c -106.653,0 -213.30601,0 -319.95901,0 l 0,21.33002 c 106.653,0 213.30601,0 319.95901,0 z"
   id="line70"
   inkscape:connector-curvature="0"
   sodipodi:nodetypes="ccccc" />
</g>
<g
   id="LINE_9_">
	
		
</g>
</svg>