<?xml version="1.0" encoding="UTF-8" standalone="no"?>
<!-- Generator: Adobe Illustrator 16.0.1, SVG Export Plug-In . SVG Version: 6.00 Build 0)  -->

<svg
   xmlns:dc="http://purl.org/dc/elements/1.1/"
   xmlns:cc="http://creativecommons.org/ns#"
   xmlns:rdf="http://www.w3.org/1999/02/22-rdf-syntax-ns#"
   xmlns:svg="http://www.w3.org/2000/svg"
   xmlns="http://www.w3.org/2000/svg"
   xmlns:xlink="http://www.w3.org/1999/xlink"
   xmlns:sodipodi="http://sodipodi.sourceforge.net/DTD/sodipodi-0.dtd"
   xmlns:inkscape="http://www.inkscape.org/namespaces/inkscape"
   version="1.0"
   id="_x31_"
   x="0px"
   y="0px"
   width="350"
   height="350"
   viewBox="0 0 350 350"
   enable-background="new 0 0 612 792"
   xml:space="preserve"
   inkscape:version="0.48.2 r9819"
   sodipodi:docname="7070.svg"><metadata
   id="metadata34"><rdf:RDF><cc:Work
       rdf:about=""><dc:format>image/svg+xml</dc:format><dc:type
         rdf:resource="http://purl.org/dc/dcmitype/StillImage" /></cc:Work></rdf:RDF></metadata><defs
   id="defs32"><radialGradient
     r="333.18735"
     fy="710.99164"
     fx="373.24265"
     cy="710.99164"
     cx="373.24265"
     gradientTransform="matrix(0.86272608,1.0667183e-7,-5.1097115e-8,0.31434,-147.00617,81.5576)"
     gradientUnits="userSpaceOnUse"
     id="radialGradient3092"
     xlink:href="#linearGradient5443"
     inkscape:collect="always" /><radialGradient
     r="333.18735"
     fy="467.91885"
     fx="373.24265"
     cy="467.91885"
     cx="373.24265"
     gradientTransform="matrix(0.83535071,2.5391117e-7,-2.4564601e-7,0.80815889,-136.78854,-203.15302)"
     gradientUnits="userSpaceOnUse"
     id="radialGradient3088"
     xlink:href="#linearGradient5443"
     inkscape:collect="always" /><radialGradient
     r="333.18735"
     fy="467.91885"
     fx="373.24265"
     cy="467.91885"
     cx="373.24265"
     gradientTransform="matrix(0.83535071,2.5391117e-7,-2.4564601e-7,0.80815889,783.12101,707.99698)"
     gradientUnits="userSpaceOnUse"
     id="radialGradient3736"
     xlink:href="#linearGradient5443"
     inkscape:collect="always" /><linearGradient
     y2="254.73526"
     x2="123.47623"
     y1="344.03848"
     x1="123.50603"
     gradientTransform="matrix(2.3189708,0,0,2.0930998,-99.17808,-231.54972)"
     gradientUnits="userSpaceOnUse"
     id="linearGradient3734"
     xlink:href="#linearGradient3187"
     inkscape:collect="always" /><radialGradient
     r="333.18735"
     fy="710.99164"
     fx="373.24265"
     cy="710.99164"
     cx="373.24265"
     gradientTransform="matrix(0.86272608,1.0667183e-7,-5.1097115e-8,0.31434,772.90338,992.7076)"
     gradientUnits="userSpaceOnUse"
     id="radialGradient3732"
     xlink:href="#linearGradient5443"
     inkscape:collect="always" /><radialGradient
     r="333.18735"
     fy="710.99164"
     fx="373.24265"
     cy="710.99164"
     cx="373.24265"
     gradientTransform="matrix(0.86272608,1.0667183e-7,-5.1097115e-8,0.31434,772.90338,992.7076)"
     gradientUnits="userSpaceOnUse"
     id="radialGradient3722"
     xlink:href="#linearGradient5443"
     inkscape:collect="always" /><radialGradient
     r="333.18735"
     fy="467.91885"
     fx="373.24265"
     cy="467.91885"
     cx="373.24265"
     gradientTransform="matrix(0.83535071,2.5391117e-7,-2.4564601e-7,0.80815889,783.12101,707.99698)"
     gradientUnits="userSpaceOnUse"
     id="radialGradient3718"
     xlink:href="#linearGradient5443"
     inkscape:collect="always" /><radialGradient
     r="333.18735"
     fy="467.91885"
     fx="373.24265"
     cy="467.91885"
     cx="373.24265"
     gradientTransform="matrix(0.9201975,2.7970099e-7,-2.7059634e-7,0.8902438,-163.70313,61.921561)"
     gradientUnits="userSpaceOnUse"
     id="radialGradient3703"
     xlink:href="#linearGradient5443"
     inkscape:collect="always" /><linearGradient
     y2="254.73526"
     x2="123.47623"
     y1="344.03848"
     x1="123.50603"
     gradientTransform="matrix(2.3189708,0,0,2.0930998,-99.17808,-231.54972)"
     gradientUnits="userSpaceOnUse"
     id="linearGradient3701"
     xlink:href="#linearGradient3187"
     inkscape:collect="always" /><radialGradient
     r="333.18735"
     fy="710.99164"
     fx="373.24265"
     cy="710.99164"
     cx="373.24265"
     gradientTransform="matrix(0.9503534,1.1750652e-7,-5.6287062e-8,0.3462676,-174.95857,375.55031)"
     gradientUnits="userSpaceOnUse"
     id="radialGradient3699"
     xlink:href="#linearGradient5443"
     inkscape:collect="always" /><radialGradient
     r="333.18735"
     fy="467.91885"
     fx="373.24265"
     cy="467.91885"
     cx="373.24265"
     gradientTransform="matrix(0.9201975,2.7970099e-7,-2.7059634e-7,0.8902438,-163.70313,61.921561)"
     gradientUnits="userSpaceOnUse"
     id="radialGradient3680"
     xlink:href="#linearGradient5443"
     inkscape:collect="always" /><linearGradient
     y2="254.73526"
     x2="123.47623"
     y1="344.03848"
     x1="123.50603"
     gradientTransform="matrix(2.3189708,0,0,2.0930998,-99.17808,-231.54972)"
     gradientUnits="userSpaceOnUse"
     id="linearGradient3678"
     xlink:href="#linearGradient3187"
     inkscape:collect="always" /><radialGradient
     r="333.18735"
     fy="710.99164"
     fx="373.24265"
     cy="710.99164"
     cx="373.24265"
     gradientTransform="matrix(0.9503534,1.1750652e-7,-5.6287062e-8,0.3462676,-174.95857,375.55031)"
     gradientUnits="userSpaceOnUse"
     id="radialGradient3676"
     xlink:href="#linearGradient5443"
     inkscape:collect="always" /><radialGradient
     r="333.18735"
     fy="467.91885"
     fx="373.24265"
     cy="467.91885"
     cx="373.24265"
     gradientTransform="matrix(0.9201975,2.7970099e-7,-2.7059634e-7,0.8902438,-163.70313,61.921561)"
     gradientUnits="userSpaceOnUse"
     id="radialGradient3654"
     xlink:href="#linearGradient5443"
     inkscape:collect="always" /><linearGradient
     y2="254.73526"
     x2="123.47623"
     y1="344.03848"
     x1="123.50603"
     gradientTransform="matrix(2.3189708,0,0,2.0930998,-99.17808,-231.54972)"
     gradientUnits="userSpaceOnUse"
     id="linearGradient3652"
     xlink:href="#linearGradient3187"
     inkscape:collect="always" /><radialGradient
     r="333.18735"
     fy="710.99164"
     fx="373.24265"
     cy="710.99164"
     cx="373.24265"
     gradientTransform="matrix(0.9503534,1.1750652e-7,-5.6287062e-8,0.3462676,-174.95857,375.55031)"
     gradientUnits="userSpaceOnUse"
     id="radialGradient3650"
     xlink:href="#linearGradient5443"
     inkscape:collect="always" /><radialGradient
     r="333.18735"
     fy="467.91885"
     fx="373.24265"
     cy="467.91885"
     cx="373.24265"
     gradientTransform="matrix(0.9201975,2.7970099e-7,-2.7059634e-7,0.8902438,-163.70313,61.921561)"
     gradientUnits="userSpaceOnUse"
     id="radialGradient3627"
     xlink:href="#linearGradient5443"
     inkscape:collect="always" /><linearGradient
     y2="254.73526"
     x2="123.47623"
     y1="344.03848"
     x1="123.50603"
     gradientTransform="matrix(2.3189708,0,0,2.0930998,-99.17808,-231.54972)"
     gradientUnits="userSpaceOnUse"
     id="linearGradient3625"
     xlink:href="#linearGradient3187"
     inkscape:collect="always" /><radialGradient
     r="333.18735"
     fy="710.99164"
     fx="373.24265"
     cy="710.99164"
     cx="373.24265"
     gradientTransform="matrix(0.9503534,1.1750652e-7,-5.6287062e-8,0.3462676,-174.95857,375.55031)"
     gradientUnits="userSpaceOnUse"
     id="radialGradient3623"
     xlink:href="#linearGradient5443"
     inkscape:collect="always" /><radialGradient
     r="333.18735"
     fy="467.91885"
     fx="373.24265"
     cy="467.91885"
     cx="373.24265"
     gradientTransform="matrix(0.9201975,2.7970099e-7,-2.7059634e-7,0.8902438,-163.70313,61.921561)"
     gradientUnits="userSpaceOnUse"
     id="radialGradient3599"
     xlink:href="#linearGradient5443"
     inkscape:collect="always" /><linearGradient
     y2="254.73526"
     x2="123.47623"
     y1="344.03848"
     x1="123.50603"
     gradientTransform="matrix(2.3189708,0,0,2.0930998,-99.17808,-231.54972)"
     gradientUnits="userSpaceOnUse"
     id="linearGradient3597"
     xlink:href="#linearGradient3187"
     inkscape:collect="always" /><radialGradient
     r="333.18735"
     fy="710.99164"
     fx="373.24265"
     cy="710.99164"
     cx="373.24265"
     gradientTransform="matrix(0.9503534,1.1750652e-7,-5.6287062e-8,0.3462676,-174.95857,375.55031)"
     gradientUnits="userSpaceOnUse"
     id="radialGradient3595"
     xlink:href="#linearGradient5443"
     inkscape:collect="always" /><radialGradient
     r="333.18735"
     fy="467.91885"
     fx="373.24265"
     cy="467.91885"
     cx="373.24265"
     gradientTransform="matrix(0.9201975,2.7970099e-7,-2.7059634e-7,0.8902438,-163.70313,61.921561)"
     gradientUnits="userSpaceOnUse"
     id="radialGradient3525"
     xlink:href="#linearGradient5443"
     inkscape:collect="always" /><linearGradient
     y2="254.73526"
     x2="123.47623"
     y1="344.03848"
     x1="123.50603"
     gradientTransform="matrix(2.3189708,0,0,2.0930998,-99.17808,-231.54972)"
     gradientUnits="userSpaceOnUse"
     id="linearGradient3523"
     xlink:href="#linearGradient3187"
     inkscape:collect="always" /><radialGradient
     r="333.18735"
     fy="710.99164"
     fx="373.24265"
     cy="710.99164"
     cx="373.24265"
     gradientTransform="matrix(0.9503534,1.1750652e-7,-5.6287062e-8,0.3462676,-174.95857,375.55031)"
     gradientUnits="userSpaceOnUse"
     id="radialGradient3521"
     xlink:href="#linearGradient5443"
     inkscape:collect="always" /><radialGradient
     r="333.18735"
     fy="467.91885"
     fx="373.24265"
     cy="467.91885"
     cx="373.24265"
     gradientTransform="matrix(0.9201975,2.7970099e-7,-2.7059634e-7,0.8902438,-163.70313,61.921561)"
     gradientUnits="userSpaceOnUse"
     id="radialGradient3497"
     xlink:href="#linearGradient5443"
     inkscape:collect="always" /><linearGradient
     y2="254.73526"
     x2="123.47623"
     y1="344.03848"
     x1="123.50603"
     gradientTransform="matrix(2.3189708,0,0,2.0930998,-99.17808,-231.54972)"
     gradientUnits="userSpaceOnUse"
     id="linearGradient3495"
     xlink:href="#linearGradient3187"
     inkscape:collect="always" /><radialGradient
     r="333.18735"
     fy="710.99164"
     fx="373.24265"
     cy="710.99164"
     cx="373.24265"
     gradientTransform="matrix(0.9503534,1.1750652e-7,-5.6287062e-8,0.3462676,-174.95857,375.55031)"
     gradientUnits="userSpaceOnUse"
     id="radialGradient3493"
     xlink:href="#linearGradient5443"
     inkscape:collect="always" /><linearGradient
     id="linearGradient5443"><stop
       id="stop5445"
       offset="0"
       style="stop-color:#ffffff;stop-opacity:0;" /><stop
       id="stop5447"
       offset="1"
       style="stop-color:#000000;stop-opacity:0.33962265;" /></linearGradient><linearGradient
     id="linearGradient3157"><stop
       style="stop-color:#49bcff;stop-opacity:1;"
       offset="0"
       id="stop3159" /><stop
       style="stop-color:#494c96;stop-opacity:1;"
       offset="1"
       id="stop3161" /></linearGradient><linearGradient
     id="linearGradient3171"><stop
       id="stop3173"
       offset="0"
       style="stop-color:#49bcff;stop-opacity:1;" /><stop
       id="stop3175"
       offset="1"
       style="stop-color:#494cdc;stop-opacity:1;" /></linearGradient><linearGradient
     id="linearGradient3187"><stop
       style="stop-color:#ffffff;stop-opacity:0.39622641;"
       offset="0"
       id="stop3189" /><stop
       style="stop-color:#000000;stop-opacity:1;"
       offset="1"
       id="stop3191" /></linearGradient><linearGradient
     id="linearGradient4395"><stop
       style="stop-color:#110084;stop-opacity:1;"
       offset="0"
       id="stop4397" /><stop
       style="stop-color:#a695ff;stop-opacity:1;"
       offset="1"
       id="stop4399" /></linearGradient><linearGradient
     id="linearGradient4383"><stop
       style="stop-color:#00037f;stop-opacity:1;"
       offset="0"
       id="stop4385" /><stop
       style="stop-color:#00037f;stop-opacity:0;"
       offset="1"
       id="stop4387" /></linearGradient><inkscape:perspective
     sodipodi:type="inkscape:persp3d"
     inkscape:vp_x="0 : 526.18109 : 1"
     inkscape:vp_y="0 : 1000 : 0"
     inkscape:vp_z="744.09448 : 526.18109 : 1"
     inkscape:persp3d-origin="372.04724 : 350.78739 : 1"
     id="perspective3214" /><linearGradient
     inkscape:collect="always"
     xlink:href="#linearGradient4383"
     id="linearGradient4389"
     x1="371.42194"
     y1="298.59412"
     x2="396.91168"
     y2="655.4505"
     gradientUnits="userSpaceOnUse" /><linearGradient
     inkscape:collect="always"
     xlink:href="#linearGradient4395"
     id="linearGradient4401"
     x1="360.49777"
     y1="167.50403"
     x2="360.49777"
     y2="540.86719"
     gradientUnits="userSpaceOnUse" /><linearGradient
     inkscape:collect="always"
     xlink:href="#linearGradient3187"
     id="linearGradient4562"
     gradientUnits="userSpaceOnUse"
     gradientTransform="matrix(2.3189708,0,0,2.0930998,93.115298,-256.84999)"
     x1="123.50603"
     y1="344.03848"
     x2="123.47623"
     y2="254.73526" /><radialGradient
     inkscape:collect="always"
     xlink:href="#linearGradient3171"
     id="radialGradient4569"
     gradientUnits="userSpaceOnUse"
     gradientTransform="matrix(0.9201975,2.7970099e-7,-2.7059634e-7,0.8902438,28.590287,48.634335)"
     cx="373.24265"
     cy="467.91885"
     fx="373.24265"
     fy="467.91885"
     r="333.18735" /><radialGradient
     inkscape:collect="always"
     xlink:href="#linearGradient3157"
     id="radialGradient4572"
     gradientUnits="userSpaceOnUse"
     gradientTransform="matrix(0.9503534,1.1750652e-7,-5.6287062e-8,0.3462676,17.334826,362.44227)"
     cx="373.24265"
     cy="710.99164"
     fx="373.24265"
     fy="710.99164"
     r="333.18735" /><filter
     inkscape:collect="always"
     id="filter4659"
     color-interpolation-filters="sRGB"><feGaussianBlur
       inkscape:collect="always"
       stdDeviation="2.7750933"
       id="feGaussianBlur4661" /></filter><radialGradient
     inkscape:collect="always"
     xlink:href="#linearGradient3157"
     id="radialGradient4766"
     gradientUnits="userSpaceOnUse"
     gradientTransform="matrix(0.9503534,1.1750652e-7,-5.6287062e-8,0.3462676,17.334826,362.44227)"
     cx="373.24265"
     cy="710.99164"
     fx="373.24265"
     fy="710.99164"
     r="333.18735" /><radialGradient
     inkscape:collect="always"
     xlink:href="#linearGradient3171"
     id="radialGradient4768"
     gradientUnits="userSpaceOnUse"
     gradientTransform="matrix(0.9201975,2.7970099e-7,-2.7059634e-7,0.8902438,28.590287,48.634335)"
     cx="373.24265"
     cy="467.91885"
     fx="373.24265"
     fy="467.91885"
     r="333.18735" /><linearGradient
     inkscape:collect="always"
     xlink:href="#linearGradient3187"
     id="linearGradient4770"
     gradientUnits="userSpaceOnUse"
     gradientTransform="matrix(2.3189708,0,0,2.0930998,93.115298,-256.84999)"
     x1="123.50603"
     y1="344.03848"
     x2="123.47623"
     y2="254.73526" /><linearGradient
     inkscape:collect="always"
     xlink:href="#linearGradient3187"
     id="linearGradient4773"
     gradientUnits="userSpaceOnUse"
     gradientTransform="matrix(2.3189708,0,0,2.0930998,93.115298,-256.84999)"
     x1="123.50603"
     y1="344.03848"
     x2="123.47623"
     y2="254.73526" /><radialGradient
     inkscape:collect="always"
     xlink:href="#linearGradient3171"
     id="radialGradient4776"
     gradientUnits="userSpaceOnUse"
     gradientTransform="matrix(0.9201975,2.7970099e-7,-2.7059634e-7,0.8902438,28.590287,48.634335)"
     cx="373.24265"
     cy="467.91885"
     fx="373.24265"
     fy="467.91885"
     r="333.18735" /><radialGradient
     inkscape:collect="always"
     xlink:href="#linearGradient3157"
     id="radialGradient4779"
     gradientUnits="userSpaceOnUse"
     gradientTransform="matrix(0.9503534,1.1750652e-7,-5.6287062e-8,0.3462676,17.334826,362.44227)"
     cx="373.24265"
     cy="710.99164"
     fx="373.24265"
     fy="710.99164"
     r="333.18735" /><radialGradient
     inkscape:collect="always"
     xlink:href="#linearGradient3157"
     id="radialGradient4790"
     gradientUnits="userSpaceOnUse"
     gradientTransform="matrix(0.9503534,1.1750652e-7,-5.6287062e-8,0.3462676,17.334826,362.44227)"
     cx="373.24265"
     cy="710.99164"
     fx="373.24265"
     fy="710.99164"
     r="333.18735" /><radialGradient
     inkscape:collect="always"
     xlink:href="#linearGradient3171"
     id="radialGradient4792"
     gradientUnits="userSpaceOnUse"
     gradientTransform="matrix(0.9201975,2.7970099e-7,-2.7059634e-7,0.8902438,28.590287,48.634335)"
     cx="373.24265"
     cy="467.91885"
     fx="373.24265"
     fy="467.91885"
     r="333.18735" /><linearGradient
     inkscape:collect="always"
     xlink:href="#linearGradient3187"
     id="linearGradient4794"
     gradientUnits="userSpaceOnUse"
     gradientTransform="matrix(2.3189708,0,0,2.0930998,93.115298,-256.84999)"
     x1="123.50603"
     y1="344.03848"
     x2="123.47623"
     y2="254.73526" /><linearGradient
     inkscape:collect="always"
     xlink:href="#linearGradient3187"
     id="linearGradient4799"
     gradientUnits="userSpaceOnUse"
     gradientTransform="matrix(2.3189708,0,0,2.0930998,93.115298,-256.84999)"
     x1="123.50603"
     y1="344.03848"
     x2="123.47623"
     y2="254.73526" /><radialGradient
     inkscape:collect="always"
     xlink:href="#linearGradient3171"
     id="radialGradient4802"
     gradientUnits="userSpaceOnUse"
     gradientTransform="matrix(0.9201975,2.7970099e-7,-2.7059634e-7,0.8902438,28.590287,48.634335)"
     cx="373.24265"
     cy="467.91885"
     fx="373.24265"
     fy="467.91885"
     r="333.18735" /><radialGradient
     inkscape:collect="always"
     xlink:href="#linearGradient3157"
     id="radialGradient4805"
     gradientUnits="userSpaceOnUse"
     gradientTransform="matrix(0.9503534,1.1750652e-7,-5.6287062e-8,0.3462676,17.334826,362.44227)"
     cx="373.24265"
     cy="710.99164"
     fx="373.24265"
     fy="710.99164"
     r="333.18735" /><radialGradient
     inkscape:collect="always"
     xlink:href="#linearGradient3157"
     id="radialGradient4820"
     gradientUnits="userSpaceOnUse"
     gradientTransform="matrix(0.9503534,1.1750652e-7,-5.6287062e-8,0.3462676,17.334826,362.44227)"
     cx="373.24265"
     cy="710.99164"
     fx="373.24265"
     fy="710.99164"
     r="333.18735" /><radialGradient
     inkscape:collect="always"
     xlink:href="#linearGradient3171"
     id="radialGradient4822"
     gradientUnits="userSpaceOnUse"
     gradientTransform="matrix(0.9201975,2.7970099e-7,-2.7059634e-7,0.8902438,28.590287,48.634335)"
     cx="373.24265"
     cy="467.91885"
     fx="373.24265"
     fy="467.91885"
     r="333.18735" /><linearGradient
     inkscape:collect="always"
     xlink:href="#linearGradient3187"
     id="linearGradient4824"
     gradientUnits="userSpaceOnUse"
     gradientTransform="matrix(2.3189708,0,0,2.0930998,93.115298,-256.84999)"
     x1="123.50603"
     y1="344.03848"
     x2="123.47623"
     y2="254.73526" /><linearGradient
     inkscape:collect="always"
     xlink:href="#linearGradient3187"
     id="linearGradient4827"
     gradientUnits="userSpaceOnUse"
     gradientTransform="matrix(2.3189708,0,0,2.0930998,-99.17808,-231.54972)"
     x1="123.50603"
     y1="344.03848"
     x2="123.47623"
     y2="254.73526" /><radialGradient
     inkscape:collect="always"
     xlink:href="#linearGradient5443"
     id="radialGradient4832"
     gradientUnits="userSpaceOnUse"
     gradientTransform="matrix(0.9201975,2.7970099e-7,-2.7059634e-7,0.8902438,-163.70313,61.921561)"
     cx="373.24265"
     cy="467.91885"
     fx="373.24265"
     fy="467.91885"
     r="333.18735" /><radialGradient
     inkscape:collect="always"
     xlink:href="#linearGradient5443"
     id="radialGradient4835"
     gradientUnits="userSpaceOnUse"
     gradientTransform="matrix(0.9503534,1.1750652e-7,-5.6287062e-8,0.3462676,-174.95857,375.55031)"
     cx="373.24265"
     cy="710.99164"
     fx="373.24265"
     fy="710.99164"
     r="333.18735" /><filter
     inkscape:collect="always"
     id="filter5511"
     color-interpolation-filters="sRGB"><feGaussianBlur
       inkscape:collect="always"
       stdDeviation="3.2374974"
       id="feGaussianBlur5513" /></filter><radialGradient
     inkscape:collect="always"
     xlink:href="#linearGradient5443-5"
     id="radialGradient4835-3"
     gradientUnits="userSpaceOnUse"
     gradientTransform="matrix(0.9503534,1.1750652e-7,-5.6287062e-8,0.3462676,317.80591,185.68771)"
     cx="373.24265"
     cy="710.99164"
     fx="373.24265"
     fy="710.99164"
     r="333.18735" /><linearGradient
     id="linearGradient5443-5"><stop
       id="stop5445-4"
       offset="0"
       style="stop-color:#ffffff;stop-opacity:0;" /><stop
       id="stop5447-3"
       offset="1"
       style="stop-color:#000000;stop-opacity:0.33962265;" /></linearGradient><radialGradient
     inkscape:collect="always"
     xlink:href="#linearGradient5443"
     id="radialGradient3272"
     gradientUnits="userSpaceOnUse"
     gradientTransform="matrix(0.9503534,1.1750652e-7,-5.6287062e-8,0.3462676,-174.95857,375.55031)"
     cx="373.24265"
     cy="710.99164"
     fx="373.24265"
     fy="710.99164"
     r="333.18735" /><linearGradient
     inkscape:collect="always"
     xlink:href="#linearGradient3187"
     id="linearGradient3274"
     gradientUnits="userSpaceOnUse"
     gradientTransform="matrix(2.3189708,0,0,2.0930998,-99.17808,-231.54972)"
     x1="123.50603"
     y1="344.03848"
     x2="123.47623"
     y2="254.73526" /><radialGradient
     inkscape:collect="always"
     xlink:href="#linearGradient5443"
     id="radialGradient3276"
     gradientUnits="userSpaceOnUse"
     gradientTransform="matrix(0.9201975,2.7970099e-7,-2.7059634e-7,0.8902438,-163.70313,61.921561)"
     cx="373.24265"
     cy="467.91885"
     fx="373.24265"
     fy="467.91885"
     r="333.18735" /></defs><sodipodi:namedview
   pagecolor="#ffffff"
   bordercolor="#666666"
   borderopacity="1"
   objecttolerance="10"
   gridtolerance="10"
   guidetolerance="10"
   inkscape:pageopacity="0"
   inkscape:pageshadow="2"
   inkscape:window-width="1920"
   inkscape:window-height="1068"
   id="namedview30"
   showgrid="false"
   inkscape:zoom="1.1919192"
   inkscape:cx="133.75412"
   inkscape:cy="191.0225"
   inkscape:window-x="0"
   inkscape:window-y="0"
   inkscape:window-maximized="1"
   inkscape:current-layer="_x31_"
   fit-margin-top="0"
   fit-margin-left="0"
   fit-margin-right="0"
   fit-margin-bottom="0" />
<g
   id="g3277"
   transform="translate(-4.0524846e-6,3.5529445e-6)"><rect
     inkscape:export-ydpi="29.879425"
     inkscape:export-xdpi="29.879425"
     inkscape:export-filename="C:\Documents and Settings\adscro24\Desktop\128.png"
     style="opacity:0.61338286;fill:#464646;fill-opacity:0.78540775;stroke:none;filter:url(#filter4659)"
     id="rect3279"
     width="152.93848"
     height="152.93848"
     x="135.39355"
     y="48.636749"
     rx="16.067965"
     ry="12.45238"
     transform="matrix(2.1051501,0,0,2.1051501,-271.00298,-88.36689)" /><rect
     inkscape:export-ydpi="29.879425"
     inkscape:export-xdpi="29.879425"
     inkscape:export-filename="C:\Documents and Settings\adscro24\Desktop\128.png"
     style="opacity:0.61338286;fill:url(#radialGradient3092);fill-opacity:1;stroke:#000000;stroke-width:3.26806188;stroke-miterlimit:4;stroke-opacity:1;stroke-dasharray:none"
     id="rect3155"
     width="321.95847"
     height="321.95847"
     x="14.020748"
     y="14.020716"
     rx="33.825481"
     ry="26.21413" /><path
     transform="matrix(0.90779502,0,0,0.90779502,11.82035,-259.3651)"
     inkscape:export-ydpi="29.879425"
     inkscape:export-xdpi="29.879425"
     inkscape:export-filename="C:\Documents and Settings\adscro24\Desktop\128.png"
     inkscape:connector-curvature="0"
     style="opacity:0.61338286;fill:url(#linearGradient3734);fill-opacity:1;stroke:none;filter:url(#filter5511)"
     d="m 46.58172,323.34879 c -19.62748,0 -35.44272,12.0976 -35.44272,27.14163 l 0,124.30857 c 29.25482,11.38638 132.70149,11.89599 165.40488,-5.79022 33.32802,-18.02397 127.54379,-68.44264 171.82484,-52.72052 l 0,-65.79783 c 0,-15.04403 -15.7986,-27.14163 -35.4261,-27.14163 l -266.3609,0 z M 11.139,586.81982 l 0,42.88373 c 0,1.33144 0.14331,2.63588 0.38253,3.915 -0.11919,-12.81092 -0.25965,-28.88939 -0.38253,-46.79873 z"
     id="rect3177" /><rect
     inkscape:export-ydpi="29.879425"
     inkscape:export-xdpi="29.879425"
     inkscape:export-filename="C:\Documents and Settings\adscro24\Desktop\128.png"
     style="opacity:0.61338286;fill:url(#radialGradient3088);fill-opacity:1;stroke:#ffffff;stroke-width:0.68992418;stroke-linecap:square;stroke-miterlimit:4;stroke-opacity:1;stroke-dasharray:none"
     id="rect3473"
     width="306.12445"
     height="306.12445"
     x="21.937801"
     y="21.937769"
     rx="32.161926"
     ry="24.924913" /><rect
     inkscape:export-ydpi="29.879425"
     inkscape:export-xdpi="29.879425"
     inkscape:export-filename="C:\Documents and Settings\adscro24\Desktop\128.png"
     style="opacity:0.61338286;fill:#ffffff;fill-opacity:0;stroke:#000000;stroke-width:3.26806188;stroke-miterlimit:4;stroke-opacity:1;stroke-dasharray:none"
     id="rect3155-2"
     width="321.95847"
     height="321.95847"
     x="14.020748"
     y="14.020716"
     rx="33.825481"
     ry="26.21413" /><g
     transform="translate(400.39145,135.8211)"
     style="fill:#000000;fill-opacity:1;stroke:none"
     id="LWPOLYLINE_2_-2">
	
		
</g></g><g
   id="g3285"
   transform="translate(-24.097104,-345.5)"><g
     transform="matrix(0.5,0,0,0.5,45.846,322.75)"
     style="fill:#000000;fill-opacity:1;stroke:none"
     id="LWPOLYLINE_3_">
	
		<path
   inkscape:connector-curvature="0"
   id="polygon13"
   d="m 397.65625,478.5625 -1.71875,0.125 -1.65625,0.125 -1.5625,0.21875 -1.5,0.25 -1.5,0.3125 -1.4375,0.375 -1.34375,0.4375 -1.28125,0.46875 -1.28125,0.53125 -1.1875,0.5625 -1.15625,0.59375 -1.125,0.6875 -1.03125,0.65625 -1,0.78125 -0.96875,0.78125 -0.9375,0.8125 -0.875,0.875 -0.78125,0.875 L 374.5,489 l -0.71875,0.9375 -0.6875,1 -0.625,1.0625 -0.59375,1.03125 -0.5625,1.125 -0.53125,1.09375 -0.46875,1.125 -0.4375,1.15625 -0.40625,1.21875 -0.34375,1.1875 -0.34375,1.25 -0.28125,1.21875 -0.21875,1.28125 -0.25,1.28125 -0.15625,1.3125 -0.15625,1.28125 -0.125,1.3125 -0.0937,1.375 -0.0312,1.3125 0,1.375 0,1.75 0.0937,1.71875 0.15625,1.625 0.15625,1.65625 0.25,1.53125 0.3125,1.53125 0.3125,1.53125 0.40625,1.4375 0.40625,1.34375 0.46875,1.375 0.53125,1.3125 0.5625,1.21875 0.59375,1.21875 0.625,1.15625 0.6875,1.15625 0.71875,1.03125 0.75,1.03125 0.8125,1 0.78125,0.9375 0.875,0.90625 0.90625,0.84375 0.90625,0.8125 0.96875,0.78125 1,0.71875 1,0.65625 1.03125,0.625 1.03125,0.59375 1.09375,0.5625 1.09375,0.5 1.125,0.4375 1.15625,0.4375 1.15625,0.34375 1.21875,0.3125 1.1875,0.28125 1.25,0.25 1.21875,0.21875 1.25,0.15625 1.25,0.0625 1.28125,0.0937 1.28125,0.0312 1.3125,-0.0312 1.21875,-0.0937 1.28125,-0.0625 1.25,-0.15625 1.25,-0.21875 1.21875,-0.25 1.21875,-0.28125 1.1875,-0.3125 1.15625,-0.34375 1.15625,-0.4375 1.125,-0.4375 1.125,-0.5 1.0625,-0.5625 1.03125,-0.59375 1.0625,-0.625 1,-0.65625 1,-0.71875 0.9375,-0.78125 0.9375,-0.8125 0.875,-0.84375 0.875,-0.90625 0.8125,-0.9375 0.78125,-1 0.75,-1.03125 0.71875,-1.03125 0.6875,-1.15625 0.65625,-1.15625 0.59375,-1.21875 0.5625,-1.21875 0.5,-1.3125 0.5,-1.375 0.375,-1.34375 0.40625,-1.4375 0.3125,-1.53125 0.34375,-1.53125 0.1875,-1.53125 0.1875,-1.65625 0.125,-1.625 0.0937,-1.71875 0.0312,-1.75 0,-1.375 -0.0312,-1.3125 -0.0937,-1.375 -0.125,-1.3125 -0.15625,-1.28125 -0.15625,-1.3125 -0.21875,-1.28125 -0.25,-1.28125 -0.28125,-1.21875 -0.3125,-1.25 -0.375,-1.1875 -0.40625,-1.21875 -0.4375,-1.15625 -0.46875,-1.125 -0.53125,-1.09375 -0.53125,-1.125 -0.625,-1.03125 -0.625,-1.0625 -0.6875,-1 L 424.25,489 l -0.78125,-0.96875 -0.8125,-0.875 -0.875,-0.875 -0.9375,-0.8125 -0.9375,-0.78125 -1,-0.78125 -1.03125,-0.65625 -1.125,-0.6875 -1.15625,-0.59375 -1.21875,-0.5625 -1.28125,-0.53125 -1.28125,-0.46875 -1.34375,-0.4375 -1.4375,-0.375 -1.46875,-0.3125 -1.53125,-0.25 -1.5625,-0.21875 -1.625,-0.125 -1.71875,-0.125 -1.75,0 -1.71875,0 z M 399.375,490 l 0.875,0.0312 0.78125,0.0312 0.8125,0.125 0.78125,0.125 0.71875,0.15625 0.78125,0.1875 0.65625,0.21875 0.6875,0.28125 0.6875,0.28125 0.59375,0.3125 0.65625,0.34375 0.53125,0.40625 0.625,0.40625 0.5,0.46875 0.53125,0.5 0.5,0.46875 0.46875,0.5625 0.46875,0.5625 0.4375,0.5625 0.40625,0.625 0.40625,0.65625 0.34375,0.65625 0.3125,0.6875 0.3125,0.71875 0.34375,0.71875 0.28125,0.8125 0.28125,0.75 0.21875,0.84375 0.21875,0.78125 0.1875,0.90625 0.1875,0.875 0.1875,0.875 0.15625,0.90625 0.125,0.9375 0.0625,0.9375 0.0937,0.96875 0.0625,1 0.0312,1 0.0625,1 0,1.03125 0,0.875 -0.0625,0.84375 -0.0312,0.875 -0.0312,0.84375 -0.0937,0.84375 -0.0625,0.84375 -0.125,0.84375 -0.125,0.8125 -0.15625,0.84375 -0.15625,0.8125 -0.15625,0.78125 -0.21875,0.8125 -0.21875,0.75 -0.25,0.78125 -0.28125,0.75 -0.28125,0.71875 -0.28125,0.71875 -0.3125,0.6875 -0.375,0.65625 -0.375,0.6875 -0.375,0.59375 -0.4375,0.65625 -0.4375,0.5625 -0.46875,0.59375 -0.5,0.53125 -0.5,0.5 -0.53125,0.46875 -0.59375,0.46875 -0.5625,0.4375 -0.625,0.375 -0.65625,0.375 -0.6875,0.3125 -0.65625,0.28125 -0.78125,0.25 -0.75,0.21875 -0.75,0.1875 -0.84375,0.15625 -0.84375,0.0937 -0.875,0.0625 -0.90625,0.0312 -0.90625,-0.0312 -0.875,-0.0625 -0.84375,-0.0937 -0.8125,-0.15625 -0.78125,-0.1875 -0.75,-0.21875 -0.75,-0.25 -0.6875,-0.28125 -0.6875,-0.3125 -0.625,-0.375 -0.65625,-0.375 -0.5625,-0.4375 -0.59375,-0.46875 -0.5,-0.46875 -0.53125,-0.5 -0.46875,-0.53125 -0.5,-0.59375 -0.4375,-0.5625 -0.4375,-0.65625 -0.40625,-0.59375 -0.34375,-0.6875 -0.375,-0.65625 -0.3125,-0.6875 -0.28125,-0.71875 -0.3125,-0.71875 -0.25,-0.75 -0.21875,-0.78125 -0.25,-0.75 -0.1875,-0.8125 -0.1875,-0.78125 -0.15625,-0.8125 -0.15625,-0.84375 -0.125,-0.8125 -0.0937,-0.84375 -0.0937,-0.84375 -0.0937,-0.84375 -0.0312,-0.84375 -0.0312,-0.875 -0.0312,-0.84375 0,-0.875 0,-1.03125 0.0312,-1 0.0312,-1 0.0937,-1 0.0625,-0.96875 0.0937,-0.9375 0.125,-0.9375 0.15625,-0.90625 0.15625,-0.875 0.1875,-0.875 0.21875,-0.90625 0.1875,-0.78125 0.25,-0.84375 0.28125,-0.75 0.28125,-0.8125 0.28125,-0.71875 0.34375,-0.71875 0.3125,-0.6875 0.375,-0.65625 0.40625,-0.65625 0.375,-0.625 0.4375,-0.5625 0.5,-0.5625 0.4375,-0.5625 0.5,-0.46875 0.53125,-0.5 0.53125,-0.46875 0.59375,-0.40625 0.5625,-0.40625 0.625,-0.34375 0.59375,-0.3125 0.6875,-0.28125 0.6875,-0.28125 0.6875,-0.21875 0.75,-0.1875 0.71875,-0.15625 0.8125,-0.125 0.78125,-0.125 0.8125,-0.0312 L 399.375,490 z"
   style="fill:#000000;fill-opacity:1;stroke:none" />
</g><g
     transform="matrix(0.5,0,0,0.5,45.846,322.75)"
     style="fill:#000000;fill-opacity:1;stroke:none"
     id="LWPOLYLINE_5_">
	
		<path
   inkscape:connector-curvature="0"
   id="polygon19"
   d="m 490.21875,548.9375 -1.84375,0.0312 -1.71875,0.0625 -1.65625,0.1875 -1.65625,0.1875 -1.5625,0.28125 -1.5,0.34375 -1.4375,0.375 -1.375,0.4375 -1.3125,0.46875 -1.28125,0.5625 -1.25,0.59375 -1.15625,0.625 -1.0625,0.71875 -1.09375,0.71875 -1,0.75 -0.9375,0.78125 -0.875,0.84375 -0.90625,0.875 -0.78125,0.9375 -0.75,0.96875 -0.71875,0.9375 -0.6875,1.03125 -0.59375,1.0625 -0.625,1.0625 -0.5,1.09375 -0.53125,1.125 -0.4375,1.15625 -0.4375,1.15625 -0.34375,1.15625 -0.375,1.1875 -0.28125,1.25 -0.28125,1.21875 -0.21875,1.25 -0.21875,1.25 -0.15625,1.28125 -0.125,1.28125 -0.125,1.25 -0.0625,1.28125 -0.0312,1.28125 0,1.28125 0.0312,1.84375 0.0625,1.75 0.125,1.71875 0.15625,1.65625 0.25,1.59375 0.28125,1.5625 0.3125,1.5 0.375,1.5 0.375,1.375 0.4375,1.375 0.53125,1.3125 0.53125,1.25 0.59375,1.21875 0.59375,1.15625 0.6875,1.125 0.6875,1.09375 0.75,1 0.75,1 0.8125,0.90625 0.84375,0.875 0.875,0.84375 0.90625,0.8125 0.96875,0.71875 0.9375,0.71875 1,0.625 1.0625,0.59375 1.03125,0.59375 1.125,0.53125 1.0625,0.46875 1.15625,0.4375 1.15625,0.375 1.21875,0.34375 1.1875,0.34375 1.25,0.28125 1.21875,0.1875 1.28125,0.1875 1.28125,0.125 1.3125,0.125 1.34375,0.0312 1.34375,0.0625 1.28125,-0.0625 1.28125,-0.0312 1.25,-0.125 1.21875,-0.125 1.25,-0.1875 1.1875,-0.1875 1.21875,-0.28125 1.15625,-0.34375 1.15625,-0.34375 1.125,-0.375 1.0625,-0.4375 1.125,-0.46875 1.03125,-0.53125 1.03125,-0.59375 1,-0.59375 1,-0.625 0.9375,-0.71875 0.90625,-0.71875 0.90625,-0.8125 0.84375,-0.84375 0.84375,-0.875 0.8125,-0.90625 0.75,-1 0.71875,-1 0.6875,-1.09375 0.625,-1.125 0.65625,-1.15625 0.5625,-1.21875 0.5625,-1.25 0.46875,-1.3125 0.4375,-1.375 0.40625,-1.375 0.34375,-1.5 0.3125,-1.5 0.28125,-1.5625 0.25,-1.59375 0.15625,-1.65625 0.125,-1.71875 0.0937,-1.75 0.0312,-1.84375 0,-1.28125 -0.0312,-1.28125 -0.0937,-1.28125 -0.125,-1.25 -0.125,-1.28125 -0.15625,-1.28125 -0.1875,-1.25 -0.25,-1.25 -0.28125,-1.21875 -0.28125,-1.25 -0.3125,-1.1875 -0.40625,-1.15625 -0.40625,-1.15625 -0.4375,-1.15625 -0.5,-1.125 -0.53125,-1.09375 -0.5625,-1.0625 -0.59375,-1.0625 -0.6875,-1.03125 -0.65625,-0.9375 -0.78125,-0.96875 -0.78125,-0.9375 -0.84375,-0.875 -0.875,-0.84375 -0.9375,-0.78125 -1,-0.75 -1,-0.71875 -1.0625,-0.71875 -1.125,-0.625 -1.1875,-0.59375 -1.25,-0.5625 -1.28125,-0.46875 -1.34375,-0.4375 -1.40625,-0.375 -1.4375,-0.34375 -1.53125,-0.28125 -1.53125,-0.1875 -1.65625,-0.1875 -1.6875,-0.0625 -1.75,-0.0312 z m -0.84375,11.46875 0.84375,0 0.75,0 0.8125,0.0625 0.71875,0.0937 0.71875,0.125 0.71875,0.15625 0.6875,0.1875 0.625,0.25 0.65625,0.21875 0.625,0.28125 0.59375,0.375 0.5625,0.34375 0.5625,0.375 0.5625,0.4375 0.53125,0.4375 0.46875,0.46875 0.46875,0.53125 0.4375,0.53125 0.4375,0.53125 0.40625,0.625 0.40625,0.59375 0.40625,0.625 0.3125,0.6875 0.375,0.6875 0.3125,0.71875 0.28125,0.75 0.28125,0.75 0.21875,0.8125 0.25,0.78125 0.25,0.84375 0.1875,0.84375 0.15625,0.875 0.15625,0.875 0.125,0.9375 0.125,0.90625 0.125,0.96875 0.0625,0.96875 0.0937,1 0.0312,1 0.0312,1.03125 0,1.03125 0,0.84375 -0.0312,0.875 -0.0312,0.84375 -0.0312,0.84375 -0.0625,0.875 -0.0625,0.84375 -0.0937,0.84375 -0.125,0.78125 -0.0937,0.84375 -0.1875,0.8125 -0.15625,0.78125 -0.15625,0.8125 -0.1875,0.75 -0.21875,0.75 -0.21875,0.78125 -0.28125,0.71875 -0.28125,0.71875 -0.28125,0.71875 -0.3125,0.625 -0.34375,0.6875 -0.375,0.625 -0.375,0.59375 -0.4375,0.625 -0.4375,0.5625 -0.4375,0.5 -0.46875,0.53125 -0.53125,0.46875 -0.5625,0.4375 -0.5625,0.4375 -0.59375,0.40625 -0.59375,0.375 -0.6875,0.3125 -0.6875,0.28125 -0.71875,0.28125 -0.71875,0.1875 -0.78125,0.1875 -0.8125,0.125 -0.84375,0.125 -0.875,0.0937 -0.875,0 -0.96875,0 -0.9375,-0.0937 -0.875,-0.125 -0.84375,-0.125 -0.84375,-0.1875 -0.8125,-0.1875 -0.75,-0.28125 -0.71875,-0.28125 -0.6875,-0.3125 -0.625,-0.375 -0.65625,-0.40625 -0.59375,-0.4375 -0.5625,-0.4375 -0.5625,-0.46875 -0.5,-0.53125 -0.5,-0.5 -0.4375,-0.5625 -0.4375,-0.625 -0.375,-0.59375 -0.40625,-0.625 -0.375,-0.6875 -0.3125,-0.625 -0.3125,-0.71875 -0.28125,-0.71875 -0.28125,-0.71875 -0.25,-0.78125 -0.1875,-0.75 -0.21875,-0.75 -0.1875,-0.8125 -0.15625,-0.78125 -0.15625,-0.8125 -0.125,-0.84375 -0.0937,-0.78125 -0.0937,-0.84375 -0.0937,-0.84375 -0.0312,-0.875 -0.0625,-0.84375 -0.0312,-0.84375 -0.0312,-0.875 0,-0.84375 0,-1.03125 0.0312,-1.03125 0.0312,-1 0.0937,-1 0.0937,-0.96875 0.0937,-0.96875 0.125,-0.90625 0.125,-0.9375 0.15625,-0.875 0.21875,-0.875 0.1875,-0.84375 0.1875,-0.84375 0.25,-0.78125 0.28125,-0.8125 0.28125,-0.75 0.3125,-0.75 0.3125,-0.71875 0.375,-0.6875 0.34375,-0.6875 0.375,-0.625 0.4375,-0.59375 0.40625,-0.625 0.46875,-0.53125 0.46875,-0.53125 0.5,-0.53125 0.5,-0.46875 0.5625,-0.4375 0.5625,-0.4375 0.59375,-0.375 0.625,-0.34375 0.625,-0.375 0.625,-0.28125 0.6875,-0.21875 0.71875,-0.25 0.71875,-0.1875 0.78125,-0.15625 0.75,-0.125 0.78125,-0.0937 0.84375,-0.0625 z"
   style="fill:#000000;fill-opacity:1;stroke:none" />
</g><g
     transform="matrix(0.5,0,0,0.5,45.846,322.75)"
     style="fill:#000000;fill-opacity:1;stroke:none"
     id="LWPOLYLINE_7_">
	
		<path
   inkscape:connector-curvature="0"
   style="fill:#000000;fill-opacity:1;stroke:none"
   id="path25"
   d="m 406.752,623.404 0.16,-0.281 0.479,-0.838 0.759,-1.279 1.039,-1.797 1.278,-2.238 1.559,-2.678 1.758,-3.037 1.998,-3.436 2.158,-3.756 2.357,-4.076 2.517,-4.354 2.678,-4.595 2.797,-4.835 2.877,-4.995 3.036,-5.194 3.077,-5.354 3.156,-5.434 3.196,-5.514 3.237,-5.595 3.236,-5.594 3.276,-5.634 3.196,-5.554 3.236,-5.555 3.157,-5.434 3.076,-5.314 2.997,-5.194 2.917,-5.034 2.797,-4.835 2.637,-4.596 2.518,-4.354 2.357,-4.036 2.197,-3.756 1.998,-3.437 1.758,-3.036 1.519,-2.678 1.318,-2.237 1.039,-1.798 0.76,-1.318 0.479,-0.8 0.159,-0.279 c -0.119,0 -0.239,0 -0.239,0 -0.16,0 -0.319,0 -0.319,0 h -0.24 -0.279 -0.28 -0.359 -0.359 -0.36 -0.399 -0.439 -0.439 -0.439 -0.479 -0.479 -0.479 -0.479 -0.479 -0.479 -0.52 -0.479 -0.479 -0.439 -0.479 -0.439 -0.399 -0.399 -0.399 -0.36 -0.319 -0.279 -0.28 -0.239 c -0.2,0 -0.359,0 -0.359,0 -0.16,0 -0.2,0 -0.2,0 l -0.16,0.279 -0.479,0.8 -0.759,1.318 -1.039,1.798 -1.278,2.237 -1.559,2.678 -1.758,3.036 -1.998,3.437 -2.157,3.756 -2.358,4.036 -2.517,4.354 -2.678,4.596 -2.797,4.835 -2.917,5.034 -2.996,5.194 -3.077,5.314 -3.156,5.434 -3.196,5.555 -3.237,5.554 -3.236,5.634 -3.276,5.594 -3.236,5.595 -3.196,5.514 -3.157,5.434 -3.076,5.354 -2.997,5.194 -2.917,4.995 -2.797,4.835 -2.677,4.595 -2.518,4.354 -2.357,4.076 -2.157,3.756 -1.998,3.436 -1.758,3.037 -1.559,2.678 -1.278,2.238 -1.039,1.797 -0.76,1.279 -0.479,0.838 -0.159,0.281 h 13.093 z"
   stroke-miterlimit="10" />
</g><g
     transform="matrix(0.5,0,0,0.5,45.846,322.75)"
     style="fill:#000000;fill-opacity:1;stroke:none"
     id="LWPOLYLINE_8_">
	
		<path
   inkscape:connector-curvature="0"
   id="polygon28"
   d="m 130.15,444.996 0,108.004 -38.458,0 49.107,92.5 48.268,-92.5 -37.639,0 0,-108.004 z"
   style="fill:#000000;fill-opacity:1;stroke:none" />
</g><g
     transform="matrix(0.5,0,0,0.5,45.846,322.75)"
     style="fill:#000000;fill-opacity:1;stroke:none"
     id="LWPOLYLINE_2_">
	
		<path
   inkscape:connector-curvature="0"
   id="polygon10"
   d="m 328.1875,145.5 0,48.28125 -233.21875,0 0,24.53125 233.21875,0 0,96.5625 -233.21875,0 0,23.75 233.21875,0 0,48.28125 96.53125,0 0,-48.28125 48.3125,0 0,-144.84375 -48.3125,0 0,-48.28125 -96.53125,0 z m 24.53125,24.5625 46.65625,0 0,192.28125 -46.65625,0 0,-192.28125 z m 72,47.4375 22.9375,0 0,96.5625 -22.9375,0 0,-96.5625 z"
   style="fill:#000000;fill-opacity:1;stroke:none" />
</g></g><g
   id="LWPOLYLINE"
   transform="matrix(0.5,0,0,0.5,-111.57046,43.272494)">
	
		
</g><g
   id="LWPOLYLINE_1_"
   transform="matrix(0.5,0,0,0.5,-111.57046,43.272494)">
	
		
</g><g
   id="LWPOLYLINE_4_"
   transform="matrix(0.5,0,0,0.5,-111.57046,43.272494)">
	
		
</g><g
   id="LWPOLYLINE_6_"
   transform="matrix(0.5,0,0,0.5,-111.57046,43.272494)">
	
		
</g>








</svg>