<?xml version="1.0" encoding="UTF-8" standalone="no"?>
<!-- Generator: Adobe Illustrator 16.0.1, SVG Export Plug-In . SVG Version: 6.00 Build 0)  -->

<svg
   xmlns:dc="http://purl.org/dc/elements/1.1/"
   xmlns:cc="http://creativecommons.org/ns#"
   xmlns:rdf="http://www.w3.org/1999/02/22-rdf-syntax-ns#"
   xmlns:svg="http://www.w3.org/2000/svg"
   xmlns="http://www.w3.org/2000/svg"
   xmlns:sodipodi="http://sodipodi.sourceforge.net/DTD/sodipodi-0.dtd"
   xmlns:inkscape="http://www.inkscape.org/namespaces/inkscape"
   version="1.0"
   id="_x31_"
   x="0px"
   y="0px"
   width="612px"
   height="792px"
   viewBox="0 0 612 792"
   enable-background="new 0 0 612 792"
   xml:space="preserve"
   inkscape:version="0.48.2 r9819"
   sodipodi:docname="7071.svg"><metadata
   id="metadata19"><rdf:RDF><cc:Work
       rdf:about=""><dc:format>image/svg+xml</dc:format><dc:type
         rdf:resource="http://purl.org/dc/dcmitype/StillImage" /></cc:Work></rdf:RDF></metadata><defs
   id="defs17" /><sodipodi:namedview
   pagecolor="#ffffff"
   bordercolor="#666666"
   borderopacity="1"
   objecttolerance="10"
   gridtolerance="10"
   guidetolerance="10"
   inkscape:pageopacity="0"
   inkscape:pageshadow="2"
   inkscape:window-width="1920"
   inkscape:window-height="1073"
   id="namedview15"
   showgrid="false"
   inkscape:zoom="0.84281414"
   inkscape:cx="295.37305"
   inkscape:cy="231.41961"
   inkscape:window-x="0"
   inkscape:window-y="0"
   inkscape:window-maximized="1"
   inkscape:current-layer="_x31_" />
<g
   id="LWPOLYLINE"
   style="stroke:none;fill:#000000;fill-opacity:1">
	
		<path
   style="stroke:none;fill:#000000;fill-opacity:1"
   d="M 27.96875 203.0625 C 27.69375 203.0565 27.6875 587.9375 27.6875 587.9375 L 28.5625 587.9375 L 29.15625 587.9375 L 30 587.9375 L 30.90625 587.9375 L 32.03125 587.9375 L 33.21875 587.9375 L 34.5 587.9375 L 36 587.9375 L 37.5 587.9375 L 39.125 587.9375 L 40.8125 587.9375 L 42.625 587.9375 L 44.40625 587.9375 L 46.3125 587.9375 L 48.25 587.9375 L 50.1875 587.9375 L 52.15625 587.9375 L 54.125 587.9375 L 56.125 587.9375 L 58.09375 587.9375 L 60.03125 587.9375 L 61.96875 587.9375 L 63.8125 587.9375 L 65.65625 587.9375 L 67.4375 587.9375 L 69.15625 587.9375 L 70.75 587.9375 L 72.28125 587.9375 L 73.71875 587.9375 L 75.0625 587.9375 L 76.25 587.9375 L 77.34375 587.9375 L 78.28125 587.9375 L 79.0625 587.9375 L 79.6875 587.9375 L 80.4375 587.9375 C 80.5295 587.6605 80.53125 586.65625 80.53125 586.65625 L 80.53125 585.1875 L 80.53125 583.15625 L 80.53125 580.5625 L 80.53125 577.53125 L 80.53125 574.03125 L 80.53125 570.0625 L 80.53125 565.75 L 80.53125 561.125 L 80.53125 556.15625 L 80.53125 550.8125 L 80.53125 545.28125 L 80.53125 539.5625 L 80.53125 533.59375 L 80.53125 527.5 L 80.53125 521.25 L 80.53125 514.90625 L 80.53125 508.53125 L 80.53125 502.09375 L 80.53125 495.625 L 80.53125 489.28125 L 80.53125 482.9375 L 80.53125 476.65625 L 80.53125 470.59375 L 80.53125 464.59375 L 80.53125 458.875 L 80.53125 453.34375 L 80.53125 448.09375 L 80.53125 443.03125 L 80.53125 438.4375 L 80.53125 434.09375 L 80.53125 430.1875 L 80.53125 426.6875 L 80.53125 423.65625 L 80.53125 421.0625 L 80.53125 419 L 80.53125 417.53125 L 80.53125 416.5625 C 80.99225 416.2895 81.53125 416.28125 81.53125 416.28125 L 82.28125 416.28125 L 83.1875 416.28125 L 84.3125 416.28125 L 85.59375 416.28125 L 87.03125 416.28125 L 88.59375 416.28125 L 90.25 416.28125 L 92.09375 416.28125 L 93.96875 416.28125 L 96 416.28125 L 98.0625 416.28125 L 100.25 416.28125 L 102.4375 416.28125 L 104.71875 416.28125 L 107 416.28125 L 109.3125 416.28125 L 111.65625 416.28125 L 114 416.28125 L 116.3125 416.28125 L 118.625 416.28125 L 120.875 416.28125 L 123.09375 416.28125 L 125.25 416.28125 L 127.3125 416.28125 L 129.34375 416.28125 L 131.25 416.28125 L 133.09375 416.28125 L 134.75 416.28125 L 136.3125 416.28125 L 137.75 416.28125 L 139.03125 416.28125 L 140.125 416.28125 L 141.0625 416.28125 L 141.78125 416.28125 L 142.34375 416.28125 C 142.80475 416.28125 147.8125 416.21875 147.8125 416.21875 L 152.71875 416.125 L 157.40625 416.03125 L 162 415.84375 L 166.46875 415.625 L 170.8125 415.40625 L 175 415.0625 L 179.0625 414.71875 L 182.96875 414.28125 L 186.78125 413.875 L 190.46875 413.375 L 194.0625 412.8125 L 197.53125 412.28125 L 200.84375 411.625 L 204.125 410.96875 L 207.25 410.28125 L 210.25 409.5625 L 213.1875 408.78125 L 216 407.9375 L 218.75 407.0625 L 221.375 406.125 L 223.90625 405.21875 L 226.40625 404.25 L 228.8125 403.1875 L 231.09375 402.1875 L 233.3125 401.0625 L 235.46875 399.9375 L 237.5625 398.78125 L 239.5625 397.5625 L 241.5 396.375 L 243.34375 395.09375 L 245.1875 393.78125 L 246.9375 392.46875 L 248.65625 391.125 L 250.3125 389.6875 L 251.9375 388.28125 L 253.5 386.84375 L 254.96875 385.375 L 256.4375 383.84375 L 257.90625 382.28125 L 259.4375 380.71875 L 260.90625 379.15625 L 262.375 377.53125 L 263.75 375.96875 L 265.15625 374.3125 L 266.46875 372.6875 L 267.78125 371.03125 L 269 369.375 L 270.21875 367.71875 L 271.375 366.03125 L 272.46875 364.3125 L 273.5625 362.625 L 274.59375 360.875 L 275.59375 359.125 L 276.5625 357.375 L 277.5 355.5625 L 278.375 353.78125 L 279.1875 351.96875 L 280.03125 350.1875 L 280.75 348.34375 L 281.5 346.5 L 282.1875 344.65625 L 282.84375 342.75 L 283.4375 340.875 L 283.96875 338.9375 L 284.53125 337.0625 L 285.03125 335.125 L 285.46875 333.1875 L 285.90625 331.1875 L 286.28125 329.21875 L 286.59375 327.25 L 286.9375 325.25 L 287.21875 323.21875 L 287.4375 321.1875 L 287.625 319.125 L 287.8125 317.09375 L 287.90625 315.03125 L 288 312.90625 L 288.03125 310.84375 L 288.09375 308.71875 L 288.09375 306.59375 L 288.03125 304.5 L 287.9375 302.375 L 287.84375 300.28125 L 287.71875 298.21875 L 287.53125 296.09375 L 287.34375 294.0625 L 287.125 292 L 286.875 289.9375 L 286.5625 287.90625 L 286.25 285.875 L 285.875 283.84375 L 285.5 281.875 L 285.03125 279.84375 L 284.59375 277.875 L 284.0625 275.875 L 283.5625 273.9375 L 282.96875 272.03125 L 282.375 270.09375 L 281.71875 268.15625 L 281.03125 266.25 L 280.3125 264.375 L 279.5 262.46875 L 278.6875 260.625 L 277.84375 258.78125 L 276.9375 256.9375 L 276 255.15625 L 275.0625 253.34375 L 274.03125 251.5625 L 272.96875 249.8125 L 271.8125 248.0625 L 270.65625 246.34375 L 269.46875 244.65625 L 268.21875 242.9375 L 266.9375 241.28125 L 265.59375 239.625 L 264.21875 238.03125 L 262.78125 236.40625 L 261.3125 234.8125 L 259.75 233.21875 L 257.90625 231.15625 L 256.03125 229.21875 L 254.125 227.34375 L 252.1875 225.53125 L 250.21875 223.84375 L 248.1875 222.21875 L 246.15625 220.6875 L 244.09375 219.21875 L 241.96875 217.875 L 239.84375 216.59375 L 237.6875 215.40625 L 235.46875 214.25 L 233.21875 213.1875 L 230.90625 212.1875 L 228.625 211.25 L 226.21875 210.375 L 223.8125 209.59375 L 221.375 208.875 L 218.90625 208.1875 L 216.375 207.53125 L 213.84375 206.96875 L 211.21875 206.46875 L 208.53125 205.96875 L 205.875 205.53125 L 203.09375 205.125 L 200.34375 204.8125 L 197.46875 204.5 L 194.5625 204.25 L 191.6875 203.96875 L 188.6875 203.8125 L 185.65625 203.625 L 182.5625 203.46875 L 179.4375 203.375 L 176.25 203.28125 L 173.03125 203.1875 L 169.71875 203.15625 L 166.375 203.09375 L 162.96875 203.0625 L 159.53125 203.0625 L 156.03125 203.0625 L 155.09375 203.0625 L 153.9375 203.0625 L 152.4375 203.0625 L 150.5 203.0625 L 148.1875 203.0625 L 145.625 203.0625 L 142.65625 203.0625 L 139.4375 203.0625 L 135.9375 203.0625 L 132.25 203.0625 L 128.28125 203.0625 L 124.15625 203.0625 L 119.875 203.0625 L 115.40625 203.0625 L 110.84375 203.0625 L 106.1875 203.0625 L 101.4375 203.0625 L 96.65625 203.0625 L 91.84375 203.0625 L 87.0625 203.0625 L 82.28125 203.0625 L 77.53125 203.0625 L 72.875 203.0625 L 68.3125 203.0625 L 63.84375 203.0625 L 59.5625 203.0625 L 55.4375 203.0625 L 51.46875 203.0625 L 47.78125 203.0625 L 44.28125 203.0625 L 41.0625 203.0625 L 38.09375 203.0625 L 35.53125 203.0625 L 33.21875 203.0625 L 31.28125 203.0625 L 29.78125 203.0625 L 28.65625 203.0625 L 27.96875 203.0625 z M 80.53125 246.4375 L 81.09375 246.4375 L 81.71875 246.4375 L 82.59375 246.4375 L 83.71875 246.4375 L 85 246.4375 L 86.53125 246.4375 L 88.1875 246.4375 L 90.0625 246.4375 L 92.03125 246.4375 L 94.15625 246.4375 L 96.40625 246.4375 L 98.8125 246.4375 L 101.25 246.4375 L 103.84375 246.4375 L 106.46875 246.4375 L 109.125 246.4375 L 111.84375 246.4375 L 114.5625 246.4375 L 117.34375 246.4375 L 120.09375 246.4375 L 122.8125 246.4375 L 125.53125 246.4375 L 128.1875 246.4375 L 130.8125 246.4375 L 133.40625 246.4375 L 135.84375 246.4375 L 138.25 246.4375 L 140.5 246.4375 L 142.625 246.4375 L 144.59375 246.4375 L 146.5 246.4375 L 148.15625 246.4375 L 149.65625 246.4375 L 150.96875 246.4375 L 152.0625 246.4375 L 152.9375 246.4375 L 153.59375 246.4375 L 154.125 246.4375 L 156.3125 246.4375 L 158.5 246.4375 L 160.8125 246.5 L 163.15625 246.53125 L 165.5625 246.59375 L 168 246.6875 L 170.53125 246.78125 L 173.03125 246.9375 L 175.59375 247.125 L 178.125 247.40625 L 180.71875 247.6875 L 183.28125 248.09375 L 185.875 248.53125 L 188.4375 249.03125 L 191.03125 249.625 L 193.5625 250.3125 L 196.09375 251.09375 L 198.59375 251.96875 L 201.03125 252.9375 L 203.40625 254 L 205.78125 255.1875 L 208.03125 256.5 L 210.25 257.90625 L 212.40625 259.46875 L 214.46875 261.1875 L 216.46875 263.03125 L 218.34375 265 L 220.09375 267.1875 L 221.8125 269.46875 L 223.375 271.90625 L 224.84375 274.53125 L 226.125 277.34375 L 227.3125 280.34375 L 228.375 283.53125 L 229.3125 286.875 L 230.09375 290.46875 L 230.6875 294.25 L 231.09375 298.21875 L 231.375 302.40625 L 231.46875 306.8125 L 231.375 311.375 L 231.09375 315.71875 L 230.59375 319.875 L 229.9375 323.8125 L 229.125 327.5625 L 228.15625 331.0625 L 227 334.40625 L 225.71875 337.59375 L 224.25 340.59375 L 222.6875 343.40625 L 220.9375 346.0625 L 219.09375 348.5625 L 217.15625 350.875 L 215.0625 353.03125 L 212.875 355.0625 L 210.59375 356.9375 L 208.21875 358.6875 L 205.71875 360.3125 L 203.1875 361.8125 L 200.5625 363.21875 L 197.90625 364.4375 L 195.125 365.5625 L 192.375 366.625 L 189.5 367.53125 L 186.59375 368.375 L 183.71875 369.09375 L 180.71875 369.78125 L 177.75 370.34375 L 174.78125 370.84375 L 171.78125 371.3125 L 168.78125 371.625 L 165.78125 371.96875 L 162.8125 372.25 L 159.84375 372.40625 L 156.90625 372.5625 L 154 372.6875 L 151.15625 372.78125 L 148.28125 372.84375 L 145.53125 372.84375 L 142.8125 372.84375 L 141.78125 372.84375 L 141.0625 372.84375 L 140.125 372.84375 L 139.03125 372.84375 L 137.75 372.84375 L 136.3125 372.84375 L 134.75 372.84375 L 133.09375 372.84375 L 131.25 372.84375 L 129.34375 372.84375 L 127.34375 372.84375 L 125.25 372.84375 L 123.09375 372.84375 L 120.875 372.84375 L 118.625 372.84375 L 116.3125 372.84375 L 114.03125 372.84375 L 111.65625 372.84375 L 109.3125 372.84375 L 107.03125 372.84375 L 104.71875 372.84375 L 102.46875 372.84375 L 100.25 372.84375 L 98.09375 372.84375 L 96 372.84375 L 93.96875 372.84375 L 92.09375 372.84375 L 90.25 372.84375 L 88.59375 372.84375 L 87.03125 372.84375 L 85.59375 372.84375 L 84.3125 372.84375 L 83.1875 372.84375 L 82.28125 372.84375 L 81.53125 372.84375 L 81 372.84375 C 80.538 372.84475 80.53125 246.4375 80.53125 246.4375 z "
   id="path4" />
</g>
<g
   id="LWPOLYLINE_1_">
	
		
</g>
<g
   id="LWPOLYLINE_2_"
   style="stroke:none;fill:#000000;fill-opacity:1">
	
		<path
   style="fill:#000000;stroke:none;stroke-width:0.70870000000000000;stroke-linecap:round;stroke-linejoin:round;stroke-miterlimit:10;fill-opacity:1"
   d="M 442.8125 195.5 L 438.65625 195.59375 L 434.5 195.8125 L 430.28125 196.21875 L 426.125 196.78125 L 421.90625 197.53125 L 417.65625 198.34375 L 413.40625 199.40625 L 409.1875 200.5625 L 405.03125 201.90625 L 400.78125 203.3125 L 396.65625 204.9375 L 392.59375 206.75 L 388.53125 208.625 L 384.5 210.65625 L 380.53125 212.8125 L 376.65625 215.125 L 372.78125 217.5625 L 369.09375 220.15625 L 365.40625 222.84375 L 361.90625 225.71875 L 358.40625 228.65625 L 355.09375 231.75 L 351.875 234.96875 L 348.75 238.28125 L 345.8125 241.75 L 343.03125 245.34375 L 340.28125 249.03125 L 337.78125 252.84375 L 335.375 256.75 L 333.1875 260.78125 L 331.15625 264.90625 L 329.3125 269.15625 L 327.65625 273.53125 L 326.28125 278 L 324.96875 282.5625 L 323.96875 287.21875 L 323.125 291.9375 L 322.5 296.84375 L 322.125 301.75 L 322.03125 306.8125 L 322.125 313.65625 L 322.5 320.3125 L 322.9375 326.78125 L 323.6875 333.03125 L 324.59375 339.125 L 325.71875 345.03125 L 327 350.71875 L 328.375 356.25 L 330.03125 361.59375 L 331.875 366.75 L 333.8125 371.71875 L 335.9375 376.53125 L 338.25 381.125 L 340.625 385.59375 L 343.21875 389.84375 L 345.96875 393.9375 L 348.84375 397.8125 L 351.78125 401.53125 L 354.90625 405.0625 L 358.15625 408.5 L 361.46875 411.65625 L 364.96875 414.71875 L 368.46875 417.5625 L 372.15625 420.21875 L 375.9375 422.78125 L 379.78125 425.125 L 383.75 427.28125 L 387.8125 429.3125 L 391.84375 431.15625 L 396.09375 432.84375 L 400.34375 434.375 L 404.65625 435.71875 L 409 436.90625 L 413.40625 437.96875 L 417.9375 438.8125 L 422.4375 439.53125 L 427.0625 440.09375 L 431.5625 440.4375 L 436.25 440.6875 L 440.875 440.78125 L 443.1875 440.78125 L 445.46875 440.6875 L 447.78125 440.59375 L 450.09375 440.4375 L 452.46875 440.3125 L 454.78125 440.09375 L 457.1875 439.8125 L 459.46875 439.5 L 461.875 439.125 L 464.28125 438.6875 L 466.65625 438.1875 L 469.0625 437.6875 L 471.4375 437.09375 L 473.75 436.40625 L 476.15625 435.71875 L 478.5625 434.9375 L 480.84375 434.0625 L 483.15625 433.1875 L 485.5625 432.15625 L 487.84375 431.09375 L 490.15625 429.9375 L 492.375 428.75 L 494.65625 427.46875 L 496.875 426.125 L 499.09375 424.65625 L 501.21875 423.125 L 503.40625 421.46875 L 505.53125 419.78125 L 507.5625 417.96875 L 509.59375 416.09375 L 511.625 414.09375 L 513.5625 412.03125 L 515.5 409.875 L 517.4375 407.5625 L 519.28125 405.21875 L 521.03125 402.71875 L 522.78125 400.15625 L 524.4375 397.4375 L 526.09375 394.625 L 527.65625 391.71875 L 527.65625 400.09375 L 527.5625 408.21875 L 527.28125 416.09375 L 527 423.71875 L 526.625 431.09375 L 526.1875 438.28125 L 525.625 445.15625 L 525.0625 451.875 L 524.34375 458.3125 L 523.5 464.5 L 522.59375 470.5 L 521.5625 476.28125 L 520.375 481.8125 L 519.1875 487.15625 L 517.78125 492.21875 L 516.40625 497.09375 L 514.84375 501.71875 L 513.1875 506.125 L 511.4375 510.375 L 509.5 514.34375 L 507.5625 518.125 L 505.34375 521.71875 L 503.15625 525.125 L 500.75 528.25 L 498.25 531.1875 L 495.6875 533.96875 L 492.90625 536.53125 L 490.0625 538.84375 L 487.03125 540.96875 L 483.90625 543 L 480.65625 544.75 L 477.25 546.3125 L 473.65625 547.6875 L 469.96875 548.875 L 466.125 549.8125 L 462.15625 550.625 L 458 551.28125 L 453.6875 551.75 L 449.25 552.03125 L 444.65625 552.09375 L 442.8125 552.09375 L 440.96875 552.03125 L 439.03125 551.9375 L 437.09375 551.75 L 435.15625 551.5625 L 433.125 551.28125 L 431.1875 550.90625 L 429.15625 550.53125 L 427.15625 550.09375 L 425.21875 549.625 L 423.1875 549.0625 L 421.25 548.4375 L 419.21875 547.6875 L 417.28125 546.9375 L 415.34375 546.125 L 413.5 545.1875 L 411.5625 544.1875 L 409.8125 543.1875 L 407.96875 541.96875 L 406.21875 540.78125 L 404.46875 539.5 L 402.8125 538 L 401.25 536.53125 L 399.6875 534.96875 L 398.21875 533.3125 L 396.84375 531.5625 L 395.4375 529.625 L 394.15625 527.6875 L 392.96875 525.5625 L 391.84375 523.46875 L 390.84375 521.15625 L 389.9375 518.75 L 389.09375 516.28125 L 388.34375 513.6875 L 387.71875 510.9375 L 387.15625 508.0625 L 386.6875 505.125 L 386.4375 502 L 386.25 498.84375 L 386.15625 495.4375 L 327.75 495.4375 L 327.84375 496.65625 L 327.9375 497.84375 L 328.09375 499.03125 L 328.1875 500.34375 L 328.375 501.53125 L 328.46875 502.90625 L 328.65625 504.1875 L 328.75 505.59375 L 328.9375 506.96875 L 329.125 508.4375 L 329.21875 509.8125 L 329.40625 511.3125 L 329.6875 512.78125 L 329.84375 514.34375 L 330.125 515.8125 L 330.40625 517.375 L 330.6875 518.9375 L 330.96875 520.59375 L 331.34375 522.15625 L 331.6875 523.8125 L 332.0625 525.40625 L 332.53125 527.0625 L 333 528.71875 L 333.53125 530.375 L 334.09375 532.125 L 334.65625 533.78125 L 335.28125 535.4375 L 336.03125 537.1875 L 336.78125 538.84375 L 337.5 540.59375 L 338.34375 542.34375 L 339.25 544 L 340.1875 545.75 L 341.1875 547.5 L 342.21875 549.15625 L 343.3125 550.90625 L 344.5 552.65625 L 345.8125 554.3125 L 347.09375 556.0625 L 348.46875 557.71875 L 349.46875 558.9375 L 350.59375 560.03125 L 351.6875 561.21875 L 352.90625 562.53125 L 354.09375 563.71875 L 355.46875 564.90625 L 356.84375 566.1875 L 358.21875 567.5 L 359.71875 568.78125 L 361.28125 569.96875 L 362.9375 571.28125 L 364.59375 572.5625 L 366.34375 573.84375 L 368.1875 575.0625 L 370.125 576.34375 L 372.0625 577.53125 L 374.09375 578.71875 L 376.09375 579.9375 L 378.3125 581.125 L 380.53125 582.3125 L 382.84375 583.4375 L 385.21875 584.4375 L 387.625 585.5625 L 390.1875 586.5625 L 392.78125 587.46875 L 395.4375 588.5 L 398.125 589.3125 L 400.96875 590.15625 L 403.84375 590.96875 L 406.78125 591.71875 L 409.8125 592.375 L 412.96875 593 L 416.1875 593.5625 L 419.5 594.03125 L 422.8125 594.46875 L 426.3125 594.84375 L 429.8125 595.125 L 433.40625 595.3125 L 437.09375 595.40625 L 440.875 595.5 L 449.90625 595.3125 L 458.5625 594.65625 L 466.84375 593.5625 L 474.6875 592.1875 L 482.21875 590.34375 L 489.5 588.21875 L 496.3125 585.71875 L 502.875 582.875 L 509.125 579.75 L 515.03125 576.25 L 520.65625 572.46875 L 526 568.40625 L 530.96875 564.1875 L 535.65625 559.5625 L 540.1875 554.78125 L 544.3125 549.8125 L 548.28125 544.5625 L 551.96875 539.125 L 555.375 533.59375 L 558.59375 527.78125 L 561.5625 521.90625 L 564.3125 515.8125 L 566.8125 509.65625 L 569.09375 503.375 L 571.21875 497.03125 L 573.15625 490.5625 L 574.90625 484.03125 L 576.46875 477.40625 L 577.84375 470.75 L 579.15625 464.125 L 580.25 457.5 L 581.1875 450.875 L 581.90625 444.15625 L 582.65625 437.5625 L 583.1875 431 L 583.5625 424.46875 L 583.9375 418.03125 L 584.125 411.65625 L 584.21875 405.40625 L 584.3125 399.28125 L 584.21875 392.1875 L 584.125 385.03125 L 583.9375 377.84375 L 583.65625 370.625 L 583.1875 363.4375 L 582.75 356.21875 L 582.09375 349.03125 L 581.34375 341.84375 L 580.4375 334.75 L 579.4375 327.65625 L 578.21875 320.59375 L 576.9375 313.65625 L 575.375 306.78125 L 573.71875 300 L 571.875 293.34375 L 569.84375 286.78125 L 567.53125 280.40625 L 565.0625 274.0625 L 562.375 267.9375 L 559.53125 262 L 556.40625 256.25 L 553.0625 250.625 L 549.40625 245.25 L 545.625 240.09375 L 541.46875 235.09375 L 537.03125 230.375 L 532.34375 225.90625 L 527.46875 221.71875 L 522.21875 217.75 L 516.59375 214.0625 L 510.78125 210.6875 L 504.625 207.65625 L 498.0625 204.90625 L 491.25 202.4375 L 484.0625 200.375 L 476.53125 198.6875 L 468.6875 197.28125 L 460.40625 196.3125 L 451.84375 195.71875 L 442.8125 195.5 z M 446.59375 237 L 449.34375 237.0625 L 452.1875 237.21875 L 455.0625 237.5 L 457.8125 237.875 L 460.6875 238.34375 L 463.4375 238.9375 L 466.1875 239.625 L 468.875 240.40625 L 471.625 241.28125 L 474.3125 242.3125 L 476.875 243.40625 L 479.46875 244.59375 L 482.0625 245.9375 L 484.53125 247.3125 L 487.03125 248.84375 L 489.40625 250.5 L 491.8125 252.1875 L 494.03125 254.03125 L 496.3125 255.96875 L 498.4375 258 L 500.5625 260.125 L 502.5 262.375 L 504.4375 264.71875 L 506.375 267.1875 L 508.125 269.6875 L 509.78125 272.375 L 511.34375 275.15625 L 512.8125 277.9375 L 514.28125 280.9375 L 515.59375 283.96875 L 516.6875 287.125 L 517.78125 290.375 L 518.8125 293.75 L 519.625 297.1875 L 520.375 300.75 L 520.9375 304.375 L 521.375 308.15625 L 521.75 312.03125 L 521.9375 316 L 522.03125 320.0625 L 521.9375 323.5625 L 521.84375 327 L 521.5625 330.375 L 521.1875 333.71875 L 520.75 337 L 520.1875 340.1875 L 519.53125 343.3125 L 518.71875 346.40625 L 517.875 349.40625 L 516.96875 352.28125 L 515.84375 355.15625 L 514.75 357.96875 L 513.5625 360.6875 L 512.1875 363.3125 L 510.78125 365.84375 L 509.3125 368.3125 L 507.75 370.6875 L 506 372.96875 L 504.25 375.21875 L 502.40625 377.34375 L 500.5625 379.375 L 498.53125 381.3125 L 496.5 383.1875 L 494.3125 384.9375 L 492.09375 386.65625 L 489.78125 388.21875 L 487.40625 389.6875 L 485 391.0625 L 482.40625 392.375 L 479.84375 393.53125 L 477.15625 394.5625 L 474.5 395.53125 L 471.625 396.40625 L 468.78125 397.15625 L 465.84375 397.8125 L 462.875 398.3125 L 459.84375 398.71875 L 456.71875 399.03125 L 453.59375 399.21875 L 450.34375 399.28125 L 447.21875 399.21875 L 444.1875 399.03125 L 441.15625 398.78125 L 438.1875 398.34375 L 435.25 397.90625 L 432.40625 397.25 L 429.53125 396.5625 L 426.78125 395.71875 L 424 394.8125 L 421.34375 393.78125 L 418.65625 392.65625 L 416.1875 391.4375 L 413.59375 390.09375 L 411.21875 388.6875 L 408.8125 387.125 L 406.5 385.5 L 404.28125 383.8125 L 402.09375 381.96875 L 399.96875 380.0625 L 397.9375 378.03125 L 396 375.96875 L 394.15625 373.75 L 392.40625 371.5 L 390.65625 369.09375 L 389.09375 366.65625 L 387.53125 364.125 L 386.15625 361.5 L 384.78125 358.78125 L 383.5625 355.96875 L 382.375 353.125 L 381.34375 350.125 L 380.4375 347.09375 L 379.59375 344 L 378.875 340.78125 L 378.21875 337.5 L 377.6875 334.1875 L 377.3125 330.71875 L 377.03125 327.21875 L 376.84375 323.6875 L 376.75 320.0625 L 376.75 316.65625 L 376.9375 313.28125 L 377.125 309.96875 L 377.5 306.6875 L 377.84375 303.46875 L 378.40625 300.25 L 378.96875 297.09375 L 379.6875 294.03125 L 380.4375 290.9375 L 381.28125 287.9375 L 382.28125 285 L 383.28125 282.15625 L 384.40625 279.34375 L 385.59375 276.5625 L 386.875 273.84375 L 388.28125 271.28125 L 389.75 268.6875 L 391.3125 266.25 L 392.96875 263.84375 L 394.71875 261.5625 L 396.46875 259.34375 L 398.40625 257.1875 L 400.34375 255.15625 L 402.4375 253.21875 L 404.5625 251.3125 L 406.78125 249.5625 L 409.09375 247.90625 L 411.46875 246.40625 L 413.96875 244.96875 L 416.5625 243.625 L 419.21875 242.40625 L 421.90625 241.28125 L 424.75 240.3125 L 427.59375 239.4375 L 430.5625 238.6875 L 433.59375 238.09375 L 436.71875 237.65625 L 439.9375 237.28125 L 443.1875 237.09375 L 446.59375 237 z "
   id="polygon10" />
</g>
<g
   id="LWPOLYLINE_3_">
	
		
</g>
</svg>