<?xml version="1.0" encoding="UTF-8" standalone="no"?>
<!-- Generator: Adobe Illustrator 16.0.1, SVG Export Plug-In . SVG Version: 6.00 Build 0)  -->

<svg
   xmlns:dc="http://purl.org/dc/elements/1.1/"
   xmlns:cc="http://creativecommons.org/ns#"
   xmlns:rdf="http://www.w3.org/1999/02/22-rdf-syntax-ns#"
   xmlns:svg="http://www.w3.org/2000/svg"
   xmlns="http://www.w3.org/2000/svg"
   xmlns:sodipodi="http://sodipodi.sourceforge.net/DTD/sodipodi-0.dtd"
   xmlns:inkscape="http://www.inkscape.org/namespaces/inkscape"
   version="1.0"
   id="_x31_"
   x="0px"
   y="0px"
   width="612px"
   height="792px"
   viewBox="0 0 612 792"
   enable-background="new 0 0 612 792"
   xml:space="preserve"
   inkscape:version="0.48.2 r9819"
   sodipodi:docname="7072.svg"><metadata
   id="metadata22"><rdf:RDF><cc:Work
       rdf:about=""><dc:format>image/svg+xml</dc:format><dc:type
         rdf:resource="http://purl.org/dc/dcmitype/StillImage" /></cc:Work></rdf:RDF></metadata><defs
   id="defs20" /><sodipodi:namedview
   pagecolor="#ffffff"
   bordercolor="#666666"
   borderopacity="1"
   objecttolerance="10"
   gridtolerance="10"
   guidetolerance="10"
   inkscape:pageopacity="0"
   inkscape:pageshadow="2"
   inkscape:window-width="1920"
   inkscape:window-height="1073"
   id="namedview18"
   showgrid="false"
   showguides="true"
   inkscape:guide-bbox="true"
   inkscape:zoom="0.84281414"
   inkscape:cx="58.97844"
   inkscape:cy="391.1457"
   inkscape:window-x="0"
   inkscape:window-y="0"
   inkscape:window-maximized="1"
   inkscape:current-layer="_x31_" />
<g
   id="LWPOLYLINE_2_"
   style="stroke:none;fill:#000000;fill-opacity:1">
	
		<path
   style="fill:#000000;fill-opacity:1;stroke:none"
   d="m 321.354,539.834 c 12.99871,-0.40653 27.38347,0.75353 39.585,-0.554 0,-96.03933 0,-192.07867 0,-288.118 -12.22867,0 -24.45733,0 -36.686,0 -21.64466,17.22804 -45.00873,32.26729 -69.406,45.291 0,13.57733 0,27.15467 0,40.732 23.92616,-10.18231 46.0876,-24.64499 66.503,-40.732 0.003,81.12567 -0.005,162.262 0.004,243.381 z"
   id="path10"
   inkscape:connector-curvature="0" />
</g><g
   id="LWPOLYLINE_3_"
   style="stroke:none;fill:#000000;fill-opacity:1">
	
		<path
   style="fill:#000000;fill-opacity:1;stroke:none"
   d="m 509.5625,245.5 c -30.40659,-1.07057 -60.8486,14.9554 -75.14882,42.18934 -21.79447,40.38668 -22.63846,88.15139 -19.88198,132.8933 3.73285,39.77492 13.27655,84.13614 46.5308,109.97986 35.44362,25.57448 91.555,18.04288 116.42897,-18.88981 26.33664,-38.0463 30.18545,-86.45853 29.53758,-131.42168 -1.42933,-39.93115 -7.55362,-84.34414 -37.71655,-113.43851 -16.0132,-14.98774 -38.14513,-21.47379 -59.75,-21.3125 z m 0,33.96875 c 20.9379,-1.26554 39.328,13.94431 45.74919,33.24792 12.73781,35.83574 11.35989,74.7839 9.90731,112.24912 -2.48626,27.3352 -6.00178,58.8626 -28.28145,77.75291 -20.62247,16.16248 -54.29798,9.44343 -66.4063,-14.0937 -18.1986,-32.78506 -17.64419,-71.86436 -17.3437,-108.3125 1.60872,-29.74083 2.87522,-62.95258 22.875,-86.875 8.35954,-9.51437 20.99643,-14.15261 33.49995,-13.96875 z"
   id="polygon13"
   inkscape:connector-curvature="0" />
</g><g
   id="LWPOLYLINE"
   style="stroke:none;fill:#000000;fill-opacity:1">
	
		<path
   style="fill:#000000;fill-opacity:1;stroke:none"
   d="m 5.96875,251.15625 c -0.2267331,96.22877 -0.1199939,192.45838 -0.15625,288.6875 13.1875,0 26.375,0 39.5625,0 0.146657,-42.85011 0.02056,-85.70901 0.0625,-128.5625 38.17364,-1.79728 78.67213,4.78365 114.59375,-11.5937 26.91088,-14.29486 43.95372,-45.11351 40.84375,-75.5938 -0.50962,-33.77157 -26.15764,-67.26031 -60.76597,-70.95438 -34.90128,-3.83139 -70.154625,-1.18333 -105.203132,-1.98297 -9.645653,-1.1e-4 -19.291751,2.2e-4 -28.937148,-1.5e-4 z m 39.46875,32.5625 c 26.316046,0.68647 52.820598,-1.55964 79,1.5311 18.05387,2.05967 33.07997,17.25285 33.73094,35.64601 3.21015,20.67181 -5.3146,45.25261 -26.79344,52.13524 -25.66827,8.90314 -53.316014,4.32775 -79.9375,5.46865 -14.670088,-3.16777 -1.070683,-34.62417 -5.957875,-47.391 -0.02776,-15.7965 -0.04019,-31.59428 -0.04212,-47.39 z"
   id="path4"
   inkscape:connector-curvature="0" />
</g>
<g
   id="LWPOLYLINE_1_">
	
		
</g>


<g
   id="LWPOLYLINE_4_">
	
		
</g>
</svg>