<?xml version="1.0" encoding="UTF-8" standalone="no"?>
<!-- Generator: Adobe Illustrator 16.0.1, SVG Export Plug-In . SVG Version: 6.00 Build 0)  -->

<svg
   xmlns:dc="http://purl.org/dc/elements/1.1/"
   xmlns:cc="http://creativecommons.org/ns#"
   xmlns:rdf="http://www.w3.org/1999/02/22-rdf-syntax-ns#"
   xmlns:svg="http://www.w3.org/2000/svg"
   xmlns="http://www.w3.org/2000/svg"
   xmlns:sodipodi="http://sodipodi.sourceforge.net/DTD/sodipodi-0.dtd"
   xmlns:inkscape="http://www.inkscape.org/namespaces/inkscape"
   version="1.0"
   id="_x31_"
   x="0px"
   y="0px"
   width="612px"
   height="792px"
   viewBox="0 0 612 792"
   enable-background="new 0 0 612 792"
   xml:space="preserve"
   inkscape:version="0.48.2 r9819"
   sodipodi:docname="7073.svg"><metadata
   id="metadata28"><rdf:RDF><cc:Work
       rdf:about=""><dc:format>image/svg+xml</dc:format><dc:type
         rdf:resource="http://purl.org/dc/dcmitype/StillImage" /></cc:Work></rdf:RDF></metadata><defs
   id="defs26" /><sodipodi:namedview
   pagecolor="#ffffff"
   bordercolor="#666666"
   borderopacity="1"
   objecttolerance="10"
   gridtolerance="10"
   guidetolerance="10"
   inkscape:pageopacity="0"
   inkscape:pageshadow="2"
   inkscape:window-width="1920"
   inkscape:window-height="1073"
   id="namedview24"
   showgrid="false"
   showguides="true"
   inkscape:guide-bbox="true"
   inkscape:zoom="1.6856283"
   inkscape:cx="144.492"
   inkscape:cy="361.68799"
   inkscape:window-x="0"
   inkscape:window-y="0"
   inkscape:window-maximized="1"
   inkscape:current-layer="_x31_" />
<g
   id="LWPOLYLINE"
   style="stroke:none;fill:#000000;fill-opacity:1">
	
		<path
   style="fill:#000000;stroke:none;stroke-width:0.70870000000000000;stroke-linecap:round;stroke-linejoin:round;stroke-miterlimit:10;fill-opacity:1"
   d="M 229.90625 296 L 229.90625 336 L 69.5625 336 L 69.5625 356.03125 L 229.90625 356.03125 L 229.90625 436.03125 L 69.5625 436.03125 L 69.5625 456.03125 L 229.90625 456.03125 L 229.90625 496 L 310.0625 496 L 310.0625 456.03125 L 350.15625 456.03125 L 350.15625 336 L 310.0625 336 L 310.0625 296 L 229.90625 296 z M 250.15625 316.15625 L 289.71875 316.15625 L 289.71875 475.84375 L 250.15625 475.84375 L 250.15625 316.15625 z M 309.84375 355.71875 L 330 355.71875 L 330 436.3125 L 309.84375 436.3125 L 309.84375 355.71875 z "
   id="polygon4" />
</g>
<g
   id="LWPOLYLINE_1_">
	
		
</g>
<g
   id="LWPOLYLINE_2_">
	
		
</g>
<g
   id="ARC">
	
		
</g>
<g
   id="ARC_1_"
   style="stroke:none;fill:#000000;fill-opacity:1">
	
		<path
   stroke-miterlimit="10"
   d="m 426.61,438.243 c 23.322,23.285 61.109,23.285 84.432,0 23.32,-23.321 23.32,-61.127 0,-84.45 -23.322,-23.321 -61.109,-23.321 -84.432,0 l -10.567,-10.55 c 29.151,-29.151 76.414,-29.151 105.565,0 29.115,29.135 29.115,76.379 0,105.531 -29.151,29.152 -76.414,29.152 -105.565,0"
   id="path16"
   inkscape:connector-curvature="0"
   style="fill:#000000;stroke:none;stroke-width:0.70870000000000000;stroke-linecap:round;stroke-linejoin:round;stroke-miterlimit:10;fill-opacity:1"
   sodipodi:nodetypes="cccccccc" />
</g>
<g
   id="LWPOLYLINE_3_"
   style="stroke:none;fill:#000000;fill-opacity:1">
	
		<path
   style="fill:#000000;stroke:none;stroke-width:0.70870000000000000;stroke-linecap:round;stroke-linejoin:round;stroke-miterlimit:10;fill-opacity:1"
   d="m 440.312,355.561 6.851,6.869 -57.503,21.628 20.042,-59.106 z"
   id="polygon19" />
</g>
<g
   id="LINE">
	
		<path
   style="fill:none;stroke:#000000;stroke-width:0.7087;stroke-linecap:round;stroke-linejoin:round;stroke-miterlimit:10"
   d="m 427.048,437.806 -10.45901,10.45901"
   id="line22" />
</g>
</svg>