<?xml version="1.0" encoding="UTF-8" standalone="no"?>
<!-- Generator: Adobe Illustrator 16.0.1, SVG Export Plug-In . SVG Version: 6.00 Build 0)  -->

<svg
   xmlns:dc="http://purl.org/dc/elements/1.1/"
   xmlns:cc="http://creativecommons.org/ns#"
   xmlns:rdf="http://www.w3.org/1999/02/22-rdf-syntax-ns#"
   xmlns:svg="http://www.w3.org/2000/svg"
   xmlns="http://www.w3.org/2000/svg"
   xmlns:sodipodi="http://sodipodi.sourceforge.net/DTD/sodipodi-0.dtd"
   xmlns:inkscape="http://www.inkscape.org/namespaces/inkscape"
   version="1.0"
   id="_x31_"
   x="0px"
   y="0px"
   width="612px"
   height="792px"
   viewBox="0 0 612 792"
   enable-background="new 0 0 612 792"
   xml:space="preserve"
   inkscape:version="0.48.2 r9819"
   sodipodi:docname="7075.svg"><metadata
   id="metadata28"><rdf:RDF><cc:Work
       rdf:about=""><dc:format>image/svg+xml</dc:format><dc:type
         rdf:resource="http://purl.org/dc/dcmitype/StillImage" /></cc:Work></rdf:RDF></metadata><defs
   id="defs26" /><sodipodi:namedview
   pagecolor="#ffffff"
   bordercolor="#666666"
   borderopacity="1"
   objecttolerance="10"
   gridtolerance="10"
   guidetolerance="10"
   inkscape:pageopacity="0"
   inkscape:pageshadow="2"
   inkscape:window-width="1920"
   inkscape:window-height="1073"
   id="namedview24"
   showgrid="false"
   inkscape:zoom="1.6856283"
   inkscape:cx="227.7953"
   inkscape:cy="323.10799"
   inkscape:window-x="0"
   inkscape:window-y="0"
   inkscape:window-maximized="1"
   inkscape:current-layer="_x31_" />
<g
   id="LWPOLYLINE"
   style="stroke:none;fill:#000000;fill-opacity:1">
	
		<path
   style="fill:#000000;stroke:none;stroke-width:0.70870000000000000;stroke-linecap:round;stroke-linejoin:round;stroke-miterlimit:10;fill-opacity:1"
   d="M 214.9375 271 L 214.9375 321 L 14.46875 321 L 14.46875 346.03125 L 214.9375 346.03125 L 214.9375 446.03125 L 14.46875 446.03125 L 14.46875 471.03125 L 214.9375 471.03125 L 214.9375 521 L 315.09375 521 L 315.09375 471.03125 L 365.21875 471.03125 L 365.21875 321 L 315.09375 321 L 315.09375 271 L 214.9375 271 z M 240.21875 296.1875 L 289.6875 296.1875 L 289.6875 495.8125 L 240.21875 495.8125 L 240.21875 296.1875 z M 314.875 345.625 L 340.0625 345.625 L 340.0625 446.40625 L 314.875 446.40625 L 314.875 345.625 z "
   id="polygon4" />
</g>
<g
   id="LWPOLYLINE_1_">
	
		
</g>
<g
   id="LWPOLYLINE_2_">
	
		
</g>
<g
   id="ARC">
	
		
</g>
<g
   id="ARC_1_"
   style="stroke:none;fill:#000000;fill-opacity:1">
	
		<path
   stroke-miterlimit="10"
   d="m 552.332,343.242 c -29.151,-29.152 -76.387,-29.152 -105.539,0 -29.151,29.152 -29.151,76.41 0,105.562 29.152,29.105 76.388,29.105 105.539,0 l 13.21,13.165 c -36.44,36.439 -95.519,36.439 -131.958,0 -36.395,-36.441 -36.395,-95.496 0,-131.914 36.439,-36.439 95.518,-36.439 131.958,0 z"
   id="path16"
   inkscape:connector-curvature="0"
   style="fill:#000000;stroke:none;stroke-width:0.70870000000000000;stroke-linecap:round;stroke-linejoin:round;stroke-miterlimit:10;fill-opacity:1"
   sodipodi:nodetypes="ccccccccc" />
</g>
<g
   id="LWPOLYLINE_3_"
   style="stroke:none;fill:#000000;fill-opacity:1">
	
		<path
   style="fill:#000000;stroke:none;stroke-width:0.70870000000000000;stroke-linecap:round;stroke-linejoin:round;stroke-miterlimit:10;fill-opacity:1"
   d="m 535.205,345.451 -8.563,8.586 71.878,27.035 -25.053,-73.883 z"
   id="polygon19" />
</g>
<g
   id="LINE">
	
		<path
   style="fill:none;stroke:#000000;stroke-width:0.7087;stroke-linecap:round;stroke-linejoin:round;stroke-miterlimit:10"
   d="m 551.78497,448.258 13.073,13.07199"
   id="line22" />
</g>
</svg>