<?xml version="1.0" encoding="UTF-8" standalone="no"?>
<!-- Generator: Adobe Illustrator 16.0.1, SVG Export Plug-In . SVG Version: 6.00 Build 0)  -->

<svg
   xmlns:dc="http://purl.org/dc/elements/1.1/"
   xmlns:cc="http://creativecommons.org/ns#"
   xmlns:rdf="http://www.w3.org/1999/02/22-rdf-syntax-ns#"
   xmlns:svg="http://www.w3.org/2000/svg"
   xmlns="http://www.w3.org/2000/svg"
   xmlns:sodipodi="http://sodipodi.sourceforge.net/DTD/sodipodi-0.dtd"
   xmlns:inkscape="http://www.inkscape.org/namespaces/inkscape"
   version="1.0"
   id="_x31_"
   x="0px"
   y="0px"
   width="612px"
   height="792px"
   viewBox="0 0 612 792"
   enable-background="new 0 0 612 792"
   xml:space="preserve"
   inkscape:version="0.48.2 r9819"
   sodipodi:docname="7086.svg"><metadata
   id="metadata25"><rdf:RDF><cc:Work
       rdf:about=""><dc:format>image/svg+xml</dc:format><dc:type
         rdf:resource="http://purl.org/dc/dcmitype/StillImage" /></cc:Work></rdf:RDF></metadata><defs
   id="defs23" /><sodipodi:namedview
   pagecolor="#ffffff"
   bordercolor="#666666"
   borderopacity="1"
   objecttolerance="10"
   gridtolerance="10"
   guidetolerance="10"
   inkscape:pageopacity="0"
   inkscape:pageshadow="2"
   inkscape:window-width="1920"
   inkscape:window-height="1073"
   id="namedview21"
   showgrid="false"
   inkscape:zoom="1.1919192"
   inkscape:cx="93.136742"
   inkscape:cy="457.98626"
   inkscape:window-x="0"
   inkscape:window-y="0"
   inkscape:window-maximized="1"
   inkscape:current-layer="_x31_" />
<g
   id="ARC">
	
		
</g>
<g
   id="LWPOLYLINE">
	
		<path
   style="fill:#000000;stroke:none;stroke-width:0.70870000000000000;stroke-linecap:round;stroke-linejoin:round;stroke-miterlimit:10;fill-opacity:1"
   d="m 43.403,284.006 c 110.831,-98.879 272.336,-116.17 401.526,-42.5645 l 26.588,-39.0235 97.08,139.736 -166.403,-36.275 27.7085,-42.212 C 311.312,197.08 164.025,213.017 62.361,302.832 z"
   id="polyline7"
   inkscape:connector-curvature="0"
   sodipodi:nodetypes="cccccccc" />
</g>
<g
   id="ARC_1_">
	
		
</g>
<g
   id="LWPOLYLINE_1_"
   style="stroke:none;stroke-opacity:1;fill:#000000;fill-opacity:1">
	
		<path
   style="stroke:none;stroke-opacity:1;fill:#000000;fill-opacity:1"
   d="M 202.875 378.40625 C 202.747 378.40425 202.75 596 202.75 596 L 203.3125 596 L 204.03125 596 L 205 596 L 206.1875 596 L 207.59375 596 L 209.21875 596 L 211.0625 596 L 213.0625 596 L 215.25 596 L 217.5625 596 L 220 596 L 222.59375 596 L 225.28125 596 L 228.0625 596 L 230.90625 596 L 233.8125 596 L 236.75 596 L 239.75 596 L 242.75 596 L 245.75 596 L 248.71875 596 L 251.6875 596 L 254.5625 596 L 257.4375 596 L 260.1875 596 L 262.875 596 L 265.46875 596 L 267.9375 596 L 270.25 596 L 272.40625 596 L 274.40625 596 L 276.21875 596 L 277.875 596 L 279.3125 596 L 280.5 596 L 281.4375 596 L 282.15625 596 L 282.59375 596 L 284.03125 596 L 285.3125 596 L 286.5625 596 L 287.84375 596 L 289.125 596 L 290.40625 595.9375 L 291.6875 595.9375 L 292.96875 595.90625 L 294.25 595.90625 L 295.53125 595.84375 L 296.78125 595.78125 L 298.0625 595.6875 L 299.34375 595.625 L 300.59375 595.53125 L 301.875 595.4375 L 303.125 595.3125 L 304.40625 595.15625 L 305.6875 595 L 306.9375 594.84375 L 308.1875 594.65625 L 309.4375 594.4375 L 310.75 594.21875 L 312 593.96875 L 313.25 593.71875 L 314.5 593.40625 L 315.75 593.09375 L 317 592.71875 L 318.1875 592.34375 L 319.4375 591.9375 L 320.6875 591.53125 L 321.9375 591.0625 L 323.125 590.53125 L 324.375 590 L 325.5625 589.4375 L 326.8125 588.875 L 328.03125 588.25 L 329.21875 587.5625 L 330.46875 586.84375 L 331.65625 586.09375 L 332.875 585.3125 L 333.375 585 L 333.90625 584.59375 L 334.46875 584.1875 L 335.15625 583.71875 L 335.78125 583.25 L 336.5 582.65625 L 337.25 582.09375 L 337.96875 581.46875 L 338.75 580.78125 L 339.59375 580.0625 L 340.375 579.28125 L 341.1875 578.5 L 342.03125 577.65625 L 342.90625 576.71875 L 343.75 575.78125 L 344.625 574.8125 L 345.53125 573.75 L 346.34375 572.71875 L 347.25 571.5625 L 348.0625 570.375 L 348.90625 569.1875 L 349.6875 567.9375 L 350.53125 566.5625 L 351.3125 565.21875 L 352.03125 563.8125 L 352.75 562.3125 L 353.5 560.78125 L 354.125 559.21875 L 354.78125 557.625 L 355.375 555.9375 L 355.875 554.21875 L 356.40625 552.40625 L 356.875 550.59375 L 357.28125 548.71875 L 357.59375 546.78125 L 357.90625 544.8125 L 358.125 542.71875 L 358.34375 540.65625 L 358.4375 538.5 L 358.4375 536.28125 L 358.375 533.1875 L 358.21875 530.28125 L 357.96875 527.46875 L 357.59375 524.75 L 357.09375 522.15625 L 356.5625 519.71875 L 355.875 517.3125 L 355.15625 515.0625 L 354.3125 512.875 L 353.4375 510.8125 L 352.4375 508.875 L 351.40625 507 L 350.375 505.21875 L 349.21875 503.5 L 348.03125 501.90625 L 346.78125 500.375 L 345.46875 498.9375 L 344.125 497.5625 L 342.75 496.28125 L 341.40625 495.0625 L 340 493.9375 L 338.53125 492.84375 L 337.09375 491.84375 L 335.625 490.90625 L 334.15625 490.03125 L 332.71875 489.125 L 331.25 488.34375 L 329.84375 487.625 L 328.375 486.9375 L 326.96875 486.3125 L 325.5625 485.75 L 324.15625 485.1875 L 322.875 484.65625 L 321.5625 484.1875 L 320.25 483.71875 L 319.0625 483.3125 L 317.875 482.9375 L 316.78125 482.5625 L 315.71875 482.21875 L 314.75 481.90625 L 315.5625 481.625 L 316.46875 481.3125 L 317.40625 481.0625 L 318.375 480.6875 L 319.375 480.34375 L 320.46875 479.90625 L 321.5625 479.5 L 322.71875 479.03125 L 323.84375 478.5 L 325.0625 477.9375 L 326.25 477.375 L 327.5 476.75 L 328.75 476 L 330 475.28125 L 331.25 474.5 L 332.5 473.65625 L 333.6875 472.78125 L 334.9375 471.84375 L 336.1875 470.8125 L 337.40625 469.75 L 338.59375 468.625 L 339.75 467.40625 L 340.875 466.15625 L 341.96875 464.8125 L 343.0625 463.40625 L 344.125 461.9375 L 345.0625 460.4375 L 346 458.8125 L 346.875 457.09375 L 347.71875 455.34375 L 348.5 453.46875 L 349.21875 451.53125 L 349.84375 449.5 L 350.40625 447.40625 L 350.875 445.1875 L 351.3125 442.875 L 351.625 440.53125 L 351.875 438.03125 L 352.03125 435.5 L 352.09375 432.84375 L 352.03125 431.53125 L 352.03125 430.28125 L 351.9375 429.03125 L 351.875 427.84375 L 351.78125 426.625 L 351.65625 425.4375 L 351.5 424.25 L 351.3125 423.09375 L 351.15625 421.9375 L 350.9375 420.8125 L 350.6875 419.71875 L 350.46875 418.625 L 350.15625 417.53125 L 349.90625 416.46875 L 349.59375 415.375 L 349.28125 414.40625 L 348.90625 413.34375 L 348.5625 412.375 L 348.1875 411.375 L 347.8125 410.375 L 347.40625 409.4375 L 347 408.5 L 346.53125 407.625 L 346.09375 406.6875 L 345.625 405.8125 L 345.09375 404.90625 L 344.625 404.09375 L 344.125 403.25 L 343.59375 402.40625 L 343.0625 401.625 L 342.5 400.8125 L 341.96875 400.03125 L 341.40625 399.28125 L 340.78125 398.5625 L 340.21875 397.84375 L 339.625 397.09375 L 339 396.4375 L 338.375 395.71875 L 337.75 395.03125 L 337.125 394.40625 L 336.09375 393.375 L 335.0625 392.40625 L 334 391.46875 L 332.90625 390.59375 L 331.875 389.71875 L 330.78125 388.9375 L 329.6875 388.15625 L 328.59375 387.40625 L 327.5 386.71875 L 326.34375 386.0625 L 325.21875 385.4375 L 324.0625 384.84375 L 322.90625 384.28125 L 321.71875 383.75 L 320.53125 383.25 L 319.28125 382.78125 L 318.0625 382.375 L 316.78125 381.9375 L 315.53125 381.5625 L 314.21875 381.21875 L 312.875 380.875 L 311.5 380.59375 L 310.09375 380.3125 L 308.6875 380.03125 L 307.3125 379.8125 L 305.8125 379.59375 L 304.3125 379.40625 L 302.78125 379.25 L 301.21875 379.09375 L 299.65625 378.9375 L 298 378.84375 L 296.34375 378.75 L 294.65625 378.65625 L 292.9375 378.59375 L 291.125 378.53125 L 289.3125 378.46875 L 287.46875 378.46875 L 285.59375 378.4375 L 283.65625 378.40625 L 281.6875 378.40625 L 281.09375 378.40625 L 280.40625 378.40625 L 279.46875 378.40625 L 278.28125 378.40625 L 276.875 378.40625 L 275.28125 378.40625 L 273.4375 378.40625 L 271.46875 378.40625 L 269.3125 378.40625 L 267.03125 378.40625 L 264.625 378.40625 L 262.0625 378.40625 L 259.4375 378.40625 L 256.6875 378.40625 L 253.875 378.40625 L 251.03125 378.40625 L 248.09375 378.40625 L 245.15625 378.40625 L 242.1875 378.40625 L 239.25 378.40625 L 236.3125 378.40625 L 233.40625 378.40625 L 230.53125 378.40625 L 227.71875 378.40625 L 224.96875 378.40625 L 222.3125 378.40625 L 219.78125 378.40625 L 217.34375 378.40625 L 215.0625 378.40625 L 212.9375 378.40625 L 210.9375 378.40625 L 209.15625 378.40625 L 207.53125 378.40625 L 206.125 378.40625 L 204.96875 378.40625 L 204 378.40625 L 203.3125 378.40625 L 202.875 378.40625 z M 233.65625 402.9375 L 233.96875 402.9375 L 234.375 402.9375 L 234.84375 402.9375 L 235.5 402.9375 L 236.25 402.9375 L 237.15625 402.9375 L 238.125 402.9375 L 239.1875 402.9375 L 240.3125 402.9375 L 241.5625 402.9375 L 242.875 402.9375 L 244.25 402.9375 L 245.6875 402.9375 L 247.1875 402.9375 L 248.6875 402.9375 L 250.25 402.9375 L 251.8125 402.9375 L 253.40625 402.9375 L 255 402.9375 L 256.59375 402.9375 L 258.1875 402.9375 L 259.78125 402.9375 L 261.3125 402.9375 L 262.84375 402.9375 L 264.3125 402.9375 L 265.75 402.9375 L 267.125 402.9375 L 268.4375 402.9375 L 269.6875 402.9375 L 270.8125 402.9375 L 271.875 402.9375 L 272.875 402.9375 L 273.75 402.9375 L 274.53125 402.9375 L 275.15625 402.9375 L 275.65625 402.9375 L 276.03125 402.9375 L 276.34375 402.9375 L 277.625 402.9375 L 278.96875 402.9375 L 280.3125 402.9375 L 281.6875 403 L 283.09375 403 L 284.53125 403.03125 L 285.96875 403.15625 L 287.4375 403.1875 L 288.875 403.3125 L 290.375 403.46875 L 291.84375 403.625 L 293.3125 403.8125 L 294.78125 404.09375 L 296.21875 404.34375 L 297.65625 404.71875 L 299.09375 405.0625 L 300.5 405.5 L 301.90625 405.96875 L 303.25 406.46875 L 304.59375 407.0625 L 305.90625 407.71875 L 307.1875 408.46875 L 308.40625 409.25 L 309.59375 410.0625 L 310.75 411 L 311.84375 412 L 312.875 413.09375 L 313.875 414.28125 L 314.75 415.53125 L 315.625 416.90625 L 316.40625 418.34375 L 317.15625 419.875 L 317.8125 421.53125 L 318.40625 423.25 L 318.90625 425.0625 L 319.28125 427.0625 L 319.65625 429.125 L 319.84375 431.28125 L 320 433.625 L 320.0625 436 L 320 438.5 L 319.8125 440.84375 L 319.5 443.15625 L 319.0625 445.28125 L 318.5625 447.25 L 317.875 449.1875 L 317.15625 450.96875 L 316.3125 452.6875 L 315.4375 454.25 L 314.4375 455.75 L 313.34375 457.15625 L 312.1875 458.46875 L 311 459.65625 L 309.75 460.75 L 308.4375 461.78125 L 307.03125 462.78125 L 305.65625 463.65625 L 304.21875 464.4375 L 302.78125 465.21875 L 301.25 465.84375 L 299.75 466.46875 L 298.25 467.0625 L 296.6875 467.53125 L 295.1875 467.9375 L 293.65625 468.34375 L 292.15625 468.65625 L 290.65625 468.96875 L 289.1875 469.25 L 287.75 469.4375 L 286.3125 469.59375 L 284.96875 469.75 L 283.59375 469.875 L 282.3125 469.96875 L 281.09375 470.03125 L 279.96875 470.0625 L 278.875 470.125 L 277.8125 470.125 L 276.875 470.125 L 276.03125 470.125 L 275.28125 470.125 L 274.96875 470.125 L 274.59375 470.125 L 274.09375 470.125 L 273.46875 470.125 L 272.75 470.125 L 271.875 470.125 L 270.9375 470.125 L 269.90625 470.125 L 268.75 470.125 L 267.5625 470.125 L 266.28125 470.125 L 264.9375 470.125 L 263.5625 470.125 L 262.09375 470.125 L 260.625 470.125 L 259.125 470.125 L 257.59375 470.125 L 256.03125 470.125 L 254.46875 470.125 L 252.90625 470.125 L 251.375 470.125 L 249.84375 470.125 L 248.3125 470.125 L 246.84375 470.125 L 245.40625 470.125 L 244 470.125 L 242.6875 470.125 L 241.375 470.125 L 240.1875 470.125 L 239.0625 470.125 L 238 470.125 L 237.0625 470.125 L 236.21875 470.125 L 235.46875 470.125 L 234.84375 470.125 L 234.34375 470.125 L 233.96875 470.125 L 233.65625 470.125 L 233.65625 402.9375 z M 233.65625 495.75 L 234.0625 495.75 L 234.53125 495.75 L 235.15625 495.75 L 235.9375 495.75 L 236.84375 495.75 L 237.90625 495.75 L 239.09375 495.75 L 240.4375 495.75 L 241.84375 495.75 L 243.34375 495.75 L 244.96875 495.75 L 246.65625 495.75 L 248.40625 495.75 L 250.21875 495.75 L 252.0625 495.75 L 253.96875 495.75 L 255.90625 495.75 L 257.84375 495.75 L 259.8125 495.75 L 261.75 495.75 L 263.71875 495.75 L 265.625 495.75 L 267.53125 495.75 L 269.375 495.75 L 271.21875 495.75 L 272.9375 495.75 L 274.65625 495.75 L 276.25 495.75 L 277.78125 495.75 L 279.1875 495.75 L 280.5 495.75 L 281.6875 495.75 L 282.78125 495.75 L 283.6875 495.75 L 284.46875 495.75 L 285.09375 495.75 L 285.5625 495.75 L 285.84375 495.75 L 287.9375 495.75 L 289.84375 495.84375 L 291.71875 496 L 293.5625 496.21875 L 295.375 496.46875 L 297.15625 496.78125 L 298.84375 497.15625 L 300.5 497.5625 L 302.125 498.03125 L 303.6875 498.5625 L 305.21875 499.125 L 306.6875 499.75 L 308.09375 500.4375 L 309.5 501.15625 L 310.78125 501.9375 L 312.09375 502.71875 L 313.34375 503.59375 L 314.53125 504.5 L 315.625 505.4375 L 316.71875 506.40625 L 317.78125 507.40625 L 318.75 508.5 L 319.6875 509.59375 L 320.59375 510.6875 L 321.40625 511.875 L 322.1875 513.09375 L 322.9375 514.34375 L 323.59375 515.59375 L 324.21875 516.875 L 324.8125 518.25 L 325.3125 519.59375 L 325.78125 521 L 326.21875 522.40625 L 326.53125 523.875 L 326.8125 525.3125 L 327.09375 526.84375 L 327.3125 528.34375 L 327.40625 529.90625 L 327.5 531.46875 L 327.5625 533.09375 L 327.5 534.96875 L 327.40625 536.78125 L 327.1875 538.59375 L 326.96875 540.3125 L 326.6875 542.03125 L 326.3125 543.65625 L 325.84375 545.28125 L 325.375 546.78125 L 324.8125 548.28125 L 324.1875 549.6875 L 323.5 551.09375 L 322.78125 552.40625 L 322 553.71875 L 321.09375 554.96875 L 320.21875 556.09375 L 319.28125 557.25 L 318.28125 558.34375 L 317.25 559.375 L 316.15625 560.375 L 315 561.3125 L 313.8125 562.25 L 312.625 563.09375 L 311.3125 563.875 L 310 564.65625 L 308.6875 565.3125 L 307.3125 566 L 305.90625 566.625 L 304.4375 567.1875 L 302.9375 567.71875 L 301.4375 568.1875 L 299.875 568.59375 L 298.3125 568.96875 L 296.71875 569.34375 L 295.09375 569.59375 L 293.4375 569.84375 L 291.75 570.0625 L 290.0625 570.21875 L 288.34375 570.3125 L 286.625 570.375 L 284.875 570.375 L 284.5 570.375 L 284.03125 570.375 L 283.4375 570.375 L 282.65625 570.375 L 281.75 570.375 L 280.71875 570.375 L 279.53125 570.375 L 278.25 570.375 L 276.84375 570.375 L 275.375 570.375 L 273.8125 570.375 L 272.15625 570.375 L 270.4375 570.375 L 268.65625 570.375 L 266.84375 570.375 L 264.96875 570.375 L 263.09375 570.375 L 261.1875 570.375 L 259.28125 570.375 L 257.34375 570.375 L 255.4375 570.375 L 253.5625 570.375 L 251.6875 570.375 L 249.875 570.375 L 248.09375 570.375 L 246.375 570.375 L 244.71875 570.375 L 243.15625 570.375 L 241.6875 570.375 L 240.28125 570.375 L 239 570.375 L 237.8125 570.375 L 236.78125 570.375 L 235.875 570.375 L 235.125 570.375 L 234.5 570.375 L 234.0625 570.375 L 233.75 570.375 C 233.647 570.375 233.65625 495.75 233.65625 495.75 z "
   id="path13" />
</g>
<g
   id="LWPOLYLINE_2_">
	
		
</g>
<g
   id="LWPOLYLINE_3_">
	
		
</g>
</svg>