<?xml version="1.0" encoding="UTF-8" standalone="no"?>
<!-- Generator: Adobe Illustrator 16.0.1, SVG Export Plug-In . SVG Version: 6.00 Build 0)  -->

<svg
   xmlns:dc="http://purl.org/dc/elements/1.1/"
   xmlns:cc="http://creativecommons.org/ns#"
   xmlns:rdf="http://www.w3.org/1999/02/22-rdf-syntax-ns#"
   xmlns:svg="http://www.w3.org/2000/svg"
   xmlns="http://www.w3.org/2000/svg"
   xmlns:sodipodi="http://sodipodi.sourceforge.net/DTD/sodipodi-0.dtd"
   xmlns:inkscape="http://www.inkscape.org/namespaces/inkscape"
   version="1.0"
   id="_x31_"
   x="0px"
   y="0px"
   width="612px"
   height="792px"
   viewBox="0 0 612 792"
   enable-background="new 0 0 612 792"
   xml:space="preserve"
   inkscape:version="0.48.2 r9819"
   sodipodi:docname="7089.svg"><metadata
   id="metadata40"><rdf:RDF><cc:Work
       rdf:about=""><dc:format>image/svg+xml</dc:format><dc:type
         rdf:resource="http://purl.org/dc/dcmitype/StillImage" /></cc:Work></rdf:RDF></metadata><defs
   id="defs38" /><sodipodi:namedview
   pagecolor="#ffffff"
   bordercolor="#666666"
   borderopacity="1"
   objecttolerance="10"
   gridtolerance="10"
   guidetolerance="10"
   inkscape:pageopacity="0"
   inkscape:pageshadow="2"
   inkscape:window-width="1920"
   inkscape:window-height="1073"
   id="namedview36"
   showgrid="false"
   inkscape:zoom="1.1919192"
   inkscape:cx="5.3114697"
   inkscape:cy="292.67172"
   inkscape:window-x="0"
   inkscape:window-y="0"
   inkscape:window-maximized="1"
   inkscape:current-layer="_x31_" />
<g
   id="LINE">
	
		
</g>
<g
   id="LINE_1_">
	
		
</g>
<g
   id="LINE_2_">
	
		
</g>
<g
   id="LINE_3_">
	
		
</g>
<g
   id="LINE_4_">
	
		
</g>
<g
   id="LINE_5_">
	
		
</g>
<g
   id="LINE_6_">
	
		<path
   style="fill:#000000;stroke:none;stroke-width:0.70870000000000000;stroke-linecap:round;stroke-linejoin:round;stroke-miterlimit:10;fill-opacity:1"
   d="m 471.04099,607.98798 -424.011991,0 0,38.01202 L 498.914,646 565.97302,397.914 498.914,146 l -451.885001,0 0,37.979 424.011991,0 z"
   id="line22"
   inkscape:connector-curvature="0"
   sodipodi:nodetypes="cccccccccc" />
</g>
<g
   id="LINE_7_">
	
		
</g>
<g
   id="LINE_8_">
	
		
</g>
<g
   id="LWPOLYLINE"
   style="stroke:none;fill:#000000;fill-opacity:1">
	
		<path
   style="fill:#000000;stroke:none;stroke-width:0.70870000000000000;stroke-linecap:round;stroke-linejoin:round;stroke-miterlimit:10;fill-opacity:1"
   d="M 241.96875 238.40625 L 239.21875 238.4375 L 236.4375 238.53125 L 233.6875 238.65625 L 230.9375 238.8125 L 228.1875 239.03125 L 225.4375 239.28125 L 222.6875 239.59375 L 219.9375 239.9375 L 217.21875 240.375 L 214.5 240.8125 L 211.78125 241.34375 L 209.0625 241.84375 L 206.375 242.46875 L 203.6875 243.125 L 201.03125 243.8125 L 198.34375 244.5625 L 195.6875 245.3125 L 193.0625 246.15625 L 190.4375 247.03125 L 187.84375 247.9375 L 185.25 248.9375 L 182.6875 249.9375 L 180.125 251 L 177.625 252.09375 L 175.09375 253.21875 L 172.625 254.4375 L 170.15625 255.65625 L 167.6875 256.9375 L 165.25 258.25 L 162.84375 259.59375 L 160.46875 261.03125 L 158.125 262.4375 L 155.78125 263.9375 L 153.5 265.46875 L 151.1875 267 L 148.96875 268.625 L 146.75 270.25 L 144.5625 271.96875 L 142.40625 273.6875 L 140.25 275.40625 L 138.15625 277.21875 L 136.09375 279.0625 L 134.0625 280.90625 L 132.03125 282.8125 L 130.09375 284.75 L 128.15625 286.71875 L 126.21875 288.75 L 124.375 290.75 L 122.5625 292.8125 L 120.75 294.90625 L 119 297.0625 L 117.28125 299.21875 L 115.59375 301.40625 L 113.96875 303.625 L 112.34375 305.875 L 110.78125 308.15625 L 109.28125 310.46875 L 107.78125 312.78125 L 106.34375 315.15625 L 104.9375 317.5 L 103.59375 319.90625 L 102.25 322.34375 L 100.96875 324.8125 L 99.75 327.28125 L 98.5625 329.78125 L 97.4375 332.28125 L 96.3125 334.8125 L 95.28125 337.34375 L 94.25 339.9375 L 93.28125 342.5 L 92.375 345.125 L 91.5 347.71875 L 90.65625 350.375 L 89.84375 353 L 89.15625 355.6875 L 88.4375 358.34375 L 87.78125 361.0625 L 87.1875 363.75 L 86.65625 366.46875 L 86.15625 369.15625 L 85.6875 371.90625 L 85.28125 374.625 L 84.90625 377.34375 L 84.59375 380.09375 L 84.3125 382.84375 L 84.15625 385.59375 L 83.96875 388.34375 L 83.84375 391.125 L 83.78125 393.875 L 83.75 396.625 L 83.78125 399.40625 L 83.84375 402.1875 L 83.96875 404.90625 L 84.15625 407.6875 L 84.3125 410.40625 L 84.59375 413.1875 L 84.90625 415.90625 L 85.28125 418.6875 L 85.6875 421.40625 L 86.15625 424.125 L 86.65625 426.84375 L 87.1875 429.5 L 87.78125 432.21875 L 88.4375 434.9375 L 89.15625 437.59375 L 89.84375 440.25 L 90.65625 442.90625 L 91.5 445.5 L 92.375 448.15625 L 93.28125 450.75 L 94.25 453.34375 L 95.28125 455.875 L 96.3125 458.4375 L 97.4375 460.96875 L 98.5625 463.5 L 99.75 465.96875 L 100.96875 468.4375 L 102.25 470.90625 L 103.59375 473.3125 L 104.9375 475.71875 L 106.34375 478.125 L 107.78125 480.5 L 109.28125 482.84375 L 110.78125 485.125 L 112.34375 487.40625 L 113.96875 489.625 L 115.59375 491.84375 L 117.28125 494.03125 L 119 496.1875 L 120.75 498.34375 L 122.5625 500.4375 L 124.375 502.5 L 126.21875 504.53125 L 128.15625 506.5625 L 130.09375 508.46875 L 132.03125 510.46875 L 134.0625 512.3125 L 136.09375 514.21875 L 138.15625 516.03125 L 140.25 517.8125 L 142.40625 519.59375 L 144.5625 521.34375 L 146.75 523 L 148.96875 524.625 L 151.1875 526.21875 L 153.5 527.8125 L 155.78125 529.3125 L 158.125 530.78125 L 160.46875 532.28125 L 162.84375 533.625 L 165.25 535 L 167.6875 536.34375 L 170.15625 537.59375 L 172.625 538.84375 L 175.09375 540 L 177.625 541.1875 L 180.125 542.28125 L 182.6875 543.34375 L 185.25 544.34375 L 187.84375 545.3125 L 190.4375 546.25 L 193.0625 547.125 L 195.6875 547.90625 L 198.34375 548.71875 L 201.03125 549.46875 L 203.6875 550.15625 L 206.375 550.8125 L 209.0625 551.375 L 211.78125 551.9375 L 214.5 552.4375 L 217.21875 552.9375 L 219.9375 553.28125 L 222.6875 553.65625 L 225.4375 553.96875 L 228.1875 554.21875 L 230.9375 554.46875 L 233.6875 554.65625 L 236.4375 554.78125 L 239.21875 554.84375 L 241.96875 554.84375 L 244.71875 554.84375 L 247.5 554.78125 L 250.25 554.65625 L 253 554.46875 L 255.75 554.21875 L 258.5 553.96875 L 261.25 553.65625 L 264 553.28125 L 266.71875 552.9375 L 269.4375 552.4375 L 272.15625 551.9375 L 274.875 551.375 L 277.53125 550.8125 L 280.25 550.15625 L 282.90625 549.46875 L 285.5625 548.71875 L 288.21875 547.90625 L 290.875 547.125 L 293.46875 546.25 L 296.0625 545.3125 L 298.65625 544.34375 L 301.25 543.34375 L 303.8125 542.28125 L 306.34375 541.1875 L 308.8125 540 L 311.34375 538.84375 L 313.8125 537.59375 L 316.21875 536.34375 L 318.6875 535 L 321.09375 533.625 L 323.4375 532.28125 L 325.8125 530.78125 L 328.15625 529.3125 L 330.4375 527.8125 L 332.71875 526.21875 L 334.9375 524.625 L 337.1875 523 L 339.40625 521.34375 L 341.5625 519.59375 L 343.65625 517.8125 L 345.75 516.03125 L 347.8125 514.21875 L 349.84375 512.3125 L 351.875 510.46875 L 353.84375 508.46875 L 355.78125 506.5625 L 357.6875 504.53125 L 359.53125 502.5 L 361.40625 500.4375 L 363.1875 498.34375 L 364.9375 496.1875 L 366.65625 494.03125 L 368.3125 491.84375 L 370 489.625 L 371.59375 487.40625 L 373.15625 485.125 L 374.6875 482.84375 L 376.15625 480.5 L 377.59375 478.125 L 379 475.71875 L 380.375 473.3125 L 381.65625 470.90625 L 382.90625 468.4375 L 384.15625 465.96875 L 385.375 463.5 L 386.5 460.96875 L 387.59375 458.4375 L 388.65625 455.875 L 389.71875 453.34375 L 390.625 450.75 L 391.5625 448.15625 L 392.4375 445.5 L 393.28125 442.90625 L 394.03125 440.25 L 394.78125 437.59375 L 395.4375 434.9375 L 396.125 432.21875 L 396.75 429.5 L 397.25 426.84375 L 397.8125 424.125 L 398.21875 421.40625 L 398.65625 418.6875 L 398.96875 415.90625 L 399.34375 413.1875 L 399.59375 410.40625 L 399.78125 407.6875 L 399.96875 404.90625 L 400.09375 402.1875 L 400.15625 399.40625 L 400.21875 396.625 L 400.15625 393.875 L 400.09375 391.125 L 399.96875 388.34375 L 399.78125 385.59375 L 399.59375 382.84375 L 399.34375 380.09375 L 398.96875 377.34375 L 398.65625 374.625 L 398.21875 371.90625 L 397.8125 369.15625 L 397.25 366.46875 L 396.75 363.75 L 396.125 361.0625 L 395.4375 358.34375 L 394.78125 355.6875 L 394.03125 353 L 393.28125 350.375 L 392.4375 347.71875 L 391.5625 345.125 L 390.625 342.5 L 389.71875 339.9375 L 388.65625 337.34375 L 387.59375 334.8125 L 386.5 332.28125 L 385.375 329.78125 L 384.15625 327.28125 L 382.90625 324.8125 L 381.65625 322.34375 L 380.375 319.90625 L 379 317.5 L 377.59375 315.15625 L 376.15625 312.78125 L 374.6875 310.46875 L 373.15625 308.15625 L 371.59375 305.875 L 370 303.625 L 368.3125 301.40625 L 366.65625 299.21875 L 364.9375 297.0625 L 363.1875 294.90625 L 361.40625 292.8125 L 359.53125 290.75 L 357.6875 288.75 L 355.78125 286.71875 L 353.84375 284.75 L 351.875 282.8125 L 349.84375 280.90625 L 347.8125 279.0625 L 345.75 277.21875 L 343.65625 275.40625 L 341.5625 273.6875 L 339.40625 271.96875 L 337.1875 270.25 L 334.9375 268.625 L 332.71875 267 L 330.4375 265.46875 L 328.15625 263.9375 L 325.8125 262.4375 L 323.4375 261.03125 L 321.09375 259.59375 L 318.6875 258.25 L 316.21875 256.9375 L 313.8125 255.65625 L 311.34375 254.4375 L 308.8125 253.21875 L 306.34375 252.09375 L 303.8125 251 L 301.25 249.9375 L 298.65625 248.9375 L 296.0625 247.9375 L 293.46875 247.03125 L 290.875 246.15625 L 288.21875 245.3125 L 285.5625 244.5625 L 282.90625 243.8125 L 280.25 243.125 L 277.53125 242.46875 L 274.875 241.84375 L 272.15625 241.34375 L 269.4375 240.8125 L 266.71875 240.375 L 264 239.9375 L 261.25 239.59375 L 258.5 239.28125 L 255.75 239.03125 L 253 238.8125 L 250.25 238.65625 L 247.5 238.53125 L 244.71875 238.4375 L 241.96875 238.40625 z M 241.96875 270.03125 L 244.15625 270.0625 L 246.375 270.125 L 248.5625 270.21875 L 250.8125 270.34375 L 253 270.53125 L 255.1875 270.75 L 257.375 271 L 259.5625 271.28125 L 261.78125 271.625 L 263.9375 272 L 266.125 272.40625 L 268.28125 272.8125 L 270.4375 273.28125 L 272.59375 273.8125 L 274.71875 274.375 L 276.84375 274.96875 L 278.9375 275.5625 L 281.0625 276.25 L 283.15625 276.96875 L 285.25 277.71875 L 287.28125 278.46875 L 289.40625 279.28125 L 291.4375 280.125 L 293.40625 281 L 295.4375 281.90625 L 297.4375 282.875 L 299.40625 283.84375 L 301.375 284.875 L 303.3125 285.9375 L 305.28125 287 L 307.125 288.15625 L 309.0625 289.28125 L 310.90625 290.46875 L 312.75 291.6875 L 314.5625 292.9375 L 316.34375 294.25 L 318.125 295.53125 L 319.875 296.90625 L 321.59375 298.25 L 323.3125 299.6875 L 325 301.09375 L 326.65625 302.59375 L 328.28125 304.0625 L 329.875 305.5625 L 331.46875 307.125 L 333.03125 308.6875 L 334.5 310.3125 L 336 311.9375 L 337.46875 313.59375 L 338.90625 315.28125 L 340.3125 316.96875 L 341.6875 318.71875 L 343.03125 320.4375 L 344.34375 322.21875 L 345.625 324.03125 L 346.875 325.84375 L 348.125 327.71875 L 349.28125 329.5625 L 350.46875 331.4375 L 351.5625 333.34375 L 352.6875 335.28125 L 353.71875 337.21875 L 354.71875 339.15625 L 355.71875 341.15625 L 356.6875 343.125 L 357.5625 345.125 L 358.5 347.1875 L 359.3125 349.21875 L 360.15625 351.28125 L 360.90625 353.34375 L 361.65625 355.4375 L 362.3125 357.53125 L 363 359.625 L 363.625 361.75 L 364.25 363.875 L 364.8125 366.03125 L 365.28125 368.15625 L 365.78125 370.3125 L 366.21875 372.46875 L 366.59375 374.65625 L 366.96875 376.84375 L 367.34375 379 L 367.5625 381.1875 L 367.8125 383.40625 L 368.0625 385.625 L 368.25 387.8125 L 368.375 390 L 368.4375 392.21875 L 368.5 394.4375 L 368.5625 396.625 L 368.5 398.84375 L 368.4375 401.0625 L 368.375 403.21875 L 368.25 405.46875 L 368.0625 407.6875 L 367.8125 409.84375 L 367.5625 412.0625 L 367.34375 414.21875 L 366.96875 416.46875 L 366.59375 418.625 L 366.21875 420.78125 L 365.78125 422.9375 L 365.28125 425.09375 L 364.8125 427.28125 L 364.25 429.375 L 363.625 431.53125 L 363 433.625 L 362.3125 435.75 L 361.65625 437.84375 L 360.90625 439.9375 L 360.15625 441.96875 L 359.3125 444.03125 L 358.5 446.0625 L 357.5625 448.09375 L 356.6875 450.15625 L 355.71875 452.125 L 354.71875 454.09375 L 353.71875 456.0625 L 352.6875 458 L 351.5625 459.90625 L 350.46875 461.8125 L 349.28125 463.75 L 348.125 465.59375 L 346.875 467.375 L 345.625 469.25 L 344.34375 471.03125 L 343.03125 472.8125 L 341.6875 474.5625 L 340.3125 476.28125 L 338.90625 478 L 337.46875 479.6875 L 336 481.34375 L 334.5 482.96875 L 333.03125 484.5625 L 331.46875 486.09375 L 329.875 487.65625 L 328.28125 489.1875 L 326.65625 490.6875 L 325 492.15625 L 323.3125 493.59375 L 321.59375 495 L 319.875 496.375 L 318.125 497.71875 L 316.34375 499.03125 L 314.5625 500.3125 L 312.75 501.5625 L 310.90625 502.8125 L 309.0625 503.96875 L 307.125 505.15625 L 305.28125 506.25 L 303.3125 507.3125 L 301.375 508.4375 L 299.40625 509.40625 L 297.4375 510.40625 L 295.4375 511.3125 L 293.40625 512.25 L 291.4375 513.125 L 289.40625 513.96875 L 287.28125 514.78125 L 285.25 515.59375 L 283.15625 516.34375 L 281.0625 517 L 278.9375 517.6875 L 276.84375 518.3125 L 274.71875 518.875 L 272.59375 519.4375 L 270.4375 519.96875 L 268.28125 520.46875 L 266.125 520.90625 L 263.9375 521.28125 L 261.78125 521.65625 L 259.5625 521.96875 L 257.375 522.28125 L 255.1875 522.5 L 253 522.6875 L 250.8125 522.875 L 248.5625 523 L 246.375 523.125 L 244.15625 523.1875 L 241.96875 523.1875 L 239.78125 523.1875 L 237.53125 523.125 L 235.34375 523 L 233.125 522.875 L 230.9375 522.6875 L 228.71875 522.5 L 226.53125 522.28125 L 224.34375 521.96875 L 222.15625 521.65625 L 220 521.28125 L 217.8125 520.90625 L 215.625 520.46875 L 213.5 519.96875 L 211.34375 519.4375 L 209.21875 518.875 L 207.0625 518.3125 L 204.96875 517.6875 L 202.84375 517 L 200.78125 516.34375 L 198.65625 515.59375 L 196.59375 514.78125 L 194.5625 513.96875 L 192.53125 513.125 L 190.46875 512.25 L 188.46875 511.3125 L 186.5 510.40625 L 184.5 509.40625 L 182.53125 508.4375 L 180.59375 507.3125 L 178.6875 506.25 L 176.75 505.15625 L 174.875 503.96875 L 173.03125 502.8125 L 171.1875 501.5625 L 169.375 500.3125 L 167.5625 499.03125 L 165.78125 497.71875 L 164.03125 496.375 L 162.28125 495 L 160.59375 493.59375 L 158.9375 492.15625 L 157.25 490.6875 L 155.65625 489.1875 L 154.03125 487.65625 L 152.46875 486.09375 L 150.9375 484.5625 L 149.375 482.96875 L 147.90625 481.34375 L 146.4375 479.6875 L 145 478 L 143.59375 476.28125 L 142.21875 474.5625 L 140.875 472.8125 L 139.5625 471.03125 L 138.28125 469.25 L 137.03125 467.375 L 135.8125 465.59375 L 134.59375 463.75 L 133.46875 461.8125 L 132.34375 459.90625 L 131.28125 458 L 130.1875 456.0625 L 129.1875 454.09375 L 128.21875 452.125 L 127.25 450.15625 L 126.3125 448.09375 L 125.46875 446.0625 L 124.59375 444.03125 L 123.78125 441.96875 L 123.03125 439.9375 L 122.28125 437.84375 L 121.59375 435.75 L 120.90625 433.625 L 120.3125 431.53125 L 119.71875 429.375 L 119.15625 427.28125 L 118.625 425.09375 L 118.15625 422.9375 L 117.6875 420.78125 L 117.3125 418.625 L 116.9375 416.46875 L 116.625 414.21875 L 116.34375 412.0625 L 116.09375 409.84375 L 115.875 407.6875 L 115.6875 405.46875 L 115.5625 403.21875 L 115.46875 401.0625 L 115.40625 398.84375 L 115.375 396.625 L 115.40625 394.4375 L 115.46875 392.21875 L 115.5625 390 L 115.6875 387.8125 L 115.875 385.625 L 116.09375 383.40625 L 116.34375 381.1875 L 116.625 379 L 116.9375 376.84375 L 117.3125 374.65625 L 117.6875 372.46875 L 118.15625 370.3125 L 118.625 368.15625 L 119.15625 366.03125 L 119.71875 363.875 L 120.3125 361.75 L 120.90625 359.625 L 121.59375 357.53125 L 122.28125 355.4375 L 123.03125 353.34375 L 123.78125 351.28125 L 124.59375 349.21875 L 125.46875 347.1875 L 126.3125 345.125 L 127.25 343.125 L 128.21875 341.15625 L 129.1875 339.15625 L 130.1875 337.21875 L 131.28125 335.28125 L 132.34375 333.34375 L 133.46875 331.4375 L 134.59375 329.5625 L 135.8125 327.71875 L 137.03125 325.84375 L 138.28125 324.03125 L 139.5625 322.21875 L 140.875 320.4375 L 142.21875 318.71875 L 143.59375 316.96875 L 145 315.28125 L 146.4375 313.59375 L 147.90625 311.9375 L 149.375 310.3125 L 150.9375 308.6875 L 152.46875 307.125 L 154.03125 305.5625 L 155.65625 304.0625 L 157.25 302.59375 L 158.9375 301.09375 L 160.59375 299.6875 L 162.28125 298.25 L 164.03125 296.90625 L 165.78125 295.53125 L 167.5625 294.25 L 169.375 292.9375 L 171.1875 291.6875 L 173.03125 290.46875 L 174.875 289.28125 L 176.75 288.15625 L 178.6875 287 L 180.59375 285.9375 L 182.53125 284.875 L 184.5 283.84375 L 186.5 282.875 L 188.46875 281.90625 L 190.46875 281 L 192.53125 280.125 L 194.5625 279.28125 L 196.59375 278.46875 L 198.65625 277.71875 L 200.78125 276.96875 L 202.84375 276.25 L 204.96875 275.5625 L 207.0625 274.96875 L 209.21875 274.375 L 211.34375 273.8125 L 213.5 273.28125 L 215.625 272.8125 L 217.8125 272.40625 L 220 272 L 222.15625 271.625 L 224.34375 271.28125 L 226.53125 271 L 228.71875 270.75 L 230.9375 270.53125 L 233.125 270.34375 L 235.34375 270.21875 L 237.53125 270.125 L 239.78125 270.0625 L 241.96875 270.03125 z "
   id="polygon31" />
</g>
<g
   id="LWPOLYLINE_1_">
	
		
</g>
</svg>