<?xml version="1.0" encoding="UTF-8" standalone="no"?>
<!-- Generator: Adobe Illustrator 16.0.1, SVG Export Plug-In . SVG Version: 6.00 Build 0)  -->

<svg
   xmlns:dc="http://purl.org/dc/elements/1.1/"
   xmlns:cc="http://creativecommons.org/ns#"
   xmlns:rdf="http://www.w3.org/1999/02/22-rdf-syntax-ns#"
   xmlns:svg="http://www.w3.org/2000/svg"
   xmlns="http://www.w3.org/2000/svg"
   xmlns:sodipodi="http://sodipodi.sourceforge.net/DTD/sodipodi-0.dtd"
   xmlns:inkscape="http://www.inkscape.org/namespaces/inkscape"
   version="1.0"
   id="_x31_"
   x="0px"
   y="0px"
   width="612px"
   height="792px"
   viewBox="0 0 612 792"
   enable-background="new 0 0 612 792"
   xml:space="preserve"
   inkscape:version="0.48.2 r9819"
   sodipodi:docname="7090.svg"><metadata
   id="metadata34"><rdf:RDF><cc:Work
       rdf:about=""><dc:format>image/svg+xml</dc:format><dc:type
         rdf:resource="http://purl.org/dc/dcmitype/StillImage" /></cc:Work></rdf:RDF></metadata><defs
   id="defs32" /><sodipodi:namedview
   pagecolor="#ffffff"
   bordercolor="#666666"
   borderopacity="1"
   objecttolerance="10"
   gridtolerance="10"
   guidetolerance="10"
   inkscape:pageopacity="0"
   inkscape:pageshadow="2"
   inkscape:window-width="1920"
   inkscape:window-height="1073"
   id="namedview30"
   showgrid="false"
   inkscape:zoom="0.84281414"
   inkscape:cx="-69.016109"
   inkscape:cy="187.20309"
   inkscape:window-x="0"
   inkscape:window-y="0"
   inkscape:window-maximized="1"
   inkscape:current-layer="_x31_" />
<g
   id="LWPOLYLINE_2_"
   style="stroke:none;fill:#000000;fill-opacity:1">
	
		<path
   style="fill:#000000;stroke:none;stroke-width:0.70870000000000000;stroke-linecap:round;stroke-linejoin:round;stroke-miterlimit:10;fill-opacity:1"
   d="M 352.96875 146 L 352.96875 197.3125 L 105.125 197.3125 L 105.125 223.375 L 352.96875 223.375 L 352.96875 326 L 105.125 326 L 105.125 351.21875 L 352.96875 351.21875 L 352.96875 402.53125 L 455.59375 402.53125 L 455.59375 351.21875 L 506.875 351.21875 L 506.875 197.3125 L 455.59375 197.3125 L 455.59375 146 L 352.96875 146 z M 379.03125 172.09375 L 428.625 172.09375 L 428.625 376.4375 L 379.03125 376.4375 L 379.03125 172.09375 z M 455.59375 222.5 L 479.90625 222.5 L 479.90625 325.125 L 455.59375 325.125 L 455.59375 222.5 z "
   id="polygon10" />
</g><g
   id="LWPOLYLINE">
	
		
</g>
<g
   id="LWPOLYLINE_1_">
	
		
</g>

<g
   id="LWPOLYLINE_3_"
   style="stroke:none;stroke-opacity:1;fill:#000000;fill-opacity:1">
	
		<path
   fill="none"
   stroke="#000000"
   stroke-width="0.7087"
   stroke-linecap="round"
   stroke-linejoin="round"
   stroke-miterlimit="10"
   d="   M164.271,290.701v0.318v0.318v0.318v0.318v0.34v0.361l0.021,0.361v0.361l0.021,0.359l0.021,0.383l0.021,0.383l0.043,0.381   l0.021,0.383l0.042,0.402l0.043,0.404l0.063,0.424l0.063,0.404l0.063,0.424l0.085,0.426l0.085,0.424l0.085,0.424l0.106,0.447   l0.106,0.424l0.127,0.445l0.148,0.447l0.128,0.445l0.169,0.445l0.17,0.467l0.17,0.447l0.213,0.445l0.19,0.467l0.233,0.445   l0.234,0.467l0.254,0.447l0.255,0.467l0.298,0.445l0.297,0.445l0.318,0.467l0.318,0.447l0.361,0.467l0.488,0.615l0.51,0.594   l0.53,0.553l0.573,0.553l0.573,0.508l0.573,0.469l0.615,0.467l0.616,0.445l0.658,0.402l0.637,0.383l0.679,0.383l0.658,0.34   l0.701,0.318l0.679,0.318l0.701,0.275l0.7,0.275l0.722,0.234l0.701,0.234l0.722,0.211l0.722,0.213l0.722,0.17l0.722,0.17   l0.701,0.148l0.722,0.127l0.7,0.127l0.701,0.107l0.7,0.105l0.68,0.086l0.679,0.084l0.658,0.064l0.637,0.062l0.658,0.043   l0.616,0.043l0.615,0.021l0.595,0.041l0.573,0.021h0.552l0.53,0.021h0.51h0.488l1.571-0.021l1.528-0.062l1.486-0.086l1.465-0.148   l1.401-0.17l1.38-0.213l1.337-0.254l1.316-0.275l1.253-0.34l1.231-0.34l1.188-0.404l1.146-0.424l1.104-0.445l1.062-0.488   l1.04-0.531l0.998-0.531l0.955-0.594l0.913-0.596l0.871-0.637l0.827-0.678l0.807-0.68l0.743-0.723l0.722-0.742l0.68-0.766   l0.637-0.807l0.595-0.807l0.552-0.848l0.51-0.85l0.467-0.893l0.446-0.912l0.382-0.914l0.361-0.955l0.318-0.955l0.255-0.998   l0.233-0.998l0.19-1.018l0.149-1.02l0.105-1.062l0.063-1.061l0.021-1.082v-0.277l-0.021-0.297v-0.297v-0.318l-0.021-0.34   l-0.021-0.34l-0.021-0.361l-0.021-0.359l-0.042-0.383l-0.042-0.383l-0.043-0.402l-0.063-0.404l-0.063-0.402l-0.085-0.426   l-0.085-0.424l-0.106-0.445l-0.106-0.426l-0.127-0.445l-0.128-0.445l-0.148-0.447l-0.17-0.467l-0.19-0.445l-0.191-0.467   l-0.212-0.445l-0.213-0.467l-0.255-0.469l-0.254-0.445l-0.276-0.467l-0.318-0.445l-0.318-0.467l-0.34-0.447l-0.361-0.445   l-0.382-0.445l-0.403-0.445l-0.425-0.426l-0.467-0.424l-0.467-0.426l-0.51-0.402l-0.531-0.404l-0.552-0.402l-0.36-0.234   l-0.34-0.232l-0.34-0.213l-0.34-0.213l-0.34-0.189l-0.339-0.191l-0.34-0.191l-0.34-0.191l-0.361-0.17l-0.339-0.17l-0.383-0.17   l-0.36-0.17l-0.403-0.148l-0.403-0.17l-0.425-0.17l-0.425-0.148l-0.467-0.148l-0.488-0.17l-0.51-0.17l-0.53-0.148l-0.553-0.17   l-0.594-0.17l-0.616-0.191l-0.658-0.17l-0.679-0.189l-0.723-0.191l-0.764-0.191l-0.807-0.213l-0.85-0.213l-0.892-0.232   l-0.934-0.234l-0.998-0.254l-1.04-0.256l-1.083-0.254l-1.125-0.275l-1.21-0.297l-1.253-0.318l-1.295-0.32l-1.38-0.338l-1.443-0.361   l-0.722-0.17l-0.723-0.191l-0.7-0.17l-0.68-0.191l-0.658-0.191l-0.637-0.17l-0.637-0.211l-0.595-0.191l-0.594-0.191l-0.552-0.191   l-0.553-0.211l-0.53-0.213l-0.51-0.213l-0.488-0.232l-0.467-0.213l-0.446-0.256l-0.424-0.232l-0.425-0.256l-0.403-0.254   l-0.361-0.254l-0.36-0.277l-0.34-0.297l-0.318-0.297l-0.298-0.297l-0.275-0.318l-0.276-0.34l-0.233-0.34l-0.233-0.34l-0.213-0.361   l-0.19-0.381l-0.17-0.383l-0.148-0.424l-0.148-0.404l-0.106-0.445l-0.106-0.447l-0.085-0.467l-0.063-0.488l-0.043-0.488   l-0.021-0.529l-0.021-0.531l0.021-0.615l0.042-0.617l0.063-0.594l0.085-0.594l0.106-0.574l0.148-0.551l0.148-0.531l0.191-0.531   l0.212-0.531l0.234-0.488l0.254-0.488l0.276-0.467l0.297-0.445l0.34-0.445l0.34-0.426l0.382-0.402l0.383-0.404l0.424-0.381   l0.446-0.361l0.446-0.34l0.488-0.34l0.509-0.318l0.51-0.297l0.552-0.275l0.573-0.277l0.573-0.232l0.616-0.234l0.637-0.232   l0.637-0.191l0.68-0.191l0.679-0.17l0.701-0.148l0.742-0.127l0.743-0.107l0.765-0.105l0.785-0.086l0.807-0.062l0.807-0.043   l0.85-0.021l0.87-0.021l0.595,0.021h0.595l0.594,0.021l0.616,0.043l0.595,0.043l0.615,0.041l0.595,0.064l0.594,0.064l0.595,0.084   l0.595,0.105l0.573,0.107l0.573,0.127l0.573,0.148l0.552,0.148l0.552,0.17l0.552,0.191l0.531,0.213l0.51,0.232l0.509,0.234   l0.488,0.254l0.488,0.297l0.468,0.299l0.445,0.318l0.425,0.338l0.403,0.361l0.403,0.404l0.382,0.402l0.34,0.447l0.34,0.445   l0.318,0.488l0.297,0.51l0.255,0.529l0.233,0.574l0.233,0.594l0.17,0.615l0.17,0.639l0.128,0.678l0.127,0.723l0.063,0.723   l0.043,0.764c0.19,0,0.34,0,0.34,0c0.17,0,0.382,0,0.382,0h0.255h0.275h0.298h0.318h0.36h0.361h0.382h0.403h0.425h0.425h0.425   h0.445h0.446h0.445h0.446h0.445h0.446h0.425h0.424h0.425h0.403h0.383h0.36h0.361h0.318h0.297h0.276h0.233c0.212,0,0.403,0,0.403,0   c0.148,0,0.255,0,0.255,0c0.085,0,0.042-0.275,0.042-0.275l-0.021-0.277l-0.021-0.275l-0.043-0.297l-0.021-0.318l-0.021-0.297   l-0.043-0.32l-0.021-0.318l-0.043-0.318l-0.042-0.34l-0.043-0.338l-0.042-0.34l-0.043-0.34l-0.063-0.361l-0.043-0.34l-0.063-0.361   l-0.085-0.361l-0.085-0.359l-0.085-0.361l-0.085-0.383l-0.105-0.361l-0.106-0.381l-0.127-0.361l-0.128-0.383l-0.127-0.381   l-0.148-0.361l-0.17-0.383l-0.17-0.381l-0.191-0.383l-0.191-0.383l-0.212-0.381l-0.212-0.361l-0.255-0.383l-0.233-0.381   l-0.276-0.361l-0.276-0.383l-0.297-0.381l-0.318-0.361l-0.34-0.361l-0.36-0.361l-0.468-0.531l-0.509-0.508l-0.531-0.488   l-0.53-0.469l-0.553-0.424l-0.552-0.424l-0.573-0.404l-0.594-0.383l-0.595-0.338l-0.616-0.34l-0.594-0.318l-0.637-0.299   l-0.616-0.297l-0.637-0.254l-0.637-0.256l-0.637-0.232l-0.638-0.213l-0.657-0.191l-0.638-0.191l-0.637-0.168l-0.658-0.17   l-0.637-0.15l-0.637-0.127l-0.616-0.127l-0.637-0.105l-0.615-0.107l-0.616-0.084l-0.594-0.086l-0.595-0.062l-0.595-0.064   l-0.573-0.043l-0.573-0.041l-0.53-0.043l-0.531-0.021l-0.53-0.043h-0.51l-0.488-0.021l-0.467-0.02h-0.446h-0.424l-1.168,0.02   l-1.168,0.043l-1.167,0.064l-1.146,0.084l-1.146,0.129l-1.146,0.148l-1.146,0.189l-1.125,0.213l-1.104,0.234l-1.104,0.275   l-1.083,0.275l-1.062,0.34l-1.062,0.34l-1.04,0.383l-0.998,0.424l-0.997,0.445l-0.977,0.469l-0.935,0.508l-0.913,0.531   l-0.892,0.574l-0.87,0.594l-0.828,0.615l-0.785,0.658l-0.765,0.701l-0.743,0.721l-0.679,0.744l-0.658,0.785l-0.616,0.828   l-0.573,0.85l-0.53,0.869l-0.488,0.914l-0.446,0.955l-0.403,0.977l-0.339,1.02l-0.298,1.039l-0.255,1.084l-0.19,1.125l-0.148,1.146   l-0.085,1.188l-0.021,1.211v0.424v0.426l0.021,0.424l0.021,0.424l0.043,0.426l0.042,0.424l0.043,0.447l0.042,0.424l0.063,0.424   l0.085,0.426l0.064,0.424l0.105,0.424l0.106,0.426l0.106,0.424l0.105,0.426l0.149,0.424l0.148,0.424l0.148,0.426l0.17,0.424   l0.17,0.404l0.19,0.424l0.213,0.404l0.233,0.402l0.233,0.404l0.233,0.402l0.276,0.404l0.275,0.402l0.276,0.383l0.318,0.402   l0.318,0.383l0.34,0.383l0.361,0.361l0.36,0.381l0.403,0.361l0.403,0.361l0.425,0.361l0.446,0.338l0.445,0.361l0.488,0.34   l0.488,0.34l0.34,0.234l0.34,0.232l0.34,0.213l0.339,0.213l0.361,0.211l0.361,0.213l0.36,0.191l0.382,0.211l0.383,0.191l0.403,0.17   l0.403,0.191l0.425,0.17l0.424,0.191l0.425,0.17l0.446,0.17l0.467,0.17l0.467,0.17l0.51,0.17l0.488,0.17l0.51,0.148l0.53,0.17   l0.552,0.17l0.573,0.17l0.573,0.17l0.595,0.168l0.615,0.17l0.638,0.17l0.637,0.17l0.679,0.191l0.68,0.191l0.722,0.17l0.722,0.191   l0.743,0.191l0.786,0.211l0.785,0.213l0.828,0.213l0.828,0.211l0.87,0.213l0.892,0.234l0.913,0.232l0.827,0.191l0.828,0.17   l0.807,0.191l0.786,0.17l0.764,0.191l0.765,0.17l0.743,0.189l0.722,0.191l0.722,0.191l0.68,0.213l0.679,0.191l0.658,0.211   l0.637,0.213l0.616,0.234l0.615,0.232l0.573,0.256l0.573,0.232l0.531,0.275l0.53,0.277l0.51,0.297l0.488,0.297l0.445,0.297   l0.446,0.34l0.425,0.34l0.382,0.361l0.382,0.381l0.34,0.383l0.34,0.404l0.297,0.445l0.276,0.445l0.255,0.467l0.233,0.488   l0.191,0.51l0.19,0.531l0.148,0.553l0.128,0.572l0.085,0.615l0.063,0.615l0.043,0.658l0.021,0.68v0.318l-0.021,0.34l-0.021,0.361   l-0.043,0.383l-0.042,0.402l-0.063,0.404l-0.085,0.445l-0.106,0.445l-0.106,0.445l-0.148,0.469l-0.148,0.488l-0.191,0.488   l-0.19,0.488l-0.213,0.508l-0.255,0.488l-0.275,0.488l-0.298,0.51l-0.339,0.488l-0.361,0.488l-0.382,0.488l-0.425,0.488   l-0.446,0.467l-0.488,0.469l-0.509,0.445l-0.573,0.424l-0.573,0.404l-0.637,0.402l-0.68,0.383l-0.7,0.361l-0.765,0.34l-0.785,0.297   l-0.85,0.297l-0.87,0.254l-0.935,0.234l-0.977,0.191l-1.04,0.17l-1.062,0.127l-1.125,0.105l-1.189,0.064l-1.21,0.021l-1.38-0.021   l-1.316-0.064l-1.23-0.105l-1.189-0.127l-1.125-0.17l-1.062-0.191l-0.998-0.234l-0.934-0.275l-0.892-0.275l-0.85-0.318   l-0.785-0.361l-0.743-0.361l-0.68-0.381l-0.658-0.426l-0.594-0.424l-0.552-0.447l-0.51-0.467l-0.467-0.488l-0.446-0.488   l-0.403-0.51l-0.361-0.508l-0.339-0.531l-0.298-0.531l-0.255-0.551l-0.233-0.553l-0.212-0.531l-0.191-0.551l-0.17-0.553   l-0.148-0.553l-0.106-0.529l-0.105-0.553l-0.085-0.531l-0.063-0.529l-0.064-0.51l-0.042-0.51l-0.021-0.51l-0.021-0.467   l-0.021-0.467v-0.447v-0.445H164.271z"
   id="path13"
   style="stroke:none;stroke-opacity:1;fill:#000000;fill-opacity:1" />
</g>
<g
   id="LWPOLYLINE_4_"
   style="stroke:none;stroke-opacity:1;fill:#000000;fill-opacity:1">
	
		<path
   fill="none"
   stroke="#000000"
   stroke-width="0.7087"
   stroke-linecap="round"
   stroke-linejoin="round"
   stroke-miterlimit="10"
   d="   M265.281,303.396c0.17,0,0.276,0,0.276,0c0.148,0,0.318,0,0.318,0c0.191,0,0.425,0,0.425,0h0.233h0.275h0.276h0.297h0.298h0.318   h0.34h0.34h0.36h0.361h0.36h0.361h0.36h0.361h0.34h0.36h0.34h0.34h0.318h0.318h0.297h0.276h0.255h0.255h0.212   c0.191,0,0.361,0,0.361,0c0.148,0,0.255,0,0.255,0c0.17-0.191,0.17-0.402,0.17-0.402v-0.277v-0.359v-0.447v-0.488v-0.551v-0.617   v-0.658v-0.699v-0.744v-0.785v-0.807v-0.85v-0.869v-0.871v-0.912v-0.893v-0.912v-0.914v-0.912v-0.893v-0.869v-0.871v-0.85v-0.807   v-0.785v-0.742v-0.701v-0.658v-0.615v-0.553v-0.488v-0.445v-0.361v-0.297c0-0.213,0-0.34,0-0.34   c0.169-0.043,0.382-0.043,0.382-0.043h0.275h0.383h0.425h0.488h0.552h0.594h0.658h0.701h0.743h0.785h0.807h0.828h0.849h0.893h0.892   h0.892h0.912h0.892h0.892h0.893h0.892h0.849h0.828h0.807h0.785h0.743h0.701h0.658h0.594h0.552h0.488h0.446h0.34h0.297   c0.213,0,0.34,0,0.34,0c0.042-0.127,0.042-0.232,0.042-0.232c0-0.127,0-0.277,0-0.277c0-0.168,0-0.359,0-0.359   c0-0.213,0-0.426,0-0.426v-0.254v-0.256v-0.275v-0.275v-0.275v-0.32v-0.297v-0.297v-0.318v-0.318v-0.318v-0.297v-0.318v-0.297   v-0.299v-0.297v-0.275v-0.275v-0.256v-0.232v-0.234c0-0.213,0-0.402,0-0.402c0-0.17,0-0.318,0-0.318c0-0.129,0-0.213,0-0.213   c-0.169-0.148-0.382-0.148-0.382-0.148h-0.297h-0.34h-0.446h-0.488h-0.552h-0.594h-0.658h-0.701h-0.743h-0.785h-0.807h-0.828   h-0.849h-0.892h-0.893h-0.892h-0.892h-0.912h-0.892h-0.892h-0.893h-0.849h-0.828h-0.807h-0.785h-0.743h-0.701h-0.658h-0.594h-0.552   h-0.488h-0.425h-0.383h-0.275c-0.213,0-0.34,0-0.34,0c-0.042-0.17-0.042-0.383-0.042-0.383v-0.275v-0.361v-0.424v-0.488v-0.553   v-0.594v-0.637v-0.701v-0.744v-0.764v-0.807v-0.828v-0.85v-0.869v-0.871v-0.891v-0.893v-0.891v-0.893v-0.893v-0.869v-0.85v-0.828   v-0.785v-0.785v-0.723V250.6v-0.639v-0.615v-0.531v-0.488v-0.424v-0.361v-0.297c0-0.191,0-0.34,0-0.34   c-0.17-0.043-0.276-0.043-0.276-0.043c-0.148,0-0.318,0-0.318,0c-0.191,0-0.403,0-0.403,0h-0.255h-0.255h-0.276h-0.297h-0.318   h-0.318h-0.34h-0.34h-0.36h-0.34h-0.361h-0.36h-0.361h-0.36h-0.361h-0.36h-0.34h-0.34h-0.318h-0.298h-0.297h-0.276h-0.275h-0.233   h-0.233c-0.191,0-0.361,0-0.361,0c-0.148,0-0.255,0-0.255,0c-0.17,0.191-0.17,0.383-0.17,0.383v0.297v0.361v0.424v0.488v0.531   v0.615v0.639v0.699v0.723v0.785v0.785v0.828v0.85v0.869v0.893v0.893v0.891v0.893v0.891v0.871v0.869v0.85v0.828v0.807v0.764v0.744   v0.701v0.637v0.594v0.553v0.488v0.424v0.361v0.275c0,0.213,0,0.34,0,0.34c-0.17,0.043-0.382,0.043-0.382,0.043h-0.297h-0.361   h-0.445h-0.488h-0.573h-0.616h-0.658h-0.7h-0.765h-0.785h-0.828h-0.85h-0.87h-0.892h-0.892h-0.934h-0.913h-0.913h-0.913h-0.913   h-0.892h-0.87h-0.849h-0.808h-0.807h-0.743h-0.722h-0.658h-0.615h-0.552h-0.51h-0.425h-0.382h-0.297c-0.213,0-0.34,0-0.34,0   c-0.043,0.148-0.043,0.232-0.043,0.232c0,0.129,0,0.277,0,0.277c0,0.17,0,0.359,0,0.359c0,0.213,0,0.447,0,0.447v0.232v0.256v0.275   v0.275v0.297v0.299v0.297v0.318v0.297v0.318v0.318v0.318v0.297v0.297v0.32v0.275v0.275v0.275v0.256v0.254v0.213   c0,0.213,0,0.404,0,0.404c0,0.168,0,0.318,0,0.318c0,0.127,0,0.232,0,0.232c0.17,0.127,0.383,0.127,0.383,0.127h0.297h0.382h0.425   h0.51h0.552h0.615h0.658h0.722h0.743h0.807h0.808h0.849h0.87h0.892h0.913h0.913h0.913h0.913h0.934h0.892h0.892h0.87h0.85h0.828   h0.785h0.765h0.7h0.658h0.616h0.573h0.488h0.445h0.361h0.297c0.212,0,0.34,0,0.34,0   C265.281,279.109,265.281,303.396,265.281,303.396z"
   id="path16"
   style="stroke:none;stroke-opacity:1;fill:#000000;fill-opacity:1" />
</g>
<g
   id="LWPOLYLINE_5_"
   style="stroke:none;fill:#000000;fill-opacity:1">
	
		<path
   fill="none"
   stroke="#000000"
   stroke-width="0.7087"
   stroke-linecap="round"
   stroke-linejoin="round"
   stroke-miterlimit="10"
   d="   M180.852,646c0.127,0,0.318,0,0.318,0h0.233h0.297h0.361h0.403h0.445h0.51h0.531h0.594h0.595h0.658h0.658h0.7h0.701h0.722h0.743   h0.743h0.742h0.743h0.743h0.743h0.722h0.722h0.68h0.68h0.637h0.615h0.573h0.552h0.488h0.468h0.403h0.36h0.298h0.233   c0.17,0,0.275,0,0.275,0c0.043,0,0.043-0.254,0.043-0.254v-0.766v-1.273v-1.74v-2.123v-2.547v-2.93v-3.27v-3.609v-3.906v-4.162   v-4.414v-4.629v-4.797v-4.969v-5.096v-5.223v-5.307v-5.35v-5.393v-5.35v-5.35v-5.309v-5.223v-5.094v-4.969v-4.797v-4.629v-4.416   v-4.16v-3.906v-3.609v-3.27v-2.93v-2.547v-2.166v-1.697v-1.275v-0.764v-0.254c-0.128,0-0.298,0-0.298,0h-0.212h-0.297h-0.318   h-0.383h-0.424h-0.446h-0.51h-0.53h-0.573H196.2h-0.615h-0.637h-0.658h-0.68h-0.68h-0.679h-0.701h-0.7h-0.68h-0.679h-0.68h-0.658   h-0.637h-0.616h-0.594h-0.573h-0.531h-0.509h-0.446h-0.425h-0.382h-0.318h-0.298h-0.212c-0.17,0-0.255,0-0.255,0   c-0.042,0-0.658,0.551-0.658,0.551l-0.637,0.553l-0.658,0.551l-0.7,0.553l-0.701,0.594l-0.722,0.553l-0.743,0.594l-0.742,0.596   l-0.786,0.551l-0.785,0.596l-0.807,0.594l-0.828,0.594l-0.828,0.596l-0.849,0.594l-0.871,0.594l-0.892,0.596l-0.87,0.594   l-0.913,0.594l-0.913,0.596l-0.912,0.551l-0.935,0.596l-0.955,0.594l-0.935,0.594l-0.977,0.596l-0.955,0.551l-0.977,0.596   l-0.977,0.594l-0.977,0.553l-0.998,0.551l-0.977,0.596l-0.997,0.551l-0.998,0.553l-0.998,0.553l-1.019,0.508l-0.998,0.553   l-0.998,0.51l-0.998,0.551l-1.019,0.51l-0.998,0.51l-0.998,0.467c0,0.17,0,0.34,0,0.34v0.256v0.297v0.383v0.381v0.467v0.553v0.553   v0.594v0.637v0.637v0.68v0.721v0.723v0.764v0.766v0.764v0.764v0.766v0.764v0.764v0.723v0.721v0.723v0.68v0.678v0.639v0.594v0.553   v0.508v0.469v0.424v0.34v0.297v0.254c0,0.17,0,0.299,0,0.299c0,0.041,0.786-0.299,0.786-0.299l0.807-0.338l0.807-0.383l0.807-0.383   l0.828-0.381l0.849-0.426l0.85-0.424l0.85-0.426l0.87-0.467l0.87-0.467l0.892-0.467l0.87-0.467l0.893-0.51l0.892-0.51l0.892-0.51   l0.912-0.51l0.892-0.508l0.913-0.553l0.892-0.553l0.913-0.551l0.892-0.51l0.892-0.596l0.892-0.551l0.892-0.553l0.892-0.594   l0.871-0.553l0.892-0.551l0.87-0.596l0.849-0.594l0.85-0.553l0.85-0.594l0.827-0.553l0.828-0.594l0.807-0.553l0.807-0.594   l0.786-0.551l0.764-0.553l0.765-0.594l0.743-0.553l0.743-0.553V646z"
   id="path19"
   style="stroke:none;fill:#000000;fill-opacity:1" />
</g>
<g
   id="LWPOLYLINE_6_"
   style="stroke:none;fill:#000000;fill-opacity:1">
	
		<path
   fill="none"
   stroke="#000000"
   stroke-width="0.7087"
   stroke-linecap="round"
   stroke-linejoin="round"
   stroke-miterlimit="10"
   d="   M255.559,646c0.17,0,0.382,0,0.382,0h0.276h0.36h0.425h0.467H258h0.594h0.638h0.679h0.722h0.765h0.785h0.807h0.85h0.85h0.87h0.87   h0.87h0.893h0.87h0.87h0.85h0.828h0.827h0.786h0.743h0.722h0.679h0.658h0.573h0.531h0.488h0.424h0.34h0.276c0.212,0,0.34,0,0.34,0   c0.042-0.17,0.042-0.424,0.042-0.424v-0.297v-0.383v-0.424v-0.51v-0.596v-0.637v-0.68v-0.721v-0.764v-0.807v-0.85v-0.893v-0.891   v-0.936v-0.934v-0.934v-0.934v-0.936v-0.934v-0.934v-0.934v-0.893v-0.891v-0.807v-0.85v-0.766v-0.721v-0.68v-0.637v-0.594v-0.51   v-0.426v-0.381v-0.297v-0.256c-0.17-0.17-0.382-0.17-0.382-0.17h-0.276h-0.34h-0.424h-0.488h-0.531h-0.573h-0.658h-0.679h-0.722   h-0.743h-0.786h-0.827h-0.828h-0.85h-0.87h-0.87h-0.893h-0.87h-0.87h-0.87h-0.85h-0.85h-0.807h-0.785h-0.765h-0.722h-0.679h-0.638   H258h-0.531h-0.467h-0.425h-0.36h-0.276c-0.212,0-0.34,0-0.34,0C255.559,620.779,255.559,646,255.559,646z"
   id="path22"
   style="stroke:none;fill:#000000;fill-opacity:1" />
</g>
<g
   id="LWPOLYLINE_7_"
   style="stroke:none;fill:#000000;fill-opacity:1">
	
		<path
   fill="none"
   stroke="#000000"
   stroke-width="0.7087"
   stroke-linecap="round"
   stroke-linejoin="round"
   stroke-miterlimit="10"
   d="   M320.775,646c0.17,0,0.383,0,0.383,0h0.297h0.34h0.425h0.467h0.552h0.595h0.637h0.68h0.722h0.722h0.807h0.807h0.85h0.849h0.85   h0.892h0.892h0.849h0.892h0.85h0.85h0.849h0.807h0.807h0.765h0.722h0.68h0.637h0.595h0.509h0.51h0.382h0.383h0.255   c0.212,0,0.339,0,0.339,0c0.043-0.17,0.043-0.424,0.043-0.424v-0.297v-0.383v-0.424v-0.51v-0.596v-0.637v-0.68v-0.721v-0.764   v-0.807v-0.85v-0.893v-0.891v-0.936v-0.934v-0.934v-0.934v-0.936v-0.934v-0.934v-0.934v-0.893v-0.891v-0.807v-0.85v-0.766v-0.721   v-0.68v-0.637v-0.594v-0.51v-0.426v-0.381v-0.297v-0.256c-0.17-0.17-0.382-0.17-0.382-0.17h-0.255h-0.383h-0.382h-0.51h-0.509   h-0.595h-0.637h-0.68h-0.722h-0.765h-0.807h-0.807h-0.849h-0.85h-0.85h-0.892h-0.849h-0.892h-0.892h-0.85h-0.849h-0.85h-0.807   h-0.807h-0.722h-0.722h-0.68h-0.637h-0.595h-0.552h-0.467h-0.425h-0.34h-0.297c-0.213,0-0.34,0-0.34,0   C320.775,620.779,320.775,646,320.775,646z"
   id="path25"
   style="stroke:none;fill:#000000;fill-opacity:1" />
</g>
<g
   id="LWPOLYLINE_8_"
   style="stroke:none;fill:#000000;fill-opacity:1">
	
		<path
   fill="none"
   stroke="#000000"
   stroke-width="0.7087"
   stroke-linecap="round"
   stroke-linejoin="round"
   stroke-miterlimit="10"
   d="   M401.66,646c0.128,0,0.298,0,0.298,0h0.255h0.297h0.34h0.425h0.424h0.51h0.552h0.553h0.637h0.637h0.637h0.68h0.722h0.722h0.722   h0.765h0.722h0.764h0.723h0.722h0.722h0.722h0.68h0.679h0.637h0.595h0.595h0.51h0.509h0.468h0.382h0.382h0.298h0.212   c0.17,0,0.297,0,0.297,0c0.043-0.084,0.043-0.424,0.043-0.424v-0.467v-0.68v-0.85v-1.02v-1.146v-1.273v-1.443v-1.529v-1.613v-1.74   v-1.826v-1.867v-1.953v-2.039v-2.037v-2.08v-2.082v-2.123v-2.123v-2.123v-2.08v-2.037v-1.996v-1.953v-1.91v-1.826v-1.699v-1.654   v-1.529v-1.4v-1.316v-1.146v-0.977v-0.85v-0.68v-0.51v-0.297c0-0.127,0-0.553,0-0.553v-0.467v-0.467v-0.51v-0.51v-0.508v-0.51   v-0.553l0.042-0.551v-0.553v-0.594l0.043-0.553l0.042-0.594v-0.596l0.043-0.594l0.042-0.594l0.043-0.596l0.085-0.594l0.042-0.594   l0.043-0.596l0.085-0.637l0.084-0.594l0.085-0.596l0.085-0.594l0.128-0.594l0.085-0.596l0.127-0.594l0.128-0.594l0.17-0.553   l0.127-0.553l0.17-0.594l0.17-0.553l0.17-0.508l0.212-0.553l0.213-0.51l0.212-0.51l0.212-0.467l0.255-0.51l0.255-0.467l0.255-0.424   l0.17-0.34l0.212-0.34l0.213-0.383l0.212-0.381l0.255-0.383l0.297-0.424l0.298-0.383l0.297-0.424l0.34-0.426l0.34-0.424   l0.382-0.467l0.425-0.426l0.424-0.424l0.425-0.467l0.467-0.426l0.51-0.424l0.51-0.424l0.51-0.426l0.594-0.424l0.553-0.426   l0.594-0.424l0.637-0.383l0.68-0.381l0.637-0.383l0.722-0.383l0.723-0.34l0.764-0.338l0.765-0.299l0.807-0.297l0.807-0.297   l0.85-0.254l0.892-0.213l0.892-0.213l0.934-0.213l0.935-0.168l0.977-0.129l1.019-0.084l1.02-0.086l1.062-0.041l1.104-0.043   l1.613,0.043l1.528,0.127l1.444,0.17l1.358,0.254l1.316,0.297l1.231,0.34l1.146,0.426l1.104,0.51l1.019,0.508l0.977,0.596   l0.893,0.594l0.807,0.68l0.807,0.723l0.722,0.721l0.679,0.764l0.595,0.85l0.595,0.807l0.51,0.893l0.467,0.891l0.467,0.893   l0.382,0.934l0.34,0.934l0.34,0.977l0.255,0.977l0.255,0.936l0.212,0.977l0.213,0.977l0.127,0.977l0.17,0.977l0.085,0.977   l0.127,0.934l0.043,0.977l0.085,0.891l0.042,0.936v0.848l0.043,0.893v0.807v0.807v0.764v0.723c0,0.127,0,0.467,0,0.467v0.553v0.721   v0.934v1.146v1.232v1.443v1.57v1.699v1.783v1.91v1.996v2.123v2.123v2.25v2.25v2.293v2.336v2.334v2.336v2.293v2.293v2.293v2.207   v2.166v2.08v1.996v1.91v1.826v1.697v1.529v1.443v1.273v1.105v0.934v0.721v0.553v0.34c0.17,0.127,0.34,0.127,0.34,0.127h0.212h0.297   h0.383h0.382h0.467h0.51h0.51h0.594h0.595h0.637h0.68h0.68h0.722h0.722h0.722h0.722h0.765h0.722h0.764h0.723h0.722h0.722h0.679   h0.638h0.637h0.637h0.552h0.552h0.51h0.425h0.425h0.34h0.297h0.255c0.17,0,0.255,0,0.255,0c0.042-0.127,0.042-0.467,0.042-0.467   v-0.594v-0.766v-1.018v-1.146v-1.359v-1.529v-1.613v-1.824v-1.912v-1.994v-2.123v-2.252v-2.25v-2.377v-2.379v-2.42v-2.463v-2.461   v-2.506v-2.42v-2.463v-2.377v-2.379v-2.25v-2.207v-2.123v-2.039v-1.91v-1.783v-1.656v-1.529v-1.314v-1.189v-0.977v-0.807v-0.596   v-0.338c0-0.129,0-1.275,0-1.275v-1.061v-1.062l-0.042-1.018v-1.02l-0.043-0.934l-0.042-0.936l-0.043-0.891l-0.042-0.85   l-0.043-0.85l-0.042-0.764l-0.085-0.764l-0.043-0.766l-0.085-0.678l-0.042-0.68l-0.085-0.68l-0.085-0.637l-0.085-0.596   l-0.085-0.594l-0.127-0.551l-0.085-0.553l-0.085-0.51l-0.128-0.51l-0.085-0.467l-0.127-0.467l-0.128-0.424l-0.127-0.426   l-0.127-0.424l-0.128-0.383l-0.127-0.383l-0.128-0.338l-0.127-0.383l-0.17-0.34l-0.128-0.297l-0.169-0.34l-0.128-0.297l-0.17-0.297   l-0.17-0.299l-0.127-0.297l-0.17-0.254l-0.467-0.936l-0.51-0.891l-0.51-0.85l-0.594-0.85l-0.595-0.764l-0.637-0.807l-0.638-0.723   l-0.679-0.721l-0.722-0.68l-0.722-0.68l-0.765-0.637l-0.807-0.594l-0.807-0.596l-0.807-0.551l-0.85-0.553l-0.849-0.51l-0.892-0.467   l-0.85-0.467l-0.892-0.424l-0.935-0.426l-0.892-0.381l-0.934-0.34l-0.935-0.34l-0.892-0.34l-0.934-0.297l-0.935-0.256l-0.934-0.254   l-0.935-0.256l-0.934-0.211l-0.892-0.17l-0.935-0.17l-0.892-0.17l-0.892-0.127l-0.892-0.129l-0.85-0.084l-0.892-0.084l-0.807-0.043   l-0.849-0.043l-0.807-0.043h-0.765h-1.062l-1.019,0.043l-1.062,0.086l-1.02,0.084l-1.019,0.084l-1.02,0.129l-1.019,0.17l-1.02,0.17   l-1.019,0.211l-0.977,0.213l-0.977,0.254l-0.977,0.299l-0.977,0.254l-0.977,0.34l-0.935,0.34l-0.934,0.34l-0.935,0.381   l-0.892,0.426l-0.934,0.424l-0.892,0.426l-0.85,0.467l-0.85,0.467l-0.849,0.51l-0.85,0.551l-0.807,0.51l-0.807,0.596l-0.764,0.551   l-0.765,0.596l-0.765,0.637l-0.722,0.637l-0.679,0.68l-0.68,0.678l-0.68,0.68l-0.637,0.723l-0.637,0.721l-0.595,0.766l-0.595,0.764   l-0.552,0.764l-0.509,0.807l-0.51,0.807c0-0.084-0.043-0.211-0.043-0.211c0-0.213,0-0.426,0-0.426v-0.254l-0.042-0.297v-0.34   l-0.043-0.383v-0.383l-0.042-0.424v-0.467l-0.043-0.467v-0.467l-0.042-0.51v-0.51l-0.043-0.553l-0.042-0.551v-0.553l-0.043-0.553   l-0.042-0.508v-0.553l-0.042-0.553l-0.043-0.551v-0.51l-0.042-0.51v-0.467l-0.043-0.51v-0.424l-0.042-0.426v-0.381l-0.043-0.383   v-0.34l-0.042-0.297v-0.256V542.4c0-0.17-0.043-0.34-0.043-0.34c-0.127-0.086-0.297-0.086-0.297-0.086h-0.213h-0.297h-0.34h-0.382   h-0.425h-0.51h-0.509H417.2h-0.594h-0.595h-0.637h-0.68h-0.679h-0.68h-0.722h-0.722h-0.68h-0.722h-0.722h-0.722h-0.68h-0.68h-0.679   h-0.637h-0.595h-0.595h-0.552h-0.51h-0.467h-0.467h-0.383h-0.339h-0.298h-0.212c-0.17,0-0.255,0-0.255,0   c-0.043,0-0.043,0.34-0.043,0.34v0.34v0.34v0.34v0.34v0.34v0.34v0.34v0.34v0.338v0.383v0.34v0.34v0.383v0.338v0.34v0.383v0.34v0.34   v0.383v0.338v0.383V550v0.383v0.34v0.338v0.383v0.34v0.34v0.34v0.383v0.338v0.34v0.34v0.34v0.34v0.34v0.34v0.34v0.34V646z"
   id="path28"
   style="stroke:none;fill:#000000;fill-opacity:1" />
</g>
</svg>