<?xml version="1.0" encoding="UTF-8" standalone="no"?>
<!-- Generator: Adobe Illustrator 16.0.1, SVG Export Plug-In . SVG Version: 6.00 Build 0)  -->

<svg
   xmlns:dc="http://purl.org/dc/elements/1.1/"
   xmlns:cc="http://creativecommons.org/ns#"
   xmlns:rdf="http://www.w3.org/1999/02/22-rdf-syntax-ns#"
   xmlns:svg="http://www.w3.org/2000/svg"
   xmlns="http://www.w3.org/2000/svg"
   xmlns:sodipodi="http://sodipodi.sourceforge.net/DTD/sodipodi-0.dtd"
   xmlns:inkscape="http://www.inkscape.org/namespaces/inkscape"
   version="1.0"
   id="_x31_"
   x="0px"
   y="0px"
   width="612px"
   height="792px"
   viewBox="0 0 612 792"
   enable-background="new 0 0 612 792"
   xml:space="preserve"
   inkscape:version="0.48.2 r9819"
   sodipodi:docname="7091.svg"><metadata
   id="metadata37"><rdf:RDF><cc:Work
       rdf:about=""><dc:format>image/svg+xml</dc:format><dc:type
         rdf:resource="http://purl.org/dc/dcmitype/StillImage" /></cc:Work></rdf:RDF></metadata><defs
   id="defs35" /><sodipodi:namedview
   pagecolor="#ffffff"
   bordercolor="#666666"
   borderopacity="1"
   objecttolerance="10"
   gridtolerance="10"
   guidetolerance="10"
   inkscape:pageopacity="0"
   inkscape:pageshadow="2"
   inkscape:window-width="1920"
   inkscape:window-height="1073"
   id="namedview33"
   showgrid="false"
   inkscape:zoom="0.84281414"
   inkscape:cx="16.220994"
   inkscape:cy="460.44225"
   inkscape:window-x="0"
   inkscape:window-y="0"
   inkscape:window-maximized="1"
   inkscape:current-layer="_x31_" />
<g
   id="LWPOLYLINE"
   style="stroke:none;fill:#000000;fill-opacity:1">
	
		<path
   fill="none"
   stroke="#000000"
   stroke-width="0.7087"
   stroke-linecap="round"
   stroke-linejoin="round"
   stroke-miterlimit="10"
   d="   M158.72,646c0.151,0,0.324,0,0.324,0h0.237h0.303h0.367h0.411h0.475h0.497h0.562h0.584h0.626h0.648h0.691h0.691h0.734h0.734h0.734   h0.757h0.777h0.757h0.756h0.756h0.734h0.713h0.714h0.669h0.648h0.627h0.604h0.54h0.519h0.454h0.41h0.367h0.303h0.237   c0.173,0,0.281,0,0.281,0c0.043,0,0.043-0.303,0.043-0.303v-0.777v-1.297v-1.729v-2.203V637.1v-2.982v-3.326v-3.674v-3.932v-4.234   v-4.494v-4.709v-4.883v-5.1v-5.186v-5.314v-5.357v-5.445v-5.486v-5.488v-5.443v-5.359v-5.314v-5.186v-5.098v-4.883v-4.711v-4.492   v-4.236v-3.932v-3.672v-3.328v-2.98v-2.594v-2.203v-1.729v-1.297v-0.777v-0.303c-0.13,0-0.303,0-0.303,0h-0.216h-0.281h-0.345   h-0.368h-0.432h-0.476h-0.519h-0.54h-0.583h-0.605h-0.626h-0.648h-0.67h-0.691h-0.691h-0.691h-0.713h-0.691h-0.713h-0.691h-0.669   h-0.67h-0.648h-0.648h-0.604h-0.562h-0.562h-0.497h-0.476h-0.432h-0.39h-0.324h-0.28h-0.238c-0.15,0-0.259,0-0.259,0   c-0.021,0-0.67,0.562-0.67,0.562l-0.648,0.562l-0.669,0.604l-0.691,0.562l-0.713,0.561l-0.735,0.605l-0.756,0.605l-0.777,0.562   l-0.778,0.604l-0.82,0.605l-0.821,0.605l-0.843,0.604l-0.843,0.562l-0.864,0.605l-0.886,0.604l-0.886,0.605l-0.907,0.605   l-0.929,0.605l-0.93,0.604l-0.929,0.605l-0.95,0.605l-0.951,0.605l-0.972,0.604l-0.973,0.562l-0.993,0.605l-0.973,0.604   l-0.994,0.562l-1.015,0.605l-0.994,0.561l-1.016,0.562l-1.016,0.561l-1.016,0.562l-1.015,0.562l-1.016,0.561l-1.016,0.52   l-1.037,0.561l-1.016,0.52l-1.015,0.518l-1.016,0.52l-1.016,0.518c0,0.131,0,0.346,0,0.346v0.217v0.346v0.346v0.432v0.475v0.52   v0.562v0.604v0.648v0.691v0.691v0.734v0.734v0.734v0.779v0.777v0.777v0.777v0.777v0.779v0.777v0.734v0.734v0.691v0.648v0.648v0.604   v0.562v0.52v0.475v0.432v0.389v0.303v0.26c0,0.172,0,0.303,0,0.303c0,0.043,0.8-0.303,0.8-0.303l0.799-0.389l0.821-0.346   l0.843-0.389l0.842-0.434l0.843-0.389l0.864-0.432l0.886-0.475l0.886-0.434l0.886-0.475l0.886-0.475l0.908-0.52l0.907-0.475   l0.907-0.52l0.907-0.518l0.907-0.518l0.93-0.562l0.907-0.52l0.907-0.561l0.929-0.562l0.907-0.561l0.908-0.562l0.929-0.562   l0.907-0.604l0.886-0.562l0.907-0.562l0.886-0.604l0.886-0.562l0.864-0.605l0.886-0.604l0.843-0.562l0.864-0.605l0.821-0.561   l0.843-0.605l0.799-0.562l0.8-0.604l0.799-0.562l0.778-0.562l0.756-0.561l0.734-0.562V646z"
   id="path4"
   style="stroke:none;fill:#000000;fill-opacity:1" />
</g>
<g
   id="LWPOLYLINE_1_"
   style="stroke:none;fill:#000000;fill-opacity:1">
	
		<path
   fill="none"
   stroke="#000000"
   stroke-width="0.7087"
   stroke-linecap="round"
   stroke-linejoin="round"
   stroke-miterlimit="10"
   d="   M234.769,646c0.173,0,0.367,0,0.367,0h0.303h0.346h0.433h0.475h0.562h0.604h0.648h0.691h0.734h0.756h0.8h0.843h0.842h0.864h0.886   h0.886h0.908h0.886h0.886h0.886h0.864h0.864h0.82h0.8h0.777h0.734h0.691h0.648h0.605h0.54h0.475h0.433h0.367h0.281   c0.216,0,0.345,0,0.345,0c0.044-0.215,0.044-0.432,0.044-0.432v-0.303v-0.389v-0.432v-0.562v-0.562v-0.646v-0.691v-0.734v-0.822   v-0.82v-0.865v-0.863v-0.908v-0.949v-0.951v-0.951v-0.949v-0.994v-0.951v-0.951v-0.906v-0.908v-0.908v-0.863v-0.82v-0.779v-0.777   v-0.691v-0.648v-0.561v-0.52v-0.475v-0.389v-0.303v-0.217c-0.173-0.172-0.389-0.172-0.389-0.172h-0.281h-0.367h-0.433h-0.475h-0.54   h-0.605h-0.648h-0.691H253.5h-0.777h-0.8h-0.82h-0.864h-0.864h-0.886h-0.886h-0.886h-0.908h-0.886h-0.886h-0.864h-0.842h-0.843   h-0.8h-0.756h-0.734h-0.691h-0.648h-0.604h-0.562h-0.475h-0.433h-0.346h-0.303c-0.194,0-0.323,0-0.323,0   C234.769,620.334,234.769,646,234.769,646z"
   id="path7"
   style="stroke:none;fill:#000000;fill-opacity:1" />
</g>
<g
   id="LWPOLYLINE_2_"
   style="stroke:none;fill:#000000;fill-opacity:1">
	
		<path
   fill="none"
   stroke="#000000"
   stroke-width="0.7087"
   stroke-linecap="round"
   stroke-linejoin="round"
   stroke-miterlimit="10"
   d="   M301.139,646c0.173,0,0.367,0,0.367,0h0.303h0.346h0.432h0.476h0.562h0.605h0.648h0.69h0.735h0.777h0.778h0.82h0.864h0.864h0.864   h0.907h0.907h0.908h0.863h0.908h0.864h0.82h0.864h0.778h0.777h0.734h0.691h0.648h0.604h0.519h0.519h0.433h0.346h0.259   c0.216,0,0.346,0,0.346,0c0.043-0.215,0.043-0.432,0.043-0.432v-0.303v-0.389v-0.432v-0.562v-0.562v-0.646v-0.691v-0.734v-0.822   v-0.82v-0.865v-0.863v-0.908v-0.949v-0.951v-0.951v-0.949v-0.994v-0.951v-0.951v-0.906v-0.908v-0.908v-0.863v-0.82v-0.779v-0.777   v-0.691v-0.648v-0.561v-0.52v-0.475v-0.389v-0.303v-0.217c-0.173-0.172-0.389-0.172-0.389-0.172h-0.259h-0.346h-0.433h-0.519   h-0.519h-0.604h-0.648h-0.691h-0.734h-0.777h-0.778h-0.864h-0.82h-0.864h-0.908h-0.863h-0.908h-0.907h-0.907h-0.864h-0.864h-0.864   h-0.82h-0.778h-0.777h-0.735h-0.69h-0.648h-0.605h-0.562h-0.476h-0.432h-0.346h-0.303c-0.194,0-0.324,0-0.324,0   C301.139,620.334,301.139,646,301.139,646z"
   id="path10"
   style="stroke:none;fill:#000000;fill-opacity:1" />
</g>
<g
   id="LWPOLYLINE_3_"
   style="stroke:none;fill:#000000;fill-opacity:1">
	
		<path
   fill="none"
   stroke="#000000"
   stroke-width="0.7087"
   stroke-linecap="round"
   stroke-linejoin="round"
   stroke-miterlimit="10"
   d="   M383.432,646c0.13,0,0.346,0,0.346,0h0.216h0.303h0.346h0.432h0.476h0.476h0.562h0.562h0.648h0.648h0.69h0.691h0.691h0.735h0.777   h0.734h0.734h0.778h0.734h0.777h0.691h0.735h0.691h0.69h0.648h0.605h0.604h0.562h0.476h0.476h0.389h0.389h0.303h0.216   c0.173,0,0.303,0,0.303,0c0.043-0.129,0.043-0.432,0.043-0.432v-0.52v-0.691v-0.863V642.5v-1.166v-1.34v-1.426v-1.557v-1.684V633.6   v-1.859v-1.943v-1.988v-2.031v-2.074v-2.117v-2.16v-2.16v-2.117v-2.16v-2.117v-2.074v-2.074v-1.988v-1.9v-1.857v-1.771v-1.643   v-1.557v-1.469v-1.295v-1.168v-1.037v-0.863v-0.691v-0.477v-0.301c0-0.131,0-0.562,0-0.562v-0.475v-0.52v-0.475v-0.52v-0.518   v-0.562l0.043-0.561v-0.52v-0.605l0.044-0.561v-0.605l0.043-0.561l0.043-0.605v-0.605l0.043-0.605l0.044-0.604l0.086-0.605   l0.043-0.648l0.087-0.605l0.043-0.604l0.087-0.605l0.086-0.605l0.13-0.605l0.086-0.604l0.13-0.605l0.087-0.605l0.129-0.605   l0.173-0.604l0.13-0.562l0.173-0.561l0.173-0.562l0.173-0.562l0.216-0.518l0.216-0.52l0.217-0.518l0.216-0.52l0.259-0.475   l0.26-0.475l0.259-0.477l0.173-0.303l0.217-0.389l0.216-0.346l0.259-0.389l0.26-0.432l0.259-0.389l0.303-0.432l0.303-0.434   l0.346-0.432l0.389-0.432l0.389-0.432l0.389-0.432l0.433-0.477l0.432-0.432l0.476-0.432l0.519-0.477l0.519-0.432l0.562-0.432   l0.562-0.432l0.562-0.434l0.648-0.389l0.605-0.432l0.691-0.389l0.691-0.389l0.69-0.346l0.735-0.346l0.777-0.346l0.778-0.346   l0.82-0.303l0.821-0.26l0.864-0.258l0.907-0.26l0.907-0.217l0.951-0.172l0.95-0.174l0.994-0.129l1.037-0.131l1.037-0.086   l1.08-0.043h1.123l1.643,0.043l1.555,0.086l1.47,0.174l1.383,0.26l1.339,0.303l1.253,0.389l1.167,0.432l1.124,0.475l1.036,0.562   l0.994,0.562l0.907,0.646l0.864,0.691l0.778,0.691l0.734,0.779l0.691,0.777l0.648,0.82l0.562,0.865l0.519,0.863l0.519,0.908   l0.432,0.949l0.389,0.951l0.346,0.951l0.346,0.949l0.26,0.994l0.259,0.994l0.216,0.994l0.217,0.994l0.173,0.994l0.129,0.992   l0.087,0.994l0.13,0.951l0.043,0.951l0.086,0.949l0.044,0.908l0.043,0.908v0.863v0.865l0.043,0.82v0.777v0.734   c0,0.131,0,0.477,0,0.477v0.561v0.734v0.951v1.123v1.297v1.469v1.557v1.727v1.859v1.943v2.031v2.117v2.203v2.248v2.334v2.332v2.334   v2.377v2.375v2.377v2.334v2.289v2.291v2.16v2.16v2.031v1.945v1.814v1.729v1.598v1.469v1.254v1.166v0.951v0.734v0.562v0.346   c0.13,0.129,0.303,0.129,0.303,0.129h0.259h0.303h0.346h0.389h0.476h0.519h0.562h0.562h0.605h0.647h0.691h0.691h0.735h0.734h0.734   h0.777h0.735h0.777h0.734h0.734h0.735h0.734h0.691h0.691h0.647h0.605h0.562h0.562h0.519h0.476h0.389h0.346h0.303h0.259   c0.173,0,0.303,0,0.303,0c0-0.129,0-0.518,0-0.518v-0.562v-0.82v-0.994v-1.211v-1.338V639v-1.686V635.5v-1.943v-2.074v-2.16v-2.248   v-2.334v-2.375v-2.42v-2.506v-2.508v-2.506v-2.506v-2.506v-2.463v-2.463v-2.377v-2.332v-2.248v-2.16v-2.074v-1.945v-1.814v-1.686   v-1.512v-1.383v-1.166v-1.037v-0.777v-0.605v-0.346c0-0.129,0-1.297,0-1.297v-1.123v-1.08l-0.043-1.037v-0.994l-0.043-0.994   l-0.044-0.906l-0.043-0.908l-0.043-0.863l-0.043-0.865l-0.044-0.82l-0.043-0.777l-0.086-0.734l-0.087-0.736l-0.043-0.689   l-0.087-0.648l-0.086-0.648l-0.087-0.605l-0.086-0.605l-0.087-0.561l-0.129-0.562l-0.087-0.518l-0.13-0.52l-0.086-0.475   l-0.13-0.477l-0.13-0.432l-0.086-0.432l-0.13-0.432l-0.13-0.389l-0.173-0.389l-0.129-0.391l-0.13-0.346l-0.13-0.346l-0.173-0.344   l-0.129-0.303l-0.173-0.303l-0.173-0.346l-0.13-0.26l-0.173-0.303l-0.173-0.303l-0.476-0.906l-0.519-0.908l-0.519-0.863   l-0.562-0.865l-0.648-0.82l-0.604-0.777l-0.691-0.779l-0.691-0.691l-0.734-0.734l-0.734-0.646l-0.778-0.648l-0.821-0.648   l-0.82-0.562l-0.821-0.605l-0.864-0.518l-0.864-0.518l-0.864-0.477l-0.907-0.475l-0.907-0.432l-0.907-0.434l-0.951-0.389   l-0.95-0.389l-0.907-0.346l-0.951-0.303l-0.95-0.303l-0.951-0.301l-0.95-0.26l-0.95-0.217l-0.951-0.215l-0.907-0.217l-0.95-0.174   l-0.908-0.129l-0.907-0.129l-0.907-0.131l-0.864-0.086l-0.864-0.086l-0.864-0.086l-0.82-0.045h-0.821h-0.821h-1.037l-1.08,0.045   l-1.037,0.043l-1.08,0.086l-1.037,0.129l-1.037,0.131l-1.037,0.172l-1.037,0.174l-0.993,0.215l-1.037,0.217l-0.994,0.26   l-0.994,0.258l-0.993,0.303l-0.951,0.303l-0.993,0.346l-0.951,0.389l-0.95,0.389L419.814,541l-0.908,0.434l-0.907,0.475   l-0.907,0.432l-0.864,0.52l-0.864,0.518l-0.864,0.52l-0.82,0.561l-0.778,0.562l-0.821,0.605l-0.777,0.604l-0.734,0.648   l-0.734,0.648l-0.735,0.648l-0.691,0.691l-0.69,0.734l-0.648,0.691l-0.648,0.777l-0.604,0.734l-0.605,0.779l-0.562,0.82   l-0.519,0.777l-0.519,0.865c0-0.131,0-0.26,0-0.26c-0.043-0.174-0.043-0.389-0.043-0.389v-0.26l-0.043-0.303v-0.346V553.1   l-0.044-0.389v-0.432l-0.043-0.477v-0.475l-0.043-0.52l-0.043-0.518v-0.52l-0.044-0.518v-0.562l-0.043-0.561l-0.043-0.562v-0.561   l-0.043-0.562l-0.044-0.518v-0.562l-0.043-0.52l-0.043-0.518v-0.52l-0.043-0.475v-0.432l-0.044-0.432v-0.434l-0.043-0.389v-0.303   v-0.301l-0.043-0.303v-0.217c0-0.172,0-0.303,0-0.303c-0.173-0.086-0.346-0.086-0.346-0.086h-0.216h-0.303h-0.346h-0.389h-0.433   h-0.475h-0.562h-0.562h-0.604h-0.605h-0.647h-0.691h-0.691h-0.691h-0.734h-0.691h-0.735h-0.734h-0.734h-0.691h-0.734h-0.691h-0.648   h-0.647h-0.648h-0.605h-0.562h-0.519h-0.476h-0.475h-0.389h-0.346h-0.26h-0.259c-0.173,0-0.26,0-0.26,0   c-0.043,0-0.043,0.303-0.043,0.303v0.346v0.346v0.346v0.346v0.346v0.346v0.389v0.346v0.346v0.346v0.346v0.389v0.346v0.389v0.346   v0.346v0.389v0.346v0.389v0.346v0.346v0.389v0.346v0.346v0.389v0.346v0.346v0.389v0.346v0.346v0.346v0.391v0.346v0.346v0.344v0.346   v0.346v0.346v0.303V646z"
   id="path13"
   style="stroke:none;fill:#000000;fill-opacity:1" />
</g>
<g
   id="LWPOLYLINE_4_"
   style="stroke:none;fill:#000000;fill-opacity:1">
	
		<path
   style="fill:#000000;stroke:none;stroke-width:0.70870000000000000;stroke-linecap:round;stroke-linejoin:round;stroke-miterlimit:10;fill-opacity:1"
   d="M 95.8125 146 L 95.8125 278.75 L 95.8125 411.46875 L 516.1875 411.46875 L 516.1875 146 L 363.09375 146 L 407.3125 190.25 L 204.6875 190.25 L 248.90625 146 L 95.8125 146 z M 117.9375 168.125 L 194.9375 168.125 L 150.71875 212.375 L 461.28125 212.375 L 417.0625 168.125 L 494.0625 168.125 L 494.0625 389.34375 L 117.9375 389.34375 L 117.9375 278.75 L 117.9375 168.125 z "
   id="polygon16" />
</g>
<g
   id="LWPOLYLINE_5_">
	
		
</g>
<g
   id="LWPOLYLINE_6_">
	
		<path
   style="fill:#000000;stroke:none;stroke-width:0.70870000000000000;stroke-linecap:round;stroke-linejoin:round;stroke-miterlimit:10;fill-opacity:1"
   d="m 140.075,367.23401 88.49299,0 0,22.123 -88.49299,0 z"
   id="rect22" />
</g>
<g
   id="LWPOLYLINE_7_">
	
		<path
   style="fill:#000000;stroke:none;stroke-width:0.70870000000000000;stroke-linecap:round;stroke-linejoin:round;stroke-miterlimit:10;fill-opacity:1"
   d="m 383.43201,367.23401 88.49299,0 0,22.123 -88.49299,0 z"
   id="rect25" />
</g>
<g
   id="LWPOLYLINE_8_">
	
		<path
   fill="none"
   stroke="#000000"
   stroke-width="0.7087"
   stroke-linecap="round"
   stroke-linejoin="round"
   stroke-miterlimit="10"
   d="   M248.034,329.188c0.194,0,0.324,0,0.324,0c0.173,0,0.367,0,0.367,0h0.237h0.26h0.28h0.303h0.346h0.346h0.367h0.367h0.411h0.389   h0.432h0.411h0.432h0.41h0.433h0.432h0.411h0.41h0.41h0.39h0.389h0.367h0.346h0.324h0.324h0.28h0.26h0.237c0.194,0,0.367,0,0.367,0   c0.13,0,0.238,0,0.238,0c0.086-0.086,0.086-0.281,0.086-0.281v-0.303v-0.453v-0.541v-0.646v-0.734v-0.822v-0.928v-0.973v-1.059   v-1.123v-1.168v-1.209v-1.254v-1.297v-1.316v-1.34v-1.361v-1.361v-1.361v-1.361v-1.338v-1.318v-1.297v-1.254v-1.209v-1.166v-1.125   v-1.059v-0.971v-0.93v-0.82v-0.734v-0.648v-0.541v-0.432v-0.324c0-0.195,0-0.26,0-0.26c0.064,0,0.26,0,0.26,0h0.302h0.433h0.54   h0.648h0.734h0.843h0.907h0.972h1.059h1.103h1.166h1.21h1.253h1.297h1.296h1.34h1.361h1.339h1.361h1.34h1.339h1.318h1.274h1.253   h1.231h1.146h1.123h1.037h0.994h0.907h0.821h0.734h0.647h0.541h0.432h0.324c0.194,0,0.259,0,0.259,0c0-0.172,0-0.281,0-0.281   c0-0.15,0-0.322,0-0.322c0-0.195,0-0.434,0-0.434v-0.236v-0.281v-0.281v-0.303v-0.324v-0.324v-0.346v-0.346v-0.367v-0.367v-0.367   v-0.367v-0.367v-0.367v-0.367v-0.346v-0.367v-0.346v-0.324v-0.324v-0.303v-0.281v-0.258v-0.26v-0.217c0-0.193,0-0.389,0-0.389   c0-0.129,0-0.258,0-0.258c-0.064-0.152-0.259-0.152-0.259-0.152h-0.324h-0.432h-0.541h-0.647h-0.734h-0.821h-0.907h-0.994h-1.037   h-1.123h-1.146h-1.231h-1.253h-1.274h-1.318h-1.339h-1.34h-1.361h-1.339h-1.361h-1.34h-1.296h-1.297h-1.253h-1.21h-1.166h-1.103   h-1.059h-0.972h-0.907h-0.843h-0.734h-0.648h-0.54h-0.433h-0.302c-0.195,0-0.26,0-0.26,0c0-0.193,0-0.41,0-0.41v-0.281v-0.389   v-0.432v-0.52v-0.561v-0.627v-0.67v-0.734v-0.756v-0.801v-0.842v-0.842v-0.887v-0.906v-0.93v-0.93v-0.928v-0.93v-0.93v-0.906   v-0.908v-0.885v-0.865v-0.842v-0.801v-0.756v-0.713v-0.691v-0.627v-0.561v-0.498v-0.453v-0.367v-0.303c0-0.215,0-0.346,0-0.346   c0.064-0.043,0.26-0.043,0.26-0.043h0.346h0.453h0.583h0.67h0.778h0.864h0.972h1.037h1.102h1.167h1.231h1.296h1.318h1.361h1.383   h1.404h1.426h1.426h1.426h1.426h1.426h1.383h1.361h1.318h1.274h1.231h1.167h1.123h1.037h0.95h0.864h0.8h0.67h0.562h0.476h0.323   c0.217,0,0.281,0,0.281,0c0-0.15,0-0.281,0-0.281c0-0.129,0-0.303,0-0.303c0-0.193,0-0.41,0-0.41v-0.236v-0.26v-0.281v-0.281   v-0.303v-0.322v-0.324v-0.346v-0.346v-0.346v-0.346v-0.367v-0.346v-0.346v-0.367v-0.346v-0.324v-0.324V251v-0.303v-0.303v-0.26   v-0.258v-0.238c0-0.217,0-0.41,0-0.41c0-0.174,0-0.324,0-0.324c0-0.195,0-0.238,0-0.238c-0.087-0.021-0.367-0.021-0.367-0.021   h-0.433h-0.583h-0.756h-0.864h-1.016h-1.146H291.2h-1.36h-1.426h-1.534h-1.577h-1.664h-1.729h-1.75h-1.814h-1.836h-1.837h-1.857   h-1.858h-1.837h-1.836h-1.814h-1.75h-1.729h-1.664h-1.577h-1.534h-1.426h-1.36h-1.231h-1.146h-1.016h-0.864h-0.756h-0.583h-0.433   h-0.28C248.034,248.645,248.034,329.188,248.034,329.188z"
   id="path28"
   style="stroke:none;fill:#000000;fill-opacity:1" />
</g>
<g
   id="LWPOLYLINE_9_">
	
		<path
   fill="none"
   stroke="#000000"
   stroke-width="0.7087"
   stroke-linecap="round"
   stroke-linejoin="round"
   stroke-miterlimit="10"
   d="   M334.691,316.787c0.173,0,0.259,0,0.259,0c0.13,0,0.303,0,0.303,0c0.216,0,0.432,0,0.432,0h0.217h0.259h0.26h0.302h0.303h0.303   h0.346h0.302h0.346h0.346h0.346h0.39h0.346h0.346h0.346h0.345h0.303h0.346h0.303h0.303h0.302h0.26h0.259h0.217   c0.216,0,0.432,0,0.432,0c0.173,0,0.303,0,0.303,0c0.173,0,0.259,0,0.259,0c0-0.174,0-0.391,0-0.391v-0.279v-0.367v-0.412v-0.496   v-0.541v-0.604v-0.648v-0.691v-0.734v-0.777v-0.801v-0.842v-0.842v-0.865v-0.885v-0.908v-0.887v-0.906v-0.887v-0.885v-0.865v-0.863   v-0.822v-0.799v-0.777v-0.734v-0.691v-0.648v-0.605v-0.539v-0.498v-0.432v-0.346v-0.303c0-0.193,0-0.324,0-0.324   c0.173-0.043,0.389-0.043,0.389-0.043h0.26h0.346h0.432h0.476h0.519h0.604h0.648h0.648h0.734h0.778h0.777h0.821h0.82h0.864h0.864   h0.864h0.864h0.864h0.907h0.864h0.821h0.864h0.82h0.778h0.734h0.734h0.691h0.605h0.604h0.519h0.476h0.432h0.346h0.303   c0.173,0,0.303,0,0.303,0c0.043-0.15,0.043-0.236,0.043-0.236c0-0.131,0-0.281,0-0.281c0-0.152,0-0.346,0-0.346   c0-0.217,0-0.432,0-0.432v-0.238v-0.26v-0.26v-0.279v-0.281v-0.303v-0.303v-0.303v-0.303v-0.303v-0.322v-0.303v-0.303v-0.303   v-0.281v-0.281v-0.279v-0.281v-0.238v-0.238v-0.236c0-0.195,0-0.389,0-0.389c0-0.174,0-0.324,0-0.324c0-0.109,0-0.217,0-0.217   c-0.173-0.129-0.346-0.129-0.346-0.129h-0.303h-0.346h-0.432h-0.476h-0.519h-0.604h-0.605h-0.691h-0.734h-0.734h-0.778h-0.82   h-0.864h-0.821h-0.864h-0.907h-0.864h-0.864h-0.864h-0.864h-0.864h-0.82h-0.821h-0.777h-0.778h-0.734h-0.648h-0.648h-0.604h-0.519   h-0.476h-0.432h-0.346h-0.26c-0.216,0-0.346,0-0.346,0c-0.043-0.174-0.043-0.389-0.043-0.389v-0.281v-0.346v-0.41v-0.498v-0.518   v-0.605v-0.627v-0.691v-0.734v-0.756v-0.777v-0.822v-0.842v-0.863v-0.865v-0.863v-0.887v-0.885v-0.887v-0.863v-0.865v-0.82v-0.822   v-0.799v-0.756v-0.713v-0.691v-0.648v-0.584v-0.539v-0.475v-0.434v-0.346v-0.279c0-0.195,0-0.324,0-0.324   c-0.13-0.045-0.259-0.045-0.259-0.045c-0.13,0-0.303,0-0.303,0c-0.216,0-0.432,0-0.432,0h-0.217h-0.259h-0.26h-0.302h-0.303h-0.303   h-0.346h-0.303h-0.345h-0.346h-0.346h-0.346h-0.39h-0.346h-0.346h-0.346h-0.302h-0.346h-0.303h-0.303h-0.302h-0.26h-0.259h-0.217   c-0.216,0-0.432,0-0.432,0c-0.173,0-0.303,0-0.303,0c-0.173,0-0.259,0-0.259,0c0,0.174,0,0.369,0,0.369v0.279v0.346v0.434v0.475   v0.539v0.584v0.648v0.691v0.713v0.756v0.799v0.822v0.82v0.865v0.863v0.887v0.885v0.887v0.863v0.865v0.863v0.842v0.822v0.777v0.756   v0.734v0.691v0.627v0.605v0.518v0.498v0.41v0.346v0.281c0,0.215,0,0.346,0,0.346c-0.173,0.043-0.39,0.043-0.39,0.043h-0.259h-0.389   h-0.389h-0.519h-0.519h-0.605h-0.648h-0.69h-0.735h-0.777h-0.778h-0.82h-0.864h-0.864h-0.864h-0.907h-0.907h-0.864h-0.907h-0.864   h-0.864h-0.864h-0.821h-0.777h-0.778h-0.734h-0.691h-0.648h-0.604h-0.562h-0.476h-0.433h-0.346h-0.302c-0.173,0-0.303,0-0.303,0   c-0.043,0.129-0.043,0.236-0.043,0.236c0,0.109,0,0.26,0,0.26c0,0.174,0,0.367,0,0.367c0,0.195,0,0.432,0,0.432v0.238v0.238v0.281   v0.279v0.281v0.281v0.303v0.303v0.303v0.322v0.303v0.303v0.303v0.303v0.303v0.281v0.279v0.26v0.26v0.238v0.215   c0,0.217,0,0.41,0,0.41c0,0.152,0,0.303,0,0.303c0,0.131,0,0.217,0,0.217c0.173,0.15,0.346,0.15,0.346,0.15h0.302h0.346h0.433   h0.476h0.562h0.604h0.648h0.691h0.734h0.778h0.777h0.821h0.864h0.864h0.864h0.907h0.864h0.907h0.907h0.864h0.864h0.864h0.82h0.778   h0.777h0.735h0.69h0.648h0.605h0.519h0.519h0.389h0.389h0.259c0.217,0,0.346,0,0.346,0   C334.691,292.848,334.691,316.787,334.691,316.787z"
   id="path31"
   style="stroke:none;fill:#000000;fill-opacity:1" />
</g>
</svg>