<?xml version="1.0" encoding="UTF-8" standalone="no"?>
<!-- Generator: Adobe Illustrator 16.0.1, SVG Export Plug-In . SVG Version: 6.00 Build 0)  -->

<svg
   xmlns:dc="http://purl.org/dc/elements/1.1/"
   xmlns:cc="http://creativecommons.org/ns#"
   xmlns:rdf="http://www.w3.org/1999/02/22-rdf-syntax-ns#"
   xmlns:svg="http://www.w3.org/2000/svg"
   xmlns="http://www.w3.org/2000/svg"
   xmlns:xlink="http://www.w3.org/1999/xlink"
   xmlns:sodipodi="http://sodipodi.sourceforge.net/DTD/sodipodi-0.dtd"
   xmlns:inkscape="http://www.inkscape.org/namespaces/inkscape"
   version="1.0"
   id="_x31_"
   x="0px"
   y="0px"
   width="350"
   height="350"
   viewBox="0 0 350 350"
   enable-background="new 0 0 612 792"
   xml:space="preserve"
   inkscape:version="0.48.2 r9819"
   sodipodi:docname="7092.svg"><metadata
   id="metadata37"><rdf:RDF><cc:Work
       rdf:about=""><dc:format>image/svg+xml</dc:format><dc:type
         rdf:resource="http://purl.org/dc/dcmitype/StillImage" /></cc:Work></rdf:RDF></metadata><defs
   id="defs35"><radialGradient
     r="333.18735"
     fy="710.99164"
     fx="373.24265"
     cy="710.99164"
     cx="373.24265"
     gradientTransform="matrix(0.86272608,1.0667183e-7,-5.1097115e-8,0.31434,-147.00617,81.5576)"
     gradientUnits="userSpaceOnUse"
     id="radialGradient3092"
     xlink:href="#linearGradient5443"
     inkscape:collect="always" /><radialGradient
     r="333.18735"
     fy="467.91885"
     fx="373.24265"
     cy="467.91885"
     cx="373.24265"
     gradientTransform="matrix(0.83535071,2.5391117e-7,-2.4564601e-7,0.80815889,-136.78854,-203.15302)"
     gradientUnits="userSpaceOnUse"
     id="radialGradient3088"
     xlink:href="#linearGradient5443"
     inkscape:collect="always" /><radialGradient
     r="333.18735"
     fy="467.91885"
     fx="373.24265"
     cy="467.91885"
     cx="373.24265"
     gradientTransform="matrix(0.83535071,2.5391117e-7,-2.4564601e-7,0.80815889,783.12101,707.99698)"
     gradientUnits="userSpaceOnUse"
     id="radialGradient3736"
     xlink:href="#linearGradient5443"
     inkscape:collect="always" /><linearGradient
     y2="254.73526"
     x2="123.47623"
     y1="344.03848"
     x1="123.50603"
     gradientTransform="matrix(2.3189708,0,0,2.0930998,-99.17808,-231.54972)"
     gradientUnits="userSpaceOnUse"
     id="linearGradient3734"
     xlink:href="#linearGradient3187"
     inkscape:collect="always" /><radialGradient
     r="333.18735"
     fy="710.99164"
     fx="373.24265"
     cy="710.99164"
     cx="373.24265"
     gradientTransform="matrix(0.86272608,1.0667183e-7,-5.1097115e-8,0.31434,772.90338,992.7076)"
     gradientUnits="userSpaceOnUse"
     id="radialGradient3732"
     xlink:href="#linearGradient5443"
     inkscape:collect="always" /><radialGradient
     r="333.18735"
     fy="710.99164"
     fx="373.24265"
     cy="710.99164"
     cx="373.24265"
     gradientTransform="matrix(0.86272608,1.0667183e-7,-5.1097115e-8,0.31434,772.90338,992.7076)"
     gradientUnits="userSpaceOnUse"
     id="radialGradient3722"
     xlink:href="#linearGradient5443"
     inkscape:collect="always" /><radialGradient
     r="333.18735"
     fy="467.91885"
     fx="373.24265"
     cy="467.91885"
     cx="373.24265"
     gradientTransform="matrix(0.83535071,2.5391117e-7,-2.4564601e-7,0.80815889,783.12101,707.99698)"
     gradientUnits="userSpaceOnUse"
     id="radialGradient3718"
     xlink:href="#linearGradient5443"
     inkscape:collect="always" /><radialGradient
     r="333.18735"
     fy="467.91885"
     fx="373.24265"
     cy="467.91885"
     cx="373.24265"
     gradientTransform="matrix(0.9201975,2.7970099e-7,-2.7059634e-7,0.8902438,-163.70313,61.921561)"
     gradientUnits="userSpaceOnUse"
     id="radialGradient3703"
     xlink:href="#linearGradient5443"
     inkscape:collect="always" /><linearGradient
     y2="254.73526"
     x2="123.47623"
     y1="344.03848"
     x1="123.50603"
     gradientTransform="matrix(2.3189708,0,0,2.0930998,-99.17808,-231.54972)"
     gradientUnits="userSpaceOnUse"
     id="linearGradient3701"
     xlink:href="#linearGradient3187"
     inkscape:collect="always" /><radialGradient
     r="333.18735"
     fy="710.99164"
     fx="373.24265"
     cy="710.99164"
     cx="373.24265"
     gradientTransform="matrix(0.9503534,1.1750652e-7,-5.6287062e-8,0.3462676,-174.95857,375.55031)"
     gradientUnits="userSpaceOnUse"
     id="radialGradient3699"
     xlink:href="#linearGradient5443"
     inkscape:collect="always" /><radialGradient
     r="333.18735"
     fy="467.91885"
     fx="373.24265"
     cy="467.91885"
     cx="373.24265"
     gradientTransform="matrix(0.9201975,2.7970099e-7,-2.7059634e-7,0.8902438,-163.70313,61.921561)"
     gradientUnits="userSpaceOnUse"
     id="radialGradient3680"
     xlink:href="#linearGradient5443"
     inkscape:collect="always" /><linearGradient
     y2="254.73526"
     x2="123.47623"
     y1="344.03848"
     x1="123.50603"
     gradientTransform="matrix(2.3189708,0,0,2.0930998,-99.17808,-231.54972)"
     gradientUnits="userSpaceOnUse"
     id="linearGradient3678"
     xlink:href="#linearGradient3187"
     inkscape:collect="always" /><radialGradient
     r="333.18735"
     fy="710.99164"
     fx="373.24265"
     cy="710.99164"
     cx="373.24265"
     gradientTransform="matrix(0.9503534,1.1750652e-7,-5.6287062e-8,0.3462676,-174.95857,375.55031)"
     gradientUnits="userSpaceOnUse"
     id="radialGradient3676"
     xlink:href="#linearGradient5443"
     inkscape:collect="always" /><radialGradient
     r="333.18735"
     fy="467.91885"
     fx="373.24265"
     cy="467.91885"
     cx="373.24265"
     gradientTransform="matrix(0.9201975,2.7970099e-7,-2.7059634e-7,0.8902438,-163.70313,61.921561)"
     gradientUnits="userSpaceOnUse"
     id="radialGradient3654"
     xlink:href="#linearGradient5443"
     inkscape:collect="always" /><linearGradient
     y2="254.73526"
     x2="123.47623"
     y1="344.03848"
     x1="123.50603"
     gradientTransform="matrix(2.3189708,0,0,2.0930998,-99.17808,-231.54972)"
     gradientUnits="userSpaceOnUse"
     id="linearGradient3652"
     xlink:href="#linearGradient3187"
     inkscape:collect="always" /><radialGradient
     r="333.18735"
     fy="710.99164"
     fx="373.24265"
     cy="710.99164"
     cx="373.24265"
     gradientTransform="matrix(0.9503534,1.1750652e-7,-5.6287062e-8,0.3462676,-174.95857,375.55031)"
     gradientUnits="userSpaceOnUse"
     id="radialGradient3650"
     xlink:href="#linearGradient5443"
     inkscape:collect="always" /><radialGradient
     r="333.18735"
     fy="467.91885"
     fx="373.24265"
     cy="467.91885"
     cx="373.24265"
     gradientTransform="matrix(0.9201975,2.7970099e-7,-2.7059634e-7,0.8902438,-163.70313,61.921561)"
     gradientUnits="userSpaceOnUse"
     id="radialGradient3627"
     xlink:href="#linearGradient5443"
     inkscape:collect="always" /><linearGradient
     y2="254.73526"
     x2="123.47623"
     y1="344.03848"
     x1="123.50603"
     gradientTransform="matrix(2.3189708,0,0,2.0930998,-99.17808,-231.54972)"
     gradientUnits="userSpaceOnUse"
     id="linearGradient3625"
     xlink:href="#linearGradient3187"
     inkscape:collect="always" /><radialGradient
     r="333.18735"
     fy="710.99164"
     fx="373.24265"
     cy="710.99164"
     cx="373.24265"
     gradientTransform="matrix(0.9503534,1.1750652e-7,-5.6287062e-8,0.3462676,-174.95857,375.55031)"
     gradientUnits="userSpaceOnUse"
     id="radialGradient3623"
     xlink:href="#linearGradient5443"
     inkscape:collect="always" /><radialGradient
     r="333.18735"
     fy="467.91885"
     fx="373.24265"
     cy="467.91885"
     cx="373.24265"
     gradientTransform="matrix(0.9201975,2.7970099e-7,-2.7059634e-7,0.8902438,-163.70313,61.921561)"
     gradientUnits="userSpaceOnUse"
     id="radialGradient3599"
     xlink:href="#linearGradient5443"
     inkscape:collect="always" /><linearGradient
     y2="254.73526"
     x2="123.47623"
     y1="344.03848"
     x1="123.50603"
     gradientTransform="matrix(2.3189708,0,0,2.0930998,-99.17808,-231.54972)"
     gradientUnits="userSpaceOnUse"
     id="linearGradient3597"
     xlink:href="#linearGradient3187"
     inkscape:collect="always" /><radialGradient
     r="333.18735"
     fy="710.99164"
     fx="373.24265"
     cy="710.99164"
     cx="373.24265"
     gradientTransform="matrix(0.9503534,1.1750652e-7,-5.6287062e-8,0.3462676,-174.95857,375.55031)"
     gradientUnits="userSpaceOnUse"
     id="radialGradient3595"
     xlink:href="#linearGradient5443"
     inkscape:collect="always" /><radialGradient
     r="333.18735"
     fy="467.91885"
     fx="373.24265"
     cy="467.91885"
     cx="373.24265"
     gradientTransform="matrix(0.9201975,2.7970099e-7,-2.7059634e-7,0.8902438,-163.70313,61.921561)"
     gradientUnits="userSpaceOnUse"
     id="radialGradient3525"
     xlink:href="#linearGradient5443"
     inkscape:collect="always" /><linearGradient
     y2="254.73526"
     x2="123.47623"
     y1="344.03848"
     x1="123.50603"
     gradientTransform="matrix(2.3189708,0,0,2.0930998,-99.17808,-231.54972)"
     gradientUnits="userSpaceOnUse"
     id="linearGradient3523"
     xlink:href="#linearGradient3187"
     inkscape:collect="always" /><radialGradient
     r="333.18735"
     fy="710.99164"
     fx="373.24265"
     cy="710.99164"
     cx="373.24265"
     gradientTransform="matrix(0.9503534,1.1750652e-7,-5.6287062e-8,0.3462676,-174.95857,375.55031)"
     gradientUnits="userSpaceOnUse"
     id="radialGradient3521"
     xlink:href="#linearGradient5443"
     inkscape:collect="always" /><radialGradient
     r="333.18735"
     fy="467.91885"
     fx="373.24265"
     cy="467.91885"
     cx="373.24265"
     gradientTransform="matrix(0.9201975,2.7970099e-7,-2.7059634e-7,0.8902438,-163.70313,61.921561)"
     gradientUnits="userSpaceOnUse"
     id="radialGradient3497"
     xlink:href="#linearGradient5443"
     inkscape:collect="always" /><linearGradient
     y2="254.73526"
     x2="123.47623"
     y1="344.03848"
     x1="123.50603"
     gradientTransform="matrix(2.3189708,0,0,2.0930998,-99.17808,-231.54972)"
     gradientUnits="userSpaceOnUse"
     id="linearGradient3495"
     xlink:href="#linearGradient3187"
     inkscape:collect="always" /><radialGradient
     r="333.18735"
     fy="710.99164"
     fx="373.24265"
     cy="710.99164"
     cx="373.24265"
     gradientTransform="matrix(0.9503534,1.1750652e-7,-5.6287062e-8,0.3462676,-174.95857,375.55031)"
     gradientUnits="userSpaceOnUse"
     id="radialGradient3493"
     xlink:href="#linearGradient5443"
     inkscape:collect="always" /><linearGradient
     id="linearGradient5443"><stop
       id="stop5445"
       offset="0"
       style="stop-color:#ffffff;stop-opacity:0;" /><stop
       id="stop5447"
       offset="1"
       style="stop-color:#000000;stop-opacity:0.33962265;" /></linearGradient><linearGradient
     id="linearGradient3157"><stop
       style="stop-color:#49bcff;stop-opacity:1;"
       offset="0"
       id="stop3159" /><stop
       style="stop-color:#494c96;stop-opacity:1;"
       offset="1"
       id="stop3161" /></linearGradient><linearGradient
     id="linearGradient3171"><stop
       id="stop3173"
       offset="0"
       style="stop-color:#49bcff;stop-opacity:1;" /><stop
       id="stop3175"
       offset="1"
       style="stop-color:#494cdc;stop-opacity:1;" /></linearGradient><linearGradient
     id="linearGradient3187"><stop
       style="stop-color:#ffffff;stop-opacity:0.39622641;"
       offset="0"
       id="stop3189" /><stop
       style="stop-color:#000000;stop-opacity:1;"
       offset="1"
       id="stop3191" /></linearGradient><linearGradient
     id="linearGradient4395"><stop
       style="stop-color:#110084;stop-opacity:1;"
       offset="0"
       id="stop4397" /><stop
       style="stop-color:#a695ff;stop-opacity:1;"
       offset="1"
       id="stop4399" /></linearGradient><linearGradient
     id="linearGradient4383"><stop
       style="stop-color:#00037f;stop-opacity:1;"
       offset="0"
       id="stop4385" /><stop
       style="stop-color:#00037f;stop-opacity:0;"
       offset="1"
       id="stop4387" /></linearGradient><inkscape:perspective
     sodipodi:type="inkscape:persp3d"
     inkscape:vp_x="0 : 526.18109 : 1"
     inkscape:vp_y="0 : 1000 : 0"
     inkscape:vp_z="744.09448 : 526.18109 : 1"
     inkscape:persp3d-origin="372.04724 : 350.78739 : 1"
     id="perspective3214" /><linearGradient
     inkscape:collect="always"
     xlink:href="#linearGradient4383"
     id="linearGradient4389"
     x1="371.42194"
     y1="298.59412"
     x2="396.91168"
     y2="655.4505"
     gradientUnits="userSpaceOnUse" /><linearGradient
     inkscape:collect="always"
     xlink:href="#linearGradient4395"
     id="linearGradient4401"
     x1="360.49777"
     y1="167.50403"
     x2="360.49777"
     y2="540.86719"
     gradientUnits="userSpaceOnUse" /><linearGradient
     inkscape:collect="always"
     xlink:href="#linearGradient3187"
     id="linearGradient4562"
     gradientUnits="userSpaceOnUse"
     gradientTransform="matrix(2.3189708,0,0,2.0930998,93.115298,-256.84999)"
     x1="123.50603"
     y1="344.03848"
     x2="123.47623"
     y2="254.73526" /><radialGradient
     inkscape:collect="always"
     xlink:href="#linearGradient3171"
     id="radialGradient4569"
     gradientUnits="userSpaceOnUse"
     gradientTransform="matrix(0.9201975,2.7970099e-7,-2.7059634e-7,0.8902438,28.590287,48.634335)"
     cx="373.24265"
     cy="467.91885"
     fx="373.24265"
     fy="467.91885"
     r="333.18735" /><radialGradient
     inkscape:collect="always"
     xlink:href="#linearGradient3157"
     id="radialGradient4572"
     gradientUnits="userSpaceOnUse"
     gradientTransform="matrix(0.9503534,1.1750652e-7,-5.6287062e-8,0.3462676,17.334826,362.44227)"
     cx="373.24265"
     cy="710.99164"
     fx="373.24265"
     fy="710.99164"
     r="333.18735" /><filter
     inkscape:collect="always"
     id="filter4659"
     color-interpolation-filters="sRGB"><feGaussianBlur
       inkscape:collect="always"
       stdDeviation="2.7750933"
       id="feGaussianBlur4661" /></filter><radialGradient
     inkscape:collect="always"
     xlink:href="#linearGradient3157"
     id="radialGradient4766"
     gradientUnits="userSpaceOnUse"
     gradientTransform="matrix(0.9503534,1.1750652e-7,-5.6287062e-8,0.3462676,17.334826,362.44227)"
     cx="373.24265"
     cy="710.99164"
     fx="373.24265"
     fy="710.99164"
     r="333.18735" /><radialGradient
     inkscape:collect="always"
     xlink:href="#linearGradient3171"
     id="radialGradient4768"
     gradientUnits="userSpaceOnUse"
     gradientTransform="matrix(0.9201975,2.7970099e-7,-2.7059634e-7,0.8902438,28.590287,48.634335)"
     cx="373.24265"
     cy="467.91885"
     fx="373.24265"
     fy="467.91885"
     r="333.18735" /><linearGradient
     inkscape:collect="always"
     xlink:href="#linearGradient3187"
     id="linearGradient4770"
     gradientUnits="userSpaceOnUse"
     gradientTransform="matrix(2.3189708,0,0,2.0930998,93.115298,-256.84999)"
     x1="123.50603"
     y1="344.03848"
     x2="123.47623"
     y2="254.73526" /><linearGradient
     inkscape:collect="always"
     xlink:href="#linearGradient3187"
     id="linearGradient4773"
     gradientUnits="userSpaceOnUse"
     gradientTransform="matrix(2.3189708,0,0,2.0930998,93.115298,-256.84999)"
     x1="123.50603"
     y1="344.03848"
     x2="123.47623"
     y2="254.73526" /><radialGradient
     inkscape:collect="always"
     xlink:href="#linearGradient3171"
     id="radialGradient4776"
     gradientUnits="userSpaceOnUse"
     gradientTransform="matrix(0.9201975,2.7970099e-7,-2.7059634e-7,0.8902438,28.590287,48.634335)"
     cx="373.24265"
     cy="467.91885"
     fx="373.24265"
     fy="467.91885"
     r="333.18735" /><radialGradient
     inkscape:collect="always"
     xlink:href="#linearGradient3157"
     id="radialGradient4779"
     gradientUnits="userSpaceOnUse"
     gradientTransform="matrix(0.9503534,1.1750652e-7,-5.6287062e-8,0.3462676,17.334826,362.44227)"
     cx="373.24265"
     cy="710.99164"
     fx="373.24265"
     fy="710.99164"
     r="333.18735" /><radialGradient
     inkscape:collect="always"
     xlink:href="#linearGradient3157"
     id="radialGradient4790"
     gradientUnits="userSpaceOnUse"
     gradientTransform="matrix(0.9503534,1.1750652e-7,-5.6287062e-8,0.3462676,17.334826,362.44227)"
     cx="373.24265"
     cy="710.99164"
     fx="373.24265"
     fy="710.99164"
     r="333.18735" /><radialGradient
     inkscape:collect="always"
     xlink:href="#linearGradient3171"
     id="radialGradient4792"
     gradientUnits="userSpaceOnUse"
     gradientTransform="matrix(0.9201975,2.7970099e-7,-2.7059634e-7,0.8902438,28.590287,48.634335)"
     cx="373.24265"
     cy="467.91885"
     fx="373.24265"
     fy="467.91885"
     r="333.18735" /><linearGradient
     inkscape:collect="always"
     xlink:href="#linearGradient3187"
     id="linearGradient4794"
     gradientUnits="userSpaceOnUse"
     gradientTransform="matrix(2.3189708,0,0,2.0930998,93.115298,-256.84999)"
     x1="123.50603"
     y1="344.03848"
     x2="123.47623"
     y2="254.73526" /><linearGradient
     inkscape:collect="always"
     xlink:href="#linearGradient3187"
     id="linearGradient4799"
     gradientUnits="userSpaceOnUse"
     gradientTransform="matrix(2.3189708,0,0,2.0930998,93.115298,-256.84999)"
     x1="123.50603"
     y1="344.03848"
     x2="123.47623"
     y2="254.73526" /><radialGradient
     inkscape:collect="always"
     xlink:href="#linearGradient3171"
     id="radialGradient4802"
     gradientUnits="userSpaceOnUse"
     gradientTransform="matrix(0.9201975,2.7970099e-7,-2.7059634e-7,0.8902438,28.590287,48.634335)"
     cx="373.24265"
     cy="467.91885"
     fx="373.24265"
     fy="467.91885"
     r="333.18735" /><radialGradient
     inkscape:collect="always"
     xlink:href="#linearGradient3157"
     id="radialGradient4805"
     gradientUnits="userSpaceOnUse"
     gradientTransform="matrix(0.9503534,1.1750652e-7,-5.6287062e-8,0.3462676,17.334826,362.44227)"
     cx="373.24265"
     cy="710.99164"
     fx="373.24265"
     fy="710.99164"
     r="333.18735" /><radialGradient
     inkscape:collect="always"
     xlink:href="#linearGradient3157"
     id="radialGradient4820"
     gradientUnits="userSpaceOnUse"
     gradientTransform="matrix(0.9503534,1.1750652e-7,-5.6287062e-8,0.3462676,17.334826,362.44227)"
     cx="373.24265"
     cy="710.99164"
     fx="373.24265"
     fy="710.99164"
     r="333.18735" /><radialGradient
     inkscape:collect="always"
     xlink:href="#linearGradient3171"
     id="radialGradient4822"
     gradientUnits="userSpaceOnUse"
     gradientTransform="matrix(0.9201975,2.7970099e-7,-2.7059634e-7,0.8902438,28.590287,48.634335)"
     cx="373.24265"
     cy="467.91885"
     fx="373.24265"
     fy="467.91885"
     r="333.18735" /><linearGradient
     inkscape:collect="always"
     xlink:href="#linearGradient3187"
     id="linearGradient4824"
     gradientUnits="userSpaceOnUse"
     gradientTransform="matrix(2.3189708,0,0,2.0930998,93.115298,-256.84999)"
     x1="123.50603"
     y1="344.03848"
     x2="123.47623"
     y2="254.73526" /><linearGradient
     inkscape:collect="always"
     xlink:href="#linearGradient3187"
     id="linearGradient4827"
     gradientUnits="userSpaceOnUse"
     gradientTransform="matrix(2.3189708,0,0,2.0930998,-99.17808,-231.54972)"
     x1="123.50603"
     y1="344.03848"
     x2="123.47623"
     y2="254.73526" /><radialGradient
     inkscape:collect="always"
     xlink:href="#linearGradient5443"
     id="radialGradient4832"
     gradientUnits="userSpaceOnUse"
     gradientTransform="matrix(0.9201975,2.7970099e-7,-2.7059634e-7,0.8902438,-163.70313,61.921561)"
     cx="373.24265"
     cy="467.91885"
     fx="373.24265"
     fy="467.91885"
     r="333.18735" /><radialGradient
     inkscape:collect="always"
     xlink:href="#linearGradient5443"
     id="radialGradient4835"
     gradientUnits="userSpaceOnUse"
     gradientTransform="matrix(0.9503534,1.1750652e-7,-5.6287062e-8,0.3462676,-174.95857,375.55031)"
     cx="373.24265"
     cy="710.99164"
     fx="373.24265"
     fy="710.99164"
     r="333.18735" /><filter
     inkscape:collect="always"
     id="filter5511"
     color-interpolation-filters="sRGB"><feGaussianBlur
       inkscape:collect="always"
       stdDeviation="3.2374974"
       id="feGaussianBlur5513" /></filter><radialGradient
     inkscape:collect="always"
     xlink:href="#linearGradient5443-5"
     id="radialGradient4835-3"
     gradientUnits="userSpaceOnUse"
     gradientTransform="matrix(0.9503534,1.1750652e-7,-5.6287062e-8,0.3462676,317.80591,185.68771)"
     cx="373.24265"
     cy="710.99164"
     fx="373.24265"
     fy="710.99164"
     r="333.18735" /><linearGradient
     id="linearGradient5443-5"><stop
       id="stop5445-4"
       offset="0"
       style="stop-color:#ffffff;stop-opacity:0;" /><stop
       id="stop5447-3"
       offset="1"
       style="stop-color:#000000;stop-opacity:0.33962265;" /></linearGradient><radialGradient
     inkscape:collect="always"
     xlink:href="#linearGradient5443"
     id="radialGradient3272"
     gradientUnits="userSpaceOnUse"
     gradientTransform="matrix(0.9503534,1.1750652e-7,-5.6287062e-8,0.3462676,-174.95857,375.55031)"
     cx="373.24265"
     cy="710.99164"
     fx="373.24265"
     fy="710.99164"
     r="333.18735" /><linearGradient
     inkscape:collect="always"
     xlink:href="#linearGradient3187"
     id="linearGradient3274"
     gradientUnits="userSpaceOnUse"
     gradientTransform="matrix(2.3189708,0,0,2.0930998,-99.17808,-231.54972)"
     x1="123.50603"
     y1="344.03848"
     x2="123.47623"
     y2="254.73526" /><radialGradient
     inkscape:collect="always"
     xlink:href="#linearGradient5443"
     id="radialGradient3276"
     gradientUnits="userSpaceOnUse"
     gradientTransform="matrix(0.9201975,2.7970099e-7,-2.7059634e-7,0.8902438,-163.70313,61.921561)"
     cx="373.24265"
     cy="467.91885"
     fx="373.24265"
     fy="467.91885"
     r="333.18735" /></defs><sodipodi:namedview
   pagecolor="#ffffff"
   bordercolor="#666666"
   borderopacity="1"
   objecttolerance="10"
   gridtolerance="10"
   guidetolerance="10"
   inkscape:pageopacity="0"
   inkscape:pageshadow="2"
   inkscape:window-width="1920"
   inkscape:window-height="1068"
   id="namedview33"
   showgrid="false"
   inkscape:zoom="1.1919192"
   inkscape:cx="90.650127"
   inkscape:cy="175"
   inkscape:window-x="0"
   inkscape:window-y="0"
   inkscape:window-maximized="1"
   inkscape:current-layer="_x31_"
   fit-margin-top="0"
   fit-margin-left="0"
   fit-margin-right="0"
   fit-margin-bottom="0" />









<g
   id="g3301"
   transform="translate(-4.0524846e-6,3.5529444e-6)"><rect
     inkscape:export-ydpi="29.879425"
     inkscape:export-xdpi="29.879425"
     inkscape:export-filename="C:\Documents and Settings\adscro24\Desktop\128.png"
     style="opacity:0.61338286;fill:#464646;fill-opacity:0.78540775;stroke:none;filter:url(#filter4659)"
     id="rect3279"
     width="152.93848"
     height="152.93848"
     x="135.39355"
     y="48.636749"
     rx="16.067965"
     ry="12.45238"
     transform="matrix(2.1051501,0,0,2.1051501,-271.00298,-88.36689)" /><rect
     inkscape:export-ydpi="29.879425"
     inkscape:export-xdpi="29.879425"
     inkscape:export-filename="C:\Documents and Settings\adscro24\Desktop\128.png"
     style="opacity:0.61338286;fill:url(#radialGradient3092);fill-opacity:1;stroke:#000000;stroke-width:3.26806188;stroke-miterlimit:4;stroke-opacity:1;stroke-dasharray:none"
     id="rect3155"
     width="321.95847"
     height="321.95847"
     x="14.020748"
     y="14.020716"
     rx="33.825481"
     ry="26.21413" /><path
     transform="matrix(0.90779502,0,0,0.90779502,11.82035,-259.3651)"
     inkscape:export-ydpi="29.879425"
     inkscape:export-xdpi="29.879425"
     inkscape:export-filename="C:\Documents and Settings\adscro24\Desktop\128.png"
     inkscape:connector-curvature="0"
     style="opacity:0.61338286;fill:url(#linearGradient3734);fill-opacity:1;stroke:none;filter:url(#filter5511)"
     d="m 46.58172,323.34879 c -19.62748,0 -35.44272,12.0976 -35.44272,27.14163 l 0,124.30857 c 29.25482,11.38638 132.70149,11.89599 165.40488,-5.79022 33.32802,-18.02397 127.54379,-68.44264 171.82484,-52.72052 l 0,-65.79783 c 0,-15.04403 -15.7986,-27.14163 -35.4261,-27.14163 l -266.3609,0 z M 11.139,586.81982 l 0,42.88373 c 0,1.33144 0.14331,2.63588 0.38253,3.915 -0.11919,-12.81092 -0.25965,-28.88939 -0.38253,-46.79873 z"
     id="rect3177" /><rect
     inkscape:export-ydpi="29.879425"
     inkscape:export-xdpi="29.879425"
     inkscape:export-filename="C:\Documents and Settings\adscro24\Desktop\128.png"
     style="opacity:0.61338286;fill:url(#radialGradient3088);fill-opacity:1;stroke:#ffffff;stroke-width:0.68992418;stroke-linecap:square;stroke-miterlimit:4;stroke-opacity:1;stroke-dasharray:none"
     id="rect3473"
     width="306.12445"
     height="306.12445"
     x="21.937801"
     y="21.937769"
     rx="32.161926"
     ry="24.924913" /><rect
     inkscape:export-ydpi="29.879425"
     inkscape:export-xdpi="29.879425"
     inkscape:export-filename="C:\Documents and Settings\adscro24\Desktop\128.png"
     style="opacity:0.61338286;fill:#ffffff;fill-opacity:0;stroke:#000000;stroke-width:3.26806188;stroke-miterlimit:4;stroke-opacity:1;stroke-dasharray:none"
     id="rect3155-2"
     width="321.95847"
     height="321.95847"
     x="14.020748"
     y="14.020716"
     rx="33.825481"
     ry="26.21413" /><g
     transform="translate(400.39145,135.8211)"
     style="fill:#000000;fill-opacity:1;stroke:none"
     id="LWPOLYLINE_2_-2">
	
		
</g></g><g
   id="g2999"
   transform="matrix(0.50168362,0,0,0.50168362,21.485312,-23.666716)"><g
     style="fill:#000000;fill-opacity:1;stroke:none"
     id="LWPOLYLINE">
	
		<path
   id="polygon4"
   d="m 306,164.71875 -200.53125,116.3125 0,121.625 0,110.96875 199.1875,115 201.875,-115 0,-231.28125 L 306,164.71875 z m 0,38.78125 167.09375,98.9375 0,191.15625 -168.4375,97.5625 -165.75,-97.5625 0,-90.9375 0,-102.90625 L 306,203.5 z"
   style="fill:#000000;fill-opacity:1;stroke:none"
   inkscape:connector-curvature="0" />
</g><g
     id="LWPOLYLINE_1_">
	
		
</g><g
     transform="translate(-1.2584746,0)"
     style="fill:#000000;fill-opacity:1;stroke:none"
     id="LWPOLYLINE_2_">
	
		<path
   inkscape:connector-curvature="0"
   id="rect10"
   d="m 506.521,363.918 66.83999,0 0,66.809 -66.83999,0 z"
   style="fill:#000000;fill-opacity:1;stroke:none" />
</g><g
     transform="translate(1.2584746,0)"
     style="fill:#000000;fill-opacity:1;stroke:none"
     id="LWPOLYLINE_3_">
	
		<path
   inkscape:connector-curvature="0"
   id="rect13"
   d="m 38.637001,363.918 66.839999,0 0,66.809 -66.839999,0 z"
   style="fill:#000000;fill-opacity:1;stroke:none" />
</g><g
     transform="translate(0,-1.6779661)"
     style="fill:#000000;fill-opacity:1;stroke:none"
     id="LWPOLYLINE_4_">
	
		<path
   inkscape:connector-curvature="0"
   id="rect16"
   d="m 390.427,566.91498 66.85,0 0,66.851 -66.85,0 z"
   style="fill:#000000;fill-opacity:1;stroke:none"
   transform="matrix(0.4999,0.8661,-0.8661,0.4999,731.8934,-66.8694)" />
</g><g
     style="fill:#000000;fill-opacity:1;stroke:none"
     id="LWPOLYLINE_5_">
	
		<path
   id="polygon19"
   d="m 378.193,207.521 57.506,33.42 34.727,-60.181 -58.813,-33.42 z"
   style="fill:#000000;fill-opacity:1;stroke:none"
   inkscape:connector-curvature="0" />
</g><g
     transform="translate(0.41949153,0.83898305)"
     style="fill:#000000;fill-opacity:1;stroke:none"
     id="LWPOLYLINE_6_">
	
		<path
   inkscape:connector-curvature="0"
   id="polygon22"
   d="M 176.332,239.604 235.145,206.184 201.725,146 142.912,179.422 z"
   style="fill:#000000;fill-opacity:1;stroke:none" />
</g><g
     transform="translate(0.41949153,-0.83898305)"
     style="fill:#000000;fill-opacity:1;stroke:none"
     id="LWPOLYLINE_7_">
	
		<path
   inkscape:connector-curvature="0"
   id="polygon25"
   d="m 142.912,612.58 58.813,33.42 33.42,-57.506 -58.813,-33.42 z"
   style="fill:#000000;fill-opacity:1;stroke:none" />
</g><g
     style="fill:#000000;fill-opacity:1;stroke:none"
     id="LWPOLYLINE_8_">
	
		<path
   id="polygon28"
   d="m 303.65625,339.875 -1,0.0312 -1,0.0312 -1,0.0625 -1,0.0625 -1,0.0937 -1,0.125 -1,0.125 -0.96875,0.15625 -1,0.15625 -1,0.1875 -0.96875,0.1875 -0.96875,0.25 -1,0.21875 -0.96875,0.25 -0.9375,0.28125 -1,0.28125 -0.9375,0.3125 -0.9375,0.3125 -0.96875,0.3125 -0.9375,0.375 -0.9375,0.34375 -0.90625,0.40625 -0.9375,0.375 -0.90625,0.4375 -0.90625,0.4375 -0.90625,0.4375 -0.90625,0.46875 -0.875,0.4375 -0.875,0.53125 -0.84375,0.5 -0.84375,0.53125 -0.84375,0.53125 -0.875,0.5625 -0.8125,0.5625 -0.8125,0.59375 -0.8125,0.5625 -0.78125,0.625 -0.78125,0.625 -0.78125,0.65625 -0.75,0.65625 -0.78125,0.65625 -0.71875,0.6875 L 264.75,356 l -0.71875,0.71875 -0.71875,0.6875 -0.6875,0.75 -0.6875,0.6875 -0.65625,0.78125 -0.65625,0.78125 -0.65625,0.78125 -0.59375,0.78125 -0.625,0.78125 -0.59375,0.8125 -0.59375,0.8125 -0.5625,0.8125 -0.53125,0.84375 -0.5625,0.84375 -0.53125,0.875 -0.46875,0.84375 -0.5,0.875 -0.5,0.875 -0.46875,0.875 -0.4375,0.9375 -0.4375,0.90625 -0.40625,0.90625 -0.40625,0.90625 -0.375,0.9375 -0.375,0.9375 -0.34375,0.9375 -0.34375,0.9375 -0.3125,0.96875 -0.3125,0.9375 -0.28125,0.96875 -0.25,0.96875 -0.28125,0.96875 -0.21875,0.96875 -0.21875,1 -0.21875,0.96875 -0.1875,0.96875 -0.15625,1 -0.125,1 -0.125,0.96875 -0.15625,1.03125 -0.0937,0.96875 -0.0625,1 -0.0625,1.03125 -0.0312,1 -0.0312,0.96875 0,1 0,1.03125 0.0312,1 0.0312,1.03125 0.0625,0.96875 0.0625,1 0.0937,1.03125 0.15625,0.96875 0.125,1 0.125,0.96875 0.15625,0.96875 0.1875,1.0625 0.21875,0.96875 0.21875,0.96875 0.21875,1 0.28125,0.90625 0.25,0.96875 0.28125,1 0.3125,0.96875 0.3125,0.90625 0.34375,1 0.34375,0.90625 0.375,0.90625 0.375,0.96875 0.40625,0.9375 0.40625,0.90625 0.4375,0.90625 0.4375,0.84375 0.46875,0.9375 0.5,0.84375 0.5,0.90625 0.46875,0.84375 0.53125,0.84375 0.5625,0.84375 0.53125,0.875 0.5625,0.84375 0.59375,0.78125 0.59375,0.78125 0.625,0.84375 0.59375,0.78125 0.65625,0.78125 0.65625,0.71875 0.65625,0.78125 0.6875,0.71875 0.6875,0.71875 0.71875,0.71875 0.71875,0.71875 0.71875,0.71875 0.71875,0.65625 0.78125,0.65625 0.75,0.65625 0.78125,0.65625 0.78125,0.5625 0.78125,0.65625 0.8125,0.59375 0.8125,0.59375 0.8125,0.59375 0.875,0.5 0.84375,0.53125 0.84375,0.53125 0.84375,0.53125 0.875,0.5 0.875,0.46875 0.90625,0.46875 0.90625,0.4375 0.90625,0.46875 0.90625,0.375 0.9375,0.40625 0.90625,0.375 0.9375,0.40625 0.9375,0.3125 0.96875,0.34375 0.9375,0.3125 0.9375,0.34375 1,0.25 0.9375,0.25 0.96875,0.28125 1,0.25 0.96875,0.1875 0.96875,0.21875 1,0.1875 1,0.125 0.96875,0.1875 1,0.15625 1,0.0625 1,0.125 1,0.0625 1,0.0625 1,0.0625 1,0 1,0 1.03125,0 0.96875,0 1.03125,-0.0625 1,-0.0625 0.96875,-0.0625 1.03125,-0.125 1,-0.0625 0.96875,-0.15625 0.96875,-0.1875 1,-0.125 1.03125,-0.1875 0.96875,-0.21875 1,-0.1875 0.96875,-0.25 0.90625,-0.28125 1,-0.25 0.96875,-0.25 0.96875,-0.34375 0.9375,-0.3125 0.96875,-0.34375 0.90625,-0.3125 0.90625,-0.40625 1,-0.375 0.90625,-0.40625 0.90625,-0.375 0.9375,-0.46875 0.84375,-0.4375 0.90625,-0.46875 0.84375,-0.46875 0.90625,-0.5 0.84375,-0.53125 0.875,-0.53125 0.84375,-0.53125 0.84375,-0.5 0.84375,-0.59375 0.78125,-0.59375 0.84375,-0.59375 0.78125,-0.65625 0.78125,-0.5625 0.78125,-0.65625 0.71875,-0.65625 0.8125,-0.65625 0.6875,-0.65625 0.71875,-0.71875 0.71875,-0.71875 L 346,437.25 l 0.71875,-0.71875 0.65625,-0.71875 0.65625,-0.78125 0.65625,-0.71875 0.65625,-0.78125 0.59375,-0.78125 0.65625,-0.84375 0.5625,-0.78125 0.59375,-0.78125 0.59375,-0.84375 0.53125,-0.875 0.5,-0.84375 0.53125,-0.84375 0.53125,-0.84375 0.53125,-0.90625 0.4375,-0.84375 0.46875,-0.9375 0.4375,-0.84375 0.46875,-0.90625 0.40625,-0.90625 0.375,-0.9375 0.40625,-0.96875 0.375,-0.90625 0.34375,-0.90625 0.3125,-1 0.3125,-0.90625 0.34375,-0.96875 0.25,-1 0.28125,-0.96875 0.25,-0.90625 0.25,-1 0.21875,-0.96875 0.1875,-0.96875 0.1875,-1.0625 0.125,-0.96875 0.21875,-0.96875 0.125,-1 0.0625,-0.96875 0.125,-1.03125 0.0625,-1 0.0625,-0.96875 0.0625,-1.03125 0,-1 0,-1.03125 0,-1 0,-0.96875 -0.0625,-1 -0.0625,-1.03125 -0.0625,-1 -0.125,-0.96875 -0.0625,-1.03125 -0.125,-0.96875 -0.21875,-1 -0.125,-1 -0.1875,-0.96875 -0.1875,-0.96875 -0.21875,-1 -0.25,-0.96875 -0.25,-0.96875 -0.28125,-0.96875 -0.25,-0.96875 -0.34375,-0.9375 L 359,378.625 l -0.3125,-0.9375 -0.34375,-0.9375 -0.375,-0.9375 -0.40625,-0.9375 -0.375,-0.90625 -0.40625,-0.90625 -0.46875,-0.90625 -0.4375,-0.9375 -0.46875,-0.875 -0.4375,-0.875 -0.53125,-0.875 -0.53125,-0.84375 -0.53125,-0.875 -0.5,-0.84375 -0.53125,-0.84375 -0.59375,-0.8125 -0.59375,-0.8125 -0.5625,-0.8125 -0.65625,-0.78125 -0.59375,-0.78125 -0.65625,-0.78125 -0.65625,-0.78125 -0.65625,-0.78125 -0.65625,-0.6875 -0.71875,-0.75 -0.71875,-0.6875 L 344.5625,356 l -0.71875,-0.6875 -0.6875,-0.6875 -0.8125,-0.65625 -0.71875,-0.65625 -0.78125,-0.65625 -0.78125,-0.625 -0.78125,-0.625 -0.84375,-0.5625 -0.78125,-0.59375 -0.84375,-0.5625 -0.84375,-0.5625 -0.84375,-0.53125 -0.875,-0.53125 -0.84375,-0.5 -0.90625,-0.53125 -0.84375,-0.4375 -0.90625,-0.46875 -0.84375,-0.4375 -0.9375,-0.4375 -0.90625,-0.4375 -0.90625,-0.375 -1,-0.40625 -0.90625,-0.34375 -0.90625,-0.375 L 323.375,343 l -0.9375,-0.3125 -0.96875,-0.3125 -0.96875,-0.28125 -1,-0.28125 -0.90625,-0.25 -0.96875,-0.21875 -1,-0.25 -0.96875,-0.1875 -1.03125,-0.1875 -1,-0.15625 -0.96875,-0.15625 -0.96875,-0.125 -1,-0.125 -1.03125,-0.0937 -0.96875,-0.0625 -1,-0.0625 -1.03125,-0.0312 -0.96875,-0.0312 -1.03125,0 -1,0 z m -0.0625,26.71875 0.53125,0 0.53125,0 0.5625,0 0.53125,0 0.5,0.0312 0.53125,0.0312 0.59375,0.0312 0.53125,0.0625 0.5,0.0625 0.53125,0.0625 0.53125,0.0625 0.5,0.125 0.53125,0.0937 0.53125,0.0937 0.53125,0.125 0.5,0.125 0.53125,0.125 0.53125,0.15625 0.5,0.15625 0.53125,0.15625 0.53125,0.15625 0.5,0.21875 0.46875,0.15625 0.53125,0.21875 0.53125,0.1875 0.4375,0.21875 0.53125,0.21875 0.46875,0.21875 0.4375,0.28125 0.53125,0.21875 0.4375,0.25 0.46875,0.28125 0.46875,0.25 0.4375,0.28125 0.46875,0.3125 0.46875,0.28125 0.4375,0.3125 0.40625,0.3125 0.4375,0.3125 0.46875,0.34375 0.40625,0.3125 0.375,0.34375 0.46875,0.34375 0.375,0.375 0.40625,0.34375 0.375,0.375 0.40625,0.375 0.3125,0.40625 0.40625,0.34375 0.375,0.4375 0.34375,0.375 0.3125,0.40625 0.40625,0.40625 0.3125,0.4375 0.34375,0.4375 0.3125,0.40625 0.25,0.46875 0.34375,0.40625 0.3125,0.46875 0.28125,0.46875 0.25,0.4375 0.25,0.46875 0.34375,0.46875 0.1875,0.46875 0.25,0.46875 0.28125,0.46875 0.1875,0.5 0.25,0.5 0.21875,0.46875 0.1875,0.5 0.1875,0.5 0.1875,0.53125 0.21875,0.46875 0.1875,0.53125 0.125,0.53125 0.125,0.46875 0.125,0.53125 0.21875,0.53125 0.0625,0.5 0.125,0.53125 0.125,0.53125 0.0625,0.53125 0.15625,0.53125 0.0625,0.53125 0.0625,0.53125 0.0625,0.5 0.0625,0.5625 0,0.53125 0.0625,0.5625 0,0.5 0,0.53125 0.0625,0.53125 -0.0625,0.59375 0,0.5 0,0.53125 -0.0625,0.53125 0,0.59375 -0.0625,0.5 -0.0625,0.53125 -0.0625,0.53125 -0.0625,0.5 -0.15625,0.53125 -0.0625,0.53125 -0.125,0.5 -0.125,0.53125 -0.0625,0.53125 -0.21875,0.53125 -0.125,0.5 -0.125,0.53125 -0.125,0.53125 -0.1875,0.5 -0.21875,0.53125 -0.1875,0.46875 -0.1875,0.5 -0.1875,0.53125 -0.21875,0.46875 -0.25,0.53125 -0.1875,0.4375 -0.28125,0.46875 -0.25,0.53125 -0.1875,0.4375 -0.34375,0.46875 -0.25,0.4375 -0.25,0.46875 -0.28125,0.46875 -0.3125,0.4375 -0.34375,0.46875 -0.25,0.375 -0.3125,0.46875 -0.34375,0.40625 -0.3125,0.4375 -0.40625,0.40625 -0.3125,0.4375 -0.34375,0.40625 -0.375,0.375 -0.40625,0.40625 -0.3125,0.375 -0.40625,0.34375 -0.375,0.375 -0.40625,0.40625 -0.375,0.3125 -0.46875,0.34375 -0.375,0.375 -0.40625,0.34375 -0.46875,0.3125 -0.4375,0.34375 -0.40625,0.25 -0.4375,0.3125 -0.46875,0.34375 -0.46875,0.25 -0.4375,0.28125 -0.46875,0.25 -0.46875,0.25 -0.4375,0.28125 -0.53125,0.25 -0.4375,0.25 -0.46875,0.21875 -0.53125,0.25 -0.4375,0.1875 -0.53125,0.21875 -0.53125,0.1875 -0.46875,0.1875 -0.5,0.1875 -0.53125,0.15625 -0.53125,0.1875 -0.5,0.125 -0.53125,0.125 -0.53125,0.1875 -0.5,0.0937 -0.53125,0.125 -0.53125,0.125 -0.53125,0.0625 -0.5,0.125 -0.53125,0.0625 -0.53125,0.0625 -0.5,0.0625 -0.53125,0.0625 -0.59375,0 -0.53125,0.0937 -0.5,0 -0.53125,0 -0.5625,0.0625 -0.53125,-0.0625 -0.53125,0 -0.53125,0 -0.5625,-0.0937 -0.53125,0 -0.5,-0.0625 -0.5625,-0.0625 -0.53125,-0.0625 -0.5,-0.0625 -0.5625,-0.125 -0.53125,-0.0625 -0.53125,-0.125 -0.5,-0.125 -0.53125,-0.0937 -0.53125,-0.1875 -0.5,-0.125 -0.5,-0.125 -0.53125,-0.1875 -0.5,-0.15625 -0.5,-0.1875 -0.53125,-0.1875 -0.46875,-0.1875 -0.5,-0.21875 -0.5,-0.1875 -0.46875,-0.25 -0.5,-0.21875 -0.5,-0.25 -0.4375,-0.25 -0.5,-0.28125 -0.46875,-0.25 -0.4375,-0.25 -0.46875,-0.28125 -0.46875,-0.25 -0.4375,-0.34375 -0.4375,-0.3125 -0.4375,-0.25 -0.4375,-0.34375 -0.4375,-0.3125 -0.40625,-0.34375 -0.40625,-0.375 -0.40625,-0.34375 -0.40625,-0.3125 -0.375,-0.40625 -0.40625,-0.375 -0.375,-0.34375 -0.40625,-0.375 -0.34375,-0.40625 -0.375,-0.375 -0.34375,-0.40625 -0.375,-0.4375 -0.3125,-0.40625 -0.34375,-0.4375 -0.3125,-0.40625 -0.34375,-0.46875 -0.3125,-0.375 -0.28125,-0.46875 -0.3125,-0.4375 -0.28125,-0.46875 -0.28125,-0.46875 -0.28125,-0.4375 -0.25,-0.46875 -0.28125,-0.4375 -0.21875,-0.53125 -0.25,-0.46875 -0.25,-0.4375 -0.21875,-0.53125 -0.1875,-0.46875 -0.21875,-0.53125 -0.1875,-0.5 -0.1875,-0.46875 -0.1875,-0.53125 -0.1875,-0.5 -0.15625,-0.53125 -0.15625,-0.53125 -0.125,-0.5 -0.125,-0.53125 -0.15625,-0.53125 -0.0937,-0.53125 -0.125,-0.5 -0.0937,-0.53125 -0.0625,-0.53125 -0.0937,-0.5 -0.0625,-0.53125 -0.0625,-0.53125 -0.0312,-0.5 -0.0937,-0.59375 -0.0312,-0.53125 0,-0.53125 -0.0312,-0.5 0,-0.59375 0,-0.53125 0.0312,-0.53125 0,-0.5 0.0312,-0.5625 0.0937,-0.53125 0.0312,-0.5625 0.0625,-0.5 0.0625,-0.53125 0.0937,-0.53125 0.0625,-0.53125 0.0937,-0.53125 0.125,-0.53125 0.0937,-0.53125 0.15625,-0.5 0.125,-0.53125 0.125,-0.53125 0.15625,-0.46875 0.15625,-0.53125 0.1875,-0.53125 0.1875,-0.46875 0.1875,-0.53125 0.1875,-0.5 0.21875,-0.5 0.1875,-0.46875 0.21875,-0.5 0.25,-0.5 0.25,-0.46875 0.21875,-0.46875 0.28125,-0.46875 0.25,-0.46875 0.28125,-0.46875 0.28125,-0.4375 0.28125,-0.46875 0.3125,-0.46875 0.28125,-0.40625 0.3125,-0.46875 0.34375,-0.40625 0.3125,-0.4375 0.34375,-0.4375 0.3125,-0.40625 0.375,-0.40625 0.34375,-0.375 0.375,-0.4375 0.34375,-0.34375 0.40625,-0.40625 0.375,-0.375 0.40625,-0.375 0.375,-0.34375 0.40625,-0.375 0.40625,-0.34375 0.40625,-0.34375 0.40625,-0.3125 0.4375,-0.34375 0.4375,-0.3125 0.4375,-0.3125 0.4375,-0.3125 0.4375,-0.28125 0.46875,-0.3125 0.46875,-0.28125 0.4375,-0.25 0.46875,-0.28125 0.5,-0.25 0.4375,-0.21875 0.5,-0.28125 0.5,-0.21875 0.46875,-0.21875 0.5,-0.21875 0.5,-0.1875 0.46875,-0.21875 0.53125,-0.15625 0.5,-0.21875 0.5,-0.15625 0.53125,-0.15625 0.5,-0.15625 0.5,-0.15625 0.53125,-0.125 0.53125,-0.125 0.5,-0.125 0.53125,-0.0937 0.53125,-0.0937 0.5625,-0.125 0.5,-0.0625 0.53125,-0.0625 0.5625,-0.0625 0.5,-0.0625 0.53125,-0.0312 0.5625,-0.0312 0.53125,-0.0312 z"
   style="fill:#000000;fill-opacity:1;stroke:none"
   inkscape:connector-curvature="0" />
</g><g
     id="LWPOLYLINE_9_">
	
		
</g></g>
</svg>