<?xml version="1.0" encoding="UTF-8" standalone="no"?>
<!-- Generator: Adobe Illustrator 16.0.1, SVG Export Plug-In . SVG Version: 6.00 Build 0)  -->

<svg
   xmlns:dc="http://purl.org/dc/elements/1.1/"
   xmlns:cc="http://creativecommons.org/ns#"
   xmlns:rdf="http://www.w3.org/1999/02/22-rdf-syntax-ns#"
   xmlns:svg="http://www.w3.org/2000/svg"
   xmlns="http://www.w3.org/2000/svg"
   xmlns:xlink="http://www.w3.org/1999/xlink"
   xmlns:sodipodi="http://sodipodi.sourceforge.net/DTD/sodipodi-0.dtd"
   xmlns:inkscape="http://www.inkscape.org/namespaces/inkscape"
   version="1.0"
   id="_x31_"
   x="0px"
   y="0px"
   width="350"
   height="350"
   viewBox="0 0 350 350"
   enable-background="new 0 0 612 792"
   xml:space="preserve"
   inkscape:version="0.48.2 r9819"
   sodipodi:docname="7093.svg"><metadata
   id="metadata259"><rdf:RDF><cc:Work
       rdf:about=""><dc:format>image/svg+xml</dc:format><dc:type
         rdf:resource="http://purl.org/dc/dcmitype/StillImage" /></cc:Work></rdf:RDF></metadata><defs
   id="defs257"><radialGradient
     r="333.18735"
     fy="710.99164"
     fx="373.24265"
     cy="710.99164"
     cx="373.24265"
     gradientTransform="matrix(0.86272608,1.0667183e-7,-5.1097115e-8,0.31434,-147.00617,81.5576)"
     gradientUnits="userSpaceOnUse"
     id="radialGradient3092"
     xlink:href="#linearGradient5443"
     inkscape:collect="always" /><radialGradient
     r="333.18735"
     fy="467.91885"
     fx="373.24265"
     cy="467.91885"
     cx="373.24265"
     gradientTransform="matrix(0.83535071,2.5391117e-7,-2.4564601e-7,0.80815889,-136.78854,-203.15302)"
     gradientUnits="userSpaceOnUse"
     id="radialGradient3088"
     xlink:href="#linearGradient5443"
     inkscape:collect="always" /><radialGradient
     r="333.18735"
     fy="467.91885"
     fx="373.24265"
     cy="467.91885"
     cx="373.24265"
     gradientTransform="matrix(0.83535071,2.5391117e-7,-2.4564601e-7,0.80815889,783.12101,707.99698)"
     gradientUnits="userSpaceOnUse"
     id="radialGradient3736"
     xlink:href="#linearGradient5443"
     inkscape:collect="always" /><linearGradient
     y2="254.73526"
     x2="123.47623"
     y1="344.03848"
     x1="123.50603"
     gradientTransform="matrix(2.3189708,0,0,2.0930998,-99.17808,-231.54972)"
     gradientUnits="userSpaceOnUse"
     id="linearGradient3734"
     xlink:href="#linearGradient3187"
     inkscape:collect="always" /><radialGradient
     r="333.18735"
     fy="710.99164"
     fx="373.24265"
     cy="710.99164"
     cx="373.24265"
     gradientTransform="matrix(0.86272608,1.0667183e-7,-5.1097115e-8,0.31434,772.90338,992.7076)"
     gradientUnits="userSpaceOnUse"
     id="radialGradient3732"
     xlink:href="#linearGradient5443"
     inkscape:collect="always" /><radialGradient
     r="333.18735"
     fy="710.99164"
     fx="373.24265"
     cy="710.99164"
     cx="373.24265"
     gradientTransform="matrix(0.86272608,1.0667183e-7,-5.1097115e-8,0.31434,772.90338,992.7076)"
     gradientUnits="userSpaceOnUse"
     id="radialGradient3722"
     xlink:href="#linearGradient5443"
     inkscape:collect="always" /><radialGradient
     r="333.18735"
     fy="467.91885"
     fx="373.24265"
     cy="467.91885"
     cx="373.24265"
     gradientTransform="matrix(0.83535071,2.5391117e-7,-2.4564601e-7,0.80815889,783.12101,707.99698)"
     gradientUnits="userSpaceOnUse"
     id="radialGradient3718"
     xlink:href="#linearGradient5443"
     inkscape:collect="always" /><radialGradient
     r="333.18735"
     fy="467.91885"
     fx="373.24265"
     cy="467.91885"
     cx="373.24265"
     gradientTransform="matrix(0.9201975,2.7970099e-7,-2.7059634e-7,0.8902438,-163.70313,61.921561)"
     gradientUnits="userSpaceOnUse"
     id="radialGradient3703"
     xlink:href="#linearGradient5443"
     inkscape:collect="always" /><linearGradient
     y2="254.73526"
     x2="123.47623"
     y1="344.03848"
     x1="123.50603"
     gradientTransform="matrix(2.3189708,0,0,2.0930998,-99.17808,-231.54972)"
     gradientUnits="userSpaceOnUse"
     id="linearGradient3701"
     xlink:href="#linearGradient3187"
     inkscape:collect="always" /><radialGradient
     r="333.18735"
     fy="710.99164"
     fx="373.24265"
     cy="710.99164"
     cx="373.24265"
     gradientTransform="matrix(0.9503534,1.1750652e-7,-5.6287062e-8,0.3462676,-174.95857,375.55031)"
     gradientUnits="userSpaceOnUse"
     id="radialGradient3699"
     xlink:href="#linearGradient5443"
     inkscape:collect="always" /><radialGradient
     r="333.18735"
     fy="467.91885"
     fx="373.24265"
     cy="467.91885"
     cx="373.24265"
     gradientTransform="matrix(0.9201975,2.7970099e-7,-2.7059634e-7,0.8902438,-163.70313,61.921561)"
     gradientUnits="userSpaceOnUse"
     id="radialGradient3680"
     xlink:href="#linearGradient5443"
     inkscape:collect="always" /><linearGradient
     y2="254.73526"
     x2="123.47623"
     y1="344.03848"
     x1="123.50603"
     gradientTransform="matrix(2.3189708,0,0,2.0930998,-99.17808,-231.54972)"
     gradientUnits="userSpaceOnUse"
     id="linearGradient3678"
     xlink:href="#linearGradient3187"
     inkscape:collect="always" /><radialGradient
     r="333.18735"
     fy="710.99164"
     fx="373.24265"
     cy="710.99164"
     cx="373.24265"
     gradientTransform="matrix(0.9503534,1.1750652e-7,-5.6287062e-8,0.3462676,-174.95857,375.55031)"
     gradientUnits="userSpaceOnUse"
     id="radialGradient3676"
     xlink:href="#linearGradient5443"
     inkscape:collect="always" /><radialGradient
     r="333.18735"
     fy="467.91885"
     fx="373.24265"
     cy="467.91885"
     cx="373.24265"
     gradientTransform="matrix(0.9201975,2.7970099e-7,-2.7059634e-7,0.8902438,-163.70313,61.921561)"
     gradientUnits="userSpaceOnUse"
     id="radialGradient3654"
     xlink:href="#linearGradient5443"
     inkscape:collect="always" /><linearGradient
     y2="254.73526"
     x2="123.47623"
     y1="344.03848"
     x1="123.50603"
     gradientTransform="matrix(2.3189708,0,0,2.0930998,-99.17808,-231.54972)"
     gradientUnits="userSpaceOnUse"
     id="linearGradient3652"
     xlink:href="#linearGradient3187"
     inkscape:collect="always" /><radialGradient
     r="333.18735"
     fy="710.99164"
     fx="373.24265"
     cy="710.99164"
     cx="373.24265"
     gradientTransform="matrix(0.9503534,1.1750652e-7,-5.6287062e-8,0.3462676,-174.95857,375.55031)"
     gradientUnits="userSpaceOnUse"
     id="radialGradient3650"
     xlink:href="#linearGradient5443"
     inkscape:collect="always" /><radialGradient
     r="333.18735"
     fy="467.91885"
     fx="373.24265"
     cy="467.91885"
     cx="373.24265"
     gradientTransform="matrix(0.9201975,2.7970099e-7,-2.7059634e-7,0.8902438,-163.70313,61.921561)"
     gradientUnits="userSpaceOnUse"
     id="radialGradient3627"
     xlink:href="#linearGradient5443"
     inkscape:collect="always" /><linearGradient
     y2="254.73526"
     x2="123.47623"
     y1="344.03848"
     x1="123.50603"
     gradientTransform="matrix(2.3189708,0,0,2.0930998,-99.17808,-231.54972)"
     gradientUnits="userSpaceOnUse"
     id="linearGradient3625"
     xlink:href="#linearGradient3187"
     inkscape:collect="always" /><radialGradient
     r="333.18735"
     fy="710.99164"
     fx="373.24265"
     cy="710.99164"
     cx="373.24265"
     gradientTransform="matrix(0.9503534,1.1750652e-7,-5.6287062e-8,0.3462676,-174.95857,375.55031)"
     gradientUnits="userSpaceOnUse"
     id="radialGradient3623"
     xlink:href="#linearGradient5443"
     inkscape:collect="always" /><radialGradient
     r="333.18735"
     fy="467.91885"
     fx="373.24265"
     cy="467.91885"
     cx="373.24265"
     gradientTransform="matrix(0.9201975,2.7970099e-7,-2.7059634e-7,0.8902438,-163.70313,61.921561)"
     gradientUnits="userSpaceOnUse"
     id="radialGradient3599"
     xlink:href="#linearGradient5443"
     inkscape:collect="always" /><linearGradient
     y2="254.73526"
     x2="123.47623"
     y1="344.03848"
     x1="123.50603"
     gradientTransform="matrix(2.3189708,0,0,2.0930998,-99.17808,-231.54972)"
     gradientUnits="userSpaceOnUse"
     id="linearGradient3597"
     xlink:href="#linearGradient3187"
     inkscape:collect="always" /><radialGradient
     r="333.18735"
     fy="710.99164"
     fx="373.24265"
     cy="710.99164"
     cx="373.24265"
     gradientTransform="matrix(0.9503534,1.1750652e-7,-5.6287062e-8,0.3462676,-174.95857,375.55031)"
     gradientUnits="userSpaceOnUse"
     id="radialGradient3595"
     xlink:href="#linearGradient5443"
     inkscape:collect="always" /><radialGradient
     r="333.18735"
     fy="467.91885"
     fx="373.24265"
     cy="467.91885"
     cx="373.24265"
     gradientTransform="matrix(0.9201975,2.7970099e-7,-2.7059634e-7,0.8902438,-163.70313,61.921561)"
     gradientUnits="userSpaceOnUse"
     id="radialGradient3525"
     xlink:href="#linearGradient5443"
     inkscape:collect="always" /><linearGradient
     y2="254.73526"
     x2="123.47623"
     y1="344.03848"
     x1="123.50603"
     gradientTransform="matrix(2.3189708,0,0,2.0930998,-99.17808,-231.54972)"
     gradientUnits="userSpaceOnUse"
     id="linearGradient3523"
     xlink:href="#linearGradient3187"
     inkscape:collect="always" /><radialGradient
     r="333.18735"
     fy="710.99164"
     fx="373.24265"
     cy="710.99164"
     cx="373.24265"
     gradientTransform="matrix(0.9503534,1.1750652e-7,-5.6287062e-8,0.3462676,-174.95857,375.55031)"
     gradientUnits="userSpaceOnUse"
     id="radialGradient3521"
     xlink:href="#linearGradient5443"
     inkscape:collect="always" /><radialGradient
     r="333.18735"
     fy="467.91885"
     fx="373.24265"
     cy="467.91885"
     cx="373.24265"
     gradientTransform="matrix(0.9201975,2.7970099e-7,-2.7059634e-7,0.8902438,-163.70313,61.921561)"
     gradientUnits="userSpaceOnUse"
     id="radialGradient3497"
     xlink:href="#linearGradient5443"
     inkscape:collect="always" /><linearGradient
     y2="254.73526"
     x2="123.47623"
     y1="344.03848"
     x1="123.50603"
     gradientTransform="matrix(2.3189708,0,0,2.0930998,-99.17808,-231.54972)"
     gradientUnits="userSpaceOnUse"
     id="linearGradient3495"
     xlink:href="#linearGradient3187"
     inkscape:collect="always" /><radialGradient
     r="333.18735"
     fy="710.99164"
     fx="373.24265"
     cy="710.99164"
     cx="373.24265"
     gradientTransform="matrix(0.9503534,1.1750652e-7,-5.6287062e-8,0.3462676,-174.95857,375.55031)"
     gradientUnits="userSpaceOnUse"
     id="radialGradient3493"
     xlink:href="#linearGradient5443"
     inkscape:collect="always" /><linearGradient
     id="linearGradient5443"><stop
       id="stop5445"
       offset="0"
       style="stop-color:#ffffff;stop-opacity:0;" /><stop
       id="stop5447"
       offset="1"
       style="stop-color:#000000;stop-opacity:0.33962265;" /></linearGradient><linearGradient
     id="linearGradient3157"><stop
       style="stop-color:#49bcff;stop-opacity:1;"
       offset="0"
       id="stop3159" /><stop
       style="stop-color:#494c96;stop-opacity:1;"
       offset="1"
       id="stop3161" /></linearGradient><linearGradient
     id="linearGradient3171"><stop
       id="stop3173"
       offset="0"
       style="stop-color:#49bcff;stop-opacity:1;" /><stop
       id="stop3175"
       offset="1"
       style="stop-color:#494cdc;stop-opacity:1;" /></linearGradient><linearGradient
     id="linearGradient3187"><stop
       style="stop-color:#ffffff;stop-opacity:0.39622641;"
       offset="0"
       id="stop3189" /><stop
       style="stop-color:#000000;stop-opacity:1;"
       offset="1"
       id="stop3191" /></linearGradient><linearGradient
     id="linearGradient4395"><stop
       style="stop-color:#110084;stop-opacity:1;"
       offset="0"
       id="stop4397" /><stop
       style="stop-color:#a695ff;stop-opacity:1;"
       offset="1"
       id="stop4399" /></linearGradient><linearGradient
     id="linearGradient4383"><stop
       style="stop-color:#00037f;stop-opacity:1;"
       offset="0"
       id="stop4385" /><stop
       style="stop-color:#00037f;stop-opacity:0;"
       offset="1"
       id="stop4387" /></linearGradient><inkscape:perspective
     sodipodi:type="inkscape:persp3d"
     inkscape:vp_x="0 : 526.18109 : 1"
     inkscape:vp_y="0 : 1000 : 0"
     inkscape:vp_z="744.09448 : 526.18109 : 1"
     inkscape:persp3d-origin="372.04724 : 350.78739 : 1"
     id="perspective3214" /><linearGradient
     inkscape:collect="always"
     xlink:href="#linearGradient4383"
     id="linearGradient4389"
     x1="371.42194"
     y1="298.59412"
     x2="396.91168"
     y2="655.4505"
     gradientUnits="userSpaceOnUse" /><linearGradient
     inkscape:collect="always"
     xlink:href="#linearGradient4395"
     id="linearGradient4401"
     x1="360.49777"
     y1="167.50403"
     x2="360.49777"
     y2="540.86719"
     gradientUnits="userSpaceOnUse" /><linearGradient
     inkscape:collect="always"
     xlink:href="#linearGradient3187"
     id="linearGradient4562"
     gradientUnits="userSpaceOnUse"
     gradientTransform="matrix(2.3189708,0,0,2.0930998,93.115298,-256.84999)"
     x1="123.50603"
     y1="344.03848"
     x2="123.47623"
     y2="254.73526" /><radialGradient
     inkscape:collect="always"
     xlink:href="#linearGradient3171"
     id="radialGradient4569"
     gradientUnits="userSpaceOnUse"
     gradientTransform="matrix(0.9201975,2.7970099e-7,-2.7059634e-7,0.8902438,28.590287,48.634335)"
     cx="373.24265"
     cy="467.91885"
     fx="373.24265"
     fy="467.91885"
     r="333.18735" /><radialGradient
     inkscape:collect="always"
     xlink:href="#linearGradient3157"
     id="radialGradient4572"
     gradientUnits="userSpaceOnUse"
     gradientTransform="matrix(0.9503534,1.1750652e-7,-5.6287062e-8,0.3462676,17.334826,362.44227)"
     cx="373.24265"
     cy="710.99164"
     fx="373.24265"
     fy="710.99164"
     r="333.18735" /><filter
     inkscape:collect="always"
     id="filter4659"
     color-interpolation-filters="sRGB"><feGaussianBlur
       inkscape:collect="always"
       stdDeviation="2.7750933"
       id="feGaussianBlur4661" /></filter><radialGradient
     inkscape:collect="always"
     xlink:href="#linearGradient3157"
     id="radialGradient4766"
     gradientUnits="userSpaceOnUse"
     gradientTransform="matrix(0.9503534,1.1750652e-7,-5.6287062e-8,0.3462676,17.334826,362.44227)"
     cx="373.24265"
     cy="710.99164"
     fx="373.24265"
     fy="710.99164"
     r="333.18735" /><radialGradient
     inkscape:collect="always"
     xlink:href="#linearGradient3171"
     id="radialGradient4768"
     gradientUnits="userSpaceOnUse"
     gradientTransform="matrix(0.9201975,2.7970099e-7,-2.7059634e-7,0.8902438,28.590287,48.634335)"
     cx="373.24265"
     cy="467.91885"
     fx="373.24265"
     fy="467.91885"
     r="333.18735" /><linearGradient
     inkscape:collect="always"
     xlink:href="#linearGradient3187"
     id="linearGradient4770"
     gradientUnits="userSpaceOnUse"
     gradientTransform="matrix(2.3189708,0,0,2.0930998,93.115298,-256.84999)"
     x1="123.50603"
     y1="344.03848"
     x2="123.47623"
     y2="254.73526" /><linearGradient
     inkscape:collect="always"
     xlink:href="#linearGradient3187"
     id="linearGradient4773"
     gradientUnits="userSpaceOnUse"
     gradientTransform="matrix(2.3189708,0,0,2.0930998,93.115298,-256.84999)"
     x1="123.50603"
     y1="344.03848"
     x2="123.47623"
     y2="254.73526" /><radialGradient
     inkscape:collect="always"
     xlink:href="#linearGradient3171"
     id="radialGradient4776"
     gradientUnits="userSpaceOnUse"
     gradientTransform="matrix(0.9201975,2.7970099e-7,-2.7059634e-7,0.8902438,28.590287,48.634335)"
     cx="373.24265"
     cy="467.91885"
     fx="373.24265"
     fy="467.91885"
     r="333.18735" /><radialGradient
     inkscape:collect="always"
     xlink:href="#linearGradient3157"
     id="radialGradient4779"
     gradientUnits="userSpaceOnUse"
     gradientTransform="matrix(0.9503534,1.1750652e-7,-5.6287062e-8,0.3462676,17.334826,362.44227)"
     cx="373.24265"
     cy="710.99164"
     fx="373.24265"
     fy="710.99164"
     r="333.18735" /><radialGradient
     inkscape:collect="always"
     xlink:href="#linearGradient3157"
     id="radialGradient4790"
     gradientUnits="userSpaceOnUse"
     gradientTransform="matrix(0.9503534,1.1750652e-7,-5.6287062e-8,0.3462676,17.334826,362.44227)"
     cx="373.24265"
     cy="710.99164"
     fx="373.24265"
     fy="710.99164"
     r="333.18735" /><radialGradient
     inkscape:collect="always"
     xlink:href="#linearGradient3171"
     id="radialGradient4792"
     gradientUnits="userSpaceOnUse"
     gradientTransform="matrix(0.9201975,2.7970099e-7,-2.7059634e-7,0.8902438,28.590287,48.634335)"
     cx="373.24265"
     cy="467.91885"
     fx="373.24265"
     fy="467.91885"
     r="333.18735" /><linearGradient
     inkscape:collect="always"
     xlink:href="#linearGradient3187"
     id="linearGradient4794"
     gradientUnits="userSpaceOnUse"
     gradientTransform="matrix(2.3189708,0,0,2.0930998,93.115298,-256.84999)"
     x1="123.50603"
     y1="344.03848"
     x2="123.47623"
     y2="254.73526" /><linearGradient
     inkscape:collect="always"
     xlink:href="#linearGradient3187"
     id="linearGradient4799"
     gradientUnits="userSpaceOnUse"
     gradientTransform="matrix(2.3189708,0,0,2.0930998,93.115298,-256.84999)"
     x1="123.50603"
     y1="344.03848"
     x2="123.47623"
     y2="254.73526" /><radialGradient
     inkscape:collect="always"
     xlink:href="#linearGradient3171"
     id="radialGradient4802"
     gradientUnits="userSpaceOnUse"
     gradientTransform="matrix(0.9201975,2.7970099e-7,-2.7059634e-7,0.8902438,28.590287,48.634335)"
     cx="373.24265"
     cy="467.91885"
     fx="373.24265"
     fy="467.91885"
     r="333.18735" /><radialGradient
     inkscape:collect="always"
     xlink:href="#linearGradient3157"
     id="radialGradient4805"
     gradientUnits="userSpaceOnUse"
     gradientTransform="matrix(0.9503534,1.1750652e-7,-5.6287062e-8,0.3462676,17.334826,362.44227)"
     cx="373.24265"
     cy="710.99164"
     fx="373.24265"
     fy="710.99164"
     r="333.18735" /><radialGradient
     inkscape:collect="always"
     xlink:href="#linearGradient3157"
     id="radialGradient4820"
     gradientUnits="userSpaceOnUse"
     gradientTransform="matrix(0.9503534,1.1750652e-7,-5.6287062e-8,0.3462676,17.334826,362.44227)"
     cx="373.24265"
     cy="710.99164"
     fx="373.24265"
     fy="710.99164"
     r="333.18735" /><radialGradient
     inkscape:collect="always"
     xlink:href="#linearGradient3171"
     id="radialGradient4822"
     gradientUnits="userSpaceOnUse"
     gradientTransform="matrix(0.9201975,2.7970099e-7,-2.7059634e-7,0.8902438,28.590287,48.634335)"
     cx="373.24265"
     cy="467.91885"
     fx="373.24265"
     fy="467.91885"
     r="333.18735" /><linearGradient
     inkscape:collect="always"
     xlink:href="#linearGradient3187"
     id="linearGradient4824"
     gradientUnits="userSpaceOnUse"
     gradientTransform="matrix(2.3189708,0,0,2.0930998,93.115298,-256.84999)"
     x1="123.50603"
     y1="344.03848"
     x2="123.47623"
     y2="254.73526" /><linearGradient
     inkscape:collect="always"
     xlink:href="#linearGradient3187"
     id="linearGradient4827"
     gradientUnits="userSpaceOnUse"
     gradientTransform="matrix(2.3189708,0,0,2.0930998,-99.17808,-231.54972)"
     x1="123.50603"
     y1="344.03848"
     x2="123.47623"
     y2="254.73526" /><radialGradient
     inkscape:collect="always"
     xlink:href="#linearGradient5443"
     id="radialGradient4832"
     gradientUnits="userSpaceOnUse"
     gradientTransform="matrix(0.9201975,2.7970099e-7,-2.7059634e-7,0.8902438,-163.70313,61.921561)"
     cx="373.24265"
     cy="467.91885"
     fx="373.24265"
     fy="467.91885"
     r="333.18735" /><radialGradient
     inkscape:collect="always"
     xlink:href="#linearGradient5443"
     id="radialGradient4835"
     gradientUnits="userSpaceOnUse"
     gradientTransform="matrix(0.9503534,1.1750652e-7,-5.6287062e-8,0.3462676,-174.95857,375.55031)"
     cx="373.24265"
     cy="710.99164"
     fx="373.24265"
     fy="710.99164"
     r="333.18735" /><filter
     inkscape:collect="always"
     id="filter5511"
     color-interpolation-filters="sRGB"><feGaussianBlur
       inkscape:collect="always"
       stdDeviation="3.2374974"
       id="feGaussianBlur5513" /></filter><radialGradient
     inkscape:collect="always"
     xlink:href="#linearGradient5443-5"
     id="radialGradient4835-3"
     gradientUnits="userSpaceOnUse"
     gradientTransform="matrix(0.9503534,1.1750652e-7,-5.6287062e-8,0.3462676,317.80591,185.68771)"
     cx="373.24265"
     cy="710.99164"
     fx="373.24265"
     fy="710.99164"
     r="333.18735" /><linearGradient
     id="linearGradient5443-5"><stop
       id="stop5445-4"
       offset="0"
       style="stop-color:#ffffff;stop-opacity:0;" /><stop
       id="stop5447-3"
       offset="1"
       style="stop-color:#000000;stop-opacity:0.33962265;" /></linearGradient><radialGradient
     inkscape:collect="always"
     xlink:href="#linearGradient5443"
     id="radialGradient3272"
     gradientUnits="userSpaceOnUse"
     gradientTransform="matrix(0.9503534,1.1750652e-7,-5.6287062e-8,0.3462676,-174.95857,375.55031)"
     cx="373.24265"
     cy="710.99164"
     fx="373.24265"
     fy="710.99164"
     r="333.18735" /><linearGradient
     inkscape:collect="always"
     xlink:href="#linearGradient3187"
     id="linearGradient3274"
     gradientUnits="userSpaceOnUse"
     gradientTransform="matrix(2.3189708,0,0,2.0930998,-99.17808,-231.54972)"
     x1="123.50603"
     y1="344.03848"
     x2="123.47623"
     y2="254.73526" /><radialGradient
     inkscape:collect="always"
     xlink:href="#linearGradient5443"
     id="radialGradient3276"
     gradientUnits="userSpaceOnUse"
     gradientTransform="matrix(0.9201975,2.7970099e-7,-2.7059634e-7,0.8902438,-163.70313,61.921561)"
     cx="373.24265"
     cy="467.91885"
     fx="373.24265"
     fy="467.91885"
     r="333.18735" /></defs><sodipodi:namedview
   pagecolor="#ffffff"
   bordercolor="#666666"
   borderopacity="1"
   objecttolerance="10"
   gridtolerance="10"
   guidetolerance="10"
   inkscape:pageopacity="0"
   inkscape:pageshadow="2"
   inkscape:window-width="1920"
   inkscape:window-height="1068"
   id="namedview255"
   showgrid="false"
   showguides="true"
   inkscape:guide-bbox="true"
   inkscape:zoom="1.1919192"
   inkscape:cx="45.928184"
   inkscape:cy="230.14983"
   inkscape:window-x="0"
   inkscape:window-y="0"
   inkscape:window-maximized="1"
   inkscape:current-layer="_x31_"
   fit-margin-top="0"
   fit-margin-left="0"
   fit-margin-right="0"
   fit-margin-bottom="0" />



















































































<g
   id="g3451"
   transform="translate(-4.0524846e-6,3.5529445e-6)"><rect
     inkscape:export-ydpi="29.879425"
     inkscape:export-xdpi="29.879425"
     inkscape:export-filename="C:\Documents and Settings\adscro24\Desktop\128.png"
     style="opacity:0.61338286;fill:#464646;fill-opacity:0.78540775;stroke:none;filter:url(#filter4659)"
     id="rect3279"
     width="152.93848"
     height="152.93848"
     x="135.39355"
     y="48.636749"
     rx="16.067965"
     ry="12.45238"
     transform="matrix(2.1051501,0,0,2.1051501,-271.00298,-88.36689)" /><rect
     inkscape:export-ydpi="29.879425"
     inkscape:export-xdpi="29.879425"
     inkscape:export-filename="C:\Documents and Settings\adscro24\Desktop\128.png"
     style="opacity:0.61338286;fill:url(#radialGradient3092);fill-opacity:1;stroke:#000000;stroke-width:3.26806188;stroke-miterlimit:4;stroke-opacity:1;stroke-dasharray:none"
     id="rect3155"
     width="321.95847"
     height="321.95847"
     x="14.020748"
     y="14.020716"
     rx="33.825481"
     ry="26.21413" /><path
     transform="matrix(0.90779502,0,0,0.90779502,11.82035,-259.3651)"
     inkscape:export-ydpi="29.879425"
     inkscape:export-xdpi="29.879425"
     inkscape:export-filename="C:\Documents and Settings\adscro24\Desktop\128.png"
     inkscape:connector-curvature="0"
     style="opacity:0.61338286;fill:url(#linearGradient3734);fill-opacity:1;stroke:none;filter:url(#filter5511)"
     d="m 46.58172,323.34879 c -19.62748,0 -35.44272,12.0976 -35.44272,27.14163 l 0,124.30857 c 29.25482,11.38638 132.70149,11.89599 165.40488,-5.79022 33.32802,-18.02397 127.54379,-68.44264 171.82484,-52.72052 l 0,-65.79783 c 0,-15.04403 -15.7986,-27.14163 -35.4261,-27.14163 l -266.3609,0 z M 11.139,586.81982 l 0,42.88373 c 0,1.33144 0.14331,2.63588 0.38253,3.915 -0.11919,-12.81092 -0.25965,-28.88939 -0.38253,-46.79873 z"
     id="rect3177" /><rect
     inkscape:export-ydpi="29.879425"
     inkscape:export-xdpi="29.879425"
     inkscape:export-filename="C:\Documents and Settings\adscro24\Desktop\128.png"
     style="opacity:0.61338286;fill:url(#radialGradient3088);fill-opacity:1;stroke:#ffffff;stroke-width:0.68992418;stroke-linecap:square;stroke-miterlimit:4;stroke-opacity:1;stroke-dasharray:none"
     id="rect3473"
     width="306.12445"
     height="306.12445"
     x="21.937801"
     y="21.937769"
     rx="32.161926"
     ry="24.924913" /><rect
     inkscape:export-ydpi="29.879425"
     inkscape:export-xdpi="29.879425"
     inkscape:export-filename="C:\Documents and Settings\adscro24\Desktop\128.png"
     style="opacity:0.61338286;fill:#ffffff;fill-opacity:0;stroke:#000000;stroke-width:3.26806188;stroke-miterlimit:4;stroke-opacity:1;stroke-dasharray:none"
     id="rect3155-2"
     width="321.95847"
     height="321.95847"
     x="14.020748"
     y="14.020716"
     rx="33.825481"
     ry="26.21413" /><g
     transform="translate(400.39145,135.8211)"
     style="fill:#000000;fill-opacity:1;stroke:none"
     id="LWPOLYLINE_2_-3">
	
		
</g></g><g
   id="g3074"
   transform="matrix(0.50125313,0,0,0.50125313,21.608852,-23.088976)"><g
     id="LINE">
	
		
</g><g
     id="LWPOLYLINE">
	
		
</g><g
     id="LINE_1_">
	
		
</g><g
     id="LWPOLYLINE_1_">
	
		
</g><g
     id="LINE_2_">
	
		
</g><g
     id="LINE_3_">
	
		
</g><g
     id="LWPOLYLINE_2_">
	
		
</g><g
     id="LINE_4_">
	
		
</g><g
     id="LINE_5_">
	
		
</g><g
     id="LWPOLYLINE_3_">
	
		
</g><g
     id="LINE_6_">
	
		
</g><g
     id="LWPOLYLINE_4_">
	
		
</g><g
     id="LINE_7_">
	
		
</g><g
     style="fill:#000000;fill-opacity:1;stroke:none"
     id="ARC">
	
		<path
   id="path43"
   d="m 326,145.8125 c 0.0665,12.4585 0.0805,24.603 0.125,36.75 -0.0165,25.84133 -39.2883,25.69301 -39.25,0 0,-12.147 10e-4,-24.29225 0.3125,-35.09375 -30.79869,4.75443 -60.86922,16.90439 -86.96875,35.3125 7.0225,7.62267 15.40675,15.99534 24.03125,24.375 4.83024,4.19186 6.38373,10.83714 5.78125,16.84375 -0.53758,15.59199 -21.42091,23.49663 -32.90625,11.625 -8.83566,-9.49166 -17.20408,-17.88709 -25.90625,-25.84375 -24.32992,30.63661 -37.6523,69.07071 -37.5,107.65625 0.066,18.83601 0.0435,37.664 0.5,56.5 l 36.9375,0 c 6.29634,-0.056 12.31059,3.47546 15.65625,8.75 8.86377,12.17861 0.0148,32.56115 -15.65625,32.25 l -37.375,0 c -0.90101,19.132 -0.89075,38.27425 -0.96875,57.40625 -0.16728,38.60547 13.15115,76.96735 37.46875,106.71875 8.70217,-8.86917 17.10183,-17.23285 25.9375,-25.8125 5.50509,-5.33308 13.51731,-6.63671 20.25,-4.5625 14.85013,3.44196 18.4094,23.3303 8.1875,33.4375 -9.036,7.93483 -17.40825,16.34142 -27.15625,25.34375 24.26601,21.18943 55.75933,34.27156 88.4375,37.09375 0.033,-13.08118 0.0312,-25.22834 0.0312,-37.375 0.0718,-26.33722 40.15121,-26.19696 40.5625,0 0.4455,12.14666 0.442,24.28682 0.375,36.8125 31.59786,-3.15969 62.10279,-15.96094 86.59375,-36.53125 C 404.78679,598.46642 396.38387,590.07183 387.9062,581 c -4.0994,-5.30239 -5.62411,-11.89878 -4.15625,-17.8125 2.65033,-14.46417 22.74708,-21.12254 32.84375,-10.09375 8.06783,8.71365 16.44167,17.09433 25,25.5625 23.75226,-30.04343 36.76685,-68.09267 36.71875,-106.78125 -0.067,-19.2805 -0.0625,-38.1025 -0.0625,-56.9375 l -36.4375,0 c -6.88065,0.059 -13.5087,-3.77722 -17.0625,-9.625 -8.50087,-12.59883 1.62588,-31.99654 17.0625,-31.375 l 36.875,0 c 0.44549,-18.836 0.46475,-37.66399 0.53125,-56.5 0.13492,-38.30756 -13.08346,-76.44045 -37.25,-107.34375 -8.95783,7.64516 -17.30817,16.04609 -25.6875,25.09375 -4.93642,4.96273 -11.96639,6.41347 -18.3125,5.1875 -14.77486,-1.89623 -21.46972,-21.61094 -10.59375,-33.21875 9.02467,-9.29167 17.39383,-17.66733 26.0625,-25.3125 C 388.79671,162.18164 357.9534,149.10156 326,145.8125 z m -58.75,20.15625 c 0.5115,7.47883 0.5,12.04042 0.5,16.59375 -1.46895,29.85686 36.52811,50.09374 60.46875,32.1875 10.5692,-7.03585 17.24119,-19.47488 17.0625,-32.1875 -0.067,-4.55333 -0.0813,-9.11391 -0.28125,-13.65625 13.19624,3.34716 26.14299,8.48172 38.59375,15.09375 -2.79533,3.059 -6.00742,6.28674 -8.78125,9.96875 -16.75566,16.52788 -14.20447,47.66945 5.875,60.25 15.04348,10.38198 36.6494,8.03873 49.28125,-5.5625 3.17382,-3.719 6.38792,-6.92724 9.40625,-9.65625 13.98629,23.8351 21.5448,51.12966 21.5625,78.4375 l 0,38.25 -19.125,0 c -23.53572,-0.82864 -43.82298,23.03218 -38.5,46.125 3.2849,17.99601 20.26117,31.63785 38.5,31.3125 l 18.1875,0 0,39.21875 c 0.0491,27.224 -7.2161,54.37612 -20.625,77.53125 -3.01833,-3.64083 -6.21917,-6.87542 -9.4375,-10.09375 -16.16975,-17.45796 -47.86331,-14.57298 -60.15625,5.96875 -10.02973,15.02481 -7.48455,36.24996 4.96875,48.75 2.81833,3.16649 6.02742,6.4035 9.15625,10.4375 -12.26022,7.79528 -25.35829,13.20166 -38.84375,16.28125 0.132,-4.90917 0.15625,-9.47759 0.15625,-14.03125 0.78662,-23.5248 -23.0637,-43.76833 -46.15625,-38.4375 -17.97904,3.28359 -31.59598,20.21438 -31.3125,38.4375 0,4.55366 0.006,9.10483 -0.90625,14.125 -15.24456,-2.22535 -27.94477,-7.99808 -39.46875,-16.5625 3.86333,-3.85601 7.07742,-7.07951 10.71875,-10.3125 15.82911,-15.58867 14.07061,-43.79415 -3.84375,-56.75 -14.65774,-11.27725 -37.86829,-11.16382 -51.71875,2.125 -3.67433,3.19583 -6.90792,6.39993 -9.78125,10.21875 -13.45981,-23.03564 -20.8477,-50.31767 -20.8125,-77.6875 0.067,-13.06633 0.0937,-26.15242 0.0937,-39.21875 l 19.125,0 c 23.93114,0.82667 43.40177,-24.42113 37.28125,-47.40625 -3.61814,-17.10988 -19.73025,-30.25819 -37.28125,-30.03125 l -18.21875,0 c 0,-12.755 -0.005,-25.49499 -0.0937,-38.25 -0.0591,-27.17016 7.5725,-54.25603 21.09375,-78.1875 2.61783,2.4955 5.82567,5.701 9.5,9.375 17.06962,18.31122 50.21101,15.0705 61.5625,-7.0625 8.50994,-14.91803 5.86673,-35.07987 -6.875,-47.59375 -3.49633,-3.19234 -6.52617,-5.94517 -10.8125,-11.0625 11.38368,-10.10937 25.12472,-16.02375 39.9375,-16.9375 z"
   style="fill:#000000;fill-opacity:1;stroke:none"
   inkscape:connector-curvature="0" />
</g><g
     id="LINE_8_">
	
		
</g><g
     id="ARC_1_">
	
		
</g><g
     id="LINE_9_">
	
		
</g><g
     id="LWPOLYLINE_5_">
	
		
</g><g
     id="LINE_10_">
	
		
</g><g
     id="LWPOLYLINE_6_">
	
		
</g><g
     id="LINE_11_">
	
		
</g><g
     id="LWPOLYLINE_7_">
	
		
</g><g
     id="LINE_12_">
	
		
</g><g
     id="LINE_13_">
	
		
</g><g
     id="LWPOLYLINE_8_">
	
		
</g><g
     id="LINE_14_">
	
		
</g><g
     id="LINE_15_">
	
		
</g><g
     id="LWPOLYLINE_9_">
	
		
</g><g
     id="LINE_16_">
	
		
</g><g
     id="LWPOLYLINE_10_">
	
		
</g><g
     id="LINE_17_">
	
		
</g><g
     id="LWPOLYLINE_11_">
	
		
</g><g
     id="LINE_18_">
	
		
</g><g
     id="ARC_2_">
	
		
</g><g
     id="LINE_19_">
	
		
</g><g
     id="ARC_3_">
	
		
</g><g
     style="fill:#000000;fill-opacity:1;stroke:none"
     id="LWPOLYLINE_12_">
	
		<path
   inkscape:connector-curvature="0"
   id="rect112"
   d="m 231.283,320.16 c 6.50029,0.89161 16.5194,-1.73561 20.95701,1.21867 0,20.55078 0,41.10155 0,61.65233 -6.50029,-0.89161 -16.5194,1.73561 -20.95701,-1.21867 0,-20.55078 0,-41.10155 0,-61.65233 z"
   style="fill:#000000;fill-opacity:1;stroke:none" />
</g><g
     style="fill:#000000;fill-opacity:1;stroke:none"
     id="LWPOLYLINE_13_">
	
		<path
   inkscape:connector-curvature="0"
   id="rect115"
   d="m 231.283,403.98801 c 6.50029,0.89161 16.5194,-1.73561 20.95701,1.21867 0,20.55011 0,41.10022 0,61.65033 -6.50029,-0.89161 -16.5194,1.73561 -20.95701,-1.21867 0,-20.55011 0,-41.10022 0,-61.65033 z"
   style="fill:#000000;fill-opacity:1;stroke:none" />
</g><g
     style="fill:#000000;fill-opacity:1;stroke:none"
     id="LWPOLYLINE_14_">
	
		<path
   inkscape:connector-curvature="0"
   id="rect118"
   d="m 357.04501,320.16 c 6.50029,0.89161 16.51939,-1.73561 20.957,1.21867 0,20.55078 0,41.10155 0,61.65233 -6.50029,-0.89161 -16.51939,1.73561 -20.957,-1.21867 0,-20.55078 0,-41.10155 0,-61.65233 z"
   style="fill:#000000;fill-opacity:1;stroke:none" />
</g><g
     style="fill:#000000;fill-opacity:1;stroke:none"
     id="LWPOLYLINE_15_">
	
		<path
   inkscape:connector-curvature="0"
   id="rect121"
   d="m 357.04501,403.98801 c 6.50029,0.89161 16.51939,-1.73561 20.957,1.21867 0,20.55011 0,41.10022 0,61.65033 -6.50029,-0.89161 -16.51939,1.73561 -20.957,-1.21867 0,-20.55011 0,-41.10022 0,-61.65033 z"
   style="fill:#000000;fill-opacity:1;stroke:none" />
</g><g
     id="ARC_4_">
	
		
</g><g
     style="fill:#000000;fill-opacity:1;stroke:none"
     id="LWPOLYLINE_16_">
	
		<path
   sodipodi:nodetypes="ccccc"
   inkscape:connector-curvature="0"
   id="polyline127"
   d="m 253.308,299.404 c 3.77658,-20.50924 20.43238,-37.86179 41.046,-41.713 l 0.088,-20.355 c -31.54252,4.16459 -57.94505,30.44993 -62.27,61.98 z"
   style="fill:#000000;fill-opacity:1;stroke:none" />
</g><g
     style="fill:#000000;fill-opacity:1;stroke:none"
     id="LWPOLYLINE_17_">
	
		<path
   sodipodi:nodetypes="ccccc"
   inkscape:connector-curvature="0"
   id="polyline130"
   d="m 376.267,298.471 c -3.99584,-31.33613 -29.90447,-57.85127 -61.269,-62.18 l -0.088,21.289 c 20.33053,3.83154 37.15314,20.66884 41.023,40.979 z"
   style="fill:#000000;fill-opacity:1;stroke:none" />
</g><g
     id="ARC_5_">
	
		
</g><g
     id="ARC_6_">
	
		
</g><g
     style="fill:#000000;fill-opacity:1;stroke:none"
     id="LWPOLYLINE_18_">
	
		<path
   sodipodi:nodetypes="ccccc"
   inkscape:connector-curvature="0"
   id="polyline139"
   d="m 294.354,530.572 c -20.43509,-3.78703 -37.22188,-20.71294 -41.046,-41.111 l -21.158,0.088 c 4.25984,31.52252 30.60087,57.85767 62.136,62.113 z"
   style="fill:#000000;fill-opacity:1;stroke:none" />
</g><g
     id="LWPOLYLINE_19_">
	
		
</g><g
     style="fill:#000000;fill-opacity:1;stroke:none"
     id="ARC_7_">
	
		<path
   sodipodi:nodetypes="ccccc"
   inkscape:connector-curvature="0"
   id="path145"
   d="m 314.909,530.35 c 20.32633,-3.82828 37.15318,-20.66401 41.023,-40.979 l 20.335,0.09 c -3.9948,31.34698 -29.89903,57.85292 -61.269,62.201 z"
   style="fill:#000000;fill-opacity:1;stroke:none" />
</g><g
     id="LINE_20_">
	
		
</g><g
     id="LWPOLYLINE_20_">
	
		
</g><g
     id="LINE_21_">
	
		
</g><g
     id="ARC_8_">
	
		
</g><g
     id="LINE_22_">
	
		
</g><g
     id="LINE_23_">
	
		
</g><g
     id="LWPOLYLINE_21_">
	
		
</g><g
     id="LINE_24_">
	
		
</g><g
     id="LINE_25_">
	
		
</g><g
     id="ARC_9_">
	
		
</g><g
     id="LINE_26_">
	
		
</g><g
     id="LWPOLYLINE_22_">
	
		
</g><g
     id="LINE_27_">
	
		
</g><g
     id="ARC_10_">
	
		
</g><g
     id="LINE_28_">
	
		
</g><g
     id="ARC_11_">
	
		
</g><g
     id="LINE_29_">
	
		
</g><g
     id="LWPOLYLINE_23_">
	
		
</g><g
     id="LINE_30_">
	
		
</g><g
     id="LWPOLYLINE_24_">
	
		
</g><g
     id="LINE_31_">
	
		
</g><g
     id="LWPOLYLINE_25_">
	
		
</g><g
     id="LINE_32_">
	
		
</g><g
     id="LINE_33_">
	
		
</g><g
     id="LWPOLYLINE_26_">
	
		
</g><g
     id="LINE_34_">
	
		
</g><g
     id="LINE_35_">
	
		
</g><g
     id="LWPOLYLINE_27_">
	
		
</g><g
     id="LINE_36_">
	
		
</g><g
     id="LWPOLYLINE_28_">
	
		
</g><g
     id="LINE_37_">
	
		
</g><g
     id="LWPOLYLINE_29_">
	
		
</g><g
     id="LINE_38_">
	
		
</g><g
     id="LWPOLYLINE_30_">
	
		
</g><g
     id="LINE_39_">
	
		
</g><g
     id="LWPOLYLINE_31_">
	
		
</g></g>
</svg>