<?xml version="1.0" encoding="UTF-8" standalone="no"?>
<!-- Generator: Adobe Illustrator 16.0.1, SVG Export Plug-In . SVG Version: 6.00 Build 0)  -->

<svg
   xmlns:dc="http://purl.org/dc/elements/1.1/"
   xmlns:cc="http://creativecommons.org/ns#"
   xmlns:rdf="http://www.w3.org/1999/02/22-rdf-syntax-ns#"
   xmlns:svg="http://www.w3.org/2000/svg"
   xmlns="http://www.w3.org/2000/svg"
   xmlns:sodipodi="http://sodipodi.sourceforge.net/DTD/sodipodi-0.dtd"
   xmlns:inkscape="http://www.inkscape.org/namespaces/inkscape"
   version="1.0"
   id="_x31_"
   x="0px"
   y="0px"
   width="612px"
   height="792px"
   viewBox="0 0 612 792"
   enable-background="new 0 0 612 792"
   xml:space="preserve"
   inkscape:version="0.48.2 r9819"
   sodipodi:docname="7093.svg"><metadata
   id="metadata259"><rdf:RDF><cc:Work
       rdf:about=""><dc:format>image/svg+xml</dc:format><dc:type
         rdf:resource="http://purl.org/dc/dcmitype/StillImage" /></cc:Work></rdf:RDF></metadata><defs
   id="defs257" /><sodipodi:namedview
   pagecolor="#ffffff"
   bordercolor="#666666"
   borderopacity="1"
   objecttolerance="10"
   gridtolerance="10"
   guidetolerance="10"
   inkscape:pageopacity="0"
   inkscape:pageshadow="2"
   inkscape:window-width="1920"
   inkscape:window-height="1073"
   id="namedview255"
   showgrid="false"
   showguides="true"
   inkscape:guide-bbox="true"
   inkscape:zoom="1.1919192"
   inkscape:cx="87.246485"
   inkscape:cy="432.73716"
   inkscape:window-x="0"
   inkscape:window-y="0"
   inkscape:window-maximized="1"
   inkscape:current-layer="_x31_" />
<g
   id="LINE">
	
		
</g>
<g
   id="LWPOLYLINE">
	
		
</g>
<g
   id="LINE_1_">
	
		
</g>
<g
   id="LWPOLYLINE_1_">
	
		
</g>
<g
   id="LINE_2_">
	
		
</g>
<g
   id="LINE_3_">
	
		
</g>
<g
   id="LWPOLYLINE_2_">
	
		
</g>
<g
   id="LINE_4_">
	
		
</g>
<g
   id="LINE_5_">
	
		
</g>
<g
   id="LWPOLYLINE_3_">
	
		
</g>
<g
   id="LINE_6_">
	
		
</g>
<g
   id="LWPOLYLINE_4_">
	
		
</g>
<g
   id="LINE_7_">
	
		
</g>
<g
   id="ARC"
   style="stroke:none;fill:#000000;fill-opacity:1">
	
		<path
   style="fill:#000000;stroke:none;stroke-width:0.70870000000000000;stroke-linecap:round;stroke-linejoin:round;stroke-miterlimit:10;fill-opacity:1"
   d="M 326 145.8125 C 326.0665 158.271 326.0805 170.4155 326.125 182.5625 C 326.10852 208.40383 286.8367 208.25551 286.875 182.5625 C 286.875 170.4155 286.876 158.27025 287.1875 147.46875 C 256.38881 152.22318 226.31828 164.37314 200.21875 182.78125 C 207.24125 190.40392 215.6255 198.77659 224.25 207.15625 C 229.08024 211.34811 230.63373 217.99339 230.03125 224 C 229.49367 239.59199 208.61034 247.49663 197.125 235.625 C 188.28934 226.13334 179.92092 217.73791 171.21875 209.78125 C 146.88883 240.41786 133.56645 278.85196 133.71875 317.4375 C 133.78475 336.27351 133.76225 355.1015 134.21875 373.9375 L 171.15625 373.9375 C 177.45259 373.88152 183.46684 377.41296 186.8125 382.6875 C 195.67627 394.86611 186.82728 415.24865 171.15625 414.9375 L 133.78125 414.9375 C 132.88024 434.0695 132.8905 453.21175 132.8125 472.34375 C 132.64522 510.94922 145.96365 549.3111 170.28125 579.0625 C 178.98342 570.19333 187.38308 561.82965 196.21875 553.25 C 201.72384 547.91692 209.73606 546.61329 216.46875 548.6875 C 231.31888 552.12946 234.87815 572.0178 224.65625 582.125 C 215.62025 590.05983 207.248 598.46642 197.5 607.46875 C 221.76601 628.65818 253.25933 641.74031 285.9375 644.5625 C 285.9705 631.48132 285.96875 619.33416 285.96875 607.1875 C 286.04053 580.85028 326.11996 580.99054 326.53125 607.1875 C 326.97675 619.33416 326.97325 631.47432 326.90625 644 C 358.50411 640.84031 389.00904 628.03906 413.5 607.46875 C 404.78684 598.46642 396.38392 590.07183 387.90625 581 C 383.80685 575.69761 382.28214 569.10122 383.75 563.1875 C 386.40033 548.72333 406.49708 542.06496 416.59375 553.09375 C 424.66158 561.8074 433.03542 570.18808 441.59375 578.65625 C 465.34601 548.61282 478.3606 510.56358 478.3125 471.875 C 478.2455 452.5945 478.25 433.7725 478.25 414.9375 L 441.8125 414.9375 C 434.93185 414.9965 428.3038 411.16028 424.75 405.3125 C 416.24913 392.71367 426.37588 373.31596 441.8125 373.9375 L 478.6875 373.9375 C 479.13299 355.1015 479.15225 336.27351 479.21875 317.4375 C 479.35367 279.12994 466.13529 240.99705 441.96875 210.09375 C 433.01092 217.73891 424.66058 226.13984 416.28125 235.1875 C 411.34483 240.15023 404.31486 241.60097 397.96875 240.375 C 383.19389 238.47877 376.49903 218.76406 387.375 207.15625 C 396.39967 197.86458 404.76883 189.48892 413.4375 181.84375 C 388.79671 162.18164 357.9534 149.10156 326 145.8125 z M 267.25 165.96875 C 267.7615 173.44758 267.75 178.00917 267.75 182.5625 C 266.28105 212.41936 304.27811 232.65624 328.21875 214.75 C 338.78795 207.71415 345.45994 195.27512 345.28125 182.5625 C 345.21425 178.00917 345.2 173.44859 345 168.90625 C 358.19624 172.25341 371.14299 177.38797 383.59375 184 C 380.79842 187.059 377.58633 190.28674 374.8125 193.96875 C 358.05684 210.49663 360.60803 241.6382 380.6875 254.21875 C 395.73098 264.60073 417.3369 262.25748 429.96875 248.65625 C 433.14257 244.93725 436.35667 241.72901 439.375 239 C 453.36129 262.8351 460.9198 290.12966 460.9375 317.4375 L 460.9375 355.6875 L 441.8125 355.6875 C 418.27678 354.85886 397.98952 378.71968 403.3125 401.8125 C 406.5974 419.80851 423.57367 433.45035 441.8125 433.125 L 460 433.125 L 460 472.34375 C 460.0491 499.56775 452.7839 526.71987 439.375 549.875 C 436.35667 546.23417 433.15583 542.99958 429.9375 539.78125 C 413.76775 522.32329 382.07419 525.20827 369.78125 545.75 C 359.75152 560.77481 362.2967 581.99996 374.75 594.5 C 377.56833 597.66649 380.77742 600.9035 383.90625 604.9375 C 371.64603 612.73278 358.54796 618.13916 345.0625 621.21875 C 345.1945 616.30958 345.21875 611.74116 345.21875 607.1875 C 346.00537 583.6627 322.15505 563.41917 299.0625 568.75 C 281.08346 572.03359 267.46652 588.96438 267.75 607.1875 C 267.75 611.74116 267.75575 616.29233 266.84375 621.3125 C 251.59919 619.08715 238.89898 613.31442 227.375 604.75 C 231.23833 600.89399 234.45242 597.67049 238.09375 594.4375 C 253.92286 578.84883 252.16436 550.64335 234.25 537.6875 C 219.59226 526.41025 196.38171 526.52368 182.53125 539.8125 C 178.85692 543.00833 175.62333 546.21243 172.75 550.03125 C 159.29019 526.99561 151.9023 499.71358 151.9375 472.34375 C 152.0045 459.27742 152.03125 446.19133 152.03125 433.125 L 171.15625 433.125 C 195.08739 433.95167 214.55802 408.70387 208.4375 385.71875 C 204.81936 368.60887 188.70725 355.46056 171.15625 355.6875 L 152.9375 355.6875 C 152.9375 342.9325 152.93275 330.19251 152.84375 317.4375 C 152.78466 290.26734 160.41625 263.18147 173.9375 239.25 C 176.55533 241.7455 179.76317 244.951 183.4375 248.625 C 200.50712 266.93622 233.64851 263.6955 245 241.5625 C 253.50994 226.64447 250.86673 206.48263 238.125 193.96875 C 234.62867 190.77641 231.59883 188.02358 227.3125 182.90625 C 238.69618 172.79688 252.43722 166.8825 267.25 165.96875 z "
   id="path43" />
</g>
<g
   id="LINE_8_">
	
		
</g>
<g
   id="ARC_1_">
	
		
</g>
<g
   id="LINE_9_">
	
		
</g>
<g
   id="LWPOLYLINE_5_">
	
		
</g>
<g
   id="LINE_10_">
	
		
</g>
<g
   id="LWPOLYLINE_6_">
	
		
</g>
<g
   id="LINE_11_">
	
		
</g>
<g
   id="LWPOLYLINE_7_">
	
		
</g>
<g
   id="LINE_12_">
	
		
</g>
<g
   id="LINE_13_">
	
		
</g>
<g
   id="LWPOLYLINE_8_">
	
		
</g>
<g
   id="LINE_14_">
	
		
</g>
<g
   id="LINE_15_">
	
		
</g>
<g
   id="LWPOLYLINE_9_">
	
		
</g>
<g
   id="LINE_16_">
	
		
</g>
<g
   id="LWPOLYLINE_10_">
	
		
</g>
<g
   id="LINE_17_">
	
		
</g>
<g
   id="LWPOLYLINE_11_">
	
		
</g>
<g
   id="LINE_18_">
	
		
</g>
<g
   id="ARC_2_">
	
		
</g>
<g
   id="LINE_19_">
	
		
</g>
<g
   id="ARC_3_">
	
		
</g>
<g
   id="LWPOLYLINE_12_"
   style="stroke:none;fill:#000000;fill-opacity:1">
	
		<path
   style="fill:#000000;stroke:none;stroke-width:0.70870000000000000;stroke-linecap:round;stroke-linejoin:round;stroke-miterlimit:10;fill-opacity:1"
   d="m 231.283,320.16 c 6.50029,0.89161 16.5194,-1.73561 20.95701,1.21867 0,20.55078 0,41.10155 0,61.65233 -6.50029,-0.89161 -16.5194,1.73561 -20.95701,-1.21867 0,-20.55078 0,-41.10155 0,-61.65233 z"
   id="rect112"
   inkscape:connector-curvature="0" />
</g>
<g
   id="LWPOLYLINE_13_"
   style="stroke:none;fill:#000000;fill-opacity:1">
	
		<path
   style="fill:#000000;stroke:none;stroke-width:0.70870000000000000;stroke-linecap:round;stroke-linejoin:round;stroke-miterlimit:10;fill-opacity:1"
   d="m 231.283,403.98801 c 6.50029,0.89161 16.5194,-1.73561 20.95701,1.21867 0,20.55011 0,41.10022 0,61.65033 -6.50029,-0.89161 -16.5194,1.73561 -20.95701,-1.21867 0,-20.55011 0,-41.10022 0,-61.65033 z"
   id="rect115"
   inkscape:connector-curvature="0" />
</g>
<g
   id="LWPOLYLINE_14_"
   style="stroke:none;fill:#000000;fill-opacity:1">
	
		<path
   style="fill:#000000;stroke:none;stroke-width:0.70870000000000000;stroke-linecap:round;stroke-linejoin:round;stroke-miterlimit:10;fill-opacity:1"
   d="m 357.04501,320.16 c 6.50029,0.89161 16.51939,-1.73561 20.957,1.21867 0,20.55078 0,41.10155 0,61.65233 -6.50029,-0.89161 -16.51939,1.73561 -20.957,-1.21867 0,-20.55078 0,-41.10155 0,-61.65233 z"
   id="rect118"
   inkscape:connector-curvature="0" />
</g>
<g
   id="LWPOLYLINE_15_"
   style="stroke:none;fill:#000000;fill-opacity:1">
	
		<path
   style="fill:#000000;stroke:none;stroke-width:0.70870000000000000;stroke-linecap:round;stroke-linejoin:round;stroke-miterlimit:10;fill-opacity:1"
   d="m 357.04501,403.98801 c 6.50029,0.89161 16.51939,-1.73561 20.957,1.21867 0,20.55011 0,41.10022 0,61.65033 -6.50029,-0.89161 -16.51939,1.73561 -20.957,-1.21867 0,-20.55011 0,-41.10022 0,-61.65033 z"
   id="rect121"
   inkscape:connector-curvature="0" />
</g>
<g
   id="ARC_4_">
	
		
</g>
<g
   id="LWPOLYLINE_16_"
   style="stroke:none;fill:#000000;fill-opacity:1">
	
		<path
   style="fill:#000000;stroke:none;stroke-width:0.70870000000000000;stroke-linecap:round;stroke-linejoin:round;stroke-miterlimit:10;fill-opacity:1"
   d="m 253.308,299.404 c 3.77658,-20.50924 20.43238,-37.86179 41.046,-41.713 l 0.088,-20.355 c -31.54252,4.16459 -57.94505,30.44993 -62.27,61.98 z"
   id="polyline127"
   inkscape:connector-curvature="0"
   sodipodi:nodetypes="ccccc" />
</g>
<g
   id="LWPOLYLINE_17_"
   style="stroke:none;fill:#000000;fill-opacity:1">
	
		<path
   style="fill:#000000;stroke:none;stroke-width:0.70870000000000000;stroke-linecap:round;stroke-linejoin:round;stroke-miterlimit:10;fill-opacity:1"
   d="m 376.267,298.471 c -3.99584,-31.33613 -29.90447,-57.85127 -61.269,-62.18 l -0.088,21.289 c 20.33053,3.83154 37.15314,20.66884 41.023,40.979 z"
   id="polyline130"
   inkscape:connector-curvature="0"
   sodipodi:nodetypes="ccccc" />
</g>
<g
   id="ARC_5_">
	
		
</g>
<g
   id="ARC_6_">
	
		
</g>
<g
   id="LWPOLYLINE_18_"
   style="stroke:none;fill:#000000;fill-opacity:1">
	
		<path
   style="fill:#000000;stroke:none;stroke-width:0.70870000000000000;stroke-linecap:round;stroke-linejoin:round;stroke-miterlimit:10;fill-opacity:1"
   d="m 294.354,530.572 c -20.43509,-3.78703 -37.22188,-20.71294 -41.046,-41.111 l -21.158,0.088 c 4.25984,31.52252 30.60087,57.85767 62.136,62.113 z"
   id="polyline139"
   inkscape:connector-curvature="0"
   sodipodi:nodetypes="ccccc" />
</g>
<g
   id="LWPOLYLINE_19_">
	
		
</g>
<g
   id="ARC_7_"
   style="stroke:none;fill:#000000;fill-opacity:1">
	
		<path
   style="fill:#000000;stroke:none;stroke-width:0.70870000000000000;stroke-linecap:round;stroke-linejoin:round;stroke-miterlimit:10;fill-opacity:1"
   d="m 314.909,530.35 c 20.32633,-3.82828 37.15318,-20.66401 41.023,-40.979 l 20.335,0.09 c -3.9948,31.34698 -29.89903,57.85292 -61.269,62.201 z"
   id="path145"
   inkscape:connector-curvature="0"
   sodipodi:nodetypes="ccccc" />
</g>
<g
   id="LINE_20_">
	
		
</g>
<g
   id="LWPOLYLINE_20_">
	
		
</g>
<g
   id="LINE_21_">
	
		
</g>
<g
   id="ARC_8_">
	
		
</g>
<g
   id="LINE_22_">
	
		
</g>
<g
   id="LINE_23_">
	
		
</g>
<g
   id="LWPOLYLINE_21_">
	
		
</g>
<g
   id="LINE_24_">
	
		
</g>
<g
   id="LINE_25_">
	
		
</g>
<g
   id="ARC_9_">
	
		
</g>
<g
   id="LINE_26_">
	
		
</g>
<g
   id="LWPOLYLINE_22_">
	
		
</g>
<g
   id="LINE_27_">
	
		
</g>
<g
   id="ARC_10_">
	
		
</g>
<g
   id="LINE_28_">
	
		
</g>
<g
   id="ARC_11_">
	
		
</g>
<g
   id="LINE_29_">
	
		
</g>
<g
   id="LWPOLYLINE_23_">
	
		
</g>
<g
   id="LINE_30_">
	
		
</g>
<g
   id="LWPOLYLINE_24_">
	
		
</g>
<g
   id="LINE_31_">
	
		
</g>
<g
   id="LWPOLYLINE_25_">
	
		
</g>
<g
   id="LINE_32_">
	
		
</g>
<g
   id="LINE_33_">
	
		
</g>
<g
   id="LWPOLYLINE_26_">
	
		
</g>
<g
   id="LINE_34_">
	
		
</g>
<g
   id="LINE_35_">
	
		
</g>
<g
   id="LWPOLYLINE_27_">
	
		
</g>
<g
   id="LINE_36_">
	
		
</g>
<g
   id="LWPOLYLINE_28_">
	
		
</g>
<g
   id="LINE_37_">
	
		
</g>
<g
   id="LWPOLYLINE_29_">
	
		
</g>
<g
   id="LINE_38_">
	
		
</g>
<g
   id="LWPOLYLINE_30_">
	
		
</g>
<g
   id="LINE_39_">
	
		
</g>
<g
   id="LWPOLYLINE_31_">
	
		
</g>
</svg>