<?xml version="1.0" encoding="UTF-8" standalone="no"?>
<!-- Generator: Adobe Illustrator 16.0.1, SVG Export Plug-In . SVG Version: 6.00 Build 0)  -->

<svg
   xmlns:dc="http://purl.org/dc/elements/1.1/"
   xmlns:cc="http://creativecommons.org/ns#"
   xmlns:rdf="http://www.w3.org/1999/02/22-rdf-syntax-ns#"
   xmlns:svg="http://www.w3.org/2000/svg"
   xmlns="http://www.w3.org/2000/svg"
   xmlns:xlink="http://www.w3.org/1999/xlink"
   xmlns:sodipodi="http://sodipodi.sourceforge.net/DTD/sodipodi-0.dtd"
   xmlns:inkscape="http://www.inkscape.org/namespaces/inkscape"
   version="1.0"
   id="_x31_"
   x="0px"
   y="0px"
   width="350"
   height="350"
   viewBox="0 0 350 350"
   enable-background="new 0 0 612 792"
   xml:space="preserve"
   inkscape:version="0.48.2 r9819"
   sodipodi:docname="7095.svg"><metadata
   id="metadata40"><rdf:RDF><cc:Work
       rdf:about=""><dc:format>image/svg+xml</dc:format><dc:type
         rdf:resource="http://purl.org/dc/dcmitype/StillImage" /></cc:Work></rdf:RDF></metadata><defs
   id="defs38"><radialGradient
     r="333.18735"
     fy="710.99164"
     fx="373.24265"
     cy="710.99164"
     cx="373.24265"
     gradientTransform="matrix(0.86272608,1.0667183e-7,-5.1097115e-8,0.31434,-147.00617,81.5576)"
     gradientUnits="userSpaceOnUse"
     id="radialGradient3092"
     xlink:href="#linearGradient5443"
     inkscape:collect="always" /><radialGradient
     r="333.18735"
     fy="467.91885"
     fx="373.24265"
     cy="467.91885"
     cx="373.24265"
     gradientTransform="matrix(0.83535071,2.5391117e-7,-2.4564601e-7,0.80815889,-136.78854,-203.15302)"
     gradientUnits="userSpaceOnUse"
     id="radialGradient3088"
     xlink:href="#linearGradient5443"
     inkscape:collect="always" /><radialGradient
     r="333.18735"
     fy="467.91885"
     fx="373.24265"
     cy="467.91885"
     cx="373.24265"
     gradientTransform="matrix(0.83535071,2.5391117e-7,-2.4564601e-7,0.80815889,783.12101,707.99698)"
     gradientUnits="userSpaceOnUse"
     id="radialGradient3736"
     xlink:href="#linearGradient5443"
     inkscape:collect="always" /><linearGradient
     y2="254.73526"
     x2="123.47623"
     y1="344.03848"
     x1="123.50603"
     gradientTransform="matrix(2.3189708,0,0,2.0930998,-99.17808,-231.54972)"
     gradientUnits="userSpaceOnUse"
     id="linearGradient3734"
     xlink:href="#linearGradient3187"
     inkscape:collect="always" /><radialGradient
     r="333.18735"
     fy="710.99164"
     fx="373.24265"
     cy="710.99164"
     cx="373.24265"
     gradientTransform="matrix(0.86272608,1.0667183e-7,-5.1097115e-8,0.31434,772.90338,992.7076)"
     gradientUnits="userSpaceOnUse"
     id="radialGradient3732"
     xlink:href="#linearGradient5443"
     inkscape:collect="always" /><radialGradient
     r="333.18735"
     fy="710.99164"
     fx="373.24265"
     cy="710.99164"
     cx="373.24265"
     gradientTransform="matrix(0.86272608,1.0667183e-7,-5.1097115e-8,0.31434,772.90338,992.7076)"
     gradientUnits="userSpaceOnUse"
     id="radialGradient3722"
     xlink:href="#linearGradient5443"
     inkscape:collect="always" /><radialGradient
     r="333.18735"
     fy="467.91885"
     fx="373.24265"
     cy="467.91885"
     cx="373.24265"
     gradientTransform="matrix(0.83535071,2.5391117e-7,-2.4564601e-7,0.80815889,783.12101,707.99698)"
     gradientUnits="userSpaceOnUse"
     id="radialGradient3718"
     xlink:href="#linearGradient5443"
     inkscape:collect="always" /><radialGradient
     r="333.18735"
     fy="467.91885"
     fx="373.24265"
     cy="467.91885"
     cx="373.24265"
     gradientTransform="matrix(0.9201975,2.7970099e-7,-2.7059634e-7,0.8902438,-163.70313,61.921561)"
     gradientUnits="userSpaceOnUse"
     id="radialGradient3703"
     xlink:href="#linearGradient5443"
     inkscape:collect="always" /><linearGradient
     y2="254.73526"
     x2="123.47623"
     y1="344.03848"
     x1="123.50603"
     gradientTransform="matrix(2.3189708,0,0,2.0930998,-99.17808,-231.54972)"
     gradientUnits="userSpaceOnUse"
     id="linearGradient3701"
     xlink:href="#linearGradient3187"
     inkscape:collect="always" /><radialGradient
     r="333.18735"
     fy="710.99164"
     fx="373.24265"
     cy="710.99164"
     cx="373.24265"
     gradientTransform="matrix(0.9503534,1.1750652e-7,-5.6287062e-8,0.3462676,-174.95857,375.55031)"
     gradientUnits="userSpaceOnUse"
     id="radialGradient3699"
     xlink:href="#linearGradient5443"
     inkscape:collect="always" /><radialGradient
     r="333.18735"
     fy="467.91885"
     fx="373.24265"
     cy="467.91885"
     cx="373.24265"
     gradientTransform="matrix(0.9201975,2.7970099e-7,-2.7059634e-7,0.8902438,-163.70313,61.921561)"
     gradientUnits="userSpaceOnUse"
     id="radialGradient3680"
     xlink:href="#linearGradient5443"
     inkscape:collect="always" /><linearGradient
     y2="254.73526"
     x2="123.47623"
     y1="344.03848"
     x1="123.50603"
     gradientTransform="matrix(2.3189708,0,0,2.0930998,-99.17808,-231.54972)"
     gradientUnits="userSpaceOnUse"
     id="linearGradient3678"
     xlink:href="#linearGradient3187"
     inkscape:collect="always" /><radialGradient
     r="333.18735"
     fy="710.99164"
     fx="373.24265"
     cy="710.99164"
     cx="373.24265"
     gradientTransform="matrix(0.9503534,1.1750652e-7,-5.6287062e-8,0.3462676,-174.95857,375.55031)"
     gradientUnits="userSpaceOnUse"
     id="radialGradient3676"
     xlink:href="#linearGradient5443"
     inkscape:collect="always" /><radialGradient
     r="333.18735"
     fy="467.91885"
     fx="373.24265"
     cy="467.91885"
     cx="373.24265"
     gradientTransform="matrix(0.9201975,2.7970099e-7,-2.7059634e-7,0.8902438,-163.70313,61.921561)"
     gradientUnits="userSpaceOnUse"
     id="radialGradient3654"
     xlink:href="#linearGradient5443"
     inkscape:collect="always" /><linearGradient
     y2="254.73526"
     x2="123.47623"
     y1="344.03848"
     x1="123.50603"
     gradientTransform="matrix(2.3189708,0,0,2.0930998,-99.17808,-231.54972)"
     gradientUnits="userSpaceOnUse"
     id="linearGradient3652"
     xlink:href="#linearGradient3187"
     inkscape:collect="always" /><radialGradient
     r="333.18735"
     fy="710.99164"
     fx="373.24265"
     cy="710.99164"
     cx="373.24265"
     gradientTransform="matrix(0.9503534,1.1750652e-7,-5.6287062e-8,0.3462676,-174.95857,375.55031)"
     gradientUnits="userSpaceOnUse"
     id="radialGradient3650"
     xlink:href="#linearGradient5443"
     inkscape:collect="always" /><radialGradient
     r="333.18735"
     fy="467.91885"
     fx="373.24265"
     cy="467.91885"
     cx="373.24265"
     gradientTransform="matrix(0.9201975,2.7970099e-7,-2.7059634e-7,0.8902438,-163.70313,61.921561)"
     gradientUnits="userSpaceOnUse"
     id="radialGradient3627"
     xlink:href="#linearGradient5443"
     inkscape:collect="always" /><linearGradient
     y2="254.73526"
     x2="123.47623"
     y1="344.03848"
     x1="123.50603"
     gradientTransform="matrix(2.3189708,0,0,2.0930998,-99.17808,-231.54972)"
     gradientUnits="userSpaceOnUse"
     id="linearGradient3625"
     xlink:href="#linearGradient3187"
     inkscape:collect="always" /><radialGradient
     r="333.18735"
     fy="710.99164"
     fx="373.24265"
     cy="710.99164"
     cx="373.24265"
     gradientTransform="matrix(0.9503534,1.1750652e-7,-5.6287062e-8,0.3462676,-174.95857,375.55031)"
     gradientUnits="userSpaceOnUse"
     id="radialGradient3623"
     xlink:href="#linearGradient5443"
     inkscape:collect="always" /><radialGradient
     r="333.18735"
     fy="467.91885"
     fx="373.24265"
     cy="467.91885"
     cx="373.24265"
     gradientTransform="matrix(0.9201975,2.7970099e-7,-2.7059634e-7,0.8902438,-163.70313,61.921561)"
     gradientUnits="userSpaceOnUse"
     id="radialGradient3599"
     xlink:href="#linearGradient5443"
     inkscape:collect="always" /><linearGradient
     y2="254.73526"
     x2="123.47623"
     y1="344.03848"
     x1="123.50603"
     gradientTransform="matrix(2.3189708,0,0,2.0930998,-99.17808,-231.54972)"
     gradientUnits="userSpaceOnUse"
     id="linearGradient3597"
     xlink:href="#linearGradient3187"
     inkscape:collect="always" /><radialGradient
     r="333.18735"
     fy="710.99164"
     fx="373.24265"
     cy="710.99164"
     cx="373.24265"
     gradientTransform="matrix(0.9503534,1.1750652e-7,-5.6287062e-8,0.3462676,-174.95857,375.55031)"
     gradientUnits="userSpaceOnUse"
     id="radialGradient3595"
     xlink:href="#linearGradient5443"
     inkscape:collect="always" /><radialGradient
     r="333.18735"
     fy="467.91885"
     fx="373.24265"
     cy="467.91885"
     cx="373.24265"
     gradientTransform="matrix(0.9201975,2.7970099e-7,-2.7059634e-7,0.8902438,-163.70313,61.921561)"
     gradientUnits="userSpaceOnUse"
     id="radialGradient3525"
     xlink:href="#linearGradient5443"
     inkscape:collect="always" /><linearGradient
     y2="254.73526"
     x2="123.47623"
     y1="344.03848"
     x1="123.50603"
     gradientTransform="matrix(2.3189708,0,0,2.0930998,-99.17808,-231.54972)"
     gradientUnits="userSpaceOnUse"
     id="linearGradient3523"
     xlink:href="#linearGradient3187"
     inkscape:collect="always" /><radialGradient
     r="333.18735"
     fy="710.99164"
     fx="373.24265"
     cy="710.99164"
     cx="373.24265"
     gradientTransform="matrix(0.9503534,1.1750652e-7,-5.6287062e-8,0.3462676,-174.95857,375.55031)"
     gradientUnits="userSpaceOnUse"
     id="radialGradient3521"
     xlink:href="#linearGradient5443"
     inkscape:collect="always" /><radialGradient
     r="333.18735"
     fy="467.91885"
     fx="373.24265"
     cy="467.91885"
     cx="373.24265"
     gradientTransform="matrix(0.9201975,2.7970099e-7,-2.7059634e-7,0.8902438,-163.70313,61.921561)"
     gradientUnits="userSpaceOnUse"
     id="radialGradient3497"
     xlink:href="#linearGradient5443"
     inkscape:collect="always" /><linearGradient
     y2="254.73526"
     x2="123.47623"
     y1="344.03848"
     x1="123.50603"
     gradientTransform="matrix(2.3189708,0,0,2.0930998,-99.17808,-231.54972)"
     gradientUnits="userSpaceOnUse"
     id="linearGradient3495"
     xlink:href="#linearGradient3187"
     inkscape:collect="always" /><radialGradient
     r="333.18735"
     fy="710.99164"
     fx="373.24265"
     cy="710.99164"
     cx="373.24265"
     gradientTransform="matrix(0.9503534,1.1750652e-7,-5.6287062e-8,0.3462676,-174.95857,375.55031)"
     gradientUnits="userSpaceOnUse"
     id="radialGradient3493"
     xlink:href="#linearGradient5443"
     inkscape:collect="always" /><linearGradient
     id="linearGradient5443"><stop
       id="stop5445"
       offset="0"
       style="stop-color:#ffffff;stop-opacity:0;" /><stop
       id="stop5447"
       offset="1"
       style="stop-color:#000000;stop-opacity:0.33962265;" /></linearGradient><linearGradient
     id="linearGradient3157"><stop
       style="stop-color:#49bcff;stop-opacity:1;"
       offset="0"
       id="stop3159" /><stop
       style="stop-color:#494c96;stop-opacity:1;"
       offset="1"
       id="stop3161" /></linearGradient><linearGradient
     id="linearGradient3171"><stop
       id="stop3173"
       offset="0"
       style="stop-color:#49bcff;stop-opacity:1;" /><stop
       id="stop3175"
       offset="1"
       style="stop-color:#494cdc;stop-opacity:1;" /></linearGradient><linearGradient
     id="linearGradient3187"><stop
       style="stop-color:#ffffff;stop-opacity:0.39622641;"
       offset="0"
       id="stop3189" /><stop
       style="stop-color:#000000;stop-opacity:1;"
       offset="1"
       id="stop3191" /></linearGradient><linearGradient
     id="linearGradient4395"><stop
       style="stop-color:#110084;stop-opacity:1;"
       offset="0"
       id="stop4397" /><stop
       style="stop-color:#a695ff;stop-opacity:1;"
       offset="1"
       id="stop4399" /></linearGradient><linearGradient
     id="linearGradient4383"><stop
       style="stop-color:#00037f;stop-opacity:1;"
       offset="0"
       id="stop4385" /><stop
       style="stop-color:#00037f;stop-opacity:0;"
       offset="1"
       id="stop4387" /></linearGradient><inkscape:perspective
     sodipodi:type="inkscape:persp3d"
     inkscape:vp_x="0 : 526.18109 : 1"
     inkscape:vp_y="0 : 1000 : 0"
     inkscape:vp_z="744.09448 : 526.18109 : 1"
     inkscape:persp3d-origin="372.04724 : 350.78739 : 1"
     id="perspective3214" /><linearGradient
     inkscape:collect="always"
     xlink:href="#linearGradient4383"
     id="linearGradient4389"
     x1="371.42194"
     y1="298.59412"
     x2="396.91168"
     y2="655.4505"
     gradientUnits="userSpaceOnUse" /><linearGradient
     inkscape:collect="always"
     xlink:href="#linearGradient4395"
     id="linearGradient4401"
     x1="360.49777"
     y1="167.50403"
     x2="360.49777"
     y2="540.86719"
     gradientUnits="userSpaceOnUse" /><linearGradient
     inkscape:collect="always"
     xlink:href="#linearGradient3187"
     id="linearGradient4562"
     gradientUnits="userSpaceOnUse"
     gradientTransform="matrix(2.3189708,0,0,2.0930998,93.115298,-256.84999)"
     x1="123.50603"
     y1="344.03848"
     x2="123.47623"
     y2="254.73526" /><radialGradient
     inkscape:collect="always"
     xlink:href="#linearGradient3171"
     id="radialGradient4569"
     gradientUnits="userSpaceOnUse"
     gradientTransform="matrix(0.9201975,2.7970099e-7,-2.7059634e-7,0.8902438,28.590287,48.634335)"
     cx="373.24265"
     cy="467.91885"
     fx="373.24265"
     fy="467.91885"
     r="333.18735" /><radialGradient
     inkscape:collect="always"
     xlink:href="#linearGradient3157"
     id="radialGradient4572"
     gradientUnits="userSpaceOnUse"
     gradientTransform="matrix(0.9503534,1.1750652e-7,-5.6287062e-8,0.3462676,17.334826,362.44227)"
     cx="373.24265"
     cy="710.99164"
     fx="373.24265"
     fy="710.99164"
     r="333.18735" /><filter
     inkscape:collect="always"
     id="filter4659"
     color-interpolation-filters="sRGB"><feGaussianBlur
       inkscape:collect="always"
       stdDeviation="2.7750933"
       id="feGaussianBlur4661" /></filter><radialGradient
     inkscape:collect="always"
     xlink:href="#linearGradient3157"
     id="radialGradient4766"
     gradientUnits="userSpaceOnUse"
     gradientTransform="matrix(0.9503534,1.1750652e-7,-5.6287062e-8,0.3462676,17.334826,362.44227)"
     cx="373.24265"
     cy="710.99164"
     fx="373.24265"
     fy="710.99164"
     r="333.18735" /><radialGradient
     inkscape:collect="always"
     xlink:href="#linearGradient3171"
     id="radialGradient4768"
     gradientUnits="userSpaceOnUse"
     gradientTransform="matrix(0.9201975,2.7970099e-7,-2.7059634e-7,0.8902438,28.590287,48.634335)"
     cx="373.24265"
     cy="467.91885"
     fx="373.24265"
     fy="467.91885"
     r="333.18735" /><linearGradient
     inkscape:collect="always"
     xlink:href="#linearGradient3187"
     id="linearGradient4770"
     gradientUnits="userSpaceOnUse"
     gradientTransform="matrix(2.3189708,0,0,2.0930998,93.115298,-256.84999)"
     x1="123.50603"
     y1="344.03848"
     x2="123.47623"
     y2="254.73526" /><linearGradient
     inkscape:collect="always"
     xlink:href="#linearGradient3187"
     id="linearGradient4773"
     gradientUnits="userSpaceOnUse"
     gradientTransform="matrix(2.3189708,0,0,2.0930998,93.115298,-256.84999)"
     x1="123.50603"
     y1="344.03848"
     x2="123.47623"
     y2="254.73526" /><radialGradient
     inkscape:collect="always"
     xlink:href="#linearGradient3171"
     id="radialGradient4776"
     gradientUnits="userSpaceOnUse"
     gradientTransform="matrix(0.9201975,2.7970099e-7,-2.7059634e-7,0.8902438,28.590287,48.634335)"
     cx="373.24265"
     cy="467.91885"
     fx="373.24265"
     fy="467.91885"
     r="333.18735" /><radialGradient
     inkscape:collect="always"
     xlink:href="#linearGradient3157"
     id="radialGradient4779"
     gradientUnits="userSpaceOnUse"
     gradientTransform="matrix(0.9503534,1.1750652e-7,-5.6287062e-8,0.3462676,17.334826,362.44227)"
     cx="373.24265"
     cy="710.99164"
     fx="373.24265"
     fy="710.99164"
     r="333.18735" /><radialGradient
     inkscape:collect="always"
     xlink:href="#linearGradient3157"
     id="radialGradient4790"
     gradientUnits="userSpaceOnUse"
     gradientTransform="matrix(0.9503534,1.1750652e-7,-5.6287062e-8,0.3462676,17.334826,362.44227)"
     cx="373.24265"
     cy="710.99164"
     fx="373.24265"
     fy="710.99164"
     r="333.18735" /><radialGradient
     inkscape:collect="always"
     xlink:href="#linearGradient3171"
     id="radialGradient4792"
     gradientUnits="userSpaceOnUse"
     gradientTransform="matrix(0.9201975,2.7970099e-7,-2.7059634e-7,0.8902438,28.590287,48.634335)"
     cx="373.24265"
     cy="467.91885"
     fx="373.24265"
     fy="467.91885"
     r="333.18735" /><linearGradient
     inkscape:collect="always"
     xlink:href="#linearGradient3187"
     id="linearGradient4794"
     gradientUnits="userSpaceOnUse"
     gradientTransform="matrix(2.3189708,0,0,2.0930998,93.115298,-256.84999)"
     x1="123.50603"
     y1="344.03848"
     x2="123.47623"
     y2="254.73526" /><linearGradient
     inkscape:collect="always"
     xlink:href="#linearGradient3187"
     id="linearGradient4799"
     gradientUnits="userSpaceOnUse"
     gradientTransform="matrix(2.3189708,0,0,2.0930998,93.115298,-256.84999)"
     x1="123.50603"
     y1="344.03848"
     x2="123.47623"
     y2="254.73526" /><radialGradient
     inkscape:collect="always"
     xlink:href="#linearGradient3171"
     id="radialGradient4802"
     gradientUnits="userSpaceOnUse"
     gradientTransform="matrix(0.9201975,2.7970099e-7,-2.7059634e-7,0.8902438,28.590287,48.634335)"
     cx="373.24265"
     cy="467.91885"
     fx="373.24265"
     fy="467.91885"
     r="333.18735" /><radialGradient
     inkscape:collect="always"
     xlink:href="#linearGradient3157"
     id="radialGradient4805"
     gradientUnits="userSpaceOnUse"
     gradientTransform="matrix(0.9503534,1.1750652e-7,-5.6287062e-8,0.3462676,17.334826,362.44227)"
     cx="373.24265"
     cy="710.99164"
     fx="373.24265"
     fy="710.99164"
     r="333.18735" /><radialGradient
     inkscape:collect="always"
     xlink:href="#linearGradient3157"
     id="radialGradient4820"
     gradientUnits="userSpaceOnUse"
     gradientTransform="matrix(0.9503534,1.1750652e-7,-5.6287062e-8,0.3462676,17.334826,362.44227)"
     cx="373.24265"
     cy="710.99164"
     fx="373.24265"
     fy="710.99164"
     r="333.18735" /><radialGradient
     inkscape:collect="always"
     xlink:href="#linearGradient3171"
     id="radialGradient4822"
     gradientUnits="userSpaceOnUse"
     gradientTransform="matrix(0.9201975,2.7970099e-7,-2.7059634e-7,0.8902438,28.590287,48.634335)"
     cx="373.24265"
     cy="467.91885"
     fx="373.24265"
     fy="467.91885"
     r="333.18735" /><linearGradient
     inkscape:collect="always"
     xlink:href="#linearGradient3187"
     id="linearGradient4824"
     gradientUnits="userSpaceOnUse"
     gradientTransform="matrix(2.3189708,0,0,2.0930998,93.115298,-256.84999)"
     x1="123.50603"
     y1="344.03848"
     x2="123.47623"
     y2="254.73526" /><linearGradient
     inkscape:collect="always"
     xlink:href="#linearGradient3187"
     id="linearGradient4827"
     gradientUnits="userSpaceOnUse"
     gradientTransform="matrix(2.3189708,0,0,2.0930998,-99.17808,-231.54972)"
     x1="123.50603"
     y1="344.03848"
     x2="123.47623"
     y2="254.73526" /><radialGradient
     inkscape:collect="always"
     xlink:href="#linearGradient5443"
     id="radialGradient4832"
     gradientUnits="userSpaceOnUse"
     gradientTransform="matrix(0.9201975,2.7970099e-7,-2.7059634e-7,0.8902438,-163.70313,61.921561)"
     cx="373.24265"
     cy="467.91885"
     fx="373.24265"
     fy="467.91885"
     r="333.18735" /><radialGradient
     inkscape:collect="always"
     xlink:href="#linearGradient5443"
     id="radialGradient4835"
     gradientUnits="userSpaceOnUse"
     gradientTransform="matrix(0.9503534,1.1750652e-7,-5.6287062e-8,0.3462676,-174.95857,375.55031)"
     cx="373.24265"
     cy="710.99164"
     fx="373.24265"
     fy="710.99164"
     r="333.18735" /><filter
     inkscape:collect="always"
     id="filter5511"
     color-interpolation-filters="sRGB"><feGaussianBlur
       inkscape:collect="always"
       stdDeviation="3.2374974"
       id="feGaussianBlur5513" /></filter><radialGradient
     inkscape:collect="always"
     xlink:href="#linearGradient5443-5"
     id="radialGradient4835-3"
     gradientUnits="userSpaceOnUse"
     gradientTransform="matrix(0.9503534,1.1750652e-7,-5.6287062e-8,0.3462676,317.80591,185.68771)"
     cx="373.24265"
     cy="710.99164"
     fx="373.24265"
     fy="710.99164"
     r="333.18735" /><linearGradient
     id="linearGradient5443-5"><stop
       id="stop5445-4"
       offset="0"
       style="stop-color:#ffffff;stop-opacity:0;" /><stop
       id="stop5447-3"
       offset="1"
       style="stop-color:#000000;stop-opacity:0.33962265;" /></linearGradient><radialGradient
     inkscape:collect="always"
     xlink:href="#linearGradient5443"
     id="radialGradient3272"
     gradientUnits="userSpaceOnUse"
     gradientTransform="matrix(0.9503534,1.1750652e-7,-5.6287062e-8,0.3462676,-174.95857,375.55031)"
     cx="373.24265"
     cy="710.99164"
     fx="373.24265"
     fy="710.99164"
     r="333.18735" /><linearGradient
     inkscape:collect="always"
     xlink:href="#linearGradient3187"
     id="linearGradient3274"
     gradientUnits="userSpaceOnUse"
     gradientTransform="matrix(2.3189708,0,0,2.0930998,-99.17808,-231.54972)"
     x1="123.50603"
     y1="344.03848"
     x2="123.47623"
     y2="254.73526" /><radialGradient
     inkscape:collect="always"
     xlink:href="#linearGradient5443"
     id="radialGradient3276"
     gradientUnits="userSpaceOnUse"
     gradientTransform="matrix(0.9201975,2.7970099e-7,-2.7059634e-7,0.8902438,-163.70313,61.921561)"
     cx="373.24265"
     cy="467.91885"
     fx="373.24265"
     fy="467.91885"
     r="333.18735" /></defs><sodipodi:namedview
   pagecolor="#ffffff"
   bordercolor="#666666"
   borderopacity="1"
   objecttolerance="10"
   gridtolerance="10"
   guidetolerance="10"
   inkscape:pageopacity="0"
   inkscape:pageshadow="2"
   inkscape:window-width="1920"
   inkscape:window-height="1068"
   id="namedview36"
   showgrid="false"
   inkscape:zoom="2.3838384"
   inkscape:cx="121.51483"
   inkscape:cy="205.29316"
   inkscape:window-x="0"
   inkscape:window-y="0"
   inkscape:window-maximized="1"
   inkscape:current-layer="_x31_"
   fit-margin-top="0"
   fit-margin-left="0"
   fit-margin-right="0"
   fit-margin-bottom="0" />










<g
   id="g3305"
   transform="translate(-4.0524846e-6,3.5529444e-6)"><rect
     inkscape:export-ydpi="29.879425"
     inkscape:export-xdpi="29.879425"
     inkscape:export-filename="C:\Documents and Settings\adscro24\Desktop\128.png"
     style="opacity:0.61338286;fill:#464646;fill-opacity:0.78540775;stroke:none;filter:url(#filter4659)"
     id="rect3279"
     width="152.93848"
     height="152.93848"
     x="135.39355"
     y="48.636749"
     rx="16.067965"
     ry="12.45238"
     transform="matrix(2.1051501,0,0,2.1051501,-271.00298,-88.36689)" /><rect
     inkscape:export-ydpi="29.879425"
     inkscape:export-xdpi="29.879425"
     inkscape:export-filename="C:\Documents and Settings\adscro24\Desktop\128.png"
     style="opacity:0.61338286;fill:url(#radialGradient3092);fill-opacity:1;stroke:#000000;stroke-width:3.26806188;stroke-miterlimit:4;stroke-opacity:1;stroke-dasharray:none"
     id="rect3155"
     width="321.95847"
     height="321.95847"
     x="14.020748"
     y="14.020716"
     rx="33.825481"
     ry="26.21413" /><path
     transform="matrix(0.90779502,0,0,0.90779502,11.82035,-259.3651)"
     inkscape:export-ydpi="29.879425"
     inkscape:export-xdpi="29.879425"
     inkscape:export-filename="C:\Documents and Settings\adscro24\Desktop\128.png"
     inkscape:connector-curvature="0"
     style="opacity:0.61338286;fill:url(#linearGradient3734);fill-opacity:1;stroke:none;filter:url(#filter5511)"
     d="m 46.58172,323.34879 c -19.62748,0 -35.44272,12.0976 -35.44272,27.14163 l 0,124.30857 c 29.25482,11.38638 132.70149,11.89599 165.40488,-5.79022 33.32802,-18.02397 127.54379,-68.44264 171.82484,-52.72052 l 0,-65.79783 c 0,-15.04403 -15.7986,-27.14163 -35.4261,-27.14163 l -266.3609,0 z M 11.139,586.81982 l 0,42.88373 c 0,1.33144 0.14331,2.63588 0.38253,3.915 -0.11919,-12.81092 -0.25965,-28.88939 -0.38253,-46.79873 z"
     id="rect3177" /><rect
     inkscape:export-ydpi="29.879425"
     inkscape:export-xdpi="29.879425"
     inkscape:export-filename="C:\Documents and Settings\adscro24\Desktop\128.png"
     style="opacity:0.61338286;fill:url(#radialGradient3088);fill-opacity:1;stroke:#ffffff;stroke-width:0.68992418;stroke-linecap:square;stroke-miterlimit:4;stroke-opacity:1;stroke-dasharray:none"
     id="rect3473"
     width="306.12445"
     height="306.12445"
     x="21.937801"
     y="21.937769"
     rx="32.161926"
     ry="24.924913" /><rect
     inkscape:export-ydpi="29.879425"
     inkscape:export-xdpi="29.879425"
     inkscape:export-filename="C:\Documents and Settings\adscro24\Desktop\128.png"
     style="opacity:0.61338286;fill:#ffffff;fill-opacity:0;stroke:#000000;stroke-width:3.26806188;stroke-miterlimit:4;stroke-opacity:1;stroke-dasharray:none"
     id="rect3155-2"
     width="321.95847"
     height="321.95847"
     x="14.020748"
     y="14.020716"
     rx="33.825481"
     ry="26.21413" /><g
     transform="translate(400.39145,135.8211)"
     style="fill:#000000;fill-opacity:1;stroke:none"
     id="LWPOLYLINE_2_-7">
	
		
</g></g><g
   id="g3001"
   transform="matrix(0.50086851,0,0,0.50086851,21.733976,-23.561056)"><g
     style="fill:#000000;fill-opacity:1;stroke:none"
     id="LWPOLYLINE">
	
		<path
   id="polygon4"
   d="m 306,158.125 -130,75.40625 0,78.84375 0,71.9375 129.125,74.53125 L 436,384.3125 436,234.40625 306,158.125 z m 0,25.125 108.3125,64.125 0,123.9375 -109.1875,63.25 -107.4375,-63.25 0,-58.9375 0,-66.71875 L 306,183.25 z"
   style="fill:#000000;fill-opacity:1;stroke:none"
   inkscape:connector-curvature="0" />
</g><g
     style="fill:#000000;fill-opacity:1;stroke:none"
     id="LWPOLYLINE_1_">
	
		
</g><g
     transform="translate(-2,0)"
     style="fill:#000000;fill-opacity:1;stroke:none"
     id="LWPOLYLINE_2_">
	
		<path
   inkscape:connector-curvature="0"
   id="rect10"
   d="m 435.98801,287.26599 43.329,0 0,43.328 -43.329,0 z"
   style="fill:#000000;fill-opacity:1;stroke:none" />
</g><g
     transform="translate(2,0)"
     style="fill:#000000;fill-opacity:1;stroke:none"
     id="LWPOLYLINE_3_">
	
		<path
   inkscape:connector-curvature="0"
   id="rect13"
   d="m 132.68401,287.26599 43.32899,0 0,43.328 -43.32899,0 z"
   style="fill:#000000;fill-opacity:1;stroke:none" />
</g><g
     transform="translate(-2,-2)"
     style="fill:#000000;fill-opacity:1;stroke:none"
     id="LWPOLYLINE_4_">
	
		<path
   inkscape:connector-curvature="0"
   id="rect16"
   d="m 360.73001,418.836 43.336,0 0,43.336 -43.336,0 z"
   style="fill:#000000;fill-opacity:1;stroke:none"
   transform="matrix(0.4999,0.8661,-0.8661,0.4999,572.7264,-110.9001)" />
</g><g
     style="fill:#000000;fill-opacity:1;stroke:none"
     id="LWPOLYLINE_5_">
	
		<path
   id="polygon19"
   d="m 352.799,185.859 37.278,21.666 22.512,-38.992 -38.125,-21.666 z"
   style="fill:#000000;fill-opacity:1;stroke:none"
   inkscape:connector-curvature="0" />
</g><g
     transform="translate(2,2)"
     style="fill:#000000;fill-opacity:1;stroke:none"
     id="LWPOLYLINE_6_">
	
		<path
   inkscape:connector-curvature="0"
   id="polygon22"
   d="M 221.944,206.656 260.068,184.992 238.404,146 200.279,167.664 z"
   style="fill:#000000;fill-opacity:1;stroke:none" />
</g><g
     transform="translate(2,-2)"
     style="fill:#000000;fill-opacity:1;stroke:none"
     id="LWPOLYLINE_7_">
	
		<path
   inkscape:connector-curvature="0"
   id="polygon25"
   d="m 200.279,448.438 38.125,21.664 21.664,-37.278 -38.124,-21.664 z"
   style="fill:#000000;fill-opacity:1;stroke:none" />
</g><g
     style="fill:#000000;fill-opacity:1;stroke:none"
     id="LWPOLYLINE_8_">
	
		<path
   id="polygon28"
   d="m 304.46875,271.65625 -0.625,0.0312 -0.65625,0.0312 -0.65625,0.0312 -0.625,0.0625 -0.65625,0.0625 -0.65625,0.0625 -0.65625,0.0625 -0.625,0.125 -0.65625,0.0937 -0.625,0.125 -0.65625,0.125 -0.625,0.125 -0.625,0.1875 -0.625,0.125 -0.625,0.1875 -0.625,0.1875 -0.625,0.1875 -0.625,0.21875 -0.59375,0.21875 -0.625,0.21875 -0.625,0.21875 -0.59375,0.28125 -0.59375,0.25 -0.5625,0.28125 -0.59375,0.25 -0.59375,0.3125 L 287.625,276 l -0.5625,0.3125 -0.5625,0.34375 -0.5625,0.3125 -0.53125,0.34375 -0.5625,0.34375 -0.5625,0.375 -0.53125,0.375 -0.5,0.375 -0.53125,0.375 -0.53125,0.40625 -0.5,0.40625 -0.5,0.40625 -0.5,0.40625 -0.5,0.4375 -0.46875,0.4375 -0.46875,0.46875 -0.46875,0.4375 -0.46875,0.46875 -0.4375,0.46875 -0.4375,0.5 -0.40625,0.46875 -0.4375,0.5 -0.4375,0.5 -0.375,0.5 -0.40625,0.53125 -0.40625,0.5 -0.375,0.53125 -0.34375,0.5625 -0.375,0.53125 -0.34375,0.53125 -0.34375,0.5625 -0.3125,0.5625 -0.3125,0.59375 -0.34375,0.5625 -0.28125,0.5625 -0.28125,0.5625 -0.28125,0.59375 -0.28125,0.59375 -0.25,0.59375 -0.25,0.625 -0.25,0.59375 -0.21875,0.625 -0.21875,0.59375 -0.21875,0.625 -0.1875,0.625 -0.1875,0.625 -0.15625,0.625 -0.1875,0.625 -0.15625,0.625 -0.125,0.625 -0.125,0.65625 -0.125,0.65625 -0.125,0.625 -0.0625,0.625 -0.0937,0.65625 -0.0937,0.65625 -0.0625,0.65625 -0.0312,0.625 -0.0625,0.65625 0,0.65625 -0.0312,0.65625 0,0.65625 0,0.625 0.0312,0.65625 0,0.65625 0.0625,0.625 0.0312,0.65625 0.0625,0.65625 0.0937,0.65625 0.0937,0.65625 0.0625,0.625 0.125,0.625 0.125,0.65625 0.125,0.65625 0.125,0.625 0.15625,0.625 0.1875,0.625 0.15625,0.625 0.1875,0.625 0.1875,0.625 0.21875,0.625 0.21875,0.59375 0.21875,0.625 0.25,0.59375 0.25,0.59375 0.25,0.59375 0.28125,0.59375 0.28125,0.59375 0.28125,0.59375 0.28125,0.5625 0.34375,0.5625 0.3125,0.59375 0.3125,0.5625 0.34375,0.53125 0.34375,0.5625 0.375,0.53125 0.34375,0.5625 0.375,0.5 0.40625,0.53125 0.40625,0.53125 0.375,0.5 0.4375,0.5 0.4375,0.5 0.40625,0.46875 0.4375,0.5 0.4375,0.46875 0.46875,0.46875 0.46875,0.4375 0.46875,0.46875 0.46875,0.40625 0.5,0.46875 0.5,0.40625 0.5,0.40625 0.5,0.40625 0.53125,0.40625 0.53125,0.375 0.5,0.375 0.53125,0.375 0.5625,0.375 0.5625,0.34375 0.53125,0.3125 0.5625,0.34375 0.5625,0.3125 0.5625,0.3125 0.59375,0.3125 0.59375,0.28125 0.59375,0.28125 0.5625,0.25 0.59375,0.28125 0.59375,0.25 0.625,0.25 0.625,0.21875 0.59375,0.21875 0.625,0.21875 0.625,0.1875 0.625,0.1875 0.625,0.15625 0.625,0.15625 0.625,0.15625 0.625,0.15625 0.65625,0.125 0.625,0.125 0.65625,0.0937 0.625,0.0937 0.65625,0.0937 0.65625,0.0625 0.65625,0.0625 0.625,0.0625 0.65625,0.0312 0.65625,0.0312 0.625,0.0312 0.65625,0 0.65625,0 0.65625,-0.0312 0.65625,-0.0312 0.65625,-0.0312 0.625,-0.0625 0.6875,-0.0625 0.625,-0.0625 0.625,-0.0937 0.625,-0.0937 0.65625,-0.0937 0.65625,-0.125 0.65625,-0.125 0.625,-0.15625 0.625,-0.15625 0.59375,-0.15625 0.65625,-0.15625 0.625,-0.1875 0.625,-0.1875 0.59375,-0.21875 0.65625,-0.21875 0.5625,-0.21875 0.59375,-0.25 0.65625,-0.25 0.59375,-0.28125 0.59375,-0.25 0.59375,-0.28125 0.53125,-0.28125 0.59375,-0.3125 0.5625,-0.3125 0.59375,-0.3125 0.53125,-0.34375 0.5625,-0.3125 0.5625,-0.34375 0.53125,-0.375 0.5625,-0.375 0.5,-0.375 0.5625,-0.375 0.5,-0.40625 0.5,-0.40625 0.5,-0.40625 0.46875,-0.40625 0.5,-0.46875 0.46875,-0.40625 0.46875,-0.46875 0.46875,-0.4375 0.46875,-0.46875 0.46875,-0.46875 0.40625,-0.5 0.4375,-0.46875 0.4375,-0.5 0.40625,-0.5 0.375,-0.5 0.4375,-0.53125 0.375,-0.53125 0.375,-0.5 0.375,-0.5625 0.34375,-0.53125 0.34375,-0.5625 0.34375,-0.53125 0.34375,-0.5625 0.34375,-0.59375 0.28125,-0.5625 0.28125,-0.5625 0.3125,-0.59375 0.28125,-0.59375 0.28125,-0.59375 0.25,-0.59375 0.25,-0.59375 0.25,-0.59375 0.21875,-0.625 0.1875,-0.59375 0.21875,-0.625 0.21875,-0.625 0.15625,-0.625 0.1875,-0.625 0.15625,-0.625 0.1875,-0.625 0.125,-0.625 0.125,-0.65625 0.125,-0.65625 0.0937,-0.625 0.125,-0.625 0.0625,-0.65625 0.0625,-0.65625 0.0625,-0.65625 0.0625,-0.65625 0.0312,-0.625 0.0312,-0.65625 0,-0.65625 0,-0.625 0,-0.65625 0,-0.65625 -0.0312,-0.65625 -0.0312,-0.65625 -0.0625,-0.625 -0.0625,-0.65625 -0.0625,-0.65625 -0.0625,-0.65625 -0.125,-0.625 -0.0937,-0.625 -0.125,-0.65625 -0.125,-0.65625 -0.125,-0.625 -0.1875,-0.625 -0.15625,-0.625 -0.1875,-0.625 -0.15625,-0.625 -0.21875,-0.625 -0.21875,-0.625 -0.1875,-0.59375 -0.21875,-0.625 -0.25,-0.59375 -0.25,-0.625 -0.25,-0.59375 -0.28125,-0.59375 -0.28125,-0.59375 -0.3125,-0.5625 -0.28125,-0.5625 -0.28125,-0.5625 -0.34375,-0.59375 -0.34375,-0.5625 -0.34375,-0.5625 -0.34375,-0.53125 -0.34375,-0.53125 -0.375,-0.5625 -0.375,-0.53125 -0.375,-0.5 -0.4375,-0.53125 -0.375,-0.5 -0.40625,-0.5 -0.4375,-0.5 L 332.8125,284 332.40625,283.5 331.9375,283.03125 331.46875,282.5625 331,282.125 l -0.46875,-0.46875 -0.46875,-0.4375 -0.5,-0.4375 -0.46875,-0.40625 -0.5,-0.40625 -0.5,-0.40625 -0.5,-0.40625 -0.5625,-0.375 -0.5,-0.375 -0.5625,-0.375 -0.53125,-0.375 -0.5625,-0.34375 -0.5625,-0.34375 -0.53125,-0.3125 -0.59375,-0.34375 -0.5625,-0.3125 -0.59375,-0.28125 -0.53125,-0.3125 -0.59375,-0.25 -0.59375,-0.28125 -0.59375,-0.25 -0.65625,-0.28125 -0.59375,-0.21875 -0.5625,-0.21875 -0.65625,-0.21875 -0.59375,-0.21875 -0.625,-0.1875 -0.625,-0.1875 -0.65625,-0.1875 -0.59375,-0.125 -0.625,-0.1875 -0.625,-0.125 -0.65625,-0.125 -0.65625,-0.125 -0.65625,-0.0937 -0.625,-0.125 -0.625,-0.0625 -0.625,-0.0625 -0.6875,-0.0625 -0.625,-0.0625 -0.65625,-0.0312 -0.65625,-0.0312 -0.65625,-0.0312 -0.65625,0 -0.65625,0 z m 0.65625,17.3125 0.375,0.0312 0.34375,0 0.3125,0.0312 0.34375,0 0.375,0.0312 0.34375,0.0312 0.34375,0.0312 0.34375,0.0625 0.34375,0.0312 0.34375,0.0625 0.3125,0.0625 0.34375,0.0937 0.34375,0.0625 0.34375,0.0625 0.34375,0.125 0.34375,0.0625 0.3125,0.125 0.34375,0.0937 0.34375,0.0937 0.34375,0.125 0.28125,0.125 0.34375,0.125 0.34375,0.125 0.3125,0.15625 0.3125,0.15625 0.3125,0.125 0.28125,0.15625 0.34375,0.15625 0.3125,0.1875 0.28125,0.15625 0.3125,0.1875 0.28125,0.1875 0.3125,0.15625 0.28125,0.1875 0.3125,0.21875 0.25,0.1875 0.28125,0.21875 0.3125,0.21875 0.25,0.21875 0.25,0.21875 0.28125,0.21875 0.25,0.21875 0.28125,0.25 0.25,0.25 0.25,0.21875 0.21875,0.25 0.25,0.25 0.25,0.28125 0.21875,0.25 0.1875,0.25 0.28125,0.28125 0.1875,0.28125 0.21875,0.28125 0.21875,0.28125 0.15625,0.25 0.21875,0.3125 0.21875,0.28125 0.15625,0.28125 0.1875,0.3125 0.15625,0.28125 0.21875,0.3125 0.125,0.3125 0.15625,0.3125 0.1875,0.3125 0.125,0.3125 0.15625,0.3125 0.125,0.3125 0.125,0.34375 0.125,0.3125 0.125,0.3125 0.125,0.34375 0.15625,0.3125 0.0625,0.34375 0.0937,0.34375 0.0937,0.34375 0.125,0.3125 0.0312,0.34375 0.0937,0.34375 0.0625,0.34375 0.0625,0.34375 0.0937,0.34375 0.0312,0.3125 0.0312,0.375 0.0625,0.34375 0.0312,0.34375 0,0.34375 0.0312,0.34375 0,0.34375 0,0.34375 0.0625,0.375 -0.0625,0.34375 0,0.3125 0,0.375 -0.0312,0.34375 0,0.34375 -0.0312,0.34375 -0.0625,0.34375 -0.0312,0.34375 -0.0312,0.34375 -0.0937,0.34375 -0.0625,0.34375 -0.0625,0.34375 -0.0937,0.34375 -0.0312,0.3125 -0.125,0.34375 -0.0937,0.34375 -0.0937,0.34375 -0.0625,0.34375 -0.15625,0.3125 -0.125,0.34375 -0.125,0.3125 -0.125,0.3125 -0.125,0.34375 -0.125,0.3125 -0.15625,0.3125 -0.125,0.3125 -0.1875,0.3125 -0.15625,0.3125 -0.125,0.28125 -0.21875,0.34375 -0.15625,0.28125 -0.1875,0.3125 -0.15625,0.28125 -0.21875,0.28125 -0.21875,0.28125 -0.15625,0.28125 -0.21875,0.28125 -0.21875,0.28125 -0.1875,0.28125 -0.28125,0.25 -0.1875,0.28125 -0.21875,0.25 -0.25,0.25 -0.25,0.28125 -0.21875,0.25 -0.25,0.21875 -0.25,0.21875 -0.28125,0.28125 -0.25,0.1875 -0.28125,0.25 -0.25,0.21875 -0.25,0.21875 -0.3125,0.21875 -0.28125,0.21875 -0.25,0.1875 -0.3125,0.1875 -0.28125,0.21875 -0.3125,0.15625 -0.28125,0.1875 -0.3125,0.1875 -0.28125,0.1875 -0.3125,0.125 -0.34375,0.1875 -0.28125,0.125 -0.3125,0.15625 -0.3125,0.15625 -0.3125,0.15625 -0.34375,0.125 -0.34375,0.125 -0.28125,0.125 -0.34375,0.0937 -0.34375,0.125 -0.34375,0.0937 -0.3125,0.0937 -0.34375,0.125 -0.34375,0.0937 -0.34375,0.0625 -0.34375,0.0625 -0.34375,0.0625 -0.3125,0.0625 -0.34375,0.0625 -0.34375,0.0625 -0.34375,0.0625 -0.34375,0 -0.34375,0.0625 -0.375,0 -0.34375,0.0312 -0.3125,0.0312 -0.34375,0 -0.375,0 -0.34375,0 -0.34375,0 -0.34375,-0.0312 -0.34375,-0.0312 -0.34375,0 -0.34375,-0.0625 -0.375,0 -0.3125,-0.0625 -0.34375,-0.0625 -0.375,-0.0625 -0.34375,-0.0625 -0.3125,-0.0625 -0.34375,-0.0625 -0.34375,-0.0625 -0.34375,-0.0937 -0.34375,-0.125 -0.3125,-0.0937 -0.34375,-0.0937 -0.34375,-0.125 -0.3125,-0.0937 -0.34375,-0.125 -0.3125,-0.125 -0.3125,-0.125 -0.3125,-0.15625 -0.3125,-0.15625 -0.3125,-0.15625 -0.34375,-0.125 -0.28125,-0.1875 -0.3125,-0.125 -0.3125,-0.1875 L 294.875,326 l -0.3125,-0.1875 -0.28125,-0.15625 -0.3125,-0.21875 -0.25,-0.1875 -0.3125,-0.1875 -0.28125,-0.21875 -0.25,-0.21875 -0.28125,-0.21875 -0.25,-0.21875 -0.28125,-0.25 -0.25,-0.1875 -0.25,-0.28125 -0.28125,-0.21875 -0.25,-0.21875 -0.25,-0.25 -0.21875,-0.28125 -0.25,-0.25 -0.21875,-0.25 -0.25,-0.28125 -0.1875,-0.25 -0.21875,-0.28125 -0.21875,-0.28125 L 289,320.625 l -0.1875,-0.28125 -0.21875,-0.28125 -0.1875,-0.28125 -0.1875,-0.28125 -0.15625,-0.3125 -0.1875,-0.28125 -0.1875,-0.34375 -0.15625,-0.28125 -0.15625,-0.3125 -0.15625,-0.3125 -0.15625,-0.3125 -0.15625,-0.3125 -0.125,-0.3125 -0.125,-0.34375 -0.125,-0.3125 -0.125,-0.3125 -0.125,-0.34375 -0.0937,-0.3125 -0.125,-0.34375 -0.0937,-0.34375 -0.0937,-0.34375 -0.0937,-0.34375 -0.0625,-0.3125 -0.0625,-0.34375 -0.0937,-0.34375 -0.0625,-0.34375 -0.0312,-0.34375 -0.0625,-0.34375 -0.0625,-0.34375 -0.0312,-0.34375 -0.0312,-0.34375 -0.0312,-0.34375 -0.0312,-0.34375 0,-0.375 -0.0312,-0.3125 0,-0.34375 0,-0.375 0.0312,-0.34375 0,-0.34375 0.0312,-0.34375 0.0312,-0.34375 0.0312,-0.34375 0.0312,-0.34375 0.0625,-0.375 0.0625,-0.3125 0.0312,-0.34375 0.0625,-0.34375 0.0937,-0.34375 0.0625,-0.34375 0.0625,-0.34375 0.0937,-0.3125 0.0937,-0.34375 0.0937,-0.34375 0.125,-0.34375 0.0937,-0.3125 0.125,-0.34375 0.125,-0.3125 0.125,-0.3125 0.125,-0.34375 0.125,-0.3125 0.15625,-0.3125 0.15625,-0.3125 0.15625,-0.3125 0.15625,-0.3125 0.15625,-0.3125 0.1875,-0.3125 0.1875,-0.28125 0.15625,-0.3125 0.1875,-0.28125 0.1875,-0.28125 0.21875,-0.3125 0.1875,-0.25 0.21875,-0.28125 0.21875,-0.28125 0.21875,-0.28125 0.1875,-0.28125 0.25,-0.25 0.21875,-0.25 0.25,-0.28125 0.21875,-0.25 0.25,-0.25 0.25,-0.21875 0.28125,-0.25 0.25,-0.25 0.25,-0.21875 0.28125,-0.21875 0.25,-0.21875 0.28125,-0.21875 0.25,-0.21875 0.28125,-0.21875 0.3125,-0.1875 0.25,-0.21875 0.3125,-0.1875 0.28125,-0.15625 0.3125,-0.1875 0.28125,-0.1875 0.3125,-0.15625 0.3125,-0.1875 0.28125,-0.15625 0.34375,-0.15625 0.3125,-0.125 0.3125,-0.15625 0.3125,-0.15625 0.3125,-0.125 0.3125,-0.125 0.34375,-0.125 0.3125,-0.125 0.34375,-0.0937 0.34375,-0.0937 0.3125,-0.125 0.34375,-0.0625 0.34375,-0.125 0.34375,-0.0625 0.34375,-0.0625 0.3125,-0.0937 0.34375,-0.0625 0.375,-0.0625 0.34375,-0.0312 0.3125,-0.0625 0.375,-0.0312 0.34375,-0.0312 0.34375,-0.0312 0.34375,0 0.34375,-0.0312 0.34375,0 0.34375,-0.0312 z"
   style="fill:#000000;fill-opacity:1;stroke:none"
   inkscape:connector-curvature="0" />
</g><g
     style="fill:#000000;fill-opacity:1;stroke:none"
     id="LWPOLYLINE_9_">
	
		
</g><g
     style="fill:#000000;fill-opacity:1;stroke:none"
     id="LWPOLYLINE_10_">
	
		<path
   style="fill:#000000;fill-opacity:1;stroke:none"
   id="path34"
   d="m 266.141,646 c 0.169,0 0.677,0 0.677,0 h 0.825 1.143 1.418 1.671 1.926 2.157 2.37 2.56 2.751 2.898 3.046 3.174 3.259 3.363 3.449 3.47 3.512 3.555 3.554 3.512 3.47 3.428 3.386 3.258 3.174 3.046 2.92 2.708 2.581 2.37 2.157 1.947 1.649 1.439 1.1 0.847 0.508 c 0.169,-0.084 0.169,-0.254 0.169,-0.254 0,-0.211 0,-0.465 0,-0.465 v -0.297 -0.338 -0.424 -0.422 -0.467 -0.508 -0.508 -0.549 -0.594 -0.592 -0.592 -0.635 -0.635 -0.635 -0.635 -0.635 -0.635 -0.635 -0.635 -0.592 -0.594 -0.592 -0.549 -0.551 -0.465 -0.467 -0.422 -0.424 -0.338 -0.297 -0.254 c 0,-0.211 0,-0.381 0,-0.381 -0.127,-0.127 -0.508,-0.127 -0.508,-0.127 h -0.593 -0.846 -1.058 -1.27 -1.438 -1.566 -1.777 -1.903 -2.031 -2.158 -2.285 -2.369 -2.412 -2.496 -2.581 -2.581 -2.624 -2.623 -2.624 -2.623 -2.624 -2.538 -2.497 -2.454 -2.327 -2.285 -2.158 -2.03 -1.904 -1.777 -1.607 -1.418 -1.248 -1.058 -0.847 -0.613 -0.381 c 0.063,-0.17 0.274,-0.381 0.274,-0.381 l 0.317,-0.254 0.381,-0.381 0.466,-0.424 0.508,-0.465 0.592,-0.551 0.656,-0.592 0.698,-0.676 0.74,-0.678 0.783,-0.719 0.825,-0.762 0.867,-0.805 0.889,-0.846 0.91,-0.848 0.931,-0.846 0.952,-0.889 0.952,-0.889 0.973,-0.889 0.974,-0.93 0.952,-0.889 0.952,-0.848 0.931,-0.889 0.889,-0.846 0.931,-0.803 0.847,-0.805 0.804,-0.762 0.804,-0.762 0.762,-0.678 0.677,-0.635 0.635,-0.635 0.593,-0.508 0.55,-0.508 0.423,-0.422 0.424,-0.34 0.296,-0.295 0.212,-0.211 c 0.211,-0.17 1.48,-1.355 1.48,-1.355 l 1.27,-1.227 1.354,-1.27 1.396,-1.27 1.396,-1.312 1.396,-1.354 1.438,-1.396 1.481,-1.396 1.48,-1.438 1.481,-1.439 1.48,-1.48 1.481,-1.523 1.523,-1.523 1.48,-1.566 1.481,-1.564 1.438,-1.607 1.438,-1.609 1.438,-1.65 1.396,-1.691 1.396,-1.65 1.312,-1.734 1.312,-1.693 1.269,-1.734 1.228,-1.734 1.185,-1.777 1.143,-1.777 1.101,-1.82 1.016,-1.777 0.973,-1.818 0.889,-1.82 0.804,-1.861 0.762,-1.82 0.678,-1.861 0.634,-1.904 0.508,-1.861 0.424,-1.861 0.338,-1.904 0.254,-1.863 0.17,-1.902 0.042,-1.904 -0.042,-2.328 -0.127,-2.242 -0.212,-2.158 -0.296,-2.074 -0.381,-2.029 -0.424,-1.947 -0.55,-1.861 -0.592,-1.82 -0.635,-1.734 -0.762,-1.65 -0.762,-1.607 -0.889,-1.523 -0.931,-1.48 -0.974,-1.396 -1.016,-1.355 -1.1,-1.27 -1.143,-1.227 -1.186,-1.143 -1.227,-1.1 -1.312,-1.059 -1.312,-0.973 -1.354,-0.889 -1.396,-0.889 -1.438,-0.805 -1.481,-0.719 -1.522,-0.719 -1.523,-0.635 -1.566,-0.592 -1.565,-0.551 -1.607,-0.465 -1.608,-0.467 -1.65,-0.381 -1.649,-0.338 -1.693,-0.297 -1.649,-0.211 -1.693,-0.211 -1.734,-0.17 -1.692,-0.084 -1.692,-0.086 h -1.693 -0.762 -0.719 l -0.762,0.043 -0.762,0.043 -0.804,0.041 -0.762,0.043 -0.762,0.043 -0.804,0.084 -0.805,0.084 -0.804,0.086 -0.804,0.127 -0.804,0.127 -0.825,0.127 -0.825,0.127 -0.804,0.168 -0.825,0.17 -0.847,0.17 -0.825,0.211 -0.825,0.211 -0.846,0.254 -0.825,0.213 -0.847,0.295 -0.846,0.254 -0.825,0.297 -0.847,0.297 -0.825,0.338 -0.846,0.338 -0.847,0.381 -0.829,0.384 -0.825,0.381 -0.846,0.424 -0.825,0.422 -0.825,0.467 -0.825,0.508 -0.825,0.465 -0.804,0.508 -0.805,0.551 -0.825,0.549 -0.782,0.594 -0.804,0.592 -0.952,0.846 -0.889,0.889 -0.847,0.846 -0.825,0.889 -0.762,0.848 -0.74,0.889 -0.677,0.889 -0.656,0.93 -0.613,0.889 -0.593,0.889 -0.528,0.889 -0.529,0.932 -0.466,0.889 -0.465,0.889 -0.402,0.889 -0.401,0.93 -0.36,0.889 -0.317,0.889 -0.317,0.846 -0.274,0.889 -0.254,0.848 -0.233,0.846 -0.211,0.846 -0.212,0.848 -0.169,0.803 -0.148,0.805 -0.127,0.803 -0.127,0.762 -0.105,0.762 -0.085,0.762 -0.084,0.721 -0.043,0.719 -0.063,0.678 -0.042,0.635 -0.021,0.676 -0.021,0.592 -0.021,0.594 -0.021,0.592 v 0.551 0.508 c 0.17,0 0.359,0 0.359,0 h 0.275 0.339 0.401 0.466 0.508 0.571 0.613 0.677 0.678 0.74 0.762 0.783 0.804 0.825 0.846 0.847 0.846 0.847 0.847 0.825 0.824 0.825 0.783 0.74 0.74 0.698 0.656 0.613 0.571 0.529 0.444 0.401 0.339 0.275 c 0.211,0 0.338,0 0.338,0 0.021,0 0.021,-0.424 0.021,-0.424 l 0.021,-0.465 v -0.508 l 0.021,-0.594 0.021,-0.592 0.021,-0.676 0.063,-0.678 0.063,-0.719 0.084,-0.721 0.085,-0.803 0.127,-0.805 0.148,-0.805 0.19,-0.846 0.211,-0.846 0.233,-0.846 0.274,-0.848 0.296,-0.889 0.36,-0.846 0.381,-0.889 0.423,-0.846 0.486,-0.848 0.529,-0.846 0.571,-0.803 0.613,-0.805 0.698,-0.762 0.72,-0.762 0.804,-0.719 0.867,-0.678 0.91,-0.635 0.994,-0.635 1.058,-0.551 1.121,-0.549 1.186,-0.467 1.27,-0.422 1.354,-0.338 1.438,-0.34 1.523,-0.211 1.565,-0.211 1.693,-0.086 1.776,-0.041 1.523,0.041 1.481,0.086 1.438,0.127 1.354,0.211 1.27,0.254 1.228,0.297 1.143,0.338 1.1,0.422 1.059,0.424 0.973,0.465 0.931,0.508 0.889,0.551 0.805,0.592 0.804,0.635 0.719,0.635 0.678,0.678 0.592,0.678 0.593,0.719 0.55,0.719 0.508,0.762 0.466,0.762 0.423,0.762 0.381,0.805 0.339,0.762 0.338,0.803 0.297,0.805 0.254,0.762 0.211,0.803 0.212,0.805 0.169,0.762 0.169,0.762 0.127,0.762 0.085,0.762 0.085,0.719 0.084,0.721 0.043,0.676 0.042,0.678 0.042,0.635 v 0.592 0.592 l -0.042,1.396 -0.085,1.396 -0.211,1.396 -0.254,1.439 -0.339,1.438 -0.381,1.396 -0.465,1.439 -0.508,1.439 -0.551,1.438 -0.635,1.396 -0.677,1.439 -0.719,1.438 -0.805,1.396 -0.804,1.396 -0.847,1.396 -0.888,1.396 -0.932,1.396 -0.931,1.354 -1.016,1.396 -0.973,1.354 -1.059,1.312 -1.058,1.312 -1.058,1.311 -1.058,1.27 -1.101,1.27 -1.1,1.27 -1.101,1.227 -1.143,1.186 -1.1,1.186 -1.101,1.184 -1.101,1.1 -1.1,1.143 -1.101,1.059 -1.058,1.059 -1.058,1.016 -1.016,0.973 -1.016,0.973 -0.974,0.932 -0.973,0.889 -0.91,0.846 c -0.063,0.084 -0.274,0.297 -0.274,0.297 l -0.36,0.338 -0.465,0.424 -0.593,0.592 -0.698,0.678 -0.804,0.76 -0.889,0.889 -0.994,0.932 -1.058,1.059 -1.143,1.1 -1.206,1.143 -1.27,1.227 -1.312,1.27 -1.354,1.312 -1.417,1.354 -1.418,1.396 -1.46,1.396 -1.46,1.438 -1.48,1.396 -1.46,1.439 -1.46,1.439 -1.46,1.396 -1.417,1.354 -1.396,1.354 -1.375,1.312 -1.312,1.311 -1.269,1.229 -1.206,1.141 -1.143,1.102 -1.058,1.057 -0.995,0.932 -0.889,0.889 -0.804,0.762 -0.698,0.678 -0.592,0.549 -0.466,0.465 -0.359,0.34 c -0.212,0.211 -0.275,0.295 -0.275,0.295 V 646 z"
   stroke-miterlimit="10"
   inkscape:connector-curvature="0" />
</g></g>
</svg>