<?xml version="1.0" encoding="UTF-8" standalone="no"?>
<!-- Generator: Adobe Illustrator 16.0.1, SVG Export Plug-In . SVG Version: 6.00 Build 0)  -->

<svg
   xmlns:dc="http://purl.org/dc/elements/1.1/"
   xmlns:cc="http://creativecommons.org/ns#"
   xmlns:rdf="http://www.w3.org/1999/02/22-rdf-syntax-ns#"
   xmlns:svg="http://www.w3.org/2000/svg"
   xmlns="http://www.w3.org/2000/svg"
   xmlns:sodipodi="http://sodipodi.sourceforge.net/DTD/sodipodi-0.dtd"
   xmlns:inkscape="http://www.inkscape.org/namespaces/inkscape"
   version="1.0"
   id="_x31_"
   x="0px"
   y="0px"
   width="612px"
   height="792px"
   viewBox="0 0 612 792"
   enable-background="new 0 0 612 792"
   xml:space="preserve"
   inkscape:version="0.48.2 r9819"
   sodipodi:docname="7095.svg"><metadata
   id="metadata40"><rdf:RDF><cc:Work
       rdf:about=""><dc:format>image/svg+xml</dc:format><dc:type
         rdf:resource="http://purl.org/dc/dcmitype/StillImage" /></cc:Work></rdf:RDF></metadata><defs
   id="defs38" /><sodipodi:namedview
   pagecolor="#ffffff"
   bordercolor="#666666"
   borderopacity="1"
   objecttolerance="10"
   gridtolerance="10"
   guidetolerance="10"
   inkscape:pageopacity="0"
   inkscape:pageshadow="2"
   inkscape:window-width="1920"
   inkscape:window-height="1073"
   id="namedview36"
   showgrid="false"
   inkscape:zoom="2.3838384"
   inkscape:cx="208.16431"
   inkscape:cy="381.58632"
   inkscape:window-x="0"
   inkscape:window-y="0"
   inkscape:window-maximized="1"
   inkscape:current-layer="_x31_" />
<g
   id="LWPOLYLINE"
   style="stroke:none;fill:#000000;fill-opacity:1">
	
		<path
   style="fill:#000000;stroke:none;stroke-width:0.70870000000000000;stroke-linecap:round;stroke-linejoin:round;stroke-miterlimit:10;fill-opacity:1"
   d="M 306 158.125 L 176 233.53125 L 176 312.375 L 176 384.3125 L 305.125 458.84375 L 436 384.3125 L 436 234.40625 L 306 158.125 z M 306 183.25 L 414.3125 247.375 L 414.3125 371.3125 L 305.125 434.5625 L 197.6875 371.3125 L 197.6875 312.375 L 197.6875 245.65625 L 306 183.25 z "
   id="polygon4" />
</g>
<g
   id="LWPOLYLINE_1_"
   style="stroke:none;fill:#000000;fill-opacity:1">
	
		
</g>
<g
   id="LWPOLYLINE_2_"
   style="fill:#000000;fill-opacity:1;stroke:none"
   transform="translate(-2,0)">
	
		<path
   style="fill:#000000;fill-opacity:1;stroke:none"
   d="m 435.98801,287.26599 43.329,0 0,43.328 -43.329,0 z"
   id="rect10"
   inkscape:connector-curvature="0" />
</g>
<g
   id="LWPOLYLINE_3_"
   style="fill:#000000;fill-opacity:1;stroke:none"
   transform="translate(2,0)">
	
		<path
   style="fill:#000000;fill-opacity:1;stroke:none"
   d="m 132.68401,287.26599 43.32899,0 0,43.328 -43.32899,0 z"
   id="rect13"
   inkscape:connector-curvature="0" />
</g>
<g
   id="LWPOLYLINE_4_"
   style="fill:#000000;fill-opacity:1;stroke:none"
   transform="translate(-2,-2)">
	
		<path
   transform="matrix(0.4999,0.8661,-0.8661,0.4999,572.7264,-110.9001)"
   style="fill:#000000;fill-opacity:1;stroke:none"
   d="m 360.73001,418.836 43.336,0 0,43.336 -43.336,0 z"
   id="rect16"
   inkscape:connector-curvature="0" />
</g>
<g
   id="LWPOLYLINE_5_"
   style="stroke:none;fill:#000000;fill-opacity:1">
	
		<path
   style="fill:#000000;stroke:none;stroke-width:0.70870000000000000;stroke-linecap:round;stroke-linejoin:round;stroke-miterlimit:10;fill-opacity:1"
   d="m 352.799,185.859 37.278,21.666 22.512,-38.992 -38.125,-21.666 z"
   id="polygon19" />
</g>
<g
   id="LWPOLYLINE_6_"
   style="fill:#000000;fill-opacity:1;stroke:none"
   transform="translate(2,2)">
	
		<path
   style="fill:#000000;fill-opacity:1;stroke:none"
   d="M 221.944,206.656 260.068,184.992 238.404,146 200.279,167.664 z"
   id="polygon22"
   inkscape:connector-curvature="0" />
</g>
<g
   id="LWPOLYLINE_7_"
   style="fill:#000000;fill-opacity:1;stroke:none"
   transform="translate(2,-2)">
	
		<path
   style="fill:#000000;fill-opacity:1;stroke:none"
   d="m 200.279,448.438 38.125,21.664 21.664,-37.278 -38.124,-21.664 z"
   id="polygon25"
   inkscape:connector-curvature="0" />
</g>
<g
   id="LWPOLYLINE_8_"
   style="stroke:none;fill:#000000;fill-opacity:1">
	
		<path
   style="fill:#000000;stroke:none;stroke-width:0.70870000000000000;stroke-linecap:round;stroke-linejoin:round;stroke-miterlimit:10;fill-opacity:1"
   d="M 304.46875 271.65625 L 303.84375 271.6875 L 303.1875 271.71875 L 302.53125 271.75 L 301.90625 271.8125 L 301.25 271.875 L 300.59375 271.9375 L 299.9375 272 L 299.3125 272.125 L 298.65625 272.21875 L 298.03125 272.34375 L 297.375 272.46875 L 296.75 272.59375 L 296.125 272.78125 L 295.5 272.90625 L 294.875 273.09375 L 294.25 273.28125 L 293.625 273.46875 L 293 273.6875 L 292.40625 273.90625 L 291.78125 274.125 L 291.15625 274.34375 L 290.5625 274.625 L 289.96875 274.875 L 289.40625 275.15625 L 288.8125 275.40625 L 288.21875 275.71875 L 287.625 276 L 287.0625 276.3125 L 286.5 276.65625 L 285.9375 276.96875 L 285.40625 277.3125 L 284.84375 277.65625 L 284.28125 278.03125 L 283.75 278.40625 L 283.25 278.78125 L 282.71875 279.15625 L 282.1875 279.5625 L 281.6875 279.96875 L 281.1875 280.375 L 280.6875 280.78125 L 280.1875 281.21875 L 279.71875 281.65625 L 279.25 282.125 L 278.78125 282.5625 L 278.3125 283.03125 L 277.875 283.5 L 277.4375 284 L 277.03125 284.46875 L 276.59375 284.96875 L 276.15625 285.46875 L 275.78125 285.96875 L 275.375 286.5 L 274.96875 287 L 274.59375 287.53125 L 274.25 288.09375 L 273.875 288.625 L 273.53125 289.15625 L 273.1875 289.71875 L 272.875 290.28125 L 272.5625 290.875 L 272.21875 291.4375 L 271.9375 292 L 271.65625 292.5625 L 271.375 293.15625 L 271.09375 293.75 L 270.84375 294.34375 L 270.59375 294.96875 L 270.34375 295.5625 L 270.125 296.1875 L 269.90625 296.78125 L 269.6875 297.40625 L 269.5 298.03125 L 269.3125 298.65625 L 269.15625 299.28125 L 268.96875 299.90625 L 268.8125 300.53125 L 268.6875 301.15625 L 268.5625 301.8125 L 268.4375 302.46875 L 268.3125 303.09375 L 268.25 303.71875 L 268.15625 304.375 L 268.0625 305.03125 L 268 305.6875 L 267.96875 306.3125 L 267.90625 306.96875 L 267.90625 307.625 L 267.875 308.28125 L 267.875 308.9375 L 267.875 309.5625 L 267.90625 310.21875 L 267.90625 310.875 L 267.96875 311.5 L 268 312.15625 L 268.0625 312.8125 L 268.15625 313.46875 L 268.25 314.125 L 268.3125 314.75 L 268.4375 315.375 L 268.5625 316.03125 L 268.6875 316.6875 L 268.8125 317.3125 L 268.96875 317.9375 L 269.15625 318.5625 L 269.3125 319.1875 L 269.5 319.8125 L 269.6875 320.4375 L 269.90625 321.0625 L 270.125 321.65625 L 270.34375 322.28125 L 270.59375 322.875 L 270.84375 323.46875 L 271.09375 324.0625 L 271.375 324.65625 L 271.65625 325.25 L 271.9375 325.84375 L 272.21875 326.40625 L 272.5625 326.96875 L 272.875 327.5625 L 273.1875 328.125 L 273.53125 328.65625 L 273.875 329.21875 L 274.25 329.75 L 274.59375 330.3125 L 274.96875 330.8125 L 275.375 331.34375 L 275.78125 331.875 L 276.15625 332.375 L 276.59375 332.875 L 277.03125 333.375 L 277.4375 333.84375 L 277.875 334.34375 L 278.3125 334.8125 L 278.78125 335.28125 L 279.25 335.71875 L 279.71875 336.1875 L 280.1875 336.59375 L 280.6875 337.0625 L 281.1875 337.46875 L 281.6875 337.875 L 282.1875 338.28125 L 282.71875 338.6875 L 283.25 339.0625 L 283.75 339.4375 L 284.28125 339.8125 L 284.84375 340.1875 L 285.40625 340.53125 L 285.9375 340.84375 L 286.5 341.1875 L 287.0625 341.5 L 287.625 341.8125 L 288.21875 342.125 L 288.8125 342.40625 L 289.40625 342.6875 L 289.96875 342.9375 L 290.5625 343.21875 L 291.15625 343.46875 L 291.78125 343.71875 L 292.40625 343.9375 L 293 344.15625 L 293.625 344.375 L 294.25 344.5625 L 294.875 344.75 L 295.5 344.90625 L 296.125 345.0625 L 296.75 345.21875 L 297.375 345.375 L 298.03125 345.5 L 298.65625 345.625 L 299.3125 345.71875 L 299.9375 345.8125 L 300.59375 345.90625 L 301.25 345.96875 L 301.90625 346.03125 L 302.53125 346.09375 L 303.1875 346.125 L 303.84375 346.15625 L 304.46875 346.1875 L 305.125 346.1875 L 305.78125 346.1875 L 306.4375 346.15625 L 307.09375 346.125 L 307.75 346.09375 L 308.375 346.03125 L 309.0625 345.96875 L 309.6875 345.90625 L 310.3125 345.8125 L 310.9375 345.71875 L 311.59375 345.625 L 312.25 345.5 L 312.90625 345.375 L 313.53125 345.21875 L 314.15625 345.0625 L 314.75 344.90625 L 315.40625 344.75 L 316.03125 344.5625 L 316.65625 344.375 L 317.25 344.15625 L 317.90625 343.9375 L 318.46875 343.71875 L 319.0625 343.46875 L 319.71875 343.21875 L 320.3125 342.9375 L 320.90625 342.6875 L 321.5 342.40625 L 322.03125 342.125 L 322.625 341.8125 L 323.1875 341.5 L 323.78125 341.1875 L 324.3125 340.84375 L 324.875 340.53125 L 325.4375 340.1875 L 325.96875 339.8125 L 326.53125 339.4375 L 327.03125 339.0625 L 327.59375 338.6875 L 328.09375 338.28125 L 328.59375 337.875 L 329.09375 337.46875 L 329.5625 337.0625 L 330.0625 336.59375 L 330.53125 336.1875 L 331 335.71875 L 331.46875 335.28125 L 331.9375 334.8125 L 332.40625 334.34375 L 332.8125 333.84375 L 333.25 333.375 L 333.6875 332.875 L 334.09375 332.375 L 334.46875 331.875 L 334.90625 331.34375 L 335.28125 330.8125 L 335.65625 330.3125 L 336.03125 329.75 L 336.375 329.21875 L 336.71875 328.65625 L 337.0625 328.125 L 337.40625 327.5625 L 337.75 326.96875 L 338.03125 326.40625 L 338.3125 325.84375 L 338.625 325.25 L 338.90625 324.65625 L 339.1875 324.0625 L 339.4375 323.46875 L 339.6875 322.875 L 339.9375 322.28125 L 340.15625 321.65625 L 340.34375 321.0625 L 340.5625 320.4375 L 340.78125 319.8125 L 340.9375 319.1875 L 341.125 318.5625 L 341.28125 317.9375 L 341.46875 317.3125 L 341.59375 316.6875 L 341.71875 316.03125 L 341.84375 315.375 L 341.9375 314.75 L 342.0625 314.125 L 342.125 313.46875 L 342.1875 312.8125 L 342.25 312.15625 L 342.3125 311.5 L 342.34375 310.875 L 342.375 310.21875 L 342.375 309.5625 L 342.375 308.9375 L 342.375 308.28125 L 342.375 307.625 L 342.34375 306.96875 L 342.3125 306.3125 L 342.25 305.6875 L 342.1875 305.03125 L 342.125 304.375 L 342.0625 303.71875 L 341.9375 303.09375 L 341.84375 302.46875 L 341.71875 301.8125 L 341.59375 301.15625 L 341.46875 300.53125 L 341.28125 299.90625 L 341.125 299.28125 L 340.9375 298.65625 L 340.78125 298.03125 L 340.5625 297.40625 L 340.34375 296.78125 L 340.15625 296.1875 L 339.9375 295.5625 L 339.6875 294.96875 L 339.4375 294.34375 L 339.1875 293.75 L 338.90625 293.15625 L 338.625 292.5625 L 338.3125 292 L 338.03125 291.4375 L 337.75 290.875 L 337.40625 290.28125 L 337.0625 289.71875 L 336.71875 289.15625 L 336.375 288.625 L 336.03125 288.09375 L 335.65625 287.53125 L 335.28125 287 L 334.90625 286.5 L 334.46875 285.96875 L 334.09375 285.46875 L 333.6875 284.96875 L 333.25 284.46875 L 332.8125 284 L 332.40625 283.5 L 331.9375 283.03125 L 331.46875 282.5625 L 331 282.125 L 330.53125 281.65625 L 330.0625 281.21875 L 329.5625 280.78125 L 329.09375 280.375 L 328.59375 279.96875 L 328.09375 279.5625 L 327.59375 279.15625 L 327.03125 278.78125 L 326.53125 278.40625 L 325.96875 278.03125 L 325.4375 277.65625 L 324.875 277.3125 L 324.3125 276.96875 L 323.78125 276.65625 L 323.1875 276.3125 L 322.625 276 L 322.03125 275.71875 L 321.5 275.40625 L 320.90625 275.15625 L 320.3125 274.875 L 319.71875 274.625 L 319.0625 274.34375 L 318.46875 274.125 L 317.90625 273.90625 L 317.25 273.6875 L 316.65625 273.46875 L 316.03125 273.28125 L 315.40625 273.09375 L 314.75 272.90625 L 314.15625 272.78125 L 313.53125 272.59375 L 312.90625 272.46875 L 312.25 272.34375 L 311.59375 272.21875 L 310.9375 272.125 L 310.3125 272 L 309.6875 271.9375 L 309.0625 271.875 L 308.375 271.8125 L 307.75 271.75 L 307.09375 271.71875 L 306.4375 271.6875 L 305.78125 271.65625 L 305.125 271.65625 L 304.46875 271.65625 z M 305.125 288.96875 L 305.5 289 L 305.84375 289 L 306.15625 289.03125 L 306.5 289.03125 L 306.875 289.0625 L 307.21875 289.09375 L 307.5625 289.125 L 307.90625 289.1875 L 308.25 289.21875 L 308.59375 289.28125 L 308.90625 289.34375 L 309.25 289.4375 L 309.59375 289.5 L 309.9375 289.5625 L 310.28125 289.6875 L 310.625 289.75 L 310.9375 289.875 L 311.28125 289.96875 L 311.625 290.0625 L 311.96875 290.1875 L 312.25 290.3125 L 312.59375 290.4375 L 312.9375 290.5625 L 313.25 290.71875 L 313.5625 290.875 L 313.875 291 L 314.15625 291.15625 L 314.5 291.3125 L 314.8125 291.5 L 315.09375 291.65625 L 315.40625 291.84375 L 315.6875 292.03125 L 316 292.1875 L 316.28125 292.375 L 316.59375 292.59375 L 316.84375 292.78125 L 317.125 293 L 317.4375 293.21875 L 317.6875 293.4375 L 317.9375 293.65625 L 318.21875 293.875 L 318.46875 294.09375 L 318.75 294.34375 L 319 294.59375 L 319.25 294.8125 L 319.46875 295.0625 L 319.71875 295.3125 L 319.96875 295.59375 L 320.1875 295.84375 L 320.375 296.09375 L 320.65625 296.375 L 320.84375 296.65625 L 321.0625 296.9375 L 321.28125 297.21875 L 321.4375 297.46875 L 321.65625 297.78125 L 321.875 298.0625 L 322.03125 298.34375 L 322.21875 298.65625 L 322.375 298.9375 L 322.59375 299.25 L 322.71875 299.5625 L 322.875 299.875 L 323.0625 300.1875 L 323.1875 300.5 L 323.34375 300.8125 L 323.46875 301.125 L 323.59375 301.46875 L 323.71875 301.78125 L 323.84375 302.09375 L 323.96875 302.4375 L 324.125 302.75 L 324.1875 303.09375 L 324.28125 303.4375 L 324.375 303.78125 L 324.5 304.09375 L 324.53125 304.4375 L 324.625 304.78125 L 324.6875 305.125 L 324.75 305.46875 L 324.84375 305.8125 L 324.875 306.125 L 324.90625 306.5 L 324.96875 306.84375 L 325 307.1875 L 325 307.53125 L 325.03125 307.875 L 325.03125 308.21875 L 325.03125 308.5625 L 325.09375 308.9375 L 325.03125 309.28125 L 325.03125 309.59375 L 325.03125 309.96875 L 325 310.3125 L 325 310.65625 L 324.96875 311 L 324.90625 311.34375 L 324.875 311.6875 L 324.84375 312.03125 L 324.75 312.375 L 324.6875 312.71875 L 324.625 313.0625 L 324.53125 313.40625 L 324.5 313.71875 L 324.375 314.0625 L 324.28125 314.40625 L 324.1875 314.75 L 324.125 315.09375 L 323.96875 315.40625 L 323.84375 315.75 L 323.71875 316.0625 L 323.59375 316.375 L 323.46875 316.71875 L 323.34375 317.03125 L 323.1875 317.34375 L 323.0625 317.65625 L 322.875 317.96875 L 322.71875 318.28125 L 322.59375 318.5625 L 322.375 318.90625 L 322.21875 319.1875 L 322.03125 319.5 L 321.875 319.78125 L 321.65625 320.0625 L 321.4375 320.34375 L 321.28125 320.625 L 321.0625 320.90625 L 320.84375 321.1875 L 320.65625 321.46875 L 320.375 321.71875 L 320.1875 322 L 319.96875 322.25 L 319.71875 322.5 L 319.46875 322.78125 L 319.25 323.03125 L 319 323.25 L 318.75 323.46875 L 318.46875 323.75 L 318.21875 323.9375 L 317.9375 324.1875 L 317.6875 324.40625 L 317.4375 324.625 L 317.125 324.84375 L 316.84375 325.0625 L 316.59375 325.25 L 316.28125 325.4375 L 316 325.65625 L 315.6875 325.8125 L 315.40625 326 L 315.09375 326.1875 L 314.8125 326.375 L 314.5 326.5 L 314.15625 326.6875 L 313.875 326.8125 L 313.5625 326.96875 L 313.25 327.125 L 312.9375 327.28125 L 312.59375 327.40625 L 312.25 327.53125 L 311.96875 327.65625 L 311.625 327.75 L 311.28125 327.875 L 310.9375 327.96875 L 310.625 328.0625 L 310.28125 328.1875 L 309.9375 328.28125 L 309.59375 328.34375 L 309.25 328.40625 L 308.90625 328.46875 L 308.59375 328.53125 L 308.25 328.59375 L 307.90625 328.65625 L 307.5625 328.71875 L 307.21875 328.71875 L 306.875 328.78125 L 306.5 328.78125 L 306.15625 328.8125 L 305.84375 328.84375 L 305.5 328.84375 L 305.125 328.84375 L 304.78125 328.84375 L 304.4375 328.84375 L 304.09375 328.8125 L 303.75 328.78125 L 303.40625 328.78125 L 303.0625 328.71875 L 302.6875 328.71875 L 302.375 328.65625 L 302.03125 328.59375 L 301.65625 328.53125 L 301.3125 328.46875 L 301 328.40625 L 300.65625 328.34375 L 300.3125 328.28125 L 299.96875 328.1875 L 299.625 328.0625 L 299.3125 327.96875 L 298.96875 327.875 L 298.625 327.75 L 298.3125 327.65625 L 297.96875 327.53125 L 297.65625 327.40625 L 297.34375 327.28125 L 297.03125 327.125 L 296.71875 326.96875 L 296.40625 326.8125 L 296.0625 326.6875 L 295.78125 326.5 L 295.46875 326.375 L 295.15625 326.1875 L 294.875 326 L 294.5625 325.8125 L 294.28125 325.65625 L 293.96875 325.4375 L 293.71875 325.25 L 293.40625 325.0625 L 293.125 324.84375 L 292.875 324.625 L 292.59375 324.40625 L 292.34375 324.1875 L 292.0625 323.9375 L 291.8125 323.75 L 291.5625 323.46875 L 291.28125 323.25 L 291.03125 323.03125 L 290.78125 322.78125 L 290.5625 322.5 L 290.3125 322.25 L 290.09375 322 L 289.84375 321.71875 L 289.65625 321.46875 L 289.4375 321.1875 L 289.21875 320.90625 L 289 320.625 L 288.8125 320.34375 L 288.59375 320.0625 L 288.40625 319.78125 L 288.21875 319.5 L 288.0625 319.1875 L 287.875 318.90625 L 287.6875 318.5625 L 287.53125 318.28125 L 287.375 317.96875 L 287.21875 317.65625 L 287.0625 317.34375 L 286.90625 317.03125 L 286.78125 316.71875 L 286.65625 316.375 L 286.53125 316.0625 L 286.40625 315.75 L 286.28125 315.40625 L 286.1875 315.09375 L 286.0625 314.75 L 285.96875 314.40625 L 285.875 314.0625 L 285.78125 313.71875 L 285.71875 313.40625 L 285.65625 313.0625 L 285.5625 312.71875 L 285.5 312.375 L 285.46875 312.03125 L 285.40625 311.6875 L 285.34375 311.34375 L 285.3125 311 L 285.28125 310.65625 L 285.25 310.3125 L 285.21875 309.96875 L 285.21875 309.59375 L 285.1875 309.28125 L 285.1875 308.9375 L 285.1875 308.5625 L 285.21875 308.21875 L 285.21875 307.875 L 285.25 307.53125 L 285.28125 307.1875 L 285.3125 306.84375 L 285.34375 306.5 L 285.40625 306.125 L 285.46875 305.8125 L 285.5 305.46875 L 285.5625 305.125 L 285.65625 304.78125 L 285.71875 304.4375 L 285.78125 304.09375 L 285.875 303.78125 L 285.96875 303.4375 L 286.0625 303.09375 L 286.1875 302.75 L 286.28125 302.4375 L 286.40625 302.09375 L 286.53125 301.78125 L 286.65625 301.46875 L 286.78125 301.125 L 286.90625 300.8125 L 287.0625 300.5 L 287.21875 300.1875 L 287.375 299.875 L 287.53125 299.5625 L 287.6875 299.25 L 287.875 298.9375 L 288.0625 298.65625 L 288.21875 298.34375 L 288.40625 298.0625 L 288.59375 297.78125 L 288.8125 297.46875 L 289 297.21875 L 289.21875 296.9375 L 289.4375 296.65625 L 289.65625 296.375 L 289.84375 296.09375 L 290.09375 295.84375 L 290.3125 295.59375 L 290.5625 295.3125 L 290.78125 295.0625 L 291.03125 294.8125 L 291.28125 294.59375 L 291.5625 294.34375 L 291.8125 294.09375 L 292.0625 293.875 L 292.34375 293.65625 L 292.59375 293.4375 L 292.875 293.21875 L 293.125 293 L 293.40625 292.78125 L 293.71875 292.59375 L 293.96875 292.375 L 294.28125 292.1875 L 294.5625 292.03125 L 294.875 291.84375 L 295.15625 291.65625 L 295.46875 291.5 L 295.78125 291.3125 L 296.0625 291.15625 L 296.40625 291 L 296.71875 290.875 L 297.03125 290.71875 L 297.34375 290.5625 L 297.65625 290.4375 L 297.96875 290.3125 L 298.3125 290.1875 L 298.625 290.0625 L 298.96875 289.96875 L 299.3125 289.875 L 299.625 289.75 L 299.96875 289.6875 L 300.3125 289.5625 L 300.65625 289.5 L 301 289.4375 L 301.3125 289.34375 L 301.65625 289.28125 L 302.03125 289.21875 L 302.375 289.1875 L 302.6875 289.125 L 303.0625 289.09375 L 303.40625 289.0625 L 303.75 289.03125 L 304.09375 289.03125 L 304.4375 289 L 304.78125 289 L 305.125 288.96875 z "
   id="polygon28" />
</g>
<g
   id="LWPOLYLINE_9_"
   style="stroke:none;fill:#000000;fill-opacity:1">
	
		
</g>
<g
   id="LWPOLYLINE_10_"
   style="stroke:none;fill:#000000;fill-opacity:1">
	
		<path
   fill="none"
   stroke="#000000"
   stroke-width="0.7087"
   stroke-linecap="round"
   stroke-linejoin="round"
   stroke-miterlimit="10"
   d="   M266.141,646c0.169,0,0.677,0,0.677,0h0.825h1.143h1.418h1.671h1.926h2.157h2.37h2.56h2.751h2.898h3.046h3.174h3.259h3.363h3.449   h3.47h3.512h3.555h3.554h3.512h3.47h3.428h3.386h3.258h3.174h3.046h2.92h2.708h2.581h2.37h2.157h1.947h1.649h1.439h1.1h0.847h0.508   c0.169-0.084,0.169-0.254,0.169-0.254c0-0.211,0-0.465,0-0.465v-0.297v-0.338v-0.424v-0.422v-0.467v-0.508v-0.508v-0.549v-0.594   v-0.592v-0.592v-0.635v-0.635v-0.635v-0.635v-0.635v-0.635v-0.635v-0.635v-0.592v-0.594v-0.592v-0.549v-0.551v-0.465v-0.467v-0.422   v-0.424v-0.338v-0.297v-0.254c0-0.211,0-0.381,0-0.381c-0.127-0.127-0.508-0.127-0.508-0.127h-0.593h-0.846h-1.058h-1.27h-1.438   h-1.566h-1.777h-1.903h-2.031h-2.158h-2.285h-2.369h-2.412h-2.496h-2.581h-2.581h-2.624h-2.623h-2.624h-2.623h-2.624h-2.538h-2.497   h-2.454h-2.327h-2.285h-2.158h-2.03h-1.904h-1.777h-1.607h-1.418h-1.248h-1.058h-0.847h-0.613h-0.381   c0.063-0.17,0.274-0.381,0.274-0.381l0.317-0.254l0.381-0.381l0.466-0.424l0.508-0.465l0.592-0.551l0.656-0.592l0.698-0.676   l0.74-0.678l0.783-0.719l0.825-0.762l0.867-0.805l0.889-0.846l0.91-0.848l0.931-0.846l0.952-0.889l0.952-0.889l0.973-0.889   l0.974-0.93l0.952-0.889l0.952-0.848l0.931-0.889l0.889-0.846l0.931-0.803l0.847-0.805l0.804-0.762l0.804-0.762l0.762-0.678   l0.677-0.635l0.635-0.635l0.593-0.508l0.55-0.508l0.423-0.422l0.424-0.34l0.296-0.295l0.212-0.211   c0.211-0.17,1.48-1.355,1.48-1.355l1.27-1.227l1.354-1.27l1.396-1.27l1.396-1.312l1.396-1.354l1.438-1.396l1.481-1.396l1.48-1.438   l1.481-1.439l1.48-1.48l1.481-1.523l1.523-1.523l1.48-1.566l1.481-1.564l1.438-1.607l1.438-1.609l1.438-1.65l1.396-1.691   l1.396-1.65l1.312-1.734l1.312-1.693l1.269-1.734l1.228-1.734l1.185-1.777l1.143-1.777l1.101-1.82l1.016-1.777l0.973-1.818   l0.889-1.82l0.804-1.861l0.762-1.82l0.678-1.861l0.634-1.904l0.508-1.861l0.424-1.861l0.338-1.904l0.254-1.863l0.17-1.902   l0.042-1.904l-0.042-2.328l-0.127-2.242l-0.212-2.158l-0.296-2.074l-0.381-2.029l-0.424-1.947l-0.55-1.861l-0.592-1.82   l-0.635-1.734l-0.762-1.65l-0.762-1.607l-0.889-1.523l-0.931-1.48l-0.974-1.396l-1.016-1.355l-1.1-1.27l-1.143-1.227l-1.186-1.143   l-1.227-1.1l-1.312-1.059l-1.312-0.973l-1.354-0.889l-1.396-0.889l-1.438-0.805l-1.481-0.719l-1.522-0.719l-1.523-0.635   l-1.566-0.592l-1.565-0.551l-1.607-0.465l-1.608-0.467l-1.65-0.381l-1.649-0.338l-1.693-0.297l-1.649-0.211l-1.693-0.211   l-1.734-0.17l-1.692-0.084l-1.692-0.086h-1.693h-0.762h-0.719l-0.762,0.043l-0.762,0.043l-0.804,0.041l-0.762,0.043l-0.762,0.043   l-0.804,0.084l-0.805,0.084l-0.804,0.086l-0.804,0.127l-0.804,0.127l-0.825,0.127l-0.825,0.127l-0.804,0.168l-0.825,0.17   l-0.847,0.17l-0.825,0.211l-0.825,0.211l-0.846,0.254l-0.825,0.213l-0.847,0.295l-0.846,0.254l-0.825,0.297l-0.847,0.297   l-0.825,0.338l-0.846,0.338l-0.847,0.381L291,501.922l-0.825,0.381l-0.846,0.424l-0.825,0.422l-0.825,0.467l-0.825,0.508   l-0.825,0.465l-0.804,0.508l-0.805,0.551l-0.825,0.549l-0.782,0.594l-0.804,0.592l-0.952,0.846l-0.889,0.889l-0.847,0.846   l-0.825,0.889l-0.762,0.848l-0.74,0.889l-0.677,0.889l-0.656,0.93l-0.613,0.889l-0.593,0.889l-0.528,0.889l-0.529,0.932   l-0.466,0.889l-0.465,0.889l-0.402,0.889l-0.401,0.93l-0.36,0.889l-0.317,0.889l-0.317,0.846l-0.274,0.889l-0.254,0.848   l-0.233,0.846l-0.211,0.846l-0.212,0.848l-0.169,0.803l-0.148,0.805l-0.127,0.803l-0.127,0.762l-0.105,0.762l-0.085,0.762   l-0.084,0.721l-0.043,0.719l-0.063,0.678l-0.042,0.635l-0.021,0.676l-0.021,0.592l-0.021,0.594l-0.021,0.592v0.551v0.508   c0.17,0,0.359,0,0.359,0h0.275h0.339h0.401h0.466h0.508h0.571h0.613h0.677h0.678h0.74h0.762h0.783h0.804h0.825h0.846h0.847h0.846   h0.847h0.847h0.825h0.824h0.825h0.783h0.74h0.74h0.698h0.656h0.613h0.571h0.529h0.444h0.401h0.339h0.275c0.211,0,0.338,0,0.338,0   c0.021,0,0.021-0.424,0.021-0.424l0.021-0.465v-0.508l0.021-0.594l0.021-0.592l0.021-0.676l0.063-0.678l0.063-0.719l0.084-0.721   l0.085-0.803l0.127-0.805l0.148-0.805l0.19-0.846l0.211-0.846l0.233-0.846l0.274-0.848l0.296-0.889l0.36-0.846l0.381-0.889   l0.423-0.846l0.486-0.848l0.529-0.846l0.571-0.803l0.613-0.805l0.698-0.762l0.72-0.762l0.804-0.719l0.867-0.678l0.91-0.635   l0.994-0.635l1.058-0.551l1.121-0.549l1.186-0.467l1.27-0.422l1.354-0.338l1.438-0.34l1.523-0.211l1.565-0.211l1.693-0.086   l1.776-0.041l1.523,0.041l1.481,0.086l1.438,0.127l1.354,0.211l1.27,0.254l1.228,0.297l1.143,0.338l1.1,0.422l1.059,0.424   l0.973,0.465l0.931,0.508l0.889,0.551l0.805,0.592l0.804,0.635l0.719,0.635l0.678,0.678l0.592,0.678l0.593,0.719l0.55,0.719   l0.508,0.762l0.466,0.762l0.423,0.762l0.381,0.805l0.339,0.762l0.338,0.803l0.297,0.805l0.254,0.762l0.211,0.803l0.212,0.805   l0.169,0.762l0.169,0.762l0.127,0.762l0.085,0.762l0.085,0.719l0.084,0.721l0.043,0.676l0.042,0.678l0.042,0.635v0.592v0.592   l-0.042,1.396l-0.085,1.396l-0.211,1.396l-0.254,1.439l-0.339,1.438l-0.381,1.396l-0.465,1.439l-0.508,1.439l-0.551,1.438   l-0.635,1.396l-0.677,1.439l-0.719,1.438l-0.805,1.396l-0.804,1.396l-0.847,1.396l-0.888,1.396l-0.932,1.396l-0.931,1.354   l-1.016,1.396l-0.973,1.354l-1.059,1.312l-1.058,1.312l-1.058,1.311l-1.058,1.27l-1.101,1.27l-1.1,1.27l-1.101,1.227l-1.143,1.186   l-1.1,1.186l-1.101,1.184l-1.101,1.1l-1.1,1.143l-1.101,1.059l-1.058,1.059l-1.058,1.016l-1.016,0.973l-1.016,0.973l-0.974,0.932   l-0.973,0.889l-0.91,0.846c-0.063,0.084-0.274,0.297-0.274,0.297l-0.36,0.338l-0.465,0.424l-0.593,0.592l-0.698,0.678l-0.804,0.76   l-0.889,0.889l-0.994,0.932l-1.058,1.059l-1.143,1.1l-1.206,1.143l-1.27,1.227l-1.312,1.27l-1.354,1.312l-1.417,1.354l-1.418,1.396   l-1.46,1.396l-1.46,1.438l-1.48,1.396l-1.46,1.439l-1.46,1.439l-1.46,1.396l-1.417,1.354l-1.396,1.354l-1.375,1.312l-1.312,1.311   l-1.269,1.229l-1.206,1.141l-1.143,1.102l-1.058,1.057l-0.995,0.932l-0.889,0.889l-0.804,0.762l-0.698,0.678l-0.592,0.549   l-0.466,0.465l-0.359,0.34c-0.212,0.211-0.275,0.295-0.275,0.295V646z"
   id="path34"
   style="stroke:none;fill:#000000;fill-opacity:1" />
</g>
</svg>