<?xml version="1.0" encoding="UTF-8" standalone="no"?>
<!-- Generator: Adobe Illustrator 16.0.1, SVG Export Plug-In . SVG Version: 6.00 Build 0)  -->

<svg
   xmlns:dc="http://purl.org/dc/elements/1.1/"
   xmlns:cc="http://creativecommons.org/ns#"
   xmlns:rdf="http://www.w3.org/1999/02/22-rdf-syntax-ns#"
   xmlns:svg="http://www.w3.org/2000/svg"
   xmlns="http://www.w3.org/2000/svg"
   xmlns:sodipodi="http://sodipodi.sourceforge.net/DTD/sodipodi-0.dtd"
   xmlns:inkscape="http://www.inkscape.org/namespaces/inkscape"
   version="1.0"
   id="_x31_"
   x="0px"
   y="0px"
   width="612px"
   height="792px"
   viewBox="0 0 612 792"
   enable-background="new 0 0 612 792"
   xml:space="preserve"
   inkscape:version="0.48.2 r9819"
   sodipodi:docname="7097.svg"><metadata
   id="metadata34"><rdf:RDF><cc:Work
       rdf:about=""><dc:format>image/svg+xml</dc:format><dc:type
         rdf:resource="http://purl.org/dc/dcmitype/StillImage" /></cc:Work></rdf:RDF></metadata><defs
   id="defs32" /><sodipodi:namedview
   pagecolor="#ffffff"
   bordercolor="#666666"
   borderopacity="1"
   objecttolerance="10"
   gridtolerance="10"
   guidetolerance="10"
   inkscape:pageopacity="0"
   inkscape:pageshadow="2"
   inkscape:window-width="1920"
   inkscape:window-height="1071"
   id="namedview30"
   showgrid="false"
   inkscape:zoom="1.1919192"
   inkscape:cx="150.12972"
   inkscape:cy="288.74491"
   inkscape:window-x="0"
   inkscape:window-y="0"
   inkscape:window-maximized="1"
   inkscape:current-layer="_x31_" />
<g
   id="LWPOLYLINE_4_"
   style="stroke:none;fill:#000000;fill-opacity:1">
	
		<path
   style="fill:#000000;fill-opacity:1;stroke:none"
   d="m 293.96875,461.75 c -23.30742,55.32118 -47.87471,111.54702 -70.28125,166.3125 7.84477,-0.52337 16.95745,1.0276 24.09375,-0.65625 6.02652,-14.06569 11.07397,-29.60595 17.6875,-42.8125 25.91612,0.22233 52.23171,-0.45229 77.90625,0.3125 5.99309,14.23649 11.2405,29.55643 17.6875,43.15625 8.02148,-0.22095 17.26001,0.43544 24.5938,-0.28125 C 362.936,572.56054 340.86054,516.36893 317.7188,461.75 c -7.91668,0 -15.83337,0 -23.75005,0 z m 10.59375,23.1875 c 9.9545,27.00441 21.42922,54.63885 30.5,81.28125 -20.76042,0 -41.52083,0 -62.28125,0 10.48519,-27.13577 21.17779,-54.19146 31.78125,-81.28125 z"
   id="path16"
   inkscape:connector-curvature="0" />
</g><g
   id="LWPOLYLINE_6_"
   style="stroke:none;fill:#000000;fill-opacity:1">
	
		<path
   style="fill:#000000;fill-opacity:1;stroke:none"
   d="m 408.15625,461.75 c 0.10628,55.32405 -0.54876,111.60224 0.2813,166.3125 7.3888,-0.39587 16.25311,0.77871 22.81245,-0.5 0.33451,-24.84026 -0.67994,-50.65281 0.46875,-74.90625 18.13436,1.31949 37.89173,-3.50949 54.6875,5.0936 13.95941,12.32204 9.30947,33.31327 13.5935,49.6875 1.81294,6.56141 1.67023,16.02613 5.8125,20.65625 7.69792,0 15.39583,0 23.09375,0 -8.04645,-21.48828 -6.84389,-44.90972 -13.031,-66.7186 -2.23793,-10.34109 -15.46974,-15.70028 -21.96875,-17.6875 14.09281,-3.66071 26.24652,-13.97128 29.53125,-28.59375 7.78224,-23.65252 -10.6704,-50.33045 -35.4063,-52.0625 -26.45533,-2.71593 -53.29698,-0.62484 -79.87495,-1.28125 z M 431.25,481.0625 c 18.42232,1.21248 37.76675,-2.92625 55.46875,3.40605 20.88049,9.62086 16.21017,46.50371 -7.40625,49.1252 -15.93076,1.59818 -32.05656,0.24485 -48.0625,0.68735 0,-17.73943 0,-35.47967 0,-53.2186 z"
   id="path22"
   inkscape:connector-curvature="0" />
</g><g
   id="LWPOLYLINE"
   style="stroke:none;fill:#000000;fill-opacity:1">
	
		<path
   style="fill:#000000;fill-opacity:1;stroke:none"
   d="m 490.23001,145.5 c 9.68067,0 19.36133,0 29.042,0 0,49.002 0,98.004 0,147.006 -9.68067,0 -19.36133,0 -29.042,0 0,-49.002 0,-98.004 0,-147.006 z"
   id="rect4"
   inkscape:connector-curvature="0" />
</g>
<g
   id="LWPOLYLINE_1_"
   style="stroke:none;fill:#000000;fill-opacity:1">
	
		<path
   style="fill:#000000;fill-opacity:1;stroke:none"
   d="m 84.062,232.768 c 84.40367,0 168.80733,0 253.211,0 0,15.71733 0,31.43467 0,47.152 50.98567,-20.15633 101.97133,-40.31267 152.957,-60.469 -50.98567,-19.81767 -101.97133,-39.63533 -152.957,-59.453 0,15.379 0,30.758 0,46.137 -84.40367,0 -168.80733,0 -253.211,0 0,8.87767 0,17.75533 0,26.633 z"
   id="polygon7"
   inkscape:connector-curvature="0" />
</g>
<g
   id="LWPOLYLINE_2_"
   style="stroke:none;fill:#000000;fill-opacity:1">
	
		<path
   style="fill:#000000;fill-opacity:1;stroke:none"
   d="m 17.312,645.5 c 13.389859,-0.26514 27.822165,0.51217 40.635,-0.33 -0.774241,-3.453 1.653405,-9.83318 -1.345,-11.289 -6.817334,-0.26867 -14.619197,0.51819 -20.896,-0.33 0,-58.88733 0,-117.77467 0,-176.662 7.308342,-0.21899 15.357608,0.43615 22.242,-0.283 -0.686722,-3.47744 1.445262,-9.47889 -1.134,-11.285 -13.167,0 -26.334,0 -39.501,0 -6.66e-4,66.726 0.0013,133.45467 -10e-4,200.179 z"
   id="path10"
   inkscape:connector-curvature="0" />
</g>
<g
   id="LWPOLYLINE_3_"
   style="stroke:none;fill:#000000;fill-opacity:1">
	
		<path
   style="fill:#000000;fill-opacity:1;stroke:none"
   d="m 219.452,461.754 c -7.71101,0.18241 -15.83379,-0.3635 -23.309,0.236 -16.72402,47.30375 -33.44809,94.61176 -50.196,141.907 -15.79866,-47.3788 -31.57774,-94.76877 -47.391,-142.143 -8.505889,0.21836 -18.125934,-0.43542 -25.993,0.283 19.943459,55.3477 39.87559,110.70158 59.855,166.036 8.366,0 16.732,0 25.098,0 20.6896,-55.42314 41.29471,-110.87784 61.936,-166.319 z"
   id="path13"
   inkscape:connector-curvature="0" />
</g>

<g
   id="LWPOLYLINE_5_"
   style="stroke:none;fill:#000000;fill-opacity:1">
	
		
</g>

<g
   id="LWPOLYLINE_7_"
   style="stroke:none;fill:#000000;fill-opacity:1">
	
		
</g>
<g
   id="LWPOLYLINE_8_"
   style="stroke:none;fill:#000000;fill-opacity:1">
	
		<path
   style="fill:#000000;fill-opacity:1;stroke:none"
   d="m 594.688,445.32 c -13.38258,0.26509 -27.80956,-0.51423 -40.613,0.33 0.78791,3.42851 -1.68195,9.8907 1.369,11.243 6.8212,0.2689 14.556,-0.51829 20.876,0.33 0,58.88733 0,117.77467 0,176.662 -7.28806,0.2563 -15.46304,-0.50959 -22.245,0.33 0.68583,3.47817 -1.44326,9.48648 1.133,11.289 13.16,0 26.32,0 39.48,0 0,-66.728 0,-133.456 0,-200.184 z"
   id="path28"
   inkscape:connector-curvature="0" />
</g>
</svg>