<?xml version="1.0" encoding="UTF-8" standalone="no"?>
<!-- Generator: Adobe Illustrator 16.0.1, SVG Export Plug-In . SVG Version: 6.00 Build 0)  -->

<svg
   xmlns:dc="http://purl.org/dc/elements/1.1/"
   xmlns:cc="http://creativecommons.org/ns#"
   xmlns:rdf="http://www.w3.org/1999/02/22-rdf-syntax-ns#"
   xmlns:svg="http://www.w3.org/2000/svg"
   xmlns="http://www.w3.org/2000/svg"
   xmlns:sodipodi="http://sodipodi.sourceforge.net/DTD/sodipodi-0.dtd"
   xmlns:inkscape="http://www.inkscape.org/namespaces/inkscape"
   version="1.0"
   id="_x31_"
   x="0px"
   y="0px"
   width="612px"
   height="792px"
   viewBox="0 0 612 792"
   enable-background="new 0 0 612 792"
   xml:space="preserve"
   inkscape:version="0.48.2 r9819"
   sodipodi:docname="7098.svg"><metadata
   id="metadata16"><rdf:RDF><cc:Work
       rdf:about=""><dc:format>image/svg+xml</dc:format><dc:type
         rdf:resource="http://purl.org/dc/dcmitype/StillImage" /></cc:Work></rdf:RDF></metadata><defs
   id="defs14" /><sodipodi:namedview
   pagecolor="#ffffff"
   bordercolor="#666666"
   borderopacity="1"
   objecttolerance="10"
   gridtolerance="10"
   guidetolerance="10"
   inkscape:pageopacity="0"
   inkscape:pageshadow="2"
   inkscape:window-width="1920"
   inkscape:window-height="1071"
   id="namedview12"
   showgrid="false"
   inkscape:zoom="0.2979798"
   inkscape:cx="-432.30508"
   inkscape:cy="396"
   inkscape:window-x="0"
   inkscape:window-y="0"
   inkscape:window-maximized="1"
   inkscape:current-layer="_x31_" />
<g
   id="LWPOLYLINE"
   style="stroke:none;fill:#000000;fill-opacity:1">
	
		<rect
   x="502.294"
   y="146"
   fill="none"
   stroke="#000000"
   stroke-width="0.7087"
   stroke-linecap="round"
   stroke-linejoin="round"
   stroke-miterlimit="10"
   width="30.1"
   height="152.605"
   id="rect4"
   style="stroke:none;fill:#000000;fill-opacity:1" />
</g>
<g
   id="LWPOLYLINE_1_"
   style="stroke:none;fill:#000000;fill-opacity:1">
	
		<polygon
   fill="none"
   stroke="#000000"
   stroke-width="0.7087"
   stroke-linecap="round"
   stroke-linejoin="round"
   stroke-miterlimit="10"
   points="   80.606,236.617 343.463,236.617 343.463,285.541 502.294,222.768 343.463,161.049 343.463,208.943 80.606,208.943  "
   id="polygon7"
   style="stroke:none;fill:#000000;fill-opacity:1" />
</g>
<g
   id="LWPOLYLINE_2_"
   style="stroke:none;fill:#000000;fill-opacity:1">
	
		<path
   fill="none"
   stroke="#000000"
   stroke-width="0.7087"
   stroke-linecap="round"
   stroke-linejoin="round"
   stroke-miterlimit="10"
   d="   M303.117,646c0.147,0,0.393,0,0.393,0h0.245h0.343h0.393h0.441h0.539h0.539h0.637h0.638h0.687h0.735h0.735h0.784h0.784h0.834h0.833   h0.833h0.834h0.833h0.833h0.834h0.833h0.784h0.785h0.734h0.735h0.687h0.687h0.588h0.589h0.49h0.441h0.392h0.344h0.294   c0.196,0,0.294,0,0.294,0c0.049,0,0.049-0.344,0.049-0.344v-0.932v-1.471v-2.059v-2.549v-3.039v-3.48v-3.922v-4.266v-4.607v-5.002   v-5.195v-5.539v-5.688v-5.932v-6.078v-6.227v-6.273v-6.373v-6.373v-6.422v-6.373v-6.275v-6.225v-6.031v-5.932v-5.734v-5.49v-5.246   v-4.951v-4.656v-4.266v-3.922v-3.48v-2.99v-2.598v-2.01v-1.521v-0.93v-0.295c-0.146,0-0.343,0-0.343,0h-0.245h-0.344h-0.343h-0.441   h-0.49h-0.539h-0.588h-0.638h-0.638h-0.686h-0.735h-0.735h-0.784h-0.785h-0.784h-0.784h-0.784h-0.834h-0.784h-0.784h-0.784h-0.784   h-0.735h-0.735h-0.687h-0.638h-0.637h-0.589h-0.539h-0.49h-0.392h-0.393h-0.343h-0.245c-0.196,0-0.294,0-0.294,0   c-0.05,0-0.735,0.637-0.735,0.637l-0.735,0.639l-0.735,0.637l-0.785,0.637l-0.784,0.637l-0.784,0.639l-0.833,0.686l-0.883,0.686   l-0.833,0.639l-0.883,0.686l-0.932,0.688l-0.931,0.686l-0.932,0.686l-0.932,0.688l-0.98,0.686l-0.98,0.686l-1.029,0.736   l-0.98,0.686l-1.029,0.688l-1.079,0.686l-1.029,0.688l-1.078,0.734l-1.078,0.686l-1.128,0.688l-1.078,0.686l-1.128,0.688   l-1.127,0.686l-1.152,0.734l-1.152,0.639l-1.151,0.686l-1.152,0.688l-1.177,0.686l-1.177,0.637l-1.201,0.688l-1.2,0.637   l-1.201,0.686l-1.201,0.639l-1.226,0.637l-1.201,0.637l-1.226,0.637c0,0.148,0,0.393,0,0.393v0.295v0.344v0.439v0.541v0.539v0.637   v0.686v0.688v0.783v0.785v0.834v0.881v0.883v0.883v0.932v0.932v0.932v0.93v0.932v0.883v0.932v0.883v0.832v0.834v0.834v0.734v0.736   v0.686v0.588v0.59v0.49v0.439v0.393v0.295c0,0.195,0,0.344,0,0.344c0,0.049,0.907-0.344,0.907-0.344l0.956-0.441l0.955-0.441   l0.956-0.441l0.98-0.441l1.005-0.49l0.98-0.49l1.005-0.539l1.03-0.539l1.029-0.539l1.029-0.539l1.029-0.588l1.054-0.588l1.03-0.59   l1.054-0.637l1.054-0.588l1.054-0.637l1.055-0.639l1.078-0.637l1.029-0.686l1.079-0.639l1.029-0.686l1.029-0.686l1.029-0.688   l1.078-0.686l1.03-0.688l0.98-0.686l1.029-0.686l1.029-0.736l0.98-0.686l0.98-0.736l0.98-0.686l0.932-0.688l0.98-0.734l0.931-0.736   l0.932-0.686l0.883-0.686l0.882-0.736l0.883-0.686l0.833-0.688V646z"
   id="path10"
   style="stroke:none;fill:#000000;fill-opacity:1" />
</g>
</svg>