<?xml version="1.0" encoding="UTF-8" standalone="no"?>
<!-- Generator: Adobe Illustrator 16.0.1, SVG Export Plug-In . SVG Version: 6.00 Build 0)  -->

<svg
   xmlns:dc="http://purl.org/dc/elements/1.1/"
   xmlns:cc="http://creativecommons.org/ns#"
   xmlns:rdf="http://www.w3.org/1999/02/22-rdf-syntax-ns#"
   xmlns:svg="http://www.w3.org/2000/svg"
   xmlns="http://www.w3.org/2000/svg"
   xmlns:xlink="http://www.w3.org/1999/xlink"
   xmlns:sodipodi="http://sodipodi.sourceforge.net/DTD/sodipodi-0.dtd"
   xmlns:inkscape="http://www.inkscape.org/namespaces/inkscape"
   version="1.0"
   id="_x31_"
   x="0px"
   y="0px"
   width="350"
   height="350"
   viewBox="0 0 350 350"
   enable-background="new 0 0 612 792"
   xml:space="preserve"
   inkscape:version="0.48.2 r9819"
   sodipodi:docname="7099.svg"><metadata
   id="metadata13"><rdf:RDF><cc:Work
       rdf:about=""><dc:format>image/svg+xml</dc:format><dc:type
         rdf:resource="http://purl.org/dc/dcmitype/StillImage" /></cc:Work></rdf:RDF></metadata><defs
   id="defs11"><radialGradient
     r="333.18735"
     fy="710.99164"
     fx="373.24265"
     cy="710.99164"
     cx="373.24265"
     gradientTransform="matrix(0.86272608,1.0667183e-7,-5.1097115e-8,0.31434,-147.00617,81.5576)"
     gradientUnits="userSpaceOnUse"
     id="radialGradient3092"
     xlink:href="#linearGradient5443"
     inkscape:collect="always" /><radialGradient
     r="333.18735"
     fy="467.91885"
     fx="373.24265"
     cy="467.91885"
     cx="373.24265"
     gradientTransform="matrix(0.83535071,2.5391117e-7,-2.4564601e-7,0.80815889,-136.78854,-203.15302)"
     gradientUnits="userSpaceOnUse"
     id="radialGradient3088"
     xlink:href="#linearGradient5443"
     inkscape:collect="always" /><radialGradient
     r="333.18735"
     fy="467.91885"
     fx="373.24265"
     cy="467.91885"
     cx="373.24265"
     gradientTransform="matrix(0.83535071,2.5391117e-7,-2.4564601e-7,0.80815889,783.12101,707.99698)"
     gradientUnits="userSpaceOnUse"
     id="radialGradient3736"
     xlink:href="#linearGradient5443"
     inkscape:collect="always" /><linearGradient
     y2="254.73526"
     x2="123.47623"
     y1="344.03848"
     x1="123.50603"
     gradientTransform="matrix(2.3189708,0,0,2.0930998,-99.17808,-231.54972)"
     gradientUnits="userSpaceOnUse"
     id="linearGradient3734"
     xlink:href="#linearGradient3187"
     inkscape:collect="always" /><radialGradient
     r="333.18735"
     fy="710.99164"
     fx="373.24265"
     cy="710.99164"
     cx="373.24265"
     gradientTransform="matrix(0.86272608,1.0667183e-7,-5.1097115e-8,0.31434,772.90338,992.7076)"
     gradientUnits="userSpaceOnUse"
     id="radialGradient3732"
     xlink:href="#linearGradient5443"
     inkscape:collect="always" /><radialGradient
     r="333.18735"
     fy="710.99164"
     fx="373.24265"
     cy="710.99164"
     cx="373.24265"
     gradientTransform="matrix(0.86272608,1.0667183e-7,-5.1097115e-8,0.31434,772.90338,992.7076)"
     gradientUnits="userSpaceOnUse"
     id="radialGradient3722"
     xlink:href="#linearGradient5443"
     inkscape:collect="always" /><radialGradient
     r="333.18735"
     fy="467.91885"
     fx="373.24265"
     cy="467.91885"
     cx="373.24265"
     gradientTransform="matrix(0.83535071,2.5391117e-7,-2.4564601e-7,0.80815889,783.12101,707.99698)"
     gradientUnits="userSpaceOnUse"
     id="radialGradient3718"
     xlink:href="#linearGradient5443"
     inkscape:collect="always" /><radialGradient
     r="333.18735"
     fy="467.91885"
     fx="373.24265"
     cy="467.91885"
     cx="373.24265"
     gradientTransform="matrix(0.9201975,2.7970099e-7,-2.7059634e-7,0.8902438,-163.70313,61.921561)"
     gradientUnits="userSpaceOnUse"
     id="radialGradient3703"
     xlink:href="#linearGradient5443"
     inkscape:collect="always" /><linearGradient
     y2="254.73526"
     x2="123.47623"
     y1="344.03848"
     x1="123.50603"
     gradientTransform="matrix(2.3189708,0,0,2.0930998,-99.17808,-231.54972)"
     gradientUnits="userSpaceOnUse"
     id="linearGradient3701"
     xlink:href="#linearGradient3187"
     inkscape:collect="always" /><radialGradient
     r="333.18735"
     fy="710.99164"
     fx="373.24265"
     cy="710.99164"
     cx="373.24265"
     gradientTransform="matrix(0.9503534,1.1750652e-7,-5.6287062e-8,0.3462676,-174.95857,375.55031)"
     gradientUnits="userSpaceOnUse"
     id="radialGradient3699"
     xlink:href="#linearGradient5443"
     inkscape:collect="always" /><radialGradient
     r="333.18735"
     fy="467.91885"
     fx="373.24265"
     cy="467.91885"
     cx="373.24265"
     gradientTransform="matrix(0.9201975,2.7970099e-7,-2.7059634e-7,0.8902438,-163.70313,61.921561)"
     gradientUnits="userSpaceOnUse"
     id="radialGradient3680"
     xlink:href="#linearGradient5443"
     inkscape:collect="always" /><linearGradient
     y2="254.73526"
     x2="123.47623"
     y1="344.03848"
     x1="123.50603"
     gradientTransform="matrix(2.3189708,0,0,2.0930998,-99.17808,-231.54972)"
     gradientUnits="userSpaceOnUse"
     id="linearGradient3678"
     xlink:href="#linearGradient3187"
     inkscape:collect="always" /><radialGradient
     r="333.18735"
     fy="710.99164"
     fx="373.24265"
     cy="710.99164"
     cx="373.24265"
     gradientTransform="matrix(0.9503534,1.1750652e-7,-5.6287062e-8,0.3462676,-174.95857,375.55031)"
     gradientUnits="userSpaceOnUse"
     id="radialGradient3676"
     xlink:href="#linearGradient5443"
     inkscape:collect="always" /><radialGradient
     r="333.18735"
     fy="467.91885"
     fx="373.24265"
     cy="467.91885"
     cx="373.24265"
     gradientTransform="matrix(0.9201975,2.7970099e-7,-2.7059634e-7,0.8902438,-163.70313,61.921561)"
     gradientUnits="userSpaceOnUse"
     id="radialGradient3654"
     xlink:href="#linearGradient5443"
     inkscape:collect="always" /><linearGradient
     y2="254.73526"
     x2="123.47623"
     y1="344.03848"
     x1="123.50603"
     gradientTransform="matrix(2.3189708,0,0,2.0930998,-99.17808,-231.54972)"
     gradientUnits="userSpaceOnUse"
     id="linearGradient3652"
     xlink:href="#linearGradient3187"
     inkscape:collect="always" /><radialGradient
     r="333.18735"
     fy="710.99164"
     fx="373.24265"
     cy="710.99164"
     cx="373.24265"
     gradientTransform="matrix(0.9503534,1.1750652e-7,-5.6287062e-8,0.3462676,-174.95857,375.55031)"
     gradientUnits="userSpaceOnUse"
     id="radialGradient3650"
     xlink:href="#linearGradient5443"
     inkscape:collect="always" /><radialGradient
     r="333.18735"
     fy="467.91885"
     fx="373.24265"
     cy="467.91885"
     cx="373.24265"
     gradientTransform="matrix(0.9201975,2.7970099e-7,-2.7059634e-7,0.8902438,-163.70313,61.921561)"
     gradientUnits="userSpaceOnUse"
     id="radialGradient3627"
     xlink:href="#linearGradient5443"
     inkscape:collect="always" /><linearGradient
     y2="254.73526"
     x2="123.47623"
     y1="344.03848"
     x1="123.50603"
     gradientTransform="matrix(2.3189708,0,0,2.0930998,-99.17808,-231.54972)"
     gradientUnits="userSpaceOnUse"
     id="linearGradient3625"
     xlink:href="#linearGradient3187"
     inkscape:collect="always" /><radialGradient
     r="333.18735"
     fy="710.99164"
     fx="373.24265"
     cy="710.99164"
     cx="373.24265"
     gradientTransform="matrix(0.9503534,1.1750652e-7,-5.6287062e-8,0.3462676,-174.95857,375.55031)"
     gradientUnits="userSpaceOnUse"
     id="radialGradient3623"
     xlink:href="#linearGradient5443"
     inkscape:collect="always" /><radialGradient
     r="333.18735"
     fy="467.91885"
     fx="373.24265"
     cy="467.91885"
     cx="373.24265"
     gradientTransform="matrix(0.9201975,2.7970099e-7,-2.7059634e-7,0.8902438,-163.70313,61.921561)"
     gradientUnits="userSpaceOnUse"
     id="radialGradient3599"
     xlink:href="#linearGradient5443"
     inkscape:collect="always" /><linearGradient
     y2="254.73526"
     x2="123.47623"
     y1="344.03848"
     x1="123.50603"
     gradientTransform="matrix(2.3189708,0,0,2.0930998,-99.17808,-231.54972)"
     gradientUnits="userSpaceOnUse"
     id="linearGradient3597"
     xlink:href="#linearGradient3187"
     inkscape:collect="always" /><radialGradient
     r="333.18735"
     fy="710.99164"
     fx="373.24265"
     cy="710.99164"
     cx="373.24265"
     gradientTransform="matrix(0.9503534,1.1750652e-7,-5.6287062e-8,0.3462676,-174.95857,375.55031)"
     gradientUnits="userSpaceOnUse"
     id="radialGradient3595"
     xlink:href="#linearGradient5443"
     inkscape:collect="always" /><radialGradient
     r="333.18735"
     fy="467.91885"
     fx="373.24265"
     cy="467.91885"
     cx="373.24265"
     gradientTransform="matrix(0.9201975,2.7970099e-7,-2.7059634e-7,0.8902438,-163.70313,61.921561)"
     gradientUnits="userSpaceOnUse"
     id="radialGradient3525"
     xlink:href="#linearGradient5443"
     inkscape:collect="always" /><linearGradient
     y2="254.73526"
     x2="123.47623"
     y1="344.03848"
     x1="123.50603"
     gradientTransform="matrix(2.3189708,0,0,2.0930998,-99.17808,-231.54972)"
     gradientUnits="userSpaceOnUse"
     id="linearGradient3523"
     xlink:href="#linearGradient3187"
     inkscape:collect="always" /><radialGradient
     r="333.18735"
     fy="710.99164"
     fx="373.24265"
     cy="710.99164"
     cx="373.24265"
     gradientTransform="matrix(0.9503534,1.1750652e-7,-5.6287062e-8,0.3462676,-174.95857,375.55031)"
     gradientUnits="userSpaceOnUse"
     id="radialGradient3521"
     xlink:href="#linearGradient5443"
     inkscape:collect="always" /><radialGradient
     r="333.18735"
     fy="467.91885"
     fx="373.24265"
     cy="467.91885"
     cx="373.24265"
     gradientTransform="matrix(0.9201975,2.7970099e-7,-2.7059634e-7,0.8902438,-163.70313,61.921561)"
     gradientUnits="userSpaceOnUse"
     id="radialGradient3497"
     xlink:href="#linearGradient5443"
     inkscape:collect="always" /><linearGradient
     y2="254.73526"
     x2="123.47623"
     y1="344.03848"
     x1="123.50603"
     gradientTransform="matrix(2.3189708,0,0,2.0930998,-99.17808,-231.54972)"
     gradientUnits="userSpaceOnUse"
     id="linearGradient3495"
     xlink:href="#linearGradient3187"
     inkscape:collect="always" /><radialGradient
     r="333.18735"
     fy="710.99164"
     fx="373.24265"
     cy="710.99164"
     cx="373.24265"
     gradientTransform="matrix(0.9503534,1.1750652e-7,-5.6287062e-8,0.3462676,-174.95857,375.55031)"
     gradientUnits="userSpaceOnUse"
     id="radialGradient3493"
     xlink:href="#linearGradient5443"
     inkscape:collect="always" /><linearGradient
     id="linearGradient5443"><stop
       id="stop5445"
       offset="0"
       style="stop-color:#ffffff;stop-opacity:0;" /><stop
       id="stop5447"
       offset="1"
       style="stop-color:#000000;stop-opacity:0.33962265;" /></linearGradient><linearGradient
     id="linearGradient3157"><stop
       style="stop-color:#49bcff;stop-opacity:1;"
       offset="0"
       id="stop3159" /><stop
       style="stop-color:#494c96;stop-opacity:1;"
       offset="1"
       id="stop3161" /></linearGradient><linearGradient
     id="linearGradient3171"><stop
       id="stop3173"
       offset="0"
       style="stop-color:#49bcff;stop-opacity:1;" /><stop
       id="stop3175"
       offset="1"
       style="stop-color:#494cdc;stop-opacity:1;" /></linearGradient><linearGradient
     id="linearGradient3187"><stop
       style="stop-color:#ffffff;stop-opacity:0.39622641;"
       offset="0"
       id="stop3189" /><stop
       style="stop-color:#000000;stop-opacity:1;"
       offset="1"
       id="stop3191" /></linearGradient><linearGradient
     id="linearGradient4395"><stop
       style="stop-color:#110084;stop-opacity:1;"
       offset="0"
       id="stop4397" /><stop
       style="stop-color:#a695ff;stop-opacity:1;"
       offset="1"
       id="stop4399" /></linearGradient><linearGradient
     id="linearGradient4383"><stop
       style="stop-color:#00037f;stop-opacity:1;"
       offset="0"
       id="stop4385" /><stop
       style="stop-color:#00037f;stop-opacity:0;"
       offset="1"
       id="stop4387" /></linearGradient><inkscape:perspective
     sodipodi:type="inkscape:persp3d"
     inkscape:vp_x="0 : 526.18109 : 1"
     inkscape:vp_y="0 : 1000 : 0"
     inkscape:vp_z="744.09448 : 526.18109 : 1"
     inkscape:persp3d-origin="372.04724 : 350.78739 : 1"
     id="perspective3214" /><linearGradient
     inkscape:collect="always"
     xlink:href="#linearGradient4383"
     id="linearGradient4389"
     x1="371.42194"
     y1="298.59412"
     x2="396.91168"
     y2="655.4505"
     gradientUnits="userSpaceOnUse" /><linearGradient
     inkscape:collect="always"
     xlink:href="#linearGradient4395"
     id="linearGradient4401"
     x1="360.49777"
     y1="167.50403"
     x2="360.49777"
     y2="540.86719"
     gradientUnits="userSpaceOnUse" /><linearGradient
     inkscape:collect="always"
     xlink:href="#linearGradient3187"
     id="linearGradient4562"
     gradientUnits="userSpaceOnUse"
     gradientTransform="matrix(2.3189708,0,0,2.0930998,93.115298,-256.84999)"
     x1="123.50603"
     y1="344.03848"
     x2="123.47623"
     y2="254.73526" /><radialGradient
     inkscape:collect="always"
     xlink:href="#linearGradient3171"
     id="radialGradient4569"
     gradientUnits="userSpaceOnUse"
     gradientTransform="matrix(0.9201975,2.7970099e-7,-2.7059634e-7,0.8902438,28.590287,48.634335)"
     cx="373.24265"
     cy="467.91885"
     fx="373.24265"
     fy="467.91885"
     r="333.18735" /><radialGradient
     inkscape:collect="always"
     xlink:href="#linearGradient3157"
     id="radialGradient4572"
     gradientUnits="userSpaceOnUse"
     gradientTransform="matrix(0.9503534,1.1750652e-7,-5.6287062e-8,0.3462676,17.334826,362.44227)"
     cx="373.24265"
     cy="710.99164"
     fx="373.24265"
     fy="710.99164"
     r="333.18735" /><filter
     inkscape:collect="always"
     id="filter4659"
     color-interpolation-filters="sRGB"><feGaussianBlur
       inkscape:collect="always"
       stdDeviation="2.7750933"
       id="feGaussianBlur4661" /></filter><radialGradient
     inkscape:collect="always"
     xlink:href="#linearGradient3157"
     id="radialGradient4766"
     gradientUnits="userSpaceOnUse"
     gradientTransform="matrix(0.9503534,1.1750652e-7,-5.6287062e-8,0.3462676,17.334826,362.44227)"
     cx="373.24265"
     cy="710.99164"
     fx="373.24265"
     fy="710.99164"
     r="333.18735" /><radialGradient
     inkscape:collect="always"
     xlink:href="#linearGradient3171"
     id="radialGradient4768"
     gradientUnits="userSpaceOnUse"
     gradientTransform="matrix(0.9201975,2.7970099e-7,-2.7059634e-7,0.8902438,28.590287,48.634335)"
     cx="373.24265"
     cy="467.91885"
     fx="373.24265"
     fy="467.91885"
     r="333.18735" /><linearGradient
     inkscape:collect="always"
     xlink:href="#linearGradient3187"
     id="linearGradient4770"
     gradientUnits="userSpaceOnUse"
     gradientTransform="matrix(2.3189708,0,0,2.0930998,93.115298,-256.84999)"
     x1="123.50603"
     y1="344.03848"
     x2="123.47623"
     y2="254.73526" /><linearGradient
     inkscape:collect="always"
     xlink:href="#linearGradient3187"
     id="linearGradient4773"
     gradientUnits="userSpaceOnUse"
     gradientTransform="matrix(2.3189708,0,0,2.0930998,93.115298,-256.84999)"
     x1="123.50603"
     y1="344.03848"
     x2="123.47623"
     y2="254.73526" /><radialGradient
     inkscape:collect="always"
     xlink:href="#linearGradient3171"
     id="radialGradient4776"
     gradientUnits="userSpaceOnUse"
     gradientTransform="matrix(0.9201975,2.7970099e-7,-2.7059634e-7,0.8902438,28.590287,48.634335)"
     cx="373.24265"
     cy="467.91885"
     fx="373.24265"
     fy="467.91885"
     r="333.18735" /><radialGradient
     inkscape:collect="always"
     xlink:href="#linearGradient3157"
     id="radialGradient4779"
     gradientUnits="userSpaceOnUse"
     gradientTransform="matrix(0.9503534,1.1750652e-7,-5.6287062e-8,0.3462676,17.334826,362.44227)"
     cx="373.24265"
     cy="710.99164"
     fx="373.24265"
     fy="710.99164"
     r="333.18735" /><radialGradient
     inkscape:collect="always"
     xlink:href="#linearGradient3157"
     id="radialGradient4790"
     gradientUnits="userSpaceOnUse"
     gradientTransform="matrix(0.9503534,1.1750652e-7,-5.6287062e-8,0.3462676,17.334826,362.44227)"
     cx="373.24265"
     cy="710.99164"
     fx="373.24265"
     fy="710.99164"
     r="333.18735" /><radialGradient
     inkscape:collect="always"
     xlink:href="#linearGradient3171"
     id="radialGradient4792"
     gradientUnits="userSpaceOnUse"
     gradientTransform="matrix(0.9201975,2.7970099e-7,-2.7059634e-7,0.8902438,28.590287,48.634335)"
     cx="373.24265"
     cy="467.91885"
     fx="373.24265"
     fy="467.91885"
     r="333.18735" /><linearGradient
     inkscape:collect="always"
     xlink:href="#linearGradient3187"
     id="linearGradient4794"
     gradientUnits="userSpaceOnUse"
     gradientTransform="matrix(2.3189708,0,0,2.0930998,93.115298,-256.84999)"
     x1="123.50603"
     y1="344.03848"
     x2="123.47623"
     y2="254.73526" /><linearGradient
     inkscape:collect="always"
     xlink:href="#linearGradient3187"
     id="linearGradient4799"
     gradientUnits="userSpaceOnUse"
     gradientTransform="matrix(2.3189708,0,0,2.0930998,93.115298,-256.84999)"
     x1="123.50603"
     y1="344.03848"
     x2="123.47623"
     y2="254.73526" /><radialGradient
     inkscape:collect="always"
     xlink:href="#linearGradient3171"
     id="radialGradient4802"
     gradientUnits="userSpaceOnUse"
     gradientTransform="matrix(0.9201975,2.7970099e-7,-2.7059634e-7,0.8902438,28.590287,48.634335)"
     cx="373.24265"
     cy="467.91885"
     fx="373.24265"
     fy="467.91885"
     r="333.18735" /><radialGradient
     inkscape:collect="always"
     xlink:href="#linearGradient3157"
     id="radialGradient4805"
     gradientUnits="userSpaceOnUse"
     gradientTransform="matrix(0.9503534,1.1750652e-7,-5.6287062e-8,0.3462676,17.334826,362.44227)"
     cx="373.24265"
     cy="710.99164"
     fx="373.24265"
     fy="710.99164"
     r="333.18735" /><radialGradient
     inkscape:collect="always"
     xlink:href="#linearGradient3157"
     id="radialGradient4820"
     gradientUnits="userSpaceOnUse"
     gradientTransform="matrix(0.9503534,1.1750652e-7,-5.6287062e-8,0.3462676,17.334826,362.44227)"
     cx="373.24265"
     cy="710.99164"
     fx="373.24265"
     fy="710.99164"
     r="333.18735" /><radialGradient
     inkscape:collect="always"
     xlink:href="#linearGradient3171"
     id="radialGradient4822"
     gradientUnits="userSpaceOnUse"
     gradientTransform="matrix(0.9201975,2.7970099e-7,-2.7059634e-7,0.8902438,28.590287,48.634335)"
     cx="373.24265"
     cy="467.91885"
     fx="373.24265"
     fy="467.91885"
     r="333.18735" /><linearGradient
     inkscape:collect="always"
     xlink:href="#linearGradient3187"
     id="linearGradient4824"
     gradientUnits="userSpaceOnUse"
     gradientTransform="matrix(2.3189708,0,0,2.0930998,93.115298,-256.84999)"
     x1="123.50603"
     y1="344.03848"
     x2="123.47623"
     y2="254.73526" /><linearGradient
     inkscape:collect="always"
     xlink:href="#linearGradient3187"
     id="linearGradient4827"
     gradientUnits="userSpaceOnUse"
     gradientTransform="matrix(2.3189708,0,0,2.0930998,-99.17808,-231.54972)"
     x1="123.50603"
     y1="344.03848"
     x2="123.47623"
     y2="254.73526" /><radialGradient
     inkscape:collect="always"
     xlink:href="#linearGradient5443"
     id="radialGradient4832"
     gradientUnits="userSpaceOnUse"
     gradientTransform="matrix(0.9201975,2.7970099e-7,-2.7059634e-7,0.8902438,-163.70313,61.921561)"
     cx="373.24265"
     cy="467.91885"
     fx="373.24265"
     fy="467.91885"
     r="333.18735" /><radialGradient
     inkscape:collect="always"
     xlink:href="#linearGradient5443"
     id="radialGradient4835"
     gradientUnits="userSpaceOnUse"
     gradientTransform="matrix(0.9503534,1.1750652e-7,-5.6287062e-8,0.3462676,-174.95857,375.55031)"
     cx="373.24265"
     cy="710.99164"
     fx="373.24265"
     fy="710.99164"
     r="333.18735" /><filter
     inkscape:collect="always"
     id="filter5511"
     color-interpolation-filters="sRGB"><feGaussianBlur
       inkscape:collect="always"
       stdDeviation="3.2374974"
       id="feGaussianBlur5513" /></filter><radialGradient
     inkscape:collect="always"
     xlink:href="#linearGradient5443-5"
     id="radialGradient4835-3"
     gradientUnits="userSpaceOnUse"
     gradientTransform="matrix(0.9503534,1.1750652e-7,-5.6287062e-8,0.3462676,317.80591,185.68771)"
     cx="373.24265"
     cy="710.99164"
     fx="373.24265"
     fy="710.99164"
     r="333.18735" /><linearGradient
     id="linearGradient5443-5"><stop
       id="stop5445-4"
       offset="0"
       style="stop-color:#ffffff;stop-opacity:0;" /><stop
       id="stop5447-3"
       offset="1"
       style="stop-color:#000000;stop-opacity:0.33962265;" /></linearGradient><radialGradient
     inkscape:collect="always"
     xlink:href="#linearGradient5443"
     id="radialGradient3272"
     gradientUnits="userSpaceOnUse"
     gradientTransform="matrix(0.9503534,1.1750652e-7,-5.6287062e-8,0.3462676,-174.95857,375.55031)"
     cx="373.24265"
     cy="710.99164"
     fx="373.24265"
     fy="710.99164"
     r="333.18735" /><linearGradient
     inkscape:collect="always"
     xlink:href="#linearGradient3187"
     id="linearGradient3274"
     gradientUnits="userSpaceOnUse"
     gradientTransform="matrix(2.3189708,0,0,2.0930998,-99.17808,-231.54972)"
     x1="123.50603"
     y1="344.03848"
     x2="123.47623"
     y2="254.73526" /><radialGradient
     inkscape:collect="always"
     xlink:href="#linearGradient5443"
     id="radialGradient3276"
     gradientUnits="userSpaceOnUse"
     gradientTransform="matrix(0.9201975,2.7970099e-7,-2.7059634e-7,0.8902438,-163.70313,61.921561)"
     cx="373.24265"
     cy="467.91885"
     fx="373.24265"
     fy="467.91885"
     r="333.18735" /></defs><sodipodi:namedview
   pagecolor="#ffffff"
   bordercolor="#666666"
   borderopacity="1"
   objecttolerance="10"
   gridtolerance="10"
   guidetolerance="10"
   inkscape:pageopacity="0"
   inkscape:pageshadow="2"
   inkscape:window-width="1920"
   inkscape:window-height="1068"
   id="namedview9"
   showgrid="false"
   inkscape:zoom="0.2979798"
   inkscape:cx="-964.03391"
   inkscape:cy="482.69867"
   inkscape:window-x="0"
   inkscape:window-y="0"
   inkscape:window-maximized="1"
   inkscape:current-layer="_x31_"
   fit-margin-top="0"
   fit-margin-left="0"
   fit-margin-right="0"
   fit-margin-bottom="0" />

<g
   id="g3273"
   transform="translate(-6.6748971e-6,3.5529445e-6)"><rect
     inkscape:export-ydpi="29.879425"
     inkscape:export-xdpi="29.879425"
     inkscape:export-filename="C:\Documents and Settings\adscro24\Desktop\128.png"
     style="opacity:0.61338286;fill:#464646;fill-opacity:0.78540775;stroke:none;filter:url(#filter4659)"
     id="rect3279"
     width="152.93848"
     height="152.93848"
     x="135.39355"
     y="48.636749"
     rx="16.067965"
     ry="12.45238"
     transform="matrix(2.1051501,0,0,2.1051501,-271.00298,-88.36689)" /><rect
     inkscape:export-ydpi="29.879425"
     inkscape:export-xdpi="29.879425"
     inkscape:export-filename="C:\Documents and Settings\adscro24\Desktop\128.png"
     style="opacity:0.61338286;fill:url(#radialGradient3092);fill-opacity:1;stroke:#000000;stroke-width:3.26806188;stroke-miterlimit:4;stroke-opacity:1;stroke-dasharray:none"
     id="rect3155"
     width="321.95847"
     height="321.95847"
     x="14.020748"
     y="14.020716"
     rx="33.825481"
     ry="26.21413" /><path
     transform="matrix(0.90779502,0,0,0.90779502,11.82035,-259.3651)"
     inkscape:export-ydpi="29.879425"
     inkscape:export-xdpi="29.879425"
     inkscape:export-filename="C:\Documents and Settings\adscro24\Desktop\128.png"
     inkscape:connector-curvature="0"
     style="opacity:0.61338286;fill:url(#linearGradient3734);fill-opacity:1;stroke:none;filter:url(#filter5511)"
     d="m 46.58172,323.34879 c -19.62748,0 -35.44272,12.0976 -35.44272,27.14163 l 0,124.30857 c 29.25482,11.38638 132.70149,11.89599 165.40488,-5.79022 33.32802,-18.02397 127.54379,-68.44264 171.82484,-52.72052 l 0,-65.79783 c 0,-15.04403 -15.7986,-27.14163 -35.4261,-27.14163 l -266.3609,0 z M 11.139,586.81982 l 0,42.88373 c 0,1.33144 0.14331,2.63588 0.38253,3.915 -0.11919,-12.81092 -0.25965,-28.88939 -0.38253,-46.79873 z"
     id="rect3177" /><rect
     inkscape:export-ydpi="29.879425"
     inkscape:export-xdpi="29.879425"
     inkscape:export-filename="C:\Documents and Settings\adscro24\Desktop\128.png"
     style="opacity:0.61338286;fill:url(#radialGradient3088);fill-opacity:1;stroke:#ffffff;stroke-width:0.68992418;stroke-linecap:square;stroke-miterlimit:4;stroke-opacity:1;stroke-dasharray:none"
     id="rect3473"
     width="306.12445"
     height="306.12445"
     x="21.937801"
     y="21.937769"
     rx="32.161926"
     ry="24.924913" /><rect
     inkscape:export-ydpi="29.879425"
     inkscape:export-xdpi="29.879425"
     inkscape:export-filename="C:\Documents and Settings\adscro24\Desktop\128.png"
     style="opacity:0.61338286;fill:#ffffff;fill-opacity:0;stroke:#000000;stroke-width:3.26806188;stroke-miterlimit:4;stroke-opacity:1;stroke-dasharray:none"
     id="rect3155-2"
     width="321.95847"
     height="321.95847"
     x="14.020748"
     y="14.020716"
     rx="33.825481"
     ry="26.21413" /><g
     transform="translate(400.39145,135.8211)"
     style="fill:#000000;fill-opacity:1;stroke:none"
     id="LWPOLYLINE_2_">
	
		
</g></g><g
   id="g2985"
   transform="matrix(0.57066769,0,0,0.57066769,0.37568333,-50.697076)"><g
     style="fill:#000000;fill-opacity:1;stroke:none"
     id="LWPOLYLINE">
	
		<path
   style="fill:#000000;fill-opacity:1;stroke:none"
   id="path4"
   d="m 177.293,321.053 2.561,-2.869 2.562,-2.803 2.562,-2.78 2.583,-2.716 2.562,-2.65 2.583,-2.626 2.606,-2.562 2.606,-2.519 2.605,-2.452 2.606,-2.41 2.627,-2.364 2.65,-2.32 2.65,-2.256 2.67,-2.211 2.672,-2.169 2.694,-2.102 2.692,-2.058 2.716,-2.014 2.737,-1.972 2.759,-1.905 2.758,-1.861 2.781,-1.795 2.803,-1.751 2.824,-1.708 2.847,-1.664 2.847,-1.598 2.891,-1.555 2.891,-1.511 2.933,-1.467 2.956,-1.401 2.957,-1.358 3,-1.292 3.021,-1.247 3.044,-1.205 3.087,-1.161 3.086,-1.094 3.131,-1.051 3.153,-1.008 3.197,-0.941 3.197,-0.898 3.109,-0.787 3.109,-0.724 3.153,-0.7 3.153,-0.614 3.153,-0.591 3.197,-0.525 3.197,-0.483 3.24,-0.438 3.24,-0.372 3.241,-0.328 3.284,-0.263 3.284,-0.242 3.284,-0.175 3.328,-0.131 3.328,-0.066 3.372,-0.021 3.372,0.021 3.373,0.066 3.416,0.131 3.416,0.175 3.459,0.242 3.416,0.263 3.503,0.328 3.459,0.372 3.549,0.438 3.503,0.483 3.547,0.525 3.547,0.591 3.591,0.614 3.592,0.7 3.591,0.724 3.635,0.787 3.634,0.833 3.636,0.875 3.679,0.942 3.722,0.984 3.678,1.029 3.724,1.074 3.766,1.137 3.766,1.183 c -0.044,0.087 -0.131,0.284 -0.131,0.284 l -0.132,0.352 -0.219,0.481 -0.219,0.59 -0.306,0.702 -0.307,0.81 -0.396,0.898 -0.394,0.984 -0.438,1.073 -0.481,1.139 -0.482,1.225 -0.525,1.27 -0.524,1.314 -0.57,1.379 -0.569,1.402 -0.612,1.423 -0.57,1.467 -0.612,1.465 -0.614,1.467 -0.612,1.489 -0.568,1.467 -0.614,1.467 -0.569,1.423 -0.568,1.402 -0.57,1.379 -0.568,1.314 -0.481,1.269 -0.526,1.227 -0.438,1.139 -0.438,1.072 -0.439,0.986 -0.35,0.898 -0.351,0.81 -0.263,0.702 -0.262,0.59 -0.176,0.481 -0.131,0.35 c -0.089,0.198 -0.133,0.286 -0.133,0.286 h 0.264 0.788 1.227 1.708 2.145 2.541 2.891 3.284 3.547 3.897 4.117 4.379 4.598 4.773 4.948 5.081 5.167 5.299 5.298 5.344 5.343 5.342 5.257 5.167 5.079 4.949 4.773 4.598 4.379 4.117 3.896 3.592 3.241 2.889 2.541 2.146 1.707 1.271 0.745 0.263 c -0.175,-0.198 -0.745,-0.723 -0.745,-0.723 l -0.919,-0.854 -1.227,-1.161 -1.532,-1.467 -1.84,-1.751 -2.102,-1.992 -2.365,-2.234 -2.583,-2.452 -2.803,-2.65 -2.979,-2.847 -3.153,-3 -3.328,-3.151 -3.459,-3.263 -3.591,-3.395 -3.68,-3.481 -3.722,-3.547 -3.81,-3.612 -3.854,-3.634 -3.854,-3.68 -3.898,-3.656 -3.809,-3.656 -3.81,-3.591 -3.768,-3.548 -3.678,-3.481 -3.547,-3.394 -3.46,-3.285 -3.328,-3.153 -3.196,-3 -2.979,-2.825 -2.803,-2.67 -2.583,-2.453 -2.365,-2.232 -2.102,-1.992 -1.84,-1.73 -1.532,-1.467 -1.227,-1.161 -0.921,-0.876 -0.568,-0.525 c -0.219,-0.109 -0.263,0.088 -0.263,0.088 l -0.175,0.35 -0.175,0.439 -0.221,0.568 -0.263,0.656 -0.306,0.789 -0.351,0.854 -0.394,0.942 -0.396,1.03 -0.438,1.094 -0.48,1.161 -0.481,1.205 -0.526,1.27 -0.525,1.291 -0.568,1.357 -0.527,1.358 -0.568,1.402 -0.568,1.401 -0.57,1.401 -0.569,1.402 -0.57,1.422 -0.568,1.379 -0.569,1.38 -0.526,1.336 -0.524,1.314 -0.525,1.249 -0.482,1.225 -0.481,1.161 -0.438,1.074 -0.394,1.028 -0.396,0.942 -0.351,0.875 -0.306,0.767 -0.263,0.656 -0.219,0.57 -0.219,0.459 -0.133,0.328 c -0.044,0.197 -0.088,0.263 -0.088,0.263 l -2.845,-0.984 -2.804,-0.964 -2.803,-0.94 -2.76,-0.898 -2.801,-0.876 -2.76,-0.832 -2.803,-0.811 -2.715,-0.787 -2.759,-0.746 -2.76,-0.722 -2.714,-0.7 -2.76,-0.658 -2.715,-0.634 -2.716,-0.592 -2.714,-0.569 -2.716,-0.547 -2.716,-0.504 -2.67,-0.481 -2.716,-0.459 -2.716,-0.416 -2.67,-0.396 -2.672,-0.35 -2.716,-0.328 -2.671,-0.307 -2.672,-0.262 -2.672,-0.242 -2.67,-0.197 -2.672,-0.175 -2.672,-0.153 -2.67,-0.109 -2.672,-0.088 -2.672,-0.043 -2.715,-0.044 -2.672,0.022 -2.672,0.022 -2.67,0.065 -2.672,0.109 -2.672,0.109 -2.714,0.153 -2.672,0.197 -2.979,0.153 -2.935,0.22 -2.889,0.262 -2.891,0.307 -2.891,0.35 -2.891,0.394 -2.845,0.439 -2.825,0.481 -2.825,0.525 -2.803,0.592 -2.78,0.612 -2.759,0.634 -2.759,0.702 -2.738,0.722 -2.714,0.789 -2.694,0.788 -2.672,0.855 -2.67,0.875 -2.65,0.898 -2.626,0.94 -2.628,0.986 -2.584,1.008 -2.583,1.028 -2.562,1.073 -2.561,1.095 -2.519,1.116 -2.519,1.139 -2.495,1.183 -2.475,1.183 -2.473,1.225 -2.453,1.248 -2.43,1.249 -2.41,1.292 -2.386,1.312 -2.388,1.314 -2.364,1.358 -2.344,1.357 -2.32,1.38 -2.32,1.38 -2.3,1.401 -2.211,1.356 -2.19,1.379 -2.167,1.38 -2.145,1.401 -2.125,1.423 -2.102,1.445 -2.102,1.467 -2.06,1.489 -2.058,1.489 -2.014,1.531 -2.014,1.533 -1.994,1.555 -1.97,1.598 -1.949,1.599 -1.926,1.62 -1.905,1.642 -1.883,1.664 -1.862,1.708 -1.839,1.709 -1.839,1.729 -1.795,1.773 -1.795,1.773 -1.773,1.817 -1.729,1.817 -1.73,1.861 -1.708,1.883 -1.688,1.928 -1.664,1.927 -1.642,1.948 -1.621,1.992 -1.62,2.014 -1.577,2.06 -1.555,2.058 -1.553,2.102 -1.511,2.125 -1.511,2.146 -1.489,2.189 -1.467,2.212 -1.445,2.233 -1.401,2.276 0.481,0.505 1.489,1.467 2.366,2.386 3.262,3.263 4.072,4.051 4.839,4.839 5.541,5.539 6.197,6.219 6.832,6.809 7.378,7.38 7.883,7.905 8.342,8.342 8.759,8.758 9.109,9.109 9.414,9.415 9.678,9.679 9.875,9.853 10.03,10.028 10.137,10.159 10.181,10.161 10.183,10.203 10.137,10.116 10.007,10.029 9.896,9.896 9.678,9.679 9.416,9.415 9.109,9.108 8.758,8.759 8.32,8.32 7.927,7.883 7.357,7.4 6.831,6.831 6.219,6.175 5.518,5.562 4.861,4.817 4.029,4.072 3.284,3.284 2.364,2.365 1.489,1.489 0.482,0.481 c 0.132,-0.131 0.219,-0.263 0.219,-0.263 0.175,-0.219 0.394,-0.481 0.394,-0.481 l 0.263,-0.308 0.307,-0.35 0.306,-0.351 0.396,-0.438 0.351,-0.482 0.438,-0.481 0.438,-0.524 0.482,-0.57 0.481,-0.569 0.481,-0.568 0.526,-0.614 0.481,-0.612 0.568,-0.612 0.526,-0.658 0.525,-0.656 0.524,-0.614 0.57,-0.656 0.525,-0.612 0.525,-0.614 0.482,-0.612 0.525,-0.57 0.48,-0.612 0.439,-0.525 0.438,-0.526 0.438,-0.481 0.394,-0.481 0.352,-0.438 0.307,-0.352 0.306,-0.35 0.263,-0.307 0.219,-0.262 c 0.175,-0.219 0.263,-0.351 0.263,-0.351 0.131,-0.133 -0.35,-0.614 -0.35,-0.614 l -1.402,-1.401 -2.232,-2.232 -3.109,-3.109 -3.854,-3.854 -4.555,-4.555 -5.256,-5.256 -5.867,-5.867 -6.481,-6.481 -7.008,-6.964 -7.443,-7.487 -7.927,-7.927 -8.276,-8.276 -8.628,-8.629 -8.934,-8.933 -9.152,-9.153 -9.372,-9.371 -9.502,-9.502 -9.591,-9.591 -9.624,-9.627 -9.635,-9.635 -9.612,-9.591 -9.503,-9.503 -9.35,-9.372 -9.153,-9.153 -8.933,-8.933 -8.628,-8.628 -8.298,-8.276 -7.905,-7.927 -7.465,-7.466 -6.986,-6.986 -6.459,-6.459 -5.889,-5.889 -5.255,-5.255 -4.576,-4.577 -3.855,-3.833 -3.065,-3.088 -2.255,-2.254 -1.401,-1.402 -0.484,-0.48 z"
   stroke-miterlimit="10"
   inkscape:connector-curvature="0" />
</g><g
     style="fill:#000000;fill-opacity:1;stroke:none"
     id="LWPOLYLINE_1_">
	
		<path
   style="fill:#000000;fill-opacity:1;stroke:none"
   id="path7"
   d="m 434.704,469.947 -2.582,2.847 -2.541,2.847 -2.583,2.758 -2.54,2.716 -2.585,2.672 -2.583,2.583 -2.584,2.584 -2.627,2.495 -2.584,2.497 -2.628,2.409 -2.627,2.364 -2.672,2.276 -2.626,2.278 -2.672,2.232 -2.672,2.147 -2.671,2.102 -2.716,2.058 -2.715,2.014 -2.76,1.973 -2.714,1.883 -2.804,1.883 -2.759,1.795 -2.802,1.752 -2.803,1.707 -2.848,1.664 -2.891,1.621 -2.845,1.532 -2.935,1.533 -2.935,1.445 -2.935,1.401 -2.978,1.357 -2.979,1.314 -3.021,1.225 -3.065,1.227 -3.065,1.14 -3.109,1.094 -3.109,1.052 -3.153,1.008 -3.196,0.962 -3.197,0.877 -3.109,0.787 -3.109,0.745 -3.153,0.656 -3.153,0.658 -3.152,0.568 -3.197,0.525 -3.197,0.482 -3.219,0.438 -3.241,0.351 -3.263,0.35 -3.262,0.263 -3.285,0.221 -3.306,0.175 -3.328,0.131 -3.328,0.088 -3.372,0.044 -3.372,-0.044 -3.372,-0.088 -3.416,-0.131 -3.417,-0.175 -3.438,-0.221 -3.459,-0.263 -3.481,-0.35 -3.481,-0.351 -3.503,-0.438 -3.525,-0.482 -3.548,-0.525 -3.547,-0.568 -3.569,-0.658 -3.59,-0.656 -3.614,-0.745 -3.612,-0.787 -3.656,-0.833 -3.656,-0.875 -3.68,-0.92 -3.678,-1.007 -3.7,-1.008 -3.745,-1.095 -3.744,-1.138 -3.744,-1.183 c 0.022,-0.088 0.109,-0.307 0.109,-0.307 l 0.153,-0.352 0.197,-0.438 0.241,-0.612 0.284,-0.702 0.33,-0.787 0.372,-0.92 0.394,-0.963 0.438,-1.096 0.482,-1.139 0.481,-1.225 0.525,-1.271 0.548,-1.314 0.547,-1.357 0.569,-1.401 0.592,-1.445 0.591,-1.445 0.612,-1.488 0.614,-1.488 0.59,-1.445 0.614,-1.489 0.59,-1.445 0.591,-1.445 0.57,-1.401 0.547,-1.358 0.547,-1.357 0.526,-1.269 0.503,-1.184 0.459,-1.139 0.439,-1.094 0.416,-1.008 0.35,-0.877 0.328,-0.831 0.284,-0.701 0.264,-0.569 0.175,-0.48 0.153,-0.351 c 0.087,-0.22 0.109,-0.264 0.109,-0.264 h -0.263 -0.767 -1.249 -1.708 -2.146 -2.541 -2.889 -3.262 -3.592 -3.853 -4.139 -4.4 -4.577 -4.795 -4.927 -5.08 -5.189 -5.256 -5.32 -5.342 -5.344 -5.32 -5.254 -5.189 -5.082 H 99.08 94.307 89.71 85.33 81.19 77.315 73.746 70.484 67.571 65.03 62.906 61.2 59.951 59.185 58.921 c 0.176,0.175 0.745,0.701 0.745,0.701 l 0.897,0.831 1.227,1.184 1.555,1.488 1.839,1.708 2.103,2.015 2.342,2.234 2.606,2.451 2.801,2.672 2.979,2.803 3.175,3.021 3.328,3.153 3.459,3.284 3.57,3.374 3.678,3.459 3.744,3.591 3.811,3.591 3.831,3.634 3.875,3.68 3.854,3.679 3.854,3.634 3.811,3.591 3.744,3.549 3.678,3.503 3.569,3.372 3.461,3.284 3.306,3.153 3.175,2.978 2.999,2.847 2.803,2.671 2.584,2.453 2.364,2.232 2.103,1.971 1.839,1.751 1.533,1.489 1.225,1.14 0.92,0.876 0.547,0.525 c 0.219,0.087 0.306,-0.088 0.306,-0.088 l 0.133,-0.35 0.175,-0.439 0.241,-0.568 0.262,-0.656 0.306,-0.789 0.35,-0.831 0.396,-0.965 0.416,-1.008 0.438,-1.094 0.459,-1.183 0.504,-1.183 0.503,-1.271 0.525,-1.312 0.548,-1.357 0.547,-1.358 0.569,-1.401 0.57,-1.401 0.569,-1.401 0.569,-1.401 0.57,-1.4 0.568,-1.401 0.549,-1.358 0.547,-1.357 0.525,-1.314 0.503,-1.27 0.505,-1.182 0.459,-1.183 0.438,-1.096 0.417,-1.006 0.394,-0.964 0.35,-0.832 0.306,-0.789 0.263,-0.656 0.242,-0.57 0.175,-0.438 0.131,-0.35 c 0.087,-0.219 0.109,-0.263 0.109,-0.263 l 2.825,1.007 2.801,0.964 2.803,0.919 2.803,0.92 2.781,0.833 2.78,0.875 2.759,0.789 2.759,0.787 2.758,0.744 2.738,0.745 2.737,0.656 2.736,0.701 2.716,0.613 2.715,0.613 2.716,0.569 2.714,0.524 2.716,0.527 2.694,0.48 2.692,0.438 2.694,0.395 2.694,0.395 2.67,0.351 2.694,0.35 2.693,0.307 2.67,0.263 2.672,0.22 2.672,0.219 2.67,0.175 2.694,0.132 2.672,0.131 2.67,0.088 2.672,0.044 2.67,0.043 h 2.672 l 2.694,-0.043 2.67,-0.088 2.672,-0.088 2.694,-0.131 2.692,-0.131 2.672,-0.176 2.957,-0.175 2.934,-0.22 2.913,-0.263 2.911,-0.307 2.891,-0.35 2.869,-0.394 2.847,-0.439 2.846,-0.481 2.803,-0.524 2.804,-0.57 2.759,-0.613 2.802,-0.656 2.716,-0.701 2.759,-0.744 2.715,-0.745 2.672,-0.831 2.715,-0.833 2.671,-0.875 2.628,-0.92 2.628,-0.921 2.627,-0.962 2.584,-1.008 2.585,-1.05 2.582,-1.052 2.541,-1.096 2.539,-1.138 2.497,-1.139 2.495,-1.183 2.497,-1.183 2.451,-1.226 2.453,-1.227 2.408,-1.271 2.409,-1.313 2.408,-1.271 2.365,-1.356 2.364,-1.313 2.365,-1.358 2.32,-1.401 2.322,-1.401 2.276,-1.401 2.234,-1.356 2.189,-1.358 2.145,-1.401 2.147,-1.401 2.146,-1.401 2.102,-1.445 2.103,-1.489 2.058,-1.445 2.059,-1.533 2.014,-1.487 2.016,-1.576 1.971,-1.533 1.97,-1.576 1.971,-1.62 1.927,-1.621 1.884,-1.664 1.883,-1.664 1.883,-1.665 1.839,-1.708 1.84,-1.752 1.795,-1.751 1.795,-1.796 1.754,-1.795 1.751,-1.839 1.752,-1.883 1.708,-1.883 1.664,-1.885 1.664,-1.927 1.664,-1.97 1.62,-2.015 1.576,-2.016 1.577,-2.014 1.576,-2.102 1.533,-2.058 1.532,-2.147 1.533,-2.145 1.445,-2.189 1.487,-2.234 1.445,-2.232 1.401,-2.278 -0.481,-0.481 -1.488,-1.489 -2.364,-2.364 -3.286,-3.24 -4.028,-4.073 -4.86,-4.861 -5.518,-5.517 -6.219,-6.219 -6.833,-6.832 -7.356,-7.357 -7.926,-7.904 -8.32,-8.343 -8.76,-8.758 -9.107,-9.109 -9.416,-9.416 -9.678,-9.678 -9.897,-9.875 -10.028,-10.028 -10.117,-10.138 -10.159,-10.183 -10.203,-10.181 -10.117,-10.116 -10.05,-10.03 -9.875,-9.875 -9.678,-9.678 -9.416,-9.416 -9.108,-9.108 -8.759,-8.759 -8.342,-8.364 -7.883,-7.883 -7.379,-7.378 -6.832,-6.81 -6.197,-6.219 -5.539,-5.541 -4.839,-4.839 -4.074,-4.072 -3.241,-3.241 -2.386,-2.388 -1.489,-1.467 -0.481,-0.503 c -0.109,0.131 -0.241,0.263 -0.241,0.263 -0.177,0.219 -0.396,0.459 -0.396,0.459 l -0.24,0.308 -0.307,0.35 -0.328,0.394 -0.35,0.416 -0.396,0.483 -0.416,0.481 -0.438,0.525 -0.459,0.548 -0.483,0.569 -0.503,0.59 -0.503,0.61 -0.526,0.612 -0.525,0.635 -0.547,0.636 -0.527,0.634 -0.547,0.636 -0.525,0.634 -0.526,0.634 -0.525,0.614 -0.503,0.612 -0.504,0.592 -0.481,0.569 -0.459,0.547 -0.439,0.526 -0.416,0.503 -0.394,0.459 -0.372,0.416 -0.328,0.396 -0.286,0.35 -0.262,0.306 -0.197,0.241 c -0.175,0.219 -0.306,0.35 -0.306,0.35 -0.109,0.133 0.372,0.614 0.372,0.614 l 1.401,1.38 2.255,2.276 3.065,3.066 3.855,3.853 4.576,4.577 5.255,5.254 5.889,5.891 6.459,6.459 6.986,6.984 7.465,7.467 7.905,7.905 8.298,8.298 8.628,8.628 8.933,8.933 9.153,9.153 9.35,9.35 9.503,9.501 9.612,9.591 9.635,9.656 9.634,9.634 9.591,9.612 9.502,9.481 9.372,9.372 9.152,9.153 8.934,8.933 8.628,8.628 8.276,8.276 7.927,7.927 7.443,7.443 7.008,7.008 6.481,6.481 5.867,5.867 5.256,5.255 4.555,4.555 3.854,3.854 3.109,3.109 2.232,2.233 1.402,1.401 0.481,0.487 z"
   stroke-miterlimit="10"
   inkscape:connector-curvature="0" />
</g></g>
</svg>