<?xml version="1.0" encoding="utf-8"?>
<!-- Generator: Adobe Illustrator 16.0.1, SVG Export Plug-In . SVG Version: 6.00 Build 0)  -->
<!DOCTYPE svg PUBLIC "-//W3C//DTD SVG 1.0//EN" "http://www.w3.org/TR/2001/REC-SVG-20010904/DTD/svg10.dtd">
<svg version="1.0" id="_x31_" xmlns="http://www.w3.org/2000/svg" xmlns:xlink="http://www.w3.org/1999/xlink" x="0px" y="0px"
	 width="612px" height="792px" viewBox="0 0 612 792" enable-background="new 0 0 612 792" xml:space="preserve">
<g id="LWPOLYLINE">
	
		<path fill="none" stroke="#000000" stroke-width="0.7087" stroke-linecap="round" stroke-linejoin="round" stroke-miterlimit="10" d="
		M180.711,362.061l-0.225-2.394l-0.347-2.333l-0.431-2.23l-0.511-2.127l-0.614-2.065l-0.675-1.964l-0.778-1.903l-0.838-1.8
		l-0.921-1.739l-1.002-1.638l-1.064-1.595l-1.104-1.494l-1.188-1.432l-1.247-1.351l-1.289-1.289l-1.33-1.207l-1.391-1.166
		l-1.432-1.084l-1.474-1.022l-1.514-0.941l-1.534-0.899l-1.576-0.84l-1.595-0.777l-1.616-0.736l-1.637-0.655l-1.657-0.612
		l-1.657-0.554l-1.678-0.511l-1.678-0.471l-1.697-0.409l-1.679-0.368l-1.677-0.327l-1.678-0.266l-1.657-0.246l-1.657-0.185
		l-1.616-0.164l-1.616-0.121l-1.576-0.082l-1.554-0.041L128.768,321l-3.825,0.082l-3.662,0.266l-3.539,0.409l-3.376,0.573
		l-3.253,0.716l-3.109,0.859l-2.967,1.003l-2.843,1.125l-2.701,1.268l-2.599,1.371l-2.455,1.493l-2.332,1.597l-2.229,1.719
		l-2.107,1.8l-1.983,1.902l-1.883,1.964l-1.76,2.067l-1.677,2.127l-1.556,2.21l-1.473,2.27l-1.371,2.312l-1.268,2.373l-1.166,2.414
		l-1.105,2.455l-1.002,2.496l-0.921,2.516l-0.818,2.537l-0.778,2.558l-0.675,2.558l-0.614,2.577l-0.53,2.558l-0.472,2.578
		l-0.408,2.537l-0.349,2.537l-0.266,2.494l-0.226,2.477l-0.184,2.434l-0.123,2.395l-0.061,2.332l-0.021,2.312l0.021,2.168
		l0.061,2.209l0.082,2.291l0.143,2.291l0.185,2.373l0.246,2.414l0.286,2.414l0.348,2.455l0.409,2.455l0.45,2.455l0.531,2.496
		l0.614,2.455l0.675,2.455l0.737,2.455l0.818,2.455l0.899,2.414l1.002,2.373l1.064,2.373l1.166,2.291l1.27,2.252l1.35,2.209
		l1.452,2.129l1.555,2.086l1.657,2.004l1.76,1.924l1.883,1.881l1.983,1.762l2.107,1.635l2.229,1.596l2.354,1.434l2.475,1.35
		l2.619,1.229l2.741,1.104l2.886,0.982l3.007,0.859l3.149,0.695l3.315,0.572l3.457,0.41l3.601,0.246l3.744,0.08l1.882-0.039
		l1.903-0.041l1.882-0.123l1.903-0.164l1.882-0.246l1.882-0.246l1.882-0.326l1.862-0.369l1.861-0.41l1.82-0.449l1.821-0.49
		l1.8-0.572l1.78-0.615l1.739-0.654l1.718-0.736l1.698-0.777l1.657-0.818l1.616-0.859l1.596-0.941l1.534-0.98l1.494-1.023
		l1.473-1.064l1.411-1.146l1.352-1.186l1.309-1.268l1.248-1.311l1.207-1.35l1.125-1.432l1.084-1.475l1.003-1.514l0.961-1.596
		l0.859-1.637l0.819-1.678l0.716-1.758l0.653-1.842l0.573-1.842l0.491-1.922l0.409-2.006l0.328-2.045l0.245-2.129
		c-0.164,0-0.368,0-0.368,0h-0.246h-0.327h-0.389h-0.45h-0.491h-0.552h-0.593h-0.636h-0.653h-0.717h-0.736h-0.736h-0.778h-0.797
		h-0.798h-0.819h-0.817h-0.818h-0.818h-0.798h-0.798H165h-0.757h-0.737h-0.695h-0.675h-0.634h-0.595h-0.552h-0.491h-0.449h-0.39
		h-0.327h-0.246c-0.203,0-0.326,0-0.326,0c-0.021,0-0.286,1.146-0.286,1.146l-0.287,1.105l-0.327,1.062l-0.327,1.064l-0.369,1.021
		l-0.388,0.982l-0.43,0.982l-0.431,0.982l-0.47,0.941l-0.491,0.898l-0.532,0.859l-0.531,0.861l-0.573,0.857l-0.613,0.777
		l-0.614,0.779l-0.654,0.775l-0.676,0.738l-0.694,0.695l-0.737,0.654l-0.757,0.654l-0.777,0.613l-0.819,0.574l-0.838,0.572
		l-0.859,0.49l-0.9,0.533l-0.92,0.449l-0.941,0.451l-0.962,0.408l-1.002,0.367l-1.022,0.328l-1.064,0.328l-1.084,0.285l-1.105,0.246
		l-1.146,0.205l-1.166,0.205l-1.187,0.164l-1.228,0.121l-1.248,0.082l-1.269,0.041h-1.309l-2.455-0.041l-2.373-0.162l-2.292-0.246
		l-2.168-0.369l-2.107-0.49l-2.005-0.533l-1.903-0.654l-1.841-0.777l-1.739-0.818l-1.677-0.9l-1.576-1.021l-1.513-1.064L102.009,446
		l-1.351-1.227l-1.288-1.27l-1.207-1.35l-1.146-1.432l-1.084-1.473l-1.003-1.557l-0.94-1.594l-0.881-1.637l-0.817-1.68l-0.757-1.758
		l-0.695-1.76l-0.655-1.842l-0.593-1.842l-0.532-1.881l-0.491-1.924l-0.449-1.963l-0.39-2.006l-0.348-2.006l-0.308-2.004
		l-0.244-2.045l-0.226-2.047l-0.184-2.045l-0.144-2.086l-0.103-2.088l-0.082-2.088l-0.04-2.086l-0.021-2.045l0.021-1.862l0.04-1.862
		l0.062-1.923l0.103-1.943l0.123-1.964l0.184-1.964l0.205-2.005l0.245-2.006l0.286-2.024l0.328-2.005l0.368-2.006l0.43-2.024
		l0.47-1.984l0.532-1.985L90,367.747l0.634-1.923l0.696-1.923l0.757-1.861l0.818-1.842l0.88-1.8l0.94-1.76l1.023-1.697l1.084-1.638
		l1.145-1.596l1.229-1.534l1.309-1.452l1.371-1.391l1.474-1.311l1.555-1.227l1.616-1.146l1.718-1.063l1.8-0.961l1.903-0.881
		l1.984-0.757l2.087-0.653l2.189-0.554l2.271-0.45l2.373-0.307l2.496-0.204l2.578-0.062l2.025,0.041l1.942,0.102l1.843,0.164
		l1.759,0.246l1.677,0.286l1.576,0.348l1.515,0.409l1.432,0.45l1.35,0.512l1.269,0.531l1.207,0.594l1.146,0.613l1.064,0.676
		l1.002,0.675l0.941,0.717l0.88,0.757l0.817,0.757l0.758,0.777l0.695,0.798l0.654,0.817l0.614,0.818l0.552,0.839l0.512,0.818
		l0.471,0.839l0.408,0.819l0.39,0.817l0.348,0.818l0.327,0.798l0.266,0.777l0.267,0.778l0.205,0.735l0.204,0.716l0.164,0.696
		l0.164,0.654l0.121,0.635l0.123,0.572l0.082,0.553l0.103,0.491l0.062,0.45l0.081,0.409H180.711z"/>
</g>
<g id="LWPOLYLINE_1_">
	
		<path fill="none" stroke="#000000" stroke-width="0.7087" stroke-linecap="round" stroke-linejoin="round" stroke-miterlimit="10" d="
		M257.819,467.645V467.4v-0.656V465.6v-1.514v-1.883v-2.25v-2.578v-2.904v-3.15v-3.438v-3.682v-3.889v-4.092v-4.213v-4.379v-4.543
		v-4.582v-4.664v-4.705v-4.746v-4.746v-4.727v-4.664v-4.604v-4.501v-4.378v-4.255v-4.071v-3.887v-3.662v-3.438v-3.191v-2.885v-2.578
		v-2.25v-1.902v-1.514v-1.105v-0.695v-0.226c0.081,0,0.347,0,0.347,0h0.431h0.572h0.736h0.859h1.003h1.104h1.228h1.309h1.412h1.493
		h1.555h1.638h1.677h1.739h1.76h1.8h1.821h1.82h1.821h1.8h1.801h1.759h1.739h1.677h1.638h1.555h1.493h1.412h1.33h1.207h1.125h0.982
		h0.858h0.736h0.573h0.449h0.246c0.082-0.122,0.082-0.286,0.082-0.286v-0.205v-0.266v-0.306v-0.369v-0.388v-0.45v-0.472v-0.511
		v-0.553v-0.552v-0.594v-0.613v-0.635v-0.635v-0.654v-0.654v-0.654v-0.655v-0.655v-0.653v-0.636v-0.634v-0.614v-0.593v-0.552v-0.553
		v-0.512v-0.47v-0.451v-0.388v-0.368v-0.307v-0.267v-0.205c0-0.164,0-0.244,0-0.244c0-0.041-0.205-0.041-0.205-0.041h-0.634h-1.022
		h-1.412h-1.76h-2.087h-2.393h-2.681h-2.945h-3.191h-3.396h-3.601h-3.785h-3.929h-4.07h-4.174h-4.255h-4.337h-4.378h-4.399h-4.398
		h-4.357h-4.338h-4.255h-4.194h-4.05h-3.949h-3.764h-3.601h-3.417h-3.19h-2.946h-2.681h-2.394h-2.086h-1.739h-1.412h-1.023h-0.634
		H189.1c0,0.121,0,0.285,0,0.285v0.205v0.267v0.307v0.368v0.388v0.451v0.47v0.512v0.553v0.552v0.593v0.614v0.634v0.636v0.653v0.655
		v0.655v0.654v0.654v0.654v0.635v0.635v0.613v0.594v0.552v0.553v0.511v0.472v0.45v0.388v0.369v0.306v0.266v0.205
		c0,0.164,0,0.267,0,0.267c0.082,0.02,0.348,0.02,0.348,0.02h0.429h0.595h0.716h0.859h1.002h1.104h1.229h1.309h1.411h1.494h1.575
		h1.616h1.697h1.72h1.78h1.778h1.821h1.821h1.821h1.819h1.78h1.78h1.718h1.678h1.638h1.575h1.492h1.412h1.31h1.228h1.104h0.981
		h0.881h0.716h0.593h0.43h0.245c0.104,0,0.104,0.226,0.104,0.226v0.695v1.105v1.514v1.902v2.25v2.578v2.885v3.191v3.438v3.662v3.887
		v4.071v4.255v4.378v4.501v4.604v4.664v4.727v4.746v4.746v4.705v4.664v4.582v4.543v4.379v4.213v4.092v3.889v3.682v3.438v3.15v2.904
		v2.578v2.25v1.883v1.514v1.145v0.656v0.244H257.819z"/>
</g>
<g id="LWPOLYLINE_2_">
	
		<path fill="none" stroke="#000000" stroke-width="0.7087" stroke-linecap="round" stroke-linejoin="round" stroke-miterlimit="10" d="
		M326.538,467.645c0.123,0,0.327,0,0.327,0h0.246h0.286h0.369h0.408h0.45h0.491h0.573h0.571h0.614h0.655h0.654h0.695h0.736h0.737
		h0.735h0.737h0.777h0.737h0.735h0.737h0.736h0.736h0.695h0.655h0.655h0.612h0.573h0.573h0.491h0.449h0.409h0.368h0.328h0.204
		c0.205,0,0.287,0,0.287,0c0.041-0.121,0.041-0.49,0.041-0.49v-0.572v-0.777v-0.982v-1.145v-1.352v-1.473v-1.637v-1.801v-1.883
		v-2.004v-2.086v-2.211v-2.25v-2.332v-2.373v-2.414v-2.455v-2.455v-2.455v-2.414v-2.414v-2.373v-2.332v-2.252v-2.209v-2.086v-2.006
		v-1.922v-1.76v-1.637v-1.514v-1.311v-1.186v-0.982v-0.777v-0.572v-0.328c0.204-0.123,0.409-0.123,0.409-0.123h0.285h0.409h0.45
		h0.491h0.573h0.654h0.654h0.737h0.776h0.819h0.818h0.899h0.9h0.9h0.94h0.901h0.941h0.981h0.9h0.94h0.9h0.9h0.899h0.818h0.819h0.776
		h0.737h0.654h0.654h0.573h0.491h0.45h0.368h0.326h0.205c0.205,0,1.965,0,1.965,0l1.718,0.041l1.678,0.041l1.556,0.082l1.514,0.123
		l1.472,0.123l1.352,0.164l1.35,0.205l1.269,0.203l1.187,0.246l1.146,0.285l1.104,0.287l1.064,0.369l0.981,0.367l0.941,0.41
		l0.859,0.449l0.858,0.49l0.819,0.492l0.736,0.572l0.695,0.574l0.695,0.654l0.614,0.654l0.614,0.736l0.531,0.736l0.532,0.818
		l0.491,0.818l0.45,0.9l0.45,0.941l0.408,0.982l0.368,1.021l0.327,1.064l0.328,1.104l0.327,1.188l0.287,1.227l0.245,1.27
		l0.246,1.309l0.244,1.393l0.205,1.432l0.204,1.473l0.205,1.555l0.082,0.818l0.04,0.859l0.082,0.9l0.082,0.859l0.082,0.941
		l0.123,0.941l0.082,0.939l0.122,0.982l0.123,0.982l0.123,0.982l0.123,1.023l0.122,0.98l0.123,1.023l0.164,1.064l0.121,1.021
		l0.164,1.064l0.164,1.023l0.163,1.064l0.164,1.062l0.164,1.064l0.163,1.021l0.164,1.064l0.205,1.064l0.204,1.023l0.164,1.023
		l0.204,1.021l0.205,1.023l0.205,1.021l0.203,0.982l0.205,0.982l0.245,0.941l0.205,0.941l0.245,0.941l0.205,0.9l0.245,0.9
		l0.246,0.857l0.245,0.859l0.246,0.82l0.244,0.775l0.246,0.777c0.123,0,0.327,0,0.327,0h0.246h0.327h0.368h0.409h0.49h0.532h0.573
		h0.614h0.614h0.694h0.696h0.736h0.736h0.777h0.777h0.777h0.777h0.778h0.776h0.777h0.778h0.735h0.737h0.695h0.655h0.654h0.613h0.573
		h0.491h0.49h0.45h0.368h0.287h0.286c0.164,0,0.287,0,0.287,0c0.041,0-0.328-1.186-0.328-1.186l-0.368-1.188l-0.368-1.145
		l-0.327-1.146l-0.328-1.146l-0.285-1.145l-0.328-1.146l-0.286-1.104l-0.286-1.105l-0.246-1.104l-0.286-1.105l-0.246-1.104
		l-0.245-1.105l-0.246-1.064l-0.203-1.105l-0.246-1.064l-0.204-1.104l-0.205-1.064l-0.205-1.104l-0.163-1.064l-0.205-1.104
		l-0.163-1.064l-0.205-1.105l-0.164-1.105l-0.163-1.104l-0.164-1.105l-0.123-1.105l-0.162-1.104l-0.164-1.105l-0.123-1.145
		l-0.123-1.146l-0.163-1.145l-0.123-1.146l-0.123-1.186l-0.163-1.188l-0.123-1.186l-0.123-1.188l-0.123-1.227l-0.122-1.229
		l-0.123-1.268l-0.205-1.352l-0.204-1.309l-0.205-1.27l-0.244-1.227l-0.246-1.188l-0.286-1.145l-0.246-1.064l-0.327-1.062
		l-0.286-1.023l-0.328-0.982l-0.368-0.941l-0.367-0.9l-0.368-0.859l-0.41-0.859l-0.409-0.777l-0.45-0.777l-0.45-0.736l-0.49-0.695
		l-0.491-0.654l-0.532-0.654l-0.532-0.615l-0.573-0.572l-0.612-0.572l-0.614-0.531l-0.614-0.533l-0.653-0.49l-0.696-0.451
		l-0.736-0.449l-0.737-0.408l-0.735-0.41l-0.819-0.369l-0.818-0.367l-0.817-0.369l-0.9-0.328l-0.901-0.326l-0.94-0.286l-0.941-0.287
		l-0.981-0.286l-1.023-0.266l-1.062-0.245l0.326-0.144l0.327-0.122l0.328-0.123l0.327-0.123l0.368-0.144l0.368-0.123l0.369-0.143
		l0.367-0.123l0.409-0.143l0.368-0.144l0.409-0.143l0.41-0.164l0.409-0.144l0.408-0.164l0.45-0.164l0.409-0.184l0.45-0.184
		l0.45-0.185l0.449-0.184l0.45-0.205l0.451-0.204l0.45-0.225l0.491-0.226l0.45-0.225l0.49-0.246l0.491-0.245l0.45-0.266l0.491-0.287
		l0.491-0.286l0.49-0.287l0.491-0.306l0.491-0.328l0.491-0.327l0.53-0.349l0.491-0.367l0.491-0.368l0.491-0.39l0.532-0.389
		l0.49-0.429l0.491-0.431l0.45-0.511l0.41-0.512l0.45-0.532l0.409-0.532l0.408-0.532l0.409-0.571l0.368-0.554l0.409-0.572
		l0.369-0.572l0.368-0.594l0.367-0.572l0.328-0.614l0.368-0.614l0.327-0.613l0.327-0.613l0.328-0.635l0.286-0.635l0.287-0.653
		l0.285-0.636l0.286-0.653l0.246-0.675l0.245-0.676l0.246-0.676l0.245-0.675l0.205-0.675l0.204-0.695l0.205-0.696l0.164-0.716
		l0.162-0.695l0.164-0.716l0.123-0.716l0.123-0.716l0.122-0.737l0.082-0.736l0.082-0.736l0.082-0.736l0.041-0.737l0.041-0.735
		l0.041-0.758v-0.757v-0.819l-0.041-0.817l-0.041-0.818l-0.082-0.798l-0.082-0.818l-0.123-0.818l-0.122-0.797l-0.123-0.819
		l-0.164-0.798l-0.203-0.818l-0.164-0.798l-0.246-0.798l-0.245-0.777l-0.246-0.798l-0.286-0.777l-0.286-0.778l-0.328-0.776
		l-0.368-0.777l-0.367-0.757l-0.368-0.757l-0.41-0.757l-0.409-0.737l-0.45-0.736l-0.45-0.737l-0.49-0.716l-0.532-0.716l-0.491-0.716
		l-0.573-0.695l-0.571-0.675l-0.573-0.696l-0.614-0.675l-0.655-0.655l-0.653-0.653l-0.655-0.636l-0.695-0.634l-0.737-0.614
		l-0.735-0.612l-0.737-0.595l-0.818-0.571l-0.777-0.573l-0.818-0.491l-0.859-0.471l-0.858-0.45l-0.86-0.409l-0.859-0.409
		l-0.899-0.368l-0.9-0.348l-0.899-0.327l-0.9-0.307l-0.941-0.308l-0.9-0.266l-0.941-0.266l-0.9-0.226l-0.94-0.225l-0.941-0.205
		l-0.94-0.185l-0.9-0.184l-0.941-0.143l-0.899-0.164l-0.941-0.123l-0.899-0.122l-0.901-0.104l-0.9-0.102l-0.858-0.082l-0.859-0.081
		l-0.9-0.062l-0.818-0.061l-0.859-0.041l-0.818-0.041l-0.777-0.041l-0.777-0.02l-0.777-0.021l-0.736-0.02l-0.736-0.021h-0.696
		l-0.694-0.02h-0.655h-0.614h-0.614h-0.571c-0.123,0-0.409,0-0.409,0h-0.451h-0.613h-0.778h-0.94h-1.064h-1.186h-1.269h-1.433
		h-1.513h-1.597h-1.678h-1.718h-1.801h-1.842h-1.923h-1.882h-1.965h-1.923h-1.964h-1.923h-1.923h-1.883h-1.841h-1.8h-1.76h-1.678
		h-1.596h-1.514h-1.392h-1.309h-1.188h-1.062h-0.942h-0.777h-0.613h-0.45h-0.286C326.538,323.518,326.538,467.645,326.538,467.645z"
		/>
</g>
<g id="LWPOLYLINE_3_">
	
		<path fill="none" stroke="#000000" stroke-width="0.7087" stroke-linecap="round" stroke-linejoin="round" stroke-miterlimit="10" d="
		M346.629,340.272c0.081,0,0.245,0,0.245,0h0.246h0.367h0.491h0.532h0.654h0.695h0.777h0.859h0.9h0.941h0.982h1.062h1.064h1.104
		h1.146h1.145h1.146h1.145h1.188h1.146h1.146h1.104h1.105h1.104h1.023h0.982h0.981h0.9h0.819h0.776h0.737h0.613h0.531h0.491h0.368
		h0.287c0.164,0,0.204,0,0.204,0h0.573h0.654l0.695,0.021h0.696l0.776,0.021l0.778,0.04l0.818,0.041l0.858,0.062l0.9,0.082
		l0.901,0.102l0.899,0.123l0.941,0.143l0.941,0.185l0.94,0.184l0.941,0.246l0.981,0.265l0.941,0.287l0.941,0.349l0.981,0.368
		l0.9,0.43l0.94,0.45l0.9,0.511l0.86,0.552l0.858,0.614l0.859,0.655l0.777,0.716l0.777,0.777l0.736,0.839l0.696,0.88l0.614,0.961
		l0.612,1.023l0.573,1.084l0.491,1.166l0.45,1.228l0.367,1.31l0.328,1.391l0.245,1.473l0.205,1.535l0.082,1.637l0.041,1.719v1.186
		l-0.082,1.125l-0.082,1.125l-0.164,1.064l-0.204,1.044l-0.205,1.002l-0.285,0.982l-0.287,0.94l-0.327,0.9l-0.368,0.88l-0.409,0.839
		l-0.45,0.818l-0.451,0.777l-0.53,0.757l-0.532,0.716l-0.532,0.675l-0.614,0.677l-0.613,0.612l-0.613,0.595l-0.655,0.571
		l-0.696,0.532l-0.735,0.512l-0.696,0.471l-0.777,0.449l-0.776,0.409l-0.778,0.39l-0.818,0.367l-0.818,0.328l-0.818,0.308
		l-0.859,0.286l-0.858,0.244l-0.9,0.227l-0.901,0.184l-0.899,0.163l-0.9,0.145l-0.899,0.122l-0.941,0.082l-0.941,0.061l-0.94,0.041
		l-0.941,0.021c-0.041,0-0.246,0-0.246,0h-0.286h-0.449h-0.532h-0.614h-0.695h-0.818h-0.9h-0.941h-1.022h-1.064h-1.145h-1.188
		h-1.227h-1.229h-1.309h-1.269h-1.31h-1.351h-1.309h-1.309h-1.311h-1.268h-1.269h-1.187h-1.188h-1.145h-1.064h-1.023h-0.981h-0.859
		h-0.817h-0.696h-0.655h-0.531h-0.41h-0.285c-0.205,0-0.286,0-0.286,0V340.272z"/>
</g>
<g id="LWPOLYLINE_4_">
	
		<path fill="none" stroke="#000000" stroke-width="0.7087" stroke-linecap="round" stroke-linejoin="round" stroke-miterlimit="10" d="
		M459.763,467.645c0.163,0,0.654,0,0.654,0h0.736h1.064h1.309h1.515h1.8h2.005h2.168h2.374h2.536h2.66h2.823h2.905h3.028h3.108
		h3.151h3.232h3.231h3.274h3.273h3.231h3.233h3.15h3.109h3.027h2.905h2.824h2.659h2.537h2.373h2.168h2.005h1.801h1.513h1.311h1.062
		h0.778h0.45c0.164-0.121,0.164-0.285,0.164-0.285v-0.205v-0.246v-0.326v-0.369v-0.408v-0.41v-0.49v-0.533v-0.531v-0.572v-0.572
		v-0.615v-0.613v-0.654v-0.654v-0.656v-0.652v-0.656v-0.654v-0.654v-0.654v-0.615v-0.613v-0.572v-0.572v-0.533v-0.531v-0.492v-0.408
		v-0.408v-0.369v-0.328v-0.244v-0.205c0-0.164,0-0.246,0-0.246c-0.123-0.041-0.491-0.041-0.491-0.041h-0.573h-0.817h-0.982h-1.228
		h-1.351h-1.514h-1.718h-1.802h-1.964h-2.045h-2.169h-2.25h-2.292h-2.414h-2.414h-2.495H515.9h-2.496h-2.537h-2.496h-2.455h-2.455
		h-2.373h-2.332h-2.25h-2.128h-2.086h-1.925h-1.841h-1.677h-1.515h-1.391h-1.188h-1.022h-0.777h-0.614h-0.326
		c-0.123,0-0.123-0.246-0.123-0.246v-0.652v-1.146v-1.514v-1.883v-2.25v-2.578v-2.904v-3.152v-3.436v-3.684v-3.887v-4.092v-4.215
		v-4.418v-4.5v-4.584v-4.664v-4.727v-4.746v-4.726v-4.726v-4.665v-4.603v-4.502v-4.377v-4.256v-4.071v-3.887v-3.683v-3.437v-3.171
		v-2.886v-2.577v-2.251v-1.901v-1.515v-1.104v-0.695v-0.225c-0.164,0-0.327,0-0.327,0h-0.246h-0.327h-0.327h-0.409h-0.49h-0.491
		h-0.532h-0.573h-0.655h-0.613h-0.695h-0.696h-0.694h-0.737h-0.736h-0.778h-0.735h-0.777h-0.737h-0.735h-0.737h-0.695h-0.695h-0.696
		H464.1h-0.614h-0.572h-0.532h-0.532h-0.45h-0.409h-0.367h-0.286h-0.246c-0.164,0-0.286,0-0.286,0
		C459.763,323.518,459.763,467.645,459.763,467.645z"/>
</g>
</svg>
