<?xml version="1.0" encoding="utf-8"?>
<!-- Generator: Adobe Illustrator 16.0.1, SVG Export Plug-In . SVG Version: 6.00 Build 0)  -->
<!DOCTYPE svg PUBLIC "-//W3C//DTD SVG 1.0//EN" "http://www.w3.org/TR/2001/REC-SVG-20010904/DTD/svg10.dtd">
<svg version="1.0" id="_x31_" xmlns="http://www.w3.org/2000/svg" xmlns:xlink="http://www.w3.org/1999/xlink" x="0px" y="0px"
	 width="612px" height="792px" viewBox="0 0 612 792" enable-background="new 0 0 612 792" xml:space="preserve">
<g id="LWPOLYLINE">
	
		<path fill="none" stroke="#000000" stroke-width="0.7087" stroke-linecap="round" stroke-linejoin="round" stroke-miterlimit="10" d="
		M114.849,513.762c0.194,0,0.329,0,0.329,0c0.194,0,0.407,0,0.407,0h0.232h0.271h0.31h0.311h0.349h0.368h0.387h0.388h0.427h0.406
		h0.446h0.426h0.445h0.446h0.445h0.445h0.445h0.427h0.426h0.407h0.407h0.387h0.368h0.349h0.311h0.31h0.271h0.232h0.213
		c0.175,0,0.329,0,0.329,0c0.194,0,0.194-0.039,0.194-0.039c0.038-0.116,0.097-0.311,0.097-0.311l0.097-0.271l0.097-0.311
		l0.136-0.388l0.136-0.465l0.175-0.503l0.174-0.582l0.194-0.581l0.213-0.658l0.213-0.659l0.232-0.736l0.232-0.735l0.252-0.775
		l0.252-0.775l0.271-0.813l0.252-0.813l0.271-0.853l0.271-0.813l0.271-0.853l0.252-0.813l0.271-0.813l0.252-0.814l0.271-0.813
		l0.232-0.736l0.252-0.774l0.232-0.697l0.213-0.698l0.214-0.619l0.193-0.62l0.174-0.543l0.155-0.503l0.155-0.466l0.116-0.387
		l0.116-0.349l0.077-0.271c0.078-0.194,0.097-0.311,0.097-0.311c0.078-0.038,0.271-0.038,0.271-0.038h0.291h0.406h0.523h0.601h0.697
		h0.775h0.871h0.911h1.007h1.047h1.085h1.143h1.182h1.221h1.24h1.259h1.279h1.278h1.278h1.279h1.239h1.24h1.221h1.182h1.143h1.104
		h1.046h0.988h0.93h0.853h0.795h0.697h0.601h0.504h0.406h0.311c0.174,0,0.232,0,0.232,0c0.058,0.154,0.116,0.349,0.116,0.349
		l0.077,0.271l0.097,0.349l0.097,0.387l0.136,0.466l0.155,0.503l0.155,0.543l0.174,0.62l0.175,0.619l0.193,0.698l0.213,0.697
		l0.214,0.774l0.213,0.736l0.232,0.813l0.232,0.814l0.232,0.813l0.232,0.813l0.232,0.853l0.252,0.813l0.232,0.853l0.232,0.813
		l0.232,0.813l0.213,0.775l0.232,0.775l0.214,0.735l0.193,0.736l0.193,0.659l0.194,0.658l0.174,0.581l0.155,0.582l0.155,0.503
		l0.116,0.465l0.116,0.388l0.097,0.311l0.077,0.271c0.059,0.194,0.098,0.311,0.098,0.311c0.097,0.039,0.213,0.039,0.213,0.039
		c0.174,0,0.368,0,0.368,0h0.232h0.29h0.311h0.329h0.368h0.388h0.426h0.427h0.445h0.465h0.484h0.504h0.484h0.504h0.503h0.504h0.504
		h0.504h0.484h0.484h0.465h0.465h0.426h0.407h0.407h0.367h0.33h0.31h0.271h0.252h0.193c0.155,0,0.271,0,0.271,0
		c0.058-0.155-0.097-0.659-0.097-0.659l-0.271-0.813l-0.349-1.085l-0.445-1.396l-0.523-1.627l-0.581-1.859l-0.679-2.132
		l-0.735-2.286l-0.795-2.519l-0.853-2.673l-0.91-2.829l-0.949-2.944l-0.969-3.1l-1.026-3.178l-1.047-3.293l-1.065-3.332l-1.085-3.41
		l-1.085-3.41l-1.104-3.448l-1.104-3.448l-1.104-3.448l-1.065-3.41l-1.085-3.332l-1.046-3.293l-1.008-3.178l-0.988-3.1l-0.949-2.944
		l-0.891-2.829l-0.853-2.674l-0.795-2.519l-0.736-2.285l-0.678-2.093l-0.601-1.898l-0.522-1.628l-0.446-1.395l-0.349-1.085
		l-0.252-0.813l-0.154-0.504c-0.175-0.155-0.311-0.155-0.311-0.155c-0.174,0-0.388,0-0.388,0h-0.271h-0.311h-0.349h-0.388h-0.406
		h-0.427h-0.465h-0.484h-0.504h-0.522h-0.543h-0.542h-0.562h-0.562h-0.562h-0.562h-0.562h-0.562h-0.543h-0.542h-0.523h-0.503h-0.484
		h-0.465h-0.446h-0.406h-0.368h-0.349h-0.311h-0.271h-0.232c-0.174,0-0.31,0-0.31,0
		C143.425,421.737,114.849,513.762,114.849,513.762z"/>
</g>
<g id="LWPOLYLINE_1_">
	
		<path fill="none" stroke="#000000" stroke-width="0.7087" stroke-linecap="round" stroke-linejoin="round" stroke-miterlimit="10" d="
		M164.852,481.253c-0.059,0-0.213,0-0.213,0h-0.252h-0.349h-0.427h-0.503h-0.582h-0.658h-0.717h-0.775h-0.833h-0.871h-0.911h-0.969
		h-0.988h-1.007h-1.046h-1.047h-1.065h-1.085h-1.065h-1.065h-1.046h-1.046h-1.008h-0.988h-0.969h-0.91h-0.892h-0.833h-0.774h-0.717
		h-0.64h-0.581h-0.523h-0.426h-0.329h-0.252c-0.155,0-0.214,0-0.214,0c0.02-0.116,0.098-0.349,0.098-0.349l0.135-0.427l0.175-0.581
		l0.213-0.736l0.252-0.853l0.291-1.007l0.329-1.085l0.349-1.24l0.388-1.278l0.426-1.434l0.427-1.473l0.465-1.55l0.484-1.627
		l0.484-1.705l0.522-1.705l0.504-1.743l0.543-1.821l0.522-1.782l0.543-1.821l0.522-1.821l0.543-1.782l0.523-1.782l0.522-1.782
		l0.504-1.705l0.504-1.705l0.465-1.589l0.465-1.588l0.445-1.473l0.407-1.395l0.388-1.317l0.368-1.24l0.329-1.085l0.29-1.008
		l0.252-0.853l0.214-0.735l0.174-0.582l0.116-0.426l0.077-0.232C150.554,432.819,164.852,481.253,164.852,481.253z"/>
</g>
<g id="LWPOLYLINE_2_">
	
		<path fill="none" stroke="#000000" stroke-width="0.7087" stroke-linecap="round" stroke-linejoin="round" stroke-miterlimit="10" d="
		M244.205,513.762c0-0.155,0-0.271,0-0.271c0-0.155,0-0.349,0-0.349v-0.194v-0.232v-0.271v-0.271v-0.311v-0.31v-0.349v-0.349v-0.349
		v-0.349v-0.388v-0.388v-0.388v-0.387v-0.388v-0.388v-0.349v-0.388v-0.388v-0.349v-0.349v-0.31v-0.349v-0.271v-0.271v-0.271v-0.232
		v-0.232c0-0.154,0-0.31,0-0.31c0-0.155,0-0.232,0-0.232c-0.077-0.077-0.252-0.077-0.252-0.077h-0.291h-0.406h-0.484h-0.601h-0.679
		h-0.755h-0.833h-0.911h-0.969h-1.026h-1.065h-1.124h-1.162h-1.182h-1.201h-1.24h-1.239h-1.26h-1.24h-1.239h-1.24h-1.201h-1.182
		h-1.162h-1.124h-1.065h-1.026h-0.969h-0.911h-0.833h-0.756h-0.678h-0.601h-0.504h-0.387h-0.291c-0.175,0-0.252,0-0.252,0
		c0-0.155,0-0.582,0-0.582v-0.736v-0.968v-1.201v-1.473v-1.666v-1.86v-2.054v-2.208v-2.402v-2.479v-2.635v-2.751v-2.829v-2.906
		v-2.983v-3.021v-3.062v-3.061v-3.062v-3.022v-3.021v-2.984v-2.905v-2.829v-2.751v-2.635v-2.479v-2.402v-2.209v-2.053v-1.86v-1.666
		v-1.473v-1.201v-0.969v-0.735v-0.427c-0.174-0.155-0.31-0.155-0.31-0.155c-0.155,0-0.349,0-0.349,0h-0.232h-0.252h-0.291h-0.291
		h-0.329h-0.349h-0.349h-0.368h-0.388h-0.406h-0.388h-0.426h-0.407h-0.407h-0.426h-0.407h-0.406h-0.407h-0.407h-0.387h-0.368h-0.349
		h-0.349h-0.33h-0.29h-0.291h-0.252h-0.213c-0.193,0-0.368,0-0.368,0c-0.136,0-0.232,0-0.232,0
		c-0.077,0.155-0.077,0.659-0.077,0.659v0.813v1.085v1.395v1.628v1.898v2.093v2.285v2.519v2.674v2.829v2.944v3.1v3.178v3.293v3.332
		v3.41v3.448v3.448v3.448v3.41v3.41v3.332v3.293v3.178v3.1v2.944v2.829v2.673v2.519v2.286v2.132v1.859v1.627v1.396v1.085v0.813
		v0.504C199.763,513.762,244.205,513.762,244.205,513.762z"/>
</g>
<g id="LWPOLYLINE_3_">
	
		<path fill="none" stroke="#000000" stroke-width="0.7087" stroke-linecap="round" stroke-linejoin="round" stroke-miterlimit="10" d="
		M243.41,513.762c0.194,0,0.33,0,0.33,0c0.174,0,0.388,0,0.388,0h0.251h0.271h0.291h0.329h0.349h0.349h0.388h0.407h0.406h0.427
		h0.426h0.445h0.446h0.445h0.445h0.445h0.446h0.426h0.427h0.406h0.407h0.368h0.368h0.349h0.329h0.291h0.271h0.252h0.213
		c0.175,0,0.311,0,0.311,0c0.193,0,0.213-0.039,0.213-0.039c0.039-0.116,0.097-0.311,0.097-0.311l0.078-0.271l0.116-0.311
		l0.116-0.388l0.154-0.465l0.155-0.503l0.193-0.582l0.194-0.581l0.193-0.658l0.232-0.659l0.232-0.736l0.232-0.735l0.252-0.775
		l0.252-0.775l0.252-0.813l0.271-0.813l0.271-0.853l0.251-0.813l0.271-0.853l0.271-0.813l0.271-0.813l0.252-0.814l0.251-0.813
		l0.252-0.736l0.232-0.774l0.233-0.697l0.213-0.698l0.213-0.619l0.193-0.62l0.175-0.543l0.174-0.503l0.136-0.466l0.136-0.387
		l0.097-0.349l0.098-0.271c0.058-0.194,0.097-0.311,0.097-0.311c0.077-0.038,0.271-0.038,0.271-0.038h0.291h0.407h0.503h0.62h0.697
		H266h0.853h0.93h0.988h1.046h1.104h1.143h1.183h1.22h1.24h1.26h1.259h1.278h1.279h1.278h1.259h1.24h1.221h1.182h1.124h1.123h1.047
		h0.969h0.93h0.853h0.813h0.658h0.62h0.504h0.426h0.311c0.155,0,0.232,0,0.232,0c0.039,0.154,0.116,0.349,0.116,0.349l0.077,0.271
		l0.078,0.349l0.116,0.387l0.116,0.466l0.154,0.503l0.155,0.543l0.194,0.62l0.154,0.619l0.194,0.698l0.232,0.697l0.193,0.774
		l0.232,0.736l0.232,0.813l0.232,0.814l0.232,0.813l0.232,0.813l0.232,0.853l0.232,0.813l0.233,0.853l0.232,0.813l0.232,0.813
		l0.232,0.775l0.232,0.775l0.193,0.735l0.194,0.736l0.232,0.659l0.154,0.658l0.194,0.581l0.154,0.582l0.155,0.503l0.116,0.465
		l0.116,0.388l0.078,0.311l0.077,0.271c0.077,0.194,0.116,0.311,0.116,0.311c0.077,0.039,0.193,0.039,0.193,0.039
		c0.194,0,0.388,0,0.388,0h0.232h0.271h0.31h0.349h0.349h0.388h0.427h0.426h0.465h0.465h0.465h0.504h0.504h0.504h0.504h0.503h0.504
		h0.504h0.465h0.504h0.465h0.465h0.427h0.426h0.388h0.349h0.349h0.31h0.271h0.232h0.194c0.154,0,0.271,0,0.271,0
		c0.078-0.155-0.116-0.659-0.116-0.659l-0.232-0.813l-0.349-1.085l-0.465-1.396l-0.504-1.627l-0.62-1.859l-0.658-2.132l-0.736-2.286
		l-0.774-2.519l-0.853-2.673l-0.931-2.829l-0.93-2.944l-1.007-3.1l-1.008-3.178l-1.046-3.293l-1.047-3.332l-1.085-3.41l-1.084-3.41
		l-1.124-3.448l-1.085-3.448l-1.124-3.448l-1.085-3.41l-1.046-3.332l-1.046-3.293l-1.008-3.178l-1.007-3.1l-0.931-2.944
		l-0.891-2.829l-0.853-2.674l-0.813-2.519l-0.736-2.285l-0.659-2.093l-0.619-1.898l-0.504-1.628l-0.465-1.395l-0.349-1.085
		l-0.232-0.813l-0.155-0.504c-0.194-0.155-0.311-0.155-0.311-0.155c-0.174,0-0.406,0-0.406,0h-0.271h-0.31h-0.33h-0.387h-0.407
		h-0.445h-0.465h-0.484h-0.504h-0.523h-0.522h-0.562h-0.542h-0.581h-0.562h-0.562h-0.562h-0.562h-0.542h-0.543h-0.503h-0.523h-0.484
		h-0.465h-0.427h-0.406h-0.388h-0.349h-0.291h-0.271h-0.232c-0.175,0-0.311,0-0.311,0
		C271.967,421.737,243.41,513.762,243.41,513.762z"/>
</g>
<g id="LWPOLYLINE_4_">
	
		<path fill="none" stroke="#000000" stroke-width="0.7087" stroke-linecap="round" stroke-linejoin="round" stroke-miterlimit="10" d="
		M293.394,481.253c-0.038,0-0.193,0-0.193,0h-0.271h-0.349h-0.426h-0.504h-0.581h-0.659h-0.697h-0.774h-0.853h-0.853h-0.93h-0.949
		h-0.988h-1.027h-1.026h-1.065h-1.065h-1.065h-1.066h-1.065h-1.065h-1.026h-1.027h-0.987h-0.949h-0.931h-0.871h-0.833h-0.775h-0.717
		h-0.659h-0.581h-0.503h-0.427h-0.349h-0.252c-0.155,0-0.193,0-0.193,0c0.02-0.116,0.097-0.349,0.097-0.349l0.116-0.427l0.174-0.581
		l0.214-0.736l0.252-0.853l0.29-1.007l0.329-1.085l0.368-1.24l0.388-1.278l0.407-1.434l0.445-1.473l0.465-1.55l0.465-1.627
		l0.504-1.705l0.504-1.705l0.522-1.743l0.523-1.821l0.543-1.782l0.522-1.821l0.543-1.821l0.522-1.782l0.543-1.782l0.504-1.782
		l0.522-1.705l0.484-1.705l0.484-1.589l0.465-1.588l0.427-1.473l0.426-1.395l0.388-1.317l0.349-1.24l0.329-1.085l0.291-1.008
		l0.252-0.853l0.213-0.735l0.175-0.582l0.135-0.426l0.078-0.232C279.116,432.819,293.394,481.253,293.394,481.253z"/>
</g>
<g id="LWPOLYLINE_5_">
	
		<path fill="none" stroke="#000000" stroke-width="0.7087" stroke-linecap="round" stroke-linejoin="round" stroke-miterlimit="10" d="
		M339.425,432.044c0.116,0,0.271,0,0.271,0h0.232h0.232h0.311h0.349h0.426h0.427h0.465h0.504h0.542h0.581h0.581h0.581h0.659h0.62
		h0.658h0.62h0.659h0.658h0.659h0.658h0.62h0.62h0.62h0.581h0.542h0.543h0.503h0.466h0.465h0.387h0.35h0.31h0.271h0.193
		c0.155,0,0.271,0,0.271,0h0.658l0.62,0.039l0.62,0.077l0.581,0.078l0.543,0.116l0.542,0.154l0.543,0.155l0.503,0.155l0.465,0.232
		l0.504,0.193l0.427,0.271l0.426,0.232l0.427,0.271l0.387,0.31l0.388,0.311l0.349,0.31l0.349,0.349l0.311,0.349l0.31,0.388
		l0.311,0.388l0.271,0.388l0.232,0.387l0.271,0.427l0.193,0.426l0.233,0.427l0.193,0.426l0.193,0.465l0.155,0.465l0.155,0.465
		l0.116,0.466l0.154,0.465l0.078,0.465l0.116,0.465l0.077,0.504l0.078,0.465l0.038,0.504l0.039,0.465l0.039,0.465l0.038,0.504v0.465
		v0.658l-0.038,0.659l-0.039,0.62l-0.039,0.62l-0.077,0.619l-0.077,0.62l-0.116,0.62l-0.117,0.581l-0.116,0.581l-0.154,0.581
		l-0.155,0.582l-0.155,0.542l-0.193,0.543l-0.193,0.503l-0.233,0.543l-0.193,0.504l-0.271,0.465l-0.271,0.465l-0.271,0.465
		l-0.271,0.426l-0.31,0.427l-0.311,0.426l-0.349,0.388l-0.349,0.349l-0.349,0.388l-0.388,0.31l-0.387,0.311l-0.427,0.31
		l-0.426,0.271l-0.427,0.232l-0.465,0.232l-0.465,0.232l-0.465,0.193l-0.504,0.155l-0.542,0.116l-0.504,0.116l-0.543,0.116
		l-0.581,0.039l-0.542,0.039l-0.62,0.038c-0.116,0-0.271,0-0.271,0h-0.193h-0.271h-0.31h-0.35h-0.387h-0.465h-0.466h-0.503h-0.543
		h-0.542h-0.581h-0.62h-0.62h-0.62h-0.658h-0.659h-0.658h-0.659h-0.62h-0.658h-0.62h-0.659h-0.581h-0.581h-0.581h-0.542h-0.504
		h-0.465h-0.427h-0.426h-0.349h-0.311h-0.232h-0.232c-0.155,0-0.232,0-0.232,0C339.425,461.414,339.425,432.044,339.425,432.044z"/>
</g>
<g id="LWPOLYLINE_6_">
	
		<path fill="none" stroke="#000000" stroke-width="0.7087" stroke-linecap="round" stroke-linejoin="round" stroke-miterlimit="10" d="
		M328.305,513.762c0.194,0,0.311,0,0.311,0c0.193,0,0.387,0,0.387,0h0.194h0.271h0.271h0.311h0.31h0.349h0.349h0.388h0.388h0.387
		h0.427h0.388h0.426h0.427h0.387h0.427h0.426h0.388h0.388h0.388h0.387h0.349h0.349h0.311h0.31h0.271h0.271h0.193
		c0.232,0,0.388,0,0.388,0c0.116,0,0.232,0,0.232,0c0.077-0.078,0.077-0.271,0.077-0.271v-0.388v-0.504v-0.62v-0.774v-0.853v-0.93
		v-1.085v-1.124v-1.24v-1.278v-1.356v-1.395v-1.473v-1.511v-1.511v-1.55v-1.589v-1.55v-1.589v-1.55v-1.589v-1.511v-1.512v-1.434
		v-1.434v-1.355v-1.279v-1.201v-1.162V476.1v-0.969v-0.853v-0.736v-0.658v-0.504v-0.349v-0.232c0.078-0.078,0.232-0.078,0.232-0.078
		c0.155,0,0.349,0,0.349,0h0.233h0.271h0.311h0.349h0.349h0.388h0.426h0.427h0.465h0.465h0.465h0.504h0.503h0.504h0.504h0.504h0.504
		h0.503h0.504h0.465h0.466h0.465h0.426h0.427h0.387h0.349h0.349h0.311h0.271h0.232h0.193c0.155,0,0.31,0,0.31,0
		c0.078,0,0.388,0,0.388,0h0.311h0.349h0.349l0.388,0.039h0.349h0.387l0.427,0.039l0.388,0.038l0.426,0.039l0.427,0.077l0.426,0.078
		l0.426,0.077l0.427,0.077l0.426,0.116l0.427,0.116l0.426,0.155l0.427,0.155l0.426,0.193l0.427,0.194l0.426,0.193l0.388,0.271
		l0.388,0.232l0.387,0.31l0.388,0.311l0.388,0.349l0.349,0.349l0.31,0.388l0.349,0.426l0.311,0.465l0.271,0.465l0.271,0.543
		l0.232,0.542l0.232,0.581l0.232,0.62l0.155,0.659l0.155,0.697l0.155,0.736l0.077,0.774l0.077,0.814l0.078,0.891l0.038,0.892
		l0.039,0.891l0.039,0.892l0.038,0.891l0.039,0.892l0.039,0.853l0.038,0.891v0.892l0.039,0.853l0.039,0.891v0.853l0.038,0.853
		l0.039,0.853l0.039,0.853v0.813l0.038,0.853l0.039,0.813l0.039,0.813l0.038,0.814l0.039,0.813l0.078,0.774l0.038,0.775l0.078,0.774
		l0.077,0.775l0.077,0.736l0.078,0.736l0.077,0.736l0.116,0.697l0.116,0.697l0.116,0.697l0.116,0.659l0.155,0.658l0.155,0.659
		l0.154,0.619l0.155,0.62l0.193,0.581l0.232,0.582l0.194,0.542l0.232,0.543c0.116,0,0.193,0,0.193,0c0.155,0,0.349,0,0.349,0h0.232
		h0.271h0.271h0.31h0.349h0.388h0.388h0.426h0.388h0.465h0.465h0.427h0.504h0.465h0.465h0.465h0.465h0.504h0.426h0.465h0.466h0.387
		h0.427h0.387h0.388h0.349h0.311h0.271h0.271h0.232c0.194,0,0.349,0,0.349,0c0.155,0,0.194,0,0.194,0l-0.194-0.466l-0.154-0.542
		l-0.155-0.543l-0.155-0.542l-0.154-0.62l-0.155-0.62l-0.155-0.62l-0.116-0.658l-0.155-0.659l-0.116-0.697l-0.116-0.658
		l-0.116-0.736l-0.116-0.697l-0.077-0.736l-0.116-0.736l-0.116-0.697l-0.077-0.736l-0.078-0.736l-0.077-0.736l-0.078-0.736
		l-0.077-0.735l-0.077-0.698l-0.039-0.735l-0.077-0.698l-0.039-0.697l-0.077-0.658l-0.039-0.659l-0.039-0.658l-0.038-0.62
		l-0.039-0.62l-0.039-0.581v-0.581l-0.038-0.543l-0.039-0.504v-0.503v-0.427l-0.039-0.426v-0.388v-0.349v-0.311l-0.077-1.355
		l-0.077-1.279l-0.078-1.239l-0.116-1.162l-0.116-1.163l-0.116-1.046l-0.155-1.046l-0.154-0.969l-0.155-0.969l-0.193-0.892
		l-0.194-0.813l-0.232-0.813l-0.232-0.775l-0.232-0.736l-0.271-0.697l-0.271-0.658L376.118,473l-0.31-0.62l-0.349-0.543
		l-0.311-0.503l-0.388-0.504l-0.387-0.465l-0.388-0.427l-0.426-0.426l-0.427-0.388l-0.465-0.349l-0.504-0.349l-0.504-0.311
		l-0.503-0.31l-0.543-0.271l-0.542-0.271l-0.582-0.271l-0.619-0.232l-0.62-0.232l-0.659-0.194l-0.658-0.193l-0.697-0.232
		l-0.698-0.155l-0.774-0.193l-0.736-0.194l0.775-0.116l0.735-0.154l0.736-0.194l0.736-0.232l0.697-0.232l0.698-0.232l0.658-0.31
		l0.659-0.271l0.619-0.349l0.62-0.349l0.62-0.388l0.581-0.388l0.581-0.388l0.543-0.465l0.542-0.426l0.504-0.465l0.504-0.504
		l0.465-0.504l0.465-0.542l0.465-0.543l0.427-0.542l0.387-0.581l0.388-0.582l0.349-0.619l0.349-0.62l0.311-0.62l0.31-0.659
		l0.271-0.658l0.271-0.659l0.232-0.697l0.232-0.697l0.193-0.697l0.155-0.697l0.155-0.736l0.116-0.736l0.116-0.736l0.077-0.736
		l0.077-0.774l0.039-0.736v-0.775v-0.891l-0.039-0.892l-0.077-0.891l-0.077-0.892l-0.078-0.853l-0.116-0.853l-0.154-0.853
		l-0.155-0.852l-0.194-0.853l-0.232-0.814l-0.232-0.813l-0.271-0.774l-0.311-0.775l-0.31-0.774l-0.349-0.736l-0.388-0.736
		l-0.388-0.736l-0.426-0.658l-0.465-0.698l-0.504-0.658l-0.504-0.62l-0.581-0.581l-0.581-0.581l-0.581-0.581l-0.659-0.504
		l-0.697-0.504l-0.697-0.504l-0.736-0.426l-0.775-0.427l-0.813-0.387l-0.853-0.35l-0.853-0.31l-0.93-0.271l-0.93-0.271l-1.008-0.194
		l-1.007-0.193l-1.047-0.155l-1.123-0.077l-1.124-0.078h-1.162c-0.078,0-0.232,0-0.232,0h-0.271h-0.349h-0.465h-0.581h-0.62h-0.697
		h-0.775h-0.853h-0.891h-0.969h-0.969h-1.046h-1.085h-1.085h-1.124h-1.162h-1.163h-1.123h-1.162h-1.163h-1.162h-1.124h-1.085h-1.085
		h-1.046h-0.969h-0.969h-0.891h-0.853h-0.775h-0.697h-0.62h-0.542h-0.465h-0.388h-0.271c-0.155,0-0.232,0-0.232,0V513.762z"/>
</g>
<g id="LWPOLYLINE_7_">
	
		<path fill="none" stroke="#000000" stroke-width="0.7087" stroke-linecap="round" stroke-linejoin="round" stroke-miterlimit="10" d="
		M406.883,432.044c0.039,0.155,0.155,0.582,0.155,0.582l0.232,0.735l0.271,0.969l0.388,1.24l0.426,1.434l0.504,1.666l0.581,1.86
		l0.62,2.053l0.658,2.248l0.698,2.363l0.774,2.519l0.775,2.635l0.853,2.712l0.852,2.829l0.853,2.905l0.892,2.984l0.93,3.021
		l0.892,3.062l0.93,3.061l0.93,3.062l0.93,3.022l0.892,3.021l0.892,2.983l0.891,2.906l0.853,2.829l0.813,2.751l0.775,2.635
		l0.774,2.519l0.697,2.363l0.698,2.208l0.619,2.054l0.543,1.86l0.504,1.666l0.426,1.473l0.388,1.201l0.271,1.007l0.232,0.697
		l0.116,0.427c0.155,0.155,0.232,0.155,0.232,0.155c0.155,0,0.31,0,0.31,0h0.194h0.232h0.232h0.31h0.271h0.349h0.349h0.349h0.349
		h0.388h0.427h0.387h0.427h0.387h0.427h0.426h0.388h0.427h0.387h0.427h0.388h0.349h0.349h0.349h0.349h0.271h0.271h0.271h0.232
		c0.194,0,0.349,0,0.349,0c0.155,0,0.232,0,0.232,0c0.155-0.155,0.271-0.582,0.271-0.582l0.193-0.697l0.311-1.007l0.388-1.201
		l0.426-1.473l0.504-1.666l0.542-1.86l0.62-2.054l0.697-2.208l0.698-2.363l0.735-2.519l0.814-2.635l0.813-2.751l0.853-2.829
		l0.891-2.906l0.892-2.983l0.891-3.021l0.931-3.022l0.93-3.062l0.93-3.061l0.892-3.062l0.93-3.021l0.891-2.984l0.853-2.905
		l0.853-2.829l0.853-2.712l0.775-2.635l0.774-2.519l0.697-2.363l0.659-2.248l0.62-2.053l0.581-1.86l0.504-1.666l0.426-1.434
		l0.349-1.24l0.311-0.969l0.232-0.735l0.116-0.427c0.038,0,0.038,0.427,0.038,0.427v0.735v0.969v1.24v1.434v1.666v1.86v2.053v2.248
		v2.363v2.519v2.635v2.712v2.829v2.905v2.984v3.021v3.062v3.061v3.062v3.022v3.021v2.983v2.906v2.829v2.751v2.635v2.519v2.363v2.208
		v2.054v1.86v1.666v1.473v1.201v1.007v0.697v0.427c0.194,0.155,0.311,0.155,0.311,0.155c0.193,0,0.388,0,0.388,0h0.193h0.271h0.271
		h0.311h0.31h0.349h0.349h0.388h0.388h0.388h0.426h0.388h0.426h0.427h0.388h0.426h0.426h0.388h0.388h0.388h0.388h0.349h0.349h0.31
		h0.311h0.271h0.271h0.193c0.232,0,0.388,0,0.388,0c0.116,0,0.232,0,0.232,0c0.078-0.155,0.078-0.659,0.078-0.659v-0.813v-1.085
		v-1.396v-1.627v-1.859v-2.132v-2.286v-2.519v-2.673v-2.829v-2.944v-3.1v-3.178v-3.293v-3.332v-3.41v-3.41v-3.448v-3.448v-3.448
		v-3.41v-3.332v-3.293v-3.178v-3.1v-2.944v-2.829v-2.674v-2.519v-2.285v-2.093v-1.898v-1.628v-1.395v-1.085v-0.813v-0.504
		c-0.155-0.155-0.311-0.155-0.311-0.155h-0.232h-0.271h-0.349h-0.387h-0.427h-0.504h-0.504h-0.542h-0.581h-0.62h-0.658h-0.659
		h-0.658h-0.698h-0.697h-0.697h-0.736h-0.697h-0.736h-0.697h-0.697h-0.659h-0.658h-0.659h-0.581h-0.62h-0.542h-0.504h-0.465h-0.465
		h-0.388h-0.31h-0.311h-0.232c-0.155,0-0.271,0-0.271,0c-0.077,0.116-0.193,0.543-0.193,0.543l-0.193,0.697l-0.271,0.892
		l-0.311,1.162l-0.387,1.356l-0.465,1.588l-0.504,1.744l-0.581,1.938l-0.582,2.092l-0.658,2.247l-0.659,2.364l-0.735,2.479
		l-0.736,2.558l-0.775,2.673l-0.774,2.751l-0.814,2.79l-0.813,2.867l-0.853,2.867l-0.813,2.867l-0.853,2.867l-0.813,2.867
		l-0.813,2.868l-0.813,2.789l-0.814,2.751l-0.735,2.674l-0.775,2.558l-0.697,2.479l-0.697,2.363l-0.62,2.247l-0.62,2.093
		l-0.542,1.938l-0.504,1.743l-0.465,1.589l-0.388,1.356l-0.349,1.162l-0.271,0.892l-0.193,0.697l-0.116,0.426
		c-0.078,0-0.194-0.426-0.194-0.426l-0.193-0.697l-0.271-0.892l-0.349-1.162l-0.388-1.356l-0.465-1.589l-0.504-1.743l-0.542-1.938
		l-0.62-2.093l-0.62-2.247l-0.697-2.363l-0.697-2.479l-0.775-2.558l-0.736-2.674l-0.813-2.751l-0.813-2.789l-0.813-2.868
		l-0.813-2.867l-0.853-2.867l-0.813-2.867l-0.853-2.867l-0.814-2.867l-0.813-2.79l-0.774-2.751l-0.775-2.673l-0.736-2.558
		l-0.736-2.479l-0.658-2.364l-0.659-2.247l-0.581-2.092l-0.581-1.938l-0.504-1.744l-0.465-1.588l-0.388-1.356l-0.31-1.162
		l-0.271-0.892l-0.193-0.697l-0.116-0.427c-0.194-0.116-0.349-0.116-0.349-0.116h-0.232h-0.271h-0.31h-0.388h-0.388h-0.465h-0.504
		h-0.542h-0.543h-0.581h-0.62h-0.658h-0.62h-0.659h-0.697h-0.658h-0.698h-0.697h-0.658h-0.697h-0.659h-0.62h-0.658h-0.62h-0.581
		h-0.543h-0.542h-0.504h-0.465h-0.388h-0.388h-0.31h-0.271h-0.232c-0.155,0-0.271,0-0.271,0c-0.038,0.155-0.038,0.659-0.038,0.659
		v0.813v1.085v1.395v1.628v1.898v2.093v2.285v2.519v2.674v2.829v2.944v3.1v3.178v3.293v3.332v3.41v3.448v3.448v3.448v3.41v3.41
		v3.332v3.293v3.178v3.1v2.944v2.829v2.673v2.519v2.286v2.132v1.859v1.627v1.396v1.085v0.813v0.504
		c0.193,0.155,0.31,0.155,0.31,0.155c0.155,0,0.349,0,0.349,0h0.194h0.232h0.271h0.271h0.311h0.31h0.349h0.349h0.349h0.349h0.388
		h0.388h0.388h0.387h0.388h0.388h0.349h0.388h0.349h0.388h0.349h0.31h0.311h0.31h0.271h0.271h0.232h0.232c0.154,0,0.31,0,0.31,0
		c0.116,0,0.232,0,0.232,0C406.883,513.762,406.883,432.044,406.883,432.044z"/>
</g>
<g id="LWPOLYLINE_8_">
	
		<path fill="none" stroke="#000000" stroke-width="0.7087" stroke-linecap="round" stroke-linejoin="round" stroke-miterlimit="10" d="
		M159.291,577.268l0.098-1.356l0.077-1.317l0.039-1.278v-1.24l-0.039-1.201l-0.059-1.201l-0.097-1.124l-0.136-1.085l-0.154-1.085
		l-0.194-1.046l-0.232-0.969l-0.271-0.969l-0.31-0.93l-0.329-0.891l-0.368-0.892l-0.407-0.813l-0.445-0.775l-0.484-0.774
		l-0.504-0.697l-0.542-0.698l-0.581-0.658l-0.62-0.62l-0.659-0.581l-0.697-0.543l-0.717-0.503l-0.774-0.504l-0.795-0.427
		l-0.833-0.426l-0.891-0.388l-0.911-0.349l-0.949-0.31l-0.969-0.271l-1.026-0.271l-1.065-0.193l-1.104-0.194l-1.144-0.154
		l-1.162-0.116l-1.221-0.078l-1.239-0.038l-1.299-0.039l-1.355,0.039l-1.317,0.038l-1.317,0.078l-1.26,0.077l-1.259,0.155
		l-1.201,0.154l-1.201,0.194l-1.144,0.232l-1.143,0.271l-1.085,0.31l-1.065,0.31l-1.046,0.388l-1.008,0.427l-0.969,0.426
		l-0.93,0.504l-0.911,0.542l-0.891,0.582l-0.833,0.658l-0.813,0.659l-0.775,0.735l-0.736,0.736l-0.717,0.813l-0.658,0.892
		l-0.64,0.892l-0.601,0.968l-0.581,1.047l-0.523,1.085l-0.484,1.123l-0.465,1.163l-0.406,1.239l-0.388,1.317l-0.329,1.356
		l-0.311,1.434l-0.252,1.473l-0.232,1.55l-0.174,1.589l-0.155,1.704l-0.097,1.705l-0.059,1.821l-0.02,1.859c0,0.194,0,0.427,0,0.427
		v0.31v0.388v0.465v0.543v0.581v0.658v0.736v0.736v0.813v0.853v0.892v0.891v0.93v0.969v0.969v0.969v0.969v0.969v1.008v0.969v0.93
		v0.93v0.93v0.853v0.853v0.813v0.736v0.736v0.658v0.582v0.542v0.465v0.388v0.31v0.232c0,0.194,0.02,2.79,0.02,2.79l0.097,2.519
		l0.155,2.363l0.213,2.209l0.271,2.131l0.329,2.015l0.388,1.899l0.426,1.782l0.466,1.666l0.522,1.589l0.562,1.472l0.619,1.396
		l0.64,1.278l0.678,1.201l0.717,1.124l0.736,1.046l0.795,0.93l0.794,0.892l0.833,0.813l0.853,0.736l0.872,0.658l0.891,0.581
		l0.911,0.543l0.91,0.504l0.949,0.426l0.93,0.388l0.949,0.31l0.969,0.311l0.949,0.232l0.969,0.193l0.949,0.193l0.969,0.155
		l0.949,0.078l0.931,0.116l0.93,0.038l0.91,0.078h0.911l0.891,0.038h0.872h0.833h0.504h0.542h0.601l0.64-0.038h0.658l0.718-0.039
		l0.735-0.077l0.756-0.078l0.794-0.116l0.814-0.116l0.833-0.155l0.833-0.154l0.871-0.232l0.872-0.232l0.872-0.311l0.872-0.31
		l0.871-0.388l0.872-0.426l0.872-0.466l0.853-0.542l0.833-0.581l0.833-0.62l0.794-0.697l0.795-0.775l0.755-0.813l0.717-0.891
		l0.697-0.969l0.659-1.047l0.62-1.123l0.562-1.201l0.543-1.279l0.484-1.355l0.426-1.434l0.368-1.55l0.329-1.667l0.252-1.704
		l0.193-1.86l0.116-1.938l0.059-2.015l-0.02-2.17c-0.193,0-0.329,0-0.329,0c-0.194,0-0.407,0-0.407,0h-0.232h-0.271h-0.31h-0.31
		h-0.349h-0.368h-0.388h-0.388h-0.426h-0.407h-0.445h-0.427h-0.445h-0.445h-0.446h-0.445h-0.445h-0.427h-0.426h-0.407h-0.406h-0.388
		h-0.368h-0.349h-0.31h-0.311h-0.271h-0.232h-0.213c-0.174,0-0.329,0-0.329,0c-0.193,0-0.213,1.356-0.213,1.356l-0.039,1.278
		l-0.097,1.201l-0.136,1.163l-0.155,1.123l-0.193,1.047l-0.213,0.968l-0.252,0.931l-0.271,0.891l-0.291,0.853l-0.329,0.775
		l-0.329,0.774l-0.368,0.697l-0.368,0.659l-0.407,0.581l-0.406,0.581l-0.427,0.543l-0.445,0.465l-0.445,0.465l-0.445,0.426
		l-0.466,0.388l-0.483,0.349l-0.466,0.311l-0.484,0.31l-0.484,0.271l-0.465,0.232l-0.484,0.193l-0.465,0.194l-0.465,0.154
		l-0.465,0.155l-0.465,0.116l-0.427,0.077l-0.445,0.078l-0.406,0.077l-0.407,0.077l-0.388,0.039h-0.388l-0.349,0.039h-0.329h-0.31
		h-0.64h-0.658l-0.64-0.039l-0.62-0.077l-0.62-0.039l-0.62-0.116l-0.601-0.077l-0.601-0.155l-0.581-0.155l-0.581-0.154l-0.562-0.232
		l-0.562-0.233l-0.522-0.271l-0.543-0.271l-0.503-0.349l-0.504-0.349l-0.484-0.427l-0.465-0.426l-0.465-0.465l-0.427-0.504
		l-0.426-0.581l-0.407-0.581l-0.388-0.659l-0.368-0.697l-0.368-0.736l-0.329-0.774l-0.31-0.853l-0.291-0.892l-0.271-0.93
		l-0.251-1.008l-0.232-1.046l-0.214-1.124l-0.193-1.162l-0.155-1.24l-0.136-1.278l-0.116-1.356l-0.097-1.434l-0.058-1.511
		l-0.039-1.55l-0.02-1.627c0-0.194,0-0.388,0-0.388v-0.311v-0.349v-0.465v-0.504v-0.542v-0.62v-0.658v-0.736v-0.736v-0.813v-0.814
		v-0.852v-0.892v-0.892v-0.891v-0.93v-0.892v-0.93v-0.93v-0.892v-0.892v-0.891v-0.853v-0.813v-0.813v-0.736v-0.736v-0.659v-0.619
		V588v-0.504v-0.465v-0.349v-0.31v-0.194c0-0.193,0-1.355,0-1.355l0.02-1.124l0.02-1.046l0.02-1.047l0.038-0.969l0.039-0.93
		l0.058-0.891l0.059-0.814l0.058-0.813l0.059-0.774l0.077-0.697l0.078-0.698l0.058-0.658l0.097-0.581l0.078-0.581l0.077-0.543
		l0.097-0.504l0.078-0.465l0.097-0.465l0.077-0.426l0.097-0.388l0.098-0.349l0.077-0.349l0.097-0.311l0.078-0.271l0.077-0.271
		l0.077-0.232l0.078-0.232l0.077-0.194c0.077-0.193,0.136-0.349,0.136-0.349c0.058-0.155,0.116-0.271,0.116-0.271
		c0.038-0.116,0.097-0.232,0.097-0.232c0.059-0.193,0.077-0.271,0.077-0.271c0.02-0.116,0.078-0.271,0.078-0.271
		c0.077-0.116,0.174-0.271,0.174-0.271c0.097-0.193,0.213-0.349,0.213-0.349c0.136-0.193,0.271-0.388,0.271-0.388l0.155-0.193
		l0.174-0.232l0.175-0.232l0.193-0.194l0.214-0.232l0.232-0.232l0.232-0.271l0.271-0.233l0.271-0.232l0.271-0.232l0.31-0.271
		l0.311-0.232l0.349-0.232l0.349-0.233l0.368-0.232l0.368-0.232l0.406-0.232l0.427-0.193l0.426-0.232l0.446-0.194l0.484-0.193
		l0.484-0.155l0.503-0.193l0.543-0.155l0.542-0.154l0.562-0.116l0.581-0.116l0.601-0.117l0.62-0.077l0.639-0.039l0.679-0.077
		l0.678-0.039h0.697c0.136,0,0.271,0,0.271,0c0.155,0.039,0.329,0.039,0.329,0.039c0.175,0,0.368,0.039,0.368,0.039h0.193
		l0.214,0.038l0.213,0.039l0.232,0.039l0.252,0.038l0.232,0.039l0.252,0.039l0.271,0.077l0.252,0.039l0.271,0.077l0.271,0.039
		l0.29,0.077l0.271,0.078l0.291,0.116l0.271,0.077l0.291,0.116l0.291,0.077l0.271,0.116l0.291,0.116l0.271,0.116l0.29,0.155
		l0.271,0.116l0.271,0.155l0.271,0.155l0.252,0.154l0.252,0.194l0.252,0.154l0.252,0.194l0.232,0.193l0.213,0.194l0.214,0.193
		l0.213,0.232l0.193,0.232l0.194,0.232l0.174,0.232l0.155,0.232l0.174,0.271l0.155,0.232l0.155,0.271l0.154,0.271l0.136,0.271
		l0.136,0.311l0.136,0.271l0.116,0.271l0.116,0.311l0.116,0.31l0.116,0.31l0.097,0.311l0.098,0.31l0.097,0.311l0.097,0.349
		l0.077,0.31l0.097,0.349l0.078,0.349l0.058,0.349l0.078,0.349l0.058,0.35l0.059,0.349l0.058,0.349l0.059,0.388l0.038,0.349
		l0.039,0.387l0.039,0.388l0.038,0.349l0.039,0.388l0.02,0.388l0.02,0.426l0.039,0.388v0.388l0.019,0.388l0.02,0.426v0.388v0.426
		v0.427H159.291z"/>
</g>
<g id="LWPOLYLINE_9_">
	
		<path fill="none" stroke="#000000" stroke-width="0.7087" stroke-linecap="round" stroke-linejoin="round" stroke-miterlimit="10" d="
		M167.234,643.912c0.175,0,0.329,0,0.329,0c0.175,0,0.388,0,0.388,0h0.232h0.271h0.31h0.33h0.329h0.368h0.388h0.406h0.407h0.426
		h0.427h0.445h0.445h0.445h0.446h0.445h0.426h0.446h0.426h0.407h0.388h0.387h0.368h0.349h0.33h0.29h0.271h0.252h0.213
		c0.175,0,0.31,0,0.31,0c0.194,0,0.214-0.039,0.214-0.039c0.038-0.116,0.097-0.311,0.097-0.311l0.077-0.271l0.116-0.349l0.116-0.388
		l0.155-0.427l0.155-0.542l0.193-0.543l0.193-0.581l0.194-0.658l0.232-0.697l0.213-0.698l0.252-0.735l0.252-0.775l0.252-0.813
		l0.252-0.813l0.271-0.814l0.252-0.813l0.271-0.853l0.271-0.813l0.271-0.813l0.251-0.853l0.271-0.775l0.252-0.813l0.252-0.774
		l0.232-0.736l0.232-0.697l0.213-0.698l0.214-0.658l0.193-0.581l0.175-0.581l0.174-0.504l0.136-0.465l0.136-0.388l0.097-0.31
		l0.097-0.271c0.059-0.194,0.097-0.311,0.097-0.311c0.078-0.038,0.252-0.038,0.252-0.038h0.311h0.406h0.504h0.62h0.697h0.775h0.853
		h0.93h0.988h1.046h1.104h1.143h1.182h1.201h1.26h1.259h1.26h1.278h1.278h1.279h1.259h1.24h1.221h1.182h1.143h1.085h1.065h0.988
		h0.91h0.872h0.775h0.697h0.601h0.504h0.426h0.291c0.193,0,0.252,0,0.252,0c0.038,0.154,0.097,0.349,0.097,0.349l0.077,0.271
		l0.097,0.31l0.116,0.388l0.116,0.465l0.155,0.504l0.155,0.581l0.174,0.581l0.194,0.658l0.193,0.698l0.193,0.697l0.214,0.736
		l0.232,0.774l0.213,0.813l0.232,0.775l0.232,0.853l0.232,0.813l0.252,0.813l0.232,0.853l0.232,0.813l0.232,0.814l0.232,0.813
		l0.232,0.813l0.214,0.775l0.213,0.735l0.213,0.698l0.193,0.697l0.175,0.658l0.174,0.581l0.155,0.543l0.155,0.542l0.136,0.427
		l0.097,0.388l0.097,0.349l0.077,0.271c0.059,0.194,0.098,0.311,0.098,0.311c0.116,0.039,0.232,0.039,0.232,0.039
		c0.154,0,0.349,0,0.349,0h0.252h0.271h0.311h0.329h0.368h0.407h0.406h0.427h0.465h0.465h0.484h0.484h0.504h0.503h0.504h0.504h0.504
		h0.484h0.504h0.484h0.465h0.445h0.426h0.427h0.388h0.368h0.329h0.31h0.291h0.232h0.193c0.175,0,0.291,0,0.291,0
		c0.038-0.155-0.116-0.659-0.116-0.659l-0.252-0.813l-0.368-1.085l-0.426-1.396l-0.523-1.627l-0.601-1.898l-0.678-2.093
		l-0.736-2.324l-0.795-2.48l-0.853-2.673l-0.91-2.829l-0.93-2.983l-0.988-3.061l-1.026-3.216l-1.047-3.255l-1.065-3.332l-1.085-3.41
		l-1.085-3.448l-1.104-3.448l-1.104-3.449l-1.085-3.409l-1.085-3.41l-1.065-3.332l-1.047-3.293l-1.026-3.178l-0.988-3.1l-0.93-2.944
		l-0.91-2.829l-0.853-2.674l-0.795-2.519l-0.735-2.324l-0.679-2.093l-0.601-1.859l-0.522-1.628l-0.427-1.395l-0.349-1.085
		l-0.271-0.813l-0.154-0.504c-0.155-0.193-0.291-0.193-0.291-0.193c-0.193,0-0.407,0-0.407,0h-0.271h-0.311h-0.349h-0.368h-0.406
		h-0.446h-0.465h-0.484h-0.504h-0.522h-0.543h-0.542h-0.562h-0.562h-0.562h-0.562h-0.562h-0.562H201.1h-0.543h-0.523h-0.503h-0.484
		h-0.465h-0.427h-0.406h-0.388h-0.349h-0.311h-0.252h-0.232c-0.174,0-0.31,0-0.31,0C195.791,551.85,167.234,643.912,167.234,643.912
		z"/>
</g>
<g id="LWPOLYLINE_10_">
	
		<path fill="none" stroke="#000000" stroke-width="0.7087" stroke-linecap="round" stroke-linejoin="round" stroke-miterlimit="10" d="
		M217.218,611.364c-0.058,0-0.213,0-0.213,0h-0.252h-0.329h-0.427h-0.522h-0.582h-0.639h-0.717h-0.775h-0.833h-0.872h-0.93h-0.949
		h-1.007h-1.008h-1.046h-1.047h-1.065h-1.065h-1.085h-1.065h-1.046h-1.046h-1.008h-0.988h-0.969h-0.91h-0.872h-0.833h-0.774h-0.717
		h-0.659h-0.581h-0.504h-0.426h-0.349h-0.252c-0.155,0-0.214,0-0.214,0c0.039-0.077,0.117-0.349,0.117-0.349l0.116-0.426
		l0.174-0.582l0.213-0.697l0.252-0.853l0.291-1.007l0.329-1.085l0.368-1.24l0.388-1.317l0.406-1.395l0.446-1.473l0.445-1.589
		l0.484-1.627l0.504-1.666l0.503-1.705l0.523-1.782l0.523-1.782l0.522-1.782l0.543-1.821l0.542-1.821l0.523-1.821l0.523-1.782
		l0.522-1.743l0.504-1.744l0.504-1.666l0.484-1.627l0.445-1.55l0.445-1.473l0.427-1.434l0.388-1.317l0.349-1.201l0.329-1.085
		l0.29-1.008l0.252-0.853l0.214-0.735l0.174-0.582l0.116-0.426l0.078-0.271C202.939,562.97,217.218,611.364,217.218,611.364z"/>
</g>
<g id="LWPOLYLINE_11_">
	
		<path fill="none" stroke="#000000" stroke-width="0.7087" stroke-linecap="round" stroke-linejoin="round" stroke-miterlimit="10" d="
		M302.926,551.85c0,0.154,0,0.581,0,0.581v0.697v0.93v1.201v1.396v1.588v1.782v1.977v2.131v2.286v2.402v2.558v2.635v2.712v2.79
		v2.867v2.906v2.905v2.945v2.944v2.945v2.905v2.829v2.79v2.751v2.635v2.519v2.402v2.286v2.131v1.976v1.782v1.628v1.395v1.162v0.931
		v0.697v0.426c-0.077,0-0.271-0.426-0.271-0.426l-0.31-0.697l-0.388-0.931l-0.543-1.162l-0.619-1.395l-0.698-1.628l-0.813-1.782
		l-0.853-1.976l-0.969-2.131l-1.007-2.286l-1.085-2.402l-1.124-2.519l-1.162-2.635l-1.201-2.751l-1.24-2.79l-1.278-2.829
		l-1.278-2.905l-1.317-2.945l-1.298-2.944l-1.317-2.945l-1.299-2.905l-1.298-2.906l-1.259-2.867l-1.24-2.79l-1.221-2.712
		l-1.162-2.635l-1.124-2.558l-1.085-2.402l-1.007-2.286l-0.949-2.131l-0.872-1.977l-0.794-1.782l-0.717-1.588l-0.62-1.396
		l-0.523-1.201l-0.426-0.93l-0.311-0.697l-0.174-0.427c-0.175-0.154-0.33-0.154-0.33-0.154c-0.193,0-0.426,0-0.426,0h-0.271h-0.329
		h-0.368h-0.388h-0.445h-0.445h-0.504h-0.504h-0.522h-0.562h-0.562h-0.581h-0.581h-0.582h-0.601h-0.601h-0.581h-0.601h-0.562h-0.581
		h-0.543h-0.522h-0.523h-0.484h-0.465h-0.426h-0.407h-0.349h-0.329h-0.291h-0.232c-0.193,0-0.329,0-0.329,0
		c-0.116,0.193-0.116,0.697-0.116,0.697v0.813v1.085v1.395v1.628v1.859v2.093v2.324v2.519v2.674v2.829v2.944v3.1v3.178v3.293v3.332
		v3.41v3.409v3.449v3.448v3.448v3.41v3.332v3.255v3.216v3.061v2.983v2.829v2.673v2.48v2.324v2.093v1.898v1.627v1.396v1.085v0.813
		v0.504c0.174,0.155,0.29,0.155,0.29,0.155c0.155,0,0.349,0,0.349,0h0.194h0.252h0.252h0.271h0.311h0.31h0.329h0.349h0.368h0.368
		h0.368h0.388h0.388h0.368h0.388h0.387h0.388h0.368h0.368h0.368h0.349h0.329h0.311h0.31h0.271h0.252h0.252h0.193
		c0.193,0,0.349,0,0.349,0c0.116,0,0.213,0,0.213,0c0.078-0.155,0.078-0.582,0.078-0.582v-0.697v-0.93v-1.201v-1.395v-1.628v-1.821
		v-1.976v-2.17v-2.286v-2.441v-2.557v-2.674v-2.751v-2.828v-2.867v-2.945v-2.944v-2.983v-2.984v-2.944v-2.944v-2.867v-2.829v-2.751
		v-2.674v-2.557v-2.402v-2.325v-2.131v-2.015v-1.821v-1.589v-1.434v-1.201v-0.93v-0.697v-0.427c0.058,0,0.251,0.427,0.251,0.427
		l0.311,0.697l0.426,0.93l0.543,1.201l0.639,1.434l0.717,1.589l0.814,1.821l0.91,2.015l0.969,2.131l1.026,2.325l1.104,2.402
		l1.144,2.557l1.201,2.674l1.239,2.751l1.279,2.829l1.278,2.867l1.337,2.944l1.317,2.944l1.337,2.984l1.337,2.983l1.336,2.944
		l1.317,2.945l1.299,2.867l1.259,2.828l1.24,2.751l1.201,2.674l1.162,2.557l1.085,2.441l1.046,2.286l0.969,2.17l0.892,1.976
		l0.813,1.821l0.736,1.628l0.62,1.395l0.542,1.201l0.427,0.93l0.31,0.697l0.193,0.427c0.194,0.155,0.311,0.155,0.311,0.155
		c0.193,0,0.426,0,0.426,0h0.271h0.31h0.311h0.387h0.427h0.426h0.465h0.504h0.504h0.504h0.542h0.543h0.542h0.581h0.582h0.542h0.581
		h0.543h0.542h0.543h0.503h0.543h0.465h0.465h0.427h0.426h0.388h0.31h0.311h0.271h0.232c0.194,0,0.311,0,0.311,0
		c0.116-0.155,0.116-0.659,0.116-0.659v-0.813v-1.085v-1.396v-1.627v-1.898v-2.093v-2.324v-2.48v-2.673v-2.829v-2.983v-3.061v-3.216
		v-3.255v-3.332v-3.41v-3.448v-3.448v-3.449v-3.409v-3.41v-3.332v-3.293v-3.178v-3.1v-2.944v-2.829v-2.674v-2.519v-2.324v-2.093
		v-1.859v-1.628v-1.395v-1.085v-0.813v-0.504C313.232,551.85,302.926,551.85,302.926,551.85z"/>
</g>
<g id="LWPOLYLINE_12_">
	
		<path fill="none" stroke="#000000" stroke-width="0.7087" stroke-linecap="round" stroke-linejoin="round" stroke-miterlimit="10" d="
		M383.868,577.268l0.077-1.356l0.077-1.317l0.039-1.278v-1.24v-1.201l-0.077-1.201l-0.116-1.124l-0.117-1.085l-0.154-1.085
		l-0.194-1.046l-0.232-0.969l-0.271-0.969l-0.311-0.93l-0.349-0.891l-0.349-0.892l-0.426-0.813l-0.427-0.775l-0.465-0.774
		l-0.542-0.697l-0.543-0.698l-0.581-0.658l-0.62-0.62l-0.658-0.581l-0.698-0.543l-0.697-0.503l-0.774-0.504l-0.814-0.427
		l-0.813-0.426l-0.891-0.388l-0.892-0.349l-0.969-0.31l-0.969-0.271l-1.046-0.271l-1.046-0.193l-1.124-0.194l-1.124-0.154
		l-1.162-0.116l-1.239-0.078l-1.24-0.038l-1.278-0.039l-1.356,0.039l-1.317,0.038l-1.317,0.078l-1.278,0.077l-1.24,0.155
		l-1.201,0.154l-1.201,0.194l-1.162,0.232l-1.124,0.271l-1.085,0.31l-1.085,0.31l-1.046,0.388l-0.969,0.427l-1.008,0.426
		l-0.93,0.504l-0.891,0.542l-0.892,0.582l-0.853,0.658l-0.813,0.659l-0.775,0.735l-0.736,0.736l-0.697,0.813l-0.658,0.892
		l-0.659,0.892l-0.581,0.968l-0.581,1.047l-0.543,1.085l-0.465,1.123l-0.465,1.163l-0.426,1.239l-0.349,1.317l-0.349,1.356
		l-0.311,1.434l-0.271,1.473l-0.232,1.55l-0.154,1.589l-0.155,1.704l-0.116,1.705l-0.039,1.821l-0.038,1.859
		c0,0.194,0,0.427,0,0.427v0.31v0.388v0.465v0.543v0.581v0.658v0.736v0.736v0.813v0.853v0.892v0.891v0.93v0.969v0.969v0.969v0.969
		v0.969v1.008v0.969v0.93v0.93v0.93v0.853v0.853v0.813v0.736v0.736v0.658v0.582v0.542v0.465v0.388v0.31v0.232
		c0,0.194,0.038,2.79,0.038,2.79l0.078,2.519l0.154,2.363l0.232,2.209l0.271,2.131l0.311,2.015l0.387,1.899l0.427,1.782l0.504,1.666
		l0.503,1.589l0.582,1.472l0.581,1.396l0.658,1.278l0.659,1.201l0.736,1.124l0.735,1.046l0.775,0.93l0.813,0.892l0.813,0.813
		l0.853,0.736l0.892,0.658l0.891,0.581l0.892,0.543l0.93,0.504l0.93,0.426l0.931,0.388l0.969,0.31l0.968,0.311l0.931,0.232
		l0.969,0.193l0.969,0.193l0.968,0.155l0.931,0.078l0.93,0.116l0.93,0.038l0.93,0.078h0.892l0.892,0.038h0.891h0.813h0.504h0.543
		h0.619l0.62-0.038h0.659l0.736-0.039l0.735-0.077l0.736-0.078l0.814-0.116l0.813-0.116l0.813-0.155l0.853-0.154l0.853-0.232
		l0.891-0.232l0.853-0.311l0.892-0.31l0.853-0.388l0.891-0.426l0.853-0.466l0.853-0.542l0.853-0.581l0.813-0.62l0.813-0.697
		l0.775-0.775l0.774-0.813l0.698-0.891l0.697-0.969l0.658-1.047l0.62-1.123l0.581-1.201l0.543-1.279l0.465-1.355l0.426-1.434
		l0.388-1.55l0.31-1.667l0.271-1.704l0.194-1.86l0.116-1.938l0.038-2.015v-2.17c-0.193,0-0.349,0-0.349,0c-0.155,0-0.388,0-0.388,0
		h-0.232h-0.271h-0.311h-0.31h-0.349h-0.388h-0.349h-0.427h-0.387h-0.427h-0.465h-0.426h-0.427h-0.465h-0.426h-0.466h-0.426h-0.426
		h-0.427h-0.426h-0.388h-0.388h-0.388h-0.31h-0.349h-0.311h-0.232h-0.271h-0.194c-0.193,0-0.31,0-0.31,0
		c-0.193,0-0.232,1.356-0.232,1.356l-0.039,1.278l-0.116,1.201l-0.116,1.163l-0.155,1.123l-0.193,1.047l-0.232,0.968l-0.232,0.931
		l-0.271,0.891l-0.31,0.853l-0.311,0.775l-0.349,0.774l-0.349,0.697l-0.388,0.659l-0.387,0.581l-0.427,0.581l-0.426,0.543
		l-0.427,0.465l-0.465,0.465l-0.426,0.426l-0.465,0.388l-0.504,0.349l-0.465,0.311l-0.465,0.31l-0.466,0.271l-0.503,0.232
		l-0.465,0.193l-0.466,0.194l-0.465,0.154l-0.465,0.155l-0.465,0.116l-0.426,0.077l-0.466,0.078l-0.387,0.077l-0.427,0.077
		l-0.388,0.039h-0.349l-0.387,0.039h-0.311h-0.31h-0.659h-0.658l-0.62-0.039l-0.62-0.077l-0.62-0.039l-0.62-0.116l-0.619-0.077
		l-0.581-0.155l-0.582-0.155l-0.581-0.154l-0.581-0.232l-0.542-0.233l-0.543-0.271l-0.504-0.271l-0.542-0.349l-0.504-0.349
		l-0.465-0.427l-0.465-0.426l-0.465-0.465l-0.427-0.504l-0.426-0.581l-0.427-0.581l-0.387-0.659l-0.35-0.697l-0.387-0.736
		l-0.311-0.774l-0.31-0.853l-0.311-0.892l-0.271-0.93l-0.232-1.008l-0.232-1.046l-0.232-1.124l-0.194-1.162l-0.155-1.24
		l-0.116-1.278l-0.116-1.356l-0.116-1.434l-0.038-1.511l-0.039-1.55l-0.039-1.627c0-0.194,0-0.388,0-0.388v-0.311v-0.349v-0.465
		v-0.504v-0.542v-0.62v-0.658v-0.736v-0.736v-0.813v-0.814v-0.852v-0.892v-0.892v-0.891v-0.93v-0.892v-0.93v-0.93v-0.892v-0.892
		v-0.891v-0.853v-0.813v-0.813v-0.736v-0.736v-0.659v-0.619V588v-0.504v-0.465v-0.349v-0.31v-0.194c0-0.193,0-1.355,0-1.355
		l0.039-1.124v-1.046l0.039-1.047l0.038-0.969l0.039-0.93l0.039-0.891l0.077-0.814l0.039-0.813l0.077-0.774l0.077-0.697l0.078-0.698
		l0.077-0.658l0.078-0.581l0.077-0.581l0.077-0.543l0.078-0.504l0.077-0.465l0.116-0.465l0.077-0.426l0.078-0.388l0.116-0.349
		l0.077-0.349l0.077-0.311l0.078-0.271l0.077-0.271l0.077-0.232l0.078-0.232l0.077-0.194c0.078-0.193,0.155-0.349,0.155-0.349
		c0.039-0.155,0.116-0.271,0.116-0.271c0.039-0.116,0.077-0.232,0.077-0.232c0.078-0.193,0.078-0.271,0.078-0.271
		c0.038-0.116,0.077-0.271,0.077-0.271c0.077-0.116,0.193-0.271,0.193-0.271c0.078-0.193,0.194-0.349,0.194-0.349
		c0.154-0.193,0.271-0.388,0.271-0.388l0.155-0.193l0.194-0.232l0.154-0.232l0.232-0.194l0.194-0.232l0.232-0.232l0.232-0.271
		l0.271-0.233l0.271-0.232l0.271-0.232l0.31-0.271l0.311-0.232l0.349-0.232l0.349-0.233l0.349-0.232l0.388-0.232l0.388-0.232
		l0.426-0.193l0.427-0.232l0.465-0.194l0.465-0.193l0.504-0.155l0.503-0.193l0.543-0.155l0.542-0.154l0.543-0.116l0.581-0.116
		l0.62-0.117l0.62-0.077l0.658-0.039l0.659-0.077l0.658-0.039h0.697c0.155,0,0.271,0,0.271,0c0.155,0.039,0.349,0.039,0.349,0.039
		c0.155,0,0.349,0.039,0.349,0.039h0.194l0.232,0.038l0.232,0.039l0.193,0.039l0.271,0.038l0.232,0.039l0.232,0.039l0.271,0.077
		l0.271,0.039l0.271,0.077l0.271,0.039l0.271,0.077l0.271,0.078l0.311,0.116l0.271,0.077l0.271,0.116l0.311,0.077l0.271,0.116
		l0.271,0.116l0.271,0.116l0.31,0.155l0.271,0.116l0.271,0.155l0.271,0.155l0.232,0.154l0.271,0.194l0.232,0.154l0.271,0.194
		l0.232,0.193l0.194,0.194l0.232,0.193l0.193,0.232l0.193,0.232l0.194,0.232l0.193,0.232l0.155,0.232l0.155,0.271l0.154,0.232
		l0.155,0.271l0.155,0.271l0.154,0.271l0.116,0.311l0.155,0.271l0.116,0.271l0.116,0.311l0.116,0.31l0.116,0.31l0.078,0.311
		l0.116,0.31l0.116,0.311l0.077,0.349l0.077,0.31l0.078,0.349l0.077,0.349l0.077,0.349l0.078,0.349l0.038,0.35l0.078,0.349
		l0.039,0.349l0.077,0.388l0.039,0.349l0.038,0.387l0.039,0.388l0.039,0.349l0.038,0.388v0.388l0.039,0.426l0.039,0.388v0.388v0.388
		l0.038,0.426v0.388v0.426v0.427H383.868z"/>
</g>
<g id="LWPOLYLINE_13_">
	
		<path fill="none" stroke="#000000" stroke-width="0.7087" stroke-linecap="round" stroke-linejoin="round" stroke-miterlimit="10" d="
		M448.148,643.912c0-0.155,0-0.271,0-0.271c0-0.155,0-0.349,0-0.349v-0.194v-0.271v-0.232v-0.271v-0.311v-0.31v-0.349v-0.349v-0.349
		v-0.388v-0.349v-0.388v-0.388v-0.387v-0.388v-0.388v-0.388v-0.349v-0.388v-0.349v-0.349v-0.349v-0.31v-0.311v-0.271v-0.233v-0.271
		v-0.194c0-0.193,0-0.349,0-0.349c0-0.116,0-0.193,0-0.193c-0.077-0.077-0.271-0.077-0.271-0.077h-0.31h-0.426h-0.543h-0.62h-0.736
		h-0.813h-0.891h-0.969h-1.047h-1.085h-1.162h-1.201h-1.239h-1.279h-1.278h-1.317h-1.356h-1.317h-1.356h-1.317h-1.317h-1.317h-1.239
		h-1.24h-1.201h-1.162h-1.085h-1.046h-0.969h-0.892h-0.813h-0.736h-0.62h-0.542h-0.427h-0.31c-0.193,0-0.271,0-0.271,0
		c0-0.078,0-0.233,0-0.233v-0.271v-0.388v-0.465v-0.581v-0.659v-0.697v-0.813v-0.853v-0.93v-0.969v-1.008v-1.085v-1.085v-1.123
		v-1.163v-1.201v-1.162v-1.201v-1.162v-1.201v-1.163v-1.162v-1.123v-1.124v-1.046v-1.008v-1.008v-0.891v-0.892v-0.774v-0.736v-0.659
		v-0.542v-0.465v-0.388v-0.271c0-0.193,0-0.232,0-0.232c0.078,0,0.232,0,0.232,0h0.311h0.387h0.466h0.581h0.658h0.736h0.813h0.892
		h0.969h0.969h1.046h1.124h1.123h1.163h1.162h1.201h1.201h1.239h1.201h1.24h1.201h1.162h1.163h1.123h1.085h1.046h1.008h0.969h0.853
		h0.813h0.775h0.658h0.581h0.465h0.388h0.311c0.154,0,0.232,0,0.232,0c0-0.193,0-0.31,0-0.31c0-0.155,0-0.311,0-0.311v-0.232v-0.232
		v-0.271v-0.271v-0.311v-0.31v-0.31v-0.349v-0.388v-0.349v-0.388v-0.388v-0.349v-0.388v-0.387v-0.388v-0.388v-0.388v-0.349v-0.388
		v-0.31v-0.349v-0.311v-0.31v-0.271v-0.271v-0.232v-0.194c0-0.193,0-0.349,0-0.349c0-0.116,0-0.232,0-0.232
		c-0.078-0.077-0.232-0.077-0.232-0.077h-0.311h-0.388h-0.465h-0.581h-0.658h-0.775h-0.813h-0.853h-0.969h-1.008h-1.046h-1.085
		h-1.123h-1.163h-1.162h-1.201h-1.24h-1.201h-1.239h-1.201h-1.201h-1.162h-1.163h-1.123h-1.124h-1.046h-0.969H417.5h-0.892h-0.813
		h-0.736H414.4h-0.581h-0.466h-0.387h-0.311c-0.154,0-0.232,0-0.232,0c0-0.039,0-0.194,0-0.194v-0.271v-0.35v-0.426v-0.543v-0.581
		v-0.658v-0.736v-0.813v-0.853v-0.892v-0.969v-0.969v-1.007v-1.046v-1.085v-1.085v-1.085v-1.085v-1.124v-1.085v-1.085v-1.085v-1.046
		v-1.007v-0.969v-0.969v-0.892v-0.853v-0.774v-0.775v-0.658v-0.582v-0.542v-0.426v-0.35v-0.271c0-0.155,0-0.194,0-0.194
		c0.078,0,0.271,0,0.271,0h0.31h0.388h0.543h0.619h0.698h0.813h0.853h0.969h1.007h1.085h1.124h1.162h1.201h1.24h1.278h1.278h1.317
		h1.317h1.279h1.317h1.278h1.278h1.24h1.201h1.201h1.124h1.046h1.008h0.968h0.853h0.814h0.697h0.62h0.542h0.426h0.311
		c0.193,0,0.232,0,0.232,0c0-0.193,0-0.31,0-0.31c0-0.155,0-0.31,0-0.31v-0.233v-0.232v-0.271v-0.271v-0.31v-0.311v-0.31v-0.349
		v-0.388v-0.349v-0.388v-0.388v-0.349v-0.388v-0.387v-0.388v-0.388v-0.388v-0.349v-0.388v-0.31v-0.349v-0.31v-0.311v-0.271v-0.271
		v-0.232v-0.194c0-0.193,0-0.349,0-0.349c0-0.116,0-0.232,0-0.232c-0.077-0.077-0.31-0.077-0.31-0.077h-0.427h-0.542h-0.698h-0.813
		h-0.93h-1.046h-1.163h-1.239h-1.356h-1.395h-1.512h-1.511h-1.628h-1.627h-1.666h-1.705h-1.705h-1.743h-1.705h-1.743h-1.666H417.5
		h-1.628h-1.588h-1.55h-1.473h-1.434h-1.317h-1.24h-1.162h-1.046h-0.931h-0.852h-0.659h-0.581h-0.388h-0.232
		c-0.116,0.193-0.116,0.697-0.116,0.697v0.813v1.085v1.395v1.628v1.859v2.093v2.324v2.519v2.674v2.829v2.944v3.1v3.178v3.293v3.332
		v3.41v3.409v3.449v3.448v3.448v3.41v3.332v3.255v3.216v3.061v2.983v2.829v2.673v2.48v2.324v2.093v1.898v1.627v1.396v1.085v0.813
		v0.504C401.304,643.912,448.148,643.912,448.148,643.912z"/>
</g>
<g id="LWPOLYLINE_14_">
	
		<path fill="none" stroke="#000000" stroke-width="0.7087" stroke-linecap="round" stroke-linejoin="round" stroke-miterlimit="10" d="
		M506.075,643.912c0-0.155,0-0.271,0-0.271c0-0.155,0-0.349,0-0.349v-0.194v-0.271v-0.232v-0.271v-0.311v-0.31v-0.349v-0.349v-0.349
		v-0.388v-0.349v-0.388v-0.388v-0.387v-0.388v-0.388v-0.388v-0.349v-0.388v-0.349v-0.349v-0.349v-0.31v-0.311v-0.271v-0.233v-0.271
		v-0.194c0-0.193,0-0.349,0-0.349c0-0.116,0-0.193,0-0.193c-0.078-0.077-0.271-0.077-0.271-0.077h-0.271h-0.387h-0.504h-0.62h-0.659
		h-0.774h-0.813h-0.931h-0.968h-1.008h-1.085h-1.124h-1.123h-1.201h-1.201h-1.24h-1.24h-1.239h-1.279h-1.239h-1.201h-1.24h-1.162
		h-1.162h-1.124h-1.085h-1.008h-0.968h-0.892h-0.853h-0.774h-0.659h-0.581h-0.504h-0.426h-0.271c-0.193,0-0.232,0-0.232,0
		c0-0.155,0-0.582,0-0.582v-0.735v-0.969v-1.24v-1.434v-1.666v-1.86v-2.054v-2.247v-2.363v-2.519v-2.635v-2.712v-2.868v-2.905
		v-2.945v-3.021v-3.062v-3.061v-3.062v-3.061v-2.983v-2.984v-2.905v-2.829v-2.751v-2.635v-2.519v-2.363v-2.209v-2.053v-1.86v-1.666
		v-1.473v-1.239v-0.969v-0.697v-0.466c-0.194-0.154-0.311-0.154-0.311-0.154c-0.193,0-0.387,0-0.387,0h-0.232h-0.232h-0.271h-0.311
		h-0.349h-0.31h-0.388h-0.349h-0.388h-0.388h-0.426h-0.388H467.6h-0.427h-0.426h-0.388h-0.426h-0.388h-0.388h-0.388h-0.387h-0.349
		h-0.35h-0.31h-0.31h-0.271h-0.271h-0.232c-0.193,0-0.349,0-0.349,0c-0.155,0-0.232,0-0.232,0c-0.077,0.193-0.077,0.697-0.077,0.697
		v0.813v1.085v1.395v1.628v1.859v2.093v2.324v2.519v2.674v2.829v2.944v3.1v3.178v3.293v3.332v3.41v3.409v3.449v3.448v3.448v3.41
		v3.332v3.255v3.216v3.061v2.983v2.829v2.673v2.48v2.324v2.093v1.898v1.627v1.396v1.085v0.813v0.504
		C461.633,643.912,506.075,643.912,506.075,643.912z"/>
</g>
<g id="LINE">
	
		<line fill="none" stroke="#000000" stroke-width="0.7087" stroke-linecap="round" stroke-linejoin="round" stroke-miterlimit="10" x1="183.102" y1="255.882" x2="422.73" y2="255.882"/>
</g>
<g id="LINE_1_">
	
		<line fill="none" stroke="#000000" stroke-width="0.7087" stroke-linecap="round" stroke-linejoin="round" stroke-miterlimit="10" x1="422.73" y1="255.882" x2="400.684" y2="236.974"/>
</g>
<g id="LINE_2_">
	
		<line fill="none" stroke="#000000" stroke-width="0.7087" stroke-linecap="round" stroke-linejoin="round" stroke-miterlimit="10" x1="400.684" y1="236.974" x2="205.168" y2="236.974"/>
</g>
<g id="LINE_3_">
	
		<line fill="none" stroke="#000000" stroke-width="0.7087" stroke-linecap="round" stroke-linejoin="round" stroke-miterlimit="10" x1="205.168" y1="236.974" x2="183.102" y2="255.882"/>
</g>
<g id="ARC">
	
		<path fill="none" stroke="#000000" stroke-width="0.7087" stroke-linecap="round" stroke-linejoin="round" stroke-miterlimit="10" d="
		M422.382,255.901c-5.23-65.966-62.925-115.232-128.872-110.021c-58.759,4.631-105.41,51.281-110.04,110.021"/>
</g>
<g id="ARC_1_">
	
		<path fill="none" stroke="#000000" stroke-width="0.7087" stroke-linecap="round" stroke-linejoin="round" stroke-miterlimit="10" d="
		M399.909,237.458c-15.383-53.548-71.294-84.487-124.861-69.104c-33.4,9.59-59.516,35.705-69.105,69.104"/>
</g>
<g id="LINE_4_">
	
		<line fill="none" stroke="#000000" stroke-width="0.7087" stroke-linecap="round" stroke-linejoin="round" stroke-miterlimit="10" x1="183.102" y1="274.926" x2="422.73" y2="274.926"/>
</g>
<g id="LINE_5_">
	
		<line fill="none" stroke="#000000" stroke-width="0.7087" stroke-linecap="round" stroke-linejoin="round" stroke-miterlimit="10" x1="422.73" y1="274.926" x2="400.684" y2="293.835"/>
</g>
<g id="LINE_6_">
	
		<line fill="none" stroke="#000000" stroke-width="0.7087" stroke-linecap="round" stroke-linejoin="round" stroke-miterlimit="10" x1="400.684" y1="293.835" x2="205.168" y2="293.835"/>
</g>
<g id="LINE_7_">
	
		<line fill="none" stroke="#000000" stroke-width="0.7087" stroke-linecap="round" stroke-linejoin="round" stroke-miterlimit="10" x1="205.168" y1="293.835" x2="183.102" y2="274.926"/>
</g>
<g id="ARC_2_">
	
		<path fill="none" stroke="#000000" stroke-width="0.7087" stroke-linecap="round" stroke-linejoin="round" stroke-miterlimit="10" d="
		M183.47,274.888c5.211,65.985,62.905,115.232,128.871,110.04c58.74-4.649,105.392-51.3,110.041-110.04"/>
</g>
<g id="ARC_3_">
	
		<path fill="none" stroke="#000000" stroke-width="0.7087" stroke-linecap="round" stroke-linejoin="round" stroke-miterlimit="10" d="
		M205.942,293.331c15.383,53.567,71.274,84.507,124.842,69.124c33.4-9.609,59.516-35.725,69.125-69.124"/>
</g>
</svg>
