<?xml version="1.0" encoding="utf-8"?>
<!-- Generator: Adobe Illustrator 16.0.1, SVG Export Plug-In . SVG Version: 6.00 Build 0)  -->
<!DOCTYPE svg PUBLIC "-//W3C//DTD SVG 1.0//EN" "http://www.w3.org/TR/2001/REC-SVG-20010904/DTD/svg10.dtd">
<svg version="1.0" id="_x31_" xmlns="http://www.w3.org/2000/svg" xmlns:xlink="http://www.w3.org/1999/xlink" x="0px" y="0px"
	 width="612px" height="792px" viewBox="0 0 612 792" enable-background="new 0 0 612 792" xml:space="preserve">
<g id="LWPOLYLINE">
	
		<path fill="none" stroke="#000000" stroke-width="0.7087" stroke-linecap="round" stroke-linejoin="round" stroke-miterlimit="10" d="
		M101.889,646c0.205,0,0.349,0,0.349,0c0.206,0,0.432,0,0.432,0h0.247h0.287h0.309h0.35h0.37h0.39h0.411h0.411h0.452h0.452h0.452
		h0.452h0.473h0.473h0.473h0.473h0.473h0.452h0.452h0.432h0.432h0.41h0.391h0.37h0.329h0.328h0.288h0.246h0.227
		c0.185,0,0.35,0,0.35,0c0.205,0,0.205-0.041,0.205-0.041c0.041-0.164,0.123-0.369,0.123-0.369l0.083-0.289l0.103-0.328l0.144-0.41
		l0.164-0.494l0.165-0.535l0.185-0.574l0.206-0.658l0.226-0.699l0.227-0.697l0.246-0.781l0.268-0.781l0.246-0.822l0.268-0.822
		l0.287-0.863l0.268-0.861l0.287-0.904l0.288-0.863l0.288-0.904l0.287-0.863l0.268-0.863l0.267-0.863l0.288-0.822l0.246-0.822
		l0.268-0.822l0.247-0.738l0.226-0.74l0.227-0.658l0.205-0.658l0.185-0.574l0.165-0.535l0.164-0.492l0.123-0.412l0.124-0.369
		l0.082-0.287c0.082-0.207,0.123-0.33,0.123-0.33c0.082-0.041,0.268-0.041,0.268-0.041h0.308h0.452h0.534h0.638h0.739h0.822h0.925
		h0.966h1.068h1.109h1.151h1.212h1.274h1.274h1.314h1.336h1.356h1.356h1.356h1.356h1.335h1.315h1.274h1.254h1.212h1.172h1.109h1.048
		h0.986h0.904h0.843h0.739h0.638h0.534h0.432h0.328c0.186,0,0.268,0,0.268,0c0.041,0.164,0.103,0.371,0.103,0.371l0.082,0.287
		l0.104,0.369l0.103,0.412l0.144,0.492l0.164,0.535l0.165,0.574l0.185,0.658l0.186,0.658l0.205,0.74l0.226,0.738l0.227,0.822
		l0.226,0.822l0.247,0.822l0.246,0.863l0.247,0.863l0.246,0.863l0.247,0.904l0.268,0.863l0.246,0.904l0.247,0.861l0.246,0.863
		l0.247,0.822l0.226,0.822l0.227,0.781l0.205,0.781l0.205,0.697l0.206,0.699l0.185,0.658l0.165,0.574l0.164,0.535l0.123,0.494
		l0.123,0.41l0.104,0.328l0.082,0.289c0.062,0.205,0.103,0.369,0.103,0.369C165.12,646,165.244,646,165.244,646
		c0.185,0,0.39,0,0.39,0h0.268h0.287h0.329h0.35h0.391h0.411h0.452h0.451h0.473h0.515h0.493h0.534h0.514h0.534h0.534h0.534h0.534
		h0.534h0.514h0.515h0.493h0.493h0.452h0.431h0.432h0.391h0.35h0.329h0.287h0.268h0.205c0.165,0,0.288,0,0.288,0
		c0.062-0.205-0.103-0.74-0.103-0.74l-0.288-0.863l-0.37-1.15l-0.473-1.479l-0.555-1.727l-0.637-1.973l-0.699-2.221l-0.78-2.465
		l-0.843-2.672l-0.904-2.836l-0.966-3l-1.007-3.123l-1.027-3.289l-1.09-3.369l-1.109-3.494l-1.13-3.535l-1.151-3.617l-1.15-3.615
		l-1.172-3.658l-1.171-3.658l-1.172-3.658l-1.13-3.617l-1.15-3.533l-1.09-3.453l-1.089-3.412l-1.048-3.246l-1.007-3.164l-0.945-3
		l-0.904-2.836l-0.843-2.631l-0.78-2.467l-0.72-2.219l-0.637-2.014l-0.555-1.727l-0.473-1.48l-0.37-1.15l-0.268-0.863l-0.164-0.533
		c-0.186-0.164-0.309-0.164-0.309-0.164c-0.205,0-0.432,0-0.432,0h-0.287h-0.329h-0.37h-0.391h-0.452h-0.451h-0.494h-0.514h-0.534
		h-0.555h-0.575h-0.575h-0.597h-0.596h-0.596h-0.596h-0.597h-0.596h-0.575h-0.575H136.7h-0.534h-0.515h-0.493h-0.473h-0.432h-0.39
		h-0.37h-0.329h-0.287h-0.227c-0.205,0-0.35,0-0.35,0C132.199,548.348,101.889,646,101.889,646z"/>
</g>
<g id="LWPOLYLINE_1_">
	
		<path fill="none" stroke="#000000" stroke-width="0.7087" stroke-linecap="round" stroke-linejoin="round" stroke-miterlimit="10" d="
		M154.928,611.477c-0.062,0-0.227,0-0.227,0h-0.267h-0.37h-0.452h-0.534h-0.616h-0.699h-0.76h-0.822h-0.884h-0.925h-0.966h-1.027
		h-1.048h-1.069h-1.109h-1.109h-1.131h-1.15h-1.13h-1.131h-1.109h-1.109h-1.069h-1.048h-1.027h-0.966h-0.945h-0.863h-0.821h-0.781
		h-0.679h-0.616h-0.555h-0.452h-0.35h-0.267c-0.165,0-0.227,0-0.227,0c0.021-0.082,0.103-0.371,0.103-0.371l0.145-0.451l0.185-0.617
		l0.227-0.781l0.267-0.902l0.309-1.029l0.35-1.191l0.369-1.273l0.411-1.398l0.452-1.52l0.452-1.562l0.493-1.645l0.514-1.725
		l0.514-1.768l0.555-1.85l0.535-1.85l0.575-1.891l0.555-1.932l0.575-1.932l0.555-1.932l0.576-1.891l0.555-1.891l0.555-1.891
		l0.534-1.809l0.534-1.768l0.493-1.727l0.493-1.684l0.473-1.562l0.432-1.48l0.411-1.396l0.391-1.273l0.35-1.193l0.308-1.027
		l0.268-0.945l0.226-0.74l0.186-0.615l0.123-0.453l0.082-0.287C139.762,560.143,154.928,611.477,154.928,611.477z"/>
</g>
<g id="LWPOLYLINE_2_">
	
		<path fill="none" stroke="#000000" stroke-width="0.7087" stroke-linecap="round" stroke-linejoin="round" stroke-miterlimit="10" d="
		M239.1,646c0-0.205,0-0.328,0-0.328c0-0.164,0-0.371,0-0.371v-0.205v-0.246v-0.287v-0.289v-0.328v-0.328v-0.371v-0.328v-0.412
		v-0.369v-0.41v-0.412v-0.41v-0.412v-0.41v-0.371v-0.41v-0.41v-0.371v-0.41v-0.371v-0.328v-0.328v-0.33v-0.287v-0.287v-0.248v-0.246
		c0-0.164,0-0.328,0-0.328c0-0.123,0-0.246,0-0.246c-0.082-0.082-0.267-0.082-0.267-0.082h-0.309h-0.411h-0.534h-0.637h-0.72h-0.801
		h-0.884h-0.966h-1.027h-1.09h-1.13h-1.191H227.9h-1.254h-1.273h-1.315h-1.315h-1.315h-1.335h-1.315h-1.315h-1.274h-1.253H213.7
		h-1.191h-1.131h-1.089h-1.027h-0.966h-0.884h-0.802h-0.719h-0.638h-0.514h-0.432h-0.308c-0.186,0-0.268,0-0.268,0
		c0-0.166,0-0.617,0-0.617v-0.781v-1.027v-1.273v-1.562v-1.768v-1.973v-2.178v-2.344v-2.547v-2.631v-2.795v-2.918v-3v-3.082v-3.166
		v-3.205v-3.207v-3.246v-3.246v-3.248v-3.205v-3.164v-3.084v-3v-2.918v-2.754v-2.672v-2.547v-2.344v-2.178v-1.973v-1.768v-1.52
		v-1.316v-1.027v-0.781v-0.451c-0.185-0.164-0.328-0.164-0.328-0.164c-0.165,0-0.391,0-0.391,0h-0.227h-0.267h-0.309h-0.309h-0.349
		h-0.35h-0.391h-0.391h-0.411h-0.41h-0.432h-0.432h-0.452h-0.432h-0.452h-0.432h-0.432h-0.432h-0.432h-0.39h-0.411h-0.37h-0.37
		h-0.329h-0.328h-0.288h-0.287h-0.227c-0.205,0-0.391,0-0.391,0c-0.144,0-0.246,0-0.246,0c-0.082,0.164-0.082,0.697-0.082,0.697
		v0.863v1.15v1.48v1.727v2.014v2.219v2.467v2.631v2.836v3v3.164v3.246v3.412v3.453v3.533v3.617v3.658v3.658v3.658v3.615v3.617v3.535
		v3.494v3.369v3.289v3.123v3v2.836v2.672v2.465v2.221v1.973v1.727v1.479v1.15v0.863v0.535C191.959,646,239.1,646,239.1,646z"/>
</g>
<g id="LWPOLYLINE_3_">
	
		<path fill="none" stroke="#000000" stroke-width="0.7087" stroke-linecap="round" stroke-linejoin="round" stroke-miterlimit="10" d="
		M238.258,646c0.205,0,0.349,0,0.349,0c0.186,0,0.411,0,0.411,0h0.268h0.287h0.309h0.35h0.37h0.369h0.411h0.432h0.432h0.452h0.452
		h0.473h0.473h0.473h0.473h0.473h0.452h0.473h0.452h0.432h0.432h0.39h0.391h0.37h0.35h0.308h0.288h0.268h0.226
		c0.185,0,0.329,0,0.329,0c0.205,0,0.226-0.041,0.226-0.041c0.041-0.164,0.103-0.369,0.103-0.369l0.083-0.289l0.123-0.328
		l0.144-0.41l0.144-0.494l0.165-0.535l0.205-0.574l0.206-0.658l0.205-0.699l0.247-0.697l0.246-0.781l0.247-0.781l0.267-0.822
		l0.268-0.822l0.267-0.863l0.288-0.861l0.288-0.904l0.267-0.863l0.288-0.904l0.287-0.863l0.288-0.863l0.267-0.863l0.268-0.822
		l0.268-0.822l0.246-0.822l0.247-0.738l0.226-0.74l0.227-0.658l0.205-0.658l0.185-0.574l0.186-0.535l0.144-0.492l0.144-0.412
		l0.104-0.369l0.103-0.287c0.062-0.207,0.103-0.33,0.103-0.33c0.082-0.041,0.288-0.041,0.288-0.041h0.308h0.432h0.534h0.658h0.739
		h0.822h0.904h0.986h1.048h1.109h1.172h1.212h1.254h1.295h1.315h1.335h1.336h1.356h1.356h1.356h1.336h1.314h1.295h1.254h1.212h1.172
		h1.109h1.048h0.986h0.904h0.822h0.739h0.638h0.555h0.432h0.308c0.206,0,0.268,0,0.268,0c0.041,0.164,0.103,0.371,0.103,0.371
		l0.082,0.287l0.104,0.369l0.123,0.412l0.144,0.492l0.144,0.535l0.165,0.574l0.185,0.658l0.206,0.658l0.205,0.74l0.205,0.738
		l0.227,0.822l0.246,0.822l0.227,0.822l0.246,0.863l0.247,0.863l0.268,0.863l0.246,0.904l0.247,0.863l0.246,0.904l0.268,0.861
		l0.226,0.863l0.247,0.822l0.226,0.822l0.227,0.781l0.226,0.781l0.206,0.697l0.205,0.699l0.164,0.658l0.186,0.574l0.144,0.535
		l0.144,0.494l0.124,0.41l0.103,0.328l0.082,0.289c0.041,0.205,0.082,0.369,0.082,0.369c0.123,0.041,0.247,0.041,0.247,0.041
		c0.164,0,0.39,0,0.39,0h0.247h0.288h0.328h0.37h0.391h0.411h0.432h0.473h0.473h0.493h0.514h0.534h0.493h0.534h0.534h0.534h0.534
		h0.534h0.535h0.493h0.493h0.493h0.452h0.452h0.41h0.411h0.329h0.329h0.287h0.288h0.205c0.165,0,0.288,0,0.288,0
		c0.041-0.205-0.123-0.74-0.123-0.74l-0.288-0.863l-0.37-1.15l-0.452-1.479l-0.534-1.727l-0.657-1.973l-0.699-2.221l-0.78-2.465
		l-0.863-2.672l-0.904-2.836l-0.945-3l-1.027-3.123l-1.027-3.289l-1.069-3.369l-1.109-3.494l-1.15-3.535l-1.131-3.617l-1.171-3.615
		l-1.172-3.658l-1.171-3.658l-1.15-3.658l-1.151-3.617l-1.13-3.533l-1.11-3.453l-1.089-3.412l-1.027-3.246l-1.007-3.164l-0.966-3
		l-0.904-2.836l-0.843-2.631l-0.78-2.467l-0.72-2.219l-0.616-2.014l-0.555-1.727l-0.473-1.48l-0.37-1.15l-0.288-0.863l-0.164-0.533
		c-0.164-0.164-0.309-0.164-0.309-0.164c-0.185,0-0.432,0-0.432,0h-0.287h-0.329h-0.35h-0.411h-0.431h-0.473h-0.493h-0.515h-0.534
		h-0.555h-0.555h-0.596h-0.575h-0.597h-0.616h-0.596h-0.596h-0.576h-0.596h-0.555h-0.555h-0.555H272h-0.473h-0.472h-0.432h-0.411
		h-0.37h-0.309h-0.287H269c-0.185,0-0.328,0-0.328,0C268.548,548.348,238.258,646,238.258,646z"/>
</g>
<g id="LWPOLYLINE_4_">
	
		<path fill="none" stroke="#000000" stroke-width="0.7087" stroke-linecap="round" stroke-linejoin="round" stroke-miterlimit="10" d="
		M291.276,611.477c-0.062,0-0.227,0-0.227,0h-0.246h-0.37h-0.452h-0.534h-0.616h-0.699h-0.76h-0.822h-0.884h-0.925h-0.986h-1.007
		H281.7h-1.089h-1.09h-1.13h-1.13h-1.131h-1.13h-1.131h-1.13h-1.089h-1.09h-1.048h-1.007h-0.986h-0.925h-0.884h-0.821h-0.761h-0.698
		h-0.617h-0.534h-0.452h-0.37h-0.267c-0.165,0-0.206,0-0.206,0c0.021-0.082,0.104-0.371,0.104-0.371l0.123-0.451l0.185-0.617
		l0.227-0.781l0.267-0.902l0.309-1.029l0.35-1.191l0.39-1.273l0.411-1.398l0.432-1.52l0.473-1.562l0.493-1.645l0.493-1.725
		l0.534-1.768l0.535-1.85l0.555-1.85l0.555-1.891l0.575-1.932l0.555-1.932l0.575-1.932l0.556-1.891l0.575-1.891l0.534-1.891
		l0.555-1.809l0.514-1.768l0.514-1.727l0.493-1.684l0.452-1.562l0.452-1.48l0.411-1.396l0.37-1.273l0.35-1.193l0.308-1.027
		l0.268-0.945l0.226-0.74l0.186-0.615l0.144-0.453l0.082-0.287C276.131,560.143,291.276,611.477,291.276,611.477z"/>
</g>
<g id="LWPOLYLINE_5_">
	
		<path fill="none" stroke="#000000" stroke-width="0.7087" stroke-linecap="round" stroke-linejoin="round" stroke-miterlimit="10" d="
		M340.082,559.279c0.165,0,0.329,0,0.329,0h0.205h0.288h0.329h0.37h0.41h0.493H343h0.535h0.575h0.575h0.616h0.658h0.657h0.657h0.699
		h0.698h0.699h0.698h0.658h0.698h0.658h0.657h0.657h0.617h0.616h0.575h0.534h0.493h0.452h0.411h0.411h0.329h0.246h0.247
		c0.164,0,0.246,0,0.246,0c0.041,0,0.74,0,0.74,0l0.657,0.041l0.616,0.082l0.617,0.082l0.616,0.123l0.575,0.166l0.534,0.164
		l0.534,0.205l0.535,0.205l0.493,0.205l0.493,0.289l0.452,0.246l0.41,0.287l0.411,0.33l0.411,0.328l0.37,0.328l0.37,0.371
		l0.369,0.369l0.329,0.412l0.288,0.41l0.287,0.41l0.288,0.412l0.246,0.451l0.247,0.453l0.205,0.451l0.206,0.453l0.205,0.492
		l0.165,0.494l0.164,0.492l0.164,0.494l0.124,0.492l0.123,0.494l0.082,0.492l0.082,0.535l0.082,0.492l0.083,0.535l0.041,0.492
		l0.041,0.535v0.494v0.492v0.699l-0.041,0.699l-0.041,0.656l-0.042,0.699l-0.082,0.658l-0.082,0.615l-0.082,0.658l-0.123,0.617
		l-0.124,0.656l-0.164,0.576l-0.164,0.617l-0.165,0.574l-0.205,0.576l-0.206,0.574l-0.246,0.535l-0.247,0.535l-0.246,0.492
		l-0.288,0.494l-0.287,0.492l-0.329,0.494l-0.288,0.451l-0.369,0.41l-0.329,0.412l-0.37,0.41l-0.411,0.371l-0.411,0.328l-0.41,0.328
		l-0.411,0.33l-0.452,0.287l-0.493,0.287l-0.452,0.248l-0.493,0.205l-0.534,0.205l-0.534,0.164l-0.535,0.164l-0.575,0.125
		l-0.575,0.082l-0.575,0.082l-0.616,0.041h-0.617c-0.123,0-0.287,0-0.287,0h-0.247h-0.246h-0.329h-0.411h-0.411h-0.452h-0.493
		h-0.534h-0.575h-0.616h-0.617h-0.657h-0.657h-0.658h-0.698h-0.658h-0.698h-0.699h-0.698h-0.699h-0.657h-0.657h-0.658h-0.616h-0.575
		h-0.575H343h-0.493h-0.493h-0.41h-0.37h-0.329h-0.288h-0.205c-0.164,0-0.288,0-0.288,0
		C340.082,590.434,340.082,559.279,340.082,559.279z"/>
</g>
<g id="LWPOLYLINE_6_">
	
		<path fill="none" stroke="#000000" stroke-width="0.7087" stroke-linecap="round" stroke-linejoin="round" stroke-miterlimit="10" d="
		M328.328,646c0.164,0,0.328,0,0.328,0c0.165,0,0.37,0,0.37,0h0.247h0.287h0.288h0.329h0.328h0.37h0.37h0.411h0.369h0.452h0.411
		h0.452h0.411h0.452h0.452h0.452h0.411h0.411h0.452h0.41h0.37h0.411h0.329h0.37h0.287h0.329h0.246h0.247c0.205,0,0.37,0,0.37,0
		c0.164,0,0.246,0,0.246,0c0.082-0.082,0.082-0.328,0.082-0.328v-0.412v-0.533v-0.658v-0.781v-0.945v-0.986v-1.15v-1.191v-1.316
		v-1.355v-1.439v-1.479v-1.562v-1.602v-1.604v-1.645v-1.686v-1.643v-1.686v-1.645v-1.645v-1.643v-1.562v-1.562v-1.479v-1.439v-1.396
		v-1.273v-1.234v-1.109v-1.027v-0.904v-0.781v-0.656v-0.535v-0.41v-0.248c0.124-0.082,0.247-0.082,0.247-0.082
		c0.164,0,0.37,0,0.37,0h0.287h0.288h0.329h0.328h0.411h0.411h0.452h0.452h0.493h0.493h0.493h0.534h0.534h0.493h0.575h0.535h0.534
		h0.493h0.534h0.493h0.534h0.452h0.452h0.452h0.411h0.411h0.328h0.329h0.288h0.287h0.206c0.164,0,0.287,0,0.287,0
		c0.123,0,0.452,0,0.452,0h0.329h0.37h0.369l0.37,0.041h0.411l0.411,0.041h0.411l0.452,0.041l0.411,0.082l0.451,0.041l0.452,0.084
		l0.452,0.082l0.452,0.082l0.452,0.123l0.452,0.123l0.493,0.164l0.452,0.164l0.452,0.207l0.411,0.205l0.452,0.246l0.452,0.246
		l0.411,0.289l0.411,0.287l0.41,0.328l0.37,0.371l0.37,0.369l0.37,0.41l0.329,0.453l0.328,0.492l0.329,0.535l0.287,0.535
		l0.247,0.574l0.247,0.617l0.205,0.656l0.205,0.699l0.165,0.74l0.123,0.781l0.123,0.822l0.082,0.863l0.042,0.945l0.082,0.945
		l0.041,0.945l0.041,0.945l0.041,0.945l0.041,0.945l0.041,0.902v0.945l0.041,0.945l0.041,0.904v0.945l0.041,0.904l0.041,0.904v0.904
		l0.042,0.904l0.041,0.904l0.041,0.863l0.041,0.863l0.041,0.863l0.041,0.863l0.041,0.863l0.041,0.822l0.082,0.82l0.041,0.822
		l0.083,0.822l0.082,0.781l0.082,0.781l0.123,0.781l0.082,0.738l0.124,0.74l0.123,0.74l0.164,0.699l0.123,0.697l0.165,0.699
		l0.164,0.658l0.206,0.656l0.205,0.617l0.205,0.617l0.247,0.574l0.246,0.617c0.083,0,0.206,0,0.206,0c0.164,0,0.37,0,0.37,0h0.246
		h0.247h0.328h0.329h0.37h0.37h0.411h0.451h0.452h0.452h0.493h0.493h0.493h0.494h0.534h0.493h0.493h0.493h0.493h0.493h0.452h0.452
		h0.452h0.411h0.369h0.37h0.329h0.328h0.247h0.246c0.206,0,0.37,0,0.37,0c0.206,0,0.206,0,0.206,0l-0.165-0.535l-0.205-0.574
		l-0.164-0.576l-0.165-0.574l-0.164-0.658l-0.164-0.617l-0.124-0.697l-0.164-0.699l-0.123-0.699l-0.124-0.699l-0.123-0.738
		l-0.123-0.74l-0.123-0.781l-0.124-0.781l-0.123-0.74l-0.082-0.779l-0.082-0.781l-0.123-0.781l-0.083-0.781l-0.082-0.781
		l-0.041-0.779l-0.082-0.74l-0.082-0.781l-0.041-0.74l-0.083-0.74l-0.041-0.697l-0.041-0.699l-0.041-0.699l-0.082-0.658v-0.656
		l-0.041-0.617l-0.041-0.615l-0.041-0.576v-0.535l-0.041-0.492v-0.494v-0.451V620.6l-0.041-0.369v-0.328l-0.041-1.439l-0.083-1.355
		l-0.123-1.316l-0.082-1.232l-0.123-1.191l-0.165-1.15l-0.123-1.111l-0.164-1.027l-0.206-0.986l-0.205-0.945l-0.206-0.904
		l-0.205-0.863l-0.247-0.82l-0.287-0.781l-0.247-0.74l-0.328-0.658l-0.288-0.656l-0.329-0.617l-0.369-0.617l-0.37-0.533l-0.37-0.535
		l-0.411-0.492l-0.452-0.453l-0.452-0.451l-0.452-0.412l-0.493-0.369l-0.493-0.369l-0.534-0.33l-0.575-0.328l-0.534-0.287
		l-0.616-0.289l-0.617-0.246l-0.657-0.287l-0.658-0.207l-0.657-0.246l-0.739-0.205l-0.699-0.205l-0.781-0.205l-0.78-0.207
		l-0.822-0.205l0.822-0.123l0.78-0.164l0.781-0.205l0.781-0.207l0.739-0.246l0.74-0.287l0.698-0.287l0.699-0.33l0.698-0.369
		l0.658-0.371l0.616-0.369l0.657-0.41l0.575-0.453l0.617-0.451l0.534-0.494l0.575-0.492l0.534-0.535l0.493-0.533l0.493-0.535
		l0.452-0.576l0.452-0.615l0.411-0.617l0.411-0.617l0.411-0.656l0.37-0.658l0.328-0.658l0.329-0.697l0.288-0.658l0.246-0.74
		l0.288-0.699l0.205-0.738l0.206-0.781l0.205-0.74l0.164-0.781l0.124-0.781l0.123-0.779l0.082-0.781l0.041-0.822l0.041-0.781v-0.822
		v-0.945l-0.041-0.945l-0.041-0.945l-0.082-0.904l-0.123-0.945l-0.124-0.904l-0.123-0.904l-0.205-0.904l-0.206-0.861l-0.205-0.904
		l-0.288-0.822l-0.287-0.863l-0.288-0.822l-0.37-0.822l-0.37-0.781l-0.369-0.781l-0.452-0.738l-0.452-0.74l-0.493-0.74l-0.493-0.658
		l-0.576-0.697l-0.575-0.617l-0.616-0.617l-0.657-0.615l-0.699-0.535l-0.698-0.533l-0.74-0.494l-0.781-0.492l-0.821-0.453
		l-0.863-0.41l-0.904-0.371l-0.945-0.328l-0.945-0.287l-1.027-0.289l-1.027-0.205l-1.11-0.205l-1.109-0.123l-1.15-0.123
		l-1.192-0.082h-1.274c-0.041,0-0.205,0-0.205,0h-0.288h-0.41h-0.493h-0.576h-0.657h-0.781h-0.821h-0.863h-0.986h-0.986h-1.069
		h-1.109h-1.109h-1.192h-1.191h-1.192h-1.232h-1.233h-1.233h-1.232h-1.192h-1.191h-1.192h-1.109h-1.109h-1.069h-0.986h-0.945h-0.903
		h-0.822h-0.74h-0.698h-0.575h-0.493h-0.37h-0.288c-0.205,0-0.246,0-0.246,0V646z"/>
</g>
<g id="LWPOLYLINE_7_">
	
		<path fill="none" stroke="#000000" stroke-width="0.7087" stroke-linecap="round" stroke-linejoin="round" stroke-miterlimit="10" d="
		M411.637,559.279c0.042,0.164,0.206,0.617,0.206,0.617l0.205,0.781l0.329,1.027l0.411,1.314l0.452,1.521l0.534,1.766l0.575,1.975
		l0.658,2.178l0.698,2.383l0.781,2.508l0.78,2.672l0.863,2.795l0.863,2.877l0.904,3.041l0.945,3.082l0.945,3.123l0.945,3.207
		l0.986,3.246l0.986,3.248l0.945,3.246l0.986,3.246l0.986,3.166l0.945,3.164l0.904,3.082l0.904,3l0.904,2.918l0.821,2.795
		l0.822,2.672l0.74,2.508l0.698,2.342l0.658,2.18l0.616,1.973l0.534,1.766l0.452,1.562l0.37,1.314l0.328,1.029l0.247,0.738
		l0.123,0.494c0.123,0.164,0.247,0.164,0.247,0.164c0.123,0,0.287,0,0.287,0c0.247,0,0.452,0,0.452,0h0.288h0.287h0.329h0.329h0.37
		h0.369h0.411h0.411h0.411h0.411h0.452h0.452h0.411h0.451h0.452h0.411h0.452h0.411h0.411h0.411h0.37h0.369h0.329h0.329h0.287h0.288
		h0.205h0.247c0.164,0,0.288,0,0.288,0c0.205,0,0.246-0.164,0.246-0.164l0.123-0.494l0.247-0.738l0.329-1.029l0.369-1.314
		l0.452-1.562l0.534-1.766l0.617-1.973l0.657-2.18l0.698-2.342l0.74-2.508l0.822-2.672l0.821-2.795l0.904-2.918l0.904-3l0.904-3.082
		l0.945-3.164l0.986-3.166l0.986-3.246l0.945-3.246l0.986-3.248l0.986-3.246l0.945-3.207l0.945-3.123l0.945-3.082l0.904-3.041
		l0.863-2.877l0.863-2.795l0.781-2.672l0.78-2.508l0.699-2.383l0.657-2.178l0.575-1.975l0.534-1.766l0.452-1.521l0.411-1.314
		l0.329-1.027l0.205-0.781l0.165-0.453c0.041,0,0.041,0.453,0.041,0.453v0.781v1.027v1.314v1.521v1.766v1.975v2.178v2.383v2.508
		v2.672v2.795v2.877v3.041v3.082v3.123v3.207v3.246v3.248v3.246v3.246v3.166v3.164v3.082v3v2.918v2.795v2.672v2.508v2.342v2.18
		v1.973v1.766v1.562v1.314v1.029v0.738v0.494c0.164,0.164,0.328,0.164,0.328,0.164c0.165,0,0.37,0,0.37,0h0.247h0.287h0.288h0.329
		h0.328h0.37h0.37h0.411h0.369h0.452h0.411h0.452h0.411h0.452h0.452h0.452h0.411h0.411h0.452h0.41h0.37h0.411h0.329h0.37h0.287
		h0.329h0.246h0.247c0.205,0,0.37,0,0.37,0c0.164,0,0.246,0,0.246,0c0.082-0.205,0.082-0.74,0.082-0.74v-0.863v-1.15v-1.479v-1.727
		v-1.973v-2.221v-2.465v-2.672v-2.836v-3v-3.123v-3.289v-3.369V611.6v-3.535v-3.617v-3.615v-3.658v-3.658v-3.658v-3.617v-3.533
		v-3.453v-3.412v-3.246v-3.164v-3v-2.836v-2.631v-2.467v-2.219v-2.014v-1.727v-1.48v-1.15v-0.863v-0.533
		c-0.123-0.164-0.287-0.164-0.287-0.164h-0.247h-0.328h-0.329h-0.411h-0.493h-0.493h-0.534h-0.616h-0.617h-0.657h-0.658h-0.698
		h-0.74h-0.698h-0.781h-0.739h-0.74h-0.78h-0.74h-0.74h-0.739h-0.74h-0.698h-0.657h-0.658h-0.616h-0.575h-0.576H469.3h-0.452h-0.41
		h-0.37h-0.288h-0.246c-0.206,0-0.288,0-0.288,0c-0.082,0.164-0.205,0.574-0.205,0.574l-0.206,0.74l-0.287,0.945l-0.37,1.232
		l-0.411,1.48l-0.493,1.645l-0.534,1.848l-0.575,2.057l-0.658,2.219l-0.657,2.383l-0.74,2.508l-0.739,2.631l-0.822,2.754
		l-0.822,2.795l-0.821,2.918l-0.863,2.959l-0.863,3.041l-0.863,3.041l-0.904,3.041l-0.863,3.084l-0.903,3.041l-0.863,3l-0.863,2.959
		l-0.822,2.918l-0.821,2.836l-0.781,2.713l-0.781,2.631l-0.698,2.506l-0.699,2.385l-0.657,2.219l-0.575,2.055l-0.534,1.85
		l-0.493,1.686l-0.411,1.439l-0.329,1.232l-0.288,0.986l-0.205,0.699l-0.123,0.451c-0.124,0-0.247-0.451-0.247-0.451l-0.205-0.699
		l-0.288-0.986l-0.329-1.232l-0.41-1.439l-0.493-1.686l-0.535-1.85l-0.616-2.055l-0.616-2.219l-0.699-2.385l-0.698-2.506
		l-0.781-2.631l-0.78-2.713l-0.822-2.836l-0.822-2.918l-0.863-2.959l-0.862-3l-0.904-3.041l-0.863-3.084l-0.904-3.041l-0.863-3.041
		l-0.863-3.041l-0.862-2.959l-0.863-2.918l-0.781-2.795l-0.822-2.754l-0.739-2.631l-0.74-2.508l-0.657-2.383l-0.657-2.219
		l-0.576-2.057l-0.534-1.848l-0.493-1.645l-0.411-1.48l-0.369-1.232l-0.288-0.945l-0.206-0.74l-0.123-0.41
		c-0.164-0.164-0.328-0.164-0.328-0.164h-0.247h-0.288h-0.369h-0.37h-0.452h-0.493h-0.534h-0.534h-0.617h-0.616h-0.657h-0.658
		h-0.698h-0.699h-0.698h-0.74h-0.698h-0.74h-0.739h-0.699h-0.698h-0.699h-0.657h-0.657h-0.617h-0.616h-0.534h-0.534h-0.493h-0.452
		h-0.37h-0.37h-0.287h-0.206c-0.205,0-0.287,0-0.287,0c-0.041,0.164-0.041,0.697-0.041,0.697v0.863v1.15v1.48v1.727v2.014v2.219
		v2.467v2.631v2.836v3v3.164v3.246v3.412v3.453v3.533v3.617v3.658v3.658v3.658v3.615v3.617v3.535v3.494v3.369v3.289v3.123v3v2.836
		v2.672v2.465v2.221v1.973v1.727v1.479v1.15v0.863v0.535c0.164,0.205,0.287,0.205,0.287,0.205c0.164,0,0.37,0,0.37,0h0.246h0.247
		h0.246h0.329h0.288h0.37h0.328h0.37h0.37h0.411h0.369h0.411h0.411h0.411h0.411h0.411h0.411h0.41h0.37h0.37h0.37h0.37h0.328h0.329
		h0.288h0.287h0.247h0.205c0.205,0,0.37,0,0.37,0c0.123,0,0.205,0,0.205,0C411.637,646,411.637,559.279,411.637,559.279z"/>
</g>
<g id="LINE">
	
		<line fill="none" stroke="#000000" stroke-width="0.7087" stroke-linecap="round" stroke-linejoin="round" stroke-miterlimit="10" x1="475.63" y1="444.898" x2="302.271" y2="146"/>
</g>
<g id="LINE_1_">
	
		<line fill="none" stroke="#000000" stroke-width="0.7087" stroke-linecap="round" stroke-linejoin="round" stroke-miterlimit="10" x1="302.271" y1="146" x2="129.672" y2="444.898"/>
</g>
<g id="LINE_2_">
	
		<line fill="none" stroke="#000000" stroke-width="0.7087" stroke-linecap="round" stroke-linejoin="round" stroke-miterlimit="10" x1="129.672" y1="445.639" x2="474.109" y2="445.639"/>
</g>
<g id="ARC">
	
		<path fill="none" stroke="#000000" stroke-width="0.7087" stroke-linecap="round" stroke-linejoin="round" stroke-miterlimit="10" d="
		M488.288,346.998c0.124-66.438-35.469-127.799-93.173-160.699"/>
</g>
<g id="LINE_3_">
	
		<line fill="none" stroke="#000000" stroke-width="0.7087" stroke-linecap="round" stroke-linejoin="round" stroke-miterlimit="10" x1="488.288" y1="346.32" x2="510.112" y2="346.32"/>
</g>
<g id="ARC_1_">
	
		<path fill="none" stroke="#000000" stroke-width="0.7087" stroke-linecap="round" stroke-linejoin="round" stroke-miterlimit="10" d="
		M510.112,347.08c0.164-74.266-39.456-142.924-103.818-179.975"/>
</g>
<g id="LINE_4_">
	
		<line fill="none" stroke="#000000" stroke-width="0.7087" stroke-linecap="round" stroke-linejoin="round" stroke-miterlimit="10" x1="406.212" y1="167.043" x2="395.649" y2="185.127"/>
</g>
<g id="LINE_5_">
	
		<line fill="none" stroke="#000000" stroke-width="0.7087" stroke-linecap="round" stroke-linejoin="round" stroke-miterlimit="10" x1="433.543" y1="420.691" x2="302.353" y2="194.826"/>
</g>
<g id="LINE_6_">
	
		<line fill="none" stroke="#000000" stroke-width="0.7087" stroke-linecap="round" stroke-linejoin="round" stroke-miterlimit="10" x1="302.353" y1="194.826" x2="171.758" y2="420.691"/>
</g>
<g id="LINE_7_">
	
		<line fill="none" stroke="#000000" stroke-width="0.7087" stroke-linecap="round" stroke-linejoin="round" stroke-miterlimit="10" x1="171.758" y1="421.225" x2="432.393" y2="421.225"/>
</g>
<g id="LWPOLYLINE_8_">
	
		<path fill="none" stroke="#000000" stroke-width="0.7087" stroke-linecap="round" stroke-linejoin="round" stroke-miterlimit="10" d="
		M372.099,225.959c0.083-0.123,0.165-0.287,0.165-0.287l0.123-0.227l0.164-0.287l0.206-0.328l0.205-0.371l0.247-0.432l0.287-0.451
		l0.288-0.514l0.329-0.535l0.328-0.574l0.37-0.596l0.37-0.617l0.37-0.637l0.37-0.658l0.41-0.678l0.411-0.678l0.411-0.699
		l0.411-0.678l0.411-0.699l0.411-0.699l0.411-0.678l0.369-0.678l0.411-0.658l0.37-0.637l0.37-0.617l0.328-0.596l0.37-0.574
		l0.288-0.535l0.329-0.514l0.246-0.451l0.247-0.432l0.246-0.371l0.164-0.328l0.165-0.287l0.164-0.227
		c0.082-0.145,0.123-0.246,0.123-0.246c0.041-0.043,3.74,2.156,3.74,2.156l3.576,2.262l3.534,2.363l3.452,2.445l3.412,2.527
		l3.287,2.609l3.206,2.691l3.124,2.754l3.041,2.836l2.959,2.918l2.918,2.98l2.795,3.062l2.713,3.123l2.589,3.186l2.549,3.246
		l2.466,3.33l2.343,3.369l2.261,3.432l2.178,3.516l2.097,3.555l1.973,3.596l1.891,3.658l1.808,3.719l1.686,3.781l1.644,3.803
		l1.48,3.863l1.438,3.904l1.314,3.945l1.192,4.008l1.109,4.027l1.027,4.068l0.904,4.111l0.781,4.129l0.698,4.193l0.617,4.213
		l0.493,4.232l0.369,4.275l0.288,4.295l0.164,4.314l0.041,4.336c-0.164,0-0.328,0-0.328,0h-0.247h-0.328h-0.37h-0.411h-0.493h-0.534
		h-0.575h-0.617h-0.657h-0.658h-0.698h-0.74h-0.739h-0.781h-0.78h-0.781h-0.781h-0.78h-0.781h-0.781h-0.78h-0.74h-0.739h-0.699
		h-0.657h-0.658h-0.616h-0.575h-0.534h-0.452h-0.452h-0.37h-0.329h-0.246c-0.164,0-0.288,0-0.288,0
		c-0.041,0-0.082-3.719-0.082-3.719l-0.164-3.699l-0.247-3.678l-0.328-3.658l-0.411-3.639l-0.534-3.615l-0.617-3.576l-0.698-3.576
		l-0.822-3.535l-0.863-3.514l-0.986-3.473l-1.068-3.432l-1.15-3.412l-1.274-3.391l-1.315-3.328l-1.397-3.289l-1.521-3.268
		l-1.562-3.225l-1.686-3.166l-1.726-3.145l-1.809-3.082l-1.932-3.041l-1.973-2.98l-2.056-2.938l-2.137-2.898l-2.22-2.836
		l-2.261-2.773l-2.384-2.732l-2.425-2.652l-2.507-2.609l-2.589-2.549l-2.672-2.486l-2.713-2.424l-2.794-2.344l-2.836-2.301
		l-2.96-2.221l-2.959-2.137l-3.082-2.074l-3.124-2.016L372.099,225.959z"/>
</g>
</svg>
