<?xml version="1.0" encoding="utf-8"?>
<!-- Generator: Adobe Illustrator 16.0.1, SVG Export Plug-In . SVG Version: 6.00 Build 0)  -->
<!DOCTYPE svg PUBLIC "-//W3C//DTD SVG 1.0//EN" "http://www.w3.org/TR/2001/REC-SVG-20010904/DTD/svg10.dtd">
<svg version="1.0" id="_x31_" xmlns="http://www.w3.org/2000/svg" xmlns:xlink="http://www.w3.org/1999/xlink" x="0px" y="0px"
	 width="612px" height="792px" viewBox="0 0 612 792" enable-background="new 0 0 612 792" xml:space="preserve">
<g id="LWPOLYLINE">
	
		<path fill="none" stroke="#000000" stroke-width="0.7087" stroke-linecap="round" stroke-linejoin="round" stroke-miterlimit="10" d="
		M230.152,411.664c0,0.143,0,0.588,0,0.588v0.729v0.971v1.236v1.477v1.66v1.863v2.064v2.227v2.389v2.51v2.672v2.754v2.834v2.916
		v2.996v3.035v3.037v3.076v3.078v3.076v3.037v2.955v2.916v2.875v2.752v2.633v2.51v2.389v2.227v2.064v1.863v1.701v1.457v1.215v0.971
		v0.729v0.445c-0.081,0-0.263-0.445-0.263-0.445l-0.324-0.729l-0.445-0.971l-0.547-1.215l-0.647-1.457l-0.749-1.701l-0.83-1.863
		l-0.911-2.064l-0.991-2.227l-1.053-2.389l-1.134-2.51l-1.174-2.633l-1.215-2.752l-1.275-2.875l-1.296-2.916l-1.315-2.955
		l-1.356-3.037l-1.356-3.076l-1.356-3.078l-1.377-3.076l-1.355-3.037l-1.356-3.035l-1.316-2.996l-1.295-2.916l-1.275-2.834
		l-1.215-2.754l-1.175-2.672l-1.133-2.51l-1.053-2.389l-0.992-2.227l-0.911-2.064l-0.83-1.863l-0.749-1.66l-0.647-1.477
		l-0.547-1.236l-0.445-0.971l-0.324-0.729l-0.182-0.445c-0.183-0.143-0.345-0.143-0.345-0.143c-0.202,0-0.445,0-0.445,0h-0.283
		h-0.344h-0.385h-0.405h-0.465h-0.466h-0.526h-0.526h-0.547h-0.587h-0.587h-0.607h-0.607h-0.607h-0.627h-0.628h-0.607h-0.628h-0.587
		h-0.607h-0.566h-0.547h-0.546h-0.507h-0.485h-0.445h-0.426h-0.364h-0.344h-0.304h-0.243c-0.202,0-0.344,0-0.344,0
		c-0.122,0.182-0.122,0.688-0.122,0.688v0.852v1.154v1.436v1.721v1.943v2.188v2.43v2.631v2.793v2.916v3.117v3.24v3.318v3.441v3.482
		v3.562v3.562v3.604v3.604v3.604v3.523v3.521v3.402v3.359v3.199v3.117v2.955v2.793v2.592v2.43v2.186v1.984v1.701v1.457v1.133v0.852
		v0.525c0.183,0.162,0.304,0.162,0.304,0.162c0.162,0,0.365,0,0.365,0h0.202h0.263h0.264h0.283h0.324h0.323h0.345h0.364h0.385h0.385
		h0.384h0.405h0.405h0.384h0.405h0.405h0.404h0.385h0.385h0.385h0.364h0.344h0.324h0.324h0.283h0.263h0.264h0.202
		c0.203,0,0.364,0,0.364,0c0.122,0,0.223,0,0.223,0c0.081-0.162,0.081-0.607,0.081-0.607v-0.729v-0.971v-1.256v-1.457v-1.701v-1.902
		v-2.064v-2.268v-2.389v-2.551v-2.672v-2.795v-2.875v-2.955v-2.996v-3.076V469.5v-3.117v-3.117v-3.078v-3.076v-2.996v-2.955v-2.875
		v-2.793v-2.674v-2.551v-2.389v-2.266v-2.066v-1.902v-1.701v-1.457v-1.254v-0.973v-0.729v-0.445c0.061,0,0.264,0.445,0.264,0.445
		l0.323,0.729l0.446,0.973l0.566,1.254l0.668,1.457l0.749,1.701l0.851,1.902l0.951,2.066l1.012,2.266l1.073,2.389l1.154,2.551
		l1.194,2.674l1.255,2.793l1.296,2.875l1.336,2.955l1.336,2.996l1.396,3.076l1.377,3.078l1.396,3.117l1.397,3.117l1.396,3.078
		l1.377,3.076l1.355,2.996l1.337,2.955l1.295,2.875l1.235,2.795l1.215,2.672l1.133,2.551l1.094,2.389l1.012,2.268l0.932,2.064
		l0.85,1.902l0.77,1.701l0.668,1.457l0.547,1.256l0.445,0.971l0.344,0.729l0.183,0.445c0.202,0.162,0.324,0.162,0.324,0.162
		c0.202,0,0.425,0,0.425,0h0.283h0.324h0.364h0.385h0.445h0.445h0.485h0.507h0.526h0.546h0.567h0.566h0.587h0.588h0.587h0.587h0.587
		h0.587h0.567h0.566h0.547h0.526h0.506h0.485h0.466h0.426h0.384h0.365h0.323h0.283h0.223c0.203,0,0.324,0,0.324,0
		c0.122-0.162,0.122-0.688,0.122-0.688v-0.852v-1.133v-1.457v-1.701v-1.984v-2.186v-2.43v-2.592v-2.793v-2.955v-3.117v-3.199v-3.359
		v-3.402v-3.521v-3.523v-3.604v-3.604v-3.604v-3.562v-3.562v-3.482v-3.441v-3.318v-3.24v-3.117v-2.916v-2.793v-2.631v-2.43v-2.188
		v-1.943v-1.721v-1.436v-1.154v-0.852v-0.506C240.923,411.664,230.152,411.664,230.152,411.664z"/>
</g>
<g id="LWPOLYLINE_1_">
	
		<path fill="none" stroke="#000000" stroke-width="0.7087" stroke-linecap="round" stroke-linejoin="round" stroke-miterlimit="10" d="
		M310.561,507.842c0-0.162,0-0.283,0-0.283c0-0.162,0-0.365,0-0.365v-0.242v-0.242v-0.244v-0.322v-0.285v-0.322v-0.365v-0.365
		v-0.363v-0.404v-0.365v-0.404v-0.406v-0.404v-0.404v-0.404v-0.406v-0.363v-0.406v-0.363v-0.365v-0.363v-0.324v-0.324v-0.283v-0.283
		v-0.244v-0.201c0-0.203,0-0.365,0-0.365c0-0.121,0-0.201,0-0.201c-0.04-0.082-0.242-0.082-0.242-0.082h-0.324h-0.445h-0.567h-0.688
		h-0.729h-0.85h-0.972h-1.013h-1.053h-1.174h-1.174h-1.256h-1.295h-1.336h-1.377h-1.377h-1.376h-1.377h-1.417h-1.377h-1.376h-1.377
		h-1.315h-1.296h-1.255h-1.194h-1.154h-1.072h-1.013h-0.951h-0.851h-0.749h-0.668h-0.566h-0.445h-0.324c-0.202,0-0.264,0-0.264,0
		c0-0.08,0-0.242,0-0.242v-0.283v-0.406v-0.484v-0.607v-0.689v-0.729v-0.85v-0.891v-0.973v-1.012v-1.094v-1.092v-1.135v-1.215
		v-1.174v-1.256v-1.213v-1.256v-1.256v-1.215v-1.213v-1.215V474.4v-1.176v-1.092v-1.053v-1.053v-0.932v-0.932v-0.809v-0.77v-0.689
		v-0.566v-0.486v-0.404v-0.283c0-0.203,0-0.242,0-0.242c0.062,0,0.243,0,0.243,0h0.283h0.426h0.506h0.607h0.688h0.769h0.851h0.932
		h0.991h1.033h1.093h1.154h1.174h1.215h1.234h1.255h1.256h1.295h1.255h1.256h1.255h1.255h1.215h1.174h1.134h1.094h1.052h0.973h0.931
		h0.851h0.769h0.688h0.607h0.526h0.405h0.283c0.202,0,0.243,0,0.243,0c0-0.203,0-0.324,0-0.324c0-0.162,0-0.365,0-0.365v-0.201
		v-0.244v-0.283v-0.283v-0.324v-0.324v-0.324v-0.363v-0.404v-0.365v-0.404v-0.406v-0.404v-0.404v-0.404v-0.365v-0.404v-0.406v-0.363
		v-0.406v-0.363v-0.324v-0.324v-0.324v-0.283v-0.283v-0.242v-0.203c0-0.201,0-0.363,0-0.363c0-0.123,0-0.244,0-0.244
		c-0.041-0.08-0.243-0.08-0.243-0.08h-0.283h-0.405h-0.526h-0.607h-0.688h-0.769h-0.851h-0.931h-0.973h-1.052h-1.094h-1.134h-1.174
		h-1.215h-1.255h-1.255h-1.256h-1.255h-1.295h-1.256h-1.255h-1.234h-1.215h-1.174h-1.154h-1.093h-1.033h-0.991h-0.932h-0.851h-0.769
		h-0.688h-0.607h-0.506h-0.426h-0.283c-0.182,0-0.243,0-0.243,0c0-0.041,0-0.203,0-0.203v-0.283v-0.365v-0.445v-0.566v-0.607v-0.688
		v-0.77v-0.85v-0.891v-0.932v-1.012v-1.014v-1.053v-1.092v-1.135v-1.133v-1.135v-1.174v-1.133v-1.135v-1.133v-1.133v-1.094v-1.053
		v-1.012v-1.014v-0.93v-0.891v-0.852v-0.77v-0.688v-0.607v-0.566v-0.445v-0.365v-0.283c0-0.162,0-0.203,0-0.203
		c0.062,0,0.264,0,0.264,0h0.304h0.445h0.547h0.647h0.749h0.83h0.911h0.991h1.073h1.113h1.175h1.214h1.275h1.296h1.336h1.336h1.377
		h1.336h1.377h1.376h1.336h1.337h1.295h1.255h1.215h1.175h1.133h1.053h1.013h0.891h0.851h0.729h0.647h0.567h0.404h0.324
		c0.202,0,0.283,0,0.283,0c0-0.201,0-0.322,0-0.322c0-0.162,0-0.365,0-0.365v-0.203v-0.242v-0.283v-0.283v-0.324v-0.324v-0.324
		v-0.363v-0.406v-0.363v-0.404v-0.406v-0.404v-0.404v-0.406v-0.363v-0.404v-0.406v-0.385v-0.363v-0.365v-0.344v-0.344v-0.305v-0.303
		v-0.264v-0.242v-0.223c0-0.184,0-0.344,0-0.344c0-0.143,0-0.223,0-0.223c-0.081-0.082-0.364-0.082-0.364-0.082h-0.405h-0.566
		h-0.729h-0.851h-0.972h-1.134h-1.174h-1.336h-1.377h-1.498h-1.538h-1.62h-1.66h-1.7h-1.741h-1.781h-1.821h-1.782h-1.802h-1.801
		h-1.762h-1.761h-1.701h-1.66h-1.619h-1.559h-1.478h-1.397h-1.295h-1.215h-1.094h-0.991h-0.851h-0.708h-0.588h-0.425h-0.243
		c-0.101,0.182-0.101,0.688-0.101,0.688v0.852v1.154v1.436v1.721v1.943v2.188v2.43v2.631v2.793v2.916v3.117v3.24v3.318v3.441v3.482
		v3.562v3.562v3.604v3.604v3.604v3.523v3.521v3.402v3.359v3.199v3.117v2.955v2.793v2.592v2.43v2.186v1.984v1.701v1.457v1.133v0.852
		v0.525C261.652,507.842,310.561,507.842,310.561,507.842z"/>
</g>
<g id="LWPOLYLINE_2_">
	
		<path fill="none" stroke="#000000" stroke-width="0.7087" stroke-linecap="round" stroke-linejoin="round" stroke-miterlimit="10" d="
		M356.19,458.084c0.04-0.082,0.162-0.324,0.162-0.324l0.242-0.406l0.324-0.566l0.364-0.688l0.445-0.811l0.526-0.971l0.607-1.053
		l0.647-1.174l0.688-1.256l0.729-1.336l0.81-1.457l0.81-1.459l0.891-1.578l0.891-1.619l0.891-1.621l0.932-1.699l0.972-1.701
		l0.931-1.74l0.972-1.742l0.972-1.74l0.972-1.74l0.932-1.701l0.932-1.701l0.931-1.658l0.891-1.621l0.851-1.537l0.85-1.498
		l0.77-1.418l0.729-1.336l0.729-1.295l0.647-1.135l0.566-1.072l0.526-0.951l0.446-0.83l0.404-0.689l0.324-0.545l0.202-0.426
		l0.121-0.242c-0.161-0.082-0.323-0.082-0.323-0.082c-0.162,0-0.405,0-0.405,0h-0.283h-0.283h-0.364h-0.365h-0.364h-0.404h-0.445
		h-0.445h-0.445h-0.486h-0.485h-0.486h-0.485h-0.486h-0.485h-0.526h-0.486h-0.485h-0.445h-0.486h-0.445h-0.405h-0.404h-0.405h-0.364
		h-0.324h-0.283h-0.283h-0.243c-0.202,0-0.364,0-0.364,0c-0.162,0-0.202,0-0.202,0c-0.041,0.061-0.162,0.264-0.162,0.264
		l-0.162,0.324l-0.243,0.445l-0.283,0.566l-0.364,0.668L367,414.68l-0.445,0.852l-0.485,0.932l-0.567,1.012l-0.566,1.092
		l-0.607,1.135l-0.647,1.215l-0.648,1.254l-0.729,1.297l-0.688,1.336l-0.729,1.336l-0.729,1.377l-0.729,1.416l-0.77,1.377
		l-0.729,1.418l-0.729,1.375l-0.769,1.377l-0.688,1.377l-0.729,1.295l-0.688,1.297l-0.688,1.254l-0.607,1.215l-0.607,1.135
		l-0.607,1.092l-0.526,1.014l-0.485,0.93l-0.486,0.852l-0.404,0.77l-0.324,0.646l-0.324,0.566l-0.242,0.445l-0.162,0.324
		c-0.122,0.203-0.162,0.283-0.162,0.283c0-0.08-0.122-0.283-0.122-0.283l-0.161-0.324l-0.243-0.445l-0.283-0.566l-0.324-0.646
		l-0.405-0.77l-0.404-0.852l-0.486-0.93l-0.526-1.014l-0.566-1.092l-0.567-1.135l-0.606-1.215l-0.648-1.254l-0.688-1.297
		l-0.647-1.295l-0.688-1.377l-0.729-1.377l-0.688-1.375l-0.729-1.418l-0.729-1.377l-0.688-1.416l-0.729-1.377l-0.688-1.336
		l-0.688-1.336l-0.647-1.297l-0.648-1.254l-0.607-1.215l-0.566-1.135l-0.566-1.092l-0.526-1.012l-0.486-0.932l-0.405-0.852
		l-0.404-0.748l-0.324-0.668l-0.283-0.566l-0.243-0.445l-0.162-0.324c-0.121-0.203-0.161-0.264-0.161-0.264
		c-0.081,0-0.203,0-0.203,0c-0.162,0-0.404,0-0.404,0h-0.243h-0.283h-0.324h-0.364h-0.364h-0.405h-0.445h-0.445h-0.485h-0.486
		h-0.485h-0.526h-0.526h-0.526h-0.526h-0.526h-0.526h-0.526h-0.486h-0.526h-0.485h-0.445h-0.486h-0.404h-0.405h-0.405h-0.323h-0.324
		h-0.324h-0.242h-0.203c-0.161,0-0.283,0-0.283,0c-0.081,0.082,0.081,0.324,0.081,0.324l0.202,0.426l0.324,0.545l0.405,0.689
		l0.445,0.83l0.526,0.951l0.566,1.072l0.647,1.135l0.688,1.295l0.77,1.336l0.77,1.418l0.85,1.498l0.851,1.537l0.891,1.621
		L324.61,428l0.931,1.701l0.932,1.701l0.972,1.74l0.972,1.74l0.931,1.742l0.972,1.74l0.972,1.701l0.932,1.699l0.891,1.621
		l0.891,1.619l0.891,1.578l0.81,1.459l0.811,1.457l0.729,1.336l0.688,1.256l0.647,1.174l0.607,1.053l0.526,0.971l0.445,0.811
		l0.364,0.688l0.324,0.566l0.243,0.406l0.121,0.242c0,0.162-0.162,0.445-0.162,0.445l-0.202,0.445l-0.324,0.607l-0.405,0.729
		l-0.485,0.891l-0.526,1.012l-0.607,1.135l-0.647,1.256l-0.729,1.336l-0.77,1.457l-0.81,1.539l-0.851,1.578l-0.891,1.66l-0.932,1.74
		l-0.972,1.781l-0.931,1.783l-1.013,1.861l-0.972,1.863l-1.012,1.861l-0.972,1.863l-0.972,1.822l-1.013,1.861l-0.931,1.781
		l-0.972,1.781l-0.932,1.742l-0.891,1.66l-0.851,1.619l-0.81,1.498l-0.77,1.457l-0.729,1.336l-0.647,1.256l-0.607,1.133
		l-0.526,1.012l-0.486,0.893l-0.404,0.768l-0.324,0.568l-0.202,0.445l-0.162,0.283c0.162,0.08,0.283,0.08,0.283,0.08
		c0.203,0,0.405,0,0.405,0h0.283h0.283h0.284h0.364h0.364h0.364h0.404h0.405h0.445h0.445h0.445h0.445h0.486h0.445h0.485h0.445h0.486
		h0.445h0.445h0.405h0.445h0.404h0.364h0.365h0.323h0.324h0.283h0.243h0.243c0.161,0,0.323,0,0.323,0c0.203,0,0.243-0.08,0.243-0.08
		l0.121-0.203l0.162-0.365l0.243-0.525l0.324-0.607l0.364-0.729l0.445-0.85l0.445-0.932l0.526-1.053l0.566-1.135l0.607-1.213
		l0.648-1.256l0.647-1.336l0.688-1.377l0.729-1.457l0.729-1.457l0.77-1.539l0.77-1.498l0.769-1.58l0.77-1.537l0.77-1.539l0.77-1.58
		l0.769-1.498l0.77-1.498l0.729-1.498l0.729-1.416l0.688-1.418l0.648-1.336l0.647-1.254l0.607-1.215l0.566-1.135l0.526-1.012
		l0.445-0.971l0.445-0.852l0.365-0.729l0.323-0.607l0.243-0.525l0.162-0.365l0.121-0.201c0.081,0,0.202,0.201,0.202,0.201
		l0.203,0.365l0.243,0.525l0.364,0.607l0.404,0.729l0.445,0.852l0.526,0.971l0.526,1.012l0.607,1.135l0.647,1.215l0.688,1.254
		l0.729,1.336l0.769,1.418l0.77,1.416l0.81,1.498l0.81,1.498l0.811,1.498l0.85,1.58l0.81,1.539l0.851,1.537l0.851,1.58l0.81,1.498
		l0.81,1.539l0.81,1.457l0.77,1.457l0.77,1.377l0.729,1.336l0.647,1.256l0.688,1.213l0.607,1.135l0.526,1.053l0.526,0.932
		l0.445,0.85l0.405,0.729l0.323,0.607l0.283,0.525l0.203,0.365l0.121,0.203c0.162,0.08,0.283,0.08,0.283,0.08
		c0.162,0,0.364,0,0.364,0h0.243h0.283h0.324h0.364h0.364h0.405h0.445h0.445h0.486h0.485h0.526h0.486h0.526h0.526h0.525h0.526h0.526
		h0.526h0.526h0.486h0.485h0.486h0.445h0.445h0.405h0.364h0.364h0.324h0.283h0.242h0.203c0.202,0,0.323,0,0.323,0
		C384.369,507.842,356.19,458.084,356.19,458.084z"/>
</g>
<g id="LWPOLYLINE_3_">
	
		<path fill="none" stroke="#000000" stroke-width="0.7087" stroke-linecap="round" stroke-linejoin="round" stroke-miterlimit="10" d="
		M386.029,411.664c0,0.162,0,0.305,0,0.305c0,0.16,0,0.344,0,0.344v0.223v0.242v0.264v0.303v0.305v0.344v0.344v0.365v0.363v0.385
		v0.406v0.404v0.363v0.406v0.404v0.404v0.406v0.404v0.363v0.406v0.363v0.324v0.324v0.324v0.283v0.283v0.242v0.203
		c0,0.203,0,0.365,0,0.365c0,0.121,0,0.242,0,0.242c0.202,0.08,0.405,0.08,0.405,0.08h0.283h0.364h0.445h0.526h0.567h0.606h0.688
		h0.729h0.769h0.81h0.811h0.85h0.891h0.932h0.891h0.932h0.931h0.932h0.931h0.932h0.891h0.891h0.851h0.85h0.811h0.769h0.688h0.688
		h0.647h0.567h0.485h0.445h0.364h0.324h0.202c0.162,0.162,0.162,0.607,0.162,0.607v0.73v1.053v1.254v1.539v1.74v1.943v2.146v2.309
		v2.469v2.631v2.754v2.875v2.955v3.037v3.117v3.158v3.158v3.197v3.199v3.199v3.158v3.117v3.037v2.955v2.834v2.752v2.633v2.469v2.35
		v2.145v1.943v1.742v1.498v1.295v1.012v0.77v0.445c0.202,0.162,0.364,0.162,0.364,0.162c0.203,0,0.405,0,0.405,0h0.243h0.283h0.323
		h0.324h0.364h0.405h0.404h0.405h0.445h0.445h0.445h0.445h0.486h0.445h0.485h0.445h0.445h0.486h0.405h0.445h0.404h0.405h0.404h0.365
		h0.323h0.324h0.283h0.243h0.202c0.202,0,0.364,0,0.364,0c0.203-0.162,0.203-0.607,0.203-0.607v-0.77v-1.012v-1.295v-1.498v-1.742
		v-1.943v-2.145v-2.35v-2.469v-2.633v-2.752v-2.834v-2.955v-3.037v-3.117v-3.158v-3.199v-3.199v-3.197v-3.158v-3.158v-3.117v-3.037
		v-2.955v-2.875v-2.754v-2.631v-2.469v-2.309v-2.146v-1.943v-1.74v-1.539v-1.254v-1.053v-0.73v-0.445
		c0.161-0.162,0.364-0.162,0.364-0.162h0.283h0.364h0.445h0.486h0.526h0.606h0.648h0.729h0.729h0.77h0.81h0.851h0.851h0.85h0.891
		h0.891h0.932h0.891h0.891h0.891h0.891h0.851h0.81h0.81h0.77h0.77h0.688h0.647h0.607h0.526h0.526h0.404h0.364h0.284h0.202
		c0.202-0.201,0.202-0.322,0.202-0.322c0-0.162,0-0.365,0-0.365v-0.203v-0.242v-0.283v-0.283v-0.324v-0.324v-0.324v-0.363v-0.406
		v-0.363v-0.404v-0.406v-0.404v-0.404v-0.406v-0.363v-0.404v-0.406v-0.385v-0.363v-0.365v-0.344v-0.344v-0.305v-0.303v-0.264v-0.242
		v-0.223c0-0.184,0-0.344,0-0.344c0-0.143,0-0.223,0-0.223C447.408,411.664,386.029,411.664,386.029,411.664z"/>
</g>
<g id="LWPOLYLINE_4_">
	
		<path fill="none" stroke="#000000" stroke-width="0.7087" stroke-linecap="round" stroke-linejoin="round" stroke-miterlimit="10" d="
		M77.576,643.84c0.101,0,0.223,0,0.223,0c0.182,0,0.384,0,0.384,0h0.243h0.304h0.304h0.364h0.385h0.405h0.425h0.466h0.466h0.485
		h0.506h0.507h0.525h0.526h0.526h0.526h0.526h0.526h0.507h0.506h0.485h0.466h0.466h0.425h0.426h0.384h0.345h0.323h0.284h0.242h0.223
		c0.162,0,0.284,0,0.284,0c0.142-0.162,0.242-0.607,0.242-0.607l0.162-0.729l0.243-1.012l0.283-1.256l0.345-1.498l0.384-1.701
		l0.426-1.902l0.485-2.105l0.526-2.268l0.547-2.469l0.587-2.551l0.607-2.713l0.647-2.795l0.648-2.914l0.688-2.955l0.688-3.078
		l0.709-3.076l0.708-3.117l0.709-3.119l0.729-3.156l0.709-3.119l0.708-3.076l0.688-3.078l0.668-2.955l0.668-2.914l0.648-2.795
		l0.606-2.713l0.588-2.551l0.546-2.469l0.526-2.268l0.466-2.105l0.445-1.902l0.385-1.701l0.344-1.498l0.284-1.254l0.223-1.014
		l0.182-0.729l0.102-0.445c0.061,0,0.162,0.445,0.162,0.445l0.162,0.729l0.223,1.014l0.263,1.254l0.324,1.498l0.385,1.701
		l0.404,1.902l0.466,2.105l0.485,2.268l0.526,2.469l0.567,2.551l0.587,2.713l0.607,2.795l0.647,2.914l0.648,2.955l0.647,3.078
		l0.688,3.076l0.668,3.119l0.688,3.156l0.688,3.119l0.669,3.117l0.688,3.076l0.648,3.078l0.647,2.955l0.647,2.914l0.607,2.795
		l0.587,2.713l0.567,2.551l0.526,2.469l0.485,2.268l0.466,2.105l0.405,1.902l0.385,1.701l0.323,1.498l0.264,1.256l0.223,1.012
		l0.162,0.729l0.101,0.445c0.142,0.162,0.264,0.162,0.264,0.162c0.162,0,0.364,0,0.364,0h0.263h0.284h0.323h0.345h0.384h0.426h0.425
		h0.445h0.486h0.485h0.506h0.507h0.526h0.526h0.526h0.526h0.526h0.506h0.526h0.506h0.485h0.466h0.445h0.445h0.405h0.385h0.344h0.324
		h0.304h0.243h0.202c0.182,0,0.304,0,0.304,0c0.142-0.203,0.283-0.689,0.283-0.689l0.223-0.85l0.283-1.174l0.385-1.418l0.445-1.74
		l0.506-1.943l0.567-2.186l0.627-2.43l0.669-2.592l0.729-2.793l0.749-2.955l0.81-3.119l0.83-3.238l0.87-3.32l0.871-3.4l0.91-3.523
		l0.911-3.521l0.932-3.604l0.931-3.604l0.932-3.604l0.932-3.604l0.91-3.521l0.911-3.523l0.891-3.4l0.851-3.361l0.851-3.197
		l0.789-3.117l0.77-2.957l0.729-2.793l0.668-2.592l0.628-2.428l0.566-2.188l0.506-1.984l0.445-1.699l0.365-1.418l0.304-1.174
		l0.223-0.85l0.121-0.527c-0.142-0.162-0.304-0.162-0.304-0.162c-0.183,0-0.405,0-0.405,0h-0.242h-0.284h-0.323h-0.324h-0.364
		h-0.385h-0.405h-0.404h-0.445h-0.445h-0.445h-0.466h-0.445h-0.486h-0.465h-0.445h-0.466h-0.445h-0.445h-0.445h-0.405h-0.405h-0.384
		h-0.365h-0.323h-0.324h-0.283h-0.243h-0.223c-0.202,0-0.344,0-0.344,0c-0.203,0-0.223,0.162-0.223,0.162l-0.122,0.445l-0.162,0.729
		l-0.223,0.973l-0.283,1.256l-0.344,1.457l-0.385,1.699l-0.445,1.904l-0.466,2.064l-0.526,2.268l-0.547,2.43l-0.587,2.51
		l-0.627,2.672l-0.628,2.793l-0.668,2.875l-0.668,2.955l-0.709,2.996l-0.688,3.078l-0.709,3.076l-0.729,3.117l-0.709,3.119
		l-0.708,3.076l-0.709,3.078l-0.688,2.996l-0.688,2.955l-0.648,2.875l-0.647,2.793l-0.607,2.672l-0.587,2.551l-0.567,2.389
		l-0.506,2.268l-0.485,2.064l-0.426,1.902l-0.404,1.701l-0.324,1.457l-0.283,1.256l-0.243,0.971l-0.162,0.73l-0.101,0.445
		c-0.062,0-0.162-0.445-0.162-0.445l-0.142-0.73l-0.203-0.971l-0.242-1.256l-0.304-1.457l-0.324-1.701l-0.385-1.902l-0.425-2.064
		l-0.445-2.268l-0.486-2.389l-0.506-2.551l-0.526-2.672l-0.566-2.793l-0.567-2.875l-0.587-2.955l-0.607-2.996l-0.607-3.078
		l-0.627-3.076l-0.607-3.119l-0.628-3.117l-0.627-3.076l-0.607-3.078l-0.607-2.996l-0.587-2.955l-0.567-2.875l-0.566-2.793
		l-0.526-2.672l-0.506-2.51l-0.486-2.43l-0.445-2.268l-0.425-2.064l-0.385-1.904l-0.324-1.699l-0.304-1.457l-0.243-1.256
		l-0.202-0.973l-0.142-0.729l-0.081-0.445c-0.162-0.162-0.283-0.162-0.283-0.162c-0.202,0-0.425,0-0.425,0h-0.284h-0.323h-0.364
		h-0.385h-0.445h-0.445h-0.486h-0.506h-0.526h-0.547h-0.566h-0.567h-0.587h-0.587h-0.587h-0.587h-0.587h-0.588h-0.566h-0.567h-0.546
		h-0.526h-0.506h-0.486h-0.466h-0.425h-0.385h-0.364h-0.324h-0.283h-0.223c-0.202,0-0.344,0-0.344,0
		c-0.142,0.162-0.243,0.607-0.243,0.607l-0.162,0.729l-0.243,0.973l-0.283,1.256l-0.324,1.457l-0.404,1.699l-0.425,1.904
		l-0.486,2.064l-0.506,2.268l-0.567,2.43l-0.587,2.51l-0.607,2.672l-0.647,2.793l-0.647,2.875l-0.688,2.955l-0.688,2.996
		l-0.709,3.078l-0.708,3.076L94.58,589.1l-0.729,3.119l-0.708,3.076l-0.688,3.078l-0.709,2.996l-0.668,2.955l-0.668,2.875
		l-0.628,2.793l-0.627,2.672l-0.587,2.551l-0.547,2.389l-0.526,2.268l-0.466,2.064l-0.445,1.902l-0.385,1.701l-0.344,1.457
		l-0.283,1.256l-0.223,0.971l-0.183,0.73l-0.102,0.445c-0.061,0-0.161-0.445-0.161-0.445l-0.142-0.73l-0.203-0.971l-0.263-1.256
		l-0.324-1.457l-0.344-1.701l-0.405-1.902l-0.425-2.064l-0.486-2.268l-0.506-2.389l-0.526-2.551l-0.566-2.672l-0.588-2.793
		l-0.587-2.875l-0.627-2.955l-0.628-2.996l-0.647-3.078l-0.648-3.076l-0.647-3.119l-0.668-3.117l-0.647-3.076l-0.628-3.078
		l-0.647-2.996l-0.607-2.955l-0.607-2.875l-0.587-2.793l-0.567-2.672l-0.526-2.51l-0.506-2.43l-0.466-2.268l-0.445-2.064
		l-0.404-1.904l-0.345-1.699l-0.323-1.457l-0.243-1.256l-0.223-0.973l-0.142-0.729l-0.102-0.445
		c-0.121-0.162-0.223-0.162-0.223-0.162c-0.162,0-0.344,0-0.344,0h-0.223h-0.243h-0.283h-0.324h-0.324h-0.364h-0.385h-0.404h-0.426
		h-0.425h-0.445h-0.445h-0.466h-0.466h-0.465h-0.466H60.47h-0.445h-0.466h-0.425h-0.445h-0.405h-0.404h-0.385H57.13h-0.345h-0.304
		h-0.283h-0.263h-0.203c-0.202,0-0.344,0-0.344,0C55.187,547.641,77.576,643.84,77.576,643.84z"/>
</g>
<g id="LWPOLYLINE_5_">
	
		<path fill="none" stroke="#000000" stroke-width="0.7087" stroke-linecap="round" stroke-linejoin="round" stroke-miterlimit="10" d="
		M192.823,547.641c-0.183,0-0.324,0-0.324,0c-0.161,0-0.364,0-0.364,0h-0.243h-0.263h-0.304h-0.304h-0.344h-0.345h-0.385h-0.384
		h-0.405h-0.405h-0.425h-0.425h-0.445h-0.426h-0.445h-0.425h-0.425h-0.426h-0.425h-0.385h-0.404h-0.365h-0.364h-0.323h-0.324h-0.283
		h-0.264h-0.242c-0.203,0-0.385,0-0.385,0c-0.142,0-0.243,0-0.243,0c-0.081,0.162-0.081,0.689-0.081,0.689v0.85v1.174v1.418v1.699
		v1.984v2.188v2.428v2.592v2.793v2.957v3.117v3.197v3.361v3.4v3.523v3.521v3.604v3.604v3.604v3.604v3.521v3.523v3.4v3.32v3.238
		v3.119v2.955v2.793v2.592v2.43v2.186v1.943v1.74v1.418v1.174v0.85v0.486c0.183,0.203,0.324,0.203,0.324,0.203
		c0.182,0,0.385,0,0.385,0h0.242h0.264h0.283h0.324h0.323h0.364h0.365h0.404h0.385h0.425h0.426h0.425h0.425h0.445h0.426h0.445h0.425
		h0.425h0.405h0.405h0.384h0.385h0.345h0.344h0.304h0.304h0.263h0.243c0.203,0,0.364,0,0.364,0c0.142,0,0.243,0,0.243,0
		C192.823,643.84,192.823,547.641,192.823,547.641z"/>
</g>
<g id="LWPOLYLINE_6_">
	
		<path fill="none" stroke="#000000" stroke-width="0.7087" stroke-linecap="round" stroke-linejoin="round" stroke-miterlimit="10" d="
		M265.802,547.641c0,0.162,0,0.607,0,0.607v0.729v0.973v1.215v1.457v1.701v1.861v2.066v2.227v2.389v2.51v2.631v2.754v2.875v2.914
		v2.957v3.035v3.078v3.076v3.078v3.035v3.037v2.996v2.916v2.834v2.752v2.672v2.512v2.389v2.227v2.064v1.863v1.658v1.459v1.254v0.973
		v0.729v0.445c-0.061,0-0.263-0.445-0.263-0.445l-0.324-0.729l-0.445-0.973l-0.526-1.254l-0.647-1.459l-0.749-1.658l-0.83-1.863
		l-0.932-2.064l-0.992-2.227l-1.052-2.389l-1.114-2.512l-1.174-2.672l-1.234-2.752l-1.256-2.834l-1.295-2.916l-1.337-2.996
		l-1.336-3.037l-1.376-3.035l-1.356-3.078l-1.377-3.076l-1.356-3.078l-1.336-3.035l-1.336-2.957l-1.296-2.914l-1.275-2.875
		l-1.214-2.754l-1.175-2.631l-1.113-2.51l-1.073-2.389l-0.991-2.227l-0.911-2.066l-0.83-1.861l-0.749-1.701l-0.647-1.457
		l-0.547-1.215l-0.425-0.973l-0.324-0.729l-0.202-0.445c-0.183-0.162-0.324-0.162-0.324-0.162c-0.202,0-0.445,0-0.445,0h-0.304
		h-0.344h-0.365h-0.425h-0.445h-0.485h-0.507h-0.546h-0.547h-0.566h-0.607h-0.588h-0.627h-0.607h-0.628h-0.627h-0.607h-0.607h-0.607
		h-0.587h-0.587h-0.547h-0.547H215.8h-0.466h-0.465h-0.405h-0.385h-0.344h-0.284h-0.263c-0.183,0-0.344,0-0.344,0
		c-0.102,0.162-0.102,0.689-0.102,0.689v0.85v1.174v1.418v1.699v1.984v2.188v2.428v2.592v2.793v2.957v3.117v3.197v3.361v3.4v3.523
		v3.521v3.604v3.604v3.604v3.604v3.521v3.523v3.4v3.32v3.238v3.119v2.955v2.793v2.592v2.43v2.186v1.943v1.74v1.418v1.174v0.85v0.486
		c0.162,0.203,0.283,0.203,0.283,0.203c0.162,0,0.364,0,0.364,0h0.223h0.243h0.264h0.304h0.303h0.345h0.344h0.364h0.365h0.384h0.385
		h0.405h0.404h0.405h0.405h0.404h0.385h0.405h0.385h0.364h0.364h0.344h0.324h0.324h0.283h0.283h0.243h0.223c0.182,0,0.344,0,0.344,0
		c0.122,0,0.223,0,0.223,0c0.081-0.162,0.081-0.607,0.081-0.607v-0.729v-1.012v-1.215v-1.498v-1.66v-1.904v-2.104v-2.229v-2.428
		v-2.551v-2.674v-2.752v-2.875v-2.955v-3.037v-3.037v-3.117v-3.076v-3.117v-3.078v-3.076v-2.996v-2.957v-2.873v-2.795v-2.672v-2.551
		v-2.389v-2.268v-2.064v-1.902v-1.701v-1.457v-1.256v-0.971v-0.729v-0.445c0.061,0,0.264,0.445,0.264,0.445l0.344,0.729l0.445,0.971
		l0.547,1.256l0.668,1.457l0.77,1.701l0.85,1.902l0.932,2.064l1.012,2.268l1.094,2.389l1.133,2.551l1.215,2.672l1.235,2.795
		l1.295,2.873l1.337,2.957l1.355,2.996l1.377,3.076l1.396,3.078l1.397,3.117l1.396,3.076l1.377,3.117l1.376,3.037l1.356,3.037
		l1.336,2.955l1.296,2.875l1.255,2.752l1.194,2.674l1.154,2.551l1.073,2.428l1.012,2.229l0.951,2.104l0.851,1.904l0.749,1.66
		l0.668,1.498l0.567,1.215l0.445,1.012l0.323,0.729l0.203,0.445c0.182,0.162,0.323,0.162,0.323,0.162c0.183,0,0.426,0,0.426,0h0.263
		h0.324h0.364h0.404h0.426h0.445h0.485h0.507h0.525h0.547h0.567h0.566h0.587h0.587h0.588h0.606h0.567h0.587h0.587h0.547h0.547h0.526
		h0.506h0.485h0.466h0.425h0.385h0.364h0.324h0.283h0.243c0.183,0,0.324,0,0.324,0c0.101-0.203,0.101-0.689,0.101-0.689v-0.85
		v-1.174v-1.418v-1.74v-1.943v-2.186v-2.43v-2.592v-2.793v-2.955v-3.119v-3.238v-3.32v-3.4v-3.523v-3.521v-3.604v-3.604v-3.604
		v-3.604v-3.521v-3.523v-3.4v-3.361v-3.197v-3.117v-2.957v-2.793v-2.592v-2.428v-2.188v-1.984v-1.699v-1.418v-1.174v-0.85v-0.527
		C276.571,547.641,265.802,547.641,265.802,547.641z"/>
</g>
<g id="LWPOLYLINE_7_">
	
		<path fill="none" stroke="#000000" stroke-width="0.7087" stroke-linecap="round" stroke-linejoin="round" stroke-miterlimit="10" d="
		M308.9,558.41c0.122,0,0.284,0,0.284,0c0.162,0,0.404,0,0.404,0h0.283h0.324h0.364h0.405h0.404h0.486h0.486h0.485h0.526h0.566
		h0.526h0.607h0.567h0.566h0.607h0.607h0.566h0.567h0.607h0.526h0.566h0.526h0.486h0.485h0.486h0.404h0.405h0.364h0.324h0.283h0.243
		c0.161,0,0.323,0,0.323,0c0.122,0,1.013,0.041,1.013,0.041l0.891,0.041l0.891,0.041l0.851,0.08l0.81,0.121l0.81,0.162l0.77,0.162
		l0.729,0.203l0.729,0.242l0.729,0.283l0.648,0.283l0.647,0.324l0.647,0.365l0.607,0.404l0.567,0.404l0.566,0.445l0.526,0.527
		l0.526,0.525l0.486,0.568l0.445,0.605l0.445,0.648l0.404,0.648l0.405,0.729l0.364,0.77l0.364,0.77l0.324,0.85l0.283,0.891
		l0.283,0.891l0.243,0.973l0.243,1.012l0.202,1.053l0.202,1.094l0.162,1.133l0.122,1.174l0.121,1.215l0.121,1.295l0.081,1.336
		l0.041,1.338l0.04,1.416v1.498c0,0.121,0,0.283,0,0.283v0.244v0.283v0.322v0.406v0.445v0.445v0.525v0.568v0.566v0.646v0.607v0.689
		v0.688v0.689v0.688v0.729v0.688v0.73v0.688v0.729v0.689v0.688v0.648v0.646v0.607v0.566v0.568v0.525v0.486v0.404v0.406v0.322v0.324
		v0.203c0,0.162,0,0.283,0,0.283c0,0.041,0,1.66,0,1.66l-0.04,1.619l-0.041,1.539l-0.081,1.457l-0.121,1.418l-0.121,1.375
		l-0.162,1.297l-0.162,1.295l-0.202,1.174l-0.243,1.174l-0.243,1.094l-0.283,1.053l-0.324,1.012l-0.323,0.973l-0.365,0.932
		l-0.404,0.85l-0.405,0.809l-0.445,0.77l-0.485,0.729l-0.526,0.689l-0.526,0.648l-0.567,0.605l-0.607,0.568l-0.647,0.525
		l-0.688,0.527l-0.688,0.445l-0.769,0.404l-0.77,0.365l-0.81,0.363l-0.851,0.283l-0.85,0.283l-0.932,0.244l-0.972,0.201
		l-0.972,0.203l-1.013,0.121l-1.093,0.121l-1.093,0.123l-1.134,0.039l-1.215,0.041l-1.215,0.041c-0.162,0-0.323,0-0.323,0
		c-0.162,0-0.365,0-0.365,0h-0.242h-0.284h-0.283h-0.323h-0.324h-0.364h-0.364h-0.405h-0.405h-0.404h-0.405h-0.445h-0.404h-0.445
		h-0.445h-0.446h-0.404h-0.445h-0.405h-0.404h-0.364h-0.405h-0.324h-0.364h-0.324h-0.283h-0.243h-0.242c-0.203,0-0.405,0-0.405,0
		c-0.121,0-0.202,0-0.202,0C308.9,633.07,308.9,558.41,308.9,558.41z"/>
</g>
<g id="LWPOLYLINE_8_">
	
		<path fill="none" stroke="#000000" stroke-width="0.7087" stroke-linecap="round" stroke-linejoin="round" stroke-miterlimit="10" d="
		M297.321,643.84c0.122,0,0.324,0,0.324,0h0.243h0.323h0.364h0.405h0.485h0.526h0.567h0.607h0.607h0.688h0.688h0.729h0.729h0.77
		h0.729h0.81h0.77h0.769h0.77h0.77h0.729h0.77h0.688h0.729h0.647h0.648h0.607h0.566h0.485h0.486h0.445h0.364h0.283h0.243
		c0.202,0,0.324,0,0.324,0c0.04,0,1.255,0,1.255,0l1.215-0.041l1.174-0.041l1.174-0.039l1.134-0.082l1.094-0.08l1.093-0.121
		l1.053-0.123l1.053-0.121l1.012-0.121l0.972-0.162l0.972-0.203l0.972-0.201l0.892-0.203l0.931-0.203l0.851-0.242l0.85-0.283
		l0.851-0.242l0.81-0.324l0.77-0.283l0.77-0.324l0.769-0.324l0.729-0.365l0.688-0.363l0.688-0.365l0.648-0.404l0.647-0.404
		l0.607-0.445l0.607-0.445l0.566-0.445l0.567-0.486l0.526-0.486l0.526-0.486l0.485-0.525l0.486-0.527l0.445-0.566l0.445-0.566
		l0.445-0.607l0.404-0.566l0.364-0.607l0.324-0.527l0.283-0.525l0.284-0.527l0.283-0.566l0.283-0.607l0.243-0.607l0.243-0.607
		l0.242-0.646l0.243-0.689l0.243-0.688l0.202-0.729l0.202-0.729l0.203-0.77l0.202-0.77l0.162-0.811l0.202-0.85l0.162-0.85
		l0.162-0.891l0.162-0.891l0.121-0.932l0.121-0.973l0.162-0.971l0.122-1.012l0.081-1.053l0.121-1.094l0.081-1.094l0.121-1.133
		l0.081-1.135l0.081-1.215l0.04-1.213l0.081-1.215l0.041-1.297l0.04-1.295l0.041-1.336l0.04-1.377l0.041-1.416l0.04-1.459v-1.457
		v-1.498v-1.539v-0.283v-0.324v-0.404v-0.445l-0.04-0.486v-0.525l-0.041-0.566v-0.607l-0.04-0.689l-0.041-0.688l-0.04-0.729
		l-0.041-0.77l-0.081-0.77l-0.04-0.811l-0.04-0.85l-0.081-0.85l-0.081-0.852l-0.081-0.891l-0.081-0.93l-0.081-0.891l-0.121-0.932
		l-0.081-0.932l-0.122-0.932l-0.121-0.932l-0.121-0.93l-0.122-0.891l-0.121-0.932l-0.162-0.891l-0.162-0.891l-0.162-0.891
		l-0.162-0.852l-0.161-0.85l-0.162-0.811l-0.203-0.768l-0.202-0.77l-0.202-0.729l-0.243-0.689l-0.202-0.688l-0.243-0.607
		l-0.243-0.566l-0.364-0.811l-0.404-0.77l-0.405-0.729l-0.405-0.729l-0.445-0.729l-0.445-0.648l-0.445-0.648l-0.485-0.646
		l-0.486-0.607l-0.485-0.566l-0.486-0.568l-0.526-0.525l-0.566-0.527l-0.526-0.484l-0.567-0.486l-0.566-0.445l-0.607-0.445
		l-0.607-0.404l-0.607-0.365l-0.607-0.365l-0.647-0.363l-0.688-0.324l-0.647-0.324l-0.688-0.283l-0.688-0.242l-0.729-0.283
		l-0.729-0.203l-0.77-0.242l-0.729-0.162l-0.77-0.203l-0.81-0.162l-0.81-0.121l-0.81-0.121l-0.851-0.123l-0.851-0.08l-0.85-0.08
		l-0.891-0.041l-0.892-0.041l-0.891-0.041h-0.931c-0.203,0-0.445,0-0.445,0h-0.324h-0.445H323.8h-0.566h-0.647h-0.729h-0.769h-0.81
		h-0.851h-0.932h-0.931h-0.972h-1.013h-1.012h-1.053h-1.053h-1.053h-1.053h-1.053h-1.053h-1.012h-1.013h-0.972h-0.931h-0.932h-0.851
		h-0.81h-0.77h-0.729h-0.647h-0.567h-0.485h-0.445h-0.324h-0.243C297.321,547.641,297.321,643.84,297.321,643.84z"/>
</g>
<g id="LWPOLYLINE_9_">
	
		<path fill="none" stroke="#000000" stroke-width="0.7087" stroke-linecap="round" stroke-linejoin="round" stroke-miterlimit="10" d="
		M404.289,645.5l1.458-0.041l1.457-0.041l1.377-0.121l1.377-0.121l1.295-0.203l1.296-0.242l1.255-0.242l1.215-0.324l1.174-0.365
		l1.134-0.404l1.094-0.445l1.093-0.486l1.012-0.566l0.972-0.566l0.972-0.648l0.892-0.688l0.891-0.73l0.85-0.768l0.81-0.852
		l0.77-0.85l0.729-0.932l0.688-0.971l0.648-1.053l0.607-1.053l0.566-1.135l0.566-1.174l0.486-1.256l0.485-1.295l0.405-1.336
		l0.405-1.377l0.364-1.457l0.283-1.498l0.283-1.578l0.243-1.621l0.202-1.66l0.202-1.74l0.122-1.781l0.081-1.822l0.04-1.902
		l0.041-1.984c0-0.041,0-0.242,0-0.242v-0.244v-0.404v-0.445v-0.566v-0.648v-0.729v-0.77v-0.85v-0.932v-0.971v-1.014v-1.053v-1.092
		v-1.135v-1.133v-1.174v-1.176v-1.174v-1.174v-1.174v-1.174v-1.135v-1.133v-1.094v-1.053v-1.012v-0.971v-0.932v-0.852v-0.768v-0.73
		v-0.646v-0.566v-0.445v-0.406v-0.242c0-0.203,0-0.244,0-0.244l-0.041-1.416l-0.04-1.377l-0.081-1.377l-0.122-1.336l-0.202-1.295
		l-0.202-1.256l-0.243-1.254l-0.283-1.215l-0.283-1.174l-0.364-1.135l-0.405-1.133l-0.405-1.094l-0.485-1.012l-0.486-1.053
		l-0.566-0.973l-0.566-0.93l-0.607-0.932l-0.648-0.891l-0.688-0.852l-0.729-0.809l-0.77-0.77l-0.81-0.729l-0.85-0.689l-0.891-0.688
		l-0.892-0.607l-0.972-0.607l-0.972-0.566l-1.012-0.486l-1.093-0.486l-1.094-0.445l-1.134-0.363l-1.174-0.365l-1.215-0.324
		l-1.255-0.283l-1.296-0.242l-1.295-0.162l-1.377-0.162l-1.377-0.121l-1.457-0.041l-1.458-0.041l-1.498,0.041l-1.417,0.041
		l-1.417,0.121l-1.336,0.162l-1.336,0.162l-1.296,0.242l-1.255,0.283l-1.215,0.324l-1.174,0.365l-1.134,0.363l-1.093,0.445
		l-1.053,0.486l-1.053,0.486l-0.972,0.566l-0.972,0.607l-0.891,0.607l-0.892,0.688l-0.85,0.689l-0.77,0.729l-0.77,0.77l-0.729,0.809
		l-0.688,0.852l-0.647,0.891l-0.647,0.932l-0.567,0.93l-0.526,0.973l-0.526,1.053l-0.445,1.012l-0.445,1.094l-0.404,1.133
		l-0.324,1.135l-0.324,1.174l-0.283,1.215l-0.243,1.254l-0.202,1.256l-0.162,1.295l-0.121,1.336l-0.122,1.377l-0.04,1.377
		l-0.041,1.416c0,0.041,0,0.244,0,0.244v0.242v0.406v0.445v0.566v0.646v0.73v0.768v0.852v0.932v0.971v1.012v1.053v1.094v1.133v1.135
		v1.174v1.174v1.174v1.174v1.176v1.174v1.133v1.135v1.092v1.053v1.014v0.971v0.932v0.85v0.77v0.729v0.648v0.566v0.445v0.404v0.244
		c0,0.201,0,0.242,0,0.242l0.041,1.984l0.04,1.902l0.122,1.822l0.121,1.781l0.162,1.74l0.202,1.66l0.243,1.621l0.283,1.578
		l0.324,1.498l0.324,1.457l0.404,1.377l0.445,1.336l0.445,1.295l0.526,1.256l0.526,1.174l0.567,1.135l0.647,1.053l0.647,1.053
		l0.688,0.971l0.729,0.932l0.77,0.85l0.77,0.852l0.85,0.768l0.892,0.73l0.891,0.688l0.972,0.648l0.972,0.566l1.053,0.566
		l1.053,0.486l1.093,0.445l1.134,0.404l1.174,0.365l1.215,0.324l1.255,0.242l1.296,0.242l1.336,0.203l1.336,0.121l1.417,0.121
		l1.417,0.041L404.289,645.5z"/>
</g>
<g id="LWPOLYLINE_10_">
	
		<path fill="none" stroke="#000000" stroke-width="0.7087" stroke-linecap="round" stroke-linejoin="round" stroke-miterlimit="10" d="
		M404.289,635.539h-0.891l-0.81-0.039l-0.81-0.082l-0.81-0.08l-0.77-0.082l-0.77-0.121l-0.729-0.162l-0.688-0.203l-0.688-0.201
		l-0.688-0.244l-0.606-0.283l-0.648-0.324l-0.607-0.322l-0.566-0.365l-0.526-0.404l-0.566-0.445l-0.486-0.486l-0.485-0.527
		l-0.486-0.525l-0.445-0.607l-0.405-0.607l-0.404-0.688l-0.405-0.689l-0.364-0.77l-0.324-0.768l-0.323-0.852l-0.284-0.85
		l-0.283-0.932l-0.242-0.971l-0.243-1.014l-0.203-1.053l-0.161-1.133l-0.162-1.133l-0.162-1.215l-0.121-1.256l-0.081-1.336
		l-0.081-1.336l-0.041-1.418l-0.04-1.498v-1.498c0-0.08,0-0.242,0-0.242v-0.283v-0.404v-0.486v-0.566v-0.648v-0.729v-0.85v-0.852
		v-0.932v-1.012v-1.053v-1.053v-1.133v-1.174v-1.174v-1.176v-1.215v-1.213v-1.215v-1.174v-1.215v-1.176v-1.133v-1.133v-1.094v-1.053
		v-0.973v-0.93v-0.891v-0.811v-0.729v-0.689v-0.566v-0.484v-0.365v-0.283c0-0.203,0-0.244,0-0.244v-1.457l0.081-1.377l0.121-1.336
		l0.162-1.254l0.202-1.174l0.243-1.135l0.283-1.053l0.283-1.012l0.365-0.932l0.364-0.891l0.404-0.85l0.445-0.77l0.445-0.77
		l0.486-0.648l0.526-0.646l0.485-0.607l0.567-0.527l0.526-0.525l0.566-0.445l0.567-0.406l0.607-0.404l0.566-0.363l0.566-0.285
		l0.607-0.283l0.607-0.283l0.567-0.201l0.566-0.203l0.607-0.162l0.566-0.162l0.526-0.121l0.567-0.121l0.526-0.082l0.485-0.08
		l0.486-0.041l0.485-0.041l0.445-0.039l0.405-0.041h0.404h0.365h0.323h0.324h0.364h0.364l0.445,0.041l0.445,0.039l0.445,0.041
		l0.486,0.041l0.526,0.08l0.526,0.082l0.526,0.121l0.566,0.121l0.567,0.162l0.566,0.162l0.566,0.203l0.607,0.201l0.567,0.283
		l0.607,0.283l0.566,0.285l0.607,0.363l0.566,0.404l0.567,0.406l0.566,0.445l0.567,0.525l0.526,0.527l0.526,0.607l0.485,0.646
		l0.486,0.648l0.445,0.77l0.445,0.77l0.404,0.85l0.365,0.891l0.364,0.932l0.323,1.012l0.243,1.053l0.243,1.135l0.202,1.174
		l0.162,1.254l0.121,1.336l0.081,1.377l0.041,1.457c0,0.041,0,0.244,0,0.244v0.283v0.365v0.484v0.566v0.689v0.729v0.811v0.891v0.93
		v0.973v1.053v1.094v1.133v1.133v1.176v1.215v1.174v1.215v1.213v1.215v1.176v1.174v1.174v1.133v1.053v1.053v1.012v0.932v0.852v0.85
		v0.729v0.648v0.566v0.486v0.404v0.283c0,0.162,0,0.242,0,0.242l-0.041,1.498v1.498l-0.081,1.418l-0.081,1.336l-0.08,1.336
		l-0.122,1.256l-0.121,1.215l-0.162,1.133l-0.202,1.133l-0.203,1.053l-0.242,1.014l-0.243,0.971l-0.283,0.932l-0.284,0.85
		l-0.323,0.852l-0.324,0.768l-0.364,0.77l-0.364,0.689l-0.405,0.688l-0.445,0.607l-0.445,0.607l-0.445,0.525l-0.485,0.527
		l-0.526,0.486l-0.526,0.445l-0.567,0.404l-0.566,0.365l-0.607,0.322l-0.607,0.324l-0.647,0.283l-0.688,0.244l-0.688,0.201
		l-0.688,0.203l-0.729,0.162l-0.77,0.121l-0.77,0.082l-0.769,0.08l-0.81,0.082l-0.851,0.039H404.289z"/>
</g>
<g id="LWPOLYLINE_11_">
	
		<path fill="none" stroke="#000000" stroke-width="0.7087" stroke-linecap="round" stroke-linejoin="round" stroke-miterlimit="10" d="
		M467.288,643.84c0.121,0,0.242,0,0.242,0c0.162,0,0.365,0,0.365,0h0.242h0.284h0.323h0.364h0.405h0.405h0.404h0.486h0.445h0.485
		h0.526h0.486h0.526h0.526h0.526h0.526h0.526h0.526h0.526h0.485h0.486h0.485h0.445h0.445h0.405h0.364h0.364h0.324h0.283h0.243h0.242
		c0.162,0,0.284,0,0.284,0c0.121-0.162,0.242-0.607,0.242-0.607l0.162-0.729l0.203-1.012l0.323-1.256l0.324-1.498l0.404-1.701
		l0.405-1.902l0.486-2.105l0.526-2.268l0.566-2.469l0.566-2.551l0.607-2.713l0.648-2.795l0.647-2.914l0.688-2.955l0.688-3.078
		l0.729-3.076l0.688-3.117l0.729-3.119l0.688-3.156l0.729-3.119l0.688-3.076l0.688-3.078l0.688-2.955l0.688-2.914l0.607-2.795
		l0.647-2.713l0.567-2.551l0.566-2.469l0.526-2.268l0.445-2.105l0.445-1.902l0.405-1.701l0.324-1.498l0.283-1.254l0.243-1.014
		l0.161-0.729l0.081-0.445c0.081,0,0.203,0.445,0.203,0.445l0.161,0.729l0.203,1.014l0.283,1.254l0.324,1.498l0.364,1.701
		l0.404,1.902l0.445,2.105l0.526,2.268l0.526,2.469l0.567,2.551l0.566,2.713l0.607,2.795l0.647,2.914l0.648,2.955l0.647,3.078
		l0.688,3.076l0.688,3.119l0.688,3.156l0.647,3.119l0.688,3.117l0.688,3.076l0.647,3.078l0.647,2.955l0.648,2.914l0.606,2.795
		l0.607,2.713l0.526,2.551l0.526,2.469l0.526,2.268l0.445,2.105l0.405,1.902l0.404,1.701l0.324,1.498l0.243,1.256l0.243,1.012
		l0.162,0.729l0.08,0.445c0.122,0.162,0.243,0.162,0.243,0.162c0.202,0,0.405,0,0.405,0h0.243h0.283h0.323h0.365h0.364h0.404h0.445
		h0.445h0.486h0.485h0.486h0.526h0.526h0.526h0.526h0.526h0.526h0.526h0.485h0.526h0.486h0.485h0.445h0.445h0.405h0.364h0.364h0.324
		h0.283h0.243h0.202c0.162,0,0.324,0,0.324,0c0.121-0.203,0.283-0.689,0.283-0.689l0.202-0.85l0.283-1.174l0.365-1.418l0.445-1.74
		l0.526-1.943l0.566-2.186l0.607-2.43l0.688-2.592l0.729-2.793l0.77-2.955l0.81-3.119l0.81-3.238l0.851-3.32l0.891-3.4l0.931-3.523
		l0.892-3.521l0.931-3.604l0.932-3.604l0.931-3.604l0.932-3.604l0.931-3.521l0.891-3.523l0.892-3.4l0.85-3.361l0.851-3.197
		l0.81-3.117l0.77-2.957l0.688-2.793l0.688-2.592l0.648-2.428l0.566-2.188l0.486-1.984l0.445-1.699l0.364-1.418l0.323-1.174
		l0.203-0.85l0.121-0.527c-0.162-0.162-0.283-0.162-0.283-0.162c-0.202,0-0.405,0-0.405,0h-0.283H556.4h-0.323h-0.364h-0.324h-0.405
		h-0.404h-0.405h-0.445h-0.445h-0.445h-0.445h-0.486h-0.445h-0.485h-0.445h-0.445h-0.486h-0.445h-0.404h-0.445h-0.365h-0.404h-0.364
		h-0.324h-0.324h-0.283h-0.243h-0.242c-0.162,0-0.324,0-0.324,0c-0.202,0-0.243,0.162-0.243,0.162l-0.081,0.445l-0.162,0.729
		l-0.242,0.973l-0.284,1.256l-0.323,1.457l-0.405,1.699l-0.445,1.904l-0.485,2.064l-0.486,2.268l-0.566,2.43l-0.607,2.51
		l-0.607,2.672l-0.607,2.793l-0.688,2.875l-0.688,2.955l-0.688,2.996l-0.688,3.078l-0.729,3.076l-0.688,3.117l-0.729,3.119
		l-0.688,3.076l-0.729,3.078l-0.688,2.996l-0.688,2.955l-0.648,2.875l-0.647,2.793l-0.607,2.672l-0.607,2.551l-0.526,2.389
		l-0.526,2.268l-0.485,2.064l-0.445,1.902l-0.364,1.701l-0.364,1.457l-0.284,1.256l-0.202,0.971l-0.162,0.73l-0.121,0.445
		c-0.081,0-0.162-0.445-0.162-0.445l-0.121-0.73l-0.203-0.971l-0.242-1.256l-0.324-1.457l-0.324-1.701l-0.364-1.902l-0.445-2.064
		l-0.445-2.268l-0.486-2.389l-0.485-2.551l-0.526-2.672l-0.566-2.793l-0.567-2.875l-0.607-2.955l-0.607-2.996l-0.607-3.078
		l-0.606-3.076l-0.648-3.119l-0.607-3.117l-0.607-3.076l-0.606-3.078l-0.607-2.996l-0.607-2.955l-0.567-2.875l-0.566-2.793
		l-0.526-2.672l-0.486-2.51l-0.485-2.43l-0.486-2.268l-0.404-2.064l-0.364-1.904l-0.364-1.699l-0.284-1.457l-0.242-1.256
		l-0.203-0.973l-0.121-0.729l-0.121-0.445c-0.122-0.162-0.284-0.162-0.284-0.162c-0.161,0-0.404,0-0.404,0h-0.283h-0.324h-0.364
		h-0.405h-0.404h-0.445h-0.486h-0.526h-0.526h-0.566h-0.526h-0.607h-0.567h-0.566h-0.607h-0.607h-0.566h-0.567h-0.607h-0.526h-0.566
		h-0.526h-0.485h-0.486h-0.485h-0.405h-0.405h-0.364h-0.323h-0.284h-0.242c-0.162,0-0.324,0-0.324,0
		c-0.122,0.162-0.243,0.607-0.243,0.607l-0.162,0.729l-0.242,0.973l-0.284,1.256l-0.323,1.457l-0.405,1.699l-0.405,1.904
		l-0.485,2.064l-0.526,2.268l-0.566,2.43l-0.567,2.51l-0.607,2.672l-0.647,2.793l-0.688,2.875l-0.647,2.955l-0.688,2.996
		l-0.729,3.078l-0.688,3.076l-0.729,3.117l-0.729,3.119l-0.688,3.076l-0.729,3.078l-0.688,2.996l-0.688,2.955l-0.648,2.875
		l-0.647,2.793l-0.607,2.672l-0.566,2.551l-0.567,2.389l-0.526,2.268l-0.485,2.064l-0.405,1.902l-0.404,1.701l-0.324,1.457
		l-0.283,1.256l-0.243,0.971l-0.162,0.73l-0.121,0.445c-0.041,0-0.162-0.445-0.162-0.445l-0.122-0.73l-0.242-0.971l-0.243-1.256
		l-0.324-1.457l-0.323-1.701l-0.405-1.902l-0.445-2.064l-0.486-2.268l-0.485-2.389l-0.526-2.551l-0.566-2.672l-0.607-2.793
		l-0.607-2.875l-0.607-2.955l-0.647-2.996l-0.607-3.078l-0.648-3.076l-0.688-3.119l-0.648-3.117l-0.647-3.076l-0.648-3.078
		l-0.606-2.996l-0.648-2.955l-0.566-2.875l-0.607-2.793l-0.567-2.672l-0.525-2.51l-0.486-2.43l-0.486-2.268l-0.445-2.064
		l-0.404-1.904l-0.324-1.699l-0.323-1.457l-0.284-1.256l-0.202-0.973l-0.162-0.729l-0.081-0.445
		c-0.121-0.162-0.243-0.162-0.243-0.162c-0.121,0-0.323,0-0.323,0H456.6h-0.284h-0.283h-0.283h-0.364h-0.364h-0.365h-0.404h-0.405
		H453.4h-0.445h-0.445h-0.445h-0.485h-0.445h-0.486h-0.445h-0.486h-0.445h-0.445h-0.404h-0.445h-0.405h-0.364h-0.364h-0.324h-0.323
		h-0.284h-0.242h-0.243c-0.162,0-0.324,0-0.324,0C444.898,547.641,467.288,643.84,467.288,643.84z"/>
</g>
<g id="LWPOLYLINE_12_">
	
		<rect x="170.454" y="145.5" fill="none" stroke="#000000" stroke-width="0.7087" stroke-linecap="round" stroke-linejoin="round" stroke-miterlimit="10" width="273.635" height="215.575"/>
</g>
<g id="LWPOLYLINE_13_">
	
		<rect x="318.86" y="264.897" fill="none" stroke="#000000" stroke-width="0.7087" stroke-linecap="round" stroke-linejoin="round" stroke-miterlimit="10" width="101.988" height="73.788"/>
</g>
<g id="LWPOLYLINE_14_">
	
		<rect x="193.653" y="168.699" fill="none" stroke="#000000" stroke-width="0.7087" stroke-linecap="round" stroke-linejoin="round" stroke-miterlimit="10" width="227.195" height="72.979"/>
</g>
<g id="LWPOLYLINE_15_">
	
		<rect x="193.653" y="264.897" fill="none" stroke="#000000" stroke-width="0.7087" stroke-linecap="round" stroke-linejoin="round" stroke-miterlimit="10" width="102.008" height="73.788"/>
</g>
<g id="LWPOLYLINE_16_">
	
		<rect x="223.513" y="193.578" fill="none" stroke="#000000" stroke-width="0.7087" stroke-linecap="round" stroke-linejoin="round" stroke-miterlimit="10" width="169.156" height="23.22"/>
</g>
</svg>
