<?xml version="1.0" encoding="utf-8"?>
<!-- Generator: Adobe Illustrator 16.0.1, SVG Export Plug-In . SVG Version: 6.00 Build 0)  -->
<!DOCTYPE svg PUBLIC "-//W3C//DTD SVG 1.0//EN" "http://www.w3.org/TR/2001/REC-SVG-20010904/DTD/svg10.dtd">
<svg version="1.0" id="_x31_" xmlns="http://www.w3.org/2000/svg" xmlns:xlink="http://www.w3.org/1999/xlink" x="0px" y="0px"
	 width="612px" height="792px" viewBox="0 0 612 792" enable-background="new 0 0 612 792" xml:space="preserve">
<g id="LWPOLYLINE">
	
		<path fill="none" stroke="#000000" stroke-width="0.7087" stroke-linecap="round" stroke-linejoin="round" stroke-miterlimit="10" d="
		M73.143,551.59c0.132,0,0.285,0,0.285,0c0.22,0,0.483,0,0.483,0h0.329h0.352h0.417h0.461h0.483h0.527h0.549h0.57h0.615h0.614h0.637
		h0.659h0.658h0.681h0.659h0.681h0.681h0.658h0.659h0.637h0.614h0.615h0.57h0.549h0.527h0.482h0.462h0.417h0.351h0.33h0.263
		c0.22,0,0.374,0,0.374,0c0.132,0,0.351,0,0.351,0h0.242l0.285,0.043l0.308,0.045h0.351l0.352,0.088l0.373,0.043l0.396,0.088
		l0.417,0.088l0.439,0.131l0.461,0.133l0.461,0.131l0.461,0.176l0.483,0.221l0.483,0.176l0.505,0.264l0.482,0.262l0.505,0.264
		l0.506,0.309l0.482,0.352l0.483,0.35l0.482,0.396l0.462,0.439l0.461,0.482l0.438,0.482l0.439,0.527l0.417,0.57l0.396,0.615
		l0.373,0.615l0.352,0.658l0.329,0.746l0.308,0.746l0.285,0.791l0.241,0.834l0.198,0.879l0.176,0.967l0.153,0.965l0.109,1.01
		l0.044,1.098l0.022,1.098l-0.022,1.186l-0.065,1.143l-0.11,1.098l-0.153,1.01l-0.197,1.01l-0.22,0.922l-0.264,0.879l-0.308,0.834
		l-0.329,0.791l-0.373,0.791l-0.396,0.701l-0.417,0.66l-0.439,0.658l-0.482,0.57l-0.483,0.57l-0.505,0.527l-0.527,0.484
		l-0.549,0.438l-0.549,0.396l-0.57,0.395l-0.571,0.352l-0.593,0.352l-0.593,0.307l-0.593,0.264l-0.614,0.219l-0.593,0.221
		l-0.593,0.219l-0.594,0.176l-0.593,0.133l-0.593,0.176l-0.57,0.088l-0.571,0.131l-0.549,0.043l-0.549,0.088l-0.526,0.045
		l-0.506,0.043l-0.482,0.045H88.38l-0.438,0.043h-0.418c-0.088,0-0.219,0-0.219,0c-0.176,0-0.396,0-0.396,0h-0.264H86.36h-0.329
		H85.68h-0.396h-0.417h-0.439h-0.461h-0.482h-0.506h-0.505h-0.526H81.42h-0.549h-0.526h-0.55h-0.526H78.72h-0.505h-0.527h-0.482
		h-0.483h-0.483H75.8h-0.418h-0.373h-0.373h-0.329h-0.285h-0.264c-0.22,0-0.396,0-0.396,0c-0.197,0-0.22,0-0.22,0V551.59z"/>
</g>
<g id="LWPOLYLINE_1_">
	
		<path fill="none" stroke="#000000" stroke-width="0.7087" stroke-linecap="round" stroke-linejoin="round" stroke-miterlimit="10" d="
		M73.143,644.199c0-0.045,0-0.309,0-0.309v-0.395v-0.57v-0.658v-0.836v-0.922v-1.053v-1.143v-1.273v-1.316v-1.406v-1.492v-1.537
		v-1.582v-1.623v-1.67v-1.713v-1.711v-1.713v-1.713v-1.713v-1.668v-1.67v-1.668v-1.58v-1.537v-1.449v-1.406v-1.361v-1.229v-1.143
		v-1.053v-0.967v-0.789v-0.703v-0.527v-0.395v-0.264c0.132-0.088,0.264-0.088,0.264-0.088c0.22,0,0.461,0,0.461,0h0.308h0.352h0.395
		h0.417H75.8h0.505h0.526h0.549h0.571h0.593h0.614h0.615h0.637h0.637h0.637h0.637h0.637h0.637h0.615h0.614h0.593h0.571h0.549h0.526
		h0.505h0.462h0.417h0.395h0.352H89.5h0.241c0.22,0,0.373,0,0.373,0c0.11,0,0.944,0,0.944,0l0.834-0.045l0.879-0.043l0.878-0.088
		l0.922-0.088l0.923-0.133l0.922-0.174l0.944-0.176l0.966-0.221l0.944-0.264l0.966-0.264l0.966-0.307l0.966-0.352l0.944-0.352
		l0.966-0.439l0.944-0.438l0.922-0.527l0.923-0.527l0.9-0.57l0.899-0.615l0.856-0.658l0.856-0.703l0.812-0.746l0.79-0.834
		l0.769-0.836l0.725-0.877l0.702-0.967l0.659-1.01l0.614-1.053l0.571-1.1l0.527-1.186l0.505-1.229l0.438-1.273l0.374-1.318
		l0.351-1.404l0.264-1.492l0.22-1.494l0.176-1.625l0.088-1.625l0.044-1.711l-0.022-1.801l-0.088-1.713l-0.153-1.668l-0.176-1.582
		l-0.241-1.492l-0.308-1.449l-0.329-1.406l-0.396-1.316l-0.417-1.273l-0.483-1.186l-0.505-1.143l-0.549-1.098l-0.593-1.053
		l-0.637-0.967l-0.658-0.922l-0.703-0.879l-0.725-0.834l-0.746-0.791l-0.791-0.701l-0.812-0.703l-0.835-0.615l-0.878-0.615
		l-0.878-0.525l-0.9-0.527l-0.923-0.439l-0.943-0.439l-0.967-0.395l-0.966-0.352l-0.987-0.307l-0.988-0.264l-1.01-0.264
		l-1.011-0.221l-1.01-0.174l-1.032-0.176l-1.01-0.133l-1.031-0.088l-1.032-0.088l-1.01-0.043l-1.032-0.045h-1.01
		c-0.22,0-0.483,0-0.483,0H89.39h-0.438h-0.527H87.81H87.15h-0.746h-0.812h-0.856h-0.922h-0.944h-1.01h-1.032h-1.054h-1.076H77.6
		h-1.098h-1.12h-1.098h-1.119h-1.098h-1.076h-1.054h-1.032h-0.988h-0.966h-0.9h-0.856h-0.812h-0.747h-0.681h-0.593h-0.526h-0.462
		h-0.351H60.76c-0.22,0.176-0.22,0.746-0.22,0.746v0.924v1.229v1.58v1.846v2.15v2.371v2.635v2.811v3.031v3.205v3.338v3.512v3.602
		v3.732v3.775v3.865v3.908v3.908v3.908v3.863v3.865v3.775v3.732v3.602v3.512v3.338v3.205v3.031v2.854v2.592v2.414v2.107v1.846v1.58
		v1.229v0.924v0.57C60.54,644.199,73.143,644.199,73.143,644.199z"/>
</g>
<g id="LWPOLYLINE_2_">
	
		<path fill="none" stroke="#000000" stroke-width="0.7087" stroke-linecap="round" stroke-linejoin="round" stroke-miterlimit="10" d="
		M127.088,644.199c0.22,0,0.396,0,0.396,0c0.197,0,0.439,0,0.439,0h0.263h0.308h0.352h0.352h0.395h0.418h0.438h0.461h0.461h0.483
		h0.483h0.505h0.505h0.505h0.505h0.505h0.483h0.505h0.461h0.483h0.438h0.439h0.417h0.396h0.373h0.329h0.308h0.285h0.22
		c0.22,0,0.373,0,0.373,0c0.22,0,0.242-0.045,0.242-0.045c0.044-0.131,0.109-0.352,0.109-0.352l0.088-0.307l0.132-0.352l0.132-0.439
		l0.176-0.525l0.176-0.572l0.197-0.658l0.22-0.658l0.241-0.746l0.241-0.748l0.264-0.834l0.285-0.834l0.286-0.879l0.285-0.877
		l0.285-0.922l0.308-0.924l0.285-0.965l0.308-0.922l0.308-0.967l0.308-0.922l0.285-0.922l0.308-0.922l0.285-0.922l0.285-0.836
		l0.264-0.877l0.264-0.791l0.241-0.791l0.241-0.701l0.22-0.703l0.198-0.615l0.197-0.57l0.153-0.527l0.154-0.439l0.109-0.395
		l0.109-0.307c0.066-0.221,0.11-0.352,0.11-0.352c0.088-0.045,0.285-0.045,0.285-0.045h0.352h0.461h0.571h0.681h0.79h0.9h0.966
		h1.054h1.12h1.186h1.251h1.296h1.339h1.384h1.405h1.404h1.449h1.449h1.449h1.449h1.427h1.405h1.384h1.339h1.296h1.229h1.186h1.142
		h1.031h0.988h0.879h0.79h0.681h0.593h0.461h0.329c0.22,0,0.286,0,0.286,0c0.044,0.176,0.109,0.396,0.109,0.396l0.088,0.307
		l0.109,0.395l0.132,0.439l0.132,0.527l0.176,0.57l0.176,0.615l0.197,0.703l0.22,0.701l0.22,0.791l0.22,0.791l0.241,0.877
		l0.241,0.836l0.264,0.922l0.264,0.922l0.264,0.922l0.263,0.922l0.286,0.967l0.264,0.922l0.263,0.965l0.264,0.924l0.264,0.922
		l0.264,0.877l0.241,0.879l0.241,0.834l0.242,0.834l0.219,0.748l0.198,0.746l0.197,0.658l0.176,0.658l0.176,0.572l0.153,0.525
		l0.11,0.439l0.109,0.352l0.088,0.307c0.065,0.221,0.109,0.352,0.109,0.352c0.132,0.045,0.264,0.045,0.264,0.045
		c0.176,0,0.396,0,0.396,0h0.285h0.308h0.352h0.373h0.417h0.461h0.461h0.483h0.527h0.526h0.549h0.549h0.571h0.57h0.571h0.57h0.571
		h0.549h0.571h0.526h0.549h0.505h0.483h0.483h0.438h0.417h0.374h0.351h0.308h0.285h0.22c0.198,0,0.329,0,0.329,0
		c0.044-0.176-0.131-0.746-0.131-0.746l-0.308-0.924l-0.396-1.229l-0.482-1.58l-0.594-1.846l-0.68-2.107l-0.769-2.414l-0.835-2.592
		l-0.9-2.854l-0.966-3.031l-1.031-3.205l-1.055-3.338l-1.119-3.512l-1.164-3.602l-1.186-3.732l-1.207-3.775l-1.229-3.865
		l-1.23-3.863l-1.251-3.908l-1.252-3.908l-1.229-3.908l-1.229-3.865l-1.207-3.775l-1.186-3.732l-1.164-3.602l-1.119-3.512
		l-1.055-3.338l-1.031-3.205l-0.967-3.031l-0.899-2.811l-0.835-2.635l-0.769-2.371l-0.681-2.15l-0.593-1.846l-0.482-1.58
		l-0.396-1.229l-0.308-0.924l-0.176-0.57c-0.175-0.176-0.329-0.176-0.329-0.176c-0.197,0-0.461,0-0.461,0h-0.308h-0.351h-0.396
		h-0.417h-0.461h-0.505h-0.527h-0.549h-0.571h-0.593h-0.614h-0.615h-0.637h-0.637h-0.637h-0.637h-0.637h-0.637h-0.614h-0.615h-0.593
		h-0.57h-0.549h-0.527h-0.483h-0.461h-0.438h-0.396h-0.352h-0.308h-0.241c-0.197,0-0.352,0-0.352,0
		C159.473,539.908,127.088,644.199,127.088,644.199z"/>
</g>
<g id="LWPOLYLINE_3_">
	
		<path fill="none" stroke="#000000" stroke-width="0.7087" stroke-linecap="round" stroke-linejoin="round" stroke-miterlimit="10" d="
		M183.756,607.357c-0.065,0-0.241,0-0.241,0h-0.285h-0.373h-0.483h-0.593h-0.659h-0.724h-0.812h-0.879h-0.943h-1.011h-1.031h-1.076
		h-1.142h-1.142h-1.186h-1.186h-1.208h-1.207h-1.229h-1.208h-1.186h-1.186h-1.142h-1.12h-1.098h-1.032h-0.987h-0.944h-0.879h-0.812
		h-0.747h-0.658h-0.571h-0.482h-0.396h-0.285c-0.176,0-0.242,0-0.242,0c0.044-0.133,0.132-0.396,0.132-0.396l0.132-0.482
		l0.197-0.658l0.242-0.834l0.285-0.967l0.329-1.141l0.373-1.23l0.418-1.361l0.438-1.492l0.461-1.625l0.506-1.67l0.505-1.756
		l0.549-1.844l0.57-1.889l0.571-1.977l0.593-1.975l0.593-2.021l0.593-2.062l0.614-2.064l0.615-2.064l0.593-2.02l0.593-2.02
		l0.593-2.02l0.571-1.934l0.57-1.887l0.549-1.846l0.505-1.799l0.505-1.67l0.462-1.58l0.438-1.492l0.417-1.406l0.374-1.229
		l0.329-1.143l0.285-0.967l0.241-0.834l0.198-0.615l0.132-0.482l0.088-0.307C167.575,552.512,183.756,607.357,183.756,607.357z"/>
</g>
<g id="LWPOLYLINE_4_">
	
		<path fill="none" stroke="#000000" stroke-width="0.7087" stroke-linecap="round" stroke-linejoin="round" stroke-miterlimit="10" d="
		M285.39,567.793l-0.044-1.625l-0.044-1.537l-0.088-1.492l-0.132-1.449l-0.176-1.361l-0.219-1.361l-0.22-1.318l-0.308-1.229
		l-0.308-1.23l-0.351-1.141l-0.396-1.143l-0.439-1.053l-0.482-1.012l-0.527-1.01l-0.549-0.922l-0.593-0.922l-0.637-0.834
		l-0.681-0.791l-0.703-0.789l-0.768-0.748l-0.791-0.658l-0.834-0.658l-0.878-0.615l-0.923-0.57l-0.966-0.527l-0.988-0.482
		l-1.054-0.484l-1.076-0.395l-1.119-0.395l-1.164-0.352l-1.229-0.309l-1.251-0.262l-1.296-0.264l-1.317-0.176l-1.383-0.176
		l-1.428-0.133l-1.471-0.131l-1.515-0.088l-1.537-0.045h-1.603h-1.603l-1.56,0.088l-1.515,0.133l-1.471,0.131l-1.449,0.221
		l-1.384,0.264l-1.361,0.307l-1.317,0.307l-1.273,0.396l-1.229,0.439l-1.207,0.482l-1.142,0.482l-1.12,0.57l-1.076,0.615
		l-1.031,0.615l-0.988,0.703l-0.944,0.701l-0.922,0.791l-0.856,0.791l-0.834,0.834l-0.791,0.879l-0.746,0.922l-0.702,0.965
		l-0.681,0.967l-0.615,1.055l-0.593,1.053l-0.549,1.098l-0.505,1.143l-0.461,1.186l-0.439,1.186l-0.373,1.273l-0.352,1.273
		l-0.308,1.316l-0.263,1.318l-0.22,1.404l-0.176,1.406l-0.132,1.449l-0.109,1.449l-0.066,1.535l-0.021,1.537
		c0,0.045,0,0.221,0,0.221v0.307v0.396v0.525v0.615v0.703v0.789v0.836v0.922v1.01v1.053v1.1v1.141v1.186v1.23v1.229v1.273v1.273
		v1.273v1.273v1.273v1.273v1.23v1.229v1.186v1.143v1.098v1.053v0.967v0.922V602v0.791v0.701v0.572v0.525v0.396v0.307
		c0,0.176,0,0.264,0,0.264l0.021,2.107l0.066,2.064l0.109,2.02l0.132,1.932l0.176,1.889l0.22,1.801l0.263,1.756l0.308,1.668
		l0.352,1.625L223.54,624l0.439,1.537l0.461,1.449l0.505,1.404l0.549,1.316l0.593,1.273l0.615,1.23l0.681,1.186l0.702,1.098
		l0.746,1.098l0.791,0.967l0.834,0.965l0.856,0.879l0.922,0.879l0.944,0.789l0.988,0.748l1.031,0.658l1.076,0.658l1.12,0.57
		l1.142,0.527l1.207,0.527l1.229,0.439l1.273,0.352l1.317,0.352l1.361,0.307l1.384,0.264l1.449,0.176l1.471,0.176l1.515,0.088
		l1.56,0.088h1.603h1.01h0.966l0.988-0.045l0.944-0.043l0.943-0.045l0.923-0.088l0.922-0.088l0.9-0.088l0.878-0.088l0.856-0.131
		l0.856-0.133l0.856-0.131l0.834-0.133l0.812-0.174l0.812-0.176l0.812-0.176l0.79-0.176l0.79-0.221l0.769-0.176l0.747-0.219
		l0.769-0.219l0.746-0.264l0.746-0.221l0.725-0.264l0.725-0.264l0.725-0.262l0.703-0.264l0.702-0.264l0.702-0.264l0.703-0.307
		l0.702-0.309l0.681-0.264l0.681-0.307l0.681-0.309l0.681-0.35l0.681-0.309l0.681-0.307l0.681-0.352l0.659-0.307l0.702-0.352
		c0-0.088,0-0.352,0-0.352v-0.439v-0.615v-0.746v-0.922v-1.01v-1.143v-1.273v-1.361v-1.449v-1.58v-1.625v-1.668v-1.756v-1.801
		v-1.801v-1.889v-1.844v-1.889v-1.889v-1.887v-1.846v-1.844v-1.801v-1.756v-1.668v-1.625v-1.537v-1.494v-1.361v-1.229v-1.186v-1.01
		v-0.879v-0.791v-0.57v-0.439v-0.307c-0.088-0.088-0.264-0.088-0.264-0.088h-0.263h-0.396h-0.483h-0.57h-0.659h-0.746h-0.812h-0.878
		h-0.944h-0.988h-1.054h-1.076h-1.119h-1.164h-1.164h-1.207h-1.208h-1.207h-1.208h-1.207h-1.186H264.4h-1.164h-1.12h-1.075h-1.054
		h-0.988h-0.944h-0.878h-0.812h-0.725h-0.681h-0.571h-0.482h-0.396h-0.264c-0.176,0-0.241,0-0.241,0c0,0.176,0,0.352,0,0.352
		c0,0.176,0,0.352,0,0.352v0.264v0.264v0.307v0.307v0.352v0.352v0.352v0.395v0.396v0.438v0.439v0.396v0.438v0.439v0.439v0.439v0.439
		v0.439v0.395v0.395v0.396v0.395v0.352v0.352v0.307v0.307v0.264v0.221c0,0.219,0,0.395,0,0.395c0,0.133,0,0.264,0,0.264
		c0.132,0.043,0.308,0.043,0.308,0.043h0.22h0.285h0.329h0.396h0.417h0.483h0.505h0.549h0.593h0.593h0.637h0.658h0.681h0.681h0.703
		h0.702h0.703h0.702h0.702h0.703h0.681h0.681h0.658h0.637h0.593h0.593h0.549h0.506h0.482h0.417h0.396h0.329h0.286h0.219
		c0.176,0,0.264,0,0.264,0c0.044,0.264,0.044,0.527,0.044,0.527v0.352v0.439v0.57v0.615v0.703v0.746v0.834v0.922v0.922v0.967v1.055
		v1.053v1.098v1.098v1.143v1.141v1.143v1.141v1.143v1.098v1.143v1.053v1.098v1.01v0.967v0.967v0.877v0.834v0.748v0.701v0.615v0.57
		v0.439v0.396v0.264c0,0.219-0.197,0.395-0.197,0.395c-0.241,0.219-0.461,0.439-0.461,0.439l-0.264,0.176l-0.264,0.219l-0.264,0.176
		l-0.285,0.219l-0.308,0.176l-0.307,0.221l-0.33,0.176l-0.351,0.176l-0.352,0.176l-0.352,0.219l-0.373,0.176l-0.396,0.176
		l-0.395,0.176l-0.418,0.131l-0.438,0.176l-0.439,0.176l-0.439,0.131l-0.461,0.176l-0.482,0.133l-0.483,0.131l-0.483,0.133
		l-0.505,0.131l-0.526,0.133l-0.527,0.088l-0.549,0.131l-0.549,0.088l-0.571,0.088l-0.57,0.088l-0.593,0.088l-0.593,0.043
		l-0.593,0.088l-0.615,0.045l-0.637,0.043l-0.637,0.045h-0.658l-0.659,0.043h-0.658l-0.944-0.043h-0.9l-0.878-0.088l-0.878-0.088
		l-0.835-0.088l-0.812-0.176l-0.79-0.176l-0.769-0.176l-0.746-0.264l-0.703-0.264l-0.702-0.307l-0.681-0.307l-0.637-0.352
		l-0.637-0.439l-0.593-0.439l-0.593-0.482l-0.549-0.484l-0.527-0.57l-0.505-0.615l-0.483-0.613l-0.461-0.66l-0.438-0.746
		l-0.418-0.746l-0.395-0.834l-0.352-0.834l-0.352-0.922l-0.329-0.967l-0.285-0.967l-0.264-1.053l-0.264-1.098l-0.22-1.186
		l-0.197-1.186l-0.176-1.273l-0.153-1.273l-0.132-1.406l-0.11-1.404l-0.087-1.494l-0.044-1.537l-0.044-1.58v-1.668
		c0-0.045,0-0.221,0-0.221v-0.307v-0.439v-0.527v-0.615v-0.701v-0.834v-0.879v-0.922v-1.055v-1.053v-1.143v-1.186v-1.186v-1.273
		v-1.273v-1.273v-1.318v-1.316v-1.316v-1.318v-1.273v-1.273v-1.273v-1.186v-1.186v-1.143v-1.053v-1.055v-0.922v-0.879v-0.834v-0.701
		v-0.615v-0.527v-0.439v-0.307c0-0.176,0-0.221,0-0.221l0.021-1.58l0.066-1.537l0.131-1.404l0.176-1.361l0.22-1.318l0.264-1.186
		l0.308-1.186l0.351-1.053l0.374-1.055l0.395-0.967l0.439-0.877l0.483-0.879l0.482-0.791l0.527-0.746l0.549-0.658l0.57-0.658
		l0.571-0.572l0.593-0.57l0.615-0.482l0.614-0.484l0.637-0.395l0.615-0.395l0.637-0.352l0.658-0.307l0.637-0.264l0.637-0.264
		l0.615-0.176l0.637-0.221l0.614-0.131l0.593-0.176l0.593-0.088l0.571-0.088l0.549-0.088l0.526-0.088l0.505-0.043h0.483l0.461-0.045
		h0.417h0.396h0.352h0.922l0.9,0.045l0.878,0.043l0.835,0.088l0.812,0.088l0.791,0.133l0.746,0.174l0.725,0.176l0.703,0.176
		l0.658,0.221l0.659,0.264l0.614,0.264l0.593,0.307l0.571,0.307l0.526,0.352l0.527,0.352l0.482,0.395l0.462,0.439l0.438,0.439
		l0.417,0.439l0.396,0.482l0.373,0.527l0.33,0.527l0.329,0.527l0.308,0.613l0.285,0.572l0.264,0.658l0.219,0.615l0.22,0.701
		l0.198,0.703l0.175,0.703l0.154,0.746l0.132,0.746l0.132,0.791l0.088,0.834l0.087,0.834l0.066,0.879l0.021,0.879l0.044,0.877v0.967
		H285.39z"/>
</g>
<g id="LWPOLYLINE_5_">
	
		<path fill="none" stroke="#000000" stroke-width="0.7087" stroke-linecap="round" stroke-linejoin="round" stroke-miterlimit="10" d="
		M361.84,644.199c0-0.176,0-0.309,0-0.309c0-0.176,0-0.395,0-0.395v-0.219v-0.264v-0.309v-0.307v-0.352v-0.352v-0.395v-0.395v-0.396
		v-0.395v-0.439v-0.439v-0.439v-0.438v-0.439v-0.439v-0.395v-0.439v-0.439v-0.395v-0.396v-0.352v-0.35v-0.352v-0.309v-0.307v-0.264
		v-0.264c0-0.176,0-0.352,0-0.352c0-0.176,0-0.264,0-0.264c-0.088-0.088-0.308-0.088-0.308-0.088h-0.351h-0.483h-0.615h-0.702
		h-0.834h-0.923h-1.01h-1.098h-1.186h-1.273h-1.273h-1.361h-1.405h-1.449h-1.449h-1.492h-1.537h-1.493h-1.537h-1.493h-1.492h-1.493
		h-1.405h-1.405h-1.361h-1.317h-1.229h-1.186h-1.098h-1.01h-0.923h-0.834h-0.703h-0.614h-0.483h-0.351c-0.22,0-0.308,0-0.308,0
		c0-0.043,0-0.264,0-0.264v-0.307v-0.439v-0.527v-0.658v-0.701v-0.836v-0.922v-0.965v-1.055v-1.098v-1.143v-1.229v-1.23v-1.273
		v-1.316v-1.318v-1.361v-1.316v-1.361v-1.361v-1.316v-1.318v-1.273v-1.229v-1.23v-1.143v-1.098v-1.053v-0.967v-0.922v-0.791v-0.746
		v-0.658v-0.527v-0.439v-0.307c0-0.176,0-0.264,0-0.264c0.044,0,0.264,0,0.264,0h0.307h0.439h0.571h0.658h0.747h0.834h0.922h1.01
		h1.098h1.099h1.186h1.229h1.317h1.317h1.317h1.361h1.36h1.405h1.361h1.405h1.361h1.317h1.317h1.273h1.229h1.186h1.142h1.054h1.011
		h0.922h0.834H356h0.658h0.527h0.438h0.352c0.176,0,0.264,0,0.264,0c0-0.176,0-0.307,0-0.307c0-0.176,0-0.396,0-0.396v-0.264v-0.264
		v-0.262v-0.352v-0.309v-0.352v-0.395v-0.395v-0.396v-0.438v-0.396v-0.439v-0.438v-0.439v-0.439v-0.439v-0.439v-0.395v-0.439v-0.395
		v-0.396v-0.395v-0.352v-0.352v-0.307v-0.307v-0.264v-0.221c0-0.219,0-0.395,0-0.395c0-0.131,0-0.219,0-0.219
		c-0.088-0.088-0.264-0.088-0.264-0.088h-0.352h-0.438h-0.527H356h-0.791h-0.834h-0.922h-1.011h-1.054h-1.142h-1.186h-1.229h-1.273
		h-1.317h-1.317h-1.361h-1.405h-1.361h-1.405h-1.36h-1.361h-1.317h-1.317h-1.317h-1.229h-1.186h-1.099h-1.098h-1.01h-0.922h-0.834
		h-0.747h-0.658h-0.571h-0.439h-0.307c-0.22,0-0.264,0-0.264,0c0-0.088,0-0.264,0-0.264v-0.264v-0.396v-0.525v-0.572v-0.701v-0.748
		v-0.834v-0.922v-0.965v-1.012v-1.053v-1.143v-1.141v-1.186v-1.186v-1.23v-1.273v-1.229v-1.23v-1.273V564.5v-1.186v-1.186v-1.143
		v-1.143v-1.053v-1.055v-0.965v-0.879v-0.834v-0.746v-0.703v-0.57v-0.527v-0.396v-0.262c0-0.221,0-0.264,0-0.264
		c0.088,0,0.264,0,0.264,0h0.351h0.483h0.615h0.702h0.79h0.923h0.966h1.098h1.142h1.229h1.273h1.317h1.361h1.405h1.449h1.449h1.492
		h1.449h1.493h1.493h1.449h1.449h1.405h1.361h1.317h1.273h1.229h1.142h1.098h0.966h0.922h0.791h0.702h0.615h0.482h0.308
		c0.22,0,0.308,0,0.308,0c0-0.176,0-0.309,0-0.309c0-0.176,0-0.395,0-0.395v-0.264v-0.264v-0.264v-0.352v-0.307v-0.352v-0.395
		v-0.396V547.9v-0.439v-0.395v-0.439v-0.439v-0.439v-0.438v-0.439v-0.439v-0.395v-0.439v-0.396v-0.395v-0.395v-0.352v-0.352v-0.307
		v-0.309v-0.264v-0.219c0-0.219,0-0.395,0-0.395c0-0.133,0-0.221,0-0.221c-0.088-0.088-0.396-0.088-0.396-0.088h-0.439h-0.614h-0.79
		h-0.923h-1.054h-1.186h-1.317h-1.449h-1.493h-1.624h-1.669h-1.757h-1.8h-1.845h-1.888h-1.933h-1.932h-1.977h-1.932h-1.977h-1.932
		h-1.889h-1.844h-1.801h-1.756h-1.669h-1.625h-1.493h-1.405h-1.317h-1.186h-1.098h-0.922h-0.79h-0.615h-0.439h-0.307
		c-0.088,0.176-0.088,0.746-0.088,0.746v0.924v1.229v1.58v1.846v2.15v2.371v2.635v2.811v3.031v3.205v3.338v3.512v3.602v3.732v3.775
		v3.865v3.908v3.908v3.908v3.863v3.865v3.775v3.732v3.602v3.512v3.338v3.205v3.031v2.854v2.592v2.414v2.107v1.846v1.58v1.229v0.924
		v0.57C308.751,644.199,361.84,644.199,361.84,644.199z"/>
</g>
<g id="LWPOLYLINE_6_">
	
		<path fill="none" stroke="#000000" stroke-width="0.7087" stroke-linecap="round" stroke-linejoin="round" stroke-miterlimit="10" d="
		M406.806,605.557v2.107l0.044,2.064l0.132,2.02l0.132,1.932l0.175,1.889l0.22,1.801l0.264,1.756l0.308,1.668l0.352,1.625
		l0.395,1.582l0.396,1.537l0.483,1.449l0.482,1.404l0.571,1.316l0.57,1.273l0.659,1.23l0.658,1.186l0.703,1.098l0.746,1.098
		l0.79,0.967l0.835,0.965l0.878,0.879l0.878,0.879l0.967,0.789l1.01,0.748l1.01,0.658l1.054,0.658l1.142,0.57l1.142,0.527
		l1.187,0.527l1.229,0.439l1.273,0.352l1.317,0.352l1.36,0.307l1.405,0.264l1.449,0.176l1.449,0.176l1.537,0.088l1.537,0.088h1.624
		h1.581l1.581-0.088l1.493-0.088l1.493-0.176l1.448-0.176l1.361-0.264l1.361-0.307l1.317-0.352l1.273-0.352l1.229-0.439l1.229-0.527
		l1.142-0.527l1.099-0.57l1.098-0.658l1.01-0.658l1.01-0.748l0.922-0.789l0.923-0.879l0.878-0.879l0.834-0.965l0.791-0.967
		l0.746-1.098l0.703-1.098l0.658-1.186l0.615-1.23l0.614-1.273l0.527-1.316l0.526-1.404l0.439-1.449l0.439-1.537l0.395-1.582
		l0.352-1.625l0.308-1.668l0.264-1.756l0.219-1.801l0.176-1.889l0.132-1.932l0.088-2.02l0.088-2.064v-2.107c0-0.131,0-0.482,0-0.482
		v-0.572v-0.789v-0.967v-1.186v-1.361v-1.492v-1.625v-1.801v-1.889v-2.02v-2.107v-2.195v-2.283v-2.328v-2.416v-2.414v-2.459v-2.459
		v-2.459v-2.416v-2.459v-2.371v-2.326v-2.285v-2.195v-2.107v-2.02v-1.932v-1.758v-1.668v-1.492v-1.318v-1.186v-0.965v-0.791v-0.57
		v-0.352c-0.22-0.133-0.396-0.133-0.396-0.133c-0.176,0-0.438,0-0.438,0h-0.264h-0.308h-0.352h-0.351h-0.396h-0.396h-0.438h-0.439
		h-0.483h-0.482h-0.483h-0.527h-0.482h-0.527h-0.482h-0.483h-0.527h-0.482h-0.483h-0.482h-0.439h-0.439h-0.395h-0.396h-0.352h-0.352
		h-0.307h-0.264h-0.264c-0.22,0-0.352,0-0.352,0c-0.219,0.133-0.219,0.484-0.219,0.484v0.57v0.791v1.01v1.186v1.361v1.492v1.668
		v1.846v1.932v2.02v2.152v2.238v2.283v2.373v2.414v2.459v2.504v2.502v2.459v2.504v2.459v2.414v2.371v2.283v2.24v2.152v2.062v1.934
		v1.799v1.67v1.492v1.361v1.186v1.01v0.791v0.57v0.396c0,0.088,0,1.756,0,1.756l-0.044,1.58l-0.088,1.537l-0.044,1.494l-0.132,1.404
		l-0.132,1.406l-0.132,1.273l-0.176,1.273l-0.22,1.186l-0.22,1.186l-0.263,1.098l-0.264,1.053l-0.308,0.967l-0.308,0.967
		l-0.351,0.922l-0.352,0.834l-0.396,0.834l-0.395,0.746l-0.439,0.746l-0.483,0.66l-0.482,0.613l-0.483,0.615l-0.527,0.57
		l-0.57,0.484l-0.571,0.482l-0.614,0.439l-0.615,0.439l-0.658,0.352l-0.659,0.307l-0.702,0.307l-0.703,0.264l-0.746,0.264
		l-0.79,0.176l-0.791,0.176l-0.79,0.176l-0.878,0.088l-0.835,0.088l-0.878,0.088h-0.922l-0.923,0.043l-0.922-0.043h-0.922
		l-0.878-0.088l-0.879-0.088l-0.834-0.088l-0.834-0.176l-0.791-0.176l-0.746-0.176l-0.747-0.264l-0.702-0.264l-0.703-0.307
		l-0.702-0.307l-0.615-0.352l-0.658-0.439l-0.571-0.439l-0.57-0.482l-0.571-0.484l-0.526-0.57l-0.527-0.615l-0.482-0.613
		l-0.439-0.66l-0.439-0.746l-0.438-0.746l-0.352-0.834l-0.396-0.834l-0.352-0.922l-0.307-0.967l-0.308-0.967l-0.264-1.053
		l-0.22-1.098l-0.264-1.186l-0.175-1.186l-0.176-1.273l-0.176-1.273l-0.132-1.406l-0.088-1.404l-0.088-1.494l-0.044-1.537
		l-0.044-1.58v-1.668c0-0.088,0-0.484,0-0.484v-0.57v-0.791v-1.01v-1.186v-1.361v-1.492v-1.67v-1.799v-1.934v-2.062v-2.152v-2.24
		V585.4v-2.371v-2.414v-2.459v-2.504v-2.459v-2.502v-2.504v-2.459v-2.414v-2.373v-2.283v-2.238v-2.152v-2.02v-1.932v-1.846v-1.668
		v-1.492v-1.361v-1.186v-1.01v-0.791v-0.57v-0.352c-0.22-0.133-0.395-0.133-0.395-0.133c-0.176,0-0.439,0-0.439,0h-0.264h-0.308
		h-0.351h-0.352h-0.396h-0.438h-0.439h-0.439h-0.438h-0.483h-0.527h-0.482h-0.483h-0.526h-0.483h-0.527h-0.482h-0.483h-0.483h-0.482
		h-0.439h-0.438h-0.439h-0.352h-0.396h-0.351h-0.308h-0.264h-0.22c-0.219,0-0.395,0-0.395,0
		C406.806,539.908,406.806,605.557,406.806,605.557z"/>
</g>
<g id="LWPOLYLINE_7_">
	
		<path fill="none" stroke="#000000" stroke-width="0.7087" stroke-linecap="round" stroke-linejoin="round" stroke-miterlimit="10" d="
		M506.616,551.59c0.132,0,0.264,0,0.264,0c0.22,0,0.483,0,0.483,0h0.352h0.351h0.396h0.483h0.482h0.527h0.526h0.571h0.614h0.615
		h0.658h0.659h0.658h0.659h0.702h0.659h0.658h0.659h0.658h0.659h0.614h0.615h0.57h0.527h0.527h0.526h0.439h0.395h0.396h0.308h0.264
		c0.22,0,0.351,0,0.351,0c0.132,0,0.352,0,0.352,0h0.264l0.264,0.043l0.308,0.045h0.351l0.352,0.088l0.396,0.043l0.395,0.088
		l0.439,0.088l0.439,0.131l0.438,0.133l0.439,0.131l0.483,0.176l0.482,0.221l0.483,0.176l0.482,0.264l0.527,0.262l0.483,0.264
		l0.482,0.309l0.483,0.352l0.483,0.35l0.482,0.396l0.483,0.439l0.438,0.482l0.483,0.482l0.396,0.527l0.438,0.57l0.396,0.615
		l0.352,0.615l0.395,0.658l0.308,0.746l0.308,0.746l0.264,0.791l0.264,0.834l0.219,0.879l0.176,0.967l0.132,0.965l0.088,1.01
		l0.088,1.098v1.098v1.186l-0.088,1.143l-0.132,1.098l-0.132,1.01l-0.176,1.01l-0.263,0.922l-0.264,0.879l-0.308,0.834l-0.308,0.791
		l-0.395,0.791l-0.396,0.701l-0.396,0.66l-0.438,0.658l-0.483,0.57l-0.483,0.57l-0.526,0.527l-0.527,0.484l-0.526,0.438
		l-0.571,0.396l-0.57,0.395l-0.571,0.352l-0.571,0.352l-0.614,0.307l-0.571,0.264l-0.614,0.219l-0.615,0.221l-0.57,0.219
		l-0.615,0.176l-0.57,0.133l-0.615,0.176l-0.57,0.088l-0.571,0.131l-0.527,0.043l-0.57,0.088l-0.527,0.045l-0.482,0.043
		l-0.483,0.045h-0.483l-0.438,0.043h-0.439c-0.088,0-0.22,0-0.22,0c-0.176,0-0.395,0-0.395,0h-0.22h-0.308h-0.352h-0.351h-0.396
		h-0.396h-0.438h-0.483h-0.483h-0.482h-0.527h-0.526h-0.527h-0.527h-0.526h-0.571h-0.526h-0.527h-0.527h-0.526h-0.483h-0.482h-0.439
		h-0.439h-0.438h-0.396h-0.352h-0.351h-0.264h-0.264c-0.22,0-0.396,0-0.396,0c-0.22,0-0.22,0-0.22,0V551.59z"/>
</g>
<g id="LWPOLYLINE_8_">
	
		<path fill="none" stroke="#000000" stroke-width="0.7087" stroke-linecap="round" stroke-linejoin="round" stroke-miterlimit="10" d="
		M506.616,644.199c0-0.045,0-0.309,0-0.309v-0.395v-0.57v-0.658v-0.836v-0.922v-1.053v-1.143v-1.273v-1.316v-1.406v-1.492v-1.537
		v-1.582v-1.623v-1.67v-1.713v-1.711v-1.713v-1.713v-1.713v-1.668v-1.67v-1.668v-1.58v-1.537v-1.449v-1.406v-1.361v-1.229v-1.143
		v-1.053v-0.967v-0.789v-0.703v-0.527v-0.395v-0.264c0.132-0.088,0.264-0.088,0.264-0.088c0.22,0,0.483,0,0.483,0h0.264h0.351h0.396
		h0.439h0.482h0.483h0.527h0.526h0.571h0.614h0.615h0.614h0.615h0.658h0.615h0.658h0.615h0.658h0.615h0.614h0.571h0.57h0.571h0.527
		h0.482h0.483h0.395h0.396h0.352h0.308h0.263c0.22,0,0.352,0,0.352,0c0.132,0,0.966,0,0.966,0l0.835-0.045l0.878-0.043l0.878-0.088
		l0.923-0.088l0.922-0.133l0.922-0.174l0.922-0.176l0.967-0.221l0.966-0.264l0.966-0.264l0.966-0.307l0.967-0.352l0.966-0.352
		l0.922-0.439l0.966-0.438l0.923-0.527l0.922-0.527l0.922-0.57l0.879-0.615l0.878-0.658l0.834-0.703l0.791-0.746l0.79-0.834
		l0.79-0.836l0.703-0.877l0.702-0.967l0.659-1.01l0.614-1.053l0.571-1.1l0.57-1.186l0.483-1.229l0.439-1.273l0.395-1.318
		l0.308-1.404l0.308-1.492l0.22-1.494l0.132-1.625l0.131-1.625v-1.711v-1.801l-0.087-1.713l-0.132-1.668l-0.22-1.582l-0.22-1.492
		l-0.308-1.449l-0.352-1.406l-0.351-1.316l-0.439-1.273l-0.483-1.186l-0.526-1.143l-0.527-1.098l-0.614-1.053l-0.615-0.967
		l-0.658-0.922l-0.703-0.879l-0.746-0.834l-0.746-0.791l-0.791-0.701l-0.79-0.703l-0.835-0.615l-0.878-0.615l-0.878-0.525
		l-0.922-0.527l-0.923-0.439l-0.922-0.439l-0.966-0.395l-0.967-0.352l-0.966-0.307l-1.01-0.264l-1.01-0.264l-1.01-0.221
		l-1.011-0.174l-1.01-0.176l-1.054-0.133l-1.01-0.088l-1.01-0.088l-1.055-0.043l-1.01-0.045h-1.01c-0.22,0-0.483,0-0.483,0h-0.351
		h-0.439h-0.527h-0.614h-0.659h-0.746h-0.834h-0.835h-0.922h-0.966h-0.966h-1.055h-1.054h-1.098h-1.054h-1.142h-1.098h-1.098h-1.099
		h-1.098h-1.098h-1.054h-1.054h-0.966h-0.967h-0.922h-0.834h-0.835h-0.746h-0.659h-0.614h-0.527h-0.438h-0.352h-0.264
		c-0.22,0.176-0.22,0.746-0.22,0.746v0.924v1.229v1.58v1.846v2.15v2.371v2.635v2.811v3.031v3.205v3.338v3.512v3.602v3.732v3.775
		v3.865v3.908v3.908v3.908v3.863v3.865v3.775v3.732v3.602v3.512v3.338v3.205v3.031v2.854v2.592v2.414v2.107v1.846v1.58v1.229v0.924
		v0.57C494.014,644.199,506.616,644.199,506.616,644.199z"/>
</g>
<g id="LINE">
	
		<line fill="none" stroke="#000000" stroke-width="0.7087" stroke-linecap="round" stroke-linejoin="round" stroke-miterlimit="10" x1="531.778" y1="360.047" x2="531.778" y2="146"/>
</g>
<g id="LINE_1_">
	
		<line fill="none" stroke="#000000" stroke-width="0.7087" stroke-linecap="round" stroke-linejoin="round" stroke-miterlimit="10" x1="531.778" y1="146" x2="196.337" y2="146"/>
</g>
<g id="LINE_2_">
	
		<line fill="none" stroke="#000000" stroke-width="0.7087" stroke-linecap="round" stroke-linejoin="round" stroke-miterlimit="10" x1="195.437" y1="146" x2="80.345" y2="261.113"/>
</g>
<g id="LINE_3_">
	
		<line fill="none" stroke="#000000" stroke-width="0.7087" stroke-linecap="round" stroke-linejoin="round" stroke-miterlimit="10" x1="80.345" y1="262.014" x2="80.345" y2="360.047"/>
</g>
<g id="LINE_4_">
	
		<line fill="none" stroke="#000000" stroke-width="0.7087" stroke-linecap="round" stroke-linejoin="round" stroke-miterlimit="10" x1="80.345" y1="360.047" x2="531.778" y2="360.047"/>
</g>
<g id="LINE_5_">
	
		<line fill="none" stroke="#000000" stroke-width="0.7087" stroke-linecap="round" stroke-linejoin="round" stroke-miterlimit="10" x1="505.694" y1="172.082" x2="505.694" y2="333.963"/>
</g>
<g id="LINE_6_">
	
		<line fill="none" stroke="#000000" stroke-width="0.7087" stroke-linecap="round" stroke-linejoin="round" stroke-miterlimit="10" x1="505.694" y1="333.963" x2="106.406" y2="333.963"/>
</g>
<g id="LINE_7_">
	
		<line fill="none" stroke="#000000" stroke-width="0.7087" stroke-linecap="round" stroke-linejoin="round" stroke-miterlimit="10" x1="106.406" y1="333.963" x2="106.406" y2="274.594"/>
</g>
<g id="LINE_8_">
	
		<line fill="none" stroke="#000000" stroke-width="0.7087" stroke-linecap="round" stroke-linejoin="round" stroke-miterlimit="10" x1="106.406" y1="274.594" x2="210.74" y2="274.594"/>
</g>
<g id="LINE_9_">
	
		<line fill="none" stroke="#000000" stroke-width="0.7087" stroke-linecap="round" stroke-linejoin="round" stroke-miterlimit="10" x1="210.74" y1="274.594" x2="210.74" y2="172.082"/>
</g>
<g id="LINE_10_">
	
		<line fill="none" stroke="#000000" stroke-width="0.7087" stroke-linecap="round" stroke-linejoin="round" stroke-miterlimit="10" x1="210.74" y1="172.082" x2="505.694" y2="172.082"/>
</g>
<g id="LINE_11_">
	
		<line fill="none" stroke="#000000" stroke-width="0.7087" stroke-linecap="round" stroke-linejoin="round" stroke-miterlimit="10" x1="122.609" y1="312.381" x2="122.609" y2="295.277"/>
</g>
<g id="LINE_12_">
	
		<line fill="none" stroke="#000000" stroke-width="0.7087" stroke-linecap="round" stroke-linejoin="round" stroke-miterlimit="10" x1="122.609" y1="295.277" x2="493.136" y2="295.277"/>
</g>
<g id="LINE_13_">
	
		<line fill="none" stroke="#000000" stroke-width="0.7087" stroke-linecap="round" stroke-linejoin="round" stroke-miterlimit="10" x1="493.136" y1="295.277" x2="493.136" y2="312.381"/>
</g>
<g id="LINE_14_">
	
		<line fill="none" stroke="#000000" stroke-width="0.7087" stroke-linecap="round" stroke-linejoin="round" stroke-miterlimit="10" x1="493.136" y1="312.381" x2="122.609" y2="312.381"/>
</g>
<g id="LINE_15_">
	
		<line fill="none" stroke="#000000" stroke-width="0.7087" stroke-linecap="round" stroke-linejoin="round" stroke-miterlimit="10" x1="227.821" y1="263.814" x2="493.136" y2="263.814"/>
</g>
<g id="LINE_16_">
	
		<line fill="none" stroke="#000000" stroke-width="0.7087" stroke-linecap="round" stroke-linejoin="round" stroke-miterlimit="10" x1="493.136" y1="263.814" x2="493.136" y2="246.732"/>
</g>
<g id="LINE_17_">
	
		<line fill="none" stroke="#000000" stroke-width="0.7087" stroke-linecap="round" stroke-linejoin="round" stroke-miterlimit="10" x1="493.136" y1="246.732" x2="227.821" y2="246.732"/>
</g>
<g id="LINE_18_">
	
		<line fill="none" stroke="#000000" stroke-width="0.7087" stroke-linecap="round" stroke-linejoin="round" stroke-miterlimit="10" x1="227.821" y1="246.732" x2="227.821" y2="263.814"/>
</g>
<g id="LINE_19_">
	
		<line fill="none" stroke="#000000" stroke-width="0.7087" stroke-linecap="round" stroke-linejoin="round" stroke-miterlimit="10" x1="493.136" y1="214.348" x2="493.136" y2="199.066"/>
</g>
<g id="LINE_20_">
	
		<line fill="none" stroke="#000000" stroke-width="0.7087" stroke-linecap="round" stroke-linejoin="round" stroke-miterlimit="10" x1="493.136" y1="199.066" x2="227.821" y2="199.066"/>
</g>
<g id="LINE_21_">
	
		<line fill="none" stroke="#000000" stroke-width="0.7087" stroke-linecap="round" stroke-linejoin="round" stroke-miterlimit="10" x1="227.821" y1="199.066" x2="227.821" y2="214.348"/>
</g>
<g id="LINE_22_">
	
		<line fill="none" stroke="#000000" stroke-width="0.7087" stroke-linecap="round" stroke-linejoin="round" stroke-miterlimit="10" x1="227.821" y1="214.348" x2="493.136" y2="214.348"/>
</g>
<g id="LINE_23_">
	
		<line fill="none" stroke="#000000" stroke-width="0.7087" stroke-linecap="round" stroke-linejoin="round" stroke-miterlimit="10" x1="129.789" y1="247.633" x2="184.656" y2="247.633"/>
</g>
<g id="LINE_24_">
	
		<line fill="none" stroke="#000000" stroke-width="0.7087" stroke-linecap="round" stroke-linejoin="round" stroke-miterlimit="10" x1="184.656" y1="247.633" x2="184.656" y2="193.666"/>
</g>
<g id="LINE_25_">
	
		<line fill="none" stroke="#000000" stroke-width="0.7087" stroke-linecap="round" stroke-linejoin="round" stroke-miterlimit="10" x1="184.656" y1="193.666" x2="129.789" y2="247.633"/>
</g>
</svg>
