<?xml version="1.0" encoding="utf-8"?>
<!-- Generator: Adobe Illustrator 16.0.1, SVG Export Plug-In . SVG Version: 6.00 Build 0)  -->
<!DOCTYPE svg PUBLIC "-//W3C//DTD SVG 1.0//EN" "http://www.w3.org/TR/2001/REC-SVG-20010904/DTD/svg10.dtd">
<svg version="1.0" id="_x31_" xmlns="http://www.w3.org/2000/svg" xmlns:xlink="http://www.w3.org/1999/xlink" x="0px" y="0px"
	 width="612px" height="792px" viewBox="0 0 612 792" enable-background="new 0 0 612 792" xml:space="preserve">
<g id="LWPOLYLINE">
	
		<path fill="none" stroke="#000000" stroke-width="0.7087" stroke-linecap="round" stroke-linejoin="round" stroke-miterlimit="10" d="
		M110.483,614.311l-0.062,0.754l-0.062,0.752l-0.042,0.836l-0.042,0.836l-0.021,0.92v0.92l0.021,0.92l0.021,1.004l0.063,1.002
		l0.083,1.004l0.126,1.004l0.146,1.045l0.188,1.086l0.209,1.047l0.271,1.045l0.293,1.045l0.355,1.086l0.397,1.045l0.438,1.004
		l0.502,1.045l0.564,1.004l0.627,0.961l0.669,0.963l0.752,0.918l0.795,0.92l0.878,0.836l0.961,0.838l1.024,0.793l1.108,0.754
		l1.17,0.668l1.275,0.67l1.358,0.584l1.422,0.543l1.547,0.461l1.609,0.418l1.714,0.334l1.818,0.293l1.924,0.168l2.027,0.125
		l2.132,0.041h1.149l1.15-0.041l1.149-0.084l1.129-0.084l1.129-0.125l1.129-0.125l1.107-0.209l1.087-0.209l1.087-0.252l1.066-0.25
		l1.045-0.293l1.045-0.334l1.004-0.377l1.003-0.418l0.982-0.459l0.94-0.461l0.92-0.502l0.92-0.543l0.878-0.586l0.836-0.627
		l0.815-0.668l0.794-0.711l0.753-0.752l0.731-0.754l0.689-0.836l0.669-0.836l0.606-0.92l0.585-0.961l0.544-1.004l0.502-1.002
		l0.459-1.088l0.419-1.129l0.376-1.17l0.334-1.254l0.272-1.254l0.229-1.297l0.188-1.379l0.125-1.422l0.084-1.463l0.042-1.506
		l-0.084-2.299l-0.251-2.217l-0.376-2.047l-0.522-1.965l-0.648-1.84l-0.773-1.715l-0.898-1.672l-1.004-1.547l-1.087-1.463
		l-1.191-1.379l-1.275-1.297l-1.337-1.254l-1.401-1.17l-1.463-1.129l-1.525-1.047l-1.547-1.045l-1.589-0.961l-1.609-0.961
		l-1.631-0.879l-1.63-0.92l-1.631-0.877l-1.631-0.836l-1.609-0.879l-1.588-0.836l-1.568-0.877l-1.505-0.879l-1.463-0.877l-1.4-0.92
		l-1.338-0.92l-1.275-1.004l-1.191-1.004l-1.087-1.045l-1.003-1.129l-0.899-1.129l-0.773-1.254l-0.647-1.295l-0.523-1.338
		l-0.376-1.463l-0.251-1.547l-0.083-1.631l0.021-0.752l0.042-0.711l0.084-0.711l0.083-0.711l0.126-0.668l0.146-0.67l0.168-0.627
		l0.209-0.586l0.209-0.584l0.251-0.586l0.25-0.543l0.293-0.502l0.313-0.502l0.313-0.502l0.355-0.459l0.355-0.418l0.376-0.418
		l0.397-0.418l0.418-0.377l0.418-0.377l0.439-0.334l0.46-0.334l0.46-0.293l0.48-0.293l0.48-0.25l0.502-0.252l0.522-0.25l0.522-0.209
		l0.522-0.209l0.544-0.168l0.543-0.166l0.564-0.127l0.544-0.125l0.564-0.125l0.564-0.084l0.585-0.084l0.564-0.041l0.585-0.043
		l0.564-0.041h0.585l0.815,0.041l0.795,0.043l0.752,0.041l0.753,0.127l0.71,0.125l0.669,0.125l0.669,0.209l0.627,0.168l0.606,0.25
		l0.564,0.25l0.564,0.293l0.522,0.293l0.502,0.293l0.48,0.377l0.46,0.375l0.439,0.377l0.418,0.418l0.376,0.418l0.376,0.459
		l0.355,0.461l0.313,0.502l0.313,0.502l0.293,0.543l0.251,0.543l0.251,0.543l0.229,0.586l0.209,0.586l0.188,0.627l0.188,0.627
		l0.146,0.668l0.146,0.627l0.126,0.67l0.104,0.711l0.083,0.668l0.084,0.711l0.062,0.752l0.042,0.711l0.042,0.754l0.021,0.752v0.752
		c0.209,0,0.355,0,0.355,0c0.188,0,0.418,0,0.418,0h0.271h0.293h0.313h0.355h0.376h0.397h0.418h0.418h0.439h0.459h0.481h0.46h0.48
		h0.48h0.481h0.48h0.48h0.46h0.46h0.438h0.439h0.418h0.397h0.355h0.355h0.334h0.293h0.251h0.229c0.188,0,0.355,0,0.355,0
		c0.188,0,0.251-1.422,0.251-1.422v-1.42l-0.042-1.381l-0.084-1.338l-0.125-1.295l-0.146-1.254l-0.209-1.213l-0.229-1.17
		l-0.272-1.129l-0.313-1.088l-0.355-1.045l-0.396-1.004l-0.418-1.002l-0.46-0.92l-0.502-0.879l-0.544-0.877l-0.564-0.836
		l-0.605-0.754l-0.648-0.752l-0.669-0.711l-0.711-0.668l-0.731-0.627l-0.773-0.629l-0.814-0.543l-0.837-0.543l-0.856-0.502
		l-0.899-0.418l-0.94-0.418l-0.961-0.418l-1.004-0.334l-1.003-0.336l-1.066-0.25l-1.066-0.25l-1.107-0.209l-1.149-0.209
		l-1.171-0.127l-1.191-0.125l-1.212-0.084l-1.233-0.041h-1.275h-1.213l-1.212,0.041l-1.171,0.084l-1.17,0.125l-1.15,0.127
		l-1.149,0.166l-1.107,0.209l-1.108,0.252l-1.087,0.291l-1.045,0.293l-1.045,0.336l-1.004,0.375L126.851,546l-0.962,0.461
		l-0.94,0.459l-0.92,0.502l-0.878,0.543l-0.856,0.586l-0.836,0.586l-0.795,0.668l-0.773,0.67l-0.752,0.709l-0.711,0.754
		l-0.669,0.752l-0.627,0.836l-0.606,0.836l-0.585,0.879l-0.522,0.92l-0.502,0.918l-0.46,1.004l-0.418,1.004l-0.376,1.045
		l-0.335,1.088l-0.293,1.127l-0.25,1.172l-0.209,1.17l-0.168,1.213l-0.104,1.295l-0.083,1.297l-0.021,1.295l0.084,2.217l0.229,2.049
		l0.397,1.965l0.522,1.84l0.648,1.756l0.773,1.672l0.898,1.588l0.982,1.463l1.108,1.381l1.17,1.338l1.275,1.254l1.338,1.213
		l1.421,1.127l1.464,1.088l1.505,1.045l1.547,1.004l1.588,0.92l1.61,0.961l1.63,0.877l1.651,0.879l1.631,0.836l1.63,0.879
		l1.609,0.836l1.589,0.836l1.547,0.836l1.505,0.877l1.484,0.879l1.4,0.877l1.338,0.92l1.275,0.963l1.17,1.002l1.108,1.045
		l1.003,1.047l0.878,1.17l0.773,1.17l0.669,1.254l0.522,1.338l0.377,1.381l0.229,1.463l0.084,1.588l-0.021,0.879l-0.042,0.836
		l-0.062,0.836l-0.104,0.795l-0.125,0.793l-0.146,0.754l-0.167,0.709l-0.209,0.67l-0.23,0.668l-0.251,0.67l-0.271,0.584
		l-0.293,0.586l-0.313,0.586l-0.334,0.543l-0.355,0.502l-0.397,0.502l-0.396,0.459l-0.419,0.418l-0.438,0.418l-0.46,0.418
		l-0.46,0.377l-0.502,0.334l-0.501,0.334l-0.522,0.336l-0.544,0.25l-0.543,0.293l-0.586,0.25l-0.564,0.209l-0.605,0.209
		l-0.606,0.168l-0.627,0.168l-0.627,0.166l-0.648,0.127l-0.647,0.125l-0.669,0.084l-0.669,0.082l-0.669,0.043l-0.69,0.041
		l-0.689,0.043h-0.711h-0.585l-0.585-0.043l-0.586-0.041l-0.585-0.043l-0.564-0.082l-0.585-0.084l-0.586-0.125l-0.585-0.127
		l-0.564-0.166l-0.564-0.168l-0.564-0.209l-0.564-0.209l-0.543-0.25l-0.544-0.252l-0.522-0.293l-0.522-0.291l-0.522-0.336
		l-0.502-0.375l-0.48-0.377l-0.48-0.377l-0.439-0.459l-0.46-0.418l-0.418-0.502l-0.418-0.502l-0.376-0.543l-0.377-0.586
		l-0.355-0.584l-0.334-0.629l-0.313-0.627l-0.293-0.709l-0.251-0.711l-0.25-0.754l-0.209-0.752l-0.188-0.836l-0.167-0.836
		l-0.146-0.836l-0.104-0.92l-0.062-0.961l-0.063-0.963v-1.002c0-0.209,0-0.293,0-0.293c0-0.209,0-0.252,0-0.252
		c0-0.166,0-0.293,0-0.293c0-0.166,0-0.25,0-0.25c0-0.209,0-0.293,0-0.293c0-0.209,0-0.293,0-0.293c0-0.166,0-0.25,0-0.25
		c0-0.168,0-0.25,0-0.25c0-0.209,0-0.252,0-0.252C122.481,614.311,110.483,614.311,110.483,614.311z"/>
</g>
<g id="LWPOLYLINE_1_">
	
		<path fill="none" stroke="#000000" stroke-width="0.7087" stroke-linecap="round" stroke-linejoin="round" stroke-miterlimit="10" d="
		M238.055,644.287c0-0.168,0-0.293,0-0.293c0-0.168,0-0.377,0-0.377v-0.209v-0.25v-0.293v-0.293v-0.334v-0.334v-0.377v-0.377v-0.375
		v-0.418v-0.377v-0.418v-0.418v-0.418v-0.418v-0.418v-0.418v-0.377v-0.418v-0.377v-0.375v-0.377v-0.334v-0.293v-0.334v-0.252v-0.25
		v-0.252c0-0.209,0-0.375,0-0.375c0-0.125,0-0.209,0-0.209c-0.062-0.084-0.271-0.084-0.271-0.084h-0.335h-0.46h-0.585h-0.689h-0.773
		h-0.878h-0.982h-1.046h-1.107h-1.191h-1.233h-1.296h-1.338h-1.38h-1.4h-1.421h-1.422h-1.442h-1.442h-1.442h-1.421h-1.4h-1.38
		h-1.338h-1.275h-1.254h-1.171h-1.128h-1.046h-0.961h-0.878h-0.795h-0.689h-0.564h-0.46h-0.355c-0.209,0-0.271,0-0.271,0
		c0-0.084,0-0.25,0-0.25v-0.293v-0.418v-0.502v-0.627v-0.711v-0.752v-0.879v-0.92v-1.004v-1.045v-1.086v-1.17v-1.172v-1.213v-1.254
		v-1.254v-1.295v-1.297v-1.254v-1.297v-1.254v-1.254v-1.213v-1.17v-1.17v-1.088v-1.045v-1.004v-0.92v-0.877v-0.795v-0.668v-0.627
		v-0.502v-0.418v-0.293c0-0.209,0-0.25,0-0.25c0.062,0,0.251,0,0.251,0h0.313h0.418h0.522h0.627h0.711h0.815h0.878h0.94h1.024h1.087
		h1.129h1.17h1.213h1.254h1.275h1.296h1.316h1.317h1.316h1.297h1.296h1.274h1.255h1.212h1.191h1.129h1.066h1.023h0.962h0.878h0.794
		h0.711h0.627h0.522h0.419h0.313c0.188,0,0.25,0,0.25,0c0-0.168,0-0.336,0-0.336c0-0.166,0-0.334,0-0.334v-0.25v-0.252v-0.293
		v-0.291v-0.336v-0.334v-0.334v-0.377v-0.375v-0.418v-0.42v-0.375v-0.418v-0.418v-0.418v-0.418v-0.418v-0.418v-0.377v-0.377v-0.375
		v-0.377v-0.334v-0.334v-0.293v-0.293v-0.252v-0.209c0-0.209,0-0.375,0-0.375c0-0.125,0-0.252,0-0.252
		c-0.062-0.041-0.25-0.041-0.25-0.041h-0.313h-0.419h-0.522h-0.627h-0.711h-0.794h-0.878h-0.962h-1.023h-1.066h-1.129h-1.191h-1.212
		h-1.255h-1.274h-1.296h-1.297h-1.316h-1.317h-1.316h-1.296h-1.275h-1.254h-1.213h-1.17h-1.129h-1.087h-1.024h-0.94h-0.878h-0.815
		h-0.711h-0.627h-0.522h-0.418h-0.313c-0.188,0-0.251,0-0.251,0c0-0.084,0-0.252,0-0.252v-0.291v-0.377v-0.459v-0.586v-0.627v-0.711
		v-0.795v-0.877v-0.92v-0.961v-1.047v-1.045v-1.086v-1.129v-1.17v-1.172v-1.17v-1.17v-1.213v-1.172v-1.17v-1.17v-1.088v-1.129
		v-1.045v-1.045v-0.961v-0.92v-0.836v-0.795v-0.752v-0.627v-0.586v-0.459v-0.377v-0.293c0-0.166,0-0.209,0-0.209
		c0.062,0,0.271,0,0.271,0h0.335h0.438h0.564h0.69h0.752h0.857h0.961h1.024h1.087h1.149h1.213h1.275h1.296h1.338h1.379h1.38h1.422
		h1.4h1.421h1.4h1.38h1.38h1.338h1.296h1.274h1.213h1.149h1.108h1.023h0.941h0.856h0.773h0.669h0.564h0.439h0.334
		c0.209,0,0.271,0,0.271,0c0-0.166,0-0.334,0-0.334c0-0.168,0-0.334,0-0.334v-0.252v-0.25v-0.293v-0.293v-0.334v-0.334v-0.336
		v-0.375v-0.377v-0.418v-0.418v-0.377v-0.418v-0.418v-0.418v-0.418v-0.418v-0.418v-0.375v-0.377v-0.377v-0.375v-0.336v-0.334v-0.293
		v-0.293v-0.25v-0.209c0-0.209,0-0.377,0-0.377c0-0.125,0-0.25,0-0.25c-0.083-0.041-0.355-0.041-0.355-0.041h-0.438h-0.585h-0.753
		h-0.878h-1.003h-1.15h-1.233h-1.358H228h-1.525h-1.589h-1.672h-1.715h-1.776h-1.798h-1.839h-1.861h-1.86h-1.86h-1.839h-1.84h-1.798
		h-1.776h-1.714h-1.673h-1.588h-1.526h-1.442h-1.358h-1.233h-1.149h-1.004h-0.878h-0.752h-0.586h-0.438h-0.271
		c-0.084,0.166-0.084,0.709-0.084,0.709v0.879v1.17v1.506v1.756v2.006v2.299v2.467v2.719v2.885v3.051v3.178v3.344v3.428v3.555v3.596
		v3.678v3.68v3.721v3.721v3.721v3.68v3.594v3.555v3.428v3.344v3.178v3.053v2.885v2.674v2.51v2.258v2.047v1.756v1.506v1.17v0.879
		v0.543C187.553,644.287,238.055,644.287,238.055,644.287z"/>
</g>
<g id="LWPOLYLINE_2_">
	
		<path fill="none" stroke="#000000" stroke-width="0.7087" stroke-linecap="round" stroke-linejoin="round" stroke-miterlimit="10" d="
		M300.555,644.287c0-0.168,0-0.293,0-0.293c0-0.168,0-0.377,0-0.377v-0.209v-0.25v-0.293v-0.293v-0.334v-0.334v-0.377v-0.377v-0.375
		v-0.418v-0.377v-0.418v-0.418v-0.418v-0.418v-0.418v-0.418v-0.377v-0.418v-0.377v-0.375v-0.377v-0.334v-0.293v-0.334v-0.252v-0.25
		v-0.252c0-0.209,0-0.375,0-0.375c0-0.125,0-0.209,0-0.209c-0.062-0.084-0.251-0.084-0.251-0.084h-0.313h-0.439h-0.543h-0.627
		h-0.731h-0.837h-0.898h-0.982h-1.024H292.8h-1.171h-1.191h-1.254h-1.275h-1.316h-1.317h-1.338h-1.358h-1.338h-1.338h-1.338h-1.296
		h-1.296h-1.233h-1.212h-1.15h-1.107h-1.045h-0.982h-0.899h-0.815h-0.731h-0.647h-0.544h-0.418h-0.334c-0.188,0-0.251,0-0.251,0
		c0-0.168,0-0.627,0-0.627v-0.795v-1.045v-1.338v-1.547v-1.797v-2.008v-2.215v-2.426v-2.549v-2.719v-2.842v-2.926v-3.053v-3.178
		v-3.176v-3.262v-3.303v-3.303v-3.303v-3.26v-3.262v-3.219v-3.137v-3.051v-2.969v-2.842v-2.719v-2.549v-2.383v-2.217v-2.006v-1.799
		v-1.588v-1.297v-1.086v-0.752v-0.502c-0.188-0.125-0.335-0.125-0.335-0.125c-0.188,0-0.396,0-0.396,0h-0.251h-0.272h-0.292h-0.335
		h-0.334h-0.376h-0.377h-0.418h-0.396h-0.439h-0.438h-0.439h-0.438h-0.46h-0.439h-0.46h-0.438h-0.439h-0.418h-0.418h-0.397h-0.396
		h-0.355h-0.355h-0.313h-0.313h-0.271h-0.251c-0.209,0-0.377,0-0.377,0c-0.146,0-0.25,0-0.25,0
		c-0.084,0.166-0.084,0.709-0.084,0.709v0.879v1.17v1.506v1.756v2.006v2.299v2.467v2.719v2.885v3.051v3.178v3.344v3.428v3.555v3.596
		v3.678v3.68v3.721v3.721v3.721v3.68v3.594v3.555v3.428v3.344v3.178v3.053v2.885v2.674v2.51v2.258v2.047v1.756v1.506v1.17v0.879
		v0.543C252.624,644.287,300.555,644.287,300.555,644.287z"/>
</g>
<g id="LWPOLYLINE_3_">
	
		<path fill="none" stroke="#000000" stroke-width="0.7087" stroke-linecap="round" stroke-linejoin="round" stroke-miterlimit="10" d="
		M360.483,644.287c0-0.168,0-0.293,0-0.293c0-0.168,0-0.377,0-0.377v-0.209v-0.25v-0.293v-0.293v-0.334v-0.334v-0.377v-0.377v-0.375
		v-0.418v-0.377v-0.418v-0.418v-0.418v-0.418v-0.418v-0.418v-0.377v-0.418v-0.377v-0.375v-0.377v-0.334v-0.293v-0.334v-0.252v-0.25
		v-0.252c0-0.209,0-0.375,0-0.375c0-0.125,0-0.209,0-0.209c-0.042-0.084-0.251-0.084-0.251-0.084h-0.376h-0.46h-0.544h-0.71h-0.795
		h-0.878h-0.961h-1.045h-1.129h-1.171h-1.254h-1.255h-1.337h-1.38h-1.422h-1.421h-1.422h-1.463h-1.422h-1.421h-1.422h-1.421h-1.38
		h-1.338h-1.296H330.3h-1.213H328h-1.045h-0.962h-0.919h-0.753h-0.711h-0.585h-0.46h-0.335c-0.209,0-0.25,0-0.25,0
		c0-0.084,0-0.25,0-0.25v-0.293v-0.418v-0.502v-0.627v-0.711v-0.752v-0.879v-0.92v-1.004v-1.045v-1.086v-1.17v-1.172v-1.213v-1.254
		v-1.254v-1.295v-1.297v-1.254v-1.297v-1.254v-1.254v-1.213v-1.17v-1.17v-1.088v-1.045v-1.004v-0.92v-0.877v-0.795v-0.668v-0.627
		v-0.502v-0.418v-0.293c0-0.209,0-0.25,0-0.25c0.041,0,0.25,0,0.25,0h0.293h0.418h0.544h0.627h0.711h0.794h0.878h0.962h1.003h1.087
		h1.129h1.171h1.212h1.254h1.296h1.297h1.296h1.338h1.296h1.296h1.296h1.296h1.254h1.213h1.17h1.129h1.087h1.004h0.961h0.878h0.795
		h0.71h0.628h0.543h0.418h0.293c0.209,0,0.251,0,0.251,0c0-0.168,0-0.336,0-0.336c0-0.166,0-0.334,0-0.334v-0.25v-0.252v-0.293
		v-0.291v-0.336v-0.334v-0.334v-0.377v-0.375v-0.418v-0.42v-0.375v-0.418v-0.418v-0.418v-0.418v-0.418v-0.418v-0.377v-0.377v-0.375
		v-0.377v-0.334v-0.334v-0.293v-0.293v-0.252v-0.209c0-0.209,0-0.375,0-0.375c0-0.125,0-0.252,0-0.252
		c-0.042-0.041-0.251-0.041-0.251-0.041h-0.293h-0.418h-0.543h-0.628h-0.71h-0.795h-0.878h-0.961h-1.004h-1.087h-1.129h-1.17h-1.213
		h-1.254h-1.296h-1.296h-1.296h-1.296h-1.338h-1.296h-1.297h-1.296h-1.254h-1.212h-1.171h-1.129h-1.087h-1.003h-0.962h-0.878h-0.794
		h-0.711h-0.627h-0.544h-0.418h-0.293c-0.209,0-0.25,0-0.25,0c0-0.084,0-0.252,0-0.252v-0.291v-0.377v-0.459v-0.586v-0.627v-0.711
		v-0.795v-0.877v-0.92v-0.961v-1.047v-1.045v-1.086v-1.129v-1.17v-1.172v-1.17v-1.17v-1.213v-1.172v-1.17v-1.17v-1.088v-1.129
		v-1.045v-1.045v-0.961v-0.92v-0.836v-0.795v-0.752v-0.627v-0.586v-0.459v-0.377v-0.293c0-0.166,0-0.209,0-0.209
		c0.041,0,0.25,0,0.25,0h0.335h0.46h0.543h0.669h0.795h0.836h0.962h1.003h1.129h1.129h1.212h1.296h1.296h1.338h1.38h1.38h1.379
		h1.422h1.421h1.422h1.38h1.379h1.338h1.296h1.255h1.212h1.171h1.087h1.003h0.962h0.878h0.752h0.669h0.586h0.418h0.334
		c0.209,0,0.293,0,0.293,0c0-0.166,0-0.334,0-0.334c0-0.168,0-0.334,0-0.334v-0.252v-0.25v-0.293v-0.293v-0.334v-0.334v-0.336
		v-0.375v-0.377v-0.418v-0.418v-0.377v-0.418v-0.418v-0.418v-0.418v-0.418v-0.418v-0.375v-0.377v-0.377v-0.375v-0.336v-0.334v-0.293
		v-0.293v-0.25v-0.209c0-0.209,0-0.377,0-0.377c0-0.125,0-0.25,0-0.25c-0.084-0.041-0.376-0.041-0.376-0.041h-0.419h-0.585h-0.752
		h-0.878h-1.046h-1.128h-1.255h-1.338h-1.421h-1.547h-1.589h-1.672h-1.714h-1.756h-1.84h-1.798h-1.881h-1.84h-1.881h-1.84h-1.84
		h-1.797h-1.756h-1.715h-1.672h-1.589h-1.547h-1.421h-1.38h-1.254h-1.129h-1.003h-0.878h-0.753h-0.585h-0.418h-0.293
		c-0.084,0.166-0.084,0.709-0.084,0.709v0.879v1.17v1.506v1.756v2.006v2.299v2.467v2.719v2.885v3.051v3.178v3.344v3.428v3.555v3.596
		v3.678v3.68v3.721v3.721v3.721v3.68v3.594v3.555v3.428v3.344v3.178v3.053v2.885v2.674v2.51v2.258v2.047v1.756v1.506v1.17v0.879
		v0.543C309.981,644.287,360.483,644.287,360.483,644.287z"/>
</g>
<g id="LWPOLYLINE_4_">
	
		<path fill="none" stroke="#000000" stroke-width="0.7087" stroke-linecap="round" stroke-linejoin="round" stroke-miterlimit="10" d="
		M429.84,572.381l0.125-1.465l0.084-1.42l0.042-1.381v-1.338l-0.042-1.295l-0.084-1.297l-0.083-1.211l-0.168-1.172l-0.167-1.17
		l-0.209-1.129l-0.251-1.045l-0.292-1.045l-0.335-1.004l-0.334-0.961l-0.418-0.92l-0.419-0.92l-0.501-0.836l-0.502-0.836
		l-0.544-0.754l-0.585-0.752l-0.669-0.711l-0.669-0.668l-0.669-0.627l-0.752-0.586l-0.795-0.543l-0.836-0.543l-0.836-0.461
		l-0.92-0.459l-0.961-0.418l-0.962-0.377l-1.045-0.334l-1.046-0.293l-1.087-0.293l-1.17-0.209l-1.171-0.209l-1.254-0.168
		l-1.254-0.125l-1.297-0.084l-1.337-0.041h-1.422h-1.463l-1.422,0.041l-1.421,0.084l-1.338,0.084l-1.38,0.168l-1.296,0.166
		l-1.296,0.209l-1.213,0.252l-1.254,0.291l-1.171,0.336l-1.128,0.334l-1.129,0.418l-1.087,0.459l-1.046,0.502l-1.045,0.502
		l-0.961,0.586l-0.962,0.627l-0.878,0.711l-0.878,0.711l-0.836,0.793l-0.795,0.795l-0.794,0.92l-0.711,0.92l-0.669,1.004
		l-0.669,1.045l-0.627,1.086l-0.543,1.172l-0.544,1.211l-0.501,1.254l-0.419,1.381l-0.418,1.379l-0.376,1.463l-0.334,1.547
		l-0.293,1.59l-0.209,1.672l-0.209,1.713l-0.167,1.84l-0.084,1.84l-0.084,1.965l-0.041,2.006c0,0.209,0,0.461,0,0.461v0.334v0.418
		v0.502v0.586v0.668v0.711v0.752v0.795v0.879v0.918v0.963v0.961v1.004v1.045v1.045v1.045v1.045v1.045v1.088v1.045v1.004v1.002v1.004
		v0.92v0.92v0.877v0.795v0.795v0.711v0.627v0.584v0.502v0.418v0.336v0.25c0,0.209,0.041,3.053,0.041,3.053l0.126,2.674l0.167,2.551
		l0.209,2.383l0.293,2.299l0.376,2.174l0.418,2.049l0.46,1.924l0.502,1.797l0.543,1.715l0.627,1.588l0.669,1.506l0.669,1.379
		l0.753,1.297l0.752,1.213l0.795,1.127l0.836,1.004l0.878,0.961l0.92,0.879l0.92,0.795l0.919,0.711l0.962,0.627l1.003,0.584
		l0.962,0.545l1.003,0.459l1.046,0.418l1.003,0.334l1.045,0.334l1.046,0.252l1.045,0.25l1.003,0.168l1.045,0.168l1.004,0.125
		l1.045,0.084l1.004,0.041l0.961,0.084h1.004l0.961,0.041h0.92h0.92h0.543h0.586h0.627l0.669-0.041h0.752l0.753-0.043l0.794-0.082
		l0.836-0.084l0.837-0.084l0.878-0.168l0.919-0.166l0.878-0.168l0.962-0.25l0.92-0.252l0.92-0.334l0.961-0.334l0.962-0.418
		l0.92-0.461l0.92-0.502l0.961-0.584l0.878-0.627l0.92-0.67l0.836-0.752l0.836-0.836l0.837-0.879l0.794-0.961l0.752-1.045
		l0.711-1.129l0.669-1.213l0.586-1.295l0.585-1.381l0.543-1.463l0.46-1.547l0.377-1.672l0.376-1.756l0.251-1.881l0.209-2.008
		l0.125-2.09l0.084-2.174l-0.042-2.342c-0.209,0-0.376,0-0.376,0c-0.168,0-0.418,0-0.418,0h-0.251h-0.293h-0.334h-0.335h-0.376
		h-0.376h-0.419h-0.418h-0.46h-0.459h-0.46h-0.502h-0.46h-0.46h-0.502h-0.459h-0.502h-0.46h-0.46h-0.46h-0.418h-0.418h-0.376h-0.377
		h-0.334h-0.335h-0.292h-0.251h-0.251c-0.209,0-0.334,0-0.334,0c-0.21,0-0.251,1.465-0.251,1.465l-0.042,1.379l-0.084,1.297
		l-0.167,1.254l-0.167,1.211l-0.209,1.129l-0.209,1.045l-0.293,1.047l-0.293,0.918l-0.292,0.92l-0.377,0.879l-0.334,0.795
		l-0.418,0.752l-0.418,0.711l-0.418,0.627l-0.418,0.627l-0.46,0.586l-0.502,0.5l-0.46,0.502l-0.502,0.461l-0.501,0.418l-0.502,0.375
		l-0.502,0.336l-0.543,0.334l-0.502,0.293l-0.502,0.25l-0.543,0.209l-0.502,0.209l-0.502,0.168l-0.501,0.166l-0.502,0.127
		l-0.46,0.082l-0.46,0.127l-0.46,0.041l-0.46,0.084l-0.418,0.041l-0.376,0.043h-0.376h-0.377h-0.334h-0.711h-0.669l-0.711-0.043
		l-0.669-0.041l-0.669-0.084l-0.668-0.084l-0.628-0.125l-0.669-0.168l-0.627-0.166l-0.627-0.168l-0.585-0.25l-0.627-0.252
		l-0.544-0.293l-0.585-0.291l-0.544-0.377l-0.543-0.377l-0.544-0.418l-0.501-0.502l-0.502-0.5l-0.46-0.545l-0.46-0.627l-0.418-0.627
		l-0.418-0.711l-0.418-0.752l-0.377-0.795l-0.376-0.836l-0.334-0.92l-0.293-0.92l-0.334-1.045l-0.251-1.086l-0.251-1.129
		l-0.209-1.213l-0.209-1.254l-0.167-1.338l-0.168-1.379l-0.125-1.463l-0.084-1.547l-0.083-1.631l-0.042-1.672v-1.756
		c0-0.209,0-0.418,0-0.418v-0.336v-0.375v-0.502v-0.502v-0.627v-0.67v-0.709V603.4v-0.795v-0.877v-0.879v-0.92v-0.92v-1.002v-0.963
		v-1.002v-0.963v-1.002v-1.004v-0.961v-0.963v-0.961v-0.92v-0.877v-0.879v-0.795v-0.793v-0.711v-0.67v-0.584v-0.545v-0.5v-0.377
		v-0.334v-0.209c0-0.209,0-1.463,0-1.463v-1.213l0.042-1.129v-1.129l0.041-1.045l0.042-1.004l0.084-0.961l0.042-0.879l0.083-0.877
		l0.042-0.836l0.084-0.754l0.083-0.752l0.084-0.668l0.084-0.67l0.083-0.627l0.084-0.586l0.125-0.543l0.084-0.502l0.083-0.502
		l0.084-0.459l0.126-0.418l0.083-0.377l0.084-0.334l0.083-0.334l0.126-0.334l0.083-0.293l0.084-0.252l0.084-0.25l0.083-0.209
		c0.084-0.209,0.126-0.377,0.126-0.377c0.083-0.166,0.125-0.293,0.125-0.293c0.042-0.125,0.084-0.25,0.084-0.25
		c0.083-0.209,0.125-0.293,0.125-0.293c0-0.125,0.084-0.293,0.084-0.293c0.083-0.125,0.167-0.293,0.167-0.293
		c0.125-0.166,0.251-0.375,0.251-0.375c0.125-0.209,0.293-0.418,0.293-0.418l0.167-0.209l0.167-0.252l0.209-0.209l0.209-0.25
		l0.209-0.252l0.251-0.25l0.251-0.25l0.293-0.293l0.292-0.252l0.293-0.25l0.334-0.252l0.335-0.291l0.376-0.252l0.376-0.25
		l0.377-0.252l0.418-0.25l0.46-0.25l0.418-0.209l0.501-0.252l0.46-0.209l0.544-0.209l0.502-0.168l0.543-0.209l0.585-0.166
		l0.586-0.125l0.627-0.168l0.627-0.125l0.627-0.084l0.669-0.125l0.711-0.043l0.711-0.084h0.752l0.753-0.041c0.125,0,0.293,0,0.293,0
		c0.167,0.041,0.334,0.041,0.334,0.041c0.209,0,0.376,0.043,0.376,0.043h0.251l0.209,0.041l0.251,0.043l0.251,0.041l0.251,0.043
		l0.251,0.041l0.292,0.041l0.251,0.084l0.293,0.043l0.292,0.082l0.293,0.084l0.293,0.043l0.334,0.125l0.293,0.084l0.293,0.082
		l0.334,0.127l0.293,0.082l0.292,0.127l0.335,0.125l0.293,0.166l0.292,0.127l0.293,0.125l0.293,0.168l0.292,0.166l0.293,0.168
		l0.251,0.209l0.292,0.166l0.251,0.209l0.251,0.209l0.251,0.209l0.209,0.209l0.251,0.252l0.209,0.25l0.209,0.252l0.167,0.25
		l0.167,0.252l0.209,0.291l0.168,0.252l0.167,0.293l0.125,0.293l0.168,0.291l0.167,0.336l0.125,0.291l0.126,0.336l0.125,0.293
		l0.126,0.334l0.125,0.334l0.125,0.334l0.084,0.334l0.125,0.336l0.084,0.375l0.084,0.336l0.125,0.375l0.084,0.377l0.042,0.377
		l0.083,0.375l0.084,0.377l0.042,0.375l0.083,0.377l0.042,0.418l0.042,0.377l0.042,0.418l0.041,0.418l0.042,0.418l0.042,0.377
		l0.042,0.459v0.418l0.042,0.418v0.418l0.042,0.418v0.461v0.459v0.418v0.461H429.84z"/>
</g>
<g id="LWPOLYLINE_5_">
	
		<path fill="none" stroke="#000000" stroke-width="0.7087" stroke-linecap="round" stroke-linejoin="round" stroke-miterlimit="10" d="
		M438.41,544.998c0,0.166,0,0.291,0,0.291c0,0.168,0,0.377,0,0.377v0.209v0.25v0.293v0.293v0.334v0.336v0.375v0.377v0.377v0.375
		v0.418v0.418v0.418v0.418v0.418v0.418v0.377v0.418v0.418v0.377v0.375v0.336v0.334v0.334v0.293v0.293v0.25v0.252
		c0,0.166,0,0.334,0,0.334c0,0.168,0,0.25,0,0.25c0.167,0.084,0.418,0.084,0.418,0.084h0.292h0.377h0.46h0.543h0.586h0.627h0.71
		h0.753h0.794h0.795h0.878h0.878h0.92h0.961h0.92h0.962h0.961h0.962h0.961h0.962h0.92h0.92h0.878h0.878h0.836h0.794h0.711h0.711
		h0.627h0.585h0.544h0.46h0.376h0.293h0.25c0.168,0.168,0.168,0.627,0.168,0.627v0.795v1.045v1.297v1.588v1.797v2.008v2.215v2.383
		v2.592v2.676v2.844v2.969v3.051v3.135v3.221v3.26v3.262v3.303v3.344v3.262v3.26v3.219v3.137v3.051v2.969v2.844v2.674v2.594v2.383
		v2.215v2.006v1.799v1.588v1.297v1.045v0.795v0.459c0.209,0.168,0.376,0.168,0.376,0.168c0.209,0,0.418,0,0.418,0h0.251h0.293h0.334
		h0.335h0.376h0.418h0.418h0.418h0.46h0.418h0.502h0.46h0.46h0.501h0.46h0.502h0.46h0.46h0.46h0.46h0.418h0.418h0.418h0.376h0.335
		h0.334h0.293h0.251h0.209c0.209,0,0.376,0,0.376,0c0.209-0.168,0.209-0.627,0.209-0.627v-0.795v-1.045v-1.297v-1.588v-1.799v-2.006
		v-2.215v-2.383v-2.594v-2.674v-2.844v-2.969v-3.051v-3.137v-3.219v-3.26v-3.262v-3.344v-3.303v-3.262v-3.26v-3.221v-3.135v-3.051
		v-2.969v-2.844v-2.676v-2.592v-2.383v-2.215v-2.008v-1.797v-1.588v-1.297v-1.045v-0.795v-0.459
		c0.167-0.168,0.376-0.168,0.376-0.168h0.293H478h0.46h0.502h0.543h0.627h0.669h0.753h0.753h0.794h0.836h0.836h0.92h0.878h0.92h0.92
		h0.961h0.92h0.92h0.92h0.878h0.92h0.836h0.836h0.794h0.753h0.752h0.669h0.628h0.543h0.502h0.46h0.376h0.293h0.209
		c0.167-0.166,0.167-0.334,0.167-0.334c0-0.168,0-0.334,0-0.334v-0.252v-0.25v-0.293v-0.293v-0.334v-0.334v-0.336v-0.375v-0.377
		v-0.418v-0.418v-0.377v-0.418v-0.418v-0.418v-0.418v-0.418v-0.418v-0.375v-0.377v-0.377v-0.375v-0.336v-0.334v-0.293v-0.293v-0.25
		v-0.209c0-0.209,0-0.377,0-0.377c0-0.125,0-0.25,0-0.25C501.746,544.998,438.41,544.998,438.41,544.998z"/>
</g>
<g id="ARC">
	
		<path fill="none" stroke="#000000" stroke-width="0.7087" stroke-linecap="round" stroke-linejoin="round" stroke-miterlimit="10" d="
		M240.897,171.648c-72.011,34.344-102.529,120.547-68.165,192.537c34.344,71.99,120.548,102.51,192.517,68.145
		c72.032-34.322,102.551-120.527,68.186-192.518c-14.339-30.078-38.67-54.264-68.771-68.479"/>
</g>
<g id="LINE">
	
		<line fill="none" stroke="#000000" stroke-width="0.7087" stroke-linecap="round" stroke-linejoin="round" stroke-miterlimit="10" x1="364.789" y1="170.625" x2="376.83" y2="146"/>
</g>
<g id="ARC_1_">
	
		<path fill="none" stroke="#000000" stroke-width="0.7087" stroke-linecap="round" stroke-linejoin="round" stroke-miterlimit="10" d="
		M228.711,146.857c-85.64,41.137-121.739,143.918-80.623,229.557c41.116,85.682,143.896,121.76,229.536,80.623
		c85.66-41.096,121.781-143.875,80.644-229.535c-17.057-35.516-45.735-64.09-81.312-80.979"/>
</g>
<g id="LINE_1_">
	
		<line fill="none" stroke="#000000" stroke-width="0.7087" stroke-linecap="round" stroke-linejoin="round" stroke-miterlimit="10" x1="228.648" y1="146.377" x2="240.709" y2="171.021"/>
</g>
</svg>
