<?xml version="1.0" encoding="utf-8"?>
<!-- Generator: Adobe Illustrator 16.0.1, SVG Export Plug-In . SVG Version: 6.00 Build 0)  -->
<!DOCTYPE svg PUBLIC "-//W3C//DTD SVG 1.0//EN" "http://www.w3.org/TR/2001/REC-SVG-20010904/DTD/svg10.dtd">
<svg version="1.0" id="_x31_" xmlns="http://www.w3.org/2000/svg" xmlns:xlink="http://www.w3.org/1999/xlink" x="0px" y="0px"
	 width="612px" height="792px" viewBox="0 0 612 792" enable-background="new 0 0 612 792" xml:space="preserve">
<g id="LWPOLYLINE">
	
		<path fill="none" stroke="#000000" stroke-width="0.7087" stroke-linecap="round" stroke-linejoin="round" stroke-miterlimit="10" d="
		M59.404,496c0.113,0,0.426,0,0.426,0h0.482h0.682h0.852h1.021h1.164h1.305h1.42h1.562h1.646h1.76h1.816h1.932h1.957h2.016h2.074
		h2.129h2.1h2.158h2.129h2.129h2.102h2.072h2.016h1.986h1.902h1.846h1.732h1.646h1.561h1.42h1.305h1.164h1.023h0.852h0.682h0.482
		h0.312c0.113,0,2.299,0,2.299,0h2.129h2.158h2.1h2.102l2.1-0.057h2.074l2.043-0.059l2.016-0.057l2.016-0.057l2.016-0.113
		l1.959-0.057l1.986-0.17l1.932-0.113l1.93-0.17l1.902-0.172l1.902-0.227l1.873-0.227l1.846-0.227l1.846-0.342l1.816-0.283
		l1.816-0.342l1.789-0.396l1.76-0.455l1.76-0.453l1.732-0.455l1.732-0.568l1.703-0.566l1.674-0.625l1.676-0.682l1.646-0.682
		l1.617-0.795l1.619-0.795l1.59-0.852l1.59-0.908l1.561-0.965l1.533-1.021l1.533-1.08l1.504-1.078l1.506-1.191l1.221-1.023
		l1.221-1.021l1.221-1.078l1.221-1.137l1.221-1.248l1.221-1.25l1.221-1.248l1.191-1.363l1.193-1.42l1.191-1.477l1.164-1.533
		l1.164-1.59l1.137-1.588l1.135-1.705l1.078-1.76l1.08-1.76l1.078-1.873l1.021-1.932l0.994-1.93l0.965-2.045l0.965-2.043l0.91-2.158
		l0.879-2.215l0.824-2.213l0.822-2.328l0.768-2.385l0.709-2.385l0.682-2.498l0.652-2.555l0.568-2.555l0.568-2.67l0.482-2.725
		l0.426-2.783l0.396-2.838l0.342-2.896l0.283-2.951l0.199-3.01l0.17-3.066l0.086-3.123l0.027-3.236v-1.986l-0.027-2.016
		l-0.086-2.016l-0.086-2.016l-0.113-2.016l-0.17-2.016l-0.17-2.016l-0.199-2.016l-0.227-1.988l-0.285-2.016l-0.283-2.016
		l-0.312-1.986l-0.369-1.986l-0.369-1.988l-0.426-1.986l-0.426-1.959l-0.482-1.959l-0.512-1.959l-0.539-1.932l-0.566-1.93
		l-0.625-1.902l-0.625-1.902l-0.682-1.873l-0.709-1.873l-0.738-1.846l-0.768-1.846l-0.795-1.816l-0.852-1.789l-0.879-1.789
		l-0.908-1.76l-0.967-1.73l-0.965-1.703l-1.021-1.676l-1.078-1.676l-1.08-1.646l-1.135-1.59l-1.193-1.59l-1.191-1.561l-1.25-1.533
		l-1.305-1.477l-1.676-1.959l-1.703-1.873l-1.76-1.76l-1.789-1.676l-1.816-1.561l-1.846-1.506l-1.873-1.418l-1.902-1.307
		l-1.959-1.248l-1.959-1.164l-1.986-1.107l-1.988-0.994l-2.043-0.965l-2.045-0.881l-2.072-0.822l-2.072-0.738l-2.102-0.682
		l-2.1-0.652l-2.129-0.568l-2.129-0.539l-2.131-0.482l-2.156-0.426l-2.158-0.369l-2.158-0.342l-2.156-0.312l-2.158-0.254
		l-2.158-0.229l-2.156-0.197l-2.158-0.172l-2.158-0.141l-2.156-0.113l-2.129-0.086l-2.129-0.086l-2.102-0.027l-2.102-0.057
		l-2.1-0.029h-2.072h-2.045L119.561,296h-2.016c-0.115,0-0.426,0-0.426,0h-0.512h-0.682h-0.879h-1.023h-1.191h-1.334h-1.449h-1.59
		h-1.674h-1.789h-1.873h-1.959h-2.016h-2.072h-2.102h-2.156H90.66h-2.186h-2.188h-2.156h-2.158h-2.102h-2.072h-2.016h-1.959h-1.873
		h-1.789h-1.674h-1.59h-1.447h-1.336h-1.191h-1.021h-0.881H60.34h-0.51h-0.312C59.404,296,59.404,496,59.404,496z"/>
</g>
<g id="LWPOLYLINE_1_">
	
		<path fill="none" stroke="#000000" stroke-width="0.7087" stroke-linecap="round" stroke-linejoin="round" stroke-miterlimit="10" d="
		M87.311,319.277c0.256,0,0.539,0,0.539,0h0.396h0.512h0.596h0.682h0.795h0.824h0.936h0.965h1.051h1.08h1.135h1.164h1.191h1.221
		h1.25h1.248h1.279h1.248h1.277h1.25h1.221h1.191h1.164h1.137h1.078h1.051h0.965h0.938h0.822h0.768h0.709h0.596h0.512h0.396h0.285
		c0.254,0,2.072,0,2.072,0l1.787,0.029l1.762,0.029l1.703,0.057l1.703,0.057l1.674,0.084l1.646,0.086l1.619,0.113l1.59,0.143
		l1.561,0.17l1.533,0.17l1.506,0.17l1.475,0.229l1.477,0.227l1.42,0.256l1.42,0.283l1.391,0.312l1.363,0.34l1.334,0.342l1.334,0.396
		l1.277,0.398l1.277,0.426l1.25,0.453l1.248,0.482l1.221,0.541l1.193,0.539l1.164,0.566l1.164,0.625l1.135,0.625l1.135,0.682
		l1.08,0.682l1.107,0.738l1.049,0.795l1.051,0.795l1.051,0.852l1.021,0.852l1.021,0.936l0.967,0.938l0.992,0.994l0.967,1.021
		l1.361,1.59l1.307,1.646l1.221,1.676l1.191,1.703l1.107,1.76l1.051,1.76l1.021,1.816l0.938,1.818l0.908,1.844l0.824,1.875
		l0.795,1.873l0.738,1.873l0.709,1.875l0.652,1.873l0.596,1.873l0.568,1.875l0.539,1.844l0.482,1.846l0.426,1.816l0.426,1.818
		l0.369,1.76l0.342,1.76l0.312,1.703l0.283,1.676l0.256,1.617l0.227,1.59l0.199,1.562l0.17,1.475l0.143,1.42l0.141,1.391
		l0.115,1.307l0.084,1.25l0.057,1.162l0.086,1.08l0.027,1.021l0.059,0.938v0.879l0.027,0.738v0.682v0.568v0.908v0.965l-0.027,1.078
		l-0.029,1.137l-0.029,1.191l-0.057,1.25l-0.084,1.305l-0.086,1.363l-0.113,1.42l-0.143,1.477l-0.17,1.533l-0.199,1.59l-0.227,1.59
		l-0.256,1.646l-0.283,1.703l-0.34,1.703l-0.369,1.703l-0.398,1.76l-0.453,1.816l-0.512,1.762l-0.539,1.816l-0.598,1.873
		l-0.652,1.816l-0.709,1.818l-0.768,1.873l-0.822,1.816l-0.881,1.873l-0.936,1.818l-0.994,1.816l-1.078,1.816l-1.164,1.816
		l-1.221,1.762l-1.279,1.76l-1.361,1.76l-1.477,1.646l-1.504,1.703l-1.619,1.59l-1.703,1.646l-1.789,1.533l-1.873,1.477
		l-1.051,0.682l-1.078,0.682l-1.107,0.623l-1.107,0.568l-1.135,0.568l-1.164,0.566l-1.164,0.512l-1.193,0.455l-1.221,0.51
		l-1.221,0.398l-1.248,0.453l-1.25,0.342l-1.248,0.396l-1.307,0.342l-1.277,0.34l-1.307,0.283l-1.334,0.285l-1.305,0.283
		l-1.336,0.227l-1.361,0.229l-1.363,0.227l-1.363,0.17l-1.361,0.17l-1.393,0.172l-1.361,0.17l-1.391,0.113l-1.393,0.113
		l-1.418,0.113l-1.393,0.057l-1.418,0.113l-1.393,0.059l-1.418,0.057l-1.393,0.057l-1.418,0.057h-1.42l-1.391,0.057h-1.42
		l-1.391,0.057h-1.42h-1.391c-0.199,0-0.455,0-0.455,0h-0.312h-0.426h-0.51h-0.568h-0.625h-0.709h-0.768h-0.795h-0.852h-0.908
		h-0.938h-0.965h-0.992h-1.023h-1.021h-1.051h-1.021h-1.051h-1.051h-1.021h-1.021h-0.994h-0.965h-0.938h-0.908h-0.852h-0.795h-0.766
		h-0.711H89.58h-0.566h-0.512h-0.396h-0.342c-0.256,0-0.396,0-0.396,0C87.311,472.777,87.311,319.277,87.311,319.277z"/>
</g>
<g id="LWPOLYLINE_2_">
	
		<path fill="none" stroke="#000000" stroke-width="0.7087" stroke-linecap="round" stroke-linejoin="round" stroke-miterlimit="10" d="
		M262.895,496c0.229,0,0.938,0,0.938,0h1.137h1.531h1.932h2.299h2.641h2.953h3.207h3.52h3.748h3.975h4.145h4.314h4.486h4.6h4.713
		h4.768h4.77h4.883h4.826h4.826h4.713h4.713h4.6h4.484h4.316h4.145h3.975h3.746h3.521h3.236h2.951h2.611h2.328h1.932h1.533h1.135
		h0.682c0.227-0.172,0.227-0.398,0.227-0.398v-0.283v-0.342v-0.453v-0.512v-0.51v-0.625v-0.682v-0.682v-0.795v-0.738v-0.852v-0.852
		v-0.852v-0.908v-0.908v-0.908v-0.908v-0.91v-0.908v-0.908v-0.852v-0.908v-0.852v-0.795v-0.795v-0.738v-0.738v-0.625v-0.623v-0.568
		v-0.512v-0.396v-0.398v-0.283c0-0.227,0-0.342,0-0.342c-0.17-0.057-0.738-0.057-0.738-0.057h-0.852h-1.248h-1.477h-1.816h-2.045
		h-2.328h-2.555h-2.725h-2.953h-3.123h-3.236h-3.406h-3.463h-3.635h-3.689h-3.691h-3.805h-3.803h-3.748h-3.805h-3.746h-3.635h-3.633
		h-3.465h-3.406h-3.293h-3.066h-2.951h-2.727h-2.555h-2.328h-2.043h-1.818h-1.533h-1.191h-0.908H291
		c-0.17-0.113-0.17-0.453-0.17-0.453v-0.625v-0.795v-0.965v-1.193v-1.361v-1.477v-1.703v-1.76v-1.932v-2.043v-2.158v-2.215v-2.271
		v-2.383v-2.385v-2.441v-2.5v-2.441v-2.498v-2.498v-2.441v-2.385v-2.385v-2.27v-2.215v-2.158v-2.043v-1.932v-1.76v-1.703v-1.477
		v-1.363v-1.191v-0.965v-0.795v-0.625v-0.34c0.17-0.115,0.682-0.115,0.682-0.115h0.795h1.135h1.42h1.646h1.93h2.158h2.385h2.555
		h2.727h2.895h3.01h3.18h3.236h3.35h3.463h3.465h3.52h3.52h3.521h3.52h3.463h3.408h3.406h3.236h3.18h3.008h2.896h2.725h2.557h2.383
		h2.158h1.932h1.646h1.418h1.137h0.795h0.51c0.172-0.17,0.172-0.396,0.172-0.396c0-0.283,0-0.625,0-0.625v-0.396v-0.455v-0.568
		v-0.566v-0.625v-0.682v-0.738v-0.738v-0.795v-0.795v-0.795v-0.852v-0.879v-0.852v-0.881v-0.881v-0.852v-0.852v-0.852v-0.822v-0.824
		v-0.766v-0.768v-0.709v-0.682v-0.625v-0.566v-0.541v-0.482v-0.396v-0.369c0-0.256,0-0.482,0-0.482
		c-0.172-0.17-0.682-0.17-0.682-0.17h-0.795h-1.137h-1.418h-1.646h-1.932h-2.158h-2.383h-2.557h-2.725h-2.896h-3.008h-3.18h-3.236
		h-3.406h-3.408h-3.463h-3.52h-3.521h-3.52h-3.52h-3.465h-3.463h-3.35h-3.236h-3.18h-3.01h-2.895h-2.727h-2.555h-2.385h-2.158h-1.93
		h-1.646h-1.42h-1.135h-0.795H291c-0.17-0.115-0.17-0.426-0.17-0.426v-0.541v-0.738v-0.936v-1.078v-1.279v-1.391v-1.561v-1.676
		v-1.789v-1.873v-1.986v-2.072v-2.129v-2.215v-2.244v-2.27v-2.301v-2.299v-2.299v-2.301v-2.271v-2.242v-2.215v-2.129v-2.072v-1.986
		v-1.875v-1.787v-1.676v-1.561v-1.391v-1.25v-1.107v-0.938v-0.736v-0.541v-0.311c0.17-0.115,0.682-0.115,0.682-0.115h0.852h1.191
		h1.477h1.76h2.045h2.271h2.441h2.725h2.84h3.064h3.18h3.293h3.408h3.52h3.635h3.633h3.691h3.689h3.691h3.689h3.635h3.633h3.521
		h3.406h3.293h3.18h3.066h2.838h2.727h2.441h2.27h2.045h1.76h1.477h1.135h0.908h0.512c0.17-0.197,0.17-0.396,0.17-0.396v-0.283
		v-0.369v-0.455v-0.482v-0.568v-0.596v-0.682V315.9v-0.738v-0.795v-0.824v-0.852v-0.852v-0.879v-0.908v-0.91v-0.908v-0.936v-0.91
		v-0.879v-0.908v-0.852v-0.852v-0.824v-0.795v-0.738v-0.709v-0.682v-0.596v-0.568v-0.482v-0.455v-0.34v-0.312c0-0.199,0-0.34,0-0.34
		C389.396,296,388.715,296,388.715,296h-1.078h-1.533h-1.93h-2.215h-2.611h-2.896h-3.18h-3.406h-3.691h-3.918h-4.088h-4.258h-4.371
		h-4.486h-4.656h-4.654h-4.713h-4.77h-4.713h-4.77h-4.656h-4.598h-4.543h-4.371h-4.26h-4.088h-3.859h-3.691h-3.463h-3.18h-2.896
		h-2.584h-2.242h-1.902h-1.504h-1.135h-0.682C262.895,296,262.895,496,262.895,496z"/>
</g>
<g id="LWPOLYLINE_3_">
	
		<path fill="none" stroke="#000000" stroke-width="0.7087" stroke-linecap="round" stroke-linejoin="round" stroke-miterlimit="10" d="
		M432.662,496c0.227,0,0.908,0,0.908,0h1.021h1.477h1.816h2.102h2.498h2.781h3.01h3.293h3.52h3.691h3.918h4.031h4.201h4.314h4.373
		h4.484h4.486h4.541h4.543h4.486h4.484h4.373h4.314h4.201h4.031h3.918h3.689h3.521h3.293h3.01h2.781h2.498h2.102h1.816h1.477h1.078
		h0.625c0.227-0.172,0.227-0.398,0.227-0.398v-0.283v-0.342v-0.453v-0.512v-0.51v-0.625v-0.682v-0.682v-0.795v-0.738v-0.852v-0.852
		v-0.852v-0.908v-0.908v-0.908v-0.908v-0.91v-0.908v-0.908v-0.852v-0.908v-0.852v-0.795v-0.795v-0.738v-0.738v-0.625v-0.623v-0.568
		v-0.512v-0.396v-0.398v-0.283c0-0.227,0-0.342,0-0.342c-0.17-0.057-0.682-0.057-0.682-0.057h-0.795h-1.135h-1.363h-1.703h-1.873
		h-2.102h-2.385h-2.498h-2.725h-2.84h-3.008h-3.123h-3.18h-3.35h-3.35h-3.465h-3.463h-3.463h-3.521h-3.463h-3.406h-3.406h-3.293
		h-3.236h-3.123h-2.953h-2.896h-2.668h-2.555h-2.328h-2.102h-1.93h-1.646h-1.42h-1.078h-0.852h-0.455c-0.17,0-0.17-0.283-0.17-0.283
		v-0.965v-1.533v-2.102v-2.668v-3.123v-3.576v-3.975v-4.43v-4.77v-5.109v-5.395v-5.619v-5.906v-6.074v-6.246v-6.416v-6.473v-6.529
		v-6.586v-6.586v-6.529v-6.502v-6.359v-6.273v-6.076v-5.875v-5.678v-5.395v-5.082v-4.77v-4.4v-4.031v-3.576v-3.123v-2.611v-2.102
		v-1.561v-0.938V296c-0.227,0-0.453,0-0.453,0h-0.342h-0.453h-0.455h-0.568h-0.682h-0.68h-0.738h-0.795h-0.908h-0.852h-0.967h-0.965
		h-0.965h-1.021h-1.023h-1.078h-1.021h-1.078h-1.023h-1.021h-1.021h-0.965h-0.967h-0.965h-0.908h-0.852h-0.795h-0.738h-0.738h-0.625
		h-0.566h-0.512h-0.396h-0.342c-0.227,0-0.396,0-0.396,0C432.662,296,432.662,496,432.662,496z"/>
</g>
</svg>
