<?xml version="1.0" encoding="utf-8"?>
<!-- Generator: Adobe Illustrator 16.0.1, SVG Export Plug-In . SVG Version: 6.00 Build 0)  -->
<!DOCTYPE svg PUBLIC "-//W3C//DTD SVG 1.0//EN" "http://www.w3.org/TR/2001/REC-SVG-20010904/DTD/svg10.dtd">
<svg version="1.0" xmlns="http://www.w3.org/2000/svg" xmlns:xlink="http://www.w3.org/1999/xlink" x="0px" y="0px" width="612px"
	 height="792px" viewBox="0 0 612 792" enable-background="new 0 0 612 792" xml:space="preserve">
<g id="_x30_">
</g>
<g id="_x31_0">
</g>
<g id="_x31_">
	<g id="LWPOLYLINE_23_">
		
			<path fill="none" stroke="#000000" stroke-width="0.7087" stroke-linecap="round" stroke-linejoin="round" stroke-miterlimit="10" d="
			M393.928,532.861c0,0.171,0,0.3,0,0.3c0,0.174,0,0.389,0,0.389v0.259v0.259v0.259v0.342v0.303v0.386v0.347v0.386v0.388v0.433
			v0.386v0.43v0.433v0.43v0.432v0.43v0.43v0.389v0.432v0.386v0.389v0.388v0.342v0.347v0.301v0.3v0.259v0.215
			c0,0.218,0,0.391,0,0.391c0,0.127,0,0.215,0,0.215c0.174,0.083,0.389,0.083,0.389,0.083h0.342h0.391h0.473h0.516h0.604h0.688
			h0.732h0.732h0.816h0.863h0.904h0.902h0.947h0.947h0.992h0.988h0.991h0.989h0.99h0.947h0.992h0.947h0.902h0.859h0.865h0.814h0.777
			h0.732h0.645h0.603h0.56h0.473h0.389h0.301h0.258c0.174,0.176,0.174,0.691,0.174,0.691v0.773v1.077v1.379v1.592v1.851v2.109v2.283
			v2.453v2.627v2.798v2.93v3.057v3.143v3.229v3.271v3.359v3.401v3.4v3.403v3.398v3.315v3.315v3.23v3.142v3.057v2.93v2.798v2.627
			v2.454v2.282v2.065v1.895v1.592v1.38v1.076v0.776v0.516c0.215,0.173,0.389,0.173,0.389,0.173c0.17,0,0.43,0,0.43,0h0.258h0.303
			h0.342h0.348h0.385h0.389h0.43h0.432h0.475h0.473h0.475h0.515h0.474h0.518h0.474h0.516h0.474h0.474h0.474h0.474h0.43h0.432h0.389
			h0.386h0.388h0.301h0.303h0.259h0.259c0.215,0,0.344,0,0.344,0c0.215-0.173,0.215-0.688,0.215-0.688v-0.776v-1.076v-1.38v-1.592
			v-1.895v-2.065v-2.282v-2.454v-2.627v-2.798v-2.93v-3.057v-3.142v-3.23v-3.315v-3.315v-3.398v-3.403v-3.4v-3.401v-3.359v-3.271
			v-3.229v-3.143v-3.057v-2.93v-2.798v-2.627v-2.453v-2.283v-2.109v-1.851v-1.592v-1.379v-1.077v-0.773v-0.516
			c0.174-0.176,0.433-0.176,0.433-0.176h0.3h0.389h0.43h0.518h0.601h0.646h0.688h0.732h0.774h0.861h0.818h0.903h0.905h0.947h0.945
			h0.947h0.947h0.947h0.991h0.903h0.947h0.905h0.906h0.859h0.817h0.774h0.732h0.688h0.646h0.604h0.518h0.474h0.342h0.347h0.215
			c0.171-0.171,0.171-0.298,0.171-0.298c0-0.173,0-0.391,0-0.391v-0.215v-0.259v-0.3v-0.301v-0.347v-0.342v-0.388v-0.389v-0.386
			v-0.432v-0.389v-0.43v-0.43v-0.432v-0.43v-0.433v-0.43v-0.386v-0.433v-0.388v-0.386v-0.347v-0.386v-0.303v-0.342v-0.259v-0.259
			v-0.259c0-0.215,0-0.389,0-0.389c0-0.129,0-0.215,0-0.215C459.155,532.861,393.928,532.861,393.928,532.861z"/>
	</g>
	<g id="LWPOLYLINE_24_">
		
			<path fill="none" stroke="#000000" stroke-width="0.7087" stroke-linecap="round" stroke-linejoin="round" stroke-miterlimit="10" d="
			M225.494,635.161c0.174,0,0.345,0,0.345,0c0.171,0,0.388,0,0.388,0h0.257h0.303h0.303h0.342h0.347h0.386h0.388h0.433h0.43h0.43
			h0.43h0.474h0.433h0.474h0.474h0.474h0.432h0.472h0.432h0.43h0.386h0.433h0.344h0.389h0.344h0.303h0.257h0.259
			c0.215,0,0.432,0,0.432,0c0.127,0,0.257,0,0.257,0c0.085-0.088,0.085-0.347,0.085-0.347v-0.43v-0.559v-0.691v-0.815v-0.947v-1.079
			v-1.162v-1.289v-1.338v-1.462v-1.507v-1.55v-1.636v-1.639v-1.719v-1.724v-1.724v-1.763v-1.768v-1.721v-1.722v-1.724v-1.636v-1.636
			v-1.55v-1.507v-1.465v-1.333v-1.294v-1.162v-1.074v-0.947v-0.82v-0.688v-0.559v-0.433v-0.259c0.044-0.083,0.259-0.083,0.259-0.083
			h0.303h0.43h0.518h0.601h0.732h0.82h0.859h0.991h0.991h1.118h1.118h1.162h1.25h1.25h1.289h1.294h1.333h1.294h1.333h1.292h1.335
			h1.248h1.291h1.206h1.162h1.162h1.077h1.032h0.947h0.906h0.773h0.732h0.645h0.518h0.43h0.303c0.171,0,0.259,0,0.259,0
			c0,0.083,0,0.342,0,0.342v0.433v0.559v0.688v0.82v0.947v1.074v1.162v1.294v1.333v1.465v1.507v1.55v1.636v1.636v1.724v1.722v1.721
			v1.768v1.763v1.724v1.724v1.719v1.639v1.636v1.55v1.507v1.462v1.338v1.289v1.162v1.079v0.947v0.815v0.691v0.559v0.43v0.259
			c0.215,0.088,0.345,0.088,0.345,0.088c0.215,0,0.432,0,0.432,0h0.298h0.303h0.303h0.386h0.389h0.388h0.43h0.43h0.474h0.474h0.474
			h0.474h0.518h0.474h0.518h0.474h0.518h0.474h0.474h0.43h0.474h0.43h0.386h0.391h0.342h0.347h0.301h0.259h0.256
			c0.174,0,0.347,0,0.347,0c0.215-0.215,0.215-0.776,0.215-0.776v-0.859v-1.25v-1.509v-1.851v-2.065v-2.324v-2.583v-2.8v-2.928
			v-3.186v-3.274v-3.442v-3.53v-3.662v-3.701v-3.789v-3.789v-3.833v-3.83v-3.831v-3.747v-3.745v-3.616v-3.574v-3.403v-3.315v-3.14
			v-2.974v-2.754v-2.583v-2.324v-2.111v-1.81v-1.548v-1.206v-0.903v-0.562c-0.215-0.171-0.388-0.171-0.388-0.171
			c-0.174,0-0.43,0-0.43,0h-0.259h-0.301h-0.347h-0.342h-0.391h-0.386h-0.43h-0.474h-0.43h-0.474h-0.474h-0.518h-0.474h-0.518
			h-0.474h-0.518h-0.474h-0.474h-0.474h-0.474h-0.43h-0.43h-0.388h-0.389h-0.386h-0.303h-0.303h-0.298h-0.217
			c-0.215,0-0.345,0-0.345,0c-0.215,0.085-0.215,0.3-0.215,0.3v0.389v0.559v0.647v0.773v0.906v0.989v1.12v1.206v1.289v1.336v1.421
			v1.462v1.553v1.548v1.636v1.595v1.68v1.636v1.636v1.68v1.594v1.636v1.548v1.509v1.507v1.421v1.335v1.289v1.206v1.079v1.03v0.906
			v0.773v0.647v0.559v0.389v0.215c-0.088,0.085-0.259,0.085-0.259,0.085h-0.303h-0.43h-0.518h-0.645h-0.732h-0.773h-0.906h-0.947
			h-1.032h-1.077h-1.162h-1.162h-1.206h-1.291h-1.248h-1.335h-1.292h-1.333h-1.294h-1.333h-1.294h-1.289h-1.25h-1.25h-1.162h-1.118
			h-1.118h-0.991h-0.991h-0.859h-0.82h-0.732h-0.601h-0.518h-0.43h-0.303c-0.215,0-0.259,0-0.259,0c0-0.085,0-0.3,0-0.3v-0.389
			v-0.559v-0.647v-0.773v-0.906v-1.03v-1.079v-1.206v-1.289v-1.335v-1.421v-1.507v-1.509v-1.548v-1.636v-1.594v-1.68v-1.636v-1.636
			v-1.68v-1.595v-1.636v-1.548v-1.553v-1.462v-1.421v-1.336v-1.289v-1.206v-1.12v-0.989v-0.906v-0.773v-0.647v-0.559v-0.389v-0.215
			c-0.215-0.085-0.342-0.085-0.342-0.085c-0.217,0-0.432,0-0.432,0h-0.259h-0.257h-0.303h-0.344h-0.389h-0.344h-0.433h-0.386h-0.43
			h-0.432h-0.472H232.6h-0.474h-0.474h-0.474h-0.433h-0.474h-0.43h-0.43h-0.43h-0.433h-0.388h-0.386h-0.347h-0.342h-0.303h-0.303
			h-0.257c-0.217,0-0.388,0-0.388,0c-0.171,0-0.259,0-0.259,0C225.494,532.861,225.494,635.161,225.494,635.161z"/>
	</g>
	<g id="LWPOLYLINE_25_">
		
			<path fill="none" stroke="#000000" stroke-width="0.7087" stroke-linecap="round" stroke-linejoin="round" stroke-miterlimit="10" d="
			M146.144,604.29l-0.085,0.729l-0.044,0.82l-0.044,0.818l-0.042,0.903l-0.044,0.905v0.947v0.989l0.044,0.988l0.085,1.035
			l0.088,1.033l0.083,1.076l0.173,1.077l0.173,1.076l0.259,1.077l0.259,1.12l0.3,1.074l0.388,1.077l0.386,1.076l0.474,1.077
			l0.518,1.032l0.559,1.035l0.647,1.03l0.688,0.991l0.774,0.947l0.818,0.903l0.903,0.906l0.991,0.861l1.077,0.815l1.121,0.732
			l1.206,0.732l1.333,0.647l1.377,0.603l1.465,0.56l1.592,0.515l1.68,0.391l1.768,0.386l1.851,0.259l1.979,0.215l2.109,0.13
			l2.195,0.041l1.162-0.041l1.206-0.044l1.162-0.042l1.164-0.088l1.162-0.127l1.162-0.173l1.121-0.174l1.162-0.215l1.074-0.259
			l1.12-0.3l1.077-0.301l1.076-0.347l1.033-0.386l1.035-0.43l0.988-0.432l0.989-0.474l0.947-0.56l0.947-0.562l0.906-0.601
			l0.861-0.646l0.859-0.688l0.82-0.691l0.773-0.773l0.73-0.818l0.732-0.817l0.646-0.903l0.647-0.947l0.601-0.947l0.562-1.033
			l0.518-1.079l0.474-1.118l0.43-1.162l0.386-1.206l0.347-1.247l0.301-1.292l0.215-1.377l0.217-1.421l0.127-1.421l0.088-1.509
			v-1.592l-0.088-2.368l-0.215-2.241l-0.386-2.15l-0.562-1.98l-0.688-1.895l-0.776-1.809l-0.903-1.678l-1.032-1.594l-1.165-1.507
			l-1.204-1.421l-1.291-1.379l-1.377-1.248l-1.465-1.206l-1.509-1.162l-1.548-1.118l-1.592-1.035l-1.639-1.032l-1.677-0.947
			l-1.68-0.947l-1.68-0.906l-1.68-0.903l-1.68-0.903l-1.68-0.861l-1.636-0.903l-1.592-0.906l-1.551-0.859l-1.506-0.947l-1.465-0.903
			l-1.377-0.991l-1.294-0.991l-1.204-1.032l-1.164-1.121l-0.989-1.118l-0.947-1.206l-0.773-1.25l-0.688-1.333l-0.518-1.421
			l-0.43-1.506l-0.215-1.551l-0.088-1.68v-0.776l0.044-0.773l0.085-0.73l0.086-0.732l0.129-0.688l0.174-0.646l0.171-0.647
			l0.173-0.645l0.257-0.603l0.259-0.56l0.259-0.562l0.303-0.559l0.3-0.516l0.345-0.474l0.347-0.474l0.386-0.474l0.388-0.432
			l0.389-0.389l0.43-0.43l0.43-0.344l0.474-0.389l0.43-0.3l0.518-0.345l0.474-0.259l0.518-0.303l0.518-0.256l0.515-0.218l0.56-0.215
			l0.518-0.215l0.559-0.171l0.56-0.173l0.562-0.174l0.601-0.127l0.562-0.088l0.601-0.085l0.562-0.086l0.603-0.044l0.604-0.044
			l0.601-0.041h0.562h0.859l0.82,0.041l0.773,0.088l0.774,0.086l0.732,0.129l0.688,0.171l0.688,0.174l0.649,0.217l0.601,0.215
			l0.603,0.259l0.56,0.301l0.562,0.3l0.515,0.347l0.518,0.342l0.474,0.389l0.43,0.388l0.433,0.43l0.386,0.474l0.388,0.43
			l0.345,0.518l0.344,0.474l0.345,0.562l0.259,0.516l0.303,0.559l0.259,0.604l0.215,0.603l0.215,0.604l0.215,0.646l0.171,0.645
			l0.173,0.645l0.13,0.688l0.127,0.691l0.132,0.688l0.085,0.732l0.086,0.729l0.044,0.732l0.044,0.776l0.041,0.732v0.818l0.042,0.773
			c0.217,0,0.347,0,0.347,0c0.215,0,0.43,0,0.43,0h0.303h0.3h0.301h0.389h0.388h0.386h0.432h0.433h0.474h0.474h0.474h0.474h0.515
			h0.475h0.515h0.474h0.518h0.474h0.474h0.43h0.474h0.388h0.433h0.386h0.347h0.342h0.303h0.259h0.259c0.171,0,0.342,0,0.342,0
			c0.218,0,0.259-1.506,0.259-1.506v-1.463l-0.041-1.421l-0.086-1.379l-0.132-1.292l-0.171-1.291l-0.171-1.248l-0.259-1.206
			l-0.303-1.162l-0.301-1.12l-0.388-1.121l-0.386-1.03l-0.432-0.991l-0.475-0.991l-0.515-0.903l-0.562-0.903l-0.559-0.82
			l-0.647-0.817l-0.645-0.774l-0.688-0.732l-0.732-0.688l-0.776-0.645l-0.774-0.605l-0.861-0.601l-0.859-0.518l-0.906-0.518
			l-0.903-0.474l-0.947-0.43l-0.988-0.389l-1.035-0.388l-1.077-0.301l-1.076-0.3l-1.118-0.259l-1.121-0.215l-1.162-0.174
			l-1.203-0.173l-1.25-0.127l-1.25-0.044l-1.289-0.088h-1.294h-1.248l-1.247,0.088l-1.206,0.044l-1.206,0.127l-1.206,0.173
			l-1.162,0.174l-1.162,0.215l-1.121,0.259l-1.12,0.259l-1.074,0.342l-1.077,0.347l-1.032,0.386l-1.035,0.43l-0.989,0.432
			l-0.947,0.474l-0.947,0.56l-0.905,0.562l-0.903,0.557l-0.859,0.649l-0.82,0.645l-0.815,0.688l-0.732,0.732l-0.732,0.774
			l-0.688,0.817l-0.688,0.82l-0.605,0.859l-0.601,0.903l-0.562,0.947l-0.474,0.991l-0.474,0.991l-0.43,1.074l-0.386,1.079
			l-0.347,1.118l-0.3,1.162l-0.259,1.162l-0.215,1.25l-0.173,1.248l-0.127,1.291l-0.088,1.336v1.377l0.088,2.238l0.215,2.153
			l0.386,2.024l0.562,1.895l0.688,1.809l0.774,1.68l0.906,1.636l1.03,1.504l1.121,1.465l1.248,1.377l1.294,1.294l1.377,1.206
			l1.465,1.204l1.506,1.076l1.551,1.077l1.592,1.032l1.636,0.991l1.68,0.947l1.68,0.903l1.68,0.903l1.68,0.906l1.68,0.861
			l1.636,0.859l1.636,0.903l1.636,0.864l1.548,0.859l1.509,0.903l1.421,0.947l1.421,0.947l1.291,0.991l1.204,0.991l1.164,1.074
			l0.989,1.121l0.947,1.162l0.776,1.247l0.688,1.294l0.518,1.333l0.43,1.465l0.215,1.507l0.088,1.594v0.903l-0.044,0.903
			l-0.088,0.862l-0.086,0.817l-0.129,0.776l-0.171,0.774l-0.171,0.732l-0.218,0.729l-0.215,0.691l-0.259,0.646l-0.3,0.645
			l-0.303,0.604l-0.303,0.559l-0.342,0.562l-0.389,0.516l-0.388,0.515l-0.43,0.474l-0.43,0.474l-0.433,0.433l-0.474,0.388
			l-0.515,0.386l-0.474,0.389l-0.518,0.344l-0.562,0.303l-0.557,0.301l-0.562,0.259l-0.601,0.256l-0.605,0.259l-0.601,0.174
			l-0.605,0.215l-0.645,0.173l-0.645,0.127l-0.688,0.174l-0.647,0.085l-0.69,0.088l-0.688,0.086l-0.732,0.085l-0.688,0.044h-0.732
			h-0.688h-0.601h-0.605l-0.601-0.044l-0.604-0.085l-0.603-0.086l-0.604-0.088L171.029,625l-0.601-0.132l-0.562-0.171l-0.604-0.171
			l-0.603-0.173l-0.56-0.259l-0.559-0.215l-0.562-0.259l-0.557-0.301l-0.518-0.347l-0.518-0.342l-0.518-0.347l-0.516-0.386
			l-0.474-0.43l-0.474-0.432l-0.474-0.474l-0.432-0.516l-0.43-0.518l-0.386-0.562l-0.391-0.557l-0.342-0.605l-0.347-0.645
			l-0.342-0.688l-0.303-0.688l-0.259-0.732l-0.259-0.776l-0.215-0.817l-0.215-0.818l-0.13-0.859l-0.173-0.905l-0.083-0.947
			l-0.088-0.947l-0.044-1.033l-0.044-1.035c0-0.215,0-0.256,0-0.256c0-0.218,0-0.301,0-0.301c0-0.173,0-0.259,0-0.259
			c0-0.215,0-0.303,0-0.303c0-0.171,0-0.303,0-0.303c0-0.171,0-0.3,0-0.3c0-0.174,0-0.257,0-0.257c0-0.173,0-0.259,0-0.259
			c0-0.173,0-0.215,0-0.215C158.456,604.29,146.144,604.29,146.144,604.29z"/>
	</g>
	<g id="LWPOLYLINE_26_">
		
			<path fill="none" stroke="#000000" stroke-width="0.7087" stroke-linecap="round" stroke-linejoin="round" stroke-miterlimit="10" d="
			M355.092,635.161c0-0.088,0-0.347,0-0.347v-0.43v-0.559v-0.691v-0.815v-0.947v-1.079v-1.162v-1.289v-1.338v-1.462v-1.507v-1.55
			v-1.636v-1.639v-1.719v-1.724v-1.724v-1.763v-1.768v-1.721v-1.722v-1.724v-1.636v-1.636v-1.55v-1.507v-1.465v-1.333v-1.294v-1.162
			v-1.074v-0.947v-0.82v-0.688v-0.559v-0.433v-0.259c0.086-0.083,0.259-0.083,0.259-0.083h0.342h0.391h0.557h0.605h0.73h0.817h0.862
			h0.947h1.032h1.077h1.164h1.162h1.248h1.247h1.294h1.289h1.294h1.333h1.336h1.291h1.333h1.25h1.25h1.248h1.162h1.162h1.076h1.035
			h0.947h0.859h0.818h0.732h0.604h0.559h0.389h0.344c0.174,0,0.256,0,0.256,0c0-0.173,0-0.303,0-0.303c0-0.171,0-0.388,0-0.388
			v-0.215v-0.259v-0.301v-0.303v-0.342v-0.347v-0.386v-0.391v-0.386v-0.43v-0.388v-0.433v-0.43v-0.43v-0.43v-0.432v-0.43v-0.389
			v-0.43v-0.388v-0.389v-0.344v-0.389v-0.3v-0.345v-0.259v-0.259v-0.259c0-0.215,0-0.386,0-0.386c0-0.129,0-0.215,0-0.215
			c-0.082-0.088-0.256-0.088-0.256-0.088h-0.344h-0.389h-0.559h-0.604h-0.732h-0.818h-0.859h-0.947h-1.035h-1.076h-1.162h-1.162
			h-1.248h-1.25h-1.25h-1.333h-1.291h-1.336h-1.333h-1.294h-1.289h-1.294h-1.247h-1.248h-1.162h-1.164h-1.077h-1.032h-0.947h-0.862
			h-0.817h-0.73h-0.605h-0.557h-0.391h-0.342c-0.173,0-0.259,0-0.259,0c0-0.041,0-0.259,0-0.259v-0.256v-0.389v-0.518v-0.559v-0.688
			v-0.732v-0.818v-0.859v-0.947v-1.035v-1.032v-1.121v-1.118v-1.162v-1.162v-1.206v-1.206v-1.25v-1.203v-1.248v-1.206v-1.162v-1.164
			v-1.121v-1.118v-1.032v-0.989v-0.947v-0.905v-0.818v-0.732v-0.688v-0.562v-0.515v-0.389v-0.259c0-0.171,0-0.259,0-0.259
			c0.086,0,0.301,0,0.301,0h0.3h0.474h0.518h0.688h0.732h0.862h0.903h1.032h1.079h1.118h1.206h1.248h1.291h1.292h1.335h1.377h1.377
			h1.421h1.38h1.377h1.38h1.332h1.295h1.289h1.25h1.205h1.119h1.076h1.033h0.902h0.862h0.732h0.688h0.518h0.474h0.3
			c0.215,0,0.303,0,0.303,0c0-0.171,0-0.298,0-0.298c0-0.173,0-0.391,0-0.391v-0.215v-0.259v-0.3v-0.301v-0.347v-0.342v-0.388
			v-0.389v-0.386v-0.432v-0.389v-0.43v-0.43v-0.432v-0.43v-0.433v-0.43v-0.386v-0.433v-0.388v-0.386v-0.347v-0.386v-0.303v-0.342
			v-0.259v-0.259v-0.259c0-0.215,0-0.389,0-0.389c0-0.129,0-0.215,0-0.215c-0.129-0.085-0.388-0.085-0.388-0.085h-0.433h-0.6h-0.732
			h-0.862h-0.989h-1.162h-1.205h-1.377h-1.422h-1.508h-1.592h-1.68h-1.681h-1.765h-1.81h-1.807h-1.851h-1.853h-1.854h-1.851h-1.807
			h-1.809h-1.722h-1.724h-1.68h-1.592h-1.509h-1.421h-1.333h-1.25h-1.118h-1.032h-0.862h-0.732h-0.601h-0.432h-0.259
			c-0.086,0.171-0.086,0.732-0.086,0.732v0.903v1.206v1.548v1.81v2.111v2.324v2.583v2.754v2.974v3.14v3.315v3.403v3.574v3.616v3.745
			v3.747v3.831v3.83v3.833v3.789v3.789v3.701v3.662v3.53v3.442v3.274v3.186v2.928v2.8v2.583v2.324v2.065v1.851v1.509v1.25v0.859
			v0.562C342.777,635.161,355.092,635.161,355.092,635.161z"/>
	</g>
	<g id="LWPOLYLINE_27_">
		
			<path fill="none" stroke="#000000" stroke-width="0.7087" stroke-linecap="round" stroke-linejoin="round" stroke-miterlimit="10" d="
			M321.596,532.861c-0.173,0-0.347,0-0.347,0c-0.171,0-0.386,0-0.386,0h-0.259h-0.303h-0.3h-0.345h-0.347h-0.386h-0.388h-0.43
			h-0.433h-0.43h-0.43h-0.474h-0.43h-0.474h-0.474h-0.474h-0.432h-0.474h-0.43h-0.433h-0.386h-0.43h-0.347h-0.386h-0.347h-0.3
			h-0.259h-0.257h-0.217c-0.174,0-0.345,0-0.345,0c-0.215,0.171-0.215,0.732-0.215,0.732v0.903v1.206v1.548v1.81v2.111v2.324v2.583
			v2.754v2.974v3.14v3.315v3.403v3.574v3.616v3.745v3.747v3.831v3.83v3.833v3.789v3.789v3.701v3.662v3.53v3.442v3.274v3.186v2.928
			v2.8v2.583v2.324v2.065v1.851v1.509v1.25v0.859v0.562c0.215,0.215,0.386,0.215,0.386,0.215c0.174,0,0.391,0,0.391,0h0.257h0.259
			h0.3h0.347h0.386h0.347h0.43h0.386h0.433h0.43h0.474h0.432h0.474h0.474h0.474h0.43h0.474h0.43h0.43h0.433h0.43h0.388h0.386h0.347
			h0.345h0.3h0.303h0.259c0.215,0,0.386,0,0.386,0c0.174,0,0.259,0,0.259,0C321.596,635.161,321.596,532.861,321.596,532.861z"/>
	</g>
	<g id="LINE_38_">
		
			<line fill="none" stroke="#000000" stroke-width="0.7087" stroke-linecap="round" stroke-linejoin="round" stroke-miterlimit="10" x1="357.761" y1="291.235" x2="434.487" y2="291.235"/>
	</g>
	<g id="LINE_39_">
		
			<line fill="none" stroke="#000000" stroke-width="0.7087" stroke-linecap="round" stroke-linejoin="round" stroke-miterlimit="10" x1="434.487" y1="291.235" x2="302.221" y2="136.924"/>
	</g>
	<g id="LINE_40_">
		
			<line fill="none" stroke="#000000" stroke-width="0.7087" stroke-linecap="round" stroke-linejoin="round" stroke-miterlimit="10" x1="333.046" y1="410.283" x2="333.046" y2="266.563"/>
	</g>
	<g id="LINE_41_">
		
			<line fill="none" stroke="#000000" stroke-width="0.7087" stroke-linecap="round" stroke-linejoin="round" stroke-miterlimit="10" x1="271.35" y1="410.283" x2="271.35" y2="266.563"/>
	</g>
	<g id="LINE_42_">
		
			<line fill="none" stroke="#000000" stroke-width="0.7087" stroke-linecap="round" stroke-linejoin="round" stroke-miterlimit="10" x1="247.538" y1="291.235" x2="247.538" y2="434.092"/>
	</g>
	<g id="LINE_43_">
		
			<line fill="none" stroke="#000000" stroke-width="0.7087" stroke-linecap="round" stroke-linejoin="round" stroke-miterlimit="10" x1="357.761" y1="434.092" x2="357.761" y2="291.235"/>
	</g>
	<g id="LINE_44_">
		
			<line fill="none" stroke="#000000" stroke-width="0.7087" stroke-linecap="round" stroke-linejoin="round" stroke-miterlimit="10" x1="271.35" y1="410.283" x2="333.046" y2="410.283"/>
	</g>
	<g id="LINE_45_">
		
			<line fill="none" stroke="#000000" stroke-width="0.7087" stroke-linecap="round" stroke-linejoin="round" stroke-miterlimit="10" x1="247.538" y1="434.092" x2="357.761" y2="434.092"/>
	</g>
	<g id="LINE_46_">
		
			<line fill="none" stroke="#000000" stroke-width="0.7087" stroke-linecap="round" stroke-linejoin="round" stroke-miterlimit="10" x1="222.826" y1="266.563" x2="302.221" y2="178.387"/>
	</g>
	<g id="LINE_47_">
		
			<line fill="none" stroke="#000000" stroke-width="0.7087" stroke-linecap="round" stroke-linejoin="round" stroke-miterlimit="10" x1="302.221" y1="136.924" x2="169.955" y2="291.235"/>
	</g>
	<g id="LINE_48_">
		
			<line fill="none" stroke="#000000" stroke-width="0.7087" stroke-linecap="round" stroke-linejoin="round" stroke-miterlimit="10" x1="169.955" y1="291.235" x2="247.538" y2="291.235"/>
	</g>
	<g id="LINE_49_">
		
			<line fill="none" stroke="#000000" stroke-width="0.7087" stroke-linecap="round" stroke-linejoin="round" stroke-miterlimit="10" x1="222.826" y1="266.563" x2="271.35" y2="266.563"/>
	</g>
	<g id="LINE_50_">
		
			<line fill="none" stroke="#000000" stroke-width="0.7087" stroke-linecap="round" stroke-linejoin="round" stroke-miterlimit="10" x1="302.221" y1="178.387" x2="379.805" y2="266.563"/>
	</g>
	<g id="LINE_51_">
		
			<line fill="none" stroke="#000000" stroke-width="0.7087" stroke-linecap="round" stroke-linejoin="round" stroke-miterlimit="10" x1="333.046" y1="266.563" x2="379.805" y2="266.563"/>
	</g>
</g>
</svg>
