<?xml version="1.0" encoding="utf-8"?>
<!-- Generator: Adobe Illustrator 16.0.1, SVG Export Plug-In . SVG Version: 6.00 Build 0)  -->
<!DOCTYPE svg PUBLIC "-//W3C//DTD SVG 1.0//EN" "http://www.w3.org/TR/2001/REC-SVG-20010904/DTD/svg10.dtd">
<svg version="1.0" id="_x31_" xmlns="http://www.w3.org/2000/svg" xmlns:xlink="http://www.w3.org/1999/xlink" x="0px" y="0px"
	 width="612px" height="792px" viewBox="0 0 612 792" enable-background="new 0 0 612 792" xml:space="preserve">
<g id="LWPOLYLINE">
	
		<path fill="none" stroke="#000000" stroke-width="0.7087" stroke-linecap="round" stroke-linejoin="round" stroke-miterlimit="10" d="
		M33.048,553.057c0.13,0,0.281,0,0.281,0c0.216,0,0.497,0,0.497,0h0.303h0.367h0.41h0.432h0.476h0.519h0.54h0.584h0.583h0.626h0.627
		h0.648h0.647h0.648h0.67h0.67h0.647h0.648h0.648h0.626h0.627h0.583h0.584h0.54h0.519h0.475h0.433h0.41h0.367h0.303h0.281
		c0.194,0,0.367,0,0.367,0c0.129,0,0.346,0,0.346,0l0.237,0.043h0.281l0.302,0.043l0.324,0.043l0.346,0.043l0.389,0.043l0.39,0.088
		l0.41,0.086l0.432,0.129l0.433,0.131l0.454,0.129l0.475,0.174l0.476,0.215l0.476,0.217l0.475,0.215l0.497,0.26l0.476,0.26
		l0.497,0.303l0.475,0.346l0.476,0.389l0.476,0.389l0.476,0.389l0.453,0.475l0.433,0.477l0.432,0.518l0.41,0.562l0.39,0.605
		l0.367,0.604l0.346,0.691l0.324,0.691l0.302,0.734l0.26,0.779l0.237,0.82l0.216,0.908l0.173,0.906l0.13,0.951l0.108,0.994
		l0.064,1.08l0.021,1.08l-0.021,1.166l-0.064,1.123l-0.108,1.08l-0.151,0.994l-0.194,0.994l-0.237,0.908l-0.26,0.863l-0.302,0.822
		l-0.324,0.82l-0.367,0.734l-0.367,0.691l-0.433,0.648l-0.432,0.648l-0.454,0.561l-0.476,0.562L60.205,583l-0.519,0.477
		l-0.519,0.432l-0.562,0.432l-0.562,0.346l-0.562,0.346l-0.584,0.346l-0.583,0.303l-0.583,0.26l-0.583,0.258l-0.584,0.217
		l-0.604,0.174l-0.584,0.172l-0.583,0.174l-0.583,0.129l-0.562,0.086l-0.562,0.131l-0.54,0.086l-0.54,0.043l-0.519,0.043
		l-0.497,0.043l-0.475,0.043l-0.454,0.043h-0.432h-0.411c-0.107,0-0.237,0-0.237,0c-0.173,0-0.367,0-0.367,0h-0.26h-0.28h-0.324
		h-0.367h-0.389h-0.411h-0.432h-0.454h-0.476h-0.496H42.23h-0.519h-0.519h-0.519h-0.54h-0.54h-0.519h-0.519h-0.519h-0.497h-0.497
		h-0.476h-0.453h-0.433h-0.41h-0.389h-0.346h-0.324h-0.303h-0.237c-0.216,0-0.389,0-0.389,0c-0.194,0-0.238,0-0.238,0V553.057z"/>
</g>
<g id="LWPOLYLINE_1_">
	
		<path fill="none" stroke="#000000" stroke-width="0.7087" stroke-linecap="round" stroke-linejoin="round" stroke-miterlimit="10" d="
		M33.048,644.229c0-0.086,0-0.346,0-0.346v-0.389v-0.562v-0.646v-0.822v-0.906v-1.037v-1.125v-1.252v-1.297v-1.383v-1.469v-1.512
		v-1.557v-1.598v-1.643V625v-1.641v-1.729v-1.686v-1.686v-1.643v-1.641v-1.6v-1.6v-1.512v-1.426v-1.383v-1.34v-1.209v-1.123v-1.037
		v-0.908v-0.82v-0.691v-0.52v-0.389v-0.26c0.13-0.086,0.281-0.086,0.281-0.086c0.194,0,0.454,0,0.454,0h0.302h0.324h0.389h0.433
		h0.453h0.497h0.497h0.54h0.583h0.584h0.583h0.627h0.604h0.627h0.626h0.648h0.627h0.604h0.627h0.583h0.583h0.562h0.562h0.497h0.496
		h0.454h0.432h0.368h0.345h0.303h0.26c0.194,0,0.346,0,0.346,0c0.129,0,0.929,0,0.929,0l0.843-0.043l0.843-0.043l0.886-0.086
		l0.886-0.088l0.907-0.129l0.929-0.172l0.929-0.174l0.93-0.217l0.95-0.215l0.951-0.303l0.95-0.303l0.929-0.346l0.951-0.346
		l0.929-0.432l0.929-0.432l0.93-0.477l0.907-0.561l0.886-0.562l0.864-0.605l0.864-0.646l0.821-0.691l0.799-0.736l0.778-0.777
		l0.756-0.863l0.713-0.865l0.691-0.949l0.648-0.994l0.604-1.037l0.583-1.08l0.519-1.168l0.476-1.209l0.432-1.254l0.39-1.295
		l0.324-1.383l0.28-1.426l0.216-1.514l0.151-1.555l0.108-1.643l0.021-1.686L78.159,569l-0.087-1.684l-0.129-1.6l-0.194-1.555
		l-0.238-1.514l-0.28-1.426l-0.346-1.383l-0.368-1.295l-0.432-1.254l-0.454-1.166L75.135,555l-0.562-1.08l-0.583-1.037l-0.604-0.949
		l-0.648-0.908l-0.691-0.863l-0.713-0.822l-0.756-0.734l-0.778-0.734l-0.799-0.648l-0.821-0.648l-0.843-0.561l-0.864-0.562
		l-0.907-0.475l-0.907-0.477l-0.93-0.432l-0.929-0.389l-0.95-0.346l-0.973-0.303l-0.972-0.258l-0.994-0.26l-0.994-0.217
		l-0.993-0.172l-1.016-0.174l-1.016-0.129l-0.994-0.086l-1.015-0.088l-1.016-0.043l-0.994-0.043h-0.994c-0.216,0-0.475,0-0.475,0
		h-0.346h-0.433h-0.519h-0.604h-0.67h-0.734h-0.8h-0.843h-0.886h-0.95h-0.973h-1.015h-1.037h-1.059h-1.08h-1.103h-1.08h-1.102h-1.08
		h-1.081h-1.059h-1.037H28.9h-0.994h-0.929H26.07h-0.843h-0.8h-0.734h-0.648H22.44h-0.519h-0.433h-0.346h-0.259
		c-0.216,0.174-0.216,0.734-0.216,0.734v0.908v1.209v1.557v1.814v2.117v2.334v2.592v2.766v2.98v3.154v3.328v3.414v3.586v3.629v3.76
		v3.76v3.846v3.846v3.846v3.801v3.803v3.717v3.672v3.543v3.457v3.328v3.111v2.98v2.809v2.594v2.332v2.074v1.857v1.514v1.252v0.865
		v0.561C20.669,644.229,33.048,644.229,33.048,644.229z"/>
</g>
<g id="LWPOLYLINE_2_">
	
		<path fill="none" stroke="#000000" stroke-width="0.7087" stroke-linecap="round" stroke-linejoin="round" stroke-miterlimit="10" d="
		M109.162,553.057c0.13,0,0.303,0,0.303,0h0.237h0.303h0.346h0.389h0.453h0.476h0.54h0.562h0.605h0.626h0.648h0.67h0.691h0.713
		h0.713h0.734h0.713h0.734h0.735h0.713h0.713h0.691h0.67h0.647h0.627h0.604h0.562h0.54h0.475h0.454h0.389h0.346h0.303h0.237
		c0.151,0,0.26,0,0.26,0c0.043,0,0.756,0.043,0.756,0.043l0.691,0.043l0.691,0.043l0.648,0.131l0.626,0.086l0.605,0.172l0.583,0.174
		l0.562,0.215l0.54,0.217l0.519,0.26l0.497,0.26l0.476,0.258l0.475,0.346l0.433,0.303l0.41,0.346l0.411,0.389l0.389,0.346
		l0.346,0.432l0.346,0.391l0.324,0.432l0.302,0.432l0.303,0.432l0.26,0.477l0.259,0.475l0.237,0.475l0.217,0.52l0.194,0.475
		l0.194,0.52l0.173,0.518l0.151,0.52l0.129,0.518l0.13,0.52l0.108,0.561l0.086,0.52l0.087,0.518l0.043,0.562l0.064,0.518
		l0.022,0.562l0.021,0.518v0.52v0.734l-0.021,0.734l-0.044,0.691l-0.064,0.734l-0.064,0.691l-0.087,0.691l-0.108,0.648l-0.129,0.648
		l-0.151,0.691l-0.151,0.604l-0.173,0.648l-0.194,0.605l-0.194,0.605l-0.238,0.604l-0.237,0.562l-0.259,0.562l-0.281,0.518
		l-0.281,0.562l-0.302,0.475l-0.324,0.52l-0.346,0.475l-0.346,0.432l-0.389,0.432l-0.39,0.434l-0.41,0.389l-0.41,0.346l-0.433,0.346
		l-0.475,0.346l-0.476,0.303l-0.476,0.301l-0.519,0.26l-0.519,0.217l-0.54,0.215l-0.54,0.174l-0.583,0.172l-0.584,0.131
		l-0.604,0.086l-0.627,0.086l-0.647,0.043h-0.648c-0.151,0-0.303,0-0.303,0h-0.237h-0.303h-0.346h-0.389h-0.454h-0.475h-0.54h-0.562
		h-0.604h-0.627h-0.647h-0.67h-0.691h-0.713h-0.713h-0.735h-0.734h-0.713h-0.734h-0.713h-0.713h-0.691h-0.67h-0.648h-0.626h-0.605
		h-0.562h-0.54h-0.476h-0.453h-0.389h-0.346h-0.303h-0.237c-0.173,0-0.26,0-0.26,0C109.162,585.809,109.162,553.057,109.162,553.057
		z"/>
</g>
<g id="LWPOLYLINE_3_">
	
		<path fill="none" stroke="#000000" stroke-width="0.7087" stroke-linecap="round" stroke-linejoin="round" stroke-miterlimit="10" d="
		M96.761,644.229c0.216,0,0.367,0,0.367,0c0.173,0,0.389,0,0.389,0h0.26h0.28h0.303h0.346h0.367h0.367h0.411h0.41h0.432h0.433h0.454
		h0.453h0.476h0.453h0.476h0.454h0.453h0.454h0.432h0.433h0.432h0.39h0.389h0.346h0.346h0.302h0.281h0.259h0.217
		c0.194,0,0.346,0,0.346,0c0.194-0.086,0.194-0.346,0.194-0.346v-0.432v-0.562v-0.691v-0.82v-0.951v-1.08v-1.166v-1.297v-1.34
		v-1.469v-1.512v-1.557v-1.641v-1.643v-1.729v-1.729v-1.729v-1.771v-1.771v-1.729v-1.729v-1.729v-1.641v-1.643v-1.557v-1.512v-1.469
		v-1.34v-1.297v-1.166v-1.08v-0.951v-0.82v-0.691v-0.562v-0.432v-0.26c0.107-0.086,0.237-0.086,0.237-0.086c0.173,0,0.411,0,0.411,0
		h0.259h0.303h0.346h0.389h0.41h0.433h0.453h0.497h0.497h0.519h0.54h0.54h0.562h0.562h0.562h0.562h0.562h0.562h0.54h0.541h0.518
		h0.497h0.497h0.454h0.432h0.411h0.389h0.346h0.302h0.26h0.237c0.173,0,0.303,0,0.303,0c0.108,0,0.454,0,0.454,0h0.367h0.367
		l0.389,0.043h0.41h0.433l0.432,0.043l0.433,0.045h0.453l0.476,0.086l0.454,0.043l0.475,0.086l0.476,0.086l0.497,0.131l0.476,0.086
		l0.475,0.172l0.476,0.131l0.476,0.172l0.475,0.217l0.476,0.217l0.454,0.258l0.453,0.26l0.454,0.303l0.432,0.303l0.411,0.346
		l0.41,0.389l0.389,0.389l0.39,0.475l0.367,0.434l0.324,0.518l0.323,0.562l0.303,0.561l0.281,0.605l0.259,0.648l0.216,0.691
		l0.217,0.734l0.173,0.777l0.129,0.82l0.13,0.865l0.087,0.908l0.064,0.992l0.043,0.994l0.043,0.994l0.065,0.994l0.043,0.994
		l0.021,0.994l0.043,0.992l0.044,0.951l0.021,0.994l0.021,0.951l0.043,0.992l0.021,0.951l0.021,0.951l0.044,0.951l0.021,0.949
		l0.043,0.951l0.021,0.908l0.043,0.906l0.044,0.908l0.043,0.906l0.064,0.908l0.065,0.863l0.043,0.865l0.086,0.863l0.065,0.865
		l0.086,0.82l0.108,0.822l0.086,0.82l0.13,0.777l0.108,0.777l0.151,0.779l0.129,0.734l0.173,0.734l0.173,0.734l0.173,0.691
		l0.194,0.691l0.217,0.648l0.216,0.646l0.237,0.648l0.26,0.605c0.107,0,0.237,0,0.237,0c0.173,0,0.389,0,0.389,0h0.238h0.302h0.324
		h0.346h0.389h0.411h0.432h0.454h0.476h0.496h0.497h0.519h0.519h0.54h0.519h0.54h0.519h0.519h0.519h0.497h0.497h0.475h0.454h0.433
		h0.41h0.389h0.367h0.324h0.281h0.259c0.194,0,0.367,0,0.367,0c0.216,0,0.238,0,0.238,0l-0.195-0.562l-0.194-0.561l-0.173-0.605
		l-0.194-0.648l-0.173-0.648l-0.151-0.691l-0.15-0.734l-0.151-0.691l-0.151-0.777l-0.151-0.734l-0.13-0.777l-0.13-0.777
		l-0.129-0.822l-0.108-0.777l-0.107-0.82l-0.108-0.822l-0.108-0.82l-0.086-0.82l-0.087-0.822l-0.086-0.82l-0.087-0.82l-0.086-0.779
		l-0.065-0.82l-0.064-0.777l-0.064-0.777l-0.044-0.734l-0.064-0.736l-0.043-0.734l-0.043-0.691l-0.044-0.691l-0.021-0.646
		l-0.043-0.648l-0.021-0.605l-0.021-0.562l-0.021-0.518l-0.022-0.52v-0.475l-0.021-0.432v-0.389v-0.346l-0.064-1.514l-0.108-1.426
		l-0.086-1.383l-0.108-1.295l-0.129-1.254l-0.151-1.209l-0.173-1.168l-0.173-1.08l-0.173-1.037l-0.217-0.994l-0.216-0.949
		l-0.259-0.908l-0.26-0.863l-0.259-0.822l-0.303-0.734l-0.303-0.734l-0.346-0.691l-0.346-0.648l-0.367-0.646l-0.389-0.562
		l-0.41-0.562l-0.433-0.518l-0.432-0.477l-0.476-0.475l-0.497-0.389l-0.519-0.432l-0.519-0.389l-0.562-0.346l-0.583-0.346
		l-0.605-0.303l-0.626-0.303l-0.648-0.26l-0.67-0.303l-0.691-0.215l-0.734-0.26l-0.734-0.217l-0.778-0.215l-0.799-0.217
		l-0.821-0.215l-0.843-0.217l0.843-0.129l0.843-0.174l0.821-0.217l0.799-0.215l0.8-0.26l0.756-0.303l0.756-0.303l0.735-0.346
		l0.713-0.389l0.691-0.389l0.67-0.389l0.647-0.432l0.648-0.477l0.604-0.475l0.605-0.518l0.562-0.52l0.562-0.561l0.54-0.562
		l0.519-0.562l0.476-0.604l0.476-0.648l0.453-0.648l0.433-0.648l0.389-0.648l0.389-0.691l0.367-0.734l0.324-0.691l0.324-0.734
		l0.281-0.777l0.259-0.734l0.237-0.777l0.238-0.779l0.173-0.82l0.173-0.82l0.151-0.779l0.107-0.863l0.087-0.82l0.064-0.865
		l0.043-0.82l0.021-0.865l-0.021-0.994l-0.021-0.992l-0.064-0.994l-0.087-0.951l-0.107-0.994l-0.13-0.949l-0.173-0.951l-0.194-0.951
		l-0.194-0.906l-0.26-0.951l-0.259-0.865l-0.303-0.906l-0.324-0.865l-0.367-0.863l-0.389-0.822l-0.433-0.82l-0.432-0.777
		l-0.497-0.777l-0.519-0.734l-0.54-0.734l-0.583-0.736l-0.605-0.646l-0.647-0.648l-0.691-0.605l-0.713-0.605l-0.757-0.561
		l-0.799-0.52l-0.821-0.518l-0.864-0.477l-0.907-0.389l-0.929-0.432l-0.973-0.346l-1.037-0.303l-1.059-0.303l-1.08-0.215
		l-1.146-0.217l-1.188-0.129l-1.21-0.131l-1.275-0.043l-1.296-0.043c-0.064,0-0.259,0-0.259,0h-0.303h-0.41h-0.519h-0.605h-0.713
		h-0.777h-0.864h-0.951h-0.993h-1.059h-1.124h-1.145h-1.21h-1.21h-1.253h-1.275h-1.296h-1.296h-1.297h-1.274h-1.274h-1.254h-1.231
		h-1.188h-1.167h-1.102h-1.08h-0.994h-0.929h-0.864h-0.8h-0.691h-0.626h-0.519h-0.411h-0.302c-0.195,0-0.26,0-0.26,0V644.229z"/>
</g>
<g id="LWPOLYLINE_4_">
	
		<path fill="none" stroke="#000000" stroke-width="0.7087" stroke-linecap="round" stroke-linejoin="round" stroke-miterlimit="10" d="
		M202.97,646l1.556-0.043l1.534-0.043l1.513-0.129l1.447-0.131l1.404-0.215l1.383-0.26l1.339-0.303l1.275-0.303l1.274-0.389
		l1.21-0.432l1.166-0.477l1.146-0.561l1.08-0.562l1.059-0.648l1.016-0.648l0.973-0.734l0.95-0.777l0.886-0.82l0.864-0.908
		l0.821-0.906l0.777-0.994l0.734-1.037l0.691-1.123l0.648-1.125l0.627-1.209l0.583-1.297l0.519-1.295l0.519-1.383l0.453-1.426
		l0.411-1.514l0.389-1.512l0.324-1.6l0.302-1.684l0.26-1.729l0.216-1.771l0.194-1.859l0.13-1.9l0.108-1.988l0.043-2.031l0.021-2.074
		c0-0.043,0-0.258,0-0.258v-0.26v-0.432v-0.477v-0.604v-0.691v-0.779v-0.82v-0.951v-0.949v-1.037v-1.08v-1.125v-1.166v-1.209v-1.211
		v-1.252v-1.254v-1.254V588.1v-1.254v-1.252v-1.211v-1.209v-1.168v-1.123v-1.08v-1.037v-0.994v-0.906v-0.822v-0.777v-0.691v-0.604
		v-0.477v-0.432v-0.303c0-0.172,0-0.217,0-0.217l-0.021-1.512l-0.043-1.512l-0.108-1.426l-0.13-1.426l-0.194-1.383l-0.216-1.34
		l-0.26-1.34l-0.302-1.297l-0.324-1.252l-0.389-1.211l-0.411-1.209l-0.453-1.166l-0.519-1.125l-0.519-1.08l-0.583-1.037
		l-0.627-0.992l-0.648-0.994l-0.691-0.951l-0.734-0.908l-0.777-0.863l-0.821-0.82l-0.864-0.779l-0.886-0.734l-0.95-0.734
		l-0.973-0.648l-1.016-0.648l-1.059-0.604l-1.08-0.52l-1.146-0.518l-1.166-0.477l-1.21-0.432l-1.274-0.346l-1.275-0.346
		l-1.339-0.303l-1.383-0.258l-1.404-0.217l-1.447-0.129l-1.513-0.131l-1.534-0.043l-1.556-0.043l-1.577,0.043l-1.533,0.043
		l-1.491,0.131l-1.447,0.129l-1.426,0.217l-1.383,0.258l-1.318,0.303l-1.296,0.346l-1.253,0.346l-1.21,0.432l-1.188,0.477
		l-1.123,0.518l-1.103,0.52l-1.059,0.604l-1.016,0.648l-0.972,0.648l-0.929,0.734l-0.908,0.734l-0.842,0.779l-0.821,0.82
		l-0.778,0.863l-0.734,0.908l-0.713,0.951l-0.648,0.994l-0.626,0.992l-0.562,1.037l-0.54,1.08l-0.497,1.125l-0.454,1.166
		l-0.432,1.209l-0.367,1.211l-0.346,1.252l-0.303,1.297l-0.26,1.34l-0.216,1.34l-0.173,1.383l-0.151,1.426l-0.086,1.426
		l-0.065,1.512l-0.021,1.512c0,0.045,0,0.217,0,0.217v0.303v0.432v0.477v0.604v0.691v0.777v0.822v0.906v0.994v1.037v1.08v1.123
		v1.168v1.209v1.211v1.252v1.254v1.252v1.254v1.254v1.252v1.211v1.209v1.166v1.125v1.08v1.037v0.949v0.951v0.82v0.779v0.691v0.604
		v0.477v0.432v0.26c0,0.215,0,0.258,0,0.258l0.021,2.074l0.065,2.031l0.086,1.988l0.151,1.9l0.173,1.859l0.216,1.771l0.26,1.729
		l0.303,1.684l0.346,1.6l0.367,1.512l0.432,1.514l0.454,1.426l0.497,1.383l0.54,1.295l0.562,1.297l0.626,1.209l0.648,1.125
		l0.713,1.123l0.734,1.037l0.778,0.994l0.821,0.906l0.842,0.908l0.908,0.82l0.929,0.777l0.972,0.734l1.016,0.648l1.059,0.648
		l1.103,0.562l1.123,0.561l1.188,0.477l1.21,0.432l1.253,0.389l1.296,0.303l1.318,0.303l1.383,0.26l1.426,0.215l1.447,0.131
		l1.491,0.129l1.533,0.043L202.97,646z"/>
</g>
<g id="LWPOLYLINE_5_">
	
		<path fill="none" stroke="#000000" stroke-width="0.7087" stroke-linecap="round" stroke-linejoin="round" stroke-miterlimit="10" d="
		M202.97,635.371h-0.929l-0.886-0.043l-0.864-0.088l-0.864-0.086l-0.821-0.086l-0.799-0.174l-0.778-0.172l-0.756-0.174l-0.734-0.215
		l-0.713-0.303l-0.67-0.26l-0.67-0.346l-0.648-0.346l-0.604-0.389l-0.583-0.475l-0.584-0.432l-0.54-0.52l-0.519-0.562l-0.497-0.561
		l-0.475-0.648l-0.454-0.648l-0.432-0.734l-0.411-0.734l-0.389-0.82l-0.367-0.822l-0.324-0.906l-0.324-0.908l-0.28-0.994
		l-0.26-1.037l-0.259-1.08l-0.216-1.123l-0.195-1.209l-0.173-1.211l-0.15-1.297l-0.13-1.338l-0.108-1.426l-0.086-1.428l-0.044-1.512
		l-0.043-1.598v-1.643c0-0.043,0-0.217,0-0.217v-0.303v-0.432v-0.518v-0.605v-0.691v-0.82v-0.865v-0.906v-1.037v-1.037v-1.125
		v-1.166v-1.166v-1.254v-1.252v-1.254v-1.297v-1.295v-1.297v-1.297v-1.252v-1.254v-1.252v-1.168V581.1v-1.123v-1.037v-0.994v-0.951
		v-0.863v-0.777v-0.736v-0.604v-0.52v-0.389v-0.303c0-0.215,0-0.26,0-0.26l0.021-1.555l0.065-1.469l0.129-1.426l0.173-1.34
		l0.217-1.254l0.259-1.209l0.303-1.123l0.324-1.08l0.367-1.037l0.41-0.951l0.433-0.863l0.475-0.865l0.476-0.777l0.519-0.734
		l0.54-0.648l0.54-0.648l0.584-0.562l0.583-0.561l0.604-0.477l0.605-0.475l0.604-0.389l0.627-0.389l0.626-0.346l0.627-0.303
		l0.648-0.26l0.604-0.215l0.627-0.217l0.626-0.217l0.605-0.129l0.583-0.129l0.583-0.131l0.562-0.086l0.54-0.086l0.519-0.043
		l0.496-0.043l0.476-0.045l0.433-0.043h0.432h0.389h0.346h0.346h0.389h0.411l0.453,0.043l0.454,0.045l0.497,0.043l0.54,0.043
		l0.54,0.086l0.562,0.086l0.562,0.131l0.605,0.129l0.604,0.129l0.605,0.217l0.626,0.217l0.627,0.215l0.626,0.26l0.627,0.303
		l0.627,0.346l0.626,0.389l0.627,0.389l0.604,0.475l0.584,0.477l0.604,0.561l0.562,0.562l0.562,0.648l0.519,0.648l0.519,0.734
		l0.497,0.777l0.454,0.865l0.432,0.863l0.411,0.951l0.367,1.037l0.346,1.08l0.28,1.123l0.26,1.209l0.216,1.254l0.173,1.34
		l0.13,1.426l0.086,1.469l0.021,1.555c0,0.045,0,0.26,0,0.26v0.303v0.389v0.52v0.604v0.736v0.777v0.863v0.951v0.994v1.037v1.123
		v1.166v1.168v1.252v1.254v1.252v1.297v1.297v1.295v1.297v1.254v1.252v1.254v1.166v1.166v1.125v1.037v1.037v0.906v0.865v0.82v0.691
		v0.605v0.518v0.432v0.303c0,0.174,0,0.217,0,0.217l-0.021,1.643l-0.021,1.598l-0.064,1.512l-0.087,1.428l-0.107,1.426l-0.13,1.338
		l-0.13,1.297l-0.194,1.211l-0.194,1.209l-0.216,1.123l-0.238,1.08l-0.28,1.037l-0.281,0.994l-0.324,0.908l-0.324,0.906
		l-0.367,0.822l-0.389,0.82l-0.389,0.734l-0.433,0.734l-0.453,0.648l-0.476,0.648l-0.497,0.561l-0.54,0.562l-0.54,0.52l-0.562,0.432
		l-0.605,0.475l-0.604,0.389l-0.648,0.346l-0.647,0.346l-0.691,0.26l-0.713,0.303l-0.735,0.215l-0.756,0.174l-0.777,0.172
		l-0.8,0.174l-0.821,0.086l-0.842,0.086l-0.864,0.088l-0.908,0.043H202.97z"/>
</g>
<g id="LWPOLYLINE_6_">
	
		<path fill="none" stroke="#000000" stroke-width="0.7087" stroke-linecap="round" stroke-linejoin="round" stroke-miterlimit="10" d="
		M317.994,569v-1.555l-0.043-1.557l-0.13-1.469l-0.13-1.426l-0.13-1.34l-0.216-1.338l-0.259-1.297l-0.26-1.211l-0.303-1.209
		l-0.389-1.123l-0.389-1.123l-0.432-1.037l-0.476-0.994l-0.476-0.994l-0.562-0.908l-0.605-0.863l-0.604-0.865l-0.648-0.777
		l-0.734-0.777l-0.734-0.691l-0.778-0.691l-0.82-0.648l-0.864-0.605l-0.907-0.561l-0.951-0.52l-0.993-0.475l-0.994-0.432
		l-1.08-0.432l-1.124-0.391l-1.123-0.346l-1.21-0.301l-1.21-0.26l-1.296-0.217l-1.297-0.215l-1.383-0.174l-1.382-0.129l-1.427-0.131
		l-1.512-0.086l-1.513-0.043h-1.599l-1.556,0.043l-1.534,0.043l-1.49,0.131l-1.447,0.129l-1.427,0.217l-1.36,0.258l-1.34,0.303
		l-1.296,0.346l-1.254,0.346l-1.209,0.432l-1.188,0.477l-1.124,0.518l-1.102,0.52l-1.059,0.604l-1.016,0.648l-0.972,0.648
		l-0.93,0.734l-0.907,0.734l-0.843,0.779l-0.82,0.82l-0.778,0.863l-0.734,0.908l-0.691,0.951l-0.67,0.994l-0.604,0.992l-0.583,1.037
		l-0.541,1.08l-0.496,1.125l-0.454,1.166l-0.432,1.209l-0.368,1.211l-0.346,1.252l-0.28,1.297l-0.26,1.34l-0.237,1.34l-0.173,1.383
		l-0.13,1.426l-0.107,1.426l-0.065,1.512l-0.021,1.512c0,0.045,0,0.217,0,0.217v0.303v0.432v0.477v0.604v0.691v0.777v0.822v0.906
		v0.994v1.037v1.08v1.123v1.168v1.209v1.211v1.252v1.254v1.252v1.254v1.254v1.252v1.211v1.209v1.166v1.125v1.08v1.037v0.949v0.951
		v0.82v0.779v0.691v0.604v0.477v0.432v0.26c0,0.215,0,0.258,0,0.258l0.021,2.074l0.065,2.031l0.107,1.988l0.13,1.9l0.173,1.859
		l0.237,1.771l0.26,1.729l0.28,1.684l0.346,1.6l0.368,1.512l0.432,1.514l0.454,1.426l0.496,1.383l0.541,1.295l0.583,1.297
		l0.604,1.209l0.67,1.125l0.691,1.123l0.734,1.037l0.778,0.994l0.82,0.906l0.843,0.908l0.907,0.82l0.93,0.777l0.972,0.734
		l1.016,0.648l1.059,0.648l1.102,0.562l1.124,0.561l1.188,0.477l1.209,0.432l1.254,0.389l1.296,0.303l1.34,0.303l1.36,0.26
		l1.427,0.215l1.447,0.131l1.49,0.129l1.534,0.043l1.556,0.043l0.994-0.043H289l0.951-0.043l0.95-0.043l0.907-0.043l0.908-0.088
		l0.907-0.086l0.864-0.086l0.864-0.086l0.864-0.131l0.863-0.129l0.821-0.129l0.821-0.131l0.821-0.172l0.777-0.174l0.777-0.172
		l0.821-0.174l0.734-0.215l0.778-0.174l0.734-0.217l0.734-0.215l0.734-0.26l0.734-0.217l0.735-0.258l0.691-0.217l0.734-0.26
		l0.691-0.258l0.691-0.303l0.691-0.26l0.691-0.303l0.691-0.26l0.69-0.301l0.648-0.303l0.691-0.303l0.648-0.303l0.691-0.346
		l0.647-0.303l0.691-0.346l0.648-0.303l0.648-0.346c0-0.086,0-0.346,0-0.346v-0.432v-0.605v-0.734v-0.863v-1.037v-1.123v-1.254
		v-1.34v-1.426v-1.512v-1.6v-1.686v-1.727v-1.729v-1.816v-1.814v-1.857v-1.857v-1.859v-1.857v-1.814v-1.814v-1.771v-1.686v-1.686
		v-1.6v-1.512v-1.426v-1.383v-1.209v-1.168v-0.994v-0.863v-0.777v-0.562v-0.432v-0.303c-0.043-0.086-0.216-0.086-0.216-0.086h-0.303
		h-0.346h-0.476h-0.604h-0.648h-0.691h-0.821h-0.864h-0.907h-0.993h-1.037h-1.08h-1.081h-1.123h-1.167h-1.166h-1.21h-1.167h-1.21
		h-1.21h-1.166h-1.167h-1.123h-1.081h-1.08h-1.037h-0.95h-0.951h-0.864h-0.777h-0.734h-0.648h-0.562h-0.476h-0.389h-0.303
		c-0.173,0-0.216,0-0.216,0c0,0.215,0,0.346,0,0.346c0,0.172,0,0.389,0,0.389v0.217v0.258v0.303v0.303v0.346v0.346v0.346v0.389
		v0.432v0.389v0.434v0.432v0.432v0.432v0.434v0.389v0.432v0.432v0.389v0.434v0.389v0.346v0.346v0.346v0.301v0.303v0.26v0.217
		c0,0.215,0,0.389,0,0.389c0,0.129,0,0.26,0,0.26c0.13,0.086,0.303,0.086,0.303,0.086h0.216h0.259h0.346h0.39h0.432h0.433h0.519
		h0.562h0.562h0.604h0.605h0.648h0.647h0.691h0.691h0.691h0.691h0.691h0.691h0.691h0.691h0.648h0.647h0.605h0.604h0.562h0.562h0.519
		h0.432h0.432h0.39h0.346h0.259h0.216c0.173,0,0.26,0,0.26,0c0.043,0.215,0.043,0.475,0.043,0.475v0.346v0.475v0.52v0.605v0.691
		v0.777v0.777v0.908v0.906v0.951v1.037v1.037v1.08v1.08v1.123v1.125v1.123v1.123v1.123v1.123v1.08v1.08v1.037v0.994v0.994v0.908
		v0.863v0.822v0.777v0.648v0.646v0.52v0.432v0.389v0.26c0,0.217-0.216,0.432-0.216,0.432c-0.216,0.174-0.433,0.389-0.433,0.389
		l-0.259,0.174l-0.26,0.215l-0.259,0.174L303,631.439l-0.302,0.172l-0.303,0.217L302.093,632l-0.346,0.174l-0.346,0.215
		l-0.346,0.174l-0.389,0.172l-0.389,0.174l-0.39,0.172l-0.389,0.174l-0.432,0.129l-0.433,0.174l-0.432,0.129l-0.433,0.172
		l-0.475,0.131l-0.476,0.129l-0.519,0.131l-0.476,0.129l-0.519,0.129l-0.519,0.088l-0.519,0.129l-0.562,0.086l-0.562,0.086
		l-0.562,0.088l-0.562,0.086l-0.605,0.086l-0.604,0.043l-0.605,0.043l-0.604,0.045l-0.648,0.043h-0.604l-0.648,0.043h-0.691h-0.907
		l-0.864-0.043l-0.886-0.088l-0.864-0.086l-0.821-0.086l-0.799-0.174l-0.778-0.172l-0.756-0.174l-0.734-0.215l-0.691-0.303
		l-0.691-0.26l-0.67-0.346l-0.627-0.346l-0.626-0.389l-0.584-0.475l-0.583-0.432l-0.54-0.52l-0.519-0.562l-0.497-0.561l-0.475-0.648
		l-0.454-0.648l-0.432-0.734l-0.411-0.734l-0.389-0.82l-0.346-0.822l-0.346-0.906l-0.303-0.908l-0.302-0.994l-0.26-1.037
		l-0.259-1.08l-0.217-1.123l-0.194-1.209l-0.173-1.211l-0.151-1.297l-0.129-1.338l-0.108-1.426l-0.064-1.428l-0.065-1.512
		l-0.043-1.598v-1.643c0-0.043,0-0.217,0-0.217v-0.303v-0.432v-0.518v-0.605v-0.691v-0.82v-0.865v-0.906v-1.037v-1.037v-1.125
		v-1.166v-1.166v-1.254v-1.252v-1.254v-1.297v-1.295v-1.297v-1.297v-1.252v-1.254v-1.252v-1.168V581.1v-1.123v-1.037v-0.994v-0.951
		v-0.863v-0.777v-0.736v-0.604v-0.52v-0.389v-0.303c0-0.215,0-0.26,0-0.26l0.021-1.555l0.087-1.469l0.107-1.426l0.173-1.34
		l0.216-1.254l0.26-1.209l0.303-1.123l0.324-1.08l0.389-1.037l0.389-0.951l0.432-0.863l0.476-0.865l0.476-0.777l0.519-0.734
		l0.54-0.648l0.54-0.648l0.583-0.562l0.584-0.561l0.604-0.477l0.605-0.475l0.626-0.389l0.605-0.389l0.626-0.346l0.648-0.303
		l0.626-0.26l0.627-0.215l0.604-0.217l0.627-0.217l0.605-0.129l0.583-0.129l0.583-0.131l0.562-0.086l0.54-0.086l0.519-0.043
		l0.519-0.043l0.433-0.045l0.476-0.043h0.389h0.389h0.346h0.95l0.864,0.043l0.864,0.045l0.821,0.086l0.777,0.086l0.778,0.129
		l0.734,0.174l0.734,0.172l0.691,0.217l0.648,0.217l0.648,0.215l0.604,0.26l0.562,0.303l0.562,0.303l0.562,0.346l0.475,0.389
		l0.476,0.346l0.476,0.432l0.432,0.432l0.433,0.434l0.346,0.475l0.389,0.518l0.346,0.52l0.303,0.561l0.302,0.562l0.26,0.562
		l0.259,0.648l0.26,0.604l0.216,0.691l0.173,0.691l0.173,0.691l0.173,0.734l0.13,0.734l0.086,0.779l0.13,0.82l0.043,0.82
		l0.087,0.865l0.043,0.863v0.908l0.043,0.906H317.994z"/>
</g>
<g id="LWPOLYLINE_7_">
	
		<path fill="none" stroke="#000000" stroke-width="0.7087" stroke-linecap="round" stroke-linejoin="round" stroke-miterlimit="10" d="
		M353.383,553.057c0.173,0,0.346,0,0.346,0h0.216h0.303h0.346h0.389h0.432h0.519h0.519h0.562h0.604h0.604h0.648h0.691h0.691h0.691
		h0.734h0.734h0.735h0.734h0.691h0.734H366h0.691h0.691h0.647h0.648h0.605h0.562h0.519h0.475h0.433h0.432h0.346h0.26h0.259
		c0.173,0,0.26,0,0.26,0c0.043,0,0.777,0.043,0.777,0.043l0.691,0.043l0.648,0.043l0.648,0.131l0.647,0.086l0.605,0.172l0.562,0.174
		l0.562,0.215l0.562,0.217l0.519,0.26l0.519,0.26l0.476,0.258l0.432,0.346l0.433,0.303l0.432,0.346l0.39,0.389l0.389,0.346
		l0.389,0.432l0.346,0.391l0.303,0.432l0.302,0.432l0.303,0.432l0.26,0.477l0.259,0.475l0.216,0.475l0.217,0.52l0.216,0.475
		l0.173,0.52l0.173,0.518l0.173,0.52l0.13,0.518l0.129,0.52l0.087,0.561l0.086,0.52l0.087,0.518l0.086,0.562l0.044,0.518
		l0.043,0.562v0.518v0.52v0.734l-0.043,0.734l-0.044,0.691l-0.043,0.734l-0.086,0.691l-0.087,0.691l-0.086,0.648l-0.13,0.648
		l-0.13,0.691l-0.173,0.604l-0.173,0.648l-0.173,0.605l-0.216,0.605l-0.216,0.604l-0.26,0.562l-0.259,0.562l-0.26,0.518
		l-0.303,0.562l-0.302,0.475l-0.346,0.52l-0.303,0.475l-0.389,0.432l-0.346,0.432l-0.389,0.434l-0.433,0.389l-0.432,0.346
		l-0.433,0.346l-0.432,0.346l-0.476,0.303l-0.519,0.301l-0.476,0.26l-0.519,0.217l-0.562,0.215l-0.562,0.174l-0.562,0.172
		l-0.605,0.131l-0.604,0.086l-0.605,0.086l-0.647,0.043h-0.648c-0.13,0-0.303,0-0.303,0h-0.259h-0.26h-0.346h-0.432h-0.433h-0.475
		h-0.519h-0.562h-0.605h-0.648h-0.647h-0.691H366h-0.691h-0.734h-0.691h-0.734h-0.735h-0.734h-0.734h-0.691h-0.691h-0.691h-0.648
		h-0.604h-0.604h-0.562h-0.519h-0.519h-0.432h-0.389h-0.346h-0.303h-0.216c-0.173,0-0.303,0-0.303,0
		C353.383,585.809,353.383,553.057,353.383,553.057z"/>
</g>
<g id="LWPOLYLINE_8_">
	
		<path fill="none" stroke="#000000" stroke-width="0.7087" stroke-linecap="round" stroke-linejoin="round" stroke-miterlimit="10" d="
		M341.024,644.229c0.173,0,0.346,0,0.346,0c0.173,0,0.389,0,0.389,0h0.26h0.303h0.302h0.346h0.346h0.39h0.389h0.432h0.389h0.476
		h0.433h0.475h0.433h0.476h0.475h0.476h0.432h0.433h0.476h0.432h0.389h0.433h0.346h0.389h0.303h0.346h0.259h0.26
		c0.216,0,0.389,0,0.389,0c0.173,0,0.259,0,0.259,0c0.087-0.086,0.087-0.346,0.087-0.346v-0.432v-0.562v-0.691v-0.82v-0.951v-1.08
		v-1.166v-1.297v-1.34v-1.469v-1.512v-1.557v-1.641v-1.643v-1.729v-1.729v-1.729v-1.771v-1.771v-1.729v-1.729v-1.729v-1.641v-1.643
		v-1.557v-1.512v-1.469v-1.34v-1.297v-1.166v-1.08v-0.951v-0.82v-0.691v-0.562v-0.432v-0.26c0.13-0.086,0.259-0.086,0.259-0.086
		c0.173,0,0.39,0,0.39,0h0.302h0.303h0.346h0.346h0.432h0.433h0.476h0.475h0.519h0.519h0.519h0.562h0.562h0.519h0.604h0.562h0.562
		h0.519h0.562h0.519h0.562h0.475h0.476h0.476h0.432h0.433h0.346h0.346h0.302h0.303h0.216c0.173,0,0.303,0,0.303,0
		c0.13,0,0.476,0,0.476,0h0.346h0.389l0.389,0.043h0.389h0.433l0.432,0.043l0.433,0.045h0.476l0.432,0.086l0.476,0.043l0.475,0.086
		l0.476,0.086l0.476,0.131l0.476,0.086l0.475,0.172l0.519,0.131l0.476,0.172l0.476,0.217l0.432,0.217l0.476,0.258l0.476,0.26
		l0.432,0.303l0.433,0.303l0.432,0.346l0.389,0.389l0.389,0.389l0.39,0.475l0.346,0.434l0.346,0.518l0.346,0.562l0.302,0.561
		l0.26,0.605l0.259,0.648l0.217,0.691l0.216,0.734l0.173,0.777l0.129,0.82l0.13,0.865l0.087,0.908l0.043,0.992l0.086,0.994
		l0.044,0.994l0.043,0.994l0.043,0.994l0.043,0.994l0.044,0.992v0.951l0.043,0.994l0.043,0.951v0.992l0.043,0.951l0.044,0.951v0.951
		l0.043,0.949l0.043,0.951l0.043,0.908l0.044,0.906l0.043,0.908l0.043,0.906l0.043,0.908l0.044,0.863l0.086,0.865l0.043,0.863
		l0.087,0.865l0.086,0.82l0.087,0.822l0.13,0.82l0.086,0.777l0.13,0.777l0.13,0.779l0.173,0.734l0.129,0.734l0.173,0.734
		l0.173,0.691l0.217,0.691l0.216,0.648l0.216,0.646l0.259,0.648l0.26,0.605c0.086,0,0.216,0,0.216,0c0.173,0,0.389,0,0.389,0h0.26
		h0.259h0.346h0.346h0.39h0.389h0.432h0.476h0.476h0.475h0.519h0.519h0.519h0.519h0.562h0.519h0.519h0.519h0.519h0.519h0.476h0.476
		h0.475h0.433h0.389h0.389h0.346h0.346h0.26h0.259c0.216,0,0.389,0,0.389,0c0.217,0,0.217,0,0.217,0L401,643.666l-0.217-0.561
		l-0.173-0.605l-0.173-0.648l-0.173-0.648l-0.173-0.691l-0.129-0.734l-0.173-0.691l-0.13-0.777l-0.13-0.734l-0.13-0.777
		l-0.129-0.777l-0.13-0.822l-0.13-0.777l-0.129-0.82l-0.087-0.822l-0.086-0.82l-0.13-0.82l-0.087-0.822l-0.086-0.82l-0.043-0.82
		l-0.087-0.779l-0.086-0.82l-0.044-0.777l-0.086-0.777l-0.043-0.734l-0.044-0.736l-0.043-0.734l-0.086-0.691v-0.691l-0.044-0.646
		l-0.043-0.648l-0.043-0.605v-0.562l-0.043-0.518v-0.52v-0.475v-0.432l-0.044-0.389v-0.346l-0.043-1.514l-0.086-1.426l-0.13-1.383
		l-0.087-1.295l-0.129-1.254l-0.173-1.209l-0.13-1.168l-0.173-1.08l-0.216-1.037l-0.217-0.994l-0.216-0.949l-0.216-0.908
		l-0.259-0.863l-0.303-0.822l-0.26-0.734l-0.346-0.734l-0.302-0.691L394,598.08l-0.39-0.646l-0.389-0.562l-0.389-0.562l-0.432-0.518
		l-0.476-0.477l-0.476-0.475l-0.476-0.389l-0.519-0.432l-0.519-0.389l-0.562-0.346l-0.604-0.346l-0.562-0.303l-0.648-0.303
		l-0.648-0.26l-0.691-0.303l-0.691-0.215l-0.691-0.26l-0.777-0.217l-0.734-0.215l-0.821-0.217l-0.821-0.215l-0.864-0.217
		l0.864-0.129l0.821-0.174l0.821-0.217l0.82-0.215l0.778-0.26l0.777-0.303l0.734-0.303l0.735-0.346l0.734-0.389l0.691-0.389
		l0.648-0.389l0.69-0.432l0.605-0.477l0.648-0.475l0.562-0.518l0.604-0.52l0.562-0.561l0.519-0.562l0.519-0.562l0.476-0.604
		l0.476-0.648l0.432-0.648l0.433-0.648l0.432-0.648l0.389-0.691l0.346-0.734l0.346-0.691l0.303-0.734l0.26-0.777l0.302-0.734
		l0.217-0.777l0.216-0.779l0.216-0.82l0.173-0.82l0.13-0.779l0.129-0.863l0.087-0.82l0.043-0.865l0.043-0.82v-0.865v-0.994
		l-0.043-0.992l-0.043-0.994l-0.087-0.951l-0.129-0.994l-0.13-0.949l-0.13-0.951l-0.216-0.951l-0.216-0.906l-0.216-0.951
		l-0.303-0.865l-0.303-0.906l-0.303-0.865l-0.389-0.863l-0.389-0.822l-0.389-0.82l-0.476-0.777l-0.476-0.777l-0.519-0.734
		l-0.519-0.734l-0.604-0.736l-0.605-0.646l-0.647-0.648l-0.691-0.605l-0.734-0.605l-0.735-0.561l-0.777-0.52l-0.821-0.518
		l-0.864-0.477l-0.907-0.389l-0.95-0.432l-0.994-0.346l-0.994-0.303l-1.08-0.303l-1.08-0.215l-1.167-0.217l-1.166-0.129l-1.21-0.131
		l-1.253-0.043l-1.34-0.043c-0.043,0-0.216,0-0.216,0h-0.303h-0.432h-0.519h-0.605h-0.691h-0.82h-0.864h-0.907h-1.037h-1.037h-1.124
		h-1.166h-1.167h-1.253h-1.253h-1.254h-1.296h-1.296h-1.297h-1.296h-1.253h-1.253h-1.254h-1.166h-1.167h-1.123h-1.037h-0.994h-0.95
		h-0.864h-0.778h-0.734h-0.604h-0.519h-0.39h-0.302c-0.216,0-0.26,0-0.26,0V644.229z"/>
</g>
<g id="LWPOLYLINE_9_">
	
		<path fill="none" stroke="#000000" stroke-width="0.7087" stroke-linecap="round" stroke-linejoin="round" stroke-miterlimit="10" d="
		M406.487,644.229c0.216,0,0.389,0,0.389,0c0.173,0,0.433,0,0.433,0h0.259h0.303h0.346h0.346h0.389h0.432h0.39h0.475h0.433h0.476
		h0.519h0.475h0.476h0.519h0.476h0.519h0.475h0.476h0.476h0.475h0.433h0.432h0.433h0.346h0.389h0.346h0.259h0.303h0.216
		c0.217,0,0.346,0,0.346,0c0.217,0,0.26-0.043,0.26-0.043c0.043-0.174,0.086-0.389,0.086-0.389l0.13-0.26l0.087-0.389l0.173-0.432
		l0.129-0.52l0.217-0.561l0.173-0.605l0.216-0.691l0.259-0.734l0.217-0.734l0.259-0.822l0.259-0.82l0.303-0.863l0.26-0.865
		l0.302-0.906l0.303-0.908l0.303-0.951l0.303-0.906l0.259-0.951l0.303-0.908l0.303-0.906l0.302-0.908l0.26-0.863l0.302-0.865
		l0.26-0.82l0.259-0.82l0.26-0.779l0.216-0.691l0.216-0.691l0.217-0.604l0.173-0.562l0.173-0.518l0.129-0.434l0.13-0.389
		l0.087-0.303c0.043-0.215,0.086-0.346,0.086-0.346c0.087-0.043,0.303-0.043,0.303-0.043h0.346h0.432h0.605h0.647h0.778h0.864h0.95
		h1.037h1.123h1.167h1.21h1.296h1.297h1.383h1.383h1.383h1.426h1.426h1.426h1.426h1.383h1.383h1.383h1.296h1.297h1.209h1.167h1.124
		h1.036h0.951h0.864h0.777h0.691h0.562h0.433h0.346c0.216,0,0.259,0,0.259,0c0.087,0.174,0.13,0.389,0.13,0.389l0.087,0.303
		l0.086,0.389l0.13,0.434l0.173,0.518l0.13,0.562l0.216,0.604l0.173,0.691l0.216,0.691l0.216,0.779l0.216,0.82l0.26,0.82
		l0.216,0.865l0.26,0.863l0.259,0.908l0.26,0.906l0.259,0.908l0.26,0.951l0.259,0.906l0.303,0.951l0.259,0.908l0.26,0.906
		l0.216,0.865l0.259,0.863l0.26,0.82l0.216,0.822l0.216,0.734l0.217,0.734l0.173,0.691l0.173,0.605l0.173,0.561l0.129,0.52
		l0.13,0.432l0.13,0.389l0.086,0.26c0.044,0.215,0.087,0.389,0.087,0.389c0.13,0.043,0.259,0.043,0.259,0.043
		c0.173,0,0.389,0,0.389,0h0.26h0.303h0.346h0.389h0.432h0.433h0.432h0.519h0.476h0.519h0.562h0.519h0.562h0.562h0.562h0.562h0.562
		h0.562h0.562h0.518h0.519h0.519h0.476h0.476h0.432h0.39h0.389h0.346h0.302h0.26h0.259c0.173,0,0.303,0,0.303,0
		c0.043-0.217-0.13-0.777-0.13-0.777l-0.302-0.865l-0.39-1.252l-0.475-1.514l-0.605-1.857l-0.647-2.074l-0.735-2.332l-0.82-2.594
		l-0.908-2.809l-0.95-2.98l-0.994-3.111l-1.08-3.328l-1.08-3.457l-1.123-3.543l-1.167-3.672l-1.21-3.717l-1.21-3.803l-1.21-3.801
		l-1.21-3.846l-1.253-3.846l-1.21-3.846l-1.21-3.76l-1.209-3.76l-1.167-3.629l-1.124-3.586l-1.08-3.414l-1.08-3.328l-0.994-3.154
		l-0.95-2.98l-0.907-2.766l-0.821-2.592l-0.734-2.334l-0.648-2.117l-0.604-1.814l-0.476-1.557l-0.389-1.209l-0.303-0.908
		l-0.173-0.561c-0.173-0.174-0.346-0.174-0.346-0.174c-0.173,0-0.432,0-0.432,0h-0.303h-0.346h-0.389h-0.433h-0.432h-0.476h-0.519
		h-0.562h-0.562h-0.562h-0.605h-0.604h-0.648h-0.605h-0.647h-0.605h-0.647H444.9h-0.648h-0.562h-0.604h-0.562h-0.519h-0.519h-0.519
		h-0.433h-0.432h-0.389h-0.346h-0.303h-0.26c-0.173,0-0.346,0-0.346,0C438.376,541.562,406.487,644.229,406.487,644.229z"/>
</g>
<g id="LWPOLYLINE_10_">
	
		<path fill="none" stroke="#000000" stroke-width="0.7087" stroke-linecap="round" stroke-linejoin="round" stroke-miterlimit="10" d="
		M462.228,607.932c-0.043,0-0.216,0-0.216,0h-0.26h-0.389h-0.476h-0.562h-0.647h-0.735h-0.82h-0.864h-0.907h-0.994h-1.037h-1.037
		h-1.123h-1.124h-1.166h-1.167h-1.21h-1.167h-1.21h-1.166h-1.167h-1.167h-1.166h-1.08h-1.081h-1.036h-0.951h-0.95h-0.864h-0.778
		h-0.734h-0.648h-0.562h-0.475h-0.39h-0.259c-0.173,0-0.26,0-0.26,0c0.044-0.086,0.13-0.389,0.13-0.389l0.13-0.475l0.216-0.648
		l0.216-0.82l0.303-0.951l0.303-1.08l0.389-1.254l0.389-1.338l0.433-1.471l0.475-1.555l0.476-1.686l0.519-1.729l0.519-1.814
		l0.562-1.857l0.562-1.945l0.562-1.943l0.604-1.988l0.604-2.031l0.605-2.031l0.562-1.986l0.605-2.031l0.604-1.988l0.562-1.986
		l0.562-1.902l0.562-1.857l0.519-1.814l0.519-1.729l0.519-1.686l0.432-1.555l0.432-1.471l0.433-1.34l0.346-1.252l0.303-1.08
		l0.302-0.994l0.26-0.777l0.173-0.648l0.13-0.475l0.086-0.303C446.326,553.963,462.228,607.932,462.228,607.932z"/>
</g>
<g id="LWPOLYLINE_11_">
	
		<path fill="none" stroke="#000000" stroke-width="0.7087" stroke-linecap="round" stroke-linejoin="round" stroke-miterlimit="10" d="
		M512.696,553.057c0.043,0.172,0.173,0.648,0.173,0.648l0.26,0.82l0.346,1.08l0.389,1.383l0.476,1.6l0.562,1.857l0.647,2.117
		l0.691,2.291l0.735,2.463l0.777,2.635l0.864,2.809l0.864,2.938l0.95,3.068l0.951,3.154l0.95,3.24l0.994,3.285l1.037,3.369
		l1.037,3.414l0.993,3.414l1.037,3.414l1.037,3.412l0.994,3.328l0.994,3.326l0.993,3.242l0.951,3.154l0.907,3.066l0.907,2.939
		l0.821,2.809l0.82,2.635l0.735,2.463l0.691,2.291l0.604,2.074l0.562,1.857l0.476,1.643l0.432,1.383l0.346,1.08l0.217,0.777
		l0.173,0.52c0.129,0.172,0.216,0.172,0.216,0.172c0.173,0,0.346,0,0.346,0c0.216,0,0.475,0,0.475,0h0.303h0.303h0.346h0.346h0.389
		h0.389h0.433h0.389h0.476h0.432h0.476h0.432h0.476h0.476h0.475h0.433h0.432h0.476h0.433h0.389h0.432h0.346h0.389h0.303h0.346h0.26
		h0.259c0.216,0,0.389,0,0.389,0c0.173,0,0.26,0,0.26,0c0.173-0.172,0.303-0.691,0.303-0.691l0.259-0.777l0.303-1.08l0.432-1.383
		l0.476-1.643l0.562-1.857l0.605-2.074l0.691-2.291l0.777-2.463l0.777-2.635l0.864-2.809l0.864-2.939l0.907-3.066l0.951-3.154
		l0.994-3.242l0.993-3.326l0.994-3.328l1.037-3.412l1.037-3.414l1.037-3.414l0.993-3.414l1.037-3.369l0.994-3.285l0.95-3.24
		l0.951-3.154l0.95-3.068l0.864-2.938l0.864-2.809l0.778-2.635l0.734-2.463l0.691-2.291l0.647-2.117l0.562-1.857l0.475-1.6
		l0.433-1.383l0.302-1.08l0.26-0.82l0.13-0.477c0.043,0,0.043,0.477,0.043,0.477v0.82v1.08v1.383v1.6v1.857v2.117v2.291v2.463v2.635
		v2.809v2.938v3.068v3.154v3.24v3.285v3.369v3.414v3.414v3.414v3.412v3.328v3.326v3.242v3.154v3.066v2.939v2.809v2.635v2.463v2.291
		v2.074v1.857v1.643v1.383v1.08v0.777v0.52c0.216,0.172,0.346,0.172,0.346,0.172c0.216,0,0.432,0,0.432,0h0.26h0.259h0.303h0.346
		h0.346h0.389h0.433h0.389h0.432h0.433h0.476h0.432h0.476h0.475h0.433h0.476h0.475h0.433h0.432h0.433h0.432h0.389h0.39h0.346h0.346
		h0.302h0.303h0.26c0.216,0,0.389,0,0.389,0c0.129,0,0.259,0,0.259,0c0.087-0.217,0.087-0.777,0.087-0.777v-0.865v-1.252v-1.514
		v-1.857v-2.074v-2.332v-2.594v-2.809v-2.98v-3.111v-3.328v-3.457v-3.543v-3.672v-3.717v-3.803v-3.801v-3.846v-3.846v-3.846v-3.76
		v-3.76v-3.629v-3.586v-3.414v-3.328v-3.154v-2.98v-2.766v-2.592v-2.334v-2.117v-1.814v-1.557v-1.209v-0.908v-0.561
		c-0.173-0.174-0.346-0.174-0.346-0.174h-0.26h-0.302h-0.39h-0.432h-0.476h-0.519h-0.604h-0.605h-0.647h-0.691h-0.691h-0.735h-0.777
		h-0.777h-0.778h-0.777h-0.821h-0.777h-0.778h-0.821h-0.734h-0.777h-0.734h-0.691h-0.691h-0.648h-0.648h-0.562h-0.519h-0.519h-0.432
		h-0.346h-0.346h-0.26c-0.173,0-0.302,0-0.302,0c-0.087,0.174-0.217,0.605-0.217,0.605l-0.216,0.777l-0.303,1.037l-0.346,1.254
		l-0.432,1.555l-0.519,1.729l-0.562,1.988l-0.605,2.117l-0.691,2.332l-0.734,2.506l-0.734,2.637l-0.821,2.766l-0.82,2.895
		l-0.864,2.982l-0.864,3.023l-0.907,3.111l-0.908,3.197l-0.95,3.197l-0.907,3.199l-0.951,3.24l-0.907,3.197l-0.907,3.154
		l-0.907,3.111l-0.864,3.068l-0.864,2.98l-0.864,2.852l-0.777,2.766l-0.778,2.637l-0.691,2.506l-0.691,2.332l-0.604,2.162
		l-0.562,1.943l-0.519,1.771l-0.433,1.512L547.005,625l-0.303,1.037l-0.216,0.734l-0.13,0.477c-0.086,0-0.216-0.477-0.216-0.477
		l-0.216-0.734L545.622,625l-0.389-1.297l-0.433-1.512l-0.475-1.771l-0.605-1.943l-0.604-2.162l-0.691-2.332l-0.691-2.506
		l-0.778-2.637l-0.777-2.766l-0.864-2.852l-0.821-2.98l-0.907-3.068l-0.907-3.111l-0.907-3.154l-0.907-3.197l-0.951-3.24
		l-0.907-3.199l-0.95-3.197l-0.908-3.197l-0.907-3.111l-0.864-3.023l-0.864-2.982l-0.82-2.895l-0.821-2.766l-0.734-2.637
		l-0.734-2.506l-0.648-2.332l-0.648-2.117l-0.562-1.988l-0.519-1.729l-0.432-1.555l-0.346-1.254l-0.303-1.037l-0.216-0.777
		l-0.13-0.432c-0.216-0.174-0.389-0.174-0.389-0.174h-0.26h-0.302h-0.346h-0.433h-0.432h-0.519h-0.562h-0.604h-0.604h-0.648h-0.691
		h-0.691h-0.734h-0.734h-0.778h-0.734h-0.777h-0.778h-0.734h-0.734h-0.778h-0.691h-0.734h-0.648h-0.691h-0.604h-0.604h-0.562h-0.475
		h-0.476h-0.433h-0.346h-0.302h-0.26c-0.173,0-0.302,0-0.302,0c0,0.174,0,0.734,0,0.734v0.908v1.209v1.557v1.814v2.117v2.334v2.592
		v2.766v2.98v3.154v3.328v3.414v3.586v3.629v3.76v3.76v3.846v3.846v3.846v3.801v3.803v3.717v3.672v3.543v3.457v3.328v3.111v2.98
		v2.809v2.594v2.332v2.074v1.857v1.514v1.252v0.865v0.561c0.173,0.217,0.302,0.217,0.302,0.217c0.173,0,0.39,0,0.39,0h0.216h0.259
		h0.303h0.303h0.346h0.346h0.389h0.389h0.389h0.39h0.432h0.432h0.433h0.432h0.433h0.432h0.39h0.432h0.432h0.39h0.389h0.346h0.346
		h0.346h0.303h0.302h0.26h0.259c0.173,0,0.346,0,0.346,0c0.173,0,0.26,0,0.26,0C512.696,644.229,512.696,553.057,512.696,553.057z"
		/>
</g>
<g id="LINE">
	
		<line fill="none" stroke="#000000" stroke-width="0.7087" stroke-linecap="round" stroke-linejoin="round" stroke-miterlimit="10" x1="152.522" y1="146" x2="424.203" y2="146"/>
</g>
<g id="LINE_1_">
	
		<line fill="none" stroke="#000000" stroke-width="0.7087" stroke-linecap="round" stroke-linejoin="round" stroke-miterlimit="10" x1="152.522" y1="146" x2="152.522" y2="172.553"/>
</g>
<g id="LINE_2_">
	
		<line fill="none" stroke="#000000" stroke-width="0.7087" stroke-linecap="round" stroke-linejoin="round" stroke-miterlimit="10" x1="152.522" y1="451.297" x2="424.203" y2="451.297"/>
</g>
<g id="LINE_3_">
	
		<line fill="none" stroke="#000000" stroke-width="0.7087" stroke-linecap="round" stroke-linejoin="round" stroke-miterlimit="10" x1="424.203" y1="146" x2="471.086" y2="299.092"/>
</g>
<g id="LINE_4_">
	
		<line fill="none" stroke="#000000" stroke-width="0.7087" stroke-linecap="round" stroke-linejoin="round" stroke-miterlimit="10" x1="471.086" y1="299.092" x2="424.203" y2="451.297"/>
</g>
<g id="LINE_5_">
	
		<line fill="none" stroke="#000000" stroke-width="0.7087" stroke-linecap="round" stroke-linejoin="round" stroke-miterlimit="10" x1="152.522" y1="172.553" x2="404.716" y2="172.553"/>
</g>
<g id="LINE_6_">
	
		<line fill="none" stroke="#000000" stroke-width="0.7087" stroke-linecap="round" stroke-linejoin="round" stroke-miterlimit="10" x1="404.716" y1="172.553" x2="404.716" y2="424.768"/>
</g>
<g id="LINE_7_">
	
		<line fill="none" stroke="#000000" stroke-width="0.7087" stroke-linecap="round" stroke-linejoin="round" stroke-miterlimit="10" x1="404.716" y1="424.768" x2="152.522" y2="424.768"/>
</g>
<g id="LINE_8_">
	
		<line fill="none" stroke="#000000" stroke-width="0.7087" stroke-linecap="round" stroke-linejoin="round" stroke-miterlimit="10" x1="152.522" y1="424.768" x2="152.522" y2="451.297"/>
</g>
</svg>
