<?xml version="1.0" encoding="utf-8"?>
<!-- Generator: Adobe Illustrator 16.0.1, SVG Export Plug-In . SVG Version: 6.00 Build 0)  -->
<!DOCTYPE svg PUBLIC "-//W3C//DTD SVG 1.0//EN" "http://www.w3.org/TR/2001/REC-SVG-20010904/DTD/svg10.dtd">
<svg version="1.0" id="_x31_" xmlns="http://www.w3.org/2000/svg" xmlns:xlink="http://www.w3.org/1999/xlink" x="0px" y="0px"
	 width="612px" height="792px" viewBox="0 0 612 792" enable-background="new 0 0 612 792" xml:space="preserve">
<g id="LWPOLYLINE">
	
		<path fill="none" stroke="#000000" stroke-width="0.7087" stroke-linecap="round" stroke-linejoin="round" stroke-miterlimit="10" d="
		M33.906,496c0.256,0,0.938,0,0.938,0h1.135h1.562h1.93h2.299h2.613h2.951h3.236h3.521h3.746h3.947h4.172h4.316h4.484h4.6h4.684
		h4.77h4.799h4.854h4.826h4.799h4.768h4.713h4.57h4.486h4.314h4.174h3.975h3.748h3.49h3.236h2.953h2.641h2.299h1.932h1.531h1.137
		h0.709c0.227-0.172,0.227-0.398,0.227-0.398v-0.283v-0.342v-0.453v-0.512v-0.51v-0.625v-0.682v-0.682v-0.795v-0.738v-0.852v-0.852
		v-0.852v-0.908v-0.908v-0.908v-0.908v-0.91v-0.908v-0.908v-0.852v-0.908v-0.852v-0.795v-0.795v-0.738v-0.738v-0.625v-0.623v-0.568
		v-0.512v-0.396v-0.398v-0.283c0-0.227,0-0.342,0-0.342c-0.197-0.057-0.736-0.057-0.736-0.057h-0.881h-1.221h-1.504h-1.818h-2.043
		h-2.328h-2.527h-2.754h-2.924h-3.123h-3.264h-3.379h-3.52h-3.578h-3.689h-3.719h-3.775h-3.805h-3.775h-3.775h-3.748h-3.662h-3.605
		h-3.52h-3.379h-3.266h-3.094h-2.953h-2.754h-2.525h-2.301h-2.072h-1.787h-1.533h-1.193h-0.908h-0.539
		c-0.199-0.113-0.199-0.453-0.199-0.453v-0.625v-0.795v-0.965v-1.193v-1.361v-1.477v-1.703v-1.76v-1.932v-2.043v-2.158v-2.215
		v-2.271v-2.383v-2.385v-2.441v-2.5v-2.441v-2.498v-2.498v-2.441v-2.385v-2.385v-2.27v-2.215v-2.158v-2.043v-1.932v-1.76v-1.703
		v-1.477v-1.363v-1.191v-0.965v-0.795v-0.625v-0.34c0.17-0.115,0.682-0.115,0.682-0.115h0.852h1.107h1.42h1.674h1.932h2.129h2.385
		h2.555h2.725h2.896h3.037h3.152h3.264h3.35h3.436h3.463h3.521h3.52h3.549h3.492h3.492h3.406h3.35h3.264h3.18h3.039h2.867h2.754
		h2.555h2.355h2.158h1.93h1.676h1.391h1.135h0.824h0.512c0.17-0.17,0.17-0.396,0.17-0.396c0-0.283,0-0.625,0-0.625v-0.396v-0.455
		v-0.568v-0.566v-0.625v-0.682v-0.738v-0.738v-0.795v-0.795v-0.795v-0.852v-0.879v-0.852v-0.881v-0.881v-0.852v-0.852v-0.852v-0.822
		v-0.824v-0.766v-0.768v-0.709v-0.682v-0.625v-0.566v-0.541v-0.482v-0.396v-0.369c0-0.256,0-0.482,0-0.482
		c-0.17-0.17-0.682-0.17-0.682-0.17h-0.824h-1.135h-1.391h-1.676h-1.93h-2.158h-2.355h-2.555h-2.754h-2.867h-3.039h-3.18h-3.264
		h-3.35h-3.406h-3.492h-3.492h-3.549h-3.52h-3.521h-3.463h-3.436h-3.35h-3.264h-3.152h-3.037h-2.896h-2.725h-2.555h-2.385h-2.129
		h-1.932h-1.674h-1.42h-1.107h-0.852h-0.512c-0.17-0.115-0.17-0.426-0.17-0.426v-0.541v-0.738v-0.936v-1.078v-1.279v-1.391v-1.561
		v-1.676v-1.789v-1.873v-1.986v-2.072v-2.129v-2.215v-2.244v-2.27v-2.301v-2.299v-2.299v-2.301v-2.271v-2.242v-2.215v-2.129v-2.072
		v-1.986v-1.875v-1.787v-1.676v-1.561v-1.391v-1.25v-1.107v-0.938v-0.736v-0.541v-0.311c0.199-0.115,0.738-0.115,0.738-0.115h0.852
		h1.193h1.477h1.76h2.016h2.242h2.498h2.668h2.896h3.01h3.207h3.293h3.436h3.52h3.578h3.662h3.689h3.691h3.719h3.662h3.662h3.578
		h3.52h3.436h3.32h3.18h3.037h2.867h2.697h2.471h2.242h2.016h1.76h1.477h1.193h0.879h0.539c0.172-0.197,0.172-0.396,0.172-0.396
		v-0.283v-0.369v-0.455v-0.482v-0.568v-0.596v-0.682V315.9v-0.738v-0.795v-0.824v-0.852v-0.852v-0.879v-0.908v-0.91v-0.908v-0.936
		v-0.91v-0.879v-0.908v-0.852v-0.852v-0.824v-0.795v-0.738v-0.709v-0.682v-0.596v-0.568v-0.482v-0.455v-0.34v-0.312
		c0-0.199,0-0.34,0-0.34c-0.229-0.057-0.91-0.057-0.91-0.057h-1.135h-1.504h-1.902h-2.242h-2.584h-2.896h-3.18h-3.463h-3.662h-3.889
		h-4.088h-4.26h-4.4h-4.514h-4.598h-4.686h-4.711h-4.742h-4.77h-4.713h-4.684h-4.6H74.02h-4.4h-4.229h-4.088h-3.891h-3.689h-3.436
		h-3.18h-2.896h-2.582h-2.271h-1.902h-1.504h-1.107h-0.682C33.906,296,33.906,496,33.906,496z"/>
</g>
<g id="LWPOLYLINE_1_">
	
		<path fill="none" stroke="#000000" stroke-width="0.7087" stroke-linecap="round" stroke-linejoin="round" stroke-miterlimit="10" d="
		M203.701,496c0.17,0,0.396,0,0.396,0h0.312h0.369h0.455h0.539h0.568h0.652h0.682h0.738h0.795h0.822h0.852h0.908h0.908h0.91h0.965
		h0.936h0.967h0.965h0.938h0.965h0.908h0.936h0.881h0.852h0.824h0.795h0.738h0.68h0.654h0.596h0.512h0.453h0.369h0.312
		c0.227,0,0.369,0,0.369,0c0.057,0,0.057-0.285,0.057-0.285v-0.908v-1.533v-1.986v-2.555v-3.01v-3.463v-3.918v-4.258v-4.6v-4.939
		v-5.225v-5.451v-5.678v-5.904v-6.018v-6.189v-6.246v-6.359v-6.357v-6.359v-6.303v-6.273v-6.189v-6.018v-5.906v-5.678v-5.479v-5.225
		v-4.91v-4.627v-4.26v-3.859v-3.465v-3.037v-2.527v-2.043v-1.477v-0.938v-0.311l0.17,0.311l0.568,0.938l0.881,1.477l1.248,2.043
		l1.533,2.527l1.816,3.037l2.072,3.465l2.357,3.859l2.555,4.26l2.781,4.627l2.953,4.91l3.15,5.225l3.293,5.479l3.436,5.678
		l3.549,5.906l3.635,6.018l3.719,6.189l3.775,6.273l3.832,6.303l3.832,6.359l3.834,6.357l3.803,6.359l3.775,6.246l3.721,6.189
		l3.662,6.018l3.547,5.904l3.408,5.678l3.293,5.451l3.18,5.225l2.951,4.939l2.783,4.6l2.555,4.258l2.328,3.918l2.1,3.463l1.818,3.01
		l1.533,2.555l1.248,1.986l0.908,1.533l0.512,0.908l0.227,0.285c0.227,0,0.568,0,0.568,0h0.396h0.568h0.625h0.738h0.852h0.908h0.965
		h1.021h1.137h1.135h1.193h1.248h1.307h1.305h1.363h1.307h1.361h1.363h1.307h1.361h1.307h1.307h1.248h1.193h1.135h1.135h1.023h0.965
		h0.908h0.852h0.738h0.625h0.568h0.396h0.34c0.229,0,0.229-0.342,0.229-0.342v-1.078v-1.76v-2.385v-3.01v-3.576v-4.088v-4.543
		v-4.996v-5.451v-5.791v-6.189v-6.416v-6.699v-6.928v-7.154v-7.266v-7.383v-7.438v-7.494v-7.494v-7.467v-7.381v-7.268v-7.098v-6.955
		v-6.699v-6.445v-6.131v-5.82v-5.422v-5.025v-4.57v-4.088v-3.549v-2.98v-2.414v-1.76v-1.078V296c-0.172,0-0.398,0-0.398,0h-0.34
		h-0.398h-0.453h-0.568h-0.625h-0.625h-0.736h-0.795h-0.795h-0.852h-0.91h-0.965h-0.908h-1.021h-0.965h-0.967h-1.021h-1.021h-0.965
		h-1.023h-0.965h-0.965h-0.908h-0.908h-0.852h-0.795h-0.795h-0.738h-0.682h-0.568h-0.566h-0.455h-0.396h-0.342
		c-0.227,0-0.396,0-0.396,0c-0.057,0-0.057,0.312-0.057,0.312v0.908v1.447v1.959v2.469v2.953v3.35v3.775v4.146v4.484v4.797v5.082
		v5.309v5.537v5.734v5.877v5.988v6.105v6.16v6.188v6.189v6.133v6.131v5.963v5.904v5.734v5.508v5.336v5.055v4.77v4.484v4.145v3.805
		v3.35v2.953v2.441v1.986v1.477v0.908v0.283l-0.172-0.283l-0.51-0.908l-0.908-1.477l-1.137-1.986l-1.477-2.441l-1.76-2.953
		l-2.043-3.35l-2.271-3.805l-2.441-4.145l-2.727-4.484l-2.838-4.77l-3.066-5.055l-3.18-5.336l-3.293-5.508l-3.406-5.734l-3.52-5.904
		l-3.605-5.963l-3.662-6.131l-3.691-6.133l-3.691-6.189l-3.689-6.188l-3.691-6.16l-3.662-6.105l-3.576-5.988l-3.52-5.877
		l-3.436-5.734l-3.322-5.537l-3.18-5.309l-3.037-5.082l-2.867-4.797l-2.668-4.484l-2.498-4.146l-2.244-3.775l-2.016-3.35
		l-1.76-2.953l-1.477-2.469l-1.191-1.959l-0.881-1.447l-0.51-0.908L242.055,296c-0.285,0-0.596,0-0.596,0h-0.484h-0.566h-0.682
		h-0.768h-0.879h-0.965h-1.051h-1.107h-1.191h-1.221h-1.307h-1.307h-1.391h-1.391h-1.42h-1.42h-1.447h-1.42h-1.447h-1.42h-1.391
		h-1.363h-1.334h-1.277h-1.221h-1.191h-1.107h-1.051h-0.965h-0.881h-0.766h-0.682h-0.596h-0.455h-0.34
		C203.701,296,203.701,496,203.701,496z"/>
</g>
<g id="LWPOLYLINE_2_">
	
		<path fill="none" stroke="#000000" stroke-width="0.7087" stroke-linecap="round" stroke-linejoin="round" stroke-miterlimit="10" d="
		M414.176,496c0.057,0,0.398,0,0.398,0h0.51h0.682h0.852h1.023h1.135h1.307h1.418h1.533h1.703h1.703h1.875h1.873h1.988h2.043h2.045
		h2.1h2.158h2.102h2.156h2.102h2.1h2.102h2.045h1.93h1.93h1.818h1.76h1.646h1.59h1.418h1.307h1.135h1.023h0.852h0.682h0.51h0.285
		c0.113,0,2.27,0,2.27,0h2.158h2.158h2.1h2.102l2.102-0.057h2.043l2.102-0.059l1.986-0.057l2.045-0.057l1.986-0.113l1.988-0.057
		l1.93-0.17l1.986-0.113l1.932-0.17l1.873-0.172l1.932-0.227l1.873-0.227l1.816-0.227l1.873-0.342l1.818-0.283l1.816-0.342
		l1.76-0.396l1.76-0.455l1.76-0.453l1.762-0.455l1.703-0.568l1.703-0.566l1.703-0.625l1.646-0.682l1.646-0.682l1.646-0.795
		l1.59-0.795l1.59-0.852l1.59-0.908l1.59-0.965l1.533-1.021l1.533-1.08l1.477-1.078l1.475-1.191l1.25-1.023l1.25-1.021l1.191-1.078
		l1.25-1.137l1.191-1.248l1.25-1.25l1.191-1.248l1.193-1.363l1.191-1.42l1.191-1.477l1.193-1.533l1.135-1.59l1.137-1.588
		l1.135-1.705l1.078-1.76l1.08-1.76l1.078-1.873l1.021-1.932l1.023-1.93l0.965-2.045l0.965-2.043l0.908-2.158l0.852-2.215
		l0.852-2.213l0.795-2.328l0.738-2.385l0.738-2.385l0.682-2.498l0.625-2.555l0.625-2.555l0.51-2.67l0.512-2.725l0.453-2.783
		l0.398-2.838l0.34-2.896l0.229-2.951l0.227-3.01l0.17-3.066l0.113-3.123v-3.236v-1.986l-0.057-2.016l-0.057-2.016l-0.057-2.016
		l-0.17-2.016l-0.113-2.016l-0.172-2.016l-0.227-2.016l-0.227-1.988l-0.285-2.016l-0.283-2.016l-0.34-1.986l-0.342-1.986
		l-0.34-1.988l-0.455-1.986l-0.453-1.959l-0.455-1.959l-0.51-1.959l-0.512-1.932l-0.625-1.93l-0.568-1.902l-0.623-1.902
		l-0.682-1.873l-0.738-1.873l-0.738-1.846l-0.738-1.846l-0.852-1.816l-0.795-1.789l-0.908-1.789l-0.908-1.76l-0.965-1.73
		l-0.967-1.703l-1.021-1.676l-1.078-1.676l-1.08-1.646l-1.135-1.59l-1.191-1.59l-1.193-1.561l-1.248-1.533l-1.307-1.477
		l-1.646-1.959l-1.703-1.873l-1.76-1.76l-1.818-1.676l-1.816-1.561l-1.816-1.506l-1.873-1.418l-1.932-1.307l-1.93-1.248
		l-1.988-1.164l-1.986-1.107l-1.988-0.994l-2.043-0.965l-2.045-0.881l-2.043-0.822l-2.102-0.738l-2.1-0.682l-2.102-0.652
		l-2.102-0.568l-2.156-0.539l-2.158-0.482l-2.102-0.426l-2.156-0.369l-2.158-0.342l-2.158-0.312l-2.156-0.254l-2.215-0.229
		l-2.158-0.197l-2.156-0.172l-2.102-0.141l-2.158-0.113l-2.156-0.086l-2.102-0.086l-2.1-0.027l-2.102-0.057l-2.102-0.029h-2.1
		h-2.045L474.305,296h-1.988c-0.113,0-0.453,0-0.453,0h-0.512h-0.682h-0.852h-1.078h-1.137h-1.361h-1.477h-1.533h-1.703h-1.816
		h-1.875h-1.93h-1.988h-2.1h-2.102h-2.156h-2.158h-2.158h-2.213h-2.158h-2.158h-2.1h-2.045h-2.043h-1.932h-1.873h-1.816h-1.646
		h-1.59h-1.477h-1.307h-1.191h-1.023h-0.908h-0.682h-0.51h-0.285C414.176,296,414.176,496,414.176,496z"/>
</g>
<g id="LWPOLYLINE_3_">
	
		<path fill="none" stroke="#000000" stroke-width="0.7087" stroke-linecap="round" stroke-linejoin="round" stroke-miterlimit="10" d="
		M442.055,319.277c0.227,0,0.568,0,0.568,0h0.396h0.512h0.566h0.682h0.795h0.852h0.908h0.967h1.021h1.135h1.137h1.135h1.191h1.25
		h1.25h1.248h1.25h1.248h1.307h1.191h1.25h1.191h1.193h1.135h1.08h1.021h0.965h0.908h0.852h0.795h0.682h0.625h0.453h0.455h0.283
		c0.229,0,2.045,0,2.045,0l1.816,0.029l1.703,0.029l1.76,0.057l1.703,0.057l1.646,0.084l1.648,0.086l1.646,0.113l1.59,0.143
		l1.531,0.17l1.533,0.17l1.533,0.17l1.477,0.229l1.42,0.227l1.477,0.256l1.418,0.283l1.363,0.312l1.363,0.34l1.361,0.342
		l1.307,0.396l1.307,0.398l1.248,0.426l1.25,0.453l1.248,0.482l1.193,0.541l1.248,0.539l1.137,0.566l1.191,0.625l1.137,0.625
		l1.078,0.682l1.135,0.682l1.08,0.738l1.078,0.795l1.021,0.795l1.08,0.852l1.021,0.852l0.965,0.936l1.021,0.938l0.967,0.994
		l0.965,1.021l1.361,1.59l1.307,1.646l1.25,1.676l1.191,1.703l1.078,1.76l1.08,1.76l1.021,1.816l0.908,1.818l0.908,1.844
		l0.852,1.875l0.795,1.873l0.738,1.873l0.682,1.875l0.682,1.873l0.568,1.873l0.566,1.875l0.568,1.844l0.455,1.846l0.453,1.816
		l0.398,1.818l0.396,1.76l0.342,1.76l0.283,1.703l0.283,1.676l0.285,1.617l0.17,1.59l0.227,1.562l0.17,1.475l0.17,1.42l0.115,1.391
		l0.113,1.307l0.113,1.25l0.057,1.162l0.057,1.08l0.057,1.021v0.938l0.057,0.879v0.738v0.682v0.568v0.908v0.965v1.078l-0.057,1.137
		v1.191l-0.057,1.25l-0.113,1.305l-0.057,1.363l-0.113,1.42l-0.172,1.477l-0.17,1.533l-0.17,1.59l-0.227,1.59l-0.285,1.646
		l-0.283,1.703l-0.34,1.703l-0.342,1.703l-0.396,1.76l-0.455,1.816l-0.51,1.762l-0.568,1.816l-0.568,1.873l-0.682,1.816
		l-0.682,1.818l-0.795,1.873l-0.795,1.816l-0.908,1.873l-0.908,1.818l-1.021,1.816l-1.078,1.816l-1.137,1.816l-1.248,1.762
		l-1.307,1.76l-1.363,1.76l-1.418,1.646l-1.533,1.703l-1.59,1.59l-1.703,1.646l-1.818,1.533l-1.873,1.477l-1.021,0.682l-1.08,0.682
		l-1.135,0.623l-1.078,0.568l-1.137,0.568l-1.191,0.566l-1.137,0.512l-1.191,0.455l-1.25,0.51l-1.191,0.398l-1.25,0.453
		l-1.248,0.342l-1.307,0.396l-1.248,0.342l-1.307,0.34l-1.307,0.283l-1.305,0.285l-1.363,0.283l-1.305,0.227l-1.363,0.229
		l-1.363,0.227l-1.361,0.17l-1.363,0.17l-1.363,0.172l-1.42,0.17l-1.361,0.113l-1.42,0.113l-1.363,0.113l-1.42,0.057l-1.418,0.113
		l-1.363,0.059l-1.42,0.057l-1.418,0.057l-1.42,0.057h-1.42l-1.42,0.057h-1.361l-1.42,0.057h-1.42h-1.363c-0.227,0-0.453,0-0.453,0
		h-0.342h-0.396h-0.512h-0.566h-0.625h-0.738h-0.738h-0.795h-0.852h-0.908h-0.965h-0.967h-0.965h-1.021h-1.021h-1.08h-1.021H455
		h-1.08h-1.021h-1.021h-0.965h-0.965h-0.967h-0.908h-0.852h-0.795h-0.738h-0.738h-0.623h-0.568h-0.512h-0.396h-0.342
		c-0.227,0-0.396,0-0.396,0C442.055,472.777,442.055,319.277,442.055,319.277z"/>
</g>
</svg>
