<?xml version="1.0" encoding="utf-8"?>
<!-- Generator: Adobe Illustrator 16.0.1, SVG Export Plug-In . SVG Version: 6.00 Build 0)  -->
<!DOCTYPE svg PUBLIC "-//W3C//DTD SVG 1.0//EN" "http://www.w3.org/TR/2001/REC-SVG-20010904/DTD/svg10.dtd">
<svg version="1.0" id="_x31_" xmlns="http://www.w3.org/2000/svg" xmlns:xlink="http://www.w3.org/1999/xlink" x="0px" y="0px"
	 width="612px" height="792px" viewBox="0 0 612 792" enable-background="new 0 0 612 792" xml:space="preserve">
<g id="LWPOLYLINE">
	
		<path fill="none" stroke="#000000" stroke-width="0.7087" stroke-linecap="round" stroke-linejoin="round" stroke-miterlimit="10" d="
		M176.333,414.1c0.126,0,0.273,0,0.273,0c0.21,0,0.463,0,0.463,0h0.315h0.358h0.379h0.441h0.463h0.506h0.525h0.548h0.589h0.59h0.61
		h0.631h0.632h0.652h0.652h0.632h0.652h0.631h0.632h0.61h0.59h0.589h0.547h0.526h0.505h0.464h0.441h0.4h0.337h0.315h0.252
		c0.211,0,0.358,0,0.358,0c0.126,0,0.337,0,0.337,0h0.252l0.253,0.043l0.295,0.041l0.337,0.043l0.336,0.043l0.358,0.041l0.399,0.084
		l0.4,0.084l0.399,0.127l0.442,0.127l0.441,0.125l0.464,0.168l0.441,0.211l0.484,0.168l0.463,0.254l0.484,0.252l0.463,0.252
		l0.484,0.295l0.463,0.338l0.463,0.336l0.463,0.422l0.442,0.379l0.441,0.463l0.442,0.463l0.399,0.504l0.4,0.549l0.379,0.588
		l0.357,0.59l0.337,0.674l0.315,0.674l0.295,0.715l0.273,0.758l0.231,0.801l0.189,0.842l0.189,0.926l0.127,0.926l0.104,0.969
		l0.063,1.051l0.021,1.053l-0.021,1.137l-0.084,1.094l-0.105,1.053l-0.147,0.969l-0.189,0.969l-0.21,0.883l-0.253,0.842
		l-0.295,0.801l-0.315,0.799l-0.357,0.717l-0.379,0.674l-0.4,0.631l-0.421,0.631l-0.441,0.547l-0.484,0.549l-0.484,0.504
		l-0.505,0.463l-0.526,0.422l-0.526,0.379l-0.547,0.379l-0.547,0.336l-0.568,0.338l-0.568,0.293l-0.568,0.254l-0.568,0.209
		l-0.59,0.211l-0.568,0.211l-0.567,0.168l-0.568,0.168l-0.568,0.127l-0.548,0.084l-0.547,0.127l-0.526,0.084l-0.526,0.043
		l-0.505,0.041l-0.484,0.043l-0.463,0.041h-0.441l-0.442,0.043h-0.399c-0.085,0-0.211,0-0.211,0c-0.168,0-0.379,0-0.379,0h-0.231
		h-0.295h-0.315h-0.337h-0.379h-0.399h-0.421h-0.442h-0.463h-0.484h-0.484h-0.505h-0.505h-0.526h-0.505h-0.526h-0.505H181.7h-0.506
		h-0.505h-0.463h-0.463h-0.442h-0.441h-0.4h-0.357h-0.358h-0.315h-0.273h-0.253c-0.21,0-0.357,0-0.357,0c-0.211,0-0.231,0-0.231,0
		V414.1z"/>
</g>
<g id="LWPOLYLINE_1_">
	
		<path fill="none" stroke="#000000" stroke-width="0.7087" stroke-linecap="round" stroke-linejoin="round" stroke-miterlimit="10" d="
		M176.333,502.92c0-0.084,0-0.336,0-0.336v-0.379v-0.549v-0.631v-0.799v-0.885v-1.01v-1.096v-1.221v-1.262v-1.348v-1.432v-1.473
		v-1.516v-1.557v-1.6v-1.643v-1.641v-1.643v-1.641v-1.643v-1.6v-1.6v-1.557v-1.559v-1.473v-1.389v-1.348v-1.305v-1.18v-1.094v-1.01
		v-0.928v-0.756v-0.674v-0.506v-0.379v-0.252c0.126-0.084,0.273-0.084,0.273-0.084c0.189,0,0.421,0,0.421,0h0.295h0.337h0.378h0.422
		h0.441h0.463h0.506h0.525h0.548h0.568h0.589h0.59h0.61h0.61h0.61h0.61h0.61h0.61h0.589h0.59h0.568h0.547h0.526h0.505h0.484h0.441
		h0.4h0.379h0.337h0.294h0.253c0.189,0,0.337,0,0.337,0c0.105,0,0.905,0,0.905,0l0.799-0.043l0.843-0.041l0.842-0.086l0.884-0.084
		l0.884-0.125l0.884-0.17l0.905-0.168l0.926-0.209l0.905-0.211l0.926-0.295l0.927-0.295l0.926-0.336l0.926-0.338l0.905-0.42
		l0.905-0.422l0.905-0.504l0.862-0.506l0.884-0.547l0.843-0.59l0.82-0.631l0.821-0.674l0.778-0.717l0.758-0.799l0.736-0.801
		l0.695-0.842l0.673-0.926l0.632-0.967l0.589-1.012l0.548-1.053l0.525-1.135l0.464-1.18l0.421-1.221l0.379-1.264l0.315-1.346
		l0.273-1.432l0.211-1.432l0.146-1.516l0.085-1.6l0.042-1.641l-0.021-1.727l-0.084-1.641l-0.126-1.6l-0.189-1.516l-0.231-1.432
		l-0.274-1.389l-0.336-1.348l-0.358-1.264l-0.421-1.221l-0.441-1.135l-0.506-1.096l-0.525-1.053l-0.568-1.01l-0.61-0.926
		l-0.632-0.885l-0.652-0.842l-0.716-0.799l-0.716-0.758l-0.758-0.674l-0.778-0.674l-0.8-0.59l-0.821-0.588l-0.862-0.506
		l-0.863-0.506l-0.884-0.42l-0.905-0.422l-0.905-0.379l-0.946-0.336l-0.927-0.295l-0.968-0.252l-0.947-0.252l-0.968-0.211
		l-0.989-0.168l-0.969-0.17l-0.989-0.125l-0.989-0.084l-0.968-0.086l-0.989-0.041l-0.969-0.043h-0.988c-0.189,0-0.442,0-0.442,0
		h-0.357h-0.422h-0.505h-0.568h-0.652h-0.716h-0.778h-0.821h-0.884h-0.905h-0.968h-0.968h-1.011h-1.053h-1.052h-1.053h-1.073h-1.053
		h-1.073h-1.052h-1.031h-1.011h-0.989h-0.947h-0.905h-0.884h-0.82h-0.779h-0.716h-0.652h-0.568h-0.505h-0.441h-0.337h-0.253
		c-0.189,0.17-0.189,0.717-0.189,0.717v0.883v1.18v1.516v1.768v2.062v2.273v2.525v2.693v2.904v3.074v3.24v3.326v3.494v3.535v3.621
		v3.703v3.748v3.746v3.746v3.703v3.705v3.621v3.578v3.451v3.367v3.199v3.072v2.904v2.736v2.484v2.314v2.021v1.768v1.516v1.178v0.885
		v0.547C164.272,502.92,176.333,502.92,176.333,502.92z"/>
</g>
<g id="LWPOLYLINE_2_">
	
		<path fill="none" stroke="#000000" stroke-width="0.7087" stroke-linecap="round" stroke-linejoin="round" stroke-miterlimit="10" d="
		M228.067,502.92c0.189,0,0.357,0,0.357,0c0.189,0,0.421,0,0.421,0h0.253h0.315h0.315h0.358h0.357h0.4h0.421h0.441h0.442h0.463
		h0.463h0.484h0.484h0.483h0.484h0.484h0.463h0.484h0.463h0.441h0.421h0.421h0.4h0.379h0.357h0.315h0.295h0.273h0.231
		c0.189,0,0.337,0,0.337,0c0.211,0,0.231-0.084,0.231-0.084c0.042-0.127,0.105-0.338,0.105-0.338l0.084-0.293l0.127-0.338
		l0.126-0.42l0.168-0.506l0.169-0.547l0.21-0.59l0.211-0.674l0.21-0.715l0.253-0.717l0.253-0.799l0.252-0.801l0.273-0.842
		l0.274-0.842l0.273-0.883l0.295-0.885l0.294-0.926l0.273-0.885l0.295-0.926l0.295-0.883l0.273-0.885l0.295-0.885l0.273-0.842
		l0.273-0.842l0.253-0.842l0.252-0.758l0.232-0.758l0.231-0.672l0.21-0.674l0.189-0.59l0.189-0.547l0.147-0.506l0.147-0.42
		l0.105-0.379l0.104-0.295c0.063-0.211,0.105-0.338,0.105-0.338c0.084-0.041,0.273-0.041,0.273-0.041h0.337h0.442h0.547h0.674h0.758
		h0.842h0.926h1.011h1.073h1.137h1.199h1.242h1.283h1.326h1.348h1.367h1.368h1.39h1.389h1.39h1.368h1.347h1.326h1.284h1.241h1.179
		h1.157h1.074h1.01h0.926h0.843h0.757h0.653h0.567h0.422h0.336c0.211,0,0.253,0,0.253,0c0.084,0.168,0.126,0.379,0.126,0.379
		l0.085,0.295l0.126,0.379l0.084,0.42l0.168,0.506l0.169,0.547l0.168,0.59l0.169,0.674l0.21,0.672l0.211,0.758l0.21,0.758
		l0.253,0.842l0.21,0.842l0.253,0.842l0.253,0.885l0.252,0.885l0.253,0.883l0.253,0.926l0.294,0.885l0.253,0.926l0.253,0.885
		l0.252,0.883l0.211,0.842l0.252,0.842l0.253,0.801l0.211,0.799l0.21,0.717l0.211,0.715l0.168,0.674l0.168,0.59l0.169,0.547
		l0.126,0.506l0.126,0.42l0.127,0.338l0.084,0.293c0.042,0.211,0.084,0.338,0.084,0.338c0.127,0.084,0.253,0.084,0.253,0.084
		c0.168,0,0.379,0,0.379,0h0.252h0.337h0.337h0.337h0.421h0.421h0.463h0.463h0.463h0.506h0.547h0.547h0.506h0.547h0.547h0.548h0.547
		h0.548h0.547h0.505h0.505h0.506h0.463h0.463h0.421h0.421h0.337h0.337h0.295h0.294h0.211c0.168,0,0.294,0,0.294,0
		c0.043-0.211-0.126-0.758-0.126-0.758l-0.295-0.885l-0.378-1.178l-0.464-1.516l-0.589-1.768l-0.632-2.021l-0.715-2.314l-0.8-2.484
		l-0.885-2.736l-0.926-2.904l-0.968-3.072l-1.053-3.199l-1.053-3.367l-1.094-3.451l-1.137-3.578l-1.179-3.621l-1.179-3.705
		l-1.179-3.703l-1.179-3.746l-1.221-3.746l-1.179-3.748l-1.179-3.703l-1.179-3.621l-1.137-3.535l-1.094-3.494l-1.053-3.326
		l-1.031-3.24l-0.989-3.074l-0.926-2.904l-0.863-2.693l-0.8-2.525l-0.736-2.273l-0.632-2.062l-0.568-1.768l-0.484-1.516l-0.378-1.18
		l-0.295-0.883l-0.169-0.547c-0.168-0.17-0.315-0.17-0.315-0.17c-0.189,0-0.441,0-0.441,0h-0.295h-0.337h-0.379h-0.4h-0.441h-0.484
		h-0.505h-0.526h-0.547h-0.568h-0.568h-0.61h-0.61h-0.59h-0.631h-0.61h-0.61h-0.61h-0.59h-0.589H263.7h-0.547h-0.526h-0.506h-0.463
		h-0.441h-0.421h-0.379h-0.337h-0.273h-0.253c-0.189,0-0.337,0-0.337,0C259.091,402.902,228.067,502.92,228.067,502.92z"/>
</g>
<g id="LWPOLYLINE_3_">
	
		<path fill="none" stroke="#000000" stroke-width="0.7087" stroke-linecap="round" stroke-linejoin="round" stroke-miterlimit="10" d="
		M282.369,467.561c-0.063,0-0.231,0-0.231,0h-0.253h-0.379h-0.463h-0.547h-0.652h-0.695h-0.778h-0.842h-0.905h-0.947h-1.01h-1.031
		h-1.073h-1.116h-1.137h-1.136h-1.158h-1.157h-1.158h-1.157h-1.157h-1.116h-1.115h-1.073h-1.031h-1.011h-0.947h-0.904h-0.842h-0.779
		h-0.716h-0.631h-0.548h-0.463h-0.379h-0.273c-0.168,0-0.21,0-0.21,0c0.021-0.084,0.104-0.379,0.104-0.379l0.127-0.463l0.189-0.631
		l0.231-0.801l0.273-0.926l0.315-1.094l0.358-1.18l0.399-1.305l0.421-1.432l0.442-1.557l0.483-1.6l0.506-1.684l0.505-1.77
		l0.547-1.809l0.548-1.895l0.568-1.895l0.568-1.936l0.589-1.979l0.568-1.979l0.589-1.979l0.568-1.938l0.59-1.936l0.547-1.938
		l0.568-1.852l0.526-1.811l0.526-1.768l0.505-1.725l0.463-1.6l0.463-1.516l0.421-1.432l0.379-1.348l0.358-1.178l0.315-1.096
		l0.273-0.926l0.231-0.758l0.189-0.631l0.126-0.463l0.085-0.295C266.857,414.984,282.369,467.561,282.369,467.561z"/>
</g>
<g id="LWPOLYLINE_4_">
	
		<path fill="none" stroke="#000000" stroke-width="0.7087" stroke-linecap="round" stroke-linejoin="round" stroke-miterlimit="10" d="
		M379.797,429.633l-0.042-1.557l-0.042-1.475l-0.084-1.43l-0.126-1.391l-0.169-1.305l-0.21-1.305l-0.211-1.262l-0.295-1.18
		l-0.294-1.178l-0.337-1.096l-0.379-1.094l-0.421-1.01l-0.463-0.969l-0.506-0.969l-0.505-0.883l-0.589-0.885l-0.59-0.799
		l-0.674-0.758l-0.673-0.758l-0.716-0.717l-0.758-0.631l-0.8-0.631l-0.842-0.59l-0.884-0.547l-0.927-0.506l-0.968-0.463l-1.01-0.42
		l-1.011-0.422l-1.095-0.379l-1.137-0.336l-1.136-0.295l-1.221-0.254l-1.221-0.252l-1.306-0.168l-1.305-0.168l-1.347-0.127
		l-1.432-0.127l-1.431-0.084l-1.516-0.041h-1.516H348.1l-1.516,0.084l-1.431,0.125l-1.432,0.127l-1.389,0.211l-1.347,0.252
		l-1.264,0.295l-1.263,0.295l-1.221,0.379l-1.221,0.42l-1.137,0.465l-1.094,0.504l-1.053,0.506l-1.053,0.59l-0.968,0.588
		l-0.968,0.674l-0.927,0.674l-0.842,0.758l-0.842,0.758l-0.8,0.799l-0.758,0.842l-0.716,0.885l-0.673,0.926l-0.632,0.926
		l-0.631,1.012l-0.548,1.01l-0.505,1.053l-0.505,1.094l-0.464,1.137l-0.378,1.178l-0.379,1.18l-0.337,1.221l-0.295,1.262
		l-0.253,1.264l-0.21,1.348l-0.169,1.346l-0.126,1.391l-0.084,1.389l-0.084,1.473v1.473c0,0.043,0,0.211,0,0.211v0.295v0.379v0.506
		v0.588v0.674v0.758v0.801v0.883v0.969v1.01v1.053v1.094v1.137v1.18v1.178v1.221v1.221v1.221v1.221v1.221v1.221v1.18v1.178v1.137
		v1.096v1.051v1.012v0.926v0.883v0.844v0.756v0.674v0.547v0.506v0.379v0.295c0,0.168,0,0.252,0,0.252v2.021l0.084,1.979l0.084,1.936
		l0.126,1.852l0.169,1.811l0.21,1.727l0.253,1.684l0.295,1.6l0.337,1.6l0.379,1.473l0.378,1.475l0.464,1.389l0.505,1.348
		l0.505,1.262l0.548,1.221l0.631,1.18l0.632,1.137l0.673,1.051l0.716,1.053l0.758,0.926l0.8,0.926l0.842,0.885l0.842,0.801
		l0.927,0.756l0.968,0.717l0.968,0.631l1.053,0.631l1.053,0.549l1.094,0.547l1.137,0.463l1.221,0.42l1.221,0.379l1.263,0.295
		l1.264,0.295l1.347,0.252l1.389,0.17l1.432,0.168l1.431,0.084l1.516,0.084h1.516h0.968h0.927l0.926-0.041l0.926-0.043l0.927-0.043
		l0.884-0.084l0.842-0.084l0.884-0.084l0.842-0.084l0.842-0.127l0.8-0.125l0.842-0.127l0.8-0.127l0.758-0.168l0.8-0.168l0.758-0.168
		l0.758-0.168l0.758-0.211l0.716-0.168l0.758-0.211l0.715-0.211l0.716-0.252l0.716-0.211l0.674-0.252l0.715-0.254l0.674-0.209
		l0.716-0.295l0.674-0.254l0.673-0.252l0.674-0.295l0.632-0.295l0.673-0.252l0.674-0.295l0.631-0.295l0.674-0.295l0.632-0.336
		l0.673-0.295l0.632-0.336l0.632-0.295l0.673-0.338c0-0.084,0-0.336,0-0.336V496.1v-0.588v-0.717v-0.883v-0.969v-1.094v-1.221
		v-1.305v-1.391v-1.516v-1.514v-1.643v-1.684v-1.727v-1.725v-1.811v-1.768v-1.811v-1.811v-1.811v-1.768v-1.768v-1.727v-1.684v-1.6
		v-1.557v-1.475v-1.43v-1.305v-1.18v-1.137v-0.969v-0.842v-0.758v-0.547v-0.42v-0.295c-0.084-0.084-0.252-0.084-0.252-0.084h-0.253
		h-0.379h-0.463h-0.547h-0.632h-0.716h-0.758h-0.842h-0.926h-0.926h-1.011h-1.053h-1.052h-1.137h-1.137h-1.137h-1.137h-1.178h-1.137
		h-1.179h-1.137h-1.137h-1.095h-1.094h-1.011h-1.01h-0.969h-0.884h-0.842h-0.8h-0.716h-0.631h-0.548h-0.463h-0.379h-0.253
		c-0.168,0-0.21,0-0.21,0c0,0.211,0,0.336,0,0.336c0,0.168,0,0.338,0,0.338v0.252v0.252v0.295v0.295v0.336v0.338v0.336v0.379v0.422
		v0.379v0.42v0.379v0.422v0.42v0.422v0.42v0.422v0.42v0.379v0.379v0.379v0.379v0.338v0.336v0.295v0.295v0.252v0.211
		c0,0.211,0,0.379,0,0.379c0,0.127,0,0.252,0,0.252c0.126,0.084,0.253,0.084,0.253,0.084h0.252h0.253h0.337h0.336h0.422h0.463h0.505
		h0.505h0.548h0.589h0.632h0.631h0.632h0.673h0.632h0.674h0.715h0.674h0.674h0.674h0.631h0.674h0.589h0.632h0.589h0.548h0.505h0.505
		h0.463h0.421h0.337h0.337h0.295h0.21c0.127,0,0.253,0,0.253,0c0.042,0.211,0.042,0.463,0.042,0.463v0.338v0.42v0.547v0.59v0.674
		v0.715v0.801v0.885v0.883v0.926v1.012v1.01v1.053v1.051v1.096v1.094v1.096v1.094v1.094v1.053v1.094v1.053v1.01v0.969v0.926v0.928
		v0.842v0.799v0.715v0.674v0.633v0.504v0.422v0.379v0.252c0,0.211-0.21,0.379-0.21,0.379c-0.211,0.211-0.464,0.422-0.464,0.422
		l-0.21,0.168l-0.253,0.209l-0.295,0.17l-0.252,0.209l-0.295,0.17l-0.295,0.209l-0.336,0.17l-0.295,0.168l-0.337,0.168l-0.379,0.211
		l-0.337,0.168l-0.379,0.168l-0.379,0.168l-0.421,0.127l-0.379,0.168l-0.421,0.17l-0.421,0.125l-0.463,0.168l-0.463,0.127
		l-0.463,0.127l-0.463,0.125l-0.506,0.127l-0.463,0.127l-0.505,0.084l-0.547,0.125l-0.506,0.086l-0.547,0.084l-0.547,0.084
		l-0.59,0.084l-0.547,0.041l-0.59,0.086l-0.589,0.041l-0.59,0.043l-0.631,0.041h-0.632l-0.631,0.043h-0.632l-0.884-0.043h-0.884
		l-0.842-0.084l-0.843-0.084l-0.8-0.084l-0.757-0.168l-0.758-0.17l-0.758-0.168l-0.716-0.252l-0.674-0.252l-0.673-0.254
		l-0.632-0.336l-0.632-0.338l-0.589-0.42l-0.589-0.422l-0.548-0.42l-0.547-0.506l-0.505-0.547l-0.506-0.547l-0.463-0.631
		l-0.421-0.633l-0.421-0.715l-0.379-0.715l-0.379-0.801l-0.379-0.799l-0.295-0.885l-0.336-0.926l-0.253-0.926l-0.295-1.012
		l-0.21-1.051l-0.211-1.096l-0.21-1.178l-0.169-1.18l-0.126-1.262l-0.126-1.348l-0.127-1.348l-0.084-1.43l-0.042-1.475l-0.042-1.516
		v-1.6c0-0.041,0-0.209,0-0.209v-0.295v-0.422v-0.504v-0.59v-0.674v-0.801v-0.842v-0.883v-1.01v-1.012v-1.094v-1.137v-1.137v-1.221
		v-1.221v-1.221v-1.264v-1.262v-1.264v-1.262v-1.221v-1.221v-1.221v-1.137v-1.137v-1.096v-1.01v-1.01v-0.885v-0.842v-0.799v-0.674
		v-0.59v-0.504v-0.422v-0.295c0-0.168,0-0.211,0-0.211l0.042-1.514l0.042-1.475l0.126-1.346l0.169-1.307l0.21-1.221l0.253-1.178
		l0.295-1.137l0.337-1.01l0.336-1.01l0.421-0.928l0.422-0.842l0.421-0.842l0.505-0.758l0.505-0.715l0.505-0.631l0.548-0.633
		l0.547-0.547l0.59-0.547l0.547-0.463l0.631-0.463l0.59-0.379l0.589-0.379l0.632-0.338l0.589-0.293l0.632-0.254l0.59-0.252
		l0.631-0.168l0.59-0.211l0.589-0.127l0.589-0.125l0.548-0.127l0.547-0.084l0.505-0.084l0.548-0.043l0.463-0.084h0.463l0.421-0.041
		h0.421h0.379h0.337h0.884l0.884,0.041l0.8,0.043l0.843,0.084l0.757,0.084l0.758,0.127l0.716,0.168l0.716,0.168l0.631,0.168
		l0.674,0.254l0.59,0.209l0.589,0.254l0.59,0.293l0.547,0.295l0.505,0.338l0.505,0.336l0.464,0.379l0.463,0.422l0.421,0.42
		l0.379,0.422l0.379,0.463l0.336,0.504l0.337,0.506l0.337,0.506l0.295,0.588l0.253,0.549l0.252,0.631l0.211,0.59l0.21,0.672
		l0.211,0.674l0.168,0.674l0.126,0.717l0.127,0.715l0.126,0.758l0.084,0.799l0.085,0.801l0.042,0.842l0.042,0.842l0.042,0.842v0.926
		H379.797z"/>
</g>
<g id="LWPOLYLINE_5_">
	
		<path fill="none" stroke="#000000" stroke-width="0.7087" stroke-linecap="round" stroke-linejoin="round" stroke-miterlimit="10" d="
		M453.084,502.92c0-0.211,0-0.336,0-0.336c0-0.17,0-0.379,0-0.379v-0.211v-0.252v-0.295v-0.295v-0.338v-0.336V500.1v-0.379v-0.379
		v-0.379v-0.42v-0.422v-0.422v-0.42v-0.422v-0.42v-0.379v-0.422v-0.379v-0.42v-0.379v-0.336v-0.338v-0.336v-0.295v-0.295v-0.252
		v-0.254c0-0.168,0-0.336,0-0.336c0-0.127,0-0.252,0-0.252c-0.084-0.086-0.295-0.086-0.295-0.086h-0.337h-0.463H451.4h-0.674h-0.8
		h-0.884h-0.969h-1.052h-1.137h-1.179h-1.263h-1.305h-1.348h-1.389h-1.39h-1.431h-1.474h-1.431h-1.474h-1.432h-1.431h-1.432h-1.347
		h-1.348h-1.305h-1.263h-1.179h-1.137h-1.052h-0.969h-0.884h-0.8h-0.674h-0.589h-0.463h-0.337c-0.211,0-0.295,0-0.295,0
		c0-0.041,0-0.252,0-0.252v-0.295v-0.42v-0.506v-0.59v-0.715v-0.799v-0.844v-0.967v-0.969v-1.094v-1.096v-1.178v-1.18v-1.221v-1.262
		v-1.264v-1.305v-1.262v-1.307v-1.305v-1.262v-1.264v-1.221v-1.178v-1.18v-1.094v-1.053v-1.01v-0.926v-0.885v-0.758v-0.715v-0.633
		v-0.504v-0.422v-0.295c0-0.168,0-0.252,0-0.252c0.084,0,0.253,0,0.253,0h0.295h0.463h0.505h0.632h0.715h0.8h0.884h0.969h1.053
		h1.052h1.137h1.221h1.221h1.263h1.263h1.306h1.305h1.347h1.305h1.348h1.305h1.263h1.263h1.221h1.179h1.137h1.095h1.01h0.969h0.884
		h0.842h0.716h0.631h0.506h0.421h0.337c0.168,0,0.252,0,0.252,0c0-0.168,0-0.295,0-0.295c0-0.168,0-0.379,0-0.379v-0.252v-0.252
		v-0.254v-0.336v-0.295v-0.336v-0.379v-0.379v-0.379v-0.422v-0.379v-0.42v-0.422v-0.42v-0.422v-0.422v-0.42v-0.379v-0.422v-0.377
		v-0.379v-0.379v-0.338v-0.336v-0.295v-0.252v-0.295v-0.211c0-0.211,0-0.379,0-0.379c0-0.127,0-0.211,0-0.211
		c-0.084-0.084-0.252-0.084-0.252-0.084h-0.337h-0.421h-0.506h-0.631h-0.716h-0.842h-0.884h-0.969h-1.01h-1.095h-1.137h-1.179
		h-1.221h-1.263h-1.263h-1.305h-1.348h-1.305h-1.347h-1.305h-1.306h-1.263h-1.263h-1.221h-1.221h-1.137h-1.052h-1.053h-0.969h-0.884
		h-0.8h-0.715h-0.632h-0.505h-0.463h-0.295c-0.169,0-0.253,0-0.253,0c0-0.084,0-0.252,0-0.252v-0.254v-0.379v-0.504v-0.547v-0.674
		v-0.717v-0.799v-0.885v-0.926v-0.969v-1.01V437v-1.096v-1.135v-1.137v-1.18v-1.221v-1.178v-1.18v-1.221v-1.178v-1.137v-1.137
		v-1.094v-1.096v-1.01v-1.01v-0.926v-0.844v-0.799v-0.715v-0.674v-0.547v-0.506v-0.379v-0.252c0-0.211,0-0.254,0-0.254
		c0.084,0,0.295,0,0.295,0h0.295h0.463h0.589h0.674h0.758h0.884h0.926h1.053h1.095h1.179h1.221h1.263h1.305h1.347h1.39h1.389h1.432
		h1.431h1.39h1.431h1.39h1.389h1.348h1.305h1.263h1.221h1.179h1.095h1.052h0.927h0.884h0.758h0.674h0.589h0.463h0.337
		c0.168,0,0.253,0,0.253,0c0-0.168,0-0.295,0-0.295c0-0.168,0-0.379,0-0.379v-0.252v-0.252v-0.252v-0.338v-0.295v-0.336v-0.379
		v-0.379v-0.379v-0.422v-0.379v-0.42v-0.422v-0.42v-0.422v-0.42v-0.422v-0.379v-0.42v-0.379v-0.379v-0.379v-0.338v-0.336v-0.295
		v-0.252v-0.295v-0.211c0-0.211,0-0.379,0-0.379c0-0.125,0-0.211,0-0.211c-0.085-0.084-0.379-0.084-0.379-0.084H451.4h-0.59h-0.758
		h-0.884h-1.01h-1.137h-1.263h-1.348h-1.473h-1.516h-1.642h-1.684h-1.727h-1.768h-1.811h-1.852h-1.853h-1.895h-1.852h-1.895h-1.81
		h-1.853h-1.769h-1.726h-1.684h-1.6h-1.558h-1.431h-1.348h-1.263h-1.137h-1.052h-0.885h-0.715h-0.632h-0.421h-0.295
		c-0.084,0.17-0.084,0.717-0.084,0.717v0.883v1.18v1.516v1.768v2.062v2.273v2.525v2.693v2.904v3.074v3.24v3.326v3.494v3.535v3.621
		v3.703v3.748v3.746v3.746v3.703v3.705v3.621v3.578v3.451v3.367v3.199v3.072v2.904v2.736v2.484v2.314v2.021v1.768v1.516v1.178v0.885
		v0.547C402.191,502.92,453.084,502.92,453.084,502.92z"/>
</g>
<g id="LWPOLYLINE_6_">
	
		<path fill="none" stroke="#000000" stroke-width="0.7087" stroke-linecap="round" stroke-linejoin="round" stroke-miterlimit="10" d="
		M141.857,555.496c0.105,0,0.252,0,0.252,0c0.189,0,0.442,0,0.442,0h0.295h0.337h0.379h0.399h0.442h0.483h0.506h0.525h0.548h0.568
		h0.589h0.59h0.61h0.61h0.61h0.61h0.61h0.61h0.589h0.59h0.568h0.547h0.526h0.505h0.463h0.442h0.421h0.379h0.337h0.273h0.252
		c0.189,0,0.337,0,0.337,0c0.127,0,1.073,0,1.073,0l0.947,0.043l0.905,0.084l0.863,0.084l0.862,0.125l0.821,0.127l0.82,0.211
		l0.758,0.211l0.758,0.252l0.737,0.252l0.694,0.295l0.673,0.338l0.674,0.377l0.61,0.422l0.61,0.463l0.59,0.463l0.547,0.506
		l0.526,0.547l0.505,0.59l0.484,0.631l0.463,0.674l0.421,0.715l0.421,0.717l0.379,0.799l0.357,0.842l0.337,0.842l0.316,0.926
		l0.294,0.969l0.253,1.01l0.253,1.012l0.21,1.094l0.189,1.137l0.168,1.178l0.147,1.264l0.127,1.262l0.104,1.307l0.085,1.389
		l0.062,1.432l0.021,1.473l0.021,1.516c0,0.168,0,0.336,0,0.336v0.211v0.295v0.379v0.379v0.463v0.506v0.547v0.547v0.631v0.631v0.674
		v0.674v0.717v0.715v0.715v0.758v0.758v0.717v0.758v0.715v0.715v0.717v0.674v0.672v0.633v0.631v0.59v0.504v0.506v0.463v0.422v0.336
		v0.295v0.252c0,0.168,0,0.252,0,0.252c0,0.043-0.021,1.77-0.021,1.77l-0.021,1.641l-0.062,1.6l-0.085,1.559l-0.104,1.473
		l-0.127,1.432l-0.168,1.346l-0.169,1.307l-0.21,1.262l-0.253,1.18l-0.252,1.178l-0.295,1.094l-0.315,1.053l-0.358,0.969
		l-0.379,0.969l-0.399,0.883l-0.442,0.885l-0.483,0.799l-0.484,0.758l-0.548,0.717l-0.567,0.674l-0.59,0.631l-0.632,0.59
		l-0.673,0.547l-0.694,0.504l-0.737,0.463l-0.778,0.422l-0.8,0.422l-0.842,0.336l-0.884,0.336l-0.905,0.295l-0.947,0.254
		l-0.989,0.209l-1.031,0.17l-1.073,0.168l-1.116,0.125l-1.136,0.084l-1.2,0.086l-1.242,0.041h-1.263c-0.189,0-0.336,0-0.336,0
		c-0.189,0-0.4,0-0.4,0h-0.231h-0.295h-0.295h-0.336h-0.337h-0.379h-0.379h-0.421h-0.4h-0.441h-0.442h-0.441h-0.442h-0.463h-0.442
		h-0.463h-0.442h-0.441h-0.421h-0.421h-0.4h-0.399h-0.358h-0.357h-0.315h-0.316h-0.273h-0.231h-0.231c-0.168,0-0.315,0-0.315,0
		C141.857,633.076,141.857,555.496,141.857,555.496z"/>
</g>
<g id="LWPOLYLINE_7_">
	
		<path fill="none" stroke="#000000" stroke-width="0.7087" stroke-linecap="round" stroke-linejoin="round" stroke-miterlimit="10" d="
		M129.776,644.273c0.168,0,0.357,0,0.357,0h0.253h0.315h0.379h0.442h0.505h0.526h0.589h0.632h0.652h0.694h0.736h0.737h0.778h0.779
		h0.8h0.8h0.8h0.82h0.8h0.8h0.779h0.757h0.758h0.716h0.694h0.674h0.61h0.589h0.548h0.484h0.441h0.379h0.315h0.274
		c0.189,0,0.294,0,0.294,0c0.042,0,1.326,0,1.326,0l1.263-0.041l1.221-0.043l1.2-0.043l1.179-0.084l1.157-0.084l1.137-0.084
		l1.095-0.127l1.073-0.125l1.052-0.168l1.032-0.17l1.01-0.168l0.989-0.211l0.947-0.209l0.947-0.254l0.904-0.252l0.885-0.252
		l0.884-0.295l0.842-0.295l0.8-0.336l0.8-0.295l0.778-0.379l0.758-0.338l0.737-0.379l0.694-0.42l0.694-0.422l0.652-0.42l0.652-0.422
		l0.61-0.463l0.61-0.504l0.59-0.465l0.547-0.504l0.548-0.547l0.505-0.549l0.505-0.547l0.463-0.588l0.463-0.59l0.442-0.59
		l0.421-0.631l0.4-0.631l0.315-0.506l0.315-0.547l0.295-0.59l0.295-0.59l0.273-0.59l0.273-0.631l0.253-0.674l0.252-0.672
		l0.253-0.674l0.231-0.717l0.231-0.758l0.211-0.758l0.21-0.799l0.189-0.842l0.189-0.842l0.189-0.842l0.168-0.885l0.169-0.926
		l0.168-0.969l0.147-0.967l0.147-0.969l0.126-1.053l0.127-1.053l0.104-1.094l0.127-1.094l0.104-1.137l0.085-1.18l0.084-1.221
		l0.084-1.221l0.063-1.262l0.084-1.307l0.042-1.346l0.063-1.348l0.042-1.389l0.021-1.432l0.042-1.473l0.021-1.475l0.021-1.516v-1.6
		v-1.6v-0.252v-0.379v-0.379l-0.021-0.463l-0.021-0.504l-0.021-0.549l-0.021-0.631l-0.021-0.631l-0.042-0.674l-0.042-0.715
		l-0.043-0.758l-0.042-0.801l-0.042-0.842l-0.062-0.842l-0.063-0.842l-0.063-0.885l-0.084-0.926l-0.084-0.926l-0.084-0.926
		l-0.105-0.969l-0.084-0.926l-0.105-0.969l-0.126-0.967l-0.127-0.969l-0.126-0.969l-0.126-0.967l-0.147-0.928l-0.147-0.967
		l-0.147-0.928l-0.168-0.883l-0.189-0.926l-0.169-0.842l-0.189-0.842l-0.21-0.842l-0.211-0.801l-0.21-0.758l-0.231-0.715
		l-0.231-0.674l-0.232-0.631l-0.252-0.633l-0.4-0.799l-0.399-0.842l-0.421-0.758l-0.442-0.758l-0.441-0.715l-0.464-0.717
		l-0.483-0.674l-0.484-0.631l-0.505-0.631l-0.505-0.633l-0.526-0.588l-0.548-0.547l-0.547-0.549l-0.568-0.504l-0.589-0.463
		l-0.61-0.506l-0.61-0.422l-0.61-0.42l-0.653-0.422l-0.652-0.379l-0.673-0.379l-0.674-0.336l-0.716-0.295l-0.716-0.295l-0.715-0.295
		l-0.758-0.252l-0.758-0.252l-0.758-0.211l-0.8-0.211l-0.8-0.168l-0.821-0.168l-0.842-0.168l-0.842-0.127l-0.862-0.084l-0.885-0.127
		l-0.904-0.041l-0.905-0.084l-0.947-0.043h-0.926h-0.969c-0.21,0-0.463,0-0.463,0h-0.357h-0.442h-0.526h-0.589h-0.674h-0.736h-0.8
		h-0.842h-0.905h-0.947h-0.989h-1.01h-1.031h-1.074h-1.073h-1.095h-1.094h-1.116h-1.094h-1.073h-1.074h-1.031h-1.01h-0.989h-0.947
		h-0.905h-0.842h-0.8h-0.736h-0.674h-0.589h-0.526h-0.442h-0.337h-0.273C129.776,544.299,129.776,644.273,129.776,644.273z"/>
</g>
<g id="LWPOLYLINE_8_">
	
		<path fill="none" stroke="#000000" stroke-width="0.7087" stroke-linecap="round" stroke-linejoin="round" stroke-miterlimit="10" d="
		M240.99,646h1.536l1.494-0.084l1.453-0.084l1.41-0.17l1.389-0.209l1.326-0.211l1.305-0.295l1.263-0.336l1.221-0.379l1.179-0.422
		l1.158-0.463l1.094-0.506l1.073-0.547l1.032-0.631l0.988-0.674l0.947-0.674l0.905-0.758l0.884-0.842l0.821-0.842l0.8-0.926
		l0.758-0.969l0.716-1.01l0.673-1.053l0.652-1.137l0.59-1.178l0.568-1.221l0.526-1.264l0.483-1.346l0.442-1.391l0.399-1.473
		l0.379-1.516l0.337-1.557l0.273-1.6l0.253-1.684l0.231-1.77l0.168-1.768l0.127-1.852l0.104-1.938l0.063-1.979l0.021-2.02
		c0-0.084,0-0.252,0-0.252v-0.295v-0.379v-0.506v-0.59v-0.672v-0.717v-0.842v-0.883v-0.969v-0.969v-1.094v-1.096v-1.137v-1.135
		v-1.221v-1.18v-1.221v-1.264v-1.221v-1.221v-1.178v-1.221v-1.137v-1.137v-1.094v-1.096v-0.967v-0.969v-0.885v-0.842v-0.715v-0.674
		v-0.59v-0.504v-0.379v-0.295c0-0.168,0-0.252,0-0.252l-0.021-1.475l-0.063-1.432l-0.104-1.389l-0.127-1.389l-0.168-1.348
		l-0.231-1.346l-0.253-1.264l-0.273-1.262l-0.337-1.223l-0.379-1.221l-0.399-1.135l-0.442-1.137l-0.483-1.096l-0.526-1.053
		l-0.568-1.01l-0.59-1.01l-0.652-0.926l-0.673-0.926l-0.716-0.885l-0.758-0.842l-0.8-0.801l-0.821-0.799l-0.884-0.715l-0.905-0.674
		l-0.947-0.674l-0.988-0.59l-1.032-0.59l-1.073-0.547l-1.094-0.463l-1.158-0.463l-1.179-0.42l-1.221-0.379l-1.263-0.338
		l-1.305-0.252l-1.326-0.252l-1.389-0.211l-1.41-0.168l-1.453-0.086l-1.494-0.084h-1.536h-1.536l-1.495,0.084l-1.452,0.086
		l-1.41,0.168l-1.389,0.211l-1.326,0.252l-1.305,0.252l-1.264,0.338l-1.221,0.379l-1.179,0.42l-1.136,0.463l-1.116,0.463
		l-1.073,0.547l-1.01,0.59l-1.011,0.59l-0.947,0.674l-0.904,0.674l-0.863,0.715l-0.842,0.799l-0.8,0.801l-0.758,0.842l-0.716,0.885
		l-0.674,0.926l-0.652,0.926l-0.589,1.01l-0.568,1.01l-0.526,1.053l-0.484,1.096l-0.441,1.137l-0.4,1.135l-0.379,1.221l-0.336,1.223
		l-0.274,1.262l-0.252,1.264l-0.211,1.346l-0.189,1.348l-0.126,1.389l-0.105,1.389l-0.062,1.432l-0.021,1.475
		c0,0.084,0,0.252,0,0.252v0.295v0.379v0.504v0.59v0.674v0.715v0.842v0.885v0.969v0.967v1.096v1.094v1.137v1.137v1.221v1.178v1.221
		v1.221v1.264v1.221v1.18v1.221v1.135v1.137v1.096v1.094v0.969v0.969v0.883v0.842v0.717v0.672v0.59v0.506v0.379v0.295
		c0,0.168,0,0.252,0,0.252l0.021,2.02l0.062,1.979l0.105,1.938l0.126,1.852l0.189,1.768l0.211,1.77l0.252,1.684l0.274,1.6
		l0.336,1.557l0.379,1.516l0.4,1.473l0.441,1.391l0.484,1.346l0.526,1.264l0.568,1.221l0.589,1.178l0.652,1.137l0.674,1.053
		l0.716,1.01l0.758,0.969l0.8,0.926l0.842,0.842l0.863,0.842l0.904,0.758l0.947,0.674l1.011,0.674l1.01,0.631l1.073,0.547
		l1.116,0.506l1.136,0.463l1.179,0.422l1.221,0.379l1.264,0.336l1.305,0.295l1.326,0.211l1.389,0.209l1.41,0.17l1.452,0.084
		l1.495,0.084H240.99z"/>
</g>
<g id="LWPOLYLINE_9_">
	
		<path fill="none" stroke="#000000" stroke-width="0.7087" stroke-linecap="round" stroke-linejoin="round" stroke-miterlimit="10" d="
		M240.99,635.645h-0.884l-0.885-0.043l-0.842-0.041l-0.82-0.084l-0.821-0.127l-0.778-0.127l-0.758-0.168l-0.736-0.211l-0.695-0.209
		l-0.694-0.254l-0.674-0.295l-0.652-0.293l-0.61-0.379l-0.61-0.379l-0.568-0.422l-0.547-0.463l-0.547-0.506l-0.506-0.504
		l-0.483-0.59l-0.464-0.59l-0.441-0.674l-0.421-0.672l-0.4-0.758l-0.379-0.758l-0.336-0.842l-0.337-0.842l-0.295-0.928l-0.295-0.967
		l-0.252-0.969l-0.231-1.094l-0.232-1.096l-0.188-1.137l-0.169-1.221l-0.147-1.262l-0.126-1.305l-0.084-1.348l-0.085-1.432
		l-0.062-1.473l-0.042-1.516v-1.6c0-0.043,0-0.252,0-0.252v-0.295v-0.379v-0.506v-0.59v-0.715v-0.758v-0.842v-0.926v-0.969v-1.01
		v-1.094v-1.137v-1.18v-1.178v-1.221v-1.264v-1.221v-1.262v-1.264v-1.264v-1.221v-1.262v-1.18v-1.178v-1.094v-1.096v-1.053v-0.967
		v-0.928v-0.842v-0.756v-0.674v-0.59v-0.506v-0.42v-0.295c0-0.168,0-0.252,0-0.252l0.021-1.516l0.084-1.432l0.105-1.348l0.169-1.305
		l0.21-1.262l0.253-1.18l0.295-1.094l0.336-1.053l0.358-0.969l0.379-0.926l0.441-0.885l0.442-0.799l0.484-0.758l0.483-0.715
		l0.526-0.674l0.548-0.59l0.547-0.59l0.568-0.504l0.589-0.463l0.59-0.463l0.61-0.379l0.61-0.379l0.61-0.338l0.61-0.295l0.61-0.252
		l0.61-0.252l0.61-0.211l0.589-0.168l0.59-0.17l0.568-0.125l0.568-0.084l0.547-0.127l0.526-0.041l0.505-0.086l0.484-0.041
		l0.463-0.043h0.442h0.399l0.379-0.041h0.337h0.337l0.379,0.041h0.399h0.442l0.463,0.043l0.484,0.041l0.505,0.086l0.526,0.041
		l0.547,0.127l0.568,0.084l0.568,0.125l0.589,0.17l0.61,0.168l0.59,0.211l0.61,0.252l0.61,0.252l0.61,0.295l0.61,0.338l0.61,0.379
		l0.61,0.379l0.589,0.463l0.59,0.463l0.568,0.504l0.547,0.59l0.548,0.59l0.525,0.674l0.506,0.715l0.463,0.758l0.463,0.799
		l0.421,0.885l0.379,0.926l0.357,0.969l0.337,1.053l0.295,1.094l0.252,1.18l0.211,1.262l0.168,1.305l0.105,1.348l0.084,1.432
		l0.021,1.516c0,0.084,0,0.252,0,0.252v0.295v0.42v0.506v0.59v0.674v0.756v0.842v0.928v0.967v1.053v1.096v1.094v1.178v1.18v1.262
		v1.221v1.264v1.264v1.262v1.221v1.264v1.221v1.178v1.18v1.137v1.094v1.01v0.969v0.926v0.842v0.758v0.715v0.59v0.506v0.379v0.295
		c0,0.209,0,0.252,0,0.252v1.6l-0.042,1.516l-0.063,1.473l-0.062,1.432l-0.105,1.348l-0.127,1.305l-0.146,1.262l-0.169,1.221
		l-0.189,1.137l-0.231,1.096l-0.231,1.094l-0.253,0.969l-0.294,0.967l-0.295,0.928l-0.337,0.842l-0.337,0.842l-0.379,0.758
		l-0.399,0.758l-0.421,0.672l-0.442,0.674l-0.463,0.59l-0.484,0.59l-0.505,0.504l-0.526,0.506l-0.568,0.463l-0.568,0.422
		l-0.61,0.379l-0.61,0.379l-0.652,0.293l-0.673,0.295l-0.674,0.254l-0.716,0.209l-0.736,0.211l-0.758,0.168l-0.779,0.127
		l-0.82,0.127l-0.821,0.084l-0.842,0.041l-0.862,0.043H240.99z"/>
</g>
<g id="LWPOLYLINE_10_">
	
		<path fill="none" stroke="#000000" stroke-width="0.7087" stroke-linecap="round" stroke-linejoin="round" stroke-miterlimit="10" d="
		M306.511,644.273c0.126,0,0.252,0,0.252,0c0.169,0,0.379,0,0.379,0h0.253h0.295h0.336h0.379h0.379h0.421h0.463h0.464h0.505h0.505
		h0.548h0.505h0.547h0.547h0.548h0.547h0.548h0.547h0.547h0.506h0.505h0.505h0.463h0.463h0.421h0.379h0.379h0.337h0.295h0.253h0.21
		c0.211,0,0.337,0,0.337,0c0.126-0.168,0.253-0.631,0.253-0.631l0.168-0.758l0.21-1.053l0.295-1.305l0.379-1.516l0.379-1.811
		l0.463-1.979l0.506-2.188l0.547-2.357l0.547-2.525l0.632-2.695l0.631-2.777l0.674-2.947l0.674-2.988l0.716-3.115l0.715-3.158
		l0.716-3.197l0.758-3.242l0.758-3.283l0.716-3.283l0.758-3.242l0.715-3.199l0.716-3.156l0.716-3.115l0.674-2.988l0.673-2.947
		l0.632-2.777l0.631-2.695l0.59-2.525l0.505-2.357l0.505-2.189l0.464-1.979l0.421-1.809l0.336-1.516l0.295-1.305l0.253-1.053
		l0.168-0.758l0.084-0.463c0.085,0,0.169,0.463,0.169,0.463l0.168,0.758l0.253,1.053l0.295,1.305l0.336,1.516l0.379,1.809
		l0.421,1.979l0.464,2.189l0.547,2.357l0.547,2.525l0.59,2.695l0.589,2.777l0.632,2.947l0.674,2.988l0.673,3.115l0.674,3.156
		l0.716,3.199l0.715,3.242l0.674,3.283l0.716,3.283l0.716,3.242l0.715,3.197l0.674,3.158l0.674,3.115l0.674,2.988l0.631,2.947
		l0.59,2.777l0.589,2.695l0.547,2.525l0.548,2.357l0.463,2.188l0.421,1.979l0.379,1.811l0.337,1.516l0.294,1.305l0.253,1.053
		l0.126,0.758l0.127,0.463c0.126,0.168,0.252,0.168,0.252,0.168c0.211,0,0.421,0,0.421,0h0.253h0.295h0.337h0.379h0.378h0.422h0.463
		h0.463h0.505h0.505h0.506h0.547h0.547h0.548h0.547h0.547h0.548h0.547h0.505h0.548h0.505h0.505h0.463h0.422h0.463h0.379h0.379h0.336
		h0.295h0.253h0.21c0.169,0,0.295,0,0.295,0c0.168-0.168,0.295-0.715,0.295-0.715l0.252-0.885l0.295-1.178l0.379-1.516l0.463-1.768
		l0.548-2.064l0.589-2.271l0.632-2.484l0.715-2.736l0.758-2.904l0.8-3.072l0.8-3.199l0.884-3.367l0.885-3.453l0.926-3.578
		l0.968-3.619l0.927-3.705l0.968-3.746l0.969-3.746l0.968-3.746l0.968-3.705l0.969-3.705l0.926-3.619l0.926-3.578l0.885-3.451
		l0.884-3.369l0.842-3.199l0.758-3.072l0.758-2.904l0.715-2.736l0.632-2.484l0.59-2.314l0.547-2.02l0.463-1.77l0.379-1.514
		l0.295-1.18l0.252-0.885l0.127-0.547c-0.169-0.168-0.295-0.168-0.295-0.168c-0.211,0-0.421,0-0.421,0h-0.295h-0.295h-0.294h-0.379
		h-0.379h-0.379h-0.421h-0.421h-0.463h-0.464h-0.463h-0.463h-0.505h-0.463h-0.506h-0.463h-0.505h-0.463h-0.463h-0.421h-0.463h-0.422
		h-0.378h-0.379h-0.337h-0.337h-0.295h-0.252h-0.253c-0.169,0-0.337,0-0.337,0c-0.21,0-0.253,0.127-0.253,0.127l-0.084,0.463
		l-0.168,0.758l-0.253,1.053l-0.295,1.305l-0.379,1.516l-0.378,1.768l-0.464,1.979l-0.505,2.146l-0.505,2.357l-0.59,2.482
		l-0.631,2.652l-0.632,2.779l-0.673,2.904l-0.674,2.988l-0.716,3.031l-0.716,3.156l-0.715,3.158l-0.758,3.24l-0.716,3.242
		l-0.758,3.199l-0.758,3.24l-0.716,3.158l-0.715,3.156l-0.716,3.072l-0.674,2.99l-0.674,2.861l-0.631,2.779l-0.632,2.652
		l-0.547,2.525l-0.547,2.314l-0.506,2.189l-0.463,1.936l-0.379,1.768l-0.379,1.559l-0.295,1.262l-0.21,1.053l-0.168,0.758
		l-0.127,0.463c-0.084,0-0.168-0.463-0.168-0.463l-0.126-0.758l-0.211-1.053l-0.295-1.262l-0.294-1.559l-0.337-1.768l-0.421-1.936
		l-0.421-2.189l-0.464-2.314l-0.505-2.525l-0.505-2.652l-0.59-2.779l-0.547-2.861l-0.632-2.99l-0.589-3.072l-0.632-3.156
		l-0.631-3.158l-0.632-3.24l-0.673-3.199l-0.632-3.242l-0.632-3.24l-0.631-3.158l-0.632-3.156l-0.631-3.031l-0.59-2.988
		l-0.589-2.904l-0.548-2.779l-0.547-2.652l-0.505-2.482l-0.463-2.357l-0.421-2.146l-0.379-1.979l-0.379-1.768l-0.295-1.516
		l-0.253-1.305l-0.21-1.053l-0.169-0.758l-0.084-0.463c-0.126-0.127-0.295-0.127-0.295-0.127c-0.168,0-0.421,0-0.421,0h-0.294
		h-0.337h-0.379h-0.421h-0.421h-0.505h-0.506h-0.505h-0.547h-0.59h-0.547h-0.632h-0.589h-0.632h-0.589h-0.632h-0.589h-0.632h-0.589
		h-0.59h-0.547h-0.548h-0.547h-0.505h-0.463h-0.421h-0.421h-0.379h-0.337h-0.295h-0.253c-0.168,0-0.336,0-0.336,0
		c-0.169,0.127-0.253,0.59-0.253,0.59l-0.168,0.758l-0.253,1.053l-0.295,1.305l-0.337,1.516l-0.421,1.768l-0.463,1.979l-0.463,2.146
		l-0.547,2.357l-0.59,2.482l-0.589,2.652l-0.674,2.779l-0.632,2.904l-0.715,2.988l-0.674,3.031l-0.758,3.156l-0.716,3.158
		l-0.715,3.24l-0.758,3.242l-0.758,3.199l-0.716,3.24l-0.758,3.158l-0.716,3.156l-0.715,3.072l-0.674,2.99l-0.674,2.861
		l-0.631,2.779l-0.59,2.652l-0.589,2.525l-0.548,2.314l-0.505,2.189l-0.421,1.936l-0.421,1.768l-0.337,1.559l-0.295,1.262
		l-0.252,1.053l-0.169,0.758l-0.126,0.463c-0.042,0-0.168-0.463-0.168-0.463l-0.169-0.758l-0.21-1.053l-0.253-1.262l-0.337-1.559
		l-0.379-1.768l-0.379-1.936l-0.463-2.189l-0.505-2.314l-0.505-2.525l-0.59-2.652l-0.547-2.779l-0.632-2.861l-0.631-2.99
		l-0.632-3.072l-0.674-3.156l-0.673-3.158l-0.674-3.24l-0.674-3.199l-0.673-3.242l-0.674-3.24l-0.674-3.158l-0.631-3.156
		l-0.674-3.031l-0.632-2.988l-0.589-2.904l-0.589-2.779l-0.548-2.652l-0.547-2.482l-0.463-2.357l-0.463-2.146l-0.422-1.979
		l-0.378-1.768l-0.295-1.516l-0.295-1.305l-0.21-1.053l-0.169-0.758l-0.084-0.463c-0.126-0.127-0.253-0.127-0.253-0.127
		c-0.126,0-0.337,0-0.337,0h-0.21h-0.295h-0.295h-0.294h-0.379h-0.379h-0.379h-0.421h-0.421h-0.463h-0.464h-0.463h-0.463h-0.505
		h-0.463h-0.506h-0.463h-0.505h-0.463h-0.463h-0.421h-0.463h-0.421h-0.379h-0.379h-0.358h-0.315h-0.295h-0.273h-0.231
		c-0.189,0-0.337,0-0.337,0C283.232,544.299,306.511,644.273,306.511,644.273z"/>
</g>
<g id="LWPOLYLINE_11_">
	
		<path fill="none" stroke="#000000" stroke-width="0.7087" stroke-linecap="round" stroke-linejoin="round" stroke-miterlimit="10" d="
		M469.459,544.299c0,0.127,0,0.59,0,0.59v0.758v1.01v1.305v1.516v1.727v1.936v2.146v2.316v2.482v2.609v2.779v2.861v2.947v3.031
		v3.115v3.156v3.158v3.199v3.199v3.199v3.156v3.072v3.074v2.945v2.863v2.736v2.609v2.484v2.314v2.146v1.979v1.727v1.516v1.262v1.053
		v0.717v0.463c-0.085,0-0.295-0.463-0.295-0.463l-0.337-0.717l-0.421-1.053l-0.589-1.262l-0.674-1.516l-0.758-1.727l-0.884-1.979
		l-0.969-2.146l-1.01-2.314l-1.095-2.484l-1.179-2.609l-1.221-2.736l-1.263-2.863l-1.305-2.945l-1.348-3.074l-1.389-3.072
		l-1.39-3.156l-1.431-3.199l-1.432-3.199l-1.431-3.199l-1.39-3.158l-1.389-3.156l-1.39-3.115l-1.347-3.031l-1.305-2.947
		l-1.305-2.861l-1.221-2.779l-1.137-2.609l-1.137-2.482l-1.011-2.316l-0.968-2.146l-0.842-1.936l-0.8-1.727l-0.674-1.516
		l-0.547-1.305l-0.463-1.01l-0.337-0.758l-0.211-0.463c-0.168-0.127-0.337-0.127-0.337-0.127c-0.21,0-0.463,0-0.463,0h-0.294h-0.379
		h-0.379h-0.421h-0.464h-0.505h-0.547h-0.548h-0.589h-0.589h-0.632h-0.59h-0.673h-0.632h-0.631h-0.674h-0.632h-0.631h-0.632h-0.589
		h-0.632h-0.547h-0.59h-0.505h-0.505h-0.463h-0.421h-0.421h-0.337h-0.295h-0.295c-0.168,0-0.337,0-0.337,0
		c-0.126,0.168-0.126,0.715-0.126,0.715v0.885v1.18v1.514v1.77v2.02v2.314v2.484v2.736v2.904v3.072v3.199v3.369v3.451v3.578v3.619
		v3.705v3.705v3.746v3.746v3.746v3.705v3.619v3.578v3.453v3.367v3.199v3.072v2.904v2.736v2.484v2.271v2.064v1.768v1.516v1.178v0.885
		v0.547c0.169,0.168,0.295,0.168,0.295,0.168c0.168,0,0.379,0,0.379,0h0.252h0.253h0.253h0.337h0.294h0.379h0.337h0.379h0.379h0.421
		h0.379h0.421h0.421h0.421h0.421h0.421h0.421h0.421h0.379h0.379h0.379h0.379h0.337h0.337h0.294h0.295h0.253h0.21
		c0.211,0,0.379,0,0.379,0c0.127,0,0.211,0,0.211,0c0.084-0.168,0.084-0.631,0.084-0.631v-0.758v-1.01v-1.307v-1.514v-1.77v-1.979
		v-2.146v-2.357v-2.482v-2.652v-2.779v-2.904v-2.988v-3.072v-3.115v-3.199v-3.199v-3.242v-3.199v-3.24v-3.158v-3.156v-3.072v-2.99
		v-2.861v-2.779v-2.65v-2.527v-2.314v-2.189v-1.979v-1.725v-1.559v-1.262v-1.053v-0.758v-0.463c0.084,0,0.295,0.463,0.295,0.463
		l0.337,0.758l0.463,1.053l0.589,1.262l0.674,1.559l0.8,1.725l0.884,1.979l0.969,2.189l1.052,2.314l1.137,2.527l1.179,2.65
		l1.263,2.779l1.305,2.861l1.348,2.99l1.389,3.072l1.39,3.156l1.431,3.158l1.432,3.24l1.473,3.199l1.474,3.242l1.432,3.199
		l1.431,3.199l1.39,3.115l1.389,3.072l1.347,2.988l1.306,2.904l1.263,2.779l1.179,2.652l1.137,2.482l1.052,2.357l0.969,2.146
		l0.884,1.979l0.8,1.77l0.674,1.514l0.589,1.307l0.463,1.01l0.337,0.758l0.211,0.463c0.21,0.168,0.336,0.168,0.336,0.168
		c0.211,0,0.464,0,0.464,0h0.252h0.337h0.379h0.421h0.463h0.463h0.506h0.505h0.547h0.59h0.589h0.59h0.589h0.632h0.589h0.632h0.631
		h0.59h0.589h0.59h0.547h0.547h0.548h0.505h0.463h0.463h0.379h0.379h0.337h0.295h0.252c0.211,0,0.337,0,0.337,0
		c0.127-0.168,0.127-0.715,0.127-0.715v-0.885v-1.178v-1.516v-1.768v-2.064v-2.271v-2.484v-2.736v-2.904v-3.072v-3.199v-3.367
		v-3.453v-3.578v-3.619v-3.705v-3.746v-3.746v-3.746v-3.705v-3.705v-3.619v-3.578v-3.451v-3.369v-3.199v-3.072v-2.904v-2.736v-2.484
		v-2.314v-2.02v-1.77v-1.514v-1.18v-0.885v-0.547C480.656,544.299,469.459,544.299,469.459,544.299z"/>
</g>
<g id="LINE">
	
		<line fill="none" stroke="#000000" stroke-width="0.7087" stroke-linecap="round" stroke-linejoin="round" stroke-miterlimit="10" x1="90.123" y1="146" x2="90.123" y2="351.168"/>
</g>
<g id="LINE_1_">
	
		<line fill="none" stroke="#000000" stroke-width="0.7087" stroke-linecap="round" stroke-linejoin="round" stroke-miterlimit="10" x1="90.123" y1="351.168" x2="411.705" y2="351.168"/>
</g>
<g id="LINE_2_">
	
		<line fill="none" stroke="#000000" stroke-width="0.7087" stroke-linecap="round" stroke-linejoin="round" stroke-miterlimit="10" x1="411.705" y1="351.168" x2="522.035" y2="240.818"/>
</g>
<g id="LINE_3_">
	
		<line fill="none" stroke="#000000" stroke-width="0.7087" stroke-linecap="round" stroke-linejoin="round" stroke-miterlimit="10" x1="522.877" y1="239.955" x2="522.877" y2="146"/>
</g>
<g id="LINE_4_">
	
		<line fill="none" stroke="#000000" stroke-width="0.7087" stroke-linecap="round" stroke-linejoin="round" stroke-miterlimit="10" x1="522.877" y1="146" x2="90.123" y2="146"/>
</g>
<g id="LINE_5_">
	
		<line fill="none" stroke="#000000" stroke-width="0.7087" stroke-linecap="round" stroke-linejoin="round" stroke-miterlimit="10" x1="115.127" y1="326.164" x2="115.127" y2="170.982"/>
</g>
<g id="LINE_6_">
	
		<line fill="none" stroke="#000000" stroke-width="0.7087" stroke-linecap="round" stroke-linejoin="round" stroke-miterlimit="10" x1="115.127" y1="170.982" x2="497.915" y2="170.982"/>
</g>
<g id="LINE_7_">
	
		<line fill="none" stroke="#000000" stroke-width="0.7087" stroke-linecap="round" stroke-linejoin="round" stroke-miterlimit="10" x1="497.915" y1="170.982" x2="497.915" y2="227.895"/>
</g>
<g id="LINE_8_">
	
		<line fill="none" stroke="#000000" stroke-width="0.7087" stroke-linecap="round" stroke-linejoin="round" stroke-miterlimit="10" x1="497.915" y1="227.895" x2="397.897" y2="227.895"/>
</g>
<g id="LINE_9_">
	
		<line fill="none" stroke="#000000" stroke-width="0.7087" stroke-linecap="round" stroke-linejoin="round" stroke-miterlimit="10" x1="397.897" y1="227.895" x2="397.897" y2="326.164"/>
</g>
<g id="LINE_10_">
	
		<line fill="none" stroke="#000000" stroke-width="0.7087" stroke-linecap="round" stroke-linejoin="round" stroke-miterlimit="10" x1="397.897" y1="326.164" x2="115.127" y2="326.164"/>
</g>
<g id="LINE_11_">
	
		<line fill="none" stroke="#000000" stroke-width="0.7087" stroke-linecap="round" stroke-linejoin="round" stroke-miterlimit="10" x1="482.382" y1="191.672" x2="482.382" y2="208.068"/>
</g>
<g id="LINE_12_">
	
		<line fill="none" stroke="#000000" stroke-width="0.7087" stroke-linecap="round" stroke-linejoin="round" stroke-miterlimit="10" x1="482.382" y1="208.068" x2="127.188" y2="208.068"/>
</g>
<g id="LINE_13_">
	
		<line fill="none" stroke="#000000" stroke-width="0.7087" stroke-linecap="round" stroke-linejoin="round" stroke-miterlimit="10" x1="127.188" y1="208.068" x2="127.188" y2="191.672"/>
</g>
<g id="LINE_14_">
	
		<line fill="none" stroke="#000000" stroke-width="0.7087" stroke-linecap="round" stroke-linejoin="round" stroke-miterlimit="10" x1="127.188" y1="191.672" x2="482.382" y2="191.672"/>
</g>
<g id="LINE_15_">
	
		<line fill="none" stroke="#000000" stroke-width="0.7087" stroke-linecap="round" stroke-linejoin="round" stroke-miterlimit="10" x1="381.523" y1="238.229" x2="127.188" y2="238.229"/>
</g>
<g id="LINE_16_">
	
		<line fill="none" stroke="#000000" stroke-width="0.7087" stroke-linecap="round" stroke-linejoin="round" stroke-miterlimit="10" x1="127.188" y1="238.229" x2="127.188" y2="254.625"/>
</g>
<g id="LINE_17_">
	
		<line fill="none" stroke="#000000" stroke-width="0.7087" stroke-linecap="round" stroke-linejoin="round" stroke-miterlimit="10" x1="127.188" y1="254.625" x2="381.523" y2="254.625"/>
</g>
<g id="LINE_18_">
	
		<line fill="none" stroke="#000000" stroke-width="0.7087" stroke-linecap="round" stroke-linejoin="round" stroke-miterlimit="10" x1="381.523" y1="254.625" x2="381.523" y2="238.229"/>
</g>
<g id="LINE_19_">
	
		<line fill="none" stroke="#000000" stroke-width="0.7087" stroke-linecap="round" stroke-linejoin="round" stroke-miterlimit="10" x1="127.188" y1="285.648" x2="127.188" y2="300.297"/>
</g>
<g id="LINE_20_">
	
		<line fill="none" stroke="#000000" stroke-width="0.7087" stroke-linecap="round" stroke-linejoin="round" stroke-miterlimit="10" x1="127.188" y1="300.297" x2="381.523" y2="300.297"/>
</g>
<g id="LINE_21_">
	
		<line fill="none" stroke="#000000" stroke-width="0.7087" stroke-linecap="round" stroke-linejoin="round" stroke-miterlimit="10" x1="381.523" y1="300.297" x2="381.523" y2="285.648"/>
</g>
<g id="LINE_22_">
	
		<line fill="none" stroke="#000000" stroke-width="0.7087" stroke-linecap="round" stroke-linejoin="round" stroke-miterlimit="10" x1="381.523" y1="285.648" x2="127.188" y2="285.648"/>
</g>
<g id="LINE_23_">
	
		<line fill="none" stroke="#000000" stroke-width="0.7087" stroke-linecap="round" stroke-linejoin="round" stroke-miterlimit="10" x1="475.479" y1="253.762" x2="422.902" y2="253.762"/>
</g>
<g id="LINE_24_">
	
		<line fill="none" stroke="#000000" stroke-width="0.7087" stroke-linecap="round" stroke-linejoin="round" stroke-miterlimit="10" x1="422.902" y1="253.762" x2="422.902" y2="305.475"/>
</g>
<g id="LINE_25_">
	
		<line fill="none" stroke="#000000" stroke-width="0.7087" stroke-linecap="round" stroke-linejoin="round" stroke-miterlimit="10" x1="422.902" y1="305.475" x2="475.479" y2="253.762"/>
</g>
</svg>
