<?xml version="1.0" encoding="utf-8"?>
<!-- Generator: Adobe Illustrator 16.0.1, SVG Export Plug-In . SVG Version: 6.00 Build 0)  -->
<!DOCTYPE svg PUBLIC "-//W3C//DTD SVG 1.0//EN" "http://www.w3.org/TR/2001/REC-SVG-20010904/DTD/svg10.dtd">
<svg version="1.0" id="_x31_" xmlns="http://www.w3.org/2000/svg" xmlns:xlink="http://www.w3.org/1999/xlink" x="0px" y="0px"
	 width="612px" height="792px" viewBox="0 0 612 792" enable-background="new 0 0 612 792" xml:space="preserve">
<g id="LWPOLYLINE">
	
		<polygon fill="none" stroke="#000000" stroke-width="0.7087" stroke-linecap="round" stroke-linejoin="round" stroke-miterlimit="10" points="
		144.438,395.5 144.496,388.246 144.668,380.992 145.016,373.738 145.418,366.539 145.992,359.344 146.742,352.145 147.547,345.062 
		148.586,338.039 149.734,331.016 151.059,324.105 152.613,317.312 154.285,310.574 156.125,303.953 158.141,297.449 
		160.387,291.055 162.805,284.84 165.398,278.734 168.219,272.746 171.27,266.988 174.492,261.348 178.008,255.934 181.691,250.695 
		185.605,245.629 189.809,240.793 194.184,236.184 198.848,231.809 203.742,227.664 208.926,223.75 214.336,220.121 
		220.094,216.723 226.023,213.672 232.301,210.852 238.863,208.316 245.66,206.074 252.797,204.23 260.227,202.617 267.941,201.41 
		276.004,200.488 284.352,199.969 293.047,199.738 299.668,199.91 306.23,200.316 312.562,201.004 318.781,201.984 324.887,203.25 
		330.875,204.75 336.746,206.531 342.391,208.605 347.918,210.91 353.328,213.441 358.512,216.32 363.578,219.371 368.527,222.711 
		373.363,226.281 377.973,230.082 382.348,234.172 386.723,238.488 390.754,243.039 394.785,247.816 398.586,252.824 
		402.152,258.066 405.609,263.535 408.949,269.234 412.059,275.164 415.051,281.27 417.816,287.66 420.348,294.223 422.766,300.961 
		424.953,307.984 427.027,315.18 428.871,322.551 430.48,330.152 431.98,337.98 433.246,345.926 434.398,354.16 435.316,362.508 
		436.008,371.09 436.469,379.84 436.816,388.766 436.93,397.863 436.816,405.289 436.586,412.66 436.238,420.027 435.777,427.34 
		435.203,434.598 434.398,441.793 433.359,448.934 432.324,455.957 431.059,462.98 429.559,469.891 427.949,476.684 
		426.223,483.363 424.262,489.812 422.074,496.262 419.773,502.594 417.238,508.699 414.477,514.688 411.48,520.559 
		408.371,526.203 405.031,531.73 401.461,537.027 397.777,542.094 393.746,547.043 389.488,551.652 385.109,556.141 
		380.391,560.402 375.438,564.434 370.371,568.234 364.957,571.688 359.316,574.91 353.445,577.906 347.227,580.668 
		340.777,583.086 334.098,585.16 327.188,587.004 319.934,588.5 312.449,589.652 304.734,590.574 296.672,591.035 288.324,591.266 
		279.977,591.035 271.973,590.574 264.199,589.652 256.773,588.5 249.633,587.004 242.781,585.16 236.215,583.086 229.883,580.668 
		223.836,577.906 218.078,574.91 212.551,571.688 207.312,568.117 202.305,564.316 197.582,560.289 193.035,556.027 
		188.773,551.535 184.742,546.812 180.887,541.863 177.316,536.797 173.918,531.383 170.75,525.855 167.816,520.098 
		165.051,514.227 162.52,508.238 160.098,502.02 157.969,495.688 155.953,489.121 154.113,482.559 152.5,475.766 151.004,468.855 
		149.68,461.832 148.527,454.805 147.547,447.609 146.684,440.355 145.992,433.043 145.418,425.613 145.016,418.188 
		144.668,410.645 144.496,403.102 	"/>
</g>
<g id="LWPOLYLINE_1_">
	
		<path fill="none" stroke="#000000" stroke-width="0.7087" stroke-linecap="round" stroke-linejoin="round" stroke-miterlimit="10" d="
		M540.684,584.125c-0.574,0-1.035,0-1.035,0c-0.461,0-1.152,0-1.152,0h-0.691H537h-0.922h-0.922h-1.035h-1.152h-1.035h-1.27h-1.148
		h-1.27h-1.379h-1.27h-1.266h-1.383h-1.266h-1.383h-1.266h-1.266h-1.266h-1.27h-1.152h-1.148h-1.152h-0.922h-1.035h-0.922h-0.691
		h-0.805h-0.578c-0.574,0-0.922,0-0.922,0c-0.574,0-3.914,0-3.914,0l-3.34,0.113h-3.109l-3.109,0.117h-3.109l-2.992,0.113
		l-2.879,0.117l-2.879,0.113l-2.766,0.117l-2.762,0.113l-2.648,0.23l-2.648,0.117l-2.535,0.23l-2.418,0.227l-2.418,0.23
		l-2.418,0.117l-2.305,0.23l-2.301,0.344l-2.188,0.23l-2.074,0.23l-2.188,0.23l-1.957,0.348l-2.074,0.23l-1.957,0.344l-1.844,0.23
		l-1.84,0.344l-1.844,0.348l-1.727,0.344l-1.727,0.23l-1.613,0.348l-1.613,0.344l-1.609,0.348l-1.5,0.344l-1.496,0.344l-1.383,0.348
		l-1.496,0.344l-1.383,0.348l-1.266,0.344l-1.266,0.348l-1.266,0.344l6.215-4.953l5.875-5.066l5.641-5.297l5.414-5.18l5.066-5.414
		l4.836-5.41l4.492-5.527l4.375-5.527l4.031-5.645l3.801-5.641l3.684-5.645l3.34-5.641l3.223-5.758l2.879-5.758l2.766-5.758
		l2.531-5.758l2.418-5.758l2.191-5.645l1.957-5.758l1.84-5.641l1.73-5.645l1.496-5.641l1.496-5.527l1.152-5.527l1.152-5.414
		l1.035-5.355l0.922-5.238l0.691-5.238l0.691-5.066l0.574-5.012l0.461-4.895l0.461-4.777l0.344-4.723l0.23-4.488l0.23-4.434
		l0.117-4.262l0.113-4.086l0.117-3.977v-3.797v-3.629l-0.117-8.52l-0.23-8.523l-0.461-8.578l-0.691-8.637l-0.918-8.578l-1.152-8.582
		l-1.27-8.52l-1.609-8.523l-1.727-8.461l-2.074-8.406l-2.305-8.293l-2.418-8.234l-2.879-8.117l-2.992-8.004l-3.227-7.887L480,252.48
		l-3.918-7.543l-4.145-7.371l-4.375-7.195l-4.723-7.023l-5.066-6.797l-5.297-6.562l-5.645-6.332l-5.871-6.047l-6.332-5.816
		l-6.566-5.527l-7.023-5.238l-7.254-4.953l-7.602-4.605l-7.945-4.262l-8.406-3.973l-8.637-3.57l-9.098-3.223l-9.441-2.82
		l-9.902-2.418l-10.137-2.016l-10.594-1.613l-11.055-1.152l-11.398-0.691l-11.805-0.23l-11.516,0.23l-11.227,0.633l-10.883,1.039
		l-10.535,1.438l-10.25,1.844l-9.961,2.188l-9.613,2.59l-9.328,2.938l-9.039,3.34l-8.695,3.684l-8.406,4.031l-8.117,4.32
		l-7.773,4.719l-7.484,5.012l-7.258,5.297l-6.852,5.641l-6.621,5.875l-6.332,6.215l-5.988,6.508l-5.699,6.738l-5.414,7.082
		l-5.18,7.254l-4.84,7.543l-4.547,7.773l-4.262,8l-3.973,8.234l-3.742,8.465l-3.395,8.695l-3.168,8.867l-2.82,9.039l-2.594,9.211
		l-2.301,9.441L77.938,329l-1.785,9.73l-1.441,9.902l-1.207,10.078l-0.98,10.191l-0.633,10.305l-0.402,10.48l-0.172,10.535
		l0.113,9.672l0.348,9.676l0.516,9.555l0.75,9.5l0.98,9.387l1.148,9.328l1.441,9.098l1.668,9.098l1.957,8.98l2.133,8.75l2.477,8.637
		l2.648,8.523l2.992,8.289l3.227,8.176l3.512,7.949l3.797,7.715l4.031,7.598l4.375,7.371l4.723,7.141l4.953,6.793l5.297,6.68
		l5.586,6.449l5.93,6.102l6.219,5.875l6.562,5.527l6.965,5.297l7.199,4.949l7.602,4.723l8,4.375l8.293,3.914l8.695,3.688
		l9.039,3.453l9.383,2.879l9.789,2.648l10.191,2.305l10.535,1.84l11,1.383l11.34,1.039l11.746,0.688l12.207,0.23h1.785h1.785h1.785
		l1.785-0.113h1.785h1.844l1.84-0.117h1.785l1.844-0.113l1.84-0.117h1.844l1.957-0.113l1.844-0.117l1.844-0.113l1.957-0.113
		l1.84-0.117l1.961-0.113l1.957-0.117l1.957-0.113l1.844-0.117l1.957-0.113l1.957-0.117l1.957-0.23l2.074-0.113l1.957-0.117
		l1.957-0.113l2.074-0.23l1.957-0.117l2.07-0.23l1.961-0.113l2.07-0.117l2.074-0.23l2.07-0.113l2.074-0.23l2.074-0.113l2.07-0.23
		l2.074-0.117l2.074-0.23l2.07-0.23l2.188-0.113l2.074-0.23l2.188-0.117l2.074-0.23l2.188-0.113l2.188-0.23l2.188-0.117l2.188-0.23
		l2.074-0.113l2.301-0.23l2.191-0.113l2.188-0.23l2.188-0.117l2.188-0.113l2.188-0.23l2.305-0.117l2.188-0.113l2.301-0.23
		l2.188-0.117l2.305-0.113l2.188-0.117l2.305-0.113l2.188-0.117l2.301-0.23l2.305-0.113h2.188l2.305-0.117l2.301-0.113l2.305-0.117
		l2.301-0.113l2.305-0.117h2.188l2.305-0.113h2.301l2.305-0.113h2.301h2.305l2.305-0.117h2.301h2.305h2.301c0.117,0,0.578,0,0.578,0
		h0.691h1.035h1.266h1.383h1.727h1.957h2.074h2.188h2.418h2.535h2.648h2.762h2.879h2.879h2.996h3.109h2.992h3.109h3.109h3.109h2.992
		h2.996h2.992h2.879h2.766h2.648h2.531h2.422h2.188h2.07h1.957h1.613h1.496h1.27h0.918h0.809c0.344,0,0.574,0,0.574,0V584.125z"/>
</g>
</svg>
