<?xml version="1.0" encoding="utf-8"?>
<!-- Generator: Adobe Illustrator 16.0.1, SVG Export Plug-In . SVG Version: 6.00 Build 0)  -->
<!DOCTYPE svg PUBLIC "-//W3C//DTD SVG 1.0//EN" "http://www.w3.org/TR/2001/REC-SVG-20010904/DTD/svg10.dtd">
<svg version="1.0" id="_x31_" xmlns="http://www.w3.org/2000/svg" xmlns:xlink="http://www.w3.org/1999/xlink" x="0px" y="0px"
	 width="612px" height="792px" viewBox="0 0 612 792" enable-background="new 0 0 612 792" xml:space="preserve">
<g id="LWPOLYLINE">
	
		<path fill="none" stroke="#000000" stroke-width="0.7087" stroke-linecap="round" stroke-linejoin="round" stroke-miterlimit="10" d="
		M178.09,595.5c0.479,0,1.867,0,1.867,0h2.25h3.062h3.879h4.547h5.266h5.84h6.463h6.988h7.42h7.898h8.281h8.617h8.855h9.191h9.287
		h9.479h9.574h9.668h9.67h9.574h9.479h9.287h9.191h8.902h8.617h8.234h7.85h7.469h6.988h6.414h5.936h5.17h4.596h3.83h3.064h2.297
		h1.34c0.479-0.383,0.479-0.766,0.479-0.766v-0.574v-0.766v-0.859v-1.055v-1.055v-1.242v-1.34v-1.438v-1.531v-1.531v-1.629v-1.723
		v-1.723v-1.82v-1.82v-1.816v-1.82v-1.82v-1.816v-1.82v-1.82v-1.723v-1.723v-1.629v-1.531v-1.531v-1.438v-1.34v-1.242v-1.148v-0.961
		v-0.859v-0.766v-0.574c0-0.383,0-0.672,0-0.672c-0.287-0.094-1.436-0.094-1.436-0.094h-1.723h-2.49h-2.967h-3.639h-4.117h-4.596
		h-5.074h-5.457h-5.84h-6.223h-6.51h-6.799h-6.988h-7.18H356.5h-7.467h-7.469h-7.562h-7.564h-7.562h-7.469h-7.275h-7.275h-6.99
		h-6.701h-6.51h-6.225h-5.84h-5.553h-5.025h-4.645h-4.117h-3.59h-3.016h-2.393h-1.771h-1.102c-0.383-0.289-0.383-0.957-0.383-0.957
		v-1.152v-1.531v-2.008v-2.301v-2.68v-3.062v-3.258v-3.539v-3.832v-4.02v-4.309v-4.402v-4.5v-4.691v-4.789v-4.883v-4.883v-4.883
		v-4.977v-4.883v-4.789v-4.785v-4.691v-4.598v-4.402v-4.211v-4.023v-3.828v-3.543v-3.305v-3.016v-2.68v-2.297v-2.012v-1.531v-1.148
		v-0.719c0.336-0.238,1.34-0.238,1.34-0.238h1.676h2.25h2.824h3.352h3.83h4.307h4.74h5.074h5.457h5.84h6.031h6.318h6.512h6.701
		h6.893h6.895h6.988h7.084h7.086h6.988h6.99h6.797h6.701h6.51h6.32h6.031h5.84h5.457h5.074h4.787h4.309h3.83h3.35h2.777h2.297h1.629
		h0.957c0.383-0.383,0.383-0.812,0.383-0.812v-0.578v-0.715v-0.91v-1.008v-1.098v-1.246v-1.293v-1.438V404.5v-1.578v-1.629v-1.676
		v-1.77v-1.773v-1.816v-1.82v-1.82v-1.863v-1.82v-1.82v-1.77v-1.723v-1.727v-1.625v-1.582v-1.531v-1.387v-1.34v-1.246v-1.102v-1.004
		v-0.863v-0.766v-0.574c0-0.43,0-0.668,0-0.668c-0.383-0.098-1.34-0.098-1.34-0.098h-1.629h-2.297h-2.777h-3.35h-3.83h-4.309h-4.787
		h-5.074h-5.457h-5.84H374.5h-6.32h-6.51h-6.701h-6.797h-6.99h-6.988h-7.086h-7.084h-6.988h-6.895h-6.893h-6.701h-6.512h-6.318
		h-6.031h-5.84h-5.457h-5.074h-4.74h-4.307h-3.83h-3.352h-2.824h-2.25h-1.676h-1.004c-0.336-0.238-0.336-0.91-0.336-0.91v-1.102
		v-1.484v-1.816v-2.203v-2.535v-2.824v-3.113v-3.352v-3.543v-3.828v-3.973v-4.117V327v-4.402v-4.453v-4.598v-4.594v-4.645v-4.594
		v-4.645v-4.547v-4.5v-4.355v-4.309v-4.117v-4.02v-3.785v-3.59V258.5v-3.066v-2.824v-2.535v-2.203v-1.867v-1.484v-1.051v-0.672
		c0.383-0.238,1.436-0.238,1.436-0.238h1.725h2.393h2.969h3.494h4.068h4.5h4.979h5.361h5.744h6.127h6.32h6.701h6.797h7.086h7.18
		h7.373h7.371h7.371h7.469h7.371h7.277h7.18h7.084h6.895h6.605h6.414h6.033h5.744h5.361h4.979h4.596h4.02h3.543h2.969h2.297h1.818
		h1.055c0.287-0.336,0.287-0.766,0.287-0.766v-0.527v-0.719v-0.863v-0.957v-1.051v-1.199v-1.242v-1.391v-1.434v-1.531v-1.582v-1.625
		v-1.676v-1.727v-1.723v-1.77v-1.723v-1.773v-1.77v-1.723v-1.723v-1.676v-1.629v-1.578v-1.535v-1.434v-1.34v-1.293v-1.199v-1.051
		v-0.957v-0.863v-0.668v-0.578c0-0.43,0-0.668,0-0.668c-0.383-0.098-1.82-0.098-1.82-0.098h-2.201H423.9h-3.732h-4.5h-5.17h-5.744
		h-6.416h-6.797h-7.371h-7.756h-8.139h-8.52h-8.713h-9h-9.285h-9.287h-9.479h-9.383h-9.479h-9.479h-9.285h-9.191h-9.096h-8.713
		h-8.473h-8.186h-7.754h-7.324h-6.895h-6.318h-5.793h-5.17h-4.5h-3.781h-3.016h-2.25h-1.34C178.09,195.5,178.09,595.5,178.09,595.5z
		"/>
</g>
</svg>
