<?xml version="1.0" encoding="utf-8"?>
<!-- Generator: Adobe Illustrator 16.0.1, SVG Export Plug-In . SVG Version: 6.00 Build 0)  -->
<!DOCTYPE svg PUBLIC "-//W3C//DTD SVG 1.0//EN" "http://www.w3.org/TR/2001/REC-SVG-20010904/DTD/svg10.dtd">
<svg version="1.0" id="_x31_" xmlns="http://www.w3.org/2000/svg" xmlns:xlink="http://www.w3.org/1999/xlink" x="0px" y="0px"
	 width="612px" height="792px" viewBox="0 0 612 792" enable-background="new 0 0 612 792" xml:space="preserve">
<g id="LWPOLYLINE">
	
		<path fill="none" stroke="#000000" stroke-width="0.7087" stroke-linecap="round" stroke-linejoin="round" stroke-miterlimit="10" d="
		M277.73,595.5c0.432,0,0.91,0,0.91,0h0.67h0.861h1.006h1.148h1.34h1.389h1.58h1.627h1.771h1.82h1.914h1.963h2.01h2.059h2.107h2.152
		h2.107h2.105h2.107h2.105h2.107h2.01h2.01h1.916h1.818h1.723h1.629h1.531h1.436h1.342h1.148h0.957h0.861h0.67h0.574
		c0.383-0.285,0.383-1.148,0.383-1.148v-1.34v-1.816v-2.395v-2.68v-3.16v-3.543v-3.926v-4.211v-4.5v-4.691v-5.074v-5.172v-5.359
		v-5.555v-5.551v-5.746v-5.746v-5.84v-5.84v-5.742v-5.746v-5.551v-5.555v-5.359v-5.172v-5.074v-4.691v-4.5v-4.211v-3.926v-3.543
		v-3.16v-2.68v-2.395v-1.816v-1.344v-0.859c0-0.289,0.287-0.719,0.287-0.719l0.863-1.34l1.34-2.156l1.914-2.918l2.299-3.688
		l2.775-4.355l3.256-4.977l3.543-5.602l3.924-6.176l4.309-6.652l4.596-7.133l4.787-7.516l5.074-7.898l5.266-8.188l5.361-8.52
		l5.648-8.715l5.648-8.902l5.84-9.047l5.842-9.145l5.84-9.191l5.936-9.191l5.84-9.141l5.744-9.047l5.744-8.906l5.553-8.711
		l5.457-8.473l5.266-8.234l4.979-7.898l4.883-7.516l4.5-7.133l4.309-6.652l3.926-6.129l3.543-5.602l3.254-5.023l2.777-4.359
		l2.393-3.684l1.818-2.922l1.342-2.152l0.861-1.293c-0.096-0.48-0.67-0.48-0.67-0.48h-0.766h-0.959h-1.053h-1.34h-1.436h-1.533
		h-1.723h-1.818h-1.916h-2.01h-2.105h-2.203h-2.201h-2.299h-2.297h-2.395h-2.297h-2.395h-2.297h-2.395h-2.201h-2.297h-2.107h-2.105
		h-2.012h-2.01h-1.818h-1.629h-1.627h-1.436h-1.244h-1.15h-0.957h-0.766h-0.479c-0.479,0-0.67,0.383-0.67,0.383l-0.67,1.055
		l-1.055,1.723l-1.436,2.348l-1.818,2.918l-2.107,3.496l-2.393,3.973l-2.777,4.5l-2.967,4.93l-3.256,5.312l-3.447,5.699
		l-3.732,6.031l-3.83,6.316l-4.021,6.559l-4.117,6.797l-4.307,6.992l-4.309,7.133l-4.404,7.227l-4.5,7.324l-4.5,7.324l-4.404,7.371
		l-4.5,7.277l-4.404,7.227l-4.402,7.133l-4.213,6.988l-4.117,6.801l-4.021,6.559l-3.83,6.316l-3.732,6.031l-3.447,5.699
		l-3.256,5.312l-2.967,4.93l-2.777,4.5l-2.393,3.973l-2.203,3.496l-1.723,2.918l-1.436,2.348l-1.053,1.723l-0.672,1.055
		c-0.479,0-1.053-1.055-1.053-1.055l-1.053-1.723l-1.436-2.348l-1.82-2.918l-2.105-3.496l-2.441-3.973l-2.729-4.5l-3.016-4.93
		l-3.256-5.312l-3.494-5.699l-3.639-6.031l-3.877-6.316l-3.973-6.559l-4.164-6.801l-4.262-6.988l-4.355-7.133l-4.404-7.227
		l-4.451-7.277l-4.5-7.371l-4.453-7.324l-4.498-7.324l-4.404-7.227l-4.357-7.133l-4.26-6.992l-4.117-6.797l-4.021-6.559
		l-3.828-6.316l-3.688-6.031l-3.494-5.699l-3.254-5.312l-2.969-4.93l-2.729-4.5l-2.441-3.973l-2.154-3.496l-1.771-2.918
		l-1.436-2.348l-1.053-1.723l-0.623-1.055c-0.383-0.383-0.766-0.383-0.766-0.383h-0.574h-0.814h-1.053h-1.197h-1.387h-1.58h-1.725
		h-1.865h-2.012h-2.105h-2.203h-2.297h-2.395h-2.441h-2.488h-2.537h-2.537h-2.586H152.6h-2.537h-2.537h-2.49h-2.441h-2.393h-2.297
		h-2.203h-2.105h-2.012h-1.867h-1.723h-1.531h-1.436h-1.197h-1.053h-0.814h-0.574c-0.383,0-0.527,0-0.527,0
		c0.287,0.434,1.148,1.773,1.148,1.773l1.389,2.105l1.867,2.871l2.346,3.641l2.777,4.258l3.207,4.934l3.59,5.504l3.926,6.031
		l4.26,6.559l4.547,7.035l4.836,7.375l5.074,7.801l5.217,8.09l5.457,8.328l5.602,8.617l5.697,8.762l5.791,8.855l5.84,9l5.889,9.047
		l5.84,9.047l5.889,9l5.791,8.902l5.697,8.762l5.553,8.566l5.457,8.379l5.266,8.09l5.027,7.754l4.834,7.422l4.549,6.988l4.26,6.559
		l3.926,6.031l3.59,5.504l3.207,4.934l2.775,4.305l2.346,3.594l1.916,2.871l1.34,2.152l0.861,1.293
		C277.73,436.668,277.73,595.5,277.73,595.5z"/>
</g>
</svg>
