<?xml version="1.0" encoding="utf-8"?>
<!-- Generator: Adobe Illustrator 16.0.1, SVG Export Plug-In . SVG Version: 6.00 Build 0)  -->
<!DOCTYPE svg PUBLIC "-//W3C//DTD SVG 1.0//EN" "http://www.w3.org/TR/2001/REC-SVG-20010904/DTD/svg10.dtd">
<svg version="1.0" id="_x31_" xmlns="http://www.w3.org/2000/svg" xmlns:xlink="http://www.w3.org/1999/xlink" x="0px" y="0px"
	 width="612px" height="792px" viewBox="0 0 612 792" enable-background="new 0 0 612 792" xml:space="preserve">
<g id="LWPOLYLINE">
	
		<path fill="none" stroke="#000000" stroke-width="0.7087" stroke-linecap="round" stroke-linejoin="round" stroke-miterlimit="10" d="
		M465.625,195.5c-0.377,0-0.846,0-0.846,0h-0.656h-0.846h-0.939h-1.127h-1.221h-1.314h-1.502h-1.502h-1.691h-1.689h-1.877h-1.879
		h-1.877h-1.973h-1.973h-1.971h-2.066h-1.971h-2.066h-1.973h-1.971h-1.879h-1.877h-1.785h-1.783h-1.596h-1.598h-1.502h-1.314h-1.221
		h-1.127h-0.938h-0.846h-0.564c-0.469,0-0.844,0-0.844,0c-0.094,0.469-0.094,1.738-0.094,1.738v2.113v2.91v3.566v4.273v4.93v5.492
		v6.012v6.523v6.996v7.371v7.746v8.074v8.312v8.543v8.734v8.871v8.969v9.012v9.016v8.969v8.871v8.734v8.543v8.355v8.031v7.746v7.418
		v6.945v6.527v6.055v5.496v4.883v4.27v3.617v2.863v2.113v1.312c0,0.422,0,2.535,0,2.535v2.348v2.535l-0.094,2.676l-0.094,2.816
		l-0.096,3.008l-0.281,3.191l-0.281,3.285l-0.281,3.383l-0.471,3.473l-0.562,3.473l-0.658,3.664l-0.75,3.66l-0.939,3.758
		l-1.033,3.754l-1.221,3.758l-1.314,3.754l-1.502,3.758l-1.689,3.754l-1.879,3.758l-2.16,3.566l-2.252,3.664l-2.535,3.473
		l-2.725,3.379l-3.004,3.383l-3.193,3.191l-3.473,3.004l-3.756,3.004l-4.039,2.727l-4.318,2.629l-4.602,2.348l-4.883,2.25
		l-5.258,1.973l-5.539,1.785l-5.916,1.598l-6.291,1.219l-6.572,1.035l-6.949,0.75l-7.418,0.469L306,547.426l-7.746-0.188
		l-7.324-0.469l-6.996-0.75l-6.572-1.035l-6.291-1.219l-5.869-1.598l-5.586-1.785l-5.211-1.973l-4.93-2.25l-4.602-2.348
		l-4.318-2.629l-4.037-2.727l-3.756-3.004l-3.475-3.004l-3.24-3.191l-2.957-3.383l-2.723-3.379l-2.535-3.473l-2.301-3.664
		l-2.066-3.566l-1.877-3.758l-1.738-3.754l-1.502-3.758l-1.361-3.754l-1.174-3.758l-1.033-3.754l-0.893-3.758l-0.797-3.66
		l-0.658-3.664l-0.562-3.473l-0.424-3.473l-0.375-3.383l-0.281-3.285l-0.188-3.191l-0.141-3.008l-0.141-2.816l-0.047-2.676v-2.535
		l-0.049-2.348v-2.113c0-0.422,0-1.734,0-1.734v-2.113v-2.863v-3.617v-4.27v-4.883v-5.496v-6.055v-6.527v-6.945v-7.418v-7.746
		v-8.031v-8.355v-8.543v-8.734v-8.871v-8.969v-9.016v-9.012v-8.969v-8.871v-8.734v-8.543v-8.312v-8.074v-7.746v-7.371v-6.996v-6.523
		v-6.012v-5.492v-4.93v-4.273v-3.566v-2.91v-2.113v-1.27c-0.375-0.469-0.844-0.469-0.844-0.469h-0.658h-0.797h-0.939h-1.127h-1.221
		h-1.361h-1.455h-1.549h-1.645h-1.783h-1.785h-1.877h-1.879h-1.971h-1.973h-2.018h-2.02h-2.02h-2.018h-1.973h-1.971h-1.926h-1.877
		h-1.785h-1.736h-1.645h-1.549h-1.502h-1.314h-1.268h-1.08h-0.939h-0.844h-0.611c-0.469,0-0.799,0-0.799,0
		c-0.094,0.469-0.094,1.738-0.094,1.738v2.113v2.91v3.566v4.273v4.93v5.492v6.012v6.523v6.996v7.371v7.746v8.074v8.312v8.543v8.734
		v8.871v8.969v9.012v9.016v8.969v8.871v8.734v8.543v8.355v8.031v7.746v7.418v6.945v6.527v6.055v5.496v4.883v4.27v3.617v2.863v2.113
		v1.312c0,0.422,0,2.066,0,2.066v1.691l0.047,1.832v1.875l0.047,1.973l0.049,1.973l0.047,2.066l0.094,2.16l0.094,2.25l0.141,2.348
		l0.188,2.348l0.188,2.348l0.234,2.535l0.283,2.535l0.328,2.535l0.375,2.629l0.422,2.629l0.471,2.723l0.516,2.82l0.564,2.723
		l0.656,2.91l0.705,2.816l0.797,2.91l0.846,2.91l0.893,2.91l1.033,3.008l1.031,3.004l1.174,3.004l1.268,3.004l1.314,3.102
		l1.41,3.004l1.549,3.098l1.596,3.004l1.736,3.098l1.832,3.102l1.924,3.004l2.02,3.098l2.16,3.098l2.301,3.008l2.395,3.004
		l2.91,3.566l3.004,3.383l3.053,3.191l3.145,3.098l3.193,2.91l3.238,2.816l3.287,2.629l3.334,2.535l3.379,2.348l3.428,2.254
		l3.475,2.16l3.475,1.973l3.473,1.879l3.521,1.781l3.521,1.691l3.521,1.598l3.521,1.406l3.568,1.316l3.473,1.312l3.521,1.129
		l3.475,1.125l3.475,0.941l3.428,0.938l3.426,0.844l3.381,0.66l3.287,0.75l3.285,0.562l3.24,0.562l3.145,0.469l3.146,0.379
		l3.004,0.375l3.006,0.281l2.863,0.281l2.816,0.188l2.723,0.188l2.629,0.188l2.535,0.094h2.441l2.348,0.094H306h2.254l2.254-0.094
		h2.441l2.535-0.094l2.723-0.188l2.629-0.188l2.816-0.188l2.912-0.281l3.004-0.281l3.004-0.375l3.1-0.379l3.191-0.469l3.193-0.562
		l3.287-0.562l3.379-0.75l3.381-0.66l3.381-0.844l3.379-0.938l3.475-0.941l3.475-1.125l3.568-1.129l3.475-1.312l3.566-1.316
		l3.475-1.406l3.568-1.598l3.475-1.691l3.568-1.781l3.473-1.879l3.475-1.973l3.475-2.16l3.381-2.254l3.379-2.348l3.381-2.535
		l3.287-2.629l3.285-2.816l3.193-2.91l3.098-3.098l3.1-3.191l3.004-3.383l2.912-3.566l2.348-3.004l2.252-3.008l2.16-3.098
		l2.066-3.098l1.971-3.004l1.785-3.102l1.689-3.098l1.689-3.004l1.504-3.098l1.408-3.004l1.314-3.102l1.221-3.004l1.221-3.004
		l1.033-3.004l1.031-3.008l0.939-2.91l0.846-2.91l0.75-2.91l0.658-2.816l0.656-2.91l0.658-2.723l0.469-2.82l0.471-2.723l0.469-2.629
		l0.281-2.629l0.377-2.535l0.281-2.535l0.188-2.535l0.281-2.348l0.094-2.348l0.188-2.348l0.096-2.25l0.094-2.16l0.094-2.066v-1.973
		l0.094-1.973v-1.875v-1.832v-1.691v-1.645V195.5z"/>
</g>
</svg>
