<?xml version="1.0" encoding="utf-8"?>
<!-- Generator: Adobe Illustrator 16.0.1, SVG Export Plug-In . SVG Version: 6.00 Build 0)  -->
<!DOCTYPE svg PUBLIC "-//W3C//DTD SVG 1.0//EN" "http://www.w3.org/TR/2001/REC-SVG-20010904/DTD/svg10.dtd">
<svg version="1.0" id="_x31_" xmlns="http://www.w3.org/2000/svg" xmlns:xlink="http://www.w3.org/1999/xlink" x="0px" y="0px"
	 width="612px" height="792px" viewBox="0 0 612 792" enable-background="new 0 0 612 792" xml:space="preserve">
<g id="LWPOLYLINE">
	
		<path fill="none" stroke="#000000" stroke-width="0.7087" stroke-linecap="round" stroke-linejoin="round" stroke-miterlimit="10" d="
		M278.547,595.5c0.383,0,0.861,0,0.861,0h0.67h0.814h0.957h1.148h1.246h1.387h1.484h1.58h1.676h1.771h1.867h1.865h1.963h2.012h2.01
		h2.059h2.059h2.01h2.107h2.01h2.01h1.916h1.914h1.82h1.818h1.627h1.629h1.531h1.34h1.244h1.15h0.957h0.861h0.67
		c0.479,0,0.766,0,0.766,0c0.096,0,0.096-0.766,0.096-0.766v-2.105v-3.543v-4.785v-6.031v-7.086v-8.137v-9.191v-9.957v-10.914
		v-11.586v-12.254v-12.926v-13.402v-13.883v-14.266v-14.504v-14.742v-14.938V395.5v-14.98v-14.938V350.84v-14.555V322.07v-13.883
		v-13.402v-12.879v-12.301V258.02v-10.867v-10.051v-9.145v-8.137v-7.133v-5.984v-4.785v-3.496v-2.156V195.5
		c-0.383,0-0.861,0-0.861,0h-0.67h-0.861h-0.957h-1.15h-1.244h-1.34h-1.531h-1.629h-1.627h-1.818h-1.82h-1.914h-1.916h-2.01h-2.01
		h-2.107h-2.01h-2.059h-2.059h-2.01h-2.012h-1.963h-1.865h-1.867h-1.771h-1.676h-1.58h-1.484h-1.387h-1.246h-1.148h-0.957h-0.814
		h-0.67c-0.479,0-0.766,0-0.766,0C278.547,195.5,278.547,595.5,278.547,595.5z"/>
</g>
</svg>
