<?xml version="1.0" encoding="utf-8"?>
<!-- Generator: Adobe Illustrator 16.0.1, SVG Export Plug-In . SVG Version: 6.00 Build 0)  -->
<!DOCTYPE svg PUBLIC "-//W3C//DTD SVG 1.0//EN" "http://www.w3.org/TR/2001/REC-SVG-20010904/DTD/svg10.dtd">
<svg version="1.0" id="_x31_" xmlns="http://www.w3.org/2000/svg" xmlns:xlink="http://www.w3.org/1999/xlink" x="0px" y="0px"
	 width="612px" height="792px" viewBox="0 0 612 792" enable-background="new 0 0 612 792" xml:space="preserve">
<g id="LWPOLYLINE">
	
		<path fill="none" stroke="#000000" stroke-width="0.7087" stroke-linecap="round" stroke-linejoin="round" stroke-miterlimit="10" d="
		M110.02,595.5c0.43,0,0.957,0,0.957,0h0.67h0.91h1.053h1.197h1.34h1.484h1.578h1.725h1.771h1.914h1.963h2.059h2.105h2.107h2.201
		h2.154h2.201h2.203h2.201h2.203h2.105h2.105h2.059h1.963h1.867h1.818h1.725h1.58h1.482h1.342h1.195h1.055h0.861h0.717h0.527
		c0.432,0,0.479-0.191,0.479-0.191l0.24-0.574l0.383-0.957l0.525-1.242l0.67-1.629l0.768-1.82l0.861-2.199l0.957-2.395l1.102-2.68
		l1.195-2.875l1.246-3.062l1.291-3.254l1.389-3.449l1.484-3.539l1.484-3.641l1.531-3.734l1.58-3.926l1.58-3.828l1.627-4.02
		l1.58-3.926l1.627-3.926l1.627-4.023l1.58-3.828l1.58-3.926l1.531-3.734l1.484-3.637l1.436-3.543l1.389-3.445l1.34-3.254
		l1.246-3.066l1.195-2.871l1.055-2.68l1.004-2.395l0.861-2.203l0.768-1.816l0.67-1.629l0.525-1.246l0.336-0.957l0.238-0.574
		c0.432-0.191,1.438-0.191,1.438-0.191h1.627h2.25h2.777h3.303h3.828h4.262h4.643h5.074h5.41h5.695h6.033h6.223h6.461h6.654h6.75
		h6.893h6.941h6.99h6.988h6.893h6.895h6.797h6.605h6.416h6.318h5.936h5.744h5.457h4.979h4.691h4.309h3.734h3.35h2.777h2.201h1.629
		h1.053c0.383,0.191,0.67,0.766,0.67,0.766l0.383,0.957l0.479,1.246l0.67,1.629l0.766,1.816l0.863,2.203l0.957,2.395l1.148,2.68
		l1.148,2.871l1.244,3.066l1.342,3.254l1.34,3.445l1.531,3.543l1.436,3.637l1.533,3.734l1.627,3.926l1.531,3.828l1.629,4.023
		l1.627,3.926l1.627,3.926l1.629,4.02l1.531,3.828l1.627,3.926l1.533,3.734l1.436,3.641l1.436,3.539l1.436,3.449l1.342,3.254
		l1.244,3.062l1.148,2.875l1.053,2.68l1.055,2.395l0.861,2.199l0.766,1.82l0.574,1.629l0.574,1.242l0.383,0.957l0.191,0.574
		c0.191,0.191,0.574,0.191,0.574,0.191h0.479h0.768h0.861h1.148h1.244h1.34h1.533h1.627h1.818h1.82h2.01h2.012h2.105h2.201h2.203
		h2.201h2.299h2.297h2.203h2.297h2.201h2.299h2.105h2.107h2.01h2.012h1.818h1.818h1.629h1.531h1.34h1.244h1.15h0.861h0.766h0.479
		c0.479,0,0.191-0.766,0.191-0.766l-0.861-2.105l-1.436-3.543l-2.012-4.785l-2.393-6.031l-2.873-7.086l-3.35-8.137l-3.734-9.191
		l-4.021-9.957l-4.5-10.914l-4.691-11.586l-4.979-12.254l-5.266-12.926l-5.457-13.402l-5.648-13.883l-5.744-14.266l-5.936-14.504
		l-6.031-14.742l-6.033-14.938l-6.127-14.984l-6.127-14.98l-6.031-14.938L402.6,350.84l-5.936-14.555l-5.746-14.215l-5.648-13.883
		l-5.457-13.402l-5.266-12.879l-4.979-12.301l-4.691-11.586l-4.404-10.867l-4.115-10.051l-3.734-9.145l-3.352-8.137l-2.871-7.133
		l-2.395-5.984l-2.01-4.785l-1.436-3.496l-0.863-2.156l-0.287-0.766c-0.383,0-0.957,0-0.957,0h-0.67h-0.861h-1.053h-1.246h-1.34
		h-1.436h-1.627h-1.725h-1.818h-1.818h-2.012h-2.01h-2.107h-2.105h-2.203h-2.201h-2.201h-2.203h-2.201h-2.154h-2.154h-2.105h-2.012
		h-2.01h-1.867h-1.818h-1.676h-1.629h-1.482h-1.342h-1.195h-1.055h-0.861h-0.717h-0.527C280.627,195.5,110.02,595.5,110.02,595.5z"
		/>
</g>
<g id="LWPOLYLINE_1_">
	
		<path fill="none" stroke="#000000" stroke-width="0.7087" stroke-linecap="round" stroke-linejoin="round" stroke-miterlimit="10" d="
		M308.008,250.41c0.191,0.332,0.574,1.434,0.574,1.434l0.67,1.723l0.863,2.348l1.148,2.918l1.34,3.496l1.531,3.973l1.629,4.5
		l1.914,4.93l2.012,5.316l2.201,5.695l2.297,6.031l2.395,6.32l2.488,6.555l2.586,6.801l2.584,6.988l2.777,7.133l2.68,7.227
		l2.777,7.324l2.873,7.324l2.775,7.324l2.777,7.324l2.68,7.227l2.777,7.133l2.584,6.992l2.586,6.797l2.584,6.559l2.395,6.316
		l2.297,6.031l2.105,5.699l2.012,5.312l1.914,4.93l1.725,4.5l1.436,3.973l1.34,3.496l1.148,2.918l0.863,2.348l0.67,1.77l0.383,1.055
		c-0.096,0.285-0.957,0.285-0.957,0.285H380.1h-1.818h-2.299h-2.68h-3.16h-3.445h-3.926h-4.117h-4.404h-4.691h-4.979h-5.074h-5.361
		h-5.457h-5.553h-5.648h-5.648h-5.744h-5.744h-5.697h-5.648h-5.553h-5.457h-5.266h-5.123h-4.93h-4.74h-4.402h-4.166h-3.828h-3.496
		h-3.111h-2.729h-2.297h-1.82h-1.34h-0.861C229.645,446.434,308.008,250.41,308.008,250.41z"/>
</g>
</svg>
