<?xml version="1.0" encoding="utf-8"?>
<!-- Generator: Adobe Illustrator 16.0.1, SVG Export Plug-In . SVG Version: 6.00 Build 0)  -->
<!DOCTYPE svg PUBLIC "-//W3C//DTD SVG 1.0//EN" "http://www.w3.org/TR/2001/REC-SVG-20010904/DTD/svg10.dtd">
<svg version="1.0" id="_x31_" xmlns="http://www.w3.org/2000/svg" xmlns:xlink="http://www.w3.org/1999/xlink" x="0px" y="0px"
	 width="612px" height="792px" viewBox="0 0 612 792" enable-background="new 0 0 612 792" xml:space="preserve">
<g id="LWPOLYLINE">
	
		<path fill="none" stroke="#000000" stroke-width="0.7087" stroke-linecap="round" stroke-linejoin="round" stroke-miterlimit="10" d="
		M157.889,474.723v1.477v1.473v1.473v1.566l0.045,1.566v1.66l0.047,1.656l0.092,1.75l0.047,1.66l0.092,1.844l0.137,1.75l0.139,1.84
		l0.186,1.844l0.184,1.844l0.23,1.934l0.23,1.934l0.275,1.934l0.322,1.938l0.369,2.027l0.414,2.023l0.461,2.027l0.461,2.027
		l0.553,2.027l0.6,2.117l0.645,2.027l0.689,2.121l0.738,2.117l0.783,2.117l0.875,2.121l0.92,2.117l0.969,2.121l1.059,2.117
		l1.152,2.121l1.15,2.211l1.291,2.117l1.336,2.117l1.428,2.121l1.473,2.211l1.566,2.117l1.658,2.121l2.303,2.855l2.441,2.762
		l2.533,2.672l2.627,2.578l2.717,2.398l2.811,2.211l2.855,2.211l2.994,2.027l2.994,1.934l3.086,1.84l3.133,1.754l3.223,1.562
		l3.225,1.566l3.271,1.383l3.316,1.383l3.316,1.195l3.361,1.199l3.41,1.105l3.361,1.012l3.408,0.922l3.408,0.832l3.363,0.734
		l3.408,0.738l3.316,0.645l3.363,0.555l3.316,0.551l3.27,0.461l3.225,0.367l3.225,0.371l3.133,0.367l3.086,0.277l2.994,0.184
		l2.947,0.184l2.902,0.184l2.811,0.094l2.717,0.09l2.625,0.094l2.533,0.094h2.396h2.348l7.371-0.094l7.277-0.277l7.002-0.461
		l6.908-0.645l6.725-0.828l6.449-1.012l6.357-1.199l6.172-1.383l5.988-1.473l5.803-1.66l5.619-1.84l5.436-1.938l5.252-2.211
		l5.066-2.301l4.883-2.395l4.697-2.582l4.516-2.672l4.33-2.855l4.053-3.039l3.961-3.133l3.777-3.223l3.592-3.41l3.41-3.5
		l3.131-3.594l3.041-3.684l2.855-3.871l2.58-3.961l2.395-4.051l2.303-4.148l2.027-4.238l1.842-4.328l1.658-4.422l1.475-4.516
		l1.289-4.605l1.105-4.699l0.922-4.789l0.645-4.883l0.461-4.883l0.369-4.973l0.092-5.066v-1.383v-1.289l-0.092-1.477v-1.473
		l-0.094-1.566l-0.092-1.656l-0.092-1.66l-0.184-1.75l-0.092-1.75l-0.277-1.844l-0.184-1.84l-0.277-1.938l-0.367-1.934l-0.369-1.934
		l-0.369-2.027l-0.461-2.027l-0.553-2.027l-0.553-2.117l-0.736-2.121l-0.645-2.07l-0.83-2.121l-0.828-2.164l-0.922-2.117
		l-1.014-2.164l-1.012-2.168l-1.199-2.164l-1.197-2.164l-1.381-2.117l-1.383-2.168l-1.566-2.117l-1.564-2.121l-1.752-2.07
		l-1.842-2.074l-1.936-2.07l-2.025-2.027l-2.119-2.027l-2.211-1.934l-2.395-1.938l-2.488-1.934l-2.672-1.844l-1.658-1.105
		l-1.658-1.059l-1.658-1.012l-1.566-0.969l-1.564-0.965l-1.658-0.922l-1.566-0.875l-1.658-0.832l-1.658-0.828l-1.658-0.828
		l-1.752-0.785l-1.75-0.781l-1.842-0.738l-1.936-0.734l-1.934-0.785l-2.119-0.734l-2.211-0.738l-2.211-0.738l-2.395-0.781
		l-2.58-0.785l-2.672-0.781l-2.764-0.785l-2.947-0.828l-3.041-0.875l-3.316-0.828l-3.408-0.922l-3.592-0.922l-3.869-1.012
		l-3.963-1.016l-4.236-1.059l-4.422-1.059l-4.699-1.199l-4.883-1.195l-5.158-1.246l-5.344-1.336l-5.619-1.379l-5.988-1.43
		l-6.172-1.52l-6.494-1.566l-6.771-1.66l-3.502-0.875l-3.408-0.828l-3.316-0.875l-3.178-0.828l-3.133-0.875l-3.039-0.875
		l-2.949-0.922l-2.855-0.922l-2.764-0.922l-2.672-0.922l-2.578-0.965l-2.488-1.016l-2.395-1.012l-2.303-1.012l-2.258-1.105
		l-2.119-1.105l-2.025-1.105l-1.982-1.199l-1.842-1.199l-1.797-1.242l-1.703-1.289l-1.566-1.383l-1.52-1.383l-1.428-1.426
		l-1.336-1.477l-1.244-1.52l-1.152-1.609l-1.105-1.66l-0.967-1.703l-0.922-1.797l-0.828-1.797l-0.691-1.934l-0.645-1.934
		l-0.553-2.074l-0.506-2.121l-0.369-2.164l-0.277-2.258l-0.23-2.348l-0.137-2.441l-0.047-2.488l0.092-2.945l0.186-2.855l0.275-2.812
		l0.414-2.762l0.553-2.672l0.646-2.625l0.736-2.535l0.875-2.488l1.014-2.395l1.105-2.348l1.197-2.258l1.336-2.211l1.428-2.164
		l1.52-2.074l1.658-1.98l1.75-1.887l1.889-1.891l1.98-1.75l2.074-1.703l2.164-1.613l2.258-1.566l2.395-1.473l2.488-1.43l2.578-1.336
		l2.672-1.242l2.811-1.152l2.855-1.105l2.994-1.012l3.039-0.969l3.18-0.828l3.27-0.785l3.316-0.734l3.455-0.602l3.547-0.551
		l3.592-0.461l3.732-0.367l3.822-0.277l3.869-0.23l3.961-0.137l4.055-0.047l2.855,0.047l2.855,0.043l2.855,0.094l2.855,0.137
		l2.857,0.188l2.855,0.23l2.855,0.32l2.764,0.324l2.855,0.414l2.764,0.461l2.764,0.504l2.672,0.602l2.672,0.691l2.672,0.734
		l2.578,0.785l2.58,0.918l2.488,0.969l2.486,1.016l2.395,1.148l2.305,1.246l2.303,1.289l2.211,1.426l2.119,1.523l2.025,1.609
		l1.936,1.707l1.934,1.84l1.752,1.934l1.658,2.027l1.564,2.168l1.475,2.254l1.383,2.398l1.289,2.531l1.105,2.625l1.014,2.812
		l0.92,2.898l0.738,3.043l0.645,3.176l0.553,3.316l0.369,3.457l0.184,3.59c0.369,0,0.922,0,0.922,0h0.645h0.828h1.014h1.197h1.291
		h1.381h1.566h1.658h1.75h1.75h1.936h1.934h2.027h2.027h2.119h2.117h2.119h2.119h2.119h2.119h2.025h2.027h1.936h1.934h1.844h1.658
		h1.658h1.564h1.383h1.289h1.197h1.014h0.83h0.645h0.553c0.369,0,0.275-1.289,0.275-1.289l-0.184-1.336l-0.092-1.336l-0.184-1.379
		l-0.094-1.43l-0.092-1.473l-0.184-1.477l-0.184-1.473l-0.094-1.566l-0.184-1.52l-0.184-1.613l-0.277-1.566l-0.184-1.609
		l-0.277-1.66l-0.275-1.656l-0.277-1.66l-0.367-1.703l-0.369-1.703l-0.461-1.707l-0.367-1.75l-0.553-1.703l-0.461-1.75l-0.553-1.797
		l-0.645-1.75l-0.646-1.75l-0.736-1.797l-0.736-1.75l-0.83-1.797l-0.828-1.75l-1.014-1.797l-0.922-1.797l-1.105-1.75l-1.105-1.797
		l-1.197-1.75l-1.289-1.75l-1.291-1.75l-1.473-1.75l-1.475-1.707l-1.566-1.75l-1.658-1.703l-2.303-2.488l-2.395-2.348l-2.488-2.305
		l-2.486-2.164l-2.58-2.027l-2.672-1.98l-2.764-1.844l-2.764-1.793l-2.764-1.66L394.047,213l-2.949-1.473l-2.947-1.426l-2.947-1.293
		l-2.949-1.242l-3.039-1.199l-3.041-1.059l-3.039-1.059l-3.041-0.922l-3.039-0.875l-3.041-0.828l-3.039-0.738l-3.041-0.691
		l-3.039-0.598L351.945,199l-2.947-0.508l-2.947-0.461l-2.949-0.414l-2.855-0.367l-2.764-0.324l-2.764-0.277l-2.764-0.273
		l-2.672-0.188l-2.578-0.184l-2.488-0.137l-2.486-0.141l-2.396-0.09l-2.303-0.047l-2.211-0.047l-2.119-0.043h-2.027l-5.48,0.09
		l-5.527,0.184l-5.48,0.324l-5.482,0.461l-5.48,0.551l-5.391,0.738l-5.389,0.828l-5.297,0.969l-5.297,1.152l-5.205,1.242
		l-5.113,1.383l-5.066,1.52l-4.975,1.656l-4.883,1.797l-4.791,1.934l-4.697,2.074l-4.607,2.258l-4.467,2.348l-4.33,2.488
		l-4.191,2.672l-4.053,2.809l-3.963,2.902l-3.777,3.086l-3.592,3.27l-3.455,3.363l-3.27,3.547l-3.086,3.688l-2.902,3.82
		l-2.719,4.008l-2.533,4.145l-2.303,4.285l-2.119,4.469l-1.842,4.605l-1.658,4.746l-1.428,4.926l-1.152,5.066l-0.92,5.254
		l-0.691,5.387l-0.414,5.574l-0.094,5.711v1.98l0.047,1.98l0.047,1.98l0.137,2.027l0.139,1.98l0.184,2.027l0.23,2.027l0.23,1.98
		l0.322,2.027l0.322,1.98l0.369,2.027l0.461,1.98l0.461,2.027l0.553,1.98l0.553,1.98l0.645,2.027l0.691,1.934l0.736,1.98l0.783,1.98
		l0.828,1.934l0.922,1.934l1.014,1.938l1.014,1.934l1.105,1.887l1.197,1.891l1.197,1.887l1.336,1.844l1.383,1.844l1.428,1.84
		l1.566,1.797l1.564,1.797l1.705,1.75l1.75,1.75l1.844,1.707l1.934,1.703l1.98,1.656l2.119,1.66l2.164,1.613l2.258,1.609
		l2.395,1.566l1.566,1.152l1.566,1.059l1.611,1.059l1.658,1.016l1.705,0.969l1.705,0.965l1.75,0.969l1.75,0.922l1.842,0.875
		l1.889,0.875l1.889,0.875l1.98,0.828l2.027,0.828l2.027,0.832l2.164,0.781l2.166,0.781l2.256,0.832l2.303,0.781l2.35,0.785
		l2.441,0.734l2.533,0.785l2.58,0.781l2.672,0.785l2.717,0.781l2.811,0.828l2.947,0.785l2.947,0.828l3.086,0.828l3.18,0.832
		l3.27,0.875l3.363,0.875l3.455,0.875l3.545,0.922l3.641,0.918l3.775,0.969l3.869,1.012l3.963,1.016l4.1,1.059l4.236,1.059
		l4.33,1.152l3.869,0.828l3.869,0.832l3.869,0.828l3.686,0.875l3.686,0.828l3.592,0.875l3.5,0.875l3.41,0.875l3.316,0.922
		l3.316,0.922l3.225,0.969l3.131,1.012l2.949,1.012l2.947,1.062l2.855,1.105l2.764,1.148l2.672,1.152l2.58,1.246l2.486,1.289
		l2.395,1.383l2.305,1.379l2.211,1.477l2.025,1.566l2.027,1.609l1.842,1.66l1.752,1.75l1.658,1.84l1.564,1.938l1.383,2.027
		l1.381,2.117l1.199,2.211l1.012,2.305l1.014,2.395l0.83,2.488l0.645,2.578l0.645,2.672l0.461,2.855l0.275,2.949l0.277,3.039v3.223
		v1.477l-0.092,1.566l-0.092,1.75l-0.186,1.75l-0.275,1.84l-0.277,2.027l-0.367,2.027l-0.461,2.117l-0.553,2.121l-0.645,2.211
		l-0.738,2.211l-0.828,2.301l-1.014,2.305l-1.014,2.305l-1.197,2.395l-1.289,2.301l-1.383,2.398l-1.566,2.301l-1.75,2.305
		l-1.842,2.301l-1.936,2.211l-2.119,2.211l-2.303,2.121l-2.486,2.117l-2.672,2.027l-2.764,1.934l-3.041,1.938l-3.131,1.75
		l-3.41,1.656l-3.5,1.566l-3.777,1.473l-3.961,1.383l-4.238,1.199l-4.33,1.105l-4.697,0.922l-4.791,0.734l-5.066,0.645l-5.344,0.461
		l-5.619,0.277l-5.803,0.094l-6.449-0.094l-6.219-0.277l-5.85-0.461l-5.619-0.645l-5.252-0.734l-5.02-1.016l-4.744-1.105
		l-4.516-1.195l-4.191-1.383l-3.961-1.473l-3.73-1.66l-3.502-1.656l-3.27-1.844l-3.041-1.934l-2.855-2.027l-2.625-2.121
		l-2.395-2.211l-2.258-2.211l-2.072-2.395l-1.889-2.301l-1.705-2.488l-1.566-2.488l-1.428-2.488l-1.242-2.484l-1.152-2.582
		l-1.014-2.578l-0.875-2.582l-0.783-2.578l-0.645-2.578l-0.6-2.582l-0.459-2.484l-0.416-2.488l-0.322-2.488l-0.23-2.488
		l-0.184-2.301l-0.139-2.395l-0.092-2.211l-0.092-2.211v-2.121l-0.047-2.027H157.889z"/>
</g>
</svg>
