<?xml version="1.0" encoding="utf-8"?>
<!-- Generator: Adobe Illustrator 16.0.1, SVG Export Plug-In . SVG Version: 6.00 Build 0)  -->
<!DOCTYPE svg PUBLIC "-//W3C//DTD SVG 1.0//EN" "http://www.w3.org/TR/2001/REC-SVG-20010904/DTD/svg10.dtd">
<svg version="1.0" id="_x31_" xmlns="http://www.w3.org/2000/svg" xmlns:xlink="http://www.w3.org/1999/xlink" x="0px" y="0px"
	 width="612px" height="792px" viewBox="0 0 612 792" enable-background="new 0 0 612 792" xml:space="preserve">
<g id="LWPOLYLINE">
	
		<path fill="none" stroke="#000000" stroke-width="0.7087" stroke-linecap="round" stroke-linejoin="round" stroke-miterlimit="10" d="
		M471.109,299.273l-0.553-5.57l-0.738-5.391l-1.014-5.203l-1.197-5.07l-1.381-4.883l-1.658-4.695l-1.844-4.562l-1.934-4.375
		l-2.211-4.238l-2.396-4.051l-2.578-3.918l-2.672-3.73l-2.855-3.594l-3.041-3.406l-3.225-3.316l-3.316-3.133l-3.408-2.949
		l-3.592-2.855l-3.686-2.672l-3.869-2.578l-3.961-2.395l-4.055-2.258l-4.145-2.117l-4.238-2.027l-4.33-1.844l-4.422-1.703
		l-4.514-1.613l-4.605-1.473l-4.607-1.336l-4.697-1.199l-4.699-1.105l-4.883-0.969l-4.789-0.828l-4.883-0.734l-4.883-0.602
		l-4.975-0.504l-4.883-0.371l-4.975-0.277l-4.975-0.184l-4.975-0.043l-9.213,0.184l-9.027,0.461l-8.752,0.781l-8.613,1.059
		l-8.383,1.43l-8.154,1.656l-7.922,1.98l-7.738,2.258l-7.463,2.535l-7.277,2.809l-7.047,3.086l-6.863,3.363l-6.586,3.637
		l-6.357,3.871l-6.172,4.145l-5.941,4.375l-5.666,4.609l-5.482,4.883l-5.205,5.109l-5.02,5.344l-4.744,5.527l-4.561,5.805
		l-4.283,5.988l-4.055,6.219l-3.822,6.402l-3.594,6.633l-3.316,6.816l-3.086,7l-2.902,7.234l-2.578,7.367l-2.396,7.602l-2.117,7.738
		l-1.889,7.922l-1.613,8.062l-1.381,8.246l-1.152,8.43l-0.875,8.566l-0.645,8.703l-0.369,8.844l-0.139,8.984l0.139,9.211
		l0.414,9.027l0.646,8.844l0.92,8.617l1.197,8.383l1.475,8.199l1.705,8.012l1.98,7.738l2.211,7.555l2.441,7.277l2.764,7.094
		l2.947,6.91l3.225,6.727l3.5,6.355l3.686,6.266l3.961,5.988l4.191,5.711l4.422,5.527l4.699,5.344l4.883,5.066l5.158,4.883
		l5.344,4.512l5.619,4.422l5.85,4.145l6.035,3.871l6.264,3.594l6.541,3.406l6.725,3.227l6.908,2.855l7.188,2.672l7.369,2.488
		l7.6,2.117l7.785,1.934l8.014,1.66l8.246,1.473l8.43,1.105l8.613,0.922l8.844,0.645l9.027,0.367l9.213,0.188h4.975l4.883-0.094
		l4.791-0.184l4.697-0.184l4.605-0.188l4.607-0.273l4.514-0.371l4.514-0.367l4.33-0.367l4.33-0.461l4.238-0.461l4.145-0.555
		l4.053-0.551l4.055-0.555l3.961-0.551l3.869-0.645l3.777-0.645l3.686-0.645l3.592-0.738l3.594-0.645l3.408-0.738l3.408-0.738
		l3.316-0.734l3.133-0.738l3.131-0.738l3.041-0.734l3.039-0.828l2.857-0.738l2.764-0.738l2.67-0.734l2.58-0.738l2.488-0.738
		l2.486-0.734l2.303-0.648l2.211-0.734l2.119-0.645l2.027-0.645l1.934-0.645l1.936-0.648l1.658-0.551c0-0.367,0-1.383,0-1.383
		v-1.656v-2.305v-2.855v-3.41v-3.867v-4.332v-4.789v-5.16v-5.527v-5.895v-6.078v-6.449v-6.543v-6.816v-6.91v-7v-7.188v-7.094v-7.184
		v-7.094v-7v-6.91v-6.816v-6.586v-6.406v-6.125v-5.848v-5.527v-5.207v-4.742v-4.379v-3.867v-3.41v-2.855v-2.258v-1.703v-1.012
		c-0.184-0.371-1.014-0.371-1.014-0.371h-1.197h-1.75h-2.119h-2.58h-2.947h-3.225h-3.594h-3.961h-4.145h-4.422h-4.607h-4.789h-4.975
		h-5.068h-5.25h-5.252h-5.342h-5.436h-5.344h-5.344h-5.342h-5.16h-5.158h-4.883h-4.883h-4.605h-4.422h-4.146h-3.869h-3.592h-3.316
		h-2.855h-2.58h-2.119h-1.75h-1.289h-0.738c-0.275,0.324-0.275,0.691-0.275,0.691v0.555v0.645v0.734v0.922v0.969v1.105v1.152v1.289
		v1.336v1.383v1.473v1.473v1.566v1.566v1.613v1.609v1.613v1.66v1.609v1.613v1.566v1.52v1.52v1.477v1.379v1.336v1.246v1.195v1.062
		v1.012v0.875v0.781v0.648v0.504c0,0.414,0,0.645,0,0.645c0.184,0.047,0.645,0.047,0.645,0.047h0.828h1.105h1.291h1.658h1.842h2.027
		h2.303h2.486h2.58h2.764h2.949h3.039h3.133h3.225h3.316h3.316h3.408h3.408h3.316h3.408h3.316h3.316h3.225h3.133h3.039h2.949h2.764
		h2.578h2.488h2.303h2.027h1.842h1.658h1.383h1.012h0.83h0.461c0.184,0.23,0.184,0.828,0.184,0.828v1.016v1.383v1.75v2.023v2.352
		v2.625v2.902v3.133v3.316v3.594v3.684v3.867v3.961v4.055v4.238v4.238v4.328v4.238v4.332v4.328v4.238v4.145v4.145v3.961v3.871v3.684
		v3.594v3.316v3.133v2.855v2.672v2.301v2.027v1.75v1.383v1.016v0.645c0,0.184-1.014,0.461-1.014,0.461l-1.105,0.273l-1.105,0.371
		l-1.197,0.273l-1.197,0.371l-1.383,0.367l-1.289,0.367l-1.475,0.277l-1.473,0.371l-1.475,0.367l-1.566,0.461l-1.658,0.367
		l-1.75,0.367l-1.75,0.371l-1.75,0.367l-1.936,0.367l-1.934,0.371l-1.936,0.367l-2.027,0.367l-2.117,0.371l-2.119,0.367
		l-2.211,0.277l-2.303,0.367l-2.305,0.277l-2.395,0.367l-2.395,0.277l-2.488,0.277l-2.58,0.277l-2.578,0.273l-2.672,0.184
		l-2.764,0.277l-2.764,0.184l-2.764,0.188l-2.947,0.184l-2.949,0.09l-2.947,0.184h-3.041l-3.131,0.094l-3.225,0.094h-3.225
		l-7.463-0.094l-7.277-0.367l-7.002-0.555l-6.816-0.828l-6.586-1.012l-6.311-1.293l-6.08-1.473l-5.85-1.656l-5.666-1.844
		l-5.391-2.121l-5.203-2.301l-4.975-2.488l-4.791-2.762l-4.561-2.859l-4.33-3.129l-4.145-3.316l-3.963-3.504l-3.73-3.684
		l-3.547-3.867l-3.361-4.055l-3.133-4.238l-2.994-4.328l-2.764-4.609l-2.625-4.789l-2.396-4.883l-2.256-5.066l-2.072-5.25
		l-1.889-5.438l-1.752-5.617l-1.564-5.711l-1.428-5.898l-1.244-5.988l-1.061-6.219l-0.92-6.355l-0.783-6.449l-0.645-6.633
		l-0.508-6.77l-0.322-6.863l-0.23-7.047l-0.045-7.141l0.045-6.355l0.184-6.266l0.369-6.219l0.461-6.125l0.553-6.035l0.736-5.988
		l0.922-5.895l1.014-5.805l1.15-5.711l1.336-5.574l1.475-5.527l1.611-5.344l1.797-5.297l1.936-5.113l2.119-5.02l2.256-4.883
		l2.441-4.699l2.625-4.605l2.764-4.422l2.949-4.328l3.131-4.102l3.316-3.961l3.502-3.824l3.684-3.59l3.869-3.457l4.055-3.27
		l4.238-3.039l4.422-2.902l4.652-2.672l4.836-2.441l5.02-2.258l5.252-2.027l5.436-1.84l5.666-1.566l5.85-1.383l6.08-1.105
		l6.311-0.922l6.494-0.598l6.725-0.414l7.002-0.141l3.961,0.047l3.777,0.141l3.777,0.23l3.592,0.32l3.594,0.414l3.408,0.461
		l3.408,0.598l3.225,0.645l3.225,0.738l3.133,0.828l2.947,0.875l2.947,0.969l2.764,1.059l2.764,1.152l2.672,1.199l2.58,1.289
		l2.395,1.336l2.396,1.426l2.303,1.477l2.211,1.566l2.119,1.609l2.025,1.707l1.936,1.75l1.842,1.797l1.75,1.887l1.658,1.934
		l1.658,2.027l1.475,2.074l1.383,2.117l1.381,2.164l1.197,2.211l1.197,2.305l1.014,2.348l1.014,2.352l0.922,2.441l0.736,2.484
		l0.736,2.535l0.646,2.578l0.553,2.629l0.459,2.668H471.109z"/>
</g>
</svg>
