<?xml version="1.0" encoding="utf-8"?>
<!-- Generator: Adobe Illustrator 16.0.1, SVG Export Plug-In . SVG Version: 6.00 Build 0)  -->
<!DOCTYPE svg PUBLIC "-//W3C//DTD SVG 1.0//EN" "http://www.w3.org/TR/2001/REC-SVG-20010904/DTD/svg10.dtd">
<svg version="1.0" id="_x31_" xmlns="http://www.w3.org/2000/svg" xmlns:xlink="http://www.w3.org/1999/xlink" x="0px" y="0px"
	 width="612px" height="792px" viewBox="0 0 612 792" enable-background="new 0 0 612 792" xml:space="preserve">
<g id="LWPOLYLINE">
	
		<path fill="none" stroke="#000000" stroke-width="0.7087" stroke-linecap="round" stroke-linejoin="round" stroke-miterlimit="10" d="
		M186.674,481.43l0.047,1.227v1.227v1.324l0.047,1.32l0.049,1.414l0.047,1.414l0.094,1.512l0.094,1.602l0.096,1.512l0.141,1.602
		l0.189,1.699l0.141,1.699l0.236,1.699l0.236,1.793l0.234,1.793l0.283,1.793l0.33,1.887l0.332,1.887l0.377,1.887l0.424,1.887
		l0.473,1.887l0.471,1.98l0.52,1.98l0.613,1.984l0.566,1.98l0.66,1.98l0.707,1.98l0.756,1.984l0.801,1.98l0.85,1.98l0.896,2.074
		l0.943,1.984l0.99,1.98l1.039,1.98l1.131,1.98l1.18,1.984l1.227,1.887l1.273,1.98l1.369,1.887l1.414,1.887l2.076,2.734l2.123,2.551
		l2.217,2.453l2.219,2.355l2.311,2.266l2.406,2.172l2.406,2.074l2.453,1.887l2.5,1.887l2.5,1.793l2.547,1.605l2.596,1.602
		l2.641,1.512l2.596,1.414l2.643,1.32l2.688,1.227l2.643,1.133l2.643,1.133l2.641,0.941l2.689,0.945l2.594,0.945l2.643,0.754
		l2.643,0.754l2.547,0.66l2.547,0.66l2.549,0.566l2.453,0.473l2.453,0.473l2.453,0.375l2.357,0.379l2.266,0.281l2.264,0.285
		l2.17,0.281l2.076,0.191l2.076,0.094l1.98,0.188l1.887,0.094h1.793l1.793,0.094h1.604l4.906-0.094l4.906-0.281l4.812-0.379
		l4.811-0.473l4.719-0.66l4.717-0.848l4.623-0.945l4.623-1.133l4.529-1.227l4.436-1.414l4.34-1.602l4.246-1.699l4.244-1.793
		l4.059-1.98l4.057-2.078l3.867-2.262l3.869-2.453l3.68-2.453l3.586-2.645l3.49-2.828l3.303-2.926l3.207-3.113l3.115-3.113
		l2.924-3.398l2.83-3.395l2.643-3.586l2.453-3.773l2.359-3.773l2.17-3.965l2.074-4.152l1.793-4.246l1.699-4.34l1.51-4.434
		l1.32-4.621l1.133-4.719l0.943-4.812l0.754-4.906l0.473-5.094l0.377-5.191l0.094-5.281v-0.566v-1.512v-2.547v-3.492v-4.246v-5.188
		v-5.852v-6.602v-7.172v-7.832v-8.348v-8.871v-9.246v-9.672v-9.953v-10.285v-10.426v-10.66v-10.707v-10.805v-10.758v-10.754v-10.613
		v-10.473v-10.238v-10v-9.625v-9.293v-8.871v-8.348v-7.832v-7.219v-6.559v-5.895v-5.098v-4.293v-3.488v-2.5v-1.559v-0.52
		c-0.471,0-0.943,0-0.943,0h-0.66h-0.85h-0.943h-1.131h-1.322h-1.414h-1.51h-1.604h-1.793h-1.793h-1.887h-1.887h-1.982h-2.076
		h-2.074h-2.076h-2.076h-2.076h-2.17h-2.076H390h-1.982h-1.98h-1.887h-1.793h-1.699h-1.604h-1.604h-1.32h-1.322h-1.131h-1.039
		h-0.848h-0.662h-0.471c-0.377,0-0.377,0.473-0.377,0.473v1.461v2.406v3.258v4.102v4.859v5.52v6.227v6.844v7.406v7.926v8.348v8.777
		v9.148v9.438v9.719v9.859v10.094v10.145v10.188v10.238v10.145v10.047v9.906v9.719v9.434v9.105v8.773v8.398v7.926v7.359v6.84v6.273
		v5.566v4.812v4.059v3.301v2.359v1.512v0.469v0.852v0.941v1.039v1.039v1.035v1.133l-0.096,1.133v1.227v1.227l-0.094,1.32v1.227
		l-0.094,1.32l-0.096,1.418l-0.094,1.32l-0.094,1.414l-0.096,1.414l-0.094,1.418l-0.188,1.414l-0.096,1.512l-0.188,1.508
		l-0.189,1.414l-0.189,1.512l-0.283,1.508l-0.188,1.512l-0.283,1.508l-0.283,1.512l-0.377,1.602l-0.283,1.512l-0.377,1.414
		l-0.379,1.508l-0.471,1.512l-0.473,1.508l-0.471,1.418l-0.473,1.508l-0.566,1.414l-0.564,1.418l-0.566,1.414l-0.66,1.32
		l-0.662,1.32l-0.754,1.324l-0.85,1.32l-0.943,1.227l-0.943,1.32l-0.943,1.133l-1.037,1.227l-1.039,1.133l-1.131,1.129l-1.133,1.039
		l-1.133,1.039l-1.133,1.035l-1.227,0.945l-1.227,1.039l-1.227,0.848l-1.32,0.945l-1.32,0.848l-1.32,0.848l-1.322,0.758l-1.32,0.848
		l-1.416,0.66l-1.414,0.754l-1.416,0.66l-1.416,0.66l-1.508,0.566l-1.416,0.566l-1.51,0.566l-1.51,0.473l-1.51,0.473l-1.51,0.473
		l-1.51,0.375l-1.604,0.379l-1.51,0.375l-1.604,0.285l-1.51,0.281l-1.604,0.191l-1.604,0.188l-1.605,0.188l-1.51,0.094l-1.604,0.098
		l-1.604,0.094H306.5h-2.17l-2.076-0.094l-2.076-0.098l-1.98-0.188l-1.982-0.188l-1.887-0.285l-1.793-0.281l-1.887-0.379
		l-1.697-0.375l-1.699-0.379l-1.699-0.473l-1.604-0.473l-1.604-0.469l-1.51-0.566l-1.51-0.566l-1.51-0.566l-1.414-0.566l-1.322-0.66
		l-1.32-0.66l-1.32-0.66l-1.227-0.754l-1.227-0.664l-1.133-0.754l-1.133-0.754l-1.131-0.754l-1.039-0.754l-1.037-0.758l-0.943-0.754
		l-1.039-0.848l-0.848-0.758l-0.943-0.754l-0.85-0.848l-0.756-0.754l-0.754-0.758l-0.803-0.848l-0.707-0.754l-0.66-0.754
		l-0.66-0.758l-0.613-0.754l-0.613-0.754l-0.566-0.945l-0.52-1.035l-0.52-1.039l-0.471-1.133l-0.473-1.039l-0.424-1.129
		l-0.424-1.039l-0.379-1.133l-0.377-1.133l-0.33-1.133l-0.283-1.035l-0.33-1.133l-0.236-1.227l-0.283-1.133l-0.234-1.133
		l-0.189-1.133l-0.236-1.133l-0.141-1.227l-0.189-1.129l-0.141-1.133l-0.143-1.133l-0.141-1.227l-0.096-1.133l-0.094-1.133
		l-0.094-1.133l-0.096-1.227l-0.047-1.133l-0.047-1.129l-0.047-1.133l-0.047-1.133l-0.047-1.133v-1.039l-0.047-1.129v-1.133v-1.039
		l-0.049-1.039v-1.133v-1.035v-1.039v-1.039H186.674z"/>
</g>
</svg>
