<?xml version="1.0" encoding="utf-8"?>
<!-- Generator: Adobe Illustrator 16.0.1, SVG Export Plug-In . SVG Version: 6.00 Build 0)  -->
<!DOCTYPE svg PUBLIC "-//W3C//DTD SVG 1.0//EN" "http://www.w3.org/TR/2001/REC-SVG-20010904/DTD/svg10.dtd">
<svg version="1.0" id="_x31_" xmlns="http://www.w3.org/2000/svg" xmlns:xlink="http://www.w3.org/1999/xlink" x="0px" y="0px"
	 width="612px" height="792px" viewBox="0 0 612 792" enable-background="new 0 0 612 792" xml:space="preserve">
<g id="LWPOLYLINE">
	
		<path fill="none" stroke="#000000" stroke-width="0.7087" stroke-linecap="round" stroke-linejoin="round" stroke-miterlimit="10" d="
		M132.332,195.5c0.238,0.336,1.004,1.391,1.004,1.391l1.244,1.676l1.629,2.25l2.105,2.871l2.49,3.352l2.824,3.875l3.207,4.359
		l3.447,4.785l3.781,5.172l4.068,5.504l4.26,5.84l4.5,6.129l4.645,6.414l4.834,6.559l4.979,6.797l5.027,6.891l5.17,7.039l5.17,7.086
		l5.217,7.129l5.219,7.133l5.17,7.086l5.17,6.988l5.074,6.941l4.93,6.75l4.836,6.605l4.643,6.367l4.5,6.129l4.26,5.84l4.068,5.504
		l3.783,5.172l3.494,4.785l3.158,4.355l2.873,3.879l2.441,3.352l2.105,2.871l1.676,2.297l1.197,1.629l0.766,1.051
		c0.24,0.336-0.047,0.719-0.047,0.719l-0.863,1.148l-1.34,1.82l-1.914,2.539l-2.346,3.156l-2.777,3.688l-3.207,4.309l-3.59,4.785
		l-3.926,5.266l-4.26,5.699l-4.547,6.078l-4.836,6.461l-5.025,6.75l-5.266,7.039l-5.459,7.273l-5.553,7.469l-5.695,7.66l-5.793,7.66
		l-5.84,7.848l-5.889,7.852l-5.887,7.852l-5.84,7.852l-5.793,7.754l-5.697,7.66l-5.6,7.465l-5.41,7.277l-5.266,6.988l-5.074,6.801
		l-4.787,6.414l-4.596,6.125l-4.26,5.648l-3.926,5.266l-3.59,4.789l-3.207,4.309l-2.777,3.734l-2.346,3.156l-1.865,2.492
		l-1.389,1.816l-0.861,1.148c0.238,0.383,0.812,0.383,0.812,0.383h0.861h1.006h1.244h1.389h1.58h1.723h1.82h2.01h2.105h2.203h2.297
		h2.395h2.441h2.488h2.537h2.586h2.537h2.584h2.537h2.537h2.49h2.441h2.393h2.299h2.201h2.105h2.012h1.867h1.723h1.58h1.389h1.195
		h1.055h0.812h0.623c0.334,0,0.479,0,0.479,0c0.24-0.285,0.861-1.242,0.861-1.242l1.102-1.531l1.436-2.109l1.818-2.488l2.154-3.16
		l2.49-3.445l2.775-3.926l3.064-4.402l3.303-4.691l3.494-4.98l3.783-5.266l3.877-5.551l4.117-5.84l4.211-5.938l4.309-6.125
		l4.404-6.32l4.5-6.32l4.547-6.508l4.549-6.414l4.547-6.512l4.549-6.414l4.451-6.32l4.451-6.316l4.309-6.129l4.213-6.031
		l4.068-5.746l3.926-5.551l3.734-5.266l3.541-5.074l3.305-4.691l3.016-4.309l2.775-3.926l2.49-3.543l2.154-3.062l1.818-2.586
		l1.484-2.059l1.053-1.484l0.67-0.957c0.432,0,1.102,0.957,1.102,0.957l1.053,1.484l1.436,2.059l1.82,2.586l2.201,3.062l2.49,3.543
		l2.775,3.926l3.064,4.309l3.254,4.691l3.543,5.074l3.734,5.266l3.926,5.551l4.115,5.746l4.213,6.031l4.309,6.129l4.404,6.316
		l4.5,6.32l4.5,6.414l4.596,6.512l4.498,6.414l4.596,6.508l4.404,6.32l4.5,6.32l4.309,6.125l4.213,5.938l4.02,5.84l3.926,5.551
		l3.734,5.266l3.543,4.98l3.35,4.691l2.969,4.402l2.775,3.926l2.49,3.445l2.201,3.16l1.82,2.488l1.436,2.109l1.053,1.531l0.67,0.957
		c0.383,0.285,0.766,0.285,0.766,0.285h0.576h0.861h1.053h1.244h1.436h1.629h1.818h1.916h2.01h2.201h2.299h2.297h2.49h2.488h2.586
		h2.584h2.682h2.584h2.682h2.584h2.586h2.584h2.586h2.393h2.395h2.297h2.107h2.105h1.914h1.725h1.627h1.436h1.246h1.053h0.861h0.574
		c0.383,0,0.574,0,0.574,0c-0.287-0.383-1.148-1.531-1.148-1.531l-1.244-1.816l-1.82-2.492l-2.297-3.156l-2.682-3.734l-3.062-4.309
		l-3.447-4.789l-3.83-5.266l-4.115-5.648l-4.309-6.125l-4.691-6.414l-4.883-6.801l-5.074-6.988l-5.17-7.277l-5.361-7.465
		l-5.553-7.66l-5.553-7.754l-5.648-7.852l-5.65-7.852l-5.648-7.852l-5.648-7.848l-5.553-7.66l-5.457-7.66l-5.361-7.469l-5.266-7.273
		l-5.074-7.039l-4.883-6.75l-4.596-6.461l-4.404-6.078l-4.117-5.699l-3.732-5.266l-3.447-4.785l-3.064-4.309l-2.68-3.688
		l-2.297-3.156l-1.82-2.539l-1.34-1.82l-0.766-1.148c-0.287-0.383,0-0.719,0-0.719l0.766-1.051l1.244-1.629l1.723-2.297l2.107-2.871
		l2.584-3.352l2.873-3.879l3.256-4.355l3.637-4.785l3.83-5.172l4.213-5.504l4.404-5.84l4.596-6.129l4.787-6.367l4.979-6.605
		l5.074-6.75l5.17-6.941l5.361-6.988l5.266-7.086l5.361-7.133l5.361-7.129l5.361-7.086l5.266-7.039l5.266-6.891l5.074-6.797
		l4.979-6.559l4.787-6.414l4.596-6.129l4.402-5.84l4.117-5.504l3.926-5.172l3.543-4.785l3.35-4.359l2.873-3.875l2.584-3.352
		l2.107-2.871l1.723-2.25l1.244-1.676l0.768-1.055c-0.191-0.336-0.863-0.336-0.863-0.336h-0.766h-1.053h-1.244h-1.34h-1.629h-1.723
		h-1.818h-2.012h-2.105h-2.203h-2.297h-2.395h-2.393h-2.49H460h-2.586h-2.584h-2.49h-2.584h-2.586h-2.488h-2.395h-2.393h-2.297
		h-2.203h-2.105h-2.012h-1.818h-1.723h-1.629h-1.34h-1.244h-1.053h-0.768h-0.67c-0.383,0-0.479,0-0.479,0
		c-0.191,0.289-0.766,1.102-0.766,1.102l-0.957,1.34l-1.244,1.867l-1.629,2.25l-1.914,2.73l-2.201,3.109l-2.49,3.496l-2.68,3.828
		l-2.969,4.168l-3.16,4.449l-3.254,4.691l-3.543,4.93l-3.543,5.125l-3.732,5.312l-3.83,5.457l-3.926,5.551l-4.021,5.652
		l-4.021,5.695l-4.02,5.742l-4.021,5.699l-4.021,5.695l-4.021,5.648l-3.924,5.555l-3.83,5.457l-3.734,5.312l-3.639,5.121
		l-3.445,4.93l-3.352,4.691l-3.064,4.453l-2.967,4.117l-2.682,3.879l-2.488,3.492l-2.203,3.113l-1.914,2.727l-1.627,2.297
		l-1.244,1.82l-0.959,1.34l-0.574,0.816c-0.383,0-1.053-0.816-1.053-0.816l-0.957-1.34l-1.244-1.82l-1.725-2.297l-1.914-2.727
		l-2.25-3.113l-2.49-3.492l-2.775-3.879l-2.969-4.117l-3.207-4.453l-3.35-4.691l-3.543-4.93l-3.686-5.121l-3.783-5.312l-3.924-5.457
		l-3.975-5.555l-4.068-5.648l-4.117-5.695l-4.117-5.699l-4.068-5.742l-4.117-5.695l-4.068-5.652l-3.973-5.551l-3.926-5.457
		l-3.781-5.312l-3.686-5.125l-3.543-4.93l-3.352-4.691l-3.207-4.449l-2.967-4.168l-2.777-3.828l-2.488-3.496l-2.25-3.109
		l-1.963-2.73l-1.629-2.25l-1.34-1.867l-0.957-1.34l-0.574-0.812C202.939,195.5,132.332,195.5,132.332,195.5z"/>
</g>
</svg>
