<?xml version="1.0" encoding="utf-8"?>
<!-- Generator: Adobe Illustrator 16.0.1, SVG Export Plug-In . SVG Version: 6.00 Build 0)  -->
<!DOCTYPE svg PUBLIC "-//W3C//DTD SVG 1.0//EN" "http://www.w3.org/TR/2001/REC-SVG-20010904/DTD/svg10.dtd">
<svg version="1.0" id="_x31_" xmlns="http://www.w3.org/2000/svg" xmlns:xlink="http://www.w3.org/1999/xlink" x="0px" y="0px"
	 width="612px" height="792px" viewBox="0 0 612 792" enable-background="new 0 0 612 792" xml:space="preserve">
<g id="LWPOLYLINE">
	
		<path fill="none" stroke="#000000" stroke-width="0.7087" stroke-linecap="round" stroke-linejoin="round" stroke-miterlimit="10" d="
		M163.369,595.5c0.287,0,1.053,0,1.053,0h1.293h1.771h2.201h2.633h2.969h3.35h3.686h4.021h4.262h4.547h4.691h4.93h5.123h5.217h5.361
		h5.41h5.504h5.506h5.506h5.504h5.41h5.312h5.266h5.074h4.979h4.691h4.5h4.309h4.021h3.637h3.352h3.064h2.584h2.203h1.723h1.34
		h0.766c0.287,0,2.682,0,2.682,0h2.297h2.395h2.297h2.395l2.297-0.094h2.395l2.297-0.098h2.395l2.297-0.094l2.393-0.098l2.299-0.191
		l2.393-0.094l2.299-0.191l2.393-0.191l2.299-0.191l2.297-0.289l2.299-0.285l2.393-0.289l2.299-0.383l2.297-0.383l2.297-0.383
		l2.299-0.477l2.297-0.48l2.299-0.574l2.297-0.574l2.299-0.672l2.297-0.668l2.299-0.766l2.297-0.766l2.201-0.863l2.299-0.957
		l2.201-0.957l2.299-1.055l2.201-1.051l2.299-1.148l2.201-1.246l2.201-1.34l2.203-1.34l2.297-1.438l0.863-0.574l1.053-0.766
		l1.053-0.766l1.148-0.863l1.244-0.859l1.246-1.055l1.34-1.055l1.436-1.148l1.436-1.242l1.438-1.34l1.531-1.438l1.531-1.438
		l1.533-1.531l1.627-1.723l1.531-1.723l1.629-1.82l1.531-1.914l1.627-1.914l1.531-2.105l1.533-2.203l1.531-2.203l1.531-2.297
		l1.438-2.488l1.436-2.492l1.436-2.582l1.34-2.777l1.246-2.777l1.244-2.871l1.148-2.969l1.148-3.062l0.959-3.16l0.957-3.352
		l0.766-3.352l0.766-3.445l0.67-3.543l0.574-3.637l0.383-3.832l0.287-3.828l0.193-3.926l0.096-4.117l-0.096-5.648l-0.289-5.359
		l-0.574-5.172l-0.67-4.977l-0.861-4.789l-1.053-4.5l-1.148-4.402l-1.438-4.117l-1.436-4.02l-1.723-3.785l-1.725-3.637l-1.914-3.445
		l-2.01-3.258l-2.107-3.109l-2.201-2.969l-2.299-2.777l-2.297-2.633l-2.49-2.535l-2.488-2.348l-2.586-2.25l-2.584-2.105
		l-2.586-1.961l-2.68-1.867l-2.682-1.773l-2.68-1.625l-2.682-1.531l-2.68-1.438l-2.682-1.34l-2.584-1.246l-2.682-1.195l-2.584-1.102
		l-2.49-1.004l-2.488-0.961l-2.395-0.859l-2.297-0.863l-2.203-0.766l-2.201-0.719l-2.01-0.668l-2.012-0.621l-1.818-0.625l1.531-0.43
		l1.627-0.527l1.725-0.574l1.818-0.621l1.916-0.672l2.01-0.719l2.01-0.812l2.107-0.863l2.105-0.957l2.203-1.004l2.201-1.102
		l2.201-1.195l2.299-1.246l2.297-1.387l2.299-1.438l2.297-1.531l2.299-1.629l2.297-1.77l2.203-1.867l2.297-1.961l2.105-2.059
		l2.203-2.203l2.105-2.297l2.012-2.492l1.914-2.535l1.914-2.73l1.82-2.824l1.723-2.965l1.627-3.113l1.533-3.254l1.436-3.449
		l1.244-3.539l1.244-3.734l0.959-3.879l0.957-4.02l0.766-4.215l0.574-4.402l0.383-4.547l0.287-4.691l0.096-4.934v-2.344
		l-0.096-2.297l-0.096-2.301l-0.096-2.246l-0.191-2.203l-0.287-2.203l-0.287-2.152l-0.287-2.109l-0.383-2.105l-0.383-2.105
		l-0.383-2.012l-0.479-2.059l-0.479-1.961l-0.576-1.965l-0.479-1.914l-0.67-1.914l-0.574-1.867l-0.67-1.816l-0.67-1.82l-0.766-1.773
		l-0.766-1.77l-0.768-1.723l-0.766-1.676l-0.861-1.676l-0.861-1.629l-0.861-1.578l-0.957-1.578l-0.863-1.535l-0.957-1.531
		l-1.053-1.484l-0.957-1.434l-1.053-1.438l-1.055-1.387l-1.053-1.391l-1.053-1.34l-1.148-1.293l-1.053-1.293l-1.15-1.242
		l-1.148-1.246l-1.244-1.195l-1.914-1.867l-1.916-1.773l-1.914-1.723l-1.916-1.625l-2.01-1.582l-1.914-1.484l-2.012-1.434
		l-2.01-1.34l-2.107-1.293l-2.01-1.199l-2.105-1.148l-2.107-1.102l-2.201-1.051l-2.107-0.957l-2.297-0.91l-2.203-0.863l-2.297-0.812
		l-2.297-0.719l-2.395-0.719l-2.393-0.621l-2.395-0.621l-2.488-0.574l-2.586-0.48l-2.584-0.48l-2.682-0.43l-2.68-0.383l-2.777-0.336
		l-2.775-0.332l-2.873-0.289l-2.969-0.238l-2.967-0.191l-3.064-0.191l-3.062-0.145l-3.256-0.145l-3.256-0.094l-3.254-0.098
		l-3.447-0.047l-3.447-0.047l-3.637-0.051h-3.639c-0.191,0-0.957,0-0.957,0h-1.34h-1.725h-2.201h-2.586h-2.871h-3.352h-3.639h-3.924
		h-4.213h-4.5h-4.691h-4.883h-4.979h-5.17h-5.266h-5.361h-5.41h-5.457h-5.408h-5.41h-5.361h-5.266h-5.17h-5.025h-4.883h-4.645
		h-4.451h-4.213h-3.973h-3.639h-3.303h-2.969h-2.584h-2.154h-1.771h-1.244h-0.766C163.369,195.5,163.369,595.5,163.369,595.5z"/>
</g>
<g id="LWPOLYLINE_1_">
	
		<path fill="none" stroke="#000000" stroke-width="0.7087" stroke-linecap="round" stroke-linejoin="round" stroke-miterlimit="10" d="
		M220.238,240.594c0.143,0,0.574,0,0.574,0h0.67h0.957h1.148h1.389h1.629h1.77h1.963h2.154h2.25h2.441h2.49h2.633h2.729h2.775h2.873
		h2.871h2.969h2.871h2.969h2.969h2.871h2.873h2.775h2.682h2.68h2.49h2.393h2.299h2.105h2.01h1.82h1.531h1.436h1.15h0.957h0.67
		c0.479,0,0.574,0,0.574,0h2.395h2.488l2.49,0.051h2.488l2.586,0.094l2.68,0.047l2.586,0.145l2.68,0.145l2.682,0.238l2.775,0.238
		l2.682,0.336l2.68,0.336l2.682,0.48l2.68,0.523l2.682,0.574l2.584,0.672l2.586,0.812l2.584,0.863l2.49,0.957l2.488,1.102
		l2.395,1.195l2.297,1.293l2.299,1.484l2.201,1.531l2.01,1.723l2.012,1.867l1.914,2.012l1.82,2.152l1.723,2.301l1.627,2.488
		l1.436,2.633l1.342,2.824l1.148,3.016l1.148,3.207l0.861,3.398l0.766,3.59l0.576,3.781l0.479,4.023l0.287,4.211l0.096,4.453
		l-0.191,4.594l-0.287,4.355l-0.574,4.117l-0.768,3.926l-1.053,3.734l-1.148,3.496l-1.34,3.301l-1.533,3.113l-1.723,2.871
		l-1.818,2.777l-1.916,2.535l-2.105,2.395l-2.201,2.25l-2.395,2.059l-2.393,1.914l-2.49,1.773l-2.584,1.578l-2.586,1.531
		l-2.775,1.34l-2.682,1.246l-2.777,1.102l-2.775,1.004l-2.873,0.91l-2.775,0.812l-2.777,0.719l-2.775,0.574l-2.777,0.574l-2.68,0.43
		l-2.682,0.383l-2.584,0.336l-2.586,0.289l-2.393,0.191l-2.395,0.191l-2.201,0.094l-2.203,0.098l-2.01,0.047l-1.818,0.047h-1.725
		l-1.627,0.051h-1.34c-0.191,0-0.574,0-0.574,0h-0.672h-0.957h-1.148h-1.34h-1.533h-1.723h-2.01h-2.012h-2.201h-2.395h-2.488h-2.488
		h-2.682h-2.777h-2.775h-2.777h-2.871h-2.873h-2.824h-2.871h-2.824h-2.777h-2.729h-2.633h-2.586h-2.439h-2.346h-2.25H230.1h-1.916
		h-1.771h-1.531h-1.389h-1.148h-0.908h-0.672c-0.383,0-0.525,0-0.525,0V240.594z"/>
</g>
<g id="LWPOLYLINE_2_">
	
		<path fill="none" stroke="#000000" stroke-width="0.7087" stroke-linecap="round" stroke-linejoin="round" stroke-miterlimit="10" d="
		M220.238,411.203c0.143,0,0.67,0,0.67,0h0.861h1.148h1.438h1.723h1.963h2.154h2.441h2.584h2.824h2.92h3.111h3.209h3.35h3.398h3.543
		h3.543h3.541h3.639h3.543h3.639h3.541h3.447h3.447h3.35h3.16h3.158h2.873h2.873h2.584h2.395h2.201h1.914h1.725h1.436h1.148h0.861
		h0.576c0.096,0,3.732,0.047,3.732,0.047l3.639,0.145l3.447,0.289l3.35,0.383l3.352,0.477l3.16,0.574l3.158,0.672l3.064,0.766
		l2.967,0.859l2.873,0.957l2.775,1.102l2.777,1.102l2.584,1.246l2.586,1.34l2.393,1.387l2.395,1.484l2.201,1.582l2.203,1.676
		l2.105,1.723l2.012,1.77l1.914,1.867l1.818,1.961l1.629,2.012l1.627,2.105l1.531,2.156l1.438,2.203l1.34,2.297l1.244,2.297
		l1.148,2.395l1.053,2.488l0.959,2.488l0.861,2.586l0.766,2.586l0.67,2.68l0.574,2.68l0.479,2.777l0.287,2.777l0.287,2.871
		l0.191,2.871v2.969l-0.096,3.445l-0.191,3.352l-0.287,3.352l-0.479,3.16l-0.574,3.16l-0.67,2.969l-0.766,2.871l-0.957,2.871
		l-1.055,2.68l-1.148,2.684l-1.244,2.582l-1.34,2.395l-1.438,2.395l-1.531,2.297l-1.627,2.105l-1.725,2.105l-1.914,2.012
		l-1.914,1.914l-2.012,1.82l-2.105,1.723l-2.105,1.723l-2.299,1.535l-2.297,1.434l-2.395,1.438l-2.488,1.242l-2.49,1.246
		l-2.68,1.148l-2.586,1.055l-2.775,0.859l-2.777,0.957l-2.871,0.77l-2.873,0.668l-2.969,0.672l-2.967,0.477l-3.064,0.48
		l-3.062,0.383l-3.064,0.285l-3.16,0.191l-3.158,0.098h-3.256c-0.191,0-0.67,0-0.67,0h-0.861h-1.148h-1.342h-1.723h-1.914h-2.107
		h-2.393h-2.586h-2.68h-2.873h-3.062h-3.16h-3.256h-3.35h-3.447h-3.447h-3.541h-3.543h-3.447h-3.541h-3.496h-3.398h-3.35h-3.256
		h-3.16h-3.062h-2.873h-2.729h-2.537h-2.393h-2.154h-1.916h-1.674h-1.389h-1.148h-0.814h-0.527
		C220.238,548.398,220.238,411.203,220.238,411.203z"/>
</g>
</svg>
