<?xml version="1.0" encoding="utf-8"?>
<!-- Generator: Adobe Illustrator 16.0.1, SVG Export Plug-In . SVG Version: 6.00 Build 0)  -->
<!DOCTYPE svg PUBLIC "-//W3C//DTD SVG 1.0//EN" "http://www.w3.org/TR/2001/REC-SVG-20010904/DTD/svg10.dtd">
<svg version="1.0" id="_x31_" xmlns="http://www.w3.org/2000/svg" xmlns:xlink="http://www.w3.org/1999/xlink" x="0px" y="0px"
	 width="612px" height="792px" viewBox="0 0 612 792" enable-background="new 0 0 612 792" xml:space="preserve">
<g id="LWPOLYLINE">
	
		<path fill="none" stroke="#000000" stroke-width="0.7087" stroke-linecap="round" stroke-linejoin="round" stroke-miterlimit="10" d="
		M142.285,595.5c0.383,0,0.814,0,0.814,0h0.621h0.766h0.91h1.006h1.195h1.246h1.387h1.484h1.58h1.627h1.725h1.771h1.818h1.818h1.916
		h1.867h1.914h1.914h1.916h1.867h1.865h1.82h1.771h1.674h1.676h1.58h1.436h1.389h1.293h1.148h1.053h0.91h0.766h0.623
		c0.43,0,0.717,0,0.717,0c0.096,0,0.096-0.668,0.096-0.668v-1.82v-2.969v-4.02v-5.074v-6.031v-6.988v-7.758v-8.422v-9.289v-9.859
		v-10.34v-10.914v-11.395v-11.777v-12.062v-12.348v-12.543v-12.637v-12.688v-12.734v-12.637v-12.492v-12.352v-12.062v-11.777V340.5
		v-10.965v-10.387v-9.859v-9.191v-8.52v-7.758v-6.941v-6.031v-5.074v-4.066v-2.969v-1.82v-0.621l0.383,0.621l1.102,1.82l1.771,2.969
		l2.441,4.066l3.064,5.074l3.637,6.031l4.117,6.941l4.691,7.758l5.123,8.52l5.504,9.191l5.936,9.859l6.271,10.387l6.559,10.965
		l6.846,11.344l7.084,11.777l7.229,12.062l7.42,12.352l7.516,12.492l7.611,12.637l7.658,12.734l7.611,12.688l7.66,12.637
		l7.467,12.543l7.469,12.348l7.18,12.062l7.084,11.777l6.895,11.395l6.51,10.914l6.318,10.34l5.936,9.859l5.457,9.289l5.172,8.422
		l4.594,7.758l4.213,6.988l3.639,6.031l3.064,5.074l2.393,4.02l1.818,2.969l1.055,1.82l0.383,0.668c0.191,0,0.574,0,0.574,0h0.574
		h0.957h1.053h1.244h1.533h1.627h1.818h2.012h2.105h2.203h2.297h2.49h2.488h2.586h2.68h2.682h2.68h2.682h2.775h2.682h2.68h2.586
		h2.584h2.586h2.393h2.299h2.297h2.107h1.914h1.818h1.725h1.436h1.34h1.053h0.863h0.67c0.383,0,0.479,0,0.479,0v-0.766v-2.105
		v-3.543v-4.785v-6.031v-7.086v-8.137v-9.191v-9.957v-10.914v-11.586v-12.254v-12.926v-13.402v-13.883v-14.266v-14.504v-14.742
		v-14.938V395.5v-14.98v-14.938V350.84v-14.555V322.07v-13.883v-13.402v-12.879v-12.301V258.02v-10.867v-10.051v-9.145v-8.137
		v-7.133v-5.984v-4.785v-3.496v-2.156V195.5c-0.383,0-0.766,0-0.766,0h-0.67h-0.768h-0.861h-1.053h-1.148h-1.342h-1.34h-1.531
		h-1.531h-1.629h-1.723h-1.723h-1.82h-1.914h-1.818h-1.916h-1.914h-1.916h-1.914h-1.914h-1.82h-1.818h-1.723h-1.725h-1.627h-1.627
		h-1.438h-1.436h-1.244h-1.148h-1.055h-0.957h-0.766h-0.574c-0.479,0-0.67,0-0.67,0c-0.096,0-0.096,0.625-0.096,0.625v1.77v2.871
		v3.977v4.93v5.84v6.703v7.562v8.234v8.949v9.574v10.102v10.625v11.059v11.395v11.727v11.969v12.16v12.301v12.352v12.348v12.258
		v12.156v11.969v11.727v11.441v11.012v10.578v10.148v9.574v9v8.234v7.465v6.801v5.84v4.883v4.02v2.871v1.723v0.672l-0.383-0.672
		l-1.148-1.723l-1.725-2.871l-2.393-4.02l-2.969-4.883l-3.543-5.84l-4.115-6.801l-4.596-7.465l-4.979-8.234l-5.457-9l-5.744-9.574
		l-6.225-10.148l-6.414-10.578l-6.701-11.012l-6.893-11.441l-7.182-11.727l-7.275-11.969l-7.373-12.156l-7.467-12.258l-7.469-12.348
		l-7.467-12.352l-7.469-12.301l-7.371-12.16l-7.275-11.969l-7.133-11.727l-6.941-11.395l-6.701-11.059l-6.416-10.625l-6.174-10.102
		l-5.793-9.574l-5.41-8.949l-5.025-8.234l-4.596-7.562l-4.068-6.703l-3.543-5.84l-3.016-4.93l-2.395-3.977l-1.723-2.871l-1.102-1.77
		l-0.383-0.625c-0.143,0-0.525,0-0.525,0h-0.67h-0.91h-1.148h-1.389h-1.531h-1.771h-1.916h-2.057h-2.25h-2.346h-2.441h-2.586h-2.633
		h-2.729h-2.775h-2.824h-2.873h-2.824h-2.873h-2.871h-2.824h-2.777h-2.729h-2.633h-2.584h-2.441h-2.346h-2.25h-2.059h-1.916h-1.723
		h-1.58h-1.387h-1.102h-0.957h-0.67c-0.385,0-0.527,0-0.527,0V595.5z"/>
</g>
</svg>
