<?xml version="1.0" encoding="utf-8"?>
<!-- Generator: Adobe Illustrator 16.0.1, SVG Export Plug-In . SVG Version: 6.00 Build 0)  -->
<!DOCTYPE svg PUBLIC "-//W3C//DTD SVG 1.0//EN" "http://www.w3.org/TR/2001/REC-SVG-20010904/DTD/svg10.dtd">
<svg version="1.0" id="_x31_" xmlns="http://www.w3.org/2000/svg" xmlns:xlink="http://www.w3.org/1999/xlink" x="0px" y="0px"
	 width="612px" height="792px" viewBox="0 0 612 792" enable-background="new 0 0 612 792" xml:space="preserve">
<g id="LWPOLYLINE">
	
		<path fill="none" stroke="#000000" stroke-width="0.7087" stroke-linecap="round" stroke-linejoin="round" stroke-miterlimit="10" d="
		M95.705,595.5c0.383,0,0.861,0,0.861,0h0.67h0.814h0.957h1.148h1.244h1.389h1.484h1.58h1.676h1.818h1.818h1.916h1.914h2.01h2.012
		h2.059h2.059h2.059h2.057h2.012h2.01h1.963h1.916h1.818h1.771h1.676h1.578h1.533h1.34h1.293h1.1h0.959h0.861h0.621
		c0.479,0,0.814,0,0.814,0c0.096,0,0.096-0.668,0.096-0.668v-1.914v-3.16v-4.309v-5.363v-6.414v-7.273v-8.234v-9v-9.766v-10.34
		v-11.105v-11.488v-12.062v-12.449v-12.73v-13.023v-13.305v-13.359v-13.449v-13.453v-13.355V376.02V363v-12.781V337.77v-12.016
		v-11.582V303.16v-10.434v-9.719v-9v-8.184V258.5v-6.418v-5.359v-4.309v-3.113v-1.961v-0.672l0.24,0.672l0.67,1.961l1.1,3.113
		l1.533,4.309l1.914,5.359l2.25,6.418l2.633,7.324l2.92,8.184l3.16,9l3.494,9.719l3.686,10.434l3.926,11.012l4.068,11.582
		l4.309,12.016l4.404,12.449L195.465,363l4.645,13.02l4.691,13.258l4.738,13.355l4.787,13.453l4.787,13.449l4.738,13.359
		l4.691,13.305l4.645,13.023l4.547,12.73l4.404,12.449l4.26,12.062l4.117,11.488l3.926,11.105l3.686,10.34l3.447,9.766l3.254,9
		l2.873,8.234l2.584,7.273l2.299,6.414l1.914,5.363l1.531,4.309l1.055,3.16l0.766,1.914l0.191,0.668c0.383,0,0.861,0,0.861,0h0.67
		h0.766h0.959h1.053h1.244h1.244h1.436h1.629h1.531h1.723h1.82h1.818h1.916h1.914h1.914h2.012h2.01h1.914h2.012h1.914h1.916h1.914
		h1.818h1.82h1.723h1.627h1.533h1.436h1.244h1.244h1.055h0.957h0.861h0.574c0.479,0,0.766,0,0.766,0
		c0.096,0,0.383-0.668,0.383-0.668l0.67-1.914l1.15-3.16l1.531-4.406l2.01-5.359l2.299-6.414l2.68-7.371l3.064-8.234l3.256-9.098
		l3.541-9.766l3.83-10.434l4.021-11.105l4.309-11.586l4.402-12.156l4.5-12.449l4.691-12.922l4.787-13.023l4.883-13.355l4.883-13.449
		l4.883-13.5l4.979-13.547l4.883-13.453l4.787-13.309l4.787-13.113l4.691-12.832l4.596-12.492l4.402-12.113L434,312.641
		l4.021-11.059l3.83-10.484l3.543-9.812l3.254-9.047l3.064-8.234l2.68-7.371l2.299-6.414l2.01-5.41l1.531-4.309l1.15-3.16
		l0.766-1.961l0.191-0.672v0.672v1.961v3.16v4.309v5.41v6.414v7.371v8.234v9.047v9.812v10.484v11.059v11.629v12.113v12.492v12.832
		v13.113v13.309v13.453v13.547v13.5v13.449v13.355v13.023v12.922v12.449v12.156v11.586v11.105v10.434v9.766v9.098v8.234v7.371v6.414
		v5.359v4.406v3.16v1.914v0.668c0.383,0,0.861,0,0.861,0h0.67h0.861h0.957h1.15h1.244h1.34h1.531h1.533h1.723h1.723h1.916h1.914
		h1.916h2.01h2.01h2.012h2.105h2.012h2.105h2.01h2.012h1.914h1.916h1.818h1.818h1.629h1.627h1.531h1.34h1.246h1.148h0.957h0.861
		h0.574c0.479,0,0.863,0,0.863,0c0.096,0,0.096-0.766,0.096-0.766v-2.105v-3.543v-4.785v-6.031v-7.086v-8.137v-9.191v-9.957v-10.914
		v-11.586v-12.254v-12.926v-13.402v-13.883v-14.266v-14.504v-14.742v-14.938V395.5v-14.98v-14.938V350.84v-14.555V322.07v-13.883
		v-13.402v-12.879v-12.301V258.02v-10.867v-10.051v-9.145v-8.137v-7.133v-5.984v-4.785v-3.496v-2.156V195.5
		c-0.193,0-0.672,0-0.672,0h-0.861h-1.053h-1.436h-1.629h-1.914h-2.01h-2.395h-2.488h-2.682h-2.775h-2.969h-3.16h-3.158h-3.256
		h-3.35h-3.447h-3.447h-3.445h-3.447h-3.447h-3.35h-3.352h-3.256h-3.254h-3.064h-2.969h-2.871h-2.682h-2.488h-2.299h-2.105h-1.818
		h-1.725h-1.34h-1.148h-0.766h-0.479c-0.191,0-0.383,0.625-0.383,0.625l-0.672,1.77l-0.957,2.871l-1.436,3.977l-1.723,4.93
		l-2.012,5.84l-2.393,6.703l-2.682,7.562l-2.871,8.234l-3.16,8.949l-3.352,9.574l-3.541,10.102l-3.734,10.625l-3.83,11.059
		l-4.021,11.395l-4.115,11.727l-4.213,11.969l-4.309,12.16l-4.309,12.301l-4.309,12.352l-4.309,12.348l-4.307,12.258l-4.309,12.156
		l-4.213,11.969l-4.117,11.727l-4.021,11.441l-3.828,11.012l-3.734,10.578l-3.543,10.148l-3.35,9.574l-3.16,9l-2.969,8.234
		l-2.584,7.465l-2.395,6.801l-2.01,5.84l-1.723,4.883l-1.438,4.02l-0.957,2.871l-0.67,1.723l-0.191,0.672l-0.191-0.672l-0.67-1.723
		l-0.957-2.871l-1.438-4.02l-1.627-4.883l-2.01-5.84l-2.395-6.801l-2.584-7.465l-2.873-8.234l-3.062-9l-3.256-9.574l-3.543-10.148
		l-3.639-10.578l-3.828-11.012l-3.926-11.441l-4.021-11.727l-4.213-11.969l-4.115-12.156l-4.262-12.258l-4.26-12.348l-4.26-12.352
		l-4.262-12.301l-4.213-12.16l-4.115-11.969l-4.07-11.727l-3.924-11.395l-3.83-11.059l-3.639-10.625l-3.494-10.102l-3.303-9.574
		l-3.111-8.949l-2.824-8.234l-2.586-7.562l-2.346-6.703l-2.01-5.84l-1.725-4.93l-1.34-3.977l-1.006-2.871l-0.621-1.77l-0.191-0.625
		c-0.191,0-0.719,0-0.719,0h-0.908h-1.197h-1.484h-1.771h-2.059h-2.297h-2.49h-2.729h-2.871h-3.064h-3.256h-3.35h-3.447h-3.59
		h-3.639h-3.686h-3.686h-3.781h-3.734h-3.734h-3.686h-3.639h-3.543h-3.494h-3.35h-3.207h-3.064h-2.92h-2.729h-2.49h-2.297h-2.01
		h-1.771H98.48h-1.195h-0.863h-0.525C95.705,195.5,95.705,595.5,95.705,595.5z"/>
</g>
</svg>
