<?xml version="1.0" encoding="utf-8"?>
<!-- Generator: Adobe Illustrator 16.0.1, SVG Export Plug-In . SVG Version: 6.00 Build 0)  -->
<!DOCTYPE svg PUBLIC "-//W3C//DTD SVG 1.0//EN" "http://www.w3.org/TR/2001/REC-SVG-20010904/DTD/svg10.dtd">
<svg version="1.0" id="_x31_" xmlns="http://www.w3.org/2000/svg" xmlns:xlink="http://www.w3.org/1999/xlink" x="0px" y="0px"
	 width="612px" height="792px" viewBox="0 0 612 792" enable-background="new 0 0 612 792" xml:space="preserve">
<g id="LWPOLYLINE">
	
		<path fill="none" stroke="#000000" stroke-width="0.7087" stroke-linecap="round" stroke-linejoin="round" stroke-miterlimit="10" d="
		M429.262,522.447c-0.046,0.139-0.137,0.551-0.137,0.551l-0.184,0.639l-0.229,0.869l-0.32,1.1l-0.32,1.279l-0.411,1.51l-0.458,1.646
		l-0.503,1.83l-0.503,2.014l-0.595,2.104l-0.595,2.242l-0.641,2.377l-0.64,2.426l-0.687,2.516l-0.687,2.607l-0.731,2.652
		l-0.732,2.699l-0.731,2.744l-0.731,2.744l-0.732,2.746l-0.731,2.697l-0.732,2.699l-0.731,2.654l-0.687,2.607l-0.687,2.516
		l-0.64,2.469l-0.641,2.334l-0.641,2.24l-0.549,2.15l-0.549,1.967l-0.457,1.83l-0.458,1.693l-0.411,1.463l-0.366,1.326l-0.274,1.098
		l-0.229,0.869l-0.184,0.641l-0.091,0.412c0.091,0.092,0.274,0.092,0.274,0.092h0.229h0.32h0.365h0.412h0.503h0.504h0.549h0.595
		h0.64h0.687h0.687h0.686h0.732h0.777h0.731h0.778h0.777h0.777h0.778h0.731h0.777h0.732h0.686h0.732h0.641h0.64h0.595h0.549h0.504
		h0.503h0.411h0.366h0.32h0.229c0.184,0,0.32,0,0.32,0c0.092-0.092,0.274-0.504,0.274-0.504l0.274-0.641l0.412-0.869l0.503-1.098
		l0.595-1.326l0.687-1.463l0.777-1.693l0.869-1.83l0.915-1.967l0.96-2.15l1.053-2.24l1.052-2.334l1.144-2.469l1.189-2.516
		l1.189-2.607l1.234-2.654l1.235-2.699l1.235-2.697l1.28-2.746l1.281-2.744l1.235-2.744l1.234-2.699l1.235-2.652l1.189-2.607
		l1.189-2.516l1.144-2.426l1.052-2.377l1.053-2.242l0.96-2.104l0.915-2.014l0.869-1.83l0.777-1.646l0.687-1.51l0.595-1.279
		l0.503-1.1l0.412-0.869l0.274-0.639l0.183-0.412C463.936,522.447,429.262,522.447,429.262,522.447z"/>
</g>
<g id="LWPOLYLINE_1_">
	
		<path fill="none" stroke="#000000" stroke-width="0.7087" stroke-linecap="round" stroke-linejoin="round" stroke-miterlimit="10" d="
		M149.154,247.053c0.16,0.068,0.663,0.252,0.663,0.252l0.824,0.32l1.12,0.457l1.418,0.525l1.67,0.664l1.898,0.73l2.149,0.848
		l2.356,0.914l2.538,0.984l2.722,1.074l2.859,1.121l3.019,1.166l3.156,1.234l3.248,1.258l3.316,1.305l3.408,1.326l3.477,1.35
		l3.477,1.35l3.521,1.373l3.5,1.371l3.499,1.35l3.453,1.35l3.408,1.326l3.339,1.305l3.248,1.279l3.134,1.213l3.019,1.166
		l2.882,1.145l2.722,1.051l2.539,0.984l2.355,0.914l2.127,0.848l1.922,0.73l1.669,0.664l1.396,0.549l1.121,0.436l0.823,0.318
		l0.503,0.184c0.183-0.184,0.183-0.365,0.183-0.365v-0.252v-0.297v-0.32v-0.367v-0.41v-0.436v-0.457v-0.504v-0.525v-0.525v-0.572
		v-0.572v-0.572v-0.594v-0.596v-0.617v-0.594v-0.617v-0.596v-0.572v-0.57v-0.572v-0.525v-0.527v-0.48v-0.48v-0.434v-0.412v-0.365
		v-0.32v-0.297v-0.23c0-0.205,0-0.342,0-0.342c-0.137-0.16-0.549-0.32-0.549-0.32l-0.641-0.252l-0.892-0.32l-1.121-0.434
		l-1.326-0.48l-1.51-0.572l-1.692-0.641l-1.875-0.709l-2.013-0.754l-2.15-0.801l-2.287-0.869l-2.401-0.893l-2.493-0.938
		l-2.562-0.961l-2.653-1.006l-2.698-1.006l-2.745-1.029l-2.768-1.053l-2.79-1.029l-2.768-1.053l-2.768-1.051l-2.744-1.029
		l-2.699-1.006l-2.652-1.008l-2.585-0.961l-2.493-0.938l-2.379-0.891l-2.287-0.869l-2.149-0.801l-2.013-0.756l-1.876-0.709
		l-1.692-0.641l-1.509-0.57l-1.327-0.48l-1.12-0.436l-0.893-0.32l-0.641-0.25l-0.411-0.16c0-0.092,0.411-0.252,0.411-0.252
		l0.641-0.252l0.893-0.344l1.12-0.434l1.327-0.527l1.509-0.594l1.692-0.664l1.876-0.73l2.013-0.779l2.149-0.846l2.287-0.891
		l2.379-0.916l2.493-0.982l2.585-1.008l2.652-1.029l2.699-1.051l2.744-1.076l2.768-1.074l2.768-1.098l2.79-1.076l2.768-1.074
		l2.745-1.074l2.698-1.053l2.653-1.029l2.562-1.006l2.493-0.984l2.401-0.938l2.287-0.893l2.15-0.846l2.013-0.777l1.875-0.732
		l1.692-0.662l1.51-0.596l1.326-0.502l1.121-0.436l0.892-0.344l0.641-0.25l0.412-0.16c0.137-0.16,0.137-0.299,0.137-0.299
		c0-0.182,0-0.41,0-0.41v-0.275v-0.297v-0.344v-0.365v-0.412v-0.434v-0.48v-0.48v-0.504v-0.525v-0.527v-0.549v-0.549v-0.57v-0.549
		v-0.572v-0.549v-0.572v-0.549v-0.525v-0.527v-0.502v-0.48v-0.457v-0.436v-0.412v-0.389v-0.342v-0.299v-0.273
		c0-0.229,0-0.389,0-0.389c0-0.229,0-0.252,0-0.252c-0.183,0.068-0.686,0.273-0.686,0.273l-0.823,0.32l-1.121,0.436l-1.396,0.549
		l-1.669,0.641l-1.922,0.754l-2.127,0.824l-2.355,0.914l-2.539,0.984l-2.722,1.074l-2.882,1.121l-3.019,1.166l-3.134,1.236
		l-3.248,1.258l-3.339,1.303l-3.408,1.326l-3.453,1.35l-3.499,1.35l-3.5,1.373l-3.521,1.371l-3.477,1.373l-3.477,1.35l-3.408,1.326
		l-3.316,1.281l-3.248,1.281l-3.156,1.211l-3.019,1.189l-2.859,1.121l-2.722,1.053l-2.538,0.982l-2.356,0.916l-2.149,0.846
		l-1.898,0.732l-1.67,0.662l-1.418,0.549l-1.12,0.436l-0.824,0.32l-0.503,0.182C149.154,232.025,149.154,247.053,149.154,247.053z"
		/>
</g>
</svg>
