<?xml version="1.0" encoding="utf-8"?>
<!-- Generator: Adobe Illustrator 16.0.1, SVG Export Plug-In . SVG Version: 6.00 Build 0)  -->
<!DOCTYPE svg PUBLIC "-//W3C//DTD SVG 1.0//EN" "http://www.w3.org/TR/2001/REC-SVG-20010904/DTD/svg10.dtd">
<svg version="1.0" id="_x31_" xmlns="http://www.w3.org/2000/svg" xmlns:xlink="http://www.w3.org/1999/xlink" x="0px" y="0px"
	 width="612px" height="792px" viewBox="0 0 612 792" enable-background="new 0 0 612 792" xml:space="preserve">
<g id="LWPOLYLINE">
	
		<path fill="none" stroke="#000000" stroke-width="0.7087" stroke-linecap="round" stroke-linejoin="round" stroke-miterlimit="10" d="
		M425.513,595.5c0.184,0,0.413,0,0.413,0h0.322h0.413h0.46h0.552h0.597h0.644h0.735h0.735h0.827h0.827h0.919h0.874h0.965h0.965
		h0.965h0.966h1.011h0.965h1.011h0.966h0.965h0.919h0.919h0.873h0.873h0.781h0.781h0.689h0.689h0.598h0.552h0.459h0.368h0.321
		c0.229,0,0.368,0,0.368,0c0.046-0.092,0.046-0.275,0.046-0.275v-0.367v-0.459v-0.598v-0.689v-0.828v-0.873v-1.01v-1.059v-1.148
		v-1.24v-1.287v-1.287V583v-1.424v-1.424v-1.471v-1.471v-1.471v-1.471v-1.471v-1.471v-1.426v-1.424V567.1v-1.332v-1.24v-1.242
		v-1.148v-1.057v-1.012v-0.873v-0.826v-0.689v-0.598v-0.461v-0.367c0-0.229,0-0.275,0-0.275c0.229,0,0.459,0,0.459,0h0.322h0.413
		h0.46h0.598h0.597h0.689h0.735h0.781h0.873h0.873h0.92h0.919h0.965h1.011h1.012h1.011h1.011h1.057h1.012h1.011h0.965h0.966h0.965
		h0.919h0.873h0.827h0.827h0.735h0.689h0.598h0.551h0.506h0.414h0.321h0.229c0.185-0.184,0.185-0.367,0.185-0.367v-0.23v-0.322
		v-0.412v-0.414v-0.506v-0.551v-0.598v-0.598v-0.689v-0.689v-0.734v-0.736v-0.781v-0.781v-0.781v-0.826v-0.828v-0.781v-0.826v-0.781
		v-0.781v-0.781v-0.736v-0.734v-0.689v-0.689v-0.645v-0.551v-0.551v-0.506v-0.459v-0.369v-0.32v-0.277c0-0.184,0-0.275,0-0.275
		c-0.185-0.045-0.414-0.045-0.414-0.045h-0.321h-0.414h-0.506h-0.551h-0.598h-0.689h-0.735h-0.827h-0.827h-0.873h-0.919h-0.965
		h-0.966h-0.965h-1.011h-1.012h-1.057h-1.011h-1.011h-1.012h-1.011h-0.965h-0.919h-0.92h-0.873H456.9h-0.781h-0.735h-0.689h-0.597
		H453.5h-0.46h-0.413h-0.322h-0.229c-0.229-0.23-0.229-0.92-0.229-0.92v-1.057v-1.471v-1.838v-2.207v-2.527v-2.803v-3.125v-3.309
		v-3.584v-3.814v-3.953v-4.137v-4.273v-4.412v-4.457v-4.549v-4.596v-4.643v-4.596v-4.596v-4.549v-4.504v-4.365v-4.273v-4.137v-3.998
		v-3.77v-3.584v-3.355v-3.078v-2.803v-2.527v-2.207v-1.838v-1.471v-1.08v-0.666c-0.185-0.23-0.46-0.23-0.46-0.23h-0.367h-0.46
		h-0.506h-0.643h-0.689h-0.735h-0.827h-0.873h-0.92H444.4h-1.011h-1.058h-1.057h-1.103h-1.104h-1.148h-1.104h-1.148h-1.103h-1.104
		h-1.103h-1.104h-1.011h-1.011h-0.966h-0.965h-0.873h-0.781h-0.781h-0.689h-0.598h-0.551h-0.46h-0.321h-0.276
		c-0.229,0-0.367,0.207-0.367,0.207l-0.46,0.621l-0.689,0.988l-0.965,1.379l-1.194,1.699l-1.425,2.021l-1.608,2.322l-1.839,2.619
		l-2.021,2.85l-2.16,3.078l-2.344,3.309l-2.436,3.494l-2.573,3.676l-2.666,3.814l-2.803,3.951l-2.85,4.045l-2.896,4.137l-2.94,4.227
		l-2.987,4.229l-2.987,4.273l-3.033,4.273l-2.941,4.229l-2.987,4.229l-2.895,4.137l-2.85,4.043l-2.757,3.953l-2.712,3.814
		l-2.573,3.676l-2.436,3.492l-2.344,3.309l-2.16,3.08l-2.022,2.85l-1.792,2.619l-1.654,2.297l-1.425,2.068l-1.194,1.701
		l-0.966,1.332l-0.689,1.012l-0.459,0.598c-0.138,0.229-0.138,0.275-0.138,0.275c0,0.184,0,0.459,0,0.459v0.367v0.461v0.551v0.643
		v0.689v0.781v0.873v0.873v0.965v1.012v1.012v1.102v1.104v1.104v1.148v1.195v1.148v1.148v1.15v1.148v1.148v1.104v1.057v1.057v1.012
		v0.965v0.873v0.873v0.781v0.689v0.643v0.553v0.459v0.367v0.275c0.184,0.23,0.597,0.23,0.597,0.23h0.735h1.012h1.286h1.471h1.7
		h1.931h2.114h2.251h2.437h2.573h2.711h2.804h2.896h2.986h3.033h3.079h3.125h3.171h3.125h3.125h3.079h3.033h2.987h2.896h2.849h2.666
		h2.573h2.436h2.298h2.068h1.93h1.7h1.517h1.241h1.011h0.735h0.46C425.513,555.979,425.513,595.5,425.513,595.5z"/>
</g>
<g id="LWPOLYLINE_1_">
	
		<path fill="none" stroke="#000000" stroke-width="0.7087" stroke-linecap="round" stroke-linejoin="round" stroke-miterlimit="10" d="
		M362.461,534.334c0.092-0.184,0.46-0.689,0.46-0.689l0.552-0.873l0.781-1.15l0.965-1.424l1.103-1.701l1.333-1.975l1.471-2.16
		l1.608-2.436l1.7-2.619l1.884-2.758l1.977-2.941l2.022-3.125l2.159-3.217l2.206-3.309l2.298-3.4l2.344-3.494l2.344-3.584
		l2.39-3.539l2.39-3.631l2.39-3.584l2.39-3.584l2.39-3.539l2.298-3.492l2.298-3.4l2.206-3.355l2.16-3.217l2.067-3.078l1.931-2.941
		l1.884-2.805l1.747-2.572l1.608-2.436l1.424-2.207l1.333-1.93l1.149-1.701l0.919-1.471l0.781-1.148l0.552-0.826l0.367-0.506
		c0.092,0,0.092,0.506,0.092,0.506v0.826v1.148v1.471v1.701v1.93v2.207v2.436v2.572v2.805v2.941v3.078v3.217v3.355v3.4v3.492v3.539
		v3.584v3.584v3.631v3.539v3.584v3.494v3.4v3.309v3.217v3.125v2.941v2.758v2.619v2.436v2.16v1.975v1.701v1.424v1.15v0.873v0.506
		C426.432,534.334,362.461,534.334,362.461,534.334z"/>
</g>
<g id="LWPOLYLINE_2_">
	
		<path fill="none" stroke="#000000" stroke-width="0.7087" stroke-linecap="round" stroke-linejoin="round" stroke-miterlimit="10" d="
		M169.516,195.5c0,0.207,0,0.369,0,0.369c0,0.205,0,0.436,0,0.436v0.254v0.32v0.322v0.367v0.367v0.414v0.414v0.459v0.438v0.482
		v0.482v0.482v0.482v0.506v0.482v0.506v0.482v0.482v0.459v0.459v0.438v0.436v0.391v0.391v0.346v0.344v0.299v0.277
		c0,0.229,0,0.412,0,0.412c0,0.162,0,0.275,0,0.275c0,0.094-1.402,0.186-1.402,0.186l-1.401,0.113l-1.379,0.162l-1.378,0.184
		l-1.356,0.207l-1.332,0.252l-1.311,0.275l-1.286,0.322l-1.287,0.346l-1.264,0.391l-1.218,0.412l-1.218,0.438l-1.172,0.482
		l-1.172,0.506l-1.126,0.551l-1.103,0.598l-1.058,0.621l-1.034,0.643l-1.011,0.689l-0.965,0.734l-0.942,0.76l-0.896,0.781
		l-0.851,0.826l-0.827,0.873l-0.781,0.896l-0.735,0.941l-0.712,0.967l-0.644,1.01l-0.621,1.057l-0.551,1.08l-0.528,1.127
		l-0.46,1.172l-0.414,1.195l-0.367,1.217l-0.299,1.287l-0.253,1.309l-0.207,1.334l-0.16,1.379l-0.069,1.424l-0.046,1.471
		l0.023,1.264l0.046,1.195l0.068,1.195l0.115,1.125l0.138,1.127l0.161,1.057l0.207,1.057l0.252,1.012l0.276,0.965l0.299,0.965
		l0.367,0.918l0.391,0.896l0.437,0.873l0.482,0.873l0.506,0.828l0.574,0.805l0.62,0.781l0.644,0.758l0.713,0.758l0.735,0.736
		l0.804,0.711l0.851,0.689l0.919,0.689l0.942,0.689l1.011,0.666l1.08,0.645l1.103,0.643l1.195,0.645l1.218,0.619l1.31,0.621
		l1.333,0.619l1.425,0.621l1.47,0.621l1.54,0.619l1.608,0.598l1.678,0.621l1.723,0.621l1.815,0.619l1.861,0.621l1.953,0.643
		c0,0.07,0,0.299,0,0.299v0.346v0.482v0.598v0.734v0.828v0.918v1.012v1.104v1.172v1.24v1.309v1.357v1.4v1.447v1.471v1.494v1.494
		v1.516v1.518v1.516v1.494v1.471v1.447v1.402v1.355v1.309v1.242v1.172v1.102v1.012v0.92v0.826v0.713v0.619v0.484v0.344
		c0,0.23,0,0.299,0,0.299l-1.241-0.092l-1.194-0.115l-1.149-0.139l-1.079-0.184l-1.058-0.207l-0.988-0.229l-0.941-0.254
		l-0.919-0.275l-0.851-0.32l-0.827-0.322l-0.759-0.367l-0.735-0.369l-0.688-0.412l-0.667-0.414l-0.598-0.438l-0.574-0.459
		l-0.551-0.459l-0.506-0.506l-0.482-0.506l-0.437-0.529l-0.391-0.527l-0.391-0.551l-0.345-0.553l-0.322-0.574l-0.299-0.598
		l-0.252-0.598l-0.23-0.598l-0.229-0.596l-0.184-0.621l-0.184-0.621l-0.139-0.643l-0.138-0.621l-0.092-0.643l-0.092-0.645
		l-0.092-0.643l-0.046-0.643l-0.046-0.645l-0.023-0.643l-0.022-0.621v-0.643c-0.115,0-0.276,0-0.276,0c-0.184,0-0.413,0-0.413,0
		h-0.299h-0.321h-0.368h-0.391h-0.437h-0.46h-0.505h-0.506h-0.528h-0.574h-0.552h-0.598h-0.574h-0.598h-0.598h-0.62h-0.574h-0.598
		h-0.598h-0.551h-0.552h-0.552h-0.505h-0.506h-0.46h-0.437h-0.391h-0.367h-0.322h-0.298h-0.23c-0.206,0-0.345,0-0.345,0
		c-0.114,0,0,1.607,0,1.607l0.139,1.539l0.206,1.541l0.253,1.471l0.299,1.424l0.345,1.402l0.391,1.355l0.437,1.309l0.506,1.264
		l0.528,1.219l0.574,1.172l0.62,1.148l0.667,1.104l0.712,1.057l0.735,1.033l0.781,0.967l0.827,0.941l0.873,0.896l0.896,0.85
		l0.919,0.805l0.988,0.781l0.988,0.734l1.057,0.689l1.057,0.666l1.104,0.598l1.148,0.574l1.149,0.529l1.194,0.506l1.218,0.436
		l1.264,0.414l1.264,0.391l1.311,0.322l1.31,0.299l1.355,0.252l1.379,0.207l1.379,0.184l1.424,0.139l1.425,0.092l1.471,0.068
		l1.471,0.023c0,0.115,0,0.252,0,0.252c0,0.184,0,0.414,0,0.414v0.299v0.322v0.367v0.391v0.436v0.484v0.482v0.504v0.553v0.551v0.574
		v0.574v0.598v0.598v0.598v0.598v0.598v0.574v0.598v0.574v0.551v0.529v0.506v0.504v0.461v0.436v0.391v0.369v0.344v0.275v0.23
		c0,0.207,0,0.344,0,0.344c0.138,0.115,0.229,0.115,0.229,0.115c0.138,0,0.276,0,0.276,0c0.184,0,0.367,0,0.367,0
		c0.207,0,0.437,0,0.437,0h0.253h0.253h0.275h0.299h0.275h0.322h0.299h0.321h0.299h0.321h0.322h0.321h0.299h0.322h0.298h0.299h0.276
		h0.275h0.253h0.253c0.229,0,0.437,0,0.437,0c0.206,0,0.367,0,0.367,0c0.161,0,0.276,0,0.276,0c0.229,0,0.229,0,0.229,0
		c0-0.115,0-0.252,0-0.252c0-0.207,0-0.438,0-0.438v-0.275v-0.344v-0.369v-0.391v-0.436v-0.461v-0.504v-0.506v-0.529v-0.551v-0.574
		v-0.598v-0.574v-0.598v-0.598v-0.598v-0.598v-0.598v-0.574v-0.574v-0.551v-0.553V327.9v-0.482v-0.484v-0.436v-0.391v-0.367v-0.322
		v-0.299v-0.23c0-0.184,0-0.32,0-0.32c0-0.115,1.493-0.275,1.493-0.275l1.448-0.207l1.47-0.207l1.425-0.254l1.425-0.299l1.401-0.299
		l1.402-0.367l1.355-0.367l1.333-0.438l1.332-0.436l1.287-0.482l1.287-0.529l1.24-0.551l1.218-0.598l1.195-0.598l1.148-0.666
		l1.126-0.689l1.104-0.713l1.057-0.781l1.034-0.781l0.988-0.826l0.941-0.873l0.919-0.896l0.851-0.941l0.827-0.967l0.781-1.01
		l0.735-1.035l0.689-1.08l0.644-1.125l0.598-1.148l0.551-1.195l0.482-1.24l0.46-1.264l0.367-1.311l0.345-1.332l0.253-1.379
		l0.229-1.426l0.139-1.447l0.114-1.492l0.023-1.541l-0.046-1.654l-0.092-1.607l-0.185-1.562l-0.252-1.494l-0.299-1.424l-0.391-1.402
		l-0.437-1.332l-0.482-1.264l-0.575-1.242l-0.597-1.172l-0.667-1.148l-0.712-1.08l-0.759-1.057l-0.804-1.012l-0.851-0.965
		l-0.896-0.918l-0.942-0.875l-0.965-0.85l-1.012-0.805l-1.034-0.781l-1.079-0.758l-1.104-0.689l-1.126-0.689l-1.172-0.643
		l-1.172-0.621l-1.194-0.598l-1.241-0.574l-1.218-0.551l-1.264-0.506l-1.264-0.506l-1.264-0.482l-1.287-0.459l-1.287-0.438
		l-1.31-0.436l-1.286-0.414l-1.311-0.391l-1.286-0.391l-1.287-0.367l-1.287-0.367l-1.286-0.369c0-0.068,0-0.252,0-0.252v-0.322
		v-0.414v-0.551v-0.621v-0.734v-0.805v-0.918v-0.965v-1.035v-1.104v-1.148v-1.195v-1.24v-1.264v-1.311v-1.332v-1.332v-1.334V238.4
		v-1.332v-1.334v-1.285v-1.287v-1.242v-1.193v-1.15v-1.102v-1.035v-0.965v-0.896v-0.826v-0.736v-0.619v-0.553v-0.412v-0.322
		c0-0.184,0-0.254,0-0.254h0.781l0.758,0.023l0.759,0.023l0.758,0.047l0.735,0.045l0.735,0.068l0.713,0.092l0.712,0.092l0.689,0.094
		l0.689,0.137l0.666,0.139l0.644,0.16l0.644,0.16l0.62,0.207l0.62,0.207l0.598,0.23l0.574,0.229l0.552,0.277l0.528,0.275
		l0.528,0.322l0.506,0.32l0.482,0.346l0.46,0.391l0.437,0.391l0.413,0.412l0.391,0.438l0.391,0.459l0.345,0.506l0.322,0.506
		l0.299,0.551l0.275,0.574l0.253,0.598l0.206,0.621l0.207,0.643l0.161,0.689l0.138,0.713l0.115,0.734l0.068,0.76l0.046,0.803
		l0.023,0.828c0.115,0,0.253,0,0.253,0c0.184,0,0.437,0,0.437,0h0.275h0.322h0.367h0.414h0.413h0.482h0.482h0.506h0.552h0.551h0.575
		h0.574h0.598h0.597h0.598h0.598h0.598h0.597h0.575h0.574h0.552h0.528h0.528h0.482h0.46h0.437h0.413h0.368h0.321h0.276h0.229
		c0.207,0,0.345,0,0.345,0c0.114,0,0.068-1.861,0.068-1.861l-0.16-1.77l-0.23-1.699l-0.345-1.609l-0.413-1.516l-0.482-1.449
		l-0.574-1.377l-0.644-1.311l-0.713-1.219l-0.781-1.172l-0.827-1.08l-0.873-1.033l-0.942-0.965l-0.987-0.896l-1.012-0.85
		l-1.057-0.781l-1.08-0.713l-1.126-0.689l-1.148-0.598l-1.149-0.574l-1.172-0.527l-1.172-0.482l-1.194-0.438l-1.172-0.391
		l-1.195-0.344l-1.172-0.322l-1.172-0.275l-1.148-0.254l-1.126-0.207l-1.08-0.184l-1.08-0.16l-1.034-0.139l-0.988-0.115
		l-0.965-0.092l-0.896-0.068l-0.851-0.045l-0.805-0.047l-0.735-0.023h-0.666l-0.62-0.021c0-0.207,0-0.369,0-0.369
		c0-0.184,0-0.412,0-0.412v-0.277v-0.299v-0.344v-0.346v-0.391v-0.391v-0.436v-0.438v-0.459v-0.459v-0.482v-0.482v-0.506v-0.482
		v-0.506v-0.482v-0.482v-0.482v-0.482v-0.438v-0.459v-0.414v-0.414v-0.367v-0.367v-0.322v-0.32v-0.254c0-0.23,0-0.436,0-0.436
		c0-0.162,0-0.277,0-0.277C177.029,195.5,169.516,195.5,169.516,195.5z"/>
</g>
<g id="LWPOLYLINE_3_">
	
		<polygon fill="none" stroke="#000000" stroke-width="0.7087" stroke-linecap="round" stroke-linejoin="round" stroke-miterlimit="10" points="
		168.573,255.727 167.723,255.449 166.896,255.174 166.092,254.875 165.287,254.6 164.529,254.324 163.748,254.025 163.013,253.727 
		162.277,253.428 161.565,253.129 160.853,252.83 160.187,252.51 159.52,252.188 158.877,251.865 158.256,251.543 157.659,251.199 
		157.062,250.855 156.487,250.51 155.958,250.143 155.43,249.775 154.925,249.385 154.441,248.994 153.982,248.58 153.546,248.166 
		153.109,247.73 152.719,247.293 152.351,246.834 152.006,246.373 151.685,245.891 151.386,245.387 151.11,244.881 150.857,244.352 
		150.628,243.801 150.421,243.248 150.237,242.674 150.099,242.076 149.961,241.457 149.869,240.812 149.8,240.17 149.754,239.48 
		149.754,238.791 149.754,238.424 149.754,238.057 149.777,237.643 149.8,237.229 149.823,236.793 149.869,236.355 149.915,235.873 
		149.984,235.414 150.076,234.932 150.168,234.426 150.283,233.92 150.421,233.414 150.604,232.908 150.788,232.381 
		150.995,231.852 151.225,231.346 151.478,230.818 151.776,230.289 152.098,229.783 152.442,229.256 152.833,228.75 153.27,228.244 
		153.729,227.762 154.212,227.279 154.764,226.797 155.338,226.338 155.958,225.877 156.625,225.465 157.337,225.027 
		158.096,224.637 158.899,224.246 159.75,223.879 160.646,223.533 161.611,223.234 162.622,222.936 163.702,222.66 164.828,222.408 
		166.022,222.201 167.264,222.018 168.573,221.855 	"/>
</g>
<g id="LWPOLYLINE_4_">
	
		<polygon fill="none" stroke="#000000" stroke-width="0.7087" stroke-linecap="round" stroke-linejoin="round" stroke-miterlimit="10" points="
		177.029,272.684 177.673,272.891 178.339,273.121 179.005,273.326 179.672,273.557 180.361,273.809 181.05,274.039 
		181.739,274.293 182.452,274.568 183.142,274.844 183.854,275.119 184.543,275.418 185.255,275.717 185.944,276.061 
		186.634,276.383 187.323,276.75 187.989,277.119 188.656,277.51 189.3,277.922 189.942,278.336 190.563,278.795 191.184,279.256 
		191.781,279.762 192.332,280.266 192.907,280.818 193.436,281.369 193.94,281.967 194.424,282.588 194.883,283.23 195.297,283.896 
		195.71,284.586 196.078,285.322 196.399,286.08 196.698,286.861 196.974,287.688 197.204,288.561 197.388,289.457 197.549,290.377 
		197.663,291.342 197.732,292.354 197.755,293.387 197.732,294.029 197.709,294.65 197.641,295.293 197.571,295.914 
		197.479,296.535 197.342,297.178 197.204,297.799 197.043,298.396 196.836,299.016 196.629,299.613 196.377,300.211 
		196.124,300.809 195.825,301.383 195.503,301.957 195.159,302.51 194.791,303.061 194.4,303.611 193.964,304.141 193.527,304.646 
		193.045,305.152 192.539,305.635 191.987,306.117 191.437,306.553 190.839,307.012 190.219,307.426 189.552,307.84 188.862,308.23 
		188.15,308.598 187.415,308.943 186.634,309.264 185.807,309.562 184.979,309.861 184.106,310.115 183.188,310.367 
		182.245,310.574 181.28,310.758 180.269,310.941 179.235,311.08 178.155,311.172 177.029,311.264 	"/>
</g>
</svg>
