<?xml version="1.0" encoding="utf-8"?>
<!-- Generator: Adobe Illustrator 16.0.1, SVG Export Plug-In . SVG Version: 6.00 Build 0)  -->
<!DOCTYPE svg PUBLIC "-//W3C//DTD SVG 1.0//EN" "http://www.w3.org/TR/2001/REC-SVG-20010904/DTD/svg10.dtd">
<svg version="1.0" id="_x31_" xmlns="http://www.w3.org/2000/svg" xmlns:xlink="http://www.w3.org/1999/xlink" x="0px" y="0px"
	 width="612px" height="792px" viewBox="0 0 612 792" enable-background="new 0 0 612 792" xml:space="preserve">
<g id="LWPOLYLINE">
	
		<path fill="none" stroke="#000000" stroke-width="0.7087" stroke-linecap="round" stroke-linejoin="round" stroke-miterlimit="10" d="
		M365.197,546.791l0.187,2.33l0.232,2.285l0.373,2.236l0.42,2.191l0.513,2.098l0.559,2.051l0.653,2.004l0.699,1.957l0.792,1.912
		l0.886,1.818l0.933,1.816l0.979,1.725l1.072,1.678l1.118,1.586l1.166,1.584l1.258,1.492l1.306,1.445l1.352,1.352l1.445,1.352
		l1.491,1.258l1.491,1.213l1.585,1.119l1.632,1.117l1.678,1.025l1.771,0.934l1.771,0.932l1.817,0.84l1.864,0.791l1.911,0.699
		l1.958,0.652l1.958,0.607l2.051,0.559l2.051,0.467l2.098,0.42l2.144,0.326l2.145,0.326l2.19,0.186l2.237,0.188l2.237,0.092
		l2.284,0.047l3.076-0.094l2.983-0.139l2.937-0.234l2.891-0.371l2.796-0.467l2.797-0.514l2.704-0.652l2.609-0.746l2.61-0.791
		l2.518-0.934l2.424-0.979l2.424-1.072l2.284-1.164l2.237-1.26l2.19-1.305l2.098-1.445l2.051-1.445l1.958-1.584l1.911-1.631
		l1.771-1.678l1.771-1.771l1.632-1.865l1.585-1.91l1.491-1.959l1.398-2.004l1.352-2.098l1.259-2.191l1.165-2.189l1.072-2.285
		l0.979-2.33l0.886-2.33l0.793-2.471l0.745-2.471l0.606-2.518l0.56-2.562l0.419-2.611l0.373-2.656l0.233-2.703l0.14-2.75l0.047-2.75
		l-0.047-2.377l-0.094-2.332l-0.187-2.33l-0.232-2.33l-0.326-2.285l-0.373-2.283l-0.467-2.283l-0.559-2.238l-0.606-2.191
		l-0.652-2.189l-0.746-2.145l-0.839-2.098l-0.886-2.098l-0.979-2.004l-1.025-2.004l-1.072-1.912l-1.165-1.91l-1.259-1.818
		l-1.305-1.818l-1.353-1.725l-1.491-1.678l-1.491-1.584l-1.585-1.539l-1.678-1.492l-1.726-1.398l-1.771-1.352l-1.865-1.258
		l-1.957-1.166l-2.005-1.117l-2.051-1.025l-2.144-0.934l-2.237-0.838l-2.284-0.793l-2.331-0.652l-2.424-0.561l-2.47-0.465
		l-2.564-0.373l-2.61-0.279l-2.703-0.188l-2.75-0.047l-1.725,0.047l-1.632,0.047l-1.631,0.094l-1.585,0.139l-1.538,0.141
		l-1.492,0.188l-1.491,0.232l-1.445,0.279l-1.352,0.279l-1.398,0.326l-1.305,0.326l-1.259,0.373l-1.259,0.373l-1.212,0.42
		l-1.165,0.42l-1.165,0.465l-1.119,0.467l-1.025,0.467l-1.072,0.512l-0.979,0.514l-0.979,0.512l-0.933,0.561l-0.886,0.512
		l-0.886,0.561l-0.839,0.559l-0.792,0.559l-0.746,0.607l-0.746,0.559l-0.698,0.559l-0.699,0.607l-0.653,0.559l-0.605,0.559
		l-0.56,0.607l-0.56,0.559l-0.513,0.559l-0.513,0.561l-0.419,0.512l-0.467,0.561l-0.372,0.512l-0.373,0.514c0-0.141,0-0.467,0-0.467
		l0.046-0.512l0.047-0.699l0.047-0.934l0.093-1.072l0.047-1.211l0.094-1.352l0.093-1.539l0.093-1.631l0.141-1.725l0.093-1.865
		l0.14-1.91l0.14-2.051l0.141-2.051l0.14-2.145l0.14-2.191l0.14-2.236l0.14-2.238l0.141-2.236l0.14-2.285l0.14-2.236l0.14-2.191
		l0.14-2.191l0.141-2.145l0.14-2.096l0.093-2.006l0.14-1.957l0.094-1.818l0.14-1.771l0.094-1.631l0.093-1.492l0.093-1.398
		l0.094-1.211l0.047-1.072l0.046-0.885l0.047-0.746l0.047-0.514v-0.326c0.187-0.094,0.605-0.094,0.605-0.094h0.746h0.979h1.212
		h1.492h1.678h1.864h2.051h2.237h2.378h2.517h2.657h2.75h2.844h2.937h2.982h3.03h3.029h3.076h3.077h3.076h3.029h2.983h2.937h2.844
		h2.75h2.61h2.563h2.377h2.237h2.051h1.865h1.678h1.445h1.258h0.979h0.699h0.466c0.14-0.186,0.14-0.371,0.14-0.371v-0.281v-0.326
		v-0.373v-0.465v-0.467v-0.559v-0.607v-0.652v-0.652v-0.699v-0.746v-0.744v-0.793v-0.816v-0.793v-0.838v-0.816v-0.814V413.9v-0.816
		v-0.791V411.5v-0.746v-0.746v-0.699v-0.676v-0.652v-0.582v-0.561v-0.488v-0.467v-0.373v-0.326v-0.279c0-0.186,0-0.303,0-0.303
		c-0.187-0.047-0.792-0.047-0.792-0.047h-0.933h-1.259h-1.584h-1.865h-2.19h-2.424h-2.657h-2.843h-3.076h-3.264h-3.402h-3.589
		h-3.636h-3.775h-3.869h-3.915h-3.962h-3.963h-3.962h-3.962h-3.915h-3.822h-3.775h-3.683h-3.542h-3.403h-3.263h-3.076h-2.89h-2.657
		h-2.424h-2.145h-1.911h-1.584h-1.259h-0.933h-0.56c-0.232,0.209-0.232,0.816-0.232,0.816l-0.047,0.979l-0.047,1.328l-0.093,1.678
		l-0.094,1.98l-0.093,2.285l-0.094,2.562l-0.14,2.797l-0.093,3.031l-0.14,3.262l-0.187,3.402l-0.14,3.59l-0.141,3.775l-0.187,3.869
		l-0.14,3.961l-0.187,4.057l-0.187,4.148l-0.187,4.148l-0.186,4.195l-0.141,4.148l-0.187,4.193l-0.187,4.104l-0.186,4.055
		l-0.141,4.008l-0.187,3.869l-0.14,3.729l-0.187,3.59l-0.14,3.449l-0.14,3.217l-0.14,3.029l-0.094,2.844l-0.093,2.516l-0.14,2.285
		l-0.047,2.004l-0.094,1.678l-0.046,1.305l-0.047,0.98l-0.047,0.605c0.187,0.232,0.42,0.232,0.42,0.232h0.279h0.373h0.466h0.467
		h0.605h0.606h0.652h0.746h0.745h0.793h0.839h0.886h0.886h0.885h0.933h0.933h0.886h0.932h0.933h0.932h0.886h0.886h0.886h0.839h0.793
		h0.745h0.699h0.699h0.606h0.56h0.513h0.466h0.373h0.279c0.233,0,0.373,0,0.373,0c0.047,0,0.42-1.211,0.42-1.211l0.372-1.166
		l0.42-1.166l0.466-1.117l0.467-1.119l0.466-1.072l0.56-1.072l0.513-0.979l0.605-1.025l0.56-0.979l0.652-0.934l0.652-0.885
		l0.653-0.887l0.699-0.885l0.699-0.793l0.745-0.791l0.793-0.793l0.792-0.746l0.839-0.699l0.839-0.652l0.886-0.652l0.886-0.605
		l0.886-0.607l0.979-0.559l0.979-0.514l0.979-0.512l1.025-0.42l1.025-0.467l1.072-0.371l1.119-0.373l1.118-0.326l1.165-0.281
		l1.166-0.279l1.212-0.232l1.212-0.188l1.258-0.139l1.259-0.141l1.305-0.092l1.306-0.047h1.352h1.538l1.538,0.092l1.538,0.141
		l1.492,0.186l1.444,0.281l1.398,0.279l1.398,0.373l1.398,0.42l1.306,0.465l1.305,0.514l1.306,0.605l1.212,0.605l1.212,0.652
		l1.165,0.746l1.165,0.793l1.072,0.793l1.072,0.885l1.025,0.932l0.979,0.934l0.979,1.025l0.886,1.072l0.886,1.117l0.839,1.119
		l0.793,1.213l0.745,1.258l0.699,1.258l0.653,1.352l0.605,1.354l0.56,1.443l0.56,1.445l0.466,1.492l0.42,1.537l0.372,1.586
		l0.373,1.631l0.28,1.631l0.232,1.68l0.187,1.77l0.094,1.771l0.093,1.771l0.047,1.865l-0.047,1.631l-0.047,1.631l-0.093,1.633
		l-0.187,1.631l-0.187,1.631l-0.233,1.586l-0.279,1.584l-0.326,1.584l-0.373,1.539l-0.419,1.539l-0.467,1.49l-0.513,1.492
		l-0.56,1.445l-0.605,1.445l-0.652,1.398l-0.699,1.352l-0.746,1.305l-0.792,1.305l-0.84,1.258l-0.885,1.213l-0.933,1.211
		l-1.025,1.119l-1.025,1.072l-1.072,1.072l-1.118,0.979l-1.212,0.934l-1.212,0.932l-1.306,0.793l-1.305,0.791l-1.398,0.746
		l-1.445,0.652l-1.491,0.605l-1.538,0.514l-1.585,0.512l-1.632,0.373l-1.678,0.326l-1.771,0.281l-1.771,0.186l-1.864,0.141
		l-1.911,0.047l-1.072-0.047l-1.071-0.047l-1.119-0.047l-1.072-0.094l-1.072-0.139l-1.118-0.188l-1.072-0.186l-1.072-0.234
		l-1.072-0.232l-1.071-0.279l-1.072-0.326l-1.072-0.373l-1.025-0.373l-1.025-0.42l-0.979-0.465l-1.026-0.467l-0.979-0.559
		l-0.932-0.514l-0.933-0.605l-0.886-0.652l-0.886-0.652l-0.886-0.699l-0.792-0.746l-0.839-0.746l-0.746-0.793l-0.746-0.885
		l-0.699-0.887l-0.652-0.885l-0.605-0.979l-0.606-1.025l-0.513-1.025l-0.513-1.072l-0.466-1.119l-0.42-1.166l-0.373-1.211
		l-0.279-1.213l-0.279-1.305l-0.187-1.305l-0.187-1.398l-0.094-1.398H365.197z"/>
</g>
<g id="LWPOLYLINE_1_">
	
		<polygon fill="none" stroke="#000000" stroke-width="0.7087" stroke-linecap="round" stroke-linejoin="round" stroke-miterlimit="10" points="
		148.498,257.541 149.57,257.518 150.619,257.471 151.668,257.377 152.717,257.262 153.742,257.098 154.768,256.912 155.77,256.654 
		156.771,256.398 157.751,256.096 158.706,255.746 159.639,255.373 160.57,254.953 161.479,254.488 162.365,253.998 
		163.228,253.463 164.09,252.902 164.905,252.297 165.698,251.668 166.467,250.992 167.213,250.27 167.936,249.523 168.635,248.73 
		169.287,247.893 169.939,247.029 170.546,246.121 171.105,245.189 171.641,244.209 172.153,243.184 172.62,242.135 
		173.062,241.041 173.459,239.898 173.809,238.732 174.135,237.521 174.414,236.262 174.647,234.98 174.857,233.652 
		175.021,232.301 175.137,230.879 175.207,229.434 175.207,227.965 175.207,226.869 175.16,225.799 175.113,224.75 175.021,223.678 
		174.881,222.605 174.741,221.557 174.577,220.508 174.368,219.482 174.135,218.457 173.855,217.432 173.575,216.43 
		173.226,215.449 172.876,214.494 172.48,213.539 172.037,212.607 171.571,211.697 171.082,210.789 170.546,209.926 
		169.986,209.088 169.381,208.271 168.728,207.48 168.052,206.711 167.329,205.965 166.561,205.266 165.745,204.613 
		164.905,203.961 164.021,203.354 163.111,202.795 162.132,202.26 161.13,201.77 160.058,201.326 158.963,200.93 157.82,200.559 
		156.632,200.23 155.396,199.951 154.115,199.742 152.786,199.555 151.389,199.416 149.967,199.346 148.498,199.322 
		147.007,199.346 145.585,199.416 144.21,199.555 142.905,199.742 141.623,199.951 140.411,200.23 139.223,200.559 138.104,200.93 
		137.031,201.326 136.006,201.77 135.027,202.26 134.072,202.795 133.187,203.354 132.324,203.961 131.531,204.613 130.763,205.266 
		130.04,205.965 129.341,206.711 128.688,207.48 128.082,208.271 127.522,209.088 126.987,209.926 126.475,210.789 126.008,211.697 
		125.589,212.607 125.192,213.539 124.819,214.494 124.493,215.449 124.19,216.43 123.934,217.432 123.678,218.457 123.468,219.482 
		123.281,220.508 123.142,221.557 123.002,222.605 122.885,223.678 122.815,224.75 122.769,225.799 122.722,226.869 
		122.722,227.965 122.745,229.434 122.792,230.879 122.908,232.301 123.048,233.652 123.234,234.98 123.468,236.262 
		123.724,237.521 124.027,238.732 124.354,239.898 124.727,241.041 125.146,242.135 125.565,243.184 126.055,244.209 
		126.544,245.189 127.104,246.121 127.663,247.029 128.269,247.893 128.898,248.73 129.551,249.523 130.227,250.27 130.949,250.992 
		131.671,251.668 132.44,252.297 133.232,252.902 134.049,253.463 134.864,253.998 135.727,254.488 136.612,254.953 
		137.498,255.373 138.43,255.746 139.362,256.096 140.318,256.398 141.273,256.654 142.275,256.912 143.277,257.098 144.28,257.262 
		145.329,257.377 146.354,257.471 147.426,257.518 	"/>
</g>
<g id="LWPOLYLINE_2_">
	
		<polygon fill="none" stroke="#000000" stroke-width="0.7087" stroke-linecap="round" stroke-linejoin="round" stroke-miterlimit="10" points="
		148.498,248.008 147.706,247.984 146.96,247.939 146.261,247.846 145.562,247.729 144.909,247.566 144.257,247.379 143.65,247.17 
		143.068,246.936 142.509,246.656 141.973,246.354 141.46,246.027 140.971,245.678 140.504,245.305 140.062,244.908 
		139.642,244.467 139.246,244.023 138.873,243.557 138.523,243.068 138.174,242.555 137.871,242.043 137.567,241.482 
		137.288,240.924 137.031,240.342 136.799,239.758 136.589,239.152 136.379,238.523 136.192,237.895 136.029,237.242 
		135.866,236.588 135.727,235.912 135.61,235.236 135.517,234.561 135.424,233.861 135.33,233.162 135.261,232.463 135.214,231.764 
		135.167,231.041 135.144,230.342 135.121,229.621 135.121,228.898 135.121,228.059 135.144,227.219 135.19,226.381 
		135.237,225.564 135.307,224.75 135.4,223.957 135.493,223.188 135.587,222.418 135.727,221.674 135.866,220.951 136.029,220.229 
		136.216,219.529 136.402,218.854 136.612,218.178 136.846,217.523 137.078,216.895 137.335,216.289 137.614,215.707 
		137.917,215.146 138.221,214.588 138.57,214.074 138.896,213.562 139.27,213.072 139.665,212.631 140.062,212.188 140.481,211.768 
		140.924,211.395 141.39,211.021 141.879,210.695 142.369,210.393 142.905,210.113 143.44,209.857 144,209.623 144.583,209.414 
		145.165,209.25 145.795,209.111 146.447,208.994 147.1,208.924 147.775,208.877 148.498,208.855 149.197,208.877 149.873,208.924 
		150.549,208.994 151.179,209.111 151.808,209.25 152.414,209.414 152.973,209.623 153.532,209.857 154.092,210.113 
		154.604,210.393 155.117,210.695 155.583,211.021 156.05,211.395 156.492,211.768 156.912,212.188 157.308,212.631 
		157.704,213.072 158.077,213.562 158.427,214.074 158.753,214.588 159.056,215.146 159.358,215.707 159.639,216.289 
		159.895,216.895 160.151,217.523 160.361,218.178 160.57,218.854 160.78,219.529 160.943,220.229 161.106,220.951 161.247,221.674 
		161.387,222.418 161.503,223.188 161.597,223.957 161.666,224.75 161.736,225.564 161.782,226.381 161.829,227.219 
		161.853,228.059 161.853,228.898 161.853,229.621 161.829,230.342 161.806,231.041 161.76,231.764 161.713,232.463 
		161.643,233.162 161.573,233.861 161.479,234.561 161.363,235.236 161.247,235.912 161.106,236.588 160.943,237.242 
		160.78,237.895 160.594,238.523 160.385,239.152 160.175,239.758 159.941,240.342 159.686,240.924 159.405,241.482 
		159.103,242.043 158.8,242.555 158.45,243.068 158.101,243.557 157.728,244.023 157.331,244.467 156.912,244.908 156.469,245.305 
		156.003,245.678 155.514,246.027 155.001,246.354 154.465,246.656 153.905,246.936 153.322,247.17 152.717,247.379 
		152.087,247.566 151.411,247.729 150.735,247.846 150.013,247.939 149.268,247.984 	"/>
</g>
<g id="LWPOLYLINE_3_">
	
		<polygon fill="none" stroke="#000000" stroke-width="0.7087" stroke-linecap="round" stroke-linejoin="round" stroke-miterlimit="10" points="
		223.893,316.738 224.965,316.715 226.037,316.668 227.086,316.574 228.135,316.436 229.16,316.295 230.186,316.086 
		231.188,315.852 232.189,315.572 233.169,315.27 234.124,314.92 235.057,314.547 235.989,314.127 236.897,313.686 237.783,313.172 
		238.646,312.66 239.508,312.1 240.323,311.494 241.116,310.842 241.885,310.166 242.631,309.443 243.354,308.697 244.053,307.904 
		244.705,307.09 245.357,306.227 245.94,305.318 246.523,304.363 247.06,303.383 247.572,302.381 248.038,301.309 248.48,300.215 
		248.877,299.096 249.227,297.906 249.553,296.695 249.833,295.459 250.065,294.178 250.275,292.85 250.438,291.475 
		250.531,290.076 250.602,288.631 250.625,287.139 250.625,286.066 250.578,284.996 250.509,283.924 250.415,282.852 
		250.299,281.803 250.159,280.754 249.973,279.705 249.786,278.656 249.553,277.631 249.273,276.629 248.97,275.627 
		248.644,274.646 248.294,273.668 247.898,272.713 247.455,271.781 246.989,270.871 246.5,269.986 245.964,269.123 245.404,268.262 
		244.775,267.445 244.146,266.654 243.446,265.908 242.725,265.162 241.979,264.463 241.163,263.787 240.323,263.158 
		239.438,262.551 238.506,261.992 237.55,261.457 236.548,260.967 235.476,260.523 234.381,260.104 233.238,259.732 232.05,259.428 
		230.814,259.148 229.533,258.916 228.182,258.729 226.807,258.613 225.385,258.52 223.893,258.496 222.425,258.52 221.003,258.613 
		219.604,258.729 218.276,258.916 216.994,259.148 215.759,259.428 214.57,259.732 213.429,260.104 212.333,260.523 
		211.261,260.967 210.259,261.457 209.28,261.992 208.371,262.551 207.485,263.158 206.646,263.787 205.831,264.463 
		205.062,265.162 204.339,265.908 203.663,266.654 203.011,267.445 202.405,268.262 201.846,269.123 201.31,269.986 200.82,270.871 
		200.354,271.781 199.911,272.713 199.515,273.668 199.165,274.646 198.839,275.627 198.536,276.629 198.257,277.631 
		198.023,278.656 197.813,279.705 197.65,280.754 197.511,281.803 197.371,282.852 197.301,283.924 197.231,284.996 
		197.185,286.066 197.185,287.139 197.208,288.631 197.254,290.076 197.371,291.475 197.534,292.85 197.744,294.178 
		197.977,295.459 198.257,296.695 198.583,297.906 198.933,299.096 199.328,300.215 199.771,301.309 200.237,302.381 
		200.75,303.383 201.286,304.363 201.846,305.318 202.451,306.227 203.081,307.09 203.757,307.904 204.456,308.697 205.179,309.443 
		205.924,310.166 206.693,310.842 207.485,311.494 208.302,312.1 209.164,312.66 210.026,313.172 210.911,313.686 211.82,314.127 
		212.729,314.547 213.685,314.92 214.641,315.27 215.619,315.572 216.621,315.852 217.624,316.086 218.649,316.295 219.675,316.436 
		220.724,316.574 221.772,316.668 222.844,316.715 	"/>
</g>
<g id="LWPOLYLINE_4_">
	
		<polygon fill="none" stroke="#000000" stroke-width="0.7087" stroke-linecap="round" stroke-linejoin="round" stroke-miterlimit="10" points="
		223.893,307.182 223.124,307.158 222.378,307.113 221.679,307.02 220.979,306.902 220.304,306.764 219.675,306.576 
		219.068,306.367 218.486,306.109 217.927,305.854 217.391,305.551 216.878,305.225 216.389,304.875 215.923,304.479 
		215.479,304.082 215.06,303.664 214.664,303.221 214.291,302.754 213.941,302.266 213.592,301.752 213.289,301.217 212.985,300.68 
		212.706,300.121 212.45,299.537 212.217,298.932 212.007,298.326 211.797,297.697 211.61,297.068 211.447,296.438 211.284,295.762 
		211.145,295.109 211.028,294.434 210.911,293.734 210.818,293.059 210.748,292.359 210.679,291.66 210.632,290.938 
		210.585,290.238 210.562,289.516 210.539,288.816 210.539,288.096 210.539,287.232 210.562,286.393 210.608,285.578 
		210.655,284.738 210.726,283.947 210.795,283.154 210.911,282.385 211.005,281.615 211.145,280.869 211.284,280.125 
		211.447,279.426 211.61,278.703 211.82,278.027 212.03,277.375 212.24,276.721 212.496,276.092 212.753,275.486 213.032,274.904 
		213.335,274.32 213.639,273.785 213.965,273.248 214.314,272.736 214.688,272.27 215.083,271.805 215.479,271.361 215.899,270.965 
		216.342,270.568 216.808,270.219 217.298,269.869 217.787,269.566 218.3,269.287 218.836,269.031 219.418,268.797 219.978,268.611 
		220.584,268.447 221.213,268.309 221.842,268.191 222.518,268.121 223.193,268.074 223.893,268.051 224.615,268.074 
		225.291,268.121 225.967,268.191 226.597,268.309 227.226,268.447 227.809,268.611 228.391,268.797 228.95,269.031 229.51,269.287 
		230.022,269.566 230.512,269.869 231.001,270.219 231.468,270.568 231.91,270.965 232.33,271.361 232.726,271.805 233.122,272.27 
		233.495,272.736 233.845,273.248 234.171,273.785 234.474,274.32 234.777,274.904 235.057,275.486 235.312,276.092 
		235.546,276.721 235.779,277.375 235.989,278.027 236.175,278.703 236.361,279.426 236.524,280.125 236.665,280.869 
		236.805,281.615 236.897,282.385 237.015,283.154 237.084,283.947 237.154,284.738 237.201,285.578 237.247,286.393 
		237.271,287.232 237.271,288.096 237.271,288.816 237.247,289.516 237.224,290.238 237.178,290.938 237.131,291.66 
		237.061,292.359 236.968,293.059 236.874,293.734 236.781,294.434 236.665,295.109 236.524,295.762 236.361,296.438 
		236.198,297.068 236.012,297.697 235.803,298.326 235.593,298.932 235.359,299.537 235.104,300.121 234.823,300.68 
		234.521,301.217 234.218,301.752 233.868,302.266 233.519,302.754 233.146,303.221 232.749,303.664 232.33,304.082 
		231.887,304.479 231.421,304.875 230.932,305.225 230.419,305.551 229.883,305.854 229.323,306.109 228.74,306.367 
		228.135,306.576 227.482,306.764 226.829,306.902 226.131,307.02 225.432,307.113 224.686,307.158 	"/>
</g>
<g id="LWPOLYLINE_5_">
	
		<path fill="none" stroke="#000000" stroke-width="0.7087" stroke-linecap="round" stroke-linejoin="round" stroke-miterlimit="10" d="
		M154.208,320.561c0.14-0.234,0.536-0.91,0.536-0.91l0.629-1.094l0.862-1.516l1.096-1.865l1.282-2.213l1.491-2.564l1.655-2.844
		l1.817-3.146l1.981-3.402l2.097-3.635l2.238-3.822l2.33-4.033l2.424-4.193l2.518-4.336l2.587-4.451l2.633-4.545l2.681-4.615
		l2.703-4.66l2.727-4.686l2.704-4.684l2.727-4.662l2.657-4.613l2.656-4.545l2.564-4.451l2.517-4.336l2.447-4.195l2.33-4.031
		l2.237-3.846l2.098-3.635l1.958-3.381l1.841-3.145l1.655-2.867l1.468-2.541l1.306-2.236l1.072-1.865l0.862-1.492l0.652-1.094
		l0.396-0.678c-0.164-0.232-0.327-0.232-0.327-0.232c-0.186,0-0.396,0-0.396,0h-0.257h-0.256h-0.28h-0.303h-0.326h-0.35h-0.35h-0.35
		h-0.373h-0.396h-0.372h-0.396h-0.396h-0.396h-0.396h-0.373h-0.396h-0.373h-0.35h-0.35h-0.35h-0.326h-0.303h-0.279h-0.257h-0.256
		c-0.21,0-0.396,0-0.396,0c-0.163,0-0.279,0-0.279,0c-0.164,0-0.304,0.232-0.304,0.232l-0.396,0.678l-0.63,1.094l-0.862,1.492
		l-1.095,1.865l-1.282,2.236l-1.491,2.541l-1.655,2.867l-1.817,3.145l-1.981,3.381l-2.098,3.635l-2.237,3.846l-2.33,4.031
		l-2.424,4.195l-2.518,4.336l-2.587,4.451l-2.634,4.545l-2.68,4.613l-2.704,4.662l-2.727,4.684l-2.703,4.686l-2.704,4.66
		l-2.68,4.615l-2.634,4.545l-2.587,4.451l-2.517,4.336l-2.424,4.193l-2.354,4.033l-2.214,3.822l-2.121,3.635l-1.957,3.402
		l-1.818,3.146l-1.678,2.844l-1.469,2.564l-1.281,2.213l-1.096,1.865l-0.862,1.516l-0.652,1.094l-0.373,0.676
		C143.721,320.561,154.208,320.561,154.208,320.561z"/>
</g>
</svg>
