<?xml version="1.0" encoding="utf-8"?>
<!-- Generator: Adobe Illustrator 16.0.1, SVG Export Plug-In . SVG Version: 6.00 Build 0)  -->
<!DOCTYPE svg PUBLIC "-//W3C//DTD SVG 1.0//EN" "http://www.w3.org/TR/2001/REC-SVG-20010904/DTD/svg10.dtd">
<svg version="1.0" id="_x31_" xmlns="http://www.w3.org/2000/svg" xmlns:xlink="http://www.w3.org/1999/xlink" x="0px" y="0px"
	 width="612px" height="792px" viewBox="0 0 612 792" enable-background="new 0 0 612 792" xml:space="preserve">
<g id="LWPOLYLINE">
	
		<path fill="none" stroke="#000000" stroke-width="0.7087" stroke-linecap="round" stroke-linejoin="round" stroke-miterlimit="10" d="
		M351.129,542.076l0.096,0.615l0.047,0.617l0.095,0.615l0.048,0.664l0.095,0.664l0.047,0.711l0.048,0.711l0.095,0.711l0.095,0.758
		l0.095,0.76l0.095,0.758l0.095,0.807l0.095,0.805l0.143,0.807l0.143,0.807l0.142,0.852l0.143,0.807l0.189,0.854l0.189,0.9
		l0.189,0.854l0.237,0.854l0.237,0.9l0.284,0.9l0.284,0.9l0.332,0.9l0.332,0.902l0.332,0.9l0.427,0.9l0.379,0.9l0.474,0.9
		l0.427,0.949l0.521,0.9l0.521,0.9l0.569,0.9l0.616,0.9l0.616,0.9l0.663,0.902l0.712,0.9l0.758,0.854l0.759,0.9l0.948,1.09
		l0.995,1.043l0.996,0.996l1.042,0.994l1.043,0.902l1.091,0.947l1.09,0.854l1.138,0.9l1.138,0.807l1.186,0.805l1.185,0.76
		l1.186,0.711l1.232,0.711l1.232,0.662l1.28,0.664l1.28,0.617l1.279,0.568l1.28,0.568l1.327,0.521l1.375,0.521l1.327,0.475
		l1.375,0.475l1.374,0.426l1.423,0.379l1.374,0.379l1.423,0.332l1.422,0.332l1.47,0.285l1.422,0.285l1.47,0.236l1.47,0.236
		l1.469,0.189l1.518,0.143l1.47,0.143l1.517,0.143l1.517,0.094l1.518,0.096l1.517,0.047l1.517,0.047h1.518l3.318-0.047l3.224-0.189
		l3.128-0.236l3.034-0.381l2.986-0.473l2.892-0.521l2.797-0.664l2.75-0.758l2.607-0.807l2.56-0.9l2.465-0.996l2.418-1.043
		l2.275-1.137l2.228-1.232l2.134-1.281l2.038-1.326l1.991-1.422l1.896-1.471l1.802-1.516l1.707-1.564l1.611-1.613l1.564-1.705
		l1.47-1.707l1.374-1.754l1.28-1.801l1.232-1.85l1.138-1.85l1.043-1.943l0.948-1.896l0.9-1.943l0.806-1.99l0.712-1.99l0.616-2.039
		l0.521-1.992l0.474-2.037l0.379-2.039l0.285-2.086l0.236-2.037l0.095-2.039l0.048-2.039v-0.332v-0.473v-0.57l-0.048-0.662
		l-0.047-0.807l-0.048-0.854l-0.095-0.947l-0.095-1.043l-0.142-1.092l-0.19-1.184l-0.189-1.232l-0.284-1.281l-0.284-1.326
		l-0.38-1.375l-0.379-1.422l-0.474-1.471l-0.521-1.469l-0.616-1.518l-0.664-1.516l-0.759-1.518l-0.806-1.518l-0.9-1.516
		l-0.996-1.518l-1.09-1.518l-1.186-1.518l-1.279-1.422l-1.375-1.469l-1.47-1.375l-1.564-1.328l-1.706-1.326l-1.849-1.232
		l-1.944-1.186l-2.038-1.137l-2.228-1.043l-2.323-0.949l-2.465-0.9l-2.607-0.807l-2.749-0.662l-2.893-0.617l-3.081-0.521
		l2.229-0.521l2.133-0.568l2.086-0.664l1.991-0.711l1.896-0.758l1.85-0.807l1.754-0.807l1.659-0.9l1.659-0.947l1.517-0.949
		l1.517-0.994l1.375-1.043l1.375-1.09l1.279-1.092l1.233-1.137l1.138-1.186l1.09-1.186l1.043-1.186l0.995-1.232l0.901-1.232
		l0.853-1.279l0.807-1.279l0.758-1.281l0.711-1.326l0.664-1.279l0.616-1.328l0.521-1.328l0.521-1.326l0.427-1.328l0.427-1.279
		l0.379-1.328l0.284-1.326l0.285-1.281l0.236-1.279l0.189-1.279l0.19-1.232l0.095-1.281l0.095-1.184l0.047-1.234l0.048-1.184
		l-0.048-1.943l-0.142-1.945l-0.189-1.943l-0.285-1.943l-0.331-1.943l-0.475-1.896l-0.521-1.896l-0.568-1.895l-0.712-1.85
		l-0.711-1.801l-0.853-1.803l-0.901-1.801l-0.995-1.754l-1.091-1.707l-1.138-1.658l-1.232-1.637l-1.327-1.588l-1.375-1.564
		l-1.469-1.516l-1.564-1.447l-1.612-1.422l-1.706-1.35l-1.754-1.328l-1.85-1.232l-1.943-1.209l-2.038-1.137l-2.086-1.068
		l-2.181-0.994l-2.228-0.949l-2.323-0.854L441.245,401l-2.465-0.711l-2.56-0.664l-2.607-0.568l-2.702-0.475l-2.797-0.402
		l-2.892-0.332l-2.939-0.213l-2.986-0.143l-3.128-0.049h-1.186l-1.327,0.049l-1.422,0.047l-1.518,0.096l-1.564,0.117l-1.659,0.143
		l-1.754,0.189l-1.801,0.236l-1.85,0.285l-1.896,0.332l-1.943,0.379l-1.944,0.428l-2.038,0.496l-1.991,0.57l-2.038,0.615
		l-2.086,0.711l-2.038,0.76l-2.039,0.854l-2.038,0.924l-1.991,1.02l-1.99,1.09l-1.991,1.209l-1.896,1.279l-1.896,1.375l-1.801,1.494
		l-1.754,1.588l-1.707,1.705l-1.611,1.803l-1.564,1.92l-1.422,2.037l-1.375,2.182l-1.28,2.275l-1.138,2.418l-1.043,2.559
		l-0.948,2.703l-0.758,2.797l-0.664,2.986l-0.568,3.08l-0.38,3.271l-0.189,3.414c0.189,0,0.427,0,0.427,0h0.332h0.427h0.521h0.568
		h0.664h0.663h0.807h0.806h0.854h0.9h0.948h0.995h0.995h0.996h1.043h1.043h1.09h1.043h1.043h1.043h1.043h0.995h0.948h0.948h0.9
		h0.901h0.806h0.758h0.712h0.616h0.616h0.474h0.427h0.332h0.237c0.236,0,0.474-1.707,0.474-1.707l0.284-1.66l0.38-1.564l0.379-1.516
		l0.427-1.471l0.521-1.422l0.521-1.326l0.568-1.281l0.664-1.232l0.663-1.184l0.664-1.139l0.759-1.043l0.758-0.996l0.807-0.994
		l0.853-0.9l0.854-0.854l0.9-0.807l0.948-0.807l0.948-0.711l0.948-0.662l0.995-0.617l0.996-0.617l1.043-0.568l1.043-0.473
		l1.09-0.475l1.091-0.428l1.09-0.426l1.09-0.332l1.091-0.332l1.138-0.283l1.09-0.285l1.138-0.189l1.138-0.189l1.138-0.189
		l1.138-0.143l1.091-0.096l1.138-0.094l1.09-0.049l1.138-0.047h1.091h1.47l1.422,0.047l1.375,0.096l1.422,0.096l1.327,0.141
		l1.375,0.143l1.327,0.238l1.28,0.236l1.279,0.236l1.232,0.332l1.186,0.332l1.186,0.379l1.185,0.379l1.138,0.428l1.091,0.521
		l1.043,0.475l1.043,0.568l0.995,0.615l0.948,0.617l0.948,0.664l0.9,0.711l0.854,0.758l0.806,0.807l0.759,0.854l0.758,0.852
		l0.711,0.902l0.616,0.994l0.616,0.996l0.569,1.043l0.521,1.09l0.474,1.139l0.475,1.232l0.379,1.232l0.332,1.279l0.284,1.328
		l0.237,1.375l0.189,1.422l0.143,1.469l0.047,1.518l0.048,1.564l-0.095,2.275l-0.143,2.18l-0.284,2.086l-0.427,1.99l-0.475,1.896
		l-0.616,1.803l-0.663,1.705l-0.806,1.613l-0.854,1.564l-0.948,1.422l-1.043,1.375l-1.09,1.326l-1.186,1.186l-1.232,1.137
		l-1.327,1.092l-1.327,0.947l-1.423,0.949l-1.469,0.852l-1.518,0.76l-1.517,0.758l-1.612,0.664l-1.611,0.568l-1.659,0.568
		l-1.659,0.475l-1.659,0.428l-1.707,0.379l-1.706,0.332l-1.754,0.283l-1.707,0.238l-1.706,0.189l-1.754,0.189l-1.707,0.094
		l-1.659,0.096h-1.706h-1.612h-1.659l-1.564-0.047l-1.563-0.096l-1.518-0.096l-1.517-0.141c0,0.141,0,0.332,0,0.332v0.283v0.332
		v0.379v0.475v0.521v0.568v0.568v0.664v0.664v0.758v0.711v0.807v0.807v0.805v0.807v0.854v0.805v0.854v0.807v0.854v0.805v0.807v0.758
		v0.76v0.711v0.664v0.662v0.617v0.568v0.521v0.428v0.426v0.332v0.236c0,0.189,0,0.332,0,0.332c0,0.047,0.758,0.047,0.758,0.047
		h0.712h0.663h0.711h0.711h0.664h0.664h0.663h0.664h0.663l0.616,0.049h0.664h0.616l0.664,0.047h0.616h0.663l0.616,0.047l0.664,0.047
		h0.616l0.616,0.049l0.664,0.047l0.616,0.047l0.663,0.049l0.664,0.047l0.616,0.047l0.664,0.047l0.663,0.049l0.664,0.094l0.711,0.047
		l0.663,0.096l0.664,0.096l0.711,0.094l0.711,0.096l0.711,0.094l0.759,0.096l0.711,0.143l0.759,0.094l0.806,0.143l0.759,0.143
		l0.806,0.143l0.995,0.236l1.043,0.236l0.996,0.285l1.043,0.332l0.995,0.332l0.996,0.332l0.995,0.426l0.995,0.379l0.948,0.475
		l0.948,0.475l0.948,0.521l0.948,0.521l0.9,0.568l0.948,0.568l0.854,0.664l0.853,0.615l0.854,0.711l0.854,0.713l0.806,0.758
		l0.759,0.805l0.758,0.807l0.712,0.854l0.711,0.854l0.663,0.947l0.616,0.949l0.616,0.994l0.569,0.996l0.568,1.09l0.475,1.092
		l0.474,1.09l0.427,1.186l0.379,1.184l0.332,1.281l0.332,1.232l0.237,1.326l0.237,1.375l0.142,1.375l0.143,1.422l0.095,1.471v1.516
		v1.232l-0.095,1.232l-0.095,1.281l-0.143,1.232l-0.189,1.232l-0.284,1.232l-0.285,1.232l-0.331,1.186l-0.38,1.232l-0.427,1.184
		l-0.474,1.186l-0.521,1.139l-0.569,1.186l-0.616,1.09l-0.663,1.137l-0.711,1.092l-0.759,1.041l-0.806,1.043l-0.854,0.996
		l-0.9,0.996l-0.948,0.947l-0.996,0.9l-1.042,0.902l-1.138,0.852l-1.138,0.807l-1.186,0.758l-1.28,0.711l-1.279,0.713l-1.375,0.615
		l-1.375,0.617l-1.47,0.521l-1.517,0.521l-1.564,0.426l-1.611,0.379l-1.659,0.332l-1.754,0.285l-1.754,0.236l-1.85,0.143
		l-1.896,0.094l-1.943,0.049l-1.707-0.049l-1.707-0.047l-1.611-0.143l-1.611-0.189l-1.564-0.189l-1.518-0.285l-1.517-0.283
		l-1.422-0.379l-1.375-0.379l-1.375-0.475l-1.327-0.475l-1.232-0.521l-1.232-0.568l-1.186-0.617l-1.138-0.615l-1.09-0.711
		l-1.043-0.711l-1.043-0.76l-0.948-0.758l-0.9-0.854l-0.854-0.854l-0.854-0.854l-0.758-0.947l-0.759-0.947l-0.664-0.949
		l-0.663-0.996l-0.569-1.043l-0.521-1.043l-0.521-1.09l-0.427-1.137l-0.426-1.092l-0.332-1.184l-0.332-1.186l-0.237-1.186
		l-0.189-1.232l-0.143-1.232l-0.142-1.232l-0.048-1.279v-1.281l0.048-1.326H351.129z"/>
</g>
<g id="LWPOLYLINE_1_">
	
		<path fill="none" stroke="#000000" stroke-width="0.7087" stroke-linecap="round" stroke-linejoin="round" stroke-miterlimit="10" d="
		M129.797,277.061c0.119,0,0.261,0,0.261,0c0.19,0,0.451,0,0.451,0h0.284h0.332h0.379h0.427h0.45h0.474h0.498h0.545h0.546h0.568
		h0.593h0.593h0.616h0.616h0.616h0.616h0.616h0.616h0.593h0.593h0.568h0.545h0.545h0.498h0.475h0.45h0.427h0.379h0.332h0.284h0.261
		c0.189,0,0.332,0,0.332,0c0.071,0.236,0.023,0.521,0.023,0.521l-0.071,0.402l-0.071,0.498l-0.118,0.592l-0.118,0.664l-0.143,0.76
		l-0.143,0.828l-0.142,0.877l-0.166,0.973l-0.189,1.02l-0.189,1.066l-0.19,1.09l-0.213,1.162l-0.189,1.16l-0.214,1.209l-0.213,1.209
		l-0.237,1.232l-0.213,1.232l-0.214,1.232l-0.213,1.232l-0.214,1.232l-0.213,1.186l-0.213,1.186l-0.19,1.137l-0.213,1.115
		l-0.189,1.066l-0.166,1.02l-0.166,0.947l-0.166,0.9l-0.142,0.83l-0.143,0.734l-0.118,0.688l-0.096,0.594l-0.095,0.473l-0.07,0.404
		l-0.048,0.283c0.189,0.262,0.332,0.262,0.332,0.262c0.213,0,0.45,0,0.45,0h0.284h0.309h0.332h0.379h0.402h0.403h0.45h0.45h0.475
		h0.474h0.498h0.498h0.521h0.497h0.498h0.521h0.498h0.497h0.475h0.474h0.45h0.45h0.427h0.38h0.379h0.332h0.308h0.285
		c0.236,0,0.45,0,0.45,0c0.166,0,0.284,0,0.284,0c0.143-0.262,0.189-0.545,0.189-0.545l0.071-0.404l0.071-0.473l0.118-0.594
		l0.119-0.688l0.118-0.734l0.166-0.83l0.142-0.9l0.166-0.947l0.189-1.02l0.19-1.066l0.189-1.115l0.213-1.137l0.189-1.186
		l0.214-1.186l0.213-1.232l0.214-1.232l0.236-1.232l0.214-1.232l0.213-1.232l0.214-1.209l0.213-1.209l0.214-1.16l0.189-1.162
		l0.189-1.09l0.189-1.066l0.189-1.02l0.166-0.973l0.166-0.877l0.143-0.828l0.142-0.76l0.119-0.664l0.095-0.592l0.095-0.498
		l0.071-0.402l0.047-0.285c0.189-0.236,0.355-0.236,0.355-0.236h0.261h0.285h0.379h0.403h0.474h0.521h0.545h0.593h0.616h0.664h0.687
		h0.712h0.711h0.758h0.735h0.758h0.782h0.759h0.759h0.758h0.735h0.734h0.688h0.688h0.664h0.616h0.592h0.569h0.498h0.474h0.403h0.379
		h0.309h0.236c0.166,0,0.284,0,0.284,0c0,0.236-0.047,0.521-0.047,0.521l-0.071,0.402l-0.095,0.498l-0.095,0.592l-0.118,0.664
		l-0.143,0.76l-0.143,0.828l-0.166,0.877l-0.165,0.973l-0.166,1.02l-0.19,1.066l-0.213,1.09l-0.189,1.162l-0.214,1.16l-0.213,1.209
		l-0.213,1.209l-0.214,1.232l-0.213,1.232l-0.214,1.232l-0.236,1.232l-0.214,1.232l-0.213,1.186l-0.19,1.186l-0.213,1.137
		l-0.189,1.115l-0.189,1.066l-0.189,1.02l-0.166,0.947l-0.143,0.9l-0.143,0.83l-0.142,0.734l-0.119,0.688l-0.118,0.594l-0.071,0.473
		l-0.071,0.404l-0.047,0.283c0.142,0.262,0.308,0.262,0.308,0.262c0.19,0,0.403,0,0.403,0h0.261h0.284h0.332h0.332h0.379h0.379
		h0.403h0.427h0.427h0.45h0.474h0.451h0.474h0.474h0.475h0.474h0.475h0.45h0.45h0.427h0.427h0.402h0.403h0.355h0.355h0.309h0.284
		h0.261c0.237,0,0.427,0,0.427,0c0.142,0,0.261,0,0.261,0c0.118-0.262,0.189-0.545,0.189-0.545l0.071-0.404l0.118-0.473l0.118-0.594
		l0.143-0.688l0.143-0.734l0.166-0.83l0.189-0.9l0.213-0.947l0.189-1.02l0.237-1.066l0.214-1.115l0.236-1.137l0.237-1.186
		l0.261-1.186l0.237-1.232l0.261-1.232l0.261-1.232l0.236-1.232l0.261-1.232l0.261-1.209l0.237-1.209l0.237-1.16l0.236-1.162
		l0.237-1.09l0.214-1.066l0.213-1.02l0.189-0.973l0.189-0.877l0.166-0.828l0.166-0.76l0.143-0.664l0.118-0.592l0.095-0.498
		l0.095-0.402l0.048-0.285c0.189-0.236,0.355-0.236,0.355-0.236c0.213,0,0.498,0,0.498,0h0.308h0.379h0.427h0.475h0.497h0.521h0.569
		h0.593h0.616h0.64h0.664h0.663h0.688h0.688h0.688h0.688h0.688h0.687h0.664h0.664h0.64h0.616h0.593h0.568h0.546h0.497h0.45h0.427
		h0.38h0.331h0.285c0.213,0,0.379,0,0.379,0c0.118-0.189,0.118-0.332,0.118-0.332c0-0.166,0-0.379,0-0.379c0-0.238,0-0.498,0-0.498
		v-0.309v-0.309v-0.33v-0.355v-0.381v-0.402v-0.402v-0.404v-0.426v-0.426v-0.428v-0.449v-0.428v-0.449v-0.428V269.5v-0.404v-0.402
		v-0.402v-0.355v-0.379v-0.332v-0.309v-0.309v-0.26c0-0.238,0-0.451,0-0.451c0-0.166,0-0.309,0-0.309
		c-0.118-0.189-0.261-0.189-0.261-0.189c-0.189,0-0.45,0-0.45,0h-0.284h-0.332h-0.379h-0.403h-0.45h-0.498h-0.497h-0.546h-0.545
		h-0.568h-0.593h-0.593h-0.616h-0.616h-0.616h-0.616h-0.616h-0.616h-0.593h-0.593h-0.568h-0.545h-0.546h-0.497h-0.475h-0.45h-0.427
		h-0.355h-0.355h-0.284h-0.237c-0.213,0-0.355,0-0.355,0c-0.071-0.166-0.048-0.379-0.048-0.379l0.071-0.285l0.071-0.379l0.095-0.426
		l0.095-0.498l0.095-0.545l0.143-0.617l0.118-0.664l0.143-0.686l0.143-0.76l0.165-0.781l0.166-0.807l0.166-0.854l0.166-0.854
		l0.189-0.877l0.166-0.9l0.189-0.9l0.166-0.924l0.189-0.9l0.19-0.902l0.166-0.9l0.189-0.877l0.166-0.877l0.165-0.828l0.166-0.807
		l0.166-0.783l0.143-0.758l0.143-0.711l0.118-0.641l0.143-0.615l0.095-0.568l0.095-0.475l0.095-0.451l0.071-0.355l0.07-0.283
		c0.024-0.215,0.071-0.355,0.071-0.355c0.143-0.049,0.284-0.049,0.284-0.049c0.237,0,0.498,0,0.498,0h0.332h0.379h0.427h0.45h0.498
		h0.545h0.569h0.593h0.616h0.64h0.663h0.664h0.688h0.688h0.688h0.688h0.687h0.688h0.664h0.663h0.641h0.616h0.593h0.568h0.521h0.521
		h0.45h0.427h0.379h0.332h0.261c0.237,0,0.38,0,0.38,0c0.142-0.166,0.142-0.307,0.142-0.307c0-0.189,0-0.381,0-0.381
		c0-0.26,0-0.521,0-0.521v-0.283v-0.309v-0.355v-0.355v-0.379v-0.379v-0.404v-0.426V236.6v-0.426v-0.426v-0.428v-0.449v-0.428
		v-0.426v-0.428v-0.426v-0.404v-0.379v-0.379v-0.355v-0.332v-0.332v-0.283v-0.262c0-0.236,0-0.449,0-0.449c0-0.166,0-0.309,0-0.309
		c-0.118-0.189-0.261-0.189-0.261-0.189c-0.189,0-0.45,0-0.45,0h-0.284h-0.332h-0.379h-0.427h-0.45h-0.475h-0.498h-0.545h-0.545
		h-0.568h-0.593h-0.593h-0.616h-0.616h-0.616h-0.616h-0.616h-0.616h-0.593h-0.593h-0.568h-0.546h-0.545h-0.498h-0.474h-0.45h-0.427
		h-0.379h-0.332h-0.284h-0.261c-0.19,0-0.332,0-0.332,0c-0.119-0.072-0.071-0.262-0.071-0.262l0.048-0.283l0.07-0.404l0.071-0.521
		l0.119-0.592l0.118-0.688l0.118-0.781l0.166-0.854l0.143-0.926l0.166-0.994l0.189-1.043l0.189-1.09l0.189-1.139l0.214-1.186
		l0.189-1.209l0.213-1.232l0.214-1.256l0.213-1.256l0.237-1.279l0.213-1.281l0.214-1.256l0.213-1.256l0.214-1.232l0.213-1.209
		l0.189-1.186l0.189-1.137l0.189-1.092l0.19-1.043l0.166-0.994l0.165-0.926l0.143-0.852l0.143-0.76l0.118-0.711l0.095-0.592
		l0.095-0.521l0.071-0.404l0.048-0.283c0.023-0.189,0.047-0.262,0.047-0.262c-0.213,0-0.355,0-0.355,0c-0.189,0-0.427,0-0.427,0
		h-0.261h-0.284h-0.309h-0.355h-0.355h-0.402h-0.403h-0.403h-0.45h-0.45h-0.45h-0.474h-0.475h-0.474h-0.475h-0.45h-0.474h-0.475
		h-0.427h-0.45h-0.427h-0.402h-0.38h-0.379h-0.332h-0.331h-0.285h-0.261c-0.213,0-0.402,0-0.402,0c-0.143,0-0.261,0-0.261,0
		c-0.119,0.072-0.143,0.262-0.143,0.262l-0.071,0.283l-0.071,0.404l-0.095,0.521l-0.118,0.592l-0.143,0.711l-0.166,0.76
		l-0.165,0.852l-0.19,0.926l-0.189,0.994l-0.213,1.043l-0.214,1.092l-0.236,1.137l-0.237,1.186l-0.237,1.209l-0.236,1.232
		l-0.261,1.256l-0.261,1.256l-0.237,1.281l-0.261,1.279l-0.261,1.256l-0.237,1.256l-0.261,1.232l-0.237,1.209l-0.236,1.186
		l-0.214,1.139l-0.236,1.09l-0.214,1.043l-0.189,0.994l-0.189,0.926l-0.166,0.854l-0.143,0.781l-0.142,0.688l-0.119,0.592
		l-0.118,0.521l-0.071,0.404l-0.071,0.283c-0.023,0.189-0.047,0.262-0.047,0.262c-0.143,0-0.309,0-0.309,0h-0.261h-0.308h-0.355
		h-0.427h-0.45h-0.521h-0.546h-0.592h-0.641h-0.64h-0.688h-0.711h-0.711h-0.759h-0.734h-0.782h-0.759h-0.758h-0.759h-0.759h-0.734
		h-0.735h-0.711h-0.663h-0.664h-0.616h-0.593h-0.568h-0.498h-0.474h-0.427h-0.355h-0.309h-0.237c-0.189,0-0.284,0-0.284,0
		c-0.023-0.072,0-0.262,0-0.262l0.071-0.283l0.071-0.404l0.095-0.521l0.142-0.592l0.119-0.688l0.166-0.781l0.166-0.854l0.189-0.926
		l0.189-0.994l0.213-1.043l0.214-1.09l0.237-1.139l0.236-1.186l0.237-1.209l0.261-1.232l0.237-1.256l0.261-1.256l0.261-1.279
		l0.236-1.281l0.261-1.256l0.261-1.256l0.237-1.232l0.237-1.209l0.236-1.186l0.237-1.137l0.214-1.092l0.213-1.043l0.189-0.994
		l0.189-0.926l0.166-0.852l0.166-0.76l0.143-0.711l0.118-0.592l0.095-0.521l0.071-0.404l0.071-0.283
		c0.023-0.189,0.047-0.262,0.047-0.262c-0.213,0-0.379,0-0.379,0c-0.213,0-0.45,0-0.45,0h-0.284h-0.309h-0.332h-0.379h-0.379h-0.427
		h-0.427h-0.475h-0.474h-0.474h-0.498h-0.498h-0.497h-0.521h-0.498h-0.521h-0.498h-0.497h-0.475h-0.474h-0.45h-0.451h-0.402h-0.403
		h-0.355h-0.355h-0.308h-0.285c-0.236,0-0.427,0-0.427,0c-0.166,0-0.284,0-0.284,0c-0.118,0.072-0.142,0.262-0.142,0.262
		l-0.048,0.283l-0.071,0.404l-0.095,0.521l-0.118,0.592l-0.095,0.711l-0.143,0.76l-0.143,0.852l-0.166,0.926l-0.165,0.994
		l-0.19,1.043l-0.189,1.092l-0.189,1.137l-0.189,1.186l-0.214,1.209l-0.213,1.232l-0.213,1.256l-0.214,1.256l-0.213,1.281
		l-0.237,1.279l-0.213,1.256l-0.214,1.256l-0.213,1.232l-0.214,1.209l-0.189,1.186l-0.189,1.139l-0.189,1.09l-0.189,1.043
		l-0.166,0.994l-0.166,0.926l-0.143,0.854l-0.118,0.781l-0.119,0.688l-0.118,0.592l-0.071,0.521l-0.071,0.404l-0.07,0.283
		c-0.024,0.189-0.024,0.262-0.024,0.262c-0.142,0-0.308,0-0.308,0c-0.237,0-0.545,0-0.545,0h-0.332h-0.403h-0.45H153.5h-0.521
		h-0.569h-0.593h-0.64h-0.64h-0.688h-0.688h-0.688h-0.734h-0.711h-0.735h-0.734h-0.711h-0.712h-0.711h-0.688h-0.687h-0.641h-0.64
		h-0.593h-0.568h-0.521h-0.475h-0.45h-0.402h-0.332h-0.309c-0.213,0-0.402,0-0.402,0c-0.143,0.189-0.143,0.332-0.143,0.332
		c0,0.166,0,0.379,0,0.379c0,0.236,0,0.498,0,0.498v0.283v0.332v0.332v0.355v0.379v0.379v0.404v0.426v0.428v0.426v0.428v0.449v0.428
		v0.426v0.426v0.428v0.426v0.404v0.379v0.379v0.355v0.355v0.309v0.283v0.262c0,0.26,0,0.451,0,0.451c0,0.189,0,0.33,0,0.33
		c0.143,0.166,0.284,0.166,0.284,0.166c0.189,0,0.427,0,0.427,0h0.309h0.331h0.38h0.402h0.451h0.497h0.498h0.521h0.568h0.569h0.593
		h0.592h0.617h0.616h0.616h0.616h0.616h0.593h0.616h0.568h0.593h0.545h0.521h0.521h0.474h0.451h0.402h0.38h0.331h0.309h0.237
		c0.213,0,0.355,0,0.355,0c0.095,0.189,0.047,0.404,0.047,0.404l-0.047,0.283l-0.048,0.355l-0.071,0.451l-0.071,0.475l-0.095,0.568
		l-0.095,0.615l-0.118,0.641l-0.118,0.711l-0.119,0.758l-0.118,0.783l-0.118,0.807l-0.143,0.828l-0.143,0.877l-0.142,0.877
		l-0.143,0.9l-0.143,0.902l-0.142,0.9l-0.143,0.924l-0.142,0.9l-0.143,0.9l-0.143,0.877l-0.142,0.854l-0.143,0.854l-0.118,0.807
		l-0.143,0.781l-0.118,0.76l-0.095,0.686l-0.119,0.664l-0.095,0.617l-0.095,0.545l-0.071,0.498l-0.071,0.426l-0.047,0.379
		l-0.048,0.285c-0.047,0.213-0.07,0.355-0.07,0.355c-0.143,0.023-0.309,0.023-0.309,0.023c-0.237,0-0.521,0-0.521,0h-0.355h-0.403
		h-0.427h-0.497h-0.521h-0.569h-0.592h-0.617h-0.663h-0.664h-0.688h-0.711h-0.711h-0.734h-0.735h-0.711h-0.734h-0.711h-0.711h-0.688
		h-0.664h-0.664h-0.616H133.4h-0.569h-0.521h-0.498h-0.45h-0.379h-0.355h-0.284c-0.237,0-0.403,0-0.403,0
		C129.797,265.398,129.797,277.061,129.797,277.061z"/>
</g>
<g id="LWPOLYLINE_2_">
	
		<path fill="none" stroke="#000000" stroke-width="0.7087" stroke-linecap="round" stroke-linejoin="round" stroke-miterlimit="10" d="
		M161.819,265.398c0.047-0.166,0.095-0.379,0.095-0.379l0.047-0.285l0.071-0.379l0.095-0.426l0.095-0.498l0.119-0.545l0.118-0.617
		l0.118-0.664l0.143-0.686l0.166-0.76l0.143-0.781l0.166-0.807l0.165-0.854l0.19-0.854l0.165-0.877l0.19-0.9l0.166-0.9l0.189-0.924
		l0.189-0.9l0.166-0.902l0.189-0.9l0.166-0.877l0.166-0.877l0.189-0.828l0.143-0.807l0.165-0.783l0.143-0.758l0.143-0.711
		l0.142-0.641l0.119-0.615l0.118-0.568l0.095-0.475l0.071-0.451l0.071-0.355l0.071-0.283c0.047-0.215,0.07-0.355,0.07-0.355
		c0.143-0.049,0.332-0.049,0.332-0.049h0.237h0.308h0.355h0.427h0.475h0.497h0.569h0.593h0.616h0.663h0.688h0.688h0.735h0.734h0.759
		h0.758h0.759h0.782h0.759h0.734h0.759h0.711h0.711h0.688h0.663h0.616h0.593h0.545h0.521h0.475h0.402h0.356h0.308h0.261
		c0.166,0,0.284,0,0.284,0c0,0.189-0.047,0.404-0.047,0.404l-0.048,0.283l-0.071,0.355l-0.095,0.451l-0.095,0.475l-0.118,0.568
		l-0.118,0.615l-0.143,0.641l-0.143,0.711l-0.142,0.758l-0.143,0.783l-0.166,0.807l-0.166,0.828l-0.189,0.877l-0.166,0.877
		l-0.189,0.9l-0.166,0.902l-0.189,0.9l-0.189,0.924l-0.166,0.9l-0.189,0.9l-0.166,0.877l-0.189,0.854l-0.166,0.854l-0.166,0.807
		l-0.143,0.781l-0.142,0.76l-0.143,0.686l-0.143,0.664l-0.118,0.617l-0.118,0.545l-0.096,0.498l-0.095,0.426l-0.07,0.379
		l-0.048,0.285c-0.047,0.213-0.071,0.355-0.071,0.355C182.227,265.398,161.819,265.398,161.819,265.398z"/>
</g>
</svg>
