<?xml version="1.0" encoding="utf-8"?>
<!-- Generator: Adobe Illustrator 16.0.1, SVG Export Plug-In . SVG Version: 6.00 Build 0)  -->
<!DOCTYPE svg PUBLIC "-//W3C//DTD SVG 1.0//EN" "http://www.w3.org/TR/2001/REC-SVG-20010904/DTD/svg10.dtd">
<svg version="1.0" id="_x31_" xmlns="http://www.w3.org/2000/svg" xmlns:xlink="http://www.w3.org/1999/xlink" x="0px" y="0px"
	 width="612px" height="792px" viewBox="0 0 612 792" enable-background="new 0 0 612 792" xml:space="preserve">
<g id="LWPOLYLINE">
	
		<path fill="none" stroke="#000000" stroke-width="0.7087" stroke-linecap="round" stroke-linejoin="round" stroke-miterlimit="10" d="
		M313.117,596h0.375h0.963h1.658h2.248h2.836h3.316h3.801h4.279h4.709h5.084h5.457h5.779h5.992h6.314h6.475h6.689h6.795h6.902h7.01
		h7.01h7.01h7.01h6.902h6.795h6.688h6.475h6.314h6.047h5.725h5.459h5.082h4.709h4.281h3.799h3.371h2.783h2.246h1.66h1.016h0.32
		c0-0.16,0-0.373,0-0.373c0-0.268,0-0.59,0-0.59v-0.375v-0.48v-0.482v-0.535v-0.588v-0.643v-0.695v-0.695v-0.75v-0.748v-0.803v-0.75
		v-0.855v-0.803v-0.803v-0.855v-0.803v-0.803v-0.803v-0.75v-0.803v-0.695v-0.748v-0.643v-0.643v-0.588v-0.535v-0.535V575.4v-0.375
		v-0.375c0-0.213,0-0.428,0-0.428c0-0.16-0.32-0.16-0.32-0.16h-1.016h-1.66h-2.246h-2.783h-3.371h-3.799h-4.281h-4.709h-5.082
		h-5.459h-5.725h-6.047h-6.314h-6.475h-6.688h-6.795h-6.902h-7.01h-7.01h-7.01h-7.01h-6.902h-6.795h-6.689h-6.475h-6.314h-5.992
		h-5.779h-5.457h-5.084h-4.709h-4.279h-3.801h-3.316h-2.836h-2.248h-1.658h-0.963h-0.375V596z"/>
</g>
<g id="LWPOLYLINE_1_">
	
		<path fill="none" stroke="#000000" stroke-width="0.7087" stroke-linecap="round" stroke-linejoin="round" stroke-miterlimit="10" d="
		M111.498,214.621c0.162,0,0.697,0,0.697,0h0.855h1.178h1.443h1.74h1.979h2.248h2.434h2.65h2.836h2.996h3.129h3.291h3.371h3.479
		h3.531h3.611h3.639h3.639h3.666h3.639h3.584h3.559h3.479h3.371h3.264h3.156h2.998h2.809h2.648h2.461h2.221h2.008h1.711h1.473h1.176
		h0.857h0.508c0.188-0.133,0.188-0.293,0.188-0.293c0-0.215,0-0.51,0-0.51v-0.32v-0.375v-0.428v-0.482v-0.508v-0.535v-0.561v-0.617
		v-0.615v-0.641v-0.67v-0.668v-0.695v-0.697v-0.695v-0.695v-0.695v-0.695v-0.67v-0.668v-0.643v-0.615v-0.615v-0.562v-0.535v-0.508
		v-0.48v-0.43v-0.373v-0.322v-0.293c0-0.215,0-0.375,0-0.375C208.83,196,208.322,196,208.322,196h-0.857h-1.176h-1.473h-1.711
		h-2.008h-2.221h-2.461h-2.648h-2.809h-2.998h-3.156h-3.264h-3.371h-3.479h-3.559h-3.584h-3.639h-3.666h-3.639h-3.639h-3.611h-3.531
		h-3.479h-3.371h-3.291h-3.129h-2.996h-2.836h-2.65h-2.434h-2.248h-1.979h-1.74h-1.443h-1.178h-0.855h-0.535
		C111.498,196,111.498,214.621,111.498,214.621z"/>
</g>
</svg>
