<?xml version="1.0" encoding="utf-8"?>
<!-- Generator: Adobe Illustrator 16.0.1, SVG Export Plug-In . SVG Version: 6.00 Build 0)  -->
<!DOCTYPE svg PUBLIC "-//W3C//DTD SVG 1.0//EN" "http://www.w3.org/TR/2001/REC-SVG-20010904/DTD/svg10.dtd">
<svg version="1.0" id="_x31_" xmlns="http://www.w3.org/2000/svg" xmlns:xlink="http://www.w3.org/1999/xlink" x="0px" y="0px"
	 width="612px" height="792px" viewBox="0 0 612 792" enable-background="new 0 0 612 792" xml:space="preserve">
<g id="LWPOLYLINE">
	
		<polygon fill="none" stroke="#000000" stroke-width="0.7087" stroke-linecap="round" stroke-linejoin="round" stroke-miterlimit="10" points="
		401.75,595.5 405.545,595.408 409.155,595.084 412.627,594.574 415.959,593.881 419.152,593 422.207,591.936 425.123,590.686 
		427.946,589.252 430.584,587.678 433.13,585.965 435.536,584.113 437.851,582.125 440.026,579.949 442.108,577.682 444.053,575.32 
		445.904,572.82 447.616,570.229 449.282,567.545 450.81,564.723 452.245,561.852 453.587,558.891 454.837,555.881 455.993,552.781 
		457.058,549.633 458.03,546.439 458.909,543.199 459.742,539.914 460.483,536.629 461.131,533.295 461.732,529.916 
		462.288,526.584 462.751,523.205 463.121,519.828 463.445,516.494 463.723,513.162 463.954,509.83 464.14,506.545 464.232,503.305 
		464.278,500.111 464.324,496.918 464.324,494.279 464.278,491.502 464.186,488.68 464.093,485.764 463.908,482.801 
		463.723,479.793 463.491,476.691 463.167,473.59 462.844,470.49 462.427,467.342 461.918,464.148 461.362,461.002 460.761,457.809 
		460.066,454.66 459.279,451.514 458.4,448.412 457.475,445.357 456.41,442.303 455.253,439.295 454.004,436.379 452.661,433.51 
		451.18,430.732 449.653,428.049 447.94,425.41 446.136,422.91 444.191,420.457 442.155,418.166 439.934,415.992 437.619,413.932 
		435.12,412.035 432.528,410.252 429.751,408.633 426.835,407.174 423.734,405.902 420.494,404.791 417.116,403.842 
		413.552,403.125 409.804,402.592 405.869,402.27 401.75,402.152 397.677,402.27 393.743,402.592 389.994,403.125 386.431,403.842 
		383.006,404.791 379.766,405.902 376.711,407.174 373.795,408.633 371.019,410.252 368.38,412.035 365.927,413.932 
		363.566,415.992 361.392,418.166 359.309,420.457 357.411,422.91 355.56,425.41 353.894,428.049 352.32,430.732 350.839,433.51 
		349.497,436.379 348.247,439.295 347.136,442.303 346.071,445.357 345.1,448.412 344.267,451.514 343.479,454.66 342.785,457.809 
		342.138,461.002 341.582,464.148 341.119,467.342 340.703,470.49 340.333,473.59 340.055,476.691 339.777,479.793 339.592,482.801 
		339.453,485.764 339.314,488.68 339.269,491.502 339.222,494.279 339.222,496.918 339.222,500.111 339.269,503.305 
		339.407,506.545 339.546,509.83 339.73,513.162 340.009,516.494 340.333,519.828 340.703,523.205 341.119,526.584 341.629,529.916 
		342.23,533.295 342.878,536.629 343.572,539.914 344.359,543.199 345.238,546.439 346.211,549.633 347.275,552.781 
		348.386,555.881 349.589,558.891 350.932,561.852 352.366,564.723 353.848,567.545 355.467,570.229 357.226,572.82 359.077,575.32 
		361.021,577.682 363.058,579.949 365.279,582.125 367.547,584.113 370,585.965 372.546,587.678 375.229,589.252 378.053,590.686 
		381.016,591.936 384.116,593 387.356,593.881 390.734,594.574 394.252,595.084 397.908,595.408 	"/>
</g>
<g id="LWPOLYLINE_1_">
	
		<polygon fill="none" stroke="#000000" stroke-width="0.7087" stroke-linecap="round" stroke-linejoin="round" stroke-miterlimit="10" points="
		401.75,423.93 403.833,424.021 405.869,424.16 407.813,424.484 409.664,424.855 411.47,425.363 413.182,426.012 414.848,426.707 
		416.422,427.539 417.949,428.465 419.384,429.529 420.772,430.641 422.068,431.891 423.317,433.186 424.521,434.621 
		425.632,436.148 426.743,437.768 427.715,439.434 428.687,441.238 429.612,443.09 430.445,445.033 431.232,447.07 431.973,449.199 
		432.667,451.375 433.315,453.643 433.87,455.957 434.426,458.41 434.935,460.863 435.352,463.408 435.768,466.047 436.139,468.73 
		436.462,471.508 436.786,474.285 437.018,477.154 437.203,480.117 437.388,483.078 437.526,486.133 437.666,489.234 
		437.712,492.381 437.758,495.574 437.758,498.814 437.758,501.406 437.758,503.998 437.712,506.59 437.619,509.229 
		437.526,511.867 437.388,514.459 437.249,517.096 437.018,519.734 436.832,522.326 436.555,524.918 436.23,527.51 435.907,530.057 
		435.536,532.555 435.12,535.055 434.611,537.508 434.102,539.914 433.546,542.275 432.898,544.588 432.25,546.857 431.51,549.078 
		430.723,551.207 429.844,553.289 428.918,555.279 427.946,557.178 426.882,559.029 425.771,560.742 424.614,562.408 
		423.317,563.98 422.021,565.463 420.587,566.805 419.106,568.055 417.532,569.211 415.866,570.229 414.107,571.109 
		412.303,571.896 410.358,572.543 408.368,573.053 406.239,573.424 404.064,573.654 401.75,573.701 399.482,573.654 
		397.261,573.424 395.132,573.053 393.142,572.543 391.197,571.896 389.347,571.109 387.588,570.229 385.921,569.211 
		384.302,568.055 382.774,566.805 381.339,565.463 379.997,563.98 378.701,562.408 377.451,560.742 376.341,559.029 
		375.229,557.178 374.212,555.279 373.286,553.289 372.36,551.207 371.527,549.078 370.787,546.857 370.046,544.588 
		369.398,542.275 368.797,539.914 368.241,537.508 367.732,535.055 367.27,532.555 366.853,530.057 366.482,527.51 366.158,524.918 
		365.881,522.326 365.649,519.734 365.418,517.096 365.232,514.459 365.094,511.867 365.001,509.229 364.909,506.59 
		364.816,503.998 364.816,501.406 364.816,498.814 364.816,495.574 364.862,492.381 364.955,489.234 365.048,486.133 
		365.232,483.078 365.418,480.117 365.649,477.154 365.927,474.285 366.205,471.508 366.575,468.73 366.945,466.047 
		367.408,463.408 367.871,460.863 368.427,458.41 368.981,455.957 369.63,453.643 370.277,451.375 371.019,449.199 371.805,447.07 
		372.592,445.033 373.518,443.09 374.443,441.238 375.415,439.434 376.479,437.768 377.591,436.148 378.747,434.621 
		379.951,433.186 381.247,431.891 382.589,430.641 383.978,429.529 385.458,428.465 386.985,427.539 388.605,426.707 
		390.271,426.012 392.03,425.363 393.836,424.855 395.687,424.484 397.631,424.16 399.667,424.021 	"/>
</g>
<g id="LWPOLYLINE_2_">
	
		<path fill="none" stroke="#000000" stroke-width="0.7087" stroke-linecap="round" stroke-linejoin="round" stroke-miterlimit="10" d="
		M148.675,195.5l0.718,2.268l0.671,2.199l0.694,2.174l0.648,2.152l0.647,2.084l0.625,2.059l0.625,2.037l0.602,1.99l0.578,1.967
		l0.556,1.943l0.556,1.898l0.532,1.873l0.532,1.852l0.485,1.828l0.51,1.807l0.463,1.781l0.439,1.781l0.439,1.736l0.417,1.734
		l0.393,1.713l0.394,1.689l0.37,1.689l0.348,1.689l0.324,1.643l0.301,1.666l0.301,1.645l0.254,1.643l0.255,1.643l0.255,1.643
		l0.208,1.645L163,252.59l0.185,1.643l0.139,1.643l0.14,1.645l0.115,1.643l0.093,1.666l0.069,1.666l0.069,1.666l0.023,1.689
		l0.022,1.689l-0.022,0.717v0.719v0.717l-0.023,0.74v0.717l-0.023,0.742l-0.022,0.74l-0.047,0.74l-0.022,0.764l-0.047,0.764
		l-0.046,0.764l-0.047,0.764l-0.046,0.787l-0.046,0.809l-0.07,0.787l-0.069,0.811l-0.069,0.811l-0.069,0.832l-0.093,0.834
		l-0.069,0.855l-0.092,0.855l-0.093,0.881l-0.116,0.879l-0.115,0.879l-0.093,0.902l-0.139,0.926l-0.116,0.926l-0.139,0.949
		l-0.139,0.949l-0.139,0.971l-0.139,0.996l-0.162,0.994l-0.162,1.02l-0.162,1.018l-0.186,1.041l-0.185,1.064l-0.186,1.088
		l-0.185,1.088l-0.209,1.111l-0.208,1.133l-0.301,1.135l-0.277,1.111l-0.278,1.086l-0.277,1.064l-0.301,1.064l-0.277,1.043
		l-0.278,1.041l-0.277,1.018l-0.278,0.996l-0.277,0.971l-0.277,0.973l-0.278,0.949l-0.254,0.926l-0.278,0.926l-0.254,0.902
		l-0.278,0.902l-0.254,0.879l-0.255,0.855l-0.255,0.857l-0.254,0.855l-0.231,0.834l-0.255,0.809l-0.231,0.811l-0.255,0.787
		l-0.231,0.787l-0.208,0.764l-0.231,0.764l-0.208,0.74l-0.208,0.74l-0.209,0.74l-0.208,0.719l-0.208,0.693l-0.186,0.717
		l-0.185,0.695l-0.186,0.67l-0.162,0.672l-0.162,0.672l-0.162,0.67l-0.161,0.648l-0.14,0.625c0.162,0,0.301,0,0.301,0
		c0.14,0,0.324,0,0.324,0c0.231,0,0.463,0,0.463,0h0.255h0.277h0.324h0.301h0.347h0.348h0.37h0.37h0.37h0.394h0.37h0.394h0.394
		h0.394h0.394h0.37h0.37h0.37h0.348h0.323h0.324h0.301h0.278h0.277h0.231c0.208,0,0.394,0,0.394,0c0.162,0,0.277,0,0.277,0
		c0.186,0,0.394-0.557,0.394-0.557l0.208-0.602l0.231-0.578l0.231-0.625l0.231-0.602l0.231-0.625l0.231-0.646l0.231-0.648
		l0.255-0.672l0.231-0.67l0.254-0.695l0.255-0.693l0.255-0.695l0.277-0.717l0.255-0.74l0.277-0.74l0.277-0.764l0.255-0.764
		l0.301-0.787l0.278-0.787l0.277-0.811l0.301-0.809l0.277-0.834l0.301-0.855l0.301-0.857l0.301-0.879l0.302-0.879l0.323-0.879
		l0.301-0.926l0.324-0.904l0.324-0.947l0.324-0.949l0.323-0.949l0.348-0.994l0.324-0.973l0.347-1.018l0.348-1.02l0.347-1.018
		l0.347-1.041l0.348-1.064l0.277-0.926l0.278-0.926l0.277-0.926l0.277-0.926l0.278-0.926l0.254-0.926l0.255-0.926l0.255-0.926
		l0.254-0.926l0.231-0.926l0.231-0.924l0.231-0.926l0.231-0.949l0.231-0.926l0.208-0.926l0.209-0.949l0.208-0.926l0.186-0.949
		l0.185-0.926l0.186-0.947l0.162-0.949l0.185-0.949l0.162-0.926l0.139-0.971l0.139-0.949l0.14-0.949l0.139-0.949l0.115-0.949
		l0.116-0.971l0.093-0.973l0.092-0.949l0.093-0.971l0.069-0.973l0.069-0.973l0.047-0.971l0.046-0.996l0.046-0.971l0.023-0.996
		l0.023-0.994v-0.996l-0.023-1.713l-0.046-1.711l-0.093-1.736l-0.139-1.758l-0.162-1.76l-0.208-1.781l-0.231-1.783l-0.255-1.781
		l-0.301-1.805l-0.301-1.805l-0.348-1.805l-0.37-1.828l-0.416-1.807l-0.417-1.828l-0.439-1.828l-0.463-1.828l-0.486-1.828
		l-0.509-1.852l-0.532-1.828l-0.532-1.828l-0.578-1.828l-0.556-1.828l-0.602-1.828l-0.602-1.805l-0.602-1.828l-0.625-1.805
		l-0.625-1.805l-0.648-1.783l-0.647-1.805l-0.648-1.758l-0.647-1.783l-0.671-1.758l-0.648-1.736l-0.671-1.734l-0.648-1.713
		l-0.671-1.713l-0.647-1.689l-0.648-1.689l-0.647-1.666l-0.648-1.643H148.675z"/>
</g>
</svg>
