<?xml version="1.0" encoding="utf-8"?>
<!-- Generator: Adobe Illustrator 16.0.1, SVG Export Plug-In . SVG Version: 6.00 Build 0)  -->
<!DOCTYPE svg PUBLIC "-//W3C//DTD SVG 1.0//EN" "http://www.w3.org/TR/2001/REC-SVG-20010904/DTD/svg10.dtd">
<svg version="1.0" id="_x31_" xmlns="http://www.w3.org/2000/svg" xmlns:xlink="http://www.w3.org/1999/xlink" x="0px" y="0px"
	 width="612px" height="792px" viewBox="0 0 612 792" enable-background="new 0 0 612 792" xml:space="preserve">
<g id="LWPOLYLINE">
	
		<path fill="none" stroke="#000000" stroke-width="0.7087" stroke-linecap="round" stroke-linejoin="round" stroke-miterlimit="10" d="
		M376.007,595.5c0.14,0,0.325,0,0.325,0c0.187,0,0.465,0,0.465,0h0.372h0.372h0.419h0.465h0.512h0.558h0.558h0.605h0.65h0.651h0.65
		h0.698h0.697h0.697h0.697h0.698h0.697h0.697h0.651h0.697h0.651h0.604h0.604h0.604h0.512h0.511h0.465h0.466h0.372h0.325h0.279
		c0.232,0,0.372,0,0.372,0c0.139,0,0.278-0.371,0.278-0.371l0.372-1.07l0.604-1.721l0.837-2.324l1.069-2.93l1.256-3.535l1.396-3.998
		l1.581-4.465l1.767-4.928l1.906-5.303l2.046-5.719l2.14-5.998l2.231-6.324l2.325-6.604l2.418-6.789l2.512-6.975l2.511-7.162
		l2.604-7.207l2.604-7.348l2.604-7.348l2.604-7.346l2.604-7.301l2.604-7.254l2.512-7.115l2.511-6.975l2.418-6.789l2.325-6.604
		l2.231-6.324l2.186-5.998l2-5.721l1.906-5.301l1.768-4.93l1.581-4.486l1.395-4.023l1.256-3.486l1.069-2.93l0.837-2.348l0.604-1.721
		l0.372-1.07l0.14-0.35c-0.14,0-0.325,0-0.325,0c-0.233,0-0.559,0-0.559,0h-0.325h-0.419h-0.465h-0.465h-0.558h-0.559h-0.604h-0.65
		h-0.651h-0.697h-0.698h-0.744h-0.697h-0.744h-0.743h-0.744h-0.744h-0.744h-0.697h-0.698h-0.697h-0.651h-0.65h-0.604h-0.604h-0.512
		h-0.512h-0.465h-0.372h-0.372h-0.278h-0.233c-0.186,0-0.278,0-0.278,0C444.781,399.312,376.007,595.5,376.007,595.5z"/>
</g>
<g id="LWPOLYLINE_1_">
	
		<path fill="none" stroke="#000000" stroke-width="0.7087" stroke-linecap="round" stroke-linejoin="round" stroke-miterlimit="10" d="
		M148.408,213.613l0.837-0.35l0.837-0.35l0.838-0.301l0.813-0.303l0.813-0.279l0.791-0.256l0.767-0.256l0.791-0.232l0.744-0.232
		l0.744-0.209l0.721-0.186l0.697-0.188l0.697-0.162l0.697-0.162l0.651-0.141l0.651-0.139l0.627-0.117l0.628-0.115l0.581-0.094
		l0.582-0.115l0.558-0.07l0.558-0.094l0.535-0.045l0.488-0.07l0.488-0.047l0.465-0.047l0.465-0.045l0.419-0.047l0.418-0.023
		l0.372-0.023l0.372-0.023h0.326l0.325-0.023h0.302l0.279-0.023h0.256c0.232,0,0.419,0,0.419,0c0.186,0,0.349,0,0.349,0h0.372h0.418
		l0.465,0.023l0.512,0.023l0.535,0.023l0.581,0.047l0.581,0.047l0.628,0.068l0.651,0.07l0.674,0.094l0.697,0.115l0.698,0.139
		l0.743,0.141l0.722,0.162l0.743,0.209l0.744,0.211l0.744,0.232l0.744,0.277l0.744,0.279l0.744,0.326l0.721,0.371l0.721,0.373
		l0.697,0.418l0.675,0.465l0.674,0.488l0.628,0.512l0.628,0.582l0.581,0.604l0.558,0.652l0.512,0.674l0.488,0.744l0.441,0.768
		l0.419,0.812l0.349,0.885l0.325,0.93l0.256,0.953l0.21,1.023l0.139,1.092l0.094,1.115l0.046,1.188l-0.023,0.721l-0.022,0.697
		l-0.047,0.674l-0.093,0.697l-0.093,0.674l-0.116,0.652l-0.14,0.674l-0.163,0.65l-0.186,0.65l-0.21,0.652l-0.232,0.65l-0.256,0.65
		l-0.256,0.629l-0.302,0.65l-0.325,0.65l-0.35,0.629l-0.371,0.65l-0.372,0.652l-0.419,0.65l-0.441,0.65l-0.442,0.674l-0.488,0.676
		l-0.511,0.674l-0.512,0.674l-0.559,0.697l-0.581,0.697L184.098,244l-0.604,0.721l-0.651,0.744l-0.674,0.744l-0.697,0.768
		l-0.721,0.768l-0.744,0.791l-0.768,0.812l-0.79,0.814L177.634,251l-0.837,0.859l-0.883,0.883l-0.884,0.885l-0.907,0.93
		l-0.627,0.697l-0.605,0.674l-0.558,0.629l-0.535,0.604l-0.511,0.582l-0.488,0.557l-0.442,0.535l-0.418,0.512l-0.396,0.488
		l-0.396,0.488l-0.349,0.441l-0.325,0.441l-0.303,0.42l-0.278,0.395l-0.256,0.395l-0.232,0.373l-0.232,0.371l-0.21,0.35l-0.186,0.35
		l-0.163,0.348l-0.162,0.326l-0.116,0.324l-0.14,0.35l-0.094,0.326l-0.116,0.324l-0.069,0.326l-0.069,0.326l-0.07,0.348l-0.046,0.35
		l-0.047,0.348l-0.047,0.35l-0.023,0.371l-0.022,0.373l-0.023,0.395v0.396l-0.023,0.418v0.441v0.441v0.465v0.488
		c0,0.117,0,0.256,0,0.256c0,0.209,0,0.441,0,0.441v0.303v0.326v0.371v0.396v0.441v0.465v0.512v0.512v0.533v0.582v0.559v0.604v0.582
		v0.604v0.605v0.604v0.605v0.604v0.582v0.582v0.557v0.559v0.512v0.488v0.488v0.441v0.395v0.373v0.326v0.301v0.232
		c0,0.188,0,0.326,0,0.326c0.209,0.139,0.372,0.139,0.372,0.139c0.209,0,0.441,0,0.441,0h0.256h0.326h0.325h0.372h0.372h0.418h0.419
		h0.465h0.441h0.488h0.488h0.488h0.488h0.512h0.488h0.512h0.488h0.488h0.465h0.465h0.441h0.442h0.396h0.395h0.349h0.35h0.302h0.256
		h0.256c0.186,0,0.349,0,0.349,0c0.209-0.139,0.209-0.277,0.209-0.277c0-0.188,0-0.42,0-0.42v-0.301v-0.326v-0.373v-0.395v-0.441
		v-0.488v-0.488v-0.512v-0.559v-0.557v-0.582v-0.582v-0.604v-0.605v-0.604v-0.605v-0.604v-0.582v-0.604v-0.559v-0.582v-0.533v-0.512
		v-0.512v-0.465v-0.441v-0.396v-0.371v-0.326v-0.303v-0.232c0-0.209,0-0.348,0-0.348c0-0.117,0-0.326,0-0.326
		c0.023-0.209,0.023-0.395,0.023-0.395c0.023-0.186,0.023-0.373,0.023-0.373c0.023-0.186,0.046-0.348,0.046-0.348
		c0.023-0.188,0.047-0.35,0.047-0.35c0.023-0.162,0.07-0.303,0.07-0.303c0.022-0.162,0.069-0.301,0.069-0.301
		c0.047-0.141,0.069-0.279,0.069-0.279c0.047-0.141,0.094-0.256,0.094-0.256c0.046-0.141,0.116-0.279,0.116-0.279
		c0.046-0.117,0.093-0.232,0.093-0.232c0.069-0.139,0.116-0.256,0.116-0.256c0.069-0.117,0.116-0.232,0.116-0.232
		c0.069-0.117,0.14-0.232,0.14-0.232c0.069-0.141,0.116-0.256,0.116-0.256c0.069-0.117,0.14-0.232,0.14-0.232
		c0.069-0.117,0.14-0.256,0.14-0.256c0.069-0.117,0.139-0.256,0.139-0.256c0.07-0.115,0.14-0.256,0.14-0.256
		c0.07-0.139,0.14-0.256,0.14-0.256c0.14-0.209,0.209-0.279,0.209-0.279c0.232-0.232,0.396-0.395,0.396-0.395
		c0.163-0.162,0.372-0.373,0.372-0.373c0.209-0.209,0.441-0.441,0.441-0.441l0.256-0.256l0.256-0.256l0.279-0.277l0.279-0.279
		l0.302-0.303l0.303-0.303l0.302-0.324l0.325-0.303l0.326-0.326l0.325-0.326l0.303-0.324l0.325-0.303l0.325-0.326l0.303-0.301
		l0.302-0.326l0.303-0.279l0.278-0.303l0.279-0.277l0.279-0.256l0.232-0.256c0.232-0.232,0.465-0.443,0.465-0.443
		c0.187-0.186,0.372-0.371,0.372-0.371c0.14-0.139,0.279-0.279,0.279-0.279c0.209-0.209,0.232-0.232,0.232-0.232l1.046-1.07
		l1.023-1.021l1-1l0.953-0.953l0.93-0.953l0.907-0.908l0.859-0.883l0.838-0.883l0.813-0.838l0.79-0.836l0.744-0.814l0.721-0.791
		l0.675-0.791l0.674-0.766l0.628-0.744l0.604-0.768l0.581-0.721l0.559-0.721l0.511-0.721l0.488-0.721l0.488-0.721l0.442-0.697
		l0.418-0.721l0.372-0.723l0.372-0.697l0.325-0.721l0.326-0.721l0.279-0.721l0.278-0.744l0.232-0.744l0.21-0.744l0.209-0.789
		l0.162-0.768l0.14-0.791l0.116-0.814l0.116-0.836l0.07-0.861l0.046-0.859l0.047-0.883v-0.93v-0.559l-0.023-0.582l-0.023-0.559
		l-0.046-0.557l-0.047-0.559l-0.046-0.535l-0.07-0.557l-0.069-0.535l-0.093-0.535l-0.094-0.535l-0.116-0.535l-0.116-0.533
		l-0.116-0.512l-0.14-0.512l-0.162-0.512l-0.14-0.512l-0.163-0.488l-0.186-0.512l-0.187-0.488l-0.186-0.488l-0.21-0.465
		l-0.209-0.465l-0.209-0.488l-0.232-0.465l-0.232-0.441L206,211.637l-0.256-0.441l-0.256-0.443l-0.279-0.418l-0.279-0.441
		l-0.278-0.418l-0.303-0.42l-0.302-0.395l-0.303-0.418l-0.325-0.373l-0.325-0.395l-0.326-0.396l-0.349-0.371l-0.325-0.371
		l-0.372-0.35l-0.419-0.488l-0.465-0.488l-0.465-0.465l-0.488-0.465l-0.512-0.465l-0.534-0.441l-0.535-0.42l-0.558-0.418
		l-0.582-0.395l-0.604-0.396l-0.604-0.395l-0.627-0.373l-0.651-0.348l-0.651-0.35l-0.674-0.348l-0.697-0.326l-0.721-0.303
		l-0.721-0.301l-0.744-0.279l-0.768-0.279l-0.768-0.256l-0.79-0.256l-0.813-0.232l-0.814-0.232l-0.837-0.209l-0.86-0.186
		l-0.884-0.188l-0.883-0.162l-0.907-0.162l-0.906-0.164l-0.931-0.115l-0.953-0.117l-0.953-0.115l-0.977-0.094l-1-0.07l-0.999-0.068
		l-1.023-0.047l-1.023-0.023l-1.069-0.023l-1.046-0.023l-0.86,0.023h-0.837l-0.813,0.023l-0.814,0.047l-0.79,0.047l-0.768,0.045
		l-0.768,0.07l-0.767,0.07l-0.721,0.07l-0.721,0.068l-0.721,0.094l-0.675,0.092l-0.697,0.094l-0.651,0.117l-0.65,0.092l-0.651,0.117
		l-0.604,0.115l-0.604,0.117l-0.604,0.139l-0.581,0.117l-0.559,0.115l-0.558,0.141l-0.535,0.115l-0.511,0.141l-0.512,0.115
		l-0.488,0.141l-0.488,0.115l-0.465,0.141l-0.442,0.115l-0.441,0.117l-0.419,0.115l-0.395,0.141l-0.396,0.092l-0.396,0.117
		l-0.349,0.092l-0.349,0.117l-0.349,0.092l-0.326,0.094l-0.302,0.07l-0.279,0.068V213.613z"/>
</g>
<g id="LWPOLYLINE_2_">
	
		<path fill="none" stroke="#000000" stroke-width="0.7087" stroke-linecap="round" stroke-linejoin="round" stroke-miterlimit="10" d="
		M163.638,315.496c0.116,0,0.278,0,0.278,0c0.21,0,0.466,0,0.466,0h0.302h0.349h0.396h0.419h0.465h0.511h0.512h0.559h0.581h0.581
		h0.628h0.604h0.651h0.627h0.651h0.628h0.651h0.627h0.628h0.604h0.604h0.559h0.558h0.535h0.488h0.465h0.441h0.372h0.349h0.325h0.256
		c0.187,0,0.35,0,0.35,0c0.116-0.117,0.116-0.256,0.116-0.256c0-0.186,0-0.441,0-0.441v-0.279v-0.326v-0.371v-0.396v-0.441v-0.488
		v-0.488v-0.535v-0.533v-0.559v-0.582v-0.58v-0.605v-0.604v-0.605v-0.604v-0.605v-0.604v-0.582v-0.582v-0.557v-0.535v-0.535v-0.488
		v-0.465v-0.441v-0.418v-0.35v-0.35v-0.277v-0.232c0-0.211,0-0.35,0-0.35c-0.116-0.117-0.279-0.117-0.279-0.117
		c-0.187,0-0.442,0-0.442,0h-0.325h-0.349h-0.372h-0.441H178.1h-0.488h-0.535h-0.558h-0.559h-0.604h-0.604h-0.628h-0.627h-0.651
		h-0.628h-0.651h-0.627h-0.651h-0.604h-0.628h-0.581h-0.581h-0.559h-0.512h-0.511h-0.465h-0.419h-0.396h-0.349h-0.302h-0.256
		c-0.21,0-0.372,0-0.372,0C163.638,299.312,163.638,315.496,163.638,315.496z"/>
</g>
</svg>
