<?xml version="1.0" encoding="utf-8"?>
<!-- Generator: Adobe Illustrator 16.0.1, SVG Export Plug-In . SVG Version: 6.00 Build 0)  -->
<!DOCTYPE svg PUBLIC "-//W3C//DTD SVG 1.0//EN" "http://www.w3.org/TR/2001/REC-SVG-20010904/DTD/svg10.dtd">
<svg version="1.0" id="_x31_" xmlns="http://www.w3.org/2000/svg" xmlns:xlink="http://www.w3.org/1999/xlink" x="0px" y="0px"
	 width="612px" height="792px" viewBox="0 0 612 792" enable-background="new 0 0 612 792" xml:space="preserve">
<g id="LWPOLYLINE">
	
		<path fill="none" stroke="#000000" stroke-width="0.7087" stroke-linecap="round" stroke-linejoin="round" stroke-miterlimit="10" d="
		M83.169,422.325c0.051,0.137,0.154,0.515,0.154,0.515l0.206,0.651l0.257,0.856l0.325,1.097l0.377,1.268l0.446,1.473l0.497,1.646
		l0.548,1.814l0.6,1.988l0.616,2.09l0.669,2.229l0.702,2.329l0.736,2.398l0.754,2.503l0.771,2.604l0.788,2.604l0.805,2.673
		l0.805,2.707l0.822,2.707l0.823,2.707l0.805,2.672l0.805,2.674l0.789,2.639l0.771,2.569l0.754,2.503l0.737,2.432l0.702,2.331
		l0.668,2.227l0.634,2.091l0.583,1.953l0.548,1.816l0.497,1.645l0.445,1.473l0.377,1.303l0.326,1.062l0.274,0.892l0.189,0.616
		l0.12,0.411c0.103,0.103,0.189,0.103,0.189,0.103c0.12,0,0.274,0,0.274,0c0.171,0,0.377,0,0.377,0h0.223h0.24h0.274h0.274h0.309
		h0.309h0.325h0.343h0.36h0.359h0.36h0.36h0.377h0.359h0.377h0.36h0.36h0.343h0.342h0.326h0.325h0.292h0.291h0.257h0.257h0.223
		h0.206c0.171,0,0.308,0,0.308,0c0.121,0,0.206,0,0.206,0c0.12-0.103,0.24-0.514,0.24-0.514l0.188-0.616l0.257-0.892l0.326-1.062
		l0.394-1.303l0.428-1.473l0.497-1.645l0.548-1.816l0.6-1.953l0.634-2.091l0.668-2.227l0.703-2.331l0.719-2.432l0.754-2.503
		l0.771-2.569l0.805-2.639l0.789-2.674l0.822-2.672l0.805-2.707l0.822-2.707l0.805-2.707l0.806-2.673l0.788-2.604l0.771-2.604
		l0.754-2.503l0.736-2.398l0.703-2.329l0.668-2.229l0.633-2.09l0.583-1.988l0.548-1.814l0.498-1.646l0.445-1.473l0.394-1.268
		l0.325-1.097l0.257-0.856l0.188-0.651l0.121-0.378c0.034,0,0.034,0.378,0.034,0.378v0.651v0.856v1.097v1.268v1.473v1.646v1.814
		v1.988v2.09v2.229v2.329v2.398v2.503v2.604v2.604v2.673v2.707v2.707v2.707v2.672v2.674v2.639v2.569v2.503v2.432v2.331v2.227v2.091
		v1.953v1.816v1.645v1.473v1.303v1.062v0.892v0.616v0.411c0.154,0.103,0.274,0.103,0.274,0.103c0.154,0,0.325,0,0.325,0h0.206h0.223
		h0.24h0.274h0.274h0.309h0.308h0.343h0.342h0.342h0.36h0.36h0.359h0.377h0.36h0.377h0.36h0.359h0.343h0.343h0.325h0.326h0.291
		h0.292h0.274h0.239h0.223h0.206c0.171,0,0.325,0,0.325,0c0.103,0,0.189,0,0.189,0c0.085-0.137,0.085-0.582,0.085-0.582v-0.72v-0.96
		v-1.232v-1.44v-1.645v-1.884v-2.022v-2.228v-2.365v-2.501v-2.604v-2.74v-2.811v-2.912v-2.947v-3.016v-3.016v-3.049v-3.051v-3.05
		v-3.016v-2.946v-2.913v-2.81v-2.741v-2.605v-2.501v-2.365v-2.227v-2.021v-1.851v-1.68v-1.438v-1.233v-0.96v-0.72v-0.445
		c-0.137-0.137-0.274-0.137-0.274-0.137h-0.206h-0.256h-0.292h-0.342h-0.394h-0.411h-0.463h-0.479h-0.531h-0.531h-0.565h-0.582h-0.6
		h-0.617h-0.617h-0.634h-0.634h-0.634h-0.617h-0.634h-0.6h-0.6h-0.583h-0.565h-0.548h-0.514h-0.497h-0.445h-0.429h-0.394h-0.343
		h-0.291h-0.257h-0.206c-0.137,0-0.24,0-0.24,0c-0.068,0.103-0.171,0.479-0.171,0.479l-0.172,0.617l-0.24,0.787l-0.291,1.029
		l-0.343,1.199l-0.394,1.404l-0.463,1.542l-0.497,1.714l-0.531,1.85l-0.565,1.987l-0.6,2.091l-0.634,2.193l-0.668,2.262
		l-0.668,2.364l-0.703,2.433l-0.719,2.467l-0.719,2.537l-0.737,2.535l-0.737,2.536l-0.736,2.535l-0.737,2.57l-0.72,2.501
		l-0.719,2.468l-0.686,2.433l-0.686,2.364l-0.668,2.262l-0.634,2.194l-0.6,2.09l-0.565,1.986l-0.531,1.851l-0.498,1.714
		l-0.445,1.543l-0.411,1.404l-0.343,1.199l-0.291,1.027l-0.24,0.788l-0.171,0.617l-0.103,0.378c-0.068,0-0.188-0.378-0.188-0.378
		l-0.171-0.617l-0.223-0.788l-0.309-1.027l-0.342-1.199l-0.395-1.404l-0.462-1.543l-0.48-1.714l-0.548-1.851l-0.566-1.986l-0.6-2.09
		l-0.634-2.194l-0.651-2.262l-0.685-2.364l-0.702-2.433l-0.72-2.468l-0.719-2.501l-0.737-2.57l-0.736-2.535l-0.737-2.536
		l-0.737-2.535l-0.72-2.537l-0.719-2.467l-0.686-2.433l-0.686-2.364l-0.651-2.262l-0.651-2.193l-0.6-2.091l-0.565-1.987l-0.531-1.85
		l-0.497-1.714l-0.446-1.542l-0.411-1.404l-0.342-1.199l-0.292-1.029l-0.239-0.787l-0.171-0.617l-0.103-0.377
		c-0.154-0.103-0.292-0.103-0.292-0.103h-0.206h-0.24h-0.274h-0.343h-0.36h-0.412h-0.428h-0.48h-0.497h-0.514h-0.548h-0.549h-0.582
		h-0.583h-0.6h-0.6h-0.6h-0.617h-0.6h-0.583h-0.6H79.16h-0.565h-0.531h-0.531h-0.498h-0.462h-0.445h-0.395h-0.377H75.03h-0.291
		h-0.24h-0.188c-0.138,0-0.24,0-0.24,0c-0.018,0.137-0.018,0.582-0.018,0.582v0.72v0.96v1.233v1.438v1.68v1.851v2.021v2.227v2.365
		v2.501v2.605v2.741v2.81v2.913v2.946v3.016v3.05v3.051v3.049v3.016v3.016v2.947v2.912v2.811v2.74v2.604v2.501v2.365v2.228v2.022
		v1.884v1.645v1.44v1.232v0.96v0.72v0.445c0.137,0.137,0.257,0.137,0.257,0.137c0.137,0,0.291,0,0.291,0h0.188h0.206h0.223h0.257
		h0.257h0.292h0.291h0.309h0.309h0.326h0.342h0.326h0.342h0.343h0.342h0.342h0.326h0.343h0.325h0.308h0.309h0.291h0.292h0.257h0.24
		h0.24h0.205h0.188c0.154,0,0.291,0,0.291,0c0.12,0,0.189,0,0.189,0C83.169,494.595,83.169,422.325,83.169,422.325z"/>
</g>
<g id="LWPOLYLINE_1_">
	
		<path fill="none" stroke="#000000" stroke-width="0.7087" stroke-linecap="round" stroke-linejoin="round" stroke-miterlimit="10" d="
		M156.86,494.595c0.171,0,0.291,0,0.291,0c0.154,0,0.343,0,0.343,0h0.223h0.239h0.257h0.291h0.309h0.326h0.325h0.36h0.36h0.376
		h0.395h0.377h0.394h0.394h0.395h0.394h0.394h0.377h0.377h0.36h0.36h0.342h0.326h0.291h0.292h0.257h0.24h0.223h0.188
		c0.154,0,0.292,0,0.292,0c0.154,0,0.171-0.033,0.171-0.033c0.035-0.104,0.086-0.275,0.086-0.275l0.085-0.239l0.086-0.274
		l0.12-0.343l0.12-0.411l0.154-0.445l0.154-0.515l0.171-0.513l0.189-0.584l0.188-0.582l0.206-0.65l0.206-0.651l0.223-0.685
		l0.223-0.687l0.239-0.719l0.223-0.72l0.24-0.754l0.24-0.721l0.223-0.754l0.24-0.719l0.24-0.72l0.223-0.72l0.223-0.719l0.223-0.651
		l0.223-0.687l0.188-0.615l0.206-0.617l0.171-0.549l0.172-0.548l0.171-0.48l0.137-0.445l0.137-0.411l0.103-0.343l0.103-0.309
		l0.068-0.239c0.051-0.171,0.085-0.273,0.085-0.273c0.069-0.035,0.24-0.035,0.24-0.035h0.257h0.359h0.463h0.531h0.617h0.686h0.754
		h0.822h0.874h0.943h0.959h1.011h1.045h1.08h1.097h1.113h1.131h1.131h1.131h1.114h1.113h1.097h1.079h1.045h1.011h0.977h0.925h0.874
		h0.822h0.754h0.686h0.617h0.548h0.446h0.359h0.274c0.154,0,0.206,0,0.206,0c0.052,0.138,0.103,0.309,0.103,0.309l0.068,0.239
		l0.069,0.309l0.103,0.343l0.12,0.411l0.12,0.445l0.154,0.48l0.154,0.548l0.154,0.549l0.171,0.617l0.188,0.615l0.188,0.687
		l0.188,0.651l0.206,0.719l0.206,0.72l0.206,0.72l0.205,0.719l0.206,0.754l0.206,0.721l0.223,0.754l0.206,0.72l0.206,0.719
		l0.188,0.687l0.206,0.685l0.188,0.651l0.171,0.65l0.171,0.582l0.171,0.584l0.154,0.513l0.137,0.515l0.121,0.445l0.12,0.411
		l0.103,0.343l0.085,0.274l0.069,0.239c0.051,0.172,0.068,0.275,0.068,0.275c0.103,0.033,0.206,0.033,0.206,0.033
		c0.154,0,0.326,0,0.326,0h0.206h0.24h0.274h0.309h0.326h0.342h0.36h0.394h0.394h0.412h0.428h0.428h0.445h0.445h0.446h0.445h0.445
		h0.445h0.428h0.428h0.412h0.411h0.377h0.36h0.36h0.308h0.309h0.274h0.24h0.205h0.189c0.137,0,0.239,0,0.239,0
		c0.052-0.137-0.103-0.582-0.103-0.582l-0.223-0.72l-0.308-0.96l-0.395-1.232l-0.462-1.44l-0.531-1.645l-0.583-1.884l-0.651-2.022
		l-0.703-2.228l-0.754-2.365l-0.805-2.501l-0.839-2.604l-0.874-2.74l-0.892-2.811l-0.925-2.912l-0.943-2.947l-0.959-3.016
		l-0.977-3.016l-0.959-3.049l-0.977-3.051l-0.977-3.05l-0.96-3.016l-0.942-2.946l-0.926-2.913l-0.891-2.81l-0.874-2.741l-0.84-2.605
		l-0.788-2.501l-0.754-2.365l-0.72-2.227l-0.651-2.021l-0.582-1.851l-0.531-1.68l-0.463-1.438l-0.394-1.233l-0.309-0.96l-0.223-0.72
		l-0.138-0.445c-0.153-0.137-0.274-0.137-0.274-0.137c-0.154,0-0.359,0-0.359,0h-0.223h-0.274h-0.309h-0.343h-0.359h-0.377h-0.412
		h-0.428h-0.445h-0.463h-0.479h-0.48h-0.497h-0.498h-0.497h-0.514h-0.48h-0.497h-0.498h-0.462h-0.463h-0.445h-0.428h-0.412h-0.394
		h-0.36h-0.325h-0.308h-0.274h-0.24h-0.206c-0.153,0-0.274,0-0.274,0C182.132,413.211,156.86,494.595,156.86,494.595z"/>
</g>
<g id="LWPOLYLINE_2_">
	
		<path fill="none" stroke="#000000" stroke-width="0.7087" stroke-linecap="round" stroke-linejoin="round" stroke-miterlimit="10" d="
		M201.065,465.845c-0.034,0-0.171,0-0.171,0h-0.223h-0.309h-0.377h-0.445h-0.514h-0.582h-0.634h-0.686h-0.736h-0.771h-0.822h-0.839
		h-0.874h-0.908h-0.908h-0.943h-0.942h-0.943h-0.942h-0.942h-0.926h-0.925h-0.908h-0.874h-0.839h-0.822h-0.771h-0.736h-0.686h-0.634
		h-0.565h-0.514h-0.462h-0.377h-0.292h-0.223c-0.137,0-0.188,0-0.188,0c0.017-0.103,0.085-0.309,0.085-0.309l0.121-0.376
		l0.153-0.515l0.189-0.65l0.223-0.754l0.257-0.891l0.291-0.96l0.309-1.097l0.342-1.131l0.36-1.269l0.394-1.302l0.412-1.37
		l0.428-1.44l0.428-1.508l0.445-1.508l0.462-1.541l0.463-1.611l0.48-1.575l0.479-1.61l0.462-1.611l0.48-1.576l0.463-1.576
		l0.462-1.576l0.446-1.508l0.445-1.508l0.411-1.405l0.412-1.405l0.394-1.302l0.36-1.233l0.342-1.165l0.309-1.097l0.291-0.959
		l0.257-0.891l0.24-0.754l0.188-0.651l0.137-0.515l0.12-0.342l0.068-0.241C188.437,423.011,201.065,465.845,201.065,465.845z"/>
</g>
<g id="LWPOLYLINE_3_">
	
		<path fill="none" stroke="#000000" stroke-width="0.7087" stroke-linecap="round" stroke-linejoin="round" stroke-miterlimit="10" d="
		M276.864,413.211c0,0.137,0,0.479,0,0.479v0.617v0.856v1.027v1.234v1.405v1.61v1.747v1.885v1.988v2.158v2.227v2.331v2.398v2.468
		v2.535v2.57v2.604v2.604v2.604v2.57v2.57v2.535v2.467v2.4v2.329v2.228v2.159v1.987v1.919v1.714v1.61v1.405v1.232v1.029v0.855v0.617
		v0.377c-0.052,0-0.223-0.377-0.223-0.377l-0.274-0.617l-0.36-0.855l-0.462-1.029l-0.548-1.232l-0.634-1.405l-0.703-1.61
		l-0.771-1.714l-0.84-1.919l-0.908-1.987l-0.942-2.159l-0.994-2.228l-1.045-2.329l-1.062-2.4l-1.096-2.467l-1.131-2.535l-1.131-2.57
		l-1.148-2.57l-1.165-2.604l-1.148-2.604l-1.165-2.604l-1.131-2.57l-1.131-2.535l-1.097-2.468l-1.062-2.398l-1.045-2.331
		l-0.994-2.227l-0.942-2.158l-0.891-1.988l-0.839-1.885l-0.789-1.747l-0.702-1.61l-0.634-1.405l-0.548-1.234l-0.462-1.027
		l-0.36-0.856l-0.274-0.617l-0.171-0.343c-0.154-0.137-0.274-0.137-0.274-0.137c-0.172,0-0.377,0-0.377,0h-0.257h-0.291h-0.309
		h-0.36h-0.377h-0.411h-0.429h-0.446h-0.48h-0.479h-0.498h-0.514h-0.514h-0.531h-0.531h-0.514h-0.531h-0.514h-0.514h-0.497h-0.479
		h-0.48h-0.445h-0.445h-0.394h-0.395h-0.342h-0.326h-0.291h-0.24h-0.206c-0.171,0-0.291,0-0.291,0
		c-0.103,0.137-0.103,0.582-0.103,0.582v0.72v0.96v1.233v1.438v1.68v1.851v2.021v2.227v2.365v2.501v2.605v2.741v2.81v2.913v2.946
		v3.016v3.05v3.051v3.049v3.016v3.016v2.947v2.912v2.811v2.74v2.604v2.501v2.365v2.228v2.022v1.884v1.645v1.44v1.232v0.96v0.72
		v0.445c0.138,0.137,0.257,0.137,0.257,0.137c0.137,0,0.291,0,0.291,0h0.189h0.205h0.223h0.256h0.257h0.291h0.292h0.309h0.308h0.326
		h0.343h0.326h0.342h0.343h0.343h0.343h0.325h0.343h0.325h0.309h0.309h0.291h0.292h0.256h0.24h0.24h0.206h0.189
		c0.153,0,0.291,0,0.291,0c0.12,0,0.188,0,0.188,0c0.069-0.103,0.069-0.479,0.069-0.479v-0.617v-0.857v-1.062v-1.232v-1.44v-1.61
		v-1.748v-1.919v-2.021v-2.159v-2.262v-2.364v-2.434v-2.467v-2.57v-2.57v-2.638v-2.64v-2.604v-2.639v-2.57v-2.57v-2.501v-2.434
		v-2.329v-2.262v-2.159v-2.056v-1.885v-1.782v-1.577v-1.438v-1.269v-1.027v-0.856v-0.617v-0.376c0.068,0,0.24,0.376,0.24,0.376
		l0.274,0.617l0.377,0.856l0.463,1.027l0.565,1.269l0.651,1.438l0.72,1.577l0.788,1.782l0.857,1.885l0.925,2.056l0.96,2.159
		l1.028,2.262l1.062,2.329l1.08,2.434l1.131,2.501l1.147,2.57l1.165,2.57l1.182,2.639l1.182,2.604l1.183,2.64l1.182,2.638
		l1.165,2.57l1.148,2.57l1.113,2.467l1.097,2.434l1.062,2.364l1.011,2.262l0.977,2.159l0.908,2.021l0.857,1.919l0.805,1.748
		l0.72,1.61l0.634,1.44l0.565,1.232l0.479,1.062l0.377,0.857l0.274,0.617l0.171,0.376c0.154,0.103,0.274,0.103,0.274,0.103
		c0.154,0,0.36,0,0.36,0h0.24h0.274h0.291h0.343h0.36h0.394h0.395h0.445h0.445h0.463h0.462h0.497h0.479h0.497h0.514h0.497h0.497
		h0.479h0.497h0.463h0.463h0.462h0.429h0.394h0.395h0.359h0.343h0.308h0.257h0.24h0.205c0.154,0,0.274,0,0.274,0
		c0.103-0.137,0.103-0.582,0.103-0.582v-0.72v-0.96v-1.232v-1.44v-1.645v-1.884v-2.022v-2.228v-2.365v-2.501v-2.604v-2.74v-2.811
		v-2.912v-2.947v-3.016v-3.016v-3.049v-3.051v-3.05v-3.016v-2.946v-2.913v-2.81v-2.741v-2.605v-2.501v-2.365v-2.227v-2.021v-1.851
		v-1.68v-1.438v-1.233v-0.96v-0.72v-0.445C285.996,413.211,276.864,413.211,276.864,413.211z"/>
</g>
<g id="LWPOLYLINE_4_">
	
		<path fill="none" stroke="#000000" stroke-width="0.7087" stroke-linecap="round" stroke-linejoin="round" stroke-miterlimit="10" d="
		M295.111,494.595c0.171,0,0.291,0,0.291,0c0.172,0,0.343,0,0.343,0h0.223h0.24h0.257h0.291h0.309h0.326h0.343h0.342h0.377h0.36
		h0.394h0.377h0.394h0.394h0.395h0.394h0.394h0.377h0.377h0.36h0.36h0.343h0.325h0.309h0.274h0.274h0.24h0.206h0.188
		c0.154,0,0.292,0,0.292,0c0.171,0,0.171-0.033,0.171-0.033c0.035-0.104,0.086-0.275,0.086-0.275l0.085-0.239l0.086-0.274
		l0.12-0.343l0.137-0.411l0.137-0.445l0.172-0.515l0.171-0.513l0.172-0.584l0.205-0.582l0.206-0.65l0.205-0.651l0.206-0.685
		l0.239-0.687l0.206-0.719l0.24-0.72l0.239-0.754l0.24-0.721l0.24-0.754l0.239-0.719l0.206-0.72l0.24-0.72l0.239-0.719l0.206-0.651
		l0.205-0.687l0.205-0.615l0.206-0.617l0.171-0.549l0.172-0.548l0.172-0.48l0.137-0.445l0.137-0.411l0.104-0.343l0.103-0.309
		l0.068-0.239c0.068-0.171,0.103-0.273,0.103-0.273c0.068-0.035,0.206-0.035,0.206-0.035h0.274h0.377h0.445h0.548h0.616h0.686h0.754
		h0.822h0.857h0.925h0.994h0.993h1.062h1.062h1.097h1.131h1.097h1.131h1.131h1.131h1.131h1.096h1.062h1.062h0.994h0.959h0.959h0.857
		h0.822h0.754h0.686h0.616h0.548h0.446h0.377h0.239c0.172,0,0.24,0,0.24,0c0.034,0.138,0.068,0.309,0.068,0.309l0.068,0.239
		l0.104,0.309l0.103,0.343l0.103,0.411l0.137,0.445l0.138,0.48l0.137,0.548l0.172,0.549l0.171,0.617l0.172,0.615l0.205,0.687
		l0.206,0.651l0.171,0.719l0.206,0.72l0.205,0.72l0.206,0.719l0.24,0.754l0.205,0.721l0.205,0.754l0.206,0.72l0.206,0.719
		l0.205,0.687l0.172,0.685l0.205,0.651l0.172,0.65l0.171,0.582l0.171,0.584l0.138,0.513l0.171,0.515l0.104,0.445l0.137,0.411
		l0.103,0.343l0.068,0.274l0.069,0.239c0.033,0.172,0.068,0.275,0.068,0.275c0.103,0.033,0.205,0.033,0.205,0.033
		c0.137,0,0.343,0,0.343,0h0.206h0.239h0.274h0.309h0.309h0.342h0.377h0.377h0.412h0.41h0.412h0.445h0.445h0.445h0.445h0.445h0.445
		h0.446h0.411h0.445h0.411h0.377h0.411h0.343h0.343h0.343h0.274h0.273h0.274h0.206h0.171c0.138,0,0.239,0,0.239,0
		c0.035-0.137-0.102-0.582-0.102-0.582l-0.206-0.72l-0.309-0.96l-0.411-1.232l-0.445-1.44l-0.549-1.645l-0.582-1.884l-0.651-2.022
		l-0.72-2.228l-0.754-2.365l-0.788-2.501l-0.822-2.604l-0.891-2.74l-0.892-2.811l-0.925-2.912l-0.96-2.947l-0.959-3.016
		l-0.959-3.016l-0.96-3.049l-0.993-3.051l-0.96-3.05l-0.96-3.016l-0.925-2.946l-0.925-2.913l-0.926-2.81l-0.856-2.741l-0.822-2.605
		l-0.823-2.501l-0.754-2.365l-0.685-2.227l-0.651-2.021l-0.617-1.851l-0.514-1.68l-0.445-1.438l-0.411-1.233l-0.309-0.96
		l-0.239-0.72l-0.138-0.445c-0.137-0.137-0.239-0.137-0.239-0.137c-0.172,0-0.377,0-0.377,0h-0.24h-0.274h-0.308H332h-0.377h-0.377
		h-0.412h-0.445h-0.445h-0.445h-0.479h-0.479h-0.48h-0.514h-0.514h-0.48h-0.514h-0.479h-0.479h-0.48h-0.479h-0.445h-0.411h-0.412
		h-0.377h-0.376h-0.343h-0.309h-0.274h-0.205h-0.206c-0.171,0-0.273,0-0.273,0C320.383,413.211,295.111,494.595,295.111,494.595z"/>
</g>
<g id="LWPOLYLINE_5_">
	
		<path fill="none" stroke="#000000" stroke-width="0.7087" stroke-linecap="round" stroke-linejoin="round" stroke-miterlimit="10" d="
		M339.333,465.845c-0.069,0-0.206,0-0.206,0h-0.205h-0.309h-0.377h-0.445h-0.515h-0.582h-0.617h-0.685h-0.754h-0.754h-0.823h-0.856
		h-0.856h-0.925h-0.926h-0.926h-0.925h-0.96h-0.925h-0.959h-0.926h-0.925h-0.891h-0.892h-0.822h-0.822h-0.788h-0.72h-0.686h-0.651
		H316.1h-0.514h-0.445h-0.377h-0.309h-0.206c-0.137,0-0.171,0-0.171,0c0-0.103,0.068-0.309,0.068-0.309l0.103-0.376l0.171-0.515
		l0.172-0.65l0.24-0.754l0.239-0.891l0.309-0.96l0.309-1.097l0.343-1.131l0.377-1.269l0.377-1.302l0.411-1.37l0.411-1.44
		l0.445-1.508l0.445-1.508l0.48-1.541l0.445-1.611l0.479-1.575l0.479-1.61l0.48-1.611l0.445-1.576l0.479-1.576l0.445-1.576
		l0.479-1.508l0.412-1.508l0.445-1.405l0.41-1.405l0.377-1.302l0.377-1.233l0.344-1.165l0.308-1.097l0.274-0.959l0.274-0.891
		l0.205-0.754l0.206-0.651l0.137-0.515l0.137-0.342l0.035-0.241C326.688,423.011,339.333,465.845,339.333,465.845z"/>
</g>
<g id="LWPOLYLINE_6_">
	
		<path fill="none" stroke="#000000" stroke-width="0.7087" stroke-linecap="round" stroke-linejoin="round" stroke-miterlimit="10" d="
		M418.627,434.97v-1.268l-0.068-1.199l-0.068-1.164l-0.104-1.132l-0.137-1.097l-0.137-1.028l-0.206-1.027l-0.206-0.96l-0.273-0.959
		l-0.274-0.891l-0.309-0.891l-0.343-0.823l-0.377-0.788l-0.411-0.789l-0.411-0.719l-0.479-0.72l-0.479-0.651l-0.549-0.617
		l-0.548-0.615l-0.583-0.584l-0.616-0.513l-0.651-0.515l-0.686-0.48l-0.72-0.445l-0.754-0.411l-0.788-0.376l-0.788-0.378
		l-0.856-0.308l-0.891-0.309l-0.892-0.274l-0.959-0.239l-0.96-0.206l-1.027-0.206l-1.028-0.137l-1.097-0.137l-1.097-0.138
		l-1.165-0.067l-1.165-0.069l-1.199-0.034h-1.268h-1.233l-1.234,0.068l-1.165,0.103l-1.165,0.103l-1.131,0.172l-1.062,0.206
		l-1.062,0.239l-1.027,0.24l-0.994,0.309l-0.959,0.342l-0.959,0.378l-0.892,0.376l-0.856,0.445l-0.857,0.48l-0.787,0.479
		l-0.789,0.548l-0.719,0.549l-0.721,0.617l-0.685,0.617l-0.651,0.65l-0.617,0.686l-0.582,0.72l-0.549,0.754l-0.514,0.754
		l-0.479,0.821l-0.479,0.823l-0.411,0.856l-0.411,0.891l-0.343,0.926l-0.343,0.925l-0.309,0.993l-0.274,0.995l-0.205,1.027
		l-0.206,1.028l-0.205,1.097l-0.138,1.097l-0.103,1.13l-0.068,1.132l-0.068,1.199v1.199c0,0.033,0,0.172,0,0.172v0.239v0.309v0.411
		v0.479v0.548v0.617v0.651v0.72v0.788v0.821v0.857v0.892v0.925v0.926v0.993v0.993v0.994v0.994v0.994v0.993v0.993v0.96v0.96v0.924
		v0.893v0.856v0.821v0.754v0.721v0.685v0.617v0.548v0.445v0.412v0.309v0.239c0,0.137,0,0.206,0,0.206v1.645l0.068,1.61l0.068,1.577
		l0.103,1.508l0.138,1.473l0.205,1.404l0.206,1.371l0.205,1.303l0.274,1.268l0.309,1.233l0.343,1.199l0.343,1.132l0.411,1.096
		l0.411,1.027l0.479,0.995l0.479,0.958l0.514,0.926l0.549,0.857l0.582,0.821l0.617,0.789l0.651,0.754l0.685,0.685l0.721,0.686
		l0.719,0.617l0.789,0.583l0.787,0.513l0.857,0.515l0.856,0.445l0.892,0.411l0.959,0.412l0.959,0.342l0.994,0.275l1.027,0.273
		l1.062,0.239l1.062,0.206l1.131,0.137l1.165,0.138l1.165,0.067l1.234,0.069h1.233h0.788h0.788l0.754-0.034l0.72-0.035l0.754-0.033
		l0.719-0.069l0.721-0.067l0.685-0.069l0.686-0.069l0.686-0.102l0.685-0.103l0.651-0.103l0.651-0.104l0.65-0.138l0.617-0.137
		l0.617-0.137l0.617-0.137l0.616-0.172l0.617-0.137l0.582-0.172l0.583-0.171l0.582-0.205l0.583-0.172l0.582-0.206l0.549-0.206
		l0.582-0.205l0.549-0.206l0.548-0.204l0.549-0.206l0.548-0.241l0.548-0.239l0.515-0.206l0.548-0.239l0.549-0.239l0.514-0.275
		l0.549-0.239l0.514-0.239l0.514-0.275l0.549-0.239l0.514-0.273c0-0.069,0-0.274,0-0.274v-0.343v-0.48v-0.582v-0.72v-0.788v-0.891
		v-0.993v-1.062v-1.132v-1.233v-1.268v-1.303v-1.371v-1.404v-1.405v-1.473v-1.438v-1.475v-1.474v-1.473v-1.44v-1.438v-1.405v-1.371
		v-1.302v-1.267v-1.201v-1.164v-1.062v-0.993v-0.892v-0.788v-0.72v-0.582v-0.445v-0.343v-0.241
		c-0.034-0.067-0.172-0.067-0.172-0.067h-0.239h-0.309h-0.377h-0.445h-0.515h-0.582h-0.617h-0.686h-0.754h-0.754h-0.822h-0.856
		h-0.856h-0.891h-0.926h-0.925h-0.96h-0.959h-0.926h-0.959h-0.926h-0.925h-0.891H400.5h-0.857h-0.822h-0.788h-0.72h-0.686h-0.65
		h-0.549h-0.514h-0.48h-0.376h-0.274h-0.24c-0.137,0-0.171,0-0.171,0c0,0.137,0,0.273,0,0.273c0,0.138,0,0.274,0,0.274v0.206v0.206
		v0.239v0.239v0.275v0.273v0.274v0.309v0.308v0.344v0.342v0.309v0.343v0.343v0.342v0.343v0.344v0.343v0.309v0.307v0.309v0.309v0.275
		v0.273v0.239v0.241v0.205v0.171c0,0.172,0,0.309,0,0.309c0,0.103,0,0.206,0,0.206c0.103,0.033,0.239,0.033,0.239,0.033h0.172h0.205
		h0.274h0.309h0.309h0.377h0.411h0.411h0.479h0.445h0.515h0.514h0.515h0.548h0.548h0.549h0.548h0.548h0.549h0.549h0.514h0.548h0.515
		h0.479h0.479h0.445h0.445h0.377h0.377h0.343h0.309h0.24h0.239h0.172c0.137,0,0.205,0,0.205,0c0.035,0.172,0.035,0.412,0.035,0.412
		v0.274v0.343v0.445v0.479v0.549v0.583v0.651v0.685v0.754v0.754v0.823v0.821v0.856v0.857v0.891v0.892v0.891v0.891v0.891v0.856v0.893
		v0.821v0.856v0.788v0.754v0.754v0.687v0.65v0.582v0.549v0.48v0.445v0.342v0.309v0.206c0,0.171-0.172,0.309-0.172,0.309
		c-0.172,0.171-0.343,0.343-0.343,0.343l-0.206,0.137l-0.205,0.172l-0.205,0.137l-0.24,0.17l-0.24,0.139l-0.24,0.17l-0.239,0.139
		l-0.274,0.137l-0.273,0.137l-0.274,0.172l-0.309,0.137l-0.309,0.137l-0.308,0.137l-0.309,0.103l-0.344,0.138l-0.342,0.137
		l-0.343,0.104l-0.377,0.137l-0.343,0.103l-0.411,0.103l-0.377,0.104l-0.377,0.103l-0.411,0.103l-0.411,0.069l-0.446,0.103
		l-0.41,0.068l-0.445,0.068l-0.446,0.068l-0.445,0.068l-0.479,0.034l-0.48,0.069l-0.479,0.033l-0.479,0.035l-0.514,0.034h-0.514
		l-0.48,0.034h-0.548l-0.72-0.034h-0.72l-0.686-0.069l-0.651-0.067l-0.686-0.103l-0.616-0.104l-0.616-0.137l-0.617-0.138
		l-0.583-0.206l-0.548-0.205l-0.549-0.24l-0.514-0.239l-0.514-0.309l-0.48-0.309l-0.479-0.343l-0.445-0.376l-0.445-0.378
		l-0.411-0.445l-0.377-0.479l-0.377-0.48l-0.377-0.515l-0.343-0.582l-0.309-0.582l-0.308-0.651l-0.275-0.65l-0.273-0.721
		l-0.24-0.754l-0.24-0.754l-0.205-0.822l-0.205-0.857l-0.172-0.924l-0.171-0.926l-0.138-0.994l-0.103-0.993l-0.103-1.097
		l-0.104-1.096l-0.033-1.166l-0.069-1.199l-0.034-1.234v-1.302c0-0.034,0-0.206,0-0.206v-0.239v-0.309v-0.411v-0.479v-0.582v-0.617
		v-0.685v-0.754v-0.789v-0.822v-0.892v-0.925v-0.926v-0.993v-0.993v-0.994v-1.028v-1.027v-1.028v-1.027v-0.995v-0.993v-0.994v-0.924
		v-0.926v-0.891v-0.823v-0.823v-0.719v-0.686v-0.651v-0.548v-0.479v-0.411v-0.343v-0.239c0-0.139,0-0.172,0-0.172l0.034-1.233
		l0.069-1.199l0.068-1.098l0.137-1.062l0.172-1.028l0.205-0.925l0.24-0.926l0.273-0.822l0.309-0.822l0.309-0.754l0.343-0.686
		l0.377-0.686l0.377-0.617l0.411-0.582l0.411-0.514l0.445-0.514l0.445-0.446l0.479-0.445l0.48-0.376l0.479-0.378l0.479-0.309
		l0.514-0.308l0.48-0.274l0.514-0.239l0.48-0.206l0.514-0.206l0.479-0.172l0.479-0.137l0.48-0.103l0.479-0.137l0.445-0.069
		l0.445-0.067l0.445-0.069l0.411-0.068l0.377-0.034h0.377l0.377-0.034h0.309h0.309h0.274h0.72l0.719,0.034l0.686,0.034l0.651,0.068
		l0.616,0.069l0.617,0.103l0.582,0.137l0.583,0.137l0.548,0.137l0.515,0.172l0.514,0.206l0.479,0.206l0.446,0.239l0.445,0.239
		l0.411,0.275l0.411,0.273l0.377,0.309l0.377,0.342l0.343,0.344l0.309,0.343l0.309,0.376l0.308,0.412l0.274,0.411l0.24,0.411
		l0.239,0.479l0.206,0.445l0.205,0.48l0.206,0.513l0.137,0.549l0.172,0.514l0.137,0.584l0.103,0.582l0.138,0.582l0.068,0.617
		l0.068,0.65l0.068,0.651l0.069,0.685l0.033,0.687v0.685v0.754H418.627z"/>
</g>
<g id="LWPOLYLINE_7_">
	
		<path fill="none" stroke="#000000" stroke-width="0.7087" stroke-linecap="round" stroke-linejoin="round" stroke-miterlimit="10" d="
		M478.286,494.595c0-0.137,0-0.239,0-0.239c0-0.138,0-0.309,0-0.309v-0.172v-0.206v-0.239v-0.239v-0.275v-0.273v-0.309v-0.309
		v-0.309v-0.309v-0.342v-0.343v-0.343v-0.342v-0.343v-0.344v-0.308V488.7v-0.342v-0.309v-0.308v-0.274v-0.275v-0.273v-0.239v-0.241
		v-0.204v-0.206c0-0.138,0-0.274,0-0.274c0-0.137,0-0.206,0-0.206c-0.069-0.067-0.24-0.067-0.24-0.067h-0.274h-0.377h-0.479h-0.548
		h-0.651h-0.72h-0.788h-0.856h-0.926h-0.959h-1.028h-1.062h-1.098h-1.131h-1.13h-1.165h-1.166h-1.199h-1.199h-1.165h-1.165h-1.131
		h-1.131h-1.096h-1.062h-1.028h-0.96h-0.925h-0.856h-0.788h-0.72h-0.651h-0.548h-0.48h-0.377h-0.273c-0.172,0-0.24,0-0.24,0
		c0-0.035,0-0.206,0-0.206v-0.24v-0.343v-0.41v-0.515v-0.548v-0.651v-0.72v-0.754v-0.823v-0.856v-0.891v-0.96v-0.959v-0.994v-1.027
		v-1.028v-1.062v-1.027v-1.062v-1.062v-1.027v-1.028v-0.994v-0.959v-0.96v-0.891v-0.856v-0.823v-0.754v-0.719v-0.651v-0.548v-0.515
		v-0.411v-0.343v-0.239c0-0.137,0-0.206,0-0.206c0.068,0,0.206,0,0.206,0h0.274h0.342h0.412h0.514h0.582h0.686h0.72h0.754h0.856
		h0.891h0.926h0.959h0.994h1.028h1.028h1.062h1.097h1.062h1.096h1.062h1.062h1.028h1.028h0.993h0.994h0.925h0.857h0.855h0.789h0.719
		h0.651h0.583h0.514h0.411h0.343h0.274c0.137,0,0.206,0,0.206,0c0-0.137,0-0.239,0-0.239c0-0.138,0-0.309,0-0.309v-0.206v-0.205
		v-0.206v-0.273v-0.241v-0.309v-0.273v-0.309v-0.309v-0.342v-0.309v-0.343V453.2v-0.342v-0.343v-0.344v-0.343v-0.342v-0.309v-0.309
		v-0.309v-0.308v-0.274v-0.273v-0.241v-0.239v-0.206v-0.171c0-0.172,0-0.309,0-0.309c0-0.103,0-0.172,0-0.172
		c-0.069-0.067-0.206-0.067-0.206-0.067h-0.274h-0.343h-0.411h-0.514h-0.583h-0.651h-0.719h-0.789h-0.855h-0.857h-0.925h-0.994
		h-0.993h-1.028h-1.028h-1.062h-1.062h-1.096h-1.062h-1.097h-1.062h-1.028h-1.028h-0.994h-0.959h-0.926h-0.891h-0.856h-0.754h-0.72
		h-0.686h-0.582h-0.514h-0.412h-0.342h-0.274c-0.138,0-0.206,0-0.206,0c0-0.069,0-0.206,0-0.206v-0.205v-0.309v-0.412v-0.445v-0.548
		v-0.583v-0.651v-0.719v-0.754v-0.789v-0.821v-0.891v-0.893v-0.924v-0.926v-0.96v-0.993v-0.96v-0.993v-0.96v-0.96v-0.924v-0.926
		v-0.891v-0.891v-0.823v-0.821v-0.754v-0.687v-0.651v-0.582v-0.548v-0.445v-0.411v-0.309v-0.206c0-0.172,0-0.206,0-0.206
		c0.068,0,0.24,0,0.24,0h0.273h0.344h0.479h0.548h0.617h0.719h0.789h0.822h0.891h0.959h0.994h1.028h1.062h1.097h1.131h1.131h1.164
		h1.166h1.164h1.131h1.131h1.131h1.097h1.062h1.062h0.993h0.926h0.925h0.823h0.787h0.686h0.651h0.548h0.445h0.377h0.274
		c0.172,0,0.206,0,0.206,0c0-0.137,0-0.239,0-0.239c0-0.137,0-0.309,0-0.309v-0.206v-0.205v-0.206v-0.273v-0.239v-0.309v-0.275
		v-0.309v-0.309v-0.342v-0.309v-0.343v-0.343v-0.342v-0.343v-0.343v-0.344v-0.342v-0.309v-0.308v-0.309v-0.309v-0.274v-0.273v-0.24
		v-0.24v-0.206v-0.171c0-0.172,0-0.309,0-0.309c0-0.103,0-0.172,0-0.172c-0.068-0.067-0.274-0.067-0.274-0.067h-0.377h-0.479h-0.617
		H475.1h-0.823h-0.925h-1.028h-1.097h-1.199h-1.233h-1.302h-1.371h-1.405h-1.474h-1.473h-1.508h-1.508h-1.543h-1.507h-1.508h-1.508
		h-1.474h-1.474h-1.405h-1.37h-1.302h-1.234h-1.199h-1.097h-1.028h-0.925h-0.822h-0.72h-0.617h-0.479h-0.377h-0.205
		c-0.069,0.137-0.069,0.582-0.069,0.582v0.72v0.96v1.233v1.438v1.68v1.851v2.021v2.227v2.365v2.501v2.605v2.741v2.81v2.913v2.946
		v3.016v3.05v3.051v3.049v3.016v3.016v2.947v2.912v2.811v2.74v2.604v2.501v2.365v2.228v2.022v1.884v1.645v1.44v1.232v0.96v0.72
		v0.445C436.891,494.595,478.286,494.595,478.286,494.595z"/>
</g>
<g id="LWPOLYLINE_8_">
	
		<path fill="none" stroke="#000000" stroke-width="0.7087" stroke-linecap="round" stroke-linejoin="round" stroke-miterlimit="10" d="
		M500.046,422.325c0.103,0,0.239,0,0.239,0h0.171h0.241h0.273h0.309h0.377h0.377h0.411h0.445h0.479h0.514h0.515h0.515h0.548h0.582
		h0.548h0.584h0.582h0.582h0.583h0.548h0.582h0.549h0.514h0.515h0.515h0.479h0.445h0.412h0.376h0.378h0.309h0.273h0.24h0.171
		c0.137,0,0.206,0,0.206,0c0.033,0,0.617,0,0.617,0l0.548,0.034l0.548,0.069l0.515,0.068l0.479,0.104l0.48,0.137l0.479,0.137
		l0.445,0.137l0.412,0.205l0.411,0.172l0.411,0.24l0.377,0.205l0.377,0.24l0.343,0.274l0.309,0.273l0.343,0.274l0.309,0.309
		l0.273,0.309l0.274,0.343l0.239,0.343l0.24,0.342l0.239,0.343l0.206,0.378l0.205,0.376l0.206,0.378l0.172,0.376l0.137,0.411
		l0.171,0.412l0.138,0.411l0.103,0.41l0.104,0.411l0.103,0.412l0.103,0.411l0.068,0.445l0.068,0.411l0.034,0.445l0.034,0.412
		l0.035,0.411v0.445v0.41v0.583v0.582l-0.035,0.549l-0.068,0.548l-0.035,0.548l-0.067,0.55l-0.103,0.548l-0.104,0.514l-0.103,0.514
		l-0.137,0.515l-0.138,0.515l-0.137,0.479l-0.171,0.48l-0.172,0.479l-0.206,0.445l-0.205,0.445l-0.206,0.411l-0.239,0.412
		l-0.24,0.411l-0.239,0.376l-0.274,0.378l-0.273,0.376l-0.309,0.343l-0.309,0.309l-0.343,0.343l-0.309,0.274l-0.378,0.273
		l-0.342,0.274l-0.377,0.24l-0.377,0.205l-0.412,0.206l-0.41,0.206l-0.446,0.17l-0.41,0.139l-0.48,0.103l-0.445,0.103l-0.479,0.104
		l-0.514,0.033l-0.515,0.034l-0.515,0.035c-0.103,0-0.239,0-0.239,0h-0.171h-0.24h-0.273h-0.309h-0.378h-0.376h-0.412h-0.445h-0.479
		h-0.515h-0.515H510.6h-0.549h-0.582h-0.548h-0.583h-0.582h-0.582h-0.584h-0.548h-0.582h-0.548h-0.515h-0.515h-0.514h-0.479h-0.445
		h-0.411h-0.377h-0.377h-0.309h-0.273h-0.241h-0.171c-0.137,0-0.205,0-0.205,0C500.046,448.301,500.046,422.325,500.046,422.325z"/>
</g>
<g id="LWPOLYLINE_9_">
	
		<path fill="none" stroke="#000000" stroke-width="0.7087" stroke-linecap="round" stroke-linejoin="round" stroke-miterlimit="10" d="
		M490.211,494.595c0.171,0,0.273,0,0.273,0c0.138,0,0.309,0,0.309,0h0.206h0.239h0.24h0.274h0.273h0.309h0.309h0.343h0.344h0.342
		h0.343h0.376h0.378h0.343h0.376h0.378h0.342h0.378h0.343h0.342h0.343h0.309h0.309h0.273h0.274h0.24h0.205h0.206
		c0.172,0,0.343,0,0.343,0c0.103,0,0.205,0,0.205,0c0.069-0.068,0.069-0.239,0.069-0.239v-0.343v-0.446v-0.548v-0.651v-0.788v-0.822
		v-0.959v-0.994v-1.097v-1.13v-1.199v-1.234v-1.303v-1.336v-1.337v-1.37v-1.404v-1.371v-1.405v-1.371v-1.37v-1.371v-1.336v-1.268
		v-1.269v-1.199v-1.13v-1.062v-1.029v-0.924v-0.857v-0.754v-0.65v-0.584v-0.445v-0.309v-0.204c0.067-0.069,0.171-0.069,0.171-0.069
		c0.138,0,0.342,0,0.342,0h0.206h0.241h0.273h0.309h0.309h0.342h0.377h0.377h0.412h0.411h0.41h0.445h0.446h0.445h0.445h0.445h0.445
		h0.445h0.412h0.445h0.411h0.376h0.412h0.342h0.344h0.343h0.309h0.273h0.239h0.206h0.172c0.137,0,0.239,0,0.239,0
		c0.104,0,0.378,0,0.378,0h0.273h0.309h0.309l0.309,0.034h0.343l0.342,0.035h0.343l0.378,0.034l0.376,0.033l0.343,0.069l0.377,0.067
		l0.377,0.069l0.411,0.069l0.378,0.103l0.376,0.103l0.378,0.137l0.376,0.137l0.378,0.172l0.376,0.171l0.343,0.206l0.377,0.205
		l0.343,0.206l0.343,0.274l0.342,0.273l0.309,0.309l0.309,0.309l0.309,0.343l0.273,0.376l0.275,0.412l0.273,0.411l0.24,0.479
		l0.206,0.48l0.204,0.514l0.172,0.549l0.172,0.582l0.137,0.617l0.104,0.65l0.103,0.686l0.067,0.72l0.035,0.788l0.068,0.787
		l0.035,0.789l0.033,0.788l0.034,0.788l0.035,0.789l0.034,0.754l0.033,0.787v0.788l0.035,0.754l0.034,0.788v0.754l0.034,0.754
		l0.035,0.754v0.754l0.033,0.754l0.034,0.72l0.034,0.72l0.035,0.719l0.033,0.721l0.034,0.72l0.069,0.685l0.033,0.686l0.069,0.686
		l0.034,0.686l0.068,0.65l0.104,0.651l0.068,0.651l0.104,0.617l0.067,0.617l0.137,0.615l0.103,0.584l0.139,0.582l0.137,0.582
		l0.137,0.548l0.137,0.55l0.172,0.513l0.172,0.515l0.205,0.48l0.205,0.479c0.068,0,0.172,0,0.172,0c0.137,0,0.309,0,0.309,0h0.205
		h0.24h0.239h0.274h0.309h0.343h0.343h0.342h0.378h0.41h0.378h0.411h0.41h0.446h0.41h0.412h0.411h0.411h0.412h0.41h0.377h0.377
		h0.377h0.343h0.309h0.309h0.309h0.239h0.24h0.205c0.137,0,0.275,0,0.275,0c0.17,0,0.204,0,0.204,0l-0.171-0.411l-0.137-0.479
		l-0.138-0.48l-0.171-0.479l-0.138-0.549l-0.102-0.548l-0.138-0.548l-0.104-0.584l-0.137-0.582l-0.103-0.583l-0.103-0.616
		l-0.104-0.65l-0.103-0.617l-0.103-0.651l-0.068-0.617l-0.103-0.651l-0.069-0.65l-0.068-0.651l-0.068-0.651l-0.068-0.65
		l-0.068-0.651l-0.068-0.617l-0.069-0.651l-0.034-0.615l-0.068-0.617l-0.034-0.582l-0.034-0.584l-0.035-0.582l-0.033-0.548
		l-0.034-0.548l-0.035-0.515l-0.034-0.515v-0.479l-0.033-0.445v-0.412l-0.035-0.411v-0.378v-0.342v-0.309v-0.273l-0.068-1.199
		l-0.068-1.132l-0.068-1.097l-0.103-1.027l-0.103-1.028l-0.104-0.925l-0.138-0.926l-0.137-0.856l-0.137-0.823l-0.172-0.821
		l-0.171-0.72l-0.205-0.719l-0.206-0.687l-0.206-0.651l-0.239-0.617l-0.239-0.582l-0.275-0.514l-0.274-0.549l-0.308-0.479
		l-0.309-0.445l-0.309-0.445l-0.342-0.412l-0.343-0.377l-0.378-0.377l-0.411-0.342l-0.411-0.309l-0.41-0.309l-0.445-0.275
		l-0.447-0.273l-0.479-0.239l-0.515-0.241l-0.515-0.239l-0.513-0.206l-0.548-0.205l-0.584-0.171l-0.582-0.172l-0.617-0.206
		l-0.65-0.137l-0.651-0.172l-0.651-0.17l0.651-0.104l0.685-0.137l0.651-0.172l0.617-0.205l0.651-0.206l0.583-0.206l0.616-0.273
		l0.583-0.239l0.548-0.309l0.549-0.309l0.548-0.309l0.515-0.376l0.513-0.344l0.48-0.377l0.479-0.411l0.445-0.411l0.446-0.445
		l0.41-0.445l0.411-0.479l0.378-0.48l0.376-0.479l0.378-0.514l0.343-0.515l0.309-0.548l0.307-0.549l0.275-0.548l0.274-0.582
		l0.239-0.583l0.24-0.582l0.205-0.617l0.206-0.582l0.137-0.651l0.172-0.617l0.137-0.651l0.103-0.65l0.104-0.651l0.067-0.651
		l0.035-0.685l0.034-0.652l0.033-0.685l-0.033-0.788v-0.788l-0.069-0.789l-0.067-0.787l-0.069-0.754l-0.103-0.754l-0.137-0.754
		l-0.137-0.754l-0.206-0.754l-0.172-0.721l-0.206-0.719l-0.239-0.686l-0.273-0.686l-0.274-0.685l-0.309-0.651l-0.343-0.65
		l-0.343-0.617l-0.411-0.617l-0.411-0.616l-0.412-0.55l-0.479-0.582l-0.479-0.514l-0.515-0.514l-0.548-0.514l-0.548-0.445
		l-0.617-0.445l-0.617-0.447l-0.651-0.376l-0.685-0.378l-0.721-0.342l-0.754-0.309l-0.754-0.273l-0.821-0.24l-0.823-0.24
		l-0.891-0.171l-0.891-0.172l-0.959-0.137l-0.96-0.069l-0.993-0.067h-1.029c-0.068,0-0.205,0-0.205,0h-0.24h-0.342h-0.412h-0.479
		h-0.55h-0.616h-0.686h-0.754h-0.788h-0.856h-0.891h-0.891h-0.96h-0.96h-0.993h-1.028h-1.027h-1.029h-1.027h-0.994h-1.027h-0.994
		h-0.959h-0.96h-0.926h-0.855h-0.856h-0.789h-0.754h-0.686h-0.617h-0.548h-0.515h-0.41h-0.309h-0.24c-0.171,0-0.205,0-0.205,0
		V494.595z"/>
</g>
<g id="LWPOLYLINE_10_">
	
		<path fill="none" stroke="#000000" stroke-width="0.7087" stroke-linecap="round" stroke-linejoin="round" stroke-miterlimit="10" d="
		M86.681,306.537c0.103,0,0.223,0,0.223,0c0.171,0,0.377,0,0.377,0h0.257h0.274h0.326h0.36h0.377h0.411h0.428h0.445h0.48h0.479
		h0.497h0.514h0.514h0.531h0.531h0.514h0.531h0.514h0.514h0.498h0.479h0.48h0.446h0.429h0.411h0.377h0.36h0.326h0.274h0.257h0.205
		c0.172,0,0.292,0,0.292,0c0.103,0,0.274,0,0.274,0h0.206l0.205,0.018l0.24,0.034l0.274,0.017l0.274,0.052l0.291,0.051l0.325,0.069
		l0.326,0.068l0.326,0.086l0.359,0.103l0.36,0.12l0.36,0.137l0.377,0.155l0.394,0.154l0.377,0.188l0.394,0.206l0.377,0.223
		l0.394,0.239l0.377,0.275l0.377,0.273l0.377,0.326l0.36,0.325l0.36,0.361l0.359,0.393l0.326,0.412l0.326,0.428l0.309,0.48
		l0.291,0.496l0.274,0.515l0.257,0.565l0.24,0.6l0.223,0.616l0.188,0.651l0.154,0.686l0.154,0.737l0.103,0.754l0.085,0.805
		l0.052,0.84l0.018,0.874l-0.018,0.924l-0.068,0.892l-0.085,0.838l-0.121,0.806l-0.153,0.771l-0.172,0.72l-0.205,0.702l-0.24,0.651
		l-0.257,0.617l-0.291,0.599l-0.309,0.549l-0.326,0.53l-0.342,0.498l-0.377,0.462l-0.377,0.428l-0.394,0.412l-0.411,0.377
		l-0.429,0.342l-0.428,0.326l-0.445,0.309l-0.445,0.273l-0.463,0.258l-0.462,0.24l-0.463,0.206l-0.463,0.188l-0.479,0.172
		l-0.463,0.154l-0.463,0.138l-0.462,0.12l-0.463,0.12l-0.445,0.086l-0.445,0.086l-0.428,0.051l-0.428,0.069l-0.412,0.034
		l-0.394,0.034l-0.377,0.017l-0.36,0.018l-0.359,0.017h-0.326c-0.069,0-0.171,0-0.171,0c-0.138,0-0.309,0-0.309,0h-0.189h-0.24
		h-0.257h-0.274h-0.309h-0.325h-0.343h-0.36h-0.377h-0.394h-0.394h-0.412h-0.411h-0.429h-0.411h-0.429h-0.411h-0.428h-0.395h-0.411
		h-0.377h-0.377h-0.36h-0.36h-0.326h-0.291h-0.291h-0.257h-0.223h-0.206c-0.171,0-0.309,0-0.309,0c-0.154,0-0.171,0-0.171,0V306.537
		z"/>
</g>
<g id="LWPOLYLINE_11_">
	
		<path fill="none" stroke="#000000" stroke-width="0.7087" stroke-linecap="round" stroke-linejoin="round" stroke-miterlimit="10" d="
		M86.681,378.806c0-0.051,0-0.257,0-0.257v-0.309v-0.428v-0.531v-0.634v-0.735v-0.823v-0.891v-0.977v-1.045v-1.096v-1.148v-1.199
		v-1.233v-1.285v-1.302v-1.319v-1.337v-1.336v-1.337v-1.336v-1.319v-1.302v-1.285v-1.234v-1.199v-1.147v-1.097v-1.045v-0.977v-0.891
		v-0.823v-0.737v-0.634v-0.531v-0.429v-0.307v-0.206c0.103-0.052,0.206-0.052,0.206-0.052c0.171,0,0.359,0,0.359,0h0.24h0.274h0.309
		h0.326h0.377h0.377h0.411h0.428h0.445h0.463h0.48h0.48h0.497h0.497h0.497h0.497h0.497h0.497h0.48h0.479h0.462h0.445h0.428h0.412
		h0.394h0.36h0.326h0.309h0.274h0.24h0.188c0.171,0,0.291,0,0.291,0c0.086,0,0.737-0.017,0.737-0.017l0.651-0.017l0.685-0.052
		l0.686-0.051l0.719-0.086l0.72-0.103l0.719-0.12l0.737-0.154l0.754-0.155l0.736-0.206l0.754-0.206l0.754-0.239l0.754-0.273
		l0.754-0.292l0.737-0.325l0.736-0.359l0.72-0.395l0.72-0.412l0.719-0.445l0.686-0.479l0.668-0.531l0.668-0.548l0.634-0.583
		l0.617-0.634l0.6-0.651l0.565-0.719l0.548-0.737l0.514-0.771l0.48-0.84l0.445-0.856l0.428-0.908l0.377-0.959l0.343-0.994
		l0.308-1.045l0.257-1.097l0.223-1.148l0.171-1.182l0.12-1.25l0.068-1.285l0.034-1.337l-0.017-1.405l-0.068-1.336l-0.103-1.285
		l-0.154-1.233l-0.188-1.183l-0.223-1.131l-0.275-1.08l-0.291-1.027l-0.342-0.993l-0.36-0.943l-0.412-0.891l-0.428-0.857
		l-0.463-0.806l-0.497-0.771l-0.515-0.72l-0.531-0.685l-0.582-0.634l-0.583-0.616l-0.617-0.566l-0.633-0.531l-0.651-0.496
		l-0.686-0.464l-0.686-0.427l-0.702-0.395l-0.72-0.359l-0.737-0.326l-0.754-0.309l-0.754-0.275l-0.754-0.239l-0.788-0.223
		l-0.771-0.206l-0.805-0.153l-0.789-0.155l-0.788-0.12l-0.806-0.103l-0.805-0.086l-0.789-0.051l-0.805-0.052l-0.805-0.017
		l-0.788-0.017c-0.171,0-0.36,0-0.36,0H99.36h-0.343h-0.411h-0.463h-0.531H97.03h-0.634h-0.668h-0.719h-0.737h-0.788h-0.789h-0.839
		h-0.84h-0.857h-0.857h-0.874h-0.857h-0.874h-0.839h-0.856H84.18h-0.806h-0.771H81.85h-0.703h-0.668h-0.634h-0.582h-0.531h-0.463
		h-0.411h-0.36h-0.274h-0.206c-0.154,0.154-0.154,0.601-0.154,0.601v0.702v0.977v1.216v1.457v1.661v1.851v2.039v2.228v2.348v2.501
		v2.621v2.741v2.81v2.913v2.948v3.014v3.034v3.05v3.049v3.033v2.999v2.963v2.896v2.827v2.724v2.623v2.501v2.365v2.209v2.039v1.867
		v1.663v1.438v1.216v0.977v0.72v0.445C76.864,378.806,86.681,378.806,86.681,378.806z"/>
</g>
<g id="LWPOLYLINE_12_">
	
		<path fill="none" stroke="#000000" stroke-width="0.7087" stroke-linecap="round" stroke-linejoin="round" stroke-miterlimit="10" d="
		M147.042,306.537c0.103,0,0.24,0,0.24,0h0.188h0.223h0.274h0.326h0.343h0.394h0.412h0.462h0.463h0.497h0.514h0.549h0.548h0.548
		h0.583h0.565h0.583h0.583h0.565h0.583h0.548h0.565h0.531h0.514h0.497h0.479h0.445h0.412h0.394h0.36h0.309h0.274h0.223h0.188
		c0.137,0,0.223,0,0.223,0c0.034,0,0.6,0,0.6,0l0.549,0.035l0.53,0.067l0.515,0.069l0.497,0.103l0.497,0.12l0.463,0.137l0.445,0.172
		l0.429,0.172l0.411,0.188l0.394,0.223l0.377,0.223l0.36,0.241l0.359,0.273l0.326,0.275l0.326,0.273l0.292,0.309l0.291,0.309
		l0.274,0.325l0.257,0.343l0.24,0.342l0.223,0.361l0.223,0.359l0.205,0.376l0.172,0.395l0.188,0.378l0.154,0.41l0.138,0.395
		l0.137,0.411l0.12,0.412l0.12,0.41l0.086,0.428l0.086,0.412l0.085,0.428l0.051,0.429l0.052,0.428l0.034,0.428l0.034,0.412
		l0.018,0.428v0.429v0.582l-0.018,0.565l-0.034,0.566l-0.051,0.548l-0.068,0.548l-0.069,0.548l-0.085,0.531l-0.086,0.531
		l-0.12,0.514l-0.12,0.513l-0.137,0.498l-0.154,0.496l-0.171,0.463l-0.171,0.479l-0.189,0.445l-0.205,0.445l-0.223,0.429
		l-0.223,0.411l-0.257,0.412l-0.257,0.377l-0.257,0.376l-0.291,0.359l-0.292,0.342l-0.308,0.327l-0.326,0.325l-0.343,0.291
		l-0.343,0.275l-0.36,0.256l-0.377,0.24l-0.394,0.223l-0.394,0.206l-0.412,0.189l-0.428,0.172l-0.445,0.137l-0.445,0.12l-0.48,0.103
		l-0.48,0.086l-0.479,0.051l-0.514,0.035l-0.515,0.017c-0.12,0-0.257,0-0.257,0h-0.188h-0.223h-0.274h-0.309h-0.36h-0.394h-0.412
		h-0.445h-0.479h-0.497h-0.514h-0.531h-0.565h-0.548h-0.583h-0.565h-0.583h-0.583h-0.565h-0.583h-0.548h-0.548h-0.549h-0.514h-0.497
		h-0.463h-0.462h-0.412h-0.394h-0.343h-0.326h-0.274h-0.223h-0.188c-0.137,0-0.223,0-0.223,0
		C147.042,332.495,147.042,306.537,147.042,306.537z"/>
</g>
<g id="LWPOLYLINE_13_">
	
		<path fill="none" stroke="#000000" stroke-width="0.7087" stroke-linecap="round" stroke-linejoin="round" stroke-miterlimit="10" d="
		M137.208,378.806c0.154,0,0.274,0,0.274,0c0.154,0,0.326,0,0.326,0h0.206h0.223h0.24h0.274h0.274h0.309h0.308h0.343h0.343h0.342
		h0.36h0.36h0.359h0.377h0.36h0.377h0.36h0.359h0.343h0.342h0.326h0.326h0.291h0.292h0.256h0.257h0.223h0.206
		c0.171,0,0.309,0,0.309,0c0.12,0,0.206,0,0.206,0c0.085-0.068,0.085-0.257,0.085-0.257v-0.325v-0.445v-0.565v-0.651v-0.772v-0.839
		v-0.942v-1.011v-1.079v-1.132v-1.199v-1.251v-1.284v-1.337v-1.353v-1.371v-1.388v-1.388v-1.388v-1.387v-1.371v-1.354v-1.336v-1.285
		v-1.25v-1.201v-1.13v-1.079v-1.011v-0.942v-0.84v-0.754v-0.668v-0.565v-0.445v-0.325v-0.189c0.086-0.069,0.189-0.069,0.189-0.069
		c0.137,0,0.308,0,0.308,0h0.223h0.24h0.274h0.291h0.326h0.359h0.36h0.377h0.411h0.411h0.429h0.428h0.445h0.445h0.446h0.445h0.445
		h0.429h0.445h0.428h0.412h0.394h0.377h0.377h0.343h0.325h0.292h0.274h0.257h0.205h0.172c0.154,0,0.256,0,0.256,0
		c0.086,0,0.36,0,0.36,0h0.274h0.309h0.309l0.325,0.017l0.326,0.019l0.342,0.017l0.36,0.017l0.359,0.034l0.36,0.052l0.377,0.051
		l0.377,0.052l0.377,0.067l0.377,0.086l0.377,0.103l0.394,0.103l0.377,0.137l0.377,0.137l0.377,0.155l0.36,0.172l0.377,0.205
		l0.359,0.206l0.343,0.241l0.342,0.24l0.342,0.291l0.326,0.292l0.309,0.326l0.291,0.342l0.292,0.377l0.274,0.412l0.257,0.428
		l0.24,0.445l0.223,0.496l0.189,0.515l0.188,0.548l0.154,0.583l0.137,0.599l0.12,0.651l0.085,0.685l0.069,0.72l0.051,0.788
		l0.051,0.789l0.034,0.788l0.034,0.788l0.035,0.789l0.034,0.788l0.035,0.771l0.017,0.788l0.034,0.771l0.017,0.772l0.017,0.771
		l0.034,0.754l0.017,0.771l0.018,0.754l0.034,0.737l0.018,0.754l0.034,0.736l0.034,0.72l0.035,0.72l0.034,0.719l0.035,0.703
		l0.051,0.702l0.052,0.686l0.051,0.685l0.068,0.668l0.068,0.668l0.068,0.651l0.086,0.634l0.086,0.634l0.103,0.617l0.102,0.599
		l0.121,0.6l0.12,0.582l0.137,0.566l0.154,0.548l0.154,0.548l0.171,0.531l0.171,0.496l0.189,0.497l0.206,0.479
		c0.085,0,0.188,0,0.188,0c0.12,0,0.292,0,0.292,0h0.205h0.223h0.257h0.292h0.291h0.326h0.36h0.359h0.377h0.377h0.412h0.411h0.411
		h0.411h0.429h0.411h0.428h0.412h0.412h0.394h0.394h0.377h0.36h0.343h0.325h0.309h0.274h0.257h0.24h0.189c0.171,0,0.308,0,0.308,0
		c0.154,0,0.171,0,0.171,0l-0.154-0.429l-0.137-0.462l-0.154-0.479l-0.137-0.497l-0.137-0.531l-0.137-0.531l-0.121-0.565
		l-0.12-0.582l-0.12-0.583l-0.103-0.599l-0.103-0.617l-0.103-0.634l-0.103-0.617l-0.085-0.651l-0.086-0.634l-0.085-0.651
		l-0.086-0.651l-0.068-0.651l-0.086-0.651l-0.068-0.633l-0.051-0.652l-0.068-0.633l-0.051-0.634l-0.052-0.617l-0.051-0.617
		l-0.051-0.599l-0.035-0.583l-0.034-0.582l-0.035-0.548l-0.035-0.548l-0.034-0.515l-0.018-0.497l-0.017-0.479l-0.034-0.445v-0.428
		l-0.017-0.412l-0.017-0.376v-0.343v-0.309v-0.274l-0.069-1.183l-0.068-1.147l-0.085-1.08l-0.086-1.045l-0.103-1.01l-0.12-0.943
		l-0.12-0.909l-0.137-0.874l-0.154-0.821l-0.154-0.789l-0.188-0.754l-0.188-0.719l-0.205-0.668l-0.223-0.651l-0.224-0.617
		l-0.256-0.565l-0.257-0.548l-0.274-0.531l-0.292-0.48l-0.308-0.462l-0.326-0.429l-0.343-0.411l-0.359-0.395l-0.377-0.359
		l-0.377-0.343l-0.412-0.309l-0.428-0.309l-0.429-0.273l-0.462-0.274l-0.48-0.257l-0.497-0.223l-0.515-0.239l-0.531-0.206
		l-0.565-0.206l-0.566-0.189l-0.6-0.172l-0.6-0.17l-0.634-0.172l-0.651-0.17l-0.685-0.155l0.685-0.12l0.669-0.137l0.651-0.172
		l0.634-0.17l0.616-0.223l0.617-0.223l0.583-0.241l0.583-0.273l0.565-0.292l0.549-0.309l0.548-0.326l0.514-0.359l0.497-0.359
		l0.498-0.377l0.462-0.412l0.463-0.411l0.445-0.427l0.429-0.447l0.394-0.479l0.395-0.479l0.376-0.48l0.36-0.515l0.326-0.513
		l0.326-0.55l0.309-0.548l0.274-0.548l0.274-0.582l0.24-0.582l0.24-0.583l0.206-0.617l0.188-0.599l0.171-0.634l0.154-0.634
		l0.138-0.634l0.103-0.651l0.103-0.651l0.068-0.668l0.051-0.668l0.034-0.668v-0.686v-0.788l-0.034-0.788l-0.034-0.771l-0.068-0.789
		l-0.086-0.754l-0.12-0.771l-0.12-0.754l-0.154-0.737l-0.171-0.754l-0.188-0.719l-0.223-0.72l-0.24-0.702l-0.257-0.686l-0.274-0.668
		l-0.309-0.668l-0.342-0.651l-0.36-0.617l-0.377-0.617l-0.411-0.599l-0.428-0.565l-0.463-0.566l-0.497-0.53l-0.514-0.514
		l-0.531-0.498l-0.583-0.462l-0.583-0.445l-0.634-0.412l-0.651-0.395l-0.685-0.376l-0.72-0.342l-0.754-0.309l-0.771-0.275
		l-0.806-0.256l-0.839-0.223l-0.875-0.189l-0.891-0.153l-0.942-0.12l-0.96-0.103l-1.011-0.052l-1.028-0.017
		c-0.051,0-0.206,0-0.206,0h-0.24h-0.325h-0.412h-0.48h-0.565h-0.634h-0.686h-0.736h-0.788h-0.839h-0.891h-0.925h-0.942h-0.978
		h-0.993h-1.011h-1.01h-1.028h-1.028h-1.028h-0.994h-1.011h-0.959h-0.959h-0.908h-0.891h-0.84h-0.788h-0.754h-0.686h-0.617h-0.565
		h-0.48h-0.411h-0.326h-0.24c-0.154,0-0.206,0-0.206,0V378.806z"/>
</g>
<g id="LWPOLYLINE_14_">
	
		<path fill="none" stroke="#000000" stroke-width="0.7087" stroke-linecap="round" stroke-linejoin="round" stroke-miterlimit="10" d="
		M221.419,380.211l1.251-0.017l1.217-0.051l1.182-0.086l1.148-0.12l1.131-0.155l1.096-0.188l1.045-0.241l1.028-0.256l0.994-0.309
		l0.96-0.342l0.942-0.395l0.891-0.41l0.875-0.464l0.839-0.496l0.806-0.531l0.771-0.583l0.737-0.616l0.719-0.651l0.668-0.703
		l0.651-0.754l0.616-0.771l0.583-0.84l0.565-0.856l0.514-0.925l0.497-0.959l0.445-0.994l0.428-1.045l0.395-1.096l0.359-1.132
		l0.343-1.182l0.291-1.233l0.274-1.269l0.24-1.319l0.206-1.371l0.171-1.405l0.137-1.473l0.12-1.508l0.068-1.56l0.052-1.611
		l0.018-1.661c0-0.051,0-0.189,0-0.189v-0.24v-0.309v-0.411v-0.462v-0.548v-0.617v-0.668v-0.719v-0.772v-0.822v-0.856v-0.891v-0.926
		v-0.96v-0.959v-0.994v-0.993v-0.994v-0.994v-0.995v-0.994v-0.959v-0.959v-0.925v-0.891v-0.856v-0.823v-0.771v-0.72v-0.668v-0.617
		v-0.548v-0.462v-0.412v-0.309v-0.24c0-0.137,0-0.188,0-0.188l-0.018-1.199l-0.052-1.183l-0.068-1.147l-0.12-1.131l-0.137-1.097
		l-0.171-1.079l-0.206-1.046l-0.24-1.027l-0.274-0.993l-0.291-0.977l-0.343-0.943l-0.359-0.908l-0.395-0.892l-0.428-0.857
		l-0.445-0.838l-0.497-0.806l-0.514-0.771l-0.565-0.737l-0.583-0.719l-0.616-0.686l-0.651-0.668l-0.668-0.617l-0.719-0.599
		l-0.737-0.565l-0.771-0.531l-0.806-0.498l-0.839-0.462l-0.875-0.445l-0.891-0.395l-0.942-0.359l-0.96-0.344l-0.994-0.307
		l-1.028-0.258l-1.045-0.24l-1.096-0.188l-1.131-0.171l-1.148-0.12l-1.182-0.086l-1.217-0.069L221.419,296l-1.233,0.017
		l-1.216,0.069l-1.2,0.086l-1.148,0.12l-1.113,0.171l-1.097,0.188l-1.062,0.24l-1.011,0.258l-1.011,0.307l-0.959,0.344l-0.925,0.359
		l-0.908,0.395l-0.856,0.445l-0.84,0.462l-0.805,0.498l-0.771,0.531l-0.754,0.565l-0.703,0.599l-0.686,0.617l-0.651,0.668
		l-0.617,0.686l-0.583,0.719l-0.548,0.737l-0.514,0.771l-0.497,0.806l-0.462,0.838l-0.412,0.857l-0.411,0.892l-0.359,0.908
		l-0.326,0.943l-0.309,0.977l-0.257,0.993l-0.239,1.027l-0.206,1.046l-0.171,1.079l-0.154,1.097l-0.103,1.131l-0.086,1.147
		l-0.034,1.183l-0.017,1.199c0,0.052,0,0.188,0,0.188v0.24v0.309v0.412v0.462v0.548v0.617v0.668v0.72v0.771v0.823v0.856v0.891v0.925
		v0.959v0.959v0.994v0.995v0.994v0.994v0.993v0.994v0.959v0.96v0.926v0.891v0.856v0.822v0.772v0.719v0.668v0.617v0.548v0.462v0.411
		v0.309v0.24c0,0.138,0,0.189,0,0.189l0.017,1.661l0.034,1.611l0.086,1.56l0.103,1.508l0.154,1.473l0.171,1.405l0.206,1.371
		l0.239,1.319l0.257,1.269l0.309,1.233l0.326,1.182l0.359,1.132l0.411,1.096l0.412,1.045l0.462,0.994l0.497,0.959l0.514,0.925
		l0.548,0.856l0.583,0.84l0.617,0.771l0.651,0.754l0.686,0.703l0.703,0.651l0.754,0.616l0.771,0.583l0.805,0.531l0.84,0.496
		l0.856,0.464l0.908,0.41l0.925,0.395l0.959,0.342l1.011,0.309l1.011,0.256l1.062,0.241l1.097,0.188l1.113,0.155l1.148,0.12
		l1.2,0.086l1.216,0.051L221.419,380.211z"/>
</g>
<g id="LWPOLYLINE_15_">
	
		<path fill="none" stroke="#000000" stroke-width="0.7087" stroke-linecap="round" stroke-linejoin="round" stroke-miterlimit="10" d="
		M221.419,371.798l-0.719-0.017l-0.72-0.017l-0.685-0.051l-0.669-0.069l-0.651-0.086l-0.634-0.12l-0.616-0.137l-0.6-0.155
		l-0.583-0.188l-0.565-0.206l-0.548-0.24l-0.514-0.258l-0.514-0.273l-0.48-0.325l-0.479-0.344l-0.445-0.376l-0.429-0.395
		l-0.428-0.428l-0.395-0.479l-0.377-0.479l-0.359-0.531l-0.343-0.566l-0.308-0.599l-0.309-0.634l-0.291-0.668l-0.257-0.703
		l-0.257-0.754l-0.223-0.771l-0.223-0.822l-0.188-0.856l-0.171-0.909l-0.154-0.924l-0.154-0.995l-0.102-1.011l-0.103-1.079
		l-0.086-1.097l-0.068-1.165l-0.051-1.199l-0.017-1.233l-0.018-1.302c0-0.052,0-0.189,0-0.189v-0.24v-0.344v-0.393v-0.498v-0.565
		v-0.617v-0.685v-0.737v-0.805v-0.84v-0.874v-0.926v-0.941v-0.978v-0.994v-1.01v-1.029v-1.027v-1.01v-1.029v-1.01v-0.995v-0.977
		v-0.941v-0.926v-0.874v-0.84v-0.805v-0.737v-0.685v-0.634v-0.548v-0.498v-0.411v-0.326v-0.24c0-0.137,0-0.188,0-0.188l0.018-1.233
		l0.068-1.182l0.103-1.113l0.137-1.062l0.171-1.01l0.206-0.943l0.223-0.909l0.274-0.839l0.292-0.806l0.326-0.754l0.342-0.702
		l0.36-0.669l0.394-0.616l0.412-0.583l0.411-0.531l0.446-0.496l0.445-0.462l0.479-0.428l0.462-0.395l0.48-0.359l0.497-0.326
		l0.498-0.292l0.497-0.275l0.497-0.24l0.497-0.206l0.497-0.206l0.498-0.154l0.479-0.154l0.48-0.121l0.479-0.12l0.445-0.084
		l0.446-0.069l0.428-0.069l0.428-0.034l0.394-0.052l0.36-0.017l0.359-0.017l0.326-0.017h0.309h0.274h0.274h0.309l0.342,0.017
		l0.342,0.017l0.377,0.017l0.395,0.052l0.411,0.034l0.428,0.069l0.446,0.069l0.462,0.084l0.463,0.12l0.48,0.121l0.497,0.154
		l0.497,0.154l0.48,0.206l0.514,0.206l0.497,0.24l0.498,0.275l0.497,0.292l0.48,0.326l0.48,0.359l0.479,0.395l0.462,0.428
		l0.463,0.462l0.428,0.496l0.429,0.531l0.411,0.583l0.377,0.616l0.377,0.669l0.342,0.702l0.326,0.754l0.292,0.806l0.257,0.839
		l0.24,0.909l0.206,0.943l0.171,1.01l0.137,1.062l0.102,1.113l0.052,1.182l0.018,1.233c0,0.052,0,0.188,0,0.188v0.24v0.326v0.411
		v0.498v0.548v0.634v0.685v0.737v0.805v0.84v0.874v0.926v0.941v0.977v0.995v1.01v1.029v1.01v1.027v1.029v1.01v0.994v0.978v0.941
		v0.926v0.874v0.84v0.805v0.737v0.685v0.617v0.565v0.498v0.393v0.344v0.24c0,0.137,0,0.189,0,0.189v1.302l-0.035,1.233l-0.035,1.199
		l-0.068,1.165l-0.085,1.097l-0.103,1.079l-0.121,1.011l-0.137,0.995l-0.154,0.924l-0.171,0.909l-0.206,0.856l-0.206,0.822
		l-0.223,0.771l-0.257,0.754l-0.256,0.703l-0.292,0.668l-0.308,0.634l-0.326,0.599l-0.343,0.566l-0.359,0.531l-0.377,0.479
		l-0.395,0.479l-0.411,0.428l-0.428,0.395l-0.463,0.376l-0.462,0.344l-0.479,0.325l-0.515,0.273l-0.531,0.258l-0.53,0.24
		l-0.566,0.206l-0.583,0.188l-0.6,0.155l-0.617,0.137l-0.634,0.12l-0.651,0.086l-0.686,0.069l-0.685,0.051l-0.702,0.017
		L221.419,371.798z"/>
</g>
<g id="LWPOLYLINE_16_">
	
		<path fill="none" stroke="#000000" stroke-width="0.7087" stroke-linecap="round" stroke-linejoin="round" stroke-miterlimit="10" d="
		M312.673,319.164l-0.034-1.25l-0.034-1.199l-0.068-1.166l-0.103-1.131l-0.138-1.08l-0.171-1.061l-0.172-1.012l-0.24-0.977
		l-0.239-0.943l-0.274-0.907l-0.309-0.874l-0.342-0.84l-0.377-0.788l-0.412-0.771l-0.445-0.737l-0.445-0.703l-0.514-0.651
		l-0.514-0.633l-0.549-0.601l-0.617-0.582l-0.616-0.531l-0.634-0.497l-0.686-0.479l-0.719-0.445l-0.754-0.411l-0.771-0.395
		l-0.823-0.359l-0.839-0.326l-0.891-0.292l-0.908-0.273l-0.942-0.241l-0.977-0.223l-1.011-0.188l-1.045-0.155l-1.08-0.137
		l-1.096-0.12l-1.148-0.069l-1.182-0.069l-1.217-0.034L288.103,296l-1.25,0.017l-1.216,0.069l-1.182,0.086l-1.166,0.12l-1.113,0.171
		l-1.097,0.188l-1.045,0.24l-1.028,0.258l-0.994,0.307l-0.977,0.344l-0.925,0.359l-0.891,0.395l-0.874,0.445l-0.84,0.462
		l-0.805,0.498l-0.771,0.531l-0.754,0.565l-0.702,0.599l-0.686,0.617l-0.634,0.668l-0.617,0.686l-0.583,0.719l-0.565,0.737
		l-0.515,0.771l-0.497,0.806l-0.445,0.838l-0.428,0.857l-0.394,0.892l-0.377,0.908l-0.326,0.943l-0.292,0.977l-0.274,0.993
		l-0.24,1.027l-0.206,1.046l-0.171,1.079l-0.137,1.097l-0.12,1.131l-0.068,1.147l-0.051,1.183l-0.017,1.199c0,0.052,0,0.188,0,0.188
		v0.24v0.309v0.412v0.462v0.548v0.617v0.668v0.72v0.771v0.823v0.856v0.891v0.925v0.959v0.959v0.994v0.995v0.994v0.994v0.993v0.994
		v0.959v0.96v0.926v0.891v0.856v0.822v0.772v0.719v0.668v0.617v0.548v0.462v0.411v0.309v0.24c0,0.138,0,0.189,0,0.189l0.017,1.661
		l0.051,1.611l0.068,1.56l0.12,1.508l0.137,1.473l0.171,1.405l0.206,1.371l0.24,1.319l0.274,1.269l0.292,1.233l0.326,1.182
		l0.377,1.132l0.394,1.096l0.428,1.045l0.445,0.994l0.497,0.959l0.515,0.925l0.565,0.856l0.583,0.84l0.617,0.771l0.634,0.754
		l0.686,0.703l0.702,0.651l0.754,0.616l0.771,0.583l0.805,0.531l0.84,0.496l0.874,0.464l0.891,0.41l0.925,0.395l0.977,0.342
		l0.994,0.309l1.028,0.256l1.045,0.241l1.097,0.188l1.113,0.155l1.166,0.12l1.182,0.086l1.216,0.051l1.25,0.017h0.771l0.771-0.017
		l0.754-0.017l0.754-0.034l0.736-0.052l0.72-0.051l0.702-0.069l0.703-0.069l0.685-0.084l0.686-0.086l0.668-0.103l0.668-0.103
		l0.651-0.12l0.634-0.137l0.633-0.12l0.634-0.138l0.617-0.154l0.6-0.155l0.6-0.154l0.6-0.172l0.6-0.17l0.583-0.189l0.565-0.188
		l0.565-0.188l0.582-0.206l0.549-0.206l0.565-0.206l0.531-0.206l0.549-0.223l0.548-0.223l0.548-0.239l0.549-0.223l0.514-0.241
		l0.549-0.239l0.548-0.257l0.515-0.239l0.514-0.258l0.548-0.257l0.515-0.258l0.548-0.256c0-0.069,0-0.292,0-0.292v-0.343v-0.462
		v-0.601v-0.702v-0.789v-0.908v-0.977v-1.079v-1.13v-1.217v-1.267v-1.302v-1.371v-1.405v-1.422v-1.457v-1.456v-1.474v-1.474v-1.473
		v-1.438v-1.44v-1.388v-1.37v-1.32v-1.267v-1.199v-1.148v-1.062v-0.977v-0.908v-0.806v-0.685v-0.601v-0.462v-0.343v-0.223
		c-0.068-0.069-0.206-0.069-0.206-0.069h-0.205h-0.309h-0.377h-0.445h-0.514h-0.583h-0.651h-0.686h-0.719h-0.788h-0.788h-0.857
		h-0.874h-0.908h-0.925h-0.925h-0.943h-0.942h-0.942h-0.943h-0.942h-0.908h-0.908h-0.874h-0.84h-0.822h-0.771h-0.737h-0.685h-0.634
		h-0.583h-0.514h-0.446h-0.377h-0.308h-0.224c-0.137,0-0.171,0-0.171,0c0,0.155,0,0.258,0,0.258c0,0.137,0,0.291,0,0.291v0.188
		v0.206v0.239v0.24v0.275v0.273v0.292v0.309v0.309v0.326v0.342v0.326v0.342v0.342v0.344v0.343v0.342v0.326v0.325v0.309v0.309v0.291
		v0.292v0.257v0.258v0.223v0.206v0.189c0,0.17,0,0.307,0,0.307c0,0.103,0,0.189,0,0.189c0.103,0.052,0.223,0.052,0.223,0.052h0.188
		h0.223h0.257h0.291h0.343h0.376h0.395h0.429h0.445h0.479h0.497h0.514h0.514h0.548h0.531h0.548h0.566h0.548h0.548h0.548h0.531h0.531
		h0.497h0.497h0.479h0.445h0.429h0.411h0.359h0.343h0.291h0.274h0.223h0.172c0.12,0,0.205,0,0.205,0
		c0.035,0.188,0.035,0.394,0.035,0.394v0.292v0.342v0.429v0.497v0.531v0.599v0.651v0.685v0.737v0.771v0.806v0.823v0.855v0.857v0.892
		v0.891v0.891v0.891v0.892v0.874v0.874v0.84v0.838v0.789v0.771v0.737v0.702v0.634v0.599v0.549v0.479v0.429v0.359v0.292v0.206
		c0,0.171-0.171,0.326-0.171,0.326c-0.171,0.17-0.36,0.326-0.36,0.326l-0.188,0.153l-0.206,0.155l-0.223,0.153l-0.223,0.155
		l-0.223,0.153l-0.257,0.154l-0.257,0.138l-0.257,0.153l-0.274,0.137l-0.291,0.155l-0.292,0.137l-0.291,0.137l-0.326,0.138
		l-0.326,0.12l-0.325,0.137l-0.343,0.12l-0.343,0.12l-0.359,0.12l-0.377,0.103l-0.377,0.12l-0.395,0.103l-0.394,0.103l-0.394,0.086
		l-0.411,0.086l-0.429,0.086l-0.428,0.086l-0.445,0.068l-0.445,0.069l-0.463,0.051l-0.462,0.052l-0.479,0.051l-0.48,0.035
		l-0.48,0.034l-0.497,0.034l-0.514,0.017l-0.514,0.017h-0.515l-0.736-0.017l-0.702-0.017l-0.703-0.051l-0.668-0.069l-0.651-0.086
		l-0.634-0.12l-0.617-0.137l-0.6-0.155l-0.583-0.188l-0.565-0.206l-0.531-0.24l-0.531-0.258l-0.514-0.273l-0.479-0.325l-0.48-0.344
		l-0.445-0.376l-0.428-0.395l-0.412-0.428l-0.412-0.479l-0.377-0.479l-0.359-0.531l-0.325-0.566l-0.326-0.599l-0.309-0.634
		l-0.291-0.668l-0.257-0.703l-0.257-0.754l-0.223-0.771l-0.223-0.822l-0.189-0.856l-0.171-0.909l-0.154-0.924l-0.137-0.995
		l-0.12-1.011l-0.103-1.079l-0.086-1.097l-0.068-1.165l-0.034-1.199l-0.034-1.233l-0.018-1.302c0-0.052,0-0.189,0-0.189v-0.24
		v-0.344v-0.393v-0.498v-0.565v-0.617v-0.685v-0.737v-0.805v-0.84v-0.874v-0.926v-0.941v-0.978v-0.994v-1.01v-1.029v-1.027v-1.01
		v-1.029v-1.01v-0.995v-0.977v-0.941v-0.926v-0.874v-0.84v-0.805v-0.737v-0.685v-0.634v-0.548v-0.498v-0.411v-0.326v-0.24
		c0-0.137,0-0.188,0-0.188l0.035-1.233l0.051-1.182l0.103-1.113l0.137-1.062l0.171-1.01l0.206-0.943l0.24-0.909l0.256-0.839
		l0.292-0.806l0.325-0.754l0.343-0.702l0.36-0.669l0.394-0.616l0.411-0.583l0.429-0.531l0.428-0.496l0.462-0.462l0.463-0.428
		l0.462-0.395l0.498-0.359l0.479-0.326l0.498-0.292l0.497-0.275l0.497-0.24l0.497-0.206l0.497-0.206l0.498-0.154l0.479-0.154
		l0.48-0.121l0.48-0.12l0.445-0.084l0.446-0.069l0.428-0.069l0.429-0.034l0.394-0.052l0.377-0.017l0.343-0.017l0.343-0.017h0.291
		h0.291h0.72l0.703,0.034l0.668,0.052l0.668,0.051l0.634,0.086l0.6,0.103l0.6,0.12l0.566,0.137l0.531,0.155l0.531,0.171l0.497,0.206
		l0.479,0.206l0.463,0.24l0.445,0.241l0.428,0.273l0.395,0.275l0.394,0.309l0.359,0.326l0.343,0.342l0.326,0.359l0.309,0.377
		l0.274,0.394l0.274,0.411l0.256,0.429l0.24,0.462l0.223,0.464l0.189,0.496l0.188,0.497l0.171,0.531l0.154,0.548l0.137,0.548
		l0.12,0.582l0.103,0.6l0.085,0.616l0.086,0.634l0.051,0.651l0.051,0.687l0.034,0.685l0.018,0.703l0.017,0.736H312.673z"/>
</g>
<g id="LWPOLYLINE_17_">
	
		<path fill="none" stroke="#000000" stroke-width="0.7087" stroke-linecap="round" stroke-linejoin="round" stroke-miterlimit="10" d="
		M340.738,306.537c0.102,0,0.239,0,0.239,0h0.171h0.24h0.274h0.308h0.377h0.377h0.412h0.445h0.479h0.515h0.514h0.514h0.549h0.582
		h0.549h0.582h0.582h0.583h0.583h0.548h0.583h0.548h0.514h0.515h0.514h0.479h0.446h0.41h0.377h0.377h0.309h0.274h0.239h0.172
		c0.137,0,0.24,0,0.24,0h0.582l0.549,0.035l0.548,0.067l0.515,0.069l0.479,0.103l0.48,0.12l0.479,0.137l0.445,0.172l0.411,0.172
		l0.412,0.188l0.41,0.223l0.377,0.223l0.377,0.241l0.344,0.273l0.342,0.275l0.309,0.273l0.309,0.309l0.273,0.309l0.275,0.325
		l0.239,0.343l0.274,0.342l0.205,0.361l0.206,0.359l0.205,0.376l0.206,0.395l0.171,0.378l0.138,0.41l0.171,0.395l0.138,0.411
		l0.103,0.412l0.103,0.41l0.103,0.428l0.103,0.412l0.069,0.428l0.068,0.429l0.034,0.428l0.034,0.428l0.034,0.412v0.428l0.034,0.429
		l-0.034,0.582v0.565l-0.034,0.566l-0.068,0.548l-0.034,0.548l-0.068,0.548l-0.104,0.531l-0.103,0.531l-0.103,0.514l-0.137,0.513
		l-0.138,0.498l-0.137,0.496l-0.172,0.463l-0.171,0.479l-0.206,0.445l-0.205,0.445l-0.206,0.429l-0.24,0.411l-0.239,0.412
		l-0.239,0.377l-0.275,0.376l-0.273,0.359l-0.309,0.342l-0.309,0.327l-0.309,0.325l-0.342,0.291l-0.343,0.275l-0.377,0.256
		l-0.377,0.24l-0.377,0.223l-0.411,0.206l-0.412,0.189l-0.445,0.172l-0.41,0.137l-0.48,0.12l-0.445,0.103l-0.479,0.086l-0.515,0.051
		l-0.479,0.035l-0.548,0.017c-0.104,0-0.24,0-0.24,0h-0.172h-0.239h-0.274h-0.309h-0.377h-0.377h-0.41h-0.446h-0.479h-0.514h-0.515
		h-0.514h-0.548h-0.583h-0.548h-0.583h-0.583h-0.582h-0.582h-0.549h-0.582h-0.549h-0.514h-0.514h-0.515h-0.479h-0.445h-0.412h-0.377
		h-0.377h-0.308h-0.274h-0.24h-0.171c-0.138,0-0.206,0-0.206,0C340.738,332.495,340.738,306.537,340.738,306.537z"/>
</g>
<g id="LWPOLYLINE_18_">
	
		<path fill="none" stroke="#000000" stroke-width="0.7087" stroke-linecap="round" stroke-linejoin="round" stroke-miterlimit="10" d="
		M330.903,378.806c0.171,0,0.274,0,0.274,0c0.137,0,0.308,0,0.308,0h0.206h0.24h0.239h0.274h0.273h0.309h0.309h0.343h0.343h0.343
		h0.343h0.377h0.377h0.342h0.377h0.377h0.344h0.376h0.343h0.343h0.343h0.309h0.309h0.273h0.274h0.24h0.205h0.206
		c0.171,0,0.342,0,0.342,0c0.104,0,0.206,0,0.206,0c0.069-0.068,0.069-0.257,0.069-0.257v-0.325v-0.445v-0.565v-0.651v-0.772v-0.839
		v-0.942v-1.011v-1.079v-1.132v-1.199v-1.251v-1.284v-1.337v-1.353v-1.371v-1.388v-1.388v-1.388v-1.387v-1.371v-1.354v-1.336v-1.285
		v-1.25v-1.201v-1.13v-1.079v-1.011v-0.942v-0.84v-0.754v-0.668v-0.565v-0.445v-0.325v-0.189c0.068-0.069,0.171-0.069,0.171-0.069
		c0.171,0,0.343,0,0.343,0h0.205h0.24h0.273h0.309h0.309h0.343h0.377h0.377h0.411h0.411h0.411h0.445h0.445h0.446h0.445h0.445h0.445
		h0.446h0.41h0.446h0.411h0.411h0.377h0.343h0.377h0.309h0.308h0.274h0.24h0.205h0.172c0.137,0,0.239,0,0.239,0
		c0.103,0,0.377,0,0.377,0h0.274h0.309h0.309l0.309,0.017l0.342,0.019l0.343,0.017l0.343,0.017l0.377,0.034l0.377,0.052l0.343,0.051
		l0.377,0.052l0.377,0.067l0.411,0.086l0.377,0.103l0.377,0.103l0.377,0.137l0.377,0.137l0.377,0.155l0.377,0.172l0.343,0.205
		l0.377,0.206l0.343,0.241l0.342,0.24l0.344,0.291l0.308,0.292l0.309,0.326l0.309,0.342l0.308,0.377l0.24,0.412l0.274,0.428
		l0.239,0.445l0.206,0.496l0.206,0.515l0.171,0.548l0.171,0.583l0.138,0.599l0.137,0.651l0.069,0.685l0.068,0.72l0.068,0.788
		l0.034,0.789l0.034,0.788l0.034,0.788l0.034,0.789l0.034,0.788l0.034,0.771l0.035,0.788v0.771l0.033,0.772l0.035,0.771v0.754
		l0.034,0.771l0.034,0.754v0.737l0.034,0.754l0.034,0.736l0.034,0.72l0.034,0.72l0.034,0.719l0.034,0.703l0.068,0.702l0.035,0.686
		l0.068,0.685l0.034,0.668l0.068,0.668l0.103,0.651l0.068,0.634l0.104,0.634l0.103,0.617l0.103,0.599l0.104,0.6l0.137,0.582
		l0.137,0.566l0.138,0.548l0.137,0.548l0.171,0.531l0.172,0.496l0.205,0.497l0.206,0.479c0.068,0,0.171,0,0.171,0
		c0.138,0,0.309,0,0.309,0h0.206h0.239h0.24h0.274h0.308h0.344h0.342h0.343h0.377h0.411h0.377h0.412h0.41h0.445h0.412h0.411h0.411
		h0.411h0.411h0.411h0.377h0.377h0.377h0.343h0.309h0.309h0.309h0.239h0.239h0.206c0.138,0,0.274,0,0.274,0c0.171,0,0.205,0,0.205,0
		l-0.171-0.429l-0.138-0.462l-0.137-0.479l-0.171-0.497l-0.103-0.531l-0.138-0.531l-0.137-0.565l-0.103-0.582l-0.138-0.583
		l-0.103-0.599l-0.104-0.617l-0.102-0.634l-0.104-0.617l-0.103-0.651l-0.069-0.634l-0.102-0.651l-0.069-0.651l-0.068-0.651
		l-0.068-0.651l-0.069-0.633l-0.068-0.652l-0.068-0.633l-0.068-0.634l-0.034-0.617l-0.068-0.617l-0.034-0.599l-0.034-0.583
		l-0.034-0.582l-0.035-0.548l-0.033-0.548l-0.035-0.515l-0.034-0.497v-0.479l-0.034-0.445v-0.428l-0.034-0.412v-0.376v-0.343v-0.309
		v-0.274l-0.068-1.183l-0.068-1.147l-0.069-1.08l-0.103-1.045l-0.103-1.01l-0.103-0.943l-0.138-0.909l-0.137-0.874l-0.137-0.821
		l-0.172-0.789l-0.171-0.754l-0.206-0.719l-0.205-0.668l-0.206-0.651l-0.239-0.617l-0.24-0.565l-0.274-0.548l-0.274-0.531
		l-0.309-0.48l-0.308-0.462l-0.309-0.429l-0.343-0.411l-0.343-0.395l-0.377-0.359l-0.411-0.343l-0.377-0.309l-0.445-0.309
		l-0.445-0.273l-0.445-0.274l-0.48-0.257l-0.514-0.223l-0.514-0.239l-0.514-0.206l-0.549-0.206l-0.582-0.189l-0.583-0.172
		l-0.617-0.17l-0.651-0.172l-0.65-0.17l-0.651-0.155l0.651-0.12l0.686-0.137l0.65-0.172l0.617-0.17l0.651-0.223l0.582-0.223
		l0.617-0.241l0.583-0.273l0.548-0.292l0.548-0.309l0.549-0.326l0.514-0.359l0.514-0.359l0.48-0.377l0.479-0.412l0.445-0.411
		l0.445-0.427l0.411-0.447l0.412-0.479l0.41-0.479l0.343-0.48l0.377-0.515l0.343-0.513l0.309-0.55l0.309-0.548l0.273-0.548
		l0.274-0.582l0.24-0.582l0.239-0.583l0.206-0.617l0.206-0.599l0.171-0.634l0.138-0.634l0.137-0.634l0.103-0.651l0.103-0.651
		l0.068-0.668l0.068-0.668v-0.668l0.035-0.686l-0.035-0.788v-0.788l-0.068-0.771l-0.068-0.789l-0.068-0.754l-0.103-0.771
		l-0.138-0.754l-0.137-0.737l-0.172-0.754l-0.205-0.719l-0.205-0.72l-0.24-0.702l-0.274-0.686l-0.274-0.668l-0.308-0.668
		l-0.343-0.651l-0.343-0.617l-0.411-0.617l-0.377-0.599l-0.445-0.565l-0.48-0.566l-0.479-0.53l-0.514-0.514l-0.548-0.498
		l-0.549-0.462l-0.617-0.445l-0.616-0.412l-0.651-0.395l-0.686-0.376l-0.719-0.342l-0.754-0.309l-0.754-0.275l-0.823-0.256
		l-0.822-0.223l-0.891-0.189l-0.892-0.153l-0.959-0.12l-0.959-0.103l-0.994-0.052l-1.028-0.017c-0.068,0-0.205,0-0.205,0h-0.24
		h-0.343h-0.411h-0.479h-0.549h-0.616h-0.686h-0.754h-0.788h-0.856h-0.856h-0.926h-0.959h-0.96h-0.993h-1.028h-1.028h-1.027h-1.028
		h-0.994h-1.028h-0.993h-0.96h-0.959h-0.926h-0.856h-0.856h-0.788h-0.754h-0.686h-0.616h-0.549h-0.514h-0.412h-0.308h-0.24
		c-0.171,0-0.205,0-0.205,0V378.806z"/>
</g>
<g id="LWPOLYLINE_19_">
	
		<path fill="none" stroke="#000000" stroke-width="0.7087" stroke-linecap="round" stroke-linejoin="round" stroke-miterlimit="10" d="
		M382.852,378.806c0.172,0,0.274,0,0.274,0c0.171,0,0.343,0,0.343,0h0.24h0.205h0.274h0.309h0.274h0.342h0.343h0.343h0.377h0.377
		h0.377h0.377h0.411h0.377h0.411h0.377h0.377h0.411h0.377h0.343h0.377h0.309h0.343h0.308h0.274h0.274h0.24h0.205h0.206
		c0.137,0,0.274,0,0.274,0c0.171,0,0.171-0.034,0.171-0.034c0.034-0.103,0.103-0.274,0.103-0.274l0.068-0.24l0.104-0.291
		l0.103-0.344l0.137-0.41l0.138-0.446l0.171-0.496l0.171-0.531l0.172-0.565l0.205-0.6l0.206-0.634l0.206-0.668l0.205-0.668
		l0.24-0.703l0.205-0.719l0.24-0.72l0.24-0.737l0.239-0.737l0.24-0.736l0.239-0.737l0.206-0.72l0.239-0.719l0.24-0.703l0.206-0.668
		l0.205-0.668l0.206-0.634l0.205-0.601l0.172-0.565l0.171-0.531l0.171-0.498l0.138-0.445l0.138-0.41l0.102-0.344l0.104-0.29
		l0.068-0.241c0.068-0.17,0.104-0.273,0.104-0.273c0.068-0.034,0.205-0.034,0.205-0.034h0.273h0.377h0.446h0.548h0.617h0.686h0.754
		h0.822h0.856h0.925h0.994h0.994h1.062h1.062h1.097h1.131h1.097h1.131h1.131h1.13h1.131h1.098h1.062h1.062h0.993h0.96h0.96h0.856
		h0.822h0.754h0.686h0.616h0.549h0.445h0.377h0.24c0.171,0,0.239,0,0.239,0c0.034,0.137,0.069,0.307,0.069,0.307l0.068,0.241
		l0.103,0.29l0.103,0.344l0.104,0.41l0.137,0.445l0.137,0.498l0.137,0.531l0.172,0.565l0.172,0.601l0.171,0.634l0.206,0.668
		l0.205,0.668l0.171,0.703l0.206,0.719l0.205,0.72l0.206,0.737l0.239,0.736l0.206,0.737l0.206,0.737l0.205,0.72l0.206,0.719
		l0.205,0.703l0.172,0.668l0.205,0.668l0.172,0.634l0.171,0.6l0.172,0.565l0.137,0.531l0.172,0.496l0.102,0.446l0.138,0.41
		l0.103,0.344l0.068,0.291l0.068,0.24c0.035,0.172,0.069,0.274,0.069,0.274c0.103,0.034,0.206,0.034,0.206,0.034
		c0.137,0,0.342,0,0.342,0h0.206h0.239h0.274h0.309h0.309h0.343h0.377h0.377h0.411h0.411h0.411h0.445h0.445h0.445h0.446h0.445h0.445
		h0.445h0.411h0.445h0.411h0.377h0.412h0.342h0.343h0.343h0.274h0.274h0.273h0.206h0.171c0.137,0,0.24,0,0.24,0
		c0.034-0.137-0.104-0.582-0.104-0.582l-0.205-0.72l-0.309-0.977l-0.411-1.216l-0.445-1.438l-0.548-1.663l-0.583-1.867l-0.651-2.039
		l-0.719-2.209l-0.754-2.365l-0.789-2.501l-0.822-2.623l-0.891-2.724l-0.891-2.827l-0.926-2.896l-0.959-2.963l-0.96-2.999
		l-0.96-3.033l-0.959-3.049l-0.994-3.05l-0.959-3.034l-0.959-3.014l-0.926-2.948l-0.925-2.913l-0.926-2.81l-0.856-2.741
		l-0.822-2.621l-0.822-2.501l-0.754-2.348l-0.686-2.228l-0.651-2.039l-0.616-1.851l-0.515-1.661l-0.445-1.457l-0.411-1.216
		l-0.309-0.977l-0.24-0.702l-0.137-0.447c-0.137-0.154-0.24-0.154-0.24-0.154c-0.171,0-0.376,0-0.376,0h-0.24h-0.274h-0.309h-0.308
		h-0.377h-0.377h-0.411h-0.445h-0.445h-0.446h-0.479h-0.479h-0.479h-0.515h-0.514h-0.479h-0.515h-0.479h-0.48h-0.479h-0.48h-0.445
		h-0.411h-0.411h-0.377h-0.377h-0.343h-0.309h-0.274h-0.205h-0.205c-0.172,0-0.275,0-0.275,0
		C408.107,297.405,382.852,378.806,382.852,378.806z"/>
</g>
<g id="LWPOLYLINE_20_">
	
		<path fill="none" stroke="#000000" stroke-width="0.7087" stroke-linecap="round" stroke-linejoin="round" stroke-miterlimit="10" d="
		M427.057,350.039c-0.068,0-0.205,0-0.205,0h-0.206h-0.309h-0.377h-0.445H425h-0.582h-0.617h-0.686h-0.754h-0.754h-0.822h-0.856
		h-0.856h-0.926h-0.925h-0.925h-0.926h-0.959h-0.926h-0.959h-0.926h-0.925h-0.891h-0.892h-0.822h-0.822h-0.788h-0.72h-0.686h-0.65
		h-0.583h-0.514h-0.445h-0.377h-0.309h-0.206c-0.137,0-0.171,0-0.171,0c0-0.086,0.068-0.309,0.068-0.309l0.103-0.376l0.172-0.514
		l0.171-0.634l0.24-0.771l0.239-0.874l0.309-0.977l0.309-1.062l0.343-1.165l0.377-1.25l0.377-1.32l0.411-1.37l0.411-1.44
		l0.445-1.473l0.446-1.525l0.479-1.56l0.445-1.576l0.479-1.611l0.48-1.594l0.479-1.61l0.446-1.594l0.479-1.576l0.445-1.56
		l0.48-1.524l0.41-1.491l0.446-1.422l0.411-1.388l0.377-1.302l0.377-1.25l0.342-1.166l0.309-1.079l0.274-0.977l0.274-0.874
		l0.205-0.754l0.206-0.651l0.137-0.498l0.138-0.376l0.034-0.24C414.412,307.24,427.057,350.039,427.057,350.039z"/>
</g>
<g id="LWPOLYLINE_21_">
	
		<path fill="none" stroke="#000000" stroke-width="0.7087" stroke-linecap="round" stroke-linejoin="round" stroke-miterlimit="10" d="
		M467.047,306.537c0.033,0.121,0.171,0.514,0.171,0.514l0.171,0.634l0.274,0.874l0.309,1.08l0.411,1.285l0.445,1.474l0.479,1.645
		l0.549,1.816l0.582,1.97l0.651,2.09l0.65,2.228l0.721,2.331l0.719,2.416l0.754,2.501l0.789,2.587l0.787,2.621l0.789,2.673
		l0.822,2.69l0.822,2.707l0.788,2.707l0.822,2.69l0.788,2.673l0.822,2.621l0.754,2.587l0.754,2.501l0.72,2.416l0.72,2.331
		l0.65,2.227l0.652,2.091l0.582,1.97l0.548,1.816l0.515,1.645l0.411,1.474l0.411,1.285l0.309,1.08l0.273,0.874l0.172,0.634
		l0.137,0.393c0.104,0.12,0.205,0.12,0.205,0.12c0.104,0,0.24,0,0.24,0h0.172h0.205h0.24h0.24h0.273h0.274h0.309h0.308h0.343h0.344
		h0.343h0.342h0.377h0.377h0.343h0.376h0.378h0.343h0.377h0.343h0.343h0.342h0.309h0.309h0.273h0.275h0.239h0.206h0.205
		c0.172,0,0.343,0,0.343,0c0.103,0,0.206,0,0.206,0c0.103-0.12,0.205-0.513,0.205-0.513l0.206-0.634l0.273-0.874l0.309-1.08
		l0.378-1.285l0.445-1.474l0.514-1.645l0.549-1.816l0.582-1.97l0.617-2.091l0.685-2.227l0.685-2.331l0.754-2.416l0.754-2.501
		l0.754-2.587l0.789-2.621l0.822-2.673l0.789-2.69l0.821-2.707l0.823-2.707l0.821-2.69l0.789-2.673l0.788-2.621l0.787-2.587
		l0.754-2.501l0.721-2.416l0.72-2.331l0.651-2.228l0.615-2.09l0.617-1.97l0.549-1.816l0.48-1.645l0.445-1.474l0.376-1.285
		l0.343-1.08l0.24-0.874l0.205-0.634l0.103-0.393c0.069,0,0.069,0.393,0.069,0.393v0.634v0.874v1.08v1.285v1.474v1.645v1.816v1.97
		v2.09v2.228v2.331v2.416v2.501v2.587v2.621v2.673v2.69v2.707v2.707v2.69v2.673v2.621v2.587v2.501v2.416v2.331v2.227v2.091v1.97
		v1.816v1.645v1.474v1.285v1.08v0.874v0.634v0.393c0.137,0.12,0.274,0.12,0.274,0.12c0.137,0,0.308,0,0.308,0h0.205h0.206h0.274
		h0.24h0.309h0.309h0.309h0.307h0.344h0.377h0.342h0.378h0.343h0.376h0.378h0.342h0.378h0.343h0.376h0.343h0.309h0.309h0.309h0.309
		h0.239h0.274h0.205h0.205c0.172,0,0.309,0,0.309,0c0.137,0,0.206,0,0.206,0c0.069-0.137,0.069-0.582,0.069-0.582v-0.72v-0.977
		v-1.216v-1.438v-1.663v-1.867v-2.039v-2.209v-2.365v-2.501v-2.623v-2.724v-2.827v-2.896v-2.963v-2.999v-3.033v-3.049v-3.05v-3.034
		v-3.014v-2.948v-2.913v-2.81v-2.741v-2.621v-2.501v-2.348v-2.228v-2.039v-1.851v-1.661V300.9v-1.216v-0.977v-0.702v-0.447
		c-0.104-0.154-0.24-0.154-0.24-0.154h-0.205h-0.275h-0.273h-0.377h-0.377h-0.411h-0.445h-0.515h-0.514h-0.549h-0.548h-0.582h-0.617
		h-0.617h-0.617h-0.616h-0.617h-0.65h-0.617h-0.616h-0.617h-0.617h-0.582h-0.548h-0.549h-0.514h-0.48h-0.479h-0.411h-0.377h-0.342
		h-0.309h-0.241h-0.204c-0.172,0-0.241,0-0.241,0c-0.067,0.12-0.171,0.498-0.171,0.498l-0.172,0.599l-0.239,0.806l-0.309,1.027
		l-0.343,1.199l-0.411,1.405l-0.445,1.542l-0.479,1.713l-0.549,1.851l-0.549,1.971l-0.615,2.09l-0.617,2.193l-0.686,2.297
		l-0.686,2.346l-0.686,2.434l-0.72,2.467l-0.719,2.519l-0.72,2.535l-0.754,2.553l-0.721,2.553l-0.754,2.535l-0.719,2.501
		l-0.72,2.484l-0.685,2.417l-0.687,2.365l-0.651,2.279l-0.65,2.192l-0.582,2.09l-0.582,1.972l-0.55,1.85l-0.479,1.712l-0.445,1.56
		l-0.411,1.388l-0.343,1.216l-0.309,1.01l-0.205,0.823l-0.171,0.582l-0.138,0.378c-0.068,0-0.171-0.378-0.171-0.378l-0.172-0.582
		l-0.239-0.823l-0.275-1.01l-0.342-1.216l-0.412-1.388l-0.445-1.56l-0.514-1.712l-0.514-1.85l-0.582-1.972l-0.583-2.09l-0.651-2.192
		l-0.65-2.279l-0.686-2.365l-0.686-2.417l-0.72-2.484l-0.72-2.501l-0.754-2.535l-0.719-2.553l-0.754-2.553l-0.721-2.535
		l-0.719-2.519l-0.72-2.467l-0.72-2.434l-0.651-2.346l-0.685-2.297l-0.617-2.193l-0.617-2.09l-0.548-1.971l-0.549-1.851
		l-0.479-1.713l-0.445-1.542l-0.411-1.405l-0.343-1.199l-0.309-1.027l-0.24-0.806l-0.171-0.599l-0.103-0.377
		c-0.137-0.12-0.309-0.12-0.309-0.12h-0.172h-0.239h-0.309h-0.309h-0.377h-0.411h-0.445h-0.445h-0.514h-0.515h-0.548h-0.549h-0.582
		H467.8h-0.582h-0.617h-0.616h-0.583h-0.616h-0.583h-0.583h-0.582h-0.549h-0.548h-0.514h-0.515h-0.445h-0.445h-0.411h-0.377h-0.309
		h-0.309h-0.239h-0.206c-0.137,0-0.206,0-0.206,0c-0.033,0.154-0.033,0.601-0.033,0.601v0.702v0.977v1.216v1.457v1.661v1.851v2.039
		v2.228v2.348v2.501v2.621v2.741v2.81v2.913v2.948v3.014v3.034v3.05v3.049v3.033v2.999v2.963v2.896v2.827v2.724v2.623v2.501v2.365
		v2.209v2.039v1.867v1.663v1.438v1.216v0.977v0.72v0.445c0.137,0.137,0.239,0.137,0.239,0.137c0.138,0,0.309,0,0.309,0h0.206h0.205
		h0.205h0.274h0.24h0.274h0.309h0.308h0.309h0.343h0.309h0.342h0.344h0.342h0.344h0.342h0.343h0.309h0.343h0.309h0.309h0.308h0.274
		h0.274h0.239h0.206h0.239h0.172c0.172,0,0.309,0,0.309,0c0.103,0,0.171,0,0.171,0C467.047,378.806,467.047,306.537,467.047,306.537
		z"/>
</g>
</svg>
