<?xml version="1.0" encoding="utf-8"?>
<!-- Generator: Adobe Illustrator 16.0.1, SVG Export Plug-In . SVG Version: 6.00 Build 0)  -->
<!DOCTYPE svg PUBLIC "-//W3C//DTD SVG 1.0//EN" "http://www.w3.org/TR/2001/REC-SVG-20010904/DTD/svg10.dtd">
<svg version="1.0" id="_x31_" xmlns="http://www.w3.org/2000/svg" xmlns:xlink="http://www.w3.org/1999/xlink" x="0px" y="0px"
	 width="612px" height="792px" viewBox="0 0 612 792" enable-background="new 0 0 612 792" xml:space="preserve">
<g id="LWPOLYLINE">
	
		<path fill="none" stroke="#000000" stroke-width="0.7087" stroke-linecap="round" stroke-linejoin="round" stroke-miterlimit="10" d="
		M62.89,470.5l2.229-0.062l2.165-0.062l2.106-0.182l2.043-0.182l2.015-0.308l1.922-0.366l1.893-0.366l1.831-0.486l1.77-0.551
		l1.708-0.609l1.679-0.671l1.586-0.732l1.556-0.855l1.496-0.853l1.434-0.979l1.373-1.037l1.312-1.099l1.281-1.157l1.189-1.283
		l1.16-1.28l1.099-1.403l1.037-1.465l1.007-1.588l0.915-1.585l0.855-1.711l0.823-1.77l0.764-1.89l0.701-1.954l0.641-2.013
		l0.61-2.077l0.519-2.197l0.488-2.256l0.428-2.382l0.366-2.44l0.305-2.502l0.244-2.625l0.214-2.684l0.122-2.777l0.091-2.868
		l0.03-2.959c0-0.062,0-0.337,0-0.337v-0.425v-0.551v-0.7v-0.855v-0.976v-1.099v-1.16v-1.312v-1.374v-1.462v-1.526v-1.588v-1.646
		v-1.708v-1.711v-1.77v-1.77v-1.77v-1.77v-1.77v-1.77v-1.708v-1.711v-1.646v-1.588v-1.523v-1.465v-1.374v-1.28v-1.192v-1.096v-0.979
		v-0.823v-0.7v-0.58v-0.428c0-0.246,0-0.337,0-0.337l-0.03-2.136l-0.091-2.104l-0.122-2.045l-0.214-1.983l-0.244-1.983l-0.305-1.893
		l-0.366-1.893l-0.428-1.799l-0.488-1.802l-0.519-1.708l-0.61-1.679l-0.641-1.646l-0.701-1.588l-0.764-1.523l-0.823-1.497
		l-0.855-1.403l-0.915-1.403l-1.007-1.312l-1.037-1.28l-1.099-1.222l-1.16-1.16l-1.189-1.128l-1.281-1.066l-1.312-0.979
		l-1.373-0.946l-1.434-0.914l-1.496-0.823l-1.556-0.765l-1.586-0.732l-1.679-0.639l-1.708-0.612l-1.77-0.519l-1.831-0.486
		l-1.893-0.428l-1.922-0.337l-2.015-0.305l-2.043-0.214l-2.106-0.152l-2.165-0.12L62.89,320.5l-2.228,0.032l-2.136,0.12
		l-2.136,0.152l-2.044,0.214l-1.983,0.305l-1.952,0.337l-1.893,0.428l-1.831,0.486l-1.77,0.519l-1.708,0.612l-1.648,0.639
		l-1.617,0.732l-1.526,0.765l-1.494,0.823l-1.434,0.914l-1.374,0.946l-1.342,0.979l-1.251,1.066l-1.221,1.128l-1.16,1.16
		l-1.099,1.222l-1.037,1.28l-0.977,1.312l-0.914,1.403l-0.887,1.403l-0.823,1.497l-0.763,1.523l-0.702,1.588l-0.64,1.646
		l-0.58,1.679l-0.55,1.708l-0.457,1.802l-0.428,1.799l-0.366,1.893l-0.305,1.893l-0.275,1.983l-0.183,1.983l-0.152,2.045
		l-0.062,2.104l-0.029,2.136c0,0.091,0,0.337,0,0.337v0.428v0.58v0.7v0.823v0.979v1.096v1.192v1.28v1.374v1.465v1.523v1.588v1.646
		v1.711v1.708v1.77v1.77v1.77v1.77v1.77v1.77v1.711v1.708v1.646v1.588v1.526v1.462v1.374v1.312v1.16v1.099v0.976v0.855v0.7v0.551
		v0.425c0,0.275,0,0.337,0,0.337l0.029,2.959l0.062,2.868l0.152,2.777l0.183,2.684l0.275,2.625l0.305,2.502l0.366,2.44l0.428,2.382
		l0.457,2.256l0.55,2.197l0.58,2.077l0.64,2.013l0.702,1.954l0.763,1.89l0.823,1.77l0.887,1.711l0.914,1.585l0.977,1.588
		l1.037,1.465l1.099,1.403l1.16,1.28l1.221,1.283l1.251,1.157l1.342,1.099l1.374,1.037l1.434,0.979l1.494,0.853l1.526,0.855
		l1.617,0.732l1.648,0.671l1.708,0.609l1.77,0.551l1.831,0.486l1.893,0.366l1.952,0.366l1.983,0.308l2.044,0.182l2.136,0.182
		l2.136,0.062L62.89,470.5z"/>
</g>
<g id="LWPOLYLINE_1_">
	
		<path fill="none" stroke="#000000" stroke-width="0.7087" stroke-linecap="round" stroke-linejoin="round" stroke-miterlimit="10" d="
		M62.89,455.488h-1.281l-1.282-0.062l-1.22-0.062l-1.189-0.182l-1.16-0.123l-1.13-0.182l-1.097-0.246l-1.068-0.305l-1.038-0.305
		l-1.007-0.366l-0.977-0.428l-0.916-0.486l-0.914-0.489l-0.855-0.548l-0.854-0.612l-0.793-0.671l-0.763-0.732l-0.764-0.794
		l-0.701-0.791l-0.671-0.917l-0.642-0.914l-0.609-1.037l-0.58-1.04l-0.519-1.096l-0.519-1.222l-0.489-1.283l-0.427-1.28
		l-0.396-1.403l-0.397-1.465l-0.335-1.526l-0.305-1.585l-0.275-1.711l-0.274-1.708l-0.214-1.831l-0.152-1.89l-0.152-1.983
		l-0.123-2.045l-0.091-2.136l-0.03-2.229l-0.031-2.317c0-0.091,0-0.337,0-0.337v-0.425v-0.58v-0.732v-0.885v-0.979v-1.128v-1.222
		v-1.31v-1.436v-1.494v-1.556v-1.649v-1.679v-1.737v-1.77v-1.802v-1.831v-1.799v-1.831v-1.831v-1.799v-1.772v-1.737v-1.679v-1.646
		v-1.559v-1.494v-1.403v-1.342v-1.222v-1.099v-1.005v-0.855v-0.732v-0.58v-0.428c0-0.275,0-0.366,0-0.366l0.031-2.197l0.121-2.104
		l0.184-1.983l0.244-1.893l0.305-1.77l0.366-1.708l0.397-1.588l0.487-1.526l0.519-1.433l0.58-1.342l0.611-1.251l0.64-1.192
		l0.702-1.096l0.732-1.04l0.732-0.943l0.794-0.888l0.792-0.823l0.825-0.762l0.854-0.703l0.854-0.639l0.885-0.58l0.885-0.519
		l0.885-0.489l0.885-0.428l0.886-0.366l0.885-0.334l0.885-0.305l0.854-0.275l0.854-0.214l0.825-0.185l0.823-0.182l0.794-0.123
		l0.762-0.12l0.732-0.062l0.732-0.062l0.642-0.062l0.64-0.029l0.58-0.032h0.55h0.487h0.488h0.549l0.58,0.032l0.641,0.029
		l0.672,0.062l0.702,0.062l0.732,0.062l0.762,0.12l0.794,0.123l0.823,0.182l0.824,0.185l0.854,0.214l0.885,0.275l0.854,0.305
		l0.885,0.334l0.885,0.366l0.916,0.428l0.885,0.489l0.886,0.519l0.854,0.58l0.854,0.639l0.854,0.703l0.824,0.762l0.823,0.823
		l0.764,0.888l0.763,0.943l0.731,1.04l0.672,1.096l0.671,1.192l0.611,1.251l0.549,1.342l0.548,1.433l0.459,1.526l0.428,1.588
		l0.364,1.708l0.307,1.77l0.243,1.893l0.183,1.983l0.093,2.104l0.03,2.197c0,0.091,0,0.366,0,0.366v0.428v0.58v0.732v0.855v1.005
		v1.099v1.222v1.342v1.403v1.494v1.559v1.646v1.679v1.737v1.772v1.799v1.831v1.831v1.799v1.831v1.802v1.77v1.737v1.679v1.649v1.556
		v1.494v1.436v1.31v1.222v1.128v0.979v0.885v0.732v0.58v0.425c0,0.246,0,0.337,0,0.337v2.317l-0.062,2.229l-0.062,2.136
		l-0.121,2.045l-0.152,1.983l-0.184,1.89l-0.214,1.831l-0.243,1.708l-0.275,1.711l-0.305,1.585l-0.366,1.526l-0.366,1.465
		l-0.396,1.403l-0.457,1.28l-0.489,1.283l-0.488,1.222l-0.549,1.096l-0.58,1.04l-0.609,1.037l-0.642,0.914l-0.671,0.917
		l-0.702,0.791l-0.732,0.794l-0.763,0.732l-0.823,0.671l-0.825,0.612l-0.854,0.548l-0.916,0.489l-0.944,0.486l-0.946,0.428
		l-1.008,0.366l-1.037,0.305l-1.068,0.305l-1.099,0.246l-1.128,0.182l-1.16,0.123l-1.189,0.182l-1.251,0.062l-1.251,0.062H62.89z"/>
</g>
<g id="LWPOLYLINE_2_">
	
		<path fill="none" stroke="#000000" stroke-width="0.7087" stroke-linecap="round" stroke-linejoin="round" stroke-miterlimit="10" d="
		M156.625,467.998c0-0.123,0-0.489,0-0.489v-0.609v-0.794v-0.976v-1.16v-1.342v-1.526v-1.646v-1.831v-1.893v-2.074v-2.136v-2.197
		v-2.317v-2.32v-2.44v-2.44v-2.443v-2.502v-2.502v-2.44v-2.44v-2.411v-2.35v-2.317v-2.197v-2.136v-2.045V412.1v-1.802v-1.646v-1.526
		v-1.342v-1.189v-0.976v-0.794v-0.612v-0.334c0.091-0.123,0.366-0.123,0.366-0.123h0.457h0.58h0.762h0.887h1.006h1.159h1.252h1.342
		h1.465h1.525h1.617h1.679h1.738h1.77h1.831h1.831h1.862h1.86h1.893h1.86h1.831h1.831h1.77h1.738h1.679h1.617h1.526h1.464h1.343
		h1.251h1.159h1.008h0.885h0.763h0.579h0.458c0.274,0,0.366,0,0.366,0c0-0.275,0-0.457,0-0.457c0-0.243,0-0.548,0-0.548v-0.308
		v-0.396v-0.396v-0.428v-0.489v-0.486v-0.521v-0.548v-0.58v-0.58v-0.58v-0.609v-0.609v-0.58v-0.609v-0.612v-0.609v-0.58v-0.58v-0.58
		v-0.548v-0.519v-0.489v-0.457v-0.457V387.2v-0.366V386.5c0-0.305,0-0.551,0-0.551c0-0.182,0-0.334,0-0.334
		c-0.092-0.123-0.366-0.123-0.366-0.123h-0.458h-0.579h-0.763h-0.885h-1.008h-1.159h-1.251h-1.343h-1.464h-1.526h-1.617h-1.679
		h-1.738h-1.77h-1.831h-1.831h-1.86h-1.893h-1.86h-1.862h-1.831h-1.831h-1.77h-1.738h-1.679h-1.617H165.9h-1.465h-1.342h-1.252
		h-1.159h-1.006h-0.887h-0.762h-0.58h-0.457c-0.275,0-0.366,0-0.366,0c0-0.062,0-0.337,0-0.337v-0.396v-0.548v-0.703v-0.823v-0.946
		v-1.037v-1.16v-1.251v-1.342v-1.436v-1.494v-1.556v-1.588v-1.646v-1.679v-1.708v-1.74v-1.708v-1.74v-1.737v-1.711v-1.676v-1.649
		v-1.585v-1.559v-1.494v-1.403v-1.342v-1.283v-1.157v-1.04v-0.943v-0.826v-0.7v-0.551v-0.396c0-0.243,0-0.337,0-0.337
		c0.091,0,0.396,0,0.396,0h0.459h0.609h0.794h0.946h1.067h1.189h1.312h1.435h1.524h1.617h1.679h1.77h1.831h1.862h1.891h1.953h1.952
		h1.953h1.983h1.952h1.953h1.893h1.861h1.83h1.771h1.678h1.617h1.526h1.434h1.312h1.19h1.068h0.944h0.764h0.642h0.457
		c0.275,0,0.396,0,0.396,0c0-0.272,0-0.457,0-0.457c0-0.243,0-0.548,0-0.548v-0.305v-0.398v-0.396v-0.428v-0.489v-0.486v-0.519
		v-0.551v-0.58v-0.58v-0.58v-0.609v-0.609v-0.58v-0.609v-0.612v-0.609v-0.58v-0.58v-0.58v-0.548v-0.519v-0.489v-0.457v-0.457v-0.398
		v-0.366v-0.334c0-0.305,0-0.551,0-0.551c0-0.182,0-0.334,0-0.334c-0.152-0.123-0.519-0.123-0.519-0.123h-0.61h-0.854h-1.037h-1.251
		h-1.434h-1.587h-1.74h-1.922h-2.014h-2.167h-2.257h-2.35h-2.411h-2.502h-2.533h-2.593h-2.594h-2.624h-2.623h-2.625h-2.563h-2.562
		h-2.471h-2.442h-2.35h-2.257h-2.136h-2.045h-1.892h-1.77h-1.588h-1.434h-1.251h-1.037h-0.823h-0.642h-0.366
		c-0.122,0.275-0.122,1.069-0.122,1.069v1.251v1.737v2.168v2.593v2.959v3.296v3.662v3.938v4.21v4.453v4.67v4.852v5.033v5.156v5.279
		v5.341v5.399v5.432v5.432v5.399v5.341v5.279v5.156v5.004v4.881v4.699v4.456v4.21v3.905v3.662v3.296v2.991v2.561v2.139v1.77v1.28
		v0.732C139.141,467.998,156.625,467.998,156.625,467.998z"/>
</g>
<g id="LWPOLYLINE_3_">
	
		<path fill="none" stroke="#000000" stroke-width="0.7087" stroke-linecap="round" stroke-linejoin="round" stroke-miterlimit="10" d="
		M244.104,467.998c0-0.123,0-0.489,0-0.489v-0.609v-0.794v-0.976v-1.16v-1.342v-1.526v-1.646v-1.831v-1.893v-2.074v-2.136v-2.197
		v-2.317v-2.32v-2.44v-2.44v-2.443v-2.502v-2.502v-2.44v-2.44v-2.411v-2.35v-2.317v-2.197v-2.136v-2.045V412.1v-1.802v-1.646v-1.526
		v-1.342v-1.189v-0.976v-0.794v-0.612v-0.334c0.121-0.123,0.366-0.123,0.366-0.123h0.457h0.58h0.763h0.885h1.007h1.16h1.251h1.342
		h1.465h1.526h1.617h1.677h1.74h1.77h1.831h1.83h1.861h1.893h1.86h1.862h1.86h1.8h1.771h1.738h1.678h1.617h1.526h1.465h1.342h1.251
		h1.16h1.006h0.885h0.764h0.61h0.427c0.275,0,0.366,0,0.366,0c0-0.275,0-0.457,0-0.457c0-0.243,0-0.548,0-0.548v-0.308v-0.396
		v-0.396v-0.428v-0.489v-0.486v-0.521v-0.548v-0.58v-0.58v-0.58v-0.609v-0.609v-0.58v-0.609v-0.612v-0.609v-0.58v-0.58v-0.58v-0.548
		v-0.519v-0.489v-0.457v-0.457V387.2v-0.366V386.5c0-0.305,0-0.551,0-0.551c0-0.182,0-0.334,0-0.334
		c-0.091-0.123-0.366-0.123-0.366-0.123h-0.427h-0.61h-0.764h-0.885h-1.006h-1.16h-1.251h-1.342h-1.465h-1.526h-1.617h-1.678h-1.738
		h-1.771h-1.8h-1.86h-1.862h-1.86h-1.893h-1.861h-1.83h-1.831h-1.77h-1.74h-1.677h-1.617h-1.526h-1.465h-1.342h-1.251h-1.16h-1.007
		h-0.885h-0.763h-0.58h-0.457c-0.245,0-0.366,0-0.366,0c0-0.062,0-0.337,0-0.337v-0.396v-0.548v-0.703v-0.823v-0.946v-1.037v-1.16
		v-1.251v-1.342v-1.436v-1.494v-1.556v-1.588v-1.646v-1.679v-1.708v-1.74v-1.708v-1.74v-1.737v-1.711v-1.676v-1.649v-1.585v-1.559
		v-1.494v-1.403v-1.342v-1.283v-1.157v-1.04v-0.943v-0.826v-0.7v-0.551v-0.396c0-0.243,0-0.337,0-0.337c0.121,0,0.396,0,0.396,0
		h0.457h0.642h0.762h0.946h1.068h1.19h1.342h1.403h1.526h1.617h1.708h1.74h1.83h1.861h1.922h1.924h1.952h1.983h1.953h1.952h1.953
		h1.891h1.862h1.831h1.77h1.679h1.617h1.524h1.435h1.312h1.189h1.067h0.946h0.794h0.609h0.459c0.305,0,0.396,0,0.396,0
		c0-0.272,0-0.457,0-0.457c0-0.243,0-0.548,0-0.548v-0.305v-0.398v-0.396v-0.428v-0.489v-0.486v-0.519v-0.551v-0.58v-0.58v-0.58
		v-0.609v-0.609v-0.58v-0.609v-0.612v-0.609v-0.58v-0.58v-0.58v-0.548v-0.519v-0.489v-0.457v-0.457v-0.398v-0.366v-0.334
		c0-0.305,0-0.551,0-0.551c0-0.182,0-0.334,0-0.334c-0.122-0.123-0.519-0.123-0.519-0.123h-0.609h-0.825h-1.067h-1.251h-1.403
		h-1.617h-1.739h-1.923h-2.013h-2.167h-2.259h-2.318h-2.44h-2.502h-2.533h-2.594h-2.593h-2.625h-2.624h-2.623h-2.563h-2.563h-2.472
		h-2.44h-2.35h-2.259h-2.136h-2.043h-1.893h-1.739h-1.617h-1.434h-1.221h-1.067h-0.825h-0.609h-0.396
		c-0.123,0.275-0.123,1.069-0.123,1.069v1.251v1.737v2.168v2.593v2.959v3.296v3.662v3.938v4.21v4.453v4.67v4.852v5.033v5.156v5.279
		v5.341v5.399v5.432v5.432v5.399v5.341v5.279v5.156v5.004v4.881v4.699v4.456v4.21v3.905v3.662v3.296v2.991v2.561v2.139v1.77v1.28
		v0.732C226.62,467.998,244.104,467.998,244.104,467.998z"/>
</g>
<g id="LWPOLYLINE_4_">
	
		<path fill="none" stroke="#000000" stroke-width="0.7087" stroke-linecap="round" stroke-linejoin="round" stroke-miterlimit="10" d="
		M309.097,424.243l-0.062,1.069l-0.122,1.128l-0.062,1.222l-0.062,1.219v1.283v1.342v1.403l0.062,1.403l0.062,1.465l0.122,1.465
		l0.183,1.526l0.245,1.523l0.243,1.526l0.306,1.526l0.366,1.585l0.488,1.526l0.487,1.526l0.611,1.526l0.609,1.523l0.732,1.465
		l0.855,1.465l0.854,1.465l1.037,1.403l1.037,1.345l1.221,1.28l1.281,1.28l1.403,1.222l1.465,1.16l1.587,1.037l1.771,1.037
		l1.83,0.976l1.954,0.855l2.136,0.732l2.195,0.732l2.381,0.548l2.502,0.551l2.685,0.366l2.809,0.305l2.928,0.182l3.113,0.062
		l1.708-0.062h1.647l1.71-0.12l1.646-0.123l1.647-0.182l1.587-0.246l1.647-0.243l1.587-0.305l1.588-0.366l1.586-0.366l1.525-0.489
		l1.465-0.489l1.526-0.548l1.463-0.548l1.405-0.674l1.403-0.671l1.342-0.791l1.281-0.794l1.282-0.855l1.281-0.914l1.159-0.917
		l1.16-1.037l1.099-1.099l1.099-1.16l0.976-1.157l0.977-1.283l0.916-1.342l0.854-1.342l0.793-1.465l0.732-1.526l0.672-1.588
		l0.609-1.646l0.55-1.708l0.428-1.77l0.426-1.831l0.366-1.954l0.245-1.951l0.183-2.077l0.122-2.136l0.062-2.256l-0.122-3.357
		l-0.366-3.173l-0.549-3.021l-0.732-2.839l-0.978-2.684l-1.158-2.563l-1.282-2.382l-1.465-2.256l-1.586-2.136l-1.71-2.016
		l-1.891-1.922l-1.953-1.799l-2.014-1.711l-2.136-1.646l-2.258-1.556l-2.259-1.494l-2.318-1.436l-2.319-1.374l-2.38-1.342
		l-2.379-1.28l-2.442-1.283l-2.318-1.28l-2.381-1.251l-2.318-1.251l-2.258-1.251l-2.197-1.251l-2.136-1.312l-2.074-1.342
		l-1.954-1.345l-1.829-1.433l-1.77-1.465l-1.588-1.556l-1.464-1.617l-1.281-1.708l-1.16-1.77l-0.916-1.893l-0.792-2.016l-0.55-2.104
		l-0.366-2.227l-0.123-2.382l0.062-1.099l0.062-1.066l0.061-1.069l0.183-1.008l0.184-0.976l0.183-0.946l0.245-0.914l0.305-0.885
		l0.306-0.855l0.366-0.823l0.366-0.794l0.427-0.762l0.428-0.732l0.487-0.703l0.488-0.671l0.549-0.642l0.55-0.609l0.61-0.609
		l0.55-0.551l0.671-0.519l0.61-0.519l0.671-0.457l0.671-0.457l0.732-0.428l0.671-0.366l0.732-0.366l0.794-0.334l0.732-0.337
		l0.793-0.275l0.794-0.243l0.792-0.243l0.794-0.214l0.794-0.185l0.854-0.152l0.792-0.123l0.855-0.12l0.854-0.091l0.792-0.062
		l0.855-0.032h0.854l1.22,0.032l1.16,0.062l1.099,0.091l1.037,0.152l1.037,0.182l1.037,0.214l0.916,0.246l0.915,0.305l0.916,0.334
		l0.854,0.366l0.794,0.398l0.793,0.457l0.732,0.457l0.671,0.519l0.672,0.519l0.671,0.58l0.55,0.609l0.61,0.612l0.548,0.671
		l0.489,0.7l0.488,0.703l0.428,0.762l0.426,0.765l0.366,0.791l0.366,0.826l0.366,0.853l0.305,0.855l0.245,0.914l0.244,0.917
		l0.243,0.914l0.245,0.979l0.183,0.976l0.122,1.008l0.123,1.005l0.121,1.037l0.122,1.069l0.062,1.066l0.062,1.069v1.099v1.128
		c0.305,0,0.549,0,0.549,0c0.243,0,0.609,0,0.609,0h0.366h0.428h0.488h0.487h0.55h0.549h0.611h0.671h0.61h0.671h0.671h0.732h0.671
		h0.732h0.671h0.732h0.673h0.671h0.671h0.671h0.61h0.611h0.549h0.548h0.55h0.428h0.428h0.426h0.307c0.305,0,0.487,0,0.487,0
		c0.305,0,0.366-2.136,0.366-2.136v-2.045v-2.013l-0.123-1.954l-0.182-1.86l-0.244-1.831l-0.305-1.77l-0.307-1.708l-0.426-1.649
		l-0.489-1.617l-0.488-1.523l-0.549-1.465l-0.671-1.436l-0.671-1.371l-0.732-1.312l-0.732-1.251l-0.854-1.189l-0.855-1.131
		l-0.976-1.099l-0.977-1.037l-1.037-0.976l-1.037-0.946l-1.16-0.855l-1.159-0.823l-1.222-0.762l-1.28-0.732l-1.343-0.671
		l-1.342-0.612l-1.405-0.548l-1.463-0.519l-1.465-0.457l-1.526-0.398l-1.587-0.366l-1.647-0.334l-1.648-0.246l-1.708-0.211
		l-1.708-0.185l-1.771-0.091l-1.83-0.091l-1.893-0.032l-1.77,0.032l-1.708,0.091l-1.771,0.091l-1.708,0.185l-1.648,0.211
		l-1.647,0.246l-1.648,0.305l-1.586,0.366l-1.587,0.396l-1.524,0.46l-1.526,0.486l-1.525,0.551l-1.404,0.609l-1.403,0.642
		l-1.403,0.671l-1.342,0.762l-1.282,0.794l-1.281,0.823l-1.16,0.885l-1.221,0.946l-1.099,0.976l-1.099,1.037l-1.037,1.069
		l-0.976,1.16l-0.915,1.157l-0.916,1.254l-0.794,1.28l-0.792,1.342l-0.732,1.374l-0.673,1.433l-0.609,1.497l-0.549,1.523
		l-0.488,1.588l-0.428,1.617l-0.366,1.708l-0.305,1.74l-0.244,1.77l-0.184,1.831l-0.06,1.893l-0.062,1.951l0.121,3.205l0.366,3.021
		l0.55,2.868l0.732,2.684l0.977,2.563l1.159,2.411l1.281,2.288l1.465,2.168l1.587,2.042l1.708,1.954l1.893,1.831l1.952,1.737
		l2.015,1.679l2.136,1.556l2.257,1.526l2.259,1.436l2.319,1.403l2.318,1.342l2.381,1.312l2.379,1.28l2.441,1.251l2.319,1.251
		l2.38,1.222l2.319,1.251l2.257,1.222l2.197,1.251l2.136,1.28l2.074,1.312l1.953,1.342l1.831,1.403l1.77,1.436l1.586,1.494
		l1.465,1.588l1.282,1.646l1.16,1.74l0.915,1.831l0.793,1.951l0.549,2.045l0.366,2.136l0.122,2.259l-0.061,1.342l-0.062,1.222
		l-0.062,1.219l-0.183,1.16l-0.184,1.099l-0.182,1.099l-0.306,1.037l-0.243,1.037l-0.366,0.976l-0.366,0.917l-0.366,0.914
		l-0.428,0.855l-0.488,0.794l-0.487,0.791l-0.55,0.794l-0.549,0.671l-0.55,0.671l-0.61,0.674l-0.671,0.609l-0.671,0.609
		l-0.673,0.489l-0.732,0.548l-0.732,0.489l-0.73,0.428l-0.794,0.428l-0.854,0.366l-0.794,0.366l-0.854,0.363l-0.854,0.308
		l-0.915,0.243l-0.916,0.243l-0.915,0.246l-0.916,0.182l-0.976,0.123l-0.977,0.182l-0.978,0.062l-0.976,0.123l-1.037,0.062h-0.977
		l-1.037,0.059l-0.854-0.059h-0.855l-0.854-0.062l-0.854-0.123l-0.854-0.062l-0.855-0.182l-0.793-0.185l-0.854-0.182l-0.855-0.185
		l-0.854-0.305l-0.792-0.243l-0.794-0.305l-0.794-0.366l-0.793-0.366l-0.794-0.428l-0.792-0.428l-0.732-0.489l-0.732-0.548
		l-0.671-0.548l-0.732-0.612l-0.673-0.609l-0.609-0.671l-0.61-0.671l-0.609-0.794l-0.611-0.732l-0.487-0.855l-0.55-0.853
		l-0.487-0.917l-0.428-0.976l-0.428-0.976l-0.427-1.037l-0.306-1.099l-0.305-1.16l-0.305-1.16l-0.245-1.222l-0.183-1.28
		l-0.184-1.342l-0.121-1.342l-0.062-1.406v-1.523c0-0.246,0-0.366,0-0.366c0-0.305,0-0.428,0-0.428c0-0.243,0-0.366,0-0.366
		c0-0.275,0-0.396,0-0.396c0-0.275,0-0.428,0-0.428c0-0.275,0-0.428,0-0.428c0-0.243,0-0.366,0-0.366c0-0.243,0-0.366,0-0.366
		c0-0.275,0-0.337,0-0.337C326.61,424.243,309.097,424.243,309.097,424.243z"/>
</g>
<g id="LWPOLYLINE_5_">
	
		<path fill="none" stroke="#000000" stroke-width="0.7087" stroke-linecap="round" stroke-linejoin="round" stroke-miterlimit="10" d="
		M495.346,467.998c0-0.243,0-0.489,0-0.489c0-0.243,0-0.486,0-0.486v-0.366v-0.366v-0.428v-0.428v-0.486v-0.489v-0.489v-0.548
		v-0.551v-0.609v-0.609v-0.551v-0.609v-0.609v-0.612v-0.609v-0.609v-0.609v-0.551v-0.548v-0.551v-0.548v-0.489v-0.489v-0.425v-0.428
		v-0.366v-0.305c0-0.308,0-0.551,0-0.551c0-0.182,0-0.305,0-0.305c-0.123-0.123-0.428-0.123-0.428-0.123h-0.488h-0.671h-0.855
		h-0.976h-1.16h-1.281h-1.403h-1.525h-1.647h-1.71h-1.829h-1.893h-1.953h-2.014h-2.013h-2.076h-2.136h-2.074h-2.137h-2.074h-2.074
		h-2.015h-2.014h-1.953h-1.893h-1.829h-1.71h-1.647h-1.525h-1.403h-1.281h-1.16h-0.976h-0.855h-0.671h-0.488
		c-0.305,0-0.428,0-0.428,0c0-0.12,0-0.366,0-0.366v-0.486v-0.551v-0.794v-0.853v-1.037v-1.16v-1.222v-1.342v-1.465v-1.526v-1.646
		v-1.646v-1.77v-1.77V432.3v-1.831v-1.831v-1.893v-1.86v-1.863v-1.86v-1.799v-1.802v-1.737v-1.649v-1.617v-1.556v-1.436v-1.371
		v-1.251v-1.131v-1.037v-0.885v-0.732v-0.609v-0.428c0-0.275,0-0.366,0-0.366c0.123,0,0.366,0,0.366,0h0.489h0.609h0.732h0.916
		h1.037h1.16h1.342h1.343h1.525h1.526h1.708h1.709h1.77h1.831h1.83h1.893h1.952h1.892h1.893h1.952h1.893h1.83h1.831h1.77h1.709
		h1.648h1.586h1.525h1.343h1.282h1.22h1.037h0.916h0.732h0.609h0.489c0.243,0,0.366,0,0.366,0c0-0.275,0-0.457,0-0.457
		c0-0.243,0-0.548,0-0.548v-0.308v-0.396v-0.396v-0.428v-0.489v-0.486v-0.521v-0.548v-0.58v-0.58v-0.58v-0.609v-0.609v-0.58v-0.609
		v-0.612v-0.609v-0.58v-0.58v-0.58v-0.548v-0.519v-0.489v-0.457v-0.457V387.2v-0.366V386.5c0-0.305,0-0.551,0-0.551
		c0-0.182,0-0.334,0-0.334c-0.123-0.123-0.366-0.123-0.366-0.123h-0.489h-0.609h-0.732h-0.916h-1.037h-1.22h-1.282h-1.343h-1.525
		h-1.586h-1.648h-1.709h-1.77h-1.831h-1.83h-1.893h-1.952h-1.893h-1.892h-1.952h-1.893h-1.83h-1.831h-1.77h-1.709h-1.708H448.6
		h-1.525h-1.343h-1.342h-1.16h-1.037h-0.916h-0.732h-0.609h-0.489c-0.243,0-0.366,0-0.366,0c0-0.062,0-0.337,0-0.337v-0.396v-0.548
		v-0.703v-0.823v-0.946v-1.037v-1.16v-1.251v-1.342v-1.436v-1.494v-1.556v-1.588v-1.646v-1.679v-1.708v-1.74v-1.708v-1.74v-1.737
		v-1.711v-1.676v-1.649v-1.585v-1.559v-1.494v-1.403v-1.342v-1.283v-1.157v-1.04v-0.943v-0.826v-0.7v-0.551v-0.396
		c0-0.243,0-0.337,0-0.337c0.123,0,0.428,0,0.428,0h0.488h0.61h0.854h0.977h1.099h1.28h1.344h1.524h1.588h1.708h1.77h1.831h1.892
		h1.954h2.013h2.014h2.076h2.074h2.014h2.074h2.015h2.014h1.953h1.891h1.893h1.77h1.648h1.586h1.525h1.404h1.221h1.158h0.978h0.792
		h0.673h0.487c0.305,0,0.366,0,0.366,0c0-0.272,0-0.457,0-0.457c0-0.243,0-0.548,0-0.548v-0.305v-0.398v-0.396v-0.428v-0.489v-0.486
		v-0.519v-0.551v-0.58v-0.58v-0.58v-0.609v-0.609v-0.58v-0.609v-0.612v-0.609v-0.58v-0.58v-0.58v-0.548v-0.519v-0.489v-0.457v-0.457
		v-0.398v-0.366v-0.334c0-0.305,0-0.551,0-0.551c0-0.182,0-0.334,0-0.334c-0.121-0.123-0.487-0.123-0.487-0.123h-0.673h-0.854
		h-1.099h-1.282h-1.463h-1.648h-1.831h-1.952h-2.136h-2.197h-2.381h-2.38h-2.562h-2.563h-2.623h-2.686h-2.685h-2.747h-2.685h-2.686
		h-2.685h-2.625h-2.624h-2.502h-2.44h-2.318h-2.259h-2.074h-1.953h-1.831h-1.647h-1.465h-1.342h-1.039h-0.915h-0.609h-0.366
		c-0.184,0.275-0.184,1.069-0.184,1.069v1.251v1.737v2.168v2.593v2.959v3.296v3.662v3.938v4.21v4.453v4.67v4.852v5.033v5.156v5.279
		v5.341v5.399v5.432v5.432v5.399v5.341v5.279v5.156v5.004v4.881v4.699v4.456v4.21v3.905v3.662v3.296v2.991v2.561v2.139v1.77v1.28
		v0.732C421.565,467.998,495.346,467.998,495.346,467.998z"/>
</g>
<g id="LWPOLYLINE_6_">
	
		<path fill="none" stroke="#000000" stroke-width="0.7087" stroke-linecap="round" stroke-linejoin="round" stroke-miterlimit="10" d="
		M501.569,323.002c0,0.275,0,0.457,0,0.457c0,0.246,0,0.551,0,0.551v0.334v0.366v0.398v0.457v0.457v0.489v0.519v0.548v0.58v0.58
		v0.58v0.609v0.612v0.609v0.58v0.609v0.609v0.58v0.58v0.58v0.551v0.519v0.486v0.489v0.428v0.396v0.398v0.305
		c0,0.305,0,0.548,0,0.548c0,0.185,0,0.337,0,0.337c0.305,0.12,0.611,0.12,0.611,0.12h0.426h0.611h0.609h0.794h0.854h0.916h1.037
		h1.099h1.16h1.22h1.221h1.343h1.282h1.403h1.342h1.403h1.404h1.403h1.403h1.403h1.344h1.342h1.281h1.282h1.22h1.16h1.099h0.976
		h0.978h0.854h0.732h0.671h0.55h0.487h0.307c0.305,0.246,0.305,0.917,0.305,0.917v1.128v1.556v1.922v2.291v2.622v2.962v3.202v3.51
		v3.721v3.967v4.151v4.333v4.453v4.579v4.667v4.761v4.79v4.822v4.819v4.822v4.729v4.699v4.547v4.515v4.271v4.151v3.967v3.721v3.539
		v3.176v2.988v2.625v2.259v1.951v1.526v1.16v0.671c0.244,0.243,0.487,0.243,0.487,0.243c0.305,0,0.611,0,0.611,0h0.366h0.426h0.489
		h0.55h0.487h0.609h0.611h0.61h0.671h0.671h0.671h0.673h0.732h0.671h0.732h0.671h0.671h0.732h0.671h0.61h0.611h0.609h0.61h0.55
		h0.487h0.488h0.428h0.366h0.366c0.244,0,0.487,0,0.487,0c0.305-0.243,0.305-0.914,0.305-0.914v-1.16v-1.526v-1.951v-2.259v-2.625
		v-2.988v-3.176v-3.539v-3.721v-3.967v-4.151v-4.271v-4.515v-4.547v-4.699v-4.729v-4.822v-4.819v-4.822v-4.79v-4.761v-4.667v-4.579
		v-4.453v-4.333v-4.151v-3.967v-3.721v-3.51v-3.202V349.7v-2.622v-2.291v-1.922v-1.556v-1.128v-0.671
		c0.245-0.246,0.55-0.246,0.55-0.246h0.428h0.549h0.671h0.732h0.794h0.916h1.037h1.037h1.099h1.158h1.222h1.282h1.28h1.281h1.344
		h1.342h1.403h1.343h1.344h1.342h1.343h1.28h1.222h1.221h1.158h1.16h1.037h0.978h0.915h0.793h0.794h0.609h0.549h0.428h0.305
		c0.305-0.272,0.305-0.457,0.305-0.457c0-0.243,0-0.548,0-0.548v-0.305v-0.398v-0.396v-0.428v-0.489v-0.486v-0.519v-0.551v-0.58
		v-0.58v-0.58v-0.609v-0.609v-0.58v-0.609v-0.612v-0.609v-0.58v-0.58v-0.58v-0.548v-0.519v-0.489v-0.457v-0.457v-0.398v-0.366
		v-0.334c0-0.305,0-0.551,0-0.551c0-0.182,0-0.334,0-0.334C594.083,323.002,501.569,323.002,501.569,323.002z"/>
</g>
</svg>
