<?xml version="1.0" encoding="utf-8"?>
<!-- Generator: Adobe Illustrator 16.0.1, SVG Export Plug-In . SVG Version: 6.00 Build 0)  -->
<!DOCTYPE svg PUBLIC "-//W3C//DTD SVG 1.0//EN" "http://www.w3.org/TR/2001/REC-SVG-20010904/DTD/svg10.dtd">
<svg version="1.0" id="_x31_" xmlns="http://www.w3.org/2000/svg" xmlns:xlink="http://www.w3.org/1999/xlink" x="0px" y="0px"
	 width="612px" height="792px" viewBox="0 0 612 792" enable-background="new 0 0 612 792" xml:space="preserve">
<g id="LWPOLYLINE">
	
		<path fill="none" stroke="#000000" stroke-width="0.7087" stroke-linecap="round" stroke-linejoin="round" stroke-miterlimit="10" d="
		M135.292,373.836l0.103-1.424l0.081-1.383l0.04-1.342v-1.303l-0.04-1.262l-0.062-1.24l-0.102-1.201l-0.143-1.158l-0.162-1.119
		l-0.224-1.078l-0.244-1.059l-0.265-0.996l-0.325-0.977l-0.347-0.936l-0.406-0.916l-0.407-0.854l-0.468-0.834l-0.509-0.793
		l-0.528-0.754l-0.59-0.732l-0.61-0.67l-0.651-0.65l-0.671-0.611l-0.732-0.59l-0.772-0.529l-0.794-0.508l-0.834-0.469l-0.895-0.447
		l-0.916-0.387l-0.956-0.365l-0.996-0.346l-1.038-0.285l-1.058-0.264l-1.119-0.225l-1.159-0.184l-1.2-0.162l-1.221-0.123
		l-1.281-0.08l-1.322-0.061l-1.343-0.021l-1.424,0.021l-1.403,0.039l-1.363,0.082l-1.322,0.102l-1.321,0.143l-1.282,0.162
		l-1.24,0.205l-1.2,0.242l-1.2,0.285l-1.14,0.307l-1.118,0.365l-1.099,0.387l-1.058,0.447l-1.018,0.469l-0.997,0.527l-0.956,0.57
		l-0.915,0.609l-0.875,0.672l-0.854,0.691l-0.814,0.773l-0.772,0.793l-0.753,0.855l-0.712,0.914l-0.651,0.957l-0.65,1.018
		l-0.59,1.078l-0.55,1.139l-0.508,1.18l-0.488,1.24l-0.428,1.303l-0.406,1.383l-0.346,1.424l-0.326,1.484l-0.284,1.566l-0.224,1.607
		l-0.204,1.688l-0.142,1.75l-0.103,1.83l-0.081,1.893l-0.021,1.973c0,0.203,0,0.428,0,0.428v0.346v0.406v0.488v0.551v0.629v0.693
		v0.752v0.793v0.854v0.875v0.936v0.938v0.996v0.996v1.018v1.018v1.037v1.018v1.037v0.996v1.018v0.977v0.955v0.916v0.895v0.834v0.793
		v0.754v0.691v0.631v0.549v0.488v0.428v0.324v0.244c0,0.184,0.041,2.93,0.041,2.93l0.102,2.623l0.163,2.463l0.224,2.359l0.284,2.236
		l0.347,2.117l0.406,1.951l0.447,1.912l0.488,1.75l0.55,1.668l0.59,1.547l0.65,1.465l0.672,1.342l0.712,1.262l0.752,1.18
		l0.773,1.057l0.813,1.018l0.854,0.936l0.875,0.814l0.895,0.773l0.916,0.732l0.936,0.609l0.956,0.57l0.956,0.527l0.977,0.449
		l0.996,0.406l0.997,0.324l0.997,0.326l1.017,0.244l1.018,0.203l0.996,0.203l0.997,0.123l0.997,0.121l0.996,0.082l0.977,0.082
		l0.956,0.039l0.956,0.041l0.936,0.041h0.896h0.895h0.529h0.569l0.631-0.041h0.65l0.713-0.041l0.731-0.039l0.773-0.041l0.813-0.082
		l0.834-0.121l0.854-0.123l0.875-0.162l0.874-0.203l0.916-0.203l0.895-0.285l0.916-0.285l0.936-0.367l0.915-0.365l0.915-0.447
		l0.896-0.488l0.915-0.57l0.875-0.609l0.875-0.65l0.834-0.732l0.813-0.814l0.793-0.854l0.773-0.936l0.732-1.018l0.691-1.1
		l0.631-1.18l0.61-1.26l0.569-1.344l0.509-1.424l0.447-1.545l0.387-1.629l0.346-1.707l0.264-1.832l0.204-1.912l0.122-2.033
		l0.061-2.156l-0.021-2.238c-0.203,0-0.366,0-0.366,0c-0.183,0-0.406,0-0.406,0h-0.244h-0.285h-0.325h-0.325h-0.366h-0.387h-0.407
		h-0.406h-0.447h-0.448h-0.447h-0.468h-0.468h-0.468h-0.468h-0.448h-0.468h-0.468h-0.427h-0.447h-0.407h-0.407h-0.386h-0.366h-0.326
		h-0.325h-0.284h-0.244H125c-0.203,0-0.346,0-0.346,0c-0.203,0-0.224,1.404-0.224,1.404l-0.061,1.361l-0.082,1.262l-0.142,1.221
		l-0.163,1.139l-0.203,1.1l-0.225,1.057l-0.264,0.977l-0.285,0.936l-0.305,0.896l-0.346,0.812l-0.347,0.773l-0.386,0.732
		l-0.407,0.691l-0.407,0.65l-0.427,0.611l-0.447,0.529l-0.468,0.527L119,431.83l-0.488,0.447l-0.488,0.408l-0.488,0.365
		l-0.488,0.326l-0.509,0.285l-0.509,0.283l-0.488,0.244l-0.508,0.244l-0.509,0.164l-0.488,0.203l-0.468,0.121l-0.488,0.123
		l-0.468,0.121l-0.447,0.082l-0.448,0.082l-0.427,0.039l-0.407,0.041l-0.386,0.041l-0.366,0.041h-0.346h-0.326h-0.691l-0.671-0.041
		l-0.672-0.041l-0.65-0.041l-0.672-0.08l-0.63-0.082l-0.631-0.121l-0.631-0.123l-0.61-0.162l-0.61-0.203l-0.59-0.203l-0.59-0.244
		l-0.569-0.285l-0.549-0.326l-0.529-0.324l-0.529-0.367l-0.508-0.447l-0.488-0.447l-0.488-0.488l-0.468-0.57l-0.428-0.568
		l-0.427-0.611l-0.407-0.691l-0.406-0.732l-0.366-0.773l-0.346-0.812l-0.326-0.896l-0.305-0.936l-0.305-0.977l-0.265-1.057
		l-0.244-1.1l-0.204-1.18l-0.203-1.219l-0.162-1.303l-0.163-1.383l-0.102-1.404l-0.102-1.506l-0.082-1.566l-0.04-1.627v-1.729
		c0-0.184,0-0.406,0-0.406v-0.307v-0.385v-0.469v-0.529v-0.59v-0.65v-0.691v-0.754v-0.793v-0.834v-0.854v-0.895v-0.938v-0.936
		v-0.955v-0.957v-0.977v-0.955v-0.957v-0.955v-0.936v-0.936v-0.895v-0.855v-0.834v-0.793v-0.752v-0.693v-0.65v-0.59v-0.529v-0.467
		v-0.387v-0.305v-0.225c0-0.184,0-1.424,0-1.424l0.02-1.16l0.021-1.117l0.021-1.078l0.041-1.018l0.04-0.977l0.062-0.936l0.061-0.875
		l0.062-0.854l0.061-0.795l0.082-0.752l0.061-0.713l0.082-0.691l0.081-0.629l0.102-0.611l0.081-0.549l0.102-0.549l0.082-0.488
		l0.102-0.469l0.081-0.447l0.102-0.406l0.082-0.367l0.102-0.365l0.081-0.326l0.102-0.285l0.082-0.283l0.081-0.244l0.081-0.244
		l0.082-0.205c0.061-0.203,0.142-0.365,0.142-0.365c0.062-0.162,0.122-0.305,0.122-0.305c0.041-0.123,0.082-0.244,0.082-0.244
		c0.081-0.203,0.102-0.285,0.102-0.285c0.021-0.123,0.081-0.264,0.081-0.264c0.082-0.143,0.184-0.307,0.184-0.307
		c0.102-0.182,0.224-0.365,0.224-0.365c0.143-0.184,0.284-0.406,0.284-0.406l0.163-0.205l0.184-0.223l0.183-0.244l0.203-0.225
		l0.224-0.244l0.244-0.244l0.244-0.264l0.265-0.244l0.285-0.264l0.305-0.244l0.325-0.266l0.326-0.244l0.346-0.244l0.366-0.264
		l0.387-0.244l0.406-0.225l0.428-0.244l0.427-0.223l0.468-0.225l0.468-0.203l0.509-0.203l0.509-0.184l0.528-0.184l0.55-0.162
		l0.569-0.162l0.61-0.123l0.61-0.121l0.63-0.123l0.651-0.08l0.671-0.062l0.692-0.061l0.731-0.041h0.732c0.122,0,0.285,0,0.285,0
		c0.163,0.021,0.325,0.021,0.325,0.021c0.204,0.02,0.387,0.041,0.387,0.041l0.224,0.02l0.224,0.041l0.224,0.02l0.244,0.041
		l0.244,0.041l0.265,0.041l0.265,0.061l0.265,0.041l0.284,0.08l0.285,0.062l0.285,0.061l0.284,0.082l0.306,0.08l0.284,0.102
		l0.306,0.102l0.305,0.102l0.285,0.104l0.305,0.121l0.306,0.123l0.284,0.121l0.285,0.143l0.305,0.143l0.285,0.162l0.265,0.162
		l0.284,0.164l0.265,0.162l0.265,0.203l0.244,0.184l0.244,0.203l0.244,0.203l0.224,0.225l0.224,0.223l0.203,0.244l0.184,0.244
		l0.183,0.244l0.184,0.266l0.183,0.264l0.163,0.266l0.163,0.283l0.142,0.285l0.163,0.285l0.143,0.285l0.122,0.305l0.143,0.305
		l0.122,0.326l0.122,0.305l0.122,0.326l0.102,0.324l0.102,0.326l0.102,0.346l0.102,0.346l0.081,0.346l0.103,0.346l0.061,0.367
		l0.081,0.365l0.082,0.367l0.061,0.365l0.062,0.367l0.061,0.385l0.041,0.387l0.061,0.387l0.041,0.387l0.041,0.406l0.04,0.387
		l0.041,0.408l0.021,0.406l0.021,0.406l0.02,0.428l0.021,0.428l0.021,0.406l0.021,0.428v0.426v0.447v0.428H135.292z"/>
</g>
<g id="LWPOLYLINE_1_">
	
		<path fill="none" stroke="#000000" stroke-width="0.7087" stroke-linecap="round" stroke-linejoin="round" stroke-miterlimit="10" d="
		M151.953,407.99l0.021,1.973l0.061,1.912l0.082,1.852l0.143,1.789l0.162,1.75l0.203,1.668l0.244,1.627l0.285,1.588l0.325,1.504
		l0.346,1.465l0.387,1.385l0.447,1.342l0.469,1.303l0.508,1.26l0.529,1.18l0.59,1.141l0.61,1.057l0.65,1.059l0.712,0.977
		l0.732,0.936l0.753,0.854l0.813,0.855l0.834,0.771l0.896,0.732l0.915,0.691l0.956,0.652l0.997,0.568l1.017,0.57l1.078,0.488
		l1.099,0.447l1.159,0.406l1.181,0.367l1.22,0.324l1.241,0.244l1.302,0.244l1.322,0.205l1.383,0.121l1.404,0.121l1.444,0.041
		l1.464,0.041l1.485-0.041l1.444-0.041l1.403-0.121l1.384-0.121l1.322-0.205l1.302-0.244l1.24-0.244l1.221-0.324l1.18-0.367
		l1.16-0.406l1.098-0.447l1.059-0.488l1.037-0.57l0.997-0.568l0.956-0.652l0.915-0.691l0.895-0.732l0.834-0.771l0.814-0.855
		l0.752-0.854l0.732-0.936l0.691-0.977l0.672-1.059l0.61-1.057l0.59-1.141l0.528-1.18l0.509-1.26l0.468-1.303l0.447-1.342
		l0.387-1.385l0.346-1.465l0.326-1.504l0.284-1.588l0.244-1.627l0.204-1.668l0.162-1.75l0.143-1.789l0.081-1.852l0.062-1.912
		l0.021-1.973c0-0.102,0-0.428,0-0.428v-0.549v-0.711v-0.916v-1.078v-1.24v-1.404v-1.525v-1.648v-1.77v-1.852v-1.973v-2.033v-2.117
		v-2.156v-2.217v-2.236v-2.279v-2.277v-2.279v-2.258v-2.238v-2.217v-2.176v-2.096v-2.055v-1.953v-1.871v-1.75v-1.668v-1.525v-1.383
		v-1.24v-1.078v-0.916v-0.732v-0.529v-0.324c-0.204-0.123-0.347-0.123-0.347-0.123c-0.183,0-0.406,0-0.406,0h-0.265h-0.285h-0.305
		h-0.346h-0.366h-0.387h-0.406h-0.407h-0.427h-0.448h-0.468h-0.447h-0.468h-0.468h-0.468h-0.468h-0.468h-0.448h-0.447h-0.427h-0.428
		h-0.406h-0.387h-0.346h-0.346h-0.306h-0.305h-0.244h-0.224c-0.184,0-0.347,0-0.347,0c-0.183,0.123-0.183,0.447-0.183,0.447v0.551
		v0.73v0.938v1.078v1.26v1.424v1.547v1.668v1.789v1.893v1.994v2.055v2.135v2.197v2.238v2.277v2.299v2.318v2.299v2.299v2.279v2.236
		v2.197v2.137v2.074v1.994v1.891v1.791v1.668v1.545v1.404v1.262v1.098v0.916v0.752v0.529v0.346c0,0.102-0.021,1.646-0.021,1.646
		l-0.04,1.486l-0.041,1.424l-0.081,1.363l-0.103,1.322l-0.122,1.26l-0.142,1.221l-0.163,1.139l-0.184,1.141l-0.203,1.057
		l-0.224,1.018l-0.265,0.977l-0.265,0.936l-0.305,0.854l-0.305,0.855l-0.347,0.814l-0.365,0.73l-0.387,0.693l-0.387,0.691
		l-0.427,0.609l-0.448,0.611l-0.488,0.527l-0.488,0.529l-0.508,0.488l-0.529,0.447l-0.569,0.408l-0.569,0.365l-0.61,0.326
		l-0.631,0.324l-0.631,0.285l-0.671,0.244l-0.691,0.203l-0.712,0.203l-0.732,0.164l-0.753,0.121l-0.772,0.082l-0.794,0.121
		l-0.834,0.041l-0.834,0.041h-0.875h-0.854l-0.834-0.041l-0.834-0.041l-0.794-0.121l-0.772-0.082l-0.753-0.121l-0.732-0.164
		l-0.712-0.203l-0.691-0.203l-0.672-0.244l-0.65-0.285l-0.61-0.324l-0.61-0.326l-0.569-0.365l-0.569-0.408l-0.529-0.447
		l-0.509-0.488l-0.509-0.529l-0.468-0.527l-0.447-0.611l-0.427-0.609l-0.407-0.691l-0.366-0.693l-0.366-0.73l-0.346-0.814
		l-0.305-0.855l-0.306-0.854l-0.265-0.936l-0.264-0.977l-0.225-1.018l-0.203-1.057l-0.183-1.141l-0.163-1.139l-0.143-1.221
		l-0.122-1.26l-0.102-1.322l-0.081-1.363l-0.062-1.424l-0.02-1.486l-0.021-1.545c0-0.102,0-0.447,0-0.447v-0.529v-0.752v-0.916
		v-1.098v-1.262v-1.404v-1.545v-1.668v-1.791v-1.891v-1.994v-2.074v-2.137v-2.197v-2.236v-2.279v-2.299v-2.299v-2.318v-2.299v-2.277
		v-2.238v-2.197v-2.135v-2.055v-1.994V358.6v-1.789v-1.668v-1.547v-1.424v-1.26v-1.078v-0.938v-0.73v-0.551v-0.324
		c-0.204-0.123-0.346-0.123-0.346-0.123c-0.184,0-0.407,0-0.407,0h-0.265h-0.284h-0.306h-0.346h-0.366h-0.366h-0.406h-0.428h-0.427
		h-0.448h-0.447h-0.468h-0.468h-0.468h-0.468h-0.468h-0.468h-0.448h-0.447h-0.427h-0.428h-0.387h-0.386h-0.366h-0.346h-0.306h-0.284
		h-0.265h-0.224c-0.184,0-0.326,0-0.326,0C151.953,347.168,151.953,407.99,151.953,407.99z"/>
</g>
<g id="LWPOLYLINE_2_">
	
		<path fill="none" stroke="#000000" stroke-width="0.7087" stroke-linecap="round" stroke-linejoin="round" stroke-miterlimit="10" d="
		M229.434,414.662l-0.061,0.713l-0.041,0.752l-0.061,0.814l-0.021,0.812l-0.041,0.855v0.895l0.021,0.936l0.021,0.936l0.061,0.977
		l0.082,0.977l0.122,1.018l0.142,1.016l0.184,1.018l0.203,1.018l0.265,1.057l0.285,1.018l0.346,1.018l0.387,1.018l0.427,1.016
		l0.488,0.977l0.549,0.977l0.61,0.977l0.651,0.936l0.732,0.896l0.772,0.854l0.854,0.854l0.936,0.814l0.997,0.773l1.078,0.691
		l1.139,0.691l1.241,0.65l1.322,0.57l1.383,0.488l1.506,0.488l1.566,0.365l1.688,0.367l1.749,0.244l1.871,0.203l1.974,0.121
		l2.074,0.041l1.119-0.041h1.119l1.118-0.08l1.099-0.082l1.099-0.121l1.099-0.164l1.078-0.162l1.058-0.203l1.058-0.244l1.037-0.244
		l1.018-0.326l1.017-0.326l0.977-0.365l0.977-0.365l0.936-0.449l0.936-0.447l0.896-0.527l0.896-0.529l0.854-0.57l0.814-0.609
		l0.793-0.611l0.772-0.691l0.753-0.732l0.691-0.773l0.672-0.771l0.65-0.855l0.59-0.895l0.57-0.895l0.528-0.977l0.488-1.018
		l0.447-1.059l0.407-1.098l0.366-1.139l0.325-1.18l0.265-1.221l0.224-1.303l0.163-1.301l0.162-1.385l0.082-1.424v-1.504
		l-0.082-2.238l-0.203-2.115l-0.387-2.014l-0.508-1.893l-0.631-1.789l-0.753-1.709l-0.875-1.588l-0.976-1.504l-1.059-1.424
		l-1.159-1.344l-1.24-1.281l-1.303-1.199l-1.362-1.141l-1.424-1.098l-1.465-1.037l-1.525-0.996l-1.546-0.957l-1.566-0.916
		l-1.587-0.895l-1.587-0.854l-1.586-0.855l-1.587-0.854l-1.566-0.834l-1.546-0.834l-1.525-0.834l-1.465-0.834l-1.424-0.875
		l-1.363-0.895l-1.302-0.896l-1.241-0.955l-1.159-0.977l-1.058-1.037l-0.977-1.078l-0.875-1.139l-0.752-1.18l-0.631-1.262
		l-0.509-1.344l-0.366-1.402l-0.244-1.484l-0.061-1.588v-0.732l0.04-0.711l0.082-0.713l0.081-0.672l0.122-0.65l0.143-0.631
		l0.163-0.609l0.203-0.59l0.203-0.57l0.244-0.549l0.265-0.529l0.265-0.508l0.305-0.488l0.306-0.469l0.346-0.447l0.346-0.428
		l0.366-0.406l0.387-0.406l0.406-0.367l0.407-0.346l0.427-0.346l0.447-0.305l0.448-0.305l0.468-0.285l0.488-0.244l0.488-0.244
		l0.487-0.223l0.509-0.225l0.509-0.184l0.529-0.162l0.528-0.162l0.55-0.143l0.528-0.123l0.55-0.102l0.549-0.082l0.569-0.08
		l0.55-0.061l0.569-0.041l0.549-0.021h0.569l0.794,0.021l0.772,0.041l0.732,0.061l0.732,0.102l0.691,0.121l0.651,0.143l0.65,0.164
		l0.61,0.203l0.59,0.223l0.55,0.244l0.549,0.266l0.509,0.305l0.488,0.305l0.468,0.346l0.447,0.346l0.428,0.387l0.406,0.406
		l0.366,0.408l0.366,0.447l0.346,0.467l0.306,0.469l0.305,0.508l0.285,0.51l0.244,0.527l0.244,0.551l0.224,0.568l0.203,0.57
		l0.184,0.609l0.183,0.611l0.143,0.609l0.143,0.652l0.122,0.65l0.102,0.672l0.081,0.67l0.081,0.691l0.062,0.713l0.041,0.711
		l0.04,0.713l0.021,0.732v0.752c0.203,0,0.346,0,0.346,0c0.204,0,0.407,0,0.407,0h0.265h0.284h0.306h0.346h0.366h0.387h0.406h0.407
		h0.447h0.427h0.468h0.448h0.468h0.468h0.468h0.468h0.468h0.447h0.448h0.427h0.428h0.406h0.387h0.366h0.325h0.325h0.285h0.244h0.224
		c0.184,0,0.346,0,0.346,0c0.204,0,0.244-1.424,0.244-1.424v-1.363l-0.04-1.342l-0.082-1.303l-0.122-1.24l-0.143-1.221l-0.203-1.18
		l-0.224-1.139l-0.265-1.1l-0.305-1.078l-0.346-1.016l-0.387-0.977l-0.407-0.957l-0.447-0.914l-0.488-0.875l-0.528-0.834
		l-0.55-0.793l-0.59-0.754l-0.631-0.732l-0.65-0.691l-0.691-0.65l-0.713-0.631l-0.752-0.57l-0.794-0.549l-0.813-0.508l-0.834-0.488
		l-0.874-0.447l-0.916-0.408l-0.936-0.365l-0.956-0.346l-0.997-0.305l-1.037-0.266l-1.037-0.244l-1.078-0.223l-1.119-0.164
		l-1.119-0.141l-1.18-0.123l-1.18-0.061l-1.2-0.061l-1.24-0.021l-1.181,0.021l-1.18,0.061l-1.139,0.061l-1.14,0.123l-1.139,0.141
		l-1.099,0.164l-1.078,0.203l-1.078,0.244l-1.058,0.264l-1.018,0.307l-1.017,0.324l-0.977,0.367l-0.977,0.406l-0.936,0.428
		l-0.915,0.447l-0.896,0.508l-0.854,0.529l-0.834,0.549l-0.813,0.59l-0.772,0.631l-0.753,0.65l-0.732,0.691l-0.691,0.713
		l-0.651,0.773l-0.61,0.771l-0.59,0.836l-0.569,0.854l-0.509,0.895l-0.488,0.916l-0.447,0.955l-0.407,0.998l-0.366,1.016
		l-0.325,1.059l-0.284,1.078l-0.244,1.139l-0.204,1.16l-0.162,1.18l-0.102,1.221l-0.082,1.262l-0.021,1.301l0.082,2.137l0.224,2.014
		l0.387,1.912l0.508,1.789l0.631,1.709l0.753,1.607l0.874,1.525l0.956,1.445l1.078,1.361l1.16,1.303l1.221,1.221l1.302,1.158
		l1.383,1.119l1.424,1.037l1.465,1.018l1.505,0.957l1.546,0.936l1.566,0.895l1.587,0.875l1.607,0.854l1.586,0.834l1.587,0.834
		l1.566,0.814l1.546,0.834l1.506,0.814l1.484,0.834l1.424,0.854l1.363,0.875l1.302,0.895l1.241,0.936l1.139,0.957l1.078,0.996
		l0.977,1.059l0.854,1.098l0.752,1.16l0.651,1.221l0.509,1.301l0.366,1.363l0.224,1.424l0.081,1.506l-0.021,0.895l-0.04,0.814
		l-0.062,0.812l-0.102,0.773l-0.122,0.732l-0.143,0.732l-0.162,0.691l-0.204,0.691l-0.224,0.65l-0.244,0.611l-0.265,0.609
		l-0.284,0.57l-0.306,0.529l-0.325,0.527l-0.346,0.529l-0.366,0.447l-0.407,0.447l-0.406,0.449l-0.428,0.406l-0.447,0.406
		l-0.447,0.326l-0.488,0.365l-0.488,0.326l-0.509,0.285l-0.528,0.285l-0.529,0.244l-0.569,0.244l-0.569,0.242l-0.57,0.205
		l-0.59,0.162l-0.61,0.162l-0.609,0.164l-0.631,0.121l-0.631,0.082l-0.65,0.121l-0.651,0.041l-0.651,0.082l-0.671,0.041h-0.691
		l-0.672,0.039l-0.569-0.039h-0.569l-0.569-0.041l-0.55-0.082l-0.569-0.041l-0.569-0.121l-0.569-0.123l-0.57-0.121l-0.549-0.123
		l-0.549-0.203l-0.55-0.162l-0.549-0.203l-0.529-0.244l-0.528-0.244l-0.509-0.285l-0.509-0.285l-0.509-0.326l-0.488-0.365
		l-0.468-0.365l-0.447-0.408l-0.447-0.406l-0.447-0.447l-0.407-0.447l-0.407-0.529l-0.366-0.488l-0.366-0.57l-0.346-0.568
		l-0.325-0.611l-0.305-0.65l-0.285-0.65l-0.244-0.691l-0.244-0.732l-0.203-0.773l-0.184-0.773l-0.162-0.814l-0.143-0.854
		l-0.102-0.895l-0.062-0.895l-0.061-0.938v-1.016c0-0.164,0-0.244,0-0.244c0-0.203,0-0.285,0-0.285c0-0.162,0-0.244,0-0.244
		c0-0.184,0-0.264,0-0.264c0-0.184,0-0.285,0-0.285c0-0.184,0-0.285,0-0.285c0-0.162,0-0.244,0-0.244c0-0.162,0-0.244,0-0.244
		c0-0.184,0-0.225,0-0.225C241.111,414.662,229.434,414.662,229.434,414.662z"/>
</g>
<g id="LWPOLYLINE_3_">
	
		<path fill="none" stroke="#000000" stroke-width="0.7087" stroke-linecap="round" stroke-linejoin="round" stroke-miterlimit="10" d="
		M294.426,347.168c0,0.184,0,0.305,0,0.305c0,0.164,0,0.367,0,0.367v0.223v0.244v0.266v0.305v0.305v0.326v0.346v0.365v0.387v0.387
		v0.387v0.406v0.408v0.406v0.387v0.406v0.406v0.387v0.387v0.387v0.367v0.346v0.324v0.326v0.285v0.264v0.266v0.203
		c0,0.203,0,0.365,0,0.365c0,0.123,0,0.225,0,0.225c0.203,0.08,0.407,0.08,0.407,0.08h0.284h0.366h0.447h0.529h0.569h0.61h0.691
		h0.732h0.773h0.813h0.813h0.854h0.896h0.936h0.895h0.936h0.936h0.936h0.936h0.936h0.896h0.895h0.854h0.855h0.812h0.773h0.691h0.691
		h0.652h0.568h0.488h0.447h0.367h0.324h0.205c0.162,0.164,0.162,0.611,0.162,0.611v0.752v1.037v1.281v1.527v1.748v1.975v2.135v2.34
		v2.48v2.645v2.768v2.889v2.969v3.053v3.111v3.174v3.193v3.215v3.213v3.215v3.152v3.133v3.031v3.01v2.848v2.768v2.645v2.48v2.359
		v2.117v1.992v1.75v1.506v1.301v1.018v0.773v0.447c0.203,0.162,0.365,0.162,0.365,0.162c0.203,0,0.408,0,0.408,0h0.244h0.283h0.326
		h0.326h0.365h0.406h0.408h0.406h0.447h0.447h0.447h0.449h0.488h0.447h0.488h0.447h0.447h0.447h0.447h0.447h0.408h0.406h0.406h0.367
		h0.324h0.326h0.285h0.244h0.203c0.203,0,0.365,0,0.365,0c0.203-0.162,0.203-0.609,0.203-0.609v-0.773v-1.018v-1.301v-1.506v-1.75
		v-1.992v-2.117v-2.359v-2.48v-2.645v-2.768v-2.848v-3.01v-3.031v-3.133v-3.152v-3.215v-3.213v-3.215v-3.193v-3.174v-3.111v-3.053
		v-2.969v-2.889v-2.768v-2.645v-2.48v-2.34v-2.135v-1.975v-1.748v-1.527v-1.281v-1.037v-0.752v-0.447
		c0.164-0.164,0.367-0.164,0.367-0.164h0.285h0.365h0.447h0.488h0.529h0.611h0.65h0.732h0.732h0.771h0.814h0.854h0.855h0.854h0.896
		h0.895h0.936h0.895h0.895h0.896h0.895h0.854h0.814h0.814h0.771h0.773h0.691h0.652h0.609h0.529h0.488h0.447h0.365h0.285h0.203
		c0.203-0.182,0.203-0.305,0.203-0.305c0-0.162,0-0.365,0-0.365v-0.203v-0.266v-0.264v-0.285v-0.326v-0.324v-0.346v-0.367v-0.387
		v-0.387v-0.387v-0.406v-0.406V352.6v-0.406v-0.408v-0.406v-0.387v-0.387v-0.387v-0.365v-0.346v-0.326v-0.305v-0.305v-0.266v-0.244
		v-0.223c0-0.203,0-0.367,0-0.367c0-0.121,0-0.223,0-0.223C356.102,347.168,294.426,347.168,294.426,347.168z"/>
</g>
<g id="LWPOLYLINE_4_">
	
		<path fill="none" stroke="#000000" stroke-width="0.7087" stroke-linecap="round" stroke-linejoin="round" stroke-miterlimit="10" d="
		M396.094,445.5l1.465-0.041l1.465-0.041l1.383-0.121l1.383-0.121l1.303-0.205l1.303-0.244l1.26-0.244l1.221-0.324l1.18-0.367
		l1.141-0.406l1.098-0.447l1.098-0.488l1.018-0.57l0.977-0.568l0.977-0.652l0.895-0.691l0.895-0.732l0.855-0.771l0.812-0.855
		l0.773-0.854l0.732-0.936l0.691-0.977l0.652-1.059l0.609-1.057l0.57-1.141l0.568-1.18l0.488-1.26l0.488-1.303l0.406-1.342
		l0.408-1.385l0.365-1.465l0.285-1.504l0.285-1.588l0.244-1.627l0.203-1.668l0.203-1.75l0.123-1.789l0.08-1.852l0.041-1.912
		l0.041-1.973c0-0.041,0-0.225,0-0.225v-0.283v-0.367v-0.467v-0.57v-0.65v-0.732v-0.773v-0.875v-0.916v-0.975v-1.018v-1.059v-1.098
		v-1.139v-1.141v-1.18v-1.18v-1.18v-1.18v-1.18v-1.18v-1.139v-1.141v-1.098v-1.059v-1.016v-0.977v-0.916v-0.854v-0.795v-0.73v-0.652
		v-0.549v-0.467v-0.387v-0.285c0-0.164,0-0.225,0-0.225l-0.041-1.424l-0.041-1.402l-0.08-1.363l-0.123-1.322l-0.203-1.322
		l-0.203-1.262l-0.244-1.262l-0.285-1.199l-0.285-1.201l-0.365-1.139l-0.408-1.119l-0.406-1.098l-0.488-1.059l-0.488-1.016
		l-0.568-0.998l-0.57-0.936l-0.609-0.936l-0.652-0.875l-0.691-0.854l-0.732-0.814l-0.773-0.773l-0.812-0.752l-0.855-0.711
		l-0.895-0.652l-0.895-0.631l-0.977-0.609l-0.977-0.549l-1.018-0.51l-1.098-0.488l-1.098-0.426l-1.141-0.408l-1.18-0.346
		l-1.221-0.324l-1.26-0.285l-1.303-0.225l-1.303-0.203l-1.383-0.143l-1.383-0.102l-1.465-0.08l-1.465-0.021l-1.504,0.021
		l-1.424,0.08l-1.426,0.102l-1.342,0.143l-1.342,0.203l-1.303,0.225l-1.262,0.285l-1.219,0.324l-1.182,0.346l-1.139,0.408
		l-1.098,0.426l-1.059,0.488l-1.057,0.51l-0.977,0.549l-0.977,0.609l-0.895,0.631l-0.896,0.652l-0.854,0.711l-0.773,0.752
		l-0.773,0.773l-0.732,0.814l-0.691,0.854l-0.65,0.875l-0.65,0.936l-0.57,0.936l-0.529,0.998l-0.527,1.016l-0.449,1.059
		l-0.447,1.098l-0.406,1.119l-0.326,1.139l-0.324,1.201l-0.285,1.199l-0.244,1.262l-0.203,1.262l-0.164,1.322l-0.162,1.322
		l-0.082,1.363l-0.039,1.402l-0.041,1.424c0,0.061,0,0.225,0,0.225v0.285v0.387v0.467v0.549v0.652v0.73v0.795v0.854v0.916v0.977
		v1.016v1.059v1.098v1.141v1.139v1.18v1.18v1.18v1.18v1.18v1.18v1.141v1.139v1.098v1.059v1.018v0.975v0.916v0.875v0.773v0.732v0.65
		v0.57v0.467v0.367v0.283c0,0.184,0,0.225,0,0.225l0.041,1.973l0.039,1.912l0.082,1.852l0.162,1.789l0.164,1.75l0.203,1.668
		l0.244,1.627l0.285,1.588l0.324,1.504l0.326,1.465l0.406,1.385l0.447,1.342l0.449,1.303l0.527,1.26l0.529,1.18l0.57,1.141
		l0.65,1.057l0.65,1.059l0.691,0.977l0.732,0.936l0.773,0.854l0.773,0.855l0.854,0.771l0.896,0.732l0.895,0.691l0.977,0.652
		l0.977,0.568l1.057,0.57l1.059,0.488l1.098,0.447l1.139,0.406l1.182,0.367l1.219,0.324l1.262,0.244l1.303,0.244l1.342,0.205
		l1.342,0.121l1.426,0.121l1.424,0.041L396.094,445.5z"/>
</g>
<g id="LWPOLYLINE_5_">
	
		<path fill="none" stroke="#000000" stroke-width="0.7087" stroke-linecap="round" stroke-linejoin="round" stroke-miterlimit="10" d="
		M396.094,435.492h-0.895l-0.814-0.041l-0.812-0.041l-0.814-0.121l-0.773-0.082l-0.771-0.121l-0.732-0.164l-0.691-0.203
		l-0.691-0.203l-0.693-0.244l-0.609-0.285l-0.65-0.324l-0.611-0.326l-0.568-0.365l-0.529-0.408l-0.57-0.447l-0.488-0.488
		l-0.488-0.529l-0.488-0.527l-0.447-0.611l-0.406-0.609l-0.406-0.691l-0.408-0.693l-0.365-0.73l-0.326-0.814l-0.324-0.855
		l-0.285-0.854l-0.285-0.936l-0.244-0.977l-0.244-1.018l-0.203-1.057l-0.162-1.141l-0.164-1.139l-0.162-1.221l-0.123-1.26
		l-0.08-1.322l-0.082-1.363l-0.041-1.424l-0.041-1.486v-1.545c0-0.061,0-0.225,0-0.225v-0.283v-0.387v-0.488v-0.59v-0.652v-0.752
		v-0.814v-0.873v-0.957v-0.996v-1.037v-1.1v-1.119v-1.158v-1.18v-1.201v-1.221v-1.199v-1.221v-1.221v-1.199v-1.182v-1.158v-1.119
		v-1.098v-1.039v-0.996v-0.936v-0.895v-0.814v-0.732v-0.67v-0.57v-0.488v-0.387v-0.285c0-0.184,0-0.244,0-0.244v-1.465l0.082-1.402
		l0.123-1.322l0.162-1.262l0.203-1.18l0.244-1.139l0.285-1.059l0.285-1.018l0.365-0.955l0.367-0.895l0.406-0.834l0.447-0.795
		l0.447-0.73l0.488-0.693l0.529-0.629l0.488-0.592l0.568-0.549l0.529-0.508l0.57-0.469l0.568-0.426l0.57-0.387l0.611-0.346
		l0.568-0.326l0.611-0.285l0.609-0.244l0.57-0.223l0.568-0.203l0.611-0.184l0.568-0.143l0.529-0.123l0.57-0.121l0.529-0.082
		l0.488-0.08l0.486-0.041l0.488-0.041l0.449-0.041l0.406-0.02l0.406-0.021h0.367h0.324h0.326h0.365l0.367,0.021l0.447,0.02
		l0.406,0.041l0.488,0.041l0.488,0.041l0.529,0.08l0.529,0.082l0.529,0.121l0.568,0.123l0.57,0.143l0.568,0.184l0.57,0.203
		l0.611,0.223l0.568,0.244l0.611,0.285l0.568,0.326l0.611,0.346l0.568,0.387l0.57,0.426l0.568,0.469l0.57,0.508l0.529,0.549
		l0.529,0.592l0.488,0.629l0.488,0.693l0.447,0.73l0.447,0.795l0.406,0.834l0.367,0.895l0.365,0.955l0.326,1.018l0.244,1.059
		l0.244,1.139l0.203,1.18l0.162,1.262l0.123,1.322l0.08,1.402l0.041,1.465c0,0.061,0,0.244,0,0.244v0.285v0.387v0.488v0.57v0.67
		v0.732v0.814v0.895v0.936v0.996v1.039v1.098v1.119v1.158v1.182v1.199v1.221v1.221v1.199v1.221v1.201v1.18v1.158v1.119v1.1v1.037
		v0.996v0.957v0.873v0.814v0.752v0.652v0.59v0.488v0.387v0.283c0,0.164,0,0.225,0,0.225l-0.041,1.545v1.486l-0.08,1.424
		l-0.082,1.363l-0.082,1.322l-0.121,1.26l-0.162,1.221l-0.164,1.139l-0.162,1.141l-0.203,1.057l-0.244,1.018l-0.244,0.977
		l-0.285,0.936l-0.285,0.854l-0.324,0.855l-0.326,0.814l-0.367,0.73l-0.365,0.693l-0.406,0.691l-0.447,0.609l-0.449,0.611
		l-0.447,0.527l-0.488,0.529l-0.527,0.488l-0.529,0.447l-0.57,0.408l-0.57,0.365l-0.609,0.326l-0.609,0.324l-0.652,0.285
		l-0.691,0.244l-0.691,0.203l-0.691,0.203l-0.732,0.164l-0.773,0.121l-0.771,0.082l-0.773,0.121l-0.814,0.041l-0.854,0.041H396.094z
		"/>
</g>
<g id="LWPOLYLINE_6_">
	
		<path fill="none" stroke="#000000" stroke-width="0.7087" stroke-linecap="round" stroke-linejoin="round" stroke-miterlimit="10" d="
		M457.73,358.01c0.039,0.164,0.203,0.611,0.203,0.611l0.203,0.752l0.326,1.037l0.365,1.281l0.488,1.527l0.529,1.748l0.568,1.975
		l0.652,2.135l0.691,2.34l0.773,2.48l0.771,2.645l0.855,2.768l0.854,2.889l0.895,2.969l0.938,3.053l0.936,3.111l0.936,3.174
		l0.977,3.193l0.977,3.215l0.936,3.213l0.977,3.215l0.936,3.152l0.977,3.133l0.895,3.031l0.895,3.01l0.855,2.848l0.854,2.768
		l0.773,2.645l0.771,2.48l0.693,2.359l0.65,2.117l0.57,1.992l0.527,1.75l0.488,1.506l0.367,1.301l0.324,1.018l0.205,0.773
		l0.162,0.447c0.121,0.162,0.244,0.162,0.244,0.162c0.121,0,0.285,0,0.285,0c0.203,0,0.447,0,0.447,0h0.285h0.283h0.326h0.326h0.365
		h0.367h0.406h0.406h0.406h0.408h0.447h0.447h0.406h0.447h0.449h0.406h0.447h0.406h0.408h0.406h0.365h0.367h0.326h0.324h0.285h0.244
		h0.244c0.203,0,0.406,0,0.406,0c0.123,0,0.244,0,0.244,0c0.123-0.162,0.244-0.609,0.244-0.609l0.244-0.773l0.285-1.018l0.406-1.301
		l0.447-1.506l0.529-1.75l0.611-1.992l0.65-2.117l0.691-2.359l0.732-2.48l0.814-2.645l0.812-2.768l0.895-2.848l0.896-3.01
		l0.895-3.031l0.936-3.133l0.977-3.152l0.936-3.215l0.977-3.213l0.977-3.215l0.977-3.193l0.936-3.174l0.936-3.111l0.936-3.053
		l0.895-2.969l0.855-2.889l0.812-2.768l0.814-2.645l0.732-2.48l0.732-2.34l0.65-2.135l0.57-1.975l0.527-1.748l0.449-1.527
		l0.406-1.281l0.285-1.037l0.244-0.752l0.121-0.447c0.082,0,0.082,0.447,0.082,0.447v0.752v1.037v1.281v1.527v1.748v1.975v2.135
		v2.34v2.48v2.645v2.768v2.889v2.969v3.053v3.111v3.174v3.193v3.215v3.213v3.215v3.152v3.133v3.031v3.01v2.848v2.768v2.645v2.48
		v2.359v2.117v1.992v1.75v1.506v1.301v1.018v0.773v0.447c0.162,0.162,0.326,0.162,0.326,0.162c0.162,0,0.365,0,0.365,0h0.244h0.244
		h0.326h0.283h0.367h0.365h0.367h0.365h0.408h0.447h0.406h0.447h0.406h0.449h0.447h0.406h0.447h0.406h0.449h0.406h0.365h0.367h0.365
		h0.367h0.285h0.283h0.285h0.244c0.203,0,0.367,0,0.367,0c0.162,0,0.244,0,0.244,0c0.08-0.203,0.08-0.691,0.08-0.691v-0.854v-1.18
		v-1.426v-1.707v-1.994v-2.197v-2.441v-2.604v-2.807v-2.971v-3.133v-3.254v-3.336v-3.438v-3.52v-3.561v-3.6V395.5v-3.621v-3.6
		v-3.561v-3.52v-3.438v-3.355v-3.234v-3.113v-2.969v-2.807v-2.625v-2.441v-2.197v-1.973v-1.729v-1.445v-1.158v-0.834v-0.529
		c-0.121-0.184-0.324-0.184-0.324-0.184h-0.205h-0.324h-0.367h-0.406h-0.447h-0.488h-0.529h-0.609h-0.611h-0.65h-0.65h-0.691h-0.732
		h-0.732h-0.732h-0.732h-0.732h-0.773h-0.732h-0.732h-0.732h-0.732h-0.691h-0.65h-0.65h-0.611h-0.568h-0.57h-0.488h-0.447h-0.406
		h-0.367h-0.285h-0.244c-0.203,0-0.283,0-0.283,0c-0.082,0.164-0.205,0.59-0.205,0.59l-0.203,0.713l-0.285,0.977l-0.365,1.199
		l-0.406,1.445l-0.488,1.646l-0.529,1.852l-0.57,2.014l-0.65,2.197l-0.65,2.34l-0.732,2.48l-0.773,2.604l-0.773,2.727l-0.812,2.787
		l-0.814,2.889l-0.854,2.928l-0.855,2.99l-0.854,3.012l-0.895,3.031l-0.855,3.031l-0.895,3.01l-0.855,2.971l-0.854,2.949
		l-0.814,2.867l-0.812,2.809l-0.773,2.705l-0.773,2.604l-0.691,2.48l-0.691,2.361l-0.65,2.176l-0.57,2.033l-0.529,1.873
		l-0.488,1.627l-0.406,1.424l-0.365,1.221l-0.244,0.977l-0.205,0.691l-0.162,0.447c-0.08,0-0.203-0.447-0.203-0.447l-0.203-0.691
		l-0.285-0.977l-0.326-1.221l-0.406-1.424l-0.488-1.627l-0.529-1.873l-0.609-2.033l-0.611-2.176l-0.691-2.361l-0.691-2.48
		l-0.773-2.604l-0.771-2.705l-0.814-2.809l-0.812-2.867l-0.855-2.949l-0.854-2.971l-0.896-3.01l-0.854-3.031l-0.895-3.031
		l-0.855-3.012l-0.854-2.99l-0.855-2.928l-0.854-2.889l-0.773-2.787l-0.812-2.727l-0.732-2.604l-0.732-2.48l-0.652-2.34l-0.65-2.197
		l-0.568-2.014l-0.57-1.852l-0.447-1.646l-0.406-1.445l-0.367-1.199l-0.285-0.977l-0.203-0.713l-0.121-0.426
		c-0.205-0.164-0.367-0.164-0.367-0.164h-0.203h-0.285h-0.365h-0.367h-0.447h-0.488h-0.529h-0.527h-0.611h-0.609h-0.652h-0.65
		h-0.691h-0.691h-0.691h-0.732h-0.732h-0.691h-0.732h-0.691h-0.691h-0.691h-0.652h-0.65h-0.609h-0.611h-0.57h-0.486h-0.488h-0.449
		h-0.365h-0.367h-0.283h-0.244c-0.164,0-0.244,0-0.244,0c-0.041,0.184-0.041,0.713-0.041,0.713v0.834v1.158v1.445v1.729v1.973v2.197
		v2.441v2.625v2.807v2.969v3.113v3.234v3.355v3.438v3.52v3.561v3.6v3.621v3.621v3.6v3.561v3.52v3.438v3.336v3.254v3.133v2.971v2.807
		v2.604v2.441v2.197v1.994v1.707v1.426v1.18v0.854v0.488c0.162,0.203,0.285,0.203,0.285,0.203c0.162,0,0.365,0,0.365,0h0.203h0.285
		h0.244h0.285h0.326h0.324h0.367h0.365h0.367h0.406h0.365h0.408h0.406h0.406h0.408h0.406h0.406h0.367h0.406h0.365h0.367h0.365h0.326
		h0.326h0.283h0.244h0.285h0.203c0.205,0,0.367,0,0.367,0c0.121,0,0.203,0,0.203,0C457.73,443.832,457.73,358.01,457.73,358.01z"/>
</g>
</svg>
