<?xml version="1.0" encoding="UTF-8" standalone="no"?>
<!-- Generator: Adobe Illustrator 16.0.1, SVG Export Plug-In . SVG Version: 6.00 Build 0)  -->

<svg
   xmlns:dc="http://purl.org/dc/elements/1.1/"
   xmlns:cc="http://creativecommons.org/ns#"
   xmlns:rdf="http://www.w3.org/1999/02/22-rdf-syntax-ns#"
   xmlns:svg="http://www.w3.org/2000/svg"
   xmlns="http://www.w3.org/2000/svg"
   xmlns:xlink="http://www.w3.org/1999/xlink"
   xmlns:sodipodi="http://sodipodi.sourceforge.net/DTD/sodipodi-0.dtd"
   xmlns:inkscape="http://www.inkscape.org/namespaces/inkscape"
   version="1.0"
   id="_x31_"
   x="0px"
   y="0px"
   width="350"
   height="350"
   viewBox="0 0 350 350"
   enable-background="new 0 0 612 792"
   xml:space="preserve"
   inkscape:version="0.48.2 r9819"
   sodipodi:docname="7054.svg"><metadata
   id="metadata34"><rdf:RDF><cc:Work
       rdf:about=""><dc:format>image/svg+xml</dc:format><dc:type
         rdf:resource="http://purl.org/dc/dcmitype/StillImage" /></cc:Work></rdf:RDF></metadata><defs
   id="defs32"><radialGradient
     r="333.18735"
     fy="710.99164"
     fx="373.24265"
     cy="710.99164"
     cx="373.24265"
     gradientTransform="matrix(0.86272608,1.0667183e-7,-5.1097115e-8,0.31434,-147.00617,81.5576)"
     gradientUnits="userSpaceOnUse"
     id="radialGradient3092"
     xlink:href="#linearGradient5443"
     inkscape:collect="always" /><radialGradient
     r="333.18735"
     fy="467.91885"
     fx="373.24265"
     cy="467.91885"
     cx="373.24265"
     gradientTransform="matrix(0.83535071,2.5391117e-7,-2.4564601e-7,0.80815889,-136.78854,-203.15302)"
     gradientUnits="userSpaceOnUse"
     id="radialGradient3088"
     xlink:href="#linearGradient5443"
     inkscape:collect="always" /><radialGradient
     r="333.18735"
     fy="467.91885"
     fx="373.24265"
     cy="467.91885"
     cx="373.24265"
     gradientTransform="matrix(0.83535071,2.5391117e-7,-2.4564601e-7,0.80815889,783.12101,707.99698)"
     gradientUnits="userSpaceOnUse"
     id="radialGradient3736"
     xlink:href="#linearGradient5443"
     inkscape:collect="always" /><linearGradient
     y2="254.73526"
     x2="123.47623"
     y1="344.03848"
     x1="123.50603"
     gradientTransform="matrix(2.3189708,0,0,2.0930998,-99.17808,-231.54972)"
     gradientUnits="userSpaceOnUse"
     id="linearGradient3734"
     xlink:href="#linearGradient3187"
     inkscape:collect="always" /><radialGradient
     r="333.18735"
     fy="710.99164"
     fx="373.24265"
     cy="710.99164"
     cx="373.24265"
     gradientTransform="matrix(0.86272608,1.0667183e-7,-5.1097115e-8,0.31434,772.90338,992.7076)"
     gradientUnits="userSpaceOnUse"
     id="radialGradient3732"
     xlink:href="#linearGradient5443"
     inkscape:collect="always" /><radialGradient
     r="333.18735"
     fy="710.99164"
     fx="373.24265"
     cy="710.99164"
     cx="373.24265"
     gradientTransform="matrix(0.86272608,1.0667183e-7,-5.1097115e-8,0.31434,772.90338,992.7076)"
     gradientUnits="userSpaceOnUse"
     id="radialGradient3722"
     xlink:href="#linearGradient5443"
     inkscape:collect="always" /><radialGradient
     r="333.18735"
     fy="467.91885"
     fx="373.24265"
     cy="467.91885"
     cx="373.24265"
     gradientTransform="matrix(0.83535071,2.5391117e-7,-2.4564601e-7,0.80815889,783.12101,707.99698)"
     gradientUnits="userSpaceOnUse"
     id="radialGradient3718"
     xlink:href="#linearGradient5443"
     inkscape:collect="always" /><radialGradient
     r="333.18735"
     fy="467.91885"
     fx="373.24265"
     cy="467.91885"
     cx="373.24265"
     gradientTransform="matrix(0.9201975,2.7970099e-7,-2.7059634e-7,0.8902438,-163.70313,61.921561)"
     gradientUnits="userSpaceOnUse"
     id="radialGradient3703"
     xlink:href="#linearGradient5443"
     inkscape:collect="always" /><linearGradient
     y2="254.73526"
     x2="123.47623"
     y1="344.03848"
     x1="123.50603"
     gradientTransform="matrix(2.3189708,0,0,2.0930998,-99.17808,-231.54972)"
     gradientUnits="userSpaceOnUse"
     id="linearGradient3701"
     xlink:href="#linearGradient3187"
     inkscape:collect="always" /><radialGradient
     r="333.18735"
     fy="710.99164"
     fx="373.24265"
     cy="710.99164"
     cx="373.24265"
     gradientTransform="matrix(0.9503534,1.1750652e-7,-5.6287062e-8,0.3462676,-174.95857,375.55031)"
     gradientUnits="userSpaceOnUse"
     id="radialGradient3699"
     xlink:href="#linearGradient5443"
     inkscape:collect="always" /><radialGradient
     r="333.18735"
     fy="467.91885"
     fx="373.24265"
     cy="467.91885"
     cx="373.24265"
     gradientTransform="matrix(0.9201975,2.7970099e-7,-2.7059634e-7,0.8902438,-163.70313,61.921561)"
     gradientUnits="userSpaceOnUse"
     id="radialGradient3680"
     xlink:href="#linearGradient5443"
     inkscape:collect="always" /><linearGradient
     y2="254.73526"
     x2="123.47623"
     y1="344.03848"
     x1="123.50603"
     gradientTransform="matrix(2.3189708,0,0,2.0930998,-99.17808,-231.54972)"
     gradientUnits="userSpaceOnUse"
     id="linearGradient3678"
     xlink:href="#linearGradient3187"
     inkscape:collect="always" /><radialGradient
     r="333.18735"
     fy="710.99164"
     fx="373.24265"
     cy="710.99164"
     cx="373.24265"
     gradientTransform="matrix(0.9503534,1.1750652e-7,-5.6287062e-8,0.3462676,-174.95857,375.55031)"
     gradientUnits="userSpaceOnUse"
     id="radialGradient3676"
     xlink:href="#linearGradient5443"
     inkscape:collect="always" /><radialGradient
     r="333.18735"
     fy="467.91885"
     fx="373.24265"
     cy="467.91885"
     cx="373.24265"
     gradientTransform="matrix(0.9201975,2.7970099e-7,-2.7059634e-7,0.8902438,-163.70313,61.921561)"
     gradientUnits="userSpaceOnUse"
     id="radialGradient3654"
     xlink:href="#linearGradient5443"
     inkscape:collect="always" /><linearGradient
     y2="254.73526"
     x2="123.47623"
     y1="344.03848"
     x1="123.50603"
     gradientTransform="matrix(2.3189708,0,0,2.0930998,-99.17808,-231.54972)"
     gradientUnits="userSpaceOnUse"
     id="linearGradient3652"
     xlink:href="#linearGradient3187"
     inkscape:collect="always" /><radialGradient
     r="333.18735"
     fy="710.99164"
     fx="373.24265"
     cy="710.99164"
     cx="373.24265"
     gradientTransform="matrix(0.9503534,1.1750652e-7,-5.6287062e-8,0.3462676,-174.95857,375.55031)"
     gradientUnits="userSpaceOnUse"
     id="radialGradient3650"
     xlink:href="#linearGradient5443"
     inkscape:collect="always" /><radialGradient
     r="333.18735"
     fy="467.91885"
     fx="373.24265"
     cy="467.91885"
     cx="373.24265"
     gradientTransform="matrix(0.9201975,2.7970099e-7,-2.7059634e-7,0.8902438,-163.70313,61.921561)"
     gradientUnits="userSpaceOnUse"
     id="radialGradient3627"
     xlink:href="#linearGradient5443"
     inkscape:collect="always" /><linearGradient
     y2="254.73526"
     x2="123.47623"
     y1="344.03848"
     x1="123.50603"
     gradientTransform="matrix(2.3189708,0,0,2.0930998,-99.17808,-231.54972)"
     gradientUnits="userSpaceOnUse"
     id="linearGradient3625"
     xlink:href="#linearGradient3187"
     inkscape:collect="always" /><radialGradient
     r="333.18735"
     fy="710.99164"
     fx="373.24265"
     cy="710.99164"
     cx="373.24265"
     gradientTransform="matrix(0.9503534,1.1750652e-7,-5.6287062e-8,0.3462676,-174.95857,375.55031)"
     gradientUnits="userSpaceOnUse"
     id="radialGradient3623"
     xlink:href="#linearGradient5443"
     inkscape:collect="always" /><radialGradient
     r="333.18735"
     fy="467.91885"
     fx="373.24265"
     cy="467.91885"
     cx="373.24265"
     gradientTransform="matrix(0.9201975,2.7970099e-7,-2.7059634e-7,0.8902438,-163.70313,61.921561)"
     gradientUnits="userSpaceOnUse"
     id="radialGradient3599"
     xlink:href="#linearGradient5443"
     inkscape:collect="always" /><linearGradient
     y2="254.73526"
     x2="123.47623"
     y1="344.03848"
     x1="123.50603"
     gradientTransform="matrix(2.3189708,0,0,2.0930998,-99.17808,-231.54972)"
     gradientUnits="userSpaceOnUse"
     id="linearGradient3597"
     xlink:href="#linearGradient3187"
     inkscape:collect="always" /><radialGradient
     r="333.18735"
     fy="710.99164"
     fx="373.24265"
     cy="710.99164"
     cx="373.24265"
     gradientTransform="matrix(0.9503534,1.1750652e-7,-5.6287062e-8,0.3462676,-174.95857,375.55031)"
     gradientUnits="userSpaceOnUse"
     id="radialGradient3595"
     xlink:href="#linearGradient5443"
     inkscape:collect="always" /><radialGradient
     r="333.18735"
     fy="467.91885"
     fx="373.24265"
     cy="467.91885"
     cx="373.24265"
     gradientTransform="matrix(0.9201975,2.7970099e-7,-2.7059634e-7,0.8902438,-163.70313,61.921561)"
     gradientUnits="userSpaceOnUse"
     id="radialGradient3525"
     xlink:href="#linearGradient5443"
     inkscape:collect="always" /><linearGradient
     y2="254.73526"
     x2="123.47623"
     y1="344.03848"
     x1="123.50603"
     gradientTransform="matrix(2.3189708,0,0,2.0930998,-99.17808,-231.54972)"
     gradientUnits="userSpaceOnUse"
     id="linearGradient3523"
     xlink:href="#linearGradient3187"
     inkscape:collect="always" /><radialGradient
     r="333.18735"
     fy="710.99164"
     fx="373.24265"
     cy="710.99164"
     cx="373.24265"
     gradientTransform="matrix(0.9503534,1.1750652e-7,-5.6287062e-8,0.3462676,-174.95857,375.55031)"
     gradientUnits="userSpaceOnUse"
     id="radialGradient3521"
     xlink:href="#linearGradient5443"
     inkscape:collect="always" /><radialGradient
     r="333.18735"
     fy="467.91885"
     fx="373.24265"
     cy="467.91885"
     cx="373.24265"
     gradientTransform="matrix(0.9201975,2.7970099e-7,-2.7059634e-7,0.8902438,-163.70313,61.921561)"
     gradientUnits="userSpaceOnUse"
     id="radialGradient3497"
     xlink:href="#linearGradient5443"
     inkscape:collect="always" /><linearGradient
     y2="254.73526"
     x2="123.47623"
     y1="344.03848"
     x1="123.50603"
     gradientTransform="matrix(2.3189708,0,0,2.0930998,-99.17808,-231.54972)"
     gradientUnits="userSpaceOnUse"
     id="linearGradient3495"
     xlink:href="#linearGradient3187"
     inkscape:collect="always" /><radialGradient
     r="333.18735"
     fy="710.99164"
     fx="373.24265"
     cy="710.99164"
     cx="373.24265"
     gradientTransform="matrix(0.9503534,1.1750652e-7,-5.6287062e-8,0.3462676,-174.95857,375.55031)"
     gradientUnits="userSpaceOnUse"
     id="radialGradient3493"
     xlink:href="#linearGradient5443"
     inkscape:collect="always" /><linearGradient
     id="linearGradient5443"><stop
       id="stop5445"
       offset="0"
       style="stop-color:#ffffff;stop-opacity:0;" /><stop
       id="stop5447"
       offset="1"
       style="stop-color:#000000;stop-opacity:0.33962265;" /></linearGradient><linearGradient
     id="linearGradient3157"><stop
       style="stop-color:#49bcff;stop-opacity:1;"
       offset="0"
       id="stop3159" /><stop
       style="stop-color:#494c96;stop-opacity:1;"
       offset="1"
       id="stop3161" /></linearGradient><linearGradient
     id="linearGradient3171"><stop
       id="stop3173"
       offset="0"
       style="stop-color:#49bcff;stop-opacity:1;" /><stop
       id="stop3175"
       offset="1"
       style="stop-color:#494cdc;stop-opacity:1;" /></linearGradient><linearGradient
     id="linearGradient3187"><stop
       style="stop-color:#ffffff;stop-opacity:0.39622641;"
       offset="0"
       id="stop3189" /><stop
       style="stop-color:#000000;stop-opacity:1;"
       offset="1"
       id="stop3191" /></linearGradient><linearGradient
     id="linearGradient4395"><stop
       style="stop-color:#110084;stop-opacity:1;"
       offset="0"
       id="stop4397" /><stop
       style="stop-color:#a695ff;stop-opacity:1;"
       offset="1"
       id="stop4399" /></linearGradient><linearGradient
     id="linearGradient4383"><stop
       style="stop-color:#00037f;stop-opacity:1;"
       offset="0"
       id="stop4385" /><stop
       style="stop-color:#00037f;stop-opacity:0;"
       offset="1"
       id="stop4387" /></linearGradient><inkscape:perspective
     sodipodi:type="inkscape:persp3d"
     inkscape:vp_x="0 : 526.18109 : 1"
     inkscape:vp_y="0 : 1000 : 0"
     inkscape:vp_z="744.09448 : 526.18109 : 1"
     inkscape:persp3d-origin="372.04724 : 350.78739 : 1"
     id="perspective3214" /><linearGradient
     inkscape:collect="always"
     xlink:href="#linearGradient4383"
     id="linearGradient4389"
     x1="371.42194"
     y1="298.59412"
     x2="396.91168"
     y2="655.4505"
     gradientUnits="userSpaceOnUse" /><linearGradient
     inkscape:collect="always"
     xlink:href="#linearGradient4395"
     id="linearGradient4401"
     x1="360.49777"
     y1="167.50403"
     x2="360.49777"
     y2="540.86719"
     gradientUnits="userSpaceOnUse" /><linearGradient
     inkscape:collect="always"
     xlink:href="#linearGradient3187"
     id="linearGradient4562"
     gradientUnits="userSpaceOnUse"
     gradientTransform="matrix(2.3189708,0,0,2.0930998,93.115298,-256.84999)"
     x1="123.50603"
     y1="344.03848"
     x2="123.47623"
     y2="254.73526" /><radialGradient
     inkscape:collect="always"
     xlink:href="#linearGradient3171"
     id="radialGradient4569"
     gradientUnits="userSpaceOnUse"
     gradientTransform="matrix(0.9201975,2.7970099e-7,-2.7059634e-7,0.8902438,28.590287,48.634335)"
     cx="373.24265"
     cy="467.91885"
     fx="373.24265"
     fy="467.91885"
     r="333.18735" /><radialGradient
     inkscape:collect="always"
     xlink:href="#linearGradient3157"
     id="radialGradient4572"
     gradientUnits="userSpaceOnUse"
     gradientTransform="matrix(0.9503534,1.1750652e-7,-5.6287062e-8,0.3462676,17.334826,362.44227)"
     cx="373.24265"
     cy="710.99164"
     fx="373.24265"
     fy="710.99164"
     r="333.18735" /><filter
     inkscape:collect="always"
     id="filter4659"
     color-interpolation-filters="sRGB"><feGaussianBlur
       inkscape:collect="always"
       stdDeviation="2.7750933"
       id="feGaussianBlur4661" /></filter><radialGradient
     inkscape:collect="always"
     xlink:href="#linearGradient3157"
     id="radialGradient4766"
     gradientUnits="userSpaceOnUse"
     gradientTransform="matrix(0.9503534,1.1750652e-7,-5.6287062e-8,0.3462676,17.334826,362.44227)"
     cx="373.24265"
     cy="710.99164"
     fx="373.24265"
     fy="710.99164"
     r="333.18735" /><radialGradient
     inkscape:collect="always"
     xlink:href="#linearGradient3171"
     id="radialGradient4768"
     gradientUnits="userSpaceOnUse"
     gradientTransform="matrix(0.9201975,2.7970099e-7,-2.7059634e-7,0.8902438,28.590287,48.634335)"
     cx="373.24265"
     cy="467.91885"
     fx="373.24265"
     fy="467.91885"
     r="333.18735" /><linearGradient
     inkscape:collect="always"
     xlink:href="#linearGradient3187"
     id="linearGradient4770"
     gradientUnits="userSpaceOnUse"
     gradientTransform="matrix(2.3189708,0,0,2.0930998,93.115298,-256.84999)"
     x1="123.50603"
     y1="344.03848"
     x2="123.47623"
     y2="254.73526" /><linearGradient
     inkscape:collect="always"
     xlink:href="#linearGradient3187"
     id="linearGradient4773"
     gradientUnits="userSpaceOnUse"
     gradientTransform="matrix(2.3189708,0,0,2.0930998,93.115298,-256.84999)"
     x1="123.50603"
     y1="344.03848"
     x2="123.47623"
     y2="254.73526" /><radialGradient
     inkscape:collect="always"
     xlink:href="#linearGradient3171"
     id="radialGradient4776"
     gradientUnits="userSpaceOnUse"
     gradientTransform="matrix(0.9201975,2.7970099e-7,-2.7059634e-7,0.8902438,28.590287,48.634335)"
     cx="373.24265"
     cy="467.91885"
     fx="373.24265"
     fy="467.91885"
     r="333.18735" /><radialGradient
     inkscape:collect="always"
     xlink:href="#linearGradient3157"
     id="radialGradient4779"
     gradientUnits="userSpaceOnUse"
     gradientTransform="matrix(0.9503534,1.1750652e-7,-5.6287062e-8,0.3462676,17.334826,362.44227)"
     cx="373.24265"
     cy="710.99164"
     fx="373.24265"
     fy="710.99164"
     r="333.18735" /><radialGradient
     inkscape:collect="always"
     xlink:href="#linearGradient3157"
     id="radialGradient4790"
     gradientUnits="userSpaceOnUse"
     gradientTransform="matrix(0.9503534,1.1750652e-7,-5.6287062e-8,0.3462676,17.334826,362.44227)"
     cx="373.24265"
     cy="710.99164"
     fx="373.24265"
     fy="710.99164"
     r="333.18735" /><radialGradient
     inkscape:collect="always"
     xlink:href="#linearGradient3171"
     id="radialGradient4792"
     gradientUnits="userSpaceOnUse"
     gradientTransform="matrix(0.9201975,2.7970099e-7,-2.7059634e-7,0.8902438,28.590287,48.634335)"
     cx="373.24265"
     cy="467.91885"
     fx="373.24265"
     fy="467.91885"
     r="333.18735" /><linearGradient
     inkscape:collect="always"
     xlink:href="#linearGradient3187"
     id="linearGradient4794"
     gradientUnits="userSpaceOnUse"
     gradientTransform="matrix(2.3189708,0,0,2.0930998,93.115298,-256.84999)"
     x1="123.50603"
     y1="344.03848"
     x2="123.47623"
     y2="254.73526" /><linearGradient
     inkscape:collect="always"
     xlink:href="#linearGradient3187"
     id="linearGradient4799"
     gradientUnits="userSpaceOnUse"
     gradientTransform="matrix(2.3189708,0,0,2.0930998,93.115298,-256.84999)"
     x1="123.50603"
     y1="344.03848"
     x2="123.47623"
     y2="254.73526" /><radialGradient
     inkscape:collect="always"
     xlink:href="#linearGradient3171"
     id="radialGradient4802"
     gradientUnits="userSpaceOnUse"
     gradientTransform="matrix(0.9201975,2.7970099e-7,-2.7059634e-7,0.8902438,28.590287,48.634335)"
     cx="373.24265"
     cy="467.91885"
     fx="373.24265"
     fy="467.91885"
     r="333.18735" /><radialGradient
     inkscape:collect="always"
     xlink:href="#linearGradient3157"
     id="radialGradient4805"
     gradientUnits="userSpaceOnUse"
     gradientTransform="matrix(0.9503534,1.1750652e-7,-5.6287062e-8,0.3462676,17.334826,362.44227)"
     cx="373.24265"
     cy="710.99164"
     fx="373.24265"
     fy="710.99164"
     r="333.18735" /><radialGradient
     inkscape:collect="always"
     xlink:href="#linearGradient3157"
     id="radialGradient4820"
     gradientUnits="userSpaceOnUse"
     gradientTransform="matrix(0.9503534,1.1750652e-7,-5.6287062e-8,0.3462676,17.334826,362.44227)"
     cx="373.24265"
     cy="710.99164"
     fx="373.24265"
     fy="710.99164"
     r="333.18735" /><radialGradient
     inkscape:collect="always"
     xlink:href="#linearGradient3171"
     id="radialGradient4822"
     gradientUnits="userSpaceOnUse"
     gradientTransform="matrix(0.9201975,2.7970099e-7,-2.7059634e-7,0.8902438,28.590287,48.634335)"
     cx="373.24265"
     cy="467.91885"
     fx="373.24265"
     fy="467.91885"
     r="333.18735" /><linearGradient
     inkscape:collect="always"
     xlink:href="#linearGradient3187"
     id="linearGradient4824"
     gradientUnits="userSpaceOnUse"
     gradientTransform="matrix(2.3189708,0,0,2.0930998,93.115298,-256.84999)"
     x1="123.50603"
     y1="344.03848"
     x2="123.47623"
     y2="254.73526" /><linearGradient
     inkscape:collect="always"
     xlink:href="#linearGradient3187"
     id="linearGradient4827"
     gradientUnits="userSpaceOnUse"
     gradientTransform="matrix(2.3189708,0,0,2.0930998,-99.17808,-231.54972)"
     x1="123.50603"
     y1="344.03848"
     x2="123.47623"
     y2="254.73526" /><radialGradient
     inkscape:collect="always"
     xlink:href="#linearGradient5443"
     id="radialGradient4832"
     gradientUnits="userSpaceOnUse"
     gradientTransform="matrix(0.9201975,2.7970099e-7,-2.7059634e-7,0.8902438,-163.70313,61.921561)"
     cx="373.24265"
     cy="467.91885"
     fx="373.24265"
     fy="467.91885"
     r="333.18735" /><radialGradient
     inkscape:collect="always"
     xlink:href="#linearGradient5443"
     id="radialGradient4835"
     gradientUnits="userSpaceOnUse"
     gradientTransform="matrix(0.9503534,1.1750652e-7,-5.6287062e-8,0.3462676,-174.95857,375.55031)"
     cx="373.24265"
     cy="710.99164"
     fx="373.24265"
     fy="710.99164"
     r="333.18735" /><filter
     inkscape:collect="always"
     id="filter5511"
     color-interpolation-filters="sRGB"><feGaussianBlur
       inkscape:collect="always"
       stdDeviation="3.2374974"
       id="feGaussianBlur5513" /></filter><radialGradient
     inkscape:collect="always"
     xlink:href="#linearGradient5443-5"
     id="radialGradient4835-3"
     gradientUnits="userSpaceOnUse"
     gradientTransform="matrix(0.9503534,1.1750652e-7,-5.6287062e-8,0.3462676,317.80591,185.68771)"
     cx="373.24265"
     cy="710.99164"
     fx="373.24265"
     fy="710.99164"
     r="333.18735" /><linearGradient
     id="linearGradient5443-5"><stop
       id="stop5445-4"
       offset="0"
       style="stop-color:#ffffff;stop-opacity:0;" /><stop
       id="stop5447-3"
       offset="1"
       style="stop-color:#000000;stop-opacity:0.33962265;" /></linearGradient><radialGradient
     inkscape:collect="always"
     xlink:href="#linearGradient5443"
     id="radialGradient3272"
     gradientUnits="userSpaceOnUse"
     gradientTransform="matrix(0.9503534,1.1750652e-7,-5.6287062e-8,0.3462676,-174.95857,375.55031)"
     cx="373.24265"
     cy="710.99164"
     fx="373.24265"
     fy="710.99164"
     r="333.18735" /><linearGradient
     inkscape:collect="always"
     xlink:href="#linearGradient3187"
     id="linearGradient3274"
     gradientUnits="userSpaceOnUse"
     gradientTransform="matrix(2.3189708,0,0,2.0930998,-99.17808,-231.54972)"
     x1="123.50603"
     y1="344.03848"
     x2="123.47623"
     y2="254.73526" /><radialGradient
     inkscape:collect="always"
     xlink:href="#linearGradient5443"
     id="radialGradient3276"
     gradientUnits="userSpaceOnUse"
     gradientTransform="matrix(0.9201975,2.7970099e-7,-2.7059634e-7,0.8902438,-163.70313,61.921561)"
     cx="373.24265"
     cy="467.91885"
     fx="373.24265"
     fy="467.91885"
     r="333.18735" /></defs><sodipodi:namedview
   pagecolor="#ffffff"
   bordercolor="#666666"
   borderopacity="1"
   objecttolerance="10"
   gridtolerance="10"
   guidetolerance="10"
   inkscape:pageopacity="0"
   inkscape:pageshadow="2"
   inkscape:window-width="1920"
   inkscape:window-height="1068"
   id="namedview30"
   showgrid="false"
   inkscape:zoom="0.84281414"
   inkscape:cx="-36.403266"
   inkscape:cy="187.77441"
   inkscape:window-x="0"
   inkscape:window-y="0"
   inkscape:window-maximized="1"
   inkscape:current-layer="_x31_"
   fit-margin-top="0"
   fit-margin-left="0"
   fit-margin-right="0"
   fit-margin-bottom="0" />








<g
   id="g3293"
   transform="translate(-4.0524846e-6,3.5529445e-6)"><rect
     inkscape:export-ydpi="29.879425"
     inkscape:export-xdpi="29.879425"
     inkscape:export-filename="C:\Documents and Settings\adscro24\Desktop\128.png"
     style="opacity:0.61338286;fill:#464646;fill-opacity:0.78540775;stroke:none;filter:url(#filter4659)"
     id="rect3279"
     width="152.93848"
     height="152.93848"
     x="135.39355"
     y="48.636749"
     rx="16.067965"
     ry="12.45238"
     transform="matrix(2.1051501,0,0,2.1051501,-271.00298,-88.36689)" /><rect
     inkscape:export-ydpi="29.879425"
     inkscape:export-xdpi="29.879425"
     inkscape:export-filename="C:\Documents and Settings\adscro24\Desktop\128.png"
     style="opacity:0.61338286;fill:url(#radialGradient3092);fill-opacity:1;stroke:#000000;stroke-width:3.26806188;stroke-miterlimit:4;stroke-opacity:1;stroke-dasharray:none"
     id="rect3155"
     width="321.95847"
     height="321.95847"
     x="14.020748"
     y="14.020716"
     rx="33.825481"
     ry="26.21413" /><path
     transform="matrix(0.90779502,0,0,0.90779502,11.82035,-259.3651)"
     inkscape:export-ydpi="29.879425"
     inkscape:export-xdpi="29.879425"
     inkscape:export-filename="C:\Documents and Settings\adscro24\Desktop\128.png"
     inkscape:connector-curvature="0"
     style="opacity:0.61338286;fill:url(#linearGradient3734);fill-opacity:1;stroke:none;filter:url(#filter5511)"
     d="m 46.58172,323.34879 c -19.62748,0 -35.44272,12.0976 -35.44272,27.14163 l 0,124.30857 c 29.25482,11.38638 132.70149,11.89599 165.40488,-5.79022 33.32802,-18.02397 127.54379,-68.44264 171.82484,-52.72052 l 0,-65.79783 c 0,-15.04403 -15.7986,-27.14163 -35.4261,-27.14163 l -266.3609,0 z M 11.139,586.81982 l 0,42.88373 c 0,1.33144 0.14331,2.63588 0.38253,3.915 -0.11919,-12.81092 -0.25965,-28.88939 -0.38253,-46.79873 z"
     id="rect3177" /><rect
     inkscape:export-ydpi="29.879425"
     inkscape:export-xdpi="29.879425"
     inkscape:export-filename="C:\Documents and Settings\adscro24\Desktop\128.png"
     style="opacity:0.61338286;fill:url(#radialGradient3088);fill-opacity:1;stroke:#ffffff;stroke-width:0.68992418;stroke-linecap:square;stroke-miterlimit:4;stroke-opacity:1;stroke-dasharray:none"
     id="rect3473"
     width="306.12445"
     height="306.12445"
     x="21.937801"
     y="21.937769"
     rx="32.161926"
     ry="24.924913" /><rect
     inkscape:export-ydpi="29.879425"
     inkscape:export-xdpi="29.879425"
     inkscape:export-filename="C:\Documents and Settings\adscro24\Desktop\128.png"
     style="opacity:0.61338286;fill:#ffffff;fill-opacity:0;stroke:#000000;stroke-width:3.26806188;stroke-miterlimit:4;stroke-opacity:1;stroke-dasharray:none"
     id="rect3155-2"
     width="321.95847"
     height="321.95847"
     x="14.020748"
     y="14.020716"
     rx="33.825481"
     ry="26.21413" /><g
     transform="translate(400.39145,135.8211)"
     style="fill:#000000;fill-opacity:1;stroke:none"
     id="LWPOLYLINE_2_-2">
	
		
</g></g><g
   id="g2995"
   transform="matrix(0.45952469,0,0,0.45952469,34.469332,-6.9717864)"><g
     style="fill:#000000;fill-opacity:1;stroke:none"
     id="LWPOLYLINE_4_">
	
		<path
   id="polygon16"
   d="m 79.34375,196 -80,80 0,240 80,80 346.65625,0 80,-80 0,-240 -80,-80 -160,0 -186.65625,0 z M 106,222.65625 l 292.28125,0 0,346.6875 -292.28125,0 0,-346.6875 z m -26.65625,11.75 0,323.21875 L 26,504.28125 26,395.46875 26,286.6875 79.34375,234.40625 z m 346.65625,0 53.34375,52.28125 0,108.78125 0,109.84375 L 426,557.625 426,234.40625 z"
   style="fill:#000000;fill-opacity:1;stroke:none"
   inkscape:connector-curvature="0" />
</g><g
     id="LWPOLYLINE">
	
		<path
   id="polyline4"
   d="m 79.333,196 -80,80 0,240 80,80"
   style="fill:none;stroke:#000000;stroke-width:0.7087;stroke-linecap:round;stroke-linejoin:round;stroke-miterlimit:10"
   inkscape:connector-curvature="0" />
</g><g
     id="LWPOLYLINE_1_">
	
		
</g><g
     id="LWPOLYLINE_2_">
	
		
</g><g
     id="LWPOLYLINE_3_">
	
		
</g><g
     transform="matrix(1.0194679,0,0,1,-11.927153,0)"
     style="fill:#000000;fill-opacity:1;stroke:none"
     id="LWPOLYLINE_5_">
	
		<path
   inkscape:connector-curvature="0"
   id="rect19"
   d="m 506,342.15625 0,26.65625 80,0 0,53.34375 -80,0 0,26.65625 106.65625,0 0,-106.65625 -106.65625,0 z"
   style="fill:#000000;fill-opacity:1;stroke:none" />
</g><g
     id="LWPOLYLINE_6_">
	
		
</g><g
     style="fill:#000000;fill-opacity:1;stroke:none"
     id="LWPOLYLINE_7_">
	
		<path
   style="fill:#000000;fill-opacity:1;stroke:none"
   id="path25"
   d="m 198.812,315.688 1.562,-0.599 1.536,-0.547 1.511,-0.547 1.484,-0.495 1.484,-0.494 1.431,-0.444 1.406,-0.416 1.406,-0.417 1.354,-0.364 1.355,-0.339 1.301,-0.339 1.302,-0.312 1.25,-0.286 1.225,-0.261 1.197,-0.234 1.172,-0.234 1.147,-0.208 1.094,-0.208 1.094,-0.156 1.041,-0.156 1.016,-0.156 0.964,-0.131 0.964,-0.103 0.911,-0.105 0.886,-0.104 0.833,-0.078 0.833,-0.052 0.781,-0.078 0.729,-0.051 0.703,-0.027 0.677,-0.051 0.625,-0.027 h 0.6 l 0.572,-0.026 0.522,-0.025 h 0.469 0.442 0.391 0.364 0.339 0.625 0.73 0.806 l 0.886,0.025 0.964,0.026 1.016,0.052 1.067,0.053 1.121,0.103 1.172,0.104 1.223,0.13 1.25,0.156 1.302,0.183 1.303,0.234 1.328,0.261 1.353,0.312 1.381,0.364 1.353,0.391 1.381,0.442 1.353,0.522 1.354,0.547 1.355,0.625 1.301,0.676 1.302,0.73 1.276,0.806 1.224,0.886 1.172,0.964 1.147,1.016 1.094,1.119 1.041,1.172 0.964,1.276 0.911,1.38 0.834,1.459 0.728,1.536 0.678,1.641 0.572,1.746 0.495,1.848 0.391,1.953 0.286,2.058 0.156,2.188 0.078,2.266 -0.025,1.275 -0.053,1.276 -0.103,1.25 -0.131,1.224 -0.156,1.225 -0.234,1.197 -0.234,1.198 -0.286,1.172 -0.339,1.199 -0.364,1.172 -0.417,1.172 -0.442,1.172 -0.495,1.197 -0.521,1.172 -0.573,1.172 -0.625,1.198 -0.65,1.172 -0.703,1.224 -0.73,1.198 -0.808,1.224 -0.806,1.225 -0.886,1.25 -0.911,1.275 -0.964,1.276 -0.989,1.328 -1.042,1.328 -1.094,1.328 -1.145,1.38 -1.172,1.406 -1.225,1.433 -1.275,1.458 -1.328,1.484 -1.381,1.511 -1.406,1.562 -1.458,1.589 -1.511,1.614 -1.536,1.667 -1.614,1.719 -1.667,1.744 -1.692,1.797 -1.172,1.172 -1.094,1.147 -1.069,1.094 -0.989,1.041 -0.938,0.99 -0.911,0.938 -0.834,0.938 -0.781,0.833 -0.755,0.886 -0.703,0.781 -0.651,0.781 -0.599,0.781 -0.573,0.729 -0.521,0.678 -0.495,0.677 -0.442,0.677 -0.417,0.625 -0.391,0.625 -0.337,0.625 -0.312,0.625 -0.288,0.573 -0.259,0.625 -0.236,0.568 -0.209,0.625 -0.156,0.572 -0.156,0.625 -0.156,0.573 -0.103,0.625 -0.105,0.625 -0.078,0.625 -0.078,0.677 -0.051,0.625 -0.053,0.729 -0.025,0.677 -0.027,0.729 v 0.781 0.781 l -0.026,0.833 v 0.834 0.885 c 0,0.261 0,0.521 0,0.521 v 0.364 0.469 0.573 0.625 0.729 0.781 0.834 0.938 0.938 0.989 1.042 1.094 1.146 1.094 1.198 1.146 1.146 1.198 1.146 1.146 1.146 1.146 1.042 1.094 0.989 0.938 0.938 0.834 0.781 0.729 0.625 0.573 0.469 0.364 0.261 c 0.183,0.261 0.417,0.261 0.417,0.261 h 0.286 0.366 0.469 0.494 0.573 0.625 0.677 0.729 0.755 0.808 0.859 0.859 0.886 0.911 0.911 0.938 0.938 0.938 0.938 0.913 0.911 0.886 0.859 0.833 0.808 0.781 0.728 0.678 0.625 0.572 0.495 0.442 0.391 0.288 c 0.234,0 0.364,0 0.364,0 0.052,-0.261 0.052,-0.521 0.052,-0.521 v -0.364 -0.469 -0.573 -0.625 -0.729 -0.781 -0.834 -0.938 -0.938 -0.989 -1.094 -1.042 -1.146 -1.146 -1.146 -1.146 -1.198 -1.146 -1.146 -1.198 -1.094 -1.146 -1.094 -1.042 -0.989 -0.938 -0.938 -0.834 -0.781 -0.729 -0.625 -0.573 -0.469 -0.364 -0.261 c 0,-0.261 0,-0.521 0,-0.521 v -0.312 -0.261 l 0.026,-0.312 v -0.261 c 0.027,-0.26 0.052,-0.521 0.052,-0.521 0.026,-0.261 0.053,-0.521 0.053,-0.521 0.051,-0.209 0.078,-0.469 0.078,-0.469 0.051,-0.209 0.103,-0.469 0.103,-0.469 0.053,-0.209 0.104,-0.469 0.104,-0.469 0.052,-0.209 0.105,-0.417 0.105,-0.417 0.078,-0.208 0.156,-0.417 0.156,-0.417 0.051,-0.208 0.129,-0.416 0.129,-0.416 0.078,-0.209 0.183,-0.417 0.183,-0.417 0.078,-0.208 0.181,-0.417 0.181,-0.417 0.078,-0.208 0.183,-0.364 0.183,-0.364 0.105,-0.208 0.208,-0.417 0.208,-0.417 0.104,-0.208 0.234,-0.416 0.234,-0.416 0.104,-0.209 0.234,-0.417 0.234,-0.417 0.131,-0.208 0.261,-0.417 0.261,-0.417 0.13,-0.208 0.261,-0.416 0.261,-0.416 0.129,-0.209 0.286,-0.469 0.286,-0.469 0.183,-0.261 0.261,-0.312 0.261,-0.312 0.129,-0.156 0.312,-0.365 0.312,-0.365 0.234,-0.208 0.494,-0.521 0.494,-0.521 l 0.312,-0.312 0.339,-0.364 0.364,-0.417 0.417,-0.469 0.442,-0.469 0.469,-0.469 0.495,-0.573 0.521,-0.521 0.522,-0.573 0.547,-0.572 0.547,-0.625 0.572,-0.573 0.573,-0.625 0.574,-0.625 0.598,-0.625 0.574,-0.625 0.572,-0.625 0.573,-0.625 0.574,-0.573 0.547,-0.625 0.52,-0.572 0.521,-0.521 0.495,-0.572 0.496,-0.521 0.442,-0.469 0.417,-0.416 0.391,-0.417 0.364,-0.417 0.312,-0.312 0.286,-0.312 c 0.261,-0.26 0.444,-0.469 0.444,-0.469 0.259,-0.26 2.109,-2.134 2.109,-2.134 l 1.797,-1.824 1.744,-1.745 1.694,-1.719 1.641,-1.692 1.587,-1.641 1.538,-1.589 1.484,-1.562 1.431,-1.536 1.381,-1.511 1.353,-1.484 1.276,-1.431 1.25,-1.433 1.199,-1.406 1.145,-1.406 1.094,-1.379 1.042,-1.355 0.989,-1.354 0.964,-1.353 0.884,-1.328 0.859,-1.355 0.808,-1.354 0.781,-1.328 0.703,-1.353 0.677,-1.355 0.625,-1.379 0.6,-1.381 0.521,-1.406 0.52,-1.431 0.418,-1.433 0.417,-1.458 0.364,-1.484 0.312,-1.511 0.261,-1.562 0.259,-1.589 0.156,-1.614 0.156,-1.667 0.105,-1.692 0.051,-1.745 0.054,-1.797 v -0.962 l -0.054,-0.991 -0.051,-0.962 -0.052,-0.991 -0.104,-0.962 -0.105,-0.938 -0.103,-0.964 -0.156,-0.964 -0.104,-0.938 -0.208,-0.938 -0.156,-0.938 -0.21,-0.911 -0.207,-0.938 -0.262,-0.911 -0.259,-0.913 -0.261,-0.884 -0.262,-0.913 -0.312,-0.884 -0.312,-0.886 -0.312,-0.859 -0.364,-0.859 -0.364,-0.859 -0.366,-0.859 -0.391,-0.833 -0.416,-0.834 -0.417,-0.833 -0.417,-0.808 -0.442,-0.833 -0.469,-0.781 -0.469,-0.781 -0.495,-0.781 -0.494,-0.781 -0.496,-0.754 -0.52,-0.756 -0.547,-0.728 -0.547,-0.73 -0.547,-0.729 -0.574,-0.703 -0.598,-0.703 -0.6,-0.677 -0.911,-0.989 -0.938,-0.938 -0.964,-0.913 -0.989,-0.884 -1.016,-0.886 -1.042,-0.833 -1.067,-0.808 -1.094,-0.781 -1.12,-0.781 -1.146,-0.729 -1.172,-0.703 -1.198,-0.677 -1.197,-0.676 -1.25,-0.625 -1.277,-0.6 -1.301,-0.599 -1.303,-0.547 -1.353,-0.547 -1.381,-0.495 -1.38,-0.494 -1.406,-0.469 -1.458,-0.444 -1.459,-0.391 -1.484,-0.391 -1.509,-0.364 -1.562,-0.339 -1.562,-0.312 -1.562,-0.286 -1.616,-0.286 -1.641,-0.234 -1.641,-0.209 -1.692,-0.208 -1.692,-0.183 -1.746,-0.13 -1.745,-0.129 -1.771,-0.105 -1.797,-0.078 -1.797,-0.051 -1.848,-0.053 h -1.875 -1.538 l -1.536,0.026 -1.511,0.027 -1.458,0.051 -1.458,0.078 -1.406,0.052 -1.381,0.104 -1.353,0.078 -1.328,0.13 -1.303,0.104 -1.275,0.13 -1.25,0.131 -1.225,0.156 -1.197,0.156 -1.172,0.156 -1.147,0.156 -1.119,0.181 -1.094,0.183 -1.069,0.183 -1.041,0.181 -1.016,0.183 -0.991,0.208 -0.962,0.183 -0.964,0.208 -0.911,0.209 -0.913,0.181 -0.859,0.209 -0.859,0.208 -0.833,0.208 -0.808,0.183 -0.806,0.208 -0.756,0.183 -0.755,0.208 -0.729,0.183 -0.703,0.183 -0.677,0.181 -0.676,0.183 -0.652,0.156 -0.625,0.156 -0.598,0.156 v 27.235 z"
   stroke-miterlimit="10"
   inkscape:connector-curvature="0" />
</g><g
     style="fill:#000000;fill-opacity:1;stroke:none"
     id="LWPOLYLINE_8_">
	
		<path
   style="fill:#000000;fill-opacity:1;stroke:none"
   id="path28"
   d="m 226.781,504.281 c 0.234,0 0.52,0 0.52,0 h 0.364 0.495 0.574 0.65 0.729 0.808 0.859 0.938 0.962 1.042 1.067 1.12 1.121 1.172 1.172 1.197 1.198 1.199 1.197 1.172 1.172 1.147 1.094 1.067 1.042 0.989 0.911 0.886 0.781 0.73 0.676 0.547 0.496 0.364 0.286 c 0.234,-0.26 0.234,-0.521 0.234,-0.521 v -0.364 -0.417 -0.573 -0.572 -0.729 -0.729 -0.833 -0.886 -0.938 -0.938 -1.041 -1.042 -1.094 -1.094 -1.094 -1.146 -1.146 -1.146 -1.094 -1.146 -1.094 -1.042 -1.042 -1.041 -0.99 -0.938 -0.833 -0.833 -0.781 -0.678 -0.625 -0.521 -0.469 -0.364 -0.261 c -0.234,-0.208 -0.521,-0.208 -0.521,-0.208 h -0.364 -0.496 -0.547 -0.676 -0.73 -0.781 -0.886 -0.911 -0.989 -1.042 -1.067 -1.094 -1.147 -1.172 -1.172 -1.197 -1.199 -1.198 -1.197 -1.172 -1.172 -1.121 -1.12 -1.067 -1.042 -0.962 -0.938 -0.859 -0.808 -0.729 -0.65 -0.574 -0.495 -0.364 -0.286 c -0.233,0.003 -0.233,30.263 -0.233,30.263 z"
   stroke-miterlimit="10"
   inkscape:connector-curvature="0" />
</g></g>
</svg>