<?xml version="1.0" encoding="UTF-8" standalone="no"?>
<!-- Generator: Adobe Illustrator 16.0.1, SVG Export Plug-In . SVG Version: 6.00 Build 0)  -->

<svg
   xmlns:dc="http://purl.org/dc/elements/1.1/"
   xmlns:cc="http://creativecommons.org/ns#"
   xmlns:rdf="http://www.w3.org/1999/02/22-rdf-syntax-ns#"
   xmlns:svg="http://www.w3.org/2000/svg"
   xmlns="http://www.w3.org/2000/svg"
   xmlns:xlink="http://www.w3.org/1999/xlink"
   xmlns:sodipodi="http://sodipodi.sourceforge.net/DTD/sodipodi-0.dtd"
   xmlns:inkscape="http://www.inkscape.org/namespaces/inkscape"
   version="1.0"
   id="_x31_"
   x="0px"
   y="0px"
   width="350"
   height="350"
   viewBox="0 0 350 350"
   enable-background="new 0 0 612 792"
   xml:space="preserve"
   inkscape:version="0.48.2 r9819"
   sodipodi:docname="7091.svg"><metadata
   id="metadata37"><rdf:RDF><cc:Work
       rdf:about=""><dc:format>image/svg+xml</dc:format><dc:type
         rdf:resource="http://purl.org/dc/dcmitype/StillImage" /></cc:Work></rdf:RDF></metadata><defs
   id="defs35"><radialGradient
     r="333.18735"
     fy="710.99164"
     fx="373.24265"
     cy="710.99164"
     cx="373.24265"
     gradientTransform="matrix(0.86272608,1.0667183e-7,-5.1097115e-8,0.31434,-147.00617,81.5576)"
     gradientUnits="userSpaceOnUse"
     id="radialGradient3092"
     xlink:href="#linearGradient5443"
     inkscape:collect="always" /><radialGradient
     r="333.18735"
     fy="467.91885"
     fx="373.24265"
     cy="467.91885"
     cx="373.24265"
     gradientTransform="matrix(0.83535071,2.5391117e-7,-2.4564601e-7,0.80815889,-136.78854,-203.15302)"
     gradientUnits="userSpaceOnUse"
     id="radialGradient3088"
     xlink:href="#linearGradient5443"
     inkscape:collect="always" /><radialGradient
     r="333.18735"
     fy="467.91885"
     fx="373.24265"
     cy="467.91885"
     cx="373.24265"
     gradientTransform="matrix(0.83535071,2.5391117e-7,-2.4564601e-7,0.80815889,783.12101,707.99698)"
     gradientUnits="userSpaceOnUse"
     id="radialGradient3736"
     xlink:href="#linearGradient5443"
     inkscape:collect="always" /><linearGradient
     y2="254.73526"
     x2="123.47623"
     y1="344.03848"
     x1="123.50603"
     gradientTransform="matrix(2.3189708,0,0,2.0930998,-99.17808,-231.54972)"
     gradientUnits="userSpaceOnUse"
     id="linearGradient3734"
     xlink:href="#linearGradient3187"
     inkscape:collect="always" /><radialGradient
     r="333.18735"
     fy="710.99164"
     fx="373.24265"
     cy="710.99164"
     cx="373.24265"
     gradientTransform="matrix(0.86272608,1.0667183e-7,-5.1097115e-8,0.31434,772.90338,992.7076)"
     gradientUnits="userSpaceOnUse"
     id="radialGradient3732"
     xlink:href="#linearGradient5443"
     inkscape:collect="always" /><radialGradient
     r="333.18735"
     fy="710.99164"
     fx="373.24265"
     cy="710.99164"
     cx="373.24265"
     gradientTransform="matrix(0.86272608,1.0667183e-7,-5.1097115e-8,0.31434,772.90338,992.7076)"
     gradientUnits="userSpaceOnUse"
     id="radialGradient3722"
     xlink:href="#linearGradient5443"
     inkscape:collect="always" /><radialGradient
     r="333.18735"
     fy="467.91885"
     fx="373.24265"
     cy="467.91885"
     cx="373.24265"
     gradientTransform="matrix(0.83535071,2.5391117e-7,-2.4564601e-7,0.80815889,783.12101,707.99698)"
     gradientUnits="userSpaceOnUse"
     id="radialGradient3718"
     xlink:href="#linearGradient5443"
     inkscape:collect="always" /><radialGradient
     r="333.18735"
     fy="467.91885"
     fx="373.24265"
     cy="467.91885"
     cx="373.24265"
     gradientTransform="matrix(0.9201975,2.7970099e-7,-2.7059634e-7,0.8902438,-163.70313,61.921561)"
     gradientUnits="userSpaceOnUse"
     id="radialGradient3703"
     xlink:href="#linearGradient5443"
     inkscape:collect="always" /><linearGradient
     y2="254.73526"
     x2="123.47623"
     y1="344.03848"
     x1="123.50603"
     gradientTransform="matrix(2.3189708,0,0,2.0930998,-99.17808,-231.54972)"
     gradientUnits="userSpaceOnUse"
     id="linearGradient3701"
     xlink:href="#linearGradient3187"
     inkscape:collect="always" /><radialGradient
     r="333.18735"
     fy="710.99164"
     fx="373.24265"
     cy="710.99164"
     cx="373.24265"
     gradientTransform="matrix(0.9503534,1.1750652e-7,-5.6287062e-8,0.3462676,-174.95857,375.55031)"
     gradientUnits="userSpaceOnUse"
     id="radialGradient3699"
     xlink:href="#linearGradient5443"
     inkscape:collect="always" /><radialGradient
     r="333.18735"
     fy="467.91885"
     fx="373.24265"
     cy="467.91885"
     cx="373.24265"
     gradientTransform="matrix(0.9201975,2.7970099e-7,-2.7059634e-7,0.8902438,-163.70313,61.921561)"
     gradientUnits="userSpaceOnUse"
     id="radialGradient3680"
     xlink:href="#linearGradient5443"
     inkscape:collect="always" /><linearGradient
     y2="254.73526"
     x2="123.47623"
     y1="344.03848"
     x1="123.50603"
     gradientTransform="matrix(2.3189708,0,0,2.0930998,-99.17808,-231.54972)"
     gradientUnits="userSpaceOnUse"
     id="linearGradient3678"
     xlink:href="#linearGradient3187"
     inkscape:collect="always" /><radialGradient
     r="333.18735"
     fy="710.99164"
     fx="373.24265"
     cy="710.99164"
     cx="373.24265"
     gradientTransform="matrix(0.9503534,1.1750652e-7,-5.6287062e-8,0.3462676,-174.95857,375.55031)"
     gradientUnits="userSpaceOnUse"
     id="radialGradient3676"
     xlink:href="#linearGradient5443"
     inkscape:collect="always" /><radialGradient
     r="333.18735"
     fy="467.91885"
     fx="373.24265"
     cy="467.91885"
     cx="373.24265"
     gradientTransform="matrix(0.9201975,2.7970099e-7,-2.7059634e-7,0.8902438,-163.70313,61.921561)"
     gradientUnits="userSpaceOnUse"
     id="radialGradient3654"
     xlink:href="#linearGradient5443"
     inkscape:collect="always" /><linearGradient
     y2="254.73526"
     x2="123.47623"
     y1="344.03848"
     x1="123.50603"
     gradientTransform="matrix(2.3189708,0,0,2.0930998,-99.17808,-231.54972)"
     gradientUnits="userSpaceOnUse"
     id="linearGradient3652"
     xlink:href="#linearGradient3187"
     inkscape:collect="always" /><radialGradient
     r="333.18735"
     fy="710.99164"
     fx="373.24265"
     cy="710.99164"
     cx="373.24265"
     gradientTransform="matrix(0.9503534,1.1750652e-7,-5.6287062e-8,0.3462676,-174.95857,375.55031)"
     gradientUnits="userSpaceOnUse"
     id="radialGradient3650"
     xlink:href="#linearGradient5443"
     inkscape:collect="always" /><radialGradient
     r="333.18735"
     fy="467.91885"
     fx="373.24265"
     cy="467.91885"
     cx="373.24265"
     gradientTransform="matrix(0.9201975,2.7970099e-7,-2.7059634e-7,0.8902438,-163.70313,61.921561)"
     gradientUnits="userSpaceOnUse"
     id="radialGradient3627"
     xlink:href="#linearGradient5443"
     inkscape:collect="always" /><linearGradient
     y2="254.73526"
     x2="123.47623"
     y1="344.03848"
     x1="123.50603"
     gradientTransform="matrix(2.3189708,0,0,2.0930998,-99.17808,-231.54972)"
     gradientUnits="userSpaceOnUse"
     id="linearGradient3625"
     xlink:href="#linearGradient3187"
     inkscape:collect="always" /><radialGradient
     r="333.18735"
     fy="710.99164"
     fx="373.24265"
     cy="710.99164"
     cx="373.24265"
     gradientTransform="matrix(0.9503534,1.1750652e-7,-5.6287062e-8,0.3462676,-174.95857,375.55031)"
     gradientUnits="userSpaceOnUse"
     id="radialGradient3623"
     xlink:href="#linearGradient5443"
     inkscape:collect="always" /><radialGradient
     r="333.18735"
     fy="467.91885"
     fx="373.24265"
     cy="467.91885"
     cx="373.24265"
     gradientTransform="matrix(0.9201975,2.7970099e-7,-2.7059634e-7,0.8902438,-163.70313,61.921561)"
     gradientUnits="userSpaceOnUse"
     id="radialGradient3599"
     xlink:href="#linearGradient5443"
     inkscape:collect="always" /><linearGradient
     y2="254.73526"
     x2="123.47623"
     y1="344.03848"
     x1="123.50603"
     gradientTransform="matrix(2.3189708,0,0,2.0930998,-99.17808,-231.54972)"
     gradientUnits="userSpaceOnUse"
     id="linearGradient3597"
     xlink:href="#linearGradient3187"
     inkscape:collect="always" /><radialGradient
     r="333.18735"
     fy="710.99164"
     fx="373.24265"
     cy="710.99164"
     cx="373.24265"
     gradientTransform="matrix(0.9503534,1.1750652e-7,-5.6287062e-8,0.3462676,-174.95857,375.55031)"
     gradientUnits="userSpaceOnUse"
     id="radialGradient3595"
     xlink:href="#linearGradient5443"
     inkscape:collect="always" /><radialGradient
     r="333.18735"
     fy="467.91885"
     fx="373.24265"
     cy="467.91885"
     cx="373.24265"
     gradientTransform="matrix(0.9201975,2.7970099e-7,-2.7059634e-7,0.8902438,-163.70313,61.921561)"
     gradientUnits="userSpaceOnUse"
     id="radialGradient3525"
     xlink:href="#linearGradient5443"
     inkscape:collect="always" /><linearGradient
     y2="254.73526"
     x2="123.47623"
     y1="344.03848"
     x1="123.50603"
     gradientTransform="matrix(2.3189708,0,0,2.0930998,-99.17808,-231.54972)"
     gradientUnits="userSpaceOnUse"
     id="linearGradient3523"
     xlink:href="#linearGradient3187"
     inkscape:collect="always" /><radialGradient
     r="333.18735"
     fy="710.99164"
     fx="373.24265"
     cy="710.99164"
     cx="373.24265"
     gradientTransform="matrix(0.9503534,1.1750652e-7,-5.6287062e-8,0.3462676,-174.95857,375.55031)"
     gradientUnits="userSpaceOnUse"
     id="radialGradient3521"
     xlink:href="#linearGradient5443"
     inkscape:collect="always" /><radialGradient
     r="333.18735"
     fy="467.91885"
     fx="373.24265"
     cy="467.91885"
     cx="373.24265"
     gradientTransform="matrix(0.9201975,2.7970099e-7,-2.7059634e-7,0.8902438,-163.70313,61.921561)"
     gradientUnits="userSpaceOnUse"
     id="radialGradient3497"
     xlink:href="#linearGradient5443"
     inkscape:collect="always" /><linearGradient
     y2="254.73526"
     x2="123.47623"
     y1="344.03848"
     x1="123.50603"
     gradientTransform="matrix(2.3189708,0,0,2.0930998,-99.17808,-231.54972)"
     gradientUnits="userSpaceOnUse"
     id="linearGradient3495"
     xlink:href="#linearGradient3187"
     inkscape:collect="always" /><radialGradient
     r="333.18735"
     fy="710.99164"
     fx="373.24265"
     cy="710.99164"
     cx="373.24265"
     gradientTransform="matrix(0.9503534,1.1750652e-7,-5.6287062e-8,0.3462676,-174.95857,375.55031)"
     gradientUnits="userSpaceOnUse"
     id="radialGradient3493"
     xlink:href="#linearGradient5443"
     inkscape:collect="always" /><linearGradient
     id="linearGradient5443"><stop
       id="stop5445"
       offset="0"
       style="stop-color:#ffffff;stop-opacity:0;" /><stop
       id="stop5447"
       offset="1"
       style="stop-color:#000000;stop-opacity:0.33962265;" /></linearGradient><linearGradient
     id="linearGradient3157"><stop
       style="stop-color:#49bcff;stop-opacity:1;"
       offset="0"
       id="stop3159" /><stop
       style="stop-color:#494c96;stop-opacity:1;"
       offset="1"
       id="stop3161" /></linearGradient><linearGradient
     id="linearGradient3171"><stop
       id="stop3173"
       offset="0"
       style="stop-color:#49bcff;stop-opacity:1;" /><stop
       id="stop3175"
       offset="1"
       style="stop-color:#494cdc;stop-opacity:1;" /></linearGradient><linearGradient
     id="linearGradient3187"><stop
       style="stop-color:#ffffff;stop-opacity:0.39622641;"
       offset="0"
       id="stop3189" /><stop
       style="stop-color:#000000;stop-opacity:1;"
       offset="1"
       id="stop3191" /></linearGradient><linearGradient
     id="linearGradient4395"><stop
       style="stop-color:#110084;stop-opacity:1;"
       offset="0"
       id="stop4397" /><stop
       style="stop-color:#a695ff;stop-opacity:1;"
       offset="1"
       id="stop4399" /></linearGradient><linearGradient
     id="linearGradient4383"><stop
       style="stop-color:#00037f;stop-opacity:1;"
       offset="0"
       id="stop4385" /><stop
       style="stop-color:#00037f;stop-opacity:0;"
       offset="1"
       id="stop4387" /></linearGradient><inkscape:perspective
     sodipodi:type="inkscape:persp3d"
     inkscape:vp_x="0 : 526.18109 : 1"
     inkscape:vp_y="0 : 1000 : 0"
     inkscape:vp_z="744.09448 : 526.18109 : 1"
     inkscape:persp3d-origin="372.04724 : 350.78739 : 1"
     id="perspective3214" /><linearGradient
     inkscape:collect="always"
     xlink:href="#linearGradient4383"
     id="linearGradient4389"
     x1="371.42194"
     y1="298.59412"
     x2="396.91168"
     y2="655.4505"
     gradientUnits="userSpaceOnUse" /><linearGradient
     inkscape:collect="always"
     xlink:href="#linearGradient4395"
     id="linearGradient4401"
     x1="360.49777"
     y1="167.50403"
     x2="360.49777"
     y2="540.86719"
     gradientUnits="userSpaceOnUse" /><linearGradient
     inkscape:collect="always"
     xlink:href="#linearGradient3187"
     id="linearGradient4562"
     gradientUnits="userSpaceOnUse"
     gradientTransform="matrix(2.3189708,0,0,2.0930998,93.115298,-256.84999)"
     x1="123.50603"
     y1="344.03848"
     x2="123.47623"
     y2="254.73526" /><radialGradient
     inkscape:collect="always"
     xlink:href="#linearGradient3171"
     id="radialGradient4569"
     gradientUnits="userSpaceOnUse"
     gradientTransform="matrix(0.9201975,2.7970099e-7,-2.7059634e-7,0.8902438,28.590287,48.634335)"
     cx="373.24265"
     cy="467.91885"
     fx="373.24265"
     fy="467.91885"
     r="333.18735" /><radialGradient
     inkscape:collect="always"
     xlink:href="#linearGradient3157"
     id="radialGradient4572"
     gradientUnits="userSpaceOnUse"
     gradientTransform="matrix(0.9503534,1.1750652e-7,-5.6287062e-8,0.3462676,17.334826,362.44227)"
     cx="373.24265"
     cy="710.99164"
     fx="373.24265"
     fy="710.99164"
     r="333.18735" /><filter
     inkscape:collect="always"
     id="filter4659"
     color-interpolation-filters="sRGB"><feGaussianBlur
       inkscape:collect="always"
       stdDeviation="2.7750933"
       id="feGaussianBlur4661" /></filter><radialGradient
     inkscape:collect="always"
     xlink:href="#linearGradient3157"
     id="radialGradient4766"
     gradientUnits="userSpaceOnUse"
     gradientTransform="matrix(0.9503534,1.1750652e-7,-5.6287062e-8,0.3462676,17.334826,362.44227)"
     cx="373.24265"
     cy="710.99164"
     fx="373.24265"
     fy="710.99164"
     r="333.18735" /><radialGradient
     inkscape:collect="always"
     xlink:href="#linearGradient3171"
     id="radialGradient4768"
     gradientUnits="userSpaceOnUse"
     gradientTransform="matrix(0.9201975,2.7970099e-7,-2.7059634e-7,0.8902438,28.590287,48.634335)"
     cx="373.24265"
     cy="467.91885"
     fx="373.24265"
     fy="467.91885"
     r="333.18735" /><linearGradient
     inkscape:collect="always"
     xlink:href="#linearGradient3187"
     id="linearGradient4770"
     gradientUnits="userSpaceOnUse"
     gradientTransform="matrix(2.3189708,0,0,2.0930998,93.115298,-256.84999)"
     x1="123.50603"
     y1="344.03848"
     x2="123.47623"
     y2="254.73526" /><linearGradient
     inkscape:collect="always"
     xlink:href="#linearGradient3187"
     id="linearGradient4773"
     gradientUnits="userSpaceOnUse"
     gradientTransform="matrix(2.3189708,0,0,2.0930998,93.115298,-256.84999)"
     x1="123.50603"
     y1="344.03848"
     x2="123.47623"
     y2="254.73526" /><radialGradient
     inkscape:collect="always"
     xlink:href="#linearGradient3171"
     id="radialGradient4776"
     gradientUnits="userSpaceOnUse"
     gradientTransform="matrix(0.9201975,2.7970099e-7,-2.7059634e-7,0.8902438,28.590287,48.634335)"
     cx="373.24265"
     cy="467.91885"
     fx="373.24265"
     fy="467.91885"
     r="333.18735" /><radialGradient
     inkscape:collect="always"
     xlink:href="#linearGradient3157"
     id="radialGradient4779"
     gradientUnits="userSpaceOnUse"
     gradientTransform="matrix(0.9503534,1.1750652e-7,-5.6287062e-8,0.3462676,17.334826,362.44227)"
     cx="373.24265"
     cy="710.99164"
     fx="373.24265"
     fy="710.99164"
     r="333.18735" /><radialGradient
     inkscape:collect="always"
     xlink:href="#linearGradient3157"
     id="radialGradient4790"
     gradientUnits="userSpaceOnUse"
     gradientTransform="matrix(0.9503534,1.1750652e-7,-5.6287062e-8,0.3462676,17.334826,362.44227)"
     cx="373.24265"
     cy="710.99164"
     fx="373.24265"
     fy="710.99164"
     r="333.18735" /><radialGradient
     inkscape:collect="always"
     xlink:href="#linearGradient3171"
     id="radialGradient4792"
     gradientUnits="userSpaceOnUse"
     gradientTransform="matrix(0.9201975,2.7970099e-7,-2.7059634e-7,0.8902438,28.590287,48.634335)"
     cx="373.24265"
     cy="467.91885"
     fx="373.24265"
     fy="467.91885"
     r="333.18735" /><linearGradient
     inkscape:collect="always"
     xlink:href="#linearGradient3187"
     id="linearGradient4794"
     gradientUnits="userSpaceOnUse"
     gradientTransform="matrix(2.3189708,0,0,2.0930998,93.115298,-256.84999)"
     x1="123.50603"
     y1="344.03848"
     x2="123.47623"
     y2="254.73526" /><linearGradient
     inkscape:collect="always"
     xlink:href="#linearGradient3187"
     id="linearGradient4799"
     gradientUnits="userSpaceOnUse"
     gradientTransform="matrix(2.3189708,0,0,2.0930998,93.115298,-256.84999)"
     x1="123.50603"
     y1="344.03848"
     x2="123.47623"
     y2="254.73526" /><radialGradient
     inkscape:collect="always"
     xlink:href="#linearGradient3171"
     id="radialGradient4802"
     gradientUnits="userSpaceOnUse"
     gradientTransform="matrix(0.9201975,2.7970099e-7,-2.7059634e-7,0.8902438,28.590287,48.634335)"
     cx="373.24265"
     cy="467.91885"
     fx="373.24265"
     fy="467.91885"
     r="333.18735" /><radialGradient
     inkscape:collect="always"
     xlink:href="#linearGradient3157"
     id="radialGradient4805"
     gradientUnits="userSpaceOnUse"
     gradientTransform="matrix(0.9503534,1.1750652e-7,-5.6287062e-8,0.3462676,17.334826,362.44227)"
     cx="373.24265"
     cy="710.99164"
     fx="373.24265"
     fy="710.99164"
     r="333.18735" /><radialGradient
     inkscape:collect="always"
     xlink:href="#linearGradient3157"
     id="radialGradient4820"
     gradientUnits="userSpaceOnUse"
     gradientTransform="matrix(0.9503534,1.1750652e-7,-5.6287062e-8,0.3462676,17.334826,362.44227)"
     cx="373.24265"
     cy="710.99164"
     fx="373.24265"
     fy="710.99164"
     r="333.18735" /><radialGradient
     inkscape:collect="always"
     xlink:href="#linearGradient3171"
     id="radialGradient4822"
     gradientUnits="userSpaceOnUse"
     gradientTransform="matrix(0.9201975,2.7970099e-7,-2.7059634e-7,0.8902438,28.590287,48.634335)"
     cx="373.24265"
     cy="467.91885"
     fx="373.24265"
     fy="467.91885"
     r="333.18735" /><linearGradient
     inkscape:collect="always"
     xlink:href="#linearGradient3187"
     id="linearGradient4824"
     gradientUnits="userSpaceOnUse"
     gradientTransform="matrix(2.3189708,0,0,2.0930998,93.115298,-256.84999)"
     x1="123.50603"
     y1="344.03848"
     x2="123.47623"
     y2="254.73526" /><linearGradient
     inkscape:collect="always"
     xlink:href="#linearGradient3187"
     id="linearGradient4827"
     gradientUnits="userSpaceOnUse"
     gradientTransform="matrix(2.3189708,0,0,2.0930998,-99.17808,-231.54972)"
     x1="123.50603"
     y1="344.03848"
     x2="123.47623"
     y2="254.73526" /><radialGradient
     inkscape:collect="always"
     xlink:href="#linearGradient5443"
     id="radialGradient4832"
     gradientUnits="userSpaceOnUse"
     gradientTransform="matrix(0.9201975,2.7970099e-7,-2.7059634e-7,0.8902438,-163.70313,61.921561)"
     cx="373.24265"
     cy="467.91885"
     fx="373.24265"
     fy="467.91885"
     r="333.18735" /><radialGradient
     inkscape:collect="always"
     xlink:href="#linearGradient5443"
     id="radialGradient4835"
     gradientUnits="userSpaceOnUse"
     gradientTransform="matrix(0.9503534,1.1750652e-7,-5.6287062e-8,0.3462676,-174.95857,375.55031)"
     cx="373.24265"
     cy="710.99164"
     fx="373.24265"
     fy="710.99164"
     r="333.18735" /><filter
     inkscape:collect="always"
     id="filter5511"
     color-interpolation-filters="sRGB"><feGaussianBlur
       inkscape:collect="always"
       stdDeviation="3.2374974"
       id="feGaussianBlur5513" /></filter><radialGradient
     inkscape:collect="always"
     xlink:href="#linearGradient5443-5"
     id="radialGradient4835-3"
     gradientUnits="userSpaceOnUse"
     gradientTransform="matrix(0.9503534,1.1750652e-7,-5.6287062e-8,0.3462676,317.80591,185.68771)"
     cx="373.24265"
     cy="710.99164"
     fx="373.24265"
     fy="710.99164"
     r="333.18735" /><linearGradient
     id="linearGradient5443-5"><stop
       id="stop5445-4"
       offset="0"
       style="stop-color:#ffffff;stop-opacity:0;" /><stop
       id="stop5447-3"
       offset="1"
       style="stop-color:#000000;stop-opacity:0.33962265;" /></linearGradient><radialGradient
     inkscape:collect="always"
     xlink:href="#linearGradient5443"
     id="radialGradient3272"
     gradientUnits="userSpaceOnUse"
     gradientTransform="matrix(0.9503534,1.1750652e-7,-5.6287062e-8,0.3462676,-174.95857,375.55031)"
     cx="373.24265"
     cy="710.99164"
     fx="373.24265"
     fy="710.99164"
     r="333.18735" /><linearGradient
     inkscape:collect="always"
     xlink:href="#linearGradient3187"
     id="linearGradient3274"
     gradientUnits="userSpaceOnUse"
     gradientTransform="matrix(2.3189708,0,0,2.0930998,-99.17808,-231.54972)"
     x1="123.50603"
     y1="344.03848"
     x2="123.47623"
     y2="254.73526" /><radialGradient
     inkscape:collect="always"
     xlink:href="#linearGradient5443"
     id="radialGradient3276"
     gradientUnits="userSpaceOnUse"
     gradientTransform="matrix(0.9201975,2.7970099e-7,-2.7059634e-7,0.8902438,-163.70313,61.921561)"
     cx="373.24265"
     cy="467.91885"
     fx="373.24265"
     fy="467.91885"
     r="333.18735" /></defs><sodipodi:namedview
   pagecolor="#ffffff"
   bordercolor="#666666"
   borderopacity="1"
   objecttolerance="10"
   gridtolerance="10"
   guidetolerance="10"
   inkscape:pageopacity="0"
   inkscape:pageshadow="2"
   inkscape:window-width="1920"
   inkscape:window-height="1068"
   id="namedview33"
   showgrid="false"
   inkscape:zoom="0.84281414"
   inkscape:cx="-33.668415"
   inkscape:cy="244.72113"
   inkscape:window-x="0"
   inkscape:window-y="0"
   inkscape:window-maximized="1"
   inkscape:current-layer="_x31_"
   fit-margin-top="0"
   fit-margin-left="0"
   fit-margin-right="0"
   fit-margin-bottom="0" />









<g
   id="g3303"
   transform="translate(-4.0524846e-6,3.5529444e-6)"><rect
     inkscape:export-ydpi="29.879425"
     inkscape:export-xdpi="29.879425"
     inkscape:export-filename="C:\Documents and Settings\adscro24\Desktop\128.png"
     style="opacity:0.61338286;fill:#464646;fill-opacity:0.78540775;stroke:none;filter:url(#filter4659)"
     id="rect3279"
     width="152.93848"
     height="152.93848"
     x="135.39355"
     y="48.636749"
     rx="16.067965"
     ry="12.45238"
     transform="matrix(2.1051501,0,0,2.1051501,-271.00298,-88.36689)" /><rect
     inkscape:export-ydpi="29.879425"
     inkscape:export-xdpi="29.879425"
     inkscape:export-filename="C:\Documents and Settings\adscro24\Desktop\128.png"
     style="opacity:0.61338286;fill:url(#radialGradient3092);fill-opacity:1;stroke:#000000;stroke-width:3.26806188;stroke-miterlimit:4;stroke-opacity:1;stroke-dasharray:none"
     id="rect3155"
     width="321.95847"
     height="321.95847"
     x="14.020748"
     y="14.020716"
     rx="33.825481"
     ry="26.21413" /><path
     transform="matrix(0.90779502,0,0,0.90779502,11.82035,-259.3651)"
     inkscape:export-ydpi="29.879425"
     inkscape:export-xdpi="29.879425"
     inkscape:export-filename="C:\Documents and Settings\adscro24\Desktop\128.png"
     inkscape:connector-curvature="0"
     style="opacity:0.61338286;fill:url(#linearGradient3734);fill-opacity:1;stroke:none;filter:url(#filter5511)"
     d="m 46.58172,323.34879 c -19.62748,0 -35.44272,12.0976 -35.44272,27.14163 l 0,124.30857 c 29.25482,11.38638 132.70149,11.89599 165.40488,-5.79022 33.32802,-18.02397 127.54379,-68.44264 171.82484,-52.72052 l 0,-65.79783 c 0,-15.04403 -15.7986,-27.14163 -35.4261,-27.14163 l -266.3609,0 z M 11.139,586.81982 l 0,42.88373 c 0,1.33144 0.14331,2.63588 0.38253,3.915 -0.11919,-12.81092 -0.25965,-28.88939 -0.38253,-46.79873 z"
     id="rect3177" /><rect
     inkscape:export-ydpi="29.879425"
     inkscape:export-xdpi="29.879425"
     inkscape:export-filename="C:\Documents and Settings\adscro24\Desktop\128.png"
     style="opacity:0.61338286;fill:url(#radialGradient3088);fill-opacity:1;stroke:#ffffff;stroke-width:0.68992418;stroke-linecap:square;stroke-miterlimit:4;stroke-opacity:1;stroke-dasharray:none"
     id="rect3473"
     width="306.12445"
     height="306.12445"
     x="21.937801"
     y="21.937769"
     rx="32.161926"
     ry="24.924913" /><rect
     inkscape:export-ydpi="29.879425"
     inkscape:export-xdpi="29.879425"
     inkscape:export-filename="C:\Documents and Settings\adscro24\Desktop\128.png"
     style="opacity:0.61338286;fill:#ffffff;fill-opacity:0;stroke:#000000;stroke-width:3.26806188;stroke-miterlimit:4;stroke-opacity:1;stroke-dasharray:none"
     id="rect3155-2"
     width="321.95847"
     height="321.95847"
     x="14.020748"
     y="14.020716"
     rx="33.825481"
     ry="26.21413" /><g
     transform="translate(400.39145,135.8211)"
     style="fill:#000000;fill-opacity:1;stroke:none"
     id="LWPOLYLINE_2_-2">
	
		
</g></g><g
   id="g3000"
   transform="matrix(0.5,0,0,0.5,21.999993,-23.000006)"><g
     style="fill:#000000;fill-opacity:1;stroke:none"
     id="LWPOLYLINE">
	
		<path
   style="fill:#000000;fill-opacity:1;stroke:none"
   id="path4"
   d="m 158.72,646 c 0.151,0 0.324,0 0.324,0 h 0.237 0.303 0.367 0.411 0.475 0.497 0.562 0.584 0.626 0.648 0.691 0.691 0.734 0.734 0.734 0.757 0.777 0.757 0.756 0.756 0.734 0.713 0.714 0.669 0.648 0.627 0.604 0.54 0.519 0.454 0.41 0.367 0.303 0.237 c 0.173,0 0.281,0 0.281,0 0.043,0 0.043,-0.303 0.043,-0.303 v -0.777 -1.297 -1.729 -2.203 -2.591 -2.982 -3.326 -3.674 -3.932 -4.234 -4.494 -4.709 -4.883 -5.1 -5.186 -5.314 -5.357 -5.445 -5.486 -5.488 -5.443 -5.359 -5.314 -5.186 -5.098 -4.883 -4.711 -4.492 -4.236 -3.932 -3.672 -3.328 -2.98 -2.594 -2.203 -1.729 -1.297 -0.777 -0.303 c -0.13,0 -0.303,0 -0.303,0 h -0.216 -0.281 -0.345 -0.368 -0.432 -0.476 -0.519 -0.54 -0.583 -0.605 -0.626 -0.648 -0.67 -0.691 -0.691 -0.691 -0.713 -0.691 -0.713 -0.691 -0.669 -0.67 -0.648 -0.648 -0.604 -0.562 -0.562 -0.497 -0.476 -0.432 -0.39 -0.324 -0.28 -0.238 c -0.15,0 -0.259,0 -0.259,0 -0.021,0 -0.67,0.562 -0.67,0.562 l -0.648,0.562 -0.669,0.604 -0.691,0.562 -0.713,0.561 -0.735,0.605 -0.756,0.605 -0.777,0.562 -0.778,0.604 -0.82,0.605 -0.821,0.605 -0.843,0.604 -0.843,0.562 -0.864,0.605 -0.886,0.604 -0.886,0.605 -0.907,0.605 -0.929,0.605 -0.93,0.604 -0.929,0.605 -0.95,0.605 -0.951,0.605 -0.972,0.604 -0.973,0.562 -0.993,0.605 -0.973,0.604 -0.994,0.562 -1.015,0.605 -0.994,0.561 -1.016,0.562 -1.016,0.561 -1.016,0.562 -1.015,0.562 -1.016,0.561 -1.016,0.52 -1.037,0.561 -1.016,0.52 -1.015,0.518 -1.016,0.52 -1.016,0.518 c 0,0.131 0,0.346 0,0.346 v 0.217 0.346 0.346 0.432 0.475 0.52 0.562 0.604 0.648 0.691 0.691 0.734 0.734 0.734 0.779 0.777 0.777 0.777 0.777 0.779 0.777 0.734 0.734 0.691 0.648 0.648 0.604 0.562 0.52 0.475 0.432 0.389 0.303 0.26 c 0,0.172 0,0.303 0,0.303 0,0.043 0.8,-0.303 0.8,-0.303 l 0.799,-0.389 0.821,-0.346 0.843,-0.389 0.842,-0.434 0.843,-0.389 0.864,-0.432 0.886,-0.475 0.886,-0.434 0.886,-0.475 0.886,-0.475 0.908,-0.52 0.907,-0.475 0.907,-0.52 0.907,-0.518 0.907,-0.518 0.93,-0.562 0.907,-0.52 0.907,-0.561 0.929,-0.562 0.907,-0.561 0.908,-0.562 0.929,-0.562 0.907,-0.604 0.886,-0.562 0.907,-0.562 0.886,-0.604 0.886,-0.562 0.864,-0.605 0.886,-0.604 0.843,-0.562 0.864,-0.605 0.821,-0.561 0.843,-0.605 0.799,-0.562 0.8,-0.604 0.799,-0.562 0.778,-0.562 0.756,-0.561 0.734,-0.562 V 646 z"
   stroke-miterlimit="10"
   inkscape:connector-curvature="0" />
</g><g
     style="fill:#000000;fill-opacity:1;stroke:none"
     id="LWPOLYLINE_1_">
	
		<path
   style="fill:#000000;fill-opacity:1;stroke:none"
   id="path7"
   d="m 234.769,646 c 0.173,0 0.367,0 0.367,0 h 0.303 0.346 0.433 0.475 0.562 0.604 0.648 0.691 0.734 0.756 0.8 0.843 0.842 0.864 0.886 0.886 0.908 0.886 0.886 0.886 0.864 0.864 0.82 0.8 0.777 0.734 0.691 0.648 0.605 0.54 0.475 0.433 0.367 0.281 c 0.216,0 0.345,0 0.345,0 0.044,-0.215 0.044,-0.432 0.044,-0.432 v -0.303 -0.389 -0.432 -0.562 -0.562 -0.646 -0.691 -0.734 -0.822 -0.82 -0.865 -0.863 -0.908 -0.949 -0.951 -0.951 -0.949 -0.994 -0.951 -0.951 -0.906 -0.908 -0.908 -0.863 -0.82 -0.779 -0.777 -0.691 -0.648 -0.561 -0.52 -0.475 -0.389 -0.303 -0.217 c -0.173,-0.172 -0.389,-0.172 -0.389,-0.172 h -0.281 -0.367 -0.433 -0.475 -0.54 -0.605 -0.648 -0.691 -0.734 -0.777 -0.8 -0.82 -0.864 -0.864 -0.886 -0.886 -0.886 -0.908 -0.886 -0.886 -0.864 -0.842 -0.843 -0.8 -0.756 -0.734 -0.691 -0.648 -0.604 -0.562 -0.475 -0.433 -0.346 -0.303 c -0.194,0 -0.323,0 -0.323,0 -0.044,-0.004 -0.044,25.662 -0.044,25.662 z"
   stroke-miterlimit="10"
   inkscape:connector-curvature="0" />
</g><g
     style="fill:#000000;fill-opacity:1;stroke:none"
     id="LWPOLYLINE_2_">
	
		<path
   style="fill:#000000;fill-opacity:1;stroke:none"
   id="path10"
   d="m 301.139,646 c 0.173,0 0.367,0 0.367,0 h 0.303 0.346 0.432 0.476 0.562 0.605 0.648 0.69 0.735 0.777 0.778 0.82 0.864 0.864 0.864 0.907 0.907 0.908 0.863 0.908 0.864 0.82 0.864 0.778 0.777 0.734 0.691 0.648 0.604 0.519 0.519 0.433 0.346 0.259 c 0.216,0 0.346,0 0.346,0 0.043,-0.215 0.043,-0.432 0.043,-0.432 v -0.303 -0.389 -0.432 -0.562 -0.562 -0.646 -0.691 -0.734 -0.822 -0.82 -0.865 -0.863 -0.908 -0.949 -0.951 -0.951 -0.949 -0.994 -0.951 -0.951 -0.906 -0.908 -0.908 -0.863 -0.82 -0.779 -0.777 -0.691 -0.648 -0.561 -0.52 -0.475 -0.389 -0.303 -0.217 c -0.173,-0.172 -0.389,-0.172 -0.389,-0.172 h -0.259 -0.346 -0.433 -0.519 -0.519 -0.604 -0.648 -0.691 -0.734 -0.777 -0.778 -0.864 -0.82 -0.864 -0.908 -0.863 -0.908 -0.907 -0.907 -0.864 -0.864 -0.864 -0.82 -0.778 -0.777 -0.735 -0.69 -0.648 -0.605 -0.562 -0.476 -0.432 -0.346 -0.303 c -0.194,0 -0.324,0 -0.324,0 -0.043,-0.004 -0.043,25.662 -0.043,25.662 z"
   stroke-miterlimit="10"
   inkscape:connector-curvature="0" />
</g><g
     style="fill:#000000;fill-opacity:1;stroke:none"
     id="LWPOLYLINE_3_">
	
		<path
   style="fill:#000000;fill-opacity:1;stroke:none"
   id="path13"
   d="m 383.432,646 c 0.13,0 0.346,0 0.346,0 h 0.216 0.303 0.346 0.432 0.476 0.476 0.562 0.562 0.648 0.648 0.69 0.691 0.691 0.735 0.777 0.734 0.734 0.778 0.734 0.777 0.691 0.735 0.691 0.69 0.648 0.605 0.604 0.562 0.476 0.476 0.389 0.389 0.303 0.216 c 0.173,0 0.303,0 0.303,0 0.043,-0.129 0.043,-0.432 0.043,-0.432 v -0.52 -0.691 -0.863 -0.994 -1.166 -1.34 -1.426 -1.557 -1.684 -1.727 -1.859 -1.943 -1.988 -2.031 -2.074 -2.117 -2.16 -2.16 -2.117 -2.16 -2.117 -2.074 -2.074 -1.988 -1.9 -1.857 -1.771 -1.643 -1.557 -1.469 -1.295 -1.168 -1.037 -0.863 -0.691 -0.477 -0.301 c 0,-0.131 0,-0.562 0,-0.562 v -0.475 -0.52 -0.475 -0.52 -0.518 -0.562 l 0.043,-0.561 v -0.52 -0.605 l 0.044,-0.561 v -0.605 l 0.043,-0.561 0.043,-0.605 v -0.605 l 0.043,-0.605 0.044,-0.604 0.086,-0.605 0.043,-0.648 0.087,-0.605 0.043,-0.604 0.087,-0.605 0.086,-0.605 0.13,-0.605 0.086,-0.604 0.13,-0.605 0.087,-0.605 0.129,-0.605 0.173,-0.604 0.13,-0.562 0.173,-0.561 0.173,-0.562 0.173,-0.562 0.216,-0.518 0.216,-0.52 0.217,-0.518 0.216,-0.52 0.259,-0.475 0.26,-0.475 0.259,-0.477 0.173,-0.303 0.217,-0.389 0.216,-0.346 0.259,-0.389 0.26,-0.432 0.259,-0.389 0.303,-0.432 0.303,-0.434 0.346,-0.432 0.389,-0.432 0.389,-0.432 0.389,-0.432 0.433,-0.477 0.432,-0.432 0.476,-0.432 0.519,-0.477 0.519,-0.432 0.562,-0.432 0.562,-0.432 0.562,-0.434 0.648,-0.389 0.605,-0.432 0.691,-0.389 0.691,-0.389 0.69,-0.346 0.735,-0.346 0.777,-0.346 0.778,-0.346 0.82,-0.303 0.821,-0.26 0.864,-0.258 0.907,-0.26 0.907,-0.217 0.951,-0.172 0.95,-0.174 0.994,-0.129 1.037,-0.131 1.037,-0.086 1.08,-0.043 h 1.123 l 1.643,0.043 1.555,0.086 1.47,0.174 1.383,0.26 1.339,0.303 1.253,0.389 1.167,0.432 1.124,0.475 1.036,0.562 0.994,0.562 0.907,0.646 0.864,0.691 0.778,0.691 0.734,0.779 0.691,0.777 0.648,0.82 0.562,0.865 0.519,0.863 0.519,0.908 0.432,0.949 0.389,0.951 0.346,0.951 0.346,0.949 0.26,0.994 0.259,0.994 0.216,0.994 0.217,0.994 0.173,0.994 0.129,0.992 0.087,0.994 0.13,0.951 0.043,0.951 0.086,0.949 0.044,0.908 0.043,0.908 v 0.863 0.865 l 0.043,0.82 v 0.777 0.734 c 0,0.131 0,0.477 0,0.477 v 0.561 0.734 0.951 1.123 1.297 1.469 1.557 1.727 1.859 1.943 2.031 2.117 2.203 2.248 2.334 2.332 2.334 2.377 2.375 2.377 2.334 2.289 2.291 2.16 2.16 2.031 1.945 1.814 1.729 1.598 1.469 1.254 1.166 0.951 0.734 0.562 0.346 c 0.13,0.129 0.303,0.129 0.303,0.129 h 0.259 0.303 0.346 0.389 0.476 0.519 0.562 0.562 0.605 0.647 0.691 0.691 0.735 0.734 0.734 0.777 0.735 0.777 0.734 0.734 0.735 0.734 0.691 0.691 0.647 0.605 0.562 0.562 0.519 0.476 0.389 0.346 0.303 0.259 c 0.173,0 0.303,0 0.303,0 0,-0.129 0,-0.518 0,-0.518 v -0.562 -0.82 -0.994 -1.211 -1.338 -1.542 -1.686 -1.814 -1.943 -2.074 -2.16 -2.248 -2.334 -2.375 -2.42 -2.506 -2.508 -2.506 -2.506 -2.506 -2.463 -2.463 -2.377 -2.332 -2.248 -2.16 -2.074 -1.945 -1.814 -1.686 -1.512 -1.383 -1.166 -1.037 -0.777 -0.605 -0.346 c 0,-0.129 0,-1.297 0,-1.297 v -1.123 -1.08 l -0.043,-1.037 v -0.994 l -0.043,-0.994 -0.044,-0.906 -0.043,-0.908 -0.043,-0.863 -0.043,-0.865 -0.044,-0.82 -0.043,-0.777 -0.086,-0.734 -0.087,-0.736 -0.043,-0.689 -0.087,-0.648 -0.086,-0.648 -0.087,-0.605 -0.086,-0.605 -0.087,-0.561 -0.129,-0.562 -0.087,-0.518 -0.13,-0.52 -0.086,-0.475 -0.13,-0.477 -0.13,-0.432 -0.086,-0.432 -0.13,-0.432 -0.13,-0.389 -0.173,-0.389 -0.129,-0.391 -0.13,-0.346 -0.13,-0.346 -0.173,-0.344 -0.129,-0.303 -0.173,-0.303 -0.173,-0.346 -0.13,-0.26 -0.173,-0.303 -0.173,-0.303 -0.476,-0.906 -0.519,-0.908 -0.519,-0.863 -0.562,-0.865 -0.648,-0.82 -0.604,-0.777 -0.691,-0.779 -0.691,-0.691 -0.734,-0.734 -0.734,-0.646 -0.778,-0.648 -0.821,-0.648 -0.82,-0.562 -0.821,-0.605 -0.864,-0.518 -0.864,-0.518 -0.864,-0.477 -0.907,-0.475 -0.907,-0.432 -0.907,-0.434 -0.951,-0.389 -0.95,-0.389 -0.907,-0.346 -0.951,-0.303 -0.95,-0.303 -0.951,-0.301 -0.95,-0.26 -0.95,-0.217 -0.951,-0.215 -0.907,-0.217 -0.95,-0.174 -0.908,-0.129 -0.907,-0.129 -0.907,-0.131 -0.864,-0.086 -0.864,-0.086 -0.864,-0.086 -0.82,-0.045 h -0.821 -0.821 -1.037 l -1.08,0.045 -1.037,0.043 -1.08,0.086 -1.037,0.129 -1.037,0.131 -1.037,0.172 -1.037,0.174 -0.993,0.215 -1.037,0.217 -0.994,0.26 -0.994,0.258 -0.993,0.303 -0.951,0.303 -0.993,0.346 -0.951,0.389 -0.95,0.389 -0.92,0.387 -0.908,0.434 -0.907,0.475 -0.907,0.432 -0.864,0.52 -0.864,0.518 -0.864,0.52 -0.82,0.561 -0.778,0.562 -0.821,0.605 -0.777,0.604 -0.734,0.648 -0.734,0.648 -0.735,0.648 -0.691,0.691 -0.69,0.734 -0.648,0.691 -0.648,0.777 -0.604,0.734 -0.605,0.779 -0.562,0.82 -0.519,0.777 -0.519,0.865 c 0,-0.131 0,-0.26 0,-0.26 -0.043,-0.174 -0.043,-0.389 -0.043,-0.389 v -0.26 l -0.043,-0.303 v -0.346 -0.385 l -0.044,-0.389 v -0.432 l -0.043,-0.477 v -0.475 l -0.043,-0.52 -0.043,-0.518 v -0.52 l -0.044,-0.518 v -0.562 l -0.043,-0.561 -0.043,-0.562 v -0.561 l -0.043,-0.562 -0.044,-0.518 v -0.562 l -0.043,-0.52 -0.043,-0.518 v -0.52 l -0.043,-0.475 v -0.432 l -0.044,-0.432 v -0.434 l -0.043,-0.389 v -0.303 -0.301 l -0.043,-0.303 v -0.217 c 0,-0.172 0,-0.303 0,-0.303 -0.173,-0.086 -0.346,-0.086 -0.346,-0.086 h -0.216 -0.303 -0.346 -0.389 -0.433 -0.475 -0.562 -0.562 -0.604 -0.605 -0.647 -0.691 -0.691 -0.691 -0.734 -0.691 -0.735 -0.734 -0.734 -0.691 -0.734 -0.691 -0.648 -0.647 -0.648 -0.605 -0.562 -0.519 -0.476 -0.475 -0.389 -0.346 -0.26 -0.259 c -0.173,0 -0.26,0 -0.26,0 -0.043,0 -0.043,0.303 -0.043,0.303 v 0.346 0.346 0.346 0.346 0.346 0.346 0.389 0.346 0.346 0.346 0.346 0.389 0.346 0.389 0.346 0.346 0.389 0.346 0.389 0.346 0.346 0.389 0.346 0.346 0.389 0.346 0.346 0.389 0.346 0.346 0.346 0.391 0.346 0.346 0.344 0.346 0.346 0.346 0.303 V 646 z"
   stroke-miterlimit="10"
   inkscape:connector-curvature="0" />
</g><g
     style="fill:#000000;fill-opacity:1;stroke:none"
     id="LWPOLYLINE_4_">
	
		<path
   id="polygon16"
   d="m 95.8125,146 0,132.75 0,132.71875 420.375,0 0,-265.46875 -153.09375,0 44.21875,44.25 -202.625,0 L 248.90625,146 95.8125,146 z m 22.125,22.125 77,0 -44.21875,44.25 310.5625,0 -44.21875,-44.25 77,0 0,221.21875 -376.125,0 0,-110.59375 0,-110.625 z"
   style="fill:#000000;fill-opacity:1;stroke:none"
   inkscape:connector-curvature="0" />
</g><g
     id="LWPOLYLINE_5_">
	
		
</g><g
     id="LWPOLYLINE_6_">
	
		<path
   id="rect22"
   d="m 140.075,367.23401 88.49299,0 0,22.123 -88.49299,0 z"
   style="fill:#000000;fill-opacity:1;stroke:none"
   inkscape:connector-curvature="0" />
</g><g
     id="LWPOLYLINE_7_">
	
		<path
   id="rect25"
   d="m 383.43201,367.23401 88.49299,0 0,22.123 -88.49299,0 z"
   style="fill:#000000;fill-opacity:1;stroke:none"
   inkscape:connector-curvature="0" />
</g><g
     id="LWPOLYLINE_8_">
	
		<path
   style="fill:#000000;fill-opacity:1;stroke:none"
   id="path28"
   d="m 248.034,329.188 c 0.194,0 0.324,0 0.324,0 0.173,0 0.367,0 0.367,0 h 0.237 0.26 0.28 0.303 0.346 0.346 0.367 0.367 0.411 0.389 0.432 0.411 0.432 0.41 0.433 0.432 0.411 0.41 0.41 0.39 0.389 0.367 0.346 0.324 0.324 0.28 0.26 0.237 c 0.194,0 0.367,0 0.367,0 0.13,0 0.238,0 0.238,0 0.086,-0.086 0.086,-0.281 0.086,-0.281 v -0.303 -0.453 -0.541 -0.646 -0.734 -0.822 -0.928 -0.973 -1.059 -1.123 -1.168 -1.209 -1.254 -1.297 -1.316 -1.34 -1.361 -1.361 -1.361 -1.361 -1.338 -1.318 -1.297 -1.254 -1.209 -1.166 -1.125 -1.059 -0.971 -0.93 -0.82 -0.734 -0.648 -0.541 -0.432 -0.324 c 0,-0.195 0,-0.26 0,-0.26 0.064,0 0.26,0 0.26,0 h 0.302 0.433 0.54 0.648 0.734 0.843 0.907 0.972 1.059 1.103 1.166 1.21 1.253 1.297 1.296 1.34 1.361 1.339 1.361 1.34 1.339 1.318 1.274 1.253 1.231 1.146 1.123 1.037 0.994 0.907 0.821 0.734 0.647 0.541 0.432 0.324 c 0.194,0 0.259,0 0.259,0 0,-0.172 0,-0.281 0,-0.281 0,-0.15 0,-0.322 0,-0.322 0,-0.195 0,-0.434 0,-0.434 v -0.236 -0.281 -0.281 -0.303 -0.324 -0.324 -0.346 -0.346 -0.367 -0.367 -0.367 -0.367 -0.367 -0.367 -0.367 -0.346 -0.367 -0.346 -0.324 -0.324 -0.303 -0.281 -0.258 -0.26 -0.217 c 0,-0.193 0,-0.389 0,-0.389 0,-0.129 0,-0.258 0,-0.258 -0.064,-0.152 -0.259,-0.152 -0.259,-0.152 h -0.324 -0.432 -0.541 -0.647 -0.734 -0.821 -0.907 -0.994 -1.037 -1.123 -1.146 -1.231 -1.253 -1.274 -1.318 -1.339 -1.34 -1.361 -1.339 -1.361 -1.34 -1.296 -1.297 -1.253 -1.21 -1.166 -1.103 -1.059 -0.972 -0.907 -0.843 -0.734 -0.648 -0.54 -0.433 -0.302 c -0.195,0 -0.26,0 -0.26,0 0,-0.193 0,-0.41 0,-0.41 v -0.281 -0.389 -0.432 -0.52 -0.561 -0.627 -0.67 -0.734 -0.756 -0.801 -0.842 -0.842 -0.887 -0.906 -0.93 -0.93 -0.928 -0.93 -0.93 -0.906 -0.908 -0.885 -0.865 -0.842 -0.801 -0.756 -0.713 -0.691 -0.627 -0.561 -0.498 -0.453 -0.367 -0.303 c 0,-0.215 0,-0.346 0,-0.346 0.064,-0.043 0.26,-0.043 0.26,-0.043 h 0.346 0.453 0.583 0.67 0.778 0.864 0.972 1.037 1.102 1.167 1.231 1.296 1.318 1.361 1.383 1.404 1.426 1.426 1.426 1.426 1.426 1.383 1.361 1.318 1.274 1.231 1.167 1.123 1.037 0.95 0.864 0.8 0.67 0.562 0.476 0.323 c 0.217,0 0.281,0 0.281,0 0,-0.15 0,-0.281 0,-0.281 0,-0.129 0,-0.303 0,-0.303 0,-0.193 0,-0.41 0,-0.41 v -0.236 -0.26 -0.281 -0.281 -0.303 -0.322 -0.324 -0.346 -0.346 -0.346 -0.346 -0.367 -0.346 -0.346 -0.367 -0.346 -0.324 -0.324 -0.323 -0.303 -0.303 -0.26 -0.258 -0.238 c 0,-0.217 0,-0.41 0,-0.41 0,-0.174 0,-0.324 0,-0.324 0,-0.195 0,-0.238 0,-0.238 -0.087,-0.021 -0.367,-0.021 -0.367,-0.021 h -0.433 -0.583 -0.756 -0.864 -1.016 -1.146 -1.23 -1.36 -1.426 -1.534 -1.577 -1.664 -1.729 -1.75 -1.814 -1.836 -1.837 -1.857 -1.858 -1.837 -1.836 -1.814 -1.75 -1.729 -1.664 -1.577 -1.534 -1.426 -1.36 -1.231 -1.146 -1.016 -0.864 -0.756 -0.583 -0.433 -0.28 c -0.088,0 -0.088,80.543 -0.088,80.543 z"
   stroke-miterlimit="10"
   inkscape:connector-curvature="0" />
</g><g
     id="LWPOLYLINE_9_">
	
		<path
   style="fill:#000000;fill-opacity:1;stroke:none"
   id="path31"
   d="m 334.691,316.787 c 0.173,0 0.259,0 0.259,0 0.13,0 0.303,0 0.303,0 0.216,0 0.432,0 0.432,0 h 0.217 0.259 0.26 0.302 0.303 0.303 0.346 0.302 0.346 0.346 0.346 0.39 0.346 0.346 0.346 0.345 0.303 0.346 0.303 0.303 0.302 0.26 0.259 0.217 c 0.216,0 0.432,0 0.432,0 0.173,0 0.303,0 0.303,0 0.173,0 0.259,0 0.259,0 0,-0.174 0,-0.391 0,-0.391 v -0.279 -0.367 -0.412 -0.496 -0.541 -0.604 -0.648 -0.691 -0.734 -0.777 -0.801 -0.842 -0.842 -0.865 -0.885 -0.908 -0.887 -0.906 -0.887 -0.885 -0.865 -0.863 -0.822 -0.799 -0.777 -0.734 -0.691 -0.648 -0.605 -0.539 -0.498 -0.432 -0.346 -0.303 c 0,-0.193 0,-0.324 0,-0.324 0.173,-0.043 0.389,-0.043 0.389,-0.043 h 0.26 0.346 0.432 0.476 0.519 0.604 0.648 0.648 0.734 0.778 0.777 0.821 0.82 0.864 0.864 0.864 0.864 0.864 0.907 0.864 0.821 0.864 0.82 0.778 0.734 0.734 0.691 0.605 0.604 0.519 0.476 0.432 0.346 0.303 c 0.173,0 0.303,0 0.303,0 0.043,-0.15 0.043,-0.236 0.043,-0.236 0,-0.131 0,-0.281 0,-0.281 0,-0.152 0,-0.346 0,-0.346 0,-0.217 0,-0.432 0,-0.432 v -0.238 -0.26 -0.26 -0.279 -0.281 -0.303 -0.303 -0.303 -0.303 -0.303 -0.322 -0.303 -0.303 -0.303 -0.281 -0.281 -0.279 -0.281 -0.238 -0.238 -0.236 c 0,-0.195 0,-0.389 0,-0.389 0,-0.174 0,-0.324 0,-0.324 0,-0.109 0,-0.217 0,-0.217 -0.173,-0.129 -0.346,-0.129 -0.346,-0.129 h -0.303 -0.346 -0.432 -0.476 -0.519 -0.604 -0.605 -0.691 -0.734 -0.734 -0.778 -0.82 -0.864 -0.821 -0.864 -0.907 -0.864 -0.864 -0.864 -0.864 -0.864 -0.82 -0.821 -0.777 -0.778 -0.734 -0.648 -0.648 -0.604 -0.519 -0.476 -0.432 -0.346 -0.26 c -0.216,0 -0.346,0 -0.346,0 -0.043,-0.174 -0.043,-0.389 -0.043,-0.389 v -0.281 -0.346 -0.41 -0.498 -0.518 -0.605 -0.627 -0.691 -0.734 -0.756 -0.777 -0.822 -0.842 -0.863 -0.865 -0.863 -0.887 -0.885 -0.887 -0.863 -0.865 -0.82 -0.822 -0.799 -0.756 -0.713 -0.691 -0.648 -0.584 -0.539 -0.475 -0.434 -0.346 -0.279 c 0,-0.195 0,-0.324 0,-0.324 -0.13,-0.045 -0.259,-0.045 -0.259,-0.045 -0.13,0 -0.303,0 -0.303,0 -0.216,0 -0.432,0 -0.432,0 h -0.217 -0.259 -0.26 -0.302 -0.303 -0.303 -0.346 -0.303 -0.345 -0.346 -0.346 -0.346 -0.39 -0.346 -0.346 -0.346 -0.302 -0.346 -0.303 -0.303 -0.302 -0.26 -0.259 -0.217 c -0.216,0 -0.432,0 -0.432,0 -0.173,0 -0.303,0 -0.303,0 -0.173,0 -0.259,0 -0.259,0 0,0.174 0,0.369 0,0.369 v 0.279 0.346 0.434 0.475 0.539 0.584 0.648 0.691 0.713 0.756 0.799 0.822 0.82 0.865 0.863 0.887 0.885 0.887 0.863 0.865 0.863 0.842 0.822 0.777 0.756 0.734 0.691 0.627 0.605 0.518 0.498 0.41 0.346 0.281 c 0,0.215 0,0.346 0,0.346 -0.173,0.043 -0.39,0.043 -0.39,0.043 h -0.259 -0.389 -0.389 -0.519 -0.519 -0.605 -0.648 -0.69 -0.735 -0.777 -0.778 -0.82 -0.864 -0.864 -0.864 -0.907 -0.907 -0.864 -0.907 -0.864 -0.864 -0.864 -0.821 -0.777 -0.778 -0.734 -0.691 -0.648 -0.604 -0.562 -0.476 -0.433 -0.346 -0.302 c -0.173,0 -0.303,0 -0.303,0 -0.043,0.129 -0.043,0.236 -0.043,0.236 0,0.109 0,0.26 0,0.26 0,0.174 0,0.367 0,0.367 0,0.195 0,0.432 0,0.432 v 0.238 0.238 0.281 0.279 0.281 0.281 0.303 0.303 0.303 0.322 0.303 0.303 0.303 0.303 0.303 0.281 0.279 0.26 0.26 0.238 0.215 c 0,0.217 0,0.41 0,0.41 0,0.152 0,0.303 0,0.303 0,0.131 0,0.217 0,0.217 0.173,0.15 0.346,0.15 0.346,0.15 h 0.302 0.346 0.433 0.476 0.562 0.604 0.648 0.691 0.734 0.778 0.777 0.821 0.864 0.864 0.864 0.907 0.864 0.907 0.907 0.864 0.864 0.864 0.82 0.778 0.777 0.735 0.69 0.648 0.605 0.519 0.519 0.389 0.389 0.259 c 0.217,0 0.346,0 0.346,0 0.044,-0.002 0.044,23.937 0.044,23.937 z"
   stroke-miterlimit="10"
   inkscape:connector-curvature="0" />
</g></g>
</svg>