<?xml version="1.0" encoding="UTF-8" standalone="no"?>
<!-- Generator: Adobe Illustrator 16.0.1, SVG Export Plug-In . SVG Version: 6.00 Build 0)  -->

<svg
   xmlns:dc="http://purl.org/dc/elements/1.1/"
   xmlns:cc="http://creativecommons.org/ns#"
   xmlns:rdf="http://www.w3.org/1999/02/22-rdf-syntax-ns#"
   xmlns:svg="http://www.w3.org/2000/svg"
   xmlns="http://www.w3.org/2000/svg"
   xmlns:xlink="http://www.w3.org/1999/xlink"
   xmlns:sodipodi="http://sodipodi.sourceforge.net/DTD/sodipodi-0.dtd"
   xmlns:inkscape="http://www.inkscape.org/namespaces/inkscape"
   version="1.0"
   id="_x31_"
   x="0px"
   y="0px"
   width="350"
   height="350"
   viewBox="0 0 350 350"
   enable-background="new 0 0 612 792"
   xml:space="preserve"
   inkscape:version="0.48.2 r9819"
   sodipodi:docname="7031.svg"><metadata
   id="metadata40"><rdf:RDF><cc:Work
       rdf:about=""><dc:format>image/svg+xml</dc:format><dc:type
         rdf:resource="http://purl.org/dc/dcmitype/StillImage" /></cc:Work></rdf:RDF></metadata><defs
   id="defs38"><radialGradient
     r="333.18735"
     fy="710.99164"
     fx="373.24265"
     cy="710.99164"
     cx="373.24265"
     gradientTransform="matrix(0.86272608,1.0667183e-7,-5.1097115e-8,0.31434,-147.00617,81.5576)"
     gradientUnits="userSpaceOnUse"
     id="radialGradient3092"
     xlink:href="#linearGradient5443"
     inkscape:collect="always" /><radialGradient
     r="333.18735"
     fy="467.91885"
     fx="373.24265"
     cy="467.91885"
     cx="373.24265"
     gradientTransform="matrix(0.83535071,2.5391117e-7,-2.4564601e-7,0.80815889,-136.78854,-203.15302)"
     gradientUnits="userSpaceOnUse"
     id="radialGradient3088"
     xlink:href="#linearGradient5443"
     inkscape:collect="always" /><radialGradient
     r="333.18735"
     fy="467.91885"
     fx="373.24265"
     cy="467.91885"
     cx="373.24265"
     gradientTransform="matrix(0.83535071,2.5391117e-7,-2.4564601e-7,0.80815889,783.12101,707.99698)"
     gradientUnits="userSpaceOnUse"
     id="radialGradient3736"
     xlink:href="#linearGradient5443"
     inkscape:collect="always" /><linearGradient
     y2="254.73526"
     x2="123.47623"
     y1="344.03848"
     x1="123.50603"
     gradientTransform="matrix(2.3189708,0,0,2.0930998,-99.17808,-231.54972)"
     gradientUnits="userSpaceOnUse"
     id="linearGradient3734"
     xlink:href="#linearGradient3187"
     inkscape:collect="always" /><radialGradient
     r="333.18735"
     fy="710.99164"
     fx="373.24265"
     cy="710.99164"
     cx="373.24265"
     gradientTransform="matrix(0.86272608,1.0667183e-7,-5.1097115e-8,0.31434,772.90338,992.7076)"
     gradientUnits="userSpaceOnUse"
     id="radialGradient3732"
     xlink:href="#linearGradient5443"
     inkscape:collect="always" /><radialGradient
     r="333.18735"
     fy="710.99164"
     fx="373.24265"
     cy="710.99164"
     cx="373.24265"
     gradientTransform="matrix(0.86272608,1.0667183e-7,-5.1097115e-8,0.31434,772.90338,992.7076)"
     gradientUnits="userSpaceOnUse"
     id="radialGradient3722"
     xlink:href="#linearGradient5443"
     inkscape:collect="always" /><radialGradient
     r="333.18735"
     fy="467.91885"
     fx="373.24265"
     cy="467.91885"
     cx="373.24265"
     gradientTransform="matrix(0.83535071,2.5391117e-7,-2.4564601e-7,0.80815889,783.12101,707.99698)"
     gradientUnits="userSpaceOnUse"
     id="radialGradient3718"
     xlink:href="#linearGradient5443"
     inkscape:collect="always" /><radialGradient
     r="333.18735"
     fy="467.91885"
     fx="373.24265"
     cy="467.91885"
     cx="373.24265"
     gradientTransform="matrix(0.9201975,2.7970099e-7,-2.7059634e-7,0.8902438,-163.70313,61.921561)"
     gradientUnits="userSpaceOnUse"
     id="radialGradient3703"
     xlink:href="#linearGradient5443"
     inkscape:collect="always" /><linearGradient
     y2="254.73526"
     x2="123.47623"
     y1="344.03848"
     x1="123.50603"
     gradientTransform="matrix(2.3189708,0,0,2.0930998,-99.17808,-231.54972)"
     gradientUnits="userSpaceOnUse"
     id="linearGradient3701"
     xlink:href="#linearGradient3187"
     inkscape:collect="always" /><radialGradient
     r="333.18735"
     fy="710.99164"
     fx="373.24265"
     cy="710.99164"
     cx="373.24265"
     gradientTransform="matrix(0.9503534,1.1750652e-7,-5.6287062e-8,0.3462676,-174.95857,375.55031)"
     gradientUnits="userSpaceOnUse"
     id="radialGradient3699"
     xlink:href="#linearGradient5443"
     inkscape:collect="always" /><radialGradient
     r="333.18735"
     fy="467.91885"
     fx="373.24265"
     cy="467.91885"
     cx="373.24265"
     gradientTransform="matrix(0.9201975,2.7970099e-7,-2.7059634e-7,0.8902438,-163.70313,61.921561)"
     gradientUnits="userSpaceOnUse"
     id="radialGradient3680"
     xlink:href="#linearGradient5443"
     inkscape:collect="always" /><linearGradient
     y2="254.73526"
     x2="123.47623"
     y1="344.03848"
     x1="123.50603"
     gradientTransform="matrix(2.3189708,0,0,2.0930998,-99.17808,-231.54972)"
     gradientUnits="userSpaceOnUse"
     id="linearGradient3678"
     xlink:href="#linearGradient3187"
     inkscape:collect="always" /><radialGradient
     r="333.18735"
     fy="710.99164"
     fx="373.24265"
     cy="710.99164"
     cx="373.24265"
     gradientTransform="matrix(0.9503534,1.1750652e-7,-5.6287062e-8,0.3462676,-174.95857,375.55031)"
     gradientUnits="userSpaceOnUse"
     id="radialGradient3676"
     xlink:href="#linearGradient5443"
     inkscape:collect="always" /><radialGradient
     r="333.18735"
     fy="467.91885"
     fx="373.24265"
     cy="467.91885"
     cx="373.24265"
     gradientTransform="matrix(0.9201975,2.7970099e-7,-2.7059634e-7,0.8902438,-163.70313,61.921561)"
     gradientUnits="userSpaceOnUse"
     id="radialGradient3654"
     xlink:href="#linearGradient5443"
     inkscape:collect="always" /><linearGradient
     y2="254.73526"
     x2="123.47623"
     y1="344.03848"
     x1="123.50603"
     gradientTransform="matrix(2.3189708,0,0,2.0930998,-99.17808,-231.54972)"
     gradientUnits="userSpaceOnUse"
     id="linearGradient3652"
     xlink:href="#linearGradient3187"
     inkscape:collect="always" /><radialGradient
     r="333.18735"
     fy="710.99164"
     fx="373.24265"
     cy="710.99164"
     cx="373.24265"
     gradientTransform="matrix(0.9503534,1.1750652e-7,-5.6287062e-8,0.3462676,-174.95857,375.55031)"
     gradientUnits="userSpaceOnUse"
     id="radialGradient3650"
     xlink:href="#linearGradient5443"
     inkscape:collect="always" /><radialGradient
     r="333.18735"
     fy="467.91885"
     fx="373.24265"
     cy="467.91885"
     cx="373.24265"
     gradientTransform="matrix(0.9201975,2.7970099e-7,-2.7059634e-7,0.8902438,-163.70313,61.921561)"
     gradientUnits="userSpaceOnUse"
     id="radialGradient3627"
     xlink:href="#linearGradient5443"
     inkscape:collect="always" /><linearGradient
     y2="254.73526"
     x2="123.47623"
     y1="344.03848"
     x1="123.50603"
     gradientTransform="matrix(2.3189708,0,0,2.0930998,-99.17808,-231.54972)"
     gradientUnits="userSpaceOnUse"
     id="linearGradient3625"
     xlink:href="#linearGradient3187"
     inkscape:collect="always" /><radialGradient
     r="333.18735"
     fy="710.99164"
     fx="373.24265"
     cy="710.99164"
     cx="373.24265"
     gradientTransform="matrix(0.9503534,1.1750652e-7,-5.6287062e-8,0.3462676,-174.95857,375.55031)"
     gradientUnits="userSpaceOnUse"
     id="radialGradient3623"
     xlink:href="#linearGradient5443"
     inkscape:collect="always" /><radialGradient
     r="333.18735"
     fy="467.91885"
     fx="373.24265"
     cy="467.91885"
     cx="373.24265"
     gradientTransform="matrix(0.9201975,2.7970099e-7,-2.7059634e-7,0.8902438,-163.70313,61.921561)"
     gradientUnits="userSpaceOnUse"
     id="radialGradient3599"
     xlink:href="#linearGradient5443"
     inkscape:collect="always" /><linearGradient
     y2="254.73526"
     x2="123.47623"
     y1="344.03848"
     x1="123.50603"
     gradientTransform="matrix(2.3189708,0,0,2.0930998,-99.17808,-231.54972)"
     gradientUnits="userSpaceOnUse"
     id="linearGradient3597"
     xlink:href="#linearGradient3187"
     inkscape:collect="always" /><radialGradient
     r="333.18735"
     fy="710.99164"
     fx="373.24265"
     cy="710.99164"
     cx="373.24265"
     gradientTransform="matrix(0.9503534,1.1750652e-7,-5.6287062e-8,0.3462676,-174.95857,375.55031)"
     gradientUnits="userSpaceOnUse"
     id="radialGradient3595"
     xlink:href="#linearGradient5443"
     inkscape:collect="always" /><radialGradient
     r="333.18735"
     fy="467.91885"
     fx="373.24265"
     cy="467.91885"
     cx="373.24265"
     gradientTransform="matrix(0.9201975,2.7970099e-7,-2.7059634e-7,0.8902438,-163.70313,61.921561)"
     gradientUnits="userSpaceOnUse"
     id="radialGradient3525"
     xlink:href="#linearGradient5443"
     inkscape:collect="always" /><linearGradient
     y2="254.73526"
     x2="123.47623"
     y1="344.03848"
     x1="123.50603"
     gradientTransform="matrix(2.3189708,0,0,2.0930998,-99.17808,-231.54972)"
     gradientUnits="userSpaceOnUse"
     id="linearGradient3523"
     xlink:href="#linearGradient3187"
     inkscape:collect="always" /><radialGradient
     r="333.18735"
     fy="710.99164"
     fx="373.24265"
     cy="710.99164"
     cx="373.24265"
     gradientTransform="matrix(0.9503534,1.1750652e-7,-5.6287062e-8,0.3462676,-174.95857,375.55031)"
     gradientUnits="userSpaceOnUse"
     id="radialGradient3521"
     xlink:href="#linearGradient5443"
     inkscape:collect="always" /><radialGradient
     r="333.18735"
     fy="467.91885"
     fx="373.24265"
     cy="467.91885"
     cx="373.24265"
     gradientTransform="matrix(0.9201975,2.7970099e-7,-2.7059634e-7,0.8902438,-163.70313,61.921561)"
     gradientUnits="userSpaceOnUse"
     id="radialGradient3497"
     xlink:href="#linearGradient5443"
     inkscape:collect="always" /><linearGradient
     y2="254.73526"
     x2="123.47623"
     y1="344.03848"
     x1="123.50603"
     gradientTransform="matrix(2.3189708,0,0,2.0930998,-99.17808,-231.54972)"
     gradientUnits="userSpaceOnUse"
     id="linearGradient3495"
     xlink:href="#linearGradient3187"
     inkscape:collect="always" /><radialGradient
     r="333.18735"
     fy="710.99164"
     fx="373.24265"
     cy="710.99164"
     cx="373.24265"
     gradientTransform="matrix(0.9503534,1.1750652e-7,-5.6287062e-8,0.3462676,-174.95857,375.55031)"
     gradientUnits="userSpaceOnUse"
     id="radialGradient3493"
     xlink:href="#linearGradient5443"
     inkscape:collect="always" /><linearGradient
     id="linearGradient5443"><stop
       id="stop5445"
       offset="0"
       style="stop-color:#ffffff;stop-opacity:0;" /><stop
       id="stop5447"
       offset="1"
       style="stop-color:#000000;stop-opacity:0.33962265;" /></linearGradient><linearGradient
     id="linearGradient3157"><stop
       style="stop-color:#49bcff;stop-opacity:1;"
       offset="0"
       id="stop3159" /><stop
       style="stop-color:#494c96;stop-opacity:1;"
       offset="1"
       id="stop3161" /></linearGradient><linearGradient
     id="linearGradient3171"><stop
       id="stop3173"
       offset="0"
       style="stop-color:#49bcff;stop-opacity:1;" /><stop
       id="stop3175"
       offset="1"
       style="stop-color:#494cdc;stop-opacity:1;" /></linearGradient><linearGradient
     id="linearGradient3187"><stop
       style="stop-color:#ffffff;stop-opacity:0.39622641;"
       offset="0"
       id="stop3189" /><stop
       style="stop-color:#000000;stop-opacity:1;"
       offset="1"
       id="stop3191" /></linearGradient><linearGradient
     id="linearGradient4395"><stop
       style="stop-color:#110084;stop-opacity:1;"
       offset="0"
       id="stop4397" /><stop
       style="stop-color:#a695ff;stop-opacity:1;"
       offset="1"
       id="stop4399" /></linearGradient><linearGradient
     id="linearGradient4383"><stop
       style="stop-color:#00037f;stop-opacity:1;"
       offset="0"
       id="stop4385" /><stop
       style="stop-color:#00037f;stop-opacity:0;"
       offset="1"
       id="stop4387" /></linearGradient><inkscape:perspective
     sodipodi:type="inkscape:persp3d"
     inkscape:vp_x="0 : 526.18109 : 1"
     inkscape:vp_y="0 : 1000 : 0"
     inkscape:vp_z="744.09448 : 526.18109 : 1"
     inkscape:persp3d-origin="372.04724 : 350.78739 : 1"
     id="perspective3214" /><linearGradient
     inkscape:collect="always"
     xlink:href="#linearGradient4383"
     id="linearGradient4389"
     x1="371.42194"
     y1="298.59412"
     x2="396.91168"
     y2="655.4505"
     gradientUnits="userSpaceOnUse" /><linearGradient
     inkscape:collect="always"
     xlink:href="#linearGradient4395"
     id="linearGradient4401"
     x1="360.49777"
     y1="167.50403"
     x2="360.49777"
     y2="540.86719"
     gradientUnits="userSpaceOnUse" /><linearGradient
     inkscape:collect="always"
     xlink:href="#linearGradient3187"
     id="linearGradient4562"
     gradientUnits="userSpaceOnUse"
     gradientTransform="matrix(2.3189708,0,0,2.0930998,93.115298,-256.84999)"
     x1="123.50603"
     y1="344.03848"
     x2="123.47623"
     y2="254.73526" /><radialGradient
     inkscape:collect="always"
     xlink:href="#linearGradient3171"
     id="radialGradient4569"
     gradientUnits="userSpaceOnUse"
     gradientTransform="matrix(0.9201975,2.7970099e-7,-2.7059634e-7,0.8902438,28.590287,48.634335)"
     cx="373.24265"
     cy="467.91885"
     fx="373.24265"
     fy="467.91885"
     r="333.18735" /><radialGradient
     inkscape:collect="always"
     xlink:href="#linearGradient3157"
     id="radialGradient4572"
     gradientUnits="userSpaceOnUse"
     gradientTransform="matrix(0.9503534,1.1750652e-7,-5.6287062e-8,0.3462676,17.334826,362.44227)"
     cx="373.24265"
     cy="710.99164"
     fx="373.24265"
     fy="710.99164"
     r="333.18735" /><filter
     inkscape:collect="always"
     id="filter4659"
     color-interpolation-filters="sRGB"><feGaussianBlur
       inkscape:collect="always"
       stdDeviation="2.7750933"
       id="feGaussianBlur4661" /></filter><radialGradient
     inkscape:collect="always"
     xlink:href="#linearGradient3157"
     id="radialGradient4766"
     gradientUnits="userSpaceOnUse"
     gradientTransform="matrix(0.9503534,1.1750652e-7,-5.6287062e-8,0.3462676,17.334826,362.44227)"
     cx="373.24265"
     cy="710.99164"
     fx="373.24265"
     fy="710.99164"
     r="333.18735" /><radialGradient
     inkscape:collect="always"
     xlink:href="#linearGradient3171"
     id="radialGradient4768"
     gradientUnits="userSpaceOnUse"
     gradientTransform="matrix(0.9201975,2.7970099e-7,-2.7059634e-7,0.8902438,28.590287,48.634335)"
     cx="373.24265"
     cy="467.91885"
     fx="373.24265"
     fy="467.91885"
     r="333.18735" /><linearGradient
     inkscape:collect="always"
     xlink:href="#linearGradient3187"
     id="linearGradient4770"
     gradientUnits="userSpaceOnUse"
     gradientTransform="matrix(2.3189708,0,0,2.0930998,93.115298,-256.84999)"
     x1="123.50603"
     y1="344.03848"
     x2="123.47623"
     y2="254.73526" /><linearGradient
     inkscape:collect="always"
     xlink:href="#linearGradient3187"
     id="linearGradient4773"
     gradientUnits="userSpaceOnUse"
     gradientTransform="matrix(2.3189708,0,0,2.0930998,93.115298,-256.84999)"
     x1="123.50603"
     y1="344.03848"
     x2="123.47623"
     y2="254.73526" /><radialGradient
     inkscape:collect="always"
     xlink:href="#linearGradient3171"
     id="radialGradient4776"
     gradientUnits="userSpaceOnUse"
     gradientTransform="matrix(0.9201975,2.7970099e-7,-2.7059634e-7,0.8902438,28.590287,48.634335)"
     cx="373.24265"
     cy="467.91885"
     fx="373.24265"
     fy="467.91885"
     r="333.18735" /><radialGradient
     inkscape:collect="always"
     xlink:href="#linearGradient3157"
     id="radialGradient4779"
     gradientUnits="userSpaceOnUse"
     gradientTransform="matrix(0.9503534,1.1750652e-7,-5.6287062e-8,0.3462676,17.334826,362.44227)"
     cx="373.24265"
     cy="710.99164"
     fx="373.24265"
     fy="710.99164"
     r="333.18735" /><radialGradient
     inkscape:collect="always"
     xlink:href="#linearGradient3157"
     id="radialGradient4790"
     gradientUnits="userSpaceOnUse"
     gradientTransform="matrix(0.9503534,1.1750652e-7,-5.6287062e-8,0.3462676,17.334826,362.44227)"
     cx="373.24265"
     cy="710.99164"
     fx="373.24265"
     fy="710.99164"
     r="333.18735" /><radialGradient
     inkscape:collect="always"
     xlink:href="#linearGradient3171"
     id="radialGradient4792"
     gradientUnits="userSpaceOnUse"
     gradientTransform="matrix(0.9201975,2.7970099e-7,-2.7059634e-7,0.8902438,28.590287,48.634335)"
     cx="373.24265"
     cy="467.91885"
     fx="373.24265"
     fy="467.91885"
     r="333.18735" /><linearGradient
     inkscape:collect="always"
     xlink:href="#linearGradient3187"
     id="linearGradient4794"
     gradientUnits="userSpaceOnUse"
     gradientTransform="matrix(2.3189708,0,0,2.0930998,93.115298,-256.84999)"
     x1="123.50603"
     y1="344.03848"
     x2="123.47623"
     y2="254.73526" /><linearGradient
     inkscape:collect="always"
     xlink:href="#linearGradient3187"
     id="linearGradient4799"
     gradientUnits="userSpaceOnUse"
     gradientTransform="matrix(2.3189708,0,0,2.0930998,93.115298,-256.84999)"
     x1="123.50603"
     y1="344.03848"
     x2="123.47623"
     y2="254.73526" /><radialGradient
     inkscape:collect="always"
     xlink:href="#linearGradient3171"
     id="radialGradient4802"
     gradientUnits="userSpaceOnUse"
     gradientTransform="matrix(0.9201975,2.7970099e-7,-2.7059634e-7,0.8902438,28.590287,48.634335)"
     cx="373.24265"
     cy="467.91885"
     fx="373.24265"
     fy="467.91885"
     r="333.18735" /><radialGradient
     inkscape:collect="always"
     xlink:href="#linearGradient3157"
     id="radialGradient4805"
     gradientUnits="userSpaceOnUse"
     gradientTransform="matrix(0.9503534,1.1750652e-7,-5.6287062e-8,0.3462676,17.334826,362.44227)"
     cx="373.24265"
     cy="710.99164"
     fx="373.24265"
     fy="710.99164"
     r="333.18735" /><radialGradient
     inkscape:collect="always"
     xlink:href="#linearGradient3157"
     id="radialGradient4820"
     gradientUnits="userSpaceOnUse"
     gradientTransform="matrix(0.9503534,1.1750652e-7,-5.6287062e-8,0.3462676,17.334826,362.44227)"
     cx="373.24265"
     cy="710.99164"
     fx="373.24265"
     fy="710.99164"
     r="333.18735" /><radialGradient
     inkscape:collect="always"
     xlink:href="#linearGradient3171"
     id="radialGradient4822"
     gradientUnits="userSpaceOnUse"
     gradientTransform="matrix(0.9201975,2.7970099e-7,-2.7059634e-7,0.8902438,28.590287,48.634335)"
     cx="373.24265"
     cy="467.91885"
     fx="373.24265"
     fy="467.91885"
     r="333.18735" /><linearGradient
     inkscape:collect="always"
     xlink:href="#linearGradient3187"
     id="linearGradient4824"
     gradientUnits="userSpaceOnUse"
     gradientTransform="matrix(2.3189708,0,0,2.0930998,93.115298,-256.84999)"
     x1="123.50603"
     y1="344.03848"
     x2="123.47623"
     y2="254.73526" /><linearGradient
     inkscape:collect="always"
     xlink:href="#linearGradient3187"
     id="linearGradient4827"
     gradientUnits="userSpaceOnUse"
     gradientTransform="matrix(2.3189708,0,0,2.0930998,-99.17808,-231.54972)"
     x1="123.50603"
     y1="344.03848"
     x2="123.47623"
     y2="254.73526" /><radialGradient
     inkscape:collect="always"
     xlink:href="#linearGradient5443"
     id="radialGradient4832"
     gradientUnits="userSpaceOnUse"
     gradientTransform="matrix(0.9201975,2.7970099e-7,-2.7059634e-7,0.8902438,-163.70313,61.921561)"
     cx="373.24265"
     cy="467.91885"
     fx="373.24265"
     fy="467.91885"
     r="333.18735" /><radialGradient
     inkscape:collect="always"
     xlink:href="#linearGradient5443"
     id="radialGradient4835"
     gradientUnits="userSpaceOnUse"
     gradientTransform="matrix(0.9503534,1.1750652e-7,-5.6287062e-8,0.3462676,-174.95857,375.55031)"
     cx="373.24265"
     cy="710.99164"
     fx="373.24265"
     fy="710.99164"
     r="333.18735" /><filter
     inkscape:collect="always"
     id="filter5511"
     color-interpolation-filters="sRGB"><feGaussianBlur
       inkscape:collect="always"
       stdDeviation="3.2374974"
       id="feGaussianBlur5513" /></filter><radialGradient
     inkscape:collect="always"
     xlink:href="#linearGradient5443-5"
     id="radialGradient4835-3"
     gradientUnits="userSpaceOnUse"
     gradientTransform="matrix(0.9503534,1.1750652e-7,-5.6287062e-8,0.3462676,317.80591,185.68771)"
     cx="373.24265"
     cy="710.99164"
     fx="373.24265"
     fy="710.99164"
     r="333.18735" /><linearGradient
     id="linearGradient5443-5"><stop
       id="stop5445-4"
       offset="0"
       style="stop-color:#ffffff;stop-opacity:0;" /><stop
       id="stop5447-3"
       offset="1"
       style="stop-color:#000000;stop-opacity:0.33962265;" /></linearGradient><radialGradient
     inkscape:collect="always"
     xlink:href="#linearGradient5443"
     id="radialGradient3272"
     gradientUnits="userSpaceOnUse"
     gradientTransform="matrix(0.9503534,1.1750652e-7,-5.6287062e-8,0.3462676,-174.95857,375.55031)"
     cx="373.24265"
     cy="710.99164"
     fx="373.24265"
     fy="710.99164"
     r="333.18735" /><linearGradient
     inkscape:collect="always"
     xlink:href="#linearGradient3187"
     id="linearGradient3274"
     gradientUnits="userSpaceOnUse"
     gradientTransform="matrix(2.3189708,0,0,2.0930998,-99.17808,-231.54972)"
     x1="123.50603"
     y1="344.03848"
     x2="123.47623"
     y2="254.73526" /><radialGradient
     inkscape:collect="always"
     xlink:href="#linearGradient5443"
     id="radialGradient3276"
     gradientUnits="userSpaceOnUse"
     gradientTransform="matrix(0.9201975,2.7970099e-7,-2.7059634e-7,0.8902438,-163.70313,61.921561)"
     cx="373.24265"
     cy="467.91885"
     fx="373.24265"
     fy="467.91885"
     r="333.18735" /></defs><sodipodi:namedview
   pagecolor="#ffffff"
   bordercolor="#666666"
   borderopacity="1"
   objecttolerance="10"
   gridtolerance="10"
   guidetolerance="10"
   inkscape:pageopacity="0"
   inkscape:pageshadow="2"
   inkscape:window-width="1920"
   inkscape:window-height="1068"
   id="namedview36"
   showgrid="false"
   inkscape:zoom="1.1919192"
   inkscape:cx="220.10477"
   inkscape:cy="161.43854"
   inkscape:window-x="0"
   inkscape:window-y="0"
   inkscape:window-maximized="1"
   inkscape:current-layer="_x31_"
   fit-margin-top="0"
   fit-margin-left="0"
   fit-margin-right="0"
   fit-margin-bottom="0" />
<g
   id="LWPOLYLINE"
   style="fill:#000000;fill-opacity:1;stroke:none"
   transform="translate(-303.22034,-414.80509)">
	
		
</g>




<g
   id="LWPOLYLINE_5_"
   style="fill:#000000;fill-opacity:1;stroke:none"
   transform="translate(-303.22034,-414.80509)">
	
		
</g>




<g
   id="LWPOLYLINE_10_"
   style="fill:#000000;fill-opacity:1;stroke:none"
   transform="translate(-303.22034,-414.80509)">
	
		
</g>
<g
   id="g3300"
   transform="translate(-4.0524846e-6,3.5529445e-6)"><rect
     inkscape:export-ydpi="29.879425"
     inkscape:export-xdpi="29.879425"
     inkscape:export-filename="C:\Documents and Settings\adscro24\Desktop\128.png"
     style="opacity:0.61338286;fill:#464646;fill-opacity:0.78540775;stroke:none;filter:url(#filter4659)"
     id="rect3279"
     width="152.93848"
     height="152.93848"
     x="135.39355"
     y="48.636749"
     rx="16.067965"
     ry="12.45238"
     transform="matrix(2.1051501,0,0,2.1051501,-271.00298,-88.36689)" /><rect
     inkscape:export-ydpi="29.879425"
     inkscape:export-xdpi="29.879425"
     inkscape:export-filename="C:\Documents and Settings\adscro24\Desktop\128.png"
     style="opacity:0.61338286;fill:url(#radialGradient3092);fill-opacity:1;stroke:#000000;stroke-width:3.26806188;stroke-miterlimit:4;stroke-opacity:1;stroke-dasharray:none"
     id="rect3155"
     width="321.95847"
     height="321.95847"
     x="14.020748"
     y="14.020716"
     rx="33.825481"
     ry="26.21413" /><path
     transform="matrix(0.90779502,0,0,0.90779502,11.82035,-259.3651)"
     inkscape:export-ydpi="29.879425"
     inkscape:export-xdpi="29.879425"
     inkscape:export-filename="C:\Documents and Settings\adscro24\Desktop\128.png"
     inkscape:connector-curvature="0"
     style="opacity:0.61338286;fill:url(#linearGradient3734);fill-opacity:1;stroke:none;filter:url(#filter5511)"
     d="m 46.58172,323.34879 c -19.62748,0 -35.44272,12.0976 -35.44272,27.14163 l 0,124.30857 c 29.25482,11.38638 132.70149,11.89599 165.40488,-5.79022 33.32802,-18.02397 127.54379,-68.44264 171.82484,-52.72052 l 0,-65.79783 c 0,-15.04403 -15.7986,-27.14163 -35.4261,-27.14163 l -266.3609,0 z M 11.139,586.81982 l 0,42.88373 c 0,1.33144 0.14331,2.63588 0.38253,3.915 -0.11919,-12.81092 -0.25965,-28.88939 -0.38253,-46.79873 z"
     id="rect3177" /><rect
     inkscape:export-ydpi="29.879425"
     inkscape:export-xdpi="29.879425"
     inkscape:export-filename="C:\Documents and Settings\adscro24\Desktop\128.png"
     style="opacity:0.61338286;fill:url(#radialGradient3088);fill-opacity:1;stroke:#ffffff;stroke-width:0.68992418;stroke-linecap:square;stroke-miterlimit:4;stroke-opacity:1;stroke-dasharray:none"
     id="rect3473"
     width="306.12445"
     height="306.12445"
     x="21.937801"
     y="21.937769"
     rx="32.161926"
     ry="24.924913" /><rect
     inkscape:export-ydpi="29.879425"
     inkscape:export-xdpi="29.879425"
     inkscape:export-filename="C:\Documents and Settings\adscro24\Desktop\128.png"
     style="opacity:0.61338286;fill:#ffffff;fill-opacity:0;stroke:#000000;stroke-width:3.26806188;stroke-miterlimit:4;stroke-opacity:1;stroke-dasharray:none"
     id="rect3155-2"
     width="321.95847"
     height="321.95847"
     x="14.020748"
     y="14.020716"
     rx="33.825481"
     ry="26.21413" /><g
     transform="translate(400.39145,135.8211)"
     style="fill:#000000;fill-opacity:1;stroke:none"
     id="LWPOLYLINE_2_-0">
	
		
</g></g><g
   id="g3000"
   transform="matrix(0.5,0,0,0.5,21.999616,-23.000006)"><g
     style="fill:#000000;fill-opacity:1;stroke:none"
     id="LWPOLYLINE_4_">
	
		<path
   id="path16"
   d="m 209.3125,543.59375 c -0.11,0.003 -31.375,100.65625 -31.375,100.65625 l 0.40625,0 0.40625,0 0.25,0 0.3125,0 0.34375,0 0.3125,0 0.40625,0 0.40625,0 0.40625,0 0.4375,0 0.46875,0 0.46875,0 0.4375,0 0.5,0 0.5,0 0.46875,0 0.5,0 0.46875,0 0.46875,0 0.46875,0 0.46875,0 0.46875,0 0.4375,0 0.40625,0 0.40625,0 0.375,0 0.375,0 0.3125,0 0.28125,0 0.28125,0 0.21875,0 0.375,0 c 0.212,0 0.21875,-0.0312 0.21875,-0.0312 0.043,-0.127 0.0937,-0.34375 0.0937,-0.34375 l 0.0937,-0.28125 0.125,-0.34375 0.125,-0.46875 0.1875,-0.46875 0.15625,-0.5625 0.1875,-0.625 0.21875,-0.625 0.21875,-0.71875 0.25,-0.78125 0.25,-0.75 0.28125,-0.8125 0.25,-0.84375 0.28125,-0.90625 0.28125,-0.84375 0.3125,-0.9375 0.28125,-0.875 0.28125,-0.90625 0.3125,-0.9375 0.28125,-0.875 0.28125,-0.875 0.28125,-0.90625 0.28125,-0.90625 0.28125,-0.84375 0.25,-0.78125 0.25,-0.78125 0.25,-0.75 0.21875,-0.71875 0.21875,-0.65625 0.1875,-0.625 0.1875,-0.5625 0.15625,-0.46875 0.15625,-0.46875 0.0937,-0.3125 0.0937,-0.3125 c 0.063,-0.211 0.125,-0.34375 0.125,-0.34375 0.085,-0.043 0.28125,-0.0312 0.28125,-0.0312 l 0.3125,0 0.46875,0 0.53125,0 0.65625,0 0.78125,0 0.875,0 0.90625,0 1.03125,0 1.09375,0 1.125,0 1.21875,0 1.25,0 1.28125,0 1.3125,0 1.375,0 1.375,0 1.375,0 1.40625,0 1.40625,0 1.40625,0 1.375,0 1.34375,0 1.3125,0 1.3125,0 1.25,0 1.1875,0 1.15625,0 1.09375,0 1,0 0.96875,0 0.84375,0 0.75,0 0.65625,0 0.5625,0 0.4375,0 0.34375,0 0.28125,0 c 0.043,0.17 0.0937,0.375 0.0937,0.375 l 0.0937,0.3125 0.0937,0.3125 0.125,0.46875 0.125,0.46875 0.1875,0.5625 0.15625,0.625 0.1875,0.65625 0.1875,0.71875 0.25,0.75 0.21875,0.78125 0.21875,0.78125 0.21875,0.84375 0.28125,0.90625 0.25,0.90625 0.25,0.875 0.25,0.875 0.28125,0.9375 0.25,0.90625 0.25,0.875 0.25,0.9375 0.25,0.84375 0.28125,0.90625 0.21875,0.84375 0.21875,0.8125 0.25,0.75 0.21875,0.78125 0.1875,0.71875 0.1875,0.625 0.15625,0.625 0.1875,0.5625 0.125,0.46875 0.125,0.46875 0.0937,0.34375 0.0937,0.28125 c 0.064,0.213 0.0937,0.34375 0.0937,0.34375 0.105,0.041 0.25,0.0312 0.25,0.0312 l 0.40625,0 0.25,0 0.3125,0 0.34375,0 0.34375,0 0.40625,0 0.4375,0 0.46875,0 0.46875,0 0.5,0 0.5,0 0.53125,0 0.53125,0 0.53125,0 0.5625,0 0.5625,0 0.5625,0 0.53125,0 0.53125,0 0.5625,0 0.5,0 0.53125,0 0.5,0 0.46875,0 0.4375,0 0.4375,0 0.40625,0 0.34375,0 0.34375,0 0.3125,0 0.28125,0 0.1875,0 0.34375,0 c 0.042,-0.168 -0.15625,-0.71875 -0.15625,-0.71875 l -0.28125,-0.875 -0.375,-1.1875 -0.46875,-1.53125 -0.5625,-1.78125 -0.65625,-2.0625 -0.75,-2.3125 -0.8125,-2.5 -0.875,-2.75 -0.9375,-2.90625 -1,-3.09375 -1,-3.25 -1.09375,-3.375 -1.125,-3.46875 -1.125,-3.625 -1.1875,-3.625 -1.1875,-3.75 -1.1875,-3.75 -1.1875,-3.78125 -1.21875,-3.78125 -1.1875,-3.71875 -1.1875,-3.71875 -1.15625,-3.65625 -1.15625,-3.59375 -1.125,-3.5 -1.0625,-3.375 -1.03125,-3.21875 -1,-3.09375 -0.9375,-2.9375 -0.84375,-2.75 -0.8125,-2.5 -0.75,-2.34375 -0.65625,-2.03125 -0.5625,-1.78125 -0.46875,-1.53125 -0.375,-1.1875 -0.3125,-0.875 L 225.75,543.75 c -0.17,-0.168 -0.3125,-0.15625 -0.3125,-0.15625 l -0.46875,0 -0.28125,0 -0.34375,0 -0.375,0 -0.40625,0 -0.4375,0 -0.5,0 -0.5,0 -0.53125,0 -0.5625,0 -0.5625,0 -0.59375,0 -0.59375,0 -0.625,0 -0.59375,0 -0.625,0 -0.625,0 -0.59375,0 -0.625,0 -0.59375,0 -0.59375,0 -0.5625,0 -0.5625,0 -0.53125,0 -0.5,0 -0.46875,0 -0.46875,0 -0.40625,0 -0.375,0 -0.34375,0 -0.3125,0 -0.21875,0 -0.34375,0 z m 7.65625,12.25 c 0.054,-0.131 15.6875,52.84375 15.6875,52.84375 l -0.25,0 -0.28125,0 -0.34375,0 -0.46875,0 -0.5625,0 -0.65625,0 -0.6875,0 -0.8125,0 -0.84375,0 -0.875,0 -1,0 -0.96875,0 -1.0625,0 -1.09375,0 -1.09375,0 -1.15625,0 -1.15625,0 -1.15625,0 -1.15625,0 -1.1875,0 -1.15625,0 -1.15625,0 -1.15625,0 -1.09375,0 -1.09375,0 -1.0625,0 -0.96875,0 -0.96875,0 -0.90625,0 -0.84375,0 -0.78125,0 -0.71875,0 -0.65625,0 -0.53125,0 -0.46875,0 -0.375,0 -0.28125,0 -0.25,0 c 0.043,-0.127 0.125,-0.375 0.125,-0.375 l 0.125,-0.46875 0.1875,-0.625 0.25,-0.8125 0.28125,-0.9375 0.3125,-1.09375 0.34375,-1.1875 0.40625,-1.34375 0.4375,-1.4375 0.4375,-1.53125 0.5,-1.625 0.46875,-1.6875 0.53125,-1.78125 0.5625,-1.875 0.5625,-1.84375 0.5625,-1.96875 0.5625,-1.9375 0.5625,-1.96875 0.59375,-1.96875 0.59375,-2 0.59375,-1.9375 0.5625,-2 0.5625,-1.90625 0.5625,-1.875 0.5625,-1.875 0.53125,-1.78125 0.46875,-1.6875 0.5,-1.59375 0.4375,-1.53125 0.4375,-1.4375 0.375,-1.375 0.375,-1.1875 0.3125,-1.09375 0.28125,-0.9375 0.21875,-0.8125 0.1875,-0.625 0.125,-0.46875 0.0937,-0.25 z"
   style="fill:#000000;fill-opacity:1;stroke:none"
   inkscape:connector-curvature="0" />
</g><g
     style="fill:#000000;fill-opacity:1;stroke:none"
     id="LWPOLYLINE_1_">
	
		<path
   id="path7"
   d="m 234.375,401.21875 -1.96875,0.0312 -1.84375,0.125 -1.78125,0.25 -1.65625,0.3125 -1.59375,0.40625 -1.5,0.46875 -1.375,0.59375 -1.3125,0.625 -1.25,0.75 -1.15625,0.78125 -1.0625,0.90625 -1,0.9375 -0.9375,1 -0.84375,1.0625 -0.8125,1.15625 -0.71875,1.1875 -0.65625,1.25 -0.59375,1.3125 -0.5625,1.375 -0.5,1.4375 -0.4375,1.4375 -0.40625,1.53125 -0.34375,1.5625 -0.3125,1.5625 -0.25,1.65625 -0.25,1.6875 -0.21875,1.71875 -0.15625,1.78125 -0.125,1.78125 -0.125,1.78125 -0.0937,1.8125 -0.0625,1.875 -0.0625,1.90625 -0.0312,1.90625 0,1.90625 -0.0312,1.90625 0,1.9375 0,1.96875 0,2 0,1.9375 0,1.9375 0,2 0,1.9375 0.0312,1.96875 0,1.9375 0.0625,1.96875 0.0625,1.90625 0.0625,1.90625 0.0625,1.84375 0.125,1.875 0.125,1.8125 0.15625,1.84375 0.1875,1.78125 0.25,1.71875 0.25,1.75 0.28125,1.65625 0.34375,1.65625 0.375,1.5625 0.40625,1.5625 0.46875,1.46875 0.53125,1.4375 0.53125,1.40625 0.65625,1.375 0.65625,1.3125 0.71875,1.21875 0.78125,1.15625 0.875,1.09375 0.9375,1.0625 0.96875,0.96875 1.0625,0.90625 1.15625,0.78125 1.1875,0.78125 1.3125,0.65625 1.375,0.59375 1.4375,0.53125 1.53125,0.375 1.65625,0.34375 1.71875,0.25 1.78125,0.125 1.90625,0.0312 1.375,0 1.375,-0.0625 1.3125,-0.1875 1.25,-0.1875 1.21875,-0.28125 1.1875,-0.28125 1.125,-0.375 1.09375,-0.4375 1.0625,-0.46875 1.03125,-0.5 0.96875,-0.59375 0.96875,-0.59375 0.875,-0.6875 0.875,-0.65625 0.8125,-0.78125 0.78125,-0.75 0.75,-0.84375 0.71875,-0.875 0.6875,-0.875 0.625,-0.9375 0.59375,-0.96875 0.59375,-1.03125 0.53125,-1 0.5,-1.0625 0.46875,-1.125 0.4375,-1.09375 0.40625,-1.125 0.34375,-1.1875 0.34375,-1.1875 L 259,484 l 0.28125,-1.28125 0.25,-1.21875 0.1875,-1.28125 0.21875,-1.28125 0.125,-1.3125 0.125,-1.3125 0.125,-1.3125 0.0625,-1.34375 0.0312,-1.375 0.0312,-1.34375 -0.0312,-1.90625 -0.0625,-1.875 -0.0937,-1.8125 -0.125,-1.6875 -0.1875,-1.71875 -0.21875,-1.5625 -0.25,-1.53125 -0.28125,-1.46875 -0.3125,-1.40625 -0.34375,-1.34375 -0.375,-1.28125 -0.40625,-1.21875 -0.4375,-1.15625 -0.46875,-1.09375 -0.5,-1.0625 -0.5,-1.03125 -0.5625,-0.90625 -0.59375,-0.90625 -0.59375,-0.84375 -0.625,-0.75 -0.65625,-0.78125 -0.65625,-0.6875 -0.71875,-0.625 -0.71875,-0.59375 -0.75,-0.59375 -0.71875,-0.5 -0.78125,-0.46875 -0.78125,-0.4375 -0.84375,-0.375 -0.8125,-0.34375 -0.84375,-0.28125 -0.875,-0.3125 -0.84375,-0.21875 -0.875,-0.1875 -0.90625,-0.1875 -0.90625,-0.125 -0.90625,-0.0937 -0.9375,-0.0625 -0.9375,-0.0625 -0.9375,0 -0.4375,0 -0.5,0 -0.46875,0.0625 -0.46875,0.0312 -0.46875,0.0937 -0.46875,0.0312 -0.46875,0.0937 -0.46875,0.125 -0.46875,0.0937 -0.4375,0.125 -0.46875,0.15625 -0.46875,0.125 -0.4375,0.1875 -0.4375,0.15625 -0.4375,0.21875 -0.46875,0.15625 -0.40625,0.21875 -0.4375,0.25 -0.4375,0.21875 -0.40625,0.25 -0.4375,0.25 -0.40625,0.3125 -0.4375,0.25 -0.375,0.28125 -0.40625,0.34375 -0.375,0.3125 -0.40625,0.34375 -0.34375,0.3125 -0.375,0.34375 -0.375,0.40625 -0.34375,0.375 -0.34375,0.375 -0.34375,0.375 -0.3125,0.4375 -0.34375,0.40625 -0.3125,0.4375 L 221.75,446 l -0.28125,0.46875 -0.28125,0.46875 -0.28125,0.46875 0,-2.03125 0.0312,-1.90625 0,-1.90625 0.0625,-1.8125 0.0625,-1.75 0.0625,-1.6875 0.0625,-1.625 0.0937,-1.59375 0.0937,-1.5 0.125,-1.46875 0.125,-1.40625 0.15625,-1.3125 0.15625,-1.3125 0.1875,-1.1875 0.1875,-1.1875 0.21875,-1.15625 0.25,-1.03125 0.25,-1.03125 0.28125,-0.9375 0.28125,-0.9375 0.3125,-0.84375 0.34375,-0.8125 0.375,-0.75 0.34375,-0.71875 0.40625,-0.65625 0.4375,-0.625 0.4375,-0.5625 0.46875,-0.5 0.5,-0.5 0.5,-0.4375 0.5625,-0.375 0.5625,-0.34375 0.59375,-0.28125 0.625,-0.25 0.65625,-0.21875 0.65625,-0.1875 0.71875,-0.125 0.71875,-0.125 0.78125,-0.0312 0.78125,0 0.59375,0 0.59375,0.0312 0.5625,0.0937 0.5625,0.0937 0.5,0.125 0.53125,0.15625 0.5,0.1875 0.5,0.1875 0.4375,0.21875 0.46875,0.25 0.40625,0.3125 0.4375,0.28125 0.40625,0.3125 0.375,0.34375 0.375,0.34375 0.34375,0.375 0.375,0.375 0.3125,0.4375 0.28125,0.40625 0.3125,0.4375 0.28125,0.46875 0.25,0.46875 0.28125,0.4375 0.21875,0.46875 0.21875,0.53125 0.21875,0.5 0.15625,0.5 0.1875,0.53125 0.15625,0.5 0.15625,0.53125 0.125,0.5625 0.125,0.5 0.0937,0.5625 0.0937,0.5625 0.0625,0.53125 0.0625,0.5625 0.0625,0.5625 0.0312,0.53125 0,0.5625 0.0312,0.5625 0.34375,0 0.40625,0 0.25,0 0.28125,0 0.3125,0 0.34375,0 0.375,0 0.40625,0 0.40625,0 0.40625,0 0.4375,0 0.4375,0 0.46875,0 0.46875,0 0.46875,0 0.46875,0 0.46875,0 0.46875,0 0.4375,0 0.46875,0 0.46875,0 0.4375,0 0.40625,0 0.40625,0 0.375,0 0.375,0 0.34375,0 0.3125,0 0.3125,0 0.25,0 0.21875,0 0.3125,0 c 0.212,0 0.28125,-1.15625 0.28125,-1.15625 l 0,-1.15625 -0.0625,-1.0625 -0.0625,-1.09375 -0.125,-1.03125 -0.15625,-1 -0.1875,-1.03125 -0.28125,-0.96875 -0.25,-0.9375 -0.3125,-0.9375 -0.34375,-0.875 -0.40625,-0.84375 -0.40625,-0.84375 -0.46875,-0.8125 -0.5,-0.78125 -0.5,-0.75 -0.5625,-0.71875 -0.59375,-0.71875 -0.59375,-0.6875 -0.65625,-0.625 -0.65625,-0.59375 -0.71875,-0.59375 -0.71875,-0.5625 -0.71875,-0.5625 -0.8125,-0.4375 -0.78125,-0.46875 -0.84375,-0.46875 -0.84375,-0.375 -0.875,-0.40625 -0.875,-0.34375 -0.9375,-0.28125 -0.9375,-0.3125 -0.9375,-0.25 -1,-0.1875 -1,-0.1875 -0.96875,-0.15625 -1.0625,-0.125 -1.03125,-0.0937 -1.0625,-0.0312 -1.0625,0 z m 0,47.09375 0.84375,0.0312 0.84375,0.0625 0.78125,0.125 0.75,0.125 0.71875,0.15625 0.6875,0.25 0.65625,0.25 0.59375,0.3125 0.59375,0.28125 0.5625,0.40625 0.53125,0.375 0.5,0.40625 0.46875,0.4375 0.4375,0.5 0.4375,0.46875 0.375,0.5625 0.375,0.5 0.34375,0.59375 0.3125,0.59375 0.3125,0.59375 0.28125,0.59375 0.25,0.625 0.21875,0.6875 0.21875,0.625 0.1875,0.6875 0.1875,0.6875 0.15625,0.71875 0.15625,0.6875 0.125,0.71875 0.125,0.71875 0.0625,0.71875 0.0937,0.65625 0.0937,0.71875 0.0312,0.75 0.0625,0.71875 0.0312,0.71875 0.0312,0.71875 0.0312,0.65625 0,0.71875 0,0.6875 0,0.9375 0,0.9375 -0.0312,0.96875 0,0.9375 -0.0625,0.9375 -0.0312,0.9375 -0.0625,0.90625 -0.0625,0.9375 -0.0937,0.90625 -0.0937,0.875 -0.125,0.90625 -0.125,0.875 -0.125,0.84375 -0.125,0.84375 -0.1875,0.8125 -0.1875,0.84375 -0.21875,0.78125 -0.21875,0.75 -0.21875,0.78125 -0.28125,0.71875 -0.28125,0.71875 -0.28125,0.65625 -0.3125,0.65625 -0.34375,0.625 -0.375,0.59375 -0.40625,0.5625 -0.40625,0.53125 -0.4375,0.46875 -0.46875,0.46875 -0.5,0.46875 -0.5,0.375 -0.5625,0.375 -0.5625,0.3125 -0.59375,0.28125 -0.625,0.28125 -0.6875,0.15625 -0.6875,0.1875 -0.75,0.125 -0.75,0.0312 -0.78125,0.0312 -0.90625,-0.0312 -0.90625,-0.0312 -0.84375,-0.125 -0.8125,-0.1875 -0.75,-0.21875 -0.75,-0.25 -0.6875,-0.28125 -0.65625,-0.34375 -0.65625,-0.375 -0.59375,-0.4375 -0.5625,-0.46875 -0.53125,-0.46875 -0.5,-0.5 -0.46875,-0.5625 -0.4375,-0.59375 -0.4375,-0.59375 -0.375,-0.625 -0.375,-0.6875 -0.3125,-0.65625 -0.34375,-0.6875 -0.28125,-0.71875 -0.28125,-0.78125 -0.21875,-0.75 -0.25,-0.75 -0.21875,-0.8125 -0.1875,-0.8125 -0.125,-0.8125 -0.15625,-0.8125 -0.15625,-0.84375 -0.0937,-0.84375 -0.125,-0.8125 -0.0625,-0.84375 -0.0937,-0.84375 -0.0625,-0.875 -0.0625,-0.84375 -0.0312,-0.8125 -0.0312,-0.84375 0,-0.84375 -0.0312,-0.875 0,-0.78125 0,-0.65625 0.0312,-0.625 0,-0.625 0.0312,-0.6875 0.0312,-0.6875 0.0625,-0.71875 0.0625,-0.6875 0.0625,-0.71875 0.0937,-0.71875 0.0937,-0.71875 0.0937,-0.71875 0.125,-0.75 0.15625,-0.71875 0.1875,-0.71875 0.15625,-0.71875 0.1875,-0.71875 0.21875,-0.6875 0.21875,-0.71875 0.25,-0.6875 0.28125,-0.6875 0.3125,-0.625 0.34375,-0.625 0.3125,-0.65625 0.375,-0.59375 0.40625,-0.53125 0.40625,-0.5625 0.4375,-0.5625 0.5,-0.4375 0.46875,-0.46875 0.53125,-0.46875 0.5625,-0.375 0.59375,-0.40625 0.59375,-0.34375 0.6875,-0.28125 0.65625,-0.25 0.71875,-0.21875 0.78125,-0.15625 0.78125,-0.125 0.8125,-0.0625 0.84375,-0.0312 z"
   style="fill:#000000;fill-opacity:1;stroke:none"
   inkscape:connector-curvature="0" />
</g><g
     style="fill:#000000;fill-opacity:1;stroke:none"
     id="LWPOLYLINE_9_">
	
		<path
   id="polygon31"
   d="m 314.28125,146 -3.90625,0.0937 -3.75,0.34375 -3.5625,0.5 -3.40625,0.71875 -3.25,0.90625 -3.125,1.09375 -2.96875,1.25 -2.8125,1.4375 -2.6875,1.5625 -2.53125,1.75 -2.40625,1.875 -2.28125,2 -2.1875,2.15625 -2.03125,2.25 -1.90625,2.375 -1.78125,2.5 -1.71875,2.5625 -1.5625,2.65625 -1.46875,2.75 -1.375,2.84375 -1.25,2.90625 -1.1875,2.9375 -1.0625,3.03125 -1,3.03125 -0.90625,3.125 -0.8125,3.125 -0.78125,3.15625 -0.65625,3.15625 -0.59375,3.1875 -0.53125,3.15625 -0.4375,3.15625 -0.40625,3.1875 -0.34375,3.125 -0.28125,3.125 -0.21875,3.03125 -0.1875,3.03125 -0.125,2.96875 -0.0937,2.9375 -0.0625,2.84375 0,2.75 0,1.65625 0,1.65625 0.0312,1.625 0.0312,1.65625 0.0625,1.65625 0.0625,1.6875 0.0625,1.65625 0.0937,1.65625 0.125,1.6875 0.125,1.6875 0.125,1.6875 0.15625,1.65625 0.1875,1.6875 0.1875,1.65625 0.1875,1.65625 0.25,1.65625 0.25,1.6875 0.28125,1.625 0.28125,1.65625 0.3125,1.625 0.34375,1.625 0.34375,1.625 0.375,1.59375 0.40625,1.59375 0.46875,1.5625 0.4375,1.5625 0.5,1.5625 0.5,1.5 0.5625,1.53125 0.5625,1.46875 0.59375,1.5 0.65625,1.4375 0.65625,1.4375 0.6875,1.375 0.71875,1.40625 0.75,1.34375 0.8125,1.34375 0.8125,1.3125 0.84375,1.25 0.90625,1.25 0.71875,0.875 0.75,0.8125 0.78125,0.8125 0.8125,0.78125 0.8125,0.75 0.875,0.78125 0.84375,0.71875 0.90625,0.71875 0.90625,0.6875 0.9375,0.6875 0.9375,0.6875 0.96875,0.625 1,0.625 1,0.59375 1,0.59375 1.03125,0.5625 1.0625,0.5625 1.0625,0.5 1.0625,0.5 1.09375,0.5 1.0625,0.46875 1.125,0.4375 1.125,0.40625 1.125,0.40625 1.125,0.375 1.15625,0.34375 1.125,0.34375 1.1875,0.28125 1.15625,0.3125 1.15625,0.25 1.1875,0.21875 1.15625,0.21875 1.15625,0.1875 1.1875,0.1875 1.1875,0.125 1.15625,0.125 1.1875,0.0625 1.1875,0.0625 1.1875,0.0625 1.1875,0 2.1875,-0.0312 2.21875,-0.125 2.15625,-0.15625 L 317.8125,320.75 320,320.40625 322.09375,320 l 2.125,-0.5 2.125,-0.53125 2.03125,-0.65625 2.09375,-0.71875 1.96875,-0.75 2,-0.875 1.96875,-0.9375 1.84375,-1 1.875,-1.0625 1.8125,-1.15625 1.78125,-1.21875 1.75,-1.28125 1.65625,-1.40625 1.65625,-1.4375 1.5625,-1.53125 1.46875,-1.5625 1.4375,-1.65625 1.40625,-1.75 1.3125,-1.8125 1.28125,-1.875 1.1875,-1.96875 1.09375,-2 1.03125,-2.125 0.96875,-2.15625 0.875,-2.25 0.8125,-2.3125 0.6875,-2.40625 0.625,-2.46875 0.5625,-2.53125 0.40625,-2.59375 0.40625,-2.6875 0.25,-2.75 0.125,-2.8125 0.0312,-2.90625 -0.0312,-2.625 -0.125,-2.59375 -0.21875,-2.5 -0.3125,-2.4375 -0.375,-2.375 -0.40625,-2.3125 -0.5625,-2.25 -0.59375,-2.15625 -0.71875,-2.125 -0.71875,-2.03125 -0.84375,-2 L 360.5,235 l -0.9375,-1.84375 -1.03125,-1.78125 -1.0625,-1.71875 L 356.3125,228 l -1.21875,-1.59375 -1.28125,-1.53125 -1.3125,-1.4375 -1.34375,-1.375 -1.46875,-1.34375 -1.4375,-1.25 -1.53125,-1.15625 -1.59375,-1.125 -1.625,-1.0625 -1.65625,-0.96875 -1.6875,-0.90625 -1.71875,-0.84375 -1.78125,-0.78125 -1.84375,-0.71875 L 333,211.25 l -1.90625,-0.5625 -1.90625,-0.53125 -1.90625,-0.4375 -2,-0.375 -2,-0.3125 -1.96875,-0.21875 -2.03125,-0.1875 -2.09375,-0.0937 -2.0625,-0.0312 -1.78125,0.0312 -1.75,0.0625 -1.6875,0.125 -1.65625,0.15625 -1.5625,0.1875 -1.5625,0.25 -1.46875,0.28125 -1.4375,0.3125 -1.40625,0.34375 -1.3125,0.40625 -1.3125,0.40625 -1.25,0.4375 -1.1875,0.5 -1.1875,0.5 -1.125,0.53125 -1.0625,0.53125 -1.0625,0.59375 -1,0.59375 -0.96875,0.59375 -0.90625,0.625 -0.90625,0.65625 -0.875,0.65625 -0.8125,0.65625 -0.78125,0.65625 -0.75,0.71875 -0.75,0.6875 -0.71875,0.6875 -0.65625,0.6875 -0.65625,0.71875 -0.59375,0.6875 -0.59375,0.6875 -0.5625,0.6875 -0.5625,0.6875 -0.5,0.6875 -0.46875,0.65625 -0.5,0.65625 -0.4375,0.65625 -0.46875,0.625 -0.375,0.625 -0.40625,0.59375 0.125,-3.28125 0.21875,-3.1875 0.1875,-3.125 0.25,-3 0.3125,-2.9375 0.34375,-2.84375 0.34375,-2.75 0.40625,-2.65625 0.4375,-2.59375 0.5,-2.5 0.53125,-2.40625 0.5625,-2.3125 0.59375,-2.25 0.65625,-2.15625 0.6875,-2.0625 0.71875,-2 0.78125,-1.90625 0.78125,-1.8125 0.84375,-1.75 0.90625,-1.65625 0.9375,-1.5625 0.96875,-1.46875 1.03125,-1.40625 1.03125,-1.34375 1.125,-1.21875 1.15625,-1.1875 1.1875,-1.0625 1.21875,-1 1.3125,-0.90625 1.3125,-0.84375 1.375,-0.75 1.40625,-0.65625 1.5,-0.59375 1.5,-0.53125 1.5625,-0.4375 1.59375,-0.34375 1.65625,-0.28125 1.6875,-0.1875 1.78125,-0.0937 1.78125,-0.0625 0.8125,0 0.8125,0.0625 0.78125,0.0312 0.8125,0.0937 0.84375,0.0625 0.84375,0.125 0.84375,0.15625 0.875,0.1875 0.84375,0.1875 0.875,0.21875 0.84375,0.25 0.84375,0.28125 0.875,0.3125 0.78125,0.34375 0.875,0.375 0.78125,0.40625 0.8125,0.46875 0.8125,0.46875 0.75,0.5 0.78125,0.5625 0.75,0.59375 0.71875,0.625 0.6875,0.65625 0.6875,0.71875 0.625,0.75 0.59375,0.78125 0.59375,0.84375 0.53125,0.875 0.53125,0.90625 0.5,0.96875 0.4375,1 0.40625,1.0625 0.34375,1.125 0.34375,1.15625 0.28125,1.21875 0.21875,1.25 0.1875,1.3125 0.125,1.34375 0.0625,1.4375 0.0625,1.46875 25.15625,0 0,-0.53125 0,-0.5625 0,-0.53125 0,-0.59375 0,-0.5625 -0.0312,-0.5625 0,-0.625 -0.0312,-0.59375 0,-0.625 -0.0625,-0.625 -0.0312,-0.65625 -0.0937,-0.625 -0.0312,-0.65625 -0.0937,-0.6875 -0.0937,-0.6875 -0.0625,-0.65625 -0.125,-0.6875 -0.125,-0.6875 -0.125,-0.71875 -0.1875,-0.71875 -0.15625,-0.71875 -0.1875,-0.75 -0.21875,-0.71875 -0.1875,-0.71875 -0.25,-0.75 -0.28125,-0.75 -0.28125,-0.75 -0.3125,-0.75 -0.3125,-0.75 -0.34375,-0.78125 -0.375,-0.75 -0.4375,-0.78125 -0.4375,-0.78125 -0.4375,-0.78125 -0.46875,-0.75 -0.53125,-0.78125 -0.53125,-0.8125 -0.59375,-0.78125 -0.59375,-0.75 -0.65625,-0.78125 -0.46875,-0.46875 -0.46875,-0.46875 -0.53125,-0.5 -0.5,-0.5 -0.59375,-0.46875 -0.5625,-0.53125 -0.625,-0.53125 -0.65625,-0.5 -0.65625,-0.53125 -0.6875,-0.5 -0.71875,-0.53125 -0.71875,-0.53125 -0.8125,-0.53125 -0.75,-0.5 -0.875,-0.53125 -0.84375,-0.53125 -0.875,-0.46875 -0.9375,-0.5 -0.9375,-0.5 -0.96875,-0.46875 -1.03125,-0.46875 -1.0625,-0.46875 -1.03125,-0.4375 -1.125,-0.4375 -1.125,-0.40625 -1.15625,-0.375 -1.21875,-0.375 -1.25,-0.34375 -1.25,-0.34375 -1.3125,-0.3125 -1.3125,-0.28125 -1.40625,-0.25 -1.40625,-0.21875 -1.4375,-0.21875 -1.5,-0.1875 -1.5,-0.15625 -1.59375,-0.0937 -1.5625,-0.0937 -1.65625,-0.0625 -1.625,0 z m -2.65625,80.71875 2.0625,0.0625 1.9375,0.125 1.875,0.25 1.78125,0.3125 1.6875,0.40625 1.59375,0.46875 1.53125,0.53125 1.4375,0.65625 1.40625,0.6875 1.3125,0.75 1.21875,0.8125 1.15625,0.875 1.09375,0.90625 1.0625,1 0.9375,1 0.9375,1.03125 0.84375,1.125 0.75,1.09375 0.78125,1.15625 0.6875,1.1875 0.59375,1.1875 0.59375,1.21875 0.5,1.25 0.5,1.21875 0.4375,1.25 0.375,1.25 0.375,1.21875 0.3125,1.28125 0.28125,1.21875 0.21875,1.1875 0.21875,1.21875 0.1875,1.15625 0.125,1.1875 0.15625,1.125 0.125,1.09375 0.0312,1.03125 0.0937,1.03125 0.0312,0.96875 0,0.9375 0,0.875 0,2.03125 -0.125,2 -0.125,1.90625 -0.21875,1.875 -0.28125,1.8125 -0.34375,1.71875 -0.375,1.6875 -0.4375,1.59375 -0.5,1.5625 -0.53125,1.5 -0.59375,1.40625 -0.625,1.375 -0.6875,1.34375 -0.71875,1.25 -0.75,1.21875 -0.75,1.15625 -0.875,1.09375 -0.84375,1.0625 -0.9375,0.96875 -0.875,0.9375 -0.96875,0.875 -0.96875,0.84375 -1.03125,0.78125 -1.0625,0.71875 -1.0625,0.71875 -1.0625,0.625 -1.09375,0.5625 -1.09375,0.5625 -1.15625,0.5 -1.125,0.4375 -1.15625,0.40625 -1.15625,0.34375 -1.1875,0.3125 -1.1875,0.28125 -1.1875,0.21875 -1.125,0.1875 -1.1875,0.125 -1.1875,0.125 -1.1875,0.0312 -1.1875,0.0312 -1.375,-0.0312 -1.34375,-0.0937 -1.3125,-0.125 -1.28125,-0.21875 -1.3125,-0.25 -1.25,-0.3125 -1.25,-0.34375 -1.21875,-0.4375 -1.1875,-0.4375 -1.15625,-0.53125 -1.1875,-0.5625 -1.09375,-0.625 -1.09375,-0.65625 -1.0625,-0.71875 -1.03125,-0.75 -1.03125,-0.8125 -0.9686,-0.84375 -0.9375,-0.875 -0.90625,-0.9375 -0.90625,-0.96875 -0.84375,-1 -0.8125,-1.0625 -0.78125,-1.09375 -0.71875,-1.125 -0.6875,-1.1875 -0.6875,-1.1875 -0.59375,-1.25 -0.59375,-1.25 -0.53125,-1.3125 -0.5,-1.34375 -0.46875,-1.375 -0.40625,-1.40625 -0.34375,-1.40625 -0.34375,-1.46875 -0.25,-1.5 -0.25,-1.53125 -0.15625,-1.53125 -0.125,-1.5625 -0.0937,-1.59375 -0.0312,-1.625 0.0312,-1.40625 0.0625,-1.4375 0.0937,-1.4375 0.15625,-1.40625 0.1875,-1.40625 0.25,-1.40625 0.28125,-1.40625 0.3125,-1.375 0.34375,-1.375 0.40625,-1.375 0.4375,-1.3125 0.5,-1.3125 0.53125,-1.3125 0.5625,-1.25 0.59375,-1.25 0.65625,-1.21875 0.71875,-1.1875 0.71875,-1.15625 0.78125,-1.125 0.84375,-1.09375 0.875,-1.0625 0.90625,-1 0.9375,-1 1,-0.90625 1.0625,-0.9375 1.0625,-0.84375 1.125,-0.8125 1.15625,-0.71875 1.1875,-0.71875 1.25,-0.65625 1.3125,-0.59375 1.3125,-0.53125 1.375,-0.5 1.4375,-0.40625 1.46875,-0.40625 1.5,-0.28125 1.53125,-0.25 1.59375,-0.1875 1.625,-0.0937 1.65625,-0.0312 z"
   style="fill:#000000;fill-opacity:1;stroke:none"
   inkscape:connector-curvature="0" />
</g><g
     style="fill:#000000;fill-opacity:1;stroke:none"
     id="LWPOLYLINE_2_">
	
		<path
   style="fill:#000000;fill-opacity:1;stroke:none"
   id="path10"
   d="m 264.757,402.951 c 0,0.17 0,0.297 0,0.297 0,0.17 0,0.383 0,0.383 v 0.211 0.297 0.254 0.297 0.34 0.338 0.383 0.381 0.381 0.424 0.383 0.424 0.424 0.424 0.424 0.424 0.424 0.381 0.424 0.383 0.381 0.381 0.34 0.297 0.338 0.256 0.254 0.254 c 0,0.213 0,0.381 0,0.381 0,0.127 0,0.213 0,0.213 0.19,0.084 0.424,0.084 0.424,0.084 h 0.318 0.381 0.467 0.529 0.594 0.657 0.699 0.763 0.806 0.826 0.891 0.89 0.933 0.954 0.953 0.976 0.975 0.975 0.976 0.953 0.954 0.911 0.911 0.869 0.848 0.806 0.741 0.721 0.636 0.615 0.529 0.445 0.402 0.318 0.212 c 0.19,0.17 0.19,0.637 0.19,0.637 v 0.805 1.061 1.355 1.568 1.822 2.035 2.246 2.459 2.586 2.754 2.883 2.967 3.137 3.18 3.221 3.307 3.35 3.348 3.35 3.305 3.307 3.264 3.18 3.094 3.01 2.883 2.754 2.586 2.416 2.248 2.033 1.822 1.611 1.314 1.102 0.764 0.508 c 0.212,0.17 0.36,0.17 0.36,0.17 0.212,0 0.445,0 0.445,0 h 0.254 0.297 0.318 0.36 0.381 0.403 0.424 0.424 0.466 0.467 0.466 0.466 0.488 0.487 0.487 0.487 0.487 0.467 0.466 0.445 0.445 0.424 0.402 0.382 0.339 0.339 0.297 0.254 0.233 c 0.19,0 0.36,0 0.36,0 0.212,-0.17 0.212,-0.678 0.212,-0.678 v -0.764 -1.102 -1.314 -1.611 -1.822 -2.033 -2.248 -2.416 -2.586 -2.754 -2.883 -3.01 -3.094 -3.18 -3.264 -3.314 -3.305 -3.35 -3.348 -3.35 -3.307 -3.221 -3.18 -3.137 -2.967 -2.883 -2.754 -2.586 -2.459 -2.246 -2.035 -1.822 -1.568 -1.355 -1.061 -0.805 -0.467 c 0.17,-0.17 0.402,-0.17 0.402,-0.17 h 0.297 0.382 0.445 0.508 0.594 0.594 0.721 0.721 0.763 0.806 0.848 0.89 0.891 0.89 0.933 0.975 0.933 0.933 0.933 0.933 0.933 0.89 0.848 0.848 0.806 0.806 0.721 0.678 0.636 0.594 0.509 0.424 0.381 0.297 0.212 c 0.212,-0.17 0.212,-0.297 0.212,-0.297 0,-0.168 0,-0.381 0,-0.381 v -0.254 -0.254 -0.256 -0.338 -0.297 -0.34 -0.381 -0.381 -0.383 -0.424 -0.381 -0.424 -0.424 -0.424 -0.424 -0.424 -0.424 -0.383 -0.424 -0.381 -0.381 -0.383 -0.338 -0.34 -0.297 -0.254 -0.297 -0.211 c 0,-0.213 0,-0.383 0,-0.383 0,-0.127 0,-0.211 0,-0.211 -0.008,-0.079 -64.267,-0.079 -64.267,-0.079 z"
   stroke-miterlimit="10"
   inkscape:connector-curvature="0" />
</g><g
     style="fill:#000000;fill-opacity:1;stroke:none"
     id="LWPOLYLINE_3_">
	
		<path
   style="fill:#000000;fill-opacity:1;stroke:none"
   id="path13"
   d="m 341.139,503.664 c 0.212,0 0.339,0 0.339,0 0.212,0 0.424,0 0.424,0 h 0.255 0.254 0.297 0.339 0.382 0.339 0.424 0.382 0.424 0.424 0.466 0.424 0.467 0.466 0.467 0.424 0.466 0.424 0.424 0.424 0.424 0.382 0.382 0.339 0.339 0.297 0.297 0.254 c 0.212,0 0.382,0 0.382,0 0.17,0 0.254,0 0.254,0 0.085,-0.084 0.085,-0.34 0.085,-0.34 v -0.424 -0.551 -0.678 -0.805 -0.975 -1.018 -1.188 -1.229 -1.357 -1.398 -1.484 -1.525 -1.611 -1.652 -1.652 -1.695 -1.738 -1.695 -1.738 -1.695 -1.695 -1.695 -1.611 -1.611 -1.525 -1.484 -1.439 -1.314 -1.271 -1.145 -1.061 -0.932 -0.807 -0.721 -0.551 -0.381 -0.254 c 0.085,-0.086 0.255,-0.086 0.255,-0.086 h 0.296 0.424 0.509 0.636 0.721 0.764 0.89 0.933 1.018 1.06 1.145 1.145 1.187 1.271 1.229 1.313 1.271 1.314 1.271 1.314 1.271 1.271 1.229 1.229 1.145 1.103 1.102 0.976 0.975 0.848 0.806 0.721 0.593 0.509 0.424 0.297 c 0.212,0 0.254,0 0.254,0 0,0.086 0,0.34 0,0.34 v 0.381 0.551 0.721 0.807 0.932 1.061 1.145 1.271 1.314 1.439 1.484 1.525 1.611 1.611 1.695 1.695 1.695 1.738 1.695 1.738 1.695 1.652 1.652 1.611 1.525 1.484 1.398 1.357 1.229 1.188 1.018 0.975 0.805 0.678 0.551 0.424 0.256 c 0.213,0.084 0.382,0.084 0.382,0.084 0.212,0 0.424,0 0.424,0 h 0.255 0.296 0.34 0.339 0.382 0.424 0.424 0.424 0.466 0.467 0.466 0.466 0.467 0.509 0.466 0.509 0.467 0.466 0.466 0.467 0.424 0.424 0.424 0.382 0.339 0.339 0.297 0.254 0.212 c 0.212,0 0.382,0 0.382,0 0.212,-0.211 0.212,-0.764 0.212,-0.764 v -0.889 -1.188 -1.525 -1.781 -2.033 -2.332 -2.502 -2.754 -2.926 -3.094 -3.221 -3.391 -3.477 -3.604 -3.645 -3.73 -3.73 -3.771 -3.773 -3.771 -3.73 -3.645 -3.561 -3.52 -3.348 -3.264 -3.096 -2.924 -2.713 -2.543 -2.289 -2.076 -1.781 -1.525 -1.188 -0.891 -0.551 c -0.212,-0.17 -0.382,-0.17 -0.382,-0.17 -0.212,0 -0.424,0 -0.424,0 h -0.254 -0.297 -0.339 -0.339 -0.382 -0.424 -0.424 -0.424 -0.467 -0.466 -0.466 -0.467 -0.509 -0.466 -0.509 -0.467 -0.466 -0.466 -0.467 -0.466 -0.424 -0.424 -0.424 -0.382 -0.339 -0.34 -0.296 -0.255 -0.212 c -0.212,0 -0.381,0 -0.381,0 -0.213,0.086 -0.213,0.297 -0.213,0.297 v 0.383 0.508 0.678 0.764 0.891 0.975 1.102 1.188 1.271 1.314 1.398 1.441 1.525 1.525 1.611 1.568 1.611 1.652 1.611 1.609 1.611 1.568 1.568 1.484 1.482 1.398 1.314 1.271 1.188 1.059 1.018 0.891 0.764 0.635 0.51 0.381 0.254 c -0.042,0.086 -0.254,0.086 -0.254,0.086 h -0.297 -0.424 -0.509 -0.593 -0.721 -0.806 -0.848 -0.975 -0.976 -1.102 -1.103 -1.145 -1.229 -1.229 -1.271 -1.271 -1.314 -1.271 -1.314 -1.271 -1.313 -1.229 -1.271 -1.187 -1.145 -1.145 -1.06 -1.018 -0.933 -0.89 -0.764 -0.721 -0.636 -0.509 -0.424 -0.296 c -0.17,0 -0.255,0 -0.255,0 0,-0.086 0,-0.34 0,-0.34 v -0.381 -0.51 -0.635 -0.764 -0.891 -1.018 -1.059 -1.188 -1.271 -1.314 -1.398 -1.482 -1.484 -1.568 -1.568 -1.611 -1.609 -1.611 -1.652 -1.611 -1.568 -1.611 -1.525 -1.525 -1.441 -1.398 -1.314 -1.271 -1.188 -1.102 -0.975 -0.891 -0.764 -0.678 -0.508 -0.383 -0.211 c -0.169,-0.086 -0.339,-0.086 -0.339,-0.086 -0.17,0 -0.382,0 -0.382,0 h -0.254 -0.297 -0.297 -0.339 -0.339 -0.382 -0.382 -0.424 -0.424 -0.424 -0.424 -0.466 -0.424 -0.467 -0.466 -0.467 -0.424 -0.466 -0.424 -0.424 -0.382 -0.424 -0.339 -0.382 -0.339 -0.297 -0.254 -0.255 c -0.212,0 -0.424,0 -0.424,0 -0.127,0 -0.212,0 -0.212,0 -0.127,0.003 -0.127,100.716 -0.127,100.716 z"
   stroke-miterlimit="10"
   inkscape:connector-curvature="0" />
</g><g
     style="fill:#000000;fill-opacity:1;stroke:none"
     id="LWPOLYLINE_6_">
	
		<path
   style="fill:#000000;fill-opacity:1;stroke:none"
   id="path22"
   d="m 303.838,592.168 c 0.042,-0.084 0.19,-0.338 0.19,-0.338 l 0.233,-0.424 0.318,-0.594 0.402,-0.721 0.487,-0.848 0.53,-1.018 0.636,-1.102 0.678,-1.23 0.721,-1.312 0.763,-1.398 0.848,-1.484 0.849,-1.568 0.932,-1.652 0.933,-1.654 0.933,-1.738 0.976,-1.779 1.017,-1.781 0.976,-1.822 1.017,-1.822 1.018,-1.822 1.018,-1.822 0.975,-1.781 0.975,-1.779 0.976,-1.738 0.933,-1.654 0.89,-1.652 0.891,-1.568 0.805,-1.484 0.763,-1.398 0.764,-1.312 0.678,-1.23 0.594,-1.102 0.551,-1.018 0.467,-0.848 0.424,-0.721 0.339,-0.594 0.212,-0.424 0.127,-0.254 c -0.169,-0.084 -0.339,-0.084 -0.339,-0.084 -0.17,0 -0.424,0 -0.424,0 h -0.297 -0.297 -0.381 -0.382 -0.382 -0.424 -0.466 -0.467 -0.466 -0.509 -0.509 -0.509 -0.509 -0.508 -0.509 -0.552 -0.508 -0.509 -0.467 -0.509 -0.466 -0.424 -0.424 -0.424 -0.382 -0.339 -0.297 -0.297 -0.254 c -0.212,0 -0.382,0 -0.382,0 -0.169,0 -0.212,0 -0.212,0 -0.042,0.041 -0.169,0.254 -0.169,0.254 l -0.17,0.338 -0.254,0.467 -0.297,0.594 -0.382,0.721 -0.424,0.764 -0.466,0.889 -0.509,1.018 -0.594,1.061 -0.594,1.102 -0.636,1.229 -0.678,1.23 -0.679,1.312 -0.763,1.357 -0.721,1.398 -0.763,1.441 -0.763,1.441 -0.764,1.441 -0.805,1.441 -0.764,1.482 -0.784,1.441 -0.763,1.441 -0.763,1.441 -0.742,1.398 -0.721,1.355 -0.699,1.273 -0.678,1.271 -0.636,1.186 -0.594,1.145 -0.572,1.061 -0.529,0.975 -0.467,0.891 -0.424,0.805 -0.382,0.721 -0.317,0.551 -0.233,0.467 -0.19,0.381 c -0.106,0.213 -0.148,0.254 -0.148,0.254 -0.042,-0.041 -0.148,-0.254 -0.148,-0.254 l -0.17,-0.381 -0.232,-0.467 -0.318,-0.551 -0.339,-0.721 -0.424,-0.805 -0.445,-0.891 -0.509,-0.975 -0.529,-1.061 -0.594,-1.145 -0.594,-1.186 -0.656,-1.271 -0.657,-1.273 -0.699,-1.355 -0.721,-1.398 -0.721,-1.441 -0.742,-1.441 -0.741,-1.441 -0.742,-1.482 -0.741,-1.441 -0.742,-1.441 -0.742,-1.441 -0.741,-1.441 -0.699,-1.398 -0.7,-1.357 -0.656,-1.312 -0.657,-1.23 -0.614,-1.229 -0.572,-1.102 -0.552,-1.061 -0.487,-1.018 -0.466,-0.889 -0.403,-0.764 -0.36,-0.721 -0.296,-0.594 -0.233,-0.467 -0.17,-0.338 c -0.105,-0.213 -0.148,-0.254 -0.148,-0.254 -0.105,0 -0.232,0 -0.232,0 -0.191,0 -0.403,0 -0.403,0 h -0.254 -0.318 -0.339 -0.36 -0.402 -0.424 -0.467 -0.466 -0.487 -0.509 -0.53 -0.551 -0.529 -0.552 -0.551 -0.551 -0.552 -0.551 -0.529 -0.53 -0.509 -0.509 -0.466 -0.445 -0.445 -0.402 -0.36 -0.339 -0.297 -0.275 -0.212 c -0.17,0 -0.297,0 -0.297,0 -0.063,0.084 0.085,0.338 0.085,0.338 l 0.233,0.424 0.317,0.594 0.403,0.721 0.487,0.848 0.551,1.018 0.614,1.102 0.657,1.23 0.742,1.312 0.784,1.398 0.826,1.484 0.869,1.568 0.89,1.652 0.933,1.654 0.976,1.738 0.975,1.779 0.996,1.781 0.996,1.822 0.996,1.822 1.018,1.822 0.996,1.822 0.996,1.781 0.975,1.779 0.975,1.738 0.933,1.654 0.891,1.652 0.868,1.568 0.827,1.484 0.784,1.398 0.721,1.312 0.678,1.23 0.614,1.102 0.552,1.018 0.487,0.848 0.402,0.721 0.318,0.594 0.232,0.424 0.148,0.254 c 0,0.211 -0.148,0.467 -0.148,0.467 l -0.254,0.465 -0.317,0.637 -0.425,0.764 -0.487,0.932 -0.572,1.061 -0.636,1.186 -0.699,1.314 -0.741,1.398 -0.827,1.527 -0.848,1.609 -0.89,1.695 -0.933,1.738 -0.954,1.781 -0.996,1.863 -1.018,1.908 -1.017,1.908 -1.039,1.949 -1.038,1.949 -1.039,1.951 -1.038,1.949 -1.018,1.906 -1.017,1.908 -0.996,1.822 -0.954,1.822 -0.933,1.738 -0.89,1.695 -0.869,1.611 -0.806,1.484 -0.742,1.441 -0.699,1.312 -0.636,1.188 -0.572,1.061 -0.487,0.889 -0.424,0.807 -0.317,0.635 -0.255,0.424 -0.148,0.297 c 0.148,0.084 0.318,0.084 0.318,0.084 0.19,0 0.424,0 0.424,0 h 0.275 0.297 0.317 0.36 0.36 0.403 0.424 0.444 0.445 0.467 0.466 0.487 0.487 0.487 0.488 0.487 0.466 0.487 0.467 0.445 0.444 0.403 0.402 0.382 0.36 0.317 0.297 0.275 0.233 c 0.19,0 0.339,0 0.339,0 0.212,0 0.254,-0.084 0.254,-0.084 l 0.106,-0.211 0.19,-0.383 0.275,-0.508 0.318,-0.678 0.382,-0.764 0.444,-0.891 0.487,-0.975 0.552,-1.102 0.593,-1.188 0.636,-1.229 0.657,-1.357 0.699,-1.398 0.721,-1.441 0.764,-1.525 0.763,-1.525 0.806,-1.568 0.783,-1.611 0.827,-1.611 0.806,-1.652 0.805,-1.611 0.827,-1.609 0.784,-1.611 0.805,-1.568 0.764,-1.568 0.763,-1.484 0.721,-1.482 0.699,-1.398 0.657,-1.314 0.636,-1.271 0.593,-1.188 0.552,-1.061 0.487,-1.016 0.445,-0.848 0.381,-0.807 0.318,-0.635 0.275,-0.51 0.19,-0.381 0.106,-0.254 c 0.085,0 0.212,0.254 0.212,0.254 l 0.212,0.381 0.275,0.51 0.36,0.635 0.402,0.807 0.487,0.848 0.53,1.016 0.594,1.061 0.636,1.188 0.678,1.271 0.721,1.314 0.742,1.398 0.805,1.482 0.806,1.484 0.826,1.568 0.869,1.568 0.848,1.611 0.891,1.609 0.848,1.611 0.89,1.652 0.891,1.611 0.848,1.611 0.848,1.568 0.848,1.525 0.806,1.525 0.805,1.441 0.764,1.398 0.678,1.357 0.721,1.229 0.636,1.188 0.551,1.102 0.552,0.975 0.466,0.891 0.424,0.764 0.339,0.678 0.297,0.508 0.212,0.383 0.127,0.211 c 0.17,0.084 0.297,0.084 0.297,0.084 0.17,0 0.382,0 0.382,0 h 0.254 0.297 0.339 0.382 0.382 0.424 0.466 0.467 0.508 0.509 0.552 0.508 0.552 0.551 0.551 0.551 0.552 0.551 0.551 0.509 0.509 0.509 0.466 0.467 0.424 0.381 0.382 0.339 0.297 0.255 0.212 c 0.212,0 0.339,0 0.339,0 0.077,0.003 -29.425,-52.091 -29.425,-52.091 z"
   stroke-miterlimit="10"
   inkscape:connector-curvature="0" />
</g><g
     style="fill:#000000;fill-opacity:1;stroke:none"
     id="LWPOLYLINE_7_">
	
		<path
   style="fill:#000000;fill-opacity:1;stroke:none"
   id="path25"
   d="m 357.67,543.594 c -0.212,0 -0.339,0 -0.339,0 -0.212,0 -0.424,0 -0.424,0 h -0.255 -0.254 -0.297 -0.339 -0.382 -0.339 -0.424 -0.382 -0.424 -0.424 -0.466 -0.425 -0.466 -0.466 -0.464 -0.424 -0.466 -0.424 -0.424 -0.425 -0.424 -0.381 -0.382 -0.339 -0.339 -0.297 -0.297 -0.254 c -0.212,0 -0.382,0 -0.382,0 -0.17,0 -0.254,0 -0.254,0 -0.085,0.168 -0.085,0.721 -0.085,0.721 v 0.889 1.188 1.525 1.781 2.033 2.332 2.5 2.756 2.926 3.094 3.221 3.391 3.477 3.604 3.645 3.73 3.73 3.771 3.773 3.771 3.73 3.645 3.604 3.477 3.391 3.221 3.094 2.926 2.756 2.5 2.289 2.076 1.781 1.525 1.188 0.891 0.551 c 0.169,0.168 0.339,0.168 0.339,0.168 0.17,0 0.382,0 0.382,0 h 0.254 0.297 0.297 0.339 0.339 0.382 0.381 0.424 0.425 0.424 0.424 0.466 0.424 0.467 0.466 0.466 0.425 0.466 0.424 0.424 0.382 0.424 0.339 0.382 0.339 0.297 0.254 0.255 c 0.212,0 0.424,0 0.424,0 0.127,0 0.212,0 0.212,0 0.124,-0.003 0.124,-100.671 0.124,-100.671 z"
   stroke-miterlimit="10"
   inkscape:connector-curvature="0" />
</g><g
     style="fill:#000000;fill-opacity:1;stroke:none"
     id="LWPOLYLINE_8_">
	
		<path
   style="fill:#000000;fill-opacity:1;stroke:none"
   id="path28"
   d="m 375.006,613.871 -0.042,0.764 -0.085,0.762 -0.042,0.848 -0.043,0.848 v 0.934 0.932 0.934 l 0.043,1.018 0.042,1.016 0.085,1.018 0.127,1.061 0.17,1.059 0.169,1.061 0.212,1.059 0.255,1.061 0.339,1.102 0.339,1.061 0.424,1.059 0.424,1.018 0.509,1.061 0.594,1.018 0.594,0.975 0.72,0.975 0.721,0.932 0.848,0.934 0.891,0.891 0.975,0.805 1.018,0.805 1.102,0.764 1.229,0.721 1.271,0.635 1.356,0.594 1.483,0.551 1.526,0.467 1.653,0.424 1.737,0.34 1.865,0.297 1.95,0.168 2.034,0.129 2.161,0.028 h 1.187 l 1.145,-0.041 1.145,-0.086 1.187,-0.084 1.145,-0.127 1.103,-0.127 1.145,-0.213 1.102,-0.211 1.103,-0.213 1.102,-0.297 1.06,-0.297 1.018,-0.338 1.06,-0.383 1.018,-0.424 0.975,-0.467 0.975,-0.465 0.933,-0.51 0.891,-0.551 0.89,-0.594 0.891,-0.635 0.806,-0.678 0.805,-0.721 0.763,-0.721 0.764,-0.807 0.678,-0.848 0.679,-0.848 0.636,-0.932 0.593,-0.975 0.552,-1.018 0.509,-1.018 0.466,-1.102 0.424,-1.145 0.382,-1.188 0.297,-1.271 0.296,-1.271 0.255,-1.314 0.169,-1.398 0.128,-1.441 0.084,-1.482 0.043,-1.527 -0.085,-2.33 -0.254,-2.248 -0.382,-2.076 -0.509,-1.992 -0.678,-1.865 -0.806,-1.738 -0.891,-1.695 -1.017,-1.568 -1.103,-1.482 -1.187,-1.398 -1.314,-1.314 -1.356,-1.271 -1.398,-1.188 -1.483,-1.145 -1.568,-1.061 -1.568,-1.016 -1.61,-1.018 -1.611,-0.934 -1.653,-0.932 -1.652,-0.934 -1.696,-0.889 -1.652,-0.848 -1.611,-0.891 -1.61,-0.848 -1.568,-0.891 -1.526,-0.891 -1.483,-0.889 -1.44,-0.934 -1.356,-0.932 -1.272,-1.018 -1.229,-1.018 -1.103,-1.061 -1.018,-1.145 -0.89,-1.143 -0.806,-1.273 -0.636,-1.312 -0.551,-1.357 -0.382,-1.482 -0.254,-1.568 -0.085,-1.611 0.042,-0.805 0.043,-0.721 0.042,-0.721 0.128,-0.721 0.127,-0.678 0.127,-0.637 0.17,-0.678 0.212,-0.594 0.212,-0.594 0.254,-0.594 0.254,-0.551 0.297,-0.508 0.297,-0.51 0.339,-0.508 0.34,-0.467 0.381,-0.424 0.382,-0.424 0.424,-0.424 0.382,-0.381 0.466,-0.383 0.424,-0.338 0.466,-0.34 0.467,-0.297 0.509,-0.297 0.466,-0.254 0.509,-0.254 0.551,-0.254 0.509,-0.213 0.551,-0.211 0.552,-0.17 0.551,-0.17 0.551,-0.127 0.552,-0.127 0.593,-0.127 0.551,-0.086 0.594,-0.041 0.594,-0.086 0.551,-0.041 h 0.594 l 0.593,-0.043 0.848,0.043 0.806,0.041 0.763,0.043 0.721,0.127 0.721,0.127 0.721,0.127 0.636,0.213 0.636,0.211 0.636,0.213 0.594,0.254 0.551,0.297 0.551,0.297 0.509,0.338 0.467,0.34 0.466,0.381 0.467,0.383 0.381,0.424 0.424,0.424 0.382,0.467 0.339,0.465 0.339,0.51 0.297,0.508 0.297,0.551 0.255,0.551 0.254,0.551 0.254,0.594 0.212,0.637 0.17,0.594 0.17,0.635 0.169,0.678 0.17,0.637 0.085,0.678 0.127,0.721 0.085,0.678 0.085,0.721 0.084,0.764 0.043,0.721 v 0.764 l 0.042,0.762 v 0.764 c 0.212,0 0.382,0 0.382,0 0.169,0 0.424,0 0.424,0 h 0.254 0.297 0.339 0.34 0.381 0.382 0.424 0.466 0.424 0.467 0.466 0.509 0.467 0.508 0.467 0.509 0.466 0.467 0.466 0.467 0.424 0.424 0.381 0.382 0.382 0.296 0.297 0.297 0.212 c 0.212,0 0.339,0 0.339,0 0.212,0 0.255,-1.441 0.255,-1.441 v -1.441 l -0.043,-1.398 -0.042,-1.357 -0.127,-1.312 -0.17,-1.271 -0.212,-1.23 -0.254,-1.186 -0.255,-1.145 -0.339,-1.104 -0.339,-1.059 -0.382,-1.018 -0.466,-1.018 -0.467,-0.932 -0.509,-0.891 -0.509,-0.891 -0.593,-0.848 -0.594,-0.764 -0.678,-0.762 -0.679,-0.721 -0.721,-0.678 -0.721,-0.637 -0.805,-0.635 -0.806,-0.553 -0.848,-0.551 -0.89,-0.465 -0.933,-0.467 -0.933,-0.424 -0.976,-0.424 -1.017,-0.34 -1.018,-0.338 -1.06,-0.256 -1.103,-0.254 -1.145,-0.211 -1.144,-0.213 -1.188,-0.127 -1.187,-0.127 -1.229,-0.086 -1.271,-0.041 h -1.314 -1.229 l -1.188,0.041 -1.229,0.086 -1.188,0.127 -1.145,0.127 -1.145,0.213 -1.144,0.211 -1.103,0.213 -1.102,0.297 -1.103,0.295 -1.018,0.383 -1.06,0.338 -0.975,0.424 -0.975,0.467 -0.976,0.467 -0.933,0.508 -0.89,0.551 -0.891,0.594 -0.805,0.594 -0.848,0.678 -0.764,0.68 -0.763,0.721 -0.721,0.762 -0.678,0.764 -0.636,0.848 -0.636,0.848 -0.552,0.891 -0.551,0.932 -0.509,0.934 -0.466,1.016 -0.424,1.018 -0.382,1.061 -0.339,1.102 -0.297,1.145 -0.254,1.188 -0.212,1.186 -0.17,1.271 -0.127,1.271 -0.043,1.314 -0.042,1.357 0.085,2.203 0.254,2.078 0.382,1.992 0.509,1.906 0.678,1.738 0.806,1.695 0.89,1.611 1.018,1.482 1.102,1.441 1.188,1.314 1.313,1.271 1.356,1.23 1.399,1.143 1.483,1.104 1.568,1.059 1.568,1.018 1.61,0.975 1.61,0.934 1.653,0.889 1.653,0.891 1.653,0.891 1.653,0.848 1.652,0.848 1.611,0.848 1.568,0.891 1.525,0.848 1.483,0.891 1.441,0.889 1.356,0.934 1.271,0.975 1.229,1.018 1.103,1.059 1.017,1.104 0.891,1.145 0.805,1.186 0.636,1.271 0.552,1.357 0.381,1.398 0.255,1.525 0.085,1.568 -0.043,0.891 -0.042,0.891 -0.043,0.805 -0.127,0.805 -0.127,0.807 -0.127,0.762 -0.212,0.721 -0.17,0.68 -0.254,0.678 -0.255,0.678 -0.254,0.594 -0.297,0.594 -0.339,0.594 -0.339,0.551 -0.382,0.508 -0.382,0.51 -0.381,0.465 -0.424,0.424 -0.467,0.424 -0.466,0.424 -0.467,0.383 -0.509,0.338 -0.508,0.34 -0.509,0.34 -0.552,0.254 -0.593,0.297 -0.552,0.254 -0.593,0.211 -0.594,0.213 -0.636,0.211 -0.636,0.17 -0.636,0.127 -0.636,0.127 -0.679,0.129 -0.678,0.084 -0.679,0.084 -0.678,0.043 -0.721,0.043 -0.678,0.041 h -0.721 -0.594 l -0.594,-0.041 -0.593,-0.043 -0.594,-0.043 -0.594,-0.084 -0.593,-0.084 -0.551,-0.129 -0.594,-0.127 -0.594,-0.168 -0.593,-0.17 -0.552,-0.213 -0.551,-0.211 -0.551,-0.256 -0.552,-0.254 -0.551,-0.297 -0.551,-0.297 -0.509,-0.338 -0.509,-0.34 -0.466,-0.381 -0.509,-0.424 -0.466,-0.424 -0.425,-0.467 -0.424,-0.508 -0.424,-0.51 -0.424,-0.551 -0.381,-0.594 -0.34,-0.594 -0.339,-0.635 -0.297,-0.637 -0.296,-0.721 -0.297,-0.719 -0.212,-0.764 -0.255,-0.764 -0.169,-0.805 -0.17,-0.891 -0.127,-0.848 -0.127,-0.932 -0.085,-0.975 -0.043,-0.977 v -1.018 c 0,-0.211 0,-0.254 0,-0.254 0,-0.211 0,-0.297 0,-0.297 0,-0.168 0,-0.297 0,-0.297 0,-0.168 0,-0.254 0,-0.254 0,-0.211 0,-0.297 0,-0.297 0,-0.211 0,-0.297 0,-0.297 0,-0.168 0,-0.254 0,-0.254 0,-0.17 0,-0.254 0,-0.254 0,-0.213 0,-0.254 0,-0.254 0.005,-0.168 -12.16,-0.168 -12.16,-0.168 z"
   stroke-miterlimit="10"
   inkscape:connector-curvature="0" />
</g></g></svg>