<?xml version="1.0" encoding="UTF-8" standalone="no"?>
<!-- Generator: Adobe Illustrator 16.0.1, SVG Export Plug-In . SVG Version: 6.00 Build 0)  -->

<svg
   xmlns:dc="http://purl.org/dc/elements/1.1/"
   xmlns:cc="http://creativecommons.org/ns#"
   xmlns:rdf="http://www.w3.org/1999/02/22-rdf-syntax-ns#"
   xmlns:svg="http://www.w3.org/2000/svg"
   xmlns="http://www.w3.org/2000/svg"
   xmlns:xlink="http://www.w3.org/1999/xlink"
   xmlns:sodipodi="http://sodipodi.sourceforge.net/DTD/sodipodi-0.dtd"
   xmlns:inkscape="http://www.inkscape.org/namespaces/inkscape"
   version="1.0"
   id="_x31_"
   x="0px"
   y="0px"
   width="350"
   height="350"
   viewBox="0 0 350 350"
   enable-background="new 0 0 612 792"
   xml:space="preserve"
   inkscape:version="0.48.2 r9819"
   sodipodi:docname="7021.svg"><metadata
   id="metadata52"><rdf:RDF><cc:Work
       rdf:about=""><dc:format>image/svg+xml</dc:format><dc:type
         rdf:resource="http://purl.org/dc/dcmitype/StillImage" /></cc:Work></rdf:RDF></metadata><defs
   id="defs50"><radialGradient
     r="333.18735"
     fy="467.91885"
     fx="373.24265"
     cy="467.91885"
     cx="373.24265"
     gradientTransform="matrix(0.9201975,2.7970099e-7,-2.7059634e-7,0.8902438,-647.6761,44.847629)"
     gradientUnits="userSpaceOnUse"
     id="radialGradient2923"
     xlink:href="#linearGradient5443-842-146-785"
     inkscape:collect="always" /><linearGradient
     y2="254.73526"
     x2="123.47623"
     y1="344.03848"
     x1="123.50603"
     gradientTransform="matrix(2.3189708,0,0,2.0930998,-583.15103,-248.62365)"
     gradientUnits="userSpaceOnUse"
     id="linearGradient2921"
     xlink:href="#linearGradient5443-842-146-785"
     inkscape:collect="always" /><radialGradient
     r="333.18735"
     fy="710.99164"
     fx="373.24265"
     cy="710.99164"
     cx="373.24265"
     gradientTransform="matrix(0.9503534,1.1750652e-7,-5.6287062e-8,0.3462676,-658.9315,358.47639)"
     gradientUnits="userSpaceOnUse"
     id="radialGradient2919"
     xlink:href="#linearGradient5443-842-146-785"
     inkscape:collect="always" /><linearGradient
     id="linearGradient5443-842-146-785"><stop
       id="stop6666"
       offset="0"
       style="stop-color:#ffffff;stop-opacity:0;" /><stop
       id="stop6668"
       offset="1"
       style="stop-color:#00cd00;stop-opacity:0.56603771;" /></linearGradient><radialGradient
     inkscape:collect="always"
     xlink:href="#linearGradient5443-842-146-785"
     id="radialGradient4832-751-268-124"
     gradientUnits="userSpaceOnUse"
     gradientTransform="matrix(0.9201975,2.7970099e-7,-2.7059634e-7,0.8902438,-647.6761,44.847629)"
     cx="373.24265"
     cy="467.91885"
     fx="373.24265"
     fy="467.91885"
     r="333.18735" /><linearGradient
     id="linearGradient3187-189-182-390"><stop
       style="stop-color:#ffffff;stop-opacity:0.39622641;"
       offset="0"
       id="stop6660" /><stop
       style="stop-color:#000000;stop-opacity:1;"
       offset="1"
       id="stop6662" /></linearGradient><linearGradient
     inkscape:collect="always"
     xlink:href="#linearGradient5443-842-146-785"
     id="linearGradient4827-198-769-563"
     gradientUnits="userSpaceOnUse"
     gradientTransform="matrix(2.3189708,0,0,2.0930998,-583.15103,-248.62365)"
     x1="123.50603"
     y1="344.03848"
     x2="123.47623"
     y2="254.73526" /><linearGradient
     id="linearGradient5443-652-995-195"><stop
       id="stop6654"
       offset="0"
       style="stop-color:#ffffff;stop-opacity:0;" /><stop
       id="stop6656"
       offset="1"
       style="stop-color:#000000;stop-opacity:0.33962265;" /></linearGradient><radialGradient
     inkscape:collect="always"
     xlink:href="#linearGradient5443-842-146-785"
     id="radialGradient4835-926-911-160"
     gradientUnits="userSpaceOnUse"
     gradientTransform="matrix(0.9503534,1.1750652e-7,-5.6287062e-8,0.3462676,-658.9315,358.47639)"
     cx="373.24265"
     cy="710.99164"
     fx="373.24265"
     fy="710.99164"
     r="333.18735" /><linearGradient
     id="linearGradient5443-842-146"><stop
       id="stop6468"
       offset="0"
       style="stop-color:#ffffff;stop-opacity:0;" /><stop
       id="stop6470"
       offset="1"
       style="stop-color:#000000;stop-opacity:0.33962265;" /></linearGradient><linearGradient
     id="linearGradient3187-189-182"><stop
       style="stop-color:#ffffff;stop-opacity:0.39622641;"
       offset="0"
       id="stop6462" /><stop
       style="stop-color:#000000;stop-opacity:1;"
       offset="1"
       id="stop6464" /></linearGradient><linearGradient
     id="linearGradient5443-652-995"><stop
       id="stop6456"
       offset="0"
       style="stop-color:#ffffff;stop-opacity:0;" /><stop
       id="stop6458"
       offset="1"
       style="stop-color:#000000;stop-opacity:0.33962265;" /></linearGradient><linearGradient
     id="linearGradient3187-189"><stop
       style="stop-color:#ffffff;stop-opacity:0.39622641;"
       offset="0"
       id="stop6043" /><stop
       style="stop-color:#000000;stop-opacity:1;"
       offset="1"
       id="stop6045" /></linearGradient><linearGradient
     id="linearGradient5443-652"><stop
       id="stop6037"
       offset="0"
       style="stop-color:#ffffff;stop-opacity:0;" /><stop
       id="stop6039"
       offset="1"
       style="stop-color:#000000;stop-opacity:0.33962265;" /></linearGradient><linearGradient
     id="linearGradient5443-842"><stop
       id="stop6031"
       offset="0"
       style="stop-color:#ffffff;stop-opacity:0;" /><stop
       id="stop6033"
       offset="1"
       style="stop-color:#000000;stop-opacity:0.33962265;" /></linearGradient><linearGradient
     id="linearGradient5443-5"><stop
       id="stop5445-4"
       offset="0"
       style="stop-color:#ffffff;stop-opacity:0;" /><stop
       id="stop5447-3"
       offset="1"
       style="stop-color:#000000;stop-opacity:0.33962265;" /></linearGradient><radialGradient
     inkscape:collect="always"
     xlink:href="#linearGradient5443-5"
     id="radialGradient4835-3"
     gradientUnits="userSpaceOnUse"
     gradientTransform="matrix(0.9503534,1.1750652e-7,-5.6287062e-8,0.3462676,317.80591,185.68771)"
     cx="373.24265"
     cy="710.99164"
     fx="373.24265"
     fy="710.99164"
     r="333.18735" /><filter
     color-interpolation-filters="sRGB"
     inkscape:collect="always"
     id="filter5511"><feGaussianBlur
       inkscape:collect="always"
       stdDeviation="3.2374974"
       id="feGaussianBlur5513" /></filter><linearGradient
     inkscape:collect="always"
     xlink:href="#linearGradient3187"
     id="linearGradient4824"
     gradientUnits="userSpaceOnUse"
     gradientTransform="matrix(2.3189708,0,0,2.0930998,93.115298,-256.84999)"
     x1="123.50603"
     y1="344.03848"
     x2="123.47623"
     y2="254.73526" /><radialGradient
     inkscape:collect="always"
     xlink:href="#linearGradient3171"
     id="radialGradient4822"
     gradientUnits="userSpaceOnUse"
     gradientTransform="matrix(0.9201975,2.7970099e-7,-2.7059634e-7,0.8902438,28.590287,48.634335)"
     cx="373.24265"
     cy="467.91885"
     fx="373.24265"
     fy="467.91885"
     r="333.18735" /><radialGradient
     inkscape:collect="always"
     xlink:href="#linearGradient3157"
     id="radialGradient4820"
     gradientUnits="userSpaceOnUse"
     gradientTransform="matrix(0.9503534,1.1750652e-7,-5.6287062e-8,0.3462676,17.334826,362.44227)"
     cx="373.24265"
     cy="710.99164"
     fx="373.24265"
     fy="710.99164"
     r="333.18735" /><radialGradient
     inkscape:collect="always"
     xlink:href="#linearGradient3157"
     id="radialGradient4805"
     gradientUnits="userSpaceOnUse"
     gradientTransform="matrix(0.9503534,1.1750652e-7,-5.6287062e-8,0.3462676,17.334826,362.44227)"
     cx="373.24265"
     cy="710.99164"
     fx="373.24265"
     fy="710.99164"
     r="333.18735" /><radialGradient
     inkscape:collect="always"
     xlink:href="#linearGradient3171"
     id="radialGradient4802"
     gradientUnits="userSpaceOnUse"
     gradientTransform="matrix(0.9201975,2.7970099e-7,-2.7059634e-7,0.8902438,28.590287,48.634335)"
     cx="373.24265"
     cy="467.91885"
     fx="373.24265"
     fy="467.91885"
     r="333.18735" /><linearGradient
     inkscape:collect="always"
     xlink:href="#linearGradient3187"
     id="linearGradient4799"
     gradientUnits="userSpaceOnUse"
     gradientTransform="matrix(2.3189708,0,0,2.0930998,93.115298,-256.84999)"
     x1="123.50603"
     y1="344.03848"
     x2="123.47623"
     y2="254.73526" /><linearGradient
     inkscape:collect="always"
     xlink:href="#linearGradient3187"
     id="linearGradient4794"
     gradientUnits="userSpaceOnUse"
     gradientTransform="matrix(2.3189708,0,0,2.0930998,93.115298,-256.84999)"
     x1="123.50603"
     y1="344.03848"
     x2="123.47623"
     y2="254.73526" /><radialGradient
     inkscape:collect="always"
     xlink:href="#linearGradient3171"
     id="radialGradient4792"
     gradientUnits="userSpaceOnUse"
     gradientTransform="matrix(0.9201975,2.7970099e-7,-2.7059634e-7,0.8902438,28.590287,48.634335)"
     cx="373.24265"
     cy="467.91885"
     fx="373.24265"
     fy="467.91885"
     r="333.18735" /><radialGradient
     inkscape:collect="always"
     xlink:href="#linearGradient3157"
     id="radialGradient4790"
     gradientUnits="userSpaceOnUse"
     gradientTransform="matrix(0.9503534,1.1750652e-7,-5.6287062e-8,0.3462676,17.334826,362.44227)"
     cx="373.24265"
     cy="710.99164"
     fx="373.24265"
     fy="710.99164"
     r="333.18735" /><radialGradient
     inkscape:collect="always"
     xlink:href="#linearGradient3157"
     id="radialGradient4779"
     gradientUnits="userSpaceOnUse"
     gradientTransform="matrix(0.9503534,1.1750652e-7,-5.6287062e-8,0.3462676,17.334826,362.44227)"
     cx="373.24265"
     cy="710.99164"
     fx="373.24265"
     fy="710.99164"
     r="333.18735" /><radialGradient
     inkscape:collect="always"
     xlink:href="#linearGradient3171"
     id="radialGradient4776"
     gradientUnits="userSpaceOnUse"
     gradientTransform="matrix(0.9201975,2.7970099e-7,-2.7059634e-7,0.8902438,28.590287,48.634335)"
     cx="373.24265"
     cy="467.91885"
     fx="373.24265"
     fy="467.91885"
     r="333.18735" /><linearGradient
     inkscape:collect="always"
     xlink:href="#linearGradient3187"
     id="linearGradient4773"
     gradientUnits="userSpaceOnUse"
     gradientTransform="matrix(2.3189708,0,0,2.0930998,93.115298,-256.84999)"
     x1="123.50603"
     y1="344.03848"
     x2="123.47623"
     y2="254.73526" /><linearGradient
     inkscape:collect="always"
     xlink:href="#linearGradient3187"
     id="linearGradient4770"
     gradientUnits="userSpaceOnUse"
     gradientTransform="matrix(2.3189708,0,0,2.0930998,93.115298,-256.84999)"
     x1="123.50603"
     y1="344.03848"
     x2="123.47623"
     y2="254.73526" /><radialGradient
     inkscape:collect="always"
     xlink:href="#linearGradient3171"
     id="radialGradient4768"
     gradientUnits="userSpaceOnUse"
     gradientTransform="matrix(0.9201975,2.7970099e-7,-2.7059634e-7,0.8902438,28.590287,48.634335)"
     cx="373.24265"
     cy="467.91885"
     fx="373.24265"
     fy="467.91885"
     r="333.18735" /><radialGradient
     inkscape:collect="always"
     xlink:href="#linearGradient3157"
     id="radialGradient4766"
     gradientUnits="userSpaceOnUse"
     gradientTransform="matrix(0.9503534,1.1750652e-7,-5.6287062e-8,0.3462676,17.334826,362.44227)"
     cx="373.24265"
     cy="710.99164"
     fx="373.24265"
     fy="710.99164"
     r="333.18735" /><filter
     color-interpolation-filters="sRGB"
     inkscape:collect="always"
     id="filter4659"><feGaussianBlur
       inkscape:collect="always"
       stdDeviation="2.7750933"
       id="feGaussianBlur4661" /></filter><radialGradient
     inkscape:collect="always"
     xlink:href="#linearGradient3157"
     id="radialGradient4572"
     gradientUnits="userSpaceOnUse"
     gradientTransform="matrix(0.9503534,1.1750652e-7,-5.6287062e-8,0.3462676,17.334826,362.44227)"
     cx="373.24265"
     cy="710.99164"
     fx="373.24265"
     fy="710.99164"
     r="333.18735" /><radialGradient
     inkscape:collect="always"
     xlink:href="#linearGradient3171"
     id="radialGradient4569"
     gradientUnits="userSpaceOnUse"
     gradientTransform="matrix(0.9201975,2.7970099e-7,-2.7059634e-7,0.8902438,28.590287,48.634335)"
     cx="373.24265"
     cy="467.91885"
     fx="373.24265"
     fy="467.91885"
     r="333.18735" /><linearGradient
     inkscape:collect="always"
     xlink:href="#linearGradient3187"
     id="linearGradient4562"
     gradientUnits="userSpaceOnUse"
     gradientTransform="matrix(2.3189708,0,0,2.0930998,93.115298,-256.84999)"
     x1="123.50603"
     y1="344.03848"
     x2="123.47623"
     y2="254.73526" /><linearGradient
     inkscape:collect="always"
     xlink:href="#linearGradient4395"
     id="linearGradient4401"
     x1="360.49777"
     y1="167.50403"
     x2="360.49777"
     y2="540.86719"
     gradientUnits="userSpaceOnUse" /><linearGradient
     inkscape:collect="always"
     xlink:href="#linearGradient4383"
     id="linearGradient4389"
     x1="371.42194"
     y1="298.59412"
     x2="396.91168"
     y2="655.4505"
     gradientUnits="userSpaceOnUse" /><inkscape:perspective
     sodipodi:type="inkscape:persp3d"
     inkscape:vp_x="0 : 526.18109 : 1"
     inkscape:vp_y="0 : 1000 : 0"
     inkscape:vp_z="744.09448 : 526.18109 : 1"
     inkscape:persp3d-origin="372.04724 : 350.78739 : 1"
     id="perspective3214" /><linearGradient
     id="linearGradient4383"><stop
       style="stop-color:#00037f;stop-opacity:1;"
       offset="0"
       id="stop4385" /><stop
       style="stop-color:#00037f;stop-opacity:0;"
       offset="1"
       id="stop4387" /></linearGradient><linearGradient
     id="linearGradient4395"><stop
       style="stop-color:#110084;stop-opacity:1;"
       offset="0"
       id="stop4397" /><stop
       style="stop-color:#a695ff;stop-opacity:1;"
       offset="1"
       id="stop4399" /></linearGradient><linearGradient
     id="linearGradient3187"><stop
       style="stop-color:#ffffff;stop-opacity:0.39622641;"
       offset="0"
       id="stop3189" /><stop
       style="stop-color:#000000;stop-opacity:1;"
       offset="1"
       id="stop3191" /></linearGradient><linearGradient
     id="linearGradient3171"><stop
       id="stop3173"
       offset="0"
       style="stop-color:#49bcff;stop-opacity:1;" /><stop
       id="stop3175"
       offset="1"
       style="stop-color:#494cdc;stop-opacity:1;" /></linearGradient><linearGradient
     id="linearGradient3157"><stop
       style="stop-color:#49bcff;stop-opacity:1;"
       offset="0"
       id="stop3159" /><stop
       style="stop-color:#494c96;stop-opacity:1;"
       offset="1"
       id="stop3161" /></linearGradient><linearGradient
     id="linearGradient5443"><stop
       id="stop5445"
       offset="0"
       style="stop-color:#ffffff;stop-opacity:0;" /><stop
       id="stop5447"
       offset="1"
       style="stop-color:#000000;stop-opacity:0.33962265;" /></linearGradient><radialGradient
     inkscape:collect="always"
     xlink:href="#linearGradient5443-842-146-785"
     id="radialGradient3570"
     gradientUnits="userSpaceOnUse"
     gradientTransform="matrix(0.9503534,1.1750652e-7,-5.6287062e-8,0.3462676,-658.9315,358.47639)"
     cx="373.24265"
     cy="710.99164"
     fx="373.24265"
     fy="710.99164"
     r="333.18735" /><linearGradient
     inkscape:collect="always"
     xlink:href="#linearGradient5443-842-146-785"
     id="linearGradient3572"
     gradientUnits="userSpaceOnUse"
     gradientTransform="matrix(2.3189708,0,0,2.0930998,-583.15103,-248.62365)"
     x1="123.50603"
     y1="344.03848"
     x2="123.47623"
     y2="254.73526" /><radialGradient
     inkscape:collect="always"
     xlink:href="#linearGradient5443-842-146-785"
     id="radialGradient3574"
     gradientUnits="userSpaceOnUse"
     gradientTransform="matrix(0.9201975,2.7970099e-7,-2.7059634e-7,0.8902438,-647.6761,44.847629)"
     cx="373.24265"
     cy="467.91885"
     fx="373.24265"
     fy="467.91885"
     r="333.18735" /><radialGradient
     inkscape:collect="always"
     xlink:href="#linearGradient5443-842-146-785"
     id="radialGradient3591"
     gradientUnits="userSpaceOnUse"
     gradientTransform="matrix(0.9503534,1.1750652e-7,-5.6287062e-8,0.3462676,-658.9315,358.47639)"
     cx="373.24265"
     cy="710.99164"
     fx="373.24265"
     fy="710.99164"
     r="333.18735" /><linearGradient
     inkscape:collect="always"
     xlink:href="#linearGradient5443-842-146-785"
     id="linearGradient3593"
     gradientUnits="userSpaceOnUse"
     gradientTransform="matrix(2.3189708,0,0,2.0930998,-583.15103,-248.62365)"
     x1="123.50603"
     y1="344.03848"
     x2="123.47623"
     y2="254.73526" /><radialGradient
     inkscape:collect="always"
     xlink:href="#linearGradient5443-842-146-785"
     id="radialGradient3595"
     gradientUnits="userSpaceOnUse"
     gradientTransform="matrix(0.9201975,2.7970099e-7,-2.7059634e-7,0.8902438,-647.6761,44.847629)"
     cx="373.24265"
     cy="467.91885"
     fx="373.24265"
     fy="467.91885"
     r="333.18735" /><radialGradient
     inkscape:collect="always"
     xlink:href="#linearGradient5443-842-146-785"
     id="radialGradient3608"
     gradientUnits="userSpaceOnUse"
     gradientTransform="matrix(0.83535071,2.5391117e-7,-2.4564601e-7,0.80815889,-590.33093,14.491059)"
     cx="373.24265"
     cy="467.91885"
     fx="373.24265"
     fy="467.91885"
     r="333.18735" /><radialGradient
     inkscape:collect="always"
     xlink:href="#linearGradient5443-842-146-785"
     id="radialGradient3612"
     gradientUnits="userSpaceOnUse"
     gradientTransform="matrix(0.86272608,1.0667183e-7,-5.1097115e-8,0.31434,-600.54853,299.20169)"
     cx="373.24265"
     cy="710.99164"
     fx="373.24265"
     fy="710.99164"
     r="333.18735" /><radialGradient
     inkscape:collect="always"
     xlink:href="#linearGradient5443-842-146-785"
     id="radialGradient3624"
     gradientUnits="userSpaceOnUse"
     gradientTransform="matrix(0.86272608,1.0667183e-7,-5.1097115e-8,0.31434,-600.54853,299.20169)"
     cx="373.24265"
     cy="710.99164"
     fx="373.24265"
     fy="710.99164"
     r="333.18735" /><linearGradient
     inkscape:collect="always"
     xlink:href="#linearGradient5443-842-146-785"
     id="linearGradient3626"
     gradientUnits="userSpaceOnUse"
     gradientTransform="matrix(2.3189708,0,0,2.0930998,-583.15103,-248.62365)"
     x1="123.50603"
     y1="344.03848"
     x2="123.47623"
     y2="254.73526" /><radialGradient
     inkscape:collect="always"
     xlink:href="#linearGradient5443-842-146-785"
     id="radialGradient3628"
     gradientUnits="userSpaceOnUse"
     gradientTransform="matrix(0.83535071,2.5391117e-7,-2.4564601e-7,0.80815889,-590.33093,14.491059)"
     cx="373.24265"
     cy="467.91885"
     fx="373.24265"
     fy="467.91885"
     r="333.18735" /></defs><sodipodi:namedview
   pagecolor="#ffffff"
   bordercolor="#666666"
   borderopacity="1"
   objecttolerance="10"
   gridtolerance="10"
   guidetolerance="10"
   inkscape:pageopacity="0"
   inkscape:pageshadow="2"
   inkscape:window-width="1920"
   inkscape:window-height="1071"
   id="namedview48"
   showgrid="false"
   inkscape:zoom="0.2979798"
   inkscape:cx="-309.37919"
   inkscape:cy="143.59974"
   inkscape:window-x="0"
   inkscape:window-y="0"
   inkscape:window-maximized="1"
   inkscape:current-layer="_x31_"
   fit-margin-top="0"
   fit-margin-left="0"
   fit-margin-right="0"
   fit-margin-bottom="0" />








<g
   id="LWPOLYLINE_8_"
   style="fill:#000000;fill-opacity:1;stroke:none"
   transform="translate(453.54238,-217.64407)">
	
		
</g>
<g
   id="LWPOLYLINE_9_"
   style="fill:#000000;fill-opacity:1;stroke:none"
   transform="translate(453.54238,-217.64407)">
	
		
</g>



<g
   id="LWPOLYLINE_13_"
   transform="translate(453.54238,-217.64407)">
	
		
</g>

<g
   id="g3617"
   transform="translate(453.54238,-217.64407)"><rect
     inkscape:export-ydpi="29.879425"
     inkscape:export-xdpi="29.879425"
     inkscape:export-filename="C:\Documents and Settings\adscro24\Desktop\128.png"
     style="opacity:0.61338286;fill:#008000;fill-opacity:0.78540775;stroke:none;filter:url(#filter4659)"
     id="rect3279"
     width="152.93848"
     height="152.93848"
     x="135.39355"
     y="48.636749"
     rx="16.067965"
     ry="12.45238"
     transform="matrix(2.1051501,0,0,2.1051501,-724.54536,129.27718)" /><rect
     inkscape:export-ydpi="29.879425"
     inkscape:export-xdpi="29.879425"
     inkscape:export-filename="C:\Documents and Settings\adscro24\Desktop\128.png"
     style="opacity:0.61338286;fill:url(#radialGradient3624);fill-opacity:1;stroke:#000000;stroke-width:3.26806188;stroke-miterlimit:4;stroke-opacity:1;stroke-dasharray:none"
     id="rect3155"
     width="321.95847"
     height="321.95847"
     x="-439.52161"
     y="231.66484"
     rx="33.825481"
     ry="26.21413" /><path
     transform="matrix(0.90779502,0,0,0.90779502,-2.3737942,-26.221395)"
     inkscape:export-ydpi="29.879425"
     inkscape:export-xdpi="29.879425"
     inkscape:export-filename="C:\Documents and Settings\adscro24\Desktop\128.png"
     inkscape:connector-curvature="0"
     style="opacity:0.61338286;fill:url(#linearGradient3626);fill-opacity:1;stroke:none;filter:url(#filter5511)"
     d="m -437.39123,306.27486 c -19.62748,0 -35.44272,12.0976 -35.44272,27.14163 l 0,124.30857 c 29.25482,11.38638 132.70149,11.89599 165.40488,-5.79022 33.32802,-18.02397 127.54379,-68.44264 171.82484,-52.72052 l 0,-65.79783 c 0,-15.04403 -15.7986,-27.14163 -35.4261,-27.14163 l -266.3609,0 z m -35.44272,263.47103 0,42.88373 c 0,1.33144 0.14331,2.63588 0.38253,3.915 -0.11919,-12.81092 -0.25965,-28.88939 -0.38253,-46.79873 z"
     id="rect3177" /><rect
     inkscape:export-ydpi="29.879425"
     inkscape:export-xdpi="29.879425"
     inkscape:export-filename="C:\Documents and Settings\adscro24\Desktop\128.png"
     style="opacity:0.61338286;fill:url(#radialGradient3628);fill-opacity:1;stroke:#ffffff;stroke-width:0.68992418;stroke-linecap:square;stroke-miterlimit:4;stroke-opacity:1;stroke-dasharray:none"
     id="rect3473"
     width="306.12445"
     height="306.12445"
     x="-431.60458"
     y="239.58186"
     rx="32.161926"
     ry="24.924913" /><rect
     inkscape:export-ydpi="29.879425"
     inkscape:export-xdpi="29.879425"
     inkscape:export-filename="C:\Documents and Settings\adscro24\Desktop\128.png"
     style="opacity:0.61338286;fill:#ffffff;fill-opacity:0;stroke:#000000;stroke-width:3.26806188;stroke-miterlimit:4;stroke-opacity:1;stroke-dasharray:none"
     id="rect3155-2"
     width="321.95847"
     height="321.95847"
     x="-439.52161"
     y="231.66484"
     rx="33.825481"
     ry="26.21413" /></g><g
   id="g3008"
   transform="matrix(0.49984048,0,0,0.49984048,21.856586,-22.726796)"><g
     style="fill:#000000;fill-opacity:1;stroke:none"
     id="LWPOLYLINE_7_">
	
		<path
   inkscape:connector-curvature="0"
   id="path25"
   d="m 295.03125,550.3125 c -9.54675,31.03121 -20.15599,63.06507 -28.8125,93.5625 3.82081,-0.44705 8.90414,0.90151 11.96865,-0.62495 2.71679,-7.07851 4.20968,-15.78178 7.59355,-21.9687 11.25536,0.31129 23.53204,-0.56787 34.21875,0.40625 2.29742,7.29801 4.02628,15.19968 6.56225,22.18745 4.46875,0 8.9375,0 13.40625,0 C 330.09213,612.69137 320.33197,581.24999 310,550.3125 c -4.98958,0 -9.97917,0 -14.96875,0 z m 7.09375,11.40625 c 2.99732,15.35609 13.97411,36.78381 12.8125,49.09375 -8.85369,-0.28885 -19.06089,0.5519 -27.1875,-0.34375 4.7996,-16.24449 9.64526,-32.48351 14.375,-48.75 z"
   style="fill:#000000;fill-opacity:1;stroke:none" />
</g><g
     style="fill:#000000;fill-opacity:1;stroke:none"
     id="LWPOLYLINE_10_">
	
		<path
   inkscape:connector-curvature="0"
   id="path34"
   d="m 352.1875,550.34375 c 0.20919,31.07206 -0.41781,62.98031 0.3125,93.53125 3.4386,-0.46457 8.60947,0.95204 10.96875,-0.6875 0.14688,-13.96504 -0.29368,-28.37319 0.21875,-42.0625 8.32926,0.98903 19.27233,-2.89902 25.28125,4.7497 4.93112,11.90992 -0.10391,26.3091 5.343,38 3.8965,-0.36111 9.88641,0.72851 12.53125,-0.5 -5.02397,-13.91871 -0.0311,-30.05311 -7.43655,-43.15625 -2.64462,-3.34083 -6.91809,-4.62578 -10.90625,-5.53125 21.38943,-2.5778 22.78991,-37.84709 2.6562,-43.375 -12.75867,-2.09771 -26.05096,-0.45615 -38.9689,-0.96845 z m 11.28125,10.46875 c 8.51819,1.00041 18.49033,-2.50366 25.84375,2.9686 8.17465,8.40049 3.77915,28.50536 -9.9689,26.8749 -5.29167,0 -10.58333,0 -15.875,0 1e-4,-9.94766 -2e-4,-19.89675 1.5e-4,-29.8435 z"
   style="fill:#000000;fill-opacity:1;stroke:none" />
</g><g
     style="fill:#000000;fill-opacity:1;stroke:none"
     id="LWPOLYLINE_12_">
	
		<path
   inkscape:connector-curvature="0"
   id="polygon40"
   d="m 303.78125,145.5 c -38.39583,38.39583 -76.79167,76.79167 -115.1875,115.1875 38.39583,38.40625 76.79167,76.8125 115.1875,115.21875 C 342.17708,337.5 380.57292,299.09375 418.96875,260.6875 380.57292,222.29167 342.17708,183.89583 303.78125,145.5 z m 1.625,28.21875 c 29.08333,29.08333 58.16667,58.16667 87.25,87.25 -28.88542,28.89583 -57.77083,57.79167 -86.65625,86.6875 -29.09375,-29.08333 -58.1875,-58.16667 -87.28125,-87.25 28.89583,-28.89583 57.79167,-57.79167 86.6875,-86.6875 z"
   style="fill:#000000;fill-opacity:1;stroke:none" />
</g><g
     style="fill:#000000;fill-opacity:1;stroke:none"
     id="LWPOLYLINE">
	
		<path
   inkscape:connector-curvature="0"
   id="path4"
   d="m 207.822,442.278 c 1.90269,-11.32962 -2.99679,-25.6617 -16.105,-26.814 -13.45171,-2.46673 -31.35556,1.11704 -35.063,16.42 -3.75195,16.01023 -1.56568,32.72554 -1.85185,49.03366 0.025,13.39068 6.87862,30.04654 22.44585,30.42234 11.93284,1.95291 27.05795,-1.7836 30.443,-15.001 0.97927,-4.36898 3.18442,-11.64848 0.768,-14.569 -3.64267,0 -7.28533,0 -10.928,0 0.48119,9.14353 -4.58256,21.09684 -15.358,20.158 -11.94726,0.9721 -15.73785,-12.65743 -15.40777,-22.22129 0.57317,-15.61503 -1.84779,-31.71697 2.03777,-46.99371 4.49343,-10.96834 25.34161,-11.45801 27.027,1.807 1.36868,3.1658 -1.29474,9.56656 4.28662,7.759 2.56806,-7.3e-4 5.13901,10e-4 7.70538,-10e-4 z"
   style="fill:#000000;fill-opacity:1;stroke:none" />
</g><g
     style="fill:#000000;fill-opacity:1;stroke:none"
     id="LWPOLYLINE_1_">
	
		<path
   inkscape:connector-curvature="0"
   id="path7"
   d="m 246.529,461.612 c -6.0508,-14.99693 -11.65028,-30.40697 -17.952,-45.161 -3.92744,0.31683 -9.67101,-0.63691 -12.522,0.433 7.86196,19.31042 16.85514,38.37781 24.018,57.844 0.2286,11.63706 -0.42827,24.1596 0.314,35.283 3.47436,-0.40655 8.40636,0.82804 10.985,-0.59 0.29723,-12.17411 -0.55148,-24.57765 0.394,-36.622 7.97677,-18.72156 16.9857,-37.85956 24.298,-56.348 -4.55537,0.88078 -12.10782,-2.74129 -12.65617,4.16658 -5.64969,13.65515 -11.26156,27.32591 -16.87883,40.99442 z"
   style="fill:#000000;fill-opacity:1;stroke:none" />
</g><g
     style="fill:#000000;fill-opacity:1;stroke:none"
     id="LWPOLYLINE_2_">
	
		<path
   inkscape:connector-curvature="0"
   id="path10"
   d="m 338.474,442.278 c 1.87272,-11.33071 -2.9913,-25.64596 -16.102,-26.815 -13.4499,-2.47483 -31.36203,1.11359 -35.088,16.42 -3.72542,16.01559 -1.5969,32.72459 -1.83135,49.03362 0.0126,13.38452 6.86616,30.03653 22.42135,30.42238 11.93,1.95441 27.06152,-1.78101 30.434,-15.001 1.01054,-4.36912 3.17995,-11.63975 0.788,-14.569 -3.65,0 -7.3,0 -10.95,0 0.64409,9.45165 -5.01732,21.51652 -16.03,20.158 -12.49009,0.32635 -15.08752,-14.37128 -14.769,-24.135 0.74709,-15.31241 -2.05451,-31.27199 2.438,-46.141 5.58231,-9.85062 24.97085,-10.01186 26.64,2.868 1.39793,3.15801 -1.29698,9.56789 4.30162,7.759 2.58246,0 5.16492,0 7.74738,0 z"
   style="fill:#000000;fill-opacity:1;stroke:none" />
</g><g
     style="fill:#000000;fill-opacity:1;stroke:none"
     id="LWPOLYLINE_3_">
	
		<path
   inkscape:connector-curvature="0"
   id="path13"
   d="m 401.357,510.006 c -0.37751,-3.31654 0.77451,-7.9865 -0.551,-10.467 -11.105,0 -22.21,0 -33.315,0 -0.21489,-27.62588 0.43305,-55.78502 -0.314,-83.082 -3.45789,0.46452 -8.60667,-0.961 -10.987,0.708 0,30.89867 0,61.79733 0,92.696 15.05376,0.20374 30.11188,0.10679 45.167,0.145 z"
   style="fill:#000000;fill-opacity:1;stroke:none" />
</g><g
     style="fill:#000000;fill-opacity:1;stroke:none"
     id="LWPOLYLINE_4_">
	
		<path
   inkscape:connector-curvature="0"
   id="path16"
   d="m 457.822,510.006 c -0.39923,-3.30769 0.82166,-8.05604 -0.589,-10.467 -11.81331,-0.17102 -24.28887,0.3202 -35.717,-0.236 0.19398,-10.55669 -0.35976,-21.86109 0.236,-32.016 10.78995,-0.26238 22.5732,0.46853 32.842,-0.315 -0.37844,-3.22372 0.77135,-7.79966 -0.55,-10.192 -10.74445,-0.16388 -22.10881,0.29214 -32.528,-0.197 0.21931,-9.74236 -0.43201,-20.35534 0.275,-29.61 11.6047,-0.2353 24.11093,0.43093 35.206,-0.314 -0.49049,-3.17591 1.01382,-8.17192 -0.748,-10.192 -15.30433,0 -30.60867,0 -45.913,0 -0.28007,31.11474 -0.0385,62.27266 -0.118,93.404 15.86643,0.18971 31.73645,0.0994 47.604,0.135 z"
   style="fill:#000000;fill-opacity:1;stroke:none" />
</g><g
     style="fill:#000000;fill-opacity:1;stroke:none"
     id="LWPOLYLINE_5_">
	
		<path
   inkscape:connector-curvature="0"
   id="path19"
   d="m 141.69,615.652 c -2.40327,12.93052 5.11204,27.99091 19.196,29.25 14.35332,3.058 33.58834,-3.06259 35.239,-19.805 3.14346,-13.7742 -6.48507,-26.33902 -18.624,-31.697 -9.538,-5.09009 -24.63603,-11.13634 -21.775,-24.648 2.24583,-13.69697 26.12981,-14.0558 27.369,0.474 0.6551,3.11698 -0.56325,7.42263 3.939,6.104 3.52516,-0.59094 10.54113,2.18968 8.702,-3.977 0.772,-13.06859 -10.97555,-23.66007 -23.806,-22.601 -14.49881,-1.6765 -29.9311,9.43999 -28.626,24.963 -0.50536,16.9492 17.02926,24.1566 29.554,30.83 9.422,3.77844 15.2457,15.41773 9.155,24.452 -7.53228,10.57983 -28.27768,6.8943 -28.804,-7.326 1.32486,-8.93535 -3.81433,-5.53507 -11.519,-6.019 z"
   style="fill:#000000;fill-opacity:1;stroke:none" />
</g><g
     style="fill:#000000;fill-opacity:1;stroke:none"
     id="LWPOLYLINE_6_">
	
		<path
   inkscape:connector-curvature="0"
   id="path22"
   d="m 204.594,550.327 c 0.44338,3.29221 -0.92052,8.20353 0.67,10.47 7.78333,0 15.56667,0 23.35,0 0.64871,27.56985 -0.40204,55.82891 0.512,83.082 3.76307,-0.4116 8.72522,0.83774 11.754,-0.591 0,-27.44467 0,-54.88933 0,-82.334 7.65749,-0.6075 15.96178,0.38619 23.391,-0.433 0,-3.37167 0,-6.74333 0,-10.115 -19.89197,-0.10663 -39.78475,-0.0594 -59.677,-0.079 z"
   style="fill:#000000;fill-opacity:1;stroke:none" />
</g><g
     style="fill:#000000;fill-opacity:1;stroke:none"
     id="LWPOLYLINE_11_">
	
		<path
   inkscape:connector-curvature="0"
   id="path37"
   d="m 411.831,550.327 c 0.46563,3.28238 -0.96879,8.27866 0.709,10.47 7.76967,0 15.53933,0 23.309,0 0.67984,27.56519 -0.36818,55.79394 0.511,83.082 3.77048,-0.41058 8.73788,0.83681 11.774,-0.591 0,-27.44467 0,-54.88933 0,-82.334 7.65968,-0.60808 15.9594,0.38672 23.388,-0.433 0,-3.37167 0,-6.74333 0,-10.115 -19.89663,-0.10664 -39.79408,-0.0594 -59.691,-0.079 z"
   style="fill:#000000;fill-opacity:1;stroke:none" />
</g><g
     style="fill:#000000;fill-opacity:1;stroke:none"
     id="LWPOLYLINE_14_">
	
		<path
   inkscape:connector-curvature="0"
   id="rect46"
   d="m 293.30899,199.54401 c 6.0872,1.43229 18.01131,-2.97233 20.161,2.39747 0,40.06017 0,80.12035 0,120.18053 -6.0872,-1.43229 -18.01131,2.97233 -20.161,-2.39747 0,-40.06018 0,-80.12036 0,-120.18053 z"
   style="fill:#000000;fill-opacity:1;stroke:none" />
</g></g></svg>