<?xml version="1.0" encoding="UTF-8" standalone="no"?>
<!-- Generator: Adobe Illustrator 16.0.1, SVG Export Plug-In . SVG Version: 6.00 Build 0)  -->

<svg
   xmlns:dc="http://purl.org/dc/elements/1.1/"
   xmlns:cc="http://creativecommons.org/ns#"
   xmlns:rdf="http://www.w3.org/1999/02/22-rdf-syntax-ns#"
   xmlns:svg="http://www.w3.org/2000/svg"
   xmlns="http://www.w3.org/2000/svg"
   xmlns:xlink="http://www.w3.org/1999/xlink"
   xmlns:sodipodi="http://sodipodi.sourceforge.net/DTD/sodipodi-0.dtd"
   xmlns:inkscape="http://www.inkscape.org/namespaces/inkscape"
   version="1.0"
   id="_x31_"
   x="0px"
   y="0px"
   width="350"
   height="350"
   viewBox="0 0 350 350"
   enable-background="new 0 0 612 792"
   xml:space="preserve"
   inkscape:version="0.48.2 r9819"
   sodipodi:docname="7041.svg"><metadata
   id="metadata19"><rdf:RDF><cc:Work
       rdf:about=""><dc:format>image/svg+xml</dc:format><dc:type
         rdf:resource="http://purl.org/dc/dcmitype/StillImage" /></cc:Work></rdf:RDF></metadata><defs
   id="defs17"><radialGradient
     r="333.18735"
     fy="710.99164"
     fx="373.24265"
     cy="710.99164"
     cx="373.24265"
     gradientTransform="matrix(0.86272608,1.0667183e-7,-5.1097115e-8,0.31434,-147.00617,81.5576)"
     gradientUnits="userSpaceOnUse"
     id="radialGradient3092"
     xlink:href="#linearGradient5443"
     inkscape:collect="always" /><radialGradient
     r="333.18735"
     fy="467.91885"
     fx="373.24265"
     cy="467.91885"
     cx="373.24265"
     gradientTransform="matrix(0.83535071,2.5391117e-7,-2.4564601e-7,0.80815889,-136.78854,-203.15302)"
     gradientUnits="userSpaceOnUse"
     id="radialGradient3088"
     xlink:href="#linearGradient5443"
     inkscape:collect="always" /><radialGradient
     r="333.18735"
     fy="467.91885"
     fx="373.24265"
     cy="467.91885"
     cx="373.24265"
     gradientTransform="matrix(0.83535071,2.5391117e-7,-2.4564601e-7,0.80815889,783.12101,707.99698)"
     gradientUnits="userSpaceOnUse"
     id="radialGradient3736"
     xlink:href="#linearGradient5443"
     inkscape:collect="always" /><linearGradient
     y2="254.73526"
     x2="123.47623"
     y1="344.03848"
     x1="123.50603"
     gradientTransform="matrix(2.3189708,0,0,2.0930998,-99.17808,-231.54972)"
     gradientUnits="userSpaceOnUse"
     id="linearGradient3734"
     xlink:href="#linearGradient3187"
     inkscape:collect="always" /><radialGradient
     r="333.18735"
     fy="710.99164"
     fx="373.24265"
     cy="710.99164"
     cx="373.24265"
     gradientTransform="matrix(0.86272608,1.0667183e-7,-5.1097115e-8,0.31434,772.90338,992.7076)"
     gradientUnits="userSpaceOnUse"
     id="radialGradient3732"
     xlink:href="#linearGradient5443"
     inkscape:collect="always" /><radialGradient
     r="333.18735"
     fy="710.99164"
     fx="373.24265"
     cy="710.99164"
     cx="373.24265"
     gradientTransform="matrix(0.86272608,1.0667183e-7,-5.1097115e-8,0.31434,772.90338,992.7076)"
     gradientUnits="userSpaceOnUse"
     id="radialGradient3722"
     xlink:href="#linearGradient5443"
     inkscape:collect="always" /><radialGradient
     r="333.18735"
     fy="467.91885"
     fx="373.24265"
     cy="467.91885"
     cx="373.24265"
     gradientTransform="matrix(0.83535071,2.5391117e-7,-2.4564601e-7,0.80815889,783.12101,707.99698)"
     gradientUnits="userSpaceOnUse"
     id="radialGradient3718"
     xlink:href="#linearGradient5443"
     inkscape:collect="always" /><radialGradient
     r="333.18735"
     fy="467.91885"
     fx="373.24265"
     cy="467.91885"
     cx="373.24265"
     gradientTransform="matrix(0.9201975,2.7970099e-7,-2.7059634e-7,0.8902438,-163.70313,61.921561)"
     gradientUnits="userSpaceOnUse"
     id="radialGradient3703"
     xlink:href="#linearGradient5443"
     inkscape:collect="always" /><linearGradient
     y2="254.73526"
     x2="123.47623"
     y1="344.03848"
     x1="123.50603"
     gradientTransform="matrix(2.3189708,0,0,2.0930998,-99.17808,-231.54972)"
     gradientUnits="userSpaceOnUse"
     id="linearGradient3701"
     xlink:href="#linearGradient3187"
     inkscape:collect="always" /><radialGradient
     r="333.18735"
     fy="710.99164"
     fx="373.24265"
     cy="710.99164"
     cx="373.24265"
     gradientTransform="matrix(0.9503534,1.1750652e-7,-5.6287062e-8,0.3462676,-174.95857,375.55031)"
     gradientUnits="userSpaceOnUse"
     id="radialGradient3699"
     xlink:href="#linearGradient5443"
     inkscape:collect="always" /><radialGradient
     r="333.18735"
     fy="467.91885"
     fx="373.24265"
     cy="467.91885"
     cx="373.24265"
     gradientTransform="matrix(0.9201975,2.7970099e-7,-2.7059634e-7,0.8902438,-163.70313,61.921561)"
     gradientUnits="userSpaceOnUse"
     id="radialGradient3680"
     xlink:href="#linearGradient5443"
     inkscape:collect="always" /><linearGradient
     y2="254.73526"
     x2="123.47623"
     y1="344.03848"
     x1="123.50603"
     gradientTransform="matrix(2.3189708,0,0,2.0930998,-99.17808,-231.54972)"
     gradientUnits="userSpaceOnUse"
     id="linearGradient3678"
     xlink:href="#linearGradient3187"
     inkscape:collect="always" /><radialGradient
     r="333.18735"
     fy="710.99164"
     fx="373.24265"
     cy="710.99164"
     cx="373.24265"
     gradientTransform="matrix(0.9503534,1.1750652e-7,-5.6287062e-8,0.3462676,-174.95857,375.55031)"
     gradientUnits="userSpaceOnUse"
     id="radialGradient3676"
     xlink:href="#linearGradient5443"
     inkscape:collect="always" /><radialGradient
     r="333.18735"
     fy="467.91885"
     fx="373.24265"
     cy="467.91885"
     cx="373.24265"
     gradientTransform="matrix(0.9201975,2.7970099e-7,-2.7059634e-7,0.8902438,-163.70313,61.921561)"
     gradientUnits="userSpaceOnUse"
     id="radialGradient3654"
     xlink:href="#linearGradient5443"
     inkscape:collect="always" /><linearGradient
     y2="254.73526"
     x2="123.47623"
     y1="344.03848"
     x1="123.50603"
     gradientTransform="matrix(2.3189708,0,0,2.0930998,-99.17808,-231.54972)"
     gradientUnits="userSpaceOnUse"
     id="linearGradient3652"
     xlink:href="#linearGradient3187"
     inkscape:collect="always" /><radialGradient
     r="333.18735"
     fy="710.99164"
     fx="373.24265"
     cy="710.99164"
     cx="373.24265"
     gradientTransform="matrix(0.9503534,1.1750652e-7,-5.6287062e-8,0.3462676,-174.95857,375.55031)"
     gradientUnits="userSpaceOnUse"
     id="radialGradient3650"
     xlink:href="#linearGradient5443"
     inkscape:collect="always" /><radialGradient
     r="333.18735"
     fy="467.91885"
     fx="373.24265"
     cy="467.91885"
     cx="373.24265"
     gradientTransform="matrix(0.9201975,2.7970099e-7,-2.7059634e-7,0.8902438,-163.70313,61.921561)"
     gradientUnits="userSpaceOnUse"
     id="radialGradient3627"
     xlink:href="#linearGradient5443"
     inkscape:collect="always" /><linearGradient
     y2="254.73526"
     x2="123.47623"
     y1="344.03848"
     x1="123.50603"
     gradientTransform="matrix(2.3189708,0,0,2.0930998,-99.17808,-231.54972)"
     gradientUnits="userSpaceOnUse"
     id="linearGradient3625"
     xlink:href="#linearGradient3187"
     inkscape:collect="always" /><radialGradient
     r="333.18735"
     fy="710.99164"
     fx="373.24265"
     cy="710.99164"
     cx="373.24265"
     gradientTransform="matrix(0.9503534,1.1750652e-7,-5.6287062e-8,0.3462676,-174.95857,375.55031)"
     gradientUnits="userSpaceOnUse"
     id="radialGradient3623"
     xlink:href="#linearGradient5443"
     inkscape:collect="always" /><radialGradient
     r="333.18735"
     fy="467.91885"
     fx="373.24265"
     cy="467.91885"
     cx="373.24265"
     gradientTransform="matrix(0.9201975,2.7970099e-7,-2.7059634e-7,0.8902438,-163.70313,61.921561)"
     gradientUnits="userSpaceOnUse"
     id="radialGradient3599"
     xlink:href="#linearGradient5443"
     inkscape:collect="always" /><linearGradient
     y2="254.73526"
     x2="123.47623"
     y1="344.03848"
     x1="123.50603"
     gradientTransform="matrix(2.3189708,0,0,2.0930998,-99.17808,-231.54972)"
     gradientUnits="userSpaceOnUse"
     id="linearGradient3597"
     xlink:href="#linearGradient3187"
     inkscape:collect="always" /><radialGradient
     r="333.18735"
     fy="710.99164"
     fx="373.24265"
     cy="710.99164"
     cx="373.24265"
     gradientTransform="matrix(0.9503534,1.1750652e-7,-5.6287062e-8,0.3462676,-174.95857,375.55031)"
     gradientUnits="userSpaceOnUse"
     id="radialGradient3595"
     xlink:href="#linearGradient5443"
     inkscape:collect="always" /><radialGradient
     r="333.18735"
     fy="467.91885"
     fx="373.24265"
     cy="467.91885"
     cx="373.24265"
     gradientTransform="matrix(0.9201975,2.7970099e-7,-2.7059634e-7,0.8902438,-163.70313,61.921561)"
     gradientUnits="userSpaceOnUse"
     id="radialGradient3525"
     xlink:href="#linearGradient5443"
     inkscape:collect="always" /><linearGradient
     y2="254.73526"
     x2="123.47623"
     y1="344.03848"
     x1="123.50603"
     gradientTransform="matrix(2.3189708,0,0,2.0930998,-99.17808,-231.54972)"
     gradientUnits="userSpaceOnUse"
     id="linearGradient3523"
     xlink:href="#linearGradient3187"
     inkscape:collect="always" /><radialGradient
     r="333.18735"
     fy="710.99164"
     fx="373.24265"
     cy="710.99164"
     cx="373.24265"
     gradientTransform="matrix(0.9503534,1.1750652e-7,-5.6287062e-8,0.3462676,-174.95857,375.55031)"
     gradientUnits="userSpaceOnUse"
     id="radialGradient3521"
     xlink:href="#linearGradient5443"
     inkscape:collect="always" /><radialGradient
     r="333.18735"
     fy="467.91885"
     fx="373.24265"
     cy="467.91885"
     cx="373.24265"
     gradientTransform="matrix(0.9201975,2.7970099e-7,-2.7059634e-7,0.8902438,-163.70313,61.921561)"
     gradientUnits="userSpaceOnUse"
     id="radialGradient3497"
     xlink:href="#linearGradient5443"
     inkscape:collect="always" /><linearGradient
     y2="254.73526"
     x2="123.47623"
     y1="344.03848"
     x1="123.50603"
     gradientTransform="matrix(2.3189708,0,0,2.0930998,-99.17808,-231.54972)"
     gradientUnits="userSpaceOnUse"
     id="linearGradient3495"
     xlink:href="#linearGradient3187"
     inkscape:collect="always" /><radialGradient
     r="333.18735"
     fy="710.99164"
     fx="373.24265"
     cy="710.99164"
     cx="373.24265"
     gradientTransform="matrix(0.9503534,1.1750652e-7,-5.6287062e-8,0.3462676,-174.95857,375.55031)"
     gradientUnits="userSpaceOnUse"
     id="radialGradient3493"
     xlink:href="#linearGradient5443"
     inkscape:collect="always" /><linearGradient
     id="linearGradient5443"><stop
       id="stop5445"
       offset="0"
       style="stop-color:#ffffff;stop-opacity:0;" /><stop
       id="stop5447"
       offset="1"
       style="stop-color:#000000;stop-opacity:0.33962265;" /></linearGradient><linearGradient
     id="linearGradient3157"><stop
       style="stop-color:#49bcff;stop-opacity:1;"
       offset="0"
       id="stop3159" /><stop
       style="stop-color:#494c96;stop-opacity:1;"
       offset="1"
       id="stop3161" /></linearGradient><linearGradient
     id="linearGradient3171"><stop
       id="stop3173"
       offset="0"
       style="stop-color:#49bcff;stop-opacity:1;" /><stop
       id="stop3175"
       offset="1"
       style="stop-color:#494cdc;stop-opacity:1;" /></linearGradient><linearGradient
     id="linearGradient3187"><stop
       style="stop-color:#ffffff;stop-opacity:0.39622641;"
       offset="0"
       id="stop3189" /><stop
       style="stop-color:#000000;stop-opacity:1;"
       offset="1"
       id="stop3191" /></linearGradient><linearGradient
     id="linearGradient4395"><stop
       style="stop-color:#110084;stop-opacity:1;"
       offset="0"
       id="stop4397" /><stop
       style="stop-color:#a695ff;stop-opacity:1;"
       offset="1"
       id="stop4399" /></linearGradient><linearGradient
     id="linearGradient4383"><stop
       style="stop-color:#00037f;stop-opacity:1;"
       offset="0"
       id="stop4385" /><stop
       style="stop-color:#00037f;stop-opacity:0;"
       offset="1"
       id="stop4387" /></linearGradient><inkscape:perspective
     sodipodi:type="inkscape:persp3d"
     inkscape:vp_x="0 : 526.18109 : 1"
     inkscape:vp_y="0 : 1000 : 0"
     inkscape:vp_z="744.09448 : 526.18109 : 1"
     inkscape:persp3d-origin="372.04724 : 350.78739 : 1"
     id="perspective3214" /><linearGradient
     inkscape:collect="always"
     xlink:href="#linearGradient4383"
     id="linearGradient4389"
     x1="371.42194"
     y1="298.59412"
     x2="396.91168"
     y2="655.4505"
     gradientUnits="userSpaceOnUse" /><linearGradient
     inkscape:collect="always"
     xlink:href="#linearGradient4395"
     id="linearGradient4401"
     x1="360.49777"
     y1="167.50403"
     x2="360.49777"
     y2="540.86719"
     gradientUnits="userSpaceOnUse" /><linearGradient
     inkscape:collect="always"
     xlink:href="#linearGradient3187"
     id="linearGradient4562"
     gradientUnits="userSpaceOnUse"
     gradientTransform="matrix(2.3189708,0,0,2.0930998,93.115298,-256.84999)"
     x1="123.50603"
     y1="344.03848"
     x2="123.47623"
     y2="254.73526" /><radialGradient
     inkscape:collect="always"
     xlink:href="#linearGradient3171"
     id="radialGradient4569"
     gradientUnits="userSpaceOnUse"
     gradientTransform="matrix(0.9201975,2.7970099e-7,-2.7059634e-7,0.8902438,28.590287,48.634335)"
     cx="373.24265"
     cy="467.91885"
     fx="373.24265"
     fy="467.91885"
     r="333.18735" /><radialGradient
     inkscape:collect="always"
     xlink:href="#linearGradient3157"
     id="radialGradient4572"
     gradientUnits="userSpaceOnUse"
     gradientTransform="matrix(0.9503534,1.1750652e-7,-5.6287062e-8,0.3462676,17.334826,362.44227)"
     cx="373.24265"
     cy="710.99164"
     fx="373.24265"
     fy="710.99164"
     r="333.18735" /><filter
     inkscape:collect="always"
     id="filter4659"
     color-interpolation-filters="sRGB"><feGaussianBlur
       inkscape:collect="always"
       stdDeviation="2.7750933"
       id="feGaussianBlur4661" /></filter><radialGradient
     inkscape:collect="always"
     xlink:href="#linearGradient3157"
     id="radialGradient4766"
     gradientUnits="userSpaceOnUse"
     gradientTransform="matrix(0.9503534,1.1750652e-7,-5.6287062e-8,0.3462676,17.334826,362.44227)"
     cx="373.24265"
     cy="710.99164"
     fx="373.24265"
     fy="710.99164"
     r="333.18735" /><radialGradient
     inkscape:collect="always"
     xlink:href="#linearGradient3171"
     id="radialGradient4768"
     gradientUnits="userSpaceOnUse"
     gradientTransform="matrix(0.9201975,2.7970099e-7,-2.7059634e-7,0.8902438,28.590287,48.634335)"
     cx="373.24265"
     cy="467.91885"
     fx="373.24265"
     fy="467.91885"
     r="333.18735" /><linearGradient
     inkscape:collect="always"
     xlink:href="#linearGradient3187"
     id="linearGradient4770"
     gradientUnits="userSpaceOnUse"
     gradientTransform="matrix(2.3189708,0,0,2.0930998,93.115298,-256.84999)"
     x1="123.50603"
     y1="344.03848"
     x2="123.47623"
     y2="254.73526" /><linearGradient
     inkscape:collect="always"
     xlink:href="#linearGradient3187"
     id="linearGradient4773"
     gradientUnits="userSpaceOnUse"
     gradientTransform="matrix(2.3189708,0,0,2.0930998,93.115298,-256.84999)"
     x1="123.50603"
     y1="344.03848"
     x2="123.47623"
     y2="254.73526" /><radialGradient
     inkscape:collect="always"
     xlink:href="#linearGradient3171"
     id="radialGradient4776"
     gradientUnits="userSpaceOnUse"
     gradientTransform="matrix(0.9201975,2.7970099e-7,-2.7059634e-7,0.8902438,28.590287,48.634335)"
     cx="373.24265"
     cy="467.91885"
     fx="373.24265"
     fy="467.91885"
     r="333.18735" /><radialGradient
     inkscape:collect="always"
     xlink:href="#linearGradient3157"
     id="radialGradient4779"
     gradientUnits="userSpaceOnUse"
     gradientTransform="matrix(0.9503534,1.1750652e-7,-5.6287062e-8,0.3462676,17.334826,362.44227)"
     cx="373.24265"
     cy="710.99164"
     fx="373.24265"
     fy="710.99164"
     r="333.18735" /><radialGradient
     inkscape:collect="always"
     xlink:href="#linearGradient3157"
     id="radialGradient4790"
     gradientUnits="userSpaceOnUse"
     gradientTransform="matrix(0.9503534,1.1750652e-7,-5.6287062e-8,0.3462676,17.334826,362.44227)"
     cx="373.24265"
     cy="710.99164"
     fx="373.24265"
     fy="710.99164"
     r="333.18735" /><radialGradient
     inkscape:collect="always"
     xlink:href="#linearGradient3171"
     id="radialGradient4792"
     gradientUnits="userSpaceOnUse"
     gradientTransform="matrix(0.9201975,2.7970099e-7,-2.7059634e-7,0.8902438,28.590287,48.634335)"
     cx="373.24265"
     cy="467.91885"
     fx="373.24265"
     fy="467.91885"
     r="333.18735" /><linearGradient
     inkscape:collect="always"
     xlink:href="#linearGradient3187"
     id="linearGradient4794"
     gradientUnits="userSpaceOnUse"
     gradientTransform="matrix(2.3189708,0,0,2.0930998,93.115298,-256.84999)"
     x1="123.50603"
     y1="344.03848"
     x2="123.47623"
     y2="254.73526" /><linearGradient
     inkscape:collect="always"
     xlink:href="#linearGradient3187"
     id="linearGradient4799"
     gradientUnits="userSpaceOnUse"
     gradientTransform="matrix(2.3189708,0,0,2.0930998,93.115298,-256.84999)"
     x1="123.50603"
     y1="344.03848"
     x2="123.47623"
     y2="254.73526" /><radialGradient
     inkscape:collect="always"
     xlink:href="#linearGradient3171"
     id="radialGradient4802"
     gradientUnits="userSpaceOnUse"
     gradientTransform="matrix(0.9201975,2.7970099e-7,-2.7059634e-7,0.8902438,28.590287,48.634335)"
     cx="373.24265"
     cy="467.91885"
     fx="373.24265"
     fy="467.91885"
     r="333.18735" /><radialGradient
     inkscape:collect="always"
     xlink:href="#linearGradient3157"
     id="radialGradient4805"
     gradientUnits="userSpaceOnUse"
     gradientTransform="matrix(0.9503534,1.1750652e-7,-5.6287062e-8,0.3462676,17.334826,362.44227)"
     cx="373.24265"
     cy="710.99164"
     fx="373.24265"
     fy="710.99164"
     r="333.18735" /><radialGradient
     inkscape:collect="always"
     xlink:href="#linearGradient3157"
     id="radialGradient4820"
     gradientUnits="userSpaceOnUse"
     gradientTransform="matrix(0.9503534,1.1750652e-7,-5.6287062e-8,0.3462676,17.334826,362.44227)"
     cx="373.24265"
     cy="710.99164"
     fx="373.24265"
     fy="710.99164"
     r="333.18735" /><radialGradient
     inkscape:collect="always"
     xlink:href="#linearGradient3171"
     id="radialGradient4822"
     gradientUnits="userSpaceOnUse"
     gradientTransform="matrix(0.9201975,2.7970099e-7,-2.7059634e-7,0.8902438,28.590287,48.634335)"
     cx="373.24265"
     cy="467.91885"
     fx="373.24265"
     fy="467.91885"
     r="333.18735" /><linearGradient
     inkscape:collect="always"
     xlink:href="#linearGradient3187"
     id="linearGradient4824"
     gradientUnits="userSpaceOnUse"
     gradientTransform="matrix(2.3189708,0,0,2.0930998,93.115298,-256.84999)"
     x1="123.50603"
     y1="344.03848"
     x2="123.47623"
     y2="254.73526" /><linearGradient
     inkscape:collect="always"
     xlink:href="#linearGradient3187"
     id="linearGradient4827"
     gradientUnits="userSpaceOnUse"
     gradientTransform="matrix(2.3189708,0,0,2.0930998,-99.17808,-231.54972)"
     x1="123.50603"
     y1="344.03848"
     x2="123.47623"
     y2="254.73526" /><radialGradient
     inkscape:collect="always"
     xlink:href="#linearGradient5443"
     id="radialGradient4832"
     gradientUnits="userSpaceOnUse"
     gradientTransform="matrix(0.9201975,2.7970099e-7,-2.7059634e-7,0.8902438,-163.70313,61.921561)"
     cx="373.24265"
     cy="467.91885"
     fx="373.24265"
     fy="467.91885"
     r="333.18735" /><radialGradient
     inkscape:collect="always"
     xlink:href="#linearGradient5443"
     id="radialGradient4835"
     gradientUnits="userSpaceOnUse"
     gradientTransform="matrix(0.9503534,1.1750652e-7,-5.6287062e-8,0.3462676,-174.95857,375.55031)"
     cx="373.24265"
     cy="710.99164"
     fx="373.24265"
     fy="710.99164"
     r="333.18735" /><filter
     inkscape:collect="always"
     id="filter5511"
     color-interpolation-filters="sRGB"><feGaussianBlur
       inkscape:collect="always"
       stdDeviation="3.2374974"
       id="feGaussianBlur5513" /></filter><radialGradient
     inkscape:collect="always"
     xlink:href="#linearGradient5443-5"
     id="radialGradient4835-3"
     gradientUnits="userSpaceOnUse"
     gradientTransform="matrix(0.9503534,1.1750652e-7,-5.6287062e-8,0.3462676,317.80591,185.68771)"
     cx="373.24265"
     cy="710.99164"
     fx="373.24265"
     fy="710.99164"
     r="333.18735" /><linearGradient
     id="linearGradient5443-5"><stop
       id="stop5445-4"
       offset="0"
       style="stop-color:#ffffff;stop-opacity:0;" /><stop
       id="stop5447-3"
       offset="1"
       style="stop-color:#000000;stop-opacity:0.33962265;" /></linearGradient><radialGradient
     inkscape:collect="always"
     xlink:href="#linearGradient5443"
     id="radialGradient3272"
     gradientUnits="userSpaceOnUse"
     gradientTransform="matrix(0.9503534,1.1750652e-7,-5.6287062e-8,0.3462676,-174.95857,375.55031)"
     cx="373.24265"
     cy="710.99164"
     fx="373.24265"
     fy="710.99164"
     r="333.18735" /><linearGradient
     inkscape:collect="always"
     xlink:href="#linearGradient3187"
     id="linearGradient3274"
     gradientUnits="userSpaceOnUse"
     gradientTransform="matrix(2.3189708,0,0,2.0930998,-99.17808,-231.54972)"
     x1="123.50603"
     y1="344.03848"
     x2="123.47623"
     y2="254.73526" /><radialGradient
     inkscape:collect="always"
     xlink:href="#linearGradient5443"
     id="radialGradient3276"
     gradientUnits="userSpaceOnUse"
     gradientTransform="matrix(0.9201975,2.7970099e-7,-2.7059634e-7,0.8902438,-163.70313,61.921561)"
     cx="373.24265"
     cy="467.91885"
     fx="373.24265"
     fy="467.91885"
     r="333.18735" /></defs><sodipodi:namedview
   pagecolor="#ffffff"
   bordercolor="#666666"
   borderopacity="1"
   objecttolerance="10"
   gridtolerance="10"
   guidetolerance="10"
   inkscape:pageopacity="0"
   inkscape:pageshadow="2"
   inkscape:window-width="1920"
   inkscape:window-height="1068"
   id="namedview15"
   showgrid="false"
   inkscape:zoom="1.1919192"
   inkscape:cx="214.89025"
   inkscape:cy="8.654117"
   inkscape:window-x="0"
   inkscape:window-y="0"
   inkscape:window-maximized="1"
   inkscape:current-layer="_x31_"
   fit-margin-top="0"
   fit-margin-left="0"
   fit-margin-right="0"
   fit-margin-bottom="0" />




<g
   id="g3281"
   transform="translate(-4.0524845e-6,3.5529445e-6)"><rect
     inkscape:export-ydpi="29.879425"
     inkscape:export-xdpi="29.879425"
     inkscape:export-filename="C:\Documents and Settings\adscro24\Desktop\128.png"
     style="opacity:0.61338286;fill:#464646;fill-opacity:0.78540775;stroke:none;filter:url(#filter4659)"
     id="rect3279"
     width="152.93848"
     height="152.93848"
     x="135.39355"
     y="48.636749"
     rx="16.067965"
     ry="12.45238"
     transform="matrix(2.1051501,0,0,2.1051501,-271.00298,-88.36689)" /><rect
     inkscape:export-ydpi="29.879425"
     inkscape:export-xdpi="29.879425"
     inkscape:export-filename="C:\Documents and Settings\adscro24\Desktop\128.png"
     style="opacity:0.61338286;fill:url(#radialGradient3092);fill-opacity:1;stroke:#000000;stroke-width:3.26806188;stroke-miterlimit:4;stroke-opacity:1;stroke-dasharray:none"
     id="rect3155"
     width="321.95847"
     height="321.95847"
     x="14.020748"
     y="14.020716"
     rx="33.825481"
     ry="26.21413" /><path
     transform="matrix(0.90779502,0,0,0.90779502,11.82035,-259.3651)"
     inkscape:export-ydpi="29.879425"
     inkscape:export-xdpi="29.879425"
     inkscape:export-filename="C:\Documents and Settings\adscro24\Desktop\128.png"
     inkscape:connector-curvature="0"
     style="opacity:0.61338286;fill:url(#linearGradient3734);fill-opacity:1;stroke:none;filter:url(#filter5511)"
     d="m 46.58172,323.34879 c -19.62748,0 -35.44272,12.0976 -35.44272,27.14163 l 0,124.30857 c 29.25482,11.38638 132.70149,11.89599 165.40488,-5.79022 33.32802,-18.02397 127.54379,-68.44264 171.82484,-52.72052 l 0,-65.79783 c 0,-15.04403 -15.7986,-27.14163 -35.4261,-27.14163 l -266.3609,0 z M 11.139,586.81982 l 0,42.88373 c 0,1.33144 0.14331,2.63588 0.38253,3.915 -0.11919,-12.81092 -0.25965,-28.88939 -0.38253,-46.79873 z"
     id="rect3177" /><rect
     inkscape:export-ydpi="29.879425"
     inkscape:export-xdpi="29.879425"
     inkscape:export-filename="C:\Documents and Settings\adscro24\Desktop\128.png"
     style="opacity:0.61338286;fill:url(#radialGradient3088);fill-opacity:1;stroke:#ffffff;stroke-width:0.68992418;stroke-linecap:square;stroke-miterlimit:4;stroke-opacity:1;stroke-dasharray:none"
     id="rect3473"
     width="306.12445"
     height="306.12445"
     x="21.937801"
     y="21.937769"
     rx="32.161926"
     ry="24.924913" /><rect
     inkscape:export-ydpi="29.879425"
     inkscape:export-xdpi="29.879425"
     inkscape:export-filename="C:\Documents and Settings\adscro24\Desktop\128.png"
     style="opacity:0.61338286;fill:#ffffff;fill-opacity:0;stroke:#000000;stroke-width:3.26806188;stroke-miterlimit:4;stroke-opacity:1;stroke-dasharray:none"
     id="rect3155-2"
     width="321.95847"
     height="321.95847"
     x="14.020748"
     y="14.020716"
     rx="33.825481"
     ry="26.21413" /><g
     transform="translate(400.39145,135.8211)"
     style="fill:#000000;fill-opacity:1;stroke:none"
     id="LWPOLYLINE_2_-3">
	
		
</g></g><g
   id="g2989"
   transform="matrix(0.499999,0,0,0.499999,21.750806,-22.998858)"><g
     style="fill:#000000;fill-opacity:1;stroke:none"
     id="LWPOLYLINE">
	
		<polygon
   style="fill:#000000;fill-opacity:1;stroke:none"
   id="polygon4"
   points="395.008,298.006 395.539,298.086 396.068,298.191 396.598,298.299 397.182,298.404 397.711,298.537 398.24,298.668 398.771,298.801 399.301,298.961 399.777,299.119 400.309,299.305 400.838,299.49 401.367,299.676 401.844,299.861 402.375,300.072 402.904,300.285 403.381,300.523 403.857,300.736 404.389,300.975 404.865,301.238 405.342,301.504 405.818,301.77 406.295,302.033 406.773,302.326 407.197,302.617 407.674,302.908 408.15,303.199 408.574,303.518 408.998,303.836 409.475,304.18 409.898,304.498 410.322,304.842 410.746,305.213 411.117,305.559 411.541,305.928 411.967,306.299 412.336,306.67 412.707,307.068 413.078,307.439 413.449,307.863 413.82,308.26 414.191,308.658 414.562,309.082 414.881,309.506 415.199,309.93 415.516,310.354 415.834,310.805 416.152,311.254 416.471,311.705 416.787,312.154 417.053,312.605 417.318,313.082 417.582,313.559 417.848,314.037 418.113,314.514 418.377,314.99 418.59,315.467 418.855,315.971 419.066,316.447 419.279,316.951 419.438,317.455 419.65,317.957 419.861,318.488 420.021,318.99 420.18,319.494 420.338,320.023 420.498,320.527 420.604,321.059 420.762,321.588 420.869,322.117 420.975,322.646 421.08,323.178 421.186,323.707 421.24,324.236 421.293,324.768 421.398,325.324 421.451,325.854 421.451,326.383 421.504,326.939 421.557,327.469 421.557,328 421.557,328.557 421.557,329.086 421.557,329.615 421.504,330.172 421.451,330.701 421.451,331.232 421.398,331.789 421.293,332.318 421.24,332.848 421.186,333.379 421.08,333.908 420.975,334.438 420.869,334.969 420.762,335.498 420.604,336.027 420.498,336.559 420.338,337.061 420.18,337.592 420.021,338.094 419.861,338.625 419.65,339.127 419.438,339.631 419.279,340.135 419.066,340.639 418.855,341.115 418.59,341.619 418.377,342.096 418.113,342.6 417.848,343.076 417.582,343.553 417.318,344.004 417.053,344.48 416.787,344.93 416.471,345.381 416.152,345.832 415.834,346.281 415.516,346.732 415.199,347.156 414.881,347.58 414.562,348.004 414.191,348.428 413.82,348.824 413.449,349.25 413.078,349.646 412.707,350.045 412.336,350.414 411.967,350.785 411.541,351.156 411.117,351.527 410.746,351.898 410.322,352.242 409.898,352.588 409.475,352.906 408.998,353.25 408.574,353.568 408.15,353.887 407.674,354.178 407.197,354.496 406.773,354.787 406.295,355.051 405.818,355.344 405.342,355.607 404.865,355.846 404.389,356.111 403.857,356.35 403.381,356.588 402.904,356.801 402.375,357.012 401.844,357.225 401.367,357.41 400.838,357.621 400.309,357.781 399.777,357.967 399.301,358.125 398.771,358.283 398.24,358.416 397.711,358.549 397.182,358.682 396.598,358.787 396.068,358.893 395.539,359 395.008,359.105 394.479,359.186 393.896,359.238 393.365,359.318 392.836,359.371 392.254,359.396 391.723,359.424 391.193,359.449 390.609,359.477 390.08,359.477 389.551,359.477 388.967,359.449 388.438,359.424 387.908,359.396 387.324,359.371 386.795,359.318 386.266,359.238 385.682,359.186 385.152,359.105 384.623,359 384.092,358.893 383.51,358.787 382.98,358.682 382.449,358.549 381.92,358.416 381.391,358.283 380.859,358.125 380.33,357.967 379.854,357.781 379.322,357.621 378.793,357.41 378.264,357.225 377.787,357.012 377.256,356.801 376.779,356.588 376.303,356.35 375.773,356.111 375.295,355.846 374.818,355.607 374.342,355.344 373.865,355.051 373.389,354.787 372.965,354.496 372.486,354.178 372.01,353.887 371.586,353.568 371.162,353.25 370.686,352.906 370.262,352.588 369.838,352.242 369.414,351.898 369.043,351.527 368.619,351.156 368.195,350.785 367.824,350.414 367.453,350.045 367.082,349.646 366.711,349.25 366.34,348.824 365.969,348.428 365.598,348.004 365.281,347.58 364.963,347.156 364.592,346.732 364.273,346.281 364.008,345.832 363.691,345.381 363.373,344.93 363.107,344.48 362.844,344.004 362.578,343.553 362.312,343.076 362.049,342.6 361.783,342.096 361.57,341.619 361.307,341.115 361.094,340.639 360.883,340.135 360.67,339.631 360.512,339.127 360.299,338.625 360.141,338.094 359.98,337.592 359.822,337.061 359.664,336.559 359.557,336.027 359.398,335.498 359.293,334.969 359.186,334.438 359.08,333.908 358.975,333.379 358.922,332.848 358.816,332.318 358.762,331.789 358.709,331.232 358.656,330.701 358.656,330.172 358.604,329.615 358.604,329.086 358.604,328.557 358.604,328 358.604,327.469 358.656,326.939 358.656,326.383 358.709,325.854 358.762,325.324 358.816,324.768 358.922,324.236 358.975,323.707 359.08,323.178 359.186,322.646 359.293,322.117 359.398,321.588 359.557,321.059 359.664,320.527 359.822,320.023 359.98,319.494 360.141,318.99 360.299,318.488 360.512,317.957 360.67,317.455 360.883,316.951 361.094,316.447 361.307,315.971 361.57,315.467 361.783,314.99 362.049,314.514 362.312,314.037 362.578,313.559 362.844,313.082 363.107,312.605 363.373,312.154 363.691,311.705 364.008,311.254 364.273,310.805 364.592,310.354 364.963,309.93 365.281,309.506 365.598,309.082 365.969,308.658 366.34,308.26 366.711,307.863 367.082,307.439 367.453,307.068 367.824,306.67 368.195,306.299 368.619,305.928 369.043,305.559 369.414,305.213 369.838,304.842 370.262,304.498 370.686,304.18 371.162,303.836 371.586,303.518 372.01,303.199 372.486,302.908 372.965,302.617 373.389,302.326 373.865,302.033 374.342,301.77 374.818,301.504 375.295,301.238 375.773,300.975 376.303,300.736 376.779,300.523 377.256,300.285 377.787,300.072 378.264,299.861 378.793,299.676 379.322,299.49 379.854,299.305 380.33,299.119 380.859,298.961 381.391,298.801 381.92,298.668 382.449,298.537 382.98,298.404 383.51,298.299 384.092,298.191 384.623,298.086 385.152,298.006 385.682,297.928 386.266,297.848 386.795,297.795 387.324,297.742 387.908,297.689 388.438,297.662 388.967,297.635 389.551,297.609 390.08,297.609 390.609,297.609 391.193,297.635 391.723,297.662 392.254,297.689 392.836,297.742 393.365,297.795 393.896,297.848 394.479,297.928 "
   stroke-miterlimit="10" />
</g><g
     style="fill:#000000;fill-opacity:1;stroke:none"
     id="LWPOLYLINE_1_">
	
		<path
   style="fill:#000000;fill-opacity:1;stroke:none"
   id="path7"
   d="m 332.584,207.443 -2.277,-3.205 -2.279,-3.127 -2.279,-3.047 -2.277,-2.967 -2.332,-2.889 -2.332,-2.809 -2.332,-2.729 -2.33,-2.65 -2.385,-2.543 -2.385,-2.49 -2.385,-2.385 -2.385,-2.332 -2.385,-2.225 -2.385,-2.121 -2.438,-2.066 -2.438,-1.961 -2.385,-1.881 -2.438,-1.775 -2.438,-1.695 -2.438,-1.617 -2.438,-1.51 -2.385,-1.43 -2.438,-1.326 -2.438,-1.244 -2.412,-1.166 -2.41,-1.033 -2.412,-0.98 -2.41,-0.848 -2.385,-0.77 -2.385,-0.688 -2.385,-0.557 -2.357,-0.477 -2.359,-0.371 -2.33,-0.293 -2.332,-0.158 -2.305,-0.08 -2.307,0.027 -2.277,0.105 -2.252,0.238 -2.252,0.346 -2.227,0.344 -2.252,0.477 -2.227,0.584 -2.199,0.662 -2.225,0.795 -2.227,0.873 -2.199,1.008 -2.199,1.086 -2.225,1.166 -2.199,1.299 -2.199,1.377 -2.172,1.484 -2.199,1.562 -2.174,1.67 -2.199,1.748 -2.172,1.828 -2.172,1.961 -2.146,2.014 -2.174,2.119 -2.172,2.174 -2.146,2.277 -2.146,2.385 -2.146,2.438 -2.145,2.545 -2.146,2.596 -2.146,2.703 -2.119,2.756 -2.146,2.834 -2.119,2.914 -2.121,2.994 -2.119,3.074 -2.119,3.152 -2.119,3.207 -2.094,3.285 -2.094,3.338 -2.119,3.418 -2.094,3.471 -2.094,3.551 -2.066,3.631 -2.092,3.656 -1.988,3.523 -1.986,3.551 -1.961,3.629 -1.961,3.684 -1.934,3.762 -1.936,3.816 -1.906,3.895 -1.908,3.947 -1.881,4.027 -1.881,4.055 -1.855,4.16 -1.855,4.213 -1.854,4.266 -1.828,4.346 -1.803,4.424 -1.828,4.479 -1.801,4.529 -1.803,4.611 -1.775,4.689 -1.775,4.742 -1.773,4.822 -1.75,4.902 -1.748,4.955 -1.748,5.033 -1.75,5.113 -1.748,5.168 -1.723,5.246 -1.723,5.326 -1.721,5.377 -1.723,5.484 -1.723,5.512 -1.695,5.617 -1.723,5.697 -1.695,5.75 -1.695,5.828 -1.697,5.936 -1.721,5.988 -1.697,6.041 -1.695,6.146 -1.695,6.199 c 0.211,0 0.477,0 0.477,0 h 0.346 0.424 0.502 0.609 0.637 0.742 0.768 0.848 0.875 0.928 0.953 1.008 1.033 1.033 1.059 1.088 1.059 1.086 1.088 1.059 1.033 1.033 1.008 0.953 0.928 0.875 0.848 0.768 0.742 0.662 0.584 0.502 0.424 0.346 c 0.264,0 0.424,0 0.424,0 0.053,0 0.371,-2.014 0.371,-2.014 l 0.318,-1.961 0.316,-1.959 0.371,-2.014 0.346,-1.961 0.371,-1.961 0.396,-1.908 0.398,-1.961 0.396,-1.961 0.424,-1.906 0.424,-1.908 0.451,-1.961 0.449,-1.908 0.451,-1.906 0.477,-1.961 0.504,-1.908 0.504,-1.908 0.502,-1.934 0.531,-1.908 0.529,-1.934 0.529,-1.934 0.557,-1.936 0.584,-1.934 0.582,-1.961 0.584,-1.961 0.609,-1.961 0.609,-1.961 0.635,-1.986 0.637,-1.986 0.635,-2.014 0.662,-2.014 0.689,-2.014 0.662,-2.041 0.717,-2.066 0.688,-2.066 0.717,-2.066 0.74,-2.094 0.742,-2.119 0.742,-2.146 0.77,-2.146 0.795,-2.252 0.768,-2.252 0.795,-2.252 0.795,-2.279 0.794,-2.275 0.82,-2.305 0.822,-2.305 0.82,-2.305 0.85,-2.305 0.848,-2.307 0.848,-2.332 0.848,-2.305 0.875,-2.332 0.873,-2.33 0.9,-2.307 0.875,-2.33 0.9,-2.332 0.902,-2.332 0.926,-2.305 0.902,-2.332 0.953,-2.305 0.928,-2.305 0.928,-2.307 0.953,-2.305 0.98,-2.277 0.953,-2.279 0.98,-2.279 0.98,-2.277 0.98,-2.254 1.008,-2.252 1.006,-2.225 1.008,-2.227 1.033,-2.199 1.033,-2.199 1.033,-2.172 1.033,-2.172 1.059,-2.146 1.061,-2.119 1.061,-2.121 1.086,-2.092 1.246,-2.254 1.271,-2.225 1.297,-2.252 1.326,-2.227 1.324,-2.252 1.377,-2.225 1.379,-2.227 1.377,-2.225 1.432,-2.199 1.404,-2.199 1.457,-2.174 1.43,-2.172 1.459,-2.146 1.482,-2.119 1.457,-2.094 1.484,-2.094 1.484,-2.039 1.482,-2.014 1.484,-2.014 1.484,-1.961 1.482,-1.934 1.484,-1.908 1.457,-1.855 1.484,-1.828 1.457,-1.775 1.457,-1.748 1.432,-1.695 1.43,-1.643 1.432,-1.617 1.377,-1.537 1.404,-1.51 1.352,-1.457 1.352,-1.377 1.324,-1.352 1.299,-1.271 1.299,-1.219 1.244,-1.166 1.219,-1.086 1.219,-1.035 1.166,-0.953 1.457,-0.98 1.432,-0.928 1.404,-0.848 1.377,-0.82 1.379,-0.742 1.352,-0.715 1.324,-0.637 1.324,-0.582 1.299,-0.531 1.271,-0.502 1.271,-0.426 1.246,-0.396 1.244,-0.344 1.219,-0.293 1.193,-0.238 1.219,-0.211 1.166,-0.16 1.191,-0.105 1.166,-0.053 1.166,-0.027 1.139,0.027 1.166,0.053 1.141,0.105 1.111,0.16 1.141,0.186 1.139,0.211 1.113,0.266 1.113,0.291 1.111,0.346 1.141,0.344 1.111,0.424 1.113,0.424 1.113,0.477 1.139,0.504 1.113,0.529 1.139,0.557 1.141,0.609 1.139,0.609 1.139,0.662 1.141,0.689 1.006,0.396 1.033,0.451 1.033,0.451 1.033,0.502 1.033,0.557 1.061,0.584 1.061,0.609 1.059,0.635 1.033,0.664 1.113,0.715 1.061,0.742 1.059,0.768 1.061,0.795 1.113,0.848 1.059,0.875 1.061,0.9 1.061,0.928 1.059,0.953 1.061,1.008 1.008,1.033 1.059,1.059 1.008,1.088 1.059,1.111 0.955,1.141 1.006,1.191 1.008,1.193 0.953,1.244 0.953,1.271 0.955,1.299 0.9,1.324 0.9,1.352 0.9,1.404 0.902,1.404 0.848,1.432 0.795,1.482 0.848,1.484 0.742,1.537 0.795,1.562 0.688,1.564 0.742,1.615 c 0.16,-0.105 0.371,-0.238 0.371,-0.238 l 0.266,-0.158 0.318,-0.238 0.424,-0.238 0.424,-0.293 0.529,-0.344 0.582,-0.344 0.584,-0.398 0.689,-0.424 0.688,-0.451 0.742,-0.449 0.742,-0.477 0.795,-0.504 0.795,-0.529 0.795,-0.504 0.848,-0.529 0.848,-0.557 0.848,-0.531 0.848,-0.529 0.848,-0.557 0.85,-0.529 0.795,-0.531 0.795,-0.502 0.795,-0.504 0.793,-0.477 0.689,-0.477 0.689,-0.424 0.689,-0.424 0.582,-0.398 0.584,-0.371 0.529,-0.318 0.477,-0.291 0.371,-0.266 0.371,-0.211 0.266,-0.158 c 0.156,-0.128 0.314,-0.208 0.367,-0.236 z"
   stroke-miterlimit="10"
   inkscape:connector-curvature="0" />
</g><g
     style="fill:#000000;fill-opacity:1;stroke:none"
     id="LWPOLYLINE_2_">
	
		<path
   style="fill:#000000;fill-opacity:1;stroke:none"
   id="path10"
   d="m 533.316,288.945 -5.352,0.318 -5.354,0.396 -5.299,0.424 -5.299,0.477 -5.246,0.531 -5.246,0.582 -5.193,0.609 -5.141,0.662 -5.141,0.717 -5.086,0.74 -5.088,0.822 -5.033,0.82 -4.982,0.902 -4.928,0.926 -4.928,0.955 -4.928,1.006 -4.875,1.033 -4.822,1.088 -4.77,1.139 -4.77,1.139 -4.717,1.193 -4.662,1.244 -4.664,1.271 -4.609,1.299 -4.611,1.324 -4.557,1.379 -4.504,1.404 -4.451,1.43 -4.453,1.459 -4.396,1.482 -4.346,1.537 -4.346,1.537 -4.293,1.59 -4.238,1.615 -4.24,1.643 -4.186,1.67 -4.133,1.67 -4.135,1.721 -4.027,1.75 -4.027,1.748 -3.973,1.723 -3.869,1.723 -3.816,1.775 -3.762,1.801 -3.656,1.803 -3.604,1.854 -3.551,1.881 -3.443,1.883 -3.393,1.934 -3.391,1.934 -3.285,1.988 -3.18,2.014 -3.18,2.014 -3.127,2.066 -3.127,2.066 -3.02,2.119 -2.967,2.119 -2.969,2.146 -2.914,2.199 -2.836,2.199 -2.834,2.227 -2.809,2.252 -2.783,2.277 -2.729,2.307 -2.729,2.33 -2.703,2.359 -2.676,2.385 -2.65,2.41 -2.648,2.412 -2.623,2.438 -2.623,2.49 -2.598,2.49 -2.596,2.543 -2.596,2.545 -2.598,2.596 -2.596,2.598 -2.598,2.596 -2.596,2.65 -2.598,2.648 -2.623,2.703 -2.385,2.49 -2.357,2.598 -2.357,2.648 -2.359,2.703 -2.332,2.809 -2.305,2.809 -2.305,2.914 -2.279,2.967 -2.252,2.969 -2.252,3.02 -2.225,3.074 -2.199,3.127 -2.199,3.18 -2.146,3.178 -2.146,3.18 -2.119,3.232 -2.094,3.232 -2.066,3.287 -2.041,3.232 -2.014,3.285 -1.986,3.285 -1.986,3.285 -1.936,3.285 -1.881,3.285 -1.881,3.232 -1.855,3.232 -1.801,3.232 -1.775,3.232 -1.748,3.18 -1.723,3.127 -1.67,3.127 -1.643,3.074 -1.615,3.072 -1.564,2.969 -1.537,2.967 -1.482,2.914 -1.457,2.809 -1.432,2.809 -1.352,2.703 -1.352,2.648 -1.139,2.65 -1.166,2.596 -1.166,2.65 -1.166,2.596 -1.166,2.598 -1.164,2.596 -1.166,2.598 -1.141,2.596 -1.166,2.598 -1.139,2.596 -1.139,2.598 -1.141,2.543 -1.139,2.596 -1.113,2.545 -1.111,2.596 -1.113,2.543 -1.086,2.598 -1.061,2.543 -1.061,2.543 -1.059,2.545 -1.033,2.543 -1.008,2.543 -1.006,2.545 -0.98,2.543 -0.955,2.49 -0.953,2.545 -0.928,2.543 -0.875,2.49 -0.9,2.543 -0.848,2.492 -0.82,2.49 -0.795,2.543 -0.77,2.49 -0.742,2.49 -0.715,2.492 -0.689,2.49 -0.662,2.49 -0.609,2.438 -0.609,2.49 -0.557,2.49 c 0.213,0 0.451,0 0.451,0 h 0.344 0.398 0.504 0.555 0.637 0.715 0.742 0.795 0.875 0.873 0.928 0.98 0.98 1.008 1.033 1.033 1.033 1.033 1.033 1.033 1.008 0.979 0.98 0.928 0.875 0.875 0.793 0.742 0.717 0.635 0.557 0.504 0.396 0.346 c 0.238,0 0.396,0 0.396,0 0.053,0 2.146,-6.146 2.146,-6.146 l 2.094,-6.041 2.146,-5.988 2.145,-5.881 2.146,-5.777 2.199,-5.723 2.199,-5.67 2.227,-5.564 2.252,-5.51 2.252,-5.406 2.305,-5.352 2.305,-5.246 2.305,-5.246 2.359,-5.088 2.357,-5.088 2.359,-4.98 2.41,-4.928 2.412,-4.875 2.438,-4.822 2.463,-4.717 2.465,-4.662 2.518,-4.664 2.516,-4.504 2.518,-4.504 2.57,-4.451 2.57,-4.398 2.57,-4.346 2.623,-4.24 2.623,-4.238 2.648,-4.188 2.676,-4.133 2.678,-4.08 2.729,-4.027 2.729,-3.975 2.729,-3.922 2.783,-3.867 2.781,-3.869 2.783,-3.814 2.834,-3.764 2.836,-3.709 3.072,-3.604 3.074,-3.498 3.074,-3.496 3.047,-3.393 3.047,-3.338 3.047,-3.285 3.047,-3.18 3.02,-3.18 3.047,-3.072 3.049,-3.021 3.047,-2.967 3.047,-2.916 3.072,-2.861 3.047,-2.809 3.102,-2.756 3.072,-2.648 3.127,-2.65 3.074,-2.543 3.178,-2.543 3.127,-2.438 3.18,-2.412 3.18,-2.332 3.232,-2.305 3.232,-2.252 3.232,-2.199 3.285,-2.119 3.34,-2.094 3.338,-2.039 3.391,-2.014 3.393,-1.936 3.443,-1.906 3.498,-1.83 3.551,-1.801 3.551,-1.748 3.602,-1.723 3.658,-1.67 3.656,-1.615 3.762,-1.564 3.762,-1.535 3.816,-1.484 3.814,-1.695 3.816,-1.643 3.867,-1.617 3.869,-1.59 3.922,-1.562 3.92,-1.512 3.975,-1.482 3.975,-1.457 4.027,-1.432 4.027,-1.377 4.08,-1.352 4.08,-1.324 4.135,-1.273 4.133,-1.244 4.186,-1.219 4.188,-1.166 4.186,-1.139 4.24,-1.113 4.238,-1.061 4.293,-1.006 4.238,-0.98 4.346,-0.955 4.293,-0.9 4.346,-0.875 4.398,-0.82 4.344,-0.795 4.398,-0.742 4.398,-0.689 4.451,-0.662 4.398,-0.635 4.451,-0.557 4.451,-0.557 4.504,-0.477 4.451,-0.451 4.506,-0.396 4.504,-0.371 4.557,-0.318 4.504,-0.266 4.559,-0.211 4.504,-0.186 c 0,-0.213 0,-0.451 0,-0.451 v -0.318 -0.424 -0.502 -0.557 -0.637 -0.689 -0.768 -0.795 -0.848 -0.9 -0.928 -0.98 -0.98 -1.008 -1.033 -1.033 -1.033 -1.033 -1.059 -1.008 -1.006 -1.008 -0.953 -0.928 -0.9 -0.848 -0.822 -0.742 -0.689 -0.635 -0.584 -0.477 -0.424 -0.344 c 0.006,-0.238 0.006,-0.371 0.006,-0.424 z"
   stroke-miterlimit="10"
   inkscape:connector-curvature="0" />
</g><g
     style="fill:#000000;fill-opacity:1;stroke:none"
     id="LWPOLYLINE_3_">
	
		<polygon
   style="fill:#000000;fill-opacity:1;stroke:none"
   id="polygon13"
   points="271.777,247.4 271.777,245.359 368.777,184.738 370.844,185.771 377.045,299.781 373.971,298.748 "
   stroke-miterlimit="10" />
</g></g></svg>