<?xml version="1.0" encoding="UTF-8" standalone="no"?>
<!-- Generator: Adobe Illustrator 16.0.1, SVG Export Plug-In . SVG Version: 6.00 Build 0)  -->

<svg
   xmlns:dc="http://purl.org/dc/elements/1.1/"
   xmlns:cc="http://creativecommons.org/ns#"
   xmlns:rdf="http://www.w3.org/1999/02/22-rdf-syntax-ns#"
   xmlns:svg="http://www.w3.org/2000/svg"
   xmlns="http://www.w3.org/2000/svg"
   xmlns:xlink="http://www.w3.org/1999/xlink"
   xmlns:sodipodi="http://sodipodi.sourceforge.net/DTD/sodipodi-0.dtd"
   xmlns:inkscape="http://www.inkscape.org/namespaces/inkscape"
   version="1.0"
   id="_x31_"
   x="0px"
   y="0px"
   width="350"
   height="350"
   viewBox="0 0 350 350"
   enable-background="new 0 0 612 792"
   xml:space="preserve"
   inkscape:version="0.48.2 r9819"
   sodipodi:docname="7090.svg"><metadata
   id="metadata34"><rdf:RDF><cc:Work
       rdf:about=""><dc:format>image/svg+xml</dc:format><dc:type
         rdf:resource="http://purl.org/dc/dcmitype/StillImage" /></cc:Work></rdf:RDF></metadata><defs
   id="defs32"><radialGradient
     r="333.18735"
     fy="710.99164"
     fx="373.24265"
     cy="710.99164"
     cx="373.24265"
     gradientTransform="matrix(0.86272608,1.0667183e-7,-5.1097115e-8,0.31434,-147.00617,81.5576)"
     gradientUnits="userSpaceOnUse"
     id="radialGradient3092"
     xlink:href="#linearGradient5443"
     inkscape:collect="always" /><radialGradient
     r="333.18735"
     fy="467.91885"
     fx="373.24265"
     cy="467.91885"
     cx="373.24265"
     gradientTransform="matrix(0.83535071,2.5391117e-7,-2.4564601e-7,0.80815889,-136.78854,-203.15302)"
     gradientUnits="userSpaceOnUse"
     id="radialGradient3088"
     xlink:href="#linearGradient5443"
     inkscape:collect="always" /><radialGradient
     r="333.18735"
     fy="467.91885"
     fx="373.24265"
     cy="467.91885"
     cx="373.24265"
     gradientTransform="matrix(0.83535071,2.5391117e-7,-2.4564601e-7,0.80815889,783.12101,707.99698)"
     gradientUnits="userSpaceOnUse"
     id="radialGradient3736"
     xlink:href="#linearGradient5443"
     inkscape:collect="always" /><linearGradient
     y2="254.73526"
     x2="123.47623"
     y1="344.03848"
     x1="123.50603"
     gradientTransform="matrix(2.3189708,0,0,2.0930998,-99.17808,-231.54972)"
     gradientUnits="userSpaceOnUse"
     id="linearGradient3734"
     xlink:href="#linearGradient3187"
     inkscape:collect="always" /><radialGradient
     r="333.18735"
     fy="710.99164"
     fx="373.24265"
     cy="710.99164"
     cx="373.24265"
     gradientTransform="matrix(0.86272608,1.0667183e-7,-5.1097115e-8,0.31434,772.90338,992.7076)"
     gradientUnits="userSpaceOnUse"
     id="radialGradient3732"
     xlink:href="#linearGradient5443"
     inkscape:collect="always" /><radialGradient
     r="333.18735"
     fy="710.99164"
     fx="373.24265"
     cy="710.99164"
     cx="373.24265"
     gradientTransform="matrix(0.86272608,1.0667183e-7,-5.1097115e-8,0.31434,772.90338,992.7076)"
     gradientUnits="userSpaceOnUse"
     id="radialGradient3722"
     xlink:href="#linearGradient5443"
     inkscape:collect="always" /><radialGradient
     r="333.18735"
     fy="467.91885"
     fx="373.24265"
     cy="467.91885"
     cx="373.24265"
     gradientTransform="matrix(0.83535071,2.5391117e-7,-2.4564601e-7,0.80815889,783.12101,707.99698)"
     gradientUnits="userSpaceOnUse"
     id="radialGradient3718"
     xlink:href="#linearGradient5443"
     inkscape:collect="always" /><radialGradient
     r="333.18735"
     fy="467.91885"
     fx="373.24265"
     cy="467.91885"
     cx="373.24265"
     gradientTransform="matrix(0.9201975,2.7970099e-7,-2.7059634e-7,0.8902438,-163.70313,61.921561)"
     gradientUnits="userSpaceOnUse"
     id="radialGradient3703"
     xlink:href="#linearGradient5443"
     inkscape:collect="always" /><linearGradient
     y2="254.73526"
     x2="123.47623"
     y1="344.03848"
     x1="123.50603"
     gradientTransform="matrix(2.3189708,0,0,2.0930998,-99.17808,-231.54972)"
     gradientUnits="userSpaceOnUse"
     id="linearGradient3701"
     xlink:href="#linearGradient3187"
     inkscape:collect="always" /><radialGradient
     r="333.18735"
     fy="710.99164"
     fx="373.24265"
     cy="710.99164"
     cx="373.24265"
     gradientTransform="matrix(0.9503534,1.1750652e-7,-5.6287062e-8,0.3462676,-174.95857,375.55031)"
     gradientUnits="userSpaceOnUse"
     id="radialGradient3699"
     xlink:href="#linearGradient5443"
     inkscape:collect="always" /><radialGradient
     r="333.18735"
     fy="467.91885"
     fx="373.24265"
     cy="467.91885"
     cx="373.24265"
     gradientTransform="matrix(0.9201975,2.7970099e-7,-2.7059634e-7,0.8902438,-163.70313,61.921561)"
     gradientUnits="userSpaceOnUse"
     id="radialGradient3680"
     xlink:href="#linearGradient5443"
     inkscape:collect="always" /><linearGradient
     y2="254.73526"
     x2="123.47623"
     y1="344.03848"
     x1="123.50603"
     gradientTransform="matrix(2.3189708,0,0,2.0930998,-99.17808,-231.54972)"
     gradientUnits="userSpaceOnUse"
     id="linearGradient3678"
     xlink:href="#linearGradient3187"
     inkscape:collect="always" /><radialGradient
     r="333.18735"
     fy="710.99164"
     fx="373.24265"
     cy="710.99164"
     cx="373.24265"
     gradientTransform="matrix(0.9503534,1.1750652e-7,-5.6287062e-8,0.3462676,-174.95857,375.55031)"
     gradientUnits="userSpaceOnUse"
     id="radialGradient3676"
     xlink:href="#linearGradient5443"
     inkscape:collect="always" /><radialGradient
     r="333.18735"
     fy="467.91885"
     fx="373.24265"
     cy="467.91885"
     cx="373.24265"
     gradientTransform="matrix(0.9201975,2.7970099e-7,-2.7059634e-7,0.8902438,-163.70313,61.921561)"
     gradientUnits="userSpaceOnUse"
     id="radialGradient3654"
     xlink:href="#linearGradient5443"
     inkscape:collect="always" /><linearGradient
     y2="254.73526"
     x2="123.47623"
     y1="344.03848"
     x1="123.50603"
     gradientTransform="matrix(2.3189708,0,0,2.0930998,-99.17808,-231.54972)"
     gradientUnits="userSpaceOnUse"
     id="linearGradient3652"
     xlink:href="#linearGradient3187"
     inkscape:collect="always" /><radialGradient
     r="333.18735"
     fy="710.99164"
     fx="373.24265"
     cy="710.99164"
     cx="373.24265"
     gradientTransform="matrix(0.9503534,1.1750652e-7,-5.6287062e-8,0.3462676,-174.95857,375.55031)"
     gradientUnits="userSpaceOnUse"
     id="radialGradient3650"
     xlink:href="#linearGradient5443"
     inkscape:collect="always" /><radialGradient
     r="333.18735"
     fy="467.91885"
     fx="373.24265"
     cy="467.91885"
     cx="373.24265"
     gradientTransform="matrix(0.9201975,2.7970099e-7,-2.7059634e-7,0.8902438,-163.70313,61.921561)"
     gradientUnits="userSpaceOnUse"
     id="radialGradient3627"
     xlink:href="#linearGradient5443"
     inkscape:collect="always" /><linearGradient
     y2="254.73526"
     x2="123.47623"
     y1="344.03848"
     x1="123.50603"
     gradientTransform="matrix(2.3189708,0,0,2.0930998,-99.17808,-231.54972)"
     gradientUnits="userSpaceOnUse"
     id="linearGradient3625"
     xlink:href="#linearGradient3187"
     inkscape:collect="always" /><radialGradient
     r="333.18735"
     fy="710.99164"
     fx="373.24265"
     cy="710.99164"
     cx="373.24265"
     gradientTransform="matrix(0.9503534,1.1750652e-7,-5.6287062e-8,0.3462676,-174.95857,375.55031)"
     gradientUnits="userSpaceOnUse"
     id="radialGradient3623"
     xlink:href="#linearGradient5443"
     inkscape:collect="always" /><radialGradient
     r="333.18735"
     fy="467.91885"
     fx="373.24265"
     cy="467.91885"
     cx="373.24265"
     gradientTransform="matrix(0.9201975,2.7970099e-7,-2.7059634e-7,0.8902438,-163.70313,61.921561)"
     gradientUnits="userSpaceOnUse"
     id="radialGradient3599"
     xlink:href="#linearGradient5443"
     inkscape:collect="always" /><linearGradient
     y2="254.73526"
     x2="123.47623"
     y1="344.03848"
     x1="123.50603"
     gradientTransform="matrix(2.3189708,0,0,2.0930998,-99.17808,-231.54972)"
     gradientUnits="userSpaceOnUse"
     id="linearGradient3597"
     xlink:href="#linearGradient3187"
     inkscape:collect="always" /><radialGradient
     r="333.18735"
     fy="710.99164"
     fx="373.24265"
     cy="710.99164"
     cx="373.24265"
     gradientTransform="matrix(0.9503534,1.1750652e-7,-5.6287062e-8,0.3462676,-174.95857,375.55031)"
     gradientUnits="userSpaceOnUse"
     id="radialGradient3595"
     xlink:href="#linearGradient5443"
     inkscape:collect="always" /><radialGradient
     r="333.18735"
     fy="467.91885"
     fx="373.24265"
     cy="467.91885"
     cx="373.24265"
     gradientTransform="matrix(0.9201975,2.7970099e-7,-2.7059634e-7,0.8902438,-163.70313,61.921561)"
     gradientUnits="userSpaceOnUse"
     id="radialGradient3525"
     xlink:href="#linearGradient5443"
     inkscape:collect="always" /><linearGradient
     y2="254.73526"
     x2="123.47623"
     y1="344.03848"
     x1="123.50603"
     gradientTransform="matrix(2.3189708,0,0,2.0930998,-99.17808,-231.54972)"
     gradientUnits="userSpaceOnUse"
     id="linearGradient3523"
     xlink:href="#linearGradient3187"
     inkscape:collect="always" /><radialGradient
     r="333.18735"
     fy="710.99164"
     fx="373.24265"
     cy="710.99164"
     cx="373.24265"
     gradientTransform="matrix(0.9503534,1.1750652e-7,-5.6287062e-8,0.3462676,-174.95857,375.55031)"
     gradientUnits="userSpaceOnUse"
     id="radialGradient3521"
     xlink:href="#linearGradient5443"
     inkscape:collect="always" /><radialGradient
     r="333.18735"
     fy="467.91885"
     fx="373.24265"
     cy="467.91885"
     cx="373.24265"
     gradientTransform="matrix(0.9201975,2.7970099e-7,-2.7059634e-7,0.8902438,-163.70313,61.921561)"
     gradientUnits="userSpaceOnUse"
     id="radialGradient3497"
     xlink:href="#linearGradient5443"
     inkscape:collect="always" /><linearGradient
     y2="254.73526"
     x2="123.47623"
     y1="344.03848"
     x1="123.50603"
     gradientTransform="matrix(2.3189708,0,0,2.0930998,-99.17808,-231.54972)"
     gradientUnits="userSpaceOnUse"
     id="linearGradient3495"
     xlink:href="#linearGradient3187"
     inkscape:collect="always" /><radialGradient
     r="333.18735"
     fy="710.99164"
     fx="373.24265"
     cy="710.99164"
     cx="373.24265"
     gradientTransform="matrix(0.9503534,1.1750652e-7,-5.6287062e-8,0.3462676,-174.95857,375.55031)"
     gradientUnits="userSpaceOnUse"
     id="radialGradient3493"
     xlink:href="#linearGradient5443"
     inkscape:collect="always" /><linearGradient
     id="linearGradient5443"><stop
       id="stop5445"
       offset="0"
       style="stop-color:#ffffff;stop-opacity:0;" /><stop
       id="stop5447"
       offset="1"
       style="stop-color:#000000;stop-opacity:0.33962265;" /></linearGradient><linearGradient
     id="linearGradient3157"><stop
       style="stop-color:#49bcff;stop-opacity:1;"
       offset="0"
       id="stop3159" /><stop
       style="stop-color:#494c96;stop-opacity:1;"
       offset="1"
       id="stop3161" /></linearGradient><linearGradient
     id="linearGradient3171"><stop
       id="stop3173"
       offset="0"
       style="stop-color:#49bcff;stop-opacity:1;" /><stop
       id="stop3175"
       offset="1"
       style="stop-color:#494cdc;stop-opacity:1;" /></linearGradient><linearGradient
     id="linearGradient3187"><stop
       style="stop-color:#ffffff;stop-opacity:0.39622641;"
       offset="0"
       id="stop3189" /><stop
       style="stop-color:#000000;stop-opacity:1;"
       offset="1"
       id="stop3191" /></linearGradient><linearGradient
     id="linearGradient4395"><stop
       style="stop-color:#110084;stop-opacity:1;"
       offset="0"
       id="stop4397" /><stop
       style="stop-color:#a695ff;stop-opacity:1;"
       offset="1"
       id="stop4399" /></linearGradient><linearGradient
     id="linearGradient4383"><stop
       style="stop-color:#00037f;stop-opacity:1;"
       offset="0"
       id="stop4385" /><stop
       style="stop-color:#00037f;stop-opacity:0;"
       offset="1"
       id="stop4387" /></linearGradient><inkscape:perspective
     sodipodi:type="inkscape:persp3d"
     inkscape:vp_x="0 : 526.18109 : 1"
     inkscape:vp_y="0 : 1000 : 0"
     inkscape:vp_z="744.09448 : 526.18109 : 1"
     inkscape:persp3d-origin="372.04724 : 350.78739 : 1"
     id="perspective3214" /><linearGradient
     inkscape:collect="always"
     xlink:href="#linearGradient4383"
     id="linearGradient4389"
     x1="371.42194"
     y1="298.59412"
     x2="396.91168"
     y2="655.4505"
     gradientUnits="userSpaceOnUse" /><linearGradient
     inkscape:collect="always"
     xlink:href="#linearGradient4395"
     id="linearGradient4401"
     x1="360.49777"
     y1="167.50403"
     x2="360.49777"
     y2="540.86719"
     gradientUnits="userSpaceOnUse" /><linearGradient
     inkscape:collect="always"
     xlink:href="#linearGradient3187"
     id="linearGradient4562"
     gradientUnits="userSpaceOnUse"
     gradientTransform="matrix(2.3189708,0,0,2.0930998,93.115298,-256.84999)"
     x1="123.50603"
     y1="344.03848"
     x2="123.47623"
     y2="254.73526" /><radialGradient
     inkscape:collect="always"
     xlink:href="#linearGradient3171"
     id="radialGradient4569"
     gradientUnits="userSpaceOnUse"
     gradientTransform="matrix(0.9201975,2.7970099e-7,-2.7059634e-7,0.8902438,28.590287,48.634335)"
     cx="373.24265"
     cy="467.91885"
     fx="373.24265"
     fy="467.91885"
     r="333.18735" /><radialGradient
     inkscape:collect="always"
     xlink:href="#linearGradient3157"
     id="radialGradient4572"
     gradientUnits="userSpaceOnUse"
     gradientTransform="matrix(0.9503534,1.1750652e-7,-5.6287062e-8,0.3462676,17.334826,362.44227)"
     cx="373.24265"
     cy="710.99164"
     fx="373.24265"
     fy="710.99164"
     r="333.18735" /><filter
     inkscape:collect="always"
     id="filter4659"
     color-interpolation-filters="sRGB"><feGaussianBlur
       inkscape:collect="always"
       stdDeviation="2.7750933"
       id="feGaussianBlur4661" /></filter><radialGradient
     inkscape:collect="always"
     xlink:href="#linearGradient3157"
     id="radialGradient4766"
     gradientUnits="userSpaceOnUse"
     gradientTransform="matrix(0.9503534,1.1750652e-7,-5.6287062e-8,0.3462676,17.334826,362.44227)"
     cx="373.24265"
     cy="710.99164"
     fx="373.24265"
     fy="710.99164"
     r="333.18735" /><radialGradient
     inkscape:collect="always"
     xlink:href="#linearGradient3171"
     id="radialGradient4768"
     gradientUnits="userSpaceOnUse"
     gradientTransform="matrix(0.9201975,2.7970099e-7,-2.7059634e-7,0.8902438,28.590287,48.634335)"
     cx="373.24265"
     cy="467.91885"
     fx="373.24265"
     fy="467.91885"
     r="333.18735" /><linearGradient
     inkscape:collect="always"
     xlink:href="#linearGradient3187"
     id="linearGradient4770"
     gradientUnits="userSpaceOnUse"
     gradientTransform="matrix(2.3189708,0,0,2.0930998,93.115298,-256.84999)"
     x1="123.50603"
     y1="344.03848"
     x2="123.47623"
     y2="254.73526" /><linearGradient
     inkscape:collect="always"
     xlink:href="#linearGradient3187"
     id="linearGradient4773"
     gradientUnits="userSpaceOnUse"
     gradientTransform="matrix(2.3189708,0,0,2.0930998,93.115298,-256.84999)"
     x1="123.50603"
     y1="344.03848"
     x2="123.47623"
     y2="254.73526" /><radialGradient
     inkscape:collect="always"
     xlink:href="#linearGradient3171"
     id="radialGradient4776"
     gradientUnits="userSpaceOnUse"
     gradientTransform="matrix(0.9201975,2.7970099e-7,-2.7059634e-7,0.8902438,28.590287,48.634335)"
     cx="373.24265"
     cy="467.91885"
     fx="373.24265"
     fy="467.91885"
     r="333.18735" /><radialGradient
     inkscape:collect="always"
     xlink:href="#linearGradient3157"
     id="radialGradient4779"
     gradientUnits="userSpaceOnUse"
     gradientTransform="matrix(0.9503534,1.1750652e-7,-5.6287062e-8,0.3462676,17.334826,362.44227)"
     cx="373.24265"
     cy="710.99164"
     fx="373.24265"
     fy="710.99164"
     r="333.18735" /><radialGradient
     inkscape:collect="always"
     xlink:href="#linearGradient3157"
     id="radialGradient4790"
     gradientUnits="userSpaceOnUse"
     gradientTransform="matrix(0.9503534,1.1750652e-7,-5.6287062e-8,0.3462676,17.334826,362.44227)"
     cx="373.24265"
     cy="710.99164"
     fx="373.24265"
     fy="710.99164"
     r="333.18735" /><radialGradient
     inkscape:collect="always"
     xlink:href="#linearGradient3171"
     id="radialGradient4792"
     gradientUnits="userSpaceOnUse"
     gradientTransform="matrix(0.9201975,2.7970099e-7,-2.7059634e-7,0.8902438,28.590287,48.634335)"
     cx="373.24265"
     cy="467.91885"
     fx="373.24265"
     fy="467.91885"
     r="333.18735" /><linearGradient
     inkscape:collect="always"
     xlink:href="#linearGradient3187"
     id="linearGradient4794"
     gradientUnits="userSpaceOnUse"
     gradientTransform="matrix(2.3189708,0,0,2.0930998,93.115298,-256.84999)"
     x1="123.50603"
     y1="344.03848"
     x2="123.47623"
     y2="254.73526" /><linearGradient
     inkscape:collect="always"
     xlink:href="#linearGradient3187"
     id="linearGradient4799"
     gradientUnits="userSpaceOnUse"
     gradientTransform="matrix(2.3189708,0,0,2.0930998,93.115298,-256.84999)"
     x1="123.50603"
     y1="344.03848"
     x2="123.47623"
     y2="254.73526" /><radialGradient
     inkscape:collect="always"
     xlink:href="#linearGradient3171"
     id="radialGradient4802"
     gradientUnits="userSpaceOnUse"
     gradientTransform="matrix(0.9201975,2.7970099e-7,-2.7059634e-7,0.8902438,28.590287,48.634335)"
     cx="373.24265"
     cy="467.91885"
     fx="373.24265"
     fy="467.91885"
     r="333.18735" /><radialGradient
     inkscape:collect="always"
     xlink:href="#linearGradient3157"
     id="radialGradient4805"
     gradientUnits="userSpaceOnUse"
     gradientTransform="matrix(0.9503534,1.1750652e-7,-5.6287062e-8,0.3462676,17.334826,362.44227)"
     cx="373.24265"
     cy="710.99164"
     fx="373.24265"
     fy="710.99164"
     r="333.18735" /><radialGradient
     inkscape:collect="always"
     xlink:href="#linearGradient3157"
     id="radialGradient4820"
     gradientUnits="userSpaceOnUse"
     gradientTransform="matrix(0.9503534,1.1750652e-7,-5.6287062e-8,0.3462676,17.334826,362.44227)"
     cx="373.24265"
     cy="710.99164"
     fx="373.24265"
     fy="710.99164"
     r="333.18735" /><radialGradient
     inkscape:collect="always"
     xlink:href="#linearGradient3171"
     id="radialGradient4822"
     gradientUnits="userSpaceOnUse"
     gradientTransform="matrix(0.9201975,2.7970099e-7,-2.7059634e-7,0.8902438,28.590287,48.634335)"
     cx="373.24265"
     cy="467.91885"
     fx="373.24265"
     fy="467.91885"
     r="333.18735" /><linearGradient
     inkscape:collect="always"
     xlink:href="#linearGradient3187"
     id="linearGradient4824"
     gradientUnits="userSpaceOnUse"
     gradientTransform="matrix(2.3189708,0,0,2.0930998,93.115298,-256.84999)"
     x1="123.50603"
     y1="344.03848"
     x2="123.47623"
     y2="254.73526" /><linearGradient
     inkscape:collect="always"
     xlink:href="#linearGradient3187"
     id="linearGradient4827"
     gradientUnits="userSpaceOnUse"
     gradientTransform="matrix(2.3189708,0,0,2.0930998,-99.17808,-231.54972)"
     x1="123.50603"
     y1="344.03848"
     x2="123.47623"
     y2="254.73526" /><radialGradient
     inkscape:collect="always"
     xlink:href="#linearGradient5443"
     id="radialGradient4832"
     gradientUnits="userSpaceOnUse"
     gradientTransform="matrix(0.9201975,2.7970099e-7,-2.7059634e-7,0.8902438,-163.70313,61.921561)"
     cx="373.24265"
     cy="467.91885"
     fx="373.24265"
     fy="467.91885"
     r="333.18735" /><radialGradient
     inkscape:collect="always"
     xlink:href="#linearGradient5443"
     id="radialGradient4835"
     gradientUnits="userSpaceOnUse"
     gradientTransform="matrix(0.9503534,1.1750652e-7,-5.6287062e-8,0.3462676,-174.95857,375.55031)"
     cx="373.24265"
     cy="710.99164"
     fx="373.24265"
     fy="710.99164"
     r="333.18735" /><filter
     inkscape:collect="always"
     id="filter5511"
     color-interpolation-filters="sRGB"><feGaussianBlur
       inkscape:collect="always"
       stdDeviation="3.2374974"
       id="feGaussianBlur5513" /></filter><radialGradient
     inkscape:collect="always"
     xlink:href="#linearGradient5443-5"
     id="radialGradient4835-3"
     gradientUnits="userSpaceOnUse"
     gradientTransform="matrix(0.9503534,1.1750652e-7,-5.6287062e-8,0.3462676,317.80591,185.68771)"
     cx="373.24265"
     cy="710.99164"
     fx="373.24265"
     fy="710.99164"
     r="333.18735" /><linearGradient
     id="linearGradient5443-5"><stop
       id="stop5445-4"
       offset="0"
       style="stop-color:#ffffff;stop-opacity:0;" /><stop
       id="stop5447-3"
       offset="1"
       style="stop-color:#000000;stop-opacity:0.33962265;" /></linearGradient><radialGradient
     inkscape:collect="always"
     xlink:href="#linearGradient5443"
     id="radialGradient3272"
     gradientUnits="userSpaceOnUse"
     gradientTransform="matrix(0.9503534,1.1750652e-7,-5.6287062e-8,0.3462676,-174.95857,375.55031)"
     cx="373.24265"
     cy="710.99164"
     fx="373.24265"
     fy="710.99164"
     r="333.18735" /><linearGradient
     inkscape:collect="always"
     xlink:href="#linearGradient3187"
     id="linearGradient3274"
     gradientUnits="userSpaceOnUse"
     gradientTransform="matrix(2.3189708,0,0,2.0930998,-99.17808,-231.54972)"
     x1="123.50603"
     y1="344.03848"
     x2="123.47623"
     y2="254.73526" /><radialGradient
     inkscape:collect="always"
     xlink:href="#linearGradient5443"
     id="radialGradient3276"
     gradientUnits="userSpaceOnUse"
     gradientTransform="matrix(0.9201975,2.7970099e-7,-2.7059634e-7,0.8902438,-163.70313,61.921561)"
     cx="373.24265"
     cy="467.91885"
     fx="373.24265"
     fy="467.91885"
     r="333.18735" /></defs><sodipodi:namedview
   pagecolor="#ffffff"
   bordercolor="#666666"
   borderopacity="1"
   objecttolerance="10"
   gridtolerance="10"
   guidetolerance="10"
   inkscape:pageopacity="0"
   inkscape:pageshadow="2"
   inkscape:window-width="1920"
   inkscape:window-height="1068"
   id="namedview30"
   showgrid="false"
   inkscape:zoom="0.84281414"
   inkscape:cx="-76.286968"
   inkscape:cy="158.10154"
   inkscape:window-x="0"
   inkscape:window-y="0"
   inkscape:window-maximized="1"
   inkscape:current-layer="_x31_"
   fit-margin-top="0"
   fit-margin-left="0"
   fit-margin-right="0"
   fit-margin-bottom="0" />








<g
   id="g3297"
   transform="translate(-4.0524846e-6,3.5529445e-6)"><rect
     inkscape:export-ydpi="29.879425"
     inkscape:export-xdpi="29.879425"
     inkscape:export-filename="C:\Documents and Settings\adscro24\Desktop\128.png"
     style="opacity:0.61338286;fill:#464646;fill-opacity:0.78540775;stroke:none;filter:url(#filter4659)"
     id="rect3279"
     width="152.93848"
     height="152.93848"
     x="135.39355"
     y="48.636749"
     rx="16.067965"
     ry="12.45238"
     transform="matrix(2.1051501,0,0,2.1051501,-271.00298,-88.36689)" /><rect
     inkscape:export-ydpi="29.879425"
     inkscape:export-xdpi="29.879425"
     inkscape:export-filename="C:\Documents and Settings\adscro24\Desktop\128.png"
     style="opacity:0.61338286;fill:url(#radialGradient3092);fill-opacity:1;stroke:#000000;stroke-width:3.26806188;stroke-miterlimit:4;stroke-opacity:1;stroke-dasharray:none"
     id="rect3155"
     width="321.95847"
     height="321.95847"
     x="14.020748"
     y="14.020716"
     rx="33.825481"
     ry="26.21413" /><path
     transform="matrix(0.90779502,0,0,0.90779502,11.82035,-259.3651)"
     inkscape:export-ydpi="29.879425"
     inkscape:export-xdpi="29.879425"
     inkscape:export-filename="C:\Documents and Settings\adscro24\Desktop\128.png"
     inkscape:connector-curvature="0"
     style="opacity:0.61338286;fill:url(#linearGradient3734);fill-opacity:1;stroke:none;filter:url(#filter5511)"
     d="m 46.58172,323.34879 c -19.62748,0 -35.44272,12.0976 -35.44272,27.14163 l 0,124.30857 c 29.25482,11.38638 132.70149,11.89599 165.40488,-5.79022 33.32802,-18.02397 127.54379,-68.44264 171.82484,-52.72052 l 0,-65.79783 c 0,-15.04403 -15.7986,-27.14163 -35.4261,-27.14163 l -266.3609,0 z M 11.139,586.81982 l 0,42.88373 c 0,1.33144 0.14331,2.63588 0.38253,3.915 -0.11919,-12.81092 -0.25965,-28.88939 -0.38253,-46.79873 z"
     id="rect3177" /><rect
     inkscape:export-ydpi="29.879425"
     inkscape:export-xdpi="29.879425"
     inkscape:export-filename="C:\Documents and Settings\adscro24\Desktop\128.png"
     style="opacity:0.61338286;fill:url(#radialGradient3088);fill-opacity:1;stroke:#ffffff;stroke-width:0.68992418;stroke-linecap:square;stroke-miterlimit:4;stroke-opacity:1;stroke-dasharray:none"
     id="rect3473"
     width="306.12445"
     height="306.12445"
     x="21.937801"
     y="21.937769"
     rx="32.161926"
     ry="24.924913" /><rect
     inkscape:export-ydpi="29.879425"
     inkscape:export-xdpi="29.879425"
     inkscape:export-filename="C:\Documents and Settings\adscro24\Desktop\128.png"
     style="opacity:0.61338286;fill:#ffffff;fill-opacity:0;stroke:#000000;stroke-width:3.26806188;stroke-miterlimit:4;stroke-opacity:1;stroke-dasharray:none"
     id="rect3155-2"
     width="321.95847"
     height="321.95847"
     x="14.020748"
     y="14.020716"
     rx="33.825481"
     ry="26.21413" /><g
     transform="translate(400.39145,135.8211)"
     style="fill:#000000;fill-opacity:1;stroke:none"
     id="LWPOLYLINE_2_-2">
	
		
</g></g><g
   id="g2997"
   transform="matrix(0.5,0,0,0.5,21.999996,-23.000006)"><g
     style="fill:#000000;fill-opacity:1;stroke:none"
     id="LWPOLYLINE_2_">
	
		<path
   id="polygon10"
   d="m 352.96875,146 0,51.3125 -247.84375,0 0,26.0625 247.84375,0 0,102.625 -247.84375,0 0,25.21875 247.84375,0 0,51.3125 102.625,0 0,-51.3125 51.28125,0 0,-153.90625 -51.28125,0 0,-51.3125 -102.625,0 z m 26.0625,26.09375 49.59375,0 0,204.34375 -49.59375,0 0,-204.34375 z m 76.5625,50.40625 24.3125,0 0,102.625 -24.3125,0 0,-102.625 z"
   style="fill:#000000;fill-opacity:1;stroke:none"
   inkscape:connector-curvature="0" />
</g><g
     id="LWPOLYLINE">
	
		
</g><g
     id="LWPOLYLINE_1_">
	
		
</g><g
     style="fill:#000000;fill-opacity:1;stroke:none"
     id="LWPOLYLINE_3_">
	
		<path
   style="fill:#000000;fill-opacity:1;stroke:none"
   id="path13"
   d="m 164.271,290.701 v 0.318 0.318 0.318 0.318 0.34 0.361 l 0.021,0.361 v 0.361 l 0.021,0.359 0.021,0.383 0.021,0.383 0.043,0.381 0.021,0.383 0.042,0.402 0.043,0.404 0.063,0.424 0.063,0.404 0.063,0.424 0.085,0.426 0.085,0.424 0.085,0.424 0.106,0.447 0.106,0.424 0.127,0.445 0.148,0.447 0.128,0.445 0.169,0.445 0.17,0.467 0.17,0.447 0.213,0.445 0.19,0.467 0.233,0.445 0.234,0.467 0.254,0.447 0.255,0.467 0.298,0.445 0.297,0.445 0.318,0.467 0.318,0.447 0.361,0.467 0.488,0.615 0.51,0.594 0.53,0.553 0.573,0.553 0.573,0.508 0.573,0.469 0.615,0.467 0.616,0.445 0.658,0.402 0.637,0.383 0.679,0.383 0.658,0.34 0.701,0.318 0.679,0.318 0.701,0.275 0.7,0.275 0.722,0.234 0.701,0.234 0.722,0.211 0.722,0.213 0.722,0.17 0.722,0.17 0.701,0.148 0.722,0.127 0.7,0.127 0.701,0.107 0.7,0.105 0.68,0.086 0.679,0.084 0.658,0.064 0.637,0.062 0.658,0.043 0.616,0.043 0.615,0.021 0.595,0.041 0.573,0.021 h 0.552 l 0.53,0.021 h 0.51 0.488 l 1.571,-0.021 1.528,-0.062 1.486,-0.086 1.465,-0.148 1.401,-0.17 1.38,-0.213 1.337,-0.254 1.316,-0.275 1.253,-0.34 1.231,-0.34 1.188,-0.404 1.146,-0.424 1.104,-0.445 1.062,-0.488 1.04,-0.531 0.998,-0.531 0.955,-0.594 0.913,-0.596 0.871,-0.637 0.827,-0.678 0.807,-0.68 0.743,-0.723 0.722,-0.742 0.68,-0.766 0.637,-0.807 0.595,-0.807 0.552,-0.848 0.51,-0.85 0.467,-0.893 0.446,-0.912 0.382,-0.914 0.361,-0.955 0.318,-0.955 0.255,-0.998 0.233,-0.998 0.19,-1.018 0.149,-1.02 0.105,-1.062 0.063,-1.061 0.021,-1.082 v -0.277 l -0.021,-0.297 v -0.297 -0.318 l -0.021,-0.34 -0.021,-0.34 -0.021,-0.361 -0.021,-0.359 -0.042,-0.383 -0.042,-0.383 -0.043,-0.402 -0.063,-0.404 -0.063,-0.402 -0.085,-0.426 -0.085,-0.424 -0.106,-0.445 -0.106,-0.426 -0.127,-0.445 -0.128,-0.445 -0.148,-0.447 -0.17,-0.467 -0.19,-0.445 -0.191,-0.467 -0.212,-0.445 -0.213,-0.467 -0.255,-0.469 -0.254,-0.445 -0.276,-0.467 -0.318,-0.445 -0.318,-0.467 -0.34,-0.447 -0.361,-0.445 -0.382,-0.445 -0.403,-0.445 -0.425,-0.426 -0.467,-0.424 -0.467,-0.426 -0.51,-0.402 -0.531,-0.404 -0.552,-0.402 -0.36,-0.234 -0.34,-0.232 -0.34,-0.213 -0.34,-0.213 -0.34,-0.189 -0.339,-0.191 -0.34,-0.191 -0.34,-0.191 -0.361,-0.17 -0.339,-0.17 -0.383,-0.17 -0.36,-0.17 -0.403,-0.148 -0.403,-0.17 -0.425,-0.17 -0.425,-0.148 -0.467,-0.148 -0.488,-0.17 -0.51,-0.17 -0.53,-0.148 -0.553,-0.17 -0.594,-0.17 -0.616,-0.191 -0.658,-0.17 -0.679,-0.189 -0.723,-0.191 -0.764,-0.191 -0.807,-0.213 -0.85,-0.213 -0.892,-0.232 -0.934,-0.234 -0.998,-0.254 -1.04,-0.256 -1.083,-0.254 -1.125,-0.275 -1.21,-0.297 -1.253,-0.318 -1.295,-0.32 -1.38,-0.338 -1.443,-0.361 -0.722,-0.17 -0.723,-0.191 -0.7,-0.17 -0.68,-0.191 -0.658,-0.191 -0.637,-0.17 -0.637,-0.211 -0.595,-0.191 -0.594,-0.191 -0.552,-0.191 -0.553,-0.211 -0.53,-0.213 -0.51,-0.213 -0.488,-0.232 -0.467,-0.213 -0.446,-0.256 -0.424,-0.232 -0.425,-0.256 -0.403,-0.254 -0.361,-0.254 -0.36,-0.277 -0.34,-0.297 -0.318,-0.297 -0.298,-0.297 -0.275,-0.318 -0.276,-0.34 -0.233,-0.34 -0.233,-0.34 -0.213,-0.361 -0.19,-0.381 -0.17,-0.383 -0.148,-0.424 -0.148,-0.404 -0.106,-0.445 -0.106,-0.447 -0.085,-0.467 -0.063,-0.488 -0.043,-0.488 -0.021,-0.529 -0.021,-0.531 0.021,-0.615 0.042,-0.617 0.063,-0.594 0.085,-0.594 0.106,-0.574 0.148,-0.551 0.148,-0.531 0.191,-0.531 0.212,-0.531 0.234,-0.488 0.254,-0.488 0.276,-0.467 0.297,-0.445 0.34,-0.445 0.34,-0.426 0.382,-0.402 0.383,-0.404 0.424,-0.381 0.446,-0.361 0.446,-0.34 0.488,-0.34 0.509,-0.318 0.51,-0.297 0.552,-0.275 0.573,-0.277 0.573,-0.232 0.616,-0.234 0.637,-0.232 0.637,-0.191 0.68,-0.191 0.679,-0.17 0.701,-0.148 0.742,-0.127 0.743,-0.107 0.765,-0.105 0.785,-0.086 0.807,-0.062 0.807,-0.043 0.85,-0.021 0.87,-0.021 0.595,0.021 h 0.595 l 0.594,0.021 0.616,0.043 0.595,0.043 0.615,0.041 0.595,0.064 0.594,0.064 0.595,0.084 0.595,0.105 0.573,0.107 0.573,0.127 0.573,0.148 0.552,0.148 0.552,0.17 0.552,0.191 0.531,0.213 0.51,0.232 0.509,0.234 0.488,0.254 0.488,0.297 0.468,0.299 0.445,0.318 0.425,0.338 0.403,0.361 0.403,0.404 0.382,0.402 0.34,0.447 0.34,0.445 0.318,0.488 0.297,0.51 0.255,0.529 0.233,0.574 0.233,0.594 0.17,0.615 0.17,0.639 0.128,0.678 0.127,0.723 0.063,0.723 0.043,0.764 c 0.19,0 0.34,0 0.34,0 0.17,0 0.382,0 0.382,0 h 0.255 0.275 0.298 0.318 0.36 0.361 0.382 0.403 0.425 0.425 0.425 0.445 0.446 0.445 0.446 0.445 0.446 0.425 0.424 0.425 0.403 0.383 0.36 0.361 0.318 0.297 0.276 0.233 c 0.212,0 0.403,0 0.403,0 0.148,0 0.255,0 0.255,0 0.085,0 0.042,-0.275 0.042,-0.275 l -0.021,-0.277 -0.021,-0.275 -0.043,-0.297 -0.021,-0.318 -0.021,-0.297 -0.043,-0.32 -0.021,-0.318 -0.043,-0.318 -0.042,-0.34 -0.043,-0.338 -0.042,-0.34 -0.043,-0.34 -0.063,-0.361 -0.043,-0.34 -0.063,-0.361 -0.085,-0.361 -0.085,-0.359 -0.085,-0.361 -0.085,-0.383 -0.105,-0.361 -0.106,-0.381 -0.127,-0.361 -0.128,-0.383 -0.127,-0.381 -0.148,-0.361 -0.17,-0.383 -0.17,-0.381 -0.191,-0.383 -0.191,-0.383 -0.212,-0.381 -0.212,-0.361 -0.255,-0.383 -0.233,-0.381 -0.276,-0.361 -0.276,-0.383 -0.297,-0.381 -0.318,-0.361 -0.34,-0.361 -0.36,-0.361 -0.468,-0.531 -0.509,-0.508 -0.531,-0.488 -0.53,-0.469 -0.553,-0.424 -0.552,-0.424 -0.573,-0.404 -0.594,-0.383 -0.595,-0.338 -0.616,-0.34 -0.594,-0.318 -0.637,-0.299 -0.616,-0.297 -0.637,-0.254 -0.637,-0.256 -0.637,-0.232 -0.638,-0.213 -0.657,-0.191 -0.638,-0.191 -0.637,-0.168 -0.658,-0.17 -0.637,-0.15 -0.637,-0.127 -0.616,-0.127 -0.637,-0.105 -0.615,-0.107 -0.616,-0.084 -0.594,-0.086 -0.595,-0.062 -0.595,-0.064 -0.573,-0.043 -0.573,-0.041 -0.53,-0.043 -0.531,-0.021 -0.53,-0.043 h -0.51 l -0.488,-0.021 -0.467,-0.02 h -0.446 -0.424 l -1.168,0.02 -1.168,0.043 -1.167,0.064 -1.146,0.084 -1.146,0.129 -1.146,0.148 -1.146,0.189 -1.125,0.213 -1.104,0.234 -1.104,0.275 -1.083,0.275 -1.062,0.34 -1.062,0.34 -1.04,0.383 -0.998,0.424 -0.997,0.445 -0.977,0.469 -0.935,0.508 -0.913,0.531 -0.892,0.574 -0.87,0.594 -0.828,0.615 -0.785,0.658 -0.765,0.701 -0.743,0.721 -0.679,0.744 -0.658,0.785 -0.616,0.828 -0.573,0.85 -0.53,0.869 -0.488,0.914 -0.446,0.955 -0.403,0.977 -0.339,1.02 -0.298,1.039 -0.255,1.084 -0.19,1.125 -0.148,1.146 -0.085,1.188 -0.021,1.211 v 0.424 0.426 l 0.021,0.424 0.021,0.424 0.043,0.426 0.042,0.424 0.043,0.447 0.042,0.424 0.063,0.424 0.085,0.426 0.064,0.424 0.105,0.424 0.106,0.426 0.106,0.424 0.105,0.426 0.149,0.424 0.148,0.424 0.148,0.426 0.17,0.424 0.17,0.404 0.19,0.424 0.213,0.404 0.233,0.402 0.233,0.404 0.233,0.402 0.276,0.404 0.275,0.402 0.276,0.383 0.318,0.402 0.318,0.383 0.34,0.383 0.361,0.361 0.36,0.381 0.403,0.361 0.403,0.361 0.425,0.361 0.446,0.338 0.445,0.361 0.488,0.34 0.488,0.34 0.34,0.234 0.34,0.232 0.34,0.213 0.339,0.213 0.361,0.211 0.361,0.213 0.36,0.191 0.382,0.211 0.383,0.191 0.403,0.17 0.403,0.191 0.425,0.17 0.424,0.191 0.425,0.17 0.446,0.17 0.467,0.17 0.467,0.17 0.51,0.17 0.488,0.17 0.51,0.148 0.53,0.17 0.552,0.17 0.573,0.17 0.573,0.17 0.595,0.168 0.615,0.17 0.638,0.17 0.637,0.17 0.679,0.191 0.68,0.191 0.722,0.17 0.722,0.191 0.743,0.191 0.786,0.211 0.785,0.213 0.828,0.213 0.828,0.211 0.87,0.213 0.892,0.234 0.913,0.232 0.827,0.191 0.828,0.17 0.807,0.191 0.786,0.17 0.764,0.191 0.765,0.17 0.743,0.189 0.722,0.191 0.722,0.191 0.68,0.213 0.679,0.191 0.658,0.211 0.637,0.213 0.616,0.234 0.615,0.232 0.573,0.256 0.573,0.232 0.531,0.275 0.53,0.277 0.51,0.297 0.488,0.297 0.445,0.297 0.446,0.34 0.425,0.34 0.382,0.361 0.382,0.381 0.34,0.383 0.34,0.404 0.297,0.445 0.276,0.445 0.255,0.467 0.233,0.488 0.191,0.51 0.19,0.531 0.148,0.553 0.128,0.572 0.085,0.615 0.063,0.615 0.043,0.658 0.021,0.68 v 0.318 l -0.021,0.34 -0.021,0.361 -0.043,0.383 -0.042,0.402 -0.063,0.404 -0.085,0.445 -0.106,0.445 -0.106,0.445 -0.148,0.469 -0.148,0.488 -0.191,0.488 -0.19,0.488 -0.213,0.508 -0.255,0.488 -0.275,0.488 -0.298,0.51 -0.339,0.488 -0.361,0.488 -0.382,0.488 -0.425,0.488 -0.446,0.467 -0.488,0.469 -0.509,0.445 -0.573,0.424 -0.573,0.404 -0.637,0.402 -0.68,0.383 -0.7,0.361 -0.765,0.34 -0.785,0.297 -0.85,0.297 -0.87,0.254 -0.935,0.234 -0.977,0.191 -1.04,0.17 -1.062,0.127 -1.125,0.105 -1.189,0.064 -1.21,0.021 -1.38,-0.021 -1.316,-0.064 -1.23,-0.105 -1.189,-0.127 -1.125,-0.17 -1.062,-0.191 -0.998,-0.234 -0.934,-0.275 -0.892,-0.275 -0.85,-0.318 -0.785,-0.361 -0.743,-0.361 -0.68,-0.381 -0.658,-0.426 -0.594,-0.424 -0.552,-0.447 -0.51,-0.467 -0.467,-0.488 -0.446,-0.488 -0.403,-0.51 -0.361,-0.508 -0.339,-0.531 -0.298,-0.531 -0.255,-0.551 -0.233,-0.553 -0.212,-0.531 -0.191,-0.551 -0.17,-0.553 -0.148,-0.553 -0.106,-0.529 -0.105,-0.553 -0.085,-0.531 -0.063,-0.529 -0.064,-0.51 -0.042,-0.51 -0.021,-0.51 -0.021,-0.467 -0.021,-0.467 v -0.447 -0.445 h -11.943 z"
   stroke-miterlimit="10"
   inkscape:connector-curvature="0" />
</g><g
     style="fill:#000000;fill-opacity:1;stroke:none"
     id="LWPOLYLINE_4_">
	
		<path
   style="fill:#000000;fill-opacity:1;stroke:none"
   id="path16"
   d="m 265.281,303.396 c 0.17,0 0.276,0 0.276,0 0.148,0 0.318,0 0.318,0 0.191,0 0.425,0 0.425,0 h 0.233 0.275 0.276 0.297 0.298 0.318 0.34 0.34 0.36 0.361 0.36 0.361 0.36 0.361 0.34 0.36 0.34 0.34 0.318 0.318 0.297 0.276 0.255 0.255 0.212 c 0.191,0 0.361,0 0.361,0 0.148,0 0.255,0 0.255,0 0.17,-0.191 0.17,-0.402 0.17,-0.402 v -0.277 -0.359 -0.447 -0.488 -0.551 -0.617 -0.658 -0.699 -0.744 -0.785 -0.807 -0.85 -0.869 -0.871 -0.912 -0.893 -0.912 -0.914 -0.912 -0.893 -0.869 -0.871 -0.85 -0.807 -0.785 -0.742 -0.701 -0.658 -0.615 -0.553 -0.488 -0.445 -0.361 -0.297 c 0,-0.213 0,-0.34 0,-0.34 0.169,-0.043 0.382,-0.043 0.382,-0.043 h 0.275 0.383 0.425 0.488 0.552 0.594 0.658 0.701 0.743 0.785 0.807 0.828 0.849 0.893 0.892 0.892 0.912 0.892 0.892 0.893 0.892 0.849 0.828 0.807 0.785 0.743 0.701 0.658 0.594 0.552 0.488 0.446 0.34 0.297 c 0.213,0 0.34,0 0.34,0 0.042,-0.127 0.042,-0.232 0.042,-0.232 0,-0.127 0,-0.277 0,-0.277 0,-0.168 0,-0.359 0,-0.359 0,-0.213 0,-0.426 0,-0.426 v -0.254 -0.256 -0.275 -0.275 -0.275 -0.32 -0.297 -0.297 -0.318 -0.318 -0.318 -0.297 -0.318 -0.297 -0.299 -0.297 -0.275 -0.275 -0.256 -0.232 -0.234 c 0,-0.213 0,-0.402 0,-0.402 0,-0.17 0,-0.318 0,-0.318 0,-0.129 0,-0.213 0,-0.213 -0.169,-0.148 -0.382,-0.148 -0.382,-0.148 h -0.297 -0.34 -0.446 -0.488 -0.552 -0.594 -0.658 -0.701 -0.743 -0.785 -0.807 -0.828 -0.849 -0.892 -0.893 -0.892 -0.892 -0.912 -0.892 -0.892 -0.893 -0.849 -0.828 -0.807 -0.785 -0.743 -0.701 -0.658 -0.594 -0.552 -0.488 -0.425 -0.383 -0.275 c -0.213,0 -0.34,0 -0.34,0 -0.042,-0.17 -0.042,-0.383 -0.042,-0.383 v -0.275 -0.361 -0.424 -0.488 -0.553 -0.594 -0.637 -0.701 -0.744 -0.764 -0.807 -0.828 -0.85 -0.869 -0.871 -0.891 -0.893 -0.891 -0.893 -0.893 -0.869 -0.85 -0.828 -0.785 -0.785 -0.723 -0.703 -0.639 -0.615 -0.531 -0.488 -0.424 -0.361 -0.297 c 0,-0.191 0,-0.34 0,-0.34 -0.17,-0.043 -0.276,-0.043 -0.276,-0.043 -0.148,0 -0.318,0 -0.318,0 -0.191,0 -0.403,0 -0.403,0 h -0.255 -0.255 -0.276 -0.297 -0.318 -0.318 -0.34 -0.34 -0.36 -0.34 -0.361 -0.36 -0.361 -0.36 -0.361 -0.36 -0.34 -0.34 -0.318 -0.298 -0.297 -0.276 -0.275 -0.233 -0.233 c -0.191,0 -0.361,0 -0.361,0 -0.148,0 -0.255,0 -0.255,0 -0.17,0.191 -0.17,0.383 -0.17,0.383 v 0.297 0.361 0.424 0.488 0.531 0.615 0.639 0.699 0.723 0.785 0.785 0.828 0.85 0.869 0.893 0.893 0.891 0.893 0.891 0.871 0.869 0.85 0.828 0.807 0.764 0.744 0.701 0.637 0.594 0.553 0.488 0.424 0.361 0.275 c 0,0.213 0,0.34 0,0.34 -0.17,0.043 -0.382,0.043 -0.382,0.043 h -0.297 -0.361 -0.445 -0.488 -0.573 -0.616 -0.658 -0.7 -0.765 -0.785 -0.828 -0.85 -0.87 -0.892 -0.892 -0.934 -0.913 -0.913 -0.913 -0.913 -0.892 -0.87 -0.849 -0.808 -0.807 -0.743 -0.722 -0.658 -0.615 -0.552 -0.51 -0.425 -0.382 -0.297 c -0.213,0 -0.34,0 -0.34,0 -0.043,0.148 -0.043,0.232 -0.043,0.232 0,0.129 0,0.277 0,0.277 0,0.17 0,0.359 0,0.359 0,0.213 0,0.447 0,0.447 v 0.232 0.256 0.275 0.275 0.297 0.299 0.297 0.318 0.297 0.318 0.318 0.318 0.297 0.297 0.32 0.275 0.275 0.275 0.256 0.254 0.213 c 0,0.213 0,0.404 0,0.404 0,0.168 0,0.318 0,0.318 0,0.127 0,0.232 0,0.232 0.17,0.127 0.383,0.127 0.383,0.127 h 0.297 0.382 0.425 0.51 0.552 0.615 0.658 0.722 0.743 0.807 0.808 0.849 0.87 0.892 0.913 0.913 0.913 0.913 0.934 0.892 0.892 0.87 0.85 0.828 0.785 0.765 0.7 0.658 0.616 0.573 0.488 0.445 0.361 0.297 c 0.212,0 0.34,0 0.34,0 0.041,0.002 0.041,24.289 0.041,24.289 z"
   stroke-miterlimit="10"
   inkscape:connector-curvature="0" />
</g><g
     style="fill:#000000;fill-opacity:1;stroke:none"
     id="LWPOLYLINE_5_">
	
		<path
   style="fill:#000000;fill-opacity:1;stroke:none"
   id="path19"
   d="m 180.852,646 c 0.127,0 0.318,0 0.318,0 h 0.233 0.297 0.361 0.403 0.445 0.51 0.531 0.594 0.595 0.658 0.658 0.7 0.701 0.722 0.743 0.743 0.742 0.743 0.743 0.743 0.722 0.722 0.68 0.68 0.637 0.615 0.573 0.552 0.488 0.468 0.403 0.36 0.298 0.233 c 0.17,0 0.275,0 0.275,0 0.043,0 0.043,-0.254 0.043,-0.254 v -0.766 -1.273 -1.74 -2.123 -2.547 -2.93 -3.27 -3.609 -3.906 -4.162 -4.414 -4.629 -4.797 -4.969 -5.096 -5.223 -5.307 -5.35 -5.393 -5.35 -5.35 -5.309 -5.223 -5.094 -4.969 -4.797 -4.629 -4.416 -4.16 -3.906 -3.609 -3.27 -2.93 -2.547 -2.166 -1.697 -1.275 -0.764 -0.254 c -0.128,0 -0.298,0 -0.298,0 h -0.212 -0.297 -0.318 -0.383 -0.424 -0.446 -0.51 -0.53 -0.573 -0.593 -0.615 -0.637 -0.658 -0.68 -0.68 -0.679 -0.701 -0.7 -0.68 -0.679 -0.68 -0.658 -0.637 -0.616 -0.594 -0.573 -0.531 -0.509 -0.446 -0.425 -0.382 -0.318 -0.298 -0.212 c -0.17,0 -0.255,0 -0.255,0 -0.042,0 -0.658,0.551 -0.658,0.551 l -0.637,0.553 -0.658,0.551 -0.7,0.553 -0.701,0.594 -0.722,0.553 -0.743,0.594 -0.742,0.596 -0.786,0.551 -0.785,0.596 -0.807,0.594 -0.828,0.594 -0.828,0.596 -0.849,0.594 -0.871,0.594 -0.892,0.596 -0.87,0.594 -0.913,0.594 -0.913,0.596 -0.912,0.551 -0.935,0.596 -0.955,0.594 -0.935,0.594 -0.977,0.596 -0.955,0.551 -0.977,0.596 -0.977,0.594 -0.977,0.553 -0.998,0.551 -0.977,0.596 -0.997,0.551 -0.998,0.553 -0.998,0.553 -1.019,0.508 -0.998,0.553 -0.998,0.51 -0.998,0.551 -1.019,0.51 -0.998,0.51 -0.998,0.467 c 0,0.17 0,0.34 0,0.34 v 0.256 0.297 0.383 0.381 0.467 0.553 0.553 0.594 0.637 0.637 0.68 0.721 0.723 0.764 0.766 0.764 0.764 0.766 0.764 0.764 0.723 0.721 0.723 0.68 0.678 0.639 0.594 0.553 0.508 0.469 0.424 0.34 0.297 0.254 c 0,0.17 0,0.299 0,0.299 0,0.041 0.786,-0.299 0.786,-0.299 l 0.807,-0.338 0.807,-0.383 0.807,-0.383 0.828,-0.381 0.849,-0.426 0.85,-0.424 0.85,-0.426 0.87,-0.467 0.87,-0.467 0.892,-0.467 0.87,-0.467 0.893,-0.51 0.892,-0.51 0.892,-0.51 0.912,-0.51 0.892,-0.508 0.913,-0.553 0.892,-0.553 0.913,-0.551 0.892,-0.51 0.892,-0.596 0.892,-0.551 0.892,-0.553 0.892,-0.594 0.871,-0.553 0.892,-0.551 0.87,-0.596 0.849,-0.594 0.85,-0.553 0.85,-0.594 0.827,-0.553 0.828,-0.594 0.807,-0.553 0.807,-0.594 0.786,-0.551 0.764,-0.553 0.765,-0.594 0.743,-0.553 0.743,-0.553 V 646 z"
   stroke-miterlimit="10"
   inkscape:connector-curvature="0" />
</g><g
     style="fill:#000000;fill-opacity:1;stroke:none"
     id="LWPOLYLINE_6_">
	
		<path
   style="fill:#000000;fill-opacity:1;stroke:none"
   id="path22"
   d="m 255.559,646 c 0.17,0 0.382,0 0.382,0 h 0.276 0.36 0.425 0.467 0.531 0.594 0.638 0.679 0.722 0.765 0.785 0.807 0.85 0.85 0.87 0.87 0.87 0.893 0.87 0.87 0.85 0.828 0.827 0.786 0.743 0.722 0.679 0.658 0.573 0.531 0.488 0.424 0.34 0.276 c 0.212,0 0.34,0 0.34,0 0.042,-0.17 0.042,-0.424 0.042,-0.424 v -0.297 -0.383 -0.424 -0.51 -0.596 -0.637 -0.68 -0.721 -0.764 -0.807 -0.85 -0.893 -0.891 -0.936 -0.934 -0.934 -0.934 -0.936 -0.934 -0.934 -0.934 -0.893 -0.891 -0.807 -0.85 -0.766 -0.721 -0.68 -0.637 -0.594 -0.51 -0.426 -0.381 -0.297 -0.256 c -0.17,-0.17 -0.382,-0.17 -0.382,-0.17 h -0.276 -0.34 -0.424 -0.488 -0.531 -0.573 -0.658 -0.679 -0.722 -0.743 -0.786 -0.827 -0.828 -0.85 -0.87 -0.87 -0.893 -0.87 -0.87 -0.87 -0.85 -0.85 -0.807 -0.785 -0.765 -0.722 -0.679 -0.638 -0.594 -0.531 -0.467 -0.425 -0.36 -0.276 c -0.212,0 -0.34,0 -0.34,0 -0.042,0.011 -0.042,25.232 -0.042,25.232 z"
   stroke-miterlimit="10"
   inkscape:connector-curvature="0" />
</g><g
     style="fill:#000000;fill-opacity:1;stroke:none"
     id="LWPOLYLINE_7_">
	
		<path
   style="fill:#000000;fill-opacity:1;stroke:none"
   id="path25"
   d="m 320.775,646 c 0.17,0 0.383,0 0.383,0 h 0.297 0.34 0.425 0.467 0.552 0.595 0.637 0.68 0.722 0.722 0.807 0.807 0.85 0.849 0.85 0.892 0.892 0.849 0.892 0.85 0.85 0.849 0.807 0.807 0.765 0.722 0.68 0.637 0.595 0.509 0.51 0.382 0.383 0.255 c 0.212,0 0.339,0 0.339,0 0.043,-0.17 0.043,-0.424 0.043,-0.424 v -0.297 -0.383 -0.424 -0.51 -0.596 -0.637 -0.68 -0.721 -0.764 -0.807 -0.85 -0.893 -0.891 -0.936 -0.934 -0.934 -0.934 -0.936 -0.934 -0.934 -0.934 -0.893 -0.891 -0.807 -0.85 -0.766 -0.721 -0.68 -0.637 -0.594 -0.51 -0.426 -0.381 -0.297 -0.256 c -0.17,-0.17 -0.382,-0.17 -0.382,-0.17 h -0.255 -0.383 -0.382 -0.51 -0.509 -0.595 -0.637 -0.68 -0.722 -0.765 -0.807 -0.807 -0.849 -0.85 -0.85 -0.892 -0.849 -0.892 -0.892 -0.85 -0.849 -0.85 -0.807 -0.807 -0.722 -0.722 -0.68 -0.637 -0.595 -0.552 -0.467 -0.425 -0.34 -0.297 c -0.213,0 -0.34,0 -0.34,0 -0.043,0.011 -0.043,25.232 -0.043,25.232 z"
   stroke-miterlimit="10"
   inkscape:connector-curvature="0" />
</g><g
     style="fill:#000000;fill-opacity:1;stroke:none"
     id="LWPOLYLINE_8_">
	
		<path
   style="fill:#000000;fill-opacity:1;stroke:none"
   id="path28"
   d="m 401.66,646 c 0.128,0 0.298,0 0.298,0 h 0.255 0.297 0.34 0.425 0.424 0.51 0.552 0.553 0.637 0.637 0.637 0.68 0.722 0.722 0.722 0.765 0.722 0.764 0.723 0.722 0.722 0.722 0.68 0.679 0.637 0.595 0.595 0.51 0.509 0.468 0.382 0.382 0.298 0.212 c 0.17,0 0.297,0 0.297,0 0.043,-0.084 0.043,-0.424 0.043,-0.424 v -0.467 -0.68 -0.85 -1.02 -1.146 -1.273 -1.443 -1.529 -1.613 -1.74 -1.826 -1.867 -1.953 -2.039 -2.037 -2.08 -2.082 -2.123 -2.123 -2.123 -2.08 -2.037 -1.996 -1.953 -1.91 -1.826 -1.699 -1.654 -1.529 -1.4 -1.316 -1.146 -0.977 -0.85 -0.68 -0.51 -0.297 c 0,-0.127 0,-0.553 0,-0.553 v -0.467 -0.467 -0.51 -0.51 -0.508 -0.51 -0.553 l 0.042,-0.551 v -0.553 -0.594 l 0.043,-0.553 0.042,-0.594 v -0.596 l 0.043,-0.594 0.042,-0.594 0.043,-0.596 0.085,-0.594 0.042,-0.594 0.043,-0.596 0.085,-0.637 0.084,-0.594 0.085,-0.596 0.085,-0.594 0.128,-0.594 0.085,-0.596 0.127,-0.594 0.128,-0.594 0.17,-0.553 0.127,-0.553 0.17,-0.594 0.17,-0.553 0.17,-0.508 0.212,-0.553 0.213,-0.51 0.212,-0.51 0.212,-0.467 0.255,-0.51 0.255,-0.467 0.255,-0.424 0.17,-0.34 0.212,-0.34 0.213,-0.383 0.212,-0.381 0.255,-0.383 0.297,-0.424 0.298,-0.383 0.297,-0.424 0.34,-0.426 0.34,-0.424 0.382,-0.467 0.425,-0.426 0.424,-0.424 0.425,-0.467 0.467,-0.426 0.51,-0.424 0.51,-0.424 0.51,-0.426 0.594,-0.424 0.553,-0.426 0.594,-0.424 0.637,-0.383 0.68,-0.381 0.637,-0.383 0.722,-0.383 0.723,-0.34 0.764,-0.338 0.765,-0.299 0.807,-0.297 0.807,-0.297 0.85,-0.254 0.892,-0.213 0.892,-0.213 0.934,-0.213 0.935,-0.168 0.977,-0.129 1.019,-0.084 1.02,-0.086 1.062,-0.041 1.104,-0.043 1.613,0.043 1.528,0.127 1.444,0.17 1.358,0.254 1.316,0.297 1.231,0.34 1.146,0.426 1.104,0.51 1.019,0.508 0.977,0.596 0.893,0.594 0.807,0.68 0.807,0.723 0.722,0.721 0.679,0.764 0.595,0.85 0.595,0.807 0.51,0.893 0.467,0.891 0.467,0.893 0.382,0.934 0.34,0.934 0.34,0.977 0.255,0.977 0.255,0.936 0.212,0.977 0.213,0.977 0.127,0.977 0.17,0.977 0.085,0.977 0.127,0.934 0.043,0.977 0.085,0.891 0.042,0.936 v 0.848 l 0.043,0.893 v 0.807 0.807 0.764 0.723 c 0,0.127 0,0.467 0,0.467 v 0.553 0.721 0.934 1.146 1.232 1.443 1.57 1.699 1.783 1.91 1.996 2.123 2.123 2.25 2.25 2.293 2.336 2.334 2.336 2.293 2.293 2.293 2.207 2.166 2.08 1.996 1.91 1.826 1.697 1.529 1.443 1.273 1.105 0.934 0.721 0.553 0.34 c 0.17,0.127 0.34,0.127 0.34,0.127 h 0.212 0.297 0.383 0.382 0.467 0.51 0.51 0.594 0.595 0.637 0.68 0.68 0.722 0.722 0.722 0.722 0.765 0.722 0.764 0.723 0.722 0.722 0.679 0.638 0.637 0.637 0.552 0.552 0.51 0.425 0.425 0.34 0.297 0.255 c 0.17,0 0.255,0 0.255,0 0.042,-0.127 0.042,-0.467 0.042,-0.467 v -0.594 -0.766 -1.018 -1.146 -1.359 -1.529 -1.613 -1.824 -1.912 -1.994 -2.123 -2.252 -2.25 -2.377 -2.379 -2.42 -2.463 -2.461 -2.506 -2.42 -2.463 -2.377 -2.379 -2.25 -2.207 -2.123 -2.039 -1.91 -1.783 -1.656 -1.529 -1.314 -1.189 -0.977 -0.807 -0.596 -0.338 c 0,-0.129 0,-1.275 0,-1.275 v -1.061 -1.062 l -0.042,-1.018 v -1.02 l -0.043,-0.934 -0.042,-0.936 -0.043,-0.891 -0.042,-0.85 -0.043,-0.85 -0.042,-0.764 -0.085,-0.764 -0.043,-0.766 -0.085,-0.678 -0.042,-0.68 -0.085,-0.68 -0.085,-0.637 -0.085,-0.596 -0.085,-0.594 -0.127,-0.551 -0.085,-0.553 -0.085,-0.51 -0.128,-0.51 -0.085,-0.467 -0.127,-0.467 -0.128,-0.424 -0.127,-0.426 -0.127,-0.424 -0.128,-0.383 -0.127,-0.383 -0.128,-0.338 -0.127,-0.383 -0.17,-0.34 -0.128,-0.297 -0.169,-0.34 -0.128,-0.297 -0.17,-0.297 -0.17,-0.299 -0.127,-0.297 -0.17,-0.254 -0.467,-0.936 -0.51,-0.891 -0.51,-0.85 -0.594,-0.85 -0.595,-0.764 -0.637,-0.807 -0.638,-0.723 -0.679,-0.721 -0.722,-0.68 -0.722,-0.68 -0.765,-0.637 -0.807,-0.594 -0.807,-0.596 -0.807,-0.551 -0.85,-0.553 -0.849,-0.51 -0.892,-0.467 -0.85,-0.467 -0.892,-0.424 -0.935,-0.426 -0.892,-0.381 -0.934,-0.34 -0.935,-0.34 -0.892,-0.34 -0.934,-0.297 -0.935,-0.256 -0.934,-0.254 -0.935,-0.256 -0.934,-0.211 -0.892,-0.17 -0.935,-0.17 -0.892,-0.17 -0.892,-0.127 -0.892,-0.129 -0.85,-0.084 -0.892,-0.084 -0.807,-0.043 -0.849,-0.043 -0.807,-0.043 h -0.765 -1.062 l -1.019,0.043 -1.062,0.086 -1.02,0.084 -1.019,0.084 -1.02,0.129 -1.019,0.17 -1.02,0.17 -1.019,0.211 -0.977,0.213 -0.977,0.254 -0.977,0.299 -0.977,0.254 -0.977,0.34 -0.935,0.34 -0.934,0.34 -0.935,0.381 -0.892,0.426 -0.934,0.424 -0.892,0.426 -0.85,0.467 -0.85,0.467 -0.849,0.51 -0.85,0.551 -0.807,0.51 -0.807,0.596 -0.764,0.551 -0.765,0.596 -0.765,0.637 -0.722,0.637 -0.679,0.68 -0.68,0.678 -0.68,0.68 -0.637,0.723 -0.637,0.721 -0.595,0.766 -0.595,0.764 -0.552,0.764 -0.509,0.807 -0.51,0.807 c 0,-0.084 -0.043,-0.211 -0.043,-0.211 0,-0.213 0,-0.426 0,-0.426 v -0.254 l -0.042,-0.297 v -0.34 l -0.043,-0.383 v -0.383 l -0.042,-0.424 v -0.467 l -0.043,-0.467 v -0.467 l -0.042,-0.51 v -0.51 l -0.043,-0.553 -0.042,-0.551 v -0.553 l -0.043,-0.553 -0.042,-0.508 v -0.553 l -0.042,-0.553 -0.043,-0.551 v -0.51 l -0.042,-0.51 v -0.467 l -0.043,-0.51 v -0.424 l -0.042,-0.426 v -0.381 l -0.043,-0.383 v -0.34 l -0.042,-0.297 v -0.256 -0.195 c 0,-0.17 -0.043,-0.34 -0.043,-0.34 -0.127,-0.086 -0.297,-0.086 -0.297,-0.086 h -0.213 -0.297 -0.34 -0.382 -0.425 -0.51 -0.509 -0.553 -0.594 -0.595 -0.637 -0.68 -0.679 -0.68 -0.722 -0.722 -0.68 -0.722 -0.722 -0.722 -0.68 -0.68 -0.679 -0.637 -0.595 -0.595 -0.552 -0.51 -0.467 -0.467 -0.383 -0.339 -0.298 -0.212 c -0.17,0 -0.255,0 -0.255,0 -0.043,0 -0.043,0.34 -0.043,0.34 v 0.34 0.34 0.34 0.34 0.34 0.34 0.34 0.34 0.338 0.383 0.34 0.34 0.383 0.338 0.34 0.383 0.34 0.34 0.383 0.338 0.383 0.337 0.383 0.34 0.338 0.383 0.34 0.34 0.34 0.383 0.338 0.34 0.34 0.34 0.34 0.34 0.34 0.34 0.34 V 646 z"
   stroke-miterlimit="10"
   inkscape:connector-curvature="0" />
</g></g>
</svg>