<?xml version="1.0" encoding="UTF-8" standalone="no"?>
<!-- Generator: Adobe Illustrator 16.0.1, SVG Export Plug-In . SVG Version: 6.00 Build 0)  -->

<svg
   xmlns:dc="http://purl.org/dc/elements/1.1/"
   xmlns:cc="http://creativecommons.org/ns#"
   xmlns:rdf="http://www.w3.org/1999/02/22-rdf-syntax-ns#"
   xmlns:svg="http://www.w3.org/2000/svg"
   xmlns="http://www.w3.org/2000/svg"
   xmlns:xlink="http://www.w3.org/1999/xlink"
   xmlns:sodipodi="http://sodipodi.sourceforge.net/DTD/sodipodi-0.dtd"
   xmlns:inkscape="http://www.inkscape.org/namespaces/inkscape"
   version="1.0"
   id="_x31_"
   x="0px"
   y="0px"
   width="350"
   height="350"
   viewBox="0 0 350 350"
   enable-background="new 0 0 612 792"
   xml:space="preserve"
   inkscape:version="0.48.3.1 r9886"
   sodipodi:docname="6002.svg"><metadata
   id="metadata19"><rdf:RDF><cc:Work
       rdf:about=""><dc:format>image/svg+xml</dc:format><dc:type
         rdf:resource="http://purl.org/dc/dcmitype/StillImage" /></cc:Work></rdf:RDF></metadata><defs
   id="defs17"><radialGradient
     r="333.18735"
     fy="467.91885"
     fx="373.24265"
     cy="467.91885"
     cx="373.24265"
     gradientTransform="matrix(0.83535069,2.5391116e-7,-2.4564601e-7,0.80815885,-725.97492,-115.98714)"
     gradientUnits="userSpaceOnUse"
     id="radialGradient4460"
     xlink:href="#linearGradient5443"
     inkscape:collect="always" /><linearGradient
     y2="254.73526"
     x2="123.47623"
     y1="344.03848"
     x1="123.50603"
     gradientTransform="matrix(2.3189708,0,0,2.0930998,-543.56606,-225.82362)"
     gradientUnits="userSpaceOnUse"
     id="linearGradient4458"
     xlink:href="#linearGradient3187"
     inkscape:collect="always" /><radialGradient
     r="333.18735"
     fy="710.99164"
     fx="373.24265"
     cy="710.99164"
     cx="373.24265"
     gradientTransform="matrix(0.86272606,1.0667183e-7,-5.1097113e-8,0.31433999,-736.19251,168.72353)"
     gradientUnits="userSpaceOnUse"
     id="radialGradient4456"
     xlink:href="#linearGradient5443"
     inkscape:collect="always" /><radialGradient
     r="333.18735"
     fy="467.91885"
     fx="373.24265"
     cy="467.91885"
     cx="373.24265"
     gradientTransform="matrix(0.83393192,2.4025531e-7,-2.452288e-7,0.76469446,-575.89311,126.3946)"
     gradientUnits="userSpaceOnUse"
     id="radialGradient2894-5"
     xlink:href="#linearGradient5443-0"
     inkscape:collect="always" /><linearGradient
     y2="254.73526"
     x2="123.47623"
     y1="344.03848"
     x1="123.50603"
     gradientTransform="matrix(2.3189708,0,0,2.0930998,-543.56606,-225.82362)"
     gradientUnits="userSpaceOnUse"
     id="linearGradient2892-2"
     xlink:href="#linearGradient3187-1"
     inkscape:collect="always" /><radialGradient
     r="333.18735"
     fy="710.99164"
     fx="373.24265"
     cy="710.99164"
     cx="373.24265"
     gradientTransform="matrix(0.8612608,1.0093481e-7,-5.1010329e-8,0.29743416,-586.09339,395.79293)"
     gradientUnits="userSpaceOnUse"
     id="radialGradient2890-7"
     xlink:href="#linearGradient5443-0"
     inkscape:collect="always" /><linearGradient
     id="linearGradient5443-5-6"><stop
       style="stop-color:#ffffff;stop-opacity:0;"
       offset="0"
       id="stop5445-4-1" /><stop
       style="stop-color:#000000;stop-opacity:0.33962265;"
       offset="1"
       id="stop5447-3-4" /></linearGradient><radialGradient
     r="333.18735"
     fy="710.99164"
     fx="373.24265"
     cy="710.99164"
     cx="373.24265"
     gradientTransform="matrix(0.9503534,1.1750652e-7,-5.6287062e-8,0.3462676,317.80591,185.68771)"
     gradientUnits="userSpaceOnUse"
     id="radialGradient4835-3-2"
     xlink:href="#linearGradient5443-5-6"
     inkscape:collect="always" /><radialGradient
     r="333.18735"
     fy="710.99164"
     fx="373.24265"
     cy="710.99164"
     cx="373.24265"
     gradientTransform="matrix(0.8612608,1.0093481e-7,-5.1010329e-8,0.29743416,-586.09339,395.79293)"
     gradientUnits="userSpaceOnUse"
     id="radialGradient4835-2"
     xlink:href="#linearGradient5443-0"
     inkscape:collect="always" /><radialGradient
     r="333.18735"
     fy="467.91885"
     fx="373.24265"
     cy="467.91885"
     cx="373.24265"
     gradientTransform="matrix(0.83393192,2.4025531e-7,-2.452288e-7,0.76469446,-575.89311,126.3946)"
     gradientUnits="userSpaceOnUse"
     id="radialGradient4832-1"
     xlink:href="#linearGradient5443-0"
     inkscape:collect="always" /><linearGradient
     y2="254.73526"
     x2="123.47623"
     y1="344.03848"
     x1="123.50603"
     gradientTransform="matrix(2.3189708,0,0,2.0930998,-543.56606,-225.82362)"
     gradientUnits="userSpaceOnUse"
     id="linearGradient4827-6"
     xlink:href="#linearGradient3187-1"
     inkscape:collect="always" /><linearGradient
     y2="254.73526"
     x2="123.47623"
     y1="344.03848"
     x1="123.50603"
     gradientTransform="matrix(2.3189708,0,0,2.0930998,93.115298,-256.84999)"
     gradientUnits="userSpaceOnUse"
     id="linearGradient4824-8"
     xlink:href="#linearGradient3187-1"
     inkscape:collect="always" /><radialGradient
     r="333.18735"
     fy="467.91885"
     fx="373.24265"
     cy="467.91885"
     cx="373.24265"
     gradientTransform="matrix(0.9201975,2.7970099e-7,-2.7059634e-7,0.8902438,28.590287,48.634335)"
     gradientUnits="userSpaceOnUse"
     id="radialGradient4822-5"
     xlink:href="#linearGradient3171-6"
     inkscape:collect="always" /><radialGradient
     r="333.18735"
     fy="710.99164"
     fx="373.24265"
     cy="710.99164"
     cx="373.24265"
     gradientTransform="matrix(0.9503534,1.1750652e-7,-5.6287062e-8,0.3462676,17.334826,362.44227)"
     gradientUnits="userSpaceOnUse"
     id="radialGradient4820-7"
     xlink:href="#linearGradient3157-2"
     inkscape:collect="always" /><radialGradient
     r="333.18735"
     fy="710.99164"
     fx="373.24265"
     cy="710.99164"
     cx="373.24265"
     gradientTransform="matrix(0.9503534,1.1750652e-7,-5.6287062e-8,0.3462676,17.334826,362.44227)"
     gradientUnits="userSpaceOnUse"
     id="radialGradient4805-6"
     xlink:href="#linearGradient3157-2"
     inkscape:collect="always" /><radialGradient
     r="333.18735"
     fy="467.91885"
     fx="373.24265"
     cy="467.91885"
     cx="373.24265"
     gradientTransform="matrix(0.9201975,2.7970099e-7,-2.7059634e-7,0.8902438,28.590287,48.634335)"
     gradientUnits="userSpaceOnUse"
     id="radialGradient4802-1"
     xlink:href="#linearGradient3171-6"
     inkscape:collect="always" /><linearGradient
     y2="254.73526"
     x2="123.47623"
     y1="344.03848"
     x1="123.50603"
     gradientTransform="matrix(2.3189708,0,0,2.0930998,93.115298,-256.84999)"
     gradientUnits="userSpaceOnUse"
     id="linearGradient4799-8"
     xlink:href="#linearGradient3187-1"
     inkscape:collect="always" /><linearGradient
     y2="254.73526"
     x2="123.47623"
     y1="344.03848"
     x1="123.50603"
     gradientTransform="matrix(2.3189708,0,0,2.0930998,93.115298,-256.84999)"
     gradientUnits="userSpaceOnUse"
     id="linearGradient4794-9"
     xlink:href="#linearGradient3187-1"
     inkscape:collect="always" /><radialGradient
     r="333.18735"
     fy="467.91885"
     fx="373.24265"
     cy="467.91885"
     cx="373.24265"
     gradientTransform="matrix(0.9201975,2.7970099e-7,-2.7059634e-7,0.8902438,28.590287,48.634335)"
     gradientUnits="userSpaceOnUse"
     id="radialGradient4792-2"
     xlink:href="#linearGradient3171-6"
     inkscape:collect="always" /><radialGradient
     r="333.18735"
     fy="710.99164"
     fx="373.24265"
     cy="710.99164"
     cx="373.24265"
     gradientTransform="matrix(0.9503534,1.1750652e-7,-5.6287062e-8,0.3462676,17.334826,362.44227)"
     gradientUnits="userSpaceOnUse"
     id="radialGradient4790-7"
     xlink:href="#linearGradient3157-2"
     inkscape:collect="always" /><radialGradient
     r="333.18735"
     fy="710.99164"
     fx="373.24265"
     cy="710.99164"
     cx="373.24265"
     gradientTransform="matrix(0.9503534,1.1750652e-7,-5.6287062e-8,0.3462676,17.334826,362.44227)"
     gradientUnits="userSpaceOnUse"
     id="radialGradient4779-9"
     xlink:href="#linearGradient3157-2"
     inkscape:collect="always" /><radialGradient
     r="333.18735"
     fy="467.91885"
     fx="373.24265"
     cy="467.91885"
     cx="373.24265"
     gradientTransform="matrix(0.9201975,2.7970099e-7,-2.7059634e-7,0.8902438,28.590287,48.634335)"
     gradientUnits="userSpaceOnUse"
     id="radialGradient4776-5"
     xlink:href="#linearGradient3171-6"
     inkscape:collect="always" /><linearGradient
     y2="254.73526"
     x2="123.47623"
     y1="344.03848"
     x1="123.50603"
     gradientTransform="matrix(2.3189708,0,0,2.0930998,93.115298,-256.84999)"
     gradientUnits="userSpaceOnUse"
     id="linearGradient4773-4"
     xlink:href="#linearGradient3187-1"
     inkscape:collect="always" /><linearGradient
     y2="254.73526"
     x2="123.47623"
     y1="344.03848"
     x1="123.50603"
     gradientTransform="matrix(2.3189708,0,0,2.0930998,93.115298,-256.84999)"
     gradientUnits="userSpaceOnUse"
     id="linearGradient4770-3"
     xlink:href="#linearGradient3187-1"
     inkscape:collect="always" /><radialGradient
     r="333.18735"
     fy="467.91885"
     fx="373.24265"
     cy="467.91885"
     cx="373.24265"
     gradientTransform="matrix(0.9201975,2.7970099e-7,-2.7059634e-7,0.8902438,28.590287,48.634335)"
     gradientUnits="userSpaceOnUse"
     id="radialGradient4768-1"
     xlink:href="#linearGradient3171-6"
     inkscape:collect="always" /><radialGradient
     r="333.18735"
     fy="710.99164"
     fx="373.24265"
     cy="710.99164"
     cx="373.24265"
     gradientTransform="matrix(0.9503534,1.1750652e-7,-5.6287062e-8,0.3462676,17.334826,362.44227)"
     gradientUnits="userSpaceOnUse"
     id="radialGradient4766-2"
     xlink:href="#linearGradient3157-2"
     inkscape:collect="always" /><radialGradient
     r="333.18735"
     fy="710.99164"
     fx="373.24265"
     cy="710.99164"
     cx="373.24265"
     gradientTransform="matrix(0.9503534,1.1750652e-7,-5.6287062e-8,0.3462676,17.334826,362.44227)"
     gradientUnits="userSpaceOnUse"
     id="radialGradient4572-4"
     xlink:href="#linearGradient3157-2"
     inkscape:collect="always" /><radialGradient
     r="333.18735"
     fy="467.91885"
     fx="373.24265"
     cy="467.91885"
     cx="373.24265"
     gradientTransform="matrix(0.9201975,2.7970099e-7,-2.7059634e-7,0.8902438,28.590287,48.634335)"
     gradientUnits="userSpaceOnUse"
     id="radialGradient4569-1"
     xlink:href="#linearGradient3171-6"
     inkscape:collect="always" /><linearGradient
     y2="254.73526"
     x2="123.47623"
     y1="344.03848"
     x1="123.50603"
     gradientTransform="matrix(2.3189708,0,0,2.0930998,93.115298,-256.84999)"
     gradientUnits="userSpaceOnUse"
     id="linearGradient4562-1"
     xlink:href="#linearGradient3187-1"
     inkscape:collect="always" /><linearGradient
     gradientUnits="userSpaceOnUse"
     y2="540.86719"
     x2="360.49777"
     y1="167.50403"
     x1="360.49777"
     id="linearGradient4401-3"
     xlink:href="#linearGradient4395-7"
     inkscape:collect="always" /><linearGradient
     gradientUnits="userSpaceOnUse"
     y2="655.4505"
     x2="396.91168"
     y1="298.59412"
     x1="371.42194"
     id="linearGradient4389-8"
     xlink:href="#linearGradient4383-4"
     inkscape:collect="always" /><inkscape:perspective
     id="perspective3214-7"
     inkscape:persp3d-origin="372.04724 : 350.78739 : 1"
     inkscape:vp_z="744.09448 : 526.18109 : 1"
     inkscape:vp_y="0 : 1000 : 0"
     inkscape:vp_x="0 : 526.18109 : 1"
     sodipodi:type="inkscape:persp3d" /><linearGradient
     id="linearGradient4383-4"><stop
       id="stop4385-2"
       offset="0"
       style="stop-color:#00037f;stop-opacity:1;" /><stop
       id="stop4387-7"
       offset="1"
       style="stop-color:#00037f;stop-opacity:0;" /></linearGradient><linearGradient
     id="linearGradient4395-7"><stop
       id="stop4397-9"
       offset="0"
       style="stop-color:#110084;stop-opacity:1;" /><stop
       id="stop4399-3"
       offset="1"
       style="stop-color:#a695ff;stop-opacity:1;" /></linearGradient><linearGradient
     id="linearGradient3187-1"><stop
       id="stop3189-9"
       offset="0"
       style="stop-color:#ffffff;stop-opacity:0.39622641;" /><stop
       id="stop3191-8"
       offset="1"
       style="stop-color:#000000;stop-opacity:1;" /></linearGradient><linearGradient
     id="linearGradient3171-6"><stop
       style="stop-color:#49bcff;stop-opacity:1;"
       offset="0"
       id="stop3173-5" /><stop
       style="stop-color:#494cdc;stop-opacity:1;"
       offset="1"
       id="stop3175-0" /></linearGradient><linearGradient
     id="linearGradient3157-2"><stop
       id="stop3159-8"
       offset="0"
       style="stop-color:#49bcff;stop-opacity:1;" /><stop
       id="stop3161-6"
       offset="1"
       style="stop-color:#494c96;stop-opacity:1;" /></linearGradient><linearGradient
     id="linearGradient5443-0"><stop
       style="stop-color:#ffffff;stop-opacity:0;"
       offset="0"
       id="stop5445-2" /><stop
       style="stop-color:#000000;stop-opacity:0.33962265;"
       offset="1"
       id="stop5447-4" /></linearGradient><radialGradient
     inkscape:collect="always"
     xlink:href="#linearGradient5443-0"
     id="radialGradient3234"
     gradientUnits="userSpaceOnUse"
     gradientTransform="matrix(0.8612608,1.0093481e-7,-5.1010329e-8,0.29743416,-586.09339,395.79293)"
     cx="373.24265"
     cy="710.99164"
     fx="373.24265"
     fy="710.99164"
     r="333.18735" /><linearGradient
     inkscape:collect="always"
     xlink:href="#linearGradient3187-1"
     id="linearGradient3236"
     gradientUnits="userSpaceOnUse"
     gradientTransform="matrix(2.3189708,0,0,2.0930998,-543.56606,-225.82362)"
     x1="123.50603"
     y1="344.03848"
     x2="123.47623"
     y2="254.73526" /><radialGradient
     inkscape:collect="always"
     xlink:href="#linearGradient5443-0"
     id="radialGradient3238"
     gradientUnits="userSpaceOnUse"
     gradientTransform="matrix(0.83393192,2.4025531e-7,-2.452288e-7,0.76469446,-575.89311,126.3946)"
     cx="373.24265"
     cy="467.91885"
     fx="373.24265"
     fy="467.91885"
     r="333.18735" /><radialGradient
     inkscape:collect="always"
     xlink:href="#linearGradient5443-0"
     id="radialGradient3254"
     gradientUnits="userSpaceOnUse"
     gradientTransform="matrix(0.8612608,1.0093481e-7,-5.1010329e-8,0.29743416,-586.09339,395.79293)"
     cx="373.24265"
     cy="710.99164"
     fx="373.24265"
     fy="710.99164"
     r="333.18735" /><linearGradient
     inkscape:collect="always"
     xlink:href="#linearGradient3187-1"
     id="linearGradient3256"
     gradientUnits="userSpaceOnUse"
     gradientTransform="matrix(2.3189708,0,0,2.0930998,-543.56606,-225.82362)"
     x1="123.50603"
     y1="344.03848"
     x2="123.47623"
     y2="254.73526" /><radialGradient
     inkscape:collect="always"
     xlink:href="#linearGradient5443-0"
     id="radialGradient3258"
     gradientUnits="userSpaceOnUse"
     gradientTransform="matrix(0.83393192,2.4025531e-7,-2.452288e-7,0.76469446,-575.89311,126.3946)"
     cx="373.24265"
     cy="467.91885"
     fx="373.24265"
     fy="467.91885"
     r="333.18735" /><radialGradient
     inkscape:collect="always"
     xlink:href="#linearGradient5443-0"
     id="radialGradient3270"
     gradientUnits="userSpaceOnUse"
     gradientTransform="matrix(0.83535069,2.5391116e-7,-2.4564601e-7,0.80815885,-821.89024,-331.16994)"
     cx="373.24265"
     cy="467.91885"
     fx="373.24265"
     fy="467.91885"
     r="333.18735" /><radialGradient
     inkscape:collect="always"
     xlink:href="#linearGradient5443-0"
     id="radialGradient3274"
     gradientUnits="userSpaceOnUse"
     gradientTransform="matrix(0.86272606,1.0667183e-7,-5.1097113e-8,0.31433999,-832.10787,-46.459305)"
     cx="373.24265"
     cy="710.99164"
     fx="373.24265"
     fy="710.99164"
     r="333.18735" /><linearGradient
     y2="254.73526"
     x2="123.47623"
     y1="344.03848"
     x1="123.50603"
     gradientTransform="matrix(2.3189708,0,0,2.0930998,-543.56606,-225.82362)"
     gradientUnits="userSpaceOnUse"
     id="linearGradient3422"
     xlink:href="#linearGradient3187"
     inkscape:collect="always" /><radialGradient
     r="333.18735"
     fy="710.99164"
     fx="373.24265"
     cy="710.99164"
     cx="373.24265"
     gradientTransform="matrix(0.86272606,1.0667183e-7,-5.1097113e-8,0.31433999,-736.19251,168.72353)"
     gradientUnits="userSpaceOnUse"
     id="radialGradient3416"
     xlink:href="#linearGradient5443"
     inkscape:collect="always" /><radialGradient
     r="333.18735"
     fy="467.91885"
     fx="373.24265"
     cy="467.91885"
     cx="373.24265"
     gradientTransform="matrix(0.83535069,2.5391116e-7,-2.4564601e-7,0.80815885,-725.97492,-115.98714)"
     gradientUnits="userSpaceOnUse"
     id="radialGradient3412"
     xlink:href="#linearGradient5443"
     inkscape:collect="always" /><radialGradient
     r="333.18735"
     fy="467.91885"
     fx="373.24265"
     cy="467.91885"
     cx="373.24265"
     gradientTransform="matrix(0.83393192,2.4025531e-7,-2.452288e-7,0.76469446,-575.89311,126.3946)"
     gradientUnits="userSpaceOnUse"
     id="radialGradient2894"
     xlink:href="#linearGradient5443"
     inkscape:collect="always" /><linearGradient
     y2="254.73526"
     x2="123.47623"
     y1="344.03848"
     x1="123.50603"
     gradientTransform="matrix(2.3189708,0,0,2.0930998,-543.56606,-225.82362)"
     gradientUnits="userSpaceOnUse"
     id="linearGradient2892"
     xlink:href="#linearGradient3187"
     inkscape:collect="always" /><radialGradient
     r="333.18735"
     fy="710.99164"
     fx="373.24265"
     cy="710.99164"
     cx="373.24265"
     gradientTransform="matrix(0.8612608,1.0093481e-7,-5.1010329e-8,0.29743416,-586.09339,395.79293)"
     gradientUnits="userSpaceOnUse"
     id="radialGradient2890"
     xlink:href="#linearGradient5443"
     inkscape:collect="always" /><linearGradient
     id="linearGradient5443-5"><stop
       style="stop-color:#ffffff;stop-opacity:0;"
       offset="0"
       id="stop5445-4" /><stop
       style="stop-color:#000000;stop-opacity:0.33962265;"
       offset="1"
       id="stop5447-3" /></linearGradient><radialGradient
     r="333.18735"
     fy="710.99164"
     fx="373.24265"
     cy="710.99164"
     cx="373.24265"
     gradientTransform="matrix(0.9503534,1.1750652e-7,-5.6287062e-8,0.3462676,317.80591,185.68771)"
     gradientUnits="userSpaceOnUse"
     id="radialGradient4835-3"
     xlink:href="#linearGradient5443-5"
     inkscape:collect="always" /><filter
     color-interpolation-filters="sRGB"
     id="filter5511"
     inkscape:collect="always"><feGaussianBlur
       id="feGaussianBlur5513"
       stdDeviation="3.2374974"
       inkscape:collect="always" /></filter><radialGradient
     r="333.18735"
     fy="710.99164"
     fx="373.24265"
     cy="710.99164"
     cx="373.24265"
     gradientTransform="matrix(0.8612608,1.0093481e-7,-5.1010329e-8,0.29743416,-586.09339,395.79293)"
     gradientUnits="userSpaceOnUse"
     id="radialGradient4835"
     xlink:href="#linearGradient5443"
     inkscape:collect="always" /><radialGradient
     r="333.18735"
     fy="467.91885"
     fx="373.24265"
     cy="467.91885"
     cx="373.24265"
     gradientTransform="matrix(0.83393192,2.4025531e-7,-2.452288e-7,0.76469446,-575.89311,126.3946)"
     gradientUnits="userSpaceOnUse"
     id="radialGradient4832"
     xlink:href="#linearGradient5443"
     inkscape:collect="always" /><linearGradient
     y2="254.73526"
     x2="123.47623"
     y1="344.03848"
     x1="123.50603"
     gradientTransform="matrix(2.3189708,0,0,2.0930998,-543.56606,-225.82362)"
     gradientUnits="userSpaceOnUse"
     id="linearGradient4827"
     xlink:href="#linearGradient3187"
     inkscape:collect="always" /><linearGradient
     y2="254.73526"
     x2="123.47623"
     y1="344.03848"
     x1="123.50603"
     gradientTransform="matrix(2.3189708,0,0,2.0930998,93.115298,-256.84999)"
     gradientUnits="userSpaceOnUse"
     id="linearGradient4824"
     xlink:href="#linearGradient3187"
     inkscape:collect="always" /><radialGradient
     r="333.18735"
     fy="467.91885"
     fx="373.24265"
     cy="467.91885"
     cx="373.24265"
     gradientTransform="matrix(0.9201975,2.7970099e-7,-2.7059634e-7,0.8902438,28.590287,48.634335)"
     gradientUnits="userSpaceOnUse"
     id="radialGradient4822"
     xlink:href="#linearGradient3171"
     inkscape:collect="always" /><radialGradient
     r="333.18735"
     fy="710.99164"
     fx="373.24265"
     cy="710.99164"
     cx="373.24265"
     gradientTransform="matrix(0.9503534,1.1750652e-7,-5.6287062e-8,0.3462676,17.334826,362.44227)"
     gradientUnits="userSpaceOnUse"
     id="radialGradient4820"
     xlink:href="#linearGradient3157"
     inkscape:collect="always" /><radialGradient
     r="333.18735"
     fy="710.99164"
     fx="373.24265"
     cy="710.99164"
     cx="373.24265"
     gradientTransform="matrix(0.9503534,1.1750652e-7,-5.6287062e-8,0.3462676,17.334826,362.44227)"
     gradientUnits="userSpaceOnUse"
     id="radialGradient4805"
     xlink:href="#linearGradient3157"
     inkscape:collect="always" /><radialGradient
     r="333.18735"
     fy="467.91885"
     fx="373.24265"
     cy="467.91885"
     cx="373.24265"
     gradientTransform="matrix(0.9201975,2.7970099e-7,-2.7059634e-7,0.8902438,28.590287,48.634335)"
     gradientUnits="userSpaceOnUse"
     id="radialGradient4802"
     xlink:href="#linearGradient3171"
     inkscape:collect="always" /><linearGradient
     y2="254.73526"
     x2="123.47623"
     y1="344.03848"
     x1="123.50603"
     gradientTransform="matrix(2.3189708,0,0,2.0930998,93.115298,-256.84999)"
     gradientUnits="userSpaceOnUse"
     id="linearGradient4799"
     xlink:href="#linearGradient3187"
     inkscape:collect="always" /><linearGradient
     y2="254.73526"
     x2="123.47623"
     y1="344.03848"
     x1="123.50603"
     gradientTransform="matrix(2.3189708,0,0,2.0930998,93.115298,-256.84999)"
     gradientUnits="userSpaceOnUse"
     id="linearGradient4794"
     xlink:href="#linearGradient3187"
     inkscape:collect="always" /><radialGradient
     r="333.18735"
     fy="467.91885"
     fx="373.24265"
     cy="467.91885"
     cx="373.24265"
     gradientTransform="matrix(0.9201975,2.7970099e-7,-2.7059634e-7,0.8902438,28.590287,48.634335)"
     gradientUnits="userSpaceOnUse"
     id="radialGradient4792"
     xlink:href="#linearGradient3171"
     inkscape:collect="always" /><radialGradient
     r="333.18735"
     fy="710.99164"
     fx="373.24265"
     cy="710.99164"
     cx="373.24265"
     gradientTransform="matrix(0.9503534,1.1750652e-7,-5.6287062e-8,0.3462676,17.334826,362.44227)"
     gradientUnits="userSpaceOnUse"
     id="radialGradient4790"
     xlink:href="#linearGradient3157"
     inkscape:collect="always" /><radialGradient
     r="333.18735"
     fy="710.99164"
     fx="373.24265"
     cy="710.99164"
     cx="373.24265"
     gradientTransform="matrix(0.9503534,1.1750652e-7,-5.6287062e-8,0.3462676,17.334826,362.44227)"
     gradientUnits="userSpaceOnUse"
     id="radialGradient4779"
     xlink:href="#linearGradient3157"
     inkscape:collect="always" /><radialGradient
     r="333.18735"
     fy="467.91885"
     fx="373.24265"
     cy="467.91885"
     cx="373.24265"
     gradientTransform="matrix(0.9201975,2.7970099e-7,-2.7059634e-7,0.8902438,28.590287,48.634335)"
     gradientUnits="userSpaceOnUse"
     id="radialGradient4776"
     xlink:href="#linearGradient3171"
     inkscape:collect="always" /><linearGradient
     y2="254.73526"
     x2="123.47623"
     y1="344.03848"
     x1="123.50603"
     gradientTransform="matrix(2.3189708,0,0,2.0930998,93.115298,-256.84999)"
     gradientUnits="userSpaceOnUse"
     id="linearGradient4773"
     xlink:href="#linearGradient3187"
     inkscape:collect="always" /><linearGradient
     y2="254.73526"
     x2="123.47623"
     y1="344.03848"
     x1="123.50603"
     gradientTransform="matrix(2.3189708,0,0,2.0930998,93.115298,-256.84999)"
     gradientUnits="userSpaceOnUse"
     id="linearGradient4770"
     xlink:href="#linearGradient3187"
     inkscape:collect="always" /><radialGradient
     r="333.18735"
     fy="467.91885"
     fx="373.24265"
     cy="467.91885"
     cx="373.24265"
     gradientTransform="matrix(0.9201975,2.7970099e-7,-2.7059634e-7,0.8902438,28.590287,48.634335)"
     gradientUnits="userSpaceOnUse"
     id="radialGradient4768"
     xlink:href="#linearGradient3171"
     inkscape:collect="always" /><radialGradient
     r="333.18735"
     fy="710.99164"
     fx="373.24265"
     cy="710.99164"
     cx="373.24265"
     gradientTransform="matrix(0.9503534,1.1750652e-7,-5.6287062e-8,0.3462676,17.334826,362.44227)"
     gradientUnits="userSpaceOnUse"
     id="radialGradient4766"
     xlink:href="#linearGradient3157"
     inkscape:collect="always" /><filter
     color-interpolation-filters="sRGB"
     id="filter4659"
     inkscape:collect="always"><feGaussianBlur
       id="feGaussianBlur4661"
       stdDeviation="2.7750933"
       inkscape:collect="always" /></filter><radialGradient
     r="333.18735"
     fy="710.99164"
     fx="373.24265"
     cy="710.99164"
     cx="373.24265"
     gradientTransform="matrix(0.9503534,1.1750652e-7,-5.6287062e-8,0.3462676,17.334826,362.44227)"
     gradientUnits="userSpaceOnUse"
     id="radialGradient4572"
     xlink:href="#linearGradient3157"
     inkscape:collect="always" /><radialGradient
     r="333.18735"
     fy="467.91885"
     fx="373.24265"
     cy="467.91885"
     cx="373.24265"
     gradientTransform="matrix(0.9201975,2.7970099e-7,-2.7059634e-7,0.8902438,28.590287,48.634335)"
     gradientUnits="userSpaceOnUse"
     id="radialGradient4569"
     xlink:href="#linearGradient3171"
     inkscape:collect="always" /><linearGradient
     y2="254.73526"
     x2="123.47623"
     y1="344.03848"
     x1="123.50603"
     gradientTransform="matrix(2.3189708,0,0,2.0930998,93.115298,-256.84999)"
     gradientUnits="userSpaceOnUse"
     id="linearGradient4562"
     xlink:href="#linearGradient3187"
     inkscape:collect="always" /><linearGradient
     gradientUnits="userSpaceOnUse"
     y2="540.86719"
     x2="360.49777"
     y1="167.50403"
     x1="360.49777"
     id="linearGradient4401"
     xlink:href="#linearGradient4395"
     inkscape:collect="always" /><linearGradient
     gradientUnits="userSpaceOnUse"
     y2="655.4505"
     x2="396.91168"
     y1="298.59412"
     x1="371.42194"
     id="linearGradient4389"
     xlink:href="#linearGradient4383"
     inkscape:collect="always" /><inkscape:perspective
     id="perspective3214"
     inkscape:persp3d-origin="372.04724 : 350.78739 : 1"
     inkscape:vp_z="744.09448 : 526.18109 : 1"
     inkscape:vp_y="0 : 1000 : 0"
     inkscape:vp_x="0 : 526.18109 : 1"
     sodipodi:type="inkscape:persp3d" /><linearGradient
     id="linearGradient4383"><stop
       id="stop4385"
       offset="0"
       style="stop-color:#00037f;stop-opacity:1;" /><stop
       id="stop4387"
       offset="1"
       style="stop-color:#00037f;stop-opacity:0;" /></linearGradient><linearGradient
     id="linearGradient4395"><stop
       id="stop4397"
       offset="0"
       style="stop-color:#110084;stop-opacity:1;" /><stop
       id="stop4399"
       offset="1"
       style="stop-color:#a695ff;stop-opacity:1;" /></linearGradient><linearGradient
     id="linearGradient3187"><stop
       id="stop3189"
       offset="0"
       style="stop-color:#ffffff;stop-opacity:0.39622641;" /><stop
       id="stop3191"
       offset="1"
       style="stop-color:#9e9e9e;stop-opacity:1;" /></linearGradient><linearGradient
     id="linearGradient3171"><stop
       style="stop-color:#49bcff;stop-opacity:1;"
       offset="0"
       id="stop3173" /><stop
       style="stop-color:#494cdc;stop-opacity:1;"
       offset="1"
       id="stop3175" /></linearGradient><linearGradient
     id="linearGradient3157"><stop
       id="stop3159"
       offset="0"
       style="stop-color:#49bcff;stop-opacity:1;" /><stop
       id="stop3161"
       offset="1"
       style="stop-color:#494c96;stop-opacity:1;" /></linearGradient><linearGradient
     id="linearGradient5443"><stop
       style="stop-color:#ffffff;stop-opacity:0;"
       offset="0"
       id="stop5445" /><stop
       style="stop-color:#cbcac8;stop-opacity:1;"
       offset="1"
       id="stop5447" /></linearGradient><radialGradient
     inkscape:collect="always"
     xlink:href="#linearGradient5443"
     id="radialGradient3253"
     gradientUnits="userSpaceOnUse"
     gradientTransform="matrix(0.8612608,1.0093481e-7,-5.1010329e-8,0.29743416,-586.09339,395.79293)"
     cx="373.24265"
     cy="710.99164"
     fx="373.24265"
     fy="710.99164"
     r="333.18735" /><linearGradient
     inkscape:collect="always"
     xlink:href="#linearGradient3187"
     id="linearGradient3255"
     gradientUnits="userSpaceOnUse"
     gradientTransform="matrix(2.3189708,0,0,2.0930998,-543.56606,-225.82362)"
     x1="123.50603"
     y1="344.03848"
     x2="123.47623"
     y2="254.73526" /><radialGradient
     inkscape:collect="always"
     xlink:href="#linearGradient5443"
     id="radialGradient3257"
     gradientUnits="userSpaceOnUse"
     gradientTransform="matrix(0.83393192,2.4025531e-7,-2.452288e-7,0.76469446,-575.89311,126.3946)"
     cx="373.24265"
     cy="467.91885"
     fx="373.24265"
     fy="467.91885"
     r="333.18735" /><radialGradient
     inkscape:collect="always"
     xlink:href="#linearGradient5443"
     id="radialGradient3273"
     gradientUnits="userSpaceOnUse"
     gradientTransform="matrix(0.8612608,1.0093481e-7,-5.1010329e-8,0.29743416,-586.09339,395.79293)"
     cx="373.24265"
     cy="710.99164"
     fx="373.24265"
     fy="710.99164"
     r="333.18735" /><linearGradient
     inkscape:collect="always"
     xlink:href="#linearGradient3187"
     id="linearGradient3275"
     gradientUnits="userSpaceOnUse"
     gradientTransform="matrix(2.3189708,0,0,2.0930998,-543.56606,-225.82362)"
     x1="123.50603"
     y1="344.03848"
     x2="123.47623"
     y2="254.73526" /><radialGradient
     inkscape:collect="always"
     xlink:href="#linearGradient5443"
     id="radialGradient3277"
     gradientUnits="userSpaceOnUse"
     gradientTransform="matrix(0.83393192,2.4025531e-7,-2.452288e-7,0.76469446,-575.89311,126.3946)"
     cx="373.24265"
     cy="467.91885"
     fx="373.24265"
     fy="467.91885"
     r="333.18735" /></defs><sodipodi:namedview
   pagecolor="#ffffff"
   bordercolor="#666666"
   borderopacity="1"
   objecttolerance="10"
   gridtolerance="10"
   guidetolerance="10"
   inkscape:pageopacity="0"
   inkscape:pageshadow="2"
   inkscape:window-width="1920"
   inkscape:window-height="1031"
   id="namedview15"
   showgrid="false"
   fit-margin-top="0"
   fit-margin-left="0"
   fit-margin-right="0"
   fit-margin-bottom="0"
   inkscape:zoom="0.42140707"
   inkscape:cx="338.39112"
   inkscape:cy="-71.088331"
   inkscape:window-x="-4"
   inkscape:window-y="-4"
   inkscape:window-maximized="1"
   inkscape:current-layer="_x31_" />




<g
   id="g3396"
   transform="translate(-4.0524846e-6,1.5294449e-7)"><g
     transform="translate(589.18636,-87.165827)"
     id="g4448"><rect
       transform="matrix(2.1051501,0,0,2.1051501,-860.18934,-1.2010596)"
       ry="12.45238"
       rx="16.067965"
       y="48.636749"
       x="135.39355"
       height="152.93848"
       width="152.93848"
       id="rect4192"
       style="fill:#cccccc;fill-opacity:1;stroke:none;filter:url(#filter4659)"
       inkscape:export-filename="C:\Documents and Settings\adscro24\Desktop\128.png"
       inkscape:export-xdpi="29.879425"
       inkscape:export-ydpi="29.879425" /><rect
       inkscape:export-ydpi="29.879425"
       inkscape:export-xdpi="29.879425"
       inkscape:export-filename="C:\Documents and Settings\adscro24\Desktop\128.png"
       style="fill:#cbcac8;fill-opacity:1;stroke:none;filter:url(#filter4659)"
       id="rect3279"
       width="152.93848"
       height="152.93848"
       x="135.39355"
       y="48.636749"
       rx="16.067965"
       ry="12.45238"
       transform="matrix(2.1051501,0,0,2.1051501,-860.18934,-1.2010596)" /><rect
       inkscape:export-ydpi="29.879425"
       inkscape:export-xdpi="29.879425"
       inkscape:export-filename="C:\Documents and Settings\adscro24\Desktop\128.png"
       style="opacity:0.61338286;fill:url(#radialGradient4456);fill-opacity:1;stroke:#000000;stroke-width:3.26806188;stroke-miterlimit:4;stroke-opacity:1;stroke-dasharray:none"
       id="rect3155"
       width="321.95847"
       height="321.95844"
       x="-575.16559"
       y="101.18661"
       rx="33.825478"
       ry="26.214128" /><path
       transform="matrix(0.907795,0,0,0.90779498,-173.95283,-177.39738)"
       inkscape:export-ydpi="29.879425"
       inkscape:export-xdpi="29.879425"
       inkscape:export-filename="C:\Documents and Settings\adscro24\Desktop\128.png"
       inkscape:connector-curvature="0"
       style="opacity:0.61338286;fill:url(#linearGradient4458);fill-opacity:1;stroke:none;filter:url(#filter5511)"
       d="m -397.80626,329.07489 c -19.62748,0 -35.44272,12.0976 -35.44272,27.14163 l 0,124.30857 c 29.25482,11.38638 132.70149,11.89599 165.40488,-5.79022 33.32802,-18.02397 127.54379,-68.44264 171.824837,-52.72052 l 0,-65.79783 c 0,-15.04403 -15.798597,-27.14163 -35.426097,-27.14163 l -266.3609,0 z m -35.44272,263.47103 0,42.88373 c 0,1.33144 0.14331,2.63588 0.38253,3.915 -0.11919,-12.81092 -0.25965,-28.88939 -0.38253,-46.79873 z"
       id="rect3177" /><rect
       inkscape:export-ydpi="29.879425"
       inkscape:export-xdpi="29.879425"
       inkscape:export-filename="C:\Documents and Settings\adscro24\Desktop\128.png"
       style="opacity:0.61338286;fill:url(#radialGradient4460);fill-opacity:1;stroke:#ffffff;stroke-width:0.68992418;stroke-linecap:square;stroke-miterlimit:4;stroke-opacity:1;stroke-dasharray:none"
       id="rect3473"
       width="306.12445"
       height="306.12445"
       x="-567.2486"
       y="109.1036"
       rx="32.161926"
       ry="24.924911" /><rect
       inkscape:export-ydpi="29.879425"
       inkscape:export-xdpi="29.879425"
       inkscape:export-filename="C:\Documents and Settings\adscro24\Desktop\128.png"
       style="opacity:0.61338286;fill:#ffffff;fill-opacity:0;stroke:#000000;stroke-width:3.26806188;stroke-miterlimit:4;stroke-opacity:1;stroke-dasharray:none"
       id="rect3155-2"
       width="321.95847"
       height="321.95844"
       x="-575.16559"
       y="101.18661"
       rx="33.825478"
       ry="26.214128" /></g><g
     transform="translate(358.29183,-87.165827)"
     id="LWPOLYLINE_2_-7">
	
		
</g><g
     transform="translate(358.29183,-87.165827)"
     id="LWPOLYLINE_3_-4">
	
		
</g><g
     transform="translate(358.29183,-87.165827)"
     id="LWPOLYLINE_4_">
	
		
</g><g
     transform="translate(184.65055,-351.95215)"
     style="fill:#000000;fill-opacity:1;stroke:none"
     id="LWPOLYLINE_6_-7">
	
		
</g><g
     transform="translate(184.65055,-351.95215)"
     style="fill:#000000;fill-opacity:1;stroke:none"
     id="LWPOLYLINE-4">
	
		
</g><g
     transform="translate(184.65055,-351.95215)"
     style="fill:#000000;fill-opacity:1;stroke:none"
     id="LWPOLYLINE_3_-0">
	
		
</g></g><g
   id="g3411"
   transform="matrix(0.56981358,0,0,0.56981358,0.35348495,-50.646976)"
   style="fill:#000000;fill-opacity:1;stroke:none"><g
     id="LWPOLYLINE"
     style="fill:#000000;fill-opacity:1;stroke:none">
	
		<path
   style="fill:#000000;fill-opacity:1;stroke:none"
   d="m 107.65625,382.1875 c -0.0319,0 -48.40625,113.96875 -48.40625,113.96875 l 0.25,0 0.21875,0 0.25,0 0.28125,0 0.34375,0 0.375,0 0.40625,0 0.46875,0 0.46875,0 0.5,0 0.5625,0 0.53125,0 0.59375,0 0.5625,0 0.625,0 0.59375,0 0.625,0 0.625,0 0.625,0 0.625,0 0.59375,0 0.625,0 0.5625,0 0.59375,0 0.5625,0 0.53125,0 0.5,0 0.46875,0 0.46875,0 0.40625,0 0.375,0 0.34375,0 0.28125,0 0.25,0 0.21875,0 0.21875,0 c 0.04786,-0.0325 0.125,-0.1875 0.125,-0.1875 L 76,495.65625 l 0.15625,-0.34375 0.1875,-0.4375 0.1875,-0.53125 0.25,-0.625 0.28125,-0.6875 0.28125,-0.71875 0.34375,-0.8125 0.34375,-0.84375 0.34375,-0.9375 0.40625,-0.9375 0.40625,-1 0.40625,-1.03125 0.4375,-1.09375 0.40625,-1.09375 0.46875,-1.09375 0.4375,-1.09375 0.4375,-1.125 0.4375,-1.125 0.46875,-1.09375 0.4375,-1.09375 0.4375,-1.09375 0.40625,-1.0625 0.40625,-1.0625 0.40625,-1 0.375,-0.9375 0.375,-0.9375 L 85.875,471 86.1875,470.21875 86.5,469.46875 86.78125,468.75 87,468.15625 l 0.25,-0.53125 0.15625,-0.4375 0.125,-0.375 0.125,-0.25 c 0.06439,-0.16126 0.09375,-0.21875 0.09375,-0.21875 l 0.375,0 0.46875,0 0.65625,0 0.8125,0 0.9375,0 1.09375,0 1.21875,0 1.375,0 1.4375,0 1.5625,0 1.65625,0 1.71875,0 1.8125,0 1.84375,0 1.90625,0 1.96875,0 1.96875,0 2,0 2,0 2.03125,0 2,0 1.96875,0 1.96875,0 1.90625,0 1.84375,0 1.8125,0 1.71875,0 1.65625,0 1.5625,0 1.46875,0 1.34375,0 1.21875,0 1.09375,0 0.9375,0 0.8125,0 0.65625,0 0.46875,0 0.28125,0 c 0.11339,0.0325 0.1875,0.21875 0.1875,0.21875 l 0.0937,0.25 0.15625,0.375 0.1875,0.4375 0.1875,0.53125 0.25,0.59375 0.28125,0.71875 0.28125,0.75 0.34375,0.78125 0.34375,0.84375 0.34375,0.9375 0.40625,0.9375 0.40625,1 0.40625,1.0625 0.4375,1.0625 0.40625,1.09375 0.46875,1.09375 0.4375,1.09375 0.4375,1.125 0.4375,1.125 0.46875,1.09375 0.4375,1.09375 0.4375,1.09375 0.40625,1.09375 0.4375,1.03125 0.375,1 0.375,0.9375 0.375,0.9375 0.34375,0.84375 0.34375,0.8125 0.28125,0.71875 0.28125,0.6875 0.25,0.625 0.21875,0.53125 0.15625,0.4375 0.15625,0.34375 0.0937,0.3125 c 0.0644,0.1624 0.0937,0.1875 0.0937,0.1875 l 0.25,0 0.21875,0 0.28125,0 0.28125,0 0.375,0 0.375,0 0.4375,0 0.46875,0 0.5,0 0.53125,0 0.5625,0 0.5625,0 0.59375,0 0.625,0 0.625,0 0.625,0 0.65625,0 0.65625,0 0.625,0 0.625,0 0.65625,0 0.625,0 0.625,0 0.59375,0 0.5625,0 0.5625,0 0.53125,0 0.5,0 0.46875,0 0.4375,0 0.375,0 0.375,0 0.3125,0 0.21875,0 0.21875,0 0.25,0 c 0.0325,0 -0.0625,-0.1875 -0.0625,-0.1875 l -0.25,-0.625 -0.40625,-1 -0.53125,-1.375 -0.71875,-1.6875 -0.8125,-2.0625 -0.9375,-2.3125 -1.0625,-2.59375 -1.1875,-2.84375 -1.25,-3.125 -1.34375,-3.28125 -1.40625,-3.53125 -1.5,-3.65625 -1.5625,-3.8125 -1.625,-3.9375 -1.625,-4.09375 -1.6875,-4.125 -1.71875,-4.21875 -1.71875,-4.25 -1.75,-4.25 -1.75,-4.28125 -1.71875,-4.25 -1.6875,-4.21875 -1.71875,-4.125 -1.65625,-4.0625 -1.59375,-3.9375 -1.5625,-3.84375 -1.5,-3.65625 -1.40625,-3.5 L 131.4375,400 130.15625,396.90625 129,394.0625 127.9375,391.4375 127,389.125 l -0.8125,-2.03125 -0.71875,-1.6875 -0.53125,-1.375 L 124.53125,383 124.25,382.40625 l -0.0625,-0.21875 -0.25,0 -0.21875,0 -0.25,0 -0.28125,0 -0.34375,0 -0.375,0 -0.40625,0 -0.46875,0 -0.46875,0 -0.53125,0 -0.53125,0 -0.53125,0 -0.59375,0 -0.5625,0 -0.625,0 -0.59375,0 -0.65625,0 -0.59375,0 -0.625,0 -0.625,0 -0.59375,0 -0.625,0 -0.5625,0 -0.59375,0 -0.5625,0 -0.53125,0 -0.5,0 -0.46875,0 -0.46875,0 -0.40625,0 -0.375,0 -0.34375,0 -0.28125,0 -0.25,0 -0.21875,0 -0.21875,0 z m 7.25,15.90625 c 0.0325,0.11225 0.15625,0.40625 0.15625,0.40625 l 0.1875,0.5 0.25,0.65625 0.3125,0.84375 0.375,1 0.4375,1.125 0.5,1.25 0.53125,1.40625 0.5625,1.5 0.625,1.625 0.65625,1.71875 0.6875,1.78125 0.6875,1.875 0.75,1.9375 0.75,1.96875 0.78125,2.03125 0.78125,2.0625 0.78125,2.0625 0.78125,2.09375 0.8125,2.09375 0.78125,2.0625 0.78125,2.0625 0.78125,2 0.75,1.96875 0.71875,1.96875 0.71875,1.875 0.6875,1.75 0.65625,1.71875 0.625,1.625 0.5625,1.5 0.53125,1.40625 0.46875,1.28125 0.46875,1.125 0.34375,1 0.34375,0.8125 0.25,0.6875 0.1875,0.46875 0.0937,0.28125 c -0.049,0.13049 -0.25,0.15625 -0.25,0.15625 l -0.375,0 -0.53125,0 -0.65625,0 -0.75,0 -0.875,0 -1,0 -1.0625,0 -1.1875,0 -1.25,0 -1.3125,0 -1.40625,0 -1.4375,0 -1.46875,0 -1.5625,0 -1.5625,0 -1.59375,0 -1.59375,0 -1.625,0 -1.59375,0 -1.625,0 -1.5625,0 -1.59375,0 -1.53125,0 -1.46875,0 -1.4375,0 -1.40625,0 -1.3125,0 -1.25,0 -1.1875,0 -1.0625,0 -1,0 -0.875,0 -0.78125,0 -0.625,0 -0.5,0 -0.40625,0 -0.21875,0 c -0.08148,-5.7e-4 21.78125,-55.6875 21.78125,-55.6875 z"
   transform="matrix(1.7549599,0,0,1.7549599,-44.58012,-374.72764)"
   id="path4"
   inkscape:connector-curvature="0" />
</g><g
     id="LWPOLYLINE_1_"
     style="fill:#000000;fill-opacity:1;stroke:none">
	
		
</g><g
     id="LWPOLYLINE_2_"
     style="fill:#000000;fill-opacity:1;stroke:none">
	
		<path
   id="path10"
   d="m 281.52,496 c 0.227,0 0.852,0 0.852,0 h 1.078 1.42 1.816 2.158 2.498 2.725 3.066 3.236 3.52 3.748 3.861 4.088 4.201 4.258 4.43 4.428 4.543 4.541 4.486 4.543 4.428 4.428 4.316 4.201 4.031 3.918 3.689 3.521 3.293 3.01 2.781 2.441 2.158 1.816 1.42 1.078 0.682 c 0.227,-0.172 0.227,-0.398 0.227,-0.398 v -0.283 -0.342 -0.453 -0.512 -0.51 -0.625 -0.682 -0.682 -0.795 -0.738 -0.852 -0.852 -0.852 -0.908 -0.908 -0.908 -0.908 -0.91 -0.908 -0.908 -0.852 -0.908 -0.852 -0.795 -0.795 -0.738 -0.738 -0.625 -0.623 -0.568 -0.512 -0.396 -0.398 -0.283 c 0,-0.227 0,-0.342 0,-0.342 -0.17,-0.057 -0.682,-0.057 -0.682,-0.057 h -0.852 -1.078 -1.42 -1.646 -1.873 -2.158 -2.328 -2.498 -2.725 -2.84 -3.008 -3.123 -3.236 -3.293 -3.408 -3.406 -3.463 -3.52 -3.465 -3.463 -3.463 -3.35 -3.295 -3.236 -3.121 -3.01 -2.84 -2.725 -2.498 -2.328 -2.158 -1.873 -1.646 -1.42 -1.135 -0.795 -0.512 c -0.17,0 -0.17,-0.283 -0.17,-0.283 v -0.965 -1.533 -2.102 -2.668 -3.123 -3.576 -3.975 -4.43 -4.77 -5.109 -5.395 -5.619 -5.906 -6.074 -6.246 -6.416 -6.473 -6.529 -6.586 -6.586 -6.529 -6.502 -6.359 -6.273 -6.076 -5.875 -5.678 -5.395 -5.082 -4.77 -4.4 -4.031 -3.576 -3.123 -2.611 -2.102 -1.561 -0.938 V 296 c -0.17,0 -0.455,0 -0.455,0 h -0.34 -0.396 -0.512 -0.568 -0.623 -0.68 -0.795 -0.795 -0.852 -0.91 -0.908 -0.965 -1.021 -1.021 -1.023 -1.021 -1.078 -1.023 -1.021 -1.021 -1.021 -1.023 -0.965 -0.908 -0.908 -0.852 -0.852 -0.738 -0.682 -0.625 -0.566 -0.512 -0.455 -0.283 c -0.283,0 -0.396,0 -0.396,0 -0.06,0 -0.06,200 -0.06,200 z"
   stroke-miterlimit="10"
   inkscape:connector-curvature="0"
   style="fill:#000000;fill-opacity:1;stroke:none" />
</g><g
     id="LWPOLYLINE_3_"
     style="fill:#000000;fill-opacity:1;stroke:none">
	
		<path
   id="path13"
   d="m 486.146,496 v -0.285 -0.965 -1.533 -2.1 -2.67 -3.123 -3.576 -3.975 -4.428 -4.77 -5.111 -5.393 -5.621 -5.906 -6.074 -6.246 -6.416 -6.473 -6.529 -6.586 -6.586 -6.529 -6.473 -6.389 -6.243 -6.104 -5.877 -5.65 -5.393 -5.111 -4.77 -4.4 -4.002 -3.605 -3.123 -2.611 -2.102 -1.561 -0.938 -0.312 c 0.113,0 0.51,0 0.51,0 h 0.568 0.795 1.021 1.193 1.42 1.531 1.705 1.816 1.93 2.102 2.156 2.271 2.328 2.385 2.441 2.498 2.555 2.498 2.557 2.498 2.498 2.441 2.385 2.328 2.27 2.158 2.102 1.93 1.873 1.648 1.588 1.363 1.193 1.021 0.795 0.568 0.396 c 0.113,-0.197 0.113,-0.396 0.113,-0.396 v -0.283 -0.369 -0.455 -0.482 -0.568 -0.596 -0.682 -0.71 -0.738 -0.795 -0.824 -0.852 -0.852 -0.879 -0.908 -0.91 -0.908 -0.936 -0.91 -0.879 -0.908 -0.852 -0.852 -0.824 -0.795 -0.738 -0.709 -0.682 -0.596 -0.568 -0.482 -0.455 -0.34 -0.312 c 0,-0.199 0,-0.34 0,-0.34 0,-0.057 -0.283,-0.057 -0.283,-0.057 h -0.908 -1.42 -1.93 -2.441 -2.896 -3.35 -3.691 -4.088 -4.428 -4.713 -4.996 -5.281 -5.451 -5.618 -5.791 -5.904 -6.018 -6.076 -6.133 -6.074 -6.076 -6.018 -5.904 -5.791 -5.621 -5.508 -5.225 -4.996 -4.713 -4.428 -4.088 -3.691 -3.35 -2.896 -2.441 -1.93 -1.42 -0.908 -0.283 c 0,0.197 0,0.396 0,0.396 v 0.312 0.34 0.455 0.482 0.568 0.596 0.682 0.709 0.738 0.795 0.824 0.852 0.852 0.908 0.879 0.91 0.936 0.908 0.91 0.908 0.879 0.852 0.852 0.824 0.795 0.738 0.709 0.682 0.596 0.568 0.482 0.455 0.369 0.283 c 0,0.199 0,0.34 0,0.34 0.113,0.057 0.453,0.057 0.453,0.057 h 0.625 0.795 1.021 1.193 1.363 1.531 1.705 1.816 1.986 2.045 2.215 2.213 2.385 2.385 2.441 2.498 2.498 2.557 2.498 2.555 2.441 2.498 2.385 2.328 2.271 2.156 2.102 1.93 1.816 1.705 1.531 1.363 1.25 0.965 0.852 0.568 0.34 c 0.17,0 0.17,0.312 0.17,0.312 v 0.938 1.561 2.102 2.611 3.123 3.605 4.002 4.4 4.77 5.111 5.393 5.65 5.877 6.105 6.244 6.389 6.473 6.529 6.586 6.586 6.529 6.473 6.416 6.246 6.074 5.906 5.621 5.393 5.111 4.77 4.428 3.975 3.576 3.123 2.67 2.1 1.533 0.965 0.284 h 27.88 z"
   stroke-miterlimit="10"
   inkscape:connector-curvature="0"
   style="fill:#000000;fill-opacity:1;stroke:none" />
</g></g></svg>