<?xml version="1.0" encoding="UTF-8" standalone="no"?>
<!-- Generator: Adobe Illustrator 16.0.1, SVG Export Plug-In . SVG Version: 6.00 Build 0)  -->

<svg
   xmlns:dc="http://purl.org/dc/elements/1.1/"
   xmlns:cc="http://creativecommons.org/ns#"
   xmlns:rdf="http://www.w3.org/1999/02/22-rdf-syntax-ns#"
   xmlns:svg="http://www.w3.org/2000/svg"
   xmlns="http://www.w3.org/2000/svg"
   xmlns:xlink="http://www.w3.org/1999/xlink"
   xmlns:sodipodi="http://sodipodi.sourceforge.net/DTD/sodipodi-0.dtd"
   xmlns:inkscape="http://www.inkscape.org/namespaces/inkscape"
   version="1.0"
   id="_x31_"
   x="0px"
   y="0px"
   width="350"
   height="350"
   viewBox="0 0 350 350"
   enable-background="new 0 0 612 792"
   xml:space="preserve"
   inkscape:version="0.48.3.1 r9886"
   sodipodi:docname="6003.svg"><metadata
   id="metadata88"><rdf:RDF><cc:Work
       rdf:about=""><dc:format>image/svg+xml</dc:format><dc:type
         rdf:resource="http://purl.org/dc/dcmitype/StillImage" /></cc:Work></rdf:RDF></metadata><defs
   id="defs86"><radialGradient
     r="333.18735"
     fy="467.91885"
     fx="373.24265"
     cy="467.91885"
     cx="373.24265"
     gradientTransform="matrix(0.83535069,2.5391116e-7,-2.4564601e-7,0.80815885,-725.97492,-115.98714)"
     gradientUnits="userSpaceOnUse"
     id="radialGradient4460"
     xlink:href="#linearGradient5443"
     inkscape:collect="always" /><linearGradient
     y2="254.73526"
     x2="123.47623"
     y1="344.03848"
     x1="123.50603"
     gradientTransform="matrix(2.3189708,0,0,2.0930998,-543.56606,-225.82362)"
     gradientUnits="userSpaceOnUse"
     id="linearGradient4458"
     xlink:href="#linearGradient3187"
     inkscape:collect="always" /><radialGradient
     r="333.18735"
     fy="710.99164"
     fx="373.24265"
     cy="710.99164"
     cx="373.24265"
     gradientTransform="matrix(0.86272606,1.0667183e-7,-5.1097113e-8,0.31433999,-736.19251,168.72353)"
     gradientUnits="userSpaceOnUse"
     id="radialGradient4456"
     xlink:href="#linearGradient5443"
     inkscape:collect="always" /><radialGradient
     r="333.18735"
     fy="467.91885"
     fx="373.24265"
     cy="467.91885"
     cx="373.24265"
     gradientTransform="matrix(0.83393192,2.4025531e-7,-2.452288e-7,0.76469446,-575.89311,126.3946)"
     gradientUnits="userSpaceOnUse"
     id="radialGradient2894-5"
     xlink:href="#linearGradient5443-0"
     inkscape:collect="always" /><linearGradient
     y2="254.73526"
     x2="123.47623"
     y1="344.03848"
     x1="123.50603"
     gradientTransform="matrix(2.3189708,0,0,2.0930998,-543.56606,-225.82362)"
     gradientUnits="userSpaceOnUse"
     id="linearGradient2892-2"
     xlink:href="#linearGradient3187-1"
     inkscape:collect="always" /><radialGradient
     r="333.18735"
     fy="710.99164"
     fx="373.24265"
     cy="710.99164"
     cx="373.24265"
     gradientTransform="matrix(0.8612608,1.0093481e-7,-5.1010329e-8,0.29743416,-586.09339,395.79293)"
     gradientUnits="userSpaceOnUse"
     id="radialGradient2890-7"
     xlink:href="#linearGradient5443-0"
     inkscape:collect="always" /><linearGradient
     id="linearGradient5443-5-6"><stop
       style="stop-color:#ffffff;stop-opacity:0;"
       offset="0"
       id="stop5445-4-1" /><stop
       style="stop-color:#000000;stop-opacity:0.33962265;"
       offset="1"
       id="stop5447-3-4" /></linearGradient><radialGradient
     r="333.18735"
     fy="710.99164"
     fx="373.24265"
     cy="710.99164"
     cx="373.24265"
     gradientTransform="matrix(0.9503534,1.1750652e-7,-5.6287062e-8,0.3462676,317.80591,185.68771)"
     gradientUnits="userSpaceOnUse"
     id="radialGradient4835-3-2"
     xlink:href="#linearGradient5443-5-6"
     inkscape:collect="always" /><radialGradient
     r="333.18735"
     fy="710.99164"
     fx="373.24265"
     cy="710.99164"
     cx="373.24265"
     gradientTransform="matrix(0.8612608,1.0093481e-7,-5.1010329e-8,0.29743416,-586.09339,395.79293)"
     gradientUnits="userSpaceOnUse"
     id="radialGradient4835-2"
     xlink:href="#linearGradient5443-0"
     inkscape:collect="always" /><radialGradient
     r="333.18735"
     fy="467.91885"
     fx="373.24265"
     cy="467.91885"
     cx="373.24265"
     gradientTransform="matrix(0.83393192,2.4025531e-7,-2.452288e-7,0.76469446,-575.89311,126.3946)"
     gradientUnits="userSpaceOnUse"
     id="radialGradient4832-1"
     xlink:href="#linearGradient5443-0"
     inkscape:collect="always" /><linearGradient
     y2="254.73526"
     x2="123.47623"
     y1="344.03848"
     x1="123.50603"
     gradientTransform="matrix(2.3189708,0,0,2.0930998,-543.56606,-225.82362)"
     gradientUnits="userSpaceOnUse"
     id="linearGradient4827-6"
     xlink:href="#linearGradient3187-1"
     inkscape:collect="always" /><linearGradient
     y2="254.73526"
     x2="123.47623"
     y1="344.03848"
     x1="123.50603"
     gradientTransform="matrix(2.3189708,0,0,2.0930998,93.115298,-256.84999)"
     gradientUnits="userSpaceOnUse"
     id="linearGradient4824-8"
     xlink:href="#linearGradient3187-1"
     inkscape:collect="always" /><radialGradient
     r="333.18735"
     fy="467.91885"
     fx="373.24265"
     cy="467.91885"
     cx="373.24265"
     gradientTransform="matrix(0.9201975,2.7970099e-7,-2.7059634e-7,0.8902438,28.590287,48.634335)"
     gradientUnits="userSpaceOnUse"
     id="radialGradient4822-5"
     xlink:href="#linearGradient3171-6"
     inkscape:collect="always" /><radialGradient
     r="333.18735"
     fy="710.99164"
     fx="373.24265"
     cy="710.99164"
     cx="373.24265"
     gradientTransform="matrix(0.9503534,1.1750652e-7,-5.6287062e-8,0.3462676,17.334826,362.44227)"
     gradientUnits="userSpaceOnUse"
     id="radialGradient4820-7"
     xlink:href="#linearGradient3157-2"
     inkscape:collect="always" /><radialGradient
     r="333.18735"
     fy="710.99164"
     fx="373.24265"
     cy="710.99164"
     cx="373.24265"
     gradientTransform="matrix(0.9503534,1.1750652e-7,-5.6287062e-8,0.3462676,17.334826,362.44227)"
     gradientUnits="userSpaceOnUse"
     id="radialGradient4805-6"
     xlink:href="#linearGradient3157-2"
     inkscape:collect="always" /><radialGradient
     r="333.18735"
     fy="467.91885"
     fx="373.24265"
     cy="467.91885"
     cx="373.24265"
     gradientTransform="matrix(0.9201975,2.7970099e-7,-2.7059634e-7,0.8902438,28.590287,48.634335)"
     gradientUnits="userSpaceOnUse"
     id="radialGradient4802-1"
     xlink:href="#linearGradient3171-6"
     inkscape:collect="always" /><linearGradient
     y2="254.73526"
     x2="123.47623"
     y1="344.03848"
     x1="123.50603"
     gradientTransform="matrix(2.3189708,0,0,2.0930998,93.115298,-256.84999)"
     gradientUnits="userSpaceOnUse"
     id="linearGradient4799-8"
     xlink:href="#linearGradient3187-1"
     inkscape:collect="always" /><linearGradient
     y2="254.73526"
     x2="123.47623"
     y1="344.03848"
     x1="123.50603"
     gradientTransform="matrix(2.3189708,0,0,2.0930998,93.115298,-256.84999)"
     gradientUnits="userSpaceOnUse"
     id="linearGradient4794-9"
     xlink:href="#linearGradient3187-1"
     inkscape:collect="always" /><radialGradient
     r="333.18735"
     fy="467.91885"
     fx="373.24265"
     cy="467.91885"
     cx="373.24265"
     gradientTransform="matrix(0.9201975,2.7970099e-7,-2.7059634e-7,0.8902438,28.590287,48.634335)"
     gradientUnits="userSpaceOnUse"
     id="radialGradient4792-2"
     xlink:href="#linearGradient3171-6"
     inkscape:collect="always" /><radialGradient
     r="333.18735"
     fy="710.99164"
     fx="373.24265"
     cy="710.99164"
     cx="373.24265"
     gradientTransform="matrix(0.9503534,1.1750652e-7,-5.6287062e-8,0.3462676,17.334826,362.44227)"
     gradientUnits="userSpaceOnUse"
     id="radialGradient4790-7"
     xlink:href="#linearGradient3157-2"
     inkscape:collect="always" /><radialGradient
     r="333.18735"
     fy="710.99164"
     fx="373.24265"
     cy="710.99164"
     cx="373.24265"
     gradientTransform="matrix(0.9503534,1.1750652e-7,-5.6287062e-8,0.3462676,17.334826,362.44227)"
     gradientUnits="userSpaceOnUse"
     id="radialGradient4779-9"
     xlink:href="#linearGradient3157-2"
     inkscape:collect="always" /><radialGradient
     r="333.18735"
     fy="467.91885"
     fx="373.24265"
     cy="467.91885"
     cx="373.24265"
     gradientTransform="matrix(0.9201975,2.7970099e-7,-2.7059634e-7,0.8902438,28.590287,48.634335)"
     gradientUnits="userSpaceOnUse"
     id="radialGradient4776-5"
     xlink:href="#linearGradient3171-6"
     inkscape:collect="always" /><linearGradient
     y2="254.73526"
     x2="123.47623"
     y1="344.03848"
     x1="123.50603"
     gradientTransform="matrix(2.3189708,0,0,2.0930998,93.115298,-256.84999)"
     gradientUnits="userSpaceOnUse"
     id="linearGradient4773-4"
     xlink:href="#linearGradient3187-1"
     inkscape:collect="always" /><linearGradient
     y2="254.73526"
     x2="123.47623"
     y1="344.03848"
     x1="123.50603"
     gradientTransform="matrix(2.3189708,0,0,2.0930998,93.115298,-256.84999)"
     gradientUnits="userSpaceOnUse"
     id="linearGradient4770-3"
     xlink:href="#linearGradient3187-1"
     inkscape:collect="always" /><radialGradient
     r="333.18735"
     fy="467.91885"
     fx="373.24265"
     cy="467.91885"
     cx="373.24265"
     gradientTransform="matrix(0.9201975,2.7970099e-7,-2.7059634e-7,0.8902438,28.590287,48.634335)"
     gradientUnits="userSpaceOnUse"
     id="radialGradient4768-1"
     xlink:href="#linearGradient3171-6"
     inkscape:collect="always" /><radialGradient
     r="333.18735"
     fy="710.99164"
     fx="373.24265"
     cy="710.99164"
     cx="373.24265"
     gradientTransform="matrix(0.9503534,1.1750652e-7,-5.6287062e-8,0.3462676,17.334826,362.44227)"
     gradientUnits="userSpaceOnUse"
     id="radialGradient4766-2"
     xlink:href="#linearGradient3157-2"
     inkscape:collect="always" /><radialGradient
     r="333.18735"
     fy="710.99164"
     fx="373.24265"
     cy="710.99164"
     cx="373.24265"
     gradientTransform="matrix(0.9503534,1.1750652e-7,-5.6287062e-8,0.3462676,17.334826,362.44227)"
     gradientUnits="userSpaceOnUse"
     id="radialGradient4572-4"
     xlink:href="#linearGradient3157-2"
     inkscape:collect="always" /><radialGradient
     r="333.18735"
     fy="467.91885"
     fx="373.24265"
     cy="467.91885"
     cx="373.24265"
     gradientTransform="matrix(0.9201975,2.7970099e-7,-2.7059634e-7,0.8902438,28.590287,48.634335)"
     gradientUnits="userSpaceOnUse"
     id="radialGradient4569-1"
     xlink:href="#linearGradient3171-6"
     inkscape:collect="always" /><linearGradient
     y2="254.73526"
     x2="123.47623"
     y1="344.03848"
     x1="123.50603"
     gradientTransform="matrix(2.3189708,0,0,2.0930998,93.115298,-256.84999)"
     gradientUnits="userSpaceOnUse"
     id="linearGradient4562-1"
     xlink:href="#linearGradient3187-1"
     inkscape:collect="always" /><linearGradient
     gradientUnits="userSpaceOnUse"
     y2="540.86719"
     x2="360.49777"
     y1="167.50403"
     x1="360.49777"
     id="linearGradient4401-3"
     xlink:href="#linearGradient4395-7"
     inkscape:collect="always" /><linearGradient
     gradientUnits="userSpaceOnUse"
     y2="655.4505"
     x2="396.91168"
     y1="298.59412"
     x1="371.42194"
     id="linearGradient4389-8"
     xlink:href="#linearGradient4383-4"
     inkscape:collect="always" /><inkscape:perspective
     id="perspective3214-7"
     inkscape:persp3d-origin="372.04724 : 350.78739 : 1"
     inkscape:vp_z="744.09448 : 526.18109 : 1"
     inkscape:vp_y="0 : 1000 : 0"
     inkscape:vp_x="0 : 526.18109 : 1"
     sodipodi:type="inkscape:persp3d" /><linearGradient
     id="linearGradient4383-4"><stop
       id="stop4385-2"
       offset="0"
       style="stop-color:#00037f;stop-opacity:1;" /><stop
       id="stop4387-7"
       offset="1"
       style="stop-color:#00037f;stop-opacity:0;" /></linearGradient><linearGradient
     id="linearGradient4395-7"><stop
       id="stop4397-9"
       offset="0"
       style="stop-color:#110084;stop-opacity:1;" /><stop
       id="stop4399-3"
       offset="1"
       style="stop-color:#a695ff;stop-opacity:1;" /></linearGradient><linearGradient
     id="linearGradient3187-1"><stop
       id="stop3189-9"
       offset="0"
       style="stop-color:#ffffff;stop-opacity:0.39622641;" /><stop
       id="stop3191-8"
       offset="1"
       style="stop-color:#000000;stop-opacity:1;" /></linearGradient><linearGradient
     id="linearGradient3171-6"><stop
       style="stop-color:#49bcff;stop-opacity:1;"
       offset="0"
       id="stop3173-5" /><stop
       style="stop-color:#494cdc;stop-opacity:1;"
       offset="1"
       id="stop3175-0" /></linearGradient><linearGradient
     id="linearGradient3157-2"><stop
       id="stop3159-8"
       offset="0"
       style="stop-color:#49bcff;stop-opacity:1;" /><stop
       id="stop3161-6"
       offset="1"
       style="stop-color:#494c96;stop-opacity:1;" /></linearGradient><linearGradient
     id="linearGradient5443-0"><stop
       style="stop-color:#ffffff;stop-opacity:0;"
       offset="0"
       id="stop5445-2" /><stop
       style="stop-color:#000000;stop-opacity:0.33962265;"
       offset="1"
       id="stop5447-4" /></linearGradient><radialGradient
     inkscape:collect="always"
     xlink:href="#linearGradient5443-0"
     id="radialGradient3234"
     gradientUnits="userSpaceOnUse"
     gradientTransform="matrix(0.8612608,1.0093481e-7,-5.1010329e-8,0.29743416,-586.09339,395.79293)"
     cx="373.24265"
     cy="710.99164"
     fx="373.24265"
     fy="710.99164"
     r="333.18735" /><linearGradient
     inkscape:collect="always"
     xlink:href="#linearGradient3187-1"
     id="linearGradient3236"
     gradientUnits="userSpaceOnUse"
     gradientTransform="matrix(2.3189708,0,0,2.0930998,-543.56606,-225.82362)"
     x1="123.50603"
     y1="344.03848"
     x2="123.47623"
     y2="254.73526" /><radialGradient
     inkscape:collect="always"
     xlink:href="#linearGradient5443-0"
     id="radialGradient3238"
     gradientUnits="userSpaceOnUse"
     gradientTransform="matrix(0.83393192,2.4025531e-7,-2.452288e-7,0.76469446,-575.89311,126.3946)"
     cx="373.24265"
     cy="467.91885"
     fx="373.24265"
     fy="467.91885"
     r="333.18735" /><radialGradient
     inkscape:collect="always"
     xlink:href="#linearGradient5443-0"
     id="radialGradient3254"
     gradientUnits="userSpaceOnUse"
     gradientTransform="matrix(0.8612608,1.0093481e-7,-5.1010329e-8,0.29743416,-586.09339,395.79293)"
     cx="373.24265"
     cy="710.99164"
     fx="373.24265"
     fy="710.99164"
     r="333.18735" /><linearGradient
     inkscape:collect="always"
     xlink:href="#linearGradient3187-1"
     id="linearGradient3256"
     gradientUnits="userSpaceOnUse"
     gradientTransform="matrix(2.3189708,0,0,2.0930998,-543.56606,-225.82362)"
     x1="123.50603"
     y1="344.03848"
     x2="123.47623"
     y2="254.73526" /><radialGradient
     inkscape:collect="always"
     xlink:href="#linearGradient5443-0"
     id="radialGradient3258"
     gradientUnits="userSpaceOnUse"
     gradientTransform="matrix(0.83393192,2.4025531e-7,-2.452288e-7,0.76469446,-575.89311,126.3946)"
     cx="373.24265"
     cy="467.91885"
     fx="373.24265"
     fy="467.91885"
     r="333.18735" /><radialGradient
     inkscape:collect="always"
     xlink:href="#linearGradient5443-0"
     id="radialGradient3270"
     gradientUnits="userSpaceOnUse"
     gradientTransform="matrix(0.83535069,2.5391116e-7,-2.4564601e-7,0.80815885,-821.89024,-331.16994)"
     cx="373.24265"
     cy="467.91885"
     fx="373.24265"
     fy="467.91885"
     r="333.18735" /><radialGradient
     inkscape:collect="always"
     xlink:href="#linearGradient5443-0"
     id="radialGradient3274"
     gradientUnits="userSpaceOnUse"
     gradientTransform="matrix(0.86272606,1.0667183e-7,-5.1097113e-8,0.31433999,-832.10787,-46.459305)"
     cx="373.24265"
     cy="710.99164"
     fx="373.24265"
     fy="710.99164"
     r="333.18735" /><linearGradient
     y2="254.73526"
     x2="123.47623"
     y1="344.03848"
     x1="123.50603"
     gradientTransform="matrix(2.3189708,0,0,2.0930998,-543.56606,-225.82362)"
     gradientUnits="userSpaceOnUse"
     id="linearGradient3422"
     xlink:href="#linearGradient3187"
     inkscape:collect="always" /><radialGradient
     r="333.18735"
     fy="710.99164"
     fx="373.24265"
     cy="710.99164"
     cx="373.24265"
     gradientTransform="matrix(0.86272606,1.0667183e-7,-5.1097113e-8,0.31433999,-736.19251,168.72353)"
     gradientUnits="userSpaceOnUse"
     id="radialGradient3416"
     xlink:href="#linearGradient5443"
     inkscape:collect="always" /><radialGradient
     r="333.18735"
     fy="467.91885"
     fx="373.24265"
     cy="467.91885"
     cx="373.24265"
     gradientTransform="matrix(0.83535069,2.5391116e-7,-2.4564601e-7,0.80815885,-725.97492,-115.98714)"
     gradientUnits="userSpaceOnUse"
     id="radialGradient3412"
     xlink:href="#linearGradient5443"
     inkscape:collect="always" /><radialGradient
     r="333.18735"
     fy="467.91885"
     fx="373.24265"
     cy="467.91885"
     cx="373.24265"
     gradientTransform="matrix(0.83393192,2.4025531e-7,-2.452288e-7,0.76469446,-575.89311,126.3946)"
     gradientUnits="userSpaceOnUse"
     id="radialGradient2894"
     xlink:href="#linearGradient5443"
     inkscape:collect="always" /><linearGradient
     y2="254.73526"
     x2="123.47623"
     y1="344.03848"
     x1="123.50603"
     gradientTransform="matrix(2.3189708,0,0,2.0930998,-543.56606,-225.82362)"
     gradientUnits="userSpaceOnUse"
     id="linearGradient2892"
     xlink:href="#linearGradient3187"
     inkscape:collect="always" /><radialGradient
     r="333.18735"
     fy="710.99164"
     fx="373.24265"
     cy="710.99164"
     cx="373.24265"
     gradientTransform="matrix(0.8612608,1.0093481e-7,-5.1010329e-8,0.29743416,-586.09339,395.79293)"
     gradientUnits="userSpaceOnUse"
     id="radialGradient2890"
     xlink:href="#linearGradient5443"
     inkscape:collect="always" /><linearGradient
     id="linearGradient5443-5"><stop
       style="stop-color:#ffffff;stop-opacity:0;"
       offset="0"
       id="stop5445-4" /><stop
       style="stop-color:#000000;stop-opacity:0.33962265;"
       offset="1"
       id="stop5447-3" /></linearGradient><radialGradient
     r="333.18735"
     fy="710.99164"
     fx="373.24265"
     cy="710.99164"
     cx="373.24265"
     gradientTransform="matrix(0.9503534,1.1750652e-7,-5.6287062e-8,0.3462676,317.80591,185.68771)"
     gradientUnits="userSpaceOnUse"
     id="radialGradient4835-3"
     xlink:href="#linearGradient5443-5"
     inkscape:collect="always" /><filter
     color-interpolation-filters="sRGB"
     id="filter5511"
     inkscape:collect="always"><feGaussianBlur
       id="feGaussianBlur5513"
       stdDeviation="3.2374974"
       inkscape:collect="always" /></filter><radialGradient
     r="333.18735"
     fy="710.99164"
     fx="373.24265"
     cy="710.99164"
     cx="373.24265"
     gradientTransform="matrix(0.8612608,1.0093481e-7,-5.1010329e-8,0.29743416,-586.09339,395.79293)"
     gradientUnits="userSpaceOnUse"
     id="radialGradient4835"
     xlink:href="#linearGradient5443"
     inkscape:collect="always" /><radialGradient
     r="333.18735"
     fy="467.91885"
     fx="373.24265"
     cy="467.91885"
     cx="373.24265"
     gradientTransform="matrix(0.83393192,2.4025531e-7,-2.452288e-7,0.76469446,-575.89311,126.3946)"
     gradientUnits="userSpaceOnUse"
     id="radialGradient4832"
     xlink:href="#linearGradient5443"
     inkscape:collect="always" /><linearGradient
     y2="254.73526"
     x2="123.47623"
     y1="344.03848"
     x1="123.50603"
     gradientTransform="matrix(2.3189708,0,0,2.0930998,-543.56606,-225.82362)"
     gradientUnits="userSpaceOnUse"
     id="linearGradient4827"
     xlink:href="#linearGradient3187"
     inkscape:collect="always" /><linearGradient
     y2="254.73526"
     x2="123.47623"
     y1="344.03848"
     x1="123.50603"
     gradientTransform="matrix(2.3189708,0,0,2.0930998,93.115298,-256.84999)"
     gradientUnits="userSpaceOnUse"
     id="linearGradient4824"
     xlink:href="#linearGradient3187"
     inkscape:collect="always" /><radialGradient
     r="333.18735"
     fy="467.91885"
     fx="373.24265"
     cy="467.91885"
     cx="373.24265"
     gradientTransform="matrix(0.9201975,2.7970099e-7,-2.7059634e-7,0.8902438,28.590287,48.634335)"
     gradientUnits="userSpaceOnUse"
     id="radialGradient4822"
     xlink:href="#linearGradient3171"
     inkscape:collect="always" /><radialGradient
     r="333.18735"
     fy="710.99164"
     fx="373.24265"
     cy="710.99164"
     cx="373.24265"
     gradientTransform="matrix(0.9503534,1.1750652e-7,-5.6287062e-8,0.3462676,17.334826,362.44227)"
     gradientUnits="userSpaceOnUse"
     id="radialGradient4820"
     xlink:href="#linearGradient3157"
     inkscape:collect="always" /><radialGradient
     r="333.18735"
     fy="710.99164"
     fx="373.24265"
     cy="710.99164"
     cx="373.24265"
     gradientTransform="matrix(0.9503534,1.1750652e-7,-5.6287062e-8,0.3462676,17.334826,362.44227)"
     gradientUnits="userSpaceOnUse"
     id="radialGradient4805"
     xlink:href="#linearGradient3157"
     inkscape:collect="always" /><radialGradient
     r="333.18735"
     fy="467.91885"
     fx="373.24265"
     cy="467.91885"
     cx="373.24265"
     gradientTransform="matrix(0.9201975,2.7970099e-7,-2.7059634e-7,0.8902438,28.590287,48.634335)"
     gradientUnits="userSpaceOnUse"
     id="radialGradient4802"
     xlink:href="#linearGradient3171"
     inkscape:collect="always" /><linearGradient
     y2="254.73526"
     x2="123.47623"
     y1="344.03848"
     x1="123.50603"
     gradientTransform="matrix(2.3189708,0,0,2.0930998,93.115298,-256.84999)"
     gradientUnits="userSpaceOnUse"
     id="linearGradient4799"
     xlink:href="#linearGradient3187"
     inkscape:collect="always" /><linearGradient
     y2="254.73526"
     x2="123.47623"
     y1="344.03848"
     x1="123.50603"
     gradientTransform="matrix(2.3189708,0,0,2.0930998,93.115298,-256.84999)"
     gradientUnits="userSpaceOnUse"
     id="linearGradient4794"
     xlink:href="#linearGradient3187"
     inkscape:collect="always" /><radialGradient
     r="333.18735"
     fy="467.91885"
     fx="373.24265"
     cy="467.91885"
     cx="373.24265"
     gradientTransform="matrix(0.9201975,2.7970099e-7,-2.7059634e-7,0.8902438,28.590287,48.634335)"
     gradientUnits="userSpaceOnUse"
     id="radialGradient4792"
     xlink:href="#linearGradient3171"
     inkscape:collect="always" /><radialGradient
     r="333.18735"
     fy="710.99164"
     fx="373.24265"
     cy="710.99164"
     cx="373.24265"
     gradientTransform="matrix(0.9503534,1.1750652e-7,-5.6287062e-8,0.3462676,17.334826,362.44227)"
     gradientUnits="userSpaceOnUse"
     id="radialGradient4790"
     xlink:href="#linearGradient3157"
     inkscape:collect="always" /><radialGradient
     r="333.18735"
     fy="710.99164"
     fx="373.24265"
     cy="710.99164"
     cx="373.24265"
     gradientTransform="matrix(0.9503534,1.1750652e-7,-5.6287062e-8,0.3462676,17.334826,362.44227)"
     gradientUnits="userSpaceOnUse"
     id="radialGradient4779"
     xlink:href="#linearGradient3157"
     inkscape:collect="always" /><radialGradient
     r="333.18735"
     fy="467.91885"
     fx="373.24265"
     cy="467.91885"
     cx="373.24265"
     gradientTransform="matrix(0.9201975,2.7970099e-7,-2.7059634e-7,0.8902438,28.590287,48.634335)"
     gradientUnits="userSpaceOnUse"
     id="radialGradient4776"
     xlink:href="#linearGradient3171"
     inkscape:collect="always" /><linearGradient
     y2="254.73526"
     x2="123.47623"
     y1="344.03848"
     x1="123.50603"
     gradientTransform="matrix(2.3189708,0,0,2.0930998,93.115298,-256.84999)"
     gradientUnits="userSpaceOnUse"
     id="linearGradient4773"
     xlink:href="#linearGradient3187"
     inkscape:collect="always" /><linearGradient
     y2="254.73526"
     x2="123.47623"
     y1="344.03848"
     x1="123.50603"
     gradientTransform="matrix(2.3189708,0,0,2.0930998,93.115298,-256.84999)"
     gradientUnits="userSpaceOnUse"
     id="linearGradient4770"
     xlink:href="#linearGradient3187"
     inkscape:collect="always" /><radialGradient
     r="333.18735"
     fy="467.91885"
     fx="373.24265"
     cy="467.91885"
     cx="373.24265"
     gradientTransform="matrix(0.9201975,2.7970099e-7,-2.7059634e-7,0.8902438,28.590287,48.634335)"
     gradientUnits="userSpaceOnUse"
     id="radialGradient4768"
     xlink:href="#linearGradient3171"
     inkscape:collect="always" /><radialGradient
     r="333.18735"
     fy="710.99164"
     fx="373.24265"
     cy="710.99164"
     cx="373.24265"
     gradientTransform="matrix(0.9503534,1.1750652e-7,-5.6287062e-8,0.3462676,17.334826,362.44227)"
     gradientUnits="userSpaceOnUse"
     id="radialGradient4766"
     xlink:href="#linearGradient3157"
     inkscape:collect="always" /><filter
     color-interpolation-filters="sRGB"
     id="filter4659"
     inkscape:collect="always"><feGaussianBlur
       id="feGaussianBlur4661"
       stdDeviation="2.7750933"
       inkscape:collect="always" /></filter><radialGradient
     r="333.18735"
     fy="710.99164"
     fx="373.24265"
     cy="710.99164"
     cx="373.24265"
     gradientTransform="matrix(0.9503534,1.1750652e-7,-5.6287062e-8,0.3462676,17.334826,362.44227)"
     gradientUnits="userSpaceOnUse"
     id="radialGradient4572"
     xlink:href="#linearGradient3157"
     inkscape:collect="always" /><radialGradient
     r="333.18735"
     fy="467.91885"
     fx="373.24265"
     cy="467.91885"
     cx="373.24265"
     gradientTransform="matrix(0.9201975,2.7970099e-7,-2.7059634e-7,0.8902438,28.590287,48.634335)"
     gradientUnits="userSpaceOnUse"
     id="radialGradient4569"
     xlink:href="#linearGradient3171"
     inkscape:collect="always" /><linearGradient
     y2="254.73526"
     x2="123.47623"
     y1="344.03848"
     x1="123.50603"
     gradientTransform="matrix(2.3189708,0,0,2.0930998,93.115298,-256.84999)"
     gradientUnits="userSpaceOnUse"
     id="linearGradient4562"
     xlink:href="#linearGradient3187"
     inkscape:collect="always" /><linearGradient
     gradientUnits="userSpaceOnUse"
     y2="540.86719"
     x2="360.49777"
     y1="167.50403"
     x1="360.49777"
     id="linearGradient4401"
     xlink:href="#linearGradient4395"
     inkscape:collect="always" /><linearGradient
     gradientUnits="userSpaceOnUse"
     y2="655.4505"
     x2="396.91168"
     y1="298.59412"
     x1="371.42194"
     id="linearGradient4389"
     xlink:href="#linearGradient4383"
     inkscape:collect="always" /><inkscape:perspective
     id="perspective3214"
     inkscape:persp3d-origin="372.04724 : 350.78739 : 1"
     inkscape:vp_z="744.09448 : 526.18109 : 1"
     inkscape:vp_y="0 : 1000 : 0"
     inkscape:vp_x="0 : 526.18109 : 1"
     sodipodi:type="inkscape:persp3d" /><linearGradient
     id="linearGradient4383"><stop
       id="stop4385"
       offset="0"
       style="stop-color:#00037f;stop-opacity:1;" /><stop
       id="stop4387"
       offset="1"
       style="stop-color:#00037f;stop-opacity:0;" /></linearGradient><linearGradient
     id="linearGradient4395"><stop
       id="stop4397"
       offset="0"
       style="stop-color:#110084;stop-opacity:1;" /><stop
       id="stop4399"
       offset="1"
       style="stop-color:#a695ff;stop-opacity:1;" /></linearGradient><linearGradient
     id="linearGradient3187"><stop
       id="stop3189"
       offset="0"
       style="stop-color:#ffffff;stop-opacity:0.39622641;" /><stop
       id="stop3191"
       offset="1"
       style="stop-color:#9e9e9e;stop-opacity:1;" /></linearGradient><linearGradient
     id="linearGradient3171"><stop
       style="stop-color:#49bcff;stop-opacity:1;"
       offset="0"
       id="stop3173" /><stop
       style="stop-color:#494cdc;stop-opacity:1;"
       offset="1"
       id="stop3175" /></linearGradient><linearGradient
     id="linearGradient3157"><stop
       id="stop3159"
       offset="0"
       style="stop-color:#49bcff;stop-opacity:1;" /><stop
       id="stop3161"
       offset="1"
       style="stop-color:#494c96;stop-opacity:1;" /></linearGradient><linearGradient
     id="linearGradient5443"><stop
       style="stop-color:#ffffff;stop-opacity:0;"
       offset="0"
       id="stop5445" /><stop
       style="stop-color:#cbcac8;stop-opacity:1;"
       offset="1"
       id="stop5447" /></linearGradient><radialGradient
     inkscape:collect="always"
     xlink:href="#linearGradient5443"
     id="radialGradient3253"
     gradientUnits="userSpaceOnUse"
     gradientTransform="matrix(0.8612608,1.0093481e-7,-5.1010329e-8,0.29743416,-586.09339,395.79293)"
     cx="373.24265"
     cy="710.99164"
     fx="373.24265"
     fy="710.99164"
     r="333.18735" /><linearGradient
     inkscape:collect="always"
     xlink:href="#linearGradient3187"
     id="linearGradient3255"
     gradientUnits="userSpaceOnUse"
     gradientTransform="matrix(2.3189708,0,0,2.0930998,-543.56606,-225.82362)"
     x1="123.50603"
     y1="344.03848"
     x2="123.47623"
     y2="254.73526" /><radialGradient
     inkscape:collect="always"
     xlink:href="#linearGradient5443"
     id="radialGradient3257"
     gradientUnits="userSpaceOnUse"
     gradientTransform="matrix(0.83393192,2.4025531e-7,-2.452288e-7,0.76469446,-575.89311,126.3946)"
     cx="373.24265"
     cy="467.91885"
     fx="373.24265"
     fy="467.91885"
     r="333.18735" /><radialGradient
     inkscape:collect="always"
     xlink:href="#linearGradient5443"
     id="radialGradient3273"
     gradientUnits="userSpaceOnUse"
     gradientTransform="matrix(0.8612608,1.0093481e-7,-5.1010329e-8,0.29743416,-586.09339,395.79293)"
     cx="373.24265"
     cy="710.99164"
     fx="373.24265"
     fy="710.99164"
     r="333.18735" /><linearGradient
     inkscape:collect="always"
     xlink:href="#linearGradient3187"
     id="linearGradient3275"
     gradientUnits="userSpaceOnUse"
     gradientTransform="matrix(2.3189708,0,0,2.0930998,-543.56606,-225.82362)"
     x1="123.50603"
     y1="344.03848"
     x2="123.47623"
     y2="254.73526" /><radialGradient
     inkscape:collect="always"
     xlink:href="#linearGradient5443"
     id="radialGradient3277"
     gradientUnits="userSpaceOnUse"
     gradientTransform="matrix(0.83393192,2.4025531e-7,-2.452288e-7,0.76469446,-575.89311,126.3946)"
     cx="373.24265"
     cy="467.91885"
     fx="373.24265"
     fy="467.91885"
     r="333.18735" /></defs><sodipodi:namedview
   pagecolor="#ffffff"
   bordercolor="#666666"
   borderopacity="1"
   objecttolerance="10"
   gridtolerance="10"
   guidetolerance="10"
   inkscape:pageopacity="0"
   inkscape:pageshadow="2"
   inkscape:window-width="1920"
   inkscape:window-height="1031"
   id="namedview84"
   showgrid="false"
   fit-margin-top="0"
   fit-margin-left="0"
   fit-margin-right="0"
   fit-margin-bottom="0"
   inkscape:zoom="1.1919192"
   inkscape:cx="378.44257"
   inkscape:cy="110.56972"
   inkscape:window-x="-4"
   inkscape:window-y="-4"
   inkscape:window-maximized="1"
   inkscape:current-layer="_x31_" />

<g
   id="g4247"
   transform="translate(-4.0524846e-6,1.5294449e-7)"><g
     transform="translate(589.18636,-87.165827)"
     id="g4448"><rect
       transform="matrix(2.1051501,0,0,2.1051501,-860.18934,-1.2010596)"
       ry="12.45238"
       rx="16.067965"
       y="48.636749"
       x="135.39355"
       height="152.93848"
       width="152.93848"
       id="rect4192"
       style="fill:#cccccc;fill-opacity:1;stroke:none;filter:url(#filter4659)"
       inkscape:export-filename="C:\Documents and Settings\adscro24\Desktop\128.png"
       inkscape:export-xdpi="29.879425"
       inkscape:export-ydpi="29.879425" /><rect
       inkscape:export-ydpi="29.879425"
       inkscape:export-xdpi="29.879425"
       inkscape:export-filename="C:\Documents and Settings\adscro24\Desktop\128.png"
       style="fill:#cbcac8;fill-opacity:1;stroke:none;filter:url(#filter4659)"
       id="rect3279"
       width="152.93848"
       height="152.93848"
       x="135.39355"
       y="48.636749"
       rx="16.067965"
       ry="12.45238"
       transform="matrix(2.1051501,0,0,2.1051501,-860.18934,-1.2010596)" /><rect
       inkscape:export-ydpi="29.879425"
       inkscape:export-xdpi="29.879425"
       inkscape:export-filename="C:\Documents and Settings\adscro24\Desktop\128.png"
       style="opacity:0.61338286;fill:url(#radialGradient4456);fill-opacity:1;stroke:#000000;stroke-width:3.26806188;stroke-miterlimit:4;stroke-opacity:1;stroke-dasharray:none"
       id="rect3155"
       width="321.95847"
       height="321.95844"
       x="-575.16559"
       y="101.18661"
       rx="33.825478"
       ry="26.214128" /><path
       transform="matrix(0.907795,0,0,0.90779498,-173.95283,-177.39738)"
       inkscape:export-ydpi="29.879425"
       inkscape:export-xdpi="29.879425"
       inkscape:export-filename="C:\Documents and Settings\adscro24\Desktop\128.png"
       inkscape:connector-curvature="0"
       style="opacity:0.61338286;fill:url(#linearGradient4458);fill-opacity:1;stroke:none;filter:url(#filter5511)"
       d="m -397.80626,329.07489 c -19.62748,0 -35.44272,12.0976 -35.44272,27.14163 l 0,124.30857 c 29.25482,11.38638 132.70149,11.89599 165.40488,-5.79022 33.32802,-18.02397 127.54379,-68.44264 171.824837,-52.72052 l 0,-65.79783 c 0,-15.04403 -15.798597,-27.14163 -35.426097,-27.14163 l -266.3609,0 z m -35.44272,263.47103 0,42.88373 c 0,1.33144 0.14331,2.63588 0.38253,3.915 -0.11919,-12.81092 -0.25965,-28.88939 -0.38253,-46.79873 z"
       id="rect3177" /><rect
       inkscape:export-ydpi="29.879425"
       inkscape:export-xdpi="29.879425"
       inkscape:export-filename="C:\Documents and Settings\adscro24\Desktop\128.png"
       style="opacity:0.61338286;fill:url(#radialGradient4460);fill-opacity:1;stroke:#ffffff;stroke-width:0.68992418;stroke-linecap:square;stroke-miterlimit:4;stroke-opacity:1;stroke-dasharray:none"
       id="rect3473"
       width="306.12445"
       height="306.12445"
       x="-567.2486"
       y="109.1036"
       rx="32.161926"
       ry="24.924911" /><rect
       inkscape:export-ydpi="29.879425"
       inkscape:export-xdpi="29.879425"
       inkscape:export-filename="C:\Documents and Settings\adscro24\Desktop\128.png"
       style="opacity:0.61338286;fill:#ffffff;fill-opacity:0;stroke:#000000;stroke-width:3.26806188;stroke-miterlimit:4;stroke-opacity:1;stroke-dasharray:none"
       id="rect3155-2"
       width="321.95847"
       height="321.95844"
       x="-575.16559"
       y="101.18661"
       rx="33.825478"
       ry="26.214128" /></g><g
     transform="translate(358.29183,-87.165827)"
     id="LWPOLYLINE_2_-7">
	
		
</g><g
     transform="translate(358.29183,-87.165827)"
     id="LWPOLYLINE_3_-4">
	
		
</g><g
     transform="translate(358.29183,-87.165827)"
     id="LWPOLYLINE_4_-0">
	
		
</g><g
     transform="translate(184.65055,-351.95215)"
     style="fill:#000000;fill-opacity:1;stroke:none"
     id="LWPOLYLINE_6_-7">
	
		
</g><g
     transform="translate(184.65055,-351.95215)"
     style="fill:#000000;fill-opacity:1;stroke:none"
     id="LWPOLYLINE-4">
	
		
</g><g
     transform="translate(184.65055,-351.95215)"
     style="fill:#000000;fill-opacity:1;stroke:none"
     id="LWPOLYLINE_3_-0">
	
		
</g></g><g
   id="LWPOLYLINE_1_"
   style="fill:#000000;fill-opacity:1;stroke:none"
   transform="translate(197.76331,-98.845726)">
	
		
</g>


<g
   id="LWPOLYLINE_4_"
   style="fill:#000000;fill-opacity:1;stroke:none"
   transform="translate(197.76331,-98.845726)">
	
		
</g>
<g
   id="LWPOLYLINE_5_"
   style="fill:#000000;fill-opacity:1;stroke:none"
   transform="translate(197.76331,-98.845726)">
	
		
</g>




<g
   id="LWPOLYLINE_10_"
   style="fill:#000000;fill-opacity:1;stroke:none"
   transform="translate(197.76331,-98.845726)">
	
		
</g>




<g
   id="g4262"
   transform="matrix(0.4999945,0,0,0.4999945,21.751186,-22.748955)"><g
     style="fill:#000000;fill-opacity:1;stroke:none"
     id="LWPOLYLINE_6_">
	
		<path
   id="path22"
   d="m 328.3125,421.75 0,92 0.3125,0 0.375,0 0.1875,0 0.28125,0 0.28125,0 0.3125,0 0.3125,0 0.34375,0 0.34375,0 0.375,0 0.40625,0 0.375,0 0.4375,0 0.375,0 0.4375,0 0.40625,0 0.40625,0 0.40625,0 0.4375,0 0.40625,0 0.375,0 0.375,0 0.40625,0 0.34375,0 0.34375,0 0.3125,0 0.3125,0 0.28125,0 0.25,0 0.1875,0 0.40625,0 0.21875,0 c 0.077,-0.078 0.0937,-0.25 0.0937,-0.25 l 0,-0.40625 0,-0.5 0,-0.625 0,-0.75 0,-0.875 0,-0.90625 0,-1.09375 0,-1.125 0,-1.25 0,-1.28125 0,-1.34375 0,-1.40625 0,-1.46875 0,-1.5 0,-1.53125 0,-1.53125 0,-1.59375 0,-1.5625 0,-1.59375 0,-1.53125 0,-1.59375 0,-1.5 0,-1.53125 0,-1.4375 0,-1.40625 0,-1.375 0,-1.28125 0,-1.1875 0,-1.15625 0,-1.0625 0,-0.96875 0,-0.84375 0,-0.75 0,-0.65625 0,-0.5 0,-0.34375 0,-0.21875 c 0.078,-0.078 0.21875,-0.0937 0.21875,-0.0937 l 0.34375,0 0.25,0 0.28125,0 0.28125,0 0.375,0 0.34375,0 0.375,0 0.4375,0 0.4375,0 0.4375,0 0.46875,0 0.46875,0 0.5,0 0.5,0 0.53125,0 0.5,0 0.5,0 0.5,0 0.5,0 0.5,0 0.46875,0 0.46875,0 0.46875,0 0.40625,0 0.4375,0 0.375,0 0.375,0 0.34375,0 0.3125,0 0.25,0 0.25,0 0.1875,0 0.3125,0 0.375,0 0.3125,0 0.34375,0 0.375,0 0.375,0.0312 0.34375,0 0.40625,0 0.40625,0.0625 0.40625,0.0312 0.40625,0.0312 0.4375,0.0625 0.4375,0.0937 0.40625,0.0625 0.4375,0.0937 0.4375,0.125 0.40625,0.0937 0.4375,0.15625 0.4375,0.15625 0.40625,0.1875 0.4375,0.21875 0.40625,0.1875 0.40625,0.25 0.375,0.25 0.40625,0.3125 0.375,0.3125 0.375,0.34375 0.375,0.34375 0.3125,0.40625 0.34375,0.40625 0.3125,0.46875 0.25,0.46875 0.28125,0.53125 0.21875,0.5625 0.25,0.5625 0.21875,0.625 0.15625,0.65625 0.15625,0.6875 0.15625,0.75 0.0937,0.78125 0.0625,0.8125 0.0937,0.875 0.0312,0.90625 0.0312,0.875 0.0312,0.90625 0.0625,0.875 0.0312,0.90625 0.0312,0.84375 0.0312,0.90625 0,0.875 0.0625,0.875 0.0312,0.875 0,0.84375 0.0312,0.875 0.0312,0.84375 0.0312,0.84375 0,0.8125 0.0625,0.875 0.0312,0.8125 0.0312,0.8125 0.0312,0.8125 0.0625,0.8125 0.0625,0.78125 0.0312,0.75 0.0937,0.78125 0.0625,0.78125 0.0937,0.71875 0.0625,0.75 0.0937,0.75 0.0937,0.6875 0.125,0.6875 0.125,0.6875 0.125,0.6875 0.15625,0.65625 0.15625,0.65625 0.125,0.625 0.15625,0.59375 0.21875,0.59375 0.21875,0.59375 0.1875,0.53125 0.25,0.53125 0.1875,0 0.34375,0 0.21875,0 0.28125,0 0.28125,0 0.3125,0 0.34375,0 0.375,0 0.40625,0 0.40625,0 0.40625,0 0.46875,0 0.4375,0 0.4375,0 0.5,0 0.46875,0 0.46875,0 0.46875,0 0.46875,0 0.5,0 0.4375,0 0.4375,0 0.46875,0 0.40625,0 0.40625,0 0.40625,0 0.375,0 0.34375,0 0.3125,0 0.28125,0 0.28125,0 0.21875,0 0.34375,0 0.1875,0 -0.1875,-0.46875 -0.15625,-0.53125 -0.15625,-0.53125 -0.15625,-0.5625 -0.15625,-0.625 -0.15625,-0.59375 -0.125,-0.625 -0.125,-0.65625 -0.15625,-0.65625 -0.125,-0.71875 -0.125,-0.65625 -0.0937,-0.71875 -0.125,-0.71875 -0.0625,-0.71875 -0.125,-0.75 -0.125,-0.6875 -0.0625,-0.75 -0.0937,-0.71875 -0.0625,-0.75 -0.0937,-0.71875 -0.0625,-0.75 -0.0937,-0.6875 -0.0312,-0.75 -0.0625,-0.6875 -0.0625,-0.6875 -0.0625,-0.65625 -0.0312,-0.65625 -0.0625,-0.65625 -0.0312,-0.625 -0.0312,-0.625 -0.0312,-0.59375 0,-0.5625 -0.0625,-0.5625 -0.0312,-0.5 0,-0.5 0,-0.4375 -0.0312,-0.40625 0,-0.40625 0,-0.34375 0,-0.3125 -0.0937,-1.34375 -0.0625,-1.28125 -0.0625,-1.25 -0.125,-1.15625 -0.125,-1.15625 -0.125,-1.0625 -0.15625,-1.03125 -0.15625,-0.96875 -0.125,-0.96875 -0.21875,-0.90625 -0.1875,-0.8125 -0.21875,-0.8125 -0.25,-0.75 -0.21875,-0.75 -0.28125,-0.6875 -0.25,-0.65625 -0.3433,-0.5935 -0.3125,-0.625 -0.34375,-0.53125 -0.3125,-0.5 -0.40625,-0.5 -0.375,-0.46875 -0.375,-0.4375 -0.4375,-0.4375 -0.4375,-0.375 -0.46875,-0.34375 -0.5,-0.34375 -0.5,-0.3125 -0.5,-0.3125 L 370.625,467.53125 370.0625,467.25 369.5,467 l -0.625,-0.25 -0.625,-0.21875 -0.65625,-0.1875 -0.65625,-0.1875 -0.6875,-0.25 -0.71875,-0.15625 -0.78125,-0.1875 -0.71875,-0.1875 0.78125,-0.125 0.71875,-0.15625 0.75,-0.1875 0.71875,-0.25 0.71875,-0.21875 0.6875,-0.21875 0.65625,-0.3125 0.65625,-0.28125 0.625,-0.34375 0.625,-0.34375 0.625,-0.40625 0.5625,-0.375 0.59375,-0.40625 0.53125,-0.4375 0.53125,-0.4375 0.53125,-0.46875 0.5,-0.5 0.46875,-0.5 0.46875,-0.5625 0.4375,-0.53125 0.4375,-0.53125 0.375,-0.59375 0.40625,-0.5625 0.34375,-0.625 0.34375,-0.625 0.3125,-0.625 0.3125,-0.65625 0.28125,-0.65625 0.25,-0.65625 0.25,-0.71875 0.21875,-0.6875 0.1875,-0.6875 0.15625,-0.6875 0.15625,-0.75 0.125,-0.75 0.125,-0.71875 0.0625,-0.75 0.0937,-0.75 0.0312,-0.75 0,-0.78125 0,-0.875 -0.0312,-0.90625 -0.0937,-0.875 -0.0625,-0.90625 -0.0937,-0.84375 -0.0937,-0.84375 -0.15625,-0.875 -0.15625,-0.84375 -0.21875,-0.84375 -0.21875,-0.8125 -0.21875,-0.8125 -0.28125,-0.78125 -0.3125,-0.78125 -0.3125,-0.78125 -0.34375,-0.71875 -0.40625,-0.75 -0.375,-0.71875 -0.4375,-0.65625 -0.4375,-0.71875 -0.53125,-0.65625 -0.5,-0.625 -0.5625,-0.5625 -0.59375,-0.59375 -0.5625,-0.5625 L 373,425.875 l -0.6875,-0.5 -0.6875,-0.5 -0.75,-0.40625 -0.78125,-0.4375 -0.8125,-0.375 -0.84375,-0.375 -0.84375,-0.3125 -0.9375,-0.25 -0.9375,-0.28125 -1,-0.1875 -1,-0.1875 -1.0625,-0.15625 -1.125,-0.0937 -1.125,-0.0625 -1.15625,0 -0.21875,0 -0.28125,0 -0.34375,0 -0.46875,0 -0.5625,0 -0.625,0 -0.71875,0 -0.75,0 -0.875,0 -0.875,0 -0.96875,0 -0.96875,0 -1.0625,0 -1.0625,0 -1.09375,0 -1.125,0 -1.15625,0 -1.15625,0 -1.125,0 -1.1875,0 -1.15625,0 -1.15625,0 -1.125,0 -1.09375,0 -1.0625,0 -1.0625,0 -0.96875,0 -0.96875,0 -0.875,0 -0.875,0 -0.78125,0 -0.6875,0 -0.625,0 -0.53125,0 -0.46875,0 -0.375,0 -0.28125,0 -0.21875,0 z m 11.125,10.28125 0.25,0 0.25,0 0.21875,0 0.3125,0 0.34375,0 0.4375,0 0.4375,0 0.4375,0 0.53125,0 0.53125,0 0.5625,0 0.59375,0 0.59375,0 0.65625,0 0.625,0 0.65625,0 0.59375,0 0.6875,0 0.65625,0 0.65625,0 0.65625,0 0.625,0 0.59375,0 0.625,0 0.59375,0 0.53125,0 0.5625,0 0.5,0 0.46875,0 0.4375,0 0.40625,0 0.34375,0 0.3125,0 0.28125,0 0.1875,0 0.28125,0 0.65625,0 0.59375,0.0625 0.625,0.0625 0.59375,0.0937 0.53125,0.0937 0.5625,0.15625 0.53125,0.15625 0.5,0.15625 0.46875,0.25 0.5,0.1875 0.4375,0.25 0.40625,0.25 0.4375,0.28125 0.375,0.28125 0.40625,0.3125 0.34375,0.3125 0.34375,0.375 0.3125,0.34375 0.3125,0.375 0.3125,0.40625 0.28125,0.375 0.21875,0.375 0.28125,0.4375 0.1875,0.4375 0.21875,0.40625 0.21875,0.4375 0.1875,0.46875 0.15625,0.46875 0.15625,0.46875 0.0937,0.4375 0.15625,0.46875 0.0937,0.46875 0.0937,0.46875 0.0937,0.5 0.0625,0.46875 0.0625,0.5 0.0312,0.46875 0.0312,0.46875 0.0312,0.5 0,0.46875 0,0.65625 -0.0312,0.65625 -0.0312,0.625 -0.0312,0.625 -0.0937,0.625 -0.0625,0.59375 -0.125,0.625 -0.125,0.59375 -0.0937,0.5625 -0.15625,0.59375 -0.15625,0.59375 -0.15625,0.53125 -0.1875,0.53125 -0.21875,0.53125 -0.21875,0.53125 -0.1875,0.5 -0.28125,0.46875 -0.28125,0.46875 -0.25,0.46875 -0.28125,0.40625 -0.3125,0.4375 -0.3125,0.4375 -0.34375,0.375 -0.34375,0.34375 -0.34375,0.40625 -0.40625,0.3125 -0.375,0.28125 -0.4375,0.3125 -0.40625,0.28125 -0.4375,0.21875 -0.46875,0.25 -0.46875,0.21875 -0.46875,0.21875 -0.5,0.125 -0.53125,0.125 -0.5,0.125 -0.5625,0.125 -0.5625,0.0312 -0.5625,0.0312 -0.59375,0.0312 -0.28125,0 -0.1875,0 -0.28125,0 -0.3125,0 -0.34375,0 -0.40625,0 -0.4375,0 -0.46875,0 -0.5,0 -0.5625,0 -0.53125,0 -0.59375,0 -0.625,0 -0.59375,0 -0.625,0 -0.65625,0 -0.65625,0 -0.65625,0 -0.6875,0 -0.59375,0 -0.65625,0 -0.625,0 -0.65625,0 -0.59375,0 -0.59375,0 -0.5625,0 -0.53125,0 -0.53125,0 -0.4375,0 -0.4375,0 -0.4375,0 -0.34375,0 -0.3125,0 -0.21875,0 -0.25,0 -0.21875,0 c -0.039,-0.002 -0.0312,-29.375 -0.0312,-29.375 z"
   style="fill:#000000;fill-opacity:1;stroke:none"
   inkscape:connector-curvature="0" />
</g><g
     style="fill:#000000;fill-opacity:1;stroke:none"
     id="ARC_2_">
	
		<path
   id="path79"
   d="m 183.28125,274.90625 c 5.395,65.96601 63.0965,115.22325 129.0625,110.03125 58.74,-4.649 105.39574,-51.31024 110.21875,-110.03125 l -239.28125,0 z m 22.28125,18.6875 194.71875,0 c -9.99649,33.14701 -36.1,59.266 -69.5,68.875 -53.568,15.383 -109.44875,-15.55999 -125.21875,-68.875 z"
   style="fill:#000000;fill-opacity:1;stroke:none"
   inkscape:connector-curvature="0" />
</g><g
     style="fill:#000000;fill-opacity:1;stroke:none"
     id="LWPOLYLINE">
	
		<path
   id="path4"
   d="m 143.5,421.75 c -0.087,-10e-4 -28.65625,92 -28.65625,92 l 0.34375,0 0.40625,0 0.21875,0 0.28125,0 0.3125,0 0.3125,0 0.34375,0 0.375,0 0.375,0 0.375,0 0.4375,0 0.40625,0 0.4375,0 0.4375,0 0.4375,0 0.46875,0 0.4375,0 0.4375,0 0.4375,0 0.4375,0 0.4375,0 0.40625,0 0.40625,0 0.375,0 0.375,0 0.34375,0 0.3125,0 0.3125,0 0.25,0 0.25,0 0.21875,0 0.3125,0 c 0.194,0 0.1875,-0.0312 0.1875,-0.0312 0.038,-0.116 0.125,-0.3125 0.125,-0.3125 l 0.0937,-0.25 0.0937,-0.3125 0.125,-0.40625 0.125,-0.46875 0.1875,-0.5 0.1875,-0.5625 0.1875,-0.59375 0.21875,-0.65625 0.1875,-0.65625 0.25,-0.75 0.21875,-0.71875 0.25,-0.78125 0.25,-0.78125 0.28125,-0.8125 0.25,-0.8125 0.28125,-0.84375 0.25,-0.8125 0.28125,-0.875 0.25,-0.8125 0.28125,-0.8125 0.25,-0.8125 0.28125,-0.8125 0.21875,-0.71875 0.25,-0.78125 0.25,-0.6875 0.1875,-0.71875 0.21875,-0.59375 0.1875,-0.625 0.1875,-0.5625 0.15625,-0.5 0.15625,-0.46875 0.125,-0.375 0.0937,-0.34375 0.0937,-0.28125 c 0.078,-0.194 0.0937,-0.3125 0.0937,-0.3125 0.078,-0.038 0.28125,-0.0312 0.28125,-0.0312 l 0.28125,0 0.40625,0 0.53125,0 0.59375,0 0.6875,0 0.78125,0 0.875,0 0.90625,0 1,0 1.0625,0 1.0625,0 1.15625,0 1.1875,0 1.21875,0 1.25,0 1.25,0 1.28125,0 1.28125,0 1.28125,0 1.25,0 1.25,0 1.25,0 1.21875,0 1.1875,0 1.125,0 1.125,0 1.03125,0 1,0 0.90625,0 0.875,0 0.78125,0 0.6875,0 0.625,0 0.5,0 0.40625,0 0.3125,0 0.21875,0 c 0.058,0.154 0.125,0.34375 0.125,0.34375 l 0.0625,0.28125 0.125,0.34375 0.0937,0.375 0.125,0.46875 0.15625,0.5 0.15625,0.5625 0.15625,0.625 0.1875,0.59375 0.1875,0.71875 0.21875,0.6875 0.21875,0.78125 0.21875,0.71875 0.21875,0.8125 0.25,0.8125 0.21875,0.8125 0.21875,0.8125 0.25,0.875 0.25,0.8125 0.21875,0.84375 0.25,0.8125 0.21875,0.8125 0.21875,0.78125 0.21875,0.78125 0.21875,0.71875 0.1875,0.75 0.21875,0.65625 0.1875,0.65625 0.15625,0.59375 0.15625,0.5625 0.15625,0.5 0.125,0.46875 0.125,0.40625 0.0937,0.3125 0.0625,0.25 c 0.059,0.194 0.0937,0.3125 0.0937,0.3125 0.097,0.039 0.21875,0.0312 0.21875,0.0312 l 0.375,0 0.21875,0 0.3125,0 0.3125,0 0.3125,0 0.375,0 0.375,0 0.4375,0 0.4375,0 0.4375,0 0.46875,0 0.46875,0 0.5,0 0.5,0 0.5,0 0.5,0 0.5,0 0.5,0 0.53125,0 0.46875,0 0.46875,0 0.46875,0 0.46875,0 0.4375,0 0.40625,0 0.40625,0 0.375,0 0.3125,0 0.3125,0 0.28125,0 0.25,0 0.1875,0 0.28125,0 c 0.058,-0.155 -0.0937,-0.65625 -0.0937,-0.65625 l -0.28125,-0.8125 -0.34375,-1.0625 -0.4375,-1.40625 -0.53125,-1.625 -0.59375,-1.875 -0.65625,-2.125 -0.75,-2.28125 -0.78125,-2.53125 -0.875,-2.65625 -0.90625,-2.84375 -0.9375,-2.9375 -0.96875,-3.09375 -1.03125,-3.1875 -1.0625,-3.28125 -1.0625,-3.34375 -1.0625,-3.40625 -1.09375,-3.40625 -1.09375,-3.4375 -1.125,-3.46875 -1.09375,-3.4375 -1.0625,-3.40625 -1.09375,-3.34375 -1.03125,-3.28125 -1.03125,-3.1875 -0.96875,-3.09375 -0.96875,-2.9375 -0.875,-2.84375 -0.84375,-2.65625 -0.8125,-2.53125 -0.71875,-2.28125 -0.6875,-2.09375 -0.59375,-1.90625 -0.53125,-1.625 -0.4375,-1.40625 -0.34375,-1.0625 -0.28125,-0.8125 -0.125,-0.5 C 158.3875,421.75125 158.25,421.75 158.25,421.75 l -0.40625,0 -0.28125,0 -0.28125,0 -0.375,0 -0.375,0 -0.40625,0 -0.4375,0 -0.46875,0 -0.46875,0 -0.5,0 -0.53125,0 -0.53125,0 -0.5625,0 -0.5625,0 -0.5625,0 -0.5625,0 -0.5625,0 -0.5625,0 -0.5625,0 -0.53125,0 -0.53125,0 -0.53125,0 -0.5,0 -0.5,0 -0.4375,0 -0.46875,0 -0.40625,0 -0.34375,0 -0.375,0 -0.3125,0 -0.25,0 -0.25,0 -0.3125,0 z m 7.03125,11.1875 c 0.02,-0.117 14.3125,48.3125 14.3125,48.3125 l -0.21875,0 -0.25,0 -0.34375,0 -0.40625,0 -0.53125,0 -0.5625,0 -0.65625,0 -0.71875,0 -0.78125,0 -0.84375,0 -0.84375,0 -0.9375,0 -0.96875,0 -0.96875,0 -1,0 -1.0625,0 -1.03125,0 -1.09375,0 -1.0625,0 -1.0625,0 -1.0625,0 -1.0625,0 -1.03125,0 -1.03125,0 -0.96875,0 -0.96875,0 -0.90625,0 -0.90625,0 -0.84375,0 -0.75,0 -0.71875,0 -0.65625,0 -0.5625,0 -0.53125,0 -0.4375,0 -0.3125,0 -0.25,0 -0.21875,0 c 0.02,-0.116 0.0937,-0.34375 0.0937,-0.34375 l 0.125,-0.4375 0.1875,-0.5625 0.21875,-0.75 0.25,-0.84375 0.28125,-1 0.34375,-1.09375 0.34375,-1.25 0.375,-1.28125 0.4375,-1.4375 0.40625,-1.46875 0.46875,-1.53125 0.5,-1.625 0.46875,-1.71875 0.53125,-1.71875 0.5,-1.71875 0.5625,-1.84375 0.5,-1.78125 0.5625,-1.8125 0.5,-1.8125 0.5625,-1.78125 0.5,-1.78125 0.53125,-1.78125 0.5,-1.71875 0.5,-1.6875 0.4688,-1.59375 0.46875,-1.59375 0.4375,-1.46875 0.40625,-1.40625 0.40625,-1.3125 0.375,-1.25 0.3125,-1.0625 0.28125,-1.03125 0.25,-0.84375 0.21875,-0.71875 0.1875,-0.59375 0.125,-0.4375 0.0625,-0.21875 z"
   style="fill:#000000;fill-opacity:1;stroke:none"
   inkscape:connector-curvature="0" />
</g><g
     style="fill:#000000;fill-opacity:1;stroke:none"
     id="LWPOLYLINE_2_">
	
		<path
   style="fill:#000000;fill-opacity:1;stroke:none"
   id="path10"
   d="m 244.205,513.762 c 0,-0.155 0,-0.271 0,-0.271 0,-0.155 0,-0.349 0,-0.349 v -0.194 -0.232 -0.271 -0.271 -0.311 -0.31 -0.349 -0.349 -0.349 -0.349 -0.388 -0.388 -0.388 -0.387 -0.388 -0.388 -0.349 -0.388 -0.388 -0.349 -0.349 -0.31 -0.349 -0.271 -0.271 -0.271 -0.232 -0.232 c 0,-0.154 0,-0.31 0,-0.31 0,-0.155 0,-0.232 0,-0.232 -0.077,-0.077 -0.252,-0.077 -0.252,-0.077 h -0.291 -0.406 -0.484 -0.601 -0.679 -0.755 -0.833 -0.911 -0.969 -1.026 -1.065 -1.124 -1.162 -1.182 -1.201 -1.24 -1.239 -1.26 -1.24 -1.239 -1.24 -1.201 -1.182 -1.162 -1.124 -1.065 -1.026 -0.969 -0.911 -0.833 -0.756 -0.678 -0.601 -0.504 -0.387 -0.291 c -0.175,0 -0.252,0 -0.252,0 0,-0.155 0,-0.582 0,-0.582 v -0.736 -0.968 -1.201 -1.473 -1.666 -1.86 -2.054 -2.208 -2.402 -2.479 -2.635 -2.751 -2.829 -2.906 -2.983 -3.021 -3.062 -3.061 -3.062 -3.022 -3.021 -2.984 -2.905 -2.829 -2.751 -2.635 -2.479 -2.402 -2.209 -2.053 -1.86 -1.666 -1.473 -1.201 -0.969 -0.735 -0.427 c -0.174,-0.155 -0.31,-0.155 -0.31,-0.155 -0.155,0 -0.349,0 -0.349,0 h -0.232 -0.252 -0.291 -0.291 -0.329 -0.349 -0.349 -0.368 -0.388 -0.406 -0.388 -0.426 -0.407 -0.407 -0.426 -0.407 -0.406 -0.407 -0.407 -0.387 -0.368 -0.349 -0.349 -0.33 -0.29 -0.291 -0.252 -0.213 c -0.193,0 -0.368,0 -0.368,0 -0.136,0 -0.232,0 -0.232,0 -0.077,0.155 -0.077,0.659 -0.077,0.659 v 0.813 1.085 1.395 1.628 1.898 2.093 2.285 2.519 2.674 2.829 2.944 3.1 3.178 3.293 3.332 3.41 3.448 3.448 3.448 3.41 3.41 3.332 3.293 3.178 3.1 2.944 2.829 2.673 2.519 2.286 2.132 1.859 1.627 1.396 1.085 0.813 0.504 c 0,0.156 44.442,0.156 44.442,0.156 z"
   stroke-miterlimit="10"
   inkscape:connector-curvature="0" />
</g><g
     style="fill:#000000;fill-opacity:1;stroke:none"
     id="LWPOLYLINE_3_">
	
		<path
   id="path13"
   d="m 272.0625,421.75 c -0.11,-10e-4 -28.65625,92 -28.65625,92 l 0.34375,0 0.375,0 0.25,0 0.28125,0 0.28125,0 0.34375,0 0.34375,0 0.34375,0 0.375,0 0.40625,0 0.40625,0 0.4375,0 0.4375,0 0.4375,0 0.4375,0 0.4375,0 0.46875,0 0.4375,0 0.4375,0 0.4375,0 0.4375,0 0.375,0 0.4375,0 0.34375,0 0.375,0 0.34375,0 0.34375,0 0.28125,0 0.28125,0 0.25,0 0.21875,0 0.3125,0 c 0.193,0 0.1875,-0.0312 0.1875,-0.0312 0.039,-0.116 0.125,-0.3125 0.125,-0.3125 l 0.0625,-0.25 0.125,-0.3125 0.0937,-0.40625 0.15625,-0.46875 0.15625,-0.5 0.1875,-0.5625 0.21875,-0.59375 0.1875,-0.65625 0.21875,-0.65625 0.25,-0.75 0.21875,-0.71875 0.25,-0.78125 0.25,-0.78125 0.25,-0.8125 0.28125,-0.8125 0.28125,-0.84375 0.25,-0.8125 0.25,-0.875 0.28125,-0.8125 0.28125,-0.8125 0.25,-0.8125 0.25,-0.8125 0.25,-0.71875 0.21875,-0.78125 0.25,-0.6875 0.21875,-0.71875 0.1875,-0.59375 0.21875,-0.625 0.15625,-0.5625 0.1875,-0.5 0.125,-0.46875 0.125,-0.375 0.125,-0.34375 0.0937,-0.28125 c 0.058,-0.194 0.0937,-0.3125 0.0937,-0.3125 0.077,-0.038 0.25,-0.0312 0.25,-0.0312 l 0.3125,0 0.40625,0 0.5,0 0.625,0 0.6875,0 0.78125,0 0.84375,0 0.9375,0 1,0 1.03125,0 1.09375,0 1.15625,0 1.1875,0 1.21875,0 1.25,0 1.25,0 1.25,0 1.28125,0 1.28125,0 1.28125,0 1.25,0 1.25,0 1.21875,0 1.1875,0 1.125,0 1.125,0 1.03125,0 0.96875,0 0.9375,0 0.84375,0 0.8125,0 0.65625,0 0.625,0 0.5,0 0.4375,0 0.3125,0 0.21875,0 c 0.039,0.154 0.125,0.34375 0.125,0.34375 l 0.0937,0.28125 0.0625,0.34375 0.125,0.375 0.0937,0.46875 0.15625,0.5 0.15625,0.5625 0.21875,0.625 0.125,0.59375 0.21875,0.71875 0.21875,0.6875 0.1875,0.78125 0.25,0.71875 0.21875,0.8125 0.25,0.8125 0.21875,0.8125 0.21875,0.8125 0.25,0.875 0.21875,0.8125 0.25,0.84375 0.21875,0.8125 0.25,0.8125 0.21875,0.78125 0.21875,0.78125 0.21875,0.71875 0.1875,0.75 0.21875,0.65625 0.15625,0.65625 0.1875,0.59375 0.15625,0.5625 0.15625,0.5 0.125,0.46875 0.125,0.40625 0.0625,0.3125 0.0937,0.25 c 0.077,0.194 0.0937,0.3125 0.0937,0.3125 0.077,0.039 0.1875,0.0312 0.1875,0.0312 l 0.40625,0 0.21875,0 0.28125,0 0.3125,0 0.34375,0 0.34375,0 0.40625,0 0.40625,0 0.4375,0 0.46875,0 0.46875,0 0.46875,0 0.5,0 0.5,0 0.5,0 0.5,0 0.5,0 0.5,0 0.5,0 0.46875,0 0.5,0 0.46875,0 0.46875,0 0.4375,0 0.4375,0 0.375,0 0.34375,0 0.34375,0 0.3125,0 0.28125,0 0.21875,0 0.21875,0 0.25,0 c 0.078,-0.155 -0.125,-0.65625 -0.125,-0.65625 l -0.21875,-0.8125 -0.34375,-1.0625 -0.46875,-1.40625 -0.5,-1.625 -0.625,-1.875 -0.65625,-2.125 -0.75,-2.28125 -0.75,-2.53125 -0.875,-2.65625 -0.90625,-2.84375 -0.9375,-2.9375 -1,-3.09375 -1.03125,-3.1875 -1.03125,-3.28125 -1.0625,-3.34375 -1.0625,-3.40625 -1.09375,-3.40625 -1.125,-3.4375 -1.09375,-3.46875 -1.125,-3.4375 -1.0625,-3.40625 -1.0625,-3.34375 -1.03125,-3.28125 -1.03125,-3.1875 -1,-3.09375 -0.9375,-2.9375 -0.875,-2.84375 -0.84375,-2.65625 -0.8125,-2.53125 -0.75,-2.28125 -0.65625,-2.09375 -0.625,-1.90625 -0.5,-1.625 -0.46875,-1.40625 -0.34375,-1.0625 -0.25,-0.8125 -0.125,-0.5 c -0.194,-0.155 -0.3125,-0.15625 -0.3125,-0.15625 l -0.40625,0 -0.28125,0 -0.3125,0 -0.34375,0 -0.375,0 -0.40625,0 -0.4375,0 -0.46875,0 -0.5,0 -0.5,0 -0.5,0 -0.53125,0 -0.5625,0 -0.53125,0 -0.59375,0 -0.5625,0 -0.5625,0 -0.5625,0 -0.5625,0 -0.53125,0 -0.5625,0 -0.5,0 -0.53125,0 -0.46875,0 -0.46875,0 -0.4375,0 -0.40625,0 -0.375,0 -0.34375,0 -0.28125,0 -0.28125,0 -0.25,0 -0.3125,0 z m 7.03125,11.1875 c 0.015,-0.117 14.3125,48.3125 14.3125,48.3125 l -0.21875,0 -0.25,0 -0.34375,0 -0.4375,0 -0.5,0 -0.59375,0 -0.65625,0 -0.6875,0 -0.78125,0 -0.84375,0 -0.875,0 -0.90625,0 -0.96875,0 -0.96875,0 -1.03125,0 -1.03125,0 -1.0625,0 -1.0625,0 -1.0625,0 -1.0625,0 -1.0625,0 -1.0625,0 -1.03125,0 -1.03125,0 -1,0 -0.9375,0 -0.9375,0 -0.875,0 -0.8125,0 -0.78125,0 -0.71875,0 -0.65625,0 -0.59375,0 -0.5,0 -0.4375,0 -0.34375,0 -0.25,0 -0.1875,0 c 0.02,-0.116 0.0937,-0.34375 0.0937,-0.34375 l 0.125,-0.4375 0.15625,-0.5625 0.21875,-0.75 0.25,-0.84375 0.3125,-1 0.3125,-1.09375 0.375,-1.25 0.375,-1.28125 0.40625,-1.4375 0.46875,-1.46875 0.4375,-1.53125 0.46875,-1.625 0.5,-1.71875 0.53125,-1.71875 0.5,-1.71875 0.53125,-1.84375 0.53125,-1.78125 0.53125,-1.8125 0.53125,-1.8125 0.53125,-1.78125 0.5625,-1.78125 0.5,-1.78125 0.5,-1.71875 0.5,-1.6875 0.46875,-1.59375 0.46875,-1.59375 0.4375,-1.46875 0.4375,-1.40625 0.375,-1.3125 0.34375,-1.25 0.34375,-1.0625 0.28125,-1.03125 0.25,-0.84375 0.21875,-0.71875 0.15625,-0.59375 0.15625,-0.4375 0.0625,-0.21875 z"
   style="fill:#000000;fill-opacity:1;stroke:none"
   inkscape:connector-curvature="0" />
</g><g
     style="fill:#000000;fill-opacity:1;stroke:none"
     id="LWPOLYLINE_7_">
	
		<path
   style="fill:#000000;fill-opacity:1;stroke:none"
   id="path25"
   d="m 406.883,432.044 c 0.039,0.155 0.155,0.582 0.155,0.582 l 0.232,0.735 0.271,0.969 0.388,1.24 0.426,1.434 0.504,1.666 0.581,1.86 0.62,2.053 0.658,2.248 0.698,2.363 0.774,2.519 0.775,2.635 0.853,2.712 0.852,2.829 0.853,2.905 0.892,2.984 0.93,3.021 0.892,3.062 0.93,3.061 0.93,3.062 0.93,3.022 0.892,3.021 0.892,2.983 0.891,2.906 0.853,2.829 0.813,2.751 0.775,2.635 0.774,2.519 0.697,2.363 0.698,2.208 0.619,2.054 0.543,1.86 0.504,1.666 0.426,1.473 0.388,1.201 0.271,1.007 0.232,0.697 0.116,0.427 c 0.155,0.155 0.232,0.155 0.232,0.155 0.155,0 0.31,0 0.31,0 h 0.194 0.232 0.232 0.31 0.271 0.349 0.349 0.349 0.349 0.388 0.427 0.387 0.427 0.387 0.427 0.426 0.388 0.427 0.387 0.427 0.388 0.349 0.349 0.349 0.349 0.271 0.271 0.271 0.232 c 0.194,0 0.349,0 0.349,0 0.155,0 0.232,0 0.232,0 0.155,-0.155 0.271,-0.582 0.271,-0.582 l 0.193,-0.697 0.311,-1.007 0.388,-1.201 0.426,-1.473 0.504,-1.666 0.542,-1.86 0.62,-2.054 0.697,-2.208 0.698,-2.363 0.735,-2.519 0.814,-2.635 0.813,-2.751 0.853,-2.829 0.891,-2.906 0.892,-2.983 0.891,-3.021 0.931,-3.022 0.93,-3.062 0.93,-3.061 0.892,-3.062 0.93,-3.021 0.891,-2.984 0.853,-2.905 0.853,-2.829 0.853,-2.712 0.775,-2.635 0.774,-2.519 0.697,-2.363 0.659,-2.248 0.62,-2.053 0.581,-1.86 0.504,-1.666 0.426,-1.434 0.349,-1.24 0.311,-0.969 0.232,-0.735 0.116,-0.427 c 0.038,0 0.038,0.427 0.038,0.427 v 0.735 0.969 1.24 1.434 1.666 1.86 2.053 2.248 2.363 2.519 2.635 2.712 2.829 2.905 2.984 3.021 3.062 3.061 3.062 3.022 3.021 2.983 2.906 2.829 2.751 2.635 2.519 2.363 2.208 2.054 1.86 1.666 1.473 1.201 1.007 0.697 0.427 c 0.194,0.155 0.311,0.155 0.311,0.155 0.193,0 0.388,0 0.388,0 h 0.193 0.271 0.271 0.311 0.31 0.349 0.349 0.388 0.388 0.388 0.426 0.388 0.426 0.427 0.388 0.426 0.426 0.388 0.388 0.388 0.388 0.349 0.349 0.31 0.311 0.271 0.271 0.193 c 0.232,0 0.388,0 0.388,0 0.116,0 0.232,0 0.232,0 0.078,-0.155 0.078,-0.659 0.078,-0.659 v -0.813 -1.085 -1.396 -1.627 -1.859 -2.132 -2.286 -2.519 -2.673 -2.829 -2.944 -3.1 -3.178 -3.293 -3.332 -3.41 -3.41 -3.448 -3.448 -3.448 -3.41 -3.332 -3.293 -3.178 -3.1 -2.944 -2.829 -2.674 -2.519 -2.285 -2.093 -1.898 -1.628 -1.395 -1.085 -0.813 -0.504 c -0.155,-0.155 -0.311,-0.155 -0.311,-0.155 h -0.232 -0.271 -0.349 -0.387 -0.427 -0.504 -0.504 -0.542 -0.581 -0.62 -0.658 -0.659 -0.658 -0.698 -0.697 -0.697 -0.736 -0.697 -0.736 -0.697 -0.697 -0.659 -0.658 -0.659 -0.581 -0.62 -0.542 -0.504 -0.465 -0.465 -0.388 -0.31 -0.311 -0.232 c -0.155,0 -0.271,0 -0.271,0 -0.077,0.116 -0.193,0.543 -0.193,0.543 l -0.193,0.697 -0.271,0.892 -0.311,1.162 -0.387,1.356 -0.465,1.588 -0.504,1.744 -0.581,1.938 -0.582,2.092 -0.658,2.247 -0.659,2.364 -0.735,2.479 -0.736,2.558 -0.775,2.673 -0.774,2.751 -0.814,2.79 -0.813,2.867 -0.853,2.867 -0.813,2.867 -0.853,2.867 -0.813,2.867 -0.813,2.868 -0.813,2.789 -0.814,2.751 -0.735,2.674 -0.775,2.558 -0.697,2.479 -0.697,2.363 -0.62,2.247 -0.62,2.093 -0.542,1.938 -0.504,1.743 -0.465,1.589 -0.388,1.356 -0.349,1.162 -0.271,0.892 -0.193,0.697 -0.116,0.426 c -0.078,0 -0.194,-0.426 -0.194,-0.426 l -0.193,-0.697 -0.271,-0.892 -0.349,-1.162 -0.388,-1.356 -0.465,-1.589 -0.504,-1.743 -0.542,-1.938 -0.62,-2.093 -0.62,-2.247 -0.697,-2.363 -0.697,-2.479 -0.775,-2.558 -0.736,-2.674 -0.813,-2.751 -0.813,-2.789 -0.813,-2.868 -0.813,-2.867 -0.853,-2.867 -0.813,-2.867 -0.853,-2.867 -0.814,-2.867 -0.813,-2.79 -0.774,-2.751 -0.775,-2.673 -0.736,-2.558 -0.736,-2.479 -0.658,-2.364 -0.659,-2.247 -0.581,-2.092 -0.581,-1.938 -0.504,-1.744 -0.465,-1.588 -0.388,-1.356 -0.31,-1.162 -0.271,-0.892 -0.193,-0.697 -0.116,-0.427 c -0.194,-0.116 -0.349,-0.116 -0.349,-0.116 h -0.232 -0.271 -0.31 -0.388 -0.388 -0.465 -0.504 -0.542 -0.543 -0.581 -0.62 -0.658 -0.62 -0.659 -0.697 -0.658 -0.698 -0.697 -0.658 -0.697 -0.659 -0.62 -0.658 -0.62 -0.581 -0.543 -0.542 -0.504 -0.465 -0.388 -0.388 -0.31 -0.271 -0.232 c -0.155,0 -0.271,0 -0.271,0 -0.038,0.155 -0.038,0.659 -0.038,0.659 v 0.813 1.085 1.395 1.628 1.898 2.093 2.285 2.519 2.674 2.829 2.944 3.1 3.178 3.293 3.332 3.41 3.448 3.448 3.448 3.41 3.41 3.332 3.293 3.178 3.1 2.944 2.829 2.673 2.519 2.286 2.132 1.859 1.627 1.396 1.085 0.813 0.504 c 0.193,0.155 0.31,0.155 0.31,0.155 0.155,0 0.349,0 0.349,0 h 0.194 0.232 0.271 0.271 0.311 0.31 0.349 0.349 0.349 0.349 0.388 0.388 0.388 0.387 0.388 0.388 0.349 0.388 0.349 0.388 0.349 0.31 0.311 0.31 0.271 0.271 0.232 0.232 c 0.154,0 0.31,0 0.31,0 0.116,0 0.232,0 0.232,0 0.041,10e-4 0.041,-81.717 0.041,-81.717 z"
   stroke-miterlimit="10"
   inkscape:connector-curvature="0" />
</g><g
     style="fill:#000000;fill-opacity:1;stroke:none"
     id="LWPOLYLINE_8_">
	
		<path
   style="fill:#000000;fill-opacity:1;stroke:none"
   id="path28"
   d="m 159.291,577.268 0.098,-1.356 0.077,-1.317 0.039,-1.278 v -1.24 l -0.039,-1.201 -0.059,-1.201 -0.097,-1.124 -0.136,-1.085 -0.154,-1.085 -0.194,-1.046 -0.232,-0.969 -0.271,-0.969 -0.31,-0.93 -0.329,-0.891 -0.368,-0.892 -0.407,-0.813 -0.445,-0.775 -0.484,-0.774 -0.504,-0.697 -0.542,-0.698 -0.581,-0.658 -0.62,-0.62 -0.659,-0.581 -0.697,-0.543 -0.717,-0.503 -0.774,-0.504 -0.795,-0.427 -0.833,-0.426 -0.891,-0.388 -0.911,-0.349 -0.949,-0.31 -0.969,-0.271 -1.026,-0.271 -1.065,-0.193 -1.104,-0.194 -1.144,-0.154 -1.162,-0.116 -1.221,-0.078 -1.239,-0.038 -1.299,-0.039 -1.355,0.039 -1.317,0.038 -1.317,0.078 -1.26,0.077 -1.259,0.155 -1.201,0.154 -1.201,0.194 -1.144,0.232 -1.143,0.271 -1.085,0.31 -1.065,0.31 -1.046,0.388 -1.008,0.427 -0.969,0.426 -0.93,0.504 -0.911,0.542 -0.891,0.582 -0.833,0.658 -0.813,0.659 -0.775,0.735 -0.736,0.736 -0.717,0.813 -0.658,0.892 -0.64,0.892 -0.601,0.968 -0.581,1.047 -0.523,1.085 -0.484,1.123 -0.465,1.163 -0.406,1.239 -0.388,1.317 -0.329,1.356 -0.311,1.434 -0.252,1.473 -0.232,1.55 -0.174,1.589 -0.155,1.704 -0.097,1.705 -0.059,1.821 -0.02,1.859 c 0,0.194 0,0.427 0,0.427 v 0.31 0.388 0.465 0.543 0.581 0.658 0.736 0.736 0.813 0.853 0.892 0.891 0.93 0.969 0.969 0.969 0.969 0.969 1.008 0.969 0.93 0.93 0.93 0.853 0.853 0.813 0.736 0.736 0.658 0.582 0.542 0.465 0.388 0.31 0.232 c 0,0.194 0.02,2.79 0.02,2.79 l 0.097,2.519 0.155,2.363 0.213,2.209 0.271,2.131 0.329,2.015 0.388,1.899 0.426,1.782 0.466,1.666 0.522,1.589 0.562,1.472 0.619,1.396 0.64,1.278 0.678,1.201 0.717,1.124 0.736,1.046 0.795,0.93 0.794,0.892 0.833,0.813 0.853,0.736 0.872,0.658 0.891,0.581 0.911,0.543 0.91,0.504 0.949,0.426 0.93,0.388 0.949,0.31 0.969,0.311 0.949,0.232 0.969,0.193 0.949,0.193 0.969,0.155 0.949,0.078 0.931,0.116 0.93,0.038 0.91,0.078 h 0.911 l 0.891,0.038 h 0.872 0.833 0.504 0.542 0.601 l 0.64,-0.038 h 0.658 l 0.718,-0.039 0.735,-0.077 0.756,-0.078 0.794,-0.116 0.814,-0.116 0.833,-0.155 0.833,-0.154 0.871,-0.232 0.872,-0.232 0.872,-0.311 0.872,-0.31 0.871,-0.388 0.872,-0.426 0.872,-0.466 0.853,-0.542 0.833,-0.581 0.833,-0.62 0.794,-0.697 0.795,-0.775 0.755,-0.813 0.717,-0.891 0.697,-0.969 0.659,-1.047 0.62,-1.123 0.562,-1.201 0.543,-1.279 0.484,-1.355 0.426,-1.434 0.368,-1.55 0.329,-1.667 0.252,-1.704 0.193,-1.86 0.116,-1.938 0.059,-2.015 -0.02,-2.17 c -0.193,0 -0.329,0 -0.329,0 -0.194,0 -0.407,0 -0.407,0 h -0.232 -0.271 -0.31 -0.31 -0.349 -0.368 -0.388 -0.388 -0.426 -0.407 -0.445 -0.427 -0.445 -0.445 -0.446 -0.445 -0.445 -0.427 -0.426 -0.407 -0.406 -0.388 -0.368 -0.349 -0.31 -0.311 -0.271 -0.232 -0.213 c -0.174,0 -0.329,0 -0.329,0 -0.193,0 -0.213,1.356 -0.213,1.356 l -0.039,1.278 -0.097,1.201 -0.136,1.163 -0.155,1.123 -0.193,1.047 -0.213,0.968 -0.252,0.931 -0.271,0.891 -0.291,0.853 -0.329,0.775 -0.329,0.774 -0.368,0.697 -0.368,0.659 -0.407,0.581 -0.406,0.581 -0.427,0.543 -0.445,0.465 -0.445,0.465 -0.445,0.426 -0.466,0.388 -0.483,0.349 -0.466,0.311 -0.484,0.31 -0.484,0.271 -0.465,0.232 -0.484,0.193 -0.465,0.194 -0.465,0.154 -0.465,0.155 -0.465,0.116 -0.427,0.077 -0.445,0.078 -0.406,0.077 -0.407,0.077 -0.388,0.039 h -0.388 l -0.349,0.039 h -0.329 -0.31 -0.64 -0.658 l -0.64,-0.039 -0.62,-0.077 -0.62,-0.039 -0.62,-0.116 -0.601,-0.077 -0.601,-0.155 -0.581,-0.155 -0.581,-0.154 -0.562,-0.232 -0.562,-0.233 -0.522,-0.271 -0.543,-0.271 -0.503,-0.349 -0.504,-0.349 -0.484,-0.427 -0.465,-0.426 -0.465,-0.465 -0.427,-0.504 -0.426,-0.581 -0.407,-0.581 -0.388,-0.659 -0.368,-0.697 -0.368,-0.736 -0.329,-0.774 -0.31,-0.853 -0.291,-0.892 -0.271,-0.93 -0.251,-1.008 -0.232,-1.046 -0.214,-1.124 -0.193,-1.162 -0.155,-1.24 -0.136,-1.278 -0.116,-1.356 -0.097,-1.434 -0.058,-1.511 -0.039,-1.55 -0.02,-1.627 c 0,-0.194 0,-0.388 0,-0.388 v -0.311 -0.349 -0.465 -0.504 -0.542 -0.62 -0.658 -0.736 -0.736 -0.813 -0.814 -0.852 -0.892 -0.892 -0.891 -0.93 -0.892 -0.93 -0.93 -0.892 -0.892 -0.891 -0.853 -0.813 -0.813 -0.736 -0.736 -0.659 -0.619 -0.546 -0.504 -0.465 -0.349 -0.31 -0.194 c 0,-0.193 0,-1.355 0,-1.355 l 0.02,-1.124 0.02,-1.046 0.02,-1.047 0.038,-0.969 0.039,-0.93 0.058,-0.891 0.059,-0.814 0.058,-0.813 0.059,-0.774 0.077,-0.697 0.078,-0.698 0.058,-0.658 0.097,-0.581 0.078,-0.581 0.077,-0.543 0.097,-0.504 0.078,-0.465 0.097,-0.465 0.077,-0.426 0.097,-0.388 0.098,-0.349 0.077,-0.349 0.097,-0.311 0.078,-0.271 0.077,-0.271 0.077,-0.232 0.078,-0.232 0.077,-0.194 c 0.077,-0.193 0.136,-0.349 0.136,-0.349 0.058,-0.155 0.116,-0.271 0.116,-0.271 0.038,-0.116 0.097,-0.232 0.097,-0.232 0.059,-0.193 0.077,-0.271 0.077,-0.271 0.02,-0.116 0.078,-0.271 0.078,-0.271 0.077,-0.116 0.174,-0.271 0.174,-0.271 0.097,-0.193 0.213,-0.349 0.213,-0.349 0.136,-0.193 0.271,-0.388 0.271,-0.388 l 0.155,-0.193 0.174,-0.232 0.175,-0.232 0.193,-0.194 0.214,-0.232 0.232,-0.232 0.232,-0.271 0.271,-0.233 0.271,-0.232 0.271,-0.232 0.31,-0.271 0.311,-0.232 0.349,-0.232 0.349,-0.233 0.368,-0.232 0.368,-0.232 0.406,-0.232 0.427,-0.193 0.426,-0.232 0.446,-0.194 0.484,-0.193 0.484,-0.155 0.503,-0.193 0.543,-0.155 0.542,-0.154 0.562,-0.116 0.581,-0.116 0.601,-0.117 0.62,-0.077 0.639,-0.039 0.679,-0.077 0.678,-0.039 h 0.697 c 0.136,0 0.271,0 0.271,0 0.155,0.039 0.329,0.039 0.329,0.039 0.175,0 0.368,0.039 0.368,0.039 h 0.193 l 0.214,0.038 0.213,0.039 0.232,0.039 0.252,0.038 0.232,0.039 0.252,0.039 0.271,0.077 0.252,0.039 0.271,0.077 0.271,0.039 0.29,0.077 0.271,0.078 0.291,0.116 0.271,0.077 0.291,0.116 0.291,0.077 0.271,0.116 0.291,0.116 0.271,0.116 0.29,0.155 0.271,0.116 0.271,0.155 0.271,0.155 0.252,0.154 0.252,0.194 0.252,0.154 0.252,0.194 0.232,0.193 0.213,0.194 0.214,0.193 0.213,0.232 0.193,0.232 0.194,0.232 0.174,0.232 0.155,0.232 0.174,0.271 0.155,0.232 0.155,0.271 0.154,0.271 0.136,0.271 0.136,0.311 0.136,0.271 0.116,0.271 0.116,0.311 0.116,0.31 0.116,0.31 0.097,0.311 0.098,0.31 0.097,0.311 0.097,0.349 0.077,0.31 0.097,0.349 0.078,0.349 0.058,0.349 0.078,0.349 0.058,0.35 0.059,0.349 0.058,0.349 0.059,0.388 0.038,0.349 0.039,0.387 0.039,0.388 0.038,0.349 0.039,0.388 0.02,0.388 0.02,0.426 0.039,0.388 v 0.388 l 0.019,0.388 0.02,0.426 v 0.388 0.426 0.427 h 11.112 z"
   stroke-miterlimit="10"
   inkscape:connector-curvature="0" />
</g><g
     style="fill:#000000;fill-opacity:1;stroke:none"
     id="LWPOLYLINE_9_">
	
		<path
   id="path31"
   d="m 195.90625,551.84375 c -0.116,-10e-4 -28.6875,92.0625 -28.6875,92.0625 l 0.34375,0 0.375,0 0.25,0 0.28125,0 0.28125,0 0.34375,0 0.34375,0 0.34375,0 0.40625,0 0.40625,0 0.40625,0 0.40625,0 0.4375,0 0.4375,0 0.46875,0 0.4375,0 0.4375,0 0.4375,0 0.4375,0 0.4375,0 0.4375,0 0.40625,0 0.375,0 0.40625,0 0.34375,0 0.375,0 0.3125,0 0.28125,0 0.28125,0 0.25,0 0.21875,0 0.3125,0 c 0.194,0 0.21875,-0.0312 0.21875,-0.0312 0.038,-0.116 0.0937,-0.3125 0.0937,-0.3125 l 0.0625,-0.28125 0.125,-0.34375 0.125,-0.375 0.15625,-0.4375 0.15625,-0.53125 0.1875,-0.5625 0.1875,-0.5625 0.1875,-0.65625 0.25,-0.71875 0.1875,-0.6875 0.28125,-0.71875 0.25,-0.78125 0.25,-0.8125 0.25,-0.8125 0.25,-0.8125 0.25,-0.8125 0.28125,-0.875 0.28125,-0.8125 0.25,-0.8125 0.25,-0.84375 0.28125,-0.78125 0.25,-0.8125 0.25,-0.78125 0.25,-0.71875 0.21875,-0.6875 0.21875,-0.71875 0.21875,-0.65625 0.1875,-0.5625 0.1875,-0.59375 0.15625,-0.5 0.125,-0.46875 0.15625,-0.375 0.0937,-0.3125 0.0937,-0.28125 c 0.059,-0.194 0.0937,-0.3125 0.0937,-0.3125 0.078,-0.038 0.25,-0.0312 0.25,-0.0312 l 0.3125,0 0.40625,0 0.5,0 0.625,0 0.6875,0 0.78125,0 0.875,0 0.90625,0 1,0 1.03125,0 1.125,0 1.125,0 1.1875,0 1.21875,0 1.25,0 1.25,0 1.25,0 1.28125,0 1.28125,0 1.28125,0 1.25,0 1.25,0 1.21875,0 1.1875,0 1.15625,0 1.0625,0 1.0625,0 1,0 0.90625,0 0.875,0 0.78125,0 0.6875,0 0.59375,0 0.53125,0 0.40625,0 0.28125,0 0.28125,0 c 0.038,0.154 0.0937,0.34375 0.0937,0.34375 l 0.0625,0.28125 0.0937,0.3125 0.125,0.375 0.125,0.46875 0.15625,0.5 0.15625,0.59375 0.15625,0.5625 0.1875,0.65625 0.21875,0.71875 0.1875,0.6875 0.21875,0.71875 0.21875,0.78125 0.21875,0.8125 0.21875,0.78125 0.25,0.84375 0.21875,0.8125 0.25,0.8125 0.25,0.875 0.21875,0.8125 0.21875,0.8125 0.25,0.8125 0.21875,0.8125 0.21875,0.78125 0.21875,0.71875 0.21875,0.6875 0.1875,0.71875 0.15625,0.65625 0.1875,0.5625 0.15625,0.5625 0.15625,0.53125 0.125,0.4375 0.0937,0.375 0.125,0.34375 0.0625,0.28125 c 0.059,0.194 0.0937,0.3125 0.0937,0.3125 0.116,0.039 0.25,0.0312 0.25,0.0312 l 0.34375,0 0.25,0 0.25,0 0.3125,0 0.34375,0 0.375,0 0.40625,0 0.40625,0 0.40625,0 0.46875,0 0.46875,0 0.5,0 0.46875,0 0.5,0 0.5,0 0.5,0 0.53125,0 0.5,0 0.46875,0 0.5,0 0.5,0 0.46875,0 0.4375,0 0.4375,0 0.40625,0 0.40625,0 0.34375,0 0.34375,0 0.3125,0 0.28125,0 0.25,0 0.1875,0 0.28125,0 C 240.163,643.75125 240,643.25 240,643.25 l -0.25,-0.8125 -0.34375,-1.09375 -0.4375,-1.375 -0.53125,-1.625 -0.59375,-1.90625 -0.6875,-2.09375 -0.71875,-2.3125 -0.8125,-2.5 -0.84375,-2.65625 -0.90625,-2.84375 -0.9375,-2.96875 -1,-3.0625 -1,-3.21875 -1.0625,-3.25 -1.0625,-3.34375 -1.09375,-3.40625 -1.0625,-3.4375 -1.125,-3.46875 -1.09375,-3.4375 -1.09375,-3.40625 -1.0625,-3.40625 -1.09375,-3.34375 -1.03125,-3.28125 -1.03125,-3.1875 -0.96875,-3.09375 -0.9375,-2.9375 -0.90625,-2.84375 -0.875,-2.6875 -0.78125,-2.5 -0.75,-2.34375 -0.65625,-2.09375 -0.625,-1.84375 -0.5,-1.625 -0.4375,-1.40625 -0.34375,-1.0625 -0.28125,-0.8125 -0.15625,-0.53125 c -0.155,-0.193 -0.28125,-0.1875 -0.28125,-0.1875 l -0.40625,0 -0.28125,0 -0.3125,0 -0.34375,0 -0.375,0 -0.40625,0 -0.4375,0 -0.46875,0 -0.46875,0 -0.5,0 -0.53125,0 -0.53125,0 -0.5625,0 -0.5625,0 -0.5625,0 -0.5625,0 -0.5625,0 -0.5625,0 -0.5625,0 -0.53125,0 -0.53125,0 -0.53125,0 -0.5,0 -0.46875,0 -0.46875,0 -0.4375,0 -0.40625,0 -0.375,0 -0.375,0 -0.3125,0 -0.25,0 -0.21875,0 -0.3125,0 z m 7,11.21875 c 0.041,-0.077 14.3125,48.3125 14.3125,48.3125 l -0.21875,0 -0.25,0 -0.3125,0 -0.4375,0 -0.53125,0 -0.5625,0 -0.65625,0 -0.71875,0 -0.78125,0 -0.8125,0 -0.875,0 -0.9375,0 -0.9375,0 -1.03125,0 -1,0 -1.03125,0 -1.0625,0 -1.0625,0 -1.0625,0 -1.09375,0 -1.0625,0 -1.03125,0 -1.0625,0 -1,0 -1,0 -0.96875,0 -0.90625,0 -0.875,0 -0.8125,0 -0.78125,0 -0.71875,0 -0.65625,0 -0.59375,0 -0.5,0 -0.40625,0 -0.375,0 -0.25,0 -0.1875,0 C 188.69525,611.298 188.75,611 188.75,611 l 0.125,-0.40625 0.1875,-0.59375 0.1875,-0.6875 0.25,-0.84375 0.3125,-1.03125 0.3125,-1.0625 0.375,-1.25 0.375,-1.3125 0.40625,-1.40625 0.46875,-1.46875 0.4375,-1.59375 0.46875,-1.625 0.53125,-1.65625 0.5,-1.71875 0.5,-1.78125 0.53125,-1.78125 L 195.25,589 l 0.53125,-1.8125 0.5625,-1.8125 0.5,-1.84375 0.53125,-1.78125 0.53125,-1.71875 0.5,-1.75 0.5,-1.6875 0.5,-1.625 0.4375,-1.53125 0.4375,-1.46875 0.4375,-1.4375 0.375,-1.3125 0.34375,-1.21875 0.34375,-1.0625 0.28125,-1.03125 0.25,-0.84375 0.21875,-0.75 0.1875,-0.5625 0.0937,-0.4375 0.0937,-0.25 z"
   style="fill:#000000;fill-opacity:1;stroke:none"
   inkscape:connector-curvature="0" />
</g><g
     style="fill:#000000;fill-opacity:1;stroke:none"
     id="LWPOLYLINE_11_">
	
		<path
   style="fill:#000000;fill-opacity:1;stroke:none"
   id="path37"
   d="m 302.926,551.85 c 0,0.154 0,0.581 0,0.581 v 0.697 0.93 1.201 1.396 1.588 1.782 1.977 2.131 2.286 2.402 2.558 2.635 2.712 2.79 2.867 2.906 2.905 2.945 2.944 2.945 2.905 2.829 2.79 2.751 2.635 2.519 2.402 2.286 2.131 1.976 1.782 1.628 1.395 1.162 0.931 0.697 0.426 c -0.077,0 -0.271,-0.426 -0.271,-0.426 l -0.31,-0.697 -0.388,-0.931 -0.543,-1.162 -0.619,-1.395 -0.698,-1.628 -0.813,-1.782 -0.853,-1.976 -0.969,-2.131 -1.007,-2.286 -1.085,-2.402 -1.124,-2.519 -1.162,-2.635 -1.201,-2.751 -1.24,-2.79 -1.278,-2.829 -1.278,-2.905 -1.317,-2.945 -1.298,-2.944 -1.317,-2.945 -1.299,-2.905 -1.298,-2.906 -1.259,-2.867 -1.24,-2.79 -1.221,-2.712 -1.162,-2.635 -1.124,-2.558 -1.085,-2.402 -1.007,-2.286 -0.949,-2.131 -0.872,-1.977 -0.794,-1.782 -0.717,-1.588 -0.62,-1.396 -0.523,-1.201 -0.426,-0.93 -0.311,-0.697 -0.174,-0.427 c -0.175,-0.154 -0.33,-0.154 -0.33,-0.154 -0.193,0 -0.426,0 -0.426,0 h -0.271 -0.329 -0.368 -0.388 -0.445 -0.445 -0.504 -0.504 -0.522 -0.562 -0.562 -0.581 -0.581 -0.582 -0.601 -0.601 -0.581 -0.601 -0.562 -0.581 -0.543 -0.522 -0.523 -0.484 -0.465 -0.426 -0.407 -0.349 -0.329 -0.291 -0.232 c -0.193,0 -0.329,0 -0.329,0 -0.116,0.193 -0.116,0.697 -0.116,0.697 v 0.813 1.085 1.395 1.628 1.859 2.093 2.324 2.519 2.674 2.829 2.944 3.1 3.178 3.293 3.332 3.41 3.409 3.449 3.448 3.448 3.41 3.332 3.255 3.216 3.061 2.983 2.829 2.673 2.48 2.324 2.093 1.898 1.627 1.396 1.085 0.813 0.504 c 0.174,0.155 0.29,0.155 0.29,0.155 0.155,0 0.349,0 0.349,0 h 0.194 0.252 0.252 0.271 0.311 0.31 0.329 0.349 0.368 0.368 0.368 0.388 0.388 0.368 0.388 0.387 0.388 0.368 0.368 0.368 0.349 0.329 0.311 0.31 0.271 0.252 0.252 0.193 c 0.193,0 0.349,0 0.349,0 0.116,0 0.213,0 0.213,0 0.078,-0.155 0.078,-0.582 0.078,-0.582 v -0.697 -0.93 -1.201 -1.395 -1.628 -1.821 -1.976 -2.17 -2.286 -2.441 -2.557 -2.674 -2.751 -2.828 -2.867 -2.945 -2.944 -2.983 -2.984 -2.944 -2.944 -2.867 -2.829 -2.751 -2.674 -2.557 -2.402 -2.325 -2.131 -2.015 -1.821 -1.589 -1.434 -1.201 -0.93 -0.697 -0.427 c 0.058,0 0.251,0.427 0.251,0.427 l 0.311,0.697 0.426,0.93 0.543,1.201 0.639,1.434 0.717,1.589 0.814,1.821 0.91,2.015 0.969,2.131 1.026,2.325 1.104,2.402 1.144,2.557 1.201,2.674 1.239,2.751 1.279,2.829 1.278,2.867 1.337,2.944 1.317,2.944 1.337,2.984 1.337,2.983 1.336,2.944 1.317,2.945 1.299,2.867 1.259,2.828 1.24,2.751 1.201,2.674 1.162,2.557 1.085,2.441 1.046,2.286 0.969,2.17 0.892,1.976 0.813,1.821 0.736,1.628 0.62,1.395 0.542,1.201 0.427,0.93 0.31,0.697 0.193,0.427 c 0.194,0.155 0.311,0.155 0.311,0.155 0.193,0 0.426,0 0.426,0 h 0.271 0.31 0.311 0.387 0.427 0.426 0.465 0.504 0.504 0.504 0.542 0.543 0.542 0.581 0.582 0.542 0.581 0.543 0.542 0.543 0.503 0.543 0.465 0.465 0.427 0.426 0.388 0.31 0.311 0.271 0.232 c 0.194,0 0.311,0 0.311,0 0.116,-0.155 0.116,-0.659 0.116,-0.659 v -0.813 -1.085 -1.396 -1.627 -1.898 -2.093 -2.324 -2.48 -2.673 -2.829 -2.983 -3.061 -3.216 -3.255 -3.332 -3.41 -3.448 -3.448 -3.449 -3.409 -3.41 -3.332 -3.293 -3.178 -3.1 -2.944 -2.829 -2.674 -2.519 -2.324 -2.093 -1.859 -1.628 -1.395 -1.085 -0.813 -0.504 c -0.009,-0.193 -10.315,-0.193 -10.315,-0.193 z"
   stroke-miterlimit="10"
   inkscape:connector-curvature="0" />
</g><g
     style="fill:#000000;fill-opacity:1;stroke:none"
     id="LWPOLYLINE_12_">
	
		<path
   style="fill:#000000;fill-opacity:1;stroke:none"
   id="path40"
   d="m 383.868,577.268 0.077,-1.356 0.077,-1.317 0.039,-1.278 v -1.24 -1.201 l -0.077,-1.201 -0.116,-1.124 -0.117,-1.085 -0.154,-1.085 -0.194,-1.046 -0.232,-0.969 -0.271,-0.969 -0.311,-0.93 -0.349,-0.891 -0.349,-0.892 -0.426,-0.813 -0.427,-0.775 -0.465,-0.774 -0.542,-0.697 -0.543,-0.698 -0.581,-0.658 -0.62,-0.62 -0.658,-0.581 -0.698,-0.543 -0.697,-0.503 -0.774,-0.504 -0.814,-0.427 -0.813,-0.426 -0.891,-0.388 -0.892,-0.349 -0.969,-0.31 -0.969,-0.271 -1.046,-0.271 -1.046,-0.193 -1.124,-0.194 -1.124,-0.154 -1.162,-0.116 -1.239,-0.078 -1.24,-0.038 -1.278,-0.039 -1.356,0.039 -1.317,0.038 -1.317,0.078 -1.278,0.077 -1.24,0.155 -1.201,0.154 -1.201,0.194 -1.162,0.232 -1.124,0.271 -1.085,0.31 -1.085,0.31 -1.046,0.388 -0.969,0.427 -1.008,0.426 -0.93,0.504 -0.891,0.542 -0.892,0.582 -0.853,0.658 -0.813,0.659 -0.775,0.735 -0.736,0.736 -0.697,0.813 -0.658,0.892 -0.659,0.892 -0.581,0.968 -0.581,1.047 -0.543,1.085 -0.465,1.123 -0.465,1.163 -0.426,1.239 -0.349,1.317 -0.349,1.356 -0.311,1.434 -0.271,1.473 -0.232,1.55 -0.154,1.589 -0.155,1.704 -0.116,1.705 -0.039,1.821 -0.038,1.859 c 0,0.194 0,0.427 0,0.427 v 0.31 0.388 0.465 0.543 0.581 0.658 0.736 0.736 0.813 0.853 0.892 0.891 0.93 0.969 0.969 0.969 0.969 0.969 1.008 0.969 0.93 0.93 0.93 0.853 0.853 0.813 0.736 0.736 0.658 0.582 0.542 0.465 0.388 0.31 0.232 c 0,0.194 0.038,2.79 0.038,2.79 l 0.078,2.519 0.154,2.363 0.232,2.209 0.271,2.131 0.311,2.015 0.387,1.899 0.427,1.782 0.504,1.666 0.503,1.589 0.582,1.472 0.581,1.396 0.658,1.278 0.659,1.201 0.736,1.124 0.735,1.046 0.775,0.93 0.813,0.892 0.813,0.813 0.853,0.736 0.892,0.658 0.891,0.581 0.892,0.543 0.93,0.504 0.93,0.426 0.931,0.388 0.969,0.31 0.968,0.311 0.931,0.232 0.969,0.193 0.969,0.193 0.968,0.155 0.931,0.078 0.93,0.116 0.93,0.038 0.93,0.078 h 0.892 l 0.892,0.038 h 0.891 0.813 0.504 0.543 0.619 l 0.62,-0.038 h 0.659 l 0.736,-0.039 0.735,-0.077 0.736,-0.078 0.814,-0.116 0.813,-0.116 0.813,-0.155 0.853,-0.154 0.853,-0.232 0.891,-0.232 0.853,-0.311 0.892,-0.31 0.853,-0.388 0.891,-0.426 0.853,-0.466 0.853,-0.542 0.853,-0.581 0.813,-0.62 0.813,-0.697 0.775,-0.775 0.774,-0.813 0.698,-0.891 0.697,-0.969 0.658,-1.047 0.62,-1.123 0.581,-1.201 0.543,-1.279 0.465,-1.355 0.426,-1.434 0.388,-1.55 0.31,-1.667 0.271,-1.704 0.194,-1.86 0.116,-1.938 0.038,-2.015 v -2.17 c -0.193,0 -0.349,0 -0.349,0 -0.155,0 -0.388,0 -0.388,0 h -0.232 -0.271 -0.311 -0.31 -0.349 -0.388 -0.349 -0.427 -0.387 -0.427 -0.465 -0.426 -0.427 -0.465 -0.426 -0.466 -0.426 -0.426 -0.427 -0.426 -0.388 -0.388 -0.388 -0.31 -0.349 -0.311 -0.232 -0.271 -0.194 c -0.193,0 -0.31,0 -0.31,0 -0.193,0 -0.232,1.356 -0.232,1.356 l -0.039,1.278 -0.116,1.201 -0.116,1.163 -0.155,1.123 -0.193,1.047 -0.232,0.968 -0.232,0.931 -0.271,0.891 -0.31,0.853 -0.311,0.775 -0.349,0.774 -0.349,0.697 -0.388,0.659 -0.387,0.581 -0.427,0.581 -0.426,0.543 -0.427,0.465 -0.465,0.465 -0.426,0.426 -0.465,0.388 -0.504,0.349 -0.465,0.311 -0.465,0.31 -0.466,0.271 -0.503,0.232 -0.465,0.193 -0.466,0.194 -0.465,0.154 -0.465,0.155 -0.465,0.116 -0.426,0.077 -0.466,0.078 -0.387,0.077 -0.427,0.077 -0.388,0.039 h -0.349 l -0.387,0.039 h -0.311 -0.31 -0.659 -0.658 l -0.62,-0.039 -0.62,-0.077 -0.62,-0.039 -0.62,-0.116 -0.619,-0.077 -0.581,-0.155 -0.582,-0.155 -0.581,-0.154 -0.581,-0.232 -0.542,-0.233 -0.543,-0.271 -0.504,-0.271 -0.542,-0.349 -0.504,-0.349 -0.465,-0.427 -0.465,-0.426 -0.465,-0.465 -0.427,-0.504 -0.426,-0.581 -0.427,-0.581 -0.387,-0.659 -0.35,-0.697 -0.387,-0.736 -0.311,-0.774 -0.31,-0.853 -0.311,-0.892 -0.271,-0.93 -0.232,-1.008 -0.232,-1.046 -0.232,-1.124 -0.194,-1.162 -0.155,-1.24 -0.116,-1.278 -0.116,-1.356 -0.116,-1.434 -0.038,-1.511 -0.039,-1.55 -0.039,-1.627 c 0,-0.194 0,-0.388 0,-0.388 v -0.311 -0.349 -0.465 -0.504 -0.542 -0.62 -0.658 -0.736 -0.736 -0.813 -0.814 -0.852 -0.892 -0.892 -0.891 -0.93 -0.892 -0.93 -0.93 -0.892 -0.892 -0.891 -0.853 -0.813 -0.813 -0.736 -0.736 -0.659 -0.619 -0.546 -0.504 -0.465 -0.349 -0.31 -0.194 c 0,-0.193 0,-1.355 0,-1.355 l 0.039,-1.124 v -1.046 l 0.039,-1.047 0.038,-0.969 0.039,-0.93 0.039,-0.891 0.077,-0.814 0.039,-0.813 0.077,-0.774 0.077,-0.697 0.078,-0.698 0.077,-0.658 0.078,-0.581 0.077,-0.581 0.077,-0.543 0.078,-0.504 0.077,-0.465 0.116,-0.465 0.077,-0.426 0.078,-0.388 0.116,-0.349 0.077,-0.349 0.077,-0.311 0.078,-0.271 0.077,-0.271 0.077,-0.232 0.078,-0.232 0.077,-0.194 c 0.078,-0.193 0.155,-0.349 0.155,-0.349 0.039,-0.155 0.116,-0.271 0.116,-0.271 0.039,-0.116 0.077,-0.232 0.077,-0.232 0.078,-0.193 0.078,-0.271 0.078,-0.271 0.038,-0.116 0.077,-0.271 0.077,-0.271 0.077,-0.116 0.193,-0.271 0.193,-0.271 0.078,-0.193 0.194,-0.349 0.194,-0.349 0.154,-0.193 0.271,-0.388 0.271,-0.388 l 0.155,-0.193 0.194,-0.232 0.154,-0.232 0.232,-0.194 0.194,-0.232 0.232,-0.232 0.232,-0.271 0.271,-0.233 0.271,-0.232 0.271,-0.232 0.31,-0.271 0.311,-0.232 0.349,-0.232 0.349,-0.233 0.349,-0.232 0.388,-0.232 0.388,-0.232 0.426,-0.193 0.427,-0.232 0.465,-0.194 0.465,-0.193 0.504,-0.155 0.503,-0.193 0.543,-0.155 0.542,-0.154 0.543,-0.116 0.581,-0.116 0.62,-0.117 0.62,-0.077 0.658,-0.039 0.659,-0.077 0.658,-0.039 h 0.697 c 0.155,0 0.271,0 0.271,0 0.155,0.039 0.349,0.039 0.349,0.039 0.155,0 0.349,0.039 0.349,0.039 h 0.194 l 0.232,0.038 0.232,0.039 0.193,0.039 0.271,0.038 0.232,0.039 0.232,0.039 0.271,0.077 0.271,0.039 0.271,0.077 0.271,0.039 0.271,0.077 0.271,0.078 0.311,0.116 0.271,0.077 0.271,0.116 0.311,0.077 0.271,0.116 0.271,0.116 0.271,0.116 0.31,0.155 0.271,0.116 0.271,0.155 0.271,0.155 0.232,0.154 0.271,0.194 0.232,0.154 0.271,0.194 0.232,0.193 0.194,0.194 0.232,0.193 0.193,0.232 0.193,0.232 0.194,0.232 0.193,0.232 0.155,0.232 0.155,0.271 0.154,0.232 0.155,0.271 0.155,0.271 0.154,0.271 0.116,0.311 0.155,0.271 0.116,0.271 0.116,0.311 0.116,0.31 0.116,0.31 0.078,0.311 0.116,0.31 0.116,0.311 0.077,0.349 0.077,0.31 0.078,0.349 0.077,0.349 0.077,0.349 0.078,0.349 0.038,0.35 0.078,0.349 0.039,0.349 0.077,0.388 0.039,0.349 0.038,0.387 0.039,0.388 0.039,0.349 0.038,0.388 v 0.388 l 0.039,0.426 0.039,0.388 v 0.388 0.388 l 0.038,0.426 v 0.388 0.426 0.427 h 11.147 z"
   stroke-miterlimit="10"
   inkscape:connector-curvature="0" />
</g><g
     style="fill:#000000;fill-opacity:1;stroke:none"
     id="LWPOLYLINE_13_">
	
		<path
   style="fill:#000000;fill-opacity:1;stroke:none"
   id="path43"
   d="m 448.148,643.912 c 0,-0.155 0,-0.271 0,-0.271 0,-0.155 0,-0.349 0,-0.349 v -0.194 -0.271 -0.232 -0.271 -0.311 -0.31 -0.349 -0.349 -0.349 -0.388 -0.349 -0.388 -0.388 -0.387 -0.388 -0.388 -0.388 -0.349 -0.388 -0.349 -0.349 -0.349 -0.31 -0.311 -0.271 -0.233 -0.271 -0.194 c 0,-0.193 0,-0.349 0,-0.349 0,-0.116 0,-0.193 0,-0.193 -0.077,-0.077 -0.271,-0.077 -0.271,-0.077 h -0.31 -0.426 -0.543 -0.62 -0.736 -0.813 -0.891 -0.969 -1.047 -1.085 -1.162 -1.201 -1.239 -1.279 -1.278 -1.317 -1.356 -1.317 -1.356 -1.317 -1.317 -1.317 -1.239 -1.24 -1.201 -1.162 -1.085 -1.046 -0.969 -0.892 -0.813 -0.736 -0.62 -0.542 -0.427 -0.31 c -0.193,0 -0.271,0 -0.271,0 0,-0.078 0,-0.233 0,-0.233 v -0.271 -0.388 -0.465 -0.581 -0.659 -0.697 -0.813 -0.853 -0.93 -0.969 -1.008 -1.085 -1.085 -1.123 -1.163 -1.201 -1.162 -1.201 -1.162 -1.201 -1.163 -1.162 -1.123 -1.124 -1.046 -1.008 -1.008 -0.891 -0.892 -0.774 -0.736 -0.659 -0.542 -0.465 -0.388 -0.271 c 0,-0.193 0,-0.232 0,-0.232 0.078,0 0.232,0 0.232,0 h 0.311 0.387 0.466 0.581 0.658 0.736 0.813 0.892 0.969 0.969 1.046 1.124 1.123 1.163 1.162 1.201 1.201 1.239 1.201 1.24 1.201 1.162 1.163 1.123 1.085 1.046 1.008 0.969 0.853 0.813 0.775 0.658 0.581 0.465 0.388 0.311 c 0.154,0 0.232,0 0.232,0 0,-0.193 0,-0.31 0,-0.31 0,-0.155 0,-0.311 0,-0.311 v -0.232 -0.232 -0.271 -0.271 -0.311 -0.31 -0.31 -0.349 -0.388 -0.349 -0.388 -0.388 -0.349 -0.388 -0.387 -0.388 -0.388 -0.388 -0.349 -0.388 -0.31 -0.349 -0.311 -0.31 -0.271 -0.271 -0.232 -0.194 c 0,-0.193 0,-0.349 0,-0.349 0,-0.116 0,-0.232 0,-0.232 -0.078,-0.077 -0.232,-0.077 -0.232,-0.077 h -0.311 -0.388 -0.465 -0.581 -0.658 -0.775 -0.813 -0.853 -0.969 -1.008 -1.046 -1.085 -1.123 -1.163 -1.162 -1.201 -1.24 -1.201 -1.239 -1.201 -1.201 -1.162 -1.163 -1.123 -1.124 -1.046 -0.969 -0.973 -0.892 -0.813 -0.736 -0.659 -0.581 -0.466 -0.387 -0.311 c -0.154,0 -0.232,0 -0.232,0 0,-0.039 0,-0.194 0,-0.194 v -0.271 -0.35 -0.426 -0.543 -0.581 -0.658 -0.736 -0.813 -0.853 -0.892 -0.969 -0.969 -1.007 -1.046 -1.085 -1.085 -1.085 -1.085 -1.124 -1.085 -1.085 -1.085 -1.046 -1.007 -0.969 -0.969 -0.892 -0.853 -0.774 -0.775 -0.658 -0.582 -0.542 -0.426 -0.35 -0.271 c 0,-0.155 0,-0.194 0,-0.194 0.078,0 0.271,0 0.271,0 h 0.31 0.388 0.543 0.619 0.698 0.813 0.853 0.969 1.007 1.085 1.124 1.162 1.201 1.24 1.278 1.278 1.317 1.317 1.279 1.317 1.278 1.278 1.24 1.201 1.201 1.124 1.046 1.008 0.968 0.853 0.814 0.697 0.62 0.542 0.426 0.311 c 0.193,0 0.232,0 0.232,0 0,-0.193 0,-0.31 0,-0.31 0,-0.155 0,-0.31 0,-0.31 v -0.233 -0.232 -0.271 -0.271 -0.31 -0.311 -0.31 -0.349 -0.388 -0.349 -0.388 -0.388 -0.349 -0.388 -0.387 -0.388 -0.388 -0.388 -0.349 -0.388 -0.31 -0.349 -0.31 -0.311 -0.271 -0.271 -0.232 -0.194 c 0,-0.193 0,-0.349 0,-0.349 0,-0.116 0,-0.232 0,-0.232 -0.077,-0.077 -0.31,-0.077 -0.31,-0.077 h -0.427 -0.542 -0.698 -0.813 -0.93 -1.046 -1.163 -1.239 -1.356 -1.395 -1.512 -1.511 -1.628 -1.627 -1.666 -1.705 -1.705 -1.743 -1.705 -1.743 -1.666 -1.701 -1.628 -1.588 -1.55 -1.473 -1.434 -1.317 -1.24 -1.162 -1.046 -0.931 -0.852 -0.659 -0.581 -0.388 -0.232 c -0.116,0.193 -0.116,0.697 -0.116,0.697 v 0.813 1.085 1.395 1.628 1.859 2.093 2.324 2.519 2.674 2.829 2.944 3.1 3.178 3.293 3.332 3.41 3.409 3.449 3.448 3.448 3.41 3.332 3.255 3.216 3.061 2.983 2.829 2.673 2.48 2.324 2.093 1.898 1.627 1.396 1.085 0.813 0.504 c 10e-4,0.178 46.845,0.178 46.845,0.178 z"
   stroke-miterlimit="10"
   inkscape:connector-curvature="0" />
</g><g
     style="fill:#000000;fill-opacity:1;stroke:none"
     id="LWPOLYLINE_14_">
	
		<path
   style="fill:#000000;fill-opacity:1;stroke:none"
   id="path46"
   d="m 506.075,643.912 c 0,-0.155 0,-0.271 0,-0.271 0,-0.155 0,-0.349 0,-0.349 v -0.194 -0.271 -0.232 -0.271 -0.311 -0.31 -0.349 -0.349 -0.349 -0.388 -0.349 -0.388 -0.388 -0.387 -0.388 -0.388 -0.388 -0.349 -0.388 -0.349 -0.349 -0.349 -0.31 -0.311 -0.271 -0.233 -0.271 -0.194 c 0,-0.193 0,-0.349 0,-0.349 0,-0.116 0,-0.193 0,-0.193 -0.078,-0.077 -0.271,-0.077 -0.271,-0.077 h -0.271 -0.387 -0.504 -0.62 -0.659 -0.774 -0.813 -0.931 -0.968 -1.008 -1.085 -1.124 -1.123 -1.201 -1.201 -1.24 -1.24 -1.239 -1.279 -1.239 -1.201 -1.24 -1.162 -1.162 -1.124 -1.085 -1.008 -0.968 -0.892 -0.853 -0.774 -0.659 -0.581 -0.504 -0.426 -0.271 c -0.193,0 -0.232,0 -0.232,0 0,-0.155 0,-0.582 0,-0.582 v -0.735 -0.969 -1.24 -1.434 -1.666 -1.86 -2.054 -2.247 -2.363 -2.519 -2.635 -2.712 -2.868 -2.905 -2.945 -3.021 -3.062 -3.061 -3.062 -3.061 -2.983 -2.984 -2.905 -2.829 -2.751 -2.635 -2.519 -2.363 -2.209 -2.053 -1.86 -1.666 -1.473 -1.239 -0.969 -0.697 -0.466 c -0.194,-0.154 -0.311,-0.154 -0.311,-0.154 -0.193,0 -0.387,0 -0.387,0 h -0.232 -0.232 -0.271 -0.311 -0.349 -0.31 -0.388 -0.349 -0.388 -0.388 -0.426 -0.388 -0.426 -0.427 -0.426 -0.388 -0.426 -0.388 -0.388 -0.388 -0.387 -0.349 -0.35 -0.31 -0.31 -0.271 -0.271 -0.232 c -0.193,0 -0.349,0 -0.349,0 -0.155,0 -0.232,0 -0.232,0 -0.077,0.193 -0.077,0.697 -0.077,0.697 v 0.813 1.085 1.395 1.628 1.859 2.093 2.324 2.519 2.674 2.829 2.944 3.1 3.178 3.293 3.332 3.41 3.409 3.449 3.448 3.448 3.41 3.332 3.255 3.216 3.061 2.983 2.829 2.673 2.48 2.324 2.093 1.898 1.627 1.396 1.085 0.813 0.504 c 0.002,0.163 44.444,0.163 44.444,0.163 z"
   stroke-miterlimit="10"
   inkscape:connector-curvature="0" />
</g><g
     style="fill:#000000;fill-opacity:1;stroke:none"
     id="LINE">
	
		<path
   id="line49"
   d="m 302.71875,145.5 c -3.05047,0.009 -6.12748,0.13073 -9.21875,0.375 -58.759,4.631 -105.40475,51.30075 -110.21875,110.03125 l 239.28125,0 C 417.4118,193.04146 364.74489,145.32195 302.71875,145.5 z m -0.0625,18.90625 c 43.98811,-0.13868 84.56506,28.66847 97.625,72.8125 l -194.71875,0 c 9.9765,-33.157 36.1,-59.285 69.5,-68.875 9.20683,-2.64395 18.46414,-3.90872 27.59375,-3.9375 z"
   style="fill:#000000;fill-opacity:1;stroke:none"
   inkscape:connector-curvature="0" />
</g></g>

<g
   id="LINE_2_"
   transform="translate(197.76331,-98.845726)">
	
		
</g>

<g
   id="ARC"
   transform="translate(197.76331,-98.845726)">
	
		
</g>
<g
   id="ARC_1_"
   transform="translate(197.76331,-98.845726)">
	
		
</g>
<g
   id="LINE_4_"
   transform="translate(197.76331,-98.845726)">
	
		
</g>

<g
   id="LINE_6_"
   transform="translate(197.76331,-98.845726)">
	
		
</g>


<g
   id="ARC_3_"
   transform="translate(197.76331,-98.845726)">
	
		
</g>
</svg>