<?xml version="1.0" encoding="UTF-8" standalone="no"?>
<!-- Generator: Adobe Illustrator 16.0.1, SVG Export Plug-In . SVG Version: 6.00 Build 0)  -->

<svg
   xmlns:dc="http://purl.org/dc/elements/1.1/"
   xmlns:cc="http://creativecommons.org/ns#"
   xmlns:rdf="http://www.w3.org/1999/02/22-rdf-syntax-ns#"
   xmlns:svg="http://www.w3.org/2000/svg"
   xmlns="http://www.w3.org/2000/svg"
   xmlns:xlink="http://www.w3.org/1999/xlink"
   xmlns:sodipodi="http://sodipodi.sourceforge.net/DTD/sodipodi-0.dtd"
   xmlns:inkscape="http://www.inkscape.org/namespaces/inkscape"
   version="1.0"
   id="_x31_"
   x="0px"
   y="0px"
   width="350"
   height="350"
   viewBox="0 0 350 350"
   enable-background="new 0 0 612 792"
   xml:space="preserve"
   inkscape:version="0.48.3.1 r9886"
   sodipodi:docname="6005.svg"><metadata
   id="metadata64"><rdf:RDF><cc:Work
       rdf:about=""><dc:format>image/svg+xml</dc:format><dc:type
         rdf:resource="http://purl.org/dc/dcmitype/StillImage" /></cc:Work></rdf:RDF></metadata><defs
   id="defs62"><radialGradient
     r="333.18735"
     fy="467.91885"
     fx="373.24265"
     cy="467.91885"
     cx="373.24265"
     gradientTransform="matrix(0.83535069,2.5391116e-7,-2.4564601e-7,0.80815885,-725.97492,-115.98714)"
     gradientUnits="userSpaceOnUse"
     id="radialGradient4460"
     xlink:href="#linearGradient5443"
     inkscape:collect="always" /><linearGradient
     y2="254.73526"
     x2="123.47623"
     y1="344.03848"
     x1="123.50603"
     gradientTransform="matrix(2.3189708,0,0,2.0930998,-543.56606,-225.82362)"
     gradientUnits="userSpaceOnUse"
     id="linearGradient4458"
     xlink:href="#linearGradient3187"
     inkscape:collect="always" /><radialGradient
     r="333.18735"
     fy="710.99164"
     fx="373.24265"
     cy="710.99164"
     cx="373.24265"
     gradientTransform="matrix(0.86272606,1.0667183e-7,-5.1097113e-8,0.31433999,-736.19251,168.72353)"
     gradientUnits="userSpaceOnUse"
     id="radialGradient4456"
     xlink:href="#linearGradient5443"
     inkscape:collect="always" /><radialGradient
     r="333.18735"
     fy="467.91885"
     fx="373.24265"
     cy="467.91885"
     cx="373.24265"
     gradientTransform="matrix(0.83393192,2.4025531e-7,-2.452288e-7,0.76469446,-575.89311,126.3946)"
     gradientUnits="userSpaceOnUse"
     id="radialGradient2894-5"
     xlink:href="#linearGradient5443-0"
     inkscape:collect="always" /><linearGradient
     y2="254.73526"
     x2="123.47623"
     y1="344.03848"
     x1="123.50603"
     gradientTransform="matrix(2.3189708,0,0,2.0930998,-543.56606,-225.82362)"
     gradientUnits="userSpaceOnUse"
     id="linearGradient2892-2"
     xlink:href="#linearGradient3187-1"
     inkscape:collect="always" /><radialGradient
     r="333.18735"
     fy="710.99164"
     fx="373.24265"
     cy="710.99164"
     cx="373.24265"
     gradientTransform="matrix(0.8612608,1.0093481e-7,-5.1010329e-8,0.29743416,-586.09339,395.79293)"
     gradientUnits="userSpaceOnUse"
     id="radialGradient2890-7"
     xlink:href="#linearGradient5443-0"
     inkscape:collect="always" /><linearGradient
     id="linearGradient5443-5-6"><stop
       style="stop-color:#ffffff;stop-opacity:0;"
       offset="0"
       id="stop5445-4-1" /><stop
       style="stop-color:#000000;stop-opacity:0.33962265;"
       offset="1"
       id="stop5447-3-4" /></linearGradient><radialGradient
     r="333.18735"
     fy="710.99164"
     fx="373.24265"
     cy="710.99164"
     cx="373.24265"
     gradientTransform="matrix(0.9503534,1.1750652e-7,-5.6287062e-8,0.3462676,317.80591,185.68771)"
     gradientUnits="userSpaceOnUse"
     id="radialGradient4835-3-2"
     xlink:href="#linearGradient5443-5-6"
     inkscape:collect="always" /><radialGradient
     r="333.18735"
     fy="710.99164"
     fx="373.24265"
     cy="710.99164"
     cx="373.24265"
     gradientTransform="matrix(0.8612608,1.0093481e-7,-5.1010329e-8,0.29743416,-586.09339,395.79293)"
     gradientUnits="userSpaceOnUse"
     id="radialGradient4835-2"
     xlink:href="#linearGradient5443-0"
     inkscape:collect="always" /><radialGradient
     r="333.18735"
     fy="467.91885"
     fx="373.24265"
     cy="467.91885"
     cx="373.24265"
     gradientTransform="matrix(0.83393192,2.4025531e-7,-2.452288e-7,0.76469446,-575.89311,126.3946)"
     gradientUnits="userSpaceOnUse"
     id="radialGradient4832-1"
     xlink:href="#linearGradient5443-0"
     inkscape:collect="always" /><linearGradient
     y2="254.73526"
     x2="123.47623"
     y1="344.03848"
     x1="123.50603"
     gradientTransform="matrix(2.3189708,0,0,2.0930998,-543.56606,-225.82362)"
     gradientUnits="userSpaceOnUse"
     id="linearGradient4827-6"
     xlink:href="#linearGradient3187-1"
     inkscape:collect="always" /><linearGradient
     y2="254.73526"
     x2="123.47623"
     y1="344.03848"
     x1="123.50603"
     gradientTransform="matrix(2.3189708,0,0,2.0930998,93.115298,-256.84999)"
     gradientUnits="userSpaceOnUse"
     id="linearGradient4824-8"
     xlink:href="#linearGradient3187-1"
     inkscape:collect="always" /><radialGradient
     r="333.18735"
     fy="467.91885"
     fx="373.24265"
     cy="467.91885"
     cx="373.24265"
     gradientTransform="matrix(0.9201975,2.7970099e-7,-2.7059634e-7,0.8902438,28.590287,48.634335)"
     gradientUnits="userSpaceOnUse"
     id="radialGradient4822-5"
     xlink:href="#linearGradient3171-6"
     inkscape:collect="always" /><radialGradient
     r="333.18735"
     fy="710.99164"
     fx="373.24265"
     cy="710.99164"
     cx="373.24265"
     gradientTransform="matrix(0.9503534,1.1750652e-7,-5.6287062e-8,0.3462676,17.334826,362.44227)"
     gradientUnits="userSpaceOnUse"
     id="radialGradient4820-7"
     xlink:href="#linearGradient3157-2"
     inkscape:collect="always" /><radialGradient
     r="333.18735"
     fy="710.99164"
     fx="373.24265"
     cy="710.99164"
     cx="373.24265"
     gradientTransform="matrix(0.9503534,1.1750652e-7,-5.6287062e-8,0.3462676,17.334826,362.44227)"
     gradientUnits="userSpaceOnUse"
     id="radialGradient4805-6"
     xlink:href="#linearGradient3157-2"
     inkscape:collect="always" /><radialGradient
     r="333.18735"
     fy="467.91885"
     fx="373.24265"
     cy="467.91885"
     cx="373.24265"
     gradientTransform="matrix(0.9201975,2.7970099e-7,-2.7059634e-7,0.8902438,28.590287,48.634335)"
     gradientUnits="userSpaceOnUse"
     id="radialGradient4802-1"
     xlink:href="#linearGradient3171-6"
     inkscape:collect="always" /><linearGradient
     y2="254.73526"
     x2="123.47623"
     y1="344.03848"
     x1="123.50603"
     gradientTransform="matrix(2.3189708,0,0,2.0930998,93.115298,-256.84999)"
     gradientUnits="userSpaceOnUse"
     id="linearGradient4799-8"
     xlink:href="#linearGradient3187-1"
     inkscape:collect="always" /><linearGradient
     y2="254.73526"
     x2="123.47623"
     y1="344.03848"
     x1="123.50603"
     gradientTransform="matrix(2.3189708,0,0,2.0930998,93.115298,-256.84999)"
     gradientUnits="userSpaceOnUse"
     id="linearGradient4794-9"
     xlink:href="#linearGradient3187-1"
     inkscape:collect="always" /><radialGradient
     r="333.18735"
     fy="467.91885"
     fx="373.24265"
     cy="467.91885"
     cx="373.24265"
     gradientTransform="matrix(0.9201975,2.7970099e-7,-2.7059634e-7,0.8902438,28.590287,48.634335)"
     gradientUnits="userSpaceOnUse"
     id="radialGradient4792-2"
     xlink:href="#linearGradient3171-6"
     inkscape:collect="always" /><radialGradient
     r="333.18735"
     fy="710.99164"
     fx="373.24265"
     cy="710.99164"
     cx="373.24265"
     gradientTransform="matrix(0.9503534,1.1750652e-7,-5.6287062e-8,0.3462676,17.334826,362.44227)"
     gradientUnits="userSpaceOnUse"
     id="radialGradient4790-7"
     xlink:href="#linearGradient3157-2"
     inkscape:collect="always" /><radialGradient
     r="333.18735"
     fy="710.99164"
     fx="373.24265"
     cy="710.99164"
     cx="373.24265"
     gradientTransform="matrix(0.9503534,1.1750652e-7,-5.6287062e-8,0.3462676,17.334826,362.44227)"
     gradientUnits="userSpaceOnUse"
     id="radialGradient4779-9"
     xlink:href="#linearGradient3157-2"
     inkscape:collect="always" /><radialGradient
     r="333.18735"
     fy="467.91885"
     fx="373.24265"
     cy="467.91885"
     cx="373.24265"
     gradientTransform="matrix(0.9201975,2.7970099e-7,-2.7059634e-7,0.8902438,28.590287,48.634335)"
     gradientUnits="userSpaceOnUse"
     id="radialGradient4776-5"
     xlink:href="#linearGradient3171-6"
     inkscape:collect="always" /><linearGradient
     y2="254.73526"
     x2="123.47623"
     y1="344.03848"
     x1="123.50603"
     gradientTransform="matrix(2.3189708,0,0,2.0930998,93.115298,-256.84999)"
     gradientUnits="userSpaceOnUse"
     id="linearGradient4773-4"
     xlink:href="#linearGradient3187-1"
     inkscape:collect="always" /><linearGradient
     y2="254.73526"
     x2="123.47623"
     y1="344.03848"
     x1="123.50603"
     gradientTransform="matrix(2.3189708,0,0,2.0930998,93.115298,-256.84999)"
     gradientUnits="userSpaceOnUse"
     id="linearGradient4770-3"
     xlink:href="#linearGradient3187-1"
     inkscape:collect="always" /><radialGradient
     r="333.18735"
     fy="467.91885"
     fx="373.24265"
     cy="467.91885"
     cx="373.24265"
     gradientTransform="matrix(0.9201975,2.7970099e-7,-2.7059634e-7,0.8902438,28.590287,48.634335)"
     gradientUnits="userSpaceOnUse"
     id="radialGradient4768-1"
     xlink:href="#linearGradient3171-6"
     inkscape:collect="always" /><radialGradient
     r="333.18735"
     fy="710.99164"
     fx="373.24265"
     cy="710.99164"
     cx="373.24265"
     gradientTransform="matrix(0.9503534,1.1750652e-7,-5.6287062e-8,0.3462676,17.334826,362.44227)"
     gradientUnits="userSpaceOnUse"
     id="radialGradient4766-2"
     xlink:href="#linearGradient3157-2"
     inkscape:collect="always" /><radialGradient
     r="333.18735"
     fy="710.99164"
     fx="373.24265"
     cy="710.99164"
     cx="373.24265"
     gradientTransform="matrix(0.9503534,1.1750652e-7,-5.6287062e-8,0.3462676,17.334826,362.44227)"
     gradientUnits="userSpaceOnUse"
     id="radialGradient4572-4"
     xlink:href="#linearGradient3157-2"
     inkscape:collect="always" /><radialGradient
     r="333.18735"
     fy="467.91885"
     fx="373.24265"
     cy="467.91885"
     cx="373.24265"
     gradientTransform="matrix(0.9201975,2.7970099e-7,-2.7059634e-7,0.8902438,28.590287,48.634335)"
     gradientUnits="userSpaceOnUse"
     id="radialGradient4569-1"
     xlink:href="#linearGradient3171-6"
     inkscape:collect="always" /><linearGradient
     y2="254.73526"
     x2="123.47623"
     y1="344.03848"
     x1="123.50603"
     gradientTransform="matrix(2.3189708,0,0,2.0930998,93.115298,-256.84999)"
     gradientUnits="userSpaceOnUse"
     id="linearGradient4562-1"
     xlink:href="#linearGradient3187-1"
     inkscape:collect="always" /><linearGradient
     gradientUnits="userSpaceOnUse"
     y2="540.86719"
     x2="360.49777"
     y1="167.50403"
     x1="360.49777"
     id="linearGradient4401-3"
     xlink:href="#linearGradient4395-7"
     inkscape:collect="always" /><linearGradient
     gradientUnits="userSpaceOnUse"
     y2="655.4505"
     x2="396.91168"
     y1="298.59412"
     x1="371.42194"
     id="linearGradient4389-8"
     xlink:href="#linearGradient4383-4"
     inkscape:collect="always" /><inkscape:perspective
     id="perspective3214-7"
     inkscape:persp3d-origin="372.04724 : 350.78739 : 1"
     inkscape:vp_z="744.09448 : 526.18109 : 1"
     inkscape:vp_y="0 : 1000 : 0"
     inkscape:vp_x="0 : 526.18109 : 1"
     sodipodi:type="inkscape:persp3d" /><linearGradient
     id="linearGradient4383-4"><stop
       id="stop4385-2"
       offset="0"
       style="stop-color:#00037f;stop-opacity:1;" /><stop
       id="stop4387-7"
       offset="1"
       style="stop-color:#00037f;stop-opacity:0;" /></linearGradient><linearGradient
     id="linearGradient4395-7"><stop
       id="stop4397-9"
       offset="0"
       style="stop-color:#110084;stop-opacity:1;" /><stop
       id="stop4399-3"
       offset="1"
       style="stop-color:#a695ff;stop-opacity:1;" /></linearGradient><linearGradient
     id="linearGradient3187-1"><stop
       id="stop3189-9"
       offset="0"
       style="stop-color:#ffffff;stop-opacity:0.39622641;" /><stop
       id="stop3191-8"
       offset="1"
       style="stop-color:#000000;stop-opacity:1;" /></linearGradient><linearGradient
     id="linearGradient3171-6"><stop
       style="stop-color:#49bcff;stop-opacity:1;"
       offset="0"
       id="stop3173-5" /><stop
       style="stop-color:#494cdc;stop-opacity:1;"
       offset="1"
       id="stop3175-0" /></linearGradient><linearGradient
     id="linearGradient3157-2"><stop
       id="stop3159-8"
       offset="0"
       style="stop-color:#49bcff;stop-opacity:1;" /><stop
       id="stop3161-6"
       offset="1"
       style="stop-color:#494c96;stop-opacity:1;" /></linearGradient><linearGradient
     id="linearGradient5443-0"><stop
       style="stop-color:#ffffff;stop-opacity:0;"
       offset="0"
       id="stop5445-2" /><stop
       style="stop-color:#000000;stop-opacity:0.33962265;"
       offset="1"
       id="stop5447-4" /></linearGradient><radialGradient
     inkscape:collect="always"
     xlink:href="#linearGradient5443-0"
     id="radialGradient3234"
     gradientUnits="userSpaceOnUse"
     gradientTransform="matrix(0.8612608,1.0093481e-7,-5.1010329e-8,0.29743416,-586.09339,395.79293)"
     cx="373.24265"
     cy="710.99164"
     fx="373.24265"
     fy="710.99164"
     r="333.18735" /><linearGradient
     inkscape:collect="always"
     xlink:href="#linearGradient3187-1"
     id="linearGradient3236"
     gradientUnits="userSpaceOnUse"
     gradientTransform="matrix(2.3189708,0,0,2.0930998,-543.56606,-225.82362)"
     x1="123.50603"
     y1="344.03848"
     x2="123.47623"
     y2="254.73526" /><radialGradient
     inkscape:collect="always"
     xlink:href="#linearGradient5443-0"
     id="radialGradient3238"
     gradientUnits="userSpaceOnUse"
     gradientTransform="matrix(0.83393192,2.4025531e-7,-2.452288e-7,0.76469446,-575.89311,126.3946)"
     cx="373.24265"
     cy="467.91885"
     fx="373.24265"
     fy="467.91885"
     r="333.18735" /><radialGradient
     inkscape:collect="always"
     xlink:href="#linearGradient5443-0"
     id="radialGradient3254"
     gradientUnits="userSpaceOnUse"
     gradientTransform="matrix(0.8612608,1.0093481e-7,-5.1010329e-8,0.29743416,-586.09339,395.79293)"
     cx="373.24265"
     cy="710.99164"
     fx="373.24265"
     fy="710.99164"
     r="333.18735" /><linearGradient
     inkscape:collect="always"
     xlink:href="#linearGradient3187-1"
     id="linearGradient3256"
     gradientUnits="userSpaceOnUse"
     gradientTransform="matrix(2.3189708,0,0,2.0930998,-543.56606,-225.82362)"
     x1="123.50603"
     y1="344.03848"
     x2="123.47623"
     y2="254.73526" /><radialGradient
     inkscape:collect="always"
     xlink:href="#linearGradient5443-0"
     id="radialGradient3258"
     gradientUnits="userSpaceOnUse"
     gradientTransform="matrix(0.83393192,2.4025531e-7,-2.452288e-7,0.76469446,-575.89311,126.3946)"
     cx="373.24265"
     cy="467.91885"
     fx="373.24265"
     fy="467.91885"
     r="333.18735" /><radialGradient
     inkscape:collect="always"
     xlink:href="#linearGradient5443-0"
     id="radialGradient3270"
     gradientUnits="userSpaceOnUse"
     gradientTransform="matrix(0.83535069,2.5391116e-7,-2.4564601e-7,0.80815885,-821.89024,-331.16994)"
     cx="373.24265"
     cy="467.91885"
     fx="373.24265"
     fy="467.91885"
     r="333.18735" /><radialGradient
     inkscape:collect="always"
     xlink:href="#linearGradient5443-0"
     id="radialGradient3274"
     gradientUnits="userSpaceOnUse"
     gradientTransform="matrix(0.86272606,1.0667183e-7,-5.1097113e-8,0.31433999,-832.10787,-46.459305)"
     cx="373.24265"
     cy="710.99164"
     fx="373.24265"
     fy="710.99164"
     r="333.18735" /><linearGradient
     y2="254.73526"
     x2="123.47623"
     y1="344.03848"
     x1="123.50603"
     gradientTransform="matrix(2.3189708,0,0,2.0930998,-543.56606,-225.82362)"
     gradientUnits="userSpaceOnUse"
     id="linearGradient3422"
     xlink:href="#linearGradient3187"
     inkscape:collect="always" /><radialGradient
     r="333.18735"
     fy="710.99164"
     fx="373.24265"
     cy="710.99164"
     cx="373.24265"
     gradientTransform="matrix(0.86272606,1.0667183e-7,-5.1097113e-8,0.31433999,-736.19251,168.72353)"
     gradientUnits="userSpaceOnUse"
     id="radialGradient3416"
     xlink:href="#linearGradient5443"
     inkscape:collect="always" /><radialGradient
     r="333.18735"
     fy="467.91885"
     fx="373.24265"
     cy="467.91885"
     cx="373.24265"
     gradientTransform="matrix(0.83535069,2.5391116e-7,-2.4564601e-7,0.80815885,-725.97492,-115.98714)"
     gradientUnits="userSpaceOnUse"
     id="radialGradient3412"
     xlink:href="#linearGradient5443"
     inkscape:collect="always" /><radialGradient
     r="333.18735"
     fy="467.91885"
     fx="373.24265"
     cy="467.91885"
     cx="373.24265"
     gradientTransform="matrix(0.83393192,2.4025531e-7,-2.452288e-7,0.76469446,-575.89311,126.3946)"
     gradientUnits="userSpaceOnUse"
     id="radialGradient2894"
     xlink:href="#linearGradient5443"
     inkscape:collect="always" /><linearGradient
     y2="254.73526"
     x2="123.47623"
     y1="344.03848"
     x1="123.50603"
     gradientTransform="matrix(2.3189708,0,0,2.0930998,-543.56606,-225.82362)"
     gradientUnits="userSpaceOnUse"
     id="linearGradient2892"
     xlink:href="#linearGradient3187"
     inkscape:collect="always" /><radialGradient
     r="333.18735"
     fy="710.99164"
     fx="373.24265"
     cy="710.99164"
     cx="373.24265"
     gradientTransform="matrix(0.8612608,1.0093481e-7,-5.1010329e-8,0.29743416,-586.09339,395.79293)"
     gradientUnits="userSpaceOnUse"
     id="radialGradient2890"
     xlink:href="#linearGradient5443"
     inkscape:collect="always" /><linearGradient
     id="linearGradient5443-5"><stop
       style="stop-color:#ffffff;stop-opacity:0;"
       offset="0"
       id="stop5445-4" /><stop
       style="stop-color:#000000;stop-opacity:0.33962265;"
       offset="1"
       id="stop5447-3" /></linearGradient><radialGradient
     r="333.18735"
     fy="710.99164"
     fx="373.24265"
     cy="710.99164"
     cx="373.24265"
     gradientTransform="matrix(0.9503534,1.1750652e-7,-5.6287062e-8,0.3462676,317.80591,185.68771)"
     gradientUnits="userSpaceOnUse"
     id="radialGradient4835-3"
     xlink:href="#linearGradient5443-5"
     inkscape:collect="always" /><filter
     color-interpolation-filters="sRGB"
     id="filter5511"
     inkscape:collect="always"><feGaussianBlur
       id="feGaussianBlur5513"
       stdDeviation="3.2374974"
       inkscape:collect="always" /></filter><radialGradient
     r="333.18735"
     fy="710.99164"
     fx="373.24265"
     cy="710.99164"
     cx="373.24265"
     gradientTransform="matrix(0.8612608,1.0093481e-7,-5.1010329e-8,0.29743416,-586.09339,395.79293)"
     gradientUnits="userSpaceOnUse"
     id="radialGradient4835"
     xlink:href="#linearGradient5443"
     inkscape:collect="always" /><radialGradient
     r="333.18735"
     fy="467.91885"
     fx="373.24265"
     cy="467.91885"
     cx="373.24265"
     gradientTransform="matrix(0.83393192,2.4025531e-7,-2.452288e-7,0.76469446,-575.89311,126.3946)"
     gradientUnits="userSpaceOnUse"
     id="radialGradient4832"
     xlink:href="#linearGradient5443"
     inkscape:collect="always" /><linearGradient
     y2="254.73526"
     x2="123.47623"
     y1="344.03848"
     x1="123.50603"
     gradientTransform="matrix(2.3189708,0,0,2.0930998,-543.56606,-225.82362)"
     gradientUnits="userSpaceOnUse"
     id="linearGradient4827"
     xlink:href="#linearGradient3187"
     inkscape:collect="always" /><linearGradient
     y2="254.73526"
     x2="123.47623"
     y1="344.03848"
     x1="123.50603"
     gradientTransform="matrix(2.3189708,0,0,2.0930998,93.115298,-256.84999)"
     gradientUnits="userSpaceOnUse"
     id="linearGradient4824"
     xlink:href="#linearGradient3187"
     inkscape:collect="always" /><radialGradient
     r="333.18735"
     fy="467.91885"
     fx="373.24265"
     cy="467.91885"
     cx="373.24265"
     gradientTransform="matrix(0.9201975,2.7970099e-7,-2.7059634e-7,0.8902438,28.590287,48.634335)"
     gradientUnits="userSpaceOnUse"
     id="radialGradient4822"
     xlink:href="#linearGradient3171"
     inkscape:collect="always" /><radialGradient
     r="333.18735"
     fy="710.99164"
     fx="373.24265"
     cy="710.99164"
     cx="373.24265"
     gradientTransform="matrix(0.9503534,1.1750652e-7,-5.6287062e-8,0.3462676,17.334826,362.44227)"
     gradientUnits="userSpaceOnUse"
     id="radialGradient4820"
     xlink:href="#linearGradient3157"
     inkscape:collect="always" /><radialGradient
     r="333.18735"
     fy="710.99164"
     fx="373.24265"
     cy="710.99164"
     cx="373.24265"
     gradientTransform="matrix(0.9503534,1.1750652e-7,-5.6287062e-8,0.3462676,17.334826,362.44227)"
     gradientUnits="userSpaceOnUse"
     id="radialGradient4805"
     xlink:href="#linearGradient3157"
     inkscape:collect="always" /><radialGradient
     r="333.18735"
     fy="467.91885"
     fx="373.24265"
     cy="467.91885"
     cx="373.24265"
     gradientTransform="matrix(0.9201975,2.7970099e-7,-2.7059634e-7,0.8902438,28.590287,48.634335)"
     gradientUnits="userSpaceOnUse"
     id="radialGradient4802"
     xlink:href="#linearGradient3171"
     inkscape:collect="always" /><linearGradient
     y2="254.73526"
     x2="123.47623"
     y1="344.03848"
     x1="123.50603"
     gradientTransform="matrix(2.3189708,0,0,2.0930998,93.115298,-256.84999)"
     gradientUnits="userSpaceOnUse"
     id="linearGradient4799"
     xlink:href="#linearGradient3187"
     inkscape:collect="always" /><linearGradient
     y2="254.73526"
     x2="123.47623"
     y1="344.03848"
     x1="123.50603"
     gradientTransform="matrix(2.3189708,0,0,2.0930998,93.115298,-256.84999)"
     gradientUnits="userSpaceOnUse"
     id="linearGradient4794"
     xlink:href="#linearGradient3187"
     inkscape:collect="always" /><radialGradient
     r="333.18735"
     fy="467.91885"
     fx="373.24265"
     cy="467.91885"
     cx="373.24265"
     gradientTransform="matrix(0.9201975,2.7970099e-7,-2.7059634e-7,0.8902438,28.590287,48.634335)"
     gradientUnits="userSpaceOnUse"
     id="radialGradient4792"
     xlink:href="#linearGradient3171"
     inkscape:collect="always" /><radialGradient
     r="333.18735"
     fy="710.99164"
     fx="373.24265"
     cy="710.99164"
     cx="373.24265"
     gradientTransform="matrix(0.9503534,1.1750652e-7,-5.6287062e-8,0.3462676,17.334826,362.44227)"
     gradientUnits="userSpaceOnUse"
     id="radialGradient4790"
     xlink:href="#linearGradient3157"
     inkscape:collect="always" /><radialGradient
     r="333.18735"
     fy="710.99164"
     fx="373.24265"
     cy="710.99164"
     cx="373.24265"
     gradientTransform="matrix(0.9503534,1.1750652e-7,-5.6287062e-8,0.3462676,17.334826,362.44227)"
     gradientUnits="userSpaceOnUse"
     id="radialGradient4779"
     xlink:href="#linearGradient3157"
     inkscape:collect="always" /><radialGradient
     r="333.18735"
     fy="467.91885"
     fx="373.24265"
     cy="467.91885"
     cx="373.24265"
     gradientTransform="matrix(0.9201975,2.7970099e-7,-2.7059634e-7,0.8902438,28.590287,48.634335)"
     gradientUnits="userSpaceOnUse"
     id="radialGradient4776"
     xlink:href="#linearGradient3171"
     inkscape:collect="always" /><linearGradient
     y2="254.73526"
     x2="123.47623"
     y1="344.03848"
     x1="123.50603"
     gradientTransform="matrix(2.3189708,0,0,2.0930998,93.115298,-256.84999)"
     gradientUnits="userSpaceOnUse"
     id="linearGradient4773"
     xlink:href="#linearGradient3187"
     inkscape:collect="always" /><linearGradient
     y2="254.73526"
     x2="123.47623"
     y1="344.03848"
     x1="123.50603"
     gradientTransform="matrix(2.3189708,0,0,2.0930998,93.115298,-256.84999)"
     gradientUnits="userSpaceOnUse"
     id="linearGradient4770"
     xlink:href="#linearGradient3187"
     inkscape:collect="always" /><radialGradient
     r="333.18735"
     fy="467.91885"
     fx="373.24265"
     cy="467.91885"
     cx="373.24265"
     gradientTransform="matrix(0.9201975,2.7970099e-7,-2.7059634e-7,0.8902438,28.590287,48.634335)"
     gradientUnits="userSpaceOnUse"
     id="radialGradient4768"
     xlink:href="#linearGradient3171"
     inkscape:collect="always" /><radialGradient
     r="333.18735"
     fy="710.99164"
     fx="373.24265"
     cy="710.99164"
     cx="373.24265"
     gradientTransform="matrix(0.9503534,1.1750652e-7,-5.6287062e-8,0.3462676,17.334826,362.44227)"
     gradientUnits="userSpaceOnUse"
     id="radialGradient4766"
     xlink:href="#linearGradient3157"
     inkscape:collect="always" /><filter
     color-interpolation-filters="sRGB"
     id="filter4659"
     inkscape:collect="always"><feGaussianBlur
       id="feGaussianBlur4661"
       stdDeviation="2.7750933"
       inkscape:collect="always" /></filter><radialGradient
     r="333.18735"
     fy="710.99164"
     fx="373.24265"
     cy="710.99164"
     cx="373.24265"
     gradientTransform="matrix(0.9503534,1.1750652e-7,-5.6287062e-8,0.3462676,17.334826,362.44227)"
     gradientUnits="userSpaceOnUse"
     id="radialGradient4572"
     xlink:href="#linearGradient3157"
     inkscape:collect="always" /><radialGradient
     r="333.18735"
     fy="467.91885"
     fx="373.24265"
     cy="467.91885"
     cx="373.24265"
     gradientTransform="matrix(0.9201975,2.7970099e-7,-2.7059634e-7,0.8902438,28.590287,48.634335)"
     gradientUnits="userSpaceOnUse"
     id="radialGradient4569"
     xlink:href="#linearGradient3171"
     inkscape:collect="always" /><linearGradient
     y2="254.73526"
     x2="123.47623"
     y1="344.03848"
     x1="123.50603"
     gradientTransform="matrix(2.3189708,0,0,2.0930998,93.115298,-256.84999)"
     gradientUnits="userSpaceOnUse"
     id="linearGradient4562"
     xlink:href="#linearGradient3187"
     inkscape:collect="always" /><linearGradient
     gradientUnits="userSpaceOnUse"
     y2="540.86719"
     x2="360.49777"
     y1="167.50403"
     x1="360.49777"
     id="linearGradient4401"
     xlink:href="#linearGradient4395"
     inkscape:collect="always" /><linearGradient
     gradientUnits="userSpaceOnUse"
     y2="655.4505"
     x2="396.91168"
     y1="298.59412"
     x1="371.42194"
     id="linearGradient4389"
     xlink:href="#linearGradient4383"
     inkscape:collect="always" /><inkscape:perspective
     id="perspective3214"
     inkscape:persp3d-origin="372.04724 : 350.78739 : 1"
     inkscape:vp_z="744.09448 : 526.18109 : 1"
     inkscape:vp_y="0 : 1000 : 0"
     inkscape:vp_x="0 : 526.18109 : 1"
     sodipodi:type="inkscape:persp3d" /><linearGradient
     id="linearGradient4383"><stop
       id="stop4385"
       offset="0"
       style="stop-color:#00037f;stop-opacity:1;" /><stop
       id="stop4387"
       offset="1"
       style="stop-color:#00037f;stop-opacity:0;" /></linearGradient><linearGradient
     id="linearGradient4395"><stop
       id="stop4397"
       offset="0"
       style="stop-color:#110084;stop-opacity:1;" /><stop
       id="stop4399"
       offset="1"
       style="stop-color:#a695ff;stop-opacity:1;" /></linearGradient><linearGradient
     id="linearGradient3187"><stop
       id="stop3189"
       offset="0"
       style="stop-color:#ffffff;stop-opacity:0.39622641;" /><stop
       id="stop3191"
       offset="1"
       style="stop-color:#9e9e9e;stop-opacity:1;" /></linearGradient><linearGradient
     id="linearGradient3171"><stop
       style="stop-color:#49bcff;stop-opacity:1;"
       offset="0"
       id="stop3173" /><stop
       style="stop-color:#494cdc;stop-opacity:1;"
       offset="1"
       id="stop3175" /></linearGradient><linearGradient
     id="linearGradient3157"><stop
       id="stop3159"
       offset="0"
       style="stop-color:#49bcff;stop-opacity:1;" /><stop
       id="stop3161"
       offset="1"
       style="stop-color:#494c96;stop-opacity:1;" /></linearGradient><linearGradient
     id="linearGradient5443"><stop
       style="stop-color:#ffffff;stop-opacity:0;"
       offset="0"
       id="stop5445" /><stop
       style="stop-color:#cbcac8;stop-opacity:1;"
       offset="1"
       id="stop5447" /></linearGradient><radialGradient
     inkscape:collect="always"
     xlink:href="#linearGradient5443"
     id="radialGradient3253"
     gradientUnits="userSpaceOnUse"
     gradientTransform="matrix(0.8612608,1.0093481e-7,-5.1010329e-8,0.29743416,-586.09339,395.79293)"
     cx="373.24265"
     cy="710.99164"
     fx="373.24265"
     fy="710.99164"
     r="333.18735" /><linearGradient
     inkscape:collect="always"
     xlink:href="#linearGradient3187"
     id="linearGradient3255"
     gradientUnits="userSpaceOnUse"
     gradientTransform="matrix(2.3189708,0,0,2.0930998,-543.56606,-225.82362)"
     x1="123.50603"
     y1="344.03848"
     x2="123.47623"
     y2="254.73526" /><radialGradient
     inkscape:collect="always"
     xlink:href="#linearGradient5443"
     id="radialGradient3257"
     gradientUnits="userSpaceOnUse"
     gradientTransform="matrix(0.83393192,2.4025531e-7,-2.452288e-7,0.76469446,-575.89311,126.3946)"
     cx="373.24265"
     cy="467.91885"
     fx="373.24265"
     fy="467.91885"
     r="333.18735" /><radialGradient
     inkscape:collect="always"
     xlink:href="#linearGradient5443"
     id="radialGradient3273"
     gradientUnits="userSpaceOnUse"
     gradientTransform="matrix(0.8612608,1.0093481e-7,-5.1010329e-8,0.29743416,-586.09339,395.79293)"
     cx="373.24265"
     cy="710.99164"
     fx="373.24265"
     fy="710.99164"
     r="333.18735" /><linearGradient
     inkscape:collect="always"
     xlink:href="#linearGradient3187"
     id="linearGradient3275"
     gradientUnits="userSpaceOnUse"
     gradientTransform="matrix(2.3189708,0,0,2.0930998,-543.56606,-225.82362)"
     x1="123.50603"
     y1="344.03848"
     x2="123.47623"
     y2="254.73526" /><radialGradient
     inkscape:collect="always"
     xlink:href="#linearGradient5443"
     id="radialGradient3277"
     gradientUnits="userSpaceOnUse"
     gradientTransform="matrix(0.83393192,2.4025531e-7,-2.452288e-7,0.76469446,-575.89311,126.3946)"
     cx="373.24265"
     cy="467.91885"
     fx="373.24265"
     fy="467.91885"
     r="333.18735" /></defs><sodipodi:namedview
   pagecolor="#ffffff"
   bordercolor="#666666"
   borderopacity="1"
   objecttolerance="10"
   gridtolerance="10"
   guidetolerance="10"
   inkscape:pageopacity="0"
   inkscape:pageshadow="2"
   inkscape:window-width="1920"
   inkscape:window-height="1031"
   id="namedview60"
   showgrid="false"
   inkscape:zoom="1.0732323"
   inkscape:cx="191.41229"
   inkscape:cy="137.02757"
   inkscape:window-x="-4"
   inkscape:window-y="-4"
   inkscape:window-maximized="1"
   inkscape:current-layer="_x31_"
   fit-margin-top="0"
   fit-margin-left="0"
   fit-margin-right="0"
   fit-margin-bottom="0" />
<g
   id="g4244"
   transform="translate(-4.0524846e-6,1.5294444e-7)"><g
     transform="translate(589.18636,-87.165827)"
     id="g4448"><rect
       transform="matrix(2.1051501,0,0,2.1051501,-860.18934,-1.2010596)"
       ry="12.45238"
       rx="16.067965"
       y="48.636749"
       x="135.39355"
       height="152.93848"
       width="152.93848"
       id="rect4192"
       style="fill:#cccccc;fill-opacity:1;stroke:none;filter:url(#filter4659)"
       inkscape:export-filename="C:\Documents and Settings\adscro24\Desktop\128.png"
       inkscape:export-xdpi="29.879425"
       inkscape:export-ydpi="29.879425" /><rect
       inkscape:export-ydpi="29.879425"
       inkscape:export-xdpi="29.879425"
       inkscape:export-filename="C:\Documents and Settings\adscro24\Desktop\128.png"
       style="fill:#cbcac8;fill-opacity:1;stroke:none;filter:url(#filter4659)"
       id="rect3279"
       width="152.93848"
       height="152.93848"
       x="135.39355"
       y="48.636749"
       rx="16.067965"
       ry="12.45238"
       transform="matrix(2.1051501,0,0,2.1051501,-860.18934,-1.2010596)" /><rect
       inkscape:export-ydpi="29.879425"
       inkscape:export-xdpi="29.879425"
       inkscape:export-filename="C:\Documents and Settings\adscro24\Desktop\128.png"
       style="opacity:0.61338286;fill:url(#radialGradient4456);fill-opacity:1;stroke:#000000;stroke-width:3.26806188;stroke-miterlimit:4;stroke-opacity:1;stroke-dasharray:none"
       id="rect3155"
       width="321.95847"
       height="321.95844"
       x="-575.16559"
       y="101.18661"
       rx="33.825478"
       ry="26.214128" /><path
       transform="matrix(0.907795,0,0,0.90779498,-173.95283,-177.39738)"
       inkscape:export-ydpi="29.879425"
       inkscape:export-xdpi="29.879425"
       inkscape:export-filename="C:\Documents and Settings\adscro24\Desktop\128.png"
       inkscape:connector-curvature="0"
       style="opacity:0.61338286;fill:url(#linearGradient4458);fill-opacity:1;stroke:none;filter:url(#filter5511)"
       d="m -397.80626,329.07489 c -19.62748,0 -35.44272,12.0976 -35.44272,27.14163 l 0,124.30857 c 29.25482,11.38638 132.70149,11.89599 165.40488,-5.79022 33.32802,-18.02397 127.54379,-68.44264 171.824837,-52.72052 l 0,-65.79783 c 0,-15.04403 -15.798597,-27.14163 -35.426097,-27.14163 l -266.3609,0 z m -35.44272,263.47103 0,42.88373 c 0,1.33144 0.14331,2.63588 0.38253,3.915 -0.11919,-12.81092 -0.25965,-28.88939 -0.38253,-46.79873 z"
       id="rect3177" /><rect
       inkscape:export-ydpi="29.879425"
       inkscape:export-xdpi="29.879425"
       inkscape:export-filename="C:\Documents and Settings\adscro24\Desktop\128.png"
       style="opacity:0.61338286;fill:url(#radialGradient4460);fill-opacity:1;stroke:#ffffff;stroke-width:0.68992418;stroke-linecap:square;stroke-miterlimit:4;stroke-opacity:1;stroke-dasharray:none"
       id="rect3473"
       width="306.12445"
       height="306.12445"
       x="-567.2486"
       y="109.1036"
       rx="32.161926"
       ry="24.924911" /><rect
       inkscape:export-ydpi="29.879425"
       inkscape:export-xdpi="29.879425"
       inkscape:export-filename="C:\Documents and Settings\adscro24\Desktop\128.png"
       style="opacity:0.61338286;fill:#ffffff;fill-opacity:0;stroke:#000000;stroke-width:3.26806188;stroke-miterlimit:4;stroke-opacity:1;stroke-dasharray:none"
       id="rect3155-2"
       width="321.95847"
       height="321.95844"
       x="-575.16559"
       y="101.18661"
       rx="33.825478"
       ry="26.214128" /></g><g
     transform="translate(358.29183,-87.165827)"
     id="LWPOLYLINE_2_-7">
	
		
</g><g
     transform="translate(358.29183,-87.165827)"
     id="LWPOLYLINE_3_-4">
	
		
</g><g
     transform="translate(358.29183,-87.165827)"
     id="LWPOLYLINE_4_-0">
	
		
</g><g
     transform="translate(184.65055,-351.95215)"
     style="fill:#000000;fill-opacity:1;stroke:none"
     id="LWPOLYLINE_6_-7">
	
		
</g><g
     transform="translate(184.65055,-351.95215)"
     style="fill:#000000;fill-opacity:1;stroke:none"
     id="LWPOLYLINE-4">
	
		
</g><g
     transform="translate(184.65055,-351.95215)"
     style="fill:#000000;fill-opacity:1;stroke:none"
     id="LWPOLYLINE_3_-0">
	
		
</g></g><g
   id="LWPOLYLINE_1_"
   style="fill:#000000;fill-opacity:1;stroke:none"
   transform="matrix(0.49999899,0,0,0.49999899,209.35695,170.72182)">
	
		
</g><g
   id="LWPOLYLINE_4_"
   style="fill:#000000;fill-opacity:1;stroke:none"
   transform="matrix(0.49999899,0,0,0.49999899,209.35695,170.72182)">
	
		
</g><g
   id="LWPOLYLINE_5_"
   style="fill:#000000;fill-opacity:1;stroke:none"
   transform="matrix(0.49999899,0,0,0.49999899,209.35695,170.72182)">
	
		
</g><g
   id="LINE_5_"
   style="fill:#000000;fill-opacity:1;stroke:none"
   transform="matrix(0.49999899,0,0,0.49999899,209.35695,170.72182)">
	
		
</g><g
   id="g3826"
   transform="matrix(0.49999899,0,0,0.49999899,22.001806,-22.99986)"><g
     style="fill:#000000;fill-opacity:1;stroke:none"
     id="LWPOLYLINE_6_">
	
		<path
   id="path22"
   d="m 328.3125,548.375 0,97.625 0.34375,0 0.375,0 0.25,0 0.28125,0 0.28125,0 0.34375,0 0.3125,0 0.375,0 0.375,0 0.40625,0 0.375,0 0.4375,0 0.40625,0 0.46875,0 0.40625,0 0.4375,0 0.46875,0 0.4375,0 0.4375,0 0.40625,0 0.4375,0 0.40625,0 0.375,0 0.40625,0 0.34375,0 0.375,0 0.28125,0 0.3125,0 0.25,0 0.25,0 0.375,0 0.25,0 c 0.082,-0.082 0.0625,-0.3125 0.0625,-0.3125 l 0,-0.4375 0,-0.53125 0,-0.65625 0,-0.78125 0,-0.9375 0,-1 0,-1.125 0,-1.1875 0,-1.34375 0,-1.34375 0,-1.4375 0,-1.46875 0,-1.5625 0,-1.625 0,-1.59375 0,-1.65625 0,-1.6875 0,-1.625 0,-1.6875 0,-1.65625 0,-1.625 0,-1.65625 0,-1.5625 0,-1.5625 0,-1.46875 0,-1.4375 0,-1.40625 0,-1.28125 0,-1.21875 0,-1.125 0,-1 0,-0.90625 0,-0.78125 0,-0.65625 0,-0.5625 0,-0.40625 0,-0.25 c 0.124,-0.082 0.25,-0.0625 0.25,-0.0625 l 0.375,0 0.28125,0 0.3125,0 0.3125,0 0.34375,0 0.40625,0 0.40625,0 0.4375,0 0.46875,0 0.5,0 0.46875,0 0.5,0 0.53125,0 0.53125,0 0.5,0 0.59375,0 0.53125,0 0.53125,0 0.5,0 0.53125,0 0.46875,0 0.5625,0 0.4375,0 0.4375,0 0.46875,0 0.40625,0 0.40625,0 0.34375,0 0.3125,0 0.28125,0 0.3125,0 0.1875,0 0.28125,0 0.46875,0 0.3125,0 0.375,0 0.375,0 0.375,0.0312 0.40625,0 0.40625,0.0312 0.40625,0 0.46875,0.0625 0.40625,0.0625 0.4375,0.0625 0.46875,0.0625 0.4375,0.0937 0.46875,0.0937 0.4375,0.125 0.46875,0.0937 0.46875,0.1875 0.46875,0.15625 0.4375,0.21875 0.4375,0.1875 0.4375,0.25 0.4375,0.25 0.4375,0.28125 0.40625,0.28125 0.40625,0.34375 0.375,0.375 0.375,0.375 0.34375,0.40625 0.34375,0.4375 0.3125,0.5 0.34375,0.53125 0.28125,0.53125 0.25,0.5625 0.25,0.625 0.21875,0.65625 0.1875,0.71875 0.15625,0.71875 0.125,0.78125 0.125,0.84375 0.0937,0.84375 0.0312,0.9375 0.0937,0.96875 0.0312,0.9375 0.0312,0.9375 0.0625,0.9375 0.0312,0.96875 0.0312,0.875 0,0.96875 0.0625,0.9375 0.0312,0.90625 0,0.9375 0.0312,0.90625 0.0625,0.90625 0,0.90625 0.0312,0.90625 0.0312,0.90625 0.0625,0.84375 0.0312,0.875 0.0312,0.875 0.0625,0.84375 0.0312,0.875 0.0312,0.8125 0.0937,0.8125 0.0312,0.84375 0.0937,0.8125 0.0625,0.78125 0.0937,0.78125 0.125,0.78125 0.0937,0.75 0.125,0.71875 0.0937,0.75 0.1875,0.6875 0.125,0.71875 0.15625,0.6875 0.15625,0.65625 0.21875,0.65625 0.1875,0.625 0.21875,0.625 0.25,0.5625 0.25,0.625 0.1875,0 0.375,0 0.25,0 0.25,0 0.3125,0 0.34375,0 0.375,0 0.375,0 0.40625,0 0.4375,0 0.46875,0 0.4375,0 0.5,0 0.5,0 0.46875,0 0.5,0 0.53125,0 0.5,0 0.5,0 0.5,0 0.46875,0 0.5,0 0.46875,0 0.4375,0 0.46875,0 0.40625,0 0.375,0 0.34375,0 0.34375,0 0.3125,0 0.25,0 0.25,0 0.375,0 0.21875,0 -0.1875,-0.53125 -0.1875,-0.59375 -0.15625,-0.5625 -0.1875,-0.59375 -0.15625,-0.65625 -0.15625,-0.59375 -0.125,-0.71875 -0.15625,-0.6875 -0.125,-0.6875 -0.125,-0.71875 -0.125,-0.71875 -0.125,-0.75 -0.125,-0.78125 -0.125,-0.78125 -0.125,-0.75 -0.0937,-0.78125 -0.0625,-0.78125 -0.125,-0.78125 -0.0937,-0.78125 -0.0937,-0.78125 -0.0312,-0.78125 -0.0625,-0.71875 -0.0937,-0.78125 -0.0312,-0.75 -0.0937,-0.75 -0.0312,-0.6875 -0.0625,-0.6875 -0.0312,-0.71875 -0.0937,-0.65625 0,-0.65625 -0.0312,-0.59375 -0.0312,-0.625 -0.0625,-0.59375 0,-0.53125 -0.0312,-0.46875 0,-0.5 0,-0.46875 0,-0.40625 -0.0312,-0.375 0,-0.3125 -0.0312,-1.4375 -0.0937,-1.375 -0.125,-1.3125 -0.0937,-1.21875 -0.125,-1.1875 -0.15625,-1.15625 -0.125,-1.125 -0.15625,-1 -0.21875,-1 -0.1875,-0.9375 -0.21875,-0.90625 -0.1875,-0.875 -0.25,-0.8125 -0.28125,-0.78125 -0.25,-0.75 -0.34375,-0.65625 -0.28125,-0.65625 -0.34375,-0.59375 -0.34375,-0.625 -0.375,-0.53125 -0.375,-0.53125 -0.40625,-0.5 -0.46875,-0.46875 -0.4375,-0.4375 -0.46875,-0.40625 -0.46875,-0.375 -0.5,-0.375 -0.53125,-0.3125 -0.59375,-0.34375 -0.53125,-0.28125 -0.625,-0.28125 -0.59375,-0.25 -0.65625,-0.28125 -0.65625,-0.21875 -0.65625,-0.25 -0.75,-0.1875 -0.6875,-0.21875 L 367.78105,595.031 367,594.84375 366.15625,594.625 367,594.5 l 0.78125,-0.15625 0.78125,-0.1875 0.78125,-0.21875 0.71875,-0.25 0.75,-0.28125 0.6875,-0.28125 0.71875,-0.34375 0.6875,-0.375 0.65625,-0.375 0.625,-0.34375 0.65625,-0.40625 0.5625,-0.46875 0.625,-0.4375 0.53125,-0.5 0.5625,-0.5 0.5625,-0.53125 0.46875,-0.53125 0.5,-0.53125 0.46875,-0.59375 0.4375,-0.59375 0.40625,-0.625 0.40625,-0.625 0.40625,-0.65625 0.375,-0.65625 0.34375,-0.65625 0.3125,-0.6875 0.3125,-0.65625 0.21875,-0.75 0.3125,-0.6875 0.1875,-0.75 0.21875,-0.78125 0.1875,-0.75 0.1875,-0.78125 0.125,-0.78125 0.0937,-0.78125 0.0937,-0.78125 0.0312,-0.8125 0.0625,-0.78125 0,-0.8125 0,-0.9375 -0.0625,-0.96875 -0.0312,-0.9375 -0.0937,-0.90625 -0.0937,-0.9375 -0.125,-0.90625 -0.125,-0.90625 -0.21875,-0.90625 -0.21875,-0.84375 -0.1875,-0.90625 -0.28125,-0.84375 -0.28125,-0.84375 -0.3125,-0.84375 -0.375,-0.8125 -0.34375,-0.78125 -0.375,-0.78125 L 380.25,558 l -0.4375,-0.75 -0.5,-0.75 -0.5,-0.65625 -0.5625,-0.6875 -0.5625,-0.625 -0.625,-0.625 -0.65625,-0.59375 -0.71875,-0.53125 -0.6875,-0.5625 -0.75,-0.46875 -0.78125,-0.5 -0.8125,-0.46875 L 371.8125,550.375 370.90625,550 369.9375,549.6875 369,549.40625 l -1.03125,-0.28125 -1.03125,-0.21875 -1.09375,-0.21875 -1.125,-0.125 -1.125,-0.0937 -1.21875,-0.0937 -1.25,0 -0.21875,0 -0.28125,0 -0.40625,0 -0.5,0 -0.5625,0 -0.65625,0 -0.78125,0 -0.84375,0 -0.84375,0 -1,0 -0.96875,0 -1.09375,0 -1.09375,0 -1.125,0 -1.1875,0 -1.1875,0 -1.1875,0 -1.21875,0 -1.25,0 -1.21875,0 -1.25,0 -1.1875,0 -1.1875,0 -1.1875,0 -1.125,0 -1.09375,0 -1.0625,0 -1,0 -0.9375,0 -0.90625,0 -0.8125,0 -0.75,0 -0.6875,0 -0.59375,0 -0.5,0 -0.34375,0 -0.3125,0 -0.25,0 z m 11.78125,10.90625 0.3125,0 0.21875,0 0.28125,0 0.3125,0 0.375,0 0.40625,0 0.5,0 0.5,0 0.53125,0 0.59375,0 0.5625,0 0.625,0 0.65625,0 0.65625,0 0.65625,0 0.6875,0 0.6875,0 0.71875,0 0.6875,0 0.65625,0 0.71875,0 0.65625,0 0.65625,0 0.65625,0 0.59375,0 0.625,0 0.5625,0 0.5625,0 0.46875,0 0.46875,0 0.40625,0 0.40625,0 0.34375,0 0.25,0 0.21875,0 0.25,0 0.75,0 0.65625,0.0312 0.625,0.0937 0.59375,0.0625 0.625,0.125 0.59375,0.1875 0.53125,0.15625 0.53125,0.21875 0.53125,0.1875 0.5,0.21875 0.46875,0.28125 0.46875,0.25 0.40625,0.28125 0.40625,0.34375 0.40625,0.3125 0.375,0.34375 0.375,0.34375 0.375,0.375 0.3125,0.40625 0.3125,0.4375 0.28125,0.40625 0.28125,0.40625 0.25,0.4375 0.25,0.46875 0.1875,0.4375 0.21875,0.46875 0.1875,0.46875 0.1875,0.5 0.15625,0.5 0.15625,0.5 0.125,0.5 0.125,0.46875 0.0937,0.5 0.0625,0.53125 0.0937,0.5 0.0937,0.53125 0.0312,0.5 0.0312,0.53125 0,0.5 0,0.46875 0,0.71875 -0.0312,0.6875 -0.0312,0.65625 -0.0625,0.71875 -0.0625,0.65625 -0.0937,0.59375 -0.0937,0.65625 -0.125,0.625 -0.0937,0.65625 -0.1875,0.59375 -0.15625,0.59375 -0.15625,0.59375 -0.21875,0.5625 -0.1875,0.5625 -0.25,0.5625 -0.25,0.53125 -0.25,0.46875 -0.28125,0.5 -0.28125,0.5 -0.34375,0.5 -0.28125,0.4375 -0.375,0.40625 -0.34375,0.4375 -0.34375,0.40625 -0.4375,0.375 -0.40625,0.3125 -0.40625,0.3125 -0.40625,0.34375 -0.4375,0.28125 -0.5,0.28125 -0.46875,0.25 -0.46875,0.21875 -0.5625,0.1875 -0.53125,0.1875 -0.53125,0.15625 -0.5625,0.125 -0.59375,0.0937 -0.5625,0.0625 -0.625,0.0625 -0.59375,0 -0.3125,0 -0.21875,0 -0.25,0 -0.34375,0 -0.40625,0 -0.40625,0 -0.46875,0 -0.46875,0 -0.5625,0 -0.5625,0 -0.625,0 -0.59375,0 -0.65625,0 -0.65625,0 -0.65625,0 -0.71875,0 -0.65625,0 -0.6875,0 -0.71875,0 -0.6875,0 -0.6875,0 -0.65625,0 -0.65625,0 -0.65625,0 -0.625,0 -0.5625,0 -0.59375,0 -0.53125,0 -0.5,0 -0.5,0 -0.40625,0 -0.375,0 -0.3125,0 -0.28125,0 -0.21875,0 -0.28125,0 c -0.042,0.011 -0.0312,-31.15625 -0.0312,-31.15625 z"
   style="fill:#000000;fill-opacity:1;stroke:none"
   inkscape:connector-curvature="0" />
</g><g
     style="fill:#000000;fill-opacity:1;stroke:none"
     id="LINE">
	
		<path
   id="line28"
   d="m 302.28125,146 -172.59375,299.28125 345.1875,0 L 302.28125,146 z m 0.0625,48.8125 130.625,226.15625 -261.21875,0 130.59375,-226.15625 z"
   style="fill:#000000;fill-opacity:1;stroke:none"
   inkscape:connector-curvature="0" />
</g><g
     style="fill:#000000;fill-opacity:1;stroke:none"
     id="LWPOLYLINE">
	
		<path
   id="path4"
   d="M 132.3125,548.34375 C 132.2115,548.34275 101.875,646 101.875,646 l 0.375,0 0.40625,0 0.25,0 0.3125,0 0.28125,0 0.375,0 0.34375,0 0.40625,0 0.40625,0 0.40625,0 0.46875,0 0.4375,0 0.46875,0 0.4375,0 0.46875,0 0.46875,0 0.5,0 0.46875,0 0.46875,0 0.4375,0 0.46875,0 0.4375,0 0.40625,0 0.40625,0 0.40625,0 0.375,0 0.3125,0 0.34375,0 0.28125,0 0.25,0 0.21875,0 0.34375,0 c 0.205,0 0.21875,-0.0312 0.21875,-0.0312 0.041,-0.164 0.125,-0.375 0.125,-0.375 l 0.0937,-0.28125 0.0937,-0.34375 0.125,-0.40625 0.1875,-0.5 0.15625,-0.53125 0.1875,-0.5625 0.1875,-0.65625 0.25,-0.71875 0.21875,-0.6875 0.25,-0.78125 0.25,-0.78125 0.25,-0.8125 0.28125,-0.84375 0.28125,-0.84375 0.28125,-0.875 0.28125,-0.90625 0.28125,-0.84375 0.28125,-0.90625 0.28125,-0.875 0.28125,-0.84375 0.28125,-0.875 0.28125,-0.8125 0.25,-0.84375 0.25,-0.8125 0.25,-0.75 0.21875,-0.71875 0.25,-0.65625 0.1875,-0.65625 0.1875,-0.59375 0.15625,-0.53125 0.1875,-0.5 0.125,-0.40625 0.125,-0.375 0.0625,-0.28125 c 0.082,-0.207 0.125,-0.3125 0.125,-0.3125 0.082,-0.041 0.28125,-0.0625 0.28125,-0.0625 l 0.3125,0 0.4375,0 0.53125,0 0.65625,0 0.71875,0 0.8125,0 0.9375,0 0.96875,0 1.0625,0 1.125,0 1.125,0 1.21875,0 1.28125,0 1.28125,0 1.3125,0 1.34375,0 1.34375,0 1.34375,0 1.375,0 1.34375,0 1.34375,0 1.3125,0 1.28125,0 1.25,0 1.21875,0 1.15625,0 1.125,0 1.03125,0 1,0 0.90625,0 0.84375,0 0.71875,0 0.65625,0 0.53125,0 0.4375,0 0.3125,0 0.28125,0 c 0.041,0.164 0.0937,0.375 0.0937,0.375 l 0.0937,0.28125 0.0937,0.375 0.0937,0.40625 0.15625,0.5 0.15625,0.53125 0.15625,0.59375 0.1875,0.65625 0.1875,0.65625 0.21875,0.71875 0.21875,0.75 0.21875,0.8125 0.25,0.84375 0.21875,0.8125 0.25,0.875 0.25,0.84375 0.25,0.875 0.25,0.90625 0.28125,0.84375 0.21875,0.90625 0.25,0.875 0.25,0.84375 0.25,0.84375 0.21875,0.8125 0.25,0.78125 0.1875,0.78125 0.21875,0.6875 0.1875,0.71875 0.1875,0.65625 0.15625,0.5625 0.1875,0.53125 0.125,0.5 0.125,0.40625 0.0937,0.34375 0.0937,0.28125 c 0.062,0.205 0.0937,0.375 0.0937,0.375 0.093,0.041 0.21875,0.0312 0.21875,0.0312 l 0.375,0 0.28125,0 0.28125,0 0.34375,0 0.34375,0 0.375,0 0.40625,0 0.46875,0 0.4375,0 0.46875,0 0.53125,0 0.5,0 0.53125,0 0.5,0 0.53125,0 0.53125,0 0.5625,0 0.53125,0 0.53125,0 0.5,0 0.53125,0 0.46875,0 0.5,0 0.46875,0 0.40625,0 0.4375,0 0.40625,0 0.34375,0 0.34375,0 0.28125,0 0.25,0 0.21875,0 0.28125,0 c 0.062,-0.205 -0.0937,-0.75 -0.0937,-0.75 l -0.28125,-0.84375 -0.375,-1.15625 -0.46875,-1.46875 -0.5625,-1.75 -0.65625,-1.96875 -0.6875,-2.21875 -0.78125,-2.46875 -0.84375,-2.65625 -0.90625,-2.84375 -0.96875,-3 -1,-3.125 -1.03125,-3.28125 -1.09375,-3.375 -1.09375,-3.5 -1.125,-3.53125 -1.15625,-3.625 -1.15625,-3.59375 -1.15625,-3.65625 -1.1875,-3.65625 -1.15625,-3.6875 -1.15625,-3.59375 -1.125,-3.53125 -1.09375,-3.46875 -1.09375,-3.40625 -1.0625,-3.25 -1,-3.15625 -0.9375,-3 -0.90625,-2.84375 -0.84375,-2.625 -0.78125,-2.46875 -0.71875,-2.21875 -0.625,-2 -0.5625,-1.75 -0.46875,-1.46875 -0.375,-1.15625 -0.28125,-0.875 L 148.25,548.5 c -0.186,-0.164 -0.3125,-0.15625 -0.3125,-0.15625 l -0.4375,0 -0.28125,0 -0.3125,0 -0.375,0 -0.40625,0 -0.4375,0 -0.46875,0 -0.46875,0 -0.53125,0 -0.53125,0 -0.5625,0 -0.5625,0 -0.59375,0 -0.59375,0 -0.59375,0 -0.59375,0 -0.59375,0 -0.59375,0 -0.59375,0 -0.5625,0 -0.59375,0 -0.5625,0 -0.53125,0 -0.5,0 -0.5,0 -0.46875,0 -0.4375,0 -0.375,0 -0.375,0 -0.34375,0 -0.28125,0 -0.21875,0 -0.34375,0 z m 7.4375,11.875 c 0.013,-0.082 15.1875,51.25 15.1875,51.25 l -0.25,0 -0.25,0 -0.375,0 -0.4375,0 -0.5625,0 -0.59375,0 -0.71875,0 -0.75,0 -0.8125,0 -0.875,0 -0.9375,0 -0.96875,0 -1.03125,0 -1.03125,0 -1.09375,0 -1.09375,0 -1.125,0 -1.125,0 -1.15625,0 -1.125,0 -1.125,0 -1.09375,0 -1.125,0 -1.0625,0 -1.0625,0 -1.03125,0 -0.9375,0 -0.96875,0 -0.84375,0 -0.84375,0 -0.78125,0 -0.65625,0 -0.625,0 -0.5625,0 -0.4375,0 -0.34375,0 -0.28125,0 -0.21875,0 c 0.021,-0.082 0.0937,-0.375 0.0937,-0.375 l 0.15625,-0.4375 0.1875,-0.625 0.21875,-0.78125 0.25,-0.90625 0.3125,-1.03125 0.375,-1.1875 0.34375,-1.25 0.40625,-1.40625 0.46875,-1.53125 0.4375,-1.5625 0.5,-1.625 0.53125,-1.75 0.5,-1.75 0.5625,-1.84375 0.53125,-1.875 0.5625,-1.875 0.5625,-1.9375 0.59375,-1.9375 0.53125,-1.9375 0.59375,-1.875 0.53125,-1.90625 0.5625,-1.875 0.53125,-1.8125 0.53125,-1.78125 0.5,-1.71875 0.5,-1.6875 0.46875,-1.5625 0.4375,-1.46875 0.40625,-1.40625 0.40625,-1.25 0.34375,-1.21875 0.3125,-1.03125 0.25,-0.9375 0.21875,-0.71875 0.1875,-0.625 0.125,-0.46875 0.0937,-0.28125 z"
   style="fill:#000000;fill-opacity:1;stroke:none"
   inkscape:connector-curvature="0" />
</g><g
     style="fill:#000000;fill-opacity:1;stroke:none"
     id="LWPOLYLINE_2_">
	
		<path
   style="fill:#000000;fill-opacity:1;stroke:none"
   id="path10"
   d="m 239.1,646 c 0,-0.205 0,-0.328 0,-0.328 0,-0.164 0,-0.371 0,-0.371 v -0.205 -0.246 -0.287 -0.289 -0.328 -0.328 -0.371 -0.328 -0.412 -0.369 -0.41 -0.412 -0.41 -0.412 -0.41 -0.371 -0.41 -0.41 -0.371 -0.41 -0.371 -0.328 -0.328 -0.33 -0.287 -0.287 -0.248 -0.246 c 0,-0.164 0,-0.328 0,-0.328 0,-0.123 0,-0.246 0,-0.246 -0.082,-0.082 -0.267,-0.082 -0.267,-0.082 h -0.309 -0.411 -0.534 -0.637 -0.72 -0.801 -0.884 -0.966 -1.027 -1.09 -1.13 -1.191 -1.233 -1.254 -1.273 -1.315 -1.315 -1.315 -1.335 -1.315 -1.315 -1.274 -1.253 -1.236 -1.191 -1.131 -1.089 -1.027 -0.966 -0.884 -0.802 -0.719 -0.638 -0.514 -0.432 -0.308 c -0.186,0 -0.268,0 -0.268,0 0,-0.166 0,-0.617 0,-0.617 v -0.781 -1.027 -1.273 -1.562 -1.768 -1.973 -2.178 -2.344 -2.547 -2.631 -2.795 -2.918 -3 -3.082 -3.166 -3.205 -3.207 -3.246 -3.246 -3.248 -3.205 -3.164 -3.084 -3 -2.918 -2.754 -2.672 -2.547 -2.344 -2.178 -1.973 -1.768 -1.52 -1.316 -1.027 -0.781 -0.451 c -0.185,-0.164 -0.328,-0.164 -0.328,-0.164 -0.165,0 -0.391,0 -0.391,0 h -0.227 -0.267 -0.309 -0.309 -0.349 -0.35 -0.391 -0.391 -0.411 -0.41 -0.432 -0.432 -0.452 -0.432 -0.452 -0.432 -0.432 -0.432 -0.432 -0.39 -0.411 -0.37 -0.37 -0.329 -0.328 -0.288 -0.287 -0.227 c -0.205,0 -0.391,0 -0.391,0 -0.144,0 -0.246,0 -0.246,0 -0.082,0.164 -0.082,0.697 -0.082,0.697 v 0.863 1.15 1.48 1.727 2.014 2.219 2.467 2.631 2.836 3 3.164 3.246 3.412 3.453 3.533 3.617 3.658 3.658 3.658 3.615 3.617 3.535 3.494 3.369 3.289 3.123 3 2.836 2.672 2.465 2.221 1.973 1.727 1.479 1.15 0.863 0.535 C 191.959,646 239.1,646 239.1,646 z"
   stroke-miterlimit="10"
   inkscape:connector-curvature="0" />
</g><g
     style="fill:#000000;fill-opacity:1;stroke:none"
     id="LWPOLYLINE_3_">
	
		<path
   id="path13"
   d="M 268.6875,548.34375 C 268.5635,548.34275 238.25,646 238.25,646 l 0.34375,0 0.4375,0 0.25,0 0.28125,0 0.3125,0 0.34375,0 0.375,0 0.375,0 0.40625,0 0.4375,0 0.4375,0 0.4375,0 0.46875,0 0.46875,0 0.46875,0 0.46875,0 0.46875,0 0.46875,0 0.46875,0 0.46875,0 0.46875,0 0.40625,0 0.4375,0 0.40625,0 0.375,0 0.375,0 0.34375,0 0.3125,0 0.28125,0 0.28125,0 0.21875,0 0.34375,0 c 0.205,0 0.21875,-0.0312 0.21875,-0.0312 0.041,-0.164 0.0937,-0.375 0.0937,-0.375 l 0.0937,-0.28125 0.125,-0.34375 0.125,-0.40625 0.15625,-0.5 0.15625,-0.53125 0.21875,-0.5625 0.1875,-0.65625 0.21875,-0.71875 0.25,-0.6875 0.25,-0.78125 0.25,-0.78125 0.25,-0.8125 0.28125,-0.84375 0.25,-0.84375 0.3125,-0.875 0.28125,-0.90625 0.25,-0.84375 0.28125,-0.90625 0.3125,-0.875 0.28125,-0.84375 0.25,-0.875 0.28125,-0.8125 0.28125,-0.84375 0.21875,-0.8125 0.25,-0.75 0.25,-0.71875 0.21875,-0.65625 0.1875,-0.65625 0.1875,-0.59375 0.1875,-0.53125 0.15625,-0.5 0.15625,-0.40625 0.0937,-0.375 0.0937,-0.28125 c 0.062,-0.207 0.0937,-0.3125 0.0937,-0.3125 0.082,-0.041 0.3125,-0.0625 0.3125,-0.0625 l 0.3125,0 0.40625,0 0.53125,0 0.65625,0 0.75,0 0.8125,0 0.90625,0 1,0 1.03125,0 1.125,0 1.15625,0 1.21875,0 1.25,0 1.3125,0 1.3125,0 1.34375,0 1.3125,0 1.375,0 1.34375,0 1.375,0 1.3125,0 1.3125,0 1.3125,0 1.25,0 1.21875,0 1.15625,0 1.125,0 1.03125,0 1,0 0.90625,0 0.8125,0 0.75,0 0.625,0 0.5625,0 0.4375,0 0.28125,0 0.28125,0 c 0.041,0.164 0.0937,0.375 0.0937,0.375 l 0.0937,0.28125 0.0937,0.375 0.125,0.40625 0.15625,0.5 0.125,0.53125 0.1875,0.59375 0.1875,0.65625 0.1875,0.65625 0.21875,0.71875 0.1875,0.75 0.25,0.8125 0.25,0.84375 0.21875,0.8125 0.25,0.875 0.25,0.84375 0.25,0.875 0.25,0.90625 0.25,0.84375 0.25,0.90625 0.25,0.875 0.25,0.84375 0.21875,0.84375 0.25,0.8125 0.21875,0.78125 0.21875,0.78125 0.21875,0.6875 0.1875,0.71875 0.1875,0.65625 0.1875,0.5625 0.125,0.53125 0.15625,0.5 0.125,0.40625 0.0937,0.34375 0.0937,0.28125 c 0.041,0.205 0.0625,0.375 0.0625,0.375 0.123,0.041 0.25,0.0312 0.25,0.0312 l 0.40625,0 0.25,0 0.28125,0 0.3125,0 0.375,0 0.40625,0 0.40625,0 0.4375,0 0.46875,0 0.46875,0 0.5,0 0.5,0 0.53125,0 0.5,0 0.53125,0 0.53125,0 0.53125,0 0.53125,0 0.53125,0 0.5625,0 0.46875,0 0.5,0 0.5,0 0.4375,0 0.46875,0 0.40625,0 0.40625,0 0.34375,0 0.3125,0 0.28125,0 0.3125,0 0.1875,0 0.28125,0 c 0.041,-0.205 -0.125,-0.75 -0.125,-0.75 l -0.28125,-0.84375 -0.375,-1.15625 -0.4375,-1.46875 -0.53125,-1.75 -0.65625,-1.96875 -0.71875,-2.21875 -0.78125,-2.46875 -0.84375,-2.65625 -0.90625,-2.84375 -0.9375,-3 -1.03125,-3.125 -1.03125,-3.28125 -1.0625,-3.375 -1.125,-3.5 -1.15625,-3.53125 -1.125,-3.625 -1.15625,-3.59375 -1.1875,-3.65625 -1.15625,-3.65625 -1.15625,-3.6875 -1.15625,-3.59375 -1.125,-3.53125 -1.125,-3.46875 -1.0625,-3.40625 -1.03125,-3.25 -1,-3.15625 -0.96875,-3 -0.90625,-2.84375 -0.84375,-2.625 -0.78125,-2.46875 -0.71875,-2.21875 -0.625,-2 -0.5625,-1.75 -0.46875,-1.46875 -0.375,-1.15625 -0.28125,-0.875 L 284.625,548.5 c -0.164,-0.164 -0.3125,-0.15625 -0.3125,-0.15625 l -0.4375,0 -0.28125,0 -0.34375,0 -0.34375,0 -0.40625,0 -0.4375,0 -0.46875,0 -0.5,0 -0.5,0 -0.53125,0 -0.5625,0 -0.5625,0 -0.59375,0 -0.5625,0 -0.59375,0 -0.625,0 -0.59375,0 -0.59375,0 -0.59375,0 -0.59375,0 -0.53125,0 -0.5625,0 -0.5625,0 -0.53125,0 -0.46875,0 -0.46875,0 -0.4375,0 -0.40625,0 -0.375,0 -0.3125,0 -0.28125,0 -0.25,0 -0.3125,0 z m 7.4375,11.875 c 0.016,-0.082 15.15625,51.25 15.15625,51.25 l -0.21875,0 -0.25,0 -0.375,0 -0.46875,0 -0.53125,0 -0.59375,0 -0.71875,0 -0.75,0 -0.8125,0 -0.90625,0 -0.90625,0 -1,0 -1,0 -1.0625,0 -1.0625,0 -1.09375,0 -1.125,0 -1.15625,0 -1.125,0 -1.125,0 -1.125,0 -1.125,0 -1.09375,0 -1.09375,0 -1.0625,0 -1,0 -0.96875,0 -0.9375,0 -0.875,0 -0.84375,0 -0.75,0 -0.6875,0 -0.625,0 -0.53125,0 -0.46875,0 -0.34375,0 -0.28125,0 -0.21875,0 c 0.021,-0.082 0.125,-0.375 0.125,-0.375 l 0.125,-0.4375 0.1875,-0.625 0.21875,-0.78125 0.25,-0.90625 0.3125,-1.03125 0.375,-1.1875 0.375,-1.25 0.40625,-1.40625 0.4375,-1.53125 0.46875,-1.5625 0.5,-1.625 0.5,-1.75 0.53125,-1.75 0.53125,-1.84375 0.5625,-1.875 0.53125,-1.875 0.59375,-1.9375 0.5625,-1.9375 0.5625,-1.9375 0.5625,-1.875 0.5625,-1.90625 0.53125,-1.875 0.5625,-1.8125 0.5,-1.78125 0.53125,-1.71875 0.5,-1.6875 0.4375,-1.5625 0.46875,-1.46875 0.40625,-1.40625 0.375,-1.25 0.34375,-1.21875 0.3125,-1.03125 0.25,-0.9375 0.21875,-0.71875 0.1875,-0.625 0.15625,-0.46875 0.0937,-0.28125 z"
   style="fill:#000000;fill-opacity:1;stroke:none"
   inkscape:connector-curvature="0" />
</g><g
     style="fill:#000000;fill-opacity:1;stroke:none"
     id="LWPOLYLINE_7_">
	
		<path
   style="fill:#000000;fill-opacity:1;stroke:none"
   id="path25"
   d="m 411.637,559.279 c 0.042,0.164 0.206,0.617 0.206,0.617 l 0.205,0.781 0.329,1.027 0.411,1.314 0.452,1.521 0.534,1.766 0.575,1.975 0.658,2.178 0.698,2.383 0.781,2.508 0.78,2.672 0.863,2.795 0.863,2.877 0.904,3.041 0.945,3.082 0.945,3.123 0.945,3.207 0.986,3.246 0.986,3.248 0.945,3.246 0.986,3.246 0.986,3.166 0.945,3.164 0.904,3.082 0.904,3 0.904,2.918 0.821,2.795 0.822,2.672 0.74,2.508 0.698,2.342 0.658,2.18 0.616,1.973 0.534,1.766 0.452,1.562 0.37,1.314 0.328,1.029 0.247,0.738 0.123,0.494 c 0.123,0.164 0.247,0.164 0.247,0.164 0.123,0 0.287,0 0.287,0 0.247,0 0.452,0 0.452,0 h 0.288 0.287 0.329 0.329 0.37 0.369 0.411 0.411 0.411 0.411 0.452 0.452 0.411 0.451 0.452 0.411 0.452 0.411 0.411 0.411 0.37 0.369 0.329 0.329 0.287 0.288 0.205 0.247 c 0.164,0 0.288,0 0.288,0 0.205,0 0.246,-0.164 0.246,-0.164 l 0.123,-0.494 0.247,-0.738 0.329,-1.029 0.369,-1.314 0.452,-1.562 0.534,-1.766 0.617,-1.973 0.657,-2.18 0.698,-2.342 0.74,-2.508 0.822,-2.672 0.821,-2.795 0.904,-2.918 0.904,-3 0.904,-3.082 0.945,-3.164 0.986,-3.166 0.986,-3.246 0.945,-3.246 0.986,-3.248 0.986,-3.246 0.945,-3.207 0.945,-3.123 0.945,-3.082 0.904,-3.041 0.863,-2.877 0.863,-2.795 0.781,-2.672 0.78,-2.508 0.699,-2.383 0.657,-2.178 0.575,-1.975 0.534,-1.766 0.452,-1.521 0.411,-1.314 0.329,-1.027 0.205,-0.781 0.165,-0.453 c 0.041,0 0.041,0.453 0.041,0.453 v 0.781 1.027 1.314 1.521 1.766 1.975 2.178 2.383 2.508 2.672 2.795 2.877 3.041 3.082 3.123 3.207 3.246 3.248 3.246 3.246 3.166 3.164 3.082 3 2.918 2.795 2.672 2.508 2.342 2.18 1.973 1.766 1.562 1.314 1.029 0.738 0.494 c 0.164,0.164 0.328,0.164 0.328,0.164 0.165,0 0.37,0 0.37,0 h 0.247 0.287 0.288 0.329 0.328 0.37 0.37 0.411 0.369 0.452 0.411 0.452 0.411 0.452 0.452 0.452 0.411 0.411 0.452 0.41 0.37 0.411 0.329 0.37 0.287 0.329 0.246 0.247 c 0.205,0 0.37,0 0.37,0 0.164,0 0.246,0 0.246,0 0.082,-0.205 0.082,-0.74 0.082,-0.74 v -0.863 -1.15 -1.479 -1.727 -1.973 -2.221 -2.465 -2.672 -2.836 -3 -3.123 -3.289 -3.369 -3.492 -3.535 -3.617 -3.615 -3.658 -3.658 -3.658 -3.617 -3.533 -3.453 -3.412 -3.246 -3.164 -3 -2.836 -2.631 -2.467 -2.219 -2.014 -1.727 -1.48 -1.15 -0.863 -0.533 c -0.123,-0.164 -0.287,-0.164 -0.287,-0.164 h -0.247 -0.328 -0.329 -0.411 -0.493 -0.493 -0.534 -0.616 -0.617 -0.657 -0.658 -0.698 -0.74 -0.698 -0.781 -0.739 -0.74 -0.78 -0.74 -0.74 -0.739 -0.74 -0.698 -0.657 -0.658 -0.616 -0.575 -0.576 -0.474 -0.452 -0.41 -0.37 -0.288 -0.246 c -0.206,0 -0.288,0 -0.288,0 -0.082,0.164 -0.205,0.574 -0.205,0.574 l -0.206,0.74 -0.287,0.945 -0.37,1.232 -0.411,1.48 -0.493,1.645 -0.534,1.848 -0.575,2.057 -0.658,2.219 -0.657,2.383 -0.74,2.508 -0.739,2.631 -0.822,2.754 -0.822,2.795 -0.821,2.918 -0.863,2.959 -0.863,3.041 -0.863,3.041 -0.904,3.041 -0.863,3.084 -0.903,3.041 -0.863,3 -0.863,2.959 -0.822,2.918 -0.821,2.836 -0.781,2.713 -0.781,2.631 -0.698,2.506 -0.699,2.385 -0.657,2.219 -0.575,2.055 -0.534,1.85 -0.493,1.686 -0.411,1.439 -0.329,1.232 -0.288,0.986 -0.205,0.699 -0.123,0.451 c -0.124,0 -0.247,-0.451 -0.247,-0.451 l -0.205,-0.699 -0.288,-0.986 -0.329,-1.232 -0.41,-1.439 -0.493,-1.686 -0.535,-1.85 -0.616,-2.055 -0.616,-2.219 -0.699,-2.385 -0.698,-2.506 -0.781,-2.631 -0.78,-2.713 -0.822,-2.836 -0.822,-2.918 -0.863,-2.959 -0.862,-3 -0.904,-3.041 -0.863,-3.084 -0.904,-3.041 -0.863,-3.041 -0.863,-3.041 -0.862,-2.959 -0.863,-2.918 -0.781,-2.795 -0.822,-2.754 -0.739,-2.631 -0.74,-2.508 -0.657,-2.383 -0.657,-2.219 -0.576,-2.057 -0.534,-1.848 -0.493,-1.645 -0.411,-1.48 -0.369,-1.232 -0.288,-0.945 -0.206,-0.74 -0.123,-0.41 c -0.164,-0.164 -0.328,-0.164 -0.328,-0.164 h -0.247 -0.288 -0.369 -0.37 -0.452 -0.493 -0.534 -0.534 -0.617 -0.616 -0.657 -0.658 -0.698 -0.699 -0.698 -0.74 -0.698 -0.74 -0.739 -0.699 -0.698 -0.699 -0.657 -0.657 -0.617 -0.616 -0.534 -0.534 -0.493 -0.452 -0.37 -0.37 -0.287 -0.206 c -0.205,0 -0.287,0 -0.287,0 -0.041,0.164 -0.041,0.697 -0.041,0.697 v 0.863 1.15 1.48 1.727 2.014 2.219 2.467 2.631 2.836 3 3.164 3.246 3.412 3.453 3.533 3.617 3.658 3.658 3.658 3.615 3.617 3.535 3.494 3.369 3.289 3.123 3 2.836 2.672 2.465 2.221 1.973 1.727 1.479 1.15 0.863 0.535 c 0.164,0.205 0.287,0.205 0.287,0.205 0.164,0 0.37,0 0.37,0 h 0.246 0.247 0.246 0.329 0.288 0.37 0.328 0.37 0.37 0.411 0.369 0.411 0.411 0.411 0.411 0.411 0.411 0.41 0.37 0.37 0.37 0.37 0.328 0.329 0.288 0.287 0.247 0.205 c 0.205,0 0.37,0 0.37,0 0.123,0 0.205,0 0.205,0 0.063,-10e-4 0.063,-86.722 0.063,-86.722 z"
   stroke-miterlimit="10"
   inkscape:connector-curvature="0" />
</g><g
     style="fill:#000000;fill-opacity:1;stroke:none"
     id="ARC">
	
		<path
   sodipodi:nodetypes="ccccccc"
   inkscape:connector-curvature="0"
   id="path37"
   d="m 414.46872,199.00033 c 46.06807,34.09758 74.30903,90.68029 73.81928,147.65867 7.27466,-0.33899 14.54933,-0.33899 21.824,0.041 0.53518,-62.55083 -29.72216,-124.74984 -79.51829,-163.22085 -7.70001,-6.02235 -15.82764,-11.49749 -24.3407,-16.40516 -3.56201,5.997 -7.08301,12.025 -10.87101,18.639 6.44091,4.41029 12.90952,8.6544 19.08672,13.28733 z"
   style="fill:#000000;fill-opacity:1;stroke:none" />
</g><g
     style="fill:#000000;fill-opacity:1;stroke:none"
     id="LWPOLYLINE_8_">
	
		<path
   sodipodi:nodetypes="ccccccc"
   inkscape:connector-curvature="0"
   id="path58"
   d="m 372.099,225.959 c 3.59966,-6.1736 7.29992,-12.30142 10.888,-18.474 37.13908,20.93715 64.60494,57.87707 74.44425,99.31495 3.13179,12.92096 4.72656,26.21866 4.71275,39.51505 -6.99833,0 -13.99667,0 -20.995,0 0.0585,-34.87404 -13.4644,-69.55038 -37.37554,-94.97204 -9.26575,-9.93071 -19.97958,-18.48164 -31.67446,-25.38396 z"
   style="fill:#000000;fill-opacity:1;stroke:none" />
</g></g>








<g
   id="LINE_1_"
   transform="matrix(0.49999899,0,0,0.49999899,209.35695,170.72182)">
	
		
</g>
<g
   id="LINE_2_"
   transform="matrix(0.49999899,0,0,0.49999899,209.35695,170.72182)">
	
		
</g>

<g
   id="LINE_3_"
   transform="matrix(0.49999899,0,0,0.49999899,209.35695,170.72182)">
	
		
</g>
<g
   id="ARC_1_"
   transform="matrix(0.49999899,0,0,0.49999899,209.35695,170.72182)">
	
		
</g>
<g
   id="LINE_4_"
   transform="matrix(0.49999899,0,0,0.49999899,209.35695,170.72182)">
	
		
</g>

<g
   id="LINE_6_"
   transform="matrix(0.49999899,0,0,0.49999899,209.35695,170.72182)">
	
		
</g>
<g
   id="LINE_7_"
   transform="matrix(0.49999899,0,0,0.49999899,209.35695,170.72182)">
	
		
</g>

</svg>