<?xml version="1.0" encoding="UTF-8" standalone="no"?>
<!-- Generator: Adobe Illustrator 16.0.1, SVG Export Plug-In . SVG Version: 6.00 Build 0)  -->

<svg
   xmlns:dc="http://purl.org/dc/elements/1.1/"
   xmlns:cc="http://creativecommons.org/ns#"
   xmlns:rdf="http://www.w3.org/1999/02/22-rdf-syntax-ns#"
   xmlns:svg="http://www.w3.org/2000/svg"
   xmlns="http://www.w3.org/2000/svg"
   xmlns:xlink="http://www.w3.org/1999/xlink"
   xmlns:sodipodi="http://sodipodi.sourceforge.net/DTD/sodipodi-0.dtd"
   xmlns:inkscape="http://www.inkscape.org/namespaces/inkscape"
   version="1.0"
   id="_x31_"
   x="0px"
   y="0px"
   width="350"
   height="350"
   viewBox="0 0 350 350"
   enable-background="new 0 0 612 792"
   xml:space="preserve"
   inkscape:version="0.48.3.1 r9886"
   sodipodi:docname="6007.svg"><metadata
   id="metadata58"><rdf:RDF><cc:Work
       rdf:about=""><dc:format>image/svg+xml</dc:format><dc:type
         rdf:resource="http://purl.org/dc/dcmitype/StillImage" /></cc:Work></rdf:RDF></metadata><defs
   id="defs56"><radialGradient
     r="333.18735"
     fy="467.91885"
     fx="373.24265"
     cy="467.91885"
     cx="373.24265"
     gradientTransform="matrix(0.83535069,2.5391116e-7,-2.4564601e-7,0.80815885,-725.97492,-115.98714)"
     gradientUnits="userSpaceOnUse"
     id="radialGradient4460"
     xlink:href="#linearGradient5443"
     inkscape:collect="always" /><linearGradient
     y2="254.73526"
     x2="123.47623"
     y1="344.03848"
     x1="123.50603"
     gradientTransform="matrix(2.3189708,0,0,2.0930998,-543.56606,-225.82362)"
     gradientUnits="userSpaceOnUse"
     id="linearGradient4458"
     xlink:href="#linearGradient3187"
     inkscape:collect="always" /><radialGradient
     r="333.18735"
     fy="710.99164"
     fx="373.24265"
     cy="710.99164"
     cx="373.24265"
     gradientTransform="matrix(0.86272606,1.0667183e-7,-5.1097113e-8,0.31433999,-736.19251,168.72353)"
     gradientUnits="userSpaceOnUse"
     id="radialGradient4456"
     xlink:href="#linearGradient5443"
     inkscape:collect="always" /><radialGradient
     r="333.18735"
     fy="467.91885"
     fx="373.24265"
     cy="467.91885"
     cx="373.24265"
     gradientTransform="matrix(0.83393192,2.4025531e-7,-2.452288e-7,0.76469446,-575.89311,126.3946)"
     gradientUnits="userSpaceOnUse"
     id="radialGradient2894-5"
     xlink:href="#linearGradient5443-0"
     inkscape:collect="always" /><linearGradient
     y2="254.73526"
     x2="123.47623"
     y1="344.03848"
     x1="123.50603"
     gradientTransform="matrix(2.3189708,0,0,2.0930998,-543.56606,-225.82362)"
     gradientUnits="userSpaceOnUse"
     id="linearGradient2892-2"
     xlink:href="#linearGradient3187-1"
     inkscape:collect="always" /><radialGradient
     r="333.18735"
     fy="710.99164"
     fx="373.24265"
     cy="710.99164"
     cx="373.24265"
     gradientTransform="matrix(0.8612608,1.0093481e-7,-5.1010329e-8,0.29743416,-586.09339,395.79293)"
     gradientUnits="userSpaceOnUse"
     id="radialGradient2890-7"
     xlink:href="#linearGradient5443-0"
     inkscape:collect="always" /><linearGradient
     id="linearGradient5443-5-6"><stop
       style="stop-color:#ffffff;stop-opacity:0;"
       offset="0"
       id="stop5445-4-1" /><stop
       style="stop-color:#000000;stop-opacity:0.33962265;"
       offset="1"
       id="stop5447-3-4" /></linearGradient><radialGradient
     r="333.18735"
     fy="710.99164"
     fx="373.24265"
     cy="710.99164"
     cx="373.24265"
     gradientTransform="matrix(0.9503534,1.1750652e-7,-5.6287062e-8,0.3462676,317.80591,185.68771)"
     gradientUnits="userSpaceOnUse"
     id="radialGradient4835-3-2"
     xlink:href="#linearGradient5443-5-6"
     inkscape:collect="always" /><radialGradient
     r="333.18735"
     fy="710.99164"
     fx="373.24265"
     cy="710.99164"
     cx="373.24265"
     gradientTransform="matrix(0.8612608,1.0093481e-7,-5.1010329e-8,0.29743416,-586.09339,395.79293)"
     gradientUnits="userSpaceOnUse"
     id="radialGradient4835-2"
     xlink:href="#linearGradient5443-0"
     inkscape:collect="always" /><radialGradient
     r="333.18735"
     fy="467.91885"
     fx="373.24265"
     cy="467.91885"
     cx="373.24265"
     gradientTransform="matrix(0.83393192,2.4025531e-7,-2.452288e-7,0.76469446,-575.89311,126.3946)"
     gradientUnits="userSpaceOnUse"
     id="radialGradient4832-1"
     xlink:href="#linearGradient5443-0"
     inkscape:collect="always" /><linearGradient
     y2="254.73526"
     x2="123.47623"
     y1="344.03848"
     x1="123.50603"
     gradientTransform="matrix(2.3189708,0,0,2.0930998,-543.56606,-225.82362)"
     gradientUnits="userSpaceOnUse"
     id="linearGradient4827-6"
     xlink:href="#linearGradient3187-1"
     inkscape:collect="always" /><linearGradient
     y2="254.73526"
     x2="123.47623"
     y1="344.03848"
     x1="123.50603"
     gradientTransform="matrix(2.3189708,0,0,2.0930998,93.115298,-256.84999)"
     gradientUnits="userSpaceOnUse"
     id="linearGradient4824-8"
     xlink:href="#linearGradient3187-1"
     inkscape:collect="always" /><radialGradient
     r="333.18735"
     fy="467.91885"
     fx="373.24265"
     cy="467.91885"
     cx="373.24265"
     gradientTransform="matrix(0.9201975,2.7970099e-7,-2.7059634e-7,0.8902438,28.590287,48.634335)"
     gradientUnits="userSpaceOnUse"
     id="radialGradient4822-5"
     xlink:href="#linearGradient3171-6"
     inkscape:collect="always" /><radialGradient
     r="333.18735"
     fy="710.99164"
     fx="373.24265"
     cy="710.99164"
     cx="373.24265"
     gradientTransform="matrix(0.9503534,1.1750652e-7,-5.6287062e-8,0.3462676,17.334826,362.44227)"
     gradientUnits="userSpaceOnUse"
     id="radialGradient4820-7"
     xlink:href="#linearGradient3157-2"
     inkscape:collect="always" /><radialGradient
     r="333.18735"
     fy="710.99164"
     fx="373.24265"
     cy="710.99164"
     cx="373.24265"
     gradientTransform="matrix(0.9503534,1.1750652e-7,-5.6287062e-8,0.3462676,17.334826,362.44227)"
     gradientUnits="userSpaceOnUse"
     id="radialGradient4805-6"
     xlink:href="#linearGradient3157-2"
     inkscape:collect="always" /><radialGradient
     r="333.18735"
     fy="467.91885"
     fx="373.24265"
     cy="467.91885"
     cx="373.24265"
     gradientTransform="matrix(0.9201975,2.7970099e-7,-2.7059634e-7,0.8902438,28.590287,48.634335)"
     gradientUnits="userSpaceOnUse"
     id="radialGradient4802-1"
     xlink:href="#linearGradient3171-6"
     inkscape:collect="always" /><linearGradient
     y2="254.73526"
     x2="123.47623"
     y1="344.03848"
     x1="123.50603"
     gradientTransform="matrix(2.3189708,0,0,2.0930998,93.115298,-256.84999)"
     gradientUnits="userSpaceOnUse"
     id="linearGradient4799-8"
     xlink:href="#linearGradient3187-1"
     inkscape:collect="always" /><linearGradient
     y2="254.73526"
     x2="123.47623"
     y1="344.03848"
     x1="123.50603"
     gradientTransform="matrix(2.3189708,0,0,2.0930998,93.115298,-256.84999)"
     gradientUnits="userSpaceOnUse"
     id="linearGradient4794-9"
     xlink:href="#linearGradient3187-1"
     inkscape:collect="always" /><radialGradient
     r="333.18735"
     fy="467.91885"
     fx="373.24265"
     cy="467.91885"
     cx="373.24265"
     gradientTransform="matrix(0.9201975,2.7970099e-7,-2.7059634e-7,0.8902438,28.590287,48.634335)"
     gradientUnits="userSpaceOnUse"
     id="radialGradient4792-2"
     xlink:href="#linearGradient3171-6"
     inkscape:collect="always" /><radialGradient
     r="333.18735"
     fy="710.99164"
     fx="373.24265"
     cy="710.99164"
     cx="373.24265"
     gradientTransform="matrix(0.9503534,1.1750652e-7,-5.6287062e-8,0.3462676,17.334826,362.44227)"
     gradientUnits="userSpaceOnUse"
     id="radialGradient4790-7"
     xlink:href="#linearGradient3157-2"
     inkscape:collect="always" /><radialGradient
     r="333.18735"
     fy="710.99164"
     fx="373.24265"
     cy="710.99164"
     cx="373.24265"
     gradientTransform="matrix(0.9503534,1.1750652e-7,-5.6287062e-8,0.3462676,17.334826,362.44227)"
     gradientUnits="userSpaceOnUse"
     id="radialGradient4779-9"
     xlink:href="#linearGradient3157-2"
     inkscape:collect="always" /><radialGradient
     r="333.18735"
     fy="467.91885"
     fx="373.24265"
     cy="467.91885"
     cx="373.24265"
     gradientTransform="matrix(0.9201975,2.7970099e-7,-2.7059634e-7,0.8902438,28.590287,48.634335)"
     gradientUnits="userSpaceOnUse"
     id="radialGradient4776-5"
     xlink:href="#linearGradient3171-6"
     inkscape:collect="always" /><linearGradient
     y2="254.73526"
     x2="123.47623"
     y1="344.03848"
     x1="123.50603"
     gradientTransform="matrix(2.3189708,0,0,2.0930998,93.115298,-256.84999)"
     gradientUnits="userSpaceOnUse"
     id="linearGradient4773-4"
     xlink:href="#linearGradient3187-1"
     inkscape:collect="always" /><linearGradient
     y2="254.73526"
     x2="123.47623"
     y1="344.03848"
     x1="123.50603"
     gradientTransform="matrix(2.3189708,0,0,2.0930998,93.115298,-256.84999)"
     gradientUnits="userSpaceOnUse"
     id="linearGradient4770-3"
     xlink:href="#linearGradient3187-1"
     inkscape:collect="always" /><radialGradient
     r="333.18735"
     fy="467.91885"
     fx="373.24265"
     cy="467.91885"
     cx="373.24265"
     gradientTransform="matrix(0.9201975,2.7970099e-7,-2.7059634e-7,0.8902438,28.590287,48.634335)"
     gradientUnits="userSpaceOnUse"
     id="radialGradient4768-1"
     xlink:href="#linearGradient3171-6"
     inkscape:collect="always" /><radialGradient
     r="333.18735"
     fy="710.99164"
     fx="373.24265"
     cy="710.99164"
     cx="373.24265"
     gradientTransform="matrix(0.9503534,1.1750652e-7,-5.6287062e-8,0.3462676,17.334826,362.44227)"
     gradientUnits="userSpaceOnUse"
     id="radialGradient4766-2"
     xlink:href="#linearGradient3157-2"
     inkscape:collect="always" /><radialGradient
     r="333.18735"
     fy="710.99164"
     fx="373.24265"
     cy="710.99164"
     cx="373.24265"
     gradientTransform="matrix(0.9503534,1.1750652e-7,-5.6287062e-8,0.3462676,17.334826,362.44227)"
     gradientUnits="userSpaceOnUse"
     id="radialGradient4572-4"
     xlink:href="#linearGradient3157-2"
     inkscape:collect="always" /><radialGradient
     r="333.18735"
     fy="467.91885"
     fx="373.24265"
     cy="467.91885"
     cx="373.24265"
     gradientTransform="matrix(0.9201975,2.7970099e-7,-2.7059634e-7,0.8902438,28.590287,48.634335)"
     gradientUnits="userSpaceOnUse"
     id="radialGradient4569-1"
     xlink:href="#linearGradient3171-6"
     inkscape:collect="always" /><linearGradient
     y2="254.73526"
     x2="123.47623"
     y1="344.03848"
     x1="123.50603"
     gradientTransform="matrix(2.3189708,0,0,2.0930998,93.115298,-256.84999)"
     gradientUnits="userSpaceOnUse"
     id="linearGradient4562-1"
     xlink:href="#linearGradient3187-1"
     inkscape:collect="always" /><linearGradient
     gradientUnits="userSpaceOnUse"
     y2="540.86719"
     x2="360.49777"
     y1="167.50403"
     x1="360.49777"
     id="linearGradient4401-3"
     xlink:href="#linearGradient4395-7"
     inkscape:collect="always" /><linearGradient
     gradientUnits="userSpaceOnUse"
     y2="655.4505"
     x2="396.91168"
     y1="298.59412"
     x1="371.42194"
     id="linearGradient4389-8"
     xlink:href="#linearGradient4383-4"
     inkscape:collect="always" /><inkscape:perspective
     id="perspective3214-7"
     inkscape:persp3d-origin="372.04724 : 350.78739 : 1"
     inkscape:vp_z="744.09448 : 526.18109 : 1"
     inkscape:vp_y="0 : 1000 : 0"
     inkscape:vp_x="0 : 526.18109 : 1"
     sodipodi:type="inkscape:persp3d" /><linearGradient
     id="linearGradient4383-4"><stop
       id="stop4385-2"
       offset="0"
       style="stop-color:#00037f;stop-opacity:1;" /><stop
       id="stop4387-7"
       offset="1"
       style="stop-color:#00037f;stop-opacity:0;" /></linearGradient><linearGradient
     id="linearGradient4395-7"><stop
       id="stop4397-9"
       offset="0"
       style="stop-color:#110084;stop-opacity:1;" /><stop
       id="stop4399-3"
       offset="1"
       style="stop-color:#a695ff;stop-opacity:1;" /></linearGradient><linearGradient
     id="linearGradient3187-1"><stop
       id="stop3189-9"
       offset="0"
       style="stop-color:#ffffff;stop-opacity:0.39622641;" /><stop
       id="stop3191-8"
       offset="1"
       style="stop-color:#000000;stop-opacity:1;" /></linearGradient><linearGradient
     id="linearGradient3171-6"><stop
       style="stop-color:#49bcff;stop-opacity:1;"
       offset="0"
       id="stop3173-5" /><stop
       style="stop-color:#494cdc;stop-opacity:1;"
       offset="1"
       id="stop3175-0" /></linearGradient><linearGradient
     id="linearGradient3157-2"><stop
       id="stop3159-8"
       offset="0"
       style="stop-color:#49bcff;stop-opacity:1;" /><stop
       id="stop3161-6"
       offset="1"
       style="stop-color:#494c96;stop-opacity:1;" /></linearGradient><linearGradient
     id="linearGradient5443-0"><stop
       style="stop-color:#ffffff;stop-opacity:0;"
       offset="0"
       id="stop5445-2" /><stop
       style="stop-color:#000000;stop-opacity:0.33962265;"
       offset="1"
       id="stop5447-4" /></linearGradient><radialGradient
     inkscape:collect="always"
     xlink:href="#linearGradient5443-0"
     id="radialGradient3234"
     gradientUnits="userSpaceOnUse"
     gradientTransform="matrix(0.8612608,1.0093481e-7,-5.1010329e-8,0.29743416,-586.09339,395.79293)"
     cx="373.24265"
     cy="710.99164"
     fx="373.24265"
     fy="710.99164"
     r="333.18735" /><linearGradient
     inkscape:collect="always"
     xlink:href="#linearGradient3187-1"
     id="linearGradient3236"
     gradientUnits="userSpaceOnUse"
     gradientTransform="matrix(2.3189708,0,0,2.0930998,-543.56606,-225.82362)"
     x1="123.50603"
     y1="344.03848"
     x2="123.47623"
     y2="254.73526" /><radialGradient
     inkscape:collect="always"
     xlink:href="#linearGradient5443-0"
     id="radialGradient3238"
     gradientUnits="userSpaceOnUse"
     gradientTransform="matrix(0.83393192,2.4025531e-7,-2.452288e-7,0.76469446,-575.89311,126.3946)"
     cx="373.24265"
     cy="467.91885"
     fx="373.24265"
     fy="467.91885"
     r="333.18735" /><radialGradient
     inkscape:collect="always"
     xlink:href="#linearGradient5443-0"
     id="radialGradient3254"
     gradientUnits="userSpaceOnUse"
     gradientTransform="matrix(0.8612608,1.0093481e-7,-5.1010329e-8,0.29743416,-586.09339,395.79293)"
     cx="373.24265"
     cy="710.99164"
     fx="373.24265"
     fy="710.99164"
     r="333.18735" /><linearGradient
     inkscape:collect="always"
     xlink:href="#linearGradient3187-1"
     id="linearGradient3256"
     gradientUnits="userSpaceOnUse"
     gradientTransform="matrix(2.3189708,0,0,2.0930998,-543.56606,-225.82362)"
     x1="123.50603"
     y1="344.03848"
     x2="123.47623"
     y2="254.73526" /><radialGradient
     inkscape:collect="always"
     xlink:href="#linearGradient5443-0"
     id="radialGradient3258"
     gradientUnits="userSpaceOnUse"
     gradientTransform="matrix(0.83393192,2.4025531e-7,-2.452288e-7,0.76469446,-575.89311,126.3946)"
     cx="373.24265"
     cy="467.91885"
     fx="373.24265"
     fy="467.91885"
     r="333.18735" /><radialGradient
     inkscape:collect="always"
     xlink:href="#linearGradient5443-0"
     id="radialGradient3270"
     gradientUnits="userSpaceOnUse"
     gradientTransform="matrix(0.83535069,2.5391116e-7,-2.4564601e-7,0.80815885,-821.89024,-331.16994)"
     cx="373.24265"
     cy="467.91885"
     fx="373.24265"
     fy="467.91885"
     r="333.18735" /><radialGradient
     inkscape:collect="always"
     xlink:href="#linearGradient5443-0"
     id="radialGradient3274"
     gradientUnits="userSpaceOnUse"
     gradientTransform="matrix(0.86272606,1.0667183e-7,-5.1097113e-8,0.31433999,-832.10787,-46.459305)"
     cx="373.24265"
     cy="710.99164"
     fx="373.24265"
     fy="710.99164"
     r="333.18735" /><linearGradient
     y2="254.73526"
     x2="123.47623"
     y1="344.03848"
     x1="123.50603"
     gradientTransform="matrix(2.3189708,0,0,2.0930998,-543.56606,-225.82362)"
     gradientUnits="userSpaceOnUse"
     id="linearGradient3422"
     xlink:href="#linearGradient3187"
     inkscape:collect="always" /><radialGradient
     r="333.18735"
     fy="710.99164"
     fx="373.24265"
     cy="710.99164"
     cx="373.24265"
     gradientTransform="matrix(0.86272606,1.0667183e-7,-5.1097113e-8,0.31433999,-736.19251,168.72353)"
     gradientUnits="userSpaceOnUse"
     id="radialGradient3416"
     xlink:href="#linearGradient5443"
     inkscape:collect="always" /><radialGradient
     r="333.18735"
     fy="467.91885"
     fx="373.24265"
     cy="467.91885"
     cx="373.24265"
     gradientTransform="matrix(0.83535069,2.5391116e-7,-2.4564601e-7,0.80815885,-725.97492,-115.98714)"
     gradientUnits="userSpaceOnUse"
     id="radialGradient3412"
     xlink:href="#linearGradient5443"
     inkscape:collect="always" /><radialGradient
     r="333.18735"
     fy="467.91885"
     fx="373.24265"
     cy="467.91885"
     cx="373.24265"
     gradientTransform="matrix(0.83393192,2.4025531e-7,-2.452288e-7,0.76469446,-575.89311,126.3946)"
     gradientUnits="userSpaceOnUse"
     id="radialGradient2894"
     xlink:href="#linearGradient5443"
     inkscape:collect="always" /><linearGradient
     y2="254.73526"
     x2="123.47623"
     y1="344.03848"
     x1="123.50603"
     gradientTransform="matrix(2.3189708,0,0,2.0930998,-543.56606,-225.82362)"
     gradientUnits="userSpaceOnUse"
     id="linearGradient2892"
     xlink:href="#linearGradient3187"
     inkscape:collect="always" /><radialGradient
     r="333.18735"
     fy="710.99164"
     fx="373.24265"
     cy="710.99164"
     cx="373.24265"
     gradientTransform="matrix(0.8612608,1.0093481e-7,-5.1010329e-8,0.29743416,-586.09339,395.79293)"
     gradientUnits="userSpaceOnUse"
     id="radialGradient2890"
     xlink:href="#linearGradient5443"
     inkscape:collect="always" /><linearGradient
     id="linearGradient5443-5"><stop
       style="stop-color:#ffffff;stop-opacity:0;"
       offset="0"
       id="stop5445-4" /><stop
       style="stop-color:#000000;stop-opacity:0.33962265;"
       offset="1"
       id="stop5447-3" /></linearGradient><radialGradient
     r="333.18735"
     fy="710.99164"
     fx="373.24265"
     cy="710.99164"
     cx="373.24265"
     gradientTransform="matrix(0.9503534,1.1750652e-7,-5.6287062e-8,0.3462676,317.80591,185.68771)"
     gradientUnits="userSpaceOnUse"
     id="radialGradient4835-3"
     xlink:href="#linearGradient5443-5"
     inkscape:collect="always" /><filter
     color-interpolation-filters="sRGB"
     id="filter5511"
     inkscape:collect="always"><feGaussianBlur
       id="feGaussianBlur5513"
       stdDeviation="3.2374974"
       inkscape:collect="always" /></filter><radialGradient
     r="333.18735"
     fy="710.99164"
     fx="373.24265"
     cy="710.99164"
     cx="373.24265"
     gradientTransform="matrix(0.8612608,1.0093481e-7,-5.1010329e-8,0.29743416,-586.09339,395.79293)"
     gradientUnits="userSpaceOnUse"
     id="radialGradient4835"
     xlink:href="#linearGradient5443"
     inkscape:collect="always" /><radialGradient
     r="333.18735"
     fy="467.91885"
     fx="373.24265"
     cy="467.91885"
     cx="373.24265"
     gradientTransform="matrix(0.83393192,2.4025531e-7,-2.452288e-7,0.76469446,-575.89311,126.3946)"
     gradientUnits="userSpaceOnUse"
     id="radialGradient4832"
     xlink:href="#linearGradient5443"
     inkscape:collect="always" /><linearGradient
     y2="254.73526"
     x2="123.47623"
     y1="344.03848"
     x1="123.50603"
     gradientTransform="matrix(2.3189708,0,0,2.0930998,-543.56606,-225.82362)"
     gradientUnits="userSpaceOnUse"
     id="linearGradient4827"
     xlink:href="#linearGradient3187"
     inkscape:collect="always" /><linearGradient
     y2="254.73526"
     x2="123.47623"
     y1="344.03848"
     x1="123.50603"
     gradientTransform="matrix(2.3189708,0,0,2.0930998,93.115298,-256.84999)"
     gradientUnits="userSpaceOnUse"
     id="linearGradient4824"
     xlink:href="#linearGradient3187"
     inkscape:collect="always" /><radialGradient
     r="333.18735"
     fy="467.91885"
     fx="373.24265"
     cy="467.91885"
     cx="373.24265"
     gradientTransform="matrix(0.9201975,2.7970099e-7,-2.7059634e-7,0.8902438,28.590287,48.634335)"
     gradientUnits="userSpaceOnUse"
     id="radialGradient4822"
     xlink:href="#linearGradient3171"
     inkscape:collect="always" /><radialGradient
     r="333.18735"
     fy="710.99164"
     fx="373.24265"
     cy="710.99164"
     cx="373.24265"
     gradientTransform="matrix(0.9503534,1.1750652e-7,-5.6287062e-8,0.3462676,17.334826,362.44227)"
     gradientUnits="userSpaceOnUse"
     id="radialGradient4820"
     xlink:href="#linearGradient3157"
     inkscape:collect="always" /><radialGradient
     r="333.18735"
     fy="710.99164"
     fx="373.24265"
     cy="710.99164"
     cx="373.24265"
     gradientTransform="matrix(0.9503534,1.1750652e-7,-5.6287062e-8,0.3462676,17.334826,362.44227)"
     gradientUnits="userSpaceOnUse"
     id="radialGradient4805"
     xlink:href="#linearGradient3157"
     inkscape:collect="always" /><radialGradient
     r="333.18735"
     fy="467.91885"
     fx="373.24265"
     cy="467.91885"
     cx="373.24265"
     gradientTransform="matrix(0.9201975,2.7970099e-7,-2.7059634e-7,0.8902438,28.590287,48.634335)"
     gradientUnits="userSpaceOnUse"
     id="radialGradient4802"
     xlink:href="#linearGradient3171"
     inkscape:collect="always" /><linearGradient
     y2="254.73526"
     x2="123.47623"
     y1="344.03848"
     x1="123.50603"
     gradientTransform="matrix(2.3189708,0,0,2.0930998,93.115298,-256.84999)"
     gradientUnits="userSpaceOnUse"
     id="linearGradient4799"
     xlink:href="#linearGradient3187"
     inkscape:collect="always" /><linearGradient
     y2="254.73526"
     x2="123.47623"
     y1="344.03848"
     x1="123.50603"
     gradientTransform="matrix(2.3189708,0,0,2.0930998,93.115298,-256.84999)"
     gradientUnits="userSpaceOnUse"
     id="linearGradient4794"
     xlink:href="#linearGradient3187"
     inkscape:collect="always" /><radialGradient
     r="333.18735"
     fy="467.91885"
     fx="373.24265"
     cy="467.91885"
     cx="373.24265"
     gradientTransform="matrix(0.9201975,2.7970099e-7,-2.7059634e-7,0.8902438,28.590287,48.634335)"
     gradientUnits="userSpaceOnUse"
     id="radialGradient4792"
     xlink:href="#linearGradient3171"
     inkscape:collect="always" /><radialGradient
     r="333.18735"
     fy="710.99164"
     fx="373.24265"
     cy="710.99164"
     cx="373.24265"
     gradientTransform="matrix(0.9503534,1.1750652e-7,-5.6287062e-8,0.3462676,17.334826,362.44227)"
     gradientUnits="userSpaceOnUse"
     id="radialGradient4790"
     xlink:href="#linearGradient3157"
     inkscape:collect="always" /><radialGradient
     r="333.18735"
     fy="710.99164"
     fx="373.24265"
     cy="710.99164"
     cx="373.24265"
     gradientTransform="matrix(0.9503534,1.1750652e-7,-5.6287062e-8,0.3462676,17.334826,362.44227)"
     gradientUnits="userSpaceOnUse"
     id="radialGradient4779"
     xlink:href="#linearGradient3157"
     inkscape:collect="always" /><radialGradient
     r="333.18735"
     fy="467.91885"
     fx="373.24265"
     cy="467.91885"
     cx="373.24265"
     gradientTransform="matrix(0.9201975,2.7970099e-7,-2.7059634e-7,0.8902438,28.590287,48.634335)"
     gradientUnits="userSpaceOnUse"
     id="radialGradient4776"
     xlink:href="#linearGradient3171"
     inkscape:collect="always" /><linearGradient
     y2="254.73526"
     x2="123.47623"
     y1="344.03848"
     x1="123.50603"
     gradientTransform="matrix(2.3189708,0,0,2.0930998,93.115298,-256.84999)"
     gradientUnits="userSpaceOnUse"
     id="linearGradient4773"
     xlink:href="#linearGradient3187"
     inkscape:collect="always" /><linearGradient
     y2="254.73526"
     x2="123.47623"
     y1="344.03848"
     x1="123.50603"
     gradientTransform="matrix(2.3189708,0,0,2.0930998,93.115298,-256.84999)"
     gradientUnits="userSpaceOnUse"
     id="linearGradient4770"
     xlink:href="#linearGradient3187"
     inkscape:collect="always" /><radialGradient
     r="333.18735"
     fy="467.91885"
     fx="373.24265"
     cy="467.91885"
     cx="373.24265"
     gradientTransform="matrix(0.9201975,2.7970099e-7,-2.7059634e-7,0.8902438,28.590287,48.634335)"
     gradientUnits="userSpaceOnUse"
     id="radialGradient4768"
     xlink:href="#linearGradient3171"
     inkscape:collect="always" /><radialGradient
     r="333.18735"
     fy="710.99164"
     fx="373.24265"
     cy="710.99164"
     cx="373.24265"
     gradientTransform="matrix(0.9503534,1.1750652e-7,-5.6287062e-8,0.3462676,17.334826,362.44227)"
     gradientUnits="userSpaceOnUse"
     id="radialGradient4766"
     xlink:href="#linearGradient3157"
     inkscape:collect="always" /><filter
     color-interpolation-filters="sRGB"
     id="filter4659"
     inkscape:collect="always"><feGaussianBlur
       id="feGaussianBlur4661"
       stdDeviation="2.7750933"
       inkscape:collect="always" /></filter><radialGradient
     r="333.18735"
     fy="710.99164"
     fx="373.24265"
     cy="710.99164"
     cx="373.24265"
     gradientTransform="matrix(0.9503534,1.1750652e-7,-5.6287062e-8,0.3462676,17.334826,362.44227)"
     gradientUnits="userSpaceOnUse"
     id="radialGradient4572"
     xlink:href="#linearGradient3157"
     inkscape:collect="always" /><radialGradient
     r="333.18735"
     fy="467.91885"
     fx="373.24265"
     cy="467.91885"
     cx="373.24265"
     gradientTransform="matrix(0.9201975,2.7970099e-7,-2.7059634e-7,0.8902438,28.590287,48.634335)"
     gradientUnits="userSpaceOnUse"
     id="radialGradient4569"
     xlink:href="#linearGradient3171"
     inkscape:collect="always" /><linearGradient
     y2="254.73526"
     x2="123.47623"
     y1="344.03848"
     x1="123.50603"
     gradientTransform="matrix(2.3189708,0,0,2.0930998,93.115298,-256.84999)"
     gradientUnits="userSpaceOnUse"
     id="linearGradient4562"
     xlink:href="#linearGradient3187"
     inkscape:collect="always" /><linearGradient
     gradientUnits="userSpaceOnUse"
     y2="540.86719"
     x2="360.49777"
     y1="167.50403"
     x1="360.49777"
     id="linearGradient4401"
     xlink:href="#linearGradient4395"
     inkscape:collect="always" /><linearGradient
     gradientUnits="userSpaceOnUse"
     y2="655.4505"
     x2="396.91168"
     y1="298.59412"
     x1="371.42194"
     id="linearGradient4389"
     xlink:href="#linearGradient4383"
     inkscape:collect="always" /><inkscape:perspective
     id="perspective3214"
     inkscape:persp3d-origin="372.04724 : 350.78739 : 1"
     inkscape:vp_z="744.09448 : 526.18109 : 1"
     inkscape:vp_y="0 : 1000 : 0"
     inkscape:vp_x="0 : 526.18109 : 1"
     sodipodi:type="inkscape:persp3d" /><linearGradient
     id="linearGradient4383"><stop
       id="stop4385"
       offset="0"
       style="stop-color:#00037f;stop-opacity:1;" /><stop
       id="stop4387"
       offset="1"
       style="stop-color:#00037f;stop-opacity:0;" /></linearGradient><linearGradient
     id="linearGradient4395"><stop
       id="stop4397"
       offset="0"
       style="stop-color:#110084;stop-opacity:1;" /><stop
       id="stop4399"
       offset="1"
       style="stop-color:#a695ff;stop-opacity:1;" /></linearGradient><linearGradient
     id="linearGradient3187"><stop
       id="stop3189"
       offset="0"
       style="stop-color:#ffffff;stop-opacity:0.39622641;" /><stop
       id="stop3191"
       offset="1"
       style="stop-color:#9e9e9e;stop-opacity:1;" /></linearGradient><linearGradient
     id="linearGradient3171"><stop
       style="stop-color:#49bcff;stop-opacity:1;"
       offset="0"
       id="stop3173" /><stop
       style="stop-color:#494cdc;stop-opacity:1;"
       offset="1"
       id="stop3175" /></linearGradient><linearGradient
     id="linearGradient3157"><stop
       id="stop3159"
       offset="0"
       style="stop-color:#49bcff;stop-opacity:1;" /><stop
       id="stop3161"
       offset="1"
       style="stop-color:#494c96;stop-opacity:1;" /></linearGradient><linearGradient
     id="linearGradient5443"><stop
       style="stop-color:#ffffff;stop-opacity:0;"
       offset="0"
       id="stop5445" /><stop
       style="stop-color:#cbcac8;stop-opacity:1;"
       offset="1"
       id="stop5447" /></linearGradient><radialGradient
     inkscape:collect="always"
     xlink:href="#linearGradient5443"
     id="radialGradient3253"
     gradientUnits="userSpaceOnUse"
     gradientTransform="matrix(0.8612608,1.0093481e-7,-5.1010329e-8,0.29743416,-586.09339,395.79293)"
     cx="373.24265"
     cy="710.99164"
     fx="373.24265"
     fy="710.99164"
     r="333.18735" /><linearGradient
     inkscape:collect="always"
     xlink:href="#linearGradient3187"
     id="linearGradient3255"
     gradientUnits="userSpaceOnUse"
     gradientTransform="matrix(2.3189708,0,0,2.0930998,-543.56606,-225.82362)"
     x1="123.50603"
     y1="344.03848"
     x2="123.47623"
     y2="254.73526" /><radialGradient
     inkscape:collect="always"
     xlink:href="#linearGradient5443"
     id="radialGradient3257"
     gradientUnits="userSpaceOnUse"
     gradientTransform="matrix(0.83393192,2.4025531e-7,-2.452288e-7,0.76469446,-575.89311,126.3946)"
     cx="373.24265"
     cy="467.91885"
     fx="373.24265"
     fy="467.91885"
     r="333.18735" /><radialGradient
     inkscape:collect="always"
     xlink:href="#linearGradient5443"
     id="radialGradient3273"
     gradientUnits="userSpaceOnUse"
     gradientTransform="matrix(0.8612608,1.0093481e-7,-5.1010329e-8,0.29743416,-586.09339,395.79293)"
     cx="373.24265"
     cy="710.99164"
     fx="373.24265"
     fy="710.99164"
     r="333.18735" /><linearGradient
     inkscape:collect="always"
     xlink:href="#linearGradient3187"
     id="linearGradient3275"
     gradientUnits="userSpaceOnUse"
     gradientTransform="matrix(2.3189708,0,0,2.0930998,-543.56606,-225.82362)"
     x1="123.50603"
     y1="344.03848"
     x2="123.47623"
     y2="254.73526" /><radialGradient
     inkscape:collect="always"
     xlink:href="#linearGradient5443"
     id="radialGradient3277"
     gradientUnits="userSpaceOnUse"
     gradientTransform="matrix(0.83393192,2.4025531e-7,-2.452288e-7,0.76469446,-575.89311,126.3946)"
     cx="373.24265"
     cy="467.91885"
     fx="373.24265"
     fy="467.91885"
     r="333.18735" /></defs><sodipodi:namedview
   pagecolor="#ffffff"
   bordercolor="#666666"
   borderopacity="1"
   objecttolerance="10"
   gridtolerance="10"
   guidetolerance="10"
   inkscape:pageopacity="0"
   inkscape:pageshadow="2"
   inkscape:window-width="1920"
   inkscape:window-height="1031"
   id="namedview54"
   showgrid="false"
   fit-margin-top="0"
   fit-margin-left="0"
   fit-margin-right="0"
   fit-margin-bottom="0"
   inkscape:zoom="0.5959596"
   inkscape:cx="384.7408"
   inkscape:cy="81.788226"
   inkscape:window-x="-4"
   inkscape:window-y="-4"
   inkscape:window-maximized="1"
   inkscape:current-layer="_x31_" />







<g
   id="g4234"
   transform="translate(-4.0524846e-6,1.5294449e-7)"><g
     transform="translate(589.18636,-87.165827)"
     id="g4448"><rect
       transform="matrix(2.1051501,0,0,2.1051501,-860.18934,-1.2010596)"
       ry="12.45238"
       rx="16.067965"
       y="48.636749"
       x="135.39355"
       height="152.93848"
       width="152.93848"
       id="rect4192"
       style="fill:#cccccc;fill-opacity:1;stroke:none;filter:url(#filter4659)"
       inkscape:export-filename="C:\Documents and Settings\adscro24\Desktop\128.png"
       inkscape:export-xdpi="29.879425"
       inkscape:export-ydpi="29.879425" /><rect
       inkscape:export-ydpi="29.879425"
       inkscape:export-xdpi="29.879425"
       inkscape:export-filename="C:\Documents and Settings\adscro24\Desktop\128.png"
       style="fill:#cbcac8;fill-opacity:1;stroke:none;filter:url(#filter4659)"
       id="rect3279"
       width="152.93848"
       height="152.93848"
       x="135.39355"
       y="48.636749"
       rx="16.067965"
       ry="12.45238"
       transform="matrix(2.1051501,0,0,2.1051501,-860.18934,-1.2010596)" /><rect
       inkscape:export-ydpi="29.879425"
       inkscape:export-xdpi="29.879425"
       inkscape:export-filename="C:\Documents and Settings\adscro24\Desktop\128.png"
       style="opacity:0.61338286;fill:url(#radialGradient4456);fill-opacity:1;stroke:#000000;stroke-width:3.26806188;stroke-miterlimit:4;stroke-opacity:1;stroke-dasharray:none"
       id="rect3155"
       width="321.95847"
       height="321.95844"
       x="-575.16559"
       y="101.18661"
       rx="33.825478"
       ry="26.214128" /><path
       transform="matrix(0.907795,0,0,0.90779498,-173.95283,-177.39738)"
       inkscape:export-ydpi="29.879425"
       inkscape:export-xdpi="29.879425"
       inkscape:export-filename="C:\Documents and Settings\adscro24\Desktop\128.png"
       inkscape:connector-curvature="0"
       style="opacity:0.61338286;fill:url(#linearGradient4458);fill-opacity:1;stroke:none;filter:url(#filter5511)"
       d="m -397.80626,329.07489 c -19.62748,0 -35.44272,12.0976 -35.44272,27.14163 l 0,124.30857 c 29.25482,11.38638 132.70149,11.89599 165.40488,-5.79022 33.32802,-18.02397 127.54379,-68.44264 171.824837,-52.72052 l 0,-65.79783 c 0,-15.04403 -15.798597,-27.14163 -35.426097,-27.14163 l -266.3609,0 z m -35.44272,263.47103 0,42.88373 c 0,1.33144 0.14331,2.63588 0.38253,3.915 -0.11919,-12.81092 -0.25965,-28.88939 -0.38253,-46.79873 z"
       id="rect3177" /><rect
       inkscape:export-ydpi="29.879425"
       inkscape:export-xdpi="29.879425"
       inkscape:export-filename="C:\Documents and Settings\adscro24\Desktop\128.png"
       style="opacity:0.61338286;fill:url(#radialGradient4460);fill-opacity:1;stroke:#ffffff;stroke-width:0.68992418;stroke-linecap:square;stroke-miterlimit:4;stroke-opacity:1;stroke-dasharray:none"
       id="rect3473"
       width="306.12445"
       height="306.12445"
       x="-567.2486"
       y="109.1036"
       rx="32.161926"
       ry="24.924911" /><rect
       inkscape:export-ydpi="29.879425"
       inkscape:export-xdpi="29.879425"
       inkscape:export-filename="C:\Documents and Settings\adscro24\Desktop\128.png"
       style="opacity:0.61338286;fill:#ffffff;fill-opacity:0;stroke:#000000;stroke-width:3.26806188;stroke-miterlimit:4;stroke-opacity:1;stroke-dasharray:none"
       id="rect3155-2"
       width="321.95847"
       height="321.95844"
       x="-575.16559"
       y="101.18661"
       rx="33.825478"
       ry="26.214128" /></g><g
     transform="translate(358.29183,-87.165827)"
     id="LWPOLYLINE_2_-7">
	
		
</g><g
     transform="translate(358.29183,-87.165827)"
     id="LWPOLYLINE_3_-4">
	
		
</g><g
     transform="translate(358.29183,-87.165827)"
     id="LWPOLYLINE_4_-0">
	
		
</g><g
     transform="translate(184.65055,-351.95215)"
     style="fill:#000000;fill-opacity:1;stroke:none"
     id="LWPOLYLINE_6_-7">
	
		
</g><g
     transform="translate(184.65055,-351.95215)"
     style="fill:#000000;fill-opacity:1;stroke:none"
     id="LWPOLYLINE-4">
	
		
</g><g
     transform="translate(184.65055,-351.95215)"
     style="fill:#000000;fill-opacity:1;stroke:none"
     id="LWPOLYLINE_3_-0">
	
		
</g></g><g
   id="LWPOLYLINE_7_"
   style="fill:#000000;fill-opacity:1;stroke:none"
   transform="translate(126.87798,-92.970324)">
	
		
</g>


<g
   id="LWPOLYLINE_10_"
   style="fill:#000000;fill-opacity:1;stroke:none"
   transform="translate(126.87798,-92.970324)">
	
		
</g>


<g
   id="LWPOLYLINE_13_"
   style="fill:#000000;fill-opacity:1;stroke:none"
   transform="translate(126.87798,-92.970324)">
	
		
</g>
<g
   id="LWPOLYLINE_14_"
   style="fill:#000000;fill-opacity:1;stroke:none"
   transform="translate(126.87798,-92.970324)">
	
		
</g>
<g
   id="LWPOLYLINE_15_"
   style="fill:#000000;fill-opacity:1;stroke:none"
   transform="translate(126.87798,-92.970324)">
	
		
</g>
<g
   id="g3808"
   transform="matrix(0.5,0,0,0.5,21.759336,-22.749979)"><g
     style="fill:#000000;fill-opacity:1;stroke:none"
     id="LWPOLYLINE_8_">
	
		<path
   id="path28"
   d="m 297.53125,547.65625 c -0.198,-0.003 -0.21875,96.1875 -0.21875,96.1875 l 0.34375,0 0.21875,0 0.34375,0 0.34375,0 0.40625,0 0.5,0 0.53125,0 0.5625,0 0.59375,0 0.625,0 0.6875,0 0.6875,0 0.71875,0 0.71875,0 0.78125,0 0.71875,0 0.8125,0 0.78125,0 0.78125,0 0.75,0 0.78125,0 0.71875,0 0.78125,0 0.6875,0 0.71875,0 0.65625,0 0.65625,0 0.59375,0 0.5625,0 0.5,0 0.46875,0 0.4375,0 0.375,0 0.28125,0 0.25,0 0.3125,0 1.25,0 1.21875,-0.0312 1.1875,-0.0625 1.15625,-0.0312 1.15625,-0.0937 1.09375,-0.0625 1.09375,-0.125 1.03125,-0.125 1.0625,-0.125 1,-0.125 1,-0.15625 0.96875,-0.1875 0.96875,-0.21875 0.875,-0.1875 0.9375,-0.21875 0.84375,-0.25 0.875,-0.28125 0.84375,-0.21875 0.8125,-0.34375 0.75,-0.28125 0.78125,-0.3125 0.78125,-0.34375 0.71875,-0.34375 0.6875,-0.375 0.6875,-0.375 0.65625,-0.375 0.625,-0.40625 0.625,-0.46875 0.59375,-0.4375 0.5625,-0.4375 0.59375,-0.5 0.5,-0.46875 0.53125,-0.5 0.5,-0.53125 0.46875,-0.5 0.4375,-0.59375 0.46875,-0.5625 0.4375,-0.59375 0.40625,-0.5625 0.375,-0.625 0.3125,-0.5 0.28125,-0.53125 0.28125,-0.53125 0.28125,-0.5625 0.28125,-0.625 0.25,-0.59375 0.25,-0.625 0.21875,-0.625 0.25,-0.6875 0.25,-0.6875 0.1875,-0.75 0.21875,-0.71875 0.1875,-0.78125 0.21875,-0.75 0.15625,-0.8125 0.21875,-0.84375 0.15625,-0.875 0.15625,-0.875 0.15625,-0.90625 0.125,-0.90625 0.125,-1 0.15625,-0.96875 0.125,-1 0.0937,-1.0625 0.0937,-1.09375 0.0937,-1.09375 0.125,-1.125 0.0625,-1.125 0.0937,-1.21875 0.0312,-1.21875 0.0937,-1.21875 0.0312,-1.28125 0.0625,-1.3125 0.0312,-1.34375 0.0312,-1.375 0.0312,-1.40625 0.0625,-1.46875 0,-1.4375 0,-1.5 0,-1.53125 0,-0.28125 0,-0.34375 0,-0.40625 0,-0.4375 -0.0625,-0.5 0,-0.5 -0.0312,-0.5625 0,-0.625 -0.0312,-0.6875 -0.0312,-0.6875 -0.0625,-0.71875 -0.0312,-0.78125 -0.0935,-0.7814 -0.0312,-0.8125 -0.0312,-0.84375 -0.0937,-0.84375 -0.0625,-0.84375 -0.0937,-0.90625 -0.0937,-0.90625 -0.0625,-0.90625 -0.125,-0.9375 -0.0937,-0.9375 -0.125,-0.90625 -0.0937,-0.9375 -0.125,-0.9375 -0.125,-0.90625 -0.125,-0.90625 -0.15625,-0.90625 -0.15625,-0.875 -0.1875,-0.90625 -0.15625,-0.84375 -0.15625,-0.84375 -0.15625,-0.8125 -0.21875,-0.78125 -0.1875,-0.78125 -0.21875,-0.71875 -0.21875,-0.6875 -0.21875,-0.6875 -0.25,-0.59375 -0.21875,-0.5625 -0.375,-0.8125 -0.4066,-0.78125 -0.40625,-0.71875 -0.40625,-0.75 -0.4375,-0.71875 -0.4375,-0.65625 -0.46875,-0.625 -0.46875,-0.65625 -0.5,-0.625 -0.46875,-0.5625 -0.5,-0.5625 -0.53125,-0.53125 -0.5625,-0.53125 -0.53125,-0.46875 -0.5625,-0.5 -0.5625,-0.4375 -0.59375,-0.4375 -0.625,-0.40625 -0.59375,-0.375 -0.59375,-0.34375 -0.65625,-0.375 -0.6875,-0.3125 -0.65625,-0.34375 -0.6875,-0.28125 -0.6875,-0.21875 -0.71875,-0.3125 -0.75,-0.1875 -0.75,-0.25 -0.75,-0.15625 -0.75,-0.1875 -0.8125,-0.1875 -0.8125,-0.125 -0.8125,-0.0937 -0.84375,-0.125 -0.84375,-0.0937 -0.875,-0.0625 -0.875,-0.0625 -0.90625,-0.0312 -0.875,-0.0312 -0.9375,0 -0.4375,0 -0.34375,0 -0.4375,0 -0.46875,0 -0.59375,0 -0.625,0 -0.75,0 -0.75,0 -0.8125,0 -0.84375,0 -0.9375,0 -0.9375,0 -0.96875,0 -1,0 -1.03125,0 -1.0625,0 -1.03125,0 -1.0625,0 -1.0625,0 -1.03125,0 -1.0625,0 -1,0 -1.03125,0 -0.96875,0 -0.9375,0 -0.9375,0 -0.84375,0 -0.8125,0 -0.75,0 -0.75,0 -0.625,0 -0.5625,0 -0.5,0 -0.4375,0 -0.34375,0 -0.21875,0 z m 11.375,10.75 0.28125,0 0.40625,0 0.28125,0 0.3125,0 0.375,0 0.40625,0 0.40625,0 0.46875,0 0.5,0 0.46875,0 0.53125,0 0.5625,0 0.53125,0 0.625,0 0.5625,0 0.5625,0 0.59375,0 0.625,0 0.5625,0 0.5625,0 0.59375,0 0.53125,0 0.5625,0 0.53125,0 0.5,0 0.46875,0 0.5,0 0.40625,0 0.40625,0 0.34375,0 0.34375,0 0.28125,0 0.25,0 0.3125,0 c 0.122,0 1,0.0312 1,0.0312 l 0.90625,0.0625 0.875,0.0312 0.875,0.0937 0.78125,0.0937 0.8125,0.1875 0.78125,0.15625 0.71875,0.1875 0.75,0.25 0.71875,0.28125 0.65625,0.28125 0.625,0.34375 0.65625,0.34375 0.625,0.40625 0.5625,0.40625 0.5625,0.4375 0.53125,0.53125 0.5,0.53125 0.5,0.5625 0.4375,0.625 0.46875,0.625 0.375,0.65625 0.40625,0.71875 0.375,0.78125 0.375,0.78125 0.3125,0.84375 0.28125,0.875 0.28125,0.90625 0.25,0.96875 0.25,1 0.1875,1.0625 0.21875,1.09375 0.15625,1.125 0.125,1.1875 0.125,1.21875 0.0937,1.28125 0.0937,1.34375 0.0312,1.34375 0.0625,1.40625 0,1.5 0,0.28125 0,0.25 0,0.28125 0,0.3125 0,0.40625 0,0.4375 0,0.46875 0,0.53125 0,0.5625 0,0.5625 0,0.625 0,0.625 0,0.6875 0,0.6875 0,0.6875 0,0.6875 0,0.71875 0,0.6875 0,0.75 0,0.6875 0,0.71875 0,0.6875 0,0.6875 0,0.65625 0,0.65625 0,0.59375 0,0.5625 0,0.5625 0,0.53125 0,0.5 0,0.40625 0,0.40625 0,0.3125 0,0.3125 0,0.21875 0,0.28125 0,1.65625 -0.0625,1.625 -0.0312,1.53125 -0.0937,1.46875 -0.0937,1.40625 -0.125,1.375 -0.15625,1.28125 -0.1875,1.3125 -0.1875,1.15625 -0.25,1.1875 -0.25,1.09375 -0.28125,1.0625 -0.3125,1 -0.3125,0.96875 -0.375,0.9375 -0.40625,0.84375 -0.40625,0.8125 -0.4375,0.78125 -0.5,0.71875 -0.53125,0.6875 -0.5,0.65625 -0.59375,0.59375 -0.59375,0.5625 -0.65625,0.53125 -0.6875,0.53125 -0.6875,0.4375 -0.75,0.40625 -0.78125,0.375 -0.8125,0.375 -0.84375,0.28125 -0.84375,0.28125 -0.9375,0.25 -0.96875,0.1875 -0.96875,0.1875 -1.03125,0.125 -1.09375,0.125 -1.09375,0.125 -1.125,0.0312 -1.21875,0.0625 -1.21875,0.0312 -0.3125,0 -0.375,0 -0.25,0 -0.28125,0 -0.28125,0 -0.3125,0 -0.3125,0 -0.375,0 -0.375,0 -0.40625,0 -0.40625,0 -0.375,0 -0.40625,0 -0.46875,0 -0.40625,0 -0.4375,0 -0.4375,0 -0.4375,0 -0.40625,0 -0.46875,0 -0.40625,0 -0.375,0 -0.375,0 -0.40625,0 -0.3125,0 -0.375,0 -0.3125,0 -0.28125,0 -0.25,0 -0.25,0 -0.40625,0 -0.1875,0 c -0.118,0.008 -0.125,-74.65625 -0.125,-74.65625 z"
   style="fill:#000000;fill-opacity:1;stroke:none"
   inkscape:connector-curvature="0" />
</g><g
     style="fill:#000000;fill-opacity:1;stroke:none"
     id="LWPOLYLINE_12_">
	
		<path
   id="rect40"
   d="m 170.46875,145.5 0,215.5625 273.625,0 0,-215.5625 -273.625,0 z m 23.1875,23.1875 227.1875,0 0,73 -227.1875,0 0,-73 z m 0,96.21875 102,0 0,73.78125 -102,0 0,-73.78125 z m 125.21875,0 101.96875,0 0,73.78125 -101.96875,0 0,-73.78125 z"
   style="fill:#000000;fill-opacity:1;stroke:none"
   inkscape:connector-curvature="0" />
</g><g
     style="fill:#000000;fill-opacity:1;stroke:none"
     id="LWPOLYLINE">
	
		<path
   style="fill:#000000;fill-opacity:1;stroke:none"
   id="path4"
   d="m 230.152,411.664 c 0,0.143 0,0.588 0,0.588 v 0.729 0.971 1.236 1.477 1.66 1.863 2.064 2.227 2.389 2.51 2.672 2.754 2.834 2.916 2.996 3.035 3.037 3.076 3.078 3.076 3.037 2.955 2.916 2.875 2.752 2.633 2.51 2.389 2.227 2.064 1.863 1.701 1.457 1.215 0.971 0.729 0.445 c -0.081,0 -0.263,-0.445 -0.263,-0.445 l -0.324,-0.729 -0.445,-0.971 -0.547,-1.215 -0.647,-1.457 -0.749,-1.701 -0.83,-1.863 -0.911,-2.064 -0.991,-2.227 -1.053,-2.389 -1.134,-2.51 -1.174,-2.633 -1.215,-2.752 -1.275,-2.875 -1.296,-2.916 -1.315,-2.955 -1.356,-3.037 -1.356,-3.076 -1.356,-3.078 -1.377,-3.076 -1.355,-3.037 -1.356,-3.035 -1.316,-2.996 -1.295,-2.916 -1.275,-2.834 -1.215,-2.754 -1.175,-2.672 -1.133,-2.51 -1.053,-2.389 -0.992,-2.227 -0.911,-2.064 -0.83,-1.863 -0.749,-1.66 -0.647,-1.477 -0.547,-1.236 -0.445,-0.971 -0.324,-0.729 -0.182,-0.445 c -0.183,-0.143 -0.345,-0.143 -0.345,-0.143 -0.202,0 -0.445,0 -0.445,0 h -0.283 -0.344 -0.385 -0.405 -0.465 -0.466 -0.526 -0.526 -0.547 -0.587 -0.587 -0.607 -0.607 -0.607 -0.627 -0.628 -0.607 -0.628 -0.587 -0.607 -0.566 -0.547 -0.546 -0.507 -0.485 -0.445 -0.426 -0.364 -0.344 -0.304 -0.243 c -0.202,0 -0.344,0 -0.344,0 -0.122,0.182 -0.122,0.688 -0.122,0.688 v 0.852 1.154 1.436 1.721 1.943 2.188 2.43 2.631 2.793 2.916 3.117 3.24 3.318 3.441 3.482 3.562 3.562 3.604 3.604 3.604 3.523 3.521 3.402 3.359 3.199 3.117 2.955 2.793 2.592 2.43 2.186 1.984 1.701 1.457 1.133 0.852 0.525 c 0.183,0.162 0.304,0.162 0.304,0.162 0.162,0 0.365,0 0.365,0 h 0.202 0.263 0.264 0.283 0.324 0.323 0.345 0.364 0.385 0.385 0.384 0.405 0.405 0.384 0.405 0.405 0.404 0.385 0.385 0.385 0.364 0.344 0.324 0.324 0.283 0.263 0.264 0.202 c 0.203,0 0.364,0 0.364,0 0.122,0 0.223,0 0.223,0 0.081,-0.162 0.081,-0.607 0.081,-0.607 v -0.729 -0.971 -1.256 -1.457 -1.701 -1.902 -2.064 -2.268 -2.389 -2.551 -2.672 -2.795 -2.875 -2.955 -2.996 -3.076 -3.077 -3.117 -3.117 -3.078 -3.076 -2.996 -2.955 -2.875 -2.793 -2.674 -2.551 -2.389 -2.266 -2.066 -1.902 -1.701 -1.457 -1.254 -0.973 -0.729 -0.445 c 0.061,0 0.264,0.445 0.264,0.445 l 0.323,0.729 0.446,0.973 0.566,1.254 0.668,1.457 0.749,1.701 0.851,1.902 0.951,2.066 1.012,2.266 1.073,2.389 1.154,2.551 1.194,2.674 1.255,2.793 1.296,2.875 1.336,2.955 1.336,2.996 1.396,3.076 1.377,3.078 1.396,3.117 1.397,3.117 1.396,3.078 1.377,3.076 1.355,2.996 1.337,2.955 1.295,2.875 1.235,2.795 1.215,2.672 1.133,2.551 1.094,2.389 1.012,2.268 0.932,2.064 0.85,1.902 0.77,1.701 0.668,1.457 0.547,1.256 0.445,0.971 0.344,0.729 0.183,0.445 c 0.202,0.162 0.324,0.162 0.324,0.162 0.202,0 0.425,0 0.425,0 h 0.283 0.324 0.364 0.385 0.445 0.445 0.485 0.507 0.526 0.546 0.567 0.566 0.587 0.588 0.587 0.587 0.587 0.587 0.567 0.566 0.547 0.526 0.506 0.485 0.466 0.426 0.384 0.365 0.323 0.283 0.223 c 0.203,0 0.324,0 0.324,0 0.122,-0.162 0.122,-0.688 0.122,-0.688 v -0.852 -1.133 -1.457 -1.701 -1.984 -2.186 -2.43 -2.592 -2.793 -2.955 -3.117 -3.199 -3.359 -3.402 -3.521 -3.523 -3.604 -3.604 -3.604 -3.562 -3.562 -3.482 -3.441 -3.318 -3.24 -3.117 -2.916 -2.793 -2.631 -2.43 -2.188 -1.943 -1.721 -1.436 -1.154 -0.852 -0.506 c -0.002,-0.182 -10.773,-0.182 -10.773,-0.182 z"
   stroke-miterlimit="10"
   inkscape:connector-curvature="0" />
</g><g
     style="fill:#000000;fill-opacity:1;stroke:none"
     id="LWPOLYLINE_1_">
	
		<path
   style="fill:#000000;fill-opacity:1;stroke:none"
   id="path7"
   d="m 310.561,507.842 c 0,-0.162 0,-0.283 0,-0.283 0,-0.162 0,-0.365 0,-0.365 v -0.242 -0.242 -0.244 -0.322 -0.285 -0.322 -0.365 -0.365 -0.363 -0.404 -0.365 -0.404 -0.406 -0.404 -0.404 -0.404 -0.406 -0.363 -0.406 -0.363 -0.365 -0.363 -0.324 -0.324 -0.283 -0.283 -0.244 -0.201 c 0,-0.203 0,-0.365 0,-0.365 0,-0.121 0,-0.201 0,-0.201 -0.04,-0.082 -0.242,-0.082 -0.242,-0.082 h -0.324 -0.445 -0.567 -0.688 -0.729 -0.85 -0.972 -1.013 -1.053 -1.174 -1.174 -1.256 -1.295 -1.336 -1.377 -1.377 -1.376 -1.377 -1.417 -1.377 -1.376 -1.377 -1.315 -1.296 -1.255 -1.194 -1.154 -1.072 -1.013 -0.951 -0.851 -0.749 -0.668 -0.566 -0.445 -0.324 c -0.202,0 -0.264,0 -0.264,0 0,-0.08 0,-0.242 0,-0.242 v -0.283 -0.406 -0.484 -0.607 -0.689 -0.729 -0.85 -0.891 -0.973 -1.012 -1.094 -1.092 -1.135 -1.215 -1.174 -1.256 -1.213 -1.256 -1.256 -1.215 -1.213 -1.215 -1.18 -1.176 -1.092 -1.053 -1.053 -0.932 -0.932 -0.809 -0.77 -0.689 -0.566 -0.486 -0.404 -0.283 c 0,-0.203 0,-0.242 0,-0.242 0.062,0 0.243,0 0.243,0 h 0.283 0.426 0.506 0.607 0.688 0.769 0.851 0.932 0.991 1.033 1.093 1.154 1.174 1.215 1.234 1.255 1.256 1.295 1.255 1.256 1.255 1.255 1.215 1.174 1.134 1.094 1.052 0.973 0.931 0.851 0.769 0.688 0.607 0.526 0.405 0.283 c 0.202,0 0.243,0 0.243,0 0,-0.203 0,-0.324 0,-0.324 0,-0.162 0,-0.365 0,-0.365 v -0.201 -0.244 -0.283 -0.283 -0.324 -0.324 -0.324 -0.363 -0.404 -0.365 -0.404 -0.406 -0.404 -0.404 -0.404 -0.365 -0.404 -0.406 -0.363 -0.406 -0.363 -0.324 -0.324 -0.324 -0.283 -0.283 -0.242 -0.203 c 0,-0.201 0,-0.363 0,-0.363 0,-0.123 0,-0.244 0,-0.244 -0.041,-0.08 -0.243,-0.08 -0.243,-0.08 h -0.283 -0.405 -0.526 -0.607 -0.688 -0.769 -0.851 -0.931 -0.973 -1.052 -1.094 -1.134 -1.174 -1.215 -1.255 -1.255 -1.256 -1.255 -1.295 -1.256 -1.255 -1.234 -1.215 -1.174 -1.154 -1.093 -1.033 -0.991 -0.932 -0.851 -0.769 -0.688 -0.607 -0.506 -0.426 -0.283 c -0.182,0 -0.243,0 -0.243,0 0,-0.041 0,-0.203 0,-0.203 v -0.283 -0.365 -0.445 -0.566 -0.607 -0.688 -0.77 -0.85 -0.891 -0.932 -1.012 -1.014 -1.053 -1.092 -1.135 -1.133 -1.135 -1.174 -1.133 -1.135 -1.133 -1.133 -1.094 -1.053 -1.012 -1.014 -0.93 -0.891 -0.852 -0.77 -0.688 -0.607 -0.566 -0.445 -0.365 -0.283 c 0,-0.162 0,-0.203 0,-0.203 0.062,0 0.264,0 0.264,0 h 0.304 0.445 0.547 0.647 0.749 0.83 0.911 0.991 1.073 1.113 1.175 1.214 1.275 1.296 1.336 1.336 1.377 1.336 1.377 1.376 1.336 1.337 1.295 1.255 1.215 1.175 1.133 1.053 1.013 0.891 0.851 0.729 0.647 0.567 0.404 0.324 c 0.202,0 0.283,0 0.283,0 0,-0.201 0,-0.322 0,-0.322 0,-0.162 0,-0.365 0,-0.365 v -0.203 -0.242 -0.283 -0.283 -0.324 -0.324 -0.324 -0.363 -0.406 -0.363 -0.404 -0.406 -0.404 -0.404 -0.406 -0.363 -0.404 -0.406 -0.385 -0.363 -0.365 -0.344 -0.344 -0.305 -0.303 -0.264 -0.242 -0.223 c 0,-0.184 0,-0.344 0,-0.344 0,-0.143 0,-0.223 0,-0.223 -0.081,-0.082 -0.364,-0.082 -0.364,-0.082 h -0.405 -0.566 -0.729 -0.851 -0.972 -1.134 -1.174 -1.336 -1.377 -1.498 -1.538 -1.62 -1.66 -1.7 -1.741 -1.781 -1.821 -1.782 -1.802 -1.801 -1.762 -1.761 -1.701 -1.66 -1.619 -1.559 -1.478 -1.397 -1.295 -1.215 -1.094 -0.991 -0.851 -0.708 -0.588 -0.425 -0.243 c -0.101,0.182 -0.101,0.688 -0.101,0.688 v 0.852 1.154 1.436 1.721 1.943 2.188 2.43 2.631 2.793 2.916 3.117 3.24 3.318 3.441 3.482 3.562 3.562 3.604 3.604 3.604 3.523 3.521 3.402 3.359 3.199 3.117 2.955 2.793 2.592 2.43 2.186 1.984 1.701 1.457 1.133 0.852 0.525 c 0,0.158 48.909,0.158 48.909,0.158 z"
   stroke-miterlimit="10"
   inkscape:connector-curvature="0" />
</g><g
     style="fill:#000000;fill-opacity:1;stroke:none"
     id="LWPOLYLINE_2_">
	
		<path
   style="fill:#000000;fill-opacity:1;stroke:none"
   id="path10"
   d="m 356.19,458.084 c 0.04,-0.082 0.162,-0.324 0.162,-0.324 l 0.242,-0.406 0.324,-0.566 0.364,-0.688 0.445,-0.811 0.526,-0.971 0.607,-1.053 0.647,-1.174 0.688,-1.256 0.729,-1.336 0.81,-1.457 0.81,-1.459 0.891,-1.578 0.891,-1.619 0.891,-1.621 0.932,-1.699 0.972,-1.701 0.931,-1.74 0.972,-1.742 0.972,-1.74 0.972,-1.74 0.932,-1.701 0.932,-1.701 0.931,-1.658 0.891,-1.621 0.851,-1.537 0.85,-1.498 0.77,-1.418 0.729,-1.336 0.729,-1.295 0.647,-1.135 0.566,-1.072 0.526,-0.951 0.446,-0.83 0.404,-0.689 0.324,-0.545 0.202,-0.426 0.121,-0.242 c -0.161,-0.082 -0.323,-0.082 -0.323,-0.082 -0.162,0 -0.405,0 -0.405,0 h -0.283 -0.283 -0.364 -0.365 -0.364 -0.404 -0.445 -0.445 -0.445 -0.486 -0.485 -0.486 -0.485 -0.486 -0.485 -0.526 -0.486 -0.485 -0.445 -0.486 -0.445 -0.405 -0.404 -0.405 -0.364 -0.324 -0.283 -0.283 -0.243 c -0.202,0 -0.364,0 -0.364,0 -0.162,0 -0.202,0 -0.202,0 -0.041,0.061 -0.162,0.264 -0.162,0.264 l -0.162,0.324 -0.243,0.445 -0.283,0.566 -0.364,0.668 -0.416,0.747 -0.445,0.852 -0.485,0.932 -0.567,1.012 -0.566,1.092 -0.607,1.135 -0.647,1.215 -0.648,1.254 -0.729,1.297 -0.688,1.336 -0.729,1.336 -0.729,1.377 -0.729,1.416 -0.77,1.377 -0.729,1.418 -0.729,1.375 -0.769,1.377 -0.688,1.377 -0.729,1.295 -0.688,1.297 -0.688,1.254 -0.607,1.215 -0.607,1.135 -0.607,1.092 -0.526,1.014 -0.485,0.93 -0.486,0.852 -0.404,0.77 -0.324,0.646 -0.324,0.566 -0.242,0.445 -0.162,0.324 c -0.122,0.203 -0.162,0.283 -0.162,0.283 0,-0.08 -0.122,-0.283 -0.122,-0.283 l -0.161,-0.324 -0.243,-0.445 -0.283,-0.566 -0.324,-0.646 -0.405,-0.77 -0.404,-0.852 -0.486,-0.93 -0.526,-1.014 -0.566,-1.092 -0.567,-1.135 -0.606,-1.215 -0.648,-1.254 -0.688,-1.297 -0.647,-1.295 -0.688,-1.377 -0.729,-1.377 -0.688,-1.375 -0.729,-1.418 -0.729,-1.377 -0.688,-1.416 -0.729,-1.377 -0.688,-1.336 -0.688,-1.336 -0.647,-1.297 -0.648,-1.254 -0.607,-1.215 -0.566,-1.135 -0.566,-1.092 -0.526,-1.012 -0.486,-0.932 -0.405,-0.852 -0.404,-0.748 -0.324,-0.668 -0.283,-0.566 -0.243,-0.445 -0.162,-0.324 c -0.121,-0.203 -0.161,-0.264 -0.161,-0.264 -0.081,0 -0.203,0 -0.203,0 -0.162,0 -0.404,0 -0.404,0 h -0.243 -0.283 -0.324 -0.364 -0.364 -0.405 -0.445 -0.445 -0.485 -0.486 -0.485 -0.526 -0.526 -0.526 -0.526 -0.526 -0.526 -0.526 -0.486 -0.526 -0.485 -0.445 -0.486 -0.404 -0.405 -0.405 -0.323 -0.324 -0.324 -0.242 -0.203 c -0.161,0 -0.283,0 -0.283,0 -0.081,0.082 0.081,0.324 0.081,0.324 l 0.202,0.426 0.324,0.545 0.405,0.689 0.445,0.83 0.526,0.951 0.566,1.072 0.647,1.135 0.688,1.295 0.77,1.336 0.77,1.418 0.85,1.498 0.851,1.537 0.891,1.621 0.908,1.658 0.931,1.701 0.932,1.701 0.972,1.74 0.972,1.74 0.931,1.742 0.972,1.74 0.972,1.701 0.932,1.699 0.891,1.621 0.891,1.619 0.891,1.578 0.81,1.459 0.811,1.457 0.729,1.336 0.688,1.256 0.647,1.174 0.607,1.053 0.526,0.971 0.445,0.811 0.364,0.688 0.324,0.566 0.243,0.406 0.121,0.242 c 0,0.162 -0.162,0.445 -0.162,0.445 l -0.202,0.445 -0.324,0.607 -0.405,0.729 -0.485,0.891 -0.526,1.012 -0.607,1.135 -0.647,1.256 -0.729,1.336 -0.77,1.457 -0.81,1.539 -0.851,1.578 -0.891,1.66 -0.932,1.74 -0.972,1.781 -0.931,1.783 -1.013,1.861 -0.972,1.863 -1.012,1.861 -0.972,1.863 -0.972,1.822 -1.013,1.861 -0.931,1.781 -0.972,1.781 -0.932,1.742 -0.891,1.66 -0.851,1.619 -0.81,1.498 -0.77,1.457 -0.729,1.336 -0.647,1.256 -0.607,1.133 -0.526,1.012 -0.486,0.893 -0.404,0.768 -0.324,0.568 -0.202,0.445 -0.162,0.283 c 0.162,0.08 0.283,0.08 0.283,0.08 0.203,0 0.405,0 0.405,0 h 0.283 0.283 0.284 0.364 0.364 0.364 0.404 0.405 0.445 0.445 0.445 0.445 0.486 0.445 0.485 0.445 0.486 0.445 0.445 0.405 0.445 0.404 0.364 0.365 0.323 0.324 0.283 0.243 0.243 c 0.161,0 0.323,0 0.323,0 0.203,0 0.243,-0.08 0.243,-0.08 l 0.121,-0.203 0.162,-0.365 0.243,-0.525 0.324,-0.607 0.364,-0.729 0.445,-0.85 0.445,-0.932 0.526,-1.053 0.566,-1.135 0.607,-1.213 0.648,-1.256 0.647,-1.336 0.688,-1.377 0.729,-1.457 0.729,-1.457 0.77,-1.539 0.77,-1.498 0.769,-1.58 0.77,-1.537 0.77,-1.539 0.77,-1.58 0.769,-1.498 0.77,-1.498 0.729,-1.498 0.729,-1.416 0.688,-1.418 0.648,-1.336 0.647,-1.254 0.607,-1.215 0.566,-1.135 0.526,-1.012 0.445,-0.971 0.445,-0.852 0.365,-0.729 0.323,-0.607 0.243,-0.525 0.162,-0.365 0.121,-0.201 c 0.081,0 0.202,0.201 0.202,0.201 l 0.203,0.365 0.243,0.525 0.364,0.607 0.404,0.729 0.445,0.852 0.526,0.971 0.526,1.012 0.607,1.135 0.647,1.215 0.688,1.254 0.729,1.336 0.769,1.418 0.77,1.416 0.81,1.498 0.81,1.498 0.811,1.498 0.85,1.58 0.81,1.539 0.851,1.537 0.851,1.58 0.81,1.498 0.81,1.539 0.81,1.457 0.77,1.457 0.77,1.377 0.729,1.336 0.647,1.256 0.688,1.213 0.607,1.135 0.526,1.053 0.526,0.932 0.445,0.85 0.405,0.729 0.323,0.607 0.283,0.525 0.203,0.365 0.121,0.203 c 0.162,0.08 0.283,0.08 0.283,0.08 0.162,0 0.364,0 0.364,0 h 0.243 0.283 0.324 0.364 0.364 0.405 0.445 0.445 0.486 0.485 0.526 0.486 0.526 0.526 0.525 0.526 0.526 0.526 0.526 0.486 0.485 0.486 0.445 0.445 0.405 0.364 0.364 0.324 0.283 0.242 0.203 c 0.202,0 0.323,0 0.323,0 0.104,0.004 -28.075,-49.754 -28.075,-49.754 z"
   stroke-miterlimit="10"
   inkscape:connector-curvature="0" />
</g><g
     style="fill:#000000;fill-opacity:1;stroke:none"
     id="LWPOLYLINE_3_">
	
		<path
   style="fill:#000000;fill-opacity:1;stroke:none"
   id="path13"
   d="m 386.029,411.664 c 0,0.162 0,0.305 0,0.305 0,0.16 0,0.344 0,0.344 v 0.223 0.242 0.264 0.303 0.305 0.344 0.344 0.365 0.363 0.385 0.406 0.404 0.363 0.406 0.404 0.404 0.406 0.404 0.363 0.406 0.363 0.324 0.324 0.324 0.283 0.283 0.242 0.203 c 0,0.203 0,0.365 0,0.365 0,0.121 0,0.242 0,0.242 0.202,0.08 0.405,0.08 0.405,0.08 h 0.283 0.364 0.445 0.526 0.567 0.606 0.688 0.729 0.769 0.81 0.811 0.85 0.891 0.932 0.891 0.932 0.931 0.932 0.931 0.932 0.891 0.891 0.851 0.85 0.811 0.769 0.688 0.688 0.647 0.567 0.485 0.445 0.364 0.324 0.202 c 0.162,0.162 0.162,0.607 0.162,0.607 v 0.73 1.053 1.254 1.539 1.74 1.943 2.146 2.309 2.469 2.631 2.754 2.875 2.955 3.037 3.117 3.158 3.158 3.197 3.199 3.199 3.158 3.117 3.037 2.955 2.834 2.752 2.633 2.469 2.35 2.145 1.943 1.742 1.498 1.295 1.012 0.77 0.445 c 0.202,0.162 0.364,0.162 0.364,0.162 0.203,0 0.405,0 0.405,0 h 0.243 0.283 0.323 0.324 0.364 0.405 0.404 0.405 0.445 0.445 0.445 0.445 0.486 0.445 0.485 0.445 0.445 0.486 0.405 0.445 0.404 0.405 0.404 0.365 0.323 0.324 0.283 0.243 0.202 c 0.202,0 0.364,0 0.364,0 0.203,-0.162 0.203,-0.607 0.203,-0.607 v -0.77 -1.012 -1.295 -1.498 -1.742 -1.943 -2.145 -2.35 -2.469 -2.633 -2.752 -2.834 -2.955 -3.037 -3.117 -3.158 -3.199 -3.199 -3.197 -3.158 -3.158 -3.117 -3.037 -2.955 -2.875 -2.754 -2.631 -2.469 -2.309 -2.146 -1.943 -1.74 -1.539 -1.254 -1.053 -0.73 -0.445 c 0.161,-0.162 0.364,-0.162 0.364,-0.162 h 0.283 0.364 0.445 0.486 0.526 0.606 0.648 0.729 0.729 0.77 0.81 0.851 0.851 0.85 0.891 0.891 0.932 0.891 0.891 0.891 0.891 0.851 0.81 0.81 0.77 0.77 0.688 0.647 0.607 0.526 0.526 0.404 0.364 0.284 0.202 c 0.202,-0.201 0.202,-0.322 0.202,-0.322 0,-0.162 0,-0.365 0,-0.365 v -0.203 -0.242 -0.283 -0.283 -0.324 -0.324 -0.324 -0.363 -0.406 -0.363 -0.404 -0.406 -0.404 -0.404 -0.406 -0.363 -0.404 -0.406 -0.385 -0.363 -0.365 -0.344 -0.344 -0.305 -0.303 -0.264 -0.242 -0.223 c 0,-0.184 0,-0.344 0,-0.344 0,-0.143 0,-0.223 0,-0.223 0.006,-0.082 -61.373,-0.082 -61.373,-0.082 z"
   stroke-miterlimit="10"
   inkscape:connector-curvature="0" />
</g><g
     style="fill:#000000;fill-opacity:1;stroke:none"
     id="LWPOLYLINE_4_">
	
		<path
   style="fill:#000000;fill-opacity:1;stroke:none"
   id="path16"
   d="m 77.576,643.84 c 0.101,0 0.223,0 0.223,0 0.182,0 0.384,0 0.384,0 h 0.243 0.304 0.304 0.364 0.385 0.405 0.425 0.466 0.466 0.485 0.506 0.507 0.525 0.526 0.526 0.526 0.526 0.526 0.507 0.506 0.485 0.466 0.466 0.425 0.426 0.384 0.345 0.323 0.284 0.242 0.223 c 0.162,0 0.284,0 0.284,0 0.142,-0.162 0.242,-0.607 0.242,-0.607 l 0.162,-0.729 0.243,-1.012 0.283,-1.256 0.345,-1.498 0.384,-1.701 0.426,-1.902 0.485,-2.105 0.526,-2.268 0.547,-2.469 0.587,-2.551 0.607,-2.713 0.647,-2.795 0.648,-2.914 0.688,-2.955 0.688,-3.078 0.709,-3.076 0.708,-3.117 0.709,-3.119 0.729,-3.156 0.709,-3.119 0.708,-3.076 0.688,-3.078 0.668,-2.955 0.668,-2.914 0.648,-2.795 0.606,-2.713 0.588,-2.551 0.546,-2.469 0.526,-2.268 0.466,-2.105 0.445,-1.902 0.385,-1.701 0.344,-1.498 0.284,-1.254 0.223,-1.014 0.182,-0.729 0.102,-0.445 c 0.061,0 0.162,0.445 0.162,0.445 l 0.162,0.729 0.223,1.014 0.263,1.254 0.324,1.498 0.385,1.701 0.404,1.902 0.466,2.105 0.485,2.268 0.526,2.469 0.567,2.551 0.587,2.713 0.607,2.795 0.647,2.914 0.648,2.955 0.647,3.078 0.688,3.076 0.668,3.119 0.688,3.156 0.688,3.119 0.669,3.117 0.688,3.076 0.648,3.078 0.647,2.955 0.647,2.914 0.607,2.795 0.587,2.713 0.567,2.551 0.526,2.469 0.485,2.268 0.466,2.105 0.405,1.902 0.385,1.701 0.323,1.498 0.264,1.256 0.223,1.012 0.162,0.729 0.101,0.445 c 0.142,0.162 0.264,0.162 0.264,0.162 0.162,0 0.364,0 0.364,0 h 0.263 0.284 0.323 0.345 0.384 0.426 0.425 0.445 0.486 0.485 0.506 0.507 0.526 0.526 0.526 0.526 0.526 0.506 0.526 0.506 0.485 0.466 0.445 0.445 0.405 0.385 0.344 0.324 0.304 0.243 0.202 c 0.182,0 0.304,0 0.304,0 0.142,-0.203 0.283,-0.689 0.283,-0.689 l 0.223,-0.85 0.283,-1.174 0.385,-1.418 0.445,-1.74 0.506,-1.943 0.567,-2.186 0.627,-2.43 0.669,-2.592 0.729,-2.793 0.749,-2.955 0.81,-3.119 0.83,-3.238 0.87,-3.32 0.871,-3.4 0.91,-3.523 0.911,-3.521 0.932,-3.604 0.931,-3.604 0.932,-3.604 0.932,-3.604 0.91,-3.521 0.911,-3.523 0.891,-3.4 0.851,-3.361 0.851,-3.197 0.789,-3.117 0.77,-2.957 0.729,-2.793 0.668,-2.592 0.628,-2.428 0.566,-2.188 0.506,-1.984 0.445,-1.699 0.365,-1.418 0.304,-1.174 0.223,-0.85 0.121,-0.527 c -0.142,-0.162 -0.304,-0.162 -0.304,-0.162 -0.183,0 -0.405,0 -0.405,0 h -0.242 -0.284 -0.323 -0.324 -0.364 -0.385 -0.405 -0.404 -0.445 -0.445 -0.445 -0.466 -0.445 -0.486 -0.465 -0.445 -0.466 -0.445 -0.445 -0.445 -0.405 -0.405 -0.384 -0.365 -0.323 -0.324 -0.283 -0.243 -0.223 c -0.202,0 -0.344,0 -0.344,0 -0.203,0 -0.223,0.162 -0.223,0.162 l -0.122,0.445 -0.162,0.729 -0.223,0.973 -0.283,1.256 -0.344,1.457 -0.385,1.699 -0.445,1.904 -0.466,2.064 -0.526,2.268 -0.547,2.43 -0.587,2.51 -0.627,2.672 -0.628,2.793 -0.668,2.875 -0.668,2.955 -0.709,2.996 -0.688,3.078 -0.709,3.076 -0.729,3.117 -0.709,3.119 -0.708,3.076 -0.709,3.078 -0.688,2.996 -0.688,2.955 -0.648,2.875 -0.647,2.793 -0.607,2.672 -0.587,2.551 -0.567,2.389 -0.506,2.268 -0.485,2.064 -0.426,1.902 -0.404,1.701 -0.324,1.457 -0.283,1.256 -0.243,0.971 -0.162,0.73 -0.101,0.445 c -0.062,0 -0.162,-0.445 -0.162,-0.445 l -0.142,-0.73 -0.203,-0.971 -0.242,-1.256 -0.304,-1.457 -0.324,-1.701 -0.385,-1.902 -0.425,-2.064 -0.445,-2.268 -0.486,-2.389 -0.506,-2.551 -0.526,-2.672 -0.566,-2.793 -0.567,-2.875 -0.587,-2.955 -0.607,-2.996 -0.607,-3.078 -0.627,-3.076 -0.607,-3.119 -0.628,-3.117 -0.627,-3.076 -0.607,-3.078 -0.607,-2.996 -0.587,-2.955 -0.567,-2.875 -0.566,-2.793 -0.526,-2.672 -0.506,-2.51 -0.486,-2.43 -0.445,-2.268 -0.425,-2.064 -0.385,-1.904 -0.324,-1.699 -0.304,-1.457 -0.243,-1.256 -0.202,-0.973 -0.142,-0.729 -0.081,-0.445 c -0.162,-0.162 -0.283,-0.162 -0.283,-0.162 -0.202,0 -0.425,0 -0.425,0 h -0.284 -0.323 -0.364 -0.385 -0.445 -0.445 -0.486 -0.506 -0.526 -0.547 -0.566 -0.567 -0.587 -0.587 -0.587 -0.587 -0.587 -0.588 -0.566 -0.567 -0.546 -0.526 -0.506 -0.486 -0.466 -0.425 -0.385 -0.364 -0.324 -0.283 -0.223 c -0.202,0 -0.344,0 -0.344,0 -0.142,0.162 -0.243,0.607 -0.243,0.607 l -0.162,0.729 -0.243,0.973 -0.283,1.256 -0.324,1.457 -0.404,1.699 -0.425,1.904 -0.486,2.064 -0.506,2.268 -0.567,2.43 -0.587,2.51 -0.607,2.672 -0.647,2.793 -0.647,2.875 -0.688,2.955 -0.688,2.996 -0.709,3.078 -0.708,3.076 -0.719,3.116 -0.729,3.119 -0.708,3.076 -0.688,3.078 -0.709,2.996 -0.668,2.955 -0.668,2.875 -0.628,2.793 -0.627,2.672 -0.587,2.551 -0.547,2.389 -0.526,2.268 -0.466,2.064 -0.445,1.902 -0.385,1.701 -0.344,1.457 -0.283,1.256 -0.223,0.971 -0.183,0.73 -0.102,0.445 c -0.061,0 -0.161,-0.445 -0.161,-0.445 l -0.142,-0.73 -0.203,-0.971 -0.263,-1.256 -0.324,-1.457 -0.344,-1.701 -0.405,-1.902 -0.425,-2.064 -0.486,-2.268 -0.506,-2.389 -0.526,-2.551 -0.566,-2.672 -0.588,-2.793 -0.587,-2.875 -0.627,-2.955 -0.628,-2.996 -0.647,-3.078 -0.648,-3.076 -0.647,-3.119 -0.668,-3.117 -0.647,-3.076 -0.628,-3.078 -0.647,-2.996 -0.607,-2.955 -0.607,-2.875 -0.587,-2.793 -0.567,-2.672 -0.526,-2.51 -0.506,-2.43 -0.466,-2.268 -0.445,-2.064 -0.404,-1.904 -0.345,-1.699 -0.323,-1.457 -0.243,-1.256 -0.223,-0.973 -0.142,-0.729 -0.102,-0.445 c -0.121,-0.162 -0.223,-0.162 -0.223,-0.162 -0.162,0 -0.344,0 -0.344,0 H 66.868 66.625 66.342 66.018 65.694 65.33 64.945 64.541 64.115 63.69 63.245 62.8 62.334 61.868 61.403 60.937 60.47 60.025 59.559 59.134 58.689 58.284 57.88 57.495 57.13 56.785 56.481 56.198 55.935 55.732 c -0.202,0 -0.344,0 -0.344,0 -0.201,0 22.188,96.199 22.188,96.199 z"
   stroke-miterlimit="10"
   inkscape:connector-curvature="0" />
</g><g
     style="fill:#000000;fill-opacity:1;stroke:none"
     id="LWPOLYLINE_5_">
	
		<path
   style="fill:#000000;fill-opacity:1;stroke:none"
   id="path19"
   d="m 192.823,547.641 c -0.183,0 -0.324,0 -0.324,0 -0.161,0 -0.364,0 -0.364,0 h -0.243 -0.263 -0.304 -0.304 -0.344 -0.345 -0.385 -0.384 -0.405 -0.405 -0.425 -0.425 -0.445 -0.426 -0.445 -0.425 -0.425 -0.426 -0.425 -0.385 -0.404 -0.365 -0.364 -0.323 -0.324 -0.283 -0.264 -0.242 c -0.203,0 -0.385,0 -0.385,0 -0.142,0 -0.243,0 -0.243,0 -0.081,0.162 -0.081,0.689 -0.081,0.689 v 0.85 1.174 1.418 1.699 1.984 2.188 2.428 2.592 2.793 2.957 3.117 3.197 3.361 3.4 3.523 3.521 3.604 3.604 3.604 3.604 3.521 3.523 3.4 3.32 3.238 3.119 2.955 2.793 2.592 2.43 2.186 1.943 1.74 1.418 1.174 0.85 0.486 c 0.183,0.203 0.324,0.203 0.324,0.203 0.182,0 0.385,0 0.385,0 h 0.242 0.264 0.283 0.324 0.323 0.364 0.365 0.404 0.385 0.425 0.426 0.425 0.425 0.445 0.426 0.445 0.425 0.425 0.405 0.405 0.384 0.385 0.345 0.344 0.304 0.304 0.263 0.243 c 0.203,0 0.364,0 0.364,0 0.142,0 0.243,0 0.243,0 0.081,10e-4 0.081,-96.198 0.081,-96.198 z"
   stroke-miterlimit="10"
   inkscape:connector-curvature="0" />
</g><g
     style="fill:#000000;fill-opacity:1;stroke:none"
     id="LWPOLYLINE_6_">
	
		<path
   style="fill:#000000;fill-opacity:1;stroke:none"
   id="path22"
   d="m 265.802,547.641 c 0,0.162 0,0.607 0,0.607 v 0.729 0.973 1.215 1.457 1.701 1.861 2.066 2.227 2.389 2.51 2.631 2.754 2.875 2.914 2.957 3.035 3.078 3.076 3.078 3.035 3.037 2.996 2.916 2.834 2.752 2.672 2.512 2.389 2.227 2.064 1.863 1.658 1.459 1.254 0.973 0.729 0.445 c -0.061,0 -0.263,-0.445 -0.263,-0.445 l -0.324,-0.729 -0.445,-0.973 -0.526,-1.254 -0.647,-1.459 -0.749,-1.658 -0.83,-1.863 -0.932,-2.064 -0.992,-2.227 -1.052,-2.389 -1.114,-2.512 -1.174,-2.672 -1.234,-2.752 -1.256,-2.834 -1.295,-2.916 -1.337,-2.996 -1.336,-3.037 -1.376,-3.035 -1.356,-3.078 -1.377,-3.076 -1.356,-3.078 -1.336,-3.035 -1.336,-2.957 -1.296,-2.914 -1.275,-2.875 -1.214,-2.754 -1.175,-2.631 -1.113,-2.51 -1.073,-2.389 -0.991,-2.227 -0.911,-2.066 -0.83,-1.861 -0.749,-1.701 -0.647,-1.457 -0.547,-1.215 -0.425,-0.973 -0.324,-0.729 -0.202,-0.445 c -0.183,-0.162 -0.324,-0.162 -0.324,-0.162 -0.202,0 -0.445,0 -0.445,0 h -0.304 -0.344 -0.365 -0.425 -0.445 -0.485 -0.507 -0.546 -0.547 -0.566 -0.607 -0.588 -0.627 -0.607 -0.628 -0.627 -0.607 -0.607 -0.607 -0.587 -0.587 -0.547 -0.547 -0.511 -0.466 -0.465 -0.405 -0.385 -0.344 -0.284 -0.263 c -0.183,0 -0.344,0 -0.344,0 -0.102,0.162 -0.102,0.689 -0.102,0.689 v 0.85 1.174 1.418 1.699 1.984 2.188 2.428 2.592 2.793 2.957 3.117 3.197 3.361 3.4 3.523 3.521 3.604 3.604 3.604 3.604 3.521 3.523 3.4 3.32 3.238 3.119 2.955 2.793 2.592 2.43 2.186 1.943 1.74 1.418 1.174 0.85 0.486 c 0.162,0.203 0.283,0.203 0.283,0.203 0.162,0 0.364,0 0.364,0 h 0.223 0.243 0.264 0.304 0.303 0.345 0.344 0.364 0.365 0.384 0.385 0.405 0.404 0.405 0.405 0.404 0.385 0.405 0.385 0.364 0.364 0.344 0.324 0.324 0.283 0.283 0.243 0.223 c 0.182,0 0.344,0 0.344,0 0.122,0 0.223,0 0.223,0 0.081,-0.162 0.081,-0.607 0.081,-0.607 v -0.729 -1.012 -1.215 -1.498 -1.66 -1.904 -2.104 -2.229 -2.428 -2.551 -2.674 -2.752 -2.875 -2.955 -3.037 -3.037 -3.117 -3.076 -3.117 -3.078 -3.076 -2.996 -2.957 -2.873 -2.795 -2.672 -2.551 -2.389 -2.268 -2.064 -1.902 -1.701 -1.457 -1.256 -0.971 -0.729 -0.445 c 0.061,0 0.264,0.445 0.264,0.445 l 0.344,0.729 0.445,0.971 0.547,1.256 0.668,1.457 0.77,1.701 0.85,1.902 0.932,2.064 1.012,2.268 1.094,2.389 1.133,2.551 1.215,2.672 1.235,2.795 1.295,2.873 1.337,2.957 1.355,2.996 1.377,3.076 1.396,3.078 1.397,3.117 1.396,3.076 1.377,3.117 1.376,3.037 1.356,3.037 1.336,2.955 1.296,2.875 1.255,2.752 1.194,2.674 1.154,2.551 1.073,2.428 1.012,2.229 0.951,2.104 0.851,1.904 0.749,1.66 0.668,1.498 0.567,1.215 0.445,1.012 0.323,0.729 0.203,0.445 c 0.182,0.162 0.323,0.162 0.323,0.162 0.183,0 0.426,0 0.426,0 h 0.263 0.324 0.364 0.404 0.426 0.445 0.485 0.507 0.525 0.547 0.567 0.566 0.587 0.587 0.588 0.606 0.567 0.587 0.587 0.547 0.547 0.526 0.506 0.485 0.466 0.425 0.385 0.364 0.324 0.283 0.243 c 0.183,0 0.324,0 0.324,0 0.101,-0.203 0.101,-0.689 0.101,-0.689 v -0.85 -1.174 -1.418 -1.74 -1.943 -2.186 -2.43 -2.592 -2.793 -2.955 -3.119 -3.238 -3.32 -3.4 -3.523 -3.521 -3.604 -3.604 -3.604 -3.604 -3.521 -3.523 -3.4 -3.361 -3.197 -3.117 -2.957 -2.793 -2.592 -2.428 -2.188 -1.984 -1.699 -1.418 -1.174 -0.85 -0.527 c 0.005,-0.162 -10.764,-0.162 -10.764,-0.162 z"
   stroke-miterlimit="10"
   inkscape:connector-curvature="0" />
</g><g
     style="fill:#000000;fill-opacity:1;stroke:none"
     id="LWPOLYLINE_9_">
	
		<path
   id="path31"
   d="m 404.28125,545.96875 -1.5,0.0625 -1.40625,0.0312 -1.40625,0.125 -1.34375,0.15625 -1.34375,0.15625 -1.28125,0.25 -1.28125,0.28125 -1.1875,0.3125 -1.1875,0.375 -1.125,0.375 -1.09375,0.4375 -1.0625,0.4688 -1.0625,0.5 -0.96875,0.5625 -0.96875,0.625 -0.875,0.59375 -0.90625,0.6875 -0.84375,0.6875 -0.78125,0.71875 -0.75,0.78125 -0.75,0.8125 -0.6875,0.84375 -0.625,0.90625 -0.65625,0.90625 -0.5625,0.9375 -0.53125,0.96875 -0.53125,1.0625 -0.4375,1 -0.4375,1.09375 -0.40625,1.15625 -0.34375,1.125 -0.3125,1.1875 -0.28125,1.1875 -0.25,1.28125 -0.1875,1.25 -0.1875,1.28125 -0.0937,1.34375 -0.125,1.375 -0.0625,1.375 -0.0312,1.40625 0,0.25 0,0.25 0,0.40625 0,0.4375 0,0.5625 0,0.65625 0,0.71875 0,0.78125 0,0.84375 0,0.9375 0,0.96875 0,1 0,1.0625 0,1.09375 0,1.125 0,1.15625 0,1.15625 0,1.1875 0,1.15625 0,1.1875 0,1.1875 0,1.15625 0,1.125 0,1.15625 0,1.09375 0,1.03125 0,1.03125 0,0.96875 0,0.9375 0,0.84375 0,0.78125 0,0.71875 0,0.65625 0,0.5625 0,0.4375 0,0.40625 0,0.25 0,0.25 0.0312,1.96875 0.0625,1.90625 0.125,1.8125 0.0937,1.78125 0.1875,1.75 0.1875,1.65625 0.25,1.625 0.28125,1.5625 0.3125,1.5 0.34375,1.46875 0.40625,1.375 0.4375,1.34375 0.4375,1.28125 0.53125,1.25 0.53125,1.1875 0.5625,1.125 0.65625,1.0625 0.625,1.0625 0.6875,0.96875 0.75,0.9375 0.75,0.84375 0.78125,0.84375 0.84375,0.78125 0.90625,0.71875 0.875,0.6875 0.96875,0.65625 0.96875,0.5625 1.0625,0.5625 1.0625,0.46875 1.09375,0.46875 1.125,0.40625 1.1875,0.34375 1.1875,0.34375 1.28125,0.21875 1.28125,0.25 1.34375,0.21875 1.34375,0.125 1.40625,0.0937 1.40625,0.0625 1.5,0.0312 1.46875,-0.0312 1.46875,-0.0625 1.375,-0.0937 1.375,-0.125 1.28125,-0.21875 1.3125,-0.25 1.25,-0.21875 1.21875,-0.34375 1.15625,-0.34375 1.125,-0.40625 1.09375,-0.46875 1.09375,-0.46875 1.03125,-0.5625 0.96875,-0.5625 0.96875,-0.65625 0.90625,-0.6875 0.875,-0.71875 0.84375,-0.78125 0.8125,-0.84375 0.78125,-0.84375 0.71875,-0.9375 0.6875,-0.96875 0.65625,-1.0625 0.59375,-1.0625 0.5625,-1.125 0.59375,-1.1875 0.46875,-1.25 0.5,-1.28125 0.40625,-1.34375 0.40625,-1.375 0.34375,-1.46875 0.28125,-1.5 0.28125,-1.5625 0.25,-1.625 0.21875,-1.65625 0.1875,-1.75 0.125,-1.78125 0.0937,-1.8125 0.0312,-1.90625 0.0312,-1.96875 0,-0.25 0,-0.25 0,-0.40625 0,-0.4375 0,-0.5625 0,-0.65625 0,-0.71875 0,-0.78125 0,-0.84375 0,-0.9375 0,-0.96875 0,-1.03125 0,-1.03125 0,-1.09375 0,-1.15625 0,-1.125 0,-1.15625 0,-1.1875 0,-1.1875 0,-1.15625 0,-1.1875 0,-1.15625 0,-1.15625 0,-1.125 0,-1.09375 0,-1.0625 0,-1 0,-0.96875 0,-0.9375 0,-0.84375 0,-0.78125 0,-0.71875 0,-0.65625 0,-0.5625 0,-0.4375 0,-0.40625 0,-0.25 0,-0.25 -0.0312,-1.40625 -0.0312,-1.375 -0.0937,-1.375 -0.125,-1.34375 -0.1875,-1.28125 -0.21875,-1.25 -0.25,-1.28125 -0.28125,-1.1875 -0.28125,-1.1875 -0.34375,-1.125 -0.40625,-1.15625 -0.40625,-1.09375 -0.5,-1 -0.46875,-1.0625 -0.59375,-0.96875 -0.5625,-0.9375 -0.59375,-0.90625 -0.65625,-0.90625 -0.6875,-0.84375 -0.71875,-0.8125 -0.78125,-0.78125 -0.8125,-0.71875 -0.84375,-0.6875 -0.875,-0.6875 -0.90625,-0.59375 L 421.5,550.0625 420.53125,549.5 419.5,549 l -1.09375,-0.46875 -1.09375,-0.4375 -1.125,-0.375 -1.15625,-0.375 -1.21875,-0.3125 -1.25,-0.28125 -1.3125,-0.25 -1.28125,-0.15625 -1.375,-0.15625 -1.375,-0.125 -1.46875,-0.0312 -1.46875,-0.0625 z m -1.09375,9.96875 0.40625,0 0.375,0 0.3125,0 0.3125,0 0.375,0 0.375,0 0.4375,0.0312 0.4375,0.0625 0.4375,0.0312 0.5,0.0312 0.53125,0.0937 0.53125,0.0625 0.5,0.125 0.59375,0.125 0.5625,0.15625 0.5625,0.1875 0.5625,0.1875 0.59375,0.1875 0.59375,0.3125 0.59375,0.28125 0.5625,0.28125 0.59375,0.34375 0.59375,0.40625 0.5625,0.40625 0.5625,0.4375 0.5625,0.53125 0.53125,0.53125 0.53125,0.625 0.46875,0.625 0.5,0.65625 0.4375,0.78125 0.4375,0.75 0.40625,0.84375 0.375,0.90625 0.34375,0.9375 0.34375,1 0.25,1.0625 0.21875,1.125 0.21875,1.1875 0.15625,1.25 0.125,1.34375 0.0625,1.375 0.0625,1.4375 0,0.25 0,0.28125 0,0.375 0,0.46875 0,0.5625 0,0.71875 0,0.71875 0,0.8125 0,0.875 0,0.9375 0,0.96875 0,1.0625 0,1.09375 0,1.125 0,1.125 0,1.1875 0,1.21875 0,1.1875 0,1.1875 0,1.21875 0,1.21875 0,1.1875 0,1.15625 0,1.1875 0,1.125 0,1.0625 0,1.0625 0,1 0,0.9375 0,0.84375 0,0.84375 0,0.75 0,0.625 0,0.5625 0,0.5 0,0.40625 0,0.28125 0,0.25 -0.0625,1.5 0,1.5 -0.0625,1.40625 -0.0937,1.34375 -0.0625,1.3125 -0.125,1.28125 -0.125,1.1875 -0.15625,1.15625 -0.21875,1.125 -0.1875,1.0625 -0.25,1 -0.25,0.96875 -0.28125,0.9375 -0.28125,0.84375 -0.3125,0.84375 -0.34375,0.78125 -0.34375,0.78125 -0.375,0.6875 -0.40625,0.6875 -0.4375,0.59375 -0.4375,0.625 -0.46875,0.5 -0.46875,0.53125 -0.53125,0.5 -0.53125,0.4375 -0.5625,0.40625 -0.5625,0.375 -0.59375,0.3125 -0.625,0.3125 -0.65625,0.28125 -0.6875,0.25 -0.6875,0.21875 -0.6875,0.1875 -0.71875,0.15625 -0.78125,0.125 -0.75,0.0937 -0.78125,0.0625 -0.8125,0.0937 -0.84375,0.0312 -0.84375,0 -0.875,0 -0.8125,-0.0312 -0.8125,-0.0937 -0.8125,-0.0625 -0.78125,-0.0937 -0.75,-0.125 -0.75,-0.15625 -0.6875,-0.1875 -0.6875,-0.21875 -0.6875,-0.25 -0.59375,-0.28125 -0.65625,-0.3125 -0.59375,-0.3125 -0.5625,-0.375 -0.53125,-0.40625 -0.5625,-0.4375 -0.5,-0.5 -0.46875,-0.53125 -0.5,-0.5 -0.4375,-0.625 -0.4063,-0.59355 L 390.40625,628.75 390,628.0625 389.625,627.28125 389.3125,626.5 389,625.65625 l -0.28125,-0.84375 -0.28125,-0.9375 -0.25,-0.96875 -0.25,-1 -0.21875,-1.0625 -0.15625,-1.125 -0.15625,-1.15625 -0.15625,-1.1875 -0.125,-1.28125 -0.0625,-1.3125 -0.0937,-1.34375 -0.0312,-1.40625 -0.0625,-1.5 0,-1.5 0,-0.25 0,-0.28125 0,-0.40625 0,-0.5 0,-0.5625 0,-0.625 0,-0.75 0,-0.84375 0,-0.84375 0,-0.9375 0,-1 0,-1.0625 0,-1.0625 0,-1.125 0,-1.1875 0,-1.15625 0,-1.1875 0,-1.21875 0,-1.21875 0,-1.1875 0,-1.1875 0,-1.21875 0,-1.1875 0,-1.125 0,-1.125 0,-1.09375 0,-1.0625 0,-0.96875 0,-0.9375 0,-0.875 0,-0.8125 0,-0.71875 0,-0.71875 0,-0.5625 0,-0.46875 0,-0.375 0,-0.28125 0,-0.25 0,-1.4375 0.0937,-1.375 0.125,-1.34375 0.15625,-1.25 0.1875,-1.1875 0.25,-1.125 0.28125,-1.0625 0.28125,-1 0.375,-0.9375 0.375,-0.90625 0.40625,-0.84375 0.4375,-0.75 0.4375,-0.78125 0.5,-0.65625 0.5,-0.625 0.5,-0.625 0.5625,-0.53125 0.53125,-0.53125 0.5625,-0.4375 0.5625,-0.40625 0.625,-0.40625 0.5625,-0.34375 0.5625,-0.28125 0.59375,-0.28125 0.625,-0.3125 0.5625,-0.1875 0.5625,-0.1875 0.59375,-0.1875 0.5625,-0.15625 0.53125,-0.125 0.5625,-0.125 0.53125,-0.0625 0.5,-0.0937 0.46875,-0.0312 0.5,-0.0312 0.4375,-0.0625 0.40625,-0.0312 z"
   style="fill:#000000;fill-opacity:1;stroke:none"
   inkscape:connector-curvature="0" />
</g><g
     style="fill:#000000;fill-opacity:1;stroke:none"
     id="LWPOLYLINE_11_">
	
		<path
   style="fill:#000000;fill-opacity:1;stroke:none"
   id="path37"
   d="m 467.288,643.84 c 0.121,0 0.242,0 0.242,0 0.162,0 0.365,0 0.365,0 h 0.242 0.284 0.323 0.364 0.405 0.405 0.404 0.486 0.445 0.485 0.526 0.486 0.526 0.526 0.526 0.526 0.526 0.526 0.526 0.485 0.486 0.485 0.445 0.445 0.405 0.364 0.364 0.324 0.283 0.243 0.242 c 0.162,0 0.284,0 0.284,0 0.121,-0.162 0.242,-0.607 0.242,-0.607 l 0.162,-0.729 0.203,-1.012 0.323,-1.256 0.324,-1.498 0.404,-1.701 0.405,-1.902 0.486,-2.105 0.526,-2.268 0.566,-2.469 0.566,-2.551 0.607,-2.713 0.648,-2.795 0.647,-2.914 0.688,-2.955 0.688,-3.078 0.729,-3.076 0.688,-3.117 0.729,-3.119 0.688,-3.156 0.729,-3.119 0.688,-3.076 0.688,-3.078 0.688,-2.955 0.688,-2.914 0.607,-2.795 0.647,-2.713 0.567,-2.551 0.566,-2.469 0.526,-2.268 0.445,-2.105 0.445,-1.902 0.405,-1.701 0.324,-1.498 0.283,-1.254 0.243,-1.014 0.161,-0.729 0.081,-0.445 c 0.081,0 0.203,0.445 0.203,0.445 l 0.161,0.729 0.203,1.014 0.283,1.254 0.324,1.498 0.364,1.701 0.404,1.902 0.445,2.105 0.526,2.268 0.526,2.469 0.567,2.551 0.566,2.713 0.607,2.795 0.647,2.914 0.648,2.955 0.647,3.078 0.688,3.076 0.688,3.119 0.688,3.156 0.647,3.119 0.688,3.117 0.688,3.076 0.647,3.078 0.647,2.955 0.648,2.914 0.606,2.795 0.607,2.713 0.526,2.551 0.526,2.469 0.526,2.268 0.445,2.105 0.405,1.902 0.404,1.701 0.324,1.498 0.243,1.256 0.243,1.012 0.162,0.729 0.08,0.445 c 0.122,0.162 0.243,0.162 0.243,0.162 0.202,0 0.405,0 0.405,0 h 0.243 0.283 0.323 0.365 0.364 0.404 0.445 0.445 0.486 0.485 0.486 0.526 0.526 0.526 0.526 0.526 0.526 0.526 0.485 0.526 0.486 0.485 0.445 0.445 0.405 0.364 0.364 0.324 0.283 0.243 0.202 c 0.162,0 0.324,0 0.324,0 0.121,-0.203 0.283,-0.689 0.283,-0.689 l 0.202,-0.85 0.283,-1.174 0.365,-1.418 0.445,-1.74 0.526,-1.943 0.566,-2.186 0.607,-2.43 0.688,-2.592 0.729,-2.793 0.77,-2.955 0.81,-3.119 0.81,-3.238 0.851,-3.32 0.891,-3.4 0.931,-3.523 0.892,-3.521 0.931,-3.604 0.932,-3.604 0.931,-3.604 0.932,-3.604 0.931,-3.521 0.891,-3.523 0.892,-3.4 0.85,-3.361 0.851,-3.197 0.81,-3.117 0.77,-2.957 0.688,-2.793 0.688,-2.592 0.648,-2.428 0.566,-2.188 0.486,-1.984 0.445,-1.699 0.364,-1.418 0.323,-1.174 0.203,-0.85 0.121,-0.527 c -0.162,-0.162 -0.283,-0.162 -0.283,-0.162 -0.202,0 -0.405,0 -0.405,0 h -0.283 -0.205 -0.323 -0.364 -0.324 -0.405 -0.404 -0.405 -0.445 -0.445 -0.445 -0.445 -0.486 -0.445 -0.485 -0.445 -0.445 -0.486 -0.445 -0.404 -0.445 -0.365 -0.404 -0.364 -0.324 -0.324 -0.283 -0.243 -0.242 c -0.162,0 -0.324,0 -0.324,0 -0.202,0 -0.243,0.162 -0.243,0.162 l -0.081,0.445 -0.162,0.729 -0.242,0.973 -0.284,1.256 -0.323,1.457 -0.405,1.699 -0.445,1.904 -0.485,2.064 -0.486,2.268 -0.566,2.43 -0.607,2.51 -0.607,2.672 -0.607,2.793 -0.688,2.875 -0.688,2.955 -0.688,2.996 -0.688,3.078 -0.729,3.076 -0.688,3.117 -0.729,3.119 -0.688,3.076 -0.729,3.078 -0.688,2.996 -0.688,2.955 -0.648,2.875 -0.647,2.793 -0.607,2.672 -0.607,2.551 -0.526,2.389 -0.526,2.268 -0.485,2.064 -0.445,1.902 -0.364,1.701 -0.364,1.457 -0.284,1.256 -0.202,0.971 -0.162,0.73 -0.121,0.445 c -0.081,0 -0.162,-0.445 -0.162,-0.445 l -0.121,-0.73 -0.203,-0.971 -0.242,-1.256 -0.324,-1.457 -0.324,-1.701 -0.364,-1.902 -0.445,-2.064 -0.445,-2.268 -0.486,-2.389 -0.485,-2.551 -0.526,-2.672 -0.566,-2.793 -0.567,-2.875 -0.607,-2.955 -0.607,-2.996 -0.607,-3.078 -0.606,-3.076 -0.648,-3.119 -0.607,-3.117 -0.607,-3.076 -0.606,-3.078 -0.607,-2.996 -0.607,-2.955 -0.567,-2.875 -0.566,-2.793 -0.526,-2.672 -0.486,-2.51 -0.485,-2.43 -0.486,-2.268 -0.404,-2.064 -0.364,-1.904 -0.364,-1.699 -0.284,-1.457 -0.242,-1.256 -0.203,-0.973 -0.121,-0.729 -0.121,-0.445 c -0.122,-0.162 -0.284,-0.162 -0.284,-0.162 -0.161,0 -0.404,0 -0.404,0 h -0.283 -0.324 -0.364 -0.405 -0.404 -0.445 -0.486 -0.526 -0.526 -0.566 -0.526 -0.607 -0.567 -0.566 -0.607 -0.607 -0.566 -0.567 -0.607 -0.526 -0.566 -0.526 -0.485 -0.486 -0.485 -0.405 -0.405 -0.364 -0.323 -0.284 -0.242 c -0.162,0 -0.324,0 -0.324,0 -0.122,0.162 -0.243,0.607 -0.243,0.607 l -0.162,0.729 -0.242,0.973 -0.284,1.256 -0.323,1.457 -0.405,1.699 -0.405,1.904 -0.485,2.064 -0.526,2.268 -0.566,2.43 -0.567,2.51 -0.607,2.672 -0.647,2.793 -0.688,2.875 -0.647,2.955 -0.688,2.996 -0.729,3.078 -0.688,3.076 -0.729,3.117 -0.729,3.119 -0.688,3.076 -0.729,3.078 -0.688,2.996 -0.688,2.955 -0.648,2.875 -0.647,2.793 -0.607,2.672 -0.566,2.551 -0.567,2.389 -0.526,2.268 -0.485,2.064 -0.405,1.902 -0.404,1.701 -0.324,1.457 -0.283,1.256 -0.243,0.971 -0.162,0.73 -0.121,0.445 c -0.041,0 -0.162,-0.445 -0.162,-0.445 l -0.122,-0.73 -0.242,-0.971 -0.243,-1.256 -0.324,-1.457 -0.323,-1.701 -0.405,-1.902 -0.445,-2.064 -0.486,-2.268 -0.485,-2.389 -0.526,-2.551 -0.566,-2.672 -0.607,-2.793 -0.607,-2.875 -0.607,-2.955 -0.647,-2.996 -0.607,-3.078 -0.648,-3.076 -0.688,-3.119 -0.648,-3.117 -0.647,-3.076 -0.648,-3.078 -0.606,-2.996 -0.648,-2.955 -0.566,-2.875 -0.607,-2.793 -0.567,-2.672 -0.525,-2.51 -0.486,-2.43 -0.486,-2.268 -0.445,-2.064 -0.404,-1.904 -0.324,-1.699 -0.323,-1.457 -0.284,-1.256 -0.202,-0.973 -0.162,-0.729 -0.081,-0.445 c -0.121,-0.162 -0.243,-0.162 -0.243,-0.162 -0.121,0 -0.323,0 -0.323,0 h -0.262 -0.284 -0.283 -0.283 -0.364 -0.364 -0.365 -0.404 -0.405 -0.448 -0.445 -0.445 -0.445 -0.485 -0.445 -0.486 -0.445 -0.486 -0.445 -0.445 -0.404 -0.445 -0.405 -0.364 -0.364 -0.324 -0.323 -0.284 -0.242 -0.243 c -0.162,0 -0.324,0 -0.324,0 -0.208,-0.001 22.182,96.198 22.182,96.198 z"
   stroke-miterlimit="10"
   inkscape:connector-curvature="0" />
</g><g
     style="fill:#000000;fill-opacity:1;stroke:none"
     id="LWPOLYLINE_16_">
	
		<rect
   style="fill:#000000;fill-opacity:1;stroke:none"
   id="rect52"
   height="23.219999"
   width="169.15601"
   stroke-miterlimit="10"
   y="193.578"
   x="223.513" />
</g></g>
</svg>