<?xml version="1.0" encoding="UTF-8" standalone="no"?>
<!-- Generator: Adobe Illustrator 16.0.1, SVG Export Plug-In . SVG Version: 6.00 Build 0)  -->

<svg
   xmlns:dc="http://purl.org/dc/elements/1.1/"
   xmlns:cc="http://creativecommons.org/ns#"
   xmlns:rdf="http://www.w3.org/1999/02/22-rdf-syntax-ns#"
   xmlns:svg="http://www.w3.org/2000/svg"
   xmlns="http://www.w3.org/2000/svg"
   xmlns:xlink="http://www.w3.org/1999/xlink"
   xmlns:sodipodi="http://sodipodi.sourceforge.net/DTD/sodipodi-0.dtd"
   xmlns:inkscape="http://www.inkscape.org/namespaces/inkscape"
   version="1.0"
   id="_x31_"
   x="0px"
   y="0px"
   width="350"
   height="350"
   viewBox="0 0 350 350"
   enable-background="new 0 0 612 792"
   xml:space="preserve"
   inkscape:version="0.48.2 r9819"
   sodipodi:docname="6008.svg"><metadata
   id="metadata112"><rdf:RDF><cc:Work
       rdf:about=""><dc:format>image/svg+xml</dc:format><dc:type
         rdf:resource="http://purl.org/dc/dcmitype/StillImage" /></cc:Work></rdf:RDF></metadata><defs
   id="defs110"><radialGradient
     r="333.18735"
     fy="467.91885"
     fx="373.24265"
     cy="467.91885"
     cx="373.24265"
     gradientTransform="matrix(0.83535069,2.5391116e-7,-2.4564601e-7,0.80815885,-725.97492,-115.98714)"
     gradientUnits="userSpaceOnUse"
     id="radialGradient4460"
     xlink:href="#linearGradient5443"
     inkscape:collect="always" /><linearGradient
     y2="254.73526"
     x2="123.47623"
     y1="344.03848"
     x1="123.50603"
     gradientTransform="matrix(2.3189708,0,0,2.0930998,-543.56606,-225.82362)"
     gradientUnits="userSpaceOnUse"
     id="linearGradient4458"
     xlink:href="#linearGradient3187"
     inkscape:collect="always" /><radialGradient
     r="333.18735"
     fy="710.99164"
     fx="373.24265"
     cy="710.99164"
     cx="373.24265"
     gradientTransform="matrix(0.86272606,1.0667183e-7,-5.1097113e-8,0.31433999,-736.19251,168.72353)"
     gradientUnits="userSpaceOnUse"
     id="radialGradient4456"
     xlink:href="#linearGradient5443"
     inkscape:collect="always" /><radialGradient
     r="333.18735"
     fy="467.91885"
     fx="373.24265"
     cy="467.91885"
     cx="373.24265"
     gradientTransform="matrix(0.83393192,2.4025531e-7,-2.452288e-7,0.76469446,-575.89311,126.3946)"
     gradientUnits="userSpaceOnUse"
     id="radialGradient2894-5"
     xlink:href="#linearGradient5443-0"
     inkscape:collect="always" /><linearGradient
     y2="254.73526"
     x2="123.47623"
     y1="344.03848"
     x1="123.50603"
     gradientTransform="matrix(2.3189708,0,0,2.0930998,-543.56606,-225.82362)"
     gradientUnits="userSpaceOnUse"
     id="linearGradient2892-2"
     xlink:href="#linearGradient3187-1"
     inkscape:collect="always" /><radialGradient
     r="333.18735"
     fy="710.99164"
     fx="373.24265"
     cy="710.99164"
     cx="373.24265"
     gradientTransform="matrix(0.8612608,1.0093481e-7,-5.1010329e-8,0.29743416,-586.09339,395.79293)"
     gradientUnits="userSpaceOnUse"
     id="radialGradient2890-7"
     xlink:href="#linearGradient5443-0"
     inkscape:collect="always" /><linearGradient
     id="linearGradient5443-5-6"><stop
       style="stop-color:#ffffff;stop-opacity:0;"
       offset="0"
       id="stop5445-4-1" /><stop
       style="stop-color:#000000;stop-opacity:0.33962265;"
       offset="1"
       id="stop5447-3-4" /></linearGradient><radialGradient
     r="333.18735"
     fy="710.99164"
     fx="373.24265"
     cy="710.99164"
     cx="373.24265"
     gradientTransform="matrix(0.9503534,1.1750652e-7,-5.6287062e-8,0.3462676,317.80591,185.68771)"
     gradientUnits="userSpaceOnUse"
     id="radialGradient4835-3-2"
     xlink:href="#linearGradient5443-5-6"
     inkscape:collect="always" /><radialGradient
     r="333.18735"
     fy="710.99164"
     fx="373.24265"
     cy="710.99164"
     cx="373.24265"
     gradientTransform="matrix(0.8612608,1.0093481e-7,-5.1010329e-8,0.29743416,-586.09339,395.79293)"
     gradientUnits="userSpaceOnUse"
     id="radialGradient4835-2"
     xlink:href="#linearGradient5443-0"
     inkscape:collect="always" /><radialGradient
     r="333.18735"
     fy="467.91885"
     fx="373.24265"
     cy="467.91885"
     cx="373.24265"
     gradientTransform="matrix(0.83393192,2.4025531e-7,-2.452288e-7,0.76469446,-575.89311,126.3946)"
     gradientUnits="userSpaceOnUse"
     id="radialGradient4832-1"
     xlink:href="#linearGradient5443-0"
     inkscape:collect="always" /><linearGradient
     y2="254.73526"
     x2="123.47623"
     y1="344.03848"
     x1="123.50603"
     gradientTransform="matrix(2.3189708,0,0,2.0930998,-543.56606,-225.82362)"
     gradientUnits="userSpaceOnUse"
     id="linearGradient4827-6"
     xlink:href="#linearGradient3187-1"
     inkscape:collect="always" /><linearGradient
     y2="254.73526"
     x2="123.47623"
     y1="344.03848"
     x1="123.50603"
     gradientTransform="matrix(2.3189708,0,0,2.0930998,93.115298,-256.84999)"
     gradientUnits="userSpaceOnUse"
     id="linearGradient4824-8"
     xlink:href="#linearGradient3187-1"
     inkscape:collect="always" /><radialGradient
     r="333.18735"
     fy="467.91885"
     fx="373.24265"
     cy="467.91885"
     cx="373.24265"
     gradientTransform="matrix(0.9201975,2.7970099e-7,-2.7059634e-7,0.8902438,28.590287,48.634335)"
     gradientUnits="userSpaceOnUse"
     id="radialGradient4822-5"
     xlink:href="#linearGradient3171-6"
     inkscape:collect="always" /><radialGradient
     r="333.18735"
     fy="710.99164"
     fx="373.24265"
     cy="710.99164"
     cx="373.24265"
     gradientTransform="matrix(0.9503534,1.1750652e-7,-5.6287062e-8,0.3462676,17.334826,362.44227)"
     gradientUnits="userSpaceOnUse"
     id="radialGradient4820-7"
     xlink:href="#linearGradient3157-2"
     inkscape:collect="always" /><radialGradient
     r="333.18735"
     fy="710.99164"
     fx="373.24265"
     cy="710.99164"
     cx="373.24265"
     gradientTransform="matrix(0.9503534,1.1750652e-7,-5.6287062e-8,0.3462676,17.334826,362.44227)"
     gradientUnits="userSpaceOnUse"
     id="radialGradient4805-6"
     xlink:href="#linearGradient3157-2"
     inkscape:collect="always" /><radialGradient
     r="333.18735"
     fy="467.91885"
     fx="373.24265"
     cy="467.91885"
     cx="373.24265"
     gradientTransform="matrix(0.9201975,2.7970099e-7,-2.7059634e-7,0.8902438,28.590287,48.634335)"
     gradientUnits="userSpaceOnUse"
     id="radialGradient4802-1"
     xlink:href="#linearGradient3171-6"
     inkscape:collect="always" /><linearGradient
     y2="254.73526"
     x2="123.47623"
     y1="344.03848"
     x1="123.50603"
     gradientTransform="matrix(2.3189708,0,0,2.0930998,93.115298,-256.84999)"
     gradientUnits="userSpaceOnUse"
     id="linearGradient4799-8"
     xlink:href="#linearGradient3187-1"
     inkscape:collect="always" /><linearGradient
     y2="254.73526"
     x2="123.47623"
     y1="344.03848"
     x1="123.50603"
     gradientTransform="matrix(2.3189708,0,0,2.0930998,93.115298,-256.84999)"
     gradientUnits="userSpaceOnUse"
     id="linearGradient4794-9"
     xlink:href="#linearGradient3187-1"
     inkscape:collect="always" /><radialGradient
     r="333.18735"
     fy="467.91885"
     fx="373.24265"
     cy="467.91885"
     cx="373.24265"
     gradientTransform="matrix(0.9201975,2.7970099e-7,-2.7059634e-7,0.8902438,28.590287,48.634335)"
     gradientUnits="userSpaceOnUse"
     id="radialGradient4792-2"
     xlink:href="#linearGradient3171-6"
     inkscape:collect="always" /><radialGradient
     r="333.18735"
     fy="710.99164"
     fx="373.24265"
     cy="710.99164"
     cx="373.24265"
     gradientTransform="matrix(0.9503534,1.1750652e-7,-5.6287062e-8,0.3462676,17.334826,362.44227)"
     gradientUnits="userSpaceOnUse"
     id="radialGradient4790-7"
     xlink:href="#linearGradient3157-2"
     inkscape:collect="always" /><radialGradient
     r="333.18735"
     fy="710.99164"
     fx="373.24265"
     cy="710.99164"
     cx="373.24265"
     gradientTransform="matrix(0.9503534,1.1750652e-7,-5.6287062e-8,0.3462676,17.334826,362.44227)"
     gradientUnits="userSpaceOnUse"
     id="radialGradient4779-9"
     xlink:href="#linearGradient3157-2"
     inkscape:collect="always" /><radialGradient
     r="333.18735"
     fy="467.91885"
     fx="373.24265"
     cy="467.91885"
     cx="373.24265"
     gradientTransform="matrix(0.9201975,2.7970099e-7,-2.7059634e-7,0.8902438,28.590287,48.634335)"
     gradientUnits="userSpaceOnUse"
     id="radialGradient4776-5"
     xlink:href="#linearGradient3171-6"
     inkscape:collect="always" /><linearGradient
     y2="254.73526"
     x2="123.47623"
     y1="344.03848"
     x1="123.50603"
     gradientTransform="matrix(2.3189708,0,0,2.0930998,93.115298,-256.84999)"
     gradientUnits="userSpaceOnUse"
     id="linearGradient4773-4"
     xlink:href="#linearGradient3187-1"
     inkscape:collect="always" /><linearGradient
     y2="254.73526"
     x2="123.47623"
     y1="344.03848"
     x1="123.50603"
     gradientTransform="matrix(2.3189708,0,0,2.0930998,93.115298,-256.84999)"
     gradientUnits="userSpaceOnUse"
     id="linearGradient4770-3"
     xlink:href="#linearGradient3187-1"
     inkscape:collect="always" /><radialGradient
     r="333.18735"
     fy="467.91885"
     fx="373.24265"
     cy="467.91885"
     cx="373.24265"
     gradientTransform="matrix(0.9201975,2.7970099e-7,-2.7059634e-7,0.8902438,28.590287,48.634335)"
     gradientUnits="userSpaceOnUse"
     id="radialGradient4768-1"
     xlink:href="#linearGradient3171-6"
     inkscape:collect="always" /><radialGradient
     r="333.18735"
     fy="710.99164"
     fx="373.24265"
     cy="710.99164"
     cx="373.24265"
     gradientTransform="matrix(0.9503534,1.1750652e-7,-5.6287062e-8,0.3462676,17.334826,362.44227)"
     gradientUnits="userSpaceOnUse"
     id="radialGradient4766-2"
     xlink:href="#linearGradient3157-2"
     inkscape:collect="always" /><radialGradient
     r="333.18735"
     fy="710.99164"
     fx="373.24265"
     cy="710.99164"
     cx="373.24265"
     gradientTransform="matrix(0.9503534,1.1750652e-7,-5.6287062e-8,0.3462676,17.334826,362.44227)"
     gradientUnits="userSpaceOnUse"
     id="radialGradient4572-4"
     xlink:href="#linearGradient3157-2"
     inkscape:collect="always" /><radialGradient
     r="333.18735"
     fy="467.91885"
     fx="373.24265"
     cy="467.91885"
     cx="373.24265"
     gradientTransform="matrix(0.9201975,2.7970099e-7,-2.7059634e-7,0.8902438,28.590287,48.634335)"
     gradientUnits="userSpaceOnUse"
     id="radialGradient4569-1"
     xlink:href="#linearGradient3171-6"
     inkscape:collect="always" /><linearGradient
     y2="254.73526"
     x2="123.47623"
     y1="344.03848"
     x1="123.50603"
     gradientTransform="matrix(2.3189708,0,0,2.0930998,93.115298,-256.84999)"
     gradientUnits="userSpaceOnUse"
     id="linearGradient4562-1"
     xlink:href="#linearGradient3187-1"
     inkscape:collect="always" /><linearGradient
     gradientUnits="userSpaceOnUse"
     y2="540.86719"
     x2="360.49777"
     y1="167.50403"
     x1="360.49777"
     id="linearGradient4401-3"
     xlink:href="#linearGradient4395-7"
     inkscape:collect="always" /><linearGradient
     gradientUnits="userSpaceOnUse"
     y2="655.4505"
     x2="396.91168"
     y1="298.59412"
     x1="371.42194"
     id="linearGradient4389-8"
     xlink:href="#linearGradient4383-4"
     inkscape:collect="always" /><inkscape:perspective
     id="perspective3214-7"
     inkscape:persp3d-origin="372.04724 : 350.78739 : 1"
     inkscape:vp_z="744.09448 : 526.18109 : 1"
     inkscape:vp_y="0 : 1000 : 0"
     inkscape:vp_x="0 : 526.18109 : 1"
     sodipodi:type="inkscape:persp3d" /><linearGradient
     id="linearGradient4383-4"><stop
       id="stop4385-2"
       offset="0"
       style="stop-color:#00037f;stop-opacity:1;" /><stop
       id="stop4387-7"
       offset="1"
       style="stop-color:#00037f;stop-opacity:0;" /></linearGradient><linearGradient
     id="linearGradient4395-7"><stop
       id="stop4397-9"
       offset="0"
       style="stop-color:#110084;stop-opacity:1;" /><stop
       id="stop4399-3"
       offset="1"
       style="stop-color:#a695ff;stop-opacity:1;" /></linearGradient><linearGradient
     id="linearGradient3187-1"><stop
       id="stop3189-9"
       offset="0"
       style="stop-color:#ffffff;stop-opacity:0.39622641;" /><stop
       id="stop3191-8"
       offset="1"
       style="stop-color:#000000;stop-opacity:1;" /></linearGradient><linearGradient
     id="linearGradient3171-6"><stop
       style="stop-color:#49bcff;stop-opacity:1;"
       offset="0"
       id="stop3173-5" /><stop
       style="stop-color:#494cdc;stop-opacity:1;"
       offset="1"
       id="stop3175-0" /></linearGradient><linearGradient
     id="linearGradient3157-2"><stop
       id="stop3159-8"
       offset="0"
       style="stop-color:#49bcff;stop-opacity:1;" /><stop
       id="stop3161-6"
       offset="1"
       style="stop-color:#494c96;stop-opacity:1;" /></linearGradient><linearGradient
     id="linearGradient5443-0"><stop
       style="stop-color:#ffffff;stop-opacity:0;"
       offset="0"
       id="stop5445-2" /><stop
       style="stop-color:#000000;stop-opacity:0.33962265;"
       offset="1"
       id="stop5447-4" /></linearGradient><radialGradient
     inkscape:collect="always"
     xlink:href="#linearGradient5443-0"
     id="radialGradient3234"
     gradientUnits="userSpaceOnUse"
     gradientTransform="matrix(0.8612608,1.0093481e-7,-5.1010329e-8,0.29743416,-586.09339,395.79293)"
     cx="373.24265"
     cy="710.99164"
     fx="373.24265"
     fy="710.99164"
     r="333.18735" /><linearGradient
     inkscape:collect="always"
     xlink:href="#linearGradient3187-1"
     id="linearGradient3236"
     gradientUnits="userSpaceOnUse"
     gradientTransform="matrix(2.3189708,0,0,2.0930998,-543.56606,-225.82362)"
     x1="123.50603"
     y1="344.03848"
     x2="123.47623"
     y2="254.73526" /><radialGradient
     inkscape:collect="always"
     xlink:href="#linearGradient5443-0"
     id="radialGradient3238"
     gradientUnits="userSpaceOnUse"
     gradientTransform="matrix(0.83393192,2.4025531e-7,-2.452288e-7,0.76469446,-575.89311,126.3946)"
     cx="373.24265"
     cy="467.91885"
     fx="373.24265"
     fy="467.91885"
     r="333.18735" /><radialGradient
     inkscape:collect="always"
     xlink:href="#linearGradient5443-0"
     id="radialGradient3254"
     gradientUnits="userSpaceOnUse"
     gradientTransform="matrix(0.8612608,1.0093481e-7,-5.1010329e-8,0.29743416,-586.09339,395.79293)"
     cx="373.24265"
     cy="710.99164"
     fx="373.24265"
     fy="710.99164"
     r="333.18735" /><linearGradient
     inkscape:collect="always"
     xlink:href="#linearGradient3187-1"
     id="linearGradient3256"
     gradientUnits="userSpaceOnUse"
     gradientTransform="matrix(2.3189708,0,0,2.0930998,-543.56606,-225.82362)"
     x1="123.50603"
     y1="344.03848"
     x2="123.47623"
     y2="254.73526" /><radialGradient
     inkscape:collect="always"
     xlink:href="#linearGradient5443-0"
     id="radialGradient3258"
     gradientUnits="userSpaceOnUse"
     gradientTransform="matrix(0.83393192,2.4025531e-7,-2.452288e-7,0.76469446,-575.89311,126.3946)"
     cx="373.24265"
     cy="467.91885"
     fx="373.24265"
     fy="467.91885"
     r="333.18735" /><radialGradient
     inkscape:collect="always"
     xlink:href="#linearGradient5443-0"
     id="radialGradient3270"
     gradientUnits="userSpaceOnUse"
     gradientTransform="matrix(0.83535069,2.5391116e-7,-2.4564601e-7,0.80815885,-821.89024,-331.16994)"
     cx="373.24265"
     cy="467.91885"
     fx="373.24265"
     fy="467.91885"
     r="333.18735" /><radialGradient
     inkscape:collect="always"
     xlink:href="#linearGradient5443-0"
     id="radialGradient3274"
     gradientUnits="userSpaceOnUse"
     gradientTransform="matrix(0.86272606,1.0667183e-7,-5.1097113e-8,0.31433999,-832.10787,-46.459305)"
     cx="373.24265"
     cy="710.99164"
     fx="373.24265"
     fy="710.99164"
     r="333.18735" /><linearGradient
     y2="254.73526"
     x2="123.47623"
     y1="344.03848"
     x1="123.50603"
     gradientTransform="matrix(2.3189708,0,0,2.0930998,-543.56606,-225.82362)"
     gradientUnits="userSpaceOnUse"
     id="linearGradient3422"
     xlink:href="#linearGradient3187"
     inkscape:collect="always" /><radialGradient
     r="333.18735"
     fy="710.99164"
     fx="373.24265"
     cy="710.99164"
     cx="373.24265"
     gradientTransform="matrix(0.86272606,1.0667183e-7,-5.1097113e-8,0.31433999,-736.19251,168.72353)"
     gradientUnits="userSpaceOnUse"
     id="radialGradient3416"
     xlink:href="#linearGradient5443"
     inkscape:collect="always" /><radialGradient
     r="333.18735"
     fy="467.91885"
     fx="373.24265"
     cy="467.91885"
     cx="373.24265"
     gradientTransform="matrix(0.83535069,2.5391116e-7,-2.4564601e-7,0.80815885,-725.97492,-115.98714)"
     gradientUnits="userSpaceOnUse"
     id="radialGradient3412"
     xlink:href="#linearGradient5443"
     inkscape:collect="always" /><radialGradient
     r="333.18735"
     fy="467.91885"
     fx="373.24265"
     cy="467.91885"
     cx="373.24265"
     gradientTransform="matrix(0.83393192,2.4025531e-7,-2.452288e-7,0.76469446,-575.89311,126.3946)"
     gradientUnits="userSpaceOnUse"
     id="radialGradient2894"
     xlink:href="#linearGradient5443"
     inkscape:collect="always" /><linearGradient
     y2="254.73526"
     x2="123.47623"
     y1="344.03848"
     x1="123.50603"
     gradientTransform="matrix(2.3189708,0,0,2.0930998,-543.56606,-225.82362)"
     gradientUnits="userSpaceOnUse"
     id="linearGradient2892"
     xlink:href="#linearGradient3187"
     inkscape:collect="always" /><radialGradient
     r="333.18735"
     fy="710.99164"
     fx="373.24265"
     cy="710.99164"
     cx="373.24265"
     gradientTransform="matrix(0.8612608,1.0093481e-7,-5.1010329e-8,0.29743416,-586.09339,395.79293)"
     gradientUnits="userSpaceOnUse"
     id="radialGradient2890"
     xlink:href="#linearGradient5443"
     inkscape:collect="always" /><linearGradient
     id="linearGradient5443-5"><stop
       style="stop-color:#ffffff;stop-opacity:0;"
       offset="0"
       id="stop5445-4" /><stop
       style="stop-color:#000000;stop-opacity:0.33962265;"
       offset="1"
       id="stop5447-3" /></linearGradient><radialGradient
     r="333.18735"
     fy="710.99164"
     fx="373.24265"
     cy="710.99164"
     cx="373.24265"
     gradientTransform="matrix(0.9503534,1.1750652e-7,-5.6287062e-8,0.3462676,317.80591,185.68771)"
     gradientUnits="userSpaceOnUse"
     id="radialGradient4835-3"
     xlink:href="#linearGradient5443-5"
     inkscape:collect="always" /><filter
     color-interpolation-filters="sRGB"
     id="filter5511"
     inkscape:collect="always"><feGaussianBlur
       id="feGaussianBlur5513"
       stdDeviation="3.2374974"
       inkscape:collect="always" /></filter><radialGradient
     r="333.18735"
     fy="710.99164"
     fx="373.24265"
     cy="710.99164"
     cx="373.24265"
     gradientTransform="matrix(0.8612608,1.0093481e-7,-5.1010329e-8,0.29743416,-586.09339,395.79293)"
     gradientUnits="userSpaceOnUse"
     id="radialGradient4835"
     xlink:href="#linearGradient5443"
     inkscape:collect="always" /><radialGradient
     r="333.18735"
     fy="467.91885"
     fx="373.24265"
     cy="467.91885"
     cx="373.24265"
     gradientTransform="matrix(0.83393192,2.4025531e-7,-2.452288e-7,0.76469446,-575.89311,126.3946)"
     gradientUnits="userSpaceOnUse"
     id="radialGradient4832"
     xlink:href="#linearGradient5443"
     inkscape:collect="always" /><linearGradient
     y2="254.73526"
     x2="123.47623"
     y1="344.03848"
     x1="123.50603"
     gradientTransform="matrix(2.3189708,0,0,2.0930998,-543.56606,-225.82362)"
     gradientUnits="userSpaceOnUse"
     id="linearGradient4827"
     xlink:href="#linearGradient3187"
     inkscape:collect="always" /><linearGradient
     y2="254.73526"
     x2="123.47623"
     y1="344.03848"
     x1="123.50603"
     gradientTransform="matrix(2.3189708,0,0,2.0930998,93.115298,-256.84999)"
     gradientUnits="userSpaceOnUse"
     id="linearGradient4824"
     xlink:href="#linearGradient3187"
     inkscape:collect="always" /><radialGradient
     r="333.18735"
     fy="467.91885"
     fx="373.24265"
     cy="467.91885"
     cx="373.24265"
     gradientTransform="matrix(0.9201975,2.7970099e-7,-2.7059634e-7,0.8902438,28.590287,48.634335)"
     gradientUnits="userSpaceOnUse"
     id="radialGradient4822"
     xlink:href="#linearGradient3171"
     inkscape:collect="always" /><radialGradient
     r="333.18735"
     fy="710.99164"
     fx="373.24265"
     cy="710.99164"
     cx="373.24265"
     gradientTransform="matrix(0.9503534,1.1750652e-7,-5.6287062e-8,0.3462676,17.334826,362.44227)"
     gradientUnits="userSpaceOnUse"
     id="radialGradient4820"
     xlink:href="#linearGradient3157"
     inkscape:collect="always" /><radialGradient
     r="333.18735"
     fy="710.99164"
     fx="373.24265"
     cy="710.99164"
     cx="373.24265"
     gradientTransform="matrix(0.9503534,1.1750652e-7,-5.6287062e-8,0.3462676,17.334826,362.44227)"
     gradientUnits="userSpaceOnUse"
     id="radialGradient4805"
     xlink:href="#linearGradient3157"
     inkscape:collect="always" /><radialGradient
     r="333.18735"
     fy="467.91885"
     fx="373.24265"
     cy="467.91885"
     cx="373.24265"
     gradientTransform="matrix(0.9201975,2.7970099e-7,-2.7059634e-7,0.8902438,28.590287,48.634335)"
     gradientUnits="userSpaceOnUse"
     id="radialGradient4802"
     xlink:href="#linearGradient3171"
     inkscape:collect="always" /><linearGradient
     y2="254.73526"
     x2="123.47623"
     y1="344.03848"
     x1="123.50603"
     gradientTransform="matrix(2.3189708,0,0,2.0930998,93.115298,-256.84999)"
     gradientUnits="userSpaceOnUse"
     id="linearGradient4799"
     xlink:href="#linearGradient3187"
     inkscape:collect="always" /><linearGradient
     y2="254.73526"
     x2="123.47623"
     y1="344.03848"
     x1="123.50603"
     gradientTransform="matrix(2.3189708,0,0,2.0930998,93.115298,-256.84999)"
     gradientUnits="userSpaceOnUse"
     id="linearGradient4794"
     xlink:href="#linearGradient3187"
     inkscape:collect="always" /><radialGradient
     r="333.18735"
     fy="467.91885"
     fx="373.24265"
     cy="467.91885"
     cx="373.24265"
     gradientTransform="matrix(0.9201975,2.7970099e-7,-2.7059634e-7,0.8902438,28.590287,48.634335)"
     gradientUnits="userSpaceOnUse"
     id="radialGradient4792"
     xlink:href="#linearGradient3171"
     inkscape:collect="always" /><radialGradient
     r="333.18735"
     fy="710.99164"
     fx="373.24265"
     cy="710.99164"
     cx="373.24265"
     gradientTransform="matrix(0.9503534,1.1750652e-7,-5.6287062e-8,0.3462676,17.334826,362.44227)"
     gradientUnits="userSpaceOnUse"
     id="radialGradient4790"
     xlink:href="#linearGradient3157"
     inkscape:collect="always" /><radialGradient
     r="333.18735"
     fy="710.99164"
     fx="373.24265"
     cy="710.99164"
     cx="373.24265"
     gradientTransform="matrix(0.9503534,1.1750652e-7,-5.6287062e-8,0.3462676,17.334826,362.44227)"
     gradientUnits="userSpaceOnUse"
     id="radialGradient4779"
     xlink:href="#linearGradient3157"
     inkscape:collect="always" /><radialGradient
     r="333.18735"
     fy="467.91885"
     fx="373.24265"
     cy="467.91885"
     cx="373.24265"
     gradientTransform="matrix(0.9201975,2.7970099e-7,-2.7059634e-7,0.8902438,28.590287,48.634335)"
     gradientUnits="userSpaceOnUse"
     id="radialGradient4776"
     xlink:href="#linearGradient3171"
     inkscape:collect="always" /><linearGradient
     y2="254.73526"
     x2="123.47623"
     y1="344.03848"
     x1="123.50603"
     gradientTransform="matrix(2.3189708,0,0,2.0930998,93.115298,-256.84999)"
     gradientUnits="userSpaceOnUse"
     id="linearGradient4773"
     xlink:href="#linearGradient3187"
     inkscape:collect="always" /><linearGradient
     y2="254.73526"
     x2="123.47623"
     y1="344.03848"
     x1="123.50603"
     gradientTransform="matrix(2.3189708,0,0,2.0930998,93.115298,-256.84999)"
     gradientUnits="userSpaceOnUse"
     id="linearGradient4770"
     xlink:href="#linearGradient3187"
     inkscape:collect="always" /><radialGradient
     r="333.18735"
     fy="467.91885"
     fx="373.24265"
     cy="467.91885"
     cx="373.24265"
     gradientTransform="matrix(0.9201975,2.7970099e-7,-2.7059634e-7,0.8902438,28.590287,48.634335)"
     gradientUnits="userSpaceOnUse"
     id="radialGradient4768"
     xlink:href="#linearGradient3171"
     inkscape:collect="always" /><radialGradient
     r="333.18735"
     fy="710.99164"
     fx="373.24265"
     cy="710.99164"
     cx="373.24265"
     gradientTransform="matrix(0.9503534,1.1750652e-7,-5.6287062e-8,0.3462676,17.334826,362.44227)"
     gradientUnits="userSpaceOnUse"
     id="radialGradient4766"
     xlink:href="#linearGradient3157"
     inkscape:collect="always" /><filter
     color-interpolation-filters="sRGB"
     id="filter4659"
     inkscape:collect="always"><feGaussianBlur
       id="feGaussianBlur4661"
       stdDeviation="2.7750933"
       inkscape:collect="always" /></filter><radialGradient
     r="333.18735"
     fy="710.99164"
     fx="373.24265"
     cy="710.99164"
     cx="373.24265"
     gradientTransform="matrix(0.9503534,1.1750652e-7,-5.6287062e-8,0.3462676,17.334826,362.44227)"
     gradientUnits="userSpaceOnUse"
     id="radialGradient4572"
     xlink:href="#linearGradient3157"
     inkscape:collect="always" /><radialGradient
     r="333.18735"
     fy="467.91885"
     fx="373.24265"
     cy="467.91885"
     cx="373.24265"
     gradientTransform="matrix(0.9201975,2.7970099e-7,-2.7059634e-7,0.8902438,28.590287,48.634335)"
     gradientUnits="userSpaceOnUse"
     id="radialGradient4569"
     xlink:href="#linearGradient3171"
     inkscape:collect="always" /><linearGradient
     y2="254.73526"
     x2="123.47623"
     y1="344.03848"
     x1="123.50603"
     gradientTransform="matrix(2.3189708,0,0,2.0930998,93.115298,-256.84999)"
     gradientUnits="userSpaceOnUse"
     id="linearGradient4562"
     xlink:href="#linearGradient3187"
     inkscape:collect="always" /><linearGradient
     gradientUnits="userSpaceOnUse"
     y2="540.86719"
     x2="360.49777"
     y1="167.50403"
     x1="360.49777"
     id="linearGradient4401"
     xlink:href="#linearGradient4395"
     inkscape:collect="always" /><linearGradient
     gradientUnits="userSpaceOnUse"
     y2="655.4505"
     x2="396.91168"
     y1="298.59412"
     x1="371.42194"
     id="linearGradient4389"
     xlink:href="#linearGradient4383"
     inkscape:collect="always" /><inkscape:perspective
     id="perspective3214"
     inkscape:persp3d-origin="372.04724 : 350.78739 : 1"
     inkscape:vp_z="744.09448 : 526.18109 : 1"
     inkscape:vp_y="0 : 1000 : 0"
     inkscape:vp_x="0 : 526.18109 : 1"
     sodipodi:type="inkscape:persp3d" /><linearGradient
     id="linearGradient4383"><stop
       id="stop4385"
       offset="0"
       style="stop-color:#00037f;stop-opacity:1;" /><stop
       id="stop4387"
       offset="1"
       style="stop-color:#00037f;stop-opacity:0;" /></linearGradient><linearGradient
     id="linearGradient4395"><stop
       id="stop4397"
       offset="0"
       style="stop-color:#110084;stop-opacity:1;" /><stop
       id="stop4399"
       offset="1"
       style="stop-color:#a695ff;stop-opacity:1;" /></linearGradient><linearGradient
     id="linearGradient3187"><stop
       id="stop3189"
       offset="0"
       style="stop-color:#ffffff;stop-opacity:0.39622641;" /><stop
       id="stop3191"
       offset="1"
       style="stop-color:#9e9e9e;stop-opacity:1;" /></linearGradient><linearGradient
     id="linearGradient3171"><stop
       style="stop-color:#49bcff;stop-opacity:1;"
       offset="0"
       id="stop3173" /><stop
       style="stop-color:#494cdc;stop-opacity:1;"
       offset="1"
       id="stop3175" /></linearGradient><linearGradient
     id="linearGradient3157"><stop
       id="stop3159"
       offset="0"
       style="stop-color:#49bcff;stop-opacity:1;" /><stop
       id="stop3161"
       offset="1"
       style="stop-color:#494c96;stop-opacity:1;" /></linearGradient><linearGradient
     id="linearGradient5443"><stop
       style="stop-color:#ffffff;stop-opacity:0;"
       offset="0"
       id="stop5445" /><stop
       style="stop-color:#cbcac8;stop-opacity:1;"
       offset="1"
       id="stop5447" /></linearGradient><radialGradient
     inkscape:collect="always"
     xlink:href="#linearGradient5443"
     id="radialGradient3253"
     gradientUnits="userSpaceOnUse"
     gradientTransform="matrix(0.8612608,1.0093481e-7,-5.1010329e-8,0.29743416,-586.09339,395.79293)"
     cx="373.24265"
     cy="710.99164"
     fx="373.24265"
     fy="710.99164"
     r="333.18735" /><linearGradient
     inkscape:collect="always"
     xlink:href="#linearGradient3187"
     id="linearGradient3255"
     gradientUnits="userSpaceOnUse"
     gradientTransform="matrix(2.3189708,0,0,2.0930998,-543.56606,-225.82362)"
     x1="123.50603"
     y1="344.03848"
     x2="123.47623"
     y2="254.73526" /><radialGradient
     inkscape:collect="always"
     xlink:href="#linearGradient5443"
     id="radialGradient3257"
     gradientUnits="userSpaceOnUse"
     gradientTransform="matrix(0.83393192,2.4025531e-7,-2.452288e-7,0.76469446,-575.89311,126.3946)"
     cx="373.24265"
     cy="467.91885"
     fx="373.24265"
     fy="467.91885"
     r="333.18735" /><radialGradient
     inkscape:collect="always"
     xlink:href="#linearGradient5443"
     id="radialGradient3273"
     gradientUnits="userSpaceOnUse"
     gradientTransform="matrix(0.8612608,1.0093481e-7,-5.1010329e-8,0.29743416,-586.09339,395.79293)"
     cx="373.24265"
     cy="710.99164"
     fx="373.24265"
     fy="710.99164"
     r="333.18735" /><linearGradient
     inkscape:collect="always"
     xlink:href="#linearGradient3187"
     id="linearGradient3275"
     gradientUnits="userSpaceOnUse"
     gradientTransform="matrix(2.3189708,0,0,2.0930998,-543.56606,-225.82362)"
     x1="123.50603"
     y1="344.03848"
     x2="123.47623"
     y2="254.73526" /><radialGradient
     inkscape:collect="always"
     xlink:href="#linearGradient5443"
     id="radialGradient3277"
     gradientUnits="userSpaceOnUse"
     gradientTransform="matrix(0.83393192,2.4025531e-7,-2.452288e-7,0.76469446,-575.89311,126.3946)"
     cx="373.24265"
     cy="467.91885"
     fx="373.24265"
     fy="467.91885"
     r="333.18735" /></defs><sodipodi:namedview
   pagecolor="#ffffff"
   bordercolor="#666666"
   borderopacity="1"
   objecttolerance="10"
   gridtolerance="10"
   guidetolerance="10"
   inkscape:pageopacity="0"
   inkscape:pageshadow="2"
   inkscape:window-width="1920"
   inkscape:window-height="1068"
   id="namedview108"
   showgrid="false"
   inkscape:zoom="0.5959596"
   inkscape:cx="323.38336"
   inkscape:cy="88.905931"
   inkscape:window-x="0"
   inkscape:window-y="0"
   inkscape:window-maximized="1"
   inkscape:current-layer="_x31_"
   fit-margin-top="0"
   fit-margin-left="0"
   fit-margin-right="0"
   fit-margin-bottom="0" />
<g
   id="g4310"
   transform="translate(-4.0524846e-6,1.5294449e-7)"><g
     transform="translate(589.18636,-87.165827)"
     id="g4448"><rect
       transform="matrix(2.1051501,0,0,2.1051501,-860.18934,-1.2010596)"
       ry="12.45238"
       rx="16.067965"
       y="48.636749"
       x="135.39355"
       height="152.93848"
       width="152.93848"
       id="rect4192"
       style="fill:#cccccc;fill-opacity:1;stroke:none;filter:url(#filter4659)"
       inkscape:export-filename="C:\Documents and Settings\adscro24\Desktop\128.png"
       inkscape:export-xdpi="29.879425"
       inkscape:export-ydpi="29.879425" /><rect
       inkscape:export-ydpi="29.879425"
       inkscape:export-xdpi="29.879425"
       inkscape:export-filename="C:\Documents and Settings\adscro24\Desktop\128.png"
       style="fill:#cbcac8;fill-opacity:1;stroke:none;filter:url(#filter4659)"
       id="rect3279"
       width="152.93848"
       height="152.93848"
       x="135.39355"
       y="48.636749"
       rx="16.067965"
       ry="12.45238"
       transform="matrix(2.1051501,0,0,2.1051501,-860.18934,-1.2010596)" /><rect
       inkscape:export-ydpi="29.879425"
       inkscape:export-xdpi="29.879425"
       inkscape:export-filename="C:\Documents and Settings\adscro24\Desktop\128.png"
       style="opacity:0.61338286;fill:url(#radialGradient4456);fill-opacity:1;stroke:#000000;stroke-width:3.26806188;stroke-miterlimit:4;stroke-opacity:1;stroke-dasharray:none"
       id="rect3155"
       width="321.95847"
       height="321.95844"
       x="-575.16559"
       y="101.18661"
       rx="33.825478"
       ry="26.214128" /><path
       transform="matrix(0.907795,0,0,0.90779498,-173.95283,-177.39738)"
       inkscape:export-ydpi="29.879425"
       inkscape:export-xdpi="29.879425"
       inkscape:export-filename="C:\Documents and Settings\adscro24\Desktop\128.png"
       inkscape:connector-curvature="0"
       style="opacity:0.61338286;fill:url(#linearGradient4458);fill-opacity:1;stroke:none;filter:url(#filter5511)"
       d="m -397.80626,329.07489 c -19.62748,0 -35.44272,12.0976 -35.44272,27.14163 l 0,124.30857 c 29.25482,11.38638 132.70149,11.89599 165.40488,-5.79022 33.32802,-18.02397 127.54379,-68.44264 171.824837,-52.72052 l 0,-65.79783 c 0,-15.04403 -15.798597,-27.14163 -35.426097,-27.14163 l -266.3609,0 z m -35.44272,263.47103 0,42.88373 c 0,1.33144 0.14331,2.63588 0.38253,3.915 -0.11919,-12.81092 -0.25965,-28.88939 -0.38253,-46.79873 z"
       id="rect3177" /><rect
       inkscape:export-ydpi="29.879425"
       inkscape:export-xdpi="29.879425"
       inkscape:export-filename="C:\Documents and Settings\adscro24\Desktop\128.png"
       style="opacity:0.61338286;fill:url(#radialGradient4460);fill-opacity:1;stroke:#ffffff;stroke-width:0.68992418;stroke-linecap:square;stroke-miterlimit:4;stroke-opacity:1;stroke-dasharray:none"
       id="rect3473"
       width="306.12445"
       height="306.12445"
       x="-567.2486"
       y="109.1036"
       rx="32.161926"
       ry="24.924911" /><rect
       inkscape:export-ydpi="29.879425"
       inkscape:export-xdpi="29.879425"
       inkscape:export-filename="C:\Documents and Settings\adscro24\Desktop\128.png"
       style="opacity:0.61338286;fill:#ffffff;fill-opacity:0;stroke:#000000;stroke-width:3.26806188;stroke-miterlimit:4;stroke-opacity:1;stroke-dasharray:none"
       id="rect3155-2"
       width="321.95847"
       height="321.95844"
       x="-575.16559"
       y="101.18661"
       rx="33.825478"
       ry="26.214128" /></g><g
     transform="translate(358.29183,-87.165827)"
     id="LWPOLYLINE_2_-7">
	
		
</g><g
     transform="translate(358.29183,-87.165827)"
     id="LWPOLYLINE_3_-4">
	
		
</g><g
     transform="translate(358.29183,-87.165827)"
     id="LWPOLYLINE_4_-0">
	
		
</g><g
     transform="translate(184.65055,-351.95215)"
     style="fill:#000000;fill-opacity:1;stroke:none"
     id="LWPOLYLINE_6_-7">
	
		
</g><g
     transform="translate(184.65055,-351.95215)"
     style="fill:#000000;fill-opacity:1;stroke:none"
     id="LWPOLYLINE-4">
	
		
</g><g
     transform="translate(184.65055,-351.95215)"
     style="fill:#000000;fill-opacity:1;stroke:none"
     id="LWPOLYLINE_3_-0">
	
		
</g></g><g
   id="LWPOLYLINE"
   style="fill:#000000;fill-opacity:1;stroke:none"
   transform="translate(209.92821,-132.65305)">
	
		
</g>


<g
   id="LWPOLYLINE_3_"
   style="fill:#000000;fill-opacity:1;stroke:none"
   transform="translate(209.92821,-132.65305)">
	
		
</g>



<g
   id="LWPOLYLINE_7_"
   style="fill:#000000;fill-opacity:1;stroke:none"
   transform="translate(209.92821,-132.65305)">
	
		
</g>

<g
   id="LINE"
   transform="translate(209.92821,-132.65305)">
	
		
</g>
<g
   id="LINE_1_"
   transform="translate(209.92821,-132.65305)">
	
		
</g>
<g
   id="LINE_2_"
   transform="translate(209.92821,-132.65305)">
	
		
</g>

<g
   id="LINE_4_"
   transform="translate(209.92821,-132.65305)">
	
		
</g>
<g
   id="LINE_5_"
   transform="translate(209.92821,-132.65305)">
	
		
</g>
<g
   id="LINE_6_"
   transform="translate(209.92821,-132.65305)">
	
		
</g>
<g
   id="LINE_7_"
   transform="translate(209.92821,-132.65305)">
	
		
</g>
<g
   id="LINE_8_"
   transform="translate(209.92821,-132.65305)">
	
		
</g>
<g
   id="LINE_9_"
   transform="translate(209.92821,-132.65305)">
	
		
</g>
<g
   id="LINE_10_"
   transform="translate(209.92821,-132.65305)">
	
		
</g>

<g
   id="LINE_12_"
   transform="translate(209.92821,-132.65305)">
	
		
</g>
<g
   id="LINE_13_"
   transform="translate(209.92821,-132.65305)">
	
		
</g>
<g
   id="LINE_14_"
   transform="translate(209.92821,-132.65305)">
	
		
</g>
<g
   id="LINE_15_"
   transform="translate(209.92821,-132.65305)">
	
		
</g>
<g
   id="LINE_16_"
   transform="translate(209.92821,-132.65305)">
	
		
</g>
<g
   id="LINE_17_"
   transform="translate(209.92821,-132.65305)">
	
		
</g>

<g
   id="LINE_19_"
   transform="translate(209.92821,-132.65305)">
	
		
</g>
<g
   id="LINE_20_"
   transform="translate(209.92821,-132.65305)">
	
		
</g>
<g
   id="g3888"
   transform="matrix(0.499999,0,0,0.499999,21.750296,-22.99986)"><g
     style="fill:#000000;fill-opacity:1;stroke:none"
     id="LWPOLYLINE_8_">
	
		<path
   id="path28"
   d="m 494.21875,539.90625 c -0.22,0.176 -0.21875,0.75 -0.21875,0.75 l 0,0.90625 0,1.25 0,1.5625 0,1.84375 0,2.15625 0,2.375 0,2.625 0,2.8125 0,3.03125 0,3.21875 0,3.34375 0,3.5 0,3.59375 0,3.75 0,3.75 0,3.875 0,3.90625 0,3.90625 0,3.90625 0,3.875 0,3.875 0,3.75 0,3.75 0,3.59375 0,3.5 0,3.34375 0,3.21875 0,3.03125 0,2.84375 0,2.59375 0,2.40625 0,2.125 0,1.84375 0,1.5625 0,1.25 0,0.90625 0,0.59375 c 0.008,0.181 12.625,0.15625 12.625,0.15625 l 0,-0.3125 0,-0.375 0,-0.5625 0,-0.65625 0,-0.84375 0,-0.9375 0,-1.03125 0,-1.15625 0,-1.28125 0,-1.3125 0,-1.40625 0,-1.5 0,-1.53125 0,-1.5625 0,-1.625 0,-1.6875 0,-1.71875 0,-1.6875 0,-1.71875 0,-1.71875 0,-1.71875 0,-1.65625 0,-1.6875 0,-1.65625 0,-1.59375 0,-1.53125 0,-1.4375 0,-1.40625 0,-1.375 0,-1.21875 0,-1.15625 0,-1.03125 0,-0.96875 0,-0.78125 0,-0.71875 0,-0.53125 0,-0.375 0,-0.28125 c 0.132,-0.088 0.25,-0.0937 0.25,-0.0937 l 0.5,0 0.25,0 0.34375,0 0.40625,0 0.4375,0 0.46875,0 0.5,0 0.53125,0 0.53125,0 0.5625,0 0.625,0 0.59375,0 0.625,0 0.625,0 0.65625,0 0.59375,0 0.65625,0 0.625,0 0.65625,0 0.625,0 0.59375,0 0.59375,0 0.5625,0 0.5625,0 0.53125,0 0.46875,0 0.5,0 0.40625,0 0.375,0 0.34375,0 0.3125,0 0.28125,0 0.34375,0 0.96875,0 0.84375,-0.0312 0.875,-0.0312 0.875,-0.0937 0.90625,-0.0937 0.9375,-0.125 0.90625,-0.1875 0.9375,-0.1875 0.96875,-0.21875 0.96875,-0.25 0.96875,-0.28125 0.96875,-0.28125 0.96875,-0.375 0.9375,-0.34375 0.9375,-0.4375 0.96875,-0.4375 0.90625,-0.53125 0.9375,-0.53125 0.90625,-0.5625 0.90625,-0.625 0.875,-0.65625 0.8125,-0.6875 0.8125,-0.75 0.78125,-0.84375 0.78125,-0.8125 0.71875,-0.90625 0.6875,-0.9375 0.65625,-1.03125 0.625,-1.03125 0.5625,-1.125 0.5625,-1.1875 0.5,-1.21875 0.4375,-1.28125 0.40625,-1.3125 0.28125,-1.40625 0.3125,-1.5 0.21875,-1.46875 0.125,-1.625 0.15625,-1.625 0,-1.71875 0,-1.8125 -0.0937,-1.71875 -0.125,-1.65625 -0.21875,-1.59375 -0.21875,-1.46875 -0.3125,-1.46875 -0.375,-1.40625 -0.34375,-1.3125 -0.4375,-1.28125 -0.46875,-1.15625 -0.53125,-1.15625 -0.53125,-1.09375 -0.625,-1.0625 -0.59375,-0.96875 -0.65625,-0.90625 -0.71875,-0.875 -0.75,-0.84375 -0.75,-0.78125 -0.78125,-0.71875 -0.78125,-0.6875 -0.84375,-0.625 -0.875,-0.625 -0.875,-0.53125 -0.9375,-0.5 -0.90625,-0.4375 -0.9375,-0.46875 -0.96875,-0.375 -0.9375,-0.34375 -0.96875,-0.3125 -1.03125,-0.28125 -1,-0.25 -1,-0.21875 -1.03125,-0.1875 -1,-0.15625 -1.0625,-0.15625 -1,-0.0625 -1,-0.0937 -1.0625,-0.0625 -1,-0.0312 -1.03125,0 -0.46875,0 -0.34375,0 -0.46875,0 -0.5,0 -0.625,0 -0.65625,0 -0.75,0 -0.84375,0 -0.8125,0 -0.9375,0 -0.96875,0 -0.96875,0 -1.03125,0 -1.0625,0 -1.09375,0 -1.0625,0 -1.15625,0 -1.09375,0 -1.09375,0 -1.09375,0 -1.09375,0 -1.09375,0 -1.0625,0 -1.0625,0 -0.96875,0 -0.96875,0 -0.90625,0 -0.84375,0 -0.84375,0 -0.71875,0 -0.6875,0 -0.59375,0 -0.53125,0 -0.4375,0 -0.34375,0 -0.28125,0 z m 12.40625,11.6875 0.25,0 0.5,0 0.34375,0 0.34375,0 0.40625,0 0.46875,0 0.5,0 0.53125,0 0.5,0 0.59375,0 0.59375,0 0.625,0 0.65625,0 0.65625,0 0.65625,0 0.65625,0 0.71875,0 0.65625,0 0.65625,0 0.65625,0 0.65625,0 0.65625,0 0.625,0 0.59375,0 0.59375,0 0.53125,0 0.5,0 0.53125,0 0.4375,0 0.40625,0 0.40625,0 0.28125,0 0.28125,0 0.34375,0 0.34375,0 0.28125,0 0.25,0.0312 0.3125,0.0625 0.34375,0 0.375,0.0937 0.375,0.0312 0.40625,0.0937 0.4375,0.0937 0.4375,0.125 0.4375,0.125 0.4375,0.125 0.5,0.1875 0.46875,0.21875 0.46875,0.15625 0.5,0.28125 0.53125,0.25 0.46875,0.28125 0.5,0.3125 0.46875,0.34375 0.5,0.34375 0.46875,0.40625 0.46875,0.4375 0.4375,0.46875 0.5,0.5 0.40625,0.53125 0.4375,0.5625 0.375,0.59375 0.34375,0.625 0.40625,0.65625 0.3125,0.75 0.3125,0.75 0.25,0.78125 0.28125,0.84375 0.21875,0.875 0.15625,0.96875 0.15625,0.96875 0.0625,1 0.0937,1.09375 0,1.125 0,1.15625 -0.0937,1.15625 -0.125,1.09375 -0.125,1 -0.1875,1.03125 -0.25,0.90625 -0.28125,0.875 -0.28125,0.84375 -0.3125,0.78125 -0.40625,0.8125 -0.40625,0.6875 -0.375,0.65625 -0.4375,0.65625 -0.5,0.59375 -0.46875,0.5625 -0.53125,0.53125 -0.53125,0.46875 -0.53125,0.4375 -0.5625,0.40625 -0.5625,0.4065 -0.5625,0.34375 -0.59375,0.34375 -0.59375,0.3125 -0.59375,0.25 -0.59375,0.21875 -0.625,0.21875 -0.5625,0.21875 -0.625,0.1875 -0.5625,0.125 -0.625,0.1875 -0.5625,0.0937 -0.5625,0.125 -0.53125,0.0312 -0.5625,0.0937 -0.53125,0.0625 -0.5,0.0312 -0.46875,0.0312 -0.5,0 -0.4375,0.0625 -0.4375,0 -0.21875,0 -0.375,0 -0.21875,0 -0.3125,0 -0.375,0 -0.34375,0 -0.375,0 -0.40625,0 -0.4375,0 -0.5,0 -0.46875,0 -0.46875,0 -0.53125,0 -0.53125,0 -0.53125,0 -0.53125,0 -0.53125,0 -0.5625,0 -0.53125,0 -0.53125,0 -0.53125,0 -0.5,0 -0.5,0 -0.46875,0 -0.4375,0 -0.4375,0 -0.4375,0 -0.40625,0 -0.34375,0 -0.375,0 -0.25,0 -0.25,0 -0.40625,0 -0.21875,0 0,-35.09375 z"
   style="fill:#000000;fill-opacity:1;stroke:none"
   inkscape:connector-curvature="0" />
</g><g
     style="fill:#000000;fill-opacity:1;stroke:none"
     id="LWPOLYLINE_1_">
	
		<path
   id="path7"
   d="m 60.75,539.90625 c -0.22,0.176 -0.21875,0.75 -0.21875,0.75 l 0,0.90625 0,1.25 0,1.5625 0,1.84375 0,2.15625 0,2.375 0,2.625 0,2.8125 0,3.03125 0,3.21875 0,3.34375 0,3.5 0,3.59375 0,3.75 0,3.75 0,3.875 0,3.90625 0,3.90625 0,3.90625 0,3.875 0,3.875 0,3.75 0,3.75 0,3.59375 0,3.5 0,3.34375 0,3.21875 0,3.03125 0,2.84375 0,2.59375 0,2.40625 0,2.125 0,1.84375 0,1.5625 0,1.25 0,0.90625 0,0.59375 c 0,0.181 12.625,0.15625 12.625,0.15625 l 0,-0.3125 0,-0.375 0,-0.5625 0,-0.65625 0,-0.84375 0,-0.9375 0,-1.03125 0,-1.15625 0,-1.28125 0,-1.3125 0,-1.40625 0,-1.5 0,-1.53125 0,-1.5625 0,-1.625 0,-1.6875 0,-1.71875 0,-1.6875 0,-1.71875 0,-1.71875 0,-1.71875 0,-1.65625 0,-1.6875 0,-1.65625 0,-1.59375 0,-1.53125 0,-1.4375 0,-1.40625 0,-1.375 0,-1.21875 0,-1.15625 0,-1.03125 0,-0.96875 0,-0.78125 0,-0.71875 0,-0.53125 0,-0.375 0,-0.28125 c 0.132,-0.088 0.25,-0.0937 0.25,-0.0937 l 0.46875,0 0.3125,0 0.34375,0 0.40625,0 0.40625,0 0.46875,0 0.5,0 0.53125,0 0.53125,0 0.5625,0 0.59375,0 0.625,0 0.625,0 0.625,0 0.65625,0 0.625,0 0.625,0 0.65625,0 0.625,0 0.625,0 0.59375,0 0.59375,0 0.59375,0 0.53125,0 0.53125,0 0.5,0 0.46875,0 0.40625,0 0.40625,0 0.34375,0 0.3125,0 0.25,0 0.375,0 0.9375,0 0.84375,-0.0312 0.875,-0.0312 0.875,-0.0937 0.90625,-0.0937 0.9375,-0.125 0.90625,-0.1875 0.96875,-0.1875 0.9375,-0.21875 0.96875,-0.25 0.96875,-0.28125 0.9375,-0.28125 0.96875,-0.375 0.96875,-0.34375 0.9375,-0.4375 0.96875,-0.4375 0.90625,-0.53125 0.9375,-0.53125 0.90625,-0.5625 0.875,-0.625 0.875,-0.65625 0.84375,-0.6875 0.8125,-0.75 0.78125,-0.84375 0.78125,-0.8125 0.71875,-0.90625 0.71875,-0.9375 0.65625,-1.03125 0.59375,-1.03125 0.59375,-1.125 0.53125,-1.1875 0.5,-1.21875 0.4375,-1.28125 0.375,-1.3125 0.34375,-1.40625 0.25,-1.5 0.21875,-1.46875 0.1875,-1.625 0.0937,-1.625 0.0312,-1.71875 0,-1.8125 -0.0937,-1.71875 -0.15625,-1.65625 -0.1875,-1.59375 -0.25,-1.46875 -0.28125,-1.46875 -0.34375,-1.40625 -0.40625,-1.3125 -0.40625,-1.28125 -0.46875,-1.15625 -0.53125,-1.15625 -0.53125,-1.09375 -0.59375,-1.0625 -0.625,-0.96875 -0.6875,-0.90625 -0.6875,-0.875 -0.71875,-0.84375 -0.75,-0.78125 -0.78125,-0.71875 -0.8125,-0.6875 -0.84375,-0.625 -0.875,-0.625 -0.875,-0.53125 -0.90625,-0.5 -0.9375,-0.4375 -0.9375,-0.46875 -0.96875,-0.375 -0.96875,-0.34375 -0.96875,-0.3125 -1,-0.28125 -1,-0.25 -1.03125,-0.21875 -1,-0.1875 -1.03125,-0.15625 -1,-0.15625 -1.03125,-0.0625 -1.0312,-0.094 -1.03125,-0.0625 -1.03125,-0.0312 -1,0 -0.46875,0 -0.375,0 -0.4375,0 -0.5,0 -0.625,0 -0.65625,0 -0.75,0 -0.8125,0 -0.84375,0 -0.9375,0 -0.9375,0 -1,0 -1.0625,0 -1.03125,0 -1.09375,0 -1.09375,0 -1.09375,0 -1.125,0 -1.09375,0 -1.125,0 -1.09375,0 -1.0625,0 -1.0625,0 -1.03125,0 -1,0 -0.96875,0 -0.875,0 -0.875,0 -0.8125,0 -0.75,0 -0.65625,0 -0.59375,0 -0.53125,0 -0.46875,0 -0.34375,0 -0.28125,0 z m 12.40625,11.6875 0.28125,0 0.46875,0 0.34375,0 0.34375,0 0.40625,0 0.46875,0 0.46875,0 0.53125,0 0.5625,0 0.5625,0 0.625,0 0.59375,0 0.65625,0 0.65625,0 0.65625,0 0.6875,0 0.65625,0 0.6875,0 0.65625,0 0.6875,0 0.65625,0 0.625,0 0.625,0 0.59375,0 0.59375,0 0.53125,0 0.53125,0 0.46875,0 0.46875,0 0.4375,0 0.34375,0 0.3125,0 0.28125,0 0.375,0 0.34375,0 0.25,0 0.28125,0.0312 0.3125,0.0625 0.34375,0 0.34375,0.0937 0.375,0.0312 0.40625,0.0937 0.40625,0.0937 0.4375,0.125 0.46875,0.125 0.46875,0.125 0.4375,0.1875 0.5,0.21875 0.46875,0.15625 0.53125,0.28125 0.46875,0.25 0.5,0.28125 0.5,0.3125 0.5,0.34375 0.46875,0.34375 0.5,0.40625 0.4375,0.4375 0.46875,0.46875 0.4375,0.5 0.4375,0.53125 0.4375,0.5625 0.375,0.59375 0.375,0.625 0.34375,0.65625 0.34375,0.75 0.3125,0.75 0.28125,0.78125 0.25,0.84375 0.1875,0.875 0.1875,0.96875 0.125,0.96875 0.125,1 0.0312,1.09375 0.0312,1.125 -0.0312,1.15625 -0.0625,1.15625 -0.0937,1.09375 -0.15625,1 -0.1875,1.03125 -0.21875,0.90625 -0.28125,0.875 -0.3125,0.84375 -0.3125,0.78125 -0.375,0.8125 -0.40625,0.6875 -0.40625,0.65625 -0.4375,0.65625 -0.5,0.59375 -0.46875,0.5625 -0.5,0.53125 -0.53125,0.46875 -0.5625,0.4375 -0.53125,0.40625 -0.59375,0.40625 -0.5625,0.34375 -0.59375,0.344 L 96.78125,584.75 96.1875,585 95.59375,585.21875 95,585.4375 l -0.59375,0.21875 -0.59375,0.1875 -0.59375,0.125 -0.59375,0.1875 -0.59375,0.0937 -0.5625,0.125 -0.53125,0.0312 -0.5625,0.0937 -0.53125,0.0625 -0.5,0.0312 -0.46875,0.0312 -0.5,0 -0.4375,0.0625 -0.40625,0 -0.21875,0 -0.40625,0 -0.25,0 -0.28125,0 -0.34375,0 -0.34375,0 -0.40625,0 -0.40625,0 -0.4375,0 -0.46875,0 -0.46875,0 -0.53125,0 -0.5,0 -0.53125,0 -0.53125,0 -0.53125,0 -0.53125,0 -0.5625,0 -0.5,0 -0.5625,0 -0.5,0 -0.53125,0 -0.46875,0 -0.5,0 -0.46875,0 -0.4375,0 -0.4375,0 -0.375,0 -0.375,0 -0.3125,0 -0.28125,0 -0.28125,0 -0.375,0 -0.21875,0 0,-35.09375 z"
   style="fill:#000000;fill-opacity:1;stroke:none"
   inkscape:connector-curvature="0" />
</g><g
     style="fill:#000000;fill-opacity:1;stroke:none"
     id="LINE_3_">
	
		<path
   id="line40"
   d="m 195.875,146 -115.53125,115.5625 0,98.5 451.4375,0 0,-214.0625 -335.90625,0 z m 14.875,26.09375 294.9375,0 0,161.875 -399.28125,0 0,-59.375 104.34375,0 0,-102.5 z m -26.09375,21.5625 0,53.96875 -54.875,0 54.875,-53.96875 z"
   style="fill:#000000;fill-opacity:1;stroke:none"
   inkscape:connector-curvature="0" />
</g><g
     style="fill:#000000;fill-opacity:1;stroke:none"
     id="LWPOLYLINE_2_">
	
		<path
   id="path10"
   d="m 159.59375,539.90625 c -0.128,10e-4 -32.5,104.28125 -32.5,104.28125 l 0.375,0 0.46875,0 0.25,0 0.3125,0 0.34375,0 0.34375,0 0.40625,0 0.40625,0 0.4375,0 0.46875,0 0.46875,0 0.46875,0 0.5,0 0.5,0 0.5,0 0.5,0 0.5,0 0.53125,0 0.46875,0 0.5,0 0.46875,0 0.46875,0 0.4375,0 0.4375,0 0.4375,0 0.375,0 0.375,0 0.34375,0 0.3125,0 0.28125,0 0.21875,0 0.375,0 c 0.22,0 0.25,-0.0312 0.25,-0.0312 0.044,-0.131 0.0937,-0.34375 0.0937,-0.34375 l 0.0937,-0.3125 0.125,-0.34375 0.125,-0.4375 0.1875,-0.53125 0.1875,-0.59375 0.1875,-0.65625 0.21875,-0.65625 0.25,-0.75 0.21875,-0.71875 0.28125,-0.84375 0.28125,-0.84375 0.28125,-0.875 0.28125,-0.875 0.28125,-0.9375 0.3125,-0.90625 0.28125,-0.96875 0.3125,-0.9375 0.3125,-0.9375 0.3125,-0.9375 0.28125,-0.90625 0.3125,-0.9375 0.28135,-0.9063 0.28125,-0.84375 0.28125,-0.875 0.25,-0.8125 0.25,-0.78125 0.21875,-0.6875 0.25,-0.71875 0.1875,-0.625 0.1875,-0.5625 0.15625,-0.53125 0.15625,-0.4375 0.0937,-0.375 0.125,-0.3125 c 0.066,-0.221 0.0937,-0.34375 0.0937,-0.34375 0.088,-0.045 0.3125,-0.0625 0.3125,-0.0625 l 0.34375,0 0.46875,0 0.5625,0 0.6875,0 0.78125,0 0.90625,0 0.96875,0 1.03125,0 1.125,0 1.1875,0 1.25,0 1.3125,0 1.34375,0 1.375,0 1.40625,0 1.40625,0 1.4375,0 1.4375,0 1.46875,0 1.4375,0 1.4375,0 1.40625,0 1.375,0 1.34375,0 1.28125,0 1.25,0 1.1875,0 1.125,0 1.03125,0 1,0 0.875,0 0.78125,0 0.6875,0 0.59375,0 0.46875,0 0.3125,0 0.28125,0 c 0.044,0.176 0.125,0.40625 0.125,0.40625 l 0.0937,0.3125 0.0937,0.375 0.125,0.4375 0.15625,0.53125 0.15625,0.5625 0.1875,0.625 0.1875,0.71875 0.21875,0.6875 0.21875,0.78125 0.21875,0.8125 0.25,0.875 0.25,0.8125 0.25,0.9375 0.28125,0.90625 0.25,0.9375 0.28125,0.9375 0.28125,0.9375 0.25,0.9375 0.28125,0.96875 0.25,0.90625 0.25,0.9375 0.28125,0.875 0.25,0.875 0.21875,0.84375 0.25,0.8125 0.21875,0.75 0.1875,0.75 0.21875,0.65625 0.15625,0.65625 0.1875,0.59375 0.15625,0.5 0.0937,0.46875 0.125,0.34375 0.0937,0.3125 c 0.065,0.221 0.0937,0.34375 0.0937,0.34375 0.132,0.045 0.28125,0.0312 0.28125,0.0312 l 0.375,0 0.28125,0 0.3125,0 0.375,0 0.375,0 0.40625,0 0.46875,0 0.4375,0 0.5,0 0.53125,0 0.53125,0 0.53125,0 0.5625,0 0.5625,0 0.5625,0 0.5625,0 0.59375,0 0.5625,0 0.5625,0 0.5625,0 0.53125,0 0.53125,0 0.5,0 0.5,0 0.46875,0 0.4375,0 0.4375,0 0.375,0 0.34375,0 0.3125,0 0.28125,0 0.21875,0 0.3125,0 c 0.044,-0.176 -0.125,-0.75 -0.125,-0.75 l -0.3125,-0.90625 -0.375,-1.21875 -0.5,-1.59375 -0.59375,-1.84375 -0.6875,-2.09375 -0.75,-2.4375 -0.84375,-2.59375 -0.90625,-2.84375 -0.96875,-3.03125 -1.03125,-3.21875 -1.03125,-3.3125 -1.125,-3.53125 -1.15625,-3.59375 -1.1875,-3.71875 -1.21875,-3.78125 -1.21875,-3.875 -1.25,-3.875 -1.25,-3.90625 -1.25,-3.90625 -1.21875,-3.90625 -1.21875,-3.84375 -1.21875,-3.78125 -1.1875,-3.75 -1.15625,-3.59375 -1.125,-3.5 -1.0625,-3.34375 -1.03125,-3.21875 -0.96875,-3.03125 -0.90625,-2.8125 -0.8125,-2.625 -0.78125,-2.375 -0.6875,-2.15625 -0.59375,-1.84375 -0.46875,-1.5625 -0.40625,-1.25 -0.3125,-0.90625 -0.15625,-0.5625 c -0.175,-0.176 -0.34375,-0.1875 -0.34375,-0.1875 l -0.4375,0 -0.3125,0 -0.375,0 -0.375,0 -0.4375,0 -0.4375,0 -0.5,0 -0.53125,0 -0.5625,0 -0.5625,0 -0.59375,0 -0.625,0 -0.59375,0 -0.65625,0 -0.625,0 -0.65625,0 -0.625,0 -0.625,0 -0.65625,0 -0.59375,0 -0.625,0 -0.59375,0 -0.5625,0 -0.5625,0 -0.53125,0 -0.46875,0 -0.46875,0 -0.4375,0 -0.40625,0 -0.34375,0 -0.3125,0 -0.25,0 -0.34375,0 z m 7.9375,12.6875 c 0.045,-0.086 16.21875,54.75 16.21875,54.75 l -0.25,0 -0.28125,0 -0.375,0 -0.46875,0 -0.59375,0 -0.65625,0 -0.71875,0 -0.8125,0 -0.875,0 -0.96875,0 -1,0 -1.03125,0 -1.0625,0 -1.15625,0 -1.125,0 -1.1875,0 -1.1875,0 -1.21875,0 -1.21875,0 -1.21875,0 -1.21875,0 -1.1875,0 -1.15625,0 -1.15625,0 -1.125,0 -1.09375,0 -1.03125,0 -1,0 -0.9375,0 -0.875,0 -0.8125,0 -0.75,0 -0.65625,0 -0.5625,0 -0.5,0 -0.375,0 -0.28125,0 -0.25,0 c 0.044,-0.133 0.125,-0.375 0.125,-0.375 l 0.125,-0.5 0.21875,-0.65625 0.21875,-0.8125 0.28125,-0.96875 0.34375,-1.15625 0.375,-1.21875 0.40625,-1.375 0.4375,-1.5 0.46875,-1.625 0.5,-1.65625 0.5,-1.75 0.5625,-1.84375 L 156.5,590 l 0.59375,-1.96875 0.59375,-1.96875 0.5625,-2.03125 0.59375,-2.0625 0.625,-2.0625 0.625,-2.0625 0.59375,-2 0.59375,-2.03125 0.59375,-2.03125 0.5625,-1.9375 0.5625,-1.875 0.5625,-1.84375 0.5,-1.8125 0.5,-1.65625 0.46875,-1.59375 0.4375,-1.46875 0.40625,-1.40625 0.375,-1.25 0.34375,-1.125 0.28125,-0.96875 0.25,-0.84375 0.1875,-0.625 0.125,-0.46875 0.0937,-0.3125 z"
   style="fill:#000000;fill-opacity:1;stroke:none"
   inkscape:connector-curvature="0" />
</g><g
     style="fill:#000000;fill-opacity:1;stroke:none"
     id="LWPOLYLINE_4_">
	
		<path
   style="fill:#000000;fill-opacity:1;stroke:none"
   id="path16"
   d="m 285.39,567.793 -0.044,-1.625 -0.044,-1.537 -0.088,-1.492 -0.132,-1.449 -0.176,-1.361 -0.219,-1.361 -0.22,-1.318 -0.308,-1.229 -0.308,-1.23 -0.351,-1.141 -0.396,-1.143 -0.439,-1.053 -0.482,-1.012 -0.527,-1.01 -0.549,-0.922 -0.593,-0.922 -0.637,-0.834 -0.681,-0.791 -0.703,-0.789 -0.768,-0.748 -0.791,-0.658 -0.834,-0.658 -0.878,-0.615 -0.923,-0.57 -0.966,-0.527 -0.988,-0.482 -1.054,-0.484 -1.076,-0.395 -1.119,-0.395 -1.164,-0.352 -1.229,-0.309 -1.251,-0.262 -1.296,-0.264 -1.317,-0.176 -1.383,-0.176 -1.428,-0.133 -1.471,-0.131 -1.515,-0.088 -1.537,-0.045 h -1.603 -1.603 l -1.56,0.088 -1.515,0.133 -1.471,0.131 -1.449,0.221 -1.384,0.264 -1.361,0.307 -1.317,0.307 -1.273,0.396 -1.229,0.439 -1.207,0.482 -1.142,0.482 -1.12,0.57 -1.076,0.615 -1.031,0.615 -0.988,0.703 -0.944,0.701 -0.922,0.791 -0.856,0.791 -0.834,0.834 -0.791,0.879 -0.746,0.922 -0.702,0.965 -0.681,0.967 -0.615,1.055 -0.593,1.053 -0.549,1.098 -0.505,1.143 -0.461,1.186 -0.439,1.186 -0.373,1.273 -0.352,1.273 -0.308,1.316 -0.263,1.318 -0.22,1.404 -0.176,1.406 -0.132,1.449 -0.109,1.449 -0.066,1.535 -0.021,1.537 c 0,0.045 0,0.221 0,0.221 v 0.307 0.396 0.525 0.615 0.703 0.789 0.836 0.922 1.01 1.053 1.1 1.141 1.186 1.23 1.229 1.273 1.273 1.273 1.273 1.273 1.273 1.23 1.229 1.186 1.143 1.098 1.053 0.967 0.922 0.881 0.791 0.701 0.572 0.525 0.396 0.307 c 0,0.176 0,0.264 0,0.264 l 0.021,2.107 0.066,2.064 0.109,2.02 0.132,1.932 0.176,1.889 0.22,1.801 0.263,1.756 0.308,1.668 0.352,1.625 0.375,1.582 0.439,1.537 0.461,1.449 0.505,1.404 0.549,1.316 0.593,1.273 0.615,1.23 0.681,1.186 0.702,1.098 0.746,1.098 0.791,0.967 0.834,0.965 0.856,0.879 0.922,0.879 0.944,0.789 0.988,0.748 1.031,0.658 1.076,0.658 1.12,0.57 1.142,0.527 1.207,0.527 1.229,0.439 1.273,0.352 1.317,0.352 1.361,0.307 1.384,0.264 1.449,0.176 1.471,0.176 1.515,0.088 1.56,0.088 h 1.603 1.01 0.966 l 0.988,-0.045 0.944,-0.043 0.943,-0.045 0.923,-0.088 0.922,-0.088 0.9,-0.088 0.878,-0.088 0.856,-0.131 0.856,-0.133 0.856,-0.131 0.834,-0.133 0.812,-0.174 0.812,-0.176 0.812,-0.176 0.79,-0.176 0.79,-0.221 0.769,-0.176 0.747,-0.219 0.769,-0.219 0.746,-0.264 0.746,-0.221 0.725,-0.264 0.725,-0.264 0.725,-0.262 0.703,-0.264 0.702,-0.264 0.702,-0.264 0.703,-0.307 0.702,-0.309 0.681,-0.264 0.681,-0.307 0.681,-0.309 0.681,-0.35 0.681,-0.309 0.681,-0.307 0.681,-0.352 0.659,-0.307 0.702,-0.352 c 0,-0.088 0,-0.352 0,-0.352 v -0.439 -0.615 -0.746 -0.922 -1.01 -1.143 -1.273 -1.361 -1.449 -1.58 -1.625 -1.668 -1.756 -1.801 -1.801 -1.889 -1.844 -1.889 -1.889 -1.887 -1.846 -1.844 -1.801 -1.756 -1.668 -1.625 -1.537 -1.494 -1.361 -1.229 -1.186 -1.01 -0.879 -0.791 -0.57 -0.439 -0.307 c -0.088,-0.088 -0.264,-0.088 -0.264,-0.088 h -0.263 -0.396 -0.483 -0.57 -0.659 -0.746 -0.812 -0.878 -0.944 -0.988 -1.054 -1.076 -1.119 -1.164 -1.164 -1.207 -1.208 -1.207 -1.208 -1.207 -1.186 -1.185 -1.164 -1.12 -1.075 -1.054 -0.988 -0.944 -0.878 -0.812 -0.725 -0.681 -0.571 -0.482 -0.396 -0.264 c -0.176,0 -0.241,0 -0.241,0 0,0.176 0,0.352 0,0.352 0,0.176 0,0.352 0,0.352 v 0.264 0.264 0.307 0.307 0.352 0.352 0.352 0.395 0.396 0.438 0.439 0.396 0.438 0.439 0.439 0.439 0.439 0.439 0.395 0.395 0.396 0.395 0.352 0.352 0.307 0.307 0.264 0.221 c 0,0.219 0,0.395 0,0.395 0,0.133 0,0.264 0,0.264 0.132,0.043 0.308,0.043 0.308,0.043 h 0.22 0.285 0.329 0.396 0.417 0.483 0.505 0.549 0.593 0.593 0.637 0.658 0.681 0.681 0.703 0.702 0.703 0.702 0.702 0.703 0.681 0.681 0.658 0.637 0.593 0.593 0.549 0.506 0.482 0.417 0.396 0.329 0.286 0.219 c 0.176,0 0.264,0 0.264,0 0.044,0.264 0.044,0.527 0.044,0.527 v 0.352 0.439 0.57 0.615 0.703 0.746 0.834 0.922 0.922 0.967 1.055 1.053 1.098 1.098 1.143 1.141 1.143 1.141 1.143 1.098 1.143 1.053 1.098 1.01 0.967 0.967 0.877 0.834 0.748 0.701 0.615 0.57 0.439 0.396 0.264 c 0,0.219 -0.197,0.395 -0.197,0.395 -0.241,0.219 -0.461,0.439 -0.461,0.439 l -0.264,0.176 -0.264,0.219 -0.264,0.176 -0.285,0.219 -0.308,0.176 -0.307,0.221 -0.33,0.176 -0.351,0.176 -0.352,0.176 -0.352,0.219 -0.373,0.176 -0.396,0.176 -0.395,0.176 -0.418,0.131 -0.438,0.176 -0.439,0.176 -0.439,0.131 -0.461,0.176 -0.482,0.133 -0.483,0.131 -0.483,0.133 -0.505,0.131 -0.526,0.133 -0.527,0.088 -0.549,0.131 -0.549,0.088 -0.571,0.088 -0.57,0.088 -0.593,0.088 -0.593,0.043 -0.593,0.088 -0.615,0.045 -0.637,0.043 -0.637,0.045 h -0.658 l -0.659,0.043 h -0.658 l -0.944,-0.043 h -0.9 l -0.878,-0.088 -0.878,-0.088 -0.835,-0.088 -0.812,-0.176 -0.79,-0.176 -0.769,-0.176 -0.746,-0.264 -0.703,-0.264 -0.702,-0.307 -0.681,-0.307 -0.637,-0.352 -0.637,-0.439 -0.593,-0.439 -0.593,-0.482 -0.549,-0.484 -0.527,-0.57 -0.505,-0.615 -0.483,-0.613 -0.461,-0.66 -0.438,-0.746 -0.418,-0.746 -0.395,-0.834 -0.352,-0.834 -0.352,-0.922 -0.329,-0.967 -0.285,-0.967 -0.264,-1.053 -0.264,-1.098 -0.22,-1.186 -0.197,-1.186 -0.176,-1.273 -0.153,-1.273 -0.132,-1.406 -0.11,-1.404 -0.087,-1.494 -0.044,-1.537 -0.044,-1.58 v -1.668 c 0,-0.045 0,-0.221 0,-0.221 v -0.307 -0.439 -0.527 -0.615 -0.701 -0.834 -0.879 -0.922 -1.055 -1.053 -1.143 -1.186 -1.186 -1.273 -1.273 -1.273 -1.318 -1.316 -1.316 -1.318 -1.273 -1.273 -1.273 -1.186 -1.186 -1.143 -1.053 -1.055 -0.922 -0.879 -0.834 -0.701 -0.615 -0.527 -0.439 -0.307 c 0,-0.176 0,-0.221 0,-0.221 l 0.021,-1.58 0.066,-1.537 0.131,-1.404 0.176,-1.361 0.22,-1.318 0.264,-1.186 0.308,-1.186 0.351,-1.053 0.374,-1.055 0.395,-0.967 0.439,-0.877 0.483,-0.879 0.482,-0.791 0.527,-0.746 0.549,-0.658 0.57,-0.658 0.571,-0.572 0.593,-0.57 0.615,-0.482 0.614,-0.484 0.637,-0.395 0.615,-0.395 0.637,-0.352 0.658,-0.307 0.637,-0.264 0.637,-0.264 0.615,-0.176 0.637,-0.221 0.614,-0.131 0.593,-0.176 0.593,-0.088 0.571,-0.088 0.549,-0.088 0.526,-0.088 0.505,-0.043 h 0.483 l 0.461,-0.045 h 0.417 0.396 0.352 0.922 l 0.9,0.045 0.878,0.043 0.835,0.088 0.812,0.088 0.791,0.133 0.746,0.174 0.725,0.176 0.703,0.176 0.658,0.221 0.659,0.264 0.614,0.264 0.593,0.307 0.571,0.307 0.526,0.352 0.527,0.352 0.482,0.395 0.462,0.439 0.438,0.439 0.417,0.439 0.396,0.482 0.373,0.527 0.33,0.527 0.329,0.527 0.308,0.613 0.285,0.572 0.264,0.658 0.219,0.615 0.22,0.701 0.198,0.703 0.175,0.703 0.154,0.746 0.132,0.746 0.132,0.791 0.088,0.834 0.087,0.834 0.066,0.879 0.021,0.879 0.044,0.877 v 0.967 h 14.403 z"
   stroke-miterlimit="10"
   inkscape:connector-curvature="0" />
</g><g
     style="fill:#000000;fill-opacity:1;stroke:none"
     id="LWPOLYLINE_5_">
	
		<path
   style="fill:#000000;fill-opacity:1;stroke:none"
   id="path19"
   d="m 361.84,644.199 c 0,-0.176 0,-0.309 0,-0.309 0,-0.176 0,-0.395 0,-0.395 v -0.219 -0.264 -0.309 -0.307 -0.352 -0.352 -0.395 -0.395 -0.396 -0.395 -0.439 -0.439 -0.439 -0.438 -0.439 -0.439 -0.395 -0.439 -0.439 -0.395 -0.396 -0.352 -0.35 -0.352 -0.309 -0.307 -0.264 -0.264 c 0,-0.176 0,-0.352 0,-0.352 0,-0.176 0,-0.264 0,-0.264 -0.088,-0.088 -0.308,-0.088 -0.308,-0.088 h -0.351 -0.483 -0.615 -0.702 -0.834 -0.923 -1.01 -1.098 -1.186 -1.273 -1.273 -1.361 -1.405 -1.449 -1.449 -1.492 -1.537 -1.493 -1.537 -1.493 -1.492 -1.493 -1.405 -1.405 -1.361 -1.317 -1.229 -1.186 -1.098 -1.01 -0.923 -0.834 -0.703 -0.614 -0.483 -0.351 c -0.22,0 -0.308,0 -0.308,0 0,-0.043 0,-0.264 0,-0.264 v -0.307 -0.439 -0.527 -0.658 -0.701 -0.836 -0.922 -0.965 -1.055 -1.098 -1.143 -1.229 -1.23 -1.273 -1.316 -1.318 -1.361 -1.316 -1.361 -1.361 -1.316 -1.318 -1.273 -1.229 -1.23 -1.143 -1.098 -1.053 -0.967 -0.922 -0.791 -0.746 -0.658 -0.527 -0.439 -0.307 c 0,-0.176 0,-0.264 0,-0.264 0.044,0 0.264,0 0.264,0 h 0.307 0.439 0.571 0.658 0.747 0.834 0.922 1.01 1.098 1.099 1.186 1.229 1.317 1.317 1.317 1.361 1.36 1.405 1.361 1.405 1.361 1.317 1.317 1.273 1.229 1.186 1.142 1.054 1.011 0.922 0.834 0.791 0.658 0.527 0.438 0.352 c 0.176,0 0.264,0 0.264,0 0,-0.176 0,-0.307 0,-0.307 0,-0.176 0,-0.396 0,-0.396 v -0.264 -0.264 -0.262 -0.352 -0.309 -0.352 -0.395 -0.395 -0.396 -0.438 -0.396 -0.439 -0.438 -0.439 -0.439 -0.439 -0.439 -0.395 -0.439 -0.395 -0.396 -0.395 -0.352 -0.352 -0.307 -0.307 -0.264 -0.221 c 0,-0.219 0,-0.395 0,-0.395 0,-0.131 0,-0.219 0,-0.219 -0.088,-0.088 -0.264,-0.088 -0.264,-0.088 h -0.352 -0.438 -0.527 -0.658 -0.791 -0.834 -0.922 -1.011 -1.054 -1.142 -1.186 -1.229 -1.273 -1.317 -1.317 -1.361 -1.405 -1.361 -1.405 -1.36 -1.361 -1.317 -1.317 -1.317 -1.229 -1.186 -1.099 -1.098 -1.01 -0.922 -0.834 -0.747 -0.658 -0.571 -0.439 -0.307 c -0.22,0 -0.264,0 -0.264,0 0,-0.088 0,-0.264 0,-0.264 v -0.264 -0.396 -0.525 -0.572 -0.701 -0.748 -0.834 -0.922 -0.965 -1.012 -1.053 -1.143 -1.141 -1.186 -1.186 -1.23 -1.273 -1.229 -1.23 -1.273 -1.22 -1.186 -1.186 -1.143 -1.143 -1.053 -1.055 -0.965 -0.879 -0.834 -0.746 -0.703 -0.57 -0.527 -0.396 -0.262 c 0,-0.221 0,-0.264 0,-0.264 0.088,0 0.264,0 0.264,0 h 0.351 0.483 0.615 0.702 0.79 0.923 0.966 1.098 1.142 1.229 1.273 1.317 1.361 1.405 1.449 1.449 1.492 1.449 1.493 1.493 1.449 1.449 1.405 1.361 1.317 1.273 1.229 1.142 1.098 0.966 0.922 0.791 0.702 0.615 0.482 0.308 c 0.22,0 0.308,0 0.308,0 0,-0.176 0,-0.309 0,-0.309 0,-0.176 0,-0.395 0,-0.395 v -0.264 -0.264 -0.264 -0.352 -0.307 -0.352 -0.395 -0.396 -0.39 -0.439 -0.395 -0.439 -0.439 -0.439 -0.438 -0.439 -0.439 -0.395 -0.439 -0.396 -0.395 -0.395 -0.352 -0.352 -0.307 -0.309 -0.264 -0.219 c 0,-0.219 0,-0.395 0,-0.395 0,-0.133 0,-0.221 0,-0.221 -0.088,-0.088 -0.396,-0.088 -0.396,-0.088 h -0.439 -0.614 -0.79 -0.923 -1.054 -1.186 -1.317 -1.449 -1.493 -1.624 -1.669 -1.757 -1.8 -1.845 -1.888 -1.933 -1.932 -1.977 -1.932 -1.977 -1.932 -1.889 -1.844 -1.801 -1.756 -1.669 -1.625 -1.493 -1.405 -1.317 -1.186 -1.098 -0.922 -0.79 -0.615 -0.439 -0.307 c -0.088,0.176 -0.088,0.746 -0.088,0.746 v 0.924 1.229 1.58 1.846 2.15 2.371 2.635 2.811 3.031 3.205 3.338 3.512 3.602 3.732 3.775 3.865 3.908 3.908 3.908 3.863 3.865 3.775 3.732 3.602 3.512 3.338 3.205 3.031 2.854 2.592 2.414 2.107 1.846 1.58 1.229 0.924 0.57 c 0.005,0.178 53.094,0.178 53.094,0.178 z"
   stroke-miterlimit="10"
   inkscape:connector-curvature="0" />
</g><g
     style="fill:#000000;fill-opacity:1;stroke:none"
     id="LWPOLYLINE_6_">
	
		<path
   style="fill:#000000;fill-opacity:1;stroke:none"
   id="path22"
   d="m 406.806,605.557 v 2.107 l 0.044,2.064 0.132,2.02 0.132,1.932 0.175,1.889 0.22,1.801 0.264,1.756 0.308,1.668 0.352,1.625 0.395,1.582 0.396,1.537 0.483,1.449 0.482,1.404 0.571,1.316 0.57,1.273 0.659,1.23 0.658,1.186 0.703,1.098 0.746,1.098 0.79,0.967 0.835,0.965 0.878,0.879 0.878,0.879 0.967,0.789 1.01,0.748 1.01,0.658 1.054,0.658 1.142,0.57 1.142,0.527 1.187,0.527 1.229,0.439 1.273,0.352 1.317,0.352 1.36,0.307 1.405,0.264 1.449,0.176 1.449,0.176 1.537,0.088 1.537,0.088 h 1.624 1.581 l 1.581,-0.088 1.493,-0.088 1.493,-0.176 1.448,-0.176 1.361,-0.264 1.361,-0.307 1.317,-0.352 1.273,-0.352 1.229,-0.439 1.229,-0.527 1.142,-0.527 1.099,-0.57 1.098,-0.658 1.01,-0.658 1.01,-0.748 0.922,-0.789 0.923,-0.879 0.878,-0.879 0.834,-0.965 0.791,-0.967 0.746,-1.098 0.703,-1.098 0.658,-1.186 0.615,-1.23 0.614,-1.273 0.527,-1.316 0.526,-1.404 0.439,-1.449 0.439,-1.537 0.395,-1.582 0.352,-1.625 0.308,-1.668 0.264,-1.756 0.219,-1.801 0.176,-1.889 0.132,-1.932 0.088,-2.02 0.088,-2.064 v -2.107 c 0,-0.131 0,-0.482 0,-0.482 v -0.572 -0.789 -0.967 -1.186 -1.361 -1.492 -1.625 -1.801 -1.889 -2.02 -2.107 -2.195 -2.283 -2.328 -2.416 -2.414 -2.459 -2.459 -2.459 -2.416 -2.459 -2.371 -2.326 -2.285 -2.195 -2.107 -2.02 -1.932 -1.758 -1.668 -1.492 -1.318 -1.186 -0.965 -0.791 -0.57 -0.352 c -0.22,-0.133 -0.396,-0.133 -0.396,-0.133 -0.176,0 -0.438,0 -0.438,0 h -0.264 -0.308 -0.352 -0.351 -0.396 -0.396 -0.438 -0.439 -0.483 -0.482 -0.483 -0.527 -0.482 -0.527 -0.482 -0.483 -0.527 -0.482 -0.483 -0.482 -0.439 -0.439 -0.395 -0.396 -0.352 -0.352 -0.307 -0.264 -0.264 c -0.22,0 -0.352,0 -0.352,0 -0.219,0.133 -0.219,0.484 -0.219,0.484 v 0.57 0.791 1.01 1.186 1.361 1.492 1.668 1.846 1.932 2.02 2.152 2.238 2.283 2.373 2.414 2.459 2.504 2.502 2.459 2.504 2.459 2.414 2.371 2.283 2.24 2.152 2.062 1.934 1.799 1.67 1.492 1.361 1.186 1.01 0.791 0.57 0.396 c 0,0.088 0,1.756 0,1.756 l -0.044,1.58 -0.088,1.537 -0.044,1.494 -0.132,1.404 -0.132,1.406 -0.132,1.273 -0.176,1.273 -0.22,1.186 -0.22,1.186 -0.263,1.098 -0.264,1.053 -0.308,0.967 -0.308,0.967 -0.351,0.922 -0.352,0.834 -0.396,0.834 -0.395,0.746 -0.439,0.746 -0.483,0.66 -0.482,0.613 -0.483,0.615 -0.527,0.57 -0.57,0.484 -0.571,0.482 -0.614,0.439 -0.615,0.439 -0.658,0.352 -0.659,0.307 -0.702,0.307 -0.703,0.264 -0.746,0.264 -0.79,0.176 -0.791,0.176 -0.79,0.176 -0.878,0.088 -0.835,0.088 -0.878,0.088 h -0.922 l -0.923,0.043 -0.922,-0.043 h -0.922 l -0.878,-0.088 -0.879,-0.088 -0.834,-0.088 -0.834,-0.176 -0.791,-0.176 -0.746,-0.176 -0.747,-0.264 -0.702,-0.264 -0.703,-0.307 -0.702,-0.307 -0.615,-0.352 -0.658,-0.439 -0.571,-0.439 -0.57,-0.482 -0.571,-0.484 -0.526,-0.57 -0.527,-0.615 -0.482,-0.613 -0.439,-0.66 -0.439,-0.746 -0.438,-0.746 -0.352,-0.834 -0.396,-0.834 -0.352,-0.922 -0.307,-0.967 -0.308,-0.967 -0.264,-1.053 -0.22,-1.098 -0.264,-1.186 -0.175,-1.186 -0.176,-1.273 -0.176,-1.273 -0.132,-1.406 -0.088,-1.404 -0.088,-1.494 -0.044,-1.537 -0.044,-1.58 v -1.668 c 0,-0.088 0,-0.484 0,-0.484 v -0.57 -0.791 -1.01 -1.186 -1.361 -1.492 -1.67 -1.799 -1.934 -2.062 -2.152 -2.24 -2.284 -2.371 -2.414 -2.459 -2.504 -2.459 -2.502 -2.504 -2.459 -2.414 -2.373 -2.283 -2.238 -2.152 -2.02 -1.932 -1.846 -1.668 -1.492 -1.361 -1.186 -1.01 -0.791 -0.57 -0.352 c -0.22,-0.133 -0.395,-0.133 -0.395,-0.133 -0.176,0 -0.439,0 -0.439,0 h -0.264 -0.308 -0.351 -0.352 -0.396 -0.438 -0.439 -0.439 -0.438 -0.483 -0.527 -0.482 -0.483 -0.526 -0.483 -0.527 -0.482 -0.483 -0.483 -0.482 -0.439 -0.438 -0.439 -0.352 -0.396 -0.351 -0.308 -0.264 -0.22 c -0.219,0 -0.395,0 -0.395,0 -0.177,10e-4 -0.177,65.65 -0.177,65.65 z"
   stroke-miterlimit="10"
   inkscape:connector-curvature="0" />
</g><g
     style="fill:#000000;fill-opacity:1;stroke:none"
     id="LINE_11_">
	
		<path
   sodipodi:nodetypes="ccccc"
   inkscape:connector-curvature="0"
   id="line64"
   d="m 122.609,295.27701 370.52699,0 0,17.104 -370.52699,0 z"
   style="fill:#000000;fill-opacity:1;stroke:none" />
</g><g
     style="fill:#000000;fill-opacity:1;stroke:none"
     id="LINE_18_">
	
		<path
   sodipodi:nodetypes="ccccc"
   inkscape:connector-curvature="0"
   id="line85"
   d="m 227.821,263.814 265.31499,0 0,-17.08201 -265.31499,0 z"
   style="fill:#000000;fill-opacity:1;stroke:none" />
</g><g
     style="fill:#000000;fill-opacity:1;stroke:none"
     id="LINE_21_">
	
		<path
   sodipodi:nodetypes="ccccc"
   inkscape:connector-curvature="0"
   id="line94"
   d="m 227.821,214.34801 265.31499,0 0,-15.28202 -265.31499,0 z"
   style="fill:#000000;fill-opacity:1;stroke:none" />
</g></g>
<g
   id="LINE_22_"
   transform="translate(209.92821,-132.65305)">
	
		
</g>
<g
   id="LINE_23_"
   transform="translate(209.92821,-132.65305)">
	
		
</g>
<g
   id="LINE_24_"
   transform="translate(209.92821,-132.65305)">
	
		
</g>
<g
   id="LINE_25_"
   transform="translate(209.92821,-132.65305)">
	
		
</g>
</svg>