<?xml version="1.0" encoding="UTF-8" standalone="no"?>
<!-- Generator: Adobe Illustrator 16.0.1, SVG Export Plug-In . SVG Version: 6.00 Build 0)  -->

<svg
   xmlns:dc="http://purl.org/dc/elements/1.1/"
   xmlns:cc="http://creativecommons.org/ns#"
   xmlns:rdf="http://www.w3.org/1999/02/22-rdf-syntax-ns#"
   xmlns:svg="http://www.w3.org/2000/svg"
   xmlns="http://www.w3.org/2000/svg"
   xmlns:xlink="http://www.w3.org/1999/xlink"
   xmlns:sodipodi="http://sodipodi.sourceforge.net/DTD/sodipodi-0.dtd"
   xmlns:inkscape="http://www.inkscape.org/namespaces/inkscape"
   version="1.0"
   id="_x31_"
   x="0px"
   y="0px"
   width="350"
   height="350"
   viewBox="0 0 350 350"
   enable-background="new 0 0 612 792"
   xml:space="preserve"
   inkscape:version="0.48.3.1 r9886"
   sodipodi:docname="6009.svg"><metadata
   id="metadata37"><rdf:RDF><cc:Work
       rdf:about=""><dc:format>image/svg+xml</dc:format><dc:type
         rdf:resource="http://purl.org/dc/dcmitype/StillImage" /></cc:Work></rdf:RDF></metadata><defs
   id="defs35"><linearGradient
     id="linearGradient5443-5"><stop
       style="stop-color:#ffffff;stop-opacity:0;"
       offset="0"
       id="stop5445-4" /><stop
       style="stop-color:#000000;stop-opacity:0.33962265;"
       offset="1"
       id="stop5447-3" /></linearGradient><radialGradient
     r="333.18735"
     fy="710.99164"
     fx="373.24265"
     cy="710.99164"
     cx="373.24265"
     gradientTransform="matrix(0.9503534,1.1750652e-7,-5.6287062e-8,0.3462676,317.80591,185.68771)"
     gradientUnits="userSpaceOnUse"
     id="radialGradient4835-3"
     xlink:href="#linearGradient5443-5"
     inkscape:collect="always" /><filter
     color-interpolation-filters="sRGB"
     id="filter5511"
     inkscape:collect="always"><feGaussianBlur
       id="feGaussianBlur5513"
       stdDeviation="3.2374974"
       inkscape:collect="always" /></filter><radialGradient
     r="333.18735"
     fy="710.99164"
     fx="373.24265"
     cy="710.99164"
     cx="373.24265"
     gradientTransform="matrix(0.86272608,1.0667183e-7,-5.1097115e-8,0.31434,-116.61061,857.47067)"
     gradientUnits="userSpaceOnUse"
     id="radialGradient4835"
     xlink:href="#linearGradient5443"
     inkscape:collect="always" /><radialGradient
     r="333.18735"
     fy="467.91885"
     fx="373.24265"
     cy="467.91885"
     cx="373.24265"
     gradientTransform="matrix(0.83535071,2.5391117e-7,-2.4564601e-7,0.80815889,-106.39297,572.76002)"
     gradientUnits="userSpaceOnUse"
     id="radialGradient4832"
     xlink:href="#linearGradient5443"
     inkscape:collect="always" /><linearGradient
     y2="254.73526"
     x2="123.47623"
     y1="344.03848"
     x1="123.50603"
     gradientTransform="matrix(2.3189708,0,0,2.0930998,-46.522433,209.77341)"
     gradientUnits="userSpaceOnUse"
     id="linearGradient4827"
     xlink:href="#linearGradient3187"
     inkscape:collect="always" /><linearGradient
     y2="254.73526"
     x2="123.47623"
     y1="344.03848"
     x1="123.50603"
     gradientTransform="matrix(2.3189708,0,0,2.0930998,93.115298,-256.84999)"
     gradientUnits="userSpaceOnUse"
     id="linearGradient4824"
     xlink:href="#linearGradient3187"
     inkscape:collect="always" /><radialGradient
     r="333.18735"
     fy="467.91885"
     fx="373.24265"
     cy="467.91885"
     cx="373.24265"
     gradientTransform="matrix(0.9201975,2.7970099e-7,-2.7059634e-7,0.8902438,28.590287,48.634335)"
     gradientUnits="userSpaceOnUse"
     id="radialGradient4822"
     xlink:href="#linearGradient3171"
     inkscape:collect="always" /><radialGradient
     r="333.18735"
     fy="710.99164"
     fx="373.24265"
     cy="710.99164"
     cx="373.24265"
     gradientTransform="matrix(0.9503534,1.1750652e-7,-5.6287062e-8,0.3462676,17.334826,362.44227)"
     gradientUnits="userSpaceOnUse"
     id="radialGradient4820"
     xlink:href="#linearGradient3157"
     inkscape:collect="always" /><radialGradient
     r="333.18735"
     fy="710.99164"
     fx="373.24265"
     cy="710.99164"
     cx="373.24265"
     gradientTransform="matrix(0.9503534,1.1750652e-7,-5.6287062e-8,0.3462676,17.334826,362.44227)"
     gradientUnits="userSpaceOnUse"
     id="radialGradient4805"
     xlink:href="#linearGradient3157"
     inkscape:collect="always" /><radialGradient
     r="333.18735"
     fy="467.91885"
     fx="373.24265"
     cy="467.91885"
     cx="373.24265"
     gradientTransform="matrix(0.9201975,2.7970099e-7,-2.7059634e-7,0.8902438,28.590287,48.634335)"
     gradientUnits="userSpaceOnUse"
     id="radialGradient4802"
     xlink:href="#linearGradient3171"
     inkscape:collect="always" /><linearGradient
     y2="254.73526"
     x2="123.47623"
     y1="344.03848"
     x1="123.50603"
     gradientTransform="matrix(2.3189708,0,0,2.0930998,93.115298,-256.84999)"
     gradientUnits="userSpaceOnUse"
     id="linearGradient4799"
     xlink:href="#linearGradient3187"
     inkscape:collect="always" /><linearGradient
     y2="254.73526"
     x2="123.47623"
     y1="344.03848"
     x1="123.50603"
     gradientTransform="matrix(2.3189708,0,0,2.0930998,93.115298,-256.84999)"
     gradientUnits="userSpaceOnUse"
     id="linearGradient4794"
     xlink:href="#linearGradient3187"
     inkscape:collect="always" /><radialGradient
     r="333.18735"
     fy="467.91885"
     fx="373.24265"
     cy="467.91885"
     cx="373.24265"
     gradientTransform="matrix(0.9201975,2.7970099e-7,-2.7059634e-7,0.8902438,28.590287,48.634335)"
     gradientUnits="userSpaceOnUse"
     id="radialGradient4792"
     xlink:href="#linearGradient3171"
     inkscape:collect="always" /><radialGradient
     r="333.18735"
     fy="710.99164"
     fx="373.24265"
     cy="710.99164"
     cx="373.24265"
     gradientTransform="matrix(0.9503534,1.1750652e-7,-5.6287062e-8,0.3462676,17.334826,362.44227)"
     gradientUnits="userSpaceOnUse"
     id="radialGradient4790"
     xlink:href="#linearGradient3157"
     inkscape:collect="always" /><radialGradient
     r="333.18735"
     fy="710.99164"
     fx="373.24265"
     cy="710.99164"
     cx="373.24265"
     gradientTransform="matrix(0.9503534,1.1750652e-7,-5.6287062e-8,0.3462676,17.334826,362.44227)"
     gradientUnits="userSpaceOnUse"
     id="radialGradient4779"
     xlink:href="#linearGradient3157"
     inkscape:collect="always" /><radialGradient
     r="333.18735"
     fy="467.91885"
     fx="373.24265"
     cy="467.91885"
     cx="373.24265"
     gradientTransform="matrix(0.9201975,2.7970099e-7,-2.7059634e-7,0.8902438,28.590287,48.634335)"
     gradientUnits="userSpaceOnUse"
     id="radialGradient4776"
     xlink:href="#linearGradient3171"
     inkscape:collect="always" /><linearGradient
     y2="254.73526"
     x2="123.47623"
     y1="344.03848"
     x1="123.50603"
     gradientTransform="matrix(2.3189708,0,0,2.0930998,93.115298,-256.84999)"
     gradientUnits="userSpaceOnUse"
     id="linearGradient4773"
     xlink:href="#linearGradient3187"
     inkscape:collect="always" /><linearGradient
     y2="254.73526"
     x2="123.47623"
     y1="344.03848"
     x1="123.50603"
     gradientTransform="matrix(2.3189708,0,0,2.0930998,93.115298,-256.84999)"
     gradientUnits="userSpaceOnUse"
     id="linearGradient4770"
     xlink:href="#linearGradient3187"
     inkscape:collect="always" /><radialGradient
     r="333.18735"
     fy="467.91885"
     fx="373.24265"
     cy="467.91885"
     cx="373.24265"
     gradientTransform="matrix(0.9201975,2.7970099e-7,-2.7059634e-7,0.8902438,28.590287,48.634335)"
     gradientUnits="userSpaceOnUse"
     id="radialGradient4768"
     xlink:href="#linearGradient3171"
     inkscape:collect="always" /><radialGradient
     r="333.18735"
     fy="710.99164"
     fx="373.24265"
     cy="710.99164"
     cx="373.24265"
     gradientTransform="matrix(0.9503534,1.1750652e-7,-5.6287062e-8,0.3462676,17.334826,362.44227)"
     gradientUnits="userSpaceOnUse"
     id="radialGradient4766"
     xlink:href="#linearGradient3157"
     inkscape:collect="always" /><filter
     color-interpolation-filters="sRGB"
     id="filter4659"
     inkscape:collect="always"><feGaussianBlur
       id="feGaussianBlur4661"
       stdDeviation="2.7750933"
       inkscape:collect="always" /></filter><radialGradient
     r="333.18735"
     fy="710.99164"
     fx="373.24265"
     cy="710.99164"
     cx="373.24265"
     gradientTransform="matrix(0.9503534,1.1750652e-7,-5.6287062e-8,0.3462676,17.334826,362.44227)"
     gradientUnits="userSpaceOnUse"
     id="radialGradient4572"
     xlink:href="#linearGradient3157"
     inkscape:collect="always" /><radialGradient
     r="333.18735"
     fy="467.91885"
     fx="373.24265"
     cy="467.91885"
     cx="373.24265"
     gradientTransform="matrix(0.9201975,2.7970099e-7,-2.7059634e-7,0.8902438,28.590287,48.634335)"
     gradientUnits="userSpaceOnUse"
     id="radialGradient4569"
     xlink:href="#linearGradient3171"
     inkscape:collect="always" /><linearGradient
     y2="254.73526"
     x2="123.47623"
     y1="344.03848"
     x1="123.50603"
     gradientTransform="matrix(2.3189708,0,0,2.0930998,93.115298,-256.84999)"
     gradientUnits="userSpaceOnUse"
     id="linearGradient4562"
     xlink:href="#linearGradient3187"
     inkscape:collect="always" /><linearGradient
     gradientUnits="userSpaceOnUse"
     y2="540.86719"
     x2="360.49777"
     y1="167.50403"
     x1="360.49777"
     id="linearGradient4401"
     xlink:href="#linearGradient4395"
     inkscape:collect="always" /><linearGradient
     gradientUnits="userSpaceOnUse"
     y2="655.4505"
     x2="396.91168"
     y1="298.59412"
     x1="371.42194"
     id="linearGradient4389"
     xlink:href="#linearGradient4383"
     inkscape:collect="always" /><inkscape:perspective
     id="perspective3214"
     inkscape:persp3d-origin="372.04724 : 350.78739 : 1"
     inkscape:vp_z="744.09448 : 526.18109 : 1"
     inkscape:vp_y="0 : 1000 : 0"
     inkscape:vp_x="0 : 526.18109 : 1"
     sodipodi:type="inkscape:persp3d" /><linearGradient
     id="linearGradient4383"><stop
       id="stop4385"
       offset="0"
       style="stop-color:#00037f;stop-opacity:1;" /><stop
       id="stop4387"
       offset="1"
       style="stop-color:#00037f;stop-opacity:0;" /></linearGradient><linearGradient
     id="linearGradient4395"><stop
       id="stop4397"
       offset="0"
       style="stop-color:#110084;stop-opacity:1;" /><stop
       id="stop4399"
       offset="1"
       style="stop-color:#a695ff;stop-opacity:1;" /></linearGradient><linearGradient
     id="linearGradient3187"><stop
       id="stop3189"
       offset="0"
       style="stop-color:#ffffff;stop-opacity:0.39622641;" /><stop
       id="stop3191"
       offset="1"
       style="stop-color:#000000;stop-opacity:1;" /></linearGradient><linearGradient
     id="linearGradient3171"><stop
       style="stop-color:#49bcff;stop-opacity:1;"
       offset="0"
       id="stop3173" /><stop
       style="stop-color:#494cdc;stop-opacity:1;"
       offset="1"
       id="stop3175" /></linearGradient><linearGradient
     id="linearGradient3157"><stop
       id="stop3159"
       offset="0"
       style="stop-color:#49bcff;stop-opacity:1;" /><stop
       id="stop3161"
       offset="1"
       style="stop-color:#494c96;stop-opacity:1;" /></linearGradient><linearGradient
     id="linearGradient5443"><stop
       style="stop-color:#639fa1;stop-opacity:0;"
       offset="0"
       id="stop5445" /><stop
       style="stop-color:#639fa1;stop-opacity:1;"
       offset="1"
       id="stop5447" /></linearGradient><radialGradient
     inkscape:collect="always"
     xlink:href="#linearGradient5443"
     id="radialGradient4728"
     gradientUnits="userSpaceOnUse"
     gradientTransform="matrix(0.86272608,1.0667183e-7,-5.1097115e-8,0.31434,-116.61061,857.47067)"
     cx="373.24265"
     cy="710.99164"
     fx="373.24265"
     fy="710.99164"
     r="333.18735" /><linearGradient
     inkscape:collect="always"
     xlink:href="#linearGradient3187"
     id="linearGradient4730"
     gradientUnits="userSpaceOnUse"
     gradientTransform="matrix(2.3189708,0,0,2.0930998,-46.522433,209.77341)"
     x1="123.50603"
     y1="344.03848"
     x2="123.47623"
     y2="254.73526" /><radialGradient
     inkscape:collect="always"
     xlink:href="#linearGradient5443"
     id="radialGradient4732"
     gradientUnits="userSpaceOnUse"
     gradientTransform="matrix(0.83535071,2.5391117e-7,-2.4564601e-7,0.80815889,-106.39297,572.76002)"
     cx="373.24265"
     cy="467.91885"
     fx="373.24265"
     fy="467.91885"
     r="333.18735" /><radialGradient
     inkscape:collect="always"
     xlink:href="#linearGradient5443"
     id="radialGradient4740"
     gradientUnits="userSpaceOnUse"
     gradientTransform="matrix(0.83535071,2.5391117e-7,-2.4564601e-7,0.80815889,-1128.1014,-222.11761)"
     cx="373.24265"
     cy="467.91885"
     fx="373.24265"
     fy="467.91885"
     r="333.18735" /><radialGradient
     inkscape:collect="always"
     xlink:href="#linearGradient5443"
     id="radialGradient4744"
     gradientUnits="userSpaceOnUse"
     gradientTransform="matrix(0.86272608,1.0667183e-7,-5.1097115e-8,0.31434,-1138.319,62.59304)"
     cx="373.24265"
     cy="710.99164"
     fx="373.24265"
     fy="710.99164"
     r="333.18735" /><radialGradient
     inkscape:collect="always"
     xlink:href="#linearGradient5443"
     id="radialGradient4754"
     gradientUnits="userSpaceOnUse"
     gradientTransform="matrix(0.86272608,1.0667183e-7,-5.1097115e-8,0.31434,-1138.319,62.59304)"
     cx="373.24265"
     cy="710.99164"
     fx="373.24265"
     fy="710.99164"
     r="333.18735" /><linearGradient
     inkscape:collect="always"
     xlink:href="#linearGradient3187"
     id="linearGradient4756"
     gradientUnits="userSpaceOnUse"
     gradientTransform="matrix(2.3189708,0,0,2.0930998,-46.522433,209.77341)"
     x1="123.50603"
     y1="344.03848"
     x2="123.47623"
     y2="254.73526" /><radialGradient
     inkscape:collect="always"
     xlink:href="#linearGradient5443"
     id="radialGradient4758"
     gradientUnits="userSpaceOnUse"
     gradientTransform="matrix(0.83535071,2.5391117e-7,-2.4564601e-7,0.80815889,-1128.1014,-222.11761)"
     cx="373.24265"
     cy="467.91885"
     fx="373.24265"
     fy="467.91885"
     r="333.18735" /></defs><sodipodi:namedview
   pagecolor="#ffffff"
   bordercolor="#666666"
   borderopacity="1"
   objecttolerance="10"
   gridtolerance="10"
   guidetolerance="10"
   inkscape:pageopacity="0"
   inkscape:pageshadow="2"
   inkscape:window-width="1920"
   inkscape:window-height="1031"
   id="namedview33"
   showgrid="false"
   inkscape:zoom="0.42140707"
   inkscape:cx="317.07825"
   inkscape:cy="-33.443473"
   inkscape:window-x="-4"
   inkscape:window-y="-4"
   inkscape:window-maximized="1"
   inkscape:current-layer="_x31_"
   fit-margin-top="0"
   fit-margin-left="0"
   fit-margin-right="0"
   fit-margin-bottom="0" />









<g
   id="g4747"
   transform="translate(991.3128,18.964649)"><rect
     transform="matrix(2.1051502,0,0,2.1051502,-1262.3158,-107.33154)"
     ry="12.45238"
     rx="16.067965"
     y="48.636749"
     x="135.39355"
     height="152.93848"
     width="152.93848"
     id="rect3279"
     style="opacity:0.61338286;fill:#639fa1;fill-opacity:1;stroke:none;filter:url(#filter4659)"
     inkscape:export-filename="C:\Documents and Settings\adscro24\Desktop\128.png"
     inkscape:export-xdpi="29.879425"
     inkscape:export-ydpi="29.879425" /><rect
     ry="26.21413"
     rx="33.825481"
     y="-4.9438534"
     x="-977.29205"
     height="321.95847"
     width="321.95847"
     id="rect3155"
     style="opacity:0.61338286;fill:url(#radialGradient4754);fill-opacity:1;stroke:#000000;stroke-width:3.26806211;stroke-miterlimit:4;stroke-opacity:1;stroke-dasharray:none"
     inkscape:export-filename="C:\Documents and Settings\adscro24\Desktop\128.png"
     inkscape:export-xdpi="29.879425"
     inkscape:export-ydpi="29.879425" /><path
     id="rect3177"
     d="m 99.237377,764.67192 c -19.62748,0 -35.44273,12.0976 -35.44273,27.14163 l 0,124.30857 c 29.25483,11.38638 132.701493,11.89599 165.404883,-5.79022 33.32802,-18.02397 127.54379,-68.44264 171.82484,-52.72052 l 0,-65.79783 c 0,-15.04403 -15.7986,-27.14163 -35.4261,-27.14163 l -266.360893,0 z m -35.44273,263.47098 0,42.8837 c 0,1.3315 0.14331,2.6359 0.38253,3.915 -0.11919,-12.8109 -0.25965,-28.8893 -0.38253,-46.7987 z"
     style="opacity:0.61338286;fill:url(#linearGradient4756);fill-opacity:1;stroke:none;filter:url(#filter5511)"
     inkscape:connector-curvature="0"
     inkscape:export-filename="C:\Documents and Settings\adscro24\Desktop\128.png"
     inkscape:export-xdpi="29.879425"
     inkscape:export-ydpi="29.879425"
     transform="matrix(0.90779502,0,0,0.90779502,-1027.293,-678.96064)" /><rect
     ry="24.924913"
     rx="32.161926"
     y="2.973139"
     x="-969.37506"
     height="306.12445"
     width="306.12445"
     id="rect3473"
     style="opacity:0.61338286;fill:url(#radialGradient4758);fill-opacity:1;stroke:#ffffff;stroke-width:0.68992418;stroke-linecap:square;stroke-miterlimit:4;stroke-opacity:1;stroke-dasharray:none"
     inkscape:export-filename="C:\Documents and Settings\adscro24\Desktop\128.png"
     inkscape:export-xdpi="29.879425"
     inkscape:export-ydpi="29.879425" /><rect
     ry="26.21413"
     rx="33.825481"
     y="-4.9438534"
     x="-977.29205"
     height="321.95847"
     width="321.95847"
     id="rect3155-2"
     style="opacity:0.61338286;fill:#ffffff;fill-opacity:0;stroke:#000000;stroke-width:3.26806211;stroke-miterlimit:4;stroke-opacity:1;stroke-dasharray:none"
     inkscape:export-filename="C:\Documents and Settings\adscro24\Desktop\128.png"
     inkscape:export-xdpi="29.879425"
     inkscape:export-ydpi="29.879425" /></g><g
   id="g3784"
   transform="matrix(0.50025563,0,0,0.50025563,21.921273,-23.168131)"><g
     style="fill:#000000;fill-opacity:1;stroke:none"
     id="LWPOLYLINE">
	
		<path
   style="fill:#000000;fill-opacity:1;stroke:none"
   id="path4"
   d="m 110.483,614.311 -0.062,0.754 -0.062,0.752 -0.042,0.836 -0.042,0.836 -0.021,0.92 v 0.92 l 0.021,0.92 0.021,1.004 0.063,1.002 0.083,1.004 0.126,1.004 0.146,1.045 0.188,1.086 0.209,1.047 0.271,1.045 0.293,1.045 0.355,1.086 0.397,1.045 0.438,1.004 0.502,1.045 0.564,1.004 0.627,0.961 0.669,0.963 0.752,0.918 0.795,0.92 0.878,0.836 0.961,0.838 1.024,0.793 1.108,0.754 1.17,0.668 1.275,0.67 1.358,0.584 1.422,0.543 1.547,0.461 1.609,0.418 1.714,0.334 1.818,0.293 1.924,0.168 2.027,0.125 2.132,0.041 h 1.149 l 1.15,-0.041 1.149,-0.084 1.129,-0.084 1.129,-0.125 1.129,-0.125 1.107,-0.209 1.087,-0.209 1.087,-0.252 1.066,-0.25 1.045,-0.293 1.045,-0.334 1.004,-0.377 1.003,-0.418 0.982,-0.459 0.94,-0.461 0.92,-0.502 0.92,-0.543 0.878,-0.586 0.836,-0.627 0.815,-0.668 0.794,-0.711 0.753,-0.752 0.731,-0.754 0.689,-0.836 0.669,-0.836 0.606,-0.92 0.585,-0.961 0.544,-1.004 0.502,-1.002 0.459,-1.088 0.419,-1.129 0.376,-1.17 0.334,-1.254 0.272,-1.254 0.229,-1.297 0.188,-1.379 0.125,-1.422 0.084,-1.463 0.042,-1.506 -0.084,-2.299 -0.251,-2.217 -0.376,-2.047 -0.522,-1.965 -0.648,-1.84 -0.773,-1.715 -0.898,-1.672 -1.004,-1.547 -1.087,-1.463 -1.191,-1.379 -1.275,-1.297 -1.337,-1.254 -1.401,-1.17 -1.463,-1.129 -1.525,-1.047 -1.547,-1.045 -1.589,-0.961 -1.609,-0.961 -1.631,-0.879 -1.63,-0.92 -1.631,-0.877 -1.631,-0.836 -1.609,-0.879 -1.588,-0.836 -1.568,-0.877 -1.505,-0.879 -1.463,-0.877 -1.4,-0.92 -1.338,-0.92 -1.275,-1.004 -1.191,-1.004 -1.087,-1.045 -1.003,-1.129 -0.899,-1.129 -0.773,-1.254 -0.647,-1.295 -0.523,-1.338 -0.376,-1.463 -0.251,-1.547 -0.083,-1.631 0.021,-0.752 0.042,-0.711 0.084,-0.711 0.083,-0.711 0.126,-0.668 0.146,-0.67 0.168,-0.627 0.209,-0.586 0.209,-0.584 0.251,-0.586 0.25,-0.543 0.293,-0.502 0.313,-0.502 0.313,-0.502 0.355,-0.459 0.355,-0.418 0.376,-0.418 0.397,-0.418 0.418,-0.377 0.418,-0.377 0.439,-0.334 0.46,-0.334 0.46,-0.293 0.48,-0.293 0.48,-0.25 0.502,-0.252 0.522,-0.25 0.522,-0.209 0.522,-0.209 0.544,-0.168 0.543,-0.166 0.564,-0.127 0.544,-0.125 0.564,-0.125 0.564,-0.084 0.585,-0.084 0.564,-0.041 0.585,-0.043 0.564,-0.041 h 0.585 l 0.815,0.041 0.795,0.043 0.752,0.041 0.753,0.127 0.71,0.125 0.669,0.125 0.669,0.209 0.627,0.168 0.606,0.25 0.564,0.25 0.564,0.293 0.522,0.293 0.502,0.293 0.48,0.377 0.46,0.375 0.439,0.377 0.418,0.418 0.376,0.418 0.376,0.459 0.355,0.461 0.313,0.502 0.313,0.502 0.293,0.543 0.251,0.543 0.251,0.543 0.229,0.586 0.209,0.586 0.188,0.627 0.188,0.627 0.146,0.668 0.146,0.627 0.126,0.67 0.104,0.711 0.083,0.668 0.084,0.711 0.062,0.752 0.042,0.711 0.042,0.754 0.021,0.752 v 0.752 c 0.209,0 0.355,0 0.355,0 0.188,0 0.418,0 0.418,0 h 0.271 0.293 0.313 0.355 0.376 0.397 0.418 0.418 0.439 0.459 0.481 0.46 0.48 0.48 0.481 0.48 0.48 0.46 0.46 0.438 0.439 0.418 0.397 0.355 0.355 0.334 0.293 0.251 0.229 c 0.188,0 0.355,0 0.355,0 0.188,0 0.251,-1.422 0.251,-1.422 v -1.42 l -0.042,-1.381 -0.084,-1.338 -0.125,-1.295 -0.146,-1.254 -0.209,-1.213 -0.229,-1.17 -0.272,-1.129 -0.313,-1.088 -0.355,-1.045 -0.396,-1.004 -0.418,-1.002 -0.46,-0.92 -0.502,-0.879 -0.544,-0.877 -0.564,-0.836 -0.605,-0.754 -0.648,-0.752 -0.669,-0.711 -0.711,-0.668 -0.731,-0.627 -0.773,-0.629 -0.814,-0.543 -0.837,-0.543 -0.856,-0.502 -0.899,-0.418 -0.94,-0.418 -0.961,-0.418 -1.004,-0.334 -1.003,-0.336 -1.066,-0.25 -1.066,-0.25 -1.107,-0.209 -1.149,-0.209 -1.171,-0.127 -1.191,-0.125 -1.212,-0.084 -1.233,-0.041 h -1.275 -1.213 l -1.212,0.041 -1.171,0.084 -1.17,0.125 -1.15,0.127 -1.149,0.166 -1.107,0.209 -1.108,0.252 -1.087,0.291 -1.045,0.293 -1.045,0.336 -1.004,0.375 -0.99,0.423 -0.962,0.461 -0.94,0.459 -0.92,0.502 -0.878,0.543 -0.856,0.586 -0.836,0.586 -0.795,0.668 -0.773,0.67 -0.752,0.709 -0.711,0.754 -0.669,0.752 -0.627,0.836 -0.606,0.836 -0.585,0.879 -0.522,0.92 -0.502,0.918 -0.46,1.004 -0.418,1.004 -0.376,1.045 -0.335,1.088 -0.293,1.127 -0.25,1.172 -0.209,1.17 -0.168,1.213 -0.104,1.295 -0.083,1.297 -0.021,1.295 0.084,2.217 0.229,2.049 0.397,1.965 0.522,1.84 0.648,1.756 0.773,1.672 0.898,1.588 0.982,1.463 1.108,1.381 1.17,1.338 1.275,1.254 1.338,1.213 1.421,1.127 1.464,1.088 1.505,1.045 1.547,1.004 1.588,0.92 1.61,0.961 1.63,0.877 1.651,0.879 1.631,0.836 1.63,0.879 1.609,0.836 1.589,0.836 1.547,0.836 1.505,0.877 1.484,0.879 1.4,0.877 1.338,0.92 1.275,0.963 1.17,1.002 1.108,1.045 1.003,1.047 0.878,1.17 0.773,1.17 0.669,1.254 0.522,1.338 0.377,1.381 0.229,1.463 0.084,1.588 -0.021,0.879 -0.042,0.836 -0.062,0.836 -0.104,0.795 -0.125,0.793 -0.146,0.754 -0.167,0.709 -0.209,0.67 -0.23,0.668 -0.251,0.67 -0.271,0.584 -0.293,0.586 -0.313,0.586 -0.334,0.543 -0.355,0.502 -0.397,0.502 -0.396,0.459 -0.419,0.418 -0.438,0.418 -0.46,0.418 -0.46,0.377 -0.502,0.334 -0.501,0.334 -0.522,0.336 -0.544,0.25 -0.543,0.293 -0.586,0.25 -0.564,0.209 -0.605,0.209 -0.606,0.168 -0.627,0.168 -0.627,0.166 -0.648,0.127 -0.647,0.125 -0.669,0.084 -0.669,0.082 -0.669,0.043 -0.69,0.041 -0.689,0.043 h -0.711 -0.585 l -0.585,-0.043 -0.586,-0.041 -0.585,-0.043 -0.564,-0.082 -0.585,-0.084 -0.586,-0.125 -0.585,-0.127 -0.564,-0.166 -0.564,-0.168 -0.564,-0.209 -0.564,-0.209 -0.543,-0.25 -0.544,-0.252 -0.522,-0.293 -0.522,-0.291 -0.522,-0.336 -0.502,-0.375 -0.48,-0.377 -0.48,-0.377 -0.439,-0.459 -0.46,-0.418 -0.418,-0.502 -0.418,-0.502 -0.376,-0.543 -0.377,-0.586 -0.355,-0.584 -0.334,-0.629 -0.313,-0.627 -0.293,-0.709 -0.251,-0.711 -0.25,-0.754 -0.209,-0.752 -0.188,-0.836 -0.167,-0.836 -0.146,-0.836 -0.104,-0.92 -0.062,-0.961 -0.063,-0.963 v -1.002 c 0,-0.209 0,-0.293 0,-0.293 0,-0.209 0,-0.252 0,-0.252 0,-0.166 0,-0.293 0,-0.293 0,-0.166 0,-0.25 0,-0.25 0,-0.209 0,-0.293 0,-0.293 0,-0.209 0,-0.293 0,-0.293 0,-0.166 0,-0.25 0,-0.25 0,-0.168 0,-0.25 0,-0.25 0,-0.209 0,-0.252 0,-0.252 -0.013,-0.173 -12.011,-0.173 -12.011,-0.173 z"
   stroke-miterlimit="10"
   inkscape:connector-curvature="0" />
</g><g
     style="fill:#000000;fill-opacity:1;stroke:none"
     id="LWPOLYLINE_1_">
	
		<path
   style="fill:#000000;fill-opacity:1;stroke:none"
   id="path7"
   d="m 238.055,644.287 c 0,-0.168 0,-0.293 0,-0.293 0,-0.168 0,-0.377 0,-0.377 v -0.209 -0.25 -0.293 -0.293 -0.334 -0.334 -0.377 -0.377 -0.375 -0.418 -0.377 -0.418 -0.418 -0.418 -0.418 -0.418 -0.418 -0.377 -0.418 -0.377 -0.375 -0.377 -0.334 -0.293 -0.334 -0.252 -0.25 -0.252 c 0,-0.209 0,-0.375 0,-0.375 0,-0.125 0,-0.209 0,-0.209 -0.062,-0.084 -0.271,-0.084 -0.271,-0.084 h -0.335 -0.46 -0.585 -0.689 -0.773 -0.878 -0.982 -1.046 -1.107 -1.191 -1.233 -1.296 -1.338 -1.38 -1.4 -1.421 -1.422 -1.442 -1.442 -1.442 -1.421 -1.4 -1.38 -1.338 -1.275 -1.254 -1.171 -1.128 -1.046 -0.961 -0.878 -0.795 -0.689 -0.564 -0.46 -0.355 c -0.209,0 -0.271,0 -0.271,0 0,-0.084 0,-0.25 0,-0.25 v -0.293 -0.418 -0.502 -0.627 -0.711 -0.752 -0.879 -0.92 -1.004 -1.045 -1.086 -1.17 -1.172 -1.213 -1.254 -1.254 -1.295 -1.297 -1.254 -1.297 -1.254 -1.254 -1.213 -1.17 -1.17 -1.088 -1.045 -1.004 -0.92 -0.877 -0.795 -0.668 -0.627 -0.502 -0.418 -0.293 c 0,-0.209 0,-0.25 0,-0.25 0.062,0 0.251,0 0.251,0 h 0.313 0.418 0.522 0.627 0.711 0.815 0.878 0.94 1.024 1.087 1.129 1.17 1.213 1.254 1.275 1.296 1.316 1.317 1.316 1.297 1.296 1.274 1.255 1.212 1.191 1.129 1.066 1.023 0.962 0.878 0.794 0.711 0.627 0.522 0.419 0.313 c 0.188,0 0.25,0 0.25,0 0,-0.168 0,-0.336 0,-0.336 0,-0.166 0,-0.334 0,-0.334 v -0.25 -0.252 -0.293 -0.291 -0.336 -0.334 -0.334 -0.377 -0.375 -0.418 -0.42 -0.375 -0.418 -0.418 -0.418 -0.418 -0.418 -0.418 -0.377 -0.377 -0.375 -0.377 -0.334 -0.334 -0.293 -0.293 -0.252 -0.209 c 0,-0.209 0,-0.375 0,-0.375 0,-0.125 0,-0.252 0,-0.252 -0.062,-0.041 -0.25,-0.041 -0.25,-0.041 h -0.313 -0.419 -0.522 -0.627 -0.711 -0.794 -0.878 -0.962 -1.023 -1.066 -1.129 -1.191 -1.212 -1.255 -1.274 -1.296 -1.297 -1.316 -1.317 -1.316 -1.296 -1.275 -1.254 -1.213 -1.17 -1.129 -1.087 -1.024 -0.94 -0.878 -0.815 -0.711 -0.627 -0.522 -0.418 -0.313 c -0.188,0 -0.251,0 -0.251,0 0,-0.084 0,-0.252 0,-0.252 v -0.291 -0.377 -0.459 -0.586 -0.627 -0.711 -0.795 -0.877 -0.92 -0.961 -1.047 -1.045 -1.086 -1.129 -1.17 -1.172 -1.17 -1.17 -1.213 -1.172 -1.17 -1.17 -1.088 -1.129 -1.045 -1.045 -0.961 -0.92 -0.836 -0.795 -0.752 -0.627 -0.586 -0.459 -0.377 -0.293 c 0,-0.166 0,-0.209 0,-0.209 0.062,0 0.271,0 0.271,0 h 0.335 0.438 0.564 0.69 0.752 0.857 0.961 1.024 1.087 1.149 1.213 1.275 1.296 1.338 1.379 1.38 1.422 1.4 1.421 1.4 1.38 1.38 1.338 1.296 1.274 1.213 1.149 1.108 1.023 0.941 0.856 0.773 0.669 0.564 0.439 0.334 c 0.209,0 0.271,0 0.271,0 0,-0.166 0,-0.334 0,-0.334 0,-0.168 0,-0.334 0,-0.334 v -0.252 -0.25 -0.293 -0.293 -0.334 -0.334 -0.336 -0.375 -0.377 -0.418 -0.418 -0.377 -0.418 -0.418 -0.418 -0.418 -0.418 -0.418 -0.375 -0.377 -0.377 -0.375 -0.336 -0.334 -0.293 -0.293 -0.25 -0.209 c 0,-0.209 0,-0.377 0,-0.377 0,-0.125 0,-0.25 0,-0.25 -0.083,-0.041 -0.355,-0.041 -0.355,-0.041 h -0.438 -0.585 -0.753 -0.878 -1.003 -1.15 -1.233 -1.358 -1.443 -1.525 -1.589 -1.672 -1.715 -1.776 -1.798 -1.839 -1.861 -1.86 -1.86 -1.839 -1.84 -1.798 -1.776 -1.714 -1.673 -1.588 -1.526 -1.442 -1.358 -1.233 -1.149 -1.004 -0.878 -0.752 -0.586 -0.438 -0.271 c -0.084,0.166 -0.084,0.709 -0.084,0.709 v 0.879 1.17 1.506 1.756 2.006 2.299 2.467 2.719 2.885 3.051 3.178 3.344 3.428 3.555 3.596 3.678 3.68 3.721 3.721 3.721 3.68 3.594 3.555 3.428 3.344 3.178 3.053 2.885 2.674 2.51 2.258 2.047 1.756 1.506 1.17 0.879 0.543 c -0.003,0.168 50.499,0.168 50.499,0.168 z"
   stroke-miterlimit="10"
   inkscape:connector-curvature="0" />
</g><g
     style="fill:#000000;fill-opacity:1;stroke:none"
     id="LWPOLYLINE_2_">
	
		<path
   style="fill:#000000;fill-opacity:1;stroke:none"
   id="path10"
   d="m 300.555,644.287 c 0,-0.168 0,-0.293 0,-0.293 0,-0.168 0,-0.377 0,-0.377 v -0.209 -0.25 -0.293 -0.293 -0.334 -0.334 -0.377 -0.377 -0.375 -0.418 -0.377 -0.418 -0.418 -0.418 -0.418 -0.418 -0.418 -0.377 -0.418 -0.377 -0.375 -0.377 -0.334 -0.293 -0.334 -0.252 -0.25 -0.252 c 0,-0.209 0,-0.375 0,-0.375 0,-0.125 0,-0.209 0,-0.209 -0.062,-0.084 -0.251,-0.084 -0.251,-0.084 h -0.313 -0.439 -0.543 -0.627 -0.731 -0.837 -0.898 -0.982 -1.024 -1.11 -1.171 -1.191 -1.254 -1.275 -1.316 -1.317 -1.338 -1.358 -1.338 -1.338 -1.338 -1.296 -1.296 -1.233 -1.212 -1.15 -1.107 -1.045 -0.982 -0.899 -0.815 -0.731 -0.647 -0.544 -0.418 -0.334 c -0.188,0 -0.251,0 -0.251,0 0,-0.168 0,-0.627 0,-0.627 v -0.795 -1.045 -1.338 -1.547 -1.797 -2.008 -2.215 -2.426 -2.549 -2.719 -2.842 -2.926 -3.053 -3.178 -3.176 -3.262 -3.303 -3.303 -3.303 -3.26 -3.262 -3.219 -3.137 -3.051 -2.969 -2.842 -2.719 -2.549 -2.383 -2.217 -2.006 -1.799 -1.588 -1.297 -1.086 -0.752 -0.502 c -0.188,-0.125 -0.335,-0.125 -0.335,-0.125 -0.188,0 -0.396,0 -0.396,0 h -0.251 -0.272 -0.292 -0.335 -0.334 -0.376 -0.377 -0.418 -0.396 -0.439 -0.438 -0.439 -0.438 -0.46 -0.439 -0.46 -0.438 -0.439 -0.418 -0.418 -0.397 -0.396 -0.355 -0.355 -0.313 -0.313 -0.271 -0.251 c -0.209,0 -0.377,0 -0.377,0 -0.146,0 -0.25,0 -0.25,0 -0.084,0.166 -0.084,0.709 -0.084,0.709 v 0.879 1.17 1.506 1.756 2.006 2.299 2.467 2.719 2.885 3.051 3.178 3.344 3.428 3.555 3.596 3.678 3.68 3.721 3.721 3.721 3.68 3.594 3.555 3.428 3.344 3.178 3.053 2.885 2.674 2.51 2.258 2.047 1.756 1.506 1.17 0.879 0.543 c -0.012,0.168 47.919,0.168 47.919,0.168 z"
   stroke-miterlimit="10"
   inkscape:connector-curvature="0" />
</g><g
     style="fill:#000000;fill-opacity:1;stroke:none"
     id="LWPOLYLINE_3_">
	
		<path
   style="fill:#000000;fill-opacity:1;stroke:none"
   id="path13"
   d="m 360.483,644.287 c 0,-0.168 0,-0.293 0,-0.293 0,-0.168 0,-0.377 0,-0.377 v -0.209 -0.25 -0.293 -0.293 -0.334 -0.334 -0.377 -0.377 -0.375 -0.418 -0.377 -0.418 -0.418 -0.418 -0.418 -0.418 -0.418 -0.377 -0.418 -0.377 -0.375 -0.377 -0.334 -0.293 -0.334 -0.252 -0.25 -0.252 c 0,-0.209 0,-0.375 0,-0.375 0,-0.125 0,-0.209 0,-0.209 -0.042,-0.084 -0.251,-0.084 -0.251,-0.084 h -0.376 -0.46 -0.544 -0.71 -0.795 -0.878 -0.961 -1.045 -1.129 -1.171 -1.254 -1.255 -1.337 -1.38 -1.422 -1.421 -1.422 -1.463 -1.422 -1.421 -1.422 -1.421 -1.38 -1.338 -1.296 -1.209 -1.213 -1.087 -1.045 -0.962 -0.919 -0.753 -0.711 -0.585 -0.46 -0.335 c -0.209,0 -0.25,0 -0.25,0 0,-0.084 0,-0.25 0,-0.25 v -0.293 -0.418 -0.502 -0.627 -0.711 -0.752 -0.879 -0.92 -1.004 -1.045 -1.086 -1.17 -1.172 -1.213 -1.254 -1.254 -1.295 -1.297 -1.254 -1.297 -1.254 -1.254 -1.213 -1.17 -1.17 -1.088 -1.045 -1.004 -0.92 -0.877 -0.795 -0.668 -0.627 -0.502 -0.418 -0.293 c 0,-0.209 0,-0.25 0,-0.25 0.041,0 0.25,0 0.25,0 h 0.293 0.418 0.544 0.627 0.711 0.794 0.878 0.962 1.003 1.087 1.129 1.171 1.212 1.254 1.296 1.297 1.296 1.338 1.296 1.296 1.296 1.296 1.254 1.213 1.17 1.129 1.087 1.004 0.961 0.878 0.795 0.71 0.628 0.543 0.418 0.293 c 0.209,0 0.251,0 0.251,0 0,-0.168 0,-0.336 0,-0.336 0,-0.166 0,-0.334 0,-0.334 v -0.25 -0.252 -0.293 -0.291 -0.336 -0.334 -0.334 -0.377 -0.375 -0.418 -0.42 -0.375 -0.418 -0.418 -0.418 -0.418 -0.418 -0.418 -0.377 -0.377 -0.375 -0.377 -0.334 -0.334 -0.293 -0.293 -0.252 -0.209 c 0,-0.209 0,-0.375 0,-0.375 0,-0.125 0,-0.252 0,-0.252 -0.042,-0.041 -0.251,-0.041 -0.251,-0.041 h -0.293 -0.418 -0.543 -0.628 -0.71 -0.795 -0.878 -0.961 -1.004 -1.087 -1.129 -1.17 -1.213 -1.254 -1.296 -1.296 -1.296 -1.296 -1.338 -1.296 -1.297 -1.296 -1.254 -1.212 -1.171 -1.129 -1.087 -1.003 -0.962 -0.878 -0.794 -0.711 -0.627 -0.544 -0.418 -0.293 c -0.209,0 -0.25,0 -0.25,0 0,-0.084 0,-0.252 0,-0.252 v -0.291 -0.377 -0.459 -0.586 -0.627 -0.711 -0.795 -0.877 -0.92 -0.961 -1.047 -1.045 -1.086 -1.129 -1.17 -1.172 -1.17 -1.17 -1.213 -1.172 -1.17 -1.17 -1.088 -1.129 -1.045 -1.045 -0.961 -0.92 -0.836 -0.795 -0.752 -0.627 -0.586 -0.459 -0.377 -0.293 c 0,-0.166 0,-0.209 0,-0.209 0.041,0 0.25,0 0.25,0 h 0.335 0.46 0.543 0.669 0.795 0.836 0.962 1.003 1.129 1.129 1.212 1.296 1.296 1.338 1.38 1.38 1.379 1.422 1.421 1.422 1.38 1.379 1.338 1.296 1.255 1.212 1.171 1.087 1.003 0.962 0.878 0.752 0.669 0.586 0.418 0.334 c 0.209,0 0.293,0 0.293,0 0,-0.166 0,-0.334 0,-0.334 0,-0.168 0,-0.334 0,-0.334 v -0.252 -0.25 -0.293 -0.293 -0.334 -0.334 -0.336 -0.375 -0.377 -0.418 -0.418 -0.377 -0.418 -0.418 -0.418 -0.418 -0.418 -0.418 -0.375 -0.377 -0.377 -0.375 -0.336 -0.334 -0.293 -0.293 -0.25 -0.209 c 0,-0.209 0,-0.377 0,-0.377 0,-0.125 0,-0.25 0,-0.25 -0.084,-0.041 -0.376,-0.041 -0.376,-0.041 h -0.419 -0.585 -0.752 -0.878 -1.046 -1.128 -1.255 -1.338 -1.421 -1.547 -1.589 -1.672 -1.714 -1.756 -1.84 -1.798 -1.881 -1.84 -1.881 -1.84 -1.84 -1.797 -1.756 -1.715 -1.672 -1.589 -1.547 -1.421 -1.38 -1.254 -1.129 -1.003 -0.878 -0.753 -0.585 -0.418 -0.293 c -0.084,0.166 -0.084,0.709 -0.084,0.709 v 0.879 1.17 1.506 1.756 2.006 2.299 2.467 2.719 2.885 3.051 3.178 3.344 3.428 3.555 3.596 3.678 3.68 3.721 3.721 3.721 3.68 3.594 3.555 3.428 3.344 3.178 3.053 2.885 2.674 2.51 2.258 2.047 1.756 1.506 1.17 0.879 0.543 c 10e-4,0.168 50.503,0.168 50.503,0.168 z"
   stroke-miterlimit="10"
   inkscape:connector-curvature="0" />
</g><g
     style="fill:#000000;fill-opacity:1;stroke:none"
     id="LWPOLYLINE_4_">
	
		<path
   style="fill:#000000;fill-opacity:1;stroke:none"
   id="path16"
   d="m 429.84,572.381 0.125,-1.465 0.084,-1.42 0.042,-1.381 v -1.338 l -0.042,-1.295 -0.084,-1.297 -0.083,-1.211 -0.168,-1.172 -0.167,-1.17 -0.209,-1.129 -0.251,-1.045 -0.292,-1.045 -0.335,-1.004 -0.334,-0.961 -0.418,-0.92 -0.419,-0.92 -0.501,-0.836 -0.502,-0.836 -0.544,-0.754 -0.585,-0.752 -0.669,-0.711 -0.669,-0.668 -0.669,-0.627 -0.752,-0.586 -0.795,-0.543 -0.836,-0.543 -0.836,-0.461 -0.92,-0.459 -0.961,-0.418 -0.962,-0.377 -1.045,-0.334 -1.046,-0.293 -1.087,-0.293 -1.17,-0.209 -1.171,-0.209 -1.254,-0.168 -1.254,-0.125 -1.297,-0.084 -1.337,-0.041 h -1.422 -1.463 l -1.422,0.041 -1.421,0.084 -1.338,0.084 -1.38,0.168 -1.296,0.166 -1.296,0.209 -1.213,0.252 -1.254,0.291 -1.171,0.336 -1.128,0.334 -1.129,0.418 -1.087,0.459 -1.046,0.502 -1.045,0.502 -0.961,0.586 -0.962,0.627 -0.878,0.711 -0.878,0.711 -0.836,0.793 -0.795,0.795 -0.794,0.92 -0.711,0.92 -0.669,1.004 -0.669,1.045 -0.627,1.086 -0.543,1.172 -0.544,1.211 -0.501,1.254 -0.419,1.381 -0.418,1.379 -0.376,1.463 -0.334,1.547 -0.293,1.59 -0.209,1.672 -0.209,1.713 -0.167,1.84 -0.084,1.84 -0.084,1.965 -0.041,2.006 c 0,0.209 0,0.461 0,0.461 v 0.334 0.418 0.502 0.586 0.668 0.711 0.752 0.795 0.879 0.918 0.963 0.961 1.004 1.045 1.045 1.045 1.045 1.045 1.088 1.045 1.004 1.002 1.004 0.92 0.92 0.877 0.795 0.795 0.711 0.627 0.584 0.502 0.418 0.336 0.25 c 0,0.209 0.041,3.053 0.041,3.053 l 0.126,2.674 0.167,2.551 0.209,2.383 0.293,2.299 0.376,2.174 0.418,2.049 0.46,1.924 0.502,1.797 0.543,1.715 0.627,1.588 0.669,1.506 0.669,1.379 0.753,1.297 0.752,1.213 0.795,1.127 0.836,1.004 0.878,0.961 0.92,0.879 0.92,0.795 0.919,0.711 0.962,0.627 1.003,0.584 0.962,0.545 1.003,0.459 1.046,0.418 1.003,0.334 1.045,0.334 1.046,0.252 1.045,0.25 1.003,0.168 1.045,0.168 1.004,0.125 1.045,0.084 1.004,0.041 0.961,0.084 h 1.004 l 0.961,0.041 h 0.92 0.92 0.543 0.586 0.627 l 0.669,-0.041 h 0.752 l 0.753,-0.043 0.794,-0.082 0.836,-0.084 0.837,-0.084 0.878,-0.168 0.919,-0.166 0.878,-0.168 0.962,-0.25 0.92,-0.252 0.92,-0.334 0.961,-0.334 0.962,-0.418 0.92,-0.461 0.92,-0.502 0.961,-0.584 0.878,-0.627 0.92,-0.67 0.836,-0.752 0.836,-0.836 0.837,-0.879 0.794,-0.961 0.752,-1.045 0.711,-1.129 0.669,-1.213 0.586,-1.295 0.585,-1.381 0.543,-1.463 0.46,-1.547 0.377,-1.672 0.376,-1.756 0.251,-1.881 0.209,-2.008 0.125,-2.09 0.084,-2.174 -0.042,-2.342 c -0.209,0 -0.376,0 -0.376,0 -0.168,0 -0.418,0 -0.418,0 h -0.251 -0.293 -0.334 -0.335 -0.376 -0.376 -0.419 -0.418 -0.46 -0.459 -0.46 -0.502 -0.46 -0.46 -0.502 -0.459 -0.502 -0.46 -0.46 -0.46 -0.418 -0.418 -0.376 -0.377 -0.334 -0.335 -0.292 -0.251 -0.251 c -0.209,0 -0.334,0 -0.334,0 -0.21,0 -0.251,1.465 -0.251,1.465 l -0.042,1.379 -0.084,1.297 -0.167,1.254 -0.167,1.211 -0.209,1.129 -0.209,1.045 -0.293,1.047 -0.293,0.918 -0.292,0.92 -0.377,0.879 -0.334,0.795 -0.418,0.752 -0.418,0.711 -0.418,0.627 -0.418,0.627 -0.46,0.586 -0.502,0.5 -0.46,0.502 -0.502,0.461 -0.501,0.418 -0.502,0.375 -0.502,0.336 -0.543,0.334 -0.502,0.293 -0.502,0.25 -0.543,0.209 -0.502,0.209 -0.502,0.168 -0.501,0.166 -0.502,0.127 -0.46,0.082 -0.46,0.127 -0.46,0.041 -0.46,0.084 -0.418,0.041 -0.376,0.043 h -0.376 -0.377 -0.334 -0.711 -0.669 l -0.711,-0.043 -0.669,-0.041 -0.669,-0.084 -0.668,-0.084 -0.628,-0.125 -0.669,-0.168 -0.627,-0.166 -0.627,-0.168 -0.585,-0.25 -0.627,-0.252 -0.544,-0.293 -0.585,-0.291 -0.544,-0.377 -0.543,-0.377 -0.544,-0.418 -0.501,-0.502 -0.502,-0.5 -0.46,-0.545 -0.46,-0.627 -0.418,-0.627 -0.418,-0.711 -0.418,-0.752 -0.377,-0.795 -0.376,-0.836 -0.334,-0.92 -0.293,-0.92 -0.334,-1.045 -0.251,-1.086 -0.251,-1.129 -0.209,-1.213 -0.209,-1.254 -0.167,-1.338 -0.168,-1.379 -0.125,-1.463 -0.084,-1.547 -0.083,-1.631 -0.042,-1.672 v -1.756 c 0,-0.209 0,-0.418 0,-0.418 v -0.336 -0.375 -0.502 -0.502 -0.627 -0.67 -0.709 -0.798 -0.795 -0.877 -0.879 -0.92 -0.92 -1.002 -0.963 -1.002 -0.963 -1.002 -1.004 -0.961 -0.963 -0.961 -0.92 -0.877 -0.879 -0.795 -0.793 -0.711 -0.67 -0.584 -0.545 -0.5 -0.377 -0.334 -0.209 c 0,-0.209 0,-1.463 0,-1.463 v -1.213 l 0.042,-1.129 v -1.129 l 0.041,-1.045 0.042,-1.004 0.084,-0.961 0.042,-0.879 0.083,-0.877 0.042,-0.836 0.084,-0.754 0.083,-0.752 0.084,-0.668 0.084,-0.67 0.083,-0.627 0.084,-0.586 0.125,-0.543 0.084,-0.502 0.083,-0.502 0.084,-0.459 0.126,-0.418 0.083,-0.377 0.084,-0.334 0.083,-0.334 0.126,-0.334 0.083,-0.293 0.084,-0.252 0.084,-0.25 0.083,-0.209 c 0.084,-0.209 0.126,-0.377 0.126,-0.377 0.083,-0.166 0.125,-0.293 0.125,-0.293 0.042,-0.125 0.084,-0.25 0.084,-0.25 0.083,-0.209 0.125,-0.293 0.125,-0.293 0,-0.125 0.084,-0.293 0.084,-0.293 0.083,-0.125 0.167,-0.293 0.167,-0.293 0.125,-0.166 0.251,-0.375 0.251,-0.375 0.125,-0.209 0.293,-0.418 0.293,-0.418 l 0.167,-0.209 0.167,-0.252 0.209,-0.209 0.209,-0.25 0.209,-0.252 0.251,-0.25 0.251,-0.25 0.293,-0.293 0.292,-0.252 0.293,-0.25 0.334,-0.252 0.335,-0.291 0.376,-0.252 0.376,-0.25 0.377,-0.252 0.418,-0.25 0.46,-0.25 0.418,-0.209 0.501,-0.252 0.46,-0.209 0.544,-0.209 0.502,-0.168 0.543,-0.209 0.585,-0.166 0.586,-0.125 0.627,-0.168 0.627,-0.125 0.627,-0.084 0.669,-0.125 0.711,-0.043 0.711,-0.084 h 0.752 l 0.753,-0.041 c 0.125,0 0.293,0 0.293,0 0.167,0.041 0.334,0.041 0.334,0.041 0.209,0 0.376,0.043 0.376,0.043 h 0.251 l 0.209,0.041 0.251,0.043 0.251,0.041 0.251,0.043 0.251,0.041 0.292,0.041 0.251,0.084 0.293,0.043 0.292,0.082 0.293,0.084 0.293,0.043 0.334,0.125 0.293,0.084 0.293,0.082 0.334,0.127 0.293,0.082 0.292,0.127 0.335,0.125 0.293,0.166 0.292,0.127 0.293,0.125 0.293,0.168 0.292,0.166 0.293,0.168 0.251,0.209 0.292,0.166 0.251,0.209 0.251,0.209 0.251,0.209 0.209,0.209 0.251,0.252 0.209,0.25 0.209,0.252 0.167,0.25 0.167,0.252 0.209,0.291 0.168,0.252 0.167,0.293 0.125,0.293 0.168,0.291 0.167,0.336 0.125,0.291 0.126,0.336 0.125,0.293 0.126,0.334 0.125,0.334 0.125,0.334 0.084,0.334 0.125,0.336 0.084,0.375 0.084,0.336 0.125,0.375 0.084,0.377 0.042,0.377 0.083,0.375 0.084,0.377 0.042,0.375 0.083,0.377 0.042,0.418 0.042,0.377 0.042,0.418 0.041,0.418 0.042,0.418 0.042,0.377 0.042,0.459 v 0.418 l 0.042,0.418 v 0.418 l 0.042,0.418 v 0.461 0.459 0.418 0.461 h 11.999 z"
   stroke-miterlimit="10"
   inkscape:connector-curvature="0" />
</g><g
     style="fill:#000000;fill-opacity:1;stroke:none"
     id="LWPOLYLINE_5_">
	
		<path
   style="fill:#000000;fill-opacity:1;stroke:none"
   id="path19"
   d="m 438.41,544.998 c 0,0.166 0,0.291 0,0.291 0,0.168 0,0.377 0,0.377 v 0.209 0.25 0.293 0.293 0.334 0.336 0.375 0.377 0.377 0.375 0.418 0.418 0.418 0.418 0.418 0.418 0.377 0.418 0.418 0.377 0.375 0.336 0.334 0.334 0.293 0.293 0.25 0.252 c 0,0.166 0,0.334 0,0.334 0,0.168 0,0.25 0,0.25 0.167,0.084 0.418,0.084 0.418,0.084 h 0.292 0.377 0.46 0.543 0.586 0.627 0.71 0.753 0.794 0.795 0.878 0.878 0.92 0.961 0.92 0.962 0.961 0.962 0.961 0.962 0.92 0.92 0.878 0.878 0.836 0.794 0.711 0.711 0.627 0.585 0.544 0.46 0.376 0.293 0.25 c 0.168,0.168 0.168,0.627 0.168,0.627 v 0.795 1.045 1.297 1.588 1.797 2.008 2.215 2.383 2.592 2.676 2.844 2.969 3.051 3.135 3.221 3.26 3.262 3.303 3.344 3.262 3.26 3.219 3.137 3.051 2.969 2.844 2.674 2.594 2.383 2.215 2.006 1.799 1.588 1.297 1.045 0.795 0.459 c 0.209,0.168 0.376,0.168 0.376,0.168 0.209,0 0.418,0 0.418,0 h 0.251 0.293 0.334 0.335 0.376 0.418 0.418 0.418 0.46 0.418 0.502 0.46 0.46 0.501 0.46 0.502 0.46 0.46 0.46 0.46 0.418 0.418 0.418 0.376 0.335 0.334 0.293 0.251 0.209 c 0.209,0 0.376,0 0.376,0 0.209,-0.168 0.209,-0.627 0.209,-0.627 v -0.795 -1.045 -1.297 -1.588 -1.799 -2.006 -2.215 -2.383 -2.594 -2.674 -2.844 -2.969 -3.051 -3.137 -3.219 -3.26 -3.262 -3.344 -3.303 -3.262 -3.26 -3.221 -3.135 -3.051 -2.969 -2.844 -2.676 -2.592 -2.383 -2.215 -2.008 -1.797 -1.588 -1.297 -1.045 -0.795 -0.459 c 0.167,-0.168 0.376,-0.168 0.376,-0.168 h 0.293 0.373 0.46 0.502 0.543 0.627 0.669 0.753 0.753 0.794 0.836 0.836 0.92 0.878 0.92 0.92 0.961 0.92 0.92 0.92 0.878 0.92 0.836 0.836 0.794 0.753 0.752 0.669 0.628 0.543 0.502 0.46 0.376 0.293 0.209 c 0.167,-0.166 0.167,-0.334 0.167,-0.334 0,-0.168 0,-0.334 0,-0.334 v -0.252 -0.25 -0.293 -0.293 -0.334 -0.334 -0.336 -0.375 -0.377 -0.418 -0.418 -0.377 -0.418 -0.418 -0.418 -0.418 -0.418 -0.418 -0.375 -0.377 -0.377 -0.375 -0.336 -0.334 -0.293 -0.293 -0.25 -0.209 c 0,-0.209 0,-0.377 0,-0.377 0,-0.125 0,-0.25 0,-0.25 -0.002,-0.041 -63.338,-0.041 -63.338,-0.041 z"
   stroke-miterlimit="10"
   inkscape:connector-curvature="0" />
</g><g
     id="ARC">
	
		
</g><g
     style="fill:#000000;fill-opacity:1;stroke:none"
     id="LINE">
	
		<path
   sodipodi:nodetypes="ccccccccccc"
   inkscape:connector-curvature="0"
   id="line25"
   d="m 376.893,146.2615 c 35.64,17.1505 64.318,45.7245 81.375,81.2405 41.137,85.66 5.016,188.439 -80.644,229.535 -85.64,41.137 -188.42,5.059 -229.536,-80.623 -41.116,-85.639 -5.017,-188.42 80.59149,-229.797 L 240.803,171.3345 C 168.886,205.992 138.368,292.195 172.732,364.185 c 34.344,71.99 120.548,102.51 192.517,68.145 72.032,-34.322 102.551,-120.527 68.186,-192.518 -14.339,-30.078 -38.67,-54.264 -68.7085,-68.833 z"
   style="fill:#000000;fill-opacity:1;stroke:none" />
</g><g
     id="ARC_1_">
	
		
</g><g
     id="LINE_1_">
	
		
</g></g>
</svg>