<?xml version="1.0" encoding="UTF-8" standalone="no"?>
<!-- Generator: Adobe Illustrator 16.0.1, SVG Export Plug-In . SVG Version: 6.00 Build 0)  -->

<svg
   xmlns:dc="http://purl.org/dc/elements/1.1/"
   xmlns:cc="http://creativecommons.org/ns#"
   xmlns:rdf="http://www.w3.org/1999/02/22-rdf-syntax-ns#"
   xmlns:svg="http://www.w3.org/2000/svg"
   xmlns="http://www.w3.org/2000/svg"
   xmlns:xlink="http://www.w3.org/1999/xlink"
   xmlns:sodipodi="http://sodipodi.sourceforge.net/DTD/sodipodi-0.dtd"
   xmlns:inkscape="http://www.inkscape.org/namespaces/inkscape"
   version="1.0"
   id="_x31_"
   x="0px"
   y="0px"
   width="350"
   height="350"
   viewBox="0 0 350 350"
   enable-background="new 0 0 612 792"
   xml:space="preserve"
   inkscape:version="0.48.3.1 r9886"
   sodipodi:docname="6012.svg"><metadata
   id="metadata70"><rdf:RDF><cc:Work
       rdf:about=""><dc:format>image/svg+xml</dc:format><dc:type
         rdf:resource="http://purl.org/dc/dcmitype/StillImage" /></cc:Work></rdf:RDF></metadata><defs
   id="defs68"><radialGradient
     r="333.18735"
     fy="467.91885"
     fx="373.24265"
     cy="467.91885"
     cx="373.24265"
     gradientTransform="matrix(0.83535069,2.5391116e-7,-2.4564601e-7,0.80815885,-725.97492,-115.98714)"
     gradientUnits="userSpaceOnUse"
     id="radialGradient4460"
     xlink:href="#linearGradient5443"
     inkscape:collect="always" /><linearGradient
     y2="254.73526"
     x2="123.47623"
     y1="344.03848"
     x1="123.50603"
     gradientTransform="matrix(2.3189708,0,0,2.0930998,-543.56606,-225.82362)"
     gradientUnits="userSpaceOnUse"
     id="linearGradient4458"
     xlink:href="#linearGradient3187"
     inkscape:collect="always" /><radialGradient
     r="333.18735"
     fy="710.99164"
     fx="373.24265"
     cy="710.99164"
     cx="373.24265"
     gradientTransform="matrix(0.86272606,1.0667183e-7,-5.1097113e-8,0.31433999,-736.19251,168.72353)"
     gradientUnits="userSpaceOnUse"
     id="radialGradient4456"
     xlink:href="#linearGradient5443"
     inkscape:collect="always" /><radialGradient
     r="333.18735"
     fy="467.91885"
     fx="373.24265"
     cy="467.91885"
     cx="373.24265"
     gradientTransform="matrix(0.83393192,2.4025531e-7,-2.452288e-7,0.76469446,-575.89311,126.3946)"
     gradientUnits="userSpaceOnUse"
     id="radialGradient2894-5"
     xlink:href="#linearGradient5443-0"
     inkscape:collect="always" /><linearGradient
     y2="254.73526"
     x2="123.47623"
     y1="344.03848"
     x1="123.50603"
     gradientTransform="matrix(2.3189708,0,0,2.0930998,-543.56606,-225.82362)"
     gradientUnits="userSpaceOnUse"
     id="linearGradient2892-2"
     xlink:href="#linearGradient3187-1"
     inkscape:collect="always" /><radialGradient
     r="333.18735"
     fy="710.99164"
     fx="373.24265"
     cy="710.99164"
     cx="373.24265"
     gradientTransform="matrix(0.8612608,1.0093481e-7,-5.1010329e-8,0.29743416,-586.09339,395.79293)"
     gradientUnits="userSpaceOnUse"
     id="radialGradient2890-7"
     xlink:href="#linearGradient5443-0"
     inkscape:collect="always" /><linearGradient
     id="linearGradient5443-5-6"><stop
       style="stop-color:#ffffff;stop-opacity:0;"
       offset="0"
       id="stop5445-4-1" /><stop
       style="stop-color:#000000;stop-opacity:0.33962265;"
       offset="1"
       id="stop5447-3-4" /></linearGradient><radialGradient
     r="333.18735"
     fy="710.99164"
     fx="373.24265"
     cy="710.99164"
     cx="373.24265"
     gradientTransform="matrix(0.9503534,1.1750652e-7,-5.6287062e-8,0.3462676,317.80591,185.68771)"
     gradientUnits="userSpaceOnUse"
     id="radialGradient4835-3-2"
     xlink:href="#linearGradient5443-5-6"
     inkscape:collect="always" /><radialGradient
     r="333.18735"
     fy="710.99164"
     fx="373.24265"
     cy="710.99164"
     cx="373.24265"
     gradientTransform="matrix(0.8612608,1.0093481e-7,-5.1010329e-8,0.29743416,-586.09339,395.79293)"
     gradientUnits="userSpaceOnUse"
     id="radialGradient4835-2"
     xlink:href="#linearGradient5443-0"
     inkscape:collect="always" /><radialGradient
     r="333.18735"
     fy="467.91885"
     fx="373.24265"
     cy="467.91885"
     cx="373.24265"
     gradientTransform="matrix(0.83393192,2.4025531e-7,-2.452288e-7,0.76469446,-575.89311,126.3946)"
     gradientUnits="userSpaceOnUse"
     id="radialGradient4832-1"
     xlink:href="#linearGradient5443-0"
     inkscape:collect="always" /><linearGradient
     y2="254.73526"
     x2="123.47623"
     y1="344.03848"
     x1="123.50603"
     gradientTransform="matrix(2.3189708,0,0,2.0930998,-543.56606,-225.82362)"
     gradientUnits="userSpaceOnUse"
     id="linearGradient4827-6"
     xlink:href="#linearGradient3187-1"
     inkscape:collect="always" /><linearGradient
     y2="254.73526"
     x2="123.47623"
     y1="344.03848"
     x1="123.50603"
     gradientTransform="matrix(2.3189708,0,0,2.0930998,93.115298,-256.84999)"
     gradientUnits="userSpaceOnUse"
     id="linearGradient4824-8"
     xlink:href="#linearGradient3187-1"
     inkscape:collect="always" /><radialGradient
     r="333.18735"
     fy="467.91885"
     fx="373.24265"
     cy="467.91885"
     cx="373.24265"
     gradientTransform="matrix(0.9201975,2.7970099e-7,-2.7059634e-7,0.8902438,28.590287,48.634335)"
     gradientUnits="userSpaceOnUse"
     id="radialGradient4822-5"
     xlink:href="#linearGradient3171-6"
     inkscape:collect="always" /><radialGradient
     r="333.18735"
     fy="710.99164"
     fx="373.24265"
     cy="710.99164"
     cx="373.24265"
     gradientTransform="matrix(0.9503534,1.1750652e-7,-5.6287062e-8,0.3462676,17.334826,362.44227)"
     gradientUnits="userSpaceOnUse"
     id="radialGradient4820-7"
     xlink:href="#linearGradient3157-2"
     inkscape:collect="always" /><radialGradient
     r="333.18735"
     fy="710.99164"
     fx="373.24265"
     cy="710.99164"
     cx="373.24265"
     gradientTransform="matrix(0.9503534,1.1750652e-7,-5.6287062e-8,0.3462676,17.334826,362.44227)"
     gradientUnits="userSpaceOnUse"
     id="radialGradient4805-6"
     xlink:href="#linearGradient3157-2"
     inkscape:collect="always" /><radialGradient
     r="333.18735"
     fy="467.91885"
     fx="373.24265"
     cy="467.91885"
     cx="373.24265"
     gradientTransform="matrix(0.9201975,2.7970099e-7,-2.7059634e-7,0.8902438,28.590287,48.634335)"
     gradientUnits="userSpaceOnUse"
     id="radialGradient4802-1"
     xlink:href="#linearGradient3171-6"
     inkscape:collect="always" /><linearGradient
     y2="254.73526"
     x2="123.47623"
     y1="344.03848"
     x1="123.50603"
     gradientTransform="matrix(2.3189708,0,0,2.0930998,93.115298,-256.84999)"
     gradientUnits="userSpaceOnUse"
     id="linearGradient4799-8"
     xlink:href="#linearGradient3187-1"
     inkscape:collect="always" /><linearGradient
     y2="254.73526"
     x2="123.47623"
     y1="344.03848"
     x1="123.50603"
     gradientTransform="matrix(2.3189708,0,0,2.0930998,93.115298,-256.84999)"
     gradientUnits="userSpaceOnUse"
     id="linearGradient4794-9"
     xlink:href="#linearGradient3187-1"
     inkscape:collect="always" /><radialGradient
     r="333.18735"
     fy="467.91885"
     fx="373.24265"
     cy="467.91885"
     cx="373.24265"
     gradientTransform="matrix(0.9201975,2.7970099e-7,-2.7059634e-7,0.8902438,28.590287,48.634335)"
     gradientUnits="userSpaceOnUse"
     id="radialGradient4792-2"
     xlink:href="#linearGradient3171-6"
     inkscape:collect="always" /><radialGradient
     r="333.18735"
     fy="710.99164"
     fx="373.24265"
     cy="710.99164"
     cx="373.24265"
     gradientTransform="matrix(0.9503534,1.1750652e-7,-5.6287062e-8,0.3462676,17.334826,362.44227)"
     gradientUnits="userSpaceOnUse"
     id="radialGradient4790-7"
     xlink:href="#linearGradient3157-2"
     inkscape:collect="always" /><radialGradient
     r="333.18735"
     fy="710.99164"
     fx="373.24265"
     cy="710.99164"
     cx="373.24265"
     gradientTransform="matrix(0.9503534,1.1750652e-7,-5.6287062e-8,0.3462676,17.334826,362.44227)"
     gradientUnits="userSpaceOnUse"
     id="radialGradient4779-9"
     xlink:href="#linearGradient3157-2"
     inkscape:collect="always" /><radialGradient
     r="333.18735"
     fy="467.91885"
     fx="373.24265"
     cy="467.91885"
     cx="373.24265"
     gradientTransform="matrix(0.9201975,2.7970099e-7,-2.7059634e-7,0.8902438,28.590287,48.634335)"
     gradientUnits="userSpaceOnUse"
     id="radialGradient4776-5"
     xlink:href="#linearGradient3171-6"
     inkscape:collect="always" /><linearGradient
     y2="254.73526"
     x2="123.47623"
     y1="344.03848"
     x1="123.50603"
     gradientTransform="matrix(2.3189708,0,0,2.0930998,93.115298,-256.84999)"
     gradientUnits="userSpaceOnUse"
     id="linearGradient4773-4"
     xlink:href="#linearGradient3187-1"
     inkscape:collect="always" /><linearGradient
     y2="254.73526"
     x2="123.47623"
     y1="344.03848"
     x1="123.50603"
     gradientTransform="matrix(2.3189708,0,0,2.0930998,93.115298,-256.84999)"
     gradientUnits="userSpaceOnUse"
     id="linearGradient4770-3"
     xlink:href="#linearGradient3187-1"
     inkscape:collect="always" /><radialGradient
     r="333.18735"
     fy="467.91885"
     fx="373.24265"
     cy="467.91885"
     cx="373.24265"
     gradientTransform="matrix(0.9201975,2.7970099e-7,-2.7059634e-7,0.8902438,28.590287,48.634335)"
     gradientUnits="userSpaceOnUse"
     id="radialGradient4768-1"
     xlink:href="#linearGradient3171-6"
     inkscape:collect="always" /><radialGradient
     r="333.18735"
     fy="710.99164"
     fx="373.24265"
     cy="710.99164"
     cx="373.24265"
     gradientTransform="matrix(0.9503534,1.1750652e-7,-5.6287062e-8,0.3462676,17.334826,362.44227)"
     gradientUnits="userSpaceOnUse"
     id="radialGradient4766-2"
     xlink:href="#linearGradient3157-2"
     inkscape:collect="always" /><radialGradient
     r="333.18735"
     fy="710.99164"
     fx="373.24265"
     cy="710.99164"
     cx="373.24265"
     gradientTransform="matrix(0.9503534,1.1750652e-7,-5.6287062e-8,0.3462676,17.334826,362.44227)"
     gradientUnits="userSpaceOnUse"
     id="radialGradient4572-4"
     xlink:href="#linearGradient3157-2"
     inkscape:collect="always" /><radialGradient
     r="333.18735"
     fy="467.91885"
     fx="373.24265"
     cy="467.91885"
     cx="373.24265"
     gradientTransform="matrix(0.9201975,2.7970099e-7,-2.7059634e-7,0.8902438,28.590287,48.634335)"
     gradientUnits="userSpaceOnUse"
     id="radialGradient4569-1"
     xlink:href="#linearGradient3171-6"
     inkscape:collect="always" /><linearGradient
     y2="254.73526"
     x2="123.47623"
     y1="344.03848"
     x1="123.50603"
     gradientTransform="matrix(2.3189708,0,0,2.0930998,93.115298,-256.84999)"
     gradientUnits="userSpaceOnUse"
     id="linearGradient4562-1"
     xlink:href="#linearGradient3187-1"
     inkscape:collect="always" /><linearGradient
     gradientUnits="userSpaceOnUse"
     y2="540.86719"
     x2="360.49777"
     y1="167.50403"
     x1="360.49777"
     id="linearGradient4401-3"
     xlink:href="#linearGradient4395-7"
     inkscape:collect="always" /><linearGradient
     gradientUnits="userSpaceOnUse"
     y2="655.4505"
     x2="396.91168"
     y1="298.59412"
     x1="371.42194"
     id="linearGradient4389-8"
     xlink:href="#linearGradient4383-4"
     inkscape:collect="always" /><inkscape:perspective
     id="perspective3214-7"
     inkscape:persp3d-origin="372.04724 : 350.78739 : 1"
     inkscape:vp_z="744.09448 : 526.18109 : 1"
     inkscape:vp_y="0 : 1000 : 0"
     inkscape:vp_x="0 : 526.18109 : 1"
     sodipodi:type="inkscape:persp3d" /><linearGradient
     id="linearGradient4383-4"><stop
       id="stop4385-2"
       offset="0"
       style="stop-color:#00037f;stop-opacity:1;" /><stop
       id="stop4387-7"
       offset="1"
       style="stop-color:#00037f;stop-opacity:0;" /></linearGradient><linearGradient
     id="linearGradient4395-7"><stop
       id="stop4397-9"
       offset="0"
       style="stop-color:#110084;stop-opacity:1;" /><stop
       id="stop4399-3"
       offset="1"
       style="stop-color:#a695ff;stop-opacity:1;" /></linearGradient><linearGradient
     id="linearGradient3187-1"><stop
       id="stop3189-9"
       offset="0"
       style="stop-color:#ffffff;stop-opacity:0.39622641;" /><stop
       id="stop3191-8"
       offset="1"
       style="stop-color:#000000;stop-opacity:1;" /></linearGradient><linearGradient
     id="linearGradient3171-6"><stop
       style="stop-color:#49bcff;stop-opacity:1;"
       offset="0"
       id="stop3173-5" /><stop
       style="stop-color:#494cdc;stop-opacity:1;"
       offset="1"
       id="stop3175-0" /></linearGradient><linearGradient
     id="linearGradient3157-2"><stop
       id="stop3159-8"
       offset="0"
       style="stop-color:#49bcff;stop-opacity:1;" /><stop
       id="stop3161-6"
       offset="1"
       style="stop-color:#494c96;stop-opacity:1;" /></linearGradient><linearGradient
     id="linearGradient5443-0"><stop
       style="stop-color:#ffffff;stop-opacity:0;"
       offset="0"
       id="stop5445-2" /><stop
       style="stop-color:#000000;stop-opacity:0.33962265;"
       offset="1"
       id="stop5447-4" /></linearGradient><radialGradient
     inkscape:collect="always"
     xlink:href="#linearGradient5443-0"
     id="radialGradient3234"
     gradientUnits="userSpaceOnUse"
     gradientTransform="matrix(0.8612608,1.0093481e-7,-5.1010329e-8,0.29743416,-586.09339,395.79293)"
     cx="373.24265"
     cy="710.99164"
     fx="373.24265"
     fy="710.99164"
     r="333.18735" /><linearGradient
     inkscape:collect="always"
     xlink:href="#linearGradient3187-1"
     id="linearGradient3236"
     gradientUnits="userSpaceOnUse"
     gradientTransform="matrix(2.3189708,0,0,2.0930998,-543.56606,-225.82362)"
     x1="123.50603"
     y1="344.03848"
     x2="123.47623"
     y2="254.73526" /><radialGradient
     inkscape:collect="always"
     xlink:href="#linearGradient5443-0"
     id="radialGradient3238"
     gradientUnits="userSpaceOnUse"
     gradientTransform="matrix(0.83393192,2.4025531e-7,-2.452288e-7,0.76469446,-575.89311,126.3946)"
     cx="373.24265"
     cy="467.91885"
     fx="373.24265"
     fy="467.91885"
     r="333.18735" /><radialGradient
     inkscape:collect="always"
     xlink:href="#linearGradient5443-0"
     id="radialGradient3254"
     gradientUnits="userSpaceOnUse"
     gradientTransform="matrix(0.8612608,1.0093481e-7,-5.1010329e-8,0.29743416,-586.09339,395.79293)"
     cx="373.24265"
     cy="710.99164"
     fx="373.24265"
     fy="710.99164"
     r="333.18735" /><linearGradient
     inkscape:collect="always"
     xlink:href="#linearGradient3187-1"
     id="linearGradient3256"
     gradientUnits="userSpaceOnUse"
     gradientTransform="matrix(2.3189708,0,0,2.0930998,-543.56606,-225.82362)"
     x1="123.50603"
     y1="344.03848"
     x2="123.47623"
     y2="254.73526" /><radialGradient
     inkscape:collect="always"
     xlink:href="#linearGradient5443-0"
     id="radialGradient3258"
     gradientUnits="userSpaceOnUse"
     gradientTransform="matrix(0.83393192,2.4025531e-7,-2.452288e-7,0.76469446,-575.89311,126.3946)"
     cx="373.24265"
     cy="467.91885"
     fx="373.24265"
     fy="467.91885"
     r="333.18735" /><radialGradient
     inkscape:collect="always"
     xlink:href="#linearGradient5443-0"
     id="radialGradient3270"
     gradientUnits="userSpaceOnUse"
     gradientTransform="matrix(0.83535069,2.5391116e-7,-2.4564601e-7,0.80815885,-821.89024,-331.16994)"
     cx="373.24265"
     cy="467.91885"
     fx="373.24265"
     fy="467.91885"
     r="333.18735" /><radialGradient
     inkscape:collect="always"
     xlink:href="#linearGradient5443-0"
     id="radialGradient3274"
     gradientUnits="userSpaceOnUse"
     gradientTransform="matrix(0.86272606,1.0667183e-7,-5.1097113e-8,0.31433999,-832.10787,-46.459305)"
     cx="373.24265"
     cy="710.99164"
     fx="373.24265"
     fy="710.99164"
     r="333.18735" /><linearGradient
     y2="254.73526"
     x2="123.47623"
     y1="344.03848"
     x1="123.50603"
     gradientTransform="matrix(2.3189708,0,0,2.0930998,-543.56606,-225.82362)"
     gradientUnits="userSpaceOnUse"
     id="linearGradient3422"
     xlink:href="#linearGradient3187"
     inkscape:collect="always" /><radialGradient
     r="333.18735"
     fy="710.99164"
     fx="373.24265"
     cy="710.99164"
     cx="373.24265"
     gradientTransform="matrix(0.86272606,1.0667183e-7,-5.1097113e-8,0.31433999,-736.19251,168.72353)"
     gradientUnits="userSpaceOnUse"
     id="radialGradient3416"
     xlink:href="#linearGradient5443"
     inkscape:collect="always" /><radialGradient
     r="333.18735"
     fy="467.91885"
     fx="373.24265"
     cy="467.91885"
     cx="373.24265"
     gradientTransform="matrix(0.83535069,2.5391116e-7,-2.4564601e-7,0.80815885,-725.97492,-115.98714)"
     gradientUnits="userSpaceOnUse"
     id="radialGradient3412"
     xlink:href="#linearGradient5443"
     inkscape:collect="always" /><radialGradient
     r="333.18735"
     fy="467.91885"
     fx="373.24265"
     cy="467.91885"
     cx="373.24265"
     gradientTransform="matrix(0.83393192,2.4025531e-7,-2.452288e-7,0.76469446,-575.89311,126.3946)"
     gradientUnits="userSpaceOnUse"
     id="radialGradient2894"
     xlink:href="#linearGradient5443"
     inkscape:collect="always" /><linearGradient
     y2="254.73526"
     x2="123.47623"
     y1="344.03848"
     x1="123.50603"
     gradientTransform="matrix(2.3189708,0,0,2.0930998,-543.56606,-225.82362)"
     gradientUnits="userSpaceOnUse"
     id="linearGradient2892"
     xlink:href="#linearGradient3187"
     inkscape:collect="always" /><radialGradient
     r="333.18735"
     fy="710.99164"
     fx="373.24265"
     cy="710.99164"
     cx="373.24265"
     gradientTransform="matrix(0.8612608,1.0093481e-7,-5.1010329e-8,0.29743416,-586.09339,395.79293)"
     gradientUnits="userSpaceOnUse"
     id="radialGradient2890"
     xlink:href="#linearGradient5443"
     inkscape:collect="always" /><linearGradient
     id="linearGradient5443-5"><stop
       style="stop-color:#ffffff;stop-opacity:0;"
       offset="0"
       id="stop5445-4" /><stop
       style="stop-color:#000000;stop-opacity:0.33962265;"
       offset="1"
       id="stop5447-3" /></linearGradient><radialGradient
     r="333.18735"
     fy="710.99164"
     fx="373.24265"
     cy="710.99164"
     cx="373.24265"
     gradientTransform="matrix(0.9503534,1.1750652e-7,-5.6287062e-8,0.3462676,317.80591,185.68771)"
     gradientUnits="userSpaceOnUse"
     id="radialGradient4835-3"
     xlink:href="#linearGradient5443-5"
     inkscape:collect="always" /><filter
     color-interpolation-filters="sRGB"
     id="filter5511"
     inkscape:collect="always"><feGaussianBlur
       id="feGaussianBlur5513"
       stdDeviation="3.2374974"
       inkscape:collect="always" /></filter><radialGradient
     r="333.18735"
     fy="710.99164"
     fx="373.24265"
     cy="710.99164"
     cx="373.24265"
     gradientTransform="matrix(0.8612608,1.0093481e-7,-5.1010329e-8,0.29743416,-586.09339,395.79293)"
     gradientUnits="userSpaceOnUse"
     id="radialGradient4835"
     xlink:href="#linearGradient5443"
     inkscape:collect="always" /><radialGradient
     r="333.18735"
     fy="467.91885"
     fx="373.24265"
     cy="467.91885"
     cx="373.24265"
     gradientTransform="matrix(0.83393192,2.4025531e-7,-2.452288e-7,0.76469446,-575.89311,126.3946)"
     gradientUnits="userSpaceOnUse"
     id="radialGradient4832"
     xlink:href="#linearGradient5443"
     inkscape:collect="always" /><linearGradient
     y2="254.73526"
     x2="123.47623"
     y1="344.03848"
     x1="123.50603"
     gradientTransform="matrix(2.3189708,0,0,2.0930998,-543.56606,-225.82362)"
     gradientUnits="userSpaceOnUse"
     id="linearGradient4827"
     xlink:href="#linearGradient3187"
     inkscape:collect="always" /><linearGradient
     y2="254.73526"
     x2="123.47623"
     y1="344.03848"
     x1="123.50603"
     gradientTransform="matrix(2.3189708,0,0,2.0930998,93.115298,-256.84999)"
     gradientUnits="userSpaceOnUse"
     id="linearGradient4824"
     xlink:href="#linearGradient3187"
     inkscape:collect="always" /><radialGradient
     r="333.18735"
     fy="467.91885"
     fx="373.24265"
     cy="467.91885"
     cx="373.24265"
     gradientTransform="matrix(0.9201975,2.7970099e-7,-2.7059634e-7,0.8902438,28.590287,48.634335)"
     gradientUnits="userSpaceOnUse"
     id="radialGradient4822"
     xlink:href="#linearGradient3171"
     inkscape:collect="always" /><radialGradient
     r="333.18735"
     fy="710.99164"
     fx="373.24265"
     cy="710.99164"
     cx="373.24265"
     gradientTransform="matrix(0.9503534,1.1750652e-7,-5.6287062e-8,0.3462676,17.334826,362.44227)"
     gradientUnits="userSpaceOnUse"
     id="radialGradient4820"
     xlink:href="#linearGradient3157"
     inkscape:collect="always" /><radialGradient
     r="333.18735"
     fy="710.99164"
     fx="373.24265"
     cy="710.99164"
     cx="373.24265"
     gradientTransform="matrix(0.9503534,1.1750652e-7,-5.6287062e-8,0.3462676,17.334826,362.44227)"
     gradientUnits="userSpaceOnUse"
     id="radialGradient4805"
     xlink:href="#linearGradient3157"
     inkscape:collect="always" /><radialGradient
     r="333.18735"
     fy="467.91885"
     fx="373.24265"
     cy="467.91885"
     cx="373.24265"
     gradientTransform="matrix(0.9201975,2.7970099e-7,-2.7059634e-7,0.8902438,28.590287,48.634335)"
     gradientUnits="userSpaceOnUse"
     id="radialGradient4802"
     xlink:href="#linearGradient3171"
     inkscape:collect="always" /><linearGradient
     y2="254.73526"
     x2="123.47623"
     y1="344.03848"
     x1="123.50603"
     gradientTransform="matrix(2.3189708,0,0,2.0930998,93.115298,-256.84999)"
     gradientUnits="userSpaceOnUse"
     id="linearGradient4799"
     xlink:href="#linearGradient3187"
     inkscape:collect="always" /><linearGradient
     y2="254.73526"
     x2="123.47623"
     y1="344.03848"
     x1="123.50603"
     gradientTransform="matrix(2.3189708,0,0,2.0930998,93.115298,-256.84999)"
     gradientUnits="userSpaceOnUse"
     id="linearGradient4794"
     xlink:href="#linearGradient3187"
     inkscape:collect="always" /><radialGradient
     r="333.18735"
     fy="467.91885"
     fx="373.24265"
     cy="467.91885"
     cx="373.24265"
     gradientTransform="matrix(0.9201975,2.7970099e-7,-2.7059634e-7,0.8902438,28.590287,48.634335)"
     gradientUnits="userSpaceOnUse"
     id="radialGradient4792"
     xlink:href="#linearGradient3171"
     inkscape:collect="always" /><radialGradient
     r="333.18735"
     fy="710.99164"
     fx="373.24265"
     cy="710.99164"
     cx="373.24265"
     gradientTransform="matrix(0.9503534,1.1750652e-7,-5.6287062e-8,0.3462676,17.334826,362.44227)"
     gradientUnits="userSpaceOnUse"
     id="radialGradient4790"
     xlink:href="#linearGradient3157"
     inkscape:collect="always" /><radialGradient
     r="333.18735"
     fy="710.99164"
     fx="373.24265"
     cy="710.99164"
     cx="373.24265"
     gradientTransform="matrix(0.9503534,1.1750652e-7,-5.6287062e-8,0.3462676,17.334826,362.44227)"
     gradientUnits="userSpaceOnUse"
     id="radialGradient4779"
     xlink:href="#linearGradient3157"
     inkscape:collect="always" /><radialGradient
     r="333.18735"
     fy="467.91885"
     fx="373.24265"
     cy="467.91885"
     cx="373.24265"
     gradientTransform="matrix(0.9201975,2.7970099e-7,-2.7059634e-7,0.8902438,28.590287,48.634335)"
     gradientUnits="userSpaceOnUse"
     id="radialGradient4776"
     xlink:href="#linearGradient3171"
     inkscape:collect="always" /><linearGradient
     y2="254.73526"
     x2="123.47623"
     y1="344.03848"
     x1="123.50603"
     gradientTransform="matrix(2.3189708,0,0,2.0930998,93.115298,-256.84999)"
     gradientUnits="userSpaceOnUse"
     id="linearGradient4773"
     xlink:href="#linearGradient3187"
     inkscape:collect="always" /><linearGradient
     y2="254.73526"
     x2="123.47623"
     y1="344.03848"
     x1="123.50603"
     gradientTransform="matrix(2.3189708,0,0,2.0930998,93.115298,-256.84999)"
     gradientUnits="userSpaceOnUse"
     id="linearGradient4770"
     xlink:href="#linearGradient3187"
     inkscape:collect="always" /><radialGradient
     r="333.18735"
     fy="467.91885"
     fx="373.24265"
     cy="467.91885"
     cx="373.24265"
     gradientTransform="matrix(0.9201975,2.7970099e-7,-2.7059634e-7,0.8902438,28.590287,48.634335)"
     gradientUnits="userSpaceOnUse"
     id="radialGradient4768"
     xlink:href="#linearGradient3171"
     inkscape:collect="always" /><radialGradient
     r="333.18735"
     fy="710.99164"
     fx="373.24265"
     cy="710.99164"
     cx="373.24265"
     gradientTransform="matrix(0.9503534,1.1750652e-7,-5.6287062e-8,0.3462676,17.334826,362.44227)"
     gradientUnits="userSpaceOnUse"
     id="radialGradient4766"
     xlink:href="#linearGradient3157"
     inkscape:collect="always" /><filter
     color-interpolation-filters="sRGB"
     id="filter4659"
     inkscape:collect="always"><feGaussianBlur
       id="feGaussianBlur4661"
       stdDeviation="2.7750933"
       inkscape:collect="always" /></filter><radialGradient
     r="333.18735"
     fy="710.99164"
     fx="373.24265"
     cy="710.99164"
     cx="373.24265"
     gradientTransform="matrix(0.9503534,1.1750652e-7,-5.6287062e-8,0.3462676,17.334826,362.44227)"
     gradientUnits="userSpaceOnUse"
     id="radialGradient4572"
     xlink:href="#linearGradient3157"
     inkscape:collect="always" /><radialGradient
     r="333.18735"
     fy="467.91885"
     fx="373.24265"
     cy="467.91885"
     cx="373.24265"
     gradientTransform="matrix(0.9201975,2.7970099e-7,-2.7059634e-7,0.8902438,28.590287,48.634335)"
     gradientUnits="userSpaceOnUse"
     id="radialGradient4569"
     xlink:href="#linearGradient3171"
     inkscape:collect="always" /><linearGradient
     y2="254.73526"
     x2="123.47623"
     y1="344.03848"
     x1="123.50603"
     gradientTransform="matrix(2.3189708,0,0,2.0930998,93.115298,-256.84999)"
     gradientUnits="userSpaceOnUse"
     id="linearGradient4562"
     xlink:href="#linearGradient3187"
     inkscape:collect="always" /><linearGradient
     gradientUnits="userSpaceOnUse"
     y2="540.86719"
     x2="360.49777"
     y1="167.50403"
     x1="360.49777"
     id="linearGradient4401"
     xlink:href="#linearGradient4395"
     inkscape:collect="always" /><linearGradient
     gradientUnits="userSpaceOnUse"
     y2="655.4505"
     x2="396.91168"
     y1="298.59412"
     x1="371.42194"
     id="linearGradient4389"
     xlink:href="#linearGradient4383"
     inkscape:collect="always" /><inkscape:perspective
     id="perspective3214"
     inkscape:persp3d-origin="372.04724 : 350.78739 : 1"
     inkscape:vp_z="744.09448 : 526.18109 : 1"
     inkscape:vp_y="0 : 1000 : 0"
     inkscape:vp_x="0 : 526.18109 : 1"
     sodipodi:type="inkscape:persp3d" /><linearGradient
     id="linearGradient4383"><stop
       id="stop4385"
       offset="0"
       style="stop-color:#00037f;stop-opacity:1;" /><stop
       id="stop4387"
       offset="1"
       style="stop-color:#00037f;stop-opacity:0;" /></linearGradient><linearGradient
     id="linearGradient4395"><stop
       id="stop4397"
       offset="0"
       style="stop-color:#110084;stop-opacity:1;" /><stop
       id="stop4399"
       offset="1"
       style="stop-color:#a695ff;stop-opacity:1;" /></linearGradient><linearGradient
     id="linearGradient3187"><stop
       id="stop3189"
       offset="0"
       style="stop-color:#ffffff;stop-opacity:0.39622641;" /><stop
       id="stop3191"
       offset="1"
       style="stop-color:#9e9e9e;stop-opacity:1;" /></linearGradient><linearGradient
     id="linearGradient3171"><stop
       style="stop-color:#49bcff;stop-opacity:1;"
       offset="0"
       id="stop3173" /><stop
       style="stop-color:#494cdc;stop-opacity:1;"
       offset="1"
       id="stop3175" /></linearGradient><linearGradient
     id="linearGradient3157"><stop
       id="stop3159"
       offset="0"
       style="stop-color:#49bcff;stop-opacity:1;" /><stop
       id="stop3161"
       offset="1"
       style="stop-color:#494c96;stop-opacity:1;" /></linearGradient><linearGradient
     id="linearGradient5443"><stop
       style="stop-color:#ffffff;stop-opacity:0;"
       offset="0"
       id="stop5445" /><stop
       style="stop-color:#cbcac8;stop-opacity:1;"
       offset="1"
       id="stop5447" /></linearGradient><radialGradient
     inkscape:collect="always"
     xlink:href="#linearGradient5443"
     id="radialGradient3253"
     gradientUnits="userSpaceOnUse"
     gradientTransform="matrix(0.8612608,1.0093481e-7,-5.1010329e-8,0.29743416,-586.09339,395.79293)"
     cx="373.24265"
     cy="710.99164"
     fx="373.24265"
     fy="710.99164"
     r="333.18735" /><linearGradient
     inkscape:collect="always"
     xlink:href="#linearGradient3187"
     id="linearGradient3255"
     gradientUnits="userSpaceOnUse"
     gradientTransform="matrix(2.3189708,0,0,2.0930998,-543.56606,-225.82362)"
     x1="123.50603"
     y1="344.03848"
     x2="123.47623"
     y2="254.73526" /><radialGradient
     inkscape:collect="always"
     xlink:href="#linearGradient5443"
     id="radialGradient3257"
     gradientUnits="userSpaceOnUse"
     gradientTransform="matrix(0.83393192,2.4025531e-7,-2.452288e-7,0.76469446,-575.89311,126.3946)"
     cx="373.24265"
     cy="467.91885"
     fx="373.24265"
     fy="467.91885"
     r="333.18735" /><radialGradient
     inkscape:collect="always"
     xlink:href="#linearGradient5443"
     id="radialGradient3273"
     gradientUnits="userSpaceOnUse"
     gradientTransform="matrix(0.8612608,1.0093481e-7,-5.1010329e-8,0.29743416,-586.09339,395.79293)"
     cx="373.24265"
     cy="710.99164"
     fx="373.24265"
     fy="710.99164"
     r="333.18735" /><linearGradient
     inkscape:collect="always"
     xlink:href="#linearGradient3187"
     id="linearGradient3275"
     gradientUnits="userSpaceOnUse"
     gradientTransform="matrix(2.3189708,0,0,2.0930998,-543.56606,-225.82362)"
     x1="123.50603"
     y1="344.03848"
     x2="123.47623"
     y2="254.73526" /><radialGradient
     inkscape:collect="always"
     xlink:href="#linearGradient5443"
     id="radialGradient3277"
     gradientUnits="userSpaceOnUse"
     gradientTransform="matrix(0.83393192,2.4025531e-7,-2.452288e-7,0.76469446,-575.89311,126.3946)"
     cx="373.24265"
     cy="467.91885"
     fx="373.24265"
     fy="467.91885"
     r="333.18735" /></defs><sodipodi:namedview
   pagecolor="#ffffff"
   bordercolor="#666666"
   borderopacity="1"
   objecttolerance="10"
   gridtolerance="10"
   guidetolerance="10"
   inkscape:pageopacity="0"
   inkscape:pageshadow="2"
   inkscape:window-width="1920"
   inkscape:window-height="1031"
   id="namedview66"
   showgrid="false"
   fit-margin-top="0"
   fit-margin-left="0"
   fit-margin-right="0"
   fit-margin-bottom="0"
   inkscape:zoom="0.84281414"
   inkscape:cx="453.26079"
   inkscape:cy="101.5692"
   inkscape:window-x="-4"
   inkscape:window-y="-4"
   inkscape:window-maximized="1"
   inkscape:current-layer="_x31_" />




















<g
   id="g4260"
   transform="translate(-4.0524846e-6,1.5294455e-7)"><g
     transform="translate(589.18636,-87.165827)"
     id="g4448"><rect
       transform="matrix(2.1051501,0,0,2.1051501,-860.18934,-1.2010596)"
       ry="12.45238"
       rx="16.067965"
       y="48.636749"
       x="135.39355"
       height="152.93848"
       width="152.93848"
       id="rect4192"
       style="fill:#cccccc;fill-opacity:1;stroke:none;filter:url(#filter4659)"
       inkscape:export-filename="C:\Documents and Settings\adscro24\Desktop\128.png"
       inkscape:export-xdpi="29.879425"
       inkscape:export-ydpi="29.879425" /><rect
       inkscape:export-ydpi="29.879425"
       inkscape:export-xdpi="29.879425"
       inkscape:export-filename="C:\Documents and Settings\adscro24\Desktop\128.png"
       style="fill:#cbcac8;fill-opacity:1;stroke:none;filter:url(#filter4659)"
       id="rect3279"
       width="152.93848"
       height="152.93848"
       x="135.39355"
       y="48.636749"
       rx="16.067965"
       ry="12.45238"
       transform="matrix(2.1051501,0,0,2.1051501,-860.18934,-1.2010596)" /><rect
       inkscape:export-ydpi="29.879425"
       inkscape:export-xdpi="29.879425"
       inkscape:export-filename="C:\Documents and Settings\adscro24\Desktop\128.png"
       style="opacity:0.61338286;fill:url(#radialGradient4456);fill-opacity:1;stroke:#000000;stroke-width:3.26806188;stroke-miterlimit:4;stroke-opacity:1;stroke-dasharray:none"
       id="rect3155"
       width="321.95847"
       height="321.95844"
       x="-575.16559"
       y="101.18661"
       rx="33.825478"
       ry="26.214128" /><path
       transform="matrix(0.907795,0,0,0.90779498,-173.95283,-177.39738)"
       inkscape:export-ydpi="29.879425"
       inkscape:export-xdpi="29.879425"
       inkscape:export-filename="C:\Documents and Settings\adscro24\Desktop\128.png"
       inkscape:connector-curvature="0"
       style="opacity:0.61338286;fill:url(#linearGradient4458);fill-opacity:1;stroke:none;filter:url(#filter5511)"
       d="m -397.80626,329.07489 c -19.62748,0 -35.44272,12.0976 -35.44272,27.14163 l 0,124.30857 c 29.25482,11.38638 132.70149,11.89599 165.40488,-5.79022 33.32802,-18.02397 127.54379,-68.44264 171.824837,-52.72052 l 0,-65.79783 c 0,-15.04403 -15.798597,-27.14163 -35.426097,-27.14163 l -266.3609,0 z m -35.44272,263.47103 0,42.88373 c 0,1.33144 0.14331,2.63588 0.38253,3.915 -0.11919,-12.81092 -0.25965,-28.88939 -0.38253,-46.79873 z"
       id="rect3177" /><rect
       inkscape:export-ydpi="29.879425"
       inkscape:export-xdpi="29.879425"
       inkscape:export-filename="C:\Documents and Settings\adscro24\Desktop\128.png"
       style="opacity:0.61338286;fill:url(#radialGradient4460);fill-opacity:1;stroke:#ffffff;stroke-width:0.68992418;stroke-linecap:square;stroke-miterlimit:4;stroke-opacity:1;stroke-dasharray:none"
       id="rect3473"
       width="306.12445"
       height="306.12445"
       x="-567.2486"
       y="109.1036"
       rx="32.161926"
       ry="24.924911" /><rect
       inkscape:export-ydpi="29.879425"
       inkscape:export-xdpi="29.879425"
       inkscape:export-filename="C:\Documents and Settings\adscro24\Desktop\128.png"
       style="opacity:0.61338286;fill:#ffffff;fill-opacity:0;stroke:#000000;stroke-width:3.26806188;stroke-miterlimit:4;stroke-opacity:1;stroke-dasharray:none"
       id="rect3155-2"
       width="321.95847"
       height="321.95844"
       x="-575.16559"
       y="101.18661"
       rx="33.825478"
       ry="26.214128" /></g><g
     transform="translate(358.29183,-87.165827)"
     id="LWPOLYLINE_2_-7">
	
		
</g><g
     transform="translate(358.29183,-87.165827)"
     id="LWPOLYLINE_3_-4">
	
		
</g><g
     transform="translate(358.29183,-87.165827)"
     id="LWPOLYLINE_4_-0">
	
		
</g><g
     transform="translate(184.65055,-351.95215)"
     style="fill:#000000;fill-opacity:1;stroke:none"
     id="LWPOLYLINE_6_-7">
	
		
</g><g
     transform="translate(184.65055,-351.95215)"
     style="fill:#000000;fill-opacity:1;stroke:none"
     id="LWPOLYLINE-4">
	
		
</g><g
     transform="translate(184.65055,-351.95215)"
     style="fill:#000000;fill-opacity:1;stroke:none"
     id="LWPOLYLINE_3_-0">
	
		
</g></g><g
   id="g3829"
   transform="matrix(0.499999,0,0,0.499999,21.749489,-22.99986)"><g
     style="fill:#000000;fill-opacity:1;stroke:none"
     id="LWPOLYLINE_8_">
	
		<path
   id="path28"
   d="m 341.03125,541.5625 0,102.65625 0.34375,0 0.375,0 0.28125,0 0.28125,0 0.3125,0 0.34375,0 0.34375,0 0.40625,0 0.375,0 0.4375,0 0.375,0 0.5,0 0.40625,0 0.5,0 0.40625,0 0.5,0 0.46875,0 0.46875,0 0.4375,0 0.4375,0 0.46875,0 0.4375,0 0.375,0 0.4375,0 0.34375,0 0.40625,0 0.28125,0 0.34375,0 0.28125,0 0.25,0 0.40625,0 0.25,0 c 0.087,-0.086 0.0937,-0.34375 0.0937,-0.34375 l 0,-0.4375 0,-0.5625 0,-0.6875 0,-0.8125 0,-0.9375 0,-1.09375 0,-1.15625 0,-1.3125 0,-1.34375 0,-1.46875 0,-1.5 0,-1.5625 0,-1.625 0,-1.65625 0,-1.71875 0,-1.75 0,-1.71875 0,-1.78125 0,-1.75 0,-1.75 0,-1.71875 0,-1.71875 0,-1.65625 0,-1.625 0,-1.5625 0,-1.53125 0,-1.46875 0,-1.3125 0,-1.3125 0,-1.15625 0,-1.09375 0,-0.9375 0,-0.8125 0,-0.71875 0,-0.5625 0,-0.40625 0,-0.28125 c 0.13,-0.086 0.25,-0.0625 0.25,-0.0625 l 0.375,0 0.3125,0 0.3125,0 0.34375,0 0.34375,0 0.4375,0 0.4375,0 0.46875,0 0.46875,0 0.53125,0 0.5,0 0.53125,0 0.5625,0 0.5625,0 0.5,0 0.625,0 0.5625,0 0.5625,0 0.5,0 0.5625,0 0.53125,0 0.5625,0 0.46875,0 0.46875,0 0.5,0 0.40625,0 0.4375,0 0.34375,0 0.34375,0 0.3125,0 0.3125,0 0.21875,0 0.28125,0 0.5,0 0.34375,0 0.375,0 0.375,0.0312 0.40625,0 0.4375,0 0.4375,0.0312 0.40625,0.0625 0.5,0 0.4375,0.0937 0.46875,0.0312 0.46875,0.0937 0.46875,0.0625 0.46875,0.15625 0.5,0.0625 0.46875,0.1875 0.5,0.125 0.5,0.1875 0.46875,0.1875 0.4375,0.21875 0.46875,0.28125 0.46875,0.25 0.4375,0.3125 0.4375,0.28125 0.4375,0.34375 0.375,0.40625 0.40625,0.375 0.375,0.5 0.34375,0.40625 0.34375,0.53125 0.34375,0.5625 0.3125,0.5625 0.25,0.59375 0.28125,0.65625 0.21875,0.6875 0.1875,0.75 0.1875,0.78125 0.125,0.8125 0.125,0.84375 0.0937,0.90625 0.0312,1 0.0937,1 0.0625,1 0.0312,1 0.0312,0.96875 0.0625,1 0.0312,1 0,0.9375 0.0625,1 0.0312,0.96875 0,0.96875 0.0317,0.969 0.0625,0.9375 0,0.96875 0.0312,0.9375 0.0312,0.96875 0.0625,0.90625 0.0312,0.90625 0.0625,0.90625 0.0312,0.90625 0.0312,0.90625 0.0625,0.84375 0.0625,0.875 0.0625,0.875 0.0937,0.84375 0.0625,0.84375 0.0937,0.8125 0.125,0.8125 0.0937,0.78125 0.125,0.78125 0.125,0.78125 0.1875,0.71875 0.125,0.75 0.1875,0.71875 0.15625,0.6875 0.21875,0.6875 0.21875,0.65625 0.21875,0.65625 0.25,0.65625 0.28125,0.59375 0.1875,0 0.40625,0 0.25,0 0.25,0 0.375,0 0.34375,0 0.375,0 0.40625,0 0.40625,0 0.5,0 0.46875,0 0.46875,0 0.53125,0 0.5,0 0.53125,0 0.5,0 0.5625,0 0.53125,0 0.53125,0 0.5,0 0.53125,0 0.53125,0 0.46875,0 0.46875,0 0.46875,0 0.4375,0 0.375,0 0.40625,0 0.34375,0 0.34375,0 0.25,0 0.28125,0 0.375,0 0.21875,0 -0.21875,-0.5625 -0.21875,-0.5625 -0.15625,-0.59375 -0.1875,-0.65625 -0.1875,-0.625 -0.15625,-0.71875 -0.125,-0.71875 -0.1875,-0.6875 -0.125,-0.78125 -0.125,-0.75 -0.125,-0.75 -0.125,-0.78125 -0.15625,-0.84375 -0.125,-0.75 -0.125,-0.84375 -0.0937,-0.8125 -0.0625,-0.8125 -0.15625,-0.8125 -0.0625,-0.84375 -0.0937,-0.8125 -0.0312,-0.8125 -0.0937,-0.78125 -0.0937,-0.8125 -0.0312,-0.78125 -0.0937,-0.78125 -0.0312,-0.75 -0.0625,-0.71875 -0.0312,-0.75 -0.0937,-0.6875 0,-0.6875 -0.0312,-0.65625 -0.0625,-0.625 -0.0312,-0.625 0,-0.5625 -0.0625,-0.5 0,-0.53125 0,-0.46875 0,-0.4375 -0.0312,-0.375 0,-0.34375 -0.0312,-1.53125 -0.0937,-1.40625 -0.125,-1.40625 -0.0937,-1.28125 -0.125,-1.25 -0.1875,-1.21875 -0.125,-1.15625 -0.15625,-1.09375 -0.21875,-1.03125 -0.21875,-1 -0.21875,-0.9375 -0.21875,-0.90625 -0.25,-0.875 -0.3125,-0.8125 -0.25,-0.75 -0.34375,-0.71875 -0.3125,-0.6875 -0.34375,-0.65625 -0.375,-0.65625 -0.40625,-0.5625 -0.375,-0.5625 -0.4375,-0.53125 -0.46875,-0.46875 -0.5,-0.46875 -0.46875,-0.40625 -0.53125,-0.40625 -0.5,-0.40625 -0.5625,-0.34375 -0.59375,-0.34375 -0.5625,-0.3125 -0.65625,-0.28125 -0.65625,-0.28125 -0.6875,-0.28125 -0.6875,-0.21875 -0.6875,-0.28125 -0.78125,-0.21875 -0.75,-0.1875 -0.8125,-0.21875 -0.8125,-0.21875 -0.875,-0.21875 0.875,-0.125 0.8125,-0.1875 0.8125,-0.21875 0.84375,-0.21875 0.78125,-0.25 0.75,-0.3125 0.75,-0.28125 0.71875,-0.34375 0.75,-0.40625 0.6875,-0.375 0.65625,-0.40625 0.6875,-0.4375 0.59375,-0.46875 0.65625,-0.46875 0.5625,-0.53125 0.59375,-0.5 0.5625,-0.5625 0.53125,-0.5625 0.5,-0.5625 0.5,-0.625 0.46875,-0.625 0.4375,-0.65625 0.4375,-0.65625 0.40625,-0.65625 0.40625,-0.6875 0.34375,-0.71875 0.34375,-0.6875 0.3125,-0.75 0.25,-0.78125 0.3125,-0.71875 0.21875,-0.78125 0.21875,-0.78125 0.1875,-0.8125 0.1875,-0.8125 0.125,-0.78125 0.125,-0.875 0.0937,-0.8125 0.0312,-0.875 0.0625,-0.8125 0,-0.875 0,-1 -0.0625,-0.96875 -0.0312,-1 -0.0937,-0.96875 -0.125,-0.96875 -0.125,-0.96875 -0.125,-0.9375 -0.21875,-0.96875 -0.21875,-0.90625 -0.21875,-0.9375 -0.3125,-0.875 -0.28125,-0.90625 -0.3125,-0.84375 -0.375,-0.875 -0.40625,-0.8125 -0.375,-0.84375 -0.5,-0.75 -0.46875,-0.78125 -0.5,-0.75 -0.53125,-0.71875 -0.59375,-0.75 -0.625,-0.625 -0.625,-0.65625 -0.71875,-0.625 -0.71875,-0.59375 -0.75,-0.5625 -0.75,-0.5 -0.84375,-0.53125 -0.84375,-0.46875 -0.90625,-0.40625 -0.96875,-0.4375 -1,-0.34375 -0.96875,-0.28125 -1.09375,-0.3125 -1.0625,-0.21875 -1.1875,-0.21875 -1.15625,-0.125 -1.21875,-0.125 -1.25,-0.0625 -1.34375,-0.0312 -0.21875,0 -0.28125,0 -0.4375,0 -0.53125,0 -0.59375,0 -0.6875,0 -0.84375,0 -0.84375,0 -0.90625,0 -1.03125,0 -1.0625,0 -1.125,0 -1.15625,0 -1.15625,0 -1.25,0 -1.25,0 -1.28125,0 -1.28125,0 -1.28125,0 -1.3125,0 -1.28125,0 -1.28125,0 -1.25,0 -1.25,0 -1.15625,0 -1.15625,0 -1.125,0 -1.0625,0 -0.96875,0 -0.96875,0 -0.84375,0 -0.78125,0 -0.75,0 -0.59375,0 -0.53125,0 -0.375,0 -0.3125,0 -0.25,0 z m 12.34375,11.5 0.34375,0 0.21875,0 0.3125,0 0.34375,0 0.375,0 0.4375,0 0.53125,0 0.5,0 0.5625,0 0.625,0 0.59375,0 0.65625,0 0.6875,0 0.6875,0 0.6875,0 0.75,0 0.71875,0 0.75,0 0.71875,0 0.6875,0 0.75,0 0.6875,0 0.6875,0 0.6875,0 0.65625,0 0.65625,0 0.59375,0 0.5625,0 0.53125,0 0.46875,0 0.4375,0 0.40625,0 0.375,0 0.25,0 0.25,0 0.25,0 c 0.043,0 0.78125,0.0312 0.78125,0.0312 l 0.6875,0.0625 0.65625,0.0312 0.65625,0.125 0.65625,0.0937 0.59375,0.15625 0.5625,0.1875 0.5625,0.21875 0.5625,0.21875 0.53125,0.25 0.5,0.25 0.46875,0.28125 0.4375,0.34375 0.4375,0.28125 0.4375,0.375 0.375,0.375 0.40625,0.34375 0.375,0.4375 0.34375,0.375 0.3125,0.4375 0.3125,0.4375 0.28125,0.4375 0.28125,0.46875 0.25,0.46875 0.21875,0.5 0.21875,0.5 0.21875,0.46875 0.15625,0.53125 0.1875,0.53125 0.15625,0.5 0.15625,0.53125 0.125,0.5 0.0625,0.5625 0.0937,0.53125 0.0937,0.53125 0.0937,0.5625 0.0312,0.5 0.0625,0.5625 0,0.53125 0,0.5 0,0.75 -0.0625,0.71875 -0.0312,0.6875 L 386,571 l -0.0625,0.6875 -0.0937,0.6875 -0.0937,0.65625 -0.125,0.65625 -0.125,0.6875 -0.1875,0.59375 -0.15625,0.65625 -0.1875,0.59375 -0.21875,0.625 -0.21875,0.59375 -0.25,0.5625 -0.25,0.5625 -0.28125,0.5 -0.28125,0.5625 -0.3125,0.5 -0.34375,0.5 -0.3125,0.46875 -0.375,0.4375 -0.34375,0.4375 -0.40625,0.4375 -0.4375,0.375 -0.40625,0.34375 -0.4375,0.375 -0.4375,0.34375 -0.46875,0.28125 -0.53125,0.3125 -0.46875,0.25 -0.53125,0.21875 -0.5625,0.21875 -0.5625,0.1875 -0.5625,0.15625 -0.59375,0.125 -0.59375,0.0937 -0.625,0.0937 -0.625,0.0312 -0.65625,0 -0.3125,0 -0.25,0 -0.25,0 -0.375,0 -0.40625,0 -0.4375,0 -0.46875,0 -0.53125,0 -0.5625,0 -0.59375,0 -0.65625,0 -0.65625,0 -0.6875,0 -0.6875,0 -0.6875,0 -0.75,0 -0.6875,0 -0.71875,0 -0.75,0 -0.71875,0 -0.75,0 -0.6875,0 -0.6875,0 -0.6875,0 -0.65625,0 -0.59375,0 -0.59375,0 -0.5625,0 -0.53125,0 -0.53125,0 -0.40625,0 -0.40625,0 -0.34375,0 -0.3125,0 -0.21875,0 -0.28125,0 c -0.046,-0.011 -0.0625,-32.75 -0.0625,-32.75 z"
   style="fill:#000000;fill-opacity:1;stroke:none"
   inkscape:connector-curvature="0" />
</g><g
     style="fill:#000000;fill-opacity:1;stroke:none"
     id="LWPOLYLINE_3_">
	
		<path
   id="path13"
   d="m 96.78125,541.5625 0,102.65625 0.34375,0 0.40625,0 0.25,0 0.28125,0 0.3125,0 0.34375,0 0.34375,0 0.375,0 0.40625,0 0.40625,0 0.4375,0 0.4375,0 0.46875,0 0.4375,0 0.46875,0 0.46875,0 0.46875,0 0.46875,0 0.4375,0 0.46875,0 0.40625,0 0.4375,0 0.4375,0 0.40625,0 0.375,0 0.34375,0 0.34375,0 0.3125,0 0.28125,0 0.25,0 0.21875,0 0.34375,0 c 0.194,-0.086 0.1875,-0.34375 0.1875,-0.34375 l 0,-0.4375 0,-0.5625 0,-0.6875 0,-0.8125 0,-0.9375 0,-1.09375 0,-1.15625 0,-1.3125 0,-1.34375 0,-1.46875 0,-1.5 0,-1.5625 0,-1.625 0,-1.65625 0,-1.71875 0,-1.75 0,-1.71875 0,-1.78125 0,-1.75 0,-1.75 0,-1.71875 0,-1.71875 0,-1.65625 0,-1.625 0,-1.5625 0,-1.53125 0,-1.46875 0,-1.3125 0,-1.3125 0,-1.15625 0,-1.09375 0,-0.9375 0,-0.8125 0,-0.71875 0,-0.5625 0,-0.40625 0,-0.28125 c 0.107,-0.086 0.25,-0.0625 0.25,-0.0625 l 0.40625,0 0.25,0 0.3125,0 0.34375,0 0.40625,0 0.40625,0 0.4375,0 0.4375,0 0.5,0 0.5,0 0.5,0 0.5625,0 0.53125,0 0.5625,0 0.5625,0 0.5625,0 0.5625,0 0.5625,0 0.5625,0 0.53125,0 0.53125,0 0.53125,0 0.5,0 0.5,0 0.4375,0 0.4375,0 0.40625,0 0.40625,0 0.34375,0 0.3125,0 0.25,0 0.21875,0 0.3125,0 0.46875,0 0.34375,0 0.375,0 0.40625,0.0312 0.40625,0 0.4375,0 0.40625,0.0312 0.4375,0.0625 0.46875,0 0.46875,0.0937 0.46875,0.0312 0.46875,0.0937 0.46875,0.0625 0.5,0.15625 0.46875,0.0625 0.46875,0.1875 0.5,0.125 0.46875,0.1875 0.46875,0.1875 0.46875,0.21875 0.46875,0.28125 0.4375,0.25 0.46875,0.3125 0.4375,0.28125 0.40625,0.34375 0.40625,0.40625 0.375,0.375 0.40625,0.5 0.375,0.40625 0.3125,0.53125 0.3125,0.5625 0.3125,0.5625 0.28125,0.59375 0.25,0.65625 0.21875,0.6875 0.21875,0.75 0.1875,0.78125 0.125,0.8125 0.125,0.84375 0.0937,0.90625 0.0625,1 0.0312,1 0.0312,1 0.0937,1 0.0312,0.96875 0.0312,1 0.0312,1 0.0312,0.9375 0.0312,1 0.0312,0.96875 0.0312,0.96875 0.0312,0.96875 0,0.9375 0.0625,0.96875 0.0312,0.9375 0.0312,0.96875 0.0312,0.90625 0.0312,0.90625 0.0312,0.90625 0.0625,0.90625 0.0625,0.90625 0.0625,0.84375 0.0312,0.875 0.0937,0.875 0.0625,0.84375 0.0937,0.84375 0.0937,0.8125 0.0937,0.8125 0.125,0.78125 0.125,0.78125 0.125,0.78125 0.15625,0.71875 0.15625,0.75 0.1875,0.71875 0.15625,0.6875 0.1875,0.6875 0.21875,0.65625 0.21875,0.65625 0.25,0.65625 0.25,0.59375 0.25,0 0.375,0 0.25,0 0.28125,0 0.34375,0 0.34375,0 0.375,0 0.4375,0 0.40625,0 0.46875,0 0.46875,0 0.5,0 0.5,0 0.53125,0 0.5,0 0.53125,0 0.53125,0 0.53125,0 0.53125,0 0.5,0 0.53125,0 0.5,0 0.5,0 0.46875,0 0.46875,0 0.40625,0 0.4375,0 0.375,0 0.375,0 0.3125,0 0.28125,0 0.25,0 0.375,0 0.25,0 -0.1875,-0.5625 -0.21875,-0.5625 -0.15625,-0.59375 -0.1875,-0.65625 -0.1875,-0.65625 -0.15625,-0.6875 -0.15625,-0.71875 -0.125,-0.71875 -0.15625,-0.75 -0.15625,-0.75 -0.125,-0.78125 -0.125,-0.78125 -0.125,-0.8125 -0.125,-0.78125 -0.0937,-0.8125 -0.125,-0.8125 -0.0937,-0.84375 -0.0937,-0.8125 -0.0937,-0.8125 -0.0937,-0.8125 -0.0625,-0.84375 -0.0937,-0.78125 -0.0625,-0.8125 -0.0625,-0.78125 -0.0625,-0.78125 -0.0625,-0.71875 -0.0625,-0.75 -0.0312,-0.71875 -0.0312,-0.6875 -0.0625,-0.6875 -0.0312,-0.65625 -0.0312,-0.65625 -0.0312,-0.59375 0,-0.5625 -0.0312,-0.53125 -0.0312,-0.5 0,-0.46875 0,-0.4375 0,-0.40625 0,-0.34375 -0.0625,-1.5 -0.125,-1.4375 -0.0937,-1.375 -0.0937,-1.3125 -0.125,-1.25 -0.15625,-1.1875 -0.1875,-1.1875 -0.15625,-1.0625 -0.1875,-1.03125 -0.21875,-1 -0.1875,-0.96875 -0.28125,-0.90625 -0.25,-0.84375 -0.25,-0.84375 -0.3125,-0.71875 -0.3125,-0.75 -0.34375,-0.6875 -0.34375,-0.625 -0.375,-0.65625 -0.375,-0.5625 -0.40625,-0.5625 -0.4375,-0.53125 -0.4375,-0.46875 -0.46875,-0.46875 -0.5,-0.40625 -0.53125,-0.40625 -0.5,-0.40625 -0.5625,-0.34375 -0.59375,-0.34375 -0.59375,-0.3125 -0.625,-0.28125 -0.65625,-0.28125 -0.65625,-0.28125 -0.71875,-0.21875 -0.71875,-0.28125 -0.75,-0.21875 -0.75,-0.1875 -0.8125,-0.21875 -0.8125,-0.21875 -0.84375,-0.21875 0.84375,-0.125 0.84375,-0.1875 0.8125,-0.21875 0.8125,-0.21875 0.78125,-0.25 0.75,-0.3125 0.78125,-0.28125 0.71875,-0.375 0.71875,-0.375 0.6875,-0.375 0.65625,-0.40625 0.65625,-0.4375 0.65625,-0.46875 0.59375,-0.46875 0.625,-0.53125 0.5625,-0.5 0.5625,-0.5625 0.53125,-0.5625 0.5,-0.5625 0.5,-0.625 0.46875,-0.625 0.4375,-0.65625 0.4375,-0.65625 0.40625,-0.65625 0.375,-0.6875 0.375,-0.71875 0.3125,-0.6875 0.34375,-0.75 0.28125,-0.78125 0.25,-0.71875 0.21875,-0.78125 0.25,-0.78125 0.1875,-0.8125 0.15625,-0.8125 0.15625,-0.78125 0.0937,-0.875 0.0937,-0.8125 0.0625,-0.875 0.0625,-0.8125 0,-0.875 0,-1 -0.0312,-0.96875 -0.0625,-1 -0.0937,-0.96875 -0.0937,-0.96875 -0.125,-0.96875 -0.1875,-0.9375 -0.1875,-0.96875 -0.1875,-0.90625 -0.28125,-0.9375 -0.25,-0.875 -0.3125,-0.90625 -0.3125,-0.84375 -0.375,-0.875 -0.375,-0.8125 -0.4375,-0.84375 -0.4375,-0.75 -0.5,-0.78125 -0.5,-0.75 -0.5625,-0.71875 -0.5625,-0.75 -0.625,-0.625 -0.625,-0.65625 -0.71875,-0.625 -0.6875,-0.59375 -0.78125,-0.5625 -0.78125,-0.53125 -0.8125,-0.5 -0.875,-0.46875 -0.90625,-0.40625 -0.9375,-0.4375 -0.96875,-0.34375 -1.03125,-0.28125 -1.0625,-0.3125 -1.09375,-0.21875 -1.125,-0.21875 -1.1875,-0.125 -1.21875,-0.125 -1.28125,-0.0625 -1.28125,-0.0312 -0.28125,0 -0.28125,0 -0.40625,0 -0.53125,0 -0.59375,0 -0.71875,0 -0.78125,0 -0.875,0 -0.9375,0 -1,0 -1.0625,0 -1.125,0 -1.125,0 -1.21875,0 -1.21875,0 -1.25,0 -1.28125,0 -1.28125,0 -1.3125,0 -1.28125,0 -1.28125,0 -1.28125,0 -1.25,0 -1.21875,0 -1.1875,0 -1.1875,0 -1.09375,0 -1.0625,0 -1,0 -0.9375,0 -0.875,0 -0.78125,0 -0.6875,0 -0.625,0 -0.53125,0 -0.40625,0 -0.3125,0 -0.25,0 z m 12.375,11.5 0.3125,0 0.21875,0 0.3125,0 0.34375,0 0.40625,0 0.4375,0 0.46875,0 0.5625,0 0.5625,0 0.59375,0 0.625,0 0.65625,0 0.65625,0 0.6875,0 0.71875,0 0.71875,0 0.71875,0 0.71875,0 0.75,0 0.71875,0 0.71875,0 0.71875,0 0.6875,0 0.65625,0 0.65625,0 0.625,0 0.625,0 0.5625,0 0.53125,0 0.46875,0 0.46875,0 0.375,0 0.34375,0 0.3125,0 0.21875,0 0.28125,0 c 0.043,0 0.75,0.0312 0.75,0.0312 l 0.6875,0.0625 0.6875,0.0312 0.65625,0.125 0.625,0.0937 0.59375,0.15625 0.59375,0.1875 0.5625,0.21875 0.53125,0.21875 0.53125,0.25 0.5,0.25 0.46875,0.28125 0.46875,0.34375 0.4375,0.28125 0.40625,0.375 0.40625,0.375 0.40625,0.34375 0.34375,0.4375 0.34375,0.375 0.3125,0.4375 0.3125,0.4375 0.3125,0.4375 0.25,0.46875 0.25,0.46875 0.25,0.5 0.21875,0.5 0.1875,0.46875 0.1875,0.53125 0.1875,0.53125 0.125,0.5 0.15625,0.53125 0.125,0.5 0.0937,0.5625 0.0937,0.53125 0.0937,0.53125 0.0312,0.5625 0.0625,0.5 0.0312,0.5625 0.0312,0.53125 0,0.5 0,0.75 -0.0312,0.71875 -0.0625,0.6875 -0.0625,0.75 -0.0625,0.6875 -0.0625,0.6875 -0.125,0.65625 -0.125,0.65625 -0.15625,0.6875 -0.15625,0.59375 -0.15625,0.65625 -0.1875,0.59375 -0.21875,0.625 -0.21875,0.59375 -0.25,0.5625 -0.25,0.5625 -0.28125,0.5 -0.28125,0.5625 -0.3125,0.5 -0.3125,0.5 -0.34375,0.46875 -0.34375,0.4375 -0.40625,0.4375 -0.375,0.4375 -0.40625,0.375 -0.40625,0.34375 -0.4375,0.375 -0.46875,0.34375 -0.5,0.28125 -0.46875,0.3125 -0.53125,0.25 -0.5,0.21875 -0.53125,0.21875 -0.5625,0.1875 -0.5625,0.15625 -0.59375,0.125 -0.59375,0.0937 -0.625,0.0937 -0.65625,0.0312 -0.65625,0 -0.3125,0 -0.21875,0 -0.3125,0 -0.34375,0 -0.375,0 -0.46875,0 -0.46875,0 -0.53125,0 -0.5625,0 -0.625,0 -0.625,0 -0.625,0 -0.6875,0 -0.6875,0 -0.71875,0 -0.71875,0 -0.71875,0 -0.75,0 -0.6875,0 -0.75,0 -0.71875,0 -0.71875,0 -0.6875,0 -0.65625,0 -0.65625,0 -0.625,0 -0.59375,0 -0.5625,0 -0.5625,0 -0.46875,0 -0.4375,0 -0.40625,0 -0.34375,0 -0.3125,0 -0.21875,0 -0.25,0 c -0.044,-0.011 -0.0625,-32.75 -0.0625,-32.75 z"
   style="fill:#000000;fill-opacity:1;stroke:none"
   inkscape:connector-curvature="0" />
</g><g
     style="fill:#000000;fill-opacity:1;stroke:none"
     id="LWPOLYLINE_1_">
	
		<path
   id="path7"
   d="m 20.875,541.5625 c -0.216,0.174 -0.21875,0.71875 -0.21875,0.71875 l 0,0.9375 0,1.1875 0,1.5625 0,1.8125 0,2.125 0,2.34375 0,2.5625 0,2.78125 0,2.96875 0,3.15625 0,3.34375 0,3.40625 0,3.59375 0,3.625 0,3.75 0,3.78125 0,3.84375 0,3.84375 0,3.84375 0,3.78125 0,3.8125 0,3.71875 0,3.6875 0,3.53125 0,3.46875 0,3.3125 0,3.125 0,2.96875 0,2.8125 0,2.59375 0,2.3125 0,2.09375 0,1.84375 0,1.53125 0,1.25 0,0.84375 0,0.5625 c 0.002,0.217 12.40625,0.21875 12.40625,0.21875 l 0,-0.34375 0,-0.375 0,-0.5625 0,-0.65625 0,-0.8125 0,-0.90625 0,-1.03125 0,-1.125 0,-1.25 0,-1.3125 0,-1.375 0,-1.46875 0,-1.53125 0,-1.53125 0,-1.625 0,-1.625 0,-1.6875 0,-1.65625 0,-1.71875 0,-1.6875 0,-1.6875 0,-1.625 0,-1.65625 0,-1.59375 0,-1.59375 0,-1.53125 0,-1.40625 0,-1.40625 0,-1.3125 0,-1.21875 0,-1.125 0,-1.03125 0,-0.90625 0,-0.8125 0,-0.71875 0,-0.5 0,-0.40625 0,-0.25 c 0.13,-0.086 0.28125,-0.0937 0.28125,-0.0937 l 0.4375,0 0.3125,0 0.3125,0 0.40625,0 0.40625,0 0.46875,0 0.5,0 0.5,0 0.53125,0 0.59375,0 0.5625,0 0.59375,0 0.625,0 0.59375,0 0.625,0 0.625,0 0.65625,0 0.625,0 0.625,0 0.625,0 0.5625,0 0.59375,0 0.5625,0 0.5625,0 0.5,0 0.5,0 0.4375,0 0.4375,0 0.375,0 0.34375,0 0.3125,0 0.25,0 0.34375,0 0.9375,0 0.84375,-0.0312 0.84375,-0.0625 0.875,-0.0625 0.875,-0.0937 0.90625,-0.125 0.9375,-0.1875 0.9375,-0.15625 0.9375,-0.21875 0.9375,-0.21875 0.9375,-0.3125 0.96875,-0.28125 0.9375,-0.375 0.9375,-0.34375 0.9375,-0.40625 0.90625,-0.4375 0.9375,-0.5 0.90625,-0.5625 0.90625,-0.53125 0.84375,-0.625 0.875,-0.65625 0.8125,-0.6875 0.8125,-0.71875 0.78125,-0.78125 0.75,-0.875 0.71875,-0.8439 0.6875,-0.96875 0.625,-1 0.625,-1.03125 0.5625,-1.0625 0.53125,-1.1875 0.46875,-1.1875 0.4375,-1.25 0.40625,-1.3125 0.3125,-1.375 0.28125,-1.4375 0.21875,-1.5 0.15625,-1.5625 0.09375,-1.65625 0.03125,-1.6875 -0.03125,-1.75 -0.09375,-1.6875 -0.125,-1.59375 -0.1875,-1.5625 -0.25,-1.5 -0.28125,-1.4375 -0.34375,-1.375 -0.34375,-1.3125 -0.4375,-1.25 L 75.625,556.125 75.125,555 74.5625,553.90625 74,552.875 l -0.625,-0.9375 -0.625,-0.90625 -0.6875,-0.875 -0.71875,-0.8125 -0.78125,-0.75 -0.75,-0.71875 -0.8125,-0.65625 -0.8125,-0.65625 -0.84375,-0.53125 -0.875,-0.5625 -0.90625,-0.5 -0.90625,-0.46875 -0.9375,-0.4375 -0.90625,-0.375 -0.96875,-0.34375 -0.96875,-0.3125 -0.96875,-0.25 -1,-0.28125 -1,-0.1875 -0.96875,-0.1875 -1.03125,-0.1875 -1,-0.125 -1,-0.0625 -1.03125,-0.0937 -1,-0.0625 -1,-0.0312 -1,0 -0.46875,0 -0.34375,0 -0.4375,0 -0.53125,0 -0.59375,0 -0.65625,0 -0.75,0 -0.78125,0 -0.84375,0 -0.90625,0 -0.9375,0 -0.96875,0 -1.03125,0 -1.03125,0 -1.0625,0 -1.0625,0 -1.125,0 -1.0625,0 -1.125,0 -1.0625,0 -1.09375,0 -1.0625,0 -1.03125,0 -1,0 -1,0 -0.9375,0 -0.90625,0 -0.84375,0 -0.78125,0 -0.75,0 -0.65625,0 -0.59375,0 -0.53125,0 -0.40625,0 -0.34375,0 -0.28125,0 z m 12.15625,11.5 0.03125,0 0.28125,0 0.46875,0 0.3125,0 0.375,0 0.40625,0 0.4375,0 0.46875,0 0.53125,0 0.53125,0 0.59375,0 0.5625,0 0.625,0 0.625,0 0.65625,0 0.65625,0 0.65625,0 0.65625,0 0.65625,0 0.65625,0 0.65625,0 0.65625,0 0.625,0 0.625,0 0.5625,0 0.59375,0 0.53125,0 0.53125,0 0.46875,0 0.4375,0 0.40625,0 0.375,0 0.3125,0 0.28125,0 0.34375,0 0.34375,0 0.25,0.0312 0.28125,0 0.3125,0.0625 0.3125,0.0312 0.34375,0.0312 0.375,0.0625 0.40625,0.0937 0.40625,0.0625 0.4375,0.125 0.4375,0.15625 0.4375,0.125 0.46875,0.15625 0.5,0.21875 0.46875,0.21875 0.46875,0.21875 0.5,0.25 0.46875,0.28125 0.5,0.28125 0.46875,0.34375 0.5,0.40625 0.46875,0.375 L 60.25,557 l 0.46875,0.46875 0.40625,0.46875 0.4375,0.53125 0.40625,0.5625 0.40625,0.59375 0.375,0.59375 0.34375,0.71875 0.3125,0.6875 0.3125,0.71875 0.25,0.78125 0.25,0.8125 0.21875,0.90625 0.15625,0.90625 0.125,0.96875 0.125,1 0.0625,1.0625 0,1.09375 0,1.15625 -0.0625,1.125 -0.125,1.09375 -0.15625,0.96875 -0.1875,1 -0.21875,0.90625 -0.28125,0.875 -0.28125,0.8125 -0.34375,0.8125 -0.34375,0.75 -0.375,0.6875 -0.4375,0.65625 -0.4375,0.625 -0.4375,0.5625 -0.5,0.5625 -0.5,0.53125 -0.53125,0.46875 -0.53125,0.4375 -0.5625,0.4375 -0.5625,0.34375 -0.5625,0.34375 -0.5625,0.34375 -0.59375,0.3125 -0.59375,0.25 -0.5625,0.25 -0.59375,0.21875 -0.59375,0.1875 -0.59375,0.15625 -0.59375,0.1875 -0.5625,0.125 -0.5625,0.0937 -0.5625,0.125 -0.5625,0.0937 -0.53125,0.0312 -0.5,0.0625 -0.5,0.0312 -0.5,0.0312 -0.4375,0.0625 -0.4375,0 -0.40625,0 -0.25,0 -0.34375,0 -0.28125,0 -0.28125,0 -0.3125,0 -0.375,0 -0.375,0 -0.40625,0 -0.4375,0 -0.46875,0 -0.46875,0 -0.5,0 -0.5,0 -0.5,0 -0.53125,0 -0.5,0 -0.5625,0 -0.53125,0 -0.53125,0 -0.5,0 -0.53125,0 -0.5,0 -0.5,0 -0.46875,0 -0.4375,0 -0.4375,0 -0.40625,0 -0.40625,0 -0.34375,0 -0.3125,0 -0.3125,0 -0.25,0 -0.375,0 -0.25,0 0,-34.53125 z"
   style="fill:#000000;fill-opacity:1;stroke:none"
   inkscape:connector-curvature="0" />
</g><g
     style="fill:#000000;fill-opacity:1;stroke:none"
     id="LWPOLYLINE">
	
		
</g><g
     style="fill:#000000;fill-opacity:1;stroke:none"
     id="LWPOLYLINE_2_">
	
		
</g><g
     style="fill:#000000;fill-opacity:1;stroke:none"
     id="LWPOLYLINE_4_">
	
		<path
   id="path16"
   d="m 202.96875,539.78125 -1.5625,0.0625 -1.53125,0.0312 -1.5,0.125 -1.4375,0.125 -1.4375,0.21875 -1.375,0.28125 -1.34375,0.28125 -1.28125,0.34375 -1.25,0.34375 -1.21875,0.4375 -1.1875,0.46875 -1.125,0.53125 -1.09375,0.53125 -1.0625,0.59375 -1,0.65625 -1,0.625 -0.90625,0.75 -0.90625,0.71875 -0.84375,0.78125 -0.84375,0.84375 -0.75,0.84375 -0.75,0.90625 -0.71875,0.96875 -0.65625,1 -0.625,0.96875 -0.5625,1.0313 -0.53125,1.09375 -0.5,1.125 -0.4375,1.15625 -0.4375,1.21875 -0.375,1.21875 -0.34375,1.25 -0.3125,1.28125 -0.25,1.34375 -0.21875,1.34375 -0.15625,1.375 -0.15625,1.4375 -0.0937,1.4375 -0.0625,1.5 -0.0312,1.5 0,0.21875 0,0.3125 0,0.4375 0,0.46875 0,0.59375 0,0.71875 0,0.75 0,0.84375 0,0.90625 0,1 0,1.03125 0,1.0625 0,1.125 0,1.1875 0,1.1875 0,1.21875 0,1.25 0,1.25 0,1.25 0,1.25 0,1.28125 0,1.25 0,1.1875 0,1.21875 0,1.15625 0,1.125 0,1.09375 0,1.03125 0,0.9375 0,0.96875 0,0.8125 0,0.78125 0,0.6875 0,0.59375 0,0.5 0,0.4375 0,0.25 0,0.25 0.0312,2.09375 0.0625,2.03125 0.0937,1.96875 0.15625,1.90625 0.15625,1.84375 0.21875,1.78125 0.25,1.71875 0.3125,1.6875 0.34375,1.625 0.375,1.5 0.4375,1.5 0.4375,1.4375 0.5,1.375 0.53125,1.3125 0.5625,1.28125 0.625,1.21875 0.65625,1.125 0.71875,1.125 0.75,1.03125 0.75,1 0.84375,0.90625 0.84375,0.90625 0.90625,0.8125 0.90625,0.78125 1,0.71875 1,0.65625 1.0625,0.65625 1.09375,0.5625 1.125,0.5625 1.1875,0.46875 1.21875,0.4375 1.25,0.375 1.28125,0.3125 1.34375,0.3125 1.375,0.25 1.4375,0.21875 1.4375,0.125 1.5,0.125 1.53125,0.0625 1.5625,0.0312 1.5625,-0.0312 1.53125,-0.0625 1.5,-0.125 1.46875,-0.125 1.40625,-0.21875 1.375,-0.25 1.34375,-0.3125 1.25,-0.3125 1.28125,-0.375 1.21875,-0.4375 1.15625,-0.46875 1.15625,-0.5625 1.09375,-0.5625 1.03125,-0.65625 1.03125,-0.65625 0.96875,-0.71875 0.9375,-0.78125 0.90625,-0.8125 0.84375,-0.90625 0.84375,-0.90625 0.78125,-1 0.71875,-1.03125 0.6875,-1.125 0.65625,-1.125 0.625,-1.21875 0.59375,-1.28125 0.5,-1.3125 0.53125,-1.375 0.4375,-1.4375 0.40625,-1.5 0.40625,-1.53125 0.3125,-1.59375 0.3125,-1.6875 0.25,-1.71875 0.21875,-1.78125 0.1875,-1.84375 0.15625,-1.90625 0.0937,-2 0.0312,-2.03125 0.0312,-2.0625 0,-0.25 0,-0.25 0,-0.4375 0,-0.5 0,-0.59375 0,-0.6875 0,-0.78125 0,-0.8125 0,-0.96875 0,-0.9375 0,-1.03125 0,-1.09375 0,-1.125 0,-1.15625 0,-1.21875 0,-1.1875 0,-1.28125 0,-1.25 0,-1.25 0,-1.25 0,-1.25 0,-1.25 0,-1.21875 0,-1.1875 0,-1.1875 0,-1.125 0,-1.0625 0,-1.03125 0,-1 0,-0.90625 0,-0.84375 0,-0.75 0,-0.71875 0,-0.59375 0,-0.46875 0,-0.4375 0,-0.3125 0,-0.21875 -0.0312,-1.5 -0.0312,-1.5 -0.0937,-1.4375 -0.15625,-1.4375 -0.1875,-1.375 -0.21875,-1.34375 -0.25,-1.34375 -0.3125,-1.28125 -0.3125,-1.25 -0.40625,-1.21875 -0.40625,-1.21875 -0.4375,-1.15625 -0.53125,-1.125 -0.5,-1.09375 -0.59375,-1.03125 -0.625,-0.96875 -0.65625,-1 -0.6875,-0.96875 -0.71875,-0.90625 -0.78125,-0.84375 -0.84375,-0.84375 -0.84375,-0.78125 -0.90625,-0.71875 -0.9375,-0.75 -0.96875,-0.625 -1.03125,-0.65625 -1.03125,-0.59375 -1.09375,-0.53125 -1.15625,-0.53125 -1.15625,-0.46875 -1.21875,-0.4375 -1.28125,-0.34375 -1.25,-0.34375 -1.34375,-0.28125 -1.375,-0.28125 -1.40625,-0.21875 -1.46875,-0.125 -1.5,-0.125 -1.53125,-0.0312 -1.5625,-0.0625 z m -1.15625,10.625 0.4375,0 0.375,0 0.34375,0 0.34375,0 0.40625,0 0.40625,0 0.4375,0.0625 0.46875,0.0312 0.5,0.0625 0.53125,0.0312 0.53125,0.0937 0.5625,0.0625 0.5625,0.15625 0.625,0.125 0.59375,0.125 0.59375,0.21875 0.625,0.21875 0.625,0.21875 0.625,0.25 0.625,0.3125 0.65625,0.34375 0.625,0.375 0.625,0.40625 0.59375,0.46875 0.59375,0.46875 0.59375,0.5625 0.5625,0.5625 0.5625,0.65625 0.53125,0.65625 0.5,0.71875 0.5,0.78125 0.46875,0.875 0.40625,0.84375 0.4375,0.96875 0.34375,1.03125 0.34375,1.0625 0.28125,1.125 0.28125,1.21875 0.21875,1.25 0.15625,1.34375 0.125,1.4375 0.0937,1.46875 0.0312,1.53125 0,0.28125 0,0.28125 0,0.40625 0,0.5 0,0.625 0,0.71875 0,0.78125 0,0.875 0,0.9375 0,1 0,1.03125 0,1.125 0,1.1875 0,1.15625 0,1.25 0,1.25 0,1.25 0,1.3125 0,1.28125 0,1.3125 0,1.28125 0,1.25 0,1.25 0,1.25 0,1.1875 0,1.15625 0,1.125 0,1.03125 0,1.03125 0,0.90625 0,0.875 0,0.8125 0,0.6875 0,0.625 0,0.5 0,0.4375 0,0.3125 0,0.21875 -0.0312,1.625 -0.0312,1.625 -0.0625,1.5 -0.0937,1.4375 -0.0937,1.40625 -0.125,1.34375 -0.125,1.3125 -0.1875,1.1875 -0.21875,1.21875 -0.21875,1.125 -0.21875,1.09375 -0.28125,1.03125 -0.28125,1 -0.34375,0.90625 -0.3125,0.90625 -0.375,0.8125 -0.375,0.8125 -0.40625,0.75 -0.40625,0.71875 -0.46875,0.65625 -0.46875,0.65625 -0.5,0.53125 -0.53125,0.5625 -0.5625,0.53125 -0.5625,0.4375 -0.59375,0.46875 -0.59375,0.40625 -0.65625,0.34375 -0.65625,0.34375 -0.6875,0.25 -0.71875,0.3125 -0.71875,0.21875 -0.75,0.15625 -0.78125,0.1875 -0.8125,0.15625 -0.8125,0.0937 -0.84375,0.0937 -0.875,0.0937 -0.90625,0.0312 -0.90625,0 -0.9375,0 -0.875,-0.0625 -0.875,-0.0625 -0.84375,-0.0937 -0.84375,-0.0937 -0.78125,-0.15625 -0.78125,-0.1875 -0.75,-0.15625 -0.75,-0.21875 -0.71875,-0.3125 -0.65625,-0.25 -0.65625,-0.34375 -0.65625,-0.375 -0.625,-0.375 -0.5625,-0.46875 -0.59375,-0.4375 -0.53135,-0.531 -0.53125,-0.5625 -0.5,-0.5625 -0.46875,-0.625 -0.4375,-0.65625 -0.4375,-0.75 -0.40625,-0.71875 -0.40625,-0.8125 -0.375,-0.84375 -0.3125,-0.90625 -0.3125,-0.90625 -0.28125,-0.96875 -0.28125,-1.0625 -0.25,-1.0625 -0.21875,-1.125 -0.1875,-1.21875 -0.1875,-1.21875 -0.125,-1.28125 -0.125,-1.34375 -0.125,-1.40625 -0.0937,-1.4375 -0.0312,-1.53125 -0.0312,-1.59375 0,-1.625 0,-0.21875 0,-0.3125 0,-0.4375 0,-0.5 0,-0.625 0,-0.6875 0,-0.8125 0,-0.875 0,-0.90625 0,-1.03125 0,-1.03125 0,-1.125 0,-1.15625 0,-1.1875 0,-1.25 0,-1.25 0,-1.25 0,-1.3125 0,-1.28125 0,-1.28125 0,-1.3125 0,-1.25 0,-1.25 0,-1.25 0,-1.1875 0,-1.15625 0,-1.125 0,-1.03125 0,-1 0,-0.9375 0,-0.875 0,-0.78125 0,-0.71875 0,-0.625 0,-0.5 0,-0.40625 0,-0.28125 0,-0.28125 0,-1.53125 0.0625,-1.46875 0.125,-1.4375 0.1875,-1.34375 0.21875,-1.25 0.25,-1.21875 0.3125,-1.125 0.3125,-1.0625 0.375,-1.03125 0.40625,-0.96875 0.4375,-0.84375 0.46875,-0.875 0.46875,-0.78125 0.53125,-0.71875 0.53125,-0.65625 0.5625,-0.65625 0.5625,-0.5625 0.59375,-0.5625 0.59375,-0.46875 0.625,-0.46875 0.59375,-0.40625 0.625,-0.375 0.625,-0.34375 0.625,-0.3125 0.65625,-0.25 0.59375,-0.21875 0.625,-0.21875 0.625,-0.21875 0.625,-0.125 0.5625,-0.125 0.59375,-0.15625 0.5625,-0.0625 0.53125,-0.0937 0.53125,-0.0312 0.5,-0.0625 0.46875,-0.0312 0.4375,-0.0625 z"
   style="fill:#000000;fill-opacity:1;stroke:none"
   inkscape:connector-curvature="0" />
</g><g
     style="fill:#000000;fill-opacity:1;stroke:none"
     id="LWPOLYLINE_5_">
	
		
</g><g
     style="fill:#000000;fill-opacity:1;stroke:none"
     id="LWPOLYLINE_6_">
	
		<path
   style="fill:#000000;fill-opacity:1;stroke:none"
   id="path22"
   d="m 317.994,569 v -1.555 l -0.043,-1.557 -0.13,-1.469 -0.13,-1.426 -0.13,-1.34 -0.216,-1.338 -0.259,-1.297 -0.26,-1.211 -0.303,-1.209 -0.389,-1.123 -0.389,-1.123 -0.432,-1.037 -0.476,-0.994 -0.476,-0.994 -0.562,-0.908 -0.605,-0.863 -0.604,-0.865 -0.648,-0.777 -0.734,-0.777 -0.734,-0.691 -0.778,-0.691 -0.82,-0.648 -0.864,-0.605 -0.907,-0.561 -0.951,-0.52 -0.993,-0.475 -0.994,-0.432 -1.08,-0.432 -1.124,-0.391 -1.123,-0.346 -1.21,-0.301 -1.21,-0.26 -1.296,-0.217 -1.297,-0.215 -1.383,-0.174 -1.382,-0.129 -1.427,-0.131 -1.512,-0.086 -1.513,-0.043 h -1.599 l -1.556,0.043 -1.534,0.043 -1.49,0.131 -1.447,0.129 -1.427,0.217 -1.36,0.258 -1.34,0.303 -1.296,0.346 -1.254,0.346 -1.209,0.432 -1.188,0.477 -1.124,0.518 -1.102,0.52 -1.059,0.604 -1.016,0.648 -0.972,0.648 -0.93,0.734 -0.907,0.734 -0.843,0.779 -0.82,0.82 -0.778,0.863 -0.734,0.908 -0.691,0.951 -0.67,0.994 -0.604,0.992 -0.583,1.037 -0.541,1.08 -0.496,1.125 -0.454,1.166 -0.432,1.209 -0.368,1.211 -0.346,1.252 -0.28,1.297 -0.26,1.34 -0.237,1.34 -0.173,1.383 -0.13,1.426 -0.107,1.426 -0.065,1.512 -0.021,1.512 c 0,0.045 0,0.217 0,0.217 v 0.303 0.432 0.477 0.604 0.691 0.777 0.822 0.906 0.994 1.037 1.08 1.123 1.168 1.209 1.211 1.252 1.254 1.252 1.254 1.254 1.252 1.211 1.209 1.166 1.125 1.08 1.037 0.949 0.951 0.82 0.779 0.691 0.604 0.477 0.432 0.26 c 0,0.215 0,0.258 0,0.258 l 0.021,2.074 0.065,2.031 0.107,1.988 0.13,1.9 0.173,1.859 0.237,1.771 0.26,1.729 0.28,1.684 0.346,1.6 0.368,1.512 0.432,1.514 0.454,1.426 0.496,1.383 0.541,1.295 0.583,1.297 0.604,1.209 0.67,1.125 0.691,1.123 0.734,1.037 0.778,0.994 0.82,0.906 0.843,0.908 0.907,0.82 0.93,0.777 0.972,0.734 1.016,0.648 1.059,0.648 1.102,0.562 1.124,0.561 1.188,0.477 1.209,0.432 1.254,0.389 1.296,0.303 1.34,0.303 1.36,0.26 1.427,0.215 1.447,0.131 1.49,0.129 1.534,0.043 1.556,0.043 0.994,-0.043 H 289 l 0.951,-0.043 0.95,-0.043 0.907,-0.043 0.908,-0.088 0.907,-0.086 0.864,-0.086 0.864,-0.086 0.864,-0.131 0.863,-0.129 0.821,-0.129 0.821,-0.131 0.821,-0.172 0.777,-0.174 0.777,-0.172 0.821,-0.174 0.734,-0.215 0.778,-0.174 0.734,-0.217 0.734,-0.215 0.734,-0.26 0.734,-0.217 0.735,-0.258 0.691,-0.217 0.734,-0.26 0.691,-0.258 0.691,-0.303 0.691,-0.26 0.691,-0.303 0.691,-0.26 0.69,-0.301 0.648,-0.303 0.691,-0.303 0.648,-0.303 0.691,-0.346 0.647,-0.303 0.691,-0.346 0.648,-0.303 0.648,-0.346 c 0,-0.086 0,-0.346 0,-0.346 v -0.432 -0.605 -0.734 -0.863 -1.037 -1.123 -1.254 -1.34 -1.426 -1.512 -1.6 -1.686 -1.727 -1.729 -1.816 -1.814 -1.857 -1.857 -1.859 -1.857 -1.814 -1.814 -1.771 -1.686 -1.686 -1.6 -1.512 -1.426 -1.383 -1.209 -1.168 -0.994 -0.863 -0.777 -0.562 -0.432 -0.303 c -0.043,-0.086 -0.216,-0.086 -0.216,-0.086 h -0.303 -0.346 -0.476 -0.604 -0.648 -0.691 -0.821 -0.864 -0.907 -0.993 -1.037 -1.08 -1.081 -1.123 -1.167 -1.166 -1.21 -1.167 -1.21 -1.21 -1.166 -1.167 -1.123 -1.081 -1.08 -1.037 -0.95 -0.951 -0.864 -0.777 -0.734 -0.648 -0.562 -0.476 -0.389 -0.303 c -0.173,0 -0.216,0 -0.216,0 0,0.215 0,0.346 0,0.346 0,0.172 0,0.389 0,0.389 v 0.217 0.258 0.303 0.303 0.346 0.346 0.346 0.389 0.432 0.389 0.434 0.432 0.432 0.432 0.434 0.389 0.432 0.432 0.389 0.434 0.389 0.346 0.346 0.346 0.301 0.303 0.26 0.217 c 0,0.215 0,0.389 0,0.389 0,0.129 0,0.26 0,0.26 0.13,0.086 0.303,0.086 0.303,0.086 h 0.216 0.259 0.346 0.39 0.432 0.433 0.519 0.562 0.562 0.604 0.605 0.648 0.647 0.691 0.691 0.691 0.691 0.691 0.691 0.691 0.691 0.648 0.647 0.605 0.604 0.562 0.562 0.519 0.432 0.432 0.39 0.346 0.259 0.216 c 0.173,0 0.26,0 0.26,0 0.043,0.215 0.043,0.475 0.043,0.475 v 0.346 0.475 0.52 0.605 0.691 0.777 0.777 0.908 0.906 0.951 1.037 1.037 1.08 1.08 1.123 1.125 1.123 1.123 1.123 1.123 1.08 1.08 1.037 0.994 0.994 0.908 0.863 0.822 0.777 0.648 0.646 0.52 0.432 0.389 0.26 c 0,0.217 -0.216,0.432 -0.216,0.432 -0.216,0.174 -0.433,0.389 -0.433,0.389 l -0.259,0.174 -0.26,0.215 -0.259,0.174 -0.289,0.213 -0.302,0.172 -0.303,0.217 -0.302,0.172 -0.346,0.174 -0.346,0.215 -0.346,0.174 -0.389,0.172 -0.389,0.174 -0.39,0.172 -0.389,0.174 -0.432,0.129 -0.433,0.174 -0.432,0.129 -0.433,0.172 -0.475,0.131 -0.476,0.129 -0.519,0.131 -0.476,0.129 -0.519,0.129 -0.519,0.088 -0.519,0.129 -0.562,0.086 -0.562,0.086 -0.562,0.088 -0.562,0.086 -0.605,0.086 -0.604,0.043 -0.605,0.043 -0.604,0.045 -0.648,0.043 h -0.604 l -0.648,0.043 h -0.691 -0.907 l -0.864,-0.043 -0.886,-0.088 -0.864,-0.086 -0.821,-0.086 -0.799,-0.174 -0.778,-0.172 -0.756,-0.174 -0.734,-0.215 -0.691,-0.303 -0.691,-0.26 -0.67,-0.346 -0.627,-0.346 -0.626,-0.389 -0.584,-0.475 -0.583,-0.432 -0.54,-0.52 -0.519,-0.562 -0.497,-0.561 -0.475,-0.648 -0.454,-0.648 -0.432,-0.734 -0.411,-0.734 -0.389,-0.82 -0.346,-0.822 -0.346,-0.906 -0.303,-0.908 -0.302,-0.994 -0.26,-1.037 -0.259,-1.08 -0.217,-1.123 -0.194,-1.209 -0.173,-1.211 -0.151,-1.297 -0.129,-1.338 -0.108,-1.426 -0.064,-1.428 -0.065,-1.512 -0.043,-1.598 v -1.643 c 0,-0.043 0,-0.217 0,-0.217 v -0.303 -0.432 -0.518 -0.605 -0.691 -0.82 -0.865 -0.906 -1.037 -1.037 -1.125 -1.166 -1.166 -1.254 -1.252 -1.254 -1.297 -1.295 -1.297 -1.297 -1.252 -1.254 -1.252 -1.168 -1.166 -1.123 -1.037 -0.994 -0.951 -0.863 -0.777 -0.736 -0.604 -0.52 -0.389 -0.303 c 0,-0.215 0,-0.26 0,-0.26 l 0.021,-1.555 0.087,-1.469 0.107,-1.426 0.173,-1.34 0.216,-1.254 0.26,-1.209 0.303,-1.123 0.324,-1.08 0.389,-1.037 0.389,-0.951 0.432,-0.863 0.476,-0.865 0.476,-0.777 0.519,-0.734 0.54,-0.648 0.54,-0.648 0.583,-0.562 0.584,-0.561 0.604,-0.477 0.605,-0.475 0.626,-0.389 0.605,-0.389 0.626,-0.346 0.648,-0.303 0.626,-0.26 0.627,-0.215 0.604,-0.217 0.627,-0.217 0.605,-0.129 0.583,-0.129 0.583,-0.131 0.562,-0.086 0.54,-0.086 0.519,-0.043 0.519,-0.043 0.433,-0.045 0.476,-0.043 h 0.389 0.389 0.346 0.95 l 0.864,0.043 0.864,0.045 0.821,0.086 0.777,0.086 0.778,0.129 0.734,0.174 0.734,0.172 0.691,0.217 0.648,0.217 0.648,0.215 0.604,0.26 0.562,0.303 0.562,0.303 0.562,0.346 0.475,0.389 0.476,0.346 0.476,0.432 0.432,0.432 0.433,0.434 0.346,0.475 0.389,0.518 0.346,0.52 0.303,0.561 0.302,0.562 0.26,0.562 0.259,0.648 0.26,0.604 0.216,0.691 0.173,0.691 0.173,0.691 0.173,0.734 0.13,0.734 0.086,0.779 0.13,0.82 0.043,0.82 0.087,0.865 0.043,0.863 v 0.908 l 0.043,0.906 h 14.13 z"
   stroke-miterlimit="10"
   inkscape:connector-curvature="0" />
</g><g
     style="fill:#000000;fill-opacity:1;stroke:none"
     id="LWPOLYLINE_7_">
	
		
</g><g
     style="fill:#000000;fill-opacity:1;stroke:none"
     id="LWPOLYLINE_9_">
	
		<path
   id="path31"
   d="m 438.46875,541.5625 c -0.082,0 -31.96875,102.65625 -31.96875,102.65625 l 0.375,0 0.4375,0 0.25,0 0.3125,0 0.34375,0 0.34375,0 0.375,0 0.4375,0 0.40625,0 0.46875,0 0.4375,0 0.46875,0 0.53125,0 0.46875,0 0.46875,0 0.53125,0 0.46875,0 0.53125,0 0.46875,0 0.46875,0 0.46875,0 0.46875,0 0.4375,0 0.4375,0 0.4375,0 0.34375,0 0.375,0 0.375,0 0.25,0 0.3125,0 0.1875,0 0.375,0 c 0.217,0 0.25,-0.0312 0.25,-0.0312 0.043,-0.174 0.0937,-0.375 0.0937,-0.375 l 0.125,-0.28125 0.0937,-0.375 0.15625,-0.4375 0.125,-0.53125 0.21875,-0.5625 0.1875,-0.59375 0.21875,-0.6875 0.25,-0.75 0.21875,-0.71875 0.25,-0.8125 0.25,-0.84375 0.3125,-0.84375 0.25,-0.875 0.3125,-0.90625 0.3125,-0.90625 0.28125,-0.9375 0.3125,-0.90625 0.25,-0.96875 0.3125,-0.90625 0.3125,-0.90625 0.28125,-0.90625 0.28125,-0.875 0.28125,-0.84375 0.28125,-0.84375 0.25,-0.8125 0.25,-0.78125 0.21875,-0.6875 0.21875,-0.6875 0.21875,-0.59375 0.1875,-0.5625 0.15625,-0.53125 0.125,-0.4375 0.15625,-0.375 0.0625,-0.3125 c 0.043,-0.215 0.0937,-0.34375 0.0937,-0.34375 0.087,-0.043 0.3125,-0.0312 0.3125,-0.0312 l 0.34375,0 0.4375,0 0.59375,0 0.65625,0 0.78125,0 0.84375,0 0.96875,0 1.03125,0 1.125,0 1.15625,0 1.21875,0 1.28125,0 1.3125,0 1.375,0 1.375,0 1.40625,0 1.40625,0 1.4375,0 1.40625,0 1.4375,0 1.375,0 1.40625,0 1.375,0 1.28125,0 1.3125,0 1.21875,0 1.15625,0 1.125,0 1.03125,0 0.9375,0 0.875,0 0.78125,0 0.6875,0 0.5625,0 0.4375,0 0.34375,0 0.25,0 c 0.087,0.174 0.125,0.375 0.125,0.375 l 0.0937,0.3125 0.0937,0.375 0.125,0.4375 0.1875,0.53125 0.125,0.5625 0.21875,0.59375 0.15625,0.6875 0.21875,0.6875 0.21875,0.78125 0.21875,0.8125 0.25,0.84375 0.21875,0.84375 0.28125,0.875 0.25,0.90625 0.25,0.90625 0.25,0.90625 0.28125,0.96875 0.25,0.90625 0.3125,0.9375 0.25,0.90625 0.25,0.90625 0.21875,0.875 0.28125,0.84375 0.25,0.84375 0.21875,0.8125 0.21875,0.71875 0.21875,0.75 0.15625,0.6875 0.1875,0.59375 0.15625,0.5625 0.125,0.53125 0.15625,0.4375 0.125,0.375 0.0625,0.28125 c 0.044,0.215 0.0937,0.375 0.0937,0.375 0.13,0.043 0.28125,0.0312 0.28125,0.0312 l 0.375,0 0.25,0 0.3125,0 0.34375,0 0.40625,0 0.40625,0 0.4375,0 0.4375,0 0.53125,0 0.46875,0 0.5,0 0.5625,0 0.53125,0 0.5625,0 0.5625,0 0.5625,0 0.5625,0 0.5625,0 0.5625,0 0.5625,0 0.53125,0 0.5,0 0.53125,0 0.46875,0 0.46875,0 0.4375,0 0.40625,0 0.375,0 0.34375,0 0.3125,0 0.25,0 0.25,0 0.3125,0 c 0.043,-0.217 -0.125,-0.78125 -0.125,-0.78125 l -0.3125,-0.84375 -0.375,-1.25 -0.46875,-1.53125 -0.625,-1.84375 -0.65625,-2.09375 -0.71875,-2.3125 -0.8125,-2.59375 -0.90625,-2.8125 -0.96875,-2.96875 -1,-3.125 -1.0625,-3.3125 -1.09375,-3.46875 -1.125,-3.53125 -1.15625,-3.6875 -1.21875,-3.71875 -1.1875,-3.8125 -1.21875,-3.78125 -1.21875,-3.84375 -1.25,-3.84375 -1.21875,-3.84375 -1.1875,-3.78125 -1.21875,-3.75 -1.15625,-3.625 -1.125,-3.59375 -1.09375,-3.40625 -1.09375,-3.34375 -0.96875,-3.15625 -0.96875,-2.96875 -0.90625,-2.78125 -0.8125,-2.5625 -0.75,-2.34375 -0.625,-2.125 -0.625,-1.8125 -0.46875,-1.5625 -0.375,-1.1875 -0.3125,-0.90625 -0.15625,-0.5625 c -0.173,-0.174 -0.375,-0.1875 -0.375,-0.1875 l -0.40625,0 -0.3125,0 -0.34375,0 -0.40625,0 -0.40625,0 -0.4375,0 -0.5,0 -0.5,0 -0.5625,0 -0.5625,0 -0.5625,0 -0.59375,0 -0.625,0 -0.625,0 -0.625,0 -0.65625,0 -0.59375,0 -0.65625,0 -0.625,0 -0.65625,0 -0.5625,0 -0.59375,0 -0.5625,0 -0.53125,0 -0.5,0 -0.53125,0 -0.4375,0 -0.4375,0 -0.375,0 -0.34375,0 -0.3125,0 -0.25,0 -0.34375,0 z m 7.8125,12.5 c 0.035,-0.09 15.9375,53.875 15.9375,53.875 l -0.21875,0 -0.25,0 -0.375,0 -0.5,0 -0.5625,0 -0.625,0 -0.75,0 -0.8125,0 -0.875,0 -0.90625,0 -1,0 -1.03125,0 -1.03125,0 -1.125,0 -1.125,0 -1.15625,0 -1.15625,0 -1.21875,0 -1.1875,0 -1.1875,0 -1.1875,0 -1.15625,0 -1.15625,0 -1.1875,0 -1.0625,0 -1.09375,0 -1.03125,0 -0.9375,0 -0.96875,0 -0.84375,0 -0.78125,0 -0.75,0 -0.625,0 -0.5625,0 -0.5,0 -0.375,0 -0.25,0 -0.28125,0 c 0.044,-0.086 0.125,-0.40625 0.125,-0.40625 l 0.15625,-0.46875 0.1875,-0.65625 0.21875,-0.8125 0.3125,-0.9375 0.3125,-1.09375 0.375,-1.25 0.40625,-1.34375 0.4375,-1.46875 0.46875,-1.5625 0.46875,-1.6875 0.53125,-1.71875 0.5,-1.8125 0.5625,-1.84375 0.5625,-1.96875 0.5625,-1.9375 0.59375,-1.96875 0.625,-2.03125 0.59375,-2.03125 0.5625,-2 0.625,-2.03125 0.59375,-1.96875 0.5625,-2 0.5625,-1.90625 0.5625,-1.84375 0.5,-1.8125 0.53125,-1.75 0.53125,-1.6875 0.40625,-1.53125 0.4375,-1.46875 0.4375,-1.34375 0.34375,-1.25 0.3125,-1.09375 0.3125,-1 0.25,-0.78125 0.15625,-0.625 0.15625,-0.5 0.0625,-0.28125 z"
   style="fill:#000000;fill-opacity:1;stroke:none"
   inkscape:connector-curvature="0" />
</g><g
     style="fill:#000000;fill-opacity:1;stroke:none"
     id="LWPOLYLINE_10_">
	
		
</g><g
     style="fill:#000000;fill-opacity:1;stroke:none"
     id="LWPOLYLINE_11_">
	
		<path
   style="fill:#000000;fill-opacity:1;stroke:none"
   id="path37"
   d="m 512.696,553.057 c 0.043,0.172 0.173,0.648 0.173,0.648 l 0.26,0.82 0.346,1.08 0.389,1.383 0.476,1.6 0.562,1.857 0.647,2.117 0.691,2.291 0.735,2.463 0.777,2.635 0.864,2.809 0.864,2.938 0.95,3.068 0.951,3.154 0.95,3.24 0.994,3.285 1.037,3.369 1.037,3.414 0.993,3.414 1.037,3.414 1.037,3.412 0.994,3.328 0.994,3.326 0.993,3.242 0.951,3.154 0.907,3.066 0.907,2.939 0.821,2.809 0.82,2.635 0.735,2.463 0.691,2.291 0.604,2.074 0.562,1.857 0.476,1.643 0.432,1.383 0.346,1.08 0.217,0.777 0.173,0.52 c 0.129,0.172 0.216,0.172 0.216,0.172 0.173,0 0.346,0 0.346,0 0.216,0 0.475,0 0.475,0 h 0.303 0.303 0.346 0.346 0.389 0.389 0.433 0.389 0.476 0.432 0.476 0.432 0.476 0.476 0.475 0.433 0.432 0.476 0.433 0.389 0.432 0.346 0.389 0.303 0.346 0.26 0.259 c 0.216,0 0.389,0 0.389,0 0.173,0 0.26,0 0.26,0 0.173,-0.172 0.303,-0.691 0.303,-0.691 l 0.259,-0.777 0.303,-1.08 0.432,-1.383 0.476,-1.643 0.562,-1.857 0.605,-2.074 0.691,-2.291 0.777,-2.463 0.777,-2.635 0.864,-2.809 0.864,-2.939 0.907,-3.066 0.951,-3.154 0.994,-3.242 0.993,-3.326 0.994,-3.328 1.037,-3.412 1.037,-3.414 1.037,-3.414 0.993,-3.414 1.037,-3.369 0.994,-3.285 0.95,-3.24 0.951,-3.154 0.95,-3.068 0.864,-2.938 0.864,-2.809 0.778,-2.635 0.734,-2.463 0.691,-2.291 0.647,-2.117 0.562,-1.857 0.475,-1.6 0.433,-1.383 0.302,-1.08 0.26,-0.82 0.13,-0.477 c 0.043,0 0.043,0.477 0.043,0.477 v 0.82 1.08 1.383 1.6 1.857 2.117 2.291 2.463 2.635 2.809 2.938 3.068 3.154 3.24 3.285 3.369 3.414 3.414 3.414 3.412 3.328 3.326 3.242 3.154 3.066 2.939 2.809 2.635 2.463 2.291 2.074 1.857 1.643 1.383 1.08 0.777 0.52 c 0.216,0.172 0.346,0.172 0.346,0.172 0.216,0 0.432,0 0.432,0 h 0.26 0.259 0.303 0.346 0.346 0.389 0.433 0.389 0.432 0.433 0.476 0.432 0.476 0.475 0.433 0.476 0.475 0.433 0.432 0.433 0.432 0.389 0.39 0.346 0.346 0.302 0.303 0.26 c 0.216,0 0.389,0 0.389,0 0.129,0 0.259,0 0.259,0 0.087,-0.217 0.087,-0.777 0.087,-0.777 v -0.865 -1.252 -1.514 -1.857 -2.074 -2.332 -2.594 -2.809 -2.98 -3.111 -3.328 -3.457 -3.543 -3.672 -3.717 -3.803 -3.801 -3.846 -3.846 -3.846 -3.76 -3.76 -3.629 -3.586 -3.414 -3.328 -3.154 -2.98 -2.766 -2.592 -2.334 -2.117 -1.814 -1.557 -1.209 -0.908 -0.561 c -0.173,-0.174 -0.346,-0.174 -0.346,-0.174 h -0.26 -0.302 -0.39 -0.432 -0.476 -0.519 -0.604 -0.605 -0.647 -0.691 -0.691 -0.735 -0.777 -0.777 -0.778 -0.777 -0.821 -0.777 -0.778 -0.821 -0.734 -0.777 -0.734 -0.691 -0.691 -0.648 -0.648 -0.562 -0.519 -0.519 -0.432 -0.346 -0.346 -0.26 c -0.173,0 -0.302,0 -0.302,0 -0.087,0.174 -0.217,0.605 -0.217,0.605 l -0.216,0.777 -0.303,1.037 -0.346,1.254 -0.432,1.555 -0.519,1.729 -0.562,1.988 -0.605,2.117 -0.691,2.332 -0.734,2.506 -0.734,2.637 -0.821,2.766 -0.82,2.895 -0.864,2.982 -0.864,3.023 -0.907,3.111 -0.908,3.197 -0.95,3.197 -0.907,3.199 -0.951,3.24 -0.907,3.197 -0.907,3.154 -0.907,3.111 -0.864,3.068 -0.864,2.98 -0.864,2.852 -0.777,2.766 -0.778,2.637 -0.691,2.506 -0.691,2.332 -0.604,2.162 -0.562,1.943 -0.519,1.771 -0.433,1.512 -0.41,1.301 -0.303,1.037 -0.216,0.734 -0.13,0.477 c -0.086,0 -0.216,-0.477 -0.216,-0.477 l -0.216,-0.734 -0.302,-1.037 -0.389,-1.297 -0.433,-1.512 -0.475,-1.771 -0.605,-1.943 -0.604,-2.162 -0.691,-2.332 -0.691,-2.506 -0.778,-2.637 -0.777,-2.766 -0.864,-2.852 -0.821,-2.98 -0.907,-3.068 -0.907,-3.111 -0.907,-3.154 -0.907,-3.197 -0.951,-3.24 -0.907,-3.199 -0.95,-3.197 -0.908,-3.197 -0.907,-3.111 -0.864,-3.023 -0.864,-2.982 -0.82,-2.895 -0.821,-2.766 -0.734,-2.637 -0.734,-2.506 -0.648,-2.332 -0.648,-2.117 -0.562,-1.988 -0.519,-1.729 -0.432,-1.555 -0.346,-1.254 -0.303,-1.037 -0.216,-0.777 -0.13,-0.432 c -0.216,-0.174 -0.389,-0.174 -0.389,-0.174 h -0.26 -0.302 -0.346 -0.433 -0.432 -0.519 -0.562 -0.604 -0.604 -0.648 -0.691 -0.691 -0.734 -0.734 -0.778 -0.734 -0.777 -0.778 -0.734 -0.734 -0.778 -0.691 -0.734 -0.648 -0.691 -0.604 -0.604 -0.562 -0.475 -0.476 -0.433 -0.346 -0.302 -0.26 c -0.173,0 -0.302,0 -0.302,0 0,0.174 0,0.734 0,0.734 v 0.908 1.209 1.557 1.814 2.117 2.334 2.592 2.766 2.98 3.154 3.328 3.414 3.586 3.629 3.76 3.76 3.846 3.846 3.846 3.801 3.803 3.717 3.672 3.543 3.457 3.328 3.111 2.98 2.809 2.594 2.332 2.074 1.857 1.514 1.252 0.865 0.561 c 0.173,0.217 0.302,0.217 0.302,0.217 0.173,0 0.39,0 0.39,0 h 0.216 0.259 0.303 0.303 0.346 0.346 0.389 0.389 0.389 0.39 0.432 0.432 0.433 0.432 0.433 0.432 0.39 0.432 0.432 0.39 0.389 0.346 0.346 0.346 0.303 0.302 0.26 0.259 c 0.173,0 0.346,0 0.346,0 0.173,0 0.26,0 0.26,0 0.067,-0.002 0.067,-91.174 0.067,-91.174 z"
   stroke-miterlimit="10"
   inkscape:connector-curvature="0" />
</g><g
     id="LINE">
	
		
</g><g
     id="LINE_1_">
	
		<path
   sodipodi:nodetypes="cccccccccc"
   inkscape:connector-curvature="0"
   id="line43"
   d="m 424.203,146 -271.681,0 0,26.55299 252.194,0 0,252.21502 -252.194,0 0,26.52899 271.681,0 46.883,-152.20499 z"
   style="fill:#000000;fill-opacity:1;stroke:none" />
</g><g
     id="LINE_2_">
	
		
</g><g
     id="LINE_3_">
	
		
</g><g
     id="LINE_4_">
	
		
</g><g
     id="LINE_5_">
	
		
</g><g
     id="LINE_6_">
	
		
</g><g
     id="LINE_7_">
	
		
</g><g
     id="LINE_8_">
	
		
</g></g>
</svg>