<?xml version="1.0" encoding="UTF-8" standalone="no"?>
<!-- Generator: Adobe Illustrator 16.0.1, SVG Export Plug-In . SVG Version: 6.00 Build 0)  -->

<svg
   xmlns:dc="http://purl.org/dc/elements/1.1/"
   xmlns:cc="http://creativecommons.org/ns#"
   xmlns:rdf="http://www.w3.org/1999/02/22-rdf-syntax-ns#"
   xmlns:svg="http://www.w3.org/2000/svg"
   xmlns="http://www.w3.org/2000/svg"
   xmlns:xlink="http://www.w3.org/1999/xlink"
   xmlns:sodipodi="http://sodipodi.sourceforge.net/DTD/sodipodi-0.dtd"
   xmlns:inkscape="http://www.inkscape.org/namespaces/inkscape"
   version="1.0"
   id="_x31_"
   x="0px"
   y="0px"
   width="350"
   height="350"
   viewBox="0 0 350 350"
   enable-background="new 0 0 612 792"
   xml:space="preserve"
   inkscape:version="0.48.3.1 r9886"
   sodipodi:docname="6014.svg"><metadata
   id="metadata73"><rdf:RDF><cc:Work
       rdf:about=""><dc:format>image/svg+xml</dc:format><dc:type
         rdf:resource="http://purl.org/dc/dcmitype/StillImage" /></cc:Work></rdf:RDF></metadata><defs
   id="defs71"><radialGradient
     r="333.18735"
     fy="467.91885"
     fx="373.24265"
     cy="467.91885"
     cx="373.24265"
     gradientTransform="matrix(0.83535069,2.5391116e-7,-2.4564601e-7,0.80815885,-725.97492,-115.98714)"
     gradientUnits="userSpaceOnUse"
     id="radialGradient4460"
     xlink:href="#linearGradient5443"
     inkscape:collect="always" /><linearGradient
     y2="254.73526"
     x2="123.47623"
     y1="344.03848"
     x1="123.50603"
     gradientTransform="matrix(2.3189708,0,0,2.0930998,-543.56606,-225.82362)"
     gradientUnits="userSpaceOnUse"
     id="linearGradient4458"
     xlink:href="#linearGradient3187"
     inkscape:collect="always" /><radialGradient
     r="333.18735"
     fy="710.99164"
     fx="373.24265"
     cy="710.99164"
     cx="373.24265"
     gradientTransform="matrix(0.86272606,1.0667183e-7,-5.1097113e-8,0.31433999,-736.19251,168.72353)"
     gradientUnits="userSpaceOnUse"
     id="radialGradient4456"
     xlink:href="#linearGradient5443"
     inkscape:collect="always" /><radialGradient
     r="333.18735"
     fy="467.91885"
     fx="373.24265"
     cy="467.91885"
     cx="373.24265"
     gradientTransform="matrix(0.83393192,2.4025531e-7,-2.452288e-7,0.76469446,-575.89311,126.3946)"
     gradientUnits="userSpaceOnUse"
     id="radialGradient2894-5"
     xlink:href="#linearGradient5443-0"
     inkscape:collect="always" /><linearGradient
     y2="254.73526"
     x2="123.47623"
     y1="344.03848"
     x1="123.50603"
     gradientTransform="matrix(2.3189708,0,0,2.0930998,-543.56606,-225.82362)"
     gradientUnits="userSpaceOnUse"
     id="linearGradient2892-2"
     xlink:href="#linearGradient3187-1"
     inkscape:collect="always" /><radialGradient
     r="333.18735"
     fy="710.99164"
     fx="373.24265"
     cy="710.99164"
     cx="373.24265"
     gradientTransform="matrix(0.8612608,1.0093481e-7,-5.1010329e-8,0.29743416,-586.09339,395.79293)"
     gradientUnits="userSpaceOnUse"
     id="radialGradient2890-7"
     xlink:href="#linearGradient5443-0"
     inkscape:collect="always" /><linearGradient
     id="linearGradient5443-5-6"><stop
       style="stop-color:#ffffff;stop-opacity:0;"
       offset="0"
       id="stop5445-4-1" /><stop
       style="stop-color:#000000;stop-opacity:0.33962265;"
       offset="1"
       id="stop5447-3-4" /></linearGradient><radialGradient
     r="333.18735"
     fy="710.99164"
     fx="373.24265"
     cy="710.99164"
     cx="373.24265"
     gradientTransform="matrix(0.9503534,1.1750652e-7,-5.6287062e-8,0.3462676,317.80591,185.68771)"
     gradientUnits="userSpaceOnUse"
     id="radialGradient4835-3-2"
     xlink:href="#linearGradient5443-5-6"
     inkscape:collect="always" /><radialGradient
     r="333.18735"
     fy="710.99164"
     fx="373.24265"
     cy="710.99164"
     cx="373.24265"
     gradientTransform="matrix(0.8612608,1.0093481e-7,-5.1010329e-8,0.29743416,-586.09339,395.79293)"
     gradientUnits="userSpaceOnUse"
     id="radialGradient4835-2"
     xlink:href="#linearGradient5443-0"
     inkscape:collect="always" /><radialGradient
     r="333.18735"
     fy="467.91885"
     fx="373.24265"
     cy="467.91885"
     cx="373.24265"
     gradientTransform="matrix(0.83393192,2.4025531e-7,-2.452288e-7,0.76469446,-575.89311,126.3946)"
     gradientUnits="userSpaceOnUse"
     id="radialGradient4832-1"
     xlink:href="#linearGradient5443-0"
     inkscape:collect="always" /><linearGradient
     y2="254.73526"
     x2="123.47623"
     y1="344.03848"
     x1="123.50603"
     gradientTransform="matrix(2.3189708,0,0,2.0930998,-543.56606,-225.82362)"
     gradientUnits="userSpaceOnUse"
     id="linearGradient4827-6"
     xlink:href="#linearGradient3187-1"
     inkscape:collect="always" /><linearGradient
     y2="254.73526"
     x2="123.47623"
     y1="344.03848"
     x1="123.50603"
     gradientTransform="matrix(2.3189708,0,0,2.0930998,93.115298,-256.84999)"
     gradientUnits="userSpaceOnUse"
     id="linearGradient4824-8"
     xlink:href="#linearGradient3187-1"
     inkscape:collect="always" /><radialGradient
     r="333.18735"
     fy="467.91885"
     fx="373.24265"
     cy="467.91885"
     cx="373.24265"
     gradientTransform="matrix(0.9201975,2.7970099e-7,-2.7059634e-7,0.8902438,28.590287,48.634335)"
     gradientUnits="userSpaceOnUse"
     id="radialGradient4822-5"
     xlink:href="#linearGradient3171-6"
     inkscape:collect="always" /><radialGradient
     r="333.18735"
     fy="710.99164"
     fx="373.24265"
     cy="710.99164"
     cx="373.24265"
     gradientTransform="matrix(0.9503534,1.1750652e-7,-5.6287062e-8,0.3462676,17.334826,362.44227)"
     gradientUnits="userSpaceOnUse"
     id="radialGradient4820-7"
     xlink:href="#linearGradient3157-2"
     inkscape:collect="always" /><radialGradient
     r="333.18735"
     fy="710.99164"
     fx="373.24265"
     cy="710.99164"
     cx="373.24265"
     gradientTransform="matrix(0.9503534,1.1750652e-7,-5.6287062e-8,0.3462676,17.334826,362.44227)"
     gradientUnits="userSpaceOnUse"
     id="radialGradient4805-6"
     xlink:href="#linearGradient3157-2"
     inkscape:collect="always" /><radialGradient
     r="333.18735"
     fy="467.91885"
     fx="373.24265"
     cy="467.91885"
     cx="373.24265"
     gradientTransform="matrix(0.9201975,2.7970099e-7,-2.7059634e-7,0.8902438,28.590287,48.634335)"
     gradientUnits="userSpaceOnUse"
     id="radialGradient4802-1"
     xlink:href="#linearGradient3171-6"
     inkscape:collect="always" /><linearGradient
     y2="254.73526"
     x2="123.47623"
     y1="344.03848"
     x1="123.50603"
     gradientTransform="matrix(2.3189708,0,0,2.0930998,93.115298,-256.84999)"
     gradientUnits="userSpaceOnUse"
     id="linearGradient4799-8"
     xlink:href="#linearGradient3187-1"
     inkscape:collect="always" /><linearGradient
     y2="254.73526"
     x2="123.47623"
     y1="344.03848"
     x1="123.50603"
     gradientTransform="matrix(2.3189708,0,0,2.0930998,93.115298,-256.84999)"
     gradientUnits="userSpaceOnUse"
     id="linearGradient4794-9"
     xlink:href="#linearGradient3187-1"
     inkscape:collect="always" /><radialGradient
     r="333.18735"
     fy="467.91885"
     fx="373.24265"
     cy="467.91885"
     cx="373.24265"
     gradientTransform="matrix(0.9201975,2.7970099e-7,-2.7059634e-7,0.8902438,28.590287,48.634335)"
     gradientUnits="userSpaceOnUse"
     id="radialGradient4792-2"
     xlink:href="#linearGradient3171-6"
     inkscape:collect="always" /><radialGradient
     r="333.18735"
     fy="710.99164"
     fx="373.24265"
     cy="710.99164"
     cx="373.24265"
     gradientTransform="matrix(0.9503534,1.1750652e-7,-5.6287062e-8,0.3462676,17.334826,362.44227)"
     gradientUnits="userSpaceOnUse"
     id="radialGradient4790-7"
     xlink:href="#linearGradient3157-2"
     inkscape:collect="always" /><radialGradient
     r="333.18735"
     fy="710.99164"
     fx="373.24265"
     cy="710.99164"
     cx="373.24265"
     gradientTransform="matrix(0.9503534,1.1750652e-7,-5.6287062e-8,0.3462676,17.334826,362.44227)"
     gradientUnits="userSpaceOnUse"
     id="radialGradient4779-9"
     xlink:href="#linearGradient3157-2"
     inkscape:collect="always" /><radialGradient
     r="333.18735"
     fy="467.91885"
     fx="373.24265"
     cy="467.91885"
     cx="373.24265"
     gradientTransform="matrix(0.9201975,2.7970099e-7,-2.7059634e-7,0.8902438,28.590287,48.634335)"
     gradientUnits="userSpaceOnUse"
     id="radialGradient4776-5"
     xlink:href="#linearGradient3171-6"
     inkscape:collect="always" /><linearGradient
     y2="254.73526"
     x2="123.47623"
     y1="344.03848"
     x1="123.50603"
     gradientTransform="matrix(2.3189708,0,0,2.0930998,93.115298,-256.84999)"
     gradientUnits="userSpaceOnUse"
     id="linearGradient4773-4"
     xlink:href="#linearGradient3187-1"
     inkscape:collect="always" /><linearGradient
     y2="254.73526"
     x2="123.47623"
     y1="344.03848"
     x1="123.50603"
     gradientTransform="matrix(2.3189708,0,0,2.0930998,93.115298,-256.84999)"
     gradientUnits="userSpaceOnUse"
     id="linearGradient4770-3"
     xlink:href="#linearGradient3187-1"
     inkscape:collect="always" /><radialGradient
     r="333.18735"
     fy="467.91885"
     fx="373.24265"
     cy="467.91885"
     cx="373.24265"
     gradientTransform="matrix(0.9201975,2.7970099e-7,-2.7059634e-7,0.8902438,28.590287,48.634335)"
     gradientUnits="userSpaceOnUse"
     id="radialGradient4768-1"
     xlink:href="#linearGradient3171-6"
     inkscape:collect="always" /><radialGradient
     r="333.18735"
     fy="710.99164"
     fx="373.24265"
     cy="710.99164"
     cx="373.24265"
     gradientTransform="matrix(0.9503534,1.1750652e-7,-5.6287062e-8,0.3462676,17.334826,362.44227)"
     gradientUnits="userSpaceOnUse"
     id="radialGradient4766-2"
     xlink:href="#linearGradient3157-2"
     inkscape:collect="always" /><radialGradient
     r="333.18735"
     fy="710.99164"
     fx="373.24265"
     cy="710.99164"
     cx="373.24265"
     gradientTransform="matrix(0.9503534,1.1750652e-7,-5.6287062e-8,0.3462676,17.334826,362.44227)"
     gradientUnits="userSpaceOnUse"
     id="radialGradient4572-4"
     xlink:href="#linearGradient3157-2"
     inkscape:collect="always" /><radialGradient
     r="333.18735"
     fy="467.91885"
     fx="373.24265"
     cy="467.91885"
     cx="373.24265"
     gradientTransform="matrix(0.9201975,2.7970099e-7,-2.7059634e-7,0.8902438,28.590287,48.634335)"
     gradientUnits="userSpaceOnUse"
     id="radialGradient4569-1"
     xlink:href="#linearGradient3171-6"
     inkscape:collect="always" /><linearGradient
     y2="254.73526"
     x2="123.47623"
     y1="344.03848"
     x1="123.50603"
     gradientTransform="matrix(2.3189708,0,0,2.0930998,93.115298,-256.84999)"
     gradientUnits="userSpaceOnUse"
     id="linearGradient4562-1"
     xlink:href="#linearGradient3187-1"
     inkscape:collect="always" /><linearGradient
     gradientUnits="userSpaceOnUse"
     y2="540.86719"
     x2="360.49777"
     y1="167.50403"
     x1="360.49777"
     id="linearGradient4401-3"
     xlink:href="#linearGradient4395-7"
     inkscape:collect="always" /><linearGradient
     gradientUnits="userSpaceOnUse"
     y2="655.4505"
     x2="396.91168"
     y1="298.59412"
     x1="371.42194"
     id="linearGradient4389-8"
     xlink:href="#linearGradient4383-4"
     inkscape:collect="always" /><inkscape:perspective
     id="perspective3214-7"
     inkscape:persp3d-origin="372.04724 : 350.78739 : 1"
     inkscape:vp_z="744.09448 : 526.18109 : 1"
     inkscape:vp_y="0 : 1000 : 0"
     inkscape:vp_x="0 : 526.18109 : 1"
     sodipodi:type="inkscape:persp3d" /><linearGradient
     id="linearGradient4383-4"><stop
       id="stop4385-2"
       offset="0"
       style="stop-color:#00037f;stop-opacity:1;" /><stop
       id="stop4387-7"
       offset="1"
       style="stop-color:#00037f;stop-opacity:0;" /></linearGradient><linearGradient
     id="linearGradient4395-7"><stop
       id="stop4397-9"
       offset="0"
       style="stop-color:#110084;stop-opacity:1;" /><stop
       id="stop4399-3"
       offset="1"
       style="stop-color:#a695ff;stop-opacity:1;" /></linearGradient><linearGradient
     id="linearGradient3187-1"><stop
       id="stop3189-9"
       offset="0"
       style="stop-color:#ffffff;stop-opacity:0.39622641;" /><stop
       id="stop3191-8"
       offset="1"
       style="stop-color:#000000;stop-opacity:1;" /></linearGradient><linearGradient
     id="linearGradient3171-6"><stop
       style="stop-color:#49bcff;stop-opacity:1;"
       offset="0"
       id="stop3173-5" /><stop
       style="stop-color:#494cdc;stop-opacity:1;"
       offset="1"
       id="stop3175-0" /></linearGradient><linearGradient
     id="linearGradient3157-2"><stop
       id="stop3159-8"
       offset="0"
       style="stop-color:#49bcff;stop-opacity:1;" /><stop
       id="stop3161-6"
       offset="1"
       style="stop-color:#494c96;stop-opacity:1;" /></linearGradient><linearGradient
     id="linearGradient5443-0"><stop
       style="stop-color:#ffffff;stop-opacity:0;"
       offset="0"
       id="stop5445-2" /><stop
       style="stop-color:#000000;stop-opacity:0.33962265;"
       offset="1"
       id="stop5447-4" /></linearGradient><radialGradient
     inkscape:collect="always"
     xlink:href="#linearGradient5443-0"
     id="radialGradient3234"
     gradientUnits="userSpaceOnUse"
     gradientTransform="matrix(0.8612608,1.0093481e-7,-5.1010329e-8,0.29743416,-586.09339,395.79293)"
     cx="373.24265"
     cy="710.99164"
     fx="373.24265"
     fy="710.99164"
     r="333.18735" /><linearGradient
     inkscape:collect="always"
     xlink:href="#linearGradient3187-1"
     id="linearGradient3236"
     gradientUnits="userSpaceOnUse"
     gradientTransform="matrix(2.3189708,0,0,2.0930998,-543.56606,-225.82362)"
     x1="123.50603"
     y1="344.03848"
     x2="123.47623"
     y2="254.73526" /><radialGradient
     inkscape:collect="always"
     xlink:href="#linearGradient5443-0"
     id="radialGradient3238"
     gradientUnits="userSpaceOnUse"
     gradientTransform="matrix(0.83393192,2.4025531e-7,-2.452288e-7,0.76469446,-575.89311,126.3946)"
     cx="373.24265"
     cy="467.91885"
     fx="373.24265"
     fy="467.91885"
     r="333.18735" /><radialGradient
     inkscape:collect="always"
     xlink:href="#linearGradient5443-0"
     id="radialGradient3254"
     gradientUnits="userSpaceOnUse"
     gradientTransform="matrix(0.8612608,1.0093481e-7,-5.1010329e-8,0.29743416,-586.09339,395.79293)"
     cx="373.24265"
     cy="710.99164"
     fx="373.24265"
     fy="710.99164"
     r="333.18735" /><linearGradient
     inkscape:collect="always"
     xlink:href="#linearGradient3187-1"
     id="linearGradient3256"
     gradientUnits="userSpaceOnUse"
     gradientTransform="matrix(2.3189708,0,0,2.0930998,-543.56606,-225.82362)"
     x1="123.50603"
     y1="344.03848"
     x2="123.47623"
     y2="254.73526" /><radialGradient
     inkscape:collect="always"
     xlink:href="#linearGradient5443-0"
     id="radialGradient3258"
     gradientUnits="userSpaceOnUse"
     gradientTransform="matrix(0.83393192,2.4025531e-7,-2.452288e-7,0.76469446,-575.89311,126.3946)"
     cx="373.24265"
     cy="467.91885"
     fx="373.24265"
     fy="467.91885"
     r="333.18735" /><radialGradient
     inkscape:collect="always"
     xlink:href="#linearGradient5443-0"
     id="radialGradient3270"
     gradientUnits="userSpaceOnUse"
     gradientTransform="matrix(0.83535069,2.5391116e-7,-2.4564601e-7,0.80815885,-821.89024,-331.16994)"
     cx="373.24265"
     cy="467.91885"
     fx="373.24265"
     fy="467.91885"
     r="333.18735" /><radialGradient
     inkscape:collect="always"
     xlink:href="#linearGradient5443-0"
     id="radialGradient3274"
     gradientUnits="userSpaceOnUse"
     gradientTransform="matrix(0.86272606,1.0667183e-7,-5.1097113e-8,0.31433999,-832.10787,-46.459305)"
     cx="373.24265"
     cy="710.99164"
     fx="373.24265"
     fy="710.99164"
     r="333.18735" /><linearGradient
     y2="254.73526"
     x2="123.47623"
     y1="344.03848"
     x1="123.50603"
     gradientTransform="matrix(2.3189708,0,0,2.0930998,-543.56606,-225.82362)"
     gradientUnits="userSpaceOnUse"
     id="linearGradient3422"
     xlink:href="#linearGradient3187"
     inkscape:collect="always" /><radialGradient
     r="333.18735"
     fy="710.99164"
     fx="373.24265"
     cy="710.99164"
     cx="373.24265"
     gradientTransform="matrix(0.86272606,1.0667183e-7,-5.1097113e-8,0.31433999,-736.19251,168.72353)"
     gradientUnits="userSpaceOnUse"
     id="radialGradient3416"
     xlink:href="#linearGradient5443"
     inkscape:collect="always" /><radialGradient
     r="333.18735"
     fy="467.91885"
     fx="373.24265"
     cy="467.91885"
     cx="373.24265"
     gradientTransform="matrix(0.83535069,2.5391116e-7,-2.4564601e-7,0.80815885,-725.97492,-115.98714)"
     gradientUnits="userSpaceOnUse"
     id="radialGradient3412"
     xlink:href="#linearGradient5443"
     inkscape:collect="always" /><radialGradient
     r="333.18735"
     fy="467.91885"
     fx="373.24265"
     cy="467.91885"
     cx="373.24265"
     gradientTransform="matrix(0.83393192,2.4025531e-7,-2.452288e-7,0.76469446,-575.89311,126.3946)"
     gradientUnits="userSpaceOnUse"
     id="radialGradient2894"
     xlink:href="#linearGradient5443"
     inkscape:collect="always" /><linearGradient
     y2="254.73526"
     x2="123.47623"
     y1="344.03848"
     x1="123.50603"
     gradientTransform="matrix(2.3189708,0,0,2.0930998,-543.56606,-225.82362)"
     gradientUnits="userSpaceOnUse"
     id="linearGradient2892"
     xlink:href="#linearGradient3187"
     inkscape:collect="always" /><radialGradient
     r="333.18735"
     fy="710.99164"
     fx="373.24265"
     cy="710.99164"
     cx="373.24265"
     gradientTransform="matrix(0.8612608,1.0093481e-7,-5.1010329e-8,0.29743416,-586.09339,395.79293)"
     gradientUnits="userSpaceOnUse"
     id="radialGradient2890"
     xlink:href="#linearGradient5443"
     inkscape:collect="always" /><linearGradient
     id="linearGradient5443-5"><stop
       style="stop-color:#ffffff;stop-opacity:0;"
       offset="0"
       id="stop5445-4" /><stop
       style="stop-color:#000000;stop-opacity:0.33962265;"
       offset="1"
       id="stop5447-3" /></linearGradient><radialGradient
     r="333.18735"
     fy="710.99164"
     fx="373.24265"
     cy="710.99164"
     cx="373.24265"
     gradientTransform="matrix(0.9503534,1.1750652e-7,-5.6287062e-8,0.3462676,317.80591,185.68771)"
     gradientUnits="userSpaceOnUse"
     id="radialGradient4835-3"
     xlink:href="#linearGradient5443-5"
     inkscape:collect="always" /><filter
     color-interpolation-filters="sRGB"
     id="filter5511"
     inkscape:collect="always"><feGaussianBlur
       id="feGaussianBlur5513"
       stdDeviation="3.2374974"
       inkscape:collect="always" /></filter><radialGradient
     r="333.18735"
     fy="710.99164"
     fx="373.24265"
     cy="710.99164"
     cx="373.24265"
     gradientTransform="matrix(0.8612608,1.0093481e-7,-5.1010329e-8,0.29743416,-586.09339,395.79293)"
     gradientUnits="userSpaceOnUse"
     id="radialGradient4835"
     xlink:href="#linearGradient5443"
     inkscape:collect="always" /><radialGradient
     r="333.18735"
     fy="467.91885"
     fx="373.24265"
     cy="467.91885"
     cx="373.24265"
     gradientTransform="matrix(0.83393192,2.4025531e-7,-2.452288e-7,0.76469446,-575.89311,126.3946)"
     gradientUnits="userSpaceOnUse"
     id="radialGradient4832"
     xlink:href="#linearGradient5443"
     inkscape:collect="always" /><linearGradient
     y2="254.73526"
     x2="123.47623"
     y1="344.03848"
     x1="123.50603"
     gradientTransform="matrix(2.3189708,0,0,2.0930998,-543.56606,-225.82362)"
     gradientUnits="userSpaceOnUse"
     id="linearGradient4827"
     xlink:href="#linearGradient3187"
     inkscape:collect="always" /><linearGradient
     y2="254.73526"
     x2="123.47623"
     y1="344.03848"
     x1="123.50603"
     gradientTransform="matrix(2.3189708,0,0,2.0930998,93.115298,-256.84999)"
     gradientUnits="userSpaceOnUse"
     id="linearGradient4824"
     xlink:href="#linearGradient3187"
     inkscape:collect="always" /><radialGradient
     r="333.18735"
     fy="467.91885"
     fx="373.24265"
     cy="467.91885"
     cx="373.24265"
     gradientTransform="matrix(0.9201975,2.7970099e-7,-2.7059634e-7,0.8902438,28.590287,48.634335)"
     gradientUnits="userSpaceOnUse"
     id="radialGradient4822"
     xlink:href="#linearGradient3171"
     inkscape:collect="always" /><radialGradient
     r="333.18735"
     fy="710.99164"
     fx="373.24265"
     cy="710.99164"
     cx="373.24265"
     gradientTransform="matrix(0.9503534,1.1750652e-7,-5.6287062e-8,0.3462676,17.334826,362.44227)"
     gradientUnits="userSpaceOnUse"
     id="radialGradient4820"
     xlink:href="#linearGradient3157"
     inkscape:collect="always" /><radialGradient
     r="333.18735"
     fy="710.99164"
     fx="373.24265"
     cy="710.99164"
     cx="373.24265"
     gradientTransform="matrix(0.9503534,1.1750652e-7,-5.6287062e-8,0.3462676,17.334826,362.44227)"
     gradientUnits="userSpaceOnUse"
     id="radialGradient4805"
     xlink:href="#linearGradient3157"
     inkscape:collect="always" /><radialGradient
     r="333.18735"
     fy="467.91885"
     fx="373.24265"
     cy="467.91885"
     cx="373.24265"
     gradientTransform="matrix(0.9201975,2.7970099e-7,-2.7059634e-7,0.8902438,28.590287,48.634335)"
     gradientUnits="userSpaceOnUse"
     id="radialGradient4802"
     xlink:href="#linearGradient3171"
     inkscape:collect="always" /><linearGradient
     y2="254.73526"
     x2="123.47623"
     y1="344.03848"
     x1="123.50603"
     gradientTransform="matrix(2.3189708,0,0,2.0930998,93.115298,-256.84999)"
     gradientUnits="userSpaceOnUse"
     id="linearGradient4799"
     xlink:href="#linearGradient3187"
     inkscape:collect="always" /><linearGradient
     y2="254.73526"
     x2="123.47623"
     y1="344.03848"
     x1="123.50603"
     gradientTransform="matrix(2.3189708,0,0,2.0930998,93.115298,-256.84999)"
     gradientUnits="userSpaceOnUse"
     id="linearGradient4794"
     xlink:href="#linearGradient3187"
     inkscape:collect="always" /><radialGradient
     r="333.18735"
     fy="467.91885"
     fx="373.24265"
     cy="467.91885"
     cx="373.24265"
     gradientTransform="matrix(0.9201975,2.7970099e-7,-2.7059634e-7,0.8902438,28.590287,48.634335)"
     gradientUnits="userSpaceOnUse"
     id="radialGradient4792"
     xlink:href="#linearGradient3171"
     inkscape:collect="always" /><radialGradient
     r="333.18735"
     fy="710.99164"
     fx="373.24265"
     cy="710.99164"
     cx="373.24265"
     gradientTransform="matrix(0.9503534,1.1750652e-7,-5.6287062e-8,0.3462676,17.334826,362.44227)"
     gradientUnits="userSpaceOnUse"
     id="radialGradient4790"
     xlink:href="#linearGradient3157"
     inkscape:collect="always" /><radialGradient
     r="333.18735"
     fy="710.99164"
     fx="373.24265"
     cy="710.99164"
     cx="373.24265"
     gradientTransform="matrix(0.9503534,1.1750652e-7,-5.6287062e-8,0.3462676,17.334826,362.44227)"
     gradientUnits="userSpaceOnUse"
     id="radialGradient4779"
     xlink:href="#linearGradient3157"
     inkscape:collect="always" /><radialGradient
     r="333.18735"
     fy="467.91885"
     fx="373.24265"
     cy="467.91885"
     cx="373.24265"
     gradientTransform="matrix(0.9201975,2.7970099e-7,-2.7059634e-7,0.8902438,28.590287,48.634335)"
     gradientUnits="userSpaceOnUse"
     id="radialGradient4776"
     xlink:href="#linearGradient3171"
     inkscape:collect="always" /><linearGradient
     y2="254.73526"
     x2="123.47623"
     y1="344.03848"
     x1="123.50603"
     gradientTransform="matrix(2.3189708,0,0,2.0930998,93.115298,-256.84999)"
     gradientUnits="userSpaceOnUse"
     id="linearGradient4773"
     xlink:href="#linearGradient3187"
     inkscape:collect="always" /><linearGradient
     y2="254.73526"
     x2="123.47623"
     y1="344.03848"
     x1="123.50603"
     gradientTransform="matrix(2.3189708,0,0,2.0930998,93.115298,-256.84999)"
     gradientUnits="userSpaceOnUse"
     id="linearGradient4770"
     xlink:href="#linearGradient3187"
     inkscape:collect="always" /><radialGradient
     r="333.18735"
     fy="467.91885"
     fx="373.24265"
     cy="467.91885"
     cx="373.24265"
     gradientTransform="matrix(0.9201975,2.7970099e-7,-2.7059634e-7,0.8902438,28.590287,48.634335)"
     gradientUnits="userSpaceOnUse"
     id="radialGradient4768"
     xlink:href="#linearGradient3171"
     inkscape:collect="always" /><radialGradient
     r="333.18735"
     fy="710.99164"
     fx="373.24265"
     cy="710.99164"
     cx="373.24265"
     gradientTransform="matrix(0.9503534,1.1750652e-7,-5.6287062e-8,0.3462676,17.334826,362.44227)"
     gradientUnits="userSpaceOnUse"
     id="radialGradient4766"
     xlink:href="#linearGradient3157"
     inkscape:collect="always" /><filter
     color-interpolation-filters="sRGB"
     id="filter4659"
     inkscape:collect="always"><feGaussianBlur
       id="feGaussianBlur4661"
       stdDeviation="2.7750933"
       inkscape:collect="always" /></filter><radialGradient
     r="333.18735"
     fy="710.99164"
     fx="373.24265"
     cy="710.99164"
     cx="373.24265"
     gradientTransform="matrix(0.9503534,1.1750652e-7,-5.6287062e-8,0.3462676,17.334826,362.44227)"
     gradientUnits="userSpaceOnUse"
     id="radialGradient4572"
     xlink:href="#linearGradient3157"
     inkscape:collect="always" /><radialGradient
     r="333.18735"
     fy="467.91885"
     fx="373.24265"
     cy="467.91885"
     cx="373.24265"
     gradientTransform="matrix(0.9201975,2.7970099e-7,-2.7059634e-7,0.8902438,28.590287,48.634335)"
     gradientUnits="userSpaceOnUse"
     id="radialGradient4569"
     xlink:href="#linearGradient3171"
     inkscape:collect="always" /><linearGradient
     y2="254.73526"
     x2="123.47623"
     y1="344.03848"
     x1="123.50603"
     gradientTransform="matrix(2.3189708,0,0,2.0930998,93.115298,-256.84999)"
     gradientUnits="userSpaceOnUse"
     id="linearGradient4562"
     xlink:href="#linearGradient3187"
     inkscape:collect="always" /><linearGradient
     gradientUnits="userSpaceOnUse"
     y2="540.86719"
     x2="360.49777"
     y1="167.50403"
     x1="360.49777"
     id="linearGradient4401"
     xlink:href="#linearGradient4395"
     inkscape:collect="always" /><linearGradient
     gradientUnits="userSpaceOnUse"
     y2="655.4505"
     x2="396.91168"
     y1="298.59412"
     x1="371.42194"
     id="linearGradient4389"
     xlink:href="#linearGradient4383"
     inkscape:collect="always" /><inkscape:perspective
     id="perspective3214"
     inkscape:persp3d-origin="372.04724 : 350.78739 : 1"
     inkscape:vp_z="744.09448 : 526.18109 : 1"
     inkscape:vp_y="0 : 1000 : 0"
     inkscape:vp_x="0 : 526.18109 : 1"
     sodipodi:type="inkscape:persp3d" /><linearGradient
     id="linearGradient4383"><stop
       id="stop4385"
       offset="0"
       style="stop-color:#00037f;stop-opacity:1;" /><stop
       id="stop4387"
       offset="1"
       style="stop-color:#00037f;stop-opacity:0;" /></linearGradient><linearGradient
     id="linearGradient4395"><stop
       id="stop4397"
       offset="0"
       style="stop-color:#110084;stop-opacity:1;" /><stop
       id="stop4399"
       offset="1"
       style="stop-color:#a695ff;stop-opacity:1;" /></linearGradient><linearGradient
     id="linearGradient3187"><stop
       id="stop3189"
       offset="0"
       style="stop-color:#ffffff;stop-opacity:0.39622641;" /><stop
       id="stop3191"
       offset="1"
       style="stop-color:#9e9e9e;stop-opacity:1;" /></linearGradient><linearGradient
     id="linearGradient3171"><stop
       style="stop-color:#49bcff;stop-opacity:1;"
       offset="0"
       id="stop3173" /><stop
       style="stop-color:#494cdc;stop-opacity:1;"
       offset="1"
       id="stop3175" /></linearGradient><linearGradient
     id="linearGradient3157"><stop
       id="stop3159"
       offset="0"
       style="stop-color:#49bcff;stop-opacity:1;" /><stop
       id="stop3161"
       offset="1"
       style="stop-color:#494c96;stop-opacity:1;" /></linearGradient><linearGradient
     id="linearGradient5443"><stop
       style="stop-color:#ffffff;stop-opacity:0;"
       offset="0"
       id="stop5445" /><stop
       style="stop-color:#cbcac8;stop-opacity:1;"
       offset="1"
       id="stop5447" /></linearGradient><radialGradient
     inkscape:collect="always"
     xlink:href="#linearGradient5443"
     id="radialGradient3253"
     gradientUnits="userSpaceOnUse"
     gradientTransform="matrix(0.8612608,1.0093481e-7,-5.1010329e-8,0.29743416,-586.09339,395.79293)"
     cx="373.24265"
     cy="710.99164"
     fx="373.24265"
     fy="710.99164"
     r="333.18735" /><linearGradient
     inkscape:collect="always"
     xlink:href="#linearGradient3187"
     id="linearGradient3255"
     gradientUnits="userSpaceOnUse"
     gradientTransform="matrix(2.3189708,0,0,2.0930998,-543.56606,-225.82362)"
     x1="123.50603"
     y1="344.03848"
     x2="123.47623"
     y2="254.73526" /><radialGradient
     inkscape:collect="always"
     xlink:href="#linearGradient5443"
     id="radialGradient3257"
     gradientUnits="userSpaceOnUse"
     gradientTransform="matrix(0.83393192,2.4025531e-7,-2.452288e-7,0.76469446,-575.89311,126.3946)"
     cx="373.24265"
     cy="467.91885"
     fx="373.24265"
     fy="467.91885"
     r="333.18735" /><radialGradient
     inkscape:collect="always"
     xlink:href="#linearGradient5443"
     id="radialGradient3273"
     gradientUnits="userSpaceOnUse"
     gradientTransform="matrix(0.8612608,1.0093481e-7,-5.1010329e-8,0.29743416,-586.09339,395.79293)"
     cx="373.24265"
     cy="710.99164"
     fx="373.24265"
     fy="710.99164"
     r="333.18735" /><linearGradient
     inkscape:collect="always"
     xlink:href="#linearGradient3187"
     id="linearGradient3275"
     gradientUnits="userSpaceOnUse"
     gradientTransform="matrix(2.3189708,0,0,2.0930998,-543.56606,-225.82362)"
     x1="123.50603"
     y1="344.03848"
     x2="123.47623"
     y2="254.73526" /><radialGradient
     inkscape:collect="always"
     xlink:href="#linearGradient5443"
     id="radialGradient3277"
     gradientUnits="userSpaceOnUse"
     gradientTransform="matrix(0.83393192,2.4025531e-7,-2.452288e-7,0.76469446,-575.89311,126.3946)"
     cx="373.24265"
     cy="467.91885"
     fx="373.24265"
     fy="467.91885"
     r="333.18735" /></defs><sodipodi:namedview
   pagecolor="#ffffff"
   bordercolor="#666666"
   borderopacity="1"
   objecttolerance="10"
   gridtolerance="10"
   guidetolerance="10"
   inkscape:pageopacity="0"
   inkscape:pageshadow="2"
   inkscape:window-width="1920"
   inkscape:window-height="1031"
   id="namedview69"
   showgrid="false"
   fit-margin-top="0"
   fit-margin-left="0"
   fit-margin-right="0"
   fit-margin-bottom="0"
   inkscape:zoom="1.1919192"
   inkscape:cx="458.21063"
   inkscape:cy="51.077271"
   inkscape:window-x="-4"
   inkscape:window-y="-4"
   inkscape:window-maximized="1"
   inkscape:current-layer="_x31_" />




















<g
   id="g4264"
   transform="translate(-4.0524846e-6,1.5294449e-7)"><g
     transform="translate(589.18636,-87.165827)"
     id="g4448"><rect
       transform="matrix(2.1051501,0,0,2.1051501,-860.18934,-1.2010596)"
       ry="12.45238"
       rx="16.067965"
       y="48.636749"
       x="135.39355"
       height="152.93848"
       width="152.93848"
       id="rect4192"
       style="fill:#cccccc;fill-opacity:1;stroke:none;filter:url(#filter4659)"
       inkscape:export-filename="C:\Documents and Settings\adscro24\Desktop\128.png"
       inkscape:export-xdpi="29.879425"
       inkscape:export-ydpi="29.879425" /><rect
       inkscape:export-ydpi="29.879425"
       inkscape:export-xdpi="29.879425"
       inkscape:export-filename="C:\Documents and Settings\adscro24\Desktop\128.png"
       style="fill:#cbcac8;fill-opacity:1;stroke:none;filter:url(#filter4659)"
       id="rect3279"
       width="152.93848"
       height="152.93848"
       x="135.39355"
       y="48.636749"
       rx="16.067965"
       ry="12.45238"
       transform="matrix(2.1051501,0,0,2.1051501,-860.18934,-1.2010596)" /><rect
       inkscape:export-ydpi="29.879425"
       inkscape:export-xdpi="29.879425"
       inkscape:export-filename="C:\Documents and Settings\adscro24\Desktop\128.png"
       style="opacity:0.61338286;fill:url(#radialGradient4456);fill-opacity:1;stroke:#000000;stroke-width:3.26806188;stroke-miterlimit:4;stroke-opacity:1;stroke-dasharray:none"
       id="rect3155"
       width="321.95847"
       height="321.95844"
       x="-575.16559"
       y="101.18661"
       rx="33.825478"
       ry="26.214128" /><path
       transform="matrix(0.907795,0,0,0.90779498,-173.95283,-177.39738)"
       inkscape:export-ydpi="29.879425"
       inkscape:export-xdpi="29.879425"
       inkscape:export-filename="C:\Documents and Settings\adscro24\Desktop\128.png"
       inkscape:connector-curvature="0"
       style="opacity:0.61338286;fill:url(#linearGradient4458);fill-opacity:1;stroke:none;filter:url(#filter5511)"
       d="m -397.80626,329.07489 c -19.62748,0 -35.44272,12.0976 -35.44272,27.14163 l 0,124.30857 c 29.25482,11.38638 132.70149,11.89599 165.40488,-5.79022 33.32802,-18.02397 127.54379,-68.44264 171.824837,-52.72052 l 0,-65.79783 c 0,-15.04403 -15.798597,-27.14163 -35.426097,-27.14163 l -266.3609,0 z m -35.44272,263.47103 0,42.88373 c 0,1.33144 0.14331,2.63588 0.38253,3.915 -0.11919,-12.81092 -0.25965,-28.88939 -0.38253,-46.79873 z"
       id="rect3177" /><rect
       inkscape:export-ydpi="29.879425"
       inkscape:export-xdpi="29.879425"
       inkscape:export-filename="C:\Documents and Settings\adscro24\Desktop\128.png"
       style="opacity:0.61338286;fill:url(#radialGradient4460);fill-opacity:1;stroke:#ffffff;stroke-width:0.68992418;stroke-linecap:square;stroke-miterlimit:4;stroke-opacity:1;stroke-dasharray:none"
       id="rect3473"
       width="306.12445"
       height="306.12445"
       x="-567.2486"
       y="109.1036"
       rx="32.161926"
       ry="24.924911" /><rect
       inkscape:export-ydpi="29.879425"
       inkscape:export-xdpi="29.879425"
       inkscape:export-filename="C:\Documents and Settings\adscro24\Desktop\128.png"
       style="opacity:0.61338286;fill:#ffffff;fill-opacity:0;stroke:#000000;stroke-width:3.26806188;stroke-miterlimit:4;stroke-opacity:1;stroke-dasharray:none"
       id="rect3155-2"
       width="321.95847"
       height="321.95844"
       x="-575.16559"
       y="101.18661"
       rx="33.825478"
       ry="26.214128" /></g><g
     transform="translate(358.29183,-87.165827)"
     id="LWPOLYLINE_2_-7">
	
		
</g><g
     transform="translate(358.29183,-87.165827)"
     id="LWPOLYLINE_3_-4">
	
		
</g><g
     transform="translate(358.29183,-87.165827)"
     id="LWPOLYLINE_4_-0">
	
		
</g><g
     transform="translate(184.65055,-351.95215)"
     style="fill:#000000;fill-opacity:1;stroke:none"
     id="LWPOLYLINE_6_-7">
	
		
</g><g
     transform="translate(184.65055,-351.95215)"
     style="fill:#000000;fill-opacity:1;stroke:none"
     id="LWPOLYLINE-4">
	
		
</g><g
     transform="translate(184.65055,-351.95215)"
     style="fill:#000000;fill-opacity:1;stroke:none"
     id="LWPOLYLINE_3_-0">
	
		
</g></g><g
   id="g3827"
   transform="matrix(0.50009375,0,0,0.499999,21.967796,-22.74986)"><g
     style="fill:#000000;fill-opacity:1;stroke:none"
     id="LWPOLYLINE_17_">
	
		<path
   id="path55"
   d="m 515,551.53125 0,92.375 0.3125,0 0.34375,0 0.21875,0 0.28125,0 0.28125,0 0.3125,0 0.3125,0 0.34375,0 0.34375,0 0.375,0 0.40625,0 0.375,0 0.40625,0 0.40625,0 0.4375,0 0.40625,0 0.40625,0 0.4375,0 0.375,0 0.4375,0 0.40625,0 0.375,0 0.375,0 0.375,0 0.34375,0 0.3125,0 0.3125,0 0.25,0 0.25,0 0.21875,0 0.40625,0 0.21875,0 c 0.078,-0.077 0.0937,-0.3125 0.0937,-0.3125 l 0,-0.375 0,-0.53125 0,-0.625 0,-0.71875 0,-0.84375 0,-1 0,-1.03125 0,-1.15625 0,-1.21875 0,-1.3125 0,-1.375 0,-1.40625 0,-1.46875 0,-1.46875 0,-1.5625 0,-1.5625 0,-1.5625 0,-1.59375 0,-1.59375 0,-1.53125 0,-1.5625 0,-1.5625 0,-1.46875 0,-1.46875 0,-1.40625 0,-1.375 0,-1.3125 0,-1.21875 0,-1.15625 0,-1.0625 0,-0.96875 0,-0.84375 0,-0.75 0,-0.625 0,-0.5 0,-0.375 0,-0.25 c 0.077,-0.078 0.1875,-0.0625 0.1875,-0.0625 l 0.375,0 0.25,0 0.28125,0 0.3125,0 0.34375,0 0.34375,0 0.375,0 0.4375,0 0.4375,0 0.46875,0 0.46875,0 0.46875,0 0.5,0 0.5,0 0.5,0 0.5,0 0.5,0 0.53125,0 0.5,0 0.46875,0 0.5,0 0.46875,0 0.4375,0 0.46875,0 0.375,0 0.375,0 0.40625,0 0.34375,0 0.3125,0 0.28125,0 0.21875,0 0.1875,0 0.28125,0 0.4375,0 0.3125,0 0.34375,0 0.34375,0.0312 0.34375,0 0.40625,0 0.375,0.0312 0.40625,0.0625 0.40625,0.0312 0.4375,0.0312 0.40625,0.0312 0.40625,0.0937 0.4375,0.0625 0.46875,0.125 0.4375,0.0937 0.40625,0.15625 0.4375,0.0937 0.4375,0.15625 0.40625,0.1875 0.4375,0.21875 0.375,0.21875 0.4375,0.25 0.40625,0.25 0.375,0.28125 0.40625,0.3125 0.3438,0.34415 0.34375,0.34375 0.34375,0.4375 0.3125,0.4375 0.3125,0.40625 0.3125,0.53125 0.28125,0.5 0.21875,0.53125 0.25,0.59375 0.1875,0.625 0.1875,0.65625 0.15625,0.6875 0.125,0.75 0.0937,0.78125 0.0937,0.8125 0.0312,0.875 0.0937,0.90625 0.0312,0.90625 0.0312,0.875 0.0312,0.90625 0.0625,0.90625 0.0312,0.875 0.0312,0.875 0,0.875 0.0312,0.90625 0.0625,0.84375 0,0.875 0.0312,0.84375 0.0312,0.84375 0,0.875 0.0312,0.84375 0.0625,0.8125 0.0312,0.84375 0.0312,0.84375 0.0312,0.75 0.0625,0.84375 0.0625,0.75 0.0312,0.84375 0.0937,0.71875 0.0312,0.78125 0.0937,0.75 0.0937,0.71875 0.0937,0.75 0.0937,0.6875 0.0937,0.71875 0.15625,0.6875 0.125,0.65625 0.15625,0.65625 0.15625,0.65625 0.15625,0.625 0.125,0.625 0.21875,0.59375 0.1875,0.59375 0.21875,0.5625 0.25,0.5625 0.1875,0 0.34375,0 0.25,0 0.25,0 0.28125,0 0.3125,0 0.34375,0 0.40625,0 0.375,0 0.40625,0 0.40625,0 0.46875,0 0.4375,0 0.46875,0 0.46875,0 0.5,0 0.46875,0 0.46875,0 0.46875,0 0.46875,0 0.46875,0 0.46875,0 0.40625,0 0.4375,0 0.4375,0 0.375,0 0.34375,0 0.375,0 0.34375,0 0.25,0 0.28125,0 0.25,0 0.3125,0 0.21875,0 -0.1875,-0.5 -0.15625,-0.53125 -0.15625,-0.53125 -0.1875,-0.59375 -0.15625,-0.5625 -0.125,-0.625 -0.15625,-0.65625 -0.125,-0.625 -0.15625,-0.71875 -0.0937,-0.65625 -0.125,-0.6875 -0.125,-0.71875 -0.125,-0.71875 -0.0937,-0.71875 -0.0937,-0.71875 -0.125,-0.75 -0.0625,-0.75 -0.0937,-0.71875 -0.0625,-0.75 -0.0625,-0.71875 -0.0937,-0.71875 -0.0625,-0.71875 -0.0937,-0.71875 -0.0312,-0.71875 -0.0937,-0.6875 -0.0312,-0.6875 -0.0312,-0.65625 -0.0312,-0.65625 -0.0625,-0.625 -0.0312,-0.625 -0.0312,-0.59375 -0.0312,-0.5625 0,-0.53125 -0.062,-0.53125 0,-0.46875 -0.0312,-0.46875 0,-0.4375 0,-0.375 0,-0.34375 0,-0.3125 -0.0625,-1.375 -0.0937,-1.28125 -0.0625,-1.25 -0.125,-1.15625 -0.125,-1.125 -0.0937,-1.09375 -0.15625,-1.03125 -0.15625,-0.96875 -0.15625,-0.9375 -0.21875,-0.90625 -0.1875,-0.84375 -0.21875,-0.8125 -0.25,-0.78125 -0.21875,-0.75 -0.28125,-0.65625 -0.28125,-0.65625 -0.3125,-0.625 -0.28125,-0.59375 -0.375,-0.53125 -0.34375,-0.5625 -0.34375,-0.5 -0.40625,-0.46875 -0.375,-0.40625 -0.4375,-0.40625 -0.46875,-0.375 -0.46875,-0.40625 -0.46875,-0.3125 -0.5,-0.34375 -0.5,-0.3125 -0.53125,-0.28125 -0.59375,-0.25 -0.59375,-0.25 -0.5625,-0.21875 -0.625,-0.25 -0.65625,-0.21875 -0.65625,-0.1875 -0.71875,-0.21875 -0.71875,-0.1875 -0.75,-0.1875 -0.75,-0.1875 0.75,-0.125 0.78125,-0.15625 0.71875,-0.1875 0.71875,-0.1875 0.71875,-0.25 0.6875,-0.25 0.6875,-0.28125 0.65625,-0.3125 0.625,-0.34375 0.625,-0.375 0.625,-0.34375 0.5625,-0.375 0.59375,-0.4375 0.5625,-0.4375 0.53125,-0.4375 0.5,-0.46875 0.5,-0.53125 0.46875,-0.5 0.46875,-0.5 0.4375,-0.53125 0.4375,-0.59375 0.40625,-0.59375 0.40625,-0.5625 0.34375,-0.59375 0.34375,-0.625 0.3125,-0.65625 0.3125,-0.625 0.28125,-0.65625 0.25,-0.6875 0.25,-0.6875 0.21875,-0.6875 0.15625,-0.6875 0.21875,-0.75 0.125,-0.6875 0.125,-0.75 0.125,-0.78125 0.0625,-0.75 0.0625,-0.71875 0.0312,-0.78125 0.0312,-0.78125 -0.0312,-0.90625 0,-0.875 -0.0937,-0.90625 -0.0625,-0.84375 -0.0937,-0.90625 -0.0937,-0.84375 -0.15625,-0.875 -0.15625,-0.84375 -0.25,-0.8125 -0.1875,-0.8125 -0.21875,-0.8125 -0.28125,-0.8125 -0.3125,-0.78125 -0.3125,-0.78125 -0.34375,-0.75 -0.40625,-0.71875 -0.375,-0.71875 -0.46875,-0.6875 -0.469,-0.65625 L 562.78125,558.625 562.25,558 l -0.5625,-0.625 -0.5625,-0.59375 -0.625,-0.53125 -0.625,-0.5625 -0.71875,-0.5 -0.6875,-0.46875 -0.75,-0.46875 -0.75,-0.375 -0.84375,-0.40625 -0.84375,-0.34375 -0.84375,-0.34375 L 553.5,552.5 l -0.9375,-0.21875 -1,-0.25 -1.03125,-0.1875 -1.09375,-0.125 -1.0625,-0.0937 -1.125,-0.0625 -1.1875,-0.0312 -0.21875,0 -0.28125,0 -0.375,0 -0.46875,0 -0.5625,0 -0.625,0 -0.6875,0 -0.78125,0 -0.84375,0 -0.90625,0 -0.96875,0 -1,0 -1.03125,0 -1.09375,0 -1.0625,0 -1.125,0 -1.1875,0 -1.15625,0 -1.15625,0 -1.1875,0 -1.125,0 -1.15625,0 -1.125,0 -1.09375,0 -1.09375,0 -1.03125,0 -1,0 -0.96875,0 -0.875,0 -0.875,0 -0.78125,0 -0.6875,0 -0.625,0 -0.5625,0 -0.46875,0 -0.375,0 -0.25,0 -0.25,0 z m 11.15625,10.34375 0.25,0 0.21875,0 0.25,0 0.3125,0 0.34375,0 0.4375,0 0.4375,0 0.46875,0 0.5,0 0.53125,0 0.59375,0 0.59375,0 0.5625,0 0.625,0 0.65625,0 0.625,0 0.65625,0 0.6875,0 0.65625,0 0.65625,0 0.625,0 0.65625,0 0.625,0 0.5625,0 0.59375,0 0.59375,0 0.53125,0 0.5,0 0.46875,0 0.4375,0 0.4375,0 0.34375,0 0.3125,0 0.28125,0 0.1875,0 0.21875,0 c 0.039,0 0.71875,0.0312 0.71875,0.0312 l 0.59375,0.0625 0.625,0.0312 0.59375,0.125 0.53125,0.0937 0.5625,0.125 0.53125,0.15625 0.5,0.1875 0.46875,0.1875 0.46875,0.25 0.46875,0.21875 0.4375,0.28125 0.4375,0.28125 0.375,0.25 0.34375,0.3125 0.40625,0.375 0.34375,0.3125 0.3125,0.375 0.3125,0.34375 0.28125,0.40625 0.25,0.375 0.28125,0.4375 0.21875,0.375 0.25,0.4375 0.21875,0.4375 0.21875,0.46875 0.125,0.40625 0.21875,0.46875 0.15625,0.46875 0.0937,0.46875 0.125,0.46875 0.125,0.46875 0.125,0.5 0.0625,0.46875 0.0937,0.46875 0.0312,0.5 0.0312,0.46875 0.0312,0.5 0,0.46875 0,0.46875 0,0.65625 0,0.65625 -0.0312,0.625 -0.0625,0.65625 -0.0625,0.625 -0.0625,0.625 -0.125,0.59375 -0.125,0.625 -0.0937,0.5625 -0.15625,0.59375 -0.15625,0.5625 -0.15625,0.53125 -0.1875,0.53125 -0.21875,0.5625 -0.21875,0.5 -0.25,0.5 -0.21875,0.46875 -0.28125,0.5 -0.25,0.4375 -0.28125,0.46875 -0.3125,0.4375 -0.3125,0.375 -0.34375,0.375 -0.34375,0.40625 -0.40625,0.34375 -0.34375,0.3125 -0.4375,0.34375 -0.375,0.28125 -0.4375,0.28125 -0.4375,0.25 -0.46875,0.25 -0.46875,0.1875 -0.5,0.1875 -0.46875,0.15625 -0.53125,0.15625 -0.5,0.125 -0.5625,0.0625 -0.5625,0.0937 -0.59375,0.0312 -0.59375,0 -0.25,0 -0.21875,0 -0.25,0 -0.3125,0 -0.34375,0 -0.4375,0 -0.4375,0 -0.46875,0 -0.5,0 -0.53125,0 -0.59375,0 -0.59375,0 -0.5625,0 -0.625,0 -0.65625,0 -0.625,0 -0.65625,0 -0.65625,0 -0.6875,0 -0.65625,0 -0.625,0 -0.65625,0 -0.625,0 -0.5625,0 -0.59375,0 -0.59375,0 -0.53125,0 -0.5,0 -0.46875,0 -0.4375,0 -0.4375,0 -0.34375,0 -0.3125,0 -0.25,0 -0.21875,0 -0.21875,0 c -0.039,-0.002 -0.0312,-29.46875 -0.0312,-29.46875 z"
   style="fill:#000000;fill-opacity:1;stroke:none"
   inkscape:connector-curvature="0" />
</g><g
     style="fill:#000000;fill-opacity:1;stroke:none"
     id="LWPOLYLINE_1_">
	
		<path
   id="path7"
   d="m 156.09375,420.1875 c -0.194,0.155 -0.1875,0.65625 -0.1875,0.65625 l 0,0.8125 0,1.09375 0,1.40625 0,1.625 0,1.90625 0,2.09375 0,2.34375 0,2.46875 0,2.6875 0,2.84375 0,3 0,3.0625 0,3.21875 0,3.28125 0,3.34375 0,3.40625 0,3.46875 0,3.46875 0,3.4375 0,3.4375 0,3.40625 0,3.34375 0,3.3125 0,3.1875 0,3.125 0,2.9375 0,2.84375 0,2.6875 0,2.53125 0,2.3125 0,2.09375 0,1.875 0,1.625 0,1.40625 0,1.09375 0,0.8125 0,0.5 c 0.01,0.192 11.15625,0.1875 11.15625,0.1875 l 0,-0.3125 0,-0.34375 0,-0.5 0,-0.59375 0,-0.71875 0,-0.8125 0,-0.9375 0,-1.03125 0,-1.125 0,-1.15625 0,-1.25 0,-1.3125 0,-1.375 0,-1.375 0,-1.4375 0,-1.5 0,-1.5 0,-1.53125 0,-1.5 0,-1.53125 0,-1.5 0,-1.5 0,-1.46875 0,-1.4375 0,-1.4375 0,-1.34375 0,-1.28125 0,-1.25 0,-1.21875 0,-1.09375 0,-1 0,-0.9375 0,-0.8125 0,-0.75 0,-0.625 0,-0.4375 0,-0.375 0,-0.21875 c 0.116,-0.077 0.25,-0.0937 0.25,-0.0937 l 0.40625,0 0.25,0 0.3125,0 0.34375,0 0.375,0 0.40625,0 0.46875,0 0.46875,0 0.46875,0 0.5,0 0.53125,0 0.53125,0 0.5625,0 0.53125,0 0.5625,0 0.59375,0 0.5625,0 0.5625,0 0.5625,0 0.5625,0 0.5,0 0.53125,0 0.53125,0 0.46875,0 0.46875,0 0.4375,0 0.40625,0 0.40625,0 0.34375,0 0.28125,0 0.28125,0 0.21875,0 0.3125,0 0.84375,0 0.75,-0.0312 0.75,-0.0312 0.8125,-0.0937 0.78125,-0.0625 0.84375,-0.125 0.8125,-0.15625 0.84375,-0.15625 0.84375,-0.1875 0.84375,-0.1875 0.875,-0.28125 0.84375,-0.28125 0.84375,-0.28125 0.84375,-0.3125 0.84375,-0.40625 0.84375,-0.375 0.8125,-0.46875 0.8125,-0.46875 0.8125,-0.5 0.78125,-0.5625 0.78125,-0.5625 0.71875,-0.625 0.75,-0.6875 0.6875,-0.71875 0.65625,-0.75 0.6875,-0.78125 0.59375,-0.84375 0.5625,-0.90625 0.5625,-0.90625 0.53125,-1 0.46875,-1.03125 0.40625,-1.09375 0.40625,-1.125 0.34375,-1.15625 0.28125,-1.25 0.25,-1.34375 0.21875,-1.3125 0.125,-1.40625 0.0937,-1.46875 0.0312,-1.5 -0.0312,-1.59375 -0.0625,-1.53125 -0.125,-1.46875 -0.1875,-1.40625 -0.21875,-1.3125 -0.25,-1.28125 -0.28125,-1.25 -0.34375,-1.15625 -0.375,-1.15625 -0.4375,-1.03125 -0.4375,-1 -0.5,-1 -0.5,-0.90625 -0.5625,-0.875 -0.59375,-0.8125 -0.625,-0.78125 -0.625,-0.71875 -0.6875,-0.6875 -0.6875,-0.65625 -0.75,-0.625 -0.71875,-0.53125 -0.78125,-0.5 -0.75,-0.5 -0.8125,-0.4375 -0.84375,-0.4375 -0.8125,-0.375 -0.84375,-0.34375 -0.875,-0.3125 -0.875,-0.28125 -0.84375,-0.25 -0.90625,-0.21875 -0.90625,-0.1875 -0.875,-0.15625 -0.9375,-0.15625 -0.90625,-0.125 -0.875,-0.0625 -0.9375,-0.0937 -0.90625,-0.0312 -0.90625,-0.0312 -0.875,0 -0.4375,0 -0.3125,0 -0.375,0 -0.46875,0 -0.5625,0 -0.59375,0 -0.65625,0 -0.6875,0 -0.78125,0 -0.8125,0 -0.84375,0 -0.875,0 -0.90625,0 -0.9375,0 -0.96875,0 -0.96875,0 -0.96875,0 -1,0 -0.96875,0 -1,0 -0.96875,0 -0.9375,0 -0.9375,0 -0.90625,0 -0.875,0 -0.875,0 -0.78125,0 -0.78125,0 -0.6875,0 -0.65625,0 -0.625,0 -0.53125,0 -0.46875,0 -0.40625,0 -0.3125,0 -0.21875,0 z m 10.96875,10.34375 0.25,0 0.4375,0 0.28125,0 0.3125,0 0.375,0 0.375,0 0.4375,0 0.46875,0 0.5,0 0.5,0 0.53125,0 0.5625,0 0.5625,0 0.59375,0 0.59375,0 0.5625,0 0.625,0 0.59375,0 0.5625,0 0.625,0 0.5625,0 0.5625,0 0.5625,0 0.53125,0 0.5,0 0.5,0 0.46875,0 0.4375,0 0.375,0 0.375,0 0.3125,0 0.28125,0 0.25,0 0.34375,0 0.3125,0 0.21875,0 0.25,0.0312 0.25,0.0312 0.3125,0.0312 0.3125,0.0625 0.34375,0.0312 0.34375,0.0625 0.375,0.0937 0.375,0.0937 0.40625,0.125 0.40625,0.125 0.4375,0.15625 0.40625,0.1875 0.4375,0.15625 0.4375,0.21875 0.4375,0.25 0.4375,0.21875 0.4375,0.28125 0.4375,0.3125 0.4375,0.34375 0.40625,0.34375 0.4375,0.375 0.40625,0.40625 0.375,0.4375 0.40625,0.46875 0.34375,0.5 0.375,0.5625 0.3125,0.53125 0.3125,0.625 0.28125,0.625 0.28125,0.65625 0.25,0.6875 0.1875,0.75 0.21875,0.8125 0.15625,0.8125 0.0937,0.875 0.125,0.875 0.0312,0.96875 0.0312,0.96875 -0.0312,1.0625 -0.0312,1 -0.125,0.96875 -0.125,0.90625 -0.1875,0.90625 -0.1875,0.8125 -0.25,0.78125 -0.28125,0.71875 -0.28125,0.75 -0.3125,0.65625 -0.34375,0.625 -0.375,0.59375 -0.40625,0.5625 -0.40625,0.53125 -0.4375,0.5 -0.46875,0.46875 -0.4375,0.40625 -0.46875,0.40625 -0.53125,0.34375 -0.46875,0.34375 -0.53125,0.3125 -0.5,0.3125 -0.5312,0.28155 -0.53125,0.21875 -0.53125,0.1875 -0.53125,0.21875 -0.53125,0.1875 -0.53125,0.15625 -0.53125,0.15625 -0.5,0.125 -0.53125,0.0625 -0.5,0.125 -0.5,0.0625 -0.46875,0.0312 -0.4375,0.0625 -0.46875,0.0312 -0.4375,0.0312 -0.40625,0.0312 -0.40625,0 -0.34375,0 -0.21875,0 -0.34375,0 -0.21875,0 -0.25,0 -0.3125,0 -0.3125,0 -0.34375,0 -0.375,0 -0.40625,0 -0.40625,0 -0.40625,0 -0.46875,0 -0.4375,0 -0.46875,0 -0.46875,0 -0.46875,0 -0.46875,0 -0.46875,0 -0.5,0 -0.46875,0 -0.46875,0 -0.4375,0 -0.4375,0 -0.4375,0 -0.40625,0 -0.40625,0 -0.34375,0 -0.375,0 -0.3125,0 -0.28125,0 -0.28125,0 -0.1875,0 -0.375,0 -0.1875,0 0,-31.03125 z"
   style="fill:#000000;fill-opacity:1;stroke:none"
   inkscape:connector-curvature="0" />
</g><g
     style="fill:#000000;fill-opacity:1;stroke:none"
     id="LWPOLYLINE_3_">
	
		<path
   id="path13"
   d="m 224.40625,420.1875 0,92.34375 0.28125,0 0.375,0 0.21875,0 0.25,0 0.3125,0 0.28125,0 0.3125,0 0.34375,0 0.375,0 0.375,0 0.375,0 0.40625,0 0.40625,0 0.40625,0 0.40625,0 0.40625,0 0.4375,0 0.40625,0 0.40625,0 0.40625,0 0.40625,0 0.40625,0 0.375,0 0.34375,0 0.34375,0 0.3125,0 0.3125,0 0.28125,0 0.25,0 0.21875,0 0.375,0 0.21875,0 c 0.078,-0.078 0.0937,-0.3125 0.0937,-0.3125 l 0,-0.375 0,-0.5 0,-0.625 0,-0.75 0,-0.875 0,-0.9375 0,-1.09375 0,-1.125 0,-1.25 0,-1.28125 0,-1.34375 0,-1.40625 0,-1.5 0,-1.5 0,-1.53125 0,-1.53125 0,-1.59375 0,-1.5625 0,-1.59375 0,-1.5625 0,-1.5625 0,-1.53125 0,-1.5 0,-1.46875 0,-1.40625 0,-1.34375 0,-1.34375 0,-1.1875 0,-1.1875 0,-1.03125 0,-0.96875 0,-0.875 0,-0.71875 0,-0.625 0,-0.5 0,-0.40625 0,-0.21875 c 0.097,-0.078 0.21875,-0.0937 0.21875,-0.0937 l 0.375,0 0.21875,0 0.28125,0 0.3125,0 0.34375,0 0.375,0 0.375,0 0.40625,0 0.46875,0 0.4375,0 0.46875,0 0.46875,0 0.5,0 0.5,0 0.5,0 0.5,0 0.53125,0 0.5,0 0.5,0 0.46875,0 0.5,0 0.46875,0 0.4375,0 0.4375,0 0.4375,0 0.40625,0 0.34375,0 0.34375,0 0.3125,0 0.28125,0 0.21875,0 0.21875,0 0.28125,0 0.40625,0 0.3125,0 0.34375,0 0.375,0 0.34375,0.0625 0.375,0 0.40625,0.0312 0.375,0 0.40625,0.0312 0.4375,0.0937 0.40625,0.0312 0.4375,0.0625 0.40625,0.0937 0.46875,0.0625 0.40625,0.125 0.4375,0.125 0.4375,0.15625 0.40625,0.15625 0.4375,0.1875 0.4375,0.1875 0.40625,0.21875 0.40625,0.25 0.40625,0.28125 0.375,0.25 0.375,0.3125 0.375,0.34375 0.34375,0.375 0.375,0.375 0.3125,0.4375 0.28125,0.46875 0.3125,0.5 0.25,0.5 0.28125,0.5625 0.21875,0.5625 0.1875,0.625 0.1875,0.65625 0.15625,0.71875 0.15625,0.71875 0.0937,0.78125 0.0625,0.8125 0.0625,0.90625 0.0312,0.90625 0.0625,0.875 0.0625,0.90625 0.0312,0.875 0.0312,0.90625 0.0312,0.84375 0.0312,0.90625 0.0312,0.90625 0.0312,0.84375 0,0.90625 0.0312,0.84375 0.0312,0.84375 0.0312,0.875 0.0312,0.84375 0.0312,0.84375 0.0312,0.8125 0.0312,0.84375 0.0312,0.8125 0.0625,0.8125 0.0312,0.8125 0.0625,0.78125 0.0625,0.78125 0.0625,0.78125 0.0625,0.75 0.0625,0.75 0.0937,0.75 0.0937,0.71875 0.0937,0.71875 0.125,0.6875 0.125,0.6875 0.125,0.6875 0.15625,0.65625 0.15625,0.65625 0.15625,0.625 0.15625,0.625 0.1875,0.5625 0.21875,0.59375 0.21875,0.53125 0.25,0.59375 0.1875,0 0.34375,0 0.21875,0 0.25,0 0.3125,0 0.3125,0 0.34375,0 0.375,0 0.375,0 0.40625,0 0.4375,0 0.4375,0 0.46875,0 0.46875,0 0.4375,0 0.5,0 0.46875,0 0.46875,0 0.46875,0 0.46875,0 0.46875,0 0.46875,0 0.4375,0 0.4375,0 0.40625,0 0.375,0 0.375,0 0.34375,0 0.34375,0 0.28125,0 0.25,0 0.25,0 0.3125,0 0.21875,0 -0.1875,-0.5 -0.15625,-0.5625 -0.15625,-0.53125 -0.1875,-0.53125 -0.125,-0.625 -0.15625,-0.59375 -0.125,-0.65625 -0.15625,-0.65625 -0.125,-0.65625 -0.1552,-0.65605 -0.0937,-0.71875 -0.125,-0.6875 -0.0937,-0.75 -0.125,-0.75 -0.0937,-0.6875 -0.0937,-0.75 -0.0937,-0.71875 -0.0937,-0.75 -0.0625,-0.71875 -0.0937,-0.75 -0.0625,-0.75 -0.0625,-0.6875 -0.0937,-0.75 -0.0312,-0.6875 -0.0625,-0.6875 -0.0625,-0.6875 -0.0312,-0.65625 -0.0625,-0.65625 -0.0312,-0.625 -0.0312,-0.625 -0.0312,-0.5625 -0.0312,-0.59375 -0.0312,-0.53125 0,-0.53125 -0.0312,-0.46875 -0.0312,-0.4375 0,-0.4375 0,-0.40625 0,-0.34375 0,-0.3125 -0.0625,-1.34375 -0.0937,-1.28125 -0.0937,-1.25 -0.0937,-1.15625 -0.125,-1.15625 -0.125,-1.0625 -0.125,-1.0625 -0.15625,-0.96875 -0.1875,-0.9375 -0.1875,-0.90625 -0.1875,-0.84375 -0.21875,-0.8125 -0.25,-0.78125 -0.25,-0.75 -0.25,-0.6875 -0.28125,-0.625 -0.3125,-0.625 -0.3125,-0.5625 -0.34375,-0.59375 -0.34375,-0.5 -0.375,-0.5 -0.34375,-0.46875 -0.40625,-0.4375 -0.4375,-0.4375 -0.4375,-0.375 -0.46875,-0.34375 -0.46875,-0.375 -0.5,-0.3125 -0.53125,-0.3125 -0.5625,-0.25 -0.5625,-0.28125 -0.5625,-0.21875 -0.625,-0.28125 -0.625,-0.1875 -0.65625,-0.25 -0.65625,-0.1875 -0.6875,-0.1875 -0.71875,-0.1875 -0.75,-0.21875 -0.75,-0.1875 0.75,-0.125 0.75,-0.125 0.75,-0.21875 0.71875,-0.1875 0.71875,-0.21875 0.6875,-0.28125 0.6875,-0.28125 0.65625,-0.3125 0.625,-0.34375 0.625,-0.34375 0.625,-0.34375 0.5625,-0.40625 0.59375,-0.40625 0.53125,-0.4375 0.5625,-0.46875 0.5,-0.46875 0.5,-0.5 0.5,-0.5 0.4375,-0.53125 0.46875,-0.53125 0.40625,-0.59375 0.40625,-0.5625 0.375,-0.59375 0.375,-0.625 0.34375,-0.625 0.3125,-0.625 L 275,452.625 275.28125,452 l 0.25,-0.6875 0.21875,-0.65625 0.25,-0.71875 0.1875,-0.71875 0.1875,-0.71875 0.125,-0.71875 0.125,-0.75 0.125,-0.75 0.0937,-0.71875 0.0312,-0.78125 0.0312,-0.75 0.0312,-0.78125 -0.0312,-0.875 0,-0.90625 -0.0625,-0.875 -0.0937,-0.875 -0.0937,-0.875 -0.125,-0.875 -0.15625,-0.84375 -0.15625,-0.84375 -0.1875,-0.84375 -0.21875,-0.84375 -0.25,-0.78125 -0.25,-0.8125 -0.3125,-0.78125 -0.3125,-0.78125 -0.375,-0.71875 -0.34375,-0.75 -0.40625,-0.6875 -0.46875,-0.71875 -0.4375,-0.6875 -0.5,-0.625 -0.5312,-0.65625 L 271.09375,426 270.5,425.4375 l -0.625,-0.59375 -0.625,-0.5 -0.6875,-0.5 -0.71875,-0.46875 -0.75,-0.46875 -0.78125,-0.4375 -0.8125,-0.375 -0.84375,-0.375 -0.875,-0.3125 -0.90625,-0.25 -0.9375,-0.28125 -1,-0.1875 -1.03125,-0.1875 -1.0625,-0.125 -1.09375,-0.125 -1.125,-0.0625 -1.1875,0 -0.21875,0 -0.28125,0 -0.375,0 -0.46875,0 -0.53125,0 -0.65625,0 -0.6875,0 -0.78125,0 -0.875,0 -0.875,0 -0.96875,0 -1,0 -1.03125,0 -1.0625,0 -1.125,0 -1.125,0 -1.125,0 -1.1875,0 -1.15625,0 -1.15625,0 -1.15625,0 -1.15625,0 -1.125,0 -1.09375,0 -1.0625,0 -1.0625,0 -1,0 -0.9375,0 -0.90625,0 -0.84375,0 -0.78125,0 -0.71875,0 -0.625,0 -0.5625,0 -0.46875,0 -0.375,0 -0.25,0 -0.21875,0 z m 11.125,10.34375 0.28125,0 0.1875,0 0.28125,0 0.3125,0 0.34375,0 0.40625,0 0.4375,0 0.5,0 0.5,0 0.53125,0 0.5625,0 0.59375,0 0.59375,0 0.625,0 0.65625,0 0.625,0 0.65625,0 0.65625,0 0.65625,0 0.65625,0 0.65625,0 0.625,0 0.625,0 0.59375,0 0.59375,0 0.59375,0 0.53125,0 0.5,0 0.46875,0 0.4375,0 0.40625,0 0.34375,0 0.3125,0 0.28125,0 0.21875,0 0.21875,0 0.6875,0 0.625,0.0312 0.625,0.0625 0.5625,0.0937 0.5625,0.0937 0.5625,0.15625 0.53125,0.15625 0.5,0.21875 0.46875,0.1875 0.46875,0.1875 0.46875,0.28125 0.4375,0.21875 0.40625,0.28125 0.375,0.3125 0.40625,0.3125 0.34375,0.3125 0.34375,0.34375 0.3125,0.34375 0.3125,0.40625 0.3125,0.375 0.25,0.40625 0.28125,0.375 0.21875,0.4375 0.25,0.40625 0.21875,0.4375 0.1875,0.4375 0.15625,0.46875 0.1875,0.46875 0.15625,0.46875 0.125,0.46875 0.125,0.4375 0.125,0.46875 0.0937,0.46875 0.0625,0.53125 0.0937,0.4375 0.0625,0.53125 0.0312,0.46875 0.0312,0.5 0,0.46875 0.0312,0.46875 -0.0312,0.65625 0,0.65625 -0.0625,0.625 -0.0312,0.65625 -0.0625,0.625 -0.0937,0.5625 -0.0937,0.625 -0.125,0.59375 -0.125,0.625 -0.125,0.53125 -0.15625,0.59375 -0.1875,0.53125 -0.1875,0.5625 -0.1875,0.53125 -0.21875,0.5 -0.25,0.53125 -0.21875,0.46875 -0.28125,0.46875 -0.28125,0.4375 -0.28125,0.46875 -0.3125,0.4375 -0.3125,0.40625 -0.34375,0.375 -0.34375,0.375 -0.34375,0.375 -0.40625,0.3125 -0.375,0.3125 -0.40625,0.3125 -0.4375,0.25 -0.4375,0.28125 -0.46875,0.21875 -0.46875,0.21875 -0.5,0.1875 -0.46875,0.15625 -0.53125,0.15625 -0.53125,0.0937 -0.53125,0.0937 -0.5625,0.0625 -0.59375,0.0625 -0.59375,0 -0.25,0 -0.21875,0 -0.28125,0 -0.3125,0 -0.34375,0 -0.40625,0 -0.4375,0 -0.46875,0 -0.5,0 -0.53125,0 -0.59375,0 -0.59375,0 -0.59375,0 -0.625,0 -0.625,0 -0.65625,0 -0.65625,0 -0.65625,0 -0.65625,0 -0.65625,0 -0.625,0 -0.65625,0 -0.625,0 -0.59375,0 -0.59375,0 -0.5625,0 -0.53125,0 -0.5,0 -0.5,0 -0.4375,0 -0.40625,0 -0.34375,0 -0.3125,0 -0.28125,0 -0.1875,0 -0.25,0 c -0.04,-0.005 -0.0312,-29.46875 -0.0312,-29.46875 z"
   style="fill:#000000;fill-opacity:1;stroke:none"
   inkscape:connector-curvature="0" />
</g><g
     style="fill:#000000;fill-opacity:1;stroke:none"
     id="LWPOLYLINE_4_">
	
		<path
   id="path16"
   d="m 318.5,418.59375 -1.40625,0.0625 -1.3125,0.125 -1.3125,0.125 -1.25,0.1875 -1.25,0.21875 -1.1875,0.28125 -1.1875,0.3125 -1.125,0.3125 -1.0625,0.375 -1.0625,0.4375 -1.03125,0.46875 -1,0.46875 -0.9375,0.53125 -0.90625,0.5625 -0.875,0.625 -0.84375,0.625 -0.8125,0.6875 -0.78125,0.6875 -0.71875,0.75 -0.71875,0.78125 -0.65625,0.8125 -0.625,0.84375 -0.59375,0.875 -0.53125,0.9375 -0.53125,0.90625 -0.5,0.96875 -0.4375,1.03125 -0.40625,1.03125 -0.375,1.09375 -0.34375,1.09375 -0.3125,1.125 -0.28125,1.15625 -0.21875,1.1875 -0.1875,1.25 -0.15625,1.21875 -0.125,1.28125 -0.0937,1.28125 -0.0625,1.375 -0.0312,1.375 0,0.1875 0,0.25 0,0.375 0,0.46875 0,0.53125 0,0.625 0,0.6875 0,0.75 0,0.8125 0,0.90625 0,0.9375 0,0.96875 0,1 0,1.0625 0,1.0625 0,1.09375 0,1.125 0,1.125 0,1.15625 0,1.125 0,1.125 0,1.125 0,1.09375 0,1.0625 0,1.0625 0,1 0,0.96875 0,0.9375 0,0.875 0,0.8125 0,0.78125 0,0.6875 0,0.625 0,0.5 0,0.46875 0,0.34375 0,0.28125 0,0.21875 0.0312,1.875 0.0625,1.84375 0.0937,1.78125 0.125,1.71875 0.15625,1.65625 0.1875,1.59375 0.21875,1.5625 0.28125,1.46875 0.3125,1.46875 0.34375,1.375 0.375,1.34375 0.40625,1.3125 0.4375,1.21875 0.5,1.1875 0.53125,1.15625 0.53125,1.0625 0.59375,1.03125 0.625,0.96875 0.65625,0.96875 0.71875,0.875 0.71875,0.84375 0.78125,0.8125 0.8125,0.75 0.84375,0.6875 0.875,0.65625 0.90625,0.59375 0.9375,0.59375 1,0.5 1.03125,0.5 1.0625,0.4375 1.0625,0.375 1.125,0.34375 1.1875,0.28125 1.1875,0.28125 1.25,0.21875 1.25,0.15625 1.3125,0.15625 1.3125,0.125 1.40625,0.0312 1.40625,0.0312 1.4375,-0.0312 1.375,-0.0312 1.34375,-0.125 1.28125,-0.15625 1.28125,-0.15625 1.25,-0.21875 1.21875,-0.28125 1.15625,-0.28125 1.125,-0.34375 1.09375,-0.375 1.03125,-0.4375 1.03125,-0.5 1,-0.5 0.9375,-0.59375 0.9375,-0.59375 0.84375,-0.65625 0.875,-0.6875 0.8125,-0.75 0.71875,-0.8125 0.75,-0.84375 0.6875,-0.875 0.65625,-0.96875 0.625,-0.96875 0.625,-1.03125 0.5625,-1.0625 0.5,-1.15625 0.5,-1.1875 L 346,497.28125 346.40625,496 l 0.40625,-1.375 0.3125,-1.34375 0.3125,-1.5 0.28125,-1.46875 0.21875,-1.5625 0.1875,-1.59375 0.15625,-1.65625 0.15625,-1.71875 0.0937,-1.78125 0.0312,-1.84375 0.0312,-1.84375 0,-0.25 0,-0.28125 0,-0.34375 0,-0.46875 0,-0.5 0,-0.625 0,-0.6875 0,-0.78125 0,-0.8125 0,-0.875 0,-0.90625 0,-1 0,-1 0,-1.0625 0,-1.0625 0,-1.09375 0,-1.125 0,-1.125 0,-1.125 0,-1.15625 0,-1.125 0,-1.125 0,-1.09375 0,-1.0625 0,-1.0625 0,-1 0,-0.96875 0,-0.9375 0,-0.90625 0,-0.8125 0,-0.75 0,-0.6875 0,-0.625 0,-0.53125 0,-0.46875 0,-0.375 0,-0.25 0,-0.1875 -0.0312,-1.375 -0.0312,-1.375 -0.0937,-1.28125 -0.15625,-1.28125 -0.15625,-1.21875 -0.1875,-1.25 -0.21875,-1.1875 -0.28125,-1.15625 -0.3125,-1.125 -0.3125,-1.09375 -0.40625,-1.09375 -0.40625,-1.03125 -0.4375,-1.03125 -0.5,-0.96875 -0.5,-0.90625 L 344,429.75 l -0.625,-0.875 -0.625,-0.84375 -0.65625,-0.8125 -0.6875,-0.78125 -0.75,-0.75 -0.71875,-0.6875 -0.8125,-0.6875 -0.875,-0.625 -0.84375,-0.625 -0.9375,-0.5625 -0.9375,-0.53125 -1,-0.46875 -1.03125,-0.46875 -1.03125,-0.4375 -1.09375,-0.375 -1.125,-0.3125 -1.15625,-0.3125 -1.21875,-0.28125 -1.25,-0.21875 -1.28125,-0.1875 -1.28125,-0.125 -1.34375,-0.125 -1.375,-0.0625 -1.4375,0 -1.40625,0 z m 0.40625,9.5625 0.34375,0 0.34375,0 0.3125,0 0.3125,0 0.34375,0 0.40625,0 0.375,0.0312 0.4375,0.0312 0.46875,0.0312 0.46875,0.0625 0.46875,0.0625 0.5,0.0937 0.53125,0.0937 0.53125,0.125 0.53125,0.125 0.59375,0.1875 0.53125,0.1875 0.53125,0.1875 0.59375,0.25 0.59375,0.28125 0.53125,0.3125 0.59375,0.34375 0.53125,0.34375 0.5625,0.4375 0.53125,0.40625 0.5,0.53125 0.5625,0.5 0.46875,0.5625 0.5,0.59375 0.46875,0.65625 0.40625,0.71875 0.4375,0.75 0.40625,0.78125 0.34375,0.875 0.34375,0.9375 0.28125,0.90625 0.25,1.0625 0.25,1.09375 0.1875,1.125 0.15625,1.21875 0.125,1.21875 0.0625,1.375 0,1.40625 0,0.1875 0,0.28125 0,0.375 0,0.46875 0,0.53125 0,0.625 0,0.75 0,0.78125 0,0.8125 0,0.9375 0,0.9375 0,1 0,1.0625 0,1.03125 0,1.125 0,1.125 0,1.125 0,1.1875 0,1.15625 0,1.15625 0,1.1875 0,1.125 0,1.125 0,1.125 0,1.03125 0,1.0625 0,1 0,0.9375 0,0.9375 0,0.8125 0,0.78125 0,0.75 0,0.625 0,0.53125 0,0.46875 0,0.375 0,0.28125 0,0.1875 0,1.5 -0.0312,1.375 -0.0312,1.375 -0.0937,1.3125 -0.0625,1.28125 -0.125,1.21875 -0.15625,1.15625 -0.15625,1.09375 -0.15625,1.09375 -0.1875,1 -0.25,0.96875 -0.21875,0.9375 -0.28125,0.90625 -0.25,0.8125 -0.3125,0.8125 -0.3125,0.75 -0.34375,0.71875 -0.40625,0.65625 -0.375,0.6875 -0.40625,0.5625 -0.4375,0.59375 -0.4375,0.5 -0.46875,0.5 -0.46875,0.46875 -0.5625,0.40625 -0.5,0.375 -0.53125,0.40625 -0.59375,0.28125 -0.625,0.3125 -0.59375,0.25 -0.65625,0.21875 -0.65625,0.25 -0.65625,0.15625 -0.6875,0.15625 -0.75,0.15625 -0.75,0.0625 -0.78125,0.0937 -0.75,0.0625 -0.78125,0 -0.875,0.0312 -0.8125,-0.0312 -0.8125,0 -0.78125,-0.0625 -0.75,-0.0937 -0.71875,-0.0625 -0.75,-0.15625 -0.6875,-0.15625 -0.65625,-0.15625 -0.6875,-0.25 -0.65625,-0.21875 -0.625,-0.25 -0.5625,-0.3125 -0.59375,-0.28125 -0.53125,-0.40625 -0.5625,-0.375 -0.5,-0.40625 -0.5,-0.46875 -0.46875,-0.5 -0.4375,-0.5 -0.40625,-0.59375 -0.4375,-0.5625 -0.40625,-0.6875 -0.34375,-0.65625 -0.34375,-0.71875 -0.3125,-0.75 -0.3125,-0.8125 -0.28125,-0.8125 -0.25,-0.90625 -0.25,-0.9375 -0.21875,-0.96875 -0.1875,-1 -0.1875,-1.09375 -0.15625,-1.09375 -0.125,-1.15625 -0.125,-1.21875 -0.0937,-1.28125 -0.0625,-1.3125 -0.0625,-1.375 -0.0312,-1.375 0,-1.5 0,-0.1875 0,-0.28125 0,-0.375 0,-0.46875 0,-0.53125 0,-0.625 0,-0.75 0,-0.78125 0,-0.8125 0,-0.9375 0,-0.9375 0,-1 0,-1.0625 0,-1.03125 0,-1.125 0,-1.125 0,-1.125 0,-1.1875 0,-1.15625 0,-1.15625 0,-1.1875 0,-1.125 0,-1.125 0,-1.125 0,-1.03125 0,-1.0625 0,-1 0,-0.9375 0,-0.9375 0,-0.8125 0,-0.78125 0,-0.75 0,-0.625 0,-0.53125 0,-0.46875 0,-0.375 0,-0.28125 0,-0.1875 0,-1.40625 0.0625,-1.375 0.125,-1.21875 0.15625,-1.21875 0.1875,-1.125 0.25,-1.09375 0.25,-1.0625 0.3125,-0.90625 0.34375,-0.9375 0.34375,-0.875 0.40625,-0.78125 0.40625,-0.75 0.4375,-0.71875 0.46875,-0.65625 0.46875,-0.59375 0.5,-0.5625 0.5,-0.5 0.56225,-0.531 0.53125,-0.40625 0.53125,-0.4375 0.5625,-0.34375 0.5625,-0.34375 0.5625,-0.3125 0.59375,-0.28125 0.53125,-0.25 0.59375,-0.1875 L 314,429 l 0.53125,-0.1875 0.5625,-0.125 0.53125,-0.125 0.5,-0.0937 0.53125,-0.0937 0.5,-0.0625 0.46875,-0.0625 0.46875,-0.0312 0.375,-0.0312 0.4375,-0.0312 z"
   style="fill:#000000;fill-opacity:1;stroke:none"
   inkscape:connector-curvature="0" />
</g><g
     style="fill:#000000;fill-opacity:1;stroke:none"
     id="LWPOLYLINE_21_">
	
		<path
   id="polygon67"
   d="m 183.78125,145.5 0,39.8125 0,39.8125 39.8125,0 0,139.3125 99.5,0 0,30.25 99.53125,0 0,-79.625 -99.53125,0 0,29.46875 -79.59375,0 0,-79.59375 79.59375,0 0,30.21875 99.53125,0 0,-79.59375 -99.53125,0 0,29.46875 -79.59375,0 0,-19.90625 39.8125,0 0,-79.625 -99.53125,0 z m 19.90625,19.90625 59.71875,0 0,39.8125 -59.71875,0 0,-39.8125 z M 343,235.46875 l 59.71875,0 0,39.8125 -59.71875,0 0,-39.8125 z m 0,99.5 59.71875,0 0,39.8125 -59.71875,0 0,-39.8125 z"
   style="fill:#000000;fill-opacity:1;stroke:none"
   inkscape:connector-curvature="0" />
</g><g
     style="fill:#000000;fill-opacity:1;stroke:none"
     id="LWPOLYLINE">
	
		
</g><g
     style="fill:#000000;fill-opacity:1;stroke:none"
     id="LWPOLYLINE_2_">
	
		
</g><g
     style="fill:#000000;fill-opacity:1;stroke:none"
     id="LWPOLYLINE_5_">
	
		
</g><g
     style="fill:#000000;fill-opacity:1;stroke:none"
     id="LWPOLYLINE_6_">
	
		<path
   style="fill:#000000;fill-opacity:1;stroke:none"
   id="path22"
   d="m 423.434,444.862 -0.039,-1.438 -0.038,-1.361 -0.078,-1.321 -0.116,-1.283 -0.156,-1.205 -0.194,-1.205 -0.194,-1.166 -0.271,-1.089 -0.272,-1.088 -0.312,-1.011 -0.35,-1.011 -0.389,-0.934 -0.428,-0.894 -0.467,-0.895 -0.466,-0.816 -0.545,-0.777 -0.544,-0.777 -0.622,-0.7 -0.622,-0.7 -0.661,-0.621 -0.699,-0.622 -0.738,-0.584 -0.778,-0.544 -0.816,-0.505 -0.854,-0.467 -0.895,-0.428 -0.933,-0.389 -0.934,-0.389 -1.011,-0.35 -1.05,-0.312 -1.05,-0.272 -1.127,-0.232 -1.127,-0.194 -1.205,-0.194 -1.206,-0.156 -1.243,-0.116 -1.322,-0.117 -1.321,-0.077 -1.4,-0.039 h -1.399 -1.399 l -1.399,0.078 -1.321,0.116 -1.322,0.116 -1.283,0.195 -1.243,0.232 -1.167,0.272 -1.166,0.312 -1.127,0.311 -1.128,0.389 -1.05,0.428 -1.011,0.467 -0.972,0.466 -0.972,0.545 -0.895,0.544 -0.894,0.622 -0.855,0.622 -0.777,0.699 -0.778,0.7 -0.738,0.738 -0.699,0.778 -0.661,0.816 -0.622,0.854 -0.583,0.855 -0.583,0.934 -0.506,0.933 -0.467,0.972 -0.466,1.011 -0.428,1.05 -0.35,1.089 -0.351,1.088 -0.311,1.128 -0.272,1.166 -0.233,1.166 -0.194,1.244 -0.155,1.244 -0.116,1.283 -0.078,1.282 -0.078,1.361 v 1.36 c 0,0.039 0,0.194 0,0.194 v 0.272 0.35 0.467 0.544 0.622 0.7 0.738 0.816 0.894 0.934 0.972 1.011 1.05 1.089 1.088 1.128 1.127 1.128 1.127 1.128 1.127 1.089 1.088 1.05 1.011 0.972 0.934 0.855 0.816 0.777 0.699 0.622 0.506 0.466 0.351 0.271 c 0,0.156 0,0.233 0,0.233 v 1.866 l 0.078,1.827 0.078,1.788 0.116,1.711 0.155,1.672 0.194,1.594 0.233,1.555 0.272,1.478 0.311,1.478 0.351,1.36 0.35,1.36 0.428,1.283 0.466,1.244 0.467,1.166 0.506,1.166 0.583,1.05 0.583,1.05 0.622,0.972 0.661,0.972 0.699,0.855 0.738,0.855 0.778,0.816 0.777,0.738 0.855,0.7 0.894,0.661 0.895,0.583 0.972,0.583 0.972,0.505 1.011,0.506 1.05,0.428 1.128,0.389 1.127,0.35 1.166,0.272 1.167,0.271 1.243,0.233 1.283,0.156 1.322,0.155 1.321,0.116 1.399,0.039 1.399,0.039 0.895,-0.039 h 0.855 l 0.855,-0.039 0.854,-0.039 0.855,-0.038 0.816,-0.078 0.777,-0.078 0.816,-0.077 0.777,-0.078 0.778,-0.116 0.738,-0.117 0.777,-0.116 0.739,-0.117 0.699,-0.155 0.738,-0.155 0.7,-0.155 0.7,-0.155 0.699,-0.195 0.661,-0.155 0.699,-0.194 0.661,-0.194 0.661,-0.233 0.661,-0.194 0.622,-0.233 0.66,-0.194 0.622,-0.232 0.661,-0.272 0.622,-0.233 0.622,-0.233 0.622,-0.272 0.583,-0.271 0.622,-0.233 0.622,-0.272 0.583,-0.271 0.622,-0.272 0.583,-0.311 0.622,-0.272 0.583,-0.312 0.583,-0.271 0.622,-0.312 c 0,-0.077 0,-0.311 0,-0.311 v -0.389 -0.545 -0.66 -0.778 -0.933 -1.011 -1.127 -1.206 -1.282 -1.399 -1.399 -1.517 -1.555 -1.556 -1.633 -1.633 -1.671 -1.672 -1.672 -1.672 -1.633 -1.633 -1.594 -1.555 -1.478 -1.438 -1.36 -1.283 -1.244 -1.088 -1.05 -0.895 -0.782 -0.699 -0.506 -0.389 -0.272 c -0.077,-0.077 -0.233,-0.077 -0.233,-0.077 h -0.232 -0.351 -0.428 -0.505 -0.583 -0.661 -0.7 -0.777 -0.855 -0.854 -0.934 -0.972 -0.972 -1.05 -1.05 -1.05 -1.05 -1.088 -1.05 -1.089 -1.05 -1.049 -1.011 -1.011 -0.934 -0.933 -0.895 -0.816 -0.777 -0.738 -0.661 -0.583 -0.506 -0.428 -0.35 -0.233 c -0.155,0 -0.194,0 -0.194,0 0,0.194 0,0.311 0,0.311 0,0.155 0,0.312 0,0.312 v 0.232 0.233 0.272 0.272 0.311 0.312 0.311 0.35 0.389 0.351 0.389 0.389 0.35 0.389 0.389 0.389 0.389 0.39 0.35 0.389 0.311 0.351 0.311 0.312 0.271 0.272 0.233 0.194 c 0,0.194 0,0.35 0,0.35 0,0.117 0,0.233 0,0.233 0.117,0.078 0.233,0.078 0.233,0.078 h 0.233 0.233 0.311 0.312 0.389 0.428 0.466 0.467 0.506 0.544 0.583 0.583 0.583 0.622 0.583 0.622 0.661 0.622 0.622 0.622 0.583 0.622 0.544 0.583 0.545 0.505 0.467 0.467 0.428 0.389 0.311 0.312 0.271 0.194 c 0.117,0 0.233,0 0.233,0 0.039,0.194 0.039,0.427 0.039,0.427 v 0.312 0.389 0.506 0.544 0.622 0.661 0.738 0.816 0.816 0.855 0.933 0.933 0.973 0.972 1.011 1.011 1.011 1.011 1.011 0.972 1.011 0.973 0.933 0.895 0.854 0.855 0.777 0.739 0.66 0.622 0.583 0.467 0.389 0.351 0.232 c 0,0.194 -0.194,0.389 -0.194,0.389 -0.194,0.156 -0.428,0.351 -0.428,0.351 l -0.194,0.155 -0.233,0.194 -0.272,0.155 -0.232,0.194 -0.272,0.156 -0.272,0.194 -0.311,0.155 -0.272,0.155 -0.311,0.194 -0.351,0.155 -0.311,0.156 -0.35,0.155 -0.351,0.155 -0.389,0.116 -0.35,0.156 -0.389,0.155 -0.389,0.116 -0.428,0.156 -0.428,0.116 -0.428,0.116 -0.428,0.117 -0.466,0.116 -0.428,0.117 -0.467,0.077 -0.506,0.117 -0.466,0.077 -0.506,0.078 -0.505,0.078 -0.545,0.077 -0.505,0.039 -0.544,0.078 -0.545,0.038 -0.544,0.039 -0.583,0.039 h -0.583 l -0.584,0.039 h -0.583 l -0.816,-0.039 h -0.816 l -0.777,-0.078 -0.777,-0.077 -0.738,-0.078 -0.7,-0.155 -0.699,-0.155 -0.7,-0.155 -0.661,-0.233 -0.622,-0.233 -0.622,-0.233 -0.583,-0.311 -0.583,-0.312 -0.544,-0.389 -0.545,-0.389 -0.505,-0.389 -0.506,-0.467 -0.466,-0.505 -0.467,-0.506 -0.428,-0.583 -0.389,-0.583 -0.389,-0.661 -0.35,-0.661 -0.351,-0.738 -0.35,-0.738 -0.272,-0.816 -0.311,-0.816 -0.233,-0.895 -0.272,-0.933 -0.194,-0.973 -0.194,-1.011 -0.194,-1.088 -0.155,-1.089 -0.116,-1.166 -0.117,-1.205 -0.116,-1.283 -0.078,-1.321 -0.039,-1.361 -0.038,-1.399 v -1.478 c 0,-0.038 0,-0.194 0,-0.194 v -0.271 -0.389 -0.467 -0.544 -0.622 -0.739 -0.777 -0.816 -0.933 -0.934 -1.011 -1.05 -1.049 -1.128 -1.127 -1.128 -1.166 -1.166 -1.167 -1.166 -1.127 -1.128 -1.127 -1.05 -1.05 -1.011 -0.933 -0.934 -0.816 -0.777 -0.738 -0.622 -0.544 -0.467 -0.389 -0.272 c 0,-0.155 0,-0.194 0,-0.194 l 0.038,-1.399 0.039,-1.36 0.117,-1.244 0.155,-1.205 0.194,-1.128 0.233,-1.088 0.271,-1.05 0.312,-0.934 0.311,-0.933 0.389,-0.855 0.39,-0.777 0.389,-0.777 0.466,-0.7 0.467,-0.661 0.467,-0.583 0.505,-0.583 0.506,-0.505 0.544,-0.506 0.506,-0.428 0.583,-0.428 0.544,-0.35 0.544,-0.35 0.584,-0.312 0.544,-0.271 0.583,-0.233 0.544,-0.194 0.583,-0.194 0.545,-0.194 0.544,-0.117 0.544,-0.116 0.506,-0.117 0.505,-0.077 0.467,-0.078 0.506,-0.039 0.428,-0.038 0.427,-0.039 0.39,-0.039 h 0.389 0.35 0.311 0.816 l 0.816,0.039 0.739,0.039 0.777,0.077 0.699,0.078 0.7,0.116 0.661,0.155 0.66,0.156 0.584,0.155 0.622,0.233 0.544,0.194 0.544,0.233 0.545,0.271 0.505,0.272 0.467,0.311 0.466,0.312 0.428,0.35 0.428,0.389 0.389,0.389 0.351,0.389 0.35,0.428 0.311,0.467 0.312,0.467 0.311,0.466 0.272,0.545 0.233,0.505 0.233,0.583 0.194,0.545 0.194,0.622 0.194,0.622 0.155,0.622 0.116,0.66 0.117,0.661 0.116,0.7 0.078,0.738 0.078,0.738 0.038,0.778 0.039,0.777 0.039,0.816 v 0.816 h 12.755 z"
   stroke-miterlimit="10"
   inkscape:connector-curvature="0" />
</g><g
     style="fill:#000000;fill-opacity:1;stroke:none"
     id="LWPOLYLINE_7_">
	
		<path
   style="fill:#000000;fill-opacity:1;stroke:none"
   id="path25"
   d="m 452.901,498.977 c -0.194,0 -0.35,0 -0.35,0 -0.194,0 -0.389,0 -0.389,0 h -0.233 -0.272 -0.311 -0.312 -0.35 -0.389 -0.389 -0.389 -0.428 -0.428 -0.428 -0.428 -0.466 -0.428 -0.467 -0.428 -0.428 -0.428 -0.428 -0.428 -0.389 -0.389 -0.389 -0.35 -0.312 -0.311 -0.272 -0.232 -0.195 c -0.194,0 -0.35,0 -0.35,0 -0.194,0.117 -0.194,0.233 -0.194,0.233 0,0.156 0,0.351 0,0.351 v 0.271 0.272 0.311 0.312 0.389 0.389 0.428 0.428 0.428 0.505 0.467 0.505 0.467 0.506 0.505 0.545 0.466 0.506 0.505 0.467 0.467 0.466 0.428 0.428 0.389 0.389 0.312 0.311 0.272 0.272 0.194 c 0,0.155 0,0.271 0,0.271 0.194,0.117 0.35,0.117 0.35,0.117 0.194,0 0.39,0 0.39,0 h 0.232 0.272 0.311 0.312 0.35 0.389 0.389 0.389 0.428 0.428 0.428 0.428 0.428 0.467 0.428 0.466 0.428 0.428 0.428 0.428 0.389 0.389 0.389 0.35 0.312 0.311 0.272 0.233 0.194 c 0.194,0 0.35,0 0.35,0 0.194,-0.004 0.194,-13.572 0.194,-13.572 z"
   stroke-miterlimit="10"
   inkscape:connector-curvature="0" />
</g><g
     style="fill:#000000;fill-opacity:1;stroke:none"
     id="LWPOLYLINE_8_">
	
		<path
   style="fill:#000000;fill-opacity:1;stroke:none"
   id="path28"
   d="m 53.201,561.878 c 0.058,0.155 0.175,0.622 0.175,0.622 l 0.233,0.699 0.291,0.973 0.369,1.244 0.428,1.438 0.506,1.71 0.563,1.866 0.622,2.061 0.681,2.216 0.699,2.371 0.759,2.527 0.797,2.644 0.836,2.76 0.854,2.838 0.875,2.916 0.895,2.993 0.913,2.993 0.914,3.071 0.933,3.071 0.933,3.071 0.914,3.071 0.913,3.032 0.895,2.955 0.875,2.915 0.855,2.838 0.835,2.761 0.798,2.644 0.758,2.526 0.719,2.372 0.661,2.216 0.622,2.06 0.563,1.905 0.506,1.672 0.428,1.438 0.369,1.244 0.311,0.972 0.214,0.699 0.136,0.467 c 0.117,0.155 0.214,0.155 0.214,0.155 0.137,0 0.312,0 0.312,0 0.194,0 0.428,0 0.428,0 h 0.253 0.271 0.312 0.311 0.35 0.351 0.369 0.389 0.408 0.408 0.408 0.408 0.428 0.408 0.428 0.408 0.408 0.389 0.389 0.369 0.369 0.331 0.33 0.292 0.291 0.253 0.233 c 0.194,0 0.35,0 0.35,0 0.136,0 0.233,0 0.233,0 0.136,-0.155 0.272,-0.622 0.272,-0.622 l 0.213,-0.699 0.292,-0.972 0.369,-1.244 0.447,-1.438 0.486,-1.672 0.563,-1.905 0.622,-2.06 0.68,-2.216 0.72,-2.372 0.758,-2.526 0.797,-2.644 0.816,-2.761 0.855,-2.838 0.875,-2.915 0.913,-2.955 0.895,-3.032 0.933,-3.071 0.914,-3.071 0.933,-3.071 0.914,-3.071 0.913,-2.993 0.895,-2.993 0.874,-2.916 0.855,-2.838 0.836,-2.76 0.797,-2.644 0.759,-2.527 0.719,-2.371 0.661,-2.216 0.622,-2.061 0.563,-1.866 0.505,-1.71 0.447,-1.438 0.369,-1.244 0.292,-0.973 0.214,-0.699 0.136,-0.467 c 0.039,0 0.039,0.467 0.039,0.467 v 0.699 0.973 1.244 1.438 1.71 1.866 2.061 2.216 2.371 2.527 2.644 2.76 2.838 2.916 2.993 2.993 3.071 3.071 3.071 3.071 3.032 2.955 2.915 2.838 2.761 2.644 2.526 2.372 2.216 2.06 1.905 1.672 1.438 1.244 0.972 0.699 0.467 c 0.175,0.155 0.312,0.155 0.312,0.155 0.175,0 0.369,0 0.369,0 h 0.233 0.252 0.272 0.311 0.312 0.35 0.35 0.39 0.389 0.389 0.408 0.408 0.408 0.428 0.408 0.427 0.408 0.408 0.39 0.389 0.369 0.369 0.33 0.331 0.311 0.272 0.253 0.233 c 0.194,0 0.369,0 0.369,0 0.116,0 0.214,0 0.214,0 0.097,-0.194 0.097,-0.66 0.097,-0.66 v -0.816 -1.128 -1.36 -1.672 -1.866 -2.099 -2.333 -2.488 -2.682 -2.838 -2.994 -3.109 -3.188 -3.266 -3.382 -3.382 -3.46 -3.46 -3.46 -3.46 -3.383 -3.382 -3.266 -3.227 -3.071 -2.993 -2.838 -2.683 -2.488 -2.332 -2.1 -1.905 -1.633 -1.36 -1.127 -0.816 -0.506 c -0.155,-0.155 -0.311,-0.155 -0.311,-0.155 h -0.233 -0.292 -0.33 -0.389 -0.447 -0.467 -0.524 -0.544 -0.603 -0.604 -0.641 -0.661 -0.681 -0.699 -0.7 -0.719 -0.72 -0.719 -0.7 -0.719 -0.681 -0.681 -0.66 -0.642 -0.622 -0.583 -0.563 -0.506 -0.486 -0.446 -0.389 -0.331 -0.291 -0.233 c -0.156,0 -0.272,0 -0.272,0 -0.078,0.155 -0.194,0.544 -0.194,0.544 l -0.194,0.7 -0.272,0.933 -0.33,1.128 -0.389,1.399 -0.447,1.555 -0.524,1.788 -0.564,1.944 -0.603,2.061 -0.641,2.254 -0.681,2.372 -0.72,2.488 -0.758,2.604 -0.758,2.683 -0.797,2.721 -0.816,2.838 -0.816,2.838 -0.836,2.877 -0.836,2.877 -0.836,2.916 -0.836,2.876 -0.816,2.838 -0.816,2.8 -0.777,2.76 -0.777,2.683 -0.758,2.604 -0.72,2.488 -0.68,2.371 -0.642,2.216 -0.603,2.1 -0.564,1.943 -0.505,1.75 -0.467,1.594 -0.389,1.36 -0.33,1.167 -0.272,0.933 -0.194,0.661 -0.116,0.428 c -0.078,0 -0.214,-0.428 -0.214,-0.428 l -0.194,-0.661 -0.253,-0.933 -0.35,-1.167 -0.389,-1.36 -0.447,-1.594 -0.525,-1.75 -0.544,-1.943 -0.622,-2.1 -0.642,-2.216 -0.68,-2.371 -0.72,-2.488 -0.738,-2.604 -0.777,-2.683 -0.798,-2.76 -0.815,-2.8 -0.816,-2.838 -0.836,-2.876 -0.836,-2.916 -0.836,-2.877 -0.836,-2.877 -0.816,-2.838 -0.816,-2.838 -0.777,-2.721 -0.777,-2.683 -0.739,-2.604 -0.738,-2.488 -0.681,-2.372 -0.642,-2.254 -0.603,-2.061 -0.563,-1.944 -0.505,-1.788 -0.467,-1.555 -0.389,-1.399 -0.331,-1.128 -0.271,-0.933 -0.194,-0.7 -0.117,-0.389 c -0.175,-0.155 -0.33,-0.155 -0.33,-0.155 H 60.652 60.38 60.069 59.68 59.272 58.805 58.32 57.775 57.212 56.629 56 h -0.622 -0.661 -0.66 -0.681 -0.681 -0.68 -0.7 -0.681 -0.66 -0.681 -0.642 -0.642 -0.603 -0.603 -0.563 -0.524 -0.506 -0.447 -0.428 -0.369 -0.33 -0.272 -0.214 c -0.155,0 -0.271,0 -0.271,0 -0.02,0.155 -0.02,0.661 -0.02,0.661 v 0.816 1.127 1.36 1.633 1.905 2.1 2.332 2.488 2.683 2.838 2.993 3.071 3.227 3.266 3.382 3.383 3.46 3.46 3.46 3.46 3.382 3.382 3.266 3.188 3.109 2.994 2.838 2.682 2.488 2.333 2.099 1.866 1.672 1.36 1.128 0.816 0.466 c 0.155,0.194 0.291,0.194 0.291,0.194 0.155,0 0.331,0 0.331,0 h 0.214 0.232 0.253 0.292 0.291 0.331 0.33 0.35 0.351 0.369 0.389 0.369 0.389 0.389 0.389 0.389 0.37 0.389 0.369 0.35 0.35 0.331 0.33 0.292 0.271 0.272 0.233 0.214 c 0.175,0 0.33,0 0.33,0 0.137,0 0.214,0 0.214,0 0.078,10e-4 0.078,-82.026 0.078,-82.026 z"
   stroke-miterlimit="10"
   inkscape:connector-curvature="0" />
</g><g
     style="fill:#000000;fill-opacity:1;stroke:none"
     id="LWPOLYLINE_9_">
	
		<path
   id="path31"
   d="m 165.5625,551.53125 c -0.091,0 -28.75,92.375 -28.75,92.375 l 0.3125,0 0.40625,0 0.25,0 0.28125,0 0.28125,0 0.3125,0 0.375,0 0.34375,0 0.375,0 0.40625,0 0.40625,0 0.4375,0 0.4375,0 0.4375,0 0.4375,0 0.46875,0 0.4375,0 0.4375,0 0.46875,0 0.40625,0 0.4375,0 0.40625,0 0.40625,0 0.375,0 0.375,0 0.34375,0 0.3125,0 0.3125,0 0.25,0 0.28125,0 0.1875,0 0.34375,0 c 0.175,0 0.1875,-0.0312 0.1875,-0.0312 0.038,-0.117 0.0937,-0.3125 0.0937,-0.3125 l 0.0937,-0.28125 0.125,-0.34375 0.125,-0.40625 0.125,-0.46875 0.1875,-0.5 0.15625,-0.53125 0.21875,-0.625 0.21875,-0.625 0.1875,-0.6875 0.25,-0.75 0.21875,-0.75 0.25,-0.75 0.25,-0.78125 0.28125,-0.8125 0.25,-0.84375 0.28125,-0.8125 0.28125,-0.84375 0.25,-0.8125 0.25,-0.84375 0.28125,-0.84375 0.25,-0.8125 0.25,-0.78125 0.25,-0.75 0.25,-0.75 0.21875,-0.75 0.25,-0.65625 0.1875,-0.65625 0.1875,-0.625 0.1875,-0.53125 0.15625,-0.5 0.15625,-0.46875 0.125,-0.40625 0.125,-0.34375 0.0625,-0.25 c 0.059,-0.233 0.0937,-0.34375 0.0937,-0.34375 0.077,-0.039 0.28125,-0.0312 0.28125,-0.0312 l 0.28125,0 0.40625,0 0.53125,0 0.625,0 0.6875,0 0.78125,0 0.84375,0 0.9375,0 1,0 1.0625,0 1.09375,0 1.125,0 1.1875,0 1.25,0 1.21875,0 1.28125,0 1.28125,0 1.28125,0 1.28125,0 1.25,0 1.28125,0 1.25,0 1.21875,0 1.1875,0 1.15625,0 1.09375,0 1.0625,0 0.96875,0 0.9375,0 0.84375,0 0.78125,0 0.71875,0 0.625,0 0.5,0 0.40625,0 0.3125,0 0.21875,0 c 0.059,0.155 0.125,0.375 0.125,0.375 l 0.0625,0.25 0.0937,0.34375 0.125,0.40625 0.125,0.46875 0.125,0.5 0.1875,0.53125 0.1875,0.625 0.15625,0.65625 0.1875,0.65625 0.21875,0.75 0.21875,0.75 0.21875,0.75 0.21875,0.78125 0.25,0.8125 0.21875,0.84375 0.25,0.84375 0.21875,0.8125 0.25,0.84375 0.25,0.8125 0.21875,0.84375 0.25,0.8125 0.21875,0.78125 0.21875,0.75 0.21875,0.75 0.1875,0.75 0.1875,0.6875 0.1875,0.625 0.1875,0.625 0.15625,0.53125 0.125,0.5 0.15625,0.46875 0.0937,0.40625 0.125,0.34375 0.0625,0.28125 c 0.059,0.194 0.0937,0.3125 0.0937,0.3125 0.116,0.038 0.21875,0.0312 0.21875,0.0312 l 0.375,0 0.21875,0 0.28125,0 0.3125,0 0.34375,0 0.375,0 0.375,0 0.40625,0 0.46875,0 0.4375,0 0.46875,0 0.5,0 0.46875,0 0.5,0 0.5,0 0.53125,0 0.5,0 0.5,0 0.5,0 0.5,0 0.46875,0 0.46875,0 0.46875,0 0.4375,0 0.40625,0 0.40625,0 0.34375,0 0.34375,0 0.3125,0 0.28125,0 0.21875,0 0.21875,0 0.28125,0 c 0.058,-0.194 -0.125,-0.65625 -0.125,-0.65625 l -0.25,-0.8125 -0.34375,-1.125 -0.4375,-1.375 -0.53125,-1.65625 -0.59375,-1.875 -0.6875,-2.09375 -0.71875,-2.34375 -0.8125,-2.5 -0.84375,-2.65625 -0.90625,-2.84375 -0.96875,-3 -0.96875,-3.09375 -1.03125,-3.1875 -1.03125,-3.28125 -1.09375,-3.375 -1.0625,-3.375 -1.125,-3.46875 -1.09375,-3.46875 -1.09375,-3.46875 -1.125,-3.4375 -1.0625,-3.40625 -1.09375,-3.375 -1.03125,-3.25 -1.03125,-3.25 -0.96875,-3.0625 -0.96875,-3 -0.875,-2.8125 -0.875,-2.6875 -0.8125,-2.5 -0.75,-2.34375 -0.65625,-2.09375 -0.59375,-1.90625 -0.53125,-1.625 -0.4375,-1.34375 -0.34345,-1.1563 -0.25,-0.8125 -0.15625,-0.5 c -0.175,-0.155 -0.3125,-0.15625 -0.3125,-0.15625 l -0.40625,0 -0.25,0 -0.3125,0 -0.375,0 -0.375,0 -0.40625,0 -0.4375,0 -0.46875,0 -0.46875,0 -0.5,0 -0.53125,0 -0.5625,0 -0.53125,0 -0.5625,0 -0.5625,0 -0.5625,0 -0.59375,0 -0.53125,0 -0.5625,0 -0.5625,0 -0.53125,0 -0.53125,0 -0.5,0 -0.5,0 -0.4375,0 -0.46875,0 -0.40625,0 -0.375,0 -0.34375,0 -0.3125,0 -0.28125,0 -0.21875,0 -0.3125,0 z m 7.03125,11.25 c 0.019,-0.078 14.34375,48.46875 14.34375,48.46875 l -0.1875,0 -0.25,0 -0.34375,0 -0.4375,0 -0.5,0 -0.59375,0 -0.65625,0 -0.71875,0 -0.78125,0 -0.8125,0 -0.875,0 -0.9375,0 -0.96875,0 -0.96875,0 -1.03125,0 -1.03125,0 -1.0625,0 -1.09375,0 -1.0625,0 -1.0625,0 -1.0625,0 -1.0625,0 -1.03125,0 -1.03125,0 -1,0 -0.96875,0 -0.9375,0 -0.84375,0 -0.84375,0 -0.78125,0 -0.71875,0 -0.65625,0 -0.5625,0 -0.53125,0 -0.4375,0 -0.3125,0 -0.25,0 -0.21875,0 c 0.02,-0.078 0.0937,-0.34375 0.0937,-0.34375 l 0.125,-0.4375 0.1875,-0.59375 0.21875,-0.71875 0.25,-0.875 0.28125,-0.96875 0.34375,-1.125 0.34375,-1.1875 0.375,-1.34375 0.40625,-1.375 0.46875,-1.53125 0.46875,-1.5625 0.46875,-1.625 0.5,-1.65625 0.5,-1.75 0.53125,-1.75 0.5,-1.8125 0.5625,-1.8125 0.53125,-1.84375 0.53125,-1.78125 0.53125,-1.8125 0.53125,-1.78125 0.53125,-1.75 0.5,-1.75 0.5,-1.6875 0.46875,-1.625 0.46875,-1.5625 0.4375,-1.5 0.4375,-1.40625 0.375,-1.34375 0.34375,-1.1875 0.34375,-1.125 0.28125,-0.96875 0.28125,-0.90625 0.21875,-0.6875 0.15625,-0.59375 0.125,-0.4375 0.0625,-0.25 z"
   style="fill:#000000;fill-opacity:1;stroke:none"
   inkscape:connector-curvature="0" />
</g><g
     style="fill:#000000;fill-opacity:1;stroke:none"
     id="LWPOLYLINE_10_">
	
		
</g><g
     style="fill:#000000;fill-opacity:1;stroke:none"
     id="LWPOLYLINE_11_">
	
		<path
   style="fill:#000000;fill-opacity:1;stroke:none"
   id="path37"
   d="m 272.946,551.537 c 0,0.155 0,0.583 0,0.583 v 0.7 0.933 1.166 1.399 1.633 1.789 1.982 2.138 2.294 2.41 2.527 2.644 2.76 2.799 2.838 2.916 2.954 2.955 2.954 2.916 2.916 2.877 2.799 2.721 2.644 2.566 2.41 2.294 2.138 1.982 1.789 1.594 1.399 1.205 0.933 0.7 0.428 c -0.059,0 -0.253,-0.428 -0.253,-0.428 l -0.312,-0.7 -0.408,-0.933 -0.524,-1.205 -0.622,-1.399 -0.719,-1.594 -0.798,-1.789 -0.874,-1.982 -0.953,-2.138 -1.029,-2.294 -1.069,-2.41 -1.128,-2.566 -1.186,-2.644 -1.205,-2.721 -1.244,-2.799 -1.282,-2.877 -1.283,-2.916 -1.303,-2.916 -1.321,-2.954 -1.303,-2.955 -1.321,-2.954 -1.283,-2.916 -1.283,-2.838 -1.244,-2.799 -1.205,-2.76 -1.186,-2.644 -1.127,-2.527 -1.069,-2.41 -1.011,-2.294 -0.952,-2.138 -0.895,-1.982 -0.797,-1.789 -0.719,-1.633 -0.622,-1.399 -0.525,-1.166 -0.408,-0.933 -0.311,-0.7 -0.194,-0.428 c -0.175,-0.155 -0.312,-0.155 -0.312,-0.155 -0.194,0 -0.428,0 -0.428,0 h -0.291 -0.331 -0.35 -0.408 -0.428 -0.467 -0.485 -0.506 -0.544 -0.544 -0.564 -0.583 -0.583 -0.603 -0.603 -0.583 -0.603 -0.583 -0.583 -0.564 -0.544 -0.544 -0.506 -0.505 -0.447 -0.447 -0.389 -0.369 -0.33 -0.272 -0.233 c -0.194,0 -0.33,0 -0.33,0 -0.117,0.155 -0.117,0.661 -0.117,0.661 v 0.816 1.127 1.36 1.633 1.905 2.1 2.332 2.488 2.683 2.838 2.993 3.071 3.227 3.266 3.382 3.383 3.46 3.46 3.46 3.46 3.382 3.382 3.266 3.188 3.109 2.994 2.838 2.682 2.488 2.333 2.099 1.866 1.672 1.36 1.128 0.816 0.466 c 0.156,0.194 0.292,0.194 0.292,0.194 0.155,0 0.33,0 0.33,0 h 0.214 0.233 0.253 0.291 0.292 0.33 0.331 0.35 0.35 0.369 0.389 0.37 0.389 0.389 0.389 0.389 0.369 0.389 0.369 0.351 0.35 0.33 0.331 0.291 0.272 0.272 0.233 0.213 c 0.176,0 0.331,0 0.331,0 0.136,0 0.214,0 0.214,0 0.077,-0.155 0.077,-0.583 0.077,-0.583 v -0.699 -0.972 -1.167 -1.438 -1.594 -1.827 -2.021 -2.138 -2.333 -2.449 -2.565 -2.644 -2.761 -2.838 -2.915 -2.916 -2.993 -2.955 -2.993 -2.954 -2.955 -2.877 -2.838 -2.76 -2.683 -2.565 -2.449 -2.294 -2.177 -1.983 -1.827 -1.633 -1.399 -1.205 -0.933 -0.7 -0.428 c 0.078,0 0.272,0.428 0.272,0.428 l 0.312,0.7 0.427,0.933 0.525,1.205 0.642,1.399 0.738,1.633 0.816,1.827 0.895,1.983 0.972,2.177 1.05,2.294 1.088,2.449 1.167,2.565 1.205,2.683 1.225,2.76 1.282,2.838 1.303,2.877 1.321,2.955 1.342,2.954 1.341,2.993 1.342,2.955 1.341,2.993 1.322,2.916 1.302,2.915 1.264,2.838 1.244,2.761 1.205,2.644 1.146,2.565 1.108,2.449 1.03,2.333 0.972,2.138 0.913,2.021 0.816,1.827 0.72,1.594 0.642,1.438 0.544,1.167 0.428,0.972 0.311,0.699 0.194,0.428 c 0.176,0.155 0.312,0.155 0.312,0.155 0.175,0 0.408,0 0.408,0 h 0.272 0.311 0.33 0.389 0.408 0.447 0.447 0.506 0.505 0.525 0.524 0.563 0.544 0.564 0.583 0.563 0.563 0.545 0.563 0.524 0.525 0.524 0.486 0.447 0.446 0.408 0.389 0.351 0.291 0.272 0.233 c 0.175,0 0.311,0 0.311,0 0.117,-0.194 0.117,-0.66 0.117,-0.66 v -0.816 -1.128 -1.36 -1.672 -1.866 -2.099 -2.333 -2.488 -2.682 -2.838 -2.994 -3.109 -3.188 -3.266 -3.382 -3.382 -3.46 -3.46 -3.46 -3.46 -3.383 -3.382 -3.266 -3.227 -3.071 -2.993 -2.838 -2.683 -2.488 -2.332 -2.1 -1.905 -1.633 -1.36 -1.127 -0.816 -0.506 c 0.003,-0.155 -10.358,-0.155 -10.358,-0.155 z"
   stroke-miterlimit="10"
   inkscape:connector-curvature="0" />
</g><g
     style="fill:#000000;fill-opacity:1;stroke:none"
     id="LWPOLYLINE_12_">
	
		<path
   id="path40"
   d="m 322.4375,551.53125 c -0.115,0 -28.78125,92.375 -28.78125,92.375 l 0.3125,0 0.40625,0 0.25,0 0.28125,0 0.28125,0 0.3125,0 0.375,0 0.34375,0 0.40625,0 0.375,0 0.4375,0 0.40625,0 0.4375,0 0.4375,0 0.4375,0 0.46875,0 0.4375,0 0.4375,0 0.46875,0 0.40625,0 0.4375,0 0.40625,0 0.40625,0 0.40625,0 0.34375,0 0.375,0 0.3125,0 0.28125,0 0.28125,0 0.25,0 0.1875,0 0.34375,0 c 0.194,0 0.1875,-0.0312 0.1875,-0.0312 0.039,-0.117 0.0937,-0.3125 0.0937,-0.3125 l 0.0937,-0.28125 0.125,-0.34375 0.125,-0.40625 0.15625,-0.46875 0.15625,-0.5 0.1875,-0.53125 0.1875,-0.625 0.21875,-0.625 0.21875,-0.6875 0.21875,-0.75 0.25,-0.75 0.21875,-0.75 0.28125,-0.78125 0.21875,-0.8125 0.28125,-0.84375 0.28125,-0.8125 0.28125,-0.84375 0.25,-0.8125 0.28125,-0.84375 0.21875,-0.84375 0.28125,-0.8125 0.28125,-0.78125 0.21875,-0.75 0.25,-0.75 0.21875,-0.75 0.25,-0.65625 0.1875,-0.65625 0.1875,-0.625 0.1875,-0.53125 0.15625,-0.5 0.15625,-0.46875 0.125,-0.40625 0.125,-0.34375 0.0625,-0.25 c 0.078,-0.233 0.125,-0.34375 0.125,-0.34375 0.077,-0.039 0.21875,-0.0312 0.21875,-0.0312 l 0.3125,0 0.4375,0 0.5,0 0.625,0 0.6875,0 0.78125,0 0.875,0 0.90625,0 1,0 1.03125,0 1.125,0 1.125,0 1.21875,0 1.1875,0 1.25,0 1.28125,0 1.25,0 1.28125,0 1.28125,0 1.28125,0 1.28125,0 1.25,0 1.21875,0 1.1875,0 1.125,0 1.09375,0 1.09375,0 0.96875,0 0.9375,0 0.84375,0 0.78125,0 0.71875,0 0.59375,0 0.53125,0 0.40625,0 0.28125,0 0.28125,0 c 0.039,0.155 0.0625,0.375 0.0625,0.375 l 0.0937,0.25 0.0937,0.34375 0.125,0.40625 0.125,0.46875 0.15625,0.5 0.15625,0.53125 0.15625,0.625 0.1875,0.65625 0.1875,0.65625 0.1875,0.75 0.25,0.75 0.21875,0.75 0.1875,0.78125 0.25,0.8125 0.21875,0.84375 0.25,0.84375 0.28125,0.8125 0.21875,0.84375 0.21875,0.8125 0.25,0.84375 0.21875,0.8125 0.25,0.78125 0.1875,0.75 0.21875,0.75 0.21875,0.75 0.1875,0.6875 0.1875,0.625 0.15625,0.625 0.1875,0.53125 0.125,0.5 0.15625,0.46875 0.125,0.40625 0.0625,0.34375 0.0937,0.28125 c 0.039,0.194 0.0625,0.3125 0.0625,0.3125 0.116,0.038 0.25,0.0312 0.25,0.0312 l 0.375,0 0.25,0 0.25,0 0.3125,0 0.34375,0 0.375,0 0.375,0 0.4375,0 0.40625,0 0.46875,0 0.46875,0 0.46875,0 0.5,0 0.53125,0 0.5,0 0.5,0 0.5,0 0.5,0 0.5,0 0.46875,0 0.53125,0 0.4375,0 0.4375,0 0.46875,0 0.40625,0 0.375,0 0.375,0 0.3125,0 0.3125,0 0.3125,0 0.25,0 0.1875,0 0.28125,0 c 0.039,-0.194 -0.125,-0.65625 -0.125,-0.65625 l -0.21875,-0.8125 -0.375,-1.125 -0.46875,-1.375 -0.5,-1.65625 -0.625,-1.875 -0.65625,-2.09375 -0.71875,-2.34375 -0.84375,-2.5 -0.84375,-2.65625 -0.90625,-2.84375 -0.90625,-3 -1.03125,-3.09375 -1,-3.1875 -1.0625,-3.28125 -1.09375,-3.375 -1.0625,-3.375 -1.09375,-3.46875 -1.09375,-3.46875 -1.125,-3.46875 -1.09375,-3.4375 -1.09375,-3.40625 -1.03125,-3.375 -1.0625,-3.25 -1.0625,-3.25 -0.96875,-3.0625 -0.9375,-3 -0.90625,-2.8125 -0.875,-2.6875 -0.78125,-2.5 -0.7185,-2.3438 -0.71875,-2.09375 -0.5625,-1.90625 L 338.6875,555.5 338.25,554.15625 337.875,553 l -0.25,-0.8125 -0.15625,-0.5 c -0.155,-0.155 -0.28125,-0.15625 -0.28125,-0.15625 l -0.4375,0 -0.25,0 -0.3125,0 -0.375,0 -0.34375,0 -0.40625,0 -0.4375,0 -0.46875,0 -0.5,0 -0.5,0 -0.53125,0 -0.53125,0 -0.53125,0 -0.5625,0 -0.59375,0 -0.5625,0 -0.5625,0 -0.5625,0 -0.5625,0 -0.53125,0 -0.53125,0 -0.53125,0 -0.5,0 -0.46875,0 -0.46875,0 -0.4375,0 -0.4375,0 -0.375,0 -0.34375,0 -0.3125,0 -0.25,0 -0.21875,0 -0.3125,0 z m 7,11.25 c 0.039,-0.078 14.375,48.46875 14.375,48.46875 l -0.21875,0 -0.25,0 -0.34375,0 -0.4375,0 -0.5,0 -0.59375,0 -0.65625,0 -0.6875,0 -0.78125,0 -0.84375,0 -0.875,0 -0.9375,0 -0.96875,0 -0.96875,0 -1.03125,0 -1.0625,0 -1.0625,0 -1.03125,0 -1.09375,0 -1.0625,0 -1.0625,0 -1.0625,0 -1.0625,0 -1,0 -1,0 -0.9375,0 -0.9375,0 -0.90625,0 -0.8125,0 -0.78125,0 -0.71875,0 -0.65625,0 -0.59375,0 -0.5,0 -0.4375,0 -0.34375,0 -0.25,0 -0.1875,0 c 0,-0.078 0.0937,-0.34375 0.0937,-0.34375 l 0.0937,-0.4375 0.21875,-0.59375 0.1875,-0.71875 0.28125,-0.875 0.25,-0.96875 0.34375,-1.125 L 317,605 l 0.375,-1.34375 0.4375,-1.375 0.40625,-1.53125 0.46875,-1.5625 0.46875,-1.625 0.53125,-1.65625 0.5,-1.75 0.53125,-1.75 0.5,-1.8125 0.5625,-1.8125 0.53125,-1.84375 0.5625,-1.78125 0.5,-1.8125 0.53125,-1.78125 0.5,-1.75 0.5625,-1.75 0.46875,-1.6875 0.5,-1.625 0.46875,-1.5625 0.40625,-1.5 0.4375,-1.40625 0.40625,-1.34375 L 328,567.75 l 0.3125,-1.125 0.3125,-0.96875 0.21875,-0.90625 0.25,-0.6875 0.15625,-0.59375 0.15625,-0.4375 0.0312,-0.25 z"
   style="fill:#000000;fill-opacity:1;stroke:none"
   inkscape:connector-curvature="0" />
</g><g
     style="fill:#000000;fill-opacity:1;stroke:none"
     id="LWPOLYLINE_13_">
	
		
</g><g
     style="fill:#000000;fill-opacity:1;stroke:none"
     id="LWPOLYLINE_14_">
	
		<path
   style="fill:#000000;fill-opacity:1;stroke:none"
   id="path46"
   d="m 433.774,576.223 v -1.399 l -0.077,-1.36 -0.078,-1.322 -0.116,-1.282 -0.156,-1.244 -0.155,-1.205 -0.233,-1.166 -0.233,-1.089 -0.311,-1.089 -0.311,-1.011 -0.351,-0.972 -0.389,-0.972 -0.428,-0.895 -0.466,-0.894 -0.467,-0.816 -0.544,-0.778 -0.545,-0.777 -0.622,-0.699 -0.622,-0.7 -0.66,-0.622 -0.7,-0.622 -0.738,-0.583 -0.777,-0.544 -0.816,-0.506 -0.855,-0.466 -0.895,-0.428 -0.894,-0.389 -0.973,-0.389 -1.011,-0.312 -1.011,-0.311 -1.088,-0.312 -1.089,-0.233 -1.166,-0.194 -1.167,-0.194 -1.243,-0.155 -1.244,-0.116 -1.322,-0.117 -1.321,-0.039 -1.361,-0.077 H 405.9 l -1.399,0.039 -1.399,0.038 -1.321,0.117 -1.322,0.155 -1.282,0.155 -1.206,0.233 -1.205,0.272 -1.166,0.311 -1.127,0.35 -1.089,0.351 -1.089,0.428 -1.011,0.466 -0.972,0.467 -0.972,0.544 -0.895,0.584 -0.894,0.583 -0.816,0.66 -0.816,0.661 -0.777,0.7 -0.739,0.738 -0.699,0.777 -0.661,0.816 -0.622,0.855 -0.583,0.895 -0.544,0.894 -0.545,0.934 -0.466,1.011 -0.467,0.972 -0.389,1.05 -0.389,1.088 -0.351,1.089 -0.311,1.127 -0.233,1.167 -0.233,1.205 -0.233,1.205 -0.155,1.244 -0.116,1.282 -0.078,1.322 -0.078,1.321 v 1.361 c 0,0.039 0,0.233 0,0.233 v 0.232 0.39 0.427 0.545 0.622 0.699 0.739 0.816 0.894 0.934 0.972 1.011 1.05 1.088 1.089 1.127 1.128 1.127 1.128 1.127 1.128 1.088 1.089 1.05 1.011 0.972 0.933 0.895 0.816 0.738 0.7 0.622 0.544 0.428 0.389 0.233 c 0,0.194 0,0.233 0,0.233 v 1.905 l 0.078,1.827 0.078,1.749 0.116,1.711 0.155,1.671 0.233,1.594 0.233,1.556 0.233,1.516 0.311,1.438 0.351,1.399 0.389,1.322 0.389,1.283 0.467,1.243 0.466,1.206 0.545,1.127 0.544,1.089 0.583,1.011 0.622,1.011 0.661,0.933 0.699,0.895 0.739,0.816 0.777,0.816 0.816,0.738 0.816,0.7 0.894,0.66 0.895,0.622 0.972,0.545 0.972,0.544 1.011,0.467 1.089,0.428 1.089,0.389 1.127,0.35 1.166,0.311 1.205,0.233 1.206,0.233 1.282,0.194 1.322,0.117 1.321,0.116 1.399,0.039 1.399,0.039 h 0.895 l 0.895,-0.039 0.854,-0.039 0.816,-0.039 0.855,-0.039 0.816,-0.077 0.816,-0.039 0.777,-0.117 0.778,-0.077 0.777,-0.117 0.777,-0.116 0.738,-0.116 0.739,-0.117 0.738,-0.155 0.7,-0.155 0.699,-0.156 0.7,-0.155 0.699,-0.155 0.7,-0.194 0.661,-0.194 0.66,-0.194 0.661,-0.194 0.661,-0.233 0.661,-0.194 0.621,-0.233 0.661,-0.233 0.622,-0.233 0.622,-0.271 0.622,-0.233 0.622,-0.272 0.622,-0.233 0.583,-0.271 0.622,-0.272 0.622,-0.272 0.583,-0.271 0.622,-0.312 0.583,-0.271 0.583,-0.272 0.622,-0.312 0.583,-0.311 c 0,-0.078 0,-0.312 0,-0.312 v -0.389 -0.544 -0.661 -0.777 -0.933 -1.011 -1.128 -1.205 -1.282 -1.361 -1.438 -1.516 -1.517 -1.594 -1.633 -1.633 -1.672 -1.671 -1.672 -1.672 -1.633 -1.633 -1.594 -1.517 -1.516 -1.438 -1.36 -1.283 -1.205 -1.128 -1.011 -0.933 -0.777 -0.669 -0.544 -0.389 -0.233 c -0.038,-0.078 -0.194,-0.078 -0.194,-0.078 h -0.271 -0.351 -0.428 -0.505 -0.583 -0.661 -0.699 -0.778 -0.854 -0.855 -0.934 -0.972 -0.972 -1.011 -1.05 -1.05 -1.088 -1.089 -1.05 -1.089 -1.049 -1.05 -1.011 -0.972 -0.973 -0.933 -0.895 -0.816 -0.777 -0.738 -0.622 -0.583 -0.545 -0.42 -0.311 -0.272 c -0.155,0 -0.194,0 -0.194,0 0,0.155 0,0.272 0,0.272 0,0.155 0,0.35 0,0.35 v 0.194 0.233 0.272 0.271 0.312 0.311 0.351 0.35 0.35 0.35 0.389 0.39 0.389 0.389 0.389 0.389 0.35 0.389 0.389 0.351 0.35 0.311 0.312 0.311 0.272 0.272 0.232 0.233 c 0,0.156 0,0.312 0,0.312 0,0.155 0,0.233 0,0.233 0.117,0.077 0.272,0.077 0.272,0.077 h 0.194 0.233 0.311 0.351 0.35 0.428 0.466 0.467 0.545 0.505 0.583 0.583 0.583 0.622 0.622 0.622 0.622 0.622 0.622 0.622 0.583 0.622 0.583 0.545 0.544 0.505 0.506 0.428 0.428 0.389 0.35 0.272 0.271 0.194 c 0.156,0 0.233,0 0.233,0 0.039,0.194 0.039,0.428 0.039,0.428 v 0.312 0.428 0.466 0.545 0.621 0.7 0.738 0.778 0.816 0.894 0.895 0.933 0.972 0.973 1.011 1.011 1.011 1.011 1.011 1.011 0.972 0.972 0.934 0.894 0.895 0.816 0.777 0.738 0.7 0.622 0.544 0.467 0.428 0.311 0.233 c 0,0.194 -0.194,0.389 -0.194,0.389 -0.194,0.155 -0.389,0.35 -0.389,0.35 l -0.233,0.156 -0.233,0.194 -0.233,0.194 -0.271,0.155 -0.272,0.155 -0.272,0.194 -0.271,0.156 -0.312,0.194 -0.311,0.155 -0.312,0.155 -0.35,0.155 -0.35,0.156 -0.351,0.155 -0.35,0.155 -0.389,0.116 -0.389,0.156 -0.389,0.155 -0.428,0.116 -0.389,0.117 -0.467,0.116 -0.428,0.117 -0.428,0.116 -0.466,0.116 -0.467,0.117 -0.505,0.077 -0.467,0.078 -0.506,0.078 -0.505,0.077 -0.506,0.078 -0.544,0.078 -0.544,0.038 -0.545,0.039 -0.544,0.039 -0.583,0.039 h -0.583 l -0.545,0.039 h -0.619 -0.816 l -0.815,-0.039 -0.778,-0.078 -0.738,-0.077 -0.777,-0.078 -0.7,-0.116 -0.699,-0.156 -0.7,-0.194 -0.661,-0.194 -0.622,-0.233 -0.622,-0.271 -0.583,-0.312 -0.583,-0.311 -0.544,-0.351 -0.544,-0.389 -0.506,-0.428 -0.505,-0.466 -0.467,-0.506 -0.428,-0.505 -0.428,-0.583 -0.428,-0.583 -0.389,-0.661 -0.35,-0.661 -0.35,-0.738 -0.312,-0.739 -0.311,-0.816 -0.272,-0.816 -0.272,-0.894 -0.233,-0.934 -0.232,-0.972 -0.194,-1.011 -0.195,-1.089 -0.155,-1.088 -0.116,-1.167 -0.117,-1.205 -0.116,-1.282 -0.039,-1.283 -0.077,-1.36 -0.039,-1.438 v -1.438 c 0,-0.078 0,-0.233 0,-0.233 v -0.272 -0.389 -0.466 -0.545 -0.622 -0.699 -0.816 -0.816 -0.895 -0.972 -1.011 -1.011 -1.089 -1.127 -1.128 -1.127 -1.166 -1.167 -1.166 -1.127 -1.167 -1.127 -1.089 -1.088 -1.05 -1.011 -0.934 -0.894 -0.855 -0.777 -0.7 -0.66 -0.545 -0.466 -0.351 -0.271 c 0,-0.194 0,-0.233 0,-0.233 l 0.039,-1.399 0.077,-1.322 0.078,-1.283 0.155,-1.205 0.194,-1.127 0.233,-1.089 0.272,-1.011 0.311,-0.972 0.35,-0.895 0.351,-0.854 0.389,-0.816 0.428,-0.739 0.427,-0.738 0.467,-0.622 0.467,-0.622 0.505,-0.583 0.506,-0.506 0.544,-0.505 0.545,-0.428 0.544,-0.389 0.544,-0.389 0.583,-0.35 0.545,-0.272 0.583,-0.272 0.544,-0.271 0.583,-0.195 0.545,-0.194 0.544,-0.155 0.544,-0.155 0.545,-0.116 0.505,-0.117 0.506,-0.077 0.505,-0.078 0.467,-0.039 0.428,-0.039 0.428,-0.039 0.427,-0.038 h 0.351 0.35 0.311 0.816 l 0.816,0.038 0.778,0.039 0.738,0.078 0.7,0.116 0.699,0.117 0.661,0.116 0.661,0.155 0.622,0.194 0.583,0.194 0.583,0.195 0.544,0.271 0.506,0.233 0.505,0.312 0.467,0.271 0.467,0.35 0.427,0.351 0.428,0.35 0.389,0.389 0.351,0.389 0.35,0.428 0.35,0.467 0.312,0.466 0.271,0.506 0.272,0.506 0.233,0.544 0.233,0.544 0.233,0.583 0.155,0.583 0.194,0.622 0.155,0.622 0.117,0.661 0.155,0.7 0.077,0.699 0.078,0.7 0.078,0.738 0.077,0.777 0.039,0.777 v 0.816 0.816 h 12.747 z"
   stroke-miterlimit="10"
   inkscape:connector-curvature="0" />
</g><g
     style="fill:#000000;fill-opacity:1;stroke:none"
     id="LWPOLYLINE_15_">
	
		<path
   style="fill:#000000;fill-opacity:1;stroke:none"
   id="path49"
   d="m 501.457,643.905 c 0,-0.155 0,-0.311 0,-0.311 0,-0.155 0,-0.312 0,-0.312 v -0.232 -0.233 -0.272 -0.272 -0.311 -0.311 -0.312 -0.35 -0.351 -0.389 -0.389 -0.35 -0.389 -0.389 -0.389 -0.389 -0.389 -0.39 -0.35 -0.35 -0.35 -0.351 -0.311 -0.312 -0.271 -0.272 -0.233 -0.194 c 0,-0.194 0,-0.35 0,-0.35 0,-0.116 0,-0.233 0,-0.233 -0.077,-0.039 -0.271,-0.039 -0.271,-0.039 h -0.312 -0.428 -0.544 -0.622 -0.738 -0.816 -0.895 -0.972 -1.05 -1.089 -1.166 -1.205 -1.244 -1.283 -1.282 -1.322 -1.321 -1.36 -1.361 -1.321 -1.322 -1.282 -1.283 -1.244 -1.205 -1.166 -1.089 -1.05 -0.972 -0.895 -0.816 -0.738 -0.622 -0.544 -0.428 -0.312 c -0.194,0 -0.271,0 -0.271,0 0,-0.077 0,-0.233 0,-0.233 v -0.311 -0.35 -0.506 -0.544 -0.661 -0.738 -0.777 -0.855 -0.934 -0.972 -1.05 -1.05 -1.127 -1.127 -1.167 -1.166 -1.166 -1.205 -1.205 -1.167 -1.205 -1.127 -1.128 -1.127 -1.05 -1.05 -0.972 -0.933 -0.855 -0.777 -0.739 -0.66 -0.545 -0.505 -0.389 -0.272 c 0,-0.155 0,-0.233 0,-0.233 0.077,0 0.233,0 0.233,0 h 0.311 0.389 0.467 0.583 0.661 0.777 0.816 0.855 0.972 1.011 1.05 1.088 1.128 1.166 1.166 1.205 1.244 1.205 1.244 1.205 1.205 1.167 1.166 1.127 1.128 1.05 0.972 0.972 0.895 0.816 0.738 0.661 0.583 0.467 0.389 0.311 c 0.155,0 0.233,0 0.233,0 0,-0.155 0,-0.272 0,-0.272 0,-0.155 0,-0.35 0,-0.35 v -0.194 -0.233 -0.271 -0.272 -0.312 -0.311 -0.35 -0.351 -0.35 -0.35 -0.389 -0.389 -0.389 -0.389 -0.39 -0.389 -0.389 -0.341 -0.389 -0.35 -0.351 -0.311 -0.35 -0.272 -0.311 -0.233 -0.233 -0.233 c 0,-0.155 0,-0.312 0,-0.312 0,-0.155 0,-0.232 0,-0.232 -0.078,-0.078 -0.233,-0.078 -0.233,-0.078 h -0.311 -0.389 -0.467 -0.583 -0.661 -0.738 -0.816 -0.895 -0.972 -0.972 -1.05 -1.128 -1.127 -1.166 -1.167 -1.205 -1.205 -1.244 -1.205 -1.244 -1.205 -1.166 -1.166 -1.128 -1.088 -1.05 -1.011 -0.972 -0.855 -0.816 -0.777 -0.661 -0.583 -0.467 -0.389 -0.311 c -0.156,0 -0.233,0 -0.233,0 0,-0.039 0,-0.194 0,-0.194 v -0.272 -0.35 -0.428 -0.544 -0.583 -0.7 -0.738 -0.777 -0.855 -0.934 -0.933 -0.972 -1.05 -1.05 -1.05 -1.088 -1.089 -1.128 -1.088 -1.089 -1.088 -1.089 -1.05 -1.011 -1.011 -0.933 -0.895 -0.855 -0.816 -0.738 -0.661 -0.622 -0.505 -0.428 -0.389 -0.233 c 0,-0.155 0,-0.233 0,-0.233 0.077,0 0.271,0 0.271,0 h 0.312 0.389 0.544 0.622 0.7 0.816 0.894 0.934 1.011 1.088 1.128 1.166 1.205 1.244 1.283 1.282 1.322 1.321 1.322 1.283 1.282 1.283 1.244 1.205 1.205 1.127 1.05 1.05 0.934 0.894 0.777 0.739 0.622 0.505 0.428 0.311 c 0.195,0 0.233,0 0.233,0 0,-0.155 0,-0.272 0,-0.272 0,-0.155 0,-0.35 0,-0.35 v -0.194 -0.233 -0.272 -0.271 -0.312 -0.311 -0.35 -0.351 -0.35 -0.35 -0.389 -0.389 -0.389 -0.39 -0.389 -0.389 -0.389 -0.35 -0.389 -0.35 -0.351 -0.311 -0.351 -0.271 -0.312 -0.232 -0.233 -0.233 c 0,-0.155 0,-0.312 0,-0.312 0,-0.155 0,-0.233 0,-0.233 -0.077,-0.077 -0.311,-0.077 -0.311,-0.077 h -0.428 -0.544 -0.7 -0.816 -0.933 -1.05 -1.166 -1.244 -1.361 -1.399 -1.477 -1.556 -1.594 -1.672 -1.671 -1.711 -1.711 -1.749 -1.711 -1.71 -1.711 -1.672 -1.671 -1.594 -1.556 -1.478 -1.399 -1.36 -1.244 -1.166 -1.05 -0.933 -0.816 -0.7 -0.544 -0.428 -0.233 c -0.078,0.155 -0.078,0.661 -0.078,0.661 v 0.816 1.127 1.36 1.633 1.905 2.1 2.332 2.488 2.683 2.838 2.993 3.071 3.227 3.266 3.382 3.383 3.46 3.46 3.46 3.46 3.382 3.382 3.266 3.188 3.109 2.994 2.838 2.682 2.488 2.333 2.099 1.866 1.672 1.36 1.128 0.816 0.466 c 0,0.2 46.962,0.2 46.962,0.2 z"
   stroke-miterlimit="10"
   inkscape:connector-curvature="0" />
</g><g
     style="fill:#000000;fill-opacity:1;stroke:none"
     id="LWPOLYLINE_16_">
	
		
</g><g
     id="LWPOLYLINE_18_">
	
		
</g><g
     id="LWPOLYLINE_19_">
	
		
</g><g
     id="LWPOLYLINE_20_">
	
		
</g></g>

</svg>