<?xml version="1.0" encoding="UTF-8" standalone="no"?>
<!-- Generator: Adobe Illustrator 16.0.1, SVG Export Plug-In . SVG Version: 6.00 Build 0)  -->

<svg
   xmlns:dc="http://purl.org/dc/elements/1.1/"
   xmlns:cc="http://creativecommons.org/ns#"
   xmlns:rdf="http://www.w3.org/1999/02/22-rdf-syntax-ns#"
   xmlns:svg="http://www.w3.org/2000/svg"
   xmlns="http://www.w3.org/2000/svg"
   xmlns:xlink="http://www.w3.org/1999/xlink"
   xmlns:sodipodi="http://sodipodi.sourceforge.net/DTD/sodipodi-0.dtd"
   xmlns:inkscape="http://www.inkscape.org/namespaces/inkscape"
   version="1.0"
   id="_x31_"
   x="0px"
   y="0px"
   width="350"
   height="350"
   viewBox="0 0 350 350"
   enable-background="new 0 0 612 792"
   xml:space="preserve"
   inkscape:version="0.48.3.1 r9886"
   sodipodi:docname="6015.svg"><metadata
   id="metadata19"><rdf:RDF><cc:Work
       rdf:about=""><dc:format>image/svg+xml</dc:format><dc:type
         rdf:resource="http://purl.org/dc/dcmitype/StillImage" /></cc:Work></rdf:RDF></metadata><defs
   id="defs17"><radialGradient
     r="333.18735"
     fy="467.91885"
     fx="373.24265"
     cy="467.91885"
     cx="373.24265"
     gradientTransform="matrix(0.83535069,2.5391116e-7,-2.4564601e-7,0.80815885,-725.97492,-115.98714)"
     gradientUnits="userSpaceOnUse"
     id="radialGradient4460"
     xlink:href="#linearGradient5443"
     inkscape:collect="always" /><linearGradient
     y2="254.73526"
     x2="123.47623"
     y1="344.03848"
     x1="123.50603"
     gradientTransform="matrix(2.3189708,0,0,2.0930998,-543.56606,-225.82362)"
     gradientUnits="userSpaceOnUse"
     id="linearGradient4458"
     xlink:href="#linearGradient3187"
     inkscape:collect="always" /><radialGradient
     r="333.18735"
     fy="710.99164"
     fx="373.24265"
     cy="710.99164"
     cx="373.24265"
     gradientTransform="matrix(0.86272606,1.0667183e-7,-5.1097113e-8,0.31433999,-736.19251,168.72353)"
     gradientUnits="userSpaceOnUse"
     id="radialGradient4456"
     xlink:href="#linearGradient5443"
     inkscape:collect="always" /><radialGradient
     r="333.18735"
     fy="467.91885"
     fx="373.24265"
     cy="467.91885"
     cx="373.24265"
     gradientTransform="matrix(0.83393192,2.4025531e-7,-2.452288e-7,0.76469446,-575.89311,126.3946)"
     gradientUnits="userSpaceOnUse"
     id="radialGradient2894-5"
     xlink:href="#linearGradient5443-0"
     inkscape:collect="always" /><linearGradient
     y2="254.73526"
     x2="123.47623"
     y1="344.03848"
     x1="123.50603"
     gradientTransform="matrix(2.3189708,0,0,2.0930998,-543.56606,-225.82362)"
     gradientUnits="userSpaceOnUse"
     id="linearGradient2892-2"
     xlink:href="#linearGradient3187-1"
     inkscape:collect="always" /><radialGradient
     r="333.18735"
     fy="710.99164"
     fx="373.24265"
     cy="710.99164"
     cx="373.24265"
     gradientTransform="matrix(0.8612608,1.0093481e-7,-5.1010329e-8,0.29743416,-586.09339,395.79293)"
     gradientUnits="userSpaceOnUse"
     id="radialGradient2890-7"
     xlink:href="#linearGradient5443-0"
     inkscape:collect="always" /><linearGradient
     id="linearGradient5443-5-6"><stop
       style="stop-color:#ffffff;stop-opacity:0;"
       offset="0"
       id="stop5445-4-1" /><stop
       style="stop-color:#000000;stop-opacity:0.33962265;"
       offset="1"
       id="stop5447-3-4" /></linearGradient><radialGradient
     r="333.18735"
     fy="710.99164"
     fx="373.24265"
     cy="710.99164"
     cx="373.24265"
     gradientTransform="matrix(0.9503534,1.1750652e-7,-5.6287062e-8,0.3462676,317.80591,185.68771)"
     gradientUnits="userSpaceOnUse"
     id="radialGradient4835-3-2"
     xlink:href="#linearGradient5443-5-6"
     inkscape:collect="always" /><radialGradient
     r="333.18735"
     fy="710.99164"
     fx="373.24265"
     cy="710.99164"
     cx="373.24265"
     gradientTransform="matrix(0.8612608,1.0093481e-7,-5.1010329e-8,0.29743416,-586.09339,395.79293)"
     gradientUnits="userSpaceOnUse"
     id="radialGradient4835-2"
     xlink:href="#linearGradient5443-0"
     inkscape:collect="always" /><radialGradient
     r="333.18735"
     fy="467.91885"
     fx="373.24265"
     cy="467.91885"
     cx="373.24265"
     gradientTransform="matrix(0.83393192,2.4025531e-7,-2.452288e-7,0.76469446,-575.89311,126.3946)"
     gradientUnits="userSpaceOnUse"
     id="radialGradient4832-1"
     xlink:href="#linearGradient5443-0"
     inkscape:collect="always" /><linearGradient
     y2="254.73526"
     x2="123.47623"
     y1="344.03848"
     x1="123.50603"
     gradientTransform="matrix(2.3189708,0,0,2.0930998,-543.56606,-225.82362)"
     gradientUnits="userSpaceOnUse"
     id="linearGradient4827-6"
     xlink:href="#linearGradient3187-1"
     inkscape:collect="always" /><linearGradient
     y2="254.73526"
     x2="123.47623"
     y1="344.03848"
     x1="123.50603"
     gradientTransform="matrix(2.3189708,0,0,2.0930998,93.115298,-256.84999)"
     gradientUnits="userSpaceOnUse"
     id="linearGradient4824-8"
     xlink:href="#linearGradient3187-1"
     inkscape:collect="always" /><radialGradient
     r="333.18735"
     fy="467.91885"
     fx="373.24265"
     cy="467.91885"
     cx="373.24265"
     gradientTransform="matrix(0.9201975,2.7970099e-7,-2.7059634e-7,0.8902438,28.590287,48.634335)"
     gradientUnits="userSpaceOnUse"
     id="radialGradient4822-5"
     xlink:href="#linearGradient3171-6"
     inkscape:collect="always" /><radialGradient
     r="333.18735"
     fy="710.99164"
     fx="373.24265"
     cy="710.99164"
     cx="373.24265"
     gradientTransform="matrix(0.9503534,1.1750652e-7,-5.6287062e-8,0.3462676,17.334826,362.44227)"
     gradientUnits="userSpaceOnUse"
     id="radialGradient4820-7"
     xlink:href="#linearGradient3157-2"
     inkscape:collect="always" /><radialGradient
     r="333.18735"
     fy="710.99164"
     fx="373.24265"
     cy="710.99164"
     cx="373.24265"
     gradientTransform="matrix(0.9503534,1.1750652e-7,-5.6287062e-8,0.3462676,17.334826,362.44227)"
     gradientUnits="userSpaceOnUse"
     id="radialGradient4805-6"
     xlink:href="#linearGradient3157-2"
     inkscape:collect="always" /><radialGradient
     r="333.18735"
     fy="467.91885"
     fx="373.24265"
     cy="467.91885"
     cx="373.24265"
     gradientTransform="matrix(0.9201975,2.7970099e-7,-2.7059634e-7,0.8902438,28.590287,48.634335)"
     gradientUnits="userSpaceOnUse"
     id="radialGradient4802-1"
     xlink:href="#linearGradient3171-6"
     inkscape:collect="always" /><linearGradient
     y2="254.73526"
     x2="123.47623"
     y1="344.03848"
     x1="123.50603"
     gradientTransform="matrix(2.3189708,0,0,2.0930998,93.115298,-256.84999)"
     gradientUnits="userSpaceOnUse"
     id="linearGradient4799-8"
     xlink:href="#linearGradient3187-1"
     inkscape:collect="always" /><linearGradient
     y2="254.73526"
     x2="123.47623"
     y1="344.03848"
     x1="123.50603"
     gradientTransform="matrix(2.3189708,0,0,2.0930998,93.115298,-256.84999)"
     gradientUnits="userSpaceOnUse"
     id="linearGradient4794-9"
     xlink:href="#linearGradient3187-1"
     inkscape:collect="always" /><radialGradient
     r="333.18735"
     fy="467.91885"
     fx="373.24265"
     cy="467.91885"
     cx="373.24265"
     gradientTransform="matrix(0.9201975,2.7970099e-7,-2.7059634e-7,0.8902438,28.590287,48.634335)"
     gradientUnits="userSpaceOnUse"
     id="radialGradient4792-2"
     xlink:href="#linearGradient3171-6"
     inkscape:collect="always" /><radialGradient
     r="333.18735"
     fy="710.99164"
     fx="373.24265"
     cy="710.99164"
     cx="373.24265"
     gradientTransform="matrix(0.9503534,1.1750652e-7,-5.6287062e-8,0.3462676,17.334826,362.44227)"
     gradientUnits="userSpaceOnUse"
     id="radialGradient4790-7"
     xlink:href="#linearGradient3157-2"
     inkscape:collect="always" /><radialGradient
     r="333.18735"
     fy="710.99164"
     fx="373.24265"
     cy="710.99164"
     cx="373.24265"
     gradientTransform="matrix(0.9503534,1.1750652e-7,-5.6287062e-8,0.3462676,17.334826,362.44227)"
     gradientUnits="userSpaceOnUse"
     id="radialGradient4779-9"
     xlink:href="#linearGradient3157-2"
     inkscape:collect="always" /><radialGradient
     r="333.18735"
     fy="467.91885"
     fx="373.24265"
     cy="467.91885"
     cx="373.24265"
     gradientTransform="matrix(0.9201975,2.7970099e-7,-2.7059634e-7,0.8902438,28.590287,48.634335)"
     gradientUnits="userSpaceOnUse"
     id="radialGradient4776-5"
     xlink:href="#linearGradient3171-6"
     inkscape:collect="always" /><linearGradient
     y2="254.73526"
     x2="123.47623"
     y1="344.03848"
     x1="123.50603"
     gradientTransform="matrix(2.3189708,0,0,2.0930998,93.115298,-256.84999)"
     gradientUnits="userSpaceOnUse"
     id="linearGradient4773-4"
     xlink:href="#linearGradient3187-1"
     inkscape:collect="always" /><linearGradient
     y2="254.73526"
     x2="123.47623"
     y1="344.03848"
     x1="123.50603"
     gradientTransform="matrix(2.3189708,0,0,2.0930998,93.115298,-256.84999)"
     gradientUnits="userSpaceOnUse"
     id="linearGradient4770-3"
     xlink:href="#linearGradient3187-1"
     inkscape:collect="always" /><radialGradient
     r="333.18735"
     fy="467.91885"
     fx="373.24265"
     cy="467.91885"
     cx="373.24265"
     gradientTransform="matrix(0.9201975,2.7970099e-7,-2.7059634e-7,0.8902438,28.590287,48.634335)"
     gradientUnits="userSpaceOnUse"
     id="radialGradient4768-1"
     xlink:href="#linearGradient3171-6"
     inkscape:collect="always" /><radialGradient
     r="333.18735"
     fy="710.99164"
     fx="373.24265"
     cy="710.99164"
     cx="373.24265"
     gradientTransform="matrix(0.9503534,1.1750652e-7,-5.6287062e-8,0.3462676,17.334826,362.44227)"
     gradientUnits="userSpaceOnUse"
     id="radialGradient4766-2"
     xlink:href="#linearGradient3157-2"
     inkscape:collect="always" /><radialGradient
     r="333.18735"
     fy="710.99164"
     fx="373.24265"
     cy="710.99164"
     cx="373.24265"
     gradientTransform="matrix(0.9503534,1.1750652e-7,-5.6287062e-8,0.3462676,17.334826,362.44227)"
     gradientUnits="userSpaceOnUse"
     id="radialGradient4572-4"
     xlink:href="#linearGradient3157-2"
     inkscape:collect="always" /><radialGradient
     r="333.18735"
     fy="467.91885"
     fx="373.24265"
     cy="467.91885"
     cx="373.24265"
     gradientTransform="matrix(0.9201975,2.7970099e-7,-2.7059634e-7,0.8902438,28.590287,48.634335)"
     gradientUnits="userSpaceOnUse"
     id="radialGradient4569-1"
     xlink:href="#linearGradient3171-6"
     inkscape:collect="always" /><linearGradient
     y2="254.73526"
     x2="123.47623"
     y1="344.03848"
     x1="123.50603"
     gradientTransform="matrix(2.3189708,0,0,2.0930998,93.115298,-256.84999)"
     gradientUnits="userSpaceOnUse"
     id="linearGradient4562-1"
     xlink:href="#linearGradient3187-1"
     inkscape:collect="always" /><linearGradient
     gradientUnits="userSpaceOnUse"
     y2="540.86719"
     x2="360.49777"
     y1="167.50403"
     x1="360.49777"
     id="linearGradient4401-3"
     xlink:href="#linearGradient4395-7"
     inkscape:collect="always" /><linearGradient
     gradientUnits="userSpaceOnUse"
     y2="655.4505"
     x2="396.91168"
     y1="298.59412"
     x1="371.42194"
     id="linearGradient4389-8"
     xlink:href="#linearGradient4383-4"
     inkscape:collect="always" /><inkscape:perspective
     id="perspective3214-7"
     inkscape:persp3d-origin="372.04724 : 350.78739 : 1"
     inkscape:vp_z="744.09448 : 526.18109 : 1"
     inkscape:vp_y="0 : 1000 : 0"
     inkscape:vp_x="0 : 526.18109 : 1"
     sodipodi:type="inkscape:persp3d" /><linearGradient
     id="linearGradient4383-4"><stop
       id="stop4385-2"
       offset="0"
       style="stop-color:#00037f;stop-opacity:1;" /><stop
       id="stop4387-7"
       offset="1"
       style="stop-color:#00037f;stop-opacity:0;" /></linearGradient><linearGradient
     id="linearGradient4395-7"><stop
       id="stop4397-9"
       offset="0"
       style="stop-color:#110084;stop-opacity:1;" /><stop
       id="stop4399-3"
       offset="1"
       style="stop-color:#a695ff;stop-opacity:1;" /></linearGradient><linearGradient
     id="linearGradient3187-1"><stop
       id="stop3189-9"
       offset="0"
       style="stop-color:#ffffff;stop-opacity:0.39622641;" /><stop
       id="stop3191-8"
       offset="1"
       style="stop-color:#000000;stop-opacity:1;" /></linearGradient><linearGradient
     id="linearGradient3171-6"><stop
       style="stop-color:#49bcff;stop-opacity:1;"
       offset="0"
       id="stop3173-5" /><stop
       style="stop-color:#494cdc;stop-opacity:1;"
       offset="1"
       id="stop3175-0" /></linearGradient><linearGradient
     id="linearGradient3157-2"><stop
       id="stop3159-8"
       offset="0"
       style="stop-color:#49bcff;stop-opacity:1;" /><stop
       id="stop3161-6"
       offset="1"
       style="stop-color:#494c96;stop-opacity:1;" /></linearGradient><linearGradient
     id="linearGradient5443-0"><stop
       style="stop-color:#ffffff;stop-opacity:0;"
       offset="0"
       id="stop5445-2" /><stop
       style="stop-color:#000000;stop-opacity:0.33962265;"
       offset="1"
       id="stop5447-4" /></linearGradient><radialGradient
     inkscape:collect="always"
     xlink:href="#linearGradient5443-0"
     id="radialGradient3234"
     gradientUnits="userSpaceOnUse"
     gradientTransform="matrix(0.8612608,1.0093481e-7,-5.1010329e-8,0.29743416,-586.09339,395.79293)"
     cx="373.24265"
     cy="710.99164"
     fx="373.24265"
     fy="710.99164"
     r="333.18735" /><linearGradient
     inkscape:collect="always"
     xlink:href="#linearGradient3187-1"
     id="linearGradient3236"
     gradientUnits="userSpaceOnUse"
     gradientTransform="matrix(2.3189708,0,0,2.0930998,-543.56606,-225.82362)"
     x1="123.50603"
     y1="344.03848"
     x2="123.47623"
     y2="254.73526" /><radialGradient
     inkscape:collect="always"
     xlink:href="#linearGradient5443-0"
     id="radialGradient3238"
     gradientUnits="userSpaceOnUse"
     gradientTransform="matrix(0.83393192,2.4025531e-7,-2.452288e-7,0.76469446,-575.89311,126.3946)"
     cx="373.24265"
     cy="467.91885"
     fx="373.24265"
     fy="467.91885"
     r="333.18735" /><radialGradient
     inkscape:collect="always"
     xlink:href="#linearGradient5443-0"
     id="radialGradient3254"
     gradientUnits="userSpaceOnUse"
     gradientTransform="matrix(0.8612608,1.0093481e-7,-5.1010329e-8,0.29743416,-586.09339,395.79293)"
     cx="373.24265"
     cy="710.99164"
     fx="373.24265"
     fy="710.99164"
     r="333.18735" /><linearGradient
     inkscape:collect="always"
     xlink:href="#linearGradient3187-1"
     id="linearGradient3256"
     gradientUnits="userSpaceOnUse"
     gradientTransform="matrix(2.3189708,0,0,2.0930998,-543.56606,-225.82362)"
     x1="123.50603"
     y1="344.03848"
     x2="123.47623"
     y2="254.73526" /><radialGradient
     inkscape:collect="always"
     xlink:href="#linearGradient5443-0"
     id="radialGradient3258"
     gradientUnits="userSpaceOnUse"
     gradientTransform="matrix(0.83393192,2.4025531e-7,-2.452288e-7,0.76469446,-575.89311,126.3946)"
     cx="373.24265"
     cy="467.91885"
     fx="373.24265"
     fy="467.91885"
     r="333.18735" /><radialGradient
     inkscape:collect="always"
     xlink:href="#linearGradient5443-0"
     id="radialGradient3270"
     gradientUnits="userSpaceOnUse"
     gradientTransform="matrix(0.83535069,2.5391116e-7,-2.4564601e-7,0.80815885,-821.89024,-331.16994)"
     cx="373.24265"
     cy="467.91885"
     fx="373.24265"
     fy="467.91885"
     r="333.18735" /><radialGradient
     inkscape:collect="always"
     xlink:href="#linearGradient5443-0"
     id="radialGradient3274"
     gradientUnits="userSpaceOnUse"
     gradientTransform="matrix(0.86272606,1.0667183e-7,-5.1097113e-8,0.31433999,-832.10787,-46.459305)"
     cx="373.24265"
     cy="710.99164"
     fx="373.24265"
     fy="710.99164"
     r="333.18735" /><linearGradient
     y2="254.73526"
     x2="123.47623"
     y1="344.03848"
     x1="123.50603"
     gradientTransform="matrix(2.3189708,0,0,2.0930998,-543.56606,-225.82362)"
     gradientUnits="userSpaceOnUse"
     id="linearGradient3422"
     xlink:href="#linearGradient3187"
     inkscape:collect="always" /><radialGradient
     r="333.18735"
     fy="710.99164"
     fx="373.24265"
     cy="710.99164"
     cx="373.24265"
     gradientTransform="matrix(0.86272606,1.0667183e-7,-5.1097113e-8,0.31433999,-736.19251,168.72353)"
     gradientUnits="userSpaceOnUse"
     id="radialGradient3416"
     xlink:href="#linearGradient5443"
     inkscape:collect="always" /><radialGradient
     r="333.18735"
     fy="467.91885"
     fx="373.24265"
     cy="467.91885"
     cx="373.24265"
     gradientTransform="matrix(0.83535069,2.5391116e-7,-2.4564601e-7,0.80815885,-725.97492,-115.98714)"
     gradientUnits="userSpaceOnUse"
     id="radialGradient3412"
     xlink:href="#linearGradient5443"
     inkscape:collect="always" /><radialGradient
     r="333.18735"
     fy="467.91885"
     fx="373.24265"
     cy="467.91885"
     cx="373.24265"
     gradientTransform="matrix(0.83393192,2.4025531e-7,-2.452288e-7,0.76469446,-575.89311,126.3946)"
     gradientUnits="userSpaceOnUse"
     id="radialGradient2894"
     xlink:href="#linearGradient5443"
     inkscape:collect="always" /><linearGradient
     y2="254.73526"
     x2="123.47623"
     y1="344.03848"
     x1="123.50603"
     gradientTransform="matrix(2.3189708,0,0,2.0930998,-543.56606,-225.82362)"
     gradientUnits="userSpaceOnUse"
     id="linearGradient2892"
     xlink:href="#linearGradient3187"
     inkscape:collect="always" /><radialGradient
     r="333.18735"
     fy="710.99164"
     fx="373.24265"
     cy="710.99164"
     cx="373.24265"
     gradientTransform="matrix(0.8612608,1.0093481e-7,-5.1010329e-8,0.29743416,-586.09339,395.79293)"
     gradientUnits="userSpaceOnUse"
     id="radialGradient2890"
     xlink:href="#linearGradient5443"
     inkscape:collect="always" /><linearGradient
     id="linearGradient5443-5"><stop
       style="stop-color:#ffffff;stop-opacity:0;"
       offset="0"
       id="stop5445-4" /><stop
       style="stop-color:#000000;stop-opacity:0.33962265;"
       offset="1"
       id="stop5447-3" /></linearGradient><radialGradient
     r="333.18735"
     fy="710.99164"
     fx="373.24265"
     cy="710.99164"
     cx="373.24265"
     gradientTransform="matrix(0.9503534,1.1750652e-7,-5.6287062e-8,0.3462676,317.80591,185.68771)"
     gradientUnits="userSpaceOnUse"
     id="radialGradient4835-3"
     xlink:href="#linearGradient5443-5"
     inkscape:collect="always" /><filter
     color-interpolation-filters="sRGB"
     id="filter5511"
     inkscape:collect="always"><feGaussianBlur
       id="feGaussianBlur5513"
       stdDeviation="3.2374974"
       inkscape:collect="always" /></filter><radialGradient
     r="333.18735"
     fy="710.99164"
     fx="373.24265"
     cy="710.99164"
     cx="373.24265"
     gradientTransform="matrix(0.8612608,1.0093481e-7,-5.1010329e-8,0.29743416,-586.09339,395.79293)"
     gradientUnits="userSpaceOnUse"
     id="radialGradient4835"
     xlink:href="#linearGradient5443"
     inkscape:collect="always" /><radialGradient
     r="333.18735"
     fy="467.91885"
     fx="373.24265"
     cy="467.91885"
     cx="373.24265"
     gradientTransform="matrix(0.83393192,2.4025531e-7,-2.452288e-7,0.76469446,-575.89311,126.3946)"
     gradientUnits="userSpaceOnUse"
     id="radialGradient4832"
     xlink:href="#linearGradient5443"
     inkscape:collect="always" /><linearGradient
     y2="254.73526"
     x2="123.47623"
     y1="344.03848"
     x1="123.50603"
     gradientTransform="matrix(2.3189708,0,0,2.0930998,-543.56606,-225.82362)"
     gradientUnits="userSpaceOnUse"
     id="linearGradient4827"
     xlink:href="#linearGradient3187"
     inkscape:collect="always" /><linearGradient
     y2="254.73526"
     x2="123.47623"
     y1="344.03848"
     x1="123.50603"
     gradientTransform="matrix(2.3189708,0,0,2.0930998,93.115298,-256.84999)"
     gradientUnits="userSpaceOnUse"
     id="linearGradient4824"
     xlink:href="#linearGradient3187"
     inkscape:collect="always" /><radialGradient
     r="333.18735"
     fy="467.91885"
     fx="373.24265"
     cy="467.91885"
     cx="373.24265"
     gradientTransform="matrix(0.9201975,2.7970099e-7,-2.7059634e-7,0.8902438,28.590287,48.634335)"
     gradientUnits="userSpaceOnUse"
     id="radialGradient4822"
     xlink:href="#linearGradient3171"
     inkscape:collect="always" /><radialGradient
     r="333.18735"
     fy="710.99164"
     fx="373.24265"
     cy="710.99164"
     cx="373.24265"
     gradientTransform="matrix(0.9503534,1.1750652e-7,-5.6287062e-8,0.3462676,17.334826,362.44227)"
     gradientUnits="userSpaceOnUse"
     id="radialGradient4820"
     xlink:href="#linearGradient3157"
     inkscape:collect="always" /><radialGradient
     r="333.18735"
     fy="710.99164"
     fx="373.24265"
     cy="710.99164"
     cx="373.24265"
     gradientTransform="matrix(0.9503534,1.1750652e-7,-5.6287062e-8,0.3462676,17.334826,362.44227)"
     gradientUnits="userSpaceOnUse"
     id="radialGradient4805"
     xlink:href="#linearGradient3157"
     inkscape:collect="always" /><radialGradient
     r="333.18735"
     fy="467.91885"
     fx="373.24265"
     cy="467.91885"
     cx="373.24265"
     gradientTransform="matrix(0.9201975,2.7970099e-7,-2.7059634e-7,0.8902438,28.590287,48.634335)"
     gradientUnits="userSpaceOnUse"
     id="radialGradient4802"
     xlink:href="#linearGradient3171"
     inkscape:collect="always" /><linearGradient
     y2="254.73526"
     x2="123.47623"
     y1="344.03848"
     x1="123.50603"
     gradientTransform="matrix(2.3189708,0,0,2.0930998,93.115298,-256.84999)"
     gradientUnits="userSpaceOnUse"
     id="linearGradient4799"
     xlink:href="#linearGradient3187"
     inkscape:collect="always" /><linearGradient
     y2="254.73526"
     x2="123.47623"
     y1="344.03848"
     x1="123.50603"
     gradientTransform="matrix(2.3189708,0,0,2.0930998,93.115298,-256.84999)"
     gradientUnits="userSpaceOnUse"
     id="linearGradient4794"
     xlink:href="#linearGradient3187"
     inkscape:collect="always" /><radialGradient
     r="333.18735"
     fy="467.91885"
     fx="373.24265"
     cy="467.91885"
     cx="373.24265"
     gradientTransform="matrix(0.9201975,2.7970099e-7,-2.7059634e-7,0.8902438,28.590287,48.634335)"
     gradientUnits="userSpaceOnUse"
     id="radialGradient4792"
     xlink:href="#linearGradient3171"
     inkscape:collect="always" /><radialGradient
     r="333.18735"
     fy="710.99164"
     fx="373.24265"
     cy="710.99164"
     cx="373.24265"
     gradientTransform="matrix(0.9503534,1.1750652e-7,-5.6287062e-8,0.3462676,17.334826,362.44227)"
     gradientUnits="userSpaceOnUse"
     id="radialGradient4790"
     xlink:href="#linearGradient3157"
     inkscape:collect="always" /><radialGradient
     r="333.18735"
     fy="710.99164"
     fx="373.24265"
     cy="710.99164"
     cx="373.24265"
     gradientTransform="matrix(0.9503534,1.1750652e-7,-5.6287062e-8,0.3462676,17.334826,362.44227)"
     gradientUnits="userSpaceOnUse"
     id="radialGradient4779"
     xlink:href="#linearGradient3157"
     inkscape:collect="always" /><radialGradient
     r="333.18735"
     fy="467.91885"
     fx="373.24265"
     cy="467.91885"
     cx="373.24265"
     gradientTransform="matrix(0.9201975,2.7970099e-7,-2.7059634e-7,0.8902438,28.590287,48.634335)"
     gradientUnits="userSpaceOnUse"
     id="radialGradient4776"
     xlink:href="#linearGradient3171"
     inkscape:collect="always" /><linearGradient
     y2="254.73526"
     x2="123.47623"
     y1="344.03848"
     x1="123.50603"
     gradientTransform="matrix(2.3189708,0,0,2.0930998,93.115298,-256.84999)"
     gradientUnits="userSpaceOnUse"
     id="linearGradient4773"
     xlink:href="#linearGradient3187"
     inkscape:collect="always" /><linearGradient
     y2="254.73526"
     x2="123.47623"
     y1="344.03848"
     x1="123.50603"
     gradientTransform="matrix(2.3189708,0,0,2.0930998,93.115298,-256.84999)"
     gradientUnits="userSpaceOnUse"
     id="linearGradient4770"
     xlink:href="#linearGradient3187"
     inkscape:collect="always" /><radialGradient
     r="333.18735"
     fy="467.91885"
     fx="373.24265"
     cy="467.91885"
     cx="373.24265"
     gradientTransform="matrix(0.9201975,2.7970099e-7,-2.7059634e-7,0.8902438,28.590287,48.634335)"
     gradientUnits="userSpaceOnUse"
     id="radialGradient4768"
     xlink:href="#linearGradient3171"
     inkscape:collect="always" /><radialGradient
     r="333.18735"
     fy="710.99164"
     fx="373.24265"
     cy="710.99164"
     cx="373.24265"
     gradientTransform="matrix(0.9503534,1.1750652e-7,-5.6287062e-8,0.3462676,17.334826,362.44227)"
     gradientUnits="userSpaceOnUse"
     id="radialGradient4766"
     xlink:href="#linearGradient3157"
     inkscape:collect="always" /><filter
     color-interpolation-filters="sRGB"
     id="filter4659"
     inkscape:collect="always"><feGaussianBlur
       id="feGaussianBlur4661"
       stdDeviation="2.7750933"
       inkscape:collect="always" /></filter><radialGradient
     r="333.18735"
     fy="710.99164"
     fx="373.24265"
     cy="710.99164"
     cx="373.24265"
     gradientTransform="matrix(0.9503534,1.1750652e-7,-5.6287062e-8,0.3462676,17.334826,362.44227)"
     gradientUnits="userSpaceOnUse"
     id="radialGradient4572"
     xlink:href="#linearGradient3157"
     inkscape:collect="always" /><radialGradient
     r="333.18735"
     fy="467.91885"
     fx="373.24265"
     cy="467.91885"
     cx="373.24265"
     gradientTransform="matrix(0.9201975,2.7970099e-7,-2.7059634e-7,0.8902438,28.590287,48.634335)"
     gradientUnits="userSpaceOnUse"
     id="radialGradient4569"
     xlink:href="#linearGradient3171"
     inkscape:collect="always" /><linearGradient
     y2="254.73526"
     x2="123.47623"
     y1="344.03848"
     x1="123.50603"
     gradientTransform="matrix(2.3189708,0,0,2.0930998,93.115298,-256.84999)"
     gradientUnits="userSpaceOnUse"
     id="linearGradient4562"
     xlink:href="#linearGradient3187"
     inkscape:collect="always" /><linearGradient
     gradientUnits="userSpaceOnUse"
     y2="540.86719"
     x2="360.49777"
     y1="167.50403"
     x1="360.49777"
     id="linearGradient4401"
     xlink:href="#linearGradient4395"
     inkscape:collect="always" /><linearGradient
     gradientUnits="userSpaceOnUse"
     y2="655.4505"
     x2="396.91168"
     y1="298.59412"
     x1="371.42194"
     id="linearGradient4389"
     xlink:href="#linearGradient4383"
     inkscape:collect="always" /><inkscape:perspective
     id="perspective3214"
     inkscape:persp3d-origin="372.04724 : 350.78739 : 1"
     inkscape:vp_z="744.09448 : 526.18109 : 1"
     inkscape:vp_y="0 : 1000 : 0"
     inkscape:vp_x="0 : 526.18109 : 1"
     sodipodi:type="inkscape:persp3d" /><linearGradient
     id="linearGradient4383"><stop
       id="stop4385"
       offset="0"
       style="stop-color:#00037f;stop-opacity:1;" /><stop
       id="stop4387"
       offset="1"
       style="stop-color:#00037f;stop-opacity:0;" /></linearGradient><linearGradient
     id="linearGradient4395"><stop
       id="stop4397"
       offset="0"
       style="stop-color:#110084;stop-opacity:1;" /><stop
       id="stop4399"
       offset="1"
       style="stop-color:#a695ff;stop-opacity:1;" /></linearGradient><linearGradient
     id="linearGradient3187"><stop
       id="stop3189"
       offset="0"
       style="stop-color:#ffffff;stop-opacity:0.39622641;" /><stop
       id="stop3191"
       offset="1"
       style="stop-color:#9e9e9e;stop-opacity:1;" /></linearGradient><linearGradient
     id="linearGradient3171"><stop
       style="stop-color:#49bcff;stop-opacity:1;"
       offset="0"
       id="stop3173" /><stop
       style="stop-color:#494cdc;stop-opacity:1;"
       offset="1"
       id="stop3175" /></linearGradient><linearGradient
     id="linearGradient3157"><stop
       id="stop3159"
       offset="0"
       style="stop-color:#49bcff;stop-opacity:1;" /><stop
       id="stop3161"
       offset="1"
       style="stop-color:#494c96;stop-opacity:1;" /></linearGradient><linearGradient
     id="linearGradient5443"><stop
       style="stop-color:#ffffff;stop-opacity:0;"
       offset="0"
       id="stop5445" /><stop
       style="stop-color:#cbcac8;stop-opacity:1;"
       offset="1"
       id="stop5447" /></linearGradient><radialGradient
     inkscape:collect="always"
     xlink:href="#linearGradient5443"
     id="radialGradient3253"
     gradientUnits="userSpaceOnUse"
     gradientTransform="matrix(0.8612608,1.0093481e-7,-5.1010329e-8,0.29743416,-586.09339,395.79293)"
     cx="373.24265"
     cy="710.99164"
     fx="373.24265"
     fy="710.99164"
     r="333.18735" /><linearGradient
     inkscape:collect="always"
     xlink:href="#linearGradient3187"
     id="linearGradient3255"
     gradientUnits="userSpaceOnUse"
     gradientTransform="matrix(2.3189708,0,0,2.0930998,-543.56606,-225.82362)"
     x1="123.50603"
     y1="344.03848"
     x2="123.47623"
     y2="254.73526" /><radialGradient
     inkscape:collect="always"
     xlink:href="#linearGradient5443"
     id="radialGradient3257"
     gradientUnits="userSpaceOnUse"
     gradientTransform="matrix(0.83393192,2.4025531e-7,-2.452288e-7,0.76469446,-575.89311,126.3946)"
     cx="373.24265"
     cy="467.91885"
     fx="373.24265"
     fy="467.91885"
     r="333.18735" /><radialGradient
     inkscape:collect="always"
     xlink:href="#linearGradient5443"
     id="radialGradient3273"
     gradientUnits="userSpaceOnUse"
     gradientTransform="matrix(0.8612608,1.0093481e-7,-5.1010329e-8,0.29743416,-586.09339,395.79293)"
     cx="373.24265"
     cy="710.99164"
     fx="373.24265"
     fy="710.99164"
     r="333.18735" /><linearGradient
     inkscape:collect="always"
     xlink:href="#linearGradient3187"
     id="linearGradient3275"
     gradientUnits="userSpaceOnUse"
     gradientTransform="matrix(2.3189708,0,0,2.0930998,-543.56606,-225.82362)"
     x1="123.50603"
     y1="344.03848"
     x2="123.47623"
     y2="254.73526" /><radialGradient
     inkscape:collect="always"
     xlink:href="#linearGradient5443"
     id="radialGradient3277"
     gradientUnits="userSpaceOnUse"
     gradientTransform="matrix(0.83393192,2.4025531e-7,-2.452288e-7,0.76469446,-575.89311,126.3946)"
     cx="373.24265"
     cy="467.91885"
     fx="373.24265"
     fy="467.91885"
     r="333.18735" /></defs><sodipodi:namedview
   pagecolor="#ffffff"
   bordercolor="#666666"
   borderopacity="1"
   objecttolerance="10"
   gridtolerance="10"
   guidetolerance="10"
   inkscape:pageopacity="0"
   inkscape:pageshadow="2"
   inkscape:window-width="1920"
   inkscape:window-height="1031"
   id="namedview15"
   showgrid="false"
   fit-margin-top="0"
   fit-margin-left="0"
   fit-margin-right="0"
   fit-margin-bottom="0"
   inkscape:zoom="0.42140707"
   inkscape:cx="676.21585"
   inkscape:cy="-384.20457"
   inkscape:window-x="-4"
   inkscape:window-y="-4"
   inkscape:window-maximized="1"
   inkscape:current-layer="_x31_" />


<g
   id="g4196"
   transform="translate(-4.0524846e-6,1.5294444e-7)"><g
     transform="translate(589.18636,-87.165827)"
     id="g4448"><rect
       transform="matrix(2.1051501,0,0,2.1051501,-860.18934,-1.2010596)"
       ry="12.45238"
       rx="16.067965"
       y="48.636749"
       x="135.39355"
       height="152.93848"
       width="152.93848"
       id="rect4192"
       style="fill:#cccccc;fill-opacity:1;stroke:none;filter:url(#filter4659)"
       inkscape:export-filename="C:\Documents and Settings\adscro24\Desktop\128.png"
       inkscape:export-xdpi="29.879425"
       inkscape:export-ydpi="29.879425" /><rect
       inkscape:export-ydpi="29.879425"
       inkscape:export-xdpi="29.879425"
       inkscape:export-filename="C:\Documents and Settings\adscro24\Desktop\128.png"
       style="fill:#cbcac8;fill-opacity:1;stroke:none;filter:url(#filter4659)"
       id="rect3279"
       width="152.93848"
       height="152.93848"
       x="135.39355"
       y="48.636749"
       rx="16.067965"
       ry="12.45238"
       transform="matrix(2.1051501,0,0,2.1051501,-860.18934,-1.2010596)" /><rect
       inkscape:export-ydpi="29.879425"
       inkscape:export-xdpi="29.879425"
       inkscape:export-filename="C:\Documents and Settings\adscro24\Desktop\128.png"
       style="opacity:0.61338286;fill:url(#radialGradient4456);fill-opacity:1;stroke:#000000;stroke-width:3.26806188;stroke-miterlimit:4;stroke-opacity:1;stroke-dasharray:none"
       id="rect3155"
       width="321.95847"
       height="321.95844"
       x="-575.16559"
       y="101.18661"
       rx="33.825478"
       ry="26.214128" /><path
       transform="matrix(0.907795,0,0,0.90779498,-173.95283,-177.39738)"
       inkscape:export-ydpi="29.879425"
       inkscape:export-xdpi="29.879425"
       inkscape:export-filename="C:\Documents and Settings\adscro24\Desktop\128.png"
       inkscape:connector-curvature="0"
       style="opacity:0.61338286;fill:url(#linearGradient4458);fill-opacity:1;stroke:none;filter:url(#filter5511)"
       d="m -397.80626,329.07489 c -19.62748,0 -35.44272,12.0976 -35.44272,27.14163 l 0,124.30857 c 29.25482,11.38638 132.70149,11.89599 165.40488,-5.79022 33.32802,-18.02397 127.54379,-68.44264 171.824837,-52.72052 l 0,-65.79783 c 0,-15.04403 -15.798597,-27.14163 -35.426097,-27.14163 l -266.3609,0 z m -35.44272,263.47103 0,42.88373 c 0,1.33144 0.14331,2.63588 0.38253,3.915 -0.11919,-12.81092 -0.25965,-28.88939 -0.38253,-46.79873 z"
       id="rect3177" /><rect
       inkscape:export-ydpi="29.879425"
       inkscape:export-xdpi="29.879425"
       inkscape:export-filename="C:\Documents and Settings\adscro24\Desktop\128.png"
       style="opacity:0.61338286;fill:url(#radialGradient4460);fill-opacity:1;stroke:#ffffff;stroke-width:0.68992418;stroke-linecap:square;stroke-miterlimit:4;stroke-opacity:1;stroke-dasharray:none"
       id="rect3473"
       width="306.12445"
       height="306.12445"
       x="-567.2486"
       y="109.1036"
       rx="32.161926"
       ry="24.924911" /><rect
       inkscape:export-ydpi="29.879425"
       inkscape:export-xdpi="29.879425"
       inkscape:export-filename="C:\Documents and Settings\adscro24\Desktop\128.png"
       style="opacity:0.61338286;fill:#ffffff;fill-opacity:0;stroke:#000000;stroke-width:3.26806188;stroke-miterlimit:4;stroke-opacity:1;stroke-dasharray:none"
       id="rect3155-2"
       width="321.95847"
       height="321.95844"
       x="-575.16559"
       y="101.18661"
       rx="33.825478"
       ry="26.214128" /></g><g
     transform="translate(358.29183,-87.165827)"
     id="LWPOLYLINE_2_-7">
	
		
</g><g
     transform="translate(358.29183,-87.165827)"
     id="LWPOLYLINE_3_-4">
	
		
</g><g
     transform="translate(358.29183,-87.165827)"
     id="LWPOLYLINE_4_">
	
		
</g><g
     transform="translate(184.65055,-351.95215)"
     style="fill:#000000;fill-opacity:1;stroke:none"
     id="LWPOLYLINE_6_-7">
	
		
</g><g
     transform="translate(184.65055,-351.95215)"
     style="fill:#000000;fill-opacity:1;stroke:none"
     id="LWPOLYLINE-4">
	
		
</g><g
     transform="translate(184.65055,-351.95215)"
     style="fill:#000000;fill-opacity:1;stroke:none"
     id="LWPOLYLINE_3_-0">
	
		
</g></g><g
   id="g3788"
   transform="matrix(0.51820346,0,0,0.51820346,15.200096,20.209306)"><g
     transform="translate(2.3730022,-97.2931)"
     style="fill:#000000;fill-opacity:1;stroke:none"
     id="LWPOLYLINE">
	
		<path
   inkscape:connector-curvature="0"
   style="fill:#000000;fill-opacity:1;stroke:none"
   id="path4"
   d="m 33.906,496 c 0.256,0 0.938,0 0.938,0 h 1.135 1.562 1.93 2.299 2.613 2.951 3.236 3.521 3.746 3.947 4.172 4.316 4.484 4.6 4.684 4.77 4.799 4.854 4.826 4.799 4.768 4.713 4.57 4.486 4.314 4.174 3.975 3.748 3.49 3.236 2.953 2.641 2.299 1.932 1.531 1.137 0.709 c 0.227,-0.172 0.227,-0.398 0.227,-0.398 v -0.283 -0.342 -0.453 -0.512 -0.51 -0.625 -0.682 -0.682 -0.795 -0.738 -0.852 -0.852 -0.852 -0.908 -0.908 -0.908 -0.908 -0.91 -0.908 -0.908 -0.852 -0.908 -0.852 -0.795 -0.795 -0.738 -0.738 -0.625 -0.623 -0.568 -0.512 -0.396 -0.398 -0.283 c 0,-0.227 0,-0.342 0,-0.342 -0.197,-0.057 -0.736,-0.057 -0.736,-0.057 h -0.881 -1.221 -1.504 -1.818 -2.043 -2.328 -2.527 -2.754 -2.924 -3.123 -3.264 -3.379 -3.52 -3.578 -3.689 -3.719 -3.775 -3.805 -3.775 -3.775 -3.748 -3.662 -3.605 -3.52 -3.379 -3.266 -3.094 -2.953 -2.754 -2.525 -2.301 -2.072 -1.787 -1.533 -1.193 -0.908 -0.539 c -0.199,-0.113 -0.199,-0.453 -0.199,-0.453 v -0.625 -0.795 -0.965 -1.193 -1.361 -1.477 -1.703 -1.76 -1.932 -2.043 -2.158 -2.215 -2.271 -2.383 -2.385 -2.441 -2.5 -2.441 -2.498 -2.498 -2.441 -2.385 -2.385 -2.27 -2.215 -2.158 -2.043 -1.932 -1.76 -1.703 -1.477 -1.363 -1.191 -0.965 -0.795 -0.625 -0.34 c 0.17,-0.115 0.682,-0.115 0.682,-0.115 h 0.852 1.107 1.42 1.674 1.932 2.129 2.385 2.555 2.725 2.896 3.037 3.152 3.264 3.35 3.436 3.463 3.521 3.52 3.549 3.492 3.492 3.406 3.35 3.264 3.18 3.039 2.867 2.754 2.555 2.355 2.158 1.93 1.676 1.391 1.135 0.824 0.512 c 0.17,-0.17 0.17,-0.396 0.17,-0.396 0,-0.283 0,-0.625 0,-0.625 v -0.396 -0.455 -0.568 -0.566 -0.625 -0.682 -0.738 -0.738 -0.795 -0.795 -0.795 -0.852 -0.879 -0.852 -0.881 -0.881 -0.852 -0.852 -0.852 -0.822 -0.824 -0.766 -0.768 -0.709 -0.682 -0.625 -0.566 -0.541 -0.482 -0.396 -0.369 c 0,-0.256 0,-0.482 0,-0.482 -0.17,-0.17 -0.682,-0.17 -0.682,-0.17 h -0.824 -1.135 -1.391 -1.676 -1.93 -2.158 -2.355 -2.555 -2.754 -2.867 -3.039 -3.18 -3.264 -3.35 -3.406 -3.492 -3.492 -3.549 -3.52 -3.521 -3.463 -3.436 -3.35 -3.264 -3.152 -3.037 -2.896 -2.725 -2.555 -2.385 -2.129 -1.932 -1.674 -1.42 -1.107 -0.852 -0.512 c -0.17,-0.115 -0.17,-0.426 -0.17,-0.426 v -0.541 -0.738 -0.936 -1.078 -1.279 -1.391 -1.561 -1.676 -1.789 -1.873 -1.986 -2.072 -2.129 -2.215 -2.244 -2.27 -2.301 -2.299 -2.299 -2.301 -2.271 -2.242 -2.215 -2.129 -2.072 -1.986 -1.875 -1.787 -1.676 -1.561 -1.391 -1.25 -1.107 -0.938 -0.736 -0.541 -0.311 c 0.199,-0.115 0.738,-0.115 0.738,-0.115 h 0.852 1.193 1.477 1.76 2.016 2.242 2.498 2.668 2.896 3.01 3.207 3.293 3.436 3.52 3.578 3.662 3.689 3.691 3.719 3.662 3.662 3.578 3.52 3.436 3.32 3.18 3.037 2.867 2.697 2.471 2.242 2.016 1.76 1.477 1.193 0.879 0.539 c 0.172,-0.197 0.172,-0.396 0.172,-0.396 v -0.283 -0.369 -0.455 -0.482 -0.568 -0.596 -0.682 -0.709 -0.738 -0.795 -0.824 -0.852 -0.852 -0.879 -0.908 -0.91 -0.908 -0.936 -0.91 -0.879 -0.908 -0.852 -0.852 -0.824 -0.795 -0.738 -0.709 -0.682 -0.596 -0.568 -0.482 -0.455 -0.34 -0.312 c 0,-0.199 0,-0.34 0,-0.34 -0.229,-0.057 -0.91,-0.057 -0.91,-0.057 h -1.135 -1.504 -1.902 -2.242 -2.584 -2.896 -3.18 -3.463 -3.662 -3.889 -4.088 -4.26 -4.4 -4.514 -4.598 -4.686 -4.711 -4.742 -4.77 -4.713 -4.684 -4.6 -4.515 -4.4 -4.229 -4.088 -3.891 -3.689 -3.436 -3.18 -2.896 -2.582 -2.271 -1.902 -1.504 -1.107 -0.682 C 33.906,296 33.906,496 33.906,496 z"
   stroke-miterlimit="10" />
</g><g
     transform="translate(2.3730022,-97.2931)"
     style="fill:#000000;fill-opacity:1;stroke:none"
     id="LWPOLYLINE_1_">
	
		<path
   inkscape:connector-curvature="0"
   style="fill:#000000;fill-opacity:1;stroke:none"
   id="path7"
   d="m 203.701,496 c 0.17,0 0.396,0 0.396,0 h 0.312 0.369 0.455 0.539 0.568 0.652 0.682 0.738 0.795 0.822 0.852 0.908 0.908 0.91 0.965 0.936 0.967 0.965 0.938 0.965 0.908 0.936 0.881 0.852 0.824 0.795 0.738 0.68 0.654 0.596 0.512 0.453 0.369 0.312 c 0.227,0 0.369,0 0.369,0 0.057,0 0.057,-0.285 0.057,-0.285 v -0.908 -1.533 -1.986 -2.555 -3.01 -3.463 -3.918 -4.258 -4.6 -4.939 -5.225 -5.451 -5.678 -5.904 -6.018 -6.189 -6.246 -6.359 -6.357 -6.359 -6.303 -6.273 -6.189 -6.018 -5.906 -5.678 -5.479 -5.225 -4.91 -4.627 -4.26 -3.859 -3.465 -3.037 -2.527 -2.043 -1.477 -0.938 -0.311 l 0.17,0.311 0.568,0.938 0.881,1.477 1.248,2.043 1.533,2.527 1.816,3.037 2.072,3.465 2.357,3.859 2.555,4.26 2.781,4.627 2.953,4.91 3.15,5.225 3.293,5.479 3.436,5.678 3.549,5.906 3.635,6.018 3.719,6.189 3.775,6.273 3.832,6.303 3.832,6.359 3.834,6.357 3.803,6.359 3.775,6.246 3.721,6.189 3.662,6.018 3.547,5.904 3.408,5.678 3.293,5.451 3.18,5.225 2.951,4.939 2.783,4.6 2.555,4.258 2.328,3.918 2.1,3.463 1.818,3.01 1.533,2.555 1.248,1.986 0.908,1.533 0.512,0.908 0.227,0.285 c 0.227,0 0.568,0 0.568,0 h 0.396 0.568 0.625 0.738 0.852 0.908 0.965 1.021 1.137 1.135 1.193 1.248 1.307 1.305 1.363 1.307 1.361 1.363 1.307 1.361 1.307 1.307 1.248 1.193 1.135 1.135 1.023 0.965 0.908 0.852 0.738 0.625 0.568 0.396 0.34 c 0.229,0 0.229,-0.342 0.229,-0.342 v -1.078 -1.76 -2.385 -3.01 -3.576 -4.088 -4.543 -4.996 -5.451 -5.791 -6.189 -6.416 -6.699 -6.928 -7.154 -7.266 -7.383 -7.438 -7.494 -7.494 -7.467 -7.381 -7.268 -7.098 -6.955 -6.699 -6.445 -6.131 -5.82 -5.422 -5.025 -4.57 -4.088 -3.549 -2.98 -2.414 -1.76 -1.078 V 296 c -0.172,0 -0.398,0 -0.398,0 h -0.34 -0.398 -0.453 -0.568 -0.625 -0.625 -0.736 -0.795 -0.795 -0.852 -0.91 -0.965 -0.908 -1.021 -0.965 -0.967 -1.021 -1.021 -0.965 -1.023 -0.965 -0.965 -0.908 -0.908 -0.852 -0.795 -0.795 -0.738 -0.682 -0.568 -0.566 -0.455 -0.396 -0.342 c -0.227,0 -0.396,0 -0.396,0 -0.057,0 -0.057,0.312 -0.057,0.312 v 0.908 1.447 1.959 2.469 2.953 3.35 3.775 4.146 4.484 4.797 5.082 5.309 5.537 5.734 5.877 5.988 6.105 6.16 6.188 6.189 6.133 6.131 5.963 5.904 5.734 5.508 5.336 5.055 4.77 4.484 4.145 3.805 3.35 2.953 2.441 1.986 1.477 0.908 0.283 l -0.172,-0.283 -0.51,-0.908 -0.908,-1.477 -1.137,-1.986 -1.477,-2.441 -1.76,-2.953 -2.043,-3.35 -2.271,-3.805 -2.441,-4.145 -2.727,-4.484 -2.838,-4.77 -3.066,-5.055 -3.18,-5.336 -3.293,-5.508 -3.406,-5.734 -3.52,-5.904 -3.605,-5.963 -3.662,-6.131 -3.691,-6.133 -3.691,-6.189 -3.689,-6.188 -3.691,-6.16 -3.662,-6.105 -3.576,-5.988 -3.52,-5.877 -3.436,-5.734 -3.322,-5.537 -3.18,-5.309 -3.037,-5.082 -2.867,-4.797 -2.668,-4.484 -2.498,-4.146 -2.244,-3.775 -2.016,-3.35 -1.76,-2.953 -1.477,-2.469 -1.191,-1.959 -0.881,-1.447 -0.51,-0.908 -0.2,-0.312 c -0.285,0 -0.596,0 -0.596,0 h -0.484 -0.566 -0.682 -0.768 -0.879 -0.965 -1.051 -1.107 -1.191 -1.221 -1.307 -1.307 -1.391 -1.391 -1.42 -1.42 -1.447 -1.42 -1.447 -1.42 -1.391 -1.363 -1.334 -1.277 -1.221 -1.191 -1.107 -1.051 -0.965 -0.881 -0.766 -0.682 -0.596 -0.455 -0.34 c -0.254,0 -0.254,200 -0.254,200 z"
   stroke-miterlimit="10" />
</g><g
     transform="translate(2.3730022,-97.2931)"
     style="fill:#000000;fill-opacity:1;stroke:none"
     id="LWPOLYLINE_2_">
	
		<path
   inkscape:connector-curvature="0"
   id="path10"
   d="m 414.28125,296 c -0.113,0 -0.0937,200 -0.0937,200 l 0.375,0 0.53125,0 0.6875,0 0.84375,0 1.03125,0 1.125,0 1.3125,0 1.40625,0 1.53125,0 1.71875,0 1.6875,0 1.875,0 1.875,0 2,0 2.03125,0 2.03125,0 2.125,0 2.15625,0 2.09375,0 2.15625,0 2.09375,0 2.09375,0 2.125,0 2.03125,0 1.9375,0 1.9375,0 1.8125,0 1.75,0 1.65625,0 1.59375,0 1.40625,0 1.3125,0 1.125,0 1.03125,0 0.84375,0 0.6875,0 0.5,0 0.28125,0 2.28125,0 2.15625,0 2.15625,0 2.09375,0 2.125,0 2.09375,-0.0625 2.03125,0 2.125,-0.0625 1.96875,-0.0625 2.0625,-0.0312 1.96875,-0.125 2,-0.0625 1.9375,-0.15625 1.96875,-0.125 1.9375,-0.15625 1.875,-0.1875 1.9375,-0.21875 1.875,-0.21875 1.8125,-0.25 1.875,-0.34375 1.8125,-0.28125 1.8125,-0.34375 1.75,-0.375 1.78125,-0.46875 1.75,-0.4375 1.75,-0.46875 1.71875,-0.5625 1.6875,-0.5625 1.71875,-0.625 1.625,-0.6875 1.65625,-0.6875 1.65625,-0.78125 1.59375,-0.8125 1.59375,-0.84375 1.5625,-0.90625 1.59375,-0.96875 1.53125,-1.03125 1.53125,-1.0625 1.5,-1.09375 1.46875,-1.1875 1.25,-1 1.25,-1.03125 1.1875,-1.09375 1.25,-1.125 1.1875,-1.25 1.25,-1.25 1.1875,-1.25 1.1875,-1.34375 1.1875,-1.4375 1.21875,-1.46875 1.1875,-1.53125 1.125,-1.59375 1.125,-1.59375 1.15625,-1.6875 1.0625,-1.78125 1.09375,-1.75 1.0625,-1.875 1.03125,-1.9375 1.03125,-1.9375 0.96875,-2.03125 0.96875,-2.03125 0.90625,-2.1875 0.84375,-2.1875 0.84375,-2.21875 0.8125,-2.34375 0.71875,-2.375 0.75,-2.375 0.6875,-2.5 0.625,-2.5625 0.625,-2.5625 0.5,-2.65625 0.5,-2.71875 0.46875,-2.78125 0.40625,-2.84375 0.3125,-2.90625 0.25,-2.9375 0.21875,-3.03125 0.15625,-3.0625 0.125,-3.125 0,-3.21875 0,-2 -0.0625,-2 -0.0625,-2.03125 -0.0312,-2 -0.1875,-2.03125 -0.0937,-2 -0.1875,-2.03125 -0.21875,-2 -0.21875,-2 -0.3125,-2.03125 -0.28125,-2 -0.34375,-2 -0.3125,-1.96875 -0.34375,-2 -0.46875,-1.96875 -0.4375,-1.96875 -0.46875,-1.96875 -0.5,-1.9375 -0.53125,-1.9375 -0.625,-1.9375 -0.5625,-1.90625 -0.625,-1.90625 -0.6875,-1.875 -0.71875,-1.875 -0.75,-1.84375 -0.71875,-1.84375 -0.875,-1.8125 -0.78125,-1.78125 -0.90625,-1.78125 -0.90625,-1.78125 -0.96875,-1.71875 -0.96875,-1.71875 -1.03125,-1.65625 -1.0625,-1.6875 -1.09375,-1.625 -1.125,-1.59375 -1.1875,-1.59375 -1.1875,-1.5625 -1.25,-1.53125 -1.3125,-1.5 -1.65625,-1.9375 -1.6875,-1.875 -1.78125,-1.75 -1.8125,-1.6875 -1.8125,-1.5625 -1.8125,-1.5 -1.875,-1.4375 -1.9375,-1.28125 -1.9375,-1.25 -1.96875,-1.1875 -2,-1.09375 -1.96875,-1 -2.0625,-0.96875 -2.03125,-0.875 -2.0625,-0.8125 -2.09375,-0.75 -2.09375,-0.6875 -2.0939,-0.6563 -2.125,-0.5625 -2.15625,-0.53125 -2.15625,-0.46875 -2.09375,-0.4375 -2.15625,-0.375 -2.15625,-0.34375 -2.15625,-0.3125 -2.15625,-0.25 -2.21875,-0.21875 -2.15625,-0.21875 -2.15625,-0.15625 -2.09375,-0.15625 -2.15625,-0.0937 -2.15625,-0.0937 -2.09375,-0.0937 -2.125,-0.0312 -2.09375,-0.0312 -2.09375,-0.0312 -2.09375,0 -2.0625,0 -2.03125,-0.0312 -2,0 -0.4375,0 -0.53125,0 -0.6875,0 -0.84375,0 -1.0625,0 -1.15625,0 -1.34375,0 -1.5,0 -1.53125,0 -1.6875,0 -1.8125,0 -1.875,0 -1.9375,0 -2,0 -2.09375,0 -2.09375,0 -2.15625,0 -2.15625,0 -2.15625,0 -2.21875,0 -2.15625,0 -2.15625,0 -2.09375,0 -2.0625,0 -2.03125,0 -1.9375,0 -1.875,0 -1.8125,0 -1.65625,0 -1.5625,0 -1.5,0 -1.3125,0 -1.1875,0 -1,0 -0.90625,0 -0.6875,0 -0.53125,0 -0.28125,0 z m 27.78125,23.28125 0.5625,0 0.40625,0 0.5,0 0.5625,0 0.6875,0 0.78125,0 0.875,0 0.90625,0 0.96875,0 1,0 1.15625,0 1.125,0 1.125,0 1.1875,0 1.25,0 1.25,0 1.25,0 1.25,0 1.25,0 1.3125,0 1.1875,0 1.25,0 1.1875,0 1.21875,0 1.125,0 1.0625,0 1.03125,0 0.96875,0 0.90625,0 0.84375,0 0.8125,0 0.6875,0 0.625,0 0.4375,0 0.46875,0 0.28125,0 2.03125,0 1.8125,0.0312 1.71875,0.0312 1.75,0.0625 1.71875,0.0312 1.625,0.0937 1.65625,0.0937 1.65625,0.0937 1.5625,0.15625 1.53125,0.15625 1.5625,0.1875 1.53125,0.15625 1.46875,0.25 1.40625,0.21875 1.5,0.25 1.40625,0.28125 1.375,0.3125 1.34375,0.34375 1.375,0.34375 1.3125,0.40625 1.28125,0.375 1.25,0.4375 1.25,0.46875 1.25,0.46875 1.1875,0.53125 1.25,0.53125 1.15625,0.59375 1.1875,0.625 1.125,0.625 1.09375,0.65625 1.125,0.6875 1.09375,0.75 1.0625,0.78125 1.03125,0.8125 1.0625,0.84375 1.03125,0.84375 0.96875,0.9375 1.03125,0.9375 0.96875,1 0.9375,1.03125 1.375,1.59375 1.3125,1.625 1.25,1.6875 1.1875,1.6875 1.0625,1.78125 1.09375,1.75 1.03125,1.8125 0.90625,1.8125 0.90625,1.84375 0.84375,1.875 0.78125,1.875 0.75,1.875 0.6875,1.875 0.6875,1.875 0.5625,1.875 0.5625,1.875 0.5625,1.84375 0.46875,1.84375 0.4375,1.8125 0.40625,1.8125 0.40625,1.78125 0.34375,1.75 0.28125,1.71875 0.28125,1.65625 0.28125,1.625 0.15625,1.59375 0.21875,1.5625 0.1875,1.46875 0.15625,1.40625 0.125,1.40625 0.125,1.3125 0.0937,1.25 0.0625,1.15625 0.0625,1.09375 0.0625,1 0,0.9375 0.0625,0.875 0,0.75 0,0.6875 0,0.5625 0,0.90625 0,0.96875 0,1.0625 -0.0625,1.15625 0,1.1875 -0.0625,1.25 -0.125,1.3125 -0.0625,1.34375 -0.0937,1.4375 -0.1875,1.46875 -0.15625,1.53125 -0.1875,1.59375 -0.21875,1.59375 -0.28125,1.625 -0.28125,1.71875 -0.34375,1.6875 -0.34375,1.71875 -0.375,1.75 -0.46875,1.8125 -0.5,1.78125 -0.59375,1.8125 -0.5625,1.875 -0.6875,1.8125 -0.65625,1.8125 -0.8125,1.875 -0.78125,1.8125 -0.90625,1.875 -0.90625,1.8125 -1.03125,1.8125 -1.0625,1.8125 -1.15625,1.84375 -1.25,1.75 -1.3125,1.75 -1.34375,1.78125 -1.4375,1.625 -1.53125,1.71875 -1.59375,1.59375 -1.6875,1.625 -1.8125,1.53125 -1.875,1.5 -1.03125,0.65625 -1.0625,0.6875 -1.15625,0.625 -1.0625,0.5625 -1.15625,0.59375 -1.1875,0.5625 -1.125,0.5 -1.1875,0.46875 -1.25,0.5 -1.1875,0.40625 -1.25,0.4375 -1.25,0.34375 -1.3125,0.40625 -1.25,0.34375 -1.3125,0.34375 -1.3125,0.28125 -1.28125,0.28125 -1.375,0.28125 -1.3125,0.21875 L 497.875,471 l -1.375,0.25 -1.375,0.15625 -1.34375,0.1875 -1.375,0.15625 -1.40625,0.1875 -1.375,0.0937 -1.40625,0.125 -1.375,0.0937 -1.40625,0.0625 -1.4375,0.125 -1.34375,0.0625 -1.4375,0.0625 -1.40625,0.0312 -1.4375,0.0625 -1.40625,0 -1.40625,0.0625 -1.375,0 -1.40625,0.0625 -1.4375,0 -1.34375,0 -0.46875,0 -0.34375,0 -0.40625,0 -0.5,0 -0.5625,0 -0.625,0 -0.75,0 -0.71875,0 -0.8125,0 -0.84375,0 -0.90625,0 -0.96875,0 -0.96875,0 -0.96875,0 -1,0 -1.03125,0 -1.09375,0 -1,0 -1.03125,0 -1.09375,0 -1,0 -1.03125,0 -0.96875,0 -0.96875,0 -0.96875,0 -0.90625,0 -0.84375,0 -0.78125,0 -0.75,0 -0.75,0 -0.625,0 -0.5625,0 -0.5,0 -0.40625,0 -0.34375,0 -0.375,0 c -0.058,0 -0.0625,-153.5 -0.0625,-153.5 z"
   style="fill:#000000;fill-opacity:1;stroke:none" />
</g></g>
<g
   id="LWPOLYLINE_3_"
   style="fill:#000000;fill-opacity:1;stroke:none"
   transform="translate(-210.65378,-49.852426)">
	
		
</g>
</svg>