<?xml version="1.0" encoding="UTF-8" standalone="no"?>
<!-- Generator: Adobe Illustrator 16.0.1, SVG Export Plug-In . SVG Version: 6.00 Build 0)  -->

<svg
   xmlns:dc="http://purl.org/dc/elements/1.1/"
   xmlns:cc="http://creativecommons.org/ns#"
   xmlns:rdf="http://www.w3.org/1999/02/22-rdf-syntax-ns#"
   xmlns:svg="http://www.w3.org/2000/svg"
   xmlns="http://www.w3.org/2000/svg"
   xmlns:xlink="http://www.w3.org/1999/xlink"
   xmlns:sodipodi="http://sodipodi.sourceforge.net/DTD/sodipodi-0.dtd"
   xmlns:inkscape="http://www.inkscape.org/namespaces/inkscape"
   version="1.0"
   id="_x31_"
   x="0px"
   y="0px"
   width="350"
   height="350"
   viewBox="0 0 350 350"
   enable-background="new 0 0 612 792"
   xml:space="preserve"
   inkscape:version="0.48.3.1 r9886"
   sodipodi:docname="6016.svg"><metadata
   id="metadata121"><rdf:RDF><cc:Work
       rdf:about=""><dc:format>image/svg+xml</dc:format><dc:type
         rdf:resource="http://purl.org/dc/dcmitype/StillImage" /></cc:Work></rdf:RDF></metadata><defs
   id="defs119"><radialGradient
     r="333.18735"
     fy="467.91885"
     fx="373.24265"
     cy="467.91885"
     cx="373.24265"
     gradientTransform="matrix(0.83535069,2.5391116e-7,-2.4564601e-7,0.80815885,-725.97492,-115.98714)"
     gradientUnits="userSpaceOnUse"
     id="radialGradient4460"
     xlink:href="#linearGradient5443"
     inkscape:collect="always" /><linearGradient
     y2="254.73526"
     x2="123.47623"
     y1="344.03848"
     x1="123.50603"
     gradientTransform="matrix(2.3189708,0,0,2.0930998,-543.56606,-225.82362)"
     gradientUnits="userSpaceOnUse"
     id="linearGradient4458"
     xlink:href="#linearGradient3187"
     inkscape:collect="always" /><radialGradient
     r="333.18735"
     fy="710.99164"
     fx="373.24265"
     cy="710.99164"
     cx="373.24265"
     gradientTransform="matrix(0.86272606,1.0667183e-7,-5.1097113e-8,0.31433999,-736.19251,168.72353)"
     gradientUnits="userSpaceOnUse"
     id="radialGradient4456"
     xlink:href="#linearGradient5443"
     inkscape:collect="always" /><radialGradient
     r="333.18735"
     fy="467.91885"
     fx="373.24265"
     cy="467.91885"
     cx="373.24265"
     gradientTransform="matrix(0.83393192,2.4025531e-7,-2.452288e-7,0.76469446,-575.89311,126.3946)"
     gradientUnits="userSpaceOnUse"
     id="radialGradient2894-5"
     xlink:href="#linearGradient5443-0"
     inkscape:collect="always" /><linearGradient
     y2="254.73526"
     x2="123.47623"
     y1="344.03848"
     x1="123.50603"
     gradientTransform="matrix(2.3189708,0,0,2.0930998,-543.56606,-225.82362)"
     gradientUnits="userSpaceOnUse"
     id="linearGradient2892-2"
     xlink:href="#linearGradient3187-1"
     inkscape:collect="always" /><radialGradient
     r="333.18735"
     fy="710.99164"
     fx="373.24265"
     cy="710.99164"
     cx="373.24265"
     gradientTransform="matrix(0.8612608,1.0093481e-7,-5.1010329e-8,0.29743416,-586.09339,395.79293)"
     gradientUnits="userSpaceOnUse"
     id="radialGradient2890-7"
     xlink:href="#linearGradient5443-0"
     inkscape:collect="always" /><linearGradient
     id="linearGradient5443-5-6"><stop
       style="stop-color:#ffffff;stop-opacity:0;"
       offset="0"
       id="stop5445-4-1" /><stop
       style="stop-color:#000000;stop-opacity:0.33962265;"
       offset="1"
       id="stop5447-3-4" /></linearGradient><radialGradient
     r="333.18735"
     fy="710.99164"
     fx="373.24265"
     cy="710.99164"
     cx="373.24265"
     gradientTransform="matrix(0.9503534,1.1750652e-7,-5.6287062e-8,0.3462676,317.80591,185.68771)"
     gradientUnits="userSpaceOnUse"
     id="radialGradient4835-3-2"
     xlink:href="#linearGradient5443-5-6"
     inkscape:collect="always" /><radialGradient
     r="333.18735"
     fy="710.99164"
     fx="373.24265"
     cy="710.99164"
     cx="373.24265"
     gradientTransform="matrix(0.8612608,1.0093481e-7,-5.1010329e-8,0.29743416,-586.09339,395.79293)"
     gradientUnits="userSpaceOnUse"
     id="radialGradient4835-2"
     xlink:href="#linearGradient5443-0"
     inkscape:collect="always" /><radialGradient
     r="333.18735"
     fy="467.91885"
     fx="373.24265"
     cy="467.91885"
     cx="373.24265"
     gradientTransform="matrix(0.83393192,2.4025531e-7,-2.452288e-7,0.76469446,-575.89311,126.3946)"
     gradientUnits="userSpaceOnUse"
     id="radialGradient4832-1"
     xlink:href="#linearGradient5443-0"
     inkscape:collect="always" /><linearGradient
     y2="254.73526"
     x2="123.47623"
     y1="344.03848"
     x1="123.50603"
     gradientTransform="matrix(2.3189708,0,0,2.0930998,-543.56606,-225.82362)"
     gradientUnits="userSpaceOnUse"
     id="linearGradient4827-6"
     xlink:href="#linearGradient3187-1"
     inkscape:collect="always" /><linearGradient
     y2="254.73526"
     x2="123.47623"
     y1="344.03848"
     x1="123.50603"
     gradientTransform="matrix(2.3189708,0,0,2.0930998,93.115298,-256.84999)"
     gradientUnits="userSpaceOnUse"
     id="linearGradient4824-8"
     xlink:href="#linearGradient3187-1"
     inkscape:collect="always" /><radialGradient
     r="333.18735"
     fy="467.91885"
     fx="373.24265"
     cy="467.91885"
     cx="373.24265"
     gradientTransform="matrix(0.9201975,2.7970099e-7,-2.7059634e-7,0.8902438,28.590287,48.634335)"
     gradientUnits="userSpaceOnUse"
     id="radialGradient4822-5"
     xlink:href="#linearGradient3171-6"
     inkscape:collect="always" /><radialGradient
     r="333.18735"
     fy="710.99164"
     fx="373.24265"
     cy="710.99164"
     cx="373.24265"
     gradientTransform="matrix(0.9503534,1.1750652e-7,-5.6287062e-8,0.3462676,17.334826,362.44227)"
     gradientUnits="userSpaceOnUse"
     id="radialGradient4820-7"
     xlink:href="#linearGradient3157-2"
     inkscape:collect="always" /><radialGradient
     r="333.18735"
     fy="710.99164"
     fx="373.24265"
     cy="710.99164"
     cx="373.24265"
     gradientTransform="matrix(0.9503534,1.1750652e-7,-5.6287062e-8,0.3462676,17.334826,362.44227)"
     gradientUnits="userSpaceOnUse"
     id="radialGradient4805-6"
     xlink:href="#linearGradient3157-2"
     inkscape:collect="always" /><radialGradient
     r="333.18735"
     fy="467.91885"
     fx="373.24265"
     cy="467.91885"
     cx="373.24265"
     gradientTransform="matrix(0.9201975,2.7970099e-7,-2.7059634e-7,0.8902438,28.590287,48.634335)"
     gradientUnits="userSpaceOnUse"
     id="radialGradient4802-1"
     xlink:href="#linearGradient3171-6"
     inkscape:collect="always" /><linearGradient
     y2="254.73526"
     x2="123.47623"
     y1="344.03848"
     x1="123.50603"
     gradientTransform="matrix(2.3189708,0,0,2.0930998,93.115298,-256.84999)"
     gradientUnits="userSpaceOnUse"
     id="linearGradient4799-8"
     xlink:href="#linearGradient3187-1"
     inkscape:collect="always" /><linearGradient
     y2="254.73526"
     x2="123.47623"
     y1="344.03848"
     x1="123.50603"
     gradientTransform="matrix(2.3189708,0,0,2.0930998,93.115298,-256.84999)"
     gradientUnits="userSpaceOnUse"
     id="linearGradient4794-9"
     xlink:href="#linearGradient3187-1"
     inkscape:collect="always" /><radialGradient
     r="333.18735"
     fy="467.91885"
     fx="373.24265"
     cy="467.91885"
     cx="373.24265"
     gradientTransform="matrix(0.9201975,2.7970099e-7,-2.7059634e-7,0.8902438,28.590287,48.634335)"
     gradientUnits="userSpaceOnUse"
     id="radialGradient4792-2"
     xlink:href="#linearGradient3171-6"
     inkscape:collect="always" /><radialGradient
     r="333.18735"
     fy="710.99164"
     fx="373.24265"
     cy="710.99164"
     cx="373.24265"
     gradientTransform="matrix(0.9503534,1.1750652e-7,-5.6287062e-8,0.3462676,17.334826,362.44227)"
     gradientUnits="userSpaceOnUse"
     id="radialGradient4790-7"
     xlink:href="#linearGradient3157-2"
     inkscape:collect="always" /><radialGradient
     r="333.18735"
     fy="710.99164"
     fx="373.24265"
     cy="710.99164"
     cx="373.24265"
     gradientTransform="matrix(0.9503534,1.1750652e-7,-5.6287062e-8,0.3462676,17.334826,362.44227)"
     gradientUnits="userSpaceOnUse"
     id="radialGradient4779-9"
     xlink:href="#linearGradient3157-2"
     inkscape:collect="always" /><radialGradient
     r="333.18735"
     fy="467.91885"
     fx="373.24265"
     cy="467.91885"
     cx="373.24265"
     gradientTransform="matrix(0.9201975,2.7970099e-7,-2.7059634e-7,0.8902438,28.590287,48.634335)"
     gradientUnits="userSpaceOnUse"
     id="radialGradient4776-5"
     xlink:href="#linearGradient3171-6"
     inkscape:collect="always" /><linearGradient
     y2="254.73526"
     x2="123.47623"
     y1="344.03848"
     x1="123.50603"
     gradientTransform="matrix(2.3189708,0,0,2.0930998,93.115298,-256.84999)"
     gradientUnits="userSpaceOnUse"
     id="linearGradient4773-4"
     xlink:href="#linearGradient3187-1"
     inkscape:collect="always" /><linearGradient
     y2="254.73526"
     x2="123.47623"
     y1="344.03848"
     x1="123.50603"
     gradientTransform="matrix(2.3189708,0,0,2.0930998,93.115298,-256.84999)"
     gradientUnits="userSpaceOnUse"
     id="linearGradient4770-3"
     xlink:href="#linearGradient3187-1"
     inkscape:collect="always" /><radialGradient
     r="333.18735"
     fy="467.91885"
     fx="373.24265"
     cy="467.91885"
     cx="373.24265"
     gradientTransform="matrix(0.9201975,2.7970099e-7,-2.7059634e-7,0.8902438,28.590287,48.634335)"
     gradientUnits="userSpaceOnUse"
     id="radialGradient4768-1"
     xlink:href="#linearGradient3171-6"
     inkscape:collect="always" /><radialGradient
     r="333.18735"
     fy="710.99164"
     fx="373.24265"
     cy="710.99164"
     cx="373.24265"
     gradientTransform="matrix(0.9503534,1.1750652e-7,-5.6287062e-8,0.3462676,17.334826,362.44227)"
     gradientUnits="userSpaceOnUse"
     id="radialGradient4766-2"
     xlink:href="#linearGradient3157-2"
     inkscape:collect="always" /><radialGradient
     r="333.18735"
     fy="710.99164"
     fx="373.24265"
     cy="710.99164"
     cx="373.24265"
     gradientTransform="matrix(0.9503534,1.1750652e-7,-5.6287062e-8,0.3462676,17.334826,362.44227)"
     gradientUnits="userSpaceOnUse"
     id="radialGradient4572-4"
     xlink:href="#linearGradient3157-2"
     inkscape:collect="always" /><radialGradient
     r="333.18735"
     fy="467.91885"
     fx="373.24265"
     cy="467.91885"
     cx="373.24265"
     gradientTransform="matrix(0.9201975,2.7970099e-7,-2.7059634e-7,0.8902438,28.590287,48.634335)"
     gradientUnits="userSpaceOnUse"
     id="radialGradient4569-1"
     xlink:href="#linearGradient3171-6"
     inkscape:collect="always" /><linearGradient
     y2="254.73526"
     x2="123.47623"
     y1="344.03848"
     x1="123.50603"
     gradientTransform="matrix(2.3189708,0,0,2.0930998,93.115298,-256.84999)"
     gradientUnits="userSpaceOnUse"
     id="linearGradient4562-1"
     xlink:href="#linearGradient3187-1"
     inkscape:collect="always" /><linearGradient
     gradientUnits="userSpaceOnUse"
     y2="540.86719"
     x2="360.49777"
     y1="167.50403"
     x1="360.49777"
     id="linearGradient4401-3"
     xlink:href="#linearGradient4395-7"
     inkscape:collect="always" /><linearGradient
     gradientUnits="userSpaceOnUse"
     y2="655.4505"
     x2="396.91168"
     y1="298.59412"
     x1="371.42194"
     id="linearGradient4389-8"
     xlink:href="#linearGradient4383-4"
     inkscape:collect="always" /><inkscape:perspective
     id="perspective3214-7"
     inkscape:persp3d-origin="372.04724 : 350.78739 : 1"
     inkscape:vp_z="744.09448 : 526.18109 : 1"
     inkscape:vp_y="0 : 1000 : 0"
     inkscape:vp_x="0 : 526.18109 : 1"
     sodipodi:type="inkscape:persp3d" /><linearGradient
     id="linearGradient4383-4"><stop
       id="stop4385-2"
       offset="0"
       style="stop-color:#00037f;stop-opacity:1;" /><stop
       id="stop4387-7"
       offset="1"
       style="stop-color:#00037f;stop-opacity:0;" /></linearGradient><linearGradient
     id="linearGradient4395-7"><stop
       id="stop4397-9"
       offset="0"
       style="stop-color:#110084;stop-opacity:1;" /><stop
       id="stop4399-3"
       offset="1"
       style="stop-color:#a695ff;stop-opacity:1;" /></linearGradient><linearGradient
     id="linearGradient3187-1"><stop
       id="stop3189-9"
       offset="0"
       style="stop-color:#ffffff;stop-opacity:0.39622641;" /><stop
       id="stop3191-8"
       offset="1"
       style="stop-color:#000000;stop-opacity:1;" /></linearGradient><linearGradient
     id="linearGradient3171-6"><stop
       style="stop-color:#49bcff;stop-opacity:1;"
       offset="0"
       id="stop3173-5" /><stop
       style="stop-color:#494cdc;stop-opacity:1;"
       offset="1"
       id="stop3175-0" /></linearGradient><linearGradient
     id="linearGradient3157-2"><stop
       id="stop3159-8"
       offset="0"
       style="stop-color:#49bcff;stop-opacity:1;" /><stop
       id="stop3161-6"
       offset="1"
       style="stop-color:#494c96;stop-opacity:1;" /></linearGradient><linearGradient
     id="linearGradient5443-0"><stop
       style="stop-color:#ffffff;stop-opacity:0;"
       offset="0"
       id="stop5445-2" /><stop
       style="stop-color:#000000;stop-opacity:0.33962265;"
       offset="1"
       id="stop5447-4" /></linearGradient><radialGradient
     inkscape:collect="always"
     xlink:href="#linearGradient5443-0"
     id="radialGradient3234"
     gradientUnits="userSpaceOnUse"
     gradientTransform="matrix(0.8612608,1.0093481e-7,-5.1010329e-8,0.29743416,-586.09339,395.79293)"
     cx="373.24265"
     cy="710.99164"
     fx="373.24265"
     fy="710.99164"
     r="333.18735" /><linearGradient
     inkscape:collect="always"
     xlink:href="#linearGradient3187-1"
     id="linearGradient3236"
     gradientUnits="userSpaceOnUse"
     gradientTransform="matrix(2.3189708,0,0,2.0930998,-543.56606,-225.82362)"
     x1="123.50603"
     y1="344.03848"
     x2="123.47623"
     y2="254.73526" /><radialGradient
     inkscape:collect="always"
     xlink:href="#linearGradient5443-0"
     id="radialGradient3238"
     gradientUnits="userSpaceOnUse"
     gradientTransform="matrix(0.83393192,2.4025531e-7,-2.452288e-7,0.76469446,-575.89311,126.3946)"
     cx="373.24265"
     cy="467.91885"
     fx="373.24265"
     fy="467.91885"
     r="333.18735" /><radialGradient
     inkscape:collect="always"
     xlink:href="#linearGradient5443-0"
     id="radialGradient3254"
     gradientUnits="userSpaceOnUse"
     gradientTransform="matrix(0.8612608,1.0093481e-7,-5.1010329e-8,0.29743416,-586.09339,395.79293)"
     cx="373.24265"
     cy="710.99164"
     fx="373.24265"
     fy="710.99164"
     r="333.18735" /><linearGradient
     inkscape:collect="always"
     xlink:href="#linearGradient3187-1"
     id="linearGradient3256"
     gradientUnits="userSpaceOnUse"
     gradientTransform="matrix(2.3189708,0,0,2.0930998,-543.56606,-225.82362)"
     x1="123.50603"
     y1="344.03848"
     x2="123.47623"
     y2="254.73526" /><radialGradient
     inkscape:collect="always"
     xlink:href="#linearGradient5443-0"
     id="radialGradient3258"
     gradientUnits="userSpaceOnUse"
     gradientTransform="matrix(0.83393192,2.4025531e-7,-2.452288e-7,0.76469446,-575.89311,126.3946)"
     cx="373.24265"
     cy="467.91885"
     fx="373.24265"
     fy="467.91885"
     r="333.18735" /><radialGradient
     inkscape:collect="always"
     xlink:href="#linearGradient5443-0"
     id="radialGradient3270"
     gradientUnits="userSpaceOnUse"
     gradientTransform="matrix(0.83535069,2.5391116e-7,-2.4564601e-7,0.80815885,-821.89024,-331.16994)"
     cx="373.24265"
     cy="467.91885"
     fx="373.24265"
     fy="467.91885"
     r="333.18735" /><radialGradient
     inkscape:collect="always"
     xlink:href="#linearGradient5443-0"
     id="radialGradient3274"
     gradientUnits="userSpaceOnUse"
     gradientTransform="matrix(0.86272606,1.0667183e-7,-5.1097113e-8,0.31433999,-832.10787,-46.459305)"
     cx="373.24265"
     cy="710.99164"
     fx="373.24265"
     fy="710.99164"
     r="333.18735" /><linearGradient
     y2="254.73526"
     x2="123.47623"
     y1="344.03848"
     x1="123.50603"
     gradientTransform="matrix(2.3189708,0,0,2.0930998,-543.56606,-225.82362)"
     gradientUnits="userSpaceOnUse"
     id="linearGradient3422"
     xlink:href="#linearGradient3187"
     inkscape:collect="always" /><radialGradient
     r="333.18735"
     fy="710.99164"
     fx="373.24265"
     cy="710.99164"
     cx="373.24265"
     gradientTransform="matrix(0.86272606,1.0667183e-7,-5.1097113e-8,0.31433999,-736.19251,168.72353)"
     gradientUnits="userSpaceOnUse"
     id="radialGradient3416"
     xlink:href="#linearGradient5443"
     inkscape:collect="always" /><radialGradient
     r="333.18735"
     fy="467.91885"
     fx="373.24265"
     cy="467.91885"
     cx="373.24265"
     gradientTransform="matrix(0.83535069,2.5391116e-7,-2.4564601e-7,0.80815885,-725.97492,-115.98714)"
     gradientUnits="userSpaceOnUse"
     id="radialGradient3412"
     xlink:href="#linearGradient5443"
     inkscape:collect="always" /><radialGradient
     r="333.18735"
     fy="467.91885"
     fx="373.24265"
     cy="467.91885"
     cx="373.24265"
     gradientTransform="matrix(0.83393192,2.4025531e-7,-2.452288e-7,0.76469446,-575.89311,126.3946)"
     gradientUnits="userSpaceOnUse"
     id="radialGradient2894"
     xlink:href="#linearGradient5443"
     inkscape:collect="always" /><linearGradient
     y2="254.73526"
     x2="123.47623"
     y1="344.03848"
     x1="123.50603"
     gradientTransform="matrix(2.3189708,0,0,2.0930998,-543.56606,-225.82362)"
     gradientUnits="userSpaceOnUse"
     id="linearGradient2892"
     xlink:href="#linearGradient3187"
     inkscape:collect="always" /><radialGradient
     r="333.18735"
     fy="710.99164"
     fx="373.24265"
     cy="710.99164"
     cx="373.24265"
     gradientTransform="matrix(0.8612608,1.0093481e-7,-5.1010329e-8,0.29743416,-586.09339,395.79293)"
     gradientUnits="userSpaceOnUse"
     id="radialGradient2890"
     xlink:href="#linearGradient5443"
     inkscape:collect="always" /><linearGradient
     id="linearGradient5443-5"><stop
       style="stop-color:#ffffff;stop-opacity:0;"
       offset="0"
       id="stop5445-4" /><stop
       style="stop-color:#000000;stop-opacity:0.33962265;"
       offset="1"
       id="stop5447-3" /></linearGradient><radialGradient
     r="333.18735"
     fy="710.99164"
     fx="373.24265"
     cy="710.99164"
     cx="373.24265"
     gradientTransform="matrix(0.9503534,1.1750652e-7,-5.6287062e-8,0.3462676,317.80591,185.68771)"
     gradientUnits="userSpaceOnUse"
     id="radialGradient4835-3"
     xlink:href="#linearGradient5443-5"
     inkscape:collect="always" /><filter
     color-interpolation-filters="sRGB"
     id="filter5511"
     inkscape:collect="always"><feGaussianBlur
       id="feGaussianBlur5513"
       stdDeviation="3.2374974"
       inkscape:collect="always" /></filter><radialGradient
     r="333.18735"
     fy="710.99164"
     fx="373.24265"
     cy="710.99164"
     cx="373.24265"
     gradientTransform="matrix(0.8612608,1.0093481e-7,-5.1010329e-8,0.29743416,-586.09339,395.79293)"
     gradientUnits="userSpaceOnUse"
     id="radialGradient4835"
     xlink:href="#linearGradient5443"
     inkscape:collect="always" /><radialGradient
     r="333.18735"
     fy="467.91885"
     fx="373.24265"
     cy="467.91885"
     cx="373.24265"
     gradientTransform="matrix(0.83393192,2.4025531e-7,-2.452288e-7,0.76469446,-575.89311,126.3946)"
     gradientUnits="userSpaceOnUse"
     id="radialGradient4832"
     xlink:href="#linearGradient5443"
     inkscape:collect="always" /><linearGradient
     y2="254.73526"
     x2="123.47623"
     y1="344.03848"
     x1="123.50603"
     gradientTransform="matrix(2.3189708,0,0,2.0930998,-543.56606,-225.82362)"
     gradientUnits="userSpaceOnUse"
     id="linearGradient4827"
     xlink:href="#linearGradient3187"
     inkscape:collect="always" /><linearGradient
     y2="254.73526"
     x2="123.47623"
     y1="344.03848"
     x1="123.50603"
     gradientTransform="matrix(2.3189708,0,0,2.0930998,93.115298,-256.84999)"
     gradientUnits="userSpaceOnUse"
     id="linearGradient4824"
     xlink:href="#linearGradient3187"
     inkscape:collect="always" /><radialGradient
     r="333.18735"
     fy="467.91885"
     fx="373.24265"
     cy="467.91885"
     cx="373.24265"
     gradientTransform="matrix(0.9201975,2.7970099e-7,-2.7059634e-7,0.8902438,28.590287,48.634335)"
     gradientUnits="userSpaceOnUse"
     id="radialGradient4822"
     xlink:href="#linearGradient3171"
     inkscape:collect="always" /><radialGradient
     r="333.18735"
     fy="710.99164"
     fx="373.24265"
     cy="710.99164"
     cx="373.24265"
     gradientTransform="matrix(0.9503534,1.1750652e-7,-5.6287062e-8,0.3462676,17.334826,362.44227)"
     gradientUnits="userSpaceOnUse"
     id="radialGradient4820"
     xlink:href="#linearGradient3157"
     inkscape:collect="always" /><radialGradient
     r="333.18735"
     fy="710.99164"
     fx="373.24265"
     cy="710.99164"
     cx="373.24265"
     gradientTransform="matrix(0.9503534,1.1750652e-7,-5.6287062e-8,0.3462676,17.334826,362.44227)"
     gradientUnits="userSpaceOnUse"
     id="radialGradient4805"
     xlink:href="#linearGradient3157"
     inkscape:collect="always" /><radialGradient
     r="333.18735"
     fy="467.91885"
     fx="373.24265"
     cy="467.91885"
     cx="373.24265"
     gradientTransform="matrix(0.9201975,2.7970099e-7,-2.7059634e-7,0.8902438,28.590287,48.634335)"
     gradientUnits="userSpaceOnUse"
     id="radialGradient4802"
     xlink:href="#linearGradient3171"
     inkscape:collect="always" /><linearGradient
     y2="254.73526"
     x2="123.47623"
     y1="344.03848"
     x1="123.50603"
     gradientTransform="matrix(2.3189708,0,0,2.0930998,93.115298,-256.84999)"
     gradientUnits="userSpaceOnUse"
     id="linearGradient4799"
     xlink:href="#linearGradient3187"
     inkscape:collect="always" /><linearGradient
     y2="254.73526"
     x2="123.47623"
     y1="344.03848"
     x1="123.50603"
     gradientTransform="matrix(2.3189708,0,0,2.0930998,93.115298,-256.84999)"
     gradientUnits="userSpaceOnUse"
     id="linearGradient4794"
     xlink:href="#linearGradient3187"
     inkscape:collect="always" /><radialGradient
     r="333.18735"
     fy="467.91885"
     fx="373.24265"
     cy="467.91885"
     cx="373.24265"
     gradientTransform="matrix(0.9201975,2.7970099e-7,-2.7059634e-7,0.8902438,28.590287,48.634335)"
     gradientUnits="userSpaceOnUse"
     id="radialGradient4792"
     xlink:href="#linearGradient3171"
     inkscape:collect="always" /><radialGradient
     r="333.18735"
     fy="710.99164"
     fx="373.24265"
     cy="710.99164"
     cx="373.24265"
     gradientTransform="matrix(0.9503534,1.1750652e-7,-5.6287062e-8,0.3462676,17.334826,362.44227)"
     gradientUnits="userSpaceOnUse"
     id="radialGradient4790"
     xlink:href="#linearGradient3157"
     inkscape:collect="always" /><radialGradient
     r="333.18735"
     fy="710.99164"
     fx="373.24265"
     cy="710.99164"
     cx="373.24265"
     gradientTransform="matrix(0.9503534,1.1750652e-7,-5.6287062e-8,0.3462676,17.334826,362.44227)"
     gradientUnits="userSpaceOnUse"
     id="radialGradient4779"
     xlink:href="#linearGradient3157"
     inkscape:collect="always" /><radialGradient
     r="333.18735"
     fy="467.91885"
     fx="373.24265"
     cy="467.91885"
     cx="373.24265"
     gradientTransform="matrix(0.9201975,2.7970099e-7,-2.7059634e-7,0.8902438,28.590287,48.634335)"
     gradientUnits="userSpaceOnUse"
     id="radialGradient4776"
     xlink:href="#linearGradient3171"
     inkscape:collect="always" /><linearGradient
     y2="254.73526"
     x2="123.47623"
     y1="344.03848"
     x1="123.50603"
     gradientTransform="matrix(2.3189708,0,0,2.0930998,93.115298,-256.84999)"
     gradientUnits="userSpaceOnUse"
     id="linearGradient4773"
     xlink:href="#linearGradient3187"
     inkscape:collect="always" /><linearGradient
     y2="254.73526"
     x2="123.47623"
     y1="344.03848"
     x1="123.50603"
     gradientTransform="matrix(2.3189708,0,0,2.0930998,93.115298,-256.84999)"
     gradientUnits="userSpaceOnUse"
     id="linearGradient4770"
     xlink:href="#linearGradient3187"
     inkscape:collect="always" /><radialGradient
     r="333.18735"
     fy="467.91885"
     fx="373.24265"
     cy="467.91885"
     cx="373.24265"
     gradientTransform="matrix(0.9201975,2.7970099e-7,-2.7059634e-7,0.8902438,28.590287,48.634335)"
     gradientUnits="userSpaceOnUse"
     id="radialGradient4768"
     xlink:href="#linearGradient3171"
     inkscape:collect="always" /><radialGradient
     r="333.18735"
     fy="710.99164"
     fx="373.24265"
     cy="710.99164"
     cx="373.24265"
     gradientTransform="matrix(0.9503534,1.1750652e-7,-5.6287062e-8,0.3462676,17.334826,362.44227)"
     gradientUnits="userSpaceOnUse"
     id="radialGradient4766"
     xlink:href="#linearGradient3157"
     inkscape:collect="always" /><filter
     color-interpolation-filters="sRGB"
     id="filter4659"
     inkscape:collect="always"><feGaussianBlur
       id="feGaussianBlur4661"
       stdDeviation="2.7750933"
       inkscape:collect="always" /></filter><radialGradient
     r="333.18735"
     fy="710.99164"
     fx="373.24265"
     cy="710.99164"
     cx="373.24265"
     gradientTransform="matrix(0.9503534,1.1750652e-7,-5.6287062e-8,0.3462676,17.334826,362.44227)"
     gradientUnits="userSpaceOnUse"
     id="radialGradient4572"
     xlink:href="#linearGradient3157"
     inkscape:collect="always" /><radialGradient
     r="333.18735"
     fy="467.91885"
     fx="373.24265"
     cy="467.91885"
     cx="373.24265"
     gradientTransform="matrix(0.9201975,2.7970099e-7,-2.7059634e-7,0.8902438,28.590287,48.634335)"
     gradientUnits="userSpaceOnUse"
     id="radialGradient4569"
     xlink:href="#linearGradient3171"
     inkscape:collect="always" /><linearGradient
     y2="254.73526"
     x2="123.47623"
     y1="344.03848"
     x1="123.50603"
     gradientTransform="matrix(2.3189708,0,0,2.0930998,93.115298,-256.84999)"
     gradientUnits="userSpaceOnUse"
     id="linearGradient4562"
     xlink:href="#linearGradient3187"
     inkscape:collect="always" /><linearGradient
     gradientUnits="userSpaceOnUse"
     y2="540.86719"
     x2="360.49777"
     y1="167.50403"
     x1="360.49777"
     id="linearGradient4401"
     xlink:href="#linearGradient4395"
     inkscape:collect="always" /><linearGradient
     gradientUnits="userSpaceOnUse"
     y2="655.4505"
     x2="396.91168"
     y1="298.59412"
     x1="371.42194"
     id="linearGradient4389"
     xlink:href="#linearGradient4383"
     inkscape:collect="always" /><inkscape:perspective
     id="perspective3214"
     inkscape:persp3d-origin="372.04724 : 350.78739 : 1"
     inkscape:vp_z="744.09448 : 526.18109 : 1"
     inkscape:vp_y="0 : 1000 : 0"
     inkscape:vp_x="0 : 526.18109 : 1"
     sodipodi:type="inkscape:persp3d" /><linearGradient
     id="linearGradient4383"><stop
       id="stop4385"
       offset="0"
       style="stop-color:#00037f;stop-opacity:1;" /><stop
       id="stop4387"
       offset="1"
       style="stop-color:#00037f;stop-opacity:0;" /></linearGradient><linearGradient
     id="linearGradient4395"><stop
       id="stop4397"
       offset="0"
       style="stop-color:#110084;stop-opacity:1;" /><stop
       id="stop4399"
       offset="1"
       style="stop-color:#a695ff;stop-opacity:1;" /></linearGradient><linearGradient
     id="linearGradient3187"><stop
       id="stop3189"
       offset="0"
       style="stop-color:#ffffff;stop-opacity:0.39622641;" /><stop
       id="stop3191"
       offset="1"
       style="stop-color:#9e9e9e;stop-opacity:1;" /></linearGradient><linearGradient
     id="linearGradient3171"><stop
       style="stop-color:#49bcff;stop-opacity:1;"
       offset="0"
       id="stop3173" /><stop
       style="stop-color:#494cdc;stop-opacity:1;"
       offset="1"
       id="stop3175" /></linearGradient><linearGradient
     id="linearGradient3157"><stop
       id="stop3159"
       offset="0"
       style="stop-color:#49bcff;stop-opacity:1;" /><stop
       id="stop3161"
       offset="1"
       style="stop-color:#494c96;stop-opacity:1;" /></linearGradient><linearGradient
     id="linearGradient5443"><stop
       style="stop-color:#ffffff;stop-opacity:0;"
       offset="0"
       id="stop5445" /><stop
       style="stop-color:#cbcac8;stop-opacity:1;"
       offset="1"
       id="stop5447" /></linearGradient><radialGradient
     inkscape:collect="always"
     xlink:href="#linearGradient5443"
     id="radialGradient3253"
     gradientUnits="userSpaceOnUse"
     gradientTransform="matrix(0.8612608,1.0093481e-7,-5.1010329e-8,0.29743416,-586.09339,395.79293)"
     cx="373.24265"
     cy="710.99164"
     fx="373.24265"
     fy="710.99164"
     r="333.18735" /><linearGradient
     inkscape:collect="always"
     xlink:href="#linearGradient3187"
     id="linearGradient3255"
     gradientUnits="userSpaceOnUse"
     gradientTransform="matrix(2.3189708,0,0,2.0930998,-543.56606,-225.82362)"
     x1="123.50603"
     y1="344.03848"
     x2="123.47623"
     y2="254.73526" /><radialGradient
     inkscape:collect="always"
     xlink:href="#linearGradient5443"
     id="radialGradient3257"
     gradientUnits="userSpaceOnUse"
     gradientTransform="matrix(0.83393192,2.4025531e-7,-2.452288e-7,0.76469446,-575.89311,126.3946)"
     cx="373.24265"
     cy="467.91885"
     fx="373.24265"
     fy="467.91885"
     r="333.18735" /><radialGradient
     inkscape:collect="always"
     xlink:href="#linearGradient5443"
     id="radialGradient3273"
     gradientUnits="userSpaceOnUse"
     gradientTransform="matrix(0.8612608,1.0093481e-7,-5.1010329e-8,0.29743416,-586.09339,395.79293)"
     cx="373.24265"
     cy="710.99164"
     fx="373.24265"
     fy="710.99164"
     r="333.18735" /><linearGradient
     inkscape:collect="always"
     xlink:href="#linearGradient3187"
     id="linearGradient3275"
     gradientUnits="userSpaceOnUse"
     gradientTransform="matrix(2.3189708,0,0,2.0930998,-543.56606,-225.82362)"
     x1="123.50603"
     y1="344.03848"
     x2="123.47623"
     y2="254.73526" /><radialGradient
     inkscape:collect="always"
     xlink:href="#linearGradient5443"
     id="radialGradient3277"
     gradientUnits="userSpaceOnUse"
     gradientTransform="matrix(0.83393192,2.4025531e-7,-2.452288e-7,0.76469446,-575.89311,126.3946)"
     cx="373.24265"
     cy="467.91885"
     fx="373.24265"
     fy="467.91885"
     r="333.18735" /><radialGradient
     inkscape:collect="always"
     xlink:href="#linearGradient5443"
     id="radialGradient4780"
     gradientUnits="userSpaceOnUse"
     gradientTransform="matrix(0.86272606,1.0667183e-7,-5.1097113e-8,0.31433999,-736.19251,168.72353)"
     cx="373.24265"
     cy="710.99164"
     fx="373.24265"
     fy="710.99164"
     r="333.18735" /><linearGradient
     inkscape:collect="always"
     xlink:href="#linearGradient3187"
     id="linearGradient4782"
     gradientUnits="userSpaceOnUse"
     gradientTransform="matrix(2.3189708,0,0,2.0930998,-543.56606,-225.82362)"
     x1="123.50603"
     y1="344.03848"
     x2="123.47623"
     y2="254.73526" /><radialGradient
     inkscape:collect="always"
     xlink:href="#linearGradient5443"
     id="radialGradient4784"
     gradientUnits="userSpaceOnUse"
     gradientTransform="matrix(0.83535069,2.5391116e-7,-2.4564601e-7,0.80815885,-725.97492,-115.98714)"
     cx="373.24265"
     cy="467.91885"
     fx="373.24265"
     fy="467.91885"
     r="333.18735" /></defs><sodipodi:namedview
   pagecolor="#ffffff"
   bordercolor="#666666"
   borderopacity="1"
   objecttolerance="10"
   gridtolerance="10"
   guidetolerance="10"
   inkscape:pageopacity="0"
   inkscape:pageshadow="2"
   inkscape:window-width="1920"
   inkscape:window-height="1031"
   id="namedview117"
   showgrid="false"
   fit-margin-top="0"
   fit-margin-left="0"
   fit-margin-right="0"
   fit-margin-bottom="0"
   inkscape:zoom="0.2979798"
   inkscape:cx="899.47187"
   inkscape:cy="-701.02133"
   inkscape:window-x="-4"
   inkscape:window-y="-4"
   inkscape:window-maximized="1"
   inkscape:current-layer="_x31_" />





































<g
   id="g4765"
   transform="translate(-4.0524846e-6,1.5294449e-7)"><g
     transform="translate(589.18636,-87.165827)"
     id="g4448"><rect
       transform="matrix(2.1051501,0,0,2.1051501,-860.18934,-1.2010596)"
       ry="12.45238"
       rx="16.067965"
       y="48.636749"
       x="135.39355"
       height="152.93848"
       width="152.93848"
       id="rect4192"
       style="fill:#cccccc;fill-opacity:1;stroke:none;filter:url(#filter4659)"
       inkscape:export-filename="C:\Documents and Settings\adscro24\Desktop\128.png"
       inkscape:export-xdpi="29.879425"
       inkscape:export-ydpi="29.879425" /><rect
       inkscape:export-ydpi="29.879425"
       inkscape:export-xdpi="29.879425"
       inkscape:export-filename="C:\Documents and Settings\adscro24\Desktop\128.png"
       style="fill:#cbcac8;fill-opacity:1;stroke:none;filter:url(#filter4659)"
       id="rect3279"
       width="152.93848"
       height="152.93848"
       x="135.39355"
       y="48.636749"
       rx="16.067965"
       ry="12.45238"
       transform="matrix(2.1051501,0,0,2.1051501,-860.18934,-1.2010596)" /><rect
       inkscape:export-ydpi="29.879425"
       inkscape:export-xdpi="29.879425"
       inkscape:export-filename="C:\Documents and Settings\adscro24\Desktop\128.png"
       style="opacity:0.61338286;fill:url(#radialGradient4780);fill-opacity:1;stroke:#000000;stroke-width:3.26806188;stroke-miterlimit:4;stroke-opacity:1;stroke-dasharray:none"
       id="rect3155"
       width="321.95847"
       height="321.95844"
       x="-575.16559"
       y="101.18661"
       rx="33.825478"
       ry="26.214128" /><path
       transform="matrix(0.907795,0,0,0.90779498,-173.95283,-177.39738)"
       inkscape:export-ydpi="29.879425"
       inkscape:export-xdpi="29.879425"
       inkscape:export-filename="C:\Documents and Settings\adscro24\Desktop\128.png"
       inkscape:connector-curvature="0"
       style="opacity:0.61338286;fill:url(#linearGradient4782);fill-opacity:1;stroke:none;filter:url(#filter5511)"
       d="m -397.80626,329.07489 c -19.62748,0 -35.44272,12.0976 -35.44272,27.14163 l 0,124.30857 c 29.25482,11.38638 132.70149,11.89599 165.40488,-5.79022 33.32802,-18.02397 127.54379,-68.44264 171.824837,-52.72052 l 0,-65.79783 c 0,-15.04403 -15.798597,-27.14163 -35.426097,-27.14163 l -266.3609,0 z m -35.44272,263.47103 0,42.88373 c 0,1.33144 0.14331,2.63588 0.38253,3.915 -0.11919,-12.81092 -0.25965,-28.88939 -0.38253,-46.79873 z"
       id="rect3177" /><rect
       inkscape:export-ydpi="29.879425"
       inkscape:export-xdpi="29.879425"
       inkscape:export-filename="C:\Documents and Settings\adscro24\Desktop\128.png"
       style="opacity:0.61338286;fill:url(#radialGradient4784);fill-opacity:1;stroke:#ffffff;stroke-width:0.68992418;stroke-linecap:square;stroke-miterlimit:4;stroke-opacity:1;stroke-dasharray:none"
       id="rect3473"
       width="306.12445"
       height="306.12445"
       x="-567.2486"
       y="109.1036"
       rx="32.161926"
       ry="24.924911" /><rect
       inkscape:export-ydpi="29.879425"
       inkscape:export-xdpi="29.879425"
       inkscape:export-filename="C:\Documents and Settings\adscro24\Desktop\128.png"
       style="opacity:0.61338286;fill:#ffffff;fill-opacity:0;stroke:#000000;stroke-width:3.26806188;stroke-miterlimit:4;stroke-opacity:1;stroke-dasharray:none"
       id="rect3155-2"
       width="321.95847"
       height="321.95844"
       x="-575.16559"
       y="101.18661"
       rx="33.825478"
       ry="26.214128" /></g><g
     transform="translate(358.29183,-87.165827)"
     id="LWPOLYLINE_2_-4">
	
		
</g><g
     transform="translate(358.29183,-87.165827)"
     id="LWPOLYLINE_3_-8">
	
		
</g><g
     transform="translate(358.29183,-87.165827)"
     id="LWPOLYLINE_4_-8">
	
		
</g><g
     transform="translate(184.65055,-351.95215)"
     style="fill:#000000;fill-opacity:1;stroke:none"
     id="LWPOLYLINE_6_-7">
	
		
</g><g
     transform="translate(184.65055,-351.95215)"
     style="fill:#000000;fill-opacity:1;stroke:none"
     id="LWPOLYLINE-4">
	
		
</g><g
     transform="translate(184.65055,-351.95215)"
     style="fill:#000000;fill-opacity:1;stroke:none"
     id="LWPOLYLINE_3_-0">
	
		
</g></g><g
   id="g3898"
   transform="matrix(0.5,0,0,0.5,21.749996,-22.999979)"><g
     style="fill:#000000;fill-opacity:1;stroke:none"
     id="LWPOLYLINE_1_">
	
		<path
   id="path7"
   d="m 164.46875,402.875 c -0.189,0.17 -0.1875,0.71875 -0.1875,0.71875 l 0,0.875 0,1.1875 0,1.53125 0,1.75 0,2.0625 0,2.28125 0,2.53125 0,2.6875 0,2.90625 0,3.0625 0,3.25 0,3.3125 0,3.5 0,3.53125 0,3.625 0,3.71875 0,3.71875 0,3.75 0,3.75 0,3.71875 0,3.6875 0,3.625 0,3.59375 0,3.4375 0,3.375 0,3.1875 0,3.0625 0,2.90625 0,2.75 0,2.46875 0,2.34375 0,2 0,1.78125 0,1.5 0,1.1875 0,0.875 0,0.5625 c -0.003,0.239 12.0625,0.21875 12.0625,0.21875 l 0,-0.3125 0,-0.375 0,-0.5625 0,-0.625 0,-0.8125 0,-0.875 0,-1 0,-1.09375 0,-1.25 0,-1.25 0,-1.34375 0,-1.4375 0,-1.46875 0,-1.53125 0,-1.53125 0,-1.625 0,-1.625 0,-1.65625 0,-1.625 0,-1.65625 0,-1.625 0,-1.625 0,-1.59375 0,-1.5625 0,-1.53125 0,-1.5 0,-1.375 0,-1.34375 0,-1.3125 0,-1.1875 0,-1.09375 0,-1 0,-0.9375 0,-0.75 0,-0.65625 0,-0.53125 0,-0.375 0,-0.25 c 0.126,-0.084 0.25,-0.0937 0.25,-0.0937 l 0.4375,0 0.28125,0 0.34375,0 0.375,0 0.4375,0 0.4375,0 0.46875,0 0.5,0 0.53125,0 0.53125,0 0.5625,0 0.59375,0 0.59375,0 0.625,0 0.59375,0 0.625,0 0.59375,0 0.625,0 0.59375,0 0.59375,0 0.59375,0 0.5625,0 0.5625,0 0.5,0 0.53125,0 0.46875,0 0.4375,0 0.40625,0 0.375,0 0.34375,0 0.28125,0 0.25,0 0.34375,0 0.90625,0 0.8125,-0.0312 0.84375,-0.0312 L 196,458.75 l 0.875,-0.0937 0.875,-0.125 0.875,-0.15625 0.90625,-0.15625 0.9375,-0.21875 0.90625,-0.21875 0.9375,-0.28125 0.90625,-0.3125 0.9375,-0.34375 0.9375,-0.3125 0.90625,-0.4375 0.90625,-0.40625 0.875,-0.5 0.875,-0.53125 0.875,-0.53125 0.84375,-0.59375 0.84375,-0.625 0.8125,-0.6875 0.78125,-0.71875 0.75,-0.78125 0.75,-0.8125 0.6875,-0.84375 0.65625,-0.90625 0.65625,-0.96875 0.5625,-1.03125 0.5625,-1.0625 0.53125,-1.125 0.46875,-1.1875 0.40625,-1.21875 0.375,-1.25 0.3125,-1.34375 0.28125,-1.4375 0.21875,-1.4375 0.125,-1.5 0.0937,-1.625 0.0312,-1.625 0,-1.71875 -0.0937,-1.65625 -0.125,-1.59375 -0.1875,-1.53125 -0.21875,-1.40625 -0.28125,-1.40625 -0.34375,-1.34375 -0.34375,-1.25 -0.4375,-1.21875 -0.4375,-1.15625 -0.5,-1.09375 -0.53125,-1.0625 -0.5625,-1 -0.625,-0.9375 -0.625,-0.875 -0.65625,-0.84375 -0.71875,-0.78125 -0.71875,-0.78125 -0.75,-0.65625 -0.78125,-0.6875 -0.78125,-0.59375 -0.84375,-0.5625 -0.84375,-0.53125 -0.875,-0.5 -0.875,-0.40625 -0.90625,-0.4375 -0.90625,-0.375 -0.9375,-0.34375 -0.9375,-0.28125 -0.96875,-0.25 -0.9375,-0.25 -0.96875,-0.21875 -1,-0.15625 -0.96875,-0.1875 -0.96875,-0.125 -1,-0.0625 -0.96875,-0.0937 -1,-0.0625 -0.96875,-0.0312 -0.96875,0 -0.4375,0 -0.375,0 -0.40625,0 -0.53125,0 -0.5625,0 -0.65625,0 -0.71875,0 -0.75,0 -0.84375,0 -0.875,0 -0.90625,0 -0.96875,0 -0.96875,0 -1,0 -1.0625,0 -1.0625,0 -1.03125,0 -1.09375,0 -1.03125,0 -1.09375,0 -1.03125,0 -1.03125,0 -1.03125,0 -0.96875,0 -0.96875,0 -0.90625,0 -0.875,0 -0.8125,0 -0.78125,0 -0.71875,0 -0.65625,0 -0.5625,0 -0.5,0 -0.4375,0 -0.34375,0 -0.25,0 z m 11.875,11.21875 0.25,0 0.46875,0 0.3125,0 0.375,0 0.375,0 0.4375,0 0.46875,0 0.5,0 0.53125,0 0.53125,0 0.59375,0 0.59375,0 0.625,0 0.625,0 0.625,0 0.65625,0 0.65625,0 0.625,0 0.65625,0 0.625,0 0.625,0 0.625,0 0.59375,0 0.5625,0 0.5625,0 0.53125,0 0.5,0 0.46875,0 0.4375,0 0.40625,0 0.34375,0 0.3125,0 0.25,0 0.34375,0 0.34375,0 0.25,0 0.25,0.0625 0.28125,0.0312 0.34375,0.0312 0.34375,0.0625 0.34375,0.0312 0.40625,0.0937 0.40625,0.0625 0.40625,0.125 0.4375,0.125 0.4375,0.125 0.46875,0.1875 0.4375,0.21875 0.5,0.15625 0.4375,0.25 0.5,0.25 0.46875,0.25 0.46875,0.3125 0.46875,0.3125 0.46875,0.34375 0.46875,0.4375 0.4375,0.375 0.4375,0.46875 0.4375,0.4375 0.40625,0.53125 0.40625,0.53125 0.375,0.59375 0.34375,0.59375 0.34375,0.65625 0.3125,0.6875 0.28125,0.71875 0.28125,0.75 0.25,0.8125 0.1875,0.84375 0.1875,0.90625 0.125,0.9375 0.0937,0.96875 0.0625,1.0625 0.0312,1.03125 -0.0312,1.15625 -0.0937,1.09375 -0.0937,1.03125 -0.15625,0.96875 -0.1875,0.96875 -0.1875,0.90625 -0.28125,0.84375 -0.28125,0.78125 -0.3125,0.8125 -0.375,0.71875 -0.375,0.65625 -0.375,0.65625 -0.4375,0.625 -0.4375,0.53125 -0.5,0.5625 -0.46875,0.5 -0.5,0.46875 -0.53125,0.40625 -0.53125,0.375 -0.53125,0.40625 -0.5625,0.3125 -0.5625,0.34375 -0.5625,0.28125 -0.5625,0.28125 -0.59375,0.1875 -0.5625,0.21875 -0.59375,0.21875 -0.5625,0.15625 -0.5625,0.1875 -0.5625,0.125 -0.5625,0.0625 -0.53125,0.125 -0.53125,0.0937 -0.53125,0.0312 -0.5,0.0625 -0.46875,0.0312 -0.46875,0.0312 -0.4375,0 -0.46875,0.0625 -0.375,0 -0.21875,0 -0.375,0 -0.25,0 -0.28125,0 -0.3125,0 -0.34375,0 -0.375,0 -0.40625,0 -0.40625,0 -0.4375,0 -0.46875,0 -0.5,0 -0.46875,0 -0.5,0 -0.5,0 -0.53125,0 -0.5,0 -0.53125,0 -0.5,0 -0.53125,0 -0.5,0 -0.5,0 -0.46875,0 -0.46875,0 -0.4375,0 -0.4375,0 -0.40625,0 -0.34375,0 -0.375,0 -0.3125,0 -0.25,0 -0.25,0 -0.375,0 -0.21875,0 0,-33.65625 z"
   style="fill:#000000;fill-opacity:1;stroke:none"
   inkscape:connector-curvature="0" />
</g><g
     style="fill:#000000;fill-opacity:1;stroke:none"
     id="LWPOLYLINE_7_">
	
		<path
   id="path25"
   d="m 130,544.28125 c -0.21,0.025 -0.21875,100 -0.21875,100 l 0.34375,0 0.25,0 0.3125,0 0.40625,0 0.4375,0 0.5,0 0.53125,0 0.59375,0 0.625,0 0.65625,0 0.6875,0 0.71875,0 0.75,0 0.78125,0 0.78125,0 0.78125,0 0.8125,0 0.8125,0 0.8125,0 0.78125,0 0.8125,0 0.78125,0 0.75,0 0.75,0 0.71875,0 0.71875,0 0.65625,0 0.625,0 0.59375,0 0.53125,0 0.5,0 0.4375,0 0.375,0 0.3125,0 0.28125,0 0.28125,0 1.3125,0 1.28125,-0.0625 1.21875,-0.0312 1.1875,-0.0312 1.1875,-0.0937 1.15625,-0.0937 1.125,-0.0625 1.125,-0.125 1.0625,-0.125 1.0625,-0.1875 1.03125,-0.15625 1,-0.1875 1,-0.1875 0.9375,-0.21875 0.9375,-0.25 0.90625,-0.25 0.875,-0.25 0.90625,-0.3125 0.84375,-0.28125 0.78125,-0.34375 0.8125,-0.28125 0.78125,-0.40625 0.75,-0.3125 0.75,-0.375 0.6875,-0.4375 0.6875,-0.40625 0.65625,-0.4375 0.65625,-0.40625 0.59375,-0.46875 0.625,-0.5 0.59375,-0.46875 0.53125,-0.5 0.5625,-0.5625 0.5,-0.53125 0.5,-0.5625 0.46875,-0.59375 0.46875,-0.59375 0.4375,-0.5625 0.40625,-0.65625 0.40625,-0.625 0.3125,-0.5 0.3125,-0.5625 0.3125,-0.5625 0.28125,-0.59375 0.28125,-0.59375 0.28125,-0.625 0.25,-0.6875 0.25,-0.65625 0.25,-0.6875 0.21875,-0.71875 0.25,-0.75 0.1875,-0.75 0.21875,-0.8125 0.1875,-0.84375 0.1875,-0.84375 0.1875,-0.84375 0.1875,-0.875 0.15625,-0.9375 0.15625,-0.96875 0.15625,-0.96875 0.15625,-0.96875 0.125,-1.03125 0.125,-1.0625 0.0937,-1.09375 0.125,-1.09375 0.125,-1.15625 0.0625,-1.15625 0.0937,-1.21875 0.0937,-1.21875 0.0625,-1.28125 0.0625,-1.3125 0.0625,-1.34375 0.0625,-1.34375 0.0312,-1.375 0.0312,-1.4375 0.0312,-1.46875 0.0312,-1.5 0,-1.5 0,-1.59375 0,-1.59375 0,-0.25 0,-0.40625 0,-0.375 0,-0.46875 -0.0312,-0.5 -0.0312,-0.53125 0,-0.625 L 190,587 l -0.0312,-0.65625 -0.0625,-0.71875 -0.0312,-0.75 -0.0312,-0.8125 -0.0625,-0.84375 -0.0625,-0.84375 -0.0625,-0.84375 -0.0625,-0.875 -0.0625,-0.9375 -0.0937,-0.90625 -0.0937,-0.9375 -0.0937,-0.96875 -0.0937,-0.9375 -0.0937,-0.96875 -0.125,-0.96875 -0.125,-0.96875 -0.125,-0.96875 -0.125,-0.96875 -0.15625,-0.90625 -0.15625,-0.96875 -0.125,-0.9375 -0.1875,-0.875 -0.1875,-0.9375 -0.15625,-0.84375 -0.1875,-0.84375 -0.21875,-0.84375 -0.21875,-0.78125 -0.21875,-0.78125 -0.21875,-0.6875 -0.21875,-0.6875 -0.25,-0.625 -0.25,-0.625 -0.40625,-0.8125 -0.375,-0.84375 -0.4375,-0.75 -0.4375,-0.75 -0.4375,-0.71875 -0.46875,-0.71875 -0.46875,-0.6875 -0.5,-0.625 -0.5,-0.625 -0.5,-0.625 -0.53125,-0.59375 -0.5625,-0.5625 -0.53125,-0.53125 -0.5625,-0.5 -0.59375,-0.46875 -0.625,-0.53125 -0.59375,-0.40625 -0.625,-0.40625 -0.65625,-0.4375 -0.625,-0.375 -0.6875,-0.375 -0.6875,-0.34375 -0.6875,-0.28125 -0.71875,-0.3125 -0.71875,-0.28125 -0.75,-0.25 -0.78125,-0.25 -0.75,-0.21875 -0.8125,-0.21875 L 168,545.125 l -0.8125,-0.1875 -0.84375,-0.15625 -0.84375,-0.125 -0.875,-0.0937 -0.875,-0.125 -0.90625,-0.0312 -0.90625,-0.0937 -0.9375,-0.0312 -0.9375,0 -0.96875,0 -0.46875,0 -0.34375,0 -0.4375,0 -0.53125,0 -0.59375,0 -0.6875,0 -0.71875,0 -0.8125,0 -0.84375,0 -0.90625,0 -0.9375,0 -1,0 -1,0 -1.03125,0 -1.0625,0 -1.09375,0 -1.09375,0 -1.09375,0 -1.125,0 -1.09375,0 -1.0625,0 -1.0625,0 -1.03125,0 -1.03125,0 -0.96875,0 -0.9375,0 -0.90625,0 -0.84375,0 -0.8125,0 -0.75,0 -0.65625,0 -0.59375,0 -0.53125,0 -0.4375,0 -0.34375,0 -0.25,0 z m 11.84375,11.21875 0.25,0 0.46875,0 0.28125,0 0.34375,0 0.375,0 0.40625,0 0.4375,0 0.46875,0 0.53125,0 0.5,0 0.5625,0 0.5625,0 0.59375,0 0.59375,0 0.59375,0 0.625,0 0.59375,0 0.625,0 0.59375,0 0.625,0 0.59375,0 0.59375,0 0.5625,0 0.53125,0 0.53125,0 0.5,0 0.46875,0 0.4375,0 0.4375,0 0.375,0 0.34375,0 0.25,0 0.25,0 0.34375,0 1.09375,0 0.9375,0.0312 0.90625,0.0937 0.84375,0.0937 0.875,0.125 0.8125,0.125 0.84375,0.1875 0.75,0.21875 0.75,0.25 0.75,0.25 0.6875,0.3125 0.65625,0.34375 0.6875,0.375 0.59375,0.40625 0.625,0.46875 0.59375,0.46875 0.53125,0.5 0.53125,0.53125 0.5,0.59375 0.5,0.65625 0.46875,0.65625 0.40625,0.71875 0.4375,0.71875 0.375,0.8125 0.34375,0.8125 0.34375,0.84375 0.3125,0.9375 0.28125,0.96875 0.28125,1 0.25,1.03125 0.1875,1.09375 0.1875,1.125 0.1875,1.1875 0.15625,1.25 0.125,1.28125 0.0937,1.28125 0.0937,1.40625 0.0625,1.4375 0,1.46875 0.0312,1.5 0,0.34375 0,0.21875 0,0.28125 0,0.375 0,0.40625 0,0.4375 0,0.53125 0,0.53125 0,0.5625 0,0.625 0,0.625 0,0.6875 0,0.65625 0,0.71875 0,0.71875 0,0.71875 0,0.75 0,0.75 0,0.71875 0,0.78125 0,0.6875 0,0.71875 0,0.71875 0,0.6875 0,0.65625 0,0.65625 0,0.625 0,0.59375 0,0.5 0,0.5 0,0.46875 0,0.40625 0,0.34375 0,0.28125 0,0.28125 0,0.25 c 0,0.043 -0.0312,1.75 -0.0312,1.75 l 0,1.65625 -0.0625,1.59375 -0.0937,1.5625 -0.0937,1.46875 -0.125,1.4375 -0.1875,1.34375 -0.15625,1.3125 -0.21875,1.25 -0.25,1.1875 -0.25,1.1875 -0.3125,1.09375 -0.3125,1.03125 -0.34375,0.96875 -0.375,0.96875 -0.40625,0.90625 -0.4375,0.875 -0.5,0.78125 -0.46875,0.78125 -0.5625,0.7189 -0.5625,0.65625 -0.59375,0.625 -0.625,0.59375 -0.65625,0.5625 -0.71875,0.5 -0.71875,0.46875 -0.78125,0.40625 -0.8125,0.4375 -0.84375,0.3125 -0.875,0.34375 -0.90625,0.3125 -0.9375,0.25 -1,0.1875 -1.03125,0.1875 -1.0625,0.15625 -1.125,0.125 -1.125,0.0937 -1.21875,0.0937 -1.21875,0.0312 -1.28125,0 -0.34375,0 -0.375,0 -0.25,0 -0.28125,0 -0.3125,0 -0.3125,0 -0.34375,0 -0.375,0 -0.375,0 -0.4375,0 -0.40625,0 -0.4375,0 -0.4375,0 -0.4375,0 -0.4375,0 -0.46875,0 -0.4375,0 -0.46875,0 -0.4375,0 -0.4375,0 -0.4375,0 -0.40625,0 -0.40625,0 -0.40625,0 -0.34375,0 -0.375,0 -0.3125,0 -0.3125,0 -0.28125,0 -0.21875,0 -0.21875,0 -0.3125,0 C 141.8705,633.0747 141.84375,555.5 141.84375,555.5 z"
   style="fill:#000000;fill-opacity:1;stroke:none"
   inkscape:connector-curvature="0" />
</g><g
     style="fill:#000000;fill-opacity:1;stroke:none"
     id="LWPOLYLINE">
	
		
</g><g
     style="fill:#000000;fill-opacity:1;stroke:none"
     id="LWPOLYLINE_2_">
	
		<path
   id="path10"
   d="m 259.21875,402.90625 c -0.126,-0.004 -31.15625,100 -31.15625,100 l 0.375,0 0.40625,0 0.25,0 0.3125,0 0.3125,0 0.375,0 0.34375,0 0.40625,0 0.40625,0 0.46875,0 0.4375,0 0.46875,0 0.4375,0 0.5,0 0.46875,0 0.5,0 0.46875,0 0.5,0 0.46875,0 0.46875,0 0.46875,0 0.4375,0 0.40625,0 0.4375,0 0.40625,0 0.375,0 0.34375,0 0.3125,0 0.3125,0 0.28125,0 0.21875,0 0.34375,0 c 0.211,0 0.21875,-0.0625 0.21875,-0.0625 0.042,-0.127 0.0937,-0.34375 0.0937,-0.34375 l 0.0937,-0.28125 0.125,-0.34375 0.125,-0.4375 0.1875,-0.5 0.15625,-0.53125 0.21875,-0.59375 0.1875,-0.6875 0.21875,-0.71875 0.25,-0.71875 0.25,-0.78125 0.25,-0.8125 0.28125,-0.84375 0.28125,-0.84375 0.28125,-0.875 0.28125,-0.875 0.3125,-0.9375 0.25,-0.875 0.3125,-0.9375 0.28125,-0.875 0.28125,-0.875 L 246,487.25 l 0.28125,-0.84375 0.28125,-0.84375 0.25,-0.84375 0.25,-0.75 0.21875,-0.75 0.25,-0.6875 0.21875,-0.65625 0.1875,-0.59375 0.1875,-0.5625 0.125,-0.5 0.15625,-0.40625 0.0937,-0.375 0.125,-0.3125 c 0.063,-0.211 0.0937,-0.34375 0.0937,-0.34375 C 248.80275,478.74025 249,478.75 249,478.75 l 0.34375,0 0.4375,0 0.53125,0 0.6875,0 0.75,0 0.84375,0 0.9375,0 1,0 1.0625,0 1.15625,0 1.1875,0 1.25,0 1.28125,0 1.3125,0 1.34375,0 1.375,0 1.375,0 1.375,0 1.40625,0 1.375,0 1.375,0 1.34375,0 1.34375,0 1.28125,0 1.21875,0 1.1875,0 1.15625,0 1.09375,0 1,0 0.9375,0 0.84375,0 0.75,0 0.65625,0 0.5625,0 0.40625,0 0.34375,0 0.25,0 c 0.084,0.168 0.125,0.375 0.125,0.375 l 0.0937,0.3125 0.125,0.375 0.0937,0.40625 0.15625,0.5 0.15625,0.5625 0.1875,0.59375 0.15625,0.65625 0.21875,0.6875 0.21875,0.75 0.1875,0.75 0.25,0.84375 0.21875,0.84375 0.25,0.84375 0.25,0.90625 0.25,0.875 0.28125,0.875 0.25,0.9375 0.28125,0.875 0.25,0.9375 0.25,0.875 0.25,0.875 0.21875,0.84375 0.25,0.84375 0.25,0.8125 0.21875,0.78125 0.21875,0.71875 0.1875,0.71875 0.1875,0.6875 0.15625,0.59375 0.1875,0.53125 0.125,0.5 0.125,0.4375 0.125,0.34375 0.0625,0.28125 c 0.042,0.211 0.0937,0.34375 0.0937,0.34375 0.127,0.084 0.25,0.0625 0.25,0.0625 l 0.375,0 0.25,0 0.34375,0 0.34375,0 0.34375,0 0.40625,0 0.4375,0 0.46875,0 0.4375,0 0.46875,0 0.5,0 0.5625,0 0.53125,0 0.53125,0 0.53125,0 0.5625,0 0.53125,0 0.5625,0 0.53125,0 0.5625,0 0.5,0 0.5,0 0.5,0 0.46875,0 0.46875,0 0.40625,0 0.4375,0 0.3125,0 0.34375,0 0.3125,0 0.28125,0 0.21875,0 0.28125,0 c 0.043,-0.211 -0.125,-0.75 -0.125,-0.75 l -0.28125,-0.875 -0.375,-1.1875 -0.46875,-1.5 -0.59375,-1.78125 -0.625,-2.03125 -0.71875,-2.3125 L 303.25,490 l -0.875,-2.75 -0.9375,-2.90625 -0.96875,-3.0625 -1.03125,-3.1875 -1.0625,-3.375 -1.09375,-3.4375 -1.125,-3.59375 -1.1875,-3.625 -1.1875,-3.6875 -1.1875,-3.71875 -1.15625,-3.75 -1.21875,-3.75 -1.1875,-3.75 -1.1875,-3.6875 -1.1875,-3.625 -1.125,-3.53125 -1.09375,-3.5 -1.0625,-3.3125 -1.03125,-3.25 -0.96875,-3.0625 -0.9375,-2.90625 -0.875,-2.6875 -0.78125,-2.53125 -0.75,-2.28125 -0.625,-2.0625 -0.5625,-1.78125 -0.5,-1.5 -0.375,-1.1875 -0.28125,-0.875 -0.1875,-0.5625 c -0.168,-0.17 -0.3125,-0.15625 -0.3125,-0.15625 l -0.4375,0 -0.28125,0 -0.34375,0 -0.375,0 -0.40625,0 -0.4375,0 -0.46875,0 -0.53125,0 -0.5,0 -0.5625,0 -0.5625,0 -0.5625,0 -0.625,0 -0.59375,0 -0.59375,0 -0.625,0 -0.625,0 -0.59375,0 -0.625,0 -0.59375,0 -0.59375,0 -0.5625,0 -0.53125,0 -0.53125,0 -0.5,0 -0.46875,0 -0.4375,0 -0.4375,0 -0.375,0 -0.3125,0 -0.28125,0 -0.25,0 -0.34375,0 z m 7.59375,12.15625 c 0.045,-0.072 15.5625,52.5 15.5625,52.5 l -0.25,0 -0.25,0 -0.375,0 -0.46875,0 -0.53125,0 -0.65625,0 -0.6875,0 -0.78125,0 -0.84375,0 -0.90625,0 -0.9375,0 -1.03125,0 -1.03125,0 -1.0625,0 -1.125,0 -1.125,0 -1.125,0 -1.15625,0 -1.1875,0 -1.15625,0 -1.15625,0 -1.15625,0 -1.09375,0 -1.125,0 -1.0625,0 -1.03125,0 -1.03125,0 -0.9375,0 -0.90625,0 -0.84375,0 -0.78125,0 -0.71875,0 -0.625,0 -0.53125,0 -0.46875,0 -0.375,0 -0.28125,0 -0.21875,0 c 0.021,-0.084 0.0937,-0.375 0.0937,-0.375 l 0.15625,-0.46875 0.1875,-0.625 0.21875,-0.8125 0.28125,-0.90625 0.3125,-1.09375 0.34375,-1.1875 0.40625,-1.3125 0.4375,-1.4375 0.4375,-1.5625 0.46875,-1.59375 0.5,-1.6875 0.5,-1.75 0.5625,-1.8125 0.5625,-1.90625 0.5625,-1.90625 0.5625,-1.90625 0.59375,-2 0.5625,-1.96875 0.59375,-1.96875 0.5625,-1.9375 0.59375,-1.9375 0.53125,-1.9375 0.5625,-1.875 0.53125,-1.8125 0.53125,-1.75 0.5,-1.71875 0.46875,-1.625 0.46875,-1.5 0.40625,-1.4375 0.40625,-1.34375 0.34375,-1.1875 0.3125,-1.09375 0.28125,-0.9375 0.21875,-0.75 0.1875,-0.625 0.125,-0.46875 0.0937,-0.28125 z"
   style="fill:#000000;fill-opacity:1;stroke:none"
   inkscape:connector-curvature="0" />
</g><g
     style="fill:#000000;fill-opacity:1;stroke:none"
     id="LWPOLYLINE_3_">
	
		
</g><g
     style="fill:#000000;fill-opacity:1;stroke:none"
     id="LWPOLYLINE_4_">
	
		<path
   style="fill:#000000;fill-opacity:1;stroke:none"
   id="path16"
   d="m 379.797,429.633 -0.042,-1.557 -0.042,-1.475 -0.084,-1.43 -0.126,-1.391 -0.169,-1.305 -0.21,-1.305 -0.211,-1.262 -0.295,-1.18 -0.294,-1.178 -0.337,-1.096 -0.379,-1.094 -0.421,-1.01 -0.463,-0.969 -0.506,-0.969 -0.505,-0.883 -0.589,-0.885 -0.59,-0.799 -0.674,-0.758 -0.673,-0.758 -0.716,-0.717 -0.758,-0.631 -0.8,-0.631 -0.842,-0.59 -0.884,-0.547 -0.927,-0.506 -0.968,-0.463 -1.01,-0.42 -1.011,-0.422 -1.095,-0.379 -1.137,-0.336 -1.136,-0.295 -1.221,-0.254 -1.221,-0.252 -1.306,-0.168 -1.305,-0.168 -1.347,-0.127 -1.432,-0.127 -1.431,-0.084 -1.516,-0.041 h -1.516 -1.508 l -1.516,0.084 -1.431,0.125 -1.432,0.127 -1.389,0.211 -1.347,0.252 -1.264,0.295 -1.263,0.295 -1.221,0.379 -1.221,0.42 -1.137,0.465 -1.094,0.504 -1.053,0.506 -1.053,0.59 -0.968,0.588 -0.968,0.674 -0.927,0.674 -0.842,0.758 -0.842,0.758 -0.8,0.799 -0.758,0.842 -0.716,0.885 -0.673,0.926 -0.632,0.926 -0.631,1.012 -0.548,1.01 -0.505,1.053 -0.505,1.094 -0.464,1.137 -0.378,1.178 -0.379,1.18 -0.337,1.221 -0.295,1.262 -0.253,1.264 -0.21,1.348 -0.169,1.346 -0.126,1.391 -0.084,1.389 -0.084,1.473 v 1.473 c 0,0.043 0,0.211 0,0.211 v 0.295 0.379 0.506 0.588 0.674 0.758 0.801 0.883 0.969 1.01 1.053 1.094 1.137 1.18 1.178 1.221 1.221 1.221 1.221 1.221 1.221 1.18 1.178 1.137 1.096 1.051 1.012 0.926 0.883 0.844 0.756 0.674 0.547 0.506 0.379 0.295 c 0,0.168 0,0.252 0,0.252 v 2.021 l 0.084,1.979 0.084,1.936 0.126,1.852 0.169,1.811 0.21,1.727 0.253,1.684 0.295,1.6 0.337,1.6 0.379,1.473 0.378,1.475 0.464,1.389 0.505,1.348 0.505,1.262 0.548,1.221 0.631,1.18 0.632,1.137 0.673,1.051 0.716,1.053 0.758,0.926 0.8,0.926 0.842,0.885 0.842,0.801 0.927,0.756 0.968,0.717 0.968,0.631 1.053,0.631 1.053,0.549 1.094,0.547 1.137,0.463 1.221,0.42 1.221,0.379 1.263,0.295 1.264,0.295 1.347,0.252 1.389,0.17 1.432,0.168 1.431,0.084 1.516,0.084 h 1.516 0.968 0.927 l 0.926,-0.041 0.926,-0.043 0.927,-0.043 0.884,-0.084 0.842,-0.084 0.884,-0.084 0.842,-0.084 0.842,-0.127 0.8,-0.125 0.842,-0.127 0.8,-0.127 0.758,-0.168 0.8,-0.168 0.758,-0.168 0.758,-0.168 0.758,-0.211 0.716,-0.168 0.758,-0.211 0.715,-0.211 0.716,-0.252 0.716,-0.211 0.674,-0.252 0.715,-0.254 0.674,-0.209 0.716,-0.295 0.674,-0.254 0.673,-0.252 0.674,-0.295 0.632,-0.295 0.673,-0.252 0.674,-0.295 0.631,-0.295 0.674,-0.295 0.632,-0.336 0.673,-0.295 0.632,-0.336 0.632,-0.295 0.673,-0.338 c 0,-0.084 0,-0.336 0,-0.336 v -0.437 -0.588 -0.717 -0.883 -0.969 -1.094 -1.221 -1.305 -1.391 -1.516 -1.514 -1.643 -1.684 -1.727 -1.725 -1.811 -1.768 -1.811 -1.811 -1.811 -1.768 -1.768 -1.727 -1.684 -1.6 -1.557 -1.475 -1.43 -1.305 -1.18 -1.137 -0.969 -0.842 -0.758 -0.547 -0.42 -0.295 c -0.084,-0.084 -0.252,-0.084 -0.252,-0.084 h -0.253 -0.379 -0.463 -0.547 -0.632 -0.716 -0.758 -0.842 -0.926 -0.926 -1.011 -1.053 -1.052 -1.137 -1.137 -1.137 -1.137 -1.178 -1.137 -1.179 -1.137 -1.137 -1.095 -1.094 -1.011 -1.01 -0.969 -0.884 -0.842 -0.8 -0.716 -0.631 -0.548 -0.463 -0.379 -0.253 c -0.168,0 -0.21,0 -0.21,0 0,0.211 0,0.336 0,0.336 0,0.168 0,0.338 0,0.338 v 0.252 0.252 0.295 0.295 0.336 0.338 0.336 0.379 0.422 0.379 0.42 0.379 0.422 0.42 0.422 0.42 0.422 0.42 0.379 0.379 0.379 0.379 0.338 0.336 0.295 0.295 0.252 0.211 c 0,0.211 0,0.379 0,0.379 0,0.127 0,0.252 0,0.252 0.126,0.084 0.253,0.084 0.253,0.084 h 0.252 0.253 0.337 0.336 0.422 0.463 0.505 0.505 0.548 0.589 0.632 0.631 0.632 0.673 0.632 0.674 0.715 0.674 0.674 0.674 0.631 0.674 0.589 0.632 0.589 0.548 0.505 0.505 0.463 0.421 0.337 0.337 0.295 0.21 c 0.127,0 0.253,0 0.253,0 0.042,0.211 0.042,0.463 0.042,0.463 v 0.338 0.42 0.547 0.59 0.674 0.715 0.801 0.885 0.883 0.926 1.012 1.01 1.053 1.051 1.096 1.094 1.096 1.094 1.094 1.053 1.094 1.053 1.01 0.969 0.926 0.928 0.842 0.799 0.715 0.674 0.633 0.504 0.422 0.379 0.252 c 0,0.211 -0.21,0.379 -0.21,0.379 -0.211,0.211 -0.464,0.422 -0.464,0.422 l -0.21,0.168 -0.253,0.209 -0.295,0.17 -0.252,0.209 -0.295,0.17 -0.295,0.209 -0.336,0.17 -0.295,0.168 -0.337,0.168 -0.379,0.211 -0.337,0.168 -0.379,0.168 -0.379,0.168 -0.421,0.127 -0.379,0.168 -0.421,0.17 -0.421,0.125 -0.463,0.168 -0.463,0.127 -0.463,0.127 -0.463,0.125 -0.506,0.127 -0.463,0.127 -0.505,0.084 -0.547,0.125 -0.506,0.086 -0.547,0.084 -0.547,0.084 -0.59,0.084 -0.547,0.041 -0.59,0.086 -0.589,0.041 -0.59,0.043 -0.631,0.041 h -0.632 l -0.631,0.043 h -0.632 l -0.884,-0.043 h -0.884 l -0.842,-0.084 -0.843,-0.084 -0.8,-0.084 -0.757,-0.168 -0.758,-0.17 -0.758,-0.168 -0.716,-0.252 -0.674,-0.252 -0.673,-0.254 -0.632,-0.336 -0.632,-0.338 -0.589,-0.42 -0.589,-0.422 -0.548,-0.42 -0.547,-0.506 -0.505,-0.547 -0.506,-0.547 -0.463,-0.631 -0.421,-0.633 -0.421,-0.715 -0.379,-0.715 -0.379,-0.801 -0.379,-0.799 -0.295,-0.885 -0.336,-0.926 -0.253,-0.926 -0.295,-1.012 -0.21,-1.051 -0.211,-1.096 -0.21,-1.178 -0.169,-1.18 -0.126,-1.262 -0.126,-1.348 -0.127,-1.348 -0.084,-1.43 -0.042,-1.475 -0.042,-1.516 v -1.6 c 0,-0.041 0,-0.209 0,-0.209 v -0.295 -0.422 -0.504 -0.59 -0.674 -0.801 -0.842 -0.883 -1.01 -1.012 -1.094 -1.137 -1.137 -1.221 -1.221 -1.221 -1.264 -1.262 -1.264 -1.262 -1.221 -1.221 -1.221 -1.137 -1.137 -1.096 -1.01 -1.01 -0.885 -0.842 -0.799 -0.674 -0.59 -0.504 -0.422 -0.295 c 0,-0.168 0,-0.211 0,-0.211 l 0.042,-1.514 0.042,-1.475 0.126,-1.346 0.169,-1.307 0.21,-1.221 0.253,-1.178 0.295,-1.137 0.337,-1.01 0.336,-1.01 0.421,-0.928 0.422,-0.842 0.421,-0.842 0.505,-0.758 0.505,-0.715 0.505,-0.631 0.548,-0.633 0.547,-0.547 0.59,-0.547 0.547,-0.463 0.631,-0.463 0.59,-0.379 0.589,-0.379 0.632,-0.338 0.589,-0.293 0.632,-0.254 0.59,-0.252 0.631,-0.168 0.59,-0.211 0.589,-0.127 0.589,-0.125 0.548,-0.127 0.547,-0.084 0.505,-0.084 0.548,-0.043 0.463,-0.084 h 0.463 l 0.421,-0.041 h 0.421 0.379 0.337 0.884 l 0.884,0.041 0.8,0.043 0.843,0.084 0.757,0.084 0.758,0.127 0.716,0.168 0.716,0.168 0.631,0.168 0.674,0.254 0.59,0.209 0.589,0.254 0.59,0.293 0.547,0.295 0.505,0.338 0.505,0.336 0.464,0.379 0.463,0.422 0.421,0.42 0.379,0.422 0.379,0.463 0.336,0.504 0.337,0.506 0.337,0.506 0.295,0.588 0.253,0.549 0.252,0.631 0.211,0.59 0.21,0.672 0.211,0.674 0.168,0.674 0.126,0.717 0.127,0.715 0.126,0.758 0.084,0.799 0.085,0.801 0.042,0.842 0.042,0.842 0.042,0.842 v 0.926 h 13.802 z"
   stroke-miterlimit="10"
   inkscape:connector-curvature="0" />
</g><g
     style="fill:#000000;fill-opacity:1;stroke:none"
     id="LWPOLYLINE_5_">
	
		<path
   style="fill:#000000;fill-opacity:1;stroke:none"
   id="path19"
   d="m 453.084,502.92 c 0,-0.211 0,-0.336 0,-0.336 0,-0.17 0,-0.379 0,-0.379 v -0.211 -0.252 -0.295 -0.295 -0.338 -0.336 -0.378 -0.379 -0.379 -0.379 -0.42 -0.422 -0.422 -0.42 -0.422 -0.42 -0.379 -0.422 -0.379 -0.42 -0.379 -0.336 -0.338 -0.336 -0.295 -0.295 -0.252 -0.254 c 0,-0.168 0,-0.336 0,-0.336 0,-0.127 0,-0.252 0,-0.252 -0.084,-0.086 -0.295,-0.086 -0.295,-0.086 h -0.337 -0.463 -0.589 -0.674 -0.8 -0.884 -0.969 -1.052 -1.137 -1.179 -1.263 -1.305 -1.348 -1.389 -1.39 -1.431 -1.474 -1.431 -1.474 -1.432 -1.431 -1.432 -1.347 -1.348 -1.305 -1.263 -1.179 -1.137 -1.052 -0.969 -0.884 -0.8 -0.674 -0.589 -0.463 -0.337 c -0.211,0 -0.295,0 -0.295,0 0,-0.041 0,-0.252 0,-0.252 v -0.295 -0.42 -0.506 -0.59 -0.715 -0.799 -0.844 -0.967 -0.969 -1.094 -1.096 -1.178 -1.18 -1.221 -1.262 -1.264 -1.305 -1.262 -1.307 -1.305 -1.262 -1.264 -1.221 -1.178 -1.18 -1.094 -1.053 -1.01 -0.926 -0.885 -0.758 -0.715 -0.633 -0.504 -0.422 -0.295 c 0,-0.168 0,-0.252 0,-0.252 0.084,0 0.253,0 0.253,0 h 0.295 0.463 0.505 0.632 0.715 0.8 0.884 0.969 1.053 1.052 1.137 1.221 1.221 1.263 1.263 1.306 1.305 1.347 1.305 1.348 1.305 1.263 1.263 1.221 1.179 1.137 1.095 1.01 0.969 0.884 0.842 0.716 0.631 0.506 0.421 0.337 c 0.168,0 0.252,0 0.252,0 0,-0.168 0,-0.295 0,-0.295 0,-0.168 0,-0.379 0,-0.379 v -0.252 -0.252 -0.254 -0.336 -0.295 -0.336 -0.379 -0.379 -0.379 -0.422 -0.379 -0.42 -0.422 -0.42 -0.422 -0.422 -0.42 -0.379 -0.422 -0.377 -0.379 -0.379 -0.338 -0.336 -0.295 -0.252 -0.295 -0.211 c 0,-0.211 0,-0.379 0,-0.379 0,-0.127 0,-0.211 0,-0.211 -0.084,-0.084 -0.252,-0.084 -0.252,-0.084 h -0.337 -0.421 -0.506 -0.631 -0.716 -0.842 -0.884 -0.969 -1.01 -1.095 -1.137 -1.179 -1.221 -1.263 -1.263 -1.305 -1.348 -1.305 -1.347 -1.305 -1.306 -1.263 -1.263 -1.221 -1.221 -1.137 -1.052 -1.053 -0.969 -0.884 -0.8 -0.715 -0.632 -0.505 -0.463 -0.295 c -0.169,0 -0.253,0 -0.253,0 0,-0.084 0,-0.252 0,-0.252 v -0.254 -0.379 -0.504 -0.547 -0.674 -0.717 -0.799 -0.885 -0.926 -0.969 -1.01 -1.079 -1.096 -1.135 -1.137 -1.18 -1.221 -1.178 -1.18 -1.221 -1.178 -1.137 -1.137 -1.094 -1.096 -1.01 -1.01 -0.926 -0.844 -0.799 -0.715 -0.674 -0.547 -0.506 -0.379 -0.252 c 0,-0.211 0,-0.254 0,-0.254 0.084,0 0.295,0 0.295,0 h 0.295 0.463 0.589 0.674 0.758 0.884 0.926 1.053 1.095 1.179 1.221 1.263 1.305 1.347 1.39 1.389 1.432 1.431 1.39 1.431 1.39 1.389 1.348 1.305 1.263 1.221 1.179 1.095 1.052 0.927 0.884 0.758 0.674 0.589 0.463 0.337 c 0.168,0 0.253,0 0.253,0 0,-0.168 0,-0.295 0,-0.295 0,-0.168 0,-0.379 0,-0.379 v -0.252 -0.252 -0.252 -0.338 -0.295 -0.336 -0.379 -0.379 -0.379 -0.422 -0.379 -0.42 -0.422 -0.42 -0.422 -0.42 -0.422 -0.379 -0.42 -0.379 -0.379 -0.379 -0.338 -0.336 -0.295 -0.252 -0.295 -0.211 c 0,-0.211 0,-0.379 0,-0.379 0,-0.125 0,-0.211 0,-0.211 -0.085,-0.084 -0.379,-0.084 -0.379,-0.084 h -0.421 -0.59 -0.758 -0.884 -1.01 -1.137 -1.263 -1.348 -1.473 -1.516 -1.642 -1.684 -1.727 -1.768 -1.811 -1.852 -1.853 -1.895 -1.852 -1.895 -1.81 -1.853 -1.769 -1.726 -1.684 -1.6 -1.558 -1.431 -1.348 -1.263 -1.137 -1.052 -0.885 -0.715 -0.632 -0.421 -0.295 c -0.084,0.17 -0.084,0.717 -0.084,0.717 v 0.883 1.18 1.516 1.768 2.062 2.273 2.525 2.693 2.904 3.074 3.24 3.326 3.494 3.535 3.621 3.703 3.748 3.746 3.746 3.703 3.705 3.621 3.578 3.451 3.367 3.199 3.072 2.904 2.736 2.484 2.314 2.021 1.768 1.516 1.178 0.885 0.547 c 0.012,0.223 50.905,0.223 50.905,0.223 z"
   stroke-miterlimit="10"
   inkscape:connector-curvature="0" />
</g><g
     style="fill:#000000;fill-opacity:1;stroke:none"
     id="LWPOLYLINE_6_">
	
		
</g><g
     style="fill:#000000;fill-opacity:1;stroke:none"
     id="LWPOLYLINE_8_">
	
		<path
   id="path28"
   d="m 239.46875,542.5625 -1.5,0.0625 -1.46875,0.0937 -1.40625,0.15625 -1.375,0.21875 -1.34375,0.25 -1.3125,0.25 -1.25,0.34375 -1.21875,0.375 -1.1875,0.4375 -1.125,0.4375 -1.125,0.46875 -1.0625,0.5625 -1.03125,0.59375 -1,0.5625 -0.9375,0.6875 -0.90625,0.6875 -0.875,0.6875 -0.84375,0.8125 -0.78125,0.8125 -0.78125,0.84375 -0.6875,0.875 -0.6875,0.9375 -0.65625,0.90625 -0.59375,1.03125 -0.5625,1 -0.53125,1.0625 -0.46875,1.09375 -0.4375,1.125 -0.40625,1.125 -0.375,1.21875 -0.34375,1.25 -0.28125,1.25 -0.25,1.25 -0.21875,1.34375 -0.1875,1.375 -0.125,1.375 -0.0937,1.375 -0.0625,1.4375 -0.0312,1.5 0,0.25 0,0.28125 0,0.375 0,0.5 0,0.59375 0,0.6875 0,0.71875 0,0.84375 0,0.875 0,0.96875 0,0.96875 0,1.09375 0,1.09375 0,1.125 0,1.15625 0,1.21875 0,1.15625 0,1.21875 0,1.25 0,1.25 0,1.21875 0,1.1875 0,1.21875 0,1.125 0,1.15625 0,1.09375 0,1.09375 0,0.96875 0,0.96875 0,0.875 0,0.84375 0,0.71875 0,0.65625 0,0.59375 0,0.5 0,0.40625 0,0.28125 0,0.25 0.0312,2.03125 0.0625,1.96875 0.0937,1.9375 0.125,1.84375 0.1875,1.78125 0.21875,1.78125 0.25,1.65625 0.28125,1.625 0.34375,1.53125 0.375,1.53125 0.40625,1.46875 0.4375,1.40625 0.46875,1.34375 0.53125,1.25 0.5625,1.21875 0.59375,1.1875 0.65625,1.125 0.6875,1.0625 0.6875,1 0.78125,0.96875 0.78125,0.9375 0.84375,0.84375 0.875,0.84375 0.90625,0.75 0.9375,0.6875 1,0.65625 1.03125,0.625 1.0625,0.5625 1.125,0.5 1.125,0.46875 1.1875,0.40625 1.21875,0.40625 1.25,0.3125 1.3125,0.3125 1.34375,0.1875 1.375,0.21875 1.40625,0.1875 1.46875,0.0625 1.5,0.0937 1.53125,0 1.53125,0 1.5,-0.0937 1.4375,-0.0625 1.40625,-0.1875 1.40625,-0.21875 1.3125,-0.1875 1.3125,-0.3125 1.25,-0.3125 1.21875,-0.40625 1.1875,-0.40625 1.15625,-0.46875 1.09375,-0.5 1.09375,-0.5625 1.03125,-0.625 0.96875,-0.65625 0.9375,-0.6875 0.90625,-0.75 0.90625,-0.84375 0.8125,-0.84375 0.8125,-0.9375 0.75,-0.96875 0.71875,-1 0.65625,-1.0625 0.65625,-1.125 0.59375,-1.1875 0.5625,-1.21875 0.53125,-1.25 0.46875,-1.34375 0.46875,-1.40625 0.375,-1.46875 0.40625,-1.53125 0.3125,-1.53125 0.28125,-1.625 0.25,-1.65625 0.25,-1.78125 0.15625,-1.78125 0.125,-1.84375 0.0937,-1.9375 0.0625,-1.9687 0.0312,-2.03125 0,-0.25 0,-0.28125 0,-0.40625 0,-0.5 0,-0.59375 0,-0.65625 0,-0.71875 0,-0.84375 0,-0.875 0,-0.96875 0,-0.96875 0,-1.09375 0,-1.09375 0,-1.15625 0,-1.125 0,-1.21875 0,-1.1875 0,-1.21875 0,-1.25 0,-1.25 0,-1.21875 0,-1.15625 0,-1.21875 0,-1.15625 0,-1.125 0,-1.09375 0,-1.09375 0,-0.96875 0,-0.96875 0,-0.875 0,-0.84375 0,-0.71875 0,-0.6875 0,-0.59375 0,-0.5 0,-0.375 0,-0.28125 0,-0.25 -0.0312,-1.5 -0.0625,-1.4375 -0.0937,-1.375 -0.125,-1.375 -0.15625,-1.375 -0.25,-1.34375 -0.25,-1.25 -0.28125,-1.25 -0.3125,-1.25 -0.40625,-1.21875 -0.375,-1.125 -0.46875,-1.125 -0.46875,-1.09375 -0.53125,-1.0625 -0.5625,-1 -0.59375,-1.03125 -0.65625,-0.90625 -0.65625,-0.9375 -0.71875,-0.875 -0.75,-0.84375 -0.8125,-0.8125 -0.8125,-0.8125 -0.90625,-0.6875 -0.90625,-0.6875 -0.9375,-0.6875 -0.96875,-0.5625 -1.03125,-0.59375 -1.09375,-0.5625 -1.09375,-0.46875 -1.15625,-0.4375 -1.1875,-0.4375 -1.21875,-0.375 -1.25,-0.34375 -1.3125,-0.25 -1.3125,-0.25 -1.40625,-0.21875 -1.40625,-0.15625 -1.4375,-0.0937 -1.5,-0.0625 -1.53125,0 -1.53125,0 z m 1.1875,10.3125 0.34375,0 0.3125,0 0.40625,0.0312 0.375,0 0.4375,0 0.46875,0.0312 0.5,0.0625 0.5,0.0625 0.53125,0.0625 0.53125,0.125 0.5625,0.0937 0.59375,0.125 0.5625,0.15625 0.625,0.15625 L 248,554 l 0.59375,0.25 0.625,0.25 0.59375,0.3125 0.625,0.34375 0.59375,0.375 0.625,0.375 0.59375,0.46875 0.59375,0.4375 0.5625,0.53125 0.53125,0.5625 0.5625,0.59375 0.53125,0.6875 0.5,0.71875 0.46875,0.75 0.46875,0.8125 0.40625,0.875 0.375,0.9375 0.375,0.96875 0.3125,1.03125 0.3125,1.09375 0.25,1.1875 0.21875,1.25 0.15625,1.3125 0.0937,1.34375 0.0937,1.4375 0.0312,1.53125 0,0.25 0,0.28125 0,0.4375 0,0.5 0,0.59375 0,0.65625 0,0.75 0,0.84375 0,0.9375 0,0.96875 0,1.0625 0,1.09375 0,1.09375 0,1.15625 0,1.1875 0,1.28125 0,1.21875 0,1.25 0,1.28125 0,1.25 0,1.21875 0,1.25 0,1.25 0,1.15625 0,1.1875 0,1.125 0,1.09375 0,1.03125 0,0.96875 0,0.90625 0,0.84375 0,0.78125 0,0.6875 0,0.59375 0,0.5 0,0.40625 0,0.28125 0,0.25 0,1.59375 -0.0625,1.53125 -0.0625,1.46875 -0.0625,1.4375 -0.0937,1.34375 -0.125,1.3125 -0.15625,1.25 -0.15625,1.21875 -0.1875,1.15625 -0.25,1.09375 -0.21875,1.09375 -0.25,0.96875 -0.28125,0.96875 -0.3125,0.90625 -0.34375,0.84375 -0.3125,0.84375 -0.40625,0.75 -0.375,0.78125 -0.4375,0.65625 -0.4375,0.6875 -0.46875,0.59375 -0.46875,0.5625 -0.5,0.53125 -0.53125,0.5 -0.5625,0.46875 -0.59375,0.40625 -0.59375,0.375 -0.625,0.375 -0.65625,0.3125 -0.65625,0.28125 -0.6875,0.25 -0.71875,0.21875 -0.71875,0.21875 -0.75,0.15625 -0.78125,0.125 -0.84375,0.125 -0.8125,0.0937 -0.84375,0.0312 -0.84375,0.0625 -0.90625,0 -0.90625,0 -0.875,-0.0625 -0.84375,-0.0312 -0.8125,-0.0937 -0.8125,-0.125 -0.78125,-0.125 -0.78125,-0.15625 -0.71875,-0.21875 -0.6875,-0.21875 -0.71875,-0.25 -0.65625,-0.28125 -0.65625,-0.3125 -0.59375,-0.375 -0.625,-0.375 -0.5625,-0.40625 -0.5625,-0.46875 -0.53125,-0.5 -0.5,-0.53125 -0.5,-0.5625 -0.46875,-0.59375 -0.4375,-0.6875 -0.40625,-0.65625 -0.40625,-0.78125 -0.375,-0.75 L 225.4375,626.25 225.09375,625.40625 224.8125,624.5 224.5,623.53125 224.25,622.5625 224.03125,621.46875 223.8125,620.375 223.59375,619.21875 223.4375,618 l -0.15625,-1.25 -0.125,-1.3125 -0.0625,-1.34375 -0.0937,-1.4375 -0.0625,-1.46875 -0.0312,-1.53125 0,-1.59375 0,-0.25 0,-0.28125 0,-0.40625 0,-0.5 0,-0.59375 0,-0.6875 0,-0.78125 0,-0.84375 0,-0.90625 0,-0.96875 0,-1.03125 0,-1.09375 0,-1.125 0,-1.1875 0,-1.15625 0,-1.25 0,-1.25 0,-1.21875 0,-1.25 0,-1.28125 0,-1.25 0,-1.21875 0,-1.28125 0,-1.1875 0,-1.15625 0,-1.09375 0,-1.09375 0,-1.0625 0,-0.96875 0,-0.9375 0,-0.84375 0,-0.75 0,-0.65625 0,-0.59375 0,-0.5 0,-0.4375 0,-0.28125 0,-0.25 0,-1.53125 0.0937,-1.4375 0.0937,-1.34375 0.1875,-1.3125 0.1875,-1.25 0.28125,-1.1875 0.28125,-1.09375 0.34375,-1.03125 0.34375,-0.96875 0.375,-0.9375 0.4375,-0.875 0.46875,-0.8125 0.46875,-0.75 0.5,-0.71875 0.5,-0.6875 0.5625,-0.59375 0.53125,-0.5625 0.59375,-0.53125 0.5625,-0.4375 0.59375,-0.46875 0.625,-0.375 0.59375,-0.375 0.625,-0.34375 0.59375,-0.3125 0.625,-0.25 0.59375,-0.25 0.625,-0.21875 0.59375,-0.15625 0.59375,-0.15625 0.5625,-0.125 0.5625,-0.0937 0.5625,-0.125 0.5,-0.0625 L 238.5,553 l 0.46875,-0.0625 0.46875,-0.0312 0.4375,0 0.40625,0 0.375,-0.0312 z"
   style="fill:#000000;fill-opacity:1;stroke:none"
   inkscape:connector-curvature="0" />
</g><g
     style="fill:#000000;fill-opacity:1;stroke:none"
     id="LWPOLYLINE_9_">
	
		
</g><g
     style="fill:#000000;fill-opacity:1;stroke:none"
     id="LWPOLYLINE_10_">
	
		<path
   style="fill:#000000;fill-opacity:1;stroke:none"
   id="path34"
   d="m 306.511,644.273 c 0.126,0 0.252,0 0.252,0 0.169,0 0.379,0 0.379,0 h 0.253 0.295 0.336 0.379 0.379 0.421 0.463 0.464 0.505 0.505 0.548 0.505 0.547 0.547 0.548 0.547 0.548 0.547 0.547 0.506 0.505 0.505 0.463 0.463 0.421 0.379 0.379 0.337 0.295 0.253 0.21 c 0.211,0 0.337,0 0.337,0 0.126,-0.168 0.253,-0.631 0.253,-0.631 l 0.168,-0.758 0.21,-1.053 0.295,-1.305 0.379,-1.516 0.379,-1.811 0.463,-1.979 0.506,-2.188 0.547,-2.357 0.547,-2.525 0.632,-2.695 0.631,-2.777 0.674,-2.947 0.674,-2.988 0.716,-3.115 0.715,-3.158 0.716,-3.197 0.758,-3.242 0.758,-3.283 0.716,-3.283 0.758,-3.242 0.715,-3.199 0.716,-3.156 0.716,-3.115 0.674,-2.988 0.673,-2.947 0.632,-2.777 0.631,-2.695 0.59,-2.525 0.505,-2.357 0.505,-2.189 0.464,-1.979 0.421,-1.809 0.336,-1.516 0.295,-1.305 0.253,-1.053 0.168,-0.758 0.084,-0.463 c 0.085,0 0.169,0.463 0.169,0.463 l 0.168,0.758 0.253,1.053 0.295,1.305 0.336,1.516 0.379,1.809 0.421,1.979 0.464,2.189 0.547,2.357 0.547,2.525 0.59,2.695 0.589,2.777 0.632,2.947 0.674,2.988 0.673,3.115 0.674,3.156 0.716,3.199 0.715,3.242 0.674,3.283 0.716,3.283 0.716,3.242 0.715,3.197 0.674,3.158 0.674,3.115 0.674,2.988 0.631,2.947 0.59,2.777 0.589,2.695 0.547,2.525 0.548,2.357 0.463,2.188 0.421,1.979 0.379,1.811 0.337,1.516 0.294,1.305 0.253,1.053 0.126,0.758 0.127,0.463 c 0.126,0.168 0.252,0.168 0.252,0.168 0.211,0 0.421,0 0.421,0 h 0.253 0.295 0.337 0.379 0.378 0.422 0.463 0.463 0.505 0.505 0.506 0.547 0.547 0.548 0.547 0.547 0.548 0.547 0.505 0.548 0.505 0.505 0.463 0.422 0.463 0.379 0.379 0.336 0.295 0.253 0.21 c 0.169,0 0.295,0 0.295,0 0.168,-0.168 0.295,-0.715 0.295,-0.715 l 0.252,-0.885 0.295,-1.178 0.379,-1.516 0.463,-1.768 0.548,-2.064 0.589,-2.271 0.632,-2.484 0.715,-2.736 0.758,-2.904 0.8,-3.072 0.8,-3.199 0.884,-3.367 0.885,-3.453 0.926,-3.578 0.968,-3.619 0.927,-3.705 0.968,-3.746 0.969,-3.746 0.968,-3.746 0.968,-3.705 0.969,-3.705 0.926,-3.619 0.926,-3.578 0.885,-3.451 0.884,-3.369 0.842,-3.199 0.758,-3.072 0.758,-2.904 0.715,-2.736 0.632,-2.484 0.59,-2.314 0.547,-2.02 0.463,-1.77 0.379,-1.514 0.295,-1.18 0.252,-0.885 0.127,-0.547 c -0.169,-0.168 -0.295,-0.168 -0.295,-0.168 -0.211,0 -0.421,0 -0.421,0 h -0.295 -0.295 -0.294 -0.379 -0.379 -0.379 -0.421 -0.421 -0.463 -0.464 -0.463 -0.463 -0.505 -0.463 -0.506 -0.463 -0.505 -0.463 -0.463 -0.421 -0.463 -0.422 -0.378 -0.379 -0.337 -0.337 -0.295 -0.252 -0.253 c -0.169,0 -0.337,0 -0.337,0 -0.21,0 -0.253,0.127 -0.253,0.127 l -0.084,0.463 -0.168,0.758 -0.253,1.053 -0.295,1.305 -0.379,1.516 -0.378,1.768 -0.464,1.979 -0.505,2.146 -0.505,2.357 -0.59,2.482 -0.631,2.652 -0.632,2.779 -0.673,2.904 -0.674,2.988 -0.716,3.031 -0.716,3.156 -0.715,3.158 -0.758,3.24 -0.716,3.242 -0.758,3.199 -0.758,3.24 -0.716,3.158 -0.715,3.156 -0.716,3.072 -0.674,2.99 -0.674,2.861 -0.631,2.779 -0.632,2.652 -0.547,2.525 -0.547,2.314 -0.506,2.189 -0.463,1.936 -0.379,1.768 -0.379,1.559 -0.295,1.262 -0.21,1.053 -0.168,0.758 -0.127,0.463 c -0.084,0 -0.168,-0.463 -0.168,-0.463 l -0.126,-0.758 -0.211,-1.053 -0.295,-1.262 -0.294,-1.559 -0.337,-1.768 -0.421,-1.936 -0.421,-2.189 -0.464,-2.314 -0.505,-2.525 -0.505,-2.652 -0.59,-2.779 -0.547,-2.861 -0.632,-2.99 -0.589,-3.072 -0.632,-3.156 -0.631,-3.158 -0.632,-3.24 -0.673,-3.199 -0.632,-3.242 -0.632,-3.24 -0.631,-3.158 -0.632,-3.156 -0.631,-3.031 -0.59,-2.988 -0.589,-2.904 -0.548,-2.779 -0.547,-2.652 -0.505,-2.482 -0.463,-2.357 -0.421,-2.146 -0.379,-1.979 -0.379,-1.768 -0.295,-1.516 -0.253,-1.305 -0.21,-1.053 -0.169,-0.758 -0.084,-0.463 c -0.126,-0.127 -0.295,-0.127 -0.295,-0.127 -0.168,0 -0.421,0 -0.421,0 h -0.294 -0.337 -0.379 -0.421 -0.421 -0.505 -0.506 -0.505 -0.547 -0.59 -0.547 -0.632 -0.589 -0.632 -0.589 -0.632 -0.589 -0.632 -0.589 -0.59 -0.547 -0.548 -0.547 -0.505 -0.463 -0.421 -0.421 -0.379 -0.337 -0.295 -0.253 c -0.168,0 -0.336,0 -0.336,0 -0.169,0.127 -0.253,0.59 -0.253,0.59 l -0.168,0.758 -0.253,1.053 -0.295,1.305 -0.337,1.516 -0.421,1.768 -0.463,1.979 -0.463,2.146 -0.547,2.357 -0.59,2.482 -0.589,2.652 -0.674,2.779 -0.632,2.904 -0.715,2.988 -0.674,3.031 -0.758,3.156 -0.716,3.158 -0.715,3.24 -0.758,3.242 -0.758,3.199 -0.716,3.24 -0.758,3.158 -0.716,3.156 -0.715,3.072 -0.674,2.99 -0.674,2.861 -0.631,2.779 -0.59,2.652 -0.589,2.525 -0.548,2.314 -0.505,2.189 -0.421,1.936 -0.421,1.768 -0.337,1.559 -0.295,1.262 -0.252,1.053 -0.169,0.758 -0.126,0.463 c -0.042,0 -0.168,-0.463 -0.168,-0.463 l -0.169,-0.758 -0.21,-1.053 -0.253,-1.262 -0.337,-1.559 -0.379,-1.768 -0.379,-1.936 -0.463,-2.189 -0.505,-2.314 -0.505,-2.525 -0.59,-2.652 -0.547,-2.779 -0.632,-2.861 -0.631,-2.99 -0.632,-3.072 -0.674,-3.156 -0.673,-3.158 -0.674,-3.24 -0.674,-3.199 -0.673,-3.242 -0.674,-3.24 -0.674,-3.158 -0.631,-3.156 -0.674,-3.031 -0.632,-2.988 -0.589,-2.904 -0.589,-2.779 -0.548,-2.652 -0.547,-2.482 -0.463,-2.357 -0.463,-2.146 -0.422,-1.979 -0.378,-1.768 -0.295,-1.516 -0.295,-1.305 -0.21,-1.053 -0.169,-0.758 -0.084,-0.463 c -0.126,-0.127 -0.253,-0.127 -0.253,-0.127 -0.126,0 -0.337,0 -0.337,0 h -0.21 -0.295 -0.295 -0.294 -0.379 -0.379 -0.379 -0.421 -0.421 -0.463 -0.464 -0.463 -0.463 -0.505 -0.463 -0.506 -0.463 -0.505 -0.463 -0.463 -0.421 -0.463 -0.421 -0.379 -0.379 -0.358 -0.315 -0.295 -0.273 -0.231 c -0.189,0 -0.337,0 -0.337,0 -0.207,-0.002 23.072,99.972 23.072,99.972 z"
   stroke-miterlimit="10"
   inkscape:connector-curvature="0" />
</g><g
     style="fill:#000000;fill-opacity:1;stroke:none"
     id="LWPOLYLINE_11_">
	
		<path
   style="fill:#000000;fill-opacity:1;stroke:none"
   id="path37"
   d="m 469.459,544.299 c 0,0.127 0,0.59 0,0.59 v 0.758 1.01 1.305 1.516 1.727 1.936 2.146 2.316 2.482 2.609 2.779 2.861 2.947 3.031 3.115 3.156 3.158 3.199 3.199 3.199 3.156 3.072 3.074 2.945 2.863 2.736 2.609 2.484 2.314 2.146 1.979 1.727 1.516 1.262 1.053 0.717 0.463 c -0.085,0 -0.295,-0.463 -0.295,-0.463 l -0.337,-0.717 -0.421,-1.053 -0.589,-1.262 -0.674,-1.516 -0.758,-1.727 -0.884,-1.979 -0.969,-2.146 -1.01,-2.314 -1.095,-2.484 -1.179,-2.609 -1.221,-2.736 -1.263,-2.863 -1.305,-2.945 -1.348,-3.074 -1.389,-3.072 -1.39,-3.156 -1.431,-3.199 -1.432,-3.199 -1.431,-3.199 -1.39,-3.158 -1.389,-3.156 -1.39,-3.115 -1.347,-3.031 -1.305,-2.947 -1.305,-2.861 -1.221,-2.779 -1.137,-2.609 -1.137,-2.482 -1.011,-2.316 -0.968,-2.146 -0.842,-1.936 -0.8,-1.727 -0.674,-1.516 -0.547,-1.305 -0.463,-1.01 -0.337,-0.758 -0.211,-0.463 c -0.168,-0.127 -0.337,-0.127 -0.337,-0.127 -0.21,0 -0.463,0 -0.463,0 h -0.294 -0.379 -0.379 -0.421 -0.464 -0.505 -0.547 -0.548 -0.589 -0.589 -0.632 -0.59 -0.673 -0.632 -0.631 -0.674 -0.632 -0.631 -0.632 -0.589 -0.632 -0.547 -0.59 -0.505 -0.505 -0.463 -0.421 -0.421 -0.337 -0.295 -0.295 c -0.168,0 -0.337,0 -0.337,0 -0.126,0.168 -0.126,0.715 -0.126,0.715 v 0.885 1.18 1.514 1.77 2.02 2.314 2.484 2.736 2.904 3.072 3.199 3.369 3.451 3.578 3.619 3.705 3.705 3.746 3.746 3.746 3.705 3.619 3.578 3.453 3.367 3.199 3.072 2.904 2.736 2.484 2.271 2.064 1.768 1.516 1.178 0.885 0.547 c 0.169,0.168 0.295,0.168 0.295,0.168 0.168,0 0.379,0 0.379,0 h 0.252 0.253 0.253 0.337 0.294 0.379 0.337 0.379 0.379 0.421 0.379 0.421 0.421 0.421 0.421 0.421 0.421 0.421 0.379 0.379 0.379 0.379 0.337 0.337 0.294 0.295 0.253 0.21 c 0.211,0 0.379,0 0.379,0 0.127,0 0.211,0 0.211,0 0.084,-0.168 0.084,-0.631 0.084,-0.631 v -0.758 -1.01 -1.307 -1.514 -1.77 -1.979 -2.146 -2.357 -2.482 -2.652 -2.779 -2.904 -2.988 -3.072 -3.115 -3.199 -3.199 -3.242 -3.199 -3.24 -3.158 -3.156 -3.072 -2.99 -2.861 -2.779 -2.65 -2.527 -2.314 -2.189 -1.979 -1.725 -1.559 -1.262 -1.053 -0.758 -0.463 c 0.084,0 0.295,0.463 0.295,0.463 l 0.337,0.758 0.463,1.053 0.589,1.262 0.674,1.559 0.8,1.725 0.884,1.979 0.969,2.189 1.052,2.314 1.137,2.527 1.179,2.65 1.263,2.779 1.305,2.861 1.348,2.99 1.389,3.072 1.39,3.156 1.431,3.158 1.432,3.24 1.473,3.199 1.474,3.242 1.432,3.199 1.431,3.199 1.39,3.115 1.389,3.072 1.347,2.988 1.306,2.904 1.263,2.779 1.179,2.652 1.137,2.482 1.052,2.357 0.969,2.146 0.884,1.979 0.8,1.77 0.674,1.514 0.589,1.307 0.463,1.01 0.337,0.758 0.211,0.463 c 0.21,0.168 0.336,0.168 0.336,0.168 0.211,0 0.464,0 0.464,0 h 0.252 0.337 0.379 0.421 0.463 0.463 0.506 0.505 0.547 0.59 0.589 0.59 0.589 0.632 0.589 0.632 0.631 0.59 0.589 0.59 0.547 0.547 0.548 0.505 0.463 0.463 0.379 0.379 0.337 0.295 0.252 c 0.211,0 0.337,0 0.337,0 0.127,-0.168 0.127,-0.715 0.127,-0.715 v -0.885 -1.178 -1.516 -1.768 -2.064 -2.271 -2.484 -2.736 -2.904 -3.072 -3.199 -3.367 -3.453 -3.578 -3.619 -3.705 -3.746 -3.746 -3.746 -3.705 -3.705 -3.619 -3.578 -3.451 -3.369 -3.199 -3.072 -2.904 -2.736 -2.484 -2.314 -2.02 -1.77 -1.514 -1.18 -0.885 -0.547 c -0.003,-0.168 -11.2,-0.168 -11.2,-0.168 z"
   stroke-miterlimit="10"
   inkscape:connector-curvature="0" />
</g><g
     style="fill:#000000;fill-opacity:1;stroke:none"
     id="LINE">
	
		
</g><g
     style="fill:#000000;fill-opacity:1;stroke:none"
     id="LINE_1_">
	
		
</g><g
     style="fill:#000000;fill-opacity:1;stroke:none"
     id="LINE_2_">
	
		
</g><g
     style="fill:#000000;fill-opacity:1;stroke:none"
     id="LINE_3_">
	
		<path
   id="line49"
   d="m 90.125,146 0,205.15625 321.59375,0 L 522.46875,240.375 522.875,146 90.125,146 z m 25,24.96875 382.78125,0 0,56.9375 -100,0 0,98.25 -282.78125,0 0,-155.1875 z m 307.78125,82.78125 52.5625,0 -52.5625,51.71875 0,-51.71875 z"
   style="fill:#000000;fill-opacity:1;stroke:none"
   inkscape:connector-curvature="0" />
</g><g
     style="fill:#000000;fill-opacity:1;stroke:none"
     id="LINE_4_">
	
		
</g><g
     style="fill:#000000;fill-opacity:1;stroke:none"
     id="LINE_5_">
	
		
</g><g
     style="fill:#000000;fill-opacity:1;stroke:none"
     id="LINE_6_">
	
		
</g><g
     style="fill:#000000;fill-opacity:1;stroke:none"
     id="LINE_7_">
	
		
</g><g
     style="fill:#000000;fill-opacity:1;stroke:none"
     id="LINE_8_">
	
		
</g><g
     style="fill:#000000;fill-opacity:1;stroke:none"
     id="LINE_9_">
	
		
</g><g
     style="fill:#000000;fill-opacity:1;stroke:none"
     id="LINE_10_">
	
		
</g><g
     style="fill:#000000;fill-opacity:1;stroke:none"
     id="LINE_11_">
	
		
</g><g
     style="fill:#000000;fill-opacity:1;stroke:none"
     id="LINE_12_">
	
		
</g><g
     style="fill:#000000;fill-opacity:1;stroke:none"
     id="LINE_13_">
	
		<path
   sodipodi:nodetypes="ccccc"
   inkscape:connector-curvature="0"
   id="line79"
   d="m 127.188,191.672 355.19399,0 0,16.39599 -355.19399,0 z"
   style="fill:#000000;fill-opacity:1;stroke:none" />
</g><g
     style="fill:#000000;fill-opacity:1;stroke:none"
     id="LINE_14_">
	
		
</g><g
     style="fill:#000000;fill-opacity:1;stroke:none"
     id="LINE_15_">
	
		
</g><g
     style="fill:#000000;fill-opacity:1;stroke:none"
     id="LINE_16_">
	
		<path
   sodipodi:nodetypes="ccccc"
   inkscape:connector-curvature="0"
   id="line88"
   d="m 127.188,254.625 254.33501,0 0,-16.396 -254.33501,0 z"
   style="fill:#000000;fill-opacity:1;stroke:none" />
</g><g
     style="fill:#000000;fill-opacity:1;stroke:none"
     id="LINE_17_">
	
		
</g><g
     style="fill:#000000;fill-opacity:1;stroke:none"
     id="LINE_18_">
	
		
</g><g
     style="fill:#000000;fill-opacity:1;stroke:none"
     id="LINE_19_">
	
		<path
   sodipodi:nodetypes="ccccc"
   inkscape:connector-curvature="0"
   id="line97"
   d="m 127.188,300.297 254.33501,0 0,-14.64899 -254.33501,0 z"
   style="fill:#000000;fill-opacity:1;stroke:none" />
</g><g
     style="fill:#000000;fill-opacity:1;stroke:none"
     id="LINE_20_">
	
		
</g><g
     style="fill:#000000;fill-opacity:1;stroke:none"
     id="LINE_21_">
	
		
</g><g
     style="fill:#000000;fill-opacity:1;stroke:none"
     id="LINE_22_">
	
		
</g><g
     style="fill:#000000;fill-opacity:1;stroke:none"
     id="LINE_23_">
	
		
</g><g
     style="fill:#000000;fill-opacity:1;stroke:none"
     id="LINE_24_">
	
		
</g><g
     style="fill:#000000;fill-opacity:1;stroke:none"
     id="LINE_25_">
	
		
</g></g>
</svg>