<?xml version="1.0" encoding="UTF-8" standalone="no"?>
<!-- Generator: Adobe Illustrator 16.0.1, SVG Export Plug-In . SVG Version: 6.00 Build 0)  -->

<svg
   xmlns:dc="http://purl.org/dc/elements/1.1/"
   xmlns:cc="http://creativecommons.org/ns#"
   xmlns:rdf="http://www.w3.org/1999/02/22-rdf-syntax-ns#"
   xmlns:svg="http://www.w3.org/2000/svg"
   xmlns="http://www.w3.org/2000/svg"
   xmlns:xlink="http://www.w3.org/1999/xlink"
   xmlns:sodipodi="http://sodipodi.sourceforge.net/DTD/sodipodi-0.dtd"
   xmlns:inkscape="http://www.inkscape.org/namespaces/inkscape"
   version="1.0"
   id="_x31_"
   x="0px"
   y="0px"
   width="350"
   height="350"
   viewBox="0 0 350 350"
   enable-background="new 0 0 612 792"
   xml:space="preserve"
   inkscape:version="0.48.3.1 r9886"
   sodipodi:docname="6017.svg"><metadata
   id="metadata52"><rdf:RDF><cc:Work
       rdf:about=""><dc:format>image/svg+xml</dc:format><dc:type
         rdf:resource="http://purl.org/dc/dcmitype/StillImage" /></cc:Work></rdf:RDF></metadata><defs
   id="defs50"><radialGradient
     r="333.18735"
     fy="467.91885"
     fx="373.24265"
     cy="467.91885"
     cx="373.24265"
     gradientTransform="matrix(0.83535069,2.5391116e-7,-2.4564601e-7,0.80815885,-725.97492,-115.98714)"
     gradientUnits="userSpaceOnUse"
     id="radialGradient4460"
     xlink:href="#linearGradient5443"
     inkscape:collect="always" /><linearGradient
     y2="254.73526"
     x2="123.47623"
     y1="344.03848"
     x1="123.50603"
     gradientTransform="matrix(2.3189708,0,0,2.0930998,-543.56606,-225.82362)"
     gradientUnits="userSpaceOnUse"
     id="linearGradient4458"
     xlink:href="#linearGradient3187"
     inkscape:collect="always" /><radialGradient
     r="333.18735"
     fy="710.99164"
     fx="373.24265"
     cy="710.99164"
     cx="373.24265"
     gradientTransform="matrix(0.86272606,1.0667183e-7,-5.1097113e-8,0.31433999,-736.19251,168.72353)"
     gradientUnits="userSpaceOnUse"
     id="radialGradient4456"
     xlink:href="#linearGradient5443"
     inkscape:collect="always" /><radialGradient
     r="333.18735"
     fy="467.91885"
     fx="373.24265"
     cy="467.91885"
     cx="373.24265"
     gradientTransform="matrix(0.83393192,2.4025531e-7,-2.452288e-7,0.76469446,-575.89311,126.3946)"
     gradientUnits="userSpaceOnUse"
     id="radialGradient2894-5"
     xlink:href="#linearGradient5443-0"
     inkscape:collect="always" /><linearGradient
     y2="254.73526"
     x2="123.47623"
     y1="344.03848"
     x1="123.50603"
     gradientTransform="matrix(2.3189708,0,0,2.0930998,-543.56606,-225.82362)"
     gradientUnits="userSpaceOnUse"
     id="linearGradient2892-2"
     xlink:href="#linearGradient3187-1"
     inkscape:collect="always" /><radialGradient
     r="333.18735"
     fy="710.99164"
     fx="373.24265"
     cy="710.99164"
     cx="373.24265"
     gradientTransform="matrix(0.8612608,1.0093481e-7,-5.1010329e-8,0.29743416,-586.09339,395.79293)"
     gradientUnits="userSpaceOnUse"
     id="radialGradient2890-7"
     xlink:href="#linearGradient5443-0"
     inkscape:collect="always" /><linearGradient
     id="linearGradient5443-5-6"><stop
       style="stop-color:#ffffff;stop-opacity:0;"
       offset="0"
       id="stop5445-4-1" /><stop
       style="stop-color:#000000;stop-opacity:0.33962265;"
       offset="1"
       id="stop5447-3-4" /></linearGradient><radialGradient
     r="333.18735"
     fy="710.99164"
     fx="373.24265"
     cy="710.99164"
     cx="373.24265"
     gradientTransform="matrix(0.9503534,1.1750652e-7,-5.6287062e-8,0.3462676,317.80591,185.68771)"
     gradientUnits="userSpaceOnUse"
     id="radialGradient4835-3-2"
     xlink:href="#linearGradient5443-5-6"
     inkscape:collect="always" /><radialGradient
     r="333.18735"
     fy="710.99164"
     fx="373.24265"
     cy="710.99164"
     cx="373.24265"
     gradientTransform="matrix(0.8612608,1.0093481e-7,-5.1010329e-8,0.29743416,-586.09339,395.79293)"
     gradientUnits="userSpaceOnUse"
     id="radialGradient4835-2"
     xlink:href="#linearGradient5443-0"
     inkscape:collect="always" /><radialGradient
     r="333.18735"
     fy="467.91885"
     fx="373.24265"
     cy="467.91885"
     cx="373.24265"
     gradientTransform="matrix(0.83393192,2.4025531e-7,-2.452288e-7,0.76469446,-575.89311,126.3946)"
     gradientUnits="userSpaceOnUse"
     id="radialGradient4832-1"
     xlink:href="#linearGradient5443-0"
     inkscape:collect="always" /><linearGradient
     y2="254.73526"
     x2="123.47623"
     y1="344.03848"
     x1="123.50603"
     gradientTransform="matrix(2.3189708,0,0,2.0930998,-543.56606,-225.82362)"
     gradientUnits="userSpaceOnUse"
     id="linearGradient4827-6"
     xlink:href="#linearGradient3187-1"
     inkscape:collect="always" /><linearGradient
     y2="254.73526"
     x2="123.47623"
     y1="344.03848"
     x1="123.50603"
     gradientTransform="matrix(2.3189708,0,0,2.0930998,93.115298,-256.84999)"
     gradientUnits="userSpaceOnUse"
     id="linearGradient4824-8"
     xlink:href="#linearGradient3187-1"
     inkscape:collect="always" /><radialGradient
     r="333.18735"
     fy="467.91885"
     fx="373.24265"
     cy="467.91885"
     cx="373.24265"
     gradientTransform="matrix(0.9201975,2.7970099e-7,-2.7059634e-7,0.8902438,28.590287,48.634335)"
     gradientUnits="userSpaceOnUse"
     id="radialGradient4822-5"
     xlink:href="#linearGradient3171-6"
     inkscape:collect="always" /><radialGradient
     r="333.18735"
     fy="710.99164"
     fx="373.24265"
     cy="710.99164"
     cx="373.24265"
     gradientTransform="matrix(0.9503534,1.1750652e-7,-5.6287062e-8,0.3462676,17.334826,362.44227)"
     gradientUnits="userSpaceOnUse"
     id="radialGradient4820-7"
     xlink:href="#linearGradient3157-2"
     inkscape:collect="always" /><radialGradient
     r="333.18735"
     fy="710.99164"
     fx="373.24265"
     cy="710.99164"
     cx="373.24265"
     gradientTransform="matrix(0.9503534,1.1750652e-7,-5.6287062e-8,0.3462676,17.334826,362.44227)"
     gradientUnits="userSpaceOnUse"
     id="radialGradient4805-6"
     xlink:href="#linearGradient3157-2"
     inkscape:collect="always" /><radialGradient
     r="333.18735"
     fy="467.91885"
     fx="373.24265"
     cy="467.91885"
     cx="373.24265"
     gradientTransform="matrix(0.9201975,2.7970099e-7,-2.7059634e-7,0.8902438,28.590287,48.634335)"
     gradientUnits="userSpaceOnUse"
     id="radialGradient4802-1"
     xlink:href="#linearGradient3171-6"
     inkscape:collect="always" /><linearGradient
     y2="254.73526"
     x2="123.47623"
     y1="344.03848"
     x1="123.50603"
     gradientTransform="matrix(2.3189708,0,0,2.0930998,93.115298,-256.84999)"
     gradientUnits="userSpaceOnUse"
     id="linearGradient4799-8"
     xlink:href="#linearGradient3187-1"
     inkscape:collect="always" /><linearGradient
     y2="254.73526"
     x2="123.47623"
     y1="344.03848"
     x1="123.50603"
     gradientTransform="matrix(2.3189708,0,0,2.0930998,93.115298,-256.84999)"
     gradientUnits="userSpaceOnUse"
     id="linearGradient4794-9"
     xlink:href="#linearGradient3187-1"
     inkscape:collect="always" /><radialGradient
     r="333.18735"
     fy="467.91885"
     fx="373.24265"
     cy="467.91885"
     cx="373.24265"
     gradientTransform="matrix(0.9201975,2.7970099e-7,-2.7059634e-7,0.8902438,28.590287,48.634335)"
     gradientUnits="userSpaceOnUse"
     id="radialGradient4792-2"
     xlink:href="#linearGradient3171-6"
     inkscape:collect="always" /><radialGradient
     r="333.18735"
     fy="710.99164"
     fx="373.24265"
     cy="710.99164"
     cx="373.24265"
     gradientTransform="matrix(0.9503534,1.1750652e-7,-5.6287062e-8,0.3462676,17.334826,362.44227)"
     gradientUnits="userSpaceOnUse"
     id="radialGradient4790-7"
     xlink:href="#linearGradient3157-2"
     inkscape:collect="always" /><radialGradient
     r="333.18735"
     fy="710.99164"
     fx="373.24265"
     cy="710.99164"
     cx="373.24265"
     gradientTransform="matrix(0.9503534,1.1750652e-7,-5.6287062e-8,0.3462676,17.334826,362.44227)"
     gradientUnits="userSpaceOnUse"
     id="radialGradient4779-9"
     xlink:href="#linearGradient3157-2"
     inkscape:collect="always" /><radialGradient
     r="333.18735"
     fy="467.91885"
     fx="373.24265"
     cy="467.91885"
     cx="373.24265"
     gradientTransform="matrix(0.9201975,2.7970099e-7,-2.7059634e-7,0.8902438,28.590287,48.634335)"
     gradientUnits="userSpaceOnUse"
     id="radialGradient4776-5"
     xlink:href="#linearGradient3171-6"
     inkscape:collect="always" /><linearGradient
     y2="254.73526"
     x2="123.47623"
     y1="344.03848"
     x1="123.50603"
     gradientTransform="matrix(2.3189708,0,0,2.0930998,93.115298,-256.84999)"
     gradientUnits="userSpaceOnUse"
     id="linearGradient4773-4"
     xlink:href="#linearGradient3187-1"
     inkscape:collect="always" /><linearGradient
     y2="254.73526"
     x2="123.47623"
     y1="344.03848"
     x1="123.50603"
     gradientTransform="matrix(2.3189708,0,0,2.0930998,93.115298,-256.84999)"
     gradientUnits="userSpaceOnUse"
     id="linearGradient4770-3"
     xlink:href="#linearGradient3187-1"
     inkscape:collect="always" /><radialGradient
     r="333.18735"
     fy="467.91885"
     fx="373.24265"
     cy="467.91885"
     cx="373.24265"
     gradientTransform="matrix(0.9201975,2.7970099e-7,-2.7059634e-7,0.8902438,28.590287,48.634335)"
     gradientUnits="userSpaceOnUse"
     id="radialGradient4768-1"
     xlink:href="#linearGradient3171-6"
     inkscape:collect="always" /><radialGradient
     r="333.18735"
     fy="710.99164"
     fx="373.24265"
     cy="710.99164"
     cx="373.24265"
     gradientTransform="matrix(0.9503534,1.1750652e-7,-5.6287062e-8,0.3462676,17.334826,362.44227)"
     gradientUnits="userSpaceOnUse"
     id="radialGradient4766-2"
     xlink:href="#linearGradient3157-2"
     inkscape:collect="always" /><radialGradient
     r="333.18735"
     fy="710.99164"
     fx="373.24265"
     cy="710.99164"
     cx="373.24265"
     gradientTransform="matrix(0.9503534,1.1750652e-7,-5.6287062e-8,0.3462676,17.334826,362.44227)"
     gradientUnits="userSpaceOnUse"
     id="radialGradient4572-4"
     xlink:href="#linearGradient3157-2"
     inkscape:collect="always" /><radialGradient
     r="333.18735"
     fy="467.91885"
     fx="373.24265"
     cy="467.91885"
     cx="373.24265"
     gradientTransform="matrix(0.9201975,2.7970099e-7,-2.7059634e-7,0.8902438,28.590287,48.634335)"
     gradientUnits="userSpaceOnUse"
     id="radialGradient4569-1"
     xlink:href="#linearGradient3171-6"
     inkscape:collect="always" /><linearGradient
     y2="254.73526"
     x2="123.47623"
     y1="344.03848"
     x1="123.50603"
     gradientTransform="matrix(2.3189708,0,0,2.0930998,93.115298,-256.84999)"
     gradientUnits="userSpaceOnUse"
     id="linearGradient4562-1"
     xlink:href="#linearGradient3187-1"
     inkscape:collect="always" /><linearGradient
     gradientUnits="userSpaceOnUse"
     y2="540.86719"
     x2="360.49777"
     y1="167.50403"
     x1="360.49777"
     id="linearGradient4401-3"
     xlink:href="#linearGradient4395-7"
     inkscape:collect="always" /><linearGradient
     gradientUnits="userSpaceOnUse"
     y2="655.4505"
     x2="396.91168"
     y1="298.59412"
     x1="371.42194"
     id="linearGradient4389-8"
     xlink:href="#linearGradient4383-4"
     inkscape:collect="always" /><inkscape:perspective
     id="perspective3214-7"
     inkscape:persp3d-origin="372.04724 : 350.78739 : 1"
     inkscape:vp_z="744.09448 : 526.18109 : 1"
     inkscape:vp_y="0 : 1000 : 0"
     inkscape:vp_x="0 : 526.18109 : 1"
     sodipodi:type="inkscape:persp3d" /><linearGradient
     id="linearGradient4383-4"><stop
       id="stop4385-2"
       offset="0"
       style="stop-color:#00037f;stop-opacity:1;" /><stop
       id="stop4387-7"
       offset="1"
       style="stop-color:#00037f;stop-opacity:0;" /></linearGradient><linearGradient
     id="linearGradient4395-7"><stop
       id="stop4397-9"
       offset="0"
       style="stop-color:#110084;stop-opacity:1;" /><stop
       id="stop4399-3"
       offset="1"
       style="stop-color:#a695ff;stop-opacity:1;" /></linearGradient><linearGradient
     id="linearGradient3187-1"><stop
       id="stop3189-9"
       offset="0"
       style="stop-color:#ffffff;stop-opacity:0.39622641;" /><stop
       id="stop3191-8"
       offset="1"
       style="stop-color:#000000;stop-opacity:1;" /></linearGradient><linearGradient
     id="linearGradient3171-6"><stop
       style="stop-color:#49bcff;stop-opacity:1;"
       offset="0"
       id="stop3173-5" /><stop
       style="stop-color:#494cdc;stop-opacity:1;"
       offset="1"
       id="stop3175-0" /></linearGradient><linearGradient
     id="linearGradient3157-2"><stop
       id="stop3159-8"
       offset="0"
       style="stop-color:#49bcff;stop-opacity:1;" /><stop
       id="stop3161-6"
       offset="1"
       style="stop-color:#494c96;stop-opacity:1;" /></linearGradient><linearGradient
     id="linearGradient5443-0"><stop
       style="stop-color:#ffffff;stop-opacity:0;"
       offset="0"
       id="stop5445-2" /><stop
       style="stop-color:#000000;stop-opacity:0.33962265;"
       offset="1"
       id="stop5447-4" /></linearGradient><radialGradient
     inkscape:collect="always"
     xlink:href="#linearGradient5443-0"
     id="radialGradient3234"
     gradientUnits="userSpaceOnUse"
     gradientTransform="matrix(0.8612608,1.0093481e-7,-5.1010329e-8,0.29743416,-586.09339,395.79293)"
     cx="373.24265"
     cy="710.99164"
     fx="373.24265"
     fy="710.99164"
     r="333.18735" /><linearGradient
     inkscape:collect="always"
     xlink:href="#linearGradient3187-1"
     id="linearGradient3236"
     gradientUnits="userSpaceOnUse"
     gradientTransform="matrix(2.3189708,0,0,2.0930998,-543.56606,-225.82362)"
     x1="123.50603"
     y1="344.03848"
     x2="123.47623"
     y2="254.73526" /><radialGradient
     inkscape:collect="always"
     xlink:href="#linearGradient5443-0"
     id="radialGradient3238"
     gradientUnits="userSpaceOnUse"
     gradientTransform="matrix(0.83393192,2.4025531e-7,-2.452288e-7,0.76469446,-575.89311,126.3946)"
     cx="373.24265"
     cy="467.91885"
     fx="373.24265"
     fy="467.91885"
     r="333.18735" /><radialGradient
     inkscape:collect="always"
     xlink:href="#linearGradient5443-0"
     id="radialGradient3254"
     gradientUnits="userSpaceOnUse"
     gradientTransform="matrix(0.8612608,1.0093481e-7,-5.1010329e-8,0.29743416,-586.09339,395.79293)"
     cx="373.24265"
     cy="710.99164"
     fx="373.24265"
     fy="710.99164"
     r="333.18735" /><linearGradient
     inkscape:collect="always"
     xlink:href="#linearGradient3187-1"
     id="linearGradient3256"
     gradientUnits="userSpaceOnUse"
     gradientTransform="matrix(2.3189708,0,0,2.0930998,-543.56606,-225.82362)"
     x1="123.50603"
     y1="344.03848"
     x2="123.47623"
     y2="254.73526" /><radialGradient
     inkscape:collect="always"
     xlink:href="#linearGradient5443-0"
     id="radialGradient3258"
     gradientUnits="userSpaceOnUse"
     gradientTransform="matrix(0.83393192,2.4025531e-7,-2.452288e-7,0.76469446,-575.89311,126.3946)"
     cx="373.24265"
     cy="467.91885"
     fx="373.24265"
     fy="467.91885"
     r="333.18735" /><radialGradient
     inkscape:collect="always"
     xlink:href="#linearGradient5443-0"
     id="radialGradient3270"
     gradientUnits="userSpaceOnUse"
     gradientTransform="matrix(0.83535069,2.5391116e-7,-2.4564601e-7,0.80815885,-821.89024,-331.16994)"
     cx="373.24265"
     cy="467.91885"
     fx="373.24265"
     fy="467.91885"
     r="333.18735" /><radialGradient
     inkscape:collect="always"
     xlink:href="#linearGradient5443-0"
     id="radialGradient3274"
     gradientUnits="userSpaceOnUse"
     gradientTransform="matrix(0.86272606,1.0667183e-7,-5.1097113e-8,0.31433999,-832.10787,-46.459305)"
     cx="373.24265"
     cy="710.99164"
     fx="373.24265"
     fy="710.99164"
     r="333.18735" /><linearGradient
     y2="254.73526"
     x2="123.47623"
     y1="344.03848"
     x1="123.50603"
     gradientTransform="matrix(2.3189708,0,0,2.0930998,-543.56606,-225.82362)"
     gradientUnits="userSpaceOnUse"
     id="linearGradient3422"
     xlink:href="#linearGradient3187"
     inkscape:collect="always" /><radialGradient
     r="333.18735"
     fy="710.99164"
     fx="373.24265"
     cy="710.99164"
     cx="373.24265"
     gradientTransform="matrix(0.86272606,1.0667183e-7,-5.1097113e-8,0.31433999,-736.19251,168.72353)"
     gradientUnits="userSpaceOnUse"
     id="radialGradient3416"
     xlink:href="#linearGradient5443"
     inkscape:collect="always" /><radialGradient
     r="333.18735"
     fy="467.91885"
     fx="373.24265"
     cy="467.91885"
     cx="373.24265"
     gradientTransform="matrix(0.83535069,2.5391116e-7,-2.4564601e-7,0.80815885,-725.97492,-115.98714)"
     gradientUnits="userSpaceOnUse"
     id="radialGradient3412"
     xlink:href="#linearGradient5443"
     inkscape:collect="always" /><radialGradient
     r="333.18735"
     fy="467.91885"
     fx="373.24265"
     cy="467.91885"
     cx="373.24265"
     gradientTransform="matrix(0.83393192,2.4025531e-7,-2.452288e-7,0.76469446,-575.89311,126.3946)"
     gradientUnits="userSpaceOnUse"
     id="radialGradient2894"
     xlink:href="#linearGradient5443"
     inkscape:collect="always" /><linearGradient
     y2="254.73526"
     x2="123.47623"
     y1="344.03848"
     x1="123.50603"
     gradientTransform="matrix(2.3189708,0,0,2.0930998,-543.56606,-225.82362)"
     gradientUnits="userSpaceOnUse"
     id="linearGradient2892"
     xlink:href="#linearGradient3187"
     inkscape:collect="always" /><radialGradient
     r="333.18735"
     fy="710.99164"
     fx="373.24265"
     cy="710.99164"
     cx="373.24265"
     gradientTransform="matrix(0.8612608,1.0093481e-7,-5.1010329e-8,0.29743416,-586.09339,395.79293)"
     gradientUnits="userSpaceOnUse"
     id="radialGradient2890"
     xlink:href="#linearGradient5443"
     inkscape:collect="always" /><linearGradient
     id="linearGradient5443-5"><stop
       style="stop-color:#ffffff;stop-opacity:0;"
       offset="0"
       id="stop5445-4" /><stop
       style="stop-color:#000000;stop-opacity:0.33962265;"
       offset="1"
       id="stop5447-3" /></linearGradient><radialGradient
     r="333.18735"
     fy="710.99164"
     fx="373.24265"
     cy="710.99164"
     cx="373.24265"
     gradientTransform="matrix(0.9503534,1.1750652e-7,-5.6287062e-8,0.3462676,317.80591,185.68771)"
     gradientUnits="userSpaceOnUse"
     id="radialGradient4835-3"
     xlink:href="#linearGradient5443-5"
     inkscape:collect="always" /><filter
     color-interpolation-filters="sRGB"
     id="filter5511"
     inkscape:collect="always"><feGaussianBlur
       id="feGaussianBlur5513"
       stdDeviation="3.2374974"
       inkscape:collect="always" /></filter><radialGradient
     r="333.18735"
     fy="710.99164"
     fx="373.24265"
     cy="710.99164"
     cx="373.24265"
     gradientTransform="matrix(0.8612608,1.0093481e-7,-5.1010329e-8,0.29743416,-586.09339,395.79293)"
     gradientUnits="userSpaceOnUse"
     id="radialGradient4835"
     xlink:href="#linearGradient5443"
     inkscape:collect="always" /><radialGradient
     r="333.18735"
     fy="467.91885"
     fx="373.24265"
     cy="467.91885"
     cx="373.24265"
     gradientTransform="matrix(0.83393192,2.4025531e-7,-2.452288e-7,0.76469446,-575.89311,126.3946)"
     gradientUnits="userSpaceOnUse"
     id="radialGradient4832"
     xlink:href="#linearGradient5443"
     inkscape:collect="always" /><linearGradient
     y2="254.73526"
     x2="123.47623"
     y1="344.03848"
     x1="123.50603"
     gradientTransform="matrix(2.3189708,0,0,2.0930998,-543.56606,-225.82362)"
     gradientUnits="userSpaceOnUse"
     id="linearGradient4827"
     xlink:href="#linearGradient3187"
     inkscape:collect="always" /><linearGradient
     y2="254.73526"
     x2="123.47623"
     y1="344.03848"
     x1="123.50603"
     gradientTransform="matrix(2.3189708,0,0,2.0930998,93.115298,-256.84999)"
     gradientUnits="userSpaceOnUse"
     id="linearGradient4824"
     xlink:href="#linearGradient3187"
     inkscape:collect="always" /><radialGradient
     r="333.18735"
     fy="467.91885"
     fx="373.24265"
     cy="467.91885"
     cx="373.24265"
     gradientTransform="matrix(0.9201975,2.7970099e-7,-2.7059634e-7,0.8902438,28.590287,48.634335)"
     gradientUnits="userSpaceOnUse"
     id="radialGradient4822"
     xlink:href="#linearGradient3171"
     inkscape:collect="always" /><radialGradient
     r="333.18735"
     fy="710.99164"
     fx="373.24265"
     cy="710.99164"
     cx="373.24265"
     gradientTransform="matrix(0.9503534,1.1750652e-7,-5.6287062e-8,0.3462676,17.334826,362.44227)"
     gradientUnits="userSpaceOnUse"
     id="radialGradient4820"
     xlink:href="#linearGradient3157"
     inkscape:collect="always" /><radialGradient
     r="333.18735"
     fy="710.99164"
     fx="373.24265"
     cy="710.99164"
     cx="373.24265"
     gradientTransform="matrix(0.9503534,1.1750652e-7,-5.6287062e-8,0.3462676,17.334826,362.44227)"
     gradientUnits="userSpaceOnUse"
     id="radialGradient4805"
     xlink:href="#linearGradient3157"
     inkscape:collect="always" /><radialGradient
     r="333.18735"
     fy="467.91885"
     fx="373.24265"
     cy="467.91885"
     cx="373.24265"
     gradientTransform="matrix(0.9201975,2.7970099e-7,-2.7059634e-7,0.8902438,28.590287,48.634335)"
     gradientUnits="userSpaceOnUse"
     id="radialGradient4802"
     xlink:href="#linearGradient3171"
     inkscape:collect="always" /><linearGradient
     y2="254.73526"
     x2="123.47623"
     y1="344.03848"
     x1="123.50603"
     gradientTransform="matrix(2.3189708,0,0,2.0930998,93.115298,-256.84999)"
     gradientUnits="userSpaceOnUse"
     id="linearGradient4799"
     xlink:href="#linearGradient3187"
     inkscape:collect="always" /><linearGradient
     y2="254.73526"
     x2="123.47623"
     y1="344.03848"
     x1="123.50603"
     gradientTransform="matrix(2.3189708,0,0,2.0930998,93.115298,-256.84999)"
     gradientUnits="userSpaceOnUse"
     id="linearGradient4794"
     xlink:href="#linearGradient3187"
     inkscape:collect="always" /><radialGradient
     r="333.18735"
     fy="467.91885"
     fx="373.24265"
     cy="467.91885"
     cx="373.24265"
     gradientTransform="matrix(0.9201975,2.7970099e-7,-2.7059634e-7,0.8902438,28.590287,48.634335)"
     gradientUnits="userSpaceOnUse"
     id="radialGradient4792"
     xlink:href="#linearGradient3171"
     inkscape:collect="always" /><radialGradient
     r="333.18735"
     fy="710.99164"
     fx="373.24265"
     cy="710.99164"
     cx="373.24265"
     gradientTransform="matrix(0.9503534,1.1750652e-7,-5.6287062e-8,0.3462676,17.334826,362.44227)"
     gradientUnits="userSpaceOnUse"
     id="radialGradient4790"
     xlink:href="#linearGradient3157"
     inkscape:collect="always" /><radialGradient
     r="333.18735"
     fy="710.99164"
     fx="373.24265"
     cy="710.99164"
     cx="373.24265"
     gradientTransform="matrix(0.9503534,1.1750652e-7,-5.6287062e-8,0.3462676,17.334826,362.44227)"
     gradientUnits="userSpaceOnUse"
     id="radialGradient4779"
     xlink:href="#linearGradient3157"
     inkscape:collect="always" /><radialGradient
     r="333.18735"
     fy="467.91885"
     fx="373.24265"
     cy="467.91885"
     cx="373.24265"
     gradientTransform="matrix(0.9201975,2.7970099e-7,-2.7059634e-7,0.8902438,28.590287,48.634335)"
     gradientUnits="userSpaceOnUse"
     id="radialGradient4776"
     xlink:href="#linearGradient3171"
     inkscape:collect="always" /><linearGradient
     y2="254.73526"
     x2="123.47623"
     y1="344.03848"
     x1="123.50603"
     gradientTransform="matrix(2.3189708,0,0,2.0930998,93.115298,-256.84999)"
     gradientUnits="userSpaceOnUse"
     id="linearGradient4773"
     xlink:href="#linearGradient3187"
     inkscape:collect="always" /><linearGradient
     y2="254.73526"
     x2="123.47623"
     y1="344.03848"
     x1="123.50603"
     gradientTransform="matrix(2.3189708,0,0,2.0930998,93.115298,-256.84999)"
     gradientUnits="userSpaceOnUse"
     id="linearGradient4770"
     xlink:href="#linearGradient3187"
     inkscape:collect="always" /><radialGradient
     r="333.18735"
     fy="467.91885"
     fx="373.24265"
     cy="467.91885"
     cx="373.24265"
     gradientTransform="matrix(0.9201975,2.7970099e-7,-2.7059634e-7,0.8902438,28.590287,48.634335)"
     gradientUnits="userSpaceOnUse"
     id="radialGradient4768"
     xlink:href="#linearGradient3171"
     inkscape:collect="always" /><radialGradient
     r="333.18735"
     fy="710.99164"
     fx="373.24265"
     cy="710.99164"
     cx="373.24265"
     gradientTransform="matrix(0.9503534,1.1750652e-7,-5.6287062e-8,0.3462676,17.334826,362.44227)"
     gradientUnits="userSpaceOnUse"
     id="radialGradient4766"
     xlink:href="#linearGradient3157"
     inkscape:collect="always" /><filter
     color-interpolation-filters="sRGB"
     id="filter4659"
     inkscape:collect="always"><feGaussianBlur
       id="feGaussianBlur4661"
       stdDeviation="2.7750933"
       inkscape:collect="always" /></filter><radialGradient
     r="333.18735"
     fy="710.99164"
     fx="373.24265"
     cy="710.99164"
     cx="373.24265"
     gradientTransform="matrix(0.9503534,1.1750652e-7,-5.6287062e-8,0.3462676,17.334826,362.44227)"
     gradientUnits="userSpaceOnUse"
     id="radialGradient4572"
     xlink:href="#linearGradient3157"
     inkscape:collect="always" /><radialGradient
     r="333.18735"
     fy="467.91885"
     fx="373.24265"
     cy="467.91885"
     cx="373.24265"
     gradientTransform="matrix(0.9201975,2.7970099e-7,-2.7059634e-7,0.8902438,28.590287,48.634335)"
     gradientUnits="userSpaceOnUse"
     id="radialGradient4569"
     xlink:href="#linearGradient3171"
     inkscape:collect="always" /><linearGradient
     y2="254.73526"
     x2="123.47623"
     y1="344.03848"
     x1="123.50603"
     gradientTransform="matrix(2.3189708,0,0,2.0930998,93.115298,-256.84999)"
     gradientUnits="userSpaceOnUse"
     id="linearGradient4562"
     xlink:href="#linearGradient3187"
     inkscape:collect="always" /><linearGradient
     gradientUnits="userSpaceOnUse"
     y2="540.86719"
     x2="360.49777"
     y1="167.50403"
     x1="360.49777"
     id="linearGradient4401"
     xlink:href="#linearGradient4395"
     inkscape:collect="always" /><linearGradient
     gradientUnits="userSpaceOnUse"
     y2="655.4505"
     x2="396.91168"
     y1="298.59412"
     x1="371.42194"
     id="linearGradient4389"
     xlink:href="#linearGradient4383"
     inkscape:collect="always" /><inkscape:perspective
     id="perspective3214"
     inkscape:persp3d-origin="372.04724 : 350.78739 : 1"
     inkscape:vp_z="744.09448 : 526.18109 : 1"
     inkscape:vp_y="0 : 1000 : 0"
     inkscape:vp_x="0 : 526.18109 : 1"
     sodipodi:type="inkscape:persp3d" /><linearGradient
     id="linearGradient4383"><stop
       id="stop4385"
       offset="0"
       style="stop-color:#00037f;stop-opacity:1;" /><stop
       id="stop4387"
       offset="1"
       style="stop-color:#00037f;stop-opacity:0;" /></linearGradient><linearGradient
     id="linearGradient4395"><stop
       id="stop4397"
       offset="0"
       style="stop-color:#110084;stop-opacity:1;" /><stop
       id="stop4399"
       offset="1"
       style="stop-color:#a695ff;stop-opacity:1;" /></linearGradient><linearGradient
     id="linearGradient3187"><stop
       id="stop3189"
       offset="0"
       style="stop-color:#ffffff;stop-opacity:0.39622641;" /><stop
       id="stop3191"
       offset="1"
       style="stop-color:#9e9e9e;stop-opacity:1;" /></linearGradient><linearGradient
     id="linearGradient3171"><stop
       style="stop-color:#49bcff;stop-opacity:1;"
       offset="0"
       id="stop3173" /><stop
       style="stop-color:#494cdc;stop-opacity:1;"
       offset="1"
       id="stop3175" /></linearGradient><linearGradient
     id="linearGradient3157"><stop
       id="stop3159"
       offset="0"
       style="stop-color:#49bcff;stop-opacity:1;" /><stop
       id="stop3161"
       offset="1"
       style="stop-color:#494c96;stop-opacity:1;" /></linearGradient><linearGradient
     id="linearGradient5443"><stop
       style="stop-color:#ffffff;stop-opacity:0;"
       offset="0"
       id="stop5445" /><stop
       style="stop-color:#cbcac8;stop-opacity:1;"
       offset="1"
       id="stop5447" /></linearGradient><radialGradient
     inkscape:collect="always"
     xlink:href="#linearGradient5443"
     id="radialGradient3253"
     gradientUnits="userSpaceOnUse"
     gradientTransform="matrix(0.8612608,1.0093481e-7,-5.1010329e-8,0.29743416,-586.09339,395.79293)"
     cx="373.24265"
     cy="710.99164"
     fx="373.24265"
     fy="710.99164"
     r="333.18735" /><linearGradient
     inkscape:collect="always"
     xlink:href="#linearGradient3187"
     id="linearGradient3255"
     gradientUnits="userSpaceOnUse"
     gradientTransform="matrix(2.3189708,0,0,2.0930998,-543.56606,-225.82362)"
     x1="123.50603"
     y1="344.03848"
     x2="123.47623"
     y2="254.73526" /><radialGradient
     inkscape:collect="always"
     xlink:href="#linearGradient5443"
     id="radialGradient3257"
     gradientUnits="userSpaceOnUse"
     gradientTransform="matrix(0.83393192,2.4025531e-7,-2.452288e-7,0.76469446,-575.89311,126.3946)"
     cx="373.24265"
     cy="467.91885"
     fx="373.24265"
     fy="467.91885"
     r="333.18735" /><radialGradient
     inkscape:collect="always"
     xlink:href="#linearGradient5443"
     id="radialGradient3273"
     gradientUnits="userSpaceOnUse"
     gradientTransform="matrix(0.8612608,1.0093481e-7,-5.1010329e-8,0.29743416,-586.09339,395.79293)"
     cx="373.24265"
     cy="710.99164"
     fx="373.24265"
     fy="710.99164"
     r="333.18735" /><linearGradient
     inkscape:collect="always"
     xlink:href="#linearGradient3187"
     id="linearGradient3275"
     gradientUnits="userSpaceOnUse"
     gradientTransform="matrix(2.3189708,0,0,2.0930998,-543.56606,-225.82362)"
     x1="123.50603"
     y1="344.03848"
     x2="123.47623"
     y2="254.73526" /><radialGradient
     inkscape:collect="always"
     xlink:href="#linearGradient5443"
     id="radialGradient3277"
     gradientUnits="userSpaceOnUse"
     gradientTransform="matrix(0.83393192,2.4025531e-7,-2.452288e-7,0.76469446,-575.89311,126.3946)"
     cx="373.24265"
     cy="467.91885"
     fx="373.24265"
     fy="467.91885"
     r="333.18735" /></defs><sodipodi:namedview
   pagecolor="#ffffff"
   bordercolor="#666666"
   borderopacity="1"
   objecttolerance="10"
   gridtolerance="10"
   guidetolerance="10"
   inkscape:pageopacity="0"
   inkscape:pageshadow="2"
   inkscape:window-width="1920"
   inkscape:window-height="1031"
   id="namedview48"
   showgrid="false"
   fit-margin-top="0"
   fit-margin-left="0"
   fit-margin-right="0"
   fit-margin-bottom="0"
   inkscape:zoom="1.1919192"
   inkscape:cx="404.66679"
   inkscape:cy="-17.067032"
   inkscape:window-x="-4"
   inkscape:window-y="-4"
   inkscape:window-maximized="1"
   inkscape:current-layer="_x31_" />














<g
   id="g4229"
   transform="translate(-4.0524846e-6,1.5294449e-7)"><g
     transform="translate(589.18636,-87.165827)"
     id="g4448"><rect
       transform="matrix(2.1051501,0,0,2.1051501,-860.18934,-1.2010596)"
       ry="12.45238"
       rx="16.067965"
       y="48.636749"
       x="135.39355"
       height="152.93848"
       width="152.93848"
       id="rect4192"
       style="fill:#cccccc;fill-opacity:1;stroke:none;filter:url(#filter4659)"
       inkscape:export-filename="C:\Documents and Settings\adscro24\Desktop\128.png"
       inkscape:export-xdpi="29.879425"
       inkscape:export-ydpi="29.879425" /><rect
       inkscape:export-ydpi="29.879425"
       inkscape:export-xdpi="29.879425"
       inkscape:export-filename="C:\Documents and Settings\adscro24\Desktop\128.png"
       style="fill:#cbcac8;fill-opacity:1;stroke:none;filter:url(#filter4659)"
       id="rect3279"
       width="152.93848"
       height="152.93848"
       x="135.39355"
       y="48.636749"
       rx="16.067965"
       ry="12.45238"
       transform="matrix(2.1051501,0,0,2.1051501,-860.18934,-1.2010596)" /><rect
       inkscape:export-ydpi="29.879425"
       inkscape:export-xdpi="29.879425"
       inkscape:export-filename="C:\Documents and Settings\adscro24\Desktop\128.png"
       style="opacity:0.61338286;fill:url(#radialGradient4456);fill-opacity:1;stroke:#000000;stroke-width:3.26806188;stroke-miterlimit:4;stroke-opacity:1;stroke-dasharray:none"
       id="rect3155"
       width="321.95847"
       height="321.95844"
       x="-575.16559"
       y="101.18661"
       rx="33.825478"
       ry="26.214128" /><path
       transform="matrix(0.907795,0,0,0.90779498,-173.95283,-177.39738)"
       inkscape:export-ydpi="29.879425"
       inkscape:export-xdpi="29.879425"
       inkscape:export-filename="C:\Documents and Settings\adscro24\Desktop\128.png"
       inkscape:connector-curvature="0"
       style="opacity:0.61338286;fill:url(#linearGradient4458);fill-opacity:1;stroke:none;filter:url(#filter5511)"
       d="m -397.80626,329.07489 c -19.62748,0 -35.44272,12.0976 -35.44272,27.14163 l 0,124.30857 c 29.25482,11.38638 132.70149,11.89599 165.40488,-5.79022 33.32802,-18.02397 127.54379,-68.44264 171.824837,-52.72052 l 0,-65.79783 c 0,-15.04403 -15.798597,-27.14163 -35.426097,-27.14163 l -266.3609,0 z m -35.44272,263.47103 0,42.88373 c 0,1.33144 0.14331,2.63588 0.38253,3.915 -0.11919,-12.81092 -0.25965,-28.88939 -0.38253,-46.79873 z"
       id="rect3177" /><rect
       inkscape:export-ydpi="29.879425"
       inkscape:export-xdpi="29.879425"
       inkscape:export-filename="C:\Documents and Settings\adscro24\Desktop\128.png"
       style="opacity:0.61338286;fill:url(#radialGradient4460);fill-opacity:1;stroke:#ffffff;stroke-width:0.68992418;stroke-linecap:square;stroke-miterlimit:4;stroke-opacity:1;stroke-dasharray:none"
       id="rect3473"
       width="306.12445"
       height="306.12445"
       x="-567.2486"
       y="109.1036"
       rx="32.161926"
       ry="24.924911" /><rect
       inkscape:export-ydpi="29.879425"
       inkscape:export-xdpi="29.879425"
       inkscape:export-filename="C:\Documents and Settings\adscro24\Desktop\128.png"
       style="opacity:0.61338286;fill:#ffffff;fill-opacity:0;stroke:#000000;stroke-width:3.26806188;stroke-miterlimit:4;stroke-opacity:1;stroke-dasharray:none"
       id="rect3155-2"
       width="321.95847"
       height="321.95844"
       x="-575.16559"
       y="101.18661"
       rx="33.825478"
       ry="26.214128" /></g><g
     transform="translate(358.29183,-87.165827)"
     id="LWPOLYLINE_2_-7">
	
		
</g><g
     transform="translate(358.29183,-87.165827)"
     id="LWPOLYLINE_3_-4">
	
		
</g><g
     transform="translate(358.29183,-87.165827)"
     id="LWPOLYLINE_4_-0">
	
		
</g><g
     transform="translate(184.65055,-351.95215)"
     style="fill:#000000;fill-opacity:1;stroke:none"
     id="LWPOLYLINE_6_-7">
	
		
</g><g
     transform="translate(184.65055,-351.95215)"
     style="fill:#000000;fill-opacity:1;stroke:none"
     id="LWPOLYLINE-4">
	
		
</g><g
     transform="translate(184.65055,-351.95215)"
     style="fill:#000000;fill-opacity:1;stroke:none"
     id="LWPOLYLINE_3_-0">
	
		
</g></g><g
   id="g3802"
   transform="matrix(0.500001,0,0,0.500001,21.749689,-22.75015)"><g
     style="fill:#000000;fill-opacity:1;stroke:none"
     id="LWPOLYLINE_2_">
	
		<path
   id="path10"
   d="m 132.84375,364.625 0,115.5625 0.25,0 0.3125,0 0.4375,0 0.53125,0 0.65625,0 0.71875,0 0.8125,0 0.875,0 1,0 1.03125,0 1.125,0 1.125,0 1.21875,0 1.25,0 1.28125,0 1.3125,0 1.3125,0 1.3125,0 1.34375,0 1.375,0 1.34375,0 1.3125,0 1.3125,0 1.25,0 1.25,0 1.21875,0 1.125,0 1.09375,0 1.0625,0 0.96875,0 0.90625,0 0.8125,0 0.71875,0 0.65625,0 0.53125,0 0.4375,0 0.3125,0 0.25,0 1,0 1,-0.0625 1.03125,0 1.0625,-0.0937 1.0625,-0.0312 1.09375,-0.0937 1.125,-0.0937 1.125,-0.15625 1.125,-0.1875 1.125,-0.21875 1.15625,-0.21875 1.125,-0.3125 1.125,-0.34375 1.125,-0.3125 1.125,-0.40625 1.125,-0.4375 1.09375,-0.5 1.0625,-0.53125 1.0625,-0.5625 1.0625,-0.6875 1,-0.6875 0.96875,-0.78125 0.96875,-0.8125 0.90625,-0.875 0.90625,-0.9375 0.84375,-1.03125 0.8125,-1.0625 0.78125,-1.15625 0.71875,-1.21875 0.65625,-1.3125 0.65625,-1.40625 0.5625,-1.46875 0.53125,-1.5625 0.4375,-1.59375 0.375,-1.75 0.34375,-1.8125 0.25,-1.875 0.1875,-2 0.125,-2.09375 0.0312,-2.1875 0,-1.15625 -0.0625,-1.1875 -0.0625,-1.15625 -0.0937,-1.125 -0.125,-1.0625 -0.125,-1.0625 -0.1875,-1.09375 -0.21875,-1 -0.21875,-0.96875 -0.25,-1 -0.3125,-0.96875 -0.28125,-0.90625 -0.34375,-0.875 -0.375,-0.875 L 199.5,432 l -0.4375,-0.84375 -0.4375,-0.78125 -0.46875,-0.78125 -0.53125,-0.71875 -0.5625,-0.71875 -0.5625,-0.75 -0.625,-0.625 -0.625,-0.6875 -0.65625,-0.5625 -0.6875,-0.59375 -0.75,-0.59375 -0.75,-0.53125 -0.78125,-0.46875 -0.8125,-0.5 -0.875,-0.46875 -0.875,-0.40625 -0.90625,-0.4375 -0.9375,-0.34375 -1,-0.34375 -1,-0.34375 -1.0625,-0.25 -1.09375,-0.25 -1.09375,-0.21875 -1.125,-0.1875 -1.1875,-0.1875 1,-0.3125 1,-0.3125 0.96875,-0.34375 0.9375,-0.34375 0.90625,-0.40625 0.875,-0.40625 0.8125,-0.40625 0.8125,-0.4375 0.78125,-0.46875 0.75,-0.5 0.6875,-0.46875 0.6875,-0.53125 0.65625,-0.5625 0.625,-0.53125 0.59375,-0.59375 0.59375,-0.59375 0.53125,-0.625 0.5,-0.625 0.5,-0.65625 0.46875,-0.6875 0.4375,-0.71875 0.40625,-0.71875 0.375,-0.71875 0.375,-0.78125 0.3125,-0.78125 0.3125,-0.8125 0.3125,-0.8125 0.25,-0.84375 0.25,-0.875 0.1875,-0.875 0.1875,-0.9375 0.21875,-0.9375 0.125,-0.96875 0.125,-0.96875 0.125,-1 0.0625,-1.03125 0.0937,-1.03125 0.0312,-1.0625 0.0312,-1.0625 0,-1.125 0,-0.34375 c 0,-0.195 -0.0312,-0.40625 -0.0312,-0.40625 -0.024,-0.244 -0.0312,-0.46875 -0.0312,-0.46875 l -0.0312,-0.25 -0.0312,-0.28125 -0.0312,-0.28125 -0.0625,-0.3125 -0.0625,-0.3125 -0.0312,-0.3125 -0.0625,-0.34375 -0.0625,-0.375 -0.0625,-0.34375 -0.0937,-0.375 -0.0937,-0.375 -0.0937,-0.375 -0.0937,-0.40625 -0.125,-0.4375 -0.0937,-0.40625 -0.125,-0.40625 -0.15625,-0.4375 -0.125,-0.40625 -0.15625,-0.4375 -0.15625,-0.46875 -0.15625,-0.4375 -0.1875,-0.46875 -0.15625,-0.4375 -0.1875,-0.46875 -0.21875,-0.46875 -0.1875,-0.4375 -0.21875,-0.46875 -0.25,-0.46875 -0.25,-0.46875 -0.25,-0.4375 -0.25,-0.46875 -0.28125,-0.4375 -0.25,-0.46875 -0.3125,-0.4375 -0.3125,-0.53125 -0.28125,-0.53125 -0.3125,-0.46875 -0.3125,-0.5 -0.34375,-0.5 -0.3125,-0.46875 -0.34375,-0.46875 -0.375,-0.4375 -0.375,-0.46875 -0.34375,-0.4375 -0.40625,-0.4375 -0.40625,-0.40625 -0.40625,-0.4375 -0.4375,-0.375 -0.46875,-0.40625 -0.46875,-0.34375 -0.46875,-0.375 -0.53125,-0.34375 -0.5,-0.34375 -0.5625,-0.34375 -0.59375,-0.28125 -0.5625,-0.3125 -0.625,-0.28125 -0.65625,-0.25 -0.6875,-0.28125 -0.65625,-0.25 -0.75,-0.21875 -0.75,-0.21875 -0.78125,-0.1875 -0.8125,-0.15625 -0.84375,-0.1875 -0.875,-0.125 -0.9375,-0.15625 -0.9375,-0.0937 -1,-0.0937 -1,-0.0937 -1.0625,-0.0625 -1.09375,-0.0625 -1.125,0 -1.1875,-0.0312 -0.25,0 -0.3125,0 -0.4375,0 -0.53125,0 -0.65625,0 -0.71875,0 -0.8125,0 -0.90625,0 -0.96875,0 -1.0625,0 -1.09375,0 -1.125,0 -1.21875,0 -1.25,0 -1.28125,0 -1.3125,0 -1.3125,0 -1.3125,0 -1.375,0 -1.34375,0 -1.34375,0 -1.3125,0 -1.3125,0 -1.25,0 -1.25,0 -1.21875,0 -1.125,0 -1.125,0 -1.03125,0 -1,0 -0.875,0 -0.8125,0 -0.71875,0 -0.65625,0 -0.5625,0 -0.40625,0 -0.3125,0 -0.25,0 z m 13.9375,12.96875 0.3125,0 0.5625,0 0.3125,0 0.4375,0 0.4375,0 0.5,0 0.5625,0 0.5625,0 0.59375,0 0.65625,0 0.65625,0 0.71875,0 0.6875,0 0.75,0 0.71875,0 0.71875,0 0.78125,0 0.75,0 0.71875,0 0.75,0 0.71875,0 0.71875,0 0.6875,0 0.65625,0 0.65625,0 0.59375,0 0.59375,0 0.53125,0 0.5,0 0.4375,0 0.4375,0 0.34375,0 0.3125,0 0.40625,0 1.03125,0 0.875,0.0312 0.8125,0.0937 0.8125,0.0937 0.8125,0.15625 0.75,0.125 0.75,0.1875 0.75,0.21875 0.6875,0.21875 0.6875,0.25 0.65625,0.28125 0.65625,0.28125 0.625,0.34375 0.5625,0.34375 0.59375,0.375 0.53125,0.375 0.53125,0.40625 0.5,0.4375 0.5,0.4375 0.46875,0.4375 0.4375,0.46875 0.40625,0.5 0.40625,0.5 0.34375,0.53125 0.34375,0.53125 0.34375,0.53125 0.28125,0.5625 0.3125,0.59375 0.21875,0.59375 0.25,0.59375 0.21875,0.625 0.1875,0.59375 0.15625,0.625 0.15625,0.65625 0.125,0.625 0.125,0.65625 0.0625,0.65625 0.0312,0.65625 0.0625,0.6875 0,0.65625 0,0.78125 -0.0625,0.8125 -0.0312,0.8125 -0.0625,0.75 -0.125,0.75 -0.0937,0.71875 -0.15625,0.75 -0.1875,0.6875 -0.1875,0.6875 -0.21875,0.6875 -0.21875,0.65625 -0.25,0.625 -0.25,0.625 -0.3125,0.59375 -0.3125,0.59375 -0.3125,0.5625 -0.375,0.53125 -0.40625,0.53125 -0.375,0.53125 -0.40625,0.5 -0.4375,0.46875 -0.46875,0.46875 -0.5,0.4375 -0.5,0.40625 -0.5,0.40625 -0.53125,0.40625 -0.5625,0.34375 -0.59375,0.3125 -0.59375,0.34375 -0.65625,0.3125 -0.625,0.25 -0.65625,0.28125 -0.6875,0.25 -0.6875,0.21875 -0.71875,0.1875 -0.71875,0.15625 -0.75,0.15625 -0.78125,0.125 -0.8125,0.125 -0.8125,0.0625 -0.3125,0 -0.25,0 -0.3125,0 -0.40625,0 -0.40625,0 -0.5,0 -0.5,0 -0.59375,0 -0.59375,0 -0.625,0 -0.6875,0 -0.71875,0 -0.6875,0 -0.75,0 -0.78125,0 -0.75,0 -0.78125,0 -0.78125,0 -0.8125,0 -0.78125,0 -0.75,0 -0.78125,0 -0.71875,0 -0.71875,0 -0.71875,0 -0.6875,0 -0.625,0 -0.59375,0 -0.59375,0 -0.53125,0 -0.46875,0 -0.40625,0 -0.40625,0 -0.28125,0 -0.28125,0 -0.28125,0 c -0.021,-0.004 -0.0312,-35.84375 -0.0312,-35.84375 z m 0,47.78125 0.4375,0 0.46875,0 0.28125,0 0.34375,0 0.40625,0 0.40625,0 0.40625,0 0.46875,0 0.5,0 0.5,0 0.5,0 0.53125,0 0.5625,0 0.53125,0 0.5625,0 0.5625,0 0.5625,0 0.5625,0 0.53125,0 0.5625,0 0.53125,0 0.53125,0 0.46875,0 0.5,0 0.4375,0 0.46875,0 0.40625,0 0.34375,0 0.34375,0 0.3125,0 0.28125,0 0.375,0 c 0.243,0 1.375,0.0625 1.375,0.0625 l 1.09375,0 1.0625,0.0312 1.0625,0.0625 1.0625,0.0937 1.03125,0.0937 1,0.0937 1,0.15625 0.96875,0.125 0.9375,0.21875 0.9375,0.1875 0.90625,0.25 0.875,0.21875 0.84375,0.3125 0.875,0.34375 0.78125,0.34375 0.78125,0.3125 0.78125,0.4375 0.71875,0.4375 0.71875,0.4375 0.6875,0.5625 0.625,0.53125 0.625,0.5625 0.59375,0.59375 0.5625,0.625 0.53125,0.6875 0.46875,0.71875 0.46875,0.78125 0.4375,0.84375 0.40625,0.8125 0.34375,0.875 0.3125,0.96875 0.3125,1 0.25,1 0.21875,1.0625 0.1875,1.125 0.125,1.1875 0.125,1.1875 0.0312,1.28125 0.0312,1.3125 -0.0312,0.59375 -0.0312,0.625 -0.0312,0.625 -0.0937,0.625 -0.0625,0.6875 -0.125,0.625 -0.125,0.6875 -0.15625,0.625 -0.15625,0.6875 -0.21875,0.6875 -0.21875,0.6875 -0.25,0.6875 -0.28125,0.625 -0.3125,0.6875 -0.34375,0.65625 -0.34375,0.65625 -0.375,0.625 -0.40625,0.625 -0.4375,0.625 -0.5,0.59375 -0.5,0.59375 -0.53125,0.5625 -0.5625,0.59375 -0.5625,0.53125 -0.65625,0.5 -0.625,0.46875 -0.71875,0.5 -0.71875,0.4375 -0.78125,0.4375 -0.75,0.375 -0.875,0.34375 -0.84375,0.34375 -0.90625,0.3125 -0.9375,0.21875 -0.96875,0.25 -1.03125,0.1875 -1.03125,0.15625 -1.09375,0.0937 -1.15625,0.0625 -1.15625,0.0312 -0.3125,0 -0.5625,0 -0.34375,0 -0.40625,0 -0.4375,0 -0.53125,0 -0.53125,0 -0.59375,0 -0.59375,0 -0.65625,0 -0.65625,0 -0.6875,0 -0.71875,0 -0.71875,0 -0.75,0 -0.71875,0 -0.75,0 -0.75,0 -0.75,0 -0.71875,0 -0.71875,0 -0.71875,0 -0.71875,0 -0.65625,0 -0.65625,0 -0.59375,0 -0.5625,0 -0.5625,0 -0.46875,0 -0.46875,0 -0.40625,0 -0.34375,0 -0.3125,0 -0.4375,0 c -0.126,-0.007 -0.125,-41.875 -0.125,-41.875 z"
   style="fill:#000000;fill-opacity:1;stroke:none"
   inkscape:connector-curvature="0" />
</g><g
     style="fill:#000000;fill-opacity:1;stroke:none"
     id="LWPOLYLINE_3_">
	
		<path
   id="path13"
   d="m 251.5,364.625 c -0.151,0 -36,115.5625 -36,115.5625 l 0.4375,0 0.46875,0 0.3125,0 0.34375,0 0.375,0 0.40625,0 0.4375,0 0.4375,0 0.5,0 0.5,0 0.5,0 0.5625,0 0.53125,0 0.5625,0 0.53125,0 0.5625,0 0.5625,0 0.5625,0 0.5625,0 0.53125,0 0.53125,0 0.53125,0 0.5,0 0.46875,0 0.46875,0 0.4375,0 0.40625,0 0.34375,0 0.34375,0 0.34375,0 0.25,0 0.40625,0 c 0.243,0 0.25,-0.0625 0.25,-0.0625 0.049,-0.146 0.125,-0.375 0.125,-0.375 l 0.0937,-0.34375 0.15625,-0.4375 0.125,-0.5 0.21875,-0.5625 0.1875,-0.625 0.25,-0.6875 0.21875,-0.78125 0.25,-0.78125 0.3125,-0.875 0.28125,-0.9375 0.28125,-0.90625 0.3125,-0.96875 0.3125,-0.96875 0.34375,-1.03125 0.3125,-1.03125 0.34375,-1 0.3125,-1.09375 0.34375,-1 0.34375,-1.09375 0.34375,-1 0.3125,-1.03125 0.3125,-0.96875 0.3125,-0.96875 0.3125,-0.9375 0.28125,-0.90625 0.28125,-0.84375 0.25,-0.8125 0.25,-0.78125 0.21875,-0.6875 0.21875,-0.625 0.1875,-0.59375 0.15625,-0.46875 0.125,-0.4375 0.125,-0.3125 c 0.073,-0.242 0.125,-0.4375 0.125,-0.4375 0.097,-0.049 0.34375,-0.0312 0.34375,-0.0312 l 0.34375,0 0.53125,0 0.625,0 0.78125,0 0.875,0 0.96875,0 1.0625,0 1.15625,0 1.25,0 1.3125,0 1.375,0 1.4375,0 1.5,0 1.53125,0 1.5625,0 1.5625,0 1.59375,0 1.59375,0 1.625,0 1.59375,0 1.5625,0 1.5625,0 1.53125,0 1.5,0 1.4375,0 1.375,0 1.3125,0 1.25,0 1.15625,0 1.0625,0 0.96875,0 0.875,0 0.78125,0 0.65625,0 0.5,0 0.375,0 0.3125,0 c 0.049,0.244 0.125,0.46875 0.125,0.46875 l 0.0937,0.3125 0.125,0.4375 0.125,0.46875 0.15625,0.59375 0.1875,0.625 0.1875,0.6875 0.25,0.78125 0.1875,0.8125 0.25,0.84375 0.28125,0.90625 0.25,0.9375 0.3125,0.96875 0.28125,0.96875 0.28125,1.03125 0.3125,1 0.28125,1.09375 0.28125,1 0.3125,1.09375 0.28125,1 0.28125,1.03125 0.3125,1.03125 0.28125,0.96875 0.28125,0.96875 0.25,0.90625 0.25,0.9375 0.25,0.875 0.21875,0.78125 0.25,0.78125 0.1875,0.6875 0.21875,0.625 0.125,0.5625 0.15625,0.5 0.0937,0.4375 0.0937,0.34375 c 0.097,0.242 0.15625,0.375 0.15625,0.375 0.098,0.049 0.25,0.0625 0.25,0.0625 l 0.46875,0 0.3125,0 0.3125,0 0.40625,0 0.4375,0 0.4375,0 0.5,0 0.53125,0 0.53125,0 0.5625,0 0.59375,0 0.59375,0 0.625,0 0.625,0 0.65625,0 0.625,0 0.625,0 0.625,0 0.625,0 0.59375,0 0.625,0 0.59375,0 0.59375,0 0.53125,0 0.46875,0 0.5625,0 0.4375,0 0.4375,0 0.375,0 0.34375,0 0.28125,0 0.25,0 0.34375,0 c 0.098,-0.244 -0.0937,-0.84375 -0.0937,-0.84375 l -0.34375,-1 -0.4375,-1.40625 -0.59375,-1.71875 -0.625,-2.09375 -0.71875,-2.3125 -0.875,-2.625 -0.9375,-2.9375 -0.96875,-3.09375 -1.0625,-3.375 L 299.15625,455.25 298,451.5 l -1.21875,-3.90625 -1.3125,-3.96875 -1.3125,-4.09375 -1.3125,-4.21875 -1.34375,-4.25 -1.375,-4.3125 -1.40625,-4.34375 -1.375,-4.3125 L 286,413.78125 284.625,409.5 l -1.34375,-4.1875 -1.3125,-4.09375 -1.28125,-4.03125 -1.25,-3.875 -1.1875,-3.71875 -1.125,-3.53125 -1.09375,-3.375 -0.96875,-3.125 -0.9375,-2.90625 -0.8125,-2.625 -0.78125,-2.375 -0.65625,-2.0625 -0.5625,-1.71875 -0.4375,-1.40625 -0.3125,-1 -0.21875,-0.625 C 270.14975,364.62475 270,364.625 270,364.625 l -0.53125,0 -0.34375,0 -0.375,0 -0.40625,0 -0.5,0 -0.5,0 -0.5625,0 -0.59375,0 -0.59375,0 -0.625,0 -0.65625,0 -0.65625,0 -0.71875,0 -0.6875,0 -0.6875,0 -0.75,0 -0.6875,0 -0.71875,0 -0.6875,0 -0.6875,0 -0.6875,0 -0.625,0 -0.65625,0 -0.625,0 -0.5625,0 -0.53125,0 -0.53125,0 -0.46875,0 -0.4375,0 -0.375,0 -0.34375,0 -0.28125,0 -0.40625,0 z m 8.8125,14.0625 c 0.022,-0.097 17.9375,60.65625 17.9375,60.65625 l -0.25,0 -0.3125,0 -0.4375,0 -0.53125,0 -0.625,0 -0.75,0 -0.8125,0 -0.90625,0 -0.96875,0 -1.03125,0 -1.09375,0 -1.1875,0 -1.1875,0 -1.21875,0 -1.3125,0 -1.28125,0 -1.34375,0 -1.34375,0 -1.3125,0 -1.34375,0 -1.34375,0 -1.34375,0 -1.28125,0 -1.28125,0 -1.25,0 -1.1875,0 -1.15625,0 -1.09375,0 -1.0625,0 -0.96875,0 -0.90625,0 -0.8125,0 -0.75,0 -0.625,0 -0.53125,0 -0.4375,0 -0.3125,0 -0.25,0 c 0.024,-0.096 0.125,-0.4375 0.125,-0.4375 l 0.15625,-0.5625 0.21875,-0.71875 0.25,-0.90625 0.3125,-1.09375 0.40625,-1.21875 0.375,-1.40625 0.46875,-1.5 0.5,-1.65625 0.5,-1.75 0.5625,-1.90625 0.59375,-1.9375 0.5625,-2.03125 0.65625,-2.09375 0.625,-2.15625 0.65625,-2.21875 0.65625,-2.25 0.6875,-2.25 0.65625,-2.28125 0.65625,-2.28125 0.65625,-2.28125 0.6875,-2.21875 0.625,-2.21875 0.65625,-2.15625 0.625,-2.09375 0.59375,-2.0625 0.59375,-1.96875 0.53125,-1.84375 0.53125,-1.78125 0.5,-1.65625 0.4375,-1.5 0.40625,-1.40625 0.375,-1.21875 0.3125,-1.09375 0.25,-0.90625 0.21875,-0.71875 0.1875,-0.53125 0.0937,-0.34375 z"
   style="fill:#000000;fill-opacity:1;stroke:none"
   inkscape:connector-curvature="0" />
</g><g
     style="fill:#000000;fill-opacity:1;stroke:none"
     id="LWPOLYLINE_9_">
	
		<path
   id="path31"
   d="m 185.875,528 c -0.243,0.195 -0.25,0.8125 -0.25,0.8125 l 0,1.03125 0,1.375 0,1.75 0,2.03125 0,2.375 0,2.625 0,2.9375 0,3.09375 0,3.375 0,3.53125 0,3.75 0,3.84375 0,4.03125 0,4.09375 0,4.1875 0,4.28125 0,4.3125 0,4.34375 0,4.3125 0,4.28125 0,4.28125 0,4.1875 0,4.125 0,4 0,3.875 0,3.71875 0,3.53125 0,3.375 0,3.15625 0,2.875 0,2.65625 0,2.34375 0,2.03125 0,1.75 0,1.375 0,1.03125 0,0.625 c 0.002,0.246 13.9375,0.25 13.9375,0.25 l 0,-0.40625 0,-0.4375 0,-0.625 0,-0.71875 0,-0.9375 0,-1.03125 0,-1.15625 0,-1.25 0,-1.4375 0,-1.4375 0,-1.5625 0,-1.65625 0,-1.6875 0,-1.75 0,-1.8125 0,-1.84375 0,-1.90625 0,-1.875 0,-1.90625 0,-1.90625 0,-1.90625 0,-1.84375 0,-1.84375 0,-1.78125 0,-1.8125 0,-1.71875 0,-1.59375 0,-1.5625 0,-1.5 0,-1.34375 0,-1.28125 0,-1.15625 0,-1.09375 0,-0.875 0,-0.75 0,-0.59375 0,-0.4375 0,-0.3125 c 0.146,-0.098 0.3125,-0.0937 0.3125,-0.0937 l 0.5,0 0.34375,0 0.40625,0 0.40625,0 0.5,0 0.5,0 0.5625,0 0.5625,0 0.625,0 0.625,0 0.65625,0 0.65625,0 0.71875,0 0.6875,0 0.6875,0 0.75,0 0.6875,0 0.71875,0 0.65625,0 0.71875,0 0.65625,0 0.65625,0 0.625,0 0.625,0 0.5625,0 0.5625,0 0.53125,0 0.46875,0 0.40625,0 0.40625,0 0.34375,0 0.28125,0 0.40625,0 1.03125,0 0.9375,-0.0312 0.96875,-0.0625 1,-0.0937 1,-0.0937 1,-0.15625 1.0625,-0.1875 1.03125,-0.1875 1.0625,-0.25 1.0625,-0.25 1.0625,-0.34375 1.03125,-0.3125 1.09375,-0.40625 1.0625,-0.375 1.03125,-0.5 1.0625,-0.5 1.03125,-0.5625 1.03125,-0.59375 1,-0.625 0.96875,-0.6875 0.96875,-0.71875 0.9375,-0.78125 0.90625,-0.84375 0.875,-0.90625 0.84375,-0.9375 0.78125,-0.96875 0.78125,-1.0625 0.75,-1.125 0.65625,-1.15625 0.65625,-1.21875 0.59375,-1.3125 0.53125,-1.375 0.5,-1.40625 0.4375,-1.46875 0.375,-1.53125 0.3125,-1.65625 0.21875,-1.65625 0.1875,-1.8125 0.125,-1.78125 0,-1.90625 0,-2 -0.0937,-1.90625 -0.15625,-1.84375 -0.21875,-1.75 -0.28125,-1.65625 -0.3125,-1.59375 -0.34375,-1.5625 -0.4375,-1.46875 -0.5,-1.40625 -0.5,-1.3125 -0.5625,-1.25 -0.625,-1.21875 -0.65625,-1.15625 -0.6875,-1.09375 -0.75,-1 -0.78125,-0.96875 -0.78125,-0.9375 -0.84375,-0.875 -0.875,-0.78125 -0.90625,-0.78125 -0.9375,-0.6875 -0.9375,-0.65625 -0.96875,-0.59375 -1.03125,-0.59375 -1.03125,-0.46875 -1.03125,-0.5 -1.0625,-0.4375 -1.0625,-0.375 -1.09375,-0.34375 -1.09375,-0.3125 -1.125,-0.28125 -1.09375,-0.25 -1.15625,-0.1875 -1.125,-0.1875 -1.125,-0.15625 -1.125,-0.0937 -1.15625,-0.0937 -1.125,-0.0625 -1.125,-0.0312 -1.125,0 -0.53125,0 -0.40625,0 -0.5,0 -0.59375,0 -0.65625,0 -0.75,0 -0.8125,0 -0.90625,0 -0.9375,0 -1,0 -1.0625,0 -1.09375,0 -1.15625,0 -1.15625,0 -1.1875,0 -1.21875,0 -1.25,0 -1.21875,0 -1.25,0 -1.21875,0 -1.1875,0 -1.21875,0 -1.15625,0 -1.15625,0 -1.09375,0 -1.0625,0 -1,0 -0.96875,0 -0.90625,0 -0.78125,0 -0.75,0 -0.6875,0 -0.59375,0 -0.46875,0 -0.40625,0 -0.28125,0 z m 13.6875,12.9375 0.34375,0 0.53125,0 0.34375,0 0.40625,0 0.46875,0 0.46875,0 0.5625,0 0.5625,0 0.625,0 0.65625,0 0.65625,0 0.6875,0 0.71875,0 0.6875,0 0.78125,0 0.71875,0 0.75,0 0.75,0 0.71875,0 0.75,0 0.71875,0 0.71875,0 0.6875,0 0.65625,0 0.65625,0 0.625,0 0.5625,0 0.53125,0 0.5,0 0.46875,0 0.40625,0 0.34375,0 0.3125,0 0.40625,0 0.40625,0 0.25,0 0.3125,0.0312 0.34375,0.0625 0.375,0.0625 0.375,0.0312 0.4375,0.0625 0.4375,0.0937 0.46875,0.0937 0.5,0.15625 0.46875,0.125 0.53125,0.15625 0.53125,0.1875 0.53125,0.25 0.53125,0.1875 0.53125,0.28125 0.5625,0.3125 0.53125,0.28125 0.5625,0.34375 0.53125,0.375 0.53125,0.40625 0.53125,0.5 0.5625,0.4375 0.5,0.53125 0.46875,0.53125 0.5,0.5625 0.4375,0.65625 0.46875,0.65625 0.40625,0.6875 0.40625,0.78125 0.34375,0.78125 0.34375,0.84375 0.28125,0.875 0.28125,0.90625 0.25,0.96875 0.1875,1.0625 0.15625,1.09375 0.125,1.09375 0.0625,1.21875 0.0312,1.21875 -0.0312,1.3125 -0.0625,1.28125 -0.125,1.21875 -0.1875,1.09375 -0.21875,1.125 -0.25,1.03125 -0.3125,0.96875 -0.34375,0.9375 -0.34375,0.90625 -0.4375,0.84375 -0.40625,0.78125 -0.46875,0.71875 -0.5,0.71875 -0.5,0.65625 -0.5625,0.625 -0.5625,0.5625 -0.59375,0.5625 -0.5625,0.46875 -0.65625,0.4375 -0.59375,0.4375 -0.65625,0.40625 -0.65625,0.375 -0.65625,0.34375 -0.65625,0.28125 -0.65625,0.25 -0.65625,0.25 -0.6875,0.25 -0.65625,0.1875 -0.65625,0.1875 -0.65625,0.15625 -0.625,0.0937 -0.625,0.15625 -0.625,0.0937 -0.59375,0.0312 -0.5625,0.0625 -0.59375,0.0312 -0.53125,0.0625 -0.5,0 -0.5,0.0312 -0.46875,0 -0.25,0 -0.40625,0 -0.3125,0 -0.34375,0 -0.34375,0 -0.40625,0 -0.4375,0 -0.46875,0 -0.46875,0 -0.5,0 -0.5625,0 -0.5625,0 -0.53125,0 -0.59375,0 -0.59375,0 -0.5625,0 -0.625,0 -0.59375,0 -0.59375,0 -0.59375,0 -0.5625,0 -0.5625,0 -0.5625,0 -0.53125,0 -0.53125,0 -0.46875,0 -0.46875,0 -0.4375,0 -0.40625,0 -0.34375,0 -0.34375,0 -0.28125,0 -0.4375,0 -0.25,0 0,-38.84375 z"
   style="fill:#000000;fill-opacity:1;stroke:none"
   inkscape:connector-curvature="0" />
</g><g
     style="fill:#000000;fill-opacity:1;stroke:none"
     id="LWPOLYLINE_10_">
	
		<path
   id="path34"
   d="m 295.3125,528 c -0.142,-10e-4 -35.96875,115.5625 -35.96875,115.5625 l 0.40625,0 0.46875,0 0.34375,0 0.34375,0 0.34375,0 0.40625,0 0.4375,0 0.46875,0 0.46875,0 0.5,0 0.53125,0 0.53125,0 0.5625,0 0.53125,0 0.5625,0 0.5625,0 0.5625,0 0.53125,0 0.5625,0 0.5625,0 0.53125,0 0.5,0 0.5,0 0.5,0 0.4375,0 0.4375,0 0.40625,0 0.375,0 0.34375,0 0.3125,0 0.25,0 0.40625,0 c 0.243,0 0.25,-0.0937 0.25,-0.0937 0.049,-0.146 0.125,-0.40625 0.125,-0.40625 l 0.125,-0.34375 0.125,-0.375 0.1875,-0.5 0.15625,-0.5625 0.21875,-0.65625 0.21875,-0.65625 0.25,-0.78125 0.25,-0.84375 0.28125,-0.8125 0.28125,-0.9375 0.3125,-0.90625 0.3125,-1 0.3125,-0.96875 0.34375,-1 0.3125,-1.03125 0.34375,-1.0625 0.34375,-1.03125 0.3125,-1.0625 0.34375,-1.03125 0.34375,-1.03125 0.3125,-1 0.3125,-0.96875 0.3125,-0.96875 0.3125,-1 0.28125,-0.875 0.28125,-0.875 0.25,-0.75 0.25,-0.78125 0.1875,-0.6875 0.25,-0.625 0.15625,-0.59375 0.1875,-0.5 0.0937,-0.4375 0.15625,-0.34375 c 0.049,-0.244 0.0937,-0.375 0.0937,-0.375 0.098,-0.049 0.34375,-0.0625 0.34375,-0.0625 l 0.375,0 0.5,0 0.625,0 0.78125,0 0.875,0 0.96875,0 1.0625,0 1.1875,0 1.25,0 1.3125,0 1.375,0 1.4375,0 1.46875,0 1.5,0 1.625,0 1.5625,0 1.59375,0 1.59375,0 1.625,0 1.59375,0 1.5625,0 1.5625,0 1.53125,0 1.46875,0 1.46875,0 1.34375,0 1.3125,0 1.28125,0 1.125,0 1.09375,0 1,0 0.875,0 0.71875,0 0.625,0 0.53125,0 0.40625,0 0.28125,0 c 0.049,0.195 0.15625,0.4375 0.15625,0.4375 l 0.0937,0.34375 0.0937,0.4375 0.15625,0.5 0.125,0.59375 0.21875,0.625 0.1875,0.6875 0.25,0.75 0.1875,0.78125 0.28125,0.875 0.25,0.875 0.25,0.96875 0.28125,1 0.28125,0.96875 0.3125,1 0.28125,1.03125 0.28125,1.03125 0.3125,1.0625 0.28125,1.03125 0.28125,1.0625 0.3125,1.03125 0.28125,1 0.28125,0.96875 0.3125,1 0.21875,0.90625 0.3125,0.9375 0.25,0.8125 0.1875,0.84375 0.25,0.75 0.1875,0.6875 0.1875,0.65625 0.15625,0.5625 0.125,0.5 0.0937,0.375 0.125,0.34375 c 0.098,0.242 0.125,0.40625 0.125,0.40625 0.097,0.098 0.3125,0.0937 0.3125,0.0937 l 0.4375,0 0.28125,0 0.34375,0 0.375,0 0.4375,0 0.4375,0 0.5,0 0.53125,0 0.53125,0 0.59375,0 0.5625,0 0.65625,0 0.5625,0 0.65625,0 0.625,0 0.625,0 0.625,0 0.65625,0 0.625,0 0.625,0 0.59375,0 0.5625,0 0.59375,0 0.53125,0 0.53125,0 0.5,0 0.4375,0 0.4375,0 0.375,0 0.34375,0 0.3125,0 0.21875,0 0.40625,0 c 0.049,-0.244 -0.15625,-0.875 -0.15625,-0.875 l -0.34375,-1.03125 -0.4375,-1.34375 L 349.406,638.53125 348.71875,636.5 348,634.15625 347.125,631.5 l -0.9375,-2.875 -0.96875,-3.15625 -1.0625,-3.375 L 343,618.5625 l -1.1875,-3.6875 -1.21875,-3.90625 -1.3125,-4 -1.3125,-4.125 -1.3125,-4.1875 -1.34375,-4.28125 -1.375,-4.28125 -1.40625,-4.3125 -1.34375,-4.34375 -1.375,-4.3125 -1.375,-4.28125 -1.34375,-4.1875 -1.3125,-4.09375 -1.28125,-4.03125 -1.25,-3.84375 -1.1875,-3.75 -1.09375,-3.53125 -1.09375,-3.375 -1,-3.09375 -0.9375,-2.9375 -0.8125,-2.625 -0.78125,-2.375 -0.625,-2.03125 -0.5625,-1.75 -0.4375,-1.375 -0.34375,-1.03125 -0.1875,-0.625 c -0.194,-0.195 -0.375,-0.1875 -0.375,-0.1875 l -0.5,0 -0.34375,0 -0.375,0 -0.4375,0 -0.5,0 -0.46875,0 -0.59375,0 -0.59375,0 -0.5625,0 -0.625,0 -0.6875,0 -0.6875,0 -0.6875,0 -0.6875,0 -0.71875,0 -0.6875,0 -0.71875,0 -0.6875,0 -0.71875,0 -0.6875,0 -0.6875,0 -0.625,0 -0.625,0 -0.65625,0 -0.5625,0 -0.53125,0 -0.5,0 -0.46875,0 -0.46875,0 -0.375,0 -0.34375,0 -0.28125,0 -0.40625,0 z m 8.8125,14.0625 c 0.042,-0.097 17.9375,60.625 17.9375,60.625 l -0.21875,0 -0.34375,0 -0.40625,0 -0.53125,0 -0.6875,0 -0.71875,0 -0.78125,0 -0.90625,0 -1,0 -1,0 -1.125,0 -1.15625,0 -1.21875,0 -1.21875,0 -1.28125,0 -1.3125,0 -1.3125,0 -1.34375,0 -1.3125,0 -1.375,0 -1.34375,0 -1.3125,0 -1.3125,0 -1.28125,0 -1.21875,0 -1.21875,0 -1.15625,0 -1.0625,0 -1.09375,0 -0.96875,0 -0.875,0 -0.8125,0 -0.71875,0 -0.65625,0 -0.53125,0 -0.4375,0 -0.34375,0 -0.25,0 c 0.049,-0.098 0.15625,-0.4375 0.15625,-0.4375 l 0.15625,-0.53125 L 286.71875,601 287,600.0625 287.3125,599 l 0.375,-1.25 0.40625,-1.375 0.46875,-1.5 0.5,-1.65625 0.46875,-1.8125 0.59375,-1.84375 0.53125,-1.9375 0.625,-2.03125 0.65625,-2.09375 0.625,-2.1875 0.625,-2.1875 0.6875,-2.25 0.625,-2.28125 0.6875,-2.28125 0.6875,-2.28125 0.65625,-2.25 0.65625,-2.25 0.65625,-2.21875 0.65625,-2.15625 0.625,-2.09375 0.59375,-2.03125 0.5625,-2 0.53125,-1.84375 0.5625,-1.75 0.46875,-1.65625 0.4375,-1.5625 0.4375,-1.34375 0.34375,-1.28125 0.34375,-1.0625 0.25,-0.875 0.25,-0.71875 0.125,-0.53125 0.0937,-0.34375 z"
   style="fill:#000000;fill-opacity:1;stroke:none"
   inkscape:connector-curvature="0" />
</g><g
     style="fill:#000000;fill-opacity:1;stroke:none"
     id="LWPOLYLINE">
	
		
</g><g
     style="fill:#000000;fill-opacity:1;stroke:none"
     id="LWPOLYLINE_1_">
	
		
</g><g
     style="fill:#000000;fill-opacity:1;stroke:none"
     id="LWPOLYLINE_4_">
	
		
</g><g
     style="fill:#000000;fill-opacity:1;stroke:none"
     id="LWPOLYLINE_5_">
	
		<path
   style="fill:#000000;fill-opacity:1;stroke:none"
   id="path19"
   d="m 385.837,396.51 0.146,-1.703 0.049,-1.654 0.049,-1.604 v -1.557 -1.508 l -0.099,-1.484 -0.097,-1.434 -0.195,-1.387 -0.194,-1.338 -0.243,-1.289 -0.292,-1.264 -0.34,-1.191 -0.39,-1.168 -0.438,-1.117 -0.438,-1.096 -0.535,-1.021 -0.535,-0.996 -0.584,-0.949 -0.681,-0.898 -0.681,-0.877 -0.729,-0.801 -0.778,-0.779 -0.827,-0.729 -0.875,-0.705 -0.875,-0.633 -0.974,-0.607 -1.021,-0.584 -1.021,-0.512 -1.119,-0.486 -1.118,-0.438 -1.216,-0.389 -1.216,-0.34 -1.313,-0.316 -1.313,-0.268 -1.361,-0.219 -1.459,-0.195 -1.459,-0.146 -1.508,-0.096 -1.605,-0.074 -1.604,-0.023 -1.702,0.023 -1.654,0.049 -1.653,0.098 -1.604,0.121 -1.557,0.17 -1.508,0.195 -1.508,0.242 -1.459,0.293 -1.41,0.34 -1.362,0.365 -1.361,0.438 -1.265,0.463 -1.265,0.535 -1.216,0.559 -1.216,0.633 -1.119,0.68 -1.118,0.73 -1.07,0.777 -0.973,0.852 -0.973,0.9 -0.973,0.973 -0.875,1.021 -0.827,1.094 -0.827,1.143 -0.729,1.217 -0.729,1.289 -0.632,1.361 -0.633,1.41 -0.583,1.482 -0.535,1.557 -0.438,1.654 -0.44,1.701 -0.389,1.775 -0.341,1.873 -0.292,1.922 -0.194,2.018 -0.194,2.092 -0.146,2.188 -0.049,2.262 -0.049,2.359 c 0,0.244 0,0.512 0,0.512 v 0.412 0.486 0.584 0.656 0.754 0.826 0.9 0.949 1.021 1.045 1.094 1.145 1.191 1.191 1.191 1.24 1.24 1.215 1.217 1.215 1.217 1.168 1.117 1.119 1.07 0.973 0.973 0.875 0.826 0.779 0.682 0.582 0.486 0.391 0.291 c 0,0.242 0.049,3.502 0.049,3.502 l 0.146,3.113 0.194,2.967 0.243,2.82 0.341,2.674 0.438,2.529 0.438,2.336 0.534,2.285 0.633,2.092 0.632,1.994 0.729,1.848 0.729,1.75 0.827,1.605 0.827,1.508 0.924,1.41 0.924,1.266 0.973,1.215 1.021,1.119 1.021,0.973 1.07,0.924 1.118,0.875 1.119,0.73 1.118,0.68 1.167,0.633 1.168,0.535 1.216,0.438 1.167,0.438 1.216,0.342 1.216,0.34 1.167,0.242 1.216,0.244 1.217,0.146 1.167,0.145 1.216,0.098 1.167,0.098 1.119,0.049 1.167,0.049 1.07,0.049 h 1.118 1.07 0.583 0.729 l 0.729,-0.049 h 0.778 l 0.876,-0.049 0.875,-0.049 0.924,-0.049 0.973,-0.098 0.974,-0.145 1.021,-0.146 1.021,-0.195 1.07,-0.242 1.07,-0.244 1.118,-0.34 1.07,-0.34 1.118,-0.438 1.07,-0.439 1.118,-0.535 1.07,-0.582 1.07,-0.682 1.069,-0.729 1.021,-0.779 1.021,-0.875 0.973,-0.973 0.973,-1.021 0.876,-1.119 0.875,-1.215 0.827,-1.314 0.778,-1.41 0.729,-1.508 0.681,-1.605 0.584,-1.701 0.534,-1.848 0.486,-1.945 0.39,-2.043 0.34,-2.189 0.243,-2.285 0.146,-2.432 0.049,-2.578 v -2.676 c -0.243,0 -0.438,0 -0.438,0 -0.194,0 -0.486,0 -0.486,0 h -0.291 -0.341 -0.389 -0.39 -0.438 -0.438 -0.486 -0.527 -0.486 -0.535 -0.535 -0.584 -0.534 -0.584 -0.535 -0.583 -0.535 -0.535 -0.535 -0.535 -0.486 -0.486 -0.438 -0.438 -0.438 -0.34 -0.341 -0.34 -0.243 c -0.243,0 -0.39,0 -0.39,0 -0.243,0 -0.292,1.703 -0.292,1.703 l -0.048,1.557 -0.146,1.557 -0.146,1.459 -0.195,1.361 -0.243,1.312 -0.243,1.266 -0.34,1.166 -0.341,1.119 -0.34,1.07 -0.438,0.973 -0.438,0.924 -0.438,0.875 -0.486,0.828 -0.486,0.777 -0.535,0.73 -0.535,0.631 -0.535,0.633 -0.534,0.584 -0.584,0.535 -0.584,0.486 -0.583,0.438 -0.633,0.389 -0.583,0.34 -0.584,0.342 -0.633,0.291 -0.583,0.291 -0.584,0.195 -0.583,0.244 -0.584,0.145 -0.584,0.146 -0.535,0.146 -0.534,0.098 -0.535,0.096 -0.535,0.049 -0.486,0.049 -0.438,0.049 -0.438,0.049 h -0.438 -0.389 -0.827 l -0.778,-0.049 -0.826,-0.049 -0.778,-0.049 -0.778,-0.098 -0.778,-0.096 -0.778,-0.146 -0.729,-0.146 -0.729,-0.193 -0.729,-0.244 -0.729,-0.242 -0.681,-0.293 -0.681,-0.34 -0.633,-0.389 -0.681,-0.391 -0.584,-0.486 -0.632,-0.486 -0.584,-0.535 -0.583,-0.582 -0.535,-0.682 -0.535,-0.682 -0.535,-0.729 -0.486,-0.826 -0.438,-0.877 -0.438,-0.924 -0.438,-0.973 -0.389,-1.07 -0.389,-1.117 -0.341,-1.168 -0.292,-1.264 -0.292,-1.314 -0.292,-1.41 -0.194,-1.459 -0.243,-1.557 -0.146,-1.652 -0.146,-1.703 -0.097,-1.75 -0.098,-1.898 -0.049,-1.945 -0.048,-2.043 c 0,-0.242 0,-0.533 0,-0.533 v -0.342 -0.486 -0.535 -0.631 -0.682 -0.777 -0.877 -0.875 -0.924 -1.021 -1.021 -1.07 -1.117 -1.119 -1.119 -1.168 -1.166 -1.168 -1.119 -1.143 -1.143 -1.094 -1.07 -1.021 -0.998 -0.947 -0.9 -0.852 -0.754 -0.705 -0.631 -0.561 -0.461 -0.365 -0.268 c 0,-0.219 0.048,-1.703 0.048,-1.703 v -1.385 -1.338 l 0.049,-1.289 0.049,-1.215 0.049,-1.168 0.049,-1.119 0.097,-1.045 0.049,-1.021 0.098,-0.949 0.097,-0.898 0.098,-0.852 0.097,-0.826 0.098,-0.754 0.098,-0.73 0.097,-0.682 0.098,-0.631 0.146,-0.584 0.098,-0.559 0.097,-0.535 0.098,-0.486 0.146,-0.439 0.098,-0.438 0.098,-0.389 0.097,-0.34 0.146,-0.34 0.097,-0.316 0.098,-0.268 0.049,-0.244 c 0.097,-0.242 0.194,-0.438 0.194,-0.438 0.098,-0.195 0.146,-0.365 0.146,-0.365 0.049,-0.17 0.098,-0.291 0.098,-0.291 0.098,-0.244 0.098,-0.34 0.098,-0.34 0.048,-0.172 0.146,-0.316 0.146,-0.316 0.098,-0.17 0.194,-0.365 0.194,-0.365 0.146,-0.219 0.292,-0.438 0.292,-0.438 0.146,-0.244 0.292,-0.486 0.292,-0.486 l 0.194,-0.244 0.243,-0.268 0.243,-0.291 0.243,-0.268 0.243,-0.291 0.292,-0.293 0.292,-0.316 0.34,-0.291 0.341,-0.316 0.341,-0.291 0.389,-0.316 0.389,-0.293 0.438,-0.314 0.438,-0.293 0.438,-0.291 0.486,-0.268 0.486,-0.293 0.535,-0.268 0.584,-0.268 0.534,-0.242 0.584,-0.244 0.633,-0.219 0.632,-0.219 0.681,-0.193 0.681,-0.195 0.682,-0.146 0.729,-0.145 0.778,-0.146 0.777,-0.098 0.827,-0.098 0.827,-0.049 0.826,-0.047 h 0.925 c 0.146,0 0.291,0 0.291,0 0.195,0.023 0.438,0.023 0.438,0.023 0.194,0.023 0.438,0.049 0.438,0.049 l 0.243,0.023 0.292,0.025 0.292,0.049 0.291,0.049 0.292,0.049 0.292,0.047 0.341,0.074 0.291,0.049 0.341,0.072 0.341,0.098 0.34,0.072 0.341,0.098 0.341,0.098 0.389,0.121 0.341,0.121 0.34,0.123 0.39,0.121 0.34,0.146 0.341,0.145 0.389,0.146 0.341,0.17 0.341,0.17 0.34,0.195 0.341,0.193 0.292,0.195 0.34,0.195 0.341,0.242 0.292,0.219 0.292,0.244 0.291,0.242 0.243,0.268 0.243,0.268 0.292,0.293 0.194,0.291 0.243,0.291 0.195,0.316 0.194,0.316 0.243,0.316 0.146,0.34 0.194,0.342 0.195,0.34 0.146,0.34 0.194,0.365 0.146,0.365 0.146,0.389 0.146,0.365 0.146,0.389 0.146,0.389 0.098,0.389 0.146,0.414 0.098,0.414 0.098,0.412 0.097,0.414 0.098,0.438 0.097,0.414 0.098,0.438 0.098,0.461 0.048,0.439 0.049,0.461 0.098,0.463 0.049,0.461 0.048,0.463 0.049,0.486 0.049,0.461 0.049,0.486 0.049,0.486 v 0.486 l 0.048,0.512 v 0.486 l 0.049,0.51 v 0.512 0.51 0.535 0.512 h 13.94 z"
   stroke-miterlimit="10"
   inkscape:connector-curvature="0" />
</g><g
     style="fill:#000000;fill-opacity:1;stroke:none"
     id="LWPOLYLINE_6_">
	
		<path
   style="fill:#000000;fill-opacity:1;stroke:none"
   id="path22"
   d="m 407.771,480.188 c 0.194,0 0.389,0 0.389,0 0.195,0 0.438,0 0.438,0 h 0.291 0.292 0.341 0.389 0.438 0.39 0.486 0.438 0.486 0.486 0.535 0.486 0.535 0.535 0.535 0.486 0.534 0.486 0.535 0.438 0.486 0.438 0.438 0.389 0.39 0.34 0.341 0.292 0.243 c 0.194,0 0.389,0 0.389,0 0.195,-0.146 0.195,-0.438 0.195,-0.438 v -0.535 -0.73 -0.924 -1.07 -1.264 -1.361 -1.508 -1.654 -1.799 -1.85 -1.945 -2.043 -2.09 -2.189 -2.188 -2.238 -2.285 -2.287 -2.285 -2.238 -2.236 -2.236 -2.141 -2.092 -2.043 -1.994 -1.848 -1.75 -1.654 -1.557 -1.361 -1.266 -1.068 -0.926 -0.705 -0.535 -0.314 c 0.243,-0.123 0.291,-0.123 0.291,-0.123 0.195,0 0.243,0 0.243,0 0.243,0 0.292,0 0.292,0 0.194,0 0.243,0.123 0.243,0.123 l 0.194,0.314 0.39,0.535 0.438,0.705 0.584,0.926 0.681,1.068 0.827,1.266 0.875,1.361 0.973,1.557 1.07,1.654 1.118,1.75 1.168,1.848 1.264,1.994 1.313,2.043 1.313,2.092 1.41,2.141 1.41,2.236 1.411,2.236 1.459,2.238 1.459,2.285 1.459,2.287 1.459,2.285 1.41,2.238 1.411,2.188 1.41,2.189 1.313,2.09 1.312,2.043 1.265,1.945 1.167,1.85 1.168,1.799 1.021,1.654 0.973,1.508 0.924,1.361 0.778,1.264 0.681,1.07 0.584,0.924 0.486,0.73 0.34,0.535 0.194,0.291 c 0.195,0.146 0.39,0.146 0.39,0.146 0.194,0 0.486,0 0.486,0 h 0.341 0.389 0.438 0.486 0.486 0.584 0.535 0.632 0.633 0.681 0.632 0.729 0.682 0.681 0.729 0.729 0.681 0.681 0.729 0.633 0.681 0.633 0.583 0.584 0.583 0.486 0.486 0.438 0.389 0.341 0.292 c 0.194,0 0.389,0 0.389,0 0.049,-0.146 -0.194,-0.486 -0.194,-0.486 l -0.39,-0.535 -0.534,-0.779 -0.633,-0.973 -0.778,-1.117 -0.924,-1.314 -0.973,-1.459 -1.119,-1.557 -1.167,-1.75 -1.265,-1.848 -1.361,-1.945 -1.41,-2.092 -1.46,-2.092 -1.556,-2.236 -1.557,-2.287 -1.557,-2.285 -1.653,-2.383 -1.604,-2.336 -1.654,-2.432 -1.653,-2.383 -1.605,-2.383 -1.653,-2.334 -1.557,-2.336 -1.556,-2.236 -1.557,-2.236 -1.459,-2.141 -1.41,-2.043 -1.362,-1.945 -1.265,-1.848 -1.167,-1.752 -1.118,-1.605 -0.973,-1.459 -0.925,-1.287 -0.778,-1.119 -0.632,-0.949 -0.535,-0.777 -0.389,-0.561 -0.243,-0.34 c 0,-0.219 0.243,-0.486 0.243,-0.486 l 0.34,-0.461 0.486,-0.633 0.633,-0.754 0.681,-0.924 0.875,-1.07 0.925,-1.168 1.021,-1.312 1.118,-1.41 1.167,-1.484 1.265,-1.604 1.313,-1.654 1.361,-1.752 1.411,-1.799 1.459,-1.848 1.508,-1.873 1.459,-1.922 1.556,-1.92 1.508,-1.945 1.557,-1.945 1.508,-1.922 1.508,-1.92 1.508,-1.873 1.41,-1.848 1.459,-1.801 1.362,-1.727 1.312,-1.678 1.265,-1.58 1.167,-1.508 1.119,-1.41 1.021,-1.289 0.924,-1.191 0.827,-1.047 0.729,-0.924 0.632,-0.777 0.486,-0.633 0.341,-0.438 0.243,-0.291 c -0.194,-0.098 -0.39,-0.098 -0.39,-0.098 -0.243,0 -0.534,0 -0.534,0 h -0.341 -0.341 -0.389 -0.438 -0.482 -0.486 -0.486 -0.535 -0.584 -0.535 -0.583 -0.584 -0.584 -0.632 -0.584 -0.583 -0.584 -0.584 -0.583 -0.535 -0.535 -0.535 -0.486 -0.438 -0.438 -0.39 -0.389 -0.341 -0.243 c -0.243,0 -0.438,0 -0.438,0 -0.243,0 -0.292,0 -0.292,0 -0.049,0.098 -0.243,0.365 -0.243,0.365 l -0.34,0.461 -0.486,0.607 -0.584,0.754 -0.681,0.9 -0.778,1.045 -0.924,1.168 -0.973,1.264 -1.021,1.387 -1.168,1.459 -1.167,1.557 -1.265,1.654 -1.312,1.701 -1.313,1.752 -1.41,1.824 -1.411,1.848 -1.41,1.871 -1.459,1.873 -1.459,1.922 -1.459,1.896 -1.459,1.896 -1.411,1.873 -1.41,1.848 -1.41,1.799 -1.313,1.775 -1.313,1.703 -1.264,1.629 -1.168,1.557 -1.118,1.482 -1.07,1.387 -0.973,1.266 -0.875,1.166 -0.827,1.021 -0.681,0.9 -0.584,0.777 -0.438,0.609 -0.39,0.438 -0.194,0.268 c -0.194,0.096 -0.243,0.096 -0.243,0.096 -0.243,0 -0.292,0 -0.292,0 -0.194,0 -0.243,0 -0.243,0 -0.243,0 -0.243,0 -0.243,0 -0.048,-0.096 -0.048,-0.363 -0.048,-0.363 v -0.438 -0.609 -0.777 -0.9 -1.021 -1.166 -1.266 -1.386 -1.482 -1.557 -1.629 -1.703 -1.775 -1.799 -1.848 -1.873 -1.896 -1.896 -1.922 -1.873 -1.871 -1.848 -1.824 -1.752 -1.701 -1.654 -1.557 -1.459 -1.387 -1.264 -1.168 -1.045 -0.9 -0.754 -0.607 -0.461 -0.268 c -0.195,-0.098 -0.39,-0.098 -0.39,-0.098 -0.194,0 -0.438,0 -0.438,0 h -0.292 -0.341 -0.34 -0.39 -0.389 -0.438 -0.438 -0.486 -0.438 -0.535 -0.486 -0.534 -0.486 -0.535 -0.535 -0.535 -0.486 -0.535 -0.486 -0.486 -0.438 -0.486 -0.39 -0.438 -0.389 -0.341 -0.292 -0.291 c -0.243,0 -0.438,0 -0.438,0 -0.194,0 -0.292,0 -0.292,0 -0.098,0 -0.098,115.559 -0.098,115.559 z"
   stroke-miterlimit="10"
   inkscape:connector-curvature="0" />
</g><g
     style="fill:#000000;fill-opacity:1;stroke:none"
     id="LWPOLYLINE_7_">
	
		<path
   style="fill:#000000;fill-opacity:1;stroke:none"
   id="path25"
   d="m 95.968,608.684 -0.049,0.826 -0.073,0.924 -0.049,0.924 -0.048,1.021 -0.024,1.021 -0.024,1.07 0.024,1.119 0.048,1.117 0.049,1.168 0.122,1.168 0.121,1.215 0.171,1.217 0.219,1.215 0.243,1.217 0.315,1.215 0.365,1.266 0.389,1.215 0.463,1.217 0.534,1.215 0.584,1.168 0.632,1.168 0.729,1.166 0.778,1.07 0.876,1.119 0.948,1.021 1.021,1.021 1.094,0.973 1.192,0.875 1.288,0.875 1.387,0.826 1.459,0.73 1.58,0.682 1.679,0.631 1.774,0.535 1.897,0.486 1.994,0.389 2.115,0.342 2.237,0.242 2.335,0.146 h 2.48 1.337 l 1.338,-0.049 1.337,-0.049 1.338,-0.146 1.313,-0.145 1.288,-0.146 1.289,-0.195 1.265,-0.242 1.265,-0.291 1.24,-0.342 1.24,-0.34 1.191,-0.389 1.191,-0.438 1.144,-0.486 1.143,-0.486 1.094,-0.584 1.095,-0.584 1.046,-0.633 1.021,-0.68 0.997,-0.73 0.948,-0.777 0.899,-0.779 0.9,-0.875 0.851,-0.924 0.803,-0.973 0.754,-0.973 0.729,-1.07 0.681,-1.119 0.608,-1.119 0.607,-1.215 0.535,-1.264 0.486,-1.314 0.413,-1.361 0.39,-1.41 0.315,-1.508 0.292,-1.508 0.194,-1.605 0.171,-1.654 0.073,-1.701 0.048,-1.752 -0.097,-2.674 -0.268,-2.529 -0.462,-2.432 -0.608,-2.238 -0.754,-2.188 -0.899,-1.994 -1.046,-1.896 -1.143,-1.801 -1.289,-1.701 -1.386,-1.605 -1.46,-1.557 -1.556,-1.41 -1.654,-1.41 -1.702,-1.264 -1.751,-1.266 -1.823,-1.168 -1.824,-1.166 -1.872,-1.07 -1.897,-1.07 -1.921,-1.07 -1.896,-0.973 -1.896,-1.021 -1.873,-1.021 -1.848,-0.973 -1.8,-1.021 -1.775,-1.02 -1.702,-1.021 -1.629,-1.07 -1.557,-1.07 -1.483,-1.119 -1.386,-1.215 -1.265,-1.217 -1.168,-1.264 -1.021,-1.363 -0.9,-1.41 -0.778,-1.508 -0.607,-1.604 -0.438,-1.703 -0.268,-1.75 -0.098,-1.898 0.024,-0.875 0.049,-0.875 0.072,-0.826 0.122,-0.828 0.121,-0.777 0.171,-0.73 0.219,-0.729 0.219,-0.73 0.268,-0.68 0.268,-0.633 0.316,-0.633 0.315,-0.631 0.365,-0.584 0.364,-0.535 0.414,-0.535 0.413,-0.535 0.438,-0.486 0.462,-0.486 0.486,-0.438 0.486,-0.389 0.511,-0.438 0.535,-0.342 0.535,-0.389 0.56,-0.34 0.583,-0.293 0.584,-0.291 0.584,-0.293 0.607,-0.242 0.633,-0.195 0.607,-0.242 0.656,-0.146 0.633,-0.193 0.656,-0.146 0.657,-0.098 0.656,-0.098 0.656,-0.098 0.657,-0.096 0.681,-0.049 h 0.656 0.681 0.949 l 0.924,0.049 0.899,0.096 0.852,0.098 0.826,0.146 0.803,0.195 0.754,0.193 0.729,0.244 0.705,0.242 0.682,0.293 0.632,0.34 0.608,0.34 0.607,0.389 0.535,0.391 0.535,0.438 0.511,0.438 0.486,0.486 0.462,0.486 0.413,0.535 0.413,0.584 0.39,0.535 0.341,0.582 0.34,0.633 0.316,0.633 0.268,0.68 0.268,0.682 0.268,0.682 0.219,0.68 0.194,0.73 0.17,0.777 0.171,0.779 0.146,0.777 0.121,0.779 0.122,0.826 0.073,0.826 0.072,0.826 0.073,0.828 0.024,0.875 0.024,0.875 v 0.924 c 0.243,0 0.438,0 0.438,0 0.219,0 0.486,0 0.486,0 h 0.292 0.341 0.389 0.389 0.438 0.462 0.486 0.511 0.511 0.535 0.534 0.56 0.56 0.56 0.559 0.56 0.535 0.56 0.511 0.534 0.486 0.486 0.463 0.438 0.413 0.365 0.34 0.316 0.243 c 0.243,0 0.413,0 0.413,0 0.243,0 0.292,-1.701 0.292,-1.701 v -1.654 l -0.049,-1.605 -0.097,-1.555 -0.122,-1.508 -0.194,-1.412 -0.243,-1.41 -0.268,-1.361 -0.316,-1.361 -0.364,-1.266 -0.413,-1.215 -0.463,-1.168 -0.486,-1.117 -0.534,-1.119 -0.584,-1.021 -0.608,-1.021 -0.681,-0.924 -0.705,-0.924 -0.729,-0.877 -0.803,-0.826 -0.803,-0.777 -0.875,-0.73 -0.899,-0.68 -0.925,-0.682 -0.973,-0.584 -1.021,-0.584 -1.045,-0.535 -1.095,-0.486 -1.118,-0.438 -1.144,-0.438 -1.191,-0.34 -1.216,-0.34 -1.265,-0.293 -1.289,-0.242 -1.337,-0.195 -1.338,-0.195 -1.386,-0.145 -1.41,-0.098 -1.46,-0.049 h -1.483 -1.41 l -1.386,0.049 -1.387,0.098 -1.361,0.145 -1.338,0.195 -1.337,0.195 -1.289,0.242 -1.289,0.293 -1.24,0.291 -1.24,0.389 -1.191,0.389 -1.191,0.438 -1.144,0.439 -1.143,0.533 -1.094,0.535 -1.046,0.584 -1.046,0.633 -0.997,0.682 -0.973,0.729 -0.924,0.73 -0.9,0.777 -0.851,0.826 -0.827,0.877 -0.803,0.875 -0.729,0.973 -0.705,0.973 -0.656,1.021 -0.633,1.07 -0.583,1.117 -0.511,1.119 -0.486,1.168 -0.438,1.264 -0.414,1.266 -0.34,1.264 -0.292,1.361 -0.243,1.363 -0.17,1.459 -0.146,1.459 -0.073,1.508 -0.048,1.555 0.097,2.529 0.292,2.432 0.438,2.238 0.608,2.188 0.754,2.043 0.899,1.896 1.046,1.85 1.167,1.701 1.265,1.654 1.386,1.557 1.483,1.459 1.557,1.361 1.63,1.312 1.702,1.266 1.751,1.215 1.823,1.168 1.849,1.119 1.872,1.07 1.896,1.02 1.897,1.021 1.896,1.021 1.896,0.973 1.873,0.973 1.848,0.973 1.8,1.021 1.775,0.973 1.702,1.021 1.629,1.07 1.557,1.07 1.483,1.119 1.386,1.117 1.265,1.217 1.168,1.264 1.021,1.314 0.925,1.361 0.754,1.459 0.607,1.557 0.438,1.605 0.292,1.75 0.073,1.799 v 1.021 l -0.049,1.021 -0.098,0.973 -0.097,0.926 -0.146,0.875 -0.17,0.875 -0.219,0.826 -0.243,0.828 -0.243,0.777 -0.292,0.73 -0.316,0.729 -0.34,0.682 -0.39,0.631 -0.389,0.633 -0.413,0.584 -0.438,0.584 -0.462,0.535 -0.486,0.535 -0.511,0.486 -0.534,0.438 -0.56,0.438 -0.56,0.438 -0.607,0.34 -0.608,0.389 -0.632,0.342 -0.633,0.291 -0.656,0.293 -0.681,0.242 -0.706,0.244 -0.705,0.242 -0.705,0.195 -0.754,0.145 -0.729,0.146 -0.778,0.146 -0.754,0.098 -0.778,0.096 -0.802,0.049 -0.803,0.049 -0.803,0.049 h -0.826 -0.682 l -0.656,-0.049 -0.681,-0.049 -0.682,-0.049 -0.681,-0.096 -0.681,-0.098 -0.681,-0.146 -0.657,-0.146 -0.681,-0.193 -0.656,-0.195 -0.657,-0.242 -0.632,-0.244 -0.656,-0.242 -0.633,-0.342 -0.607,-0.291 -0.608,-0.389 -0.583,-0.389 -0.584,-0.391 -0.584,-0.438 -0.535,-0.486 -0.534,-0.486 -0.511,-0.535 -0.511,-0.584 -0.462,-0.582 -0.463,-0.633 -0.438,-0.633 -0.413,-0.729 -0.389,-0.682 -0.341,-0.777 -0.341,-0.779 -0.315,-0.826 -0.268,-0.875 -0.268,-0.924 -0.219,-0.926 -0.195,-0.973 -0.146,-1.021 -0.122,-1.068 -0.097,-1.07 -0.049,-1.168 -0.024,-1.166 c 0,-0.244 0,-0.293 0,-0.293 0,-0.242 0,-0.34 0,-0.34 0,-0.195 0,-0.293 0,-0.293 0,-0.242 0,-0.34 0,-0.34 0,-0.242 0,-0.34 0,-0.34 0,-0.195 0,-0.342 0,-0.342 0,-0.193 0,-0.291 0,-0.291 0,-0.195 0,-0.291 0,-0.291 0,-0.195 0,-0.293 0,-0.293 0.008,-0.147 -13.95,-0.147 -13.95,-0.147 z"
   stroke-miterlimit="10"
   inkscape:connector-curvature="0" />
</g><g
     style="fill:#000000;fill-opacity:1;stroke:none"
     id="LWPOLYLINE_8_">
	
		
</g><g
     style="fill:#000000;fill-opacity:1;stroke:none"
     id="LWPOLYLINE_11_">
	
		
</g><g
     style="fill:#000000;fill-opacity:1;stroke:none"
     id="LWPOLYLINE_12_">
	
		<path
   style="fill:#000000;fill-opacity:1;stroke:none"
   id="path40"
   d="m 429.657,559.852 0.146,-1.701 0.048,-1.654 0.049,-1.605 0.049,-1.555 -0.049,-1.508 -0.097,-1.459 -0.098,-1.459 -0.194,-1.363 -0.194,-1.361 -0.243,-1.264 -0.292,-1.266 -0.341,-1.215 -0.389,-1.168 -0.39,-1.119 -0.486,-1.07 -0.535,-1.02 -0.534,-1.021 -0.584,-0.926 -0.632,-0.924 -0.729,-0.875 -0.73,-0.777 -0.777,-0.779 -0.827,-0.729 -0.827,-0.73 -0.924,-0.631 -0.973,-0.584 -1.021,-0.584 -1.021,-0.535 -1.118,-0.486 -1.119,-0.438 -1.216,-0.389 -1.216,-0.342 -1.313,-0.291 -1.312,-0.293 -1.362,-0.242 -1.459,-0.146 -1.459,-0.145 -1.508,-0.098 -1.604,-0.098 h -1.605 -1.702 l -1.653,0.049 -1.653,0.098 -1.605,0.145 -1.557,0.146 -1.508,0.195 -1.507,0.242 -1.46,0.293 -1.41,0.34 -1.361,0.389 -1.362,0.438 -1.265,0.438 -1.265,0.535 -1.216,0.584 -1.216,0.633 -1.118,0.68 -1.119,0.73 -1.021,0.777 -1.021,0.828 -0.973,0.924 -0.973,0.973 -0.876,1.021 -0.827,1.07 -0.826,1.166 -0.729,1.217 -0.729,1.264 -0.633,1.361 -0.632,1.412 -0.584,1.508 -0.486,1.555 -0.486,1.605 -0.438,1.752 -0.39,1.75 -0.34,1.848 -0.243,1.945 -0.243,2.043 -0.194,2.092 -0.146,2.189 -0.049,2.236 -0.048,2.383 c 0,0.195 0,0.486 0,0.486 v 0.389 0.535 0.584 0.633 0.777 0.828 0.875 0.973 1.021 1.021 1.119 1.117 1.168 1.215 1.217 1.217 1.215 1.264 1.217 1.217 1.166 1.217 1.117 1.119 1.021 1.021 0.973 0.875 0.828 0.777 0.633 0.584 0.486 0.438 0.291 c 0,0.195 0.048,3.502 0.048,3.502 l 0.146,3.113 0.194,2.967 0.243,2.82 0.341,2.627 0.438,2.529 0.438,2.383 0.584,2.236 0.583,2.141 0.633,1.945 0.729,1.896 0.729,1.703 0.827,1.652 0.875,1.508 0.875,1.363 0.925,1.312 0.973,1.215 1.021,1.07 1.069,1.021 1.07,0.924 1.07,0.828 1.118,0.777 1.119,0.682 1.167,0.582 1.167,0.535 1.216,0.486 1.167,0.439 1.217,0.34 1.216,0.34 1.216,0.244 1.167,0.193 1.216,0.195 1.167,0.146 1.216,0.096 1.168,0.098 1.118,0.049 1.167,0.049 h 1.119 1.07 1.069 0.633 0.681 0.729 0.778 l 0.875,-0.049 0.876,-0.049 0.924,-0.098 0.973,-0.096 0.973,-0.098 1.021,-0.146 1.07,-0.195 1.021,-0.242 1.119,-0.291 1.07,-0.293 1.069,-0.34 1.119,-0.438 1.118,-0.486 1.07,-0.535 1.07,-0.584 1.069,-0.633 1.07,-0.729 1.021,-0.828 1.021,-0.875 0.973,-0.924 0.973,-1.07 0.924,-1.119 0.827,-1.215 0.826,-1.266 0.778,-1.41 0.729,-1.508 0.681,-1.604 0.584,-1.752 0.584,-1.799 0.438,-1.945 0.389,-2.043 0.341,-2.189 0.243,-2.285 0.146,-2.432 0.098,-2.578 -0.049,-2.674 c -0.243,0 -0.438,0 -0.438,0 -0.194,0 -0.486,0 -0.486,0 h -0.292 -0.341 -0.389 -0.389 -0.438 -0.438 -0.486 -0.535 -0.486 -0.535 -0.534 -0.584 -0.535 -0.583 -0.535 -0.584 -0.535 -0.535 -0.534 -0.535 -0.486 -0.486 -0.438 -0.438 -0.438 -0.341 -0.34 -0.341 -0.243 c -0.243,0 -0.389,0 -0.389,0 -0.243,0 -0.292,1.652 -0.292,1.652 l -0.049,1.605 -0.098,1.557 -0.194,1.459 -0.194,1.361 -0.243,1.312 -0.243,1.266 -0.341,1.166 -0.34,1.119 -0.341,1.021 -0.438,1.021 -0.39,0.924 -0.486,0.875 -0.486,0.828 -0.486,0.777 -0.486,0.682 -0.534,0.68 -0.584,0.633 -0.535,0.584 -0.584,0.486 -0.583,0.486 -0.584,0.438 -0.584,0.438 -0.632,0.342 -0.584,0.34 -0.632,0.291 -0.584,0.244 -0.583,0.242 -0.584,0.195 -0.584,0.193 -0.583,0.146 -0.535,0.146 -0.535,0.098 -0.535,0.098 -0.535,0.047 -0.486,0.049 -0.438,0.049 h -0.438 l -0.438,0.049 h -0.39 -0.826 l -0.778,-0.049 -0.827,-0.049 -0.778,-0.049 -0.778,-0.096 -0.777,-0.098 -0.778,-0.146 -0.729,-0.146 -0.729,-0.193 -0.729,-0.244 -0.682,-0.242 -0.729,-0.293 -0.681,-0.34 -0.632,-0.389 -0.633,-0.389 -0.632,-0.486 -0.633,-0.486 -0.583,-0.535 -0.584,-0.633 -0.535,-0.633 -0.535,-0.68 -0.534,-0.779 -0.486,-0.777 -0.438,-0.875 -0.438,-0.926 -0.438,-1.021 -0.39,-1.02 -0.389,-1.119 -0.341,-1.217 -0.291,-1.215 -0.292,-1.363 -0.243,-1.361 -0.243,-1.508 -0.194,-1.508 -0.195,-1.652 -0.146,-1.703 -0.098,-1.799 -0.097,-1.848 -0.049,-1.994 v -2.043 c 0,-0.195 0,-0.486 0,-0.486 v -0.342 -0.486 -0.535 -0.631 -0.73 -0.777 -0.828 -0.875 -0.973 -0.973 -1.07 -1.068 -1.07 -1.119 -1.168 -1.117 -1.168 -1.168 -1.166 -1.119 -1.119 -1.119 -1.068 -1.021 -0.973 -0.973 -0.877 -0.875 -0.777 -0.682 -0.633 -0.535 -0.486 -0.34 -0.291 c 0,-0.244 0,-1.703 0,-1.703 v -1.361 l 0.049,-1.361 v -1.266 l 0.048,-1.215 0.049,-1.168 0.098,-1.119 0.049,-1.068 0.097,-1.021 0.049,-0.926 0.098,-0.924 0.097,-0.826 0.098,-0.826 0.098,-0.779 0.097,-0.729 0.098,-0.682 0.097,-0.633 0.146,-0.582 0.097,-0.535 0.098,-0.535 0.146,-0.486 0.098,-0.438 0.098,-0.438 0.097,-0.391 0.146,-0.34 0.097,-0.34 0.098,-0.342 0.097,-0.242 0.098,-0.244 c 0.049,-0.242 0.146,-0.486 0.146,-0.486 0.098,-0.145 0.146,-0.34 0.146,-0.34 0.049,-0.146 0.097,-0.291 0.097,-0.291 0.098,-0.244 0.146,-0.342 0.146,-0.342 0,-0.145 0.097,-0.291 0.097,-0.291 0.098,-0.195 0.195,-0.389 0.195,-0.389 0.146,-0.195 0.292,-0.438 0.292,-0.438 0.146,-0.244 0.34,-0.486 0.34,-0.486 l 0.194,-0.244 0.195,-0.242 0.243,-0.293 0.243,-0.291 0.243,-0.293 0.291,-0.291 0.292,-0.291 0.341,-0.293 0.34,-0.34 0.341,-0.293 0.39,-0.291 0.389,-0.291 0.438,-0.342 0.438,-0.291 0.438,-0.293 0.486,-0.291 0.534,-0.242 0.487,-0.293 0.583,-0.242 0.535,-0.244 0.632,-0.242 0.584,-0.244 0.633,-0.195 0.681,-0.193 0.681,-0.195 0.681,-0.193 0.778,-0.098 0.729,-0.146 0.778,-0.098 0.827,-0.096 0.826,-0.049 0.876,-0.049 h 0.875 c 0.146,0 0.341,0 0.341,0 0.194,0 0.389,0 0.389,0 0.194,0.049 0.438,0.049 0.438,0.049 l 0.292,0.049 h 0.243 l 0.292,0.047 0.292,0.049 0.292,0.049 0.292,0.049 0.34,0.098 0.292,0.049 0.341,0.049 0.34,0.098 0.341,0.096 0.34,0.098 0.39,0.098 0.341,0.098 0.34,0.145 0.39,0.098 0.34,0.146 0.341,0.146 0.34,0.145 0.39,0.146 0.34,0.146 0.341,0.193 0.341,0.195 0.34,0.146 0.341,0.242 0.292,0.195 0.34,0.193 0.292,0.244 0.292,0.242 0.292,0.244 0.243,0.291 0.292,0.244 0.243,0.291 0.194,0.293 0.243,0.291 0.194,0.34 0.243,0.293 0.194,0.34 0.195,0.34 0.146,0.342 0.194,0.34 0.194,0.34 0.146,0.342 0.146,0.389 0.146,0.389 0.146,0.34 0.146,0.391 0.146,0.389 0.097,0.389 0.146,0.438 0.098,0.389 0.097,0.438 0.098,0.391 0.097,0.438 0.098,0.438 0.098,0.438 0.097,0.438 0.049,0.438 0.098,0.486 0.048,0.438 0.049,0.486 0.049,0.439 0.049,0.486 0.049,0.486 0.048,0.486 0.049,0.486 v 0.486 l 0.049,0.486 v 0.486 l 0.049,0.535 v 0.486 0.533 0.486 0.535 h 13.942 z"
   stroke-miterlimit="10"
   inkscape:connector-curvature="0" />
</g><g
     style="fill:#000000;fill-opacity:1;stroke:none"
     id="LWPOLYLINE_13_">
	
		<path
   style="fill:#000000;fill-opacity:1;stroke:none"
   id="path43"
   d="m 510.344,643.555 c 0,-0.244 0,-0.389 0,-0.389 0,-0.195 0,-0.438 0,-0.438 v -0.244 -0.291 -0.342 -0.34 -0.389 -0.389 -0.438 -0.439 -0.438 -0.438 -0.486 -0.486 -0.486 -0.486 -0.486 -0.486 -0.438 -0.486 -0.438 -0.486 -0.438 -0.389 -0.389 -0.389 -0.34 -0.342 -0.291 -0.291 c 0,-0.195 0,-0.391 0,-0.391 0,-0.145 0,-0.291 0,-0.291 -0.097,-0.098 -0.34,-0.098 -0.34,-0.098 h -0.39 -0.534 -0.682 -0.778 -0.924 -1.021 -1.118 -1.216 -1.313 -1.361 -1.459 -1.508 -1.557 -1.557 -1.653 -1.653 -1.654 -1.702 -1.653 -1.702 -1.653 -1.605 -1.604 -1.557 -1.508 -1.459 -1.362 -1.312 -1.216 -1.119 -1.021 -0.924 -0.778 -0.681 -0.535 -0.389 c -0.243,0 -0.341,0 -0.341,0 0,-0.049 0,-0.291 0,-0.291 v -0.342 -0.486 -0.582 -0.682 -0.826 -0.924 -0.973 -1.119 -1.119 -1.264 -1.266 -1.361 -1.361 -1.41 -1.459 -1.461 -1.506 -1.461 -1.506 -1.508 -1.459 -1.459 -1.412 -1.361 -1.361 -1.266 -1.215 -1.168 -1.07 -1.02 -0.877 -0.826 -0.73 -0.582 -0.486 -0.342 c 0,-0.193 0,-0.291 0,-0.291 0.098,0 0.292,0 0.292,0 h 0.389 0.486 0.584 0.729 0.827 0.973 1.021 1.118 1.167 1.265 1.313 1.361 1.411 1.459 1.459 1.508 1.556 1.508 1.557 1.508 1.508 1.459 1.459 1.41 1.411 1.312 1.216 1.216 1.119 1.021 0.924 0.827 0.729 0.632 0.486 0.341 c 0.194,0 0.292,0 0.292,0 0,-0.195 0,-0.34 0,-0.34 0,-0.195 0,-0.439 0,-0.439 v -0.291 -0.291 -0.293 -0.389 -0.34 -0.391 -0.438 -0.438 -0.438 -0.486 -0.438 -0.486 -0.486 -0.486 -0.486 -0.486 -0.486 -0.438 -0.486 -0.438 -0.438 -0.439 -0.389 -0.389 -0.34 -0.293 -0.34 -0.244 c 0,-0.242 0,-0.438 0,-0.438 0,-0.145 0,-0.242 0,-0.242 -0.098,-0.098 -0.292,-0.098 -0.292,-0.098 h -0.341 -0.486 -0.632 -0.729 -0.827 -0.924 -1.021 -1.119 -1.216 -1.216 -1.312 -1.411 -1.41 -1.459 -1.459 -1.508 -1.508 -1.557 -1.508 -1.556 -1.508 -1.459 -1.459 -1.411 -1.361 -1.313 -1.265 -1.167 -1.118 -1.021 -0.973 -0.827 -0.729 -0.584 -0.486 -0.389 c -0.194,0 -0.292,0 -0.292,0 0,-0.098 0,-0.291 0,-0.291 v -0.293 -0.438 -0.584 -0.631 -0.779 -0.826 -0.924 -1.021 -1.07 -1.119 -1.166 -1.266 -1.264 -1.314 -1.309 -1.361 -1.41 -1.363 -1.361 -1.41 -1.361 -1.314 -1.312 -1.264 -1.266 -1.166 -1.168 -1.07 -0.973 -0.924 -0.826 -0.779 -0.633 -0.582 -0.438 -0.293 c 0,-0.242 0,-0.291 0,-0.291 0.098,0 0.341,0 0.341,0 h 0.389 0.535 0.632 0.778 0.876 1.021 1.118 1.167 1.265 1.362 1.41 1.459 1.508 1.604 1.557 1.653 1.605 1.653 1.654 1.604 1.605 1.604 1.557 1.556 1.46 1.41 1.361 1.265 1.167 1.119 0.973 0.924 0.778 0.633 0.534 0.39 c 0.243,0 0.292,0 0.292,0 0,-0.195 0,-0.342 0,-0.342 0,-0.193 0,-0.438 0,-0.438 v -0.291 -0.293 -0.291 -0.389 -0.34 -0.391 -0.438 -0.438 -0.438 -0.486 -0.438 -0.486 -0.486 -0.486 -0.486 -0.486 -0.486 -0.438 -0.486 -0.438 -0.439 -0.438 -0.389 -0.389 -0.34 -0.293 -0.34 -0.244 c 0,-0.242 0,-0.438 0,-0.438 0,-0.145 0,-0.242 0,-0.242 -0.098,-0.098 -0.39,-0.098 -0.39,-0.098 h -0.535 -0.681 -0.875 -1.021 -1.167 -1.313 -1.459 -1.557 -1.702 -1.751 -1.848 -1.946 -1.994 -2.091 -2.092 -2.14 -2.14 -2.141 -2.188 -2.14 -2.14 -2.092 -2.091 -1.994 -1.945 -1.849 -1.751 -1.702 -1.557 -1.459 -1.312 -1.168 -1.021 -0.875 -0.681 -0.535 -0.292 c -0.098,0.195 -0.098,0.826 -0.098,0.826 v 1.021 1.361 1.752 2.046 2.383 2.627 2.918 3.111 3.357 3.549 3.746 3.842 4.037 4.086 4.182 4.279 4.33 4.328 4.328 4.279 4.281 4.182 4.135 3.988 3.891 3.697 3.549 3.357 3.16 2.869 2.676 2.334 2.043 1.752 1.361 1.021 0.631 c 10e-4,0.246 58.753,0.246 58.753,0.246 z"
   stroke-miterlimit="10"
   inkscape:connector-curvature="0" />
</g><g
     style="fill:#000000;fill-opacity:1;stroke:none"
     id="LWPOLYLINE_14_">
	
		<polygon
   style="fill:#000000;fill-opacity:1;stroke:none"
   id="polygon46"
   points="517.299,193.383 517.299,221.055 256.514,221.055 256.514,270.008 98.959,207.219 256.514,145.5 256.514,193.383 "
   stroke-miterlimit="10" />
</g></g>
</svg>