<?xml version="1.0" encoding="UTF-8" standalone="no"?>
<!-- Generator: Adobe Illustrator 16.0.1, SVG Export Plug-In . SVG Version: 6.00 Build 0)  -->

<svg
   xmlns:dc="http://purl.org/dc/elements/1.1/"
   xmlns:cc="http://creativecommons.org/ns#"
   xmlns:rdf="http://www.w3.org/1999/02/22-rdf-syntax-ns#"
   xmlns:svg="http://www.w3.org/2000/svg"
   xmlns="http://www.w3.org/2000/svg"
   xmlns:xlink="http://www.w3.org/1999/xlink"
   xmlns:sodipodi="http://sodipodi.sourceforge.net/DTD/sodipodi-0.dtd"
   xmlns:inkscape="http://www.inkscape.org/namespaces/inkscape"
   version="1.0"
   id="_x31_"
   x="0px"
   y="0px"
   width="350"
   height="350"
   viewBox="0 0 350 350"
   enable-background="new 0 0 612 792"
   xml:space="preserve"
   inkscape:version="0.48.3.1 r9886"
   sodipodi:docname="6018.svg"><metadata
   id="metadata67"><rdf:RDF><cc:Work
       rdf:about=""><dc:format>image/svg+xml</dc:format><dc:type
         rdf:resource="http://purl.org/dc/dcmitype/StillImage" /></cc:Work></rdf:RDF></metadata><defs
   id="defs65"><radialGradient
     r="333.18735"
     fy="467.91885"
     fx="373.24265"
     cy="467.91885"
     cx="373.24265"
     gradientTransform="matrix(0.83535069,2.5391116e-7,-2.4564601e-7,0.80815885,-725.97492,-115.98714)"
     gradientUnits="userSpaceOnUse"
     id="radialGradient4460"
     xlink:href="#linearGradient5443"
     inkscape:collect="always" /><linearGradient
     y2="254.73526"
     x2="123.47623"
     y1="344.03848"
     x1="123.50603"
     gradientTransform="matrix(2.3189708,0,0,2.0930998,-543.56606,-225.82362)"
     gradientUnits="userSpaceOnUse"
     id="linearGradient4458"
     xlink:href="#linearGradient3187"
     inkscape:collect="always" /><radialGradient
     r="333.18735"
     fy="710.99164"
     fx="373.24265"
     cy="710.99164"
     cx="373.24265"
     gradientTransform="matrix(0.86272606,1.0667183e-7,-5.1097113e-8,0.31433999,-736.19251,168.72353)"
     gradientUnits="userSpaceOnUse"
     id="radialGradient4456"
     xlink:href="#linearGradient5443"
     inkscape:collect="always" /><radialGradient
     r="333.18735"
     fy="467.91885"
     fx="373.24265"
     cy="467.91885"
     cx="373.24265"
     gradientTransform="matrix(0.83393192,2.4025531e-7,-2.452288e-7,0.76469446,-575.89311,126.3946)"
     gradientUnits="userSpaceOnUse"
     id="radialGradient2894-5"
     xlink:href="#linearGradient5443-0"
     inkscape:collect="always" /><linearGradient
     y2="254.73526"
     x2="123.47623"
     y1="344.03848"
     x1="123.50603"
     gradientTransform="matrix(2.3189708,0,0,2.0930998,-543.56606,-225.82362)"
     gradientUnits="userSpaceOnUse"
     id="linearGradient2892-2"
     xlink:href="#linearGradient3187-1"
     inkscape:collect="always" /><radialGradient
     r="333.18735"
     fy="710.99164"
     fx="373.24265"
     cy="710.99164"
     cx="373.24265"
     gradientTransform="matrix(0.8612608,1.0093481e-7,-5.1010329e-8,0.29743416,-586.09339,395.79293)"
     gradientUnits="userSpaceOnUse"
     id="radialGradient2890-7"
     xlink:href="#linearGradient5443-0"
     inkscape:collect="always" /><linearGradient
     id="linearGradient5443-5-6"><stop
       style="stop-color:#ffffff;stop-opacity:0;"
       offset="0"
       id="stop5445-4-1" /><stop
       style="stop-color:#000000;stop-opacity:0.33962265;"
       offset="1"
       id="stop5447-3-4" /></linearGradient><radialGradient
     r="333.18735"
     fy="710.99164"
     fx="373.24265"
     cy="710.99164"
     cx="373.24265"
     gradientTransform="matrix(0.9503534,1.1750652e-7,-5.6287062e-8,0.3462676,317.80591,185.68771)"
     gradientUnits="userSpaceOnUse"
     id="radialGradient4835-3-2"
     xlink:href="#linearGradient5443-5-6"
     inkscape:collect="always" /><radialGradient
     r="333.18735"
     fy="710.99164"
     fx="373.24265"
     cy="710.99164"
     cx="373.24265"
     gradientTransform="matrix(0.8612608,1.0093481e-7,-5.1010329e-8,0.29743416,-586.09339,395.79293)"
     gradientUnits="userSpaceOnUse"
     id="radialGradient4835-2"
     xlink:href="#linearGradient5443-0"
     inkscape:collect="always" /><radialGradient
     r="333.18735"
     fy="467.91885"
     fx="373.24265"
     cy="467.91885"
     cx="373.24265"
     gradientTransform="matrix(0.83393192,2.4025531e-7,-2.452288e-7,0.76469446,-575.89311,126.3946)"
     gradientUnits="userSpaceOnUse"
     id="radialGradient4832-1"
     xlink:href="#linearGradient5443-0"
     inkscape:collect="always" /><linearGradient
     y2="254.73526"
     x2="123.47623"
     y1="344.03848"
     x1="123.50603"
     gradientTransform="matrix(2.3189708,0,0,2.0930998,-543.56606,-225.82362)"
     gradientUnits="userSpaceOnUse"
     id="linearGradient4827-6"
     xlink:href="#linearGradient3187-1"
     inkscape:collect="always" /><linearGradient
     y2="254.73526"
     x2="123.47623"
     y1="344.03848"
     x1="123.50603"
     gradientTransform="matrix(2.3189708,0,0,2.0930998,93.115298,-256.84999)"
     gradientUnits="userSpaceOnUse"
     id="linearGradient4824-8"
     xlink:href="#linearGradient3187-1"
     inkscape:collect="always" /><radialGradient
     r="333.18735"
     fy="467.91885"
     fx="373.24265"
     cy="467.91885"
     cx="373.24265"
     gradientTransform="matrix(0.9201975,2.7970099e-7,-2.7059634e-7,0.8902438,28.590287,48.634335)"
     gradientUnits="userSpaceOnUse"
     id="radialGradient4822-5"
     xlink:href="#linearGradient3171-6"
     inkscape:collect="always" /><radialGradient
     r="333.18735"
     fy="710.99164"
     fx="373.24265"
     cy="710.99164"
     cx="373.24265"
     gradientTransform="matrix(0.9503534,1.1750652e-7,-5.6287062e-8,0.3462676,17.334826,362.44227)"
     gradientUnits="userSpaceOnUse"
     id="radialGradient4820-7"
     xlink:href="#linearGradient3157-2"
     inkscape:collect="always" /><radialGradient
     r="333.18735"
     fy="710.99164"
     fx="373.24265"
     cy="710.99164"
     cx="373.24265"
     gradientTransform="matrix(0.9503534,1.1750652e-7,-5.6287062e-8,0.3462676,17.334826,362.44227)"
     gradientUnits="userSpaceOnUse"
     id="radialGradient4805-6"
     xlink:href="#linearGradient3157-2"
     inkscape:collect="always" /><radialGradient
     r="333.18735"
     fy="467.91885"
     fx="373.24265"
     cy="467.91885"
     cx="373.24265"
     gradientTransform="matrix(0.9201975,2.7970099e-7,-2.7059634e-7,0.8902438,28.590287,48.634335)"
     gradientUnits="userSpaceOnUse"
     id="radialGradient4802-1"
     xlink:href="#linearGradient3171-6"
     inkscape:collect="always" /><linearGradient
     y2="254.73526"
     x2="123.47623"
     y1="344.03848"
     x1="123.50603"
     gradientTransform="matrix(2.3189708,0,0,2.0930998,93.115298,-256.84999)"
     gradientUnits="userSpaceOnUse"
     id="linearGradient4799-8"
     xlink:href="#linearGradient3187-1"
     inkscape:collect="always" /><linearGradient
     y2="254.73526"
     x2="123.47623"
     y1="344.03848"
     x1="123.50603"
     gradientTransform="matrix(2.3189708,0,0,2.0930998,93.115298,-256.84999)"
     gradientUnits="userSpaceOnUse"
     id="linearGradient4794-9"
     xlink:href="#linearGradient3187-1"
     inkscape:collect="always" /><radialGradient
     r="333.18735"
     fy="467.91885"
     fx="373.24265"
     cy="467.91885"
     cx="373.24265"
     gradientTransform="matrix(0.9201975,2.7970099e-7,-2.7059634e-7,0.8902438,28.590287,48.634335)"
     gradientUnits="userSpaceOnUse"
     id="radialGradient4792-2"
     xlink:href="#linearGradient3171-6"
     inkscape:collect="always" /><radialGradient
     r="333.18735"
     fy="710.99164"
     fx="373.24265"
     cy="710.99164"
     cx="373.24265"
     gradientTransform="matrix(0.9503534,1.1750652e-7,-5.6287062e-8,0.3462676,17.334826,362.44227)"
     gradientUnits="userSpaceOnUse"
     id="radialGradient4790-7"
     xlink:href="#linearGradient3157-2"
     inkscape:collect="always" /><radialGradient
     r="333.18735"
     fy="710.99164"
     fx="373.24265"
     cy="710.99164"
     cx="373.24265"
     gradientTransform="matrix(0.9503534,1.1750652e-7,-5.6287062e-8,0.3462676,17.334826,362.44227)"
     gradientUnits="userSpaceOnUse"
     id="radialGradient4779-9"
     xlink:href="#linearGradient3157-2"
     inkscape:collect="always" /><radialGradient
     r="333.18735"
     fy="467.91885"
     fx="373.24265"
     cy="467.91885"
     cx="373.24265"
     gradientTransform="matrix(0.9201975,2.7970099e-7,-2.7059634e-7,0.8902438,28.590287,48.634335)"
     gradientUnits="userSpaceOnUse"
     id="radialGradient4776-5"
     xlink:href="#linearGradient3171-6"
     inkscape:collect="always" /><linearGradient
     y2="254.73526"
     x2="123.47623"
     y1="344.03848"
     x1="123.50603"
     gradientTransform="matrix(2.3189708,0,0,2.0930998,93.115298,-256.84999)"
     gradientUnits="userSpaceOnUse"
     id="linearGradient4773-4"
     xlink:href="#linearGradient3187-1"
     inkscape:collect="always" /><linearGradient
     y2="254.73526"
     x2="123.47623"
     y1="344.03848"
     x1="123.50603"
     gradientTransform="matrix(2.3189708,0,0,2.0930998,93.115298,-256.84999)"
     gradientUnits="userSpaceOnUse"
     id="linearGradient4770-3"
     xlink:href="#linearGradient3187-1"
     inkscape:collect="always" /><radialGradient
     r="333.18735"
     fy="467.91885"
     fx="373.24265"
     cy="467.91885"
     cx="373.24265"
     gradientTransform="matrix(0.9201975,2.7970099e-7,-2.7059634e-7,0.8902438,28.590287,48.634335)"
     gradientUnits="userSpaceOnUse"
     id="radialGradient4768-1"
     xlink:href="#linearGradient3171-6"
     inkscape:collect="always" /><radialGradient
     r="333.18735"
     fy="710.99164"
     fx="373.24265"
     cy="710.99164"
     cx="373.24265"
     gradientTransform="matrix(0.9503534,1.1750652e-7,-5.6287062e-8,0.3462676,17.334826,362.44227)"
     gradientUnits="userSpaceOnUse"
     id="radialGradient4766-2"
     xlink:href="#linearGradient3157-2"
     inkscape:collect="always" /><radialGradient
     r="333.18735"
     fy="710.99164"
     fx="373.24265"
     cy="710.99164"
     cx="373.24265"
     gradientTransform="matrix(0.9503534,1.1750652e-7,-5.6287062e-8,0.3462676,17.334826,362.44227)"
     gradientUnits="userSpaceOnUse"
     id="radialGradient4572-4"
     xlink:href="#linearGradient3157-2"
     inkscape:collect="always" /><radialGradient
     r="333.18735"
     fy="467.91885"
     fx="373.24265"
     cy="467.91885"
     cx="373.24265"
     gradientTransform="matrix(0.9201975,2.7970099e-7,-2.7059634e-7,0.8902438,28.590287,48.634335)"
     gradientUnits="userSpaceOnUse"
     id="radialGradient4569-1"
     xlink:href="#linearGradient3171-6"
     inkscape:collect="always" /><linearGradient
     y2="254.73526"
     x2="123.47623"
     y1="344.03848"
     x1="123.50603"
     gradientTransform="matrix(2.3189708,0,0,2.0930998,93.115298,-256.84999)"
     gradientUnits="userSpaceOnUse"
     id="linearGradient4562-1"
     xlink:href="#linearGradient3187-1"
     inkscape:collect="always" /><linearGradient
     gradientUnits="userSpaceOnUse"
     y2="540.86719"
     x2="360.49777"
     y1="167.50403"
     x1="360.49777"
     id="linearGradient4401-3"
     xlink:href="#linearGradient4395-7"
     inkscape:collect="always" /><linearGradient
     gradientUnits="userSpaceOnUse"
     y2="655.4505"
     x2="396.91168"
     y1="298.59412"
     x1="371.42194"
     id="linearGradient4389-8"
     xlink:href="#linearGradient4383-4"
     inkscape:collect="always" /><inkscape:perspective
     id="perspective3214-7"
     inkscape:persp3d-origin="372.04724 : 350.78739 : 1"
     inkscape:vp_z="744.09448 : 526.18109 : 1"
     inkscape:vp_y="0 : 1000 : 0"
     inkscape:vp_x="0 : 526.18109 : 1"
     sodipodi:type="inkscape:persp3d" /><linearGradient
     id="linearGradient4383-4"><stop
       id="stop4385-2"
       offset="0"
       style="stop-color:#00037f;stop-opacity:1;" /><stop
       id="stop4387-7"
       offset="1"
       style="stop-color:#00037f;stop-opacity:0;" /></linearGradient><linearGradient
     id="linearGradient4395-7"><stop
       id="stop4397-9"
       offset="0"
       style="stop-color:#110084;stop-opacity:1;" /><stop
       id="stop4399-3"
       offset="1"
       style="stop-color:#a695ff;stop-opacity:1;" /></linearGradient><linearGradient
     id="linearGradient3187-1"><stop
       id="stop3189-9"
       offset="0"
       style="stop-color:#ffffff;stop-opacity:0.39622641;" /><stop
       id="stop3191-8"
       offset="1"
       style="stop-color:#000000;stop-opacity:1;" /></linearGradient><linearGradient
     id="linearGradient3171-6"><stop
       style="stop-color:#49bcff;stop-opacity:1;"
       offset="0"
       id="stop3173-5" /><stop
       style="stop-color:#494cdc;stop-opacity:1;"
       offset="1"
       id="stop3175-0" /></linearGradient><linearGradient
     id="linearGradient3157-2"><stop
       id="stop3159-8"
       offset="0"
       style="stop-color:#49bcff;stop-opacity:1;" /><stop
       id="stop3161-6"
       offset="1"
       style="stop-color:#494c96;stop-opacity:1;" /></linearGradient><linearGradient
     id="linearGradient5443-0"><stop
       style="stop-color:#ffffff;stop-opacity:0;"
       offset="0"
       id="stop5445-2" /><stop
       style="stop-color:#000000;stop-opacity:0.33962265;"
       offset="1"
       id="stop5447-4" /></linearGradient><radialGradient
     inkscape:collect="always"
     xlink:href="#linearGradient5443-0"
     id="radialGradient3234"
     gradientUnits="userSpaceOnUse"
     gradientTransform="matrix(0.8612608,1.0093481e-7,-5.1010329e-8,0.29743416,-586.09339,395.79293)"
     cx="373.24265"
     cy="710.99164"
     fx="373.24265"
     fy="710.99164"
     r="333.18735" /><linearGradient
     inkscape:collect="always"
     xlink:href="#linearGradient3187-1"
     id="linearGradient3236"
     gradientUnits="userSpaceOnUse"
     gradientTransform="matrix(2.3189708,0,0,2.0930998,-543.56606,-225.82362)"
     x1="123.50603"
     y1="344.03848"
     x2="123.47623"
     y2="254.73526" /><radialGradient
     inkscape:collect="always"
     xlink:href="#linearGradient5443-0"
     id="radialGradient3238"
     gradientUnits="userSpaceOnUse"
     gradientTransform="matrix(0.83393192,2.4025531e-7,-2.452288e-7,0.76469446,-575.89311,126.3946)"
     cx="373.24265"
     cy="467.91885"
     fx="373.24265"
     fy="467.91885"
     r="333.18735" /><radialGradient
     inkscape:collect="always"
     xlink:href="#linearGradient5443-0"
     id="radialGradient3254"
     gradientUnits="userSpaceOnUse"
     gradientTransform="matrix(0.8612608,1.0093481e-7,-5.1010329e-8,0.29743416,-586.09339,395.79293)"
     cx="373.24265"
     cy="710.99164"
     fx="373.24265"
     fy="710.99164"
     r="333.18735" /><linearGradient
     inkscape:collect="always"
     xlink:href="#linearGradient3187-1"
     id="linearGradient3256"
     gradientUnits="userSpaceOnUse"
     gradientTransform="matrix(2.3189708,0,0,2.0930998,-543.56606,-225.82362)"
     x1="123.50603"
     y1="344.03848"
     x2="123.47623"
     y2="254.73526" /><radialGradient
     inkscape:collect="always"
     xlink:href="#linearGradient5443-0"
     id="radialGradient3258"
     gradientUnits="userSpaceOnUse"
     gradientTransform="matrix(0.83393192,2.4025531e-7,-2.452288e-7,0.76469446,-575.89311,126.3946)"
     cx="373.24265"
     cy="467.91885"
     fx="373.24265"
     fy="467.91885"
     r="333.18735" /><radialGradient
     inkscape:collect="always"
     xlink:href="#linearGradient5443-0"
     id="radialGradient3270"
     gradientUnits="userSpaceOnUse"
     gradientTransform="matrix(0.83535069,2.5391116e-7,-2.4564601e-7,0.80815885,-821.89024,-331.16994)"
     cx="373.24265"
     cy="467.91885"
     fx="373.24265"
     fy="467.91885"
     r="333.18735" /><radialGradient
     inkscape:collect="always"
     xlink:href="#linearGradient5443-0"
     id="radialGradient3274"
     gradientUnits="userSpaceOnUse"
     gradientTransform="matrix(0.86272606,1.0667183e-7,-5.1097113e-8,0.31433999,-832.10787,-46.459305)"
     cx="373.24265"
     cy="710.99164"
     fx="373.24265"
     fy="710.99164"
     r="333.18735" /><linearGradient
     y2="254.73526"
     x2="123.47623"
     y1="344.03848"
     x1="123.50603"
     gradientTransform="matrix(2.3189708,0,0,2.0930998,-543.56606,-225.82362)"
     gradientUnits="userSpaceOnUse"
     id="linearGradient3422"
     xlink:href="#linearGradient3187"
     inkscape:collect="always" /><radialGradient
     r="333.18735"
     fy="710.99164"
     fx="373.24265"
     cy="710.99164"
     cx="373.24265"
     gradientTransform="matrix(0.86272606,1.0667183e-7,-5.1097113e-8,0.31433999,-736.19251,168.72353)"
     gradientUnits="userSpaceOnUse"
     id="radialGradient3416"
     xlink:href="#linearGradient5443"
     inkscape:collect="always" /><radialGradient
     r="333.18735"
     fy="467.91885"
     fx="373.24265"
     cy="467.91885"
     cx="373.24265"
     gradientTransform="matrix(0.83535069,2.5391116e-7,-2.4564601e-7,0.80815885,-725.97492,-115.98714)"
     gradientUnits="userSpaceOnUse"
     id="radialGradient3412"
     xlink:href="#linearGradient5443"
     inkscape:collect="always" /><radialGradient
     r="333.18735"
     fy="467.91885"
     fx="373.24265"
     cy="467.91885"
     cx="373.24265"
     gradientTransform="matrix(0.83393192,2.4025531e-7,-2.452288e-7,0.76469446,-575.89311,126.3946)"
     gradientUnits="userSpaceOnUse"
     id="radialGradient2894"
     xlink:href="#linearGradient5443"
     inkscape:collect="always" /><linearGradient
     y2="254.73526"
     x2="123.47623"
     y1="344.03848"
     x1="123.50603"
     gradientTransform="matrix(2.3189708,0,0,2.0930998,-543.56606,-225.82362)"
     gradientUnits="userSpaceOnUse"
     id="linearGradient2892"
     xlink:href="#linearGradient3187"
     inkscape:collect="always" /><radialGradient
     r="333.18735"
     fy="710.99164"
     fx="373.24265"
     cy="710.99164"
     cx="373.24265"
     gradientTransform="matrix(0.8612608,1.0093481e-7,-5.1010329e-8,0.29743416,-586.09339,395.79293)"
     gradientUnits="userSpaceOnUse"
     id="radialGradient2890"
     xlink:href="#linearGradient5443"
     inkscape:collect="always" /><linearGradient
     id="linearGradient5443-5"><stop
       style="stop-color:#ffffff;stop-opacity:0;"
       offset="0"
       id="stop5445-4" /><stop
       style="stop-color:#000000;stop-opacity:0.33962265;"
       offset="1"
       id="stop5447-3" /></linearGradient><radialGradient
     r="333.18735"
     fy="710.99164"
     fx="373.24265"
     cy="710.99164"
     cx="373.24265"
     gradientTransform="matrix(0.9503534,1.1750652e-7,-5.6287062e-8,0.3462676,317.80591,185.68771)"
     gradientUnits="userSpaceOnUse"
     id="radialGradient4835-3"
     xlink:href="#linearGradient5443-5"
     inkscape:collect="always" /><filter
     color-interpolation-filters="sRGB"
     id="filter5511"
     inkscape:collect="always"><feGaussianBlur
       id="feGaussianBlur5513"
       stdDeviation="3.2374974"
       inkscape:collect="always" /></filter><radialGradient
     r="333.18735"
     fy="710.99164"
     fx="373.24265"
     cy="710.99164"
     cx="373.24265"
     gradientTransform="matrix(0.8612608,1.0093481e-7,-5.1010329e-8,0.29743416,-586.09339,395.79293)"
     gradientUnits="userSpaceOnUse"
     id="radialGradient4835"
     xlink:href="#linearGradient5443"
     inkscape:collect="always" /><radialGradient
     r="333.18735"
     fy="467.91885"
     fx="373.24265"
     cy="467.91885"
     cx="373.24265"
     gradientTransform="matrix(0.83393192,2.4025531e-7,-2.452288e-7,0.76469446,-575.89311,126.3946)"
     gradientUnits="userSpaceOnUse"
     id="radialGradient4832"
     xlink:href="#linearGradient5443"
     inkscape:collect="always" /><linearGradient
     y2="254.73526"
     x2="123.47623"
     y1="344.03848"
     x1="123.50603"
     gradientTransform="matrix(2.3189708,0,0,2.0930998,-543.56606,-225.82362)"
     gradientUnits="userSpaceOnUse"
     id="linearGradient4827"
     xlink:href="#linearGradient3187"
     inkscape:collect="always" /><linearGradient
     y2="254.73526"
     x2="123.47623"
     y1="344.03848"
     x1="123.50603"
     gradientTransform="matrix(2.3189708,0,0,2.0930998,93.115298,-256.84999)"
     gradientUnits="userSpaceOnUse"
     id="linearGradient4824"
     xlink:href="#linearGradient3187"
     inkscape:collect="always" /><radialGradient
     r="333.18735"
     fy="467.91885"
     fx="373.24265"
     cy="467.91885"
     cx="373.24265"
     gradientTransform="matrix(0.9201975,2.7970099e-7,-2.7059634e-7,0.8902438,28.590287,48.634335)"
     gradientUnits="userSpaceOnUse"
     id="radialGradient4822"
     xlink:href="#linearGradient3171"
     inkscape:collect="always" /><radialGradient
     r="333.18735"
     fy="710.99164"
     fx="373.24265"
     cy="710.99164"
     cx="373.24265"
     gradientTransform="matrix(0.9503534,1.1750652e-7,-5.6287062e-8,0.3462676,17.334826,362.44227)"
     gradientUnits="userSpaceOnUse"
     id="radialGradient4820"
     xlink:href="#linearGradient3157"
     inkscape:collect="always" /><radialGradient
     r="333.18735"
     fy="710.99164"
     fx="373.24265"
     cy="710.99164"
     cx="373.24265"
     gradientTransform="matrix(0.9503534,1.1750652e-7,-5.6287062e-8,0.3462676,17.334826,362.44227)"
     gradientUnits="userSpaceOnUse"
     id="radialGradient4805"
     xlink:href="#linearGradient3157"
     inkscape:collect="always" /><radialGradient
     r="333.18735"
     fy="467.91885"
     fx="373.24265"
     cy="467.91885"
     cx="373.24265"
     gradientTransform="matrix(0.9201975,2.7970099e-7,-2.7059634e-7,0.8902438,28.590287,48.634335)"
     gradientUnits="userSpaceOnUse"
     id="radialGradient4802"
     xlink:href="#linearGradient3171"
     inkscape:collect="always" /><linearGradient
     y2="254.73526"
     x2="123.47623"
     y1="344.03848"
     x1="123.50603"
     gradientTransform="matrix(2.3189708,0,0,2.0930998,93.115298,-256.84999)"
     gradientUnits="userSpaceOnUse"
     id="linearGradient4799"
     xlink:href="#linearGradient3187"
     inkscape:collect="always" /><linearGradient
     y2="254.73526"
     x2="123.47623"
     y1="344.03848"
     x1="123.50603"
     gradientTransform="matrix(2.3189708,0,0,2.0930998,93.115298,-256.84999)"
     gradientUnits="userSpaceOnUse"
     id="linearGradient4794"
     xlink:href="#linearGradient3187"
     inkscape:collect="always" /><radialGradient
     r="333.18735"
     fy="467.91885"
     fx="373.24265"
     cy="467.91885"
     cx="373.24265"
     gradientTransform="matrix(0.9201975,2.7970099e-7,-2.7059634e-7,0.8902438,28.590287,48.634335)"
     gradientUnits="userSpaceOnUse"
     id="radialGradient4792"
     xlink:href="#linearGradient3171"
     inkscape:collect="always" /><radialGradient
     r="333.18735"
     fy="710.99164"
     fx="373.24265"
     cy="710.99164"
     cx="373.24265"
     gradientTransform="matrix(0.9503534,1.1750652e-7,-5.6287062e-8,0.3462676,17.334826,362.44227)"
     gradientUnits="userSpaceOnUse"
     id="radialGradient4790"
     xlink:href="#linearGradient3157"
     inkscape:collect="always" /><radialGradient
     r="333.18735"
     fy="710.99164"
     fx="373.24265"
     cy="710.99164"
     cx="373.24265"
     gradientTransform="matrix(0.9503534,1.1750652e-7,-5.6287062e-8,0.3462676,17.334826,362.44227)"
     gradientUnits="userSpaceOnUse"
     id="radialGradient4779"
     xlink:href="#linearGradient3157"
     inkscape:collect="always" /><radialGradient
     r="333.18735"
     fy="467.91885"
     fx="373.24265"
     cy="467.91885"
     cx="373.24265"
     gradientTransform="matrix(0.9201975,2.7970099e-7,-2.7059634e-7,0.8902438,28.590287,48.634335)"
     gradientUnits="userSpaceOnUse"
     id="radialGradient4776"
     xlink:href="#linearGradient3171"
     inkscape:collect="always" /><linearGradient
     y2="254.73526"
     x2="123.47623"
     y1="344.03848"
     x1="123.50603"
     gradientTransform="matrix(2.3189708,0,0,2.0930998,93.115298,-256.84999)"
     gradientUnits="userSpaceOnUse"
     id="linearGradient4773"
     xlink:href="#linearGradient3187"
     inkscape:collect="always" /><linearGradient
     y2="254.73526"
     x2="123.47623"
     y1="344.03848"
     x1="123.50603"
     gradientTransform="matrix(2.3189708,0,0,2.0930998,93.115298,-256.84999)"
     gradientUnits="userSpaceOnUse"
     id="linearGradient4770"
     xlink:href="#linearGradient3187"
     inkscape:collect="always" /><radialGradient
     r="333.18735"
     fy="467.91885"
     fx="373.24265"
     cy="467.91885"
     cx="373.24265"
     gradientTransform="matrix(0.9201975,2.7970099e-7,-2.7059634e-7,0.8902438,28.590287,48.634335)"
     gradientUnits="userSpaceOnUse"
     id="radialGradient4768"
     xlink:href="#linearGradient3171"
     inkscape:collect="always" /><radialGradient
     r="333.18735"
     fy="710.99164"
     fx="373.24265"
     cy="710.99164"
     cx="373.24265"
     gradientTransform="matrix(0.9503534,1.1750652e-7,-5.6287062e-8,0.3462676,17.334826,362.44227)"
     gradientUnits="userSpaceOnUse"
     id="radialGradient4766"
     xlink:href="#linearGradient3157"
     inkscape:collect="always" /><filter
     color-interpolation-filters="sRGB"
     id="filter4659"
     inkscape:collect="always"><feGaussianBlur
       id="feGaussianBlur4661"
       stdDeviation="2.7750933"
       inkscape:collect="always" /></filter><radialGradient
     r="333.18735"
     fy="710.99164"
     fx="373.24265"
     cy="710.99164"
     cx="373.24265"
     gradientTransform="matrix(0.9503534,1.1750652e-7,-5.6287062e-8,0.3462676,17.334826,362.44227)"
     gradientUnits="userSpaceOnUse"
     id="radialGradient4572"
     xlink:href="#linearGradient3157"
     inkscape:collect="always" /><radialGradient
     r="333.18735"
     fy="467.91885"
     fx="373.24265"
     cy="467.91885"
     cx="373.24265"
     gradientTransform="matrix(0.9201975,2.7970099e-7,-2.7059634e-7,0.8902438,28.590287,48.634335)"
     gradientUnits="userSpaceOnUse"
     id="radialGradient4569"
     xlink:href="#linearGradient3171"
     inkscape:collect="always" /><linearGradient
     y2="254.73526"
     x2="123.47623"
     y1="344.03848"
     x1="123.50603"
     gradientTransform="matrix(2.3189708,0,0,2.0930998,93.115298,-256.84999)"
     gradientUnits="userSpaceOnUse"
     id="linearGradient4562"
     xlink:href="#linearGradient3187"
     inkscape:collect="always" /><linearGradient
     gradientUnits="userSpaceOnUse"
     y2="540.86719"
     x2="360.49777"
     y1="167.50403"
     x1="360.49777"
     id="linearGradient4401"
     xlink:href="#linearGradient4395"
     inkscape:collect="always" /><linearGradient
     gradientUnits="userSpaceOnUse"
     y2="655.4505"
     x2="396.91168"
     y1="298.59412"
     x1="371.42194"
     id="linearGradient4389"
     xlink:href="#linearGradient4383"
     inkscape:collect="always" /><inkscape:perspective
     id="perspective3214"
     inkscape:persp3d-origin="372.04724 : 350.78739 : 1"
     inkscape:vp_z="744.09448 : 526.18109 : 1"
     inkscape:vp_y="0 : 1000 : 0"
     inkscape:vp_x="0 : 526.18109 : 1"
     sodipodi:type="inkscape:persp3d" /><linearGradient
     id="linearGradient4383"><stop
       id="stop4385"
       offset="0"
       style="stop-color:#00037f;stop-opacity:1;" /><stop
       id="stop4387"
       offset="1"
       style="stop-color:#00037f;stop-opacity:0;" /></linearGradient><linearGradient
     id="linearGradient4395"><stop
       id="stop4397"
       offset="0"
       style="stop-color:#110084;stop-opacity:1;" /><stop
       id="stop4399"
       offset="1"
       style="stop-color:#a695ff;stop-opacity:1;" /></linearGradient><linearGradient
     id="linearGradient3187"><stop
       id="stop3189"
       offset="0"
       style="stop-color:#ffffff;stop-opacity:0.39622641;" /><stop
       id="stop3191"
       offset="1"
       style="stop-color:#9e9e9e;stop-opacity:1;" /></linearGradient><linearGradient
     id="linearGradient3171"><stop
       style="stop-color:#49bcff;stop-opacity:1;"
       offset="0"
       id="stop3173" /><stop
       style="stop-color:#494cdc;stop-opacity:1;"
       offset="1"
       id="stop3175" /></linearGradient><linearGradient
     id="linearGradient3157"><stop
       id="stop3159"
       offset="0"
       style="stop-color:#49bcff;stop-opacity:1;" /><stop
       id="stop3161"
       offset="1"
       style="stop-color:#494c96;stop-opacity:1;" /></linearGradient><linearGradient
     id="linearGradient5443"><stop
       style="stop-color:#ffffff;stop-opacity:0;"
       offset="0"
       id="stop5445" /><stop
       style="stop-color:#cbcac8;stop-opacity:1;"
       offset="1"
       id="stop5447" /></linearGradient><radialGradient
     inkscape:collect="always"
     xlink:href="#linearGradient5443"
     id="radialGradient3253"
     gradientUnits="userSpaceOnUse"
     gradientTransform="matrix(0.8612608,1.0093481e-7,-5.1010329e-8,0.29743416,-586.09339,395.79293)"
     cx="373.24265"
     cy="710.99164"
     fx="373.24265"
     fy="710.99164"
     r="333.18735" /><linearGradient
     inkscape:collect="always"
     xlink:href="#linearGradient3187"
     id="linearGradient3255"
     gradientUnits="userSpaceOnUse"
     gradientTransform="matrix(2.3189708,0,0,2.0930998,-543.56606,-225.82362)"
     x1="123.50603"
     y1="344.03848"
     x2="123.47623"
     y2="254.73526" /><radialGradient
     inkscape:collect="always"
     xlink:href="#linearGradient5443"
     id="radialGradient3257"
     gradientUnits="userSpaceOnUse"
     gradientTransform="matrix(0.83393192,2.4025531e-7,-2.452288e-7,0.76469446,-575.89311,126.3946)"
     cx="373.24265"
     cy="467.91885"
     fx="373.24265"
     fy="467.91885"
     r="333.18735" /><radialGradient
     inkscape:collect="always"
     xlink:href="#linearGradient5443"
     id="radialGradient3273"
     gradientUnits="userSpaceOnUse"
     gradientTransform="matrix(0.8612608,1.0093481e-7,-5.1010329e-8,0.29743416,-586.09339,395.79293)"
     cx="373.24265"
     cy="710.99164"
     fx="373.24265"
     fy="710.99164"
     r="333.18735" /><linearGradient
     inkscape:collect="always"
     xlink:href="#linearGradient3187"
     id="linearGradient3275"
     gradientUnits="userSpaceOnUse"
     gradientTransform="matrix(2.3189708,0,0,2.0930998,-543.56606,-225.82362)"
     x1="123.50603"
     y1="344.03848"
     x2="123.47623"
     y2="254.73526" /><radialGradient
     inkscape:collect="always"
     xlink:href="#linearGradient5443"
     id="radialGradient3277"
     gradientUnits="userSpaceOnUse"
     gradientTransform="matrix(0.83393192,2.4025531e-7,-2.452288e-7,0.76469446,-575.89311,126.3946)"
     cx="373.24265"
     cy="467.91885"
     fx="373.24265"
     fy="467.91885"
     r="333.18735" /></defs><sodipodi:namedview
   pagecolor="#ffffff"
   bordercolor="#666666"
   borderopacity="1"
   objecttolerance="10"
   gridtolerance="10"
   guidetolerance="10"
   inkscape:pageopacity="0"
   inkscape:pageshadow="2"
   inkscape:window-width="1920"
   inkscape:window-height="1031"
   id="namedview63"
   showgrid="false"
   fit-margin-top="0"
   fit-margin-left="0"
   fit-margin-right="0"
   fit-margin-bottom="0"
   inkscape:zoom="1.1919192"
   inkscape:cx="337.7077"
   inkscape:cy="170.38795"
   inkscape:window-x="-4"
   inkscape:window-y="-4"
   inkscape:window-maximized="1"
   inkscape:current-layer="_x31_" />



















<g
   id="g4269"
   transform="translate(-4.0524846e-6,1.5294449e-7)"><g
     transform="translate(589.18636,-87.165827)"
     id="g4448"><rect
       transform="matrix(2.1051501,0,0,2.1051501,-860.18934,-1.2010596)"
       ry="12.45238"
       rx="16.067965"
       y="48.636749"
       x="135.39355"
       height="152.93848"
       width="152.93848"
       id="rect4192"
       style="fill:#cccccc;fill-opacity:1;stroke:none;filter:url(#filter4659)"
       inkscape:export-filename="C:\Documents and Settings\adscro24\Desktop\128.png"
       inkscape:export-xdpi="29.879425"
       inkscape:export-ydpi="29.879425" /><rect
       inkscape:export-ydpi="29.879425"
       inkscape:export-xdpi="29.879425"
       inkscape:export-filename="C:\Documents and Settings\adscro24\Desktop\128.png"
       style="fill:#cbcac8;fill-opacity:1;stroke:none;filter:url(#filter4659)"
       id="rect3279"
       width="152.93848"
       height="152.93848"
       x="135.39355"
       y="48.636749"
       rx="16.067965"
       ry="12.45238"
       transform="matrix(2.1051501,0,0,2.1051501,-860.18934,-1.2010596)" /><rect
       inkscape:export-ydpi="29.879425"
       inkscape:export-xdpi="29.879425"
       inkscape:export-filename="C:\Documents and Settings\adscro24\Desktop\128.png"
       style="opacity:0.61338286;fill:url(#radialGradient4456);fill-opacity:1;stroke:#000000;stroke-width:3.26806188;stroke-miterlimit:4;stroke-opacity:1;stroke-dasharray:none"
       id="rect3155"
       width="321.95847"
       height="321.95844"
       x="-575.16559"
       y="101.18661"
       rx="33.825478"
       ry="26.214128" /><path
       transform="matrix(0.907795,0,0,0.90779498,-173.95283,-177.39738)"
       inkscape:export-ydpi="29.879425"
       inkscape:export-xdpi="29.879425"
       inkscape:export-filename="C:\Documents and Settings\adscro24\Desktop\128.png"
       inkscape:connector-curvature="0"
       style="opacity:0.61338286;fill:url(#linearGradient4458);fill-opacity:1;stroke:none;filter:url(#filter5511)"
       d="m -397.80626,329.07489 c -19.62748,0 -35.44272,12.0976 -35.44272,27.14163 l 0,124.30857 c 29.25482,11.38638 132.70149,11.89599 165.40488,-5.79022 33.32802,-18.02397 127.54379,-68.44264 171.824837,-52.72052 l 0,-65.79783 c 0,-15.04403 -15.798597,-27.14163 -35.426097,-27.14163 l -266.3609,0 z m -35.44272,263.47103 0,42.88373 c 0,1.33144 0.14331,2.63588 0.38253,3.915 -0.11919,-12.81092 -0.25965,-28.88939 -0.38253,-46.79873 z"
       id="rect3177" /><rect
       inkscape:export-ydpi="29.879425"
       inkscape:export-xdpi="29.879425"
       inkscape:export-filename="C:\Documents and Settings\adscro24\Desktop\128.png"
       style="opacity:0.61338286;fill:url(#radialGradient4460);fill-opacity:1;stroke:#ffffff;stroke-width:0.68992418;stroke-linecap:square;stroke-miterlimit:4;stroke-opacity:1;stroke-dasharray:none"
       id="rect3473"
       width="306.12445"
       height="306.12445"
       x="-567.2486"
       y="109.1036"
       rx="32.161926"
       ry="24.924911" /><rect
       inkscape:export-ydpi="29.879425"
       inkscape:export-xdpi="29.879425"
       inkscape:export-filename="C:\Documents and Settings\adscro24\Desktop\128.png"
       style="opacity:0.61338286;fill:#ffffff;fill-opacity:0;stroke:#000000;stroke-width:3.26806188;stroke-miterlimit:4;stroke-opacity:1;stroke-dasharray:none"
       id="rect3155-2"
       width="321.95847"
       height="321.95844"
       x="-575.16559"
       y="101.18661"
       rx="33.825478"
       ry="26.214128" /></g><g
     transform="translate(358.29183,-87.165827)"
     id="LWPOLYLINE_2_-7">
	
		
</g><g
     transform="translate(358.29183,-87.165827)"
     id="LWPOLYLINE_3_-4">
	
		
</g><g
     transform="translate(358.29183,-87.165827)"
     id="LWPOLYLINE_4_-0">
	
		
</g><g
     transform="translate(184.65055,-351.95215)"
     style="fill:#000000;fill-opacity:1;stroke:none"
     id="LWPOLYLINE_6_-7">
	
		
</g><g
     transform="translate(184.65055,-351.95215)"
     style="fill:#000000;fill-opacity:1;stroke:none"
     id="LWPOLYLINE-4">
	
		
</g><g
     transform="translate(184.65055,-351.95215)"
     style="fill:#000000;fill-opacity:1;stroke:none"
     id="LWPOLYLINE_3_-0">
	
		
</g></g><g
   id="g3838"
   transform="matrix(0.499998,0,0,0.499998,22.000856,-22.74971)"><g
     style="fill:#000000;fill-opacity:1;stroke:none"
     id="LWPOLYLINE_5_">
	
		<path
   id="path19"
   d="m 366.90625,551.6875 0,92.21875 0.3125,0 0.34375,0 0.25,0 0.21875,0 0.3125,0 0.28125,0 0.34375,0 0.34375,0 0.34375,0 0.34375,0 0.40625,0 0.4375,0 0.375,0 0.4375,0 0.375,0 0.4375,0 0.40625,0 0.40625,0 0.4375,0 0.375,0 0.4375,0 0.375,0 0.34375,0 0.34375,0 0.375,0 0.34375,0 0.28125,0 0.28125,0 0.25,0 0.21875,0 0.375,0 0.21875,0 c 0.077,-0.078 0.0625,-0.3125 0.0625,-0.3125 l 0,-0.34375 0,-0.5 0,-0.65625 0,-0.75 0,-0.84375 0,-0.96875 0,-1.0625 0,-1.15625 0,-1.21875 0,-1.28125 0,-1.34375 0,-1.4375 0,-1.4375 0,-1.5 0,-1.5625 0,-1.5625 0,-1.5625 0,-1.5625 0,-1.5625 0,-1.59375 0,-1.5625 0,-1.5 0,-1.53125 0,-1.46875 0,-1.40625 0,-1.34375 0,-1.28125 0,-1.25 0,-1.125 0,-1.09375 0,-0.90625 0,-0.90625 0,-0.75 0,-0.59375 0,-0.53125 0,-0.375 0,-0.1875 c 0.116,-0.077 0.25,-0.0937 0.25,-0.0937 l 0.34375,0 0.28125,0 0.25,0 0.3125,0 0.3125,0 0.40625,0 0.375,0 0.4375,0 0.4375,0 0.4375,0 0.46875,0 0.46875,0 0.5,0 0.46875,0 0.5,0 0.53125,0 0.53125,0 0.5,0 0.46875,0 0.5,0 0.46875,0 0.46875,0 0.46875,0 0.4375,0 0.40625,0 0.40625,0 0.375,0 0.3125,0 0.3125,0 0.28125,0 0.25,0 0.21875,0 0.25,0 0.40625,0 0.34375,0 0.34375,0 0.34375,0 0.34375,0 0.40625,0.0625 0.375,0 0.375,0.0312 0.4375,0.0312 0.40625,0.0312 0.40625,0.0937 0.4375,0.0312 0.4375,0.0937 0.40625,0.0937 0.4375,0.125 0.4375,0.125 0.4375,0.15625 0.4375,0.15625 0.4375,0.15625 0.375,0.1875 0.4375,0.21875 0.4375,0.25 0.375,0.25 0.375,0.28125 0.40625,0.34375 0.34375,0.3125 0.34375,0.40625 0.34375,0.375 0.3125,0.4375 0.3125,0.46875 0.28125,0.4375 0.28125,0.53125 0.25,0.5625 0.25,0.59375 0.1875,0.625 0.1875,0.65625 0.15625,0.6875 0.125,0.71875 0.125,0.75 0.0625,0.8125 0.0312,0.90625 0.0625,0.90625 0.0625,0.875 0.0312,0.90625 0.0625,0.875 0.0312,0.90625 0,0.90625 0.0312,0.875 0.0312,0.84375 0.0312,0.90625 0,0.84375 0.0625,0.875 0.0312,0.875 0,0.875 0.0312,0.8125 0.0312,0.84375 0.0625,0.84375 0.0312,0.8125 0.0312,0.8125 0.0312,0.84375 0.0625,0.75 0.0312,0.8125 0.0625,0.78125 0.0625,0.78125 0.0625,0.75 0.0937,0.78125 0.0625,0.71875 0.125,0.6875 0.0625,0.75 0.125,0.6875 0.125,0.6875 0.15625,0.6875 0.0937,0.65625 0.15625,0.625 0.15625,0.625 0.1875,0.625 0.21875,0.5625 0.1875,0.59375 0.21875,0.5625 0.25,0.5625 0.1875,0 0.34375,0 0.25,0 0.21875,0 0.3125,0 0.3125,0 0.34375,0 0.34375,0 0.40625,0 0.40625,0 0.4375,0 0.4375,0 0.46875,0 0.46875,0 0.4375,0 0.46875,0 0.46875,0 0.5,0 0.46875,0 0.46875,0 0.46875,0 0.46875,0 0.4375,0 0.40625,0 0.4375,0 0.40625,0 0.34375,0 0.34375,0 0.3125,0 0.3125,0 0.21875,0 0.25,0 0.34375,0 0.1875,0 -0.15625,-0.5 -0.1875,-0.5 -0.15625,-0.5625 -0.15625,-0.5625 -0.15625,-0.59375 -0.15625,-0.625 -0.125,-0.625 -0.15625,-0.65625 -0.0937,-0.65625 -0.125,-0.6875 -0.125,-0.71875 -0.0937,-0.6875 -0.125,-0.6875 -0.125,-0.75 -0.125,-0.75 -0.0625,-0.71875 -0.0937,-0.75 -0.0937,-0.71875 -0.0937,-0.75 -0.0625,-0.6875 -0.0937,-0.75 -0.0312,-0.75 -0.0625,-0.6875 -0.0625,-0.6875 -0.0625,-0.71875 -0.0312,-0.6875 -0.0625,-0.65625 L 418,625.125 l -0.0312,-0.625 0,-0.625 -0.0625,-0.5625 -0.0312,-0.5625 -0.0312,-0.53125 0,-0.5 -0.0312,-0.53125 0,-0.4375 0,-0.4375 0,-0.40625 -0.0625,-0.34375 0,-0.3125 -0.0312,-1.3125 -0.0625,-1.3125 -0.125,-1.21875 -0.0937,-1.1875 -0.0937,-1.125 -0.1566,-1.09375 -0.125,-1 -0.15625,-1.03125 -0.1875,-0.90625 -0.1875,-0.90625 -0.1875,-0.84375 L 416.125,606.5 415.90625,605.71875 415.625,605 l -0.25,-0.6875 -0.28125,-0.65625 -0.28125,-0.625 -0.34375,-0.59375 -0.3125,-0.53125 -0.34375,-0.53125 -0.34375,-0.46875 -0.40625,-0.46875 -0.40625,-0.46875 -0.4375,-0.375 -0.4375,-0.40625 -0.46875,-0.34375 -0.46875,-0.34375 -0.5,-0.3125 -0.53125,-0.3125 -0.5625,-0.3125 -0.53125,-0.25 -0.59375,-0.25 -0.59375,-0.25 -0.625,-0.21875 -0.625,-0.25 -0.71875,-0.1875 -0.6875,-0.1875 -0.6875,-0.1875 -0.75,-0.1875 -0.78125,-0.15625 0.78125,-0.15625 0.75,-0.15625 0.71875,-0.1875 0.75,-0.21875 0.6875,-0.21875 0.71875,-0.28125 0.65625,-0.25 0.65625,-0.3125 0.65625,-0.3125 0.625,-0.375 0.59375,-0.375 0.59375,-0.375 0.5625,-0.4375 0.5625,-0.4375 0.53125,-0.46875 0.53125,-0.46875 0.5,-0.4375 0.46875,-0.53125 0.46875,-0.53125 0.4375,-0.53125 0.40625,-0.5625 0.40625,-0.5625 0.375,-0.625 0.40625,-0.59375 0.3125,-0.625 0.34375,-0.625 0.3125,-0.65625 0.25,-0.65625 0.25,-0.65625 0.25,-0.6875 0.21875,-0.71875 0.1875,-0.6875 0.1875,-0.75 0.15625,-0.6875 0.125,-0.75 0.0937,-0.71875 0.0937,-0.78125 0.0312,-0.75 0.0312,-0.75 0,-0.78125 0,-0.90625 -0.0312,-0.875 -0.0312,-0.875 -0.0937,-0.875 -0.0937,-0.875 -0.125,-0.875 -0.125,-0.875 -0.1875,-0.84375 -0.1875,-0.8125 -0.1875,-0.8125 L 418,565.3125 417.71875,564.5 l -0.25,-0.78125 -0.375,-0.75 -0.34375,-0.75 -0.34375,-0.75 -0.4375,-0.6875 -0.40625,-0.71875 -0.46875,-0.65625 -0.5,-0.65625 -0.5,-0.625 -0.5625,-0.625 -0.59375,-0.5625 -0.59375,-0.5625 -0.65625,-0.53125 -0.6875,-0.5 -0.6875,-0.46875 -0.78125,-0.4375 -0.78125,-0.40625 -0.75,-0.40625 -0.875,-0.34375 -0.875,-0.3125 -0.90625,-0.3125 -0.96875,-0.21875 -0.96875,-0.25 -1.0625,-0.15625 -1.03125,-0.15625 -1.09375,-0.0937 -1.125,-0.0625 -1.1875,-0.0312 -0.21875,0 -0.25,0 -0.40625,0 -0.46875,0 -0.53125,0 -0.625,0 -0.71875,0 -0.78125,0 -0.8125,0 -0.9375,0 -0.9375,0 -1,0 -1.0625,0 -1.03125,0 -1.125,0 -1.125,0 -1.125,0 -1.1875,0 -1.15625,0 -1.15625,0 -1.15625,0 -1.15625,0 -1.125,0 -1.125,0 -1.03125,0 -1.0625,0 -1,0 -0.9375,0 -0.9375,0 -0.8125,0 -0.75,0 -0.71875,0 -0.65625,0 -0.53125,0 -0.46875,0 -0.40625,0 -0.25,0 -0.21875,0 z M 378,562.0625 l 0.3125,0 0.1875,0 0.28125,0 0.3125,0 0.34375,0 0.40625,0 0.46875,0 0.46875,0 0.5,0 0.53125,0 0.53125,0 0.59375,0 0.625,0 0.625,0 0.625,0 0.65625,0 0.65625,0 0.65625,0 0.65625,0 0.625,0 0.65625,0 0.625,0 0.625,0 0.625,0 0.5625,0 0.59375,0 0.5,0 0.5625,0 0.4375,0 0.4375,0 0.40625,0 0.375,0 0.3125,0 0.21875,0 0.25,0 0.21875,0 0.71875,0 0.59375,0.0312 0.59375,0.0625 0.59375,0.0937 0.5625,0.125 0.5625,0.0937 0.5,0.15625 0.5,0.1875 0.5,0.21875 0.46875,0.21875 0.46875,0.21875 0.4375,0.28125 0.375,0.28125 0.40625,0.3125 0.375,0.3125 0.34375,0.3125 0.34375,0.34375 0.375,0.34375 0.28125,0.34375 0.28125,0.40625 0.28125,0.375 0.28125,0.4375 0.21875,0.375 0.21875,0.4375 0.21875,0.46875 0.1875,0.40625 0.1875,0.46875 0.15625,0.4375 0.15625,0.46875 0.15625,0.46875 0.125,0.46875 0.0937,0.5 0.0937,0.46875 0.0625,0.46875 0.0937,0.5 0.0625,0.46875 0.0312,0.5 0.0625,0.46875 0,0.46875 0,0.5 0,0.65625 -0.0625,0.625 -0.0312,0.65625 -0.0312,0.625 -0.0937,0.625 -0.0625,0.625 -0.0625,0.5625 -0.125,0.625 -0.125,0.59375 -0.15625,0.5625 -0.15625,0.5625 -0.15625,0.5625 -0.1875,0.53125 -0.1875,0.53125 -0.25,0.5 -0.21875,0.5 -0.21875,0.5 -0.28125,0.46875 -0.28125,0.46875 -0.3125,0.4375 -0.3125,0.4375 -0.3125,0.375 -0.3125,0.375 -0.34375,0.40625 -0.375,0.34375 -0.40625,0.34375 -0.375,0.3125 -0.40625,0.28125 -0.40625,0.28125 -0.46875,0.25 -0.4375,0.25 -0.46875,0.1875 -0.5,0.1875 -0.5,0.15625 -0.5,0.15625 -0.5625,0.125 -0.53125,0.0625 -0.53125,0.0937 -0.59375,0.0312 -0.59375,0 -0.25,0 -0.25,0 -0.21875,0 -0.3125,0 -0.40625,0 -0.375,0 -0.4375,0 -0.46875,0 -0.53125,0 -0.5,0 -0.59375,0 -0.5625,0 -0.625,0 -0.625,0 -0.625,0 -0.65625,0 -0.625,0 -0.65625,0 -0.65625,0 -0.65625,0 -0.65625,0 -0.625,0 -0.625,0 -0.625,0 -0.59375,0 -0.53125,0 -0.53125,0 -0.53125,0 -0.4375,0 -0.46875,0 -0.40625,0 -0.34375,0 -0.3125,0 -0.28125,0 -0.1875,0 -0.25,0 C 378.0245,591.4355 378,562.0625 378,562.0625 z"
   style="fill:#000000;fill-opacity:1;stroke:none"
   inkscape:connector-curvature="0" />
</g><g
     style="fill:#000000;fill-opacity:1;stroke:none"
     id="LWPOLYLINE">
	
		<path
   style="fill:#000000;fill-opacity:1;stroke:none"
   id="path4"
   d="m 137.965,551.688 c -0.175,0 -0.311,0 -0.311,0 -0.175,0 -0.369,0 -0.369,0 h -0.232 -0.253 -0.271 -0.311 -0.311 -0.349 -0.369 -0.369 -0.388 -0.388 -0.408 -0.407 -0.407 -0.428 -0.407 -0.427 -0.407 -0.408 -0.388 -0.389 -0.368 -0.369 -0.33 -0.33 -0.31 -0.272 -0.252 -0.233 c -0.193,0 -0.349,0 -0.349,0 -0.136,0 -0.233,0 -0.233,0 -0.097,0.193 -0.097,0.698 -0.097,0.698 v 0.776 1.125 1.359 1.669 1.862 2.097 2.328 2.523 2.639 2.834 2.988 3.105 3.183 3.299 3.338 3.416 3.416 3.454 3.454 3.455 3.377 3.376 3.261 3.222 3.066 2.988 2.834 2.678 2.484 2.328 2.097 1.901 1.631 1.358 1.125 0.815 0.505 c 0.194,0.155 0.33,0.155 0.33,0.155 0.155,0 0.349,0 0.349,0 h 0.233 0.252 0.272 0.31 0.33 0.33 0.369 0.368 0.389 0.388 0.408 0.407 0.427 0.407 0.428 0.407 0.407 0.408 0.388 0.388 0.369 0.369 0.349 0.311 0.311 0.271 0.253 0.232 0.194 c 0.175,0 0.311,0 0.311,0 0.175,0.002 0.175,-92.219 0.175,-92.219 z"
   stroke-miterlimit="10"
   inkscape:connector-curvature="0" />
</g><g
     style="fill:#000000;fill-opacity:1;stroke:none"
     id="LWPOLYLINE_1_">
	
		<path
   style="fill:#000000;fill-opacity:1;stroke:none"
   id="path7"
   d="m 207.907,551.688 c 0,0.154 0,0.582 0,0.582 v 0.698 0.932 1.164 1.437 1.591 1.786 1.979 2.135 2.29 2.406 2.562 2.64 2.717 2.795 2.872 2.911 2.911 2.949 2.95 2.95 2.872 2.872 2.795 2.756 2.639 2.523 2.406 2.29 2.135 1.979 1.785 1.63 1.397 1.165 0.932 0.698 0.427 c -0.059,0 -0.252,-0.427 -0.252,-0.427 l -0.311,-0.698 -0.408,-0.932 -0.523,-1.165 -0.621,-1.397 -0.718,-1.63 -0.796,-1.785 -0.873,-1.979 -0.951,-2.135 -1.028,-2.29 -1.067,-2.406 -1.126,-2.523 -1.164,-2.639 -1.223,-2.756 -1.242,-2.795 -1.281,-2.872 -1.28,-2.872 -1.301,-2.95 -1.319,-2.95 -1.301,-2.949 -1.3,-2.911 -1.301,-2.911 -1.261,-2.872 -1.262,-2.795 -1.203,-2.717 -1.184,-2.64 -1.126,-2.562 -1.067,-2.406 -1.009,-2.29 -0.951,-2.135 -0.873,-1.979 -0.815,-1.786 -0.699,-1.591 -0.62,-1.437 -0.524,-1.164 -0.427,-0.932 -0.311,-0.698 -0.194,-0.428 c -0.175,-0.154 -0.311,-0.154 -0.311,-0.154 -0.194,0 -0.427,0 -0.427,0 h -0.291 -0.311 -0.369 -0.407 -0.427 -0.466 -0.485 -0.505 -0.543 -0.544 -0.562 -0.582 -0.582 -0.602 -0.582 -0.603 -0.602 -0.582 -0.582 -0.562 -0.544 -0.543 -0.505 -0.485 -0.466 -0.427 -0.407 -0.369 -0.311 -0.291 -0.232 c -0.194,0 -0.33,0 -0.33,0 -0.116,0.193 -0.116,0.698 -0.116,0.698 v 0.776 1.125 1.359 1.669 1.862 2.097 2.328 2.523 2.639 2.834 2.988 3.105 3.183 3.299 3.338 3.416 3.416 3.454 3.454 3.455 3.377 3.376 3.261 3.222 3.066 2.988 2.834 2.678 2.484 2.328 2.097 1.901 1.631 1.358 1.125 0.815 0.505 c 0.155,0.155 0.291,0.155 0.291,0.155 0.155,0 0.33,0 0.33,0 h 0.213 0.233 0.271 0.271 0.311 0.311 0.33 0.35 0.349 0.369 0.388 0.369 0.388 0.389 0.388 0.389 0.388 0.369 0.368 0.35 0.35 0.33 0.329 0.292 0.291 0.252 0.232 0.214 c 0.194,0 0.35,0 0.35,0 0.116,0 0.193,0 0.193,0 0.078,-0.155 0.078,-0.583 0.078,-0.583 v -0.698 -0.932 -1.203 -1.397 -1.63 -1.824 -1.979 -2.174 -2.29 -2.445 -2.562 -2.679 -2.755 -2.834 -2.872 -2.95 -2.949 -2.989 -2.988 -2.95 -2.949 -2.873 -2.833 -2.756 -2.678 -2.562 -2.445 -2.289 -2.174 -1.979 -1.824 -1.631 -1.396 -1.204 -0.931 -0.7 -0.427 c 0.077,0 0.271,0.427 0.271,0.427 l 0.311,0.699 0.427,0.931 0.544,1.204 0.621,1.396 0.737,1.631 0.815,1.824 0.893,1.979 0.97,2.174 1.048,2.289 1.087,2.445 1.165,2.562 1.203,2.678 1.242,2.756 1.261,2.833 1.301,2.873 1.319,2.949 1.339,2.95 1.34,2.988 1.339,2.989 1.339,2.949 1.319,2.95 1.301,2.872 1.262,2.834 1.241,2.755 1.204,2.679 1.145,2.562 1.106,2.445 1.048,2.29 0.971,2.174 0.893,1.979 0.814,1.824 0.737,1.63 0.621,1.397 0.544,1.203 0.427,0.932 0.311,0.698 0.194,0.428 c 0.175,0.155 0.311,0.155 0.311,0.155 0.175,0 0.407,0 0.407,0 h 0.271 0.311 0.33 0.388 0.408 0.446 0.466 0.485 0.504 0.524 0.543 0.544 0.562 0.562 0.563 0.562 0.562 0.563 0.543 0.543 0.524 0.505 0.485 0.466 0.427 0.407 0.388 0.35 0.311 0.253 0.232 c 0.175,0 0.311,0 0.311,0 0.116,-0.155 0.116,-0.66 0.116,-0.66 v -0.815 -1.125 -1.358 -1.631 -1.901 -2.097 -2.328 -2.484 -2.678 -2.834 -2.988 -3.066 -3.222 -3.261 -3.376 -3.377 -3.455 -3.454 -3.454 -3.416 -3.416 -3.338 -3.299 -3.183 -3.105 -2.988 -2.834 -2.639 -2.523 -2.328 -2.097 -1.862 -1.669 -1.359 -1.125 -0.776 -0.505 c 0,-0.192 -10.344,-0.192 -10.344,-0.192 z"
   stroke-miterlimit="10"
   inkscape:connector-curvature="0" />
</g><g
     style="fill:#000000;fill-opacity:1;stroke:none"
     id="LWPOLYLINE_2_">
	
		<path
   style="fill:#000000;fill-opacity:1;stroke:none"
   id="path10"
   d="m 234.941,616.079 -0.059,0.699 -0.059,0.698 -0.038,0.776 -0.039,0.776 -0.02,0.814 v 0.854 l 0.02,0.893 0.02,0.893 0.058,0.932 0.078,0.971 0.116,0.931 0.136,0.971 0.155,0.971 0.214,1.009 0.232,0.971 0.291,0.97 0.33,0.971 0.369,0.971 0.407,0.97 0.466,0.971 0.524,0.932 0.562,0.893 0.641,0.893 0.679,0.854 0.757,0.854 0.815,0.776 0.893,0.776 0.951,0.737 1.028,0.698 1.087,0.621 1.184,0.621 1.242,0.544 1.339,0.504 1.417,0.427 1.514,0.389 1.592,0.311 1.688,0.232 1.785,0.194 1.883,0.116 1.979,0.039 h 1.067 l 1.067,-0.039 1.067,-0.077 1.048,-0.078 1.048,-0.116 1.028,-0.155 1.028,-0.155 1.029,-0.194 1.009,-0.232 0.989,-0.233 0.971,-0.31 0.951,-0.311 0.951,-0.35 0.931,-0.35 0.894,-0.427 0.893,-0.427 0.854,-0.466 0.835,-0.544 0.814,-0.543 0.796,-0.543 0.757,-0.621 0.737,-0.66 0.699,-0.699 0.679,-0.698 0.641,-0.776 0.602,-0.814 0.582,-0.815 0.544,-0.893 0.504,-0.932 0.466,-0.971 0.428,-1.009 0.388,-1.048 0.35,-1.087 0.291,-1.126 0.271,-1.164 0.214,-1.242 0.175,-1.242 0.116,-1.319 0.077,-1.358 0.02,-1.397 -0.077,-2.174 -0.214,-2.019 -0.35,-1.901 -0.484,-1.824 -0.603,-1.708 -0.737,-1.63 -0.814,-1.514 -0.932,-1.437 -1.01,-1.358 -1.105,-1.281 -1.185,-1.203 -1.241,-1.164 -1.301,-1.087 -1.358,-1.048 -1.417,-0.971 -1.436,-0.97 -1.476,-0.894 -1.494,-0.893 -1.514,-0.854 -1.514,-0.815 -1.533,-0.814 -1.494,-0.815 -1.494,-0.776 -1.476,-0.815 -1.455,-0.775 -1.397,-0.815 -1.358,-0.815 -1.3,-0.854 -1.262,-0.893 -1.165,-0.893 -1.105,-0.932 -1.01,-0.971 -0.932,-1.048 -0.834,-1.087 -0.718,-1.126 -0.602,-1.203 -0.485,-1.28 -0.369,-1.32 -0.213,-1.436 -0.078,-1.514 0.02,-0.699 0.039,-0.659 0.058,-0.699 0.098,-0.621 0.116,-0.621 0.136,-0.621 0.155,-0.582 0.194,-0.543 0.193,-0.544 0.233,-0.543 0.232,-0.505 0.272,-0.466 0.271,-0.466 0.311,-0.466 0.311,-0.427 0.349,-0.388 0.35,-0.427 0.369,-0.35 0.368,-0.35 0.408,-0.35 0.407,-0.311 0.427,-0.31 0.427,-0.272 0.446,-0.271 0.447,-0.271 0.465,-0.233 0.485,-0.193 0.485,-0.194 0.485,-0.194 0.505,-0.155 0.504,-0.155 0.505,-0.116 0.524,-0.116 0.523,-0.116 0.524,-0.078 0.523,-0.077 0.544,-0.039 0.523,-0.039 0.544,-0.039 h 0.543 0.757 l 0.737,0.039 0.699,0.078 0.679,0.116 0.66,0.116 0.641,0.116 0.602,0.155 0.582,0.194 0.562,0.232 0.544,0.233 0.523,0.232 0.485,0.311 0.466,0.272 0.446,0.349 0.427,0.311 0.408,0.389 0.368,0.388 0.369,0.389 0.35,0.427 0.31,0.427 0.311,0.466 0.292,0.466 0.252,0.505 0.252,0.504 0.233,0.505 0.213,0.543 0.194,0.544 0.175,0.582 0.155,0.582 0.155,0.582 0.136,0.621 0.116,0.621 0.098,0.621 0.077,0.66 0.078,0.659 0.058,0.66 0.039,0.699 0.039,0.698 0.02,0.698 v 0.699 c 0.193,0 0.329,0 0.329,0 0.175,0 0.389,0 0.389,0 h 0.252 0.271 0.291 0.33 0.35 0.369 0.368 0.407 0.408 0.427 0.427 0.446 0.446 0.446 0.447 0.446 0.446 0.427 0.427 0.407 0.408 0.388 0.35 0.35 0.329 0.291 0.272 0.252 0.214 c 0.175,0 0.311,0 0.311,0 0.193,0 0.232,-1.358 0.232,-1.358 v -1.281 l -0.02,-1.28 -0.077,-1.242 -0.117,-1.203 -0.136,-1.165 -0.193,-1.125 -0.214,-1.087 -0.271,-1.048 -0.291,-1.01 -0.311,-0.97 -0.369,-0.932 -0.388,-0.932 -0.446,-0.854 -0.446,-0.854 -0.505,-0.776 -0.524,-0.776 -0.562,-0.737 -0.602,-0.66 -0.621,-0.659 -0.66,-0.621 -0.679,-0.621 -0.718,-0.544 -0.757,-0.504 -0.776,-0.505 -0.796,-0.466 -0.854,-0.427 -0.854,-0.389 -0.893,-0.349 -0.932,-0.311 -0.951,-0.311 -0.97,-0.271 -1.01,-0.233 -1.028,-0.194 -1.048,-0.155 -1.087,-0.116 -1.106,-0.116 -1.125,-0.078 -1.165,-0.038 -1.164,-0.039 -1.146,0.039 -1.105,0.038 -1.106,0.078 -1.087,0.116 -1.067,0.116 -1.048,0.155 -1.048,0.194 -1.01,0.233 -1.009,0.271 -0.971,0.271 -0.964,0.309 -0.951,0.35 -0.912,0.388 -0.893,0.427 -0.873,0.428 -0.854,0.465 -0.814,0.505 -0.815,0.544 -0.757,0.543 -0.757,0.621 -0.699,0.621 -0.698,0.66 -0.66,0.659 -0.621,0.737 -0.602,0.738 -0.562,0.814 -0.524,0.815 -0.484,0.815 -0.466,0.893 -0.428,0.932 -0.388,0.931 -0.35,0.971 -0.311,1.009 -0.271,1.049 -0.232,1.048 -0.194,1.125 -0.155,1.126 -0.116,1.164 -0.059,1.203 -0.02,1.242 0.078,2.058 0.213,1.901 0.35,1.824 0.485,1.708 0.621,1.63 0.718,1.553 0.815,1.437 0.932,1.397 1.028,1.28 1.087,1.242 1.184,1.164 1.242,1.126 1.3,1.048 1.358,1.01 1.417,0.97 1.437,0.893 1.475,0.894 1.494,0.854 1.514,0.854 1.514,0.815 1.533,0.776 1.514,0.815 1.495,0.775 1.475,0.776 1.436,0.776 1.397,0.815 1.358,0.815 1.32,0.814 1.242,0.854 1.164,0.893 1.106,0.932 1.028,0.932 0.912,1.009 0.834,1.048 0.719,1.126 0.602,1.164 0.485,1.242 0.368,1.28 0.214,1.359 0.077,1.475 -0.02,0.815 -0.038,0.775 -0.059,0.776 -0.097,0.738 -0.117,0.737 -0.136,0.659 -0.175,0.699 -0.174,0.621 -0.214,0.621 -0.232,0.582 -0.253,0.582 -0.271,0.543 -0.291,0.544 -0.311,0.466 -0.35,0.504 -0.349,0.428 -0.369,0.466 -0.388,0.388 -0.408,0.389 -0.427,0.388 -0.427,0.35 -0.466,0.311 -0.466,0.311 -0.485,0.271 -0.505,0.271 -0.523,0.271 -0.524,0.195 -0.543,0.232 -0.544,0.194 -0.562,0.155 -0.582,0.155 -0.582,0.155 -0.602,0.116 -0.602,0.117 -0.621,0.077 -0.621,0.078 -0.621,0.038 -0.641,0.039 -0.66,0.039 h -0.64 -0.544 l -0.543,-0.039 -0.544,-0.039 -0.543,-0.038 -0.544,-0.078 -0.543,-0.116 -0.524,-0.078 -0.543,-0.155 -0.524,-0.116 -0.523,-0.155 -0.524,-0.194 -0.523,-0.193 -0.505,-0.233 -0.505,-0.232 -0.504,-0.271 -0.485,-0.272 -0.466,-0.311 -0.466,-0.349 -0.446,-0.35 -0.446,-0.35 -0.427,-0.427 -0.408,-0.427 -0.388,-0.427 -0.389,-0.466 -0.368,-0.505 -0.33,-0.543 -0.33,-0.544 -0.311,-0.582 -0.291,-0.621 -0.271,-0.621 -0.253,-0.66 -0.213,-0.698 -0.194,-0.698 -0.175,-0.776 -0.155,-0.776 -0.136,-0.815 -0.097,-0.815 -0.078,-0.893 -0.038,-0.893 -0.02,-0.932 c 0,-0.193 0,-0.271 0,-0.271 0,-0.194 0,-0.271 0,-0.271 0,-0.155 0,-0.233 0,-0.233 0,-0.155 0,-0.232 0,-0.232 0,-0.194 0,-0.271 0,-0.271 0,-0.194 0,-0.272 0,-0.272 0,-0.193 0,-0.271 0,-0.271 0,-0.116 0,-0.193 0,-0.193 0,-0.194 0,-0.233 0,-0.233 0,-0.159 -11.121,-0.159 -11.121,-0.159 z"
   stroke-miterlimit="10"
   inkscape:connector-curvature="0" />
</g><g
     style="fill:#000000;fill-opacity:1;stroke:none"
     id="LWPOLYLINE_3_">
	
		<path
   style="fill:#000000;fill-opacity:1;stroke:none"
   id="path13"
   d="m 353.362,643.909 c 0,-0.155 0,-0.272 0,-0.272 0,-0.155 0,-0.349 0,-0.349 v -0.233 -0.232 -0.233 -0.311 -0.271 -0.35 -0.311 -0.349 -0.35 -0.389 -0.349 -0.389 -0.388 -0.389 -0.388 -0.389 -0.388 -0.388 -0.35 -0.35 -0.35 -0.349 -0.311 -0.311 -0.271 -0.272 -0.232 -0.194 c 0,-0.194 0,-0.35 0,-0.35 0,-0.116 0,-0.193 0,-0.193 -0.039,-0.078 -0.233,-0.078 -0.233,-0.078 h -0.311 -0.427 -0.543 -0.621 -0.737 -0.815 -0.893 -0.971 -1.048 -1.125 -1.126 -1.203 -1.242 -1.281 -1.28 -1.32 -1.358 -1.319 -1.358 -1.319 -1.32 -1.319 -1.281 -1.203 -1.203 -1.164 -1.087 -1.048 -0.971 -0.893 -0.815 -0.737 -0.66 -0.504 -0.427 -0.311 c -0.194,0 -0.272,0 -0.272,0 0,-0.077 0,-0.232 0,-0.232 v -0.271 -0.389 -0.466 -0.582 -0.66 -0.698 -0.815 -0.854 -0.932 -0.971 -1.048 -1.048 -1.087 -1.164 -1.126 -1.203 -1.164 -1.203 -1.203 -1.165 -1.164 -1.165 -1.125 -1.126 -1.048 -1.009 -1.01 -0.893 -0.893 -0.776 -0.737 -0.66 -0.543 -0.466 -0.384 -0.31 c 0,-0.155 0,-0.194 0,-0.194 0.039,0 0.233,0 0.233,0 h 0.271 0.388 0.505 0.582 0.66 0.737 0.815 0.893 0.932 1.009 1.048 1.126 1.126 1.125 1.203 1.203 1.204 1.241 1.204 1.241 1.165 1.203 1.164 1.126 1.087 1.048 1.009 0.932 0.893 0.815 0.737 0.698 0.544 0.505 0.388 0.271 c 0.194,0 0.271,0 0.271,0 0,-0.194 0,-0.311 0,-0.311 0,-0.155 0,-0.35 0,-0.35 v -0.194 -0.232 -0.271 -0.272 -0.31 -0.311 -0.35 -0.311 -0.389 -0.349 -0.389 -0.388 -0.389 -0.388 -0.389 -0.349 -0.389 -0.388 -0.35 -0.388 -0.35 -0.311 -0.311 -0.311 -0.271 -0.271 -0.233 -0.232 c 0,-0.155 0,-0.311 0,-0.311 0,-0.116 0,-0.233 0,-0.233 -0.077,-0.077 -0.271,-0.077 -0.271,-0.077 h -0.271 -0.388 -0.505 -0.544 -0.698 -0.737 -0.815 -0.893 -0.932 -1.009 -1.048 -1.087 -1.126 -1.164 -1.203 -1.165 -1.241 -1.204 -1.241 -1.204 -1.203 -1.203 -1.125 -1.126 -1.126 -1.048 -1.009 -0.932 -0.893 -0.815 -0.737 -0.66 -0.582 -0.505 -0.388 -0.271 c -0.194,0 -0.233,0 -0.233,0 0,-0.039 0,-0.194 0,-0.194 v -0.271 -0.35 -0.427 -0.544 -0.582 -0.659 -0.776 -0.776 -0.854 -0.893 -0.97 -0.971 -1.009 -1.048 -1.087 -1.087 -1.087 -1.126 -1.087 -1.086 -1.087 -1.087 -1.048 -1.01 -0.97 -0.971 -0.893 -0.854 -0.814 -0.737 -0.66 -0.582 -0.544 -0.427 -0.35 -0.271 c 0,-0.155 0,-0.193 0,-0.193 0.078,0 0.233,0 0.233,0 h 0.311 0.427 0.543 0.621 0.699 0.814 0.854 0.97 1.01 1.087 1.125 1.165 1.203 1.242 1.28 1.281 1.319 1.281 1.319 1.319 1.281 1.281 1.241 1.204 1.164 1.126 1.086 1.01 0.97 0.854 0.815 0.698 0.621 0.543 0.427 0.311 c 0.155,0 0.233,0 0.233,0 0,-0.194 0,-0.311 0,-0.311 0,-0.155 0,-0.35 0,-0.35 v -0.194 -0.232 -0.272 -0.271 -0.311 -0.311 -0.349 -0.311 -0.389 -0.35 -0.388 -0.388 -0.389 -0.388 -0.389 -0.35 -0.388 -0.388 -0.35 -0.389 -0.349 -0.311 -0.311 -0.311 -0.271 -0.272 -0.232 -0.233 c 0,-0.155 0,-0.311 0,-0.311 0,-0.116 0,-0.232 0,-0.232 -0.078,-0.077 -0.35,-0.077 -0.35,-0.077 h -0.388 -0.544 -0.698 -0.815 -0.932 -1.086 -1.126 -1.281 -1.319 -1.437 -1.475 -1.553 -1.591 -1.631 -1.669 -1.707 -1.708 -1.747 -1.708 -1.746 -1.708 -1.669 -1.63 -1.592 -1.553 -1.475 -1.437 -1.319 -1.242 -1.164 -1.048 -0.971 -0.815 -0.698 -0.543 -0.389 -0.271 c -0.078,0.193 -0.078,0.698 -0.078,0.698 v 0.776 1.125 1.359 1.669 1.862 2.097 2.328 2.523 2.639 2.834 2.988 3.105 3.183 3.299 3.338 3.416 3.416 3.454 3.454 3.455 3.377 3.376 3.261 3.222 3.066 2.988 2.834 2.678 2.484 2.328 2.097 1.901 1.631 1.358 1.125 0.815 0.505 c 0.003,0.167 46.89,0.167 46.89,0.167 z"
   stroke-miterlimit="10"
   inkscape:connector-curvature="0" />
</g><g
     style="fill:#000000;fill-opacity:1;stroke:none"
     id="LWPOLYLINE_4_">
	
		
</g><g
     style="fill:#000000;fill-opacity:1;stroke:none"
     id="LWPOLYLINE_6_">
	
		<path
   style="fill:#000000;fill-opacity:1;stroke:none"
   id="path22"
   d="m 425.711,551.688 c 0,0.193 0,0.31 0,0.31 0,0.155 0,0.311 0,0.311 v 0.233 0.232 0.272 0.271 0.311 0.311 0.311 0.349 0.389 0.35 0.388 0.388 0.35 0.389 0.388 0.389 0.388 0.388 0.35 0.389 0.311 0.349 0.311 0.311 0.271 0.272 0.232 0.194 c 0,0.194 0,0.35 0,0.35 0,0.116 0,0.232 0,0.232 0.194,0.078 0.389,0.078 0.389,0.078 h 0.271 0.388 0.428 0.465 0.544 0.621 0.621 0.698 0.737 0.776 0.776 0.854 0.814 0.893 0.854 0.893 0.893 0.893 0.893 0.893 0.854 0.854 0.815 0.815 0.776 0.737 0.698 0.621 0.621 0.543 0.466 0.428 0.349 0.311 0.194 c 0.194,0.116 0.194,0.582 0.194,0.582 v 0.698 1.01 1.203 1.475 1.669 1.863 2.057 2.213 2.367 2.523 2.639 2.756 2.834 2.911 2.988 3.027 3.027 3.066 3.066 3.066 3.027 2.95 2.949 2.834 2.717 2.64 2.522 2.368 2.251 2.057 1.863 1.669 1.437 1.242 0.97 0.737 0.428 c 0.193,0.155 0.311,0.155 0.311,0.155 0.193,0 0.388,0 0.388,0 h 0.271 0.271 0.272 0.349 0.35 0.35 0.388 0.389 0.427 0.427 0.427 0.428 0.465 0.428 0.466 0.427 0.427 0.466 0.427 0.389 0.427 0.35 0.388 0.35 0.311 0.311 0.271 0.232 0.233 c 0.155,0 0.311,0 0.311,0 0.193,-0.155 0.193,-0.583 0.193,-0.583 v -0.737 -0.97 -1.242 -1.437 -1.669 -1.863 -2.057 -2.251 -2.368 -2.522 -2.64 -2.717 -2.834 -2.949 -2.95 -3.027 -3.066 -3.066 -3.066 -3.027 -3.027 -2.988 -2.911 -2.834 -2.756 -2.639 -2.523 -2.367 -2.213 -2.057 -1.863 -1.669 -1.475 -1.203 -1.01 -0.698 -0.466 c 0.155,-0.116 0.35,-0.116 0.35,-0.116 h 0.271 0.35 0.427 0.466 0.544 0.543 0.66 0.659 0.699 0.737 0.776 0.815 0.814 0.815 0.854 0.854 0.893 0.854 0.854 0.854 0.854 0.815 0.776 0.776 0.737 0.737 0.66 0.621 0.582 0.543 0.466 0.389 0.35 0.271 0.193 c 0.194,-0.194 0.194,-0.311 0.194,-0.311 0,-0.155 0,-0.35 0,-0.35 v -0.194 -0.232 -0.272 -0.271 -0.311 -0.311 -0.349 -0.311 -0.389 -0.35 -0.388 -0.388 -0.389 -0.388 -0.389 -0.35 -0.388 -0.388 -0.35 -0.389 -0.349 -0.311 -0.311 -0.311 -0.271 -0.272 -0.232 -0.233 c 0,-0.155 0,-0.311 0,-0.311 0,-0.116 0,-0.232 0,-0.232 -10e-4,-0.077 -58.843,-0.077 -58.843,-0.077 z"
   stroke-miterlimit="10"
   inkscape:connector-curvature="0" />
</g><g
     style="fill:#000000;fill-opacity:1;stroke:none"
     id="LWPOLYLINE_7_">
	
		<path
   id="polygon25"
   d="m 393.573,236.558 91.601,91.62 -182.658,182.676 -91.62,-91.6 16.865,-16.884 74.755,74.756 L 451.444,328.178 302.516,179.229 228.304,253.422 211.459,236.558 302.516,145.5 z"
   style="fill:#000000;fill-opacity:1;stroke:none"
   inkscape:connector-curvature="0" />
</g><g
     style="fill:#000000;fill-opacity:1;stroke:none"
     id="LWPOLYLINE_8_">
	
		<path
   sodipodi:nodetypes="ccccccc"
   inkscape:connector-curvature="0"
   id="polyline28"
   d="m 349.67499,304.385 c -23.64433,23.79901 -47.28866,47.59801 -70.93299,71.39701 4.50267,4.52833 9.00533,9.05666 13.84749,13.24549 27.13384,-27.3085 53.92818,-54.2775 80.72251,-81.2465 -19.67501,-31.36351 -45.44713,-59.48642 -78.025,-78.5305 -3.04401,3.7425 -5.74801,7.8245 -8.45201,13.265 24.93786,16.76183 46.75063,37.31195 62.84,61.8695 z"
   style="fill:#000000;fill-opacity:1;stroke:none" />
</g><g
     id="LINE">
	
		
</g><g
     id="LINE_1_">
	
		
</g><g
     id="LINE_2_">
	
		
</g><g
     id="LWPOLYLINE_9_">
	
		
</g><g
     id="LINE_3_">
	
		
</g><g
     style="fill:#000000;fill-opacity:1;stroke:none"
     id="LWPOLYLINE_10_">
	
		<path
   sodipodi:nodetypes="ccccccc"
   inkscape:connector-curvature="0"
   id="polyline46"
   d="m 261.91699,350.515 c 23.65034,-23.793 47.30068,-47.586 70.95102,-71.37901 -4.51534,-4.53466 -9.03068,-9.06932 -13.87602,-13.26448 -27.13067,27.30849 -53.93133,54.2775 -80.732,81.2465 19.691,31.36395 45.45157,59.46659 78.035,78.52148 3.05367,-3.74616 5.75735,-7.82183 8.46101,-13.25599 -24.93514,-16.75163 -46.76406,-37.30955 -62.83901,-61.8685 z"
   style="fill:#000000;fill-opacity:1;stroke:none" />
</g><g
     id="LINE_4_">
	
		
</g><g
     id="LINE_5_">
	
		
</g><g
     id="LINE_6_">
	
		
</g><g
     id="LWPOLYLINE_11_">
	
		
</g><g
     id="LINE_7_">
	
		
</g></g>
</svg>