<?xml version="1.0" encoding="UTF-8" standalone="no"?>
<!-- Generator: Adobe Illustrator 16.0.1, SVG Export Plug-In . SVG Version: 6.00 Build 0)  -->

<svg
   xmlns:dc="http://purl.org/dc/elements/1.1/"
   xmlns:cc="http://creativecommons.org/ns#"
   xmlns:rdf="http://www.w3.org/1999/02/22-rdf-syntax-ns#"
   xmlns:svg="http://www.w3.org/2000/svg"
   xmlns="http://www.w3.org/2000/svg"
   xmlns:xlink="http://www.w3.org/1999/xlink"
   xmlns:sodipodi="http://sodipodi.sourceforge.net/DTD/sodipodi-0.dtd"
   xmlns:inkscape="http://www.inkscape.org/namespaces/inkscape"
   version="1.0"
   id="_x31_"
   x="0px"
   y="0px"
   width="350"
   height="350"
   viewBox="0 0 350 350"
   enable-background="new 0 0 612 792"
   xml:space="preserve"
   inkscape:version="0.48.3.1 r9886"
   sodipodi:docname="6019.svg"><metadata
   id="metadata31"><rdf:RDF><cc:Work
       rdf:about=""><dc:format>image/svg+xml</dc:format><dc:type
         rdf:resource="http://purl.org/dc/dcmitype/StillImage" /></cc:Work></rdf:RDF></metadata><defs
   id="defs29"><radialGradient
     r="333.18735"
     fy="467.91885"
     fx="373.24265"
     cy="467.91885"
     cx="373.24265"
     gradientTransform="matrix(0.9201975,2.7970099e-7,-2.7059634e-7,0.8902438,367.85911,-214.16146)"
     gradientUnits="userSpaceOnUse"
     id="radialGradient3886"
     xlink:href="#linearGradient5443-5"
     inkscape:collect="always" /><linearGradient
     y2="254.73526"
     x2="123.47623"
     y1="344.03848"
     x1="123.50603"
     gradientTransform="matrix(2.3189708,0,0,2.0930998,432.38414,-507.63276)"
     gradientUnits="userSpaceOnUse"
     id="linearGradient3884"
     xlink:href="#linearGradient5443-5"
     inkscape:collect="always" /><radialGradient
     r="333.18735"
     fy="710.99164"
     fx="373.24265"
     cy="710.99164"
     cx="373.24265"
     gradientTransform="matrix(0.9503534,1.1750652e-7,-5.6287062e-8,0.3462676,356.6036,99.467241)"
     gradientUnits="userSpaceOnUse"
     id="radialGradient3882"
     xlink:href="#linearGradient5443"
     inkscape:collect="always" /><linearGradient
     id="linearGradient5443-5"><stop
       style="stop-color:#ffffff;stop-opacity:0;"
       offset="0"
       id="stop5445-4" /><stop
       style="stop-color:#f7f7f7;stop-opacity:0.8427673;"
       offset="1"
       id="stop5447-3" /></linearGradient><radialGradient
     r="333.18735"
     fy="710.99164"
     fx="373.24265"
     cy="710.99164"
     cx="373.24265"
     gradientTransform="matrix(0.9503534,1.1750652e-7,-5.6287062e-8,0.3462676,317.80591,185.68771)"
     gradientUnits="userSpaceOnUse"
     id="radialGradient4835-3"
     xlink:href="#linearGradient5443-5"
     inkscape:collect="always" /><filter
     color-interpolation-filters="sRGB"
     id="filter5511"
     inkscape:collect="always"><feGaussianBlur
       id="feGaussianBlur5513"
       stdDeviation="3.2374974"
       inkscape:collect="always" /></filter><radialGradient
     r="333.18735"
     fy="710.99164"
     fx="373.24265"
     cy="710.99164"
     cx="373.24265"
     gradientTransform="matrix(0.9503534,1.1750652e-7,-5.6287062e-8,0.3462676,356.6036,99.467241)"
     gradientUnits="userSpaceOnUse"
     id="radialGradient4835"
     xlink:href="#linearGradient5443"
     inkscape:collect="always" /><radialGradient
     r="333.18735"
     fy="467.91885"
     fx="373.24265"
     cy="467.91885"
     cx="373.24265"
     gradientTransform="matrix(0.9201975,2.7970099e-7,-2.7059634e-7,0.8902438,367.85911,-214.16146)"
     gradientUnits="userSpaceOnUse"
     id="radialGradient4832"
     xlink:href="#linearGradient5443-5"
     inkscape:collect="always" /><linearGradient
     y2="254.73526"
     x2="123.47623"
     y1="344.03848"
     x1="123.50603"
     gradientTransform="matrix(2.3189708,0,0,2.0930998,432.38414,-507.63276)"
     gradientUnits="userSpaceOnUse"
     id="linearGradient4827"
     xlink:href="#linearGradient5443-5"
     inkscape:collect="always" /><linearGradient
     y2="254.73526"
     x2="123.47623"
     y1="344.03848"
     x1="123.50603"
     gradientTransform="matrix(2.3189708,0,0,2.0930998,93.115298,-256.84999)"
     gradientUnits="userSpaceOnUse"
     id="linearGradient4824"
     xlink:href="#linearGradient3187"
     inkscape:collect="always" /><radialGradient
     r="333.18735"
     fy="467.91885"
     fx="373.24265"
     cy="467.91885"
     cx="373.24265"
     gradientTransform="matrix(0.9201975,2.7970099e-7,-2.7059634e-7,0.8902438,28.590287,48.634335)"
     gradientUnits="userSpaceOnUse"
     id="radialGradient4822"
     xlink:href="#linearGradient3171"
     inkscape:collect="always" /><radialGradient
     r="333.18735"
     fy="710.99164"
     fx="373.24265"
     cy="710.99164"
     cx="373.24265"
     gradientTransform="matrix(0.9503534,1.1750652e-7,-5.6287062e-8,0.3462676,17.334826,362.44227)"
     gradientUnits="userSpaceOnUse"
     id="radialGradient4820"
     xlink:href="#linearGradient3157"
     inkscape:collect="always" /><radialGradient
     r="333.18735"
     fy="710.99164"
     fx="373.24265"
     cy="710.99164"
     cx="373.24265"
     gradientTransform="matrix(0.9503534,1.1750652e-7,-5.6287062e-8,0.3462676,17.334826,362.44227)"
     gradientUnits="userSpaceOnUse"
     id="radialGradient4805"
     xlink:href="#linearGradient3157"
     inkscape:collect="always" /><radialGradient
     r="333.18735"
     fy="467.91885"
     fx="373.24265"
     cy="467.91885"
     cx="373.24265"
     gradientTransform="matrix(0.9201975,2.7970099e-7,-2.7059634e-7,0.8902438,28.590287,48.634335)"
     gradientUnits="userSpaceOnUse"
     id="radialGradient4802"
     xlink:href="#linearGradient3171"
     inkscape:collect="always" /><linearGradient
     y2="254.73526"
     x2="123.47623"
     y1="344.03848"
     x1="123.50603"
     gradientTransform="matrix(2.3189708,0,0,2.0930998,93.115298,-256.84999)"
     gradientUnits="userSpaceOnUse"
     id="linearGradient4799"
     xlink:href="#linearGradient3187"
     inkscape:collect="always" /><linearGradient
     y2="254.73526"
     x2="123.47623"
     y1="344.03848"
     x1="123.50603"
     gradientTransform="matrix(2.3189708,0,0,2.0930998,93.115298,-256.84999)"
     gradientUnits="userSpaceOnUse"
     id="linearGradient4794"
     xlink:href="#linearGradient3187"
     inkscape:collect="always" /><radialGradient
     r="333.18735"
     fy="467.91885"
     fx="373.24265"
     cy="467.91885"
     cx="373.24265"
     gradientTransform="matrix(0.9201975,2.7970099e-7,-2.7059634e-7,0.8902438,28.590287,48.634335)"
     gradientUnits="userSpaceOnUse"
     id="radialGradient4792"
     xlink:href="#linearGradient3171"
     inkscape:collect="always" /><radialGradient
     r="333.18735"
     fy="710.99164"
     fx="373.24265"
     cy="710.99164"
     cx="373.24265"
     gradientTransform="matrix(0.9503534,1.1750652e-7,-5.6287062e-8,0.3462676,17.334826,362.44227)"
     gradientUnits="userSpaceOnUse"
     id="radialGradient4790"
     xlink:href="#linearGradient3157"
     inkscape:collect="always" /><radialGradient
     r="333.18735"
     fy="710.99164"
     fx="373.24265"
     cy="710.99164"
     cx="373.24265"
     gradientTransform="matrix(0.9503534,1.1750652e-7,-5.6287062e-8,0.3462676,17.334826,362.44227)"
     gradientUnits="userSpaceOnUse"
     id="radialGradient4779"
     xlink:href="#linearGradient3157"
     inkscape:collect="always" /><radialGradient
     r="333.18735"
     fy="467.91885"
     fx="373.24265"
     cy="467.91885"
     cx="373.24265"
     gradientTransform="matrix(0.9201975,2.7970099e-7,-2.7059634e-7,0.8902438,28.590287,48.634335)"
     gradientUnits="userSpaceOnUse"
     id="radialGradient4776"
     xlink:href="#linearGradient3171"
     inkscape:collect="always" /><linearGradient
     y2="254.73526"
     x2="123.47623"
     y1="344.03848"
     x1="123.50603"
     gradientTransform="matrix(2.3189708,0,0,2.0930998,93.115298,-256.84999)"
     gradientUnits="userSpaceOnUse"
     id="linearGradient4773"
     xlink:href="#linearGradient3187"
     inkscape:collect="always" /><linearGradient
     y2="254.73526"
     x2="123.47623"
     y1="344.03848"
     x1="123.50603"
     gradientTransform="matrix(2.3189708,0,0,2.0930998,93.115298,-256.84999)"
     gradientUnits="userSpaceOnUse"
     id="linearGradient4770"
     xlink:href="#linearGradient3187"
     inkscape:collect="always" /><radialGradient
     r="333.18735"
     fy="467.91885"
     fx="373.24265"
     cy="467.91885"
     cx="373.24265"
     gradientTransform="matrix(0.9201975,2.7970099e-7,-2.7059634e-7,0.8902438,28.590287,48.634335)"
     gradientUnits="userSpaceOnUse"
     id="radialGradient4768"
     xlink:href="#linearGradient3171"
     inkscape:collect="always" /><radialGradient
     r="333.18735"
     fy="710.99164"
     fx="373.24265"
     cy="710.99164"
     cx="373.24265"
     gradientTransform="matrix(0.9503534,1.1750652e-7,-5.6287062e-8,0.3462676,17.334826,362.44227)"
     gradientUnits="userSpaceOnUse"
     id="radialGradient4766"
     xlink:href="#linearGradient3157"
     inkscape:collect="always" /><filter
     color-interpolation-filters="sRGB"
     id="filter4659"
     inkscape:collect="always"><feGaussianBlur
       id="feGaussianBlur4661"
       stdDeviation="2.7750933"
       inkscape:collect="always" /></filter><radialGradient
     r="333.18735"
     fy="710.99164"
     fx="373.24265"
     cy="710.99164"
     cx="373.24265"
     gradientTransform="matrix(0.9503534,1.1750652e-7,-5.6287062e-8,0.3462676,17.334826,362.44227)"
     gradientUnits="userSpaceOnUse"
     id="radialGradient4572"
     xlink:href="#linearGradient3157"
     inkscape:collect="always" /><radialGradient
     r="333.18735"
     fy="467.91885"
     fx="373.24265"
     cy="467.91885"
     cx="373.24265"
     gradientTransform="matrix(0.9201975,2.7970099e-7,-2.7059634e-7,0.8902438,28.590287,48.634335)"
     gradientUnits="userSpaceOnUse"
     id="radialGradient4569"
     xlink:href="#linearGradient3171"
     inkscape:collect="always" /><linearGradient
     y2="254.73526"
     x2="123.47623"
     y1="344.03848"
     x1="123.50603"
     gradientTransform="matrix(2.3189708,0,0,2.0930998,93.115298,-256.84999)"
     gradientUnits="userSpaceOnUse"
     id="linearGradient4562"
     xlink:href="#linearGradient3187"
     inkscape:collect="always" /><linearGradient
     gradientUnits="userSpaceOnUse"
     y2="540.86719"
     x2="360.49777"
     y1="167.50403"
     x1="360.49777"
     id="linearGradient4401"
     xlink:href="#linearGradient4395"
     inkscape:collect="always" /><linearGradient
     gradientUnits="userSpaceOnUse"
     y2="655.4505"
     x2="396.91168"
     y1="298.59412"
     x1="371.42194"
     id="linearGradient4389"
     xlink:href="#linearGradient4383"
     inkscape:collect="always" /><inkscape:perspective
     id="perspective3214"
     inkscape:persp3d-origin="372.04724 : 350.78739 : 1"
     inkscape:vp_z="744.09448 : 526.18109 : 1"
     inkscape:vp_y="0 : 1000 : 0"
     inkscape:vp_x="0 : 526.18109 : 1"
     sodipodi:type="inkscape:persp3d" /><linearGradient
     id="linearGradient4383"><stop
       id="stop4385"
       offset="0"
       style="stop-color:#00037f;stop-opacity:1;" /><stop
       id="stop4387"
       offset="1"
       style="stop-color:#00037f;stop-opacity:0;" /></linearGradient><linearGradient
     id="linearGradient4395"><stop
       id="stop4397"
       offset="0"
       style="stop-color:#110084;stop-opacity:1;" /><stop
       id="stop4399"
       offset="1"
       style="stop-color:#a695ff;stop-opacity:1;" /></linearGradient><linearGradient
     id="linearGradient3187"><stop
       id="stop3189"
       offset="0"
       style="stop-color:#ffffff;stop-opacity:0.39622641;" /><stop
       id="stop3191"
       offset="1"
       style="stop-color:#000000;stop-opacity:1;" /></linearGradient><linearGradient
     id="linearGradient3171"><stop
       style="stop-color:#49bcff;stop-opacity:1;"
       offset="0"
       id="stop3173" /><stop
       style="stop-color:#494cdc;stop-opacity:1;"
       offset="1"
       id="stop3175" /></linearGradient><linearGradient
     id="linearGradient3157"><stop
       id="stop3159"
       offset="0"
       style="stop-color:#49bcff;stop-opacity:1;" /><stop
       id="stop3161"
       offset="1"
       style="stop-color:#494c96;stop-opacity:1;" /></linearGradient><linearGradient
     id="linearGradient5443"><stop
       style="stop-color:#ffffff;stop-opacity:0;"
       offset="0"
       id="stop5445" /><stop
       style="stop-color:#ffdd00;stop-opacity:0.56603771;"
       offset="1"
       id="stop5447" /></linearGradient><radialGradient
     inkscape:collect="always"
     xlink:href="#linearGradient5443"
     id="radialGradient5445"
     gradientUnits="userSpaceOnUse"
     gradientTransform="matrix(0.9503534,1.1750652e-7,-5.6287062e-8,0.3462676,356.6036,99.467241)"
     cx="373.24265"
     cy="710.99164"
     fx="373.24265"
     fy="710.99164"
     r="333.18735" /><linearGradient
     inkscape:collect="always"
     xlink:href="#linearGradient5443-5"
     id="linearGradient5447"
     gradientUnits="userSpaceOnUse"
     gradientTransform="matrix(2.3189708,0,0,2.0930998,432.38414,-507.63276)"
     x1="123.50603"
     y1="344.03848"
     x2="123.47623"
     y2="254.73526" /><radialGradient
     inkscape:collect="always"
     xlink:href="#linearGradient5443-5"
     id="radialGradient5449"
     gradientUnits="userSpaceOnUse"
     gradientTransform="matrix(0.9201975,2.7970099e-7,-2.7059634e-7,0.8902438,367.85911,-214.16146)"
     cx="373.24265"
     cy="467.91885"
     fx="373.24265"
     fy="467.91885"
     r="333.18735" /><radialGradient
     inkscape:collect="always"
     xlink:href="#linearGradient5443"
     id="radialGradient5464"
     gradientUnits="userSpaceOnUse"
     gradientTransform="matrix(0.9503534,1.1750652e-7,-5.6287062e-8,0.3462676,356.6036,99.467241)"
     cx="373.24265"
     cy="710.99164"
     fx="373.24265"
     fy="710.99164"
     r="333.18735" /><linearGradient
     inkscape:collect="always"
     xlink:href="#linearGradient5443-5"
     id="linearGradient5466"
     gradientUnits="userSpaceOnUse"
     gradientTransform="matrix(2.3189708,0,0,2.0930998,432.38414,-507.63276)"
     x1="123.50603"
     y1="344.03848"
     x2="123.47623"
     y2="254.73526" /><radialGradient
     inkscape:collect="always"
     xlink:href="#linearGradient5443-5"
     id="radialGradient5468"
     gradientUnits="userSpaceOnUse"
     gradientTransform="matrix(0.9201975,2.7970099e-7,-2.7059634e-7,0.8902438,367.85911,-214.16146)"
     cx="373.24265"
     cy="467.91885"
     fx="373.24265"
     fy="467.91885"
     r="333.18735" /><radialGradient
     inkscape:collect="always"
     xlink:href="#linearGradient5443-5"
     id="radialGradient5479"
     gradientUnits="userSpaceOnUse"
     gradientTransform="matrix(0.83535071,2.5391117e-7,-2.4564601e-7,0.80815889,-424.1066,103.11416)"
     cx="373.24265"
     cy="467.91885"
     fx="373.24265"
     fy="467.91885"
     r="333.18735" /><radialGradient
     inkscape:collect="always"
     xlink:href="#linearGradient5443"
     id="radialGradient5483"
     gradientUnits="userSpaceOnUse"
     gradientTransform="matrix(0.86272608,1.0667183e-7,-5.1097115e-8,0.31434,-434.3243,387.82474)"
     cx="373.24265"
     cy="710.99164"
     fx="373.24265"
     fy="710.99164"
     r="333.18735" /><linearGradient
     inkscape:collect="always"
     xlink:href="#linearGradient5443-5"
     id="linearGradient5486"
     gradientUnits="userSpaceOnUse"
     gradientTransform="matrix(2.3189708,0,0,2.0930998,432.38414,-507.63276)"
     x1="123.50603"
     y1="344.03848"
     x2="123.47623"
     y2="254.73526" /><radialGradient
     inkscape:collect="always"
     xlink:href="#linearGradient5443"
     id="radialGradient5495"
     gradientUnits="userSpaceOnUse"
     gradientTransform="matrix(0.86272608,1.0667183e-7,-5.1097115e-8,0.31434,-434.3243,387.82474)"
     cx="373.24265"
     cy="710.99164"
     fx="373.24265"
     fy="710.99164"
     r="333.18735" /><linearGradient
     inkscape:collect="always"
     xlink:href="#linearGradient5443-5"
     id="linearGradient5497"
     gradientUnits="userSpaceOnUse"
     gradientTransform="matrix(2.3189708,0,0,2.0930998,432.38414,-507.63276)"
     x1="123.50603"
     y1="344.03848"
     x2="123.47623"
     y2="254.73526" /><radialGradient
     inkscape:collect="always"
     xlink:href="#linearGradient5443-5"
     id="radialGradient5499"
     gradientUnits="userSpaceOnUse"
     gradientTransform="matrix(0.83535071,2.5391117e-7,-2.4564601e-7,0.80815889,-424.1066,103.11416)"
     cx="373.24265"
     cy="467.91885"
     fx="373.24265"
     fy="467.91885"
     r="333.18735" /></defs><sodipodi:namedview
   pagecolor="#ffffff"
   bordercolor="#666666"
   borderopacity="1"
   objecttolerance="10"
   gridtolerance="10"
   guidetolerance="10"
   inkscape:pageopacity="0"
   inkscape:pageshadow="2"
   inkscape:window-width="1920"
   inkscape:window-height="1031"
   id="namedview27"
   showgrid="false"
   fit-margin-top="0"
   fit-margin-left="0"
   fit-margin-right="0"
   fit-margin-bottom="0"
   inkscape:zoom="0.5959596"
   inkscape:cx="-361.87022"
   inkscape:cy="306.39887"
   inkscape:window-x="-4"
   inkscape:window-y="-4"
   inkscape:window-maximized="1"
   inkscape:current-layer="_x31_" />







<g
   id="g5488"
   transform="translate(287.31808,-306.26715)"><rect
     transform="matrix(2.1051501,0,0,2.1051501,-558.32106,217.90026)"
     ry="12.45238"
     rx="16.067965"
     y="48.636749"
     x="135.39355"
     height="152.93848"
     width="152.93848"
     id="rect3279"
     style="fill:#fbd000;fill-opacity:1;stroke:none;filter:url(#filter4659)"
     inkscape:export-filename="C:\Documents and Settings\adscro24\Desktop\128.png"
     inkscape:export-xdpi="29.879425"
     inkscape:export-ydpi="29.879425" /><rect
     ry="26.21413"
     rx="33.825481"
     y="320.2879"
     x="-273.2973"
     height="321.95847"
     width="321.95847"
     id="rect3155"
     style="opacity:0.61338286;fill:url(#radialGradient5495);fill-opacity:1;stroke:#000000;stroke-width:3.26806188;stroke-miterlimit:4;stroke-opacity:1;stroke-dasharray:none"
     inkscape:export-filename="C:\Documents and Settings\adscro24\Desktop\128.png"
     inkscape:export-xdpi="29.879425"
     inkscape:export-ydpi="29.879425" /><path
     transform="matrix(0.90779502,0,0,0.90779502,-758.04728,297.52886)"
     id="rect3177"
     d="m 578.14395,47.265751 c -19.62748,0 -35.44272,12.0976 -35.44272,27.14163 l 0,124.308569 c 29.25482,11.38638 132.70149,11.89599 165.40488,-5.79022 33.32802,-18.02397 127.54379,-68.44264 171.82483,-52.72052 l 0,-65.797829 c 0,-15.04403 -15.7986,-27.14163 -35.4261,-27.14163 l -266.36089,0 z m -35.44272,263.471029 0,42.88373 c 0,1.33144 0.14331,2.63588 0.38253,3.915 -0.11919,-12.81092 -0.25965,-28.88939 -0.38253,-46.79873 z"
     style="opacity:0.61338286;fill:url(#linearGradient5497);fill-opacity:1;stroke:none;filter:url(#filter5511)"
     inkscape:connector-curvature="0"
     inkscape:export-filename="C:\Documents and Settings\adscro24\Desktop\128.png"
     inkscape:export-xdpi="29.879425"
     inkscape:export-ydpi="29.879425" /><rect
     ry="24.924913"
     rx="32.161926"
     y="328.20493"
     x="-265.38031"
     height="306.12445"
     width="306.12445"
     id="rect3473"
     style="opacity:0.61338286;fill:url(#radialGradient5499);fill-opacity:1;stroke:#ffffff;stroke-width:0.68992418;stroke-linecap:square;stroke-miterlimit:4;stroke-opacity:1;stroke-dasharray:none"
     inkscape:export-filename="C:\Documents and Settings\adscro24\Desktop\128.png"
     inkscape:export-xdpi="29.879425"
     inkscape:export-ydpi="29.879425" /><rect
     ry="26.21413"
     rx="33.825481"
     y="320.2879"
     x="-273.2973"
     height="321.95847"
     width="321.95847"
     id="rect3155-2"
     style="opacity:0.61338286;fill:#ffffff;fill-opacity:0;stroke:#000000;stroke-width:3.26806188;stroke-miterlimit:4;stroke-opacity:1;stroke-dasharray:none"
     inkscape:export-filename="C:\Documents and Settings\adscro24\Desktop\128.png"
     inkscape:export-xdpi="29.879425"
     inkscape:export-ydpi="29.879425" /></g><g
   id="g3777"
   transform="matrix(0.5,0,0,0.5,21.999743,-22.750006)"><g
     style="fill:#000000;fill-opacity:1;stroke:none"
     id="LWPOLYLINE_3_">
	
		<path
   id="path13"
   d="m 279.21875,551.6875 c -0.194,0.193 -0.1875,0.6875 -0.1875,0.6875 l 0,0.78125 0,1.125 0,1.375 0,1.65625 0,1.875 0,2.09375 0,2.3125 0,2.53125 0,2.625 0,2.84375 0,3 0,3.09375 0,3.1875 0,3.3125 0,3.3125 0,3.4375 0,3.40625 0,3.46875 0,3.4375 0,3.46875 0,3.375 0,3.375 0,3.25 0,3.21875 0,3.0625 0,3 0,2.84375 0,2.65625 0,2.5 0,2.3125 0,2.09375 0,1.90625 0,1.625 0,1.375 0,1.125 0,0.8125 0,0.5 c 0.012,0.156 11.15625,0.15625 11.15625,0.15625 l 0,-0.3125 0,-0.34375 0,-0.46875 0,-0.625 0,-0.6875 0,-0.875 0,-0.90625 0,-1.03125 0,-1.0625 0,-1.21875 0,-1.25 0,-1.28125 0,-1.34375 0,-1.40625 0,-1.46875 0,-1.46875 0,-1.46875 0,-1.53125 0,-1.5 0,-1.53125 0,-1.5 0,-1.53125 0,-1.46875 0,-1.4375 0,-1.40625 0,-1.34375 0,-1.3125 0,-1.25 0,-1.15625 0,-1.125 0,-1.03125 0,-0.90625 0,-0.8125 0,-0.75 0,-0.59375 0,-0.5 0,-0.34375 0,-0.21875 c 0.098,-0.039 0.21875,-0.0625 0.21875,-0.0625 l 0.40625,0 0.28125,0 0.3125,0 0.34375,0 0.375,0 0.40625,0 0.4375,0 0.46875,0 0.46875,0 0.53125,0 0.5,0 0.5625,0 0.53125,0 0.5625,0 0.5625,0 0.5625,0 0.5625,0 0.5625,0 0.5625,0 0.53125,0 0.5625,0 0.53125,0 0.5,0 0.46875,0 0.46875,0 0.4375,0 0.40625,0 0.375,0 0.34375,0 0.3125,0 0.28125,0 0.21875,0 0.3125,0 c 0.116,0 0.84375,-0.0312 0.84375,-0.0312 l 0.75,0 0.75,-0.0625 0.8125,-0.0625 0.78125,-0.0937 0.8125,-0.125 0.8125,-0.125 0.84375,-0.1875 0.875,-0.15625 0.84375,-0.21875 0.8125,-0.25 0.84375,-0.25 0.875,-0.3125 0.84375,-0.375 0.84375,-0.34375 0.8125,-0.4375 0.875,-0.40625 0.8125,-0.46875 0.78125,-0.5 0.78125,-0.5625 0.75,-0.59375 0.75,-0.625 0.75,-0.65625 0.6875,-0.71875 0.65625,-0.71875 0.65625,-0.8125 0.625,-0.875 0.59375,-0.84375 0.53125,-0.96875 0.5,-0.96875 0.46875,-1.03125 0.4375,-1.0625 0.375,-1.125 0.34375,-1.21875 0.3125,-1.25 0.25,-1.28125 0.1875,-1.34375 0.15625,-1.40625 0.0625,-1.46875 0.0625,-1.5 -0.0625,-1.5625 -0.0625,-1.5625 -0.125,-1.4375 -0.15625,-1.375 -0.21875,-1.375 -0.25,-1.28125 -0.3125,-1.1875 -0.34375,-1.1875 -0.375,-1.125 -0.40625,-1.0625 -0.46875,-1.03125 -0.5,-0.96875 -0.5,-0.875 -0.53125,-0.90625 -0.625,-0.8125 -0.59375,-0.78125 -0.65625,-0.6875 L 323.875,558 l -0.6875,-0.65625 -0.75,-0.5625 -0.75,-0.59375 -0.71875,-0.5 -0.8125,-0.5 -0.78125,-0.4375 -0.8125,-0.4375 -0.84375,-0.34375 -0.8125,-0.34375 -0.90625,-0.3125 -0.84375,-0.28125 -0.90625,-0.25 -0.84375,-0.25 -0.90625,-0.15625 -0.9375,-0.1875 -0.875,-0.125 -0.90625,-0.0937 -0.9375,-0.125 -0.875,-0.0312 -0.90625,-0.0937 -0.875,0 -0.9375,-0.0312 -0.40625,0 -0.3125,0 -0.40625,0 -0.46875,0 -0.53125,0 -0.59375,0 -0.65625,0 -0.71875,0 -0.78125,0 -0.78125,0 -0.84375,0 -0.875,0 -0.90625,0 -0.9375,0 -0.96875,0 -0.96875,0 -0.96875,0 -0.96875,0 -1,0 -0.96875,0 -0.96875,0 -0.96875,0 -0.9375,0 -0.90625,0 -0.875,0 -0.84375,0 -0.78125,0 -0.78125,0 -0.71875,0 -0.65625,0 -0.59375,0 -0.53125,0 -0.46875,0 -0.40625,0 -0.3125,0 -0.21875,0 z m 10.96875,10.375 0.25,0 0.40625,0 0.28125,0 0.34375,0 0.34375,0 0.40625,0 0.4375,0 0.4375,0 0.5,0 0.53125,0 0.53125,0 0.53125,0 0.5625,0 0.59375,0 0.59375,0 0.59375,0 0.59375,0 0.59375,0 0.59375,0 0.59375,0 0.5625,0 0.5625,0 0.5625,0 0.53125,0 0.5,0 0.5,0 0.46875,0 0.40625,0 0.40625,0 0.375,0 0.3125,0 0.28125,0 0.25,0 0.3125,0 0.3125,0 0.25,0 0.21875,0 0.28125,0.0312 0.3125,0.0312 0.3125,0.0312 0.3125,0.0937 0.375,0.0625 0.34375,0.0937 0.40625,0.0625 0.375,0.125 0.4375,0.15625 0.4375,0.15625 0.40625,0.15625 0.4375,0.1875 0.4375,0.1875 0.40625,0.25 0.4375,0.25 0.46875,0.28125 0.4375,0.3125 0.40625,0.3125 0.4375,0.34375 0.4375,0.40625 0.375,0.375 0.375,0.46875 0.40625,0.46875 0.34375,0.46875 0.34375,0.53125 0.34375,0.59375 0.3125,0.5625 0.3125,0.625 0.25,0.71875 0.25,0.6875 0.21875,0.75 0.1875,0.75 0.15625,0.8125 0.125,0.875 0.0937,0.9375 0.0625,0.90625 0.0312,1.03125 -0.0312,1.03125 -0.0625,1.03125 -0.0937,0.90625 -0.15625,0.9375 -0.15625,0.875 -0.21875,0.8125 -0.21875,0.8125 -0.28125,0.71875 -0.3125,0.71875 -0.3125,0.65625 -0.34375,0.625 -0.375,0.59375 -0.40625,0.5625 -0.375,0.53125 -0.46875,0.46875 -0.4375,0.46875 -0.46875,0.4375 -0.5,0.375 -0.46875,0.40625 -0.5,0.34375 -0.5,0.3125 -0.53125,0.25 -0.5,0.28125 -0.5625,0.25 -0.5,0.21875 -0.53125,0.1875 -0.5625,0.15625 -0.5,0.15625 -0.53125,0.15625 -0.5,0.125 -0.53125,0.125 -0.5,0.0625 -0.5,0.0625 -0.46875,0.0937 -0.46875,0.0312 -0.4375,0.0312 -0.4375,0 -0.40625,0.0625 -0.40625,0 -0.375,0 -0.1875,0 -0.34375,0 -0.21875,0 -0.25,0 -0.3125,0 -0.3125,0 -0.34375,0 -0.375,0 -0.40625,0 -0.40625,0 -0.40625,0 -0.4375,0 -0.46875,0 -0.4375,0 -0.5,0 -0.46875,0 -0.46875,0 -0.46875,0 -0.5,0 -0.46875,0 -0.4375,0 -0.46875,0 -0.4375,0 -0.4375,0 -0.40625,0 -0.375,0 -0.375,0 -0.34375,0 -0.3125,0 -0.28125,0 -0.28125,0 -0.21875,0 -0.34375,0 -0.1875,0 0,-30.96875 z"
   style="fill:#000000;fill-opacity:1;stroke:none"
   inkscape:connector-curvature="0" />
</g><g
     style="fill:#000000;fill-opacity:1;stroke:none"
     id="LWPOLYLINE">
	
		<path
   style="fill:#000000;fill-opacity:1;stroke:none"
   id="path4"
   d="m 178.875,551.688 c -0.174,0 -0.311,0 -0.311,0 -0.155,0 -0.368,0 -0.368,0 h -0.214 -0.252 -0.291 -0.291 -0.33 -0.35 -0.35 -0.368 -0.389 -0.407 -0.388 -0.428 -0.407 -0.407 -0.427 -0.408 -0.407 -0.407 -0.408 -0.388 -0.369 -0.349 -0.35 -0.33 -0.291 -0.29 -0.253 -0.213 c -0.194,0 -0.369,0 -0.369,0 -0.136,0 -0.232,0 -0.232,0 -0.078,0.193 -0.078,0.698 -0.078,0.698 v 0.776 1.125 1.359 1.669 1.862 2.097 2.328 2.523 2.639 2.834 2.988 3.105 3.183 3.299 3.338 3.416 3.416 3.454 3.454 3.455 3.377 3.376 3.261 3.222 3.066 2.988 2.834 2.678 2.484 2.328 2.097 1.901 1.631 1.358 1.125 0.815 0.505 c 0.175,0.155 0.311,0.155 0.311,0.155 0.175,0 0.369,0 0.369,0 h 0.213 0.253 0.291 0.291 0.33 0.35 0.349 0.369 0.388 0.408 0.407 0.407 0.408 0.427 0.407 0.407 0.428 0.388 0.407 0.389 0.368 0.35 0.35 0.33 0.291 0.291 0.252 0.214 0.213 c 0.155,0 0.292,0 0.292,0 0.172,0.002 0.172,-92.219 0.172,-92.219 z"
   stroke-miterlimit="10"
   inkscape:connector-curvature="0" />
</g><g
     style="fill:#000000;fill-opacity:1;stroke:none"
     id="LWPOLYLINE_1_">
	
		<path
   style="fill:#000000;fill-opacity:1;stroke:none"
   id="path7"
   d="m 248.837,551.688 c 0,0.154 0,0.582 0,0.582 v 0.698 0.932 1.164 1.437 1.591 1.786 1.979 2.135 2.29 2.406 2.562 2.64 2.717 2.795 2.872 2.911 2.911 2.949 2.95 2.95 2.872 2.872 2.795 2.756 2.639 2.523 2.406 2.29 2.135 1.979 1.785 1.63 1.397 1.165 0.932 0.698 0.427 c -0.077,0 -0.252,-0.427 -0.252,-0.427 l -0.311,-0.698 -0.427,-0.932 -0.524,-1.165 -0.621,-1.397 -0.718,-1.63 -0.796,-1.785 -0.873,-1.979 -0.951,-2.135 -1.009,-2.29 -1.067,-2.406 -1.146,-2.523 -1.164,-2.639 -1.203,-2.756 -1.262,-2.795 -1.261,-2.872 -1.301,-2.872 -1.3,-2.95 -1.301,-2.95 -1.319,-2.949 -1.301,-2.911 -1.3,-2.911 -1.262,-2.872 -1.242,-2.795 -1.223,-2.717 -1.164,-2.64 -1.126,-2.562 -1.087,-2.406 -1.009,-2.29 -0.951,-2.135 -0.873,-1.979 -0.796,-1.786 -0.718,-1.591 -0.621,-1.437 -0.524,-1.164 -0.427,-0.932 -0.291,-0.698 -0.194,-0.428 c -0.174,-0.154 -0.329,-0.154 -0.329,-0.154 -0.175,0 -0.428,0 -0.428,0 h -0.271 -0.33 -0.368 -0.389 -0.427 -0.466 -0.485 -0.523 -0.524 -0.562 -0.562 -0.583 -0.582 -0.582 -0.602 -0.602 -0.582 -0.582 -0.583 -0.562 -0.562 -0.524 -0.523 -0.485 -0.466 -0.427 -0.389 -0.368 -0.33 -0.271 -0.253 c -0.193,0 -0.33,0 -0.33,0 -0.116,0.193 -0.116,0.698 -0.116,0.698 v 0.776 1.125 1.359 1.669 1.862 2.097 2.328 2.523 2.639 2.834 2.988 3.105 3.183 3.299 3.338 3.416 3.416 3.454 3.454 3.455 3.377 3.376 3.261 3.222 3.066 2.988 2.834 2.678 2.484 2.328 2.097 1.901 1.631 1.358 1.125 0.815 0.505 c 0.175,0.155 0.291,0.155 0.291,0.155 0.155,0 0.35,0 0.35,0 h 0.214 0.232 0.252 0.292 0.291 0.311 0.349 0.33 0.369 0.368 0.369 0.388 0.389 0.388 0.389 0.368 0.389 0.368 0.369 0.368 0.35 0.33 0.311 0.311 0.271 0.252 0.253 0.213 c 0.175,0 0.33,0 0.33,0 0.116,0 0.214,0 0.214,0 0.077,-0.155 0.077,-0.583 0.077,-0.583 v -0.698 -0.932 -1.203 -1.397 -1.63 -1.824 -1.979 -2.174 -2.29 -2.445 -2.562 -2.679 -2.755 -2.834 -2.872 -2.95 -2.949 -2.989 -2.988 -2.95 -2.949 -2.873 -2.833 -2.756 -2.678 -2.562 -2.445 -2.289 -2.174 -1.979 -1.824 -1.631 -1.396 -1.204 -0.931 -0.7 -0.427 c 0.059,0 0.253,0.427 0.253,0.427 l 0.311,0.699 0.427,0.931 0.543,1.204 0.641,1.396 0.718,1.631 0.835,1.824 0.893,1.979 0.971,2.174 1.028,2.289 1.106,2.445 1.145,2.562 1.203,2.678 1.242,2.756 1.281,2.833 1.3,2.873 1.32,2.949 1.319,2.95 1.339,2.988 1.339,2.989 1.34,2.949 1.319,2.95 1.3,2.872 1.281,2.834 1.242,2.755 1.203,2.679 1.145,2.562 1.106,2.445 1.028,2.29 0.971,2.174 0.893,1.979 0.815,1.824 0.737,1.63 0.641,1.397 0.523,1.203 0.446,0.932 0.311,0.698 0.194,0.428 c 0.175,0.155 0.311,0.155 0.311,0.155 0.175,0 0.389,0 0.389,0 h 0.271 0.311 0.349 0.389 0.407 0.427 0.466 0.485 0.505 0.523 0.544 0.543 0.563 0.562 0.562 0.563 0.562 0.562 0.544 0.543 0.524 0.504 0.485 0.466 0.446 0.407 0.369 0.35 0.311 0.271 0.232 c 0.175,0 0.311,0 0.311,0 0.098,-0.155 0.098,-0.66 0.098,-0.66 v -0.815 -1.125 -1.358 -1.631 -1.901 -2.097 -2.328 -2.484 -2.678 -2.834 -2.988 -3.066 -3.222 -3.261 -3.376 -3.377 -3.455 -3.454 -3.454 -3.416 -3.416 -3.338 -3.299 -3.183 -3.105 -2.988 -2.834 -2.639 -2.523 -2.328 -2.097 -1.862 -1.669 -1.359 -1.125 -0.776 -0.505 c -0.002,-0.192 -10.327,-0.192 -10.327,-0.192 z"
   stroke-miterlimit="10"
   inkscape:connector-curvature="0" />
</g><g
     style="fill:#000000;fill-opacity:1;stroke:none"
     id="LWPOLYLINE_2_">
	
		
</g><g
     style="fill:#000000;fill-opacity:1;stroke:none"
     id="LWPOLYLINE_4_">
	
		<path
   style="fill:#000000;fill-opacity:1;stroke:none"
   id="path16"
   d="m 345.813,609.714 v 1.901 l 0.078,1.824 0.077,1.747 0.116,1.708 0.155,1.669 0.233,1.591 0.232,1.553 0.233,1.514 0.311,1.437 0.35,1.397 0.388,1.319 0.388,1.281 0.466,1.241 0.466,1.204 0.544,1.125 0.543,1.087 0.582,1.048 0.621,0.971 0.66,0.932 0.698,0.893 0.738,0.854 0.775,0.776 0.815,0.737 0.815,0.699 0.893,0.659 0.893,0.621 0.971,0.544 0.97,0.543 1.01,0.466 1.087,0.427 1.086,0.389 1.126,0.349 1.164,0.311 1.204,0.272 1.203,0.193 1.28,0.194 1.32,0.116 1.319,0.117 1.397,0.038 1.397,0.039 1.436,-0.039 1.358,-0.038 1.358,-0.117 1.281,-0.116 1.281,-0.194 1.241,-0.193 1.203,-0.272 1.165,-0.311 1.125,-0.349 1.087,-0.389 1.048,-0.427 1.01,-0.466 1.009,-0.543 0.932,-0.544 0.893,-0.621 0.893,-0.659 0.854,-0.699 0.776,-0.737 0.776,-0.776 0.737,-0.854 0.698,-0.893 0.66,-0.932 0.621,-0.971 0.621,-1.048 0.543,-1.087 0.505,-1.125 0.505,-1.204 0.427,-1.241 0.427,-1.281 0.35,-1.319 0.349,-1.397 0.311,-1.437 0.272,-1.514 0.232,-1.553 0.194,-1.591 0.155,-1.669 0.116,-1.708 0.116,-1.747 0.039,-1.824 v -1.901 c 0,-0.078 0,-0.389 0,-0.389 v -0.543 -0.66 -0.893 -1.009 -1.203 -1.32 -1.475 -1.553 -1.708 -1.785 -1.863 -1.94 -2.019 -2.057 -2.096 -2.135 -2.174 -2.174 -2.174 -2.173 -2.135 -2.097 -2.096 -1.979 -1.979 -1.863 -1.785 -1.669 -1.592 -1.436 -1.32 -1.203 -1.009 -0.893 -0.699 -0.504 -0.311 c -0.155,-0.116 -0.311,-0.116 -0.311,-0.116 -0.194,0 -0.388,0 -0.388,0 h -0.233 -0.271 -0.311 -0.311 -0.35 -0.388 -0.389 -0.388 -0.427 -0.428 -0.427 -0.427 -0.466 -0.427 -0.466 -0.427 -0.427 -0.466 -0.428 -0.388 -0.389 -0.388 -0.388 -0.35 -0.311 -0.311 -0.271 -0.233 -0.232 c -0.155,0 -0.311,0 -0.311,0 -0.194,0.116 -0.194,0.427 -0.194,0.427 v 0.543 0.699 0.854 1.048 1.203 1.358 1.476 1.591 1.708 1.824 1.863 1.979 2.057 2.097 2.135 2.173 2.174 2.213 2.212 2.174 2.173 2.135 2.097 2.057 1.979 1.863 1.824 1.708 1.591 1.476 1.358 1.203 1.048 0.854 0.738 0.504 0.311 c 0,0.117 0,1.592 0,1.592 l -0.039,1.397 -0.038,1.358 -0.078,1.319 -0.077,1.242 -0.117,1.203 -0.155,1.164 -0.155,1.126 -0.155,1.048 -0.232,1.01 -0.194,0.97 -0.232,0.932 -0.271,0.893 -0.272,0.854 -0.311,0.776 -0.349,0.775 -0.311,0.699 -0.389,0.698 -0.388,0.621 -0.389,0.621 -0.427,0.544 -0.466,0.543 -0.466,0.466 -0.504,0.466 -0.505,0.427 -0.505,0.389 -0.582,0.349 -0.543,0.311 -0.621,0.311 -0.621,0.271 -0.621,0.233 -0.66,0.194 -0.66,0.193 -0.698,0.155 -0.737,0.117 -0.737,0.116 -0.776,0.077 -0.776,0.039 -0.815,0.039 h -0.814 -0.815 l -0.815,-0.039 -0.776,-0.039 -0.737,-0.077 -0.776,-0.116 -0.698,-0.117 -0.699,-0.155 -0.698,-0.193 -0.66,-0.194 -0.621,-0.233 -0.62,-0.271 -0.583,-0.311 -0.582,-0.311 -0.543,-0.349 -0.544,-0.389 -0.504,-0.427 -0.505,-0.466 -0.466,-0.466 -0.427,-0.543 -0.427,-0.544 -0.428,-0.621 -0.388,-0.621 -0.35,-0.698 -0.35,-0.699 -0.31,-0.775 -0.311,-0.776 -0.272,-0.854 -0.271,-0.893 -0.232,-0.932 -0.233,-0.97 -0.194,-1.01 -0.193,-1.048 -0.155,-1.126 -0.116,-1.164 -0.117,-1.203 -0.116,-1.242 -0.039,-1.319 -0.077,-1.358 -0.039,-1.397 v -1.475 c 0,-0.117 0,-0.428 0,-0.428 v -0.504 -0.738 -0.854 -1.048 -1.203 -1.358 -1.476 -1.591 -1.708 -1.824 -1.863 -1.979 -2.057 -2.097 -2.135 -2.173 -2.174 -2.212 -2.213 -2.174 -2.173 -2.135 -2.097 -2.057 -1.979 -1.863 -1.824 -1.708 -1.591 -1.476 -1.358 -1.203 -1.048 -0.854 -0.699 -0.543 -0.311 c -0.194,-0.116 -0.311,-0.116 -0.311,-0.116 -0.194,0 -0.427,0 -0.427,0 h -0.233 -0.271 -0.271 -0.35 -0.349 -0.35 -0.389 -0.388 -0.427 -0.427 -0.428 -0.427 -0.466 -0.427 -0.466 -0.427 -0.466 -0.427 -0.427 -0.428 -0.388 -0.389 -0.349 -0.35 -0.311 -0.311 -0.271 -0.233 -0.232 c -0.155,0 -0.311,0 -0.311,0 -0.186,0.003 -0.186,58.029 -0.186,58.029 z"
   stroke-miterlimit="10"
   inkscape:connector-curvature="0" />
</g><g
     style="fill:#000000;fill-opacity:1;stroke:none"
     id="LWPOLYLINE_5_">
	
		<path
   style="fill:#000000;fill-opacity:1;stroke:none"
   id="path19"
   d="m 413.389,551.688 c 0,0.193 0,0.31 0,0.31 0,0.155 0,0.311 0,0.311 v 0.233 0.232 0.272 0.271 0.311 0.311 0.311 0.349 0.389 0.35 0.388 0.388 0.35 0.389 0.388 0.389 0.388 0.388 0.35 0.389 0.311 0.349 0.311 0.311 0.271 0.272 0.232 0.194 c 0,0.194 0,0.35 0,0.35 0,0.116 0,0.232 0,0.232 0.155,0.078 0.388,0.078 0.388,0.078 h 0.272 0.349 0.428 0.504 0.544 0.582 0.66 0.698 0.698 0.776 0.815 0.815 0.854 0.854 0.893 0.894 0.893 0.893 0.893 0.893 0.854 0.854 0.815 0.814 0.737 0.738 0.698 0.66 0.582 0.543 0.505 0.427 0.35 0.271 0.233 c 0.155,0.116 0.155,0.582 0.155,0.582 v 0.698 1.01 1.203 1.475 1.669 1.863 2.057 2.213 2.367 2.523 2.639 2.756 2.834 2.911 2.988 3.027 3.027 3.066 3.066 3.066 3.027 2.95 2.949 2.834 2.717 2.64 2.522 2.368 2.251 2.057 1.863 1.669 1.437 1.242 0.97 0.737 0.428 c 0.193,0.155 0.349,0.155 0.349,0.155 0.155,0 0.389,0 0.389,0 h 0.232 0.271 0.311 0.311 0.35 0.389 0.349 0.427 0.389 0.427 0.427 0.466 0.427 0.466 0.428 0.466 0.427 0.427 0.427 0.427 0.389 0.388 0.35 0.35 0.349 0.272 0.271 0.271 0.194 c 0.193,0 0.311,0 0.311,0 0.193,-0.155 0.193,-0.583 0.193,-0.583 v -0.737 -0.97 -1.242 -1.437 -1.669 -1.863 -2.057 -2.251 -2.368 -2.522 -2.64 -2.717 -2.834 -2.949 -2.95 -3.027 -3.066 -3.066 -3.066 -3.027 -3.027 -2.988 -2.911 -2.834 -2.756 -2.639 -2.523 -2.367 -2.213 -2.057 -1.863 -1.669 -1.475 -1.203 -1.01 -0.698 -0.466 c 0.194,-0.116 0.389,-0.116 0.389,-0.116 h 0.271 0.35 0.388 0.505 0.505 0.582 0.621 0.659 0.738 0.737 0.776 0.776 0.814 0.854 0.854 0.854 0.854 0.893 0.854 0.854 0.814 0.815 0.815 0.776 0.737 0.698 0.66 0.66 0.543 0.543 0.466 0.428 0.349 0.271 0.194 c 0.155,-0.194 0.155,-0.311 0.155,-0.311 0,-0.155 0,-0.35 0,-0.35 v -0.194 -0.232 -0.272 -0.271 -0.311 -0.311 -0.349 -0.311 -0.389 -0.35 -0.388 -0.388 -0.389 -0.388 -0.389 -0.35 -0.388 -0.388 -0.35 -0.389 -0.349 -0.311 -0.311 -0.311 -0.271 -0.272 -0.232 -0.233 c 0,-0.155 0,-0.311 0,-0.311 0,-0.116 0,-0.232 0,-0.232 -0.002,-0.077 -58.804,-0.077 -58.804,-0.077 z"
   stroke-miterlimit="10"
   inkscape:connector-curvature="0" />
</g><g
     style="fill:#000000;fill-opacity:1;stroke:none"
     id="LWPOLYLINE_6_">
	
		<polygon
   style="fill:#000000;fill-opacity:1;stroke:none"
   id="polygon22"
   points="316.393,179.229 242.2,253.422 225.336,236.558 316.393,145.5 407.45,236.558 499.09,328.178 316.393,510.854 224.772,419.254 241.638,402.37 316.393,477.126 465.36,328.178 "
   stroke-miterlimit="10" />
</g><g
     style="fill:#000000;fill-opacity:1;stroke:none"
     id="LWPOLYLINE_7_">
	
		<polygon
   style="fill:#000000;fill-opacity:1;stroke:none"
   id="polygon25"
   points="112.911,317.193 259.957,317.193 259.957,278.243 385.56,328.333 259.957,377.606 259.957,339.453 112.911,339.453 "
   stroke-miterlimit="10" />
</g></g>
</svg>