<?xml version="1.0" encoding="UTF-8" standalone="no"?>
<!-- Generator: Adobe Illustrator 16.0.1, SVG Export Plug-In . SVG Version: 6.00 Build 0)  -->

<svg
   xmlns:dc="http://purl.org/dc/elements/1.1/"
   xmlns:cc="http://creativecommons.org/ns#"
   xmlns:rdf="http://www.w3.org/1999/02/22-rdf-syntax-ns#"
   xmlns:svg="http://www.w3.org/2000/svg"
   xmlns="http://www.w3.org/2000/svg"
   xmlns:xlink="http://www.w3.org/1999/xlink"
   xmlns:sodipodi="http://sodipodi.sourceforge.net/DTD/sodipodi-0.dtd"
   xmlns:inkscape="http://www.inkscape.org/namespaces/inkscape"
   version="1.0"
   id="_x31_"
   x="0px"
   y="0px"
   width="350"
   height="350"
   viewBox="0 0 350 350"
   enable-background="new 0 0 612 792"
   xml:space="preserve"
   inkscape:version="0.48.3.1 r9886"
   sodipodi:docname="6048.svg"><metadata
   id="metadata13"><rdf:RDF><cc:Work
       rdf:about=""><dc:format>image/svg+xml</dc:format><dc:type
         rdf:resource="http://purl.org/dc/dcmitype/StillImage" /></cc:Work></rdf:RDF></metadata><defs
   id="defs11"><radialGradient
     r="333.18735"
     fy="467.91885"
     fx="373.24265"
     cy="467.91885"
     cx="373.24265"
     gradientTransform="matrix(0.83535069,2.5391116e-7,-2.4564601e-7,0.80815885,-725.97492,-115.98714)"
     gradientUnits="userSpaceOnUse"
     id="radialGradient4460"
     xlink:href="#linearGradient5443"
     inkscape:collect="always" /><linearGradient
     y2="254.73526"
     x2="123.47623"
     y1="344.03848"
     x1="123.50603"
     gradientTransform="matrix(2.3189708,0,0,2.0930998,-543.56606,-225.82362)"
     gradientUnits="userSpaceOnUse"
     id="linearGradient4458"
     xlink:href="#linearGradient3187"
     inkscape:collect="always" /><radialGradient
     r="333.18735"
     fy="710.99164"
     fx="373.24265"
     cy="710.99164"
     cx="373.24265"
     gradientTransform="matrix(0.86272606,1.0667183e-7,-5.1097113e-8,0.31433999,-736.19251,168.72353)"
     gradientUnits="userSpaceOnUse"
     id="radialGradient4456"
     xlink:href="#linearGradient5443"
     inkscape:collect="always" /><radialGradient
     r="333.18735"
     fy="467.91885"
     fx="373.24265"
     cy="467.91885"
     cx="373.24265"
     gradientTransform="matrix(0.83393192,2.4025531e-7,-2.452288e-7,0.76469446,-575.89311,126.3946)"
     gradientUnits="userSpaceOnUse"
     id="radialGradient2894-5"
     xlink:href="#linearGradient5443-0"
     inkscape:collect="always" /><linearGradient
     y2="254.73526"
     x2="123.47623"
     y1="344.03848"
     x1="123.50603"
     gradientTransform="matrix(2.3189708,0,0,2.0930998,-543.56606,-225.82362)"
     gradientUnits="userSpaceOnUse"
     id="linearGradient2892-2"
     xlink:href="#linearGradient3187-1"
     inkscape:collect="always" /><radialGradient
     r="333.18735"
     fy="710.99164"
     fx="373.24265"
     cy="710.99164"
     cx="373.24265"
     gradientTransform="matrix(0.8612608,1.0093481e-7,-5.1010329e-8,0.29743416,-586.09339,395.79293)"
     gradientUnits="userSpaceOnUse"
     id="radialGradient2890-7"
     xlink:href="#linearGradient5443-0"
     inkscape:collect="always" /><linearGradient
     id="linearGradient5443-5-6"><stop
       style="stop-color:#ffffff;stop-opacity:0;"
       offset="0"
       id="stop5445-4-1" /><stop
       style="stop-color:#000000;stop-opacity:0.33962265;"
       offset="1"
       id="stop5447-3-4" /></linearGradient><radialGradient
     r="333.18735"
     fy="710.99164"
     fx="373.24265"
     cy="710.99164"
     cx="373.24265"
     gradientTransform="matrix(0.9503534,1.1750652e-7,-5.6287062e-8,0.3462676,317.80591,185.68771)"
     gradientUnits="userSpaceOnUse"
     id="radialGradient4835-3-2"
     xlink:href="#linearGradient5443-5-6"
     inkscape:collect="always" /><radialGradient
     r="333.18735"
     fy="710.99164"
     fx="373.24265"
     cy="710.99164"
     cx="373.24265"
     gradientTransform="matrix(0.8612608,1.0093481e-7,-5.1010329e-8,0.29743416,-586.09339,395.79293)"
     gradientUnits="userSpaceOnUse"
     id="radialGradient4835-2"
     xlink:href="#linearGradient5443-0"
     inkscape:collect="always" /><radialGradient
     r="333.18735"
     fy="467.91885"
     fx="373.24265"
     cy="467.91885"
     cx="373.24265"
     gradientTransform="matrix(0.83393192,2.4025531e-7,-2.452288e-7,0.76469446,-575.89311,126.3946)"
     gradientUnits="userSpaceOnUse"
     id="radialGradient4832-1"
     xlink:href="#linearGradient5443-0"
     inkscape:collect="always" /><linearGradient
     y2="254.73526"
     x2="123.47623"
     y1="344.03848"
     x1="123.50603"
     gradientTransform="matrix(2.3189708,0,0,2.0930998,-543.56606,-225.82362)"
     gradientUnits="userSpaceOnUse"
     id="linearGradient4827-6"
     xlink:href="#linearGradient3187-1"
     inkscape:collect="always" /><linearGradient
     y2="254.73526"
     x2="123.47623"
     y1="344.03848"
     x1="123.50603"
     gradientTransform="matrix(2.3189708,0,0,2.0930998,93.115298,-256.84999)"
     gradientUnits="userSpaceOnUse"
     id="linearGradient4824-8"
     xlink:href="#linearGradient3187-1"
     inkscape:collect="always" /><radialGradient
     r="333.18735"
     fy="467.91885"
     fx="373.24265"
     cy="467.91885"
     cx="373.24265"
     gradientTransform="matrix(0.9201975,2.7970099e-7,-2.7059634e-7,0.8902438,28.590287,48.634335)"
     gradientUnits="userSpaceOnUse"
     id="radialGradient4822-5"
     xlink:href="#linearGradient3171-6"
     inkscape:collect="always" /><radialGradient
     r="333.18735"
     fy="710.99164"
     fx="373.24265"
     cy="710.99164"
     cx="373.24265"
     gradientTransform="matrix(0.9503534,1.1750652e-7,-5.6287062e-8,0.3462676,17.334826,362.44227)"
     gradientUnits="userSpaceOnUse"
     id="radialGradient4820-7"
     xlink:href="#linearGradient3157-2"
     inkscape:collect="always" /><radialGradient
     r="333.18735"
     fy="710.99164"
     fx="373.24265"
     cy="710.99164"
     cx="373.24265"
     gradientTransform="matrix(0.9503534,1.1750652e-7,-5.6287062e-8,0.3462676,17.334826,362.44227)"
     gradientUnits="userSpaceOnUse"
     id="radialGradient4805-6"
     xlink:href="#linearGradient3157-2"
     inkscape:collect="always" /><radialGradient
     r="333.18735"
     fy="467.91885"
     fx="373.24265"
     cy="467.91885"
     cx="373.24265"
     gradientTransform="matrix(0.9201975,2.7970099e-7,-2.7059634e-7,0.8902438,28.590287,48.634335)"
     gradientUnits="userSpaceOnUse"
     id="radialGradient4802-1"
     xlink:href="#linearGradient3171-6"
     inkscape:collect="always" /><linearGradient
     y2="254.73526"
     x2="123.47623"
     y1="344.03848"
     x1="123.50603"
     gradientTransform="matrix(2.3189708,0,0,2.0930998,93.115298,-256.84999)"
     gradientUnits="userSpaceOnUse"
     id="linearGradient4799-8"
     xlink:href="#linearGradient3187-1"
     inkscape:collect="always" /><linearGradient
     y2="254.73526"
     x2="123.47623"
     y1="344.03848"
     x1="123.50603"
     gradientTransform="matrix(2.3189708,0,0,2.0930998,93.115298,-256.84999)"
     gradientUnits="userSpaceOnUse"
     id="linearGradient4794-9"
     xlink:href="#linearGradient3187-1"
     inkscape:collect="always" /><radialGradient
     r="333.18735"
     fy="467.91885"
     fx="373.24265"
     cy="467.91885"
     cx="373.24265"
     gradientTransform="matrix(0.9201975,2.7970099e-7,-2.7059634e-7,0.8902438,28.590287,48.634335)"
     gradientUnits="userSpaceOnUse"
     id="radialGradient4792-2"
     xlink:href="#linearGradient3171-6"
     inkscape:collect="always" /><radialGradient
     r="333.18735"
     fy="710.99164"
     fx="373.24265"
     cy="710.99164"
     cx="373.24265"
     gradientTransform="matrix(0.9503534,1.1750652e-7,-5.6287062e-8,0.3462676,17.334826,362.44227)"
     gradientUnits="userSpaceOnUse"
     id="radialGradient4790-7"
     xlink:href="#linearGradient3157-2"
     inkscape:collect="always" /><radialGradient
     r="333.18735"
     fy="710.99164"
     fx="373.24265"
     cy="710.99164"
     cx="373.24265"
     gradientTransform="matrix(0.9503534,1.1750652e-7,-5.6287062e-8,0.3462676,17.334826,362.44227)"
     gradientUnits="userSpaceOnUse"
     id="radialGradient4779-9"
     xlink:href="#linearGradient3157-2"
     inkscape:collect="always" /><radialGradient
     r="333.18735"
     fy="467.91885"
     fx="373.24265"
     cy="467.91885"
     cx="373.24265"
     gradientTransform="matrix(0.9201975,2.7970099e-7,-2.7059634e-7,0.8902438,28.590287,48.634335)"
     gradientUnits="userSpaceOnUse"
     id="radialGradient4776-5"
     xlink:href="#linearGradient3171-6"
     inkscape:collect="always" /><linearGradient
     y2="254.73526"
     x2="123.47623"
     y1="344.03848"
     x1="123.50603"
     gradientTransform="matrix(2.3189708,0,0,2.0930998,93.115298,-256.84999)"
     gradientUnits="userSpaceOnUse"
     id="linearGradient4773-4"
     xlink:href="#linearGradient3187-1"
     inkscape:collect="always" /><linearGradient
     y2="254.73526"
     x2="123.47623"
     y1="344.03848"
     x1="123.50603"
     gradientTransform="matrix(2.3189708,0,0,2.0930998,93.115298,-256.84999)"
     gradientUnits="userSpaceOnUse"
     id="linearGradient4770-3"
     xlink:href="#linearGradient3187-1"
     inkscape:collect="always" /><radialGradient
     r="333.18735"
     fy="467.91885"
     fx="373.24265"
     cy="467.91885"
     cx="373.24265"
     gradientTransform="matrix(0.9201975,2.7970099e-7,-2.7059634e-7,0.8902438,28.590287,48.634335)"
     gradientUnits="userSpaceOnUse"
     id="radialGradient4768-1"
     xlink:href="#linearGradient3171-6"
     inkscape:collect="always" /><radialGradient
     r="333.18735"
     fy="710.99164"
     fx="373.24265"
     cy="710.99164"
     cx="373.24265"
     gradientTransform="matrix(0.9503534,1.1750652e-7,-5.6287062e-8,0.3462676,17.334826,362.44227)"
     gradientUnits="userSpaceOnUse"
     id="radialGradient4766-2"
     xlink:href="#linearGradient3157-2"
     inkscape:collect="always" /><radialGradient
     r="333.18735"
     fy="710.99164"
     fx="373.24265"
     cy="710.99164"
     cx="373.24265"
     gradientTransform="matrix(0.9503534,1.1750652e-7,-5.6287062e-8,0.3462676,17.334826,362.44227)"
     gradientUnits="userSpaceOnUse"
     id="radialGradient4572-4"
     xlink:href="#linearGradient3157-2"
     inkscape:collect="always" /><radialGradient
     r="333.18735"
     fy="467.91885"
     fx="373.24265"
     cy="467.91885"
     cx="373.24265"
     gradientTransform="matrix(0.9201975,2.7970099e-7,-2.7059634e-7,0.8902438,28.590287,48.634335)"
     gradientUnits="userSpaceOnUse"
     id="radialGradient4569-1"
     xlink:href="#linearGradient3171-6"
     inkscape:collect="always" /><linearGradient
     y2="254.73526"
     x2="123.47623"
     y1="344.03848"
     x1="123.50603"
     gradientTransform="matrix(2.3189708,0,0,2.0930998,93.115298,-256.84999)"
     gradientUnits="userSpaceOnUse"
     id="linearGradient4562-1"
     xlink:href="#linearGradient3187-1"
     inkscape:collect="always" /><linearGradient
     gradientUnits="userSpaceOnUse"
     y2="540.86719"
     x2="360.49777"
     y1="167.50403"
     x1="360.49777"
     id="linearGradient4401-3"
     xlink:href="#linearGradient4395-7"
     inkscape:collect="always" /><linearGradient
     gradientUnits="userSpaceOnUse"
     y2="655.4505"
     x2="396.91168"
     y1="298.59412"
     x1="371.42194"
     id="linearGradient4389-8"
     xlink:href="#linearGradient4383-4"
     inkscape:collect="always" /><inkscape:perspective
     id="perspective3214-7"
     inkscape:persp3d-origin="372.04724 : 350.78739 : 1"
     inkscape:vp_z="744.09448 : 526.18109 : 1"
     inkscape:vp_y="0 : 1000 : 0"
     inkscape:vp_x="0 : 526.18109 : 1"
     sodipodi:type="inkscape:persp3d" /><linearGradient
     id="linearGradient4383-4"><stop
       id="stop4385-2"
       offset="0"
       style="stop-color:#00037f;stop-opacity:1;" /><stop
       id="stop4387-7"
       offset="1"
       style="stop-color:#00037f;stop-opacity:0;" /></linearGradient><linearGradient
     id="linearGradient4395-7"><stop
       id="stop4397-9"
       offset="0"
       style="stop-color:#110084;stop-opacity:1;" /><stop
       id="stop4399-3"
       offset="1"
       style="stop-color:#a695ff;stop-opacity:1;" /></linearGradient><linearGradient
     id="linearGradient3187-1"><stop
       id="stop3189-9"
       offset="0"
       style="stop-color:#ffffff;stop-opacity:0.39622641;" /><stop
       id="stop3191-8"
       offset="1"
       style="stop-color:#000000;stop-opacity:1;" /></linearGradient><linearGradient
     id="linearGradient3171-6"><stop
       style="stop-color:#49bcff;stop-opacity:1;"
       offset="0"
       id="stop3173-5" /><stop
       style="stop-color:#494cdc;stop-opacity:1;"
       offset="1"
       id="stop3175-0" /></linearGradient><linearGradient
     id="linearGradient3157-2"><stop
       id="stop3159-8"
       offset="0"
       style="stop-color:#49bcff;stop-opacity:1;" /><stop
       id="stop3161-6"
       offset="1"
       style="stop-color:#494c96;stop-opacity:1;" /></linearGradient><linearGradient
     id="linearGradient5443-0"><stop
       style="stop-color:#ffffff;stop-opacity:0;"
       offset="0"
       id="stop5445-2" /><stop
       style="stop-color:#000000;stop-opacity:0.33962265;"
       offset="1"
       id="stop5447-4" /></linearGradient><radialGradient
     inkscape:collect="always"
     xlink:href="#linearGradient5443-0"
     id="radialGradient3234"
     gradientUnits="userSpaceOnUse"
     gradientTransform="matrix(0.8612608,1.0093481e-7,-5.1010329e-8,0.29743416,-586.09339,395.79293)"
     cx="373.24265"
     cy="710.99164"
     fx="373.24265"
     fy="710.99164"
     r="333.18735" /><linearGradient
     inkscape:collect="always"
     xlink:href="#linearGradient3187-1"
     id="linearGradient3236"
     gradientUnits="userSpaceOnUse"
     gradientTransform="matrix(2.3189708,0,0,2.0930998,-543.56606,-225.82362)"
     x1="123.50603"
     y1="344.03848"
     x2="123.47623"
     y2="254.73526" /><radialGradient
     inkscape:collect="always"
     xlink:href="#linearGradient5443-0"
     id="radialGradient3238"
     gradientUnits="userSpaceOnUse"
     gradientTransform="matrix(0.83393192,2.4025531e-7,-2.452288e-7,0.76469446,-575.89311,126.3946)"
     cx="373.24265"
     cy="467.91885"
     fx="373.24265"
     fy="467.91885"
     r="333.18735" /><radialGradient
     inkscape:collect="always"
     xlink:href="#linearGradient5443-0"
     id="radialGradient3254"
     gradientUnits="userSpaceOnUse"
     gradientTransform="matrix(0.8612608,1.0093481e-7,-5.1010329e-8,0.29743416,-586.09339,395.79293)"
     cx="373.24265"
     cy="710.99164"
     fx="373.24265"
     fy="710.99164"
     r="333.18735" /><linearGradient
     inkscape:collect="always"
     xlink:href="#linearGradient3187-1"
     id="linearGradient3256"
     gradientUnits="userSpaceOnUse"
     gradientTransform="matrix(2.3189708,0,0,2.0930998,-543.56606,-225.82362)"
     x1="123.50603"
     y1="344.03848"
     x2="123.47623"
     y2="254.73526" /><radialGradient
     inkscape:collect="always"
     xlink:href="#linearGradient5443-0"
     id="radialGradient3258"
     gradientUnits="userSpaceOnUse"
     gradientTransform="matrix(0.83393192,2.4025531e-7,-2.452288e-7,0.76469446,-575.89311,126.3946)"
     cx="373.24265"
     cy="467.91885"
     fx="373.24265"
     fy="467.91885"
     r="333.18735" /><radialGradient
     inkscape:collect="always"
     xlink:href="#linearGradient5443-0"
     id="radialGradient3270"
     gradientUnits="userSpaceOnUse"
     gradientTransform="matrix(0.83535069,2.5391116e-7,-2.4564601e-7,0.80815885,-821.89024,-331.16994)"
     cx="373.24265"
     cy="467.91885"
     fx="373.24265"
     fy="467.91885"
     r="333.18735" /><radialGradient
     inkscape:collect="always"
     xlink:href="#linearGradient5443-0"
     id="radialGradient3274"
     gradientUnits="userSpaceOnUse"
     gradientTransform="matrix(0.86272606,1.0667183e-7,-5.1097113e-8,0.31433999,-832.10787,-46.459305)"
     cx="373.24265"
     cy="710.99164"
     fx="373.24265"
     fy="710.99164"
     r="333.18735" /><linearGradient
     y2="254.73526"
     x2="123.47623"
     y1="344.03848"
     x1="123.50603"
     gradientTransform="matrix(2.3189708,0,0,2.0930998,-543.56606,-225.82362)"
     gradientUnits="userSpaceOnUse"
     id="linearGradient3422"
     xlink:href="#linearGradient3187"
     inkscape:collect="always" /><radialGradient
     r="333.18735"
     fy="710.99164"
     fx="373.24265"
     cy="710.99164"
     cx="373.24265"
     gradientTransform="matrix(0.86272606,1.0667183e-7,-5.1097113e-8,0.31433999,-736.19251,168.72353)"
     gradientUnits="userSpaceOnUse"
     id="radialGradient3416"
     xlink:href="#linearGradient5443"
     inkscape:collect="always" /><radialGradient
     r="333.18735"
     fy="467.91885"
     fx="373.24265"
     cy="467.91885"
     cx="373.24265"
     gradientTransform="matrix(0.83535069,2.5391116e-7,-2.4564601e-7,0.80815885,-725.97492,-115.98714)"
     gradientUnits="userSpaceOnUse"
     id="radialGradient3412"
     xlink:href="#linearGradient5443"
     inkscape:collect="always" /><radialGradient
     r="333.18735"
     fy="467.91885"
     fx="373.24265"
     cy="467.91885"
     cx="373.24265"
     gradientTransform="matrix(0.83393192,2.4025531e-7,-2.452288e-7,0.76469446,-575.89311,126.3946)"
     gradientUnits="userSpaceOnUse"
     id="radialGradient2894"
     xlink:href="#linearGradient5443"
     inkscape:collect="always" /><linearGradient
     y2="254.73526"
     x2="123.47623"
     y1="344.03848"
     x1="123.50603"
     gradientTransform="matrix(2.3189708,0,0,2.0930998,-543.56606,-225.82362)"
     gradientUnits="userSpaceOnUse"
     id="linearGradient2892"
     xlink:href="#linearGradient3187"
     inkscape:collect="always" /><radialGradient
     r="333.18735"
     fy="710.99164"
     fx="373.24265"
     cy="710.99164"
     cx="373.24265"
     gradientTransform="matrix(0.8612608,1.0093481e-7,-5.1010329e-8,0.29743416,-586.09339,395.79293)"
     gradientUnits="userSpaceOnUse"
     id="radialGradient2890"
     xlink:href="#linearGradient5443"
     inkscape:collect="always" /><linearGradient
     id="linearGradient5443-5"><stop
       style="stop-color:#ffffff;stop-opacity:0;"
       offset="0"
       id="stop5445-4" /><stop
       style="stop-color:#000000;stop-opacity:0.33962265;"
       offset="1"
       id="stop5447-3" /></linearGradient><radialGradient
     r="333.18735"
     fy="710.99164"
     fx="373.24265"
     cy="710.99164"
     cx="373.24265"
     gradientTransform="matrix(0.9503534,1.1750652e-7,-5.6287062e-8,0.3462676,317.80591,185.68771)"
     gradientUnits="userSpaceOnUse"
     id="radialGradient4835-3"
     xlink:href="#linearGradient5443-5"
     inkscape:collect="always" /><filter
     color-interpolation-filters="sRGB"
     id="filter5511"
     inkscape:collect="always"><feGaussianBlur
       id="feGaussianBlur5513"
       stdDeviation="3.2374974"
       inkscape:collect="always" /></filter><radialGradient
     r="333.18735"
     fy="710.99164"
     fx="373.24265"
     cy="710.99164"
     cx="373.24265"
     gradientTransform="matrix(0.8612608,1.0093481e-7,-5.1010329e-8,0.29743416,-586.09339,395.79293)"
     gradientUnits="userSpaceOnUse"
     id="radialGradient4835"
     xlink:href="#linearGradient5443"
     inkscape:collect="always" /><radialGradient
     r="333.18735"
     fy="467.91885"
     fx="373.24265"
     cy="467.91885"
     cx="373.24265"
     gradientTransform="matrix(0.83393192,2.4025531e-7,-2.452288e-7,0.76469446,-575.89311,126.3946)"
     gradientUnits="userSpaceOnUse"
     id="radialGradient4832"
     xlink:href="#linearGradient5443"
     inkscape:collect="always" /><linearGradient
     y2="254.73526"
     x2="123.47623"
     y1="344.03848"
     x1="123.50603"
     gradientTransform="matrix(2.3189708,0,0,2.0930998,-543.56606,-225.82362)"
     gradientUnits="userSpaceOnUse"
     id="linearGradient4827"
     xlink:href="#linearGradient3187"
     inkscape:collect="always" /><linearGradient
     y2="254.73526"
     x2="123.47623"
     y1="344.03848"
     x1="123.50603"
     gradientTransform="matrix(2.3189708,0,0,2.0930998,93.115298,-256.84999)"
     gradientUnits="userSpaceOnUse"
     id="linearGradient4824"
     xlink:href="#linearGradient3187"
     inkscape:collect="always" /><radialGradient
     r="333.18735"
     fy="467.91885"
     fx="373.24265"
     cy="467.91885"
     cx="373.24265"
     gradientTransform="matrix(0.9201975,2.7970099e-7,-2.7059634e-7,0.8902438,28.590287,48.634335)"
     gradientUnits="userSpaceOnUse"
     id="radialGradient4822"
     xlink:href="#linearGradient3171"
     inkscape:collect="always" /><radialGradient
     r="333.18735"
     fy="710.99164"
     fx="373.24265"
     cy="710.99164"
     cx="373.24265"
     gradientTransform="matrix(0.9503534,1.1750652e-7,-5.6287062e-8,0.3462676,17.334826,362.44227)"
     gradientUnits="userSpaceOnUse"
     id="radialGradient4820"
     xlink:href="#linearGradient3157"
     inkscape:collect="always" /><radialGradient
     r="333.18735"
     fy="710.99164"
     fx="373.24265"
     cy="710.99164"
     cx="373.24265"
     gradientTransform="matrix(0.9503534,1.1750652e-7,-5.6287062e-8,0.3462676,17.334826,362.44227)"
     gradientUnits="userSpaceOnUse"
     id="radialGradient4805"
     xlink:href="#linearGradient3157"
     inkscape:collect="always" /><radialGradient
     r="333.18735"
     fy="467.91885"
     fx="373.24265"
     cy="467.91885"
     cx="373.24265"
     gradientTransform="matrix(0.9201975,2.7970099e-7,-2.7059634e-7,0.8902438,28.590287,48.634335)"
     gradientUnits="userSpaceOnUse"
     id="radialGradient4802"
     xlink:href="#linearGradient3171"
     inkscape:collect="always" /><linearGradient
     y2="254.73526"
     x2="123.47623"
     y1="344.03848"
     x1="123.50603"
     gradientTransform="matrix(2.3189708,0,0,2.0930998,93.115298,-256.84999)"
     gradientUnits="userSpaceOnUse"
     id="linearGradient4799"
     xlink:href="#linearGradient3187"
     inkscape:collect="always" /><linearGradient
     y2="254.73526"
     x2="123.47623"
     y1="344.03848"
     x1="123.50603"
     gradientTransform="matrix(2.3189708,0,0,2.0930998,93.115298,-256.84999)"
     gradientUnits="userSpaceOnUse"
     id="linearGradient4794"
     xlink:href="#linearGradient3187"
     inkscape:collect="always" /><radialGradient
     r="333.18735"
     fy="467.91885"
     fx="373.24265"
     cy="467.91885"
     cx="373.24265"
     gradientTransform="matrix(0.9201975,2.7970099e-7,-2.7059634e-7,0.8902438,28.590287,48.634335)"
     gradientUnits="userSpaceOnUse"
     id="radialGradient4792"
     xlink:href="#linearGradient3171"
     inkscape:collect="always" /><radialGradient
     r="333.18735"
     fy="710.99164"
     fx="373.24265"
     cy="710.99164"
     cx="373.24265"
     gradientTransform="matrix(0.9503534,1.1750652e-7,-5.6287062e-8,0.3462676,17.334826,362.44227)"
     gradientUnits="userSpaceOnUse"
     id="radialGradient4790"
     xlink:href="#linearGradient3157"
     inkscape:collect="always" /><radialGradient
     r="333.18735"
     fy="710.99164"
     fx="373.24265"
     cy="710.99164"
     cx="373.24265"
     gradientTransform="matrix(0.9503534,1.1750652e-7,-5.6287062e-8,0.3462676,17.334826,362.44227)"
     gradientUnits="userSpaceOnUse"
     id="radialGradient4779"
     xlink:href="#linearGradient3157"
     inkscape:collect="always" /><radialGradient
     r="333.18735"
     fy="467.91885"
     fx="373.24265"
     cy="467.91885"
     cx="373.24265"
     gradientTransform="matrix(0.9201975,2.7970099e-7,-2.7059634e-7,0.8902438,28.590287,48.634335)"
     gradientUnits="userSpaceOnUse"
     id="radialGradient4776"
     xlink:href="#linearGradient3171"
     inkscape:collect="always" /><linearGradient
     y2="254.73526"
     x2="123.47623"
     y1="344.03848"
     x1="123.50603"
     gradientTransform="matrix(2.3189708,0,0,2.0930998,93.115298,-256.84999)"
     gradientUnits="userSpaceOnUse"
     id="linearGradient4773"
     xlink:href="#linearGradient3187"
     inkscape:collect="always" /><linearGradient
     y2="254.73526"
     x2="123.47623"
     y1="344.03848"
     x1="123.50603"
     gradientTransform="matrix(2.3189708,0,0,2.0930998,93.115298,-256.84999)"
     gradientUnits="userSpaceOnUse"
     id="linearGradient4770"
     xlink:href="#linearGradient3187"
     inkscape:collect="always" /><radialGradient
     r="333.18735"
     fy="467.91885"
     fx="373.24265"
     cy="467.91885"
     cx="373.24265"
     gradientTransform="matrix(0.9201975,2.7970099e-7,-2.7059634e-7,0.8902438,28.590287,48.634335)"
     gradientUnits="userSpaceOnUse"
     id="radialGradient4768"
     xlink:href="#linearGradient3171"
     inkscape:collect="always" /><radialGradient
     r="333.18735"
     fy="710.99164"
     fx="373.24265"
     cy="710.99164"
     cx="373.24265"
     gradientTransform="matrix(0.9503534,1.1750652e-7,-5.6287062e-8,0.3462676,17.334826,362.44227)"
     gradientUnits="userSpaceOnUse"
     id="radialGradient4766"
     xlink:href="#linearGradient3157"
     inkscape:collect="always" /><filter
     color-interpolation-filters="sRGB"
     id="filter4659"
     inkscape:collect="always"><feGaussianBlur
       id="feGaussianBlur4661"
       stdDeviation="2.7750933"
       inkscape:collect="always" /></filter><radialGradient
     r="333.18735"
     fy="710.99164"
     fx="373.24265"
     cy="710.99164"
     cx="373.24265"
     gradientTransform="matrix(0.9503534,1.1750652e-7,-5.6287062e-8,0.3462676,17.334826,362.44227)"
     gradientUnits="userSpaceOnUse"
     id="radialGradient4572"
     xlink:href="#linearGradient3157"
     inkscape:collect="always" /><radialGradient
     r="333.18735"
     fy="467.91885"
     fx="373.24265"
     cy="467.91885"
     cx="373.24265"
     gradientTransform="matrix(0.9201975,2.7970099e-7,-2.7059634e-7,0.8902438,28.590287,48.634335)"
     gradientUnits="userSpaceOnUse"
     id="radialGradient4569"
     xlink:href="#linearGradient3171"
     inkscape:collect="always" /><linearGradient
     y2="254.73526"
     x2="123.47623"
     y1="344.03848"
     x1="123.50603"
     gradientTransform="matrix(2.3189708,0,0,2.0930998,93.115298,-256.84999)"
     gradientUnits="userSpaceOnUse"
     id="linearGradient4562"
     xlink:href="#linearGradient3187"
     inkscape:collect="always" /><linearGradient
     gradientUnits="userSpaceOnUse"
     y2="540.86719"
     x2="360.49777"
     y1="167.50403"
     x1="360.49777"
     id="linearGradient4401"
     xlink:href="#linearGradient4395"
     inkscape:collect="always" /><linearGradient
     gradientUnits="userSpaceOnUse"
     y2="655.4505"
     x2="396.91168"
     y1="298.59412"
     x1="371.42194"
     id="linearGradient4389"
     xlink:href="#linearGradient4383"
     inkscape:collect="always" /><inkscape:perspective
     id="perspective3214"
     inkscape:persp3d-origin="372.04724 : 350.78739 : 1"
     inkscape:vp_z="744.09448 : 526.18109 : 1"
     inkscape:vp_y="0 : 1000 : 0"
     inkscape:vp_x="0 : 526.18109 : 1"
     sodipodi:type="inkscape:persp3d" /><linearGradient
     id="linearGradient4383"><stop
       id="stop4385"
       offset="0"
       style="stop-color:#00037f;stop-opacity:1;" /><stop
       id="stop4387"
       offset="1"
       style="stop-color:#00037f;stop-opacity:0;" /></linearGradient><linearGradient
     id="linearGradient4395"><stop
       id="stop4397"
       offset="0"
       style="stop-color:#110084;stop-opacity:1;" /><stop
       id="stop4399"
       offset="1"
       style="stop-color:#a695ff;stop-opacity:1;" /></linearGradient><linearGradient
     id="linearGradient3187"><stop
       id="stop3189"
       offset="0"
       style="stop-color:#ffffff;stop-opacity:0.39622641;" /><stop
       id="stop3191"
       offset="1"
       style="stop-color:#9e9e9e;stop-opacity:1;" /></linearGradient><linearGradient
     id="linearGradient3171"><stop
       style="stop-color:#49bcff;stop-opacity:1;"
       offset="0"
       id="stop3173" /><stop
       style="stop-color:#494cdc;stop-opacity:1;"
       offset="1"
       id="stop3175" /></linearGradient><linearGradient
     id="linearGradient3157"><stop
       id="stop3159"
       offset="0"
       style="stop-color:#49bcff;stop-opacity:1;" /><stop
       id="stop3161"
       offset="1"
       style="stop-color:#494c96;stop-opacity:1;" /></linearGradient><linearGradient
     id="linearGradient5443"><stop
       style="stop-color:#ffffff;stop-opacity:0;"
       offset="0"
       id="stop5445" /><stop
       style="stop-color:#cbcac8;stop-opacity:1;"
       offset="1"
       id="stop5447" /></linearGradient><radialGradient
     inkscape:collect="always"
     xlink:href="#linearGradient5443"
     id="radialGradient3253"
     gradientUnits="userSpaceOnUse"
     gradientTransform="matrix(0.8612608,1.0093481e-7,-5.1010329e-8,0.29743416,-586.09339,395.79293)"
     cx="373.24265"
     cy="710.99164"
     fx="373.24265"
     fy="710.99164"
     r="333.18735" /><linearGradient
     inkscape:collect="always"
     xlink:href="#linearGradient3187"
     id="linearGradient3255"
     gradientUnits="userSpaceOnUse"
     gradientTransform="matrix(2.3189708,0,0,2.0930998,-543.56606,-225.82362)"
     x1="123.50603"
     y1="344.03848"
     x2="123.47623"
     y2="254.73526" /><radialGradient
     inkscape:collect="always"
     xlink:href="#linearGradient5443"
     id="radialGradient3257"
     gradientUnits="userSpaceOnUse"
     gradientTransform="matrix(0.83393192,2.4025531e-7,-2.452288e-7,0.76469446,-575.89311,126.3946)"
     cx="373.24265"
     cy="467.91885"
     fx="373.24265"
     fy="467.91885"
     r="333.18735" /><radialGradient
     inkscape:collect="always"
     xlink:href="#linearGradient5443"
     id="radialGradient3273"
     gradientUnits="userSpaceOnUse"
     gradientTransform="matrix(0.8612608,1.0093481e-7,-5.1010329e-8,0.29743416,-586.09339,395.79293)"
     cx="373.24265"
     cy="710.99164"
     fx="373.24265"
     fy="710.99164"
     r="333.18735" /><linearGradient
     inkscape:collect="always"
     xlink:href="#linearGradient3187"
     id="linearGradient3275"
     gradientUnits="userSpaceOnUse"
     gradientTransform="matrix(2.3189708,0,0,2.0930998,-543.56606,-225.82362)"
     x1="123.50603"
     y1="344.03848"
     x2="123.47623"
     y2="254.73526" /><radialGradient
     inkscape:collect="always"
     xlink:href="#linearGradient5443"
     id="radialGradient3277"
     gradientUnits="userSpaceOnUse"
     gradientTransform="matrix(0.83393192,2.4025531e-7,-2.452288e-7,0.76469446,-575.89311,126.3946)"
     cx="373.24265"
     cy="467.91885"
     fx="373.24265"
     fy="467.91885"
     r="333.18735" /></defs><sodipodi:namedview
   pagecolor="#ffffff"
   bordercolor="#666666"
   borderopacity="1"
   objecttolerance="10"
   gridtolerance="10"
   guidetolerance="10"
   inkscape:pageopacity="0"
   inkscape:pageshadow="2"
   inkscape:window-width="1920"
   inkscape:window-height="1031"
   id="namedview9"
   showgrid="false"
   fit-margin-top="0"
   fit-margin-left="0"
   fit-margin-right="0"
   fit-margin-bottom="0"
   inkscape:zoom="0.2979798"
   inkscape:cx="-110.28161"
   inkscape:cy="-72.58475"
   inkscape:window-x="-4"
   inkscape:window-y="-4"
   inkscape:window-maximized="1"
   inkscape:current-layer="_x31_" />

<g
   id="g4164"
   transform="translate(-4.0524846e-6,1.5294449e-7)"><g
     transform="translate(589.18636,-87.165827)"
     id="g4448"><rect
       transform="matrix(2.1051501,0,0,2.1051501,-860.18934,-1.2010596)"
       ry="12.45238"
       rx="16.067965"
       y="48.636749"
       x="135.39355"
       height="152.93848"
       width="152.93848"
       id="rect4192"
       style="fill:#cccccc;fill-opacity:1;stroke:none;filter:url(#filter4659)"
       inkscape:export-filename="C:\Documents and Settings\adscro24\Desktop\128.png"
       inkscape:export-xdpi="29.879425"
       inkscape:export-ydpi="29.879425" /><rect
       inkscape:export-ydpi="29.879425"
       inkscape:export-xdpi="29.879425"
       inkscape:export-filename="C:\Documents and Settings\adscro24\Desktop\128.png"
       style="fill:#cbcac8;fill-opacity:1;stroke:none;filter:url(#filter4659)"
       id="rect3279"
       width="152.93848"
       height="152.93848"
       x="135.39355"
       y="48.636749"
       rx="16.067965"
       ry="12.45238"
       transform="matrix(2.1051501,0,0,2.1051501,-860.18934,-1.2010596)" /><rect
       inkscape:export-ydpi="29.879425"
       inkscape:export-xdpi="29.879425"
       inkscape:export-filename="C:\Documents and Settings\adscro24\Desktop\128.png"
       style="opacity:0.61338286;fill:url(#radialGradient4456);fill-opacity:1;stroke:#000000;stroke-width:3.26806188;stroke-miterlimit:4;stroke-opacity:1;stroke-dasharray:none"
       id="rect3155"
       width="321.95847"
       height="321.95844"
       x="-575.16559"
       y="101.18661"
       rx="33.825478"
       ry="26.214128" /><path
       transform="matrix(0.907795,0,0,0.90779498,-173.95283,-177.39738)"
       inkscape:export-ydpi="29.879425"
       inkscape:export-xdpi="29.879425"
       inkscape:export-filename="C:\Documents and Settings\adscro24\Desktop\128.png"
       inkscape:connector-curvature="0"
       style="opacity:0.61338286;fill:url(#linearGradient4458);fill-opacity:1;stroke:none;filter:url(#filter5511)"
       d="m -397.80626,329.07489 c -19.62748,0 -35.44272,12.0976 -35.44272,27.14163 l 0,124.30857 c 29.25482,11.38638 132.70149,11.89599 165.40488,-5.79022 33.32802,-18.02397 127.54379,-68.44264 171.824837,-52.72052 l 0,-65.79783 c 0,-15.04403 -15.798597,-27.14163 -35.426097,-27.14163 l -266.3609,0 z m -35.44272,263.47103 0,42.88373 c 0,1.33144 0.14331,2.63588 0.38253,3.915 -0.11919,-12.81092 -0.25965,-28.88939 -0.38253,-46.79873 z"
       id="rect3177" /><rect
       inkscape:export-ydpi="29.879425"
       inkscape:export-xdpi="29.879425"
       inkscape:export-filename="C:\Documents and Settings\adscro24\Desktop\128.png"
       style="opacity:0.61338286;fill:url(#radialGradient4460);fill-opacity:1;stroke:#ffffff;stroke-width:0.68992418;stroke-linecap:square;stroke-miterlimit:4;stroke-opacity:1;stroke-dasharray:none"
       id="rect3473"
       width="306.12445"
       height="306.12445"
       x="-567.2486"
       y="109.1036"
       rx="32.161926"
       ry="24.924911" /><rect
       inkscape:export-ydpi="29.879425"
       inkscape:export-xdpi="29.879425"
       inkscape:export-filename="C:\Documents and Settings\adscro24\Desktop\128.png"
       style="opacity:0.61338286;fill:#ffffff;fill-opacity:0;stroke:#000000;stroke-width:3.26806188;stroke-miterlimit:4;stroke-opacity:1;stroke-dasharray:none"
       id="rect3155-2"
       width="321.95847"
       height="321.95844"
       x="-575.16559"
       y="101.18661"
       rx="33.825478"
       ry="26.214128" /></g><g
     transform="translate(358.29183,-87.165827)"
     id="LWPOLYLINE_2_">
	
		
</g><g
     transform="translate(358.29183,-87.165827)"
     id="LWPOLYLINE_3_">
	
		
</g><g
     transform="translate(358.29183,-87.165827)"
     id="LWPOLYLINE_4_">
	
		
</g><g
     transform="translate(184.65055,-351.95215)"
     style="fill:#000000;fill-opacity:1;stroke:none"
     id="LWPOLYLINE_6_-7">
	
		
</g><g
     transform="translate(184.65055,-351.95215)"
     style="fill:#000000;fill-opacity:1;stroke:none"
     id="LWPOLYLINE-4">
	
		
</g><g
     transform="translate(184.65055,-351.95215)"
     style="fill:#000000;fill-opacity:1;stroke:none"
     id="LWPOLYLINE_3_-0">
	
		
</g></g><g
   id="g3758"
   transform="matrix(0.625,0,0,0.625,-16.563134,-72.500004)"><g
     style="fill:#000000;fill-opacity:1;stroke:none"
     id="LWPOLYLINE">
	
		<path
   style="fill:#000000;fill-opacity:1;stroke:none"
   id="path4"
   d="m 400.113,596 c 0.086,0 0.302,0 0.302,0 h 0.388 0.518 0.646 0.776 0.862 0.991 1.078 1.207 1.251 1.336 1.38 1.466 1.466 1.553 1.595 1.596 1.595 1.639 1.596 1.638 1.596 1.552 1.553 1.509 1.423 1.423 1.293 1.294 1.164 1.078 0.991 0.862 0.776 0.646 0.518 0.388 0.259 c 0.043,-0.215 0.043,-0.389 0.043,-0.389 0,-0.172 0,-0.43 0,-0.43 v -0.26 -0.301 -0.346 -0.346 -0.387 -0.432 -0.432 -0.43 -0.432 -0.475 -0.518 -0.475 -0.475 -0.516 -0.475 -0.518 -0.475 -0.475 -0.475 -0.475 -0.43 -0.432 -0.432 -0.344 -0.389 -0.336 -0.301 -0.26 -0.215 c 0,-0.215 0,-0.389 0,-0.389 -0.172,-0.172 -0.345,-0.172 -0.345,-0.172 h -0.302 -0.345 -0.432 -0.474 -0.562 -0.604 -0.647 -0.689 -0.733 -0.775 -0.776 -0.862 -0.819 -0.862 -0.905 -0.862 -0.905 -0.905 -0.862 -0.905 -0.862 -0.862 -0.819 -0.776 -0.776 -0.732 -0.69 -0.646 -0.604 -0.561 -0.475 -0.431 -0.345 -0.302 c -0.216,0 -0.346,0 -0.346,0 -0.043,0 -0.043,-0.389 -0.043,-0.389 v -1.033 -1.682 -2.285 -2.846 -3.406 -3.924 -4.398 -4.785 -5.217 -5.562 -5.863 -6.209 -6.424 -6.639 -6.812 -6.941 -7.072 -7.156 -7.199 -7.158 -7.156 -7.072 -6.941 -6.812 -6.639 -6.467 -6.166 -5.863 -5.562 -5.217 -4.785 -4.398 -3.924 -3.406 -2.846 -2.307 -1.68 -1.035 -0.346 c 0.173,0 0.389,0 0.389,0 h 0.302 0.345 0.431 0.475 0.561 0.604 0.646 0.69 0.732 0.776 0.776 0.819 0.862 0.862 0.905 0.862 0.905 0.905 0.862 0.905 0.862 0.819 0.862 0.776 0.775 0.733 0.689 0.647 0.604 0.561 0.474 0.432 0.345 0.302 c 0.173,0 0.302,0 0.302,0 0.043,-0.215 0.043,-0.367 0.043,-0.367 0,-0.215 0,-0.451 0,-0.451 v -0.26 -0.301 -0.346 -0.344 -0.389 -0.41 -0.432 -0.43 -0.475 -0.475 -0.475 -0.496 -0.475 -0.494 -0.518 -0.475 -0.496 -0.475 -0.475 -0.473 -0.432 -0.432 -0.41 -0.387 -0.346 -0.346 -0.301 -0.26 -0.236 c 0,-0.193 0,-0.367 0,-0.367 -0.043,-0.215 -0.302,-0.215 -0.302,-0.215 h -0.388 -0.518 -0.646 -0.776 -0.862 -0.991 -1.078 -1.164 -1.294 -1.293 -1.423 -1.423 -1.509 -1.553 -1.552 -1.596 -1.638 -1.596 -1.639 -1.595 -1.596 -1.595 -1.553 -1.466 -1.466 -1.38 -1.336 -1.251 -1.207 -1.078 -0.991 -0.862 -0.776 -0.646 -0.518 -0.388 -0.216 C 400.113,377.881 400.113,596 400.113,596 z"
   stroke-miterlimit="10"
   inkscape:connector-curvature="0" />
</g><g
     style="fill:#000000;fill-opacity:1;stroke:none"
     id="LWPOLYLINE_1_">
	
		<path
   style="fill:#000000;fill-opacity:1;stroke:none"
   id="path7"
   d="m 169.642,265.738 1.487,0.15 1.423,0.195 1.337,0.215 1.25,0.238 1.207,0.258 1.143,0.303 1.057,0.344 1.013,0.346 0.949,0.387 0.884,0.41 0.819,0.432 0.775,0.453 0.733,0.475 0.668,0.494 0.604,0.518 0.582,0.518 0.518,0.561 0.496,0.582 0.431,0.582 0.41,0.604 0.345,0.625 0.323,0.625 0.302,0.648 0.259,0.668 0.237,0.668 0.194,0.689 0.172,0.689 0.151,0.689 0.129,0.713 0.108,0.711 0.086,0.711 0.064,0.732 0.043,0.713 0.043,0.732 0.021,0.732 0.021,0.732 0.022,0.756 v 0.732 0.732 0.713 c 0,0.15 0,0.236 0,0.236 0,0.193 0,0.324 0,0.324 0,0.129 0,0.279 0,0.279 0,0.15 0,0.324 0,0.324 0,0.15 0,0.344 0,0.344 0,0.172 0,0.367 0,0.367 0,0.193 0,0.389 0,0.389 0,0.193 0,0.387 0,0.387 0,0.195 0,0.41 0,0.41 0,0.193 0,0.389 0,0.389 0,0.172 0,0.365 0,0.365 0,0.174 0,0.346 0,0.346 0,0.172 0,0.322 0,0.322 0,0.131 0,0.281 0,0.281 0,0.107 0,0.215 0,0.215 0,0.174 0,0.238 0,0.238 0,0.086 0,1.4 0,1.4 l 0.021,1.314 0.021,1.295 0.043,1.293 0.043,1.271 0.086,1.25 0.087,1.229 0.129,1.23 0.13,1.207 0.172,1.186 0.216,1.164 0.237,1.143 0.259,1.121 0.302,1.1 0.345,1.076 0.409,1.057 0.432,1.014 0.474,1.014 0.539,0.969 0.582,0.928 0.647,0.928 0.689,0.883 0.755,0.842 0.818,0.818 0.884,0.775 0.949,0.756 1.034,0.711 1.078,0.668 1.164,0.646 1.251,0.604 1.314,0.561 1.401,0.518 1.487,0.475 1.553,0.432 1.659,0.387 1.746,0.346 1.854,0.303 1.94,0.258 2.026,0.193 2.134,0.174 c 0,-0.131 0,-0.238 0,-0.238 0,-0.107 0,-0.258 0,-0.258 0,-0.15 0,-0.346 0,-0.346 0,-0.193 0,-0.41 0,-0.41 v -0.236 -0.236 -0.26 -0.258 -0.281 -0.279 -0.303 -0.279 -0.303 -0.301 -0.281 -0.301 -0.303 -0.279 -0.281 -0.279 -0.281 -0.236 -0.26 -0.215 c 0,-0.215 0,-0.432 0,-0.432 0,-0.172 0,-0.344 0,-0.344 0,-0.131 0,-0.26 0,-0.26 0,-0.193 0,-0.215 0,-0.215 l -1.358,-0.15 -1.293,-0.195 -1.207,-0.236 -1.164,-0.26 -1.1,-0.301 -1.035,-0.324 -0.97,-0.365 -0.927,-0.389 -0.862,-0.432 -0.798,-0.453 -0.776,-0.473 -0.689,-0.518 -0.669,-0.539 -0.604,-0.539 -0.561,-0.582 -0.539,-0.604 -0.474,-0.625 -0.432,-0.625 -0.409,-0.67 -0.366,-0.668 -0.324,-0.689 -0.302,-0.689 -0.258,-0.711 -0.237,-0.734 -0.216,-0.732 -0.173,-0.732 -0.172,-0.754 -0.13,-0.756 -0.107,-0.754 -0.107,-0.775 -0.087,-0.756 -0.043,-0.775 -0.064,-0.754 -0.021,-0.777 -0.043,-0.754 v -0.775 l -0.021,-0.756 v -0.754 -0.732 -0.734 c 0,-0.15 0,-0.236 0,-0.236 0,-0.193 0,-0.303 0,-0.303 0,-0.15 0,-0.279 0,-0.279 0,-0.15 0,-0.324 0,-0.324 0,-0.172 0,-0.344 0,-0.344 0,-0.195 0,-0.367 0,-0.367 0,-0.193 0,-0.41 0,-0.41 0,-0.193 0,-0.387 0,-0.387 0,-0.195 0,-0.389 0,-0.389 0,-0.193 0,-0.389 0,-0.389 0,-0.193 0,-0.387 0,-0.387 0,-0.174 0,-0.346 0,-0.346 0,-0.15 0,-0.301 0,-0.301 0,-0.152 0,-0.281 0,-0.281 0,-0.129 0,-0.236 0,-0.236 0,-0.174 0,-0.238 0,-0.238 0,-0.086 0,-0.947 0,-0.947 v -0.885 l -0.022,-0.883 v -0.906 l -0.021,-0.906 -0.021,-0.904 -0.043,-0.906 -0.064,-0.926 -0.064,-0.928 -0.087,-0.904 -0.107,-0.928 -0.129,-0.906 -0.151,-0.904 -0.173,-0.906 -0.193,-0.904 -0.237,-0.885 -0.259,-0.883 -0.28,-0.863 -0.323,-0.84 -0.366,-0.842 -0.41,-0.818 -0.431,-0.799 -0.475,-0.797 -0.539,-0.754 -0.561,-0.734 -0.625,-0.711 -0.668,-0.689 -0.712,-0.668 -0.775,-0.625 -0.841,-0.604 -0.884,-0.582 -0.949,-0.539 -0.991,-0.496 -1.078,-0.475 -1.121,-0.432 -1.207,-0.387 -1.271,-0.346 -1.337,-0.324 -1.401,-0.258 -1.487,-0.215 1.487,-0.238 1.401,-0.258 1.337,-0.303 1.271,-0.365 1.207,-0.389 1.121,-0.432 1.078,-0.475 0.991,-0.496 0.949,-0.537 0.884,-0.584 0.841,-0.604 0.775,-0.625 0.712,-0.668 0.668,-0.689 0.625,-0.711 0.561,-0.734 0.539,-0.754 0.475,-0.775 0.431,-0.82 0.41,-0.818 0.366,-0.818 0.323,-0.863 0.28,-0.861 0.259,-0.885 0.237,-0.885 0.193,-0.883 0.173,-0.906 0.151,-0.904 0.129,-0.928 0.107,-0.926 0.087,-0.906 0.064,-0.928 0.064,-0.904 0.043,-0.928 0.021,-0.904 0.021,-0.906 v -0.904 l 0.022,-0.885 v -0.885 -0.861 c 0,-0.215 0,-0.281 0,-0.281 0,-0.172 0,-0.279 0,-0.279 0,-0.215 0,-0.324 0,-0.324 0,-0.107 0,-0.236 0,-0.236 0,-0.129 0,-0.258 0,-0.258 0,-0.131 0,-0.26 0,-0.26 0,-0.129 0,-0.258 0,-0.258 0,-0.131 0,-0.26 0,-0.26 0,-0.129 0,-0.258 0,-0.258 0,-0.129 0,-0.238 0,-0.238 0,-0.107 0,-0.236 0,-0.236 0,-0.193 0,-0.281 0,-0.281 0,-0.215 0,-0.258 0,-0.258 0,-0.107 0,-0.906 0,-0.906 v -0.797 -0.818 l 0.021,-0.82 v -0.84 l 0.043,-0.82 0.021,-0.84 0.064,-0.82 0.043,-0.818 0.087,-0.84 0.107,-0.82 0.107,-0.818 0.13,-0.799 0.172,-0.797 0.173,-0.797 0.216,-0.777 0.237,-0.775 0.258,-0.754 0.302,-0.734 0.324,-0.711 0.366,-0.711 0.409,-0.689 0.432,-0.648 0.474,-0.646 0.539,-0.625 0.561,-0.582 0.604,-0.561 0.669,-0.539 0.689,-0.496 0.776,-0.473 0.798,-0.453 0.862,-0.41 0.927,-0.367 0.97,-0.344 1.035,-0.303 1.1,-0.258 1.164,-0.215 1.207,-0.174 1.293,-0.15 1.358,-0.086 c 0,-0.129 0,-0.217 0,-0.217 0,-0.129 0,-0.258 0,-0.258 0,-0.172 0,-0.346 0,-0.346 0,-0.193 0,-0.408 0,-0.408 v -0.238 -0.236 -0.26 -0.279 -0.26 -0.301 -0.281 -0.301 -0.281 -0.301 -0.303 -0.301 -0.281 -0.301 -0.29 -0.279 -0.26 -0.258 -0.236 -0.238 c 0,-0.215 0,-0.41 0,-0.41 0,-0.193 0,-0.344 0,-0.344 0,-0.15 0,-0.26 0,-0.26 0,-0.215 0,-0.215 0,-0.215 l -2.264,0.15 -2.155,0.217 -2.026,0.279 -1.94,0.324 -1.811,0.387 -1.725,0.432 -1.639,0.496 -1.53,0.539 -1.423,0.561 -1.358,0.625 -1.25,0.668 -1.187,0.711 -1.099,0.756 -1.014,0.775 -0.948,0.842 -0.862,0.84 -0.798,0.906 -0.733,0.904 -0.668,0.971 -0.625,0.971 -0.539,1.012 -0.496,1.014 -0.452,1.057 -0.389,1.078 -0.345,1.1 -0.302,1.121 -0.28,1.121 -0.216,1.143 -0.193,1.164 -0.151,1.164 -0.129,1.186 -0.108,1.186 -0.086,1.207 -0.064,1.186 -0.043,1.207 -0.021,1.207 -0.021,1.207 -0.021,1.207 v 1.207 1.186 c 0,0.195 0,0.26 0,0.26 0,0.193 0,0.301 0,0.301 0,0.131 0,0.26 0,0.26 0,0.129 0,0.279 0,0.279 0,0.152 0,0.303 0,0.303 0,0.15 0,0.301 0,0.301 0,0.174 0,0.346 0,0.346 0,0.15 0,0.324 0,0.324 0,0.172 0,0.322 0,0.322 0,0.172 0,0.324 0,0.324 0,0.15 0,0.301 0,0.301 0,0.15 0,0.281 0,0.281 0,0.129 0,0.236 0,0.236 0,0.215 0,0.303 0,0.303 0,0.193 0,0.236 0,0.236 0,0.043 0,0.561 0,0.561 v 0.539 0.518 0.518 0.518 l -0.022,0.494 v 0.518 l -0.021,0.496 -0.021,0.496 -0.021,0.496 -0.043,0.496 -0.021,0.475 -0.064,0.496 -0.043,0.473 -0.065,0.475 -0.064,0.475 -0.086,0.453 -0.086,0.475 -0.087,0.451 -0.129,0.432 -0.108,0.453 -0.129,0.432 -0.15,0.451 -0.173,0.41 -0.173,0.432 -0.172,0.432 -0.216,0.408 -0.216,0.41 -0.237,0.389 -0.259,0.408 -0.258,0.389 -0.302,0.389 -0.302,0.365 -0.324,0.367 -0.345,0.367 -0.366,0.365 -0.388,0.367 -0.41,0.346 -0.409,0.322 -0.453,0.346 -0.409,0.258 -0.41,0.26 -0.388,0.236 -0.409,0.215 -0.41,0.238 -0.409,0.215 -0.41,0.195 -0.409,0.193 -0.41,0.193 -0.409,0.174 -0.409,0.172 -0.41,0.15 -0.409,0.172 -0.41,0.131 -0.388,0.15 -0.409,0.129 -0.389,0.129 -0.388,0.109 -0.389,0.107 -0.388,0.107 -0.388,0.086 -0.367,0.086 -0.366,0.086 -0.366,0.086 -0.345,0.066 -0.345,0.064 -0.346,0.064 -0.345,0.043 -0.302,0.064 -0.323,0.043 -0.302,0.043 -0.302,0.021 -0.28,0.043 -0.28,0.021 -0.259,0.021 h -0.259 l -0.237,0.021 h -0.237 c -0.215,0.021 -0.431,0.021 -0.431,0.021 v 7.932 z"
   stroke-miterlimit="10"
   inkscape:connector-curvature="0" />
</g></g>
</svg>