<?xml version="1.0" encoding="UTF-8" standalone="no"?>
<!-- Generator: Adobe Illustrator 16.0.1, SVG Export Plug-In . SVG Version: 6.00 Build 0)  -->

<svg
   xmlns:dc="http://purl.org/dc/elements/1.1/"
   xmlns:cc="http://creativecommons.org/ns#"
   xmlns:rdf="http://www.w3.org/1999/02/22-rdf-syntax-ns#"
   xmlns:svg="http://www.w3.org/2000/svg"
   xmlns="http://www.w3.org/2000/svg"
   xmlns:xlink="http://www.w3.org/1999/xlink"
   xmlns:sodipodi="http://sodipodi.sourceforge.net/DTD/sodipodi-0.dtd"
   xmlns:inkscape="http://www.inkscape.org/namespaces/inkscape"
   version="1.0"
   id="_x31_"
   x="0px"
   y="0px"
   width="350"
   height="350"
   viewBox="0 0 350 350"
   enable-background="new 0 0 612 792"
   xml:space="preserve"
   inkscape:version="0.48.3.1 r9886"
   sodipodi:docname="6053.svg"><metadata
   id="metadata19"><rdf:RDF><cc:Work
       rdf:about=""><dc:format>image/svg+xml</dc:format><dc:type
         rdf:resource="http://purl.org/dc/dcmitype/StillImage" /></cc:Work></rdf:RDF></metadata><defs
   id="defs17"><radialGradient
     r="333.18735"
     fy="467.91885"
     fx="373.24265"
     cy="467.91885"
     cx="373.24265"
     gradientTransform="matrix(0.83535069,2.5391116e-7,-2.4564601e-7,0.80815885,-725.97492,-115.98714)"
     gradientUnits="userSpaceOnUse"
     id="radialGradient4460"
     xlink:href="#linearGradient5443"
     inkscape:collect="always" /><linearGradient
     y2="254.73526"
     x2="123.47623"
     y1="344.03848"
     x1="123.50603"
     gradientTransform="matrix(2.3189708,0,0,2.0930998,-543.56606,-225.82362)"
     gradientUnits="userSpaceOnUse"
     id="linearGradient4458"
     xlink:href="#linearGradient3187"
     inkscape:collect="always" /><radialGradient
     r="333.18735"
     fy="710.99164"
     fx="373.24265"
     cy="710.99164"
     cx="373.24265"
     gradientTransform="matrix(0.86272606,1.0667183e-7,-5.1097113e-8,0.31433999,-736.19251,168.72353)"
     gradientUnits="userSpaceOnUse"
     id="radialGradient4456"
     xlink:href="#linearGradient5443"
     inkscape:collect="always" /><radialGradient
     r="333.18735"
     fy="467.91885"
     fx="373.24265"
     cy="467.91885"
     cx="373.24265"
     gradientTransform="matrix(0.83393192,2.4025531e-7,-2.452288e-7,0.76469446,-575.89311,126.3946)"
     gradientUnits="userSpaceOnUse"
     id="radialGradient2894-5"
     xlink:href="#linearGradient5443-0"
     inkscape:collect="always" /><linearGradient
     y2="254.73526"
     x2="123.47623"
     y1="344.03848"
     x1="123.50603"
     gradientTransform="matrix(2.3189708,0,0,2.0930998,-543.56606,-225.82362)"
     gradientUnits="userSpaceOnUse"
     id="linearGradient2892-2"
     xlink:href="#linearGradient3187-1"
     inkscape:collect="always" /><radialGradient
     r="333.18735"
     fy="710.99164"
     fx="373.24265"
     cy="710.99164"
     cx="373.24265"
     gradientTransform="matrix(0.8612608,1.0093481e-7,-5.1010329e-8,0.29743416,-586.09339,395.79293)"
     gradientUnits="userSpaceOnUse"
     id="radialGradient2890-7"
     xlink:href="#linearGradient5443-0"
     inkscape:collect="always" /><linearGradient
     id="linearGradient5443-5-6"><stop
       style="stop-color:#ffffff;stop-opacity:0;"
       offset="0"
       id="stop5445-4-1" /><stop
       style="stop-color:#000000;stop-opacity:0.33962265;"
       offset="1"
       id="stop5447-3-4" /></linearGradient><radialGradient
     r="333.18735"
     fy="710.99164"
     fx="373.24265"
     cy="710.99164"
     cx="373.24265"
     gradientTransform="matrix(0.9503534,1.1750652e-7,-5.6287062e-8,0.3462676,317.80591,185.68771)"
     gradientUnits="userSpaceOnUse"
     id="radialGradient4835-3-2"
     xlink:href="#linearGradient5443-5-6"
     inkscape:collect="always" /><radialGradient
     r="333.18735"
     fy="710.99164"
     fx="373.24265"
     cy="710.99164"
     cx="373.24265"
     gradientTransform="matrix(0.8612608,1.0093481e-7,-5.1010329e-8,0.29743416,-586.09339,395.79293)"
     gradientUnits="userSpaceOnUse"
     id="radialGradient4835-2"
     xlink:href="#linearGradient5443-0"
     inkscape:collect="always" /><radialGradient
     r="333.18735"
     fy="467.91885"
     fx="373.24265"
     cy="467.91885"
     cx="373.24265"
     gradientTransform="matrix(0.83393192,2.4025531e-7,-2.452288e-7,0.76469446,-575.89311,126.3946)"
     gradientUnits="userSpaceOnUse"
     id="radialGradient4832-1"
     xlink:href="#linearGradient5443-0"
     inkscape:collect="always" /><linearGradient
     y2="254.73526"
     x2="123.47623"
     y1="344.03848"
     x1="123.50603"
     gradientTransform="matrix(2.3189708,0,0,2.0930998,-543.56606,-225.82362)"
     gradientUnits="userSpaceOnUse"
     id="linearGradient4827-6"
     xlink:href="#linearGradient3187-1"
     inkscape:collect="always" /><linearGradient
     y2="254.73526"
     x2="123.47623"
     y1="344.03848"
     x1="123.50603"
     gradientTransform="matrix(2.3189708,0,0,2.0930998,93.115298,-256.84999)"
     gradientUnits="userSpaceOnUse"
     id="linearGradient4824-8"
     xlink:href="#linearGradient3187-1"
     inkscape:collect="always" /><radialGradient
     r="333.18735"
     fy="467.91885"
     fx="373.24265"
     cy="467.91885"
     cx="373.24265"
     gradientTransform="matrix(0.9201975,2.7970099e-7,-2.7059634e-7,0.8902438,28.590287,48.634335)"
     gradientUnits="userSpaceOnUse"
     id="radialGradient4822-5"
     xlink:href="#linearGradient3171-6"
     inkscape:collect="always" /><radialGradient
     r="333.18735"
     fy="710.99164"
     fx="373.24265"
     cy="710.99164"
     cx="373.24265"
     gradientTransform="matrix(0.9503534,1.1750652e-7,-5.6287062e-8,0.3462676,17.334826,362.44227)"
     gradientUnits="userSpaceOnUse"
     id="radialGradient4820-7"
     xlink:href="#linearGradient3157-2"
     inkscape:collect="always" /><radialGradient
     r="333.18735"
     fy="710.99164"
     fx="373.24265"
     cy="710.99164"
     cx="373.24265"
     gradientTransform="matrix(0.9503534,1.1750652e-7,-5.6287062e-8,0.3462676,17.334826,362.44227)"
     gradientUnits="userSpaceOnUse"
     id="radialGradient4805-6"
     xlink:href="#linearGradient3157-2"
     inkscape:collect="always" /><radialGradient
     r="333.18735"
     fy="467.91885"
     fx="373.24265"
     cy="467.91885"
     cx="373.24265"
     gradientTransform="matrix(0.9201975,2.7970099e-7,-2.7059634e-7,0.8902438,28.590287,48.634335)"
     gradientUnits="userSpaceOnUse"
     id="radialGradient4802-1"
     xlink:href="#linearGradient3171-6"
     inkscape:collect="always" /><linearGradient
     y2="254.73526"
     x2="123.47623"
     y1="344.03848"
     x1="123.50603"
     gradientTransform="matrix(2.3189708,0,0,2.0930998,93.115298,-256.84999)"
     gradientUnits="userSpaceOnUse"
     id="linearGradient4799-8"
     xlink:href="#linearGradient3187-1"
     inkscape:collect="always" /><linearGradient
     y2="254.73526"
     x2="123.47623"
     y1="344.03848"
     x1="123.50603"
     gradientTransform="matrix(2.3189708,0,0,2.0930998,93.115298,-256.84999)"
     gradientUnits="userSpaceOnUse"
     id="linearGradient4794-9"
     xlink:href="#linearGradient3187-1"
     inkscape:collect="always" /><radialGradient
     r="333.18735"
     fy="467.91885"
     fx="373.24265"
     cy="467.91885"
     cx="373.24265"
     gradientTransform="matrix(0.9201975,2.7970099e-7,-2.7059634e-7,0.8902438,28.590287,48.634335)"
     gradientUnits="userSpaceOnUse"
     id="radialGradient4792-2"
     xlink:href="#linearGradient3171-6"
     inkscape:collect="always" /><radialGradient
     r="333.18735"
     fy="710.99164"
     fx="373.24265"
     cy="710.99164"
     cx="373.24265"
     gradientTransform="matrix(0.9503534,1.1750652e-7,-5.6287062e-8,0.3462676,17.334826,362.44227)"
     gradientUnits="userSpaceOnUse"
     id="radialGradient4790-7"
     xlink:href="#linearGradient3157-2"
     inkscape:collect="always" /><radialGradient
     r="333.18735"
     fy="710.99164"
     fx="373.24265"
     cy="710.99164"
     cx="373.24265"
     gradientTransform="matrix(0.9503534,1.1750652e-7,-5.6287062e-8,0.3462676,17.334826,362.44227)"
     gradientUnits="userSpaceOnUse"
     id="radialGradient4779-9"
     xlink:href="#linearGradient3157-2"
     inkscape:collect="always" /><radialGradient
     r="333.18735"
     fy="467.91885"
     fx="373.24265"
     cy="467.91885"
     cx="373.24265"
     gradientTransform="matrix(0.9201975,2.7970099e-7,-2.7059634e-7,0.8902438,28.590287,48.634335)"
     gradientUnits="userSpaceOnUse"
     id="radialGradient4776-5"
     xlink:href="#linearGradient3171-6"
     inkscape:collect="always" /><linearGradient
     y2="254.73526"
     x2="123.47623"
     y1="344.03848"
     x1="123.50603"
     gradientTransform="matrix(2.3189708,0,0,2.0930998,93.115298,-256.84999)"
     gradientUnits="userSpaceOnUse"
     id="linearGradient4773-4"
     xlink:href="#linearGradient3187-1"
     inkscape:collect="always" /><linearGradient
     y2="254.73526"
     x2="123.47623"
     y1="344.03848"
     x1="123.50603"
     gradientTransform="matrix(2.3189708,0,0,2.0930998,93.115298,-256.84999)"
     gradientUnits="userSpaceOnUse"
     id="linearGradient4770-3"
     xlink:href="#linearGradient3187-1"
     inkscape:collect="always" /><radialGradient
     r="333.18735"
     fy="467.91885"
     fx="373.24265"
     cy="467.91885"
     cx="373.24265"
     gradientTransform="matrix(0.9201975,2.7970099e-7,-2.7059634e-7,0.8902438,28.590287,48.634335)"
     gradientUnits="userSpaceOnUse"
     id="radialGradient4768-1"
     xlink:href="#linearGradient3171-6"
     inkscape:collect="always" /><radialGradient
     r="333.18735"
     fy="710.99164"
     fx="373.24265"
     cy="710.99164"
     cx="373.24265"
     gradientTransform="matrix(0.9503534,1.1750652e-7,-5.6287062e-8,0.3462676,17.334826,362.44227)"
     gradientUnits="userSpaceOnUse"
     id="radialGradient4766-2"
     xlink:href="#linearGradient3157-2"
     inkscape:collect="always" /><radialGradient
     r="333.18735"
     fy="710.99164"
     fx="373.24265"
     cy="710.99164"
     cx="373.24265"
     gradientTransform="matrix(0.9503534,1.1750652e-7,-5.6287062e-8,0.3462676,17.334826,362.44227)"
     gradientUnits="userSpaceOnUse"
     id="radialGradient4572-4"
     xlink:href="#linearGradient3157-2"
     inkscape:collect="always" /><radialGradient
     r="333.18735"
     fy="467.91885"
     fx="373.24265"
     cy="467.91885"
     cx="373.24265"
     gradientTransform="matrix(0.9201975,2.7970099e-7,-2.7059634e-7,0.8902438,28.590287,48.634335)"
     gradientUnits="userSpaceOnUse"
     id="radialGradient4569-1"
     xlink:href="#linearGradient3171-6"
     inkscape:collect="always" /><linearGradient
     y2="254.73526"
     x2="123.47623"
     y1="344.03848"
     x1="123.50603"
     gradientTransform="matrix(2.3189708,0,0,2.0930998,93.115298,-256.84999)"
     gradientUnits="userSpaceOnUse"
     id="linearGradient4562-1"
     xlink:href="#linearGradient3187-1"
     inkscape:collect="always" /><linearGradient
     gradientUnits="userSpaceOnUse"
     y2="540.86719"
     x2="360.49777"
     y1="167.50403"
     x1="360.49777"
     id="linearGradient4401-3"
     xlink:href="#linearGradient4395-7"
     inkscape:collect="always" /><linearGradient
     gradientUnits="userSpaceOnUse"
     y2="655.4505"
     x2="396.91168"
     y1="298.59412"
     x1="371.42194"
     id="linearGradient4389-8"
     xlink:href="#linearGradient4383-4"
     inkscape:collect="always" /><inkscape:perspective
     id="perspective3214-7"
     inkscape:persp3d-origin="372.04724 : 350.78739 : 1"
     inkscape:vp_z="744.09448 : 526.18109 : 1"
     inkscape:vp_y="0 : 1000 : 0"
     inkscape:vp_x="0 : 526.18109 : 1"
     sodipodi:type="inkscape:persp3d" /><linearGradient
     id="linearGradient4383-4"><stop
       id="stop4385-2"
       offset="0"
       style="stop-color:#00037f;stop-opacity:1;" /><stop
       id="stop4387-7"
       offset="1"
       style="stop-color:#00037f;stop-opacity:0;" /></linearGradient><linearGradient
     id="linearGradient4395-7"><stop
       id="stop4397-9"
       offset="0"
       style="stop-color:#110084;stop-opacity:1;" /><stop
       id="stop4399-3"
       offset="1"
       style="stop-color:#a695ff;stop-opacity:1;" /></linearGradient><linearGradient
     id="linearGradient3187-1"><stop
       id="stop3189-9"
       offset="0"
       style="stop-color:#ffffff;stop-opacity:0.39622641;" /><stop
       id="stop3191-8"
       offset="1"
       style="stop-color:#000000;stop-opacity:1;" /></linearGradient><linearGradient
     id="linearGradient3171-6"><stop
       style="stop-color:#49bcff;stop-opacity:1;"
       offset="0"
       id="stop3173-5" /><stop
       style="stop-color:#494cdc;stop-opacity:1;"
       offset="1"
       id="stop3175-0" /></linearGradient><linearGradient
     id="linearGradient3157-2"><stop
       id="stop3159-8"
       offset="0"
       style="stop-color:#49bcff;stop-opacity:1;" /><stop
       id="stop3161-6"
       offset="1"
       style="stop-color:#494c96;stop-opacity:1;" /></linearGradient><linearGradient
     id="linearGradient5443-0"><stop
       style="stop-color:#ffffff;stop-opacity:0;"
       offset="0"
       id="stop5445-2" /><stop
       style="stop-color:#000000;stop-opacity:0.33962265;"
       offset="1"
       id="stop5447-4" /></linearGradient><radialGradient
     inkscape:collect="always"
     xlink:href="#linearGradient5443-0"
     id="radialGradient3234"
     gradientUnits="userSpaceOnUse"
     gradientTransform="matrix(0.8612608,1.0093481e-7,-5.1010329e-8,0.29743416,-586.09339,395.79293)"
     cx="373.24265"
     cy="710.99164"
     fx="373.24265"
     fy="710.99164"
     r="333.18735" /><linearGradient
     inkscape:collect="always"
     xlink:href="#linearGradient3187-1"
     id="linearGradient3236"
     gradientUnits="userSpaceOnUse"
     gradientTransform="matrix(2.3189708,0,0,2.0930998,-543.56606,-225.82362)"
     x1="123.50603"
     y1="344.03848"
     x2="123.47623"
     y2="254.73526" /><radialGradient
     inkscape:collect="always"
     xlink:href="#linearGradient5443-0"
     id="radialGradient3238"
     gradientUnits="userSpaceOnUse"
     gradientTransform="matrix(0.83393192,2.4025531e-7,-2.452288e-7,0.76469446,-575.89311,126.3946)"
     cx="373.24265"
     cy="467.91885"
     fx="373.24265"
     fy="467.91885"
     r="333.18735" /><radialGradient
     inkscape:collect="always"
     xlink:href="#linearGradient5443-0"
     id="radialGradient3254"
     gradientUnits="userSpaceOnUse"
     gradientTransform="matrix(0.8612608,1.0093481e-7,-5.1010329e-8,0.29743416,-586.09339,395.79293)"
     cx="373.24265"
     cy="710.99164"
     fx="373.24265"
     fy="710.99164"
     r="333.18735" /><linearGradient
     inkscape:collect="always"
     xlink:href="#linearGradient3187-1"
     id="linearGradient3256"
     gradientUnits="userSpaceOnUse"
     gradientTransform="matrix(2.3189708,0,0,2.0930998,-543.56606,-225.82362)"
     x1="123.50603"
     y1="344.03848"
     x2="123.47623"
     y2="254.73526" /><radialGradient
     inkscape:collect="always"
     xlink:href="#linearGradient5443-0"
     id="radialGradient3258"
     gradientUnits="userSpaceOnUse"
     gradientTransform="matrix(0.83393192,2.4025531e-7,-2.452288e-7,0.76469446,-575.89311,126.3946)"
     cx="373.24265"
     cy="467.91885"
     fx="373.24265"
     fy="467.91885"
     r="333.18735" /><radialGradient
     inkscape:collect="always"
     xlink:href="#linearGradient5443-0"
     id="radialGradient3270"
     gradientUnits="userSpaceOnUse"
     gradientTransform="matrix(0.83535069,2.5391116e-7,-2.4564601e-7,0.80815885,-821.89024,-331.16994)"
     cx="373.24265"
     cy="467.91885"
     fx="373.24265"
     fy="467.91885"
     r="333.18735" /><radialGradient
     inkscape:collect="always"
     xlink:href="#linearGradient5443-0"
     id="radialGradient3274"
     gradientUnits="userSpaceOnUse"
     gradientTransform="matrix(0.86272606,1.0667183e-7,-5.1097113e-8,0.31433999,-832.10787,-46.459305)"
     cx="373.24265"
     cy="710.99164"
     fx="373.24265"
     fy="710.99164"
     r="333.18735" /><linearGradient
     y2="254.73526"
     x2="123.47623"
     y1="344.03848"
     x1="123.50603"
     gradientTransform="matrix(2.3189708,0,0,2.0930998,-543.56606,-225.82362)"
     gradientUnits="userSpaceOnUse"
     id="linearGradient3422"
     xlink:href="#linearGradient3187"
     inkscape:collect="always" /><radialGradient
     r="333.18735"
     fy="710.99164"
     fx="373.24265"
     cy="710.99164"
     cx="373.24265"
     gradientTransform="matrix(0.86272606,1.0667183e-7,-5.1097113e-8,0.31433999,-736.19251,168.72353)"
     gradientUnits="userSpaceOnUse"
     id="radialGradient3416"
     xlink:href="#linearGradient5443"
     inkscape:collect="always" /><radialGradient
     r="333.18735"
     fy="467.91885"
     fx="373.24265"
     cy="467.91885"
     cx="373.24265"
     gradientTransform="matrix(0.83535069,2.5391116e-7,-2.4564601e-7,0.80815885,-725.97492,-115.98714)"
     gradientUnits="userSpaceOnUse"
     id="radialGradient3412"
     xlink:href="#linearGradient5443"
     inkscape:collect="always" /><radialGradient
     r="333.18735"
     fy="467.91885"
     fx="373.24265"
     cy="467.91885"
     cx="373.24265"
     gradientTransform="matrix(0.83393192,2.4025531e-7,-2.452288e-7,0.76469446,-575.89311,126.3946)"
     gradientUnits="userSpaceOnUse"
     id="radialGradient2894"
     xlink:href="#linearGradient5443"
     inkscape:collect="always" /><linearGradient
     y2="254.73526"
     x2="123.47623"
     y1="344.03848"
     x1="123.50603"
     gradientTransform="matrix(2.3189708,0,0,2.0930998,-543.56606,-225.82362)"
     gradientUnits="userSpaceOnUse"
     id="linearGradient2892"
     xlink:href="#linearGradient3187"
     inkscape:collect="always" /><radialGradient
     r="333.18735"
     fy="710.99164"
     fx="373.24265"
     cy="710.99164"
     cx="373.24265"
     gradientTransform="matrix(0.8612608,1.0093481e-7,-5.1010329e-8,0.29743416,-586.09339,395.79293)"
     gradientUnits="userSpaceOnUse"
     id="radialGradient2890"
     xlink:href="#linearGradient5443"
     inkscape:collect="always" /><linearGradient
     id="linearGradient5443-5"><stop
       style="stop-color:#ffffff;stop-opacity:0;"
       offset="0"
       id="stop5445-4" /><stop
       style="stop-color:#000000;stop-opacity:0.33962265;"
       offset="1"
       id="stop5447-3" /></linearGradient><radialGradient
     r="333.18735"
     fy="710.99164"
     fx="373.24265"
     cy="710.99164"
     cx="373.24265"
     gradientTransform="matrix(0.9503534,1.1750652e-7,-5.6287062e-8,0.3462676,317.80591,185.68771)"
     gradientUnits="userSpaceOnUse"
     id="radialGradient4835-3"
     xlink:href="#linearGradient5443-5"
     inkscape:collect="always" /><filter
     color-interpolation-filters="sRGB"
     id="filter5511"
     inkscape:collect="always"><feGaussianBlur
       id="feGaussianBlur5513"
       stdDeviation="3.2374974"
       inkscape:collect="always" /></filter><radialGradient
     r="333.18735"
     fy="710.99164"
     fx="373.24265"
     cy="710.99164"
     cx="373.24265"
     gradientTransform="matrix(0.8612608,1.0093481e-7,-5.1010329e-8,0.29743416,-586.09339,395.79293)"
     gradientUnits="userSpaceOnUse"
     id="radialGradient4835"
     xlink:href="#linearGradient5443"
     inkscape:collect="always" /><radialGradient
     r="333.18735"
     fy="467.91885"
     fx="373.24265"
     cy="467.91885"
     cx="373.24265"
     gradientTransform="matrix(0.83393192,2.4025531e-7,-2.452288e-7,0.76469446,-575.89311,126.3946)"
     gradientUnits="userSpaceOnUse"
     id="radialGradient4832"
     xlink:href="#linearGradient5443"
     inkscape:collect="always" /><linearGradient
     y2="254.73526"
     x2="123.47623"
     y1="344.03848"
     x1="123.50603"
     gradientTransform="matrix(2.3189708,0,0,2.0930998,-543.56606,-225.82362)"
     gradientUnits="userSpaceOnUse"
     id="linearGradient4827"
     xlink:href="#linearGradient3187"
     inkscape:collect="always" /><linearGradient
     y2="254.73526"
     x2="123.47623"
     y1="344.03848"
     x1="123.50603"
     gradientTransform="matrix(2.3189708,0,0,2.0930998,93.115298,-256.84999)"
     gradientUnits="userSpaceOnUse"
     id="linearGradient4824"
     xlink:href="#linearGradient3187"
     inkscape:collect="always" /><radialGradient
     r="333.18735"
     fy="467.91885"
     fx="373.24265"
     cy="467.91885"
     cx="373.24265"
     gradientTransform="matrix(0.9201975,2.7970099e-7,-2.7059634e-7,0.8902438,28.590287,48.634335)"
     gradientUnits="userSpaceOnUse"
     id="radialGradient4822"
     xlink:href="#linearGradient3171"
     inkscape:collect="always" /><radialGradient
     r="333.18735"
     fy="710.99164"
     fx="373.24265"
     cy="710.99164"
     cx="373.24265"
     gradientTransform="matrix(0.9503534,1.1750652e-7,-5.6287062e-8,0.3462676,17.334826,362.44227)"
     gradientUnits="userSpaceOnUse"
     id="radialGradient4820"
     xlink:href="#linearGradient3157"
     inkscape:collect="always" /><radialGradient
     r="333.18735"
     fy="710.99164"
     fx="373.24265"
     cy="710.99164"
     cx="373.24265"
     gradientTransform="matrix(0.9503534,1.1750652e-7,-5.6287062e-8,0.3462676,17.334826,362.44227)"
     gradientUnits="userSpaceOnUse"
     id="radialGradient4805"
     xlink:href="#linearGradient3157"
     inkscape:collect="always" /><radialGradient
     r="333.18735"
     fy="467.91885"
     fx="373.24265"
     cy="467.91885"
     cx="373.24265"
     gradientTransform="matrix(0.9201975,2.7970099e-7,-2.7059634e-7,0.8902438,28.590287,48.634335)"
     gradientUnits="userSpaceOnUse"
     id="radialGradient4802"
     xlink:href="#linearGradient3171"
     inkscape:collect="always" /><linearGradient
     y2="254.73526"
     x2="123.47623"
     y1="344.03848"
     x1="123.50603"
     gradientTransform="matrix(2.3189708,0,0,2.0930998,93.115298,-256.84999)"
     gradientUnits="userSpaceOnUse"
     id="linearGradient4799"
     xlink:href="#linearGradient3187"
     inkscape:collect="always" /><linearGradient
     y2="254.73526"
     x2="123.47623"
     y1="344.03848"
     x1="123.50603"
     gradientTransform="matrix(2.3189708,0,0,2.0930998,93.115298,-256.84999)"
     gradientUnits="userSpaceOnUse"
     id="linearGradient4794"
     xlink:href="#linearGradient3187"
     inkscape:collect="always" /><radialGradient
     r="333.18735"
     fy="467.91885"
     fx="373.24265"
     cy="467.91885"
     cx="373.24265"
     gradientTransform="matrix(0.9201975,2.7970099e-7,-2.7059634e-7,0.8902438,28.590287,48.634335)"
     gradientUnits="userSpaceOnUse"
     id="radialGradient4792"
     xlink:href="#linearGradient3171"
     inkscape:collect="always" /><radialGradient
     r="333.18735"
     fy="710.99164"
     fx="373.24265"
     cy="710.99164"
     cx="373.24265"
     gradientTransform="matrix(0.9503534,1.1750652e-7,-5.6287062e-8,0.3462676,17.334826,362.44227)"
     gradientUnits="userSpaceOnUse"
     id="radialGradient4790"
     xlink:href="#linearGradient3157"
     inkscape:collect="always" /><radialGradient
     r="333.18735"
     fy="710.99164"
     fx="373.24265"
     cy="710.99164"
     cx="373.24265"
     gradientTransform="matrix(0.9503534,1.1750652e-7,-5.6287062e-8,0.3462676,17.334826,362.44227)"
     gradientUnits="userSpaceOnUse"
     id="radialGradient4779"
     xlink:href="#linearGradient3157"
     inkscape:collect="always" /><radialGradient
     r="333.18735"
     fy="467.91885"
     fx="373.24265"
     cy="467.91885"
     cx="373.24265"
     gradientTransform="matrix(0.9201975,2.7970099e-7,-2.7059634e-7,0.8902438,28.590287,48.634335)"
     gradientUnits="userSpaceOnUse"
     id="radialGradient4776"
     xlink:href="#linearGradient3171"
     inkscape:collect="always" /><linearGradient
     y2="254.73526"
     x2="123.47623"
     y1="344.03848"
     x1="123.50603"
     gradientTransform="matrix(2.3189708,0,0,2.0930998,93.115298,-256.84999)"
     gradientUnits="userSpaceOnUse"
     id="linearGradient4773"
     xlink:href="#linearGradient3187"
     inkscape:collect="always" /><linearGradient
     y2="254.73526"
     x2="123.47623"
     y1="344.03848"
     x1="123.50603"
     gradientTransform="matrix(2.3189708,0,0,2.0930998,93.115298,-256.84999)"
     gradientUnits="userSpaceOnUse"
     id="linearGradient4770"
     xlink:href="#linearGradient3187"
     inkscape:collect="always" /><radialGradient
     r="333.18735"
     fy="467.91885"
     fx="373.24265"
     cy="467.91885"
     cx="373.24265"
     gradientTransform="matrix(0.9201975,2.7970099e-7,-2.7059634e-7,0.8902438,28.590287,48.634335)"
     gradientUnits="userSpaceOnUse"
     id="radialGradient4768"
     xlink:href="#linearGradient3171"
     inkscape:collect="always" /><radialGradient
     r="333.18735"
     fy="710.99164"
     fx="373.24265"
     cy="710.99164"
     cx="373.24265"
     gradientTransform="matrix(0.9503534,1.1750652e-7,-5.6287062e-8,0.3462676,17.334826,362.44227)"
     gradientUnits="userSpaceOnUse"
     id="radialGradient4766"
     xlink:href="#linearGradient3157"
     inkscape:collect="always" /><filter
     color-interpolation-filters="sRGB"
     id="filter4659"
     inkscape:collect="always"><feGaussianBlur
       id="feGaussianBlur4661"
       stdDeviation="2.7750933"
       inkscape:collect="always" /></filter><radialGradient
     r="333.18735"
     fy="710.99164"
     fx="373.24265"
     cy="710.99164"
     cx="373.24265"
     gradientTransform="matrix(0.9503534,1.1750652e-7,-5.6287062e-8,0.3462676,17.334826,362.44227)"
     gradientUnits="userSpaceOnUse"
     id="radialGradient4572"
     xlink:href="#linearGradient3157"
     inkscape:collect="always" /><radialGradient
     r="333.18735"
     fy="467.91885"
     fx="373.24265"
     cy="467.91885"
     cx="373.24265"
     gradientTransform="matrix(0.9201975,2.7970099e-7,-2.7059634e-7,0.8902438,28.590287,48.634335)"
     gradientUnits="userSpaceOnUse"
     id="radialGradient4569"
     xlink:href="#linearGradient3171"
     inkscape:collect="always" /><linearGradient
     y2="254.73526"
     x2="123.47623"
     y1="344.03848"
     x1="123.50603"
     gradientTransform="matrix(2.3189708,0,0,2.0930998,93.115298,-256.84999)"
     gradientUnits="userSpaceOnUse"
     id="linearGradient4562"
     xlink:href="#linearGradient3187"
     inkscape:collect="always" /><linearGradient
     gradientUnits="userSpaceOnUse"
     y2="540.86719"
     x2="360.49777"
     y1="167.50403"
     x1="360.49777"
     id="linearGradient4401"
     xlink:href="#linearGradient4395"
     inkscape:collect="always" /><linearGradient
     gradientUnits="userSpaceOnUse"
     y2="655.4505"
     x2="396.91168"
     y1="298.59412"
     x1="371.42194"
     id="linearGradient4389"
     xlink:href="#linearGradient4383"
     inkscape:collect="always" /><inkscape:perspective
     id="perspective3214"
     inkscape:persp3d-origin="372.04724 : 350.78739 : 1"
     inkscape:vp_z="744.09448 : 526.18109 : 1"
     inkscape:vp_y="0 : 1000 : 0"
     inkscape:vp_x="0 : 526.18109 : 1"
     sodipodi:type="inkscape:persp3d" /><linearGradient
     id="linearGradient4383"><stop
       id="stop4385"
       offset="0"
       style="stop-color:#00037f;stop-opacity:1;" /><stop
       id="stop4387"
       offset="1"
       style="stop-color:#00037f;stop-opacity:0;" /></linearGradient><linearGradient
     id="linearGradient4395"><stop
       id="stop4397"
       offset="0"
       style="stop-color:#110084;stop-opacity:1;" /><stop
       id="stop4399"
       offset="1"
       style="stop-color:#a695ff;stop-opacity:1;" /></linearGradient><linearGradient
     id="linearGradient3187"><stop
       id="stop3189"
       offset="0"
       style="stop-color:#ffffff;stop-opacity:0.39622641;" /><stop
       id="stop3191"
       offset="1"
       style="stop-color:#9e9e9e;stop-opacity:1;" /></linearGradient><linearGradient
     id="linearGradient3171"><stop
       style="stop-color:#49bcff;stop-opacity:1;"
       offset="0"
       id="stop3173" /><stop
       style="stop-color:#494cdc;stop-opacity:1;"
       offset="1"
       id="stop3175" /></linearGradient><linearGradient
     id="linearGradient3157"><stop
       id="stop3159"
       offset="0"
       style="stop-color:#49bcff;stop-opacity:1;" /><stop
       id="stop3161"
       offset="1"
       style="stop-color:#494c96;stop-opacity:1;" /></linearGradient><linearGradient
     id="linearGradient5443"><stop
       style="stop-color:#ffffff;stop-opacity:0;"
       offset="0"
       id="stop5445" /><stop
       style="stop-color:#cbcac8;stop-opacity:1;"
       offset="1"
       id="stop5447" /></linearGradient><radialGradient
     inkscape:collect="always"
     xlink:href="#linearGradient5443"
     id="radialGradient3253"
     gradientUnits="userSpaceOnUse"
     gradientTransform="matrix(0.8612608,1.0093481e-7,-5.1010329e-8,0.29743416,-586.09339,395.79293)"
     cx="373.24265"
     cy="710.99164"
     fx="373.24265"
     fy="710.99164"
     r="333.18735" /><linearGradient
     inkscape:collect="always"
     xlink:href="#linearGradient3187"
     id="linearGradient3255"
     gradientUnits="userSpaceOnUse"
     gradientTransform="matrix(2.3189708,0,0,2.0930998,-543.56606,-225.82362)"
     x1="123.50603"
     y1="344.03848"
     x2="123.47623"
     y2="254.73526" /><radialGradient
     inkscape:collect="always"
     xlink:href="#linearGradient5443"
     id="radialGradient3257"
     gradientUnits="userSpaceOnUse"
     gradientTransform="matrix(0.83393192,2.4025531e-7,-2.452288e-7,0.76469446,-575.89311,126.3946)"
     cx="373.24265"
     cy="467.91885"
     fx="373.24265"
     fy="467.91885"
     r="333.18735" /><radialGradient
     inkscape:collect="always"
     xlink:href="#linearGradient5443"
     id="radialGradient3273"
     gradientUnits="userSpaceOnUse"
     gradientTransform="matrix(0.8612608,1.0093481e-7,-5.1010329e-8,0.29743416,-586.09339,395.79293)"
     cx="373.24265"
     cy="710.99164"
     fx="373.24265"
     fy="710.99164"
     r="333.18735" /><linearGradient
     inkscape:collect="always"
     xlink:href="#linearGradient3187"
     id="linearGradient3275"
     gradientUnits="userSpaceOnUse"
     gradientTransform="matrix(2.3189708,0,0,2.0930998,-543.56606,-225.82362)"
     x1="123.50603"
     y1="344.03848"
     x2="123.47623"
     y2="254.73526" /><radialGradient
     inkscape:collect="always"
     xlink:href="#linearGradient5443"
     id="radialGradient3277"
     gradientUnits="userSpaceOnUse"
     gradientTransform="matrix(0.83393192,2.4025531e-7,-2.452288e-7,0.76469446,-575.89311,126.3946)"
     cx="373.24265"
     cy="467.91885"
     fx="373.24265"
     fy="467.91885"
     r="333.18735" /></defs><sodipodi:namedview
   pagecolor="#ffffff"
   bordercolor="#666666"
   borderopacity="1"
   objecttolerance="10"
   gridtolerance="10"
   guidetolerance="10"
   inkscape:pageopacity="0"
   inkscape:pageshadow="2"
   inkscape:window-width="1920"
   inkscape:window-height="1031"
   id="namedview15"
   showgrid="false"
   fit-margin-top="0"
   fit-margin-left="0"
   fit-margin-right="0"
   fit-margin-bottom="0"
   inkscape:zoom="1.1919192"
   inkscape:cx="239.88987"
   inkscape:cy="133.74829"
   inkscape:window-x="-4"
   inkscape:window-y="-4"
   inkscape:window-maximized="1"
   inkscape:current-layer="_x31_" />




<g
   id="g4316"
   transform="translate(-4.0524846e-6,1.5294449e-7)"><g
     transform="translate(589.18636,-87.165827)"
     id="g4448"><rect
       transform="matrix(2.1051501,0,0,2.1051501,-860.18934,-1.2010596)"
       ry="12.45238"
       rx="16.067965"
       y="48.636749"
       x="135.39355"
       height="152.93848"
       width="152.93848"
       id="rect4192"
       style="fill:#cccccc;fill-opacity:1;stroke:none;filter:url(#filter4659)"
       inkscape:export-filename="C:\Documents and Settings\adscro24\Desktop\128.png"
       inkscape:export-xdpi="29.879425"
       inkscape:export-ydpi="29.879425" /><rect
       inkscape:export-ydpi="29.879425"
       inkscape:export-xdpi="29.879425"
       inkscape:export-filename="C:\Documents and Settings\adscro24\Desktop\128.png"
       style="fill:#cbcac8;fill-opacity:1;stroke:none;filter:url(#filter4659)"
       id="rect3279"
       width="152.93848"
       height="152.93848"
       x="135.39355"
       y="48.636749"
       rx="16.067965"
       ry="12.45238"
       transform="matrix(2.1051501,0,0,2.1051501,-860.18934,-1.2010596)" /><rect
       inkscape:export-ydpi="29.879425"
       inkscape:export-xdpi="29.879425"
       inkscape:export-filename="C:\Documents and Settings\adscro24\Desktop\128.png"
       style="opacity:0.61338286;fill:url(#radialGradient4456);fill-opacity:1;stroke:#000000;stroke-width:3.26806188;stroke-miterlimit:4;stroke-opacity:1;stroke-dasharray:none"
       id="rect3155"
       width="321.95847"
       height="321.95844"
       x="-575.16559"
       y="101.18661"
       rx="33.825478"
       ry="26.214128" /><path
       transform="matrix(0.907795,0,0,0.90779498,-173.95283,-177.39738)"
       inkscape:export-ydpi="29.879425"
       inkscape:export-xdpi="29.879425"
       inkscape:export-filename="C:\Documents and Settings\adscro24\Desktop\128.png"
       inkscape:connector-curvature="0"
       style="opacity:0.61338286;fill:url(#linearGradient4458);fill-opacity:1;stroke:none;filter:url(#filter5511)"
       d="m -397.80626,329.07489 c -19.62748,0 -35.44272,12.0976 -35.44272,27.14163 l 0,124.30857 c 29.25482,11.38638 132.70149,11.89599 165.40488,-5.79022 33.32802,-18.02397 127.54379,-68.44264 171.824837,-52.72052 l 0,-65.79783 c 0,-15.04403 -15.798597,-27.14163 -35.426097,-27.14163 l -266.3609,0 z m -35.44272,263.47103 0,42.88373 c 0,1.33144 0.14331,2.63588 0.38253,3.915 -0.11919,-12.81092 -0.25965,-28.88939 -0.38253,-46.79873 z"
       id="rect3177" /><rect
       inkscape:export-ydpi="29.879425"
       inkscape:export-xdpi="29.879425"
       inkscape:export-filename="C:\Documents and Settings\adscro24\Desktop\128.png"
       style="opacity:0.61338286;fill:url(#radialGradient4460);fill-opacity:1;stroke:#ffffff;stroke-width:0.68992418;stroke-linecap:square;stroke-miterlimit:4;stroke-opacity:1;stroke-dasharray:none"
       id="rect3473"
       width="306.12445"
       height="306.12445"
       x="-567.2486"
       y="109.1036"
       rx="32.161926"
       ry="24.924911" /><rect
       inkscape:export-ydpi="29.879425"
       inkscape:export-xdpi="29.879425"
       inkscape:export-filename="C:\Documents and Settings\adscro24\Desktop\128.png"
       style="opacity:0.61338286;fill:#ffffff;fill-opacity:0;stroke:#000000;stroke-width:3.26806188;stroke-miterlimit:4;stroke-opacity:1;stroke-dasharray:none"
       id="rect3155-2"
       width="321.95847"
       height="321.95844"
       x="-575.16559"
       y="101.18661"
       rx="33.825478"
       ry="26.214128" /></g><g
     transform="translate(358.29183,-87.165827)"
     id="LWPOLYLINE_2_-7">
	
		
</g><g
     transform="translate(358.29183,-87.165827)"
     id="LWPOLYLINE_3_-4">
	
		
</g><g
     transform="translate(358.29183,-87.165827)"
     id="LWPOLYLINE_4_">
	
		
</g><g
     transform="translate(184.65055,-351.95215)"
     style="fill:#000000;fill-opacity:1;stroke:none"
     id="LWPOLYLINE_6_-7">
	
		
</g><g
     transform="translate(184.65055,-351.95215)"
     style="fill:#000000;fill-opacity:1;stroke:none"
     id="LWPOLYLINE-4">
	
		
</g><g
     transform="translate(184.65055,-351.95215)"
     style="fill:#000000;fill-opacity:1;stroke:none"
     id="LWPOLYLINE_3_-0">
	
		
</g></g><g
   id="g2996"
   transform="matrix(0.62389306,0,0,0.62389306,-15.910964,-71.749398)"
   style="fill:#000000;fill-opacity:1;stroke:none"><g
     id="LWPOLYLINE"
     style="fill:#000000;fill-opacity:1;stroke:none">
	
		<path
   id="path4"
   d="m 531.873,595.5 c 0,-0.137 0,-0.598 0,-0.598 v -0.781 -1.01 -1.24 -1.518 -1.746 -1.93 -2.115 -2.297 -2.482 -2.572 -2.758 -2.803 -2.941 -3.033 -3.08 -3.125 -3.17 -3.172 -3.17 -3.125 -3.125 -3.08 -3.033 -2.941 -2.848 -2.713 -2.619 -2.436 -2.297 -2.16 -1.93 -1.701 -1.518 -1.285 -1.012 -0.734 -0.461 c -0.184,-0.137 -0.368,-0.137 -0.368,-0.137 h -0.321 -0.368 -0.413 -0.506 -0.551 -0.644 -0.644 -0.689 -0.781 -0.781 -0.827 -0.827 -0.873 -0.919 -0.873 -0.92 -0.919 -0.919 -0.919 -0.873 -0.919 -0.874 -0.827 -0.827 -0.781 -0.781 -0.689 -0.688 -0.598 -0.554 -0.506 -0.413 -0.368 -0.321 c -0.184,0 -0.321,0 -0.321,0 -0.046,0.092 -0.046,0.412 -0.046,0.412 v 0.506 0.689 0.828 1.057 1.148 1.332 1.426 1.562 1.654 1.793 1.838 1.93 1.977 2.068 2.066 2.115 2.16 2.113 2.16 2.16 2.113 2.068 2.068 1.977 1.93 1.838 1.793 1.654 1.562 1.424 1.332 1.15 1.01 0.873 0.689 0.506 0.322 c 0,0.092 -0.506,0.092 -0.506,0.092 h -1.471 -2.344 -3.217 -4.044 -4.779 -5.515 -6.112 -6.756 -7.307 -7.858 -8.227 -8.686 -9.054 -9.329 -9.559 -9.788 -9.927 -10.016 -10.11 -10.064 -10.066 -9.926 -9.789 -9.559 -9.329 -9.03 -8.686 -8.271 -7.812 -7.307 -6.756 -6.135 -5.492 -4.802 -4.021 -3.217 -2.367 -1.47 -0.483 c 0,-0.092 0,-0.414 0,-0.414 v -0.506 -0.689 -0.873 -1.01 -1.15 -1.332 -1.424 -1.562 -1.654 -1.793 -1.838 -1.93 -1.977 -2.068 -2.068 -2.113 -2.16 -2.16 -2.113 -2.16 -2.115 -2.066 -2.068 -1.977 -1.93 -1.838 -1.793 -1.654 -1.562 -1.426 -1.332 -1.148 -1.057 -0.828 -0.689 -0.506 -0.32 c -0.184,-0.092 -0.413,-0.092 -0.413,-0.092 h -0.299 -0.391 -0.437 -0.528 -0.574 -0.644 -0.689 -0.735 -0.781 -0.827 -0.851 -0.873 -0.896 -0.942 -0.919 -0.966 -0.941 -0.966 -0.941 -0.942 -0.919 -0.896 -0.873 -0.85 -0.828 -0.781 -0.736 -0.689 -0.644 -0.574 -0.529 -0.459 -0.368 -0.299 c -0.229,0 -0.367,0 -0.367,0 -0.046,0.137 -0.046,0.598 -0.046,0.598 v 0.734 1.012 1.285 1.518 1.701 1.93 2.16 2.297 2.436 2.619 2.713 2.848 2.941 3.033 3.08 3.125 3.125 3.17 3.172 3.17 3.125 3.08 3.033 2.941 2.803 2.758 2.572 2.482 2.297 2.115 1.93 1.746 1.518 1.24 1.01 0.781 0.461 c 0,0.137 0.598,0.137 0.598,0.137 h 1.723 2.804 3.814 4.779 5.652 6.526 7.283 8.02 8.663 9.26 9.789 10.294 10.685 11.053 11.351 11.627 11.765 11.902 11.949 11.948 11.902 11.765 11.581 11.352 11.075 10.707 10.295 9.788 9.237 8.686 7.996 7.306 6.479 5.698 4.779 3.814 2.804 1.7 0.599 z"
   stroke-miterlimit="10"
   inkscape:connector-curvature="0"
   style="fill:#000000;fill-opacity:1;stroke:none" />
</g><g
     id="LWPOLYLINE_1_"
     style="fill:#000000;fill-opacity:1;stroke:none">
	
		<path
   id="path7"
   d="m 123.417,315.031 c 0.115,0 0.275,0 0.275,0 0.185,0 0.437,0 0.437,0 h 0.322 0.345 0.367 0.437 0.46 0.482 0.528 0.552 0.574 0.574 0.598 0.62 0.621 0.644 0.62 0.644 0.643 0.621 0.62 0.598 0.574 0.574 0.552 0.506 0.505 0.46 0.413 0.391 0.345 0.299 0.253 c 0.207,0 0.368,0 0.368,0 0.114,-0.092 0.114,-0.32 0.114,-0.32 v -0.369 -0.527 -0.645 -0.781 -0.873 -0.988 -1.078 -1.172 -1.266 -1.332 -1.402 -1.447 -1.492 -1.541 -1.584 -1.586 -1.631 -1.609 -1.631 -1.609 -1.586 -1.584 -1.541 -1.492 -1.471 -1.379 -1.332 -1.266 -1.172 -1.078 -0.988 -0.896 -0.758 -0.668 -0.504 -0.391 c 0,-0.23 0,-0.299 0,-0.299 0.069,0 0.299,0 0.299,0 h 0.391 0.506 0.62 0.758 0.874 0.965 1.057 1.149 1.24 1.287 1.379 1.401 1.471 1.517 1.539 1.562 1.586 1.585 1.586 1.562 1.562 1.539 1.517 1.471 1.425 1.355 1.31 1.218 1.149 1.08 0.965 0.851 0.758 0.644 0.506 0.367 c 0.229,0 0.299,0 0.299,0 0,-0.115 0,-0.254 0,-0.254 0,-0.184 0,-0.391 0,-0.391 v -0.275 -0.299 -0.344 -0.391 -0.414 -0.438 -0.459 -0.482 -0.506 -0.527 -0.529 -0.551 -0.553 -0.551 -0.574 -0.553 -0.574 -0.551 -0.551 -0.529 -0.529 -0.504 -0.482 -0.461 -0.436 -0.414 -0.367 -0.346 -0.32 -0.254 c 0,-0.229 0,-0.414 0,-0.414 0,-0.205 0,-0.252 0,-0.252 -0.069,0 -0.299,0 -0.299,0 h -0.367 -0.506 -0.644 -0.758 -0.851 -0.965 -1.08 -1.149 -1.218 -1.31 -1.355 -1.425 -1.471 -1.517 -1.539 -1.562 -1.562 -1.586 -1.585 -1.586 -1.562 -1.539 -1.517 -1.471 -1.401 -1.379 -1.287 -1.24 -1.149 -1.057 -0.965 -0.874 -0.758 -0.62 -0.506 -0.391 c -0.229,0 -0.299,0 -0.299,0 0,-0.068 0,-0.299 0,-0.299 v -0.391 -0.506 -0.666 -0.758 -0.873 -1.012 -1.08 -1.172 -1.264 -1.332 -1.379 -1.447 -1.518 -1.539 -1.562 -1.609 -1.607 -1.631 -1.609 -1.607 -1.609 -1.586 -1.539 -1.494 -1.447 -1.4 -1.334 -1.24 -1.172 -1.104 -0.988 -0.873 -0.781 -0.643 -0.529 -0.367 c 0,-0.23 0,-0.322 0,-0.322 -0.114,0 -0.275,0 -0.275,0 -0.207,0 -0.46,0 -0.46,0 h -0.299 -0.345 -0.391 -0.413 -0.46 -0.505 -0.506 -0.552 -0.574 -0.574 -0.599 -0.62 -0.621 -0.643 -0.644 -0.62 -0.644 -0.621 -0.62 -0.598 -0.574 -0.574 -0.552 -0.528 -0.482 -0.46 -0.437 -0.367 -0.345 -0.322 -0.252 c -0.185,0 -0.345,0 -0.345,0 -0.115,0.092 -0.115,0.322 -0.115,0.322 v 0.367 0.529 0.643 0.781 0.873 0.988 1.104 1.172 1.24 1.334 1.4 1.447 1.494 1.539 1.586 1.609 1.607 1.609 1.631 1.607 1.609 1.562 1.539 1.518 1.447 1.379 1.332 1.264 1.172 1.08 1.012 0.873 0.758 0.666 0.506 0.391 c 0,0.23 0,0.299 0,0.299 -0.092,0 -0.321,0 -0.321,0 h -0.368 -0.528 -0.644 -0.781 -0.873 -0.988 -1.103 -1.172 -1.241 -1.332 -1.402 -1.447 -1.494 -1.539 -1.586 -1.608 -1.608 -1.608 -1.631 -1.608 -1.608 -1.562 -1.54 -1.517 -1.447 -1.379 -1.333 -1.264 -1.174 -1.08 -1.011 -0.873 -0.759 -0.666 -0.506 -0.391 c -0.229,0 -0.298,0 -0.298,0 0,0.115 0,0.252 0,0.252 0,0.186 0,0.414 0,0.414 v 0.254 0.32 0.346 0.367 0.414 0.436 0.461 0.482 0.504 0.529 0.529 0.551 0.551 0.574 0.553 0.574 0.551 0.553 0.551 0.529 0.527 0.506 0.482 0.459 0.438 0.414 0.391 0.344 0.299 0.275 c 0,0.207 0,0.391 0,0.391 0,0.23 0,0.254 0,0.254 0.068,0 0.298,0 0.298,0 h 0.391 0.506 0.666 0.759 0.873 1.011 1.08 1.172 1.264 1.333 1.379 1.447 1.517 1.54 1.562 1.608 1.608 1.631 1.608 1.608 1.608 1.586 1.539 1.494 1.447 1.402 1.332 1.241 1.172 1.103 0.988 0.873 0.781 0.644 0.528 0.368 c 0.229,0 0.321,0 0.321,0 v 43.288 z"
   stroke-miterlimit="10"
   inkscape:connector-curvature="0"
   style="fill:#000000;fill-opacity:1;stroke:none" />
</g><g
     id="LWPOLYLINE_2_"
     style="fill:#000000;fill-opacity:1;stroke:none">
	
		<path
   id="path10"
   d="m 191.179,341.387 c 0.207,0 0.368,0 0.368,0 0.206,0 0.437,0 0.437,0 h 0.253 0.298 0.345 0.345 0.391 0.414 0.413 0.437 0.46 0.482 0.482 0.482 0.483 0.505 0.482 0.482 0.506 0.46 0.482 0.459 0.437 0.414 0.413 0.391 0.345 0.345 0.299 0.276 c 0.229,0 0.413,0 0.413,0 0.161,0 0.275,0 0.275,0 0.093,0 0.185,-0.275 0.185,-0.275 l 0.253,-0.781 0.413,-1.287 0.574,-1.746 0.689,-2.182 0.851,-2.598 0.965,-2.963 1.057,-3.355 1.195,-3.654 1.264,-3.951 1.379,-4.252 1.447,-4.48 1.517,-4.688 1.562,-4.895 1.632,-5.055 1.677,-5.193 1.724,-5.307 1.724,-5.377 1.769,-5.445 1.747,-5.469 1.769,-5.469 1.747,-5.424 1.746,-5.377 1.7,-5.309 1.678,-5.191 1.631,-5.057 1.586,-4.893 1.517,-4.711 1.447,-4.48 1.355,-4.229 1.287,-3.953 1.172,-3.676 1.08,-3.332 0.965,-2.963 0.827,-2.598 0.713,-2.184 0.574,-1.746 0.413,-1.285 0.253,-0.781 0.069,-0.277 c -0.207,0 -0.368,0 -0.368,0 -0.184,0 -0.413,0 -0.413,0 h -0.276 -0.298 -0.345 -0.345 -0.391 -0.414 -0.413 -0.437 -0.46 -0.482 -0.46 -0.505 -0.482 -0.483 -0.505 -0.482 -0.482 -0.483 -0.482 -0.459 -0.437 -0.414 -0.413 -0.391 -0.345 -0.345 -0.299 -0.253 c -0.229,0 -0.437,0 -0.437,0 -0.161,0 -0.275,0 -0.275,0 -0.095,0.001 -47.153,145.888 -47.153,145.888 z"
   stroke-miterlimit="10"
   inkscape:connector-curvature="0"
   style="fill:#000000;fill-opacity:1;stroke:none" />
</g><g
     id="LWPOLYLINE_3_"
     style="fill:#000000;fill-opacity:1;stroke:none">
	
		<path
   id="path13"
   d="m 370.936,271.742 c 0,-0.115 0,-0.254 0,-0.254 0,-0.184 0,-0.391 0,-0.391 v -0.275 -0.299 -0.344 -0.391 -0.414 -0.438 -0.459 -0.482 -0.506 -0.527 -0.529 -0.551 -0.553 -0.551 -0.574 -0.553 -0.574 -0.551 -0.551 -0.529 -0.529 -0.504 -0.482 -0.461 -0.436 -0.414 -0.367 -0.346 -0.32 -0.254 c 0,-0.229 0,-0.414 0,-0.414 0,-0.205 0,-0.252 0,-0.252 -0.184,0 -0.735,0 -0.735,0 h -0.919 -1.195 -1.562 -1.792 -2.114 -2.344 -2.575 -2.804 -2.94 -3.172 -3.309 -3.446 -3.539 -3.676 -3.723 -3.769 -3.814 -3.86 -3.86 -3.814 -3.768 -3.746 -3.653 -3.538 -3.447 -3.309 -3.148 -2.986 -2.781 -2.573 -2.344 -2.091 -1.838 -1.517 -1.241 -0.896 -0.551 c -0.184,0.115 -0.184,0.252 -0.184,0.252 0,0.186 0,0.414 0,0.414 v 0.254 0.32 0.346 0.367 0.414 0.436 0.461 0.482 0.504 0.529 0.529 0.551 0.551 0.574 0.553 0.574 0.551 0.553 0.551 0.529 0.527 0.506 0.482 0.459 0.438 0.414 0.391 0.344 0.299 0.275 c 0,0.207 0,0.391 0,0.391 0,0.23 0,0.254 0,0.254 0.184,0 0.734,0 0.734,0 h 0.896 1.241 1.517 1.838 2.091 2.344 2.573 2.781 2.986 3.148 3.309 3.447 3.538 3.653 3.746 3.768 3.814 3.86 3.86 3.814 3.769 3.723 3.676 3.539 3.446 3.309 3.172 2.94 2.804 2.573 2.344 2.114 1.792 1.562 1.195 0.919 c 0.002,0 0.554,0 0.738,0 z"
   stroke-miterlimit="10"
   inkscape:connector-curvature="0"
   style="fill:#000000;fill-opacity:1;stroke:none" />
</g></g></svg>