<?xml version="1.0" encoding="UTF-8" standalone="no"?>
<!-- Generator: Adobe Illustrator 16.0.1, SVG Export Plug-In . SVG Version: 6.00 Build 0)  -->

<svg
   xmlns:dc="http://purl.org/dc/elements/1.1/"
   xmlns:cc="http://creativecommons.org/ns#"
   xmlns:rdf="http://www.w3.org/1999/02/22-rdf-syntax-ns#"
   xmlns:svg="http://www.w3.org/2000/svg"
   xmlns="http://www.w3.org/2000/svg"
   xmlns:xlink="http://www.w3.org/1999/xlink"
   xmlns:sodipodi="http://sodipodi.sourceforge.net/DTD/sodipodi-0.dtd"
   xmlns:inkscape="http://www.inkscape.org/namespaces/inkscape"
   version="1.0"
   id="_x31_"
   x="0px"
   y="0px"
   width="350"
   height="350"
   viewBox="0 0 350 350"
   enable-background="new 0 0 612 792"
   xml:space="preserve"
   inkscape:version="0.48.3.1 r9886"
   sodipodi:docname="6055.svg"><metadata
   id="metadata19"><rdf:RDF><cc:Work
       rdf:about=""><dc:format>image/svg+xml</dc:format><dc:type
         rdf:resource="http://purl.org/dc/dcmitype/StillImage" /></cc:Work></rdf:RDF></metadata><defs
   id="defs17"><radialGradient
     r="333.18735"
     fy="467.91885"
     fx="373.24265"
     cy="467.91885"
     cx="373.24265"
     gradientTransform="matrix(0.83535069,2.5391116e-7,-2.4564601e-7,0.80815885,-725.97492,-115.98714)"
     gradientUnits="userSpaceOnUse"
     id="radialGradient4460"
     xlink:href="#linearGradient5443"
     inkscape:collect="always" /><linearGradient
     y2="254.73526"
     x2="123.47623"
     y1="344.03848"
     x1="123.50603"
     gradientTransform="matrix(2.3189708,0,0,2.0930998,-543.56606,-225.82362)"
     gradientUnits="userSpaceOnUse"
     id="linearGradient4458"
     xlink:href="#linearGradient3187"
     inkscape:collect="always" /><radialGradient
     r="333.18735"
     fy="710.99164"
     fx="373.24265"
     cy="710.99164"
     cx="373.24265"
     gradientTransform="matrix(0.86272606,1.0667183e-7,-5.1097113e-8,0.31433999,-736.19251,168.72353)"
     gradientUnits="userSpaceOnUse"
     id="radialGradient4456"
     xlink:href="#linearGradient5443"
     inkscape:collect="always" /><radialGradient
     r="333.18735"
     fy="467.91885"
     fx="373.24265"
     cy="467.91885"
     cx="373.24265"
     gradientTransform="matrix(0.83393192,2.4025531e-7,-2.452288e-7,0.76469446,-575.89311,126.3946)"
     gradientUnits="userSpaceOnUse"
     id="radialGradient2894-5"
     xlink:href="#linearGradient5443-0"
     inkscape:collect="always" /><linearGradient
     y2="254.73526"
     x2="123.47623"
     y1="344.03848"
     x1="123.50603"
     gradientTransform="matrix(2.3189708,0,0,2.0930998,-543.56606,-225.82362)"
     gradientUnits="userSpaceOnUse"
     id="linearGradient2892-2"
     xlink:href="#linearGradient3187-1"
     inkscape:collect="always" /><radialGradient
     r="333.18735"
     fy="710.99164"
     fx="373.24265"
     cy="710.99164"
     cx="373.24265"
     gradientTransform="matrix(0.8612608,1.0093481e-7,-5.1010329e-8,0.29743416,-586.09339,395.79293)"
     gradientUnits="userSpaceOnUse"
     id="radialGradient2890-7"
     xlink:href="#linearGradient5443-0"
     inkscape:collect="always" /><linearGradient
     id="linearGradient5443-5-6"><stop
       style="stop-color:#ffffff;stop-opacity:0;"
       offset="0"
       id="stop5445-4-1" /><stop
       style="stop-color:#000000;stop-opacity:0.33962265;"
       offset="1"
       id="stop5447-3-4" /></linearGradient><radialGradient
     r="333.18735"
     fy="710.99164"
     fx="373.24265"
     cy="710.99164"
     cx="373.24265"
     gradientTransform="matrix(0.9503534,1.1750652e-7,-5.6287062e-8,0.3462676,317.80591,185.68771)"
     gradientUnits="userSpaceOnUse"
     id="radialGradient4835-3-2"
     xlink:href="#linearGradient5443-5-6"
     inkscape:collect="always" /><radialGradient
     r="333.18735"
     fy="710.99164"
     fx="373.24265"
     cy="710.99164"
     cx="373.24265"
     gradientTransform="matrix(0.8612608,1.0093481e-7,-5.1010329e-8,0.29743416,-586.09339,395.79293)"
     gradientUnits="userSpaceOnUse"
     id="radialGradient4835-2"
     xlink:href="#linearGradient5443-0"
     inkscape:collect="always" /><radialGradient
     r="333.18735"
     fy="467.91885"
     fx="373.24265"
     cy="467.91885"
     cx="373.24265"
     gradientTransform="matrix(0.83393192,2.4025531e-7,-2.452288e-7,0.76469446,-575.89311,126.3946)"
     gradientUnits="userSpaceOnUse"
     id="radialGradient4832-1"
     xlink:href="#linearGradient5443-0"
     inkscape:collect="always" /><linearGradient
     y2="254.73526"
     x2="123.47623"
     y1="344.03848"
     x1="123.50603"
     gradientTransform="matrix(2.3189708,0,0,2.0930998,-543.56606,-225.82362)"
     gradientUnits="userSpaceOnUse"
     id="linearGradient4827-6"
     xlink:href="#linearGradient3187-1"
     inkscape:collect="always" /><linearGradient
     y2="254.73526"
     x2="123.47623"
     y1="344.03848"
     x1="123.50603"
     gradientTransform="matrix(2.3189708,0,0,2.0930998,93.115298,-256.84999)"
     gradientUnits="userSpaceOnUse"
     id="linearGradient4824-8"
     xlink:href="#linearGradient3187-1"
     inkscape:collect="always" /><radialGradient
     r="333.18735"
     fy="467.91885"
     fx="373.24265"
     cy="467.91885"
     cx="373.24265"
     gradientTransform="matrix(0.9201975,2.7970099e-7,-2.7059634e-7,0.8902438,28.590287,48.634335)"
     gradientUnits="userSpaceOnUse"
     id="radialGradient4822-5"
     xlink:href="#linearGradient3171-6"
     inkscape:collect="always" /><radialGradient
     r="333.18735"
     fy="710.99164"
     fx="373.24265"
     cy="710.99164"
     cx="373.24265"
     gradientTransform="matrix(0.9503534,1.1750652e-7,-5.6287062e-8,0.3462676,17.334826,362.44227)"
     gradientUnits="userSpaceOnUse"
     id="radialGradient4820-7"
     xlink:href="#linearGradient3157-2"
     inkscape:collect="always" /><radialGradient
     r="333.18735"
     fy="710.99164"
     fx="373.24265"
     cy="710.99164"
     cx="373.24265"
     gradientTransform="matrix(0.9503534,1.1750652e-7,-5.6287062e-8,0.3462676,17.334826,362.44227)"
     gradientUnits="userSpaceOnUse"
     id="radialGradient4805-6"
     xlink:href="#linearGradient3157-2"
     inkscape:collect="always" /><radialGradient
     r="333.18735"
     fy="467.91885"
     fx="373.24265"
     cy="467.91885"
     cx="373.24265"
     gradientTransform="matrix(0.9201975,2.7970099e-7,-2.7059634e-7,0.8902438,28.590287,48.634335)"
     gradientUnits="userSpaceOnUse"
     id="radialGradient4802-1"
     xlink:href="#linearGradient3171-6"
     inkscape:collect="always" /><linearGradient
     y2="254.73526"
     x2="123.47623"
     y1="344.03848"
     x1="123.50603"
     gradientTransform="matrix(2.3189708,0,0,2.0930998,93.115298,-256.84999)"
     gradientUnits="userSpaceOnUse"
     id="linearGradient4799-8"
     xlink:href="#linearGradient3187-1"
     inkscape:collect="always" /><linearGradient
     y2="254.73526"
     x2="123.47623"
     y1="344.03848"
     x1="123.50603"
     gradientTransform="matrix(2.3189708,0,0,2.0930998,93.115298,-256.84999)"
     gradientUnits="userSpaceOnUse"
     id="linearGradient4794-9"
     xlink:href="#linearGradient3187-1"
     inkscape:collect="always" /><radialGradient
     r="333.18735"
     fy="467.91885"
     fx="373.24265"
     cy="467.91885"
     cx="373.24265"
     gradientTransform="matrix(0.9201975,2.7970099e-7,-2.7059634e-7,0.8902438,28.590287,48.634335)"
     gradientUnits="userSpaceOnUse"
     id="radialGradient4792-2"
     xlink:href="#linearGradient3171-6"
     inkscape:collect="always" /><radialGradient
     r="333.18735"
     fy="710.99164"
     fx="373.24265"
     cy="710.99164"
     cx="373.24265"
     gradientTransform="matrix(0.9503534,1.1750652e-7,-5.6287062e-8,0.3462676,17.334826,362.44227)"
     gradientUnits="userSpaceOnUse"
     id="radialGradient4790-7"
     xlink:href="#linearGradient3157-2"
     inkscape:collect="always" /><radialGradient
     r="333.18735"
     fy="710.99164"
     fx="373.24265"
     cy="710.99164"
     cx="373.24265"
     gradientTransform="matrix(0.9503534,1.1750652e-7,-5.6287062e-8,0.3462676,17.334826,362.44227)"
     gradientUnits="userSpaceOnUse"
     id="radialGradient4779-9"
     xlink:href="#linearGradient3157-2"
     inkscape:collect="always" /><radialGradient
     r="333.18735"
     fy="467.91885"
     fx="373.24265"
     cy="467.91885"
     cx="373.24265"
     gradientTransform="matrix(0.9201975,2.7970099e-7,-2.7059634e-7,0.8902438,28.590287,48.634335)"
     gradientUnits="userSpaceOnUse"
     id="radialGradient4776-5"
     xlink:href="#linearGradient3171-6"
     inkscape:collect="always" /><linearGradient
     y2="254.73526"
     x2="123.47623"
     y1="344.03848"
     x1="123.50603"
     gradientTransform="matrix(2.3189708,0,0,2.0930998,93.115298,-256.84999)"
     gradientUnits="userSpaceOnUse"
     id="linearGradient4773-4"
     xlink:href="#linearGradient3187-1"
     inkscape:collect="always" /><linearGradient
     y2="254.73526"
     x2="123.47623"
     y1="344.03848"
     x1="123.50603"
     gradientTransform="matrix(2.3189708,0,0,2.0930998,93.115298,-256.84999)"
     gradientUnits="userSpaceOnUse"
     id="linearGradient4770-3"
     xlink:href="#linearGradient3187-1"
     inkscape:collect="always" /><radialGradient
     r="333.18735"
     fy="467.91885"
     fx="373.24265"
     cy="467.91885"
     cx="373.24265"
     gradientTransform="matrix(0.9201975,2.7970099e-7,-2.7059634e-7,0.8902438,28.590287,48.634335)"
     gradientUnits="userSpaceOnUse"
     id="radialGradient4768-1"
     xlink:href="#linearGradient3171-6"
     inkscape:collect="always" /><radialGradient
     r="333.18735"
     fy="710.99164"
     fx="373.24265"
     cy="710.99164"
     cx="373.24265"
     gradientTransform="matrix(0.9503534,1.1750652e-7,-5.6287062e-8,0.3462676,17.334826,362.44227)"
     gradientUnits="userSpaceOnUse"
     id="radialGradient4766-2"
     xlink:href="#linearGradient3157-2"
     inkscape:collect="always" /><radialGradient
     r="333.18735"
     fy="710.99164"
     fx="373.24265"
     cy="710.99164"
     cx="373.24265"
     gradientTransform="matrix(0.9503534,1.1750652e-7,-5.6287062e-8,0.3462676,17.334826,362.44227)"
     gradientUnits="userSpaceOnUse"
     id="radialGradient4572-4"
     xlink:href="#linearGradient3157-2"
     inkscape:collect="always" /><radialGradient
     r="333.18735"
     fy="467.91885"
     fx="373.24265"
     cy="467.91885"
     cx="373.24265"
     gradientTransform="matrix(0.9201975,2.7970099e-7,-2.7059634e-7,0.8902438,28.590287,48.634335)"
     gradientUnits="userSpaceOnUse"
     id="radialGradient4569-1"
     xlink:href="#linearGradient3171-6"
     inkscape:collect="always" /><linearGradient
     y2="254.73526"
     x2="123.47623"
     y1="344.03848"
     x1="123.50603"
     gradientTransform="matrix(2.3189708,0,0,2.0930998,93.115298,-256.84999)"
     gradientUnits="userSpaceOnUse"
     id="linearGradient4562-1"
     xlink:href="#linearGradient3187-1"
     inkscape:collect="always" /><linearGradient
     gradientUnits="userSpaceOnUse"
     y2="540.86719"
     x2="360.49777"
     y1="167.50403"
     x1="360.49777"
     id="linearGradient4401-3"
     xlink:href="#linearGradient4395-7"
     inkscape:collect="always" /><linearGradient
     gradientUnits="userSpaceOnUse"
     y2="655.4505"
     x2="396.91168"
     y1="298.59412"
     x1="371.42194"
     id="linearGradient4389-8"
     xlink:href="#linearGradient4383-4"
     inkscape:collect="always" /><inkscape:perspective
     id="perspective3214-7"
     inkscape:persp3d-origin="372.04724 : 350.78739 : 1"
     inkscape:vp_z="744.09448 : 526.18109 : 1"
     inkscape:vp_y="0 : 1000 : 0"
     inkscape:vp_x="0 : 526.18109 : 1"
     sodipodi:type="inkscape:persp3d" /><linearGradient
     id="linearGradient4383-4"><stop
       id="stop4385-2"
       offset="0"
       style="stop-color:#00037f;stop-opacity:1;" /><stop
       id="stop4387-7"
       offset="1"
       style="stop-color:#00037f;stop-opacity:0;" /></linearGradient><linearGradient
     id="linearGradient4395-7"><stop
       id="stop4397-9"
       offset="0"
       style="stop-color:#110084;stop-opacity:1;" /><stop
       id="stop4399-3"
       offset="1"
       style="stop-color:#a695ff;stop-opacity:1;" /></linearGradient><linearGradient
     id="linearGradient3187-1"><stop
       id="stop3189-9"
       offset="0"
       style="stop-color:#ffffff;stop-opacity:0.39622641;" /><stop
       id="stop3191-8"
       offset="1"
       style="stop-color:#000000;stop-opacity:1;" /></linearGradient><linearGradient
     id="linearGradient3171-6"><stop
       style="stop-color:#49bcff;stop-opacity:1;"
       offset="0"
       id="stop3173-5" /><stop
       style="stop-color:#494cdc;stop-opacity:1;"
       offset="1"
       id="stop3175-0" /></linearGradient><linearGradient
     id="linearGradient3157-2"><stop
       id="stop3159-8"
       offset="0"
       style="stop-color:#49bcff;stop-opacity:1;" /><stop
       id="stop3161-6"
       offset="1"
       style="stop-color:#494c96;stop-opacity:1;" /></linearGradient><linearGradient
     id="linearGradient5443-0"><stop
       style="stop-color:#ffffff;stop-opacity:0;"
       offset="0"
       id="stop5445-2" /><stop
       style="stop-color:#000000;stop-opacity:0.33962265;"
       offset="1"
       id="stop5447-4" /></linearGradient><radialGradient
     inkscape:collect="always"
     xlink:href="#linearGradient5443-0"
     id="radialGradient3234"
     gradientUnits="userSpaceOnUse"
     gradientTransform="matrix(0.8612608,1.0093481e-7,-5.1010329e-8,0.29743416,-586.09339,395.79293)"
     cx="373.24265"
     cy="710.99164"
     fx="373.24265"
     fy="710.99164"
     r="333.18735" /><linearGradient
     inkscape:collect="always"
     xlink:href="#linearGradient3187-1"
     id="linearGradient3236"
     gradientUnits="userSpaceOnUse"
     gradientTransform="matrix(2.3189708,0,0,2.0930998,-543.56606,-225.82362)"
     x1="123.50603"
     y1="344.03848"
     x2="123.47623"
     y2="254.73526" /><radialGradient
     inkscape:collect="always"
     xlink:href="#linearGradient5443-0"
     id="radialGradient3238"
     gradientUnits="userSpaceOnUse"
     gradientTransform="matrix(0.83393192,2.4025531e-7,-2.452288e-7,0.76469446,-575.89311,126.3946)"
     cx="373.24265"
     cy="467.91885"
     fx="373.24265"
     fy="467.91885"
     r="333.18735" /><radialGradient
     inkscape:collect="always"
     xlink:href="#linearGradient5443-0"
     id="radialGradient3254"
     gradientUnits="userSpaceOnUse"
     gradientTransform="matrix(0.8612608,1.0093481e-7,-5.1010329e-8,0.29743416,-586.09339,395.79293)"
     cx="373.24265"
     cy="710.99164"
     fx="373.24265"
     fy="710.99164"
     r="333.18735" /><linearGradient
     inkscape:collect="always"
     xlink:href="#linearGradient3187-1"
     id="linearGradient3256"
     gradientUnits="userSpaceOnUse"
     gradientTransform="matrix(2.3189708,0,0,2.0930998,-543.56606,-225.82362)"
     x1="123.50603"
     y1="344.03848"
     x2="123.47623"
     y2="254.73526" /><radialGradient
     inkscape:collect="always"
     xlink:href="#linearGradient5443-0"
     id="radialGradient3258"
     gradientUnits="userSpaceOnUse"
     gradientTransform="matrix(0.83393192,2.4025531e-7,-2.452288e-7,0.76469446,-575.89311,126.3946)"
     cx="373.24265"
     cy="467.91885"
     fx="373.24265"
     fy="467.91885"
     r="333.18735" /><radialGradient
     inkscape:collect="always"
     xlink:href="#linearGradient5443-0"
     id="radialGradient3270"
     gradientUnits="userSpaceOnUse"
     gradientTransform="matrix(0.83535069,2.5391116e-7,-2.4564601e-7,0.80815885,-821.89024,-331.16994)"
     cx="373.24265"
     cy="467.91885"
     fx="373.24265"
     fy="467.91885"
     r="333.18735" /><radialGradient
     inkscape:collect="always"
     xlink:href="#linearGradient5443-0"
     id="radialGradient3274"
     gradientUnits="userSpaceOnUse"
     gradientTransform="matrix(0.86272606,1.0667183e-7,-5.1097113e-8,0.31433999,-832.10787,-46.459305)"
     cx="373.24265"
     cy="710.99164"
     fx="373.24265"
     fy="710.99164"
     r="333.18735" /><linearGradient
     y2="254.73526"
     x2="123.47623"
     y1="344.03848"
     x1="123.50603"
     gradientTransform="matrix(2.3189708,0,0,2.0930998,-543.56606,-225.82362)"
     gradientUnits="userSpaceOnUse"
     id="linearGradient3422"
     xlink:href="#linearGradient3187"
     inkscape:collect="always" /><radialGradient
     r="333.18735"
     fy="710.99164"
     fx="373.24265"
     cy="710.99164"
     cx="373.24265"
     gradientTransform="matrix(0.86272606,1.0667183e-7,-5.1097113e-8,0.31433999,-736.19251,168.72353)"
     gradientUnits="userSpaceOnUse"
     id="radialGradient3416"
     xlink:href="#linearGradient5443"
     inkscape:collect="always" /><radialGradient
     r="333.18735"
     fy="467.91885"
     fx="373.24265"
     cy="467.91885"
     cx="373.24265"
     gradientTransform="matrix(0.83535069,2.5391116e-7,-2.4564601e-7,0.80815885,-725.97492,-115.98714)"
     gradientUnits="userSpaceOnUse"
     id="radialGradient3412"
     xlink:href="#linearGradient5443"
     inkscape:collect="always" /><radialGradient
     r="333.18735"
     fy="467.91885"
     fx="373.24265"
     cy="467.91885"
     cx="373.24265"
     gradientTransform="matrix(0.83393192,2.4025531e-7,-2.452288e-7,0.76469446,-575.89311,126.3946)"
     gradientUnits="userSpaceOnUse"
     id="radialGradient2894"
     xlink:href="#linearGradient5443"
     inkscape:collect="always" /><linearGradient
     y2="254.73526"
     x2="123.47623"
     y1="344.03848"
     x1="123.50603"
     gradientTransform="matrix(2.3189708,0,0,2.0930998,-543.56606,-225.82362)"
     gradientUnits="userSpaceOnUse"
     id="linearGradient2892"
     xlink:href="#linearGradient3187"
     inkscape:collect="always" /><radialGradient
     r="333.18735"
     fy="710.99164"
     fx="373.24265"
     cy="710.99164"
     cx="373.24265"
     gradientTransform="matrix(0.8612608,1.0093481e-7,-5.1010329e-8,0.29743416,-586.09339,395.79293)"
     gradientUnits="userSpaceOnUse"
     id="radialGradient2890"
     xlink:href="#linearGradient5443"
     inkscape:collect="always" /><linearGradient
     id="linearGradient5443-5"><stop
       style="stop-color:#ffffff;stop-opacity:0;"
       offset="0"
       id="stop5445-4" /><stop
       style="stop-color:#000000;stop-opacity:0.33962265;"
       offset="1"
       id="stop5447-3" /></linearGradient><radialGradient
     r="333.18735"
     fy="710.99164"
     fx="373.24265"
     cy="710.99164"
     cx="373.24265"
     gradientTransform="matrix(0.9503534,1.1750652e-7,-5.6287062e-8,0.3462676,317.80591,185.68771)"
     gradientUnits="userSpaceOnUse"
     id="radialGradient4835-3"
     xlink:href="#linearGradient5443-5"
     inkscape:collect="always" /><filter
     color-interpolation-filters="sRGB"
     id="filter5511"
     inkscape:collect="always"><feGaussianBlur
       id="feGaussianBlur5513"
       stdDeviation="3.2374974"
       inkscape:collect="always" /></filter><radialGradient
     r="333.18735"
     fy="710.99164"
     fx="373.24265"
     cy="710.99164"
     cx="373.24265"
     gradientTransform="matrix(0.8612608,1.0093481e-7,-5.1010329e-8,0.29743416,-586.09339,395.79293)"
     gradientUnits="userSpaceOnUse"
     id="radialGradient4835"
     xlink:href="#linearGradient5443"
     inkscape:collect="always" /><radialGradient
     r="333.18735"
     fy="467.91885"
     fx="373.24265"
     cy="467.91885"
     cx="373.24265"
     gradientTransform="matrix(0.83393192,2.4025531e-7,-2.452288e-7,0.76469446,-575.89311,126.3946)"
     gradientUnits="userSpaceOnUse"
     id="radialGradient4832"
     xlink:href="#linearGradient5443"
     inkscape:collect="always" /><linearGradient
     y2="254.73526"
     x2="123.47623"
     y1="344.03848"
     x1="123.50603"
     gradientTransform="matrix(2.3189708,0,0,2.0930998,-543.56606,-225.82362)"
     gradientUnits="userSpaceOnUse"
     id="linearGradient4827"
     xlink:href="#linearGradient3187"
     inkscape:collect="always" /><linearGradient
     y2="254.73526"
     x2="123.47623"
     y1="344.03848"
     x1="123.50603"
     gradientTransform="matrix(2.3189708,0,0,2.0930998,93.115298,-256.84999)"
     gradientUnits="userSpaceOnUse"
     id="linearGradient4824"
     xlink:href="#linearGradient3187"
     inkscape:collect="always" /><radialGradient
     r="333.18735"
     fy="467.91885"
     fx="373.24265"
     cy="467.91885"
     cx="373.24265"
     gradientTransform="matrix(0.9201975,2.7970099e-7,-2.7059634e-7,0.8902438,28.590287,48.634335)"
     gradientUnits="userSpaceOnUse"
     id="radialGradient4822"
     xlink:href="#linearGradient3171"
     inkscape:collect="always" /><radialGradient
     r="333.18735"
     fy="710.99164"
     fx="373.24265"
     cy="710.99164"
     cx="373.24265"
     gradientTransform="matrix(0.9503534,1.1750652e-7,-5.6287062e-8,0.3462676,17.334826,362.44227)"
     gradientUnits="userSpaceOnUse"
     id="radialGradient4820"
     xlink:href="#linearGradient3157"
     inkscape:collect="always" /><radialGradient
     r="333.18735"
     fy="710.99164"
     fx="373.24265"
     cy="710.99164"
     cx="373.24265"
     gradientTransform="matrix(0.9503534,1.1750652e-7,-5.6287062e-8,0.3462676,17.334826,362.44227)"
     gradientUnits="userSpaceOnUse"
     id="radialGradient4805"
     xlink:href="#linearGradient3157"
     inkscape:collect="always" /><radialGradient
     r="333.18735"
     fy="467.91885"
     fx="373.24265"
     cy="467.91885"
     cx="373.24265"
     gradientTransform="matrix(0.9201975,2.7970099e-7,-2.7059634e-7,0.8902438,28.590287,48.634335)"
     gradientUnits="userSpaceOnUse"
     id="radialGradient4802"
     xlink:href="#linearGradient3171"
     inkscape:collect="always" /><linearGradient
     y2="254.73526"
     x2="123.47623"
     y1="344.03848"
     x1="123.50603"
     gradientTransform="matrix(2.3189708,0,0,2.0930998,93.115298,-256.84999)"
     gradientUnits="userSpaceOnUse"
     id="linearGradient4799"
     xlink:href="#linearGradient3187"
     inkscape:collect="always" /><linearGradient
     y2="254.73526"
     x2="123.47623"
     y1="344.03848"
     x1="123.50603"
     gradientTransform="matrix(2.3189708,0,0,2.0930998,93.115298,-256.84999)"
     gradientUnits="userSpaceOnUse"
     id="linearGradient4794"
     xlink:href="#linearGradient3187"
     inkscape:collect="always" /><radialGradient
     r="333.18735"
     fy="467.91885"
     fx="373.24265"
     cy="467.91885"
     cx="373.24265"
     gradientTransform="matrix(0.9201975,2.7970099e-7,-2.7059634e-7,0.8902438,28.590287,48.634335)"
     gradientUnits="userSpaceOnUse"
     id="radialGradient4792"
     xlink:href="#linearGradient3171"
     inkscape:collect="always" /><radialGradient
     r="333.18735"
     fy="710.99164"
     fx="373.24265"
     cy="710.99164"
     cx="373.24265"
     gradientTransform="matrix(0.9503534,1.1750652e-7,-5.6287062e-8,0.3462676,17.334826,362.44227)"
     gradientUnits="userSpaceOnUse"
     id="radialGradient4790"
     xlink:href="#linearGradient3157"
     inkscape:collect="always" /><radialGradient
     r="333.18735"
     fy="710.99164"
     fx="373.24265"
     cy="710.99164"
     cx="373.24265"
     gradientTransform="matrix(0.9503534,1.1750652e-7,-5.6287062e-8,0.3462676,17.334826,362.44227)"
     gradientUnits="userSpaceOnUse"
     id="radialGradient4779"
     xlink:href="#linearGradient3157"
     inkscape:collect="always" /><radialGradient
     r="333.18735"
     fy="467.91885"
     fx="373.24265"
     cy="467.91885"
     cx="373.24265"
     gradientTransform="matrix(0.9201975,2.7970099e-7,-2.7059634e-7,0.8902438,28.590287,48.634335)"
     gradientUnits="userSpaceOnUse"
     id="radialGradient4776"
     xlink:href="#linearGradient3171"
     inkscape:collect="always" /><linearGradient
     y2="254.73526"
     x2="123.47623"
     y1="344.03848"
     x1="123.50603"
     gradientTransform="matrix(2.3189708,0,0,2.0930998,93.115298,-256.84999)"
     gradientUnits="userSpaceOnUse"
     id="linearGradient4773"
     xlink:href="#linearGradient3187"
     inkscape:collect="always" /><linearGradient
     y2="254.73526"
     x2="123.47623"
     y1="344.03848"
     x1="123.50603"
     gradientTransform="matrix(2.3189708,0,0,2.0930998,93.115298,-256.84999)"
     gradientUnits="userSpaceOnUse"
     id="linearGradient4770"
     xlink:href="#linearGradient3187"
     inkscape:collect="always" /><radialGradient
     r="333.18735"
     fy="467.91885"
     fx="373.24265"
     cy="467.91885"
     cx="373.24265"
     gradientTransform="matrix(0.9201975,2.7970099e-7,-2.7059634e-7,0.8902438,28.590287,48.634335)"
     gradientUnits="userSpaceOnUse"
     id="radialGradient4768"
     xlink:href="#linearGradient3171"
     inkscape:collect="always" /><radialGradient
     r="333.18735"
     fy="710.99164"
     fx="373.24265"
     cy="710.99164"
     cx="373.24265"
     gradientTransform="matrix(0.9503534,1.1750652e-7,-5.6287062e-8,0.3462676,17.334826,362.44227)"
     gradientUnits="userSpaceOnUse"
     id="radialGradient4766"
     xlink:href="#linearGradient3157"
     inkscape:collect="always" /><filter
     color-interpolation-filters="sRGB"
     id="filter4659"
     inkscape:collect="always"><feGaussianBlur
       id="feGaussianBlur4661"
       stdDeviation="2.7750933"
       inkscape:collect="always" /></filter><radialGradient
     r="333.18735"
     fy="710.99164"
     fx="373.24265"
     cy="710.99164"
     cx="373.24265"
     gradientTransform="matrix(0.9503534,1.1750652e-7,-5.6287062e-8,0.3462676,17.334826,362.44227)"
     gradientUnits="userSpaceOnUse"
     id="radialGradient4572"
     xlink:href="#linearGradient3157"
     inkscape:collect="always" /><radialGradient
     r="333.18735"
     fy="467.91885"
     fx="373.24265"
     cy="467.91885"
     cx="373.24265"
     gradientTransform="matrix(0.9201975,2.7970099e-7,-2.7059634e-7,0.8902438,28.590287,48.634335)"
     gradientUnits="userSpaceOnUse"
     id="radialGradient4569"
     xlink:href="#linearGradient3171"
     inkscape:collect="always" /><linearGradient
     y2="254.73526"
     x2="123.47623"
     y1="344.03848"
     x1="123.50603"
     gradientTransform="matrix(2.3189708,0,0,2.0930998,93.115298,-256.84999)"
     gradientUnits="userSpaceOnUse"
     id="linearGradient4562"
     xlink:href="#linearGradient3187"
     inkscape:collect="always" /><linearGradient
     gradientUnits="userSpaceOnUse"
     y2="540.86719"
     x2="360.49777"
     y1="167.50403"
     x1="360.49777"
     id="linearGradient4401"
     xlink:href="#linearGradient4395"
     inkscape:collect="always" /><linearGradient
     gradientUnits="userSpaceOnUse"
     y2="655.4505"
     x2="396.91168"
     y1="298.59412"
     x1="371.42194"
     id="linearGradient4389"
     xlink:href="#linearGradient4383"
     inkscape:collect="always" /><inkscape:perspective
     id="perspective3214"
     inkscape:persp3d-origin="372.04724 : 350.78739 : 1"
     inkscape:vp_z="744.09448 : 526.18109 : 1"
     inkscape:vp_y="0 : 1000 : 0"
     inkscape:vp_x="0 : 526.18109 : 1"
     sodipodi:type="inkscape:persp3d" /><linearGradient
     id="linearGradient4383"><stop
       id="stop4385"
       offset="0"
       style="stop-color:#00037f;stop-opacity:1;" /><stop
       id="stop4387"
       offset="1"
       style="stop-color:#00037f;stop-opacity:0;" /></linearGradient><linearGradient
     id="linearGradient4395"><stop
       id="stop4397"
       offset="0"
       style="stop-color:#110084;stop-opacity:1;" /><stop
       id="stop4399"
       offset="1"
       style="stop-color:#a695ff;stop-opacity:1;" /></linearGradient><linearGradient
     id="linearGradient3187"><stop
       id="stop3189"
       offset="0"
       style="stop-color:#ffffff;stop-opacity:0.39622641;" /><stop
       id="stop3191"
       offset="1"
       style="stop-color:#9e9e9e;stop-opacity:1;" /></linearGradient><linearGradient
     id="linearGradient3171"><stop
       style="stop-color:#49bcff;stop-opacity:1;"
       offset="0"
       id="stop3173" /><stop
       style="stop-color:#494cdc;stop-opacity:1;"
       offset="1"
       id="stop3175" /></linearGradient><linearGradient
     id="linearGradient3157"><stop
       id="stop3159"
       offset="0"
       style="stop-color:#49bcff;stop-opacity:1;" /><stop
       id="stop3161"
       offset="1"
       style="stop-color:#494c96;stop-opacity:1;" /></linearGradient><linearGradient
     id="linearGradient5443"><stop
       style="stop-color:#ffffff;stop-opacity:0;"
       offset="0"
       id="stop5445" /><stop
       style="stop-color:#cbcac8;stop-opacity:1;"
       offset="1"
       id="stop5447" /></linearGradient><radialGradient
     inkscape:collect="always"
     xlink:href="#linearGradient5443"
     id="radialGradient3253"
     gradientUnits="userSpaceOnUse"
     gradientTransform="matrix(0.8612608,1.0093481e-7,-5.1010329e-8,0.29743416,-586.09339,395.79293)"
     cx="373.24265"
     cy="710.99164"
     fx="373.24265"
     fy="710.99164"
     r="333.18735" /><linearGradient
     inkscape:collect="always"
     xlink:href="#linearGradient3187"
     id="linearGradient3255"
     gradientUnits="userSpaceOnUse"
     gradientTransform="matrix(2.3189708,0,0,2.0930998,-543.56606,-225.82362)"
     x1="123.50603"
     y1="344.03848"
     x2="123.47623"
     y2="254.73526" /><radialGradient
     inkscape:collect="always"
     xlink:href="#linearGradient5443"
     id="radialGradient3257"
     gradientUnits="userSpaceOnUse"
     gradientTransform="matrix(0.83393192,2.4025531e-7,-2.452288e-7,0.76469446,-575.89311,126.3946)"
     cx="373.24265"
     cy="467.91885"
     fx="373.24265"
     fy="467.91885"
     r="333.18735" /><radialGradient
     inkscape:collect="always"
     xlink:href="#linearGradient5443"
     id="radialGradient3273"
     gradientUnits="userSpaceOnUse"
     gradientTransform="matrix(0.8612608,1.0093481e-7,-5.1010329e-8,0.29743416,-586.09339,395.79293)"
     cx="373.24265"
     cy="710.99164"
     fx="373.24265"
     fy="710.99164"
     r="333.18735" /><linearGradient
     inkscape:collect="always"
     xlink:href="#linearGradient3187"
     id="linearGradient3275"
     gradientUnits="userSpaceOnUse"
     gradientTransform="matrix(2.3189708,0,0,2.0930998,-543.56606,-225.82362)"
     x1="123.50603"
     y1="344.03848"
     x2="123.47623"
     y2="254.73526" /><radialGradient
     inkscape:collect="always"
     xlink:href="#linearGradient5443"
     id="radialGradient3277"
     gradientUnits="userSpaceOnUse"
     gradientTransform="matrix(0.83393192,2.4025531e-7,-2.452288e-7,0.76469446,-575.89311,126.3946)"
     cx="373.24265"
     cy="467.91885"
     fx="373.24265"
     fy="467.91885"
     r="333.18735" /></defs><sodipodi:namedview
   pagecolor="#ffffff"
   bordercolor="#666666"
   borderopacity="1"
   objecttolerance="10"
   gridtolerance="10"
   guidetolerance="10"
   inkscape:pageopacity="0"
   inkscape:pageshadow="2"
   inkscape:window-width="1920"
   inkscape:window-height="1031"
   id="namedview15"
   showgrid="false"
   fit-margin-top="0"
   fit-margin-left="0"
   fit-margin-right="0"
   fit-margin-bottom="0"
   inkscape:zoom="1.1919192"
   inkscape:cx="175"
   inkscape:cy="166.65657"
   inkscape:window-x="-4"
   inkscape:window-y="-4"
   inkscape:window-maximized="1"
   inkscape:current-layer="_x31_" />



<g
   id="g4176"
   transform="translate(-4.0524847e-6,1.5294449e-7)"><g
     transform="translate(589.18636,-87.165827)"
     id="g4448"><rect
       transform="matrix(2.1051501,0,0,2.1051501,-860.18934,-1.2010596)"
       ry="12.45238"
       rx="16.067965"
       y="48.636749"
       x="135.39355"
       height="152.93848"
       width="152.93848"
       id="rect4192"
       style="fill:#cccccc;fill-opacity:1;stroke:none;filter:url(#filter4659)"
       inkscape:export-filename="C:\Documents and Settings\adscro24\Desktop\128.png"
       inkscape:export-xdpi="29.879425"
       inkscape:export-ydpi="29.879425" /><rect
       inkscape:export-ydpi="29.879425"
       inkscape:export-xdpi="29.879425"
       inkscape:export-filename="C:\Documents and Settings\adscro24\Desktop\128.png"
       style="fill:#cbcac8;fill-opacity:1;stroke:none;filter:url(#filter4659)"
       id="rect3279"
       width="152.93848"
       height="152.93848"
       x="135.39355"
       y="48.636749"
       rx="16.067965"
       ry="12.45238"
       transform="matrix(2.1051501,0,0,2.1051501,-860.18934,-1.2010596)" /><rect
       inkscape:export-ydpi="29.879425"
       inkscape:export-xdpi="29.879425"
       inkscape:export-filename="C:\Documents and Settings\adscro24\Desktop\128.png"
       style="opacity:0.61338286;fill:url(#radialGradient4456);fill-opacity:1;stroke:#000000;stroke-width:3.26806188;stroke-miterlimit:4;stroke-opacity:1;stroke-dasharray:none"
       id="rect3155"
       width="321.95847"
       height="321.95844"
       x="-575.16559"
       y="101.18661"
       rx="33.825478"
       ry="26.214128" /><path
       transform="matrix(0.907795,0,0,0.90779498,-173.95283,-177.39738)"
       inkscape:export-ydpi="29.879425"
       inkscape:export-xdpi="29.879425"
       inkscape:export-filename="C:\Documents and Settings\adscro24\Desktop\128.png"
       inkscape:connector-curvature="0"
       style="opacity:0.61338286;fill:url(#linearGradient4458);fill-opacity:1;stroke:none;filter:url(#filter5511)"
       d="m -397.80626,329.07489 c -19.62748,0 -35.44272,12.0976 -35.44272,27.14163 l 0,124.30857 c 29.25482,11.38638 132.70149,11.89599 165.40488,-5.79022 33.32802,-18.02397 127.54379,-68.44264 171.824837,-52.72052 l 0,-65.79783 c 0,-15.04403 -15.798597,-27.14163 -35.426097,-27.14163 l -266.3609,0 z m -35.44272,263.47103 0,42.88373 c 0,1.33144 0.14331,2.63588 0.38253,3.915 -0.11919,-12.81092 -0.25965,-28.88939 -0.38253,-46.79873 z"
       id="rect3177" /><rect
       inkscape:export-ydpi="29.879425"
       inkscape:export-xdpi="29.879425"
       inkscape:export-filename="C:\Documents and Settings\adscro24\Desktop\128.png"
       style="opacity:0.61338286;fill:url(#radialGradient4460);fill-opacity:1;stroke:#ffffff;stroke-width:0.68992418;stroke-linecap:square;stroke-miterlimit:4;stroke-opacity:1;stroke-dasharray:none"
       id="rect3473"
       width="306.12445"
       height="306.12445"
       x="-567.2486"
       y="109.1036"
       rx="32.161926"
       ry="24.924911" /><rect
       inkscape:export-ydpi="29.879425"
       inkscape:export-xdpi="29.879425"
       inkscape:export-filename="C:\Documents and Settings\adscro24\Desktop\128.png"
       style="opacity:0.61338286;fill:#ffffff;fill-opacity:0;stroke:#000000;stroke-width:3.26806188;stroke-miterlimit:4;stroke-opacity:1;stroke-dasharray:none"
       id="rect3155-2"
       width="321.95847"
       height="321.95844"
       x="-575.16559"
       y="101.18661"
       rx="33.825478"
       ry="26.214128" /></g><g
     transform="translate(358.29183,-87.165827)"
     id="LWPOLYLINE_2_-7">
	
		
</g><g
     transform="translate(358.29183,-87.165827)"
     id="LWPOLYLINE_3_-4">
	
		
</g><g
     transform="translate(358.29183,-87.165827)"
     id="LWPOLYLINE_4_">
	
		
</g><g
     transform="translate(184.65055,-351.95215)"
     style="fill:#000000;fill-opacity:1;stroke:none"
     id="LWPOLYLINE_6_-7">
	
		
</g><g
     transform="translate(184.65055,-351.95215)"
     style="fill:#000000;fill-opacity:1;stroke:none"
     id="LWPOLYLINE-4">
	
		
</g><g
     transform="translate(184.65055,-351.95215)"
     style="fill:#000000;fill-opacity:1;stroke:none"
     id="LWPOLYLINE_3_-0">
	
		
</g></g><g
   id="g2996"
   transform="matrix(0.62500978,0,0,0.62500978,-16.257506,-72.18499)"
   style="fill:#000000;fill-opacity:1;stroke:none"><g
     id="LWPOLYLINE"
     style="fill:#000000;fill-opacity:1;stroke:none">
	
		<path
   style="fill:#000000;fill-opacity:1;stroke:none"
   d="m 308.3125,472.34375 -1.84375,0.0312 -1.875,0.0625 -1.78125,0.125 -1.75,0.1875 -1.75,0.21875 -1.65625,0.25 -1.65625,0.3125 -1.5625,0.34375 -1.5625,0.40625 -1.5,0.4375 -1.4375,0.46875 -1.40625,0.53125 -1.375,0.5625 -1.3125,0.59375 -1.28125,0.625 -1.25,0.6875 -1.15625,0.71875 -1.15625,0.75 -1.09375,0.78125 -1.03125,0.84375 -1,0.84375 -0.96875,0.875 -0.875,0.9375 -0.84375,0.9375 -0.8125,1 -0.75,1.03125 -0.71875,1.03125 L 272.25,489 l -0.59375,1.09375 -0.5625,1.125 -0.5,1.15625 -0.4375,1.15625 -0.40625,1.21875 -0.3125,1.21875 -0.3125,1.25 -0.25,1.28125 -0.1875,1.28125 -0.15625,1.3125 -0.0625,1.3125 -0.0312,1.375 0,0.84375 0.0625,0.875 0.0625,0.875 0.125,0.84375 0.125,0.875 0.15625,0.875 0.1875,0.84375 0.25,0.875 0.25,0.8125 0.28125,0.84375 0.3125,0.84375 0.34375,0.84375 0.40625,0.84375 0.375,0.78125 0.4375,0.8125 0.46875,0.78125 0.5,0.8125 0.53125,0.75 0.5625,0.78125 0.625,0.71875 0.625,0.75 0.65625,0.71875 0.6875,0.65625 0.71875,0.6875 0.75,0.6875 0.8125,0.65625 0.78125,0.625 0.875,0.5625 0.875,0.59375 0.90625,0.5625 1,0.53125 0.96875,0.5 1,0.5 1.0625,0.4375 1.09375,0.46875 1.125,0.40625 1.15625,0.34375 1.15625,0.375 1.21875,0.3125 1.25,0.28125 -0.5625,0.15625 -0.59375,0.15625 -0.65625,0.15625 -0.6875,0.1875 -0.6875,0.21875 -0.75,0.1875 -0.75,0.25 -0.78125,0.25 -0.8125,0.3125 -0.84375,0.28125 -0.8125,0.34375 -0.875,0.375 -0.84375,0.375 -0.875,0.40625 -0.875,0.46875 -0.875,0.46875 -0.875,0.53125 -0.84375,0.5625 -0.84375,0.59375 -0.875,0.59375 -0.8125,0.65625 -0.84375,0.71875 -0.78125,0.75 -0.78125,0.8125 -0.71875,0.8125 -0.75,0.90625 -0.6875,0.9375 -0.625,0.96875 -0.625,1.03125 -0.59375,1.09375 -0.53125,1.125 -0.5,1.21875 -0.4375,1.21875 -0.40625,1.34375 -0.34375,1.34375 -0.28125,1.4375 -0.25,1.5 -0.1875,1.5625 -0.0625,1.625 -0.0312,1.65625 0.0312,1.25 0.0625,1.25 0.0625,1.21875 0.15625,1.25 0.21875,1.25 L 268,568 l 0.28125,1.25 0.3125,1.25 0.375,1.21875 0.4375,1.21875 0.46875,1.21875 0.53125,1.21875 0.5625,1.15625 0.625,1.15625 0.65625,1.15625 0.75,1.125 0.78125,1.125 0.84375,1.0625 0.875,1.0625 0.9375,1.03125 1,0.96875 1.0625,0.96875 1.125,0.90625 1.1875,0.90625 1.25,0.84375 1.28125,0.84375 1.375,0.75 1.40625,0.71875 1.46875,0.65625 1.5625,0.625 1.625,0.59375 1.65625,0.53125 1.78125,0.46875 1.78125,0.40625 1.90625,0.375 1.9375,0.28125 2,0.25 2.09375,0.15625 2.15625,0.0937 2.21875,0.0312 2.21875,-0.0312 2.09375,-0.0937 2.0625,-0.15625 1.96875,-0.25 1.9375,-0.28125 1.84375,-0.375 1.8125,-0.40625 1.75,-0.46875 1.625,-0.53125 1.59375,-0.59375 1.5625,-0.625 1.5,-0.65625 1.40625,-0.71875 1.34375,-0.75 1.3125,-0.84375 1.25,-0.84375 1.15625,-0.90625 1.125,-0.90625 1.09375,-0.96875 1,-0.96875 0.96875,-1.03125 0.90625,-1.0625 0.84375,-1.0625 0.8125,-1.125 0.71875,-1.125 0.6875,-1.15625 0.65625,-1.15625 0.59375,-1.15625 0.53125,-1.21875 0.5,-1.21875 0.40625,-1.21875 L 348,570.5 l 0.34375,-1.25 0.28125,-1.25 0.25,-1.21875 0.1875,-1.25 0.15625,-1.25 0.125,-1.21875 0.0625,-1.25 0.0312,-1.25 -0.0312,-1.65625 -0.125,-1.625 -0.15625,-1.5625 -0.21875,-1.5 -0.3125,-1.4375 -0.34375,-1.34375 -0.40625,-1.34375 -0.5,-1.21875 -0.5,-1.21875 -0.5625,-1.125 -0.5625,-1.09375 -0.65625,-1.03125 -0.65625,-0.96875 -0.71875,-0.9375 -0.71875,-0.90625 -0.78125,-0.8125 -0.78125,-0.8125 -0.8125,-0.75 -0.8125,-0.71875 -0.875,-0.65625 -0.84375,-0.59375 -0.84375,-0.59375 -0.90625,-0.5625 -0.84375,-0.53125 -0.875,-0.46875 -0.875,-0.46875 -0.875,-0.40625 -0.875,-0.375 -0.84375,-0.375 -0.8125,-0.34375 -0.8125,-0.28125 -0.78125,-0.3125 -0.8125,-0.25 -0.71875,-0.25 -0.71875,-0.1875 -0.6875,-0.21875 -0.65625,-0.1875 -0.59375,-0.15625 -0.5625,-0.15625 -0.53125,-0.15625 1.1875,-0.28125 1.1875,-0.3125 1.15625,-0.375 1.125,-0.34375 1.0625,-0.40625 1.0625,-0.46875 1.03125,-0.4375 0.96875,-0.5 0.9375,-0.5 0.9375,-0.53125 L 335,526.25 l 0.84375,-0.59375 0.84375,-0.5625 0.8125,-0.625 0.78125,-0.65625 0.71875,-0.6875 0.71875,-0.6875 0.6875,-0.65625 0.625,-0.71875 0.59375,-0.75 0.59375,-0.71875 0.5625,-0.78125 0.53125,-0.75 0.5,-0.8125 0.4375,-0.78125 0.4375,-0.8125 0.4375,-0.78125 0.34375,-0.84375 0.34375,-0.84375 0.3125,-0.84375 0.28125,-0.84375 0.28125,-0.8125 0.1875,-0.875 0.21875,-0.84375 0.15625,-0.875 0.125,-0.875 0.0937,-0.84375 0.0937,-0.875 0.0312,-0.875 0.0312,-0.84375 -0.0312,-1.375 -0.0937,-1.3125 -0.15625,-1.3125 -0.15625,-1.28125 -0.25,-1.28125 -0.28125,-1.25 -0.375,-1.21875 -0.375,-1.21875 -0.4375,-1.15625 -0.5,-1.15625 -0.5625,-1.125 L 343.8125,489 l -0.65625,-1.0625 -0.6875,-1.03125 -0.75,-1.03125 -0.78125,-1 -0.875,-0.9375 -0.875,-0.9375 -0.9375,-0.875 -1,-0.84375 -1.03125,-0.84375 -1.09375,-0.78125 -1.09375,-0.75 -1.15625,-0.71875 -1.21875,-0.6875 -1.28125,-0.625 -1.28125,-0.59375 -1.375,-0.5625 -1.375,-0.53125 -1.40625,-0.46875 -1.46875,-0.4375 -1.5625,-0.40625 -1.53125,-0.34375 -1.625,-0.3125 -1.625,-0.25 -1.65625,-0.21875 -1.75,-0.1875 -1.75,-0.125 -1.78125,-0.0625 -1.875,-0.0312 z m -1.09375,12.71875 1.09375,0 1.09375,0 1.0625,0.0312 1.03125,0.0937 1,0.0937 0.96875,0.15625 1,0.15625 0.90625,0.1875 0.90625,0.21875 0.875,0.25 0.875,0.28125 0.84375,0.3125 0.8125,0.3125 0.78125,0.34375 0.78125,0.40625 0.71875,0.375 0.71875,0.4375 0.6875,0.4375 0.65625,0.46875 0.625,0.5 0.59375,0.53125 0.5625,0.53125 0.5625,0.53125 0.53125,0.5625 0.46875,0.59375 0.46875,0.59375 0.4375,0.625 0.4375,0.65625 0.375,0.65625 0.3125,0.65625 0.34375,0.71875 0.28125,0.71875 0.28125,0.6875 0.21875,0.75 0.21875,0.71875 0.15625,0.78125 0.125,0.78125 0.125,0.75 0.0937,0.8125 0.0312,0.78125 0.0312,0.84375 -0.0312,0.84375 -0.0625,0.8125 -0.0937,0.84375 -0.125,0.78125 -0.15625,0.8125 -0.21875,0.75 -0.25,0.75 -0.25,0.75 -0.28125,0.6875 -0.34375,0.71875 -0.375,0.6875 -0.375,0.625 -0.4375,0.65625 -0.46875,0.625 -0.46875,0.625 -0.5,0.5625 -0.5625,0.5625 -0.5625,0.5625 -0.5625,0.5 -0.625,0.5 -0.625,0.46875 -0.65625,0.46875 -0.6875,0.40625 -0.6875,0.40625 -0.71875,0.40625 -0.75,0.375 -0.75,0.3125 -0.8125,0.34375 -0.78125,0.28125 -0.8125,0.28125 -0.84375,0.21875 -0.84375,0.25 -0.875,0.1875 -0.84375,0.15625 -0.9375,0.15625 -0.875,0.125 -0.90625,0.0625 -0.9375,0.0937 -0.9375,0.0312 -0.96875,0.0312 -0.96875,-0.0312 -0.96875,-0.0312 -0.96875,-0.0937 -0.96875,-0.0625 -0.90625,-0.125 -0.90625,-0.15625 -0.90625,-0.15625 -0.875,-0.1875 -0.875,-0.25 -0.84375,-0.21875 -0.8125,-0.28125 -0.78125,-0.28125 -0.8125,-0.34375 -0.75,-0.3125 -0.75,-0.375 -0.7187,-0.4061 -0.6875,-0.40625 L 293.15625,519 292.5,518.53125 l -0.65625,-0.46875 -0.59375,-0.5 -0.5625,-0.5 -0.5625,-0.5625 -0.53125,-0.5625 -0.46875,-0.5625 -0.46875,-0.625 -0.4375,-0.625 -0.40625,-0.65625 -0.375,-0.625 -0.375,-0.6875 -0.28125,-0.71875 -0.3125,-0.6875 -0.25,-0.75 -0.21875,-0.75 -0.1875,-0.75 -0.15625,-0.8125 -0.125,-0.78125 -0.0937,-0.84375 -0.0625,-0.8125 -0.0312,-0.84375 0.0312,-0.84375 0.0312,-0.78125 0.0937,-0.8125 0.0937,-0.75 0.15625,-0.78125 0.15625,-0.78125 0.1875,-0.71875 0.21875,-0.75 0.21875,-0.6875 0.3125,-0.71875 0.28125,-0.71875 0.34375,-0.65625 0.375,-0.65625 0.375,-0.65625 0.40625,-0.625 0.46875,-0.59375 0.5,-0.59375 0.5,-0.5625 0.53125,-0.53125 0.5625,-0.53125 0.5625,-0.53125 0.625,-0.5 0.65625,-0.46875 0.6875,-0.4375 0.6875,-0.4375 0.75,-0.375 0.78125,-0.40625 0.78125,-0.34375 0.8125,-0.3125 0.84375,-0.3125 0.84375,-0.28125 0.9375,-0.25 0.90625,-0.21875 0.96875,-0.1875 0.96875,-0.15625 1,-0.15625 1.03125,-0.0937 1.09375,-0.0937 1.09375,-0.0312 z m 0.0312,53.1875 1.0625,0 1.0625,0 1,0.0625 1,0.0312 1,0.125 0.96875,0.15625 0.9375,0.15625 0.9375,0.1875 0.875,0.25 0.9375,0.25 0.84375,0.28125 0.84375,0.3125 0.84375,0.375 0.78125,0.34375 0.78125,0.40625 0.78125,0.40625 0.71875,0.4375 0.71875,0.5 0.6875,0.5 0.65625,0.53125 0.625,0.5625 0.625,0.5625 0.59375,0.59375 0.5625,0.65625 0.53125,0.65625 0.5,0.6875 0.46875,0.65625 0.4375,0.75 0.40625,0.75 0.40625,0.75 0.34375,0.8125 0.3125,0.78125 0.28125,0.84375 0.25,0.84375 0.25,0.875 0.15625,0.90625 0.1875,0.90625 0.125,0.90625 0.0937,0.9375 0.0625,0.96875 0,1.03125 0,0.625 -0.0312,0.65625 -0.0312,0.6875 -0.0625,0.6875 -0.0937,0.6875 -0.125,0.71875 -0.125,0.71875 -0.125,0.71875 -0.1875,0.71875 -0.1875,0.71875 -0.21875,0.75 -0.25,0.71875 -0.28125,0.71875 -0.3125,0.75 -0.34375,0.71875 -0.34375,0.6875 -0.40625,0.71875 -0.4375,0.6875 -0.46875,0.65625 -0.5,0.6875 -0.5625,0.65625 -0.5625,0.625 -0.625,0.59375 L 325,576.5 l -0.71875,0.5625 -0.75,0.5625 -0.75,0.5 -0.84375,0.5 -0.84375,0.46875 -0.90625,0.4375 -0.96875,0.40625 -1.03125,0.34375 -1.0625,0.34375 -1.0625,0.28125 -1.15625,0.25 -1.21875,0.1875 -1.28125,0.1875 -1.28125,0.125 -1.375,0.0625 -1.4375,0.0312 -1.40625,-0.0312 -1.375,-0.0625 -1.3125,-0.125 -1.28125,-0.1875 -1.1875,-0.1875 -1.15625,-0.25 -1.125,-0.28125 -1.0625,-0.34375 -1.03125,-0.34375 -0.96875,-0.40625 -0.96875,-0.4375 -0.84375,-0.46875 -0.84375,-0.5 -0.8125,-0.5 -0.75,-0.5625 -0.71875,-0.5625 -0.6875,-0.59375 -0.65625,-0.59375 -0.5625,-0.625 L 289,574.03125 288.46875,573.34375 288,572.6875 287.5,572 l -0.40625,-0.71875 -0.375,-0.6875 -0.34375,-0.71875 -0.375,-0.75 -0.28125,-0.71875 -0.28125,-0.71875 -0.21875,-0.75 L 285,566.21875 284.8125,565.5 284.65625,564.78125 284.5,564.0625 l -0.0937,-0.71875 -0.0937,-0.6875 -0.0625,-0.6875 -0.0312,-0.6875 -0.0312,-0.65625 -0.0312,-0.625 0.0312,-1.03125 L 284.25,558 l 0.0625,-0.9375 0.125,-0.90625 0.15625,-0.90625 0.21875,-0.90625 0.1875,-0.875 0.28125,-0.84375 0.28125,-0.84375 0.34375,-0.78125 0.34375,-0.8125 0.375,-0.75 0.4375,-0.75 0.4375,-0.75 0.5,-0.65625 0.5,-0.6875 0.53125,-0.65625 0.5625,-0.65625 0.59375,-0.59375 0.625,-0.5625 0.65625,-0.5625 0.65625,-0.53125 0.6875,-0.5 0.75,-0.5 0.75,-0.4375 0.78125,-0.40625 0.8125,-0.40625 0.8125,-0.34375 0.84375,-0.375 0.875,-0.3125 0.875,-0.28125 0.9375,-0.25 0.9375,-0.25 0.96875,-0.1875 0.96875,-0.15625 1,-0.15625 1.03125,-0.125 1.03125,-0.0312 1.0625,-0.0625 z"
   transform="matrix(1.6028628,0,0,1.6028628,-78.268859,-359.21841)"
   id="polygon4"
   inkscape:connector-curvature="0" />
</g><g
     id="LWPOLYLINE_1_"
     style="fill:#000000;fill-opacity:1;stroke:none">
	
		
</g><g
     id="LWPOLYLINE_2_"
     style="fill:#000000;fill-opacity:1;stroke:none">
	
		
</g><g
     id="LWPOLYLINE_3_"
     style="fill:#000000;fill-opacity:1;stroke:none">
	
		<path
   id="path13"
   d="m 217.364,229.223 c -0.071,0 -0.261,0.023 -0.261,0.023 l -0.331,0.023 -0.449,0.047 -0.544,0.072 -0.662,0.047 -0.757,0.094 -0.852,0.072 -0.945,0.094 -0.994,0.119 -1.088,0.094 -1.135,0.119 -1.206,0.117 -1.229,0.143 -1.301,0.117 -1.324,0.143 -1.349,0.119 -1.371,0.141 -1.372,0.143 -1.396,0.143 -1.395,0.141 -1.396,0.143 -1.372,0.143 -1.348,0.141 -1.324,0.119 -1.277,0.141 -1.253,0.119 -1.183,0.117 -1.159,0.119 -1.064,0.119 -1.017,0.094 -0.922,0.094 -0.852,0.096 -0.757,0.07 -0.662,0.072 -0.567,0.047 -0.426,0.047 -0.331,0.023 c -0.213,0.023 -0.284,0.023 -0.284,0.023 0.166,-0.189 0.379,-0.449 0.379,-0.449 l 0.26,-0.355 0.354,-0.449 0.402,-0.52 0.473,-0.592 0.497,-0.662 0.591,-0.732 0.615,-0.805 0.662,-0.852 0.686,-0.898 0.733,-0.945 0.757,-0.971 0.804,-1.016 0.805,-1.041 0.827,-1.064 0.828,-1.088 0.852,-1.088 0.851,-1.088 0.852,-1.111 0.852,-1.088 0.852,-1.064 0.827,-1.088 0.805,-1.039 0.78,-0.994 0.757,-0.994 0.733,-0.945 0.709,-0.898 0.662,-0.852 0.615,-0.779 0.567,-0.734 0.521,-0.686 0.473,-0.592 0.402,-0.52 0.331,-0.426 0.283,-0.355 0.189,-0.26 c 0.142,-0.236 0.071,-0.283 0.071,-0.283 -0.143,-0.07 -0.308,-0.166 -0.308,-0.166 -0.213,-0.117 -0.473,-0.26 -0.473,-0.26 l -0.284,-0.189 -0.331,-0.189 -0.379,-0.189 -0.378,-0.236 -0.426,-0.236 -0.426,-0.26 -0.473,-0.26 -0.473,-0.285 -0.521,-0.283 -0.497,-0.283 -0.521,-0.309 -0.544,-0.307 -0.544,-0.307 -0.52,-0.309 -0.544,-0.307 -0.544,-0.309 -0.521,-0.307 -0.544,-0.283 -0.497,-0.309 -0.496,-0.283 -0.497,-0.283 -0.449,-0.262 -0.449,-0.26 -0.426,-0.236 -0.378,-0.213 -0.379,-0.213 -0.308,-0.189 -0.307,-0.164 -0.261,-0.143 c -0.213,-0.119 -0.378,-0.236 -0.378,-0.236 -0.236,-0.119 -0.261,-0.07 -0.261,-0.07 -0.094,0.188 -0.213,0.473 -0.213,0.473 l -0.188,0.402 -0.236,0.496 -0.261,0.592 -0.308,0.662 -0.354,0.756 -0.378,0.828 -0.402,0.898 -0.449,0.945 -0.449,1.018 -0.497,1.064 -0.521,1.111 -0.52,1.158 -0.544,1.16 -0.544,1.205 -0.567,1.23 -0.544,1.229 -0.568,1.23 -0.567,1.23 -0.567,1.229 -0.567,1.23 -0.544,1.205 -0.544,1.16 -0.521,1.158 -0.521,1.111 -0.496,1.041 -0.449,1.018 -0.45,0.969 -0.401,0.898 -0.379,0.828 -0.354,0.756 -0.308,0.662 -0.283,0.592 -0.213,0.496 -0.189,0.402 -0.118,0.283 c -0.236,0 -0.354,-0.283 -0.354,-0.283 l -0.166,-0.402 -0.213,-0.496 -0.26,-0.592 -0.284,-0.662 -0.331,-0.756 -0.378,-0.828 -0.379,-0.898 -0.426,-0.969 -0.449,-1.018 -0.449,-1.041 -0.496,-1.111 -0.497,-1.158 -0.497,-1.16 -0.544,-1.205 -0.52,-1.23 -0.544,-1.229 -0.544,-1.23 -0.521,-1.23 -0.544,-1.229 -0.544,-1.23 -0.521,-1.205 -0.496,-1.16 -0.497,-1.158 -0.496,-1.111 -0.474,-1.064 -0.426,-1.018 -0.426,-0.945 -0.401,-0.898 -0.354,-0.828 -0.332,-0.756 -0.283,-0.662 -0.26,-0.592 -0.213,-0.496 -0.166,-0.402 -0.142,-0.285 c -0.189,-0.188 -0.308,-0.117 -0.308,-0.117 -0.166,0.117 -0.379,0.236 -0.379,0.236 l -0.236,0.143 -0.283,0.164 -0.308,0.189 -0.354,0.213 -0.355,0.213 -0.401,0.236 -0.426,0.26 -0.426,0.262 -0.473,0.283 -0.474,0.283 -0.473,0.309 -0.497,0.283 -0.52,0.307 -0.497,0.309 -0.521,0.307 -0.496,0.309 -0.521,0.307 -0.497,0.307 -0.496,0.309 -0.497,0.283 -0.473,0.283 -0.449,0.285 -0.426,0.26 -0.426,0.26 -0.402,0.236 -0.378,0.236 -0.331,0.189 -0.308,0.189 -0.284,0.189 -0.236,0.143 c -0.213,0.117 -0.378,0.213 -0.378,0.213 -0.166,0.188 -0.048,0.354 -0.048,0.354 l 0.189,0.26 0.261,0.355 0.331,0.426 0.378,0.52 0.449,0.592 0.521,0.686 0.544,0.734 0.591,0.779 0.639,0.852 0.686,0.898 0.71,0.945 0.733,0.994 0.757,0.994 0.78,1.039 0.804,1.088 0.804,1.064 0.828,1.088 0.828,1.111 0.804,1.088 0.828,1.088 0.827,1.088 0.78,1.064 0.78,1.041 0.781,1.016 0.732,0.971 0.71,0.945 0.662,0.898 0.639,0.852 0.591,0.805 0.567,0.732 0.497,0.662 0.449,0.592 0.402,0.52 0.307,0.449 0.284,0.355 0.189,0.26 c -0.118,0.166 -0.449,0.119 -0.449,0.119 l -0.449,-0.047 -0.544,-0.072 -0.662,-0.07 -0.757,-0.094 -0.852,-0.096 -0.923,-0.117 -1.017,-0.119 -1.088,-0.143 -1.135,-0.141 -1.183,-0.143 -1.254,-0.143 -1.276,-0.164 -1.324,-0.143 -1.372,-0.166 -1.348,-0.166 -1.396,-0.188 -1.396,-0.166 -1.396,-0.166 -1.371,-0.166 -1.372,-0.164 -1.348,-0.166 -1.324,-0.166 -1.301,-0.143 -1.229,-0.164 -1.207,-0.143 -1.135,-0.143 -1.088,-0.117 -0.993,-0.119 -0.946,-0.117 -0.851,-0.096 -0.757,-0.094 -0.662,-0.096 -0.544,-0.07 -0.45,-0.047 -0.331,-0.023 c -0.188,-0.047 -0.26,-0.047 -0.26,-0.047 0,0.236 0,0.426 0,0.426 0,0.211 0,0.496 0,0.496 v 0.307 0.332 0.377 0.402 0.449 0.449 0.498 0.496 0.52 0.545 0.543 0.545 0.566 0.545 0.568 0.566 0.545 0.543 0.545 0.52 0.496 0.498 0.449 0.449 0.4 0.379 0.332 0.307 0.283 c 0,0.213 0,0.402 0,0.402 0.071,0.236 0.26,0.213 0.26,0.213 l 0.308,-0.023 0.449,-0.023 0.544,-0.023 0.639,-0.047 0.757,-0.049 0.828,-0.047 0.898,-0.07 0.993,-0.047 1.064,-0.072 1.111,-0.07 1.183,-0.07 1.206,-0.072 1.277,-0.07 1.276,-0.094 1.324,-0.072 1.349,-0.094 1.348,-0.07 1.372,-0.096 1.371,-0.07 1.349,-0.096 1.348,-0.07 1.324,-0.094 1.301,-0.072 1.253,-0.094 1.206,-0.07 1.183,-0.072 1.111,-0.07 1.064,-0.07 0.993,-0.049 0.899,-0.047 0.851,-0.07 0.733,-0.047 0.639,-0.025 0.544,-0.047 0.449,-0.023 0.308,-0.023 c 0.213,0 0.26,0 0.26,0 -0.165,0.213 -0.354,0.449 -0.354,0.449 l -0.26,0.355 -0.355,0.449 -0.401,0.52 -0.474,0.592 -0.52,0.662 -0.568,0.732 -0.614,0.805 -0.662,0.852 -0.687,0.898 -0.732,0.945 -0.757,0.971 -0.805,1.016 -0.804,1.041 -0.828,1.064 -0.827,1.088 -0.852,1.088 -0.852,1.088 -0.852,1.111 -0.851,1.088 -0.852,1.088 -0.828,1.064 -0.804,1.041 -0.78,0.992 -0.78,0.994 -0.733,0.945 -0.686,0.898 -0.662,0.852 -0.615,0.805 -0.567,0.709 -0.521,0.686 -0.473,0.592 -0.402,0.52 -0.331,0.449 -0.284,0.332 -0.188,0.26 c -0.143,0.236 -0.071,0.283 -0.071,0.283 0.142,0.049 0.308,0.143 0.308,0.143 0.213,0.119 0.473,0.236 0.473,0.236 l 0.284,0.166 0.331,0.166 0.354,0.188 0.402,0.213 0.426,0.213 0.425,0.238 0.474,0.236 0.473,0.26 0.521,0.26 0.496,0.26 0.521,0.26 0.544,0.285 0.521,0.283 0.544,0.283 0.544,0.285 0.544,0.283 0.521,0.26 0.52,0.283 0.521,0.262 0.497,0.26 0.496,0.26 0.449,0.236 0.449,0.236 0.426,0.213 0.379,0.213 0.354,0.189 0.331,0.166 0.308,0.141 0.26,0.143 c 0.213,0.119 0.379,0.213 0.379,0.213 0.236,0.117 0.26,0.047 0.26,0.047 0.071,-0.189 0.213,-0.473 0.213,-0.473 l 0.189,-0.379 0.213,-0.496 0.283,-0.592 0.308,-0.686 0.331,-0.756 0.402,-0.828 0.402,-0.898 0.449,-0.947 0.449,-1.016 0.496,-1.064 0.497,-1.111 0.544,-1.135 0.544,-1.184 0.544,-1.205 0.544,-1.207 0.567,-1.229 0.567,-1.254 0.567,-1.23 0.568,-1.229 0.567,-1.23 0.544,-1.184 0.544,-1.182 0.521,-1.135 0.52,-1.111 0.474,-1.064 0.473,-1.018 0.449,-0.969 0.402,-0.898 0.378,-0.805 0.355,-0.756 0.307,-0.688 0.261,-0.59 0.236,-0.498 0.189,-0.377 0.118,-0.309 c 0.236,0.023 0.354,0.309 0.354,0.309 l 0.189,0.402 0.213,0.52 0.283,0.592 0.308,0.686 0.354,0.779 0.379,0.852 0.401,0.898 0.45,0.994 0.449,1.041 0.496,1.088 0.521,1.135 0.521,1.158 0.544,1.207 0.544,1.229 0.567,1.254 0.567,1.254 0.567,1.254 0.568,1.275 0.544,1.254 0.567,1.254 0.544,1.229 0.544,1.184 0.52,1.182 0.521,1.137 0.497,1.086 0.449,1.041 0.449,0.971 0.402,0.922 0.378,0.852 0.354,0.756 0.308,0.711 0.261,0.59 0.236,0.498 0.188,0.4 0.119,0.309 c 0.094,0.189 0.118,0.236 0.118,0.236 0.213,-0.143 0.378,-0.236 0.378,-0.236 0.213,-0.143 0.449,-0.309 0.449,-0.309 l 0.284,-0.189 0.308,-0.188 0.354,-0.236 0.354,-0.238 0.402,-0.26 0.426,-0.283 0.426,-0.283 0.473,-0.309 0.473,-0.307 0.474,-0.332 0.496,-0.33 0.497,-0.332 0.52,-0.33 0.521,-0.332 0.497,-0.33 0.521,-0.355 0.496,-0.33 0.497,-0.309 0.473,-0.33 0.473,-0.309 0.474,-0.307 0.426,-0.283 0.425,-0.285 0.402,-0.26 0.379,-0.236 0.331,-0.236 0.307,-0.213 0.284,-0.166 0.236,-0.166 c 0.213,-0.141 0.379,-0.236 0.379,-0.236 0.165,-0.213 0.047,-0.354 0.047,-0.354 l -0.189,-0.26 -0.26,-0.332 -0.331,-0.426 -0.378,-0.52 -0.45,-0.568 -0.52,-0.662 -0.544,-0.709 -0.592,-0.781 -0.639,-0.828 -0.686,-0.875 -0.709,-0.922 -0.733,-0.945 -0.757,-0.994 -0.78,-1.016 -0.805,-1.041 -0.804,-1.041 -0.827,-1.064 -0.828,-1.064 -0.828,-1.088 -0.804,-1.062 -0.828,-1.041 -0.78,-1.041 -0.78,-1.018 -0.78,-0.992 -0.733,-0.947 -0.709,-0.922 -0.662,-0.875 -0.639,-0.828 -0.615,-0.779 -0.544,-0.709 -0.496,-0.662 -0.449,-0.568 -0.402,-0.52 -0.331,-0.426 -0.261,-0.332 -0.188,-0.26 c 0.118,-0.166 0.449,-0.143 0.449,-0.143 l 0.426,0.047 0.567,0.049 0.662,0.07 0.757,0.07 0.852,0.096 0.922,0.094 1.017,0.096 1.064,0.117 1.159,0.119 1.183,0.117 1.253,0.119 1.277,0.141 1.324,0.119 1.348,0.143 1.372,0.141 1.396,0.143 1.395,0.143 1.396,0.141 1.372,0.143 1.371,0.143 1.349,0.117 1.324,0.143 1.301,0.141 1.229,0.119 1.206,0.117 1.135,0.119 1.088,0.119 0.994,0.094 0.945,0.094 0.852,0.072 0.757,0.094 0.662,0.047 0.544,0.072 0.449,0.047 0.331,0.023 c 0.189,0.023 0.261,0.023 0.261,0.023 v -15.76 z"
   stroke-miterlimit="10"
   inkscape:connector-curvature="0"
   style="fill:#000000;fill-opacity:1;stroke:none" />
</g></g>
</svg>