<?xml version="1.0" encoding="UTF-8" standalone="no"?>
<!-- Generator: Adobe Illustrator 16.0.1, SVG Export Plug-In . SVG Version: 6.00 Build 0)  -->

<svg
   xmlns:dc="http://purl.org/dc/elements/1.1/"
   xmlns:cc="http://creativecommons.org/ns#"
   xmlns:rdf="http://www.w3.org/1999/02/22-rdf-syntax-ns#"
   xmlns:svg="http://www.w3.org/2000/svg"
   xmlns="http://www.w3.org/2000/svg"
   xmlns:xlink="http://www.w3.org/1999/xlink"
   xmlns:sodipodi="http://sodipodi.sourceforge.net/DTD/sodipodi-0.dtd"
   xmlns:inkscape="http://www.inkscape.org/namespaces/inkscape"
   version="1.0"
   id="_x31_"
   x="0px"
   y="0px"
   width="350"
   height="350"
   viewBox="0 0 350 350"
   enable-background="new 0 0 612 792"
   xml:space="preserve"
   inkscape:version="0.48.3.1 r9886"
   sodipodi:docname="6061.svg"><metadata
   id="metadata16"><rdf:RDF><cc:Work
       rdf:about=""><dc:format>image/svg+xml</dc:format><dc:type
         rdf:resource="http://purl.org/dc/dcmitype/StillImage" /></cc:Work></rdf:RDF></metadata><defs
   id="defs14"><radialGradient
     r="333.18735"
     fy="467.91885"
     fx="373.24265"
     cy="467.91885"
     cx="373.24265"
     gradientTransform="matrix(0.83535069,2.5391116e-7,-2.4564601e-7,0.80815885,-725.97492,-115.98714)"
     gradientUnits="userSpaceOnUse"
     id="radialGradient4460"
     xlink:href="#linearGradient5443"
     inkscape:collect="always" /><linearGradient
     y2="254.73526"
     x2="123.47623"
     y1="344.03848"
     x1="123.50603"
     gradientTransform="matrix(2.3189708,0,0,2.0930998,-543.56606,-225.82362)"
     gradientUnits="userSpaceOnUse"
     id="linearGradient4458"
     xlink:href="#linearGradient3187"
     inkscape:collect="always" /><radialGradient
     r="333.18735"
     fy="710.99164"
     fx="373.24265"
     cy="710.99164"
     cx="373.24265"
     gradientTransform="matrix(0.86272606,1.0667183e-7,-5.1097113e-8,0.31433999,-736.19251,168.72353)"
     gradientUnits="userSpaceOnUse"
     id="radialGradient4456"
     xlink:href="#linearGradient5443"
     inkscape:collect="always" /><radialGradient
     r="333.18735"
     fy="467.91885"
     fx="373.24265"
     cy="467.91885"
     cx="373.24265"
     gradientTransform="matrix(0.83393192,2.4025531e-7,-2.452288e-7,0.76469446,-575.89311,126.3946)"
     gradientUnits="userSpaceOnUse"
     id="radialGradient2894-5"
     xlink:href="#linearGradient5443-0"
     inkscape:collect="always" /><linearGradient
     y2="254.73526"
     x2="123.47623"
     y1="344.03848"
     x1="123.50603"
     gradientTransform="matrix(2.3189708,0,0,2.0930998,-543.56606,-225.82362)"
     gradientUnits="userSpaceOnUse"
     id="linearGradient2892-2"
     xlink:href="#linearGradient3187-1"
     inkscape:collect="always" /><radialGradient
     r="333.18735"
     fy="710.99164"
     fx="373.24265"
     cy="710.99164"
     cx="373.24265"
     gradientTransform="matrix(0.8612608,1.0093481e-7,-5.1010329e-8,0.29743416,-586.09339,395.79293)"
     gradientUnits="userSpaceOnUse"
     id="radialGradient2890-7"
     xlink:href="#linearGradient5443-0"
     inkscape:collect="always" /><linearGradient
     id="linearGradient5443-5-6"><stop
       style="stop-color:#ffffff;stop-opacity:0;"
       offset="0"
       id="stop5445-4-1" /><stop
       style="stop-color:#000000;stop-opacity:0.33962265;"
       offset="1"
       id="stop5447-3-4" /></linearGradient><radialGradient
     r="333.18735"
     fy="710.99164"
     fx="373.24265"
     cy="710.99164"
     cx="373.24265"
     gradientTransform="matrix(0.9503534,1.1750652e-7,-5.6287062e-8,0.3462676,317.80591,185.68771)"
     gradientUnits="userSpaceOnUse"
     id="radialGradient4835-3-2"
     xlink:href="#linearGradient5443-5-6"
     inkscape:collect="always" /><radialGradient
     r="333.18735"
     fy="710.99164"
     fx="373.24265"
     cy="710.99164"
     cx="373.24265"
     gradientTransform="matrix(0.8612608,1.0093481e-7,-5.1010329e-8,0.29743416,-586.09339,395.79293)"
     gradientUnits="userSpaceOnUse"
     id="radialGradient4835-2"
     xlink:href="#linearGradient5443-0"
     inkscape:collect="always" /><radialGradient
     r="333.18735"
     fy="467.91885"
     fx="373.24265"
     cy="467.91885"
     cx="373.24265"
     gradientTransform="matrix(0.83393192,2.4025531e-7,-2.452288e-7,0.76469446,-575.89311,126.3946)"
     gradientUnits="userSpaceOnUse"
     id="radialGradient4832-1"
     xlink:href="#linearGradient5443-0"
     inkscape:collect="always" /><linearGradient
     y2="254.73526"
     x2="123.47623"
     y1="344.03848"
     x1="123.50603"
     gradientTransform="matrix(2.3189708,0,0,2.0930998,-543.56606,-225.82362)"
     gradientUnits="userSpaceOnUse"
     id="linearGradient4827-6"
     xlink:href="#linearGradient3187-1"
     inkscape:collect="always" /><linearGradient
     y2="254.73526"
     x2="123.47623"
     y1="344.03848"
     x1="123.50603"
     gradientTransform="matrix(2.3189708,0,0,2.0930998,93.115298,-256.84999)"
     gradientUnits="userSpaceOnUse"
     id="linearGradient4824-8"
     xlink:href="#linearGradient3187-1"
     inkscape:collect="always" /><radialGradient
     r="333.18735"
     fy="467.91885"
     fx="373.24265"
     cy="467.91885"
     cx="373.24265"
     gradientTransform="matrix(0.9201975,2.7970099e-7,-2.7059634e-7,0.8902438,28.590287,48.634335)"
     gradientUnits="userSpaceOnUse"
     id="radialGradient4822-5"
     xlink:href="#linearGradient3171-6"
     inkscape:collect="always" /><radialGradient
     r="333.18735"
     fy="710.99164"
     fx="373.24265"
     cy="710.99164"
     cx="373.24265"
     gradientTransform="matrix(0.9503534,1.1750652e-7,-5.6287062e-8,0.3462676,17.334826,362.44227)"
     gradientUnits="userSpaceOnUse"
     id="radialGradient4820-7"
     xlink:href="#linearGradient3157-2"
     inkscape:collect="always" /><radialGradient
     r="333.18735"
     fy="710.99164"
     fx="373.24265"
     cy="710.99164"
     cx="373.24265"
     gradientTransform="matrix(0.9503534,1.1750652e-7,-5.6287062e-8,0.3462676,17.334826,362.44227)"
     gradientUnits="userSpaceOnUse"
     id="radialGradient4805-6"
     xlink:href="#linearGradient3157-2"
     inkscape:collect="always" /><radialGradient
     r="333.18735"
     fy="467.91885"
     fx="373.24265"
     cy="467.91885"
     cx="373.24265"
     gradientTransform="matrix(0.9201975,2.7970099e-7,-2.7059634e-7,0.8902438,28.590287,48.634335)"
     gradientUnits="userSpaceOnUse"
     id="radialGradient4802-1"
     xlink:href="#linearGradient3171-6"
     inkscape:collect="always" /><linearGradient
     y2="254.73526"
     x2="123.47623"
     y1="344.03848"
     x1="123.50603"
     gradientTransform="matrix(2.3189708,0,0,2.0930998,93.115298,-256.84999)"
     gradientUnits="userSpaceOnUse"
     id="linearGradient4799-8"
     xlink:href="#linearGradient3187-1"
     inkscape:collect="always" /><linearGradient
     y2="254.73526"
     x2="123.47623"
     y1="344.03848"
     x1="123.50603"
     gradientTransform="matrix(2.3189708,0,0,2.0930998,93.115298,-256.84999)"
     gradientUnits="userSpaceOnUse"
     id="linearGradient4794-9"
     xlink:href="#linearGradient3187-1"
     inkscape:collect="always" /><radialGradient
     r="333.18735"
     fy="467.91885"
     fx="373.24265"
     cy="467.91885"
     cx="373.24265"
     gradientTransform="matrix(0.9201975,2.7970099e-7,-2.7059634e-7,0.8902438,28.590287,48.634335)"
     gradientUnits="userSpaceOnUse"
     id="radialGradient4792-2"
     xlink:href="#linearGradient3171-6"
     inkscape:collect="always" /><radialGradient
     r="333.18735"
     fy="710.99164"
     fx="373.24265"
     cy="710.99164"
     cx="373.24265"
     gradientTransform="matrix(0.9503534,1.1750652e-7,-5.6287062e-8,0.3462676,17.334826,362.44227)"
     gradientUnits="userSpaceOnUse"
     id="radialGradient4790-7"
     xlink:href="#linearGradient3157-2"
     inkscape:collect="always" /><radialGradient
     r="333.18735"
     fy="710.99164"
     fx="373.24265"
     cy="710.99164"
     cx="373.24265"
     gradientTransform="matrix(0.9503534,1.1750652e-7,-5.6287062e-8,0.3462676,17.334826,362.44227)"
     gradientUnits="userSpaceOnUse"
     id="radialGradient4779-9"
     xlink:href="#linearGradient3157-2"
     inkscape:collect="always" /><radialGradient
     r="333.18735"
     fy="467.91885"
     fx="373.24265"
     cy="467.91885"
     cx="373.24265"
     gradientTransform="matrix(0.9201975,2.7970099e-7,-2.7059634e-7,0.8902438,28.590287,48.634335)"
     gradientUnits="userSpaceOnUse"
     id="radialGradient4776-5"
     xlink:href="#linearGradient3171-6"
     inkscape:collect="always" /><linearGradient
     y2="254.73526"
     x2="123.47623"
     y1="344.03848"
     x1="123.50603"
     gradientTransform="matrix(2.3189708,0,0,2.0930998,93.115298,-256.84999)"
     gradientUnits="userSpaceOnUse"
     id="linearGradient4773-4"
     xlink:href="#linearGradient3187-1"
     inkscape:collect="always" /><linearGradient
     y2="254.73526"
     x2="123.47623"
     y1="344.03848"
     x1="123.50603"
     gradientTransform="matrix(2.3189708,0,0,2.0930998,93.115298,-256.84999)"
     gradientUnits="userSpaceOnUse"
     id="linearGradient4770-3"
     xlink:href="#linearGradient3187-1"
     inkscape:collect="always" /><radialGradient
     r="333.18735"
     fy="467.91885"
     fx="373.24265"
     cy="467.91885"
     cx="373.24265"
     gradientTransform="matrix(0.9201975,2.7970099e-7,-2.7059634e-7,0.8902438,28.590287,48.634335)"
     gradientUnits="userSpaceOnUse"
     id="radialGradient4768-1"
     xlink:href="#linearGradient3171-6"
     inkscape:collect="always" /><radialGradient
     r="333.18735"
     fy="710.99164"
     fx="373.24265"
     cy="710.99164"
     cx="373.24265"
     gradientTransform="matrix(0.9503534,1.1750652e-7,-5.6287062e-8,0.3462676,17.334826,362.44227)"
     gradientUnits="userSpaceOnUse"
     id="radialGradient4766-2"
     xlink:href="#linearGradient3157-2"
     inkscape:collect="always" /><radialGradient
     r="333.18735"
     fy="710.99164"
     fx="373.24265"
     cy="710.99164"
     cx="373.24265"
     gradientTransform="matrix(0.9503534,1.1750652e-7,-5.6287062e-8,0.3462676,17.334826,362.44227)"
     gradientUnits="userSpaceOnUse"
     id="radialGradient4572-4"
     xlink:href="#linearGradient3157-2"
     inkscape:collect="always" /><radialGradient
     r="333.18735"
     fy="467.91885"
     fx="373.24265"
     cy="467.91885"
     cx="373.24265"
     gradientTransform="matrix(0.9201975,2.7970099e-7,-2.7059634e-7,0.8902438,28.590287,48.634335)"
     gradientUnits="userSpaceOnUse"
     id="radialGradient4569-1"
     xlink:href="#linearGradient3171-6"
     inkscape:collect="always" /><linearGradient
     y2="254.73526"
     x2="123.47623"
     y1="344.03848"
     x1="123.50603"
     gradientTransform="matrix(2.3189708,0,0,2.0930998,93.115298,-256.84999)"
     gradientUnits="userSpaceOnUse"
     id="linearGradient4562-1"
     xlink:href="#linearGradient3187-1"
     inkscape:collect="always" /><linearGradient
     gradientUnits="userSpaceOnUse"
     y2="540.86719"
     x2="360.49777"
     y1="167.50403"
     x1="360.49777"
     id="linearGradient4401-3"
     xlink:href="#linearGradient4395-7"
     inkscape:collect="always" /><linearGradient
     gradientUnits="userSpaceOnUse"
     y2="655.4505"
     x2="396.91168"
     y1="298.59412"
     x1="371.42194"
     id="linearGradient4389-8"
     xlink:href="#linearGradient4383-4"
     inkscape:collect="always" /><inkscape:perspective
     id="perspective3214-7"
     inkscape:persp3d-origin="372.04724 : 350.78739 : 1"
     inkscape:vp_z="744.09448 : 526.18109 : 1"
     inkscape:vp_y="0 : 1000 : 0"
     inkscape:vp_x="0 : 526.18109 : 1"
     sodipodi:type="inkscape:persp3d" /><linearGradient
     id="linearGradient4383-4"><stop
       id="stop4385-2"
       offset="0"
       style="stop-color:#00037f;stop-opacity:1;" /><stop
       id="stop4387-7"
       offset="1"
       style="stop-color:#00037f;stop-opacity:0;" /></linearGradient><linearGradient
     id="linearGradient4395-7"><stop
       id="stop4397-9"
       offset="0"
       style="stop-color:#110084;stop-opacity:1;" /><stop
       id="stop4399-3"
       offset="1"
       style="stop-color:#a695ff;stop-opacity:1;" /></linearGradient><linearGradient
     id="linearGradient3187-1"><stop
       id="stop3189-9"
       offset="0"
       style="stop-color:#ffffff;stop-opacity:0.39622641;" /><stop
       id="stop3191-8"
       offset="1"
       style="stop-color:#000000;stop-opacity:1;" /></linearGradient><linearGradient
     id="linearGradient3171-6"><stop
       style="stop-color:#49bcff;stop-opacity:1;"
       offset="0"
       id="stop3173-5" /><stop
       style="stop-color:#494cdc;stop-opacity:1;"
       offset="1"
       id="stop3175-0" /></linearGradient><linearGradient
     id="linearGradient3157-2"><stop
       id="stop3159-8"
       offset="0"
       style="stop-color:#49bcff;stop-opacity:1;" /><stop
       id="stop3161-6"
       offset="1"
       style="stop-color:#494c96;stop-opacity:1;" /></linearGradient><linearGradient
     id="linearGradient5443-0"><stop
       style="stop-color:#ffffff;stop-opacity:0;"
       offset="0"
       id="stop5445-2" /><stop
       style="stop-color:#000000;stop-opacity:0.33962265;"
       offset="1"
       id="stop5447-4" /></linearGradient><radialGradient
     inkscape:collect="always"
     xlink:href="#linearGradient5443-0"
     id="radialGradient3234"
     gradientUnits="userSpaceOnUse"
     gradientTransform="matrix(0.8612608,1.0093481e-7,-5.1010329e-8,0.29743416,-586.09339,395.79293)"
     cx="373.24265"
     cy="710.99164"
     fx="373.24265"
     fy="710.99164"
     r="333.18735" /><linearGradient
     inkscape:collect="always"
     xlink:href="#linearGradient3187-1"
     id="linearGradient3236"
     gradientUnits="userSpaceOnUse"
     gradientTransform="matrix(2.3189708,0,0,2.0930998,-543.56606,-225.82362)"
     x1="123.50603"
     y1="344.03848"
     x2="123.47623"
     y2="254.73526" /><radialGradient
     inkscape:collect="always"
     xlink:href="#linearGradient5443-0"
     id="radialGradient3238"
     gradientUnits="userSpaceOnUse"
     gradientTransform="matrix(0.83393192,2.4025531e-7,-2.452288e-7,0.76469446,-575.89311,126.3946)"
     cx="373.24265"
     cy="467.91885"
     fx="373.24265"
     fy="467.91885"
     r="333.18735" /><radialGradient
     inkscape:collect="always"
     xlink:href="#linearGradient5443-0"
     id="radialGradient3254"
     gradientUnits="userSpaceOnUse"
     gradientTransform="matrix(0.8612608,1.0093481e-7,-5.1010329e-8,0.29743416,-586.09339,395.79293)"
     cx="373.24265"
     cy="710.99164"
     fx="373.24265"
     fy="710.99164"
     r="333.18735" /><linearGradient
     inkscape:collect="always"
     xlink:href="#linearGradient3187-1"
     id="linearGradient3256"
     gradientUnits="userSpaceOnUse"
     gradientTransform="matrix(2.3189708,0,0,2.0930998,-543.56606,-225.82362)"
     x1="123.50603"
     y1="344.03848"
     x2="123.47623"
     y2="254.73526" /><radialGradient
     inkscape:collect="always"
     xlink:href="#linearGradient5443-0"
     id="radialGradient3258"
     gradientUnits="userSpaceOnUse"
     gradientTransform="matrix(0.83393192,2.4025531e-7,-2.452288e-7,0.76469446,-575.89311,126.3946)"
     cx="373.24265"
     cy="467.91885"
     fx="373.24265"
     fy="467.91885"
     r="333.18735" /><radialGradient
     inkscape:collect="always"
     xlink:href="#linearGradient5443-0"
     id="radialGradient3270"
     gradientUnits="userSpaceOnUse"
     gradientTransform="matrix(0.83535069,2.5391116e-7,-2.4564601e-7,0.80815885,-821.89024,-331.16994)"
     cx="373.24265"
     cy="467.91885"
     fx="373.24265"
     fy="467.91885"
     r="333.18735" /><radialGradient
     inkscape:collect="always"
     xlink:href="#linearGradient5443-0"
     id="radialGradient3274"
     gradientUnits="userSpaceOnUse"
     gradientTransform="matrix(0.86272606,1.0667183e-7,-5.1097113e-8,0.31433999,-832.10787,-46.459305)"
     cx="373.24265"
     cy="710.99164"
     fx="373.24265"
     fy="710.99164"
     r="333.18735" /><linearGradient
     y2="254.73526"
     x2="123.47623"
     y1="344.03848"
     x1="123.50603"
     gradientTransform="matrix(2.3189708,0,0,2.0930998,-543.56606,-225.82362)"
     gradientUnits="userSpaceOnUse"
     id="linearGradient3422"
     xlink:href="#linearGradient3187"
     inkscape:collect="always" /><radialGradient
     r="333.18735"
     fy="710.99164"
     fx="373.24265"
     cy="710.99164"
     cx="373.24265"
     gradientTransform="matrix(0.86272606,1.0667183e-7,-5.1097113e-8,0.31433999,-736.19251,168.72353)"
     gradientUnits="userSpaceOnUse"
     id="radialGradient3416"
     xlink:href="#linearGradient5443"
     inkscape:collect="always" /><radialGradient
     r="333.18735"
     fy="467.91885"
     fx="373.24265"
     cy="467.91885"
     cx="373.24265"
     gradientTransform="matrix(0.83535069,2.5391116e-7,-2.4564601e-7,0.80815885,-725.97492,-115.98714)"
     gradientUnits="userSpaceOnUse"
     id="radialGradient3412"
     xlink:href="#linearGradient5443"
     inkscape:collect="always" /><radialGradient
     r="333.18735"
     fy="467.91885"
     fx="373.24265"
     cy="467.91885"
     cx="373.24265"
     gradientTransform="matrix(0.83393192,2.4025531e-7,-2.452288e-7,0.76469446,-575.89311,126.3946)"
     gradientUnits="userSpaceOnUse"
     id="radialGradient2894"
     xlink:href="#linearGradient5443"
     inkscape:collect="always" /><linearGradient
     y2="254.73526"
     x2="123.47623"
     y1="344.03848"
     x1="123.50603"
     gradientTransform="matrix(2.3189708,0,0,2.0930998,-543.56606,-225.82362)"
     gradientUnits="userSpaceOnUse"
     id="linearGradient2892"
     xlink:href="#linearGradient3187"
     inkscape:collect="always" /><radialGradient
     r="333.18735"
     fy="710.99164"
     fx="373.24265"
     cy="710.99164"
     cx="373.24265"
     gradientTransform="matrix(0.8612608,1.0093481e-7,-5.1010329e-8,0.29743416,-586.09339,395.79293)"
     gradientUnits="userSpaceOnUse"
     id="radialGradient2890"
     xlink:href="#linearGradient5443"
     inkscape:collect="always" /><linearGradient
     id="linearGradient5443-5"><stop
       style="stop-color:#ffffff;stop-opacity:0;"
       offset="0"
       id="stop5445-4" /><stop
       style="stop-color:#000000;stop-opacity:0.33962265;"
       offset="1"
       id="stop5447-3" /></linearGradient><radialGradient
     r="333.18735"
     fy="710.99164"
     fx="373.24265"
     cy="710.99164"
     cx="373.24265"
     gradientTransform="matrix(0.9503534,1.1750652e-7,-5.6287062e-8,0.3462676,317.80591,185.68771)"
     gradientUnits="userSpaceOnUse"
     id="radialGradient4835-3"
     xlink:href="#linearGradient5443-5"
     inkscape:collect="always" /><filter
     color-interpolation-filters="sRGB"
     id="filter5511"
     inkscape:collect="always"><feGaussianBlur
       id="feGaussianBlur5513"
       stdDeviation="3.2374974"
       inkscape:collect="always" /></filter><radialGradient
     r="333.18735"
     fy="710.99164"
     fx="373.24265"
     cy="710.99164"
     cx="373.24265"
     gradientTransform="matrix(0.8612608,1.0093481e-7,-5.1010329e-8,0.29743416,-586.09339,395.79293)"
     gradientUnits="userSpaceOnUse"
     id="radialGradient4835"
     xlink:href="#linearGradient5443"
     inkscape:collect="always" /><radialGradient
     r="333.18735"
     fy="467.91885"
     fx="373.24265"
     cy="467.91885"
     cx="373.24265"
     gradientTransform="matrix(0.83393192,2.4025531e-7,-2.452288e-7,0.76469446,-575.89311,126.3946)"
     gradientUnits="userSpaceOnUse"
     id="radialGradient4832"
     xlink:href="#linearGradient5443"
     inkscape:collect="always" /><linearGradient
     y2="254.73526"
     x2="123.47623"
     y1="344.03848"
     x1="123.50603"
     gradientTransform="matrix(2.3189708,0,0,2.0930998,-543.56606,-225.82362)"
     gradientUnits="userSpaceOnUse"
     id="linearGradient4827"
     xlink:href="#linearGradient3187"
     inkscape:collect="always" /><linearGradient
     y2="254.73526"
     x2="123.47623"
     y1="344.03848"
     x1="123.50603"
     gradientTransform="matrix(2.3189708,0,0,2.0930998,93.115298,-256.84999)"
     gradientUnits="userSpaceOnUse"
     id="linearGradient4824"
     xlink:href="#linearGradient3187"
     inkscape:collect="always" /><radialGradient
     r="333.18735"
     fy="467.91885"
     fx="373.24265"
     cy="467.91885"
     cx="373.24265"
     gradientTransform="matrix(0.9201975,2.7970099e-7,-2.7059634e-7,0.8902438,28.590287,48.634335)"
     gradientUnits="userSpaceOnUse"
     id="radialGradient4822"
     xlink:href="#linearGradient3171"
     inkscape:collect="always" /><radialGradient
     r="333.18735"
     fy="710.99164"
     fx="373.24265"
     cy="710.99164"
     cx="373.24265"
     gradientTransform="matrix(0.9503534,1.1750652e-7,-5.6287062e-8,0.3462676,17.334826,362.44227)"
     gradientUnits="userSpaceOnUse"
     id="radialGradient4820"
     xlink:href="#linearGradient3157"
     inkscape:collect="always" /><radialGradient
     r="333.18735"
     fy="710.99164"
     fx="373.24265"
     cy="710.99164"
     cx="373.24265"
     gradientTransform="matrix(0.9503534,1.1750652e-7,-5.6287062e-8,0.3462676,17.334826,362.44227)"
     gradientUnits="userSpaceOnUse"
     id="radialGradient4805"
     xlink:href="#linearGradient3157"
     inkscape:collect="always" /><radialGradient
     r="333.18735"
     fy="467.91885"
     fx="373.24265"
     cy="467.91885"
     cx="373.24265"
     gradientTransform="matrix(0.9201975,2.7970099e-7,-2.7059634e-7,0.8902438,28.590287,48.634335)"
     gradientUnits="userSpaceOnUse"
     id="radialGradient4802"
     xlink:href="#linearGradient3171"
     inkscape:collect="always" /><linearGradient
     y2="254.73526"
     x2="123.47623"
     y1="344.03848"
     x1="123.50603"
     gradientTransform="matrix(2.3189708,0,0,2.0930998,93.115298,-256.84999)"
     gradientUnits="userSpaceOnUse"
     id="linearGradient4799"
     xlink:href="#linearGradient3187"
     inkscape:collect="always" /><linearGradient
     y2="254.73526"
     x2="123.47623"
     y1="344.03848"
     x1="123.50603"
     gradientTransform="matrix(2.3189708,0,0,2.0930998,93.115298,-256.84999)"
     gradientUnits="userSpaceOnUse"
     id="linearGradient4794"
     xlink:href="#linearGradient3187"
     inkscape:collect="always" /><radialGradient
     r="333.18735"
     fy="467.91885"
     fx="373.24265"
     cy="467.91885"
     cx="373.24265"
     gradientTransform="matrix(0.9201975,2.7970099e-7,-2.7059634e-7,0.8902438,28.590287,48.634335)"
     gradientUnits="userSpaceOnUse"
     id="radialGradient4792"
     xlink:href="#linearGradient3171"
     inkscape:collect="always" /><radialGradient
     r="333.18735"
     fy="710.99164"
     fx="373.24265"
     cy="710.99164"
     cx="373.24265"
     gradientTransform="matrix(0.9503534,1.1750652e-7,-5.6287062e-8,0.3462676,17.334826,362.44227)"
     gradientUnits="userSpaceOnUse"
     id="radialGradient4790"
     xlink:href="#linearGradient3157"
     inkscape:collect="always" /><radialGradient
     r="333.18735"
     fy="710.99164"
     fx="373.24265"
     cy="710.99164"
     cx="373.24265"
     gradientTransform="matrix(0.9503534,1.1750652e-7,-5.6287062e-8,0.3462676,17.334826,362.44227)"
     gradientUnits="userSpaceOnUse"
     id="radialGradient4779"
     xlink:href="#linearGradient3157"
     inkscape:collect="always" /><radialGradient
     r="333.18735"
     fy="467.91885"
     fx="373.24265"
     cy="467.91885"
     cx="373.24265"
     gradientTransform="matrix(0.9201975,2.7970099e-7,-2.7059634e-7,0.8902438,28.590287,48.634335)"
     gradientUnits="userSpaceOnUse"
     id="radialGradient4776"
     xlink:href="#linearGradient3171"
     inkscape:collect="always" /><linearGradient
     y2="254.73526"
     x2="123.47623"
     y1="344.03848"
     x1="123.50603"
     gradientTransform="matrix(2.3189708,0,0,2.0930998,93.115298,-256.84999)"
     gradientUnits="userSpaceOnUse"
     id="linearGradient4773"
     xlink:href="#linearGradient3187"
     inkscape:collect="always" /><linearGradient
     y2="254.73526"
     x2="123.47623"
     y1="344.03848"
     x1="123.50603"
     gradientTransform="matrix(2.3189708,0,0,2.0930998,93.115298,-256.84999)"
     gradientUnits="userSpaceOnUse"
     id="linearGradient4770"
     xlink:href="#linearGradient3187"
     inkscape:collect="always" /><radialGradient
     r="333.18735"
     fy="467.91885"
     fx="373.24265"
     cy="467.91885"
     cx="373.24265"
     gradientTransform="matrix(0.9201975,2.7970099e-7,-2.7059634e-7,0.8902438,28.590287,48.634335)"
     gradientUnits="userSpaceOnUse"
     id="radialGradient4768"
     xlink:href="#linearGradient3171"
     inkscape:collect="always" /><radialGradient
     r="333.18735"
     fy="710.99164"
     fx="373.24265"
     cy="710.99164"
     cx="373.24265"
     gradientTransform="matrix(0.9503534,1.1750652e-7,-5.6287062e-8,0.3462676,17.334826,362.44227)"
     gradientUnits="userSpaceOnUse"
     id="radialGradient4766"
     xlink:href="#linearGradient3157"
     inkscape:collect="always" /><filter
     color-interpolation-filters="sRGB"
     id="filter4659"
     inkscape:collect="always"><feGaussianBlur
       id="feGaussianBlur4661"
       stdDeviation="2.7750933"
       inkscape:collect="always" /></filter><radialGradient
     r="333.18735"
     fy="710.99164"
     fx="373.24265"
     cy="710.99164"
     cx="373.24265"
     gradientTransform="matrix(0.9503534,1.1750652e-7,-5.6287062e-8,0.3462676,17.334826,362.44227)"
     gradientUnits="userSpaceOnUse"
     id="radialGradient4572"
     xlink:href="#linearGradient3157"
     inkscape:collect="always" /><radialGradient
     r="333.18735"
     fy="467.91885"
     fx="373.24265"
     cy="467.91885"
     cx="373.24265"
     gradientTransform="matrix(0.9201975,2.7970099e-7,-2.7059634e-7,0.8902438,28.590287,48.634335)"
     gradientUnits="userSpaceOnUse"
     id="radialGradient4569"
     xlink:href="#linearGradient3171"
     inkscape:collect="always" /><linearGradient
     y2="254.73526"
     x2="123.47623"
     y1="344.03848"
     x1="123.50603"
     gradientTransform="matrix(2.3189708,0,0,2.0930998,93.115298,-256.84999)"
     gradientUnits="userSpaceOnUse"
     id="linearGradient4562"
     xlink:href="#linearGradient3187"
     inkscape:collect="always" /><linearGradient
     gradientUnits="userSpaceOnUse"
     y2="540.86719"
     x2="360.49777"
     y1="167.50403"
     x1="360.49777"
     id="linearGradient4401"
     xlink:href="#linearGradient4395"
     inkscape:collect="always" /><linearGradient
     gradientUnits="userSpaceOnUse"
     y2="655.4505"
     x2="396.91168"
     y1="298.59412"
     x1="371.42194"
     id="linearGradient4389"
     xlink:href="#linearGradient4383"
     inkscape:collect="always" /><inkscape:perspective
     id="perspective3214"
     inkscape:persp3d-origin="372.04724 : 350.78739 : 1"
     inkscape:vp_z="744.09448 : 526.18109 : 1"
     inkscape:vp_y="0 : 1000 : 0"
     inkscape:vp_x="0 : 526.18109 : 1"
     sodipodi:type="inkscape:persp3d" /><linearGradient
     id="linearGradient4383"><stop
       id="stop4385"
       offset="0"
       style="stop-color:#00037f;stop-opacity:1;" /><stop
       id="stop4387"
       offset="1"
       style="stop-color:#00037f;stop-opacity:0;" /></linearGradient><linearGradient
     id="linearGradient4395"><stop
       id="stop4397"
       offset="0"
       style="stop-color:#110084;stop-opacity:1;" /><stop
       id="stop4399"
       offset="1"
       style="stop-color:#a695ff;stop-opacity:1;" /></linearGradient><linearGradient
     id="linearGradient3187"><stop
       id="stop3189"
       offset="0"
       style="stop-color:#ffffff;stop-opacity:0.39622641;" /><stop
       id="stop3191"
       offset="1"
       style="stop-color:#9e9e9e;stop-opacity:1;" /></linearGradient><linearGradient
     id="linearGradient3171"><stop
       style="stop-color:#49bcff;stop-opacity:1;"
       offset="0"
       id="stop3173" /><stop
       style="stop-color:#494cdc;stop-opacity:1;"
       offset="1"
       id="stop3175" /></linearGradient><linearGradient
     id="linearGradient3157"><stop
       id="stop3159"
       offset="0"
       style="stop-color:#49bcff;stop-opacity:1;" /><stop
       id="stop3161"
       offset="1"
       style="stop-color:#494c96;stop-opacity:1;" /></linearGradient><linearGradient
     id="linearGradient5443"><stop
       style="stop-color:#ffffff;stop-opacity:0;"
       offset="0"
       id="stop5445" /><stop
       style="stop-color:#cbcac8;stop-opacity:1;"
       offset="1"
       id="stop5447" /></linearGradient><radialGradient
     inkscape:collect="always"
     xlink:href="#linearGradient5443"
     id="radialGradient3253"
     gradientUnits="userSpaceOnUse"
     gradientTransform="matrix(0.8612608,1.0093481e-7,-5.1010329e-8,0.29743416,-586.09339,395.79293)"
     cx="373.24265"
     cy="710.99164"
     fx="373.24265"
     fy="710.99164"
     r="333.18735" /><linearGradient
     inkscape:collect="always"
     xlink:href="#linearGradient3187"
     id="linearGradient3255"
     gradientUnits="userSpaceOnUse"
     gradientTransform="matrix(2.3189708,0,0,2.0930998,-543.56606,-225.82362)"
     x1="123.50603"
     y1="344.03848"
     x2="123.47623"
     y2="254.73526" /><radialGradient
     inkscape:collect="always"
     xlink:href="#linearGradient5443"
     id="radialGradient3257"
     gradientUnits="userSpaceOnUse"
     gradientTransform="matrix(0.83393192,2.4025531e-7,-2.452288e-7,0.76469446,-575.89311,126.3946)"
     cx="373.24265"
     cy="467.91885"
     fx="373.24265"
     fy="467.91885"
     r="333.18735" /><radialGradient
     inkscape:collect="always"
     xlink:href="#linearGradient5443"
     id="radialGradient3273"
     gradientUnits="userSpaceOnUse"
     gradientTransform="matrix(0.8612608,1.0093481e-7,-5.1010329e-8,0.29743416,-586.09339,395.79293)"
     cx="373.24265"
     cy="710.99164"
     fx="373.24265"
     fy="710.99164"
     r="333.18735" /><linearGradient
     inkscape:collect="always"
     xlink:href="#linearGradient3187"
     id="linearGradient3275"
     gradientUnits="userSpaceOnUse"
     gradientTransform="matrix(2.3189708,0,0,2.0930998,-543.56606,-225.82362)"
     x1="123.50603"
     y1="344.03848"
     x2="123.47623"
     y2="254.73526" /><radialGradient
     inkscape:collect="always"
     xlink:href="#linearGradient5443"
     id="radialGradient3277"
     gradientUnits="userSpaceOnUse"
     gradientTransform="matrix(0.83393192,2.4025531e-7,-2.452288e-7,0.76469446,-575.89311,126.3946)"
     cx="373.24265"
     cy="467.91885"
     fx="373.24265"
     fy="467.91885"
     r="333.18735" /></defs><sodipodi:namedview
   pagecolor="#ffffff"
   bordercolor="#666666"
   borderopacity="1"
   objecttolerance="10"
   gridtolerance="10"
   guidetolerance="10"
   inkscape:pageopacity="0"
   inkscape:pageshadow="2"
   inkscape:window-width="1920"
   inkscape:window-height="1031"
   id="namedview12"
   showgrid="false"
   fit-margin-top="0"
   fit-margin-left="0"
   fit-margin-right="0"
   fit-margin-bottom="0"
   inkscape:zoom="1.1919192"
   inkscape:cx="242.20368"
   inkscape:cy="115.47655"
   inkscape:window-x="-4"
   inkscape:window-y="-4"
   inkscape:window-maximized="1"
   inkscape:current-layer="_x31_" />


<g
   id="g4170"
   transform="translate(-4.0524846e-6,1.5294449e-7)"><g
     transform="translate(589.18636,-87.165827)"
     id="g4448"><rect
       transform="matrix(2.1051501,0,0,2.1051501,-860.18934,-1.2010596)"
       ry="12.45238"
       rx="16.067965"
       y="48.636749"
       x="135.39355"
       height="152.93848"
       width="152.93848"
       id="rect4192"
       style="fill:#cccccc;fill-opacity:1;stroke:none;filter:url(#filter4659)"
       inkscape:export-filename="C:\Documents and Settings\adscro24\Desktop\128.png"
       inkscape:export-xdpi="29.879425"
       inkscape:export-ydpi="29.879425" /><rect
       inkscape:export-ydpi="29.879425"
       inkscape:export-xdpi="29.879425"
       inkscape:export-filename="C:\Documents and Settings\adscro24\Desktop\128.png"
       style="fill:#cbcac8;fill-opacity:1;stroke:none;filter:url(#filter4659)"
       id="rect3279"
       width="152.93848"
       height="152.93848"
       x="135.39355"
       y="48.636749"
       rx="16.067965"
       ry="12.45238"
       transform="matrix(2.1051501,0,0,2.1051501,-860.18934,-1.2010596)" /><rect
       inkscape:export-ydpi="29.879425"
       inkscape:export-xdpi="29.879425"
       inkscape:export-filename="C:\Documents and Settings\adscro24\Desktop\128.png"
       style="opacity:0.61338286;fill:url(#radialGradient4456);fill-opacity:1;stroke:#000000;stroke-width:3.26806188;stroke-miterlimit:4;stroke-opacity:1;stroke-dasharray:none"
       id="rect3155"
       width="321.95847"
       height="321.95844"
       x="-575.16559"
       y="101.18661"
       rx="33.825478"
       ry="26.214128" /><path
       transform="matrix(0.907795,0,0,0.90779498,-173.95283,-177.39738)"
       inkscape:export-ydpi="29.879425"
       inkscape:export-xdpi="29.879425"
       inkscape:export-filename="C:\Documents and Settings\adscro24\Desktop\128.png"
       inkscape:connector-curvature="0"
       style="opacity:0.61338286;fill:url(#linearGradient4458);fill-opacity:1;stroke:none;filter:url(#filter5511)"
       d="m -397.80626,329.07489 c -19.62748,0 -35.44272,12.0976 -35.44272,27.14163 l 0,124.30857 c 29.25482,11.38638 132.70149,11.89599 165.40488,-5.79022 33.32802,-18.02397 127.54379,-68.44264 171.824837,-52.72052 l 0,-65.79783 c 0,-15.04403 -15.798597,-27.14163 -35.426097,-27.14163 l -266.3609,0 z m -35.44272,263.47103 0,42.88373 c 0,1.33144 0.14331,2.63588 0.38253,3.915 -0.11919,-12.81092 -0.25965,-28.88939 -0.38253,-46.79873 z"
       id="rect3177" /><rect
       inkscape:export-ydpi="29.879425"
       inkscape:export-xdpi="29.879425"
       inkscape:export-filename="C:\Documents and Settings\adscro24\Desktop\128.png"
       style="opacity:0.61338286;fill:url(#radialGradient4460);fill-opacity:1;stroke:#ffffff;stroke-width:0.68992418;stroke-linecap:square;stroke-miterlimit:4;stroke-opacity:1;stroke-dasharray:none"
       id="rect3473"
       width="306.12445"
       height="306.12445"
       x="-567.2486"
       y="109.1036"
       rx="32.161926"
       ry="24.924911" /><rect
       inkscape:export-ydpi="29.879425"
       inkscape:export-xdpi="29.879425"
       inkscape:export-filename="C:\Documents and Settings\adscro24\Desktop\128.png"
       style="opacity:0.61338286;fill:#ffffff;fill-opacity:0;stroke:#000000;stroke-width:3.26806188;stroke-miterlimit:4;stroke-opacity:1;stroke-dasharray:none"
       id="rect3155-2"
       width="321.95847"
       height="321.95844"
       x="-575.16559"
       y="101.18661"
       rx="33.825478"
       ry="26.214128" /></g><g
     transform="translate(358.29183,-87.165827)"
     id="LWPOLYLINE_2_-7">
	
		
</g><g
     transform="translate(358.29183,-87.165827)"
     id="LWPOLYLINE_3_">
	
		
</g><g
     transform="translate(358.29183,-87.165827)"
     id="LWPOLYLINE_4_">
	
		
</g><g
     transform="translate(184.65055,-351.95215)"
     style="fill:#000000;fill-opacity:1;stroke:none"
     id="LWPOLYLINE_6_-7">
	
		
</g><g
     transform="translate(184.65055,-351.95215)"
     style="fill:#000000;fill-opacity:1;stroke:none"
     id="LWPOLYLINE-4">
	
		
</g><g
     transform="translate(184.65055,-351.95215)"
     style="fill:#000000;fill-opacity:1;stroke:none"
     id="LWPOLYLINE_3_-0">
	
		
</g></g><g
   id="g2993"
   transform="matrix(0.62389773,0,0,0.62389773,-15.916094,-71.745642)"
   style="fill:#000000;fill-opacity:1;stroke:none"><g
     id="LWPOLYLINE"
     style="fill:#000000;fill-opacity:1;stroke:none">
	
		<path
   id="path4"
   d="m 366.563,595.5 c 0.234,0 0.892,0 0.892,0 h 1.033 1.455 1.784 2.16 2.441 2.723 3.052 3.239 3.521 3.662 3.896 4.037 4.132 4.272 4.366 4.46 4.46 4.507 4.507 4.508 4.413 4.366 4.271 4.179 4.038 3.85 3.709 3.474 3.287 3.004 2.724 2.488 2.112 1.831 1.408 1.08 0.657 c 0.188,-0.188 0.188,-0.375 0.188,-0.375 v -0.234 -0.328 -0.424 -0.422 -0.518 -0.562 -0.609 -0.611 -0.705 -0.703 -0.752 -0.75 -0.799 -0.799 -0.797 -0.846 -0.846 -0.797 -0.846 -0.799 -0.797 -0.799 -0.75 -0.752 -0.705 -0.703 -0.658 -0.562 -0.564 -0.516 -0.469 -0.377 -0.328 -0.281 c 0,-0.188 0,-0.281 0,-0.281 -0.141,-0.047 -0.657,-0.047 -0.657,-0.047 h -0.751 -1.08 -1.361 -1.549 -1.831 -2.066 -2.253 -2.395 -2.629 -2.724 -2.91 -2.958 -3.099 -3.192 -3.239 -3.334 -3.333 -3.333 -3.334 -3.333 -3.333 -3.239 -3.193 -3.098 -3.005 -2.864 -2.77 -2.582 -2.441 -2.207 -2.065 -1.831 -1.597 -1.314 -1.079 -0.799 -0.469 c 0.094,-0.236 0.375,-0.518 0.375,-0.518 l 0.376,-0.375 0.517,-0.422 0.562,-0.564 0.657,-0.609 0.752,-0.705 0.845,-0.799 0.845,-0.844 0.986,-0.893 0.986,-0.939 1.032,-0.986 1.127,-1.031 1.127,-1.08 1.174,-1.08 1.174,-1.127 1.221,-1.127 1.22,-1.127 1.221,-1.174 1.221,-1.127 1.221,-1.174 1.221,-1.125 1.174,-1.127 1.174,-1.08 1.127,-1.08 1.08,-1.033 1.079,-0.986 0.986,-0.938 0.938,-0.893 0.893,-0.846 0.845,-0.75 0.704,-0.705 0.704,-0.658 0.563,-0.516 0.47,-0.469 0.423,-0.377 0.281,-0.281 c 0.235,-0.234 1.831,-1.736 1.831,-1.736 l 1.69,-1.598 1.69,-1.596 1.736,-1.689 1.784,-1.689 1.831,-1.738 1.831,-1.783 1.878,-1.785 1.878,-1.877 1.878,-1.879 1.878,-1.877 1.925,-1.973 1.878,-1.971 1.878,-2.02 1.878,-2.02 1.878,-2.064 1.831,-2.113 1.831,-2.113 1.784,-2.158 1.737,-2.16 1.689,-2.207 1.69,-2.207 1.597,-2.205 1.596,-2.254 1.503,-2.301 1.408,-2.301 1.408,-2.301 1.268,-2.348 1.221,-2.346 1.174,-2.348 1.033,-2.348 0.985,-2.395 0.845,-2.395 0.799,-2.441 0.657,-2.395 0.563,-2.441 0.422,-2.441 0.329,-2.441 0.188,-2.441 0.047,-2.441 -0.047,-2.957 -0.141,-2.91 -0.281,-2.771 -0.376,-2.676 -0.47,-2.629 -0.563,-2.488 -0.704,-2.441 -0.751,-2.301 -0.845,-2.252 -0.939,-2.16 -0.985,-2.066 -1.08,-1.971 -1.174,-1.926 -1.268,-1.783 -1.314,-1.738 -1.408,-1.643 -1.409,-1.596 -1.549,-1.48 -1.55,-1.408 -1.643,-1.338 -1.69,-1.268 -1.737,-1.174 -1.784,-1.127 -1.831,-1.031 -1.878,-0.963 -1.878,-0.893 -1.972,-0.846 -1.972,-0.75 -2.019,-0.705 -2.065,-0.609 -2.066,-0.564 -2.065,-0.516 -2.112,-0.422 -2.113,-0.377 -2.159,-0.328 -2.16,-0.234 -2.159,-0.211 -2.16,-0.141 -2.159,-0.072 -2.16,-0.023 h -0.938 l -0.939,0.023 -0.985,0.023 -0.986,0.049 -0.985,0.047 -0.986,0.07 -0.985,0.07 -0.986,0.094 -1.033,0.117 -1.032,0.117 -0.986,0.141 -1.033,0.141 -1.079,0.188 -1.033,0.188 -1.033,0.189 -1.032,0.234 -1.08,0.234 -1.033,0.258 -1.079,0.281 -1.08,0.283 -1.033,0.328 -1.079,0.328 -1.08,0.352 -1.033,0.4 -1.08,0.398 -1.079,0.422 -1.08,0.447 -1.033,0.469 -1.079,0.494 -1.08,0.492 -1.033,0.539 -1.079,0.564 -1.033,0.609 -1.033,0.611 -1.032,0.633 -1.08,0.682 -1.033,0.68 -0.985,0.729 -1.033,0.752 -1.033,0.773 -1.174,1.104 -1.173,1.08 -1.08,1.127 -1.033,1.127 -0.938,1.127 -0.939,1.127 -0.892,1.174 -0.846,1.125 -0.751,1.174 -0.751,1.174 -0.704,1.174 -0.657,1.127 -0.61,1.174 -0.563,1.174 -0.517,1.174 -0.517,1.127 -0.469,1.174 -0.423,1.127 -0.376,1.127 -0.375,1.125 -0.329,1.127 -0.281,1.08 -0.282,1.08 -0.234,1.08 -0.188,1.08 -0.235,1.033 -0.141,0.984 -0.141,1.033 -0.142,0.986 -0.141,0.939 -0.094,0.939 -0.047,0.891 -0.094,0.893 -0.047,0.846 -0.047,0.844 v 0.799 l -0.047,0.752 v 0.75 0.705 0.656 c 0.188,0 0.469,0 0.469,0 h 0.329 0.423 0.516 0.61 0.657 0.705 0.798 0.845 0.846 0.938 0.986 0.985 1.033 1.033 1.079 1.08 1.08 1.079 1.08 1.033 1.08 1.032 0.986 0.985 0.893 0.892 0.846 0.798 0.704 0.657 0.61 0.517 0.423 0.328 0.281 c 0.188,0 0.188,-0.516 0.188,-0.516 v -0.611 -0.703 l 0.047,-0.705 v -0.797 l 0.047,-0.846 0.094,-0.893 0.047,-0.891 0.141,-0.986 0.095,-0.986 0.188,-1.033 0.188,-1.033 0.235,-1.08 0.234,-1.125 0.328,-1.08 0.329,-1.127 0.376,-1.127 0.469,-1.08 0.47,-1.127 0.563,-1.127 0.61,-1.08 0.657,-1.08 0.751,-1.031 0.798,-1.033 0.846,-1.033 0.938,-0.939 1.033,-0.939 1.08,-0.891 1.174,-0.846 1.268,-0.752 1.314,-0.75 1.455,-0.658 1.502,-0.609 1.644,-0.564 1.69,-0.469 1.831,-0.422 1.925,-0.283 2.019,-0.234 2.159,-0.141 2.207,-0.047 2.019,0.047 1.878,0.094 1.784,0.188 1.737,0.283 1.596,0.328 1.55,0.375 1.502,0.471 1.409,0.469 1.314,0.562 1.268,0.611 1.174,0.703 1.079,0.705 1.08,0.752 0.986,0.797 0.892,0.799 0.892,0.893 0.799,0.891 0.751,0.893 0.657,0.939 0.657,0.986 0.563,0.984 0.563,0.986 0.47,0.986 0.469,1.033 0.423,1.033 0.329,1.031 0.328,1.033 0.329,0.986 0.234,1.033 0.234,0.986 0.188,1.031 0.141,0.939 0.141,0.986 0.141,0.939 0.094,0.891 0.048,0.893 0.047,0.846 0.047,0.846 v 0.75 0.752 l -0.047,1.83 -0.142,1.785 -0.234,1.83 -0.329,1.832 -0.422,1.83 -0.517,1.879 -0.563,1.83 -0.657,1.83 -0.704,1.832 -0.798,1.877 -0.893,1.832 -0.892,1.83 -0.986,1.832 -1.032,1.783 -1.08,1.832 -1.127,1.783 -1.221,1.785 -1.174,1.783 -1.268,1.736 -1.268,1.738 -1.314,1.736 -1.361,1.691 -1.361,1.689 -1.362,1.643 -1.408,1.645 -1.408,1.643 -1.408,1.549 -1.409,1.549 -1.408,1.551 -1.408,1.502 -1.408,1.455 -1.361,1.408 -1.409,1.408 -1.361,1.361 -1.314,1.314 -1.314,1.268 -1.268,1.221 -1.268,1.221 -1.221,1.127 -1.174,1.127 c -0.094,0.094 -0.376,0.328 -0.376,0.328 l -0.422,0.471 -0.61,0.562 -0.751,0.752 -0.893,0.844 -0.985,1.033 -1.174,1.127 -1.221,1.221 -1.361,1.314 -1.456,1.408 -1.549,1.504 -1.597,1.596 -1.69,1.643 -1.736,1.689 -1.784,1.785 -1.784,1.736 -1.878,1.832 -1.831,1.83 -1.878,1.832 -1.878,1.83 -1.878,1.832 -1.831,1.83 -1.831,1.785 -1.784,1.736 -1.736,1.689 -1.644,1.645 -1.644,1.596 -1.502,1.502 -1.455,1.408 -1.362,1.361 -1.268,1.221 -1.126,1.127 -1.033,0.986 -0.893,0.846 -0.751,0.75 -0.61,0.611 -0.422,0.422 -0.282,0.234 c -0.104,0.098 -0.104,25.121 -0.104,25.121 z"
   stroke-miterlimit="10"
   inkscape:connector-curvature="0"
   style="fill:#000000;fill-opacity:1;stroke:none" />
</g><g
     id="LWPOLYLINE_1_"
     style="fill:#000000;fill-opacity:1;stroke:none">
	
		<path
   style="fill:#000000;fill-opacity:1;stroke:none"
   d="m 165.90625,346.0625 -1.53125,0.0312 -1.53125,0.0937 -1.53125,0.125 -1.5,0.1875 -1.53125,0.21875 -1.46875,0.28125 -1.5,0.34375 -1.5,0.375 -1.4375,0.4375 -1.4375,0.46875 -1.4375,0.5625 -1.40625,0.5625 -1.375,0.65625 -1.34375,0.65625 -1.34375,0.75 -1.28125,0.78125 -1.28125,0.8125 -1.21875,0.875 -1.21875,0.9375 -1.15625,1 -1.125,1.03125 -1.09375,1.0625 -1.0625,1.09375 -1,1.1875 -0.9375,1.21875 -0.90625,1.28125 -0.875,1.28125 -0.8125,1.375 -0.75,1.40625 -0.6875,1.4375 -0.65625,1.5 -0.5625,1.5625 -0.53125,1.59375 -0.4375,1.625 -0.40625,1.6875 -0.3125,1.71875 -0.28125,1.78125 -0.15625,1.84375 -0.125,1.84375 -0.0312,1.9375 0.0312,1.625 0.0937,1.625 0.125,1.59375 0.21875,1.5625 0.25,1.5625 0.34375,1.5 0.375,1.46875 0.40625,1.4375 0.5,1.40625 0.53125,1.375 0.59375,1.34375 0.625,1.3125 0.6875,1.25 0.75,1.25 0.78125,1.1875 0.84375,1.15625 0.875,1.125 0.9375,1.0625 0.96875,1.0625 1,1 1.0625,0.96875 1.09375,0.90625 1.125,0.875 1.1875,0.8125 1.21875,0.78125 1.25,0.75 1.3125,0.6875 1.3125,0.65625 1.375,0.59375 1.40625,0.5625 1.40625,0.5 1.46875,0.4375 1.53125,0.40625 1.5,0.34375 1.59375,0.3125 1.5625,0.25 1.625,0.1875 1.65625,0.125 1.65625,0.0937 1.6875,0.0312 1,0 0.96875,-0.0312 0.9375,-0.0625 0.9375,-0.0312 0.9375,-0.0625 0.90625,-0.0937 0.875,-0.0937 0.875,-0.125 0.90625,-0.125 0.84375,-0.15625 0.84375,-0.125 0.84375,-0.1875 0.8125,-0.1875 0.8125,-0.1875 0.8125,-0.21875 0.78125,-0.21875 0.8125,-0.25 0.75,-0.25 0.78125,-0.25 0.75,-0.28125 0.75,-0.28125 0.75,-0.3125 0.71875,-0.3125 0.71875,-0.3125 0.75,-0.34375 0.6875,-0.34375 0.71875,-0.34375 0.71875,-0.375 0.6875,-0.375 0.71875,-0.40625 0.6875,-0.375 0.6875,-0.4375 0.6875,-0.40625 0.65625,-0.4375 0.6875,-0.4375 0.6875,-0.46875 0.6875,-0.46875 0.6875,-0.46875 0.65625,-0.46875 0.6875,-0.5 c -0.10232,-0.13164 -0.15625,-0.1875 -0.15625,-0.1875 -0.10227,-0.11729 -0.1562,-0.1875 -0.1562,-0.1875 -0.073,-0.088 -0.125,-0.1875 -0.125,-0.1875 -0.088,-0.088 -0.1875,-0.1875 -0.1875,-0.1875 -0.073,-0.10232 -0.15625,-0.1875 -0.15625,-0.1875 -0.088,-0.10232 -0.15625,-0.21875 -0.15625,-0.21875 -0.088,-0.10232 -0.1875,-0.21875 -0.1875,-0.21875 -0.088,-0.10232 -0.1875,-0.21875 -0.1875,-0.21875 -0.0886,-0.11729 -0.15625,-0.21875 -0.15625,-0.21875 -0.088,-0.11792 -0.1875,-0.21875 -0.1875,-0.21875 -0.0886,-0.10232 -0.15625,-0.21875 -0.15625,-0.21875 -0.088,-0.10232 -0.15625,-0.1875 -0.15625,-0.1875 -0.0587,-0.088 -0.125,-0.15625 -0.125,-0.15625 -0.11729,-0.14724 -0.15625,-0.21875 -0.15625,-0.21875 -0.10232,-0.14599 -0.15625,-0.15625 -0.15625,-0.15625 -0.0144,-0.0293 -0.59375,0.375 -0.59375,0.375 l -0.59375,0.40625 -0.59375,0.40625 -0.59375,0.375 -0.59375,0.375 -0.59375,0.375 -0.59375,0.375 -0.625,0.34375 -0.625,0.375 -0.59375,0.34375 -0.625,0.34375 -0.65625,0.34375 -0.625,0.3125 -0.625,0.3125 -0.65625,0.3125 -0.65625,0.3125 -0.65625,0.28125 -0.65625,0.28125 -0.6875,0.28125 -0.6875,0.25 -0.6875,0.25 -0.71875,0.25 -0.6875,0.25 -0.71875,0.21875 -0.71875,0.1875 -0.71875,0.21875 -0.75,0.1875 -0.78125,0.1875 -0.75,0.15625 -0.78125,0.15625 -0.78125,0.125 -0.78125,0.125 -0.8125,0.0937 -0.8125,0.125 -0.84375,0.0625 -0.8125,0.0625 -0.875,0.0625 -0.875,0.0312 -0.875,0.0312 -0.875,0 -1.53125,0 -1.5,-0.0937 -1.46875,-0.125 -1.46875,-0.15625 -1.4375,-0.1875 -1.40625,-0.25 -1.375,-0.3125 -1.34375,-0.34375 -1.34375,-0.375 -1.28125,-0.4375 -1.28125,-0.46875 -1.21875,-0.5 -1.21875,-0.53125 -1.15625,-0.625 -1.15625,-0.625 -1.09375,-0.65625 -1.09375,-0.71875 -1.03125,-0.75 -1,-0.78125 -0.96875,-0.84375 -0.90625,-0.84375 -0.875,-0.90625 -0.875,-0.9375 -0.78125,-0.96875 -0.78125,-1 -0.71875,-1.03125 -0.6875,-1.09375 -0.625,-1.09375 -0.59375,-1.125 -0.53125,-1.1875 -0.5,-1.21875 -0.4375,-1.21875 -0.40625,-1.28125 -0.34375,-1.3125 L 130,393.34375 129.75,392 l -0.1875,-1.40625 -0.125,-1.40625 -0.0937,-1.4375 -0.0312,-1.46875 0.0312,-1.71875 0.0937,-1.625 0.15625,-1.625 0.21875,-1.5625 0.28125,-1.53125 0.34375,-1.5 0.40625,-1.46875 0.4375,-1.40625 0.5,-1.375 0.53125,-1.34375 0.625,-1.28125 0.65625,-1.28125 0.6875,-1.21875 0.75,-1.15625 0.78125,-1.125 0.84375,-1.09375 0.875,-1.0625 0.9375,-1 0.9375,-0.9375 1,-0.9375 1.03125,-0.875 1.0625,-0.84375 1.09375,-0.78125 1.125,-0.78125 1.15625,-0.6875 1.1875,-0.65625 1.21875,-0.625 1.25,-0.5625 1.28125,-0.53125 1.28125,-0.46875 1.3125,-0.4375 1.3125,-0.40625 1.34375,-0.34375 1.375,-0.3125 1.375,-0.25 1.40625,-0.21875 1.40625,-0.15625 1.40625,-0.125 1.4375,-0.0625 1.4375,-0.0312 1.15625,0.0312 1.15625,0.0312 1.15625,0.0937 1.15625,0.0937 1.125,0.15625 1.09375,0.15625 1.09375,0.21875 1.09375,0.21875 1.09375,0.28125 1.0625,0.3125 1,0.3125 1.03125,0.375 1,0.40625 0.96875,0.40625 0.96875,0.46875 0.90625,0.5 0.90625,0.53125 0.90625,0.5625 0.84375,0.59375 0.8125,0.625 0.8125,0.65625 0.75,0.6875 0.75,0.71875 0.6875,0.75 0.6875,0.8125 0.625,0.8125 0.59375,0.84375 0.5625,0.90625 0.5,0.90625 0.5,0.96875 0.4375,0.96875 0.375,1.03125 0.375,1.0625 0.3125,1.0625 0.25,1.125 0.21875,1.15625 0.1875,1.1875 0.125,1.21875 0.0937,1.25 0.0312,1.28125 -0.0312,0.9375 -0.0312,0.9375 -0.0937,0.90625 -0.0937,0.90625 -0.125,0.90625 -0.125,0.875 -0.1875,0.84375 -0.1875,0.84375 -0.21875,0.84375 -0.25,0.8125 -0.25,0.78125 -0.28125,0.78125 -0.3125,0.75 -0.3125,0.75 -0.3125,0.71875 -0.375,0.6875 -0.375,0.65625 -0.375,0.65625 -0.40625,0.625 -0.40625,0.625 -0.40625,0.59375 -0.4375,0.5625 -0.46875,0.5 -0.4375,0.53125 -0.46875,0.46875 -0.46875,0.46875 -0.46875,0.4375 -0.5,0.40625 -0.46875,0.375 -0.5,0.34375 -0.5,0.28125 -0.5,0.3125 -0.5,0.25 -0.53125,0.21875 -0.5,0.1875 -0.5,0.15625 -0.5,0.125 -0.5,0.0937 -0.5,0.0312 -0.5,0.0312 c -0.10232,0 -0.1875,-0.0312 -0.1875,-0.0312 -0.11729,0 -0.21875,0 -0.21875,0 -0.11729,0 -0.25,0 -0.25,0 -0.13164,-0.0293 -0.25,-0.0625 -0.25,-0.0625 -0.13227,-0.0293 -0.28125,-0.0625 -0.28125,-0.0625 -0.13164,-0.0437 -0.25,-0.0937 -0.25,-0.0937 -0.14599,-0.0437 -0.28125,-0.0625 -0.28125,-0.0625 -0.14662,-0.0587 -0.28125,-0.125 -0.28125,-0.125 -0.13227,-0.073 -0.28125,-0.15625 -0.28125,-0.15625 -0.13164,-0.073 -0.28125,-0.15625 -0.28125,-0.15625 l -0.25,-0.1875 c -0.13227,-0.10232 -0.28125,-0.25 -0.28125,-0.25 -0.11729,-0.11729 -0.21875,-0.25 -0.21875,-0.25 -0.10232,-0.14599 -0.21875,-0.28125 -0.21875,-0.28125 L 177.28125,397 l -0.0937,-0.15625 -0.0937,-0.15625 -0.0625,-0.1875 -0.0937,-0.21875 -0.0625,-0.1875 -0.0312,-0.21875 -0.0625,-0.21875 -0.0312,-0.21875 -0.0312,-0.25 -0.0312,-0.25 0,-0.28125 0,-0.15625 0.0312,-0.1875 0,-0.1875 0,-0.1875 0.0312,-0.1875 0.0312,-0.1875 0.0312,-0.1875 0.0312,-0.1875 0,-0.21875 0.0625,-0.1875 0.0312,-0.21875 0.0312,-0.1875 0.0625,-0.1875 0.0312,-0.21875 0.0312,-0.1875 0.0625,-0.1875 0.0625,-0.21875 0.0625,-0.21875 0.0312,-0.1875 0.0625,-0.1875 0.0625,-0.21875 0.0625,-0.1875 0.0312,-0.21875 0.0625,-0.1875 0.0625,-0.21875 0.0625,-0.1875 0.0625,-0.1875 0.0625,-0.21875 0.0625,-0.1875 0.0625,-0.1875 0.0625,-0.21875 0.0312,-0.1875 0.0625,-0.1875 0.0625,-0.1875 0.0625,-0.1875 0.0625,-0.1875 0.0312,-0.21875 0.0625,-0.1875 0.0625,-0.15625 0.0312,-0.1875 c 0.0144,-0.0437 0.0312,-0.15625 0.0312,-0.15625 l 0.0625,-0.1875 0.0625,-0.25 0.0937,-0.3125 0.125,-0.375 0.0937,-0.4375 0.15625,-0.46875 0.15625,-0.53125 0.15625,-0.5625 0.1875,-0.625 0.15625,-0.625 0.21875,-0.6875 0.1875,-0.6875 0.21875,-0.75 0.21875,-0.75 0.21875,-0.75 0.21875,-0.78125 0.21875,-0.78125 0.21875,-0.78125 0.21875,-0.78125 0.21875,-0.78125 0.25,-0.78125 0.1875,-0.75 0.21875,-0.75 0.21875,-0.75 0.1875,-0.6875 0.21875,-0.6875 0.1875,-0.625 0.15625,-0.625 0.15625,-0.5625 0.15625,-0.53125 0.125,-0.5 0.15625,-0.40625 0.0937,-0.375 0.0937,-0.3125 0.0625,-0.25 0.0625,-0.1875 c 0.0293,-0.10232 0.0312,-0.15625 0.0312,-0.15625 l -7.1875,0 c -0.0293,0.10232 -0.0625,0.1875 -0.0625,0.1875 -0.0293,0.088 -0.0625,0.21875 -0.0625,0.21875 -0.0437,0.14599 -0.0937,0.28125 -0.0937,0.28125 l -0.0312,0.15625 -0.0312,0.1875 -0.0625,0.1875 -0.0625,0.1875 -0.0312,0.25 -0.0937,0.21875 -0.0625,0.21875 -0.0625,0.25 -0.0625,0.21875 -0.0625,0.25 -0.0625,0.25 -0.0625,0.21875 -0.0625,0.25 -0.0937,0.25 -0.0625,0.25 -0.0625,0.25 -0.0625,0.21875 -0.0625,0.25 -0.0625,0.21875 -0.0312,0.1875 -0.0625,0.21875 -0.0625,0.1875 -0.0625,0.1875 -0.0312,0.15625 -0.0312,0.15625 c -0.0293,0.13289 -0.0937,0.25 -0.0937,0.25 -0.0144,0.10232 -0.0312,0.1875 -0.0312,0.1875 -0.0293,-0.0281 -0.0312,-0.1875 -0.0312,-0.1875 -0.0144,-0.13164 -0.0312,-0.25 -0.0312,-0.25 -0.0144,-0.13164 0,-0.28125 0,-0.28125 -0.0144,-0.13164 -0.0312,-0.25 -0.0312,-0.25 -0.0293,-0.13164 -0.0625,-0.28125 -0.0625,-0.28125 l -0.0625,-0.25 c -0.0293,-0.13164 -0.0625,-0.28125 -0.0625,-0.28125 -0.0293,-0.13164 -0.0625,-0.25 -0.0625,-0.25 -0.0437,-0.13164 -0.0937,-0.25 -0.0937,-0.25 -0.0587,-0.11729 -0.125,-0.25 -0.125,-0.25 -0.0587,-0.11729 -0.125,-0.21875 -0.125,-0.21875 -0.0587,-0.13164 -0.125,-0.25 -0.125,-0.25 -0.073,-0.11729 -0.15625,-0.25 -0.15625,-0.25 -0.073,-0.11729 -0.15625,-0.21875 -0.15625,-0.21875 -0.088,-0.11792 -0.15625,-0.21875 -0.15625,-0.21875 -0.10232,-0.10232 -0.1875,-0.21875 -0.1875,-0.21875 -0.10232,-0.11729 -0.21875,-0.21875 -0.21875,-0.21875 -0.10232,-0.10232 -0.25,-0.1875 -0.25,-0.1875 -0.11729,-0.10232 -0.21875,-0.1875 -0.21875,-0.1875 -0.13227,-0.10232 -0.28125,-0.1875 -0.28125,-0.1875 l -0.1875,-0.21875 -0.1875,-0.21875 -0.1875,-0.21875 -0.1875,-0.1875 -0.1875,-0.1875 -0.21875,-0.1875 -0.21875,-0.15625 -0.1875,-0.15625 L 171.3125,366 l -0.21875,-0.15625 -0.21875,-0.15625 -0.21875,-0.0937 -0.25,-0.15625 -0.21875,-0.0937 -0.21875,-0.125 -0.25,-0.0937 -0.25,-0.125 -0.21875,-0.0937 -0.25,-0.0625 -0.25,-0.0937 -0.25,-0.0937 -0.25,-0.0625 -0.25,-0.0625 -0.25,-0.0625 -0.25,-0.0312 -0.25,-0.0625 -0.28125,-0.0625 -0.25,-0.0312 -0.28125,-0.0312 -0.25,-0.0312 -0.28125,-0.0312 -0.25,-0.0312 -0.25,0 -0.28125,-0.0312 -0.28125,-0.0312 -0.25,0 -0.28125,0 -0.28125,-0.0312 -0.25,0 -0.28125,0 -0.875,0.0312 -0.90625,0.0937 -0.84375,0.0937 -0.84375,0.15625 -0.8125,0.21875 -0.8125,0.25 -0.78125,0.28125 -0.78125,0.34375 -0.75,0.375 -0.75,0.40625 -0.71875,0.4375 -0.6875,0.46875 -0.65625,0.5 -0.6875,0.53125 -0.625,0.5625 -0.625,0.59375 -0.59375,0.625 -0.5625,0.65625 -0.5625,0.65625 -0.53125,0.6875 -0.5,0.6875 -0.46875,0.75 -0.46875,0.71875 -0.4375,0.78125 -0.40625,0.75 -0.40625,0.8125 -0.34375,0.78125 -0.34375,0.8125 -0.3125,0.8125 -0.28125,0.8125 -0.28125,0.84375 -0.21875,0.84375 -0.21875,0.8125 -0.1875,0.84375 -0.15625,0.84375 -0.125,0.84375 -0.0937,0.8125 -0.0937,0.84375 -0.0312,0.8125 0,0.8125 0,0.71875 0.0312,0.6875 0.0312,0.6875 0.0937,0.6875 0.0625,0.65625 0.125,0.625 0.125,0.625 0.15625,0.625 0.15625,0.59375 0.15625,0.59375 0.21875,0.5625 0.21875,0.5625 0.21875,0.53125 0.25,0.5 0.25,0.5 0.28125,0.5 0.3125,0.4375 0.3125,0.46875 0.3125,0.4375 0.34375,0.40625 0.34375,0.40625 0.40625,0.375 0.375,0.34375 0.375,0.34375 0.4375,0.3125 0.40625,0.3125 0.4375,0.28125 0.46875,0.25 0.46875,0.25 0.46875,0.21875 0.46875,0.21875 0.5,0.1875 0.53125,0.15625 0.5,0.125 0.53125,0.15625 0.5625,0.0937 0.53125,0.0625 0.5625,0.0625 0.5625,0.0312 0.59375,0 0.71875,0 0.6875,-0.0312 0.65625,-0.0937 0.625,-0.0625 0.625,-0.125 0.59375,-0.125 0.59375,-0.15625 0.5625,-0.15625 0.53125,-0.1875 0.53125,-0.21875 0.5,-0.21875 0.5,-0.25 0.46875,-0.25 0.4375,-0.28125 0.4375,-0.28125 0.40625,-0.28125 0.375,-0.28125 0.40625,-0.3125 0.34375,-0.34375 0.34375,-0.3125 0.3125,-0.3125 0.34375,-0.34375 0.28125,-0.34375 0.28125,-0.34375 L 168.75,398 l 0.25,-0.34375 0.25,-0.3125 0.21875,-0.34375 0.21875,-0.34375 0.21875,-0.34375 0.1875,-0.3125 0.1875,-0.3125 0.15625,-0.3125 0.15625,-0.3125 0.15625,-0.28125 0.125,-0.3125 0.125,-0.25 0.0937,-0.28125 0.125,-0.25 0.0937,-0.21875 0,0.1875 0,0.15625 0,0.15625 0,0.15625 0,0.21875 0,0.21875 0,0.21875 0,0.1875 0,0.1875 0,0.21875 0,0.21875 0,0.21875 0,0.15625 0,0.15625 0,0.15625 0,0.1875 0,0.34375 0,0.34375 0.0625,0.34375 0.0312,0.34375 0.0625,0.3125 0.0625,0.3125 0.0937,0.3125 0.0937,0.28125 0.0937,0.28125 0.125,0.28125 0.125,0.25 0.125,0.28125 0.15625,0.21875 0.15625,0.25 0.15625,0.21875 0.1875,0.25 0.1875,0.1875 0.1875,0.21875 0.1875,0.1875 0.21875,0.1875 0.21875,0.1875 0.21875,0.15625 0.25,0.15625 0.25,0.15625 0.21875,0.125 0.28125,0.125 0.21875,0.125 0.28125,0.0937 0.28125,0.125 0.28125,0.0937 0.28125,0.0937 0.28125,0.0625 0.28125,0.0625 0.28125,0.0625 0.3125,0.0625 0.28125,0.0312 0.3125,0.0312 0.3125,0.0312 0.3125,0 0.3125,0 0.78125,0 0.78125,-0.0625 0.75,-0.0937 0.75,-0.125 0.78125,-0.1875 0.75,-0.1875 0.75,-0.25 0.75,-0.28125 0.75,-0.3125 0.75,-0.34375 0.75,-0.375 0.71875,-0.40625 0.6875,-0.4375 0.6875,-0.5 0.71875,-0.5 0.65625,-0.53125 0.65625,-0.59375 0.625,-0.59375 0.625,-0.65625 0.625,-0.6875 0.5625,-0.6875 0.59375,-0.75 0.53125,-0.75 0.5,-0.78125 0.53125,-0.8125 0.46875,-0.84375 0.4375,-0.875 0.40625,-0.90625 0.40625,-0.9375 0.375,-0.96875 0.34375,-0.96875 0.28125,-1.03125 0.28125,-1 0.25,-1.09375 0.1875,-1.0625 0.1875,-1.125 0.125,-1.125 0.125,-1.15625 0.0312,-1.1875 0.0312,-1.1875 -0.0312,-1.5625 -0.0937,-1.5 -0.15625,-1.5 -0.21875,-1.4375 -0.25,-1.375 -0.3125,-1.34375 -0.40625,-1.3125 -0.40625,-1.28125 -0.5,-1.25 -0.5,-1.15625 -0.59375,-1.15625 -0.625,-1.125 -0.65625,-1.0625 -0.71875,-1.0625 -0.75,-0.96875 -0.8125,-0.96875 -0.8125,-0.90625 -0.875,-0.875 -0.90625,-0.84375 -0.9375,-0.78125 -0.96875,-0.78125 -1,-0.6875 -1.0625,-0.6875 -1.03125,-0.65625 -1.09375,-0.59375 -1.125,-0.5625 -1.125,-0.53125 -1.15625,-0.46875 -1.1875,-0.4375 -1.1875,-0.40625 -1.21875,-0.34375 -1.21875,-0.34375 -1.25,-0.3125 -1.25,-0.25 -1.28125,-0.1875 -1.28125,-0.1875 -1.28125,-0.125 -1.3125,-0.0937 -1.28125,-0.0625 -1.3125,-0.0312 z m -0.59375,22.8125 0.21875,0 0.21875,0.0312 0.25,0 0.21875,0.0312 0.25,0.0312 0.25,0.0312 0.25,0.0625 0.25,0.0625 0.21875,0.0625 0.25,0.0625 0.25,0.0937 0.25,0.0937 0.25,0.125 0.21875,0.0937 0.25,0.125 0.21875,0.15625 0.25,0.15625 0.21875,0.15625 0.21875,0.15625 0.21875,0.1875 0.21875,0.1875 0.1875,0.21875 0.1875,0.25 0.1875,0.21875 0.21875,0.25 0.15625,0.25 0.15625,0.28125 0.15625,0.3125 0.15625,0.3125 0.125,0.3125 0.15625,0.34375 0.0937,0.34375 0.125,0.375 0.0625,0.375 0.0937,0.375 0.0625,0.4375 0.0625,0.4375 0.0312,0.4375 0.0312,0.46875 0,0.5 0,0.3125 -0.0312,0.40625 -0.0312,0.4375 -0.0312,0.46875 -0.0625,0.5 -0.0937,0.53125 -0.0937,0.59375 -0.0937,0.59375 -0.125,0.625 -0.15625,0.6875 -0.15625,0.65625 -0.15625,0.6875 -0.1875,0.71875 -0.21875,0.71875 -0.21875,0.75 -0.21875,0.71875 -0.25,0.75 -0.28125,0.71875 -0.28125,0.75 -0.3125,0.75 -0.34375,0.71875 -0.3125,0.71875 -0.375,0.71875 -0.375,0.65625 -0.40625,0.6875 -0.40625,0.625 -0.4375,0.625 -0.46885,0.5941 -0.46875,0.5625 -0.46875,0.53125 -0.53125,0.46875 -0.53125,0.46875 -0.5625,0.40625 -0.59375,0.375 -0.59375,0.3125 -0.625,0.25 -0.625,0.21875 -0.65625,0.15625 -0.6875,0.0937 -0.71875,0.0312 -0.40625,-0.0312 -0.40625,-0.0312 -0.34375,-0.0312 -0.375,-0.0625 -0.34375,-0.0625 -0.375,-0.0937 -0.3125,-0.125 -0.34375,-0.0937 -0.3125,-0.15625 -0.28125,-0.15625 -0.28125,-0.15625 -0.28125,-0.1875 -0.28125,-0.1875 -0.25,-0.21875 -0.25,-0.21875 -0.25,-0.21875 -0.21875,-0.25 -0.21875,-0.25 -0.21875,-0.28125 -0.1875,-0.28125 -0.1875,-0.28125 -0.15625,-0.28125 -0.1875,-0.3125 -0.15625,-0.3125 -0.125,-0.3125 -0.15625,-0.34375 -0.125,-0.34375 -0.125,-0.34375 -0.0937,-0.34375 -0.0937,-0.375 -0.0937,-0.34375 -0.0625,-0.375 -0.0937,-0.375 -0.0625,-0.375 -0.0312,-0.40625 -0.0312,-0.375 -0.0312,-0.40625 -0.0312,-0.40625 -0.0312,-0.40625 0,-0.40625 0,-0.59375 0.0312,-0.59375 0.0625,-0.625 0.0625,-0.625 0.0937,-0.625 0.125,-0.65625 0.125,-0.65625 0.125,-0.65625 0.1875,-0.6875 0.15625,-0.65625 0.21875,-0.65625 0.21875,-0.65625 0.21875,-0.6875 0.25,-0.65625 0.28125,-0.65625 0.28125,-0.625 0.3125,-0.65625 0.3125,-0.625 0.34375,-0.625 0.34375,-0.59375 0.375,-0.59375 0.375,-0.5625 0.40625,-0.5625 0.40625,-0.53125 0.4375,-0.5 0.4375,-0.5 0.46875,-0.46875 0.46875,-0.4375 0.5,-0.4375 0.46875,-0.375 0.53125,-0.34375 0.53125,-0.34375 0.53125,-0.3125 0.53125,-0.25 0.59375,-0.21875 0.5625,-0.1875 0.59375,-0.15625 0.59375,-0.0937 0.625,-0.0625 0.625,-0.0312 z"
   transform="matrix(1.6028268,0,0,1.6028268,-75.292856,-359.19696)"
   id="path7"
   inkscape:connector-curvature="0" />
</g><g
     id="LWPOLYLINE_2_"
     style="fill:#000000;fill-opacity:1;stroke:none">
	
		
</g></g>
</svg>