<?xml version="1.0" encoding="UTF-8" standalone="no"?>
<!-- Generator: Adobe Illustrator 16.0.1, SVG Export Plug-In . SVG Version: 6.00 Build 0)  -->

<svg
   xmlns:dc="http://purl.org/dc/elements/1.1/"
   xmlns:cc="http://creativecommons.org/ns#"
   xmlns:rdf="http://www.w3.org/1999/02/22-rdf-syntax-ns#"
   xmlns:svg="http://www.w3.org/2000/svg"
   xmlns="http://www.w3.org/2000/svg"
   xmlns:xlink="http://www.w3.org/1999/xlink"
   xmlns:sodipodi="http://sodipodi.sourceforge.net/DTD/sodipodi-0.dtd"
   xmlns:inkscape="http://www.inkscape.org/namespaces/inkscape"
   version="1.0"
   id="_x31_"
   x="0px"
   y="0px"
   width="350"
   height="350"
   viewBox="0 0 350 350"
   enable-background="new 0 0 612 792"
   xml:space="preserve"
   inkscape:version="0.48.3.1 r9886"
   sodipodi:docname="6062.svg"><metadata
   id="metadata16"><rdf:RDF><cc:Work
       rdf:about=""><dc:format>image/svg+xml</dc:format><dc:type
         rdf:resource="http://purl.org/dc/dcmitype/StillImage" /></cc:Work></rdf:RDF></metadata><defs
   id="defs14"><radialGradient
     r="333.18735"
     fy="467.91885"
     fx="373.24265"
     cy="467.91885"
     cx="373.24265"
     gradientTransform="matrix(0.83535069,2.5391116e-7,-2.4564601e-7,0.80815885,-725.97492,-115.98714)"
     gradientUnits="userSpaceOnUse"
     id="radialGradient4460"
     xlink:href="#linearGradient5443"
     inkscape:collect="always" /><linearGradient
     y2="254.73526"
     x2="123.47623"
     y1="344.03848"
     x1="123.50603"
     gradientTransform="matrix(2.3189708,0,0,2.0930998,-543.56606,-225.82362)"
     gradientUnits="userSpaceOnUse"
     id="linearGradient4458"
     xlink:href="#linearGradient3187"
     inkscape:collect="always" /><radialGradient
     r="333.18735"
     fy="710.99164"
     fx="373.24265"
     cy="710.99164"
     cx="373.24265"
     gradientTransform="matrix(0.86272606,1.0667183e-7,-5.1097113e-8,0.31433999,-736.19251,168.72353)"
     gradientUnits="userSpaceOnUse"
     id="radialGradient4456"
     xlink:href="#linearGradient5443"
     inkscape:collect="always" /><radialGradient
     r="333.18735"
     fy="467.91885"
     fx="373.24265"
     cy="467.91885"
     cx="373.24265"
     gradientTransform="matrix(0.83393192,2.4025531e-7,-2.452288e-7,0.76469446,-575.89311,126.3946)"
     gradientUnits="userSpaceOnUse"
     id="radialGradient2894-5"
     xlink:href="#linearGradient5443-0"
     inkscape:collect="always" /><linearGradient
     y2="254.73526"
     x2="123.47623"
     y1="344.03848"
     x1="123.50603"
     gradientTransform="matrix(2.3189708,0,0,2.0930998,-543.56606,-225.82362)"
     gradientUnits="userSpaceOnUse"
     id="linearGradient2892-2"
     xlink:href="#linearGradient3187-1"
     inkscape:collect="always" /><radialGradient
     r="333.18735"
     fy="710.99164"
     fx="373.24265"
     cy="710.99164"
     cx="373.24265"
     gradientTransform="matrix(0.8612608,1.0093481e-7,-5.1010329e-8,0.29743416,-586.09339,395.79293)"
     gradientUnits="userSpaceOnUse"
     id="radialGradient2890-7"
     xlink:href="#linearGradient5443-0"
     inkscape:collect="always" /><linearGradient
     id="linearGradient5443-5-6"><stop
       style="stop-color:#ffffff;stop-opacity:0;"
       offset="0"
       id="stop5445-4-1" /><stop
       style="stop-color:#000000;stop-opacity:0.33962265;"
       offset="1"
       id="stop5447-3-4" /></linearGradient><radialGradient
     r="333.18735"
     fy="710.99164"
     fx="373.24265"
     cy="710.99164"
     cx="373.24265"
     gradientTransform="matrix(0.9503534,1.1750652e-7,-5.6287062e-8,0.3462676,317.80591,185.68771)"
     gradientUnits="userSpaceOnUse"
     id="radialGradient4835-3-2"
     xlink:href="#linearGradient5443-5-6"
     inkscape:collect="always" /><radialGradient
     r="333.18735"
     fy="710.99164"
     fx="373.24265"
     cy="710.99164"
     cx="373.24265"
     gradientTransform="matrix(0.8612608,1.0093481e-7,-5.1010329e-8,0.29743416,-586.09339,395.79293)"
     gradientUnits="userSpaceOnUse"
     id="radialGradient4835-2"
     xlink:href="#linearGradient5443-0"
     inkscape:collect="always" /><radialGradient
     r="333.18735"
     fy="467.91885"
     fx="373.24265"
     cy="467.91885"
     cx="373.24265"
     gradientTransform="matrix(0.83393192,2.4025531e-7,-2.452288e-7,0.76469446,-575.89311,126.3946)"
     gradientUnits="userSpaceOnUse"
     id="radialGradient4832-1"
     xlink:href="#linearGradient5443-0"
     inkscape:collect="always" /><linearGradient
     y2="254.73526"
     x2="123.47623"
     y1="344.03848"
     x1="123.50603"
     gradientTransform="matrix(2.3189708,0,0,2.0930998,-543.56606,-225.82362)"
     gradientUnits="userSpaceOnUse"
     id="linearGradient4827-6"
     xlink:href="#linearGradient3187-1"
     inkscape:collect="always" /><linearGradient
     y2="254.73526"
     x2="123.47623"
     y1="344.03848"
     x1="123.50603"
     gradientTransform="matrix(2.3189708,0,0,2.0930998,93.115298,-256.84999)"
     gradientUnits="userSpaceOnUse"
     id="linearGradient4824-8"
     xlink:href="#linearGradient3187-1"
     inkscape:collect="always" /><radialGradient
     r="333.18735"
     fy="467.91885"
     fx="373.24265"
     cy="467.91885"
     cx="373.24265"
     gradientTransform="matrix(0.9201975,2.7970099e-7,-2.7059634e-7,0.8902438,28.590287,48.634335)"
     gradientUnits="userSpaceOnUse"
     id="radialGradient4822-5"
     xlink:href="#linearGradient3171-6"
     inkscape:collect="always" /><radialGradient
     r="333.18735"
     fy="710.99164"
     fx="373.24265"
     cy="710.99164"
     cx="373.24265"
     gradientTransform="matrix(0.9503534,1.1750652e-7,-5.6287062e-8,0.3462676,17.334826,362.44227)"
     gradientUnits="userSpaceOnUse"
     id="radialGradient4820-7"
     xlink:href="#linearGradient3157-2"
     inkscape:collect="always" /><radialGradient
     r="333.18735"
     fy="710.99164"
     fx="373.24265"
     cy="710.99164"
     cx="373.24265"
     gradientTransform="matrix(0.9503534,1.1750652e-7,-5.6287062e-8,0.3462676,17.334826,362.44227)"
     gradientUnits="userSpaceOnUse"
     id="radialGradient4805-6"
     xlink:href="#linearGradient3157-2"
     inkscape:collect="always" /><radialGradient
     r="333.18735"
     fy="467.91885"
     fx="373.24265"
     cy="467.91885"
     cx="373.24265"
     gradientTransform="matrix(0.9201975,2.7970099e-7,-2.7059634e-7,0.8902438,28.590287,48.634335)"
     gradientUnits="userSpaceOnUse"
     id="radialGradient4802-1"
     xlink:href="#linearGradient3171-6"
     inkscape:collect="always" /><linearGradient
     y2="254.73526"
     x2="123.47623"
     y1="344.03848"
     x1="123.50603"
     gradientTransform="matrix(2.3189708,0,0,2.0930998,93.115298,-256.84999)"
     gradientUnits="userSpaceOnUse"
     id="linearGradient4799-8"
     xlink:href="#linearGradient3187-1"
     inkscape:collect="always" /><linearGradient
     y2="254.73526"
     x2="123.47623"
     y1="344.03848"
     x1="123.50603"
     gradientTransform="matrix(2.3189708,0,0,2.0930998,93.115298,-256.84999)"
     gradientUnits="userSpaceOnUse"
     id="linearGradient4794-9"
     xlink:href="#linearGradient3187-1"
     inkscape:collect="always" /><radialGradient
     r="333.18735"
     fy="467.91885"
     fx="373.24265"
     cy="467.91885"
     cx="373.24265"
     gradientTransform="matrix(0.9201975,2.7970099e-7,-2.7059634e-7,0.8902438,28.590287,48.634335)"
     gradientUnits="userSpaceOnUse"
     id="radialGradient4792-2"
     xlink:href="#linearGradient3171-6"
     inkscape:collect="always" /><radialGradient
     r="333.18735"
     fy="710.99164"
     fx="373.24265"
     cy="710.99164"
     cx="373.24265"
     gradientTransform="matrix(0.9503534,1.1750652e-7,-5.6287062e-8,0.3462676,17.334826,362.44227)"
     gradientUnits="userSpaceOnUse"
     id="radialGradient4790-7"
     xlink:href="#linearGradient3157-2"
     inkscape:collect="always" /><radialGradient
     r="333.18735"
     fy="710.99164"
     fx="373.24265"
     cy="710.99164"
     cx="373.24265"
     gradientTransform="matrix(0.9503534,1.1750652e-7,-5.6287062e-8,0.3462676,17.334826,362.44227)"
     gradientUnits="userSpaceOnUse"
     id="radialGradient4779-9"
     xlink:href="#linearGradient3157-2"
     inkscape:collect="always" /><radialGradient
     r="333.18735"
     fy="467.91885"
     fx="373.24265"
     cy="467.91885"
     cx="373.24265"
     gradientTransform="matrix(0.9201975,2.7970099e-7,-2.7059634e-7,0.8902438,28.590287,48.634335)"
     gradientUnits="userSpaceOnUse"
     id="radialGradient4776-5"
     xlink:href="#linearGradient3171-6"
     inkscape:collect="always" /><linearGradient
     y2="254.73526"
     x2="123.47623"
     y1="344.03848"
     x1="123.50603"
     gradientTransform="matrix(2.3189708,0,0,2.0930998,93.115298,-256.84999)"
     gradientUnits="userSpaceOnUse"
     id="linearGradient4773-4"
     xlink:href="#linearGradient3187-1"
     inkscape:collect="always" /><linearGradient
     y2="254.73526"
     x2="123.47623"
     y1="344.03848"
     x1="123.50603"
     gradientTransform="matrix(2.3189708,0,0,2.0930998,93.115298,-256.84999)"
     gradientUnits="userSpaceOnUse"
     id="linearGradient4770-3"
     xlink:href="#linearGradient3187-1"
     inkscape:collect="always" /><radialGradient
     r="333.18735"
     fy="467.91885"
     fx="373.24265"
     cy="467.91885"
     cx="373.24265"
     gradientTransform="matrix(0.9201975,2.7970099e-7,-2.7059634e-7,0.8902438,28.590287,48.634335)"
     gradientUnits="userSpaceOnUse"
     id="radialGradient4768-1"
     xlink:href="#linearGradient3171-6"
     inkscape:collect="always" /><radialGradient
     r="333.18735"
     fy="710.99164"
     fx="373.24265"
     cy="710.99164"
     cx="373.24265"
     gradientTransform="matrix(0.9503534,1.1750652e-7,-5.6287062e-8,0.3462676,17.334826,362.44227)"
     gradientUnits="userSpaceOnUse"
     id="radialGradient4766-2"
     xlink:href="#linearGradient3157-2"
     inkscape:collect="always" /><radialGradient
     r="333.18735"
     fy="710.99164"
     fx="373.24265"
     cy="710.99164"
     cx="373.24265"
     gradientTransform="matrix(0.9503534,1.1750652e-7,-5.6287062e-8,0.3462676,17.334826,362.44227)"
     gradientUnits="userSpaceOnUse"
     id="radialGradient4572-4"
     xlink:href="#linearGradient3157-2"
     inkscape:collect="always" /><radialGradient
     r="333.18735"
     fy="467.91885"
     fx="373.24265"
     cy="467.91885"
     cx="373.24265"
     gradientTransform="matrix(0.9201975,2.7970099e-7,-2.7059634e-7,0.8902438,28.590287,48.634335)"
     gradientUnits="userSpaceOnUse"
     id="radialGradient4569-1"
     xlink:href="#linearGradient3171-6"
     inkscape:collect="always" /><linearGradient
     y2="254.73526"
     x2="123.47623"
     y1="344.03848"
     x1="123.50603"
     gradientTransform="matrix(2.3189708,0,0,2.0930998,93.115298,-256.84999)"
     gradientUnits="userSpaceOnUse"
     id="linearGradient4562-1"
     xlink:href="#linearGradient3187-1"
     inkscape:collect="always" /><linearGradient
     gradientUnits="userSpaceOnUse"
     y2="540.86719"
     x2="360.49777"
     y1="167.50403"
     x1="360.49777"
     id="linearGradient4401-3"
     xlink:href="#linearGradient4395-7"
     inkscape:collect="always" /><linearGradient
     gradientUnits="userSpaceOnUse"
     y2="655.4505"
     x2="396.91168"
     y1="298.59412"
     x1="371.42194"
     id="linearGradient4389-8"
     xlink:href="#linearGradient4383-4"
     inkscape:collect="always" /><inkscape:perspective
     id="perspective3214-7"
     inkscape:persp3d-origin="372.04724 : 350.78739 : 1"
     inkscape:vp_z="744.09448 : 526.18109 : 1"
     inkscape:vp_y="0 : 1000 : 0"
     inkscape:vp_x="0 : 526.18109 : 1"
     sodipodi:type="inkscape:persp3d" /><linearGradient
     id="linearGradient4383-4"><stop
       id="stop4385-2"
       offset="0"
       style="stop-color:#00037f;stop-opacity:1;" /><stop
       id="stop4387-7"
       offset="1"
       style="stop-color:#00037f;stop-opacity:0;" /></linearGradient><linearGradient
     id="linearGradient4395-7"><stop
       id="stop4397-9"
       offset="0"
       style="stop-color:#110084;stop-opacity:1;" /><stop
       id="stop4399-3"
       offset="1"
       style="stop-color:#a695ff;stop-opacity:1;" /></linearGradient><linearGradient
     id="linearGradient3187-1"><stop
       id="stop3189-9"
       offset="0"
       style="stop-color:#ffffff;stop-opacity:0.39622641;" /><stop
       id="stop3191-8"
       offset="1"
       style="stop-color:#000000;stop-opacity:1;" /></linearGradient><linearGradient
     id="linearGradient3171-6"><stop
       style="stop-color:#49bcff;stop-opacity:1;"
       offset="0"
       id="stop3173-5" /><stop
       style="stop-color:#494cdc;stop-opacity:1;"
       offset="1"
       id="stop3175-0" /></linearGradient><linearGradient
     id="linearGradient3157-2"><stop
       id="stop3159-8"
       offset="0"
       style="stop-color:#49bcff;stop-opacity:1;" /><stop
       id="stop3161-6"
       offset="1"
       style="stop-color:#494c96;stop-opacity:1;" /></linearGradient><linearGradient
     id="linearGradient5443-0"><stop
       style="stop-color:#ffffff;stop-opacity:0;"
       offset="0"
       id="stop5445-2" /><stop
       style="stop-color:#000000;stop-opacity:0.33962265;"
       offset="1"
       id="stop5447-4" /></linearGradient><radialGradient
     inkscape:collect="always"
     xlink:href="#linearGradient5443-0"
     id="radialGradient3234"
     gradientUnits="userSpaceOnUse"
     gradientTransform="matrix(0.8612608,1.0093481e-7,-5.1010329e-8,0.29743416,-586.09339,395.79293)"
     cx="373.24265"
     cy="710.99164"
     fx="373.24265"
     fy="710.99164"
     r="333.18735" /><linearGradient
     inkscape:collect="always"
     xlink:href="#linearGradient3187-1"
     id="linearGradient3236"
     gradientUnits="userSpaceOnUse"
     gradientTransform="matrix(2.3189708,0,0,2.0930998,-543.56606,-225.82362)"
     x1="123.50603"
     y1="344.03848"
     x2="123.47623"
     y2="254.73526" /><radialGradient
     inkscape:collect="always"
     xlink:href="#linearGradient5443-0"
     id="radialGradient3238"
     gradientUnits="userSpaceOnUse"
     gradientTransform="matrix(0.83393192,2.4025531e-7,-2.452288e-7,0.76469446,-575.89311,126.3946)"
     cx="373.24265"
     cy="467.91885"
     fx="373.24265"
     fy="467.91885"
     r="333.18735" /><radialGradient
     inkscape:collect="always"
     xlink:href="#linearGradient5443-0"
     id="radialGradient3254"
     gradientUnits="userSpaceOnUse"
     gradientTransform="matrix(0.8612608,1.0093481e-7,-5.1010329e-8,0.29743416,-586.09339,395.79293)"
     cx="373.24265"
     cy="710.99164"
     fx="373.24265"
     fy="710.99164"
     r="333.18735" /><linearGradient
     inkscape:collect="always"
     xlink:href="#linearGradient3187-1"
     id="linearGradient3256"
     gradientUnits="userSpaceOnUse"
     gradientTransform="matrix(2.3189708,0,0,2.0930998,-543.56606,-225.82362)"
     x1="123.50603"
     y1="344.03848"
     x2="123.47623"
     y2="254.73526" /><radialGradient
     inkscape:collect="always"
     xlink:href="#linearGradient5443-0"
     id="radialGradient3258"
     gradientUnits="userSpaceOnUse"
     gradientTransform="matrix(0.83393192,2.4025531e-7,-2.452288e-7,0.76469446,-575.89311,126.3946)"
     cx="373.24265"
     cy="467.91885"
     fx="373.24265"
     fy="467.91885"
     r="333.18735" /><radialGradient
     inkscape:collect="always"
     xlink:href="#linearGradient5443-0"
     id="radialGradient3270"
     gradientUnits="userSpaceOnUse"
     gradientTransform="matrix(0.83535069,2.5391116e-7,-2.4564601e-7,0.80815885,-821.89024,-331.16994)"
     cx="373.24265"
     cy="467.91885"
     fx="373.24265"
     fy="467.91885"
     r="333.18735" /><radialGradient
     inkscape:collect="always"
     xlink:href="#linearGradient5443-0"
     id="radialGradient3274"
     gradientUnits="userSpaceOnUse"
     gradientTransform="matrix(0.86272606,1.0667183e-7,-5.1097113e-8,0.31433999,-832.10787,-46.459305)"
     cx="373.24265"
     cy="710.99164"
     fx="373.24265"
     fy="710.99164"
     r="333.18735" /><linearGradient
     y2="254.73526"
     x2="123.47623"
     y1="344.03848"
     x1="123.50603"
     gradientTransform="matrix(2.3189708,0,0,2.0930998,-543.56606,-225.82362)"
     gradientUnits="userSpaceOnUse"
     id="linearGradient3422"
     xlink:href="#linearGradient3187"
     inkscape:collect="always" /><radialGradient
     r="333.18735"
     fy="710.99164"
     fx="373.24265"
     cy="710.99164"
     cx="373.24265"
     gradientTransform="matrix(0.86272606,1.0667183e-7,-5.1097113e-8,0.31433999,-736.19251,168.72353)"
     gradientUnits="userSpaceOnUse"
     id="radialGradient3416"
     xlink:href="#linearGradient5443"
     inkscape:collect="always" /><radialGradient
     r="333.18735"
     fy="467.91885"
     fx="373.24265"
     cy="467.91885"
     cx="373.24265"
     gradientTransform="matrix(0.83535069,2.5391116e-7,-2.4564601e-7,0.80815885,-725.97492,-115.98714)"
     gradientUnits="userSpaceOnUse"
     id="radialGradient3412"
     xlink:href="#linearGradient5443"
     inkscape:collect="always" /><radialGradient
     r="333.18735"
     fy="467.91885"
     fx="373.24265"
     cy="467.91885"
     cx="373.24265"
     gradientTransform="matrix(0.83393192,2.4025531e-7,-2.452288e-7,0.76469446,-575.89311,126.3946)"
     gradientUnits="userSpaceOnUse"
     id="radialGradient2894"
     xlink:href="#linearGradient5443"
     inkscape:collect="always" /><linearGradient
     y2="254.73526"
     x2="123.47623"
     y1="344.03848"
     x1="123.50603"
     gradientTransform="matrix(2.3189708,0,0,2.0930998,-543.56606,-225.82362)"
     gradientUnits="userSpaceOnUse"
     id="linearGradient2892"
     xlink:href="#linearGradient3187"
     inkscape:collect="always" /><radialGradient
     r="333.18735"
     fy="710.99164"
     fx="373.24265"
     cy="710.99164"
     cx="373.24265"
     gradientTransform="matrix(0.8612608,1.0093481e-7,-5.1010329e-8,0.29743416,-586.09339,395.79293)"
     gradientUnits="userSpaceOnUse"
     id="radialGradient2890"
     xlink:href="#linearGradient5443"
     inkscape:collect="always" /><linearGradient
     id="linearGradient5443-5"><stop
       style="stop-color:#ffffff;stop-opacity:0;"
       offset="0"
       id="stop5445-4" /><stop
       style="stop-color:#000000;stop-opacity:0.33962265;"
       offset="1"
       id="stop5447-3" /></linearGradient><radialGradient
     r="333.18735"
     fy="710.99164"
     fx="373.24265"
     cy="710.99164"
     cx="373.24265"
     gradientTransform="matrix(0.9503534,1.1750652e-7,-5.6287062e-8,0.3462676,317.80591,185.68771)"
     gradientUnits="userSpaceOnUse"
     id="radialGradient4835-3"
     xlink:href="#linearGradient5443-5"
     inkscape:collect="always" /><filter
     color-interpolation-filters="sRGB"
     id="filter5511"
     inkscape:collect="always"><feGaussianBlur
       id="feGaussianBlur5513"
       stdDeviation="3.2374974"
       inkscape:collect="always" /></filter><radialGradient
     r="333.18735"
     fy="710.99164"
     fx="373.24265"
     cy="710.99164"
     cx="373.24265"
     gradientTransform="matrix(0.8612608,1.0093481e-7,-5.1010329e-8,0.29743416,-586.09339,395.79293)"
     gradientUnits="userSpaceOnUse"
     id="radialGradient4835"
     xlink:href="#linearGradient5443"
     inkscape:collect="always" /><radialGradient
     r="333.18735"
     fy="467.91885"
     fx="373.24265"
     cy="467.91885"
     cx="373.24265"
     gradientTransform="matrix(0.83393192,2.4025531e-7,-2.452288e-7,0.76469446,-575.89311,126.3946)"
     gradientUnits="userSpaceOnUse"
     id="radialGradient4832"
     xlink:href="#linearGradient5443"
     inkscape:collect="always" /><linearGradient
     y2="254.73526"
     x2="123.47623"
     y1="344.03848"
     x1="123.50603"
     gradientTransform="matrix(2.3189708,0,0,2.0930998,-543.56606,-225.82362)"
     gradientUnits="userSpaceOnUse"
     id="linearGradient4827"
     xlink:href="#linearGradient3187"
     inkscape:collect="always" /><linearGradient
     y2="254.73526"
     x2="123.47623"
     y1="344.03848"
     x1="123.50603"
     gradientTransform="matrix(2.3189708,0,0,2.0930998,93.115298,-256.84999)"
     gradientUnits="userSpaceOnUse"
     id="linearGradient4824"
     xlink:href="#linearGradient3187"
     inkscape:collect="always" /><radialGradient
     r="333.18735"
     fy="467.91885"
     fx="373.24265"
     cy="467.91885"
     cx="373.24265"
     gradientTransform="matrix(0.9201975,2.7970099e-7,-2.7059634e-7,0.8902438,28.590287,48.634335)"
     gradientUnits="userSpaceOnUse"
     id="radialGradient4822"
     xlink:href="#linearGradient3171"
     inkscape:collect="always" /><radialGradient
     r="333.18735"
     fy="710.99164"
     fx="373.24265"
     cy="710.99164"
     cx="373.24265"
     gradientTransform="matrix(0.9503534,1.1750652e-7,-5.6287062e-8,0.3462676,17.334826,362.44227)"
     gradientUnits="userSpaceOnUse"
     id="radialGradient4820"
     xlink:href="#linearGradient3157"
     inkscape:collect="always" /><radialGradient
     r="333.18735"
     fy="710.99164"
     fx="373.24265"
     cy="710.99164"
     cx="373.24265"
     gradientTransform="matrix(0.9503534,1.1750652e-7,-5.6287062e-8,0.3462676,17.334826,362.44227)"
     gradientUnits="userSpaceOnUse"
     id="radialGradient4805"
     xlink:href="#linearGradient3157"
     inkscape:collect="always" /><radialGradient
     r="333.18735"
     fy="467.91885"
     fx="373.24265"
     cy="467.91885"
     cx="373.24265"
     gradientTransform="matrix(0.9201975,2.7970099e-7,-2.7059634e-7,0.8902438,28.590287,48.634335)"
     gradientUnits="userSpaceOnUse"
     id="radialGradient4802"
     xlink:href="#linearGradient3171"
     inkscape:collect="always" /><linearGradient
     y2="254.73526"
     x2="123.47623"
     y1="344.03848"
     x1="123.50603"
     gradientTransform="matrix(2.3189708,0,0,2.0930998,93.115298,-256.84999)"
     gradientUnits="userSpaceOnUse"
     id="linearGradient4799"
     xlink:href="#linearGradient3187"
     inkscape:collect="always" /><linearGradient
     y2="254.73526"
     x2="123.47623"
     y1="344.03848"
     x1="123.50603"
     gradientTransform="matrix(2.3189708,0,0,2.0930998,93.115298,-256.84999)"
     gradientUnits="userSpaceOnUse"
     id="linearGradient4794"
     xlink:href="#linearGradient3187"
     inkscape:collect="always" /><radialGradient
     r="333.18735"
     fy="467.91885"
     fx="373.24265"
     cy="467.91885"
     cx="373.24265"
     gradientTransform="matrix(0.9201975,2.7970099e-7,-2.7059634e-7,0.8902438,28.590287,48.634335)"
     gradientUnits="userSpaceOnUse"
     id="radialGradient4792"
     xlink:href="#linearGradient3171"
     inkscape:collect="always" /><radialGradient
     r="333.18735"
     fy="710.99164"
     fx="373.24265"
     cy="710.99164"
     cx="373.24265"
     gradientTransform="matrix(0.9503534,1.1750652e-7,-5.6287062e-8,0.3462676,17.334826,362.44227)"
     gradientUnits="userSpaceOnUse"
     id="radialGradient4790"
     xlink:href="#linearGradient3157"
     inkscape:collect="always" /><radialGradient
     r="333.18735"
     fy="710.99164"
     fx="373.24265"
     cy="710.99164"
     cx="373.24265"
     gradientTransform="matrix(0.9503534,1.1750652e-7,-5.6287062e-8,0.3462676,17.334826,362.44227)"
     gradientUnits="userSpaceOnUse"
     id="radialGradient4779"
     xlink:href="#linearGradient3157"
     inkscape:collect="always" /><radialGradient
     r="333.18735"
     fy="467.91885"
     fx="373.24265"
     cy="467.91885"
     cx="373.24265"
     gradientTransform="matrix(0.9201975,2.7970099e-7,-2.7059634e-7,0.8902438,28.590287,48.634335)"
     gradientUnits="userSpaceOnUse"
     id="radialGradient4776"
     xlink:href="#linearGradient3171"
     inkscape:collect="always" /><linearGradient
     y2="254.73526"
     x2="123.47623"
     y1="344.03848"
     x1="123.50603"
     gradientTransform="matrix(2.3189708,0,0,2.0930998,93.115298,-256.84999)"
     gradientUnits="userSpaceOnUse"
     id="linearGradient4773"
     xlink:href="#linearGradient3187"
     inkscape:collect="always" /><linearGradient
     y2="254.73526"
     x2="123.47623"
     y1="344.03848"
     x1="123.50603"
     gradientTransform="matrix(2.3189708,0,0,2.0930998,93.115298,-256.84999)"
     gradientUnits="userSpaceOnUse"
     id="linearGradient4770"
     xlink:href="#linearGradient3187"
     inkscape:collect="always" /><radialGradient
     r="333.18735"
     fy="467.91885"
     fx="373.24265"
     cy="467.91885"
     cx="373.24265"
     gradientTransform="matrix(0.9201975,2.7970099e-7,-2.7059634e-7,0.8902438,28.590287,48.634335)"
     gradientUnits="userSpaceOnUse"
     id="radialGradient4768"
     xlink:href="#linearGradient3171"
     inkscape:collect="always" /><radialGradient
     r="333.18735"
     fy="710.99164"
     fx="373.24265"
     cy="710.99164"
     cx="373.24265"
     gradientTransform="matrix(0.9503534,1.1750652e-7,-5.6287062e-8,0.3462676,17.334826,362.44227)"
     gradientUnits="userSpaceOnUse"
     id="radialGradient4766"
     xlink:href="#linearGradient3157"
     inkscape:collect="always" /><filter
     color-interpolation-filters="sRGB"
     id="filter4659"
     inkscape:collect="always"><feGaussianBlur
       id="feGaussianBlur4661"
       stdDeviation="2.7750933"
       inkscape:collect="always" /></filter><radialGradient
     r="333.18735"
     fy="710.99164"
     fx="373.24265"
     cy="710.99164"
     cx="373.24265"
     gradientTransform="matrix(0.9503534,1.1750652e-7,-5.6287062e-8,0.3462676,17.334826,362.44227)"
     gradientUnits="userSpaceOnUse"
     id="radialGradient4572"
     xlink:href="#linearGradient3157"
     inkscape:collect="always" /><radialGradient
     r="333.18735"
     fy="467.91885"
     fx="373.24265"
     cy="467.91885"
     cx="373.24265"
     gradientTransform="matrix(0.9201975,2.7970099e-7,-2.7059634e-7,0.8902438,28.590287,48.634335)"
     gradientUnits="userSpaceOnUse"
     id="radialGradient4569"
     xlink:href="#linearGradient3171"
     inkscape:collect="always" /><linearGradient
     y2="254.73526"
     x2="123.47623"
     y1="344.03848"
     x1="123.50603"
     gradientTransform="matrix(2.3189708,0,0,2.0930998,93.115298,-256.84999)"
     gradientUnits="userSpaceOnUse"
     id="linearGradient4562"
     xlink:href="#linearGradient3187"
     inkscape:collect="always" /><linearGradient
     gradientUnits="userSpaceOnUse"
     y2="540.86719"
     x2="360.49777"
     y1="167.50403"
     x1="360.49777"
     id="linearGradient4401"
     xlink:href="#linearGradient4395"
     inkscape:collect="always" /><linearGradient
     gradientUnits="userSpaceOnUse"
     y2="655.4505"
     x2="396.91168"
     y1="298.59412"
     x1="371.42194"
     id="linearGradient4389"
     xlink:href="#linearGradient4383"
     inkscape:collect="always" /><inkscape:perspective
     id="perspective3214"
     inkscape:persp3d-origin="372.04724 : 350.78739 : 1"
     inkscape:vp_z="744.09448 : 526.18109 : 1"
     inkscape:vp_y="0 : 1000 : 0"
     inkscape:vp_x="0 : 526.18109 : 1"
     sodipodi:type="inkscape:persp3d" /><linearGradient
     id="linearGradient4383"><stop
       id="stop4385"
       offset="0"
       style="stop-color:#00037f;stop-opacity:1;" /><stop
       id="stop4387"
       offset="1"
       style="stop-color:#00037f;stop-opacity:0;" /></linearGradient><linearGradient
     id="linearGradient4395"><stop
       id="stop4397"
       offset="0"
       style="stop-color:#110084;stop-opacity:1;" /><stop
       id="stop4399"
       offset="1"
       style="stop-color:#a695ff;stop-opacity:1;" /></linearGradient><linearGradient
     id="linearGradient3187"><stop
       id="stop3189"
       offset="0"
       style="stop-color:#ffffff;stop-opacity:0.39622641;" /><stop
       id="stop3191"
       offset="1"
       style="stop-color:#9e9e9e;stop-opacity:1;" /></linearGradient><linearGradient
     id="linearGradient3171"><stop
       style="stop-color:#49bcff;stop-opacity:1;"
       offset="0"
       id="stop3173" /><stop
       style="stop-color:#494cdc;stop-opacity:1;"
       offset="1"
       id="stop3175" /></linearGradient><linearGradient
     id="linearGradient3157"><stop
       id="stop3159"
       offset="0"
       style="stop-color:#49bcff;stop-opacity:1;" /><stop
       id="stop3161"
       offset="1"
       style="stop-color:#494c96;stop-opacity:1;" /></linearGradient><linearGradient
     id="linearGradient5443"><stop
       style="stop-color:#ffffff;stop-opacity:0;"
       offset="0"
       id="stop5445" /><stop
       style="stop-color:#cbcac8;stop-opacity:1;"
       offset="1"
       id="stop5447" /></linearGradient><radialGradient
     inkscape:collect="always"
     xlink:href="#linearGradient5443"
     id="radialGradient3253"
     gradientUnits="userSpaceOnUse"
     gradientTransform="matrix(0.8612608,1.0093481e-7,-5.1010329e-8,0.29743416,-586.09339,395.79293)"
     cx="373.24265"
     cy="710.99164"
     fx="373.24265"
     fy="710.99164"
     r="333.18735" /><linearGradient
     inkscape:collect="always"
     xlink:href="#linearGradient3187"
     id="linearGradient3255"
     gradientUnits="userSpaceOnUse"
     gradientTransform="matrix(2.3189708,0,0,2.0930998,-543.56606,-225.82362)"
     x1="123.50603"
     y1="344.03848"
     x2="123.47623"
     y2="254.73526" /><radialGradient
     inkscape:collect="always"
     xlink:href="#linearGradient5443"
     id="radialGradient3257"
     gradientUnits="userSpaceOnUse"
     gradientTransform="matrix(0.83393192,2.4025531e-7,-2.452288e-7,0.76469446,-575.89311,126.3946)"
     cx="373.24265"
     cy="467.91885"
     fx="373.24265"
     fy="467.91885"
     r="333.18735" /><radialGradient
     inkscape:collect="always"
     xlink:href="#linearGradient5443"
     id="radialGradient3273"
     gradientUnits="userSpaceOnUse"
     gradientTransform="matrix(0.8612608,1.0093481e-7,-5.1010329e-8,0.29743416,-586.09339,395.79293)"
     cx="373.24265"
     cy="710.99164"
     fx="373.24265"
     fy="710.99164"
     r="333.18735" /><linearGradient
     inkscape:collect="always"
     xlink:href="#linearGradient3187"
     id="linearGradient3275"
     gradientUnits="userSpaceOnUse"
     gradientTransform="matrix(2.3189708,0,0,2.0930998,-543.56606,-225.82362)"
     x1="123.50603"
     y1="344.03848"
     x2="123.47623"
     y2="254.73526" /><radialGradient
     inkscape:collect="always"
     xlink:href="#linearGradient5443"
     id="radialGradient3277"
     gradientUnits="userSpaceOnUse"
     gradientTransform="matrix(0.83393192,2.4025531e-7,-2.452288e-7,0.76469446,-575.89311,126.3946)"
     cx="373.24265"
     cy="467.91885"
     fx="373.24265"
     fy="467.91885"
     r="333.18735" /></defs><sodipodi:namedview
   pagecolor="#ffffff"
   bordercolor="#666666"
   borderopacity="1"
   objecttolerance="10"
   gridtolerance="10"
   guidetolerance="10"
   inkscape:pageopacity="0"
   inkscape:pageshadow="2"
   inkscape:window-width="1920"
   inkscape:window-height="1031"
   id="namedview12"
   showgrid="false"
   fit-margin-top="0"
   fit-margin-left="0"
   fit-margin-right="0"
   fit-margin-bottom="0"
   inkscape:zoom="1.1919192"
   inkscape:cx="113.05419"
   inkscape:cy="180.7763"
   inkscape:window-x="-4"
   inkscape:window-y="-4"
   inkscape:window-maximized="1"
   inkscape:current-layer="_x31_" />


<g
   id="g4178"
   transform="translate(-4.0524846e-6,1.5294449e-7)"><g
     transform="translate(589.18636,-87.165827)"
     id="g4448"><rect
       transform="matrix(2.1051501,0,0,2.1051501,-860.18934,-1.2010596)"
       ry="12.45238"
       rx="16.067965"
       y="48.636749"
       x="135.39355"
       height="152.93848"
       width="152.93848"
       id="rect4192"
       style="fill:#cccccc;fill-opacity:1;stroke:none;filter:url(#filter4659)"
       inkscape:export-filename="C:\Documents and Settings\adscro24\Desktop\128.png"
       inkscape:export-xdpi="29.879425"
       inkscape:export-ydpi="29.879425" /><rect
       inkscape:export-ydpi="29.879425"
       inkscape:export-xdpi="29.879425"
       inkscape:export-filename="C:\Documents and Settings\adscro24\Desktop\128.png"
       style="fill:#cbcac8;fill-opacity:1;stroke:none;filter:url(#filter4659)"
       id="rect3279"
       width="152.93848"
       height="152.93848"
       x="135.39355"
       y="48.636749"
       rx="16.067965"
       ry="12.45238"
       transform="matrix(2.1051501,0,0,2.1051501,-860.18934,-1.2010596)" /><rect
       inkscape:export-ydpi="29.879425"
       inkscape:export-xdpi="29.879425"
       inkscape:export-filename="C:\Documents and Settings\adscro24\Desktop\128.png"
       style="opacity:0.61338286;fill:url(#radialGradient4456);fill-opacity:1;stroke:#000000;stroke-width:3.26806188;stroke-miterlimit:4;stroke-opacity:1;stroke-dasharray:none"
       id="rect3155"
       width="321.95847"
       height="321.95844"
       x="-575.16559"
       y="101.18661"
       rx="33.825478"
       ry="26.214128" /><path
       transform="matrix(0.907795,0,0,0.90779498,-173.95283,-177.39738)"
       inkscape:export-ydpi="29.879425"
       inkscape:export-xdpi="29.879425"
       inkscape:export-filename="C:\Documents and Settings\adscro24\Desktop\128.png"
       inkscape:connector-curvature="0"
       style="opacity:0.61338286;fill:url(#linearGradient4458);fill-opacity:1;stroke:none;filter:url(#filter5511)"
       d="m -397.80626,329.07489 c -19.62748,0 -35.44272,12.0976 -35.44272,27.14163 l 0,124.30857 c 29.25482,11.38638 132.70149,11.89599 165.40488,-5.79022 33.32802,-18.02397 127.54379,-68.44264 171.824837,-52.72052 l 0,-65.79783 c 0,-15.04403 -15.798597,-27.14163 -35.426097,-27.14163 l -266.3609,0 z m -35.44272,263.47103 0,42.88373 c 0,1.33144 0.14331,2.63588 0.38253,3.915 -0.11919,-12.81092 -0.25965,-28.88939 -0.38253,-46.79873 z"
       id="rect3177" /><rect
       inkscape:export-ydpi="29.879425"
       inkscape:export-xdpi="29.879425"
       inkscape:export-filename="C:\Documents and Settings\adscro24\Desktop\128.png"
       style="opacity:0.61338286;fill:url(#radialGradient4460);fill-opacity:1;stroke:#ffffff;stroke-width:0.68992418;stroke-linecap:square;stroke-miterlimit:4;stroke-opacity:1;stroke-dasharray:none"
       id="rect3473"
       width="306.12445"
       height="306.12445"
       x="-567.2486"
       y="109.1036"
       rx="32.161926"
       ry="24.924911" /><rect
       inkscape:export-ydpi="29.879425"
       inkscape:export-xdpi="29.879425"
       inkscape:export-filename="C:\Documents and Settings\adscro24\Desktop\128.png"
       style="opacity:0.61338286;fill:#ffffff;fill-opacity:0;stroke:#000000;stroke-width:3.26806188;stroke-miterlimit:4;stroke-opacity:1;stroke-dasharray:none"
       id="rect3155-2"
       width="321.95847"
       height="321.95844"
       x="-575.16559"
       y="101.18661"
       rx="33.825478"
       ry="26.214128" /></g><g
     transform="translate(358.29183,-87.165827)"
     id="LWPOLYLINE_2_-7">
	
		
</g><g
     transform="translate(358.29183,-87.165827)"
     id="LWPOLYLINE_3_">
	
		
</g><g
     transform="translate(358.29183,-87.165827)"
     id="LWPOLYLINE_4_">
	
		
</g><g
     transform="translate(184.65055,-351.95215)"
     style="fill:#000000;fill-opacity:1;stroke:none"
     id="LWPOLYLINE_6_-7">
	
		
</g><g
     transform="translate(184.65055,-351.95215)"
     style="fill:#000000;fill-opacity:1;stroke:none"
     id="LWPOLYLINE-4">
	
		
</g><g
     transform="translate(184.65055,-351.95215)"
     style="fill:#000000;fill-opacity:1;stroke:none"
     id="LWPOLYLINE_3_-0">
	
		
</g></g><g
   id="g3770"
   transform="matrix(1.0017319,0,0,1.0017319,-65.009993,-296.66185)"><g
     style="fill:#000000;fill-opacity:1;stroke:none"
     transform="matrix(0.62389617,0,0,0.62389617,48.683876,224.10197)"
     id="g2993"><g
       style="fill:#000000;fill-opacity:1;stroke:none"
       id="LWPOLYLINE">
	
		<path
   style="fill:#000000;fill-opacity:1;stroke:none"
   inkscape:connector-curvature="0"
   stroke-miterlimit="10"
   d="m 351.129,542.076 0.096,0.615 0.047,0.617 0.095,0.615 0.048,0.664 0.095,0.664 0.047,0.711 0.048,0.711 0.095,0.711 0.095,0.758 0.095,0.76 0.095,0.758 0.095,0.807 0.095,0.805 0.143,0.807 0.143,0.807 0.142,0.852 0.143,0.807 0.189,0.854 0.189,0.9 0.189,0.854 0.237,0.854 0.237,0.9 0.284,0.9 0.284,0.9 0.332,0.9 0.332,0.902 0.332,0.9 0.427,0.9 0.379,0.9 0.474,0.9 0.427,0.949 0.521,0.9 0.521,0.9 0.569,0.9 0.616,0.9 0.616,0.9 0.663,0.902 0.712,0.9 0.758,0.854 0.759,0.9 0.948,1.09 0.995,1.043 0.996,0.996 1.042,0.994 1.043,0.902 1.091,0.947 1.09,0.854 1.138,0.9 1.138,0.807 1.186,0.805 1.185,0.76 1.186,0.711 1.232,0.711 1.232,0.662 1.28,0.664 1.28,0.617 1.279,0.568 1.28,0.568 1.327,0.521 1.375,0.521 1.327,0.475 1.375,0.475 1.374,0.426 1.423,0.379 1.374,0.379 1.423,0.332 1.422,0.332 1.47,0.285 1.422,0.285 1.47,0.236 1.47,0.236 1.469,0.189 1.518,0.143 1.47,0.143 1.517,0.143 1.517,0.094 1.518,0.096 1.517,0.047 1.517,0.047 h 1.518 l 3.318,-0.047 3.224,-0.189 3.128,-0.236 3.034,-0.381 2.986,-0.473 2.892,-0.521 2.797,-0.664 2.75,-0.758 2.607,-0.807 2.56,-0.9 2.465,-0.996 2.418,-1.043 2.275,-1.137 2.228,-1.232 2.134,-1.281 2.038,-1.326 1.991,-1.422 1.896,-1.471 1.802,-1.516 1.707,-1.564 1.611,-1.613 1.564,-1.705 1.47,-1.707 1.374,-1.754 1.28,-1.801 1.232,-1.85 1.138,-1.85 1.043,-1.943 0.948,-1.896 0.9,-1.943 0.806,-1.99 0.712,-1.99 0.616,-2.039 0.521,-1.992 0.474,-2.037 0.379,-2.039 0.285,-2.086 0.236,-2.037 0.095,-2.039 0.048,-2.039 v -0.332 -0.473 -0.57 l -0.048,-0.662 -0.047,-0.807 -0.048,-0.854 -0.095,-0.947 -0.095,-1.043 -0.142,-1.092 -0.19,-1.184 -0.189,-1.232 -0.284,-1.281 -0.284,-1.326 -0.38,-1.375 -0.379,-1.422 -0.474,-1.471 -0.521,-1.469 -0.616,-1.518 -0.664,-1.516 -0.759,-1.518 -0.806,-1.518 -0.9,-1.516 -0.996,-1.518 -1.09,-1.518 -1.186,-1.518 -1.279,-1.422 -1.375,-1.469 -1.47,-1.375 -1.564,-1.328 -1.706,-1.326 -1.849,-1.232 -1.944,-1.186 -2.038,-1.137 -2.228,-1.043 -2.323,-0.949 -2.465,-0.9 -2.607,-0.807 -2.749,-0.662 -2.893,-0.617 -3.081,-0.521 2.229,-0.521 2.133,-0.568 2.086,-0.664 1.991,-0.711 1.896,-0.758 1.85,-0.807 1.754,-0.807 1.659,-0.9 1.659,-0.947 1.517,-0.949 1.517,-0.994 1.375,-1.043 1.375,-1.09 1.279,-1.092 1.233,-1.137 1.138,-1.186 1.09,-1.186 1.043,-1.186 0.995,-1.232 0.901,-1.232 0.853,-1.279 0.807,-1.279 0.758,-1.281 0.711,-1.326 0.664,-1.279 0.616,-1.328 0.521,-1.328 0.521,-1.326 0.427,-1.328 0.427,-1.279 0.379,-1.328 0.284,-1.326 0.285,-1.281 0.236,-1.279 0.189,-1.279 0.19,-1.232 0.095,-1.281 0.095,-1.184 0.047,-1.234 0.048,-1.184 -0.048,-1.943 -0.142,-1.945 -0.189,-1.943 -0.285,-1.943 -0.331,-1.943 -0.475,-1.896 -0.521,-1.896 -0.568,-1.895 -0.712,-1.85 -0.711,-1.801 -0.853,-1.803 -0.901,-1.801 -0.995,-1.754 -1.091,-1.707 -1.138,-1.658 -1.232,-1.637 -1.327,-1.588 -1.375,-1.564 -1.469,-1.516 -1.564,-1.447 -1.612,-1.422 -1.706,-1.35 -1.754,-1.328 -1.85,-1.232 -1.943,-1.209 -2.038,-1.137 -2.086,-1.068 -2.181,-0.994 -2.228,-0.949 -2.323,-0.854 -2.425,-0.805 -2.465,-0.711 -2.56,-0.664 -2.607,-0.568 -2.702,-0.475 -2.797,-0.402 -2.892,-0.332 -2.939,-0.213 -2.986,-0.143 -3.128,-0.049 h -1.186 l -1.327,0.049 -1.422,0.047 -1.518,0.096 -1.564,0.117 -1.659,0.143 -1.754,0.189 -1.801,0.236 -1.85,0.285 -1.896,0.332 -1.943,0.379 -1.944,0.428 -2.038,0.496 -1.991,0.57 -2.038,0.615 -2.086,0.711 -2.038,0.76 -2.039,0.854 -2.038,0.924 -1.991,1.02 -1.99,1.09 -1.991,1.209 -1.896,1.279 -1.896,1.375 -1.801,1.494 -1.754,1.588 -1.707,1.705 -1.611,1.803 -1.564,1.92 -1.422,2.037 -1.375,2.182 -1.28,2.275 -1.138,2.418 -1.043,2.559 -0.948,2.703 -0.758,2.797 -0.664,2.986 -0.568,3.08 -0.38,3.271 -0.189,3.414 c 0.189,0 0.427,0 0.427,0 h 0.332 0.427 0.521 0.568 0.664 0.663 0.807 0.806 0.854 0.9 0.948 0.995 0.995 0.996 1.043 1.043 1.09 1.043 1.043 1.043 1.043 0.995 0.948 0.948 0.9 0.901 0.806 0.758 0.712 0.616 0.616 0.474 0.427 0.332 0.237 c 0.236,0 0.474,-1.707 0.474,-1.707 l 0.284,-1.66 0.38,-1.564 0.379,-1.516 0.427,-1.471 0.521,-1.422 0.521,-1.326 0.568,-1.281 0.664,-1.232 0.663,-1.184 0.664,-1.139 0.759,-1.043 0.758,-0.996 0.807,-0.994 0.853,-0.9 0.854,-0.854 0.9,-0.807 0.948,-0.807 0.948,-0.711 0.948,-0.662 0.995,-0.617 0.996,-0.617 1.043,-0.568 1.043,-0.473 1.09,-0.475 1.091,-0.428 1.09,-0.426 1.09,-0.332 1.091,-0.332 1.138,-0.283 1.09,-0.285 1.138,-0.189 1.138,-0.189 1.138,-0.189 1.138,-0.143 1.091,-0.096 1.138,-0.094 1.09,-0.049 1.138,-0.047 h 1.091 1.47 l 1.422,0.047 1.375,0.096 1.422,0.096 1.327,0.141 1.375,0.143 1.327,0.238 1.28,0.236 1.279,0.236 1.232,0.332 1.186,0.332 1.186,0.379 1.185,0.379 1.138,0.428 1.091,0.521 1.043,0.475 1.043,0.568 0.995,0.615 0.948,0.617 0.948,0.664 0.9,0.711 0.854,0.758 0.806,0.807 0.759,0.854 0.758,0.852 0.711,0.902 0.616,0.994 0.616,0.996 0.569,1.043 0.521,1.09 0.474,1.139 0.475,1.232 0.379,1.232 0.332,1.279 0.284,1.328 0.237,1.375 0.189,1.422 0.143,1.469 0.047,1.518 0.048,1.564 -0.095,2.275 -0.143,2.18 -0.284,2.086 -0.427,1.99 -0.475,1.896 -0.616,1.803 -0.663,1.705 -0.806,1.613 -0.854,1.564 -0.948,1.422 -1.043,1.375 -1.09,1.326 -1.186,1.186 -1.232,1.137 -1.327,1.092 -1.327,0.947 -1.423,0.949 -1.469,0.852 -1.518,0.76 -1.517,0.758 -1.612,0.664 -1.611,0.568 -1.659,0.568 -1.659,0.475 -1.659,0.428 -1.707,0.379 -1.706,0.332 -1.754,0.283 -1.707,0.238 -1.706,0.189 -1.754,0.189 -1.707,0.094 -1.659,0.096 h -1.706 -1.612 -1.659 l -1.564,-0.047 -1.563,-0.096 -1.518,-0.096 -1.517,-0.141 c 0,0.141 0,0.332 0,0.332 v 0.283 0.332 0.379 0.475 0.521 0.568 0.568 0.664 0.664 0.758 0.711 0.807 0.807 0.805 0.807 0.854 0.805 0.854 0.807 0.854 0.805 0.807 0.758 0.76 0.711 0.664 0.662 0.617 0.568 0.521 0.428 0.426 0.332 0.236 c 0,0.189 0,0.332 0,0.332 0,0.047 0.758,0.047 0.758,0.047 h 0.712 0.663 0.711 0.711 0.664 0.664 0.663 0.664 0.663 l 0.616,0.049 h 0.664 0.616 l 0.664,0.047 h 0.616 0.663 l 0.616,0.047 0.664,0.047 h 0.616 l 0.616,0.049 0.664,0.047 0.616,0.047 0.663,0.049 0.664,0.047 0.616,0.047 0.664,0.047 0.663,0.049 0.664,0.094 0.711,0.047 0.663,0.096 0.664,0.096 0.711,0.094 0.711,0.096 0.711,0.094 0.759,0.096 0.711,0.143 0.759,0.094 0.806,0.143 0.759,0.143 0.806,0.143 0.995,0.236 1.043,0.236 0.996,0.285 1.043,0.332 0.995,0.332 0.996,0.332 0.995,0.426 0.995,0.379 0.948,0.475 0.948,0.475 0.948,0.521 0.948,0.521 0.9,0.568 0.948,0.568 0.854,0.664 0.853,0.615 0.854,0.711 0.854,0.713 0.806,0.758 0.759,0.805 0.758,0.807 0.712,0.854 0.711,0.854 0.663,0.947 0.616,0.949 0.616,0.994 0.569,0.996 0.568,1.09 0.475,1.092 0.474,1.09 0.427,1.186 0.379,1.184 0.332,1.281 0.332,1.232 0.237,1.326 0.237,1.375 0.142,1.375 0.143,1.422 0.095,1.471 v 1.516 1.232 l -0.095,1.232 -0.095,1.281 -0.143,1.232 -0.189,1.232 -0.284,1.232 -0.285,1.232 -0.331,1.186 -0.38,1.232 -0.427,1.184 -0.474,1.186 -0.521,1.139 -0.569,1.186 -0.616,1.09 -0.663,1.137 -0.711,1.092 -0.759,1.041 -0.806,1.043 -0.854,0.996 -0.9,0.996 -0.948,0.947 -0.996,0.9 -1.042,0.902 -1.138,0.852 -1.138,0.807 -1.186,0.758 -1.28,0.711 -1.279,0.713 -1.375,0.615 -1.375,0.617 -1.47,0.521 -1.517,0.521 -1.564,0.426 -1.611,0.379 -1.659,0.332 -1.754,0.285 -1.754,0.236 -1.85,0.143 -1.896,0.094 -1.943,0.049 -1.707,-0.049 -1.707,-0.047 -1.611,-0.143 -1.611,-0.189 -1.564,-0.189 -1.518,-0.285 -1.517,-0.283 -1.422,-0.379 -1.375,-0.379 -1.375,-0.475 -1.327,-0.475 -1.232,-0.521 -1.232,-0.568 -1.186,-0.617 -1.138,-0.615 -1.09,-0.711 -1.043,-0.711 -1.043,-0.76 -0.948,-0.758 -0.9,-0.854 -0.854,-0.854 -0.854,-0.854 -0.758,-0.947 -0.759,-0.947 -0.664,-0.949 -0.663,-0.996 -0.569,-1.043 -0.521,-1.043 -0.521,-1.09 -0.427,-1.137 -0.426,-1.092 -0.332,-1.184 -0.332,-1.186 -0.237,-1.186 -0.189,-1.232 -0.143,-1.232 -0.142,-1.232 -0.048,-1.279 v -1.281 l 0.048,-1.326 h -30.107 z"
   id="path4" />
</g><g
       style="fill:#000000;fill-opacity:1;stroke:none"
       id="LWPOLYLINE_1_">
	
		<path
   id="path7"
   transform="matrix(1.6028308,0,0,1.6028308,-78.032016,-359.19754)"
   d="m 149.71875,346.0625 c -0.0736,0.0449 -0.0937,0.1875 -0.0937,0.1875 l -0.0312,0.15625 -0.0312,0.25 L 149.5,347 l -0.0937,0.34375 -0.0312,0.46875 -0.0937,0.46875 -0.0937,0.53125 -0.0937,0.5625 -0.125,0.625 -0.125,0.65625 -0.0937,0.6875 -0.125,0.71875 -0.125,0.71875 -0.125,0.75 -0.125,0.78125 -0.15625,0.78125 -0.125,0.78125 -0.125,0.8125 -0.15625,0.78125 -0.125,0.78125 -0.125,0.78125 -0.15625,0.78125 -0.125,0.75 -0.125,0.75 -0.0937,0.6875 -0.125,0.6875 -0.125,0.65625 -0.0937,0.625 -0.125,0.5625 -0.0937,0.53125 -0.0625,0.5 -0.0625,0.4375 -0.0937,0.375 -0.0312,0.3125 -0.0312,0.25 -0.0625,0.1875 c -0.015,0.11792 0,0.15625 0,0.15625 l -0.1875,0 -0.34375,0 -0.21875,0 -0.25,0 -0.28125,0 -0.3125,0 -0.3125,0 -0.34375,0 -0.375,0 -0.40625,0 -0.40625,0 -0.40625,0 -0.4375,0 -0.4375,0 -0.46875,0 -0.4375,0 -0.4375,0 -0.46875,0 -0.4375,0 -0.4375,0 -0.46875,0 -0.40625,0 -0.4375,0 -0.40625,0 -0.40625,0 -0.375,0 -0.34375,0 -0.3125,0 -0.3125,0 -0.28125,0 -0.25,0 -0.1875,0 -0.21875,0 -0.25,0 c -0.0892,0.11792 -0.0625,0.21875 -0.0625,0.21875 l 0,0.21875 0,0.3125 0,0.1875 0,0.1875 0,0.21875 0,0.21875 0,0.25 0,0.21875 0,0.25 0,0.28125 0,0.25 0,0.28125 0,0.25 0,0.28125 0,0.28125 0,0.25 0,0.28125 0,0.25 0,0.28125 0,0.25 0,0.25 0,0.21875 0,0.21875 0,0.21875 0,0.1875 0,0.1875 0,0.15625 0,0.28125 0,0.21875 c 0.0892,0.10357 0.15625,0.0937 0.15625,0.0937 l 0.28125,0 0.1875,0 0.21875,0 0.21875,0 0.25,0 0.28125,0 0.3125,0 0.3125,0 0.3125,0 0.375,0 0.34375,0 0.375,0 0.375,0 0.375,0 0.375,0 0.40625,0 0.375,0 0.375,0 0.375,0 0.375,0 0.375,0 0.375,0 0.3125,0 0.34375,0 0.3125,0 0.3125,0 0.28125,0 0.25,0 0.21875,0 0.21875,0 0.1875,0 0.15625,0 0.21875,0 c 0.0593,0.11792 0.0312,0.25 0.0312,0.25 l -0.0312,0.1875 -0.0312,0.21875 -0.0312,0.28125 -0.0625,0.3125 -0.0625,0.34375 -0.0625,0.375 -0.0625,0.40625 -0.0625,0.4375 -0.0937,0.46875 -0.0625,0.5 -0.0625,0.5 -0.0937,0.53125 -0.0937,0.53125 -0.0937,0.5625 -0.0937,0.5625 -0.0937,0.5625 -0.0937,0.5625 -0.0625,0.5625 -0.0937,0.5625 -0.0937,0.5625 -0.0937,0.53125 -0.0937,0.53125 -0.0937,0.5625 -0.0625,0.5 -0.0937,0.46875 -0.0625,0.46875 -0.0625,0.4375 -0.0625,0.40625 -0.0625,0.40625 -0.0625,0.34375 -0.0625,0.3125 -0.0312,0.25 -0.0312,0.25 -0.0312,0.15625 c -0.0293,0.13289 -0.0312,0.21875 -0.0312,0.21875 -0.0892,0.0143 -0.21875,0.0312 -0.21875,0.0312 l -0.3125,0 -0.21875,0 -0.25,0 -0.28125,0 -0.3125,0 -0.3125,0 -0.34375,0 -0.375,0 -0.375,0 -0.4375,0 -0.40625,0 -0.4375,0 -0.4375,0 -0.4375,0 -0.46875,0 -0.4375,0 -0.46875,0 -0.4375,0 -0.4375,0 -0.46875,0 -0.40625,0 -0.4375,0 -0.40625,0 -0.375,0 -0.375,0 -0.34375,0 -0.34375,0 -0.3125,0 -0.28125,0 -0.21875,0 -0.21875,0 -0.1875,0 -0.25,0 c -0.0898,6.2e-4 -0.0937,7.28125 -0.0937,7.28125 l 0.15625,0 0.28125,0 0.1875,0 0.21875,0 0.21875,0 0.28125,0 0.28125,0 0.28125,0 0.3125,0 0.34375,0 0.34375,0 0.34375,0 0.375,0 0.375,0 0.375,0 0.40625,0 0.375,0 0.375,0 0.40625,0 0.375,0 0.375,0 0.375,0 0.34375,0 0.34375,0 0.34375,0 0.3125,0 0.28125,0 0.28125,0 0.28125,0 0.21875,0 0.21875,0 0.15625,0 0.1875,0 0.1875,0 c 0.0443,0.14724 0.0312,0.3125 0.0312,0.3125 l -0.0625,0.25 -0.0312,0.3125 -0.0625,0.375 -0.0937,0.40625 -0.0937,0.46875 -0.0937,0.53125 -0.0625,0.53125 -0.125,0.625 -0.0937,0.625 -0.125,0.65625 -0.125,0.6875 -0.125,0.71875 -0.125,0.75 -0.125,0.75 -0.15625,0.75 -0.125,0.75 -0.15625,0.78125 -0.125,0.78125 -0.125,0.75 -0.125,0.78125 -0.15625,0.71875 -0.125,0.75 -0.125,0.71875 -0.125,0.6875 -0.125,0.65625 L 137,413.75 l -0.0937,0.59375 -0.125,0.5625 -0.0625,0.5 -0.0937,0.46875 -0.0937,0.4375 -0.0625,0.34375 -0.0625,0.3125 -0.0312,0.25 -0.0312,0.1875 c 0.11792,0.16346 0.21875,0.15625 0.21875,0.15625 l 0.28125,0 0.15625,0 0.21875,0 0.1875,0 0.25,0 0.25,0 0.25,0 0.28125,0 0.28125,0 0.28125,0 0.3125,0 0.3125,0 0.3125,0 0.3125,0 0.3125,0 0.3125,0 0.3125,0 0.3125,0 0.3125,0 0.3125,0 0.28125,0 0.28125,0 0.28125,0 0.28125,0 0.21875,0 0.25,0 0.1875,0 0.21875,0 0.15625,0 0.28125,0 0.1875,0 c 0.0892,-0.16346 0.125,-0.34375 0.125,-0.34375 l 0.0312,-0.25 0.0625,-0.3125 0.0625,-0.34375 0.0625,-0.4375 0.0937,-0.46875 0.0937,-0.5 0.0937,-0.5625 0.0937,-0.59375 0.125,-0.65625 0.125,-0.65625 0.0937,-0.6875 0.15625,-0.71875 0.0937,-0.75 0.15625,-0.71875 0.125,-0.78125 0.125,-0.75 0.15625,-0.78125 0.125,-0.78125 0.125,-0.75 0.15625,-0.75 0.125,-0.75 0.125,-0.75 0.125,-0.71875 0.125,-0.6875 0.125,-0.65625 0.0937,-0.625 0.125,-0.625 0.0937,-0.53125 0.0937,-0.53125 0.0937,-0.46875 0.0625,-0.40625 0.0625,-0.375 0.0625,-0.3125 0.0312,-0.25 0.0312,-0.1875 c 0.11792,-0.14724 0.21875,-0.125 0.21875,-0.125 l 0.15625,0 0.1875,0 0.25,0 0.25,0 0.28125,0 0.34375,0 0.34375,0 0.34375,0 0.40625,0 0.40625,0 0.4375,0 0.4375,0 0.4375,0 0.46875,0 0.46875,0 0.46875,0 0.5,0 0.46875,0 0.46875,0 0.46875,0 0.46875,0 0.4375,0 0.4375,0 0.4375,0 0.40625,0 0.375,0 0.375,0 0.375,0 0.3125,0 0.28125,0 0.25,0 0.25,0 0.1875,0 0.125,0 0.1875,0 c 0,0.14724 -0.0312,0.3125 -0.0312,0.3125 l -0.0312,0.25 -0.0625,0.3125 -0.0625,0.375 -0.0625,0.40625 -0.0937,0.46875 -0.0937,0.53125 -0.0937,0.53125 -0.125,0.625 -0.0937,0.625 -0.125,0.65625 -0.125,0.6875 -0.125,0.71875 -0.125,0.75 -0.125,0.75 -0.15625,0.75 -0.125,0.75 -0.125,0.78125 -0.125,0.78125 -0.15625,0.75 -0.125,0.78125 -0.15625,0.71875 -0.0937,0.75 -0.15625,0.71875 -0.0937,0.6875 -0.125,0.65625 -0.125,0.65625 -0.0937,0.59375 -0.0937,0.5625 -0.0937,0.5 -0.0937,0.46875 -0.0625,0.4375 -0.0937,0.34375 -0.0312,0.3125 -0.0312,0.25 -0.0312,0.1875 c 0.0886,0.16346 0.1875,0.15625 0.1875,0.15625 l 0.25,0 0.15625,0 0.1875,0 0.1875,0 0.21875,0 0.25,0 0.21875,0 0.25,0 0.28125,0 0.25,0 0.28125,0 0.3125,0 0.28125,0 0.28125,0 0.3125,0 0.28125,0 0.3125,0 0.28125,0 0.28125,0 0.28125,0 0.28125,0 0.25,0 0.25,0 0.25,0 0.21875,0 0.21875,0 0.1875,0 0.1875,0 0.15625,0 0.28125,0 0.15625,0 c 0.0736,-0.16346 0.125,-0.34375 0.125,-0.34375 l 0.0312,-0.25 0.0937,-0.3125 0.0625,-0.34375 0.0937,-0.4375 0.0937,-0.46875 0.0937,-0.5 0.125,-0.5625 0.125,-0.59375 0.125,-0.65625 0.15625,-0.65625 0.125,-0.6875 0.15625,-0.71875 0.125,-0.75 0.15625,-0.71875 0.15625,-0.78125 0.15625,-0.75 0.1875,-0.78125 0.125,-0.78125 0.1875,-0.75 0.15625,-0.75 0.125,-0.75 0.15625,-0.75 0.15625,-0.71875 0.15625,-0.6875 0.125,-0.65625 0.125,-0.625 0.125,-0.625 0.125,-0.53125 0.0937,-0.53125 0.0937,-0.46875 0.0937,-0.40625 0.0937,-0.375 0.0312,-0.3125 0.0625,-0.25 0.0312,-0.1875 c 0.11792,-0.14724 0.21875,-0.125 0.21875,-0.125 l 0.3125,0 0.1875,0 0.25,0 0.28125,0 0.28125,0 0.3125,0 0.3125,0 0.375,0 0.375,0 0.375,0 0.40625,0 0.40625,0 0.40625,0 0.4375,0 0.4375,0 0.40625,0 0.4375,0 0.4375,0 0.4375,0 0.40625,0 0.40625,0 0.40625,0 0.375,0 0.375,0 0.34375,0 0.34375,0 0.3125,0 0.28125,0 0.28125,0 0.21875,0 0.21875,0 0.1875,0 0.21875,0 c 0.0736,-0.11792 0.0625,-0.21875 0.0625,-0.21875 l 0,-0.21875 0,-0.3125 0,-0.21875 0,-0.1875 0,-0.1875 0,-0.21875 0,-0.25 0,-0.25 0,-0.25 0,-0.25 0,-0.28125 0,-0.25 0,-0.28125 0,-0.28125 0,-0.25 0,-0.28125 0,-0.28125 0,-0.25 0,-0.25 0,-0.25 0,-0.25 0,-0.21875 0,-0.25 0,-0.21875 0,-0.1875 0,-0.1875 0,-0.15625 0,-0.28125 0,-0.1875 c -0.0736,-0.11792 -0.15625,-0.125 -0.15625,-0.125 l -0.28125,0 -0.15625,0 -0.21875,0 -0.25,0 -0.25,0 -0.28125,0 -0.3125,0 -0.28125,0 -0.34375,0 -0.34375,0 -0.375,0 -0.34375,0 -0.375,0 -0.40625,0 -0.375,0 -0.375,0 -0.375,0 -0.40625,0 -0.375,0 -0.375,0 -0.375,0 -0.34375,0 -0.34375,0 -0.34375,0 -0.3125,0 -0.28125,0 -0.28125,0 -0.28125,0 -0.21875,0 -0.21875,0 -0.1875,0 -0.125,0 -0.21875,0 c -0.0443,-0.10357 -0.0312,-0.25 -0.0312,-0.25 l 0.0312,-0.15625 0.0312,-0.25 0.0625,-0.25 0.0625,-0.3125 0.0625,-0.34375 0.0937,-0.40625 0.0625,-0.40625 0.0937,-0.4375 0.0937,-0.46875 0.0937,-0.46875 0.125,-0.5 0.0937,-0.53125 0.0937,-0.5625 0.125,-0.53125 0.0937,-0.5625 0.125,-0.5625 0.0937,-0.5625 0.125,-0.5625 0.125,-0.5625 0.0937,-0.5625 0.125,-0.5625 0.0937,-0.53125 0.125,-0.53125 0.0937,-0.5 0.0937,-0.5 0.0937,-0.46875 0.0937,-0.4375 0.0625,-0.40625 0.0937,-0.375 0.0625,-0.34375 0.0625,-0.3125 0.0625,-0.28125 0.0312,-0.21875 0.0625,-0.1875 c 0.015,-0.13414 0.0312,-0.21875 0.0312,-0.21875 0.0892,-0.0306 0.1875,-0.0312 0.1875,-0.0312 l 0.3125,0 0.1875,0 0.25,0 0.28125,0 0.25,0 0.3125,0 0.34375,0 0.375,0 0.375,0 0.375,0 0.40625,0 0.40625,0 0.40625,0 0.4375,0 0.4375,0 0.40625,0 0.4375,0 0.4375,0 0.40625,0 0.4375,0 0.40625,0 0.40625,0 0.375,0 0.375,0 0.34375,0 0.34375,0 0.3125,0 0.28125,0 0.28125,0 0.21875,0 0.21875,0 0.15625,0 0.25,0 c 0.0886,-0.10357 0.0625,-0.1875 0.0625,-0.1875 l 0,-0.21875 0,-0.34375 0,-0.15625 0,-0.21875 0,-0.21875 0,-0.21875 0,-0.21875 0,-0.25 0,-0.25 0,-0.28125 0,-0.25 0,-0.28125 0,-0.25 0,-0.28125 0,-0.28125 0,-0.25 0,-0.28125 0,-0.25 0,-0.28125 0,-0.25 0,-0.21875 0,-0.25 0,-0.21875 0,-0.21875 0,-0.1875 0,-0.1875 0,-0.15625 0,-0.28125 0,-0.1875 c -0.0736,-0.11792 -0.15625,-0.125 -0.15625,-0.125 l -0.28125,0 -0.15625,0 -0.21875,0 -0.25,0 -0.25,0 -0.28125,0 -0.3125,0 -0.3125,0 -0.3125,0 -0.34375,0 -0.375,0 -0.375,0 -0.34375,0 -0.40625,0 -0.375,0 -0.375,0 -0.40625,0 -0.375,0 -0.375,0 -0.375,0 -0.375,0 -0.34375,0 -0.34375,0 -0.34375,0 -0.3125,0 -0.28125,0 -0.28125,0 -0.28125,0 -0.21875,0 -0.21875,0 -0.1875,0 -0.15625,0 -0.21875,0 c -0.0742,-0.0449 -0.0312,-0.15625 -0.0312,-0.15625 l 0.0312,-0.1875 0.0312,-0.25 0.0625,-0.3125 0.0625,-0.375 0.0625,-0.4375 0.0937,-0.5 0.0937,-0.53125 0.0937,-0.5625 0.0937,-0.625 0.125,-0.65625 L 176,362 l 0.125,-0.6875 0.125,-0.75 0.125,-0.75 0.125,-0.78125 0.125,-0.78125 0.125,-0.78125 0.15625,-0.78125 0.125,-0.8125 0.15625,-0.78125 0.125,-0.78125 0.125,-0.78125 0.15625,-0.75 0.0937,-0.71875 0.125,-0.71875 0.125,-0.6875 0.125,-0.65625 0.0937,-0.625 0.0937,-0.5625 0.0937,-0.53125 0.0937,-0.46875 0.0625,-0.46875 0.0625,-0.34375 0.0625,-0.34375 0.0625,-0.25 0,-0.15625 c 0.0144,-0.11792 0.0312,-0.1875 0.0312,-0.1875 l -0.21875,0 -0.25,0 -0.15625,0 -0.1875,0 -0.1875,0 -0.21875,0 -0.21875,0 -0.25,0 -0.28125,0 -0.25,0 -0.28125,0 -0.28125,0 -0.28125,0 -0.28125,0 -0.28125,0 -0.3125,0 -0.28125,0 -0.28125,0 -0.3125,0 -0.28125,0 -0.28125,0 -0.28125,0 -0.25,0 -0.25,0 -0.25,0 -0.25,0 -0.1875,0 -0.21875,0 -0.15625,0 -0.1875,0 -0.25,0 -0.15625,0 c -0.0742,0.0449 -0.0937,0.1875 -0.0937,0.1875 l -0.0312,0.15625 -0.0625,0.25 -0.0625,0.34375 -0.0625,0.34375 -0.0937,0.46875 -0.0937,0.46875 -0.0937,0.53125 -0.125,0.5625 -0.125,0.625 -0.125,0.65625 -0.125,0.6875 -0.15625,0.71875 -0.15625,0.71875 -0.15625,0.75 -0.125,0.78125 -0.1875,0.78125 -0.15625,0.78125 -0.125,0.8125 -0.1875,0.78125 -0.15625,0.78125 -0.15625,0.78125 -0.15625,0.78125 -0.15625,0.75 -0.125,0.75 -0.15625,0.6875 -0.125,0.6875 -0.15625,0.65625 -0.0937,0.625 -0.125,0.5625 -0.0937,0.53125 -0.0937,0.5 -0.0937,0.4375 -0.0625,0.375 -0.0937,0.3125 -0.0312,0.25 -0.0625,0.1875 c -0.0144,0.11792 -0.0312,0.15625 -0.0312,0.15625 l -0.1875,0 -0.15625,0 -0.1875,0 -0.21875,0 -0.28125,0 -0.28125,0 -0.3125,0 -0.34375,0 -0.375,0 -0.40625,0 -0.375,0 -0.4375,0 -0.4375,0 -0.46875,0 -0.46875,0 -0.4375,0 -0.5,0 -0.46875,0 -0.46875,0 -0.46875,0 -0.5,0 -0.4375,0 -0.46875,0 -0.4375,0 -0.40625,0 -0.4375,0 -0.375,0 -0.375,0 -0.34375,0 -0.3125,0 -0.28125,0 -0.28125,0 -0.21875,0 -0.1875,0 -0.15625,0 -0.1875,0 c -0.0144,-0.0449 0,-0.15625 0,-0.15625 l 0.0625,-0.1875 0.0312,-0.25 0.0625,-0.3125 0.0937,-0.375 0.0625,-0.4375 0.125,-0.5 0.0937,-0.53125 0.125,-0.5625 0.125,-0.625 0.125,-0.65625 0.125,-0.6875 0.15625,-0.6875 0.125,-0.75 0.15625,-0.75 0.15625,-0.78125 0.15625,-0.78125 0.15625,-0.78125 0.1875,-0.78125 0.125,-0.8125 0.15625,-0.78125 0.1875,-0.78125 0.125,-0.78125 0.15625,-0.75 0.15625,-0.71875 0.15625,-0.71875 0.125,-0.6875 0.125,-0.65625 0.125,-0.625 0.125,-0.5625 0.0937,-0.53125 0.0937,-0.46875 0.0937,-0.46875 0.0937,-0.34375 0.0312,-0.34375 0.0625,-0.25 0.0312,-0.15625 c 0.0144,-0.11792 0.0312,-0.1875 0.0312,-0.1875 l -0.21875,0 -0.28125,0 -0.1875,0 -0.1875,0 -0.21875,0 -0.21875,0 -0.25,0 -0.25,0 -0.28125,0 -0.28125,0 -0.3125,0 -0.28125,0 -0.3125,0 -0.3125,0 -0.3125,0 -0.34375,0 -0.3125,0 -0.3125,0 -0.3125,0 -0.3125,0 -0.28125,0 -0.3125,0 -0.28125,0 -0.28125,0 -0.25,0 -0.25,0 -0.21875,0 -0.21875,0 -0.1875,0 -0.1875,0 -0.25,0 -0.1875,0 z m 3.15625,28.46875 0.15625,0 0.1875,0 0.21875,0 0.28125,0 0.28125,0 0.3125,0 0.34375,0 0.375,0 0.40625,0 0.40625,0 0.4375,0 0.40625,0 0.46875,0 0.46875,0 0.46875,0 0.46875,0 0.46875,0 0.5,0 0.46875,0 0.4375,0 0.5,0 0.4375,0 0.4375,0 0.4375,0 0.40625,0 0.375,0 0.375,0 0.34375,0 0.3125,0 0.3125,0 0.25,0 0.21875,0 0.1875,0 0.15625,0 0.1875,0 c 0,0.11792 -0.0312,0.25 -0.0312,0.25 l -0.0312,0.1875 -0.0312,0.21875 -0.0625,0.28125 -0.0625,0.3125 -0.0625,0.34375 -0.0937,0.375 -0.0937,0.40625 -0.0937,0.4375 -0.0625,0.46875 -0.0937,0.5 -0.125,0.5 -0.0937,0.53125 -0.125,0.53125 -0.0937,0.5625 -0.125,0.5625 -0.0937,0.5625 -0.125,0.5625 -0.125,0.5625 -0.0937,0.5625 -0.125,0.5625 -0.0937,0.53125 -0.125,0.53125 -0.0937,0.5625 -0.0937,0.5 -0.0937,0.46875 -0.0937,0.46875 -0.0937,0.4375 -0.0937,0.40625 -0.0625,0.40625 -0.0625,0.34375 -0.0625,0.3125 -0.0625,0.25 -0.0625,0.25 -0.0312,0.15625 c -0.0293,0.13289 -0.0312,0.21875 -0.0312,0.21875 0.001,0.015 -12.71875,0.0312 -12.71875,0.0312 0.0293,-0.10357 0.0312,-0.25 0.0312,-0.25 l 0.0312,-0.15625 0.0625,-0.25 0.0625,-0.25 0.0625,-0.3125 0.0625,-0.34375 0.0625,-0.40625 0.0937,-0.40625 0.0937,-0.4375 0.0937,-0.46875 0.0937,-0.46875 0.0937,-0.5 0.0937,-0.5625 0.125,-0.53125 0.0937,-0.53125 0.125,-0.5625 0.125,-0.5625 0.0937,-0.5625 0.125,-0.5625 0.0937,-0.5625 0.125,-0.5625 0.0937,-0.5625 0.125,-0.53125 0.125,-0.53125 0.0625,-0.5 0.125,-0.5 0.0937,-0.46875 0.0625,-0.4375 0.0937,-0.40625 0.0937,-0.375 0.0625,-0.34375 0.0625,-0.3125 0.0312,-0.28125 0.0625,-0.21875 0.0312,-0.1875 c 0.0293,-0.13414 0.0625,-0.21875 0.0625,-0.21875 0.0892,-0.0306 0.1875,-0.0312 0.1875,-0.0312 z"
   style="fill:#000000;fill-opacity:1;stroke:none"
   inkscape:connector-curvature="0" />
</g><g
       style="fill:#000000;fill-opacity:1;stroke:none"
       id="LWPOLYLINE_2_">
	
		
</g></g></g>
</svg>