<?xml version="1.0" encoding="UTF-8" standalone="no"?>
<!-- Generator: Adobe Illustrator 16.0.1, SVG Export Plug-In . SVG Version: 6.00 Build 0)  -->

<svg
   xmlns:dc="http://purl.org/dc/elements/1.1/"
   xmlns:cc="http://creativecommons.org/ns#"
   xmlns:rdf="http://www.w3.org/1999/02/22-rdf-syntax-ns#"
   xmlns:svg="http://www.w3.org/2000/svg"
   xmlns="http://www.w3.org/2000/svg"
   xmlns:xlink="http://www.w3.org/1999/xlink"
   xmlns:sodipodi="http://sodipodi.sourceforge.net/DTD/sodipodi-0.dtd"
   xmlns:inkscape="http://www.inkscape.org/namespaces/inkscape"
   version="1.0"
   id="_x31_"
   x="0px"
   y="0px"
   width="350"
   height="350"
   viewBox="0 0 350 350"
   enable-background="new 0 0 612 792"
   xml:space="preserve"
   inkscape:version="0.48.3.1 r9886"
   sodipodi:docname="6069.svg"><metadata
   id="metadata73"><rdf:RDF><cc:Work
       rdf:about=""><dc:format>image/svg+xml</dc:format><dc:type
         rdf:resource="http://purl.org/dc/dcmitype/StillImage" /></cc:Work></rdf:RDF></metadata><defs
   id="defs71"><radialGradient
     r="333.18735"
     fy="467.91885"
     fx="373.24265"
     cy="467.91885"
     cx="373.24265"
     gradientTransform="matrix(0.83535069,2.5391116e-7,-2.4564601e-7,0.80815885,-725.97492,-115.98714)"
     gradientUnits="userSpaceOnUse"
     id="radialGradient4460"
     xlink:href="#linearGradient5443"
     inkscape:collect="always" /><linearGradient
     y2="254.73526"
     x2="123.47623"
     y1="344.03848"
     x1="123.50603"
     gradientTransform="matrix(2.3189708,0,0,2.0930998,-543.56606,-225.82362)"
     gradientUnits="userSpaceOnUse"
     id="linearGradient4458"
     xlink:href="#linearGradient3187"
     inkscape:collect="always" /><radialGradient
     r="333.18735"
     fy="710.99164"
     fx="373.24265"
     cy="710.99164"
     cx="373.24265"
     gradientTransform="matrix(0.86272606,1.0667183e-7,-5.1097113e-8,0.31433999,-736.19251,168.72353)"
     gradientUnits="userSpaceOnUse"
     id="radialGradient4456"
     xlink:href="#linearGradient5443"
     inkscape:collect="always" /><radialGradient
     r="333.18735"
     fy="467.91885"
     fx="373.24265"
     cy="467.91885"
     cx="373.24265"
     gradientTransform="matrix(0.83393192,2.4025531e-7,-2.452288e-7,0.76469446,-575.89311,126.3946)"
     gradientUnits="userSpaceOnUse"
     id="radialGradient2894-5"
     xlink:href="#linearGradient5443-0"
     inkscape:collect="always" /><linearGradient
     y2="254.73526"
     x2="123.47623"
     y1="344.03848"
     x1="123.50603"
     gradientTransform="matrix(2.3189708,0,0,2.0930998,-543.56606,-225.82362)"
     gradientUnits="userSpaceOnUse"
     id="linearGradient2892-2"
     xlink:href="#linearGradient3187-1"
     inkscape:collect="always" /><radialGradient
     r="333.18735"
     fy="710.99164"
     fx="373.24265"
     cy="710.99164"
     cx="373.24265"
     gradientTransform="matrix(0.8612608,1.0093481e-7,-5.1010329e-8,0.29743416,-586.09339,395.79293)"
     gradientUnits="userSpaceOnUse"
     id="radialGradient2890-7"
     xlink:href="#linearGradient5443-0"
     inkscape:collect="always" /><linearGradient
     id="linearGradient5443-5-6"><stop
       style="stop-color:#ffffff;stop-opacity:0;"
       offset="0"
       id="stop5445-4-1" /><stop
       style="stop-color:#000000;stop-opacity:0.33962265;"
       offset="1"
       id="stop5447-3-4" /></linearGradient><radialGradient
     r="333.18735"
     fy="710.99164"
     fx="373.24265"
     cy="710.99164"
     cx="373.24265"
     gradientTransform="matrix(0.9503534,1.1750652e-7,-5.6287062e-8,0.3462676,317.80591,185.68771)"
     gradientUnits="userSpaceOnUse"
     id="radialGradient4835-3-2"
     xlink:href="#linearGradient5443-5-6"
     inkscape:collect="always" /><radialGradient
     r="333.18735"
     fy="710.99164"
     fx="373.24265"
     cy="710.99164"
     cx="373.24265"
     gradientTransform="matrix(0.8612608,1.0093481e-7,-5.1010329e-8,0.29743416,-586.09339,395.79293)"
     gradientUnits="userSpaceOnUse"
     id="radialGradient4835-2"
     xlink:href="#linearGradient5443-0"
     inkscape:collect="always" /><radialGradient
     r="333.18735"
     fy="467.91885"
     fx="373.24265"
     cy="467.91885"
     cx="373.24265"
     gradientTransform="matrix(0.83393192,2.4025531e-7,-2.452288e-7,0.76469446,-575.89311,126.3946)"
     gradientUnits="userSpaceOnUse"
     id="radialGradient4832-1"
     xlink:href="#linearGradient5443-0"
     inkscape:collect="always" /><linearGradient
     y2="254.73526"
     x2="123.47623"
     y1="344.03848"
     x1="123.50603"
     gradientTransform="matrix(2.3189708,0,0,2.0930998,-543.56606,-225.82362)"
     gradientUnits="userSpaceOnUse"
     id="linearGradient4827-6"
     xlink:href="#linearGradient3187-1"
     inkscape:collect="always" /><linearGradient
     y2="254.73526"
     x2="123.47623"
     y1="344.03848"
     x1="123.50603"
     gradientTransform="matrix(2.3189708,0,0,2.0930998,93.115298,-256.84999)"
     gradientUnits="userSpaceOnUse"
     id="linearGradient4824-8"
     xlink:href="#linearGradient3187-1"
     inkscape:collect="always" /><radialGradient
     r="333.18735"
     fy="467.91885"
     fx="373.24265"
     cy="467.91885"
     cx="373.24265"
     gradientTransform="matrix(0.9201975,2.7970099e-7,-2.7059634e-7,0.8902438,28.590287,48.634335)"
     gradientUnits="userSpaceOnUse"
     id="radialGradient4822-5"
     xlink:href="#linearGradient3171-6"
     inkscape:collect="always" /><radialGradient
     r="333.18735"
     fy="710.99164"
     fx="373.24265"
     cy="710.99164"
     cx="373.24265"
     gradientTransform="matrix(0.9503534,1.1750652e-7,-5.6287062e-8,0.3462676,17.334826,362.44227)"
     gradientUnits="userSpaceOnUse"
     id="radialGradient4820-7"
     xlink:href="#linearGradient3157-2"
     inkscape:collect="always" /><radialGradient
     r="333.18735"
     fy="710.99164"
     fx="373.24265"
     cy="710.99164"
     cx="373.24265"
     gradientTransform="matrix(0.9503534,1.1750652e-7,-5.6287062e-8,0.3462676,17.334826,362.44227)"
     gradientUnits="userSpaceOnUse"
     id="radialGradient4805-6"
     xlink:href="#linearGradient3157-2"
     inkscape:collect="always" /><radialGradient
     r="333.18735"
     fy="467.91885"
     fx="373.24265"
     cy="467.91885"
     cx="373.24265"
     gradientTransform="matrix(0.9201975,2.7970099e-7,-2.7059634e-7,0.8902438,28.590287,48.634335)"
     gradientUnits="userSpaceOnUse"
     id="radialGradient4802-1"
     xlink:href="#linearGradient3171-6"
     inkscape:collect="always" /><linearGradient
     y2="254.73526"
     x2="123.47623"
     y1="344.03848"
     x1="123.50603"
     gradientTransform="matrix(2.3189708,0,0,2.0930998,93.115298,-256.84999)"
     gradientUnits="userSpaceOnUse"
     id="linearGradient4799-8"
     xlink:href="#linearGradient3187-1"
     inkscape:collect="always" /><linearGradient
     y2="254.73526"
     x2="123.47623"
     y1="344.03848"
     x1="123.50603"
     gradientTransform="matrix(2.3189708,0,0,2.0930998,93.115298,-256.84999)"
     gradientUnits="userSpaceOnUse"
     id="linearGradient4794-9"
     xlink:href="#linearGradient3187-1"
     inkscape:collect="always" /><radialGradient
     r="333.18735"
     fy="467.91885"
     fx="373.24265"
     cy="467.91885"
     cx="373.24265"
     gradientTransform="matrix(0.9201975,2.7970099e-7,-2.7059634e-7,0.8902438,28.590287,48.634335)"
     gradientUnits="userSpaceOnUse"
     id="radialGradient4792-2"
     xlink:href="#linearGradient3171-6"
     inkscape:collect="always" /><radialGradient
     r="333.18735"
     fy="710.99164"
     fx="373.24265"
     cy="710.99164"
     cx="373.24265"
     gradientTransform="matrix(0.9503534,1.1750652e-7,-5.6287062e-8,0.3462676,17.334826,362.44227)"
     gradientUnits="userSpaceOnUse"
     id="radialGradient4790-7"
     xlink:href="#linearGradient3157-2"
     inkscape:collect="always" /><radialGradient
     r="333.18735"
     fy="710.99164"
     fx="373.24265"
     cy="710.99164"
     cx="373.24265"
     gradientTransform="matrix(0.9503534,1.1750652e-7,-5.6287062e-8,0.3462676,17.334826,362.44227)"
     gradientUnits="userSpaceOnUse"
     id="radialGradient4779-9"
     xlink:href="#linearGradient3157-2"
     inkscape:collect="always" /><radialGradient
     r="333.18735"
     fy="467.91885"
     fx="373.24265"
     cy="467.91885"
     cx="373.24265"
     gradientTransform="matrix(0.9201975,2.7970099e-7,-2.7059634e-7,0.8902438,28.590287,48.634335)"
     gradientUnits="userSpaceOnUse"
     id="radialGradient4776-5"
     xlink:href="#linearGradient3171-6"
     inkscape:collect="always" /><linearGradient
     y2="254.73526"
     x2="123.47623"
     y1="344.03848"
     x1="123.50603"
     gradientTransform="matrix(2.3189708,0,0,2.0930998,93.115298,-256.84999)"
     gradientUnits="userSpaceOnUse"
     id="linearGradient4773-4"
     xlink:href="#linearGradient3187-1"
     inkscape:collect="always" /><linearGradient
     y2="254.73526"
     x2="123.47623"
     y1="344.03848"
     x1="123.50603"
     gradientTransform="matrix(2.3189708,0,0,2.0930998,93.115298,-256.84999)"
     gradientUnits="userSpaceOnUse"
     id="linearGradient4770-3"
     xlink:href="#linearGradient3187-1"
     inkscape:collect="always" /><radialGradient
     r="333.18735"
     fy="467.91885"
     fx="373.24265"
     cy="467.91885"
     cx="373.24265"
     gradientTransform="matrix(0.9201975,2.7970099e-7,-2.7059634e-7,0.8902438,28.590287,48.634335)"
     gradientUnits="userSpaceOnUse"
     id="radialGradient4768-1"
     xlink:href="#linearGradient3171-6"
     inkscape:collect="always" /><radialGradient
     r="333.18735"
     fy="710.99164"
     fx="373.24265"
     cy="710.99164"
     cx="373.24265"
     gradientTransform="matrix(0.9503534,1.1750652e-7,-5.6287062e-8,0.3462676,17.334826,362.44227)"
     gradientUnits="userSpaceOnUse"
     id="radialGradient4766-2"
     xlink:href="#linearGradient3157-2"
     inkscape:collect="always" /><radialGradient
     r="333.18735"
     fy="710.99164"
     fx="373.24265"
     cy="710.99164"
     cx="373.24265"
     gradientTransform="matrix(0.9503534,1.1750652e-7,-5.6287062e-8,0.3462676,17.334826,362.44227)"
     gradientUnits="userSpaceOnUse"
     id="radialGradient4572-4"
     xlink:href="#linearGradient3157-2"
     inkscape:collect="always" /><radialGradient
     r="333.18735"
     fy="467.91885"
     fx="373.24265"
     cy="467.91885"
     cx="373.24265"
     gradientTransform="matrix(0.9201975,2.7970099e-7,-2.7059634e-7,0.8902438,28.590287,48.634335)"
     gradientUnits="userSpaceOnUse"
     id="radialGradient4569-1"
     xlink:href="#linearGradient3171-6"
     inkscape:collect="always" /><linearGradient
     y2="254.73526"
     x2="123.47623"
     y1="344.03848"
     x1="123.50603"
     gradientTransform="matrix(2.3189708,0,0,2.0930998,93.115298,-256.84999)"
     gradientUnits="userSpaceOnUse"
     id="linearGradient4562-1"
     xlink:href="#linearGradient3187-1"
     inkscape:collect="always" /><linearGradient
     gradientUnits="userSpaceOnUse"
     y2="540.86719"
     x2="360.49777"
     y1="167.50403"
     x1="360.49777"
     id="linearGradient4401-3"
     xlink:href="#linearGradient4395-7"
     inkscape:collect="always" /><linearGradient
     gradientUnits="userSpaceOnUse"
     y2="655.4505"
     x2="396.91168"
     y1="298.59412"
     x1="371.42194"
     id="linearGradient4389-8"
     xlink:href="#linearGradient4383-4"
     inkscape:collect="always" /><inkscape:perspective
     id="perspective3214-7"
     inkscape:persp3d-origin="372.04724 : 350.78739 : 1"
     inkscape:vp_z="744.09448 : 526.18109 : 1"
     inkscape:vp_y="0 : 1000 : 0"
     inkscape:vp_x="0 : 526.18109 : 1"
     sodipodi:type="inkscape:persp3d" /><linearGradient
     id="linearGradient4383-4"><stop
       id="stop4385-2"
       offset="0"
       style="stop-color:#00037f;stop-opacity:1;" /><stop
       id="stop4387-7"
       offset="1"
       style="stop-color:#00037f;stop-opacity:0;" /></linearGradient><linearGradient
     id="linearGradient4395-7"><stop
       id="stop4397-9"
       offset="0"
       style="stop-color:#110084;stop-opacity:1;" /><stop
       id="stop4399-3"
       offset="1"
       style="stop-color:#a695ff;stop-opacity:1;" /></linearGradient><linearGradient
     id="linearGradient3187-1"><stop
       id="stop3189-9"
       offset="0"
       style="stop-color:#ffffff;stop-opacity:0.39622641;" /><stop
       id="stop3191-8"
       offset="1"
       style="stop-color:#000000;stop-opacity:1;" /></linearGradient><linearGradient
     id="linearGradient3171-6"><stop
       style="stop-color:#49bcff;stop-opacity:1;"
       offset="0"
       id="stop3173-5" /><stop
       style="stop-color:#494cdc;stop-opacity:1;"
       offset="1"
       id="stop3175-0" /></linearGradient><linearGradient
     id="linearGradient3157-2"><stop
       id="stop3159-8"
       offset="0"
       style="stop-color:#49bcff;stop-opacity:1;" /><stop
       id="stop3161-6"
       offset="1"
       style="stop-color:#494c96;stop-opacity:1;" /></linearGradient><linearGradient
     id="linearGradient5443-0"><stop
       style="stop-color:#ffffff;stop-opacity:0;"
       offset="0"
       id="stop5445-2" /><stop
       style="stop-color:#000000;stop-opacity:0.33962265;"
       offset="1"
       id="stop5447-4" /></linearGradient><radialGradient
     inkscape:collect="always"
     xlink:href="#linearGradient5443-0"
     id="radialGradient3234"
     gradientUnits="userSpaceOnUse"
     gradientTransform="matrix(0.8612608,1.0093481e-7,-5.1010329e-8,0.29743416,-586.09339,395.79293)"
     cx="373.24265"
     cy="710.99164"
     fx="373.24265"
     fy="710.99164"
     r="333.18735" /><linearGradient
     inkscape:collect="always"
     xlink:href="#linearGradient3187-1"
     id="linearGradient3236"
     gradientUnits="userSpaceOnUse"
     gradientTransform="matrix(2.3189708,0,0,2.0930998,-543.56606,-225.82362)"
     x1="123.50603"
     y1="344.03848"
     x2="123.47623"
     y2="254.73526" /><radialGradient
     inkscape:collect="always"
     xlink:href="#linearGradient5443-0"
     id="radialGradient3238"
     gradientUnits="userSpaceOnUse"
     gradientTransform="matrix(0.83393192,2.4025531e-7,-2.452288e-7,0.76469446,-575.89311,126.3946)"
     cx="373.24265"
     cy="467.91885"
     fx="373.24265"
     fy="467.91885"
     r="333.18735" /><radialGradient
     inkscape:collect="always"
     xlink:href="#linearGradient5443-0"
     id="radialGradient3254"
     gradientUnits="userSpaceOnUse"
     gradientTransform="matrix(0.8612608,1.0093481e-7,-5.1010329e-8,0.29743416,-586.09339,395.79293)"
     cx="373.24265"
     cy="710.99164"
     fx="373.24265"
     fy="710.99164"
     r="333.18735" /><linearGradient
     inkscape:collect="always"
     xlink:href="#linearGradient3187-1"
     id="linearGradient3256"
     gradientUnits="userSpaceOnUse"
     gradientTransform="matrix(2.3189708,0,0,2.0930998,-543.56606,-225.82362)"
     x1="123.50603"
     y1="344.03848"
     x2="123.47623"
     y2="254.73526" /><radialGradient
     inkscape:collect="always"
     xlink:href="#linearGradient5443-0"
     id="radialGradient3258"
     gradientUnits="userSpaceOnUse"
     gradientTransform="matrix(0.83393192,2.4025531e-7,-2.452288e-7,0.76469446,-575.89311,126.3946)"
     cx="373.24265"
     cy="467.91885"
     fx="373.24265"
     fy="467.91885"
     r="333.18735" /><radialGradient
     inkscape:collect="always"
     xlink:href="#linearGradient5443-0"
     id="radialGradient3270"
     gradientUnits="userSpaceOnUse"
     gradientTransform="matrix(0.83535069,2.5391116e-7,-2.4564601e-7,0.80815885,-821.89024,-331.16994)"
     cx="373.24265"
     cy="467.91885"
     fx="373.24265"
     fy="467.91885"
     r="333.18735" /><radialGradient
     inkscape:collect="always"
     xlink:href="#linearGradient5443-0"
     id="radialGradient3274"
     gradientUnits="userSpaceOnUse"
     gradientTransform="matrix(0.86272606,1.0667183e-7,-5.1097113e-8,0.31433999,-832.10787,-46.459305)"
     cx="373.24265"
     cy="710.99164"
     fx="373.24265"
     fy="710.99164"
     r="333.18735" /><linearGradient
     y2="254.73526"
     x2="123.47623"
     y1="344.03848"
     x1="123.50603"
     gradientTransform="matrix(2.3189708,0,0,2.0930998,-543.56606,-225.82362)"
     gradientUnits="userSpaceOnUse"
     id="linearGradient3422"
     xlink:href="#linearGradient3187"
     inkscape:collect="always" /><radialGradient
     r="333.18735"
     fy="710.99164"
     fx="373.24265"
     cy="710.99164"
     cx="373.24265"
     gradientTransform="matrix(0.86272606,1.0667183e-7,-5.1097113e-8,0.31433999,-736.19251,168.72353)"
     gradientUnits="userSpaceOnUse"
     id="radialGradient3416"
     xlink:href="#linearGradient5443"
     inkscape:collect="always" /><radialGradient
     r="333.18735"
     fy="467.91885"
     fx="373.24265"
     cy="467.91885"
     cx="373.24265"
     gradientTransform="matrix(0.83535069,2.5391116e-7,-2.4564601e-7,0.80815885,-725.97492,-115.98714)"
     gradientUnits="userSpaceOnUse"
     id="radialGradient3412"
     xlink:href="#linearGradient5443"
     inkscape:collect="always" /><radialGradient
     r="333.18735"
     fy="467.91885"
     fx="373.24265"
     cy="467.91885"
     cx="373.24265"
     gradientTransform="matrix(0.83393192,2.4025531e-7,-2.452288e-7,0.76469446,-575.89311,126.3946)"
     gradientUnits="userSpaceOnUse"
     id="radialGradient2894"
     xlink:href="#linearGradient5443"
     inkscape:collect="always" /><linearGradient
     y2="254.73526"
     x2="123.47623"
     y1="344.03848"
     x1="123.50603"
     gradientTransform="matrix(2.3189708,0,0,2.0930998,-543.56606,-225.82362)"
     gradientUnits="userSpaceOnUse"
     id="linearGradient2892"
     xlink:href="#linearGradient3187"
     inkscape:collect="always" /><radialGradient
     r="333.18735"
     fy="710.99164"
     fx="373.24265"
     cy="710.99164"
     cx="373.24265"
     gradientTransform="matrix(0.8612608,1.0093481e-7,-5.1010329e-8,0.29743416,-586.09339,395.79293)"
     gradientUnits="userSpaceOnUse"
     id="radialGradient2890"
     xlink:href="#linearGradient5443"
     inkscape:collect="always" /><linearGradient
     id="linearGradient5443-5"><stop
       style="stop-color:#ffffff;stop-opacity:0;"
       offset="0"
       id="stop5445-4" /><stop
       style="stop-color:#000000;stop-opacity:0.33962265;"
       offset="1"
       id="stop5447-3" /></linearGradient><radialGradient
     r="333.18735"
     fy="710.99164"
     fx="373.24265"
     cy="710.99164"
     cx="373.24265"
     gradientTransform="matrix(0.9503534,1.1750652e-7,-5.6287062e-8,0.3462676,317.80591,185.68771)"
     gradientUnits="userSpaceOnUse"
     id="radialGradient4835-3"
     xlink:href="#linearGradient5443-5"
     inkscape:collect="always" /><filter
     color-interpolation-filters="sRGB"
     id="filter5511"
     inkscape:collect="always"><feGaussianBlur
       id="feGaussianBlur5513"
       stdDeviation="3.2374974"
       inkscape:collect="always" /></filter><radialGradient
     r="333.18735"
     fy="710.99164"
     fx="373.24265"
     cy="710.99164"
     cx="373.24265"
     gradientTransform="matrix(0.8612608,1.0093481e-7,-5.1010329e-8,0.29743416,-586.09339,395.79293)"
     gradientUnits="userSpaceOnUse"
     id="radialGradient4835"
     xlink:href="#linearGradient5443"
     inkscape:collect="always" /><radialGradient
     r="333.18735"
     fy="467.91885"
     fx="373.24265"
     cy="467.91885"
     cx="373.24265"
     gradientTransform="matrix(0.83393192,2.4025531e-7,-2.452288e-7,0.76469446,-575.89311,126.3946)"
     gradientUnits="userSpaceOnUse"
     id="radialGradient4832"
     xlink:href="#linearGradient5443"
     inkscape:collect="always" /><linearGradient
     y2="254.73526"
     x2="123.47623"
     y1="344.03848"
     x1="123.50603"
     gradientTransform="matrix(2.3189708,0,0,2.0930998,-543.56606,-225.82362)"
     gradientUnits="userSpaceOnUse"
     id="linearGradient4827"
     xlink:href="#linearGradient3187"
     inkscape:collect="always" /><linearGradient
     y2="254.73526"
     x2="123.47623"
     y1="344.03848"
     x1="123.50603"
     gradientTransform="matrix(2.3189708,0,0,2.0930998,93.115298,-256.84999)"
     gradientUnits="userSpaceOnUse"
     id="linearGradient4824"
     xlink:href="#linearGradient3187"
     inkscape:collect="always" /><radialGradient
     r="333.18735"
     fy="467.91885"
     fx="373.24265"
     cy="467.91885"
     cx="373.24265"
     gradientTransform="matrix(0.9201975,2.7970099e-7,-2.7059634e-7,0.8902438,28.590287,48.634335)"
     gradientUnits="userSpaceOnUse"
     id="radialGradient4822"
     xlink:href="#linearGradient3171"
     inkscape:collect="always" /><radialGradient
     r="333.18735"
     fy="710.99164"
     fx="373.24265"
     cy="710.99164"
     cx="373.24265"
     gradientTransform="matrix(0.9503534,1.1750652e-7,-5.6287062e-8,0.3462676,17.334826,362.44227)"
     gradientUnits="userSpaceOnUse"
     id="radialGradient4820"
     xlink:href="#linearGradient3157"
     inkscape:collect="always" /><radialGradient
     r="333.18735"
     fy="710.99164"
     fx="373.24265"
     cy="710.99164"
     cx="373.24265"
     gradientTransform="matrix(0.9503534,1.1750652e-7,-5.6287062e-8,0.3462676,17.334826,362.44227)"
     gradientUnits="userSpaceOnUse"
     id="radialGradient4805"
     xlink:href="#linearGradient3157"
     inkscape:collect="always" /><radialGradient
     r="333.18735"
     fy="467.91885"
     fx="373.24265"
     cy="467.91885"
     cx="373.24265"
     gradientTransform="matrix(0.9201975,2.7970099e-7,-2.7059634e-7,0.8902438,28.590287,48.634335)"
     gradientUnits="userSpaceOnUse"
     id="radialGradient4802"
     xlink:href="#linearGradient3171"
     inkscape:collect="always" /><linearGradient
     y2="254.73526"
     x2="123.47623"
     y1="344.03848"
     x1="123.50603"
     gradientTransform="matrix(2.3189708,0,0,2.0930998,93.115298,-256.84999)"
     gradientUnits="userSpaceOnUse"
     id="linearGradient4799"
     xlink:href="#linearGradient3187"
     inkscape:collect="always" /><linearGradient
     y2="254.73526"
     x2="123.47623"
     y1="344.03848"
     x1="123.50603"
     gradientTransform="matrix(2.3189708,0,0,2.0930998,93.115298,-256.84999)"
     gradientUnits="userSpaceOnUse"
     id="linearGradient4794"
     xlink:href="#linearGradient3187"
     inkscape:collect="always" /><radialGradient
     r="333.18735"
     fy="467.91885"
     fx="373.24265"
     cy="467.91885"
     cx="373.24265"
     gradientTransform="matrix(0.9201975,2.7970099e-7,-2.7059634e-7,0.8902438,28.590287,48.634335)"
     gradientUnits="userSpaceOnUse"
     id="radialGradient4792"
     xlink:href="#linearGradient3171"
     inkscape:collect="always" /><radialGradient
     r="333.18735"
     fy="710.99164"
     fx="373.24265"
     cy="710.99164"
     cx="373.24265"
     gradientTransform="matrix(0.9503534,1.1750652e-7,-5.6287062e-8,0.3462676,17.334826,362.44227)"
     gradientUnits="userSpaceOnUse"
     id="radialGradient4790"
     xlink:href="#linearGradient3157"
     inkscape:collect="always" /><radialGradient
     r="333.18735"
     fy="710.99164"
     fx="373.24265"
     cy="710.99164"
     cx="373.24265"
     gradientTransform="matrix(0.9503534,1.1750652e-7,-5.6287062e-8,0.3462676,17.334826,362.44227)"
     gradientUnits="userSpaceOnUse"
     id="radialGradient4779"
     xlink:href="#linearGradient3157"
     inkscape:collect="always" /><radialGradient
     r="333.18735"
     fy="467.91885"
     fx="373.24265"
     cy="467.91885"
     cx="373.24265"
     gradientTransform="matrix(0.9201975,2.7970099e-7,-2.7059634e-7,0.8902438,28.590287,48.634335)"
     gradientUnits="userSpaceOnUse"
     id="radialGradient4776"
     xlink:href="#linearGradient3171"
     inkscape:collect="always" /><linearGradient
     y2="254.73526"
     x2="123.47623"
     y1="344.03848"
     x1="123.50603"
     gradientTransform="matrix(2.3189708,0,0,2.0930998,93.115298,-256.84999)"
     gradientUnits="userSpaceOnUse"
     id="linearGradient4773"
     xlink:href="#linearGradient3187"
     inkscape:collect="always" /><linearGradient
     y2="254.73526"
     x2="123.47623"
     y1="344.03848"
     x1="123.50603"
     gradientTransform="matrix(2.3189708,0,0,2.0930998,93.115298,-256.84999)"
     gradientUnits="userSpaceOnUse"
     id="linearGradient4770"
     xlink:href="#linearGradient3187"
     inkscape:collect="always" /><radialGradient
     r="333.18735"
     fy="467.91885"
     fx="373.24265"
     cy="467.91885"
     cx="373.24265"
     gradientTransform="matrix(0.9201975,2.7970099e-7,-2.7059634e-7,0.8902438,28.590287,48.634335)"
     gradientUnits="userSpaceOnUse"
     id="radialGradient4768"
     xlink:href="#linearGradient3171"
     inkscape:collect="always" /><radialGradient
     r="333.18735"
     fy="710.99164"
     fx="373.24265"
     cy="710.99164"
     cx="373.24265"
     gradientTransform="matrix(0.9503534,1.1750652e-7,-5.6287062e-8,0.3462676,17.334826,362.44227)"
     gradientUnits="userSpaceOnUse"
     id="radialGradient4766"
     xlink:href="#linearGradient3157"
     inkscape:collect="always" /><filter
     color-interpolation-filters="sRGB"
     id="filter4659"
     inkscape:collect="always"><feGaussianBlur
       id="feGaussianBlur4661"
       stdDeviation="2.7750933"
       inkscape:collect="always" /></filter><radialGradient
     r="333.18735"
     fy="710.99164"
     fx="373.24265"
     cy="710.99164"
     cx="373.24265"
     gradientTransform="matrix(0.9503534,1.1750652e-7,-5.6287062e-8,0.3462676,17.334826,362.44227)"
     gradientUnits="userSpaceOnUse"
     id="radialGradient4572"
     xlink:href="#linearGradient3157"
     inkscape:collect="always" /><radialGradient
     r="333.18735"
     fy="467.91885"
     fx="373.24265"
     cy="467.91885"
     cx="373.24265"
     gradientTransform="matrix(0.9201975,2.7970099e-7,-2.7059634e-7,0.8902438,28.590287,48.634335)"
     gradientUnits="userSpaceOnUse"
     id="radialGradient4569"
     xlink:href="#linearGradient3171"
     inkscape:collect="always" /><linearGradient
     y2="254.73526"
     x2="123.47623"
     y1="344.03848"
     x1="123.50603"
     gradientTransform="matrix(2.3189708,0,0,2.0930998,93.115298,-256.84999)"
     gradientUnits="userSpaceOnUse"
     id="linearGradient4562"
     xlink:href="#linearGradient3187"
     inkscape:collect="always" /><linearGradient
     gradientUnits="userSpaceOnUse"
     y2="540.86719"
     x2="360.49777"
     y1="167.50403"
     x1="360.49777"
     id="linearGradient4401"
     xlink:href="#linearGradient4395"
     inkscape:collect="always" /><linearGradient
     gradientUnits="userSpaceOnUse"
     y2="655.4505"
     x2="396.91168"
     y1="298.59412"
     x1="371.42194"
     id="linearGradient4389"
     xlink:href="#linearGradient4383"
     inkscape:collect="always" /><inkscape:perspective
     id="perspective3214"
     inkscape:persp3d-origin="372.04724 : 350.78739 : 1"
     inkscape:vp_z="744.09448 : 526.18109 : 1"
     inkscape:vp_y="0 : 1000 : 0"
     inkscape:vp_x="0 : 526.18109 : 1"
     sodipodi:type="inkscape:persp3d" /><linearGradient
     id="linearGradient4383"><stop
       id="stop4385"
       offset="0"
       style="stop-color:#00037f;stop-opacity:1;" /><stop
       id="stop4387"
       offset="1"
       style="stop-color:#00037f;stop-opacity:0;" /></linearGradient><linearGradient
     id="linearGradient4395"><stop
       id="stop4397"
       offset="0"
       style="stop-color:#110084;stop-opacity:1;" /><stop
       id="stop4399"
       offset="1"
       style="stop-color:#a695ff;stop-opacity:1;" /></linearGradient><linearGradient
     id="linearGradient3187"><stop
       id="stop3189"
       offset="0"
       style="stop-color:#ffffff;stop-opacity:0.39622641;" /><stop
       id="stop3191"
       offset="1"
       style="stop-color:#9e9e9e;stop-opacity:1;" /></linearGradient><linearGradient
     id="linearGradient3171"><stop
       style="stop-color:#49bcff;stop-opacity:1;"
       offset="0"
       id="stop3173" /><stop
       style="stop-color:#494cdc;stop-opacity:1;"
       offset="1"
       id="stop3175" /></linearGradient><linearGradient
     id="linearGradient3157"><stop
       id="stop3159"
       offset="0"
       style="stop-color:#49bcff;stop-opacity:1;" /><stop
       id="stop3161"
       offset="1"
       style="stop-color:#494c96;stop-opacity:1;" /></linearGradient><linearGradient
     id="linearGradient5443"><stop
       style="stop-color:#ffffff;stop-opacity:0;"
       offset="0"
       id="stop5445" /><stop
       style="stop-color:#cbcac8;stop-opacity:1;"
       offset="1"
       id="stop5447" /></linearGradient><radialGradient
     inkscape:collect="always"
     xlink:href="#linearGradient5443"
     id="radialGradient3253"
     gradientUnits="userSpaceOnUse"
     gradientTransform="matrix(0.8612608,1.0093481e-7,-5.1010329e-8,0.29743416,-586.09339,395.79293)"
     cx="373.24265"
     cy="710.99164"
     fx="373.24265"
     fy="710.99164"
     r="333.18735" /><linearGradient
     inkscape:collect="always"
     xlink:href="#linearGradient3187"
     id="linearGradient3255"
     gradientUnits="userSpaceOnUse"
     gradientTransform="matrix(2.3189708,0,0,2.0930998,-543.56606,-225.82362)"
     x1="123.50603"
     y1="344.03848"
     x2="123.47623"
     y2="254.73526" /><radialGradient
     inkscape:collect="always"
     xlink:href="#linearGradient5443"
     id="radialGradient3257"
     gradientUnits="userSpaceOnUse"
     gradientTransform="matrix(0.83393192,2.4025531e-7,-2.452288e-7,0.76469446,-575.89311,126.3946)"
     cx="373.24265"
     cy="467.91885"
     fx="373.24265"
     fy="467.91885"
     r="333.18735" /><radialGradient
     inkscape:collect="always"
     xlink:href="#linearGradient5443"
     id="radialGradient3273"
     gradientUnits="userSpaceOnUse"
     gradientTransform="matrix(0.8612608,1.0093481e-7,-5.1010329e-8,0.29743416,-586.09339,395.79293)"
     cx="373.24265"
     cy="710.99164"
     fx="373.24265"
     fy="710.99164"
     r="333.18735" /><linearGradient
     inkscape:collect="always"
     xlink:href="#linearGradient3187"
     id="linearGradient3275"
     gradientUnits="userSpaceOnUse"
     gradientTransform="matrix(2.3189708,0,0,2.0930998,-543.56606,-225.82362)"
     x1="123.50603"
     y1="344.03848"
     x2="123.47623"
     y2="254.73526" /><radialGradient
     inkscape:collect="always"
     xlink:href="#linearGradient5443"
     id="radialGradient3277"
     gradientUnits="userSpaceOnUse"
     gradientTransform="matrix(0.83393192,2.4025531e-7,-2.452288e-7,0.76469446,-575.89311,126.3946)"
     cx="373.24265"
     cy="467.91885"
     fx="373.24265"
     fy="467.91885"
     r="333.18735" /></defs><sodipodi:namedview
   pagecolor="#ffffff"
   bordercolor="#666666"
   borderopacity="1"
   objecttolerance="10"
   gridtolerance="10"
   guidetolerance="10"
   inkscape:pageopacity="0"
   inkscape:pageshadow="2"
   inkscape:window-width="1920"
   inkscape:window-height="1031"
   id="namedview69"
   showgrid="false"
   fit-margin-top="0"
   fit-margin-left="0"
   fit-margin-right="0"
   fit-margin-bottom="0"
   inkscape:zoom="1.6856283"
   inkscape:cx="175"
   inkscape:cy="174.99999"
   inkscape:window-x="-4"
   inkscape:window-y="-4"
   inkscape:window-maximized="1"
   inkscape:current-layer="_x31_" />






















<g
   id="g4368"
   transform="translate(-4.0524846e-6,1.5294449e-7)"><g
     transform="translate(589.18636,-87.165827)"
     id="g4448"><rect
       transform="matrix(2.1051501,0,0,2.1051501,-860.18934,-1.2010596)"
       ry="12.45238"
       rx="16.067965"
       y="48.636749"
       x="135.39355"
       height="152.93848"
       width="152.93848"
       id="rect4192"
       style="fill:#cccccc;fill-opacity:1;stroke:none;filter:url(#filter4659)"
       inkscape:export-filename="C:\Documents and Settings\adscro24\Desktop\128.png"
       inkscape:export-xdpi="29.879425"
       inkscape:export-ydpi="29.879425" /><rect
       inkscape:export-ydpi="29.879425"
       inkscape:export-xdpi="29.879425"
       inkscape:export-filename="C:\Documents and Settings\adscro24\Desktop\128.png"
       style="fill:#cbcac8;fill-opacity:1;stroke:none;filter:url(#filter4659)"
       id="rect3279"
       width="152.93848"
       height="152.93848"
       x="135.39355"
       y="48.636749"
       rx="16.067965"
       ry="12.45238"
       transform="matrix(2.1051501,0,0,2.1051501,-860.18934,-1.2010596)" /><rect
       inkscape:export-ydpi="29.879425"
       inkscape:export-xdpi="29.879425"
       inkscape:export-filename="C:\Documents and Settings\adscro24\Desktop\128.png"
       style="opacity:0.61338286;fill:url(#radialGradient4456);fill-opacity:1;stroke:#000000;stroke-width:3.26806188;stroke-miterlimit:4;stroke-opacity:1;stroke-dasharray:none"
       id="rect3155"
       width="321.95847"
       height="321.95844"
       x="-575.16559"
       y="101.18661"
       rx="33.825478"
       ry="26.214128" /><path
       transform="matrix(0.907795,0,0,0.90779498,-173.95283,-177.39738)"
       inkscape:export-ydpi="29.879425"
       inkscape:export-xdpi="29.879425"
       inkscape:export-filename="C:\Documents and Settings\adscro24\Desktop\128.png"
       inkscape:connector-curvature="0"
       style="opacity:0.61338286;fill:url(#linearGradient4458);fill-opacity:1;stroke:none;filter:url(#filter5511)"
       d="m -397.80626,329.07489 c -19.62748,0 -35.44272,12.0976 -35.44272,27.14163 l 0,124.30857 c 29.25482,11.38638 132.70149,11.89599 165.40488,-5.79022 33.32802,-18.02397 127.54379,-68.44264 171.824837,-52.72052 l 0,-65.79783 c 0,-15.04403 -15.798597,-27.14163 -35.426097,-27.14163 l -266.3609,0 z m -35.44272,263.47103 0,42.88373 c 0,1.33144 0.14331,2.63588 0.38253,3.915 -0.11919,-12.81092 -0.25965,-28.88939 -0.38253,-46.79873 z"
       id="rect3177" /><rect
       inkscape:export-ydpi="29.879425"
       inkscape:export-xdpi="29.879425"
       inkscape:export-filename="C:\Documents and Settings\adscro24\Desktop\128.png"
       style="opacity:0.61338286;fill:url(#radialGradient4460);fill-opacity:1;stroke:#ffffff;stroke-width:0.68992418;stroke-linecap:square;stroke-miterlimit:4;stroke-opacity:1;stroke-dasharray:none"
       id="rect3473"
       width="306.12445"
       height="306.12445"
       x="-567.2486"
       y="109.1036"
       rx="32.161926"
       ry="24.924911" /><rect
       inkscape:export-ydpi="29.879425"
       inkscape:export-xdpi="29.879425"
       inkscape:export-filename="C:\Documents and Settings\adscro24\Desktop\128.png"
       style="opacity:0.61338286;fill:#ffffff;fill-opacity:0;stroke:#000000;stroke-width:3.26806188;stroke-miterlimit:4;stroke-opacity:1;stroke-dasharray:none"
       id="rect3155-2"
       width="321.95847"
       height="321.95844"
       x="-575.16559"
       y="101.18661"
       rx="33.825478"
       ry="26.214128" /></g><g
     transform="translate(358.29183,-87.165827)"
     id="LWPOLYLINE_2_-7">
	
		
</g><g
     transform="translate(358.29183,-87.165827)"
     id="LWPOLYLINE_3_-4">
	
		
</g><g
     transform="translate(358.29183,-87.165827)"
     id="LWPOLYLINE_4_-0">
	
		
</g><g
     transform="translate(184.65055,-351.95215)"
     style="fill:#000000;fill-opacity:1;stroke:none"
     id="LWPOLYLINE_6_-7">
	
		
</g><g
     transform="translate(184.65055,-351.95215)"
     style="fill:#000000;fill-opacity:1;stroke:none"
     id="LWPOLYLINE-4">
	
		
</g><g
     transform="translate(184.65055,-351.95215)"
     style="fill:#000000;fill-opacity:1;stroke:none"
     id="LWPOLYLINE_3_-0">
	
		
</g></g><g
   id="g3930"
   transform="matrix(1.0014804,0,0,1.0014804,-39.993896,-261.04834)"><g
     transform="matrix(0.60697413,0,0,0.60697413,28.965476,195.07931)"
     id="LWPOLYLINE_9_"
     style="fill:#000000;fill-opacity:1;stroke:none">
	
		<path
   inkscape:connector-curvature="0"
   id="path31"
   d="m 490.1931,413.24157 c 0,27.11538 0,54.23077 0,81.34614 3.10039,-0.38079 7.62498,0.78527 9.83353,-0.56633 0.14282,-12.14396 -0.28326,-24.73228 0.20594,-36.60568 7.24897,0.87918 16.81859,-2.5697 21.98397,4.16962 4.32066,10.31455 -0.0934,22.92644 4.68356,33.00181 3.67256,0 7.34512,0 11.01768,0 -4.51846,-12.05605 -0.25123,-25.98234 -6.33074,-37.481 -1.47822,-3.47053 -8.29543,-4.63232 -9.11283,-5.40575 18.45347,-2.94321 18.81805,-33.99041 0.82368,-37.84099 -10.8949,-1.39563 -22.11337,-0.24245 -33.10479,-0.61782 z m 9.83361,9.06135 c 7.51718,0.90417 16.48823,-2.32608 22.80765,2.88274 6.55395,7.36522 3.02294,24.11495 -8.59823,23.11639 -4.71942,0 -9.43883,0 -14.15826,0 -0.0518,-8.66573 -0.0377,-17.3358 -0.0512,-25.99913 z"
   style="fill:#000000;fill-opacity:1;stroke:none" />
</g><g
     transform="matrix(0.60697413,0,0,0.60697413,28.965476,195.07931)"
     id="LWPOLYLINE_13_"
     style="fill:#000000;fill-opacity:1;stroke:none">
	
		<path
   inkscape:connector-curvature="0"
   id="path43"
   d="m 137.21264,297.40056 c 0.17217,27.04617 -0.34396,54.78067 0.25743,81.39762 3.02238,-0.38513 7.38241,0.78901 9.57619,-0.56634 0.13884,-12.14707 -0.28072,-24.73028 0.20594,-36.60568 7.24565,0.8794 16.81854,-2.57386 21.98397,4.16962 4.27321,10.33743 -0.10701,22.84051 4.63141,33.0024 3.4029,-0.30044 8.54398,0.60391 10.9148,-0.41188 -4.37908,-12.11345 -0.0179,-26.14451 -6.48495,-37.53249 -2.28649,-2.94186 -6.03963,-4.06251 -9.52471,-4.83925 18.28572,-2.1465 19.97145,-31.88826 3.19215,-37.48134 -11.31981,-2.38595 -23.23309,-0.56851 -34.75223,-1.13266 z m 9.83362,9.11282 c 7.42272,0.85185 16.07087,-2.15032 22.49882,2.57384 6.9569,7.21788 3.47904,24.40608 -8.28874,23.42571 -4.73658,0 -9.47317,0 -14.20975,0 -0.0207,-8.66624 -0.001,-17.33461 -3.3e-4,-25.99955 z"
   style="fill:#000000;fill-opacity:1;stroke:none" />
</g><g
     transform="matrix(0.60697413,0,0,0.60697413,28.965476,195.07931)"
     id="LWPOLYLINE_18_"
     style="fill:#000000;fill-opacity:1;stroke:none">
	
		<path
   inkscape:connector-curvature="0"
   id="path58"
   d="m 330.89883,297.40056 c 0.17216,27.04617 -0.34397,54.78067 0.25742,81.39762 3.01252,-0.383 7.45292,0.78471 9.57611,-0.56634 0.10384,-12.16412 -0.21012,-24.62948 0.15437,-36.60568 7.17957,0.85516 16.34322,-2.42631 21.77803,3.75774 4.7795,10.33122 0.0545,23.11524 4.88892,33.4137 3.68975,0 7.37951,0 11.06926,0 -4.62234,-12.19886 -0.0904,-26.44179 -6.63966,-37.94437 -2.26787,-2.92409 -6.00886,-4.04595 -9.47322,-4.83925 18.2371,-2.20471 19.90535,-31.90703 3.1405,-37.48084 -11.29971,-2.38751 -23.24831,-0.55907 -34.75173,-1.13258 z m 9.83361,9.11282 c 7.42139,0.85623 16.07278,-2.15696 22.49874,2.57384 6.95168,7.2277 3.4755,24.40764 -8.28866,23.42529 -4.71943,0 -9.43884,0 -14.15826,0 -0.0522,-8.6657 -0.0368,-17.33592 -0.0518,-25.99913 z"
   style="fill:#000000;fill-opacity:1;stroke:none" />
</g><g
     transform="matrix(0.60697413,0,0,0.60697413,28.965476,195.07931)"
     id="LWPOLYLINE_11_"
     style="fill:#000000;fill-opacity:1;stroke:none">
	
		<path
   inkscape:connector-curvature="0"
   id="path37"
   d="m 77.0268,297.40056 c -0.362674,27.0599 -0.04951,54.20301 -0.154455,81.29465 9.324882,3.29348 11.161224,-1.23284 9.833616,-8.75243 0.13981,-8.91992 -0.276147,-18.27395 0.205939,-26.92652 11.261339,5e-5 25.44201,1.71892 32.28103,-9.52438 6.91575,-11.95077 3.46873,-32.3612 -11.99598,-35.31905 -9.914878,-1.5687 -20.154968,-0.42478 -30.17015,-0.77227 z m 9.627676,9.11282 c 7.90597,0.71346 18.700054,-2.7873 23.528594,5.71408 4.94373,8.51463 -0.0489,21.89254 -10.86331,21.62317 -4.214416,0.12064 -8.444658,0.0183 -12.665284,0.0514 0,-9.12868 0,-18.26437 0,-27.38865 z"
   style="fill:#000000;fill-opacity:1;stroke:none" />
</g><g
     transform="matrix(0.60697413,0,0,0.60697413,28.965476,195.07931)"
     id="LWPOLYLINE"
     style="fill:#000000;fill-opacity:1;stroke:none">
	
		<path
   inkscape:connector-curvature="0"
   id="path4"
   d="m 83.169,422.325 c 7.344801,24.0553 14.348904,48.3927 21.914,72.271 3.16873,-0.34399 7.22607,0.70763 9.836,-0.514 7.17934,-23.87457 14.358,-47.75018 21.553,-71.62 0.26757,23.97514 -0.36645,48.47778 0.308,72.134 3.01935,-0.38715 7.39756,0.79745 9.559,-0.582 -0.19082,-26.87251 0.38007,-54.21579 -0.274,-80.802 -5.42158,0.37593 -11.8957,-0.74151 -16.722,0.479 -6.48037,22.49212 -12.98981,44.97725 -19.465,67.471 -6.85204,-22.5291 -12.866177,-45.70369 -19.944,-67.951 -5.287667,0 -10.575333,0 -15.863,0 0.136717,27.07111 -0.363712,54.57385 0.239,81.384 2.93,0 5.86,0 8.79,0 0.095,-24.08977 0.05192,-48.18005 0.069,-72.27 z"
   style="fill:#000000;fill-opacity:1;stroke:none" />
</g><g
     transform="matrix(0.60697413,0,0,0.60697413,28.965476,195.07931)"
     id="LWPOLYLINE_1_"
     style="fill:#000000;fill-opacity:1;stroke:none">
	
		<path
   inkscape:connector-curvature="0"
   id="path7"
   d="m 182.21044,413.19009 c -8.31363,27.01603 -17.42473,54.78181 -25.07314,81.39762 3.34985,-0.36926 7.70647,0.74486 10.45127,-0.51485 2.14205,-6.25445 3.90814,-13.26855 6.33182,-19.1009 9.93268,0.22746 20.49926,-0.42459 30.06718,0.30891 1.93166,6.3571 3.46328,13.31659 5.71383,19.30684 3.8785,0 7.75701,0 11.63551,0 -8.61047,-27.12237 -17.07404,-54.53214 -26.10276,-81.39754 -4.33963,-6e-5 -8.69098,1.2e-4 -13.02371,-8e-5 z m 6.22968,9.93658 c 3.5848,13.89948 9.85038,29.89774 11.94458,42.73247 -7.99184,-0.25304 -17.16064,0.49122 -24.50682,-0.30891 4.22351,-14.12388 8.31787,-28.31439 12.56224,-42.42356 z"
   style="fill:#000000;fill-opacity:1;stroke:none" />
</g><g
     transform="matrix(0.60697413,0,0,0.60697413,28.965476,195.07931)"
     id="LWPOLYLINE_2_"
     style="fill:#000000;fill-opacity:1;stroke:none">
	
		
</g><g
     transform="matrix(0.60697413,0,0,0.60697413,28.965476,195.07931)"
     id="LWPOLYLINE_3_"
     style="fill:#000000;fill-opacity:1;stroke:none">
	
		<path
   inkscape:connector-curvature="0"
   id="path13"
   d="m 276.864,413.211 c 0,23.11667 0,46.23333 0,69.35 -10.49571,-23.02478 -20.39572,-46.54266 -31.096,-69.351 -4.56933,0 -9.13867,0 -13.708,0 -0.0654,27.05319 -0.39005,54.57698 0.154,81.384 2.8106,-0.32443 6.75888,0.66444 8.86,-0.479 0,-23.187 0,-46.374 0,-69.561 10.75325,23.23367 20.87899,47.03419 31.799,70.04 4.34033,0 8.68067,0 13.021,0 0.24562,-27.06378 0.0317,-54.16791 0.103,-81.247 -3.03919,-0.19377 -6.0896,-0.0987 -9.133,-0.136 z"
   style="fill:#000000;fill-opacity:1;stroke:none" />
</g><g
     transform="matrix(0.60697413,0,0,0.60697413,28.965476,195.07931)"
     id="LWPOLYLINE_4_"
     style="fill:#000000;fill-opacity:1;stroke:none">
	
		<path
   inkscape:connector-curvature="0"
   id="path16"
   d="m 320.49888,413.19009 c -8.31387,26.98958 -17.56769,54.88506 -25.07315,81.39762 3.31795,-0.36964 7.75381,0.74443 10.39987,-0.51485 2.36171,-6.15062 3.63391,-13.73394 6.58941,-19.1009 9.84266,0.23329 20.32892,-0.42639 29.80975,0.30891 1.94995,6.34698 3.49748,13.32398 5.71367,19.30684 3.8785,0 7.75701,0 11.63551,0 -8.5675,-27.13801 -17.10065,-54.45705 -26.0493,-81.39754 -4.3419,-6e-5 -8.68391,1.2e-4 -13.02576,-8e-5 z m 6.1267,9.93658 c 3.58972,13.86918 10.0317,30.00367 11.99598,42.73247 -8.1861,0 -16.3722,0 -24.55829,0 4.14231,-14.25046 8.47383,-28.48468 12.56231,-42.73247 z"
   style="fill:#000000;fill-opacity:1;stroke:none" />
</g><g
     transform="matrix(0.60697413,0,0,0.60697413,28.965476,195.07931)"
     id="LWPOLYLINE_5_"
     style="fill:#000000;fill-opacity:1;stroke:none">
	
		
</g><g
     transform="matrix(0.60697413,0,0,0.60697413,28.965476,195.07931)"
     id="LWPOLYLINE_6_"
     style="fill:#000000;fill-opacity:1;stroke:none">
	
		<path
   inkscape:connector-curvature="0"
   id="path22"
   d="m 418.627,434.97 c 0.87852,-10.35786 -5.17177,-21.85858 -16.55,-22.582 -12.11186,-2.39406 -27.91332,0.975 -31.695,14.495 -3.17919,13.10746 -0.95136,26.84086 -1.53336,40.21048 -0.28911,11.81551 4.83085,26.45288 18.21936,28.28752 10.71298,1.84905 22.50177,-0.41747 31.563,-5.96 -0.28058,-12.88491 0.56459,-26.74716 -0.411,-39.029 -8.1527,0.22063 -17.17838,-0.43171 -24.847,0.273 0.41379,2.74781 -0.8493,7.0938 0.616,8.842 4.52839,0.3314 10.25702,-0.64373 14.12,0.412 -0.41553,7.89569 0.81231,16.38911 -0.515,23.954 -7.29976,4.77216 -19.97017,6.25708 -25.286,-2.019 -5.23712,-12.79768 -2.12038,-27.06947 -2.982,-40.536 -1.0026,-8.75381 2.28764,-20.45835 12.707,-21.006 7.22954,-1.40306 15.40571,3.19031 15.182,11.204 -1.38554,6.40753 7.66372,2.31426 11.412,3.454 z"
   style="fill:#000000;fill-opacity:1;stroke:none" />
</g><g
     transform="matrix(0.60697413,0,0,0.60697413,28.965476,195.07931)"
     id="LWPOLYLINE_7_"
     style="fill:#000000;fill-opacity:1;stroke:none">
	
		<path
   inkscape:connector-curvature="0"
   id="path25"
   d="m 478.286,494.595 c -0.34703,-2.88039 0.71438,-7.01533 -0.514,-9.113 -10.28385,-0.14415 -21.13249,0.27649 -31.078,-0.206 0.16694,-9.18706 -0.29779,-19.00579 0.206,-27.856 9.41694,-0.18839 19.54919,0.33853 28.577,-0.239 -0.3331,-2.80641 0.67816,-6.80431 -0.48,-8.882 -9.34033,-0.16267 -19.29801,0.29201 -28.303,-0.206 0.19182,-8.47851 -0.3775,-17.71817 0.24,-25.771 10.11747,-0.1732 20.90562,0.32428 30.633,-0.239 -0.43106,-2.76264 0.88946,-7.12512 -0.651,-8.878 -13.31867,0 -26.63733,0 -39.956,0 -0.16412,27.074 -0.0213,54.16612 -0.069,81.247 13.79631,0.20094 27.59725,0.10531 41.395,0.143 z"
   style="fill:#000000;fill-opacity:1;stroke:none" />
</g><g
     transform="matrix(0.60697413,0,0,0.60697413,28.965476,195.07931)"
     id="LWPOLYLINE_8_"
     style="fill:#000000;fill-opacity:1;stroke:none">
	
		
</g><g
     transform="matrix(0.60697413,0,0,0.60697413,28.965476,195.07931)"
     id="LWPOLYLINE_10_"
     style="fill:#000000;fill-opacity:1;stroke:none">
	
		
</g><g
     transform="matrix(0.60697413,0,0,0.60697413,28.965476,195.07931)"
     id="LWPOLYLINE_12_"
     style="fill:#000000;fill-opacity:1;stroke:none">
	
		
</g><g
     transform="matrix(0.60697413,0,0,0.60697413,28.965476,195.07931)"
     id="LWPOLYLINE_14_"
     style="fill:#000000;fill-opacity:1;stroke:none">
	
		<path
   inkscape:connector-curvature="0"
   id="path46"
   d="m 220.2063,296.01046 c -12.12021,-0.5749 -23.377,8.96483 -23.78586,21.31459 -0.17193,14.6957 -1.23017,29.60892 0.97026,44.18659 1.4521,11.60345 12.58144,19.79926 24.05124,18.67622 11.32761,1.03556 22.42276,-6.88356 23.94047,-18.37995 2.42862,-14.28121 0.94279,-28.91849 1.18407,-43.35028 -0.12264,-12.10218 -10.32146,-22.53399 -22.52718,-22.38041 -1.27497,-0.11079 -2.5556,-0.051 -3.833,-0.0668 z m 0.61782,8.39204 c 9.87141,-1.11201 16.51942,8.91252 15.34225,18.01906 -0.76094,13.88426 1.82645,28.22807 -2.05907,41.75425 -4.25515,11.68239 -25.10436,9.82182 -26.30878,-3.0891 -2.14513,-14.06025 -0.91524,-28.44969 -0.9264,-42.62949 0.33283,-7.7073 6.02901,-14.19049 13.952,-14.05472 z"
   style="fill:#000000;fill-opacity:1;stroke:none" />
</g><g
     transform="matrix(0.60697413,0,0,0.60697413,28.965476,195.07931)"
     id="LWPOLYLINE_16_"
     style="fill:#000000;fill-opacity:1;stroke:none">
	
		<path
   inkscape:connector-curvature="0"
   id="path52"
   d="m 312.673,319.164 c 0.86065,-10.35926 -5.18773,-21.8462 -16.568,-22.566 -12.44349,-2.56931 -28.74763,1.36826 -31.991,15.475 -2.63793,13.0589 -0.78764,26.58384 -1.216,39.835 -0.18022,11.65525 5.0187,25.8776 18.181,27.689 10.72725,1.83583 22.5425,-0.42432 31.596,-5.982 -0.27997,-12.88197 0.56387,-26.73034 -0.411,-39.015 -8.16542,0.20824 -17.15479,-0.40746 -24.863,0.258 0.42682,2.75166 -0.87463,7.11459 0.634,8.862 4.52983,0.31692 10.20323,-0.61581 14.099,0.394 -0.42836,7.88908 0.83797,16.42466 -0.531,23.956 -7.15735,4.68763 -19.28062,6.16701 -24.93,-1.438 -5.71896,-12.32454 -2.41388,-26.44912 -3.325,-39.581 -0.8289,-8.81699 1.14323,-21.17677 11.859,-22.411 7.39841,-1.73494 16.25946,2.64817 16.055,11.069 -1.45497,6.41058 7.71271,2.31003 11.411,3.455 z"
   style="fill:#000000;fill-opacity:1;stroke:none" />
</g><g
     transform="matrix(0.60697413,0,0,0.60697413,28.965476,195.07931)"
     id="LWPOLYLINE_17_"
     style="fill:#000000;fill-opacity:1;stroke:none">
	
		
</g><g
     transform="matrix(0.60697413,0,0,0.60697413,28.965476,195.07931)"
     id="LWPOLYLINE_19_"
     style="fill:#000000;fill-opacity:1;stroke:none">
	
		<path
   inkscape:connector-curvature="0"
   id="path61"
   d="m 408.22914,297.40056 c -8.35113,27.00953 -17.46069,54.78131 -25.12463,81.39762 3.36155,-0.37191 7.62662,0.74776 10.45135,-0.51477 2.33976,-6.15759 3.63449,-13.73475 6.58941,-19.1009 9.84925,0.22415 20.32472,-0.42056 29.80976,0.30891 1.96473,6.3621 3.46517,13.22248 5.71367,19.30676 3.8785,0 7.757,0 11.6355,0 -8.60956,-27.12236 -17.06704,-54.53374 -26.10078,-81.39754 -4.32475,-7e-5 -8.6496,1.1e-4 -12.97428,-8e-5 z m 6.1267,9.8851 c 3.58022,13.87205 10.03134,30.00361 11.99599,42.73246 -7.99283,-0.25219 -17.1594,0.49019 -24.50682,-0.30891 4.21033,-14.11459 8.42827,-28.28849 12.51083,-42.42355 z"
   style="fill:#000000;fill-opacity:1;stroke:none" />
</g><g
     transform="matrix(0.60697413,0,0,0.60697413,28.965476,195.07931)"
     id="LWPOLYLINE_20_"
     style="fill:#000000;fill-opacity:1;stroke:none">
	
		
</g><g
     transform="matrix(0.60697413,0,0,0.60697413,28.965476,195.07931)"
     id="LWPOLYLINE_21_"
     style="fill:#000000;fill-opacity:1;stroke:none">
	
		<path
   inkscape:connector-curvature="0"
   id="path67"
   d="m 467.047,306.537 c 7.37521,24.04532 14.32294,48.40909 21.928,72.271 3.15234,-0.34079 7.24351,0.7046 9.802,-0.513 7.19434,-23.87489 14.40791,-47.74811 21.553,-71.637 0.3502,23.97511 -0.35493,48.46827 0.343,72.15 3.00408,-0.38826 7.40753,0.79856 9.53,-0.582 -0.16807,-26.89254 0.33258,-54.15053 -0.24,-80.822 -5.41228,0.39159 -11.93476,-0.77187 -16.72,0.498 -6.52268,22.47736 -12.97206,44.98123 -19.501,67.454 -6.8174,-22.54452 -12.83479,-45.71396 -19.946,-67.951 -5.277,0 -10.554,0 -15.831,0 0.0885,27.08191 -0.34092,54.55299 0.206,81.403 2.93667,0 5.87333,0 8.81,0 0.0909,-24.09012 0.0497,-48.18071 0.066,-72.271 z"
   style="fill:#000000;fill-opacity:1;stroke:none" />
</g><g
     transform="matrix(0.60697413,0,0,0.60697413,28.965476,195.07931)"
     id="LWPOLYLINE_15_"
     style="fill:#000000;fill-opacity:1;stroke:none">
	
		
</g></g></svg>