<?xml version="1.0" encoding="UTF-8" standalone="no"?>
<!-- Generator: Adobe Illustrator 16.0.1, SVG Export Plug-In . SVG Version: 6.00 Build 0)  -->

<svg
   xmlns:dc="http://purl.org/dc/elements/1.1/"
   xmlns:cc="http://creativecommons.org/ns#"
   xmlns:rdf="http://www.w3.org/1999/02/22-rdf-syntax-ns#"
   xmlns:svg="http://www.w3.org/2000/svg"
   xmlns="http://www.w3.org/2000/svg"
   xmlns:xlink="http://www.w3.org/1999/xlink"
   xmlns:sodipodi="http://sodipodi.sourceforge.net/DTD/sodipodi-0.dtd"
   xmlns:inkscape="http://www.inkscape.org/namespaces/inkscape"
   version="1.0"
   id="_x31_"
   x="0px"
   y="0px"
   width="350"
   height="350"
   viewBox="0 0 350 350"
   enable-background="new 0 0 612 792"
   xml:space="preserve"
   inkscape:version="0.48.3.1 r9886"
   sodipodi:docname="6070.svg"><metadata
   id="metadata28"><rdf:RDF><cc:Work
       rdf:about=""><dc:format>image/svg+xml</dc:format><dc:type
         rdf:resource="http://purl.org/dc/dcmitype/StillImage" /></cc:Work></rdf:RDF></metadata><defs
   id="defs26"><radialGradient
     r="333.18735"
     fy="467.91885"
     fx="373.24265"
     cy="467.91885"
     cx="373.24265"
     gradientTransform="matrix(0.83535069,2.5391116e-7,-2.4564601e-7,0.80815885,-725.97492,-115.98714)"
     gradientUnits="userSpaceOnUse"
     id="radialGradient4460"
     xlink:href="#linearGradient5443"
     inkscape:collect="always" /><linearGradient
     y2="254.73526"
     x2="123.47623"
     y1="344.03848"
     x1="123.50603"
     gradientTransform="matrix(2.3189708,0,0,2.0930998,-543.56606,-225.82362)"
     gradientUnits="userSpaceOnUse"
     id="linearGradient4458"
     xlink:href="#linearGradient3187"
     inkscape:collect="always" /><radialGradient
     r="333.18735"
     fy="710.99164"
     fx="373.24265"
     cy="710.99164"
     cx="373.24265"
     gradientTransform="matrix(0.86272606,1.0667183e-7,-5.1097113e-8,0.31433999,-736.19251,168.72353)"
     gradientUnits="userSpaceOnUse"
     id="radialGradient4456"
     xlink:href="#linearGradient5443"
     inkscape:collect="always" /><radialGradient
     r="333.18735"
     fy="467.91885"
     fx="373.24265"
     cy="467.91885"
     cx="373.24265"
     gradientTransform="matrix(0.83393192,2.4025531e-7,-2.452288e-7,0.76469446,-575.89311,126.3946)"
     gradientUnits="userSpaceOnUse"
     id="radialGradient2894-5"
     xlink:href="#linearGradient5443-0"
     inkscape:collect="always" /><linearGradient
     y2="254.73526"
     x2="123.47623"
     y1="344.03848"
     x1="123.50603"
     gradientTransform="matrix(2.3189708,0,0,2.0930998,-543.56606,-225.82362)"
     gradientUnits="userSpaceOnUse"
     id="linearGradient2892-2"
     xlink:href="#linearGradient3187-1"
     inkscape:collect="always" /><radialGradient
     r="333.18735"
     fy="710.99164"
     fx="373.24265"
     cy="710.99164"
     cx="373.24265"
     gradientTransform="matrix(0.8612608,1.0093481e-7,-5.1010329e-8,0.29743416,-586.09339,395.79293)"
     gradientUnits="userSpaceOnUse"
     id="radialGradient2890-7"
     xlink:href="#linearGradient5443-0"
     inkscape:collect="always" /><linearGradient
     id="linearGradient5443-5-6"><stop
       style="stop-color:#ffffff;stop-opacity:0;"
       offset="0"
       id="stop5445-4-1" /><stop
       style="stop-color:#000000;stop-opacity:0.33962265;"
       offset="1"
       id="stop5447-3-4" /></linearGradient><radialGradient
     r="333.18735"
     fy="710.99164"
     fx="373.24265"
     cy="710.99164"
     cx="373.24265"
     gradientTransform="matrix(0.9503534,1.1750652e-7,-5.6287062e-8,0.3462676,317.80591,185.68771)"
     gradientUnits="userSpaceOnUse"
     id="radialGradient4835-3-2"
     xlink:href="#linearGradient5443-5-6"
     inkscape:collect="always" /><radialGradient
     r="333.18735"
     fy="710.99164"
     fx="373.24265"
     cy="710.99164"
     cx="373.24265"
     gradientTransform="matrix(0.8612608,1.0093481e-7,-5.1010329e-8,0.29743416,-586.09339,395.79293)"
     gradientUnits="userSpaceOnUse"
     id="radialGradient4835-2"
     xlink:href="#linearGradient5443-0"
     inkscape:collect="always" /><radialGradient
     r="333.18735"
     fy="467.91885"
     fx="373.24265"
     cy="467.91885"
     cx="373.24265"
     gradientTransform="matrix(0.83393192,2.4025531e-7,-2.452288e-7,0.76469446,-575.89311,126.3946)"
     gradientUnits="userSpaceOnUse"
     id="radialGradient4832-1"
     xlink:href="#linearGradient5443-0"
     inkscape:collect="always" /><linearGradient
     y2="254.73526"
     x2="123.47623"
     y1="344.03848"
     x1="123.50603"
     gradientTransform="matrix(2.3189708,0,0,2.0930998,-543.56606,-225.82362)"
     gradientUnits="userSpaceOnUse"
     id="linearGradient4827-6"
     xlink:href="#linearGradient3187-1"
     inkscape:collect="always" /><linearGradient
     y2="254.73526"
     x2="123.47623"
     y1="344.03848"
     x1="123.50603"
     gradientTransform="matrix(2.3189708,0,0,2.0930998,93.115298,-256.84999)"
     gradientUnits="userSpaceOnUse"
     id="linearGradient4824-8"
     xlink:href="#linearGradient3187-1"
     inkscape:collect="always" /><radialGradient
     r="333.18735"
     fy="467.91885"
     fx="373.24265"
     cy="467.91885"
     cx="373.24265"
     gradientTransform="matrix(0.9201975,2.7970099e-7,-2.7059634e-7,0.8902438,28.590287,48.634335)"
     gradientUnits="userSpaceOnUse"
     id="radialGradient4822-5"
     xlink:href="#linearGradient3171-6"
     inkscape:collect="always" /><radialGradient
     r="333.18735"
     fy="710.99164"
     fx="373.24265"
     cy="710.99164"
     cx="373.24265"
     gradientTransform="matrix(0.9503534,1.1750652e-7,-5.6287062e-8,0.3462676,17.334826,362.44227)"
     gradientUnits="userSpaceOnUse"
     id="radialGradient4820-7"
     xlink:href="#linearGradient3157-2"
     inkscape:collect="always" /><radialGradient
     r="333.18735"
     fy="710.99164"
     fx="373.24265"
     cy="710.99164"
     cx="373.24265"
     gradientTransform="matrix(0.9503534,1.1750652e-7,-5.6287062e-8,0.3462676,17.334826,362.44227)"
     gradientUnits="userSpaceOnUse"
     id="radialGradient4805-6"
     xlink:href="#linearGradient3157-2"
     inkscape:collect="always" /><radialGradient
     r="333.18735"
     fy="467.91885"
     fx="373.24265"
     cy="467.91885"
     cx="373.24265"
     gradientTransform="matrix(0.9201975,2.7970099e-7,-2.7059634e-7,0.8902438,28.590287,48.634335)"
     gradientUnits="userSpaceOnUse"
     id="radialGradient4802-1"
     xlink:href="#linearGradient3171-6"
     inkscape:collect="always" /><linearGradient
     y2="254.73526"
     x2="123.47623"
     y1="344.03848"
     x1="123.50603"
     gradientTransform="matrix(2.3189708,0,0,2.0930998,93.115298,-256.84999)"
     gradientUnits="userSpaceOnUse"
     id="linearGradient4799-8"
     xlink:href="#linearGradient3187-1"
     inkscape:collect="always" /><linearGradient
     y2="254.73526"
     x2="123.47623"
     y1="344.03848"
     x1="123.50603"
     gradientTransform="matrix(2.3189708,0,0,2.0930998,93.115298,-256.84999)"
     gradientUnits="userSpaceOnUse"
     id="linearGradient4794-9"
     xlink:href="#linearGradient3187-1"
     inkscape:collect="always" /><radialGradient
     r="333.18735"
     fy="467.91885"
     fx="373.24265"
     cy="467.91885"
     cx="373.24265"
     gradientTransform="matrix(0.9201975,2.7970099e-7,-2.7059634e-7,0.8902438,28.590287,48.634335)"
     gradientUnits="userSpaceOnUse"
     id="radialGradient4792-2"
     xlink:href="#linearGradient3171-6"
     inkscape:collect="always" /><radialGradient
     r="333.18735"
     fy="710.99164"
     fx="373.24265"
     cy="710.99164"
     cx="373.24265"
     gradientTransform="matrix(0.9503534,1.1750652e-7,-5.6287062e-8,0.3462676,17.334826,362.44227)"
     gradientUnits="userSpaceOnUse"
     id="radialGradient4790-7"
     xlink:href="#linearGradient3157-2"
     inkscape:collect="always" /><radialGradient
     r="333.18735"
     fy="710.99164"
     fx="373.24265"
     cy="710.99164"
     cx="373.24265"
     gradientTransform="matrix(0.9503534,1.1750652e-7,-5.6287062e-8,0.3462676,17.334826,362.44227)"
     gradientUnits="userSpaceOnUse"
     id="radialGradient4779-9"
     xlink:href="#linearGradient3157-2"
     inkscape:collect="always" /><radialGradient
     r="333.18735"
     fy="467.91885"
     fx="373.24265"
     cy="467.91885"
     cx="373.24265"
     gradientTransform="matrix(0.9201975,2.7970099e-7,-2.7059634e-7,0.8902438,28.590287,48.634335)"
     gradientUnits="userSpaceOnUse"
     id="radialGradient4776-5"
     xlink:href="#linearGradient3171-6"
     inkscape:collect="always" /><linearGradient
     y2="254.73526"
     x2="123.47623"
     y1="344.03848"
     x1="123.50603"
     gradientTransform="matrix(2.3189708,0,0,2.0930998,93.115298,-256.84999)"
     gradientUnits="userSpaceOnUse"
     id="linearGradient4773-4"
     xlink:href="#linearGradient3187-1"
     inkscape:collect="always" /><linearGradient
     y2="254.73526"
     x2="123.47623"
     y1="344.03848"
     x1="123.50603"
     gradientTransform="matrix(2.3189708,0,0,2.0930998,93.115298,-256.84999)"
     gradientUnits="userSpaceOnUse"
     id="linearGradient4770-3"
     xlink:href="#linearGradient3187-1"
     inkscape:collect="always" /><radialGradient
     r="333.18735"
     fy="467.91885"
     fx="373.24265"
     cy="467.91885"
     cx="373.24265"
     gradientTransform="matrix(0.9201975,2.7970099e-7,-2.7059634e-7,0.8902438,28.590287,48.634335)"
     gradientUnits="userSpaceOnUse"
     id="radialGradient4768-1"
     xlink:href="#linearGradient3171-6"
     inkscape:collect="always" /><radialGradient
     r="333.18735"
     fy="710.99164"
     fx="373.24265"
     cy="710.99164"
     cx="373.24265"
     gradientTransform="matrix(0.9503534,1.1750652e-7,-5.6287062e-8,0.3462676,17.334826,362.44227)"
     gradientUnits="userSpaceOnUse"
     id="radialGradient4766-2"
     xlink:href="#linearGradient3157-2"
     inkscape:collect="always" /><radialGradient
     r="333.18735"
     fy="710.99164"
     fx="373.24265"
     cy="710.99164"
     cx="373.24265"
     gradientTransform="matrix(0.9503534,1.1750652e-7,-5.6287062e-8,0.3462676,17.334826,362.44227)"
     gradientUnits="userSpaceOnUse"
     id="radialGradient4572-4"
     xlink:href="#linearGradient3157-2"
     inkscape:collect="always" /><radialGradient
     r="333.18735"
     fy="467.91885"
     fx="373.24265"
     cy="467.91885"
     cx="373.24265"
     gradientTransform="matrix(0.9201975,2.7970099e-7,-2.7059634e-7,0.8902438,28.590287,48.634335)"
     gradientUnits="userSpaceOnUse"
     id="radialGradient4569-1"
     xlink:href="#linearGradient3171-6"
     inkscape:collect="always" /><linearGradient
     y2="254.73526"
     x2="123.47623"
     y1="344.03848"
     x1="123.50603"
     gradientTransform="matrix(2.3189708,0,0,2.0930998,93.115298,-256.84999)"
     gradientUnits="userSpaceOnUse"
     id="linearGradient4562-1"
     xlink:href="#linearGradient3187-1"
     inkscape:collect="always" /><linearGradient
     gradientUnits="userSpaceOnUse"
     y2="540.86719"
     x2="360.49777"
     y1="167.50403"
     x1="360.49777"
     id="linearGradient4401-3"
     xlink:href="#linearGradient4395-7"
     inkscape:collect="always" /><linearGradient
     gradientUnits="userSpaceOnUse"
     y2="655.4505"
     x2="396.91168"
     y1="298.59412"
     x1="371.42194"
     id="linearGradient4389-8"
     xlink:href="#linearGradient4383-4"
     inkscape:collect="always" /><inkscape:perspective
     id="perspective3214-7"
     inkscape:persp3d-origin="372.04724 : 350.78739 : 1"
     inkscape:vp_z="744.09448 : 526.18109 : 1"
     inkscape:vp_y="0 : 1000 : 0"
     inkscape:vp_x="0 : 526.18109 : 1"
     sodipodi:type="inkscape:persp3d" /><linearGradient
     id="linearGradient4383-4"><stop
       id="stop4385-2"
       offset="0"
       style="stop-color:#00037f;stop-opacity:1;" /><stop
       id="stop4387-7"
       offset="1"
       style="stop-color:#00037f;stop-opacity:0;" /></linearGradient><linearGradient
     id="linearGradient4395-7"><stop
       id="stop4397-9"
       offset="0"
       style="stop-color:#110084;stop-opacity:1;" /><stop
       id="stop4399-3"
       offset="1"
       style="stop-color:#a695ff;stop-opacity:1;" /></linearGradient><linearGradient
     id="linearGradient3187-1"><stop
       id="stop3189-9"
       offset="0"
       style="stop-color:#ffffff;stop-opacity:0.39622641;" /><stop
       id="stop3191-8"
       offset="1"
       style="stop-color:#000000;stop-opacity:1;" /></linearGradient><linearGradient
     id="linearGradient3171-6"><stop
       style="stop-color:#49bcff;stop-opacity:1;"
       offset="0"
       id="stop3173-5" /><stop
       style="stop-color:#494cdc;stop-opacity:1;"
       offset="1"
       id="stop3175-0" /></linearGradient><linearGradient
     id="linearGradient3157-2"><stop
       id="stop3159-8"
       offset="0"
       style="stop-color:#49bcff;stop-opacity:1;" /><stop
       id="stop3161-6"
       offset="1"
       style="stop-color:#494c96;stop-opacity:1;" /></linearGradient><linearGradient
     id="linearGradient5443-0"><stop
       style="stop-color:#ffffff;stop-opacity:0;"
       offset="0"
       id="stop5445-2" /><stop
       style="stop-color:#000000;stop-opacity:0.33962265;"
       offset="1"
       id="stop5447-4" /></linearGradient><radialGradient
     inkscape:collect="always"
     xlink:href="#linearGradient5443-0"
     id="radialGradient3234"
     gradientUnits="userSpaceOnUse"
     gradientTransform="matrix(0.8612608,1.0093481e-7,-5.1010329e-8,0.29743416,-586.09339,395.79293)"
     cx="373.24265"
     cy="710.99164"
     fx="373.24265"
     fy="710.99164"
     r="333.18735" /><linearGradient
     inkscape:collect="always"
     xlink:href="#linearGradient3187-1"
     id="linearGradient3236"
     gradientUnits="userSpaceOnUse"
     gradientTransform="matrix(2.3189708,0,0,2.0930998,-543.56606,-225.82362)"
     x1="123.50603"
     y1="344.03848"
     x2="123.47623"
     y2="254.73526" /><radialGradient
     inkscape:collect="always"
     xlink:href="#linearGradient5443-0"
     id="radialGradient3238"
     gradientUnits="userSpaceOnUse"
     gradientTransform="matrix(0.83393192,2.4025531e-7,-2.452288e-7,0.76469446,-575.89311,126.3946)"
     cx="373.24265"
     cy="467.91885"
     fx="373.24265"
     fy="467.91885"
     r="333.18735" /><radialGradient
     inkscape:collect="always"
     xlink:href="#linearGradient5443-0"
     id="radialGradient3254"
     gradientUnits="userSpaceOnUse"
     gradientTransform="matrix(0.8612608,1.0093481e-7,-5.1010329e-8,0.29743416,-586.09339,395.79293)"
     cx="373.24265"
     cy="710.99164"
     fx="373.24265"
     fy="710.99164"
     r="333.18735" /><linearGradient
     inkscape:collect="always"
     xlink:href="#linearGradient3187-1"
     id="linearGradient3256"
     gradientUnits="userSpaceOnUse"
     gradientTransform="matrix(2.3189708,0,0,2.0930998,-543.56606,-225.82362)"
     x1="123.50603"
     y1="344.03848"
     x2="123.47623"
     y2="254.73526" /><radialGradient
     inkscape:collect="always"
     xlink:href="#linearGradient5443-0"
     id="radialGradient3258"
     gradientUnits="userSpaceOnUse"
     gradientTransform="matrix(0.83393192,2.4025531e-7,-2.452288e-7,0.76469446,-575.89311,126.3946)"
     cx="373.24265"
     cy="467.91885"
     fx="373.24265"
     fy="467.91885"
     r="333.18735" /><radialGradient
     inkscape:collect="always"
     xlink:href="#linearGradient5443-0"
     id="radialGradient3270"
     gradientUnits="userSpaceOnUse"
     gradientTransform="matrix(0.83535069,2.5391116e-7,-2.4564601e-7,0.80815885,-821.89024,-331.16994)"
     cx="373.24265"
     cy="467.91885"
     fx="373.24265"
     fy="467.91885"
     r="333.18735" /><radialGradient
     inkscape:collect="always"
     xlink:href="#linearGradient5443-0"
     id="radialGradient3274"
     gradientUnits="userSpaceOnUse"
     gradientTransform="matrix(0.86272606,1.0667183e-7,-5.1097113e-8,0.31433999,-832.10787,-46.459305)"
     cx="373.24265"
     cy="710.99164"
     fx="373.24265"
     fy="710.99164"
     r="333.18735" /><linearGradient
     y2="254.73526"
     x2="123.47623"
     y1="344.03848"
     x1="123.50603"
     gradientTransform="matrix(2.3189708,0,0,2.0930998,-543.56606,-225.82362)"
     gradientUnits="userSpaceOnUse"
     id="linearGradient3422"
     xlink:href="#linearGradient3187"
     inkscape:collect="always" /><radialGradient
     r="333.18735"
     fy="710.99164"
     fx="373.24265"
     cy="710.99164"
     cx="373.24265"
     gradientTransform="matrix(0.86272606,1.0667183e-7,-5.1097113e-8,0.31433999,-736.19251,168.72353)"
     gradientUnits="userSpaceOnUse"
     id="radialGradient3416"
     xlink:href="#linearGradient5443"
     inkscape:collect="always" /><radialGradient
     r="333.18735"
     fy="467.91885"
     fx="373.24265"
     cy="467.91885"
     cx="373.24265"
     gradientTransform="matrix(0.83535069,2.5391116e-7,-2.4564601e-7,0.80815885,-725.97492,-115.98714)"
     gradientUnits="userSpaceOnUse"
     id="radialGradient3412"
     xlink:href="#linearGradient5443"
     inkscape:collect="always" /><radialGradient
     r="333.18735"
     fy="467.91885"
     fx="373.24265"
     cy="467.91885"
     cx="373.24265"
     gradientTransform="matrix(0.83393192,2.4025531e-7,-2.452288e-7,0.76469446,-575.89311,126.3946)"
     gradientUnits="userSpaceOnUse"
     id="radialGradient2894"
     xlink:href="#linearGradient5443"
     inkscape:collect="always" /><linearGradient
     y2="254.73526"
     x2="123.47623"
     y1="344.03848"
     x1="123.50603"
     gradientTransform="matrix(2.3189708,0,0,2.0930998,-543.56606,-225.82362)"
     gradientUnits="userSpaceOnUse"
     id="linearGradient2892"
     xlink:href="#linearGradient3187"
     inkscape:collect="always" /><radialGradient
     r="333.18735"
     fy="710.99164"
     fx="373.24265"
     cy="710.99164"
     cx="373.24265"
     gradientTransform="matrix(0.8612608,1.0093481e-7,-5.1010329e-8,0.29743416,-586.09339,395.79293)"
     gradientUnits="userSpaceOnUse"
     id="radialGradient2890"
     xlink:href="#linearGradient5443"
     inkscape:collect="always" /><linearGradient
     id="linearGradient5443-5"><stop
       style="stop-color:#ffffff;stop-opacity:0;"
       offset="0"
       id="stop5445-4" /><stop
       style="stop-color:#000000;stop-opacity:0.33962265;"
       offset="1"
       id="stop5447-3" /></linearGradient><radialGradient
     r="333.18735"
     fy="710.99164"
     fx="373.24265"
     cy="710.99164"
     cx="373.24265"
     gradientTransform="matrix(0.9503534,1.1750652e-7,-5.6287062e-8,0.3462676,317.80591,185.68771)"
     gradientUnits="userSpaceOnUse"
     id="radialGradient4835-3"
     xlink:href="#linearGradient5443-5"
     inkscape:collect="always" /><filter
     color-interpolation-filters="sRGB"
     id="filter5511"
     inkscape:collect="always"><feGaussianBlur
       id="feGaussianBlur5513"
       stdDeviation="3.2374974"
       inkscape:collect="always" /></filter><radialGradient
     r="333.18735"
     fy="710.99164"
     fx="373.24265"
     cy="710.99164"
     cx="373.24265"
     gradientTransform="matrix(0.8612608,1.0093481e-7,-5.1010329e-8,0.29743416,-586.09339,395.79293)"
     gradientUnits="userSpaceOnUse"
     id="radialGradient4835"
     xlink:href="#linearGradient5443"
     inkscape:collect="always" /><radialGradient
     r="333.18735"
     fy="467.91885"
     fx="373.24265"
     cy="467.91885"
     cx="373.24265"
     gradientTransform="matrix(0.83393192,2.4025531e-7,-2.452288e-7,0.76469446,-575.89311,126.3946)"
     gradientUnits="userSpaceOnUse"
     id="radialGradient4832"
     xlink:href="#linearGradient5443"
     inkscape:collect="always" /><linearGradient
     y2="254.73526"
     x2="123.47623"
     y1="344.03848"
     x1="123.50603"
     gradientTransform="matrix(2.3189708,0,0,2.0930998,-543.56606,-225.82362)"
     gradientUnits="userSpaceOnUse"
     id="linearGradient4827"
     xlink:href="#linearGradient3187"
     inkscape:collect="always" /><linearGradient
     y2="254.73526"
     x2="123.47623"
     y1="344.03848"
     x1="123.50603"
     gradientTransform="matrix(2.3189708,0,0,2.0930998,93.115298,-256.84999)"
     gradientUnits="userSpaceOnUse"
     id="linearGradient4824"
     xlink:href="#linearGradient3187"
     inkscape:collect="always" /><radialGradient
     r="333.18735"
     fy="467.91885"
     fx="373.24265"
     cy="467.91885"
     cx="373.24265"
     gradientTransform="matrix(0.9201975,2.7970099e-7,-2.7059634e-7,0.8902438,28.590287,48.634335)"
     gradientUnits="userSpaceOnUse"
     id="radialGradient4822"
     xlink:href="#linearGradient3171"
     inkscape:collect="always" /><radialGradient
     r="333.18735"
     fy="710.99164"
     fx="373.24265"
     cy="710.99164"
     cx="373.24265"
     gradientTransform="matrix(0.9503534,1.1750652e-7,-5.6287062e-8,0.3462676,17.334826,362.44227)"
     gradientUnits="userSpaceOnUse"
     id="radialGradient4820"
     xlink:href="#linearGradient3157"
     inkscape:collect="always" /><radialGradient
     r="333.18735"
     fy="710.99164"
     fx="373.24265"
     cy="710.99164"
     cx="373.24265"
     gradientTransform="matrix(0.9503534,1.1750652e-7,-5.6287062e-8,0.3462676,17.334826,362.44227)"
     gradientUnits="userSpaceOnUse"
     id="radialGradient4805"
     xlink:href="#linearGradient3157"
     inkscape:collect="always" /><radialGradient
     r="333.18735"
     fy="467.91885"
     fx="373.24265"
     cy="467.91885"
     cx="373.24265"
     gradientTransform="matrix(0.9201975,2.7970099e-7,-2.7059634e-7,0.8902438,28.590287,48.634335)"
     gradientUnits="userSpaceOnUse"
     id="radialGradient4802"
     xlink:href="#linearGradient3171"
     inkscape:collect="always" /><linearGradient
     y2="254.73526"
     x2="123.47623"
     y1="344.03848"
     x1="123.50603"
     gradientTransform="matrix(2.3189708,0,0,2.0930998,93.115298,-256.84999)"
     gradientUnits="userSpaceOnUse"
     id="linearGradient4799"
     xlink:href="#linearGradient3187"
     inkscape:collect="always" /><linearGradient
     y2="254.73526"
     x2="123.47623"
     y1="344.03848"
     x1="123.50603"
     gradientTransform="matrix(2.3189708,0,0,2.0930998,93.115298,-256.84999)"
     gradientUnits="userSpaceOnUse"
     id="linearGradient4794"
     xlink:href="#linearGradient3187"
     inkscape:collect="always" /><radialGradient
     r="333.18735"
     fy="467.91885"
     fx="373.24265"
     cy="467.91885"
     cx="373.24265"
     gradientTransform="matrix(0.9201975,2.7970099e-7,-2.7059634e-7,0.8902438,28.590287,48.634335)"
     gradientUnits="userSpaceOnUse"
     id="radialGradient4792"
     xlink:href="#linearGradient3171"
     inkscape:collect="always" /><radialGradient
     r="333.18735"
     fy="710.99164"
     fx="373.24265"
     cy="710.99164"
     cx="373.24265"
     gradientTransform="matrix(0.9503534,1.1750652e-7,-5.6287062e-8,0.3462676,17.334826,362.44227)"
     gradientUnits="userSpaceOnUse"
     id="radialGradient4790"
     xlink:href="#linearGradient3157"
     inkscape:collect="always" /><radialGradient
     r="333.18735"
     fy="710.99164"
     fx="373.24265"
     cy="710.99164"
     cx="373.24265"
     gradientTransform="matrix(0.9503534,1.1750652e-7,-5.6287062e-8,0.3462676,17.334826,362.44227)"
     gradientUnits="userSpaceOnUse"
     id="radialGradient4779"
     xlink:href="#linearGradient3157"
     inkscape:collect="always" /><radialGradient
     r="333.18735"
     fy="467.91885"
     fx="373.24265"
     cy="467.91885"
     cx="373.24265"
     gradientTransform="matrix(0.9201975,2.7970099e-7,-2.7059634e-7,0.8902438,28.590287,48.634335)"
     gradientUnits="userSpaceOnUse"
     id="radialGradient4776"
     xlink:href="#linearGradient3171"
     inkscape:collect="always" /><linearGradient
     y2="254.73526"
     x2="123.47623"
     y1="344.03848"
     x1="123.50603"
     gradientTransform="matrix(2.3189708,0,0,2.0930998,93.115298,-256.84999)"
     gradientUnits="userSpaceOnUse"
     id="linearGradient4773"
     xlink:href="#linearGradient3187"
     inkscape:collect="always" /><linearGradient
     y2="254.73526"
     x2="123.47623"
     y1="344.03848"
     x1="123.50603"
     gradientTransform="matrix(2.3189708,0,0,2.0930998,93.115298,-256.84999)"
     gradientUnits="userSpaceOnUse"
     id="linearGradient4770"
     xlink:href="#linearGradient3187"
     inkscape:collect="always" /><radialGradient
     r="333.18735"
     fy="467.91885"
     fx="373.24265"
     cy="467.91885"
     cx="373.24265"
     gradientTransform="matrix(0.9201975,2.7970099e-7,-2.7059634e-7,0.8902438,28.590287,48.634335)"
     gradientUnits="userSpaceOnUse"
     id="radialGradient4768"
     xlink:href="#linearGradient3171"
     inkscape:collect="always" /><radialGradient
     r="333.18735"
     fy="710.99164"
     fx="373.24265"
     cy="710.99164"
     cx="373.24265"
     gradientTransform="matrix(0.9503534,1.1750652e-7,-5.6287062e-8,0.3462676,17.334826,362.44227)"
     gradientUnits="userSpaceOnUse"
     id="radialGradient4766"
     xlink:href="#linearGradient3157"
     inkscape:collect="always" /><filter
     color-interpolation-filters="sRGB"
     id="filter4659"
     inkscape:collect="always"><feGaussianBlur
       id="feGaussianBlur4661"
       stdDeviation="2.7750933"
       inkscape:collect="always" /></filter><radialGradient
     r="333.18735"
     fy="710.99164"
     fx="373.24265"
     cy="710.99164"
     cx="373.24265"
     gradientTransform="matrix(0.9503534,1.1750652e-7,-5.6287062e-8,0.3462676,17.334826,362.44227)"
     gradientUnits="userSpaceOnUse"
     id="radialGradient4572"
     xlink:href="#linearGradient3157"
     inkscape:collect="always" /><radialGradient
     r="333.18735"
     fy="467.91885"
     fx="373.24265"
     cy="467.91885"
     cx="373.24265"
     gradientTransform="matrix(0.9201975,2.7970099e-7,-2.7059634e-7,0.8902438,28.590287,48.634335)"
     gradientUnits="userSpaceOnUse"
     id="radialGradient4569"
     xlink:href="#linearGradient3171"
     inkscape:collect="always" /><linearGradient
     y2="254.73526"
     x2="123.47623"
     y1="344.03848"
     x1="123.50603"
     gradientTransform="matrix(2.3189708,0,0,2.0930998,93.115298,-256.84999)"
     gradientUnits="userSpaceOnUse"
     id="linearGradient4562"
     xlink:href="#linearGradient3187"
     inkscape:collect="always" /><linearGradient
     gradientUnits="userSpaceOnUse"
     y2="540.86719"
     x2="360.49777"
     y1="167.50403"
     x1="360.49777"
     id="linearGradient4401"
     xlink:href="#linearGradient4395"
     inkscape:collect="always" /><linearGradient
     gradientUnits="userSpaceOnUse"
     y2="655.4505"
     x2="396.91168"
     y1="298.59412"
     x1="371.42194"
     id="linearGradient4389"
     xlink:href="#linearGradient4383"
     inkscape:collect="always" /><inkscape:perspective
     id="perspective3214"
     inkscape:persp3d-origin="372.04724 : 350.78739 : 1"
     inkscape:vp_z="744.09448 : 526.18109 : 1"
     inkscape:vp_y="0 : 1000 : 0"
     inkscape:vp_x="0 : 526.18109 : 1"
     sodipodi:type="inkscape:persp3d" /><linearGradient
     id="linearGradient4383"><stop
       id="stop4385"
       offset="0"
       style="stop-color:#00037f;stop-opacity:1;" /><stop
       id="stop4387"
       offset="1"
       style="stop-color:#00037f;stop-opacity:0;" /></linearGradient><linearGradient
     id="linearGradient4395"><stop
       id="stop4397"
       offset="0"
       style="stop-color:#110084;stop-opacity:1;" /><stop
       id="stop4399"
       offset="1"
       style="stop-color:#a695ff;stop-opacity:1;" /></linearGradient><linearGradient
     id="linearGradient3187"><stop
       id="stop3189"
       offset="0"
       style="stop-color:#ffffff;stop-opacity:0.39622641;" /><stop
       id="stop3191"
       offset="1"
       style="stop-color:#9e9e9e;stop-opacity:1;" /></linearGradient><linearGradient
     id="linearGradient3171"><stop
       style="stop-color:#49bcff;stop-opacity:1;"
       offset="0"
       id="stop3173" /><stop
       style="stop-color:#494cdc;stop-opacity:1;"
       offset="1"
       id="stop3175" /></linearGradient><linearGradient
     id="linearGradient3157"><stop
       id="stop3159"
       offset="0"
       style="stop-color:#49bcff;stop-opacity:1;" /><stop
       id="stop3161"
       offset="1"
       style="stop-color:#494c96;stop-opacity:1;" /></linearGradient><linearGradient
     id="linearGradient5443"><stop
       style="stop-color:#ffffff;stop-opacity:0;"
       offset="0"
       id="stop5445" /><stop
       style="stop-color:#cbcac8;stop-opacity:1;"
       offset="1"
       id="stop5447" /></linearGradient><radialGradient
     inkscape:collect="always"
     xlink:href="#linearGradient5443"
     id="radialGradient3253"
     gradientUnits="userSpaceOnUse"
     gradientTransform="matrix(0.8612608,1.0093481e-7,-5.1010329e-8,0.29743416,-586.09339,395.79293)"
     cx="373.24265"
     cy="710.99164"
     fx="373.24265"
     fy="710.99164"
     r="333.18735" /><linearGradient
     inkscape:collect="always"
     xlink:href="#linearGradient3187"
     id="linearGradient3255"
     gradientUnits="userSpaceOnUse"
     gradientTransform="matrix(2.3189708,0,0,2.0930998,-543.56606,-225.82362)"
     x1="123.50603"
     y1="344.03848"
     x2="123.47623"
     y2="254.73526" /><radialGradient
     inkscape:collect="always"
     xlink:href="#linearGradient5443"
     id="radialGradient3257"
     gradientUnits="userSpaceOnUse"
     gradientTransform="matrix(0.83393192,2.4025531e-7,-2.452288e-7,0.76469446,-575.89311,126.3946)"
     cx="373.24265"
     cy="467.91885"
     fx="373.24265"
     fy="467.91885"
     r="333.18735" /><radialGradient
     inkscape:collect="always"
     xlink:href="#linearGradient5443"
     id="radialGradient3273"
     gradientUnits="userSpaceOnUse"
     gradientTransform="matrix(0.8612608,1.0093481e-7,-5.1010329e-8,0.29743416,-586.09339,395.79293)"
     cx="373.24265"
     cy="710.99164"
     fx="373.24265"
     fy="710.99164"
     r="333.18735" /><linearGradient
     inkscape:collect="always"
     xlink:href="#linearGradient3187"
     id="linearGradient3275"
     gradientUnits="userSpaceOnUse"
     gradientTransform="matrix(2.3189708,0,0,2.0930998,-543.56606,-225.82362)"
     x1="123.50603"
     y1="344.03848"
     x2="123.47623"
     y2="254.73526" /><radialGradient
     inkscape:collect="always"
     xlink:href="#linearGradient5443"
     id="radialGradient3277"
     gradientUnits="userSpaceOnUse"
     gradientTransform="matrix(0.83393192,2.4025531e-7,-2.452288e-7,0.76469446,-575.89311,126.3946)"
     cx="373.24265"
     cy="467.91885"
     fx="373.24265"
     fy="467.91885"
     r="333.18735" /></defs><sodipodi:namedview
   pagecolor="#ffffff"
   bordercolor="#666666"
   borderopacity="1"
   objecttolerance="10"
   gridtolerance="10"
   guidetolerance="10"
   inkscape:pageopacity="0"
   inkscape:pageshadow="2"
   inkscape:window-width="1920"
   inkscape:window-height="1031"
   id="namedview24"
   showgrid="false"
   fit-margin-top="0"
   fit-margin-left="0"
   fit-margin-right="0"
   fit-margin-bottom="0"
   inkscape:zoom="1.1919192"
   inkscape:cx="148.13561"
   inkscape:cy="175"
   inkscape:window-x="-4"
   inkscape:window-y="-4"
   inkscape:window-maximized="1"
   inkscape:current-layer="_x31_" />






<g
   id="g4189"
   transform="translate(-4.0524846e-6,1.5294444e-7)"><g
     transform="translate(589.18636,-87.165827)"
     id="g4448"><rect
       transform="matrix(2.1051501,0,0,2.1051501,-860.18934,-1.2010596)"
       ry="12.45238"
       rx="16.067965"
       y="48.636749"
       x="135.39355"
       height="152.93848"
       width="152.93848"
       id="rect4192"
       style="fill:#cccccc;fill-opacity:1;stroke:none;filter:url(#filter4659)"
       inkscape:export-filename="C:\Documents and Settings\adscro24\Desktop\128.png"
       inkscape:export-xdpi="29.879425"
       inkscape:export-ydpi="29.879425" /><rect
       inkscape:export-ydpi="29.879425"
       inkscape:export-xdpi="29.879425"
       inkscape:export-filename="C:\Documents and Settings\adscro24\Desktop\128.png"
       style="fill:#cbcac8;fill-opacity:1;stroke:none;filter:url(#filter4659)"
       id="rect3279"
       width="152.93848"
       height="152.93848"
       x="135.39355"
       y="48.636749"
       rx="16.067965"
       ry="12.45238"
       transform="matrix(2.1051501,0,0,2.1051501,-860.18934,-1.2010596)" /><rect
       inkscape:export-ydpi="29.879425"
       inkscape:export-xdpi="29.879425"
       inkscape:export-filename="C:\Documents and Settings\adscro24\Desktop\128.png"
       style="opacity:0.61338286;fill:url(#radialGradient4456);fill-opacity:1;stroke:#000000;stroke-width:3.26806188;stroke-miterlimit:4;stroke-opacity:1;stroke-dasharray:none"
       id="rect3155"
       width="321.95847"
       height="321.95844"
       x="-575.16559"
       y="101.18661"
       rx="33.825478"
       ry="26.214128" /><path
       transform="matrix(0.907795,0,0,0.90779498,-173.95283,-177.39738)"
       inkscape:export-ydpi="29.879425"
       inkscape:export-xdpi="29.879425"
       inkscape:export-filename="C:\Documents and Settings\adscro24\Desktop\128.png"
       inkscape:connector-curvature="0"
       style="opacity:0.61338286;fill:url(#linearGradient4458);fill-opacity:1;stroke:none;filter:url(#filter5511)"
       d="m -397.80626,329.07489 c -19.62748,0 -35.44272,12.0976 -35.44272,27.14163 l 0,124.30857 c 29.25482,11.38638 132.70149,11.89599 165.40488,-5.79022 33.32802,-18.02397 127.54379,-68.44264 171.824837,-52.72052 l 0,-65.79783 c 0,-15.04403 -15.798597,-27.14163 -35.426097,-27.14163 l -266.3609,0 z m -35.44272,263.47103 0,42.88373 c 0,1.33144 0.14331,2.63588 0.38253,3.915 -0.11919,-12.81092 -0.25965,-28.88939 -0.38253,-46.79873 z"
       id="rect3177" /><rect
       inkscape:export-ydpi="29.879425"
       inkscape:export-xdpi="29.879425"
       inkscape:export-filename="C:\Documents and Settings\adscro24\Desktop\128.png"
       style="opacity:0.61338286;fill:url(#radialGradient4460);fill-opacity:1;stroke:#ffffff;stroke-width:0.68992418;stroke-linecap:square;stroke-miterlimit:4;stroke-opacity:1;stroke-dasharray:none"
       id="rect3473"
       width="306.12445"
       height="306.12445"
       x="-567.2486"
       y="109.1036"
       rx="32.161926"
       ry="24.924911" /><rect
       inkscape:export-ydpi="29.879425"
       inkscape:export-xdpi="29.879425"
       inkscape:export-filename="C:\Documents and Settings\adscro24\Desktop\128.png"
       style="opacity:0.61338286;fill:#ffffff;fill-opacity:0;stroke:#000000;stroke-width:3.26806188;stroke-miterlimit:4;stroke-opacity:1;stroke-dasharray:none"
       id="rect3155-2"
       width="321.95847"
       height="321.95844"
       x="-575.16559"
       y="101.18661"
       rx="33.825478"
       ry="26.214128" /></g><g
     transform="translate(358.29183,-87.165827)"
     id="LWPOLYLINE_2_-7">
	
		
</g><g
     transform="translate(358.29183,-87.165827)"
     id="LWPOLYLINE_3_-4">
	
		
</g><g
     transform="translate(358.29183,-87.165827)"
     id="LWPOLYLINE_4_-0">
	
		
</g><g
     transform="translate(184.65055,-351.95215)"
     style="fill:#000000;fill-opacity:1;stroke:none"
     id="LWPOLYLINE_6_-7">
	
		
</g><g
     transform="translate(184.65055,-351.95215)"
     style="fill:#000000;fill-opacity:1;stroke:none"
     id="LWPOLYLINE-4">
	
		
</g><g
     transform="translate(184.65055,-351.95215)"
     style="fill:#000000;fill-opacity:1;stroke:none"
     id="LWPOLYLINE_3_-0">
	
		
</g></g><g
   id="g3774"
   transform="matrix(0.48943485,0,0,0.48943485,25.236052,-18.57026)"><g
     style="fill:#000000;fill-opacity:1;stroke:none"
     id="LWPOLYLINE">
	
		<path
   id="path4"
   d="m 62.875,320.5 -2.21875,0.0312 -2.125,0.125 -2.15625,0.15625 -2.03125,0.21875 -1.96875,0.28125 -1.96875,0.34375 -1.875,0.4375 -1.84375,0.46875 -1.78125,0.53125 -1.6875,0.625 -1.65625,0.625 -1.625,0.71875 -1.53125,0.78125 -1.46875,0.8125 -1.4375,0.90625 -1.375,0.96875 -1.34375,0.96875 -1.25,1.0625 -1.21875,1.125 -1.15625,1.15625 -1.125,1.25 -1.03125,1.25 -0.96875,1.3125 -0.90625,1.40625 -0.90625,1.40625 -0.8125,1.5 -0.75,1.53125 -0.71875,1.59375 -0.625,1.625 -0.59375,1.6875 -0.5625,1.71875 -0.4375,1.78125 -0.4375,1.8125 -0.375,1.90625 -0.28125,1.875 -0.28125,2 -0.1875,1.96875 -0.15625,2.0625 -0.0625,2.09375 -0.03125,2.125 0,0.34375 0,0.4375 0,0.5625 0,0.71875 0,0.8125 0,0.96875 0,1.09375 0,1.21875 0,1.25 0,1.375 0,1.46875 0,1.53125 0,1.59375 0,1.65625 0,1.6875 0,1.71875 0,1.78125 0,1.75 0,1.78125 0,1.78125 0,1.75 0,1.78125 0,1.71875 0,1.6875 0,1.65625 0,1.59375 0,1.53125 0,1.4375 0,1.375 0,1.3125 0,1.15625 0,1.125 0,0.96875 0,0.84375 0,0.71875 0,0.53125 0,0.4375 0,0.34375 0.03125,2.9375 0.0625,2.875 0.15625,2.78125 0.1875,2.6875 0.28125,2.625 0.28125,2.5 0.375,2.4375 0.4375,2.375 0.4375,2.25 0.5625,2.21875 0.59375,2.0625 0.625,2.03125 0.71875,1.9375 0.75,1.90625 0.8125,1.75 0.90625,1.71875 0.90625,1.59375 L 27,454.5 l 1.03125,1.46875 1.125,1.40625 1.15625,1.28125 1.21875,1.28125 1.25,1.15625 1.34375,1.09375 1.375,1.0625 1.4375,0.96875 1.46875,0.84375 1.53125,0.875 1.625,0.71875 1.65625,0.65625 1.6875,0.625 1.78125,0.5625 1.84375,0.46875 1.875,0.375 1.96875,0.375 1.96875,0.28125 2.03125,0.1875 2.15625,0.1875 2.125,0.0625 2.21875,0.0625 2.25,-0.0625 2.15625,-0.0625 2.09375,-0.1875 2.0625,-0.1875 2,-0.28125 1.9375,-0.375 1.875,-0.375 1.84375,-0.46875 1.78125,-0.5625 1.6875,-0.625 1.6875,-0.65625 1.59375,-0.71875 1.5625,-0.875 1.46875,-0.84375 1.4375,-0.96875 1.375,-1.0625 1.3125,-1.09375 1.28125,-1.15625 1.1875,-1.28125 1.15625,-1.28125 1.125,-1.40625 1.03125,-1.46875 1,-1.5625 0.90625,-1.59375 0.875,-1.71875 0.8125,-1.78125 0.75,-1.875 0.71875,-1.96875 0.625,-2 0.625,-2.0625 0.5,-2.21875 0.5,-2.25 0.4375,-2.375 0.375,-2.4375 0.28125,-2.5 0.25,-2.625 0.21875,-2.6875 0.125,-2.78125 0.0937,-2.875 0.0312,-2.96875 0,-0.3125 0,-0.4375 0,-0.5625 0,-0.6875 0,-0.84375 0,-1 0,-1.09375 0,-1.15625 0,-1.3125 0,-1.375 0,-1.46875 0,-1.5 0,-1.59375 0,-1.65625 0,-1.71875 0,-1.6875 0,-1.78125 0,-1.78125 0,-1.75 0,-1.78125 0,-1.75 0,-1.78125 0,-1.71875 0,-1.71875 0,-1.625 0,-1.59375 0,-1.53125 0,-1.46875 0,-1.375 0,-1.28125 0,-1.1875 0,-1.09375 0,-0.96875 0,-0.8125 0,-0.71875 0,-0.5625 0,-0.4375 0,-0.34375 -0.0312,-2.125 -0.0937,-2.125 -0.125,-2.03125 -0.21875,-1.96875 -0.25,-2 -0.28125,-1.875 -0.375,-1.90625 -0.4375,-1.8125 -0.5,-1.78125 -0.5,-1.71875 -0.625,-1.6875 -0.625,-1.625 -0.71875,-1.59375 -0.75,-1.53125 -0.8125,-1.5 -0.875,-1.40625 -0.90625,-1.40625 -1,-1.3125 -1.03125,-1.28125 -1.125,-1.21875 -1.15625,-1.15625 -1.1875,-1.125 L 93,329.5 l -1.3125,-0.96875 -1.375,-0.96875 -1.4375,-0.90625 -1.46875,-0.8125 -1.5625,-0.78125 -1.59375,-0.71875 -1.6875,-0.65625 -1.6875,-0.59375 -1.78125,-0.53125 -1.84375,-0.46875 -1.875,-0.4375 -1.9375,-0.34375 -2,-0.28125 -2.0625,-0.21875 -2.09375,-0.15625 -2.15625,-0.125 -2.25,-0.0312 z m -1.03125,15 0.5625,0 0.5,0 0.46875,0 0.5625,0 0.5625,0.0312 0.65625,0.0312 0.65625,0.0625 0.71875,0.0625 0.71875,0.0625 0.78125,0.125 0.78125,0.125 0.8125,0.1875 0.84375,0.1875 0.84375,0.1875 0.875,0.28125 0.875,0.3125 0.875,0.34375 0.875,0.34375 0.9375,0.4375 0.875,0.5 0.875,0.5 0.875,0.59375 0.84375,0.625 0.84375,0.71875 0.84375,0.75 0.8125,0.84375 0.75,0.875 0.78125,0.9375 0.71875,1.0625 0.6875,1.09375 0.65625,1.1875 0.625,1.25 0.53125,1.34375 0.5625,1.4375 0.46875,1.5 0.40625,1.59375 0.375,1.71875 0.3125,1.75 0.21875,1.90625 0.1875,2 0.09375,2.09375 0.03125,2.1875 0,0.375 0,0.4375 0,0.5625 0,0.75 0,0.84375 0,1 0,1.09375 0,1.21875 0,1.34375 0,1.40625 0,1.5 0,1.5625 0,1.65625 0,1.65625 0,1.75 0,1.78125 0,1.78125 0,1.84375 0,1.8125 0,1.8125 0,1.8125 0,1.8125 0,1.78125 0,1.71875 0,1.6875 0,1.65625 0,1.5625 0,1.46875 0,1.4375 0,1.3125 0,1.21875 0,1.15625 0,0.96875 0,0.875 0,0.75 0,0.5625 0,0.4375 0,0.34375 0,2.3125 -0.0625,2.21875 -0.0625,2.125 -0.125,2.0625 -0.125,1.96875 -0.1875,1.90625 -0.21875,1.8125 -0.25,1.71875 -0.28125,1.71875 -0.3125,1.5625 -0.34375,1.53125 -0.375,1.46875 -0.40625,1.40625 -0.4375,1.28125 -0.5,1.28125 -0.5,1.21875 -0.53125,1.09375 -0.59375,1.0625 -0.59375,1.03125 -0.65625,0.90625 -0.65625,0.90625 -0.71875,0.8125 -0.71875,0.78125 -0.75,0.71875 -0.84375,0.6875 -0.8125,0.625 -0.875,0.53125 -0.90625,0.5 -0.9375,0.46875 -0.9375,0.4375 -1.03125,0.375 -1.03125,0.28125 -1.0625,0.3125 -1.09375,0.25 -1.125,0.1875 -1.15625,0.125 -1.1875,0.1875 -1.25,0.0625 -1.25,0.0625 -1.34375,0 -1.28125,0 -1.28125,-0.0625 -1.21875,-0.0625 -1.1875,-0.1875 -1.15625,-0.125 -1.125,-0.1875 -1.09375,-0.25 -1.0625,-0.3125 -1.03125,-0.28125 -1.03125,-0.375 -0.96875,-0.4375 -0.90625,-0.46875 -0.90625,-0.5 -0.875,-0.53125 -0.84375,-0.625 -0.8125,-0.6875 -0.75,-0.71875 -0.75,-0.78125 -0.71875,-0.8125 -0.65625,-0.90625 -0.65625,-0.90625 -0.59375,-1.03125 -0.59375,-1.0625 -0.5,-1.09375 -0.53125,-1.21875 -0.5,-1.28125 L 39.4375,439.3125 39.03125,437.90625 38.625,436.4375 38.3125,434.90625 38,433.34375 37.71875,431.625 l -0.28125,-1.71875 -0.21875,-1.8125 -0.15625,-1.90625 -0.125,-1.96875 -0.125,-2.0625 -0.09375,-2.125 -0.03125,-2.21875 -0.03125,-2.3125 0,-0.34375 0,-0.4375 0,-0.5625 0,-0.75 0,-0.875 0,-0.96875 0,-1.15625 0,-1.21875 0,-1.3125 0,-1.4375 0,-1.46875 0,-1.5625 0,-1.65625 0,-1.6875 0,-1.71875 0,-1.78125 0,-1.8125 0,-1.8125 0,-1.8125 0,-1.8125 0,-1.84375 0,-1.78125 0,-1.78125 0,-1.75 0,-1.65625 0,-1.65625 0,-1.5625 0,-1.5 0,-1.40625 0,-1.34375 0,-1.21875 0,-1.09375 0,-1 0,-0.84375 0,-0.75 0,-0.5625 0,-0.4375 0,-0.375 0.03125,-2.1875 0.125,-2.09375 0.1875,-2 0.21875,-1.90625 0.3125,-1.75 0.375,-1.71875 0.40625,-1.59375 0.46875,-1.5 0.53125,-1.4375 0.5625,-1.34375 0.625,-1.25 0.625,-1.1875 0.71875,-1.09375 0.71875,-1.0625 0.75,-0.9375 0.78125,-0.875 0.78125,-0.84375 0.84375,-0.75 0.84375,-0.71875 0.84375,-0.625 0.90625,-0.59375 0.875,-0.5 0.875,-0.5 0.90625,-0.4375 0.875,-0.34375 0.875,-0.34375 0.90625,-0.3125 0.84375,-0.28125 0.84375,-0.1875 0.84375,-0.1875 0.8125,-0.1875 0.8125,-0.125 0.75,-0.125 0.71875,-0.0625 0.75,-0.0625 0.625,-0.0625 0.65625,-0.0312 0.5625,-0.0312 z"
   style="fill:#000000;fill-opacity:1;stroke:none"
   inkscape:connector-curvature="0" />
</g><g
     style="fill:#000000;fill-opacity:1;stroke:none"
     id="LWPOLYLINE_1_">
	
		
</g><g
     style="fill:#000000;fill-opacity:1;stroke:none"
     id="LWPOLYLINE_2_">
	
		<path
   style="fill:#000000;fill-opacity:1;stroke:none"
   id="path10"
   d="m 156.625,467.998 c 0,-0.123 0,-0.489 0,-0.489 v -0.609 -0.794 -0.976 -1.16 -1.342 -1.526 -1.646 -1.831 -1.893 -2.074 -2.136 -2.197 -2.317 -2.32 -2.44 -2.44 -2.443 -2.502 -2.502 -2.44 -2.44 -2.411 -2.35 -2.317 -2.197 -2.136 -2.045 -1.925 -1.802 -1.646 -1.526 -1.342 -1.189 -0.976 -0.794 -0.612 -0.334 c 0.091,-0.123 0.366,-0.123 0.366,-0.123 h 0.457 0.58 0.762 0.887 1.006 1.159 1.252 1.342 1.465 1.525 1.617 1.679 1.738 1.77 1.831 1.831 1.862 1.86 1.893 1.86 1.831 1.831 1.77 1.738 1.679 1.617 1.526 1.464 1.343 1.251 1.159 1.008 0.885 0.763 0.579 0.458 c 0.274,0 0.366,0 0.366,0 0,-0.275 0,-0.457 0,-0.457 0,-0.243 0,-0.548 0,-0.548 v -0.308 -0.396 -0.396 -0.428 -0.489 -0.486 -0.521 -0.548 -0.58 -0.58 -0.58 -0.609 -0.609 -0.58 -0.609 -0.612 -0.609 -0.58 -0.58 -0.58 -0.548 -0.519 -0.489 -0.457 -0.457 -0.401 -0.366 -0.334 c 0,-0.305 0,-0.551 0,-0.551 0,-0.182 0,-0.334 0,-0.334 -0.092,-0.123 -0.366,-0.123 -0.366,-0.123 h -0.458 -0.579 -0.763 -0.885 -1.008 -1.159 -1.251 -1.343 -1.464 -1.526 -1.617 -1.679 -1.738 -1.77 -1.831 -1.831 -1.86 -1.893 -1.86 -1.862 -1.831 -1.831 -1.77 -1.738 -1.679 -1.617 -1.526 -1.465 -1.342 -1.252 -1.159 -1.006 -0.887 -0.762 -0.58 -0.457 c -0.275,0 -0.366,0 -0.366,0 0,-0.062 0,-0.337 0,-0.337 v -0.396 -0.548 -0.703 -0.823 -0.946 -1.037 -1.16 -1.251 -1.342 -1.436 -1.494 -1.556 -1.588 -1.646 -1.679 -1.708 -1.74 -1.708 -1.74 -1.737 -1.711 -1.676 -1.649 -1.585 -1.559 -1.494 -1.403 -1.342 -1.283 -1.157 -1.04 -0.943 -0.826 -0.7 -0.551 -0.396 c 0,-0.243 0,-0.337 0,-0.337 0.091,0 0.396,0 0.396,0 h 0.459 0.609 0.794 0.946 1.067 1.189 1.312 1.435 1.524 1.617 1.679 1.77 1.831 1.862 1.891 1.953 1.952 1.953 1.983 1.952 1.953 1.893 1.861 1.83 1.771 1.678 1.617 1.526 1.434 1.312 1.19 1.068 0.944 0.764 0.642 0.457 c 0.275,0 0.396,0 0.396,0 0,-0.272 0,-0.457 0,-0.457 0,-0.243 0,-0.548 0,-0.548 v -0.305 -0.398 -0.396 -0.428 -0.489 -0.486 -0.519 -0.551 -0.58 -0.58 -0.58 -0.609 -0.609 -0.58 -0.609 -0.612 -0.609 -0.58 -0.58 -0.58 -0.548 -0.519 -0.489 -0.457 -0.457 -0.398 -0.366 -0.334 c 0,-0.305 0,-0.551 0,-0.551 0,-0.182 0,-0.334 0,-0.334 -0.152,-0.123 -0.519,-0.123 -0.519,-0.123 h -0.61 -0.854 -1.037 -1.251 -1.434 -1.587 -1.74 -1.922 -2.014 -2.167 -2.257 -2.35 -2.411 -2.502 -2.533 -2.593 -2.594 -2.624 -2.623 -2.625 -2.563 -2.562 -2.471 -2.442 -2.35 -2.257 -2.136 -2.045 -1.892 -1.77 -1.588 -1.434 -1.251 -1.037 -0.823 -0.642 -0.366 c -0.122,0.275 -0.122,1.069 -0.122,1.069 v 1.251 1.737 2.168 2.593 2.959 3.296 3.662 3.938 4.21 4.453 4.67 4.852 5.033 5.156 5.279 5.341 5.399 5.432 5.432 5.399 5.341 5.279 5.156 5.004 4.881 4.699 4.456 4.21 3.905 3.662 3.296 2.991 2.561 2.139 1.77 1.28 0.732 c 0.005,0.303 17.489,0.303 17.489,0.303 z"
   stroke-miterlimit="10"
   inkscape:connector-curvature="0" />
</g><g
     style="fill:#000000;fill-opacity:1;stroke:none"
     id="LWPOLYLINE_3_">
	
		<path
   style="fill:#000000;fill-opacity:1;stroke:none"
   id="path13"
   d="m 244.104,467.998 c 0,-0.123 0,-0.489 0,-0.489 v -0.609 -0.794 -0.976 -1.16 -1.342 -1.526 -1.646 -1.831 -1.893 -2.074 -2.136 -2.197 -2.317 -2.32 -2.44 -2.44 -2.443 -2.502 -2.502 -2.44 -2.44 -2.411 -2.35 -2.317 -2.197 -2.136 -2.045 -1.925 -1.802 -1.646 -1.526 -1.342 -1.189 -0.976 -0.794 -0.612 -0.334 c 0.121,-0.123 0.366,-0.123 0.366,-0.123 h 0.457 0.58 0.763 0.885 1.007 1.16 1.251 1.342 1.465 1.526 1.617 1.677 1.74 1.77 1.831 1.83 1.861 1.893 1.86 1.862 1.86 1.8 1.771 1.738 1.678 1.617 1.526 1.465 1.342 1.251 1.16 1.006 0.885 0.764 0.61 0.427 c 0.275,0 0.366,0 0.366,0 0,-0.275 0,-0.457 0,-0.457 0,-0.243 0,-0.548 0,-0.548 v -0.308 -0.396 -0.396 -0.428 -0.489 -0.486 -0.521 -0.548 -0.58 -0.58 -0.58 -0.609 -0.609 -0.58 -0.609 -0.612 -0.609 -0.58 -0.58 -0.58 -0.548 -0.519 -0.489 -0.457 -0.457 -0.401 -0.366 -0.334 c 0,-0.305 0,-0.551 0,-0.551 0,-0.182 0,-0.334 0,-0.334 -0.091,-0.123 -0.366,-0.123 -0.366,-0.123 h -0.427 -0.61 -0.764 -0.885 -1.006 -1.16 -1.251 -1.342 -1.465 -1.526 -1.617 -1.678 -1.738 -1.771 -1.8 -1.86 -1.862 -1.86 -1.893 -1.861 -1.83 -1.831 -1.77 -1.74 -1.677 -1.617 -1.526 -1.465 -1.342 -1.251 -1.16 -1.007 -0.885 -0.763 -0.58 -0.457 c -0.245,0 -0.366,0 -0.366,0 0,-0.062 0,-0.337 0,-0.337 v -0.396 -0.548 -0.703 -0.823 -0.946 -1.037 -1.16 -1.251 -1.342 -1.436 -1.494 -1.556 -1.588 -1.646 -1.679 -1.708 -1.74 -1.708 -1.74 -1.737 -1.711 -1.676 -1.649 -1.585 -1.559 -1.494 -1.403 -1.342 -1.283 -1.157 -1.04 -0.943 -0.826 -0.7 -0.551 -0.396 c 0,-0.243 0,-0.337 0,-0.337 0.121,0 0.396,0 0.396,0 h 0.457 0.642 0.762 0.946 1.068 1.19 1.342 1.403 1.526 1.617 1.708 1.74 1.83 1.861 1.922 1.924 1.952 1.983 1.953 1.952 1.953 1.891 1.862 1.831 1.77 1.679 1.617 1.524 1.435 1.312 1.189 1.067 0.946 0.794 0.609 0.459 c 0.305,0 0.396,0 0.396,0 0,-0.272 0,-0.457 0,-0.457 0,-0.243 0,-0.548 0,-0.548 v -0.305 -0.398 -0.396 -0.428 -0.489 -0.486 -0.519 -0.551 -0.58 -0.58 -0.58 -0.609 -0.609 -0.58 -0.609 -0.612 -0.609 -0.58 -0.58 -0.58 -0.548 -0.519 -0.489 -0.457 -0.457 -0.398 -0.366 -0.334 c 0,-0.305 0,-0.551 0,-0.551 0,-0.182 0,-0.334 0,-0.334 -0.122,-0.123 -0.519,-0.123 -0.519,-0.123 h -0.609 -0.825 -1.067 -1.251 -1.403 -1.617 -1.739 -1.923 -2.013 -2.167 -2.259 -2.318 -2.44 -2.502 -2.533 -2.594 -2.593 -2.625 -2.624 -2.623 -2.563 -2.563 -2.472 -2.44 -2.35 -2.259 -2.136 -2.043 -1.893 -1.739 -1.617 -1.434 -1.221 -1.067 -0.825 -0.609 -0.396 c -0.123,0.275 -0.123,1.069 -0.123,1.069 v 1.251 1.737 2.168 2.593 2.959 3.296 3.662 3.938 4.21 4.453 4.67 4.852 5.033 5.156 5.279 5.341 5.399 5.432 5.432 5.399 5.341 5.279 5.156 5.004 4.881 4.699 4.456 4.21 3.905 3.662 3.296 2.991 2.561 2.139 1.77 1.28 0.732 c 0.002,0.303 17.486,0.303 17.486,0.303 z"
   stroke-miterlimit="10"
   inkscape:connector-curvature="0" />
</g><g
     style="fill:#000000;fill-opacity:1;stroke:none"
     id="LWPOLYLINE_4_">
	
		<path
   style="fill:#000000;fill-opacity:1;stroke:none"
   id="path16"
   d="m 309.097,424.243 -0.062,1.069 -0.122,1.128 -0.062,1.222 -0.062,1.219 v 1.283 1.342 1.403 l 0.062,1.403 0.062,1.465 0.122,1.465 0.183,1.526 0.245,1.523 0.243,1.526 0.306,1.526 0.366,1.585 0.488,1.526 0.487,1.526 0.611,1.526 0.609,1.523 0.732,1.465 0.855,1.465 0.854,1.465 1.037,1.403 1.037,1.345 1.221,1.28 1.281,1.28 1.403,1.222 1.465,1.16 1.587,1.037 1.771,1.037 1.83,0.976 1.954,0.855 2.136,0.732 2.195,0.732 2.381,0.548 2.502,0.551 2.685,0.366 2.809,0.305 2.928,0.182 3.113,0.062 1.708,-0.062 h 1.647 l 1.71,-0.12 1.646,-0.123 1.647,-0.182 1.587,-0.246 1.647,-0.243 1.587,-0.305 1.588,-0.366 1.586,-0.366 1.525,-0.489 1.465,-0.489 1.526,-0.548 1.463,-0.548 1.405,-0.674 1.403,-0.671 1.342,-0.791 1.281,-0.794 1.282,-0.855 1.281,-0.914 1.159,-0.917 1.16,-1.037 1.099,-1.099 1.099,-1.16 0.976,-1.157 0.977,-1.283 0.916,-1.342 0.854,-1.342 0.793,-1.465 0.732,-1.526 0.672,-1.588 0.609,-1.646 0.55,-1.708 0.428,-1.77 0.426,-1.831 0.366,-1.954 0.245,-1.951 0.183,-2.077 0.122,-2.136 0.062,-2.256 -0.122,-3.357 -0.366,-3.173 -0.549,-3.021 -0.732,-2.839 -0.978,-2.684 -1.158,-2.563 -1.282,-2.382 -1.465,-2.256 -1.586,-2.136 -1.71,-2.016 -1.891,-1.922 -1.953,-1.799 -2.014,-1.711 -2.136,-1.646 -2.258,-1.556 -2.259,-1.494 -2.318,-1.436 -2.319,-1.374 -2.38,-1.342 -2.379,-1.28 -2.442,-1.283 -2.318,-1.28 -2.381,-1.251 -2.318,-1.251 -2.258,-1.251 -2.197,-1.251 -2.136,-1.312 -2.074,-1.342 -1.954,-1.345 -1.829,-1.433 -1.77,-1.465 -1.588,-1.556 -1.464,-1.617 -1.281,-1.708 -1.16,-1.77 -0.916,-1.893 -0.792,-2.016 -0.55,-2.104 -0.366,-2.227 -0.123,-2.382 0.062,-1.099 0.062,-1.066 0.061,-1.069 0.183,-1.008 0.184,-0.976 0.183,-0.946 0.245,-0.914 0.305,-0.885 0.306,-0.855 0.366,-0.823 0.366,-0.794 0.427,-0.762 0.428,-0.732 0.487,-0.703 0.488,-0.671 0.549,-0.642 0.55,-0.609 0.61,-0.609 0.55,-0.551 0.671,-0.519 0.61,-0.519 0.671,-0.457 0.671,-0.457 0.732,-0.428 0.671,-0.366 0.732,-0.366 0.794,-0.334 0.732,-0.337 0.793,-0.275 0.794,-0.243 0.792,-0.243 0.794,-0.214 0.794,-0.185 0.854,-0.152 0.792,-0.123 0.855,-0.12 0.854,-0.091 0.792,-0.062 0.855,-0.032 h 0.854 l 1.22,0.032 1.16,0.062 1.099,0.091 1.037,0.152 1.037,0.182 1.037,0.214 0.916,0.246 0.915,0.305 0.916,0.334 0.854,0.366 0.794,0.398 0.793,0.457 0.732,0.457 0.671,0.519 0.672,0.519 0.671,0.58 0.55,0.609 0.61,0.612 0.548,0.671 0.489,0.7 0.488,0.703 0.428,0.762 0.426,0.765 0.366,0.791 0.366,0.826 0.366,0.853 0.305,0.855 0.245,0.914 0.244,0.917 0.243,0.914 0.245,0.979 0.183,0.976 0.122,1.008 0.123,1.005 0.121,1.037 0.122,1.069 0.062,1.066 0.062,1.069 v 1.099 1.128 c 0.305,0 0.549,0 0.549,0 0.243,0 0.609,0 0.609,0 h 0.366 0.428 0.488 0.487 0.55 0.549 0.611 0.671 0.61 0.671 0.671 0.732 0.671 0.732 0.671 0.732 0.673 0.671 0.671 0.671 0.61 0.611 0.549 0.548 0.55 0.428 0.428 0.426 0.307 c 0.305,0 0.487,0 0.487,0 0.305,0 0.366,-2.136 0.366,-2.136 v -2.045 -2.013 l -0.123,-1.954 -0.182,-1.86 -0.244,-1.831 -0.305,-1.77 -0.307,-1.708 -0.426,-1.649 -0.489,-1.617 -0.488,-1.523 -0.549,-1.465 -0.671,-1.436 -0.671,-1.371 -0.732,-1.312 -0.732,-1.251 -0.854,-1.189 -0.855,-1.131 -0.976,-1.099 -0.977,-1.037 -1.037,-0.976 -1.037,-0.946 -1.16,-0.855 -1.159,-0.823 -1.222,-0.762 -1.28,-0.732 -1.343,-0.671 -1.342,-0.612 -1.405,-0.548 -1.463,-0.519 -1.465,-0.457 -1.526,-0.398 -1.587,-0.366 -1.647,-0.334 -1.648,-0.246 -1.708,-0.211 -1.708,-0.185 -1.771,-0.091 -1.83,-0.091 -1.893,-0.032 -1.77,0.032 -1.708,0.091 -1.771,0.091 -1.708,0.185 -1.648,0.211 -1.647,0.246 -1.648,0.305 -1.586,0.366 -1.587,0.396 -1.524,0.46 -1.526,0.486 -1.525,0.551 -1.404,0.609 -1.403,0.642 -1.403,0.671 -1.342,0.762 -1.282,0.794 -1.281,0.823 -1.16,0.885 -1.221,0.946 -1.099,0.976 -1.099,1.037 -1.037,1.069 -0.976,1.16 -0.915,1.157 -0.916,1.254 -0.794,1.28 -0.792,1.342 -0.732,1.374 -0.673,1.433 -0.609,1.497 -0.549,1.523 -0.488,1.588 -0.428,1.617 -0.366,1.708 -0.305,1.74 -0.244,1.77 -0.184,1.831 -0.06,1.893 -0.062,1.951 0.121,3.205 0.366,3.021 0.55,2.868 0.732,2.684 0.977,2.563 1.159,2.411 1.281,2.288 1.465,2.168 1.587,2.042 1.708,1.954 1.893,1.831 1.952,1.737 2.015,1.679 2.136,1.556 2.257,1.526 2.259,1.436 2.319,1.403 2.318,1.342 2.381,1.312 2.379,1.28 2.441,1.251 2.319,1.251 2.38,1.222 2.319,1.251 2.257,1.222 2.197,1.251 2.136,1.28 2.074,1.312 1.953,1.342 1.831,1.403 1.77,1.436 1.586,1.494 1.465,1.588 1.282,1.646 1.16,1.74 0.915,1.831 0.793,1.951 0.549,2.045 0.366,2.136 0.122,2.259 -0.061,1.342 -0.062,1.222 -0.062,1.219 -0.183,1.16 -0.184,1.099 -0.182,1.099 -0.306,1.037 -0.243,1.037 -0.366,0.976 -0.366,0.917 -0.366,0.914 -0.428,0.855 -0.488,0.794 -0.487,0.791 -0.55,0.794 -0.549,0.671 -0.55,0.671 -0.61,0.674 -0.671,0.609 -0.671,0.609 -0.673,0.489 -0.732,0.548 -0.732,0.489 -0.73,0.428 -0.794,0.428 -0.854,0.366 -0.794,0.366 -0.854,0.363 -0.854,0.308 -0.915,0.243 -0.916,0.243 -0.915,0.246 -0.916,0.182 -0.976,0.123 -0.977,0.182 -0.978,0.062 -0.976,0.123 -1.037,0.062 h -0.977 l -1.037,0.059 -0.854,-0.059 h -0.855 l -0.854,-0.062 -0.854,-0.123 -0.854,-0.062 -0.855,-0.182 -0.793,-0.185 -0.854,-0.182 -0.855,-0.185 -0.854,-0.305 -0.792,-0.243 -0.794,-0.305 -0.794,-0.366 -0.793,-0.366 -0.794,-0.428 -0.792,-0.428 -0.732,-0.489 -0.732,-0.548 -0.671,-0.548 -0.732,-0.612 -0.673,-0.609 -0.609,-0.671 -0.61,-0.671 -0.609,-0.794 -0.611,-0.732 -0.487,-0.855 -0.55,-0.853 -0.487,-0.917 -0.428,-0.976 -0.428,-0.976 -0.427,-1.037 -0.306,-1.099 -0.305,-1.16 -0.305,-1.16 -0.245,-1.222 -0.183,-1.28 -0.184,-1.342 -0.121,-1.342 -0.062,-1.406 v -1.523 c 0,-0.246 0,-0.366 0,-0.366 0,-0.305 0,-0.428 0,-0.428 0,-0.243 0,-0.366 0,-0.366 0,-0.275 0,-0.396 0,-0.396 0,-0.275 0,-0.428 0,-0.428 0,-0.275 0,-0.428 0,-0.428 0,-0.243 0,-0.366 0,-0.366 0,-0.243 0,-0.366 0,-0.366 0,-0.275 0,-0.337 0,-0.337 0.002,-0.237 -17.511,-0.237 -17.511,-0.237 z"
   stroke-miterlimit="10"
   inkscape:connector-curvature="0" />
</g><g
     style="fill:#000000;fill-opacity:1;stroke:none"
     id="LWPOLYLINE_5_">
	
		<path
   style="fill:#000000;fill-opacity:1;stroke:none"
   id="path19"
   d="m 495.346,467.998 c 0,-0.243 0,-0.489 0,-0.489 0,-0.243 0,-0.486 0,-0.486 v -0.366 -0.366 -0.428 -0.428 -0.486 -0.489 -0.489 -0.548 -0.551 -0.609 -0.609 -0.551 -0.609 -0.609 -0.612 -0.609 -0.609 -0.609 -0.551 -0.548 -0.551 -0.548 -0.489 -0.489 -0.425 -0.428 -0.366 -0.305 c 0,-0.308 0,-0.551 0,-0.551 0,-0.182 0,-0.305 0,-0.305 -0.123,-0.123 -0.428,-0.123 -0.428,-0.123 h -0.488 -0.671 -0.855 -0.976 -1.16 -1.281 -1.403 -1.525 -1.647 -1.71 -1.829 -1.893 -1.953 -2.014 -2.013 -2.076 -2.136 -2.074 -2.137 -2.074 -2.074 -2.015 -2.014 -1.953 -1.893 -1.829 -1.71 -1.647 -1.525 -1.403 -1.281 -1.16 -0.976 -0.855 -0.671 -0.488 c -0.305,0 -0.428,0 -0.428,0 0,-0.12 0,-0.366 0,-0.366 v -0.486 -0.551 -0.794 -0.853 -1.037 -1.16 -1.222 -1.342 -1.465 -1.526 -1.646 -1.646 -1.77 -1.77 -1.833 -1.831 -1.831 -1.893 -1.86 -1.863 -1.86 -1.799 -1.802 -1.737 -1.649 -1.617 -1.556 -1.436 -1.371 -1.251 -1.131 -1.037 -0.885 -0.732 -0.609 -0.428 c 0,-0.275 0,-0.366 0,-0.366 0.123,0 0.366,0 0.366,0 h 0.489 0.609 0.732 0.916 1.037 1.16 1.342 1.343 1.525 1.526 1.708 1.709 1.77 1.831 1.83 1.893 1.952 1.892 1.893 1.952 1.893 1.83 1.831 1.77 1.709 1.648 1.586 1.525 1.343 1.282 1.22 1.037 0.916 0.732 0.609 0.489 c 0.243,0 0.366,0 0.366,0 0,-0.275 0,-0.457 0,-0.457 0,-0.243 0,-0.548 0,-0.548 v -0.308 -0.396 -0.396 -0.428 -0.489 -0.486 -0.521 -0.548 -0.58 -0.58 -0.58 -0.609 -0.609 -0.58 -0.609 -0.612 -0.609 -0.58 -0.58 -0.58 -0.548 -0.519 -0.489 -0.457 -0.457 -0.401 -0.366 -0.334 c 0,-0.305 0,-0.551 0,-0.551 0,-0.182 0,-0.334 0,-0.334 -0.123,-0.123 -0.366,-0.123 -0.366,-0.123 h -0.489 -0.609 -0.732 -0.916 -1.037 -1.22 -1.282 -1.343 -1.525 -1.586 -1.648 -1.709 -1.77 -1.831 -1.83 -1.893 -1.952 -1.893 -1.892 -1.952 -1.893 -1.83 -1.831 -1.77 -1.709 -1.708 -1.526 -1.525 -1.343 -1.342 -1.16 -1.037 -0.916 -0.732 -0.609 -0.489 c -0.243,0 -0.366,0 -0.366,0 0,-0.062 0,-0.337 0,-0.337 v -0.396 -0.548 -0.703 -0.823 -0.946 -1.037 -1.16 -1.251 -1.342 -1.436 -1.494 -1.556 -1.588 -1.646 -1.679 -1.708 -1.74 -1.708 -1.74 -1.737 -1.711 -1.676 -1.649 -1.585 -1.559 -1.494 -1.403 -1.342 -1.283 -1.157 -1.04 -0.943 -0.826 -0.7 -0.551 -0.396 c 0,-0.243 0,-0.337 0,-0.337 0.123,0 0.428,0 0.428,0 h 0.488 0.61 0.854 0.977 1.099 1.28 1.344 1.524 1.588 1.708 1.77 1.831 1.892 1.954 2.013 2.014 2.076 2.074 2.014 2.074 2.015 2.014 1.953 1.891 1.893 1.77 1.648 1.586 1.525 1.404 1.221 1.158 0.978 0.792 0.673 0.487 c 0.305,0 0.366,0 0.366,0 0,-0.272 0,-0.457 0,-0.457 0,-0.243 0,-0.548 0,-0.548 v -0.305 -0.398 -0.396 -0.428 -0.489 -0.486 -0.519 -0.551 -0.58 -0.58 -0.58 -0.609 -0.609 -0.58 -0.609 -0.612 -0.609 -0.58 -0.58 -0.58 -0.548 -0.519 -0.489 -0.457 -0.457 -0.398 -0.366 -0.334 c 0,-0.305 0,-0.551 0,-0.551 0,-0.182 0,-0.334 0,-0.334 -0.121,-0.123 -0.487,-0.123 -0.487,-0.123 h -0.673 -0.854 -1.099 -1.282 -1.463 -1.648 -1.831 -1.952 -2.136 -2.197 -2.381 -2.38 -2.562 -2.563 -2.623 -2.686 -2.685 -2.747 -2.685 -2.686 -2.685 -2.625 -2.624 -2.502 -2.44 -2.318 -2.259 -2.074 -1.953 -1.831 -1.647 -1.465 -1.342 -1.039 -0.915 -0.609 -0.366 c -0.184,0.275 -0.184,1.069 -0.184,1.069 v 1.251 1.737 2.168 2.593 2.959 3.296 3.662 3.938 4.21 4.453 4.67 4.852 5.033 5.156 5.279 5.341 5.399 5.432 5.432 5.399 5.341 5.279 5.156 5.004 4.881 4.699 4.456 4.21 3.905 3.662 3.296 2.991 2.561 2.139 1.77 1.28 0.732 c -0.004,0.303 73.777,0.303 73.777,0.303 z"
   stroke-miterlimit="10"
   inkscape:connector-curvature="0" />
</g><g
     style="fill:#000000;fill-opacity:1;stroke:none"
     id="LWPOLYLINE_6_">
	
		<path
   style="fill:#000000;fill-opacity:1;stroke:none"
   id="path22"
   d="m 501.569,323.002 c 0,0.275 0,0.457 0,0.457 0,0.246 0,0.551 0,0.551 v 0.334 0.366 0.398 0.457 0.457 0.489 0.519 0.548 0.58 0.58 0.58 0.609 0.612 0.609 0.58 0.609 0.609 0.58 0.58 0.58 0.551 0.519 0.486 0.489 0.428 0.396 0.398 0.305 c 0,0.305 0,0.548 0,0.548 0,0.185 0,0.337 0,0.337 0.305,0.12 0.611,0.12 0.611,0.12 h 0.426 0.611 0.609 0.794 0.854 0.916 1.037 1.099 1.16 1.22 1.221 1.343 1.282 1.403 1.342 1.403 1.404 1.403 1.403 1.403 1.344 1.342 1.281 1.282 1.22 1.16 1.099 0.976 0.978 0.854 0.732 0.671 0.55 0.487 0.307 c 0.305,0.246 0.305,0.917 0.305,0.917 v 1.128 1.556 1.922 2.291 2.622 2.962 3.202 3.51 3.721 3.967 4.151 4.333 4.453 4.579 4.667 4.761 4.79 4.822 4.819 4.822 4.729 4.699 4.547 4.515 4.271 4.151 3.967 3.721 3.539 3.176 2.988 2.625 2.259 1.951 1.526 1.16 0.671 c 0.244,0.243 0.487,0.243 0.487,0.243 0.305,0 0.611,0 0.611,0 h 0.366 0.426 0.489 0.55 0.487 0.609 0.611 0.61 0.671 0.671 0.671 0.673 0.732 0.671 0.732 0.671 0.671 0.732 0.671 0.61 0.611 0.609 0.61 0.55 0.487 0.488 0.428 0.366 0.366 c 0.244,0 0.487,0 0.487,0 0.305,-0.243 0.305,-0.914 0.305,-0.914 v -1.16 -1.526 -1.951 -2.259 -2.625 -2.988 -3.176 -3.539 -3.721 -3.967 -4.151 -4.271 -4.515 -4.547 -4.699 -4.729 -4.822 -4.819 -4.822 -4.79 -4.761 -4.667 -4.579 -4.453 -4.333 -4.151 -3.967 -3.721 -3.51 -3.202 -2.961 -2.622 -2.291 -1.922 -1.556 -1.128 -0.671 c 0.245,-0.246 0.55,-0.246 0.55,-0.246 h 0.428 0.549 0.671 0.732 0.794 0.916 1.037 1.037 1.099 1.158 1.222 1.282 1.28 1.281 1.344 1.342 1.403 1.343 1.344 1.342 1.343 1.28 1.222 1.221 1.158 1.16 1.037 0.978 0.915 0.793 0.794 0.609 0.549 0.428 0.305 c 0.305,-0.272 0.305,-0.457 0.305,-0.457 0,-0.243 0,-0.548 0,-0.548 v -0.305 -0.398 -0.396 -0.428 -0.489 -0.486 -0.519 -0.551 -0.58 -0.58 -0.58 -0.609 -0.609 -0.58 -0.609 -0.612 -0.609 -0.58 -0.58 -0.58 -0.548 -0.519 -0.489 -0.457 -0.457 -0.398 -0.366 -0.334 c 0,-0.305 0,-0.551 0,-0.551 0,-0.182 0,-0.334 0,-0.334 0.002,-0.124 -92.512,-0.124 -92.512,-0.124 z"
   stroke-miterlimit="10"
   inkscape:connector-curvature="0" />
</g></g>
</svg>