<?xml version="1.0" encoding="UTF-8" standalone="no"?>
<!-- Generator: Adobe Illustrator 16.0.1, SVG Export Plug-In . SVG Version: 6.00 Build 0)  -->

<svg
   xmlns:dc="http://purl.org/dc/elements/1.1/"
   xmlns:cc="http://creativecommons.org/ns#"
   xmlns:rdf="http://www.w3.org/1999/02/22-rdf-syntax-ns#"
   xmlns:svg="http://www.w3.org/2000/svg"
   xmlns="http://www.w3.org/2000/svg"
   xmlns:xlink="http://www.w3.org/1999/xlink"
   xmlns:sodipodi="http://sodipodi.sourceforge.net/DTD/sodipodi-0.dtd"
   xmlns:inkscape="http://www.inkscape.org/namespaces/inkscape"
   version="1.0"
   id="_x31_"
   x="0px"
   y="0px"
   width="350"
   height="350"
   viewBox="0 0 350 350"
   enable-background="new 0 0 612 792"
   xml:space="preserve"
   inkscape:version="0.48.2 r9819"
   sodipodi:docname="6071.svg"><metadata
   id="metadata28"><rdf:RDF><cc:Work
       rdf:about=""><dc:format>image/svg+xml</dc:format><dc:type
         rdf:resource="http://purl.org/dc/dcmitype/StillImage" /></cc:Work></rdf:RDF></metadata><defs
   id="defs26"><radialGradient
     r="333.18735"
     fy="467.91885"
     fx="373.24265"
     cy="467.91885"
     cx="373.24265"
     gradientTransform="matrix(0.83535069,2.5391116e-7,-2.4564601e-7,0.80815885,-725.97492,-115.98714)"
     gradientUnits="userSpaceOnUse"
     id="radialGradient4460"
     xlink:href="#linearGradient5443"
     inkscape:collect="always" /><linearGradient
     y2="254.73526"
     x2="123.47623"
     y1="344.03848"
     x1="123.50603"
     gradientTransform="matrix(2.3189708,0,0,2.0930998,-543.56606,-225.82362)"
     gradientUnits="userSpaceOnUse"
     id="linearGradient4458"
     xlink:href="#linearGradient3187"
     inkscape:collect="always" /><radialGradient
     r="333.18735"
     fy="710.99164"
     fx="373.24265"
     cy="710.99164"
     cx="373.24265"
     gradientTransform="matrix(0.86272606,1.0667183e-7,-5.1097113e-8,0.31433999,-736.19251,168.72353)"
     gradientUnits="userSpaceOnUse"
     id="radialGradient4456"
     xlink:href="#linearGradient5443"
     inkscape:collect="always" /><radialGradient
     r="333.18735"
     fy="467.91885"
     fx="373.24265"
     cy="467.91885"
     cx="373.24265"
     gradientTransform="matrix(0.83393192,2.4025531e-7,-2.452288e-7,0.76469446,-575.89311,126.3946)"
     gradientUnits="userSpaceOnUse"
     id="radialGradient2894-5"
     xlink:href="#linearGradient5443-0"
     inkscape:collect="always" /><linearGradient
     y2="254.73526"
     x2="123.47623"
     y1="344.03848"
     x1="123.50603"
     gradientTransform="matrix(2.3189708,0,0,2.0930998,-543.56606,-225.82362)"
     gradientUnits="userSpaceOnUse"
     id="linearGradient2892-2"
     xlink:href="#linearGradient3187-1"
     inkscape:collect="always" /><radialGradient
     r="333.18735"
     fy="710.99164"
     fx="373.24265"
     cy="710.99164"
     cx="373.24265"
     gradientTransform="matrix(0.8612608,1.0093481e-7,-5.1010329e-8,0.29743416,-586.09339,395.79293)"
     gradientUnits="userSpaceOnUse"
     id="radialGradient2890-7"
     xlink:href="#linearGradient5443-0"
     inkscape:collect="always" /><linearGradient
     id="linearGradient5443-5-6"><stop
       style="stop-color:#ffffff;stop-opacity:0;"
       offset="0"
       id="stop5445-4-1" /><stop
       style="stop-color:#000000;stop-opacity:0.33962265;"
       offset="1"
       id="stop5447-3-4" /></linearGradient><radialGradient
     r="333.18735"
     fy="710.99164"
     fx="373.24265"
     cy="710.99164"
     cx="373.24265"
     gradientTransform="matrix(0.9503534,1.1750652e-7,-5.6287062e-8,0.3462676,317.80591,185.68771)"
     gradientUnits="userSpaceOnUse"
     id="radialGradient4835-3-2"
     xlink:href="#linearGradient5443-5-6"
     inkscape:collect="always" /><radialGradient
     r="333.18735"
     fy="710.99164"
     fx="373.24265"
     cy="710.99164"
     cx="373.24265"
     gradientTransform="matrix(0.8612608,1.0093481e-7,-5.1010329e-8,0.29743416,-586.09339,395.79293)"
     gradientUnits="userSpaceOnUse"
     id="radialGradient4835-2"
     xlink:href="#linearGradient5443-0"
     inkscape:collect="always" /><radialGradient
     r="333.18735"
     fy="467.91885"
     fx="373.24265"
     cy="467.91885"
     cx="373.24265"
     gradientTransform="matrix(0.83393192,2.4025531e-7,-2.452288e-7,0.76469446,-575.89311,126.3946)"
     gradientUnits="userSpaceOnUse"
     id="radialGradient4832-1"
     xlink:href="#linearGradient5443-0"
     inkscape:collect="always" /><linearGradient
     y2="254.73526"
     x2="123.47623"
     y1="344.03848"
     x1="123.50603"
     gradientTransform="matrix(2.3189708,0,0,2.0930998,-543.56606,-225.82362)"
     gradientUnits="userSpaceOnUse"
     id="linearGradient4827-6"
     xlink:href="#linearGradient3187-1"
     inkscape:collect="always" /><linearGradient
     y2="254.73526"
     x2="123.47623"
     y1="344.03848"
     x1="123.50603"
     gradientTransform="matrix(2.3189708,0,0,2.0930998,93.115298,-256.84999)"
     gradientUnits="userSpaceOnUse"
     id="linearGradient4824-8"
     xlink:href="#linearGradient3187-1"
     inkscape:collect="always" /><radialGradient
     r="333.18735"
     fy="467.91885"
     fx="373.24265"
     cy="467.91885"
     cx="373.24265"
     gradientTransform="matrix(0.9201975,2.7970099e-7,-2.7059634e-7,0.8902438,28.590287,48.634335)"
     gradientUnits="userSpaceOnUse"
     id="radialGradient4822-5"
     xlink:href="#linearGradient3171-6"
     inkscape:collect="always" /><radialGradient
     r="333.18735"
     fy="710.99164"
     fx="373.24265"
     cy="710.99164"
     cx="373.24265"
     gradientTransform="matrix(0.9503534,1.1750652e-7,-5.6287062e-8,0.3462676,17.334826,362.44227)"
     gradientUnits="userSpaceOnUse"
     id="radialGradient4820-7"
     xlink:href="#linearGradient3157-2"
     inkscape:collect="always" /><radialGradient
     r="333.18735"
     fy="710.99164"
     fx="373.24265"
     cy="710.99164"
     cx="373.24265"
     gradientTransform="matrix(0.9503534,1.1750652e-7,-5.6287062e-8,0.3462676,17.334826,362.44227)"
     gradientUnits="userSpaceOnUse"
     id="radialGradient4805-6"
     xlink:href="#linearGradient3157-2"
     inkscape:collect="always" /><radialGradient
     r="333.18735"
     fy="467.91885"
     fx="373.24265"
     cy="467.91885"
     cx="373.24265"
     gradientTransform="matrix(0.9201975,2.7970099e-7,-2.7059634e-7,0.8902438,28.590287,48.634335)"
     gradientUnits="userSpaceOnUse"
     id="radialGradient4802-1"
     xlink:href="#linearGradient3171-6"
     inkscape:collect="always" /><linearGradient
     y2="254.73526"
     x2="123.47623"
     y1="344.03848"
     x1="123.50603"
     gradientTransform="matrix(2.3189708,0,0,2.0930998,93.115298,-256.84999)"
     gradientUnits="userSpaceOnUse"
     id="linearGradient4799-8"
     xlink:href="#linearGradient3187-1"
     inkscape:collect="always" /><linearGradient
     y2="254.73526"
     x2="123.47623"
     y1="344.03848"
     x1="123.50603"
     gradientTransform="matrix(2.3189708,0,0,2.0930998,93.115298,-256.84999)"
     gradientUnits="userSpaceOnUse"
     id="linearGradient4794-9"
     xlink:href="#linearGradient3187-1"
     inkscape:collect="always" /><radialGradient
     r="333.18735"
     fy="467.91885"
     fx="373.24265"
     cy="467.91885"
     cx="373.24265"
     gradientTransform="matrix(0.9201975,2.7970099e-7,-2.7059634e-7,0.8902438,28.590287,48.634335)"
     gradientUnits="userSpaceOnUse"
     id="radialGradient4792-2"
     xlink:href="#linearGradient3171-6"
     inkscape:collect="always" /><radialGradient
     r="333.18735"
     fy="710.99164"
     fx="373.24265"
     cy="710.99164"
     cx="373.24265"
     gradientTransform="matrix(0.9503534,1.1750652e-7,-5.6287062e-8,0.3462676,17.334826,362.44227)"
     gradientUnits="userSpaceOnUse"
     id="radialGradient4790-7"
     xlink:href="#linearGradient3157-2"
     inkscape:collect="always" /><radialGradient
     r="333.18735"
     fy="710.99164"
     fx="373.24265"
     cy="710.99164"
     cx="373.24265"
     gradientTransform="matrix(0.9503534,1.1750652e-7,-5.6287062e-8,0.3462676,17.334826,362.44227)"
     gradientUnits="userSpaceOnUse"
     id="radialGradient4779-9"
     xlink:href="#linearGradient3157-2"
     inkscape:collect="always" /><radialGradient
     r="333.18735"
     fy="467.91885"
     fx="373.24265"
     cy="467.91885"
     cx="373.24265"
     gradientTransform="matrix(0.9201975,2.7970099e-7,-2.7059634e-7,0.8902438,28.590287,48.634335)"
     gradientUnits="userSpaceOnUse"
     id="radialGradient4776-5"
     xlink:href="#linearGradient3171-6"
     inkscape:collect="always" /><linearGradient
     y2="254.73526"
     x2="123.47623"
     y1="344.03848"
     x1="123.50603"
     gradientTransform="matrix(2.3189708,0,0,2.0930998,93.115298,-256.84999)"
     gradientUnits="userSpaceOnUse"
     id="linearGradient4773-4"
     xlink:href="#linearGradient3187-1"
     inkscape:collect="always" /><linearGradient
     y2="254.73526"
     x2="123.47623"
     y1="344.03848"
     x1="123.50603"
     gradientTransform="matrix(2.3189708,0,0,2.0930998,93.115298,-256.84999)"
     gradientUnits="userSpaceOnUse"
     id="linearGradient4770-3"
     xlink:href="#linearGradient3187-1"
     inkscape:collect="always" /><radialGradient
     r="333.18735"
     fy="467.91885"
     fx="373.24265"
     cy="467.91885"
     cx="373.24265"
     gradientTransform="matrix(0.9201975,2.7970099e-7,-2.7059634e-7,0.8902438,28.590287,48.634335)"
     gradientUnits="userSpaceOnUse"
     id="radialGradient4768-1"
     xlink:href="#linearGradient3171-6"
     inkscape:collect="always" /><radialGradient
     r="333.18735"
     fy="710.99164"
     fx="373.24265"
     cy="710.99164"
     cx="373.24265"
     gradientTransform="matrix(0.9503534,1.1750652e-7,-5.6287062e-8,0.3462676,17.334826,362.44227)"
     gradientUnits="userSpaceOnUse"
     id="radialGradient4766-2"
     xlink:href="#linearGradient3157-2"
     inkscape:collect="always" /><radialGradient
     r="333.18735"
     fy="710.99164"
     fx="373.24265"
     cy="710.99164"
     cx="373.24265"
     gradientTransform="matrix(0.9503534,1.1750652e-7,-5.6287062e-8,0.3462676,17.334826,362.44227)"
     gradientUnits="userSpaceOnUse"
     id="radialGradient4572-4"
     xlink:href="#linearGradient3157-2"
     inkscape:collect="always" /><radialGradient
     r="333.18735"
     fy="467.91885"
     fx="373.24265"
     cy="467.91885"
     cx="373.24265"
     gradientTransform="matrix(0.9201975,2.7970099e-7,-2.7059634e-7,0.8902438,28.590287,48.634335)"
     gradientUnits="userSpaceOnUse"
     id="radialGradient4569-1"
     xlink:href="#linearGradient3171-6"
     inkscape:collect="always" /><linearGradient
     y2="254.73526"
     x2="123.47623"
     y1="344.03848"
     x1="123.50603"
     gradientTransform="matrix(2.3189708,0,0,2.0930998,93.115298,-256.84999)"
     gradientUnits="userSpaceOnUse"
     id="linearGradient4562-1"
     xlink:href="#linearGradient3187-1"
     inkscape:collect="always" /><linearGradient
     gradientUnits="userSpaceOnUse"
     y2="540.86719"
     x2="360.49777"
     y1="167.50403"
     x1="360.49777"
     id="linearGradient4401-3"
     xlink:href="#linearGradient4395-7"
     inkscape:collect="always" /><linearGradient
     gradientUnits="userSpaceOnUse"
     y2="655.4505"
     x2="396.91168"
     y1="298.59412"
     x1="371.42194"
     id="linearGradient4389-8"
     xlink:href="#linearGradient4383-4"
     inkscape:collect="always" /><inkscape:perspective
     id="perspective3214-7"
     inkscape:persp3d-origin="372.04724 : 350.78739 : 1"
     inkscape:vp_z="744.09448 : 526.18109 : 1"
     inkscape:vp_y="0 : 1000 : 0"
     inkscape:vp_x="0 : 526.18109 : 1"
     sodipodi:type="inkscape:persp3d" /><linearGradient
     id="linearGradient4383-4"><stop
       id="stop4385-2"
       offset="0"
       style="stop-color:#00037f;stop-opacity:1;" /><stop
       id="stop4387-7"
       offset="1"
       style="stop-color:#00037f;stop-opacity:0;" /></linearGradient><linearGradient
     id="linearGradient4395-7"><stop
       id="stop4397-9"
       offset="0"
       style="stop-color:#110084;stop-opacity:1;" /><stop
       id="stop4399-3"
       offset="1"
       style="stop-color:#a695ff;stop-opacity:1;" /></linearGradient><linearGradient
     id="linearGradient3187-1"><stop
       id="stop3189-9"
       offset="0"
       style="stop-color:#ffffff;stop-opacity:0.39622641;" /><stop
       id="stop3191-8"
       offset="1"
       style="stop-color:#000000;stop-opacity:1;" /></linearGradient><linearGradient
     id="linearGradient3171-6"><stop
       style="stop-color:#49bcff;stop-opacity:1;"
       offset="0"
       id="stop3173-5" /><stop
       style="stop-color:#494cdc;stop-opacity:1;"
       offset="1"
       id="stop3175-0" /></linearGradient><linearGradient
     id="linearGradient3157-2"><stop
       id="stop3159-8"
       offset="0"
       style="stop-color:#49bcff;stop-opacity:1;" /><stop
       id="stop3161-6"
       offset="1"
       style="stop-color:#494c96;stop-opacity:1;" /></linearGradient><linearGradient
     id="linearGradient5443-0"><stop
       style="stop-color:#ffffff;stop-opacity:0;"
       offset="0"
       id="stop5445-2" /><stop
       style="stop-color:#000000;stop-opacity:0.33962265;"
       offset="1"
       id="stop5447-4" /></linearGradient><radialGradient
     inkscape:collect="always"
     xlink:href="#linearGradient5443-0"
     id="radialGradient3234"
     gradientUnits="userSpaceOnUse"
     gradientTransform="matrix(0.8612608,1.0093481e-7,-5.1010329e-8,0.29743416,-586.09339,395.79293)"
     cx="373.24265"
     cy="710.99164"
     fx="373.24265"
     fy="710.99164"
     r="333.18735" /><linearGradient
     inkscape:collect="always"
     xlink:href="#linearGradient3187-1"
     id="linearGradient3236"
     gradientUnits="userSpaceOnUse"
     gradientTransform="matrix(2.3189708,0,0,2.0930998,-543.56606,-225.82362)"
     x1="123.50603"
     y1="344.03848"
     x2="123.47623"
     y2="254.73526" /><radialGradient
     inkscape:collect="always"
     xlink:href="#linearGradient5443-0"
     id="radialGradient3238"
     gradientUnits="userSpaceOnUse"
     gradientTransform="matrix(0.83393192,2.4025531e-7,-2.452288e-7,0.76469446,-575.89311,126.3946)"
     cx="373.24265"
     cy="467.91885"
     fx="373.24265"
     fy="467.91885"
     r="333.18735" /><radialGradient
     inkscape:collect="always"
     xlink:href="#linearGradient5443-0"
     id="radialGradient3254"
     gradientUnits="userSpaceOnUse"
     gradientTransform="matrix(0.8612608,1.0093481e-7,-5.1010329e-8,0.29743416,-586.09339,395.79293)"
     cx="373.24265"
     cy="710.99164"
     fx="373.24265"
     fy="710.99164"
     r="333.18735" /><linearGradient
     inkscape:collect="always"
     xlink:href="#linearGradient3187-1"
     id="linearGradient3256"
     gradientUnits="userSpaceOnUse"
     gradientTransform="matrix(2.3189708,0,0,2.0930998,-543.56606,-225.82362)"
     x1="123.50603"
     y1="344.03848"
     x2="123.47623"
     y2="254.73526" /><radialGradient
     inkscape:collect="always"
     xlink:href="#linearGradient5443-0"
     id="radialGradient3258"
     gradientUnits="userSpaceOnUse"
     gradientTransform="matrix(0.83393192,2.4025531e-7,-2.452288e-7,0.76469446,-575.89311,126.3946)"
     cx="373.24265"
     cy="467.91885"
     fx="373.24265"
     fy="467.91885"
     r="333.18735" /><radialGradient
     inkscape:collect="always"
     xlink:href="#linearGradient5443-0"
     id="radialGradient3270"
     gradientUnits="userSpaceOnUse"
     gradientTransform="matrix(0.83535069,2.5391116e-7,-2.4564601e-7,0.80815885,-821.89024,-331.16994)"
     cx="373.24265"
     cy="467.91885"
     fx="373.24265"
     fy="467.91885"
     r="333.18735" /><radialGradient
     inkscape:collect="always"
     xlink:href="#linearGradient5443-0"
     id="radialGradient3274"
     gradientUnits="userSpaceOnUse"
     gradientTransform="matrix(0.86272606,1.0667183e-7,-5.1097113e-8,0.31433999,-832.10787,-46.459305)"
     cx="373.24265"
     cy="710.99164"
     fx="373.24265"
     fy="710.99164"
     r="333.18735" /><linearGradient
     y2="254.73526"
     x2="123.47623"
     y1="344.03848"
     x1="123.50603"
     gradientTransform="matrix(2.3189708,0,0,2.0930998,-543.56606,-225.82362)"
     gradientUnits="userSpaceOnUse"
     id="linearGradient3422"
     xlink:href="#linearGradient3187"
     inkscape:collect="always" /><radialGradient
     r="333.18735"
     fy="710.99164"
     fx="373.24265"
     cy="710.99164"
     cx="373.24265"
     gradientTransform="matrix(0.86272606,1.0667183e-7,-5.1097113e-8,0.31433999,-736.19251,168.72353)"
     gradientUnits="userSpaceOnUse"
     id="radialGradient3416"
     xlink:href="#linearGradient5443"
     inkscape:collect="always" /><radialGradient
     r="333.18735"
     fy="467.91885"
     fx="373.24265"
     cy="467.91885"
     cx="373.24265"
     gradientTransform="matrix(0.83535069,2.5391116e-7,-2.4564601e-7,0.80815885,-725.97492,-115.98714)"
     gradientUnits="userSpaceOnUse"
     id="radialGradient3412"
     xlink:href="#linearGradient5443"
     inkscape:collect="always" /><radialGradient
     r="333.18735"
     fy="467.91885"
     fx="373.24265"
     cy="467.91885"
     cx="373.24265"
     gradientTransform="matrix(0.83393192,2.4025531e-7,-2.452288e-7,0.76469446,-575.89311,126.3946)"
     gradientUnits="userSpaceOnUse"
     id="radialGradient2894"
     xlink:href="#linearGradient5443"
     inkscape:collect="always" /><linearGradient
     y2="254.73526"
     x2="123.47623"
     y1="344.03848"
     x1="123.50603"
     gradientTransform="matrix(2.3189708,0,0,2.0930998,-543.56606,-225.82362)"
     gradientUnits="userSpaceOnUse"
     id="linearGradient2892"
     xlink:href="#linearGradient3187"
     inkscape:collect="always" /><radialGradient
     r="333.18735"
     fy="710.99164"
     fx="373.24265"
     cy="710.99164"
     cx="373.24265"
     gradientTransform="matrix(0.8612608,1.0093481e-7,-5.1010329e-8,0.29743416,-586.09339,395.79293)"
     gradientUnits="userSpaceOnUse"
     id="radialGradient2890"
     xlink:href="#linearGradient5443"
     inkscape:collect="always" /><linearGradient
     id="linearGradient5443-5"><stop
       style="stop-color:#ffffff;stop-opacity:0;"
       offset="0"
       id="stop5445-4" /><stop
       style="stop-color:#000000;stop-opacity:0.33962265;"
       offset="1"
       id="stop5447-3" /></linearGradient><radialGradient
     r="333.18735"
     fy="710.99164"
     fx="373.24265"
     cy="710.99164"
     cx="373.24265"
     gradientTransform="matrix(0.9503534,1.1750652e-7,-5.6287062e-8,0.3462676,317.80591,185.68771)"
     gradientUnits="userSpaceOnUse"
     id="radialGradient4835-3"
     xlink:href="#linearGradient5443-5"
     inkscape:collect="always" /><filter
     color-interpolation-filters="sRGB"
     id="filter5511"
     inkscape:collect="always"><feGaussianBlur
       id="feGaussianBlur5513"
       stdDeviation="3.2374974"
       inkscape:collect="always" /></filter><radialGradient
     r="333.18735"
     fy="710.99164"
     fx="373.24265"
     cy="710.99164"
     cx="373.24265"
     gradientTransform="matrix(0.8612608,1.0093481e-7,-5.1010329e-8,0.29743416,-586.09339,395.79293)"
     gradientUnits="userSpaceOnUse"
     id="radialGradient4835"
     xlink:href="#linearGradient5443"
     inkscape:collect="always" /><radialGradient
     r="333.18735"
     fy="467.91885"
     fx="373.24265"
     cy="467.91885"
     cx="373.24265"
     gradientTransform="matrix(0.83393192,2.4025531e-7,-2.452288e-7,0.76469446,-575.89311,126.3946)"
     gradientUnits="userSpaceOnUse"
     id="radialGradient4832"
     xlink:href="#linearGradient5443"
     inkscape:collect="always" /><linearGradient
     y2="254.73526"
     x2="123.47623"
     y1="344.03848"
     x1="123.50603"
     gradientTransform="matrix(2.3189708,0,0,2.0930998,-543.56606,-225.82362)"
     gradientUnits="userSpaceOnUse"
     id="linearGradient4827"
     xlink:href="#linearGradient3187"
     inkscape:collect="always" /><linearGradient
     y2="254.73526"
     x2="123.47623"
     y1="344.03848"
     x1="123.50603"
     gradientTransform="matrix(2.3189708,0,0,2.0930998,93.115298,-256.84999)"
     gradientUnits="userSpaceOnUse"
     id="linearGradient4824"
     xlink:href="#linearGradient3187"
     inkscape:collect="always" /><radialGradient
     r="333.18735"
     fy="467.91885"
     fx="373.24265"
     cy="467.91885"
     cx="373.24265"
     gradientTransform="matrix(0.9201975,2.7970099e-7,-2.7059634e-7,0.8902438,28.590287,48.634335)"
     gradientUnits="userSpaceOnUse"
     id="radialGradient4822"
     xlink:href="#linearGradient3171"
     inkscape:collect="always" /><radialGradient
     r="333.18735"
     fy="710.99164"
     fx="373.24265"
     cy="710.99164"
     cx="373.24265"
     gradientTransform="matrix(0.9503534,1.1750652e-7,-5.6287062e-8,0.3462676,17.334826,362.44227)"
     gradientUnits="userSpaceOnUse"
     id="radialGradient4820"
     xlink:href="#linearGradient3157"
     inkscape:collect="always" /><radialGradient
     r="333.18735"
     fy="710.99164"
     fx="373.24265"
     cy="710.99164"
     cx="373.24265"
     gradientTransform="matrix(0.9503534,1.1750652e-7,-5.6287062e-8,0.3462676,17.334826,362.44227)"
     gradientUnits="userSpaceOnUse"
     id="radialGradient4805"
     xlink:href="#linearGradient3157"
     inkscape:collect="always" /><radialGradient
     r="333.18735"
     fy="467.91885"
     fx="373.24265"
     cy="467.91885"
     cx="373.24265"
     gradientTransform="matrix(0.9201975,2.7970099e-7,-2.7059634e-7,0.8902438,28.590287,48.634335)"
     gradientUnits="userSpaceOnUse"
     id="radialGradient4802"
     xlink:href="#linearGradient3171"
     inkscape:collect="always" /><linearGradient
     y2="254.73526"
     x2="123.47623"
     y1="344.03848"
     x1="123.50603"
     gradientTransform="matrix(2.3189708,0,0,2.0930998,93.115298,-256.84999)"
     gradientUnits="userSpaceOnUse"
     id="linearGradient4799"
     xlink:href="#linearGradient3187"
     inkscape:collect="always" /><linearGradient
     y2="254.73526"
     x2="123.47623"
     y1="344.03848"
     x1="123.50603"
     gradientTransform="matrix(2.3189708,0,0,2.0930998,93.115298,-256.84999)"
     gradientUnits="userSpaceOnUse"
     id="linearGradient4794"
     xlink:href="#linearGradient3187"
     inkscape:collect="always" /><radialGradient
     r="333.18735"
     fy="467.91885"
     fx="373.24265"
     cy="467.91885"
     cx="373.24265"
     gradientTransform="matrix(0.9201975,2.7970099e-7,-2.7059634e-7,0.8902438,28.590287,48.634335)"
     gradientUnits="userSpaceOnUse"
     id="radialGradient4792"
     xlink:href="#linearGradient3171"
     inkscape:collect="always" /><radialGradient
     r="333.18735"
     fy="710.99164"
     fx="373.24265"
     cy="710.99164"
     cx="373.24265"
     gradientTransform="matrix(0.9503534,1.1750652e-7,-5.6287062e-8,0.3462676,17.334826,362.44227)"
     gradientUnits="userSpaceOnUse"
     id="radialGradient4790"
     xlink:href="#linearGradient3157"
     inkscape:collect="always" /><radialGradient
     r="333.18735"
     fy="710.99164"
     fx="373.24265"
     cy="710.99164"
     cx="373.24265"
     gradientTransform="matrix(0.9503534,1.1750652e-7,-5.6287062e-8,0.3462676,17.334826,362.44227)"
     gradientUnits="userSpaceOnUse"
     id="radialGradient4779"
     xlink:href="#linearGradient3157"
     inkscape:collect="always" /><radialGradient
     r="333.18735"
     fy="467.91885"
     fx="373.24265"
     cy="467.91885"
     cx="373.24265"
     gradientTransform="matrix(0.9201975,2.7970099e-7,-2.7059634e-7,0.8902438,28.590287,48.634335)"
     gradientUnits="userSpaceOnUse"
     id="radialGradient4776"
     xlink:href="#linearGradient3171"
     inkscape:collect="always" /><linearGradient
     y2="254.73526"
     x2="123.47623"
     y1="344.03848"
     x1="123.50603"
     gradientTransform="matrix(2.3189708,0,0,2.0930998,93.115298,-256.84999)"
     gradientUnits="userSpaceOnUse"
     id="linearGradient4773"
     xlink:href="#linearGradient3187"
     inkscape:collect="always" /><linearGradient
     y2="254.73526"
     x2="123.47623"
     y1="344.03848"
     x1="123.50603"
     gradientTransform="matrix(2.3189708,0,0,2.0930998,93.115298,-256.84999)"
     gradientUnits="userSpaceOnUse"
     id="linearGradient4770"
     xlink:href="#linearGradient3187"
     inkscape:collect="always" /><radialGradient
     r="333.18735"
     fy="467.91885"
     fx="373.24265"
     cy="467.91885"
     cx="373.24265"
     gradientTransform="matrix(0.9201975,2.7970099e-7,-2.7059634e-7,0.8902438,28.590287,48.634335)"
     gradientUnits="userSpaceOnUse"
     id="radialGradient4768"
     xlink:href="#linearGradient3171"
     inkscape:collect="always" /><radialGradient
     r="333.18735"
     fy="710.99164"
     fx="373.24265"
     cy="710.99164"
     cx="373.24265"
     gradientTransform="matrix(0.9503534,1.1750652e-7,-5.6287062e-8,0.3462676,17.334826,362.44227)"
     gradientUnits="userSpaceOnUse"
     id="radialGradient4766"
     xlink:href="#linearGradient3157"
     inkscape:collect="always" /><filter
     color-interpolation-filters="sRGB"
     id="filter4659"
     inkscape:collect="always"><feGaussianBlur
       id="feGaussianBlur4661"
       stdDeviation="2.7750933"
       inkscape:collect="always" /></filter><radialGradient
     r="333.18735"
     fy="710.99164"
     fx="373.24265"
     cy="710.99164"
     cx="373.24265"
     gradientTransform="matrix(0.9503534,1.1750652e-7,-5.6287062e-8,0.3462676,17.334826,362.44227)"
     gradientUnits="userSpaceOnUse"
     id="radialGradient4572"
     xlink:href="#linearGradient3157"
     inkscape:collect="always" /><radialGradient
     r="333.18735"
     fy="467.91885"
     fx="373.24265"
     cy="467.91885"
     cx="373.24265"
     gradientTransform="matrix(0.9201975,2.7970099e-7,-2.7059634e-7,0.8902438,28.590287,48.634335)"
     gradientUnits="userSpaceOnUse"
     id="radialGradient4569"
     xlink:href="#linearGradient3171"
     inkscape:collect="always" /><linearGradient
     y2="254.73526"
     x2="123.47623"
     y1="344.03848"
     x1="123.50603"
     gradientTransform="matrix(2.3189708,0,0,2.0930998,93.115298,-256.84999)"
     gradientUnits="userSpaceOnUse"
     id="linearGradient4562"
     xlink:href="#linearGradient3187"
     inkscape:collect="always" /><linearGradient
     gradientUnits="userSpaceOnUse"
     y2="540.86719"
     x2="360.49777"
     y1="167.50403"
     x1="360.49777"
     id="linearGradient4401"
     xlink:href="#linearGradient4395"
     inkscape:collect="always" /><linearGradient
     gradientUnits="userSpaceOnUse"
     y2="655.4505"
     x2="396.91168"
     y1="298.59412"
     x1="371.42194"
     id="linearGradient4389"
     xlink:href="#linearGradient4383"
     inkscape:collect="always" /><inkscape:perspective
     id="perspective3214"
     inkscape:persp3d-origin="372.04724 : 350.78739 : 1"
     inkscape:vp_z="744.09448 : 526.18109 : 1"
     inkscape:vp_y="0 : 1000 : 0"
     inkscape:vp_x="0 : 526.18109 : 1"
     sodipodi:type="inkscape:persp3d" /><linearGradient
     id="linearGradient4383"><stop
       id="stop4385"
       offset="0"
       style="stop-color:#00037f;stop-opacity:1;" /><stop
       id="stop4387"
       offset="1"
       style="stop-color:#00037f;stop-opacity:0;" /></linearGradient><linearGradient
     id="linearGradient4395"><stop
       id="stop4397"
       offset="0"
       style="stop-color:#110084;stop-opacity:1;" /><stop
       id="stop4399"
       offset="1"
       style="stop-color:#a695ff;stop-opacity:1;" /></linearGradient><linearGradient
     id="linearGradient3187"><stop
       id="stop3189"
       offset="0"
       style="stop-color:#ffffff;stop-opacity:0.39622641;" /><stop
       id="stop3191"
       offset="1"
       style="stop-color:#9e9e9e;stop-opacity:1;" /></linearGradient><linearGradient
     id="linearGradient3171"><stop
       style="stop-color:#49bcff;stop-opacity:1;"
       offset="0"
       id="stop3173" /><stop
       style="stop-color:#494cdc;stop-opacity:1;"
       offset="1"
       id="stop3175" /></linearGradient><linearGradient
     id="linearGradient3157"><stop
       id="stop3159"
       offset="0"
       style="stop-color:#49bcff;stop-opacity:1;" /><stop
       id="stop3161"
       offset="1"
       style="stop-color:#494c96;stop-opacity:1;" /></linearGradient><linearGradient
     id="linearGradient5443"><stop
       style="stop-color:#ffffff;stop-opacity:0;"
       offset="0"
       id="stop5445" /><stop
       style="stop-color:#cbcac8;stop-opacity:1;"
       offset="1"
       id="stop5447" /></linearGradient><radialGradient
     inkscape:collect="always"
     xlink:href="#linearGradient5443"
     id="radialGradient3253"
     gradientUnits="userSpaceOnUse"
     gradientTransform="matrix(0.8612608,1.0093481e-7,-5.1010329e-8,0.29743416,-586.09339,395.79293)"
     cx="373.24265"
     cy="710.99164"
     fx="373.24265"
     fy="710.99164"
     r="333.18735" /><linearGradient
     inkscape:collect="always"
     xlink:href="#linearGradient3187"
     id="linearGradient3255"
     gradientUnits="userSpaceOnUse"
     gradientTransform="matrix(2.3189708,0,0,2.0930998,-543.56606,-225.82362)"
     x1="123.50603"
     y1="344.03848"
     x2="123.47623"
     y2="254.73526" /><radialGradient
     inkscape:collect="always"
     xlink:href="#linearGradient5443"
     id="radialGradient3257"
     gradientUnits="userSpaceOnUse"
     gradientTransform="matrix(0.83393192,2.4025531e-7,-2.452288e-7,0.76469446,-575.89311,126.3946)"
     cx="373.24265"
     cy="467.91885"
     fx="373.24265"
     fy="467.91885"
     r="333.18735" /><radialGradient
     inkscape:collect="always"
     xlink:href="#linearGradient5443"
     id="radialGradient3273"
     gradientUnits="userSpaceOnUse"
     gradientTransform="matrix(0.8612608,1.0093481e-7,-5.1010329e-8,0.29743416,-586.09339,395.79293)"
     cx="373.24265"
     cy="710.99164"
     fx="373.24265"
     fy="710.99164"
     r="333.18735" /><linearGradient
     inkscape:collect="always"
     xlink:href="#linearGradient3187"
     id="linearGradient3275"
     gradientUnits="userSpaceOnUse"
     gradientTransform="matrix(2.3189708,0,0,2.0930998,-543.56606,-225.82362)"
     x1="123.50603"
     y1="344.03848"
     x2="123.47623"
     y2="254.73526" /><radialGradient
     inkscape:collect="always"
     xlink:href="#linearGradient5443"
     id="radialGradient3277"
     gradientUnits="userSpaceOnUse"
     gradientTransform="matrix(0.83393192,2.4025531e-7,-2.452288e-7,0.76469446,-575.89311,126.3946)"
     cx="373.24265"
     cy="467.91885"
     fx="373.24265"
     fy="467.91885"
     r="333.18735" /></defs><sodipodi:namedview
   pagecolor="#ffffff"
   bordercolor="#666666"
   borderopacity="1"
   objecttolerance="10"
   gridtolerance="10"
   guidetolerance="10"
   inkscape:pageopacity="0"
   inkscape:pageshadow="2"
   inkscape:window-width="1920"
   inkscape:window-height="1068"
   id="namedview24"
   showgrid="false"
   inkscape:zoom="2.3838384"
   inkscape:cx="218.84028"
   inkscape:cy="174.99999"
   inkscape:window-x="0"
   inkscape:window-y="0"
   inkscape:window-maximized="1"
   inkscape:current-layer="_x31_"
   fit-margin-top="0"
   fit-margin-left="0"
   fit-margin-right="0"
   fit-margin-bottom="0" />






<g
   id="g4189"
   transform="translate(-4.0524846e-6,1.5294449e-7)"><g
     transform="translate(589.18636,-87.165827)"
     id="g4448"><rect
       transform="matrix(2.1051501,0,0,2.1051501,-860.18934,-1.2010596)"
       ry="12.45238"
       rx="16.067965"
       y="48.636749"
       x="135.39355"
       height="152.93848"
       width="152.93848"
       id="rect4192"
       style="fill:#cccccc;fill-opacity:1;stroke:none;filter:url(#filter4659)"
       inkscape:export-filename="C:\Documents and Settings\adscro24\Desktop\128.png"
       inkscape:export-xdpi="29.879425"
       inkscape:export-ydpi="29.879425" /><rect
       inkscape:export-ydpi="29.879425"
       inkscape:export-xdpi="29.879425"
       inkscape:export-filename="C:\Documents and Settings\adscro24\Desktop\128.png"
       style="fill:#cbcac8;fill-opacity:1;stroke:none;filter:url(#filter4659)"
       id="rect3279"
       width="152.93848"
       height="152.93848"
       x="135.39355"
       y="48.636749"
       rx="16.067965"
       ry="12.45238"
       transform="matrix(2.1051501,0,0,2.1051501,-860.18934,-1.2010596)" /><rect
       inkscape:export-ydpi="29.879425"
       inkscape:export-xdpi="29.879425"
       inkscape:export-filename="C:\Documents and Settings\adscro24\Desktop\128.png"
       style="opacity:0.61338286;fill:url(#radialGradient4456);fill-opacity:1;stroke:#000000;stroke-width:3.26806188;stroke-miterlimit:4;stroke-opacity:1;stroke-dasharray:none"
       id="rect3155"
       width="321.95847"
       height="321.95844"
       x="-575.16559"
       y="101.18661"
       rx="33.825478"
       ry="26.214128" /><path
       transform="matrix(0.907795,0,0,0.90779498,-173.95283,-177.39738)"
       inkscape:export-ydpi="29.879425"
       inkscape:export-xdpi="29.879425"
       inkscape:export-filename="C:\Documents and Settings\adscro24\Desktop\128.png"
       inkscape:connector-curvature="0"
       style="opacity:0.61338286;fill:url(#linearGradient4458);fill-opacity:1;stroke:none;filter:url(#filter5511)"
       d="m -397.80626,329.07489 c -19.62748,0 -35.44272,12.0976 -35.44272,27.14163 l 0,124.30857 c 29.25482,11.38638 132.70149,11.89599 165.40488,-5.79022 33.32802,-18.02397 127.54379,-68.44264 171.824837,-52.72052 l 0,-65.79783 c 0,-15.04403 -15.798597,-27.14163 -35.426097,-27.14163 l -266.3609,0 z m -35.44272,263.47103 0,42.88373 c 0,1.33144 0.14331,2.63588 0.38253,3.915 -0.11919,-12.81092 -0.25965,-28.88939 -0.38253,-46.79873 z"
       id="rect3177" /><rect
       inkscape:export-ydpi="29.879425"
       inkscape:export-xdpi="29.879425"
       inkscape:export-filename="C:\Documents and Settings\adscro24\Desktop\128.png"
       style="opacity:0.61338286;fill:url(#radialGradient4460);fill-opacity:1;stroke:#ffffff;stroke-width:0.68992418;stroke-linecap:square;stroke-miterlimit:4;stroke-opacity:1;stroke-dasharray:none"
       id="rect3473"
       width="306.12445"
       height="306.12445"
       x="-567.2486"
       y="109.1036"
       rx="32.161926"
       ry="24.924911" /><rect
       inkscape:export-ydpi="29.879425"
       inkscape:export-xdpi="29.879425"
       inkscape:export-filename="C:\Documents and Settings\adscro24\Desktop\128.png"
       style="opacity:0.61338286;fill:#ffffff;fill-opacity:0;stroke:#000000;stroke-width:3.26806188;stroke-miterlimit:4;stroke-opacity:1;stroke-dasharray:none"
       id="rect3155-2"
       width="321.95847"
       height="321.95844"
       x="-575.16559"
       y="101.18661"
       rx="33.825478"
       ry="26.214128" /></g><g
     transform="translate(358.29183,-87.165827)"
     id="LWPOLYLINE_2_-7">
	
		
</g><g
     transform="translate(358.29183,-87.165827)"
     id="LWPOLYLINE_3_-4">
	
		
</g><g
     transform="translate(358.29183,-87.165827)"
     id="LWPOLYLINE_4_-0">
	
		
</g><g
     transform="translate(184.65055,-351.95215)"
     style="fill:#000000;fill-opacity:1;stroke:none"
     id="LWPOLYLINE_6_-7">
	
		
</g><g
     transform="translate(184.65055,-351.95215)"
     style="fill:#000000;fill-opacity:1;stroke:none"
     id="LWPOLYLINE-4">
	
		
</g><g
     transform="translate(184.65055,-351.95215)"
     style="fill:#000000;fill-opacity:1;stroke:none"
     id="LWPOLYLINE_3_-0">
	
		
</g></g><g
   id="g3774"
   transform="matrix(0.62333804,0,0,0.62333804,-16.046564,-71.53051)"><g
     style="fill:#000000;fill-opacity:1;stroke:none"
     id="LWPOLYLINE">
	
		<path
   style="fill:#000000;fill-opacity:1;stroke:none"
   id="path4"
   d="m 135.292,373.836 0.103,-1.424 0.081,-1.383 0.04,-1.342 v -1.303 l -0.04,-1.262 -0.062,-1.24 -0.102,-1.201 -0.143,-1.158 -0.162,-1.119 -0.224,-1.078 -0.244,-1.059 -0.265,-0.996 -0.325,-0.977 -0.347,-0.936 -0.406,-0.916 -0.407,-0.854 -0.468,-0.834 -0.509,-0.793 -0.528,-0.754 -0.59,-0.732 -0.61,-0.67 -0.651,-0.65 -0.671,-0.611 -0.732,-0.59 -0.772,-0.529 -0.794,-0.508 -0.834,-0.469 -0.895,-0.447 -0.916,-0.387 -0.956,-0.365 -0.996,-0.346 -1.038,-0.285 -1.058,-0.264 -1.119,-0.225 -1.159,-0.184 -1.2,-0.162 -1.221,-0.123 -1.281,-0.08 -1.322,-0.061 -1.343,-0.021 -1.424,0.021 -1.403,0.039 -1.363,0.082 -1.322,0.102 -1.321,0.143 -1.282,0.162 -1.24,0.205 -1.2,0.242 -1.2,0.285 -1.14,0.307 -1.118,0.365 -1.099,0.387 -1.058,0.447 -1.018,0.469 -0.997,0.527 -0.956,0.57 -0.915,0.609 -0.875,0.672 -0.854,0.691 -0.814,0.773 -0.772,0.793 -0.753,0.855 -0.712,0.914 -0.651,0.957 -0.65,1.018 -0.59,1.078 -0.55,1.139 -0.508,1.18 -0.488,1.24 -0.428,1.303 -0.406,1.383 -0.346,1.424 -0.326,1.484 -0.284,1.566 -0.224,1.607 -0.204,1.688 -0.142,1.75 -0.103,1.83 -0.081,1.893 -0.021,1.973 c 0,0.203 0,0.428 0,0.428 v 0.346 0.406 0.488 0.551 0.629 0.693 0.752 0.793 0.854 0.875 0.936 0.938 0.996 0.996 1.018 1.018 1.037 1.018 1.037 0.996 1.018 0.977 0.955 0.916 0.895 0.834 0.793 0.754 0.691 0.631 0.549 0.488 0.428 0.324 0.244 c 0,0.184 0.041,2.93 0.041,2.93 l 0.102,2.623 0.163,2.463 0.224,2.359 0.284,2.236 0.347,2.117 0.406,1.951 0.447,1.912 0.488,1.75 0.55,1.668 0.59,1.547 0.65,1.465 0.672,1.342 0.712,1.262 0.752,1.18 0.773,1.057 0.813,1.018 0.854,0.936 0.875,0.814 0.895,0.773 0.916,0.732 0.936,0.609 0.956,0.57 0.956,0.527 0.977,0.449 0.996,0.406 0.997,0.324 0.997,0.326 1.017,0.244 1.018,0.203 0.996,0.203 0.997,0.123 0.997,0.121 0.996,0.082 0.977,0.082 0.956,0.039 0.956,0.041 0.936,0.041 h 0.896 0.895 0.529 0.569 l 0.631,-0.041 h 0.65 l 0.713,-0.041 0.731,-0.039 0.773,-0.041 0.813,-0.082 0.834,-0.121 0.854,-0.123 0.875,-0.162 0.874,-0.203 0.916,-0.203 0.895,-0.285 0.916,-0.285 0.936,-0.367 0.915,-0.365 0.915,-0.447 0.896,-0.488 0.915,-0.57 0.875,-0.609 0.875,-0.65 0.834,-0.732 0.813,-0.814 0.793,-0.854 0.773,-0.936 0.732,-1.018 0.691,-1.1 0.631,-1.18 0.61,-1.26 0.569,-1.344 0.509,-1.424 0.447,-1.545 0.387,-1.629 0.346,-1.707 0.264,-1.832 0.204,-1.912 0.122,-2.033 0.061,-2.156 -0.021,-2.238 c -0.203,0 -0.366,0 -0.366,0 -0.183,0 -0.406,0 -0.406,0 h -0.244 -0.285 -0.325 -0.325 -0.366 -0.387 -0.407 -0.406 -0.447 -0.448 -0.447 -0.468 -0.468 -0.468 -0.468 -0.448 -0.468 -0.468 -0.427 -0.447 -0.407 -0.407 -0.386 -0.366 -0.326 -0.325 -0.284 -0.244 H 125 c -0.203,0 -0.346,0 -0.346,0 -0.203,0 -0.224,1.404 -0.224,1.404 l -0.061,1.361 -0.082,1.262 -0.142,1.221 -0.163,1.139 -0.203,1.1 -0.225,1.057 -0.264,0.977 -0.285,0.936 -0.305,0.896 -0.346,0.812 -0.347,0.773 -0.386,0.732 -0.407,0.691 -0.407,0.65 -0.427,0.611 -0.447,0.529 -0.468,0.527 -0.465,0.49 -0.488,0.447 -0.488,0.408 -0.488,0.365 -0.488,0.326 -0.509,0.285 -0.509,0.283 -0.488,0.244 -0.508,0.244 -0.509,0.164 -0.488,0.203 -0.468,0.121 -0.488,0.123 -0.468,0.121 -0.447,0.082 -0.448,0.082 -0.427,0.039 -0.407,0.041 -0.386,0.041 -0.366,0.041 h -0.346 -0.326 -0.691 l -0.671,-0.041 -0.672,-0.041 -0.65,-0.041 -0.672,-0.08 -0.63,-0.082 -0.631,-0.121 -0.631,-0.123 -0.61,-0.162 -0.61,-0.203 -0.59,-0.203 -0.59,-0.244 -0.569,-0.285 -0.549,-0.326 -0.529,-0.324 -0.529,-0.367 -0.508,-0.447 -0.488,-0.447 -0.488,-0.488 -0.468,-0.57 -0.428,-0.568 -0.427,-0.611 -0.407,-0.691 -0.406,-0.732 -0.366,-0.773 -0.346,-0.812 -0.326,-0.896 -0.305,-0.936 -0.305,-0.977 -0.265,-1.057 -0.244,-1.1 -0.204,-1.18 -0.203,-1.219 -0.162,-1.303 -0.163,-1.383 -0.102,-1.404 -0.102,-1.506 -0.082,-1.566 -0.04,-1.627 v -1.729 c 0,-0.184 0,-0.406 0,-0.406 v -0.307 -0.385 -0.469 -0.529 -0.59 -0.65 -0.691 -0.754 -0.793 -0.834 -0.854 -0.895 -0.938 -0.936 -0.955 -0.957 -0.977 -0.955 -0.957 -0.955 -0.936 -0.936 -0.895 -0.855 -0.834 -0.793 -0.752 -0.693 -0.65 -0.59 -0.529 -0.467 -0.387 -0.305 -0.225 c 0,-0.184 0,-1.424 0,-1.424 l 0.02,-1.16 0.021,-1.117 0.021,-1.078 0.041,-1.018 0.04,-0.977 0.062,-0.936 0.061,-0.875 0.062,-0.854 0.061,-0.795 0.082,-0.752 0.061,-0.713 0.082,-0.691 0.081,-0.629 0.102,-0.611 0.081,-0.549 0.102,-0.549 0.082,-0.488 0.102,-0.469 0.081,-0.447 0.102,-0.406 0.082,-0.367 0.102,-0.365 0.081,-0.326 0.102,-0.285 0.082,-0.283 0.081,-0.244 0.081,-0.244 0.082,-0.205 c 0.061,-0.203 0.142,-0.365 0.142,-0.365 0.062,-0.162 0.122,-0.305 0.122,-0.305 0.041,-0.123 0.082,-0.244 0.082,-0.244 0.081,-0.203 0.102,-0.285 0.102,-0.285 0.021,-0.123 0.081,-0.264 0.081,-0.264 0.082,-0.143 0.184,-0.307 0.184,-0.307 0.102,-0.182 0.224,-0.365 0.224,-0.365 0.143,-0.184 0.284,-0.406 0.284,-0.406 l 0.163,-0.205 0.184,-0.223 0.183,-0.244 0.203,-0.225 0.224,-0.244 0.244,-0.244 0.244,-0.264 0.265,-0.244 0.285,-0.264 0.305,-0.244 0.325,-0.266 0.326,-0.244 0.346,-0.244 0.366,-0.264 0.387,-0.244 0.406,-0.225 0.428,-0.244 0.427,-0.223 0.468,-0.225 0.468,-0.203 0.509,-0.203 0.509,-0.184 0.528,-0.184 0.55,-0.162 0.569,-0.162 0.61,-0.123 0.61,-0.121 0.63,-0.123 0.651,-0.08 0.671,-0.062 0.692,-0.061 0.731,-0.041 h 0.732 c 0.122,0 0.285,0 0.285,0 0.163,0.021 0.325,0.021 0.325,0.021 0.204,0.02 0.387,0.041 0.387,0.041 l 0.224,0.02 0.224,0.041 0.224,0.02 0.244,0.041 0.244,0.041 0.265,0.041 0.265,0.061 0.265,0.041 0.284,0.08 0.285,0.062 0.285,0.061 0.284,0.082 0.306,0.08 0.284,0.102 0.306,0.102 0.305,0.102 0.285,0.104 0.305,0.121 0.306,0.123 0.284,0.121 0.285,0.143 0.305,0.143 0.285,0.162 0.265,0.162 0.284,0.164 0.265,0.162 0.265,0.203 0.244,0.184 0.244,0.203 0.244,0.203 0.224,0.225 0.224,0.223 0.203,0.244 0.184,0.244 0.183,0.244 0.184,0.266 0.183,0.264 0.163,0.266 0.163,0.283 0.142,0.285 0.163,0.285 0.143,0.285 0.122,0.305 0.143,0.305 0.122,0.326 0.122,0.305 0.122,0.326 0.102,0.324 0.102,0.326 0.102,0.346 0.102,0.346 0.081,0.346 0.103,0.346 0.061,0.367 0.081,0.365 0.082,0.367 0.061,0.365 0.062,0.367 0.061,0.385 0.041,0.387 0.061,0.387 0.041,0.387 0.041,0.406 0.04,0.387 0.041,0.408 0.021,0.406 0.021,0.406 0.02,0.428 0.021,0.428 0.021,0.406 0.021,0.428 v 0.426 0.447 0.428 h 11.654 z"
   stroke-miterlimit="10"
   inkscape:connector-curvature="0" />
</g><g
     style="fill:#000000;fill-opacity:1;stroke:none"
     id="LWPOLYLINE_1_">
	
		<path
   style="fill:#000000;fill-opacity:1;stroke:none"
   id="path7"
   d="m 151.953,407.99 0.021,1.973 0.061,1.912 0.082,1.852 0.143,1.789 0.162,1.75 0.203,1.668 0.244,1.627 0.285,1.588 0.325,1.504 0.346,1.465 0.387,1.385 0.447,1.342 0.469,1.303 0.508,1.26 0.529,1.18 0.59,1.141 0.61,1.057 0.65,1.059 0.712,0.977 0.732,0.936 0.753,0.854 0.813,0.855 0.834,0.771 0.896,0.732 0.915,0.691 0.956,0.652 0.997,0.568 1.017,0.57 1.078,0.488 1.099,0.447 1.159,0.406 1.181,0.367 1.22,0.324 1.241,0.244 1.302,0.244 1.322,0.205 1.383,0.121 1.404,0.121 1.444,0.041 1.464,0.041 1.485,-0.041 1.444,-0.041 1.403,-0.121 1.384,-0.121 1.322,-0.205 1.302,-0.244 1.24,-0.244 1.221,-0.324 1.18,-0.367 1.16,-0.406 1.098,-0.447 1.059,-0.488 1.037,-0.57 0.997,-0.568 0.956,-0.652 0.915,-0.691 0.895,-0.732 0.834,-0.771 0.814,-0.855 0.752,-0.854 0.732,-0.936 0.691,-0.977 0.672,-1.059 0.61,-1.057 0.59,-1.141 0.528,-1.18 0.509,-1.26 0.468,-1.303 0.447,-1.342 0.387,-1.385 0.346,-1.465 0.326,-1.504 0.284,-1.588 0.244,-1.627 0.204,-1.668 0.162,-1.75 0.143,-1.789 0.081,-1.852 0.062,-1.912 0.021,-1.973 c 0,-0.102 0,-0.428 0,-0.428 v -0.549 -0.711 -0.916 -1.078 -1.24 -1.404 -1.525 -1.648 -1.77 -1.852 -1.973 -2.033 -2.117 -2.156 -2.217 -2.236 -2.279 -2.277 -2.279 -2.258 -2.238 -2.217 -2.176 -2.096 -2.055 -1.953 -1.871 -1.75 -1.668 -1.525 -1.383 -1.24 -1.078 -0.916 -0.732 -0.529 -0.324 c -0.204,-0.123 -0.347,-0.123 -0.347,-0.123 -0.183,0 -0.406,0 -0.406,0 h -0.265 -0.285 -0.305 -0.346 -0.366 -0.387 -0.406 -0.407 -0.427 -0.448 -0.468 -0.447 -0.468 -0.468 -0.468 -0.468 -0.468 -0.448 -0.447 -0.427 -0.428 -0.406 -0.387 -0.346 -0.346 -0.306 -0.305 -0.244 -0.224 c -0.184,0 -0.347,0 -0.347,0 -0.183,0.123 -0.183,0.447 -0.183,0.447 v 0.551 0.73 0.938 1.078 1.26 1.424 1.547 1.668 1.789 1.893 1.994 2.055 2.135 2.197 2.238 2.277 2.299 2.318 2.299 2.299 2.279 2.236 2.197 2.137 2.074 1.994 1.891 1.791 1.668 1.545 1.404 1.262 1.098 0.916 0.752 0.529 0.346 c 0,0.102 -0.021,1.646 -0.021,1.646 l -0.04,1.486 -0.041,1.424 -0.081,1.363 -0.103,1.322 -0.122,1.26 -0.142,1.221 -0.163,1.139 -0.184,1.141 -0.203,1.057 -0.224,1.018 -0.265,0.977 -0.265,0.936 -0.305,0.854 -0.305,0.855 -0.347,0.814 -0.365,0.73 -0.387,0.693 -0.387,0.691 -0.427,0.609 -0.448,0.611 -0.488,0.527 -0.488,0.529 -0.508,0.488 -0.529,0.447 -0.569,0.408 -0.569,0.365 -0.61,0.326 -0.631,0.324 -0.631,0.285 -0.671,0.244 -0.691,0.203 -0.712,0.203 -0.732,0.164 -0.753,0.121 -0.772,0.082 -0.794,0.121 -0.834,0.041 -0.834,0.041 h -0.875 -0.854 l -0.834,-0.041 -0.834,-0.041 -0.794,-0.121 -0.772,-0.082 -0.753,-0.121 -0.732,-0.164 -0.712,-0.203 -0.691,-0.203 -0.672,-0.244 -0.65,-0.285 -0.61,-0.324 -0.61,-0.326 -0.569,-0.365 -0.569,-0.408 -0.529,-0.447 -0.509,-0.488 -0.509,-0.529 -0.468,-0.527 -0.447,-0.611 -0.427,-0.609 -0.407,-0.691 -0.366,-0.693 -0.366,-0.73 -0.346,-0.814 -0.305,-0.855 -0.306,-0.854 -0.265,-0.936 -0.264,-0.977 -0.225,-1.018 -0.203,-1.057 -0.183,-1.141 -0.163,-1.139 -0.143,-1.221 -0.122,-1.26 -0.102,-1.322 -0.081,-1.363 -0.062,-1.424 -0.02,-1.486 -0.021,-1.545 c 0,-0.102 0,-0.447 0,-0.447 v -0.529 -0.752 -0.916 -1.098 -1.262 -1.404 -1.545 -1.668 -1.791 -1.891 -1.994 -2.074 -2.137 -2.197 -2.236 -2.279 -2.299 -2.299 -2.318 -2.299 -2.277 -2.238 -2.197 -2.135 -2.055 -1.994 -1.895 -1.789 -1.668 -1.547 -1.424 -1.26 -1.078 -0.938 -0.73 -0.551 -0.324 c -0.204,-0.123 -0.346,-0.123 -0.346,-0.123 -0.184,0 -0.407,0 -0.407,0 h -0.265 -0.284 -0.306 -0.346 -0.366 -0.366 -0.406 -0.428 -0.427 -0.448 -0.447 -0.468 -0.468 -0.468 -0.468 -0.468 -0.468 -0.448 -0.447 -0.427 -0.428 -0.387 -0.386 -0.366 -0.346 -0.306 -0.284 -0.265 -0.224 c -0.184,0 -0.326,0 -0.326,0 -0.194,0 -0.194,60.822 -0.194,60.822 z"
   stroke-miterlimit="10"
   inkscape:connector-curvature="0" />
</g><g
     style="fill:#000000;fill-opacity:1;stroke:none"
     id="LWPOLYLINE_2_">
	
		<path
   style="fill:#000000;fill-opacity:1;stroke:none"
   id="path10"
   d="m 229.434,414.662 -0.061,0.713 -0.041,0.752 -0.061,0.814 -0.021,0.812 -0.041,0.855 v 0.895 l 0.021,0.936 0.021,0.936 0.061,0.977 0.082,0.977 0.122,1.018 0.142,1.016 0.184,1.018 0.203,1.018 0.265,1.057 0.285,1.018 0.346,1.018 0.387,1.018 0.427,1.016 0.488,0.977 0.549,0.977 0.61,0.977 0.651,0.936 0.732,0.896 0.772,0.854 0.854,0.854 0.936,0.814 0.997,0.773 1.078,0.691 1.139,0.691 1.241,0.65 1.322,0.57 1.383,0.488 1.506,0.488 1.566,0.365 1.688,0.367 1.749,0.244 1.871,0.203 1.974,0.121 2.074,0.041 1.119,-0.041 h 1.119 l 1.118,-0.08 1.099,-0.082 1.099,-0.121 1.099,-0.164 1.078,-0.162 1.058,-0.203 1.058,-0.244 1.037,-0.244 1.018,-0.326 1.017,-0.326 0.977,-0.365 0.977,-0.365 0.936,-0.449 0.936,-0.447 0.896,-0.527 0.896,-0.529 0.854,-0.57 0.814,-0.609 0.793,-0.611 0.772,-0.691 0.753,-0.732 0.691,-0.773 0.672,-0.771 0.65,-0.855 0.59,-0.895 0.57,-0.895 0.528,-0.977 0.488,-1.018 0.447,-1.059 0.407,-1.098 0.366,-1.139 0.325,-1.18 0.265,-1.221 0.224,-1.303 0.163,-1.301 0.162,-1.385 0.082,-1.424 v -1.504 l -0.082,-2.238 -0.203,-2.115 -0.387,-2.014 -0.508,-1.893 -0.631,-1.789 -0.753,-1.709 -0.875,-1.588 -0.976,-1.504 -1.059,-1.424 -1.159,-1.344 -1.24,-1.281 -1.303,-1.199 -1.362,-1.141 -1.424,-1.098 -1.465,-1.037 -1.525,-0.996 -1.546,-0.957 -1.566,-0.916 -1.587,-0.895 -1.587,-0.854 -1.586,-0.855 -1.587,-0.854 -1.566,-0.834 -1.546,-0.834 -1.525,-0.834 -1.465,-0.834 -1.424,-0.875 -1.363,-0.895 -1.302,-0.896 -1.241,-0.955 -1.159,-0.977 -1.058,-1.037 -0.977,-1.078 -0.875,-1.139 -0.752,-1.18 -0.631,-1.262 -0.509,-1.344 -0.366,-1.402 -0.244,-1.484 -0.061,-1.588 v -0.732 l 0.04,-0.711 0.082,-0.713 0.081,-0.672 0.122,-0.65 0.143,-0.631 0.163,-0.609 0.203,-0.59 0.203,-0.57 0.244,-0.549 0.265,-0.529 0.265,-0.508 0.305,-0.488 0.306,-0.469 0.346,-0.447 0.346,-0.428 0.366,-0.406 0.387,-0.406 0.406,-0.367 0.407,-0.346 0.427,-0.346 0.447,-0.305 0.448,-0.305 0.468,-0.285 0.488,-0.244 0.488,-0.244 0.487,-0.223 0.509,-0.225 0.509,-0.184 0.529,-0.162 0.528,-0.162 0.55,-0.143 0.528,-0.123 0.55,-0.102 0.549,-0.082 0.569,-0.08 0.55,-0.061 0.569,-0.041 0.549,-0.021 h 0.569 l 0.794,0.021 0.772,0.041 0.732,0.061 0.732,0.102 0.691,0.121 0.651,0.143 0.65,0.164 0.61,0.203 0.59,0.223 0.55,0.244 0.549,0.266 0.509,0.305 0.488,0.305 0.468,0.346 0.447,0.346 0.428,0.387 0.406,0.406 0.366,0.408 0.366,0.447 0.346,0.467 0.306,0.469 0.305,0.508 0.285,0.51 0.244,0.527 0.244,0.551 0.224,0.568 0.203,0.57 0.184,0.609 0.183,0.611 0.143,0.609 0.143,0.652 0.122,0.65 0.102,0.672 0.081,0.67 0.081,0.691 0.062,0.713 0.041,0.711 0.04,0.713 0.021,0.732 v 0.752 c 0.203,0 0.346,0 0.346,0 0.204,0 0.407,0 0.407,0 h 0.265 0.284 0.306 0.346 0.366 0.387 0.406 0.407 0.447 0.427 0.468 0.448 0.468 0.468 0.468 0.468 0.468 0.447 0.448 0.427 0.428 0.406 0.387 0.366 0.325 0.325 0.285 0.244 0.224 c 0.184,0 0.346,0 0.346,0 0.204,0 0.244,-1.424 0.244,-1.424 v -1.363 l -0.04,-1.342 -0.082,-1.303 -0.122,-1.24 -0.143,-1.221 -0.203,-1.18 -0.224,-1.139 -0.265,-1.1 -0.305,-1.078 -0.346,-1.016 -0.387,-0.977 -0.407,-0.957 -0.447,-0.914 -0.488,-0.875 -0.528,-0.834 -0.55,-0.793 -0.59,-0.754 -0.631,-0.732 -0.65,-0.691 -0.691,-0.65 -0.713,-0.631 -0.752,-0.57 -0.794,-0.549 -0.813,-0.508 -0.834,-0.488 -0.874,-0.447 -0.916,-0.408 -0.936,-0.365 -0.956,-0.346 -0.997,-0.305 -1.037,-0.266 -1.037,-0.244 -1.078,-0.223 -1.119,-0.164 -1.119,-0.141 -1.18,-0.123 -1.18,-0.061 -1.2,-0.061 -1.24,-0.021 -1.181,0.021 -1.18,0.061 -1.139,0.061 -1.14,0.123 -1.139,0.141 -1.099,0.164 -1.078,0.203 -1.078,0.244 -1.058,0.264 -1.018,0.307 -1.017,0.324 -0.977,0.367 -0.977,0.406 -0.936,0.428 -0.915,0.447 -0.896,0.508 -0.854,0.529 -0.834,0.549 -0.813,0.59 -0.772,0.631 -0.753,0.65 -0.732,0.691 -0.691,0.713 -0.651,0.773 -0.61,0.771 -0.59,0.836 -0.569,0.854 -0.509,0.895 -0.488,0.916 -0.447,0.955 -0.407,0.998 -0.366,1.016 -0.325,1.059 -0.284,1.078 -0.244,1.139 -0.204,1.16 -0.162,1.18 -0.102,1.221 -0.082,1.262 -0.021,1.301 0.082,2.137 0.224,2.014 0.387,1.912 0.508,1.789 0.631,1.709 0.753,1.607 0.874,1.525 0.956,1.445 1.078,1.361 1.16,1.303 1.221,1.221 1.302,1.158 1.383,1.119 1.424,1.037 1.465,1.018 1.505,0.957 1.546,0.936 1.566,0.895 1.587,0.875 1.607,0.854 1.586,0.834 1.587,0.834 1.566,0.814 1.546,0.834 1.506,0.814 1.484,0.834 1.424,0.854 1.363,0.875 1.302,0.895 1.241,0.936 1.139,0.957 1.078,0.996 0.977,1.059 0.854,1.098 0.752,1.16 0.651,1.221 0.509,1.301 0.366,1.363 0.224,1.424 0.081,1.506 -0.021,0.895 -0.04,0.814 -0.062,0.812 -0.102,0.773 -0.122,0.732 -0.143,0.732 -0.162,0.691 -0.204,0.691 -0.224,0.65 -0.244,0.611 -0.265,0.609 -0.284,0.57 -0.306,0.529 -0.325,0.527 -0.346,0.529 -0.366,0.447 -0.407,0.447 -0.406,0.449 -0.428,0.406 -0.447,0.406 -0.447,0.326 -0.488,0.365 -0.488,0.326 -0.509,0.285 -0.528,0.285 -0.529,0.244 -0.569,0.244 -0.569,0.242 -0.57,0.205 -0.59,0.162 -0.61,0.162 -0.609,0.164 -0.631,0.121 -0.631,0.082 -0.65,0.121 -0.651,0.041 -0.651,0.082 -0.671,0.041 h -0.691 l -0.672,0.039 -0.569,-0.039 h -0.569 l -0.569,-0.041 -0.55,-0.082 -0.569,-0.041 -0.569,-0.121 -0.569,-0.123 -0.57,-0.121 -0.549,-0.123 -0.549,-0.203 -0.55,-0.162 -0.549,-0.203 -0.529,-0.244 -0.528,-0.244 -0.509,-0.285 -0.509,-0.285 -0.509,-0.326 -0.488,-0.365 -0.468,-0.365 -0.447,-0.408 -0.447,-0.406 -0.447,-0.447 -0.407,-0.447 -0.407,-0.529 -0.366,-0.488 -0.366,-0.57 -0.346,-0.568 -0.325,-0.611 -0.305,-0.65 -0.285,-0.65 -0.244,-0.691 -0.244,-0.732 -0.203,-0.773 -0.184,-0.773 -0.162,-0.814 -0.143,-0.854 -0.102,-0.895 -0.062,-0.895 -0.061,-0.938 v -1.016 c 0,-0.164 0,-0.244 0,-0.244 0,-0.203 0,-0.285 0,-0.285 0,-0.162 0,-0.244 0,-0.244 0,-0.184 0,-0.264 0,-0.264 0,-0.184 0,-0.285 0,-0.285 0,-0.184 0,-0.285 0,-0.285 0,-0.162 0,-0.244 0,-0.244 0,-0.162 0,-0.244 0,-0.244 0,-0.184 0,-0.225 0,-0.225 -0.005,-0.163 -11.682,-0.163 -11.682,-0.163 z"
   stroke-miterlimit="10"
   inkscape:connector-curvature="0" />
</g><g
     style="fill:#000000;fill-opacity:1;stroke:none"
     id="LWPOLYLINE_3_">
	
		<path
   style="fill:#000000;fill-opacity:1;stroke:none"
   id="path13"
   d="m 294.426,347.168 c 0,0.184 0,0.305 0,0.305 0,0.164 0,0.367 0,0.367 v 0.223 0.244 0.266 0.305 0.305 0.326 0.346 0.365 0.387 0.387 0.387 0.406 0.408 0.406 0.387 0.406 0.406 0.387 0.387 0.387 0.367 0.346 0.324 0.326 0.285 0.264 0.266 0.203 c 0,0.203 0,0.365 0,0.365 0,0.123 0,0.225 0,0.225 0.203,0.08 0.407,0.08 0.407,0.08 h 0.284 0.366 0.447 0.529 0.569 0.61 0.691 0.732 0.773 0.813 0.813 0.854 0.896 0.936 0.895 0.936 0.936 0.936 0.936 0.936 0.896 0.895 0.854 0.855 0.812 0.773 0.691 0.691 0.652 0.568 0.488 0.447 0.367 0.324 0.205 c 0.162,0.164 0.162,0.611 0.162,0.611 v 0.752 1.037 1.281 1.527 1.748 1.975 2.135 2.34 2.48 2.645 2.768 2.889 2.969 3.053 3.111 3.174 3.193 3.215 3.213 3.215 3.152 3.133 3.031 3.01 2.848 2.768 2.645 2.48 2.359 2.117 1.992 1.75 1.506 1.301 1.018 0.773 0.447 c 0.203,0.162 0.365,0.162 0.365,0.162 0.203,0 0.408,0 0.408,0 h 0.244 0.283 0.326 0.326 0.365 0.406 0.408 0.406 0.447 0.447 0.447 0.449 0.488 0.447 0.488 0.447 0.447 0.447 0.447 0.447 0.408 0.406 0.406 0.367 0.324 0.326 0.285 0.244 0.203 c 0.203,0 0.365,0 0.365,0 0.203,-0.162 0.203,-0.609 0.203,-0.609 v -0.773 -1.018 -1.301 -1.506 -1.75 -1.992 -2.117 -2.359 -2.48 -2.645 -2.768 -2.848 -3.01 -3.031 -3.133 -3.152 -3.215 -3.213 -3.215 -3.193 -3.174 -3.111 -3.053 -2.969 -2.889 -2.768 -2.645 -2.48 -2.34 -2.135 -1.975 -1.748 -1.527 -1.281 -1.037 -0.752 -0.447 c 0.164,-0.164 0.367,-0.164 0.367,-0.164 h 0.285 0.365 0.447 0.488 0.529 0.611 0.65 0.732 0.732 0.771 0.814 0.854 0.855 0.854 0.896 0.895 0.936 0.895 0.895 0.896 0.895 0.854 0.814 0.814 0.771 0.773 0.691 0.652 0.609 0.529 0.488 0.447 0.365 0.285 0.203 c 0.203,-0.182 0.203,-0.305 0.203,-0.305 0,-0.162 0,-0.365 0,-0.365 v -0.203 -0.266 -0.264 -0.285 -0.326 -0.324 -0.346 -0.367 -0.387 -0.387 -0.387 -0.406 -0.406 -0.388 -0.406 -0.408 -0.406 -0.387 -0.387 -0.387 -0.365 -0.346 -0.326 -0.305 -0.305 -0.266 -0.244 -0.223 c 0,-0.203 0,-0.367 0,-0.367 0,-0.121 0,-0.223 0,-0.223 0.019,-0.081 -61.657,-0.081 -61.657,-0.081 z"
   stroke-miterlimit="10"
   inkscape:connector-curvature="0" />
</g><g
     style="fill:#000000;fill-opacity:1;stroke:none"
     id="LWPOLYLINE_4_">
	
		<path
   id="path16"
   d="m 394.59375,345.5 -1.4375,0.0937 -1.40625,0.0937 -1.34375,0.15625 -1.34375,0.1875 -1.3125,0.25 -1.25,0.28125 -1.21875,0.3125 -1.1875,0.34375 -1.15625,0.40625 -1.09375,0.4375 -1.0625,0.46875 -1.03125,0.53125 -1,0.53125 -0.96875,0.625 -0.90625,0.625 L 376,351.5 l -0.875,0.71875 -0.75,0.75 -0.78125,0.75 -0.71875,0.8125 -0.71875,0.875 -0.625,0.875 -0.65625,0.9375 -0.5625,0.9375 -0.53125,1 -0.53125,1 -0.46875,1.0625 -0.4375,1.09375 -0.40625,1.125 -0.3125,1.125 -0.34375,1.21875 -0.28125,1.1875 -0.25,1.28125 -0.1875,1.25 -0.15625,1.3125 -0.1875,1.34375 -0.0625,1.34375 -0.0312,1.40625 -0.0625,1.4375 0,0.21875 0,0.28125 0,0.375 0,0.46875 0,0.5625 0,0.65625 0,0.71875 0,0.8125 0,0.84375 0,0.90625 0,0.96875 0,1.03125 0,1.0625 0,1.09375 0,1.125 0,1.15625 0,1.1875 0,1.15625 0,1.1875 0,1.1875 0,1.1875 0,1.15625 0,1.15625 0,1.125 0,1.125 0,1.03125 0,1.03125 0,0.96875 0,0.9375 0,0.875 0,0.75 0,0.75 0,0.625 0,0.59375 0,0.46875 0,0.34375 0,0.28125 0,0.25 0.0625,1.96875 0.0312,1.90625 0.0625,1.84375 0.1875,1.8125 0.15625,1.75 0.1875,1.65625 0.25,1.625 0.28125,1.59375 0.34375,1.5 0.3125,1.46875 0.40625,1.375 0.4375,1.34375 0.46875,1.3125 0.53125,1.25 0.53125,1.1875 0.5625,1.125 0.65625,1.0625 0.625,1.0625 0.71875,0.96875 0.71875,0.9375 0.78125,0.875 0.75,0.84375 0.875,0.78125 0.875,0.71875 0.90625,0.6875 0.96875,0.65625 1,0.5625 1.03125,0.5625 1.0625,0.5 1.09375,0.4375 1.15625,0.40625 1.1875,0.375 1.21875,0.3125 1.25,0.25 1.3125,0.25 1.34375,0.21875 1.34375,0.125 1.40625,0.0937 1.4375,0.0625 1.5,0.0312 1.46875,-0.0312 1.46875,-0.0625 1.375,-0.0937 1.375,-0.125 1.3125,-0.21875 1.3125,-0.25 1.25,-0.25 1.21875,-0.3125 1.1875,-0.375 1.125,-0.40625 1.09375,-0.4375 1.125,-0.5 1,-0.5625 0.96875,-0.5625 1,-0.65625 0.875,-0.6875 0.90625,-0.71875 0.84375,-0.78125 0.8125,-0.84375 0.78125,-0.875 0.71875,-0.9375 0.71875,-0.96875 0.625,-1.0625 0.625,-1.0625 0.5625,-1.125 0.5625,-1.1875 0.5,-1.25 0.5,-1.3125 0.40625,-1.34375 0.40625,-1.375 0.34375,-1.46875 0.28125,-1.5 0.3125,-1.59375 0.21875,-1.625 0.21875,-1.65625 0.1875,-1.75 0.125,-1.8125 0.0937,-1.84375 0.0312,-1.90625 0.0312,-1.96875 0,-0.25 0,-0.28125 0,-0.34375 0,-0.46875 0,-0.59375 0,-0.625 0,-0.75 0,-0.75 0,-0.875 0,-0.9375 0,-0.96875 0,-1.03125 0,-1.03125 0,-1.125 0,-1.125 0,-1.15625 0,-1.15625 0,-1.1875 0,-1.1875 0,-1.1875 0,-1.15625 0,-1.1875 0,-1.15625 0,-1.125 0,-1.09375 0,-1.0625 0,-1.03125 0,-0.96875 0,-0.90625 0,-0.84375 0,-0.8125 0,-0.71875 0,-0.65625 0,-0.5625 0,-0.46875 0,-0.375 0,-0.28125 0,-0.21875 -0.0312,-1.4375 L 426,373.5 l -0.0937,-1.34375 -0.125,-1.34375 -0.1875,-1.3125 -0.21875,-1.25 -0.21875,-1.28125 -0.3125,-1.1875 -0.28125,-1.21875 -0.34375,-1.125 -0.40625,-1.125 -0.40625,-1.09375 -0.5,-1.0625 -0.5,-1 -0.5625,-1 -0.5625,-0.9375 -0.625,-0.9375 -0.625,-0.875 -0.71875,-0.875 -0.71875,-0.8125 -0.78125,-0.75 -0.8125,-0.75 -0.84375,-0.71875 -0.90625,-0.65625 -0.875,-0.625 -1,-0.625 -0.96875,-0.53125 -1,-0.53125 -1.125,-0.46875 -1.09375,-0.4375 -1.125,-0.40625 -1.1875,-0.34375 -1.21875,-0.3125 -1.25,-0.28125 -1.3125,-0.25 -1.3125,-0.1875 -1.375,-0.15625 -1.375,-0.0937 -1.46875,-0.0937 -1.46875,0 -1.5,0 z m 0.8125,10 0.375,0 0.3125,0 0.3125,0 0.375,0 0.375,0.0312 0.4375,0.0312 0.40625,0.0312 0.5,0.0312 0.46875,0.0625 0.53125,0.0625 0.53125,0.0937 0.53125,0.125 0.5625,0.0937 0.59375,0.15625 0.5625,0.1875 0.5625,0.1875 0.625,0.25 0.5625,0.21875 0.59375,0.3125 0.5625,0.3125 0.625,0.34375 0.5625,0.375 0.5625,0.4375 0.59375,0.46875 0.5625,0.5 0.53125,0.5625 0.53125,0.59375 0.46875,0.625 0.5,0.6875 0.4375,0.71875 0.46875,0.8125 0.40625,0.84375 0.34375,0.875 0.375,0.96875 0.3125,1 0.25,1.0625 0.25,1.15625 0.1875,1.15625 0.1875,1.28125 0.125,1.3125 0.0625,1.40625 0.0312,1.46875 0,0.25 0,0.28125 0,0.375 0,0.5 0,0.5625 0,0.6875 0,0.71875 0,0.8125 0,0.90625 0,0.9375 0,0.96875 0,1.0625 0,1.09375 0,1.125 0,1.15625 0,1.1875 0,1.1875 0,1.21875 0,1.21875 0,1.1875 0,1.21875 0,1.21875 0,1.1875 0,1.15625 0,1.125 0,1.09375 0,1.03125 0,1 0,0.9375 0,0.875 0,0.8125 0,0.75 0,0.65625 0,0.59375 0,0.5 0,0.375 0,0.28125 0,0.21875 -0.0312,1.5625 0,1.46875 -0.0625,1.4375 -0.0937,1.375 -0.0937,1.3125 -0.125,1.25 -0.15625,1.21875 -0.15625,1.15625 -0.15625,1.125 -0.21875,1.0625 -0.21875,1.03125 -0.25,0.96875 -0.28125,0.9375 -0.28125,0.84375 -0.34375,0.875 -0.3125,0.8125 -0.375,0.71875 -0.375,0.6875 -0.40625,0.6875 -0.4375,0.625 -0.4375,0.59375 -0.46875,0.53125 -0.46875,0.53125 -0.53125,0.5 -0.53125,0.4375 -0.5625,0.40625 -0.59375,0.375 L 405,433.65625 404.375,434 l -0.625,0.28125 -0.71875,0.25 -0.6875,0.1875 -0.6875,0.21875 -0.71875,0.15625 -0.78125,0.125 -0.78125,0.0625 -0.75,0.125 -0.8125,0.0312 -0.875,0.0625 -0.84375,0 -0.90625,0 -0.8125,-0.0625 -0.8125,-0.0312 -0.8125,-0.125 -0.75,-0.0625 -0.78125,-0.125 -0.75,-0.15625 -0.6875,-0.21875 -0.6875,-0.1875 -0.6875,-0.25 L 387.8125,434 l -0.65625,-0.34375 -0.625,-0.3125 -0.5625,-0.375 -0.53125,-0.40625 -0.5625,-0.4375 -0.5,-0.5 -0.46875,-0.53125 -0.5,-0.53125 -0.4375,-0.59375 -0.40625,-0.625 -0.40625,-0.6875 -0.40625,-0.6875 -0.375,-0.71875 -0.3125,-0.8125 -0.34375,-0.875 -0.28125,-0.84375 -0.28125,-0.9375 -0.25,-0.96875 -0.25,-1.03125 -0.1875,-1.0625 -0.15625,-1.125 -0.1875,-1.15625 -0.15625,-1.21875 -0.125,-1.25 -0.0625,-1.3125 -0.0937,-1.375 -0.0312,-1.4375 -0.0625,-1.46875 0,-1.5625 0,-0.21875 0,-0.28125 0,-0.375 0,-0.5 0,-0.59375 0,-0.65625 0,-0.75 0,-0.8125 0,-0.875 0,-0.9375 0,-1 0,-1.03125 0,-1.09375 0,-1.125 0,-1.15625 0,-1.1875 0,-1.21875 0,-1.21875 0,-1.1875 0,-1.21875 0,-1.21875 0,-1.1875 0,-1.1875 0,-1.15625 0,-1.125 0,-1.09375 0,-1.0625 0,-0.96875 0,-0.9375 0,-0.90625 0,-0.8125 0,-0.71875 0,-0.6875 0,-0.5625 0,-0.5 0,-0.375 0,-0.28125 0,-0.25 0,-1.46875 0.0937,-1.40625 0.125,-1.3125 0.15625,-1.28125 0.21875,-1.15625 0.25,-1.15625 0.28125,-1.0625 0.28125,-1 0.34375,-0.96875 0.375,-0.875 0.40625,-0.84375 0.4375,-0.8125 0.46875,-0.71875 0.46875,-0.6875 0.53125,-0.625 0.5,-0.59375 0.5625,-0.5625 0.53125,-0.5 0.5625,-0.46875 0.5625,-0.4375 0.59375,-0.375 0.59375,-0.34375 0.5625,-0.3125 0.625,-0.3125 0.59375,-0.21875 0.59375,-0.25 0.5625,-0.1875 0.59375,-0.1875 0.59375,-0.15625 0.53125,-0.0937 0.5625,-0.125 0.53125,-0.0937 0.46875,-0.0625 0.5,-0.0625 0.5,-0.0312 0.4375,-0.0312 0.40625,-0.0312 0.40625,-0.0312 z"
   style="fill:#000000;fill-opacity:1;stroke:none"
   inkscape:connector-curvature="0" />
</g><g
     style="fill:#000000;fill-opacity:1;stroke:none"
     id="LWPOLYLINE_5_">
	
		
</g><g
     style="fill:#000000;fill-opacity:1;stroke:none"
     id="LWPOLYLINE_6_">
	
		<path
   style="fill:#000000;fill-opacity:1;stroke:none"
   id="path22"
   d="m 457.73,358.01 c 0.039,0.164 0.203,0.611 0.203,0.611 l 0.203,0.752 0.326,1.037 0.365,1.281 0.488,1.527 0.529,1.748 0.568,1.975 0.652,2.135 0.691,2.34 0.773,2.48 0.771,2.645 0.855,2.768 0.854,2.889 0.895,2.969 0.938,3.053 0.936,3.111 0.936,3.174 0.977,3.193 0.977,3.215 0.936,3.213 0.977,3.215 0.936,3.152 0.977,3.133 0.895,3.031 0.895,3.01 0.855,2.848 0.854,2.768 0.773,2.645 0.771,2.48 0.693,2.359 0.65,2.117 0.57,1.992 0.527,1.75 0.488,1.506 0.367,1.301 0.324,1.018 0.205,0.773 0.162,0.447 c 0.121,0.162 0.244,0.162 0.244,0.162 0.121,0 0.285,0 0.285,0 0.203,0 0.447,0 0.447,0 h 0.285 0.283 0.326 0.326 0.365 0.367 0.406 0.406 0.406 0.408 0.447 0.447 0.406 0.447 0.449 0.406 0.447 0.406 0.408 0.406 0.365 0.367 0.326 0.324 0.285 0.244 0.244 c 0.203,0 0.406,0 0.406,0 0.123,0 0.244,0 0.244,0 0.123,-0.162 0.244,-0.609 0.244,-0.609 l 0.244,-0.773 0.285,-1.018 0.406,-1.301 0.447,-1.506 0.529,-1.75 0.611,-1.992 0.65,-2.117 0.691,-2.359 0.732,-2.48 0.814,-2.645 0.812,-2.768 0.895,-2.848 0.896,-3.01 0.895,-3.031 0.936,-3.133 0.977,-3.152 0.936,-3.215 0.977,-3.213 0.977,-3.215 0.977,-3.193 0.936,-3.174 0.936,-3.111 0.936,-3.053 0.895,-2.969 0.855,-2.889 0.812,-2.768 0.814,-2.645 0.732,-2.48 0.732,-2.34 0.65,-2.135 0.57,-1.975 0.527,-1.748 0.449,-1.527 0.406,-1.281 0.285,-1.037 0.244,-0.752 0.121,-0.447 c 0.082,0 0.082,0.447 0.082,0.447 v 0.752 1.037 1.281 1.527 1.748 1.975 2.135 2.34 2.48 2.645 2.768 2.889 2.969 3.053 3.111 3.174 3.193 3.215 3.213 3.215 3.152 3.133 3.031 3.01 2.848 2.768 2.645 2.48 2.359 2.117 1.992 1.75 1.506 1.301 1.018 0.773 0.447 c 0.162,0.162 0.326,0.162 0.326,0.162 0.162,0 0.365,0 0.365,0 h 0.244 0.244 0.326 0.283 0.367 0.365 0.367 0.365 0.408 0.447 0.406 0.447 0.406 0.449 0.447 0.406 0.447 0.406 0.449 0.406 0.365 0.367 0.365 0.367 0.285 0.283 0.285 0.244 c 0.203,0 0.367,0 0.367,0 0.162,0 0.244,0 0.244,0 0.08,-0.203 0.08,-0.691 0.08,-0.691 v -0.854 -1.18 -1.426 -1.707 -1.994 -2.197 -2.441 -2.604 -2.807 -2.971 -3.133 -3.254 -3.336 -3.438 -3.52 -3.561 -3.6 -3.619 -3.621 -3.6 -3.561 -3.52 -3.438 -3.355 -3.234 -3.113 -2.969 -2.807 -2.625 -2.441 -2.197 -1.973 -1.729 -1.445 -1.158 -0.834 -0.529 c -0.121,-0.184 -0.324,-0.184 -0.324,-0.184 h -0.205 -0.324 -0.367 -0.406 -0.447 -0.488 -0.529 -0.609 -0.611 -0.65 -0.65 -0.691 -0.732 -0.732 -0.732 -0.732 -0.732 -0.773 -0.732 -0.732 -0.732 -0.732 -0.691 -0.65 -0.65 -0.611 -0.568 -0.57 -0.488 -0.447 -0.406 -0.367 -0.285 -0.244 c -0.203,0 -0.283,0 -0.283,0 -0.082,0.164 -0.205,0.59 -0.205,0.59 l -0.203,0.713 -0.285,0.977 -0.365,1.199 -0.406,1.445 -0.488,1.646 -0.529,1.852 -0.57,2.014 -0.65,2.197 -0.65,2.34 -0.732,2.48 -0.773,2.604 -0.773,2.727 -0.812,2.787 -0.814,2.889 -0.854,2.928 -0.855,2.99 -0.854,3.012 -0.895,3.031 -0.855,3.031 -0.895,3.01 -0.855,2.971 -0.854,2.949 -0.814,2.867 -0.812,2.809 -0.773,2.705 -0.773,2.604 -0.691,2.48 -0.691,2.361 -0.65,2.176 -0.57,2.033 -0.529,1.873 -0.488,1.627 -0.406,1.424 -0.365,1.221 -0.244,0.977 -0.205,0.691 -0.162,0.447 c -0.08,0 -0.203,-0.447 -0.203,-0.447 l -0.203,-0.691 -0.285,-0.977 -0.326,-1.221 -0.406,-1.424 -0.488,-1.627 -0.529,-1.873 -0.609,-2.033 -0.611,-2.176 -0.691,-2.361 -0.691,-2.48 -0.773,-2.604 -0.771,-2.705 -0.814,-2.809 -0.812,-2.867 -0.855,-2.949 -0.854,-2.971 -0.896,-3.01 -0.854,-3.031 -0.895,-3.031 -0.855,-3.012 -0.854,-2.99 -0.855,-2.928 -0.854,-2.889 -0.773,-2.787 -0.812,-2.727 -0.732,-2.604 -0.732,-2.48 -0.652,-2.34 -0.65,-2.197 -0.568,-2.014 -0.57,-1.852 -0.447,-1.646 -0.406,-1.445 -0.367,-1.199 -0.285,-0.977 -0.203,-0.713 -0.121,-0.426 c -0.205,-0.164 -0.367,-0.164 -0.367,-0.164 h -0.203 -0.285 -0.365 -0.367 -0.447 -0.488 -0.529 -0.527 -0.611 -0.609 -0.652 -0.65 -0.691 -0.691 -0.691 -0.732 -0.732 -0.691 -0.732 -0.691 -0.691 -0.691 -0.652 -0.65 -0.609 -0.611 -0.57 -0.486 -0.488 -0.449 -0.365 -0.367 -0.283 -0.244 c -0.164,0 -0.244,0 -0.244,0 -0.041,0.184 -0.041,0.713 -0.041,0.713 v 0.834 1.158 1.445 1.729 1.973 2.197 2.441 2.625 2.807 2.969 3.113 3.234 3.355 3.438 3.52 3.561 3.6 3.621 3.621 3.6 3.561 3.52 3.438 3.336 3.254 3.133 2.971 2.807 2.604 2.441 2.197 1.994 1.707 1.426 1.18 0.854 0.488 c 0.162,0.203 0.285,0.203 0.285,0.203 0.162,0 0.365,0 0.365,0 h 0.203 0.285 0.244 0.285 0.326 0.324 0.367 0.365 0.367 0.406 0.365 0.408 0.406 0.406 0.408 0.406 0.406 0.367 0.406 0.365 0.367 0.365 0.326 0.326 0.283 0.244 0.285 0.203 c 0.205,0 0.367,0 0.367,0 0.121,0 0.203,0 0.203,0 0.066,-0.003 0.066,-85.825 0.066,-85.825 z"
   stroke-miterlimit="10"
   inkscape:connector-curvature="0" />
</g></g>
</svg>