<?xml version="1.0" encoding="UTF-8" standalone="no"?>
<!-- Generator: Adobe Illustrator 16.0.1, SVG Export Plug-In . SVG Version: 6.00 Build 0)  -->

<svg
   xmlns:dc="http://purl.org/dc/elements/1.1/"
   xmlns:cc="http://creativecommons.org/ns#"
   xmlns:rdf="http://www.w3.org/1999/02/22-rdf-syntax-ns#"
   xmlns:svg="http://www.w3.org/2000/svg"
   xmlns="http://www.w3.org/2000/svg"
   xmlns:sodipodi="http://sodipodi.sourceforge.net/DTD/sodipodi-0.dtd"
   xmlns:inkscape="http://www.inkscape.org/namespaces/inkscape"
   version="1.0"
   id="_x31_"
   x="0px"
   y="0px"
   width="612px"
   height="792px"
   viewBox="0 0 612 792"
   enable-background="new 0 0 612 792"
   xml:space="preserve"
   inkscape:version="0.48.2 r9819"
   sodipodi:docname="7001.svg"><metadata
   id="metadata183"><rdf:RDF><cc:Work
       rdf:about=""><dc:format>image/svg+xml</dc:format><dc:type
         rdf:resource="http://purl.org/dc/dcmitype/StillImage" /></cc:Work></rdf:RDF></metadata><defs
   id="defs181" /><sodipodi:namedview
   pagecolor="#ffffff"
   bordercolor="#666666"
   borderopacity="1"
   objecttolerance="10"
   gridtolerance="10"
   guidetolerance="10"
   inkscape:pageopacity="0"
   inkscape:pageshadow="2"
   inkscape:window-width="1920"
   inkscape:window-height="1071"
   id="namedview179"
   showgrid="false"
   inkscape:zoom="0.90509668"
   inkscape:cx="135.2135"
   inkscape:cy="298.32758"
   inkscape:window-x="0"
   inkscape:window-y="0"
   inkscape:window-maximized="1"
   inkscape:current-layer="_x31_" />
<g
   id="g3390"
   transform="matrix(0.72221241,0,0,0.72221241,90.693516,44.518989)"><g
     id="LWPOLYLINE-9">
	
		
</g><g
     id="LWPOLYLINE_1_-8">
	
		
</g><g
     id="LWPOLYLINE_2_-6">
	
		
</g><g
     id="LWPOLYLINE_3_-5">
	
		
</g><g
     id="LWPOLYLINE_4_-7">
	
		
</g><g
     id="LWPOLYLINE_5_-6">
	
		
</g><g
     id="LWPOLYLINE_6_-2">
	
		
</g><g
     style="fill:#000000;fill-opacity:1;stroke:none"
     id="LWPOLYLINE_7_-7">
	
		<path
   sodipodi:nodetypes="ccccccccccccccccccccccccccc"
   inkscape:connector-curvature="0"
   id="path70"
   d="m 442.582,588.078 c 1.79486,28.60215 38.97927,44.99757 61.31429,27.12151 17.51287,-11.63775 15.88908,-33.79568 18.52797,-52.13701 7.41102,0.0175 14.82203,0.0349 22.23305,0.0524 -1.83228,19.18144 -0.88944,40.24039 -13.25531,56.4011 -16.78176,25.00077 -52.75442,33.98677 -79.23,19.554 -18.09093,-9.10881 -30.89651,-27.59907 -33.301,-47.687 L 404.059,463.771 c -1.0002,-29.0538 -38.30047,-46.74346 -61.43675,-29.22513 -9.3396,6.36547 -15.63577,16.91206 -16.78125,28.16013 l -15.986,128.677 c -3.20691,29.95542 -30.63338,54.7585 -60.82,54.613 -31.02509,0.88896 -59.2103,-23.7488 -62.58,-54.613 L 170.523,463.771 c -1.53682,-29.02824 -37.17593,-45.82131 -60.56194,-28.7646 -17.647459,11.24106 -16.762986,33.4813 -21.343475,51.55133 -7.603284,0 -15.206568,0 -22.809852,0 1.657089,-9.40658 3.314178,-18.81315 4.971267,-28.21973 3.332081,-29.80781 31.10866,-53.81215 60.955,-53.549 30.34902,-1.01562 59.1161,23.19297 62.446,53.549 l 14.892,129.74 c 1.74066,29.05225 39.49476,45.66554 62.16579,27.57124 9.17416,-6.59742 15.20185,-17.3054 16.02621,-28.58224 l 15.931,-128.729 c 3.39367,-30.19049 31.83031,-54.38001 62.075,-53.549 30.18094,-0.31023 57.85582,23.40429 61.328,53.549 z"
   style="fill:#000000;fill-opacity:1;stroke:none" />
</g><path
     inkscape:connector-curvature="0"
     id="path3916"
     d="m 166.15776,288.82458 c -24.67163,-57.59216 -33.93524,-78.03587 -35.36021,-78.03587 -1.38472,0 -4.64047,6.45971 -11.51162,22.84014 l -9.58082,22.84015 -11.784423,0 c -6.481433,0 -11.567681,-0.40044 -11.302774,-0.88987 0.264908,-0.48943 10.299166,-24.24912 22.298347,-52.79931 11.99919,-28.55018 22.10166,-51.90942 22.44993,-51.90942 0.34827,0 15.42196,34.57167 33.4971,76.82595 19.22428,44.94063 33.56561,76.97485 34.55466,77.18471 1.20666,0.25604 11.13605,-21.74119 34.67869,-76.82595 18.14334,-42.45159 33.29921,-77.18471 33.6797,-77.18471 0.38049,0 15.44359,34.57167 33.47357,76.82595 20.17866,47.28983 33.4565,76.96334 34.53677,77.1833 1.28857,0.26237 10.67617,-20.5321 35.32104,-78.2397 25.98053,-60.83512 33.79452,-78.07646 34.57715,-76.29342 0.55612,1.26699 15.61067,36.45187 33.45455,78.18863 17.84388,41.73677 32.95862,76.05675 33.58832,76.26666 0.62969,0.20989 5.94582,-9.91171 11.81361,-22.49247 l 10.66871,-22.87409 11.36984,-0.33831 11.36984,-0.33831 -14.80412,34.74684 c -8.14226,19.11077 -18.04821,42.48877 -22.01321,51.95111 -3.96501,9.46235 -7.5433,17.58803 -7.95178,18.05708 -0.40848,0.46905 -15.61707,-33.86174 -33.79688,-76.29061 -24.65871,-57.54966 -33.51064,-77.05338 -34.85132,-76.78889 -1.13911,0.22472 -13.66932,28.15851 -34.22154,76.29061 -17.83342,41.76485 -32.85652,76.91758 -33.38464,78.11719 -0.71364,1.62095 -9.53004,-17.88083 -34.32933,-75.93608 -18.35299,-42.96445 -34.01991,-78.11718 -34.81535,-78.11718 -0.79545,0 -16.04877,34.17123 -33.89625,75.93607 -17.84749,41.76485 -32.86582,76.88099 -33.37406,78.03588 -0.66561,1.51248 -10.27442,-19.72714 -34.3535,-75.93608 l 0,0 z"
     style="fill:#000000;fill-opacity:1;stroke:none" /></g>

<g
   id="LWPOLYLINE_2_"
   style="stroke:none;fill:#000000;fill-opacity:1">
	
		
</g>
<g
   id="g4171"
   transform="translate(2.24473,0)"><g
     style="fill:#000000;fill-opacity:1;stroke:none"
     id="LWPOLYLINE">
	
		<path
   style="fill:#000000;fill-opacity:1;stroke:none"
   id="path4"
   d="m 209.323,615.119 v 0.546 0.547 0.547 l 0.02,0.547 v 0.547 0.547 0.546 l 0.02,0.547 0.02,0.586 0.02,0.547 0.02,0.547 0.02,0.585 0.02,0.547 0.039,0.547 0.039,0.586 0.039,0.547 0.059,0.547 0.059,0.546 0.059,0.586 0.078,0.547 0.078,0.547 0.078,0.547 0.098,0.546 0.117,0.547 0.098,0.547 0.137,0.547 0.116,0.547 0.156,0.547 0.137,0.546 0.176,0.508 0.176,0.547 0.176,0.508 0.195,0.508 0.215,0.508 0.234,0.546 0.234,0.469 0.254,0.508 0.254,0.508 0.273,0.469 0.293,0.508 0.312,0.507 0.332,0.508 0.371,0.508 0.371,0.469 0.391,0.43 0.41,0.43 0.43,0.43 0.449,0.39 0.468,0.391 0.488,0.352 0.488,0.312 0.488,0.352 0.527,0.312 0.508,0.273 0.526,0.273 0.547,0.273 0.547,0.234 0.547,0.234 0.547,0.194 0.547,0.195 0.565,0.195 0.547,0.195 0.566,0.156 0.547,0.156 0.547,0.117 0.547,0.156 0.546,0.117 0.527,0.078 0.527,0.117 0.527,0.078 0.508,0.078 0.488,0.039 0.487,0.078 0.469,0.039 0.469,0.039 0.449,0.039 h 0.41 l 0.41,0.039 h 0.391 0.37 l 1.816,-0.039 1.718,-0.117 1.641,-0.156 1.542,-0.234 1.465,-0.312 1.386,-0.391 1.309,-0.391 1.23,-0.468 1.151,-0.508 1.074,-0.586 1.016,-0.586 0.937,-0.664 0.879,-0.664 0.82,-0.741 0.761,-0.703 0.703,-0.781 0.645,-0.781 0.586,-0.819 0.527,-0.82 0.487,-0.82 0.449,-0.859 0.391,-0.858 0.371,-0.82 0.312,-0.859 0.273,-0.858 0.254,-0.82 0.195,-0.859 0.195,-0.82 0.156,-0.78 0.117,-0.781 0.098,-0.742 0.098,-0.742 0.059,-0.663 0.059,-0.664 0.02,-0.625 0.039,-0.586 v -0.547 l 0.019,-0.507 v -0.43 -0.391 c 0,-0.117 0,-0.508 0,-0.508 v -0.586 -0.859 -1.015 -1.25 -1.405 -1.602 -1.757 -1.875 -2.03 -2.147 -2.227 -2.349 -2.421 -2.46 -2.539 -2.577 -2.577 -2.616 -2.577 -2.616 -2.578 -2.499 -2.499 -2.421 -2.305 -2.265 -2.108 -2.03 -1.914 -1.718 -1.602 -1.405 -1.25 -1.055 -0.819 -0.625 -0.352 c -0.175,-0.156 -0.312,-0.156 -0.312,-0.156 -0.176,0 -0.371,0 -0.371,0 h -0.234 -0.254 -0.273 -0.312 -0.312 -0.352 -0.352 -0.39 -0.371 -0.41 -0.41 -0.41 -0.41 -0.43 -0.41 -0.429 -0.41 -0.41 -0.391 -0.391 -0.375 -0.371 -0.332 -0.331 -0.293 -0.293 -0.254 -0.234 c -0.195,0 -0.352,0 -0.352,0 -0.137,0 -0.234,0 -0.234,0 -0.078,0.117 -0.078,0.469 -0.078,0.469 v 0.547 0.741 0.938 1.094 1.288 1.445 1.562 1.68 1.796 1.914 2.03 2.069 2.188 2.226 2.265 2.305 2.304 2.343 2.343 2.344 2.265 2.265 2.226 2.188 2.069 2.03 1.914 1.796 1.719 1.562 1.406 1.288 1.094 0.938 0.741 0.547 0.352 c 0,0.117 -0.02,0.938 -0.02,0.938 v 0.859 0.819 l -0.02,0.859 -0.039,0.82 -0.02,0.819 -0.039,0.82 -0.059,0.82 -0.059,0.781 -0.078,0.78 -0.098,0.781 -0.098,0.781 -0.117,0.781 -0.137,0.741 -0.156,0.703 -0.176,0.742 -0.195,0.664 -0.214,0.703 -0.234,0.663 -0.254,0.625 -0.273,0.625 -0.312,0.586 -0.332,0.586 -0.371,0.546 -0.371,0.508 -0.43,0.508 -0.448,0.469 -0.469,0.469 -0.527,0.391 -0.547,0.391 -0.566,0.351 -0.625,0.312 -0.644,0.273 -0.684,0.273 -0.742,0.195 -0.762,0.195 -0.8,0.156 -0.859,0.078 -0.898,0.078 h -0.938 -0.819 l -0.762,-0.078 -0.742,-0.117 -0.684,-0.156 -0.644,-0.195 -0.625,-0.234 -0.566,-0.273 -0.547,-0.312 -0.488,-0.352 -0.488,-0.39 -0.429,-0.43 -0.41,-0.43 -0.371,-0.469 -0.352,-0.508 -0.312,-0.508 -0.312,-0.546 -0.254,-0.586 -0.254,-0.586 -0.234,-0.586 -0.195,-0.625 -0.194,-0.664 -0.156,-0.624 -0.156,-0.664 -0.137,-0.664 -0.117,-0.703 -0.098,-0.663 -0.098,-0.703 -0.098,-0.703 -0.078,-0.703 -0.059,-0.703 -0.059,-0.663 -0.059,-0.703 -0.039,-0.703 -0.059,-0.664 -0.039,-0.702 -0.059,-0.664 -0.039,-0.625 -0.059,-0.664 -0.039,-0.625 -0.059,-0.585 h -12.005 z"
   stroke-miterlimit="10"
   inkscape:connector-curvature="0" />
</g><g
     style="fill:#000000;fill-opacity:1;stroke:none"
     id="LWPOLYLINE_1_">
	
		<path
   id="path7"
   d="m 304.5,549.5 -1.4375,0.0625 -1.375,0.0625 -1.34375,0.0937 -1.3125,0.15625 -1.28125,0.1875 -1.25,0.1875 -1.21875,0.28125 -1.15625,0.3125 -1.125,0.34375 -1.09375,0.40625 -1.0625,0.375 -1.03125,0.46875 -1,0.5 -0.9375,0.53125 -0.90625,0.5625 -0.90625,0.59375 -0.8125,0.65625 -0.84375,0.6875 -0.75,0.71875 -0.75,0.75 -0.6875,0.78125 -0.65625,0.8125 -0.65625,0.8125 -0.59375,0.90625 -0.5625,0.90625 -0.5,0.96875 -0.5,0.96875 -0.4375,1.03125 -0.40625,1.0625 -0.40625,1.03125 -0.3125,1.09375 -0.3125,1.15625 -0.28125,1.15625 -0.25,1.21875 -0.1875,1.21875 -0.15625,1.25 -0.125,1.28125 -0.0937,1.3125 -0.0625,1.34375 0,1.375 0,0.21875 0,0.28125 0,0.34375 0,0.46875 0,0.5 0,0.625 0,0.71875 0,0.78125 0,0.8125 0,0.84375 0,0.9375 0,1 0,1 0,1.0625 0,1.09375 0,1.09375 0,1.125 0,1.125 0,1.15625 0,1.125 0,1.125 0,1.125 0,1.09375 0,1.09375 0,1.0625 0,1.03125 0,0.96875 0,0.9375 0,0.90625 0,0.8125 0,0.75 0,0.6875 0,0.625 0,0.5625 0,0.46875 0,0.34375 0,0.28125 0,0.1875 0,1.90625 0.0625,1.84375 0.0937,1.75 0.125,1.71875 0.15625,1.6875 0.1875,1.59375 0.25,1.5625 0.28125,1.53125 0.3125,1.4375 0.3125,1.40625 0.40625,1.3125 0.40625,1.3125 0.4375,1.25 0.5,1.1875 0.5,1.15625 0.5625,1.09375 0.59375,1.03125 0.65625,1 0.65625,0.9375 0.6875,0.875 0.75,0.875 0.75,0.78125 0.84375,0.75 0.8125,0.6875 0.90625,0.65625 0.90625,0.625 0.9375,0.5625 1,0.53125 1.03125,0.46875 1.0625,0.4375 1.09375,0.40625 1.125,0.34375 1.15625,0.3125 1.21875,0.28125 1.25,0.1875 1.28125,0.1875 1.3125,0.125 1.34375,0.125 1.375,0.0625 1.4375,0 1.40625,0 1.40625,-0.0625 1.34375,-0.125 1.3125,-0.125 L 311.25,645 l 1.21875,-0.1875 1.21875,-0.28125 1.15625,-0.3125 L 316,643.875 l 1.09375,-0.40625 1.09375,-0.4375 1,-0.46875 0.96875,-0.53125 1,-0.5625 0.875,-0.625 0.90625,-0.65625 0.8125,-0.6875 0.84375,-0.75 0.78125,-0.78125 0.71875,-0.875 0.71875,-0.875 0.65625,-0.9375 0.625,-1 0.59375,-1.03125 0.53125,-1.09375 0.5625,-1.15625 0.46875,-1.1875 0.46875,-1.25 0.375,-1.3125 0.40625,-1.3125 0.34375,-1.40625 0.3125,-1.4375 0.28125,-1.53125 0.21875,-1.5625 0.1875,-1.59375 L 333,616.71875 333.125,615 l 0.0937,-1.75 0.0625,-1.84375 0,-1.90625 0,-0.1875 0,-0.28125 0,-0.34375 0,-0.46875 0,-0.5625 0,-0.625 0,-0.6875 0,-0.75 0,-0.8125 0,-0.90625 0,-0.9375 0,-0.96875 0,-1.03125 0,-1.0625 0,-1.09375 0,-1.09375 0,-1.125 0,-1.125 0,-1.125 0,-1.15625 0,-1.125 0,-1.125 0,-1.09375 0,-1.09375 0,-1.0625 0,-1 0,-1 0,-0.9375 0,-0.84375 0,-0.8125 0,-0.78125 0,-0.71875 0,-0.625 0,-0.5 0,-0.46875 0,-0.34375 0,-0.28125 0,-0.21875 0,-1.375 -0.0625,-1.34375 -0.0937,-1.3125 -0.125,-1.28125 -0.15625,-1.25 -0.1875,-1.21875 -0.21875,-1.21875 -0.28125,-1.15625 -0.3125,-1.15625 -0.34375,-1.09375 -0.40625,-1.03125 -0.375,-1.0625 -0.46875,-1.03125 -0.46875,-0.96875 -0.5625,-0.96875 -0.53125,-0.90625 -0.59375,-0.90625 -0.625,-0.8125 -0.65625,-0.8125 -0.71875,-0.78125 -0.71875,-0.75 -0.78125,-0.71875 -0.84375,-0.6875 -0.8125,-0.65625 -0.90625,-0.59375 -0.875,-0.5625 -1,-0.53125 -0.96875,-0.5 -1,-0.46875 -1.09375,-0.375 L 316,551.1875 l -1.15625,-0.34375 -1.15625,-0.3125 -1.21875,-0.28125 -1.21875,-0.1875 -1.28125,-0.1875 -1.3125,-0.15625 -1.34375,-0.0937 -1.40625,-0.0625 L 304.5,549.5 z m -0.65625,9.625 0.34375,0 0.3125,0 0.3125,0 0.375,0 0.34375,0.0312 0.4375,0 0.40625,0.0312 0.4375,0.0625 0.46875,0.0312 0.5,0.0625 0.53125,0.0937 0.5,0.125 0.53125,0.0937 0.5625,0.15625 0.53125,0.15625 0.5625,0.21875 0.59375,0.21875 0.53125,0.25 0.59375,0.25 0.59375,0.3125 0.53125,0.3125 0.5625,0.40625 0.53125,0.375 0.5625,0.46875 0.53125,0.46875 0.5,0.5625 0.53125,0.53125 0.46875,0.625 0.46875,0.6875 0.40625,0.6875 0.4375,0.75 0.40625,0.8125 0.34375,0.84375 0.34375,0.90625 0.3125,0.96875 0.28125,1.03125 0.21875,1.09375 0.21875,1.125 0.15625,1.21875 0.0625,1.28125 0.0937,1.34375 0.0312,1.40625 0,0.21875 0,0.28125 0,0.375 0,0.4375 0,0.59375 0,0.625 0,0.6875 0,0.78125 0,0.875 0,0.90625 0,0.96875 0,0.96875 0,1.0625 0,1.09375 0,1.09375 0,1.125 0,1.1875 0,1.15625 0,1.1875 0,1.125 0,1.15625 0,1.1875 0,1.125 0,1.09375 0,1.09375 0,1.0625 0,0.96875 0,0.96875 0,0.90625 0,0.84375 0,0.78125 0,0.71875 0,0.625 0,0.59375 0,0.46875 0,0.34375 0,0.28125 0,0.21875 0,1.5 -0.0312,1.40625 -0.0937,1.34375 -0.0312,1.34375 -0.125,1.25 -0.125,1.21875 -0.0937,1.15625 -0.15625,1.125 -0.21875,1.0625 -0.1875,1.03125 -0.21875,0.96875 -0.25,0.9375 -0.25,0.90625 -0.28125,0.84375 -0.3125,0.78125 -0.3125,0.78125 -0.34375,0.6875 -0.375,0.71875 -0.375,0.625 -0.4375,0.625 -0.4375,0.53125 -0.40625,0.5625 -0.46875,0.46875 -0.53125,0.46875 -0.5,0.4375 -0.53125,0.375 -0.5625,0.34375 -0.59375,0.3125 -0.5625,0.3125 -0.625,0.28125 -0.625,0.25 -0.6875,0.1875 -0.6875,0.1875 -0.71875,0.15625 -0.6875,0.125 -0.75,0.125 -0.78125,0.0625 -0.78125,0.0312 -0.8125,0.0625 -0.84375,0 -0.8125,0 -0.8125,-0.0625 -0.78125,-0.0312 -0.78125,-0.0625 -0.75,-0.125 -0.75,-0.125 -0.6875,-0.15625 -0.65625,-0.1875 -0.6875,-0.1875 -0.625,-0.25 -0.625,-0.28125 -0.625,-0.3125 -0.53125,-0.3125 -0.59375,-0.34375 -0.5,-0.375 -0.5,-0.4375 -0.53125,-0.46875 -0.46875,-0.46875 -0.46875,-0.5625 L 291.90625,630.625 291.5,630 l -0.375,-0.625 -0.40625,-0.71875 -0.3125,-0.6875 -0.34375,-0.78125 -0.3125,-0.78125 -0.28125,-0.84375 -0.28125,-0.90625 -0.21875,-0.9375 -0.1875,-0.96875 -0.25,-1.03125 -0.15625,-1.0625 -0.15625,-1.125 -0.15625,-1.15625 -0.0937,-1.21875 -0.0937,-1.25 -0.0625,-1.34375 -0.0625,-1.34375 -0.0312,-1.40625 0,-1.5 0,-0.21875 0,-0.28125 0,-0.34375 0,-0.46875 0,-0.59375 0,-0.625 0,-0.71875 0,-0.78125 0,-0.84375 0,-0.90625 0,-0.96875 0,-0.96875 0,-1.0625 0,-1.09375 0,-1.09375 0,-1.125 0,-1.1875 0,-1.15625 0,-1.125 0,-1.1875 0,-1.15625 0,-1.1875 0,-1.125 0,-1.09375 0,-1.09375 0,-1.0625 0,-0.96875 0,-0.96875 0,-0.90625 0,-0.875 0,-0.78125 0,-0.6875 0,-0.625 0,-0.59375 0,-0.4375 0,-0.375 0,-0.28125 0,-0.21875 0,-1.40625 0.0937,-1.34375 0.0937,-1.28125 0.15625,-1.21875 0.21875,-1.125 0.21875,-1.09375 0.28125,-1.03125 0.3125,-0.96875 0.3125,-0.90625 0.375,-0.84375 0.40625,-0.8125 0.375,-0.75 0.46875,-0.6875 0.4375,-0.6875 0.5,-0.625 0.5,-0.53125 L 293,563.25 l 0.5,-0.46875 0.53125,-0.46875 0.5625,-0.375 0.59375,-0.40625 0.53125,-0.3125 0.59375,-0.3125 0.53125,-0.25 0.59375,-0.25 0.5625,-0.21875 0.5625,-0.21875 0.5625,-0.15625 0.53125,-0.15625 0.53125,-0.0937 0.53125,-0.125 0.5,-0.0937 0.46875,-0.0625 0.46875,-0.0312 0.46875,-0.0625 0.4375,-0.0312 0.40625,0 0.375,-0.0312 z"
   style="fill:#000000;fill-opacity:1;stroke:none"
   inkscape:connector-curvature="0" />
</g><g
     style="fill:#000000;fill-opacity:1;stroke:none"
     id="LWPOLYLINE_3_">
	
		<path
   style="fill:#000000;fill-opacity:1;stroke:none"
   id="path13"
   d="m 408.46,575.912 v -1.405 l -0.039,-1.367 -0.117,-1.328 -0.117,-1.288 -0.117,-1.25 -0.195,-1.21 -0.234,-1.133 -0.234,-1.133 -0.272,-1.054 -0.352,-1.055 -0.352,-0.977 -0.391,-0.937 -0.43,-0.938 -0.43,-0.859 -0.508,-0.859 -0.546,-0.78 -0.547,-0.742 -0.586,-0.742 -0.664,-0.664 -0.664,-0.663 -0.702,-0.625 -0.742,-0.547 -0.781,-0.547 -0.82,-0.508 -0.858,-0.469 -0.898,-0.468 -0.898,-0.391 -0.977,-0.352 -1.015,-0.352 -1.016,-0.312 -1.094,-0.273 -1.093,-0.234 -1.172,-0.234 -1.171,-0.195 -1.25,-0.156 -1.25,-0.117 -1.288,-0.078 -1.367,-0.077 -1.366,-0.039 -1.445,-0.039 -1.405,0.039 -1.367,0.078 -1.367,0.077 -1.327,0.156 -1.25,0.195 -1.249,0.195 -1.211,0.273 -1.172,0.312 -1.132,0.352 -1.094,0.391 -1.055,0.391 -1.054,0.469 -0.977,0.507 -0.938,0.508 -0.937,0.586 -0.859,0.586 -0.859,0.664 -0.819,0.663 -0.781,0.742 -0.742,0.742 -0.703,0.781 -0.664,0.819 -0.624,0.82 -0.586,0.898 -0.547,0.898 -0.547,0.976 -0.469,0.977 -0.469,1.016 -0.39,1.054 -0.391,1.055 -0.352,1.094 -0.273,1.132 -0.273,1.172 -0.234,1.211 -0.195,1.21 -0.195,1.25 -0.117,1.288 -0.078,1.328 -0.039,1.328 -0.039,1.366 c 0,0.078 0,0.234 0,0.234 v 0.273 0.352 0.469 0.507 0.625 0.703 0.781 0.82 0.858 0.938 0.977 1.015 1.055 1.094 1.093 1.133 1.133 1.132 1.133 1.132 1.133 1.094 1.093 1.055 1.016 0.976 0.938 0.898 0.82 0.741 0.703 0.625 0.547 0.469 0.352 0.272 c 0,0.156 0,0.195 0,0.195 l 0.039,1.914 0.039,1.835 0.078,1.758 0.117,1.718 0.195,1.68 0.195,1.601 0.234,1.562 0.273,1.523 0.273,1.445 0.352,1.405 0.391,1.328 0.39,1.288 0.469,1.25 0.469,1.21 0.547,1.133 0.547,1.094 0.586,1.054 0.624,0.977 0.664,0.938 0.703,0.898 0.742,0.858 0.781,0.781 0.819,0.742 0.859,0.703 0.859,0.663 0.937,0.625 0.938,0.547 0.977,0.547 1.054,0.469 1.055,0.429 1.094,0.391 1.132,0.352 1.172,0.312 1.211,0.273 1.249,0.195 1.25,0.195 1.327,0.117 1.367,0.117 1.367,0.078 h 1.405 0.898 l 0.898,-0.039 h 0.858 l 0.859,-0.039 0.82,-0.078 0.819,-0.039 0.82,-0.078 0.781,-0.078 0.781,-0.117 0.78,-0.078 0.781,-0.117 0.742,-0.117 0.742,-0.156 0.741,-0.117 0.703,-0.156 0.703,-0.156 0.703,-0.195 0.703,-0.156 0.702,-0.195 0.664,-0.194 0.664,-0.195 0.664,-0.195 0.663,-0.234 0.664,-0.195 0.625,-0.234 0.664,-0.234 0.625,-0.234 0.624,-0.234 0.625,-0.273 0.625,-0.234 0.625,-0.273 0.625,-0.273 0.585,-0.273 0.625,-0.272 0.586,-0.273 0.625,-0.273 0.586,-0.312 0.586,-0.273 0.624,-0.312 0.586,-0.273 c 0,-0.078 0,-0.352 0,-0.352 v -0.391 -0.507 -0.703 -0.781 -0.898 -1.054 -1.094 -1.25 -1.288 -1.367 -1.444 -1.484 -1.562 -1.602 -1.64 -1.641 -1.679 -1.68 -1.679 -1.641 -1.679 -1.641 -1.562 -1.562 -1.522 -1.406 -1.405 -1.289 -1.21 -1.133 -1.016 -0.937 -0.781 -0.664 -0.547 -0.391 -0.234 c -0.039,-0.078 -0.195,-0.078 -0.195,-0.078 h -0.273 -0.312 -0.429 -0.547 -0.586 -0.625 -0.742 -0.78 -0.82 -0.898 -0.938 -0.976 -0.977 -1.016 -1.054 -1.055 -1.094 -1.054 -1.094 -1.094 -1.054 -1.055 -1.016 -0.976 -0.977 -0.938 -0.858 -0.859 -0.781 -0.703 -0.663 -0.586 -0.508 -0.43 -0.352 -0.273 c -0.156,0 -0.195,0 -0.195,0 0,0.156 0,0.273 0,0.273 0,0.156 0,0.352 0,0.352 v 0.195 0.234 0.273 0.273 0.312 0.312 0.352 0.352 0.351 0.391 0.352 0.391 0.391 0.391 0.391 0.391 0.39 0.352 0.391 0.352 0.352 0.352 0.312 0.273 0.312 0.233 0.234 0.234 c 0,0.195 0,0.352 0,0.352 0,0.117 0,0.195 0,0.195 0.117,0.078 0.273,0.078 0.273,0.078 h 0.195 0.234 0.312 0.352 0.391 0.391 0.469 0.507 0.508 0.547 0.547 0.586 0.585 0.625 0.625 0.625 0.625 0.624 0.625 0.625 0.625 0.586 0.585 0.547 0.547 0.508 0.508 0.43 0.43 0.39 0.352 0.312 0.234 0.195 c 0.156,0 0.234,0 0.234,0 0.039,0.195 0.039,0.43 0.039,0.43 v 0.352 0.391 0.469 0.585 0.586 0.703 0.742 0.781 0.819 0.898 0.898 0.937 0.977 0.977 1.015 1.016 1.016 1.015 1.016 1.016 0.977 0.976 0.938 0.938 0.858 0.82 0.82 0.742 0.663 0.625 0.547 0.469 0.43 0.312 0.234 c 0,0.194 -0.195,0.39 -0.195,0.39 -0.195,0.195 -0.391,0.352 -0.391,0.352 l -0.234,0.195 -0.234,0.156 -0.234,0.195 -0.273,0.156 -0.272,0.195 -0.273,0.156 -0.273,0.156 -0.312,0.195 -0.312,0.156 -0.312,0.156 -0.352,0.156 -0.352,0.156 -0.352,0.156 -0.352,0.156 -0.39,0.155 -0.391,0.117 -0.391,0.156 -0.43,0.117 -0.391,0.156 -0.43,0.117 -0.469,0.117 -0.429,0.117 -0.469,0.078 -0.469,0.117 -0.469,0.078 -0.508,0.117 -0.508,0.078 -0.508,0.078 -0.507,0.039 -0.547,0.078 -0.547,0.039 -0.547,0.078 h -0.547 l -0.585,0.039 -0.547,0.039 h -0.586 -0.625 -0.82 l -0.819,-0.039 -0.781,-0.039 -0.742,-0.078 -0.742,-0.117 -0.741,-0.117 -0.703,-0.156 -0.664,-0.195 -0.664,-0.195 -0.664,-0.234 -0.624,-0.273 -0.586,-0.312 -0.586,-0.312 -0.547,-0.352 -0.547,-0.391 -0.507,-0.43 -0.469,-0.469 -0.508,-0.469 -0.43,-0.547 -0.43,-0.546 -0.43,-0.625 -0.391,-0.625 -0.352,-0.703 -0.351,-0.703 -0.312,-0.78 -0.312,-0.781 -0.273,-0.859 -0.273,-0.897 -0.234,-0.938 -0.234,-0.977 -0.195,-1.016 -0.156,-1.054 -0.156,-1.133 -0.156,-1.171 -0.117,-1.211 -0.078,-1.25 -0.078,-1.327 -0.078,-1.367 V 611.8 l -0.039,-1.484 c 0,-0.078 0,-0.234 0,-0.234 v -0.273 -0.352 -0.468 -0.586 -0.625 -0.703 -0.781 -0.858 -0.898 -0.977 -0.976 -1.055 -1.094 -1.093 -1.133 -1.172 -1.171 -1.133 -1.172 -1.171 -1.172 -1.132 -1.094 -1.093 -1.054 -0.977 -0.977 -0.897 -0.859 -0.781 -0.703 -0.625 -0.585 -0.43 -0.391 -0.273 c 0,-0.156 0,-0.234 0,-0.234 l 0.039,-1.405 0.078,-1.328 0.117,-1.289 0.156,-1.21 0.195,-1.133 0.234,-1.094 0.234,-1.015 0.312,-0.977 0.352,-0.898 0.352,-0.858 0.391,-0.82 0.43,-0.742 0.429,-0.703 0.469,-0.663 0.469,-0.625 0.508,-0.547 0.508,-0.547 0.547,-0.469 0.546,-0.469 0.547,-0.39 0.547,-0.391 0.586,-0.312 0.547,-0.312 0.586,-0.273 0.546,-0.234 0.586,-0.234 0.547,-0.195 0.547,-0.156 0.547,-0.156 0.546,-0.117 0.508,-0.117 0.508,-0.078 0.508,-0.078 0.469,-0.039 0.469,-0.039 0.391,-0.039 h 0.429 l 0.352,-0.039 h 0.352 0.312 0.859 l 0.781,0.039 0.78,0.078 0.742,0.039 0.703,0.117 0.703,0.117 0.663,0.117 0.664,0.156 0.625,0.195 0.586,0.195 0.586,0.234 0.546,0.234 0.508,0.273 0.508,0.273 0.508,0.312 0.43,0.312 0.43,0.351 0.43,0.352 0.39,0.391 0.352,0.43 0.352,0.43 0.352,0.43 0.312,0.469 0.273,0.508 0.273,0.507 0.234,0.547 0.234,0.547 0.234,0.586 0.195,0.586 0.155,0.624 0.156,0.625 0.156,0.664 0.117,0.703 0.078,0.703 0.117,0.702 0.039,0.781 0.078,0.742 0.039,0.781 v 0.819 l 0.039,0.82 h 12.773 z"
   stroke-miterlimit="10"
   inkscape:connector-curvature="0" />
</g></g>




































</svg>