<?xml version="1.0" encoding="UTF-8" standalone="no"?>
<!-- Generator: Adobe Illustrator 16.0.1, SVG Export Plug-In . SVG Version: 6.00 Build 0)  -->

<svg
   xmlns:dc="http://purl.org/dc/elements/1.1/"
   xmlns:cc="http://creativecommons.org/ns#"
   xmlns:rdf="http://www.w3.org/1999/02/22-rdf-syntax-ns#"
   xmlns:svg="http://www.w3.org/2000/svg"
   xmlns="http://www.w3.org/2000/svg"
   xmlns:sodipodi="http://sodipodi.sourceforge.net/DTD/sodipodi-0.dtd"
   xmlns:inkscape="http://www.inkscape.org/namespaces/inkscape"
   version="1.0"
   id="_x31_"
   x="0px"
   y="0px"
   width="612px"
   height="792px"
   viewBox="0 0 612 792"
   enable-background="new 0 0 612 792"
   xml:space="preserve"
   inkscape:version="0.48.2 r9819"
   sodipodi:docname="7004.svg"><metadata
   id="metadata34"><rdf:RDF><cc:Work
       rdf:about=""><dc:format>image/svg+xml</dc:format><dc:type
         rdf:resource="http://purl.org/dc/dcmitype/StillImage" /></cc:Work></rdf:RDF></metadata><defs
   id="defs32" /><sodipodi:namedview
   pagecolor="#ffffff"
   bordercolor="#666666"
   borderopacity="1"
   objecttolerance="10"
   gridtolerance="10"
   guidetolerance="10"
   inkscape:pageopacity="0"
   inkscape:pageshadow="2"
   inkscape:window-width="1920"
   inkscape:window-height="1071"
   id="namedview30"
   showgrid="false"
   inkscape:zoom="0.84281414"
   inkscape:cx="-4.4998887"
   inkscape:cy="286.01211"
   inkscape:window-x="0"
   inkscape:window-y="0"
   inkscape:window-maximized="1"
   inkscape:current-layer="_x31_" />
<g
   id="LWPOLYLINE_4_"
   style="stroke:none;fill:#000000;fill-opacity:1">
	
		<path
   style="stroke:none;fill:#000000;fill-opacity:1"
   d="M 293.96875 461.75 C 293.92975 461.749 223.3125 628.0625 223.3125 628.0625 L 223.6875 628.0625 L 224 628.0625 L 224.375 628.0625 L 224.78125 628.0625 L 225.28125 628.0625 L 225.8125 628.0625 L 226.4375 628.0625 L 227.09375 628.0625 L 227.8125 628.0625 L 228.53125 628.0625 L 229.3125 628.0625 L 230.125 628.0625 L 230.96875 628.0625 L 231.8125 628.0625 L 232.71875 628.0625 L 233.59375 628.0625 L 234.5 628.0625 L 235.40625 628.0625 L 236.3125 628.0625 L 237.21875 628.0625 L 238.09375 628.0625 L 239 628.0625 L 239.84375 628.0625 L 240.6875 628.0625 L 241.5 628.0625 L 242.28125 628.0625 L 243 628.0625 L 243.71875 628.0625 L 244.375 628.0625 L 244.96875 628.0625 L 245.53125 628.0625 L 246.03125 628.0625 L 246.46875 628.0625 L 246.8125 628.0625 L 247.125 628.0625 L 247.4375 628.0625 C 247.5085 628.0155 247.625 627.78125 247.625 627.78125 L 247.78125 627.40625 L 248 626.90625 L 248.25 626.21875 L 248.5625 625.4375 L 248.90625 624.59375 L 249.3125 623.59375 L 249.75 622.46875 L 250.21875 621.28125 L 250.71875 620.03125 L 251.25 618.6875 L 251.8125 617.3125 L 252.40625 615.84375 L 253 614.34375 L 253.625 612.78125 L 254.25 611.21875 L 254.90625 609.59375 L 255.5625 607.96875 L 256.21875 606.34375 L 256.84375 604.6875 L 257.5 603.09375 L 258.15625 601.5 L 258.78125 599.875 L 259.40625 598.3125 L 260 596.84375 L 260.59375 595.40625 L 261.15625 593.96875 L 261.6875 592.65625 L 262.1875 591.375 L 262.65625 590.1875 L 263.09375 589.125 L 263.5 588.125 L 263.84375 587.21875 L 264.15625 586.4375 L 264.4375 585.8125 L 264.625 585.28125 L 264.78125 584.90625 C 264.87625 584.67025 264.90625 584.59375 264.90625 584.59375 L 265.46875 584.59375 L 266.15625 584.59375 L 267.09375 584.59375 L 268.28125 584.59375 L 269.65625 584.59375 L 271.25 584.59375 L 273.0625 584.59375 L 275.03125 584.59375 L 277.15625 584.59375 L 279.4375 584.59375 L 281.84375 584.59375 L 284.34375 584.59375 L 286.96875 584.59375 L 289.6875 584.59375 L 292.46875 584.59375 L 295.34375 584.59375 L 298.21875 584.59375 L 301.15625 584.59375 L 304.0625 584.59375 L 307 584.59375 L 309.9375 584.59375 L 312.8125 584.59375 L 315.6875 584.59375 L 318.46875 584.59375 L 321.15625 584.59375 L 323.8125 584.59375 L 326.3125 584.59375 L 328.71875 584.59375 L 331 584.59375 L 333.125 584.59375 L 335.09375 584.59375 L 336.90625 584.59375 L 338.5 584.59375 L 339.875 584.59375 L 341.0625 584.59375 L 342 584.59375 L 342.65625 584.59375 L 343.09375 584.59375 C 343.28275 584.68775 343.375 584.90625 343.375 584.90625 L 343.5 585.28125 L 343.75 585.8125 L 343.96875 586.4375 L 344.3125 587.21875 L 344.625 588.125 L 345.0625 589.125 L 345.5 590.1875 L 345.96875 591.375 L 346.46875 592.65625 L 347 593.96875 L 347.5625 595.40625 L 348.125 596.84375 L 348.75 598.3125 L 349.375 599.875 L 350.03125 601.5 L 350.625 603.09375 L 351.28125 604.6875 L 351.96875 606.34375 L 352.625 607.96875 L 353.21875 609.59375 L 353.90625 611.21875 L 354.5 612.78125 L 355.125 614.34375 L 355.71875 615.84375 L 356.34375 617.3125 L 356.90625 618.6875 L 357.4375 620.03125 L 357.9375 621.28125 L 358.4375 622.46875 L 358.84375 623.59375 L 359.21875 624.59375 L 359.59375 625.4375 L 359.875 626.21875 L 360.1875 626.90625 L 360.375 627.40625 L 360.5 627.78125 C 360.595 628.01725 360.65625 628.0625 360.65625 628.0625 L 361.0625 628.0625 L 361.34375 628.0625 L 361.71875 628.0625 L 362.15625 628.0625 L 362.6875 628.0625 L 363.25 628.0625 L 363.90625 628.0625 L 364.5625 628.0625 L 365.3125 628.0625 L 366.0625 628.0625 L 366.875 628.0625 L 367.71875 628.0625 L 368.625 628.0625 L 369.53125 628.0625 L 370.40625 628.0625 L 371.375 628.0625 L 372.25 628.0625 L 373.21875 628.0625 L 374.15625 628.0625 L 375.09375 628.0625 L 376.03125 628.0625 L 376.9375 628.0625 L 377.84375 628.0625 L 378.71875 628.0625 L 379.53125 628.0625 L 380.375 628.0625 L 381.125 628.0625 L 381.84375 628.0625 L 382.5625 628.0625 L 383.15625 628.0625 L 383.71875 628.0625 L 384.25 628.0625 L 384.71875 628.0625 L 385.09375 628.0625 L 385.375 628.0625 L 385.75 628.0625 C 385.797 628.0625 385.65625 627.78125 385.65625 627.78125 L 385.28125 626.90625 L 384.71875 625.4375 L 383.875 623.4375 L 382.875 620.9375 L 381.65625 617.96875 L 380.28125 614.625 L 378.71875 610.78125 L 377.0625 606.625 L 375.21875 602.09375 L 373.25 597.28125 L 371.1875 592.1875 L 369 586.8125 L 366.71875 581.21875 L 364.375 575.46875 L 361.96875 569.5625 L 359.5 563.46875 L 357 557.34375 L 354.5 551.15625 L 351.9375 544.90625 L 349.40625 538.6875 L 346.90625 532.5 L 344.40625 526.34375 L 341.9375 520.3125 L 339.53125 514.375 L 337.1875 508.59375 L 334.90625 503.03125 L 332.71875 497.6875 L 330.65625 492.59375 L 328.6875 487.71875 L 326.84375 483.25 L 325.125 479.03125 L 323.5625 475.25 L 322.1875 471.875 L 321.03125 468.875 L 319.96875 466.4375 L 319.1875 464.40625 L 318.5625 462.9375 L 318.25 462.03125 L 318.09375 461.75 L 317.71875 461.75 L 317.4375 461.75 L 317.0625 461.75 L 316.625 461.75 L 316.09375 461.75 L 315.59375 461.75 L 314.96875 461.75 L 314.3125 461.75 L 313.59375 461.75 L 312.84375 461.75 L 312.09375 461.75 L 311.28125 461.75 L 310.4375 461.75 L 309.59375 461.75 L 308.6875 461.75 L 307.8125 461.75 L 306.90625 461.75 L 306 461.75 L 305.09375 461.75 L 304.1875 461.75 L 303.3125 461.75 L 302.40625 461.75 L 301.5625 461.75 L 300.71875 461.75 L 299.90625 461.75 L 299.125 461.75 L 298.40625 461.75 L 297.6875 461.75 L 297.03125 461.75 L 296.40625 461.75 L 295.875 461.75 L 295.375 461.75 L 294.96875 461.75 L 294.59375 461.75 L 294.28125 461.75 L 293.96875 461.75 z M 304.5625 484.9375 C 304.6105 485.1255 304.78125 485.5625 304.78125 485.5625 L 305.0625 486.25 L 305.40625 487.25 L 305.90625 488.4375 L 306.4375 489.90625 L 307.0625 491.5625 L 307.75 493.40625 L 308.5625 495.4375 L 309.40625 497.65625 L 310.3125 500 L 311.25 502.5 L 312.25 505.09375 L 313.28125 507.84375 L 314.375 510.6875 L 315.46875 513.5625 L 316.59375 516.5 L 317.71875 519.5 L 318.84375 522.53125 L 320.03125 525.59375 L 321.21875 528.625 L 322.34375 531.65625 L 323.5 534.65625 L 324.625 537.59375 L 325.71875 540.46875 L 326.78125 543.3125 L 327.84375 546.03125 L 328.8125 548.65625 L 329.78125 551.15625 L 330.65625 553.5 L 331.5 555.71875 L 332.28125 557.75 L 332.96875 559.59375 L 333.625 561.25 L 334.15625 562.71875 L 334.625 563.9375 L 335 564.875 L 335.28125 565.59375 L 335.4375 566.0625 C 335.3895 566.2035 335.0625 566.21875 335.0625 566.21875 L 334.5 566.21875 L 333.71875 566.21875 L 332.78125 566.21875 L 331.6875 566.21875 L 330.4375 566.21875 L 328.96875 566.21875 L 327.40625 566.21875 L 325.71875 566.21875 L 323.875 566.21875 L 321.9375 566.21875 L 319.90625 566.21875 L 317.8125 566.21875 L 315.59375 566.21875 L 313.375 566.21875 L 311.125 566.21875 L 308.8125 566.21875 L 306.4375 566.21875 L 304.0625 566.21875 L 301.71875 566.21875 L 299.375 566.21875 L 297.0625 566.21875 L 294.78125 566.21875 L 292.53125 566.21875 L 290.375 566.21875 L 288.25 566.21875 L 286.21875 566.21875 L 284.28125 566.21875 L 282.46875 566.21875 L 280.78125 566.21875 L 279.1875 566.21875 L 277.75 566.21875 L 276.46875 566.21875 L 275.34375 566.21875 L 274.40625 566.21875 L 273.65625 566.21875 L 273.09375 566.21875 L 272.78125 566.21875 C 272.65825 566.22075 304.5625 484.9375 304.5625 484.9375 z "
   id="path16" />
</g><g
   id="LWPOLYLINE_6_"
   style="stroke:none;fill:#000000;fill-opacity:1">
	
		<path
   style="stroke:none;fill:#000000;fill-opacity:1"
   d="M 408.15625 461.75 C 408.05725 461.741 408.0625 628.0625 408.0625 628.0625 L 408.4375 628.0625 L 408.6875 628.0625 L 409.0625 628.0625 L 409.4375 628.0625 L 409.9375 628.0625 L 410.46875 628.0625 L 411.03125 628.0625 L 411.65625 628.0625 L 412.375 628.0625 L 413.0625 628.0625 L 413.8125 628.0625 L 414.59375 628.0625 L 415.375 628.0625 L 416.21875 628.0625 L 417.09375 628.0625 L 417.9375 628.0625 L 418.78125 628.0625 L 419.625 628.0625 L 420.53125 628.0625 L 421.375 628.0625 L 422.21875 628.0625 L 423.09375 628.0625 L 423.9375 628.0625 L 424.75 628.0625 L 425.5 628.0625 L 426.25 628.0625 L 426.96875 628.0625 L 427.625 628.0625 L 428.28125 628.0625 L 428.84375 628.0625 L 429.375 628.0625 L 429.84375 628.0625 L 430.25 628.0625 L 430.59375 628.0625 L 430.875 628.0625 L 431.21875 628.0625 C 431.26575 627.9195 431.25 627.5625 431.25 627.5625 L 431.25 626.90625 L 431.25 626 L 431.25 624.875 L 431.25 623.5 L 431.25 621.96875 L 431.25 620.21875 L 431.25 618.34375 L 431.25 616.3125 L 431.25 614.09375 L 431.25 611.78125 L 431.25 609.375 L 431.25 606.8125 L 431.25 604.21875 L 431.25 601.53125 L 431.25 598.78125 L 431.25 596 L 431.25 593.21875 L 431.25 590.40625 L 431.25 587.5625 L 431.25 584.71875 L 431.25 581.9375 L 431.25 579.1875 L 431.25 576.5 L 431.25 573.90625 L 431.25 571.375 L 431.25 568.9375 L 431.25 566.625 L 431.25 564.46875 L 431.25 562.375 L 431.25 560.5 L 431.25 558.8125 L 431.25 557.25 L 431.25 555.90625 L 431.25 554.78125 L 431.25 553.875 L 431.25 553.21875 L 431.25 552.8125 C 431.486 552.6695 431.71875 552.65625 431.71875 552.65625 L 432.0625 552.65625 L 432.53125 552.65625 L 433.0625 552.65625 L 433.625 552.65625 L 434.28125 552.65625 L 434.96875 552.65625 L 435.78125 552.65625 L 436.625 552.65625 L 437.53125 552.65625 L 438.46875 552.65625 L 439.4375 552.65625 L 440.46875 552.65625 L 441.4375 552.65625 L 442.53125 552.65625 L 443.5625 552.65625 L 444.65625 552.65625 L 445.75 552.65625 L 446.84375 552.65625 L 447.9375 552.65625 L 449 552.65625 L 450.0625 552.65625 L 451.09375 552.65625 L 452.0625 552.65625 L 453.0625 552.65625 L 454 552.65625 L 454.90625 552.65625 L 455.75 552.65625 L 456.53125 552.65625 L 457.28125 552.65625 L 457.9375 552.65625 L 458.5 552.65625 L 459.03125 552.65625 L 459.4375 552.65625 L 459.8125 552.65625 L 460.0625 552.65625 L 462.3125 552.65625 L 464.3125 552.71875 L 466.1875 552.8125 L 468.03125 552.90625 L 469.78125 553 L 471.4375 553.125 L 473.03125 553.3125 L 474.59375 553.5625 L 476.0625 553.78125 L 477.4375 554.0625 L 478.75 554.40625 L 480.03125 554.78125 L 481.21875 555.15625 L 482.40625 555.59375 L 483.46875 556.0625 L 484.46875 556.59375 L 485.46875 557.15625 L 486.40625 557.75 L 487.25 558.375 L 488.0625 559.09375 L 488.875 559.78125 L 489.5625 560.59375 L 490.28125 561.40625 L 490.90625 562.28125 L 491.5 563.1875 L 492.0625 564.1875 L 492.59375 565.1875 L 493.125 566.25 L 493.59375 567.40625 L 494 568.5625 L 494.40625 569.8125 L 494.78125 571.125 L 495.15625 572.4375 L 495.46875 573.875 L 495.75 575.3125 L 496.03125 576.875 L 496.3125 578.4375 L 496.5625 580.09375 L 496.8125 581.84375 L 497.03125 583.59375 L 497.09375 584.59375 L 497.1875 585.53125 L 497.28125 586.5625 L 497.375 587.59375 L 497.46875 588.65625 L 497.59375 589.71875 L 497.6875 590.8125 L 497.84375 591.9375 L 497.96875 593.09375 L 498.125 594.21875 L 498.25 595.40625 L 498.40625 596.5625 L 498.5625 597.75 L 498.6875 598.9375 L 498.875 600.15625 L 499.0625 601.34375 L 499.25 602.5625 L 499.40625 603.8125 L 499.625 605 L 499.8125 606.21875 L 500 607.4375 L 500.1875 608.625 L 500.4375 609.84375 L 500.625 611.03125 L 500.875 612.25 L 501.09375 613.4375 L 501.34375 614.5625 L 501.5625 615.75 L 501.8125 616.90625 L 502.03125 618.03125 L 502.3125 619.15625 L 502.5625 620.25 L 502.84375 621.28125 L 503.0625 622.375 L 503.375 623.375 L 503.65625 624.40625 L 503.9375 625.34375 L 504.15625 626.28125 L 504.5 627.21875 L 504.78125 628.09375 L 505.15625 628.09375 L 505.4375 628.09375 L 505.8125 628.09375 L 506.25 628.09375 L 506.71875 628.09375 L 507.28125 628.09375 L 507.90625 628.09375 L 508.5625 628.09375 L 509.25 628.09375 L 509.96875 628.09375 L 510.78125 628.09375 L 511.5625 628.09375 L 512.4375 628.09375 L 513.28125 628.09375 L 514.125 628.09375 L 515.03125 628.09375 L 515.90625 628.09375 L 516.875 628.09375 L 517.75 628.09375 L 518.65625 628.09375 L 519.5625 628.09375 L 520.40625 628.09375 L 521.3125 628.09375 L 522.09375 628.09375 L 522.96875 628.09375 L 523.71875 628.09375 L 524.46875 628.09375 L 525.1875 628.09375 L 525.84375 628.09375 L 526.40625 628.09375 L 526.96875 628.09375 L 527.5 628.09375 L 527.90625 628.09375 L 528.25 628.09375 L 528.53125 628.09375 L 528.90625 628.09375 C 528.95325 628.09375 528.53125 626.71875 528.53125 626.71875 L 528.09375 625.40625 L 527.6875 624.03125 L 527.3125 622.6875 L 526.9375 621.375 L 526.59375 620.0625 L 526.21875 618.78125 L 525.875 617.46875 L 525.5625 616.1875 L 525.28125 614.90625 L 524.9375 613.625 L 524.65625 612.375 L 524.375 611.125 L 524.09375 609.84375 L 523.84375 608.625 L 523.5625 607.34375 L 523.34375 606.125 L 523.09375 604.84375 L 522.875 603.625 L 522.6875 602.34375 L 522.4375 601.125 L 522.25 599.84375 L 522 598.5625 L 521.8125 597.34375 L 521.625 596.0625 L 521.4375 594.78125 L 521.3125 593.53125 L 521.125 592.25 L 520.9375 590.9375 L 520.78125 589.59375 L 520.59375 588.3125 L 520.46875 586.96875 L 520.3125 585.625 L 520.1875 584.3125 L 520 582.9375 L 519.84375 581.5625 L 519.6875 580.15625 L 519.5625 578.75 L 519.40625 577.3125 L 519.28125 575.90625 L 519.03125 574.3125 L 518.8125 572.78125 L 518.5625 571.3125 L 518.28125 569.90625 L 518 568.53125 L 517.65625 567.25 L 517.34375 566 L 517 564.75 L 516.6875 563.59375 L 516.25 562.4375 L 515.875 561.375 L 515.4375 560.3125 L 515.03125 559.34375 L 514.5625 558.375 L 514.09375 557.4375 L 513.5625 556.59375 L 513.03125 555.75 L 512.46875 554.9375 L 511.90625 554.125 L 511.28125 553.375 L 510.6875 552.6875 L 510.03125 552 L 509.3125 551.34375 L 508.59375 550.75 L 507.90625 550.15625 L 507.09375 549.59375 L 506.34375 549.03125 L 505.5 548.5625 L 504.625 548.03125 L 503.78125 547.5625 L 502.84375 547.15625 L 501.90625 546.71875 L 500.9375 546.34375 L 499.90625 545.96875 L 498.875 545.59375 L 497.78125 545.21875 L 496.6875 544.875 L 495.5625 544.5625 L 494.375 544.28125 L 493.15625 543.96875 L 493.53125 543.84375 L 493.90625 543.6875 L 494.28125 543.5 L 494.65625 543.375 L 495.09375 543.21875 L 495.53125 543.09375 L 495.9375 542.9375 L 496.375 542.75 L 496.84375 542.625 L 497.28125 542.4375 L 497.75 542.28125 L 498.21875 542.09375 L 498.6875 541.90625 L 499.15625 541.71875 L 499.6875 541.53125 L 500.15625 541.34375 L 500.6875 541.15625 L 501.1875 540.90625 L 501.71875 540.6875 L 502.21875 540.4375 L 502.75 540.21875 L 503.28125 539.96875 L 503.84375 539.71875 L 504.34375 539.4375 L 504.9375 539.15625 L 505.5 538.875 L 506 538.5625 L 506.5625 538.28125 L 507.15625 537.9375 L 507.71875 537.5625 L 508.28125 537.21875 L 508.84375 536.84375 L 509.40625 536.46875 L 509.96875 536.0625 L 510.59375 535.6875 L 511.15625 535.1875 L 511.71875 534.78125 L 512.28125 534.3125 L 512.90625 533.84375 L 513.46875 533.3125 L 514 532.75 L 514.46875 532.125 L 514.9375 531.5 L 515.4375 530.90625 L 515.9375 530.28125 L 516.34375 529.6875 L 516.8125 529 L 517.28125 528.34375 L 517.71875 527.6875 L 518.15625 527.03125 L 518.5625 526.3125 L 518.9375 525.625 L 519.375 524.96875 L 519.75 524.25 L 520.125 523.5 L 520.46875 522.78125 L 520.84375 522.03125 L 521.15625 521.3125 L 521.5 520.5625 L 521.84375 519.8125 L 522.125 519 L 522.40625 518.25 L 522.6875 517.5 L 522.96875 516.6875 L 523.1875 515.875 L 523.4375 515.09375 L 523.625 514.28125 L 523.84375 513.46875 L 524.03125 512.6875 L 524.1875 511.8125 L 524.375 511.03125 L 524.53125 510.15625 L 524.65625 509.3125 L 524.75 508.53125 L 524.84375 507.65625 L 524.9375 506.8125 L 525 505.90625 L 525.03125 505.0625 L 525.09375 504.21875 L 525.09375 503.375 L 525.03125 502.4375 L 525.03125 501.46875 L 525 500.53125 L 524.90625 499.59375 L 524.8125 498.65625 L 524.65625 497.6875 L 524.53125 496.75 L 524.375 495.8125 L 524.1875 494.90625 L 523.9375 493.96875 L 523.71875 493.0625 L 523.46875 492.125 L 523.1875 491.21875 L 522.90625 490.28125 L 522.59375 489.40625 L 522.21875 488.5 L 521.875 487.59375 L 521.4375 486.75 L 521.03125 485.84375 L 520.59375 484.96875 L 520.125 484.09375 L 519.65625 483.25 L 519.125 482.40625 L 518.625 481.5625 L 518.0625 480.71875 L 517.4375 479.90625 L 516.8125 479.09375 L 516.21875 478.25 L 515.5625 477.5 L 514.875 476.6875 L 514.1875 475.9375 L 513.4375 475.125 L 512.65625 474.4375 L 511.90625 473.65625 L 511.09375 472.96875 L 510.25 472.1875 L 509.40625 471.53125 L 508.5 470.84375 L 507.625 470.1875 L 506.71875 469.5 L 505.71875 468.9375 L 504.78125 468.375 L 503.78125 467.90625 L 502.8125 467.375 L 501.8125 466.96875 L 500.78125 466.53125 L 499.71875 466.09375 L 498.6875 465.71875 L 497.65625 465.34375 L 496.5625 465.03125 L 495.53125 464.6875 L 494.4375 464.40625 L 493.34375 464.125 L 492.3125 463.90625 L 491.21875 463.65625 L 490.15625 463.40625 L 489.09375 463.21875 L 488.03125 463.03125 L 486.96875 462.90625 L 485.90625 462.71875 L 484.84375 462.5625 L 483.8125 462.46875 L 482.78125 462.34375 L 481.78125 462.25 L 480.75 462.1875 L 479.75 462.09375 L 478.8125 462 L 477.8125 461.9375 L 476.875 461.90625 L 475.96875 461.84375 L 475.09375 461.84375 L 474.1875 461.8125 L 473.34375 461.8125 L 472.46875 461.75 L 471.6875 461.75 L 470.875 461.75 L 470.125 461.75 L 469.375 461.75 L 468.71875 461.75 L 468 461.75 L 467.5625 461.75 L 467.0625 461.75 L 466.34375 461.75 L 465.4375 461.75 L 464.34375 461.75 L 463.125 461.75 L 461.75 461.75 L 460.25 461.75 L 458.65625 461.75 L 456.90625 461.75 L 455.0625 461.75 L 453.125 461.75 L 451.125 461.75 L 449.0625 461.75 L 446.875 461.75 L 444.71875 461.75 L 442.5 461.75 L 440.28125 461.75 L 438.0625 461.75 L 435.78125 461.75 L 433.5625 461.75 L 431.34375 461.75 L 429.1875 461.75 L 427 461.75 L 424.9375 461.75 L 422.9375 461.75 L 421 461.75 L 419.15625 461.75 L 417.40625 461.75 L 415.8125 461.75 L 414.3125 461.75 L 412.9375 461.75 L 411.6875 461.75 L 410.625 461.75 L 409.71875 461.75 L 409 461.75 L 408.5 461.75 L 408.15625 461.75 z M 431.25 481.0625 L 431.53125 481.0625 L 431.8125 481.0625 L 432.25 481.0625 L 432.8125 481.0625 L 433.40625 481.0625 L 434.1875 481.0625 L 434.96875 481.0625 L 435.875 481.0625 L 436.875 481.0625 L 437.90625 481.0625 L 439 481.0625 L 440.125 481.0625 L 441.34375 481.0625 L 442.59375 481.0625 L 443.84375 481.0625 L 445.125 481.0625 L 446.4375 481.0625 L 447.8125 481.0625 L 449.15625 481.0625 L 450.46875 481.0625 L 451.84375 481.0625 L 453.15625 481.0625 L 454.4375 481.0625 L 455.71875 481.0625 L 456.9375 481.0625 L 458.15625 481.0625 L 459.3125 481.0625 L 460.4375 481.0625 L 461.46875 481.0625 L 462.40625 481.0625 L 463.3125 481.0625 L 464.125 481.0625 L 464.875 481.0625 L 465.46875 481.0625 L 466.0625 481.0625 L 466.46875 481.0625 L 466.75 481.0625 L 467.03125 481.0625 L 467.6875 481.0625 L 468.46875 481.125 L 469.25 481.125 L 470.0625 481.125 L 470.96875 481.15625 L 471.84375 481.15625 L 472.8125 481.25 L 473.78125 481.3125 L 474.84375 481.40625 L 475.8125 481.5 L 476.90625 481.625 L 478 481.8125 L 479.09375 482 L 480.15625 482.25 L 481.25 482.53125 L 482.375 482.8125 L 483.46875 483.15625 L 484.5625 483.5625 L 485.65625 484 L 486.71875 484.46875 L 487.8125 485 L 488.84375 485.59375 L 489.84375 486.25 L 490.84375 486.9375 L 491.78125 487.6875 L 492.71875 488.53125 L 493.625 489.4375 L 494.46875 490.375 L 495.28125 491.40625 L 496 492.5 L 496.6875 493.6875 L 497.34375 494.9375 L 497.9375 496.28125 L 498.4375 497.75 L 498.875 499.25 L 499.25 500.84375 L 499.53125 502.5 L 499.71875 504.3125 L 499.84375 506.1875 L 499.90625 508.1875 L 499.90625 509.53125 L 499.8125 510.875 L 499.71875 512.125 L 499.53125 513.375 L 499.28125 514.5625 L 499.0625 515.71875 L 498.71875 516.875 L 498.40625 517.9375 L 498.03125 519 L 497.59375 519.96875 L 497.125 520.96875 L 496.59375 521.90625 L 496.09375 522.8125 L 495.46875 523.65625 L 494.84375 524.5 L 494.25 525.3125 L 493.53125 526.0625 L 492.8125 526.78125 L 492.125 527.5 L 491.3125 528.09375 L 490.5625 528.71875 L 489.71875 529.34375 L 488.84375 529.84375 L 488 530.375 L 487.09375 530.875 L 486.21875 531.3125 L 485.28125 531.75 L 484.3125 532.125 L 483.375 532.4375 L 482.375 532.78125 L 481.40625 533.0625 L 480.34375 533.34375 L 479.3125 533.59375 L 478.28125 533.78125 L 477.25 533.90625 L 476.1875 534.0625 L 475.125 534.15625 L 474.03125 534.25 L 472.9375 534.28125 L 471.84375 534.28125 L 471.5625 534.28125 L 471.25 534.28125 L 470.71875 534.28125 L 470.125 534.28125 L 469.40625 534.28125 L 468.5625 534.28125 L 467.65625 534.28125 L 466.625 534.28125 L 465.53125 534.28125 L 464.34375 534.28125 L 463.125 534.28125 L 461.8125 534.28125 L 460.4375 534.28125 L 459 534.28125 L 457.59375 534.28125 L 456.09375 534.28125 L 454.625 534.28125 L 453.0625 534.28125 L 451.5625 534.28125 L 450.03125 534.28125 L 448.53125 534.28125 L 447 534.28125 L 445.5625 534.28125 L 444.09375 534.28125 L 442.65625 534.28125 L 441.34375 534.28125 L 440.03125 534.28125 L 438.8125 534.28125 L 437.625 534.28125 L 436.46875 534.28125 L 435.5 534.28125 L 434.5625 534.28125 L 433.6875 534.28125 L 433 534.28125 L 432.375 534.28125 L 431.90625 534.28125 L 431.53125 534.28125 L 431.25 534.28125 L 431.25 481.0625 z "
   id="path22" />
</g><g
   id="LWPOLYLINE"
   style="stroke:none;fill:#000000;fill-opacity:1">
	
		<rect
   x="490.23"
   y="145.5"
   fill="none"
   stroke="#000000"
   stroke-width="0.7087"
   stroke-linecap="round"
   stroke-linejoin="round"
   stroke-miterlimit="10"
   width="29.042"
   height="147.006"
   id="rect4"
   style="stroke:none;fill:#000000;fill-opacity:1" />
</g>
<g
   id="LWPOLYLINE_1_"
   style="stroke:none;fill:#000000;fill-opacity:1">
	
		<polygon
   fill="none"
   stroke="#000000"
   stroke-width="0.7087"
   stroke-linecap="round"
   stroke-linejoin="round"
   stroke-miterlimit="10"
   points="   84.062,232.768 337.273,232.768 337.273,279.92 490.23,219.451 337.273,159.998 337.273,206.135 84.062,206.135  "
   id="polygon7"
   style="stroke:none;fill:#000000;fill-opacity:1" />
</g>
<g
   id="LWPOLYLINE_2_"
   style="stroke:none;fill:#000000;fill-opacity:1">
	
		<path
   fill="none"
   stroke="#000000"
   stroke-width="0.7087"
   stroke-linecap="round"
   stroke-linejoin="round"
   stroke-miterlimit="10"
   d="   M17.312,645.5c0.095,0,0.307,0,0.307,0h0.354h0.496h0.59h0.732h0.826h0.921h1.039h1.086h1.181h1.251h1.299h1.37h1.416h1.44h1.487   h1.488h1.511h1.535h1.511h1.511h1.512h1.464h1.44h1.417h1.369h1.299h1.251h1.181h1.109h1.016h0.921h0.826h0.732h0.613h0.473h0.354   c0.235,0,0.307,0,0.307,0c0-0.189,0-0.33,0-0.33c0-0.143,0-0.379,0-0.379c0-0.236,0-0.473,0-0.473v-0.33v-0.283v-0.33v-0.379   v-0.377v-0.377v-0.426v-0.379v-0.424v-0.426v-0.473v-0.424v-0.426v-0.424v-0.426v-0.426v-0.424v-0.379v-0.424v-0.379v-0.33v-0.33   v-0.33v-0.283v-0.283c0-0.236,0-0.426,0-0.426c0-0.189,0-0.33,0-0.33c-0.165-0.189-0.354-0.189-0.354-0.189h-0.283h-0.33h-0.378   H56.13h-0.495h-0.567h-0.59h-0.661h-0.685h-0.709h-0.755h-0.756h-0.803h-0.803H48.48h-0.827h-0.826h-0.85H45.15h-0.803h-0.826   h-0.779h-0.779h-0.731h-0.732h-0.685h-0.638h-0.613h-0.543h-0.52h-0.449H36.65h-0.33h-0.26c-0.213,0-0.331,0-0.331,0   c-0.023,0-0.023-0.33-0.023-0.33v-0.945v-1.559v-2.125v-2.645v-3.117v-3.635v-4.014v-4.486v-4.77v-5.148v-5.43v-5.715v-5.949   v-6.141v-6.279v-6.422v-6.518v-6.611v-6.658v-6.611v-6.611v-6.518v-6.422v-6.328v-6.139v-5.902v-5.715v-5.43v-5.148v-4.816v-4.439   v-4.014v-3.637v-3.115v-2.693v-2.076v-1.559v-0.992v-0.33c0.142,0,0.354,0,0.354,0h0.26h0.33h0.401h0.449h0.52h0.543h0.613h0.638   h0.685h0.732h0.731h0.779h0.779h0.826h0.803h0.827h0.85h0.826h0.827h0.826h0.803h0.803h0.756h0.755h0.709h0.685h0.661h0.59h0.567   h0.495h0.473h0.378h0.33h0.283c0.189,0,0.308,0,0.308,0c0.047-0.143,0.047-0.283,0.047-0.283c0-0.189,0-0.379,0-0.379   c0-0.236,0-0.52,0-0.52v-0.283v-0.33v-0.33v-0.379v-0.377v-0.379v-0.377v-0.426v-0.424v-0.426v-0.426v-0.424v-0.473v-0.426v-0.424   v-0.426v-0.424v-0.379v-0.377v-0.379v-0.377v-0.33v-0.332V446.5v-0.234c0-0.236,0-0.473,0-0.473c0-0.143,0-0.283,0-0.283   c-0.071-0.189-0.307-0.189-0.307-0.189h-0.354h-0.473h-0.613h-0.732h-0.826h-0.921h-1.016h-1.109h-1.181h-1.251h-1.299h-1.369   H45.08h-1.44h-1.464h-1.512h-1.511h-1.511h-1.535h-1.511h-1.488h-1.487h-1.44h-1.416h-1.37h-1.299h-1.251h-1.181h-1.086h-1.039   h-0.921h-0.826H19.06h-0.59h-0.496h-0.354c-0.212,0-0.307,0-0.307,0V645.5z"
   id="path10"
   style="stroke:none;fill:#000000;fill-opacity:1" />
</g>
<g
   id="LWPOLYLINE_3_"
   style="stroke:none;fill:#000000;fill-opacity:1">
	
		<path
   fill="none"
   stroke="#000000"
   stroke-width="0.7087"
   stroke-linecap="round"
   stroke-linejoin="round"
   stroke-miterlimit="10"
   d="   M219.452,461.754c-0.166,0-0.378,0-0.378,0h-0.26h-0.354h-0.425h-0.473h-0.52h-0.59h-0.638h-0.661h-0.708h-0.756h-0.779h-0.803   h-0.826h-0.85h-0.851h-0.873h-0.851h-0.873h-0.874h-0.85h-0.851h-0.826h-0.803h-0.779h-0.756h-0.708h-0.661h-0.638h-0.59h-0.52   h-0.473h-0.425h-0.331h-0.283c-0.212,0-0.33,0-0.33,0c-0.048,0-0.142,0.236-0.142,0.236l-0.26,0.803l-0.449,1.229l-0.613,1.699   l-0.732,2.125l-0.897,2.551l-1.038,2.881l-1.134,3.258l-1.275,3.588l-1.369,3.826l-1.464,4.156l-1.535,4.344l-1.629,4.58   l-1.677,4.77l-1.747,4.912l-1.794,5.1l-1.818,5.146l-1.865,5.242l-1.865,5.289l-1.89,5.336l-1.889,5.338l-1.865,5.287l-1.865,5.242   l-1.818,5.195l-1.794,5.053l-1.747,4.912l-1.677,4.77l-1.629,4.58l-1.535,4.391l-1.464,4.109l-1.369,3.873l-1.252,3.541   l-1.157,3.258l-1.038,2.928l-0.874,2.504l-0.756,2.125l-0.613,1.699l-0.426,1.275l-0.283,0.756l-0.094,0.236l-0.095-0.236   l-0.236-0.756l-0.425-1.275l-0.566-1.699l-0.709-2.125l-0.85-2.504l-0.968-2.928l-1.087-3.258l-1.181-3.541l-1.274-3.873   l-1.394-4.109l-1.44-4.391l-1.534-4.58l-1.582-4.77l-1.653-4.912l-1.676-5.053l-1.724-5.195l-1.748-5.242l-1.771-5.287   l-1.771-5.338l-1.795-5.336l-1.747-5.289l-1.747-5.242l-1.724-5.146l-1.7-5.1l-1.629-4.912l-1.605-4.77l-1.512-4.58l-1.464-4.344   l-1.369-4.156l-1.299-3.826l-1.181-3.588l-1.086-3.258l-0.969-2.881l-0.85-2.551l-0.708-2.125l-0.567-1.699l-0.401-1.229   l-0.26-0.803l-0.094-0.236c-0.189,0-0.426,0-0.426,0h-0.307H97.45h-0.472h-0.543h-0.591h-0.661h-0.708H93.72h-0.803h-0.826h-0.897   h-0.897h-0.921h-0.944h-0.968h-0.968h-0.992h-0.968h-0.992h-0.944h-0.968H80.71h-0.897h-0.873h-0.851h-0.803H76.53h-0.708h-0.661   h-0.59h-0.544h-0.448h-0.401h-0.307c-0.236,0-0.378,0-0.378,0c-0.048,0,0.07,0.283,0.07,0.283l0.331,0.896l0.52,1.465l0.708,2.031   l0.897,2.455l1.062,2.975l1.228,3.4l1.37,3.777l1.511,4.203l1.629,4.486l1.747,4.863l1.842,5.102l1.913,5.336l2.03,5.572   l2.078,5.762l2.125,5.949l2.172,6.045l2.22,6.139l2.243,6.186l2.243,6.234l2.243,6.234l2.243,6.186l2.195,6.139l2.196,6.092   l2.125,5.902l2.078,5.762l2.007,5.572l1.937,5.385l1.841,5.1l1.748,4.816l1.629,4.533l1.511,4.156l1.37,3.824l1.204,3.354   l1.086,2.975l0.897,2.504l0.708,1.982l0.52,1.465l0.331,0.896l0.117,0.283c0.166,0,0.401,0,0.401,0h0.308h0.354h0.449h0.52h0.566   h0.638h0.685h0.732h0.778h0.803h0.851h0.874h0.896h0.897h0.944h0.921h0.944h0.944h0.945h0.92h0.921h0.897h0.874h0.826h0.826h0.756   h0.732h0.685h0.638h0.566h0.52h0.448h0.378h0.307c0.213,0,0.354,0,0.354,0C157.565,628.074,219.452,461.754,219.452,461.754z"
   id="path13"
   style="stroke:none;fill:#000000;fill-opacity:1" />
</g>

<g
   id="LWPOLYLINE_5_"
   style="stroke:none;fill:#000000;fill-opacity:1">
	
		
</g>

<g
   id="LWPOLYLINE_7_"
   style="stroke:none;fill:#000000;fill-opacity:1">
	
		
</g>
<g
   id="LWPOLYLINE_8_"
   style="stroke:none;fill:#000000;fill-opacity:1">
	
		<path
   fill="none"
   stroke="#000000"
   stroke-width="0.7087"
   stroke-linecap="round"
   stroke-linejoin="round"
   stroke-miterlimit="10"
   d="   M594.688,445.32c-0.047,0-0.283,0-0.283,0h-0.33h-0.52h-0.614h-0.708h-0.851h-0.896h-1.039h-1.086h-1.181h-1.229h-1.322h-1.369   h-1.417h-1.464h-1.464h-1.464h-1.558h-1.512h-1.511h-1.512h-1.511h-1.464h-1.464h-1.417h-1.322h-1.322h-1.275h-1.133h-1.134h-0.991   h-0.944h-0.851h-0.708h-0.614h-0.472h-0.378c-0.189,0-0.283,0-0.283,0c0,0.189,0,0.33,0,0.33c0,0.143,0,0.379,0,0.379   c0,0.236,0,0.471,0,0.471v0.283v0.332v0.33v0.377v0.379v0.377v0.379v0.424v0.426v0.424v0.426v0.473v0.424v0.426v0.426v0.424v0.426   v0.377v0.379v0.377v0.379v0.33v0.33v0.283v0.283c0,0.236,0,0.426,0,0.426c0,0.189,0,0.33,0,0.33   c0.188,0.143,0.378,0.143,0.378,0.143h0.235h0.331h0.425h0.425h0.52h0.566h0.614h0.614h0.708h0.708h0.756h0.756h0.803h0.803h0.803   h0.85h0.851h0.803h0.85h0.803h0.804h0.803h0.755h0.756h0.708h0.709h0.661h0.566h0.566h0.52h0.473h0.378h0.33h0.283   c0.189,0,0.283,0,0.283,0c0.048,0,0.048,0.33,0.048,0.33v0.992v1.559v2.076v2.693v3.115v3.637v4.014v4.439v4.816v5.148v5.43v5.715   v5.902v6.139v6.328v6.422v6.518v6.611v6.611v6.658v6.611v6.518v6.422v6.279v6.141v5.949v5.715v5.43v5.148v4.77v4.486v4.014v3.635   v3.117v2.645v2.125v1.559v0.945v0.33c-0.142,0-0.331,0-0.331,0h-0.283h-0.33h-0.378h-0.473h-0.52h-0.566h-0.566h-0.661h-0.709   h-0.708h-0.756h-0.755h-0.803h-0.804h-0.803h-0.85h-0.803h-0.851h-0.85h-0.803h-0.803h-0.803h-0.756h-0.756h-0.708h-0.708h-0.614   h-0.614h-0.566h-0.52h-0.425h-0.425h-0.331h-0.235c-0.189,0-0.331,0-0.331,0c-0.047,0.189-0.047,0.33-0.047,0.33   c0,0.189,0,0.379,0,0.379c0,0.236,0,0.52,0,0.52v0.283v0.33v0.33v0.33v0.379v0.424v0.379v0.424v0.426v0.426v0.424v0.426v0.424   v0.473v0.426v0.424v0.379v0.426v0.377v0.377v0.379v0.33v0.283v0.33v0.236c0,0.236,0,0.473,0,0.473c0,0.143,0,0.283,0,0.283   c0.094,0.189,0.283,0.189,0.283,0.189h0.378h0.472h0.614h0.708h0.851h0.944h0.991h1.134h1.133h1.275h1.322h1.322h1.417h1.464h1.464   h1.511h1.512h1.511h1.512h1.558h1.464h1.464h1.464h1.417h1.369h1.322h1.229h1.181h1.086h1.039h0.896h0.851h0.708h0.614h0.52h0.33   c0.236,0,0.283,0,0.283,0V445.32z"
   id="path28"
   style="stroke:none;fill:#000000;fill-opacity:1" />
</g>
</svg>