<?xml version="1.0" encoding="UTF-8" standalone="no"?>
<!-- Generator: Adobe Illustrator 16.0.1, SVG Export Plug-In . SVG Version: 6.00 Build 0)  -->

<svg
   xmlns:dc="http://purl.org/dc/elements/1.1/"
   xmlns:cc="http://creativecommons.org/ns#"
   xmlns:rdf="http://www.w3.org/1999/02/22-rdf-syntax-ns#"
   xmlns:svg="http://www.w3.org/2000/svg"
   xmlns="http://www.w3.org/2000/svg"
   xmlns:sodipodi="http://sodipodi.sourceforge.net/DTD/sodipodi-0.dtd"
   xmlns:inkscape="http://www.inkscape.org/namespaces/inkscape"
   version="1.0"
   id="_x31_"
   x="0px"
   y="0px"
   width="612px"
   height="792px"
   viewBox="0 0 612 792"
   enable-background="new 0 0 612 792"
   xml:space="preserve"
   inkscape:version="0.48.2 r9819"
   sodipodi:docname="7005.svg"><metadata
   id="metadata61"><rdf:RDF><cc:Work
       rdf:about=""><dc:format>image/svg+xml</dc:format><dc:type
         rdf:resource="http://purl.org/dc/dcmitype/StillImage" /></cc:Work></rdf:RDF></metadata><defs
   id="defs59" /><sodipodi:namedview
   pagecolor="#ffffff"
   bordercolor="#666666"
   borderopacity="1"
   objecttolerance="10"
   gridtolerance="10"
   guidetolerance="10"
   inkscape:pageopacity="0"
   inkscape:pageshadow="2"
   inkscape:window-width="1920"
   inkscape:window-height="1071"
   id="namedview57"
   showgrid="false"
   showguides="true"
   inkscape:guide-bbox="true"
   inkscape:zoom="0.84281414"
   inkscape:cx="60.516405"
   inkscape:cy="209.325"
   inkscape:window-x="0"
   inkscape:window-y="0"
   inkscape:window-maximized="1"
   inkscape:current-layer="_x31_" />
<g
   id="LWPOLYLINE_10_"
   style="stroke:none;fill:#000000;fill-opacity:1">
	
		<path
   style="fill:#000000;fill-opacity:1;stroke:none"
   d="m 196.65625,547.53125 c -0.0534,32.00164 -0.54905,64.84588 0.125,96.34375 16.15812,-0.84111 34.86615,3.24304 48.40625,-7.96875 10.43383,-11.13946 8.70111,-27.85071 9.4059,-42 -0.86664,-13.96183 0.43027,-30.90234 -11.2184,-40.90625 -11.47158,-8.58233 -26.61731,-4.52811 -39.90625,-5.4686 -2.27075,-1.4e-4 -4.54201,2.4e-4 -6.8125,-1.5e-4 z m 11.4375,10.78125 c 9.84426,0.93391 22.39277,-3.09492 29.5625,5.78115 7.09179,12.37469 3.65664,27.30056 4.48081,40.88585 0.23478,10.5811 -1.71406,25.58727 -14.66831,27.3955 -6.36993,1.13894 -12.87755,0.47657 -19.3125,0.65615 -0.10016,-24.90589 -0.0482,-49.81289 -0.0625,-74.71865 z"
   id="path34"
   inkscape:connector-curvature="0" />
</g><g
   id="LWPOLYLINE_2_"
   style="stroke:none;fill:#000000;fill-opacity:1">
	
		<path
   style="fill:#000000;fill-opacity:1;stroke:none"
   d="m 159.28125,410.4375 c -0.43988,32.01409 -0.0618,64.13311 -0.1875,96.1875 9.86185,3.24341 13.37727,-0.30241 11.625,-8.9375 0.17817,-10.99887 -0.34919,-22.5486 0.25,-33.21875 12.71267,-0.0873 28.27401,1.97899 37,-9.53115 7.57383,-10.99832 7.04963,-27.90491 -2.0313,-37.90625 -11.53923,-10.10756 -27.85098,-5.55358 -41.78125,-6.5936 -1.62481,-2.2e-4 -3.25065,3.9e-4 -4.87495,-2.5e-4 z m 11.4375,10.8125 c 9.06161,0.89711 20.75503,-3.08838 27.125,5.59355 6.33668,9.40501 1.97312,25.89573 -10.71875,26.56265 -5.43888,0.53229 -10.94079,0.12299 -16.40625,0.2498 0,-10.80183 0,-21.605 0,-32.406 z"
   id="path10"
   inkscape:connector-curvature="0" />
</g><g
   id="LWPOLYLINE_6_"
   style="stroke:none;fill:#000000;fill-opacity:1">
	
		<path
   style="fill:#000000;fill-opacity:1;stroke:none"
   d="m 346.96875,410.46875 c -0.004,31.979 -0.6309,64.96979 0.1875,96.34375 16.1397,-0.86092 34.87805,3.28927 48.375,-7.96875 10.63121,-11.43579 8.63383,-28.52963 9.4059,-42.97978 -0.96793,-14.40096 0.21686,-32.75465 -13.5934,-41.61397 -12.35642,-6.42762 -26.80589,-2.85996 -40.15625,-3.7811 -1.40617,-1.3e-4 -2.81283,2.3e-4 -4.21875,-1.5e-4 z M 358.4375,421.25 c 9.85746,0.91492 22.41547,-3.06136 29.59375,5.81245 7.03563,12.62151 3.60531,27.72375 4.40615,41.53125 0.26591,10.42348 -1.97729,24.98897 -14.6249,26.75 -6.37015,1.13603 -12.87727,0.47851 -19.3125,0.65615 -0.10848,-24.91621 -0.0489,-49.83391 -0.0625,-74.74985 z"
   id="path22"
   inkscape:connector-curvature="0" />
</g><g
   id="LWPOLYLINE_14_"
   style="stroke:none;fill:#000000;fill-opacity:1">
	
		<path
   style="stroke:none;fill:#000000;fill-opacity:1"
   d="M 222.9375 145.5 L 222.9375 190 L 44.46875 190 L 44.46875 212.28125 L 222.9375 212.28125 L 222.9375 301.3125 L 44.46875 301.3125 L 44.46875 323.59375 L 222.9375 323.59375 L 222.9375 368.09375 L 312.15625 368.09375 L 312.15625 323.59375 L 356.75 323.59375 L 356.75 190 L 312.15625 190 L 312.15625 145.5 L 222.9375 145.5 z M 245.4375 167.9375 L 289.46875 167.9375 L 289.46875 345.65625 L 245.4375 345.65625 L 245.4375 167.9375 z M 311.90625 211.9375 L 334.34375 211.9375 L 334.34375 301.65625 L 311.90625 301.65625 L 311.90625 211.9375 z "
   id="polygon46" />
</g><g
   id="LWPOLYLINE"
   style="stroke:none;fill:#000000;fill-opacity:1">
	
		<path
   style="fill:#000000;fill-opacity:1;stroke:none"
   d="m 84.321,477.758 c -1.973202,11.9912 3.474967,26.63739 16.528,29.368 13.7956,3.67659 33.28544,0.65409 38.369,-14.801 4.76729,-12.97271 -0.85429,-28.39607 -13.322,-34.718 -9.52936,-6.76756 -25.09779,-9.83423 -27.376,-23.166 -1.914355,-10.6529 9.71773,-18.15291 19.241,-15.199 7.95424,1.40912 9.68256,10.87787 10.101,16.982 3.97433,0 7.94867,0 11.923,0 2.00182,-12.04482 -5.5914,-25.64863 -18.534,-26.872 -13.62668,-2.77185 -31.309868,2.80351 -34.453,17.949 -3.627189,12.47726 3.588953,25.49103 14.95741,31.02358 9.33255,6.23443 24.21214,9.32682 26.51259,22.07342 1.71467,9.43552 -6.3815,18.09142 -15.854,17.27 -10.83579,1.19422 -18.123448,-9.81672 -16.443,-19.784 -3.87988,-0.1794 -7.76729,-0.0915 -11.65,-0.126 z"
   id="path4"
   inkscape:connector-curvature="0" />
</g>
<g
   id="LWPOLYLINE_1_"
   style="stroke:none;fill:#000000;fill-opacity:1">
	
		
</g>

<g
   id="LWPOLYLINE_3_"
   style="stroke:none;fill:#000000;fill-opacity:1">
	
		<path
   style="fill:#000000;fill-opacity:1;stroke:none"
   d="m 242.147,410.455 c -3.85267,0 -7.70533,0 -11.558,0 -0.19003,32.04938 -0.0267,64.11889 -0.081,96.176 3.76641,0.39113 7.70564,0.0502 11.538,0.162 0.13667,-32.11215 0.0753,-64.22547 0.101,-96.338 z"
   id="path13"
   inkscape:connector-curvature="0" />
</g>
<g
   id="LWPOLYLINE_4_"
   style="stroke:none;fill:#000000;fill-opacity:1">
	
		<path
   style="fill:#000000;fill-opacity:1;stroke:none"
   d="m 315.229,410.455 c 0,27.35533 0,54.71067 0,82.066 -12.45883,-27.22409 -24.13936,-55.07414 -36.806,-82.066 -5.40633,0 -10.81267,0 -16.219,0 -0.28387,32.03803 -0.0399,64.12079 -0.121,96.176 3.48474,0.39129 7.15245,0.0502 10.707,0.162 0.19331,-27.61995 0.0238,-55.26401 0.081,-82.893 12.71463,27.50503 24.72984,55.65348 37.62,82.896 5.134,0 10.268,0 15.402,0 0.28391,-32.03077 0.0398,-64.10756 0.121,-96.156 -3.58693,-0.26371 -7.19146,-0.13417 -10.785,-0.185 z"
   id="path16"
   inkscape:connector-curvature="0" />
</g>
<g
   id="LWPOLYLINE_5_"
   style="stroke:none;fill:#000000;fill-opacity:1">
	
		
</g>

<g
   id="LWPOLYLINE_7_"
   style="stroke:none;fill:#000000;fill-opacity:1">
	
		<path
   style="fill:#000000;fill-opacity:1;stroke:none"
   d="m 472.224,506.797 c -0.38772,-3.41881 0.79555,-8.22819 -0.567,-10.787 -11.438,0 -22.876,0 -34.314,0 0,-28.46467 0,-56.92933 0,-85.394 -3.74444,-0.39055 -7.66085,-0.0506 -11.471,-0.162 -0.38241,32.02144 -0.0537,64.12357 -0.163,96.176 15.50279,0.22783 31.01057,0.12253 46.515,0.167 z"
   id="path25"
   inkscape:connector-curvature="0" />
</g>
<g
   id="LWPOLYLINE_8_"
   style="stroke:none;fill:#000000;fill-opacity:1">
	
		<path
   style="fill:#000000;fill-opacity:1;stroke:none"
   d="m 530.341,506.797 c -0.38772,-3.41881 0.79555,-8.22819 -0.567,-10.787 -12.17911,-0.16489 -25.02103,0.33303 -36.788,-0.244 0.16706,-10.90661 -0.3271,-22.47443 0.244,-32.977 11.14752,-0.22248 23.17538,0.43538 33.786,-0.324 -0.36762,-3.317 0.74706,-7.93248 -0.527,-10.458 -11.08249,-0.16651 -22.82478,0.32678 -33.503,-0.244 0.17695,-10.07172 -0.33113,-20.82846 0.244,-30.502 11.98794,-0.2204 24.86052,0.44386 36.301,-0.324 -0.25575,-3.3867 0.51958,-7.59853 -0.365,-10.482 -15.91133,0 -31.82267,0 -47.734,0 -0.19003,32.04938 -0.0267,64.11889 -0.081,96.176 16.32803,0.22407 32.66046,0.1249 48.99,0.166 z"
   id="path28"
   inkscape:connector-curvature="0" />
</g>
<g
   id="LWPOLYLINE_9_"
   style="stroke:none;fill:#000000;fill-opacity:1">
	
		
</g>

<g
   id="LWPOLYLINE_11_"
   style="stroke:none;fill:#000000;fill-opacity:1">
	
		<path
   style="fill:#000000;fill-opacity:1;stroke:none"
   d="m 324.355,643.877 c -0.3877,-3.43289 0.79577,-8.25298 -0.568,-10.827 -12.17912,-0.16354 -25.01572,0.33039 -36.786,-0.242 0.16644,-10.90623 -0.32582,-22.47115 0.243,-32.975 11.16204,-0.1953 23.09709,0.38243 33.787,-0.285 -0.36735,-3.33072 0.74655,-7.95522 -0.527,-10.497 -11.08322,-0.16512 -22.82072,0.32405 -33.503,-0.242 0.1765,-10.07183 -0.33025,-20.82691 0.243,-30.502 12.00237,-0.19229 24.77674,0.38741 36.301,-0.283 -0.25687,-3.39247 0.52096,-7.61297 -0.365,-10.502 -15.91133,0 -31.82267,0 -47.734,0 -0.19002,32.04278 -0.0267,64.10627 -0.081,96.157 16.3272,0.26726 32.66065,0.14898 48.99,0.198 z"
   id="path37"
   inkscape:connector-curvature="0" />
</g>
<g
   id="LWPOLYLINE_12_"
   style="stroke:none;fill:#000000;fill-opacity:1">
	
		<path
   style="fill:#000000;fill-opacity:1;stroke:none"
   d="m 391.638,574.08 c 1.65899,-10.81947 -2.07611,-24.79201 -14.396,-27.133 -13.41371,-3.0058 -31.92359,-0.90476 -37.398,13.87 -5.26735,15.52897 -2.15576,32.25567 -2.999,48.33656 -0.0112,13.37184 3.27365,31.21958 18.292,35.17044 12.42178,2.90349 29.74452,1.89032 35.293,-11.76 2.31002,-5.42783 3.47069,-12.41818 2.553,-17.762 -3.972,0 -7.944,0 -11.916,0 0.13654,8.90528 -3.87926,20.68958 -14.469,20.723 -8.96413,1.46257 -15.9356,-6.35618 -16.414,-14.842 -1.5341,-15.98716 -1.00321,-32.18968 -0.406,-48.227 -0.13796,-7.51048 4.34496,-15.07674 12.281,-16.171 7.32258,-2.04462 16.74932,1.76348 17.306,10.173 1.378,2.8625 -1.31244,9.06686 3.67884,7.62 2.86399,0.001 5.73353,-0.003 8.59416,0.002 z"
   id="path40"
   inkscape:connector-curvature="0" />
</g>
<g
   id="LWPOLYLINE_13_"
   style="stroke:none;fill:#000000;fill-opacity:1">
	
		<path
   style="fill:#000000;fill-opacity:1;stroke:none"
   d="m 419.055,629.723 c -3.96888,0.42589 -9.30465,-0.87027 -12.443,0.609 0.24928,4.41395 -0.49102,9.51467 0.324,13.536 3.972,0 7.944,0 11.916,0 0.27312,-4.70818 0.15686,-9.43113 0.203,-14.145 z"
   id="path43"
   inkscape:connector-curvature="0" />
</g>

<g
   id="LWPOLYLINE_15_"
   style="stroke:none;fill:#000000;fill-opacity:1">
	
		
</g>
<g
   id="LWPOLYLINE_16_"
   style="stroke:none;fill:#000000;fill-opacity:1">
	
		
</g>
<g
   id="LWPOLYLINE_17_"
   style="stroke:none;fill:#000000;fill-opacity:1">
	
		<rect
   x="402.426"
   y="245.999"
   fill="none"
   stroke="#000000"
   stroke-width="0.7087"
   stroke-linecap="round"
   stroke-linejoin="round"
   stroke-miterlimit="10"
   width="166.119"
   height="21.596"
   id="rect55"
   style="stroke:none;fill:#000000;fill-opacity:1" />
</g>
</svg>