<?xml version="1.0" encoding="UTF-8" standalone="no"?>
<!-- Generator: Adobe Illustrator 16.0.1, SVG Export Plug-In . SVG Version: 6.00 Build 0)  -->

<svg
   xmlns:dc="http://purl.org/dc/elements/1.1/"
   xmlns:cc="http://creativecommons.org/ns#"
   xmlns:rdf="http://www.w3.org/1999/02/22-rdf-syntax-ns#"
   xmlns:svg="http://www.w3.org/2000/svg"
   xmlns="http://www.w3.org/2000/svg"
   xmlns:sodipodi="http://sodipodi.sourceforge.net/DTD/sodipodi-0.dtd"
   xmlns:inkscape="http://www.inkscape.org/namespaces/inkscape"
   version="1.0"
   id="_x31_"
   x="0px"
   y="0px"
   width="612px"
   height="792px"
   viewBox="0 0 612 792"
   enable-background="new 0 0 612 792"
   xml:space="preserve"
   inkscape:version="0.48.2 r9819"
   sodipodi:docname="7008.svg"><metadata
   id="metadata178"><rdf:RDF><cc:Work
       rdf:about=""><dc:format>image/svg+xml</dc:format><dc:type
         rdf:resource="http://purl.org/dc/dcmitype/StillImage" /></cc:Work></rdf:RDF></metadata><defs
   id="defs176" /><sodipodi:namedview
   pagecolor="#ffffff"
   bordercolor="#666666"
   borderopacity="1"
   objecttolerance="10"
   gridtolerance="10"
   guidetolerance="10"
   inkscape:pageopacity="0"
   inkscape:pageshadow="2"
   inkscape:window-width="1920"
   inkscape:window-height="1071"
   id="namedview174"
   showgrid="false"
   inkscape:zoom="0.84281414"
   inkscape:cx="407.71494"
   inkscape:cy="328.1609"
   inkscape:window-x="0"
   inkscape:window-y="0"
   inkscape:window-maximized="1"
   inkscape:current-layer="_x31_" />
<g
   id="g3303"
   transform="matrix(0.61740841,0,0,0.61740841,109.67536,53.65401)"><g
     style="fill:#000000;fill-opacity:1;stroke:none"
     id="LWPOLYLINE_7_-0">
	
		<path
   id="polyline85"
   d="m 228.90625,261.1875 c -6.28931,-0.10731 -12.5371,2.06237 -17.1875,7.0625 -3.41366,3.6329 -5.49187,8.33735 -6.46875,13.1875 l -2.53125,6.34375 c -13.9968,-0.62873 -26.5196,11.21906 -26.3125,25.3125 l -0.28125,10.125 c -14.15978,-0.66194 -27.63545,10.76942 -27.65625,26.59375 -0.17,32.06617 -0.15625,62.85659 -0.15625,93.65625 -0.81169,47.61268 46.31592,89.32503 93.5625,81.40625 39.28634,-5.48371 72.39949,-41.2824 72.25,-81.40625 0,-26.998 -0.008,-53.99299 -0.65625,-81.625 -1.27296,-3.20997 -2.18176,-5.83859 -3.9375,-7.875 -8.82152,-7.85674 -20.02984,2.80732 -27.0625,5.96875 l 0,-46.84375 c 0.13568,-14.68694 -13.63034,-25.96683 -27.84375,-25.3125 l 0,-5.0625 c -1.56174,-12.83193 -13.71189,-21.32639 -25.71875,-21.53125 z m 1.125,26 c 2.79003,-0.0718 5.5859,2.6751 5.59375,8.1875 0.0155,37.12434 0.002,74.25067 0.125,111.375 0.86006,6.35007 13.0152,6.3486 13.8125,0.0312 -0.002,-31.252 -0.0143,-62.45925 0.15625,-93.09375 -0.27509,-9.47195 11.23981,-9.45508 11.1875,0.65625 0.016,37.55667 0.0325,75.13084 0.0625,112.6875 0.80916,8.9255 14.34511,8.83066 15.125,0 -5e-4,-11.39233 0.61044,-24.61036 0.75,-34.65625 2.31274,-11.85843 8.27098,-13.28738 16.0625,-13.71875 1.58427,1.19492 1.04093,3.62861 0.9375,4.6875 -9.9e-4,19.61783 10e-6,39.87367 0,60.125 0.15901,25.94241 -17.42596,50.43187 -41.5625,59.5 -38.62623,15.73725 -84.4378,-18.72636 -83.75,-59.5 0,-30.79966 -2.5e-4,-61.59258 0.0312,-92.40625 -0.86331,-9.34654 13.28447,-9.29096 12.46875,0 0.17,18.56266 0.1875,37.13259 0.1875,56.34375 3.23595,6.55118 10.89899,4.4928 13.90625,-0.59375 0.0165,-30.86015 0.0312,-61.67034 0.0312,-92.5625 l 0,-4.4375 c 1.5744,-7.71726 12.84327,-3.58225 12.625,3.90625 l 0,93.03125 c 1.3386,6.43526 14.79729,6.41619 16.09375,0 l 0.375,0 c 0,-36.702 7.5e-4,-73.38524 0.15625,-110.84375 0.0341,-5.73549 2.83497,-8.6469 5.625,-8.71875 z"
   style="fill:#000000;fill-opacity:1;stroke:none"
   inkscape:connector-curvature="0" />
</g><g
     style="fill:#000000;fill-opacity:1;stroke:none"
     id="LINE_30_-2">
	
		<path
   inkscape:connector-curvature="0"
   id="line121-3"
   d="m 47.03125,210.5625 c 0,122.77083 0,245.54167 0,368.3125 122.77083,0 245.54167,0 368.3125,0 0,-122.77083 0,-245.54167 0,-368.3125 -122.77083,0 -245.54167,0 -368.3125,0 z M 76.125,239.65625 c 103.375,0 206.75,0 310.125,0 0,103.375 0,206.75 0,310.125 -103.375,0 -206.75,0 -310.125,0 0,-103.375 0,-206.75 0,-310.125 z"
   style="fill:#000000;fill-opacity:1;stroke:none" />
</g><g
     id="LINE-9">
	
		
</g><g
     id="LINE_1_-9">
	
		
</g><g
     id="LINE_2_-7">
	
		
</g><g
     id="LINE_3_-0">
	
		
</g><g
     id="LINE_4_-3">
	
		
</g><g
     style="fill:#000000;fill-opacity:1;stroke:none"
     id="LINE_5_-9">
	
		<path
   inkscape:connector-curvature="0"
   id="line19-8"
   d="m 471.04099,183.979 c 0,141.33633 0,282.67265 0,424.00898 -141.33733,0 -282.67466,0 -424.011991,0 0,12.67067 0,25.34135 0,38.01202 150.628331,0 301.256671,0 451.885001,0 22.35301,-82.69533 44.70601,-165.39067 67.05902,-248.086 C 543.62001,313.94267 521.26701,229.97133 498.914,146 c -150.62833,0 -301.25667,0 -451.885001,0 0,12.65967 0,25.31933 0,37.979 141.337331,0 282.674661,0 424.011991,0 z"
   style="fill:#000000;fill-opacity:1;stroke:none" />
</g><g
     id="LINE_6_-6">
	
		
</g><g
     id="LINE_7_-5">
	
		
</g><g
     id="LINE_8_-7">
	
		
</g><g
     id="LINE_9_-6">
	
		
</g><g
     id="LINE_10_-2">
	
		
</g><g
     id="LWPOLYLINE-7">
	
		
</g><g
     id="LINE_11_-0">
	
		
</g><g
     id="ARC-3">
	
		
</g><g
     id="LINE_12_-9">
	
		
</g><g
     id="LINE_13_-9">
	
		
</g><g
     id="LWPOLYLINE_1_-9">
	
		
</g><g
     id="LINE_14_-1">
	
		
</g><g
     id="LWPOLYLINE_2_-7">
	
		
</g><g
     id="LINE_15_-2">
	
		
</g><g
     id="LWPOLYLINE_3_-3">
	
		
</g><g
     id="LINE_16_-6">
	
		
</g><g
     id="LWPOLYLINE_4_-5">
	
		
</g><g
     id="LINE_17_-5">
	
		
</g><g
     id="LINE_18_-8">
	
		
</g><g
     id="LWPOLYLINE_5_-1">
	
		
</g><g
     id="LWPOLYLINE_6_-4">
	
		
</g><g
     id="LINE_20_-7">
	
		
</g><g
     id="LINE_22_-1">
	
		
</g><g
     id="LINE_23_-3">
	
		
</g><g
     id="LINE_28_-8">
	
		
</g><g
     id="LINE_29_-4">
	
		
</g><g
     id="LINE_31_-8">
	
		
</g><g
     id="LINE_32_-0">
	
		
</g><g
     id="LINE_33_-4">
	
		
</g><g
     id="LINE_34_-6">
	
		
</g><g
     id="LINE_35_-0">
	
		
</g><g
     id="LWPOLYLINE_8_-3">
	
		
</g><g
     id="LWPOLYLINE_9_-2">
	
		
</g><g
     id="LWPOLYLINE_10_-6">
	
		
</g><g
     id="LWPOLYLINE_11_-9">
	
		
</g><g
     id="LWPOLYLINE_12_-4">
	
		
</g><g
     id="LWPOLYLINE_13_-1">
	
		
</g><g
     id="LWPOLYLINE_14_-3">
	
		
</g></g><g
   id="g4124"
   transform="translate(-7.0437347,0)"><g
     style="fill:#000000;fill-opacity:1;stroke:none"
     id="LWPOLYLINE_2_">
	
		<path
   id="path10"
   d="M 286.21875,542.96875 C 286.00175,542.96575 286,646 286,646 l 0.375,0 0.25,0 0.3125,0 0.4375,0 0.4375,0 0.5,0 0.5625,0 0.59375,0 0.65625,0 0.6875,0 0.71875,0 0.71875,0 0.78125,0 0.78125,0 0.8125,0 0.8125,0 0.84375,0 0.8125,0 0.84375,0 0.84375,0 0.8125,0 0.8125,0 0.78125,0 0.78125,0 0.71875,0 0.71875,0 0.6875,0 0.625,0 0.625,0 0.5625,0 0.5,0 0.4375,0 0.40625,0 0.34375,0 0.25,0 0.3125,0 1.375,0 1.28125,-0.0312 1.28125,-0.0625 1.21875,-0.0312 1.21875,-0.0937 1.21875,-0.0937 1.125,-0.0937 1.15625,-0.125 1.09375,-0.125 1.09375,-0.15625 1.09375,-0.1875 1.03125,-0.21875 1,-0.15625 1,-0.21875 0.9375,-0.28125 0.96875,-0.25 0.90625,-0.25 0.875,-0.3125 0.84375,-0.3125 0.875,-0.34375 0.8125,-0.34375 0.78125,-0.34375 0.78125,-0.34375 0.75,-0.40625 0.75,-0.4375 0.71875,-0.4375 0.65625,-0.40625 0.6875,-0.4375 0.625,-0.5 0.625,-0.5 0.5625,-0.5 0.625,-0.5625 0.5,-0.5 0.5625,-0.5625 0.53125,-0.5625 0.46875,-0.625 0.5,-0.59375 0.4375,-0.625 0.40625,-0.625 0.40625,-0.65625 0.34375,-0.5625 0.3125,-0.5625 0.3125,-0.5625 0.28125,-0.625 0.3125,-0.59375 0.25,-0.65625 0.3125,-0.6875 0.25,-0.6875 0.21875,-0.6875 0.28125,-0.78125 0.21875,-0.75 0.25,-0.78125 0.15625,-0.8125 0.21875,-0.875 0.21875,-0.875 0.1875,-0.875 0.15625,-0.90625 0.1875,-0.9375 0.1875,-1 0.15625,-1 0.125,-1.03125 0.125,-1.0625 0.15625,-1.0625 0.125,-1.125 0.0937,-1.125 0.125,-1.1875 0.0937,-1.21875 0.0625,-1.25 0.0937,-1.25 0.0937,-1.3125 0.0312,-1.34375 0.0937,-1.375 0.0312,-1.40625 0.0625,-1.4375 0.0312,-1.46875 0.0625,-1.5 0,-1.53125 0,-1.59375 0.0312,-1.625 0,-1.625 0,-0.3125 0,-0.34375 -0.0312,-0.40625 0,-0.46875 0,-0.53125 -0.0625,-0.59375 0,-0.59375 -0.0312,-0.65625 -0.0625,-0.6875 -0.0312,-0.75 -0.0312,-0.78125 -0.0625,-0.8125 -0.0312,-0.875 -0.0625,-0.875 -0.0625,-0.875 -0.0937,-0.90625 -0.0312,-0.9375 -0.0937,-0.96875 -0.0937,-0.9375 -0.125,-1 -0.0937,-1 -0.125,-0.96875 -0.0937,-1 -0.125,-1 -0.125,-0.96875 -0.125,-1 -0.1875,-1 -0.125,-0.96875 -0.1875,-0.9375 -0.15625,-0.9375 -0.1875,-0.9375 -0.21875,-0.875 -0.15625,-0.84375 -0.21875,-0.875 -0.21875,-0.84375 -0.21875,-0.78125 -0.21875,-0.71875 -0.25,-0.6875 -0.28125,-0.71875 -0.25,-0.59375 -0.40625,-0.875 -0.40625,-0.8125 -0.4375,-0.78125 -0.4375,-0.78125 -0.5,-0.75 L 341.125,554.25 340.59375,553.5625 340.125,552.90625 339.59375,552.25 339.0625,551.59375 338.5,551 l -0.5625,-0.5625 -0.5625,-0.5625 -0.59375,-0.53125 -0.5625,-0.53125 -0.65625,-0.46875 -0.59375,-0.4375 -0.65625,-0.4375 -0.65625,-0.40625 -0.6875,-0.40625 -0.6875,-0.375 -0.71875,-0.375 -0.71875,-0.28125 -0.75,-0.3125 L 329.375,545 l -0.78125,-0.25 -0.78125,-0.25 -0.78125,-0.21875 -0.84375,-0.21875 -0.8125,-0.1875 -0.8125,-0.15625 -0.875,-0.1875 -0.875,-0.125 -0.90625,-0.0937 L 321,543.1875 320.09375,543.125 319.125,543.0625 318.1875,543 l -1,0 -0.96875,-0.0312 -0.5,0 -0.375,0 -0.40625,0 -0.5625,0 -0.625,0 -0.6875,0 -0.75,0 -0.8125,0 -0.90625,0 -0.90625,0 -0.96875,0 -1.03125,0 -1.03125,0 -1.0625,0 -1.125,0 -1.09375,0 -1.125,0 -1.125,0 -1.125,0 -1.125,0 -1.15625,0 -1.0625,0 -1.09375,0 -1.03125,0 -1.03125,0 -0.96875,0 -0.9375,0 -0.875,0 -0.8125,0 -0.75,0 -0.71875,0 -0.59375,0 -0.53125,0 -0.46875,0 -0.34375,0 -0.28125,0 z m 12.21875,11.5625 0.28125,0 0.4375,0 0.3125,0 0.34375,0 0.375,0 0.4375,0 0.4375,0 0.5,0 0.53125,0 0.53125,0 0.5625,0 0.59375,0 0.59375,0 0.625,0 0.625,0 0.625,0 0.59375,0 0.65625,0 0.65625,0 0.59375,0 0.625,0 0.59375,0 0.5625,0 0.5625,0 0.5625,0 0.53125,0 0.46875,0 0.5,0 0.40625,0 0.375,0 0.34375,0 0.28125,0 0.28125,0 0.34375,0 1.125,0 0.9375,0.0625 0.9375,0.0937 0.90625,0.0625 0.90625,0.125 0.8125,0.15625 0.84375,0.21875 0.8125,0.21875 0.78125,0.1875 0.71875,0.3125 0.75,0.3125 0.6875,0.34375 0.65625,0.40625 0.65625,0.40625 0.65625,0.4375 0.5625,0.53125 0.59375,0.53125 0.53125,0.5625 0.5,0.59375 0.53125,0.65625 0.4375,0.6875 0.46875,0.75 0.40625,0.71875 0.375,0.84375 0.40625,0.84375 0.34375,0.875 0.3125,0.96875 0.28125,1 0.3125,0.96875 0.21875,1.09375 0.25,1.125 0.1875,1.1875 0.15625,1.21875 0.1875,1.25 0.125,1.34375 0.0937,1.34375 0.0937,1.4375 0.0625,1.46875 0,1.5 0.0625,1.5625 0,0.34375 0,0.21875 0,0.3125 0,0.40625 0,0.375 0,0.46875 0,0.53125 0,0.5625 0,0.5625 0,0.65625 0,0.65625 0,0.6875 0,0.6875 0,0.75 0,0.71875 0,0.75 0,0.78125 0,0.78125 0,0.71875 0,0.78125 0,0.75 0,0.75 0,0.71875 0,0.6875 0,0.71875 0,0.625 0,0.65625 0,0.5625 0,0.5625 0,0.53125 0,0.46875 0,0.40625 0,0.375 0,0.3125 0,0.25 0,0.25 c 0,0.043 -0.0625,1.84375 -0.0625,1.84375 l -0.0312,1.6875 -0.0312,1.65625 -0.0937,1.59375 -0.0937,1.5 -0.125,1.4375 -0.1875,1.4375 -0.21875,1.34375 -0.1875,1.3125 -0.21875,1.21875 -0.28125,1.1875 -0.28125,1.15625 -0.375,1.0625 -0.34375,1 -0.375,1 -0.4375,0.90625 -0.46875,0.90625 -0.5,0.84375 -0.5,0.78125 -0.53125,0.71875 -0.59375,0.6875 -0.625,0.65625 -0.65625,0.625 -0.6875,0.5625 -0.6875,0.5 -0.78125,0.5 -0.78125,0.4375 -0.8125,0.40625 -0.875,0.375 L 322.125,633 l -0.96875,0.25 -1,0.25 -1,0.28125 -1.0625,0.15625 -1.09375,0.1875 -1.125,0.125 -1.21875,0.0937 -1.21875,0.0937 -1.25,0.0312 -1.3125,0 -0.34375,0 -0.4375,0 -0.25,0 -0.25,0 -0.3125,0 -0.34375,0 -0.34375,0 -0.40625,0 -0.4375,0 -0.375,0 -0.4375,0 -0.4375,0 -0.46875,0 -0.46875,0 -0.4375,0 -0.46875,0 -0.46875,0 -0.46875,0 -0.4375,0 -0.46875,0 -0.4375,0 -0.4375,0 -0.40625,0 -0.40625,0 -0.375,0 -0.375,0 -0.34375,0 -0.28125,0 -0.3125,0 -0.25,0 -0.40625,0 -0.25,0 c -0.08,0 -0.0937,-79.9375 -0.0937,-79.9375 z"
   style="fill:#000000;fill-opacity:1;stroke:none"
   inkscape:connector-curvature="0" />
</g><g
     style="fill:#000000;fill-opacity:1;stroke:none"
     id="LWPOLYLINE_3_">
	
		<path
   id="path13"
   d="M 391.8125,542.96875 C 391.6805,542.96875 359.71875,646 359.71875,646 l 0.375,0 0.4375,0 0.28125,0 0.28125,0 0.375,0 0.34375,0 0.375,0 0.40625,0 0.4375,0 0.46875,0 0.4375,0 0.46875,0 0.46875,0 0.53125,0 0.46875,0 0.53125,0 0.46875,0 0.53125,0 0.46875,0 0.46875,0 0.5,0 0.46875,0 0.4375,0 0.4375,0 0.375,0 0.40625,0 0.375,0 0.3125,0 0.3125,0 0.28125,0 0.21875,0 0.34375,0 c 0.217,0 0.28125,-0.0312 0.28125,-0.0312 0.043,-0.131 0.0937,-0.375 0.0937,-0.375 l 0.0625,-0.28125 0.15625,-0.40625 0.125,-0.4375 0.15625,-0.46875 0.1875,-0.59375 0.21875,-0.625 0.21875,-0.65625 0.21875,-0.71875 0.25,-0.78125 0.25,-0.78125 0.28125,-0.8125 0.28125,-0.875 0.28125,-0.90625 0.28125,-0.90625 0.3125,-0.9375 0.3125,-0.90625 0.25,-0.9375 0.3125,-0.90625 0.3125,-0.9375 0.28125,-0.9375 0.3125,-0.875 0.25,-0.90625 0.3125,-0.875 0.25,-0.8125 0.28125,-0.78125 0.21875,-0.78125 0.25,-0.75 0.21875,-0.625 0.1875,-0.65625 0.21875,-0.5625 0.125,-0.46875 0.15625,-0.5 0.0937,-0.34375 0.125,-0.3125 c 0.044,-0.217 0.0937,-0.34375 0.0937,-0.34375 0.087,-0.043 0.3125,-0.0312 0.3125,-0.0312 l 0.34375,0 0.4375,0 0.5625,0 0.6875,0 0.78125,0 0.84375,0 0.96875,0 1.03125,0 1.125,0 1.15625,0 1.21875,0 1.3125,0 1.3125,0 1.375,0 1.375,0 1.40625,0 1.4375,0 1.40625,0 1.4375,0 1.4375,0 1.375,0 1.40625,0 1.375,0 1.3125,0 1.3125,0 1.1875,0 1.1875,0 1.125,0 1.03125,0 0.96875,0 0.875,0 0.75,0 0.65625,0 0.625,0 0.4375,0 0.34375,0 0.25,0 c 0.043,0.172 0.125,0.375 0.125,0.375 l 0.0937,0.3125 0.0937,0.34375 0.125,0.5 0.125,0.46875 0.1875,0.5625 0.15625,0.65625 0.21875,0.625 0.21875,0.75 0.21875,0.78125 0.21875,0.78125 0.21875,0.8125 0.25,0.875 0.28125,0.90625 0.25,0.875 0.25,0.9375 0.28125,0.9375 0.25,0.90625 0.25,0.9375 0.28125,0.90625 0.25,0.9375 0.25,0.90625 0.28125,0.90625 0.25,0.875 0.21875,0.8125 0.25,0.78125 0.21875,0.78125 0.1875,0.71875 0.21875,0.65625 0.15625,0.625 0.1875,0.59375 0.125,0.46875 0.125,0.4375 0.0937,0.40625 0.0937,0.28125 c 0.087,0.217 0.125,0.375 0.125,0.375 0.13,0.043 0.25,0.0312 0.25,0.0312 l 0.40625,0 0.25,0 0.3125,0 0.34375,0 0.375,0 0.40625,0 0.46875,0 0.4375,0 0.46875,0 0.53125,0 0.53125,0 0.5625,0 0.5,0 0.5625,0 0.5625,0 0.5625,0 0.5625,0 0.5625,0 0.5625,0 0.5625,0 0.53125,0 0.5,0 0.53125,0 0.46875,0 0.5,0 0.4375,0 0.375,0 0.40625,0 0.34375,0 0.28125,0 0.28125,0 0.21875,0 0.34375,0 c 0.043,-0.174 -0.125,-0.75 -0.125,-0.75 l -0.3125,-0.90625 L 440.5,643.125 440.03125,641.5625 439.4375,639.75 438.78125,637.625 438,635.28125 l -0.8125,-2.59375 -0.875,-2.78125 -0.96875,-3 -1,-3.15625 -1.0625,-3.34375 L 432.1875,617 431,613.375 l -1.15625,-3.625 -1.15625,-3.71875 -1.21875,-3.84375 -1.21875,-3.84375 -1.25,-3.875 -1.21875,-3.84375 -1.21875,-3.8125 -1.21875,-3.8125 -1.21875,-3.75 -1.15625,-3.6875 -1.125,-3.53125 -1.09375,-3.46875 -1.09375,-3.3125 -1,-3.15625 -0.9375,-3 -0.90625,-2.8125 -0.84375,-2.59375 -0.71875,-2.34375 -0.71875,-2.09375 -0.5625,-1.8125 -0.46875,-1.5625 -0.375,-1.21875 -0.3125,-0.90625 -0.1875,-0.5625 c -0.174,-0.217 -0.34375,-0.21875 -0.34375,-0.21875 l -0.4375,0 -0.28125,0 -0.34375,0 -0.40625,0 -0.4375,0 -0.4375,0 -0.5,0 -0.53125,0 -0.53125,0 -0.5625,0 -0.59375,0 -0.625,0 -0.59375,0 -0.59375,0 -0.65625,0 -0.625,0 -0.625,0 -0.625,0 -0.65625,0 -0.59375,0 -0.59375,0 -0.5625,0 -0.59375,0 -0.5625,0 -0.5,0 -0.46875,0 -0.4375,0 -0.4375,0 -0.40625,0 -0.34375,0 -0.3125,0 -0.25,0 -0.34375,0 z M 399.65625,555.5 c 0.04,-0.089 16,54.0625 16,54.0625 l -0.21875,0 -0.3125,0 -0.34375,0 -0.46875,0 -0.59375,0 -0.65625,0 -0.6875,0 -0.84375,0 -0.84375,0 -0.9375,0 -1,0 -1.03125,0 -1.03125,0 -1.125,0 -1.125,0 -1.1875,0 -1.15625,0 -1.21875,0 -1.1875,0 -1.1875,0 -1.1875,0 -1.21875,0 -1.125,0 -1.15625,0 -1.09375,0 -1.09375,0 -1.03125,0 -0.96875,0 -0.9375,0 -0.875,0 -0.78125,0 -0.71875,0 -0.65625,0 -0.5625,0 -0.46875,0 -0.40625,0 -0.3125,0 -0.21875,0 c 0.044,-0.086 0.15625,-0.375 0.15625,-0.375 l 0.125,-0.46875 0.15625,-0.65625 0.28125,-0.78125 0.25,-0.96875 0.34375,-1.125 0.34375,-1.21875 0.4375,-1.375 0.4375,-1.46875 0.4375,-1.5625 0.53125,-1.65625 0.5,-1.78125 0.53125,-1.8125 0.5625,-1.875 0.5625,-1.90625 0.5625,-2 0.59375,-1.96875 0.5625,-2 0.625,-2.0625 0.59375,-2.03125 0.625,-2.03125 0.59375,-2 0.5625,-1.9375 0.5625,-1.96875 0.5625,-1.84375 0.53125,-1.84375 0.5,-1.71875 0.5,-1.65625 0.46875,-1.59375 0.4375,-1.46875 0.375,-1.34375 0.40625,-1.21875 0.3125,-1.125 L 399,557.75 l 0.21875,-0.8125 0.21875,-0.65625 0.125,-0.46875 0.0937,-0.3125 z"
   style="fill:#000000;fill-opacity:1;stroke:none"
   inkscape:connector-curvature="0" />
</g><g
     style="fill:#000000;fill-opacity:1;stroke:none"
     id="LWPOLYLINE">
	
		<path
   style="fill:#000000;fill-opacity:1;stroke:none"
   id="path4"
   d="m 182.095,554.543 c 0.044,0.174 0.195,0.65 0.195,0.65 l 0.238,0.824 0.347,1.084 0.412,1.344 0.478,1.648 0.563,1.865 0.629,2.08 0.693,2.299 0.737,2.473 0.803,2.688 0.846,2.775 0.889,2.949 0.933,3.078 0.954,3.166 0.976,3.252 0.997,3.34 1.02,3.383 1.019,3.383 1.041,3.426 1.041,3.426 1.019,3.426 1.02,3.383 0.997,3.338 0.976,3.252 0.954,3.166 0.933,3.08 0.889,2.904 0.846,2.818 0.781,2.689 0.759,2.473 0.693,2.297 0.629,2.082 0.563,1.865 0.478,1.604 0.412,1.389 0.347,1.084 0.238,0.824 0.152,0.477 c 0.13,0.174 0.238,0.174 0.238,0.174 0.151,0 0.325,0 0.325,0 0.238,0 0.477,0 0.477,0 h 0.304 0.304 0.325 0.368 0.391 0.391 0.412 0.434 0.455 0.455 0.455 0.456 0.477 0.455 0.456 0.477 0.434 0.455 0.435 0.411 0.391 0.391 0.368 0.325 0.325 0.282 0.238 c 0.238,0 0.412,0 0.412,0 0.151,0 0.26,0 0.26,0 0.152,-0.174 0.282,-0.65 0.282,-0.65 l 0.26,-0.824 0.326,-1.084 0.411,-1.389 0.478,-1.604 0.563,-1.865 0.629,-2.082 0.694,-2.297 0.759,-2.473 0.802,-2.689 0.846,-2.818 0.867,-2.904 0.933,-3.08 0.954,-3.166 0.976,-3.252 0.997,-3.338 1.02,-3.383 1.041,-3.426 1.019,-3.426 1.041,-3.426 1.019,-3.383 1.02,-3.383 0.997,-3.34 0.976,-3.252 0.954,-3.166 0.933,-3.078 0.889,-2.949 0.846,-2.775 0.803,-2.688 0.737,-2.473 0.693,-2.299 0.629,-2.08 0.563,-1.865 0.478,-1.648 0.434,-1.344 0.325,-1.084 0.238,-0.824 0.152,-0.477 c 0.043,0 0.043,0.477 0.043,0.477 v 0.824 1.084 1.344 1.648 1.865 2.08 2.299 2.473 2.688 2.775 2.949 3.078 3.166 3.252 3.34 3.383 3.383 3.426 3.426 3.426 3.383 3.338 3.252 3.166 3.08 2.904 2.818 2.689 2.473 2.297 2.082 1.865 1.604 1.389 1.084 0.824 0.477 c 0.195,0.174 0.347,0.174 0.347,0.174 0.195,0 0.412,0 0.412,0 h 0.261 0.281 0.304 0.347 0.347 0.391 0.391 0.434 0.412 0.455 0.455 0.455 0.456 0.477 0.455 0.478 0.455 0.455 0.435 0.434 0.411 0.412 0.369 0.368 0.325 0.325 0.282 0.26 c 0.217,0 0.391,0 0.391,0 0.151,0 0.26,0 0.26,0 0.087,-0.174 0.087,-0.738 0.087,-0.738 v -0.91 -1.215 -1.561 -1.82 -2.125 -2.342 -2.602 -2.775 -2.992 -3.166 -3.34 -3.426 -3.6 -3.643 -3.729 -3.816 -3.859 -3.859 -3.859 -3.816 -3.816 -3.729 -3.688 -3.555 -3.471 -3.295 -3.166 -2.992 -2.818 -2.602 -2.342 -2.082 -1.82 -1.562 -1.213 -0.912 -0.562 c -0.151,-0.217 -0.325,-0.217 -0.325,-0.217 h -0.26 -0.325 -0.369 -0.434 -0.498 -0.521 -0.586 -0.629 -0.65 -0.693 -0.694 -0.759 -0.759 -0.759 -0.803 -0.78 -0.802 -0.803 -0.78 -0.803 -0.759 -0.78 -0.737 -0.716 -0.672 -0.65 -0.629 -0.585 -0.521 -0.499 -0.434 -0.369 -0.325 -0.26 c -0.174,0 -0.304,0 -0.304,0 -0.087,0.172 -0.217,0.65 -0.217,0.65 l -0.217,0.736 -0.304,1.041 -0.368,1.301 -0.434,1.518 -0.521,1.779 -0.563,1.951 -0.629,2.168 -0.673,2.342 -0.715,2.516 -0.759,2.645 -0.803,2.775 -0.846,2.861 -0.846,2.992 -0.889,3.08 -0.911,3.121 -0.91,3.166 -0.933,3.209 -0.933,3.252 -0.932,3.209 -0.933,3.209 -0.911,3.209 -0.91,3.123 -0.889,3.035 -0.846,2.992 -0.846,2.906 -0.803,2.775 -0.759,2.645 -0.715,2.516 -0.673,2.342 -0.629,2.125 -0.563,1.994 -0.521,1.734 -0.434,1.562 -0.368,1.258 -0.304,1.039 -0.217,0.781 -0.13,0.434 c -0.108,0 -0.239,-0.434 -0.239,-0.434 l -0.217,-0.781 -0.304,-1.039 -0.368,-1.258 -0.434,-1.562 -0.499,-1.734 -0.585,-1.994 -0.629,-2.125 -0.672,-2.342 -0.716,-2.516 -0.759,-2.645 -0.803,-2.775 -0.846,-2.906 -0.845,-2.992 -0.89,-3.035 -0.91,-3.123 -0.911,-3.209 -0.933,-3.209 -0.932,-3.209 -0.933,-3.252 -0.933,-3.209 -0.91,-3.166 -0.911,-3.121 -0.867,-3.08 -0.867,-2.992 -0.846,-2.861 -0.802,-2.775 -0.76,-2.645 -0.715,-2.516 -0.673,-2.342 -0.628,-2.168 -0.564,-1.951 -0.521,-1.779 -0.434,-1.518 -0.368,-1.301 -0.304,-1.041 -0.217,-0.736 -0.13,-0.479 c -0.195,-0.172 -0.369,-0.172 -0.369,-0.172 h -0.26 -0.304 -0.368 -0.412 -0.455 -0.521 -0.564 -0.585 -0.629 -0.65 -0.694 -0.693 -0.737 -0.737 -0.759 -0.759 -0.759 -0.78 -0.76 -0.759 -0.737 -0.715 -0.716 -0.693 -0.651 -0.628 -0.586 -0.563 -0.499 -0.477 -0.412 -0.369 -0.303 -0.239 c -0.195,0 -0.304,0 -0.304,0 -0.021,0.217 -0.021,0.779 -0.021,0.779 v 0.912 1.213 1.562 1.82 2.082 2.342 2.602 2.818 2.992 3.166 3.295 3.471 3.555 3.688 3.729 3.816 3.816 3.859 3.859 3.859 3.816 3.729 3.643 3.6 3.426 3.34 3.166 2.992 2.775 2.602 2.342 2.125 1.82 1.561 1.215 0.91 0.564 c 0.174,0.174 0.304,0.174 0.304,0.174 0.174,0 0.391,0 0.391,0 h 0.238 0.26 0.282 0.325 0.325 0.369 0.368 0.391 0.39 0.412 0.412 0.434 0.434 0.434 0.434 0.434 0.412 0.434 0.412 0.391 0.39 0.369 0.347 0.347 0.304 0.304 0.26 0.239 c 0.195,0 0.368,0 0.368,0 0.152,0 0.238,0 0.238,0 0.083,-10e-4 0.083,-91.458 0.083,-91.458 z"
   stroke-miterlimit="10"
   inkscape:connector-curvature="0" />
</g></g>
<g
   id="LWPOLYLINE_1_"
   style="stroke:none;fill:#000000;fill-opacity:1">
	
		
</g>


<g
   id="LWPOLYLINE_4_"
   style="stroke:none;fill:#000000;fill-opacity:1">
	
		
</g>




















































</svg>