<?xml version="1.0" encoding="UTF-8" standalone="no"?>
<!-- Generator: Adobe Illustrator 16.0.1, SVG Export Plug-In . SVG Version: 6.00 Build 0)  -->

<svg
   xmlns:dc="http://purl.org/dc/elements/1.1/"
   xmlns:cc="http://creativecommons.org/ns#"
   xmlns:rdf="http://www.w3.org/1999/02/22-rdf-syntax-ns#"
   xmlns:svg="http://www.w3.org/2000/svg"
   xmlns="http://www.w3.org/2000/svg"
   xmlns:sodipodi="http://sodipodi.sourceforge.net/DTD/sodipodi-0.dtd"
   xmlns:inkscape="http://www.inkscape.org/namespaces/inkscape"
   version="1.0"
   id="_x31_"
   x="0px"
   y="0px"
   width="612px"
   height="792px"
   viewBox="0 0 612 792"
   enable-background="new 0 0 612 792"
   xml:space="preserve"
   inkscape:version="0.48.2 r9819"
   sodipodi:docname="7012.svg"><metadata
   id="metadata73"><rdf:RDF><cc:Work
       rdf:about=""><dc:format>image/svg+xml</dc:format><dc:type
         rdf:resource="http://purl.org/dc/dcmitype/StillImage" /></cc:Work></rdf:RDF></metadata><defs
   id="defs71">
	
		
</defs><sodipodi:namedview
   pagecolor="#ffffff"
   bordercolor="#666666"
   borderopacity="1"
   objecttolerance="10"
   gridtolerance="10"
   guidetolerance="10"
   inkscape:pageopacity="0"
   inkscape:pageshadow="2"
   inkscape:window-width="1920"
   inkscape:window-height="1071"
   id="namedview69"
   showgrid="false"
   showguides="true"
   inkscape:guide-bbox="true"
   inkscape:zoom="0.90509668"
   inkscape:cx="471.31886"
   inkscape:cy="584.13307"
   inkscape:window-x="0"
   inkscape:window-y="0"
   inkscape:window-maximized="1"
   inkscape:current-layer="_x31_" />
<g
   id="LWPOLYLINE"
   style="opacity:0.45283024;stroke-width:0.00254974;stroke-miterlimit:10;stroke-dasharray:none"
   transform="matrix(39.219685,0,0,39.219685,-11705.67,-15171.686)">
	
		<polygon
   stroke-miterlimit="10"
   points="301.196,397.575 301.195,397.594 301.194,397.614 301.194,397.635 301.194,397.656 301.194,397.679 301.195,397.701 301.196,397.725 301.198,397.748 301.201,397.772 301.205,397.797 301.209,397.821 301.214,397.846 301.22,397.871 301.227,397.896 301.235,397.92 301.245,397.944 301.255,397.969 301.267,397.992 301.28,398.016 301.294,398.039 301.31,398.062 301.328,398.083 301.346,398.104 301.367,398.124 301.389,398.144 301.413,398.162 301.439,398.179 301.466,398.195 301.496,398.21 301.527,398.225 301.561,398.236 301.597,398.248 301.635,398.257 301.675,398.266 301.717,398.271 301.762,398.276 301.81,398.279 301.859,398.28 301.886,398.279 301.913,398.278 301.94,398.277 301.966,398.275 301.993,398.272 302.019,398.269 302.045,398.265 302.07,398.26 302.096,398.254 302.121,398.247 302.145,398.24 302.169,398.232 302.193,398.224 302.216,398.214 302.239,398.204 302.261,398.193 302.283,398.181 302.304,398.168 302.324,398.154 302.344,398.14 302.363,398.125 302.382,398.108 302.399,398.091 302.417,398.072 302.433,398.054 302.448,398.033 302.462,398.012 302.476,397.99 302.489,397.967 302.5,397.942 302.511,397.917 302.521,397.891 302.53,397.863 302.538,397.835 302.544,397.806 302.549,397.774 302.554,397.742 302.557,397.71 302.559,397.676 302.559,397.64 302.558,397.586 302.552,397.535 302.543,397.486 302.531,397.441 302.516,397.398 302.497,397.357 302.477,397.319 302.453,397.283 302.428,397.249 302.4,397.217 302.37,397.186 302.339,397.157 302.306,397.13 302.272,397.104 302.236,397.078 302.2,397.055 302.163,397.032 302.125,397.01 302.087,396.988 302.049,396.968 302.011,396.947 301.973,396.927 301.936,396.907 301.898,396.887 301.862,396.867 301.827,396.847 301.792,396.825 301.76,396.805 301.728,396.782 301.699,396.76 301.671,396.736 301.646,396.711 301.622,396.686 301.601,396.658 301.583,396.63 301.568,396.6 301.556,396.567 301.547,396.533 301.541,396.498 301.539,396.46 301.54,396.442 301.541,396.425 301.542,396.408 301.544,396.393 301.547,396.377 301.551,396.361 301.555,396.347 301.56,396.332 301.564,396.318 301.57,396.306 301.576,396.293 301.583,396.28 301.59,396.269 301.598,396.258 301.605,396.247 301.614,396.236 301.623,396.227 301.632,396.218 301.642,396.208 301.652,396.2 301.662,396.192 301.673,396.185 301.684,396.178 301.695,396.171 301.706,396.164 301.718,396.158 301.73,396.153 301.742,396.148 301.754,396.144 301.767,396.14 301.78,396.136 301.792,396.133 301.806,396.129 301.819,396.127 301.832,396.125 301.845,396.123 301.859,396.122 301.872,396.121 301.886,396.12 301.899,396.12 301.918,396.12 301.937,396.121 301.955,396.123 301.972,396.125 301.988,396.128 302.004,396.132 302.02,396.136 302.035,396.141 302.048,396.146 302.062,396.152 302.075,396.158 302.087,396.165 302.099,396.173 302.11,396.181 302.121,396.189 302.131,396.199 302.141,396.208 302.15,396.219 302.159,396.229 302.167,396.24 302.174,396.252 302.182,396.264 302.188,396.275 302.194,396.288 302.2,396.302 302.206,396.315 302.21,396.329 302.215,396.344 302.219,396.358 302.223,396.373 302.226,396.389 302.229,396.404 302.231,396.42 302.233,396.437 302.235,396.453 302.237,396.47 302.238,396.487 302.239,396.505 302.239,396.522 302.239,396.54 302.248,396.54 302.257,396.54 302.264,396.54 302.271,396.54 302.278,396.54 302.286,396.54 302.295,396.54 302.304,396.54 302.313,396.54 302.324,396.54 302.334,396.54 302.345,396.54 302.356,396.54 302.367,396.54 302.378,396.54 302.389,396.54 302.4,396.54 302.412,396.54 302.423,396.54 302.434,396.54 302.444,396.54 302.455,396.54 302.465,396.54 302.475,396.54 302.484,396.54 302.492,396.54 302.5,396.54 302.508,396.54 302.515,396.54 302.521,396.54 302.526,396.54 302.535,396.54 302.54,396.506 302.541,396.473 302.54,396.44 302.538,396.41 302.535,396.38 302.531,396.351 302.526,396.322 302.521,396.295 302.515,396.269 302.507,396.243 302.499,396.218 302.49,396.194 302.48,396.172 302.469,396.15 302.458,396.129 302.445,396.109 302.432,396.09 302.417,396.071 302.402,396.054 302.387,396.037 302.37,396.021 302.353,396.007 302.335,395.993 302.316,395.98 302.296,395.968 302.276,395.956 302.255,395.945 302.233,395.936 302.211,395.927 302.188,395.918 302.164,395.911 302.139,395.904 302.114,395.899 302.088,395.894 302.062,395.89 302.034,395.886 302.006,395.883 301.978,395.881 301.949,395.88 301.919,395.88 301.891,395.88 301.863,395.881 301.835,395.883 301.808,395.886 301.781,395.89 301.754,395.894 301.729,395.898 301.703,395.904 301.677,395.911 301.653,395.918 301.628,395.926 301.605,395.935 301.582,395.944 301.559,395.954 301.537,395.965 301.516,395.978 301.495,395.99 301.475,396.003 301.456,396.018 301.437,396.032 301.419,396.048 301.401,396.064 301.385,396.082 301.369,396.101 301.354,396.119 301.34,396.139 301.327,396.159 301.314,396.181 301.303,396.203 301.292,396.226 301.282,396.25 301.273,396.274 301.266,396.3 301.259,396.326 301.253,396.353 301.248,396.381 301.244,396.409 301.242,396.438 301.24,396.469 301.239,396.5 301.241,396.551 301.247,396.6 301.256,396.646 301.268,396.688 301.283,396.729 301.301,396.769 301.322,396.805 301.345,396.84 301.371,396.872 301.398,396.903 301.428,396.933 301.459,396.961 301.492,396.987 301.527,397.013 301.562,397.036 301.598,397.06 301.635,397.082 301.673,397.104 301.711,397.125 301.749,397.145 301.788,397.165 301.826,397.185 301.863,397.205 301.9,397.225 301.937,397.244 301.972,397.265 302.006,397.284 302.039,397.306 302.07,397.327 302.1,397.35 302.127,397.372 302.153,397.396 302.176,397.422 302.197,397.448 302.215,397.477 302.23,397.506 302.243,397.536 302.252,397.569 302.257,397.604 302.259,397.64 302.259,397.661 302.258,397.681 302.256,397.7 302.254,397.719 302.251,397.736 302.248,397.754 302.244,397.771 302.239,397.787 302.233,397.803 302.228,397.817 302.221,397.832 302.214,397.846 302.207,397.858 302.199,397.871 302.191,397.883 302.182,397.895 302.172,397.905 302.163,397.916 302.152,397.926 302.142,397.935 302.131,397.943 302.119,397.952 302.107,397.96 302.095,397.967 302.083,397.974 302.069,397.979 302.056,397.985 302.042,397.991 302.029,397.996 302.015,398 302,398.004 301.985,398.008 301.97,398.011 301.955,398.013 301.939,398.016 301.924,398.017 301.908,398.019 301.892,398.02 301.875,398.02 301.859,398.02 301.846,398.02 301.832,398.02 301.818,398.019 301.805,398.017 301.791,398.015 301.778,398.013 301.764,398.01 301.75,398.007 301.737,398.004 301.724,397.999 301.711,397.995 301.698,397.99 301.685,397.984 301.672,397.979 301.66,397.972 301.648,397.964 301.636,397.957 301.624,397.948 301.613,397.939 301.602,397.93 301.591,397.92 301.581,397.909 301.571,397.898 301.561,397.886 301.552,397.873 301.543,397.86 301.535,397.847 301.527,397.832 301.52,397.816 301.513,397.801 301.507,397.784 301.501,397.767 301.497,397.748 301.492,397.729 301.488,397.71 301.485,397.689 301.482,397.668 301.48,397.646 301.479,397.624 301.479,397.6 301.479,397.594 301.479,397.587 301.479,397.581 301.479,397.574 301.479,397.567 301.479,397.562 301.479,397.555 301.479,397.55 301.479,397.544 301.199,397.54 301.198,397.557 "
   id="polygon4"
   style="fill:none;stroke:#000000;stroke-width:0.00254974;stroke-linecap:round;stroke-linejoin:round;stroke-miterlimit:10;stroke-dasharray:none" />
</g>
<g
   id="LWPOLYLINE_1_"
   style="opacity:0.45283024;stroke-width:0.00254974;stroke-miterlimit:10;stroke-dasharray:none"
   transform="matrix(39.219685,0,0,39.219685,-11705.67,-15171.686)">
	
		<polygon
   stroke-miterlimit="10"
   points="303.296,396.18 303.304,396.18 303.312,396.18 303.321,396.18 303.331,396.18 303.342,396.18 303.354,396.18 303.366,396.18 303.378,396.18 303.392,396.18 303.406,396.18 303.42,396.18 303.435,396.18 303.449,396.18 303.464,396.18 303.479,396.18 303.494,396.18 303.509,396.18 303.524,396.18 303.539,396.18 303.553,396.18 303.566,396.18 303.58,396.18 303.593,396.18 303.605,396.18 303.617,396.18 303.627,396.18 303.638,396.18 303.647,396.18 303.655,396.18 303.662,396.18 303.668,396.18 303.676,396.18 303.684,396.18 303.689,396.181 303.696,396.181 303.703,396.182 303.71,396.183 303.718,396.184 303.727,396.186 303.735,396.187 303.745,396.189 303.754,396.191 303.765,396.194 303.775,396.198 303.785,396.201 303.796,396.206 303.807,396.211 303.818,396.216 303.829,396.222 303.84,396.228 303.851,396.235 303.862,396.242 303.873,396.251 303.883,396.26 303.894,396.27 303.904,396.279 303.914,396.29 303.923,396.302 303.933,396.314 303.941,396.328 303.95,396.342 303.958,396.357 303.965,396.373 303.972,396.39 303.978,396.407 303.983,396.427 303.988,396.446 303.992,396.467 303.995,396.488 303.998,396.512 303.999,396.535 303.999,396.56 303.999,396.586 303.997,396.611 303.995,396.636 303.991,396.658 303.987,396.681 303.982,396.701 303.976,396.721 303.969,396.74 303.962,396.758 303.954,396.774 303.945,396.79 303.936,396.805 303.926,396.819 303.915,396.832 303.904,396.845 303.893,396.856 303.881,396.867 303.869,396.877 303.857,396.887 303.844,396.895 303.832,396.903 303.818,396.91 303.805,396.917 303.792,396.923 303.778,396.929 303.765,396.934 303.752,396.938 303.739,396.941 303.726,396.945 303.712,396.948 303.7,396.951 303.687,396.953 303.675,396.955 303.663,396.956 303.651,396.958 303.64,396.959 303.629,396.959 303.618,396.96 303.608,396.96 303.599,396.96 303.594,396.96 303.585,396.96 303.58,396.96 303.573,396.96 303.566,396.96 303.558,396.96 303.549,396.96 303.54,396.96 303.53,396.96 303.52,396.96 303.509,396.96 303.498,396.96 303.487,396.96 303.475,396.96 303.463,396.96 303.451,396.96 303.439,396.96 303.427,396.96 303.416,396.96 303.403,396.96 303.392,396.96 303.38,396.96 303.37,396.96 303.359,396.96 303.349,396.96 303.338,396.96 303.329,396.96 303.32,396.96 303.312,396.96 303.305,396.96 303.299,396.96 303.293,396.96 303.284,396.96 303.279,396.96 303.279,396.18 303.286,396.18 "
   id="polygon7"
   style="fill:none;stroke:#000000;stroke-width:0.00254974;stroke-linecap:round;stroke-linejoin:round;stroke-miterlimit:10;stroke-dasharray:none" />
</g>
<g
   id="LWPOLYLINE_2_"
   style="opacity:0.45283024;stroke-width:0.00254974;stroke-miterlimit:10;stroke-dasharray:none"
   transform="matrix(39.219685,0,0,39.219685,-11705.67,-15171.686)">
	
		<polygon
   stroke-miterlimit="10"
   points="303.279,398.224 303.279,398.211 303.279,398.196 303.279,398.178 303.279,398.157 303.279,398.134 303.279,398.108 303.279,398.081 303.279,398.051 303.279,398.02 303.279,397.986 303.279,397.952 303.279,397.917 303.279,397.881 303.279,397.844 303.279,397.807 303.279,397.769 303.279,397.73 303.279,397.691 303.279,397.653 303.279,397.616 303.279,397.579 303.279,397.543 303.279,397.508 303.279,397.474 303.279,397.44 303.279,397.409 303.279,397.379 303.279,397.352 303.279,397.326 303.279,397.303 303.279,397.282 303.279,397.264 303.279,397.249 303.279,397.236 303.279,397.228 303.279,397.222 303.285,397.22 303.295,397.22 303.302,397.22 303.31,397.22 303.319,397.22 303.328,397.22 303.339,397.22 303.35,397.22 303.361,397.22 303.374,397.22 303.386,397.22 303.399,397.22 303.413,397.22 303.427,397.22 303.441,397.22 303.455,397.22 303.469,397.22 303.483,397.22 303.498,397.22 303.512,397.22 303.525,397.22 303.539,397.22 303.552,397.22 303.565,397.22 303.577,397.22 303.589,397.22 303.6,397.22 303.61,397.22 303.62,397.22 303.628,397.22 303.636,397.22 303.643,397.22 303.648,397.22 303.656,397.22 303.678,397.22 303.696,397.219 303.716,397.218 303.735,397.216 303.756,397.214 303.776,397.211 303.797,397.207 303.818,397.203 303.839,397.198 303.86,397.193 303.882,397.187 303.903,397.18 303.925,397.172 303.946,397.164 303.967,397.154 303.988,397.145 304.009,397.134 304.029,397.121 304.049,397.108 304.069,397.095 304.088,397.08 304.107,397.064 304.125,397.048 304.143,397.03 304.16,397.011 304.176,396.991 304.192,396.97 304.207,396.947 304.22,396.924 304.233,396.899 304.245,396.873 304.256,396.847 304.266,396.817 304.274,396.788 304.282,396.757 304.288,396.725 304.293,396.69 304.296,396.655 304.298,396.618 304.299,396.58 304.299,396.54 304.297,396.502 304.293,396.466 304.29,396.431 304.284,396.396 304.277,396.364 304.27,396.333 304.262,396.304 304.252,396.275 304.241,396.249 304.23,396.224 304.218,396.199 304.205,396.177 304.19,396.154 304.176,396.134 304.16,396.114 304.144,396.096 304.127,396.079 304.11,396.062 304.092,396.048 304.073,396.033 304.054,396.021 304.034,396.008 304.014,395.997 303.994,395.986 303.973,395.977 303.951,395.968 303.93,395.96 303.908,395.954 303.886,395.947 303.863,395.941 303.841,395.937 303.818,395.933 303.796,395.929 303.773,395.926 303.75,395.924 303.727,395.922 303.705,395.921 303.682,395.92 303.659,395.92 303.648,395.92 303.641,395.92 303.631,395.92 303.619,395.92 303.605,395.92 303.591,395.92 303.574,395.92 303.556,395.92 303.537,395.92 303.517,395.92 303.496,395.92 303.473,395.92 303.45,395.92 303.427,395.92 303.403,395.92 303.378,395.92 303.354,395.92 303.329,395.92 303.305,395.92 303.28,395.92 303.255,395.92 303.231,395.92 303.208,395.92 303.185,395.92 303.163,395.92 303.142,395.92 303.122,395.92 303.103,395.92 303.084,395.92 303.068,395.92 303.053,395.92 303.04,395.92 303.028,395.92 303.018,395.92 303.01,395.92 303.004,395.92 302.999,395.937 302.999,395.957 302.999,395.985 302.999,396.02 302.999,396.061 302.999,396.108 302.999,396.161 302.999,396.22 302.999,396.282 302.999,396.35 302.999,396.421 302.999,396.496 302.999,396.573 302.999,396.654 302.999,396.736 302.999,396.821 302.999,396.906 302.999,396.993 302.999,397.08 302.999,397.167 302.999,397.254 302.999,397.339 302.999,397.424 302.999,397.506 302.999,397.586 302.999,397.664 302.999,397.739 302.999,397.811 302.999,397.878 302.999,397.94 302.999,397.999 302.999,398.052 302.999,398.099 302.999,398.141 302.999,398.175 302.999,398.203 302.999,398.224 302.999,398.235 303.279,398.24 303.279,398.232 "
   id="polygon10"
   style="fill:none;stroke:#000000;stroke-width:0.00254974;stroke-linecap:round;stroke-linejoin:round;stroke-miterlimit:10;stroke-dasharray:none" />
</g>
<g
   id="LWPOLYLINE_3_"
   style="opacity:0.45283024;stroke-width:0.00254974;stroke-miterlimit:10;stroke-dasharray:none"
   transform="matrix(39.219685,0,0,39.219685,-11705.67,-15171.686)">
	
		<polygon
   stroke-miterlimit="10"
   points="304.982,395.92 304.977,395.92 304.97,395.92 304.963,395.92 304.956,395.92 304.947,395.92 304.939,395.92 304.93,395.92 304.92,395.92 304.911,395.92 304.901,395.92 304.891,395.92 304.88,395.92 304.87,395.92 304.859,395.92 304.849,395.92 304.838,395.92 304.828,395.92 304.818,395.92 304.808,395.92 304.798,395.92 304.789,395.92 304.78,395.92 304.771,395.92 304.763,395.92 304.755,395.92 304.749,395.92 304.742,395.92 304.736,395.92 304.727,395.92 304.721,395.92 304.719,395.937 304.719,395.957 304.719,395.985 304.719,396.02 304.719,396.061 304.719,396.108 304.719,396.161 304.719,396.22 304.719,396.282 304.719,396.35 304.719,396.421 304.719,396.496 304.719,396.573 304.719,396.654 304.719,396.736 304.719,396.821 304.719,396.906 304.719,396.993 304.719,397.08 304.719,397.167 304.719,397.254 304.719,397.339 304.719,397.424 304.719,397.506 304.719,397.586 304.719,397.664 304.719,397.739 304.719,397.811 304.719,397.878 304.719,397.94 304.719,397.999 304.719,398.052 304.719,398.099 304.719,398.141 304.719,398.175 304.719,398.203 304.719,398.224 304.719,398.235 304.727,398.24 304.736,398.24 304.742,398.24 304.749,398.24 304.755,398.24 304.763,398.24 304.771,398.24 304.78,398.24 304.789,398.24 304.798,398.24 304.808,398.24 304.818,398.24 304.828,398.24 304.838,398.24 304.849,398.24 304.859,398.24 304.87,398.24 304.88,398.24 304.891,398.24 304.901,398.24 304.911,398.24 304.92,398.24 304.93,398.24 304.939,398.24 304.947,398.24 304.956,398.24 304.963,398.24 304.97,398.24 304.977,398.24 304.982,398.24 304.991,398.24 304.997,398.24 304.999,395.92 304.991,395.92 "
   id="polygon13"
   style="fill:none;stroke:#000000;stroke-width:0.00254974;stroke-linecap:round;stroke-linejoin:round;stroke-miterlimit:10;stroke-dasharray:none" />
</g>
<g
   id="LWPOLYLINE_4_"
   style="opacity:0.45283024;stroke-width:0.00254974;stroke-miterlimit:10;stroke-dasharray:none"
   transform="matrix(39.219685,0,0,39.219685,-11705.67,-15171.686)">
	
		<polygon
   stroke-miterlimit="10"
   points="306.759,395.952 306.759,395.976 306.759,396.005 306.759,396.04 306.759,396.081 306.759,396.126 306.759,396.176 306.759,396.229 306.759,396.287 306.759,396.348 306.759,396.411 306.759,396.478 306.759,396.547 306.759,396.617 306.759,396.688 306.759,396.762 306.759,396.836 306.759,396.91 306.759,396.984 306.759,397.058 306.759,397.131 306.759,397.203 306.759,397.273 306.759,397.342 306.759,397.408 306.759,397.473 306.759,397.533 306.759,397.591 306.759,397.645 306.759,397.694 306.759,397.739 306.759,397.779 306.759,397.814 306.759,397.845 306.759,397.868 306.759,397.886 306.759,397.896 306.753,397.886 306.745,397.868 306.734,397.845 306.722,397.814 306.706,397.779 306.688,397.739 306.668,397.694 306.646,397.645 306.622,397.591 306.596,397.533 306.569,397.473 306.541,397.408 306.512,397.342 306.48,397.273 306.449,397.203 306.418,397.131 306.385,397.058 306.353,396.984 306.319,396.91 306.286,396.836 306.254,396.762 306.221,396.688 306.189,396.617 306.157,396.547 306.127,396.478 306.098,396.411 306.069,396.348 306.042,396.287 306.017,396.229 305.993,396.176 305.971,396.126 305.951,396.081 305.933,396.04 305.917,396.005 305.904,395.976 305.894,395.952 305.886,395.935 305.881,395.924 305.873,395.92 305.862,395.92 305.855,395.92 305.847,395.92 305.838,395.92 305.828,395.92 305.817,395.92 305.805,395.92 305.793,395.92 305.78,395.92 305.767,395.92 305.753,395.92 305.738,395.92 305.724,395.92 305.709,395.92 305.694,395.92 305.679,395.92 305.664,395.92 305.649,395.92 305.635,395.92 305.62,395.92 305.606,395.92 305.592,395.92 305.579,395.92 305.565,395.92 305.553,395.92 305.542,395.92 305.531,395.92 305.521,395.92 305.512,395.92 305.503,395.92 305.497,395.92 305.49,395.92 305.482,395.92 305.479,395.937 305.479,395.957 305.479,395.985 305.479,396.02 305.479,396.061 305.479,396.108 305.479,396.161 305.479,396.22 305.479,396.282 305.479,396.35 305.479,396.421 305.479,396.496 305.479,396.573 305.479,396.654 305.479,396.736 305.479,396.821 305.479,396.906 305.479,396.993 305.479,397.08 305.479,397.167 305.479,397.254 305.479,397.339 305.479,397.424 305.479,397.506 305.479,397.586 305.479,397.664 305.479,397.739 305.479,397.811 305.479,397.878 305.479,397.94 305.479,397.999 305.479,398.052 305.479,398.099 305.479,398.141 305.479,398.175 305.479,398.203 305.479,398.224 305.479,398.235 305.486,398.24 305.495,398.24 305.5,398.24 305.506,398.24 305.513,398.24 305.52,398.24 305.527,398.24 305.535,398.24 305.544,398.24 305.553,398.24 305.562,398.24 305.571,398.24 305.58,398.24 305.59,398.24 305.6,398.24 305.609,398.24 305.619,398.24 305.629,398.24 305.638,398.24 305.648,398.24 305.657,398.24 305.666,398.24 305.675,398.24 305.683,398.24 305.691,398.24 305.699,398.24 305.706,398.24 305.712,398.24 305.718,398.24 305.724,398.24 305.732,398.24 305.737,398.24 305.739,398.226 305.739,398.208 305.739,398.184 305.739,398.154 305.739,398.118 305.739,398.078 305.739,398.032 305.739,397.981 305.739,397.928 305.739,397.869 305.739,397.808 305.739,397.743 305.739,397.677 305.739,397.607 305.739,397.536 305.739,397.463 305.739,397.39 305.739,397.314 305.739,397.24 305.739,397.165 305.739,397.091 305.739,397.017 305.739,396.944 305.739,396.873 305.739,396.804 305.739,396.736 305.739,396.672 305.739,396.61 305.739,396.553 305.739,396.498 305.739,396.448 305.739,396.402 305.739,396.361 305.739,396.326 305.739,396.296 305.739,396.272 305.739,396.255 305.739,396.244 305.746,396.255 305.754,396.272 305.765,396.296 305.778,396.326 305.794,396.361 305.812,396.402 305.833,396.448 305.855,396.498 305.88,396.553 305.906,396.61 305.934,396.672 305.963,396.736 305.993,396.804 306.024,396.873 306.056,396.944 306.089,397.017 306.122,397.091 306.155,397.165 306.189,397.24 306.223,397.314 306.257,397.39 306.29,397.463 306.322,397.536 306.354,397.607 306.386,397.677 306.416,397.743 306.445,397.808 306.473,397.869 306.499,397.928 306.523,397.981 306.546,398.032 306.566,398.078 306.585,398.118 306.601,398.154 306.614,398.184 306.625,398.208 306.633,398.226 306.638,398.236 306.646,398.24 306.655,398.24 306.662,398.24 306.67,398.24 306.679,398.24 306.688,398.24 306.698,398.24 306.71,398.24 306.722,398.24 306.733,398.24 306.746,398.24 306.76,398.24 306.773,398.24 306.787,398.24 306.801,398.24 306.815,398.24 306.829,398.24 306.844,398.24 306.857,398.24 306.872,398.24 306.886,398.24 306.899,398.24 306.912,398.24 306.925,398.24 306.938,398.24 306.949,398.24 306.96,398.24 306.97,398.24 306.979,398.24 306.988,398.24 306.996,398.24 307.003,398.24 307.009,398.24 307.017,398.24 307.02,398.224 307.02,398.203 307.02,398.175 307.02,398.141 307.02,398.099 307.02,398.052 307.02,397.999 307.02,397.94 307.02,397.878 307.02,397.811 307.02,397.739 307.02,397.664 307.02,397.586 307.02,397.506 307.02,397.424 307.02,397.339 307.02,397.254 307.02,397.167 307.02,397.08 307.02,396.993 307.02,396.906 307.02,396.821 307.02,396.736 307.02,396.654 307.02,396.573 307.02,396.496 307.02,396.421 307.02,396.35 307.02,396.282 307.02,396.22 307.02,396.161 307.02,396.108 307.02,396.061 307.02,396.02 307.02,395.985 307.02,395.957 307.02,395.937 307.02,395.924 306.759,395.92 306.759,395.935 "
   id="polygon16"
   style="fill:none;stroke:#000000;stroke-width:0.00254974;stroke-linecap:round;stroke-linejoin:round;stroke-miterlimit:10;stroke-dasharray:none" />
</g>
<g
   id="LWPOLYLINE_5_"
   style="opacity:0.45283024;stroke-width:0.00254974;stroke-miterlimit:10;stroke-dasharray:none"
   transform="matrix(39.219685,0,0,39.219685,-11705.67,-15171.686)">
	
		<polygon
   stroke-miterlimit="10"
   points="307.815,396.18 307.822,396.18 307.83,396.18 307.839,396.18 307.849,396.18 307.858,396.18 307.87,396.18 307.881,396.18 307.894,396.18 307.906,396.18 307.92,396.18 307.933,396.18 307.947,396.18 307.961,396.18 307.975,396.18 307.989,396.18 308.004,396.18 308.018,396.18 308.031,396.18 308.046,396.18 308.059,396.18 308.072,396.18 308.085,396.18 308.098,396.18 308.108,396.18 308.12,396.18 308.13,396.18 308.14,396.18 308.148,396.18 308.156,396.18 308.163,396.18 308.169,396.18 308.177,396.18 308.201,396.181 308.223,396.182 308.244,396.183 308.265,396.185 308.284,396.188 308.304,396.191 308.322,396.195 308.34,396.2 308.357,396.206 308.375,396.213 308.391,396.22 308.406,396.228 308.422,396.236 308.437,396.246 308.45,396.256 308.464,396.267 308.477,396.279 308.489,396.292 308.501,396.306 308.512,396.32 308.522,396.336 308.532,396.352 308.542,396.369 308.551,396.388 308.56,396.406 308.567,396.427 308.574,396.448 308.581,396.47 308.587,396.493 308.593,396.518 308.598,396.543 308.603,396.569 308.606,396.597 308.609,396.625 308.612,396.654 308.615,396.686 308.617,396.718 308.618,396.75 308.619,396.784 308.619,396.82 308.619,396.827 308.619,396.833 308.619,396.84 308.619,396.848 308.619,396.857 308.619,396.868 308.619,396.879 308.619,396.892 308.619,396.905 308.619,396.919 308.619,396.935 308.619,396.949 308.619,396.966 308.619,396.982 308.619,396.999 308.619,397.016 308.619,397.033 308.619,397.05 308.619,397.067 308.619,397.084 308.619,397.102 308.619,397.118 308.619,397.135 308.619,397.15 308.619,397.166 308.619,397.181 308.619,397.194 308.619,397.208 308.619,397.221 308.619,397.232 308.619,397.242 308.619,397.252 308.619,397.26 308.619,397.268 308.619,397.272 308.619,397.279 308.619,397.319 308.618,397.358 308.617,397.396 308.615,397.431 308.612,397.465 308.609,397.498 308.605,397.529 308.602,397.561 308.597,397.589 308.591,397.617 308.585,397.644 308.578,397.669 308.57,397.693 308.562,397.717 308.554,397.739 308.544,397.76 308.534,397.779 308.523,397.798 308.512,397.815 308.499,397.832 308.486,397.848 308.473,397.862 308.458,397.876 308.442,397.889 308.426,397.901 308.409,397.912 308.391,397.922 308.372,397.931 308.353,397.939 308.332,397.946 308.312,397.953 308.289,397.959 308.266,397.964 308.242,397.969 308.218,397.972 308.191,397.975 308.165,397.978 308.138,397.979 308.108,397.979 308.079,397.98 308.071,397.98 308.062,397.98 308.057,397.98 308.05,397.98 308.043,397.98 308.035,397.98 308.027,397.98 308.019,397.98 308.01,397.98 308,397.98 307.99,397.98 307.98,397.98 307.971,397.98 307.96,397.98 307.95,397.98 307.939,397.98 307.929,397.98 307.918,397.98 307.908,397.98 307.897,397.98 307.888,397.98 307.878,397.98 307.869,397.98 307.859,397.98 307.852,397.98 307.843,397.98 307.835,397.98 307.828,397.98 307.822,397.98 307.816,397.98 307.807,397.98 307.802,397.98 307.799,396.18 307.806,396.18 "
   id="polygon19"
   style="fill:none;stroke:#000000;stroke-width:0.00254974;stroke-linecap:round;stroke-linejoin:round;stroke-miterlimit:10;stroke-dasharray:none" />
</g>
<g
   id="LWPOLYLINE_6_"
   style="opacity:0.45283024;stroke-width:0.00254974;stroke-miterlimit:10;stroke-dasharray:none"
   transform="matrix(39.219685,0,0,39.219685,-11705.67,-15171.686)">
	
		<polygon
   stroke-miterlimit="10"
   points="307.533,398.24 307.541,398.24 307.55,398.24 307.56,398.24 307.571,398.24 307.584,398.24 307.598,398.24 307.612,398.24 307.627,398.24 307.644,398.24 307.66,398.24 307.678,398.24 307.695,398.24 307.714,398.24 307.731,398.24 307.751,398.24 307.77,398.24 307.788,398.24 307.807,398.24 307.825,398.24 307.844,398.24 307.861,398.24 307.878,398.24 307.896,398.24 307.911,398.24 307.927,398.24 307.941,398.24 307.955,398.24 307.967,398.24 307.979,398.24 307.989,398.24 307.998,398.24 308.005,398.24 308.012,398.24 308.019,398.24 308.049,398.24 308.078,398.239 308.106,398.238 308.135,398.237 308.162,398.235 308.188,398.233 308.215,398.23 308.24,398.228 308.266,398.225 308.29,398.222 308.313,398.218 308.337,398.213 308.36,398.208 308.382,398.203 308.404,398.198 308.425,398.192 308.445,398.186 308.466,398.18 308.485,398.172 308.504,398.165 308.522,398.157 308.541,398.149 308.559,398.141 308.575,398.132 308.592,398.123 308.607,398.113 308.623,398.104 308.638,398.093 308.652,398.082 308.666,398.071 308.68,398.06 308.692,398.048 308.705,398.036 308.717,398.023 308.729,398.011 308.739,397.997 308.75,397.983 308.761,397.969 308.77,397.955 308.779,397.94 308.787,397.928 308.794,397.915 308.801,397.902 308.808,397.889 308.814,397.874 308.82,397.859 308.826,397.845 308.832,397.829 308.838,397.812 308.844,397.796 308.849,397.778 308.854,397.761 308.858,397.742 308.863,397.724 308.867,397.704 308.872,397.684 308.876,397.663 308.88,397.642 308.883,397.62 308.887,397.598 308.89,397.574 308.894,397.551 308.896,397.526 308.898,397.501 308.901,397.475 308.903,397.448 308.906,397.421 308.908,397.394 308.91,397.364 308.911,397.335 308.913,397.306 308.914,397.274 308.915,397.243 308.916,397.211 308.917,397.178 308.918,397.144 308.919,397.108 308.919,397.073 308.919,397.037 308.919,397 308.919,396.993 308.919,396.985 308.919,396.976 308.919,396.965 308.918,396.953 308.918,396.94 308.917,396.927 308.917,396.912 308.916,396.896 308.915,396.879 308.914,396.861 308.913,396.843 308.911,396.824 308.91,396.805 308.908,396.784 308.907,396.764 308.905,396.743 308.903,396.722 308.901,396.699 308.899,396.678 308.896,396.655 308.895,396.633 308.892,396.61 308.889,396.588 308.886,396.565 308.883,396.544 308.88,396.521 308.876,396.5 308.872,396.479 308.868,396.457 308.864,396.437 308.86,396.416 308.855,396.396 308.852,396.378 308.847,396.359 308.842,396.342 308.836,396.325 308.831,396.309 308.825,396.294 308.819,396.28 308.811,396.261 308.801,396.242 308.791,396.225 308.781,396.207 308.771,396.189 308.76,396.174 308.749,396.158 308.737,396.143 308.726,396.128 308.714,396.114 308.702,396.101 308.689,396.088 308.676,396.075 308.663,396.063 308.649,396.052 308.636,396.041 308.621,396.03 308.606,396.021 308.592,396.012 308.577,396.003 308.562,395.994 308.545,395.986 308.529,395.979 308.513,395.972 308.496,395.965 308.479,395.959 308.461,395.954 308.442,395.949 308.425,395.944 308.406,395.939 308.387,395.936 308.367,395.933 308.348,395.93 308.327,395.927 308.307,395.925 308.286,395.923 308.265,395.922 308.243,395.921 308.222,395.92 308.199,395.92 308.188,395.92 308.181,395.92 308.17,395.92 308.158,395.92 308.145,395.92 308.129,395.92 308.111,395.92 308.093,395.92 308.073,395.92 308.053,395.92 308.03,395.92 308.008,395.92 307.984,395.92 307.96,395.92 307.936,395.92 307.91,395.92 307.885,395.92 307.859,395.92 307.834,395.92 307.809,395.92 307.783,395.92 307.759,395.92 307.734,395.92 307.711,395.92 307.688,395.92 307.666,395.92 307.646,395.92 307.626,395.92 307.607,395.92 307.59,395.92 307.574,395.92 307.561,395.92 307.549,395.92 307.538,395.92 307.53,395.92 307.524,395.92 307.52,398.24 307.527,398.24 "
   id="polygon22"
   style="fill:none;stroke:#000000;stroke-width:0.00254974;stroke-linecap:round;stroke-linejoin:round;stroke-miterlimit:10;stroke-dasharray:none" />
</g>
<g
   id="LWPOLYLINE_7_"
   style="opacity:0.45283024;stroke-width:0.00254974;stroke-miterlimit:10;stroke-dasharray:none"
   transform="matrix(39.219685,0,0,39.219685,-11705.67,-15171.686)">
	
		<polygon
   stroke-miterlimit="10"
   points="310.539,398.225 310.539,398.219 310.539,398.213 310.539,398.206 310.539,398.199 310.539,398.191 310.539,398.184 310.539,398.176 310.539,398.167 310.539,398.158 310.539,398.148 310.539,398.139 310.539,398.13 310.539,398.12 310.539,398.11 310.539,398.101 310.539,398.091 310.539,398.081 310.539,398.071 310.539,398.062 310.539,398.054 310.539,398.045 310.539,398.036 310.539,398.028 310.539,398.021 310.539,398.014 310.539,398.007 310.539,398.001 310.539,397.996 310.539,397.987 310.539,397.981 310.533,397.98 310.525,397.98 310.516,397.98 310.503,397.98 310.488,397.98 310.471,397.98 310.452,397.98 310.431,397.98 310.408,397.98 310.384,397.98 310.357,397.98 310.331,397.98 310.303,397.98 310.273,397.98 310.243,397.98 310.213,397.98 310.182,397.98 310.15,397.98 310.119,397.98 310.088,397.98 310.057,397.98 310.025,397.98 309.995,397.98 309.965,397.98 309.936,397.98 309.908,397.98 309.881,397.98 309.854,397.98 309.83,397.98 309.808,397.98 309.787,397.98 309.768,397.98 309.75,397.98 309.735,397.98 309.723,397.98 309.713,397.98 309.705,397.98 309.699,397.98 309.699,397.965 309.699,397.947 309.699,397.922 309.699,397.892 309.699,397.854 309.699,397.812 309.699,397.766 309.699,397.714 309.699,397.658 309.699,397.599 309.699,397.535 309.699,397.469 309.699,397.399 309.699,397.328 309.699,397.255 309.699,397.18 309.699,397.104 309.699,397.027 309.699,396.95 309.699,396.873 309.699,396.796 309.699,396.72 309.699,396.646 309.699,396.572 309.699,396.5 309.699,396.432 309.699,396.365 309.699,396.302 309.699,396.242 309.699,396.186 309.699,396.134 309.699,396.087 309.699,396.045 309.699,396.009 309.699,395.978 309.699,395.953 309.699,395.935 309.699,395.924 309.691,395.92 309.683,395.92 309.677,395.92 309.67,395.92 309.663,395.92 309.655,395.92 309.647,395.92 309.639,395.92 309.63,395.92 309.62,395.92 309.61,395.92 309.601,395.92 309.591,395.92 309.58,395.92 309.569,395.92 309.56,395.92 309.549,395.92 309.538,395.92 309.528,395.92 309.518,395.92 309.508,395.92 309.498,395.92 309.488,395.92 309.479,395.92 309.471,395.92 309.463,395.92 309.455,395.92 309.448,395.92 309.442,395.92 309.437,395.92 309.432,395.92 309.424,395.92 309.419,395.937 309.419,395.957 309.419,395.985 309.419,396.02 309.419,396.061 309.419,396.108 309.419,396.161 309.419,396.22 309.419,396.282 309.419,396.35 309.419,396.421 309.419,396.496 309.419,396.573 309.419,396.654 309.419,396.736 309.419,396.821 309.419,396.906 309.419,396.993 309.419,397.08 309.419,397.167 309.419,397.254 309.419,397.339 309.419,397.424 309.419,397.506 309.419,397.586 309.419,397.664 309.419,397.739 309.419,397.811 309.419,397.878 309.419,397.94 309.419,397.999 309.419,398.052 309.419,398.099 309.419,398.141 309.419,398.175 309.419,398.203 309.419,398.224 309.419,398.235 310.539,398.24 310.539,398.232 "
   id="polygon25"
   style="fill:none;stroke:#000000;stroke-width:0.00254974;stroke-linecap:round;stroke-linejoin:round;stroke-miterlimit:10;stroke-dasharray:none" />
</g>
<g
   id="LWPOLYLINE_8_"
   style="opacity:0.45283024;stroke-width:0.00254974;stroke-miterlimit:10;stroke-dasharray:none"
   transform="matrix(39.219685,0,0,39.219685,-11705.67,-15171.686)">
	
		<polygon
   stroke-miterlimit="10"
   points="311.939,398.225 311.939,398.219 311.939,398.213 311.939,398.206 311.939,398.199 311.939,398.191 311.939,398.184 311.939,398.176 311.939,398.167 311.939,398.158 311.939,398.148 311.939,398.139 311.939,398.13 311.939,398.12 311.939,398.11 311.939,398.101 311.939,398.091 311.939,398.081 311.939,398.071 311.939,398.062 311.939,398.054 311.939,398.045 311.939,398.036 311.939,398.028 311.939,398.021 311.939,398.014 311.939,398.007 311.939,398.001 311.939,397.996 311.939,397.987 311.939,397.981 311.933,397.98 311.925,397.98 311.914,397.98 311.9,397.98 311.885,397.98 311.866,397.98 311.846,397.98 311.823,397.98 311.799,397.98 311.772,397.98 311.745,397.98 311.716,397.98 311.686,397.98 311.654,397.98 311.622,397.98 311.59,397.98 311.557,397.98 311.523,397.98 311.489,397.98 311.455,397.98 311.422,397.98 311.389,397.98 311.356,397.98 311.324,397.98 311.293,397.98 311.263,397.98 311.233,397.98 311.206,397.98 311.18,397.98 311.155,397.98 311.133,397.98 311.112,397.98 311.094,397.98 311.078,397.98 311.064,397.98 311.054,397.98 311.046,397.98 311.039,397.98 311.039,397.975 311.039,397.967 311.039,397.958 311.039,397.945 311.039,397.932 311.039,397.915 311.039,397.896 311.039,397.877 311.039,397.855 311.039,397.832 311.039,397.808 311.039,397.781 311.039,397.755 311.039,397.727 311.039,397.698 311.039,397.669 311.039,397.64 311.039,397.61 311.039,397.58 311.039,397.55 311.039,397.521 311.039,397.49 311.039,397.462 311.039,397.434 311.039,397.405 311.039,397.379 311.039,397.353 311.039,397.328 311.039,397.305 311.039,397.283 311.039,397.264 311.039,397.245 311.039,397.229 311.039,397.215 311.039,397.202 311.039,397.192 311.039,397.186 311.039,397.18 311.045,397.18 311.053,397.18 311.062,397.18 311.074,397.18 311.089,397.18 311.105,397.18 311.125,397.18 311.146,397.18 311.167,397.18 311.191,397.18 311.217,397.18 311.243,397.18 311.271,397.18 311.299,397.18 311.328,397.18 311.357,397.18 311.388,397.18 311.419,397.18 311.449,397.18 311.48,397.18 311.511,397.18 311.541,397.18 311.57,397.18 311.6,397.18 311.628,397.18 311.655,397.18 311.682,397.18 311.707,397.18 311.731,397.18 311.753,397.18 311.774,397.18 311.793,397.18 311.81,397.18 311.824,397.18 311.836,397.18 311.846,397.18 311.854,397.18 311.859,397.18 311.859,397.173 311.859,397.164 311.859,397.159 311.859,397.153 311.859,397.146 311.859,397.14 311.859,397.132 311.859,397.124 311.859,397.115 311.859,397.106 311.859,397.098 311.859,397.089 311.859,397.079 311.859,397.069 311.859,397.06 311.859,397.05 311.859,397.04 311.859,397.03 311.859,397.021 311.859,397.012 311.859,397.002 311.859,396.993 311.859,396.984 311.859,396.977 311.859,396.968 311.859,396.961 311.859,396.953 311.859,396.947 311.859,396.941 311.859,396.936 311.859,396.928 311.859,396.922 311.854,396.92 311.846,396.92 311.836,396.92 311.824,396.92 311.81,396.92 311.793,396.92 311.774,396.92 311.753,396.92 311.731,396.92 311.707,396.92 311.682,396.92 311.655,396.92 311.628,396.92 311.6,396.92 311.57,396.92 311.541,396.92 311.511,396.92 311.48,396.92 311.449,396.92 311.419,396.92 311.388,396.92 311.357,396.92 311.328,396.92 311.299,396.92 311.271,396.92 311.243,396.92 311.217,396.92 311.191,396.92 311.167,396.92 311.146,396.92 311.125,396.92 311.105,396.92 311.089,396.92 311.074,396.92 311.062,396.92 311.053,396.92 311.045,396.92 311.039,396.92 311.039,396.915 311.039,396.908 311.039,396.899 311.039,396.889 311.039,396.875 311.039,396.86 311.039,396.843 311.039,396.824 311.039,396.805 311.039,396.783 311.039,396.76 311.039,396.736 311.039,396.712 311.039,396.686 311.039,396.659 311.039,396.633 311.039,396.605 311.039,396.578 311.039,396.55 311.039,396.522 311.039,396.495 311.039,396.468 311.039,396.44 311.039,396.414 311.039,396.389 311.039,396.363 311.039,396.34 311.039,396.317 311.039,396.296 311.039,396.275 311.039,396.257 311.039,396.24 311.039,396.225 311.039,396.212 311.039,396.201 311.039,396.191 311.039,396.186 311.039,396.18 311.046,396.18 311.054,396.18 311.063,396.18 311.077,396.18 311.093,396.18 311.11,396.18 311.131,396.18 311.153,396.18 311.177,396.18 311.202,396.18 311.229,396.18 311.258,396.18 311.287,396.18 311.317,396.18 311.349,396.18 311.381,396.18 311.413,396.18 311.446,396.18 311.479,396.18 311.513,396.18 311.545,396.18 311.577,396.18 311.609,396.18 311.641,396.18 311.671,396.18 311.701,396.18 311.729,396.18 311.756,396.18 311.782,396.18 311.806,396.18 311.828,396.18 311.848,396.18 311.866,396.18 311.882,396.18 311.895,396.18 311.905,396.18 311.913,396.18 311.919,396.18 311.919,396.173 311.919,396.164 311.919,396.159 311.919,396.153 311.919,396.146 311.919,396.14 311.919,396.132 311.919,396.124 311.919,396.115 311.919,396.106 311.919,396.098 311.919,396.089 311.919,396.079 311.919,396.069 311.919,396.06 311.919,396.05 311.919,396.04 311.919,396.03 311.919,396.021 311.919,396.012 311.919,396.002 311.919,395.993 311.919,395.984 311.919,395.976 311.919,395.968 311.919,395.96 311.919,395.954 311.919,395.947 311.919,395.941 311.919,395.936 311.919,395.927 311.919,395.922 311.911,395.92 311.9,395.92 311.887,395.92 311.869,395.92 311.849,395.92 311.825,395.92 311.799,395.92 311.77,395.92 311.738,395.92 311.704,395.92 311.669,395.92 311.631,395.92 311.593,395.92 311.552,395.92 311.511,395.92 311.469,395.92 311.426,395.92 311.383,395.92 311.339,395.92 311.296,395.92 311.253,395.92 311.21,395.92 311.168,395.92 311.126,395.92 311.086,395.92 311.047,395.92 311.01,395.92 310.975,395.92 310.94,395.92 310.909,395.92 310.88,395.92 310.854,395.92 310.83,395.92 310.809,395.92 310.792,395.92 310.778,395.92 310.768,395.92 310.762,395.92 310.759,395.937 310.759,395.957 310.759,395.985 310.759,396.02 310.759,396.061 310.759,396.108 310.759,396.161 310.759,396.22 310.759,396.282 310.759,396.35 310.759,396.421 310.759,396.496 310.759,396.573 310.759,396.654 310.759,396.736 310.759,396.821 310.759,396.906 310.759,396.993 310.759,397.08 310.759,397.167 310.759,397.254 310.759,397.339 310.759,397.424 310.759,397.506 310.759,397.586 310.759,397.664 310.759,397.739 310.759,397.811 310.759,397.878 310.759,397.94 310.759,397.999 310.759,398.052 310.759,398.099 310.759,398.141 310.759,398.175 310.759,398.203 310.759,398.224 310.759,398.235 311.939,398.24 311.939,398.232 "
   id="polygon28"
   style="fill:none;stroke:#000000;stroke-width:0.00254974;stroke-linecap:round;stroke-linejoin:round;stroke-miterlimit:10;stroke-dasharray:none" />
</g>
<g
   id="LWPOLYLINE_9_"
   style="opacity:0.45283024;stroke-width:0.00254974;stroke-miterlimit:10;stroke-dasharray:none"
   transform="matrix(39.219685,0,0,39.219685,-11705.67,-15171.686)">
	
		<polygon
   stroke-miterlimit="10"
   points="303.171,399.42 303.178,399.42 303.186,399.42 303.195,399.42 303.205,399.42 303.216,399.42 303.228,399.42 303.241,399.42 303.254,399.42 303.269,399.42 303.283,399.42 303.298,399.42 303.314,399.42 303.33,399.42 303.346,399.42 303.363,399.42 303.379,399.42 303.396,399.42 303.412,399.42 303.428,399.42 303.444,399.42 303.46,399.42 303.475,399.42 303.49,399.42 303.504,399.42 303.518,399.42 303.53,399.42 303.542,399.42 303.554,399.42 303.563,399.42 303.572,399.42 303.581,399.42 303.587,399.42 303.592,399.42 303.599,399.42 303.616,399.42 303.631,399.421 303.646,399.423 303.661,399.425 303.675,399.428 303.689,399.432 303.702,399.436 303.715,399.44 303.727,399.445 303.739,399.45 303.75,399.457 303.761,399.463 303.771,399.47 303.781,399.478 303.791,399.485 303.8,399.493 303.809,399.502 303.817,399.511 303.824,399.521 303.832,399.53 303.839,399.54 303.845,399.55 303.851,399.561 303.857,399.571 303.862,399.582 303.867,399.593 303.872,399.604 303.876,399.616 303.88,399.628 303.883,399.64 303.886,399.651 303.889,399.663 303.892,399.675 303.894,399.688 303.896,399.699 303.897,399.712 303.898,399.724 303.898,399.736 303.899,399.748 303.899,399.76 303.899,399.776 303.898,399.793 303.897,399.809 303.896,399.824 303.895,399.841 303.893,399.855 303.89,399.871 303.887,399.886 303.884,399.9 303.88,399.915 303.876,399.93 303.872,399.943 303.868,399.957 303.862,399.971 303.857,399.983 303.851,399.996 303.845,400.008 303.838,400.02 303.832,400.031 303.824,400.043 303.816,400.053 303.809,400.063 303.8,400.073 303.791,400.083 303.782,400.092 303.772,400.1 303.763,400.107 303.752,400.115 303.742,400.122 303.73,400.129 303.719,400.134 303.707,400.14 303.695,400.145 303.683,400.148 303.669,400.151 303.656,400.154 303.643,400.157 303.628,400.158 303.614,400.16 303.599,400.16 303.592,400.16 303.587,400.16 303.581,400.16 303.572,400.16 303.563,400.16 303.554,400.16 303.542,400.16 303.53,400.16 303.518,400.16 303.504,400.16 303.49,400.16 303.475,400.16 303.46,400.16 303.444,400.16 303.428,400.16 303.412,400.16 303.396,400.16 303.379,400.16 303.363,400.16 303.346,400.16 303.33,400.16 303.314,400.16 303.298,400.16 303.283,400.16 303.269,400.16 303.254,400.16 303.241,400.16 303.228,400.16 303.216,400.16 303.205,400.16 303.195,400.16 303.186,400.16 303.178,400.16 303.171,400.16 303.167,400.16 303.16,400.16 303.159,399.42 303.167,399.42 "
   id="polygon31"
   style="fill:none;stroke:#000000;stroke-width:0.00254974;stroke-linecap:round;stroke-linejoin:round;stroke-miterlimit:10;stroke-dasharray:none" />
</g>
<g
   id="LWPOLYLINE_10_"
   style="opacity:0.45283024;stroke-width:0.00254974;stroke-miterlimit:10;stroke-dasharray:none"
   transform="matrix(39.219685,0,0,39.219685,-11705.67,-15171.686)">
	
		<path
   stroke-miterlimit="10"
   d="m 302.879,401.48 c 0.004,0 0.008,0 0.008,0 0.004,0 0.009,0 0.009,0 h 0.005 0.006 0.007 0.007 0.008 0.009 0.009 0.009 0.01 0.01 0.01 0.011 0.01 0.01 0.011 0.01 0.01 0.01 0.01 0.01 0.009 0.009 0.009 0.008 0.007 0.007 0.007 0.005 c 0.005,0 0.009,0 0.009,0 0.003,0 0.006,0 0.006,0 0.002,-0.002 0.002,-0.008 0.002,-0.008 v -0.01 -0.013 -0.016 -0.019 -0.022 -0.023 -0.027 -0.028 -0.031 -0.032 -0.034 -0.035 -0.037 -0.038 -0.038 -0.039 -0.04 -0.039 -0.04 -0.039 -0.039 -0.039 -0.037 -0.037 -0.035 -0.034 -0.033 -0.03 -0.029 -0.026 -0.024 -0.021 -0.019 -0.017 -0.013 -0.009 -0.006 c 0.002,-0.002 0.005,-0.002 0.005,-0.002 0.004,0 0.009,0 0.009,0 h 0.006 0.007 0.008 0.008 0.009 0.01 0.011 0.011 0.011 0.012 0.012 0.013 0.012 0.013 0.013 0.013 0.013 0.013 0.012 0.012 0.012 0.012 0.011 0.01 0.01 0.009 0.008 0.008 0.007 0.006 0.005 c 0.004,0 0.007,0 0.007,0 0.002,0 0.01,0 0.01,0 h 0.008 0.008 0.009 l 0.009,10e-4 h 0.009 l 0.01,10e-4 h 0.01 l 0.01,0.001 0.01,0.002 0.011,10e-4 0.01,0.002 0.011,0.002 0.011,0.002 0.011,0.003 0.011,0.003 0.011,0.004 0.011,0.004 0.01,0.005 0.011,0.005 0.01,0.006 0.01,0.006 0.01,0.007 0.01,0.007 0.009,0.008 0.009,0.009 0.009,0.009 0.008,0.01 0.008,0.011 0.008,0.012 0.007,0.013 0.007,0.013 0.006,0.014 0.006,0.015 0.005,0.016 0.004,0.017 0.004,0.018 0.003,0.019 0.002,0.02 0.002,0.021 0.001,0.022 10e-4,0.022 10e-4,0.022 0.001,0.022 10e-4,0.022 0.001,0.022 0,0.021 10e-4,0.022 0,0.022 10e-4,0.021 0,0.022 0,0.021 0.001,0.021 0,0.021 0,0.021 10e-4,0.021 0.001,0.021 0,0.021 10e-4,0.021 0.001,0.021 10e-4,0.021 10e-4,0.02 0.001,0.02 10e-4,0.02 0.002,0.02 0.002,0.019 0.002,0.019 0.002,0.019 0.002,0.018 0.003,0.018 0.003,0.018 0.003,0.017 0.003,0.017 0.004,0.017 0.004,0.016 0.004,0.016 0.005,0.015 0.005,0.015 0.005,0.014 0.006,0.015 c 0.002,0 0.005,0 0.005,0 0.004,0 0.009,0 0.009,0 h 0.005 0.007 0.007 0.008 0.009 0.009 0.01 0.01 0.011 0.011 0.011 0.012 0.012 0.012 0.012 0.012 0.012 0.012 0.011 0.012 0.011 0.011 0.01 0.01 0.009 0.008 0.008 0.007 0.006 0.006 c 0.005,0 0.009,0 0.009,0 0.004,0 0.005,0 0.005,0 l -0.004,-0.013 -0.004,-0.014 -0.004,-0.014 -0.004,-0.014 -0.004,-0.016 -0.004,-0.015 -0.003,-0.017 -0.003,-0.017 -0.003,-0.017 -0.003,-0.017 -0.003,-0.018 -0.003,-0.018 -0.002,-0.019 -0.003,-0.019 -0.002,-0.018 -0.002,-0.019 -0.002,-0.019 -0.002,-0.019 -0.002,-0.019 -0.002,-0.019 -0.002,-0.019 -10e-4,-0.018 -10e-4,-0.019 -0.002,-0.018 -0.001,-0.018 -10e-4,-0.017 -0.001,-0.017 -10e-4,-0.017 -10e-4,-0.016 -0.001,-0.016 0,-0.015 -10e-4,-0.015 0,-0.014 0,-0.013 0,-0.012 0,-0.012 v -0.011 l 0,-0.01 v -0.009 -0.008 l -0.001,-0.034 -0.002,-0.032 -0.002,-0.031 -0.002,-0.029 -0.003,-0.028 -0.003,-0.027 -0.003,-0.026 -0.004,-0.024 -0.004,-0.023 -0.005,-0.022 -0.005,-0.021 -0.005,-0.021 -0.006,-0.02 -0.006,-0.019 -0.007,-0.018 -0.007,-0.016 -0.007,-0.016 -0.008,-0.015 -0.008,-0.015 -0.009,-0.013 -0.009,-0.013 -0.009,-0.012 -0.01,-0.011 -0.011,-0.011 -0.011,-0.01 -0.011,-0.009 -0.012,-0.009 -0.013,-0.008 -0.013,-0.008 -0.014,-0.007 -0.014,-0.007 -0.015,-0.007 -0.015,-0.006 -0.016,-0.005 -0.016,-0.006 -0.017,-0.005 -0.018,-0.005 -0.018,-0.005 -0.019,-0.005 -0.019,-0.005 0.019,-0.003 0.019,-0.004 0.019,-0.005 0.018,-0.005 0.018,-0.006 0.017,-0.007 0.017,-0.007 0.017,-0.008 0.016,-0.009 0.016,-0.009 0.015,-0.009 0.015,-0.011 0.014,-0.01 0.014,-0.011 0.014,-0.012 0.013,-0.012 0.012,-0.013 0.012,-0.013 0.012,-0.014 0.011,-0.014 0.01,-0.014 0.01,-0.015 0.01,-0.015 0.009,-0.016 0.008,-0.016 0.008,-0.016 0.007,-0.017 0.007,-0.017 0.006,-0.017 0.006,-0.017 0.005,-0.018 0.005,-0.019 0.004,-0.018 0.003,-0.019 0.003,-0.019 0.002,-0.019 0.002,-0.019 10e-4,-0.02 0,-0.019 0,-0.02 v -0.022 l -10e-4,-0.022 -0.001,-0.022 -0.002,-0.022 -0.002,-0.021 -0.003,-0.021 -0.004,-0.021 -0.004,-0.021 -0.005,-0.021 -0.006,-0.021 -0.006,-0.021 -0.007,-0.02 -0.007,-0.02 -0.008,-0.02 -0.009,-0.019 -0.009,-0.019 -0.01,-0.018 -0.011,-0.018 -0.012,-0.018 -0.013,-0.016 -0.013,-0.017 -0.014,-0.015 -0.015,-0.015 -0.016,-0.015 -0.016,-0.013 -0.017,-0.013 -0.018,-0.012 -0.019,-0.012 -0.02,-0.011 -0.02,-0.01 -0.021,-0.009 -0.022,-0.008 -0.023,-0.007 -0.024,-0.007 -0.025,-0.005 -0.026,-0.005 -0.026,-0.003 -0.028,-0.003 -0.028,-0.002 h -0.03 c -10e-4,0 -0.005,0 -0.005,0 h -0.007 -0.01 -0.011 -0.014 -0.016 -0.018 -0.02 -0.021 -0.023 -0.024 -0.025 -0.026 -0.027 -0.028 -0.028 -0.029 -0.029 -0.029 -0.029 -0.029 -0.029 -0.028 -0.028 -0.027 -0.026 -0.025 -0.024 -0.023 -0.021 -0.02 -0.018 -0.016 -0.014 -0.012 -0.009 -0.007 c -0.004,0 -0.005,0 -0.005,0 v 2.344 z"
   id="path34"
   inkscape:connector-curvature="0"
   style="fill:none;stroke:#000000;stroke-width:0.00254974;stroke-linecap:round;stroke-linejoin:round;stroke-miterlimit:10;stroke-dasharray:none" />
</g>
<g
   id="LWPOLYLINE_11_"
   style="opacity:0.45283024;stroke-width:0.00254974;stroke-miterlimit:10;stroke-dasharray:none"
   transform="matrix(39.219685,0,0,39.219685,-11705.67,-15171.686)">
	
		<polygon
   stroke-miterlimit="10"
   points="304.862,399.16 304.856,399.16 304.85,399.16 304.843,399.16 304.835,399.16 304.827,399.16 304.819,399.16 304.81,399.16 304.8,399.16 304.791,399.16 304.781,399.16 304.771,399.16 304.76,399.16 304.75,399.16 304.739,399.16 304.729,399.16 304.718,399.16 304.708,399.16 304.698,399.16 304.688,399.16 304.678,399.16 304.669,399.16 304.66,399.16 304.651,399.16 304.643,399.16 304.635,399.16 304.628,399.16 304.622,399.16 304.616,399.16 304.607,399.16 304.601,399.16 304.599,399.177 304.599,399.197 304.599,399.225 304.599,399.26 304.599,399.301 304.599,399.349 304.599,399.401 304.599,399.46 304.599,399.522 304.599,399.59 304.599,399.661 304.599,399.736 304.599,399.813 304.599,399.895 304.599,399.977 304.599,400.061 304.599,400.146 304.599,400.233 304.599,400.32 304.599,400.407 304.599,400.493 304.599,400.579 304.599,400.663 304.599,400.746 304.599,400.826 304.599,400.904 304.599,400.979 304.599,401.05 304.599,401.117 304.599,401.181 304.599,401.238 304.599,401.292 304.599,401.339 304.599,401.38 304.599,401.415 304.599,401.442 304.599,401.463 304.599,401.476 304.607,401.48 304.616,401.48 304.622,401.48 304.628,401.48 304.635,401.48 304.643,401.48 304.651,401.48 304.66,401.48 304.669,401.48 304.678,401.48 304.688,401.48 304.698,401.48 304.708,401.48 304.718,401.48 304.729,401.48 304.739,401.48 304.75,401.48 304.76,401.48 304.771,401.48 304.781,401.48 304.791,401.48 304.8,401.48 304.81,401.48 304.819,401.48 304.827,401.48 304.835,401.48 304.843,401.48 304.85,401.48 304.856,401.48 304.862,401.48 304.872,401.48 304.877,401.48 304.879,399.16 304.872,399.16 "
   id="polygon37"
   style="fill:none;stroke:#000000;stroke-width:0.00254974;stroke-linecap:round;stroke-linejoin:round;stroke-miterlimit:10;stroke-dasharray:none" />
</g>
<g
   id="LWPOLYLINE_12_"
   style="opacity:0.45283024;stroke-width:0.00254974;stroke-miterlimit:10;stroke-dasharray:none"
   transform="matrix(39.219685,0,0,39.219685,-11705.67,-15171.686)">
	
		<polygon
   stroke-miterlimit="10"
   points="306.737,399.71 306.735,399.677 306.732,399.645 306.729,399.614 306.725,399.584 306.719,399.555 306.713,399.527 306.705,399.5 306.697,399.475 306.688,399.449 306.679,399.426 306.668,399.403 306.656,399.381 306.645,399.36 306.631,399.34 306.617,399.321 306.602,399.304 306.586,399.286 306.569,399.27 306.552,399.255 306.533,399.24 306.514,399.227 306.493,399.214 306.472,399.202 306.449,399.191 306.426,399.182 306.402,399.172 306.377,399.163 306.352,399.155 306.324,399.148 306.297,399.143 306.268,399.137 306.238,399.133 306.207,399.129 306.176,399.126 306.143,399.123 306.109,399.121 306.075,399.12 306.039,399.12 306.004,399.12 305.969,399.122 305.936,399.125 305.902,399.128 305.871,399.133 305.839,399.139 305.809,399.146 305.78,399.152 305.752,399.161 305.724,399.171 305.698,399.182 305.672,399.193 305.647,399.205 305.624,399.219 305.601,399.232 305.579,399.248 305.557,399.264 305.537,399.281 305.518,399.299 305.499,399.317 305.482,399.337 305.465,399.357 305.449,399.379 305.435,399.4 305.42,399.424 305.407,399.447 305.396,399.472 305.384,399.497 305.374,399.523 305.364,399.551 305.355,399.578 305.348,399.606 305.341,399.636 305.335,399.665 305.331,399.696 305.327,399.728 305.323,399.76 305.321,399.792 305.32,399.826 305.319,399.86 305.319,399.865 305.319,399.872 305.319,399.881 305.319,399.893 305.319,399.906 305.319,399.922 305.319,399.939 305.319,399.958 305.319,399.979 305.319,400.001 305.319,400.024 305.319,400.049 305.319,400.074 305.319,400.101 305.319,400.128 305.319,400.155 305.319,400.184 305.319,400.212 305.319,400.24 305.319,400.269 305.319,400.297 305.319,400.325 305.319,400.353 305.319,400.38 305.319,400.406 305.319,400.432 305.319,400.456 305.319,400.479 305.319,400.501 305.319,400.521 305.319,400.541 305.319,400.559 305.319,400.574 305.319,400.587 305.319,400.599 305.319,400.607 305.319,400.614 305.319,400.62 305.32,400.667 305.321,400.713 305.323,400.758 305.327,400.801 305.331,400.843 305.335,400.883 305.341,400.922 305.348,400.959 305.355,400.996 305.364,401.03 305.374,401.064 305.384,401.097 305.396,401.128 305.407,401.157 305.42,401.186 305.435,401.213 305.449,401.239 305.465,401.264 305.482,401.288 305.499,401.31 305.518,401.331 305.537,401.352 305.557,401.37 305.579,401.388 305.601,401.404 305.624,401.419 305.647,401.434 305.672,401.446 305.698,401.459 305.724,401.47 305.752,401.479 305.78,401.488 305.809,401.495 305.839,401.502 305.871,401.508 305.902,401.512 305.936,401.516 305.969,401.518 306.004,401.52 306.039,401.52 306.062,401.52 306.084,401.52 306.105,401.519 306.126,401.518 306.147,401.517 306.168,401.515 306.188,401.513 306.208,401.511 306.228,401.509 306.247,401.506 306.267,401.503 306.285,401.5 306.304,401.497 306.322,401.493 306.34,401.489 306.357,401.485 306.375,401.481 306.393,401.477 306.41,401.473 306.427,401.468 306.443,401.463 306.46,401.457 306.477,401.452 306.493,401.446 306.509,401.44 306.525,401.436 306.541,401.429 306.557,401.423 306.572,401.417 306.588,401.41 306.604,401.403 306.618,401.397 306.634,401.391 306.648,401.384 306.664,401.377 306.679,401.369 306.694,401.362 306.709,401.354 306.725,401.348 306.739,401.34 306.739,401.332 306.739,401.322 306.739,401.309 306.739,401.292 306.739,401.271 306.739,401.249 306.739,401.224 306.739,401.195 306.739,401.165 306.739,401.133 306.739,401.098 306.739,401.062 306.739,401.024 306.739,400.985 306.739,400.945 306.739,400.905 306.739,400.863 306.739,400.822 306.739,400.78 306.739,400.738 306.739,400.696 306.739,400.655 306.739,400.614 306.739,400.574 306.739,400.535 306.739,400.498 306.739,400.462 306.739,400.428 306.739,400.395 306.739,400.364 306.739,400.337 306.739,400.311 306.739,400.288 306.739,400.269 306.739,400.251 306.739,400.238 306.739,400.229 306.739,400.222 306.734,400.22 306.728,400.22 306.719,400.22 306.708,400.22 306.695,400.22 306.681,400.22 306.664,400.22 306.646,400.22 306.627,400.22 306.605,400.22 306.584,400.22 306.561,400.22 306.536,400.22 306.512,400.22 306.485,400.22 306.46,400.22 306.433,400.22 306.406,400.22 306.379,400.22 306.353,400.22 306.325,400.22 306.299,400.22 306.272,400.22 306.247,400.22 306.222,400.22 306.198,400.22 306.175,400.22 306.152,400.22 306.132,400.22 306.112,400.22 306.094,400.22 306.078,400.22 306.062,400.22 306.05,400.22 306.039,400.22 306.031,400.22 306.024,400.22 306.02,400.22 306.02,400.228 306.02,400.235 306.02,400.241 306.02,400.247 306.02,400.254 306.02,400.261 306.02,400.269 306.02,400.276 306.02,400.284 306.02,400.293 306.02,400.303 306.02,400.312 306.02,400.321 306.02,400.33 306.02,400.34 306.02,400.35 306.02,400.359 306.02,400.369 306.02,400.379 306.02,400.389 306.02,400.397 306.02,400.406 306.02,400.415 306.02,400.424 306.02,400.432 306.02,400.439 306.02,400.446 306.02,400.453 306.02,400.459 306.02,400.464 306.02,400.473 306.02,400.479 306.026,400.48 306.031,400.48 306.037,400.48 306.045,400.48 306.054,400.48 306.062,400.48 306.073,400.48 306.085,400.48 306.097,400.48 306.11,400.48 306.123,400.48 306.138,400.48 306.152,400.48 306.167,400.48 306.183,400.48 306.198,400.48 306.214,400.48 306.229,400.48 306.245,400.48 306.261,400.48 306.276,400.48 306.291,400.48 306.307,400.48 306.321,400.48 306.335,400.48 306.349,400.48 306.361,400.48 306.374,400.48 306.385,400.48 306.396,400.48 306.405,400.48 306.414,400.48 306.421,400.48 306.428,400.48 306.433,400.48 306.438,400.48 306.439,400.491 306.439,400.499 306.439,400.509 306.439,400.521 306.439,400.535 306.439,400.551 306.439,400.567 306.439,400.586 306.439,400.606 306.439,400.627 306.439,400.648 306.439,400.672 306.439,400.695 306.439,400.72 306.439,400.744 306.439,400.77 306.439,400.795 306.439,400.82 306.439,400.846 306.439,400.871 306.439,400.896 306.439,400.921 306.439,400.945 306.439,400.969 306.439,400.991 306.439,401.013 306.439,401.034 306.439,401.054 306.439,401.072 306.439,401.089 306.439,401.104 306.439,401.119 306.439,401.131 306.439,401.141 306.439,401.149 306.439,401.155 306.435,401.164 306.425,401.174 306.419,401.178 306.413,401.183 306.407,401.187 306.4,401.191 306.394,401.195 306.387,401.2 306.38,401.204 306.372,401.208 306.364,401.212 306.356,401.217 306.348,401.221 306.339,401.225 306.33,401.229 306.321,401.231 306.312,401.235 306.302,401.239 306.292,401.242 306.281,401.246 306.271,401.249 306.26,401.252 306.249,401.255 306.238,401.258 306.227,401.261 306.215,401.263 306.202,401.266 306.19,401.268 306.178,401.27 306.165,401.271 306.152,401.273 306.139,401.274 306.125,401.276 306.111,401.277 306.098,401.278 306.083,401.279 306.068,401.279 306.054,401.28 306.039,401.28 306.019,401.279 305.998,401.279 305.979,401.277 305.959,401.275 305.941,401.273 305.923,401.27 305.905,401.266 305.888,401.262 305.872,401.256 305.855,401.25 305.84,401.244 305.825,401.236 305.811,401.229 305.797,401.219 305.783,401.209 305.771,401.199 305.758,401.188 305.746,401.175 305.735,401.162 305.724,401.147 305.714,401.133 305.704,401.116 305.695,401.1 305.687,401.081 305.678,401.062 305.671,401.042 305.664,401.021 305.657,400.999 305.651,400.976 305.646,400.951 305.641,400.926 305.636,400.898 305.632,400.871 305.629,400.842 305.626,400.811 305.624,400.779 305.622,400.746 305.62,400.712 305.62,400.677 305.619,400.64 305.619,400.635 305.619,400.628 305.619,400.618 305.619,400.606 305.619,400.593 305.619,400.577 305.619,400.559 305.619,400.539 305.619,400.519 305.619,400.495 305.619,400.472 305.619,400.446 305.619,400.42 305.619,400.394 305.619,400.365 305.619,400.337 305.619,400.309 305.619,400.279 305.619,400.25 305.619,400.221 305.619,400.191 305.619,400.163 305.619,400.135 305.619,400.106 305.619,400.08 305.619,400.054 305.619,400.028 305.619,400.005 305.619,399.981 305.619,399.961 305.619,399.941 305.619,399.923 305.619,399.907 305.619,399.894 305.619,399.882 305.619,399.872 305.619,399.865 305.619,399.86 305.62,399.825 305.622,399.791 305.625,399.76 305.628,399.729 305.633,399.701 305.639,399.674 305.646,399.647 305.653,399.624 305.662,399.601 305.671,399.579 305.681,399.56 305.691,399.54 305.702,399.522 305.714,399.506 305.726,399.491 305.738,399.477 305.751,399.464 305.765,399.451 305.778,399.44 305.792,399.43 305.806,399.421 305.82,399.412 305.834,399.404 305.848,399.397 305.862,399.392 305.876,399.386 305.891,399.382 305.904,399.377 305.918,399.374 305.932,399.371 305.944,399.368 305.957,399.366 305.969,399.364 305.981,399.363 305.993,399.361 306.003,399.361 306.014,399.36 306.022,399.36 306.031,399.36 306.039,399.36 306.06,399.36 306.08,399.361 306.1,399.362 306.118,399.364 306.136,399.366 306.153,399.369 306.17,399.373 306.187,399.377 306.202,399.381 306.217,399.387 306.231,399.392 306.245,399.397 306.258,399.404 306.271,399.411 306.282,399.419 306.294,399.427 306.305,399.436 306.315,399.445 306.325,399.455 306.334,399.465 306.343,399.476 306.352,399.487 306.359,399.499 306.366,399.511 306.373,399.524 306.379,399.537 306.385,399.552 306.39,399.565 306.395,399.581 306.399,399.597 306.403,399.612 306.406,399.629 306.409,399.646 306.412,399.663 306.414,399.682 306.416,399.7 306.418,399.72 306.419,399.739 306.419,399.759 306.419,399.78 306.739,399.78 306.739,399.744 "
   id="polygon40"
   style="fill:none;stroke:#000000;stroke-width:0.00254974;stroke-linecap:round;stroke-linejoin:round;stroke-miterlimit:10;stroke-dasharray:none" />
</g>
<g
   id="LWPOLYLINE_13_"
   style="opacity:0.45283024;stroke-width:0.00254974;stroke-miterlimit:10;stroke-dasharray:none"
   transform="matrix(39.219685,0,0,39.219685,-11705.67,-15171.686)">
	
		<polygon
   stroke-miterlimit="10"
   points="307.276,401.48 307.282,401.48 307.288,401.48 307.295,401.48 307.303,401.48 307.312,401.48 307.319,401.48 307.329,401.48 307.338,401.48 307.348,401.48 307.357,401.48 307.368,401.48 307.378,401.48 307.389,401.48 307.399,401.48 307.41,401.48 307.42,401.48 307.431,401.48 307.44,401.48 307.45,401.48 307.46,401.48 307.47,401.48 307.479,401.48 307.487,401.48 307.495,401.48 307.503,401.48 307.51,401.48 307.517,401.48 307.522,401.48 307.531,401.48 307.537,401.48 307.539,401.473 307.539,401.463 307.539,401.45 307.539,401.435 307.539,401.416 307.539,401.394 307.539,401.37 307.539,401.343 307.539,401.314 307.539,401.283 307.539,401.251 307.539,401.217 307.539,401.182 307.539,401.145 307.539,401.106 307.539,401.068 307.539,401.029 307.539,400.989 307.539,400.95 307.539,400.91 307.539,400.871 307.539,400.832 307.539,400.793 307.539,400.756 307.539,400.719 307.539,400.684 307.539,400.649 307.539,400.616 307.539,400.586 307.539,400.557 307.539,400.53 307.539,400.506 307.539,400.484 307.539,400.466 307.539,400.449 307.539,400.437 307.539,400.428 307.539,400.422 307.545,400.42 307.552,400.42 307.562,400.42 307.573,400.42 307.588,400.42 307.604,400.42 307.622,400.42 307.643,400.42 307.664,400.42 307.688,400.42 307.712,400.42 307.738,400.42 307.765,400.42 307.792,400.42 307.821,400.42 307.85,400.42 307.88,400.42 307.909,400.42 307.939,400.42 307.969,400.42 307.999,400.42 308.028,400.42 308.058,400.42 308.086,400.42 308.114,400.42 308.141,400.42 308.166,400.42 308.191,400.42 308.214,400.42 308.236,400.42 308.256,400.42 308.274,400.42 308.291,400.42 308.305,400.42 308.316,400.42 308.326,400.42 308.333,400.42 308.339,400.42 308.339,400.428 308.339,400.437 308.339,400.449 308.339,400.466 308.339,400.484 308.339,400.506 308.339,400.53 308.339,400.557 308.339,400.586 308.339,400.616 308.339,400.649 308.339,400.684 308.339,400.719 308.339,400.756 308.339,400.793 308.339,400.832 308.339,400.871 308.339,400.91 308.339,400.95 308.339,400.989 308.339,401.029 308.339,401.068 308.339,401.106 308.339,401.145 308.339,401.182 308.339,401.217 308.339,401.251 308.339,401.283 308.339,401.314 308.339,401.343 308.339,401.37 308.339,401.394 308.339,401.416 308.339,401.435 308.339,401.45 308.339,401.463 308.339,401.473 308.339,401.479 308.348,401.48 308.357,401.48 308.363,401.48 308.37,401.48 308.378,401.48 308.386,401.48 308.395,401.48 308.404,401.48 308.414,401.48 308.424,401.48 308.435,401.48 308.445,401.48 308.456,401.48 308.467,401.48 308.479,401.48 308.489,401.48 308.5,401.48 308.512,401.48 308.522,401.48 308.533,401.48 308.544,401.48 308.555,401.48 308.564,401.48 308.574,401.48 308.584,401.48 308.593,401.48 308.601,401.48 308.608,401.48 308.615,401.48 308.621,401.48 308.626,401.48 308.635,401.48 308.64,401.463 308.64,401.442 308.64,401.415 308.64,401.38 308.64,401.339 308.64,401.292 308.64,401.238 308.64,401.181 308.64,401.117 308.64,401.05 308.64,400.979 308.64,400.904 308.64,400.826 308.64,400.746 308.64,400.663 308.64,400.579 308.64,400.493 308.64,400.407 308.64,400.32 308.64,400.233 308.64,400.146 308.64,400.061 308.64,399.977 308.64,399.895 308.64,399.813 308.64,399.736 308.64,399.661 308.64,399.59 308.64,399.522 308.64,399.46 308.64,399.401 308.64,399.349 308.64,399.301 308.64,399.26 308.64,399.225 308.64,399.197 308.64,399.177 308.64,399.164 308.631,399.16 308.621,399.16 308.615,399.16 308.608,399.16 308.601,399.16 308.593,399.16 308.584,399.16 308.574,399.16 308.564,399.16 308.555,399.16 308.544,399.16 308.533,399.16 308.522,399.16 308.512,399.16 308.5,399.16 308.489,399.16 308.479,399.16 308.467,399.16 308.456,399.16 308.445,399.16 308.435,399.16 308.424,399.16 308.414,399.16 308.404,399.16 308.395,399.16 308.386,399.16 308.378,399.16 308.37,399.16 308.363,399.16 308.357,399.16 308.353,399.16 308.344,399.16 308.339,399.167 308.339,399.176 308.339,399.188 308.339,399.203 308.339,399.221 308.339,399.241 308.339,399.264 308.339,399.289 308.339,399.316 308.339,399.346 308.339,399.376 308.339,399.408 308.339,399.441 308.339,399.477 308.339,399.512 308.339,399.549 308.339,399.585 308.339,399.622 308.339,399.66 308.339,399.697 308.339,399.734 308.339,399.771 308.339,399.808 308.339,399.844 308.339,399.878 308.339,399.912 308.339,399.944 308.339,399.975 308.339,400.004 308.339,400.031 308.339,400.056 308.339,400.079 308.339,400.1 308.339,400.117 308.339,400.132 308.339,400.144 308.339,400.152 308.339,400.158 308.333,400.16 308.326,400.16 308.316,400.16 308.305,400.16 308.291,400.16 308.274,400.16 308.256,400.16 308.236,400.16 308.214,400.16 308.191,400.16 308.166,400.16 308.141,400.16 308.114,400.16 308.086,400.16 308.058,400.16 308.028,400.16 307.999,400.16 307.969,400.16 307.939,400.16 307.909,400.16 307.88,400.16 307.85,400.16 307.821,400.16 307.792,400.16 307.765,400.16 307.738,400.16 307.712,400.16 307.688,400.16 307.664,400.16 307.643,400.16 307.622,400.16 307.604,400.16 307.588,400.16 307.573,400.16 307.562,400.16 307.552,400.16 307.545,400.16 307.539,400.16 307.539,400.152 307.539,400.144 307.539,400.132 307.539,400.117 307.539,400.1 307.539,400.079 307.539,400.056 307.539,400.031 307.539,400.004 307.539,399.975 307.539,399.944 307.539,399.912 307.539,399.878 307.539,399.844 307.539,399.808 307.539,399.771 307.539,399.734 307.539,399.697 307.539,399.66 307.539,399.622 307.539,399.585 307.539,399.549 307.539,399.512 307.539,399.477 307.539,399.441 307.539,399.408 307.539,399.376 307.539,399.346 307.539,399.316 307.539,399.289 307.539,399.264 307.539,399.241 307.539,399.221 307.539,399.203 307.539,399.188 307.539,399.176 307.539,399.167 307.539,399.162 307.531,399.16 307.522,399.16 307.517,399.16 307.51,399.16 307.503,399.16 307.495,399.16 307.487,399.16 307.479,399.16 307.47,399.16 307.46,399.16 307.45,399.16 307.44,399.16 307.431,399.16 307.42,399.16 307.41,399.16 307.399,399.16 307.389,399.16 307.378,399.16 307.368,399.16 307.357,399.16 307.348,399.16 307.338,399.16 307.329,399.16 307.319,399.16 307.312,399.16 307.303,399.16 307.295,399.16 307.288,399.16 307.282,399.16 307.276,399.16 307.271,399.16 307.264,399.16 307.259,401.48 307.268,401.48 "
   id="polygon43"
   style="fill:none;stroke:#000000;stroke-width:0.00254974;stroke-linecap:round;stroke-linejoin:round;stroke-miterlimit:10;stroke-dasharray:none" />
</g>
<g
   id="LWPOLYLINE_14_"
   style="opacity:0.45283024;stroke-width:0.00254974;stroke-miterlimit:10;stroke-dasharray:none"
   transform="matrix(39.219685,0,0,39.219685,-11705.67,-15171.686)">
	
		<polygon
   stroke-miterlimit="10"
   points="308.919,399.176 308.919,399.181 308.919,399.188 308.919,399.193 308.919,399.2 308.919,399.208 308.919,399.216 308.919,399.225 308.919,399.233 308.919,399.242 308.919,399.252 308.919,399.261 308.919,399.271 308.919,399.28 308.919,399.29 308.919,399.3 308.919,399.31 308.919,399.319 308.919,399.328 308.919,399.338 308.919,399.347 308.919,399.355 308.919,399.364 308.919,399.372 308.919,399.379 308.919,399.387 308.919,399.393 308.919,399.398 308.919,399.404 308.919,399.413 308.919,399.418 308.929,399.42 308.937,399.42 308.945,399.42 308.956,399.42 308.968,399.42 308.981,399.42 308.997,399.42 309.013,399.42 309.03,399.42 309.049,399.42 309.068,399.42 309.088,399.42 309.109,399.42 309.131,399.42 309.152,399.42 309.175,399.42 309.197,399.42 309.22,399.42 309.242,399.42 309.264,399.42 309.286,399.42 309.308,399.42 309.329,399.42 309.351,399.42 309.37,399.42 309.39,399.42 309.408,399.42 309.426,399.42 309.441,399.42 309.457,399.42 309.471,399.42 309.482,399.42 309.493,399.42 309.502,399.42 309.51,399.42 309.515,399.42 309.52,399.435 309.52,399.453 309.52,399.478 309.52,399.509 309.52,399.545 309.52,399.587 309.52,399.634 309.52,399.686 309.52,399.742 309.52,399.802 309.52,399.865 309.52,399.932 309.52,400 309.52,400.072 309.52,400.146 309.52,400.22 309.52,400.296 309.52,400.373 309.52,400.45 309.52,400.527 309.52,400.604 309.52,400.68 309.52,400.755 309.52,400.828 309.52,400.899 309.52,400.969 309.52,401.035 309.52,401.099 309.52,401.158 309.52,401.214 309.52,401.266 309.52,401.312 309.52,401.354 309.52,401.392 309.52,401.422 309.52,401.447 309.52,401.465 309.52,401.477 309.527,401.48 309.537,401.48 309.544,401.48 309.551,401.48 309.558,401.48 309.566,401.48 309.575,401.48 309.584,401.48 309.594,401.48 309.604,401.48 309.614,401.48 309.625,401.48 309.636,401.48 309.646,401.48 309.658,401.48 309.669,401.48 309.681,401.48 309.691,401.48 309.703,401.48 309.714,401.48 309.725,401.48 309.734,401.48 309.745,401.48 309.755,401.48 309.764,401.48 309.772,401.48 309.78,401.48 309.788,401.48 309.795,401.48 309.801,401.48 309.807,401.48 309.814,401.48 309.819,401.465 309.819,401.447 309.819,401.422 309.819,401.392 309.819,401.354 309.819,401.312 309.819,401.266 309.819,401.214 309.819,401.158 309.819,401.099 309.819,401.035 309.819,400.969 309.819,400.899 309.819,400.828 309.819,400.755 309.819,400.68 309.819,400.604 309.819,400.527 309.819,400.45 309.819,400.373 309.819,400.296 309.819,400.22 309.819,400.146 309.819,400.072 309.819,400 309.819,399.932 309.819,399.865 309.819,399.802 309.819,399.742 309.819,399.686 309.819,399.634 309.819,399.587 309.819,399.545 309.819,399.509 309.819,399.478 309.819,399.453 309.819,399.435 309.819,399.424 309.828,399.42 309.836,399.42 309.844,399.42 309.854,399.42 309.866,399.42 309.88,399.42 309.895,399.42 309.91,399.42 309.927,399.42 309.944,399.42 309.963,399.42 309.982,399.42 310.003,399.42 310.023,399.42 310.045,399.42 310.066,399.42 310.088,399.42 310.109,399.42 310.131,399.42 310.152,399.42 310.174,399.42 310.195,399.42 310.216,399.42 310.236,399.42 310.255,399.42 310.274,399.42 310.292,399.42 310.309,399.42 310.324,399.42 310.339,399.42 310.353,399.42 310.364,399.42 310.374,399.42 310.383,399.42 310.39,399.42 310.396,399.42 310.399,399.413 310.399,399.404 310.399,399.398 310.399,399.393 310.399,399.387 310.399,399.379 310.399,399.372 310.399,399.364 310.399,399.355 310.399,399.347 310.399,399.338 310.399,399.328 310.399,399.319 310.399,399.31 310.399,399.3 310.399,399.29 310.399,399.28 310.399,399.271 310.399,399.261 310.399,399.252 310.399,399.242 310.399,399.233 310.399,399.225 310.399,399.216 310.399,399.208 310.399,399.2 310.399,399.193 310.399,399.188 310.399,399.181 310.399,399.176 310.399,399.167 310.399,399.162 308.919,399.16 308.919,399.167 "
   id="polygon46"
   style="fill:none;stroke:#000000;stroke-width:0.00254974;stroke-linecap:round;stroke-linejoin:round;stroke-miterlimit:10;stroke-dasharray:none" />
</g>
<g
   id="LWPOLYLINE_15_"
   style="fill:#000000;fill-opacity:1"
   transform="matrix(39.219685,0,0,39.219685,-11705.67,-15171.686)">
	
		<path
   style="fill:#000000;stroke:#000000;stroke-width:0.1;stroke-linecap:round;stroke-linejoin:round;stroke-miterlimit:10;stroke-opacity:1"
   d="m 482.34375,-84.21875 0,42.03125 -168.5625,0 0,21.03125 168.5625,0 0,84.09375 -168.5625,0 0,21 168.5625,0 0,42.0625 84.25,0 0,-42.0625 42.125,0 0,-126.125 -42.125,0 0,-42.03125 -84.25,0 z m 21.25,21.15625 41.625,0 0,167.875 -41.625,0 0,-167.875 z m 62.8125,41.59375 21.15625,0 0,84.71875 -21.15625,0 0,-84.71875 z"
   transform="matrix(0.0254974,0,0,0.0254974,292.23837,391.6276)"
   id="polygon49"
   inkscape:connector-curvature="0" />
</g>

<g
   id="LWPOLYLINE_17_"
   style="opacity:1;fill:#000000;fill-opacity:1"
   transform="matrix(39.219685,0,0,39.219685,-11461.497,-15359.511)">
	
		
</g>
<g
   id="ARC"
   style="stroke-width:0.00254974;stroke-miterlimit:4;stroke-dasharray:none"
   transform="matrix(39.219685,0,0,39.219685,-11705.67,-15171.686)">
	
		<path
   stroke-miterlimit="10"
   d="m 312.054,393.575 c -0.781,0.781 -2.048,0.781 -2.829,0 -0.78,-0.782 -0.78,-2.048 0,-2.829 0.781,-0.781 2.048,-0.781 2.829,0 l -0.283,0.283 c -0.625,-0.625 -1.638,-0.625 -2.263,0 -0.625,0.625 -0.625,1.638 0,2.263 0.625,0.625 1.638,0.625 2.263,0 z"
   id="path58"
   inkscape:connector-curvature="0"
   style="fill:#000000;fill-opacity:1;stroke:none"
   sodipodi:nodetypes="cccccsscc" />
</g>
<g
   id="ARC_1_"
   style="opacity:0.45283023999999999;stroke-width:0.00254974;stroke-miterlimit:4;stroke-dasharray:none"
   transform="matrix(39.219685,0,0,39.219685,-11461.497,-15359.511)">
	
		
</g>
<g
   id="LWPOLYLINE_18_"
   style="stroke-width:0.00254974;stroke-miterlimit:4;stroke-dasharray:none"
   transform="matrix(39.219685,0,0,39.219685,-11705.67,-15171.686)">
	
		<polygon
   stroke-miterlimit="10"
   points="312.761,391.84 312.224,390.256 311.403,391.076 311.22,391.26 "
   id="polygon64"
   style="fill:#000000;fill-opacity:1;stroke:none" />
</g>
<g
   id="LINE"
   style="opacity:0.45283023999999999;stroke-width:0.00254974;stroke-miterlimit:4;stroke-dasharray:none"
   transform="matrix(39.219685,0,0,39.219685,-11461.497,-15359.511)">
	
		
</g>
<path
   style="fill:#000000;fill-opacity:1;stroke:none"
   d="m 125.2708,447.46551 c -11.2654,-2.55374 -16.64718,-9.02228 -17.68091,-21.25126 l -0.49543,-5.86094 5.13655,0 5.13654,0 0.52274,4.18383 c 1.36013,10.88614 9.36005,16.29986 20.42674,13.82324 5.80217,-1.29847 9.19655,-4.72579 10.39426,-10.49515 1.85598,-8.9402 -2.35929,-15.05732 -14.82505,-21.51383 -19.4284,-10.06274 -24.30556,-15.63307 -24.30556,-27.76003 0,-10.70068 5.73723,-18.84034 15.4635,-21.93875 6.63814,-2.11464 16.55605,-1.92931 21.95743,0.41032 7.32352,3.17222 11.07136,8.81239 12.33547,18.56381 l 0.5317,4.10156 -5.53399,0 -5.534,0 -0.49182,-2.92969 c -1.33843,-7.97295 -3.87049,-11.21997 -9.93055,-12.73457 -2.8541,-0.71333 -4.555,-0.71494 -7.36658,-0.007 -7.2082,1.81505 -10.50999,5.83931 -10.57331,12.88691 -0.0733,8.15778 3.26776,11.72183 19.1485,20.42644 15.70542,8.60851 20.39296,14.70694 20.39296,26.53096 0,5.63427 -0.30288,7.02434 -2.5053,11.49808 -2.77465,5.63612 -6.01874,8.58378 -11.91102,10.82267 -4.9591,1.88432 -14.80442,2.48755 -20.29287,1.24338 l 0,0 z"
   id="path3823"
   inkscape:connector-curvature="0" /><path
   style="fill:#000000;fill-opacity:1;stroke:none"
   d="m 178.41749,401.51476 0,-45.40105 16.24735,0.29371 16.24735,0.2937 5.14834,2.53451 c 6.07381,2.99013 8.86011,6.27151 10.90544,12.84317 2.80386,9.00879 1.41138,19.37741 -3.45132,25.6992 -5.04252,6.55555 -13.16073,9.27627 -27.71435,9.28816 l -7.22656,0.006 0,19.92188 0,19.92187 -5.07813,0 -5.07812,0 0,-45.40105 z m 27.3963,-4.6832 c 5.00678,-1.07377 9.46948,-4.87441 10.75273,-9.15754 1.32511,-4.42282 1.09181,-10.21697 -0.55585,-13.80508 -2.92839,-6.37713 -6.98954,-8.11964 -19.0385,-8.16884 l -8.39843,-0.0343 0,16.01563 0,16.01562 6.60217,0 c 3.63119,0 8.41824,-0.38947 10.63788,-0.8655 z"
   id="path3825"
   inkscape:connector-curvature="0" /><path
   style="fill:#000000;fill-opacity:1;stroke:none"
   d="m 245.60499,401.60331 0,-45.3125 5.07812,0 5.07813,0 0,45.3125 0,45.3125 -5.07813,0 -5.07812,0 0,-45.3125 z"
   id="path3827"
   inkscape:connector-curvature="0" /><path
   style="fill:#000000;fill-opacity:1;stroke:none"
   d="m 275.29249,401.57502 0,-45.34079 7.59277,0.2236 7.59278,0.22361 17.12384,38.47656 c 9.41811,21.16211 17.42714,38.47656 17.79785,38.47656 0.3707,0 0.67401,-17.40234 0.67401,-38.67187 0,-32.09084 0.18087,-38.67188 1.06283,-38.67188 0.58456,0 2.69394,0.22357 4.6875,0.49682 l 3.62467,0.49681 0,44.81569 0,44.81568 -7.22657,-0.007 -7.22656,-0.007 -17.54609,-39.05569 c -9.65035,-21.48039 -17.82418,-39.05525 -18.16406,-39.05525 -0.33989,0 -0.61797,17.57813 -0.61797,39.0625 l 0,39.0625 -4.6875,0 -4.6875,0 0,-45.34079 z"
   id="path3829"
   inkscape:connector-curvature="0" /><path
   style="fill:#000000;fill-opacity:1;stroke:none"
   d="m 355.76124,401.70439 0,-45.41358 13.47656,0.006 c 21.02487,0.009 26.78575,1.53051 32.91595,8.69227 5.24826,6.13142 7.00642,15.14785 7.06344,36.2237 0.0642,23.73714 -1.8454,31.76799 -9.10633,38.29619 -6.136,5.51679 -11.05777,6.72763 -29.31056,7.21091 l -15.03906,0.39818 0,-45.41357 z m 32.95103,33.70828 c 8.33108,-3.73906 10.30863,-11.27557 9.79391,-37.32498 -0.36624,-18.53513 -0.83716,-21.70971 -3.88592,-26.19582 -3.08794,-4.54375 -6.49567,-5.67673 -18.27599,-6.07626 l -10.42678,-0.35362 0,36.13372 0,36.13373 9.57031,-0.33838 c 7.51944,-0.26586 10.35338,-0.68983 13.22447,-1.97839 l 0,0 z"
   id="path3831"
   inkscape:connector-curvature="0" /><path
   style="fill:#000000;fill-opacity:1;stroke:none"
   d="m 429.97999,401.60331 0,-45.3125 5.07812,0 5.07813,0 0,40.625 0,40.625 16.40625,0 16.40625,0 0,4.6875 0,4.6875 -21.48438,0 -21.48437,0 0,-45.3125 z"
   id="path3833"
   inkscape:connector-curvature="0" /><path
   style="fill:#000000;fill-opacity:1;stroke:none"
   d="m 482.32374,401.60331 0,-45.3125 22.65625,0 22.65625,0 0,4.6875 0,4.6875 -17.57813,0 -17.57812,0 0,15.23438 0,15.23437 16.40625,0 16.40625,0 0,4.6875 0,4.6875 -16.40625,0 -16.40625,0 0,16.01563 0,16.01562 17.96875,0 17.96875,0 0,4.6875 0,4.6875 -23.04688,0 -23.04687,0 0,-45.3125 z"
   id="path3835"
   inkscape:connector-curvature="0" /><path
   style="fill:#000000;fill-opacity:1;stroke:none"
   d="m 212.78288,571.32988 c -0.47537,-1.61133 -1.13617,-9.25782 -1.46845,-16.99219 -0.88577,-20.6175 -1.69107,-21.61521 -17.85788,-22.1247 l -9.57031,-0.30159 0,20.78345 0,20.78346 -5.46875,0 -5.46875,0 0,-45.3125 0,-45.3125 17.29217,0 c 19.55588,0 21.7979,0.40504 26.84803,4.85034 4.53308,3.99019 6.64105,9.53531 6.64105,17.46969 0,9.59273 -3.28381,15.23025 -11.03986,18.95279 l -4.77102,2.28987 3.97612,1.32066 c 7.87983,2.61726 9.84624,7.49964 11.02835,27.38228 0.4343,7.30469 1.14497,14.5094 1.57927,16.01047 0.4343,1.50107 0.78964,2.81943 0.78964,2.92968 0,0.11026 -2.6202,0.20047 -5.82266,0.20047 l -5.82265,0 -0.8643,-2.92968 z m -3.50108,-51.87936 c 6.55007,-7.15282 5.46041,-21.009 -1.96535,-24.99148 -2.24338,-1.20313 -4.46405,-1.44948 -13.06646,-1.44948 l -10.36375,0 0,14.90139 0,14.90138 11.39015,-0.25294 11.39015,-0.25295 2.61526,-2.85592 z"
   id="path3837"
   inkscape:connector-curvature="0" /><path
   style="fill:#000000;fill-opacity:1;stroke:none"
   d="m 240.91749,528.55644 0,-44.92188 5.07812,0 5.07813,0 0,44.92188 0,44.92187 -5.07813,0 -5.07812,0 0,-44.92187 z"
   id="path3839"
   inkscape:connector-curvature="0" /><path
   style="fill:#000000;fill-opacity:1;stroke:none"
   d="m 285.97601,573.77377 c -2.57483,-0.79111 -5.08135,-2.44526 -7.90831,-5.21901 -7.704,-7.55899 -9.34944,-16.12142 -8.85606,-46.08468 0.30217,-18.3507 0.44857,-20.01212 2.14512,-24.34288 2.45187,-6.25883 7.54572,-11.60445 13.19911,-13.85147 6.32715,-2.51481 20.34654,-2.49713 26.80871,0.0338 7.68691,3.01061 12.36541,10.3464 12.36541,19.3887 l 0,3.37382 -5.45387,0 c -6.02569,0 -5.53184,0.47996 -6.64903,-6.46201 -0.26079,-1.62052 -1.49464,-4.10864 -2.74187,-5.52916 -5.28776,-6.02242 -18.29066,-5.81894 -23.98513,0.37534 -4.07347,4.431 -4.46099,6.69571 -4.77035,27.87906 -0.40961,28.04774 1.05425,36.61487 6.97833,40.84002 5.20411,3.71164 21.35649,2.71617 25.22131,-1.5544 1.10285,-1.21864 1.25299,-3.27241 1.06844,-14.61617 l -0.21471,-13.1983 -8.39844,-0.22175 -8.39843,-0.22174 0,-4.66107 0,-4.66107 13.67187,0 13.67188,0 0,21.76831 0,21.76831 -4.49219,2.00106 c -2.4707,1.10059 -6.65231,2.55485 -9.29246,3.2317 -6.07014,1.55618 -18.84911,1.53676 -23.96933,-0.0364 l 0,-10e-6 z"
   id="path3841"
   inkscape:connector-curvature="0" /><path
   style="fill:#000000;fill-opacity:1;stroke:none"
   d="m 345.60499,528.55644 0,-44.92188 5.07812,0 5.07813,0 0,19.53125 0,19.53125 16.01562,0 16.01563,0 0,-19.53125 0,-19.53125 5.46875,0 5.46875,0 0,44.92188 0,44.92187 -5.46875,0 -5.46875,0 0,-20.70312 0,-20.70313 -16.01563,0 -16.01562,0 0,20.70313 0,20.70312 -5.07813,0 -5.07812,0 0,-44.92187 z"
   id="path3843"
   inkscape:connector-curvature="0" /><path
   style="fill:#000000;fill-opacity:1;stroke:none"
   d="m 433.88624,533.24394 0,-40.23438 -11.71875,0 -11.71875,0 0,-4.6875 0,-4.6875 28.51562,0 28.51563,0 0,4.6875 0,4.6875 -11.32813,0 -11.32812,0 0,40.23438 0,40.23437 -5.46875,0 -5.46875,0 0,-40.23437 z"
   id="path3845"
   inkscape:connector-curvature="0" /></svg>