<?xml version="1.0" encoding="UTF-8" standalone="no"?>
<!-- Generator: Adobe Illustrator 16.0.1, SVG Export Plug-In . SVG Version: 6.00 Build 0)  -->

<svg
   xmlns:dc="http://purl.org/dc/elements/1.1/"
   xmlns:cc="http://creativecommons.org/ns#"
   xmlns:rdf="http://www.w3.org/1999/02/22-rdf-syntax-ns#"
   xmlns:svg="http://www.w3.org/2000/svg"
   xmlns="http://www.w3.org/2000/svg"
   xmlns:sodipodi="http://sodipodi.sourceforge.net/DTD/sodipodi-0.dtd"
   xmlns:inkscape="http://www.inkscape.org/namespaces/inkscape"
   version="1.0"
   id="_x31_"
   x="0px"
   y="0px"
   width="612px"
   height="792px"
   viewBox="0 0 612 792"
   enable-background="new 0 0 612 792"
   xml:space="preserve"
   inkscape:version="0.48.2 r9819"
   sodipodi:docname="7015.svg"><metadata
   id="metadata55"><rdf:RDF><cc:Work
       rdf:about=""><dc:format>image/svg+xml</dc:format><dc:type
         rdf:resource="http://purl.org/dc/dcmitype/StillImage" /></cc:Work></rdf:RDF></metadata><defs
   id="defs53" /><sodipodi:namedview
   pagecolor="#ffffff"
   bordercolor="#666666"
   borderopacity="1"
   objecttolerance="10"
   gridtolerance="10"
   guidetolerance="10"
   inkscape:pageopacity="0"
   inkscape:pageshadow="2"
   inkscape:window-width="1920"
   inkscape:window-height="1068"
   id="namedview51"
   showgrid="false"
   inkscape:zoom="0.5"
   inkscape:cx="323.00794"
   inkscape:cy="369.90378"
   inkscape:window-x="0"
   inkscape:window-y="0"
   inkscape:window-maximized="1"
   inkscape:current-layer="_x31_" />
<g
   id="LWPOLYLINE">
	
		<path
   d="M 176.46875 541.5625 C 176.33975 541.5625 144.5 644.21875 144.5 644.21875 L 144.875 644.21875 L 145.28125 644.21875 L 145.5625 644.21875 L 145.875 644.21875 L 146.1875 644.21875 L 146.5625 644.21875 L 146.96875 644.21875 L 147.375 644.21875 L 147.78125 644.21875 L 148.21875 644.21875 L 148.6875 644.21875 L 149.15625 644.21875 L 149.625 644.21875 L 150.125 644.21875 L 150.625 644.21875 L 151.125 644.21875 L 151.625 644.21875 L 152.125 644.21875 L 152.625 644.21875 L 153.09375 644.21875 L 153.5625 644.21875 L 154.03125 644.21875 L 154.46875 644.21875 L 154.875 644.21875 L 155.28125 644.21875 L 155.6875 644.21875 L 156.0625 644.21875 L 156.375 644.21875 L 156.6875 644.21875 L 156.96875 644.21875 L 157.1875 644.21875 L 157.53125 644.21875 C 157.74725 644.21875 157.78125 644.1875 157.78125 644.1875 C 157.82425 644.0135 157.875 643.8125 157.875 643.8125 L 158 643.53125 L 158.09375 643.15625 L 158.25 642.71875 L 158.40625 642.1875 L 158.59375 641.625 L 158.78125 641.03125 L 159 640.34375 L 159.25 639.59375 L 159.46875 638.875 L 159.75 638.0625 L 160 637.21875 L 160.28125 636.375 L 160.5625 635.5 L 160.84375 634.59375 L 161.15625 633.6875 L 161.4375 632.75 L 161.75 631.84375 L 162.03125 630.875 L 162.34375 629.96875 L 162.625 629.0625 L 162.90625 628.15625 L 163.1875 627.28125 L 163.46875 626.4375 L 163.75 625.59375 L 164 624.78125 L 164.25 624 L 164.46875 623.3125 L 164.6875 622.625 L 164.90625 622.03125 L 165.09375 621.46875 L 165.21875 620.9375 L 165.375 620.5 L 165.5 620.125 L 165.59375 619.8125 C 165.65775 619.5975 165.71875 619.46875 165.71875 619.46875 C 165.80575 619.42575 166 619.4375 166 619.4375 L 166.34375 619.4375 L 166.78125 619.4375 L 167.375 619.4375 L 168.03125 619.4375 L 168.8125 619.4375 L 169.6875 619.4375 L 170.625 619.4375 L 171.65625 619.4375 L 172.78125 619.4375 L 173.9375 619.4375 L 175.15625 619.4375 L 176.4375 619.4375 L 177.75 619.4375 L 179.125 619.4375 L 180.5 619.4375 L 181.90625 619.4375 L 183.3125 619.4375 L 184.75 619.4375 L 186.15625 619.4375 L 187.59375 619.4375 L 189 619.4375 L 190.375 619.4375 L 191.75 619.4375 L 193.0625 619.4375 L 194.34375 619.4375 L 195.5625 619.4375 L 196.71875 619.4375 L 197.84375 619.4375 L 198.875 619.4375 L 199.8125 619.4375 L 200.6875 619.4375 L 201.46875 619.4375 L 202.125 619.4375 L 202.71875 619.4375 L 203.15625 619.4375 L 203.5 619.4375 L 203.78125 619.4375 C 203.84525 619.6115 203.875 619.8125 203.875 619.8125 L 203.96875 620.125 L 204.0625 620.5 L 204.1875 620.9375 L 204.34375 621.46875 L 204.5 622.03125 L 204.6875 622.625 L 204.875 623.3125 L 205.09375 624 L 205.3125 624.78125 L 205.53125 625.59375 L 205.75 626.4375 L 206 627.28125 L 206.25 628.15625 L 206.5 629.0625 L 206.78125 629.96875 L 207.0625 630.875 L 207.3125 631.84375 L 207.5625 632.75 L 207.84375 633.6875 L 208.125 634.59375 L 208.34375 635.5 L 208.59375 636.375 L 208.84375 637.21875 L 209.09375 638.0625 L 209.3125 638.875 L 209.53125 639.59375 L 209.75 640.34375 L 209.9375 641.03125 L 210.125 641.625 L 210.28125 642.1875 L 210.4375 642.71875 L 210.5625 643.15625 L 210.65625 643.53125 L 210.75 643.8125 C 210.794 644.0275 210.84375 644.1875 210.84375 644.1875 C 210.97375 644.2305 211.09375 644.21875 211.09375 644.21875 L 211.5 644.21875 L 211.75 644.21875 L 212.0625 644.21875 L 212.40625 644.21875 L 212.8125 644.21875 L 213.21875 644.21875 L 213.65625 644.21875 L 214.09375 644.21875 L 214.59375 644.21875 L 215.09375 644.21875 L 215.59375 644.21875 L 216.15625 644.21875 L 216.6875 644.21875 L 217.25 644.21875 L 217.8125 644.21875 L 218.375 644.21875 L 218.9375 644.21875 L 219.5 644.21875 L 220.0625 644.21875 L 220.59375 644.21875 L 221.15625 644.21875 L 221.65625 644.21875 L 222.15625 644.21875 L 222.65625 644.21875 L 223.09375 644.21875 L 223.53125 644.21875 L 223.9375 644.21875 L 224.34375 644.21875 L 224.6875 644.21875 L 225 644.21875 L 225.25 644.21875 L 225.5 644.21875 L 225.78125 644.21875 C 225.82425 644.00175 225.65625 643.4375 225.65625 643.4375 L 225.375 642.59375 L 225 641.34375 L 224.5 639.8125 L 223.90625 637.96875 L 223.25 635.875 L 222.5 633.5625 L 221.6875 630.96875 L 220.78125 628.15625 L 219.8125 625.1875 L 218.84375 622.0625 L 217.78125 618.75 L 216.65625 615.28125 L 215.5625 611.75 L 214.375 608.0625 L 213.1875 604.34375 L 211.96875 600.53125 L 210.75 596.75 L 209.53125 592.90625 L 208.3125 589.0625 L 207.09375 585.21875 L 205.875 581.4375 L 204.6875 577.6875 L 203.5 574.0625 L 202.40625 570.46875 L 201.28125 567.0625 L 200.21875 563.71875 L 199.21875 560.5625 L 198.25 557.59375 L 197.375 554.8125 L 196.5625 552.25 L 195.8125 549.90625 L 195.15625 547.78125 L 194.5625 545.96875 L 194.0625 544.40625 L 193.6875 543.21875 L 193.40625 542.3125 L 193.21875 541.75 C 193.04575 541.576 192.875 541.5625 192.875 541.5625 L 192.4375 541.5625 L 192.125 541.5625 L 191.78125 541.5625 L 191.40625 541.5625 L 190.96875 541.5625 L 190.53125 541.5625 L 190.03125 541.5625 L 189.53125 541.5625 L 188.96875 541.5625 L 188.40625 541.5625 L 187.8125 541.5625 L 187.25 541.5625 L 186.625 541.5625 L 186 541.5625 L 185.375 541.5625 L 184.75 541.5625 L 184.125 541.5625 L 183.5 541.5625 L 182.875 541.5625 L 182.25 541.5625 L 181.6875 541.5625 L 181.09375 541.5625 L 180.5 541.5625 L 179.96875 541.5625 L 179.46875 541.5625 L 178.96875 541.5625 L 178.53125 541.5625 L 178.09375 541.5625 L 177.6875 541.5625 L 177.375 541.5625 L 177.0625 541.5625 L 176.8125 541.5625 L 176.46875 541.5625 z M 184.28125 554.0625 C 184.30525 553.9725 200.21875 607.9375 200.21875 607.9375 L 200.03125 607.9375 L 199.75 607.9375 L 199.34375 607.9375 L 198.875 607.9375 L 198.3125 607.9375 L 197.65625 607.9375 L 196.9375 607.9375 L 196.125 607.9375 L 195.25 607.9375 L 194.34375 607.9375 L 193.375 607.9375 L 192.3125 607.9375 L 191.28125 607.9375 L 190.15625 607.9375 L 189.03125 607.9375 L 187.875 607.9375 L 186.6875 607.9375 L 185.5 607.9375 L 184.3125 607.9375 L 183.125 607.9375 L 181.9375 607.9375 L 180.75 607.9375 L 179.59375 607.9375 L 178.46875 607.9375 L 177.34375 607.9375 L 176.28125 607.9375 L 175.25 607.9375 L 174.28125 607.9375 L 173.34375 607.9375 L 172.5 607.9375 L 171.6875 607.9375 L 170.96875 607.9375 L 170.3125 607.9375 L 169.75 607.9375 L 169.28125 607.9375 L 168.875 607.9375 L 168.59375 607.9375 L 168.375 607.9375 C 168.396 607.8515 168.5 607.53125 168.5 607.53125 L 168.65625 607.0625 L 168.8125 606.40625 L 169.0625 605.59375 L 169.34375 604.65625 L 169.6875 603.5625 L 170.03125 602.3125 L 170.4375 600.96875 L 170.875 599.5 L 171.3125 597.9375 L 171.8125 596.25 L 172.34375 594.53125 L 172.84375 592.71875 L 173.40625 590.875 L 173.96875 588.90625 L 174.5625 586.96875 L 175.15625 585 L 175.75 582.96875 L 176.34375 580.9375 L 176.9375 578.9375 L 177.53125 576.90625 L 178.125 574.9375 L 178.6875 572.9375 L 179.28125 571.03125 L 179.8125 569.1875 L 180.34375 567.375 L 180.875 565.625 L 181.34375 563.9375 L 181.8125 562.40625 L 182.25 560.9375 L 182.65625 559.59375 L 183 558.34375 L 183.34375 557.25 L 183.625 556.25 L 183.84375 555.46875 L 184.0625 554.84375 L 184.1875 554.34375 L 184.28125 554.0625 z "
   id="path4" />
</g>

<g
   id="LWPOLYLINE_2_"
   style="stroke:none;fill:#000000;fill-opacity:1">
	
		<path
   fill="none"
   stroke="#000000"
   stroke-width="0.7087"
   stroke-linecap="round"
   stroke-linejoin="round"
   stroke-miterlimit="10"
   d="   M237.416,606.16v2.074l0.064,2.031l0.107,1.988l0.13,1.9l0.194,1.859l0.217,1.771l0.259,1.729l0.303,1.684l0.324,1.6l0.389,1.512   l0.41,1.514l0.454,1.426l0.497,1.383l0.54,1.295l0.583,1.297l0.627,1.209l0.647,1.125l0.691,1.123l0.734,1.037l0.778,0.994   l0.821,0.906l0.864,0.908l0.886,0.82l0.929,0.777l0.994,0.734l1.015,0.648l1.037,0.648l1.103,0.562l1.145,0.561l1.167,0.477   l1.21,0.432l1.253,0.389l1.296,0.303l1.34,0.303l1.383,0.26l1.404,0.215l1.447,0.131l1.491,0.129l1.533,0.043l1.577,0.043   l1.577-0.043l1.534-0.043l1.491-0.129l1.447-0.131l1.426-0.215l1.361-0.26l1.339-0.303l1.297-0.303l1.253-0.389l1.21-0.432   l1.188-0.477l1.123-0.561l1.102-0.562l1.059-0.648l1.016-0.648l0.973-0.734l0.929-0.777l0.907-0.82l0.843-0.908l0.821-0.906   l0.777-0.994l0.734-1.037l0.691-1.123l0.67-1.125l0.605-1.209l0.583-1.297l0.54-1.295l0.497-1.383l0.453-1.426l0.433-1.514   l0.367-1.512l0.346-1.6l0.303-1.684l0.259-1.729l0.216-1.771l0.173-1.859l0.13-1.9l0.108-1.988l0.064-2.031l0.021-2.074   c0-0.129,0-0.475,0-0.475v-0.562v-0.777v-0.949v-1.168v-1.295v-1.471v-1.641v-1.771v-1.859v-1.986v-2.074v-2.16v-2.248v-2.289   v-2.377v-2.377v-2.42v-2.42v-2.42v-2.377v-2.375v-2.377V562v-2.246v-2.16v-2.074v-1.988v-1.857v-1.771v-1.643v-1.469v-1.297v-1.166   v-0.951V542.6v-0.562v-0.346c-0.216-0.129-0.367-0.129-0.367-0.129c-0.216,0-0.454,0-0.454,0h-0.259h-0.303h-0.346h-0.346h-0.389   h-0.41h-0.433h-0.432h-0.476h-0.476h-0.475h-0.497h-0.476h-0.497h-0.519h-0.475h-0.497h-0.476h-0.476h-0.475h-0.433h-0.432h-0.411   h-0.389h-0.346h-0.346h-0.302h-0.26h-0.237c-0.194,0-0.367,0-0.367,0c-0.217,0.129-0.217,0.475-0.217,0.475v0.562v0.777v0.994   v1.166v1.34v1.514v1.641v1.771v1.902v1.986v2.117v2.205v2.246v2.334v2.42v2.375v2.465v2.463v2.463v2.418v2.42v2.377v2.334v2.246   v2.205v2.117v2.029v1.902v1.771v1.643v1.512v1.297v1.166v0.994v0.777v0.605v0.346c0,0.086,0,1.729,0,1.729l-0.043,1.598   l-0.043,1.512l-0.087,1.428l-0.107,1.426l-0.13,1.338l-0.151,1.297l-0.173,1.211l-0.194,1.209l-0.216,1.123l-0.26,1.08   l-0.259,1.037l-0.281,0.994l-0.324,0.908l-0.346,0.906l-0.346,0.822l-0.389,0.82l-0.41,0.734l-0.433,0.734l-0.453,0.648   l-0.476,0.648l-0.497,0.561l-0.519,0.562l-0.54,0.52l-0.583,0.432l-0.583,0.475l-0.627,0.389l-0.627,0.346l-0.669,0.346   l-0.691,0.26l-0.691,0.303l-0.734,0.215l-0.757,0.174l-0.777,0.172l-0.8,0.174l-0.82,0.086l-0.864,0.086l-0.864,0.088l-0.886,0.043   h-0.93h-0.907l-0.907-0.043l-0.864-0.088l-0.843-0.086l-0.821-0.086l-0.82-0.174l-0.778-0.172l-0.756-0.174l-0.713-0.215   l-0.713-0.303l-0.691-0.26l-0.648-0.346l-0.647-0.346l-0.627-0.389l-0.583-0.475l-0.562-0.432l-0.562-0.52l-0.519-0.562   l-0.497-0.561l-0.475-0.648l-0.454-0.648l-0.432-0.734l-0.411-0.734l-0.367-0.82l-0.367-0.822l-0.346-0.906l-0.303-0.908   l-0.302-0.994l-0.26-1.037l-0.237-1.08l-0.216-1.123l-0.217-1.209l-0.173-1.211l-0.15-1.297l-0.13-1.338l-0.087-1.426l-0.086-1.428   l-0.065-1.512l-0.021-1.598l-0.021-1.643c0-0.086,0-0.432,0-0.432v-0.605v-0.777v-0.994v-1.166v-1.297v-1.512V598.6v-1.771v-1.902   v-2.029v-2.117v-2.205v-2.246v-2.334v-2.377v-2.42v-2.418v-2.463v-2.463v-2.465v-2.375v-2.42v-2.334v-2.246v-2.205v-2.117v-1.986   v-1.902v-1.771v-1.641v-1.514v-1.34v-1.166v-0.994V542.6v-0.562v-0.346c-0.216-0.129-0.367-0.129-0.367-0.129   c-0.194,0-0.432,0-0.432,0h-0.281h-0.303h-0.324h-0.367h-0.389h-0.41h-0.411h-0.453h-0.454h-0.475h-0.497h-0.476h-0.497h-0.497   h-0.496h-0.497h-0.497h-0.476h-0.476h-0.453h-0.454h-0.432h-0.411h-0.367h-0.367h-0.324h-0.302h-0.281h-0.237   c-0.194,0-0.367,0-0.367,0C237.416,541.562,237.416,606.16,237.416,606.16z"
   id="path10"
   style="stroke:none;fill:#000000;fill-opacity:1" />
</g>
<g
   id="LWPOLYLINE_3_"
   style="stroke:none;fill:#000000;fill-opacity:1">
	
		<path
   fill="none"
   stroke="#000000"
   stroke-width="0.7087"
   stroke-linecap="round"
   stroke-linejoin="round"
   stroke-miterlimit="10"
   d="   M312.644,541.562c0,0.174,0,0.303,0,0.303c0,0.172,0,0.389,0,0.389v0.26v0.26v0.258v0.346v0.303v0.346v0.389v0.389v0.389v0.434   v0.389v0.432v0.432v0.432v0.434v0.432v0.432v0.389v0.434v0.389v0.389v0.389v0.346v0.346v0.303v0.303v0.258v0.217   c0,0.217,0,0.389,0,0.389c0,0.129,0,0.217,0,0.217c0.173,0.086,0.389,0.086,0.389,0.086h0.346h0.389h0.476h0.519h0.648h0.647h0.735   h0.734h0.82h0.864h0.908h0.907h0.95h0.951h0.993h0.994h0.994h0.993h0.994h0.95h0.994h0.951h0.907h0.907h0.821h0.82h0.778h0.734   h0.648h0.604h0.562h0.476h0.389h0.303h0.259c0.173,0.172,0.173,0.648,0.173,0.648v0.82v1.08v1.383v1.6v1.857v2.117v2.291v2.463   v2.635v2.809v2.938v3.068v3.154v3.24v3.285v3.369v3.414v3.414v3.414v3.412v3.328v3.326v3.242v3.154v3.066v2.939v2.809v2.635v2.463   v2.291v2.074v1.857v1.643v1.383v1.08v0.777v0.52c0.217,0.172,0.39,0.172,0.39,0.172c0.173,0,0.432,0,0.432,0h0.26h0.302h0.346   h0.346h0.389h0.39h0.432h0.476h0.432h0.476h0.476h0.519h0.475h0.519h0.476h0.519h0.476h0.475h0.476h0.476h0.432h0.433h0.389h0.389   h0.389h0.303h0.303h0.303h0.216c0.216,0,0.346,0,0.346,0c0.216-0.172,0.216-0.691,0.216-0.691v-0.777v-1.08v-1.383v-1.643v-1.857   v-2.074v-2.291v-2.463v-2.635v-2.809v-2.939v-3.066v-3.154v-3.242v-3.326v-3.328v-3.412v-3.414v-3.414v-3.414v-3.369v-3.285v-3.24   v-3.154v-3.068v-2.938v-2.809v-2.635v-2.463v-2.291v-2.117v-1.857v-1.6v-1.383v-1.08v-0.82v-0.477   c0.216-0.172,0.433-0.172,0.433-0.172h0.302h0.389h0.433h0.519h0.604h0.648h0.691h0.734h0.821h0.821h0.864h0.863h0.908h0.95h0.95   h0.951h0.95h0.951h0.993h0.908h0.95h0.907h0.907h0.864h0.821h0.777h0.735h0.691h0.647h0.605h0.519h0.475h0.346h0.346h0.217   c0.173-0.174,0.173-0.303,0.173-0.303c0-0.172,0-0.389,0-0.389v-0.217v-0.258v-0.303v-0.303v-0.346v-0.346v-0.389v-0.389v-0.389   v-0.434v-0.389v-0.432v-0.432v-0.434v-0.432v-0.432v-0.432v-0.389v-0.434v-0.389v-0.389v-0.389v-0.346v-0.303v-0.346v-0.258v-0.26   v-0.26c0-0.217,0-0.389,0-0.389c0-0.129,0-0.217,0-0.217C378.106,541.562,312.644,541.562,312.644,541.562z"
   id="path13"
   style="stroke:none;fill:#000000;fill-opacity:1" />
</g>
<g
   id="LWPOLYLINE_4_">
	
		<path
   d="M 420.59375 539.78125 L 419.03125 539.84375 L 417.46875 539.875 L 416 540 L 414.53125 540.125 L 413.09375 540.34375 L 411.75 540.625 L 410.4375 540.90625 L 409.125 541.25 L 407.875 541.59375 L 406.65625 542.03125 L 405.46875 542.5 L 404.34375 543.03125 L 403.25 543.5625 L 402.1875 544.15625 L 401.1875 544.8125 L 400.1875 545.4375 L 399.28125 546.1875 L 398.375 546.90625 L 397.5 547.6875 L 396.6875 548.53125 L 395.90625 549.375 L 395.1875 550.28125 L 394.46875 551.25 L 393.84375 552.25 L 393.21875 553.21875 L 392.625 554.25 L 392.09375 555.34375 L 391.59375 556.46875 L 391.15625 557.625 L 390.71875 558.84375 L 390.34375 560.0625 L 390 561.3125 L 389.6875 562.59375 L 389.4375 563.9375 L 389.21875 565.28125 L 389.03125 566.65625 L 388.90625 568.09375 L 388.8125 569.53125 L 388.71875 571.03125 L 388.71875 572.53125 L 388.71875 572.75 L 388.71875 573.0625 L 388.71875 573.5 L 388.71875 573.96875 L 388.71875 574.5625 L 388.71875 575.28125 L 388.71875 576.03125 L 388.71875 576.875 L 388.71875 577.78125 L 388.71875 578.78125 L 388.71875 579.8125 L 388.71875 580.875 L 388.71875 582 L 388.71875 583.1875 L 388.71875 584.375 L 388.71875 585.59375 L 388.71875 586.84375 L 388.71875 588.09375 L 388.71875 589.34375 L 388.71875 590.59375 L 388.71875 591.875 L 388.71875 593.125 L 388.71875 594.3125 L 388.71875 595.53125 L 388.71875 596.6875 L 388.71875 597.8125 L 388.71875 598.90625 L 388.71875 599.9375 L 388.71875 600.875 L 388.71875 601.84375 L 388.71875 602.65625 L 388.71875 603.4375 L 388.71875 604.125 L 388.71875 604.71875 L 388.71875 605.21875 L 388.71875 605.65625 L 388.71875 605.90625 L 388.71875 606.15625 L 388.71875 608.25 L 388.8125 610.28125 L 388.90625 612.25 L 389.03125 614.15625 L 389.21875 616 L 389.4375 617.78125 L 389.6875 619.5 L 390 621.1875 L 390.34375 622.8125 L 390.71875 624.3125 L 391.15625 625.8125 L 391.59375 627.25 L 392.09375 628.625 L 392.625 629.9375 L 393.21875 631.21875 L 393.84375 632.4375 L 394.46875 633.5625 L 395.1875 634.6875 L 395.90625 635.71875 L 396.6875 636.71875 L 397.5 637.625 L 398.375 638.53125 L 399.28125 639.34375 L 400.1875 640.125 L 401.1875 640.84375 L 402.1875 641.5 L 403.25 642.15625 L 404.34375 642.71875 L 405.46875 643.28125 L 406.65625 643.75 L 407.875 644.1875 L 409.125 644.5625 L 410.4375 644.875 L 411.75 645.1875 L 413.09375 645.4375 L 414.53125 645.65625 L 416 645.78125 L 417.46875 645.90625 L 419.03125 645.96875 L 420.59375 646 L 422.1875 645.96875 L 423.6875 645.90625 L 425.21875 645.78125 L 426.625 645.65625 L 428.0625 645.4375 L 429.4375 645.1875 L 430.78125 644.875 L 432.0625 644.5625 L 433.34375 644.1875 L 434.53125 643.75 L 435.71875 643.28125 L 436.84375 642.71875 L 437.9375 642.15625 L 439 641.5 L 439.96875 640.84375 L 440.96875 640.125 L 441.9375 639.34375 L 442.78125 638.53125 L 443.65625 637.625 L 444.46875 636.71875 L 445.25 635.71875 L 446 634.6875 L 446.6875 633.5625 L 447.3125 632.4375 L 447.96875 631.21875 L 448.53125 629.9375 L 449.09375 628.625 L 449.5625 627.25 L 450.0625 625.8125 L 450.4375 624.3125 L 450.8125 622.78125 L 451.1875 621.1875 L 451.46875 619.5 L 451.75 617.78125 L 451.9375 616 L 452.125 614.15625 L 452.25 612.25 L 452.375 610.25 L 452.4375 608.21875 L 452.4375 606.15625 L 452.4375 605.90625 L 452.4375 605.65625 L 452.4375 605.21875 L 452.4375 604.71875 L 452.4375 604.125 L 452.4375 603.4375 L 452.4375 602.65625 L 452.4375 601.84375 L 452.4375 600.875 L 452.4375 599.9375 L 452.4375 598.90625 L 452.4375 597.8125 L 452.4375 596.6875 L 452.4375 595.53125 L 452.4375 594.3125 L 452.4375 593.125 L 452.4375 591.84375 L 452.4375 590.59375 L 452.4375 589.34375 L 452.4375 588.09375 L 452.4375 586.84375 L 452.4375 585.59375 L 452.4375 584.375 L 452.4375 583.1875 L 452.4375 582 L 452.4375 580.875 L 452.4375 579.8125 L 452.4375 578.78125 L 452.4375 577.78125 L 452.4375 576.875 L 452.4375 576.03125 L 452.4375 575.28125 L 452.4375 574.5625 L 452.4375 573.96875 L 452.4375 573.5 L 452.4375 573.0625 L 452.4375 572.75 L 452.4375 572.53125 L 452.4375 571.03125 L 452.375 569.53125 L 452.25 568.09375 L 452.125 566.65625 L 451.9375 565.28125 L 451.75 563.9375 L 451.46875 562.59375 L 451.1875 561.3125 L 450.8125 560.0625 L 450.4375 558.84375 L 450.0625 557.625 L 449.5625 556.46875 L 449.09375 555.34375 L 448.53125 554.25 L 447.96875 553.21875 L 447.3125 552.25 L 446.6875 551.25 L 446 550.28125 L 445.25 549.375 L 444.46875 548.53125 L 443.65625 547.6875 L 442.78125 546.90625 L 441.9375 546.1875 L 440.96875 545.4375 L 439.96875 544.8125 L 439 544.15625 L 437.9375 543.5625 L 436.84375 543.03125 L 435.71875 542.5 L 434.53125 542.03125 L 433.34375 541.59375 L 432.0625 541.25 L 430.78125 540.90625 L 429.4375 540.625 L 428.0625 540.34375 L 426.625 540.125 L 425.21875 540 L 423.6875 539.875 L 422.1875 539.84375 L 420.59375 539.78125 z M 419.46875 550.40625 L 419.84375 550.40625 L 420.25 550.40625 L 420.59375 550.40625 L 420.9375 550.40625 L 421.3125 550.40625 L 421.75 550.40625 L 422.1875 550.46875 L 422.65625 550.5 L 423.1875 550.5625 L 423.6875 550.59375 L 424.21875 550.6875 L 424.78125 550.75 L 425.375 550.90625 L 425.9375 551.03125 L 426.5625 551.15625 L 427.15625 551.375 L 427.8125 551.59375 L 428.40625 551.8125 L 429.0625 552.0625 L 429.65625 552.375 L 430.3125 552.71875 L 430.90625 553.09375 L 431.5625 553.5 L 432.15625 553.96875 L 432.75 554.4375 L 433.3125 555 L 433.875 555.5625 L 434.4375 556.21875 L 435 556.875 L 435.5 557.59375 L 436 558.375 L 436.4375 559.25 L 436.875 560.09375 L 437.3125 561.0625 L 437.65625 562.09375 L 438 563.15625 L 438.3125 564.28125 L 438.5625 565.5 L 438.78125 566.75 L 438.9375 568.09375 L 439.09375 569.53125 L 439.15625 571 L 439.15625 572.53125 L 439.15625 572.8125 L 439.15625 573.09375 L 439.15625 573.5 L 439.15625 574 L 439.15625 574.625 L 439.15625 575.34375 L 439.15625 576.125 L 439.15625 577 L 439.15625 577.9375 L 439.15625 578.9375 L 439.15625 579.96875 L 439.15625 581.09375 L 439.15625 582.28125 L 439.15625 583.4375 L 439.15625 584.6875 L 439.15625 585.9375 L 439.15625 587.1875 L 439.15625 588.5 L 439.15625 589.78125 L 439.15625 591.09375 L 439.15625 592.375 L 439.15625 593.625 L 439.15625 594.875 L 439.15625 596.125 L 439.15625 597.3125 L 439.15625 598.46875 L 439.15625 599.59375 L 439.15625 600.625 L 439.15625 601.65625 L 439.15625 602.5625 L 439.15625 603.4375 L 439.15625 604.25 L 439.15625 604.9375 L 439.15625 605.5625 L 439.15625 606.0625 L 439.15625 606.5 L 439.15625 606.8125 L 439.15625 607.03125 L 439.15625 608.65625 L 439.125 610.28125 L 439.09375 611.78125 L 439 613.21875 L 438.90625 614.625 L 438.78125 615.96875 L 438.59375 617.28125 L 438.4375 618.46875 L 438.21875 619.6875 L 438 620.8125 L 437.78125 621.90625 L 437.53125 622.9375 L 437.21875 623.9375 L 436.90625 624.84375 L 436.5625 625.75 L 436.1875 626.5625 L 435.84375 627.375 L 435.40625 628.125 L 434.96875 628.84375 L 434.53125 629.5 L 434.0625 630.15625 L 433.53125 630.6875 L 433.03125 631.25 L 432.46875 631.78125 L 431.90625 632.21875 L 431.34375 632.6875 L 430.6875 633.09375 L 430.09375 633.4375 L 429.40625 633.78125 L 428.71875 634.03125 L 428 634.34375 L 427.28125 634.5625 L 426.53125 634.71875 L 425.78125 634.90625 L 424.9375 635.0625 L 424.125 635.15625 L 423.25 635.25 L 422.40625 635.34375 L 421.5 635.375 L 420.59375 635.375 L 419.6875 635.375 L 418.78125 635.3125 L 417.90625 635.25 L 417.03125 635.15625 L 416.21875 635.0625 L 415.4375 634.90625 L 414.65625 634.71875 L 413.875 634.5625 L 413.15625 634.34375 L 412.46875 634.03125 L 411.78125 633.78125 L 411.125 633.4375 L 410.46875 633.0625 L 409.875 632.6875 L 409.25 632.21875 L 408.6875 631.78125 L 408.15625 631.25 L 407.625 630.6875 L 407.15625 630.125 L 406.65625 629.5 L 406.1875 628.84375 L 405.75 628.09375 L 405.375 627.375 L 404.96875 626.5625 L 404.625 625.71875 L 404.28125 624.8125 L 404 623.90625 L 403.6875 622.9375 L 403.4375 621.875 L 403.15625 620.8125 L 402.9375 619.6875 L 402.75 618.46875 L 402.5625 617.25 L 402.4375 615.96875 L 402.3125 614.625 L 402.1875 613.21875 L 402.09375 611.78125 L 402.03125 610.25 L 402 608.65625 L 402 607.03125 L 402 606.8125 L 402 606.5 L 402 606.0625 L 402 605.5625 L 402 604.9375 L 402 604.25 L 402 603.4375 L 402 602.5625 L 402 601.65625 L 402 600.625 L 402 599.59375 L 402 598.46875 L 402 597.3125 L 402 596.125 L 402 594.875 L 402 593.625 L 402 592.375 L 402 591.0625 L 402 589.78125 L 402 588.5 L 402 587.1875 L 402 585.9375 L 402 584.6875 L 402 583.4375 L 402 582.25 L 402 581.09375 L 402 579.96875 L 402 578.9375 L 402 577.9375 L 402 577 L 402 576.125 L 402 575.34375 L 402 574.625 L 402 574 L 402 573.5 L 402 573.09375 L 402 572.8125 L 402 572.53125 L 402.03125 571 L 402.09375 569.53125 L 402.21875 568.09375 L 402.375 566.75 L 402.59375 565.5 L 402.875 564.28125 L 403.15625 563.15625 L 403.5 562.09375 L 403.90625 561.0625 L 404.28125 560.09375 L 404.71875 559.25 L 405.1875 558.375 L 405.6875 557.59375 L 406.1875 556.875 L 406.71875 556.21875 L 407.28125 555.5625 L 407.84375 555 L 408.4375 554.4375 L 409.0625 553.96875 L 409.65625 553.5 L 410.25 553.09375 L 410.875 552.71875 L 411.5 552.375 L 412.15625 552.0625 L 412.75 551.8125 L 413.40625 551.59375 L 414 551.375 L 414.625 551.15625 L 415.21875 551.03125 L 415.8125 550.90625 L 416.375 550.75 L 416.9375 550.6875 L 417.5 550.59375 L 418.03125 550.5625 L 418.5 550.5 L 418.96875 550.46875 L 419.46875 550.40625 z "
   id="path16" />
</g>
<g
   id="LWPOLYLINE_5_">
	
		
</g>
<g
   id="LINE"
   style="stroke:none;fill:#000000;fill-opacity:1">
	
		<path
   style="fill:#000000;stroke:none;stroke-width:0.70870000000000000;stroke-linecap:round;stroke-linejoin:round;stroke-miterlimit:10;fill-opacity:1"
   d="m 401.13699,172.55299 -252.21499,0 0,-26.55299 271.65899,0 46.926,153.09201 -46.926,152.20499 -271.65899,0 0,-26.52899 252.21499,0 0,-252.21502"
   id="line22"
   inkscape:connector-curvature="0"
   sodipodi:nodetypes="cccccccccc" />
</g>
<g
   id="LINE_1_">
	
		
</g>
<g
   id="LINE_2_">
	
		
</g>
<g
   id="LINE_3_">
	
		
</g>
<g
   id="LINE_4_">
	
		
</g>
<g
   id="LINE_5_">
	
		
</g>
<g
   id="LINE_6_">
	
		
</g>
<g
   id="LINE_7_">
	
		
</g>
<g
   id="LINE_8_">
	
		
</g>
<g
   id="LWPOLYLINE_6_"
   style="stroke:none;fill:#000000;fill-opacity:1">
	
		<path
   style="fill:#000000"
   d="m 148.922,288.463 121.7,0 0,-43.361 103.94,55.761 -103.94,54.856 0,-42.477 -121.7,0 z"
   id="polygon49" />
</g>
<g
   id="LWPOLYLINE_1_">
	
		
</g></svg>