<?xml version="1.0" encoding="UTF-8" standalone="no"?>
<!-- Generator: Adobe Illustrator 16.0.1, SVG Export Plug-In . SVG Version: 6.00 Build 0)  -->

<svg
   xmlns:dc="http://purl.org/dc/elements/1.1/"
   xmlns:cc="http://creativecommons.org/ns#"
   xmlns:rdf="http://www.w3.org/1999/02/22-rdf-syntax-ns#"
   xmlns:svg="http://www.w3.org/2000/svg"
   xmlns="http://www.w3.org/2000/svg"
   xmlns:sodipodi="http://sodipodi.sourceforge.net/DTD/sodipodi-0.dtd"
   xmlns:inkscape="http://www.inkscape.org/namespaces/inkscape"
   version="1.0"
   id="_x31_"
   x="0px"
   y="0px"
   width="612px"
   height="792px"
   viewBox="0 0 612 792"
   enable-background="new 0 0 612 792"
   xml:space="preserve"
   inkscape:version="0.48.2 r9819"
   sodipodi:docname="7018.svg"><metadata
   id="metadata31"><rdf:RDF><cc:Work
       rdf:about=""><dc:format>image/svg+xml</dc:format><dc:type
         rdf:resource="http://purl.org/dc/dcmitype/StillImage" /></cc:Work></rdf:RDF></metadata><defs
   id="defs29" /><sodipodi:namedview
   pagecolor="#ffffff"
   bordercolor="#666666"
   borderopacity="1"
   objecttolerance="10"
   gridtolerance="10"
   guidetolerance="10"
   inkscape:pageopacity="0"
   inkscape:pageshadow="2"
   inkscape:window-width="1920"
   inkscape:window-height="1068"
   id="namedview27"
   showgrid="false"
   inkscape:zoom="0.84281414"
   inkscape:cx="48.166212"
   inkscape:cy="471.74595"
   inkscape:window-x="0"
   inkscape:window-y="0"
   inkscape:window-maximized="1"
   inkscape:current-layer="_x31_" />
<g
   id="LWPOLYLINE_1_"
   style="stroke:none;fill:#000000;fill-opacity:1">
	
		<path
   style="fill:#000000;fill-opacity:1;stroke:none"
   d="m 147.90625,547.875 c 0.2299,31.87427 -0.45931,64.66765 0.34375,95.96875 3.53561,-0.46842 8.75728,0.95725 11.24995,-0.6875 0.15158,-14.33352 -0.30082,-29.06539 0.21875,-43.1562 8.5471,1.03255 19.78676,-3.01317 25.9375,4.87485 5.07892,12.19981 -0.098,26.97501 5.4991,38.96875 4.01029,-0.34021 10.03505,0.6859 12.8447,-0.46865 -5.00994,-14.15804 -0.26985,-30.31299 -7.2804,-43.78125 -1.80629,-4.06761 -9.76598,-5.4117 -10.78125,-6.34375 21.77887,-3.45975 22.20295,-40.03459 1.00005,-44.65625 -12.88566,-1.62153 -26.05201,-0.28586 -39.03215,-0.71875 z M 159.5,558.625 c 8.61998,0.96871 18.51301,-2.37141 26.125,2.6874 8.82348,8.25582 4.62675,29.15776 -9.4063,27.9061 -5.5625,0 -11.125,0 -16.6875,0 -0.0545,-10.19763 -0.0247,-20.39573 -0.0312,-30.5935 z"
   id="path7"
   inkscape:connector-curvature="0" />
</g><g
   id="LWPOLYLINE"
   style="stroke:none;fill:#000000;fill-opacity:1">
	
		
</g>

<g
   id="LWPOLYLINE_2_"
   style="stroke:none;fill:#000000;fill-opacity:1">
	
		<path
   style="fill:#000000;fill-opacity:1;stroke:none"
   d="m 267.922,643.843 c -0.40914,-3.39595 0.84224,-8.26514 -0.606,-10.742 -12.1236,-0.16907 -24.90983,0.3245 -36.636,-0.242 0.19612,-10.83922 -0.34987,-22.42053 0.242,-32.864 11.0992,-0.2228 23.04453,0.40053 33.683,-0.283 -0.37984,-3.31139 0.77191,-7.96757 -0.545,-10.459 -11.01636,-0.19097 -22.7576,0.34293 -33.38,-0.242 0.2099,-10.00844 -0.41326,-20.84992 0.263,-30.392 11.93762,-0.20538 24.67039,0.38439 36.146,-0.283 -0.50779,-3.25555 1.04793,-8.39183 -0.768,-10.459 -15.713,0 -31.426,0 -47.139,0 -0.24259,31.92395 -0.0315,63.88136 -0.102,95.818 16.27883,0.20795 32.56186,0.109 48.842,0.148 z"
   id="path10"
   inkscape:connector-curvature="0" />
</g>
<g
   id="LWPOLYLINE_3_"
   style="stroke:none;fill:#000000;fill-opacity:1">
	
		<path
   style="fill:#000000;fill-opacity:1;stroke:none"
   d="m 278.671,614.907 c -2.45644,13.25396 5.21952,28.75747 19.699,29.994 14.7298,3.18714 34.47135,-3.12856 36.193,-20.287 3.17745,-14.13379 -6.64115,-27.03727 -19.115,-32.532 -9.59908,-5.26664 -24.79344,-11.05654 -22.49,-24.698 1.6604,-14.56341 26.90294,-15.32552 28.221,-0.121 0.63064,3.21938 -0.57266,7.60691 4.038,6.266 3.63005,-0.589 10.80413,2.22939 8.884,-4.123 0.80692,-13.4062 -11.25053,-24.22024 -24.409,-23.197 -14.36309,-1.52115 -29.94028,8.89921 -29.341,24.366 -1.42509,16.42985 14.67161,25.25861 27.34,31.241 8.9829,3.82345 18.15102,12.71295 14.023,23.325 -4.65009,14.67862 -30.76664,12.10138 -31.186,-4.044 1.28448,-9.20047 -3.8349,-5.71348 -11.857,-6.19 z"
   id="path13"
   inkscape:connector-curvature="0" />
</g>
<g
   id="LWPOLYLINE_4_"
   style="stroke:none;fill:#000000;fill-opacity:1">
	
		<path
   style="fill:#000000;fill-opacity:1;stroke:none"
   d="m 402.009,643.843 c -0.40858,-3.39617 0.84101,-8.26331 -0.605,-10.742 -12.12936,-0.16931 -24.92209,0.32475 -36.654,-0.242 0.19612,-10.83922 -0.34987,-22.42053 0.242,-32.864 11.10714,-0.22286 23.06054,0.40054 33.707,-0.283 -0.39266,-3.30496 0.79858,-8.00797 -0.565,-10.459 -11.01739,-0.19127 -22.76064,0.3433 -33.384,-0.242 0.22628,-9.99872 -0.44528,-20.89528 0.283,-30.392 11.93221,-0.20512 24.6587,0.38403 36.129,-0.283 -0.50843,-3.25432 1.04841,-8.3929 -0.767,-10.459 -15.70633,0 -31.41267,0 -47.119,0 -0.29016,31.91738 -0.0377,63.8825 -0.122,95.818 16.28316,0.20799 32.57053,0.10898 48.855,0.148 z"
   id="path16"
   inkscape:connector-curvature="0" />
</g>
<g
   id="LWPOLYLINE_5_"
   style="stroke:none;fill:#000000;fill-opacity:1">
	
		<path
   style="fill:#000000;fill-opacity:1;stroke:none"
   d="m 406.131,547.864 c 0.45408,3.3786 -0.94079,8.41154 0.687,10.742 7.98933,0 15.97867,0 23.968,0 0.63078,28.27345 -0.44726,57.35895 0.525,85.225 3.86632,-0.42194 8.9574,0.85628 12.075,-0.605 0.24827,-28.12368 -0.50034,-56.89738 0.363,-84.62 7.81484,-0.22348 16.08636,0.44008 23.644,-0.283 0,-3.45967 0,-6.91933 0,-10.379 -20.4203,-0.10799 -40.84142,-0.0602 -61.262,-0.08 z"
   id="path19"
   inkscape:connector-curvature="0" />
</g>
<g
   id="LWPOLYLINE_6_"
   style="stroke:none;fill:#000000;fill-opacity:1">
	
		<path
   style="fill:#000000;fill-opacity:1;stroke:none"
   d="m 354.121,145.5 c 6.62767,6.634 13.25533,13.268 19.883,19.902 C 304.17167,235.24133 234.33933,305.08067 164.507,374.92 157.87267,368.28567 151.23833,361.65133 144.604,355.017 214.443,285.178 284.282,215.339 354.121,145.5 z"
   id="polygon22"
   inkscape:connector-curvature="0" />
</g>
<g
   id="LWPOLYLINE_7_"
   style="stroke:none;fill:#000000;fill-opacity:1">
	
		<path
   style="fill:#000000;fill-opacity:1;stroke:none"
   d="m 441.855,233.234 c 6.62767,6.63467 13.25533,13.26933 19.883,19.904 -69.83867,69.832 -139.67733,139.664 -209.516,209.496 -6.62767,-6.62767 -13.25533,-13.25533 -19.883,-19.883 69.83867,-69.839 139.67733,-139.678 209.516,-209.517 z"
   id="polygon25"
   inkscape:connector-curvature="0" />
</g>
</svg>