<?xml version="1.0" encoding="UTF-8" standalone="no"?>
<!-- Generator: Adobe Illustrator 16.0.1, SVG Export Plug-In . SVG Version: 6.00 Build 0)  -->

<svg
   xmlns:dc="http://purl.org/dc/elements/1.1/"
   xmlns:cc="http://creativecommons.org/ns#"
   xmlns:rdf="http://www.w3.org/1999/02/22-rdf-syntax-ns#"
   xmlns:svg="http://www.w3.org/2000/svg"
   xmlns="http://www.w3.org/2000/svg"
   xmlns:sodipodi="http://sodipodi.sourceforge.net/DTD/sodipodi-0.dtd"
   xmlns:inkscape="http://www.inkscape.org/namespaces/inkscape"
   version="1.0"
   id="_x31_"
   x="0px"
   y="0px"
   width="612px"
   height="792px"
   viewBox="0 0 612 792"
   enable-background="new 0 0 612 792"
   xml:space="preserve"
   inkscape:version="0.48.2 r9819"
   sodipodi:docname="7020.svg"><metadata
   id="metadata64"><rdf:RDF><cc:Work
       rdf:about=""><dc:format>image/svg+xml</dc:format><dc:type
         rdf:resource="http://purl.org/dc/dcmitype/StillImage" /></cc:Work></rdf:RDF></metadata><defs
   id="defs62" /><sodipodi:namedview
   pagecolor="#ffffff"
   bordercolor="#666666"
   borderopacity="1"
   objecttolerance="10"
   gridtolerance="10"
   guidetolerance="10"
   inkscape:pageopacity="0"
   inkscape:pageshadow="2"
   inkscape:window-width="1920"
   inkscape:window-height="1068"
   id="namedview60"
   showgrid="false"
   inkscape:zoom="0.84281414"
   inkscape:cx="95.935269"
   inkscape:cy="369.20033"
   inkscape:window-x="0"
   inkscape:window-y="0"
   inkscape:window-maximized="1"
   inkscape:current-layer="_x31_" />
<g
   id="LWPOLYLINE_7_"
   style="stroke:none;fill:#000000;fill-opacity:1">
	
		<path
   style="fill:#000000;fill-opacity:1;stroke:none"
   d="m 334.125,546.15625 c -14.16474,-1.06164 -28.38774,9.10431 -29.3125,23.84375 -0.73159,16.85373 -1.07953,33.90261 0.4375,50.71875 0.96001,13.34203 12.05288,25.01182 25.76895,24.67383 13.03888,1.79207 27.72311,-5.09509 30.66855,-18.76758 4.08985,-17.19568 1.68259,-35.11381 2.1875,-52.625 0.29664,-14.19921 -10.85539,-27.39531 -25.40625,-27.65625 -1.45012,-0.0299 -2.89202,-0.20871 -4.34375,-0.1875 z m -0.6875,9.9375 c 11.40468,-1.31374 19.27128,10.10399 18.06245,20.6873 -0.91364,16.53808 2.19221,33.64845 -2.4374,49.75 -4.88497,13.85296 -29.60849,11.65896 -30.9688,-3.59355 -2.56851,-16.58506 -1.08416,-33.58055 -1.0937,-50.3125 0.3812,-9.06223 7.08996,-16.75328 16.43745,-16.53125 z"
   id="path25"
   inkscape:connector-curvature="0" />
</g><g
   id="LWPOLYLINE_10_"
   style="stroke:none;fill:#000000;fill-opacity:1">
	
		<path
   style="fill:#000000;fill-opacity:1;stroke:none"
   d="m 384.8125,547.8125 c -0.37405,31.92374 -0.046,63.92292 -0.15625,95.875 11.01005,3.93219 13.10095,-1.46917 11.5625,-10.3125 0.19164,-10.48527 -0.37804,-21.65207 0.28125,-31.7187 13.30943,0.0243 29.99497,1.91498 38.125,-11.2813 8.03207,-14.17849 4.08528,-38.11075 -14.1875,-41.6875 -11.73011,-1.76522 -23.78857,-0.49162 -35.625,-0.875 z m 11.40625,10.78125 c 9.32563,0.86238 22.03492,-3.32856 27.75,6.71855 6.16932,10.5806 -0.84824,26.68625 -14.09375,25.531 -4.55208,0 -9.10417,0 -13.65625,0 0,-10.74955 0,-21.5015 0,-32.24955 z"
   id="path34"
   inkscape:connector-curvature="0" />
</g><g
   id="LINE_2_"
   style="stroke:none;fill:#000000;fill-opacity:1">
	
		<path
   style="fill:#000000;fill-opacity:1;stroke:none"
   d="m 225.71875,212.5625 c 25.79167,43.59375 51.58333,87.1875 77.375,130.78125 25.9375,-43.59375 51.875,-87.1875 77.8125,-130.78125 -51.72917,0 -103.45833,0 -155.1875,0 z m 32.25,16.53125 c 31.04167,0 62.08333,0 93.125,0 -16,27.32292 -32,54.64583 -48,81.96875 -15.04167,-27.32292 -30.08333,-54.64583 -45.125,-81.96875 z"
   id="line46"
   inkscape:connector-curvature="0" />
</g><g
   id="LWPOLYLINE"
   style="stroke:none;fill:#000000;fill-opacity:1">
	
		<path
   style="fill:#000000;fill-opacity:1;stroke:none"
   d="m 205.01,436.891 c 1.93426,-11.62834 -3.07258,-26.32857 -16.532,-27.53 -13.80673,-2.58185 -32.16576,1.23159 -35.995,16.86 -3.85472,16.4185 -1.60413,33.56161 -1.90473,50.28667 0.15752,13.40664 6.49041,30.15755 22.03173,31.20033 12.49415,2.172 28.67283,-1.34397 32.257,-15.32 1.00305,-4.4715 3.26974,-11.92818 0.788,-14.913 -3.73833,0 -7.47667,0 -11.215,0 0.40149,9.38132 -4.6748,21.62046 -15.762,20.653 -11.71222,1.03006 -15.96905,-12.04721 -15.76,-21.583 0.39873,-16.25089 -1.74281,-32.90138 1.824,-48.87 4.06076,-11.83041 26.21845,-12.60679 27.977,1.253 1.41816,3.1685 -1.33376,9.71884 4.24562,7.957 2.67998,0.004 5.37533,-0.008 8.04538,0.006 z"
   id="path4"
   inkscape:connector-curvature="0" />
</g>
<g
   id="LWPOLYLINE_1_"
   style="stroke:none;fill:#000000;fill-opacity:1">
	
		<path
   style="fill:#000000;fill-opacity:1;stroke:none"
   d="m 244.742,456.777 c -6.18283,-15.40878 -11.96651,-31.2477 -18.429,-46.38 -4.02866,0.3096 -9.94169,-0.62258 -12.852,0.424 8.05904,19.83837 17.30906,39.42462 24.66,59.417 0.23451,11.93283 -0.43992,24.77459 0.323,36.179 3.5777,-0.39228 8.55422,0.79683 11.278,-0.564 0.30531,-12.51013 -0.56693,-25.25672 0.405,-37.633 8.17049,-19.19991 17.43767,-38.88663 24.922,-57.823 -4.67428,0.90305 -12.42379,-2.81266 -12.98194,4.27944 -5.79861,14.0238 -11.55911,28.06332 -17.32506,42.10056 z"
   id="path7"
   inkscape:connector-curvature="0" />
</g>
<g
   id="LWPOLYLINE_2_"
   style="stroke:none;fill:#000000;fill-opacity:1">
	
		<path
   style="fill:#000000;fill-opacity:1;stroke:none"
   d="m 339.104,436.891 c 1.9645,-11.62551 -3.06951,-26.34997 -16.531,-27.53 -13.80639,-2.59719 -32.14638,1.23107 -35.995,16.857 -3.82563,16.42646 -1.63916,33.56265 -1.88472,50.28986 0.1306,13.40097 6.49517,30.18019 22.03472,31.20014 12.49683,2.16931 28.67117,-1.34486 32.264,-15.32 0.97365,-4.47126 3.26741,-11.9318 0.768,-14.913 -3.72967,0 -7.45933,0 -11.189,0 0.37711,9.36834 -4.66025,21.61533 -15.752,20.653 -11.7027,1.03668 -16.01492,-12.04004 -15.763,-21.583 0.31792,-16.18311 -1.68174,-32.74877 1.742,-48.666 3.91422,-12.18532 26.71874,-12.8219 28.082,1.413 1.32911,3.10464 -1.31691,9.37627 4.1812,7.594 2.67943,0.003 5.37165,-0.006 8.0428,0.005 z"
   id="path10"
   inkscape:connector-curvature="0" />
</g>
<g
   id="LWPOLYLINE_3_"
   style="stroke:none;fill:#000000;fill-opacity:1">
	
		<path
   style="fill:#000000;fill-opacity:1;stroke:none"
   d="m 403.695,506.412 c -0.38494,-3.40668 0.79084,-8.18839 -0.565,-10.742 -11.41333,0 -22.82667,0 -34.24,0 -0.22068,-28.35192 0.4451,-57.25094 -0.323,-85.265 -3.5374,0.46617 -8.76514,-0.96272 -11.229,0.707 0,31.71733 0,63.43467 0,95.152 15.4504,0.208 30.90522,0.10898 46.357,0.148 z"
   id="path13"
   inkscape:connector-curvature="0" />
</g>
<g
   id="LWPOLYLINE_4_"
   style="stroke:none;fill:#000000;fill-opacity:1">
	
		<path
   style="fill:#000000;fill-opacity:1;stroke:none"
   d="m 461.618,506.412 c -0.41241,-3.39162 0.84734,-8.27679 -0.606,-10.742 -12.11927,-0.17007 -24.90536,0.32669 -36.624,-0.244 0.19691,-10.83842 -0.35128,-22.42195 0.243,-32.863 11.07735,-0.25432 23.12033,0.457 33.673,-0.322 -0.3665,-3.30594 0.74474,-7.90206 -0.525,-10.422 -11.02026,-0.19074 -22.76472,0.34272 -33.391,-0.242 0.19316,-10.02118 -0.38062,-20.80929 0.243,-30.4 11.93182,-0.23451 24.77108,0.43842 36.177,-0.322 -0.50236,-3.26086 1.03986,-8.38318 -0.767,-10.46 -15.72333,0 -31.44667,0 -47.17,0 -0.19194,31.94358 -0.0247,63.90767 -0.081,95.859 16.2739,0.22202 32.5526,0.11636 48.828,0.158 z"
   id="path16"
   inkscape:connector-curvature="0" />
</g>
<g
   id="LWPOLYLINE_5_"
   style="stroke:none;fill:#000000;fill-opacity:1">
	
		<path
   style="fill:#000000;fill-opacity:1;stroke:none"
   d="m 168.591,614.861 c -2.48391,13.26173 5.19929,28.78341 19.684,30.038 14.70085,3.14993 34.38685,-3.11158 36.1703,-20.19838 3.26715,-14.17615 -6.584,-27.14845 -19.0913,-32.67862 -9.60615,-5.22616 -24.78841,-11.04456 -22.472,-24.662 1.60178,-14.57022 26.88783,-15.36356 28.189,-0.162 0.67725,3.19628 -0.55535,7.62331 4.066,6.268 3.61453,-0.60146 10.80149,2.23897 8.912,-4.082 0.65757,-12.82298 -10.37213,-23.8186 -23.222,-23.162 -14.68076,-1.9944 -31.15953,8.31644 -30.558,24.293 -1.46973,16.45403 14.67093,25.26606 27.324,31.288 8.99446,3.7726 18.15423,12.70063 14.024,23.289 -4.62915,14.72742 -30.79772,12.13588 -31.202,-4.046 1.30746,-9.1469 -3.89445,-5.71107 -11.824,-6.185 z"
   id="path19"
   inkscape:connector-curvature="0" />
</g>
<g
   id="LWPOLYLINE_6_"
   style="stroke:none;fill:#000000;fill-opacity:1">
	
		<path
   style="fill:#000000;fill-opacity:1;stroke:none"
   d="m 233.162,547.803 c 0.45203,3.39425 -0.93925,8.44389 0.688,10.785 7.98367,0 15.96733,0 23.951,0 0.68034,28.27703 -0.44025,57.31933 0.546,85.243 3.86192,-0.4211 8.94745,0.85634 12.06,-0.605 0,-28.17233 0,-56.34467 0,-84.517 7.87923,-0.55512 16.43449,0.47008 24.011,-0.445 0,-3.45967 0,-6.91933 0,-10.379 -20.41828,-0.11069 -40.83742,-0.0617 -61.256,-0.082 z"
   id="path22"
   inkscape:connector-curvature="0" />
</g>

<g
   id="LWPOLYLINE_8_"
   style="stroke:none;fill:#000000;fill-opacity:1">
	
		
</g>
<g
   id="LWPOLYLINE_9_"
   style="stroke:none;fill:#000000;fill-opacity:1">
	
		
</g>

<g
   id="LWPOLYLINE_11_">
	
		<path
   d="m 303.9375,145.5 c -47.67626,-0.75716 -93.01133,33.40259 -105.4375,79.4375 -14.08804,46.24579 7.07007,100.05404 48.9375,124.25 40.45807,25.24137 96.9404,19.29256 131.28125,-13.78125 35.43376,-31.95313 45.22213,-87.86262 22.96875,-130.03125 -18.19781,-36.26062 -57.14016,-60.21346 -97.75,-59.875 z m -1.96875,19.875 c 40.50146,-1.40723 79.17754,28.31287 88.3125,67.78125 10.44767,39.13884 -9.76105,83.49202 -46.15625,101.28125 -35.77815,18.99669 -83.62566,9.31209 -109.09375,-22.21875 -26.59442,-30.55378 -27.86142,-79.34501 -2.90625,-111.25 16.20088,-21.78489 42.70077,-35.26564 69.84375,-35.59375 z"
   id="polygon37"
   inkscape:connector-curvature="0" />
</g>
<g
   id="LINE">
	
		
</g>
<g
   id="LINE_1_">
	
		
</g>

<g
   id="LINE_3_">
	
		
</g>
<g
   id="LINE_4_">
	
		
</g>
<g
   id="LINE_5_">
	
		
</g>
<g
   id="LWPOLYLINE_12_">
	
		
</g>
</svg>