<?xml version="1.0" encoding="UTF-8" standalone="no"?>
<!-- Generator: Adobe Illustrator 16.0.1, SVG Export Plug-In . SVG Version: 6.00 Build 0)  -->

<svg
   xmlns:dc="http://purl.org/dc/elements/1.1/"
   xmlns:cc="http://creativecommons.org/ns#"
   xmlns:rdf="http://www.w3.org/1999/02/22-rdf-syntax-ns#"
   xmlns:svg="http://www.w3.org/2000/svg"
   xmlns="http://www.w3.org/2000/svg"
   xmlns:sodipodi="http://sodipodi.sourceforge.net/DTD/sodipodi-0.dtd"
   xmlns:inkscape="http://www.inkscape.org/namespaces/inkscape"
   version="1.0"
   id="_x31_"
   x="0px"
   y="0px"
   width="612px"
   height="792px"
   viewBox="0 0 612 792"
   enable-background="new 0 0 612 792"
   xml:space="preserve"
   inkscape:version="0.48.2 r9819"
   sodipodi:docname="7024.svg"><metadata
   id="metadata115"><rdf:RDF><cc:Work
       rdf:about=""><dc:format>image/svg+xml</dc:format><dc:type
         rdf:resource="http://purl.org/dc/dcmitype/StillImage" /></cc:Work></rdf:RDF></metadata><defs
   id="defs113" /><sodipodi:namedview
   pagecolor="#ffffff"
   bordercolor="#666666"
   borderopacity="1"
   objecttolerance="10"
   gridtolerance="10"
   guidetolerance="10"
   inkscape:pageopacity="0"
   inkscape:pageshadow="2"
   inkscape:window-width="1920"
   inkscape:window-height="1068"
   id="namedview111"
   showgrid="false"
   inkscape:zoom="0.70710678"
   inkscape:cx="-64.636955"
   inkscape:cy="159.28665"
   inkscape:window-x="0"
   inkscape:window-y="0"
   inkscape:window-maximized="1"
   inkscape:current-layer="_x31_" />
<g
   id="ARC"
   style="stroke:none;fill:#000000;fill-opacity:1">
	
		<path
   style="fill:#000000;stroke:none;stroke-width:0.70870000000000000;stroke-linecap:round;stroke-linejoin:round;stroke-miterlimit:10;fill-opacity:1"
   d="M 305.59375 145.5 L 305.1875 166.875 C 232.5105 171.5875 174.8885 228.885 169.75 301.5 L 148.34375 301.90625 L 148.34375 321.03125 L 170.53125 321.4375 C 175.23325 394.095 232.5525 451.7375 305.1875 456.875 L 305.59375 478.28125 L 324.71875 478.28125 L 325.125 456.875 C 397.7395 451.7375 455.00575 394.095 459.71875 321.4375 L 481.125 321.03125 L 481.125 301.90625 L 460.53125 301.5 C 455.37225 228.885 397.7805 171.5875 325.125 166.875 L 324.71875 145.5 L 305.59375 145.5 z M 305.1875 187.6875 L 305.1875 229.40625 C 267.00051 233.82325 237.10525 263.40524 232.28125 301.53125 L 190.59375 301.5 C 195.67174 240.37199 244.00751 192.329 305.1875 187.6875 z M 325.53125 187.6875 C 386.28425 192.328 434.62125 240.37199 439.71875 301.5 L 398 301.53125 C 393.14499 263.40524 363.281 233.82425 325.5 229.40625 L 325.53125 187.6875 z M 305.21875 250.28125 L 305.59375 301.90625 L 253.625 301.5625 C 257.799 274.964 278.52925 254.48575 305.21875 250.28125 z M 325.0625 250.28125 C 351.7315 254.48525 372.49225 274.9635 376.65625 301.5625 L 324.71875 301.90625 L 325.0625 250.28125 z M 305.59375 321.03125 L 305.25 373 C 278.642 368.816 258.14325 348.08675 253.96875 321.40625 L 305.59375 321.03125 z M 191.375 321.84375 L 233.0625 321.84375 C 237.47 359.59276 267.06251 389.47901 305.1875 394.3125 L 305.1875 436.03125 C 244.04851 430.97375 196.005 382.58676 191.375 321.84375 z M 397.1875 321.84375 L 438.90625 321.84375 C 434.25424 382.58576 386.2425 430.97375 325.125 436.03125 L 325.09375 394.3125 C 363.19875 389.47801 392.79949 359.59276 397.1875 321.84375 z "
   id="path22" />
</g><g
   id="LWPOLYLINE"
   style="stroke:none;fill:#000000;fill-opacity:1">
	
		<path
   style="fill:#000000;fill-opacity:1;stroke:none"
   d="m 58.474,643.834 c 4.598023,-0.44141 10.398438,0.89424 14.278,-0.609 6.337132,-27.74368 12.618741,-55.50125 18.971,-83.241 6.37783,27.86565 11.93466,56.19783 18.562,83.85 4.51933,-0.49657 10.3746,1.00251 14.094,-0.689 8.21943,-31.88052 16.49547,-63.74866 24.72,-95.628 -3.95946,0.0101 -9.20432,-0.86819 -12.567,0.406 -6.29291,27.49482 -12.64004,54.97871 -18.95,82.469 -5.86187,-27.5765 -10.79572,-55.74122 -16.937,-83.037 -5.074824,0.42096 -11.262021,-0.84386 -15.683,0.568 -6.324823,27.48915 -12.63502,54.98259 -18.97,82.469 -6.077941,-27.59798 -11.425082,-55.62688 -17.69,-83.037 -4.03,0 -8.06,0 -12.09,0 7.223039,32.20421 14.8277,64.32287 22.262,96.479 z"
   id="path4"
   inkscape:connector-curvature="0" />
</g>
<g
   id="LWPOLYLINE_1_"
   style="stroke:none;fill:#000000;fill-opacity:1">
	
		<path
   style="fill:#000000;fill-opacity:1;stroke:none"
   d="m 215.709,573.961 c 1.77955,-11.25131 -2.54269,-25.65285 -15.497,-27.46 -13.21611,-2.55735 -31.07804,-0.27659 -36.378,14.176 -5.32207,15.84458 -2.21071,32.91987 -2.99,49.317 -0.0749,13.79428 4.27536,32.21046 20.315,34.815 12.47098,2.43203 29.32279,0.27697 33.901,-13.608 1.79598,-5.12997 2.92739,-11.62464 1.97,-16.493 -3.97533,0 -7.95067,0 -11.926,0 0.26423,9.17789 -4.26948,21.27814 -15.171,20.799 -10.52974,1.40212 -16.27496,-9.38415 -16.28557,-18.51893 -0.36041,-16.68694 -1.36788,-33.60674 0.97057,-50.17207 2.05814,-13.34255 25.90882,-15.77509 28.569,-1.585 1.72149,3.18394 -1.31925,10.2528 4.19837,8.729 2.77418,7e-4 5.55113,-0.001 8.32363,10e-4 z"
   id="path7"
   inkscape:connector-curvature="0" />
</g>
<g
   id="LWPOLYLINE_2_"
   style="stroke:none;fill:#000000;fill-opacity:1">
	
		<path
   style="fill:#000000;fill-opacity:1;stroke:none"
   d="m 230.699,614.707 c -2.27181,12.66256 4.26426,27.83319 18.118,29.863 14.32681,3.36135 34.08094,-1.12538 37.554,-17.587 3.81724,-13.27598 -3.26603,-27.49601 -15.579,-33.397 -9.56201,-6.24128 -25.34002,-10.07169 -25.959,-23.77 -1.50987,-14.92276 22.98325,-19.89233 27.725,-6.049 2.336,3.08851 -1.00856,10.69039 4.492,9.338 3.14918,-0.8969 10.13651,2.30052 9.446,-2.764 0.8241,-12.22007 -8.26972,-24.25249 -21.062,-24.413 -13.93276,-2.1909 -31.10743,4.98938 -32.703,20.562 -3.10354,13.79736 7.32655,25.74237 19.255,30.959 9.41619,5.21235 24.4933,10.51653 22.667,23.932 -0.46384,16.71852 -28.62563,18.12355 -31.606,2.03 0.0573,-7.35342 -0.85957,-11.85982 -10.52945,-8.7013 l -1.81855,-0.003 0,0 z"
   id="path10"
   inkscape:connector-curvature="0" />
</g>
<g
   id="LWPOLYLINE_3_"
   style="stroke:none;fill:#000000;fill-opacity:1">
	
		<path
   style="fill:#000000;fill-opacity:1;stroke:none"
   d="m 354.663,557.307 c 8.65689,28.54957 17.04313,57.32479 25.958,85.716 3.75316,-0.40869 8.56072,0.84021 11.652,-0.609 8.48729,-28.32235 17.06342,-56.62375 25.55,-84.945 0.31916,28.44422 -0.43781,57.44992 0.366,85.554 3.57308,-0.45747 8.79804,0.94253 11.327,-0.689 -0.22368,-31.88038 0.43902,-64.2522 -0.325,-95.833 -6.53633,0 -13.07267,0 -19.609,0 -7.78037,26.84443 -15.50017,53.71061 -23.271,80.559 -8.11371,-26.72083 -15.25143,-54.15999 -23.638,-80.559 -6.27167,0 -12.54333,0 -18.815,0 0.19512,32.12233 -0.38326,64.64255 0.284,96.522 3.478,0 6.956,0 10.434,0 0.11977,-28.57169 0.0655,-57.14406 0.087,-85.716 z"
   id="path13"
   inkscape:connector-curvature="0" />
</g>
<g
   id="LWPOLYLINE_4_"
   style="stroke:none;fill:#000000;fill-opacity:1">
	
		<path
   style="fill:#000000;fill-opacity:1;stroke:none"
   d="m 505.256,573.109 c 1.7393,-11.24906 -2.54756,-25.63765 -15.515,-27.421 -13.19402,-2.57184 -31.08711,-0.32741 -36.362,14.135 -5.3417,15.83618 -2.22331,32.92292 -3.005,49.319 -0.11612,13.7986 4.27448,32.23112 20.313,34.812 12.47757,2.48213 29.35375,0.28937 33.925,-13.608 1.75138,-5.11996 2.9411,-11.63503 1.949,-16.452 -3.98133,0 -7.96267,0 -11.944,0 0.30633,9.19697 -4.26997,21.22511 -15.153,20.8 -9.98989,1.28821 -16.00551,-8.54626 -16.158,-17.425 -0.62489,-16.77415 -1.33215,-33.76627 0.69,-50.453 1.20006,-13.62473 25.1398,-16.99989 28.5,-3.086 2.05386,3.27165 -1.28301,10.82716 4.39625,9.379 2.78791,0 5.57583,0 8.36375,0 z"
   id="path16"
   inkscape:connector-curvature="0" />
</g>
<g
   id="LWPOLYLINE_5_"
   style="stroke:none;fill:#000000;fill-opacity:1">
	
		<path
   style="fill:#000000;fill-opacity:1;stroke:none"
   d="m 520.206,613.895 c -2.19886,12.64889 4.27121,27.80218 18.117,29.822 14.31515,3.43999 34.07421,-1.13794 37.578,-17.547 3.8201,-13.2755 -3.26539,-27.52791 -15.601,-33.397 -9.67052,-6.34373 -26.06514,-10.37523 -25.919,-24.541 -0.77782,-15.06762 24.72709,-18.82969 28.054,-4.101 1.69271,3.27597 -0.95123,9.73918 4.547,8.161 3.66624,-0.58726 10.8847,2.23571 8.972,-4.145 0.48056,-12.33569 -9.61343,-23.39554 -22.179,-23.154 -14.08854,-1.95967 -30.85949,6.23131 -31.728,21.853 -2.60035,14.2786 9.07776,25.38114 21.045,30.635 9.35709,4.75726 23.50672,10.87934 20.963,23.847 -1.36909,16.52069 -29.5523,16.81548 -31.668,0.447 1.43944,-8.8162 -3.79415,-9.53298 -12.181,-7.88 l 0,0 z"
   id="path19"
   inkscape:connector-curvature="0" />
</g>

<g
   id="ARC_1_">
	
		
</g>
<g
   id="ARC_2_">
	
		
</g>
<g
   id="ARC_3_">
	
		
</g>
<g
   id="ARC_4_">
	
		
</g>
<g
   id="ARC_5_">
	
		
</g>
<g
   id="ARC_6_">
	
		
</g>
<g
   id="ARC_7_">
	
		
</g>
<g
   id="ARC_8_">
	
		
</g>
<g
   id="ARC_9_">
	
		
</g>
<g
   id="ARC_10_">
	
		
</g>
<g
   id="ARC_11_">
	
		
</g>
<g
   id="ARC_12_">
	
		
</g>
<g
   id="ARC_13_">
	
		
</g>
<g
   id="ARC_14_">
	
		
</g>
<g
   id="LINE">
	
		
</g>
<g
   id="LINE_1_">
	
		
</g>
<g
   id="LINE_2_">
	
		
</g>
<g
   id="LINE_3_">
	
		
</g>
<g
   id="LINE_4_">
	
		
</g>
<g
   id="LINE_5_">
	
		
</g>
<g
   id="LINE_6_">
	
		
</g>
<g
   id="LINE_7_">
	
		
</g>
<g
   id="LWPOLYLINE_6_">
	
		
</g>
<g
   id="LWPOLYLINE_7_">
	
		
</g>
<g
   id="LWPOLYLINE_8_">
	
		
</g>
<g
   id="LWPOLYLINE_9_">
	
		
</g>
<g
   id="LWPOLYLINE_10_">
	
		
</g>
<g
   id="LWPOLYLINE_11_">
	
		
</g>
<g
   id="LWPOLYLINE_12_">
	
		
</g>
</svg>