<?xml version="1.0" encoding="UTF-8" standalone="no"?>
<!-- Generator: Adobe Illustrator 16.0.1, SVG Export Plug-In . SVG Version: 6.00 Build 0)  -->

<svg
   xmlns:dc="http://purl.org/dc/elements/1.1/"
   xmlns:cc="http://creativecommons.org/ns#"
   xmlns:rdf="http://www.w3.org/1999/02/22-rdf-syntax-ns#"
   xmlns:svg="http://www.w3.org/2000/svg"
   xmlns="http://www.w3.org/2000/svg"
   xmlns:sodipodi="http://sodipodi.sourceforge.net/DTD/sodipodi-0.dtd"
   xmlns:inkscape="http://www.inkscape.org/namespaces/inkscape"
   version="1.0"
   id="_x31_"
   x="0px"
   y="0px"
   width="612px"
   height="792px"
   viewBox="0 0 612 792"
   enable-background="new 0 0 612 792"
   xml:space="preserve"
   inkscape:version="0.48.2 r9819"
   sodipodi:docname="7029.svg"><metadata
   id="metadata40"><rdf:RDF><cc:Work
       rdf:about=""><dc:format>image/svg+xml</dc:format><dc:type
         rdf:resource="http://purl.org/dc/dcmitype/StillImage" /></cc:Work></rdf:RDF></metadata><defs
   id="defs38" /><sodipodi:namedview
   pagecolor="#ffffff"
   bordercolor="#666666"
   borderopacity="1"
   objecttolerance="10"
   gridtolerance="10"
   guidetolerance="10"
   inkscape:pageopacity="0"
   inkscape:pageshadow="2"
   inkscape:window-width="1920"
   inkscape:window-height="1068"
   id="namedview36"
   showgrid="false"
   inkscape:zoom="0.84281414"
   inkscape:cx="69.790668"
   inkscape:cy="427.4368"
   inkscape:window-x="0"
   inkscape:window-y="0"
   inkscape:window-maximized="1"
   inkscape:current-layer="_x31_" />
<g
   id="LWPOLYLINE_4_"
   style="stroke:none;stroke-opacity:1;fill:#000000;fill-opacity:1">
	
		<path
   style="stroke:none;stroke-opacity:1;fill:#000000;fill-opacity:1"
   d="M 208.65625 542.875 C 208.53625 542.875 177.0625 644.25 177.0625 644.25 L 177.4375 644.25 L 177.875 644.25 L 178.125 644.25 L 178.4375 644.25 L 178.78125 644.25 L 179.09375 644.25 L 179.5 644.25 L 179.90625 644.25 L 180.3125 644.25 L 180.78125 644.25 L 181.21875 644.25 L 181.6875 644.25 L 182.15625 644.25 L 182.65625 644.25 L 183.125 644.25 L 183.625 644.25 L 184.125 644.25 L 184.625 644.25 L 185.09375 644.25 L 185.5625 644.25 L 186.03125 644.25 L 186.5 644.25 L 186.90625 644.25 L 187.34375 644.25 L 187.75 644.25 L 188.125 644.25 L 188.5 644.25 L 188.8125 644.25 L 189.125 644.25 L 189.40625 644.25 L 189.59375 644.25 L 189.96875 644.25 C 190.18275 644.25 190.21875 644.21875 190.21875 644.21875 C 190.26175 644.09175 190.3125 643.875 190.3125 643.875 L 190.40625 643.5625 L 190.53125 643.21875 L 190.65625 642.75 L 190.8125 642.28125 L 191 641.71875 L 191.1875 641.09375 L 191.40625 640.4375 L 191.625 639.71875 L 191.875 638.96875 L 192.125 638.1875 L 192.40625 637.375 L 192.65625 636.53125 L 192.96875 635.625 L 193.21875 634.78125 L 193.53125 633.84375 L 193.8125 632.9375 L 194.09375 632.03125 L 194.40625 631.09375 L 194.71875 630.21875 L 194.96875 629.3125 L 195.28125 628.40625 L 195.5625 627.53125 L 195.84375 626.65625 L 196.09375 625.84375 L 196.34375 625.09375 L 196.59375 624.3125 L 196.8125 623.59375 L 197.03125 622.9375 L 197.21875 622.34375 L 197.40625 621.75 L 197.5625 621.28125 L 197.71875 620.84375 L 197.8125 620.46875 L 197.9375 620.1875 C 198.0005 619.9745 198.03125 619.84375 198.03125 619.84375 C 198.11625 619.80075 198.3125 619.78125 198.3125 619.78125 L 198.65625 619.78125 L 199.09375 619.78125 L 199.65625 619.78125 L 200.3125 619.78125 L 201.09375 619.78125 L 201.96875 619.78125 L 202.90625 619.78125 L 203.90625 619.78125 L 205 619.78125 L 206.15625 619.78125 L 207.375 619.78125 L 208.625 619.78125 L 209.9375 619.78125 L 211.25 619.78125 L 212.625 619.78125 L 214 619.78125 L 215.4375 619.78125 L 216.84375 619.78125 L 218.25 619.78125 L 219.65625 619.78125 L 221.03125 619.78125 L 222.40625 619.78125 L 223.71875 619.78125 L 225.03125 619.78125 L 226.3125 619.78125 L 227.5 619.78125 L 228.65625 619.78125 L 229.75 619.78125 L 230.78125 619.78125 L 231.71875 619.78125 L 232.59375 619.78125 L 233.34375 619.78125 L 234 619.78125 L 234.5625 619.78125 L 235 619.78125 L 235.34375 619.78125 L 235.625 619.78125 C 235.668 619.95325 235.75 620.1875 235.75 620.1875 L 235.8125 620.46875 L 235.9375 620.84375 L 236.0625 621.28125 L 236.1875 621.75 L 236.34375 622.34375 L 236.53125 622.9375 L 236.71875 623.59375 L 236.90625 624.3125 L 237.15625 625.09375 L 237.375 625.84375 L 237.59375 626.65625 L 237.8125 627.53125 L 238.09375 628.40625 L 238.34375 629.3125 L 238.59375 630.21875 L 238.84375 631.09375 L 239.125 632.03125 L 239.375 632.9375 L 239.65625 633.84375 L 239.90625 634.78125 L 240.15625 635.625 L 240.40625 636.53125 L 240.65625 637.375 L 240.875 638.1875 L 241.125 638.96875 L 241.3125 639.71875 L 241.53125 640.4375 L 241.71875 641.09375 L 241.875 641.71875 L 242.0625 642.28125 L 242.1875 642.75 L 242.3125 643.21875 L 242.40625 643.5625 L 242.5 643.875 C 242.564 644.09 242.59375 644.21875 242.59375 644.21875 C 242.70075 644.26175 242.875 644.25 242.875 644.25 L 243.25 644.25 L 243.53125 644.25 L 243.8125 644.25 L 244.15625 644.25 L 244.53125 644.25 L 244.9375 644.25 L 245.375 644.25 L 245.84375 644.25 L 246.3125 644.25 L 246.8125 644.25 L 247.3125 644.25 L 247.84375 644.25 L 248.40625 644.25 L 248.9375 644.25 L 249.46875 644.25 L 250.0625 644.25 L 250.625 644.25 L 251.15625 644.25 L 251.6875 644.25 L 252.25 644.25 L 252.78125 644.25 L 253.3125 644.25 L 253.78125 644.25 L 254.25 644.25 L 254.71875 644.25 L 255.15625 644.25 L 255.5625 644.25 L 255.9375 644.25 L 256.28125 644.25 L 256.5625 644.25 L 256.84375 644.25 L 257.0625 644.25 L 257.375 644.25 C 257.418 644.08 257.25 643.53125 257.25 643.53125 L 256.9375 642.625 L 256.5625 641.4375 L 256.09375 639.90625 L 255.53125 638.09375 L 254.84375 636.0625 L 254.125 633.71875 L 253.3125 631.1875 L 252.4375 628.40625 L 251.5 625.46875 L 250.46875 622.34375 L 249.46875 619.125 L 248.375 615.6875 L 247.25 612.1875 L 246.09375 608.5625 L 244.90625 604.90625 L 243.71875 601.15625 L 242.53125 597.375 L 241.3125 593.53125 L 240.09375 589.75 L 238.90625 586 L 237.6875 582.21875 L 236.53125 578.5625 L 235.375 574.9375 L 234.25 571.4375 L 233.15625 568.03125 L 232.125 564.78125 L 231.125 561.65625 L 230.1875 558.71875 L 229.3125 555.9375 L 228.5 553.4375 L 227.75 551.0625 L 227.09375 549.03125 L 226.53125 547.21875 L 226.0625 545.6875 L 225.65625 544.5 L 225.375 543.59375 L 225.1875 543.0625 C 225.0165 542.8925 224.875 542.875 224.875 542.875 L 224.4375 542.875 L 224.125 542.875 L 223.78125 542.875 L 223.40625 542.875 L 223 542.875 L 222.5625 542.875 L 222.0625 542.875 L 221.53125 542.875 L 221 542.875 L 220.46875 542.875 L 219.875 542.875 L 219.28125 542.875 L 218.6875 542.875 L 218.0625 542.875 L 217.4375 542.875 L 216.84375 542.875 L 216.21875 542.875 L 215.59375 542.875 L 214.96875 542.875 L 214.375 542.875 L 213.78125 542.875 L 213.1875 542.875 L 212.65625 542.875 L 212.125 542.875 L 211.59375 542.875 L 211.125 542.875 L 210.65625 542.875 L 210.25 542.875 L 209.875 542.875 L 209.53125 542.875 L 209.21875 542.875 L 209 542.875 L 208.65625 542.875 z M 216.375 555.21875 C 216.42 555.09275 232.125 608.4375 232.125 608.4375 L 231.90625 608.4375 L 231.625 608.4375 L 231.25 608.4375 L 230.78125 608.4375 L 230.21875 608.4375 L 229.5625 608.4375 L 228.875 608.4375 L 228.0625 608.4375 L 227.21875 608.4375 L 226.3125 608.4375 L 225.34375 608.4375 L 224.3125 608.4375 L 223.25 608.4375 L 222.1875 608.4375 L 221.0625 608.4375 L 219.90625 608.4375 L 218.75 608.4375 L 217.59375 608.4375 L 216.40625 608.4375 L 215.21875 608.4375 L 214.03125 608.4375 L 212.90625 608.4375 L 211.75 608.4375 L 210.625 608.4375 L 209.53125 608.4375 L 208.46875 608.4375 L 207.46875 608.4375 L 206.5 608.4375 L 205.59375 608.4375 L 204.75 608.4375 L 203.9375 608.4375 L 203.21875 608.4375 L 202.59375 608.4375 L 202.03125 608.4375 L 201.5625 608.4375 L 201.1875 608.4375 L 200.90625 608.4375 L 200.65625 608.4375 C 200.69925 608.3105 200.78125 608.0625 200.78125 608.0625 L 200.90625 607.59375 L 201.125 606.9375 L 201.34375 606.125 L 201.625 605.1875 L 201.9375 604.09375 L 202.3125 602.875 L 202.71875 601.53125 L 203.125 600.0625 L 203.59375 598.53125 L 204.0625 596.90625 L 204.5625 595.21875 L 205.09375 593.40625 L 205.65625 591.53125 L 206.21875 589.65625 L 206.78125 587.75 L 207.375 585.71875 L 207.9375 583.78125 L 208.53125 581.75 L 209.125 579.75 L 209.71875 577.78125 L 210.28125 575.78125 L 210.875 573.875 L 211.40625 572 L 211.96875 570.125 L 212.5 568.3125 L 213 566.625 L 213.5 565 L 213.9375 563.4375 L 214.375 562 L 214.78125 560.625 L 215.125 559.4375 L 215.4375 558.34375 L 215.71875 557.40625 L 215.96875 556.59375 L 216.15625 555.9375 L 216.28125 555.46875 L 216.375 555.21875 z "
   id="path16" />
</g><g
   id="LWPOLYLINE_1_"
   style="stroke:none;stroke-opacity:1;fill:#000000;fill-opacity:1">
	
		<path
   style="stroke:none;stroke-opacity:1;fill:#000000;fill-opacity:1"
   d="M 234 401.25 C 233.829 401.377 233.6875 401.71875 233.6875 401.71875 L 233.40625 402.28125 L 233.0625 403.09375 L 232.65625 404.03125 L 232.1875 405.21875 L 231.59375 406.53125 L 230.96875 408.03125 L 230.25 409.65625 L 229.5 411.4375 L 228.6875 413.3125 L 227.8125 415.34375 L 226.9375 417.4375 L 226 419.59375 L 225.03125 421.875 L 224.03125 424.15625 L 223 426.5625 L 221.96875 428.9375 L 220.9375 431.375 L 219.875 433.8125 L 218.84375 436.28125 L 217.78125 438.71875 L 216.78125 441.125 L 215.75 443.5 L 214.75 445.8125 L 213.78125 448.0625 L 212.84375 450.25 L 211.9375 452.34375 L 211.09375 454.34375 L 210.28125 456.21875 L 209.5 458.03125 L 208.8125 459.65625 L 208.15625 461.125 L 207.625 462.46875 L 207.09375 463.625 L 206.6875 464.59375 L 206.34375 465.40625 L 206.125 465.96875 L 205.9375 466.3125 C 205.8945 466.5255 205.90625 466.59375 205.90625 466.59375 L 205.90625 466.90625 L 205.90625 467.3125 L 205.90625 467.59375 L 205.90625 467.84375 L 205.90625 468.125 L 205.90625 468.4375 L 205.90625 468.78125 L 205.90625 469.125 L 205.90625 469.5 L 205.90625 469.875 L 205.90625 470.28125 L 205.90625 470.65625 L 205.90625 471.03125 L 205.90625 471.46875 L 205.90625 471.84375 L 205.90625 472.28125 L 205.90625 472.65625 L 205.90625 473.09375 L 205.90625 473.46875 L 205.90625 473.875 L 205.90625 474.25 L 205.90625 474.59375 L 205.90625 474.96875 L 205.90625 475.28125 L 205.90625 475.625 L 205.90625 475.90625 L 205.90625 476.15625 L 205.90625 476.4375 L 205.90625 476.625 L 205.90625 477.03125 L 205.90625 477.21875 C 205.90825 477.30475 238.375 477.3125 238.375 477.3125 L 238.375 477.71875 L 238.375 478 L 238.375 478.375 L 238.375 478.84375 L 238.375 479.375 L 238.375 479.9375 L 238.375 480.5625 L 238.375 481.25 L 238.375 482.03125 L 238.375 482.78125 L 238.375 483.59375 L 238.375 484.4375 L 238.375 485.34375 L 238.375 486.25 L 238.375 487.125 L 238.375 488.0625 L 238.375 489.03125 L 238.375 490 L 238.375 490.9375 L 238.375 491.875 L 238.375 492.8125 L 238.375 493.75 L 238.375 494.65625 L 238.375 495.5 L 238.375 496.34375 L 238.375 497.15625 L 238.375 497.96875 L 238.375 498.71875 L 238.375 499.375 L 238.375 500.03125 L 238.375 500.59375 L 238.375 501.09375 L 238.375 501.5625 L 238.375 501.9375 L 238.375 502.25 L 238.375 502.46875 C 238.588 502.68175 238.71875 502.6875 238.71875 502.6875 L 239.125 502.6875 L 239.40625 502.6875 L 239.6875 502.6875 L 240 502.6875 L 240.34375 502.6875 L 240.71875 502.6875 L 241.09375 502.6875 L 241.5 502.6875 L 241.9375 502.6875 L 242.375 502.6875 L 242.84375 502.6875 L 243.28125 502.6875 L 243.75 502.6875 L 244.21875 502.6875 L 244.6875 502.6875 L 245.15625 502.6875 L 245.65625 502.6875 L 246.09375 502.6875 L 246.5625 502.6875 L 247 502.6875 L 247.4375 502.6875 L 247.875 502.6875 L 248.28125 502.6875 L 248.6875 502.6875 L 249.03125 502.6875 L 249.375 502.6875 L 249.6875 502.6875 L 249.96875 502.6875 L 250.21875 502.6875 L 250.46875 502.6875 L 250.8125 502.6875 C 251.0045 502.4745 251 502.25 251 502.25 L 251 501.9375 L 251 501.5625 L 251 501.09375 L 251 500.59375 L 251 500.03125 L 251 499.375 L 251 498.71875 L 251 497.96875 L 251 497.15625 L 251 496.34375 L 251 495.5 L 251 494.65625 L 251 493.75 L 251 492.8125 L 251 491.875 L 251 490.9375 L 251 490 L 251 489.03125 L 251 488.0625 L 251 487.125 L 251 486.25 L 251 485.34375 L 251 484.4375 L 251 483.59375 L 251 482.78125 L 251 482.03125 L 251 481.25 L 251 480.5625 L 251 479.9375 L 251 479.375 L 251 478.84375 L 251 478.375 L 251 478 L 251 477.71875 L 251 477.5 C 251.191 477.33 251.3125 477.3125 251.3125 477.3125 L 251.71875 477.3125 L 251.96875 477.3125 L 252.21875 477.3125 L 252.53125 477.3125 L 252.84375 477.3125 L 253.1875 477.3125 L 253.53125 477.3125 L 253.90625 477.3125 L 254.3125 477.3125 L 254.71875 477.3125 L 255.125 477.3125 L 255.5625 477.3125 L 256 477.3125 L 256.4375 477.3125 L 256.875 477.3125 L 257.28125 477.3125 L 257.75 477.3125 L 258.15625 477.3125 L 258.59375 477.3125 L 259.03125 477.3125 L 259.4375 477.3125 L 259.8125 477.3125 L 260.1875 477.3125 L 260.5625 477.3125 L 260.90625 477.3125 L 261.21875 477.3125 L 261.5 477.3125 L 261.78125 477.3125 L 262 477.3125 L 262.40625 477.3125 L 262.625 477.3125 C 262.71 477.1425 262.71875 477.03125 262.71875 477.03125 L 262.71875 476.625 L 262.71875 476.4375 L 262.71875 476.15625 L 262.71875 475.90625 L 262.71875 475.625 L 262.71875 475.28125 L 262.71875 474.96875 L 262.71875 474.59375 L 262.71875 474.25 L 262.71875 473.875 L 262.71875 473.46875 L 262.71875 473.09375 L 262.71875 472.65625 L 262.71875 472.28125 L 262.71875 471.84375 L 262.71875 471.46875 L 262.71875 471.03125 L 262.71875 470.65625 L 262.71875 470.28125 L 262.71875 469.875 L 262.71875 469.5 L 262.71875 469.125 L 262.71875 468.78125 L 262.71875 468.4375 L 262.71875 468.125 L 262.71875 467.84375 L 262.71875 467.59375 L 262.71875 467.3125 L 262.71875 467.125 L 262.71875 466.71875 L 262.71875 466.5 C 262.54775 466.414 262.40625 466.4375 262.40625 466.4375 L 262 466.4375 L 261.78125 466.4375 L 261.5 466.4375 L 261.21875 466.4375 L 260.90625 466.4375 L 260.5625 466.4375 L 260.1875 466.4375 L 259.8125 466.4375 L 259.4375 466.4375 L 259.03125 466.4375 L 258.59375 466.4375 L 258.15625 466.4375 L 257.75 466.4375 L 257.28125 466.4375 L 256.875 466.4375 L 256.4375 466.4375 L 256 466.4375 L 255.5625 466.4375 L 255.125 466.4375 L 254.71875 466.4375 L 254.3125 466.4375 L 253.90625 466.4375 L 253.53125 466.4375 L 253.1875 466.4375 L 252.84375 466.4375 L 252.53125 466.4375 L 252.21875 466.4375 L 251.96875 466.4375 L 251.71875 466.4375 L 251.3125 466.4375 L 251.09375 466.4375 C 251.00875 466.3105 251 465.96875 251 465.96875 L 251 465.40625 L 251 464.59375 L 251 463.625 L 251 462.46875 L 251 461.125 L 251 459.65625 L 251 458.03125 L 251 456.21875 L 251 454.34375 L 251 452.34375 L 251 450.25 L 251 448.0625 L 251 445.8125 L 251 443.5 L 251 441.125 L 251 438.71875 L 251 436.28125 L 251 433.8125 L 251 431.375 L 251 428.9375 L 251 426.5625 L 251 424.15625 L 251 421.875 L 251 419.59375 L 251 417.4375 L 251 415.34375 L 251 413.3125 L 251 411.4375 L 251 409.65625 L 251 408.03125 L 251 406.53125 L 251 405.21875 L 251 404.03125 L 251 403.09375 L 251 402.28125 L 251 401.71875 L 251 401.375 C 250.872 401.248 250.71875 401.25 250.71875 401.25 L 250.28125 401.25 L 249.96875 401.25 L 249.625 401.25 L 249.21875 401.25 L 248.78125 401.25 L 248.34375 401.25 L 247.8125 401.25 L 247.3125 401.25 L 246.75 401.25 L 246.1875 401.25 L 245.59375 401.25 L 244.96875 401.25 L 244.34375 401.25 L 243.71875 401.25 L 243.09375 401.25 L 242.4375 401.25 L 241.8125 401.25 L 241.15625 401.25 L 240.53125 401.25 L 239.90625 401.25 L 239.28125 401.25 L 238.6875 401.25 L 238.125 401.25 L 237.5625 401.25 L 237.03125 401.25 L 236.5625 401.25 L 236.09375 401.25 L 235.65625 401.25 L 235.25 401.25 L 234.90625 401.25 L 234.625 401.25 L 234.34375 401.25 L 234 401.25 z M 238.34375 414.03125 C 238.36475 414.03125 238.375 414.3125 238.375 414.3125 L 238.375 414.78125 L 238.375 415.375 L 238.375 416.1875 L 238.375 417.125 L 238.375 418.21875 L 238.375 419.40625 L 238.375 420.71875 L 238.375 422.125 L 238.375 423.65625 L 238.375 425.28125 L 238.375 426.96875 L 238.375 428.71875 L 238.375 430.53125 L 238.375 432.40625 L 238.375 434.34375 L 238.375 436.25 L 238.375 438.21875 L 238.375 440.1875 L 238.375 442.15625 L 238.375 444.125 L 238.375 446.03125 L 238.375 447.96875 L 238.375 449.84375 L 238.375 451.625 L 238.375 453.40625 L 238.375 455.09375 L 238.375 456.71875 L 238.375 458.25 L 238.375 459.65625 L 238.375 460.96875 L 238.375 462.15625 L 238.375 463.21875 L 238.375 464.1875 L 238.375 464.96875 L 238.375 465.59375 L 238.375 466.0625 L 238.375 466.34375 C 238.371 466.42775 217.625 466.4375 217.625 466.4375 C 217.668 466.3535 217.78125 466.0625 217.78125 466.0625 L 217.96875 465.59375 L 218.21875 464.96875 L 218.53125 464.1875 L 218.875 463.21875 L 219.3125 462.15625 L 219.8125 460.96875 L 220.3125 459.65625 L 220.875 458.25 L 221.5 456.71875 L 222.09375 455.09375 L 222.78125 453.40625 L 223.46875 451.625 L 224.1875 449.84375 L 224.9375 447.96875 L 225.6875 446.03125 L 226.46875 444.125 L 227.21875 442.15625 L 228 440.1875 L 228.78125 438.21875 L 229.5625 436.25 L 230.3125 434.34375 L 231.0625 432.40625 L 231.8125 430.53125 L 232.5625 428.71875 L 233.21875 426.96875 L 233.90625 425.28125 L 234.53125 423.65625 L 235.15625 422.125 L 235.71875 420.71875 L 236.21875 419.40625 L 236.71875 418.21875 L 237.125 417.125 L 237.5 416.1875 L 237.8125 415.375 L 238.0625 414.78125 L 238.21875 414.3125 L 238.34375 414.03125 z "
   id="path7" />
</g><g
   id="LWPOLYLINE_9_"
   style="stroke:none;stroke-opacity:1;fill:#000000;fill-opacity:1">
	
		<path
   style="stroke:none;stroke-opacity:1;fill:#000000;fill-opacity:1"
   d="M 320.625 146 C 320.411 146 320.3125 146.1875 320.3125 146.1875 L 319.90625 146.78125 L 319.28125 147.6875 L 318.375 148.9375 L 317.3125 150.46875 L 316.03125 152.34375 L 314.53125 154.4375 L 312.875 156.8125 L 311.03125 159.4375 L 309.0625 162.25 L 306.96875 165.28125 L 304.75 168.46875 L 302.40625 171.8125 L 299.96875 175.3125 L 297.46875 178.9375 L 294.875 182.625 L 292.25 186.40625 L 289.5625 190.25 L 286.84375 194.125 L 284.15625 198.03125 L 281.4375 201.90625 L 278.71875 205.8125 L 276.03125 209.625 L 273.40625 213.40625 L 270.8125 217.09375 L 268.3125 220.71875 L 265.875 224.21875 L 263.53125 227.5625 L 261.3125 230.75 L 259.1875 233.78125 L 257.21875 236.59375 L 255.40625 239.21875 L 253.75 241.59375 L 252.28125 243.71875 L 250.96875 245.5625 L 249.90625 247.125 L 249.03125 248.375 L 248.40625 249.28125 L 248 249.84375 C 247.872 250.03475 247.875 250.0625 247.875 250.0625 L 247.875 250.5 L 247.875 250.875 L 247.875 251.3125 L 247.875 251.8125 L 247.875 252.4375 L 247.875 253.09375 L 247.875 253.84375 L 247.875 254.65625 L 247.875 255.53125 L 247.875 256.4375 L 247.875 257.40625 L 247.875 258.40625 L 247.875 259.4375 L 247.875 260.5 L 247.875 261.5625 L 247.875 262.65625 L 247.875 263.78125 L 247.875 264.875 L 247.875 266 L 247.875 267.09375 L 247.875 268.21875 L 247.875 269.28125 L 247.875 270.34375 L 247.875 271.375 L 247.875 272.375 L 247.875 273.34375 L 247.875 274.21875 L 247.875 275.09375 L 247.875 275.90625 L 247.875 276.65625 L 247.875 277.3125 L 247.875 277.9375 L 247.875 278.46875 L 247.875 278.90625 L 247.875 279.28125 L 247.875 279.53125 C 248.024 279.74425 248.40625 279.75 248.40625 279.75 L 249.09375 279.75 L 250.03125 279.75 L 251.1875 279.75 L 252.53125 279.75 L 254.125 279.75 L 255.875 279.75 L 257.8125 279.75 L 259.875 279.75 L 262.125 279.75 L 264.5 279.75 L 266.96875 279.75 L 269.53125 279.75 L 272.21875 279.75 L 274.9375 279.75 L 277.75 279.75 L 280.5625 279.75 L 283.4375 279.75 L 286.3125 279.75 L 289.1875 279.75 L 292.09375 279.75 L 294.90625 279.75 L 297.71875 279.75 L 300.4375 279.75 L 303.125 279.75 L 305.6875 279.75 L 308.1875 279.75 L 310.53125 279.75 L 312.78125 279.75 L 314.875 279.75 L 316.78125 279.75 L 318.53125 279.75 L 320.125 279.75 L 321.5 279.75 L 322.65625 279.75 L 323.53125 279.75 L 324.21875 279.75 L 324.65625 279.75 C 324.78725 279.758 324.78125 315.59375 324.78125 315.59375 L 325.15625 315.59375 L 325.46875 315.59375 L 325.8125 315.59375 L 326.21875 315.59375 L 326.6875 315.59375 L 327.25 315.59375 L 327.84375 315.59375 L 328.5 315.59375 L 329.1875 315.59375 L 329.90625 315.59375 L 330.6875 315.59375 L 331.4375 315.59375 L 332.25 315.59375 L 333.09375 315.59375 L 333.96875 315.59375 L 334.8125 315.59375 L 335.71875 315.59375 L 336.59375 315.59375 L 337.5 315.59375 L 338.34375 315.59375 L 339.25 315.59375 L 340.09375 315.59375 L 340.90625 315.59375 L 341.78125 315.59375 L 342.53125 315.59375 L 343.3125 315.59375 L 344.03125 315.59375 L 344.71875 315.59375 L 345.375 315.59375 L 345.96875 315.59375 L 346.46875 315.59375 L 346.96875 315.59375 L 347.40625 315.59375 L 347.75 315.59375 L 348 315.59375 L 348.34375 315.59375 C 348.38675 315.52975 348.40625 315.34375 348.40625 315.34375 L 348.40625 315.03125 L 348.40625 314.59375 L 348.40625 314.0625 L 348.40625 313.4375 L 348.40625 312.6875 L 348.40625 311.875 L 348.40625 310.96875 L 348.40625 310 L 348.40625 308.9375 L 348.40625 307.84375 L 348.40625 306.6875 L 348.40625 305.46875 L 348.40625 304.25 L 348.40625 303 L 348.40625 301.6875 L 348.40625 300.375 L 348.40625 299.03125 L 348.40625 297.6875 L 348.40625 296.3125 L 348.40625 294.96875 L 348.40625 293.65625 L 348.40625 292.34375 L 348.40625 291.09375 L 348.40625 289.875 L 348.40625 288.65625 L 348.40625 287.5 L 348.40625 286.40625 L 348.40625 285.34375 L 348.40625 284.375 L 348.40625 283.46875 L 348.40625 282.65625 L 348.40625 281.9375 L 348.40625 281.28125 L 348.40625 280.75 L 348.40625 280.3125 L 348.40625 280 L 348.40625 279.75 L 348.78125 279.75 L 349.0625 279.75 L 349.46875 279.75 L 349.875 279.75 L 350.40625 279.75 L 350.96875 279.75 L 351.5625 279.75 L 352.25 279.75 L 352.96875 279.75 L 353.6875 279.75 L 354.5 279.75 L 355.3125 279.75 L 356.15625 279.75 L 357.03125 279.75 L 357.90625 279.75 L 358.8125 279.75 L 359.75 279.75 L 360.65625 279.75 L 361.53125 279.75 L 362.46875 279.75 L 363.375 279.75 L 364.28125 279.75 L 365.125 279.75 L 365.96875 279.75 L 366.78125 279.75 L 367.59375 279.75 L 368.3125 279.75 L 369.0625 279.75 L 369.75 279.75 L 370.34375 279.75 L 370.90625 279.75 L 371.40625 279.75 L 371.84375 279.75 L 372.21875 279.75 L 372.5 279.75 L 372.84375 279.75 C 372.88675 279.623 372.90625 279.4375 372.90625 279.4375 L 372.90625 279.1875 L 372.90625 278.90625 L 372.90625 278.53125 L 372.90625 278.125 L 372.90625 277.65625 L 372.90625 277.15625 L 372.90625 276.59375 L 372.90625 276.03125 L 372.90625 275.40625 L 372.90625 274.75 L 372.90625 274.09375 L 372.90625 273.375 L 372.90625 272.6875 L 372.90625 271.9375 L 372.90625 271.21875 L 372.90625 270.46875 L 372.90625 269.6875 L 372.90625 268.9375 L 372.90625 268.1875 L 372.90625 267.46875 L 372.90625 266.71875 L 372.90625 266 L 372.90625 265.3125 L 372.90625 264.625 L 372.90625 264 L 372.90625 263.375 L 372.90625 262.78125 L 372.90625 262.25 L 372.90625 261.71875 L 372.90625 261.28125 L 372.90625 260.84375 L 372.90625 260.5 L 372.90625 260.21875 L 372.90625 259.96875 L 372.90625 259.6875 C 372.73525 259.6445 372.5 259.625 372.5 259.625 L 372.21875 259.625 L 371.84375 259.625 L 371.40625 259.625 L 370.90625 259.625 L 370.34375 259.625 L 369.75 259.625 L 369.0625 259.625 L 368.3125 259.625 L 367.59375 259.625 L 366.78125 259.625 L 365.96875 259.625 L 365.125 259.625 L 364.28125 259.625 L 363.375 259.625 L 362.46875 259.625 L 361.53125 259.625 L 360.65625 259.625 L 359.75 259.625 L 358.8125 259.625 L 357.90625 259.625 L 357.03125 259.625 L 356.15625 259.625 L 355.3125 259.625 L 354.5 259.625 L 353.6875 259.625 L 352.96875 259.625 L 352.25 259.625 L 351.5625 259.625 L 350.96875 259.625 L 350.40625 259.625 L 349.875 259.625 L 349.46875 259.625 L 349.0625 259.625 L 348.78125 259.625 L 348.4375 259.625 C 348.3945 259.412 348.40625 258.8125 348.40625 258.8125 L 348.40625 257.8125 L 348.40625 256.46875 L 348.40625 254.75 L 348.40625 252.75 L 348.40625 250.40625 L 348.40625 247.8125 L 348.40625 244.96875 L 348.40625 241.875 L 348.40625 238.59375 L 348.40625 235.09375 L 348.40625 231.4375 L 348.40625 227.625 L 348.40625 223.6875 L 348.40625 219.65625 L 348.40625 215.5 L 348.40625 211.3125 L 348.40625 207.0625 L 348.40625 202.84375 L 348.40625 198.5625 L 348.40625 194.34375 L 348.40625 190.125 L 348.40625 186 L 348.40625 181.96875 L 348.40625 178.03125 L 348.40625 174.21875 L 348.40625 170.5625 L 348.40625 167.0625 L 348.40625 163.75 L 348.40625 160.6875 L 348.40625 157.8125 L 348.40625 155.25 L 348.40625 152.90625 L 348.40625 150.875 L 348.40625 149.1875 L 348.40625 147.84375 L 348.40625 146.84375 L 348.40625 146.21875 C 348.22625 146.00575 347.96875 146 347.96875 146 L 347.625 146 L 347.1875 146 L 346.6875 146 L 346.125 146 L 345.46875 146 L 344.78125 146 L 344.03125 146 L 343.21875 146 L 342.375 146 L 341.46875 146 L 340.53125 146 L 339.53125 146 L 338.5625 146 L 337.53125 146 L 336.53125 146 L 335.4375 146 L 334.4375 146 L 333.375 146 L 332.34375 146 L 331.28125 146 L 330.28125 146 L 329.25 146 L 328.3125 146 L 327.375 146 L 326.4375 146 L 325.59375 146 L 324.78125 146 L 324.0625 146 L 323.34375 146 L 322.6875 146 L 322.125 146 L 321.625 146 L 321.1875 146 L 320.84375 146 L 320.625 146 z M 325.5625 170.65625 C 325.6905 170.65625 325.6875 171.15625 325.6875 171.15625 L 325.6875 171.90625 L 325.6875 172.96875 L 325.6875 174.3125 L 325.6875 175.90625 L 325.6875 177.71875 L 325.6875 179.75 L 325.6875 182 L 325.6875 184.40625 L 325.6875 187 L 325.6875 189.75 L 325.6875 192.59375 L 325.6875 195.59375 L 325.6875 198.6875 L 325.6875 201.875 L 325.6875 205.125 L 325.6875 208.40625 L 325.6875 211.71875 L 325.6875 215.0625 L 325.6875 218.40625 L 325.6875 221.75 L 325.6875 225.03125 L 325.6875 228.28125 L 325.6875 231.4375 L 325.6875 234.53125 L 325.6875 237.5 L 325.6875 240.40625 L 325.6875 243.125 L 325.6875 245.71875 L 325.6875 248.125 L 325.6875 250.375 L 325.6875 252.40625 L 325.6875 254.21875 L 325.6875 255.8125 L 325.6875 257.15625 L 325.6875 258.21875 L 325.6875 259 L 325.6875 259.5 C 325.6875 259.651 267.09375 259.65625 267.09375 259.65625 C 267.19975 259.50825 267.53125 259 267.53125 259 L 268.03125 258.21875 L 268.75 257.15625 L 269.625 255.8125 L 270.65625 254.21875 L 271.84375 252.40625 L 273.1875 250.375 L 274.6875 248.125 L 276.25 245.71875 L 277.96875 243.125 L 279.75 240.40625 L 281.625 237.5 L 283.59375 234.53125 L 285.65625 231.4375 L 287.71875 228.28125 L 289.84375 225.03125 L 292 221.75 L 294.1875 218.40625 L 296.375 215.0625 L 298.5625 211.71875 L 300.78125 208.40625 L 302.9375 205.125 L 305.0625 201.875 L 307.15625 198.6875 L 309.15625 195.59375 L 311.125 192.59375 L 313 189.75 L 314.84375 187 L 316.5 184.40625 L 318.125 182 L 319.5625 179.75 L 320.90625 177.71875 L 322.09375 175.90625 L 323.15625 174.3125 L 324 172.96875 L 324.75 171.90625 L 325.25 171.15625 L 325.5625 170.65625 z "
   id="path31" />
</g><g
   id="LWPOLYLINE"
   style="stroke:none;stroke-opacity:1;fill:#000000;fill-opacity:1">
	
		
</g>

<g
   id="LWPOLYLINE_2_"
   style="stroke:none;stroke-opacity:1;fill:#000000;fill-opacity:1">
	
		<path
   fill="none"
   stroke="#000000"
   stroke-width="0.7087"
   stroke-linecap="round"
   stroke-linejoin="round"
   stroke-miterlimit="10"
   d="   M264.47,401.262c0,0.17,0,0.299,0,0.299c0,0.17,0,0.383,0,0.383v0.213v0.299v0.258v0.299v0.34v0.342v0.385v0.385v0.383v0.428v0.383   v0.428v0.426v0.428v0.428v0.426v0.428v0.383v0.428v0.385v0.383v0.385v0.342v0.342v0.297v0.258v0.299v0.213c0,0.213,0,0.385,0,0.385   c0,0.127,0,0.213,0,0.213c0.192,0.086,0.427,0.086,0.427,0.086h0.32h0.384h0.47h0.534h0.597h0.662h0.704h0.769h0.811h0.832h0.896   h0.896h0.939h0.96h0.96h0.982h0.981h0.981h0.981h0.961h0.96h0.918h0.918h0.875h0.854h0.811h0.747h0.726h0.641h0.618h0.534h0.448   h0.405h0.32h0.213c0.192,0.17,0.192,0.639,0.192,0.639v0.812v1.066v1.365v1.58v1.834v2.049v2.264v2.475v2.604v2.775v2.902v2.986   v3.158v3.201v3.244v3.33v3.371v3.373v3.371v3.373v3.285v3.287v3.201v3.115v3.031v2.902v2.773v2.604v2.434v2.262v2.049v1.836v1.621   v1.367v1.066v0.768v0.512c0.213,0.172,0.362,0.172,0.362,0.172c0.214,0,0.448,0,0.448,0h0.257h0.298h0.32h0.363h0.384h0.405h0.427   h0.427h0.47h0.47h0.47h0.47h0.49h0.491h0.49h0.491h0.491h0.469h0.47h0.448h0.448h0.427h0.405h0.385h0.341h0.342h0.299h0.256h0.235   c0.191,0,0.362,0,0.362,0c0.214-0.172,0.214-0.684,0.214-0.684v-0.768v-1.066v-1.367v-1.621v-1.836v-2.049v-2.262v-2.434v-2.604   v-2.773v-2.902v-3.031v-3.115v-3.201v-3.287v-3.285v-3.373v-3.371v-3.373V450.9v-3.33v-3.244v-3.201v-3.158v-2.986v-2.902v-2.775   v-2.604v-2.475v-2.264v-2.049v-1.834v-1.58v-1.365v-1.066v-0.812v-0.469c0.17-0.17,0.405-0.17,0.405-0.17h0.299h0.384h0.448h0.513   h0.597h0.598h0.726h0.726h0.769h0.811h0.854h0.896h0.896h0.896h0.939h0.981h0.938h0.939h0.939h0.938h0.939h0.896h0.854h0.854h0.811   h0.812h0.726h0.683h0.64h0.598h0.513h0.427h0.384h0.299h0.214c0.213-0.172,0.213-0.299,0.213-0.299c0-0.172,0-0.385,0-0.385v-0.213   v-0.299v-0.258v-0.297v-0.342v-0.342v-0.385v-0.383v-0.385v-0.428v-0.383v-0.428v-0.426v-0.428v-0.428v-0.426v-0.428v-0.383v-0.428   v-0.383v-0.385v-0.385v-0.342v-0.34v-0.299v-0.258v-0.299v-0.213c0-0.213,0-0.383,0-0.383c0-0.129,0-0.215,0-0.215   C329.176,401.262,264.47,401.262,264.47,401.262z"
   id="path10"
   style="stroke:none;stroke-opacity:1;fill:#000000;fill-opacity:1" />
</g>
<g
   id="LWPOLYLINE_3_"
   style="stroke:none;stroke-opacity:1;fill:#000000;fill-opacity:1">
	
		<path
   fill="none"
   stroke="#000000"
   stroke-width="0.7087"
   stroke-linecap="round"
   stroke-linejoin="round"
   stroke-miterlimit="10"
   d="   M341.383,502.674c0.214,0,0.342,0,0.342,0c0.214,0,0.427,0,0.427,0h0.256h0.257h0.298h0.342h0.384h0.342h0.427h0.385h0.427h0.427   h0.469h0.428h0.469h0.47h0.47h0.427h0.47h0.427h0.427h0.427h0.427h0.384h0.385h0.341h0.342h0.299h0.299h0.256   c0.214,0,0.384,0,0.384,0c0.171,0,0.257,0,0.257,0c0.085-0.086,0.085-0.342,0.085-0.342v-0.426v-0.557v-0.682v-0.811v-0.982v-1.025   v-1.193v-1.238v-1.365v-1.41v-1.494v-1.535v-1.623v-1.664v-1.664v-1.707v-1.75v-1.707v-1.75v-1.709v-1.707v-1.707v-1.621v-1.623   v-1.535v-1.494V464.9v-1.324v-1.279v-1.152v-1.068v-0.938v-0.812v-0.682v-0.555v-0.428v-0.256c0.086-0.086,0.256-0.086,0.256-0.086   h0.299h0.427h0.513h0.64h0.726h0.769h0.896h0.939h1.023h1.067h1.152h1.152h1.195h1.28h1.238h1.323h1.28h1.323h1.28h1.323h1.28h1.28   h1.238h1.237h1.152h1.11h1.109h0.981h0.982h0.854h0.811h0.726h0.598h0.512h0.428h0.299c0.213,0,0.256,0,0.256,0   c0,0.086,0,0.342,0,0.342v0.428v0.555v0.682v0.812v0.938v1.068v1.152v1.279v1.324v1.451v1.494v1.535v1.623v1.621v1.707v1.707v1.709   v1.75v1.707v1.75v1.707v1.664v1.664v1.623v1.535v1.494v1.41v1.365v1.238v1.193v1.025v0.982v0.811v0.682v0.557v0.426v0.256   c0.213,0.086,0.384,0.086,0.384,0.086c0.214,0,0.427,0,0.427,0h0.256h0.299h0.342h0.342h0.384h0.427h0.427h0.427h0.47h0.47h0.47   h0.469h0.47h0.513h0.469h0.513h0.47h0.469h0.47h0.47h0.427h0.427h0.427h0.384h0.342h0.342h0.299h0.256h0.213   c0.214,0,0.385,0,0.385,0c0.213-0.213,0.213-0.768,0.213-0.768v-0.896v-1.195v-1.537v-1.793v-2.049v-2.305v-2.561v-2.775v-2.943   v-3.117v-3.244v-3.414v-3.5v-3.627v-3.672v-3.756v-3.756v-3.799v-3.799v-3.799v-3.756v-3.67v-3.586v-3.543v-3.371v-3.287v-3.115   v-2.945v-2.732v-2.561v-2.305v-2.092v-1.791v-1.537v-1.195v-0.896v-0.555c-0.213-0.17-0.384-0.17-0.384-0.17   c-0.214,0-0.427,0-0.427,0h-0.256h-0.299h-0.342h-0.342h-0.384h-0.427h-0.427h-0.427h-0.47h-0.47h-0.469h-0.47h-0.513h-0.469   h-0.513h-0.47h-0.469h-0.47h-0.47h-0.47h-0.427h-0.427h-0.427h-0.384h-0.342h-0.342h-0.299H389.4h-0.213c-0.214,0-0.385,0-0.385,0   c-0.213,0.084-0.213,0.299-0.213,0.299v0.383v0.555v0.641v0.768v0.896v0.982v1.109v1.195v1.281v1.322v1.408v1.451v1.537v1.537   v1.621v1.58v1.621v1.664v1.623v1.621v1.623v1.578v1.58v1.494v1.494v1.408v1.322v1.281v1.195v1.066v1.023v0.896v0.77v0.641v0.512   v0.383v0.258c-0.043,0.084-0.256,0.084-0.256,0.084h-0.299h-0.428h-0.512h-0.598h-0.726h-0.811h-0.854h-0.982h-0.981h-1.109h-1.11   h-1.152h-1.237h-1.238h-1.28h-1.28h-1.323h-1.28h-1.323h-1.28h-1.323h-1.238h-1.28h-1.195h-1.152h-1.152h-1.067h-1.023h-0.939   h-0.896h-0.769h-0.726h-0.64h-0.513h-0.427h-0.299c-0.17,0-0.256,0-0.256,0c0-0.084,0-0.342,0-0.342v-0.383v-0.512v-0.641v-0.77   v-0.896V440.4v-1.066v-1.195v-1.281v-1.322v-1.408v-1.494v-1.494v-1.58v-1.578v-1.623v-1.621v-1.623v-1.664v-1.621v-1.58v-1.621   v-1.537v-1.537v-1.451v-1.408v-1.322v-1.281v-1.195v-1.109v-0.982v-0.896v-0.768v-0.641v-0.555v-0.383v-0.215   c-0.171-0.084-0.342-0.084-0.342-0.084c-0.17,0-0.384,0-0.384,0h-0.256h-0.299h-0.299h-0.342h-0.341h-0.385h-0.384h-0.427h-0.427   h-0.427h-0.427h-0.47h-0.427h-0.47h-0.47h-0.469h-0.428h-0.469h-0.427h-0.427h-0.385h-0.427h-0.342h-0.384h-0.342h-0.298h-0.257   h-0.256c-0.213,0-0.427,0-0.427,0c-0.128,0-0.214,0-0.214,0C341.383,401.262,341.383,502.674,341.383,502.674z"
   id="path13"
   style="stroke:none;stroke-opacity:1;fill:#000000;fill-opacity:1" />
</g>

<g
   id="LWPOLYLINE_5_"
   style="stroke:none;stroke-opacity:1;fill:#000000;fill-opacity:1">
	
		
</g>
<g
   id="LWPOLYLINE_6_"
   style="stroke:none;stroke-opacity:1;fill:#000000;fill-opacity:1">
	
		<path
   fill="none"
   stroke="#000000"
   stroke-width="0.7087"
   stroke-linecap="round"
   stroke-linejoin="round"
   stroke-miterlimit="10"
   d="   M303.823,591.836c0.042-0.127,0.191-0.383,0.191-0.383l0.235-0.428l0.319-0.598l0.406-0.725l0.49-0.854l0.534-1.025l0.64-1.109   l0.684-1.238l0.726-1.322l0.768-1.408l0.854-1.494l0.854-1.58l0.938-1.664l0.939-1.664l0.938-1.75l0.981-1.793l1.024-1.793   l0.982-1.836l1.024-1.834l1.024-1.836l1.023-1.836l0.982-1.793l0.981-1.791l0.981-1.709l0.939-1.707l0.896-1.664l0.896-1.58   l0.812-1.492l0.769-1.41l0.768-1.322l0.684-1.238l0.597-1.109l0.556-1.023l0.469-0.855l0.428-0.725l0.341-0.598l0.214-0.428   l0.128-0.256c-0.171-0.084-0.342-0.084-0.342-0.084c-0.171,0-0.427,0-0.427,0h-0.299h-0.299h-0.384h-0.385h-0.384h-0.427h-0.47   h-0.469h-0.47h-0.513h-0.512h-0.513h-0.512h-0.513h-0.512h-0.555h-0.513h-0.512h-0.47h-0.512h-0.47h-0.427h-0.427h-0.427h-0.385   h-0.341h-0.299h-0.299h-0.257c-0.213,0-0.384,0-0.384,0c-0.171,0-0.213,0-0.213,0c-0.043,0.043-0.171,0.256-0.171,0.256   l-0.171,0.342l-0.256,0.469l-0.299,0.598l-0.385,0.725l-0.427,0.77l-0.47,0.896l-0.512,1.023l-0.598,1.068l-0.598,1.109   l-0.64,1.236l-0.684,1.238l-0.683,1.324l-0.769,1.365l-0.726,1.408l-0.768,1.451l-0.769,1.451l-0.769,1.451l-0.811,1.451   l-0.769,1.494l-0.79,1.451l-0.768,1.451l-0.769,1.451l-0.747,1.408l-0.726,1.367l-0.704,1.279l-0.683,1.281l-0.641,1.236   l-0.598,1.111l-0.576,1.066l-0.533,0.982l-0.47,0.896l-0.427,0.811l-0.384,0.725l-0.32,0.555l-0.235,0.471l-0.191,0.383   c-0.107,0.215-0.149,0.256-0.149,0.256c-0.043-0.041-0.149-0.256-0.149-0.256l-0.171-0.383l-0.234-0.471l-0.32-0.555l-0.342-0.725   l-0.427-0.811l-0.448-0.896l-0.512-0.982l-0.534-1.066l-0.598-1.111l-0.597-1.236l-0.662-1.281l-0.661-1.279l-0.705-1.367   l-0.726-1.408l-0.726-1.451l-0.746-1.451l-0.747-1.451l-0.747-1.494l-0.747-1.451l-0.747-1.451l-0.747-1.451l-0.747-1.451   l-0.704-1.408l-0.704-1.365l-0.661-1.324l-0.662-1.238l-0.619-1.236l-0.576-1.109l-0.555-1.068l-0.49-1.023l-0.47-0.896   l-0.405-0.77l-0.363-0.725l-0.299-0.598l-0.234-0.469l-0.171-0.342c-0.106-0.213-0.149-0.256-0.149-0.256c-0.106,0-0.234,0-0.234,0   c-0.192,0-0.406,0-0.406,0h-0.256h-0.32h-0.341h-0.363h-0.405h-0.427h-0.47h-0.47h-0.49h-0.513h-0.533h-0.555h-0.534h-0.555h-0.555   h-0.555h-0.555h-0.556h-0.533h-0.533h-0.513h-0.512h-0.47h-0.448h-0.448h-0.405h-0.362h-0.342h-0.299h-0.277h-0.214   c-0.171,0-0.299,0-0.299,0c-0.063,0.084,0.086,0.34,0.086,0.34l0.234,0.428l0.32,0.598l0.405,0.725l0.491,0.855l0.555,1.023   l0.619,1.109l0.661,1.238l0.747,1.322l0.79,1.41l0.832,1.492l0.875,1.58l0.896,1.664l0.938,1.707l0.982,1.709l0.981,1.791   l1.003,1.793l1.003,1.836l1.003,1.836l1.024,1.834l1.003,1.836l1.003,1.793l0.981,1.793l0.982,1.75l0.938,1.664l0.896,1.664   l0.875,1.58l0.832,1.494l0.79,1.408l0.726,1.322l0.683,1.238l0.619,1.109l0.555,1.025l0.491,0.854l0.405,0.725l0.32,0.598   l0.234,0.428l0.149,0.256c0,0.213-0.149,0.469-0.149,0.469l-0.256,0.471l-0.32,0.639l-0.427,0.77l-0.491,0.938l-0.576,1.068   l-0.64,1.195l-0.704,1.322l-0.747,1.451l-0.832,1.494l-0.854,1.621l-0.896,1.709l-0.939,1.75l-0.96,1.791l-1.003,1.879l-1.024,1.92   l-1.024,1.922l-1.046,1.963l-1.046,1.963l-1.046,1.963l-1.046,1.965l-1.024,1.92l-1.024,1.922l-1.003,1.877l-0.96,1.793   l-0.939,1.75l-0.896,1.707l-0.875,1.621l-0.812,1.494l-0.747,1.451l-0.704,1.324l-0.64,1.195l-0.576,1.066l-0.491,0.939   l-0.427,0.768l-0.32,0.641l-0.256,0.426l-0.149,0.299c0.149,0.086,0.32,0.086,0.32,0.086c0.191,0,0.427,0,0.427,0h0.277h0.299h0.32   h0.362h0.363h0.405h0.427h0.448h0.448h0.469h0.47h0.491h0.49h0.491h0.491h0.49h0.47h0.491h0.469h0.448h0.448h0.406h0.405h0.384   h0.363h0.319h0.299h0.277h0.235c0.192,0,0.341,0,0.341,0c0.214,0,0.257-0.086,0.257-0.086l0.106-0.213l0.192-0.385l0.277-0.512   l0.32-0.682l0.384-0.77l0.448-0.896l0.49-0.98l0.556-1.109l0.598-1.195l0.64-1.238l0.662-1.365l0.704-1.41l0.726-1.451l0.768-1.535   l0.769-1.537l0.812-1.58l0.789-1.621l0.832-1.621l0.812-1.666l0.811-1.621l0.833-1.623l0.789-1.621l0.812-1.58l0.768-1.578   l0.769-1.494l0.726-1.494l0.704-1.365l0.662-1.365l0.64-1.281l0.598-1.195l0.555-1.066l0.491-1.025l0.448-0.854l0.384-0.811   l0.32-0.641l0.277-0.512l0.192-0.385l0.106-0.256c0.085,0,0.214,0.256,0.214,0.256l0.213,0.385l0.277,0.512l0.363,0.641   l0.405,0.811l0.491,0.854l0.533,1.025l0.598,1.066l0.64,1.195l0.684,1.281l0.726,1.365l0.747,1.365l0.811,1.494l0.811,1.494   l0.833,1.578l0.875,1.58l0.854,1.621l0.896,1.623l0.854,1.621l0.896,1.666l0.896,1.621l0.854,1.621l0.854,1.58l0.854,1.537   l0.811,1.535l0.812,1.451l0.768,1.41l0.684,1.365l0.726,1.238l0.64,1.195l0.555,1.109l0.556,0.98l0.469,0.896l0.428,0.77   l0.341,0.682l0.299,0.512l0.214,0.385l0.128,0.213c0.171,0.086,0.299,0.086,0.299,0.086c0.171,0,0.384,0,0.384,0h0.256h0.299h0.342   h0.384h0.385h0.427h0.469h0.47h0.513h0.512h0.555h0.513h0.555h0.555h0.555h0.556h0.555h0.555h0.555h0.513h0.512h0.513h0.469h0.47   h0.427h0.385h0.384h0.342h0.298h0.257h0.213c0.214,0,0.342,0,0.342,0C333.529,644.25,303.823,591.836,303.823,591.836z"
   id="path22"
   style="stroke:none;stroke-opacity:1;fill:#000000;fill-opacity:1" />
</g>
<g
   id="LWPOLYLINE_7_"
   style="stroke:none;stroke-opacity:1;fill:#000000;fill-opacity:1">
	
		<path
   fill="none"
   stroke="#000000"
   stroke-width="0.7087"
   stroke-linecap="round"
   stroke-linejoin="round"
   stroke-miterlimit="10"
   d="   M358.029,542.881c-0.214,0-0.342,0-0.342,0c-0.213,0-0.427,0-0.427,0h-0.256h-0.256h-0.299h-0.342h-0.384h-0.342h-0.427h-0.384   h-0.427h-0.427h-0.47h-0.427h-0.47h-0.47h-0.47h-0.427h-0.469h-0.428h-0.427h-0.427h-0.427h-0.384h-0.384H347.7h-0.342h-0.299   h-0.299h-0.256c-0.213,0-0.384,0-0.384,0c-0.171,0-0.256,0-0.256,0c-0.086,0.17-0.086,0.725-0.086,0.725v0.896v1.195v1.537v1.793   v2.047v2.348v2.52v2.773v2.945v3.115v3.244v3.414v3.5v3.629v3.67v3.756v3.758v3.797v3.842v3.756v3.756v3.672v3.627v3.5v3.416v3.242   v3.117v2.945v2.773v2.518v2.348v2.049v1.793v1.537v1.195v0.896v0.555c0.171,0.17,0.342,0.17,0.342,0.17c0.171,0,0.384,0,0.384,0   h0.256h0.299h0.299h0.342h0.342h0.384h0.384h0.427h0.427h0.427h0.428h0.469h0.427h0.47h0.47h0.47h0.427h0.47h0.427h0.427h0.384   h0.427h0.342h0.384h0.342h0.299h0.256h0.256c0.214,0,0.427,0,0.427,0c0.128,0,0.214,0,0.214,0   C358.029,644.25,358.029,542.881,358.029,542.881z"
   id="path25"
   style="stroke:none;stroke-opacity:1;fill:#000000;fill-opacity:1" />
</g>
<g
   id="LWPOLYLINE_8_"
   style="stroke:none;stroke-opacity:1;fill:#000000;fill-opacity:1">
	
		<path
   fill="none"
   stroke="#000000"
   stroke-width="0.7087"
   stroke-linecap="round"
   stroke-linejoin="round"
   stroke-miterlimit="10"
   d="   M375.486,613.689l-0.043,0.727l-0.085,0.811l-0.043,0.811l-0.043,0.854v0.939v0.939v0.98l0.043,0.982l0.043,1.023l0.085,1.025   l0.128,1.066l0.171,1.068l0.171,1.066l0.213,1.066l0.257,1.068l0.341,1.109l0.342,1.066l0.427,1.066l0.427,1.025l0.513,1.066   l0.597,1.025l0.598,0.98l0.726,0.982l0.726,0.939l0.854,0.939l0.896,0.895l0.982,0.812l1.024,0.811l1.109,0.768l1.237,0.727   l1.281,0.641l1.365,0.596l1.494,0.557l1.536,0.469l1.665,0.426l1.75,0.342l1.878,0.299l1.964,0.172l2.048,0.127l2.177,0.043h1.195   l1.152-0.043l1.152-0.084l1.195-0.086l1.152-0.129l1.11-0.127l1.152-0.215l1.109-0.213l1.109-0.213l1.11-0.299l1.066-0.299   l1.024-0.342l1.067-0.385l1.024-0.426l0.981-0.428l0.982-0.512l0.938-0.512l0.896-0.555l0.896-0.598l0.896-0.641l0.811-0.684   l0.811-0.725l0.769-0.727l0.769-0.811l0.683-0.854l0.683-0.854l0.641-0.939l0.598-0.98l0.555-1.025l0.513-1.023l0.469-1.109   l0.427-1.152l0.385-1.195l0.299-1.238l0.299-1.324l0.256-1.322l0.171-1.408l0.128-1.451l0.085-1.494l0.043-1.537l-0.085-2.348   l-0.257-2.262l-0.384-2.092l-0.512-2.006l-0.684-1.877l-0.811-1.75l-0.896-1.707l-1.024-1.58l-1.109-1.494l-1.195-1.408   l-1.323-1.324l-1.366-1.279l-1.408-1.195l-1.494-1.152l-1.579-1.066l-1.579-1.025l-1.622-1.023l-1.622-0.939l-1.664-0.939   l-1.665-0.939l-1.707-0.896l-1.665-0.854l-1.621-0.896l-1.622-0.854l-1.579-0.896l-1.537-0.895l-1.494-0.896l-1.451-0.939   l-1.365-0.939l-1.28-1.023l-1.238-1.025l-1.109-1.066l-1.024-1.152l-0.896-1.152l-0.811-1.281l-0.641-1.322l-0.555-1.367   l-0.385-1.494l-0.256-1.578l-0.085-1.623l0.042-0.811l0.043-0.725l0.043-0.727l0.128-0.725l0.128-0.684l0.128-0.641l0.171-0.639   l0.214-0.641l0.213-0.598l0.256-0.555l0.257-0.555l0.299-0.557l0.298-0.512l0.342-0.512l0.342-0.469l0.384-0.428l0.384-0.426   l0.428-0.428l0.384-0.385l0.47-0.383l0.427-0.342l0.47-0.342l0.469-0.299l0.513-0.299l0.47-0.256l0.512-0.256l0.555-0.256   l0.513-0.215l0.555-0.17l0.555-0.213l0.555-0.172l0.555-0.127l0.556-0.129l0.597-0.127l0.556-0.086l0.598-0.043l0.597-0.086   l0.556-0.041h0.598l0.597-0.043l0.854,0.043l0.811,0.041l0.769,0.043l0.726,0.129l0.726,0.127l0.726,0.129l0.64,0.213l0.641,0.213   l0.641,0.215l0.597,0.256l0.556,0.299l0.555,0.299l0.512,0.342l0.47,0.34l0.47,0.385l0.47,0.385l0.384,0.426l0.427,0.428   l0.384,0.469l0.342,0.471l0.342,0.512l0.299,0.512l0.299,0.555l0.256,0.555l0.256,0.555l0.256,0.598l0.214,0.641l0.171,0.598   l0.17,0.641l0.171,0.684l0.171,0.639l0.086,0.684l0.128,0.727l0.085,0.725l0.085,0.684l0.086,0.768l0.043,0.727v0.768l0.042,0.768   v0.811c0.214,0,0.385,0,0.385,0c0.17,0,0.427,0,0.427,0h0.256h0.299h0.342h0.341h0.385h0.384h0.427h0.47h0.427h0.47h0.469h0.513   h0.47h0.512h0.47h0.512h0.47h0.47h0.47h0.469h0.427h0.428h0.384h0.384h0.385h0.299h0.299h0.298h0.214c0.214,0,0.342,0,0.342,0   c0.213,0,0.256-1.492,0.256-1.492v-1.451l-0.043-1.41l-0.043-1.365l-0.128-1.322l-0.17-1.281l-0.214-1.238l-0.256-1.195   l-0.256-1.152l-0.342-1.109l-0.342-1.066l-0.384-1.025l-0.47-1.023l-0.47-0.939l-0.512-0.896l-0.513-0.896l-0.598-0.854   l-0.597-0.768l-0.684-0.768l-0.683-0.727l-0.726-0.684l-0.726-0.639l-0.811-0.641l-0.812-0.555l-0.854-0.555l-0.896-0.471   l-0.938-0.469l-0.939-0.428l-0.981-0.426l-1.024-0.342l-1.024-0.299l-1.067-0.299l-1.109-0.256l-1.152-0.213l-1.152-0.215   l-1.195-0.127l-1.195-0.129l-1.237-0.084l-1.281-0.043h-1.322h-1.238l-1.195,0.043l-1.237,0.084l-1.195,0.129l-1.152,0.127   l-1.152,0.215l-1.152,0.213l-1.11,0.213l-1.109,0.299l-1.109,0.299l-1.024,0.385l-1.067,0.383l-0.981,0.385l-0.981,0.471   l-0.982,0.469l-0.938,0.512l-0.896,0.555l-0.896,0.598l-0.811,0.598l-0.854,0.684l-0.769,0.682l-0.769,0.727l-0.726,0.768   l-0.683,0.77l-0.641,0.854l-0.64,0.854l-0.556,0.896l-0.555,0.938l-0.512,0.939l-0.47,1.025l-0.427,1.023l-0.384,1.068   l-0.342,1.109l-0.299,1.152l-0.256,1.195l-0.214,1.195l-0.171,1.279l-0.128,1.281l-0.042,1.322l-0.043,1.365l0.085,2.221   l0.256,2.092l0.385,2.006l0.512,1.92l0.684,1.793l0.811,1.664l0.896,1.623l1.024,1.494l1.109,1.451l1.195,1.322l1.323,1.281   l1.365,1.236l1.409,1.152l1.494,1.111l1.579,1.066l1.579,1.023l1.622,0.982l1.622,0.939l1.664,0.896l1.665,0.896l1.664,0.896   l1.665,0.854l1.664,0.854l1.622,0.854l1.579,0.896l1.537,0.854l1.493,0.896l1.451,0.896l1.366,0.98l1.28,0.939l1.238,1.023   l1.109,1.068l1.024,1.109l0.896,1.152l0.811,1.195l0.641,1.279l0.555,1.367l0.384,1.408l0.257,1.537l0.085,1.578l-0.043,0.896   l-0.042,0.896l-0.043,0.811l-0.128,0.811l-0.128,0.812l-0.128,0.768l-0.214,0.727l-0.171,0.682l-0.256,0.684l-0.256,0.684   l-0.256,0.596l-0.299,0.598l-0.342,0.598l-0.342,0.555l-0.384,0.514l-0.384,0.512l-0.385,0.469l-0.427,0.428l-0.47,0.469   l-0.469,0.385l-0.47,0.385l-0.513,0.34L415.181,632l-0.513,0.342l-0.555,0.299l-0.598,0.256l-0.555,0.256l-0.598,0.215   l-0.598,0.213l-0.64,0.213l-0.641,0.172l-0.64,0.127l-0.641,0.129l-0.683,0.127l-0.684,0.086l-0.683,0.086l-0.683,0.041   l-0.726,0.043l-0.684,0.043h-0.726h-0.597l-0.598-0.043l-0.598-0.043l-0.598-0.041l-0.598-0.086l-0.598-0.086l-0.555-0.127   l-0.598-0.129l-0.598-0.17l-0.598-0.172l-0.555-0.213l-0.555-0.213l-0.555-0.256l-0.555-0.258l-0.556-0.299l-0.555-0.297   l-0.512-0.342l-0.513-0.342l-0.47-0.385l-0.512-0.426l-0.47-0.428l-0.427-0.469l-0.427-0.514l-0.427-0.512l-0.427-0.555   l-0.384-0.555l-0.342-0.641l-0.342-0.641l-0.299-0.639l-0.299-0.727l-0.299-0.725l-0.213-0.727l-0.256-0.811l-0.171-0.811   l-0.171-0.854l-0.128-0.896l-0.128-0.939l-0.086-0.982l-0.042-0.98v-1.025c0-0.213,0-0.256,0-0.256c0-0.213,0-0.299,0-0.299   c0-0.17,0-0.256,0-0.256c0-0.213,0-0.299,0-0.299c0-0.213,0-0.299,0-0.299c0-0.213,0-0.299,0-0.299c0-0.17,0-0.256,0-0.256   c0-0.17,0-0.256,0-0.256c0-0.213,0-0.256,0-0.256C387.736,613.689,375.486,613.689,375.486,613.689z"
   id="path28"
   style="stroke:none;stroke-opacity:1;fill:#000000;fill-opacity:1" />
</g>

<g
   id="LWPOLYLINE_10_"
   style="stroke:none;stroke-opacity:1;fill:#000000;fill-opacity:1">
	
		
</g>
</svg>