<?xml version="1.0" encoding="UTF-8" standalone="no"?>
<!-- Generator: Adobe Illustrator 16.0.1, SVG Export Plug-In . SVG Version: 6.00 Build 0)  -->

<svg
   xmlns:dc="http://purl.org/dc/elements/1.1/"
   xmlns:cc="http://creativecommons.org/ns#"
   xmlns:rdf="http://www.w3.org/1999/02/22-rdf-syntax-ns#"
   xmlns:svg="http://www.w3.org/2000/svg"
   xmlns="http://www.w3.org/2000/svg"
   xmlns:sodipodi="http://sodipodi.sourceforge.net/DTD/sodipodi-0.dtd"
   xmlns:inkscape="http://www.inkscape.org/namespaces/inkscape"
   version="1.0"
   id="_x31_"
   x="0px"
   y="0px"
   width="612px"
   height="792px"
   viewBox="0 0 612 792"
   enable-background="new 0 0 612 792"
   xml:space="preserve"
   inkscape:version="0.48.2 r9819"
   sodipodi:docname="7030.svg"><metadata
   id="metadata34"><rdf:RDF><cc:Work
       rdf:about=""><dc:format>image/svg+xml</dc:format><dc:type
         rdf:resource="http://purl.org/dc/dcmitype/StillImage" /></cc:Work></rdf:RDF></metadata><defs
   id="defs32" /><sodipodi:namedview
   pagecolor="#ffffff"
   bordercolor="#666666"
   borderopacity="1"
   objecttolerance="10"
   gridtolerance="10"
   guidetolerance="10"
   inkscape:pageopacity="0"
   inkscape:pageshadow="2"
   inkscape:window-width="1920"
   inkscape:window-height="1068"
   id="namedview30"
   showgrid="false"
   inkscape:zoom="1.1919192"
   inkscape:cx="125.10841"
   inkscape:cy="430.73865"
   inkscape:window-x="0"
   inkscape:window-y="0"
   inkscape:window-maximized="1"
   inkscape:current-layer="_x31_" />
<g
   id="LWPOLYLINE_3_"
   style="stroke:none;fill:#000000;fill-opacity:1">
	
		<path
   style="stroke:none;fill:#000000;fill-opacity:1"
   d="M 208.65625 542.875 C 208.53625 542.875 177.0625 644.25 177.0625 644.25 L 177.4375 644.25 L 177.875 644.25 L 178.125 644.25 L 178.4375 644.25 L 178.78125 644.25 L 179.09375 644.25 L 179.5 644.25 L 179.90625 644.25 L 180.3125 644.25 L 180.78125 644.25 L 181.21875 644.25 L 181.6875 644.25 L 182.15625 644.25 L 182.65625 644.25 L 183.125 644.25 L 183.625 644.25 L 184.125 644.25 L 184.625 644.25 L 185.09375 644.25 L 185.5625 644.25 L 186.03125 644.25 L 186.5 644.25 L 186.90625 644.25 L 187.34375 644.25 L 187.75 644.25 L 188.125 644.25 L 188.5 644.25 L 188.8125 644.25 L 189.125 644.25 L 189.40625 644.25 L 189.59375 644.25 L 189.96875 644.25 C 190.18275 644.25 190.21875 644.21875 190.21875 644.21875 C 190.26175 644.09175 190.3125 643.875 190.3125 643.875 L 190.40625 643.5625 L 190.53125 643.21875 L 190.65625 642.75 L 190.8125 642.28125 L 191 641.71875 L 191.1875 641.09375 L 191.40625 640.4375 L 191.625 639.71875 L 191.875 638.96875 L 192.125 638.1875 L 192.40625 637.375 L 192.65625 636.53125 L 192.96875 635.625 L 193.21875 634.78125 L 193.53125 633.84375 L 193.8125 632.9375 L 194.09375 632.03125 L 194.40625 631.09375 L 194.71875 630.21875 L 194.96875 629.3125 L 195.28125 628.40625 L 195.5625 627.53125 L 195.84375 626.65625 L 196.09375 625.84375 L 196.34375 625.09375 L 196.59375 624.3125 L 196.8125 623.59375 L 197.03125 622.9375 L 197.21875 622.34375 L 197.40625 621.75 L 197.5625 621.28125 L 197.71875 620.84375 L 197.8125 620.46875 L 197.9375 620.1875 C 198.0005 619.9745 198.03125 619.84375 198.03125 619.84375 C 198.11625 619.80075 198.3125 619.78125 198.3125 619.78125 L 198.65625 619.78125 L 199.09375 619.78125 L 199.65625 619.78125 L 200.3125 619.78125 L 201.09375 619.78125 L 201.96875 619.78125 L 202.90625 619.78125 L 203.90625 619.78125 L 205 619.78125 L 206.15625 619.78125 L 207.375 619.78125 L 208.625 619.78125 L 209.9375 619.78125 L 211.25 619.78125 L 212.625 619.78125 L 214 619.78125 L 215.4375 619.78125 L 216.84375 619.78125 L 218.25 619.78125 L 219.65625 619.78125 L 221.03125 619.78125 L 222.40625 619.78125 L 223.71875 619.78125 L 225.03125 619.78125 L 226.3125 619.78125 L 227.5 619.78125 L 228.65625 619.78125 L 229.75 619.78125 L 230.78125 619.78125 L 231.71875 619.78125 L 232.59375 619.78125 L 233.34375 619.78125 L 234 619.78125 L 234.5625 619.78125 L 235 619.78125 L 235.34375 619.78125 L 235.625 619.78125 C 235.668 619.95325 235.75 620.1875 235.75 620.1875 L 235.8125 620.46875 L 235.9375 620.84375 L 236.0625 621.28125 L 236.1875 621.75 L 236.34375 622.34375 L 236.53125 622.9375 L 236.71875 623.59375 L 236.90625 624.3125 L 237.15625 625.09375 L 237.375 625.84375 L 237.59375 626.65625 L 237.8125 627.53125 L 238.09375 628.40625 L 238.34375 629.3125 L 238.59375 630.21875 L 238.84375 631.09375 L 239.125 632.03125 L 239.375 632.9375 L 239.65625 633.84375 L 239.90625 634.78125 L 240.15625 635.625 L 240.40625 636.53125 L 240.65625 637.375 L 240.875 638.1875 L 241.125 638.96875 L 241.3125 639.71875 L 241.53125 640.4375 L 241.71875 641.09375 L 241.875 641.71875 L 242.0625 642.28125 L 242.1875 642.75 L 242.3125 643.21875 L 242.40625 643.5625 L 242.5 643.875 C 242.564 644.09 242.59375 644.21875 242.59375 644.21875 C 242.70075 644.26175 242.875 644.25 242.875 644.25 L 243.25 644.25 L 243.53125 644.25 L 243.8125 644.25 L 244.15625 644.25 L 244.53125 644.25 L 244.9375 644.25 L 245.375 644.25 L 245.84375 644.25 L 246.3125 644.25 L 246.8125 644.25 L 247.3125 644.25 L 247.84375 644.25 L 248.40625 644.25 L 248.9375 644.25 L 249.46875 644.25 L 250.0625 644.25 L 250.625 644.25 L 251.15625 644.25 L 251.6875 644.25 L 252.25 644.25 L 252.78125 644.25 L 253.3125 644.25 L 253.78125 644.25 L 254.25 644.25 L 254.71875 644.25 L 255.15625 644.25 L 255.5625 644.25 L 255.9375 644.25 L 256.28125 644.25 L 256.5625 644.25 L 256.84375 644.25 L 257.0625 644.25 L 257.375 644.25 C 257.418 644.08 257.25 643.53125 257.25 643.53125 L 256.9375 642.625 L 256.5625 641.4375 L 256.09375 639.90625 L 255.53125 638.09375 L 254.84375 636.0625 L 254.125 633.71875 L 253.3125 631.1875 L 252.4375 628.40625 L 251.5 625.46875 L 250.46875 622.34375 L 249.46875 619.125 L 248.375 615.6875 L 247.25 612.1875 L 246.09375 608.5625 L 244.90625 604.90625 L 243.71875 601.15625 L 242.53125 597.375 L 241.3125 593.53125 L 240.09375 589.75 L 238.90625 586 L 237.6875 582.21875 L 236.53125 578.5625 L 235.375 574.9375 L 234.25 571.4375 L 233.15625 568.03125 L 232.125 564.78125 L 231.125 561.65625 L 230.1875 558.71875 L 229.3125 555.9375 L 228.5 553.4375 L 227.75 551.0625 L 227.09375 549.03125 L 226.53125 547.21875 L 226.0625 545.6875 L 225.65625 544.5 L 225.375 543.59375 L 225.1875 543.0625 C 225.0165 542.8925 224.875 542.875 224.875 542.875 L 224.4375 542.875 L 224.125 542.875 L 223.78125 542.875 L 223.40625 542.875 L 223 542.875 L 222.5625 542.875 L 222.0625 542.875 L 221.53125 542.875 L 221 542.875 L 220.46875 542.875 L 219.875 542.875 L 219.28125 542.875 L 218.6875 542.875 L 218.0625 542.875 L 217.4375 542.875 L 216.84375 542.875 L 216.21875 542.875 L 215.59375 542.875 L 214.96875 542.875 L 214.375 542.875 L 213.78125 542.875 L 213.1875 542.875 L 212.65625 542.875 L 212.125 542.875 L 211.59375 542.875 L 211.125 542.875 L 210.65625 542.875 L 210.25 542.875 L 209.875 542.875 L 209.53125 542.875 L 209.21875 542.875 L 209 542.875 L 208.65625 542.875 z M 216.375 555.21875 C 216.42 555.09275 232.125 608.4375 232.125 608.4375 L 231.90625 608.4375 L 231.625 608.4375 L 231.25 608.4375 L 230.78125 608.4375 L 230.21875 608.4375 L 229.5625 608.4375 L 228.875 608.4375 L 228.0625 608.4375 L 227.21875 608.4375 L 226.3125 608.4375 L 225.34375 608.4375 L 224.3125 608.4375 L 223.25 608.4375 L 222.1875 608.4375 L 221.0625 608.4375 L 219.90625 608.4375 L 218.75 608.4375 L 217.59375 608.4375 L 216.40625 608.4375 L 215.21875 608.4375 L 214.03125 608.4375 L 212.90625 608.4375 L 211.75 608.4375 L 210.625 608.4375 L 209.53125 608.4375 L 208.46875 608.4375 L 207.46875 608.4375 L 206.5 608.4375 L 205.59375 608.4375 L 204.75 608.4375 L 203.9375 608.4375 L 203.21875 608.4375 L 202.59375 608.4375 L 202.03125 608.4375 L 201.5625 608.4375 L 201.1875 608.4375 L 200.90625 608.4375 L 200.65625 608.4375 C 200.69925 608.3105 200.78125 608.0625 200.78125 608.0625 L 200.90625 607.59375 L 201.125 606.9375 L 201.34375 606.125 L 201.625 605.1875 L 201.9375 604.09375 L 202.3125 602.875 L 202.71875 601.53125 L 203.125 600.0625 L 203.59375 598.53125 L 204.0625 596.90625 L 204.5625 595.21875 L 205.09375 593.40625 L 205.65625 591.53125 L 206.21875 589.65625 L 206.78125 587.75 L 207.375 585.71875 L 207.9375 583.78125 L 208.53125 581.75 L 209.125 579.75 L 209.71875 577.78125 L 210.28125 575.78125 L 210.875 573.875 L 211.40625 572 L 211.96875 570.125 L 212.5 568.3125 L 213 566.625 L 213.5 565 L 213.9375 563.4375 L 214.375 562 L 214.78125 560.625 L 215.125 559.4375 L 215.4375 558.34375 L 215.71875 557.40625 L 215.96875 556.59375 L 216.15625 555.9375 L 216.28125 555.46875 L 216.375 555.21875 z "
   id="path13" />
</g><g
   id="LWPOLYLINE"
   style="stroke:none;fill:#000000;fill-opacity:1">
	
		<path
   fill="none"
   stroke="#000000"
   stroke-width="0.7087"
   stroke-linecap="round"
   stroke-linejoin="round"
   stroke-miterlimit="10"
   d="   M211.182,401.262c0,0.084,0,0.426,0,0.426v0.469v0.684v0.854v1.025v1.152v1.322v1.408v1.58v1.621v1.75v1.836v1.92v1.965v2.049v2.09   v2.092v2.135v2.135v2.133v2.092v2.135v2.049v2.049v1.963v1.92v1.836v1.75v1.664v1.537v1.451v1.279v1.154v1.023v0.854v0.684v0.512   v0.299c0.17,0.086,0.319,0.086,0.319,0.086c0.171,0,0.385,0,0.385,0h0.234h0.256h0.299h0.299h0.342h0.362h0.363h0.384h0.406h0.405   h0.427h0.427h0.427h0.448h0.427h0.427h0.427h0.427h0.405h0.406h0.384h0.384h0.342h0.342h0.319h0.277h0.278h0.234   c0.192,0,0.362,0,0.362,0c0.149,0,0.257,0,0.257,0c0.085,0,0.213-0.514,0.213-0.514l0.149-0.555l0.149-0.512l0.149-0.512   l0.171-0.471l0.171-0.469l0.171-0.512l0.191-0.428l0.192-0.469l0.213-0.428l0.214-0.426l0.214-0.428l0.234-0.383l0.234-0.385   l0.257-0.385l0.256-0.383l0.256-0.342l0.277-0.342l0.299-0.342l0.299-0.299l0.299-0.299l0.32-0.299l0.32-0.256l0.341-0.256   l0.342-0.256l0.362-0.213l0.363-0.215l0.384-0.213l0.385-0.17l0.405-0.172l0.427-0.17l0.405-0.129l0.448-0.127l0.448-0.086   l0.47-0.086l0.469-0.084l0.491-0.043l0.491-0.043l0.533-0.043h0.513h0.854l0.811,0.086l0.769,0.084l0.726,0.172l0.704,0.17   l0.661,0.256l0.619,0.256l0.598,0.299l0.555,0.342l0.534,0.385l0.49,0.426l0.47,0.471l0.448,0.469l0.405,0.512l0.384,0.557   l0.363,0.598l0.32,0.596l0.32,0.641l0.277,0.684l0.256,0.684l0.256,0.725l0.214,0.768l0.191,0.77l0.192,0.811l0.149,0.811   l0.149,0.854l0.128,0.854l0.106,0.896l0.107,0.939l0.085,0.896l0.064,0.982l0.063,0.938l0.064,0.982l0.042,1.023l0.021,1.025   l0.021,1.023l0.021,1.025l0.021,1.066v1.068v1.109v0.725v0.77l-0.021,0.768l-0.021,0.725l-0.021,0.77l-0.042,0.768l-0.043,0.77   l-0.043,0.768l-0.063,0.768l-0.086,0.727l-0.085,0.768l-0.107,0.727l-0.106,0.725l-0.149,0.727l-0.149,0.725l-0.171,0.684   l-0.191,0.682l-0.214,0.684l-0.234,0.641l-0.256,0.641l-0.277,0.641l-0.299,0.596l-0.342,0.557l-0.342,0.555l-0.384,0.555   l-0.405,0.512l-0.448,0.469l-0.47,0.428l-0.491,0.426l-0.555,0.428l-0.555,0.342l-0.598,0.342l-0.64,0.299l-0.684,0.256   l-0.704,0.213l-0.747,0.17l-0.789,0.172l-0.833,0.084l-0.875,0.086h-0.896h-0.598l-0.576-0.043l-0.556-0.043l-0.555-0.127   l-0.512-0.086l-0.513-0.17l-0.512-0.129l-0.47-0.213l-0.47-0.213l-0.427-0.215l-0.448-0.256l-0.405-0.256l-0.405-0.299   l-0.385-0.342l-0.362-0.299l-0.342-0.383l-0.341-0.342l-0.32-0.385l-0.32-0.426l-0.277-0.385l-0.277-0.426l-0.256-0.471   l-0.257-0.469l-0.234-0.471l-0.213-0.469l-0.192-0.512l-0.192-0.514l-0.171-0.512l-0.171-0.555l-0.148-0.512l-0.129-0.555   l-0.106-0.555l-0.106-0.598l-0.086-0.555l-0.085-0.598l-0.043-0.598l-0.063-0.598l-0.021-0.598l-0.021-0.598v-0.598   c-0.213,0-0.362,0-0.362,0c-0.171,0-0.406,0-0.406,0h-0.256h-0.277h-0.32h-0.341h-0.363h-0.384h-0.385h-0.427H218.8h-0.448h-0.448   h-0.469h-0.448h-0.47h-0.47h-0.47h-0.448h-0.469h-0.427h-0.448h-0.406h-0.405h-0.384h-0.363h-0.341h-0.299h-0.299h-0.256h-0.214   c-0.192,0-0.342,0-0.342,0c-0.191,0-0.191,1.025-0.191,1.025l0.021,0.98l0.042,1.025l0.043,0.98l0.085,0.982l0.086,0.939   l0.128,0.98l0.128,0.939l0.149,0.939l0.192,0.896l0.213,0.896l0.235,0.854l0.256,0.896l0.299,0.811l0.32,0.854l0.362,0.768   l0.385,0.77l0.427,0.768l0.469,0.725l0.491,0.727l0.533,0.684l0.576,0.639l0.619,0.641l0.662,0.598l0.704,0.598l0.747,0.512   l0.789,0.514l0.854,0.469l0.875,0.469l0.939,0.428l0.981,0.342l1.046,0.342l1.109,0.299l1.131,0.299l1.217,0.213l1.259,0.17   l1.323,0.172l1.388,0.084l1.43,0.086l1.516,0.043l1.75-0.043l1.686-0.129l1.601-0.17l1.515-0.213l1.452-0.299l1.365-0.385   l1.302-0.426l1.238-0.471l1.152-0.512l1.088-0.598l1.046-0.641l0.96-0.682l0.918-0.727l0.854-0.768l0.79-0.812l0.726-0.895   l0.704-0.896l0.619-0.939l0.598-0.939l0.533-1.023l0.491-1.025l0.469-1.066l0.406-1.068l0.362-1.109l0.342-1.152l0.299-1.152   l0.256-1.152l0.234-1.195l0.214-1.236l0.171-1.195l0.149-1.238l0.128-1.238l0.106-1.238l0.085-1.236l0.064-1.238l0.043-1.238   l0.042-1.238l0.021-1.279v-1.195l0.021-1.238l-0.021-1.75l-0.042-1.707l-0.043-1.621l-0.086-1.58l-0.106-1.537l-0.128-1.492   l-0.171-1.451l-0.171-1.367l-0.213-1.365l-0.214-1.281l-0.256-1.279l-0.277-1.195l-0.32-1.152l-0.32-1.109l-0.362-1.068   l-0.384-0.98l-0.406-0.982l-0.427-0.939l-0.469-0.854l-0.491-0.854l-0.513-0.811l-0.533-0.727l-0.576-0.725l-0.598-0.641   l-0.619-0.641l-0.64-0.555l-0.684-0.555l-0.704-0.469l-0.726-0.471l-0.768-0.426l-0.79-0.342l-0.811-0.342l-0.854-0.299   l-0.875-0.256l-0.917-0.17l-0.918-0.172l-0.981-0.17l-0.981-0.086l-1.024-0.043l-1.046-0.043l-0.47,0.043h-0.47l-0.49,0.043h-0.47   l-0.47,0.043l-0.47,0.086l-0.49,0.043l-0.47,0.084l-0.47,0.086l-0.47,0.086l-0.469,0.084l-0.47,0.129l-0.47,0.127l-0.47,0.129   l-0.448,0.129l-0.447,0.17l-0.448,0.129l-0.427,0.17l-0.428,0.17l-0.427,0.172l-0.405,0.213l-0.405,0.213l-0.405,0.172   l-0.385,0.256l-0.362,0.213l-0.363,0.213l-0.362,0.258l-0.32,0.256l-0.342,0.256l-0.299,0.256l-0.298,0.256l-0.278,0.299   l-0.277,0.256l-0.256,0.299l-0.234,0.299l-0.214,0.342l-0.191,0.299l-0.192,0.299l-0.149,0.342l-0.149,0.34   c0-0.213,0-0.469,0-0.469v-0.385v-0.426v-0.512v-0.641v-0.684v-0.725v-0.812v-0.895v-0.896v-0.982v-0.982v-1.023v-1.066v-1.111   v-1.066v-1.152v-1.109v-1.109v-1.111v-1.109v-1.066v-1.066v-1.025v-1.023v-0.939v-0.939v-0.854v-0.811v-0.77v-0.682v-0.598v-0.512   v-0.471v-0.342v-0.256c0.063-0.256,0.234-0.256,0.234-0.256h0.277h0.385h0.47h0.576h0.661h0.726h0.811h0.854h0.938h0.981h1.024   h1.089h1.109h1.131h1.174h1.174h1.195h1.195h1.216h1.195h1.174h1.152h1.152h1.11h1.066h1.046h0.981h0.918h0.875h0.812h0.726h0.661   h0.555h0.491h0.384h0.277c0.171,0,0.235,0,0.235,0c0-0.17,0-0.299,0-0.299c0-0.17,0-0.383,0-0.383v-0.258v-0.256v-0.299v-0.342   v-0.34v-0.342v-0.385v-0.385v-0.426v-0.428v-0.426v-0.428v-0.426v-0.428v-0.469v-0.428v-0.426V405.4v-0.426v-0.385v-0.426v-0.385   v-0.342v-0.342v-0.342v-0.256v-0.299v-0.213c0-0.213,0-0.385,0-0.385c0-0.17,0-0.256,0-0.256   C256.553,401.262,211.182,401.262,211.182,401.262z"
   id="path4"
   style="stroke:none;fill:#000000;fill-opacity:1" />
</g>
<g
   id="LWPOLYLINE_1_"
   style="stroke:none;fill:#000000;fill-opacity:1">
	
		<path
   fill="none"
   stroke="#000000"
   stroke-width="0.7087"
   stroke-linecap="round"
   stroke-linejoin="round"
   stroke-miterlimit="10"
   d="   M264.47,401.262c0,0.17,0,0.299,0,0.299c0,0.17,0,0.383,0,0.383v0.213v0.299v0.258v0.299v0.34v0.342v0.385v0.385v0.383v0.428v0.383   v0.428v0.426v0.428v0.428v0.426v0.428v0.383v0.428v0.385v0.383v0.385v0.342v0.342v0.297v0.258v0.299v0.213c0,0.213,0,0.385,0,0.385   c0,0.127,0,0.213,0,0.213c0.192,0.086,0.427,0.086,0.427,0.086h0.32h0.384h0.47h0.534h0.597h0.662h0.704h0.769h0.811h0.832h0.896   h0.896h0.939h0.96h0.96h0.982h0.981h0.981h0.981h0.961h0.96h0.918h0.918h0.875h0.854h0.811h0.747h0.726h0.641h0.618h0.534h0.448   h0.405h0.32h0.213c0.192,0.17,0.192,0.639,0.192,0.639v0.812v1.066v1.365v1.58v1.834v2.049v2.264v2.475v2.604v2.775v2.902v2.986   v3.158v3.201v3.244v3.33v3.371v3.373v3.371v3.373v3.285v3.287v3.201v3.115v3.031v2.902v2.773v2.604v2.434v2.262v2.049v1.836v1.621   v1.367v1.066v0.768v0.512c0.213,0.172,0.362,0.172,0.362,0.172c0.214,0,0.448,0,0.448,0h0.257h0.298h0.32h0.363h0.384h0.405h0.427   h0.427h0.47h0.47h0.47h0.47h0.49h0.491h0.49h0.491h0.491h0.469h0.47h0.448h0.448h0.427h0.405h0.385h0.341h0.342h0.299h0.256h0.235   c0.191,0,0.362,0,0.362,0c0.214-0.172,0.214-0.684,0.214-0.684v-0.768v-1.066v-1.367v-1.621v-1.836v-2.049v-2.262v-2.434v-2.604   v-2.773v-2.902v-3.031v-3.115v-3.201v-3.287v-3.285v-3.373v-3.371v-3.373V450.9v-3.33v-3.244v-3.201v-3.158v-2.986v-2.902v-2.775   v-2.604v-2.475v-2.264v-2.049v-1.834v-1.58v-1.365v-1.066v-0.812v-0.469c0.17-0.17,0.405-0.17,0.405-0.17h0.299h0.384h0.448h0.513   h0.597h0.598h0.726h0.726h0.769h0.811h0.854h0.896h0.896h0.896h0.939h0.981h0.938h0.939h0.939h0.938h0.939h0.896h0.854h0.854h0.811   h0.812h0.726h0.683h0.64h0.598h0.513h0.427h0.384h0.299h0.214c0.213-0.172,0.213-0.299,0.213-0.299c0-0.172,0-0.385,0-0.385v-0.213   v-0.299v-0.258v-0.297v-0.342v-0.342v-0.385v-0.383v-0.385v-0.428v-0.383v-0.428v-0.426v-0.428v-0.428v-0.426v-0.428v-0.383v-0.428   v-0.383v-0.385v-0.385v-0.342v-0.34v-0.299v-0.258v-0.299v-0.213c0-0.213,0-0.383,0-0.383c0-0.129,0-0.215,0-0.215   C329.176,401.262,264.47,401.262,264.47,401.262z"
   id="path7"
   style="stroke:none;fill:#000000;fill-opacity:1" />
</g>
<g
   id="LWPOLYLINE_2_"
   style="stroke:none;fill:#000000;fill-opacity:1">
	
		<path
   fill="none"
   stroke="#000000"
   stroke-width="0.7087"
   stroke-linecap="round"
   stroke-linejoin="round"
   stroke-miterlimit="10"
   d="   M341.383,502.674c0.214,0,0.342,0,0.342,0c0.214,0,0.427,0,0.427,0h0.256h0.257h0.298h0.342h0.384h0.342h0.427h0.385h0.427h0.427   h0.469h0.428h0.469h0.47h0.47h0.427h0.47h0.427h0.427h0.427h0.427h0.384h0.385h0.341h0.342h0.299h0.299h0.256   c0.214,0,0.384,0,0.384,0c0.171,0,0.257,0,0.257,0c0.085-0.086,0.085-0.342,0.085-0.342v-0.426v-0.557v-0.682v-0.811v-0.982v-1.025   v-1.193v-1.238v-1.365v-1.41v-1.494v-1.535v-1.623v-1.664v-1.664v-1.707v-1.75v-1.707v-1.75v-1.709v-1.707v-1.707v-1.621v-1.623   v-1.535v-1.494V464.9v-1.324v-1.279v-1.152v-1.068v-0.938v-0.812v-0.682v-0.555v-0.428v-0.256c0.086-0.086,0.256-0.086,0.256-0.086   h0.299h0.427h0.513h0.64h0.726h0.769h0.896h0.939h1.023h1.067h1.152h1.152h1.195h1.28h1.238h1.323h1.28h1.323h1.28h1.323h1.28h1.28   h1.238h1.237h1.152h1.11h1.109h0.981h0.982h0.854h0.811h0.726h0.598h0.512h0.428h0.299c0.213,0,0.256,0,0.256,0   c0,0.086,0,0.342,0,0.342v0.428v0.555v0.682v0.812v0.938v1.068v1.152v1.279v1.324v1.451v1.494v1.535v1.623v1.621v1.707v1.707v1.709   v1.75v1.707v1.75v1.707v1.664v1.664v1.623v1.535v1.494v1.41v1.365v1.238v1.193v1.025v0.982v0.811v0.682v0.557v0.426v0.256   c0.213,0.086,0.384,0.086,0.384,0.086c0.214,0,0.427,0,0.427,0h0.256h0.299h0.342h0.342h0.384h0.427h0.427h0.427h0.47h0.47h0.47   h0.469h0.47h0.513h0.469h0.513h0.47h0.469h0.47h0.47h0.427h0.427h0.427h0.384h0.342h0.342h0.299h0.256h0.213   c0.214,0,0.385,0,0.385,0c0.213-0.213,0.213-0.768,0.213-0.768v-0.896v-1.195v-1.537v-1.793v-2.049v-2.305v-2.561v-2.775v-2.943   v-3.117v-3.244v-3.414v-3.5v-3.627v-3.672v-3.756v-3.756v-3.799v-3.799v-3.799v-3.756v-3.67v-3.586v-3.543v-3.371v-3.287v-3.115   v-2.945v-2.732v-2.561v-2.305v-2.092v-1.791v-1.537v-1.195v-0.896v-0.555c-0.213-0.17-0.384-0.17-0.384-0.17   c-0.214,0-0.427,0-0.427,0h-0.256h-0.299h-0.342h-0.342h-0.384h-0.427h-0.427h-0.427h-0.47h-0.47h-0.469h-0.47h-0.513h-0.469   h-0.513h-0.47h-0.469h-0.47h-0.47h-0.47h-0.427h-0.427h-0.427h-0.384h-0.342h-0.342h-0.299H389.4h-0.213c-0.214,0-0.385,0-0.385,0   c-0.213,0.084-0.213,0.299-0.213,0.299v0.383v0.555v0.641v0.768v0.896v0.982v1.109v1.195v1.281v1.322v1.408v1.451v1.537v1.537   v1.621v1.58v1.621v1.664v1.623v1.621v1.623v1.578v1.58v1.494v1.494v1.408v1.322v1.281v1.195v1.066v1.023v0.896v0.77v0.641v0.512   v0.383v0.258c-0.043,0.084-0.256,0.084-0.256,0.084h-0.299h-0.428h-0.512h-0.598h-0.726h-0.811h-0.854h-0.982h-0.981h-1.109h-1.11   h-1.152h-1.237h-1.238h-1.28h-1.28h-1.323h-1.28h-1.323h-1.28h-1.323h-1.238h-1.28h-1.195h-1.152h-1.152h-1.067h-1.023h-0.939   h-0.896h-0.769h-0.726h-0.64h-0.513h-0.427h-0.299c-0.17,0-0.256,0-0.256,0c0-0.084,0-0.342,0-0.342v-0.383v-0.512v-0.641v-0.77   v-0.896V440.4v-1.066v-1.195v-1.281v-1.322v-1.408v-1.494v-1.494v-1.58v-1.578v-1.623v-1.621v-1.623v-1.664v-1.621v-1.58v-1.621   v-1.537v-1.537v-1.451v-1.408v-1.322v-1.281v-1.195v-1.109v-0.982v-0.896v-0.768v-0.641v-0.555v-0.383v-0.215   c-0.171-0.084-0.342-0.084-0.342-0.084c-0.17,0-0.384,0-0.384,0h-0.256h-0.299h-0.299h-0.342h-0.341h-0.385h-0.384h-0.427h-0.427   h-0.427h-0.427h-0.47h-0.427h-0.47h-0.47h-0.469h-0.428h-0.469h-0.427h-0.427h-0.385h-0.427h-0.342h-0.384h-0.342h-0.298h-0.257   h-0.256c-0.213,0-0.427,0-0.427,0c-0.128,0-0.214,0-0.214,0C341.383,401.262,341.383,502.674,341.383,502.674z"
   id="path10"
   style="stroke:none;fill:#000000;fill-opacity:1" />
</g>

<g
   id="LWPOLYLINE_4_"
   style="stroke:none;fill:#000000;fill-opacity:1">
	
		
</g>
<g
   id="LWPOLYLINE_5_"
   style="stroke:none;fill:#000000;fill-opacity:1">
	
		<path
   fill="none"
   stroke="#000000"
   stroke-width="0.7087"
   stroke-linecap="round"
   stroke-linejoin="round"
   stroke-miterlimit="10"
   d="   M303.823,591.836c0.042-0.127,0.191-0.383,0.191-0.383l0.235-0.428l0.319-0.598l0.406-0.725l0.49-0.854l0.534-1.025l0.64-1.109   l0.684-1.238l0.726-1.322l0.768-1.408l0.854-1.494l0.854-1.58l0.938-1.664l0.939-1.664l0.938-1.75l0.981-1.793l1.024-1.793   l0.982-1.836l1.024-1.834l1.024-1.836l1.023-1.836l0.982-1.793l0.981-1.791l0.981-1.709l0.939-1.707l0.896-1.664l0.896-1.58   l0.812-1.492l0.769-1.41l0.768-1.322l0.684-1.238l0.597-1.109l0.556-1.023l0.469-0.855l0.428-0.725l0.341-0.598l0.214-0.428   l0.128-0.256c-0.171-0.084-0.342-0.084-0.342-0.084c-0.171,0-0.427,0-0.427,0h-0.299h-0.299h-0.384h-0.385h-0.384h-0.427h-0.47   h-0.469h-0.47h-0.513h-0.512h-0.513h-0.512h-0.513h-0.512h-0.555h-0.513h-0.512h-0.47h-0.512h-0.47h-0.427h-0.427h-0.427h-0.385   h-0.341h-0.299h-0.299h-0.257c-0.213,0-0.384,0-0.384,0c-0.171,0-0.213,0-0.213,0c-0.043,0.043-0.171,0.256-0.171,0.256   l-0.171,0.342l-0.256,0.469l-0.299,0.598l-0.385,0.725l-0.427,0.77l-0.47,0.896l-0.512,1.023l-0.598,1.068l-0.598,1.109   l-0.64,1.236l-0.684,1.238l-0.683,1.324l-0.769,1.365l-0.726,1.408l-0.768,1.451l-0.769,1.451l-0.769,1.451l-0.811,1.451   l-0.769,1.494l-0.79,1.451l-0.768,1.451l-0.769,1.451l-0.747,1.408l-0.726,1.367l-0.704,1.279l-0.683,1.281l-0.641,1.236   l-0.598,1.111l-0.576,1.066l-0.533,0.982l-0.47,0.896l-0.427,0.811l-0.384,0.725l-0.32,0.555l-0.235,0.471l-0.191,0.383   c-0.107,0.215-0.149,0.256-0.149,0.256c-0.043-0.041-0.149-0.256-0.149-0.256l-0.171-0.383l-0.234-0.471l-0.32-0.555l-0.342-0.725   l-0.427-0.811l-0.448-0.896l-0.512-0.982l-0.534-1.066l-0.598-1.111l-0.597-1.236l-0.662-1.281l-0.661-1.279l-0.705-1.367   l-0.726-1.408l-0.726-1.451l-0.746-1.451l-0.747-1.451l-0.747-1.494l-0.747-1.451l-0.747-1.451l-0.747-1.451l-0.747-1.451   l-0.704-1.408l-0.704-1.365l-0.661-1.324l-0.662-1.238l-0.619-1.236l-0.576-1.109l-0.555-1.068l-0.49-1.023l-0.47-0.896   l-0.405-0.77l-0.363-0.725l-0.299-0.598l-0.234-0.469l-0.171-0.342c-0.106-0.213-0.149-0.256-0.149-0.256c-0.106,0-0.234,0-0.234,0   c-0.192,0-0.406,0-0.406,0h-0.256h-0.32h-0.341h-0.363h-0.405h-0.427h-0.47h-0.47h-0.49h-0.513h-0.533h-0.555h-0.534h-0.555h-0.555   h-0.555h-0.555h-0.556h-0.533h-0.533h-0.513h-0.512h-0.47h-0.448h-0.448h-0.405h-0.362h-0.342h-0.299h-0.277h-0.214   c-0.171,0-0.299,0-0.299,0c-0.063,0.084,0.086,0.34,0.086,0.34l0.234,0.428l0.32,0.598l0.405,0.725l0.491,0.855l0.555,1.023   l0.619,1.109l0.661,1.238l0.747,1.322l0.79,1.41l0.832,1.492l0.875,1.58l0.896,1.664l0.938,1.707l0.982,1.709l0.981,1.791   l1.003,1.793l1.003,1.836l1.003,1.836l1.024,1.834l1.003,1.836l1.003,1.793l0.981,1.793l0.982,1.75l0.938,1.664l0.896,1.664   l0.875,1.58l0.832,1.494l0.79,1.408l0.726,1.322l0.683,1.238l0.619,1.109l0.555,1.025l0.491,0.854l0.405,0.725l0.32,0.598   l0.234,0.428l0.149,0.256c0,0.213-0.149,0.469-0.149,0.469l-0.256,0.471l-0.32,0.639l-0.427,0.77l-0.491,0.938l-0.576,1.068   l-0.64,1.195l-0.704,1.322l-0.747,1.451l-0.832,1.494l-0.854,1.621l-0.896,1.709l-0.939,1.75l-0.96,1.791l-1.003,1.879l-1.024,1.92   l-1.024,1.922l-1.046,1.963l-1.046,1.963l-1.046,1.963l-1.046,1.965l-1.024,1.92l-1.024,1.922l-1.003,1.877l-0.96,1.793   l-0.939,1.75l-0.896,1.707l-0.875,1.621l-0.812,1.494l-0.747,1.451l-0.704,1.324l-0.64,1.195l-0.576,1.066l-0.491,0.939   l-0.427,0.768l-0.32,0.641l-0.256,0.426l-0.149,0.299c0.149,0.086,0.32,0.086,0.32,0.086c0.191,0,0.427,0,0.427,0h0.277h0.299h0.32   h0.362h0.363h0.405h0.427h0.448h0.448h0.469h0.47h0.491h0.49h0.491h0.491h0.49h0.47h0.491h0.469h0.448h0.448h0.406h0.405h0.384   h0.363h0.319h0.299h0.277h0.235c0.192,0,0.341,0,0.341,0c0.214,0,0.257-0.086,0.257-0.086l0.106-0.213l0.192-0.385l0.277-0.512   l0.32-0.682l0.384-0.77l0.448-0.896l0.49-0.98l0.556-1.109l0.598-1.195l0.64-1.238l0.662-1.365l0.704-1.41l0.726-1.451l0.768-1.535   l0.769-1.537l0.812-1.58l0.789-1.621l0.832-1.621l0.812-1.666l0.811-1.621l0.833-1.623l0.789-1.621l0.812-1.58l0.768-1.578   l0.769-1.494l0.726-1.494l0.704-1.365l0.662-1.365l0.64-1.281l0.598-1.195l0.555-1.066l0.491-1.025l0.448-0.854l0.384-0.811   l0.32-0.641l0.277-0.512l0.192-0.385l0.106-0.256c0.085,0,0.214,0.256,0.214,0.256l0.213,0.385l0.277,0.512l0.363,0.641   l0.405,0.811l0.491,0.854l0.533,1.025l0.598,1.066l0.64,1.195l0.684,1.281l0.726,1.365l0.747,1.365l0.811,1.494l0.811,1.494   l0.833,1.578l0.875,1.58l0.854,1.621l0.896,1.623l0.854,1.621l0.896,1.666l0.896,1.621l0.854,1.621l0.854,1.58l0.854,1.537   l0.811,1.535l0.812,1.451l0.768,1.41l0.684,1.365l0.726,1.238l0.64,1.195l0.555,1.109l0.556,0.98l0.469,0.896l0.428,0.77   l0.341,0.682l0.299,0.512l0.214,0.385l0.128,0.213c0.171,0.086,0.299,0.086,0.299,0.086c0.171,0,0.384,0,0.384,0h0.256h0.299h0.342   h0.384h0.385h0.427h0.469h0.47h0.513h0.512h0.555h0.513h0.555h0.555h0.555h0.556h0.555h0.555h0.555h0.513h0.512h0.513h0.469h0.47   h0.427h0.385h0.384h0.342h0.298h0.257h0.213c0.214,0,0.342,0,0.342,0C333.529,644.25,303.823,591.836,303.823,591.836z"
   id="path19"
   style="stroke:none;fill:#000000;fill-opacity:1" />
</g>
<g
   id="LWPOLYLINE_6_"
   style="stroke:none;fill:#000000;fill-opacity:1">
	
		<path
   fill="none"
   stroke="#000000"
   stroke-width="0.7087"
   stroke-linecap="round"
   stroke-linejoin="round"
   stroke-miterlimit="10"
   d="   M358.029,542.881c-0.214,0-0.342,0-0.342,0c-0.213,0-0.427,0-0.427,0h-0.256h-0.256h-0.299h-0.342h-0.384h-0.342h-0.427h-0.384   h-0.427h-0.427h-0.47h-0.427h-0.47h-0.47h-0.47h-0.427h-0.469h-0.428h-0.427h-0.427h-0.427h-0.384h-0.384H347.7h-0.342h-0.299   h-0.299h-0.256c-0.213,0-0.384,0-0.384,0c-0.171,0-0.256,0-0.256,0c-0.086,0.17-0.086,0.725-0.086,0.725v0.896v1.195v1.537v1.793   v2.047v2.348v2.52v2.773v2.945v3.115v3.244v3.414v3.5v3.629v3.67v3.756v3.758v3.797v3.842v3.756v3.756v3.672v3.627v3.5v3.416v3.242   v3.117v2.945v2.773v2.518v2.348v2.049v1.793v1.537v1.195v0.896v0.555c0.171,0.17,0.342,0.17,0.342,0.17c0.171,0,0.384,0,0.384,0   h0.256h0.299h0.299h0.342h0.342h0.384h0.384h0.427h0.427h0.427h0.428h0.469h0.427h0.47h0.47h0.47h0.427h0.47h0.427h0.427h0.384   h0.427h0.342h0.384h0.342h0.299h0.256h0.256c0.214,0,0.427,0,0.427,0c0.128,0,0.214,0,0.214,0   C358.029,644.25,358.029,542.881,358.029,542.881z"
   id="path22"
   style="stroke:none;fill:#000000;fill-opacity:1" />
</g>
<g
   id="LWPOLYLINE_7_"
   style="stroke:none;fill:#000000;fill-opacity:1">
	
		<path
   fill="none"
   stroke="#000000"
   stroke-width="0.7087"
   stroke-linecap="round"
   stroke-linejoin="round"
   stroke-miterlimit="10"
   d="   M375.486,613.689l-0.043,0.727l-0.085,0.811l-0.043,0.811l-0.043,0.854v0.939v0.939v0.98l0.043,0.982l0.043,1.023l0.085,1.025   l0.128,1.066l0.171,1.068l0.171,1.066l0.213,1.066l0.257,1.068l0.341,1.109l0.342,1.066l0.427,1.066l0.427,1.025l0.513,1.066   l0.597,1.025l0.598,0.98l0.726,0.982l0.726,0.939l0.854,0.939l0.896,0.895l0.982,0.812l1.024,0.811l1.109,0.768l1.237,0.727   l1.281,0.641l1.365,0.596l1.494,0.557l1.536,0.469l1.665,0.426l1.75,0.342l1.878,0.299l1.964,0.172l2.048,0.127l2.177,0.043h1.195   l1.152-0.043l1.152-0.084l1.195-0.086l1.152-0.129l1.11-0.127l1.152-0.215l1.109-0.213l1.109-0.213l1.11-0.299l1.066-0.299   l1.024-0.342l1.067-0.385l1.024-0.426l0.981-0.428l0.982-0.512l0.938-0.512l0.896-0.555l0.896-0.598l0.896-0.641l0.811-0.684   l0.811-0.725l0.769-0.727l0.769-0.811l0.683-0.854l0.683-0.854l0.641-0.939l0.598-0.98l0.555-1.025l0.513-1.023l0.469-1.109   l0.427-1.152l0.385-1.195l0.299-1.238l0.299-1.324l0.256-1.322l0.171-1.408l0.128-1.451l0.085-1.494l0.043-1.537l-0.085-2.348   l-0.257-2.262l-0.384-2.092l-0.512-2.006l-0.684-1.877l-0.811-1.75l-0.896-1.707l-1.024-1.58l-1.109-1.494l-1.195-1.408   l-1.323-1.324l-1.366-1.279l-1.408-1.195l-1.494-1.152l-1.579-1.066l-1.579-1.025l-1.622-1.023l-1.622-0.939l-1.664-0.939   l-1.665-0.939l-1.707-0.896l-1.665-0.854l-1.621-0.896l-1.622-0.854l-1.579-0.896l-1.537-0.895l-1.494-0.896l-1.451-0.939   l-1.365-0.939l-1.28-1.023l-1.238-1.025l-1.109-1.066l-1.024-1.152l-0.896-1.152l-0.811-1.281l-0.641-1.322l-0.555-1.367   l-0.385-1.494l-0.256-1.578l-0.085-1.623l0.042-0.811l0.043-0.725l0.043-0.727l0.128-0.725l0.128-0.684l0.128-0.641l0.171-0.639   l0.214-0.641l0.213-0.598l0.256-0.555l0.257-0.555l0.299-0.557l0.298-0.512l0.342-0.512l0.342-0.469l0.384-0.428l0.384-0.426   l0.428-0.428l0.384-0.385l0.47-0.383l0.427-0.342l0.47-0.342l0.469-0.299l0.513-0.299l0.47-0.256l0.512-0.256l0.555-0.256   l0.513-0.215l0.555-0.17l0.555-0.213l0.555-0.172l0.555-0.127l0.556-0.129l0.597-0.127l0.556-0.086l0.598-0.043l0.597-0.086   l0.556-0.041h0.598l0.597-0.043l0.854,0.043l0.811,0.041l0.769,0.043l0.726,0.129l0.726,0.127l0.726,0.129l0.64,0.213l0.641,0.213   l0.641,0.215l0.597,0.256l0.556,0.299l0.555,0.299l0.512,0.342l0.47,0.34l0.47,0.385l0.47,0.385l0.384,0.426l0.427,0.428   l0.384,0.469l0.342,0.471l0.342,0.512l0.299,0.512l0.299,0.555l0.256,0.555l0.256,0.555l0.256,0.598l0.214,0.641l0.171,0.598   l0.17,0.641l0.171,0.684l0.171,0.639l0.086,0.684l0.128,0.727l0.085,0.725l0.085,0.684l0.086,0.768l0.043,0.727v0.768l0.042,0.768   v0.811c0.214,0,0.385,0,0.385,0c0.17,0,0.427,0,0.427,0h0.256h0.299h0.342h0.341h0.385h0.384h0.427h0.47h0.427h0.47h0.469h0.513   h0.47h0.512h0.47h0.512h0.47h0.47h0.47h0.469h0.427h0.428h0.384h0.384h0.385h0.299h0.299h0.298h0.214c0.214,0,0.342,0,0.342,0   c0.213,0,0.256-1.492,0.256-1.492v-1.451l-0.043-1.41l-0.043-1.365l-0.128-1.322l-0.17-1.281l-0.214-1.238l-0.256-1.195   l-0.256-1.152l-0.342-1.109l-0.342-1.066l-0.384-1.025l-0.47-1.023l-0.47-0.939l-0.512-0.896l-0.513-0.896l-0.598-0.854   l-0.597-0.768l-0.684-0.768l-0.683-0.727l-0.726-0.684l-0.726-0.639l-0.811-0.641l-0.812-0.555l-0.854-0.555l-0.896-0.471   l-0.938-0.469l-0.939-0.428l-0.981-0.426l-1.024-0.342l-1.024-0.299l-1.067-0.299l-1.109-0.256l-1.152-0.213l-1.152-0.215   l-1.195-0.127l-1.195-0.129l-1.237-0.084l-1.281-0.043h-1.322h-1.238l-1.195,0.043l-1.237,0.084l-1.195,0.129l-1.152,0.127   l-1.152,0.215l-1.152,0.213l-1.11,0.213l-1.109,0.299l-1.109,0.299l-1.024,0.385l-1.067,0.383l-0.981,0.385l-0.981,0.471   l-0.982,0.469l-0.938,0.512l-0.896,0.555l-0.896,0.598l-0.811,0.598l-0.854,0.684l-0.769,0.682l-0.769,0.727l-0.726,0.768   l-0.683,0.77l-0.641,0.854l-0.64,0.854l-0.556,0.896l-0.555,0.938l-0.512,0.939l-0.47,1.025l-0.427,1.023l-0.384,1.068   l-0.342,1.109l-0.299,1.152l-0.256,1.195l-0.214,1.195l-0.171,1.279l-0.128,1.281l-0.042,1.322l-0.043,1.365l0.085,2.221   l0.256,2.092l0.385,2.006l0.512,1.92l0.684,1.793l0.811,1.664l0.896,1.623l1.024,1.494l1.109,1.451l1.195,1.322l1.323,1.281   l1.365,1.236l1.409,1.152l1.494,1.111l1.579,1.066l1.579,1.023l1.622,0.982l1.622,0.939l1.664,0.896l1.665,0.896l1.664,0.896   l1.665,0.854l1.664,0.854l1.622,0.854l1.579,0.896l1.537,0.854l1.493,0.896l1.451,0.896l1.366,0.98l1.28,0.939l1.238,1.023   l1.109,1.068l1.024,1.109l0.896,1.152l0.811,1.195l0.641,1.279l0.555,1.367l0.384,1.408l0.257,1.537l0.085,1.578l-0.043,0.896   l-0.042,0.896l-0.043,0.811l-0.128,0.811l-0.128,0.812l-0.128,0.768l-0.214,0.727l-0.171,0.682l-0.256,0.684l-0.256,0.684   l-0.256,0.596l-0.299,0.598l-0.342,0.598l-0.342,0.555l-0.384,0.514l-0.384,0.512l-0.385,0.469l-0.427,0.428l-0.47,0.469   l-0.469,0.385l-0.47,0.385l-0.513,0.34L415.181,632l-0.513,0.342l-0.555,0.299l-0.598,0.256l-0.555,0.256l-0.598,0.215   l-0.598,0.213l-0.64,0.213l-0.641,0.172l-0.64,0.127l-0.641,0.129l-0.683,0.127l-0.684,0.086l-0.683,0.086l-0.683,0.041   l-0.726,0.043l-0.684,0.043h-0.726h-0.597l-0.598-0.043l-0.598-0.043l-0.598-0.041l-0.598-0.086l-0.598-0.086l-0.555-0.127   l-0.598-0.129l-0.598-0.17l-0.598-0.172l-0.555-0.213l-0.555-0.213l-0.555-0.256l-0.555-0.258l-0.556-0.299l-0.555-0.297   l-0.512-0.342l-0.513-0.342l-0.47-0.385l-0.512-0.426l-0.47-0.428l-0.427-0.469l-0.427-0.514l-0.427-0.512l-0.427-0.555   l-0.384-0.555l-0.342-0.641l-0.342-0.641l-0.299-0.639l-0.299-0.727l-0.299-0.725l-0.213-0.727l-0.256-0.811l-0.171-0.811   l-0.171-0.854l-0.128-0.896l-0.128-0.939l-0.086-0.982l-0.042-0.98v-1.025c0-0.213,0-0.256,0-0.256c0-0.213,0-0.299,0-0.299   c0-0.17,0-0.256,0-0.256c0-0.213,0-0.299,0-0.299c0-0.213,0-0.299,0-0.299c0-0.213,0-0.299,0-0.299c0-0.17,0-0.256,0-0.256   c0-0.17,0-0.256,0-0.256c0-0.213,0-0.256,0-0.256C387.736,613.689,375.486,613.689,375.486,613.689z"
   id="path25"
   style="stroke:none;fill:#000000;fill-opacity:1" />
</g>
<g
   id="LWPOLYLINE_8_"
   style="stroke:none;fill:#000000;fill-opacity:1">
	
		<path
   fill="none"
   stroke="#000000"
   stroke-width="0.7087"
   stroke-linecap="round"
   stroke-linejoin="round"
   stroke-miterlimit="10"
   d="   M254.866,274.516l0.171,2.135l0.234,2.092l0.299,2.027l0.385,2.006l0.448,1.92l0.512,1.9l0.576,1.834l0.641,1.793l0.704,1.729   l0.747,1.688l0.832,1.643l0.875,1.578l0.96,1.537l0.982,1.473l1.066,1.43l1.11,1.367l1.174,1.322l1.216,1.26l1.26,1.215   l1.323,1.152l1.365,1.111l1.408,1.045l1.473,0.982l1.516,0.959l1.536,0.875l1.601,0.834l1.644,0.768l1.686,0.725l1.708,0.662   l1.771,0.598l1.792,0.555l1.836,0.49l1.878,0.428l1.899,0.385l1.92,0.32l1.985,0.277l1.984,0.191l2.027,0.148l2.07,0.086   l2.092,0.043l2.731-0.064l2.646-0.127l2.646-0.236l2.562-0.318l2.518-0.428l2.476-0.49l2.434-0.576l2.348-0.662l2.305-0.768   l2.219-0.812l2.22-0.916l2.092-0.982l2.091-1.066l2.007-1.131l1.92-1.195l1.879-1.281l1.792-1.344l1.75-1.41l1.665-1.492   l1.622-1.537l1.536-1.602l1.451-1.664l1.408-1.729l1.323-1.771l1.28-1.836l1.153-1.898l1.109-1.941l1.024-2.006l0.981-2.027   l0.854-2.092l0.812-2.156l0.683-2.176l0.641-2.221l0.555-2.262l0.47-2.305l0.427-2.348l0.299-2.369l0.213-2.412l0.128-2.453   l0.043-2.477l-0.043-2.219l-0.085-2.197l-0.171-2.199l-0.214-2.176l-0.256-2.135l-0.341-2.135l-0.428-2.09l-0.469-2.07   l-0.513-2.049l-0.598-2.006l-0.683-1.965l-0.726-1.941l-0.769-1.898l-0.854-1.857l-0.896-1.814l-0.981-1.771l-1.067-1.729   l-1.066-1.664l-1.195-1.623l-1.238-1.578l-1.28-1.516l-1.365-1.451l-1.409-1.387l-1.493-1.346l-1.537-1.258l-1.622-1.195   l-1.664-1.131l-1.75-1.068l-1.793-1.002l-1.878-0.896l-1.963-0.854l-2.007-0.746l-2.049-0.684l-2.134-0.598l-2.22-0.512   l-2.262-0.406l-2.305-0.342l-2.391-0.234l-2.476-0.148l-2.518-0.043l-1.494,0.021l-1.451,0.043l-1.451,0.084l-1.366,0.129   l-1.365,0.148l-1.323,0.172l-1.302,0.213l-1.281,0.234l-1.237,0.256l-1.195,0.299l-1.174,0.299l-1.131,0.342l-1.131,0.342   l-1.067,0.385l-1.046,0.383l-1.024,0.428l-0.981,0.426l-0.96,0.449l-0.939,0.447l-0.896,0.471l-0.875,0.469l-0.832,0.49   l-0.811,0.514l-0.79,0.512l-0.747,0.512l-0.726,0.512l-0.704,0.533l-0.661,0.514l-0.641,0.533l-0.619,0.533l-0.576,0.533   l-0.555,0.512l-0.533,0.535l-0.513,0.512l-0.47,0.512l-0.448,0.512l-0.427,0.492l-0.384,0.49l-0.362,0.469l-0.342,0.471   c0-0.107,0.021-0.406,0.021-0.406l0.021-0.469l0.042-0.662l0.064-0.832l0.063-0.982l0.064-1.109l0.085-1.26l0.086-1.387   l0.085-1.494l0.107-1.6l0.106-1.686l0.106-1.793l0.128-1.836l0.128-1.898l0.107-1.965l0.128-2.006l0.128-2.027l0.128-2.049   l0.149-2.07l0.128-2.07l0.128-2.049l0.128-2.027l0.128-2.006l0.128-1.963l0.107-1.898l0.128-1.857l0.106-1.771l0.106-1.686   l0.107-1.602l0.085-1.492l0.106-1.389l0.064-1.258l0.085-1.133l0.064-0.98l0.043-0.811l0.042-0.662l0.021-0.49l0.021-0.299   c0.149-0.086,0.555-0.086,0.555-0.086h0.641h0.896h1.109h1.323h1.515h1.708h1.856h2.027h2.155h2.283h2.391h2.497h2.561h2.646h2.689   h2.774h2.731h2.816h2.774h2.774h2.731h2.689h2.646h2.604h2.476h2.39h2.306h2.134h2.006h1.878h1.707h1.494h1.323h1.109h0.896h0.641   h0.427c0.128-0.15,0.128-0.32,0.128-0.32v-0.234v-0.277v-0.342v-0.406v-0.426v-0.49v-0.514v-0.555v-0.598v-0.619v-0.639v-0.684   v-0.684v-0.682v-0.727v-0.703v-0.727V154.9v-0.705v-0.727v-0.682v-0.684v-0.684v-0.639v-0.619v-0.598v-0.555v-0.512v-0.492v-0.426   v-0.406v-0.342v-0.277v-0.234c0-0.17,0-0.277,0-0.277C356.962,146,356.45,146,356.45,146h-0.854h-1.11h-1.451h-1.707h-1.921h-2.177   h-2.39h-2.604h-2.773h-2.903h-3.072h-3.201h-3.287h-3.414h-3.458h-3.499h-3.543H309.5h-3.564h-3.563h-3.521h-3.457H292h-3.308   h-3.18h-3.073h-2.924h-2.774h-2.582h-2.391h-2.177h-1.942h-1.707h-1.43h-1.131h-0.833h-0.512c-0.192,0.191-0.214,0.748-0.214,0.748   l-0.042,0.875l-0.043,1.193l-0.064,1.516l-0.085,1.793l-0.085,2.049l-0.107,2.283l-0.106,2.539l-0.106,2.711l-0.128,2.924   l-0.149,3.094l-0.128,3.244l-0.149,3.373l-0.149,3.479l-0.171,3.584l-0.149,3.65l-0.171,3.713l-0.149,3.734l-0.171,3.777   l-0.171,3.756l-0.149,3.756l-0.17,3.715l-0.149,3.648l-0.149,3.564l-0.171,3.5l-0.128,3.371l-0.149,3.223l-0.128,3.096   l-0.129,2.922l-0.128,2.732l-0.106,2.518l-0.106,2.307l-0.086,2.047l-0.063,1.771l-0.086,1.516l-0.042,1.195l-0.043,0.896   l-0.021,0.533c0.149,0.191,0.342,0.191,0.342,0.191h0.256h0.342h0.384h0.448h0.491h0.555h0.598h0.618h0.684h0.704h0.726h0.769   h0.768h0.79h0.811h0.812h0.832h0.811h0.812h0.811h0.79h0.789h0.747h0.747h0.704h0.662h0.64h0.576h0.556h0.512H278h0.405h0.32h0.256   c0.192,0,0.32,0,0.32,0c0.043,0,0.385-1.109,0.385-1.109l0.362-1.066l0.384-1.045l0.406-1.025l0.427-1.002l0.448-0.961l0.469-0.939   l0.513-0.918l0.512-0.896l0.534-0.854l0.576-0.832l0.576-0.811l0.619-0.789l0.618-0.748l0.662-0.725l0.683-0.705l0.683-0.662   l0.726-0.639l0.726-0.619l0.769-0.598l0.769-0.555l0.811-0.535l0.832-0.49l0.833-0.49l0.875-0.449l0.875-0.404l0.917-0.406   l0.918-0.363l0.96-0.318l0.961-0.32l0.981-0.277l1.024-0.236l1.024-0.234l1.046-0.17l1.067-0.172l1.109-0.127l1.088-0.107   l1.152-0.064l1.153-0.041l1.152-0.021l1.493,0.021l1.451,0.062l1.451,0.129l1.409,0.17l1.365,0.215l1.323,0.277l1.323,0.32   l1.28,0.361l1.238,0.406l1.195,0.447l1.194,0.514l1.152,0.533l1.11,0.598l1.066,0.639l1.024,0.705l0.982,0.727l0.981,0.768   l0.938,0.832l0.896,0.875l0.854,0.896l0.812,0.961l0.769,1.002l0.726,1.047l0.726,1.088l0.64,1.131l0.641,1.174l0.598,1.217   l0.512,1.258l0.513,1.303l0.469,1.344l0.427,1.389l0.342,1.43l0.342,1.451l0.299,1.514l0.256,1.559l0.171,1.58l0.171,1.643   l0.128,1.664l0.042,1.707l0.043,1.75l-0.043,1.516l-0.042,1.494l-0.086,1.473l-0.17,1.494l-0.171,1.451l-0.214,1.451l-0.256,1.43   l-0.299,1.408l-0.342,1.408l-0.384,1.367l-0.427,1.365l-0.47,1.322l-0.512,1.303l-0.556,1.279l-0.597,1.238l-0.641,1.238   l-0.683,1.174l-0.726,1.152l-0.769,1.131l-0.811,1.088l-0.854,1.047l-0.896,1.002l-0.982,0.961l-0.981,0.918l-1.024,0.896   l-1.067,0.832l-1.152,0.789l-1.152,0.727l-1.237,0.682l-1.28,0.641l-1.323,0.598l-1.323,0.512l-1.409,0.492l-1.451,0.404   l-1.536,0.363l-1.536,0.277l-1.622,0.234l-1.622,0.172l-1.707,0.105l-1.75,0.021h-0.896l-0.939-0.043l-0.938-0.062l-0.961-0.107   l-0.938-0.107l-0.939-0.148l-0.96-0.193l-0.939-0.191l-0.938-0.234l-0.961-0.277l-0.917-0.277l-0.939-0.32l-0.918-0.363   l-0.917-0.383l-0.896-0.406l-0.875-0.449l-0.875-0.49l-0.854-0.512l-0.812-0.533l-0.832-0.576l-0.789-0.598l-0.769-0.641   l-0.747-0.684l-0.704-0.703l-0.704-0.748l-0.662-0.768l-0.619-0.811l-0.618-0.832l-0.555-0.896l-0.534-0.918l-0.49-0.939   l-0.448-1.002l-0.427-1.025l-0.363-1.045l-0.342-1.111l-0.277-1.131l-0.234-1.174l-0.192-1.215l-0.149-1.26l-0.085-1.281H254.866z"
   id="path28"
   style="stroke:none;fill:#000000;fill-opacity:1" />
</g>
</svg>