<?xml version="1.0" encoding="UTF-8" standalone="no"?>
<!-- Generator: Adobe Illustrator 16.0.1, SVG Export Plug-In . SVG Version: 6.00 Build 0)  -->

<svg
   xmlns:dc="http://purl.org/dc/elements/1.1/"
   xmlns:cc="http://creativecommons.org/ns#"
   xmlns:rdf="http://www.w3.org/1999/02/22-rdf-syntax-ns#"
   xmlns:svg="http://www.w3.org/2000/svg"
   xmlns="http://www.w3.org/2000/svg"
   xmlns:sodipodi="http://sodipodi.sourceforge.net/DTD/sodipodi-0.dtd"
   xmlns:inkscape="http://www.inkscape.org/namespaces/inkscape"
   version="1.0"
   id="_x31_"
   x="0px"
   y="0px"
   width="612px"
   height="792px"
   viewBox="0 0 612 792"
   enable-background="new 0 0 612 792"
   xml:space="preserve"
   inkscape:version="0.48.2 r9819"
   sodipodi:docname="7040.svg"><metadata
   id="metadata171"><rdf:RDF><cc:Work
       rdf:about=""><dc:format>image/svg+xml</dc:format><dc:type
         rdf:resource="http://purl.org/dc/dcmitype/StillImage" /></cc:Work></rdf:RDF></metadata><defs
   id="defs169" /><sodipodi:namedview
   pagecolor="#ffffff"
   bordercolor="#666666"
   borderopacity="1"
   objecttolerance="10"
   gridtolerance="10"
   guidetolerance="10"
   inkscape:pageopacity="0"
   inkscape:pageshadow="2"
   inkscape:window-width="1920"
   inkscape:window-height="1068"
   id="namedview167"
   showgrid="false"
   inkscape:zoom="0.84281414"
   inkscape:cx="468.44743"
   inkscape:cy="288.62536"
   inkscape:window-x="0"
   inkscape:window-y="0"
   inkscape:window-maximized="1"
   inkscape:current-layer="_x31_" />
<g
   id="LWPOLYLINE">
	
		
</g>

<g
   id="LWPOLYLINE_1_">
	
		
</g>

<g
   id="LWPOLYLINE_2_">
	
		
</g>

<g
   id="LWPOLYLINE_3_">
	
		
</g>



<g
   id="LWPOLYLINE_4_">
	
		
</g>

<g
   id="LWPOLYLINE_5_">
	
		
</g>

<g
   id="LWPOLYLINE_6_">
	
		
</g>

<g
   id="LWPOLYLINE_7_"
   style="stroke:none;fill:#000000;fill-opacity:1">
	
		<path
   style="fill:#000000;stroke:none;stroke-width:0.02000000000000000;stroke-linecap:round;stroke-linejoin:round;stroke-miterlimit:10;fill-opacity:1"
   d="m 442.582,588.078 c 1.79486,28.60215 38.97927,44.99757 61.31429,27.12151 17.51287,-11.63775 15.88908,-33.79568 18.52797,-52.13701 7.41102,0.0175 14.82203,0.0349 22.23305,0.0524 -1.83228,19.18144 -0.88944,40.24039 -13.25531,56.4011 -16.78176,25.00077 -52.75442,33.98677 -79.23,19.554 -18.09093,-9.10881 -30.89651,-27.59907 -33.301,-47.687 L 404.059,463.771 c -1.0002,-29.0538 -38.30047,-46.74346 -61.43675,-29.22513 -9.3396,6.36547 -15.63577,16.91206 -16.78125,28.16013 l -15.986,128.677 c -3.20691,29.95542 -30.63338,54.7585 -60.82,54.613 -31.02509,0.88896 -59.2103,-23.7488 -62.58,-54.613 L 170.523,463.771 c -1.53682,-29.02824 -37.17593,-45.82131 -60.56194,-28.7646 -17.647459,11.24106 -16.762986,33.4813 -21.343475,51.55133 -7.603284,0 -15.206568,0 -22.809852,0 1.657089,-9.40658 3.314178,-18.81315 4.971267,-28.21973 3.332081,-29.80781 31.10866,-53.81215 60.955,-53.549 30.34902,-1.01562 59.1161,23.19297 62.446,53.549 l 14.892,129.74 c 1.74066,29.05225 39.49476,45.66554 62.16579,27.57124 9.17416,-6.59742 15.20185,-17.3054 16.02621,-28.58224 l 15.931,-128.729 c 3.39367,-30.19049 31.83031,-54.38001 62.075,-53.549 30.18094,-0.31023 57.85582,23.40429 61.328,53.549 z"
   id="path70"
   inkscape:connector-curvature="0"
   sodipodi:nodetypes="ccccccccccccccccccccccccccc" />
</g>



















<path
   style="fill:#000000;fill-opacity:1;stroke:none"
   d="m 166.15776,288.82458 c -24.67163,-57.59216 -33.93524,-78.03587 -35.36021,-78.03587 -1.38472,0 -4.64047,6.45971 -11.51162,22.84014 l -9.58082,22.84015 -11.784423,0 c -6.481433,0 -11.567681,-0.40044 -11.302774,-0.88987 0.264908,-0.48943 10.299166,-24.24912 22.298347,-52.79931 11.99919,-28.55018 22.10166,-51.90942 22.44993,-51.90942 0.34827,0 15.42196,34.57167 33.4971,76.82595 19.22428,44.94063 33.56561,76.97485 34.55466,77.18471 1.20666,0.25604 11.13605,-21.74119 34.67869,-76.82595 18.14334,-42.45159 33.29921,-77.18471 33.6797,-77.18471 0.38049,0 15.44359,34.57167 33.47357,76.82595 20.17866,47.28983 33.4565,76.96334 34.53677,77.1833 1.28857,0.26237 10.67617,-20.5321 35.32104,-78.2397 25.98053,-60.83512 33.79452,-78.07646 34.57715,-76.29342 0.55612,1.26699 15.61067,36.45187 33.45455,78.18863 17.84388,41.73677 32.95862,76.05675 33.58832,76.26666 0.62969,0.20989 5.94582,-9.91171 11.81361,-22.49247 l 10.66871,-22.87409 11.36984,-0.33831 11.36984,-0.33831 -14.80412,34.74684 c -8.14226,19.11077 -18.04821,42.48877 -22.01321,51.95111 -3.96501,9.46235 -7.5433,17.58803 -7.95178,18.05708 -0.40848,0.46905 -15.61707,-33.86174 -33.79688,-76.29061 -24.65871,-57.54966 -33.51064,-77.05338 -34.85132,-76.78889 -1.13911,0.22472 -13.66932,28.15851 -34.22154,76.29061 -17.83342,41.76485 -32.85652,76.91758 -33.38464,78.11719 -0.71364,1.62095 -9.53004,-17.88083 -34.32933,-75.93608 -18.35299,-42.96445 -34.01991,-78.11718 -34.81535,-78.11718 -0.79545,0 -16.04877,34.17123 -33.89625,75.93607 -17.84749,41.76485 -32.86582,76.88099 -33.37406,78.03588 -0.66561,1.51248 -10.27442,-19.72714 -34.3535,-75.93608 l 0,0 z"
   id="path3916"
   inkscape:connector-curvature="0" /></svg>