<?xml version="1.0" encoding="UTF-8" standalone="no"?>
<!-- Generator: Adobe Illustrator 16.0.1, SVG Export Plug-In . SVG Version: 6.00 Build 0)  -->

<svg
   xmlns:dc="http://purl.org/dc/elements/1.1/"
   xmlns:cc="http://creativecommons.org/ns#"
   xmlns:rdf="http://www.w3.org/1999/02/22-rdf-syntax-ns#"
   xmlns:svg="http://www.w3.org/2000/svg"
   xmlns="http://www.w3.org/2000/svg"
   xmlns:sodipodi="http://sodipodi.sourceforge.net/DTD/sodipodi-0.dtd"
   xmlns:inkscape="http://www.inkscape.org/namespaces/inkscape"
   version="1.0"
   id="_x31_"
   x="0px"
   y="0px"
   width="612px"
   height="792px"
   viewBox="0 0 612 792"
   enable-background="new 0 0 612 792"
   xml:space="preserve"
   inkscape:version="0.48.2 r9819"
   sodipodi:docname="7042.svg"><metadata
   id="metadata61"><rdf:RDF><cc:Work
       rdf:about=""><dc:format>image/svg+xml</dc:format><dc:type
         rdf:resource="http://purl.org/dc/dcmitype/StillImage" /></cc:Work></rdf:RDF></metadata><defs
   id="defs59" /><sodipodi:namedview
   pagecolor="#ffffff"
   bordercolor="#666666"
   borderopacity="1"
   objecttolerance="10"
   gridtolerance="10"
   guidetolerance="10"
   inkscape:pageopacity="0"
   inkscape:pageshadow="2"
   inkscape:window-width="1920"
   inkscape:window-height="1068"
   id="namedview57"
   showgrid="false"
   inkscape:zoom="1.1919192"
   inkscape:cx="505.6033"
   inkscape:cy="269.60628"
   inkscape:window-x="0"
   inkscape:window-y="0"
   inkscape:window-maximized="1"
   inkscape:current-layer="_x31_" />
<g
   id="LWPOLYLINE"
   style="stroke:none;fill:#000000;fill-opacity:1">
	
		<path
   style="fill:#000000;stroke:none;stroke-width:0.70870000000000000;stroke-linecap:round;stroke-linejoin:round;stroke-miterlimit:10;fill-opacity:1"
   d="M 285.21875 399.65625 L 283.53125 399.6875 L 281.84375 399.6875 L 280.125 399.78125 L 278.4375 399.90625 L 276.71875 400.03125 L 275.0625 400.1875 L 273.375 400.40625 L 271.6875 400.59375 L 270 400.875 L 268.34375 401.15625 L 266.65625 401.4375 L 265 401.78125 L 263.34375 402.15625 L 261.6875 402.5625 L 260.03125 402.96875 L 258.40625 403.4375 L 256.78125 403.9375 L 255.15625 404.46875 L 253.5625 404.96875 L 251.9375 405.5625 L 250.375 406.15625 L 248.78125 406.78125 L 247.21875 407.4375 L 245.65625 408.125 L 244.09375 408.84375 L 242.5625 409.5625 L 241.03125 410.34375 L 239.53125 411.125 L 238.0625 411.9375 L 236.5625 412.78125 L 235.09375 413.625 L 233.65625 414.53125 L 232.21875 415.4375 L 230.8125 416.40625 L 229.40625 417.34375 L 228.03125 418.375 L 226.65625 419.375 L 225.3125 420.40625 L 224 421.46875 L 222.65625 422.5625 L 221.375 423.65625 L 220.125 424.78125 L 218.875 425.96875 L 217.625 427.15625 L 216.40625 428.34375 L 215.21875 429.5625 L 214.0625 430.78125 L 212.90625 432.0625 L 211.78125 433.34375 L 210.65625 434.625 L 209.59375 435.9375 L 208.53125 437.28125 L 207.5 438.625 L 206.5 440 L 205.5 441.40625 L 204.5625 442.78125 L 203.59375 444.25 L 202.6875 445.6875 L 201.8125 447.125 L 200.9375 448.59375 L 200.125 450.09375 L 199.3125 451.59375 L 198.53125 453.09375 L 197.75 454.6875 L 197.03125 456.1875 L 196.3125 457.75 L 195.65625 459.3125 L 195 460.875 L 194.375 462.5 L 193.78125 464.0625 L 193.21875 465.6875 L 192.65625 467.3125 L 192.15625 468.9375 L 191.6875 470.59375 L 191.21875 472.21875 L 190.78125 473.90625 L 190.40625 475.53125 L 190.03125 477.21875 L 189.6875 478.90625 L 189.40625 480.5625 L 189.09375 482.25 L 188.84375 483.9375 L 188.65625 485.625 L 188.4375 487.34375 L 188.28125 489.03125 L 188.15625 490.71875 L 188.03125 492.46875 L 187.9375 494.125 L 187.90625 495.875 L 187.875 497.5625 L 187.90625 499.3125 L 187.9375 500.96875 L 188.03125 502.71875 L 188.15625 504.40625 L 188.28125 506.125 L 188.4375 507.8125 L 188.65625 509.5 L 188.84375 511.1875 L 189.09375 512.90625 L 189.40625 514.59375 L 189.6875 516.28125 L 190.03125 517.96875 L 190.40625 519.59375 L 190.78125 521.25 L 191.21875 522.9375 L 191.6875 524.5625 L 192.15625 526.1875 L 192.65625 527.8125 L 193.21875 529.4375 L 193.78125 531.0625 L 194.375 532.6875 L 195 534.25 L 195.65625 535.8125 L 196.3125 537.375 L 197.03125 538.9375 L 197.75 540.5 L 198.53125 542 L 199.3125 543.53125 L 200.125 545.03125 L 200.9375 546.53125 L 201.8125 548.03125 L 202.6875 549.46875 L 203.59375 550.9375 L 204.5625 552.3125 L 205.5 553.71875 L 206.5 555.09375 L 207.5 556.5 L 208.53125 557.875 L 209.59375 559.21875 L 210.65625 560.5 L 211.78125 561.8125 L 212.90625 563.09375 L 214.0625 564.375 L 215.21875 565.59375 L 216.40625 566.8125 L 217.625 568.03125 L 218.875 569.1875 L 220.125 570.34375 L 221.375 571.4375 L 222.65625 572.59375 L 224 573.65625 L 225.3125 574.75 L 226.65625 575.78125 L 228.03125 576.78125 L 229.40625 577.78125 L 230.8125 578.75 L 232.21875 579.6875 L 233.65625 580.59375 L 235.09375 581.53125 L 236.5625 582.34375 L 238.0625 583.21875 L 239.53125 584.03125 L 241.03125 584.84375 L 242.5625 585.59375 L 244.09375 586.34375 L 245.65625 587.03125 L 247.21875 587.71875 L 248.78125 588.375 L 250.375 589 L 251.9375 589.59375 L 253.5625 590.15625 L 255.15625 590.6875 L 256.78125 591.21875 L 258.40625 591.6875 L 260.03125 592.125 L 261.6875 592.59375 L 263.34375 593 L 265 593.34375 L 266.65625 593.6875 L 268.34375 594 L 270 594.28125 L 271.6875 594.53125 L 273.375 594.75 L 275.0625 594.96875 L 276.71875 595.09375 L 278.4375 595.28125 L 280.125 595.375 L 281.84375 595.4375 L 283.53125 595.5 L 285.21875 595.5 L 286.9375 595.5 L 288.625 595.4375 L 290.3125 595.375 L 292.03125 595.28125 L 293.71875 595.09375 L 295.40625 594.96875 L 297.09375 594.75 L 298.78125 594.53125 L 300.46875 594.28125 L 302.125 594 L 303.8125 593.6875 L 305.46875 593.34375 L 307.09375 593 L 308.78125 592.59375 L 310.40625 592.125 L 312.03125 591.6875 L 313.71875 591.21875 L 315.34375 590.6875 L 316.90625 590.15625 L 318.53125 589.59375 L 320.09375 589 L 321.71875 588.375 L 323.28125 587.71875 L 324.84375 587.03125 L 326.34375 586.34375 L 327.90625 585.59375 L 329.40625 584.84375 L 330.90625 584.03125 L 332.4375 583.21875 L 333.875 582.34375 L 335.375 581.53125 L 336.84375 580.59375 L 338.21875 579.6875 L 339.65625 578.75 L 341.0625 577.78125 L 342.4375 576.78125 L 343.78125 575.78125 L 345.1875 574.75 L 346.4375 573.65625 L 347.78125 572.59375 L 349.0625 571.4375 L 350.34375 570.34375 L 351.59375 569.1875 L 352.8125 568.03125 L 354.03125 566.8125 L 355.25 565.59375 L 356.40625 564.375 L 357.5625 563.09375 L 358.6875 561.8125 L 359.78125 560.5 L 360.875 559.21875 L 361.9375 557.875 L 362.96875 556.5 L 363.9375 555.09375 L 364.9375 553.71875 L 365.9375 552.3125 L 366.84375 550.9375 L 367.78125 549.46875 L 368.65625 548.03125 L 369.53125 546.53125 L 370.3125 545.03125 L 371.15625 543.53125 L 371.9375 542 L 372.71875 540.5 L 373.46875 538.9375 L 374.15625 537.375 L 374.78125 535.8125 L 375.5 534.25 L 376.0625 532.6875 L 376.6875 531.0625 L 377.21875 529.4375 L 377.8125 527.8125 L 378.3125 526.1875 L 378.78125 524.5625 L 379.25 522.9375 L 379.65625 521.25 L 380.0625 519.59375 L 380.40625 517.96875 L 380.75 516.28125 L 381.0625 514.59375 L 381.34375 512.90625 L 381.625 511.1875 L 381.8125 509.5 L 382.03125 507.8125 L 382.21875 506.125 L 382.3125 504.40625 L 382.4375 502.71875 L 382.5 500.96875 L 382.5625 499.3125 L 382.5625 497.5625 L 382.5625 495.875 L 382.5 494.125 L 382.4375 492.46875 L 382.3125 490.71875 L 382.21875 489.03125 L 382.03125 487.34375 L 381.8125 485.625 L 381.625 483.9375 L 381.34375 482.25 L 381.0625 480.5625 L 380.75 478.90625 L 380.40625 477.21875 L 380.0625 475.53125 L 379.65625 473.90625 L 379.25 472.21875 L 378.78125 470.59375 L 378.3125 468.9375 L 377.8125 467.3125 L 377.21875 465.6875 L 376.6875 464.0625 L 376.0625 462.5 L 375.5 460.875 L 374.78125 459.3125 L 374.15625 457.75 L 373.46875 456.1875 L 372.71875 454.6875 L 371.9375 453.09375 L 371.15625 451.59375 L 370.3125 450.09375 L 369.53125 448.59375 L 368.65625 447.125 L 367.78125 445.6875 L 366.84375 444.25 L 365.9375 442.78125 L 364.9375 441.40625 L 363.9375 440 L 362.96875 438.625 L 361.9375 437.28125 L 360.875 435.9375 L 359.78125 434.625 L 358.6875 433.34375 L 357.5625 432.0625 L 356.40625 430.78125 L 355.25 429.5625 L 354.03125 428.34375 L 352.8125 427.15625 L 351.59375 425.96875 L 350.34375 424.78125 L 349.0625 423.65625 L 347.78125 422.5625 L 346.4375 421.46875 L 345.1875 420.40625 L 343.78125 419.375 L 342.4375 418.375 L 341.0625 417.34375 L 339.65625 416.40625 L 338.21875 415.4375 L 336.84375 414.53125 L 335.375 413.625 L 333.875 412.78125 L 332.4375 411.9375 L 330.90625 411.125 L 329.40625 410.34375 L 327.90625 409.5625 L 326.34375 408.84375 L 324.84375 408.125 L 323.28125 407.4375 L 321.71875 406.78125 L 320.09375 406.15625 L 318.53125 405.5625 L 316.90625 404.96875 L 315.34375 404.46875 L 313.71875 403.9375 L 312.03125 403.4375 L 310.40625 402.96875 L 308.78125 402.5625 L 307.09375 402.15625 L 305.46875 401.78125 L 303.8125 401.4375 L 302.125 401.15625 L 300.46875 400.875 L 298.78125 400.59375 L 297.09375 400.40625 L 295.40625 400.1875 L 293.71875 400.03125 L 292.03125 399.90625 L 290.3125 399.78125 L 288.625 399.6875 L 286.9375 399.6875 L 285.21875 399.65625 z M 284.03125 434.09375 L 284.03125 496.96875 L 346.90625 495.8125 C 346.90625 496.1605 346.96875 496.56275 346.96875 496.96875 C 346.96875 531.68275 318.80425 559.84375 284.03125 559.84375 L 284.03125 496.96875 L 221.15625 495.8125 C 221.79325 461.5035 249.75225 434.09375 284.03125 434.09375 z "
   id="polygon4" />
</g>
<g
   id="LINE">
	
		
</g>
<g
   id="LINE_1_">
	
		
</g>
<g
   id="LINE_2_"
   style="stroke:none;fill:#000000;fill-opacity:1">
	
		<path
   style="fill:#000000;stroke:none;stroke-width:0.70870000000000000;stroke-linecap:round;stroke-linejoin:round;stroke-miterlimit:10;fill-opacity:1"
   d="m 377.80499,515.987 0,-35.64099 210.08399,0 0,35.64099 z"
   id="line13"
   inkscape:connector-curvature="0"
   sodipodi:nodetypes="ccccc" />
</g>
<g
   id="LINE_3_">
	
		
</g>
<g
   id="LINE_4_">
	
		
</g>
<g
   id="LINE_5_">
	
		<path
   style="fill:#000000;stroke:none;stroke-width:0.70870000000000000;stroke-linecap:round;stroke-linejoin:round;stroke-miterlimit:10;fill-opacity:1"
   d="m 83.455002,482.72198 0,-43.87197 100.897998,59.345 -100.897998,59.34601 0,-45.14704 -59.344002,0 0,-29.672 59.344002,0"
   id="line22"
   inkscape:connector-curvature="0"
   sodipodi:nodetypes="cccccccc" />
</g>
<g
   id="LINE_6_">
	
		
</g>
<g
   id="LINE_7_">
	
		
</g>
<g
   id="LINE_8_">
	
		
</g>
<g
   id="LINE_9_">
	
		
</g>
<g
   id="LINE_10_">
	
		
</g>
<g
   id="LINE_11_">
	
		<path
   style="fill:none;stroke:#000000;stroke-width:0.7087;stroke-linecap:round;stroke-linejoin:round;stroke-miterlimit:10"
   d="m 303.04401,195.5 -35.61301,0"
   id="line40" />
</g>
<g
   id="LINE_12_"
   style="stroke:none;fill:#000000;fill-opacity:1">
	
		<path
   style="fill:#000000;stroke:none;stroke-width:0.70870000000000000;stroke-linecap:round;stroke-linejoin:round;stroke-miterlimit:10;fill-opacity:1"
   d="m 267.431,195.5 0.2884,208.36514 35.32461,0.0787 0,-208.4438 z"
   id="line43"
   inkscape:connector-curvature="0"
   sodipodi:nodetypes="ccccc" />
</g>
<g
   id="LWPOLYLINE_1_">
	
		
</g>
<g
   id="LWPOLYLINE_2_">
	
		<path
   fill="none"
   stroke="#000000"
   stroke-width="0.7087"
   stroke-linecap="round"
   stroke-linejoin="round"
   stroke-miterlimit="10"
   d="   M221.155,495.818c-0.667,34.715,26.978,63.402,61.692,64.039c0.406,0,0.811,0,1.188,0v-62.879L221.155,495.818z"
   id="path49" />
</g>
<g
   id="LWPOLYLINE_3_">
	
		
</g>
<g
   id="LWPOLYLINE_4_">
	
		<path
   fill="none"
   stroke="#000000"
   stroke-width="0.7087"
   stroke-linecap="round"
   stroke-linejoin="round"
   stroke-miterlimit="10"
   d="   M346.916,495.818c-0.638-34.309-28.572-61.722-62.882-61.722v62.882L346.916,495.818z"
   id="path55" />
</g>
</svg>