<?xml version="1.0" encoding="UTF-8" standalone="no"?>
<!-- Generator: Adobe Illustrator 16.0.1, SVG Export Plug-In . SVG Version: 6.00 Build 0)  -->

<svg
   xmlns:dc="http://purl.org/dc/elements/1.1/"
   xmlns:cc="http://creativecommons.org/ns#"
   xmlns:rdf="http://www.w3.org/1999/02/22-rdf-syntax-ns#"
   xmlns:svg="http://www.w3.org/2000/svg"
   xmlns="http://www.w3.org/2000/svg"
   xmlns:sodipodi="http://sodipodi.sourceforge.net/DTD/sodipodi-0.dtd"
   xmlns:inkscape="http://www.inkscape.org/namespaces/inkscape"
   version="1.0"
   id="_x31_"
   x="0px"
   y="0px"
   width="612px"
   height="792px"
   viewBox="0 0 612 792"
   enable-background="new 0 0 612 792"
   xml:space="preserve"
   inkscape:version="0.48.2 r9819"
   sodipodi:docname="7043.svg"><metadata
   id="metadata163"><rdf:RDF><cc:Work
       rdf:about=""><dc:format>image/svg+xml</dc:format><dc:type
         rdf:resource="http://purl.org/dc/dcmitype/StillImage" /></cc:Work></rdf:RDF></metadata><defs
   id="defs161" /><sodipodi:namedview
   pagecolor="#ffffff"
   bordercolor="#666666"
   borderopacity="1"
   objecttolerance="10"
   gridtolerance="10"
   guidetolerance="10"
   inkscape:pageopacity="0"
   inkscape:pageshadow="2"
   inkscape:window-width="1920"
   inkscape:window-height="1068"
   id="namedview159"
   showgrid="false"
   inkscape:zoom="0.84281414"
   inkscape:cx="308.39708"
   inkscape:cy="193.7868"
   inkscape:window-x="0"
   inkscape:window-y="0"
   inkscape:window-maximized="1"
   inkscape:current-layer="_x31_" />
<g
   id="LWPOLYLINE_7_"
   style="stroke:none;fill:#000000;fill-opacity:1">
	
		<path
   style="fill:#000000;stroke:none;stroke-width:0.70870000000000000;stroke-linecap:round;stroke-linejoin:round;stroke-miterlimit:10;fill-opacity:1"
   d="M 228.90625 261.1875 C 222.61694 261.08019 216.36915 263.24987 211.71875 268.25 C 208.30509 271.8829 206.22688 276.58735 205.25 281.4375 L 202.71875 287.78125 C 188.72195 287.15252 176.19915 299.00031 176.40625 313.09375 L 176.125 323.21875 C 161.96522 322.55681 148.48955 333.98817 148.46875 349.8125 C 148.29875 381.87867 148.3125 412.66909 148.3125 443.46875 C 147.50081 491.08143 194.62842 532.79378 241.875 524.875 C 281.16134 519.39129 314.27449 483.5926 314.125 443.46875 C 314.125 416.47075 314.11725 389.47576 313.46875 361.84375 C 312.19579 358.63378 311.28699 356.00516 309.53125 353.96875 C 300.70973 346.11201 289.50141 356.77607 282.46875 359.9375 L 282.46875 313.09375 C 282.60443 298.40681 268.83841 287.12692 254.625 287.78125 L 254.625 282.71875 C 253.06326 269.88682 240.91311 261.39236 228.90625 261.1875 z M 230.03125 287.1875 C 232.82128 287.11565 235.61715 289.8626 235.625 295.375 C 235.6405 332.49934 235.627 369.62567 235.75 406.75 C 236.61006 413.10007 248.7652 413.0986 249.5625 406.78125 C 249.5605 375.52925 249.54825 344.322 249.71875 313.6875 C 249.44366 304.21555 260.95856 304.23242 260.90625 314.34375 C 260.92225 351.90042 260.93875 389.47459 260.96875 427.03125 C 261.77791 435.95675 275.31386 435.86191 276.09375 427.03125 C 276.09325 415.63892 276.70419 402.42089 276.84375 392.375 C 279.15649 380.51657 285.11473 379.08762 292.90625 378.65625 C 294.49052 379.85117 293.94718 382.28486 293.84375 383.34375 C 293.84276 402.96158 293.84376 423.21742 293.84375 443.46875 C 294.00276 469.41116 276.41779 493.90062 252.28125 502.96875 C 213.65502 518.706 167.84345 484.24239 168.53125 443.46875 C 168.53125 412.66909 168.531 381.87617 168.5625 351.0625 C 167.69919 341.71596 181.84697 341.77154 181.03125 351.0625 C 181.20125 369.62516 181.21875 388.19509 181.21875 407.40625 C 184.4547 413.95743 192.11774 411.89905 195.125 406.8125 C 195.1415 375.95235 195.15625 345.14216 195.15625 314.25 L 195.15625 309.8125 C 196.73065 302.09524 207.99952 306.23025 207.78125 313.71875 L 207.78125 406.75 C 209.11985 413.18526 222.57854 413.16619 223.875 406.75 L 224.25 406.75 C 224.25 370.048 224.25075 333.36476 224.40625 295.90625 C 224.4403 290.17076 227.24122 287.25935 230.03125 287.1875 z "
   id="polyline85" />
</g><g
   id="LINE_30_"
   style="stroke:none;fill:#000000;fill-opacity:1">
	
		<path
   style="fill:#000000;fill-opacity:1;stroke:none"
   d="m 47.03125,210.5625 c 0,122.77083 0,245.54167 0,368.3125 122.77083,0 245.54167,0 368.3125,0 0,-122.77083 0,-245.54167 0,-368.3125 -122.77083,0 -245.54167,0 -368.3125,0 z M 76.125,239.65625 c 103.375,0 206.75,0 310.125,0 0,103.375 0,206.75 0,310.125 -103.375,0 -206.75,0 -310.125,0 0,-103.375 0,-206.75 0,-310.125 z"
   id="line121"
   inkscape:connector-curvature="0" />
</g><g
   id="LINE">
	
		
</g>
<g
   id="LINE_1_">
	
		
</g>
<g
   id="LINE_2_">
	
		
</g>
<g
   id="LINE_3_">
	
		
</g>
<g
   id="LINE_4_">
	
		
</g>
<g
   id="LINE_5_"
   style="stroke:none;fill:#000000;fill-opacity:1">
	
		<path
   style="fill:#000000;fill-opacity:1;stroke:none"
   d="m 471.04099,183.979 c 0,141.33633 0,282.67265 0,424.00898 -141.33733,0 -282.67466,0 -424.011991,0 0,12.67067 0,25.34135 0,38.01202 150.628331,0 301.256671,0 451.885001,0 22.35301,-82.69533 44.70601,-165.39067 67.05902,-248.086 C 543.62001,313.94267 521.26701,229.97133 498.914,146 c -150.62833,0 -301.25667,0 -451.885001,0 0,12.65967 0,25.31933 0,37.979 141.337331,0 282.674661,0 424.011991,0 z"
   id="line19"
   inkscape:connector-curvature="0" />
</g>
<g
   id="LINE_6_">
	
		
</g>
<g
   id="LINE_7_">
	
		
</g>
<g
   id="LINE_8_">
	
		
</g>
<g
   id="LINE_9_">
	
		
</g>
<g
   id="LINE_10_">
	
		
</g>
<g
   id="LWPOLYLINE">
	
		
</g>
<g
   id="LINE_11_">
	
		
</g>
<g
   id="ARC">
	
		
</g>
<g
   id="LINE_12_">
	
		
</g>
<g
   id="LINE_13_">
	
		
</g>
<g
   id="LWPOLYLINE_1_">
	
		
</g>
<g
   id="LINE_14_">
	
		
</g>
<g
   id="LWPOLYLINE_2_">
	
		
</g>
<g
   id="LINE_15_">
	
		
</g>
<g
   id="LWPOLYLINE_3_">
	
		
</g>
<g
   id="LINE_16_">
	
		
</g>
<g
   id="LWPOLYLINE_4_">
	
		
</g>
<g
   id="LINE_17_">
	
		
</g>
<g
   id="LINE_18_">
	
		
</g>
<g
   id="LWPOLYLINE_5_">
	
		
</g>
<g
   id="LWPOLYLINE_6_">
	
		
</g>


<g
   id="LINE_20_">
	
		
</g>

<g
   id="LINE_22_">
	
		
</g>
<g
   id="LINE_23_">
	
		
</g>




<g
   id="LINE_28_">
	
		
</g>
<g
   id="LINE_29_">
	
		
</g>

<g
   id="LINE_31_">
	
		
</g>
<g
   id="LINE_32_">
	
		
</g>
<g
   id="LINE_33_">
	
		
</g>
<g
   id="LINE_34_">
	
		
</g>
<g
   id="LINE_35_">
	
		
</g>
<g
   id="LWPOLYLINE_8_">
	
		
</g>
<g
   id="LWPOLYLINE_9_">
	
		
</g>
<g
   id="LWPOLYLINE_10_">
	
		
</g>
<g
   id="LWPOLYLINE_11_">
	
		
</g>
<g
   id="LWPOLYLINE_12_">
	
		
</g>
<g
   id="LWPOLYLINE_13_">
	
		
</g>
<g
   id="LWPOLYLINE_14_">
	
		
</g>
</svg>