<?xml version="1.0" encoding="UTF-8" standalone="no"?>
<!-- Generator: Adobe Illustrator 16.0.1, SVG Export Plug-In . SVG Version: 6.00 Build 0)  -->

<svg
   xmlns:dc="http://purl.org/dc/elements/1.1/"
   xmlns:cc="http://creativecommons.org/ns#"
   xmlns:rdf="http://www.w3.org/1999/02/22-rdf-syntax-ns#"
   xmlns:svg="http://www.w3.org/2000/svg"
   xmlns="http://www.w3.org/2000/svg"
   xmlns:sodipodi="http://sodipodi.sourceforge.net/DTD/sodipodi-0.dtd"
   xmlns:inkscape="http://www.inkscape.org/namespaces/inkscape"
   version="1.0"
   id="_x31_"
   x="0px"
   y="0px"
   width="612px"
   height="792px"
   viewBox="0 0 612 792"
   enable-background="new 0 0 612 792"
   xml:space="preserve"
   inkscape:version="0.48.2 r9819"
   sodipodi:docname="7045.svg"><metadata
   id="metadata163"><rdf:RDF><cc:Work
       rdf:about=""><dc:format>image/svg+xml</dc:format><dc:type
         rdf:resource="http://purl.org/dc/dcmitype/StillImage" /></cc:Work></rdf:RDF></metadata><defs
   id="defs161" /><sodipodi:namedview
   pagecolor="#ffffff"
   bordercolor="#666666"
   borderopacity="1"
   objecttolerance="10"
   gridtolerance="10"
   guidetolerance="10"
   inkscape:pageopacity="0"
   inkscape:pageshadow="2"
   inkscape:window-width="1920"
   inkscape:window-height="1071"
   id="namedview159"
   showgrid="false"
   inkscape:zoom="0.84281414"
   inkscape:cx="428.89848"
   inkscape:cy="383.77355"
   inkscape:window-x="0"
   inkscape:window-y="0"
   inkscape:window-maximized="1"
   inkscape:current-layer="_x31_" />
<g
   id="LINE_9_"
   style="stroke:#000000;stroke-opacity:1;fill:#000000;fill-opacity:1">
	
		<path
   style="fill:#000000;stroke:#000000;stroke-width:0.70870000000000000;stroke-linecap:round;stroke-linejoin:round;stroke-miterlimit:10;stroke-opacity:1;fill-opacity:1"
   d="M 152.5 145.5 L 152.125 172.0625 C 115.18 176.7585 86.4795 205.7215 82.1875 242.3125 L 56.5 242.28125 L 56.09375 261.625 L 81.4375 262 C 86.1325 298.9355 115.12825 327.63375 151.71875 331.90625 L 151.6875 358.40625 L 171.03125 358.40625 L 171.40625 331.90625 C 208.41075 327.63325 237.3675 298.93499 242.0625 262 L 267.40625 261.625 L 267 242.28125 L 241.3125 242.3125 C 237.0395 205.722 208.3095 176.758 171.375 172.0625 L 171.03125 145.5 L 152.5 145.5 z M 171.375 192.71875 C 197.1565 196.76425 216.9965 216.8885 221.0625 242.75 L 171.03125 243.09375 L 171.375 192.71875 z M 152.5 261.625 L 152.15625 311.65625 C 126.29575 307.59075 106.171 287.74975 102.125 261.96875 L 152.5 261.625 z M 171.03125 261.625 L 221.375 261.96875 C 217.3295 287.75025 197.236 307.59025 171.375 311.65625 L 171.03125 261.625 z "
   id="line118" />
</g><g
   id="ARC"
   style="stroke:none;fill:#000000;fill-opacity:1">
	
		<path
   style="fill:#000000;stroke:none;stroke-width:0.70870000000000000;stroke-linecap:round;stroke-linejoin:round;stroke-miterlimit:10;fill-opacity:1"
   d="M 387.15625 322.9375 L 386.75 343.65625 C 316.345 348.21425 260.4805 403.74 255.5 474.125 L 234.75 474.53125 L 234.75 493.0625 L 256.25 493.46875 C 260.8175 563.87425 316.384 619.73775 386.75 624.71875 L 387.15625 645.5 L 405.6875 645.5 L 406.09375 624.71875 C 476.45925 619.73775 532.02575 563.87425 536.59375 493.46875 L 557.3125 493.0625 L 557.3125 474.53125 L 537.34375 474.125 C 532.36275 403.74 476.49925 348.21425 406.09375 343.65625 L 405.6875 322.9375 L 387.15625 322.9375 z M 386.75 363.84375 L 386.78125 404.25 C 349.78725 408.523 320.81 437.25249 316.125 474.1875 L 275.6875 474.15625 C 280.609 414.91424 327.489 368.33225 386.75 363.84375 z M 406.5 363.84375 C 465.34801 368.33225 512.25425 414.91424 517.15625 474.15625 L 476.71875 474.1875 C 472.03276 437.25199 443.08101 408.5225 406.5 404.25 L 406.5 363.84375 z M 386.8125 424.5 L 387.15625 474.53125 L 336.78125 474.1875 C 340.83625 448.4155 360.9615 428.5755 386.8125 424.5 z M 406.03125 424.5 C 431.88225 428.5755 452.007 448.4155 456.0625 474.1875 L 405.6875 474.53125 L 406.03125 424.5 z M 387.15625 493.0625 L 386.8125 543.4375 C 361.0405 539.382 341.2005 519.29675 337.125 493.40625 L 387.15625 493.0625 z M 276.46875 493.875 L 316.875 493.875 C 321.167 530.4555 349.877 559.40824 386.8125 564.09375 L 386.75 604.53125 C 327.528 599.62826 280.96725 552.723 276.46875 493.875 z M 476 493.875 L 516.40625 493.875 C 511.89776 552.723 465.31625 599.62826 406.09375 604.53125 L 406.0625 564.09375 C 442.997 559.40774 471.708 530.456 476 493.875 z "
   id="path4" />
</g>
<g
   id="ARC_1_">
	
		
</g>
<g
   id="ARC_2_">
	
		
</g>
<g
   id="ARC_3_">
	
		
</g>
<g
   id="ARC_4_">
	
		
</g>
<g
   id="ARC_5_">
	
		
</g>
<g
   id="ARC_6_">
	
		
</g>
<g
   id="ARC_7_">
	
		
</g>
<g
   id="ARC_8_">
	
		
</g>
<g
   id="ARC_9_">
	
		
</g>
<g
   id="ARC_10_">
	
		
</g>
<g
   id="ARC_11_">
	
		
</g>
<g
   id="ARC_12_">
	
		
</g>
<g
   id="ARC_13_">
	
		
</g>
<g
   id="ARC_14_">
	
		
</g>
<g
   id="LINE">
	
		
</g>
<g
   id="LINE_1_">
	
		
</g>
<g
   id="LINE_2_">
	
		
</g>
<g
   id="LINE_3_">
	
		
</g>
<g
   id="LINE_4_">
	
		
</g>
<g
   id="LINE_5_">
	
		
</g>
<g
   id="LINE_6_">
	
		
</g>
<g
   id="LINE_7_">
	
		
</g>
<g
   id="LWPOLYLINE">
	
		
</g>
<g
   id="LWPOLYLINE_1_">
	
		
</g>
<g
   id="LWPOLYLINE_2_">
	
		
</g>
<g
   id="LWPOLYLINE_3_">
	
		
</g>
<g
   id="LWPOLYLINE_4_">
	
		
</g>
<g
   id="LWPOLYLINE_5_">
	
		
</g>
<g
   id="LWPOLYLINE_6_">
	
		
</g>
<g
   id="ARC_15_">
	
		
</g>
<g
   id="ARC_16_">
	
		
</g>
<g
   id="ARC_17_">
	
		
</g>
<g
   id="ARC_18_">
	
		
</g>
<g
   id="ARC_19_">
	
		
</g>
<g
   id="ARC_20_">
	
		
</g>
<g
   id="ARC_21_">
	
		
</g>
<g
   id="LINE_8_">
	
		
</g>

<g
   id="LINE_10_">
	
		
</g>
<g
   id="LINE_11_">
	
		
</g>
<g
   id="LINE_12_">
	
		
</g>
<g
   id="LINE_13_">
	
		
</g>
<g
   id="LINE_14_">
	
		
</g>
<g
   id="LINE_15_">
	
		
</g>
<g
   id="LWPOLYLINE_7_">
	
		
</g>
<g
   id="LWPOLYLINE_8_">
	
		
</g>
<g
   id="LWPOLYLINE_9_">
	
		
</g>
<g
   id="LINE_16_">
	
		
</g>
<g
   id="LINE_17_">
	
		
</g>
<g
   id="LINE_18_">
	
		
</g>
<g
   id="LINE_19_">
	
		
</g>
</svg>