<?xml version="1.0" encoding="UTF-8" standalone="no"?>
<!-- Generator: Adobe Illustrator 16.0.1, SVG Export Plug-In . SVG Version: 6.00 Build 0)  -->

<svg
   xmlns:dc="http://purl.org/dc/elements/1.1/"
   xmlns:cc="http://creativecommons.org/ns#"
   xmlns:rdf="http://www.w3.org/1999/02/22-rdf-syntax-ns#"
   xmlns:svg="http://www.w3.org/2000/svg"
   xmlns="http://www.w3.org/2000/svg"
   xmlns:sodipodi="http://sodipodi.sourceforge.net/DTD/sodipodi-0.dtd"
   xmlns:inkscape="http://www.inkscape.org/namespaces/inkscape"
   version="1.0"
   id="_x31_"
   x="0px"
   y="0px"
   width="612px"
   height="792px"
   viewBox="0 0 612 792"
   enable-background="new 0 0 612 792"
   xml:space="preserve"
   inkscape:version="0.48.2 r9819"
   sodipodi:docname="7050.svg"><metadata
   id="metadata111"><rdf:RDF><cc:Work
       rdf:about=""><dc:format>image/svg+xml</dc:format><dc:type
         rdf:resource="http://purl.org/dc/dcmitype/StillImage" /></cc:Work></rdf:RDF></metadata><defs
   id="defs109" /><sodipodi:namedview
   pagecolor="#ffffff"
   bordercolor="#666666"
   borderopacity="1"
   objecttolerance="10"
   gridtolerance="10"
   guidetolerance="10"
   inkscape:pageopacity="0"
   inkscape:pageshadow="2"
   inkscape:window-width="1387"
   inkscape:window-height="908"
   id="namedview107"
   showgrid="false"
   inkscape:zoom="0.42140707"
   inkscape:cx="527.11303"
   inkscape:cy="372.12088"
   inkscape:window-x="141"
   inkscape:window-y="33"
   inkscape:window-maximized="0"
   inkscape:current-layer="_x31_" />







<g
   id="g3130"
   transform="matrix(0.56896411,0,0,0.56896411,134.86878,0.42494781)"
   style="fill:#000000;fill-opacity:1;stroke:none"><g
     id="LWPOLYLINE"
     style="fill:#000000;fill-opacity:1;stroke:none">
	
		<path
   style="fill:#000000;fill-opacity:1;stroke:none"
   d="m 623.03125,75.71875 -2.625,0.0625 -2.5625,0.15625 -2.65625,0.125 -2.625,0.21875 -2.5625,0.25 -2.625,0.3125 -2.5625,0.34375 -2.5625,0.375 -2.5625,0.40625 -2.65625,0.5 -2.46875,0.5 -2.5625,0.59375 -2.5625,0.59375 -2.5,0.65625 -2.5625,0.6875 -2.5,0.78125 -2.5,0.75 -2.5,0.84375 -2.40625,0.84375 -2.5,0.9375 -2.4375,0.9375 -2.40625,1.03125 -2.375,1.03125 -2.34375,1.09375 -2.375,1.125 -2.34375,1.15625 -2.34375,1.21875 -2.3125,1.21875 -2.28125,1.3125 -2.21875,1.3125 -2.21875,1.375 -2.21875,1.40625 -2.21875,1.4375 -2.125,1.46875 -2.09375,1.53125 -2.15625,1.5625 -2.0625,1.59375 -2,1.625 -2.03125,1.65625 -2,1.6875 -1.9375,1.75 -1.9375,1.75 -1.875,1.8125 -1.875,1.8125 -1.875,1.875 -1.71875,1.875 -1.8125,1.90625 -1.71875,2 -1.65625,1.96875 -1.6875,2 -1.65625,2.09375 -1.59375,2.03125 -1.53125,2.125 -1.5,2.09375 -1.53125,2.1875 -1.40625,2.15625 -1.4375,2.21875 -1.3125,2.21875 -1.3125,2.25 -1.34375,2.28125 -1.21875,2.28125 -1.1875,2.34375 -1.1875,2.34375 -1.09375,2.34375 -1.125,2.375 -1.03125,2.40625 -1.03125,2.40625 -0.90625,2.40625 -0.96875,2.46875 -0.84375,2.46875 -0.8125,2.5 -0.84375,2.5 -0.6875,2.46875 -0.6875,2.53125 -0.71875,2.53125 -0.625,2.53125 -0.53125,2.5625 -0.5,2.53125 -0.46875,2.59375 -0.4375,2.5625 -0.40625,2.59375 -0.34375,2.59375 -0.28125,2.59375 -0.28125,2.59375 -0.1875,2.625 -0.15625,2.59375 -0.125,2.59375 -0.0625,2.65625 0,2.59375 0,2.59375 0.0625,2.625 0.125,2.59375 0.15625,2.59375 0.1875,2.65625 0.28125,2.59375 0.28125,2.59375 0.34375,2.5625 0.40625,2.59375 0.4375,2.5625 0.46875,2.59375 0.5,2.53125 0.53125,2.5625 0.625,2.5625 0.71875,2.5 0.6875,2.5625 0.6875,2.5 0.84375,2.5 0.8125,2.4375 0.84375,2.46875 0.96875,2.4375 0.90625,2.4375 1.03125,2.40625 1.03125,2.4375 1.125,2.34375 1.09375,2.375 1.1875,2.34375 1.1875,2.28125 1.21875,2.375 1.34375,2.1875 1.3125,2.3125 1.3125,2.21875 1.4375,2.21875 1.40625,2.125 1.53125,2.15625 1.5,2.15625 1.53125,2.0625 1.59375,2.09375 1.65625,2.0625 1.6875,2.03125 1.65625,2 1.71875,1.9375 1.8125,1.9375 1.71875,1.875 1.875,1.875 1.875,1.8125 1.875,1.78125 1.9375,1.8125 1.9375,1.71875 2,1.65625 2.03125,1.6875 2,1.65625 2.0625,1.59375 2.15625,1.53125 2.09375,1.5 2.125,1.46875 2.21875,1.46875 2.21875,1.375 2.21875,1.375 2.21875,1.3125 2.28125,1.34375 2.3125,1.21875 2.34375,1.1875 2.34375,1.1875 2.375,1.09375 2.34375,1.125 2.375,1.03125 2.40625,0.96875 2.4375,0.96875 2.5,0.90625 2.40625,0.90625 2.5,0.8125 2.5,0.78125 2.5,0.75 2.5625,0.6875 2.5,0.625 2.5625,0.625 2.5625,0.5625 2.46875,0.5625 2.65625,0.46875 2.5625,0.4375 2.5625,0.40625 2.5625,0.34375 2.625,0.28125 2.5625,0.21875 2.625,0.1875 2.65625,0.21875 2.5625,0.0625 2.625,0.0625 2.625,0.0937 2.5625,-0.0937 2.65625,-0.0625 2.625,-0.0625 2.5625,-0.21875 2.625,-0.1875 2.625,-0.21875 2.5625,-0.28125 2.5625,-0.34375 2.65625,-0.40625 2.5625,-0.4375 2.5625,-0.46875 2.5625,-0.5625 2.5625,-0.5625 2.5,-0.625 2.5625,-0.625 2.5,-0.6875 2.46875,-0.75 2.5,-0.78125 2.5,-0.8125 2.5,-0.90625 2.40625,-0.90625 2.4375,-0.96875 2.4375,-0.96875 2.40625,-1.03125 2.375,-1.125 2.34375,-1.09375 2.34375,-1.1875 2.3125,-1.1875 2.28125,-1.21875 L 700.5,355.0625 702.78125,353.75 705,352.375 707.21875,351 l 2.15625,-1.46875 2.15625,-1.46875 2.125,-1.5 2.09375,-1.53125 2.0625,-1.59375 2.03125,-1.65625 2.0625,-1.6875 1.9375,-1.65625 1.9375,-1.71875 1.9375,-1.8125 1.9375,-1.78125 1.875,-1.8125 1.8125,-1.875 1.8125,-1.875 1.71875,-1.9375 1.75,-1.9375 1.71875,-2 1.65625,-2.03125 1.59375,-2.0625 1.59375,-2.09375 1.59375,-2.0625 1.53125,-2.15625 1.46875,-2.15625 1.4375,-2.125 1.375,-2.21875 1.40625,-2.21875 1.3125,-2.3125 1.25,-2.1875 1.25,-2.375 1.25,-2.28125 1.15625,-2.34375 1.125,-2.375 1.09375,-2.34375 1.03125,-2.4375 1,-2.40625 0.96875,-2.4375 0.875,-2.4375 0.90625,-2.46875 0.84375,-2.4375 0.75,-2.5 0.78125,-2.5 0.6875,-2.5625 0.625,-2.5 0.625,-2.5625 0.53125,-2.5625 0.5625,-2.53125 0.5,-2.59375 0.40625,-2.5625 0.34375,-2.59375 0.34375,-2.5625 0.34375,-2.59375 0.21875,-2.59375 0.21875,-2.65625 0.125,-2.59375 0.125,-2.59375 0.0937,-2.625 0,-2.59375 0,-2.59375 -0.0937,-2.65625 -0.125,-2.59375 L 775,215 l -0.21875,-2.625 -0.21875,-2.59375 -0.34375,-2.59375 -0.34375,-2.59375 -0.34375,-2.59375 -0.40625,-2.5625 -0.5,-2.59375 -0.5625,-2.53125 -0.53125,-2.5625 -0.625,-2.53125 -0.625,-2.53125 -0.6875,-2.53125 -0.78125,-2.46875 -0.75,-2.5 -0.84375,-2.5 -0.90625,-2.46875 -0.875,-2.46875 -0.96875,-2.40625 -1,-2.40625 -1.03125,-2.40625 -1.09375,-2.375 -1.125,-2.34375 -1.15625,-2.34375 -1.25,-2.34375 -1.25,-2.28125 -1.25,-2.28125 -1.3125,-2.25 -1.40625,-2.21875 -1.375,-2.21875 -1.4375,-2.15625 -1.46875,-2.1875 -1.53125,-2.09375 -1.59375,-2.125 -1.59375,-2.03125 L 742,131.1875 l -1.65625,-2 -1.71875,-1.96875 -1.75,-2 -1.71875,-1.90625 -1.8125,-1.875 -1.8125,-1.875 -1.875,-1.8125 -1.9375,-1.8125 -1.9375,-1.75 -1.9375,-1.75 -1.9375,-1.6875 -2.0625,-1.65625 -2.03125,-1.625 -2.0625,-1.59375 -2.09375,-1.5625 -2.125,-1.53125 L 709.375,101.3125 707.21875,99.875 705,98.46875 702.78125,97.09375 700.5,95.78125 698.21875,94.46875 695.9375,93.25 693.625,92.03125 691.28125,90.875 688.9375,89.75 l -2.375,-1.09375 -2.40625,-1.03125 -2.4375,-1.03125 -2.4375,-0.9375 -2.40625,-0.9375 -2.5,-0.84375 -2.5,-0.84375 -2.5,-0.75 -2.46875,-0.78125 -2.5,-0.6875 -2.5625,-0.65625 -2.5,-0.59375 -2.5625,-0.59375 -2.5625,-0.5 -2.5625,-0.5 -2.5625,-0.40625 -2.65625,-0.375 -2.5625,-0.34375 -2.5625,-0.3125 -2.625,-0.25 -2.625,-0.21875 -2.5625,-0.125 -2.625,-0.15625 -2.65625,-0.0625 -2.5625,0 -2.625,0 z m -0.21875,29.8125 2.09375,0 2.0625,0 2.15625,0.0625 2.09375,0.0937 2,0.125 2.0625,0.15625 2.09375,0.21875 2.0625,0.1875 2.09375,0.28125 2.09375,0.3125 2,0.34375 2.0625,0.375 2.03125,0.4375 2,0.4375 2.09375,0.5 2,0.5 2,0.5625 1.9375,0.59375 2.03125,0.625 2,0.65625 1.9375,0.6875 1.9375,0.71875 1.9375,0.78125 1.9375,0.78125 1.875,0.84375 1.9375,0.875 1.875,0.875 1.875,0.9375 1.78125,0.96875 1.875,0.96875 1.8125,1.0625 1.8125,1.03125 1.71875,1.09375 1.71875,1.125 1.75,1.15625 1.71875,1.15625 1.75,1.21875 1.65625,1.25 1.65625,1.25 1.59375,1.3125 1.59375,1.3125 1.59375,1.34375 1.59375,1.40625 1.53125,1.375 1.53125,1.46875 1.4375,1.4375 1.46875,1.46875 1.4375,1.53125 1.40625,1.5 1.375,1.5625 1.3125,1.59375 1.3125,1.59375 1.34375,1.625 1.21875,1.6875 1.25,1.65625 1.25,1.6875 1.1875,1.75 1.09375,1.71875 1.125,1.71875 1.09375,1.78125 1.0625,1.8125 1.03125,1.78125 0.96875,1.84375 0.96875,1.875 0.96875,1.84375 0.90625,1.84375 0.84375,1.90625 0.8125,1.90625 0.84375,1.96875 0.75,1.90625 0.6875,1.96875 0.6875,1.9375 0.71875,1.96875 0.625,2 0.53125,2 0.5625,2 0.5625,2 0.46875,2.0625 0.4375,2 0.40625,2.03125 0.40625,2.0625 0.34375,2.03125 0.28125,2.09375 0.28125,2.03125 0.21875,2.0625 0.1875,2.09375 0.21875,2.09375 0.0625,2.03125 0.15625,2.0625 0.0625,2.125 0,2.09375 0,2.0625 -0.0625,2.09375 -0.15625,2.0625 -0.0625,2.09375 -0.21875,2.03125 -0.1875,2.09375 -0.21875,2.0625 -0.28125,2.0625 -0.28125,2.0625 -0.34375,2.0625 -0.40625,2.03125 -0.40625,2.03125 -0.4375,2.0625 -0.46875,2 -0.5625,2 -0.5625,2.03125 -0.53125,1.96875 -0.625,1.96875 -0.71875,2 -0.6875,1.9375 -0.6875,1.96875 -0.75,1.9375 -0.84375,1.9375 -0.8125,1.875 L 733,275.125 732.09375,277 l -0.96875,1.84375 -0.96875,1.8125 -0.96875,1.875 -1.03125,1.8125 -1.0625,1.78125 -1.09375,1.75 -1.125,1.78125 -1.09375,1.75 -1.1875,1.65625 -1.25,1.71875 -1.25,1.6875 -1.21875,1.65625 -1.34375,1.59375 -1.3125,1.65625 -1.3125,1.53125 -1.375,1.59375 -1.40625,1.53125 -1.4375,1.5 -1.46875,1.46875 -1.4375,1.4375 -1.53125,1.46875 -1.53125,1.375 -1.59375,1.40625 -1.59375,1.375 -1.59375,1.3125 -1.59375,1.25 -1.65625,1.3125 -1.65625,1.25 -1.75,1.1875 -1.71875,1.1875 -1.75,1.15625 -1.71875,1.125 -1.71875,1.03125 -1.8125,1.09375 -1.8125,0.96875 -1.875,1.0625 -1.78125,0.96875 -1.875,0.90625 -1.875,0.875 -1.9375,0.84375 -1.875,0.84375 -1.9375,0.8125 -1.9375,0.78125 -1.9375,0.6875 -1.9375,0.6875 -2,0.6875 -2.03125,0.625 -1.9375,0.5625 -2,0.5625 -2,0.53125 -2.09375,0.5 -2,0.40625 -2.03125,0.40625 -2.0625,0.4375 -2,0.34375 -2.09375,0.28125 -2.09375,0.28125 -2.0625,0.28125 -2.09375,0.1875 -2.0625,0.15625 -2,0.125 -2.09375,0.0625 -2.15625,0.0625 -2.0625,0 -2.09375,0 -2.0625,-0.0625 -2.09375,-0.0625 -2.0625,-0.125 -2.03125,-0.15625 -2.0625,-0.1875 -2.09375,-0.28125 -2.0625,-0.28125 -2.09375,-0.28125 -2,-0.34375 -2.0625,-0.4375 -2.03125,-0.40625 -2,-0.40625 -2.09375,-0.5 -2,-0.53125 -2,-0.5625 -1.9375,-0.5625 -2.03125,-0.625 -2,-0.6875 -1.9375,-0.6875 -1.9375,-0.6875 -1.9375,-0.78125 -1.9375,-0.8125 -1.875,-0.84375 -1.9375,-0.84375 -1.875,-0.875 -1.8125,-0.90625 -1.875,-0.96875 -1.84375,-1.0625 -1.8125,-0.96875 -1.8125,-1.09375 -1.71875,-1.03125 -1.75,-1.125 -1.78125,-1.15625 -1.6875,-1.1875 -1.71875,-1.1875 -1.65625,-1.25 -1.65625,-1.3125 -1.59375,-1.25 -1.59375,-1.3125 -1.59375,-1.375 -1.59375,-1.40625 -1.53125,-1.375 -1.53125,-1.46875 -1.4375,-1.4375 -1.46875,-1.46875 -1.46875,-1.5 -1.375,-1.53125 -1.375,-1.59375 -1.3125,-1.53125 -1.34375,-1.65625 L 531,298.125 l -1.25,-1.65625 -1.21875,-1.6875 -1.25,-1.71875 -1.1875,-1.65625 -1.125,-1.75 -1.09375,-1.78125 -1.125,-1.75 -1.03125,-1.78125 -1.03125,-1.8125 -0.96875,-1.875 -0.96875,-1.8125 -0.96875,-1.84375 -0.90625,-1.875 -0.84375,-1.9375 -0.8125,-1.875 -0.84375,-1.9375 -0.75,-1.9375 -0.6875,-1.96875 -0.71875,-1.9375 -0.6875,-2 -0.625,-1.96875 -0.53125,-1.96875 -0.5625,-2.03125 -0.5625,-2 -0.46875,-2 -0.4375,-2.0625 -0.40625,-2.03125 -0.40625,-2.03125 -0.34375,-2.0625 -0.28125,-2.0625 -0.28125,-2.0625 -0.21875,-2.0625 -0.1875,-2.09375 L 506,233.0625 l -0.0625,-2.09375 -0.15625,-2.0625 -0.0625,-2.09375 0,-2.0625 0,-2.09375 0.0625,-2.125 0.15625,-2.0625 0.0625,-2.03125 0.21875,-2.09375 0.1875,-2.09375 0.21875,-2.0625 0.28125,-2.03125 0.28125,-2.09375 0.34375,-2.03125 0.40625,-2.0625 0.40625,-2.03125 0.4375,-2 0.46875,-2.0625 0.5625,-2 0.5625,-2 0.53125,-2 0.625,-2 0.6875,-1.96875 0.71875,-1.9375 0.6875,-1.96875 0.75,-1.90625 0.84375,-1.96875 0.8125,-1.90625 0.84375,-1.90625 0.90625,-1.84375 0.96875,-1.84375 0.96875,-1.875 0.96875,-1.84375 1.03125,-1.78125 1.03125,-1.8125 1.125,-1.78125 1.09375,-1.71875 1.125,-1.71875 1.1875,-1.75 1.25,-1.6875 L 529.75,153 l 1.25,-1.6875 1.3125,-1.625 1.34375,-1.59375 1.3125,-1.59375 1.375,-1.5625 1.375,-1.5 1.46875,-1.53125 1.46875,-1.46875 1.4375,-1.4375 1.53125,-1.46875 1.53125,-1.375 1.59375,-1.40625 1.59375,-1.34375 1.59375,-1.3125 1.59375,-1.3125 1.65625,-1.25 1.65625,-1.25 1.71875,-1.21875 1.6875,-1.15625 1.78125,-1.15625 1.75,-1.125 1.71875,-1.09375 1.8125,-1.03125 1.8125,-1.0625 1.84375,-0.96875 1.875,-0.96875 1.8125,-0.9375 1.875,-0.875 1.9375,-0.875 1.875,-0.84375 1.9375,-0.78125 1.9375,-0.78125 1.9375,-0.71875 1.9375,-0.6875 2,-0.65625 2.03125,-0.625 1.9375,-0.59375 2,-0.5625 2,-0.5 2.09375,-0.5 2,-0.4375 2.03125,-0.4375 2.0625,-0.375 2,-0.34375 2.09375,-0.3125 2.0625,-0.28125 2.09375,-0.1875 2.0625,-0.21875 2.03125,-0.15625 2.0625,-0.125 2.09375,-0.0937 2.0625,-0.0625 z"
   transform="translate(0,170.05192)"
   id="polygon4"
   inkscape:connector-curvature="0" />
</g><g
     id="LWPOLYLINE_1_"
     style="fill:#000000;fill-opacity:1;stroke:none">
	
		
</g><g
     id="LINE"
     style="fill:#000000;fill-opacity:1;stroke:none">
	
		
</g><g
     id="LINE_1_"
     style="fill:#000000;fill-opacity:1;stroke:none">
	
		<path
   style="fill:#000000;fill-opacity:1;stroke:none"
   d="m 521.3125,169.375 103.59375,174.53125 102.9375,-174.53125 -206.53125,0 z m 44,21.28125 123.46875,0 -64.5625,107.875 -58.90625,-107.875 z"
   transform="translate(0,170.05192)"
   id="line13"
   inkscape:connector-curvature="0" />
</g><g
     id="LINE_2_"
     style="fill:#000000;fill-opacity:1;stroke:none">
	
		
</g><g
     id="LINE_3_"
     style="fill:#000000;fill-opacity:1;stroke:none">
	
		
</g><g
     id="LINE_4_"
     style="fill:#000000;fill-opacity:1;stroke:none">
	
		
</g><g
     id="LINE_5_"
     style="fill:#000000;fill-opacity:1;stroke:none">
	
		
</g></g>
















<path
   style="fill:#000000;fill-opacity:1;stroke:none"
   d="m 133.06487,300.92716 c -1.85656,-4.23772 -13.53327,-31.17094 -25.94823,-59.85161 -12.414961,-28.68067 -22.876439,-52.14109 -23.247729,-52.13427 -0.371294,0.007 -4.291657,8.20765 -8.711921,18.22407 l -8.036852,18.21167 -8.671297,0 c -4.769217,0 -8.671298,-0.16892 -8.671298,-0.37537 0,-0.28186 27.318511,-66.39808 33.250206,-80.47211 0.923548,-2.19128 1.042509,-1.93598 26.817131,57.55029 14.23921,32.86323 26.21923,59.7441 26.62227,59.73525 0.40305,-0.009 12.27662,-26.74007 26.38572,-59.40275 14.1091,-32.66268 25.81127,-59.38848 26.00481,-59.39067 0.19355,-0.002 11.87746,26.59887 25.96424,59.11348 14.08678,32.5146 25.87218,59.27806 26.18977,59.47434 0.31759,0.19628 0.7296,0.2047 0.91559,0.0187 0.26846,-0.26848 48.04782,-110.1097 51.10944,-117.49689 0.75208,-1.81463 2.27258,1.48096 26.70784,57.88782 14.2507,32.89661 26.24648,59.80399 26.6573,59.79417 0.41081,-0.01 4.27172,-7.83225 8.57981,-17.38322 l 7.83288,-17.36536 9.27555,-0.18822 c 5.1916,-0.10536 9.17361,0.0749 9.04403,0.40937 -3.46887,8.9541 -34.7677,80.92687 -35.047,80.59182 -0.21954,-0.26336 -11.91808,-27.13351 -25.99675,-59.71141 -14.07866,-32.57791 -25.90135,-59.22712 -26.27265,-59.22047 -0.37129,0.007 -12.18525,26.66132 -26.25322,59.23257 -14.06799,32.57125 -25.76369,59.42539 -25.99046,59.67587 -0.22676,0.25049 -11.92616,-26.17876 -25.99865,-58.73166 -14.07251,-32.55292 -25.83909,-59.47062 -26.14797,-59.81716 -0.30889,-0.34655 -0.74831,-0.44337 -0.97651,-0.21517 -0.30432,0.30432 -31.75708,72.58918 -51.45328,118.25012 -0.4431,1.02723 -1.24833,-0.28587 -3.93277,-6.41322 l 0,0 z"
   id="path3128"
   inkscape:connector-curvature="0" /></svg>