<?xml version="1.0" encoding="UTF-8" standalone="no"?>
<!-- Generator: Adobe Illustrator 16.0.1, SVG Export Plug-In . SVG Version: 6.00 Build 0)  -->

<svg
   xmlns:dc="http://purl.org/dc/elements/1.1/"
   xmlns:cc="http://creativecommons.org/ns#"
   xmlns:rdf="http://www.w3.org/1999/02/22-rdf-syntax-ns#"
   xmlns:svg="http://www.w3.org/2000/svg"
   xmlns="http://www.w3.org/2000/svg"
   xmlns:sodipodi="http://sodipodi.sourceforge.net/DTD/sodipodi-0.dtd"
   xmlns:inkscape="http://www.inkscape.org/namespaces/inkscape"
   version="1.0"
   id="_x31_"
   x="0px"
   y="0px"
   width="612px"
   height="792px"
   viewBox="0 0 612 792"
   enable-background="new 0 0 612 792"
   xml:space="preserve"
   inkscape:version="0.48.2 r9819"
   sodipodi:docname="7055.svg"><metadata
   id="metadata16"><rdf:RDF><cc:Work
       rdf:about=""><dc:format>image/svg+xml</dc:format><dc:type
         rdf:resource="http://purl.org/dc/dcmitype/StillImage" /></cc:Work></rdf:RDF></metadata><defs
   id="defs14" /><sodipodi:namedview
   pagecolor="#ffffff"
   bordercolor="#666666"
   borderopacity="1"
   objecttolerance="10"
   gridtolerance="10"
   guidetolerance="10"
   inkscape:pageopacity="0"
   inkscape:pageshadow="2"
   inkscape:window-width="1920"
   inkscape:window-height="1073"
   id="namedview12"
   showgrid="false"
   inkscape:zoom="0.2979798"
   inkscape:cx="-432.30508"
   inkscape:cy="396"
   inkscape:window-x="0"
   inkscape:window-y="0"
   inkscape:window-maximized="1"
   inkscape:current-layer="_x31_" />
<g
   id="LWPOLYLINE"
   style="stroke:none;fill:#000000;fill-opacity:1">
	
		<path
   style="fill:#000000;fill-opacity:1;stroke:none"
   d="m -1.25,145.5 c -0.4093029,166.66577 -0.2351826,333.33345 -0.3125,500 22.822917,0 45.645833,0 68.46875,0 0.220346,-74.2135 0.03066,-148.43838 0.09375,-222.65625 57.36232,-2.18011 116.0989,4.68086 172.34375,-10.125 26.78039,-6.60789 50.25216,-22.90715 67.24113,-44.44204 25.67738,-29.43322 33.86992,-70.41201 28.70118,-108.41194 -3.33157,-30.96869 -18.21171,-60.15954 -41.13972,-81.21843 C 267.70817,151.12148 227.56079,146.37746 191.34375,145.81255 127.15482,145.1009 62.944586,145.69413 -1.25,145.5 z M 67,201.875 c 41.17164,0.45137 82.39643,-0.98856 123.53125,0.87495 25.76183,1.62264 54.11422,12.5545 64.98721,37.7994 10.4378,25.04021 10.15303,54.60034 0.10654,79.73185 -11.43392,27.13838 -40.91239,40.29219 -68.57417,43.58445 -35.62329,4.10512 -71.58841,1.4226 -107.36333,2.1968 C 66.549154,369.42955 65.183452,360.5109 67.299194,348.49154 67.018637,299.62003 67.0265,250.74716 67,201.875 z"
   id="path4"
   inkscape:connector-curvature="0" />
</g>
<g
   id="LWPOLYLINE_1_">
	
		
</g>
<g
   id="LWPOLYLINE_2_"
   style="stroke:none;fill:#000000;fill-opacity:1">
	
		<path
   fill="none"
   stroke="#000000"
   stroke-width="0.7087"
   stroke-linecap="round"
   stroke-linejoin="round"
   stroke-miterlimit="10"
   d="   M544.992,645.5c0.477,0,1.078,0,1.078,0h0.836h0.957h1.316h1.316h1.555h1.797h1.797h2.031h2.156h2.152h2.273h2.395h2.512h2.516   h2.512h2.516h2.633h2.512h2.512h2.633h2.395h2.512h2.395h2.273h2.156h2.152h2.035h1.797h1.793h1.555h1.316h1.316h0.961h0.836   c0.598,0,0.957,0,0.957,0c0.121,0,0.121-0.957,0.121-0.957v-2.633v-4.43v-5.984v-7.539v-8.855V604.93v-11.488v-12.445v-13.645   v-14.48v-15.316v-16.156v-16.754v-17.355v-17.832v-18.129v-18.43V414.23V395.5v-18.73v-18.668v-18.43V321.48v-17.77v-17.355   v-16.754v-16.094v-15.379v-14.48v-13.586V197.5v-11.43v-10.172v-8.918v-7.48v-5.98v-4.371v-2.691V145.5c-0.48,0-0.957,0-0.957,0   h-0.84h-0.957h-1.078h-1.316h-1.434h-1.559h-1.793h-1.797h-2.035h-2.031h-2.156h-2.152h-2.273h-2.395h-2.273h-2.395h-2.395h-2.391   h-2.395h-2.273h-2.395h-2.273h-2.156h-2.152h-2.035h-2.035h-1.793h-1.797h-1.555h-1.438h-1.316h-1.074h-0.957h-0.84   c-0.477,0-0.836,0-0.836,0c-0.121,0-2.156,1.676-2.156,1.676l-2.152,1.734l-2.273,1.734l-2.273,1.738l-2.277,1.793l-2.391,1.855   l-2.516,1.855l-2.512,1.914l-2.512,1.914l-2.633,1.914l-2.754,1.918l-2.754,1.973l-2.75,2.035l-2.875,1.973l-2.871,2.035   l-2.992,2.035l-2.992,2.035l-2.992,2.035l-3.109,2.094l-3.113,2.035l-3.109,2.094l-3.113,2.035l-3.23,2.094l-3.23,2.094   l-3.352,2.035l-3.23,2.094l-3.352,2.035l-3.352,2.094l-3.352,2.035l-3.352,2.031l-3.469,2.035l-3.473,2.035l-3.348,1.977   l-3.473,1.973l-3.469,1.977l-3.473,1.914l-3.469,1.973l-3.473,1.855l-3.59,1.914l-3.469,1.855c0,0.48,0,1.137,0,1.137v0.84v1.074   v1.258v1.438v1.613v1.797v1.914v2.094v2.156v2.332v2.336v2.512v2.512v2.574v2.633v2.633v2.691v2.633v2.695v2.57v2.574v2.574v2.453   v2.395v2.273v2.211v2.035v1.914v1.797v1.617v1.434v1.316V293v0.895v0.602c0,0.535,2.633-0.602,2.633-0.602l2.633-1.195l2.75-1.258   l2.754-1.316l2.871-1.375l2.875-1.438l2.871-1.434l2.992-1.559l2.992-1.555l2.992-1.613l2.992-1.676l3.109-1.676l3.113-1.734   l3.109-1.738l3.113-1.793l3.109-1.855l3.113-1.855l3.23-1.855l3.113-1.914l3.109-1.914l3.113-1.914l3.109-1.977l3.113-1.973   l2.992-1.977l3.109-1.973l2.992-2.035l2.992-1.977l2.992-1.973l2.871-2.035l2.875-1.977l2.871-2.031l2.754-1.977l2.75-1.973   l2.633-1.977l2.633-1.973l2.516-1.918l2.512-1.914l2.395-1.914l2.273-1.855l2.273-1.855V645.5z"
   id="path10"
   style="stroke:none;fill:#000000;fill-opacity:1" />
</g>
</svg>