<?xml version="1.0" encoding="UTF-8" standalone="no"?>
<!-- Generator: Adobe Illustrator 16.0.1, SVG Export Plug-In . SVG Version: 6.00 Build 0)  -->

<svg
   xmlns:dc="http://purl.org/dc/elements/1.1/"
   xmlns:cc="http://creativecommons.org/ns#"
   xmlns:rdf="http://www.w3.org/1999/02/22-rdf-syntax-ns#"
   xmlns:svg="http://www.w3.org/2000/svg"
   xmlns="http://www.w3.org/2000/svg"
   xmlns:sodipodi="http://sodipodi.sourceforge.net/DTD/sodipodi-0.dtd"
   xmlns:inkscape="http://www.inkscape.org/namespaces/inkscape"
   version="1.0"
   id="_x31_"
   x="0px"
   y="0px"
   width="612px"
   height="792px"
   viewBox="0 0 612 792"
   enable-background="new 0 0 612 792"
   xml:space="preserve"
   inkscape:version="0.48.2 r9819"
   sodipodi:docname="7056.svg"><metadata
   id="metadata16"><rdf:RDF><cc:Work
       rdf:about=""><dc:format>image/svg+xml</dc:format><dc:type
         rdf:resource="http://purl.org/dc/dcmitype/StillImage" /></cc:Work></rdf:RDF></metadata><defs
   id="defs14" /><sodipodi:namedview
   pagecolor="#ffffff"
   bordercolor="#666666"
   borderopacity="1"
   objecttolerance="10"
   gridtolerance="10"
   guidetolerance="10"
   inkscape:pageopacity="0"
   inkscape:pageshadow="2"
   inkscape:window-width="1920"
   inkscape:window-height="1073"
   id="namedview12"
   showgrid="false"
   inkscape:zoom="0.84281414"
   inkscape:cx="290.4584"
   inkscape:cy="353.09086"
   inkscape:window-x="0"
   inkscape:window-y="0"
   inkscape:window-maximized="1"
   inkscape:current-layer="_x31_" />
<g
   id="LWPOLYLINE"
   style="stroke:none;stroke-opacity:1;fill:#000000;fill-opacity:1">
	
		<path
   style="fill:#000000;fill-opacity:1;stroke:none"
   d="m 24.53125,203.1875 c -0.32134,130.77014 -0.187609,261.54175 -0.25,392.3125 17.916667,0 35.833333,0 53.75,0 0.220329,-58.22242 0.03067,-116.45947 0.09375,-174.6875 43.53748,-1.84492 88.04781,3.34684 130.96196,-6.83878 21.13775,-4.70623 40.64482,-16.10918 54.38179,-32.94237 21.41786,-22.77922 29.27346,-55.5047 25.35471,-86.03418 -2.16214,-24.41036 -13.34067,-47.7078 -31.19365,-64.52438 -19.3531,-21.07598 -49.15842,-26.1797 -76.45171,-26.87563 C 128.97859,202.68691 76.739945,203.4281 24.53125,203.1875 z m 53.59375,44.25 c 32.29734,0.36974 64.64074,-0.79727 96.90625,0.6874 20.20848,1.25592 42.47069,9.85387 50.97432,29.66102 8.30539,19.91789 8.05239,43.54477 -0.29726,63.40847 -9.68106,21.83771 -34.08382,31.55636 -56.4636,33.69437 -27.53814,2.63856 -55.27606,0.82055 -82.90096,1.36104 -11.878984,3.39028 -7.248521,-10.15741 -8.00848,-17.91195 C 78.148665,321.37143 78.141735,284.4043 78.125,247.4375 z"
   id="path4"
   inkscape:connector-curvature="0" />
</g>
<g
   id="LWPOLYLINE_1_">
	
		
</g>
<g
   id="LWPOLYLINE_2_"
   style="stroke:none;fill:#000000;fill-opacity:1">
	
		<path
   fill="none"
   stroke="#000000"
   stroke-width="0.7087"
   stroke-linecap="round"
   stroke-linejoin="round"
   stroke-miterlimit="10"
   d="   M337.763,595.5c0.469,0,1.781,0,1.781,0h2.257h2.909h3.756h4.507h5.071h5.729h6.29h6.76h7.231h7.7h8.074h8.356h8.638h8.922h9.106   h9.203h9.294h9.391h9.391h9.293h9.203h9.109h8.919h8.638h8.359h8.075h7.696h7.231h6.854h6.2h5.725h5.166h4.412h3.756h3.007h2.159   h1.312c0.472-0.375,0.472-0.75,0.472-0.75v-0.562v-0.659v-0.844v-0.94v-1.031v-1.223v-1.219v-1.315v-1.409v-1.5v-1.597v-1.597   v-1.598v-1.69v-1.688v-1.69v-1.784v-1.69v-1.785v-1.69v-1.69v-1.594v-1.597v-1.597v-1.41v-1.5v-1.315v-1.222v-1.125v-1.128v-0.938   v-0.753v-0.75v-0.562c0-0.379,0-0.66,0-0.66c-0.284-0.094-1.315-0.094-1.315-0.094h-1.69h-2.159h-2.816h-3.287h-3.85h-4.226h-4.693   h-5.072h-5.446h-5.729h-6.01h-6.196h-6.479h-6.665h-6.763h-6.854h-7.044h-6.946h-6.95h-6.947h-6.946h-6.763h-6.666h-6.478h-6.2   h-6.01h-5.725h-5.447h-5.071h-4.694h-4.225h-3.85h-3.288H406.4h-2.159h-1.69h-1.035c0.191-0.469,0.848-1.031,0.848-1.031   l0.75-0.753l1.034-1.031l1.312-1.128l1.409-1.312l1.503-1.503l1.784-1.69l1.879-1.691l1.972-1.972l2.159-1.972l2.253-2.065   l2.347-2.253l2.348-2.254l2.44-2.347l2.537-2.347l2.534-2.443l2.629-2.441l2.537-2.44l2.628-2.44l2.628-2.443l2.535-2.441   l2.537-2.347l2.44-2.347l2.347-2.253l2.348-2.159l2.253-2.16l2.065-1.972l2.068-1.878l1.875-1.784l1.691-1.69l1.597-1.41   l1.409-1.406l1.219-1.128l1.034-0.938l0.844-0.847l0.659-0.562c0.375-0.375,0.469-0.469,0.469-0.469l3.382-3.193l3.472-3.288   l3.568-3.378l3.569-3.475l3.756-3.569l3.757-3.568l3.85-3.757l3.85-3.753l3.848-3.85l3.943-3.851l3.943-4.037l3.944-3.99   l3.85-4.132l3.944-4.131l3.85-4.229l3.85-4.271l3.851-4.319l3.756-4.412l3.663-4.412l3.568-4.507l3.565-4.509l3.382-4.601   l3.381-4.6l3.19-4.65l3.101-4.693l3.003-4.741l2.818-4.791l2.722-4.788l2.441-4.837l2.347-4.881l2.162-4.881l2.065-4.931   l1.785-4.928l1.5-4.931l1.409-4.975l1.128-5.025l0.938-5.022l0.656-4.978l0.378-5.069l0.094-5.025l-0.094-6.244l-0.284-6.057   l-0.562-5.822l-0.844-5.634l-0.94-5.397l-1.219-5.259l-1.315-5.025l-1.598-4.881l-1.784-4.647l-1.878-4.462l-2.159-4.272   l-2.253-4.131l-2.441-3.943l-2.534-3.756l-2.818-3.566l-2.815-3.381l-3.007-3.241l-3.19-3.097l-3.287-2.912l-3.382-2.722   l-3.565-2.581l-3.568-2.444l-3.757-2.3l-3.85-2.113l-3.944-1.972l-3.943-1.832l-4.131-1.737l-4.132-1.5l-4.225-1.409l-4.319-1.316   l-4.415-1.125l-4.319-1.034l-4.506-0.844l-4.506-0.753l-4.507-0.656l-4.509-0.516l-4.601-0.375l-4.6-0.284l-4.604-0.188l-4.6-0.047   h-1.972l-1.879,0.047l-1.972,0.047l-1.972,0.047l-1.972,0.094l-1.972,0.097l-2.066,0.094l-2.065,0.188l-2.065,0.141l-2.065,0.234   l-2.159,0.234l-2.066,0.234l-2.159,0.281l-2.159,0.328l-2.159,0.378l-2.159,0.375l-2.16,0.469l-2.256,0.469l-2.159,0.516   l-2.159,0.565l-2.254,0.562l-2.159,0.656l-2.253,0.707l-2.159,0.703l-2.253,0.797l-2.16,0.847l-2.159,0.891l-2.256,0.94   l-2.159,0.984l-2.16,1.082l-2.159,1.078l-2.159,1.175l-2.159,1.222l-2.159,1.312l-2.066,1.362l-2.159,1.409l-2.065,1.5l-2.065,1.55   l-2.065,1.644l-2.066,1.691l-2.537,2.3l-2.347,2.347l-2.347,2.347l-2.16,2.35l-2.065,2.394l-1.972,2.394l-1.878,2.394l-1.784,2.44   l-1.598,2.397l-1.594,2.394l-1.409,2.441l-1.409,2.394l-1.315,2.441l-1.219,2.396l-1.128,2.394l-1.031,2.394l-0.941,2.347   l-0.938,2.347l-0.753,2.347l-0.75,2.303l-0.75,2.3l-0.565,2.3l-0.562,2.253l-0.562,2.207l-0.469,2.159l-0.378,2.16l-0.375,2.159   l-0.281,2.065l-0.281,2.019l-0.281,2.019l-0.188,1.972l-0.188,1.925l-0.094,1.831l-0.094,1.832l-0.094,1.784l-0.097,1.691v1.69   v1.597l-0.094,1.5v1.503c0.472,0,1.034,0,1.034,0h0.656h0.94h1.031h1.222h1.315h1.5h1.691h1.69h1.784h1.972h1.972h2.066h2.159   h2.159h2.159h2.253h2.254h2.253h2.162h2.253h2.16h2.065h2.065h2.065h1.878h1.879h1.69h1.594h1.503h1.409h1.219h1.034h0.844h0.754   h0.562c0.375,0,0.375-1.222,0.375-1.222v-1.359l0.094-1.503l0.094-1.597v-1.738l0.188-1.784l0.19-1.922l0.188-1.972l0.281-2.065   l0.281-2.163l0.375-2.159l0.469-2.253l0.565-2.3l0.562-2.3l0.656-2.347l0.847-2.347l0.844-2.35l1.034-2.347l1.031-2.347l1.223-2.3   l1.312-2.3l1.409-2.253l1.597-2.206l1.784-2.163l1.784-2.113l2.066-2.019l2.159-1.925l2.253-1.828l2.44-1.738l2.722-1.644   l2.819-1.55l3.003-1.409l3.193-1.266l3.382-1.128l3.565-0.984l3.756-0.8l3.944-0.656l4.225-0.469l4.416-0.328l4.693-0.097   l4.038,0.097l3.943,0.234l3.662,0.422l3.569,0.516l3.378,0.703l3.193,0.8l3.098,0.938l2.912,1.081l2.722,1.172l2.632,1.269   l2.44,1.41l2.253,1.503l2.159,1.594l2.065,1.644l1.879,1.737l1.784,1.831l1.597,1.878l1.594,1.925l1.409,1.972l1.315,2.065   l1.219,2.065l1.129,2.113l0.938,2.112l0.94,2.16l0.844,2.159l0.753,2.206l0.656,2.16l0.656,2.159l0.472,2.209l0.469,2.112   l0.375,2.113l0.375,2.112l0.281,2.066l0.188,2.019l0.19,1.972l0.188,1.878l0.094,1.878v1.781l0.094,1.691v1.644l-0.094,3.756   l-0.378,3.756l-0.469,3.803l-0.75,3.803l-0.847,3.85l-1.031,3.803l-1.315,3.847l-1.406,3.803l-1.503,3.85l-1.691,3.803l-1.878,3.85   l-1.972,3.803l-2.065,3.803l-2.159,3.756l-2.348,3.756l-2.347,3.756l-2.537,3.707l-2.534,3.709l-2.629,3.615l-2.725,3.663   l-2.815,3.569l-2.815,3.565l-2.819,3.475l-2.909,3.475l-2.912,3.428l-2.91,3.332l-3.006,3.334l-2.909,3.24l-3.007,3.191   l-2.909,3.146l-2.912,3.05l-2.815,3.007l-2.91,2.956l-2.725,2.818l-2.815,2.815l-2.632,2.676l-2.628,2.631l-2.534,2.534l-2.44,2.44   l-2.347,2.348c-0.191,0.19-0.754,0.706-0.754,0.706l-0.938,0.891l-1.222,1.175l-1.597,1.503l-1.784,1.781l-2.159,2.065   l-2.348,2.257l-2.628,2.534l-2.818,2.722l-3.003,2.913l-3.194,3.097l-3.378,3.193l-3.475,3.382l-3.569,3.378l-3.662,3.568   l-3.851,3.663l-3.756,3.662l-3.943,3.756l-3.848,3.754l-3.943,3.756l-3.85,3.756l-3.851,3.663l-3.756,3.662l-3.663,3.569   l-3.568,3.378l-3.568,3.381l-3.285,3.194l-3.193,3.097l-3.003,2.912l-2.819,2.722l-2.628,2.535l-2.347,2.253l-2.159,2.065   l-1.878,1.784l-1.504,1.503l-1.222,1.129l-0.938,0.938l-0.562,0.469C337.763,541.604,337.763,595.5,337.763,595.5z"
   id="path10"
   style="stroke:none;fill:#000000;fill-opacity:1" />
</g>
</svg>