<?xml version="1.0" encoding="UTF-8" standalone="no"?>
<!-- Generator: Adobe Illustrator 16.0.1, SVG Export Plug-In . SVG Version: 6.00 Build 0)  -->

<svg
   xmlns:dc="http://purl.org/dc/elements/1.1/"
   xmlns:cc="http://creativecommons.org/ns#"
   xmlns:rdf="http://www.w3.org/1999/02/22-rdf-syntax-ns#"
   xmlns:svg="http://www.w3.org/2000/svg"
   xmlns="http://www.w3.org/2000/svg"
   xmlns:sodipodi="http://sodipodi.sourceforge.net/DTD/sodipodi-0.dtd"
   xmlns:inkscape="http://www.inkscape.org/namespaces/inkscape"
   version="1.0"
   id="_x31_"
   x="0px"
   y="0px"
   width="612px"
   height="792px"
   viewBox="0 0 612 792"
   enable-background="new 0 0 612 792"
   xml:space="preserve"
   inkscape:version="0.48.2 r9819"
   sodipodi:docname="7058.svg"><metadata
   id="metadata19"><rdf:RDF><cc:Work
       rdf:about=""><dc:format>image/svg+xml</dc:format><dc:type
         rdf:resource="http://purl.org/dc/dcmitype/StillImage" /></cc:Work></rdf:RDF></metadata><defs
   id="defs17" /><sodipodi:namedview
   pagecolor="#ffffff"
   bordercolor="#666666"
   borderopacity="1"
   objecttolerance="10"
   gridtolerance="10"
   guidetolerance="10"
   inkscape:pageopacity="0"
   inkscape:pageshadow="2"
   inkscape:window-width="1920"
   inkscape:window-height="1073"
   id="namedview15"
   showgrid="false"
   inkscape:zoom="0.2979798"
   inkscape:cx="-432.30508"
   inkscape:cy="396"
   inkscape:window-x="0"
   inkscape:window-y="0"
   inkscape:window-maximized="1"
   inkscape:current-layer="_x31_" />
<g
   id="LWPOLYLINE_2_"
   style="stroke:#000000;stroke-opacity:1;fill:#000000;fill-opacity:1">
	
		<path
   style="fill:#000000;fill-opacity:1;stroke:#000000;stroke-width:0.7087;stroke-linecap:round;stroke-linejoin:round;stroke-miterlimit:10;stroke-opacity:1"
   d="m 453.09375,195.5 c -36.969,-0.97652 -74.66187,16.0647 -94.78125,47.78125 -29.57419,45.42547 -33.61318,101.74892 -33.39895,154.5249 1.53079,53.7387 8.68683,110.89201 41.21145,155.50635 22.18099,30.95029 61.68547,45.92729 99.00011,41.57069 38.36877,-2.0226 72.34365,-27.66589 89.27104,-61.4766 26.86656,-52.23032 30.56236,-112.82097 28.22702,-170.50981 C 579.74911,315.1151 570.73115,263.34849 536.43143,227.44483 514.96988,205.03174 483.57462,195.21674 453.09375,195.5 z m 0,45.28125 c 25.44536,-1.28566 49.14064,15.23297 58.59889,38.5742 17.8271,41.93367 16.80278,88.72482 16.70484,133.45066 -1.78304,38.90434 -3.91914,81.09153 -27.20998,113.97514 -21.3999,30.60365 -72.41676,31.47726 -94.39308,1.07637 -23.92745,-32.536 -26.80411,-74.83805 -28.85919,-113.81308 -0.36754,-45.1258 -0.92473,-92.3214 17.31472,-134.51329 10.00255,-23.2473 31.91,-39.74385 57.8438,-38.75 z"
   id="polygon10"
   inkscape:connector-curvature="0" />
</g><g
   id="LWPOLYLINE"
   style="stroke:none;fill:#000000;fill-opacity:1">
	
		<path
   style="fill:#000000;fill-opacity:1;stroke:none"
   d="m 28.875,203.0625 c -0.325842,128.29108 -0.186233,256.58341 -0.25,384.875 17.583333,0 35.166667,0 52.75,0 0.220205,-57.1181 0.03099,-114.25115 0.09375,-171.375 48.14026,-2.11062 98.38561,5.10797 144.67864,-11.84934 38.0922,-15.53586 64.5161,-56.12461 62.82126,-97.3635 0.65776,-30.45025 -11.65811,-60.94855 -34.93728,-80.94119 -26.96472,-25.05782 -66.24448,-22.98617 -100.49431,-23.34572 -41.55394,-1.7e-4 -83.108547,3.4e-4 -124.66206,-2.5e-4 z m 52.59375,43.375 c 33.83354,0.66949 67.81009,-1.50984 101.5402,1.46172 22.30703,1.84458 43.89845,17.36764 47.52077,40.34735 5.66202,26.4833 -0.12927,59.85833 -26.21655,73.48332 -31.14493,15.96282 -67.27589,9.79407 -100.90697,11.11381 -7.15625,0 -14.3125,0 -21.46875,0 -0.626715,-42.12929 -0.345472,-84.27254 -0.4687,-126.4062 z"
   id="path4"
   inkscape:connector-curvature="0" />
</g>
<g
   id="LWPOLYLINE_1_">
	
		
</g>

<g
   id="LWPOLYLINE_3_">
	
		
</g>
</svg>