<?xml version="1.0" encoding="UTF-8" standalone="no"?>
<!-- Generator: Adobe Illustrator 16.0.1, SVG Export Plug-In . SVG Version: 6.00 Build 0)  -->

<svg
   xmlns:dc="http://purl.org/dc/elements/1.1/"
   xmlns:cc="http://creativecommons.org/ns#"
   xmlns:rdf="http://www.w3.org/1999/02/22-rdf-syntax-ns#"
   xmlns:svg="http://www.w3.org/2000/svg"
   xmlns="http://www.w3.org/2000/svg"
   xmlns:xlink="http://www.w3.org/1999/xlink"
   xmlns:sodipodi="http://sodipodi.sourceforge.net/DTD/sodipodi-0.dtd"
   xmlns:inkscape="http://www.inkscape.org/namespaces/inkscape"
   version="1.0"
   id="_x31_"
   x="0px"
   y="0px"
   width="612px"
   height="792px"
   viewBox="0 0 612 792"
   enable-background="new 0 0 612 792"
   xml:space="preserve"
   inkscape:version="0.48.2 r9819"
   sodipodi:docname="7059.svg"><metadata
   id="metadata16"><rdf:RDF><cc:Work
       rdf:about=""><dc:format>image/svg+xml</dc:format><dc:type
         rdf:resource="http://purl.org/dc/dcmitype/StillImage" /></cc:Work></rdf:RDF></metadata><defs
   id="defs14"><linearGradient
     inkscape:collect="always"
     id="linearGradient3762"><stop
       style="stop-color:#000000;stop-opacity:1;"
       offset="0"
       id="stop3764" /><stop
       style="stop-color:#000000;stop-opacity:0;"
       offset="1"
       id="stop3766" /></linearGradient><linearGradient
     inkscape:collect="always"
     xlink:href="#linearGradient3762"
     id="linearGradient3768"
     x1="320.211"
     y1="395.508"
     x2="582.393"
     y2="395.508"
     gradientUnits="userSpaceOnUse" /></defs><sodipodi:namedview
   pagecolor="#ffffff"
   bordercolor="#666666"
   borderopacity="1"
   objecttolerance="10"
   gridtolerance="10"
   guidetolerance="10"
   inkscape:pageopacity="0"
   inkscape:pageshadow="2"
   inkscape:window-width="1920"
   inkscape:window-height="1073"
   id="namedview12"
   showgrid="false"
   inkscape:zoom="0.84281414"
   inkscape:cx="17.695389"
   inkscape:cy="346.83992"
   inkscape:window-x="0"
   inkscape:window-y="0"
   inkscape:window-maximized="1"
   inkscape:current-layer="_x31_" />
<g
   id="LWPOLYLINE"
   style="stroke:none;fill:#000000;fill-opacity:1">
	
		<path
   style="fill:#000000;fill-opacity:1;stroke:none"
   d="m 29.84375,203.0625 c -0.323758,128.29109 -0.186062,256.5834 -0.25,384.875 17.583333,0 35.166667,0 52.75,0 0.220211,-57.1181 0.03098,-114.25115 0.09375,-171.375 48.14136,-2.11085 98.37976,5.10337 144.67675,-11.8422 37.39731,-15.26978 63.70352,-54.70723 62.86322,-95.24068 0.90892,-30.17271 -10.18477,-60.90109 -33.01303,-81.21783 -25.60456,-25.84288 -64.50412,-24.97462 -98.25657,-25.19904 -42.95462,-1.7e-4 -85.909919,3.4e-4 -128.86412,-2.5e-4 z m 52.59375,43.375 c 33.83194,0.67059 67.80768,-1.51427 101.53588,1.46104 22.31397,1.82677 43.88651,17.34193 47.5353,40.30998 5.67864,26.53535 -0.12414,60.121 -26.41493,73.60383 -31.10231,15.87267 -67.15518,9.70337 -100.71875,11.0312 -7.15625,0 -14.3125,0 -21.46875,0 C 82.277456,330.71446 82.560697,288.57054 82.4375,246.4375 z"
   id="path4"
   inkscape:connector-curvature="0" />
</g>
<g
   id="LWPOLYLINE_1_">
	
		
</g>
<g
   id="LWPOLYLINE_2_"
   style="stroke:none;fill-opacity:1;fill:#000000">
	
		<path
   style="fill:#000000;fill-opacity:1;stroke:none"
   d="m 320.211,486.055 c -1.46882,27.81093 6.9743,57.0097 28.375,75.917 33.04554,30.9585 81.9191,37.00821 125.193,31.781 46.12636,-5.49851 90.38998,-36.46918 104.05954,-82.02166 13.78654,-41.80868 -3.75726,-94.66375 -45.75386,-112.6959 -10.32125,-4.78353 -21.45896,-7.60482 -32.69668,-9.19544 33.34307,-6.24143 64.25275,-29.81952 73.36583,-63.34725 13.35525,-42.51735 -6.70683,-92.42133 -46.27798,-113.22692 -39.93728,-21.55126 -89.04873,-22.39853 -131.75095,-8.92817 -32.30673,9.99716 -59.76977,36.5782 -66.1254,70.44494 -1.73008,8.05168 -2.59966,16.27166 -2.7725,24.5014 18.73133,0 37.46267,0 56.194,0 1.86662,-22.9331 14.69108,-45.91028 37.09355,-54.23224 26.39719,-9.82314 59.25125,-8.94057 82.24803,8.62882 22.26374,18.9797 23.76449,54.57086 10.49808,79.1186 -17.34832,28.13703 -53.79688,34.12819 -84.30803,33.21721 -6.16971,-0.28311 -14.06933,-2.88075 -11.16663,6.36661 0,12.71333 0,25.42667 0,38.14 29.64407,0.6243 63.06593,-1.07319 87.26541,19.1343 33.22717,28.09209 28.6107,88.8858 -10.32854,109.78432 -25.49003,13.71346 -58.1419,14.69784 -84.31832,2.28719 -20.66214,-9.975 -30.93743,-33.5415 -30.38655,-55.65781 -19.46366,-0.0107 -38.97001,0.0213 -58.407,-0.016 z"
   id="path10"
   inkscape:connector-curvature="0" />
</g>
</svg>