<?xml version="1.0" encoding="UTF-8" standalone="no"?>
<!-- Generator: Adobe Illustrator 16.0.1, SVG Export Plug-In . SVG Version: 6.00 Build 0)  -->

<svg
   xmlns:dc="http://purl.org/dc/elements/1.1/"
   xmlns:cc="http://creativecommons.org/ns#"
   xmlns:rdf="http://www.w3.org/1999/02/22-rdf-syntax-ns#"
   xmlns:svg="http://www.w3.org/2000/svg"
   xmlns="http://www.w3.org/2000/svg"
   xmlns:sodipodi="http://sodipodi.sourceforge.net/DTD/sodipodi-0.dtd"
   xmlns:inkscape="http://www.inkscape.org/namespaces/inkscape"
   version="1.0"
   id="_x31_"
   x="0px"
   y="0px"
   width="612px"
   height="792px"
   viewBox="0 0 612 792"
   enable-background="new 0 0 612 792"
   xml:space="preserve"
   inkscape:version="0.48.2 r9819"
   sodipodi:docname="7060.svg"><metadata
   id="metadata19"><rdf:RDF><cc:Work
       rdf:about=""><dc:format>image/svg+xml</dc:format><dc:type
         rdf:resource="http://purl.org/dc/dcmitype/StillImage" /></cc:Work></rdf:RDF></metadata><defs
   id="defs17" /><sodipodi:namedview
   pagecolor="#ffffff"
   bordercolor="#666666"
   borderopacity="1"
   objecttolerance="10"
   gridtolerance="10"
   guidetolerance="10"
   inkscape:pageopacity="0"
   inkscape:pageshadow="2"
   inkscape:window-width="1445"
   inkscape:window-height="947"
   id="namedview15"
   showgrid="false"
   inkscape:zoom="0.5959596"
   inkscape:cx="-62.481968"
   inkscape:cy="362.37699"
   inkscape:window-x="0"
   inkscape:window-y="0"
   inkscape:window-maximized="0"
   inkscape:current-layer="_x31_" />
<g
   id="LWPOLYLINE"
   style="stroke:none;fill:#000000;fill-opacity:1">
	
		<path
   style="fill:#000000;fill-opacity:1;stroke:none"
   d="m 11.65625,195.5 c -0.321698,133.33276 -0.165906,266.66674 -0.21875,400 18.25,0 36.5,0 54.75,0 0.220224,-59.36842 0.03097,-118.7511 0.09375,-178.125 50.46458,-2.20618 103.22331,5.49121 151.625,-12.78115 37.74363,-16.12506 64.34994,-55.85644 64.09365,-97.0625 1.1821,-31.80878 -10.21232,-64.39166 -34.32073,-85.85203 -26.85172,-27.035 -67.59459,-25.91744 -102.92922,-26.17902 -44.36445,-2e-4 -88.729848,4.1e-4 -133.0937,-3e-4 z m 54.625,45.09375 c 35.1637,0.69752 70.47583,-1.56491 105.53282,1.50765 23.16941,1.93216 45.66602,18.01408 49.39655,41.91652 5.92178,27.58058 -0.14741,62.43214 -27.42937,76.48208 -32.34684,16.50291 -69.8209,10.04968 -104.71875,11.4374 -7.427083,0 -14.854167,0 -22.28125,0 -0.65663,-43.77476 -0.367608,-87.56439 -0.5,-131.34365 z"
   id="path4"
   inkscape:connector-curvature="0" />
</g>
<g
   id="LWPOLYLINE_1_">
	
		
</g>
<g
   id="LWPOLYLINE_2_"
   style="stroke:none;fill:#000000;fill-opacity:1">
	
		<path
   style="fill:#000000;fill-opacity:1;stroke:none"
   d="m 480.46875,195.5 c -53.5291,75.10494 -105.86445,151.47646 -159.03125,227 -4.92055,9.588 -16.40617,17.02166 -13.96875,28.90625 0,19.91667 0,39.83333 0,59.75 60.66667,0 121.33333,0 182,0 1.05913,27.85237 -0.80888,57.88709 1.21875,84.34375 17.33333,0 34.66667,0 52,0 0.22205,-28.0988 0.0276,-56.23205 0.0937,-84.34375 19.46875,0 38.9375,0 58.40625,0 0.86241,-15.46134 0.13232,-31.29861 0.375,-46.90625 -19.49855,-0.55754 -39.70086,0.65738 -58.78125,-0.5937 0,-89.38542 0,-178.77083 0,-268.15625 -20.77077,-3e-5 -41.54188,7e-5 -62.31245,-5e-5 z m 9.09375,59.21875 c 0.66099,69.60909 0.0913,139.3657 0.28125,209.03125 -46.40205,0.5242 -92.81302,0.30406 -139.21875,0.40625 46.26737,-69.84072 92.66404,-139.60382 138.9375,-209.4375 z"
   id="path10"
   inkscape:connector-curvature="0" />
</g>
<g
   id="LWPOLYLINE_3_">
	
		
</g>
</svg>