<?xml version="1.0" encoding="UTF-8" standalone="no"?>
<!-- Generator: Adobe Illustrator 16.0.1, SVG Export Plug-In . SVG Version: 6.00 Build 0)  -->

<svg
   xmlns:dc="http://purl.org/dc/elements/1.1/"
   xmlns:cc="http://creativecommons.org/ns#"
   xmlns:rdf="http://www.w3.org/1999/02/22-rdf-syntax-ns#"
   xmlns:svg="http://www.w3.org/2000/svg"
   xmlns="http://www.w3.org/2000/svg"
   xmlns:sodipodi="http://sodipodi.sourceforge.net/DTD/sodipodi-0.dtd"
   xmlns:inkscape="http://www.inkscape.org/namespaces/inkscape"
   version="1.0"
   id="_x31_"
   x="0px"
   y="0px"
   width="612px"
   height="792px"
   viewBox="0 0 612 792"
   enable-background="new 0 0 612 792"
   xml:space="preserve"
   inkscape:version="0.48.2 r9819"
   sodipodi:docname="7062.svg"><metadata
   id="metadata34"><rdf:RDF><cc:Work
       rdf:about=""><dc:format>image/svg+xml</dc:format><dc:type
         rdf:resource="http://purl.org/dc/dcmitype/StillImage" /></cc:Work></rdf:RDF></metadata><defs
   id="defs32" /><sodipodi:namedview
   pagecolor="#ffffff"
   bordercolor="#666666"
   borderopacity="1"
   objecttolerance="10"
   gridtolerance="10"
   guidetolerance="10"
   inkscape:pageopacity="0"
   inkscape:pageshadow="2"
   inkscape:window-width="1920"
   inkscape:window-height="1073"
   id="namedview30"
   showgrid="false"
   inkscape:zoom="0.84281414"
   inkscape:cx="66.343091"
   inkscape:cy="371.47379"
   inkscape:window-x="0"
   inkscape:window-y="0"
   inkscape:window-maximized="1"
   inkscape:current-layer="_x31_" />
<g
   id="LWPOLYLINE_5_"
   style="stroke:none;fill:#000000;fill-opacity:1">
	
		<path
   style="fill:#000000;fill-opacity:1;stroke:none"
   d="m 490.21875,548.9375 c -16.17312,-1.40455 -31.10031,11.6072 -31.5625,27.9687 -2.75397,16.83964 4.79904,38.10609 23.78125,40.875 16.18568,4.06801 35.0094,-5.66009 37.625,-22.875 4.1392,-16.94441 -0.77294,-40.51387 -20.25,-44.875 -3.12385,-0.81879 -6.37245,-1.09817 -9.59375,-1.0937 z m -0.84375,11.46875 c 13.99381,-0.79308 17.49714,16.26679 16.28125,27.12495 0.57273,10.39681 -7.39384,22.44781 -19.0624,19.15625 -14.0928,-3.35534 -13.96273,-21.65957 -11.5937,-33 1.38581,-6.95157 6.83156,-13.33509 14.37485,-13.2812 z"
   id="polygon19"
   inkscape:connector-curvature="0" />
</g><g
   id="LWPOLYLINE_3_"
   style="stroke:none;fill:#000000;fill-opacity:1">
	
		<path
   style="fill:#000000;fill-opacity:1;stroke:none"
   d="m 397.65625,478.5625 c -16.59213,-0.69087 -30.2905,13.93719 -30.0625,30.3125 -2.30406,17.22202 7.92024,37.20611 26.7188,38.90625 18.32515,3.70294 36.33219,-11.29939 36.71875,-29.75 2.40499,-16.23932 -5.49314,-36.22939 -23.4688,-38.75 -3.2648,-0.61789 -6.58954,-0.79053 -9.90625,-0.71875 z M 399.375,490 c 14.56904,-0.22897 17.75773,17.52207 16.0938,28.84365 0.0552,11.04952 -10.6008,21.61661 -21.8125,16.8125 -12.86174,-6.41093 -12.16106,-24.54875 -8.1874,-36.28125 2.19737,-5.72007 7.71477,-9.59923 13.9061,-9.3749 z"
   id="polygon13"
   inkscape:connector-curvature="0" />
</g><g
   id="LWPOLYLINE_2_"
   style="stroke:none;stroke-opacity:1;fill:#000000;fill-opacity:1">
	
		<path
   style="fill:#000000;fill-opacity:1;stroke:none"
   d="m 328.1875,145.5 c 0,16.09375 0,32.1875 0,48.28125 -77.73958,0 -155.47917,0 -233.21875,0 0,8.17708 0,16.35417 0,24.53125 77.73958,0 155.47917,0 233.21875,0 0,32.1875 0,64.375 0,96.5625 -77.73958,0 -155.47917,0 -233.21875,0 0,7.91667 0,15.83333 0,23.75 77.73958,0 155.47917,0 233.21875,0 0,16.09375 0,32.1875 0,48.28125 32.17708,0 64.35417,0 96.53125,0 0,-16.09375 0,-32.1875 0,-48.28125 16.10417,0 32.20833,0 48.3125,0 0,-48.28125 0,-96.5625 0,-144.84375 -16.10417,0 -32.20833,0 -48.3125,0 0,-16.09375 0,-32.1875 0,-48.28125 -32.17708,0 -64.35417,0 -96.53125,0 z m 24.53125,24.5625 c 15.55208,0 31.10417,0 46.65625,0 0,64.09375 0,128.1875 0,192.28125 -15.55208,0 -31.10417,0 -46.65625,0 0,-64.09375 0,-128.1875 0,-192.28125 z m 72,47.4375 c 7.14524,0.94007 18.01468,-1.84405 22.9375,1.31844 0,31.74802 0,63.49604 0,95.24406 -7.14524,-0.94007 -18.01468,1.84405 -22.9375,-1.31844 0,-31.74802 0,-63.49604 0,-95.24406 z"
   id="polygon10"
   inkscape:connector-curvature="0" />
</g><g
   id="LWPOLYLINE">
	
		
</g>
<g
   id="LWPOLYLINE_1_">
	
		
</g>


<g
   id="LWPOLYLINE_4_">
	
		
</g>

<g
   id="LWPOLYLINE_6_">
	
		
</g>
<g
   id="LWPOLYLINE_7_"
   style="stroke:none;fill:#000000;fill-opacity:1">
	
		<path
   style="fill:#000000;fill-opacity:1;stroke:none"
   d="m 406.752,623.404 c 28.70054,-49.85444 58.37582,-100.27581 86.504,-149.759 -4.3034,0.70084 -10.23496,-1.45586 -13.493,1.079 -28.68053,49.57198 -57.42082,99.1098 -86.104,148.68 4.36433,0 8.72867,0 13.093,0 z"
   id="path25"
   inkscape:connector-curvature="0" />
</g>
<g
   id="LWPOLYLINE_8_"
   style="stroke:none;fill:#000000;fill-opacity:1">
	
		<path
   style="fill:#000000;fill-opacity:1;stroke:none"
   d="m 130.15,645.5 c 0,-36.01467 0,-72.02933 0,-108.044 -12.81933,0 -25.63867,0 -38.458,0 16.369,-30.82 32.738,-61.64 49.107,-92.46 16.08933,30.82 32.17867,61.64 48.268,92.46 -12.54633,0 -25.09267,0 -37.639,0 0,36.01467 0,72.02933 0,108.044 -7.09267,0 -14.18533,0 -21.278,0 z"
   id="polygon28"
   inkscape:connector-curvature="0" />
</g>
</svg>