<?xml version="1.0" encoding="UTF-8" standalone="no"?>
<!-- Generator: Adobe Illustrator 16.0.1, SVG Export Plug-In . SVG Version: 6.00 Build 0)  -->

<svg
   xmlns:dc="http://purl.org/dc/elements/1.1/"
   xmlns:cc="http://creativecommons.org/ns#"
   xmlns:rdf="http://www.w3.org/1999/02/22-rdf-syntax-ns#"
   xmlns:svg="http://www.w3.org/2000/svg"
   xmlns="http://www.w3.org/2000/svg"
   xmlns:sodipodi="http://sodipodi.sourceforge.net/DTD/sodipodi-0.dtd"
   xmlns:inkscape="http://www.inkscape.org/namespaces/inkscape"
   version="1.0"
   id="_x31_"
   x="0px"
   y="0px"
   width="612px"
   height="792px"
   viewBox="0 0 612 792"
   enable-background="new 0 0 612 792"
   xml:space="preserve"
   inkscape:version="0.48.2 r9819"
   sodipodi:docname="7067.svg"><metadata
   id="metadata16"><rdf:RDF><cc:Work
       rdf:about=""><dc:format>image/svg+xml</dc:format><dc:type
         rdf:resource="http://purl.org/dc/dcmitype/StillImage" /></cc:Work></rdf:RDF></metadata><defs
   id="defs14" /><sodipodi:namedview
   pagecolor="#ffffff"
   bordercolor="#666666"
   borderopacity="1"
   objecttolerance="10"
   gridtolerance="10"
   guidetolerance="10"
   inkscape:pageopacity="0"
   inkscape:pageshadow="2"
   inkscape:window-width="1920"
   inkscape:window-height="1073"
   id="namedview12"
   showgrid="false"
   inkscape:zoom="1.1919192"
   inkscape:cx="128.58359"
   inkscape:cy="385.00744"
   inkscape:window-x="0"
   inkscape:window-y="0"
   inkscape:window-maximized="1"
   inkscape:current-layer="_x31_" />
<g
   id="LWPOLYLINE"
   style="stroke:none;fill:#000000;fill-opacity:1">
	
		<path
   style="stroke:none;fill:#000000;fill-opacity:1"
   d="M 21.90625 195.5 C 21.67025 195.499 21.6875 595.5 21.6875 595.5 L 22.53125 595.5 L 23.21875 595.5 L 24.03125 595.5 L 24.96875 595.5 L 26.125 595.5 L 27.375 595.5 L 28.75 595.5 L 30.25 595.5 L 31.8125 595.5 L 33.5 595.5 L 35.3125 595.5 L 37.125 595.5 L 39.0625 595.5 L 40.96875 595.5 L 42.96875 595.5 L 45 595.5 L 47.0625 595.5 L 49.09375 595.5 L 51.15625 595.5 L 53.21875 595.5 L 55.21875 595.5 L 57.25 595.5 L 59.21875 595.5 L 61.125 595.5 L 62.9375 595.5 L 64.71875 595.5 L 66.375 595.5 L 67.96875 595.5 L 69.5 595.5 L 70.84375 595.5 L 72.125 595.5 L 73.25 595.5 L 74.1875 595.5 L 75.0625 595.5 L 75.6875 595.5 L 76.5 595.5 C 76.597 595.213 76.59375 594.15625 76.59375 594.15625 L 76.59375 592.625 L 76.59375 590.53125 L 76.59375 587.84375 L 76.59375 584.6875 L 76.59375 581.03125 L 76.59375 576.9375 L 76.59375 572.4375 L 76.59375 567.65625 L 76.59375 562.46875 L 76.59375 556.90625 L 76.59375 551.1875 L 76.59375 545.25 L 76.59375 539 L 76.59375 532.6875 L 76.59375 526.1875 L 76.59375 519.5625 L 76.59375 512.96875 L 76.59375 506.28125 L 76.59375 499.5625 L 76.59375 492.96875 L 76.59375 486.34375 L 76.59375 479.84375 L 76.59375 473.53125 L 76.59375 467.3125 L 76.59375 461.375 L 76.59375 455.625 L 76.59375 450.15625 L 76.59375 444.90625 L 76.59375 440.125 L 76.59375 435.625 L 76.59375 431.5625 L 76.59375 427.90625 L 76.59375 424.75 L 76.59375 422.0625 L 76.59375 419.90625 L 76.59375 418.375 L 76.59375 417.375 C 77.07175 417.088 77.59375 417.09375 77.59375 417.09375 L 78.40625 417.09375 L 79.34375 417.09375 L 80.5 417.09375 L 81.8125 417.09375 L 83.28125 417.09375 L 84.90625 417.09375 L 86.6875 417.09375 L 88.5625 417.09375 L 90.5625 417.09375 L 92.625 417.09375 L 94.78125 417.09375 L 97.03125 417.09375 L 99.375 417.09375 L 101.71875 417.09375 L 104.0625 417.09375 L 106.5 417.09375 L 108.9375 417.09375 L 111.34375 417.09375 L 113.78125 417.09375 L 116.125 417.09375 L 118.53125 417.09375 L 120.8125 417.09375 L 123.0625 417.09375 L 125.21875 417.09375 L 127.28125 417.09375 L 129.28125 417.09375 L 131.15625 417.09375 L 132.9375 417.09375 L 134.5625 417.09375 L 136.03125 417.09375 L 137.34375 417.09375 L 138.46875 417.09375 L 139.5 417.09375 L 140.25 417.09375 L 140.8125 417.09375 C 141.2435 417.09375 146.46875 417.03125 146.46875 417.03125 L 151.5625 416.9375 L 156.46875 416.84375 L 161.28125 416.65625 L 165.875 416.40625 L 170.375 416.1875 L 174.71875 415.84375 L 178.9375 415.46875 L 183.0625 415.03125 L 186.96875 414.59375 L 190.8125 414.0625 L 194.53125 413.5 L 198.125 412.9375 L 201.625 412.25 L 204.96875 411.59375 L 208.21875 410.875 L 211.375 410.09375 L 214.40625 409.28125 L 217.375 408.4375 L 220.1875 407.53125 L 222.9375 406.5625 L 225.59375 405.59375 L 228.15625 404.59375 L 230.625 403.5 L 233.03125 402.4375 L 235.3125 401.28125 L 237.5625 400.09375 L 239.71875 398.90625 L 241.84375 397.65625 L 243.84375 396.40625 L 245.8125 395.0625 L 247.6875 393.71875 L 249.53125 392.34375 L 251.3125 390.96875 L 253 389.46875 L 254.65625 388 L 256.28125 386.5 L 257.875 384.96875 L 259.40625 383.375 L 260.875 381.75 L 262.46875 380.125 L 264.03125 378.5 L 265.53125 376.84375 L 267 375.21875 L 268.40625 373.46875 L 269.78125 371.8125 L 271.125 370.09375 L 272.40625 368.34375 L 273.65625 366.625 L 274.875 364.875 L 276.0625 363.09375 L 277.15625 361.3125 L 278.25 359.5 L 279.28125 357.6875 L 280.28125 355.875 L 281.21875 354 L 282.125 352.125 L 283.0625 350.25 L 283.875 348.40625 L 284.6875 346.46875 L 285.40625 344.5625 L 286.125 342.65625 L 286.78125 340.6875 L 287.40625 338.71875 L 288.03125 336.71875 L 288.5625 334.75 L 289.09375 332.75 L 289.5625 330.71875 L 290 328.6875 L 290.375 326.625 L 290.75 324.5625 L 291.03125 322.5 L 291.34375 320.40625 L 291.5625 318.28125 L 291.8125 316.125 L 291.9375 314.03125 L 292.09375 311.875 L 292.1875 309.6875 L 292.25 307.53125 L 292.25 305.3125 L 292.25 303.125 L 292.1875 300.90625 L 292.09375 298.71875 L 292 296.5625 L 291.84375 294.40625 L 291.71875 292.1875 L 291.53125 290.09375 L 291.28125 287.9375 L 291 285.78125 L 290.71875 283.6875 L 290.375 281.5625 L 290 279.46875 L 289.5625 277.40625 L 289.125 275.3125 L 288.65625 273.25 L 288.125 271.1875 L 287.53125 269.1875 L 286.96875 267.15625 L 286.3125 265.15625 L 285.625 263.15625 L 284.90625 261.1875 L 284.15625 259.21875 L 283.34375 257.25 L 282.53125 255.34375 L 281.59375 253.4375 L 280.6875 251.5 L 279.75 249.65625 L 278.6875 247.78125 L 277.625 245.90625 L 276.53125 244.09375 L 275.375 242.28125 L 274.1875 240.5 L 272.9375 238.71875 L 271.65625 236.96875 L 270.3125 235.21875 L 268.9375 233.5 L 267.4375 231.84375 L 265.96875 230.15625 L 264.4375 228.46875 L 262.84375 226.84375 L 260.9375 224.6875 L 258.96875 222.6875 L 256.96875 220.71875 L 254.9375 218.875 L 252.875 217.09375 L 250.84375 215.40625 L 248.6875 213.84375 L 246.53125 212.3125 L 244.375 210.90625 L 242.125 209.5625 L 239.875 208.34375 L 237.5625 207.125 L 235.21875 206.03125 L 232.875 204.96875 L 230.4375 204.03125 L 228 203.125 L 225.5 202.3125 L 222.96875 201.53125 L 220.375 200.8125 L 217.75 200.15625 L 215.0625 199.5625 L 212.34375 199.03125 L 209.625 198.53125 L 206.78125 198.09375 L 203.90625 197.65625 L 201.0625 197.3125 L 198.09375 197 L 195.125 196.75 L 192.0625 196.46875 L 188.9375 196.28125 L 185.78125 196.0625 L 182.5625 195.9375 L 179.3125 195.84375 L 176 195.75 L 172.65625 195.65625 L 169.25 195.59375 L 165.78125 195.5625 L 162.21875 195.5 L 158.625 195.5 L 155 195.5 L 154.03125 195.5 L 152.84375 195.5 L 151.25 195.5 L 149.25 195.5 L 146.90625 195.5 L 144.1875 195.5 L 141.125 195.5 L 137.75 195.5 L 134.1875 195.5 L 130.28125 195.5 L 126.1875 195.5 L 121.90625 195.5 L 117.40625 195.5 L 112.8125 195.5 L 108.09375 195.5 L 103.1875 195.5 L 98.3125 195.5 L 93.34375 195.5 L 88.3125 195.5 L 83.34375 195.5 L 78.34375 195.5 L 73.4375 195.5 L 68.59375 195.5 L 63.84375 195.5 L 59.25 195.5 L 54.75 195.5 L 50.4375 195.5 L 46.375 195.5 L 42.5 195.5 L 38.875 195.5 L 35.5 195.5 L 32.5 195.5 L 29.78125 195.5 L 27.375 195.5 L 25.40625 195.5 L 23.78125 195.5 L 22.625 195.5 L 21.90625 195.5 z M 76.59375 240.59375 L 77.125 240.59375 L 77.78125 240.59375 L 78.6875 240.59375 L 79.84375 240.59375 L 81.21875 240.59375 L 82.75 240.59375 L 84.53125 240.59375 L 86.4375 240.59375 L 88.5 240.59375 L 90.75 240.59375 L 93.09375 240.59375 L 95.53125 240.59375 L 98.125 240.59375 L 100.75 240.59375 L 103.5 240.59375 L 106.25 240.59375 L 109.09375 240.59375 L 111.96875 240.59375 L 114.78125 240.59375 L 117.65625 240.59375 L 120.53125 240.59375 L 123.34375 240.59375 L 126.125 240.59375 L 128.84375 240.59375 L 131.5 240.59375 L 134.0625 240.59375 L 136.53125 240.59375 L 138.875 240.59375 L 141.125 240.59375 L 143.15625 240.59375 L 145.09375 240.59375 L 146.84375 240.59375 L 148.375 240.59375 L 149.71875 240.59375 L 150.875 240.59375 L 151.84375 240.59375 L 152.5 240.59375 L 153.03125 240.59375 L 155.28125 240.59375 L 157.59375 240.59375 L 159.96875 240.65625 L 162.40625 240.6875 L 164.9375 240.75 L 167.5 240.84375 L 170.0625 240.9375 L 172.71875 241.125 L 175.34375 241.3125 L 178.03125 241.59375 L 180.6875 241.875 L 183.375 242.3125 L 186.0625 242.75 L 188.75 243.28125 L 191.375 243.90625 L 194.0625 244.625 L 196.625 245.4375 L 199.21875 246.34375 L 201.75 247.34375 L 204.25 248.4375 L 206.6875 249.6875 L 209.09375 251.03125 L 211.375 252.5 L 213.59375 254.15625 L 215.75 255.90625 L 217.8125 257.8125 L 219.75 259.875 L 221.625 262.125 L 223.34375 264.53125 L 224.96875 267.0625 L 226.5 269.78125 L 227.90625 272.71875 L 229.15625 275.8125 L 230.25 279.125 L 231.1875 282.625 L 231.96875 286.34375 L 232.59375 290.28125 L 233.0625 294.40625 L 233.3125 298.75 L 233.40625 303.34375 L 233.3125 308.09375 L 233.03125 312.59375 L 232.53125 316.90625 L 231.875 321.03125 L 231 324.90625 L 229.96875 328.53125 L 228.75 332.03125 L 227.40625 335.34375 L 225.9375 338.4375 L 224.25 341.375 L 222.5 344.125 L 220.5625 346.71875 L 218.5 349.125 L 216.375 351.375 L 214.125 353.46875 L 211.71875 355.4375 L 209.21875 357.25 L 206.6875 358.9375 L 204.0625 360.5 L 201.34375 361.9375 L 198.5 363.25 L 195.6875 364.375 L 192.75 365.5 L 189.78125 366.4375 L 186.78125 367.3125 L 183.75 368.0625 L 180.6875 368.78125 L 177.59375 369.375 L 174.53125 369.90625 L 171.375 370.375 L 168.25 370.71875 L 165.125 371.03125 L 162.0625 371.3125 L 158.96875 371.53125 L 155.9375 371.65625 L 152.875 371.8125 L 149.90625 371.90625 L 147 371.9375 L 144.09375 371.9375 L 141.25 371.9375 L 140.25 371.9375 L 139.46875 371.9375 L 138.46875 371.9375 L 137.34375 371.9375 L 136.03125 371.9375 L 134.5625 371.9375 L 132.9375 371.9375 L 131.15625 371.9375 L 129.28125 371.9375 L 127.28125 371.9375 L 125.21875 371.9375 L 123.0625 371.9375 L 120.8125 371.9375 L 118.53125 371.9375 L 116.125 371.9375 L 113.78125 371.9375 L 111.34375 371.9375 L 108.9375 371.9375 L 106.5 371.9375 L 104.0625 371.9375 L 101.71875 371.9375 L 99.375 371.9375 L 97.03125 371.9375 L 94.78125 371.9375 L 92.625 371.9375 L 90.5625 371.9375 L 88.5625 371.9375 L 86.6875 371.9375 L 84.90625 371.9375 L 83.28125 371.9375 L 81.8125 371.9375 L 80.5 371.9375 L 79.34375 371.9375 L 78.40625 371.9375 L 77.59375 371.9375 L 77.0625 371.9375 C 76.5845 371.9375 76.59375 240.59375 76.59375 240.59375 z "
   id="path4" />
</g>
<g
   id="LWPOLYLINE_1_">
	
		
</g>
<g
   id="LWPOLYLINE_2_"
   style="stroke:none;fill:#000000;fill-opacity:1">
	
		<path
   fill="none"
   stroke="#000000"
   stroke-width="0.7087"
   stroke-linecap="round"
   stroke-linejoin="round"
   stroke-miterlimit="10"
   d="   M325.604,244.519c0.384,0,1.531,0,1.531,0h1.818h2.49h3.062h3.734h4.213h4.787h5.169h5.65h6.031h6.415h6.7h6.894h7.275h7.372h7.565   h7.659h7.753h7.757h7.85h7.659h7.754h7.565h7.372h7.181h6.987h6.703h6.319h6.031h5.646h5.266h4.788h4.212h3.638h3.159h2.491h1.818   h1.15c0.381,0,0.094,0.669,0.094,0.669l-0.859,1.869l-1.341,3.109l-1.916,4.166l-2.297,5.266l-2.778,6.272L520.815,273l-3.54,8.044   l-3.832,8.806l-4.212,9.528l-4.5,10.197l-4.788,10.769l-4.978,11.297l-5.169,11.778l-5.362,12.156l-5.554,12.497l-5.646,12.731   l-5.65,12.972l-5.84,13.069L456,420.01l-5.841,13.162l-5.743,13.068l-5.744,12.926l-5.65,12.831l-5.456,12.443l-5.362,12.159   l-5.266,11.778l-4.979,11.297l-4.69,10.819l-4.5,10.146l-4.212,9.575l-3.926,8.806l-3.543,7.947l-3.16,7.182l-2.774,6.222   l-2.297,5.266l-1.819,4.212l-1.34,3.066l-0.863,1.912l-0.287,0.672c0.479,0,1.053,0,1.053,0h0.766h1.054h1.149h1.341h1.531h1.722   h1.819h1.915h2.013h2.2h2.203h2.297h2.394h2.394h2.491h2.487h2.49h2.488h2.49h2.487h2.394h2.395h2.297h2.203h2.203h2.009h1.916   h1.818h1.722h1.535h1.337h1.15h1.053h0.766h0.575c0.479,0,0.766-0.672,0.766-0.672l0.766-1.912l1.244-3.066l1.725-4.212   l2.203-5.266l2.584-6.222l2.966-7.182l3.354-7.947l3.638-8.806l3.925-9.575l4.212-10.146l4.403-10.819l4.694-11.297l4.881-11.778   l5.075-12.159l5.169-12.443l5.266-12.831l5.362-12.926l5.359-13.068l5.459-13.162l5.456-13.166l5.363-13.069l5.359-12.972   l5.266-12.731l5.172-12.497l5.074-12.156l4.785-11.778l4.693-11.297l4.497-10.769l4.212-10.197l3.929-9.528l3.638-8.806l3.35-8.044   l2.969-7.131l2.487-6.272l2.203-5.266l1.722-4.166l1.341-3.109l0.766-1.869l0.288-0.669c0-0.334,0-0.766,0-0.766v-0.622v-0.719   v-0.863v-1.006v-1.1V238.2v-1.341v-1.438v-1.481v-1.581v-1.628v-1.722v-1.725v-1.818v-1.772v-1.866v-1.819v-1.819v-1.818v-1.819   v-1.819v-1.725v-1.675v-1.675v-1.581v-1.484v-1.435v-1.34v-1.197v-1.15v-1.003v-0.862v-0.719v-0.622c0-0.384,0-0.669,0-0.669   c-0.572-0.097-1.913-0.097-1.913-0.097h-2.394h-3.159h-3.925h-4.694h-5.456h-6.031h-6.606h-7.181h-7.754h-8.137h-8.522h-8.81h-9.19   h-9.478H487.5h-9.766h-9.862h-9.956h-9.863h-9.859h-9.862h-9.575h-9.381h-9.19h-8.903h-8.521h-8.138h-7.659h-7.182h-6.7h-6.031   h-5.362h-4.69h-4.022h-3.159h-2.297h-1.438C325.604,195.5,325.604,244.519,325.604,244.519z"
   id="path10"
   style="stroke:none;fill:#000000;fill-opacity:1" />
</g>
</svg>