<?xml version="1.0" encoding="UTF-8" standalone="no"?>
<!-- Generator: Adobe Illustrator 16.0.1, SVG Export Plug-In . SVG Version: 6.00 Build 0)  -->

<svg
   xmlns:dc="http://purl.org/dc/elements/1.1/"
   xmlns:cc="http://creativecommons.org/ns#"
   xmlns:rdf="http://www.w3.org/1999/02/22-rdf-syntax-ns#"
   xmlns:svg="http://www.w3.org/2000/svg"
   xmlns="http://www.w3.org/2000/svg"
   xmlns:sodipodi="http://sodipodi.sourceforge.net/DTD/sodipodi-0.dtd"
   xmlns:inkscape="http://www.inkscape.org/namespaces/inkscape"
   version="1.0"
   id="_x31_"
   x="0px"
   y="0px"
   width="612px"
   height="792px"
   viewBox="0 0 612 792"
   enable-background="new 0 0 612 792"
   xml:space="preserve"
   inkscape:version="0.48.2 r9819"
   sodipodi:docname="7068.svg"><metadata
   id="metadata22"><rdf:RDF><cc:Work
       rdf:about=""><dc:format>image/svg+xml</dc:format><dc:type
         rdf:resource="http://purl.org/dc/dcmitype/StillImage" /></cc:Work></rdf:RDF></metadata><defs
   id="defs20" /><sodipodi:namedview
   pagecolor="#ffffff"
   bordercolor="#666666"
   borderopacity="1"
   objecttolerance="10"
   gridtolerance="10"
   guidetolerance="10"
   inkscape:pageopacity="0"
   inkscape:pageshadow="2"
   inkscape:window-width="1920"
   inkscape:window-height="1073"
   id="namedview18"
   showgrid="false"
   inkscape:zoom="0.2979798"
   inkscape:cx="-432.30508"
   inkscape:cy="396"
   inkscape:window-x="0"
   inkscape:window-y="0"
   inkscape:window-maximized="1"
   inkscape:current-layer="_x31_" />
<g
   id="LWPOLYLINE_2_"
   style="stroke:none;fill:#000000;fill-opacity:1">
	
		<path
   style="fill:#000000;stroke:none;stroke-width:0.70870000000000000;stroke-linecap:round;stroke-linejoin:round;stroke-miterlimit:10;fill-opacity:1"
   d="M 451.28125 195.5 L 445.375 195.59375 L 439.6875 195.8125 L 433.96875 196.21875 L 428.53125 196.78125 L 423.09375 197.46875 L 417.84375 198.34375 L 412.6875 199.375 L 407.71875 200.46875 L 402.8125 201.75 L 398.125 203.1875 L 393.53125 204.75 L 389 206.46875 L 384.6875 208.3125 L 380.53125 210.25 L 376.46875 212.3125 L 372.5 214.53125 L 368.8125 216.875 L 365.15625 219.3125 L 361.65625 221.84375 L 358.3125 224.53125 L 355.1875 227.28125 L 352.15625 230.1875 L 349.3125 233.1875 L 346.53125 236.25 L 343.96875 239.4375 L 341.5625 242.75 L 339.25 246.125 L 337.21875 249.5625 L 335.28125 253.15625 L 333.4375 256.8125 L 331.875 260.53125 L 330.40625 264.3125 L 329.125 268.21875 L 328.03125 272.1875 L 327 276.1875 L 326.28125 280.34375 L 325.625 284.5 L 325.25 288.71875 L 324.96875 293 L 324.875 297.375 L 324.875 300.25 L 325.0625 303.0625 L 325.25 305.90625 L 325.625 308.71875 L 326 311.5625 L 326.53125 314.375 L 327.09375 317.1875 L 327.84375 320 L 328.65625 322.78125 L 329.5 325.53125 L 330.5 328.28125 L 331.59375 331 L 332.8125 333.6875 L 334 336.3125 L 335.375 338.9375 L 336.875 341.53125 L 338.4375 344.0625 L 340.09375 346.53125 L 341.84375 349.03125 L 343.78125 351.40625 L 345.71875 353.71875 L 347.71875 356.03125 L 349.9375 358.21875 L 352.15625 360.40625 L 354.5625 362.53125 L 357.03125 364.53125 L 359.53125 366.53125 L 362.1875 368.40625 L 364.96875 370.21875 L 367.8125 371.96875 L 370.84375 373.5625 L 373.90625 375.15625 L 377.03125 376.625 L 380.34375 378 L 383.75 379.28125 L 387.25 380.46875 L 390.84375 381.53125 L 394.53125 382.5625 L 398.3125 383.4375 L 402.1875 384.15625 L 400.4375 384.625 L 398.59375 385.125 L 396.5625 385.65625 L 394.4375 386.25 L 392.125 386.9375 L 389.84375 387.625 L 387.4375 388.4375 L 384.84375 389.28125 L 382.375 390.25 L 379.6875 391.25 L 377.03125 392.375 L 374.25 393.5625 L 371.59375 394.84375 L 368.8125 396.21875 L 365.96875 397.71875 L 363.21875 399.3125 L 360.4375 401.03125 L 357.6875 402.8125 L 354.90625 404.75 L 352.25 406.8125 L 349.5625 409 L 346.90625 411.34375 L 344.40625 413.78125 L 341.9375 416.375 L 339.53125 419.125 L 337.21875 421.96875 L 334.9375 425.03125 L 332.90625 428.25 L 330.875 431.59375 L 329.03125 435.09375 L 327.28125 438.8125 L 325.625 442.65625 L 324.25 446.71875 L 322.9375 450.96875 L 321.84375 455.375 L 320.9375 459.96875 L 320.1875 464.78125 L 319.625 469.75 L 319.34375 475 L 319.1875 480.4375 L 319.28125 484.5 L 319.4375 488.625 L 319.8125 492.78125 L 320.28125 496.9375 L 320.9375 501.0625 L 321.75 505.21875 L 322.6875 509.28125 L 323.6875 513.40625 L 324.96875 517.46875 L 326.28125 521.4375 L 327.84375 525.46875 L 329.59375 529.34375 L 331.4375 533.3125 L 333.4375 537.09375 L 335.65625 540.875 L 337.96875 544.5625 L 340.5625 548.15625 L 343.21875 551.65625 L 346.0625 555.15625 L 349.125 558.46875 L 352.4375 561.6875 L 355.84375 564.8125 L 359.4375 567.84375 L 363.21875 570.71875 L 367.15625 573.46875 L 371.40625 576.15625 L 375.75 578.65625 L 380.34375 580.9375 L 385.03125 583.15625 L 390.03125 585.1875 L 395.1875 587.125 L 400.625 588.78125 L 406.125 590.25 L 411.9375 591.625 L 417.9375 592.8125 L 424.1875 593.75 L 430.65625 594.46875 L 437.28125 595.03125 L 444.1875 595.40625 L 451.28125 595.5 L 458.5625 595.40625 L 465.5625 595.03125 L 472.28125 594.46875 L 478.8125 593.75 L 485.1875 592.8125 L 491.34375 591.625 L 497.25 590.25 L 502.875 588.78125 L 508.3125 587.125 L 513.5625 585.1875 L 518.625 583.15625 L 523.5 580.9375 L 528.09375 578.65625 L 532.53125 576.15625 L 536.78125 573.46875 L 540.8125 570.71875 L 544.6875 567.84375 L 548.28125 564.8125 L 551.78125 561.6875 L 555 558.46875 L 558.15625 555.15625 L 561.09375 551.65625 L 563.75 548.15625 L 566.34375 544.5625 L 568.75 540.875 L 570.9375 537.09375 L 572.96875 533.3125 L 574.8125 529.34375 L 576.5625 525.46875 L 578.125 521.4375 L 579.5 517.46875 L 580.71875 513.40625 L 581.8125 509.28125 L 582.75 505.21875 L 583.46875 501.0625 L 584.125 496.9375 L 584.59375 492.78125 L 584.9375 488.625 L 585.125 484.5 L 585.21875 480.4375 L 585.125 475 L 584.78125 469.75 L 584.21875 464.78125 L 583.46875 459.96875 L 582.5625 455.375 L 581.4375 450.96875 L 580.25 446.71875 L 578.78125 442.65625 L 577.21875 438.8125 L 575.46875 435.09375 L 573.53125 431.59375 L 571.59375 428.25 L 569.46875 425.03125 L 567.25 421.96875 L 564.96875 419.125 L 562.5625 416.375 L 560.0625 413.78125 L 557.5 411.34375 L 554.90625 409 L 552.25 406.8125 L 549.46875 404.75 L 546.71875 402.8125 L 543.96875 401.03125 L 541.1875 399.3125 L 538.4375 397.71875 L 535.65625 396.21875 L 532.90625 394.84375 L 530.125 393.5625 L 527.375 392.375 L 524.6875 391.25 L 522.125 390.25 L 519.53125 389.28125 L 517.0625 388.4375 L 514.65625 387.625 L 512.25 386.9375 L 510.0625 386.25 L 507.9375 385.65625 L 505.90625 385.125 L 503.96875 384.625 L 502.21875 384.15625 L 506.09375 383.4375 L 509.96875 382.5625 L 513.65625 381.53125 L 517.25 380.46875 L 520.75 379.28125 L 524.0625 378 L 527.375 376.625 L 530.5 375.15625 L 533.625 373.5625 L 536.59375 371.96875 L 539.4375 370.21875 L 542.21875 368.40625 L 544.875 366.53125 L 547.46875 364.53125 L 549.9375 362.53125 L 552.25 360.40625 L 554.5625 358.21875 L 556.65625 356.03125 L 558.78125 353.71875 L 560.71875 351.40625 L 562.5625 349.03125 L 564.3125 346.53125 L 565.96875 344.0625 L 567.53125 341.53125 L 569 338.9375 L 570.40625 336.3125 L 571.6875 333.6875 L 572.875 331 L 573.90625 328.28125 L 574.90625 325.53125 L 575.84375 322.78125 L 576.5625 320 L 577.3125 317.1875 L 577.9375 314.375 L 578.40625 311.5625 L 578.875 308.71875 L 579.15625 305.90625 L 579.4375 303.0625 L 579.5 300.25 L 579.59375 297.375 L 579.5 293 L 579.25 288.71875 L 578.78125 284.5 L 578.125 280.34375 L 577.40625 276.1875 L 576.46875 272.1875 L 575.28125 268.21875 L 574 264.3125 L 572.5 260.53125 L 570.9375 256.8125 L 569.09375 253.15625 L 567.15625 249.5625 L 565.0625 246.125 L 562.84375 242.75 L 560.34375 239.4375 L 557.78125 236.25 L 555 233.1875 L 552.15625 230.1875 L 549.03125 227.28125 L 545.875 224.53125 L 542.46875 221.84375 L 538.96875 219.3125 L 535.28125 216.875 L 531.53125 214.53125 L 527.5625 212.3125 L 523.40625 210.25 L 519.1875 208.3125 L 514.75 206.46875 L 510.25 204.75 L 505.53125 203.1875 L 500.75 201.75 L 495.78125 200.46875 L 490.71875 199.375 L 485.46875 198.34375 L 480.125 197.46875 L 474.59375 196.78125 L 468.96875 196.21875 L 463.15625 195.8125 L 457.28125 195.59375 L 451.28125 195.5 z M 451.28125 235.09375 L 454.875 235.1875 L 458.46875 235.34375 L 461.96875 235.625 L 465.28125 235.9375 L 468.59375 236.40625 L 471.8125 236.9375 L 474.96875 237.59375 L 478 238.34375 L 480.9375 239.21875 L 483.8125 240.125 L 486.5625 241.09375 L 489.21875 242.1875 L 491.8125 243.40625 L 494.3125 244.65625 L 496.6875 245.96875 L 499 247.375 L 501.3125 248.875 L 503.40625 250.4375 L 505.4375 252.0625 L 507.375 253.78125 L 509.21875 255.53125 L 511.0625 257.34375 L 512.71875 259.25 L 514.28125 261.21875 L 515.78125 263.21875 L 517.25 265.28125 L 518.53125 267.4375 L 519.71875 269.625 L 520.84375 271.875 L 521.84375 274.125 L 522.78125 276.46875 L 523.59375 278.8125 L 524.34375 281.28125 L 524.96875 283.71875 L 525.53125 286.25 L 526 288.78125 L 526.28125 291.34375 L 526.53125 293.96875 L 526.71875 296.59375 L 526.71875 299.28125 L 526.71875 302.09375 L 526.53125 304.8125 L 526.1875 307.53125 L 525.8125 310.15625 L 525.25 312.71875 L 524.59375 315.21875 L 523.875 317.65625 L 523.03125 320.0625 L 522.125 322.34375 L 521.03125 324.59375 L 519.90625 326.8125 L 518.625 328.9375 L 517.34375 331 L 515.84375 333.03125 L 514.28125 334.96875 L 512.625 336.8125 L 510.96875 338.625 L 509.125 340.375 L 507.28125 342.03125 L 505.25 343.625 L 503.25 345.15625 L 501.125 346.59375 L 498.90625 347.96875 L 496.59375 349.25 L 494.21875 350.5 L 491.8125 351.65625 L 489.3125 352.75 L 486.75 353.78125 L 484.0625 354.6875 L 481.40625 355.53125 L 478.625 356.3125 L 475.78125 357 L 472.9375 357.625 L 469.96875 358.15625 L 466.9375 358.59375 L 463.90625 358.96875 L 460.84375 359.28125 L 457.71875 359.46875 L 454.5 359.625 L 451.28125 359.65625 L 448.15625 359.625 L 445.09375 359.46875 L 442.0625 359.28125 L 439.125 358.96875 L 436.15625 358.59375 L 433.3125 358.15625 L 430.46875 357.625 L 427.6875 357 L 424.9375 356.3125 L 422.25 355.53125 L 419.6875 354.6875 L 417.09375 353.78125 L 414.625 352.75 L 412.125 351.65625 L 409.71875 350.5 L 407.4375 349.25 L 405.21875 347.96875 L 403 346.59375 L 400.96875 345.15625 L 398.9375 343.625 L 397.03125 342.03125 L 395.09375 340.375 L 393.34375 338.625 L 391.6875 336.8125 L 390.03125 334.96875 L 388.53125 333.03125 L 387.0625 331 L 385.78125 328.9375 L 384.5 326.8125 L 383.375 324.59375 L 382.28125 322.34375 L 381.34375 320.0625 L 380.53125 317.65625 L 379.78125 315.21875 L 379.15625 312.71875 L 378.59375 310.15625 L 378.21875 307.53125 L 377.9375 304.8125 L 377.75 302.09375 L 377.6875 299.28125 L 377.75 296.59375 L 377.84375 293.96875 L 378.125 291.34375 L 378.5 288.78125 L 378.96875 286.25 L 379.4375 283.71875 L 380.0625 281.28125 L 380.8125 278.8125 L 381.625 276.46875 L 382.5625 274.125 L 383.5625 271.875 L 384.6875 269.625 L 385.875 267.4375 L 387.15625 265.28125 L 388.53125 263.21875 L 390.03125 261.21875 L 391.59375 259.25 L 393.25 257.34375 L 395 255.53125 L 396.84375 253.78125 L 398.6875 252.0625 L 400.6875 250.4375 L 402.8125 248.875 L 405.03125 247.375 L 407.25 245.96875 L 409.625 244.65625 L 412.03125 243.40625 L 414.625 242.1875 L 417.1875 241.09375 L 419.875 240.125 L 422.625 239.21875 L 425.46875 238.34375 L 428.4375 237.59375 L 431.46875 236.9375 L 434.59375 236.40625 L 437.75 235.9375 L 441.0625 235.625 L 444.375 235.34375 L 447.78125 235.1875 L 451.28125 235.09375 z M 451.28125 408.71875 L 454.78125 408.78125 L 458.1875 408.90625 L 461.59375 409.125 L 464.90625 409.5 L 468.21875 409.90625 L 471.4375 410.46875 L 474.59375 411.0625 L 477.625 411.8125 L 480.65625 412.625 L 483.53125 413.5 L 486.375 414.53125 L 489.21875 415.59375 L 491.90625 416.71875 L 494.46875 418.03125 L 497.0625 419.34375 L 499.5625 420.78125 L 501.9375 422.3125 L 504.25 423.875 L 506.46875 425.5625 L 508.59375 427.3125 L 510.59375 429.15625 L 512.53125 431.09375 L 514.46875 433.125 L 516.21875 435.1875 L 517.875 437.375 L 519.4375 439.5625 L 520.9375 441.9375 L 522.3125 444.3125 L 523.59375 446.71875 L 524.78125 449.3125 L 525.8125 451.875 L 526.8125 454.5625 L 527.65625 457.3125 L 528.375 460.15625 L 529.03125 463.03125 L 529.59375 465.96875 L 529.9375 469 L 530.3125 472.15625 L 530.40625 475.28125 L 530.5 478.5 L 530.5 480.625 L 530.40625 482.84375 L 530.21875 485.125 L 530.03125 487.4375 L 529.78125 489.75 L 529.40625 492.03125 L 528.9375 494.4375 L 528.375 496.84375 L 527.84375 499.21875 L 527.1875 501.625 L 526.34375 504.125 L 525.53125 506.5 L 524.59375 508.90625 L 523.5 511.3125 L 522.40625 513.59375 L 521.09375 516 L 519.71875 518.3125 L 518.25 520.59375 L 516.6875 522.8125 L 514.9375 524.9375 L 513.09375 527.15625 L 511.15625 529.15625 L 509.125 531.1875 L 506.9375 533.125 L 504.53125 534.96875 L 502.03125 536.71875 L 499.46875 538.46875 L 496.6875 540.03125 L 493.75 541.59375 L 490.71875 543 L 487.46875 544.28125 L 484.15625 545.46875 L 480.65625 546.59375 L 476.96875 547.5 L 473.125 548.34375 L 469.0625 548.96875 L 464.90625 549.53125 L 460.5 549.90625 L 455.96875 550.09375 L 451.28125 550.1875 L 446.6875 550.09375 L 442.25 549.90625 L 438 549.53125 L 433.96875 548.96875 L 430.09375 548.34375 L 426.3125 547.5 L 422.71875 546.59375 L 419.3125 545.46875 L 416.09375 544.28125 L 412.96875 543 L 409.90625 541.59375 L 407.15625 540.03125 L 404.375 538.46875 L 401.90625 536.71875 L 399.40625 534.96875 L 397.09375 533.125 L 395 531.1875 L 392.96875 529.15625 L 391.03125 527.15625 L 389.28125 524.9375 L 387.625 522.8125 L 386.0625 520.59375 L 384.59375 518.3125 L 383.1875 516 L 382 513.59375 L 380.8125 511.3125 L 379.78125 508.90625 L 378.875 506.5 L 378.03125 504.125 L 377.21875 501.625 L 376.5625 499.21875 L 376 496.84375 L 375.46875 494.4375 L 375.09375 492.03125 L 374.71875 489.75 L 374.4375 487.4375 L 374.1875 485.125 L 374.09375 482.84375 L 374 480.625 L 373.90625 478.5 L 374 475.28125 L 374.1875 472.15625 L 374.4375 469 L 374.90625 465.96875 L 375.375 463.03125 L 376 460.15625 L 376.75 457.3125 L 377.59375 454.5625 L 378.59375 451.875 L 379.59375 449.3125 L 380.8125 446.71875 L 382.09375 444.3125 L 383.46875 441.9375 L 384.84375 439.5625 L 386.4375 437.375 L 388.09375 435.1875 L 389.84375 433.125 L 391.6875 431.09375 L 393.59375 429.15625 L 395.625 427.3125 L 397.75 425.5625 L 399.875 423.875 L 402.1875 422.3125 L 404.46875 420.78125 L 406.875 419.34375 L 409.375 418.03125 L 411.9375 416.71875 L 414.625 415.59375 L 417.28125 414.53125 L 420.0625 413.5 L 422.90625 412.625 L 425.84375 411.8125 L 428.8125 411.0625 L 431.84375 410.46875 L 434.96875 409.90625 L 438.09375 409.5 L 441.34375 409.125 L 444.5625 408.90625 L 447.875 408.78125 L 451.28125 408.71875 z "
   id="polygon10" />
</g><g
   id="LWPOLYLINE"
   style="stroke:none;fill:#000000;fill-opacity:1">
	
		<path
   style="stroke:none;fill:#000000;fill-opacity:1"
   d="M 27 203.0625 C 26.768 203.0565 26.78125 587.9375 26.78125 587.9375 L 27.59375 587.9375 L 28.25 587.9375 L 29.03125 587.9375 L 30 587.9375 L 31.0625 587.9375 L 32.25 587.9375 L 33.59375 587.9375 L 35.03125 587.9375 L 36.53125 587.9375 L 38.1875 587.9375 L 39.90625 587.9375 L 41.65625 587.9375 L 43.5 587.9375 L 45.375 587.9375 L 47.28125 587.9375 L 49.25 587.9375 L 51.1875 587.9375 L 53.15625 587.9375 L 55.15625 587.9375 L 57.125 587.9375 L 59.0625 587.9375 L 61 587.9375 L 62.875 587.9375 L 64.71875 587.9375 L 66.46875 587.9375 L 68.1875 587.9375 L 69.78125 587.9375 L 71.375 587.9375 L 72.78125 587.9375 L 74.125 587.9375 L 75.3125 587.9375 L 76.375 587.9375 L 77.34375 587.9375 L 78.125 587.9375 L 78.71875 587.9375 L 79.5 587.9375 C 79.594 587.6605 79.59375 586.65625 79.59375 586.65625 L 79.59375 585.1875 L 79.59375 583.15625 L 79.59375 580.5625 L 79.59375 577.53125 L 79.59375 574.03125 L 79.59375 570.0625 L 79.59375 565.75 L 79.59375 561.125 L 79.59375 556.15625 L 79.59375 550.8125 L 79.59375 545.28125 L 79.59375 539.5625 L 79.59375 533.59375 L 79.59375 527.5 L 79.59375 521.25 L 79.59375 514.90625 L 79.59375 508.53125 L 79.59375 502.09375 L 79.59375 495.625 L 79.59375 489.28125 L 79.59375 482.9375 L 79.59375 476.65625 L 79.59375 470.59375 L 79.59375 464.59375 L 79.59375 458.875 L 79.59375 453.34375 L 79.59375 448.09375 L 79.59375 443.03125 L 79.59375 438.4375 L 79.59375 434.09375 L 79.59375 430.1875 L 79.59375 426.6875 L 79.59375 423.65625 L 79.59375 421.0625 L 79.59375 419 L 79.59375 417.53125 L 79.59375 416.5625 C 80.05275 416.2895 80.5625 416.28125 80.5625 416.28125 L 81.34375 416.28125 L 82.28125 416.28125 L 83.375 416.28125 L 84.625 416.28125 L 86.0625 416.28125 L 87.625 416.28125 L 89.3125 416.28125 L 91.125 416.28125 L 93.0625 416.28125 L 95.03125 416.28125 L 97.15625 416.28125 L 99.28125 416.28125 L 101.53125 416.28125 L 103.78125 416.28125 L 106.09375 416.28125 L 108.40625 416.28125 L 110.75 416.28125 L 113.0625 416.28125 L 115.40625 416.28125 L 117.6875 416.28125 L 119.96875 416.28125 L 122.15625 416.28125 L 124.34375 416.28125 L 126.40625 416.28125 L 128.375 416.28125 L 130.3125 416.28125 L 132.125 416.28125 L 133.8125 416.28125 L 135.375 416.28125 L 136.8125 416.28125 L 138.0625 416.28125 L 139.15625 416.28125 L 140.125 416.28125 L 140.875 416.28125 L 141.4375 416.28125 C 141.8515 416.28125 146.90625 416.21875 146.90625 416.21875 L 151.75 416.125 L 156.5 416.03125 L 161.09375 415.84375 L 165.5 415.625 L 169.84375 415.40625 L 174.03125 415.0625 L 178.09375 414.71875 L 182.0625 414.28125 L 185.8125 413.875 L 189.5625 413.375 L 193.09375 412.8125 L 196.5625 412.28125 L 199.90625 411.625 L 203.15625 410.96875 L 206.28125 410.28125 L 209.3125 409.5625 L 212.21875 408.78125 L 215.0625 407.9375 L 217.78125 407.0625 L 220.40625 406.125 L 223 405.21875 L 225.46875 404.25 L 227.84375 403.1875 L 230.125 402.1875 L 232.40625 401.0625 L 234.5 399.9375 L 236.59375 398.78125 L 238.625 397.5625 L 240.53125 396.375 L 242.4375 395.09375 L 244.21875 393.78125 L 246.03125 392.46875 L 247.71875 391.125 L 249.375 389.6875 L 250.96875 388.28125 L 252.53125 386.84375 L 254.03125 385.375 L 255.5 383.84375 L 256.9375 382.28125 L 258.46875 380.71875 L 259.96875 379.15625 L 261.40625 377.53125 L 262.84375 375.96875 L 264.21875 374.3125 L 265.5 372.6875 L 266.8125 371.03125 L 268.03125 369.375 L 269.25 367.71875 L 270.4375 366.03125 L 271.53125 364.3125 L 272.59375 362.625 L 273.65625 360.875 L 274.6875 359.125 L 275.59375 357.375 L 276.53125 355.5625 L 277.4375 353.78125 L 278.28125 351.96875 L 279.0625 350.1875 L 279.84375 348.34375 L 280.53125 346.5 L 281.21875 344.65625 L 281.875 342.75 L 282.5 340.875 L 283.0625 338.9375 L 283.5625 337.0625 L 284.0625 335.125 L 284.53125 333.1875 L 284.9375 331.1875 L 285.3125 329.21875 L 285.6875 327.25 L 286 325.25 L 286.25 323.21875 L 286.46875 321.1875 L 286.6875 319.125 L 286.84375 317.09375 L 286.96875 315.03125 L 287.0625 312.90625 L 287.125 310.84375 L 287.125 308.71875 L 287.125 306.59375 L 287.0625 304.5 L 287.03125 302.375 L 286.875 300.28125 L 286.75 298.21875 L 286.59375 296.09375 L 286.4375 294.0625 L 286.1875 292 L 285.90625 289.9375 L 285.625 287.90625 L 285.3125 285.875 L 284.9375 283.84375 L 284.53125 281.875 L 284.125 279.84375 L 283.65625 277.875 L 283.15625 275.875 L 282.59375 273.9375 L 282.03125 272.03125 L 281.40625 270.09375 L 280.75 268.15625 L 280.0625 266.25 L 279.34375 264.375 L 278.53125 262.46875 L 277.75 260.625 L 276.875 258.78125 L 276 256.9375 L 275.09375 255.15625 L 274.09375 253.34375 L 273.0625 251.5625 L 272 249.8125 L 270.90625 248.0625 L 269.75 246.34375 L 268.5625 244.65625 L 267.3125 242.9375 L 266.03125 241.28125 L 264.6875 239.625 L 263.3125 238.03125 L 261.8125 236.40625 L 260.34375 234.8125 L 258.84375 233.21875 L 257 231.15625 L 255.09375 229.21875 L 253.15625 227.34375 L 251.21875 225.53125 L 249.25 223.84375 L 247.28125 222.21875 L 245.1875 220.6875 L 243.15625 219.21875 L 241.0625 217.875 L 238.875 216.59375 L 236.71875 215.40625 L 234.5 214.25 L 232.25 213.1875 L 230 212.1875 L 227.65625 211.25 L 225.3125 210.375 L 222.90625 209.59375 L 220.46875 208.875 L 217.96875 208.1875 L 215.4375 207.53125 L 212.875 206.96875 L 210.25 206.46875 L 207.625 205.96875 L 204.90625 205.53125 L 202.1875 205.125 L 199.375 204.8125 L 196.5 204.5 L 193.65625 204.25 L 190.71875 203.96875 L 187.71875 203.8125 L 184.6875 203.625 L 181.625 203.46875 L 178.5 203.375 L 175.28125 203.28125 L 172.0625 203.1875 L 168.78125 203.15625 L 165.40625 203.09375 L 162 203.0625 L 158.5625 203.0625 L 155.0625 203.0625 L 154.125 203.0625 L 153.03125 203.0625 L 151.46875 203.0625 L 149.5625 203.0625 L 147.28125 203.0625 L 144.65625 203.0625 L 141.75 203.0625 L 138.53125 203.0625 L 135.03125 203.0625 L 131.28125 203.0625 L 127.375 203.0625 L 123.21875 203.0625 L 118.90625 203.0625 L 114.46875 203.0625 L 109.90625 203.0625 L 105.25 203.0625 L 100.53125 203.0625 L 95.71875 203.0625 L 90.9375 203.0625 L 86.09375 203.0625 L 81.3125 203.0625 L 76.625 203.0625 L 71.90625 203.0625 L 67.34375 203.0625 L 62.9375 203.0625 L 58.59375 203.0625 L 54.5 203.0625 L 50.53125 203.0625 L 46.8125 203.0625 L 43.34375 203.0625 L 40.125 203.0625 L 37.1875 203.0625 L 34.5625 203.0625 L 32.3125 203.0625 L 30.375 203.0625 L 28.84375 203.0625 L 27.6875 203.0625 L 27 203.0625 z M 79.59375 246.4375 L 80.125 246.4375 L 80.75 246.4375 L 81.6875 246.4375 L 82.75 246.4375 L 84.0625 246.4375 L 85.5625 246.4375 L 87.25 246.4375 L 89.09375 246.4375 L 91.0625 246.4375 L 93.25 246.4375 L 95.5 246.4375 L 97.84375 246.4375 L 100.34375 246.4375 L 102.875 246.4375 L 105.5 246.4375 L 108.15625 246.4375 L 110.875 246.4375 L 113.65625 246.4375 L 116.40625 246.4375 L 119.125 246.4375 L 121.90625 246.4375 L 124.625 246.4375 L 127.28125 246.4375 L 129.90625 246.4375 L 132.4375 246.4375 L 134.9375 246.4375 L 137.28125 246.4375 L 139.53125 246.4375 L 141.6875 246.4375 L 143.6875 246.4375 L 145.53125 246.4375 L 147.21875 246.4375 L 148.6875 246.4375 L 150.03125 246.4375 L 151.15625 246.4375 L 152.03125 246.4375 L 152.65625 246.4375 L 153.15625 246.4375 L 155.34375 246.4375 L 157.59375 246.4375 L 159.84375 246.5 L 162.25 246.53125 L 164.625 246.59375 L 167.09375 246.6875 L 169.5625 246.78125 L 172.09375 246.9375 L 174.625 247.125 L 177.21875 247.40625 L 179.78125 247.6875 L 182.375 248.09375 L 184.9375 248.53125 L 187.53125 249.03125 L 190.125 249.625 L 192.65625 250.3125 L 195.125 251.09375 L 197.625 251.96875 L 200.0625 252.9375 L 202.46875 254 L 204.8125 255.1875 L 207.09375 256.5 L 209.3125 257.90625 L 211.4375 259.46875 L 213.5 261.1875 L 215.5 263.03125 L 217.375 265 L 219.1875 267.1875 L 220.875 269.46875 L 222.4375 271.90625 L 223.875 274.53125 L 225.21875 277.34375 L 226.40625 280.34375 L 227.46875 283.53125 L 228.375 286.875 L 229.125 290.46875 L 229.71875 294.25 L 230.1875 298.21875 L 230.46875 302.40625 L 230.5625 306.8125 L 230.46875 311.375 L 230.125 315.71875 L 229.6875 319.875 L 229.03125 323.8125 L 228.1875 327.5625 L 227.1875 331.0625 L 226.03125 334.40625 L 224.75 337.59375 L 223.3125 340.59375 L 221.71875 343.40625 L 220 346.0625 L 218.15625 348.5625 L 216.1875 350.875 L 214.09375 353.03125 L 211.9375 355.0625 L 209.625 356.9375 L 207.25 358.6875 L 204.8125 360.3125 L 202.28125 361.8125 L 199.65625 363.21875 L 196.96875 364.4375 L 194.21875 365.5625 L 191.40625 366.625 L 188.53125 367.53125 L 185.6875 368.375 L 182.75 369.09375 L 179.78125 369.78125 L 176.84375 370.34375 L 173.84375 370.84375 L 170.84375 371.3125 L 167.8125 371.625 L 164.875 371.96875 L 161.875 372.25 L 158.875 372.40625 L 155.96875 372.5625 L 153.0625 372.6875 L 150.1875 372.78125 L 147.375 372.84375 L 144.59375 372.84375 L 141.84375 372.84375 L 140.875 372.84375 L 140.125 372.84375 L 139.15625 372.84375 L 138.0625 372.84375 L 136.8125 372.84375 L 135.375 372.84375 L 133.8125 372.84375 L 132.125 372.84375 L 130.3125 372.84375 L 128.375 372.84375 L 126.40625 372.84375 L 124.34375 372.84375 L 122.15625 372.84375 L 119.96875 372.84375 L 117.6875 372.84375 L 115.40625 372.84375 L 113.0625 372.84375 L 110.75 372.84375 L 108.40625 372.84375 L 106.09375 372.84375 L 103.78125 372.84375 L 101.53125 372.84375 L 99.28125 372.84375 L 97.15625 372.84375 L 95.03125 372.84375 L 93.0625 372.84375 L 91.125 372.84375 L 89.3125 372.84375 L 87.625 372.84375 L 86.0625 372.84375 L 84.625 372.84375 L 83.375 372.84375 L 82.28125 372.84375 L 81.34375 372.84375 L 80.5625 372.84375 L 80.0625 372.84375 C 79.6035 372.84475 79.59375 246.4375 79.59375 246.4375 z "
   id="path4" />
</g>
<g
   id="LWPOLYLINE_1_">
	
		
</g>

<g
   id="LWPOLYLINE_3_">
	
		
</g>
<g
   id="LWPOLYLINE_4_">
	
		
</g>
</svg>