<?xml version="1.0" encoding="UTF-8" standalone="no"?>
<!-- Generator: Adobe Illustrator 16.0.1, SVG Export Plug-In . SVG Version: 6.00 Build 0)  -->

<svg
   xmlns:dc="http://purl.org/dc/elements/1.1/"
   xmlns:cc="http://creativecommons.org/ns#"
   xmlns:rdf="http://www.w3.org/1999/02/22-rdf-syntax-ns#"
   xmlns:svg="http://www.w3.org/2000/svg"
   xmlns="http://www.w3.org/2000/svg"
   xmlns:sodipodi="http://sodipodi.sourceforge.net/DTD/sodipodi-0.dtd"
   xmlns:inkscape="http://www.inkscape.org/namespaces/inkscape"
   version="1.0"
   id="_x31_"
   x="0px"
   y="0px"
   width="612px"
   height="792px"
   viewBox="0 0 612 792"
   enable-background="new 0 0 612 792"
   xml:space="preserve"
   inkscape:version="0.48.2 r9819"
   sodipodi:docname="7070.svg"><metadata
   id="metadata34"><rdf:RDF><cc:Work
       rdf:about=""><dc:format>image/svg+xml</dc:format><dc:type
         rdf:resource="http://purl.org/dc/dcmitype/StillImage" /></cc:Work></rdf:RDF></metadata><defs
   id="defs32" /><sodipodi:namedview
   pagecolor="#ffffff"
   bordercolor="#666666"
   borderopacity="1"
   objecttolerance="10"
   gridtolerance="10"
   guidetolerance="10"
   inkscape:pageopacity="0"
   inkscape:pageshadow="2"
   inkscape:window-width="1920"
   inkscape:window-height="1073"
   id="namedview30"
   showgrid="false"
   inkscape:zoom="1.1919192"
   inkscape:cx="398.14092"
   inkscape:cy="353.545"
   inkscape:window-x="0"
   inkscape:window-y="0"
   inkscape:window-maximized="1"
   inkscape:current-layer="_x31_" />
<g
   id="LWPOLYLINE_3_"
   style="stroke:none;fill:#000000;fill-opacity:1">
	
		<path
   style="fill:#000000;stroke:none;stroke-width:0.70870000000000000;stroke-linecap:round;stroke-linejoin:round;stroke-miterlimit:10;fill-opacity:1"
   d="M 397.65625 478.5625 L 395.9375 478.6875 L 394.28125 478.8125 L 392.71875 479.03125 L 391.21875 479.28125 L 389.71875 479.59375 L 388.28125 479.96875 L 386.9375 480.40625 L 385.65625 480.875 L 384.375 481.40625 L 383.1875 481.96875 L 382.03125 482.5625 L 380.90625 483.25 L 379.875 483.90625 L 378.875 484.6875 L 377.90625 485.46875 L 376.96875 486.28125 L 376.09375 487.15625 L 375.3125 488.03125 L 374.5 489 L 373.78125 489.9375 L 373.09375 490.9375 L 372.46875 492 L 371.875 493.03125 L 371.3125 494.15625 L 370.78125 495.25 L 370.3125 496.375 L 369.875 497.53125 L 369.46875 498.75 L 369.125 499.9375 L 368.78125 501.1875 L 368.5 502.40625 L 368.28125 503.6875 L 368.03125 504.96875 L 367.875 506.28125 L 367.71875 507.5625 L 367.59375 508.875 L 367.5 510.25 L 367.46875 511.5625 L 367.46875 512.9375 L 367.46875 514.6875 L 367.5625 516.40625 L 367.71875 518.03125 L 367.875 519.6875 L 368.125 521.21875 L 368.4375 522.75 L 368.75 524.28125 L 369.15625 525.71875 L 369.5625 527.0625 L 370.03125 528.4375 L 370.5625 529.75 L 371.125 530.96875 L 371.71875 532.1875 L 372.34375 533.34375 L 373.03125 534.5 L 373.75 535.53125 L 374.5 536.5625 L 375.3125 537.5625 L 376.09375 538.5 L 376.96875 539.40625 L 377.875 540.25 L 378.78125 541.0625 L 379.75 541.84375 L 380.75 542.5625 L 381.75 543.21875 L 382.78125 543.84375 L 383.8125 544.4375 L 384.90625 545 L 386 545.5 L 387.125 545.9375 L 388.28125 546.375 L 389.4375 546.71875 L 390.65625 547.03125 L 391.84375 547.3125 L 393.09375 547.5625 L 394.3125 547.78125 L 395.5625 547.9375 L 396.8125 548 L 398.09375 548.09375 L 399.375 548.125 L 400.6875 548.09375 L 401.90625 548 L 403.1875 547.9375 L 404.4375 547.78125 L 405.6875 547.5625 L 406.90625 547.3125 L 408.125 547.03125 L 409.3125 546.71875 L 410.46875 546.375 L 411.625 545.9375 L 412.75 545.5 L 413.875 545 L 414.9375 544.4375 L 415.96875 543.84375 L 417.03125 543.21875 L 418.03125 542.5625 L 419.03125 541.84375 L 419.96875 541.0625 L 420.90625 540.25 L 421.78125 539.40625 L 422.65625 538.5 L 423.46875 537.5625 L 424.25 536.5625 L 425 535.53125 L 425.71875 534.5 L 426.40625 533.34375 L 427.0625 532.1875 L 427.65625 530.96875 L 428.21875 529.75 L 428.71875 528.4375 L 429.21875 527.0625 L 429.59375 525.71875 L 430 524.28125 L 430.3125 522.75 L 430.65625 521.21875 L 430.84375 519.6875 L 431.03125 518.03125 L 431.15625 516.40625 L 431.25 514.6875 L 431.28125 512.9375 L 431.28125 511.5625 L 431.25 510.25 L 431.15625 508.875 L 431.03125 507.5625 L 430.875 506.28125 L 430.71875 504.96875 L 430.5 503.6875 L 430.25 502.40625 L 429.96875 501.1875 L 429.65625 499.9375 L 429.28125 498.75 L 428.875 497.53125 L 428.4375 496.375 L 427.96875 495.25 L 427.4375 494.15625 L 426.90625 493.03125 L 426.28125 492 L 425.65625 490.9375 L 424.96875 489.9375 L 424.25 489 L 423.46875 488.03125 L 422.65625 487.15625 L 421.78125 486.28125 L 420.84375 485.46875 L 419.90625 484.6875 L 418.90625 483.90625 L 417.875 483.25 L 416.75 482.5625 L 415.59375 481.96875 L 414.375 481.40625 L 413.09375 480.875 L 411.8125 480.40625 L 410.46875 479.96875 L 409.03125 479.59375 L 407.5625 479.28125 L 406.03125 479.03125 L 404.46875 478.8125 L 402.84375 478.6875 L 401.125 478.5625 L 399.375 478.5625 L 397.65625 478.5625 z M 399.375 490 L 400.25 490.03125 L 401.03125 490.0625 L 401.84375 490.1875 L 402.625 490.3125 L 403.34375 490.46875 L 404.125 490.65625 L 404.78125 490.875 L 405.46875 491.15625 L 406.15625 491.4375 L 406.75 491.75 L 407.40625 492.09375 L 407.9375 492.5 L 408.5625 492.90625 L 409.0625 493.375 L 409.59375 493.875 L 410.09375 494.34375 L 410.5625 494.90625 L 411.03125 495.46875 L 411.46875 496.03125 L 411.875 496.65625 L 412.28125 497.3125 L 412.625 497.96875 L 412.9375 498.65625 L 413.25 499.375 L 413.59375 500.09375 L 413.875 500.90625 L 414.15625 501.65625 L 414.375 502.5 L 414.59375 503.28125 L 414.78125 504.1875 L 414.96875 505.0625 L 415.15625 505.9375 L 415.3125 506.84375 L 415.4375 507.78125 L 415.5 508.71875 L 415.59375 509.6875 L 415.65625 510.6875 L 415.6875 511.6875 L 415.75 512.6875 L 415.75 513.71875 L 415.75 514.59375 L 415.6875 515.4375 L 415.65625 516.3125 L 415.625 517.15625 L 415.53125 518 L 415.46875 518.84375 L 415.34375 519.6875 L 415.21875 520.5 L 415.0625 521.34375 L 414.90625 522.15625 L 414.75 522.9375 L 414.53125 523.75 L 414.3125 524.5 L 414.0625 525.28125 L 413.78125 526.03125 L 413.5 526.75 L 413.21875 527.46875 L 412.90625 528.15625 L 412.53125 528.8125 L 412.15625 529.5 L 411.78125 530.09375 L 411.34375 530.75 L 410.90625 531.3125 L 410.4375 531.90625 L 409.9375 532.4375 L 409.4375 532.9375 L 408.90625 533.40625 L 408.3125 533.875 L 407.75 534.3125 L 407.125 534.6875 L 406.46875 535.0625 L 405.78125 535.375 L 405.125 535.65625 L 404.34375 535.90625 L 403.59375 536.125 L 402.84375 536.3125 L 402 536.46875 L 401.15625 536.5625 L 400.28125 536.625 L 399.375 536.65625 L 398.46875 536.625 L 397.59375 536.5625 L 396.75 536.46875 L 395.9375 536.3125 L 395.15625 536.125 L 394.40625 535.90625 L 393.65625 535.65625 L 392.96875 535.375 L 392.28125 535.0625 L 391.65625 534.6875 L 391 534.3125 L 390.4375 533.875 L 389.84375 533.40625 L 389.34375 532.9375 L 388.8125 532.4375 L 388.34375 531.90625 L 387.84375 531.3125 L 387.40625 530.75 L 386.96875 530.09375 L 386.5625 529.5 L 386.21875 528.8125 L 385.84375 528.15625 L 385.53125 527.46875 L 385.25 526.75 L 384.9375 526.03125 L 384.6875 525.28125 L 384.46875 524.5 L 384.21875 523.75 L 384.03125 522.9375 L 383.84375 522.15625 L 383.6875 521.34375 L 383.53125 520.5 L 383.40625 519.6875 L 383.3125 518.84375 L 383.21875 518 L 383.125 517.15625 L 383.09375 516.3125 L 383.0625 515.4375 L 383.03125 514.59375 L 383.03125 513.71875 L 383.03125 512.6875 L 383.0625 511.6875 L 383.09375 510.6875 L 383.1875 509.6875 L 383.25 508.71875 L 383.34375 507.78125 L 383.46875 506.84375 L 383.625 505.9375 L 383.78125 505.0625 L 383.96875 504.1875 L 384.1875 503.28125 L 384.375 502.5 L 384.625 501.65625 L 384.90625 500.90625 L 385.1875 500.09375 L 385.46875 499.375 L 385.8125 498.65625 L 386.125 497.96875 L 386.5 497.3125 L 386.90625 496.65625 L 387.28125 496.03125 L 387.71875 495.46875 L 388.21875 494.90625 L 388.65625 494.34375 L 389.15625 493.875 L 389.6875 493.375 L 390.21875 492.90625 L 390.8125 492.5 L 391.375 492.09375 L 392 491.75 L 392.59375 491.4375 L 393.28125 491.15625 L 393.96875 490.875 L 394.65625 490.65625 L 395.40625 490.46875 L 396.125 490.3125 L 396.9375 490.1875 L 397.71875 490.0625 L 398.53125 490.03125 L 399.375 490 z "
   id="polygon13" />
</g><g
   id="LWPOLYLINE_5_"
   style="stroke:none;fill:#000000;fill-opacity:1">
	
		<path
   style="fill:#000000;stroke:none;stroke-width:0.70870000000000000;stroke-linecap:round;stroke-linejoin:round;stroke-miterlimit:10;fill-opacity:1"
   d="M 490.21875 548.9375 L 488.375 548.96875 L 486.65625 549.03125 L 485 549.21875 L 483.34375 549.40625 L 481.78125 549.6875 L 480.28125 550.03125 L 478.84375 550.40625 L 477.46875 550.84375 L 476.15625 551.3125 L 474.875 551.875 L 473.625 552.46875 L 472.46875 553.09375 L 471.40625 553.8125 L 470.3125 554.53125 L 469.3125 555.28125 L 468.375 556.0625 L 467.5 556.90625 L 466.59375 557.78125 L 465.8125 558.71875 L 465.0625 559.6875 L 464.34375 560.625 L 463.65625 561.65625 L 463.0625 562.71875 L 462.4375 563.78125 L 461.9375 564.875 L 461.40625 566 L 460.96875 567.15625 L 460.53125 568.3125 L 460.1875 569.46875 L 459.8125 570.65625 L 459.53125 571.90625 L 459.25 573.125 L 459.03125 574.375 L 458.8125 575.625 L 458.65625 576.90625 L 458.53125 578.1875 L 458.40625 579.4375 L 458.34375 580.71875 L 458.3125 582 L 458.3125 583.28125 L 458.34375 585.125 L 458.40625 586.875 L 458.53125 588.59375 L 458.6875 590.25 L 458.9375 591.84375 L 459.21875 593.40625 L 459.53125 594.90625 L 459.90625 596.40625 L 460.28125 597.78125 L 460.71875 599.15625 L 461.25 600.46875 L 461.78125 601.71875 L 462.375 602.9375 L 462.96875 604.09375 L 463.65625 605.21875 L 464.34375 606.3125 L 465.09375 607.3125 L 465.84375 608.3125 L 466.65625 609.21875 L 467.5 610.09375 L 468.375 610.9375 L 469.28125 611.75 L 470.25 612.46875 L 471.1875 613.1875 L 472.1875 613.8125 L 473.25 614.40625 L 474.28125 615 L 475.40625 615.53125 L 476.46875 616 L 477.625 616.4375 L 478.78125 616.8125 L 480 617.15625 L 481.1875 617.5 L 482.4375 617.78125 L 483.65625 617.96875 L 484.9375 618.15625 L 486.21875 618.28125 L 487.53125 618.40625 L 488.875 618.4375 L 490.21875 618.5 L 491.5 618.4375 L 492.78125 618.40625 L 494.03125 618.28125 L 495.25 618.15625 L 496.5 617.96875 L 497.6875 617.78125 L 498.90625 617.5 L 500.0625 617.15625 L 501.21875 616.8125 L 502.34375 616.4375 L 503.40625 616 L 504.53125 615.53125 L 505.5625 615 L 506.59375 614.40625 L 507.59375 613.8125 L 508.59375 613.1875 L 509.53125 612.46875 L 510.4375 611.75 L 511.34375 610.9375 L 512.1875 610.09375 L 513.03125 609.21875 L 513.84375 608.3125 L 514.59375 607.3125 L 515.3125 606.3125 L 516 605.21875 L 516.625 604.09375 L 517.28125 602.9375 L 517.84375 601.71875 L 518.40625 600.46875 L 518.875 599.15625 L 519.3125 597.78125 L 519.71875 596.40625 L 520.0625 594.90625 L 520.375 593.40625 L 520.65625 591.84375 L 520.90625 590.25 L 521.0625 588.59375 L 521.1875 586.875 L 521.28125 585.125 L 521.3125 583.28125 L 521.3125 582 L 521.28125 580.71875 L 521.1875 579.4375 L 521.0625 578.1875 L 520.9375 576.90625 L 520.78125 575.625 L 520.59375 574.375 L 520.34375 573.125 L 520.0625 571.90625 L 519.78125 570.65625 L 519.46875 569.46875 L 519.0625 568.3125 L 518.65625 567.15625 L 518.21875 566 L 517.71875 564.875 L 517.1875 563.78125 L 516.625 562.71875 L 516.03125 561.65625 L 515.34375 560.625 L 514.6875 559.6875 L 513.90625 558.71875 L 513.125 557.78125 L 512.28125 556.90625 L 511.40625 556.0625 L 510.46875 555.28125 L 509.46875 554.53125 L 508.46875 553.8125 L 507.40625 553.09375 L 506.28125 552.46875 L 505.09375 551.875 L 503.84375 551.3125 L 502.5625 550.84375 L 501.21875 550.40625 L 499.8125 550.03125 L 498.375 549.6875 L 496.84375 549.40625 L 495.3125 549.21875 L 493.65625 549.03125 L 491.96875 548.96875 L 490.21875 548.9375 z M 489.375 560.40625 L 490.21875 560.40625 L 490.96875 560.40625 L 491.78125 560.46875 L 492.5 560.5625 L 493.21875 560.6875 L 493.9375 560.84375 L 494.625 561.03125 L 495.25 561.28125 L 495.90625 561.5 L 496.53125 561.78125 L 497.125 562.15625 L 497.6875 562.5 L 498.25 562.875 L 498.8125 563.3125 L 499.34375 563.75 L 499.8125 564.21875 L 500.28125 564.75 L 500.71875 565.28125 L 501.15625 565.8125 L 501.5625 566.4375 L 501.96875 567.03125 L 502.375 567.65625 L 502.6875 568.34375 L 503.0625 569.03125 L 503.375 569.75 L 503.65625 570.5 L 503.9375 571.25 L 504.15625 572.0625 L 504.40625 572.84375 L 504.65625 573.6875 L 504.84375 574.53125 L 505 575.40625 L 505.15625 576.28125 L 505.28125 577.21875 L 505.40625 578.125 L 505.53125 579.09375 L 505.59375 580.0625 L 505.6875 581.0625 L 505.71875 582.0625 L 505.75 583.09375 L 505.75 584.125 L 505.75 584.96875 L 505.71875 585.84375 L 505.6875 586.6875 L 505.65625 587.53125 L 505.59375 588.40625 L 505.53125 589.25 L 505.4375 590.09375 L 505.3125 590.875 L 505.21875 591.71875 L 505.03125 592.53125 L 504.875 593.3125 L 504.71875 594.125 L 504.53125 594.875 L 504.3125 595.625 L 504.09375 596.40625 L 503.8125 597.125 L 503.53125 597.84375 L 503.25 598.5625 L 502.9375 599.1875 L 502.59375 599.875 L 502.21875 600.5 L 501.84375 601.09375 L 501.40625 601.71875 L 500.96875 602.28125 L 500.53125 602.78125 L 500.0625 603.3125 L 499.53125 603.78125 L 498.96875 604.21875 L 498.40625 604.65625 L 497.8125 605.0625 L 497.21875 605.4375 L 496.53125 605.75 L 495.84375 606.03125 L 495.125 606.3125 L 494.40625 606.5 L 493.625 606.6875 L 492.8125 606.8125 L 491.96875 606.9375 L 491.09375 607.03125 L 490.21875 607.03125 L 489.25 607.03125 L 488.3125 606.9375 L 487.4375 606.8125 L 486.59375 606.6875 L 485.75 606.5 L 484.9375 606.3125 L 484.1875 606.03125 L 483.46875 605.75 L 482.78125 605.4375 L 482.15625 605.0625 L 481.5 604.65625 L 480.90625 604.21875 L 480.34375 603.78125 L 479.78125 603.3125 L 479.28125 602.78125 L 478.78125 602.28125 L 478.34375 601.71875 L 477.90625 601.09375 L 477.53125 600.5 L 477.125 599.875 L 476.75 599.1875 L 476.4375 598.5625 L 476.125 597.84375 L 475.84375 597.125 L 475.5625 596.40625 L 475.3125 595.625 L 475.125 594.875 L 474.90625 594.125 L 474.71875 593.3125 L 474.5625 592.53125 L 474.40625 591.71875 L 474.28125 590.875 L 474.1875 590.09375 L 474.09375 589.25 L 474 588.40625 L 473.96875 587.53125 L 473.90625 586.6875 L 473.875 585.84375 L 473.84375 584.96875 L 473.84375 584.125 L 473.84375 583.09375 L 473.875 582.0625 L 473.90625 581.0625 L 474 580.0625 L 474.09375 579.09375 L 474.1875 578.125 L 474.3125 577.21875 L 474.4375 576.28125 L 474.59375 575.40625 L 474.8125 574.53125 L 475 573.6875 L 475.1875 572.84375 L 475.4375 572.0625 L 475.71875 571.25 L 476 570.5 L 476.3125 569.75 L 476.625 569.03125 L 477 568.34375 L 477.34375 567.65625 L 477.71875 567.03125 L 478.15625 566.4375 L 478.5625 565.8125 L 479.03125 565.28125 L 479.5 564.75 L 480 564.21875 L 480.5 563.75 L 481.0625 563.3125 L 481.625 562.875 L 482.21875 562.5 L 482.84375 562.15625 L 483.46875 561.78125 L 484.09375 561.5 L 484.78125 561.28125 L 485.5 561.03125 L 486.21875 560.84375 L 487 560.6875 L 487.75 560.5625 L 488.53125 560.46875 L 489.375 560.40625 z "
   id="polygon19" />
</g><g
   id="LWPOLYLINE_7_"
   style="stroke:none;fill:#000000;fill-opacity:1">
	
		<path
   fill="none"
   stroke="#000000"
   stroke-width="0.7087"
   stroke-linecap="round"
   stroke-linejoin="round"
   stroke-miterlimit="10"
   d="   M406.752,623.404l0.16-0.281l0.479-0.838l0.759-1.279l1.039-1.797l1.278-2.238l1.559-2.678l1.758-3.037l1.998-3.436l2.158-3.756   l2.357-4.076l2.517-4.354l2.678-4.595l2.797-4.835l2.877-4.995l3.036-5.194l3.077-5.354l3.156-5.434l3.196-5.514l3.237-5.595   l3.236-5.594l3.276-5.634l3.196-5.554l3.236-5.555l3.157-5.434l3.076-5.314l2.997-5.194l2.917-5.034l2.797-4.835l2.637-4.596   l2.518-4.354l2.357-4.036l2.197-3.756l1.998-3.437l1.758-3.036l1.519-2.678l1.318-2.237l1.039-1.798l0.76-1.318l0.479-0.8   l0.159-0.279c-0.119,0-0.239,0-0.239,0c-0.16,0-0.319,0-0.319,0h-0.24h-0.279h-0.28h-0.359h-0.359h-0.36h-0.399h-0.439h-0.439   h-0.439h-0.479h-0.479h-0.479h-0.479h-0.479h-0.479h-0.52h-0.479h-0.479h-0.439h-0.479h-0.439h-0.399h-0.399h-0.399h-0.36h-0.319   h-0.279h-0.28h-0.239c-0.2,0-0.359,0-0.359,0c-0.16,0-0.2,0-0.2,0l-0.16,0.279l-0.479,0.8l-0.759,1.318l-1.039,1.798l-1.278,2.237   l-1.559,2.678l-1.758,3.036l-1.998,3.437l-2.157,3.756l-2.358,4.036l-2.517,4.354l-2.678,4.596l-2.797,4.835l-2.917,5.034   l-2.996,5.194l-3.077,5.314l-3.156,5.434l-3.196,5.555l-3.237,5.554l-3.236,5.634l-3.276,5.594l-3.236,5.595l-3.196,5.514   l-3.157,5.434l-3.076,5.354l-2.997,5.194l-2.917,4.995l-2.797,4.835l-2.677,4.595l-2.518,4.354l-2.357,4.076l-2.157,3.756   l-1.998,3.436l-1.758,3.037l-1.559,2.678l-1.278,2.238l-1.039,1.797l-0.76,1.279l-0.479,0.838l-0.159,0.281H406.752z"
   id="path25"
   style="stroke:none;fill:#000000;fill-opacity:1" />
</g><g
   id="LWPOLYLINE_8_"
   style="stroke:none;fill:#000000;fill-opacity:1">
	
		<path
   style="fill:#000000;stroke:none;stroke-width:0.70870000000000000;stroke-linecap:round;stroke-linejoin:round;stroke-miterlimit:10;fill-opacity:1"
   d="m 130.15,444.996 0,108.004 -38.458,0 49.107,92.5 48.268,-92.5 -37.639,0 0,-108.004 z"
   id="polygon28" />
</g><g
   id="LWPOLYLINE_2_"
   style="stroke:none;fill:#000000;fill-opacity:1">
	
		<path
   style="fill:#000000;stroke:none;stroke-width:0.70870000000000000;stroke-linecap:round;stroke-linejoin:round;stroke-miterlimit:10;fill-opacity:1"
   d="M 328.1875 145.5 L 328.1875 193.78125 L 94.96875 193.78125 L 94.96875 218.3125 L 328.1875 218.3125 L 328.1875 314.875 L 94.96875 314.875 L 94.96875 338.625 L 328.1875 338.625 L 328.1875 386.90625 L 424.71875 386.90625 L 424.71875 338.625 L 473.03125 338.625 L 473.03125 193.78125 L 424.71875 193.78125 L 424.71875 145.5 L 328.1875 145.5 z M 352.71875 170.0625 L 399.375 170.0625 L 399.375 362.34375 L 352.71875 362.34375 L 352.71875 170.0625 z M 424.71875 217.5 L 447.65625 217.5 L 447.65625 314.0625 L 424.71875 314.0625 L 424.71875 217.5 z "
   id="polygon10" />
</g><g
   id="LWPOLYLINE">
	
		
</g>
<g
   id="LWPOLYLINE_1_">
	
		
</g>


<g
   id="LWPOLYLINE_4_">
	
		
</g>

<g
   id="LWPOLYLINE_6_">
	
		
</g>


</svg>