<?xml version="1.0" encoding="UTF-8" standalone="no"?>
<!-- Generator: Adobe Illustrator 16.0.1, SVG Export Plug-In . SVG Version: 6.00 Build 0)  -->

<svg
   xmlns:dc="http://purl.org/dc/elements/1.1/"
   xmlns:cc="http://creativecommons.org/ns#"
   xmlns:rdf="http://www.w3.org/1999/02/22-rdf-syntax-ns#"
   xmlns:svg="http://www.w3.org/2000/svg"
   xmlns="http://www.w3.org/2000/svg"
   xmlns:sodipodi="http://sodipodi.sourceforge.net/DTD/sodipodi-0.dtd"
   xmlns:inkscape="http://www.inkscape.org/namespaces/inkscape"
   version="1.0"
   id="_x31_"
   x="0px"
   y="0px"
   width="612px"
   height="792px"
   viewBox="0 0 612 792"
   enable-background="new 0 0 612 792"
   xml:space="preserve"
   inkscape:version="0.48.2 r9819"
   sodipodi:docname="7074.svg"><metadata
   id="metadata40"><rdf:RDF><cc:Work
       rdf:about=""><dc:format>image/svg+xml</dc:format><dc:type
         rdf:resource="http://purl.org/dc/dcmitype/StillImage" /></cc:Work></rdf:RDF></metadata><defs
   id="defs38" /><sodipodi:namedview
   pagecolor="#ffffff"
   bordercolor="#666666"
   borderopacity="1"
   objecttolerance="10"
   gridtolerance="10"
   guidetolerance="10"
   inkscape:pageopacity="0"
   inkscape:pageshadow="2"
   inkscape:window-width="1920"
   inkscape:window-height="1073"
   id="namedview36"
   showgrid="false"
   inkscape:zoom="0.84281414"
   inkscape:cx="309.47106"
   inkscape:cy="214.708"
   inkscape:window-x="0"
   inkscape:window-y="0"
   inkscape:window-maximized="1"
   inkscape:current-layer="_x31_" />
<g
   id="LWPOLYLINE_3_"
   style="stroke:none;fill:#000000;fill-opacity:1">
	
		<path
   style="fill:#000000;stroke:none;stroke-width:0.70870000000000000;stroke-linecap:round;stroke-linejoin:round;stroke-miterlimit:10;fill-opacity:1"
   d="M 500.09375 298.0625 L 498.34375 298.09375 L 496.625 298.125 L 494.9375 298.1875 L 493.21875 298.3125 L 491.46875 298.4375 L 489.78125 298.59375 L 488.0625 298.78125 L 486.375 299 L 484.6875 299.25 L 482.96875 299.5625 L 481.28125 299.875 L 479.59375 300.21875 L 477.9375 300.59375 L 476.25 301 L 474.5625 301.40625 L 472.9375 301.875 L 471.3125 302.375 L 469.65625 302.875 L 468.03125 303.4375 L 466.4375 304 L 464.78125 304.59375 L 463.1875 305.21875 L 461.59375 305.90625 L 460.0625 306.5625 L 458.4375 307.28125 L 456.90625 308 L 455.40625 308.78125 L 453.84375 309.59375 L 452.34375 310.40625 L 450.84375 311.25 L 449.375 312.09375 L 447.9375 313.03125 L 446.46875 313.9375 L 445.03125 314.875 L 443.59375 315.875 L 442.25 316.84375 L 440.8125 317.875 L 439.46875 318.90625 L 438.125 320 L 436.8125 321.09375 L 435.5 322.1875 L 434.21875 323.34375 L 432.9375 324.5 L 431.71875 325.6875 L 430.5 326.875 L 429.25 328.125 L 428.0625 329.34375 L 426.9375 330.625 L 425.78125 331.9375 L 424.65625 333.21875 L 423.5625 334.53125 L 422.5 335.875 L 421.46875 337.25 L 420.46875 338.625 L 419.46875 340.03125 L 418.46875 341.4375 L 417.5625 342.875 L 416.59375 344.34375 L 415.71875 345.78125 L 414.8125 347.28125 L 414 348.78125 L 413.1875 350.28125 L 412.34375 351.8125 L 411.625 353.34375 L 410.84375 354.875 L 410.15625 356.4375 L 409.5 358.03125 L 408.8125 359.625 L 408.15625 361.21875 L 407.5625 362.8125 L 407.03125 364.4375 L 406.46875 366.0625 L 405.9375 367.6875 L 405.46875 369.34375 L 405.03125 371 L 404.5625 372.65625 L 404.15625 374.34375 L 403.78125 376 L 403.46875 377.6875 L 403.15625 379.375 L 402.875 381.0625 L 402.59375 382.78125 L 402.375 384.5 L 402.1875 386.1875 L 402.03125 387.90625 L 401.875 389.625 L 401.78125 391.3125 L 401.6875 393.0625 L 401.65625 394.75 L 401.65625 396.46875 L 401.65625 398.1875 L 401.6875 399.9375 L 401.78125 401.625 L 401.875 403.34375 L 402.03125 405.0625 L 402.1875 406.75 L 402.375 408.5 L 402.59375 410.1875 L 402.875 411.875 L 403.15625 413.5625 L 403.46875 415.21875 L 403.78125 416.90625 L 404.15625 418.59375 L 404.5625 420.28125 L 405.03125 421.9375 L 405.46875 423.625 L 405.9375 425.25 L 406.46875 426.90625 L 407.03125 428.53125 L 407.5625 430.125 L 408.15625 431.78125 L 408.8125 433.375 L 409.5 434.90625 L 410.15625 436.5 L 410.84375 438.0625 L 411.625 439.59375 L 412.34375 441.15625 L 413.1875 442.6875 L 414 444.1875 L 414.8125 445.71875 L 415.71875 447.15625 L 416.59375 448.625 L 417.5625 450.09375 L 418.46875 451.5 L 419.46875 452.9375 L 420.46875 454.3125 L 421.46875 455.71875 L 422.5 457.0625 L 423.5625 458.40625 L 424.65625 459.75 L 425.78125 461.0625 L 426.9375 462.34375 L 428.0625 463.59375 L 429.25 464.84375 L 430.5 466.0625 L 431.71875 467.25 L 432.9375 468.4375 L 434.21875 469.625 L 435.5 470.75 L 436.8125 471.84375 L 438.125 472.9375 L 439.46875 474.03125 L 440.8125 475.09375 L 442.25 476.09375 L 443.59375 477.09375 L 445.03125 478.09375 L 446.46875 479 L 447.9375 479.96875 L 449.375 480.8125 L 450.84375 481.6875 L 452.34375 482.5625 L 453.84375 483.375 L 455.40625 484.15625 L 456.90625 484.9375 L 458.4375 485.65625 L 460.0625 486.375 L 461.59375 487.0625 L 463.1875 487.75 L 464.78125 488.34375 L 466.4375 488.96875 L 468.03125 489.53125 L 469.65625 490.0625 L 471.3125 490.5625 L 472.9375 491.0625 L 474.5625 491.53125 L 476.25 491.96875 L 477.9375 492.40625 L 479.59375 492.75 L 481.28125 493.0625 L 482.96875 493.40625 L 484.6875 493.65625 L 486.375 493.9375 L 488.0625 494.15625 L 489.78125 494.34375 L 491.46875 494.53125 L 493.21875 494.6875 L 494.9375 494.75 L 496.625 494.84375 L 498.34375 494.90625 L 500.09375 494.90625 L 501.78125 494.90625 L 503.5 494.84375 L 505.21875 494.75 L 506.90625 494.6875 L 508.65625 494.53125 L 510.34375 494.34375 L 512.0625 494.15625 L 513.75 493.9375 L 515.46875 493.65625 L 517.15625 493.40625 L 518.84375 493.0625 L 520.53125 492.75 L 522.21875 492.40625 L 523.875 491.96875 L 525.5625 491.53125 L 527.1875 491.0625 L 528.8125 490.5625 L 530.46875 490.0625 L 532.09375 489.53125 L 533.75 488.96875 L 535.34375 488.34375 L 536.9375 487.75 L 538.53125 487.0625 L 540.09375 486.375 L 541.6875 485.65625 L 543.21875 484.9375 L 544.71875 484.15625 L 546.28125 483.375 L 547.78125 482.5625 L 549.28125 481.6875 L 550.75 480.8125 L 552.25 479.96875 L 553.65625 479 L 555.09375 478.09375 L 556.53125 477.09375 L 557.9375 476.09375 L 559.3125 475.09375 L 560.65625 474.03125 L 562 472.9375 L 563.3125 471.84375 L 564.625 470.75 L 565.90625 469.625 L 567.1875 468.4375 L 568.40625 467.25 L 569.625 466.0625 L 570.875 464.84375 L 572.0625 463.59375 L 573.1875 462.34375 L 574.34375 461.0625 L 575.46875 459.75 L 576.5625 458.40625 L 577.625 457.0625 L 578.65625 455.71875 L 579.71875 454.3125 L 580.71875 452.9375 L 581.65625 451.5 L 582.625 450.09375 L 583.53125 448.625 L 584.4375 447.15625 L 585.3125 445.71875 L 586.125 444.1875 L 586.9375 442.6875 L 587.78125 441.15625 L 588.53125 439.59375 L 589.28125 438.0625 L 589.96875 436.5 L 590.625 434.90625 L 591.3125 433.375 L 591.96875 431.78125 L 592.5625 430.125 L 593.15625 428.53125 L 593.65625 426.90625 L 594.1875 425.25 L 594.6875 423.625 L 595.15625 421.9375 L 595.5625 420.28125 L 595.96875 418.59375 L 596.34375 416.90625 L 596.6875 415.21875 L 596.96875 413.5625 L 597.28125 411.875 L 597.53125 410.1875 L 597.75 408.5 L 597.9375 406.75 L 598.09375 405.0625 L 598.25 403.34375 L 598.34375 401.625 L 598.4375 399.9375 L 598.46875 398.1875 L 598.46875 396.46875 L 598.46875 394.75 L 598.4375 393.0625 L 598.34375 391.3125 L 598.25 389.625 L 598.09375 387.90625 L 597.9375 386.1875 L 597.75 384.5 L 597.53125 382.78125 L 597.28125 381.0625 L 596.96875 379.375 L 596.6875 377.6875 L 596.34375 376 L 595.96875 374.34375 L 595.5625 372.65625 L 595.15625 371 L 594.6875 369.34375 L 594.1875 367.6875 L 593.65625 366.0625 L 593.15625 364.4375 L 592.5625 362.8125 L 591.96875 361.21875 L 591.3125 359.625 L 590.625 358.03125 L 589.96875 356.4375 L 589.28125 354.875 L 588.53125 353.34375 L 587.78125 351.8125 L 586.9375 350.28125 L 586.125 348.78125 L 585.3125 347.28125 L 584.4375 345.78125 L 583.53125 344.34375 L 582.625 342.875 L 581.65625 341.4375 L 580.71875 340.03125 L 579.71875 338.625 L 578.65625 337.25 L 577.625 335.875 L 576.5625 334.53125 L 575.46875 333.21875 L 574.34375 331.9375 L 573.1875 330.625 L 572.0625 329.34375 L 570.875 328.125 L 569.625 326.875 L 568.40625 325.6875 L 567.1875 324.5 L 565.90625 323.34375 L 564.625 322.1875 L 563.3125 321.09375 L 562 320 L 560.65625 318.90625 L 559.3125 317.875 L 557.9375 316.84375 L 556.53125 315.875 L 555.09375 314.875 L 553.65625 313.9375 L 552.25 313.03125 L 550.75 312.09375 L 549.28125 311.25 L 547.78125 310.40625 L 546.28125 309.59375 L 544.71875 308.78125 L 543.21875 308 L 541.6875 307.28125 L 540.09375 306.5625 L 538.53125 305.90625 L 536.9375 305.21875 L 535.34375 304.59375 L 533.75 304 L 532.09375 303.4375 L 530.46875 302.875 L 528.8125 302.375 L 527.1875 301.875 L 525.5625 301.40625 L 523.875 301 L 522.21875 300.59375 L 520.53125 300.21875 L 518.84375 299.875 L 517.15625 299.5625 L 515.46875 299.25 L 513.75 299 L 512.0625 298.78125 L 510.34375 298.59375 L 508.65625 298.4375 L 506.90625 298.3125 L 505.21875 298.1875 L 503.5 298.125 L 501.78125 298.09375 L 500.09375 298.0625 z M 498.21875 317.65625 L 499.59375 317.65625 L 500.9375 317.65625 L 502.3125 317.6875 L 503.6875 317.75 L 505.0625 317.84375 L 506.40625 317.9375 L 507.78125 318.0625 L 509.15625 318.25 L 510.53125 318.40625 L 511.84375 318.625 L 513.21875 318.84375 L 514.5625 319.09375 L 515.90625 319.375 L 517.21875 319.65625 L 518.5625 320 L 519.90625 320.34375 L 521.21875 320.6875 L 522.5 321.09375 L 523.8125 321.5 L 525.09375 321.9375 L 526.40625 322.375 L 527.6875 322.84375 L 528.96875 323.375 L 530.25 323.875 L 531.46875 324.4375 L 532.6875 325 L 533.96875 325.59375 L 535.15625 326.1875 L 536.375 326.8125 L 537.5625 327.46875 L 538.8125 328.15625 L 539.9375 328.84375 L 541.125 329.5625 L 542.25 330.28125 L 543.40625 331.0625 L 544.53125 331.84375 L 545.6875 332.59375 L 546.78125 333.4375 L 547.8125 334.28125 L 548.90625 335.125 L 549.96875 335.96875 L 551 336.875 L 552 337.78125 L 553.0625 338.71875 L 554.03125 339.65625 L 555.03125 340.59375 L 555.96875 341.59375 L 556.9375 342.59375 L 557.84375 343.59375 L 558.75 344.59375 L 559.625 345.625 L 560.46875 346.71875 L 561.34375 347.78125 L 562.15625 348.84375 L 563 349.96875 L 563.8125 351.0625 L 564.59375 352.1875 L 565.3125 353.34375 L 566.03125 354.5 L 566.78125 355.65625 L 567.4375 356.84375 L 568.125 358.03125 L 568.78125 359.21875 L 569.40625 360.4375 L 570.0625 361.65625 L 570.59375 362.90625 L 571.1875 364.15625 L 571.75 365.40625 L 572.25 366.65625 L 572.75 367.9375 L 573.25 369.21875 L 573.6875 370.5 L 574.09375 371.8125 L 574.5 373.09375 L 574.9375 374.40625 L 575.28125 375.75 L 575.65625 377.0625 L 575.96875 378.375 L 576.25 379.71875 L 576.53125 381.0625 L 576.78125 382.40625 L 576.96875 383.75 L 577.1875 385.09375 L 577.375 386.46875 L 577.53125 387.8125 L 577.65625 389.1875 L 577.78125 390.53125 L 577.84375 391.90625 L 577.9375 393.28125 L 577.9375 394.65625 L 577.96875 396 L 577.9375 397.375 L 577.9375 398.75 L 577.84375 400.125 L 577.78125 401.46875 L 577.65625 402.84375 L 577.53125 404.21875 L 577.375 405.5625 L 577.1875 406.90625 L 576.96875 408.25 L 576.78125 409.625 L 576.53125 410.9375 L 576.25 412.3125 L 575.96875 413.625 L 575.65625 414.96875 L 575.28125 416.28125 L 574.9375 417.59375 L 574.5 418.9375 L 574.09375 420.25 L 573.6875 421.53125 L 573.25 422.78125 L 572.75 424.0625 L 572.25 425.34375 L 571.75 426.625 L 571.1875 427.90625 L 570.59375 429.125 L 570.0625 430.34375 L 569.40625 431.59375 L 568.78125 432.8125 L 568.125 434 L 567.4375 435.1875 L 566.78125 436.375 L 566.03125 437.5625 L 565.3125 438.6875 L 564.59375 439.84375 L 563.8125 440.96875 L 563 442.0625 L 562.15625 443.15625 L 561.34375 444.25 L 560.46875 445.34375 L 559.625 446.375 L 558.75 447.4375 L 557.84375 448.4375 L 556.9375 449.4375 L 555.96875 450.4375 L 555.03125 451.40625 L 554.03125 452.40625 L 553.0625 453.3125 L 552 454.21875 L 551 455.125 L 549.96875 456.03125 L 548.90625 456.90625 L 547.8125 457.78125 L 546.78125 458.59375 L 545.6875 459.40625 L 544.53125 460.1875 L 543.40625 460.96875 L 542.25 461.75 L 541.125 462.46875 L 539.9375 463.1875 L 538.8125 463.875 L 537.5625 464.5625 L 536.375 465.1875 L 535.15625 465.84375 L 533.96875 466.4375 L 532.6875 467.03125 L 531.46875 467.625 L 530.25 468.15625 L 528.96875 468.65625 L 527.6875 469.15625 L 526.40625 469.65625 L 525.09375 470.125 L 523.8125 470.53125 L 522.5 470.9375 L 521.21875 471.34375 L 519.90625 471.71875 L 518.5625 472.03125 L 517.21875 472.34375 L 515.90625 472.6875 L 514.5625 472.9375 L 513.21875 473.1875 L 511.84375 473.40625 L 510.53125 473.625 L 509.15625 473.8125 L 507.78125 473.9375 L 506.40625 474.09375 L 505.0625 474.1875 L 503.6875 474.28125 L 502.3125 474.3125 L 500.9375 474.34375 L 499.59375 474.34375 L 498.21875 474.34375 L 496.84375 474.3125 L 495.5 474.28125 L 494.125 474.1875 L 492.75 474.09375 L 491.4375 473.9375 L 490.0625 473.8125 L 488.6875 473.625 L 487.34375 473.40625 L 486 473.1875 L 484.65625 472.9375 L 483.3125 472.6875 L 481.96875 472.34375 L 480.625 472.03125 L 479.3125 471.71875 L 478 471.34375 L 476.6875 470.9375 L 475.40625 470.53125 L 474.0625 470.125 L 472.8125 469.65625 L 471.53125 469.15625 L 470.25 468.65625 L 468.96875 468.15625 L 467.75 467.625 L 466.46875 467.03125 L 465.25 466.4375 L 464 465.84375 L 462.8125 465.1875 L 461.59375 464.5625 L 460.40625 463.875 L 459.21875 463.1875 L 458.09375 462.46875 L 456.90625 461.75 L 455.78125 460.96875 L 454.6875 460.1875 L 453.53125 459.40625 L 452.4375 458.59375 L 451.34375 457.78125 L 450.3125 456.90625 L 449.25 456.03125 L 448.21875 455.125 L 447.15625 454.21875 L 446.15625 453.3125 L 445.15625 452.40625 L 444.1875 451.40625 L 443.25 450.4375 L 442.28125 449.4375 L 441.375 448.4375 L 440.46875 447.4375 L 439.59375 446.375 L 438.6875 445.34375 L 437.875 444.25 L 437 443.15625 L 436.21875 442.0625 L 435.40625 440.96875 L 434.625 439.84375 L 433.90625 438.6875 L 433.125 437.5625 L 432.4375 436.375 L 431.75 435.1875 L 431.0625 434 L 430.40625 432.8125 L 429.8125 431.59375 L 429.15625 430.34375 L 428.5625 429.125 L 428.03125 427.90625 L 427.46875 426.625 L 426.9375 425.34375 L 426.4375 424.0625 L 425.96875 422.78125 L 425.53125 421.53125 L 425.0625 420.25 L 424.65625 418.9375 L 424.28125 417.59375 L 423.9375 416.28125 L 423.5625 414.96875 L 423.25 413.625 L 422.96875 412.3125 L 422.6875 410.9375 L 422.4375 409.625 L 422.1875 408.25 L 422 406.90625 L 421.84375 405.5625 L 421.65625 404.21875 L 421.5625 402.84375 L 421.4375 401.46875 L 421.34375 400.125 L 421.28125 398.75 L 421.25 397.375 L 421.25 396 L 421.25 394.65625 L 421.28125 393.28125 L 421.34375 391.90625 L 421.4375 390.53125 L 421.5625 389.1875 L 421.65625 387.8125 L 421.84375 386.46875 L 422 385.09375 L 422.1875 383.75 L 422.4375 382.40625 L 422.6875 381.0625 L 422.96875 379.71875 L 423.25 378.375 L 423.5625 377.0625 L 423.9375 375.75 L 424.28125 374.40625 L 424.65625 373.09375 L 425.0625 371.8125 L 425.53125 370.5 L 425.96875 369.21875 L 426.4375 367.9375 L 426.9375 366.65625 L 427.46875 365.40625 L 428.03125 364.15625 L 428.5625 362.90625 L 429.15625 361.65625 L 429.8125 360.4375 L 430.40625 359.21875 L 431.0625 358.03125 L 431.75 356.84375 L 432.4375 355.65625 L 433.125 354.5 L 433.90625 353.34375 L 434.625 352.1875 L 435.40625 351.0625 L 436.21875 349.96875 L 437 348.84375 L 437.875 347.78125 L 438.6875 346.71875 L 439.59375 345.625 L 440.46875 344.59375 L 441.375 343.59375 L 442.28125 342.59375 L 443.25 341.59375 L 444.1875 340.59375 L 445.15625 339.65625 L 446.15625 338.71875 L 447.15625 337.78125 L 448.21875 336.875 L 449.25 335.96875 L 450.3125 335.125 L 451.34375 334.28125 L 452.4375 333.4375 L 453.53125 332.59375 L 454.6875 331.84375 L 455.78125 331.0625 L 456.90625 330.28125 L 458.09375 329.5625 L 459.21875 328.84375 L 460.40625 328.15625 L 461.59375 327.46875 L 462.8125 326.8125 L 464 326.1875 L 465.25 325.59375 L 466.46875 325 L 467.75 324.4375 L 468.96875 323.875 L 470.25 323.375 L 471.53125 322.84375 L 472.8125 322.375 L 474.0625 321.9375 L 475.40625 321.5 L 476.6875 321.09375 L 478 320.6875 L 479.3125 320.34375 L 480.625 320 L 481.96875 319.65625 L 483.3125 319.375 L 484.65625 319.09375 L 486 318.84375 L 487.34375 318.625 L 488.6875 318.40625 L 490.0625 318.25 L 491.4375 318.0625 L 492.75 317.9375 L 494.125 317.84375 L 495.5 317.75 L 496.84375 317.6875 L 498.21875 317.65625 z "
   id="polygon13" />
</g><g
   id="LWPOLYLINE"
   style="stroke:none;fill:#000000;fill-opacity:1">
	
		<path
   style="fill:#000000;stroke:none;stroke-width:0.70870000000000000;stroke-linecap:round;stroke-linejoin:round;stroke-miterlimit:10;fill-opacity:1"
   d="M 214.9375 271 L 214.9375 321 L 14.53125 321 L 14.53125 346.03125 L 214.9375 346.03125 L 214.9375 446.03125 L 14.53125 446.03125 L 14.53125 471.03125 L 214.9375 471.03125 L 214.9375 521 L 315.15625 521 L 315.15625 471.03125 L 365.25 471.03125 L 365.25 321 L 315.15625 321 L 315.15625 271 L 214.9375 271 z M 240.28125 296.1875 L 289.6875 296.1875 L 289.6875 495.8125 L 240.28125 495.8125 L 240.28125 296.1875 z M 314.875 345.625 L 340.0625 345.625 L 340.0625 446.375 L 314.875 446.375 L 314.875 345.625 z "
   id="polygon4" />
</g>
<g
   id="LWPOLYLINE_1_">
	
		
</g>
<g
   id="LWPOLYLINE_2_">
	
		
</g>

<g
   id="LWPOLYLINE_4_">
	
		
</g>
<g
   id="LINE">
	
		
</g>
<g
   id="LINE_1_"
   style="stroke:none;fill:#000000;fill-opacity:1">
	
		<path
   style="fill:#000000;stroke:none;stroke-width:0.70870000000000000;stroke-linecap:round;stroke-linejoin:round;stroke-miterlimit:10;fill-opacity:1"
   d="M 431.5 359.625 L 499.59375 474.34375 L 567.21875 359.625 L 431.5 359.625 z M 460.40625 373.625 L 541.59375 373.625 L 499.125 444.53125 L 460.40625 373.625 z "
   id="line22" />
</g>
<g
   id="LINE_2_">
	
		
</g>
<g
   id="LINE_3_">
	
		
</g>
<g
   id="LINE_4_">
	
		
</g>
<g
   id="LINE_5_">
	
		
</g>
</svg>