<?xml version="1.0" encoding="UTF-8" standalone="no"?>
<!-- Generator: Adobe Illustrator 16.0.1, SVG Export Plug-In . SVG Version: 6.00 Build 0)  -->

<svg
   xmlns:dc="http://purl.org/dc/elements/1.1/"
   xmlns:cc="http://creativecommons.org/ns#"
   xmlns:rdf="http://www.w3.org/1999/02/22-rdf-syntax-ns#"
   xmlns:svg="http://www.w3.org/2000/svg"
   xmlns="http://www.w3.org/2000/svg"
   xmlns:sodipodi="http://sodipodi.sourceforge.net/DTD/sodipodi-0.dtd"
   xmlns:inkscape="http://www.inkscape.org/namespaces/inkscape"
   version="1.0"
   id="_x31_"
   x="0px"
   y="0px"
   width="612px"
   height="792px"
   viewBox="0 0 612 792"
   enable-background="new 0 0 612 792"
   xml:space="preserve"
   inkscape:version="0.48.2 r9819"
   sodipodi:docname="7076.svg"><metadata
   id="metadata19"><rdf:RDF><cc:Work
       rdf:about=""><dc:format>image/svg+xml</dc:format><dc:type
         rdf:resource="http://purl.org/dc/dcmitype/StillImage" /></cc:Work></rdf:RDF></metadata><defs
   id="defs17" /><sodipodi:namedview
   pagecolor="#ffffff"
   bordercolor="#666666"
   borderopacity="1"
   objecttolerance="10"
   gridtolerance="10"
   guidetolerance="10"
   inkscape:pageopacity="0"
   inkscape:pageshadow="2"
   inkscape:window-width="1920"
   inkscape:window-height="1073"
   id="namedview15"
   showgrid="false"
   inkscape:zoom="0.84281414"
   inkscape:cx="18.678319"
   inkscape:cy="566.66604"
   inkscape:window-x="0"
   inkscape:window-y="0"
   inkscape:window-maximized="1"
   inkscape:current-layer="_x31_" />
<g
   id="ARC"
   style="stroke:none;fill:#000000;fill-opacity:1">
	
		<path
   stroke-miterlimit="10"
   d="M 547.073,301.72 C 446.479,212.85 300.743,197.081 183.415,262.9665 l 27.404,41.7415 -164.65,35.894 96.033,-138.265 26.32,38.6115 C 296.364,168.119 456.169,185.228 565.831,283.064 z"
   id="path4"
   inkscape:connector-curvature="0"
   style="fill:#000000;stroke:none;stroke-width:0.70870000000000000;stroke-linecap:round;stroke-linejoin:round;stroke-miterlimit:10;fill-opacity:1"
   sodipodi:nodetypes="cccccccc" />
</g>
<g
   id="LWPOLYLINE">
	
		
</g>
<g
   id="ARC_1_">
	
		
</g>
<g
   id="LWPOLYLINE_1_"
   style="stroke:none;fill:#000000;fill-opacity:1">
	
		<path
   fill="none"
   stroke="#000000"
   stroke-width="0.7087"
   stroke-linecap="round"
   stroke-linejoin="round"
   stroke-miterlimit="10"
   d="   M428.237,434.547l-0.412-3.659l-0.516-3.557l-0.671-3.349l-0.823-3.246l-0.876-3.145l-1.083-2.988l-1.133-2.835l-1.289-2.782   l-1.391-2.629l-1.495-2.473l-1.598-2.422l-1.648-2.268l-1.805-2.166l-1.854-2.061l-1.906-1.958l-2.011-1.83l-2.061-1.751   l-2.164-1.65l-2.164-1.545l-2.27-1.444l-2.318-1.366l-2.318-1.262l-2.371-1.185l-2.422-1.083l-2.473-1.03l-2.474-0.928l-2.474-0.85   l-2.526-0.749l-2.525-0.695L374.643,375l-2.525-0.541l-2.525-0.491l-2.524-0.413l-2.474-0.359l-2.474-0.309l-2.474-0.233   l-2.422-0.18l-2.423-0.13l-2.37-0.077l-2.319-0.026l-5.669,0.13l-5.462,0.386l-5.205,0.619l-5.05,0.85l-4.792,1.056l-4.64,1.289   l-4.431,1.494l-4.227,1.675l-4.019,1.881l-3.839,2.061l-3.66,2.217l-3.478,2.396l-3.323,2.551l-3.144,2.68l-2.964,2.835   l-2.808,2.938l-2.655,3.092l-2.474,3.193l-2.344,3.247l-2.19,3.401l-2.036,3.453l-1.906,3.555l-1.778,3.608l-1.624,3.659   l-1.521,3.709l-1.391,3.763l-1.237,3.814l-1.16,3.812l-1.031,3.813l-0.901,3.866l-0.825,3.812l-0.72,3.865l-0.594,3.812   l-0.541,3.763l-0.413,3.763l-0.334,3.709l-0.258,3.659l-0.18,3.608l-0.129,3.503l-0.025,3.453l0.025,3.195l0.103,3.299l0.155,3.401   l0.206,3.451l0.31,3.505l0.361,3.557l0.464,3.605l0.541,3.608l0.619,3.659l0.72,3.658l0.852,3.711l0.927,3.659l1.031,3.709   l1.159,3.659l1.263,3.608l1.391,3.607l1.52,3.555l1.65,3.453l1.803,3.453l1.933,3.349l2.061,3.299l2.216,3.195l2.372,3.092   l2.55,2.989l2.68,2.886l2.861,2.783l3.039,2.628l3.195,2.474l3.402,2.318l3.556,2.164l3.761,2.011l3.944,1.854l4.174,1.648   l4.328,1.496l4.587,1.235l4.792,1.031l4.947,0.877l5.256,0.567l5.411,0.41l5.669,0.104l2.783-0.052l2.782-0.103l2.731-0.155   l2.783-0.256l2.782-0.31l2.783-0.361l2.731-0.464l2.73-0.516l2.731-0.567l2.68-0.668l2.68-0.773l2.628-0.773l2.629-0.929   l2.578-0.927l2.524-1.031l2.474-1.133l2.422-1.186l2.422-1.289l2.318-1.339l2.319-1.442l2.216-1.495l2.165-1.546l2.112-1.701   l2.01-1.752l1.958-1.803l1.856-1.908l1.803-2.009l1.701-2.062l1.648-2.165l1.546-2.216l1.443-2.37l1.339-2.37l1.289-2.525   l1.133-2.576l1.031-2.68l0.929-2.783l0.823-2.834l0.722-2.938l0.567-3.041l0.464-3.092c-0.258,0-0.567,0-0.567,0h-0.412h-0.464   h-0.617h-0.671h-0.773h-0.876h-0.927h-0.979h-1.031h-1.081h-1.135h-1.185h-1.186h-1.236h-1.237h-1.237h-1.288h-1.237h-1.287h-1.237   h-1.236h-1.186h-1.185h-1.135h-1.083h-1.029h-0.979h-0.927h-0.825h-0.773h-0.722h-0.565h-0.516h-0.413h-0.309   c-0.258,0-0.567,1.649-0.567,1.649l-0.361,1.597l-0.412,1.598l-0.463,1.547l-0.516,1.493l-0.516,1.495l-0.618,1.442l-0.567,1.393   L390,549.466l-0.722,1.341l-0.722,1.287l-0.772,1.289l-0.825,1.236l-0.876,1.186l-0.877,1.133l-0.978,1.083l-0.98,1.083   l-0.978,1.029l-1.083,1.031l-1.135,0.928l-1.133,0.927l-1.186,0.877l-1.236,0.825l-1.289,0.771l-1.287,0.722l-1.393,0.671   l-1.391,0.67l-1.443,0.617l-1.442,0.567l-1.547,0.516l-1.597,0.464l-1.599,0.412l-1.648,0.361l-1.7,0.308l-1.753,0.31l-1.751,0.206   l-1.856,0.155l-1.854,0.154l-1.906,0.052l-1.958,0.052l-3.659-0.104l-3.505-0.206l-3.401-0.413l-3.194-0.565l-3.144-0.722   l-2.938-0.825l-2.886-0.978l-2.68-1.135l-2.628-1.237l-2.474-1.391l-2.372-1.495l-2.216-1.598l-2.164-1.751l-2.009-1.856   l-1.908-1.906l-1.803-2.061l-1.727-2.113l-1.597-2.269l-1.496-2.318l-1.417-2.37l-1.314-2.474l-1.236-2.525l-1.135-2.628   l-1.056-2.68l-0.979-2.731l-0.902-2.782l-0.798-2.835l-0.747-2.886l-0.67-2.938l-0.592-2.989l-0.516-2.989l-0.464-3.04   l-0.386-3.041l-0.336-3.04l-0.283-3.091l-0.231-3.093l-0.154-3.144l-0.13-3.092l-0.052-3.093l-0.025-3.092v-2.731l0.052-2.782   l0.103-2.835l0.128-2.886l0.182-2.938l0.231-2.938l0.258-2.989l0.334-2.987l0.413-3.041l0.438-3.04l0.516-2.989l0.594-3.041   l0.668-2.988l0.722-2.989l0.825-2.989l0.875-2.938l0.98-2.886l1.083-2.835l1.16-2.782l1.262-2.68l1.339-2.68l1.469-2.577   l1.572-2.524l1.675-2.422l1.778-2.319l1.906-2.215l2.011-2.114l2.164-1.958l2.268-1.906l2.37-1.753l2.525-1.597l2.68-1.494   l2.782-1.289l2.989-1.186l3.092-1.03l3.247-0.825l3.401-0.67l3.555-0.463l3.711-0.309l3.866-0.104l3.091,0.052l2.938,0.206   l2.834,0.256l2.68,0.361l2.576,0.464l2.424,0.567l2.318,0.619l2.164,0.72l2.062,0.825l1.958,0.825l1.855,0.928l1.752,0.979   l1.65,1.083l1.545,1.081l1.442,1.134l1.341,1.135l1.289,1.236l1.133,1.237l1.134,1.235l0.979,1.289l0.928,1.288l0.877,1.289   l0.771,1.339l0.722,1.289l0.671,1.287l0.567,1.289l0.565,1.288l0.464,1.237l0.412,1.237l0.413,1.185l0.36,1.135l0.258,1.133   l0.258,1.031l0.258,1.031l0.207,0.978l0.152,0.877l0.104,0.825l0.154,0.771l0.104,0.67l0.052,0.619H428.237z"
   id="path13"
   style="stroke:none;fill:#000000;fill-opacity:1" />
</g>
</svg>