<?xml version="1.0" encoding="UTF-8" standalone="no"?>
<!-- Generator: Adobe Illustrator 16.0.1, SVG Export Plug-In . SVG Version: 6.00 Build 0)  -->

<svg
   xmlns:dc="http://purl.org/dc/elements/1.1/"
   xmlns:cc="http://creativecommons.org/ns#"
   xmlns:rdf="http://www.w3.org/1999/02/22-rdf-syntax-ns#"
   xmlns:svg="http://www.w3.org/2000/svg"
   xmlns="http://www.w3.org/2000/svg"
   xmlns:sodipodi="http://sodipodi.sourceforge.net/DTD/sodipodi-0.dtd"
   xmlns:inkscape="http://www.inkscape.org/namespaces/inkscape"
   version="1.0"
   id="_x31_"
   x="0px"
   y="0px"
   width="612px"
   height="792px"
   viewBox="0 0 612 792"
   enable-background="new 0 0 612 792"
   xml:space="preserve"
   inkscape:version="0.48.2 r9819"
   sodipodi:docname="7077.svg"><metadata
   id="metadata19"><rdf:RDF><cc:Work
       rdf:about=""><dc:format>image/svg+xml</dc:format><dc:type
         rdf:resource="http://purl.org/dc/dcmitype/StillImage" /></cc:Work></rdf:RDF></metadata><defs
   id="defs17" /><sodipodi:namedview
   pagecolor="#ffffff"
   bordercolor="#666666"
   borderopacity="1"
   objecttolerance="10"
   gridtolerance="10"
   guidetolerance="10"
   inkscape:pageopacity="0"
   inkscape:pageshadow="2"
   inkscape:window-width="1920"
   inkscape:window-height="1073"
   id="namedview15"
   showgrid="false"
   inkscape:zoom="1.1919192"
   inkscape:cx="75.413316"
   inkscape:cy="407.59612"
   inkscape:window-x="0"
   inkscape:window-y="0"
   inkscape:window-maximized="1"
   inkscape:current-layer="_x31_" />
<g
   id="ARC">
	
		
</g>
<g
   id="LWPOLYLINE"
   style="stroke:none;fill:#000000;fill-opacity:1">
	
		<path
   style="fill:#000000;stroke:none;stroke-width:0.70870000000000000;stroke-linecap:round;stroke-linejoin:round;stroke-miterlimit:10;fill-opacity:1"
   d="M 401.182,304.709 565.83,340.602 469.772,202.338 443.465,240.95 C 315.637,168.121 155.832,185.228 46.169,283.064 l 18.759,18.657 C 165.521,212.852 311.257,197.082 428.5975,262.968 z"
   id="polyline7"
   inkscape:connector-curvature="0"
   sodipodi:nodetypes="cccccccc" />
</g>
<g
   id="ARC_1_">
	
		
</g>
<g
   id="LWPOLYLINE_1_"
   style="stroke:none;fill:#000000;fill-opacity:1">
	
		<path
   fill="none"
   stroke="#000000"
   stroke-width="0.7087"
   stroke-linecap="round"
   stroke-linejoin="round"
   stroke-miterlimit="10"
   d="   M365.314,434.547l-0.412-3.658l-0.515-3.557l-0.67-3.35l-0.825-3.246l-0.928-3.143l-1.03-2.99l-1.134-2.834l-1.288-2.783   l-1.392-2.627l-1.494-2.475l-1.598-2.422l-1.649-2.268l-1.804-2.164l-1.854-2.061l-1.907-1.959l-2.01-1.83l-2.062-1.752   l-2.164-1.648l-2.165-1.547l-2.267-1.443l-2.319-1.365l-2.319-1.262l-2.37-1.186l-2.422-1.082l-2.474-1.031l-2.474-0.928   l-2.474-0.85l-2.525-0.748l-2.525-0.695L311.721,375l-2.525-0.541l-2.525-0.488l-2.499-0.412l-2.525-0.361l-2.474-0.309   l-2.448-0.232l-2.447-0.182l-2.396-0.127l-2.37-0.078l-2.319-0.025l-5.643,0.129l-5.463,0.387l-5.23,0.617l-5.024,0.852   l-4.818,1.055l-4.639,1.289l-4.405,1.494l-4.226,1.676l-4.046,1.881l-3.839,2.061l-3.659,2.217l-3.479,2.396l-3.324,2.551   l-3.144,2.68l-2.963,2.834l-2.809,2.938l-2.654,3.092l-2.474,3.195l-2.345,3.246l-2.189,3.402l-2.036,3.451l-1.906,3.557   l-1.778,3.607l-1.623,3.658l-1.521,3.711l-1.392,3.762l-1.236,3.814l-1.159,3.812l-1.031,3.814l-0.901,3.863l-0.825,3.814   l-0.721,3.865l-0.593,3.812l-0.541,3.762l-0.412,3.762l-0.335,3.711l-0.258,3.66l-0.181,3.605l-0.129,3.506l-0.025,3.451   l0.025,3.195l0.104,3.299l0.154,3.4l0.206,3.453l0.31,3.504l0.36,3.557l0.464,3.607l0.541,3.607l0.618,3.658l0.722,3.66   l0.851,3.709l0.928,3.66l1.03,3.709l1.159,3.66l1.263,3.607l1.392,3.607l1.521,3.555l1.648,3.453l1.804,3.453l1.933,3.35   l2.062,3.297l2.216,3.195l2.371,3.092l2.551,2.99l2.68,2.885l2.859,2.783l3.041,2.629l3.195,2.473l3.4,2.32l3.557,2.164l3.762,2.01   l3.968,1.855l4.148,1.648l4.354,1.494l4.561,1.236l4.768,1.031l4.998,0.877l5.205,0.566l5.437,0.412l5.669,0.104l2.757-0.053   l2.783-0.104l2.782-0.154l2.783-0.258l2.757-0.309l2.783-0.361l2.731-0.463l2.73-0.516l2.731-0.566l2.68-0.67l2.68-0.773   l2.629-0.773l2.628-0.928l2.576-0.928l2.525-1.029l2.474-1.135l2.422-1.186l2.422-1.287l2.319-1.34l2.319-1.443l2.216-1.494   l2.164-1.547l2.113-1.699l2.01-1.754l1.958-1.803l1.855-1.906l1.804-2.01l1.7-2.062l1.649-2.164l1.546-2.215l1.443-2.371   l1.34-2.371l1.288-2.525l1.134-2.576l1.03-2.68l0.928-2.783l0.824-2.834l0.722-2.938l0.567-3.041l0.463-3.092   c-0.257,0-0.566,0-0.566,0h-0.412h-0.464h-0.618h-0.67h-0.773h-0.876h-0.928h-0.979h-1.031h-1.082h-1.134h-1.186h-1.185h-1.237   h-1.236H349.7h-1.288h-1.237h-1.288h-1.236h-1.237h-1.186h-1.185h-1.134h-1.082h-1.031h-0.979h-0.928h-0.825h-0.772h-0.722h-0.566   h-0.516h-0.412h-0.31c-0.258,0-0.566,1.65-0.566,1.65l-0.361,1.598l-0.412,1.596l-0.464,1.547l-0.516,1.494l-0.515,1.494   l-0.567,1.443l-0.618,1.393l-0.67,1.391l-0.722,1.34l-0.721,1.289l-0.773,1.287l-0.824,1.236l-0.876,1.186l-0.877,1.135   l-0.927,1.082l-1.031,1.082l-0.979,1.031l-1.083,1.029l-1.134,0.928l-1.133,0.928l-1.186,0.877l-1.237,0.824l-1.288,0.773   l-1.288,0.721l-1.392,0.67l-1.392,0.67l-1.442,0.619l-1.469,0.566l-1.521,0.516l-1.572,0.463l-1.623,0.412l-1.648,0.361   l-1.701,0.309l-1.752,0.311l-1.778,0.205l-1.829,0.154l-1.855,0.154l-1.906,0.053l-1.958,0.051l-3.659-0.104l-3.504-0.205   l-3.376-0.412l-3.246-0.566l-3.093-0.723l-2.988-0.824l-2.835-0.979l-2.73-1.135l-2.603-1.236l-2.474-1.391l-2.345-1.496   l-2.268-1.596l-2.113-1.754l-2.035-1.854l-1.907-1.908l-1.804-2.061l-1.726-2.113l-1.598-2.268l-1.495-2.318l-1.417-2.371   l-1.313-2.473l-1.237-2.525l-1.134-2.629l-1.057-2.68l-0.979-2.73l-0.902-2.783l-0.799-2.834l-0.747-2.887l-0.67-2.938   l-0.593-2.988L227,513.961l-0.464-3.041l-0.387-3.041l-0.335-3.041l-0.283-3.092l-0.232-3.092l-0.154-3.143l-0.129-3.092   l-0.052-3.092l-0.025-3.094v-2.73l0.052-2.783l0.103-2.834l0.129-2.885l0.181-2.938l0.231-2.938l0.258-2.99l0.335-2.988   l0.412-3.041l0.438-3.039l0.515-2.99l0.593-3.041l0.67-2.988l0.722-2.988l0.824-2.99l0.876-2.936l0.979-2.887l1.082-2.834   l1.16-2.783l1.262-2.68l1.34-2.68l1.469-2.576l1.572-2.525l1.675-2.422l1.778-2.32l1.906-2.215l2.01-2.113l2.139-1.959l2.268-1.906   l2.396-1.752l2.551-1.598l2.653-1.494l2.809-1.289l2.938-1.184l3.118-1.031l3.221-0.824l3.401-0.67l3.556-0.465l3.71-0.309   l3.892-0.104l3.092,0.051l2.938,0.207l2.834,0.258l2.68,0.361l2.577,0.463l2.422,0.566l2.318,0.619l2.165,0.721l2.062,0.826   l2.01,0.824l1.804,0.928l1.752,0.979l1.648,1.082l1.547,1.082l1.442,1.135l1.34,1.133l1.288,1.236l1.134,1.238l1.134,1.236   l0.979,1.287l0.928,1.289l0.876,1.289l0.772,1.34l0.722,1.287l0.67,1.289l0.567,1.289l0.566,1.287l0.464,1.236l0.464,1.238   l0.36,1.184l0.361,1.135l0.258,1.133l0.257,1.031l0.258,1.031l0.155,0.979l0.206,0.877l0.103,0.824l0.155,0.773l0.103,0.67   l0.052,0.617H365.314z"
   id="path13"
   style="stroke:none;fill:#000000;fill-opacity:1" />
</g>
</svg>