<?xml version="1.0" encoding="UTF-8" standalone="no"?>
<!-- Generator: Adobe Illustrator 16.0.1, SVG Export Plug-In . SVG Version: 6.00 Build 0)  -->

<svg
   xmlns:dc="http://purl.org/dc/elements/1.1/"
   xmlns:cc="http://creativecommons.org/ns#"
   xmlns:rdf="http://www.w3.org/1999/02/22-rdf-syntax-ns#"
   xmlns:svg="http://www.w3.org/2000/svg"
   xmlns="http://www.w3.org/2000/svg"
   xmlns:sodipodi="http://sodipodi.sourceforge.net/DTD/sodipodi-0.dtd"
   xmlns:inkscape="http://www.inkscape.org/namespaces/inkscape"
   version="1.0"
   id="_x31_"
   x="0px"
   y="0px"
   width="612px"
   height="792px"
   viewBox="0 0 612 792"
   enable-background="new 0 0 612 792"
   xml:space="preserve"
   inkscape:version="0.48.2 r9819"
   sodipodi:docname="7078.svg"><metadata
   id="metadata25"><rdf:RDF><cc:Work
       rdf:about=""><dc:format>image/svg+xml</dc:format><dc:type
         rdf:resource="http://purl.org/dc/dcmitype/StillImage" /></cc:Work></rdf:RDF></metadata><defs
   id="defs23" /><sodipodi:namedview
   pagecolor="#ffffff"
   bordercolor="#666666"
   borderopacity="1"
   objecttolerance="10"
   gridtolerance="10"
   guidetolerance="10"
   inkscape:pageopacity="0"
   inkscape:pageshadow="2"
   inkscape:window-width="1920"
   inkscape:window-height="1073"
   id="namedview21"
   showgrid="false"
   inkscape:zoom="1.1919192"
   inkscape:cx="158.81767"
   inkscape:cy="437.8302"
   inkscape:window-x="0"
   inkscape:window-y="0"
   inkscape:window-maximized="1"
   inkscape:current-layer="_x31_" />
<g
   id="LWPOLYLINE_1_"
   style="stroke:none;fill:#000000;fill-opacity:1">
	
		<path
   style="fill:#000000;fill-opacity:1;stroke:none"
   d="m 266.46875,378.40625 c -0.17758,72.53085 -0.0954,145.06255 -0.125,217.59375 31.34258,-0.11977 62.69496,0.2446 94.03125,-0.1874 15.97774,-0.46626 32.49917,-5.29257 43.98639,-16.89466 13.72828,-12.77321 19.58047,-32.38938 17.26938,-50.76626 -1.24125,-15.57567 -9.99462,-30.54598 -23.84952,-38.12018 -6.003,-3.7144 -12.74939,-5.98487 -19.4375,-8.125 14.45656,-4.03521 28.14452,-13.58939 33.58618,-28.04434 7.78977,-20.62326 3.66431,-46.49619 -13.27368,-61.45591 -11.32601,-10.85961 -27.56015,-13.57676 -42.65978,-13.83111 -29.83528,-0.38367 -59.68851,-0.0634 -89.52772,-0.16889 z M 297.25,402.9375 c 18.41387,0.19645 36.857,-0.42859 55.25,0.3749 11.01232,0.68084 23.36373,5.0671 27.97075,15.99247 4.32914,10.47947 4.52457,23.12177 -0.5645,33.38263 -6.67899,12.60975 -21.93462,16.8184 -35.21875,17.3437 -15.80807,0.21889 -31.6257,0.0323 -47.4375,0.0937 0,-22.39573 0,-44.792 0,-67.1874 z m 0,92.8125 c 19.35141,0.16014 38.72582,-0.32789 58.0625,0.24995 14.2442,0.92061 28.65524,9.29155 33.46697,23.25303 5.21633,14.74889 2.06639,33.62346 -11.37327,42.99697 -10.6163,7.79453 -24.25297,8.56567 -36.9375,8.12495 -14.375,0 -28.75,0 -43.125,0 -0.13912,-24.87422 -0.071,-49.75051 -0.0937,-74.6249 z"
   id="path13"
   inkscape:connector-curvature="0" />
</g><g
   id="ARC"
   style="stroke:none;fill:#000000;fill-opacity:1">
	
		<path
   stroke-miterlimit="10"
   d="M 549.646,302.831 C 447.979,213.014 300.687,197.076 182.107,263.6645 l 27.695,42.2125 -166.407,36.276 97.058,-139.738 26.601,39.023 c 129.206,-73.607 290.717,-56.316 401.55,42.565 z"
   id="path4"
   inkscape:connector-curvature="0"
   style="fill:#000000;stroke:none;stroke-width:0.70870000000000000;stroke-linecap:round;stroke-linejoin:round;stroke-miterlimit:10;fill-opacity:1"
   sodipodi:nodetypes="cccccccc" />
</g>
<g
   id="LWPOLYLINE">
	
		
</g>
<g
   id="ARC_1_">
	
		
</g>

<g
   id="LWPOLYLINE_2_">
	
		
</g>
<g
   id="LWPOLYLINE_3_">
	
		
</g>
</svg>