<?xml version="1.0" encoding="UTF-8" standalone="no"?>
<!-- Generator: Adobe Illustrator 16.0.1, SVG Export Plug-In . SVG Version: 6.00 Build 0)  -->

<svg
   xmlns:dc="http://purl.org/dc/elements/1.1/"
   xmlns:cc="http://creativecommons.org/ns#"
   xmlns:rdf="http://www.w3.org/1999/02/22-rdf-syntax-ns#"
   xmlns:svg="http://www.w3.org/2000/svg"
   xmlns="http://www.w3.org/2000/svg"
   xmlns:sodipodi="http://sodipodi.sourceforge.net/DTD/sodipodi-0.dtd"
   xmlns:inkscape="http://www.inkscape.org/namespaces/inkscape"
   version="1.0"
   id="_x31_"
   x="0px"
   y="0px"
   width="612px"
   height="792px"
   viewBox="0 0 612 792"
   enable-background="new 0 0 612 792"
   xml:space="preserve"
   inkscape:version="0.48.2 r9819"
   sodipodi:docname="7082.svg"><metadata
   id="metadata91"><rdf:RDF><cc:Work
       rdf:about=""><dc:format>image/svg+xml</dc:format><dc:type
         rdf:resource="http://purl.org/dc/dcmitype/StillImage" /></cc:Work></rdf:RDF></metadata><defs
   id="defs89" /><sodipodi:namedview
   pagecolor="#ffffff"
   bordercolor="#666666"
   borderopacity="1"
   objecttolerance="10"
   gridtolerance="10"
   guidetolerance="10"
   inkscape:pageopacity="0"
   inkscape:pageshadow="2"
   inkscape:window-width="1920"
   inkscape:window-height="1073"
   id="namedview87"
   showgrid="false"
   inkscape:zoom="1.1919192"
   inkscape:cx="303.88553"
   inkscape:cy="394.96141"
   inkscape:window-x="0"
   inkscape:window-y="0"
   inkscape:window-maximized="1"
   inkscape:current-layer="_x31_" />
<g
   id="LWPOLYLINE"
   style="stroke:none;fill:#000000;fill-opacity:1">
	
		<path
   style="fill:#000000;stroke:none;stroke-width:0.02000000000000000;stroke-linecap:round;stroke-linejoin:round;stroke-miterlimit:10;fill-opacity:1"
   d="M 600.775,477.928 C 596.82893,516.21536 560.87665,547.62736 522.34,546 484.66225,545.79459 451.16671,515.33705 447.11,477.928 L 427.703,319.74 c -1.22629,-36.00753 -47.42507,-57.88098 -76.09057,-36.19629 -11.571,7.87863 -19.38671,20.94081 -20.78043,34.87929 l -20.84,159.505 c -3.85936,38.08643 -39.38529,69.69083 -77.833,68.072 -37.70181,-0.30827 -70.5379,-30.75634 -74.685,-68.072 L 138.094,319.74 C 136.87109,283.74114 90.690989,261.85719 62.028477,283.54371 50.450699,291.42501 42.623858,304.48243 41.195,318.423 l -0.811798,29.34353 c -9.800994,0 -18.763006,0 -28.564,0 L 13.285,312.756 c 4.09325,-38.85286 41.747158,-69.78187 80.611,-66.642 36.02557,1.53687 67.64177,30.76267 71.736,66.642 l 19.809,160.705 c 2.28123,35.89651 49.0023,56.46834 77.01898,33.9972 11.31302,-8.17446 18.77121,-21.38391 19.82402,-35.3132 l 20.61,-159.389 c 4.17573,-39.08873 42.27059,-69.77798 81.24,-66.642 35.9916,1.46912 68.21131,30.65588 72.252,66.642 l 18.663,160.705 c 2.25165,35.9103 49.00371,56.46514 77.01333,33.9972 11.31445,-8.17926 18.77071,-21.3858 19.85767,-35.3132 l 1.90165,-29.86623 c 9.78857,0.016 18.68782,0.56735 28.47603,0.66745 z"
   id="polyline4"
   inkscape:connector-curvature="0"
   sodipodi:nodetypes="ccccccccccccccccccccccccccccc" />
</g>

<g
   id="LWPOLYLINE_1_">
	
		
</g>

<g
   id="LWPOLYLINE_2_">
	
		
</g>

<g
   id="LWPOLYLINE_3_">
	
		
</g>



<g
   id="LWPOLYLINE_4_">
	
		
</g>

<g
   id="LWPOLYLINE_5_">
	
		
</g>

<g
   id="LWPOLYLINE_6_">
	
		
</g>

<g
   id="LWPOLYLINE_7_">
	
		
</g>



</svg>