<?xml version="1.0" encoding="UTF-8" standalone="no"?>
<!-- Generator: Adobe Illustrator 16.0.1, SVG Export Plug-In . SVG Version: 6.00 Build 0)  -->

<svg
   xmlns:dc="http://purl.org/dc/elements/1.1/"
   xmlns:cc="http://creativecommons.org/ns#"
   xmlns:rdf="http://www.w3.org/1999/02/22-rdf-syntax-ns#"
   xmlns:svg="http://www.w3.org/2000/svg"
   xmlns="http://www.w3.org/2000/svg"
   xmlns:sodipodi="http://sodipodi.sourceforge.net/DTD/sodipodi-0.dtd"
   xmlns:inkscape="http://www.inkscape.org/namespaces/inkscape"
   version="1.0"
   id="_x31_"
   x="0px"
   y="0px"
   width="612px"
   height="792px"
   viewBox="0 0 612 792"
   enable-background="new 0 0 612 792"
   xml:space="preserve"
   inkscape:version="0.48.2 r9819"
   sodipodi:docname="7087.svg"><metadata
   id="metadata52"><rdf:RDF><cc:Work
       rdf:about=""><dc:format>image/svg+xml</dc:format><dc:type
         rdf:resource="http://purl.org/dc/dcmitype/StillImage" /></cc:Work></rdf:RDF></metadata><defs
   id="defs50" /><sodipodi:namedview
   pagecolor="#ffffff"
   bordercolor="#666666"
   borderopacity="1"
   objecttolerance="10"
   gridtolerance="10"
   guidetolerance="10"
   inkscape:pageopacity="0"
   inkscape:pageshadow="2"
   inkscape:window-width="1920"
   inkscape:window-height="1073"
   id="namedview48"
   showgrid="false"
   inkscape:zoom="0.42140707"
   inkscape:cx="518.00835"
   inkscape:cy="150.83852"
   inkscape:window-x="0"
   inkscape:window-y="0"
   inkscape:window-maximized="1"
   inkscape:current-layer="_x31_" />
<g
   id="LINE">
	
		
</g>
<g
   id="LINE_1_">
	
		
</g>
<g
   id="LINE_2_">
	
		<path
   style="fill:#000000;stroke:none;stroke-width:0.70870000000000000;stroke-linecap:round;stroke-linejoin:round;stroke-miterlimit:10;fill-opacity:1"
   d="M 565.97302,397.914 498.914,646 l -451.885001,0 0,-38.01202 424.011991,0 0,-424.00898 -424.011991,0 0,-37.979 451.885001,0 z"
   id="line10"
   inkscape:connector-curvature="0"
   sodipodi:nodetypes="cccccccccc" />
</g>
<g
   id="LINE_3_">
	
		
</g>
<g
   id="LINE_4_">
	
		
</g>
<g
   id="LINE_5_">
	
		
</g>
<g
   id="LINE_6_">
	
		
</g>
<g
   id="LINE_7_">
	
		
</g>
<g
   id="LINE_8_">
	
		
</g>
<g
   id="ARC"
   style="stroke:none;fill:#000000;fill-opacity:1">
	
		<path
   style="fill:#000000;stroke:none;stroke-width:0.70870000000000000;stroke-linecap:round;stroke-linejoin:round;stroke-miterlimit:10;fill-opacity:1"
   d="M 226.881,522.328 C 206.40566,519.82449 186.54698,512.35049 169.61536,500.54503 122.04135,468.609 102.15463,402.44541 124.439,349.615 l -27.718,-15.73 c -25.455971,56.77442 -12.552424,127.71839 30.90037,172.15748 25.91655,27.22602 61.82357,44.55226 99.22863,48.11652 z"
   id="path31"
   inkscape:connector-curvature="0"
   sodipodi:nodetypes="ccccccc" />
</g>
<g
   id="ARC_1_">
	
		
</g>
<g
   id="ARC_2_">
	
		
</g>
<g
   id="LWPOLYLINE"
   style="stroke:none;fill:#000000;fill-opacity:1">
	
		<path
   style="fill:#000000;stroke:none;stroke-width:0.70870000000000000;stroke-linecap:round;stroke-linejoin:round;stroke-miterlimit:10;fill-opacity:1"
   d="m 341.744,318.959 c -28.2804,-37.13438 -78.15785,-56.01556 -123.917,-46.569 -30.49468,5.86844 -58.37453,23.42226 -76.949,48.298 l -27.626,-15.664 c 21.96859,-30.94715 55.35042,-53.50886 92.28309,-62.26134 60.51575,-15.20282 128.58332,9.45236 164.94891,60.25134 z"
   id="path40"
   inkscape:connector-curvature="0"
   sodipodi:nodetypes="ccccccc" />
</g>
<g
   id="ARC_3_">
	
		
</g>
<g
   id="LWPOLYLINE_1_"
   style="stroke:none;fill:#000000;fill-opacity:1">
	
		<path
   style="fill:#000000;stroke:none;stroke-width:0.70870000000000000;stroke-linecap:round;stroke-linejoin:round;stroke-miterlimit:10;fill-opacity:1"
   d="m 258.277,523.439 c 45.98594,-5.58339 87.03965,-38.66897 102.50018,-82.2992 11.17955,-30.299 10.22782,-64.77904 -2.65418,-94.3998 l 27.379,-16.687 c 16.34975,34.94615 19.19793,75.8949 7.84264,112.76198 C 375.8576,502.44899 320.30662,548.4148 258.34,553.973 z"
   id="polyline46"
   inkscape:connector-curvature="0"
   sodipodi:nodetypes="ccccccc" />
</g>
</svg>