<?xml version="1.0" encoding="UTF-8" standalone="no"?>
<!-- Generator: Adobe Illustrator 16.0.1, SVG Export Plug-In . SVG Version: 6.00 Build 0)  -->

<svg
   xmlns:dc="http://purl.org/dc/elements/1.1/"
   xmlns:cc="http://creativecommons.org/ns#"
   xmlns:rdf="http://www.w3.org/1999/02/22-rdf-syntax-ns#"
   xmlns:svg="http://www.w3.org/2000/svg"
   xmlns="http://www.w3.org/2000/svg"
   xmlns:sodipodi="http://sodipodi.sourceforge.net/DTD/sodipodi-0.dtd"
   xmlns:inkscape="http://www.inkscape.org/namespaces/inkscape"
   version="1.0"
   id="_x31_"
   x="0px"
   y="0px"
   width="612px"
   height="792px"
   viewBox="0 0 612 792"
   enable-background="new 0 0 612 792"
   xml:space="preserve"
   inkscape:version="0.48.2 r9819"
   sodipodi:docname="7092.svg"><metadata
   id="metadata37"><rdf:RDF><cc:Work
       rdf:about=""><dc:format>image/svg+xml</dc:format><dc:type
         rdf:resource="http://purl.org/dc/dcmitype/StillImage" /></cc:Work></rdf:RDF></metadata><defs
   id="defs35" /><sodipodi:namedview
   pagecolor="#ffffff"
   bordercolor="#666666"
   borderopacity="1"
   objecttolerance="10"
   gridtolerance="10"
   guidetolerance="10"
   inkscape:pageopacity="0"
   inkscape:pageshadow="2"
   inkscape:window-width="1920"
   inkscape:window-height="1073"
   id="namedview33"
   showgrid="false"
   inkscape:zoom="1.1919192"
   inkscape:cx="260.13641"
   inkscape:cy="320.3716"
   inkscape:window-x="0"
   inkscape:window-y="0"
   inkscape:window-maximized="1"
   inkscape:current-layer="_x31_" />
<g
   id="LWPOLYLINE"
   style="stroke:none;fill:#000000;fill-opacity:1">
	
		<path
   style="fill:#000000;stroke:none;stroke-width:0.70870000000000000;stroke-linecap:round;stroke-linejoin:round;stroke-miterlimit:10;fill-opacity:1"
   d="M 306 164.71875 L 105.46875 281.03125 L 105.46875 402.65625 L 105.46875 513.625 L 304.65625 628.625 L 506.53125 513.625 L 506.53125 282.34375 L 306 164.71875 z M 306 203.5 L 473.09375 302.4375 L 473.09375 493.59375 L 304.65625 591.15625 L 138.90625 493.59375 L 138.90625 402.65625 L 138.90625 299.75 L 306 203.5 z "
   id="polygon4" />
</g>
<g
   id="LWPOLYLINE_1_">
	
		
</g>
<g
   id="LWPOLYLINE_2_"
   style="fill:#000000;fill-opacity:1;stroke:none"
   transform="translate(-1.2584746,0)">
	
		<path
   style="fill:#000000;fill-opacity:1;stroke:none"
   d="m 506.521,363.918 66.83999,0 0,66.809 -66.83999,0 z"
   id="rect10"
   inkscape:connector-curvature="0" />
</g>
<g
   id="LWPOLYLINE_3_"
   style="fill:#000000;fill-opacity:1;stroke:none"
   transform="translate(1.2584746,0)">
	
		<path
   style="fill:#000000;fill-opacity:1;stroke:none"
   d="m 38.637001,363.918 66.839999,0 0,66.809 -66.839999,0 z"
   id="rect13"
   inkscape:connector-curvature="0" />
</g>
<g
   id="LWPOLYLINE_4_"
   style="fill:#000000;fill-opacity:1;stroke:none"
   transform="translate(0,-1.6779661)">
	
		<path
   transform="matrix(0.4999,0.8661,-0.8661,0.4999,731.8934,-66.8694)"
   style="fill:#000000;fill-opacity:1;stroke:none"
   d="m 390.427,566.91498 66.85,0 0,66.851 -66.85,0 z"
   id="rect16"
   inkscape:connector-curvature="0" />
</g>
<g
   id="LWPOLYLINE_5_"
   style="stroke:none;fill:#000000;fill-opacity:1">
	
		<path
   style="fill:#000000;stroke:none;stroke-width:0.70870000000000000;stroke-linecap:round;stroke-linejoin:round;stroke-miterlimit:10;fill-opacity:1"
   d="m 378.193,207.521 57.506,33.42 34.727,-60.181 -58.813,-33.42 z"
   id="polygon19" />
</g>
<g
   id="LWPOLYLINE_6_"
   style="fill:#000000;fill-opacity:1;stroke:none"
   transform="translate(0.41949153,0.83898305)">
	
		<path
   style="fill:#000000;fill-opacity:1;stroke:none"
   d="M 176.332,239.604 235.145,206.184 201.725,146 142.912,179.422 z"
   id="polygon22"
   inkscape:connector-curvature="0" />
</g>
<g
   id="LWPOLYLINE_7_"
   style="fill:#000000;fill-opacity:1;stroke:none"
   transform="translate(0.41949153,-0.83898305)">
	
		<path
   style="fill:#000000;fill-opacity:1;stroke:none"
   d="m 142.912,612.58 58.813,33.42 33.42,-57.506 -58.813,-33.42 z"
   id="polygon25"
   inkscape:connector-curvature="0" />
</g>
<g
   id="LWPOLYLINE_8_"
   style="stroke:none;stroke-opacity:1;fill:#000000;fill-opacity:1">
	
		<path
   style="fill:#000000;stroke:none;stroke-width:0.70870000000000000;stroke-linecap:round;stroke-linejoin:round;stroke-miterlimit:10;stroke-opacity:1;fill-opacity:1"
   d="M 303.65625 339.875 L 302.65625 339.90625 L 301.65625 339.9375 L 300.65625 340 L 299.65625 340.0625 L 298.65625 340.15625 L 297.65625 340.28125 L 296.65625 340.40625 L 295.6875 340.5625 L 294.6875 340.71875 L 293.6875 340.90625 L 292.71875 341.09375 L 291.75 341.34375 L 290.75 341.5625 L 289.78125 341.8125 L 288.84375 342.09375 L 287.84375 342.375 L 286.90625 342.6875 L 285.96875 343 L 285 343.3125 L 284.0625 343.6875 L 283.125 344.03125 L 282.21875 344.4375 L 281.28125 344.8125 L 280.375 345.25 L 279.46875 345.6875 L 278.5625 346.125 L 277.65625 346.59375 L 276.78125 347.03125 L 275.90625 347.5625 L 275.0625 348.0625 L 274.21875 348.59375 L 273.375 349.125 L 272.5 349.6875 L 271.6875 350.25 L 270.875 350.84375 L 270.0625 351.40625 L 269.28125 352.03125 L 268.5 352.65625 L 267.71875 353.3125 L 266.96875 353.96875 L 266.1875 354.625 L 265.46875 355.3125 L 264.75 356 L 264.03125 356.71875 L 263.3125 357.40625 L 262.625 358.15625 L 261.9375 358.84375 L 261.28125 359.625 L 260.625 360.40625 L 259.96875 361.1875 L 259.375 361.96875 L 258.75 362.75 L 258.15625 363.5625 L 257.5625 364.375 L 257 365.1875 L 256.46875 366.03125 L 255.90625 366.875 L 255.375 367.75 L 254.90625 368.59375 L 254.40625 369.46875 L 253.90625 370.34375 L 253.4375 371.21875 L 253 372.15625 L 252.5625 373.0625 L 252.15625 373.96875 L 251.75 374.875 L 251.375 375.8125 L 251 376.75 L 250.65625 377.6875 L 250.3125 378.625 L 250 379.59375 L 249.6875 380.53125 L 249.40625 381.5 L 249.15625 382.46875 L 248.875 383.4375 L 248.65625 384.40625 L 248.4375 385.40625 L 248.21875 386.375 L 248.03125 387.34375 L 247.875 388.34375 L 247.75 389.34375 L 247.625 390.3125 L 247.46875 391.34375 L 247.375 392.3125 L 247.3125 393.3125 L 247.25 394.34375 L 247.21875 395.34375 L 247.1875 396.3125 L 247.1875 397.3125 L 247.1875 398.34375 L 247.21875 399.34375 L 247.25 400.375 L 247.3125 401.34375 L 247.375 402.34375 L 247.46875 403.375 L 247.625 404.34375 L 247.75 405.34375 L 247.875 406.3125 L 248.03125 407.28125 L 248.21875 408.34375 L 248.4375 409.3125 L 248.65625 410.28125 L 248.875 411.28125 L 249.15625 412.1875 L 249.40625 413.15625 L 249.6875 414.15625 L 250 415.125 L 250.3125 416.03125 L 250.65625 417.03125 L 251 417.9375 L 251.375 418.84375 L 251.75 419.8125 L 252.15625 420.75 L 252.5625 421.65625 L 253 422.5625 L 253.4375 423.40625 L 253.90625 424.34375 L 254.40625 425.1875 L 254.90625 426.09375 L 255.375 426.9375 L 255.90625 427.78125 L 256.46875 428.625 L 257 429.5 L 257.5625 430.34375 L 258.15625 431.125 L 258.75 431.90625 L 259.375 432.75 L 259.96875 433.53125 L 260.625 434.3125 L 261.28125 435.03125 L 261.9375 435.8125 L 262.625 436.53125 L 263.3125 437.25 L 264.03125 437.96875 L 264.75 438.6875 L 265.46875 439.40625 L 266.1875 440.0625 L 266.96875 440.71875 L 267.71875 441.375 L 268.5 442.03125 L 269.28125 442.59375 L 270.0625 443.25 L 270.875 443.84375 L 271.6875 444.4375 L 272.5 445.03125 L 273.375 445.53125 L 274.21875 446.0625 L 275.0625 446.59375 L 275.90625 447.125 L 276.78125 447.625 L 277.65625 448.09375 L 278.5625 448.5625 L 279.46875 449 L 280.375 449.46875 L 281.28125 449.84375 L 282.21875 450.25 L 283.125 450.625 L 284.0625 451.03125 L 285 451.34375 L 285.96875 451.6875 L 286.90625 452 L 287.84375 452.34375 L 288.84375 452.59375 L 289.78125 452.84375 L 290.75 453.125 L 291.75 453.375 L 292.71875 453.5625 L 293.6875 453.78125 L 294.6875 453.96875 L 295.6875 454.09375 L 296.65625 454.28125 L 297.65625 454.4375 L 298.65625 454.5 L 299.65625 454.625 L 300.65625 454.6875 L 301.65625 454.75 L 302.65625 454.8125 L 303.65625 454.8125 L 304.65625 454.8125 L 305.6875 454.8125 L 306.65625 454.8125 L 307.6875 454.75 L 308.6875 454.6875 L 309.65625 454.625 L 310.6875 454.5 L 311.6875 454.4375 L 312.65625 454.28125 L 313.625 454.09375 L 314.625 453.96875 L 315.65625 453.78125 L 316.625 453.5625 L 317.625 453.375 L 318.59375 453.125 L 319.5 452.84375 L 320.5 452.59375 L 321.46875 452.34375 L 322.4375 452 L 323.375 451.6875 L 324.34375 451.34375 L 325.25 451.03125 L 326.15625 450.625 L 327.15625 450.25 L 328.0625 449.84375 L 328.96875 449.46875 L 329.90625 449 L 330.75 448.5625 L 331.65625 448.09375 L 332.5 447.625 L 333.40625 447.125 L 334.25 446.59375 L 335.125 446.0625 L 335.96875 445.53125 L 336.8125 445.03125 L 337.65625 444.4375 L 338.4375 443.84375 L 339.28125 443.25 L 340.0625 442.59375 L 340.84375 442.03125 L 341.625 441.375 L 342.34375 440.71875 L 343.15625 440.0625 L 343.84375 439.40625 L 344.5625 438.6875 L 345.28125 437.96875 L 346 437.25 L 346.71875 436.53125 L 347.375 435.8125 L 348.03125 435.03125 L 348.6875 434.3125 L 349.34375 433.53125 L 349.9375 432.75 L 350.59375 431.90625 L 351.15625 431.125 L 351.75 430.34375 L 352.34375 429.5 L 352.875 428.625 L 353.375 427.78125 L 353.90625 426.9375 L 354.4375 426.09375 L 354.96875 425.1875 L 355.40625 424.34375 L 355.875 423.40625 L 356.3125 422.5625 L 356.78125 421.65625 L 357.1875 420.75 L 357.5625 419.8125 L 357.96875 418.84375 L 358.34375 417.9375 L 358.6875 417.03125 L 359 416.03125 L 359.3125 415.125 L 359.65625 414.15625 L 359.90625 413.15625 L 360.1875 412.1875 L 360.4375 411.28125 L 360.6875 410.28125 L 360.90625 409.3125 L 361.09375 408.34375 L 361.28125 407.28125 L 361.40625 406.3125 L 361.625 405.34375 L 361.75 404.34375 L 361.8125 403.375 L 361.9375 402.34375 L 362 401.34375 L 362.0625 400.375 L 362.125 399.34375 L 362.125 398.34375 L 362.125 397.3125 L 362.125 396.3125 L 362.125 395.34375 L 362.0625 394.34375 L 362 393.3125 L 361.9375 392.3125 L 361.8125 391.34375 L 361.75 390.3125 L 361.625 389.34375 L 361.40625 388.34375 L 361.28125 387.34375 L 361.09375 386.375 L 360.90625 385.40625 L 360.6875 384.40625 L 360.4375 383.4375 L 360.1875 382.46875 L 359.90625 381.5 L 359.65625 380.53125 L 359.3125 379.59375 L 359 378.625 L 358.6875 377.6875 L 358.34375 376.75 L 357.96875 375.8125 L 357.5625 374.875 L 357.1875 373.96875 L 356.78125 373.0625 L 356.3125 372.15625 L 355.875 371.21875 L 355.40625 370.34375 L 354.96875 369.46875 L 354.4375 368.59375 L 353.90625 367.75 L 353.375 366.875 L 352.875 366.03125 L 352.34375 365.1875 L 351.75 364.375 L 351.15625 363.5625 L 350.59375 362.75 L 349.9375 361.96875 L 349.34375 361.1875 L 348.6875 360.40625 L 348.03125 359.625 L 347.375 358.84375 L 346.71875 358.15625 L 346 357.40625 L 345.28125 356.71875 L 344.5625 356 L 343.84375 355.3125 L 343.15625 354.625 L 342.34375 353.96875 L 341.625 353.3125 L 340.84375 352.65625 L 340.0625 352.03125 L 339.28125 351.40625 L 338.4375 350.84375 L 337.65625 350.25 L 336.8125 349.6875 L 335.96875 349.125 L 335.125 348.59375 L 334.25 348.0625 L 333.40625 347.5625 L 332.5 347.03125 L 331.65625 346.59375 L 330.75 346.125 L 329.90625 345.6875 L 328.96875 345.25 L 328.0625 344.8125 L 327.15625 344.4375 L 326.15625 344.03125 L 325.25 343.6875 L 324.34375 343.3125 L 323.375 343 L 322.4375 342.6875 L 321.46875 342.375 L 320.5 342.09375 L 319.5 341.8125 L 318.59375 341.5625 L 317.625 341.34375 L 316.625 341.09375 L 315.65625 340.90625 L 314.625 340.71875 L 313.625 340.5625 L 312.65625 340.40625 L 311.6875 340.28125 L 310.6875 340.15625 L 309.65625 340.0625 L 308.6875 340 L 307.6875 339.9375 L 306.65625 339.90625 L 305.6875 339.875 L 304.65625 339.875 L 303.65625 339.875 z M 303.59375 366.59375 L 304.125 366.59375 L 304.65625 366.59375 L 305.21875 366.59375 L 305.75 366.59375 L 306.25 366.625 L 306.78125 366.65625 L 307.375 366.6875 L 307.90625 366.75 L 308.40625 366.8125 L 308.9375 366.875 L 309.46875 366.9375 L 309.96875 367.0625 L 310.5 367.15625 L 311.03125 367.25 L 311.5625 367.375 L 312.0625 367.5 L 312.59375 367.625 L 313.125 367.78125 L 313.625 367.9375 L 314.15625 368.09375 L 314.6875 368.25 L 315.1875 368.46875 L 315.65625 368.625 L 316.1875 368.84375 L 316.71875 369.03125 L 317.15625 369.25 L 317.6875 369.46875 L 318.15625 369.6875 L 318.59375 369.96875 L 319.125 370.1875 L 319.5625 370.4375 L 320.03125 370.71875 L 320.5 370.96875 L 320.9375 371.25 L 321.40625 371.5625 L 321.875 371.84375 L 322.3125 372.15625 L 322.71875 372.46875 L 323.15625 372.78125 L 323.625 373.125 L 324.03125 373.4375 L 324.40625 373.78125 L 324.875 374.125 L 325.25 374.5 L 325.65625 374.84375 L 326.03125 375.21875 L 326.4375 375.59375 L 326.75 376 L 327.15625 376.34375 L 327.53125 376.78125 L 327.875 377.15625 L 328.1875 377.5625 L 328.59375 377.96875 L 328.90625 378.40625 L 329.25 378.84375 L 329.5625 379.25 L 329.8125 379.71875 L 330.15625 380.125 L 330.46875 380.59375 L 330.75 381.0625 L 331 381.5 L 331.25 381.96875 L 331.59375 382.4375 L 331.78125 382.90625 L 332.03125 383.375 L 332.3125 383.84375 L 332.5 384.34375 L 332.75 384.84375 L 332.96875 385.3125 L 333.15625 385.8125 L 333.34375 386.3125 L 333.53125 386.84375 L 333.75 387.3125 L 333.9375 387.84375 L 334.0625 388.375 L 334.1875 388.84375 L 334.3125 389.375 L 334.53125 389.90625 L 334.59375 390.40625 L 334.71875 390.9375 L 334.84375 391.46875 L 334.90625 392 L 335.0625 392.53125 L 335.125 393.0625 L 335.1875 393.59375 L 335.25 394.09375 L 335.3125 394.65625 L 335.3125 395.1875 L 335.375 395.75 L 335.375 396.25 L 335.375 396.78125 L 335.4375 397.3125 L 335.375 397.90625 L 335.375 398.40625 L 335.375 398.9375 L 335.3125 399.46875 L 335.3125 400.0625 L 335.25 400.5625 L 335.1875 401.09375 L 335.125 401.625 L 335.0625 402.125 L 334.90625 402.65625 L 334.84375 403.1875 L 334.71875 403.6875 L 334.59375 404.21875 L 334.53125 404.75 L 334.3125 405.28125 L 334.1875 405.78125 L 334.0625 406.3125 L 333.9375 406.84375 L 333.75 407.34375 L 333.53125 407.875 L 333.34375 408.34375 L 333.15625 408.84375 L 332.96875 409.375 L 332.75 409.84375 L 332.5 410.375 L 332.3125 410.8125 L 332.03125 411.28125 L 331.78125 411.8125 L 331.59375 412.25 L 331.25 412.71875 L 331 413.15625 L 330.75 413.625 L 330.46875 414.09375 L 330.15625 414.53125 L 329.8125 415 L 329.5625 415.375 L 329.25 415.84375 L 328.90625 416.25 L 328.59375 416.6875 L 328.1875 417.09375 L 327.875 417.53125 L 327.53125 417.9375 L 327.15625 418.3125 L 326.75 418.71875 L 326.4375 419.09375 L 326.03125 419.4375 L 325.65625 419.8125 L 325.25 420.21875 L 324.875 420.53125 L 324.40625 420.875 L 324.03125 421.25 L 323.625 421.59375 L 323.15625 421.90625 L 322.71875 422.25 L 322.3125 422.5 L 321.875 422.8125 L 321.40625 423.15625 L 320.9375 423.40625 L 320.5 423.6875 L 320.03125 423.9375 L 319.5625 424.1875 L 319.125 424.46875 L 318.59375 424.71875 L 318.15625 424.96875 L 317.6875 425.1875 L 317.15625 425.4375 L 316.71875 425.625 L 316.1875 425.84375 L 315.65625 426.03125 L 315.1875 426.21875 L 314.6875 426.40625 L 314.15625 426.5625 L 313.625 426.75 L 313.125 426.875 L 312.59375 427 L 312.0625 427.1875 L 311.5625 427.28125 L 311.03125 427.40625 L 310.5 427.53125 L 309.96875 427.59375 L 309.46875 427.71875 L 308.9375 427.78125 L 308.40625 427.84375 L 307.90625 427.90625 L 307.375 427.96875 L 306.78125 427.96875 L 306.25 428.0625 L 305.75 428.0625 L 305.21875 428.0625 L 304.65625 428.125 L 304.125 428.0625 L 303.59375 428.0625 L 303.0625 428.0625 L 302.5 427.96875 L 301.96875 427.96875 L 301.46875 427.90625 L 300.90625 427.84375 L 300.375 427.78125 L 299.875 427.71875 L 299.3125 427.59375 L 298.78125 427.53125 L 298.25 427.40625 L 297.75 427.28125 L 297.21875 427.1875 L 296.6875 427 L 296.1875 426.875 L 295.6875 426.75 L 295.15625 426.5625 L 294.65625 426.40625 L 294.15625 426.21875 L 293.625 426.03125 L 293.15625 425.84375 L 292.65625 425.625 L 292.15625 425.4375 L 291.6875 425.1875 L 291.1875 424.96875 L 290.6875 424.71875 L 290.25 424.46875 L 289.75 424.1875 L 289.28125 423.9375 L 288.84375 423.6875 L 288.375 423.40625 L 287.90625 423.15625 L 287.46875 422.8125 L 287.03125 422.5 L 286.59375 422.25 L 286.15625 421.90625 L 285.71875 421.59375 L 285.3125 421.25 L 284.90625 420.875 L 284.5 420.53125 L 284.09375 420.21875 L 283.71875 419.8125 L 283.3125 419.4375 L 282.9375 419.09375 L 282.53125 418.71875 L 282.1875 418.3125 L 281.8125 417.9375 L 281.46875 417.53125 L 281.09375 417.09375 L 280.78125 416.6875 L 280.4375 416.25 L 280.125 415.84375 L 279.78125 415.375 L 279.46875 415 L 279.1875 414.53125 L 278.875 414.09375 L 278.59375 413.625 L 278.3125 413.15625 L 278.03125 412.71875 L 277.78125 412.25 L 277.5 411.8125 L 277.28125 411.28125 L 277.03125 410.8125 L 276.78125 410.375 L 276.5625 409.84375 L 276.375 409.375 L 276.15625 408.84375 L 275.96875 408.34375 L 275.78125 407.875 L 275.59375 407.34375 L 275.40625 406.84375 L 275.25 406.3125 L 275.09375 405.78125 L 274.96875 405.28125 L 274.84375 404.75 L 274.6875 404.21875 L 274.59375 403.6875 L 274.46875 403.1875 L 274.375 402.65625 L 274.3125 402.125 L 274.21875 401.625 L 274.15625 401.09375 L 274.09375 400.5625 L 274.0625 400.0625 L 273.96875 399.46875 L 273.9375 398.9375 L 273.9375 398.40625 L 273.90625 397.90625 L 273.90625 397.3125 L 273.90625 396.78125 L 273.9375 396.25 L 273.9375 395.75 L 273.96875 395.1875 L 274.0625 394.65625 L 274.09375 394.09375 L 274.15625 393.59375 L 274.21875 393.0625 L 274.3125 392.53125 L 274.375 392 L 274.46875 391.46875 L 274.59375 390.9375 L 274.6875 390.40625 L 274.84375 389.90625 L 274.96875 389.375 L 275.09375 388.84375 L 275.25 388.375 L 275.40625 387.84375 L 275.59375 387.3125 L 275.78125 386.84375 L 275.96875 386.3125 L 276.15625 385.8125 L 276.375 385.3125 L 276.5625 384.84375 L 276.78125 384.34375 L 277.03125 383.84375 L 277.28125 383.375 L 277.5 382.90625 L 277.78125 382.4375 L 278.03125 381.96875 L 278.3125 381.5 L 278.59375 381.0625 L 278.875 380.59375 L 279.1875 380.125 L 279.46875 379.71875 L 279.78125 379.25 L 280.125 378.84375 L 280.4375 378.40625 L 280.78125 377.96875 L 281.09375 377.5625 L 281.46875 377.15625 L 281.8125 376.78125 L 282.1875 376.34375 L 282.53125 376 L 282.9375 375.59375 L 283.3125 375.21875 L 283.71875 374.84375 L 284.09375 374.5 L 284.5 374.125 L 284.90625 373.78125 L 285.3125 373.4375 L 285.71875 373.125 L 286.15625 372.78125 L 286.59375 372.46875 L 287.03125 372.15625 L 287.46875 371.84375 L 287.90625 371.5625 L 288.375 371.25 L 288.84375 370.96875 L 289.28125 370.71875 L 289.75 370.4375 L 290.25 370.1875 L 290.6875 369.96875 L 291.1875 369.6875 L 291.6875 369.46875 L 292.15625 369.25 L 292.65625 369.03125 L 293.15625 368.84375 L 293.625 368.625 L 294.15625 368.46875 L 294.65625 368.25 L 295.15625 368.09375 L 295.6875 367.9375 L 296.1875 367.78125 L 296.6875 367.625 L 297.21875 367.5 L 297.75 367.375 L 298.25 367.25 L 298.78125 367.15625 L 299.3125 367.0625 L 299.875 366.9375 L 300.375 366.875 L 300.90625 366.8125 L 301.46875 366.75 L 301.96875 366.6875 L 302.5 366.65625 L 303.0625 366.625 L 303.59375 366.59375 z "
   id="polygon28" />
</g>
<g
   id="LWPOLYLINE_9_">
	
		
</g>
</svg>