<?xml version="1.0" encoding="UTF-8" standalone="no"?>
<!-- Generator: Adobe Illustrator 16.0.1, SVG Export Plug-In . SVG Version: 6.00 Build 0)  -->

<svg
   xmlns:dc="http://purl.org/dc/elements/1.1/"
   xmlns:cc="http://creativecommons.org/ns#"
   xmlns:rdf="http://www.w3.org/1999/02/22-rdf-syntax-ns#"
   xmlns:svg="http://www.w3.org/2000/svg"
   xmlns="http://www.w3.org/2000/svg"
   xmlns:sodipodi="http://sodipodi.sourceforge.net/DTD/sodipodi-0.dtd"
   xmlns:inkscape="http://www.inkscape.org/namespaces/inkscape"
   version="1.0"
   id="_x31_"
   x="0px"
   y="0px"
   width="612px"
   height="792px"
   viewBox="0 0 612 792"
   enable-background="new 0 0 612 792"
   xml:space="preserve"
   inkscape:version="0.48.2 r9819"
   sodipodi:docname="7094.svg"><metadata
   id="metadata40"><rdf:RDF><cc:Work
       rdf:about=""><dc:format>image/svg+xml</dc:format><dc:type
         rdf:resource="http://purl.org/dc/dcmitype/StillImage" /></cc:Work></rdf:RDF></metadata><defs
   id="defs38" /><sodipodi:namedview
   pagecolor="#ffffff"
   bordercolor="#666666"
   borderopacity="1"
   objecttolerance="10"
   gridtolerance="10"
   guidetolerance="10"
   inkscape:pageopacity="0"
   inkscape:pageshadow="2"
   inkscape:window-width="1920"
   inkscape:window-height="1073"
   id="namedview36"
   showgrid="false"
   inkscape:zoom="1.6856283"
   inkscape:cx="187.49518"
   inkscape:cy="336.31017"
   inkscape:window-x="0"
   inkscape:window-y="0"
   inkscape:window-maximized="1"
   inkscape:current-layer="_x31_" />
<g
   id="LWPOLYLINE"
   style="stroke:none;fill:#000000;fill-opacity:1">
	
		<path
   style="fill:#000000;stroke:none;stroke-width:0.70870000000000000;stroke-linecap:round;stroke-linejoin:round;stroke-miterlimit:10;fill-opacity:1"
   d="M 306 158.125 L 176 233.53125 L 176 312.375 L 176 384.3125 L 305.125 458.84375 L 436 384.3125 L 436 234.40625 L 306 158.125 z M 306 183.25 L 414.3125 247.375 L 414.3125 371.3125 L 305.125 434.5625 L 197.6875 371.3125 L 197.6875 312.375 L 197.6875 245.65625 L 306 183.25 z "
   id="polygon4" />
</g>
<g
   id="LWPOLYLINE_1_">
	
		
</g>
<g
   id="LWPOLYLINE_2_"
   style="stroke:none;fill:#000000;fill-opacity:1">
	
		<path
   style="fill:#000000;stroke:none;stroke-width:0.70870000000000000;stroke-linecap:round;stroke-linejoin:round;stroke-miterlimit:10;fill-opacity:1"
   d="m 435.98801,287.26599 43.329,0 0,43.328 -43.329,0 z"
   id="rect10" />
</g>
<g
   id="LWPOLYLINE_3_"
   style="fill:#000000;fill-opacity:1;stroke:none"
   transform="translate(2,0)">
	
		<path
   style="fill:#000000;fill-opacity:1;stroke:none"
   d="m 132.68401,287.26599 43.32899,0 0,43.328 -43.32899,0 z"
   id="rect13"
   inkscape:connector-curvature="0" />
</g>
<g
   id="LWPOLYLINE_4_"
   style="fill:#000000;fill-opacity:1;stroke:none"
   transform="translate(-1.1865012,-2.3730024)">
	
		<path
   transform="matrix(0.4999,0.8661,-0.8661,0.4999,572.7264,-110.9001)"
   style="fill:#000000;fill-opacity:1;stroke:none"
   d="m 360.73001,418.836 43.336,0 0,43.336 -43.336,0 z"
   id="rect16"
   inkscape:connector-curvature="0" />
</g>
<g
   id="LWPOLYLINE_5_"
   style="stroke:none;fill:#000000;fill-opacity:1">
	
		<path
   style="fill:#000000;stroke:none;stroke-width:0.70870000000000000;stroke-linecap:round;stroke-linejoin:round;stroke-miterlimit:10;fill-opacity:1"
   d="m 352.799,185.859 37.278,21.666 22.512,-38.992 -38.125,-21.666 z"
   id="polygon19" />
</g>
<g
   id="LWPOLYLINE_6_"
   style="fill:#000000;fill-opacity:1;stroke:none"
   transform="translate(2,2)">
	
		<path
   style="fill:#000000;fill-opacity:1;stroke:none"
   d="M 221.944,206.656 260.068,184.992 238.404,146 200.279,167.664 z"
   id="polygon22"
   inkscape:connector-curvature="0" />
</g>
<g
   id="LWPOLYLINE_7_"
   style="fill:#000000;fill-opacity:1;stroke:none"
   transform="translate(0.59325061,-0.59325061)">
	
		<path
   style="fill:#000000;fill-opacity:1;stroke:none"
   d="m 200.279,448.438 38.125,21.664 21.664,-37.278 -38.124,-21.664 z"
   id="polygon25"
   inkscape:connector-curvature="0" />
</g>
<g
   id="LWPOLYLINE_8_"
   style="stroke:none;fill:#000000;fill-opacity:1">
	
		<path
   style="fill:#000000;stroke:none;stroke-width:0.70870000000000000;stroke-linecap:round;stroke-linejoin:round;stroke-miterlimit:10;fill-opacity:1"
   d="M 304.46875 271.65625 L 303.84375 271.6875 L 303.1875 271.71875 L 302.53125 271.75 L 301.90625 271.8125 L 301.25 271.875 L 300.59375 271.9375 L 299.9375 272 L 299.3125 272.125 L 298.65625 272.21875 L 298.03125 272.34375 L 297.375 272.46875 L 296.75 272.59375 L 296.125 272.78125 L 295.5 272.90625 L 294.875 273.09375 L 294.25 273.28125 L 293.625 273.46875 L 293 273.6875 L 292.40625 273.90625 L 291.78125 274.125 L 291.15625 274.34375 L 290.5625 274.625 L 289.96875 274.875 L 289.40625 275.15625 L 288.8125 275.40625 L 288.21875 275.71875 L 287.625 276 L 287.0625 276.3125 L 286.5 276.65625 L 285.9375 276.96875 L 285.40625 277.3125 L 284.84375 277.65625 L 284.28125 278.03125 L 283.75 278.40625 L 283.25 278.78125 L 282.71875 279.15625 L 282.1875 279.5625 L 281.6875 279.96875 L 281.1875 280.375 L 280.6875 280.78125 L 280.1875 281.21875 L 279.71875 281.65625 L 279.25 282.125 L 278.78125 282.5625 L 278.3125 283.03125 L 277.875 283.5 L 277.4375 284 L 277.03125 284.46875 L 276.59375 284.96875 L 276.15625 285.46875 L 275.78125 285.96875 L 275.375 286.5 L 274.96875 287 L 274.59375 287.53125 L 274.25 288.09375 L 273.875 288.625 L 273.53125 289.15625 L 273.1875 289.71875 L 272.875 290.28125 L 272.5625 290.875 L 272.21875 291.4375 L 271.9375 292 L 271.65625 292.5625 L 271.375 293.15625 L 271.09375 293.75 L 270.84375 294.34375 L 270.59375 294.96875 L 270.34375 295.5625 L 270.125 296.1875 L 269.90625 296.78125 L 269.6875 297.40625 L 269.5 298.03125 L 269.3125 298.65625 L 269.15625 299.28125 L 268.96875 299.90625 L 268.8125 300.53125 L 268.6875 301.15625 L 268.5625 301.8125 L 268.4375 302.46875 L 268.3125 303.09375 L 268.25 303.71875 L 268.15625 304.375 L 268.0625 305.03125 L 268 305.6875 L 267.96875 306.3125 L 267.90625 306.96875 L 267.90625 307.625 L 267.875 308.28125 L 267.875 308.9375 L 267.875 309.5625 L 267.90625 310.21875 L 267.90625 310.875 L 267.96875 311.5 L 268 312.15625 L 268.0625 312.8125 L 268.15625 313.46875 L 268.25 314.125 L 268.3125 314.75 L 268.4375 315.375 L 268.5625 316.03125 L 268.6875 316.6875 L 268.8125 317.3125 L 268.96875 317.9375 L 269.15625 318.5625 L 269.3125 319.1875 L 269.5 319.8125 L 269.6875 320.4375 L 269.90625 321.0625 L 270.125 321.65625 L 270.34375 322.28125 L 270.59375 322.875 L 270.84375 323.46875 L 271.09375 324.0625 L 271.375 324.65625 L 271.65625 325.25 L 271.9375 325.84375 L 272.21875 326.40625 L 272.5625 326.96875 L 272.875 327.5625 L 273.1875 328.125 L 273.53125 328.65625 L 273.875 329.21875 L 274.25 329.75 L 274.59375 330.3125 L 274.96875 330.8125 L 275.375 331.34375 L 275.78125 331.875 L 276.15625 332.375 L 276.59375 332.875 L 277.03125 333.375 L 277.4375 333.84375 L 277.875 334.34375 L 278.3125 334.8125 L 278.78125 335.28125 L 279.25 335.71875 L 279.71875 336.1875 L 280.1875 336.59375 L 280.6875 337.0625 L 281.1875 337.46875 L 281.6875 337.875 L 282.1875 338.28125 L 282.71875 338.6875 L 283.25 339.0625 L 283.75 339.4375 L 284.28125 339.8125 L 284.84375 340.1875 L 285.40625 340.53125 L 285.9375 340.84375 L 286.5 341.1875 L 287.0625 341.5 L 287.625 341.8125 L 288.21875 342.125 L 288.8125 342.40625 L 289.40625 342.6875 L 289.96875 342.9375 L 290.5625 343.21875 L 291.15625 343.46875 L 291.78125 343.71875 L 292.40625 343.9375 L 293 344.15625 L 293.625 344.375 L 294.25 344.5625 L 294.875 344.75 L 295.5 344.90625 L 296.125 345.0625 L 296.75 345.21875 L 297.375 345.375 L 298.03125 345.5 L 298.65625 345.625 L 299.3125 345.71875 L 299.9375 345.8125 L 300.59375 345.90625 L 301.25 345.96875 L 301.90625 346.03125 L 302.53125 346.09375 L 303.1875 346.125 L 303.84375 346.15625 L 304.46875 346.1875 L 305.125 346.1875 L 305.78125 346.1875 L 306.4375 346.15625 L 307.09375 346.125 L 307.75 346.09375 L 308.375 346.03125 L 309.0625 345.96875 L 309.6875 345.90625 L 310.3125 345.8125 L 310.9375 345.71875 L 311.59375 345.625 L 312.25 345.5 L 312.90625 345.375 L 313.53125 345.21875 L 314.15625 345.0625 L 314.75 344.90625 L 315.40625 344.75 L 316.03125 344.5625 L 316.65625 344.375 L 317.25 344.15625 L 317.90625 343.9375 L 318.46875 343.71875 L 319.0625 343.46875 L 319.71875 343.21875 L 320.3125 342.9375 L 320.90625 342.6875 L 321.5 342.40625 L 322.03125 342.125 L 322.625 341.8125 L 323.1875 341.5 L 323.78125 341.1875 L 324.3125 340.84375 L 324.875 340.53125 L 325.4375 340.1875 L 325.96875 339.8125 L 326.53125 339.4375 L 327.03125 339.0625 L 327.59375 338.6875 L 328.09375 338.28125 L 328.59375 337.875 L 329.09375 337.46875 L 329.5625 337.0625 L 330.0625 336.59375 L 330.53125 336.1875 L 331 335.71875 L 331.46875 335.28125 L 331.9375 334.8125 L 332.40625 334.34375 L 332.8125 333.84375 L 333.25 333.375 L 333.6875 332.875 L 334.09375 332.375 L 334.46875 331.875 L 334.90625 331.34375 L 335.28125 330.8125 L 335.65625 330.3125 L 336.03125 329.75 L 336.375 329.21875 L 336.71875 328.65625 L 337.0625 328.125 L 337.40625 327.5625 L 337.75 326.96875 L 338.03125 326.40625 L 338.3125 325.84375 L 338.625 325.25 L 338.90625 324.65625 L 339.1875 324.0625 L 339.4375 323.46875 L 339.6875 322.875 L 339.9375 322.28125 L 340.15625 321.65625 L 340.34375 321.0625 L 340.5625 320.4375 L 340.78125 319.8125 L 340.9375 319.1875 L 341.125 318.5625 L 341.28125 317.9375 L 341.46875 317.3125 L 341.59375 316.6875 L 341.71875 316.03125 L 341.84375 315.375 L 341.9375 314.75 L 342.0625 314.125 L 342.125 313.46875 L 342.1875 312.8125 L 342.25 312.15625 L 342.3125 311.5 L 342.34375 310.875 L 342.375 310.21875 L 342.375 309.5625 L 342.375 308.9375 L 342.375 308.28125 L 342.375 307.625 L 342.34375 306.96875 L 342.3125 306.3125 L 342.25 305.6875 L 342.1875 305.03125 L 342.125 304.375 L 342.0625 303.71875 L 341.9375 303.09375 L 341.84375 302.46875 L 341.71875 301.8125 L 341.59375 301.15625 L 341.46875 300.53125 L 341.28125 299.90625 L 341.125 299.28125 L 340.9375 298.65625 L 340.78125 298.03125 L 340.5625 297.40625 L 340.34375 296.78125 L 340.15625 296.1875 L 339.9375 295.5625 L 339.6875 294.96875 L 339.4375 294.34375 L 339.1875 293.75 L 338.90625 293.15625 L 338.625 292.5625 L 338.3125 292 L 338.03125 291.4375 L 337.75 290.875 L 337.40625 290.28125 L 337.0625 289.71875 L 336.71875 289.15625 L 336.375 288.625 L 336.03125 288.09375 L 335.65625 287.53125 L 335.28125 287 L 334.90625 286.5 L 334.46875 285.96875 L 334.09375 285.46875 L 333.6875 284.96875 L 333.25 284.46875 L 332.8125 284 L 332.40625 283.5 L 331.9375 283.03125 L 331.46875 282.5625 L 331 282.125 L 330.53125 281.65625 L 330.0625 281.21875 L 329.5625 280.78125 L 329.09375 280.375 L 328.59375 279.96875 L 328.09375 279.5625 L 327.59375 279.15625 L 327.03125 278.78125 L 326.53125 278.40625 L 325.96875 278.03125 L 325.4375 277.65625 L 324.875 277.3125 L 324.3125 276.96875 L 323.78125 276.65625 L 323.1875 276.3125 L 322.625 276 L 322.03125 275.71875 L 321.5 275.40625 L 320.90625 275.15625 L 320.3125 274.875 L 319.71875 274.625 L 319.0625 274.34375 L 318.46875 274.125 L 317.90625 273.90625 L 317.25 273.6875 L 316.65625 273.46875 L 316.03125 273.28125 L 315.40625 273.09375 L 314.75 272.90625 L 314.15625 272.78125 L 313.53125 272.59375 L 312.90625 272.46875 L 312.25 272.34375 L 311.59375 272.21875 L 310.9375 272.125 L 310.3125 272 L 309.6875 271.9375 L 309.0625 271.875 L 308.375 271.8125 L 307.75 271.75 L 307.09375 271.71875 L 306.4375 271.6875 L 305.78125 271.65625 L 305.125 271.65625 L 304.46875 271.65625 z M 305.125 288.96875 L 305.5 289 L 305.84375 289 L 306.15625 289.03125 L 306.5 289.03125 L 306.875 289.0625 L 307.21875 289.09375 L 307.5625 289.125 L 307.90625 289.1875 L 308.25 289.21875 L 308.59375 289.28125 L 308.90625 289.34375 L 309.25 289.4375 L 309.59375 289.5 L 309.9375 289.5625 L 310.28125 289.6875 L 310.625 289.75 L 310.9375 289.875 L 311.28125 289.96875 L 311.625 290.0625 L 311.96875 290.1875 L 312.25 290.3125 L 312.59375 290.4375 L 312.9375 290.5625 L 313.25 290.71875 L 313.5625 290.875 L 313.875 291 L 314.15625 291.15625 L 314.5 291.3125 L 314.8125 291.5 L 315.09375 291.65625 L 315.40625 291.84375 L 315.6875 292.03125 L 316 292.1875 L 316.28125 292.375 L 316.59375 292.59375 L 316.84375 292.78125 L 317.125 293 L 317.4375 293.21875 L 317.6875 293.4375 L 317.9375 293.65625 L 318.21875 293.875 L 318.46875 294.09375 L 318.75 294.34375 L 319 294.59375 L 319.25 294.8125 L 319.46875 295.0625 L 319.71875 295.3125 L 319.96875 295.59375 L 320.1875 295.84375 L 320.375 296.09375 L 320.65625 296.375 L 320.84375 296.65625 L 321.0625 296.9375 L 321.28125 297.21875 L 321.4375 297.46875 L 321.65625 297.78125 L 321.875 298.0625 L 322.03125 298.34375 L 322.21875 298.65625 L 322.375 298.9375 L 322.59375 299.25 L 322.71875 299.5625 L 322.875 299.875 L 323.0625 300.1875 L 323.1875 300.5 L 323.34375 300.8125 L 323.46875 301.125 L 323.59375 301.46875 L 323.71875 301.78125 L 323.84375 302.09375 L 323.96875 302.4375 L 324.125 302.75 L 324.1875 303.09375 L 324.28125 303.4375 L 324.375 303.78125 L 324.5 304.09375 L 324.53125 304.4375 L 324.625 304.78125 L 324.6875 305.125 L 324.75 305.46875 L 324.84375 305.8125 L 324.875 306.125 L 324.90625 306.5 L 324.96875 306.84375 L 325 307.1875 L 325 307.53125 L 325.03125 307.875 L 325.03125 308.21875 L 325.03125 308.5625 L 325.09375 308.9375 L 325.03125 309.28125 L 325.03125 309.59375 L 325.03125 309.96875 L 325 310.3125 L 325 310.65625 L 324.96875 311 L 324.90625 311.34375 L 324.875 311.6875 L 324.84375 312.03125 L 324.75 312.375 L 324.6875 312.71875 L 324.625 313.0625 L 324.53125 313.40625 L 324.5 313.71875 L 324.375 314.0625 L 324.28125 314.40625 L 324.1875 314.75 L 324.125 315.09375 L 323.96875 315.40625 L 323.84375 315.75 L 323.71875 316.0625 L 323.59375 316.375 L 323.46875 316.71875 L 323.34375 317.03125 L 323.1875 317.34375 L 323.0625 317.65625 L 322.875 317.96875 L 322.71875 318.28125 L 322.59375 318.5625 L 322.375 318.90625 L 322.21875 319.1875 L 322.03125 319.5 L 321.875 319.78125 L 321.65625 320.0625 L 321.4375 320.34375 L 321.28125 320.625 L 321.0625 320.90625 L 320.84375 321.1875 L 320.65625 321.46875 L 320.375 321.71875 L 320.1875 322 L 319.96875 322.25 L 319.71875 322.5 L 319.46875 322.78125 L 319.25 323.03125 L 319 323.25 L 318.75 323.46875 L 318.46875 323.75 L 318.21875 323.9375 L 317.9375 324.1875 L 317.6875 324.40625 L 317.4375 324.625 L 317.125 324.84375 L 316.84375 325.0625 L 316.59375 325.25 L 316.28125 325.4375 L 316 325.65625 L 315.6875 325.8125 L 315.40625 326 L 315.09375 326.1875 L 314.8125 326.375 L 314.5 326.5 L 314.15625 326.6875 L 313.875 326.8125 L 313.5625 326.96875 L 313.25 327.125 L 312.9375 327.28125 L 312.59375 327.40625 L 312.25 327.53125 L 311.96875 327.65625 L 311.625 327.75 L 311.28125 327.875 L 310.9375 327.96875 L 310.625 328.0625 L 310.28125 328.1875 L 309.9375 328.28125 L 309.59375 328.34375 L 309.25 328.40625 L 308.90625 328.46875 L 308.59375 328.53125 L 308.25 328.59375 L 307.90625 328.65625 L 307.5625 328.71875 L 307.21875 328.71875 L 306.875 328.78125 L 306.5 328.78125 L 306.15625 328.8125 L 305.84375 328.84375 L 305.5 328.84375 L 305.125 328.84375 L 304.78125 328.84375 L 304.4375 328.84375 L 304.09375 328.8125 L 303.75 328.78125 L 303.40625 328.78125 L 303.0625 328.71875 L 302.6875 328.71875 L 302.375 328.65625 L 302.03125 328.59375 L 301.65625 328.53125 L 301.3125 328.46875 L 301 328.40625 L 300.65625 328.34375 L 300.3125 328.28125 L 299.96875 328.1875 L 299.625 328.0625 L 299.3125 327.96875 L 298.96875 327.875 L 298.625 327.75 L 298.3125 327.65625 L 297.96875 327.53125 L 297.65625 327.40625 L 297.34375 327.28125 L 297.03125 327.125 L 296.71875 326.96875 L 296.40625 326.8125 L 296.0625 326.6875 L 295.78125 326.5 L 295.46875 326.375 L 295.15625 326.1875 L 294.875 326 L 294.5625 325.8125 L 294.28125 325.65625 L 293.96875 325.4375 L 293.71875 325.25 L 293.40625 325.0625 L 293.125 324.84375 L 292.875 324.625 L 292.59375 324.40625 L 292.34375 324.1875 L 292.0625 323.9375 L 291.8125 323.75 L 291.5625 323.46875 L 291.28125 323.25 L 291.03125 323.03125 L 290.78125 322.78125 L 290.5625 322.5 L 290.3125 322.25 L 290.09375 322 L 289.84375 321.71875 L 289.65625 321.46875 L 289.4375 321.1875 L 289.21875 320.90625 L 289 320.625 L 288.8125 320.34375 L 288.59375 320.0625 L 288.40625 319.78125 L 288.21875 319.5 L 288.0625 319.1875 L 287.875 318.90625 L 287.6875 318.5625 L 287.53125 318.28125 L 287.375 317.96875 L 287.21875 317.65625 L 287.0625 317.34375 L 286.90625 317.03125 L 286.78125 316.71875 L 286.65625 316.375 L 286.53125 316.0625 L 286.40625 315.75 L 286.28125 315.40625 L 286.1875 315.09375 L 286.0625 314.75 L 285.96875 314.40625 L 285.875 314.0625 L 285.78125 313.71875 L 285.71875 313.40625 L 285.65625 313.0625 L 285.5625 312.71875 L 285.5 312.375 L 285.46875 312.03125 L 285.40625 311.6875 L 285.34375 311.34375 L 285.3125 311 L 285.28125 310.65625 L 285.25 310.3125 L 285.21875 309.96875 L 285.21875 309.59375 L 285.1875 309.28125 L 285.1875 308.9375 L 285.1875 308.5625 L 285.21875 308.21875 L 285.21875 307.875 L 285.25 307.53125 L 285.28125 307.1875 L 285.3125 306.84375 L 285.34375 306.5 L 285.40625 306.125 L 285.46875 305.8125 L 285.5 305.46875 L 285.5625 305.125 L 285.65625 304.78125 L 285.71875 304.4375 L 285.78125 304.09375 L 285.875 303.78125 L 285.96875 303.4375 L 286.0625 303.09375 L 286.1875 302.75 L 286.28125 302.4375 L 286.40625 302.09375 L 286.53125 301.78125 L 286.65625 301.46875 L 286.78125 301.125 L 286.90625 300.8125 L 287.0625 300.5 L 287.21875 300.1875 L 287.375 299.875 L 287.53125 299.5625 L 287.6875 299.25 L 287.875 298.9375 L 288.0625 298.65625 L 288.21875 298.34375 L 288.40625 298.0625 L 288.59375 297.78125 L 288.8125 297.46875 L 289 297.21875 L 289.21875 296.9375 L 289.4375 296.65625 L 289.65625 296.375 L 289.84375 296.09375 L 290.09375 295.84375 L 290.3125 295.59375 L 290.5625 295.3125 L 290.78125 295.0625 L 291.03125 294.8125 L 291.28125 294.59375 L 291.5625 294.34375 L 291.8125 294.09375 L 292.0625 293.875 L 292.34375 293.65625 L 292.59375 293.4375 L 292.875 293.21875 L 293.125 293 L 293.40625 292.78125 L 293.71875 292.59375 L 293.96875 292.375 L 294.28125 292.1875 L 294.5625 292.03125 L 294.875 291.84375 L 295.15625 291.65625 L 295.46875 291.5 L 295.78125 291.3125 L 296.0625 291.15625 L 296.40625 291 L 296.71875 290.875 L 297.03125 290.71875 L 297.34375 290.5625 L 297.65625 290.4375 L 297.96875 290.3125 L 298.3125 290.1875 L 298.625 290.0625 L 298.96875 289.96875 L 299.3125 289.875 L 299.625 289.75 L 299.96875 289.6875 L 300.3125 289.5625 L 300.65625 289.5 L 301 289.4375 L 301.3125 289.34375 L 301.65625 289.28125 L 302.03125 289.21875 L 302.375 289.1875 L 302.6875 289.125 L 303.0625 289.09375 L 303.40625 289.0625 L 303.75 289.03125 L 304.09375 289.03125 L 304.4375 289 L 304.78125 289 L 305.125 288.96875 z "
   id="polygon28" />
</g>
<g
   id="LWPOLYLINE_9_">
	
		
</g>
<g
   id="LWPOLYLINE_10_"
   style="stroke:none;fill:#000000;fill-opacity:1">
	
		<path
   fill="none"
   stroke="#000000"
   stroke-width="0.7087"
   stroke-linecap="round"
   stroke-linejoin="round"
   stroke-miterlimit="10"
   d="   M310.021,646c0.126,0,0.296,0,0.296,0h0.254h0.296h0.339h0.381h0.465h0.466h0.55h0.55h0.593h0.635h0.635h0.677h0.678h0.719h0.72   h0.719h0.72h0.719h0.72h0.72h0.719h0.678h0.677h0.635h0.635h0.592h0.551h0.55h0.465h0.466h0.381h0.339h0.296h0.254   c0.169,0,0.254,0,0.254,0c0.042,0,0.042-0.254,0.042-0.254v-0.803v-1.27v-1.777v-2.201v-2.623v-3.004v-3.385v-3.682v-4.02v-4.273   v-4.529v-4.738v-4.908v-5.121v-5.246v-5.373v-5.416v-5.502v-5.5v-5.543v-5.502v-5.416v-5.373v-5.248v-5.076v-4.951v-4.74v-4.527   v-4.273v-4.02v-3.682v-3.385v-3.004v-2.623v-2.201v-1.734v-1.312v-0.803v-0.254c-0.127,0-0.296,0-0.296,0h-0.212h-0.296h-0.339   h-0.338h-0.424h-0.465h-0.508h-0.55h-0.551h-0.635h-0.592h-0.635h-0.677h-0.678h-0.677h-0.677h-0.72h-0.677h-0.677h-0.678h-0.677   h-0.677h-0.635h-0.635h-0.593h-0.55h-0.55h-0.508h-0.466h-0.423h-0.381h-0.296h-0.297h-0.211c-0.17,0-0.254,0-0.254,0   c-0.043,0-0.635,0.549-0.635,0.549l-0.635,0.508l-0.635,0.594l-0.677,0.549l-0.678,0.551l-0.719,0.549l-0.677,0.594l-0.741,0.592   l-0.762,0.551l-0.762,0.592l-0.782,0.592l-0.783,0.594l-0.825,0.592l-0.825,0.592l-0.825,0.594l-0.867,0.592l-0.846,0.592   l-0.889,0.635l-0.889,0.592l-0.91,0.594l-0.909,0.592l-0.932,0.635l-0.931,0.592l-0.952,0.594l-0.952,0.592l-0.952,0.592   l-0.973,0.594l-0.994,0.592l-0.995,0.592l-0.994,0.592l-1.016,0.594l-1.016,0.592l-1.016,0.551l-1.015,0.592l-1.037,0.551   l-1.037,0.592l-1.036,0.551l-1.058,0.549l-1.059,0.551l-1.058,0.551c0,0.127,0,0.338,0,0.338v0.254v0.295v0.381v0.467v0.465v0.551   v0.592v0.592v0.678v0.678v0.719v0.762v0.762v0.762v0.803v0.805v0.805v0.803v0.805v0.762v0.805v0.76v0.721v0.719v0.719v0.635v0.635   v0.594v0.508v0.508v0.422v0.381v0.34v0.254c0,0.168,0,0.295,0,0.295c0,0.043,0.804-0.295,0.804-0.295l0.825-0.381l0.805-0.381   l0.846-0.381l0.847-0.381l0.846-0.424l0.868-0.424l0.867-0.465l0.889-0.465l0.867-0.467l0.91-0.465l0.889-0.508l0.888-0.508   l0.91-0.508l0.91-0.551l0.909-0.506l0.91-0.551l0.909-0.551l0.91-0.549l0.909-0.594l0.91-0.549l0.91-0.594l0.889-0.592l0.909-0.592   l0.889-0.594l0.889-0.592l0.867-0.592l0.889-0.592l0.867-0.635l0.847-0.594l0.867-0.635l0.825-0.592l0.825-0.635l0.825-0.592   l0.825-0.635l0.762-0.594l0.804-0.592l0.762-0.635l0.762-0.592l0.72-0.592V646z"
   id="path34"
   style="stroke:none;fill:#000000;fill-opacity:1" />
</g>
</svg>