<?xml version="1.0" encoding="UTF-8" standalone="no"?>
<!-- Generator: Adobe Illustrator 16.0.1, SVG Export Plug-In . SVG Version: 6.00 Build 0)  -->

<svg
   xmlns:dc="http://purl.org/dc/elements/1.1/"
   xmlns:cc="http://creativecommons.org/ns#"
   xmlns:rdf="http://www.w3.org/1999/02/22-rdf-syntax-ns#"
   xmlns:svg="http://www.w3.org/2000/svg"
   xmlns="http://www.w3.org/2000/svg"
   xmlns:sodipodi="http://sodipodi.sourceforge.net/DTD/sodipodi-0.dtd"
   xmlns:inkscape="http://www.inkscape.org/namespaces/inkscape"
   version="1.0"
   id="_x31_"
   x="0px"
   y="0px"
   width="612px"
   height="792px"
   viewBox="0 0 612 792"
   enable-background="new 0 0 612 792"
   xml:space="preserve"
   inkscape:version="0.48.2 r9819"
   sodipodi:docname="7096.svg"><metadata
   id="metadata28"><rdf:RDF><cc:Work
       rdf:about=""><dc:format>image/svg+xml</dc:format><dc:type
         rdf:resource="http://purl.org/dc/dcmitype/StillImage" /></cc:Work></rdf:RDF></metadata><defs
   id="defs26" /><sodipodi:namedview
   pagecolor="#ffffff"
   bordercolor="#666666"
   borderopacity="1"
   objecttolerance="10"
   gridtolerance="10"
   guidetolerance="10"
   inkscape:pageopacity="0"
   inkscape:pageshadow="2"
   inkscape:window-width="1920"
   inkscape:window-height="1071"
   id="namedview24"
   showgrid="false"
   inkscape:zoom="2.3838384"
   inkscape:cx="386.52044"
   inkscape:cy="322.55037"
   inkscape:window-x="0"
   inkscape:window-y="0"
   inkscape:window-maximized="1"
   inkscape:current-layer="_x31_" />
<g
   id="LWPOLYLINE_6_"
   style="fill:#000000;fill-opacity:1;stroke:none"
   transform="translate(-0.83898305,-1.6779661)">
	
		<path
   style="fill:#000000;fill-opacity:1;stroke:none"
   d="M 262.96875 321.28125 L 231.03125 353.21875 L 310.9375 433.125 L 358.875 449.125 L 342.90625 401.1875 L 262.96875 321.28125 z M 255.96875 330.78125 L 335.875 410.71875 L 343.5625 435 L 319.90625 426.6875 L 279.65625 386.40625 L 240 346.78125 L 255.96875 330.78125 z "
   transform="translate(0.83898305,1.6779661)"
   id="polyline22" />
</g><g
   id="LWPOLYLINE"
   style="stroke:none;fill:#000000;fill-opacity:1">
	
		<path
   style="fill:#000000;stroke:none;stroke-width:0.70870000000000000;stroke-linecap:round;stroke-linejoin:round;stroke-miterlimit:10;fill-opacity:1"
   d="M 466.03125 374.8125 L 391.3125 449.53125 L 471.21875 529.40625 L 471.21875 529.4375 L 486.84375 577.9375 L 439.28125 561.375 L 439.25 561.34375 L 359.34375 481.5 L 285.21875 555.59375 L 285.21875 646 L 556.4375 646 L 556.4375 374.8125 L 466.03125 374.8125 z "
   id="polygon4" />
</g><g
   id="LWPOLYLINE_5_"
   style="stroke:none;fill:#000000;fill-opacity:1">
	
		<path
   style="fill:#000000;stroke:none;stroke-width:0.70870000000000000;stroke-linecap:round;stroke-linejoin:round;stroke-miterlimit:10;fill-opacity:1"
   d="M 151.46875 146 L 103.5 193.9375 L 55.5625 241.90625 L 183.4375 369.75 L 215.40625 369.75 L 279.3125 305.8125 L 279.3125 273.875 L 151.46875 146 z M 151 164.53125 L 269.90625 283.4375 L 269.28125 299.4375 L 207.90625 360.8125 L 192.5625 360.8125 L 73.65625 241.90625 L 112 203.53125 L 151 164.53125 z "
   id="polygon19" />
</g>
<g
   id="LWPOLYLINE_1_">
	
		
</g>
<g
   id="LWPOLYLINE_2_">
	
		
</g>
<g
   id="LWPOLYLINE_3_">
	
		
</g>
<g
   id="LWPOLYLINE_4_">
	
		
</g>


</svg>