<?xml version="1.0" encoding="UTF-8" standalone="no"?>
<!-- Generator: Adobe Illustrator 16.0.1, SVG Export Plug-In . SVG Version: 6.00 Build 0)  -->

<svg
   xmlns:dc="http://purl.org/dc/elements/1.1/"
   xmlns:cc="http://creativecommons.org/ns#"
   xmlns:rdf="http://www.w3.org/1999/02/22-rdf-syntax-ns#"
   xmlns:svg="http://www.w3.org/2000/svg"
   xmlns="http://www.w3.org/2000/svg"
   xmlns:sodipodi="http://sodipodi.sourceforge.net/DTD/sodipodi-0.dtd"
   xmlns:inkscape="http://www.inkscape.org/namespaces/inkscape"
   version="1.0"
   id="_x31_"
   x="0px"
   y="0px"
   width="612px"
   height="792px"
   viewBox="0 0 612 792"
   enable-background="new 0 0 612 792"
   xml:space="preserve"
   inkscape:version="0.48.2 r9819"
   sodipodi:docname="7099.svg"><metadata
   id="metadata13"><rdf:RDF><cc:Work
       rdf:about=""><dc:format>image/svg+xml</dc:format><dc:type
         rdf:resource="http://purl.org/dc/dcmitype/StillImage" /></cc:Work></rdf:RDF></metadata><defs
   id="defs11" /><sodipodi:namedview
   pagecolor="#ffffff"
   bordercolor="#666666"
   borderopacity="1"
   objecttolerance="10"
   gridtolerance="10"
   guidetolerance="10"
   inkscape:pageopacity="0"
   inkscape:pageshadow="2"
   inkscape:window-width="1920"
   inkscape:window-height="1071"
   id="namedview9"
   showgrid="false"
   inkscape:zoom="0.2979798"
   inkscape:cx="-432.30508"
   inkscape:cy="396"
   inkscape:window-x="0"
   inkscape:window-y="0"
   inkscape:window-maximized="1"
   inkscape:current-layer="_x31_" />
<g
   id="LWPOLYLINE"
   style="stroke:none;fill:#000000;fill-opacity:1">
	
		<path
   fill="none"
   stroke="#000000"
   stroke-width="0.7087"
   stroke-linecap="round"
   stroke-linejoin="round"
   stroke-miterlimit="10"
   d="   M177.293,321.053l2.561-2.869l2.562-2.803l2.562-2.78l2.583-2.716l2.562-2.65l2.583-2.626l2.606-2.562l2.606-2.519l2.605-2.452   l2.606-2.41l2.627-2.364l2.65-2.32l2.65-2.256l2.67-2.211l2.672-2.169l2.694-2.102l2.692-2.058l2.716-2.014l2.737-1.972   l2.759-1.905l2.758-1.861l2.781-1.795l2.803-1.751l2.824-1.708l2.847-1.664l2.847-1.598l2.891-1.555l2.891-1.511l2.933-1.467   l2.956-1.401l2.957-1.358l3-1.292l3.021-1.247l3.044-1.205l3.087-1.161l3.086-1.094l3.131-1.051l3.153-1.008l3.197-0.941   l3.197-0.898l3.109-0.787l3.109-0.724l3.153-0.7l3.153-0.614l3.153-0.591l3.197-0.525l3.197-0.483l3.24-0.438l3.24-0.372   l3.241-0.328l3.284-0.263l3.284-0.242l3.284-0.175l3.328-0.131l3.328-0.066l3.372-0.021l3.372,0.021l3.373,0.066l3.416,0.131   l3.416,0.175l3.459,0.242l3.416,0.263l3.503,0.328l3.459,0.372l3.549,0.438l3.503,0.483l3.547,0.525l3.547,0.591l3.591,0.614   l3.592,0.7l3.591,0.724l3.635,0.787l3.634,0.833l3.636,0.875l3.679,0.942l3.722,0.984l3.678,1.029l3.724,1.074l3.766,1.137   l3.766,1.183c-0.044,0.087-0.131,0.284-0.131,0.284l-0.132,0.352l-0.219,0.481l-0.219,0.59l-0.306,0.702l-0.307,0.81l-0.396,0.898   l-0.394,0.984l-0.438,1.073l-0.481,1.139l-0.482,1.225l-0.525,1.27l-0.524,1.314l-0.57,1.379l-0.569,1.402l-0.612,1.423   l-0.57,1.467l-0.612,1.465l-0.614,1.467l-0.612,1.489l-0.568,1.467l-0.614,1.467l-0.569,1.423l-0.568,1.402l-0.57,1.379   l-0.568,1.314l-0.481,1.269l-0.526,1.227l-0.438,1.139l-0.438,1.072l-0.439,0.986l-0.35,0.898l-0.351,0.81l-0.263,0.702   l-0.262,0.59l-0.176,0.481l-0.131,0.35c-0.089,0.198-0.133,0.286-0.133,0.286h0.264h0.788h1.227h1.708h2.145h2.541h2.891h3.284   h3.547h3.897h4.117h4.379h4.598h4.773h4.948h5.081h5.167h5.299h5.298h5.344h5.343h5.342h5.257h5.167h5.079h4.949h4.773h4.598h4.379   h4.117h3.896h3.592h3.241h2.889h2.541h2.146h1.707h1.271h0.745h0.263c-0.175-0.198-0.745-0.723-0.745-0.723l-0.919-0.854   l-1.227-1.161l-1.532-1.467l-1.84-1.751l-2.102-1.992l-2.365-2.234l-2.583-2.452l-2.803-2.65l-2.979-2.847l-3.153-3l-3.328-3.151   l-3.459-3.263l-3.591-3.395l-3.68-3.481l-3.722-3.547l-3.81-3.612l-3.854-3.634l-3.854-3.68l-3.898-3.656l-3.809-3.656l-3.81-3.591   l-3.768-3.548l-3.678-3.481l-3.547-3.394l-3.46-3.285l-3.328-3.153l-3.196-3l-2.979-2.825l-2.803-2.67l-2.583-2.453l-2.365-2.232   l-2.102-1.992l-1.84-1.73l-1.532-1.467l-1.227-1.161l-0.921-0.876l-0.568-0.525c-0.219-0.109-0.263,0.088-0.263,0.088l-0.175,0.35   l-0.175,0.439l-0.221,0.568l-0.263,0.656l-0.306,0.789l-0.351,0.854l-0.394,0.942l-0.396,1.03l-0.438,1.094l-0.48,1.161   l-0.481,1.205l-0.526,1.27l-0.525,1.291l-0.568,1.357l-0.527,1.358l-0.568,1.402l-0.568,1.401l-0.57,1.401l-0.569,1.402   l-0.57,1.422l-0.568,1.379l-0.569,1.38l-0.526,1.336l-0.524,1.314l-0.525,1.249l-0.482,1.225l-0.481,1.161l-0.438,1.074   l-0.394,1.028l-0.396,0.942l-0.351,0.875l-0.306,0.767l-0.263,0.656l-0.219,0.57l-0.219,0.459l-0.133,0.328   c-0.044,0.197-0.088,0.263-0.088,0.263l-2.845-0.984l-2.804-0.964l-2.803-0.94l-2.76-0.898l-2.801-0.876l-2.76-0.832l-2.803-0.811   l-2.715-0.787l-2.759-0.746l-2.76-0.722l-2.714-0.7l-2.76-0.658l-2.715-0.634l-2.716-0.592l-2.714-0.569l-2.716-0.547l-2.716-0.504   l-2.67-0.481l-2.716-0.459l-2.716-0.416l-2.67-0.396l-2.672-0.35l-2.716-0.328l-2.671-0.307l-2.672-0.262l-2.672-0.242l-2.67-0.197   l-2.672-0.175l-2.672-0.153l-2.67-0.109l-2.672-0.088l-2.672-0.043l-2.715-0.044l-2.672,0.022l-2.672,0.022l-2.67,0.065   l-2.672,0.109l-2.672,0.109l-2.714,0.153l-2.672,0.197l-2.979,0.153l-2.935,0.22l-2.889,0.262l-2.891,0.307l-2.891,0.35   l-2.891,0.394l-2.845,0.439l-2.825,0.481l-2.825,0.525l-2.803,0.592l-2.78,0.612l-2.759,0.634l-2.759,0.702l-2.738,0.722   l-2.714,0.789l-2.694,0.788l-2.672,0.855l-2.67,0.875l-2.65,0.898l-2.626,0.94l-2.628,0.986l-2.584,1.008l-2.583,1.028   l-2.562,1.073l-2.561,1.095l-2.519,1.116l-2.519,1.139l-2.495,1.183l-2.475,1.183l-2.473,1.225l-2.453,1.248l-2.43,1.249   l-2.41,1.292l-2.386,1.312l-2.388,1.314l-2.364,1.358l-2.344,1.357l-2.32,1.38l-2.32,1.38l-2.3,1.401l-2.211,1.356l-2.19,1.379   l-2.167,1.38l-2.145,1.401l-2.125,1.423l-2.102,1.445l-2.102,1.467l-2.06,1.489l-2.058,1.489l-2.014,1.531l-2.014,1.533   l-1.994,1.555l-1.97,1.598l-1.949,1.599l-1.926,1.62l-1.905,1.642l-1.883,1.664l-1.862,1.708l-1.839,1.709l-1.839,1.729   l-1.795,1.773l-1.795,1.773l-1.773,1.817l-1.729,1.817l-1.73,1.861l-1.708,1.883l-1.688,1.928l-1.664,1.927l-1.642,1.948   l-1.621,1.992l-1.62,2.014l-1.577,2.06l-1.555,2.058l-1.553,2.102l-1.511,2.125l-1.511,2.146l-1.489,2.189l-1.467,2.212   l-1.445,2.233l-1.401,2.276l0.481,0.505l1.489,1.467l2.366,2.386l3.262,3.263l4.072,4.051l4.839,4.839l5.541,5.539l6.197,6.219   l6.832,6.809l7.378,7.38l7.883,7.905l8.342,8.342l8.759,8.758l9.109,9.109l9.414,9.415l9.678,9.679l9.875,9.853l10.03,10.028   l10.137,10.159l10.181,10.161l10.183,10.203l10.137,10.116l10.007,10.029l9.896,9.896l9.678,9.679l9.416,9.415l9.109,9.108   l8.758,8.759l8.32,8.32l7.927,7.883l7.357,7.4l6.831,6.831l6.219,6.175l5.518,5.562l4.861,4.817l4.029,4.072l3.284,3.284   l2.364,2.365l1.489,1.489l0.482,0.481c0.132-0.131,0.219-0.263,0.219-0.263c0.175-0.219,0.394-0.481,0.394-0.481l0.263-0.308   l0.307-0.35l0.306-0.351l0.396-0.438l0.351-0.482l0.438-0.481l0.438-0.524l0.482-0.57l0.481-0.569l0.481-0.568l0.526-0.614   l0.481-0.612l0.568-0.612l0.526-0.658l0.525-0.656l0.524-0.614l0.57-0.656l0.525-0.612l0.525-0.614l0.482-0.612l0.525-0.57   l0.48-0.612l0.439-0.525l0.438-0.526l0.438-0.481l0.394-0.481l0.352-0.438l0.307-0.352l0.306-0.35l0.263-0.307l0.219-0.262   c0.175-0.219,0.263-0.351,0.263-0.351c0.131-0.133-0.35-0.614-0.35-0.614l-1.402-1.401l-2.232-2.232l-3.109-3.109l-3.854-3.854   l-4.555-4.555l-5.256-5.256l-5.867-5.867l-6.481-6.481l-7.008-6.964l-7.443-7.487l-7.927-7.927l-8.276-8.276l-8.628-8.629   l-8.934-8.933l-9.152-9.153l-9.372-9.371l-9.502-9.502l-9.591-9.591L306,449.76l-9.635-9.635l-9.612-9.591l-9.503-9.503   l-9.35-9.372l-9.153-9.153l-8.933-8.933l-8.628-8.628l-8.298-8.276l-7.905-7.927l-7.465-7.466l-6.986-6.986l-6.459-6.459   l-5.889-5.889l-5.255-5.255l-4.576-4.577l-3.855-3.833l-3.065-3.088l-2.255-2.254l-1.401-1.402L177.293,321.053z"
   id="path4"
   style="stroke:none;fill:#000000;fill-opacity:1" />
</g>
<g
   id="LWPOLYLINE_1_"
   style="stroke:none;fill:#000000;fill-opacity:1">
	
		<path
   fill="none"
   stroke="#000000"
   stroke-width="0.7087"
   stroke-linecap="round"
   stroke-linejoin="round"
   stroke-miterlimit="10"
   d="   M434.704,469.947l-2.582,2.847l-2.541,2.847l-2.583,2.758l-2.54,2.716l-2.585,2.672l-2.583,2.583l-2.584,2.584l-2.627,2.495   l-2.584,2.497l-2.628,2.409l-2.627,2.364l-2.672,2.276l-2.626,2.278l-2.672,2.232l-2.672,2.147l-2.671,2.102l-2.716,2.058   l-2.715,2.014l-2.76,1.973l-2.714,1.883l-2.804,1.883l-2.759,1.795l-2.802,1.752l-2.803,1.707l-2.848,1.664l-2.891,1.621   l-2.845,1.532l-2.935,1.533l-2.935,1.445l-2.935,1.401l-2.978,1.357l-2.979,1.314l-3.021,1.225l-3.065,1.227l-3.065,1.14   l-3.109,1.094l-3.109,1.052l-3.153,1.008l-3.196,0.962l-3.197,0.877l-3.109,0.787l-3.109,0.745l-3.153,0.656l-3.153,0.658   l-3.152,0.568l-3.197,0.525l-3.197,0.482l-3.219,0.438l-3.241,0.351l-3.263,0.35l-3.262,0.263l-3.285,0.221l-3.306,0.175   l-3.328,0.131l-3.328,0.088l-3.372,0.044l-3.372-0.044l-3.372-0.088l-3.416-0.131l-3.417-0.175l-3.438-0.221l-3.459-0.263   l-3.481-0.35l-3.481-0.351l-3.503-0.438l-3.525-0.482l-3.548-0.525l-3.547-0.568l-3.569-0.658l-3.59-0.656l-3.614-0.745   l-3.612-0.787l-3.656-0.833l-3.656-0.875l-3.68-0.92l-3.678-1.007l-3.7-1.008l-3.745-1.095l-3.744-1.138l-3.744-1.183   c0.022-0.088,0.109-0.307,0.109-0.307l0.153-0.352l0.197-0.438l0.241-0.612l0.284-0.702l0.33-0.787l0.372-0.92l0.394-0.963   l0.438-1.096l0.482-1.139l0.481-1.225l0.525-1.271l0.548-1.314l0.547-1.357l0.569-1.401l0.592-1.445l0.591-1.445l0.612-1.488   l0.614-1.488l0.59-1.445l0.614-1.489l0.59-1.445l0.591-1.445l0.57-1.401l0.547-1.358l0.547-1.357l0.526-1.269l0.503-1.184   l0.459-1.139l0.439-1.094l0.416-1.008l0.35-0.877l0.328-0.831l0.284-0.701l0.264-0.569l0.175-0.48l0.153-0.351   c0.087-0.22,0.109-0.264,0.109-0.264h-0.263h-0.767h-1.249h-1.708h-2.146h-2.541h-2.889h-3.262h-3.592h-3.853h-4.139h-4.4h-4.577   h-4.795h-4.927h-5.08h-5.189h-5.256h-5.32h-5.342h-5.344h-5.32h-5.254h-5.189h-5.082H99.08h-4.773h-4.597H85.33H81.19h-3.875   h-3.569h-3.262h-2.913h-2.541h-2.124H61.2h-1.249h-0.766h-0.264c0.176,0.175,0.745,0.701,0.745,0.701l0.897,0.831l1.227,1.184   l1.555,1.488l1.839,1.708l2.103,2.015l2.342,2.234l2.606,2.451l2.801,2.672l2.979,2.803l3.175,3.021l3.328,3.153l3.459,3.284   l3.57,3.374l3.678,3.459l3.744,3.591l3.811,3.591l3.831,3.634l3.875,3.68l3.854,3.679l3.854,3.634l3.811,3.591l3.744,3.549   l3.678,3.503l3.569,3.372l3.461,3.284l3.306,3.153l3.175,2.978l2.999,2.847l2.803,2.671l2.584,2.453l2.364,2.232l2.103,1.971   l1.839,1.751l1.533,1.489l1.225,1.14l0.92,0.876l0.547,0.525c0.219,0.087,0.306-0.088,0.306-0.088l0.133-0.35l0.175-0.439   l0.241-0.568l0.262-0.656l0.306-0.789l0.35-0.831l0.396-0.965l0.416-1.008l0.438-1.094l0.459-1.183l0.504-1.183l0.503-1.271   l0.525-1.312l0.548-1.357l0.547-1.358l0.569-1.401l0.57-1.401l0.569-1.401l0.569-1.401l0.57-1.4l0.568-1.401l0.549-1.358   l0.547-1.357l0.525-1.314l0.503-1.27l0.505-1.182l0.459-1.183l0.438-1.096l0.417-1.006l0.394-0.964l0.35-0.832l0.306-0.789   l0.263-0.656l0.242-0.57l0.175-0.438l0.131-0.35c0.087-0.219,0.109-0.263,0.109-0.263l2.825,1.007l2.801,0.964l2.803,0.919   l2.803,0.92l2.781,0.833l2.78,0.875l2.759,0.789l2.759,0.787l2.758,0.744l2.738,0.745l2.737,0.656l2.736,0.701l2.716,0.613   l2.715,0.613l2.716,0.569l2.714,0.524l2.716,0.527l2.694,0.48l2.692,0.438l2.694,0.395l2.694,0.395l2.67,0.351l2.694,0.35   l2.693,0.307l2.67,0.263l2.672,0.22l2.672,0.219l2.67,0.175l2.694,0.132l2.672,0.131l2.67,0.088l2.672,0.044l2.67,0.043h2.672   l2.694-0.043l2.67-0.088l2.672-0.088l2.694-0.131l2.692-0.131l2.672-0.176l2.957-0.175l2.934-0.22l2.913-0.263l2.911-0.307   l2.891-0.35l2.869-0.394l2.847-0.439l2.846-0.481l2.803-0.524l2.804-0.57l2.759-0.613l2.802-0.656l2.716-0.701l2.759-0.744   l2.715-0.745l2.672-0.831l2.715-0.833l2.671-0.875l2.628-0.92l2.628-0.921l2.627-0.962l2.584-1.008l2.585-1.05l2.582-1.052   l2.541-1.096l2.539-1.138l2.497-1.139l2.495-1.183l2.497-1.183l2.451-1.226l2.453-1.227l2.408-1.271l2.409-1.313l2.408-1.271   l2.365-1.356l2.364-1.313l2.365-1.358l2.32-1.401l2.322-1.401l2.276-1.401l2.234-1.356l2.189-1.358l2.145-1.401l2.147-1.401   l2.146-1.401l2.102-1.445l2.103-1.489l2.058-1.445l2.059-1.533l2.014-1.487l2.016-1.576l1.971-1.533l1.97-1.576l1.971-1.62   l1.927-1.621l1.884-1.664l1.883-1.664l1.883-1.665l1.839-1.708l1.84-1.752l1.795-1.751l1.795-1.796l1.754-1.795l1.751-1.839   l1.752-1.883l1.708-1.883l1.664-1.885l1.664-1.927l1.664-1.97l1.62-2.015l1.576-2.016l1.577-2.014l1.576-2.102l1.533-2.058   l1.532-2.147l1.533-2.145l1.445-2.189l1.487-2.234l1.445-2.232l1.401-2.278l-0.481-0.481l-1.488-1.489l-2.364-2.364l-3.286-3.24   l-4.028-4.073l-4.86-4.861l-5.518-5.517l-6.219-6.219l-6.833-6.832l-7.356-7.357l-7.926-7.904l-8.32-8.343l-8.76-8.758   l-9.107-9.109l-9.416-9.416l-9.678-9.678l-9.897-9.875l-10.028-10.028l-10.117-10.138l-10.159-10.183l-10.203-10.181   l-10.117-10.116l-10.05-10.03l-9.875-9.875l-9.678-9.678l-9.416-9.416l-9.108-9.108l-8.759-8.759l-8.342-8.364l-7.883-7.883   l-7.379-7.378l-6.832-6.81l-6.197-6.219l-5.539-5.541l-4.839-4.839l-4.074-4.072l-3.241-3.241l-2.386-2.388l-1.489-1.467   l-0.481-0.503c-0.109,0.131-0.241,0.263-0.241,0.263c-0.177,0.219-0.396,0.459-0.396,0.459l-0.24,0.308l-0.307,0.35l-0.328,0.394   l-0.35,0.416l-0.396,0.483l-0.416,0.481l-0.438,0.525l-0.459,0.548l-0.483,0.569l-0.503,0.59L186.6,201.5l-0.526,0.612   l-0.525,0.635l-0.547,0.636l-0.527,0.634l-0.547,0.636l-0.525,0.634l-0.526,0.634l-0.525,0.614l-0.503,0.612l-0.504,0.592   l-0.481,0.569l-0.459,0.547l-0.439,0.526l-0.416,0.503l-0.394,0.459l-0.372,0.416l-0.328,0.396l-0.286,0.35l-0.262,0.306   l-0.197,0.241c-0.175,0.219-0.306,0.35-0.306,0.35c-0.109,0.133,0.372,0.614,0.372,0.614l1.401,1.38l2.255,2.276l3.065,3.066   l3.855,3.853l4.576,4.577l5.255,5.254l5.889,5.891l6.459,6.459l6.986,6.984l7.465,7.467l7.905,7.905l8.298,8.298l8.628,8.628   l8.933,8.933l9.153,9.153l9.35,9.35l9.503,9.501l9.612,9.591l9.635,9.656l9.634,9.634l9.591,9.612l9.502,9.481l9.372,9.372   l9.152,9.153l8.934,8.933l8.628,8.628l8.276,8.276l7.927,7.927l7.443,7.443l7.008,7.008l6.481,6.481l5.867,5.867l5.256,5.255   l4.555,4.555l3.854,3.854l3.109,3.109l2.232,2.233l1.402,1.401L434.704,469.947z"
   id="path7"
   style="stroke:none;fill:#000000;fill-opacity:1" />
</g>
</svg>