<?xml version="1.0" encoding="utf-8"?>
<!-- Generator: Adobe Illustrator 16.0.1, SVG Export Plug-In . SVG Version: 6.00 Build 0)  -->
<!DOCTYPE svg PUBLIC "-//W3C//DTD SVG 1.0//EN" "http://www.w3.org/TR/2001/REC-SVG-20010904/DTD/svg10.dtd">
<svg version="1.0" id="_x31_" xmlns="http://www.w3.org/2000/svg" xmlns:xlink="http://www.w3.org/1999/xlink" x="0px" y="0px"
	 width="612px" height="792px" viewBox="0 0 612 792" enable-background="new 0 0 612 792" xml:space="preserve">
<g id="LWPOLYLINE">
	
		<path fill="none" stroke="#000000" stroke-width="0.7087" stroke-linecap="round" stroke-linejoin="round" stroke-miterlimit="10" d="
		M183.321,539.65c0,0.18,0,0.312,0,0.312c0,0.178,0,0.4,0,0.4v0.223v0.312v0.268v0.312v0.355v0.357v0.4v0.4v0.4v0.447v0.4v0.445
		v0.445v0.445v0.445v0.445v0.445v0.402v0.445v0.4v0.4v0.402v0.355v0.312v0.355v0.268v0.268v0.268c0,0.223,0,0.4,0,0.4
		c0,0.135,0,0.223,0,0.223c0.2,0.09,0.445,0.09,0.445,0.09h0.334h0.401h0.49h0.557h0.624h0.69h0.734h0.803h0.846h0.869h0.936h0.936
		h0.979h1.003h1.002h1.025h1.024h1.024h1.024h1.003h1.002h0.958h0.958h0.913h0.891h0.847h0.779h0.758h0.668h0.646h0.557h0.468h0.423
		h0.334h0.223c0.201,0.178,0.201,0.668,0.201,0.668v0.846v1.113v1.426v1.648v1.916v2.139v2.361v2.584v2.717v2.896v3.029v3.117v3.297
		v3.342v3.387v3.475v3.52v3.52v3.518v3.477v3.475v3.43v3.342v3.252v3.162v3.029v2.896v2.717v2.539v2.361v2.139v1.916v1.693v1.381
		v1.158v0.801v0.535c0.223,0.178,0.378,0.178,0.378,0.178c0.224,0,0.468,0,0.468,0h0.268h0.312h0.335h0.378h0.401h0.423h0.445h0.446
		h0.489h0.49h0.49h0.49h0.513h0.512h0.513h0.512h0.513h0.49h0.49h0.468h0.468h0.445h0.423h0.401h0.356h0.356h0.312h0.268h0.245
		c0.2,0,0.378,0,0.378,0c0.223-0.178,0.223-0.713,0.223-0.713v-0.801v-1.158v-1.381v-1.693v-1.916v-2.139v-2.361v-2.539v-2.717
		v-2.896v-3.029v-3.162v-3.252V612.4v-3.43v-3.475v-3.477v-3.518v-3.52v-3.52v-3.475v-3.387v-3.342v-3.297v-3.117v-3.029v-2.896
		v-2.717v-2.584v-2.361v-2.139v-1.916v-1.648v-1.426v-1.113v-0.846v-0.49c0.179-0.178,0.424-0.178,0.424-0.178h0.312h0.401H226
		h0.534h0.602h0.668h0.713h0.779h0.803h0.846h0.892h0.913h0.958h0.957h0.98h0.98h1.002h0.98h0.979h0.98h0.958h0.958h0.913h0.891
		h0.847h0.802h0.779h0.713h0.668h0.602h0.535h0.468h0.4h0.312h0.245c0.178-0.178,0.178-0.312,0.178-0.312c0-0.178,0-0.4,0-0.4
		v-0.268v-0.268v-0.268v-0.355v-0.312v-0.355v-0.402v-0.4v-0.4v-0.445v-0.402v-0.445v-0.445v-0.445v-0.445v-0.445v-0.445v-0.4
		v-0.447v-0.4v-0.4v-0.4v-0.357v-0.355v-0.312v-0.268v-0.312v-0.223c0-0.223,0-0.4,0-0.4c0-0.133,0-0.223,0-0.223
		C250.836,539.65,183.321,539.65,183.321,539.65z"/>
</g>
<g id="LWPOLYLINE_1_">
	
		<path fill="none" stroke="#000000" stroke-width="0.7087" stroke-linecap="round" stroke-linejoin="round" stroke-miterlimit="10" d="
		M252.662,645.5c0.223,0,0.401,0,0.401,0c0.2,0,0.445,0,0.445,0h0.268h0.312h0.356h0.356h0.401h0.423h0.445h0.445h0.49h0.49h0.49
		h0.512h0.513h0.513h0.512h0.49h0.513h0.512h0.468h0.49h0.445h0.445h0.424h0.4h0.356h0.356h0.312h0.267h0.245
		c0.223,0,0.379,0,0.379,0c0.223,0,0.223-0.088,0.223-0.088c0.045-0.135,0.134-0.357,0.134-0.357l0.089-0.311l0.134-0.357
		l0.134-0.445l0.178-0.535l0.179-0.578l0.2-0.625l0.223-0.713l0.245-0.756l0.245-0.758l0.268-0.846l0.289-0.848l0.268-0.891
		l0.312-0.891l0.29-0.936l0.312-0.936l0.29-0.98l0.312-0.936l0.312-0.98l0.312-0.936l0.289-0.936l0.312-0.936l0.29-0.891l0.29-0.891
		l0.267-0.891l0.268-0.803l0.245-0.801l0.245-0.713l0.223-0.713l0.2-0.625l0.179-0.578l0.178-0.535l0.156-0.445l0.111-0.4
		l0.089-0.312c0.089-0.223,0.134-0.355,0.134-0.355c0.089-0.045,0.289-0.045,0.289-0.045h0.356h0.468h0.579h0.69h0.803h0.913h0.979
		h1.069h1.137h1.202h1.27h1.292h1.381h1.382h1.425h1.471h1.47h1.471h1.425h1.471h1.47h1.426h1.381h1.381h1.292h1.292h1.203h1.113
		h1.069h0.98h0.891h0.802h0.713h0.579h0.49h0.312c0.223,0,0.312,0,0.312,0c0.044,0.178,0.089,0.4,0.089,0.4l0.089,0.312l0.134,0.4
		l0.134,0.445l0.134,0.535l0.178,0.578l0.179,0.625l0.178,0.713l0.223,0.713l0.224,0.801l0.223,0.803l0.267,0.891l0.268,0.891
		l0.268,0.891l0.223,0.936l0.312,0.936l0.268,0.936l0.268,0.98l0.267,0.936l0.268,0.98l0.268,0.936l0.267,0.936l0.268,0.891
		l0.268,0.891l0.223,0.848l0.223,0.846l0.223,0.758l0.223,0.756l0.223,0.713l0.179,0.625l0.134,0.578l0.178,0.535l0.134,0.445
		l0.089,0.357l0.089,0.311c0.045,0.223,0.09,0.357,0.09,0.357c0.134,0.088,0.267,0.088,0.267,0.088c0.179,0,0.446,0,0.446,0h0.267
		h0.312h0.356h0.4h0.401h0.445h0.49h0.489h0.535h0.534h0.535h0.579h0.579h0.579h0.579h0.579h0.579h0.579h0.534h0.58h0.534h0.49
		h0.534h0.445h0.446h0.445h0.4h0.356h0.312h0.267h0.223c0.179,0,0.312,0,0.312,0c0.044-0.223-0.134-0.801-0.134-0.801l-0.268-0.936
		l-0.4-1.248l-0.535-1.604l-0.579-1.871l-0.713-2.139l-0.757-2.449l-0.847-2.629l-0.936-2.896l-0.98-3.074l-1.024-3.252
		l-1.069-3.385l-1.158-3.564L325.924,612l-1.203-3.787l-1.202-3.832l-1.248-3.92l-1.292-3.92l-1.247-3.965l-1.247-3.965
		l-1.292-3.965l-1.247-3.92l-1.203-3.832l-1.203-3.742l-1.158-3.697l-1.158-3.52l-1.069-3.43l-1.069-3.252l-0.979-3.074
		l-0.892-2.852l-0.846-2.674l-0.758-2.404l-0.713-2.184l-0.579-1.871l-0.534-1.604l-0.401-1.248l-0.268-0.936l-0.223-0.578
		c-0.178-0.18-0.312-0.18-0.312-0.18c-0.223,0-0.49,0-0.49,0h-0.312h-0.356h-0.356h-0.445h-0.49h-0.49h-0.534h-0.535h-0.623h-0.579
		h-0.624h-0.624h-0.623h-0.669h-0.623h-0.669h-0.668h-0.624h-0.623h-0.624h-0.579h-0.579h-0.579h-0.534h-0.49h-0.49H287.3h-0.356
		h-0.356h-0.312h-0.268c-0.223,0-0.356,0-0.356,0C285.518,539.65,252.662,645.5,252.662,645.5z"/>
</g>
<g id="LWPOLYLINE_2_">
	
		<path fill="none" stroke="#000000" stroke-width="0.7087" stroke-linecap="round" stroke-linejoin="round" stroke-miterlimit="10" d="
		M310.153,608.08c-0.044,0-0.223,0-0.223,0h-0.312h-0.401h-0.49h-0.579h-0.668h-0.757h-0.803h-0.891h-0.98h-0.979h-1.069h-1.114
		h-1.113h-1.203h-1.158h-1.247h-1.203h-1.247h-1.203h-1.247h-1.203h-1.203H287.7h-1.158h-1.069h-1.068h-1.025h-0.936h-0.891h-0.824
		h-0.757h-0.669h-0.579h-0.49h-0.4h-0.29c-0.178,0-0.245,0-0.245,0c0.045-0.09,0.134-0.402,0.134-0.402l0.134-0.49l0.2-0.668
		l0.245-0.846l0.29-0.98l0.334-1.158l0.379-1.248l0.4-1.381l0.446-1.514l0.489-1.648l0.513-1.693l0.513-1.781l0.557-1.871
		l0.579-1.916l0.579-2.006l0.602-2.004l0.579-2.049l0.623-2.094l0.624-2.094l0.624-2.094l0.623-2.051l0.579-2.049l0.624-2.049
		l0.579-1.961l0.535-1.914l0.579-1.871l0.534-1.828l0.49-1.691l0.49-1.604l0.445-1.516l0.4-1.426l0.356-1.248l0.356-1.158
		l0.268-0.979l0.268-0.803l0.178-0.668l0.179-0.49l0.089-0.312C293.715,552.438,310.153,608.08,310.153,608.08z"/>
</g>
<g id="LWPOLYLINE_3_">
	
		<path fill="none" stroke="#000000" stroke-width="0.7087" stroke-linecap="round" stroke-linejoin="round" stroke-miterlimit="10" d="
		M363.078,595.293c0.223,0,0.356,0,0.356,0c0.223,0,0.445,0,0.445,0h0.312h0.312h0.312h0.401h0.4h0.401h0.445h0.445h0.49h0.49h0.49
		h0.489h0.535h0.49h0.534h0.49h0.534h0.49h0.49h0.445h0.49h0.445h0.401h0.4h0.356h0.356h0.312h0.268h0.268c0.178,0,0.356,0,0.356,0
		c0.223,0,1.247,0,1.247,0l0.98,0.045l1.024,0.045l0.98,0.045l0.936,0.045l0.936,0.088l0.936,0.135l0.891,0.133l0.891,0.133
		l0.892,0.18l0.846,0.178l0.803,0.223l0.846,0.223l0.758,0.268l0.757,0.268l0.758,0.355l0.713,0.312l0.713,0.4l0.668,0.357
		l0.624,0.445l0.623,0.445l0.624,0.533l0.534,0.49l0.535,0.58l0.534,0.578l0.49,0.625l0.445,0.668l0.401,0.713l0.4,0.713
		l0.356,0.801l0.356,0.803l0.312,0.846l0.267,0.891l0.223,0.936l0.179,0.98l0.178,1.07l0.134,1.068l0.089,1.07l0.045,1.201v1.203
		v0.535v0.578l-0.045,0.58l-0.089,0.58l-0.089,0.578l-0.089,0.623l-0.134,0.58l-0.134,0.623l-0.179,0.625l-0.178,0.623l-0.178,0.623
		l-0.268,0.58l-0.223,0.623l-0.268,0.623l-0.312,0.58l-0.356,0.623l-0.312,0.58l-0.4,0.578l-0.401,0.535l-0.445,0.58l-0.445,0.533
		l-0.49,0.535l-0.534,0.49l-0.535,0.49l-0.579,0.49l-0.579,0.445l-0.624,0.445l-0.668,0.4l-0.713,0.357l-0.713,0.355l-0.757,0.357
		l-0.802,0.266l-0.847,0.268l-0.847,0.268l-0.891,0.178l-0.936,0.18l-0.98,0.133l-0.979,0.09l-1.025,0.088h-1.113
		c-0.134,0-0.268,0-0.268,0c-0.223,0-0.49,0-0.49,0h-0.355h-0.356h-0.401h-0.49h-0.49h-0.534h-0.534H376.8h-0.624h-0.624h-0.668
		h-0.668h-0.669h-0.668h-0.668h-0.713h-0.668h-0.669h-0.668h-0.668h-0.624h-0.624h-0.579h-0.534h-0.534h-0.49h-0.49h-0.401h-0.356
		h-0.355h-0.268c-0.223,0-0.356,0-0.356,0C363.078,633.605,363.078,595.293,363.078,595.293z"/>
</g>
<g id="LWPOLYLINE_4_">
	
		<path fill="none" stroke="#000000" stroke-width="0.7087" stroke-linecap="round" stroke-linejoin="round" stroke-miterlimit="10" d="
		M363.078,551.502c0.134,0,0.268,0,0.268,0c0.223,0,0.49,0,0.49,0h0.355h0.356h0.401h0.49h0.49h0.534h0.534h0.579h0.624h0.624h0.668
		h0.668h0.669h0.668h0.713h0.668h0.668h0.669h0.668h0.668h0.624h0.624h0.579h0.534h0.534h0.49h0.49h0.401h0.356h0.355h0.268
		c0.223,0,0.356,0,0.356,0c0.134,0,0.98,0,0.98,0l0.757,0.045l0.802,0.088l0.713,0.09l0.758,0.088l0.713,0.18l0.668,0.133
		l0.668,0.223l0.669,0.178l0.623,0.268l0.579,0.223l0.579,0.268l0.579,0.312l0.535,0.311l0.534,0.357l0.49,0.355l0.49,0.357
		l0.445,0.4l0.445,0.4l0.445,0.402l0.401,0.445l0.356,0.445l0.356,0.445l0.356,0.49l0.312,0.49l0.312,0.49L396,559.52l0.268,0.535
		l0.223,0.535l0.223,0.535l0.178,0.578l0.179,0.535l0.178,0.578l0.134,0.58l0.09,0.578l0.089,0.625l0.089,0.578l0.045,0.625
		l0.044,0.578v0.623v0.758l-0.044,0.713l-0.045,0.758l-0.089,0.668l-0.089,0.713l-0.09,0.668l-0.134,0.668l-0.178,0.625
		l-0.134,0.623l-0.223,0.623l-0.178,0.625l-0.268,0.578l-0.223,0.58l-0.268,0.533l-0.312,0.535l-0.312,0.535l-0.312,0.49
		l-0.356,0.49l-0.356,0.445l-0.4,0.49l-0.401,0.4l-0.401,0.445l-0.445,0.4l-0.445,0.357l-0.49,0.4l-0.49,0.312l-0.534,0.355
		l-0.534,0.312l-0.535,0.268l-0.579,0.311l-0.579,0.223l-0.579,0.268l-0.624,0.223l-0.668,0.178l-0.668,0.18l-0.668,0.178
		l-0.669,0.133l-0.713,0.09l-0.713,0.133l-0.757,0.045c-0.134,0-0.312,0-0.312,0H381.7h-0.312h-0.312h-0.401h-0.445h-0.49h-0.489
		h-0.58h-0.579h-0.623h-0.624h-0.668h-0.713h-0.668h-0.713h-0.713h-0.713h-0.713h-0.713h-0.713h-0.713h-0.668h-0.668h-0.668h-0.579
		h-0.624h-0.535h-0.534h-0.49h-0.4h-0.401h-0.356h-0.268h-0.223c-0.178,0-0.267,0-0.267,0
		C363.078,584.334,363.078,551.502,363.078,551.502z"/>
</g>
<g id="LWPOLYLINE_5_">
	
		<path fill="none" stroke="#000000" stroke-width="0.7087" stroke-linecap="round" stroke-linejoin="round" stroke-miterlimit="10" d="
		M350.292,645.5c0.045,0,0.224,0,0.224,0h0.312h0.4h0.49h0.579h0.669h0.757h0.802h0.892h0.979h0.98h1.069h1.113h1.114h1.202h1.158
		h1.248h1.202h1.248h1.202h1.248h1.202h1.203h1.158h1.158h1.069h1.069h1.024h0.936h0.892h0.846h0.713h0.713h0.579h0.49h0.356h0.312
		c0.179,0,0.223,0,0.223,0l0.936-0.043h0.892l0.979-0.045l0.936-0.045l1.025-0.045l0.979-0.09l1.024-0.133l1.025-0.133l1.024-0.135
		l1.024-0.223l1.069-0.223l1.024-0.223l1.024-0.312l1.069-0.311l1.024-0.357l0.98-0.4l1.024-0.49l0.98-0.49l0.979-0.535l0.936-0.578
		l0.936-0.623l0.936-0.713l0.847-0.758l0.847-0.803l0.847-0.846l0.757-0.936l0.758-1.025l0.713-1.023l0.623-1.158l0.624-1.203
		l0.579-1.248l0.534-1.336l0.446-1.426l0.445-1.516l0.356-1.559l0.267-1.648l0.268-1.736l0.179-1.828l0.089-1.914l0.044-2.006
		l-0.044-1.113v-1.068l-0.089-1.025l-0.09-1.025l-0.089-0.979l-0.134-0.98l-0.178-0.98l-0.179-0.936l-0.223-0.891l-0.223-0.891
		l-0.268-0.893l-0.267-0.846l-0.312-0.803l-0.356-0.801l-0.355-0.803l-0.401-0.756l-0.401-0.713l-0.445-0.713l-0.49-0.713
		l-0.489-0.668l-0.535-0.625l-0.534-0.623l-0.579-0.58l-0.624-0.578l-0.624-0.535l-0.668-0.49l-0.713-0.49l-0.713-0.49l-0.757-0.445
		l-0.802-0.4l-0.802-0.4l-0.847-0.357l-0.847-0.311l-0.891-0.312l-0.936-0.312l-0.98-0.268l-0.98-0.223l-1.024-0.178l-1.024-0.178
		l-1.069-0.178l0.936-0.268l0.892-0.312l0.891-0.311l0.847-0.312l0.846-0.357l0.758-0.4l0.802-0.355l0.713-0.402l0.713-0.445
		l0.668-0.445l0.668-0.445l0.624-0.49l0.624-0.49l0.534-0.49l0.579-0.533l0.49-0.58l0.534-0.535l0.446-0.578l0.445-0.623
		l0.445-0.625l0.401-0.623l0.355-0.668l0.356-0.713l0.312-0.668l0.312-0.713l0.312-0.758l0.223-0.758l0.268-0.758l0.223-0.801
		l0.179-0.846l0.178-0.803l0.179-0.846l0.134-0.893l0.133-0.891l0.09-0.936l0.089-0.936l0.045-0.936l0.044-0.98l0.045-0.979v-1.025
		c0-0.133,0-0.312,0-0.312c-0.045-0.178-0.045-0.355-0.045-0.355c0-0.223-0.044-0.445-0.044-0.445v-0.223l-0.045-0.268l-0.045-0.268
		l-0.044-0.268l-0.045-0.312l-0.045-0.266l-0.044-0.312l-0.089-0.355l-0.045-0.312l-0.089-0.357l-0.09-0.311l-0.044-0.402
		l-0.134-0.355l-0.089-0.357l-0.089-0.4l-0.134-0.355l-0.09-0.402l-0.133-0.4l-0.134-0.4l-0.134-0.4l-0.179-0.402l-0.133-0.445
		l-0.179-0.4l-0.178-0.4l-0.179-0.445l-0.223-0.402l-0.178-0.445l-0.224-0.4l-0.223-0.445l-0.223-0.4l-0.223-0.402l-0.268-0.445
		l-0.267-0.4l-0.268-0.4l-0.268-0.49l-0.267-0.49l-0.312-0.445l-0.267-0.445l-0.312-0.447l-0.312-0.445l-0.312-0.445l-0.312-0.4
		l-0.312-0.4l-0.356-0.402l-0.356-0.4l-0.356-0.4l-0.4-0.357l-0.401-0.355l-0.401-0.357l-0.445-0.355l-0.445-0.312l-0.445-0.311
		l-0.49-0.312l-0.534-0.312l-0.49-0.268l-0.579-0.311l-0.535-0.223l-0.623-0.268l-0.579-0.223l-0.669-0.223l-0.668-0.223
		l-0.668-0.178l-0.713-0.18l-0.758-0.178l-0.757-0.133l-0.802-0.135l-0.847-0.133l-0.891-0.09l-0.892-0.088l-0.936-0.09
		l-0.979-0.045l-0.98-0.045l-1.069-0.045h-1.069c-0.044,0-0.223,0-0.223,0h-0.312h-0.356h-0.49h-0.579h-0.713h-0.713h-0.846h-0.892
		h-0.936h-1.024h-1.069h-1.069h-1.158h-1.158h-1.203h-1.202h-1.248h-1.202h-1.248h-1.202h-1.248h-1.158h-1.202h-1.114h-1.113h-1.069
		h-0.98h-0.979h-0.892h-0.802h-0.757h-0.669h-0.579h-0.49h-0.4h-0.312c-0.179,0-0.224,0-0.224,0V645.5z"/>
</g>
<g id="LWPOLYLINE_6_">
	
		<rect x="484.431" y="145.5" fill="none" stroke="#000000" stroke-width="0.7087" stroke-linecap="round" stroke-linejoin="round" stroke-miterlimit="10" width="27.354" height="138.684"/>
</g>
<g id="LWPOLYLINE_7_">
	
		<polygon fill="none" stroke="#000000" stroke-width="0.7087" stroke-linecap="round" stroke-linejoin="round" stroke-miterlimit="10" points="
		101.217,227.85 340.091,227.85 340.091,272.311 484.431,215.266 340.091,159.178 340.091,202.701 101.217,202.701 	"/>
</g>
<g id="LWPOLYLINE_8_">
	
		<rect x="101.217" y="305.166" fill="none" stroke="#000000" stroke-width="0.7087" stroke-linecap="round" stroke-linejoin="round" stroke-miterlimit="10" width="27.376" height="138.66"/>
</g>
<g id="LWPOLYLINE_9_">
	
		<polygon fill="none" stroke="#000000" stroke-width="0.7087" stroke-linecap="round" stroke-linejoin="round" stroke-miterlimit="10" points="
		511.784,387.516 272.888,387.516 272.888,431.975 128.593,374.93 272.888,318.842 272.888,362.367 511.784,362.367 	"/>
</g>
</svg>
