<?xml version="1.0" encoding="utf-8"?>
<!-- Generator: Adobe Illustrator 16.0.1, SVG Export Plug-In . SVG Version: 6.00 Build 0)  -->
<!DOCTYPE svg PUBLIC "-//W3C//DTD SVG 1.0//EN" "http://www.w3.org/TR/2001/REC-SVG-20010904/DTD/svg10.dtd">
<svg version="1.0" id="_x31_" xmlns="http://www.w3.org/2000/svg" xmlns:xlink="http://www.w3.org/1999/xlink" x="0px" y="0px"
	 width="612px" height="792px" viewBox="0 0 612 792" enable-background="new 0 0 612 792" xml:space="preserve">
<g id="LWPOLYLINE">
	
		<path fill="none" stroke="#000000" stroke-width="0.7087" stroke-linecap="round" stroke-linejoin="round" stroke-miterlimit="10" d="
		M59.404,496c0.197,0,0.453,0,0.453,0h0.369h0.426h0.512h0.596h0.652h0.738h0.795h0.852h0.881h0.938h0.965h1.021h1.021h1.08h1.049
		h1.107h1.08h1.078h1.107h1.051h1.078h1.021h1.023h0.965h0.936h0.881h0.852h0.795h0.738h0.652h0.596h0.512h0.426h0.369
		c0.256,0,0.398,0,0.398,0c0.084-0.057,0.197-0.342,0.197-0.342l0.199-0.51l0.256-0.625l0.312-0.738l0.369-0.965l0.426-1.08
		l0.482-1.191l0.51-1.307l0.568-1.418l0.625-1.477l0.625-1.646l0.682-1.646l0.709-1.762l0.709-1.816l0.768-1.873l0.738-1.932
		l0.795-1.93l0.766-1.93l0.795-1.988l0.768-1.93l0.795-1.932l0.766-1.93l0.766-1.93l0.738-1.875l0.738-1.816l0.682-1.76l0.682-1.646
		l0.652-1.646l0.596-1.477l0.568-1.42l0.539-1.305l0.455-1.25l0.426-1.021l0.396-0.965l0.312-0.738l0.229-0.682l0.197-0.455
		c0.113-0.283,0.143-0.34,0.143-0.34c0.17,0,0.682,0,0.682,0h0.822h1.137h1.42h1.674h1.902h2.158h2.385h2.555h2.725h2.896h3.037
		h3.15h3.266h3.35h3.436h3.463h3.52h3.521h3.52h3.521h3.49h3.408h3.35h3.264h3.18h3.01h2.895h2.754h2.557h2.355h2.158h1.93h1.646
		h1.42h1.135h0.824h0.51c0.199,0.057,0.312,0.34,0.312,0.34l0.199,0.455l0.256,0.682l0.312,0.738l0.369,0.965l0.426,1.021
		l0.482,1.25l0.51,1.305l0.568,1.42l0.625,1.477l0.625,1.646l0.682,1.646l0.709,1.76l0.709,1.816l0.768,1.875l0.738,1.93l0.795,1.93
		l0.766,1.932l0.795,1.93l0.766,1.988l0.795,1.93l0.768,1.93l0.766,1.932l0.738,1.873l0.738,1.816l0.682,1.762l0.682,1.646
		l0.652,1.646l0.596,1.477l0.568,1.418l0.539,1.307l0.455,1.191l0.453,1.08l0.369,0.965l0.312,0.738l0.229,0.625l0.197,0.51
		c0.113,0.285,0.143,0.342,0.143,0.342c0.227,0,0.482,0,0.482,0h0.369h0.455h0.539h0.625h0.68h0.768h0.822h0.881h0.908h0.994h0.994
		h1.049h1.08h1.107h1.105h1.137h1.135h1.137h1.105h1.137h1.078h1.08h1.049h1.023h0.965h0.936h0.881h0.824h0.736h0.711h0.625h0.539
		h0.426h0.369c0.283,0,0.426,0,0.426,0c0.057,0-0.086-0.342-0.086-0.342l-0.453-1.078l-0.711-1.76l-0.965-2.385l-1.221-3.01
		l-1.447-3.576l-1.646-4.088l-1.875-4.543l-2.043-4.996l-2.215-5.451l-2.355-5.791l-2.498-6.189l-2.613-6.416l-2.752-6.699
		L229,432.748l-2.896-7.154l-2.953-7.266l-3.008-7.383l-3.039-7.438l-3.037-7.494L211,388.52l-3.037-7.467l-2.98-7.381l-2.98-7.268
		l-2.896-7.098l-2.811-6.955l-2.725-6.699l-2.641-6.445l-2.498-6.131l-2.357-5.82l-2.213-5.422l-2.045-5.025l-1.846-4.57
		l-1.674-4.088l-1.449-3.549l-1.221-2.98l-0.965-2.414l-0.709-1.76l-0.455-1.078L173.357,296c-0.199,0-0.455,0-0.455,0h-0.369
		h-0.426h-0.512H171h-0.652h-0.738h-0.795h-0.852h-0.881h-0.936h-0.965h-1.023h-1.021h-1.078h-1.051H159.9h-1.078h-1.08h-1.078
		h-1.078h-1.08h-1.021h-0.994h-0.992h-0.938h-0.881h-0.852h-0.795h-0.709h-0.682h-0.596h-0.512h-0.426h-0.369
		c-0.227,0-0.396,0-0.396,0C144.287,296,59.404,496,59.404,496z"/>
</g>
<g id="LWPOLYLINE_1_">
	
		<path fill="none" stroke="#000000" stroke-width="0.7087" stroke-linecap="round" stroke-linejoin="round" stroke-miterlimit="10" d="
		M157.09,323.906c0.057,0.197,0.256,0.709,0.256,0.709l0.34,0.881l0.426,1.164l0.568,1.447l0.652,1.76l0.768,1.986l0.852,2.215
		l0.936,2.471l0.994,2.641l1.107,2.838l1.135,3.01l1.193,3.123l1.25,3.293l1.277,3.377l1.334,3.492l1.361,3.549l1.363,3.605
		l1.391,3.635l1.393,3.662l1.391,3.662l1.391,3.633l1.363,3.605l1.361,3.549l1.336,3.463l1.277,3.408l1.248,3.293l1.193,3.121
		l1.135,3.01l1.107,2.84l0.994,2.611l0.936,2.498l0.852,2.215l0.768,1.986l0.652,1.76l0.568,1.42l0.426,1.193l0.34,0.852l0.199,0.51
		c-0.086,0.229-0.482,0.229-0.482,0.229h-0.652h-0.91h-1.135h-1.334h-1.562h-1.73h-1.873h-2.074h-2.186h-2.328h-2.441h-2.525h-2.613
		h-2.695h-2.754h-2.783h-2.811h-2.838h-2.84h-2.811h-2.781h-2.754h-2.697H140h-2.527h-2.441h-2.328h-2.186h-2.043h-1.902h-1.732
		h-1.533h-1.361h-1.107h-0.908h-0.682h-0.398C118.709,421.621,157.09,323.906,157.09,323.906z"/>
</g>
<g id="LWPOLYLINE_2_">
	
		<path fill="none" stroke="#000000" stroke-width="0.7087" stroke-linecap="round" stroke-linejoin="round" stroke-miterlimit="10" d="
		M281.52,496c0.227,0,0.852,0,0.852,0h1.078h1.42h1.816h2.158h2.498h2.725h3.066h3.236h3.52h3.748h3.861h4.088h4.201h4.258h4.43
		h4.428h4.543h4.541h4.486h4.543h4.428h4.428h4.316h4.201h4.031h3.918h3.689h3.521h3.293h3.01h2.781h2.441h2.158h1.816h1.42h1.078
		h0.682c0.227-0.172,0.227-0.398,0.227-0.398v-0.283v-0.342v-0.453v-0.512v-0.51v-0.625v-0.682v-0.682v-0.795v-0.738v-0.852v-0.852
		v-0.852v-0.908v-0.908v-0.908v-0.908v-0.91v-0.908v-0.908v-0.852v-0.908v-0.852v-0.795v-0.795v-0.738v-0.738v-0.625v-0.623v-0.568
		v-0.512v-0.396v-0.398v-0.283c0-0.227,0-0.342,0-0.342c-0.17-0.057-0.682-0.057-0.682-0.057h-0.852h-1.078h-1.42h-1.646h-1.873
		h-2.158h-2.328h-2.498h-2.725h-2.84h-3.008h-3.123h-3.236h-3.293h-3.408h-3.406h-3.463h-3.52h-3.465h-3.463h-3.463h-3.35h-3.295
		h-3.236h-3.121h-3.01h-2.84h-2.725h-2.498h-2.328h-2.158h-1.873h-1.646h-1.42h-1.135h-0.795h-0.512c-0.17,0-0.17-0.283-0.17-0.283
		v-0.965v-1.533v-2.102v-2.668v-3.123v-3.576v-3.975v-4.43v-4.77v-5.109v-5.395v-5.619v-5.906v-6.074v-6.246v-6.416v-6.473v-6.529
		v-6.586v-6.586v-6.529v-6.502v-6.359v-6.273v-6.076v-5.875v-5.678v-5.395v-5.082v-4.77v-4.4v-4.031v-3.576v-3.123v-2.611v-2.102
		v-1.561v-0.938V296c-0.17,0-0.455,0-0.455,0h-0.34h-0.396h-0.512h-0.568H306.5h-0.68h-0.795h-0.795h-0.852h-0.91h-0.908h-0.965
		h-1.021h-1.021h-1.023h-1.021h-1.078h-1.023h-1.021h-1.021h-1.021h-1.023h-0.965h-0.908h-0.908h-0.852h-0.852h-0.738h-0.682h-0.625
		h-0.566h-0.512h-0.455h-0.283c-0.283,0-0.396,0-0.396,0C281.52,296,281.52,496,281.52,496z"/>
</g>
<g id="LWPOLYLINE_3_">
	
		<path fill="none" stroke="#000000" stroke-width="0.7087" stroke-linecap="round" stroke-linejoin="round" stroke-miterlimit="10" d="
		M486.146,496v-0.285v-0.965v-1.533v-2.1v-2.67v-3.123v-3.576v-3.975v-4.428v-4.77v-5.111v-5.393v-5.621v-5.906v-6.074v-6.246
		v-6.416v-6.473v-6.529v-6.586v-6.586v-6.529v-6.473v-6.389V376v-6.104v-5.877v-5.65v-5.393v-5.111v-4.77v-4.4v-4.002v-3.605v-3.123
		v-2.611v-2.102v-1.561v-0.938v-0.312c0.113,0,0.51,0,0.51,0h0.568h0.795h1.021h1.193h1.42h1.531h1.705h1.816h1.93h2.102h2.156
		h2.271h2.328h2.385h2.441h2.498h2.555h2.498h2.557h2.498h2.498h2.441h2.385h2.328h2.27h2.158h2.102h1.93h1.873h1.648h1.588h1.363
		h1.193h1.021h0.795h0.568h0.396c0.113-0.197,0.113-0.396,0.113-0.396v-0.283v-0.369v-0.455v-0.482v-0.568v-0.596v-0.682V315.9
		v-0.738v-0.795v-0.824v-0.852v-0.852v-0.879v-0.908v-0.91v-0.908v-0.936v-0.91v-0.879v-0.908v-0.852v-0.852v-0.824v-0.795v-0.738
		v-0.709v-0.682v-0.596v-0.568v-0.482v-0.455v-0.34v-0.312c0-0.199,0-0.34,0-0.34c0-0.057-0.283-0.057-0.283-0.057h-0.908h-1.42
		h-1.93h-2.441h-2.896h-3.35h-3.691h-4.088h-4.428h-4.713h-4.996h-5.281h-5.451H502.1h-5.791h-5.904h-6.018h-6.076h-6.133h-6.074
		h-6.076h-6.018h-5.904h-5.791h-5.621h-5.508h-5.225h-4.996h-4.713h-4.428h-4.088h-3.691h-3.35h-2.896h-2.441h-1.93h-1.42H391.1
		h-0.283c0,0.197,0,0.396,0,0.396v0.312v0.34v0.455v0.482v0.568v0.596v0.682v0.709v0.738v0.795v0.824v0.852v0.852v0.908v0.879v0.91
		v0.936v0.908v0.91v0.908v0.879v0.852v0.852v0.824v0.795v0.738v0.709v0.682v0.596v0.568v0.482v0.455v0.369v0.283
		c0,0.199,0,0.34,0,0.34c0.113,0.057,0.453,0.057,0.453,0.057h0.625h0.795h1.021h1.193h1.363h1.531h1.705h1.816h1.986h2.045h2.215
		h2.213h2.385h2.385h2.441h2.498h2.498h2.557h2.498h2.555h2.441h2.498h2.385h2.328h2.271h2.156h2.102h1.93h1.816h1.705h1.531h1.363
		h1.25h0.965h0.852h0.568h0.34c0.17,0,0.17,0.312,0.17,0.312v0.938v1.561v2.102v2.611v3.123v3.605v4.002v4.4v4.77v5.111v5.393v5.65
		v5.877V376v6.244v6.389v6.473v6.529v6.586v6.586v6.529v6.473v6.416v6.246v6.074v5.906v5.621v5.393v5.111v4.77v4.428v3.975v3.576
		v3.123v2.67v2.1v1.533v0.965V496H486.146z"/>
</g>
</svg>
