<?xml version="1.0" encoding="utf-8"?>
<!-- Generator: Adobe Illustrator 16.0.1, SVG Export Plug-In . SVG Version: 6.00 Build 0)  -->
<!DOCTYPE svg PUBLIC "-//W3C//DTD SVG 1.0//EN" "http://www.w3.org/TR/2001/REC-SVG-20010904/DTD/svg10.dtd">
<svg version="1.0" id="_x31_" xmlns="http://www.w3.org/2000/svg" xmlns:xlink="http://www.w3.org/1999/xlink" x="0px" y="0px"
	 width="612px" height="792px" viewBox="0 0 612 792" enable-background="new 0 0 612 792" xml:space="preserve">
<g id="LWPOLYLINE">
	
		<path fill="none" stroke="#000000" stroke-width="0.7087" stroke-linecap="round" stroke-linejoin="round" stroke-miterlimit="10" d="
		M178.474,646c0.187,0,0.33,0,0.33,0c0.186,0,0.392,0,0.392,0h0.248h0.268H180h0.33h0.33h0.371h0.371h0.412h0.392h0.434h0.433h0.434
		h0.433h0.454h0.433h0.453h0.434h0.433h0.413h0.412h0.392h0.392h0.351h0.351h0.31h0.31h0.268h0.248c0.206,0,0.371,0,0.371,0
		c0.144,0,0.247,0,0.247,0c0.082-0.082,0.082-0.33,0.082-0.33v-0.371v-0.537v-0.701v-0.783v-0.906v-1.031v-1.113v-1.238v-1.277
		v-1.361v-1.443v-1.525v-1.527v-1.607v-1.609v-1.689v-1.65v-1.691v-1.648v-1.691v-1.65v-1.607v-1.609v-1.566v-1.484v-1.443v-1.361
		v-1.32v-1.195v-1.113v-1.031v-0.906v-0.826v-0.66v-0.535v-0.412v-0.207c0.083-0.082,0.248-0.082,0.248-0.082h0.31h0.392h0.516
		h0.598h0.681h0.783h0.846h0.907h0.989h1.031h1.093h1.135h1.175h1.196h1.237h1.237h1.258h1.278h1.258h1.258h1.258h1.217h1.195h1.176
		h1.134h1.093h1.031h0.99h0.907h0.845h0.784h0.681h0.598h0.516h0.412h0.289c0.186,0,0.247,0,0.247,0c0,0.082,0,0.289,0,0.289v0.412
		v0.535v0.66v0.826v0.906v1.031v1.113v1.195v1.32v1.361v1.443v1.484v1.566v1.609v1.607v1.65v1.691v1.648v1.691v1.65v1.689v1.609
		v1.607v1.527v1.525v1.443v1.361v1.277v1.238v1.113v1.031v0.906v0.783v0.701v0.537v0.371v0.248c0.206,0.082,0.351,0.082,0.351,0.082
		c0.186,0,0.412,0,0.412,0h0.269h0.289h0.309h0.351h0.371h0.392h0.393h0.433h0.434h0.453h0.475h0.453h0.475h0.475h0.474h0.475h0.474
		h0.454h0.454h0.433h0.433h0.413h0.371h0.371h0.351h0.309h0.289h0.269h0.227c0.186,0,0.33,0,0.33,0
		c0.206-0.166,0.206-0.701,0.206-0.701v-0.867v-1.154v-1.484v-1.732v-2.02v-2.229v-2.473v-2.641v-2.846v-3.01v-3.176v-3.258v-3.424
		v-3.463v-3.547v-3.629v-3.672v-3.67v-3.67v-3.629v-3.629v-3.547v-3.506v-3.383v-3.299v-3.135v-3.01v-2.846v-2.68v-2.475v-2.227
		v-1.98v-1.773v-1.443v-1.195v-0.826v-0.535c-0.206-0.207-0.351-0.207-0.351-0.207c-0.186,0-0.412,0-0.412,0h-0.269h-0.289h-0.309
		h-0.351h-0.371h-0.371h-0.413h-0.433h-0.433h-0.454h-0.454h-0.474h-0.475h-0.474h-0.475h-0.475h-0.453h-0.475h-0.453h-0.434h-0.433
		h-0.393h-0.392h-0.371h-0.351h-0.309h-0.289h-0.269h-0.227c-0.186,0-0.33,0-0.33,0c-0.206,0.084-0.206,0.33-0.206,0.33v0.371v0.496
		v0.617v0.785v0.865v0.949v1.072v1.113v1.236v1.32v1.361v1.402v1.443v1.525v1.525v1.566v1.568v1.566v1.609v1.566v1.566v1.527v1.484
		v1.484v1.402v1.361v1.318v1.197v1.154v1.072v0.949v0.865v0.742v0.66v0.494v0.371v0.248c-0.062,0.041-0.247,0.041-0.247,0.041
		h-0.289h-0.412h-0.516h-0.598h-0.681h-0.784h-0.845h-0.907h-0.99h-1.031h-1.093h-1.134h-1.176h-1.195h-1.217h-1.258h-1.258h-1.258
		h-1.278h-1.258h-1.237h-1.237h-1.196h-1.175h-1.135h-1.093h-1.031h-0.989h-0.907h-0.846h-0.783h-0.681h-0.598h-0.516h-0.392h-0.31
		c-0.165,0-0.248,0-0.248,0c0-0.041,0-0.289,0-0.289v-0.371v-0.494v-0.66v-0.742v-0.865v-0.949v-1.072v-1.154v-1.197v-1.318v-1.361
		v-1.402v-1.484v-1.484v-1.527v-1.566v-1.566v-1.609v-1.566v-1.568v-1.566V562.9v-1.525v-1.443v-1.402v-1.361v-1.32v-1.236v-1.113
		v-1.072v-0.949v-0.865v-0.785v-0.617v-0.496v-0.371v-0.246c-0.186-0.084-0.329-0.084-0.329-0.084c-0.165,0-0.371,0-0.371,0h-0.248
		h-0.268h-0.31h-0.31h-0.351h-0.351h-0.392h-0.392h-0.412h-0.413h-0.433h-0.434h-0.453h-0.433h-0.454h-0.433h-0.434h-0.433h-0.434
		h-0.392h-0.412h-0.371h-0.371h-0.33H180h-0.289h-0.268h-0.248c-0.206,0-0.392,0-0.392,0c-0.144,0-0.247,0-0.247,0
		C178.474,548.012,178.474,646,178.474,646z"/>
</g>
<g id="LWPOLYLINE_1_">
	
		<path fill="none" stroke="#000000" stroke-width="0.7087" stroke-linecap="round" stroke-linejoin="round" stroke-miterlimit="10" d="
		M308.526,646c0-0.166,0-0.289,0-0.289c0-0.164,0-0.371,0-0.371v-0.248v-0.246v-0.248v-0.33v-0.289v-0.33v-0.371v-0.371v-0.371
		v-0.412v-0.371v-0.412v-0.412v-0.412v-0.414v-0.412v-0.412v-0.371v-0.412v-0.371v-0.371v-0.371v-0.33v-0.33v-0.289v-0.248v-0.287
		v-0.207c0-0.205,0-0.371,0-0.371c0-0.123,0-0.207,0-0.207c-0.042-0.082-0.248-0.082-0.248-0.082h-0.33h-0.453h-0.577h-0.701h-0.763
		h-0.866h-0.949h-1.03h-1.114h-1.154h-1.237h-1.258h-1.319h-1.361h-1.382h-1.401h-1.423h-1.423h-1.423h-1.402h-1.402h-1.402h-1.34
		h-1.32h-1.278h-1.217h-1.175h-1.093h-1.031h-0.969h-0.866h-0.764h-0.68h-0.578h-0.453h-0.33c-0.206,0-0.268,0-0.268,0
		c0-0.082,0-0.246,0-0.246v-0.289v-0.412v-0.496v-0.619v-0.699v-0.744v-0.865v-0.906v-0.99v-1.031v-1.113v-1.113v-1.156v-1.236
		v-1.195v-1.279V619.4v-1.279v-1.236v-1.279v-1.236v-1.238v-1.195v-1.197v-1.113v-1.072v-1.072v-0.947v-0.949v-0.824v-0.783v-0.701
		v-0.578v-0.494v-0.414v-0.287c0-0.207,0-0.248,0-0.248c0.062,0,0.247,0,0.247,0h0.31h0.412h0.516h0.618h0.701h0.784h0.865h0.949
		h1.01h1.052h1.113h1.176h1.196h1.237h1.258h1.278h1.278h1.299h1.299h1.3h1.278h1.258h1.237h1.195h1.155h1.113h1.072h1.011h0.928
		h0.866h0.804h0.701h0.619h0.515h0.413h0.31c0.186,0,0.247,0,0.247,0c0-0.207,0-0.33,0-0.33c0-0.164,0-0.371,0-0.371v-0.207V600.1
		v-0.289v-0.289v-0.33v-0.33v-0.33v-0.371v-0.412v-0.371v-0.412v-0.412v-0.371v-0.412v-0.414v-0.412v-0.412v-0.412v-0.371v-0.412
		v-0.371v-0.33v-0.33v-0.33v-0.289v-0.289v-0.246v-0.207c0-0.205,0-0.371,0-0.371c0-0.123,0-0.248,0-0.248
		c-0.062-0.082-0.247-0.082-0.247-0.082h-0.31h-0.413h-0.515h-0.619h-0.701h-0.804h-0.866h-0.928h-1.011h-1.072h-1.113h-1.155
		h-1.195h-1.237h-1.258h-1.278h-1.3h-1.299h-1.299h-1.278h-1.278h-1.258h-1.237h-1.196h-1.176h-1.113h-1.052h-1.01h-0.949h-0.865
		h-0.784h-0.701h-0.618h-0.516h-0.412h-0.31c-0.186,0-0.247,0-0.247,0c0-0.041,0-0.205,0-0.205v-0.289v-0.371v-0.453v-0.578v-0.619
		v-0.701v-0.783v-0.865v-0.908v-0.949v-1.029v-1.031v-1.072v-1.113v-1.156v-1.154v-1.154v-1.154v-1.197v-1.154v-1.154v-1.154v-1.113
		v-1.072v-1.031v-1.031v-0.949v-0.906v-0.867v-0.783v-0.701v-0.619v-0.576v-0.455v-0.371v-0.287c0-0.166,0-0.207,0-0.207
		c0.062,0,0.268,0,0.268,0h0.33h0.433h0.557h0.66h0.763h0.846h0.928h1.011h1.093h1.134h1.196h1.237h1.299h1.32h1.36h1.361h1.381
		h1.402h1.382h1.402h1.36h1.361h1.319h1.279h1.258h1.195h1.135h1.072h1.01h0.928h0.866h0.742h0.66h0.577h0.413h0.329
		c0.207,0,0.289,0,0.289,0c0-0.207,0-0.33,0-0.33c0-0.164,0-0.371,0-0.371v-0.205v-0.248v-0.289v-0.289v-0.33v-0.33v-0.33v-0.371
		v-0.412v-0.371v-0.412v-0.412v-0.371v-0.412v-0.412v-0.414v-0.412v-0.412v-0.371v-0.412v-0.371v-0.33v-0.33v-0.33v-0.289v-0.287
		v-0.248v-0.207c0-0.205,0-0.371,0-0.371c0-0.123,0-0.246,0-0.246c-0.082-0.084-0.371-0.084-0.371-0.084h-0.412h-0.578h-0.742
		h-0.866h-1.01h-1.113h-1.237h-1.32h-1.423h-1.505h-1.588h-1.629h-1.712h-1.731h-1.794h-1.794h-1.835h-1.836h-1.835h-1.835h-1.794
		h-1.794h-1.732h-1.69h-1.65h-1.587h-1.506h-1.423h-1.319h-1.237h-1.113h-0.99h-0.887h-0.722h-0.598h-0.434h-0.247
		c-0.104,0.207-0.104,0.742-0.104,0.742v0.826v1.195v1.443v1.773v1.98v2.227v2.475v2.68v2.846v3.01v3.135v3.299v3.383v3.506v3.547
		v3.629v3.629v3.67v3.67v3.672v3.629v3.547v3.463v3.424v3.258v3.176v3.01v2.846v2.641v2.473v2.229v2.02v1.732v1.484v1.154v0.867
		v0.535C258.707,646,308.526,646,308.526,646z"/>
</g>
<g id="LWPOLYLINE_2_">
	
		<path fill="none" stroke="#000000" stroke-width="0.7087" stroke-linecap="round" stroke-linejoin="round" stroke-miterlimit="10" d="
		M370.181,646c0-0.166,0-0.289,0-0.289c0-0.164,0-0.371,0-0.371v-0.248v-0.246v-0.248v-0.33v-0.289v-0.33v-0.371v-0.371v-0.371
		v-0.412v-0.371v-0.412v-0.412v-0.412v-0.414v-0.412v-0.412v-0.371v-0.412v-0.371v-0.371v-0.371v-0.33v-0.33v-0.289v-0.248v-0.287
		v-0.207c0-0.205,0-0.371,0-0.371c0-0.123,0-0.207,0-0.207c-0.041-0.082-0.247-0.082-0.247-0.082h-0.289h-0.454h-0.494h-0.66h-0.701
		h-0.825h-0.907h-0.948h-1.031h-1.072h-1.154H360.2h-1.237h-1.237h-1.319h-1.278h-1.319h-1.361h-1.319h-1.32h-1.319h-1.278h-1.278
		h-1.196h-1.196h-1.154h-1.072h-1.031h-0.99h-0.865h-0.825h-0.701h-0.66h-0.536h-0.412h-0.288c-0.207,0-0.289,0-0.289,0
		c0-0.164,0-0.617,0-0.617v-0.785v-1.031v-1.318v-1.525v-1.773v-2.021v-2.145v-2.393v-2.516v-2.68v-2.805v-2.887v-3.053v-3.092
		v-3.135v-3.217v-3.258v-3.258v-3.258v-3.258v-3.176v-3.176v-3.094v-3.01v-2.928v-2.805v-2.682v-2.516v-2.35v-2.186v-1.98v-1.773
		v-1.566v-1.32v-1.031v-0.742v-0.494c-0.165-0.166-0.33-0.166-0.33-0.166c-0.165,0-0.371,0-0.371,0h-0.247h-0.289h-0.289h-0.288
		h-0.371h-0.371h-0.371h-0.372h-0.412h-0.453h-0.413h-0.453h-0.412h-0.454h-0.454h-0.412h-0.453h-0.413h-0.453h-0.413h-0.371h-0.371
		h-0.371h-0.371h-0.288h-0.33h-0.248h-0.247h-0.206c-0.165,0-0.33,0-0.33,0c-0.165,0.207-0.165,0.742-0.165,0.742v0.826v1.195v1.443
		v1.773v1.98v2.227v2.475v2.68v2.846v3.01v3.135v3.299v3.383v3.506v3.547v3.629v3.629v3.67v3.67v3.672v3.629v3.547v3.463v3.424
		v3.258v3.176v3.01v2.846v2.641v2.473v2.229v2.02v1.732v1.484v1.154v0.867v0.535C322.919,646,370.181,646,370.181,646z"/>
</g>
<g id="LWPOLYLINE_3_">
	
		<path fill="none" stroke="#000000" stroke-width="0.7087" stroke-linecap="round" stroke-linejoin="round" stroke-miterlimit="10" d="
		M391.296,559.023c0.124,0,0.288,0,0.288,0c0.207,0,0.454,0,0.454,0h0.289h0.371h0.371h0.412h0.454h0.494h0.536h0.536h0.578h0.577
		h0.618h0.619h0.618h0.619h0.618h0.66h0.618h0.619h0.618h0.577h0.619h0.536h0.577h0.495h0.495h0.453h0.412h0.413h0.33h0.288h0.289
		c0.206,0,0.33,0,0.33,0c0.123,0,0.329,0,0.329,0h0.248h0.247l0.289,0.041l0.33,0.041l0.329,0.041l0.372,0.084l0.371,0.082
		l0.371,0.082l0.412,0.082l0.412,0.125l0.454,0.164l0.453,0.166l0.454,0.164l0.453,0.207l0.454,0.205l0.454,0.248l0.453,0.289
		l0.495,0.287l0.453,0.33l0.454,0.33l0.453,0.371l0.454,0.414l0.412,0.412l0.413,0.494l0.412,0.494l0.412,0.496l0.371,0.576
		l0.33,0.619l0.33,0.619l0.33,0.66l0.288,0.742l0.248,0.742l0.206,0.783l0.206,0.824l0.165,0.867l0.124,0.906l0.123,0.99l0.042,0.99
		l0.041,1.072l-0.041,1.113l-0.042,1.072l-0.123,0.99l-0.124,0.988l-0.206,0.908l-0.206,0.865l-0.248,0.867l-0.288,0.783
		l-0.33,0.742l-0.33,0.701l-0.371,0.701l-0.412,0.619l-0.413,0.576l-0.412,0.578l-0.454,0.494l-0.494,0.496l-0.495,0.453
		l-0.495,0.412l-0.536,0.412l-0.536,0.371l-0.536,0.33l-0.536,0.289l-0.577,0.289l-0.577,0.248l-0.536,0.246l-0.577,0.207
		l-0.578,0.205l-0.536,0.166l-0.577,0.123l-0.536,0.125l-0.536,0.123l-0.536,0.082l-0.536,0.082l-0.495,0.084l-0.494,0.041
		l-0.454,0.041l-0.495,0.041h-0.412h-0.412h-0.413c-0.082,0-0.206,0-0.206,0c-0.165,0-0.371,0-0.371,0h-0.247h-0.248h-0.329h-0.33
		h-0.371h-0.413h-0.412h-0.412h-0.454h-0.495h-0.453h-0.495h-0.495h-0.494h-0.536h-0.495h-0.495h-0.495h-0.494h-0.495h-0.454h-0.453
		h-0.454h-0.412h-0.371h-0.371h-0.33h-0.33h-0.289h-0.206c-0.206,0-0.371,0-0.371,0c-0.206,0-0.247,0-0.247,0V559.023z"/>
</g>
<g id="LWPOLYLINE_4_">
	
		<path fill="none" stroke="#000000" stroke-width="0.7087" stroke-linecap="round" stroke-linejoin="round" stroke-miterlimit="10" d="
		M391.296,646c0-0.082,0-0.33,0-0.33v-0.371v-0.494v-0.66v-0.742v-0.908v-0.99v-1.072v-1.154v-1.236v-1.361v-1.361v-1.443v-1.484
		v-1.568v-1.566v-1.566v-1.609v-1.607v-1.609v-1.607v-1.609v-1.566v-1.525v-1.484v-1.445v-1.4v-1.32v-1.238v-1.195v-1.072v-0.99
		v-0.865v-0.783v-0.619v-0.535v-0.373v-0.205c0.124-0.082,0.288-0.082,0.288-0.082c0.165,0,0.413,0,0.413,0h0.288h0.33h0.371h0.413
		h0.412h0.495h0.494h0.495h0.536h0.577h0.536h0.619h0.577h0.577h0.619h0.618h0.577h0.578h0.618h0.536h0.577h0.536h0.536h0.495h0.454
		h0.412h0.412h0.371h0.33h0.289h0.247c0.165,0,0.33,0,0.33,0c0.124,0,0.866-0.041,0.866-0.041h0.824l0.784-0.084l0.866-0.041
		l0.824-0.123l0.866-0.123l0.907-0.125l0.866-0.164l0.907-0.207l0.907-0.248l0.907-0.246l0.907-0.289l0.866-0.33l0.907-0.371
		l0.907-0.371l0.866-0.453l0.907-0.455l0.866-0.494l0.825-0.535l0.824-0.578l0.825-0.66l0.783-0.66l0.784-0.701l0.742-0.742
		l0.701-0.783l0.7-0.865l0.66-0.908l0.619-0.906l0.577-0.99l0.536-1.072l0.495-1.072l0.453-1.154l0.412-1.197l0.372-1.277
		l0.329-1.32l0.248-1.361l0.206-1.443l0.165-1.484l0.082-1.566l0.042-1.609l-0.042-1.648l-0.082-1.65l-0.124-1.525l-0.165-1.484
		l-0.247-1.445l-0.248-1.359l-0.329-1.279l-0.371-1.236l-0.413-1.197l-0.412-1.154l-0.495-1.072l-0.536-1.031l-0.536-0.947
		l-0.577-0.908l-0.619-0.906l-0.659-0.826l-0.701-0.742l-0.701-0.742l-0.742-0.701l-0.784-0.619l-0.783-0.617l-0.783-0.537
		l-0.825-0.494l-0.866-0.496l-0.866-0.453l-0.865-0.371l-0.907-0.371l-0.908-0.33l-0.948-0.289l-0.907-0.287l-0.948-0.207
		l-0.948-0.207l-0.949-0.205l-0.989-0.125l-0.949-0.123l-0.948-0.123l-0.989-0.041l-0.949-0.084h-0.948l-0.948-0.041
		c-0.206,0-0.454,0-0.454,0h-0.33h-0.412h-0.495h-0.577h-0.66h-0.701h-0.742h-0.824h-0.825h-0.907h-0.948h-0.949h-0.989h-1.031
		h-1.031h-1.03h-1.031h-1.072h-1.031h-1.031h-0.989h-0.99h-0.989h-0.907h-0.907h-0.866h-0.825h-0.742h-0.701h-0.618h-0.578h-0.494
		h-0.413h-0.329h-0.248c-0.206,0.207-0.206,0.742-0.206,0.742v0.826v1.195v1.443v1.773v1.98v2.227v2.475v2.68v2.846v3.01v3.135
		v3.299v3.383v3.506v3.547v3.629v3.629v3.67v3.67v3.672v3.629v3.547v3.463v3.424v3.258v3.176v3.01v2.846v2.641v2.473v2.229v2.02
		v1.732v1.484v1.154v0.867v0.535C379.501,646,391.296,646,391.296,646z"/>
</g>
<g id="LWPOLYLINE_5_">
	
		<path fill="none" stroke="#000000" stroke-width="0.7087" stroke-linecap="round" stroke-linejoin="round" stroke-miterlimit="10" d="
		M485.077,189.076l0.907,2.969l0.948,2.969l0.866,2.971l0.866,2.947l0.824,2.949l0.825,2.949l0.783,2.947l0.784,2.93l0.7,2.947
		l0.743,2.93l0.659,2.928l0.701,2.928l0.619,2.906l0.618,2.93l0.577,2.928l0.578,2.906l0.536,2.93l0.536,2.906l0.494,2.908
		l0.454,2.928l0.453,2.908l0.413,2.906l0.412,2.928l0.371,2.908l0.371,2.908l0.33,2.928l0.289,2.928l0.288,2.908l0.248,2.928
		l0.247,2.928l0.206,2.928l0.206,2.949l0.165,2.928l0.165,2.949l0.124,2.949l0.082,2.947l0.083,2.949l0.041,2.969l0.041,2.971v2.969
		v3.094v3.072l-0.041,3.051l-0.083,3.031l-0.082,3.012l-0.082,3.01l-0.124,2.969l-0.124,2.969l-0.124,2.949l-0.164,2.928
		l-0.207,2.93l-0.206,2.906l-0.247,2.908l-0.248,2.887l-0.247,2.887l-0.289,2.865l-0.329,2.887l-0.33,2.846l-0.371,2.867
		l-0.371,2.846l-0.413,2.846l-0.453,2.846l-0.454,2.846l-0.453,2.846l-0.536,2.846l-0.536,2.865l-0.536,2.846l-0.577,2.846
		l-0.619,2.867l-0.66,2.865l-0.659,2.846l-0.701,2.887l-0.701,2.887l-0.783,2.887l-0.743,2.928l-0.824,2.887l-0.866,2.93
		l-0.866,2.969l-0.907,2.928l-0.907,2.969c-0.206,0.125-0.247,0.125-0.247,0.125c-0.165,0.082-0.248,0.123-0.248,0.123
		c-0.165,0.082-0.247,0.123-0.247,0.123c-0.165,0.084-0.248,0.125-0.248,0.125c-0.164,0.082-0.247,0.123-0.247,0.123
		c-0.165,0.082-0.206,0.123-0.206,0.123c-0.165,0.084-0.206,0.084-0.206,0.084c-0.041,0.041-4.495,1.979-4.495,1.979l-4.413,1.896
		l-4.413,1.857l-4.412,1.814l-4.413,1.732l-4.413,1.73l-4.412,1.65l-4.372,1.65l-4.412,1.566l-4.413,1.525l-4.371,1.484
		l-4.413,1.443l-4.371,1.402l-4.413,1.32l-4.371,1.32l-4.413,1.236l-4.371,1.195l-4.413,1.156l-4.413,1.113l-4.371,1.031
		l-4.413,1.031l-4.412,0.947l-4.413,0.908l-4.413,0.865l-4.412,0.783l-4.454,0.785l-4.413,0.699l-4.454,0.66l-4.454,0.578
		l-4.453,0.578l-4.454,0.494l-4.454,0.453l-4.495,0.371l-4.495,0.371l-4.496,0.289l-4.495,0.207l-4.536,0.205l-4.495,0.125
		l-4.578,0.082l-4.536,0.041l-4.495-0.041l-4.475-0.041l-4.475-0.125l-4.454-0.164l-4.454-0.248l-4.434-0.248l-4.433-0.287
		l-4.434-0.371l-4.434-0.414l-4.412-0.453l-4.413-0.494l-4.413-0.578l-4.412-0.576l-4.413-0.66l-4.434-0.701l-4.412-0.742
		l-4.413-0.783l-4.413-0.867l-4.433-0.865l-4.434-0.949l-4.434-0.99l-4.454-1.031l-4.454-1.113l-4.454-1.113l-4.475-1.195
		l-4.475-1.238l-4.495-1.277l-4.516-1.361l-4.516-1.361l-4.536-1.443l-4.558-1.484l-4.577-1.525l-4.578-1.609l-4.619-1.648
		l-4.619-1.65l-4.639-1.773l-4.682-1.773l-4.681-1.814l-4.722-1.896l-4.743-1.939c-0.206-0.205-0.227-0.246-0.227-0.246
		c-0.186-0.166-0.227-0.207-0.227-0.207c-0.206-0.205-0.227-0.248-0.227-0.248c-0.165-0.164-0.97-3.174-0.97-3.174l-0.804-3.053
		l-0.784-3.094l-0.783-3.051l-0.763-3.053l-0.742-3.051l-0.743-3.094l-0.722-3.092l-0.701-3.053l-0.68-3.094l-0.66-3.092
		l-0.66-3.072l-0.639-3.094l-0.619-3.094l-0.598-3.092l-0.577-3.094l-0.557-3.092l-0.536-3.094l-0.516-3.072l-0.516-3.094
		l-0.475-3.092l-0.453-3.094l-0.454-3.072l-0.412-3.094l-0.392-3.072l-0.371-3.072l-0.351-3.072l-0.33-3.053l-0.289-3.072
		l-0.288-3.051l-0.248-3.053l-0.227-3.031l-0.206-3.051l-0.165-3.031l-0.165-3.01l-0.124-3.031l-0.082-2.99l-0.083-3.012
		l-0.041-2.99l-0.021-2.988l0.021-3.031l0.041-2.99l0.083-2.99l0.082-2.969l0.124-2.949l0.165-2.928l0.165-2.928l0.206-2.887
		l0.227-2.889l0.248-2.865l0.288-2.867l0.289-2.846l0.33-2.824l0.351-2.824l0.371-2.805l0.392-2.805l0.412-2.805l0.454-2.783
		l0.453-2.764l0.475-2.783l0.516-2.764l0.516-2.762l0.536-2.764l0.557-2.764l0.577-2.764l0.598-2.762l0.619-2.764l0.639-2.742
		l0.66-2.764l0.66-2.764l0.68-2.783l0.701-2.764l0.722-2.783l0.743-2.783l0.742-2.805l0.763-2.805l0.783-2.805l0.784-2.824
		l0.804-2.824l0.805-2.846l4.742-2.248l4.723-2.186l4.701-2.125l4.681-2.041l4.66-1.979l4.64-1.939l4.619-1.855l4.618-1.793
		l4.578-1.732l4.578-1.67l4.557-1.609l4.557-1.547l4.537-1.484l4.516-1.422l4.516-1.361l4.516-1.32l4.475-1.236l4.496-1.197
		l4.475-1.133l4.475-1.072l4.453-1.012l4.454-0.947l4.454-0.908l4.454-0.865l4.434-0.783l4.454-0.744l4.433-0.68l4.454-0.639
		l4.434-0.578l4.434-0.516l4.454-0.475l4.433-0.412l4.454-0.371l4.454-0.33l4.454-0.268l4.475-0.227l4.475-0.166l4.475-0.123
		l4.475-0.062l4.495-0.02l4.536,0.02l4.578,0.062l4.495,0.123l4.536,0.166l4.495,0.227l4.496,0.268l4.495,0.33l4.495,0.371
		l4.454,0.412l4.454,0.475l4.453,0.516l4.454,0.578l4.454,0.639l4.413,0.68l4.454,0.744l4.412,0.783l4.413,0.865l4.413,0.908
		l4.412,0.947l4.413,1.012l4.371,1.072l4.413,1.133l4.413,1.197l4.371,1.236l4.413,1.32l4.371,1.361l4.413,1.422l4.371,1.484
		l4.413,1.547l4.371,1.609l4.413,1.67l4.412,1.732l4.372,1.793l4.412,1.855l4.413,1.939l4.413,1.979l4.412,2.041l4.413,2.125
		l4.413,2.186L485.077,189.076c-0.165,0.102-0.372,0.246-0.372,0.246l-0.247,0.207l-0.33,0.227l-0.412,0.289l-0.412,0.33
		l-0.536,0.371l-0.536,0.391l-0.578,0.434l-0.659,0.475l-0.66,0.494l-0.701,0.516l-0.742,0.537l-0.783,0.557l-0.784,0.576
		l-0.783,0.578l-0.825,0.598l-0.824,0.598l-0.784,0.6l-0.824,0.598l-0.825,0.598l-0.825,0.598l-0.783,0.578l-0.783,0.576
		l-0.784,0.557l-0.742,0.537l-0.701,0.516l-0.659,0.494l-0.66,0.453l-0.577,0.455l-0.536,0.391l-0.536,0.371l-0.413,0.33
		l-0.412,0.289l-0.33,0.227l-0.247,0.207c-0.206,0.123-0.33,0.227-0.33,0.227c-0.041,0.02,0.66,2.494,0.66,2.494l0.659,2.475
		l0.701,2.475l0.619,2.475l0.659,2.496l0.619,2.473l0.618,2.496l0.578,2.494l0.577,2.496l0.577,2.494l0.536,2.475l0.536,2.516
		l0.536,2.496l0.495,2.494l0.495,2.496l0.453,2.494l0.454,2.516l0.453,2.496l0.412,2.494l0.413,2.516l0.371,2.496l0.371,2.494
		l0.371,2.516l0.33,2.496l0.33,2.494l0.288,2.494l0.289,2.516l0.247,2.496l0.248,2.494l0.206,2.496l0.206,2.494l0.165,2.496
		l0.165,2.475l0.123,2.494l0.124,2.496l0.124,2.475l0.082,2.473l0.042,2.475l0.041,2.475v2.475v2.412l-0.041,2.434v2.434
		l-0.042,2.453l-0.041,2.455l-0.082,2.475l-0.042,2.475l-0.082,2.494l-0.124,2.494l-0.123,2.516l-0.124,2.496l-0.124,2.537
		l-0.165,2.516l-0.165,2.535l-0.165,2.557l-0.206,2.537l-0.247,2.557l-0.248,2.557l-0.247,2.557l-0.289,2.557l-0.288,2.578
		l-0.289,2.557l-0.33,2.578l-0.371,2.578l-0.371,2.576l-0.412,2.578l-0.412,2.578l-0.454,2.576l-0.453,2.559l-0.495,2.576
		l-0.495,2.578l-0.536,2.578l-0.577,2.557l-0.577,2.576l-0.619,2.559l-0.618,2.557l-0.66,2.557l-0.701,2.557l-0.701,2.516
		l-0.742,2.557l-4.124,1.609l-4.083,1.566l-4.124,1.566l-4.083,1.486l-4.082,1.443l-4.042,1.402l-4.083,1.359l-4.041,1.32
		l-4.042,1.279l-4.041,1.236l-4.042,1.195l-4,1.156l-4.042,1.072l-4,1.072l-4.001,1.029l-4,0.99l-4,0.908l-4.001,0.906l-3.959,0.867
		l-4,0.824l-3.959,0.742l-3.959,0.742l-3.959,0.701l-3.959,0.619l-3.96,0.619l-3.959,0.576l-3.959,0.537l-3.959,0.494l-3.918,0.412
		l-3.959,0.412l-3.918,0.371l-3.959,0.33l-3.918,0.289l-3.918,0.248l-3.959,0.205l-3.918,0.207l-3.918,0.123l-3.959,0.084
		l-3.917,0.082h-3.918h-3.938l-3.959-0.082l-3.96-0.084l-4-0.123l-3.979-0.207l-4.021-0.205l-4.021-0.248l-4.042-0.289l-4.041-0.33
		l-4.042-0.371l-4.041-0.412l-4.062-0.412l-4.062-0.494l-4.062-0.537l-4.062-0.576l-4.062-0.619l-4.062-0.619l-4.042-0.701
		l-4.062-0.742l-4.041-0.742l-4.021-0.824l-4.021-0.867l-4.021-0.906l-4-0.908l-4-0.99l-3.959-1.029l-3.959-1.072l-3.938-1.072
		l-3.938-1.156l-3.897-1.195l-3.877-1.236l-3.855-1.279l-3.836-1.32l-3.814-1.359l-3.773-1.402l-3.753-1.443l-3.732-1.486
		l-3.691-1.566l-3.67-1.566l-3.629-1.609c0,0.207,0,0.248,0,0.248c0,0.164,0,0.205,0,0.205c0,0.207,0,0.207,0,0.207
		c0,0.166-0.619-2.434-0.619-2.434l-0.618-2.598l-0.599-2.598l-0.598-2.641l-0.557-2.617l-0.577-2.619l-0.557-2.619l-0.536-2.639
		l-0.516-2.641l-0.516-2.639l-0.495-2.619l-0.495-2.639l-0.474-2.641l-0.454-2.639l-0.453-2.639l-0.434-2.641l-0.433-2.639
		l-0.413-2.641l-0.392-2.639l-0.392-2.619l-0.371-2.639l-0.371-2.619l-0.351-2.619l-0.33-2.619l-0.33-2.598l-0.309-2.619
		l-0.289-2.598l-0.289-2.578l-0.268-2.598l-0.269-2.578l-0.247-2.557l-0.227-2.557l-0.228-2.557l-0.206-2.537l-0.186-2.535
		l-0.186-2.537l-0.186-2.516l-0.145-2.494l-0.144-2.496l-0.145-2.475l0.145-2.453l0.144-2.475l0.145-2.475l0.186-2.475l0.186-2.453
		l0.186-2.475l0.206-2.475l0.228-2.453l0.227-2.475l0.247-2.453l0.269-2.475l0.268-2.455l0.289-2.453l0.289-2.453l0.309-2.455
		l0.33-2.453l0.33-2.453l0.351-2.455l0.371-2.434l0.371-2.453l0.392-2.434l0.392-2.432l0.413-2.434l0.433-2.414l0.434-2.432
		l0.453-2.414l0.454-2.412l0.474-2.412l0.495-2.412l0.495-2.393l0.516-2.412l0.516-2.393l0.536-2.371l0.557-2.393l0.577-2.371
		l0.557-2.371l0.598-2.371l0.599-2.352l0.618-2.35l0.619-2.352l4.186-1.629l4.165-1.607l4.145-1.568l4.146-1.545l4.124-1.506
		l4.103-1.484l4.104-1.443l4.104-1.402l4.083-1.383l4.062-1.34l4.062-1.299l4.062-1.279l4.042-1.236l4.021-1.176l4.021-1.154
		l4.021-1.113l4-1.072l4.001-1.01l3.979-0.99l3.979-0.949l3.979-0.887l3.96-0.846l3.959-0.824l3.938-0.742l3.938-0.723l3.938-0.658
		l3.938-0.619l3.917-0.557l3.918-0.516l3.897-0.453l3.918-0.414l3.897-0.35l3.897-0.309l3.876-0.248l3.897-0.186l3.877-0.145
		l3.876-0.082l3.877-0.021l3.855,0.041l3.877,0.104l4-0.104l4.001-0.041h4l4,0.082l4.001,0.125l4.041,0.164l4.001,0.248l4,0.268
		l4.042,0.352l4,0.371l4,0.453l4.001,0.475l4,0.535l4,0.598l4.001,0.619l3.959,0.682l4,0.742l3.959,0.762l3.959,0.826l3.959,0.865
		l3.918,0.908l3.959,0.947l3.877,0.99l3.918,1.051l3.877,1.072l3.876,1.115l3.836,1.174l3.835,1.197l3.835,1.236l3.795,1.279
		l3.794,1.318l3.753,1.361l3.711,1.381l3.753,1.445l3.671,1.463l3.67,1.484l3.63,1.527l3.629,1.566l3.588,1.607l3.547,1.629
		c0.165-0.123,0.371-0.246,0.371-0.246l0.247-0.207l0.33-0.227l0.412-0.289l0.413-0.33l0.536-0.371l0.536-0.391l0.577-0.455
		l0.66-0.453l0.659-0.494l0.701-0.516l0.742-0.537l0.784-0.557l0.783-0.576l0.783-0.578l0.825-0.598l0.825-0.598l0.824-0.598
		l0.784-0.6l0.824-0.598l0.825-0.598l0.783-0.578l0.784-0.576l0.783-0.557l0.742-0.537l0.701-0.516l0.66-0.494l0.659-0.475
		l0.578-0.434l0.536-0.391l0.536-0.371l0.412-0.33l0.412-0.289l0.33-0.227l0.247-0.207
		C484.912,189.178,485.035,189.096,485.077,189.076z"/>
</g>
<g id="LWPOLYLINE_6_">
	
		<polygon fill="none" stroke="#000000" stroke-width="0.7087" stroke-linecap="round" stroke-linejoin="round" stroke-miterlimit="10" points="
		306.423,190.766 306.959,190.766 307.495,190.787 307.99,190.807 308.526,190.828 309.062,190.869 309.557,190.932 
		310.093,190.994 310.588,191.055 311.124,191.137 311.619,191.221 312.155,191.303 312.65,191.406 313.187,191.529 
		313.681,191.652 314.176,191.777 314.712,191.922 315.207,192.064 315.702,192.23 316.197,192.395 316.691,192.561 
		317.187,192.746 317.682,192.951 318.135,193.137 318.63,193.344 319.125,193.57 319.578,193.797 320.032,194.023 320.527,194.271 
		320.98,194.52 321.435,194.787 321.888,195.035 322.342,195.324 322.754,195.592 323.208,195.881 323.62,196.189 324.073,196.479 
		324.486,196.809 324.898,197.117 325.311,197.447 325.724,197.777 326.095,198.107 326.507,198.457 326.878,198.809 
		327.249,199.18 327.62,199.551 327.991,199.922 328.362,200.293 328.734,200.686 329.063,201.076 329.394,201.469 329.724,201.881 
		330.054,202.293 330.384,202.705 330.672,203.117 331.002,203.551 331.291,203.984 331.579,204.416 331.868,204.85 
		332.115,205.303 332.404,205.758 332.651,206.211 332.899,206.664 333.146,207.139 333.395,207.592 333.601,208.066 
		333.807,208.541 334.054,209.035 334.219,209.51 334.425,210.006 334.59,210.5 334.796,210.975 334.961,211.49 335.126,211.984 
		335.25,212.479 335.374,212.975 335.539,213.49 335.662,214.006 335.745,214.5 335.868,215.016 335.951,215.531 336.033,216.047 
		336.116,216.562 336.198,217.098 336.239,217.613 336.281,218.129 336.363,218.645 336.363,219.182 336.404,219.697 
		336.404,220.213 336.404,220.748 336.404,221.264 336.404,221.801 336.363,222.314 336.363,222.83 336.281,223.367 
		336.239,223.883 336.198,224.398 336.116,224.914 336.033,225.43 335.951,225.945 335.868,226.461 335.745,226.975 335.662,227.49 
		335.539,228.006 335.374,228.502 335.25,229.018 335.126,229.512 334.961,230.006 334.796,230.502 334.59,230.996 334.425,231.492 
		334.219,231.986 334.054,232.461 333.807,232.936 333.601,233.408 333.395,233.883 333.146,234.357 332.899,234.811 
		332.651,235.285 332.404,235.738 332.115,236.193 331.868,236.625 331.579,237.08 331.291,237.512 331.002,237.945 
		330.672,238.379 330.384,238.791 330.054,239.203 329.724,239.615 329.394,240.008 329.063,240.42 328.734,240.812 
		328.362,241.184 327.991,241.574 327.62,241.945 327.249,242.316 326.878,242.668 326.507,243.018 326.095,243.369 
		325.724,243.719 325.311,244.049 324.898,244.379 324.486,244.688 324.073,244.998 323.62,245.307 323.208,245.596 
		322.754,245.885 322.342,246.174 321.888,246.441 321.435,246.709 320.98,246.977 320.527,247.225 320.032,247.451 
		319.578,247.699 319.125,247.926 318.63,248.133 318.135,248.338 317.682,248.545 317.187,248.73 316.691,248.916 316.197,249.102 
		315.702,249.266 315.207,249.41 314.712,249.576 314.176,249.699 313.681,249.844 313.187,249.967 312.65,250.07 312.155,250.174 
		311.619,250.277 311.124,250.359 310.588,250.441 310.093,250.504 309.557,250.564 309.062,250.605 308.526,250.648 
		307.99,250.689 307.495,250.709 306.959,250.73 306.423,250.73 305.907,250.73 305.392,250.709 304.855,250.689 304.34,250.648 
		303.824,250.605 303.288,250.564 302.773,250.504 302.258,250.441 301.742,250.359 301.227,250.277 300.711,250.174 
		300.195,250.07 299.68,249.967 299.186,249.844 298.67,249.699 298.175,249.576 297.659,249.41 297.164,249.266 296.669,249.102 
		296.175,248.916 295.68,248.73 295.205,248.545 294.711,248.338 294.236,248.133 293.762,247.926 293.288,247.699 292.813,247.451 
		292.359,247.225 291.906,246.977 291.432,246.709 290.999,246.441 290.545,246.174 290.112,245.885 289.658,245.596 
		289.226,245.307 288.813,244.998 288.38,244.688 287.968,244.379 287.556,244.049 287.163,243.719 286.751,243.369 286.38,243.018 
		285.988,242.668 285.597,242.316 285.226,241.945 284.854,241.574 284.504,241.184 284.153,240.812 283.803,240.42 
		283.473,240.008 283.122,239.615 282.812,239.203 282.482,238.791 282.174,238.379 281.864,237.945 281.575,237.512 
		281.287,237.08 280.998,236.625 280.729,236.193 280.462,235.738 280.215,235.285 279.967,234.811 279.72,234.357 279.493,233.883 
		279.266,233.408 279.039,232.936 278.833,232.461 278.627,231.986 278.441,231.492 278.256,230.996 278.091,230.502 
		277.926,230.006 277.761,229.512 277.616,229.018 277.472,228.502 277.349,228.006 277.225,227.49 277.101,226.975 
		276.998,226.461 276.895,225.945 276.812,225.43 276.75,224.914 276.668,224.398 276.605,223.883 276.564,223.367 276.523,222.83 
		276.482,222.314 276.462,221.801 276.462,221.264 276.441,220.748 276.462,220.213 276.462,219.697 276.482,219.182 
		276.523,218.645 276.564,218.129 276.605,217.613 276.668,217.098 276.75,216.562 276.812,216.047 276.895,215.531 
		276.998,215.016 277.101,214.5 277.225,214.006 277.349,213.49 277.472,212.975 277.616,212.479 277.761,211.984 277.926,211.49 
		278.091,210.975 278.256,210.5 278.441,210.006 278.627,209.51 278.833,209.035 279.039,208.541 279.266,208.066 279.493,207.592 
		279.72,207.139 279.967,206.664 280.215,206.211 280.462,205.758 280.729,205.303 280.998,204.85 281.287,204.416 281.575,203.984 
		281.864,203.551 282.174,203.117 282.482,202.705 282.812,202.293 283.122,201.881 283.473,201.469 283.803,201.076 
		284.153,200.686 284.504,200.293 284.854,199.922 285.226,199.551 285.597,199.18 285.988,198.809 286.38,198.457 286.751,198.107 
		287.163,197.777 287.556,197.447 287.968,197.117 288.38,196.809 288.813,196.479 289.226,196.189 289.658,195.881 
		290.112,195.592 290.545,195.324 290.999,195.035 291.432,194.787 291.906,194.52 292.359,194.271 292.813,194.023 
		293.288,193.797 293.762,193.57 294.236,193.344 294.711,193.137 295.205,192.951 295.68,192.746 296.175,192.561 296.669,192.395 
		297.164,192.23 297.659,192.064 298.175,191.922 298.67,191.777 299.186,191.652 299.68,191.529 300.195,191.406 300.711,191.303 
		301.227,191.221 301.742,191.137 302.258,191.055 302.773,190.994 303.288,190.932 303.824,190.869 304.34,190.828 
		304.855,190.807 305.392,190.787 305.907,190.766 	"/>
</g>
<g id="LINE">
	
		<line fill="none" stroke="#000000" stroke-width="0.7087" stroke-linecap="round" stroke-linejoin="round" stroke-miterlimit="10" x1="359.211" y1="394.721" x2="359.211" y2="408.66"/>
</g>
<g id="LINE_1_">
	
		<line fill="none" stroke="#000000" stroke-width="0.7087" stroke-linecap="round" stroke-linejoin="round" stroke-miterlimit="10" x1="359.211" y1="408.66" x2="252.811" y2="408.66"/>
</g>
<g id="LINE_2_">
	
		<line fill="none" stroke="#000000" stroke-width="0.7087" stroke-linecap="round" stroke-linejoin="round" stroke-miterlimit="10" x1="252.811" y1="408.66" x2="252.811" y2="394.721"/>
</g>
<g id="LINE_3_">
	
		<line fill="none" stroke="#000000" stroke-width="0.7087" stroke-linecap="round" stroke-linejoin="round" stroke-miterlimit="10" x1="252.811" y1="394.721" x2="281.514" y2="394.721"/>
</g>
<g id="LINE_4_">
	
		<line fill="none" stroke="#000000" stroke-width="0.7087" stroke-linecap="round" stroke-linejoin="round" stroke-miterlimit="10" x1="281.514" y1="394.721" x2="281.514" y2="276.506"/>
</g>
<g id="LINE_5_">
	
		<line fill="none" stroke="#000000" stroke-width="0.7087" stroke-linecap="round" stroke-linejoin="round" stroke-miterlimit="10" x1="281.514" y1="276.506" x2="252.811" y2="276.506"/>
</g>
<g id="LINE_6_">
	
		<line fill="none" stroke="#000000" stroke-width="0.7087" stroke-linecap="round" stroke-linejoin="round" stroke-miterlimit="10" x1="252.811" y1="276.506" x2="252.811" y2="262.545"/>
</g>
<g id="LINE_7_">
	
		<line fill="none" stroke="#000000" stroke-width="0.7087" stroke-linecap="round" stroke-linejoin="round" stroke-miterlimit="10" x1="252.811" y1="262.545" x2="331.332" y2="262.545"/>
</g>
<g id="LINE_8_">
	
		<line fill="none" stroke="#000000" stroke-width="0.7087" stroke-linecap="round" stroke-linejoin="round" stroke-miterlimit="10" x1="331.332" y1="262.545" x2="331.332" y2="394.721"/>
</g>
<g id="LINE_9_">
	
		<line fill="none" stroke="#000000" stroke-width="0.7087" stroke-linecap="round" stroke-linejoin="round" stroke-miterlimit="10" x1="331.332" y1="394.721" x2="359.211" y2="394.721"/>
</g>
</svg>
