<?xml version="1.0" encoding="utf-8"?>
<!-- Generator: Adobe Illustrator 16.0.1, SVG Export Plug-In . SVG Version: 6.00 Build 0)  -->
<!DOCTYPE svg PUBLIC "-//W3C//DTD SVG 1.0//EN" "http://www.w3.org/TR/2001/REC-SVG-20010904/DTD/svg10.dtd">
<svg version="1.0" id="_x31_" xmlns="http://www.w3.org/2000/svg" xmlns:xlink="http://www.w3.org/1999/xlink" x="0px" y="0px"
	 width="612px" height="792px" viewBox="0 0 612 792" enable-background="new 0 0 612 792" xml:space="preserve">
<g id="LWPOLYLINE">
	
		<path fill="none" stroke="#000000" stroke-width="0.7087" stroke-linecap="round" stroke-linejoin="round" stroke-miterlimit="10" d="
		M184.692,445.64l-0.019-1.399l-0.039-1.361l-0.078-1.321l-0.116-1.283l-0.156-1.244l-0.194-1.205l-0.214-1.127l-0.252-1.128
		l-0.272-1.049l-0.33-1.05l-0.351-0.972l-0.389-0.934l-0.408-0.933l-0.466-0.855l-0.486-0.855l-0.524-0.777l-0.564-0.738
		l-0.603-0.739l-0.642-0.661l-0.66-0.66l-0.7-0.622l-0.738-0.545l-0.777-0.544l-0.816-0.505l-0.855-0.467l-0.875-0.467l-0.933-0.389
		l-0.953-0.389l-1.011-0.311l-1.03-0.312l-1.068-0.272l-1.108-0.232l-1.146-0.233l-1.186-0.194l-1.225-0.156l-1.244-0.116
		l-1.303-0.078l-1.341-0.077l-1.38-0.039l-1.4-0.039l-1.419,0.039l-1.38,0.078l-1.341,0.077l-1.322,0.155l-1.263,0.195l-1.244,0.194
		l-1.186,0.271l-1.167,0.312l-1.127,0.35l-1.108,0.389l-1.05,0.389l-1.011,0.467l-0.991,0.505l-0.952,0.506l-0.914,0.583
		l-0.874,0.583l-0.855,0.661l-0.797,0.661l-0.777,0.738l-0.72,0.738l-0.699,0.778l-0.661,0.816l-0.642,0.815l-0.583,0.895
		l-0.563,0.895l-0.506,0.972l-0.485,0.972l-0.447,1.011l-0.428,1.05l-0.369,1.05l-0.331,1.088l-0.311,1.128l-0.272,1.166
		l-0.233,1.205l-0.194,1.205l-0.155,1.244l-0.136,1.283l-0.078,1.321l-0.059,1.322l-0.019,1.36c0,0.078,0,0.233,0,0.233v0.272v0.35
		v0.467v0.505v0.622v0.7v0.777v0.816v0.855v0.933v0.972v1.011v1.05v1.089v1.088v1.128v1.127v1.128v1.127v1.128v1.127v1.089v1.088
		v1.05v1.011v0.973v0.933v0.895v0.816v0.738v0.699v0.622v0.545v0.466v0.351v0.271c0,0.156,0,0.194,0,0.194l0.019,1.905l0.059,1.827
		l0.078,1.749l0.136,1.711l0.155,1.672l0.194,1.594l0.233,1.555l0.272,1.517l0.311,1.438l0.331,1.399l0.369,1.321l0.428,1.283
		l0.447,1.244l0.485,1.205l0.506,1.127l0.563,1.089l0.583,1.05l0.642,0.972l0.661,0.934l0.699,0.894l0.72,0.855l0.777,0.777
		l0.797,0.738l0.855,0.7l0.874,0.661l0.914,0.622l0.952,0.544l0.991,0.544l1.011,0.467l1.05,0.428l1.108,0.389l1.127,0.35
		l1.167,0.312l1.186,0.271l1.244,0.195l1.263,0.194l1.322,0.116l1.341,0.116l1.38,0.078h1.419h0.875l0.875-0.039h0.855l0.854-0.039
		l0.836-0.077l0.816-0.039l0.797-0.078l0.797-0.077l0.778-0.117l0.777-0.077l0.758-0.117l0.758-0.116l0.739-0.155l0.719-0.117
		l0.72-0.155l0.719-0.155l0.7-0.194l0.68-0.156l0.681-0.194l0.681-0.194l0.68-0.194l0.661-0.194l0.642-0.233l0.642-0.194l0.66-0.232
		l0.622-0.233l0.642-0.233l0.622-0.233l0.622-0.272l0.622-0.233l0.603-0.271l0.622-0.272l0.603-0.272l0.603-0.271l0.603-0.272
		l0.603-0.272l0.603-0.311l0.603-0.272l0.583-0.311l0.603-0.272c0-0.077,0-0.35,0-0.35v-0.389v-0.506v-0.699v-0.777v-0.895v-1.05
		v-1.088v-1.244v-1.283v-1.36v-1.438v-1.478v-1.555v-1.594v-1.633v-1.633v-1.672v-1.672v-1.672v-1.672v-1.632v-1.633v-1.556v-1.555
		v-1.517v-1.399v-1.399v-1.283v-1.205v-1.127v-1.011v-0.934v-0.777v-0.661v-0.544v-0.389v-0.233
		c-0.058-0.077-0.214-0.077-0.214-0.077h-0.232h-0.351h-0.428h-0.505h-0.603h-0.642H181h-0.778h-0.835h-0.875h-0.934h-0.952h-0.991
		h-1.03h-1.05h-1.05h-1.068h-1.069h-1.069h-1.069h-1.068h-1.03h-1.03h-0.991h-0.953h-0.933h-0.875h-0.836h-0.777h-0.719h-0.661
		h-0.583h-0.506h-0.428h-0.35h-0.253c-0.155,0-0.194,0-0.194,0c0,0.155,0,0.271,0,0.271c0,0.156,0,0.351,0,0.351v0.194v0.232v0.272
		v0.272v0.311v0.312v0.35v0.35v0.351v0.389v0.35v0.389v0.389v0.389v0.389v0.389v0.389v0.351v0.389v0.35v0.35v0.351v0.311v0.272
		v0.311v0.233v0.233v0.233c0,0.194,0,0.35,0,0.35c0,0.117,0,0.194,0,0.194c0.117,0.078,0.253,0.078,0.253,0.078h0.214h0.253h0.291
		h0.331h0.389h0.428h0.447h0.485h0.506h0.544h0.563h0.583h0.584h0.621h0.604h0.621h0.642h0.622h0.622h0.622h0.603h0.603h0.563h0.564
		h0.544h0.505h0.486h0.467h0.408h0.389h0.33h0.312h0.252h0.195c0.136,0,0.232,0,0.232,0c0.039,0.194,0.039,0.428,0.039,0.428v0.35
		v0.389v0.467v0.583v0.583v0.7v0.738v0.777v0.816v0.895v0.894v0.934v0.972v0.972v1.011v1.011v1.011v1.011v1.011v1.011v0.972v0.973
		v0.933v0.934v0.854v0.816v0.816v0.7v0.699v0.622v0.545v0.466v0.428v0.312v0.233c0,0.194-0.194,0.389-0.194,0.389
		c-0.194,0.194-0.408,0.35-0.408,0.35l-0.214,0.194l-0.233,0.155l-0.252,0.194l-0.253,0.155l-0.253,0.195l-0.292,0.155l-0.291,0.155
		l-0.292,0.194l-0.311,0.155l-0.33,0.156l-0.331,0.155l-0.33,0.155l-0.369,0.155l-0.37,0.155l-0.369,0.156l-0.389,0.116
		l-0.389,0.155l-0.408,0.117l-0.428,0.155l-0.428,0.116l-0.447,0.117l-0.446,0.116l-0.447,0.078l-0.467,0.116l-0.485,0.078
		l-0.486,0.116l-0.506,0.078l-0.505,0.078l-0.525,0.038l-0.524,0.078l-0.544,0.039l-0.545,0.039l-0.544,0.038l-0.563,0.039
		l-0.583,0.039h-0.583h-0.584h-0.835l-0.797-0.039l-0.798-0.039l-0.758-0.077l-0.738-0.117l-0.72-0.116l-0.699-0.155l-0.681-0.194
		l-0.661-0.194l-0.641-0.233l-0.603-0.272l-0.604-0.311l-0.583-0.312l-0.544-0.35l-0.544-0.389l-0.506-0.428l-0.485-0.467
		l-0.467-0.466l-0.467-0.545l-0.428-0.544l-0.408-0.622l-0.369-0.622l-0.369-0.7l-0.35-0.699l-0.331-0.777l-0.291-0.777
		l-0.292-0.855l-0.253-0.895l-0.252-0.933l-0.214-0.972l-0.194-1.011l-0.176-1.05l-0.155-1.128l-0.136-1.166l-0.117-1.205
		l-0.097-1.244l-0.078-1.321l-0.038-1.361l-0.039-1.399l-0.02-1.478c0-0.077,0-0.232,0-0.232v-0.272v-0.35v-0.467v-0.583v-0.622
		v-0.7v-0.777v-0.855v-0.894v-0.973v-0.972v-1.05v-1.088v-1.089v-1.127v-1.167v-1.166v-1.127v-1.167v-1.166v-1.166v-1.128v-1.088
		v-1.089v-1.05v-0.972v-0.972v-0.895v-0.855v-0.777v-0.699v-0.622v-0.583v-0.428v-0.389v-0.272c0-0.155,0-0.233,0-0.233l0.039-1.399
		l0.058-1.321l0.117-1.283l0.155-1.205l0.194-1.128l0.233-1.088l0.272-1.011l0.291-0.973l0.331-0.894l0.369-0.855l0.389-0.816
		l0.408-0.738l0.447-0.7l0.466-0.661l0.486-0.622l0.485-0.544l0.525-0.544l0.524-0.467l0.525-0.467l0.563-0.389l0.544-0.389
		l0.564-0.311l0.563-0.312l0.563-0.271l0.563-0.233l0.563-0.233l0.564-0.194l0.544-0.155l0.544-0.156l0.545-0.116l0.505-0.116
		l0.506-0.078l0.485-0.078l0.486-0.038l0.447-0.039l0.428-0.039h0.389l0.389-0.039h0.33h0.33h0.816l0.798,0.039l0.758,0.078
		l0.758,0.038l0.72,0.117l0.68,0.116l0.681,0.117l0.642,0.155l0.603,0.194l0.603,0.194l0.563,0.233l0.544,0.233l0.525,0.271
		l0.505,0.272l0.486,0.311l0.447,0.312l0.446,0.35l0.408,0.35l0.39,0.39l0.369,0.427l0.35,0.428l0.311,0.428l0.312,0.467
		l0.292,0.505l0.271,0.506l0.253,0.544l0.214,0.545l0.214,0.583l0.194,0.583l0.175,0.622l0.155,0.622l0.137,0.661l0.116,0.699
		l0.098,0.7l0.097,0.699l0.059,0.777l0.058,0.739l0.039,0.777l0.02,0.816l0.02,0.816H184.692z"/>
</g>
<g id="LWPOLYLINE_1_">
	
		<path fill="none" stroke="#000000" stroke-width="0.7087" stroke-linecap="round" stroke-linejoin="round" stroke-miterlimit="10" d="
		M216.552,431.333c0.116,0,0.271,0,0.271,0h0.214h0.253h0.312h0.369h0.389h0.447h0.466h0.506h0.544h0.563h0.584h0.621h0.622h0.622
		h0.661h0.642h0.661h0.66h0.642h0.661h0.622h0.642h0.603h0.583h0.563h0.545h0.505h0.467h0.447h0.408h0.35h0.311h0.253h0.214
		c0.155,0,0.253,0,0.253,0c0.039,0,0.68,0,0.68,0l0.622,0.039l0.603,0.078l0.583,0.077l0.564,0.117l0.544,0.116l0.544,0.155
		l0.506,0.194l0.485,0.194l0.467,0.233l0.447,0.233l0.428,0.272l0.408,0.272l0.408,0.311l0.369,0.311l0.369,0.312l0.331,0.35
		l0.33,0.35l0.311,0.351l0.292,0.389l0.272,0.389l0.252,0.428l0.253,0.428l0.233,0.389l0.194,0.467l0.214,0.427l0.175,0.467
		l0.175,0.428l0.137,0.467l0.136,0.466l0.136,0.467l0.098,0.506l0.097,0.466l0.098,0.467l0.059,0.506l0.058,0.466l0.039,0.506
		l0.039,0.466l0.02,0.467v0.506v0.66l-0.02,0.622l-0.039,0.661l-0.059,0.622l-0.077,0.622l-0.078,0.622l-0.097,0.622l-0.117,0.583
		l-0.116,0.583l-0.137,0.583l-0.155,0.545l-0.175,0.583l-0.194,0.544l-0.194,0.506l-0.214,0.505l-0.233,0.506l-0.253,0.505
		l-0.252,0.467l-0.292,0.467l-0.291,0.427l-0.292,0.428l-0.33,0.389l-0.331,0.389l-0.35,0.39l-0.369,0.35l-0.389,0.35l-0.389,0.312
		l-0.408,0.271l-0.428,0.312l-0.447,0.233l-0.447,0.232l-0.467,0.194l-0.485,0.195l-0.506,0.155l-0.505,0.155l-0.545,0.116
		l-0.544,0.078l-0.544,0.078l-0.583,0.038h-0.583c-0.137,0-0.292,0-0.292,0h-0.214h-0.253h-0.311h-0.35h-0.408h-0.447h-0.467h-0.505
		h-0.545h-0.563h-0.583h-0.603h-0.642h-0.622h-0.661h-0.642h-0.66h-0.661h-0.642h-0.661h-0.622h-0.622h-0.621h-0.584h-0.563h-0.544
		h-0.506h-0.466h-0.447h-0.389h-0.369h-0.312h-0.253h-0.214c-0.155,0-0.252,0-0.252,0
		C216.552,460.762,216.552,431.333,216.552,431.333z"/>
</g>
<g id="LWPOLYLINE_2_">
	
		<path fill="none" stroke="#000000" stroke-width="0.7087" stroke-linecap="round" stroke-linejoin="round" stroke-miterlimit="10" d="
		M205.395,513.322c0.175,0,0.311,0,0.311,0c0.175,0,0.369,0,0.369,0h0.233h0.253h0.272h0.311h0.311h0.351h0.35h0.389h0.389h0.389
		h0.408h0.408h0.408h0.428h0.408h0.428h0.408h0.408h0.389h0.389h0.369h0.37h0.33h0.33h0.312h0.271h0.253h0.233
		c0.194,0,0.35,0,0.35,0c0.137,0,0.233,0,0.233,0c0.098-0.078,0.098-0.312,0.098-0.312v-0.35v-0.505v-0.661v-0.738v-0.855v-0.973
		v-1.049v-1.167v-1.205v-1.282v-1.361v-1.438v-1.438v-1.516v-1.517v-1.594v-1.555v-1.594v-1.556v-1.594v-1.555v-1.517v-1.516v-1.478
		V481.6v-1.36v-1.283v-1.244v-1.127v-1.089v-0.933v-0.855v-0.777v-0.622v-0.506v-0.389v-0.194c0.097-0.078,0.214-0.078,0.214-0.078
		c0.155,0,0.35,0,0.35,0h0.253h0.271h0.312h0.33h0.369h0.408h0.408h0.428h0.467h0.467h0.485h0.486h0.505h0.506h0.505h0.506h0.505
		h0.486h0.506h0.485h0.467h0.447h0.428h0.427h0.39h0.369h0.33h0.312h0.291h0.233h0.194c0.175,0,0.292,0,0.292,0
		c0.097,0,0.408,0,0.408,0h0.311h0.35h0.351h0.369l0.369,0.039h0.389l0.408,0.039l0.408,0.039l0.408,0.039l0.428,0.077l0.428,0.039
		l0.428,0.078l0.428,0.116l0.428,0.117l0.446,0.116l0.428,0.155l0.428,0.155l0.428,0.156l0.408,0.194l0.428,0.233l0.408,0.232
		l0.389,0.272l0.389,0.312l0.389,0.311l0.369,0.311l0.351,0.39l0.33,0.389l0.33,0.428l0.312,0.466l0.291,0.467l0.272,0.505
		l0.253,0.584l0.214,0.583l0.214,0.622l0.175,0.66l0.155,0.7l0.136,0.7l0.098,0.777l0.078,0.816l0.058,0.894l0.059,0.895
		l0.039,0.895l0.039,0.894l0.038,0.895l0.039,0.894l0.039,0.895l0.02,0.895l0.039,0.854l0.02,0.895l0.02,0.855l0.038,0.854
		l0.02,0.895l0.02,0.855l0.039,0.816l0.02,0.855l0.039,0.854l0.039,0.816l0.038,0.816l0.039,0.816l0.039,0.778l0.059,0.816
		l0.058,0.777l0.059,0.777l0.078,0.738l0.077,0.777l0.078,0.739l0.097,0.699l0.098,0.739l0.116,0.699l0.117,0.661l0.136,0.7
		l0.136,0.66l0.156,0.622l0.175,0.622l0.175,0.622l0.175,0.622l0.214,0.544l0.214,0.584l0.233,0.544c0.097,0,0.194,0,0.194,0
		c0.155,0,0.35,0,0.35,0h0.233h0.253h0.291h0.331h0.33h0.369h0.408h0.408h0.428h0.428h0.467h0.447h0.485h0.467h0.486h0.466h0.486
		h0.467h0.466h0.447h0.447h0.428h0.408h0.389h0.369h0.35h0.312h0.291h0.272h0.214c0.194,0,0.35,0,0.35,0c0.175,0,0.194,0,0.194,0
		l-0.175-0.506l-0.155-0.505l-0.175-0.544l-0.155-0.584l-0.156-0.583l-0.155-0.622l-0.136-0.622l-0.137-0.66l-0.136-0.661
		l-0.116-0.7l-0.117-0.699l-0.116-0.7l-0.117-0.699l-0.097-0.739l-0.098-0.738l-0.097-0.738l-0.098-0.739l-0.077-0.738l-0.098-0.739
		l-0.078-0.699l-0.058-0.738l-0.078-0.739l-0.059-0.699l-0.058-0.7l-0.059-0.699l-0.059-0.7l-0.039-0.661l-0.038-0.622l-0.039-0.66
		l-0.039-0.584l-0.039-0.622l-0.02-0.544l-0.02-0.544l-0.038-0.506v-0.505l-0.02-0.467l-0.02-0.389v-0.428v-0.35v-0.312
		l-0.078-1.321l-0.077-1.322l-0.078-1.205l-0.116-1.205l-0.117-1.127l-0.116-1.089l-0.156-1.011l-0.155-1.011l-0.175-0.933
		l-0.175-0.895l-0.214-0.855l-0.214-0.816l-0.233-0.738l-0.253-0.738l-0.252-0.7l-0.292-0.661l-0.291-0.622l-0.312-0.583
		l-0.33-0.544l-0.351-0.544l-0.369-0.467l-0.389-0.467l-0.408-0.428l-0.428-0.428l-0.428-0.389l-0.466-0.35l-0.486-0.35
		l-0.505-0.312l-0.506-0.311l-0.544-0.312l-0.564-0.233l-0.583-0.271l-0.603-0.233l-0.642-0.233l-0.641-0.233l-0.681-0.194
		l-0.681-0.194l-0.719-0.194l-0.738-0.194l-0.778-0.155l0.778-0.155l0.758-0.156l0.738-0.155l0.72-0.233l0.699-0.233l0.7-0.271
		l0.66-0.272l0.661-0.311l0.642-0.312l0.622-0.35l0.622-0.389l0.583-0.389l0.563-0.428l0.564-0.428l0.524-0.428l0.524-0.506
		l0.506-0.466l0.467-0.506l0.466-0.544l0.447-0.544l0.428-0.545l0.408-0.583l0.369-0.583l0.369-0.622l0.351-0.622l0.311-0.622
		l0.312-0.661l0.271-0.66l0.272-0.661l0.233-0.7l0.214-0.699l0.194-0.7l0.175-0.699l0.155-0.739l0.117-0.738l0.116-0.738
		l0.078-0.778l0.058-0.738l0.039-0.777v-0.777v-0.895l-0.039-0.894l-0.058-0.855l-0.059-0.895l-0.098-0.855l-0.136-0.894
		l-0.136-0.855l-0.175-0.816l-0.195-0.855l-0.213-0.816l-0.253-0.816l-0.272-0.777l-0.291-0.816l-0.312-0.738l-0.35-0.777
		l-0.389-0.7l-0.408-0.738l-0.428-0.7l-0.467-0.661l-0.485-0.66l-0.525-0.622l-0.563-0.622l-0.583-0.583l-0.603-0.545l-0.661-0.544
		l-0.661-0.506l-0.719-0.466l-0.739-0.428l-0.777-0.428l-0.816-0.389l-0.855-0.351l-0.874-0.311l-0.914-0.311l-0.952-0.233
		l-0.991-0.233l-1.011-0.155l-1.069-0.156l-1.108-0.116l-1.127-0.039l-1.166-0.039c-0.059,0-0.233,0-0.233,0h-0.272h-0.369h-0.467
		h-0.563h-0.622h-0.719h-0.777h-0.836h-0.895h-0.972h-0.991h-1.05h-1.069h-1.107h-1.128h-1.146h-1.147h-1.166h-1.166h-1.166h-1.147
		h-1.127h-1.089h-1.088h-1.03h-1.011h-0.953h-0.894h-0.855h-0.777h-0.7h-0.642h-0.544h-0.467h-0.369h-0.272
		c-0.175,0-0.232,0-0.232,0V513.322z"/>
</g>
<g id="LWPOLYLINE_3_">
	
		<path fill="none" stroke="#000000" stroke-width="0.7087" stroke-linecap="round" stroke-linejoin="round" stroke-miterlimit="10" d="
		M300.95,514.916h1.4l1.399-0.078l1.321-0.116l1.322-0.116l1.244-0.194l1.243-0.195l1.206-0.271l1.166-0.312l1.127-0.35l1.089-0.389
		l1.05-0.428l1.05-0.467l0.972-0.544l0.933-0.544l0.934-0.622l0.854-0.661l0.855-0.7l0.816-0.738l0.777-0.777l0.739-0.855
		l0.699-0.894l0.661-0.934l0.622-0.972l0.583-1.05l0.544-1.089l0.545-1.127l0.466-1.205l0.467-1.244l0.389-1.283l0.389-1.321
		l0.351-1.399l0.271-1.438l0.272-1.517l0.233-1.555l0.194-1.594l0.194-1.672l0.116-1.711l0.078-1.749l0.039-1.827l0.038-1.905
		c0-0.038,0-0.194,0-0.194v-0.271v-0.351v-0.466v-0.545v-0.622v-0.699v-0.738v-0.816v-0.895v-0.933v-0.973v-1.011v-1.05v-1.088
		v-1.089v-1.127v-1.128v-1.127v-1.128v-1.127v-1.128v-1.088v-1.089v-1.05v-1.011v-0.972v-0.933v-0.855v-0.816v-0.777v-0.7v-0.622
		v-0.505v-0.467v-0.35v-0.272c0-0.155,0-0.233,0-0.233l-0.038-1.36l-0.039-1.322l-0.078-1.321l-0.116-1.283l-0.194-1.244
		l-0.194-1.205l-0.233-1.205l-0.272-1.166l-0.271-1.128l-0.351-1.088l-0.389-1.05l-0.389-1.05l-0.467-1.011l-0.466-0.972
		l-0.545-0.972l-0.544-0.895l-0.583-0.895l-0.622-0.815l-0.661-0.816l-0.699-0.778l-0.739-0.738l-0.777-0.738l-0.816-0.661
		l-0.855-0.661l-0.854-0.583l-0.934-0.583l-0.933-0.506l-0.972-0.505l-1.05-0.467l-1.05-0.389l-1.089-0.389l-1.127-0.35
		l-1.166-0.312l-1.206-0.271l-1.243-0.194l-1.244-0.195l-1.322-0.155l-1.321-0.077l-1.399-0.078l-1.4-0.039l-1.438,0.039
		l-1.361,0.078l-1.36,0.077l-1.283,0.155l-1.282,0.195l-1.244,0.194l-1.205,0.271l-1.167,0.312l-1.127,0.35l-1.089,0.389
		l-1.05,0.389l-1.03,0.467l-0.972,0.505l-0.952,0.506l-0.914,0.583l-0.874,0.583l-0.855,0.661l-0.797,0.661l-0.777,0.738
		l-0.739,0.738l-0.699,0.778l-0.661,0.816l-0.622,0.815l-0.583,0.895l-0.563,0.895l-0.525,0.972l-0.485,0.972l-0.447,1.011
		l-0.408,1.05l-0.369,1.05l-0.351,1.088l-0.291,1.128l-0.272,1.166l-0.233,1.205l-0.194,1.205l-0.175,1.244l-0.116,1.283
		l-0.098,1.321l-0.039,1.322l-0.019,1.36c0,0.078,0,0.233,0,0.233v0.272v0.35v0.467v0.505v0.622v0.7v0.777v0.816v0.855v0.933v0.972
		v1.011v1.05v1.089v1.088v1.128v1.127v1.128v1.127v1.128v1.127v1.089v1.088v1.05v1.011v0.973v0.933v0.895v0.816v0.738v0.699v0.622
		v0.545v0.466v0.351v0.271c0,0.156,0,0.194,0,0.194l0.019,1.905l0.039,1.827l0.098,1.749l0.116,1.711l0.175,1.672l0.194,1.594
		l0.233,1.555l0.272,1.517l0.291,1.438l0.351,1.399l0.369,1.321l0.408,1.283l0.447,1.244l0.485,1.205l0.525,1.127l0.563,1.089
		l0.583,1.05l0.622,0.972l0.661,0.934l0.699,0.894l0.739,0.855l0.777,0.777l0.797,0.738l0.855,0.7l0.874,0.661l0.914,0.622
		l0.952,0.544l0.972,0.544l1.03,0.467l1.05,0.428l1.089,0.389l1.127,0.35l1.167,0.312l1.205,0.271l1.244,0.195l1.282,0.194
		l1.283,0.116l1.36,0.116l1.361,0.078H300.95z"/>
</g>
<g id="LWPOLYLINE_4_">
	
		<path fill="none" stroke="#000000" stroke-width="0.7087" stroke-linecap="round" stroke-linejoin="round" stroke-miterlimit="10" d="
		M300.95,505.353h-0.854l-0.778-0.039l-0.777-0.039l-0.777-0.077l-0.738-0.117l-0.739-0.116l-0.699-0.155l-0.661-0.194l-0.661-0.194
		l-0.66-0.233l-0.584-0.272l-0.621-0.311l-0.584-0.312l-0.544-0.35l-0.505-0.389l-0.545-0.428l-0.466-0.467l-0.467-0.466
		l-0.467-0.545l-0.428-0.544l-0.389-0.622l-0.389-0.622l-0.389-0.7l-0.35-0.699l-0.312-0.777l-0.311-0.777l-0.272-0.855
		l-0.253-0.895l-0.252-0.933l-0.214-0.972l-0.194-1.011l-0.176-1.05l-0.175-1.128l-0.136-1.166l-0.098-1.205l-0.097-1.244
		l-0.078-1.321l-0.058-1.361l-0.02-1.399l-0.02-1.478c0-0.077,0-0.232,0-0.232v-0.272v-0.35v-0.467v-0.583v-0.622v-0.7v-0.777
		v-0.855v-0.894v-0.973v-0.972v-1.05v-1.088v-1.089v-1.127v-1.167v-1.166v-1.127v-1.167v-1.166v-1.166v-1.128v-1.088v-1.089v-1.05
		v-0.972v-0.972v-0.895v-0.855v-0.777v-0.699v-0.622v-0.583v-0.428v-0.389v-0.272c0-0.155,0-0.233,0-0.233l0.02-1.399l0.077-1.321
		l0.117-1.283l0.155-1.205l0.194-1.128l0.233-1.088l0.253-1.011l0.311-0.973l0.33-0.894l0.37-0.855l0.369-0.816l0.428-0.738
		l0.428-0.7l0.466-0.661l0.506-0.622l0.467-0.544l0.544-0.544l0.505-0.467l0.545-0.467l0.544-0.389l0.583-0.389l0.544-0.311
		l0.545-0.312l0.583-0.271l0.583-0.233l0.544-0.233l0.545-0.194l0.583-0.155l0.544-0.156l0.506-0.116l0.544-0.116l0.506-0.078
		l0.466-0.078l0.467-0.038l0.467-0.039l0.428-0.039h0.389l0.389-0.039h0.35h0.311h0.312h0.35l0.35,0.039h0.428l0.428,0.039
		l0.428,0.039l0.467,0.038l0.505,0.078l0.506,0.078l0.505,0.116l0.545,0.116l0.544,0.156l0.544,0.155l0.545,0.194l0.583,0.233
		l0.544,0.233l0.583,0.271l0.545,0.312l0.583,0.311l0.544,0.389l0.544,0.389l0.545,0.467l0.544,0.467l0.506,0.544l0.505,0.544
		l0.467,0.622l0.466,0.661l0.428,0.7l0.428,0.738l0.389,0.816l0.351,0.855l0.35,0.894l0.311,0.973l0.233,1.011l0.233,1.088
		l0.194,1.128l0.155,1.205l0.117,1.283l0.077,1.321l0.039,1.399c0,0.078,0,0.233,0,0.233v0.272v0.389v0.428v0.583v0.622v0.699v0.777
		v0.855v0.895v0.972v0.972v1.05v1.089v1.088v1.128v1.166v1.166v1.167v1.127v1.166v1.167v1.127v1.089v1.088v1.05v0.972v0.973v0.894
		v0.855v0.777v0.7v0.622v0.583v0.467v0.35v0.272c0,0.155,0,0.232,0,0.232l-0.039,1.478v1.399l-0.077,1.361l-0.078,1.321
		l-0.077,1.244l-0.117,1.205l-0.116,1.166l-0.156,1.128l-0.194,1.05l-0.194,1.011l-0.232,0.972l-0.233,0.933l-0.272,0.895
		l-0.272,0.855l-0.311,0.777l-0.312,0.777l-0.35,0.699l-0.35,0.7l-0.389,0.622l-0.428,0.622l-0.428,0.544l-0.428,0.545l-0.467,0.466
		l-0.505,0.467l-0.506,0.428l-0.544,0.389l-0.544,0.35l-0.583,0.312l-0.584,0.311l-0.622,0.272l-0.66,0.233l-0.661,0.194
		l-0.661,0.194l-0.699,0.155l-0.739,0.116l-0.738,0.117l-0.738,0.077l-0.778,0.039l-0.816,0.039H300.95z"/>
</g>
<g id="LWPOLYLINE_5_">
	
		<path fill="none" stroke="#000000" stroke-width="0.7087" stroke-linecap="round" stroke-linejoin="round" stroke-miterlimit="10" d="
		M347.912,479.072v1.905l0.078,1.827l0.078,1.749l0.116,1.711l0.155,1.672l0.233,1.594l0.233,1.555l0.233,1.517l0.311,1.438
		l0.351,1.399l0.389,1.321l0.389,1.283l0.466,1.244l0.467,1.205l0.545,1.127l0.544,1.089l0.583,1.05l0.622,0.972l0.661,0.934
		l0.699,0.894l0.739,0.855l0.777,0.777l0.816,0.738l0.816,0.7l0.894,0.661l0.895,0.622l0.972,0.544l0.972,0.544l1.011,0.467
		l1.089,0.428l1.089,0.389l1.127,0.35l1.166,0.312l1.205,0.271l1.206,0.195l1.282,0.194l1.322,0.116l1.321,0.116l1.399,0.078h1.399
		h1.438l1.361-0.078l1.36-0.116l1.283-0.116l1.282-0.194l1.244-0.195l1.205-0.271l1.167-0.312l1.127-0.35l1.089-0.389l1.049-0.428
		l1.012-0.467l1.011-0.544l0.933-0.544l0.933-0.622l0.855-0.661l0.855-0.7l0.777-0.738l0.777-0.777l0.739-0.855l0.699-0.894
		l0.661-0.934l0.622-0.972l0.622-1.05l0.544-1.089l0.506-1.127l0.505-1.205l0.428-1.244l0.428-1.283l0.35-1.321l0.351-1.399
		l0.311-1.438l0.272-1.517l0.233-1.555l0.194-1.594l0.155-1.672l0.116-1.711l0.117-1.749l0.038-1.827l0.039-1.905
		c0-0.077,0-0.389,0-0.389v-0.544v-0.661v-0.894v-1.011v-1.205v-1.322v-1.478v-1.555v-1.711v-1.788v-1.866v-1.943v-2.021v-2.061
		v-2.1v-2.138v-2.177v-2.178v-2.177v-2.177v-2.139v-2.099v-2.1v-1.982v-1.983v-1.865v-1.789v-1.671v-1.595v-1.438v-1.321v-1.205
		v-1.011v-0.895v-0.699v-0.506v-0.311c-0.194-0.117-0.35-0.117-0.35-0.117c-0.194,0-0.389,0-0.389,0h-0.233h-0.272h-0.311h-0.312
		h-0.35h-0.389h-0.389h-0.389h-0.428h-0.428h-0.428h-0.428h-0.466h-0.428h-0.467h-0.428h-0.428h-0.466h-0.39h-0.427h-0.39h-0.389
		h-0.389h-0.35h-0.311h-0.312h-0.272h-0.232h-0.194c-0.195,0-0.351,0-0.351,0c-0.194,0.117-0.194,0.428-0.194,0.428v0.545v0.699
		v0.855v1.05v1.205v1.36v1.478v1.594v1.711v1.827v1.904v1.944v2.061v2.099v2.139v2.177v2.177v2.216v2.216v2.178v2.177v2.139v2.099
		v2.061v1.982v1.905v1.788v1.711v1.594v1.478v1.36v1.205v1.05v0.855v0.738v0.505v0.312c0,0.116,0,1.594,0,1.594l-0.039,1.399
		l-0.038,1.361l-0.078,1.321l-0.078,1.244l-0.116,1.205l-0.155,1.166l-0.156,1.128l-0.155,1.05l-0.233,1.011l-0.194,0.972
		l-0.233,0.933l-0.271,0.895l-0.272,0.855l-0.311,0.777l-0.312,0.777l-0.35,0.699l-0.389,0.7l-0.389,0.622l-0.389,0.622
		l-0.428,0.544l-0.467,0.545l-0.467,0.466l-0.466,0.467l-0.545,0.428l-0.505,0.389l-0.583,0.35l-0.545,0.312l-0.622,0.311
		l-0.622,0.272l-0.621,0.233l-0.661,0.194l-0.661,0.194l-0.7,0.155l-0.738,0.116l-0.738,0.117l-0.777,0.077l-0.778,0.039
		l-0.816,0.039h-0.816h-0.816l-0.816-0.039l-0.777-0.039l-0.738-0.077l-0.777-0.117l-0.7-0.116l-0.699-0.155l-0.7-0.194
		l-0.661-0.194l-0.622-0.233l-0.622-0.272l-0.583-0.311l-0.583-0.312l-0.544-0.35l-0.544-0.389l-0.506-0.428l-0.505-0.467
		l-0.467-0.466l-0.428-0.545l-0.428-0.544l-0.428-0.622l-0.389-0.622l-0.35-0.7l-0.351-0.699l-0.311-0.777l-0.311-0.777
		l-0.272-0.855l-0.272-0.895l-0.233-0.933l-0.232-0.972l-0.195-1.011l-0.194-1.05l-0.155-1.128l-0.116-1.166l-0.117-1.205
		l-0.116-1.244l-0.039-1.321l-0.078-1.361l-0.038-1.399v-1.478c0-0.116,0-0.428,0-0.428v-0.505v-0.738v-0.855v-1.05v-1.205v-1.36
		v-1.478v-1.594v-1.711v-1.788v-1.905v-1.982v-2.061v-2.099v-2.139v-2.177v-2.178v-2.216v-2.216v-2.177v-2.177v-2.139v-2.099v-2.061
		v-1.944v-1.904v-1.827v-1.711v-1.594v-1.478v-1.36v-1.205v-1.05v-0.855v-0.699v-0.545v-0.311c-0.194-0.117-0.312-0.117-0.312-0.117
		c-0.194,0-0.389,0-0.389,0h-0.272h-0.271h-0.312h-0.311h-0.35h-0.351h-0.389h-0.389h-0.428h-0.428h-0.428h-0.427h-0.467h-0.428
		h-0.467h-0.428h-0.466h-0.428h-0.428h-0.389h-0.428h-0.389h-0.351h-0.35h-0.311h-0.312h-0.271h-0.233h-0.233
		c-0.155,0-0.312,0-0.312,0C347.912,420.953,347.912,479.072,347.912,479.072z"/>
</g>
<g id="LWPOLYLINE_6_">
	
		<path fill="none" stroke="#000000" stroke-width="0.7087" stroke-linecap="round" stroke-linejoin="round" stroke-miterlimit="10" d="
		M436.277,431.333c0.116,0,0.271,0,0.271,0c0.194,0,0.428,0,0.428,0h0.272h0.311h0.389h0.39h0.427h0.467h0.506h0.505h0.544h0.545
		h0.544h0.583h0.583h0.622h0.583h0.584h0.622h0.583h0.583h0.544h0.544h0.545h0.505h0.506h0.466h0.428h0.389h0.39h0.311h0.272h0.233
		c0.194,0,0.35,0,0.35,0c0.116,0,0.311,0,0.311,0h0.233h0.233l0.272,0.039l0.311,0.039l0.312,0.039l0.311,0.077l0.389,0.078
		l0.35,0.078l0.389,0.077l0.39,0.117l0.427,0.155l0.39,0.155l0.427,0.155l0.467,0.194l0.428,0.194l0.428,0.233l0.428,0.272
		l0.467,0.272l0.427,0.311l0.428,0.311l0.428,0.351l0.389,0.389l0.428,0.389l0.389,0.467l0.389,0.466l0.351,0.467l0.35,0.544
		l0.35,0.584l0.312,0.583l0.271,0.622l0.272,0.699l0.272,0.7l0.194,0.738l0.194,0.777l0.155,0.816l0.116,0.855l0.117,0.933
		l0.039,0.934l0.038,1.011l-0.038,1.05l-0.078,1.011l-0.078,0.933l-0.155,0.934l-0.155,0.854l-0.194,0.816l-0.233,0.816
		l-0.272,0.739l-0.311,0.699l-0.312,0.661l-0.35,0.622l-0.389,0.622l-0.389,0.544l-0.428,0.544l-0.428,0.467l-0.428,0.467
		l-0.466,0.428l-0.506,0.389l-0.467,0.389l-0.505,0.35l-0.506,0.312l-0.544,0.271l-0.505,0.272l-0.545,0.233l-0.505,0.233
		l-0.545,0.194l-0.544,0.194l-0.505,0.155l-0.545,0.117l-0.505,0.116l-0.506,0.116l-0.505,0.078l-0.506,0.078l-0.467,0.077
		l-0.466,0.039l-0.467,0.039l-0.428,0.039h-0.389h-0.428h-0.35c-0.078,0-0.194,0-0.194,0c-0.155,0-0.35,0-0.35,0h-0.233h-0.272
		h-0.272h-0.311h-0.35h-0.389h-0.39h-0.389h-0.427h-0.467h-0.428h-0.467h-0.467h-0.505h-0.467h-0.466h-0.467h-0.467h-0.467h-0.466
		h-0.428h-0.428h-0.428h-0.389h-0.389h-0.312h-0.35h-0.272h-0.271h-0.233c-0.194,0-0.312,0-0.312,0c-0.194,0-0.232,0-0.232,0
		V431.333z"/>
</g>
<g id="LWPOLYLINE_7_">
	
		<path fill="none" stroke="#000000" stroke-width="0.7087" stroke-linecap="round" stroke-linejoin="round" stroke-miterlimit="10" d="
		M436.277,513.322c0-0.078,0-0.312,0-0.312v-0.35v-0.467v-0.622v-0.699v-0.855v-0.933v-1.011v-1.089v-1.166v-1.283v-1.283v-1.36
		v-1.399v-1.478v-1.477v-1.478v-1.517v-1.516v-1.517v-1.516v-1.517v-1.478v-1.438v-1.399v-1.36v-1.321v-1.244v-1.167v-1.127v-1.011
		v-0.934v-0.815v-0.739v-0.583v-0.505v-0.351v-0.233c0.116-0.038,0.232-0.038,0.232-0.038c0.195,0,0.428,0,0.428,0h0.272h0.312h0.35
		h0.35h0.428h0.428h0.467h0.505h0.506h0.505h0.544h0.545h0.583h0.544h0.583h0.545h0.583h0.544h0.544h0.545h0.544h0.506h0.466h0.467
		h0.467h0.389h0.389h0.35h0.312h0.271h0.194c0.194,0,0.351,0,0.351,0c0.077,0,0.816-0.039,0.816-0.039h0.738l0.777-0.078
		l0.777-0.039l0.816-0.116l0.816-0.117l0.816-0.116l0.855-0.155l0.855-0.194l0.816-0.233l0.855-0.233l0.854-0.272l0.855-0.311
		l0.855-0.35l0.855-0.351l0.816-0.428l0.816-0.427l0.816-0.467l0.816-0.506l0.777-0.544l0.777-0.622l0.738-0.622l0.739-0.661
		l0.699-0.699l0.661-0.739l0.661-0.815l0.622-0.855l0.583-0.855l0.544-0.933l0.506-1.012l0.466-1.011l0.428-1.088l0.389-1.128
		l0.351-1.205l0.311-1.244l0.233-1.282l0.194-1.361l0.155-1.399l0.078-1.477l0.039-1.517l-0.039-1.555l-0.078-1.556l-0.116-1.438
		l-0.155-1.399l-0.233-1.36l-0.233-1.283l-0.311-1.205l-0.351-1.166l-0.389-1.127l-0.389-1.089l-0.467-1.011l-0.505-0.972
		l-0.506-0.895l-0.583-0.895l-0.583-0.816l-0.622-0.777l-0.622-0.699l-0.661-0.7l-0.699-0.661l-0.738-0.583l-0.739-0.583
		l-0.738-0.505l-0.816-0.467l-0.777-0.467l-0.816-0.428l-0.855-0.35l-0.855-0.35l-0.855-0.312l-0.855-0.271l-0.894-0.272
		l-0.895-0.194l-0.894-0.194l-0.895-0.194l-0.895-0.117l-0.894-0.116l-0.934-0.116l-0.894-0.039l-0.895-0.078h-0.933l-0.895-0.039
		c-0.194,0-0.389,0-0.389,0h-0.35h-0.389h-0.467h-0.544h-0.583h-0.661h-0.7h-0.777h-0.816h-0.816h-0.894h-0.895h-0.972h-0.934
		h-0.972h-0.972h-1.011h-0.972h-0.973h-0.972h-0.972h-0.933h-0.895h-0.895h-0.816h-0.816h-0.777h-0.699h-0.661h-0.622h-0.505h-0.467
		h-0.428h-0.312h-0.232c-0.156,0.194-0.156,0.7-0.156,0.7v0.777v1.128v1.36v1.672v1.865v2.1v2.333v2.526v2.683v2.799v2.993V447
		v3.188v3.304v3.344v3.421v3.421v3.46v3.46v3.46v3.382v3.383v3.266v3.227v3.071v2.993v2.838v2.683v2.488v2.332v2.1v1.904v1.633v1.4
		v1.088v0.816v0.506C425.158,513.322,436.277,513.322,436.277,513.322z"/>
</g>
<g id="LWPOLYLINE_8_">
	
		<path fill="none" stroke="#000000" stroke-width="0.7087" stroke-linecap="round" stroke-linejoin="round" stroke-miterlimit="10" d="
		M114.639,577.001l0.098-1.322l0.077-1.321l0.02-1.283l0.02-1.283l-0.039-1.205l-0.058-1.166l-0.098-1.128l-0.136-1.127l-0.156-1.05
		l-0.213-1.05l-0.233-1.011l-0.272-0.972l-0.292-0.933l-0.33-0.895l-0.389-0.855l-0.408-0.816l-0.428-0.816l-0.486-0.738
		l-0.505-0.738l-0.563-0.661l-0.583-0.661l-0.622-0.622l-0.642-0.583l-0.7-0.544l-0.738-0.545l-0.758-0.466l-0.797-0.467
		l-0.855-0.428l-0.875-0.35l-0.913-0.351l-0.953-0.311l-0.991-0.311l-1.03-0.233l-1.05-0.233l-1.107-0.155l-1.147-0.156
		l-1.166-0.116l-1.225-0.078l-1.264-0.038l-1.282-0.039h-1.361l-1.341,0.077l-1.303,0.039l-1.282,0.117l-1.244,0.116l-1.225,0.194
		l-1.186,0.194l-1.167,0.233l-1.127,0.233l-1.089,0.311l-1.068,0.351l-1.05,0.389l-1.011,0.389l-0.972,0.466l-0.953,0.506
		l-0.913,0.544l-0.875,0.583l-0.836,0.622l-0.816,0.7l-0.777,0.699l-0.738,0.778l-0.72,0.816l-0.681,0.854l-0.641,0.934
		l-0.603,0.972l-0.564,1.011l-0.524,1.089l-0.486,1.127l-0.466,1.205l-0.408,1.244l-0.389,1.322l-0.351,1.36l-0.291,1.399
		l-0.272,1.517l-0.214,1.555l-0.194,1.594l-0.136,1.672l-0.098,1.749l-0.077,1.827l-0.02,1.866c0,0.194,0,0.428,0,0.428v0.311v0.389
		v0.467v0.545v0.583v0.66v0.7v0.777v0.816v0.855v0.855v0.933v0.934v0.933v0.972v0.972v1.011v0.973v0.972v0.972v0.972v0.934v0.894
		v0.895v0.855v0.777v0.777v0.7v0.66v0.622v0.545v0.466v0.389v0.312v0.233c0,0.194,0.039,2.799,0.039,2.799l0.097,2.488l0.155,2.371
		l0.214,2.255l0.272,2.138l0.33,2.021l0.389,1.866l0.428,1.788l0.467,1.711l0.524,1.594l0.564,1.478l0.603,1.399l0.66,1.283
		l0.681,1.205l0.719,1.127l0.739,1.011l0.777,0.973l0.816,0.894l0.836,0.777l0.855,0.739l0.874,0.66l0.895,0.622l0.913,0.545
		l0.914,0.505l0.933,0.428l0.953,0.35l0.952,0.351l0.952,0.271l0.973,0.272l0.972,0.194l0.952,0.194l0.952,0.116l0.953,0.117
		l0.952,0.078l0.933,0.077l0.914,0.039l0.913,0.039h0.895l0.855,0.039h0.855h0.505h0.544l0.604-0.039h0.621l0.681-0.039l0.7-0.039
		l0.738-0.039l0.777-0.077l0.797-0.117l0.816-0.116l0.836-0.155l0.836-0.194l0.875-0.194l0.855-0.272l0.874-0.272l0.895-0.35
		l0.875-0.35l0.874-0.428l0.855-0.467l0.855-0.544l0.855-0.583l0.816-0.622l0.816-0.7l0.777-0.777l0.758-0.816l0.738-0.895
		l0.7-0.972l0.642-1.05l0.622-1.127l0.583-1.205l0.524-1.283l0.486-1.36l0.447-1.478l0.369-1.555l0.311-1.633l0.272-1.75
		l0.194-1.827l0.116-1.943l0.059-2.061l-0.02-2.138c-0.194,0-0.35,0-0.35,0c-0.175,0-0.389,0-0.389,0h-0.233h-0.272h-0.311h-0.312
		h-0.35h-0.369h-0.389h-0.408h-0.408h-0.428h-0.428h-0.447h-0.446h-0.447h-0.447h-0.447h-0.428h-0.447h-0.408h-0.427h-0.39h-0.389
		h-0.369h-0.35h-0.312h-0.311h-0.272h-0.233h-0.213c-0.195,0-0.331,0-0.331,0c-0.194,0-0.214,1.36-0.214,1.36l-0.059,1.244
		l-0.077,1.244l-0.136,1.166l-0.156,1.089l-0.194,1.049l-0.214,1.011l-0.252,0.934l-0.272,0.894l-0.292,0.855l-0.33,0.777
		l-0.33,0.739l-0.37,0.699l-0.389,0.661l-0.389,0.622l-0.408,0.583l-0.428,0.506l-0.446,0.505l-0.447,0.467l-0.467,0.428
		l-0.467,0.389l-0.466,0.35l-0.467,0.312l-0.486,0.271l-0.485,0.272l-0.486,0.233l-0.467,0.233l-0.485,0.155l-0.467,0.194
		l-0.467,0.116l-0.446,0.117l-0.447,0.116l-0.428,0.078l-0.428,0.077l-0.408,0.039l-0.389,0.039l-0.369,0.039l-0.351,0.039h-0.33
		h-0.311h-0.661l-0.642-0.039l-0.642-0.039l-0.642-0.039l-0.622-0.077l-0.603-0.078l-0.622-0.116l-0.583-0.117l-0.603-0.155
		l-0.563-0.194l-0.563-0.194l-0.563-0.233l-0.545-0.272l-0.524-0.311l-0.506-0.312l-0.505-0.389l-0.486-0.389l-0.485-0.428
		l-0.447-0.466l-0.447-0.545l-0.428-0.544l-0.389-0.622l-0.408-0.622l-0.369-0.7l-0.35-0.738l-0.331-0.777l-0.311-0.855
		l-0.292-0.894l-0.291-0.934l-0.253-1.011l-0.233-1.05l-0.194-1.127l-0.194-1.166l-0.155-1.244l-0.156-1.322l-0.116-1.36
		l-0.078-1.438l-0.077-1.478l-0.039-1.555v-1.633c0-0.194,0-0.428,0-0.428v-0.272v-0.389v-0.428v-0.505v-0.544v-0.622v-0.7v-0.7
		v-0.777v-0.777v-0.816v-0.855v-0.894v-0.895v-0.894v-0.934v-0.933v-0.934v-0.894v-0.934v-0.894v-0.855v-0.855v-0.855v-0.777v-0.777
		v-0.7v-0.66v-0.622v-0.583v-0.506v-0.428v-0.389v-0.272v-0.232c0-0.156,0-1.322,0-1.322l0.02-1.127l0.02-1.089l0.02-1.011
		l0.038-0.972l0.039-0.934l0.059-0.894l0.039-0.855l0.077-0.777l0.059-0.777l0.059-0.739l0.077-0.661l0.078-0.66l0.078-0.622
		l0.097-0.545l0.078-0.544l0.077-0.505l0.098-0.506l0.078-0.428l0.097-0.428l0.098-0.389l0.077-0.35l0.098-0.35l0.077-0.312
		l0.098-0.271l0.077-0.272l0.078-0.233l0.078-0.233l0.077-0.194c0.059-0.194,0.137-0.35,0.137-0.35
		c0.058-0.155,0.116-0.312,0.116-0.312c0.039-0.116,0.078-0.232,0.078-0.232c0.077-0.156,0.097-0.233,0.097-0.233
		c0.02-0.156,0.078-0.272,0.078-0.272c0.077-0.155,0.175-0.311,0.175-0.311c0.098-0.156,0.214-0.312,0.214-0.312
		c0.116-0.194,0.272-0.389,0.272-0.389l0.155-0.233l0.155-0.194l0.194-0.233l0.194-0.233l0.214-0.232l0.233-0.233l0.233-0.233
		l0.253-0.233l0.271-0.233l0.292-0.272l0.311-0.232l0.312-0.233l0.33-0.233l0.35-0.233l0.37-0.233L81.4,561.8l0.408-0.232
		l0.408-0.233l0.446-0.194l0.447-0.194l0.486-0.194l0.485-0.195l0.506-0.155l0.524-0.155l0.545-0.155l0.583-0.117l0.583-0.116
		l0.603-0.116l0.622-0.078l0.642-0.078l0.661-0.039l0.699-0.038h0.7c0.116,0,0.271,0,0.271,0c0.156,0,0.312,0.038,0.312,0.038
		c0.175,0,0.369,0,0.369,0l0.214,0.039l0.214,0.039h0.214l0.233,0.039l0.233,0.039l0.252,0.077l0.253,0.039l0.253,0.039l0.271,0.078
		l0.272,0.038l0.272,0.078l0.271,0.078l0.292,0.077l0.272,0.078l0.291,0.116l0.292,0.078l0.271,0.116l0.292,0.117l0.272,0.116
		l0.291,0.117l0.272,0.116l0.272,0.155l0.271,0.155l0.272,0.156l0.272,0.155l0.252,0.155l0.253,0.194l0.233,0.155l0.233,0.194
		l0.233,0.195l0.214,0.232l0.214,0.194l0.194,0.233l0.175,0.233l0.175,0.272l0.175,0.233l0.175,0.233l0.155,0.271l0.156,0.272
		l0.136,0.271l0.155,0.272l0.136,0.272l0.117,0.311l0.136,0.272l0.117,0.311l0.116,0.312l0.117,0.272l0.097,0.311l0.098,0.35
		l0.097,0.312l0.098,0.311l0.077,0.351l0.078,0.35l0.077,0.311l0.078,0.351l0.078,0.35l0.058,0.35l0.059,0.389l0.059,0.35
		l0.039,0.351l0.058,0.389l0.039,0.35l0.039,0.389l0.039,0.389l0.02,0.389l0.038,0.389l0.02,0.39l0.02,0.389l0.02,0.428l0.02,0.389
		v0.428l0.02,0.389v0.427v0.39H114.639z"/>
</g>
<g id="LWPOLYLINE_9_">
	
		<path fill="none" stroke="#000000" stroke-width="0.7087" stroke-linecap="round" stroke-linejoin="round" stroke-miterlimit="10" d="
		M132.152,643.905c0.175,0,0.311,0,0.311,0c0.156,0,0.37,0,0.37,0h0.214h0.252h0.292h0.291h0.331h0.35h0.35h0.37h0.389h0.408h0.389
		h0.428h0.408h0.408h0.427h0.408h0.408h0.408h0.408h0.39h0.369h0.35h0.35h0.331h0.291h0.292h0.253h0.213c0.214,0,0.37,0,0.37,0
		c0.136,0,0.233,0,0.233,0c0.077-0.077,0.077-0.311,0.077-0.311v-0.389V642.7v-0.622v-0.738v-0.855v-0.972v-1.05v-1.166v-1.205
		v-1.322v-1.36v-1.399v-1.478v-1.478V627.5v-1.555v-1.556v-1.594v-1.594v-1.555v-1.556v-1.555v-1.478v-1.477v-1.4v-1.36v-1.321
		v-1.205v-1.167v-1.049v-0.973v-0.854v-0.739v-0.622v-0.505v-0.389v-0.233c0.059-0.078,0.233-0.078,0.233-0.078h0.292h0.369h0.485
		h0.564h0.641h0.739h0.797h0.855h0.933h0.972h1.03h1.069h1.108h1.127h1.166h1.166h1.187h1.186h1.205h1.186h1.166h1.167h1.127h1.108
		h1.068h1.03h0.972h0.934h0.855h0.797h0.738h0.642h0.563h0.486h0.369h0.292c0.175,0,0.232,0,0.232,0c0,0.078,0,0.312,0,0.312v0.389
		v0.505v0.622v0.739v0.854v0.973v1.049v1.167v1.205v1.321v1.36v1.4v1.477v1.478v1.555v1.556v1.555v1.594v1.594v1.556v1.555v1.555
		v1.478v1.478v1.399v1.36v1.322v1.205v1.166v1.05v0.972v0.855v0.738v0.622v0.506v0.389v0.233c0.176,0.077,0.331,0.077,0.331,0.077
		c0.175,0,0.389,0,0.389,0h0.253h0.271h0.292h0.33h0.331h0.369h0.389h0.408h0.408h0.428h0.428h0.446h0.447h0.447h0.447h0.447h0.428
		h0.446h0.428h0.408h0.408h0.369h0.37h0.35h0.33h0.292h0.271h0.253h0.214c0.175,0,0.312,0,0.312,0
		c0.194-0.194,0.194-0.66,0.194-0.66v-0.816v-1.128v-1.36v-1.672v-1.866v-2.099v-2.333v-2.488v-2.682v-2.838v-2.994v-3.109v-3.188
		v-3.266v-3.382v-3.382v-3.46v-3.46v-3.46v-3.46v-3.383v-3.382v-3.266v-3.227v-3.071v-2.993v-2.838v-2.683v-2.488v-2.332v-2.1
		v-1.905v-1.633v-1.36v-1.127v-0.816v-0.506c-0.194-0.155-0.331-0.155-0.331-0.155c-0.175,0-0.389,0-0.389,0h-0.253h-0.271h-0.292
		h-0.33h-0.35h-0.37h-0.369h-0.408h-0.408h-0.428h-0.446h-0.428h-0.447h-0.447h-0.447h-0.447h-0.446h-0.428h-0.428h-0.408h-0.408
		h-0.389h-0.369h-0.331h-0.33h-0.292h-0.271h-0.253h-0.214c-0.175,0-0.33,0-0.33,0c-0.176,0.077-0.176,0.311-0.176,0.311v0.312
		v0.505v0.583v0.7v0.816v0.933v0.973v1.088v1.167v1.205v1.282v1.361v1.36v1.438v1.438v1.477v1.478v1.478v1.478v1.516v1.438v1.478
		v1.399v1.399v1.322v1.282v1.205v1.167v1.088v1.011v0.895v0.816v0.699v0.584v0.505v0.35v0.194c-0.058,0.078-0.232,0.078-0.232,0.078
		h-0.292h-0.369h-0.486h-0.563h-0.642h-0.738h-0.797h-0.855h-0.934h-0.972h-1.03h-1.068h-1.108h-1.127h-1.167h-1.166h-1.186h-1.205
		h-1.186h-1.187h-1.166h-1.166h-1.127h-1.108h-1.069h-1.03h-0.972h-0.933h-0.855h-0.797h-0.739h-0.641h-0.564h-0.485h-0.369h-0.292
		c-0.175,0-0.233,0-0.233,0c0-0.078,0-0.272,0-0.272v-0.35v-0.505v-0.584v-0.699v-0.816v-0.895v-1.011v-1.088v-1.167v-1.205v-1.282
		v-1.322v-1.399v-1.399v-1.478v-1.438v-1.516v-1.478v-1.478v-1.478v-1.477v-1.438v-1.438v-1.36v-1.361v-1.282v-1.205v-1.167v-1.088
		v-0.973v-0.933v-0.816v-0.7v-0.583v-0.505v-0.312v-0.233c-0.175-0.077-0.311-0.077-0.311-0.077c-0.156,0-0.37,0-0.37,0h-0.213
		h-0.253h-0.292h-0.291h-0.331h-0.35h-0.35h-0.369h-0.39h-0.408h-0.408h-0.408h-0.408h-0.427h-0.408h-0.408h-0.428h-0.389h-0.408
		h-0.389h-0.37h-0.35h-0.35h-0.331h-0.291h-0.292h-0.252h-0.214h-0.214c-0.156,0-0.292,0-0.292,0
		C132.152,551.537,132.152,643.905,132.152,643.905z"/>
</g>
<g id="LWPOLYLINE_10_">
	
		<path fill="none" stroke="#000000" stroke-width="0.7087" stroke-linecap="round" stroke-linejoin="round" stroke-miterlimit="10" d="
		M198.222,643.905c0.194,0,0.35,0,0.35,0c0.175,0,0.389,0,0.389,0h0.233h0.272h0.311h0.312h0.35h0.369h0.389h0.408h0.408h0.428
		h0.428h0.447h0.447h0.446h0.447h0.447h0.428h0.447h0.408h0.428h0.389h0.389h0.369h0.35h0.312h0.311h0.272h0.233h0.214
		c0.194,0,0.33,0,0.33,0c0.194,0,0.194-0.038,0.194-0.038c0.039-0.117,0.116-0.312,0.116-0.312l0.078-0.272l0.117-0.35l0.116-0.389
		l0.155-0.467l0.155-0.505l0.176-0.544l0.194-0.622l0.214-0.622l0.214-0.7l0.232-0.738l0.253-0.739l0.233-0.777l0.272-0.777
		l0.252-0.816l0.272-0.816l0.253-0.816l0.271-0.855l0.272-0.816l0.272-0.854l0.253-0.816l0.271-0.816l0.253-0.778l0.253-0.777
		l0.233-0.738l0.232-0.739l0.214-0.66l0.214-0.661l0.194-0.622l0.176-0.544l0.175-0.506l0.136-0.466l0.136-0.39l0.098-0.35
		l0.097-0.233c0.059-0.233,0.098-0.35,0.098-0.35c0.077-0.039,0.253-0.039,0.253-0.039h0.311h0.408h0.506h0.622h0.68h0.797h0.855
		h0.933h0.992h1.049h1.108h1.146h1.187h1.205h1.243h1.283h1.264h1.283h1.282h1.283h1.264h1.244h1.205h1.205h1.146h1.089h1.05h1.011
		h0.913h0.875h0.777h0.7h0.603h0.505h0.428h0.292c0.175,0,0.252,0,0.252,0c0.039,0.155,0.098,0.389,0.098,0.389l0.078,0.233
		l0.097,0.35l0.116,0.39l0.117,0.466l0.155,0.506l0.155,0.544l0.175,0.622l0.176,0.661l0.214,0.66l0.194,0.739l0.214,0.738
		l0.214,0.777l0.232,0.778l0.233,0.816l0.233,0.816l0.233,0.854l0.253,0.816l0.233,0.855l0.232,0.816l0.233,0.816l0.233,0.816
		l0.233,0.777l0.214,0.777l0.214,0.739l0.214,0.738l0.194,0.7l0.175,0.622l0.175,0.622l0.155,0.544l0.156,0.505l0.136,0.467
		l0.097,0.389l0.098,0.35l0.078,0.272c0.058,0.194,0.097,0.312,0.097,0.312c0.098,0.038,0.233,0.038,0.233,0.038
		c0.155,0,0.35,0,0.35,0h0.253h0.272h0.311h0.33h0.37h0.389h0.428h0.428h0.466h0.467h0.486h0.485h0.506h0.505h0.506h0.505h0.506
		h0.485h0.506h0.467h0.485h0.447h0.428h0.428h0.389h0.369h0.33h0.312h0.291h0.233h0.194c0.175,0,0.292,0,0.292,0
		c0.039-0.194-0.117-0.66-0.117-0.66l-0.252-0.816l-0.369-1.128l-0.428-1.36l-0.525-1.672l-0.603-1.866l-0.68-2.099l-0.739-2.333
		l-0.797-2.488l-0.855-2.682l-0.913-2.838l-0.934-2.994l-0.991-3.109l-1.03-3.188l-1.049-3.266l-1.069-3.382l-1.089-3.382
		l-1.089-3.46l-1.107-3.46l-1.108-3.46l-1.088-3.46l-1.089-3.383l-1.069-3.382l-1.049-3.266l-1.03-3.227l-0.992-3.071l-0.933-2.993
		l-0.913-2.838l-0.855-2.683l-0.797-2.488l-0.739-2.332l-0.68-2.1l-0.603-1.905l-0.525-1.633l-0.428-1.36l-0.369-1.127l-0.253-0.816
		l-0.155-0.506c-0.155-0.155-0.291-0.155-0.291-0.155c-0.194,0-0.408,0-0.408,0h-0.272h-0.312h-0.35h-0.369h-0.408h-0.447h-0.467
		h-0.485h-0.506h-0.524h-0.544h-0.545h-0.563h-0.563h-0.563h-0.564h-0.563h-0.563h-0.544h-0.545h-0.524h-0.506h-0.485h-0.467h-0.428
		h-0.428h-0.369h-0.35h-0.312h-0.271h-0.214c-0.194,0-0.312,0-0.312,0C226.893,551.537,198.222,643.905,198.222,643.905z"/>
</g>
<g id="LWPOLYLINE_11_">
	
		<path fill="none" stroke="#000000" stroke-width="0.7087" stroke-linecap="round" stroke-linejoin="round" stroke-miterlimit="10" d="
		M248.391,611.25c-0.059,0-0.214,0-0.214,0h-0.253h-0.33h-0.428h-0.524h-0.583h-0.642h-0.72h-0.777h-0.836h-0.894h-0.914h-0.972
		h-0.991h-1.011h-1.05h-1.05h-1.069h-1.068h-1.089h-1.069h-1.05h-1.05h-1.011h-0.991h-0.972h-0.913h-0.875h-0.836h-0.777h-0.72
		h-0.66h-0.583h-0.506h-0.428h-0.35h-0.253c-0.155,0-0.214,0-0.214,0c0.039-0.078,0.117-0.35,0.117-0.35l0.116-0.428l0.175-0.583
		l0.214-0.739l0.253-0.854l0.291-0.973l0.331-1.127l0.35-1.205l0.408-1.322l0.408-1.399l0.447-1.516l0.447-1.556l0.485-1.633
		l0.506-1.671l0.505-1.75l0.525-1.749l0.524-1.788l0.524-1.827l0.545-1.827l0.544-1.789l0.525-1.827l0.524-1.788l0.524-1.749
		l0.506-1.75l0.505-1.671l0.486-1.633l0.447-1.556l0.447-1.516l0.408-1.399l0.408-1.322l0.35-1.205l0.33-1.127l0.292-0.973
		l0.253-0.894l0.214-0.7l0.175-0.583l0.116-0.428l0.078-0.271C234.065,562.694,248.391,611.25,248.391,611.25z"/>
</g>
<g id="LWPOLYLINE_12_">
	
		<path fill="none" stroke="#000000" stroke-width="0.7087" stroke-linecap="round" stroke-linejoin="round" stroke-miterlimit="10" d="
		M334.384,551.537c0,0.155,0,0.583,0,0.583v0.7v0.933v1.166v1.399v1.633v1.789v1.982v2.138v2.294v2.41v2.527v2.644v2.76v2.799v2.838
		v2.916v2.954v2.955v2.954v2.916v2.916v2.877v2.799v2.721v2.644v2.566v2.41v2.294v2.138v1.982v1.789v1.594v1.399v1.205v0.933v0.7
		v0.428c-0.078,0-0.272-0.428-0.272-0.428l-0.311-0.7l-0.389-0.933l-0.545-1.205l-0.622-1.399l-0.699-1.594l-0.816-1.789
		l-0.895-1.982l-0.933-2.138l-1.011-2.294l-1.089-2.41l-1.127-2.566l-1.166-2.644l-1.206-2.721l-1.243-2.799l-1.283-2.877
		l-1.283-2.916l-1.321-2.916l-1.322-2.954l-1.321-2.955l-1.283-2.954l-1.283-2.916l-1.282-2.838l-1.244-2.799l-1.205-2.76
		l-1.205-2.644l-1.128-2.527l-1.05-2.41l-1.049-2.294l-0.934-2.138l-0.894-1.982l-0.778-1.789l-0.738-1.633l-0.622-1.399
		l-0.505-1.166l-0.428-0.933l-0.312-0.7l-0.194-0.428c-0.155-0.155-0.311-0.155-0.311-0.155c-0.194,0-0.428,0-0.428,0h-0.272h-0.35
		h-0.35h-0.39h-0.427h-0.467h-0.506h-0.505h-0.545h-0.544h-0.544h-0.583h-0.583h-0.622h-0.583h-0.584h-0.622h-0.583h-0.583h-0.544
		h-0.544h-0.545h-0.505h-0.506h-0.467h-0.427h-0.408h-0.351h-0.33h-0.292h-0.232c-0.195,0-0.331,0-0.331,0
		c-0.116,0.155-0.116,0.661-0.116,0.661v0.816v1.127v1.36v1.633v1.905v2.1v2.332v2.488v2.683v2.838v2.993v3.071v3.227v3.266v3.382
		v3.383v3.46v3.46v3.46v3.46v3.382v3.382v3.266v3.188v3.109v2.994v2.838v2.682v2.488v2.333v2.099v1.866v1.672v1.36v1.128v0.816
		v0.466c0.175,0.194,0.291,0.194,0.291,0.194c0.156,0,0.331,0,0.331,0h0.214h0.252h0.253h0.272h0.311h0.312h0.33h0.35h0.351h0.389
		h0.35h0.389h0.389h0.389h0.389h0.389h0.39h0.389h0.35h0.35h0.35h0.351h0.311h0.312h0.271h0.272h0.233h0.194c0.194,0,0.35,0,0.35,0
		c0.117,0,0.194,0,0.194,0c0.078-0.155,0.078-0.583,0.078-0.583v-0.699v-0.972v-1.167v-1.438v-1.594v-1.827v-2.021v-2.138v-2.333
		v-2.449v-2.565v-2.644v-2.761v-2.838v-2.915v-2.916v-2.993v-2.955v-2.993v-2.954v-2.955v-2.877v-2.838v-2.76v-2.683v-2.565v-2.449
		v-2.294v-2.177v-1.983v-1.827v-1.633v-1.399v-1.205v-0.933v-0.7v-0.428c0.077,0,0.271,0.428,0.271,0.428l0.312,0.7l0.428,0.933
		l0.544,1.205l0.622,1.399l0.738,1.633l0.816,1.827l0.895,1.983l0.972,2.177l1.05,2.294l1.089,2.449l1.166,2.565l1.205,2.683
		l1.244,2.76l1.283,2.838l1.282,2.877l1.322,2.955l1.36,2.954l1.322,2.993l1.36,2.955l1.321,2.993l1.322,2.916l1.321,2.915
		l1.244,2.838l1.244,2.761l1.205,2.644l1.167,2.565l1.088,2.449l1.05,2.333l0.972,2.138l0.895,2.021l0.816,1.827l0.738,1.594
		l0.622,1.438l0.544,1.167l0.428,0.972l0.312,0.699l0.194,0.428c0.194,0.155,0.311,0.155,0.311,0.155c0.194,0,0.428,0,0.428,0h0.272
		h0.311h0.312h0.389h0.428h0.428h0.466h0.467h0.544h0.506h0.544h0.545h0.544h0.583h0.544h0.584h0.583h0.544h0.544h0.545h0.505h0.506
		h0.505h0.467h0.428h0.428h0.389h0.311h0.312h0.271h0.233c0.194,0,0.312,0,0.312,0c0.116-0.194,0.116-0.66,0.116-0.66v-0.816v-1.128
		v-1.36v-1.672v-1.866v-2.099v-2.333v-2.488v-2.682v-2.838v-2.994v-3.109v-3.188v-3.266v-3.382v-3.382v-3.46v-3.46v-3.46v-3.46
		v-3.383v-3.382v-3.266v-3.227v-3.071v-2.993v-2.838v-2.683v-2.488v-2.332v-2.1v-1.905v-1.633v-1.36v-1.127v-0.816v-0.506
		C344.725,551.537,334.384,551.537,334.384,551.537z"/>
</g>
<g id="LWPOLYLINE_13_">
	
		<path fill="none" stroke="#000000" stroke-width="0.7087" stroke-linecap="round" stroke-linejoin="round" stroke-miterlimit="10" d="
		M415.595,551.537c0,0.155,0,0.583,0,0.583v0.7v0.933v1.166v1.399v1.633v1.789v1.982v2.138v2.294v2.41v2.527v2.644v2.76v2.799v2.838
		v2.916v2.954v2.955v2.954v2.916v2.916v2.877v2.799v2.721v2.644v2.566v2.41v2.294v2.138v1.982v1.789v1.594v1.399v1.205v0.933v0.7
		v0.428c-0.077,0-0.271-0.428-0.271-0.428l-0.312-0.7l-0.389-0.933l-0.544-1.205l-0.622-1.399l-0.7-1.594l-0.816-1.789l-0.894-1.982
		l-0.934-2.138l-1.011-2.294l-1.088-2.41l-1.128-2.566l-1.166-2.644l-1.205-2.721l-1.244-2.799l-1.283-2.877l-1.282-2.916
		l-1.322-2.916l-1.321-2.954l-1.322-2.955l-1.283-2.954l-1.282-2.916l-1.283-2.838l-1.244-2.799l-1.205-2.76l-1.205-2.644
		l-1.127-2.527l-1.05-2.41l-1.05-2.294l-0.933-2.138l-0.895-1.982l-0.777-1.789l-0.739-1.633l-0.622-1.399l-0.505-1.166
		l-0.428-0.933l-0.311-0.7l-0.194-0.428c-0.156-0.155-0.312-0.155-0.312-0.155c-0.194,0-0.428,0-0.428,0h-0.271h-0.351h-0.35h-0.389
		h-0.428h-0.467h-0.505h-0.506h-0.544h-0.544h-0.584h-0.544h-0.622h-0.583h-0.583h-0.622h-0.583h-0.583h-0.583h-0.545H369.1h-0.505
		h-0.506h-0.505h-0.467h-0.428h-0.389h-0.389h-0.312h-0.271h-0.272c-0.155,0-0.311,0-0.311,0c-0.117,0.155-0.117,0.661-0.117,0.661
		v0.816v1.127v1.36v1.633v1.905v2.1v2.332v2.488v2.683v2.838v2.993v3.071v3.227v3.266v3.382v3.383v3.46v3.46v3.46v3.46v3.382v3.382
		v3.266v3.188v3.109v2.994v2.838v2.682v2.488v2.333v2.099v1.866v1.672v1.36v1.128v0.816v0.466c0.155,0.194,0.272,0.194,0.272,0.194
		c0.155,0,0.35,0,0.35,0h0.233h0.233h0.233h0.311h0.272h0.35h0.312h0.35h0.35h0.389h0.35h0.39h0.389h0.389h0.389h0.389h0.389h0.389
		h0.35h0.351h0.35h0.35h0.312h0.311h0.272h0.271h0.233h0.194c0.194,0,0.351,0,0.351,0c0.116,0,0.194,0,0.194,0
		c0.077-0.155,0.077-0.583,0.077-0.583v-0.699v-0.972v-1.167v-1.438v-1.594v-1.827v-2.021v-2.138v-2.333v-2.449v-2.565v-2.644
		v-2.761v-2.838v-2.915v-2.916v-2.993v-2.955v-2.993v-2.954v-2.955v-2.877v-2.838v-2.76v-2.683v-2.565v-2.449v-2.294v-2.177v-1.983
		v-1.827v-1.633v-1.399v-1.205v-0.933v-0.7v-0.428c0.078,0,0.272,0.428,0.272,0.428l0.311,0.7l0.428,0.933l0.545,1.205l0.622,1.399
		l0.738,1.633l0.816,1.827l0.895,1.983l0.972,2.177l1.05,2.294l1.088,2.449l1.166,2.565l1.206,2.683l1.243,2.76l1.283,2.838
		l1.283,2.877l1.321,2.955l1.361,2.954l1.321,2.993l1.36,2.955l1.322,2.993l1.321,2.916l1.283,2.915l1.283,2.838l1.244,2.761
		l1.205,2.644l1.166,2.565l1.089,2.449l1.049,2.333l0.973,2.138l0.894,2.021l0.816,1.827l0.739,1.594l0.622,1.438l0.544,1.167
		l0.428,0.972l0.311,0.699l0.194,0.428c0.194,0.155,0.312,0.155,0.312,0.155c0.194,0,0.428,0,0.428,0h0.271h0.272h0.35h0.389h0.428
		h0.428h0.467h0.467h0.544h0.505h0.545h0.544h0.544h0.583h0.545h0.583h0.583h0.544h0.545h0.544h0.506h0.505h0.506h0.466h0.428h0.428
		h0.389h0.312h0.311h0.272h0.233c0.194,0,0.311,0,0.311,0c0.117-0.194,0.117-0.66,0.117-0.66v-0.816v-1.128v-1.36v-1.672v-1.866
		v-2.099v-2.333v-2.488v-2.682v-2.838v-2.994v-3.109v-3.188v-3.266v-3.382v-3.382v-3.46v-3.46v-3.46v-3.46v-3.383v-3.382v-3.266
		v-3.227v-3.071v-2.993v-2.838v-2.683v-2.488v-2.332v-2.1v-1.905v-1.633v-1.36v-1.127v-0.816v-0.506
		C425.937,551.537,415.595,551.537,415.595,551.537z"/>
</g>
<g id="LWPOLYLINE_14_">
	
		<path fill="none" stroke="#000000" stroke-width="0.7087" stroke-linecap="round" stroke-linejoin="round" stroke-miterlimit="10" d="
		M492.803,643.905c0-0.155,0-0.311,0-0.311c0-0.155,0-0.312,0-0.312v-0.232v-0.233v-0.272v-0.272v-0.311v-0.311v-0.312v-0.35v-0.351
		v-0.389v-0.389v-0.35v-0.389v-0.389v-0.389v-0.389v-0.389v-0.39v-0.35v-0.35v-0.35v-0.351v-0.311v-0.312v-0.271v-0.272v-0.233
		v-0.194c0-0.194,0-0.35,0-0.35c0-0.116,0-0.233,0-0.233c-0.039-0.039-0.233-0.039-0.233-0.039h-0.312h-0.466h-0.506h-0.661h-0.699
		h-0.855h-0.895h-0.972h-1.011h-1.127h-1.128h-1.205h-1.244h-1.282h-1.322h-1.321h-1.322h-1.321h-1.361h-1.321h-1.322h-1.321h-1.283
		h-1.244h-1.205h-1.127h-1.128h-1.011h-0.972h-0.895h-0.816h-0.738h-0.661h-0.505h-0.428h-0.35c-0.194,0-0.233,0-0.233,0
		c0-0.077,0-0.233,0-0.233v-0.311v-0.35v-0.506v-0.544v-0.661v-0.738v-0.777v-0.855v-0.934v-0.972v-1.05v-1.05v-1.127v-1.127v-1.167
		v-1.166v-1.166v-1.205v-1.205v-1.167v-1.205v-1.127v-1.128v-1.127v-1.05v-1.05v-0.972v-0.933v-0.855v-0.777v-0.739v-0.66v-0.545
		v-0.505v-0.389v-0.272c0-0.155,0-0.233,0-0.233c0.039,0,0.233,0,0.233,0h0.271h0.389h0.506h0.583h0.661h0.738h0.816h0.895h0.933
		h1.011h1.05h1.089h1.127h1.166h1.205h1.205h1.205h1.244h1.205h1.206h1.205h1.205h1.166h1.127h1.089h1.05h1.011h0.933h0.895h0.816
		h0.738h0.661h0.583h0.506h0.389h0.271c0.194,0,0.233,0,0.233,0c0-0.155,0-0.272,0-0.272c0-0.155,0-0.35,0-0.35v-0.194v-0.233
		v-0.271v-0.272v-0.312v-0.311v-0.35v-0.351v-0.35v-0.35v-0.389v-0.389v-0.389v-0.389v-0.39v-0.389v-0.389V595v-0.389v-0.35v-0.351
		v-0.311v-0.35v-0.272v-0.311v-0.233v-0.233v-0.233c0-0.155,0-0.312,0-0.312c0-0.155,0-0.232,0-0.232
		c-0.039-0.078-0.233-0.078-0.233-0.078h-0.271h-0.389h-0.506h-0.583h-0.661h-0.738h-0.816h-0.895h-0.933h-1.011h-1.05h-1.089
		h-1.127h-1.166h-1.205h-1.205h-1.206h-1.205h-1.244h-1.205h-1.205h-1.205H467.3h-1.127h-1.089h-1.05h-1.011h-0.933h-0.895h-0.816
		h-0.738h-0.661h-0.583h-0.506h-0.389h-0.271c-0.194,0-0.233,0-0.233,0c0-0.039,0-0.194,0-0.194v-0.272v-0.35v-0.428v-0.544v-0.583
		v-0.7v-0.738v-0.777v-0.855v-0.934v-0.933v-0.972v-1.05v-1.05v-1.05v-1.088v-1.089v-1.128v-1.088v-1.089v-1.088v-1.089v-1.05
		v-1.011v-1.011v-0.933v-0.895v-0.855v-0.816v-0.738v-0.661v-0.622v-0.505v-0.428v-0.389v-0.233c0-0.155,0-0.233,0-0.233
		c0.039,0,0.233,0,0.233,0h0.311h0.428h0.505h0.622h0.739h0.777h0.895h0.972h1.011h1.05h1.127h1.205h1.205h1.244h1.283h1.282h1.322
		h1.283h1.321h1.322h1.282h1.283h1.244h1.205h1.166h1.128h1.088h1.011h0.973h0.854h0.816h0.7h0.622h0.544h0.389h0.312
		c0.194,0,0.271,0,0.271,0c0-0.155,0-0.272,0-0.272c0-0.155,0-0.35,0-0.35v-0.194v-0.233v-0.272v-0.271v-0.312v-0.311v-0.35v-0.351
		v-0.35v-0.35v-0.389v-0.389v-0.389v-0.39v-0.389v-0.389v-0.389v-0.35v-0.389v-0.35v-0.351v-0.311v-0.351v-0.271v-0.312v-0.232
		v-0.233v-0.233c0-0.155,0-0.312,0-0.312c0-0.155,0-0.233,0-0.233c-0.077-0.077-0.35-0.077-0.35-0.077h-0.389h-0.544h-0.7h-0.816
		h-0.972h-1.05h-1.166h-1.244h-1.322h-1.438h-1.478h-1.556h-1.594h-1.633h-1.671h-1.711h-1.749h-1.711h-1.749h-1.711h-1.711h-1.671
		h-1.633h-1.594h-1.556h-1.478h-1.438h-1.322h-1.283h-1.127h-1.089h-0.933h-0.816h-0.7h-0.544h-0.389h-0.272
		c-0.077,0.155-0.077,0.661-0.077,0.661v0.816v1.127v1.36v1.633v1.905v2.1v2.332v2.488v2.683v2.838v2.993v3.071v3.227v3.266v3.382
		v3.383v3.46v3.46v3.46v3.46v3.382v3.382v3.266v3.188v3.109v2.994v2.838v2.682v2.488v2.333v2.099v1.866v1.672v1.36v1.128v0.816
		v0.466C445.841,643.905,492.803,643.905,492.803,643.905z"/>
</g>
<g id="LWPOLYLINE_15_">
	
		<path fill="none" stroke="#000000" stroke-width="0.7087" stroke-linecap="round" stroke-linejoin="round" stroke-miterlimit="10" d="
		M550.922,643.905c0-0.155,0-0.311,0-0.311c0-0.155,0-0.312,0-0.312v-0.232v-0.233v-0.272v-0.272v-0.311v-0.311v-0.312v-0.35v-0.351
		v-0.389v-0.389v-0.35v-0.389v-0.389v-0.389v-0.389v-0.389v-0.39v-0.35v-0.35v-0.35v-0.351v-0.311v-0.312v-0.271v-0.272v-0.233
		v-0.194c0-0.194,0-0.35,0-0.35c0-0.116,0-0.233,0-0.233c-0.039-0.039-0.233-0.039-0.233-0.039h-0.272h-0.428h-0.505H548.9h-0.661
		h-0.777h-0.855h-0.895h-0.972h-1.011h-1.089h-1.127h-1.166h-1.167h-1.244h-1.205h-1.243h-1.283h-1.244h-1.244h-1.244h-1.205h-1.205
		h-1.127h-1.128h-1.088h-1.012h-0.972h-0.933h-0.816h-0.777h-0.7h-0.583h-0.506h-0.389h-0.311c-0.155,0-0.233,0-0.233,0
		c0-0.155,0-0.622,0-0.622v-0.699v-1.011v-1.205v-1.478v-1.672v-1.866v-2.06v-2.217v-2.371v-2.526v-2.644v-2.761v-2.838v-2.916
		v-2.993v-3.032v-3.032v-3.071v-3.071v-3.071v-3.032v-2.954v-2.916v-2.877v-2.721v-2.644v-2.527v-2.371v-2.255v-2.061v-1.866v-1.672
		v-1.438v-1.243v-0.973v-0.738v-0.428c-0.155-0.155-0.311-0.155-0.311-0.155c-0.156,0-0.351,0-0.351,0h-0.233h-0.271h-0.272h-0.311
		h-0.312h-0.35h-0.35h-0.389h-0.39h-0.389h-0.389h-0.428h-0.389h-0.428h-0.427h-0.428h-0.389h-0.428h-0.389h-0.39h-0.35h-0.389
		h-0.311h-0.351h-0.271h-0.312h-0.233h-0.232c-0.195,0-0.39,0-0.39,0c-0.116,0-0.194,0-0.194,0
		c-0.116,0.155-0.116,0.661-0.116,0.661v0.816v1.127v1.36v1.633v1.905v2.1v2.332v2.488v2.683v2.838v2.993v3.071v3.227v3.266v3.382
		v3.383v3.46v3.46v3.46v3.46v3.382v3.382v3.266v3.188v3.109v2.994v2.838v2.682v2.488v2.333v2.099v1.866v1.672v1.36v1.128v0.816
		v0.466C506.331,643.905,550.922,643.905,550.922,643.905z"/>
</g>
<g id="LWPOLYLINE_16_">
	
		<path fill="none" stroke="#000000" stroke-width="0.7087" stroke-linecap="round" stroke-linejoin="round" stroke-miterlimit="10" d="
		M302.545,229.082c0.155,0,0.271,0.02,0.271,0.02c0.156,0,0.312,0,0.312,0c0.155,0.02,0.311,0.039,0.311,0.039
		c0.155,0.02,0.312,0.039,0.312,0.039c0.155,0.02,0.311,0.039,0.311,0.039c0.155,0.038,0.272,0.058,0.272,0.058
		c0.155,0.039,0.311,0.078,0.311,0.078c0.156,0.039,0.312,0.078,0.312,0.078c0.116,0.038,0.271,0.077,0.271,0.077
		c0.156,0.059,0.312,0.117,0.312,0.117c0.116,0.038,0.272,0.097,0.272,0.097c0.155,0.059,0.271,0.117,0.271,0.117
		c0.155,0.077,0.272,0.136,0.272,0.136c0.155,0.059,0.272,0.136,0.272,0.136c0.155,0.078,0.271,0.156,0.271,0.156
		c0.155,0.077,0.272,0.155,0.272,0.155c0.116,0.077,0.272,0.155,0.272,0.155c0.116,0.098,0.232,0.175,0.232,0.175
		c0.117,0.098,0.233,0.194,0.233,0.194c0.117,0.098,0.233,0.194,0.233,0.194c0.116,0.098,0.233,0.194,0.233,0.194
		c0.116,0.098,0.233,0.214,0.233,0.214c0.116,0.098,0.233,0.214,0.233,0.214c0.077,0.117,0.194,0.214,0.194,0.214
		c0.116,0.117,0.194,0.233,0.194,0.233c0.116,0.116,0.194,0.233,0.194,0.233c0.116,0.136,0.194,0.253,0.194,0.253
		c0.077,0.136,0.155,0.252,0.155,0.252c0.116,0.117,0.194,0.253,0.194,0.253c0.078,0.136,0.155,0.272,0.155,0.272
		c0.078,0.136,0.117,0.252,0.117,0.252c0.077,0.137,0.155,0.272,0.155,0.272c0.078,0.155,0.116,0.292,0.116,0.292
		c0.078,0.136,0.117,0.271,0.117,0.271c0.077,0.137,0.116,0.292,0.116,0.292c0.078,0.136,0.117,0.292,0.117,0.292
		c0.038,0.136,0.077,0.291,0.077,0.291c0.039,0.136,0.078,0.292,0.078,0.292c0.039,0.155,0.078,0.291,0.078,0.291
		c0.038,0.155,0.038,0.312,0.038,0.312c0.039,0.136,0.078,0.291,0.078,0.291c0,0.155,0.039,0.312,0.039,0.312
		c0,0.155,0,0.291,0,0.291c0.039,0.156,0.039,0.312,0.039,0.312c0,0.155,0,0.311,0,0.311c0,0.155,0,0.312,0,0.312
		c0,0.155-0.039,0.291-0.039,0.291c0,0.155,0,0.312,0,0.312c-0.039,0.155-0.039,0.311-0.039,0.311
		c-0.039,0.137-0.078,0.292-0.078,0.292c0,0.155-0.038,0.311-0.038,0.311c-0.039,0.137-0.078,0.292-0.078,0.292
		c-0.039,0.155-0.078,0.291-0.078,0.291c-0.039,0.156-0.077,0.292-0.077,0.292c-0.039,0.155-0.117,0.291-0.117,0.291
		c-0.039,0.137-0.116,0.292-0.116,0.292c-0.039,0.136-0.117,0.272-0.117,0.272c-0.038,0.136-0.116,0.271-0.116,0.271
		c-0.078,0.137-0.155,0.272-0.155,0.272c-0.039,0.136-0.117,0.272-0.117,0.272c-0.077,0.136-0.155,0.271-0.155,0.271
		c-0.078,0.117-0.194,0.253-0.194,0.253c-0.078,0.117-0.155,0.253-0.155,0.253c-0.078,0.116-0.194,0.233-0.194,0.233
		c-0.078,0.116-0.194,0.252-0.194,0.252c-0.078,0.117-0.194,0.214-0.194,0.214c-0.117,0.117-0.194,0.233-0.194,0.233
		c-0.117,0.098-0.233,0.214-0.233,0.214c-0.117,0.098-0.233,0.214-0.233,0.214c-0.117,0.098-0.233,0.194-0.233,0.194
		c-0.116,0.098-0.233,0.194-0.233,0.194c-0.116,0.098-0.233,0.175-0.233,0.175c-0.116,0.098-0.232,0.176-0.232,0.176
		c-0.156,0.097-0.272,0.175-0.272,0.175c-0.117,0.077-0.272,0.155-0.272,0.155c-0.116,0.078-0.271,0.155-0.271,0.155
		c-0.117,0.059-0.272,0.136-0.272,0.136c-0.117,0.059-0.272,0.137-0.272,0.137c-0.116,0.059-0.271,0.116-0.271,0.116
		c-0.156,0.059-0.272,0.098-0.272,0.098c-0.155,0.058-0.312,0.097-0.312,0.097c-0.155,0.059-0.271,0.098-0.271,0.098
		c-0.155,0.039-0.312,0.077-0.312,0.077c-0.155,0.039-0.311,0.078-0.311,0.078c-0.117,0.02-0.272,0.059-0.272,0.059
		c-0.155,0.02-0.311,0.039-0.311,0.039c-0.156,0.019-0.312,0.038-0.312,0.038c-0.155,0.02-0.311,0.02-0.311,0.02
		c-0.155,0.02-0.312,0.02-0.312,0.02c-0.116,0-0.271,0-0.271,0c-0.156,0-0.312,0-0.312,0c-0.155,0-0.311-0.02-0.311-0.02
		c-0.156,0-0.312-0.02-0.312-0.02c-0.155-0.02-0.311-0.038-0.311-0.038c-0.156-0.02-0.312-0.039-0.312-0.039
		c-0.116-0.039-0.271-0.059-0.271-0.059c-0.156-0.039-0.312-0.078-0.312-0.078c-0.155-0.038-0.272-0.077-0.272-0.077
		c-0.155-0.039-0.311-0.098-0.311-0.098c-0.155-0.039-0.272-0.097-0.272-0.097c-0.155-0.039-0.311-0.098-0.311-0.098
		c-0.117-0.058-0.272-0.116-0.272-0.116c-0.155-0.078-0.271-0.137-0.271-0.137c-0.156-0.077-0.272-0.136-0.272-0.136
		c-0.155-0.077-0.272-0.155-0.272-0.155c-0.116-0.078-0.271-0.155-0.271-0.155c-0.117-0.078-0.233-0.175-0.233-0.175
		c-0.156-0.078-0.272-0.176-0.272-0.176c-0.116-0.077-0.233-0.175-0.233-0.175c-0.116-0.097-0.233-0.194-0.233-0.194
		c-0.116-0.097-0.233-0.194-0.233-0.194c-0.116-0.116-0.232-0.214-0.232-0.214c-0.117-0.116-0.194-0.214-0.194-0.214
		c-0.117-0.116-0.233-0.233-0.233-0.233c-0.078-0.097-0.194-0.214-0.194-0.214c-0.078-0.136-0.194-0.252-0.194-0.252
		c-0.078-0.117-0.194-0.233-0.194-0.233c-0.078-0.136-0.156-0.253-0.156-0.253c-0.077-0.136-0.155-0.253-0.155-0.253
		c-0.116-0.136-0.194-0.271-0.194-0.271c-0.039-0.137-0.116-0.272-0.116-0.272c-0.078-0.136-0.156-0.272-0.156-0.272
		c-0.077-0.136-0.116-0.271-0.116-0.271c-0.078-0.137-0.116-0.272-0.116-0.272c-0.078-0.155-0.117-0.292-0.117-0.292
		c-0.039-0.136-0.116-0.291-0.116-0.291c-0.039-0.136-0.078-0.292-0.078-0.292c-0.039-0.136-0.078-0.291-0.078-0.291
		c-0.038-0.155-0.077-0.292-0.077-0.292c-0.039-0.155-0.039-0.311-0.039-0.311c-0.039-0.155-0.078-0.292-0.078-0.292
		c0-0.155,0-0.311,0-0.311c-0.038-0.156-0.038-0.312-0.038-0.312c0-0.136-0.039-0.291-0.039-0.291c0-0.156,0-0.312,0-0.312
		c0-0.155,0-0.311,0-0.311c0.039-0.155,0.039-0.312,0.039-0.312c0-0.136,0.038-0.291,0.038-0.291c0-0.156,0-0.312,0-0.312
		c0.039-0.155,0.078-0.291,0.078-0.291c0-0.156,0.039-0.312,0.039-0.312c0.039-0.136,0.077-0.291,0.077-0.291
		c0.039-0.156,0.078-0.292,0.078-0.292c0.039-0.155,0.078-0.291,0.078-0.291c0.077-0.156,0.116-0.292,0.116-0.292
		c0.039-0.155,0.117-0.292,0.117-0.292c0.038-0.136,0.116-0.271,0.116-0.271c0.039-0.137,0.116-0.292,0.116-0.292
		c0.078-0.136,0.156-0.272,0.156-0.272c0.077-0.116,0.116-0.252,0.116-0.252c0.078-0.137,0.194-0.272,0.194-0.272
		c0.078-0.136,0.155-0.253,0.155-0.253c0.078-0.116,0.156-0.252,0.156-0.252c0.116-0.117,0.194-0.253,0.194-0.253
		c0.116-0.117,0.194-0.233,0.194-0.233c0.116-0.116,0.194-0.233,0.194-0.233c0.116-0.097,0.233-0.214,0.233-0.214
		c0.077-0.116,0.194-0.214,0.194-0.214c0.116-0.116,0.232-0.214,0.232-0.214c0.117-0.097,0.233-0.194,0.233-0.194
		c0.117-0.097,0.233-0.194,0.233-0.194c0.117-0.097,0.233-0.194,0.233-0.194c0.116-0.077,0.272-0.175,0.272-0.175
		c0.116-0.078,0.233-0.155,0.233-0.155c0.155-0.078,0.271-0.155,0.271-0.155c0.117-0.078,0.272-0.156,0.272-0.156
		c0.116-0.077,0.272-0.136,0.272-0.136c0.116-0.059,0.271-0.136,0.271-0.136c0.155-0.059,0.272-0.117,0.272-0.117
		c0.155-0.059,0.311-0.097,0.311-0.097c0.117-0.059,0.272-0.117,0.272-0.117c0.155-0.039,0.311-0.077,0.311-0.077
		c0.117-0.039,0.272-0.078,0.272-0.078c0.155-0.039,0.312-0.078,0.312-0.078c0.155-0.02,0.271-0.058,0.271-0.058
		c0.155-0.02,0.312-0.039,0.312-0.039c0.155-0.02,0.311-0.039,0.311-0.039c0.155-0.02,0.312-0.039,0.312-0.039
		c0.155,0,0.311,0,0.311,0C302.389,229.082,302.545,229.082,302.545,229.082z"/>
</g>
<g id="LWPOLYLINE_17_">
	
		<path fill="none" stroke="#000000" stroke-width="0.7087" stroke-linecap="round" stroke-linejoin="round" stroke-miterlimit="10" d="
		M358.643,229.082c0.155,0,0.311,0.02,0.311,0.02c0.155,0,0.272,0,0.272,0c0.155,0.02,0.311,0.039,0.311,0.039
		c0.155,0.02,0.272,0.039,0.272,0.039c0.155,0.02,0.311,0.039,0.311,0.039c0.117,0.038,0.272,0.058,0.272,0.058
		c0.155,0.039,0.272,0.078,0.272,0.078c0.155,0.039,0.311,0.078,0.311,0.078c0.117,0.038,0.272,0.077,0.272,0.077
		c0.116,0.059,0.271,0.117,0.271,0.117c0.117,0.038,0.272,0.097,0.272,0.097c0.117,0.059,0.272,0.117,0.272,0.117
		c0.116,0.077,0.271,0.136,0.271,0.136c0.117,0.059,0.233,0.136,0.233,0.136c0.156,0.078,0.272,0.156,0.272,0.156
		c0.116,0.077,0.233,0.155,0.233,0.155c0.155,0.077,0.271,0.155,0.271,0.155c0.117,0.098,0.233,0.175,0.233,0.175
		c0.117,0.098,0.233,0.194,0.233,0.194c0.117,0.098,0.233,0.194,0.233,0.194c0.116,0.098,0.194,0.194,0.194,0.194
		c0.116,0.098,0.233,0.214,0.233,0.214c0.116,0.098,0.194,0.214,0.194,0.214c0.116,0.117,0.194,0.214,0.194,0.214
		c0.116,0.117,0.194,0.233,0.194,0.233c0.116,0.116,0.194,0.233,0.194,0.233c0.078,0.136,0.155,0.253,0.155,0.253
		c0.117,0.136,0.194,0.252,0.194,0.252c0.078,0.117,0.156,0.253,0.156,0.253c0.077,0.136,0.155,0.272,0.155,0.272
		c0.077,0.136,0.116,0.252,0.116,0.252c0.078,0.137,0.156,0.272,0.156,0.272c0.038,0.155,0.116,0.292,0.116,0.292
		c0.039,0.136,0.116,0.271,0.116,0.271c0.039,0.137,0.117,0.292,0.117,0.292c0.039,0.136,0.077,0.292,0.077,0.292
		c0.039,0.136,0.078,0.291,0.078,0.291c0.039,0.136,0.078,0.292,0.078,0.292c0.038,0.155,0.077,0.291,0.077,0.291
		c0.039,0.155,0.039,0.312,0.039,0.312c0.039,0.136,0.039,0.291,0.039,0.291c0.039,0.155,0.039,0.312,0.039,0.312
		c0.038,0.155,0.038,0.291,0.038,0.291c0,0.156,0,0.312,0,0.312c0,0.155,0,0.311,0,0.311c0,0.155,0,0.312,0,0.312
		c0,0.155,0,0.291,0,0.291c0,0.155-0.038,0.312-0.038,0.312c0,0.155-0.039,0.311-0.039,0.311c0,0.137-0.039,0.292-0.039,0.292
		c0,0.155-0.039,0.311-0.039,0.311c-0.039,0.137-0.077,0.292-0.077,0.292c-0.039,0.155-0.078,0.291-0.078,0.291
		c-0.039,0.156-0.078,0.292-0.078,0.292c-0.038,0.155-0.077,0.291-0.077,0.291c-0.078,0.137-0.117,0.292-0.117,0.292
		c-0.077,0.136-0.116,0.272-0.116,0.272c-0.078,0.136-0.116,0.271-0.116,0.271c-0.078,0.137-0.156,0.272-0.156,0.272
		c-0.039,0.136-0.116,0.272-0.116,0.272c-0.078,0.136-0.155,0.271-0.155,0.271c-0.078,0.117-0.156,0.253-0.156,0.253
		c-0.077,0.117-0.194,0.253-0.194,0.253c-0.077,0.116-0.155,0.233-0.155,0.233c-0.078,0.116-0.194,0.252-0.194,0.252
		c-0.078,0.117-0.194,0.214-0.194,0.214c-0.078,0.117-0.194,0.233-0.194,0.233c-0.078,0.098-0.194,0.214-0.194,0.214
		c-0.117,0.098-0.233,0.214-0.233,0.214c-0.078,0.098-0.194,0.194-0.194,0.194c-0.116,0.098-0.233,0.194-0.233,0.194
		c-0.116,0.098-0.233,0.175-0.233,0.175c-0.116,0.098-0.233,0.176-0.233,0.176c-0.116,0.097-0.271,0.175-0.271,0.175
		c-0.117,0.077-0.233,0.155-0.233,0.155c-0.116,0.078-0.272,0.155-0.272,0.155c-0.116,0.059-0.233,0.136-0.233,0.136
		c-0.155,0.059-0.271,0.137-0.271,0.137c-0.155,0.059-0.272,0.116-0.272,0.116c-0.155,0.059-0.272,0.098-0.272,0.098
		c-0.155,0.058-0.271,0.097-0.271,0.097c-0.155,0.059-0.272,0.098-0.272,0.098c-0.155,0.039-0.311,0.077-0.311,0.077
		c-0.117,0.039-0.272,0.078-0.272,0.078c-0.155,0.02-0.272,0.059-0.272,0.059c-0.155,0.02-0.311,0.039-0.311,0.039
		c-0.117,0.019-0.272,0.038-0.272,0.038c-0.155,0.02-0.311,0.02-0.311,0.02c-0.117,0.02-0.272,0.02-0.272,0.02
		c-0.155,0-0.311,0-0.311,0c-0.117,0-0.272,0-0.272,0c-0.155,0-0.312-0.02-0.312-0.02c-0.116,0-0.271-0.02-0.271-0.02
		c-0.155-0.02-0.272-0.038-0.272-0.038c-0.155-0.02-0.311-0.039-0.311-0.039c-0.156-0.039-0.272-0.059-0.272-0.059
		c-0.155-0.039-0.311-0.078-0.311-0.078c-0.117-0.038-0.272-0.077-0.272-0.077c-0.117-0.039-0.272-0.098-0.272-0.098
		c-0.155-0.039-0.271-0.097-0.271-0.097c-0.156-0.039-0.272-0.098-0.272-0.098c-0.155-0.058-0.272-0.116-0.272-0.116
		c-0.116-0.078-0.271-0.137-0.271-0.137c-0.117-0.077-0.272-0.136-0.272-0.136c-0.116-0.077-0.233-0.155-0.233-0.155
		c-0.116-0.078-0.233-0.155-0.233-0.155c-0.155-0.078-0.271-0.175-0.271-0.175c-0.117-0.078-0.233-0.176-0.233-0.176
		c-0.117-0.077-0.233-0.175-0.233-0.175c-0.117-0.097-0.233-0.194-0.233-0.194c-0.116-0.097-0.194-0.194-0.194-0.194
		c-0.116-0.116-0.233-0.214-0.233-0.214c-0.116-0.116-0.194-0.214-0.194-0.214c-0.116-0.116-0.194-0.233-0.194-0.233
		c-0.116-0.097-0.194-0.214-0.194-0.214c-0.116-0.136-0.194-0.252-0.194-0.252c-0.078-0.117-0.194-0.233-0.194-0.233
		c-0.078-0.136-0.155-0.253-0.155-0.253c-0.078-0.136-0.156-0.253-0.156-0.253c-0.077-0.136-0.155-0.271-0.155-0.271
		c-0.077-0.137-0.116-0.272-0.116-0.272c-0.078-0.136-0.155-0.272-0.155-0.272c-0.039-0.136-0.117-0.271-0.117-0.271
		c-0.039-0.137-0.116-0.272-0.116-0.272c-0.039-0.155-0.117-0.292-0.117-0.292c-0.039-0.136-0.077-0.291-0.077-0.291
		c-0.039-0.136-0.078-0.292-0.078-0.292c-0.039-0.136-0.078-0.291-0.078-0.291c-0.038-0.155-0.077-0.292-0.077-0.292
		c-0.039-0.155-0.039-0.311-0.039-0.311c-0.039-0.155-0.078-0.292-0.078-0.292c0-0.155,0-0.311,0-0.311
		c-0.038-0.156-0.038-0.312-0.038-0.312c0-0.136,0-0.291,0-0.291c-0.039-0.156-0.039-0.312-0.039-0.312
		c0-0.155,0.039-0.311,0.039-0.311c0-0.155,0-0.312,0-0.312c0-0.136,0.038-0.291,0.038-0.291c0-0.156,0-0.312,0-0.312
		c0.039-0.155,0.078-0.291,0.078-0.291c0-0.156,0.039-0.312,0.039-0.312c0.039-0.136,0.077-0.291,0.077-0.291
		c0.039-0.156,0.078-0.292,0.078-0.292c0.039-0.155,0.078-0.291,0.078-0.291c0.038-0.156,0.077-0.292,0.077-0.292
		c0.078-0.155,0.117-0.292,0.117-0.292c0.077-0.136,0.116-0.271,0.116-0.271c0.078-0.137,0.117-0.292,0.117-0.292
		c0.077-0.136,0.155-0.272,0.155-0.272c0.039-0.116,0.116-0.252,0.116-0.252c0.078-0.137,0.155-0.272,0.155-0.272
		c0.078-0.136,0.156-0.253,0.156-0.253c0.077-0.116,0.155-0.252,0.155-0.252c0.116-0.117,0.194-0.253,0.194-0.253
		c0.078-0.117,0.194-0.233,0.194-0.233c0.078-0.116,0.194-0.233,0.194-0.233c0.078-0.097,0.194-0.214,0.194-0.214
		c0.078-0.116,0.194-0.214,0.194-0.214c0.117-0.116,0.233-0.214,0.233-0.214c0.078-0.097,0.194-0.194,0.194-0.194
		c0.116-0.097,0.233-0.194,0.233-0.194c0.116-0.097,0.233-0.194,0.233-0.194c0.116-0.077,0.233-0.175,0.233-0.175
		c0.116-0.078,0.271-0.155,0.271-0.155c0.117-0.078,0.233-0.155,0.233-0.155c0.117-0.078,0.233-0.156,0.233-0.156
		c0.155-0.077,0.272-0.136,0.272-0.136c0.155-0.059,0.271-0.136,0.271-0.136c0.117-0.059,0.272-0.117,0.272-0.117
		c0.116-0.059,0.272-0.097,0.272-0.097c0.116-0.059,0.271-0.117,0.271-0.117c0.155-0.039,0.272-0.077,0.272-0.077
		c0.155-0.039,0.272-0.078,0.272-0.078c0.155-0.039,0.311-0.078,0.311-0.078c0.116-0.02,0.272-0.058,0.272-0.058
		c0.155-0.02,0.311-0.039,0.311-0.039c0.117-0.02,0.272-0.039,0.272-0.039c0.155-0.02,0.271-0.039,0.271-0.039
		c0.156,0,0.312,0,0.312,0C358.525,229.082,358.643,229.082,358.643,229.082z"/>
</g>
<g id="LWPOLYLINE_18_">
	
		<path fill="none" stroke="#000000" stroke-width="0.7087" stroke-linecap="round" stroke-linejoin="round" stroke-miterlimit="10" d="
		M246.408,229.082c0.136,0,0.291,0.02,0.291,0.02c0.137,0,0.292,0,0.292,0c0.136,0.02,0.272,0.039,0.272,0.039
		c0.155,0.02,0.291,0.039,0.291,0.039c0.155,0.02,0.292,0.039,0.292,0.039c0.155,0.038,0.291,0.058,0.291,0.058
		c0.137,0.039,0.292,0.078,0.292,0.078c0.136,0.039,0.272,0.078,0.272,0.078c0.136,0.038,0.271,0.077,0.271,0.077
		c0.155,0.059,0.292,0.117,0.292,0.117c0.136,0.038,0.271,0.097,0.271,0.097c0.137,0.059,0.253,0.117,0.253,0.117
		c0.136,0.077,0.272,0.136,0.272,0.136c0.136,0.059,0.253,0.136,0.253,0.136c0.136,0.078,0.271,0.156,0.271,0.156
		c0.117,0.077,0.233,0.155,0.233,0.155c0.136,0.077,0.253,0.155,0.253,0.155c0.116,0.098,0.233,0.175,0.233,0.175
		c0.116,0.098,0.233,0.194,0.233,0.194c0.116,0.098,0.232,0.194,0.232,0.194c0.117,0.098,0.214,0.194,0.214,0.194
		c0.117,0.098,0.214,0.214,0.214,0.214c0.117,0.098,0.214,0.214,0.214,0.214c0.098,0.117,0.194,0.214,0.194,0.214
		c0.098,0.117,0.194,0.233,0.194,0.233c0.098,0.116,0.175,0.233,0.175,0.233c0.098,0.136,0.176,0.253,0.176,0.253
		c0.097,0.136,0.175,0.252,0.175,0.252c0.077,0.117,0.155,0.253,0.155,0.253c0.078,0.136,0.155,0.272,0.155,0.272
		c0.078,0.136,0.137,0.252,0.137,0.252c0.077,0.137,0.136,0.272,0.136,0.272c0.059,0.155,0.116,0.292,0.116,0.292
		c0.059,0.136,0.117,0.271,0.117,0.271c0.058,0.137,0.116,0.292,0.116,0.292c0.039,0.136,0.098,0.292,0.098,0.292
		c0.038,0.136,0.077,0.291,0.077,0.291c0.039,0.136,0.078,0.292,0.078,0.292c0.039,0.155,0.059,0.291,0.059,0.291
		c0.038,0.155,0.058,0.312,0.058,0.312c0.02,0.136,0.039,0.291,0.039,0.291c0.02,0.155,0.039,0.312,0.039,0.312
		c0.02,0.155,0.039,0.291,0.039,0.291c0,0.156,0,0.312,0,0.312c0.02,0.155,0.02,0.311,0.02,0.311c0,0.155-0.02,0.312-0.02,0.312
		c0,0.155,0,0.291,0,0.291c-0.02,0.155-0.039,0.312-0.039,0.312c-0.02,0.155-0.039,0.311-0.039,0.311
		c-0.02,0.137-0.039,0.292-0.039,0.292c-0.02,0.155-0.058,0.311-0.058,0.311c-0.02,0.137-0.059,0.292-0.059,0.292
		c-0.039,0.155-0.078,0.291-0.078,0.291c-0.039,0.156-0.077,0.292-0.077,0.292c-0.059,0.155-0.098,0.291-0.098,0.291
		c-0.059,0.137-0.116,0.292-0.116,0.292c-0.059,0.136-0.117,0.272-0.117,0.272c-0.058,0.136-0.116,0.271-0.116,0.271
		c-0.059,0.137-0.136,0.272-0.136,0.272c-0.059,0.136-0.137,0.272-0.137,0.272c-0.077,0.136-0.155,0.271-0.155,0.271
		c-0.078,0.117-0.155,0.253-0.155,0.253c-0.078,0.117-0.175,0.253-0.175,0.253c-0.078,0.116-0.176,0.233-0.176,0.233
		c-0.077,0.116-0.175,0.252-0.175,0.252c-0.097,0.117-0.194,0.214-0.194,0.214c-0.097,0.117-0.194,0.233-0.194,0.233
		c-0.097,0.098-0.214,0.214-0.214,0.214c-0.097,0.098-0.214,0.214-0.214,0.214c-0.097,0.098-0.214,0.194-0.214,0.194
		c-0.116,0.098-0.232,0.194-0.232,0.194c-0.117,0.098-0.233,0.175-0.233,0.175c-0.117,0.098-0.233,0.176-0.233,0.176
		c-0.117,0.097-0.253,0.175-0.253,0.175c-0.116,0.077-0.233,0.155-0.233,0.155c-0.136,0.078-0.271,0.155-0.271,0.155
		c-0.117,0.059-0.253,0.136-0.253,0.136c-0.137,0.059-0.272,0.137-0.272,0.137c-0.116,0.059-0.253,0.116-0.253,0.116
		c-0.136,0.059-0.271,0.098-0.271,0.098c-0.137,0.058-0.292,0.097-0.292,0.097c-0.136,0.059-0.271,0.098-0.271,0.098
		c-0.137,0.039-0.272,0.077-0.272,0.077c-0.155,0.039-0.292,0.078-0.292,0.078c-0.136,0.02-0.291,0.059-0.291,0.059
		c-0.137,0.02-0.292,0.039-0.292,0.039c-0.136,0.019-0.291,0.038-0.291,0.038c-0.137,0.02-0.272,0.02-0.272,0.02
		c-0.155,0.02-0.292,0.02-0.292,0.02c-0.155,0-0.291,0-0.291,0c-0.155,0-0.312,0-0.312,0c-0.136,0-0.271-0.02-0.271-0.02
		c-0.156,0-0.292-0.02-0.292-0.02c-0.155-0.02-0.291-0.038-0.291-0.038c-0.156-0.02-0.292-0.039-0.292-0.039
		c-0.155-0.039-0.292-0.059-0.292-0.059c-0.136-0.039-0.271-0.078-0.271-0.078c-0.155-0.038-0.292-0.077-0.292-0.077
		c-0.136-0.039-0.271-0.098-0.271-0.098c-0.137-0.039-0.292-0.097-0.292-0.097c-0.136-0.039-0.272-0.098-0.272-0.098
		c-0.116-0.058-0.252-0.116-0.252-0.116c-0.137-0.078-0.272-0.137-0.272-0.137c-0.136-0.077-0.253-0.136-0.253-0.136
		c-0.136-0.077-0.272-0.155-0.272-0.155c-0.116-0.078-0.232-0.155-0.232-0.155c-0.137-0.078-0.253-0.175-0.253-0.175
		c-0.117-0.078-0.233-0.176-0.233-0.176c-0.116-0.077-0.233-0.175-0.233-0.175c-0.116-0.097-0.233-0.194-0.233-0.194
		c-0.116-0.097-0.214-0.194-0.214-0.194c-0.116-0.116-0.214-0.214-0.214-0.214c-0.116-0.116-0.214-0.214-0.214-0.214
		c-0.097-0.116-0.194-0.233-0.194-0.233c-0.097-0.097-0.194-0.214-0.194-0.214c-0.097-0.136-0.175-0.252-0.175-0.252
		c-0.097-0.117-0.175-0.233-0.175-0.233c-0.097-0.136-0.175-0.253-0.175-0.253c-0.078-0.136-0.155-0.253-0.155-0.253
		c-0.078-0.136-0.156-0.271-0.156-0.271c-0.077-0.137-0.136-0.272-0.136-0.272c-0.077-0.136-0.136-0.272-0.136-0.272
		c-0.059-0.136-0.117-0.271-0.117-0.271c-0.058-0.137-0.116-0.272-0.116-0.272c-0.059-0.155-0.116-0.292-0.116-0.292
		c-0.039-0.136-0.098-0.291-0.098-0.291c-0.039-0.136-0.078-0.292-0.078-0.292c-0.038-0.136-0.077-0.291-0.077-0.291
		c-0.039-0.155-0.059-0.292-0.059-0.292c-0.039-0.155-0.059-0.311-0.059-0.311c-0.02-0.155-0.038-0.292-0.038-0.292
		c-0.02-0.155-0.039-0.311-0.039-0.311c-0.02-0.156-0.039-0.312-0.039-0.312c0-0.136,0-0.291,0-0.291c0-0.156-0.02-0.312-0.02-0.312
		c0.02-0.155,0.02-0.311,0.02-0.311c0-0.155,0-0.312,0-0.312c0.02-0.136,0.039-0.291,0.039-0.291
		c0.02-0.156,0.039-0.312,0.039-0.312c0.019-0.155,0.038-0.291,0.038-0.291c0.02-0.156,0.059-0.312,0.059-0.312
		c0.02-0.136,0.059-0.291,0.059-0.291c0.039-0.156,0.077-0.292,0.077-0.292c0.039-0.155,0.078-0.291,0.078-0.291
		c0.059-0.156,0.098-0.292,0.098-0.292c0.058-0.155,0.116-0.292,0.116-0.292c0.059-0.136,0.116-0.271,0.116-0.271
		c0.059-0.137,0.117-0.292,0.117-0.292c0.059-0.136,0.136-0.272,0.136-0.272c0.059-0.116,0.136-0.252,0.136-0.252
		c0.078-0.137,0.156-0.272,0.156-0.272c0.077-0.136,0.155-0.253,0.155-0.253c0.078-0.116,0.175-0.252,0.175-0.252
		c0.078-0.117,0.175-0.253,0.175-0.253c0.078-0.117,0.175-0.233,0.175-0.233c0.098-0.116,0.194-0.233,0.194-0.233
		c0.098-0.097,0.194-0.214,0.194-0.214c0.098-0.116,0.214-0.214,0.214-0.214c0.098-0.116,0.214-0.214,0.214-0.214
		c0.098-0.097,0.214-0.194,0.214-0.194c0.117-0.097,0.233-0.194,0.233-0.194c0.117-0.097,0.233-0.194,0.233-0.194
		c0.116-0.077,0.233-0.175,0.233-0.175c0.116-0.078,0.253-0.155,0.253-0.155c0.116-0.078,0.232-0.155,0.232-0.155
		c0.137-0.078,0.272-0.156,0.272-0.156c0.117-0.077,0.253-0.136,0.253-0.136c0.136-0.059,0.272-0.136,0.272-0.136
		c0.136-0.059,0.252-0.117,0.252-0.117c0.137-0.059,0.272-0.097,0.272-0.097c0.155-0.059,0.292-0.117,0.292-0.117
		c0.136-0.039,0.271-0.077,0.271-0.077c0.137-0.039,0.292-0.078,0.292-0.078c0.136-0.039,0.271-0.078,0.271-0.078
		c0.137-0.02,0.292-0.058,0.292-0.058c0.136-0.02,0.292-0.039,0.292-0.039c0.136-0.02,0.291-0.039,0.291-0.039
		c0.136-0.02,0.292-0.039,0.292-0.039c0.136,0,0.271,0,0.271,0C246.253,229.082,246.408,229.082,246.408,229.082z"/>
</g>
<g id="LWPOLYLINE_19_">
	
		<path fill="none" stroke="#000000" stroke-width="0.7087" stroke-linecap="round" stroke-linejoin="round" stroke-miterlimit="10" d="
		M167.276,243.428c0.098,0,0.214,0,0.214,0c0.155,0,0.369,0,0.369,0h0.233h0.272h0.311h0.331h0.369h0.389h0.408h0.447h0.446h0.467
		H172h0.505h0.486h0.506h0.505h0.506h0.485h0.506h0.485h0.486h0.467h0.446h0.428h0.408h0.389h0.37h0.33h0.311h0.272h0.253h0.194
		c0.155,0,0.272,0,0.272,0c0.097-0.194,0.097-0.72,0.097-0.72v-0.854v-1.167v-1.477v-1.73v-2.002v-2.235v-2.469v-2.663v-2.838
		v-3.013v-3.149v-3.284v-3.383v-3.499v-3.557v-3.615v-3.654v-3.654v-3.674v-3.654v-3.615v-3.558v-3.479v-3.401v-3.285v-3.148v-3.014
		v-2.838v-2.663v-2.468v-2.235v-1.983v-1.749v-1.458v-1.186v-0.855v-0.524c-0.194-0.175-0.33-0.175-0.33-0.175
		c-0.175,0-0.389,0-0.389,0h-0.253h-0.272h-0.291h-0.331h-0.35h-0.35h-0.389h-0.408h-0.408h-0.428h-0.428h-0.447h-0.447h-0.447
		h-0.446h-0.447h-0.447h-0.428h-0.428h-0.408h-0.408h-0.369h-0.369h-0.35h-0.331h-0.291h-0.272h-0.253h-0.214
		c-0.175,0-0.311,0-0.311,0c-0.194,0-0.642,0.389-0.642,0.389l-0.467,0.389l-0.485,0.408l-0.486,0.389l-0.486,0.408l-0.505,0.408
		l-0.524,0.408l-0.525,0.408l-0.524,0.408l-0.545,0.408l-0.544,0.408l-0.563,0.408l-0.563,0.408l-0.564,0.408l-0.583,0.428
		l-0.603,0.408l-0.583,0.408l-0.603,0.408l-0.603,0.408l-0.622,0.408l-0.622,0.408l-0.622,0.389l-0.622,0.408l-0.642,0.408
		l-0.641,0.389l-0.642,0.408l-0.642,0.389l-0.642,0.389l-0.661,0.389l-0.661,0.369l-0.66,0.389l-0.661,0.369l-0.661,0.39
		l-0.66,0.369l-0.661,0.35l-0.681,0.369l-0.661,0.35l-0.68,0.351l-0.661,0.35l-0.681,0.33c0,0.117,0,0.233,0,0.233
		c0,0.175,0,0.389,0,0.389v0.253v0.292v0.311v0.35v0.389v0.428v0.428v0.467v0.467v0.485v0.506v0.524v0.525v0.524v0.544v0.525v0.524
		v0.525v0.524v0.506v0.485v0.486v0.447v0.446v0.408v0.389v0.351v0.33v0.272v0.271v0.194c0,0.176,0,0.312,0,0.312
		c0,0.097,0.506-0.194,0.506-0.194l0.524-0.272l0.525-0.311l0.544-0.292l0.544-0.311l0.564-0.312l0.563-0.311l0.563-0.312
		l0.583-0.33l0.583-0.33l0.583-0.331l0.583-0.33l0.604-0.331l0.603-0.35l0.583-0.35l0.603-0.35l0.603-0.351l0.622-0.35l0.583-0.369
		l0.622-0.369l0.583-0.351l0.603-0.369l0.603-0.369l0.583-0.389l0.603-0.369l0.583-0.369l0.583-0.389l0.564-0.39l0.563-0.369
		l0.563-0.389l0.544-0.389l0.545-0.389l0.544-0.389l0.524-0.389l0.525-0.389l0.505-0.389l0.486-0.389l0.486-0.39l0.466-0.408
		l0.447-0.389V243.428z"/>
</g>
<g id="LWPOLYLINE_20_">
	
		<path fill="none" stroke="#000000" stroke-width="0.7087" stroke-linecap="round" stroke-linejoin="round" stroke-miterlimit="10" d="
		M406.771,244.225c0.116,0,0.233,0,0.233,0c0.155,0,0.35,0,0.35,0h0.233h0.271h0.312h0.35h0.35h0.39h0.427h0.428h0.467h0.467h0.466
		h0.506h0.467h0.505h0.506h0.505h0.506h0.505h0.506h0.466h0.467h0.428h0.467h0.389h0.389h0.389h0.312h0.311h0.272h0.233h0.232
		c0.156,0,0.272,0,0.272,0c0.078-0.078,0.078-0.272,0.078-0.272v-0.33v-0.447v-0.563v-0.661v-0.758v-0.855v-0.933v-1.011v-1.089
		v-1.146v-1.206v-1.243v-1.283v-1.342v-1.36v-1.36v-1.399v-1.399v-1.399v-1.381v-1.38v-1.36v-1.322v-1.282v-1.264v-1.205v-1.147
		v-1.068v-1.011v-0.953v-0.836v-0.758v-0.68v-0.545v-0.447v-0.33v-0.214c0-0.059,0-0.408,0-0.408v-0.33v-0.369v-0.351l0.038-0.369
		v-0.389v-0.369v-0.389v-0.389v-0.389l0.039-0.408v-0.39v-0.408l0.039-0.408v-0.389l0.039-0.408l0.039-0.408l0.038-0.408
		l0.039-0.408l0.039-0.408l0.039-0.408l0.039-0.408l0.039-0.389l0.077-0.408l0.039-0.389l0.078-0.389l0.077-0.389l0.078-0.389
		l0.077-0.369l0.117-0.369l0.077-0.37l0.117-0.35l0.116-0.35l0.117-0.35l0.116-0.331l0.117-0.33l0.155-0.312l0.155-0.311
		l0.155-0.292l0.156-0.271l0.116-0.233l0.155-0.253l0.117-0.233l0.194-0.271l0.155-0.253l0.194-0.272l0.194-0.291l0.233-0.272
		l0.233-0.292l0.233-0.291l0.271-0.292l0.272-0.311l0.311-0.292l0.312-0.291l0.311-0.312l0.351-0.291l0.35-0.292l0.35-0.292
		l0.389-0.291l0.389-0.272l0.428-0.291l0.428-0.253l0.428-0.272l0.467-0.252l0.505-0.253l0.467-0.233l0.505-0.233l0.545-0.214
		l0.544-0.194l0.544-0.194l0.584-0.175l0.583-0.155l0.583-0.137l0.622-0.136l0.66-0.116l0.661-0.078l0.661-0.078l0.7-0.058
		l0.699-0.02l0.7-0.02l1.088,0.02l1.05,0.077l0.972,0.117l0.934,0.175l0.894,0.194l0.855,0.253l0.777,0.291l0.739,0.312l0.699,0.369
		l0.661,0.389l0.583,0.408l0.583,0.447l0.506,0.485l0.505,0.506l0.467,0.524l0.428,0.545l0.389,0.563l0.35,0.583l0.312,0.583
		l0.311,0.622l0.272,0.622l0.233,0.622l0.194,0.642l0.194,0.642l0.155,0.641l0.155,0.642l0.155,0.661l0.078,0.642l0.117,0.642
		l0.077,0.622l0.039,0.622l0.078,0.622l0.038,0.603l0.039,0.583v0.583v0.544l0.039,0.545v0.505v0.486v0.466c0,0.078,0,0.292,0,0.292
		v0.369v0.506v0.622v0.738v0.855v0.952v1.05v1.127v1.225v1.283v1.341v1.4v1.457v1.478v1.517v1.555v1.555v1.556v1.574v1.555v1.536
		v1.516v1.497v1.438v1.399v1.341v1.283v1.225v1.127v1.05v0.953v0.854v0.739v0.622v0.505v0.369v0.233
		c0.078,0.078,0.194,0.078,0.194,0.078c0.155,0,0.389,0,0.389,0h0.233h0.272h0.311h0.312h0.389h0.389h0.428h0.428h0.427h0.467h0.506
		h0.466h0.506h0.505h0.506h0.505h0.506h0.505h0.467h0.467h0.467h0.466h0.428h0.428h0.389h0.35h0.351h0.311h0.272h0.233h0.194
		c0.155,0,0.271,0,0.271,0c0.117-0.098,0.117-0.331,0.117-0.331v-0.389v-0.524v-0.661v-0.777v-0.895v-1.011v-1.107v-1.186v-1.283
		v-1.341v-1.419v-1.478v-1.536v-1.555v-1.613v-1.613v-1.652v-1.633v-1.652v-1.652v-1.613v-1.613v-1.555v-1.536v-1.457v-1.419v-1.361
		v-1.282v-1.187v-1.107v-1.011v-0.895v-0.777v-0.661v-0.524v-0.389v-0.233c0-0.078,0-0.797,0-0.797v-0.7v-0.68l-0.039-0.642v-0.642
		v-0.603l-0.039-0.603v-0.563l-0.039-0.564l-0.038-0.524v-0.524l-0.039-0.506l-0.039-0.485l-0.039-0.467l-0.039-0.447l-0.038-0.447
		l-0.039-0.428l-0.078-0.408l-0.039-0.389l-0.039-0.389l-0.077-0.369l-0.039-0.369l-0.078-0.35l-0.077-0.331l-0.078-0.33
		l-0.039-0.312l-0.077-0.311l-0.078-0.292l-0.077-0.291l-0.117-0.272l-0.077-0.272l-0.078-0.271l-0.078-0.253l-0.116-0.253
		l-0.078-0.253l-0.116-0.232l-0.078-0.233l-0.116-0.233l-0.117-0.233l-0.116-0.233l-0.272-0.603l-0.35-0.583l-0.311-0.544
		l-0.39-0.545l-0.389-0.524l-0.428-0.486l-0.427-0.485l-0.467-0.467l-0.467-0.428l-0.505-0.428l-0.506-0.389l-0.544-0.389
		l-0.545-0.369l-0.544-0.331l-0.583-0.33l-0.583-0.311l-0.583-0.292l-0.583-0.272l-0.622-0.271l-0.622-0.253l-0.622-0.214
		l-0.622-0.214l-0.622-0.214l-0.622-0.175l-0.622-0.175l-0.661-0.155l-0.622-0.156l-0.622-0.136l-0.622-0.116l-0.621-0.098
		l-0.622-0.097l-0.584-0.078l-0.621-0.078l-0.584-0.058l-0.583-0.059l-0.544-0.039l-0.583-0.039l-0.545-0.02l-0.505-0.019h-0.506
		h-0.738l-0.738,0.038l-0.7,0.02l-0.738,0.059l-0.7,0.059l-0.699,0.077l-0.7,0.098l-0.699,0.097l-0.7,0.117l-0.7,0.136l-0.66,0.155
		l-0.7,0.156l-0.661,0.175l-0.66,0.194l-0.661,0.194l-0.622,0.214l-0.622,0.233l-0.661,0.252l-0.583,0.253l-0.622,0.272
		l-0.583,0.291l-0.622,0.292l-0.544,0.311l-0.583,0.331l-0.545,0.35l-0.544,0.35l-0.544,0.369l-0.506,0.39l-0.505,0.408
		l-0.506,0.408l-0.467,0.427l-0.466,0.447l-0.467,0.447l-0.428,0.467l-0.428,0.485l-0.428,0.486l-0.389,0.524l-0.35,0.525
		l-0.389,0.524l-0.35,0.563c0-0.155,0-0.271,0-0.271c0-0.155-0.039-0.331-0.039-0.331c0-0.194-0.039-0.408-0.039-0.408v-0.252
		l-0.039-0.253v-0.292l-0.039-0.291v-0.312l-0.038-0.33l-0.039-0.33v-0.351l-0.039-0.35l-0.039-0.35l-0.039-0.369v-0.37l-0.038-0.35
		l-0.039-0.369v-0.35l-0.039-0.37l-0.039-0.33v-0.35l-0.039-0.312l-0.038-0.311v-0.312l-0.039-0.271v-0.272l-0.039-0.233v-0.233
		c-0.039-0.194-0.039-0.369-0.039-0.369c0-0.136-0.039-0.253-0.039-0.253c-0.077-0.155-0.194-0.155-0.194-0.155
		c-0.194,0-0.389,0-0.389,0h-0.233h-0.271h-0.312h-0.35h-0.35h-0.389h-0.428h-0.428h-0.428h-0.467h-0.505h-0.467h-0.506h-0.505
		h-0.506h-0.505h-0.506h-0.505h-0.467h-0.467h-0.466h-0.467h-0.428h-0.428h-0.389h-0.35h-0.35h-0.312h-0.272h-0.232h-0.194
		c-0.156,0-0.312,0-0.312,0c-0.078,0-0.039,0.214-0.039,0.214l0.078,0.233l0.039,0.214l0.038,0.233l0.039,0.214l0.039,0.233
		l0.039,0.232l0.039,0.214l0.039,0.214l0.038,0.233l0.039,0.233l0.039,0.214v0.233l0.039,0.214l0.039,0.233v0.214l0.038,0.232v0.214
		v0.233l0.039,0.214v0.233v0.214l0.039,0.233v0.214v0.233v0.214l0.039,0.232v0.214v0.233v0.214v0.233v0.214v0.233v0.214v0.233v0.214
		v0.232v0.214v0.233v0.214V244.225z"/>
</g>
<g id="LWPOLYLINE_21_">
	
		<polygon fill="none" stroke="#000000" stroke-width="0.7087" stroke-linecap="round" stroke-linejoin="round" stroke-miterlimit="10" points="
		172.389,396.287 144.884,342.172 161.387,342.172 161.387,263.332 182.535,263.332 182.535,342.172 199.019,342.172 	"/>
</g>
<g id="LWPOLYLINE_22_">
	
		<polygon fill="none" stroke="#000000" stroke-width="0.7087" stroke-linecap="round" stroke-linejoin="round" stroke-miterlimit="10" points="
		438.299,396.287 410.813,342.172 427.297,342.172 427.297,263.332 448.445,263.332 448.445,342.172 464.967,342.172 	"/>
</g>
</svg>
