<?xml version="1.0" encoding="utf-8"?>
<!-- Generator: Adobe Illustrator 16.0.1, SVG Export Plug-In . SVG Version: 6.00 Build 0)  -->
<!DOCTYPE svg PUBLIC "-//W3C//DTD SVG 1.0//EN" "http://www.w3.org/TR/2001/REC-SVG-20010904/DTD/svg10.dtd">
<svg version="1.0" id="_x31_" xmlns="http://www.w3.org/2000/svg" xmlns:xlink="http://www.w3.org/1999/xlink" x="0px" y="0px"
	 width="612px" height="792px" viewBox="0 0 612 792" enable-background="new 0 0 612 792" xml:space="preserve">
<g id="LWPOLYLINE">
	
		<path fill="none" stroke="#000000" stroke-width="0.7087" stroke-linecap="round" stroke-linejoin="round" stroke-miterlimit="10" d="
		M151.075,393.328c0,0.197,0,0.328,0,0.328c0,0.174,0,0.369,0,0.369v0.24v0.262v0.305v0.307v0.348v0.35v0.393v0.393v0.393v0.391
		v0.438v0.436v0.436v0.436v0.438v0.436v0.393v0.436v0.436v0.393v0.393v0.348v0.35v0.35v0.305v0.305v0.262v0.262
		c0,0.174,0,0.35,0,0.35c0,0.174,0,0.262,0,0.262c0.196,0.086,0.437,0.086,0.437,0.086h0.327h0.393h0.479h0.545h0.61h0.676h0.719
		h0.785h0.828h0.851h0.915h0.916h0.959h0.98h0.981h1.003h1.003h1.002h1.003h0.981h0.98h0.938h0.938h0.894h0.872h0.828h0.763h0.741
		h0.654h0.61h0.566h0.458h0.414h0.327h0.218c0.196,0.174,0.196,0.654,0.196,0.654v0.828v1.09v1.352v1.656v1.875v2.094v2.311v2.484
		v2.703v2.791v2.965v3.094v3.184v3.27v3.357v3.4v3.4v3.488v3.443v3.4v3.402v3.355v3.27v3.184v3.096v2.965v2.789v2.703v2.486v2.311
		v2.092v1.875v1.656v1.352v1.09v0.828v0.48c0.218,0.174,0.371,0.174,0.371,0.174c0.218,0,0.457,0,0.457,0h0.262h0.306h0.349h0.349
		h0.393h0.414h0.437h0.436h0.479h0.458h0.501h0.502h0.479h0.501h0.502h0.501h0.501h0.479h0.479h0.48h0.436h0.436h0.415h0.392h0.35
		h0.349h0.305h0.262h0.24c0.195,0,0.37,0,0.37,0c0.218-0.174,0.218-0.654,0.218-0.654v-0.828v-1.09v-1.352v-1.656v-1.875v-2.092
		v-2.311v-2.486v-2.703v-2.789v-2.965v-3.096v-3.184v-3.27v-3.355v-3.402v-3.4v-3.443v-3.488v-3.4v-3.4v-3.357v-3.27v-3.184v-3.094
		v-2.965v-2.791v-2.703v-2.484v-2.311v-2.094v-1.875v-1.656v-1.352v-1.09v-0.828v-0.48c0.175-0.174,0.414-0.174,0.414-0.174h0.306
		h0.393h0.457h0.523h0.589h0.654h0.697h0.763h0.785h0.85h0.851h0.894h0.938h0.938h0.959h0.959h0.981h0.959h0.959h0.959h0.938h0.938
		h0.894h0.872h0.828h0.785h0.763h0.697h0.654h0.589h0.522h0.458h0.393h0.305h0.24c0.175-0.174,0.175-0.348,0.175-0.348
		c0-0.176,0-0.35,0-0.35v-0.262v-0.262v-0.305v-0.305v-0.35v-0.35v-0.348v-0.393v-0.393v-0.436v-0.436v-0.393v-0.436v-0.438v-0.436
		v-0.436v-0.436v-0.438v-0.391v-0.393v-0.393v-0.393v-0.35v-0.348v-0.307v-0.305v-0.262v-0.24c0-0.195,0-0.369,0-0.369
		c0-0.131,0-0.24,0-0.24C217.148,393.328,151.075,393.328,151.075,393.328z"/>
</g>
<g id="LWPOLYLINE_1_">
	
		<path fill="none" stroke="#000000" stroke-width="0.7087" stroke-linecap="round" stroke-linejoin="round" stroke-miterlimit="10" d="
		M260.026,498.682h1.569l1.548-0.086l1.504-0.088l1.482-0.174l1.417-0.219l1.396-0.217l1.352-0.307l1.286-0.348l1.264-0.393
		l1.243-0.436l1.177-0.48l1.155-0.523l1.09-0.566l1.068-0.654l1.024-0.697l0.981-0.697l0.959-0.785l0.894-0.871l0.872-0.873
		l0.807-0.959l0.784-1.002l0.741-1.047l0.72-1.09l0.654-1.178l0.632-1.221l0.566-1.264l0.545-1.309l0.502-1.395l0.479-1.439
		l0.414-1.525l0.37-1.568l0.35-1.613l0.305-1.658l0.262-1.742l0.218-1.832l0.175-1.832l0.152-1.918l0.087-2.006l0.065-2.049
		l0.022-2.092c0-0.088,0-0.262,0-0.262v-0.305v-0.393v-0.523v-0.611v-0.697v-0.74v-0.873v-0.914v-1.004v-1.002v-1.135v-1.133v-1.178
		v-1.176v-1.266v-1.221v-1.264v-1.309v-1.264v-1.264v-1.221v-1.266v-1.176v-1.178v-1.133v-1.135v-1.002v-1.004v-0.914v-0.873v-0.74
		v-0.697v-0.611v-0.523v-0.393v-0.305c0-0.174,0-0.262,0-0.262l-0.022-1.525l-0.065-1.482l-0.087-1.439l-0.152-1.438l-0.175-1.396
		l-0.218-1.395l-0.262-1.309l-0.305-1.307l-0.35-1.266l-0.37-1.264l-0.414-1.178l-0.479-1.176l-0.502-1.135l-0.545-1.09
		l-0.566-1.047l-0.632-1.045l-0.654-0.959l-0.72-0.959l-0.741-0.916l-0.784-0.873l-0.807-0.828l-0.872-0.828l-0.894-0.74
		l-0.959-0.699l-0.981-0.697l-1.024-0.631l-1.068-0.59l-1.09-0.566l-1.155-0.502l-1.177-0.457l-1.243-0.436l-1.264-0.393
		l-1.286-0.328l-1.352-0.305l-1.396-0.24l-1.417-0.217l-1.482-0.152l-1.504-0.109l-1.548-0.088l-1.569-0.021l-1.592,0.021
		l-1.547,0.088l-1.505,0.109l-1.482,0.152l-1.417,0.217l-1.395,0.24l-1.33,0.305l-1.308,0.328l-1.265,0.393l-1.242,0.436
		l-1.178,0.457l-1.133,0.502l-1.112,0.566l-1.067,0.59l-1.025,0.631l-0.98,0.697l-0.938,0.699l-0.915,0.74l-0.872,0.828
		l-0.807,0.828l-0.785,0.873l-0.741,0.916l-0.719,0.959l-0.654,0.959l-0.632,1.045l-0.567,1.047l-0.545,1.09l-0.501,1.135
		l-0.458,1.176l-0.436,1.178l-0.371,1.264l-0.349,1.266l-0.306,1.307l-0.261,1.309l-0.219,1.395l-0.174,1.396l-0.152,1.438
		l-0.088,1.439l-0.065,1.482l-0.021,1.525c0,0.088,0,0.262,0,0.262v0.305v0.393v0.523v0.611v0.697v0.74v0.873v0.914v1.004v1.002
		v1.135v1.133v1.178v1.176v1.266v1.221v1.264v1.264v1.309v1.264v1.221v1.266v1.176v1.178v1.133v1.135v1.002v1.004v0.914v0.873v0.74
		v0.697v0.611v0.523v0.393v0.305c0,0.174,0,0.262,0,0.262l0.021,2.092l0.065,2.049l0.088,2.006l0.152,1.918l0.174,1.832l0.219,1.832
		l0.261,1.742l0.306,1.658l0.349,1.613l0.371,1.568l0.436,1.525l0.458,1.439l0.501,1.395l0.545,1.309l0.567,1.264l0.632,1.221
		l0.654,1.178l0.719,1.09l0.741,1.047l0.785,1.002l0.807,0.959l0.872,0.873l0.915,0.871l0.938,0.785l0.98,0.697l1.025,0.697
		l1.067,0.654l1.112,0.566l1.133,0.523l1.178,0.48l1.242,0.436l1.265,0.393l1.308,0.348l1.33,0.307l1.395,0.217l1.417,0.219
		l1.482,0.174l1.505,0.088l1.547,0.086H260.026z"/>
</g>
<g id="LWPOLYLINE_2_">
	
		<path fill="none" stroke="#000000" stroke-width="0.7087" stroke-linecap="round" stroke-linejoin="round" stroke-miterlimit="10" d="
		M260.026,487.957h-0.938l-0.894-0.043l-0.894-0.043l-0.851-0.088l-0.828-0.131l-0.807-0.131l-0.785-0.174l-0.763-0.219
		l-0.741-0.217l-0.719-0.262l-0.698-0.307l-0.653-0.305l-0.654-0.393l-0.61-0.393l-0.61-0.436l-0.567-0.479l-0.545-0.523
		l-0.522-0.523l-0.502-0.611l-0.501-0.609l-0.458-0.697l-0.414-0.699l-0.414-0.783l-0.393-0.785l-0.37-0.873l-0.327-0.871
		l-0.327-0.959l-0.283-1.002l-0.283-1.004l-0.24-1.133l-0.218-1.135l-0.196-1.176l-0.175-1.266l-0.152-1.307l-0.131-1.352
		l-0.108-1.396l-0.088-1.482l-0.043-1.525l-0.044-1.568l-0.021-1.658c0-0.043,0-0.262,0-0.262v-0.305v-0.393v-0.523v-0.609v-0.742
		v-0.783v-0.873v-0.959v-1.002v-1.047v-1.133v-1.178v-1.221v-1.221v-1.264v-1.309v-1.264v-1.309v-1.309v-1.307v-1.266v-1.307v-1.221
		v-1.221v-1.135v-1.133v-1.09v-1.004v-0.959v-0.871V427.4v-0.697v-0.611v-0.523v-0.436v-0.305c0-0.174,0-0.262,0-0.262l0.043-1.57
		l0.065-1.48l0.131-1.396l0.175-1.352l0.218-1.307l0.262-1.221l0.305-1.135l0.327-1.09l0.371-1.002l0.414-0.959l0.436-0.916
		l0.479-0.828l0.479-0.785l0.523-0.742l0.545-0.697l0.545-0.609l0.589-0.611l0.589-0.523l0.61-0.479l0.61-0.48l0.61-0.393
		l0.632-0.391l0.632-0.35l0.633-0.305l0.632-0.262l0.632-0.262l0.633-0.219l0.61-0.174l0.61-0.174l0.61-0.131l0.566-0.088
		l0.566-0.131l0.567-0.043l0.523-0.088l0.501-0.043l0.479-0.043h0.437h0.436l0.37-0.045h0.371h0.349l0.371,0.045h0.436h0.436
		l0.479,0.043l0.502,0.043l0.545,0.088l0.545,0.043l0.566,0.131l0.567,0.088l0.61,0.131l0.61,0.174l0.61,0.174l0.632,0.219
		l0.632,0.262l0.633,0.262l0.632,0.305l0.632,0.35l0.633,0.391l0.61,0.393l0.632,0.48l0.589,0.479l0.589,0.523l0.588,0.611
		l0.567,0.609l0.522,0.697l0.523,0.742l0.501,0.785l0.458,0.828l0.437,0.916l0.414,0.959l0.37,1.002l0.327,1.09l0.306,1.135
		l0.261,1.221l0.219,1.307l0.174,1.352l0.131,1.396l0.088,1.48l0.021,1.57c0,0.088,0,0.262,0,0.262v0.305v0.436v0.523v0.611v0.697
		v0.785v0.871v0.959v1.004v1.09v1.133v1.135v1.221v1.221v1.307v1.266v1.307v1.309v1.309v1.264v1.309v1.264v1.221v1.221v1.178v1.133
		v1.047v1.002v0.959v0.873v0.783v0.742v0.609v0.523v0.393v0.305c0,0.219,0,0.262,0,0.262l-0.021,1.658l-0.022,1.568l-0.065,1.525
		l-0.087,1.482l-0.109,1.396l-0.131,1.352l-0.152,1.307l-0.174,1.266l-0.196,1.176l-0.219,1.135l-0.239,1.133l-0.283,1.004
		l-0.283,1.002l-0.327,0.959l-0.327,0.871l-0.371,0.873l-0.392,0.785l-0.393,0.783l-0.437,0.699l-0.457,0.697l-0.479,0.609
		l-0.523,0.611l-0.523,0.523l-0.545,0.523l-0.566,0.479l-0.61,0.436l-0.61,0.393l-0.654,0.393l-0.654,0.305l-0.697,0.307
		l-0.72,0.262l-0.741,0.217l-0.763,0.219l-0.784,0.174l-0.807,0.131l-0.829,0.131l-0.85,0.088l-0.894,0.043l-0.895,0.043H260.026z"
		/>
</g>
<g id="LWPOLYLINE_3_">
	
		<path fill="none" stroke="#000000" stroke-width="0.7087" stroke-linecap="round" stroke-linejoin="round" stroke-miterlimit="10" d="
		M344.846,498.682h1.569l1.569-0.086l1.482-0.088l1.482-0.174l1.438-0.219l1.352-0.217l1.352-0.307l1.309-0.348l1.264-0.393
		l1.221-0.436l1.221-0.48l1.134-0.523l1.09-0.566l1.09-0.654l1.003-0.697l1.003-0.697l0.915-0.785l0.916-0.871l0.872-0.873
		l0.828-0.959l0.785-1.002l0.741-1.047l0.697-1.09l0.653-1.178l0.611-1.221l0.61-1.264l0.522-1.309l0.523-1.395l0.436-1.439
		l0.437-1.525l0.393-1.568l0.349-1.613l0.305-1.658l0.262-1.742l0.218-1.832l0.175-1.832l0.131-1.918l0.087-2.006l0.087-2.049
		v-2.092c0-0.088,0-0.262,0-0.262v-0.305v-0.393v-0.523v-0.611v-0.697v-0.74v-0.873v-0.914v-1.004v-1.002v-1.135v-1.133v-1.178
		v-1.176v-1.266v-1.221v-1.264v-1.309v-1.264v-1.264v-1.221v-1.266v-1.176v-1.178v-1.133v-1.135v-1.002v-1.004v-0.914v-0.873v-0.74
		v-0.697v-0.611v-0.523v-0.393v-0.305c0-0.174,0-0.262,0-0.262v-1.525l-0.087-1.482l-0.087-1.439l-0.131-1.438l-0.175-1.396
		l-0.218-1.395l-0.262-1.309l-0.305-1.307l-0.349-1.266l-0.393-1.264l-0.437-1.178l-0.436-1.176l-0.523-1.135l-0.522-1.09
		l-0.61-1.047l-0.611-1.045l-0.653-0.959l-0.697-0.959l-0.741-0.916l-0.785-0.873l-0.828-0.828l-0.872-0.828l-0.916-0.74
		l-0.915-0.699l-1.003-0.697l-1.003-0.631l-1.09-0.59l-1.09-0.566l-1.134-0.502l-1.221-0.457l-1.221-0.436l-1.264-0.393
		l-1.309-0.328l-1.352-0.305l-1.352-0.24l-1.438-0.217l-1.482-0.152l-1.482-0.109l-1.569-0.088l-1.569-0.021l-1.613,0.021
		l-1.526,0.088l-1.525,0.109l-1.438,0.152l-1.439,0.217l-1.395,0.24l-1.352,0.305l-1.308,0.328l-1.265,0.393l-1.221,0.436
		l-1.178,0.457l-1.133,0.502l-1.09,0.566l-1.091,0.59l-1.002,0.631l-1.003,0.697l-0.959,0.699l-0.872,0.74l-0.872,0.828
		l-0.828,0.828l-0.785,0.873l-0.741,0.916l-0.697,0.959l-0.654,0.959l-0.653,1.045l-0.567,1.047l-0.566,1.09l-0.479,1.135
		l-0.479,1.176l-0.393,1.178l-0.393,1.264l-0.349,1.266l-0.306,1.307l-0.261,1.309l-0.219,1.395l-0.174,1.396l-0.131,1.438
		l-0.131,1.439l-0.044,1.482v1.525c0,0.088,0,0.262,0,0.262v0.305v0.393v0.523v0.611v0.697v0.74v0.873v0.914v1.004v1.002v1.135
		v1.133v1.178v1.176v1.266v1.221v1.264v1.264v1.309v1.264v1.221v1.266v1.176v1.178v1.133v1.135v1.002v1.004v0.914v0.873v0.74v0.697
		v0.611v0.523v0.393v0.305c0,0.174,0,0.262,0,0.262v2.092l0.044,2.049l0.131,2.006l0.131,1.918l0.174,1.832l0.219,1.832l0.261,1.742
		l0.306,1.658l0.349,1.613l0.393,1.568l0.393,1.525l0.479,1.439l0.479,1.395l0.566,1.309l0.567,1.264l0.653,1.221l0.654,1.178
		l0.697,1.09l0.741,1.047l0.785,1.002l0.828,0.959l0.872,0.873l0.872,0.871l0.959,0.785l1.003,0.697l1.002,0.697l1.091,0.654
		l1.09,0.566l1.133,0.523l1.178,0.48l1.221,0.436l1.265,0.393l1.308,0.348l1.352,0.307l1.395,0.217l1.439,0.219l1.438,0.174
		l1.525,0.088l1.526,0.086H344.846z"/>
</g>
<g id="LWPOLYLINE_4_">
	
		<path fill="none" stroke="#000000" stroke-width="0.7087" stroke-linecap="round" stroke-linejoin="round" stroke-miterlimit="10" d="
		M344.846,487.957h-0.916l-0.915-0.043l-0.872-0.043l-0.872-0.088l-0.828-0.131l-0.785-0.131l-0.784-0.174l-0.785-0.219
		l-0.741-0.217l-0.697-0.262l-0.698-0.307l-0.653-0.305l-0.654-0.393l-0.654-0.393l-0.566-0.436l-0.566-0.479l-0.567-0.523
		l-0.522-0.523l-0.523-0.611l-0.479-0.609l-0.437-0.697l-0.436-0.699l-0.436-0.783l-0.35-0.785l-0.392-0.873l-0.306-0.871
		l-0.349-0.959l-0.262-1.002l-0.305-1.004l-0.219-1.133l-0.218-1.135l-0.218-1.176l-0.175-1.266l-0.174-1.307l-0.088-1.352
		l-0.131-1.396l-0.087-1.482l-0.043-1.525l-0.044-1.568V459.4c0-0.043,0-0.262,0-0.262v-0.305v-0.393v-0.523v-0.609v-0.742v-0.783
		v-0.873v-0.959v-1.002v-1.047v-1.133v-1.178v-1.221v-1.221v-1.264v-1.309v-1.264v-1.309v-1.309v-1.307v-1.266v-1.307v-1.221v-1.221
		v-1.135v-1.133v-1.09v-1.004v-0.959v-0.871V427.4v-0.697v-0.611v-0.523v-0.436v-0.305c0-0.174,0-0.262,0-0.262v-1.57l0.087-1.48
		l0.131-1.396l0.175-1.352l0.218-1.307l0.262-1.221l0.305-1.135l0.349-1.09l0.35-1.002l0.436-0.959l0.436-0.916l0.437-0.828
		l0.523-0.785l0.522-0.742l0.523-0.697l0.566-0.609l0.567-0.611l0.566-0.523l0.61-0.479l0.61-0.48l0.654-0.393l0.61-0.391
		l0.654-0.35l0.61-0.305l0.653-0.262l0.61-0.262l0.654-0.219l0.61-0.174l0.61-0.174l0.566-0.131l0.61-0.088l0.567-0.131l0.522-0.043
		l0.523-0.088l0.523-0.043l0.479-0.043h0.436h0.437l0.393-0.045h0.349h0.349l0.393,0.045h0.393h0.479l0.479,0.043l0.479,0.043
		l0.523,0.088l0.566,0.043l0.566,0.131l0.567,0.088l0.61,0.131l0.61,0.174l0.61,0.174l0.653,0.219l0.61,0.262l0.61,0.262
		l0.654,0.305l0.654,0.35l0.61,0.391l0.61,0.393l0.61,0.48l0.61,0.479l0.61,0.523l0.566,0.611l0.567,0.609l0.522,0.697l0.523,0.742
		l0.479,0.785l0.479,0.828l0.437,0.916l0.436,0.959l0.349,1.002l0.349,1.09l0.306,1.135l0.262,1.221l0.218,1.307l0.175,1.352
		l0.13,1.396l0.044,1.48l0.044,1.57c0,0.088,0,0.262,0,0.262v0.305v0.436v0.523v0.611v0.697v0.785v0.871v0.959v1.004v1.09v1.133
		v1.135v1.221v1.221v1.307v1.266v1.307v1.309v1.309v1.264v1.309v1.264v1.221v1.221v1.178v1.133v1.047v1.002v0.959v0.873v0.783v0.742
		v0.609v0.523v0.393v0.305c0,0.219,0,0.262,0,0.262v1.658l-0.044,1.568l-0.044,1.525l-0.087,1.482l-0.131,1.396l-0.131,1.352
		l-0.131,1.307l-0.174,1.266l-0.218,1.176l-0.219,1.135l-0.261,1.133l-0.262,1.004l-0.262,1.002l-0.349,0.959l-0.35,0.871
		l-0.349,0.873l-0.392,0.785l-0.393,0.783l-0.437,0.699l-0.479,0.697l-0.479,0.609l-0.479,0.611l-0.523,0.523l-0.566,0.523
		l-0.566,0.479l-0.61,0.436l-0.61,0.393l-0.654,0.393l-0.654,0.305l-0.697,0.307l-0.697,0.262l-0.741,0.217l-0.785,0.219
		l-0.785,0.174l-0.784,0.131l-0.828,0.131l-0.872,0.088l-0.872,0.043l-0.916,0.043H344.846z"/>
</g>
<g id="LWPOLYLINE_5_">
	
		<path fill="none" stroke="#000000" stroke-width="0.7087" stroke-linecap="round" stroke-linejoin="round" stroke-miterlimit="10" d="
		M449.306,496.895c0-0.174,0-0.305,0-0.305c0-0.174,0-0.393,0-0.393v-0.217v-0.262v-0.307v-0.305v-0.35v-0.348v-0.393v-0.393v-0.393
		v-0.393v-0.436v-0.436v-0.436v-0.438v-0.436v-0.436v-0.436v-0.393v-0.436v-0.393v-0.393v-0.35v-0.393v-0.305v-0.348v-0.262v-0.262
		v-0.262c0-0.219,0-0.393,0-0.393c0-0.131,0-0.219,0-0.219c-0.087-0.086-0.262-0.086-0.262-0.086h-0.349h-0.437h-0.566h-0.654
		h-0.784h-0.828h-0.96h-1.002h-1.09h-1.178h-1.177h-1.265h-1.308h-1.352h-1.352h-1.396h-1.395h-1.396h-1.396h-1.395h-1.396h-1.352
		h-1.352h-1.308h-1.265h-1.177h-1.178h-1.09h-1.002h-0.96h-0.828h-0.784h-0.654h-0.566h-0.437h-0.349c-0.218,0-0.262,0-0.262,0
		c0-0.176,0-0.654,0-0.654v-0.828v-1.09v-1.396v-1.613v-1.873v-2.094v-2.311v-2.529v-2.658v-2.834v-2.965V459.4v-3.182v-3.314
		v-3.312v-3.4v-3.445v-3.443v-3.445v-3.4v-3.4v-3.357v-3.27v-3.182v-3.096v-2.965v-2.834v-2.66v-2.484v-2.311v-2.092v-1.875v-1.658
		V395.9v-1.09v-0.807v-0.5c-0.218-0.176-0.349-0.176-0.349-0.176c-0.175,0-0.437,0-0.437,0h-0.218h-0.305h-0.306h-0.349h-0.349
		h-0.393h-0.393h-0.436h-0.437h-0.436h-0.436h-0.48h-0.479h-0.436h-0.479h-0.479h-0.437h-0.479h-0.436h-0.437h-0.436h-0.393h-0.393
		h-0.349h-0.349h-0.305h-0.306h-0.218h-0.262c-0.175,0-0.306,0-0.306,0c-0.218,0.197-0.218,0.764-0.218,0.764v0.895v1.242v1.568
		v1.832v2.092v2.398v2.572v2.834v3.008v3.184v3.312v3.488v3.574v3.707v3.748v3.838v3.836v3.881v3.879v3.881v3.836v3.75v3.705v3.576
		v3.488v3.312v3.184v3.008v2.834v2.572v2.354v2.137v1.83v1.57v1.221v0.916v0.566C399.299,496.895,449.306,496.895,449.306,496.895z"
		/>
</g>
<g id="LWPOLYLINE_6_">
	
		<path fill="none" stroke="#000000" stroke-width="0.7087" stroke-linecap="round" stroke-linejoin="round" stroke-miterlimit="10" d="
		M129.647,646h1.591l1.548-0.088l1.505-0.088l1.481-0.174l1.417-0.174l1.396-0.262l1.33-0.307l1.308-0.348l1.265-0.35l1.242-0.436
		l1.177-0.523l1.134-0.523l1.112-0.566l1.067-0.654l1.024-0.652l0.981-0.742l0.938-0.785l0.915-0.871l0.872-0.873l0.807-0.959
		l0.785-1.002l0.741-1.047l0.719-1.09l0.654-1.178l0.632-1.221l0.567-1.264l0.545-1.309l0.501-1.395l0.458-1.439l0.436-1.525
		l0.371-1.568l0.349-1.613l0.305-1.658l0.262-1.742l0.219-1.789l0.174-1.873l0.152-1.92l0.088-2.004l0.065-2.051l0.021-2.092
		c0-0.088,0-0.262,0-0.262v-0.305v-0.393v-0.523v-0.566V603.1v-0.785v-0.873v-0.914v-0.959v-1.047v-1.09v-1.135v-1.176V593.9v-1.221
		v-1.266v-1.264v-1.264v-1.266v-1.264v-1.264v-1.266v-1.176v-1.178v-1.133v-1.09v-1.047v-1.004v-0.914v-0.828v-0.785v-0.697v-0.611
		v-0.523v-0.393v-0.305c0-0.174,0-0.219,0-0.219l-0.021-1.525l-0.065-1.525l-0.088-1.439l-0.152-1.438l-0.174-1.396l-0.219-1.395
		l-0.262-1.309l-0.305-1.307l-0.349-1.266l-0.371-1.264l-0.436-1.178l-0.458-1.176l-0.501-1.135l-0.545-1.09l-0.567-1.045
		l-0.632-1.047l-0.654-0.959l-0.719-0.959l-0.741-0.916l-0.785-0.873l-0.807-0.828l-0.872-0.785l-0.915-0.783l-0.938-0.697
		l-0.981-0.699l-1.024-0.609l-1.067-0.611l-1.112-0.566l-1.134-0.479l-1.177-0.48l-1.242-0.436l-1.265-0.393l-1.308-0.305
		l-1.33-0.307l-1.396-0.26l-1.417-0.219l-1.481-0.131l-1.505-0.131l-1.548-0.088h-1.591h-1.569l-1.548,0.088l-1.504,0.131
		l-1.482,0.131l-1.417,0.219l-1.396,0.26l-1.352,0.307l-1.286,0.305l-1.264,0.393l-1.243,0.436l-1.177,0.48l-1.155,0.479
		l-1.09,0.566l-1.068,0.611l-1.024,0.609l-0.981,0.699l-0.959,0.697l-0.894,0.783l-0.872,0.785l-0.828,0.828l-0.763,0.873
		l-0.764,0.916l-0.697,0.959l-0.654,0.959l-0.632,1.047l-0.589,1.045l-0.522,1.09l-0.502,1.135l-0.479,1.176l-0.414,1.178
		l-0.393,1.264l-0.327,1.266l-0.305,1.307l-0.262,1.309l-0.218,1.395l-0.175,1.396l-0.152,1.438l-0.087,1.439l-0.065,1.525
		l-0.022,1.525c0,0.045,0,0.219,0,0.219v0.305v0.393v0.523v0.611v0.697v0.785v0.828v0.914v1.004v1.047v1.09v1.133v1.178v1.176v1.266
		v1.264v1.264v1.266v1.264v1.264v1.266v1.221v1.221v1.176v1.135v1.09v1.047v0.959v0.914v0.873v0.785v0.697v0.566v0.523v0.393v0.305
		c0,0.174,0,0.262,0,0.262l0.022,2.092l0.065,2.051l0.087,2.004l0.152,1.92l0.175,1.873l0.218,1.789l0.262,1.742l0.305,1.658
		l0.327,1.613l0.393,1.568l0.414,1.525l0.479,1.439l0.502,1.395l0.522,1.309l0.589,1.264l0.632,1.221l0.654,1.178l0.697,1.09
		l0.764,1.047l0.763,1.002l0.828,0.959l0.872,0.873l0.894,0.871l0.959,0.785l0.981,0.742l1.024,0.652l1.068,0.654l1.09,0.566
		l1.155,0.523l1.177,0.523l1.243,0.436l1.264,0.35l1.286,0.348l1.352,0.307l1.396,0.262l1.417,0.174l1.482,0.174l1.504,0.088
		l1.548,0.088H129.647z"/>
</g>
<g id="LWPOLYLINE_7_">
	
		<path fill="none" stroke="#000000" stroke-width="0.7087" stroke-linecap="round" stroke-linejoin="round" stroke-miterlimit="10" d="
		M129.647,635.318l-0.916-0.045h-0.894l-0.894-0.086l-0.851-0.088l-0.828-0.131l-0.807-0.131l-0.784-0.174l-0.764-0.174
		l-0.741-0.262l-0.719-0.262l-0.697-0.307l-0.654-0.305l-0.654-0.393l-0.61-0.393l-0.61-0.436l-0.566-0.479l-0.545-0.48
		l-0.545-0.566l-0.502-0.611l-0.479-0.609l-0.458-0.654l-0.436-0.74l-0.393-0.742l-0.393-0.828l-0.37-0.828l-0.327-0.916
		l-0.327-0.959l-0.283-0.959l-0.283-1.047l-0.24-1.09l-0.218-1.178l-0.196-1.176l-0.174-1.266l-0.153-1.264l-0.13-1.395
		l-0.109-1.396l-0.087-1.48l-0.065-1.527l-0.022-1.568l-0.021-1.658c0-0.043,0-0.262,0-0.262v-0.305v-0.393v-0.523v-0.609v-0.742
		V603.1v-0.873v-0.959v-1.002v-1.047v-1.133v-1.178v-1.178v-1.264v-1.264v-1.266v-1.307v-1.309v-1.309v-1.307v-1.266v-1.264v-1.264
		v-1.178v-1.178v-1.133v-1.047v-1.047v-0.914v-0.873v-0.828v-0.697v-0.611v-0.521v-0.438v-0.305c0-0.174,0-0.219,0-0.219
		l0.021-1.568l0.088-1.525l0.131-1.396l0.174-1.352l0.218-1.307l0.262-1.178l0.306-1.178l0.327-1.045l0.37-1.047l0.414-0.959
		l0.437-0.873l0.457-0.871l0.502-0.785l0.522-0.74l0.523-0.654l0.567-0.654l0.566-0.566l0.61-0.566l0.589-0.48l0.632-0.48
		l0.61-0.391l0.632-0.393l0.633-0.35l0.632-0.305l0.632-0.262l0.633-0.262l0.632-0.219l0.61-0.174l0.61-0.131l0.61-0.174
		l0.566-0.088l0.567-0.086l0.545-0.088l0.545-0.088l0.501-0.043h0.479l0.437-0.043h0.414h0.393h0.349h0.37h0.371h0.436l0.437,0.043
		h0.479l0.501,0.043l0.523,0.088l0.545,0.088l0.566,0.086l0.589,0.088l0.61,0.174l0.589,0.131l0.632,0.174l0.632,0.219l0.633,0.262
		l0.632,0.262l0.633,0.305l0.632,0.35l0.632,0.393l0.61,0.391l0.633,0.48l0.588,0.48l0.589,0.566l0.589,0.566l0.545,0.654
		l0.545,0.654l0.522,0.74l0.502,0.785l0.458,0.871l0.436,0.873l0.414,0.959l0.371,1.047l0.326,1.045l0.306,1.178l0.262,1.178
		l0.218,1.307l0.175,1.352l0.131,1.396l0.065,1.525l0.043,1.568c0,0.045,0,0.219,0,0.219v0.305v0.438v0.521v0.611v0.697v0.828v0.873
		v0.914v1.047v1.047v1.133v1.178v1.178v1.264v1.264v1.266v1.307v1.309v1.309v1.307v1.266v1.264v1.264v1.178v1.178v1.133v1.047v1.002
		v0.959v0.873v0.783v0.742v0.609v0.523v0.393v0.305c0,0.219,0,0.262,0,0.262l-0.021,1.658l-0.044,1.568l-0.043,1.527l-0.088,1.48
		l-0.108,1.396l-0.131,1.395l-0.152,1.264l-0.175,1.266l-0.196,1.176l-0.218,1.178l-0.24,1.09l-0.283,1.047l-0.283,0.959
		l-0.327,0.959l-0.327,0.916l-0.37,0.828l-0.393,0.828l-0.414,0.742l-0.437,0.74l-0.436,0.654l-0.479,0.609l-0.523,0.611
		l-0.523,0.566l-0.545,0.48l-0.566,0.479l-0.61,0.436l-0.61,0.393l-0.654,0.393l-0.676,0.305l-0.676,0.307l-0.719,0.262
		l-0.741,0.262l-0.763,0.174l-0.785,0.174l-0.807,0.131l-0.828,0.131l-0.851,0.088l-0.894,0.086h-0.894L129.647,635.318z"/>
</g>
<g id="LWPOLYLINE_8_">
	
		<path fill="none" stroke="#000000" stroke-width="0.7087" stroke-linecap="round" stroke-linejoin="round" stroke-miterlimit="10" d="
		M196.613,644.211c0-0.086,0-0.305,0-0.305v-0.436v-0.566v-0.697v-0.83v-1.002v-1.047v-1.221v-1.264v-1.395v-1.439v-1.525v-1.57
		v-1.656v-1.701v-1.699v-1.744v-1.787v-1.744v-1.787v-1.744v-1.744v-1.744v-1.701v-1.613v-1.611v-1.527v-1.438v-1.352v-1.309v-1.178
		v-1.09v-0.959v-0.828v-0.74v-0.568v-0.391v-0.262c0.065-0.088,0.262-0.088,0.262-0.088h0.327h0.414h0.545h0.632h0.72h0.828h0.894
		h0.96h1.046h1.09h1.155h1.199h1.242h1.265h1.308h1.309h1.329h1.352h1.33h1.33h1.329h1.286h1.265h1.242h1.199h1.155h1.09h1.047
		h0.959h0.894h0.828h0.72h0.632h0.545h0.437h0.305c0.196,0,0.262,0,0.262,0c0-0.174,0-0.305,0-0.305c0-0.176,0-0.393,0-0.393v-0.262
		v-0.262v-0.262v-0.35v-0.305v-0.393v-0.348v-0.393v-0.393v-0.436v-0.393v-0.436v-0.438v-0.436v-0.436v-0.436v-0.438v-0.436v-0.393
		v-0.393v-0.391v-0.393v-0.35V587.1v-0.307v-0.305v-0.262v-0.219c0-0.217,0-0.391,0-0.391c0-0.131,0-0.219,0-0.219
		c-0.065-0.088-0.262-0.088-0.262-0.088h-0.305h-0.437h-0.545h-0.632h-0.72h-0.828h-0.894h-0.959h-1.047h-1.09h-1.155h-1.199h-1.242
		h-1.265h-1.286h-1.329h-1.33h-1.33h-1.352h-1.329h-1.309h-1.308h-1.265h-1.242h-1.199h-1.155h-1.09h-1.046h-0.96h-0.894h-0.828
		h-0.72h-0.632h-0.545h-0.414h-0.327c-0.196,0-0.262,0-0.262,0c0-0.086,0-0.262,0-0.262v-0.262v-0.391v-0.523v-0.568v-0.697v-0.74
		v-0.828v-0.916v-0.959v-1.004v-1.045v-1.135v-1.133v-1.178v-1.176v-1.221v-1.266v-1.221v-1.264v-1.221v-1.221v-1.178v-1.176v-1.135
		v-1.133v-1.047v-1.047v-0.959v-0.871v-0.828v-0.742v-0.697v-0.566v-0.523v-0.393v-0.262c0-0.217,0-0.262,0-0.262
		c0.087,0,0.283,0,0.283,0h0.327h0.458h0.545h0.676h0.763h0.851h0.938h1.024h1.09h1.155h1.199h1.264h1.309h1.329h1.352h1.396h1.395
		h1.417h1.396h1.396h1.395h1.352h1.33h1.308h1.265h1.199h1.155h1.09h1.024h0.938h0.85h0.764h0.676h0.566h0.436h0.327
		c0.218,0,0.283,0,0.283,0c0-0.174,0-0.305,0-0.305c0-0.174,0-0.393,0-0.393v-0.262v-0.262v-0.262v-0.348v-0.307v-0.391v-0.35
		v-0.393v-0.393v-0.436v-0.393v-0.436v-0.436v-0.438v-0.436v-0.436v-0.436v-0.436v-0.393v-0.393v-0.393v-0.393v-0.35v-0.348v-0.305
		v-0.307v-0.262v-0.217c0-0.219,0-0.393,0-0.393c0-0.131,0-0.219,0-0.219c-0.108-0.086-0.37-0.086-0.37-0.086h-0.437h-0.61h-0.741
		h-0.894h-1.003h-1.155h-1.242h-1.373h-1.439h-1.547h-1.613h-1.679h-1.722h-1.788h-1.81h-1.853h-1.853h-1.875h-1.875h-1.874h-1.831
		h-1.831h-1.767h-1.743h-1.679h-1.613h-1.525h-1.461h-1.352h-1.242h-1.155h-1.025h-0.871h-0.764h-0.588h-0.437h-0.283
		c-0.087,0.174-0.087,0.74-0.087,0.74v0.916v1.221v1.568v1.832v2.137v2.354v2.572v2.834v3.008v3.184v3.312v3.488v3.574v3.707v3.748
		v3.838v3.879v3.881v3.881v3.836v3.836v3.75v3.707v3.574v3.488v3.312v3.184v3.008v2.834v2.572v2.398v2.092v1.832v1.568v1.221v0.916
		v0.566C184.123,644.211,196.613,644.211,196.613,644.211z"/>
</g>
<g id="LWPOLYLINE_9_">
	
		<path fill="none" stroke="#000000" stroke-width="0.7087" stroke-linecap="round" stroke-linejoin="round" stroke-miterlimit="10" d="
		M259.133,644.211c0-0.086,0-0.305,0-0.305v-0.436v-0.566v-0.697v-0.83v-1.002v-1.047v-1.221v-1.264v-1.395v-1.439v-1.525v-1.57
		v-1.656v-1.701v-1.699v-1.744v-1.787v-1.744v-1.787v-1.744v-1.744v-1.744v-1.701v-1.613v-1.611v-1.527v-1.438v-1.352v-1.309v-1.178
		v-1.09v-0.959v-0.828v-0.74v-0.568v-0.391v-0.262c0.065-0.088,0.262-0.088,0.262-0.088h0.305h0.437h0.522h0.633h0.741h0.806h0.895
		h0.98h1.024h1.112h1.133h1.199h1.242h1.265h1.308h1.309h1.329h1.352h1.33h1.33h1.329h1.286h1.286h1.221h1.199h1.155h1.09h1.047
		h0.959h0.915h0.807h0.72h0.654h0.522h0.437h0.305c0.196,0,0.262,0,0.262,0c0-0.174,0-0.305,0-0.305c0-0.176,0-0.393,0-0.393v-0.262
		v-0.262v-0.262v-0.35v-0.305v-0.393v-0.348v-0.393v-0.393v-0.436v-0.393v-0.436v-0.438v-0.436v-0.436v-0.436v-0.438v-0.436v-0.393
		v-0.393v-0.391v-0.393v-0.35V587.1v-0.307v-0.305v-0.262v-0.219c0-0.217,0-0.391,0-0.391c0-0.131,0-0.219,0-0.219
		c-0.065-0.088-0.262-0.088-0.262-0.088h-0.305h-0.437h-0.522h-0.654h-0.72h-0.807h-0.915h-0.959h-1.047h-1.09h-1.155h-1.199h-1.221
		h-1.286h-1.286h-1.329h-1.33h-1.33h-1.352h-1.329h-1.309h-1.308h-1.265h-1.242h-1.199h-1.133h-1.112h-1.024h-0.98h-0.895h-0.806
		h-0.741h-0.633h-0.522h-0.437h-0.305c-0.196,0-0.262,0-0.262,0c0-0.086,0-0.262,0-0.262v-0.262v-0.391v-0.523v-0.568v-0.697v-0.74
		v-0.828v-0.916v-0.959v-1.004v-1.045v-1.135v-1.133v-1.178v-1.176v-1.221v-1.266v-1.221v-1.264v-1.221v-1.221v-1.178v-1.176v-1.135
		v-1.133v-1.047v-1.047v-0.959v-0.871v-0.828v-0.742v-0.697v-0.566v-0.523v-0.393v-0.262c0-0.217,0-0.262,0-0.262
		c0.065,0,0.262,0,0.262,0h0.326h0.458h0.567h0.653h0.763h0.851h0.959h1.003h1.09h1.155h1.221h1.243h1.308h1.33h1.373h1.373h1.396
		h1.417h1.395h1.396h1.395h1.352h1.352h1.286h1.265h1.199h1.155h1.09h1.024h0.938h0.85h0.764h0.676h0.566h0.437h0.326
		c0.219,0,0.284,0,0.284,0c0-0.174,0-0.305,0-0.305c0-0.174,0-0.393,0-0.393v-0.262v-0.262v-0.262v-0.348v-0.307v-0.391v-0.35
		v-0.393v-0.393v-0.436v-0.393v-0.436v-0.436v-0.438v-0.436v-0.436v-0.436v-0.436v-0.393v-0.393v-0.393v-0.393v-0.35v-0.348v-0.305
		v-0.307v-0.262v-0.217c0-0.219,0-0.393,0-0.393c0-0.131,0-0.219,0-0.219c-0.088-0.086-0.371-0.086-0.371-0.086h-0.436h-0.589
		h-0.763h-0.872h-1.024h-1.155h-1.243h-1.352h-1.46h-1.548h-1.592h-1.678h-1.744h-1.788h-1.809h-1.854h-1.853h-1.875h-1.874h-1.854
		h-1.853h-1.81h-1.787h-1.744h-1.657h-1.612h-1.548h-1.439h-1.373h-1.242h-1.155h-1.003h-0.894h-0.764h-0.588h-0.437h-0.283
		c-0.087,0.174-0.087,0.74-0.087,0.74v0.916v1.221v1.568v1.832v2.137v2.354v2.572v2.834v3.008v3.184v3.312v3.488v3.574v3.707v3.748
		v3.838v3.879v3.881v3.881v3.836v3.836v3.75v3.707v3.574v3.488v3.312v3.184v3.008v2.834v2.572v2.398v2.092v1.832v1.568v1.221v0.916
		v0.566C246.62,644.211,259.133,644.211,259.133,644.211z"/>
</g>
<g id="LWPOLYLINE_10_">
	
		<path fill="none" stroke="#000000" stroke-width="0.7087" stroke-linecap="round" stroke-linejoin="round" stroke-miterlimit="10" d="
		M305.564,612.996l-0.065,0.74l-0.065,0.828l-0.044,0.828l-0.044,0.916l-0.021,0.916l-0.021,0.959l0.021,1.004l0.044,1.002
		l0.065,1.047l0.087,1.045l0.109,1.09l0.152,1.09l0.196,1.092l0.239,1.09l0.262,1.09l0.306,1.133l0.392,1.09l0.393,1.09l0.479,1.09
		l0.523,1.047l0.566,1.047l0.654,1.002l0.697,1.002l0.785,1.004l0.828,0.916l0.916,0.914l1.003,0.828l1.09,0.83l1.133,0.783
		l1.221,0.742l1.352,0.654l1.396,0.609l1.482,0.566l1.613,0.48l1.7,0.436l1.787,0.35l1.875,0.305l2.006,0.174l2.136,0.131
		l2.224,0.045h1.177l1.221-0.045l1.178-0.043l1.177-0.131l1.178-0.131l1.177-0.131l1.177-0.219l1.134-0.217l1.134-0.219l1.09-0.305
		l1.09-0.305l1.09-0.35l1.047-0.393l1.046-0.436l1.003-0.436l1.003-0.523l0.959-0.523l0.959-0.566l0.915-0.611l0.872-0.652
		l0.872-0.699l0.828-0.74l0.785-0.742l0.741-0.828l0.741-0.871l0.654-0.873l0.653-0.959l0.61-1.002l0.567-1.002l0.522-1.092
		l0.48-1.133l0.436-1.178l0.393-1.221l0.349-1.264l0.305-1.352l0.219-1.352l0.218-1.439l0.131-1.482l0.087-1.525v-1.568
		l-0.087-2.398l-0.218-2.268l-0.393-2.18l-0.567-2.049l-0.653-1.918l-0.829-1.787l-0.915-1.701l-1.046-1.613l-1.134-1.568
		l-1.265-1.439l-1.308-1.352l-1.396-1.309l-1.482-1.221l-1.525-1.133l-1.569-1.135l-1.613-1.045l-1.657-1.047l-1.7-0.959l-1.7-0.959
		l-1.7-0.959l-1.7-0.916l-1.7-0.871l-1.657-0.916l-1.656-0.873l-1.657-0.914l-1.569-0.916l-1.525-0.916l-1.439-0.959l-1.438-0.959
		l-1.308-1.004l-1.221-1.09l-1.134-1.09l-1.047-1.133l-0.959-1.221l-0.784-1.309L322,571.012l-0.522-1.439l-0.393-1.525l-0.262-1.57
		l-0.087-1.699v-0.785l0.043-0.785l0.088-0.74l0.087-0.742l0.131-0.697l0.174-0.654l0.175-0.654l0.218-0.654l0.218-0.609
		l0.262-0.566l0.262-0.566l0.306-0.568l0.305-0.521l0.349-0.48l0.349-0.48l0.393-0.479l0.393-0.436l0.393-0.438l0.436-0.391
		l0.437-0.393l0.479-0.35l0.479-0.348l0.479-0.307l0.479-0.305l0.523-0.262l0.523-0.262l0.522-0.262l0.567-0.217l0.522-0.176
		l0.567-0.217l0.566-0.131l0.567-0.176l0.61-0.131l0.566-0.086l0.61-0.131l0.566-0.043l0.61-0.088l0.61-0.043h0.61h0.61h0.829
		l0.828,0.043l0.784,0.088l0.785,0.086l0.741,0.131l0.697,0.174l0.698,0.176l0.653,0.217l0.61,0.219l0.61,0.262l0.61,0.305
		l0.523,0.305l0.523,0.35l0.522,0.35l0.48,0.391l0.436,0.393l0.436,0.438l0.393,0.436l0.393,0.479l0.349,0.48l0.349,0.523
		l0.349,0.523l0.262,0.566l0.306,0.566l0.262,0.609l0.218,0.568l0.218,0.652l0.218,0.611l0.175,0.654l0.175,0.697l0.13,0.654
		l0.131,0.74l0.131,0.697l0.088,0.742l0.087,0.74l0.044,0.742l0.043,0.74l0.044,0.785l0.043,0.785v0.828c0.219,0,0.35,0,0.35,0
		c0.218,0,0.436,0,0.436,0h0.306h0.305h0.306h0.392h0.393h0.393h0.436h0.437h0.479h0.479h0.479h0.479h0.523h0.479h0.523h0.479h0.523
		h0.479h0.479h0.436h0.479h0.437h0.392h0.393h0.349h0.35h0.305h0.262h0.262c0.174,0,0.349,0,0.349,0
		c0.218,0,0.262-1.525,0.262-1.525v-1.482l-0.044-1.439l-0.087-1.395l-0.131-1.352l-0.131-1.309l-0.218-1.264l-0.262-1.221
		l-0.306-1.178l-0.305-1.133l-0.349-1.09l-0.437-1.047l-0.436-1.002l-0.479-1.004l-0.523-0.916l-0.566-0.914l-0.567-0.828
		l-0.653-0.83l-0.654-0.783l-0.697-0.742l-0.741-0.697l-0.785-0.654l-0.784-0.654l-0.872-0.566l-0.872-0.566l-0.872-0.48
		l-0.959-0.479l-0.959-0.436l-1.003-0.393l-1.047-0.393l-1.09-0.305l-1.09-0.307l-1.134-0.262l-1.133-0.217l-1.178-0.174
		l-1.221-0.176l-1.264-0.131l-1.265-0.086l-1.308-0.045h-1.309h-1.264l-1.265,0.045l-1.221,0.086l-1.221,0.131l-1.221,0.131
		l-1.178,0.219l-1.133,0.217l-1.178,0.262l-1.133,0.262l-1.091,0.35l-1.09,0.35l-1.046,0.391l-1.047,0.393l-1.002,0.48l-0.96,0.479
		l-0.959,0.523l-0.915,0.566l-0.916,0.611l-0.872,0.654l-0.828,0.654l-0.828,0.697l-0.741,0.74l-0.741,0.785l-0.697,0.785
		l-0.698,0.871l-0.61,0.873l-0.61,0.914l-0.522,0.961l-0.523,1.002l-0.479,1.002l-0.437,1.047l-0.392,1.09l-0.35,1.135l-0.305,1.176
		l-0.262,1.221l-0.218,1.221l-0.175,1.309l-0.131,1.309l-0.087,1.352v1.395l0.087,2.268l0.218,2.18l0.393,2.006l0.567,1.961
		l0.697,1.832l0.785,1.699l0.959,1.656l1.003,1.527l1.177,1.482l1.221,1.352l1.308,1.35l1.396,1.223l1.482,1.176l1.525,1.135
		l1.57,1.09l1.612,1.045l1.657,1.004l1.7,0.959l1.7,0.916l1.7,0.914l1.7,0.916l1.7,0.873l1.701,0.871l1.656,0.871l1.613,0.916
		l1.569,0.873l1.526,0.914l1.481,0.961l1.396,0.959l1.308,0.959l1.221,1.045l1.178,1.09l1.003,1.135l0.959,1.178l0.784,1.221
		l0.698,1.307l0.522,1.395l0.437,1.439l0.218,1.57l0.087,1.613v0.914l-0.043,0.916l-0.088,0.828l-0.087,0.873l-0.131,0.785
		l-0.174,0.783l-0.175,0.742l-0.218,0.74l-0.218,0.697l-0.262,0.654l-0.306,0.611l-0.305,0.654l-0.306,0.566l-0.349,0.566
		l-0.393,0.523l-0.393,0.523l-0.436,0.479l-0.436,0.48l-0.437,0.436l-0.479,0.393l-0.479,0.393l-0.523,0.348l-0.522,0.35
		l-0.567,0.35l-0.566,0.305l-0.567,0.262l-0.61,0.262l-0.61,0.217l-0.61,0.219l-0.61,0.217l-0.653,0.176l-0.654,0.131l-0.697,0.131
		l-0.654,0.131l-0.697,0.086l-0.698,0.088l-0.697,0.043l-0.741,0.045l-0.741,0.043h-0.697h-0.61l-0.61-0.043l-0.61-0.045
		l-0.61-0.043l-0.61-0.088l-0.61-0.086l-0.61-0.131l-0.61-0.131l-0.567-0.176l-0.61-0.174l-0.566-0.217l-0.61-0.219l-0.566-0.219
		l-0.567-0.305l-0.566-0.305l-0.523-0.305l-0.523-0.35l-0.522-0.35l-0.523-0.393l-0.479-0.436l-0.479-0.436l-0.479-0.479
		l-0.437-0.523l-0.436-0.523l-0.393-0.566l-0.393-0.568l-0.349-0.652l-0.349-0.654l-0.349-0.654l-0.306-0.697l-0.262-0.785
		l-0.261-0.742l-0.219-0.828l-0.174-0.828l-0.175-0.871l-0.174-0.916l-0.088-0.959l-0.087-0.959l-0.044-1.047l-0.043-1.047
		c0-0.217,0-0.262,0-0.262c0-0.217,0-0.305,0-0.305c0-0.174,0-0.262,0-0.262c0-0.217,0-0.305,0-0.305c0-0.219,0-0.305,0-0.305
		c0-0.219,0-0.305,0-0.305c0-0.176,0-0.262,0-0.262c0-0.176,0-0.262,0-0.262c0-0.176,0-0.262,0-0.262
		C318.033,612.996,305.564,612.996,305.564,612.996z"/>
</g>
<g id="LWPOLYLINE_11_">
	
		<path fill="none" stroke="#000000" stroke-width="0.7087" stroke-linecap="round" stroke-linejoin="round" stroke-miterlimit="10" d="
		M438.581,644.211c0-0.174,0-0.305,0-0.305c0-0.174,0-0.393,0-0.393v-0.217v-0.262v-0.307v-0.305v-0.348v-0.35v-0.393v-0.393v-0.393
		v-0.393v-0.436v-0.436v-0.436v-0.436v-0.438v-0.436v-0.393v-0.436v-0.436v-0.393v-0.393v-0.35v-0.348v-0.35v-0.305v-0.305v-0.262
		v-0.262c0-0.174,0-0.35,0-0.35c0-0.174,0-0.262,0-0.262c-0.044-0.086-0.262-0.086-0.262-0.086h-0.393h-0.479h-0.567h-0.741h-0.828
		h-0.915h-1.003h-1.09h-1.134h-1.265h-1.264h-1.352h-1.396h-1.438h-1.482h-1.482h-1.482h-1.525H417h-1.482h-1.482h-1.482h-1.438
		h-1.396h-1.352h-1.264h-1.265h-1.134h-1.09h-1.003h-0.959h-0.785h-0.741h-0.566h-0.523h-0.349c-0.218,0-0.262,0-0.262,0
		c0-0.045,0-0.262,0-0.262v-0.305v-0.438v-0.523v-0.652v-0.699v-0.828v-0.914v-0.961v-1.045v-1.09v-1.135v-1.221v-1.221v-1.264
		v-1.309v-1.307v-1.352v-1.309v-1.352v-1.352v-1.309v-1.307v-1.266v-1.221v-1.221v-1.133v-1.09v-1.047v-0.959v-0.916v-0.828v-0.697
		v-0.654v-0.523v-0.436v-0.305c0-0.174,0-0.262,0-0.262c0.044,0,0.262,0,0.262,0h0.306h0.436h0.567h0.653h0.741h0.828h0.916h1.003
		h1.046h1.134h1.177h1.221h1.265h1.308h1.352h1.352h1.352h1.396h1.352h1.352h1.352h1.352h1.308h1.265h1.221h1.177h1.134h1.046h1.003
		h0.916h0.828h0.741h0.654h0.566h0.436h0.306c0.218,0,0.262,0,0.262,0c0-0.174,0-0.305,0-0.305c0-0.176,0-0.393,0-0.393v-0.262
		v-0.262v-0.262v-0.35v-0.305v-0.393v-0.348v-0.393v-0.393v-0.436v-0.393v-0.436v-0.438v-0.436v-0.436v-0.436v-0.438v-0.436v-0.393
		v-0.393v-0.391v-0.393v-0.35V587.1v-0.307v-0.305v-0.262v-0.219c0-0.217,0-0.391,0-0.391c0-0.131,0-0.219,0-0.219
		c-0.044-0.088-0.262-0.088-0.262-0.088h-0.306h-0.436h-0.566h-0.654h-0.741h-0.828h-0.916h-1.003h-1.046h-1.134h-1.177h-1.221
		h-1.265h-1.308h-1.352h-1.352h-1.352h-1.352h-1.396h-1.352h-1.352h-1.352h-1.308h-1.265h-1.221h-1.177h-1.134h-1.046h-1.003h-0.916
		h-0.828h-0.741h-0.653h-0.567h-0.436h-0.306c-0.218,0-0.262,0-0.262,0c0-0.086,0-0.262,0-0.262v-0.262v-0.391v-0.523v-0.568v-0.697
		v-0.74v-0.828v-0.916v-0.959v-1.004v-1.045v-1.135v-1.133v-1.178v-1.176v-1.221v-1.266v-1.221v-1.264v-1.221v-1.221v-1.178v-1.176
		v-1.135v-1.133v-1.047v-1.047v-0.959v-0.871v-0.828v-0.742v-0.697v-0.566v-0.523v-0.393v-0.262c0-0.217,0-0.262,0-0.262
		c0.044,0,0.262,0,0.262,0h0.349h0.479h0.567h0.697h0.828h0.872h1.003h1.047h1.177h1.177h1.265h1.352h1.352h1.396h1.438h1.438h1.438
		h1.482h1.482h1.482h1.438h1.438h1.396h1.352h1.308h1.265h1.221h1.134h1.046h1.003h0.916h0.784h0.698h0.61h0.436h0.349
		c0.218,0,0.306,0,0.306,0c0-0.174,0-0.305,0-0.305c0-0.174,0-0.393,0-0.393v-0.262v-0.262v-0.262v-0.348v-0.307v-0.391v-0.35
		v-0.393v-0.393v-0.436v-0.393v-0.436v-0.436v-0.438v-0.436v-0.436v-0.436v-0.436v-0.393v-0.393v-0.393v-0.393v-0.35v-0.348v-0.305
		v-0.307v-0.262v-0.217c0-0.219,0-0.393,0-0.393c0-0.131,0-0.219,0-0.219c-0.088-0.086-0.393-0.086-0.393-0.086h-0.437h-0.61h-0.784
		h-0.916h-1.09h-1.177h-1.309H429.6h-1.482h-1.613h-1.656h-1.744h-1.788h-1.831h-1.874h-1.919h-1.962h-1.918h-1.962h-1.918h-1.919
		h-1.874h-1.831h-1.788h-1.743h-1.657h-1.613h-1.482h-1.438h-1.308H390.1h-1.046h-0.916h-0.784h-0.61h-0.437h-0.305
		c-0.087,0.174-0.087,0.74-0.087,0.74v0.916v1.221v1.568v1.832v2.137v2.354v2.572v2.834v3.008v3.184v3.312v3.488v3.574v3.707v3.748
		v3.838v3.879v3.881v3.881v3.836v3.836v3.75v3.707v3.574v3.488v3.312v3.184v3.008v2.834v2.572v2.398v2.092v1.832v1.568v1.221v0.916
		v0.566C385.915,644.211,438.581,644.211,438.581,644.211z"/>
</g>
<g id="LWPOLYLINE_12_">
	
		<path fill="none" stroke="#000000" stroke-width="0.7087" stroke-linecap="round" stroke-linejoin="round" stroke-miterlimit="10" d="
		M443.071,540.668c0,0.174,0,0.305,0,0.305c0,0.174,0,0.393,0,0.393v0.217v0.262v0.307v0.305v0.348v0.35v0.393v0.393v0.393v0.393
		v0.436v0.436v0.436v0.436v0.438v0.436v0.436v0.393v0.436v0.393v0.393v0.35v0.391v0.307v0.348v0.262v0.262v0.262
		c0,0.219,0,0.393,0,0.393c0,0.131,0,0.219,0,0.219c0.174,0.086,0.436,0.086,0.436,0.086h0.306h0.393h0.479h0.566h0.61h0.654h0.741
		h0.784h0.785h0.872h0.915h0.916h0.959h0.959h1.003h1.003h1.003h1.002h1.003h0.959h1.003h0.959h0.916h0.915h0.829h0.828h0.784h0.741
		h0.654h0.61h0.566h0.48h0.392h0.306h0.262c0.174,0.176,0.174,0.654,0.174,0.654v0.828v1.09v1.396v1.611v1.875v2.094v2.311v2.527
		v2.66v2.834v2.965v3.051v3.184v3.312v3.314v3.4v3.445v3.443v3.443v3.402v3.4v3.355v3.271v3.182v3.096v2.965v2.834v2.658v2.486
		v2.311v2.092v1.875v1.656v1.352v1.135v0.785v0.521c0.218,0.131,0.393,0.131,0.393,0.131c0.175,0,0.437,0,0.437,0h0.261h0.306h0.349
		h0.349h0.393h0.393h0.436h0.479h0.437h0.479h0.479h0.523h0.479h0.522h0.48h0.522h0.479h0.479h0.48h0.479h0.436h0.436h0.393h0.393
		h0.393h0.305h0.306h0.305h0.219c0.218,0,0.349,0,0.349,0c0.218-0.131,0.218-0.652,0.218-0.652v-0.785v-1.135v-1.352v-1.656v-1.875
		v-2.092v-2.311v-2.486v-2.658v-2.834v-2.965v-3.096v-3.182v-3.271v-3.355v-3.4v-3.402v-3.443v-3.443v-3.445v-3.4v-3.314v-3.312
		v-3.184v-3.051v-2.965v-2.834v-2.66v-2.527v-2.311v-2.094v-1.875v-1.611v-1.396v-1.09v-0.828v-0.479
		c0.218-0.176,0.436-0.176,0.436-0.176h0.306h0.393h0.436h0.523h0.61h0.654h0.697h0.741h0.828h0.828h0.872h0.872h0.916h0.959h0.959
		h0.959h0.959h0.959h1.003h0.959h0.916h0.915h0.916h0.872h0.828h0.785h0.741h0.741h0.61h0.61h0.522h0.479h0.393h0.306h0.218
		c0.175-0.174,0.175-0.305,0.175-0.305c0-0.174,0-0.393,0-0.393v-0.262v-0.262v-0.262v-0.348v-0.307v-0.391v-0.35v-0.393v-0.393
		v-0.436v-0.393v-0.436v-0.436v-0.438v-0.436v-0.436v-0.436v-0.436v-0.393v-0.393v-0.393v-0.393v-0.35v-0.348v-0.305v-0.307v-0.262
		v-0.217c0-0.219,0-0.393,0-0.393c0-0.131,0-0.219,0-0.219C509.122,540.668,443.071,540.668,443.071,540.668z"/>
</g>
<g id="LWPOLYLINE_13_">
	
		<rect x="487.715" y="182.621" fill="none" stroke="#000000" stroke-width="0.7087" stroke-linecap="round" stroke-linejoin="round" stroke-miterlimit="10" width="26.77" height="135.697"/>
</g>
<g id="LWPOLYLINE_14_">
	
		<polygon fill="none" stroke="#000000" stroke-width="0.7087" stroke-linecap="round" stroke-linejoin="round" stroke-miterlimit="10" points="
		112.688,263.189 346.459,263.189 346.459,306.723 487.715,250.895 346.459,196.006 346.459,238.578 112.688,238.578 	"/>
</g>
<g id="LWPOLYLINE_15_">
	
		<rect x="112.688" y="146" fill="none" stroke="#000000" stroke-width="0.7087" stroke-linecap="round" stroke-linejoin="round" stroke-miterlimit="10" width="24.11" height="116.973"/>
</g>
<g id="LWPOLYLINE_16_">
	
		<polygon fill="none" stroke="#000000" stroke-width="0.7087" stroke-linecap="round" stroke-linejoin="round" stroke-miterlimit="10" points="
		125.2,222.797 125.68,222.797 126.159,222.818 126.64,222.84 127.119,222.861 127.599,222.906 128.078,222.949 128.558,222.992 
		129.037,223.059 129.517,223.123 129.996,223.211 130.476,223.297 130.955,223.406 131.413,223.494 131.893,223.625 
		132.351,223.734 132.83,223.865 133.288,223.996 133.745,224.148 134.203,224.301 134.661,224.453 135.119,224.627 
		135.555,224.803 136.013,224.998 136.448,225.193 136.885,225.391 137.32,225.586 137.757,225.805 138.192,226.023 
		138.606,226.262 139.021,226.502 139.457,226.742 139.85,227.004 140.264,227.266 140.678,227.527 141.07,227.789 141.462,228.072 
		141.854,228.355 142.226,228.66 142.618,228.965 142.988,229.271 143.358,229.576 143.708,229.902 144.078,230.23 144.427,230.557 
		144.754,230.906 145.103,231.232 145.43,231.604 145.757,231.951 146.084,232.301 146.389,232.672 146.694,233.041 
		146.999,233.434 147.305,233.805 147.588,234.197 147.871,234.59 148.133,235.004 148.395,235.396 148.656,235.811 
		148.918,236.225 149.157,236.639 149.397,237.053 149.637,237.467 149.854,237.902 150.073,238.34 150.27,238.775 150.487,239.211 
		150.661,239.646 150.857,240.105 151.032,240.541 151.206,240.998 151.359,241.457 151.512,241.914 151.664,242.371 
		151.795,242.852 151.926,243.309 152.057,243.768 152.166,244.246 152.274,244.727 152.361,245.184 152.449,245.664 
		152.536,246.143 152.602,246.623 152.667,247.102 152.711,247.582 152.754,248.061 152.798,248.541 152.842,249.02 152.863,249.5 
		152.863,249.98 152.863,250.48 152.863,250.961 152.863,251.439 152.842,251.92 152.798,252.398 152.754,252.879 152.711,253.359 
		152.667,253.838 152.602,254.318 152.536,254.797 152.449,255.277 152.361,255.756 152.274,256.236 152.166,256.693 
		152.057,257.174 151.926,257.631 151.795,258.111 151.664,258.568 151.512,259.025 151.359,259.484 151.206,259.941 151.032,260.4 
		150.857,260.836 150.661,261.293 150.487,261.729 150.27,262.166 150.073,262.602 149.854,263.037 149.637,263.473 
		149.397,263.887 149.157,264.301 148.918,264.738 148.656,265.129 148.395,265.545 148.133,265.959 147.871,266.35 
		147.588,266.742 147.305,267.135 146.999,267.506 146.694,267.898 146.389,268.27 146.084,268.639 145.757,268.988 145.43,269.359 
		145.103,269.707 144.754,270.035 144.427,270.383 144.078,270.711 143.708,271.037 143.358,271.365 142.988,271.67 
		142.618,271.975 142.226,272.279 141.854,272.586 141.462,272.869 141.07,273.152 140.678,273.414 140.264,273.676 139.85,273.936 
		139.457,274.197 139.021,274.438 138.606,274.678 138.192,274.918 137.757,275.135 137.32,275.354 136.885,275.549 
		136.448,275.768 136.013,275.941 135.555,276.139 135.119,276.312 134.661,276.486 134.203,276.639 133.745,276.793 
		133.288,276.945 132.83,277.076 132.351,277.207 131.893,277.338 131.413,277.445 130.955,277.555 130.476,277.643 129.996,277.73 
		129.517,277.816 129.037,277.883 128.558,277.947 128.078,277.99 127.599,278.035 127.119,278.078 126.64,278.121 126.159,278.121 
		125.68,278.145 125.2,278.145 124.699,278.145 124.22,278.121 123.74,278.121 123.261,278.078 122.781,278.035 122.301,277.99 
		121.821,277.947 121.342,277.883 120.862,277.816 120.383,277.73 119.903,277.643 119.445,277.555 118.966,277.445 
		118.486,277.338 118.028,277.207 117.571,277.076 117.091,276.945 116.634,276.793 116.176,276.639 115.718,276.486 
		115.282,276.312 114.824,276.139 114.389,275.941 113.931,275.768 113.494,275.549 113.059,275.354 112.622,275.135 
		112.208,274.918 111.772,274.678 111.358,274.438 110.944,274.197 110.53,273.936 110.115,273.676 109.724,273.414 109.31,273.152 
		108.917,272.869 108.524,272.586 108.153,272.279 107.762,271.975 107.391,271.67 107.042,271.365 106.672,271.037 
		106.322,270.711 105.974,270.383 105.625,270.035 105.276,269.707 104.949,269.359 104.622,268.988 104.295,268.639 103.99,268.27 
		103.685,267.898 103.38,267.506 103.097,267.135 102.791,266.742 102.529,266.35 102.246,265.959 101.984,265.545 101.723,265.129 
		101.462,264.738 101.222,264.301 100.982,263.887 100.742,263.473 100.524,263.037 100.307,262.602 100.11,262.166 99.914,261.729 
		99.718,261.293 99.521,260.836 99.347,260.4 99.173,259.941 99.021,259.484 98.867,259.025 98.715,258.568 98.584,258.111 
		98.453,257.631 98.345,257.174 98.214,256.693 98.126,256.236 98.018,255.756 97.93,255.277 97.843,254.797 97.777,254.318 
		97.712,253.838 97.669,253.359 97.625,252.879 97.581,252.398 97.56,251.92 97.538,251.439 97.516,250.961 97.516,250.48 
		97.516,249.98 97.538,249.5 97.56,249.02 97.581,248.541 97.625,248.061 97.669,247.582 97.712,247.102 97.777,246.623 
		97.843,246.143 97.93,245.664 98.018,245.184 98.126,244.727 98.214,244.246 98.345,243.768 98.453,243.309 98.584,242.852 
		98.715,242.371 98.867,241.914 99.021,241.457 99.173,240.998 99.347,240.541 99.521,240.105 99.718,239.646 99.914,239.211 
		100.11,238.775 100.307,238.34 100.524,237.902 100.742,237.467 100.982,237.053 101.222,236.639 101.462,236.225 101.723,235.811 
		101.984,235.396 102.246,235.004 102.529,234.59 102.791,234.197 103.097,233.805 103.38,233.434 103.685,233.041 103.99,232.672 
		104.295,232.301 104.622,231.951 104.949,231.604 105.276,231.232 105.625,230.906 105.974,230.557 106.322,230.23 
		106.672,229.902 107.042,229.576 107.391,229.271 107.762,228.965 108.153,228.66 108.524,228.355 108.917,228.072 109.31,227.789 
		109.724,227.527 110.115,227.266 110.53,227.004 110.944,226.742 111.358,226.502 111.772,226.262 112.208,226.023 
		112.622,225.805 113.059,225.586 113.494,225.391 113.931,225.193 114.389,224.998 114.824,224.803 115.282,224.627 
		115.718,224.453 116.176,224.301 116.634,224.148 117.091,223.996 117.571,223.865 118.028,223.734 118.486,223.625 
		118.966,223.494 119.445,223.406 119.903,223.297 120.383,223.211 120.862,223.123 121.342,223.059 121.821,222.992 
		122.301,222.949 122.781,222.906 123.261,222.861 123.74,222.84 124.22,222.818 124.699,222.797 	"/>
</g>
</svg>
