<?xml version="1.0" encoding="utf-8"?>
<!-- Generator: Adobe Illustrator 16.0.1, SVG Export Plug-In . SVG Version: 6.00 Build 0)  -->
<!DOCTYPE svg PUBLIC "-//W3C//DTD SVG 1.0//EN" "http://www.w3.org/TR/2001/REC-SVG-20010904/DTD/svg10.dtd">
<svg version="1.0" id="_x31_" xmlns="http://www.w3.org/2000/svg" xmlns:xlink="http://www.w3.org/1999/xlink" x="0px" y="0px"
	 width="612px" height="792px" viewBox="0 0 612 792" enable-background="new 0 0 612 792" xml:space="preserve">
<g id="LWPOLYLINE">
	
		<path fill="none" stroke="#000000" stroke-width="0.7087" stroke-linecap="round" stroke-linejoin="round" stroke-miterlimit="10" d="
		M167.049,430.517c0.116,0,0.271,0,0.271,0c0.175,0,0.428,0,0.428,0h0.272h0.33h0.369h0.389h0.428h0.467h0.486h0.524h0.525h0.563
		h0.563h0.583h0.583h0.583h0.603h0.603h0.584h0.603h0.563h0.563h0.563h0.525h0.524h0.486h0.466h0.428h0.389h0.37h0.33h0.272h0.252
		c0.194,0,0.331,0,0.331,0c0.116,0,0.311,0,0.311,0h0.214l0.253,0.039l0.272,0.039l0.291,0.039l0.312,0.039l0.35,0.038l0.35,0.078
		l0.369,0.078l0.389,0.116l0.39,0.116l0.408,0.117l0.427,0.155l0.428,0.194l0.428,0.155l0.428,0.233l0.447,0.233l0.447,0.233
		l0.428,0.272l0.428,0.311l0.446,0.35l0.408,0.351l0.428,0.35l0.408,0.428l0.389,0.428l0.389,0.466l0.37,0.506l0.35,0.544
		l0.33,0.545l0.312,0.621l0.291,0.622l0.272,0.661l0.233,0.7l0.214,0.738l0.194,0.816l0.155,0.816l0.116,0.855l0.098,0.894
		l0.059,0.973l0.02,0.972l-0.02,1.05l-0.059,1.011l-0.098,0.972l-0.136,0.895l-0.175,0.894l-0.214,0.816l-0.233,0.777l-0.272,0.739
		l-0.291,0.738l-0.312,0.661l-0.35,0.622l-0.369,0.583l-0.408,0.583l-0.408,0.506l-0.428,0.505l-0.467,0.467l-0.446,0.428
		l-0.486,0.389l-0.506,0.35l-0.485,0.35l-0.525,0.312l-0.505,0.311l-0.524,0.272l-0.545,0.233l-0.524,0.194l-0.525,0.194
		l-0.544,0.194l-0.524,0.155l-0.525,0.155l-0.505,0.117l-0.525,0.077l-0.505,0.117l-0.486,0.077l-0.467,0.039l-0.466,0.039
		l-0.467,0.039l-0.428,0.039l-0.408,0.038h-0.389H179.8c-0.098,0-0.214,0-0.214,0c-0.136,0-0.33,0-0.33,0h-0.233h-0.253h-0.292
		h-0.33h-0.35h-0.369h-0.39h-0.408h-0.427h-0.447h-0.447h-0.467h-0.466h-0.467h-0.486h-0.466h-0.486h-0.467h-0.466h-0.447h-0.447
		h-0.428h-0.408h-0.389h-0.369H168.7h-0.311h-0.292h-0.271h-0.214c-0.194,0-0.35,0-0.35,0c-0.176,0-0.214,0-0.214,0V430.517z"/>
</g>
<g id="LWPOLYLINE_1_">
	
		<path fill="none" stroke="#000000" stroke-width="0.7087" stroke-linecap="round" stroke-linejoin="round" stroke-miterlimit="10" d="
		M167.049,512.545c0-0.078,0-0.312,0-0.312v-0.35v-0.506v-0.583v-0.738v-0.816v-0.933v-1.011v-1.128v-1.166v-1.244v-1.322v-1.36
		v-1.399v-1.438v-1.478v-1.516v-1.517v-1.516v-1.517v-1.516v-1.478v-1.478v-1.438v-1.438v-1.36v-1.283v-1.244v-1.205v-1.088v-1.011
		v-0.934v-0.816v-0.738v-0.622v-0.467v-0.35v-0.233c0.116-0.077,0.252-0.077,0.252-0.077c0.176,0,0.408,0,0.408,0h0.272h0.312h0.33
		h0.389h0.408h0.447h0.466h0.486h0.506h0.524h0.524h0.564h0.544h0.563h0.583h0.564h0.563h0.544h0.563h0.525h0.524h0.525h0.485h0.447
		h0.447h0.408h0.389h0.35h0.292h0.271h0.233c0.175,0,0.312,0,0.312,0c0.116,0,0.836,0,0.836,0l0.758-0.039l0.758-0.039l0.797-0.078
		l0.797-0.077l0.816-0.117l0.836-0.155l0.836-0.155l0.836-0.194l0.855-0.194l0.855-0.272l0.854-0.272l0.836-0.311l0.855-0.312
		l0.836-0.389l0.836-0.389l0.836-0.466l0.816-0.467l0.797-0.506l0.777-0.544l0.777-0.583l0.738-0.622l0.739-0.661l0.699-0.738
		l0.661-0.738l0.661-0.778l0.603-0.854l0.583-0.895l0.544-0.933l0.525-0.973l0.466-1.05l0.428-1.088l0.389-1.128l0.351-1.166
		l0.291-1.244l0.253-1.321l0.194-1.322l0.136-1.399l0.098-1.478l0.02-1.516l-0.02-1.594l-0.078-1.517l-0.116-1.478l-0.175-1.399
		l-0.214-1.321l-0.253-1.283l-0.292-1.244l-0.35-1.166l-0.369-1.127l-0.428-1.05l-0.447-1.011l-0.505-0.973l-0.506-0.933
		l-0.563-0.855l-0.583-0.816l-0.622-0.777l-0.642-0.738l-0.68-0.661l-0.681-0.661l-0.739-0.622l-0.738-0.544l-0.758-0.506
		l-0.777-0.505l-0.797-0.428l-0.836-0.428l-0.816-0.389l-0.855-0.35l-0.855-0.312l-0.875-0.271l-0.874-0.233l-0.895-0.233
		l-0.894-0.194l-0.895-0.155l-0.914-0.156l-0.913-0.116l-0.895-0.078l-0.913-0.077l-0.914-0.039l-0.894-0.039h-0.895
		c-0.194,0-0.428,0-0.428,0h-0.311h-0.389h-0.467h-0.544h-0.603h-0.661h-0.7h-0.777h-0.797h-0.855h-0.874h-0.914h-0.933h-0.953
		h-0.972h-0.972h-0.991h-0.991h-0.973h-0.972h-0.952h-0.934h-0.913h-0.875h-0.855h-0.797h-0.777h-0.699h-0.661h-0.603h-0.544h-0.467
		h-0.389h-0.312h-0.233c-0.194,0.155-0.194,0.661-0.194,0.661v0.816v1.089v1.399v1.633v1.904v2.1v2.332v2.488v2.683v2.838v2.993
		v3.071v3.227v3.266v3.344v3.421v3.46v3.46v3.46v3.421v3.421v3.344v3.305v3.188v3.11v2.954v2.838v2.683v2.526v2.333v2.1v1.865v1.633
		v1.4v1.088v0.816v0.506C155.91,512.545,167.049,512.545,167.049,512.545z"/>
</g>
<g id="LWPOLYLINE_2_">
	
		<path fill="none" stroke="#000000" stroke-width="0.7087" stroke-linecap="round" stroke-linejoin="round" stroke-miterlimit="10" d="
		M235.528,430.517c0.136,0,0.291,0,0.291,0h0.194h0.272h0.311h0.351h0.408h0.428h0.485h0.506h0.544h0.563h0.583h0.603h0.622h0.642
		h0.642h0.661h0.661h0.641h0.661h0.642h0.642h0.622h0.603h0.583h0.583h0.525h0.505h0.486h0.428h0.408h0.35h0.311h0.272h0.214
		c0.155,0,0.233,0,0.233,0c0.039,0,0.68,0,0.68,0l0.642,0.039l0.603,0.078l0.583,0.077l0.564,0.117l0.544,0.155l0.524,0.155
		l0.506,0.194l0.485,0.194l0.467,0.194l0.447,0.272l0.447,0.233l0.408,0.272l0.389,0.311l0.389,0.311l0.35,0.312l0.351,0.35
		l0.311,0.35l0.311,0.39l0.292,0.389l0.272,0.389l0.271,0.389l0.233,0.428l0.233,0.428l0.214,0.428l0.194,0.427l0.175,0.467
		l0.175,0.467l0.156,0.467l0.136,0.466l0.116,0.467l0.117,0.467l0.097,0.466l0.078,0.506l0.077,0.467l0.059,0.505l0.039,0.467
		l0.02,0.505l0.02,0.467l0.02,0.467l-0.02,0.66l-0.02,0.661l-0.039,0.622l-0.059,0.661l-0.058,0.622l-0.078,0.583l-0.097,0.622
		l-0.117,0.583l-0.136,0.622l-0.137,0.544l-0.155,0.583l-0.175,0.545l-0.175,0.544l-0.214,0.544l-0.214,0.506l-0.233,0.505
		l-0.233,0.467l-0.271,0.467l-0.272,0.467l-0.292,0.466l-0.311,0.428l-0.311,0.389l-0.351,0.389l-0.35,0.389l-0.35,0.351
		l-0.389,0.311l-0.389,0.312l-0.408,0.311l-0.428,0.272l-0.447,0.271l-0.447,0.233l-0.486,0.194l-0.485,0.194l-0.486,0.156
		l-0.524,0.155l-0.525,0.116l-0.544,0.078l-0.563,0.077l-0.583,0.039h-0.583c-0.117,0-0.272,0-0.272,0h-0.214h-0.272h-0.311h-0.35
		h-0.408h-0.428h-0.486h-0.505h-0.525h-0.583h-0.583h-0.603h-0.622h-0.642h-0.642h-0.661h-0.641h-0.661h-0.661h-0.642h-0.642h-0.622
		h-0.603h-0.583h-0.563h-0.544h-0.506h-0.485h-0.428h-0.408h-0.351h-0.311h-0.272h-0.194c-0.155,0-0.252,0-0.252,0
		C235.528,459.984,235.528,430.517,235.528,430.517z"/>
</g>
<g id="LWPOLYLINE_3_">
	
		<path fill="none" stroke="#000000" stroke-width="0.7087" stroke-linecap="round" stroke-linejoin="round" stroke-miterlimit="10" d="
		M224.391,512.545c0.175,0,0.311,0,0.311,0c0.155,0,0.35,0,0.35,0h0.233h0.253h0.291h0.292h0.33h0.331h0.369h0.369h0.389h0.389
		h0.408h0.408h0.428h0.408h0.428h0.408h0.408h0.408h0.408h0.389h0.369h0.351h0.35h0.311h0.312h0.271h0.253h0.233
		c0.194,0,0.369,0,0.369,0c0.137,0,0.233,0,0.233,0c0.078-0.078,0.078-0.312,0.078-0.312v-0.389v-0.505v-0.622v-0.739v-0.894v-0.934
		v-1.088v-1.128v-1.244v-1.282v-1.361v-1.399v-1.477v-1.517v-1.517v-1.555v-1.594v-1.555v-1.595v-1.555v-1.555v-1.556v-1.477v-1.478
		v-1.399v-1.361v-1.321v-1.205v-1.166v-1.05v-0.972v-0.855v-0.739v-0.622v-0.505v-0.389v-0.233c0.097-0.078,0.214-0.078,0.214-0.078
		c0.175,0,0.369,0,0.369,0h0.233h0.291h0.292h0.35h0.369h0.389h0.408h0.447h0.447h0.467h0.485h0.486h0.505h0.506h0.505h0.506h0.505
		h0.506h0.486h0.485h0.467h0.447h0.446h0.408h0.408h0.37h0.33h0.312h0.271h0.233h0.214c0.155,0,0.272,0,0.272,0
		c0.097,0,0.408,0,0.408,0h0.33h0.33h0.37l0.35,0.039h0.389l0.389,0.039h0.389l0.408,0.039l0.428,0.077l0.408,0.039l0.428,0.078
		l0.428,0.078l0.447,0.077l0.427,0.117l0.428,0.116l0.428,0.155l0.428,0.155l0.428,0.194l0.428,0.195l0.408,0.232l0.408,0.233
		l0.408,0.272l0.389,0.272l0.369,0.311l0.369,0.35l0.351,0.351l0.35,0.389l0.33,0.428l0.292,0.466l0.291,0.506l0.272,0.505
		l0.253,0.545l0.233,0.583l0.194,0.622l0.194,0.66l0.155,0.7l0.136,0.738l0.098,0.778l0.077,0.816l0.059,0.894l0.039,0.895
		l0.059,0.894l0.039,0.895l0.038,0.895l0.039,0.894l0.02,0.855l0.039,0.895l0.02,0.894l0.039,0.855l0.019,0.895l0.02,0.854
		l0.039,0.855l0.02,0.855l0.02,0.855l0.039,0.854l0.039,0.816l0.02,0.816l0.038,0.816l0.059,0.816l0.039,0.816l0.059,0.778
		l0.058,0.777l0.059,0.777l0.059,0.777l0.077,0.738l0.098,0.739l0.097,0.738l0.098,0.7l0.116,0.699l0.117,0.7l0.136,0.661
		l0.136,0.66l0.156,0.661l0.155,0.622l0.175,0.622l0.194,0.583l0.194,0.583l0.233,0.545l0.233,0.583c0.077,0,0.194,0,0.194,0
		c0.155,0,0.35,0,0.35,0h0.214h0.272h0.291h0.312h0.35h0.369h0.389h0.408h0.428h0.447h0.447h0.467h0.466h0.486h0.467h0.485h0.467
		h0.467h0.466h0.467h0.428h0.428h0.408h0.389h0.369h0.35h0.331h0.291h0.253h0.233c0.175,0,0.33,0,0.33,0c0.194,0,0.214,0,0.214,0
		l-0.175-0.506l-0.175-0.544l-0.155-0.544l-0.175-0.545l-0.137-0.622l-0.155-0.583l-0.136-0.661l-0.137-0.66l-0.136-0.661
		l-0.136-0.661l-0.117-0.699l-0.116-0.7l-0.098-0.738l-0.116-0.739l-0.098-0.699l-0.097-0.739l-0.098-0.738l-0.077-0.738
		l-0.078-0.739l-0.078-0.738l-0.077-0.738l-0.059-0.7l-0.078-0.738l-0.058-0.7l-0.059-0.699l-0.039-0.661l-0.058-0.661l-0.039-0.661
		l-0.039-0.622l-0.039-0.622l-0.02-0.583l-0.039-0.583l-0.02-0.544l-0.019-0.506l-0.02-0.466l-0.02-0.467v-0.428l-0.02-0.389v-0.35
		v-0.312l-0.059-1.36l-0.077-1.283l-0.098-1.244l-0.098-1.166l-0.116-1.127l-0.136-1.089l-0.137-1.05l-0.155-0.972l-0.175-0.934
		l-0.194-0.894l-0.194-0.855l-0.214-0.816l-0.233-0.777l-0.253-0.738l-0.271-0.7l-0.272-0.622l-0.311-0.622l-0.312-0.583
		l-0.33-0.583l-0.351-0.506l-0.369-0.505l-0.369-0.467l-0.408-0.428l-0.428-0.428l-0.447-0.389l-0.466-0.35l-0.467-0.35
		l-0.506-0.312l-0.524-0.311l-0.544-0.272l-0.563-0.272l-0.584-0.232l-0.603-0.272l-0.622-0.194l-0.66-0.233l-0.661-0.194
		l-0.7-0.194l-0.719-0.194l-0.738-0.194l-0.759-0.194l0.759-0.117l0.758-0.155l0.738-0.194l0.72-0.194l0.719-0.233l0.681-0.271
		l0.68-0.272l0.661-0.312l0.642-0.35l0.622-0.35l0.603-0.35l0.583-0.39l0.583-0.427l0.545-0.428l0.544-0.467l0.524-0.467
		l0.486-0.505l0.485-0.506l0.467-0.505l0.447-0.545l0.408-0.583l0.408-0.583l0.389-0.583l0.369-0.622l0.331-0.622l0.33-0.622
		l0.292-0.661l0.291-0.621l0.253-0.7l0.233-0.661l0.233-0.699l0.194-0.739l0.175-0.699l0.136-0.739l0.136-0.738l0.098-0.738
		l0.097-0.739l0.039-0.777l0.039-0.738l0.02-0.777l-0.02-0.895l-0.02-0.895l-0.059-0.894l-0.077-0.855l-0.098-0.895l-0.116-0.854
		l-0.155-0.855l-0.156-0.855l-0.194-0.816l-0.232-0.855l-0.233-0.777l-0.272-0.816l-0.292-0.777l-0.33-0.777l-0.35-0.739
		l-0.369-0.738l-0.408-0.7l-0.447-0.699l-0.447-0.7l-0.505-0.622l-0.525-0.66l-0.544-0.584l-0.583-0.583l-0.622-0.583l-0.642-0.505
		l-0.681-0.506l-0.719-0.467l-0.739-0.466l-0.777-0.428l-0.816-0.389l-0.836-0.35l-0.874-0.312l-0.914-0.272l-0.952-0.271
		l-0.991-0.194l-1.03-0.194l-1.069-0.117l-1.089-0.116l-1.127-0.078h-1.186c-0.059,0-0.214,0-0.214,0h-0.292h-0.369h-0.467h-0.544
		h-0.642h-0.699h-0.778h-0.854h-0.895h-0.952h-1.011h-1.03h-1.069h-1.107h-1.128h-1.146h-1.167h-1.166h-1.166h-1.146h-1.147h-1.127
		h-1.108h-1.069h-1.049h-0.991h-0.953h-0.913h-0.836h-0.777h-0.72h-0.622h-0.563h-0.467h-0.369h-0.272c-0.155,0-0.213,0-0.213,0
		V512.545z"/>
</g>
<g id="LWPOLYLINE_4_">
	
		<path fill="none" stroke="#000000" stroke-width="0.7087" stroke-linecap="round" stroke-linejoin="round" stroke-miterlimit="10" d="
		M319.908,514.139l1.438-0.039l1.361-0.039l1.36-0.116l1.283-0.155l1.282-0.156l1.244-0.233l1.205-0.271l1.167-0.272l1.127-0.35
		l1.089-0.389l1.05-0.428l1.011-0.506l1.011-0.505l0.933-0.583l0.933-0.583l0.855-0.661l0.855-0.7l0.816-0.738l0.738-0.816
		l0.739-0.855l0.699-0.855l0.661-0.972l0.622-0.972l0.622-1.05l0.544-1.05l0.506-1.166l0.505-1.166l0.428-1.244l0.428-1.283
		l0.389-1.36l0.312-1.36l0.311-1.478l0.272-1.478l0.233-1.555l0.194-1.594l0.155-1.672l0.155-1.711l0.078-1.788l0.039-1.827
		l0.038-1.866c0-0.077,0-0.233,0-0.233v-0.271v-0.351v-0.466v-0.506v-0.622v-0.699v-0.777v-0.816v-0.855v-0.934v-0.972v-1.011v-1.05
		v-1.088v-1.089v-1.127V464.3v-1.127v-1.128v-1.127v-1.128v-1.088v-1.089v-1.05v-1.011v-0.972v-0.934v-0.894v-0.816v-0.738v-0.7
		v-0.622v-0.544v-0.467v-0.35v-0.272c0-0.155,0-0.194,0-0.194l-0.038-1.36l-0.039-1.361l-0.078-1.282l-0.155-1.283l-0.155-1.244
		l-0.194-1.244l-0.233-1.166l-0.272-1.166l-0.311-1.128l-0.312-1.088l-0.389-1.089l-0.428-1.05l-0.428-1.011l-0.505-0.972
		l-0.506-0.933l-0.544-0.934l-0.622-0.855l-0.622-0.854l-0.661-0.816l-0.699-0.778l-0.739-0.738l-0.738-0.7l-0.816-0.699
		l-0.855-0.622l-0.855-0.622l-0.933-0.544l-0.933-0.545l-1.011-0.466l-1.011-0.467l-1.05-0.428l-1.089-0.389l-1.127-0.311
		l-1.167-0.312l-1.205-0.272l-1.244-0.232l-1.282-0.195l-1.283-0.116l-1.36-0.116l-1.361-0.078h-1.438h-1.4l-1.399,0.078
		l-1.321,0.116l-1.322,0.116l-1.244,0.195l-1.243,0.232l-1.205,0.272l-1.167,0.312l-1.127,0.311l-1.089,0.389l-1.05,0.428
		l-1.03,0.467l-0.991,0.466l-0.952,0.545l-0.914,0.544l-0.874,0.622l-0.836,0.622l-0.816,0.699l-0.758,0.7l-0.739,0.738
		l-0.699,0.778l-0.661,0.816l-0.622,0.854l-0.603,0.855l-0.544,0.934l-0.525,0.933l-0.485,0.972l-0.447,1.011l-0.408,1.05
		l-0.389,1.089l-0.331,1.088l-0.311,1.128l-0.272,1.166l-0.233,1.166l-0.194,1.244l-0.155,1.244l-0.116,1.283l-0.098,1.282
		l-0.059,1.361l-0.019,1.36c0,0.039,0,0.194,0,0.194v0.272v0.35v0.467v0.544v0.622v0.7v0.738v0.816v0.894v0.934v0.972v1.011v1.05
		v1.089v1.088v1.128v1.127v1.128v1.127v1.128v1.127v1.089v1.088v1.05v1.011v0.972v0.934v0.855v0.816v0.777v0.699v0.622v0.506v0.466
		v0.351v0.271c0,0.156,0,0.233,0,0.233l0.019,1.866l0.059,1.827l0.098,1.788l0.116,1.711l0.155,1.672l0.194,1.594l0.233,1.555
		l0.272,1.478l0.311,1.478l0.331,1.36l0.389,1.36l0.408,1.283l0.447,1.244l0.485,1.166l0.525,1.166l0.544,1.05l0.603,1.05
		l0.622,0.972l0.661,0.972l0.699,0.855l0.739,0.855l0.758,0.816l0.816,0.738l0.836,0.7l0.874,0.661l0.914,0.583l0.952,0.583
		l0.991,0.505l1.03,0.506l1.05,0.428l1.089,0.389l1.127,0.35l1.167,0.272l1.205,0.271l1.243,0.233l1.244,0.156l1.322,0.155
		l1.321,0.116l1.399,0.039L319.908,514.139z"/>
</g>
<g id="LWPOLYLINE_5_">
	
		<path fill="none" stroke="#000000" stroke-width="0.7087" stroke-linecap="round" stroke-linejoin="round" stroke-miterlimit="10" d="
		M319.908,504.575l-0.816-0.039h-0.816l-0.778-0.078l-0.738-0.077l-0.738-0.078l-0.739-0.155l-0.699-0.155l-0.661-0.155
		l-0.661-0.233l-0.66-0.233l-0.622-0.233l-0.584-0.311l-0.583-0.312l-0.544-0.389l-0.544-0.389l-0.506-0.389l-0.505-0.467
		l-0.467-0.505l-0.428-0.506l-0.428-0.583l-0.428-0.583l-0.389-0.661l-0.35-0.661l-0.35-0.738l-0.312-0.738l-0.311-0.816
		l-0.272-0.816l-0.272-0.895l-0.233-0.933l-0.232-0.973l-0.194-1.011l-0.176-1.088l-0.155-1.089l-0.136-1.166l-0.117-1.205
		l-0.097-1.283l-0.059-1.321l-0.058-1.361l-0.039-1.399v-1.478c0-0.038,0-0.194,0-0.194v-0.271v-0.389v-0.467v-0.544v-0.622v-0.739
		v-0.777v-0.816v-0.933v-0.934v-1.011v-1.05v-1.049v-1.128v-1.127v-1.128v-1.166v-1.166v-1.167v-1.166v-1.127v-1.128v-1.127v-1.05
		v-1.05v-1.011v-0.933v-0.934v-0.816v-0.777v-0.738v-0.622v-0.544v-0.467v-0.389v-0.272c0-0.155,0-0.194,0-0.194l0.02-1.399
		l0.058-1.36l0.117-1.244l0.155-1.205l0.194-1.128l0.233-1.088l0.272-1.05l0.291-0.934l0.35-0.933l0.351-0.855l0.389-0.777
		l0.428-0.777l0.428-0.7l0.466-0.661l0.467-0.583l0.505-0.583l0.506-0.505l0.544-0.506l0.545-0.428l0.544-0.428l0.544-0.35
		l0.583-0.35l0.545-0.312l0.583-0.271l0.544-0.233l0.583-0.194l0.545-0.194l0.544-0.194l0.544-0.117l0.545-0.116l0.505-0.117
		l0.506-0.077l0.505-0.078l0.467-0.039l0.467-0.038l0.389-0.039l0.428-0.039h0.35h0.35h0.312h0.311h0.35h0.389l0.389,0.039
		l0.428,0.039l0.467,0.038l0.467,0.039l0.466,0.078l0.506,0.077l0.544,0.117l0.506,0.116l0.544,0.117l0.583,0.194l0.545,0.194
		l0.544,0.194l0.583,0.233l0.583,0.271l0.545,0.312l0.583,0.35l0.544,0.35l0.544,0.428l0.545,0.428l0.505,0.506l0.544,0.505
		l0.467,0.583l0.506,0.583l0.466,0.661l0.428,0.7l0.428,0.777l0.389,0.777l0.351,0.855l0.35,0.933l0.271,0.934l0.272,1.05
		l0.233,1.088l0.194,1.128l0.155,1.205l0.117,1.244l0.077,1.36v1.399c0,0.039,0,0.194,0,0.194v0.272v0.389v0.467v0.544v0.622v0.738
		v0.777v0.816v0.934v0.933v1.011v1.05v1.05v1.127v1.128v1.127v1.166v1.167v1.166v1.166v1.128v1.127v1.128v1.049v1.05v1.011v0.934
		v0.933v0.816v0.777v0.739v0.622v0.544v0.467v0.389v0.271c0,0.156,0,0.194,0,0.194v1.478l-0.038,1.399l-0.039,1.361l-0.078,1.321
		l-0.078,1.283l-0.116,1.205l-0.155,1.166l-0.155,1.089l-0.156,1.088l-0.194,1.011l-0.233,0.973l-0.232,0.933l-0.272,0.895
		l-0.272,0.816l-0.311,0.816l-0.312,0.738l-0.35,0.738l-0.389,0.661l-0.389,0.661l-0.389,0.583l-0.428,0.583l-0.467,0.506
		l-0.467,0.505l-0.466,0.467l-0.545,0.389l-0.505,0.389l-0.544,0.389l-0.584,0.312l-0.621,0.311l-0.584,0.233l-0.66,0.233
		l-0.661,0.233l-0.661,0.155l-0.699,0.155l-0.739,0.155l-0.738,0.078l-0.777,0.077l-0.777,0.078h-0.778L319.908,504.575z"/>
</g>
<g id="LWPOLYLINE_6_">
	
		<path fill="none" stroke="#000000" stroke-width="0.7087" stroke-linecap="round" stroke-linejoin="round" stroke-miterlimit="10" d="
		M423.434,444.862l-0.039-1.438l-0.038-1.361l-0.078-1.321l-0.116-1.283l-0.156-1.205l-0.194-1.205l-0.194-1.166l-0.271-1.089
		l-0.272-1.088l-0.312-1.011l-0.35-1.011l-0.389-0.934l-0.428-0.894l-0.467-0.895l-0.466-0.816l-0.545-0.777l-0.544-0.777
		l-0.622-0.7l-0.622-0.7l-0.661-0.621l-0.699-0.622l-0.738-0.584l-0.778-0.544l-0.816-0.505l-0.854-0.467l-0.895-0.428l-0.933-0.389
		l-0.934-0.389l-1.011-0.35l-1.05-0.312l-1.05-0.272l-1.127-0.232l-1.127-0.194l-1.205-0.194l-1.206-0.156l-1.243-0.116
		l-1.322-0.117l-1.321-0.077l-1.4-0.039h-1.399h-1.399l-1.399,0.078l-1.321,0.116l-1.322,0.116l-1.283,0.195l-1.243,0.232
		l-1.167,0.272l-1.166,0.312l-1.127,0.311l-1.128,0.389l-1.05,0.428l-1.011,0.467l-0.972,0.466l-0.972,0.545l-0.895,0.544
		l-0.894,0.622l-0.855,0.622l-0.777,0.699l-0.778,0.7l-0.738,0.738l-0.699,0.778l-0.661,0.816l-0.622,0.854l-0.583,0.855
		l-0.583,0.934l-0.506,0.933l-0.467,0.972l-0.466,1.011l-0.428,1.05l-0.35,1.089l-0.351,1.088l-0.311,1.128l-0.272,1.166
		l-0.233,1.166l-0.194,1.244l-0.155,1.244l-0.116,1.283l-0.078,1.282l-0.078,1.361v1.36c0,0.039,0,0.194,0,0.194v0.272v0.35v0.467
		v0.544v0.622v0.7v0.738v0.816v0.894v0.934v0.972v1.011v1.05v1.089v1.088v1.128v1.127v1.128v1.127v1.128v1.127v1.089v1.088v1.05
		v1.011v0.972v0.934v0.855v0.816v0.777v0.699v0.622v0.506v0.466v0.351v0.271c0,0.156,0,0.233,0,0.233v1.866l0.078,1.827l0.078,1.788
		l0.116,1.711l0.155,1.672l0.194,1.594l0.233,1.555l0.272,1.478l0.311,1.478l0.351,1.36l0.35,1.36l0.428,1.283l0.466,1.244
		l0.467,1.166l0.506,1.166l0.583,1.05l0.583,1.05l0.622,0.972l0.661,0.972l0.699,0.855l0.738,0.855l0.778,0.816l0.777,0.738
		l0.855,0.7l0.894,0.661l0.895,0.583l0.972,0.583l0.972,0.505l1.011,0.506l1.05,0.428l1.128,0.389l1.127,0.35l1.166,0.272
		l1.167,0.271l1.243,0.233l1.283,0.156l1.322,0.155l1.321,0.116l1.399,0.039l1.399,0.039l0.895-0.039h0.855l0.855-0.039l0.854-0.039
		l0.855-0.038l0.816-0.078l0.777-0.078l0.816-0.077l0.777-0.078l0.778-0.116l0.738-0.117l0.777-0.116l0.739-0.117l0.699-0.155
		l0.738-0.155l0.7-0.155l0.7-0.155l0.699-0.195l0.661-0.155l0.699-0.194l0.661-0.194l0.661-0.233l0.661-0.194l0.622-0.233
		l0.66-0.194l0.622-0.232l0.661-0.272l0.622-0.233l0.622-0.233l0.622-0.272l0.583-0.271l0.622-0.233l0.622-0.272l0.583-0.271
		l0.622-0.272l0.583-0.311l0.622-0.272l0.583-0.312l0.583-0.271l0.622-0.312c0-0.077,0-0.311,0-0.311v-0.389v-0.545v-0.66v-0.778
		v-0.933v-1.011v-1.127v-1.206v-1.282v-1.399v-1.399v-1.517v-1.555v-1.556v-1.633v-1.633v-1.671v-1.672v-1.672v-1.672v-1.633v-1.633
		v-1.594v-1.555v-1.478v-1.438v-1.36v-1.283v-1.244v-1.088v-1.05v-0.895V464.3v-0.699v-0.506v-0.389v-0.272
		c-0.077-0.077-0.233-0.077-0.233-0.077h-0.232h-0.351h-0.428h-0.505h-0.583h-0.661h-0.7h-0.777h-0.855h-0.854h-0.934h-0.972h-0.972
		h-1.05h-1.05h-1.05h-1.05h-1.088h-1.05h-1.089h-1.05h-1.049h-1.011h-1.011h-0.934h-0.933h-0.895h-0.816h-0.777h-0.738h-0.661
		h-0.583h-0.506h-0.428h-0.35h-0.233c-0.155,0-0.194,0-0.194,0c0,0.194,0,0.311,0,0.311c0,0.155,0,0.312,0,0.312v0.232v0.233v0.272
		v0.272v0.311v0.312v0.311v0.35v0.389v0.351v0.389v0.389v0.35v0.389v0.389v0.389v0.389v0.39v0.35v0.389v0.311v0.351v0.311v0.312
		v0.271v0.272v0.233v0.194c0,0.194,0,0.35,0,0.35c0,0.117,0,0.233,0,0.233c0.117,0.078,0.233,0.078,0.233,0.078h0.233h0.233h0.311
		h0.312h0.389h0.428h0.466h0.467h0.506h0.544h0.583h0.583h0.583h0.622h0.583h0.622h0.661h0.622h0.622h0.622h0.583h0.622h0.544h0.583
		h0.545h0.505h0.467h0.467h0.428h0.389h0.311h0.312h0.271h0.194c0.117,0,0.233,0,0.233,0c0.039,0.194,0.039,0.427,0.039,0.427v0.312
		v0.389v0.506v0.544v0.622v0.661v0.738v0.816v0.816v0.855v0.933v0.933v0.973v0.972v1.011v1.011v1.011v1.011v1.011v0.972v1.011v0.973
		v0.933v0.895v0.854v0.855v0.777v0.739v0.66v0.622v0.583v0.467v0.389v0.351v0.232c0,0.194-0.194,0.389-0.194,0.389
		c-0.194,0.156-0.428,0.351-0.428,0.351l-0.194,0.155l-0.233,0.194l-0.272,0.155l-0.232,0.194l-0.272,0.156l-0.272,0.194
		l-0.311,0.155l-0.272,0.155l-0.311,0.194l-0.351,0.155l-0.311,0.156l-0.35,0.155l-0.351,0.155l-0.389,0.116l-0.35,0.156
		l-0.389,0.155l-0.389,0.116l-0.428,0.156l-0.428,0.116l-0.428,0.116l-0.428,0.117l-0.466,0.116l-0.428,0.117l-0.467,0.077
		l-0.506,0.117l-0.466,0.077l-0.506,0.078l-0.505,0.078l-0.545,0.077l-0.505,0.039l-0.544,0.078l-0.545,0.038l-0.544,0.039
		l-0.583,0.039h-0.583l-0.584,0.039h-0.583l-0.816-0.039h-0.816l-0.777-0.078l-0.777-0.077l-0.738-0.078l-0.7-0.155l-0.699-0.155
		l-0.7-0.155l-0.661-0.233l-0.622-0.233l-0.622-0.233l-0.583-0.311l-0.583-0.312l-0.544-0.389l-0.545-0.389l-0.505-0.389
		l-0.506-0.467l-0.466-0.505l-0.467-0.506l-0.428-0.583l-0.389-0.583l-0.389-0.661l-0.35-0.661l-0.351-0.738l-0.35-0.738
		l-0.272-0.816l-0.311-0.816l-0.233-0.895l-0.272-0.933l-0.194-0.973l-0.194-1.011l-0.194-1.088l-0.155-1.089l-0.116-1.166
		l-0.117-1.205l-0.116-1.283l-0.078-1.321l-0.039-1.361l-0.038-1.399v-1.478c0-0.038,0-0.194,0-0.194v-0.271v-0.389v-0.467v-0.544
		v-0.622v-0.739v-0.777v-0.816v-0.933v-0.934v-1.011v-1.05v-1.049v-1.128v-1.127v-1.128v-1.166v-1.166v-1.167v-1.166v-1.127v-1.128
		v-1.127v-1.05v-1.05v-1.011v-0.933v-0.934v-0.816v-0.777v-0.738v-0.622v-0.544v-0.467v-0.389v-0.272c0-0.155,0-0.194,0-0.194
		l0.038-1.399l0.039-1.36l0.117-1.244l0.155-1.205l0.194-1.128l0.233-1.088l0.271-1.05l0.312-0.934l0.311-0.933l0.389-0.855
		l0.39-0.777l0.389-0.777l0.466-0.7l0.467-0.661l0.467-0.583l0.505-0.583l0.506-0.505l0.544-0.506l0.506-0.428l0.583-0.428
		l0.544-0.35l0.544-0.35l0.584-0.312l0.544-0.271l0.583-0.233l0.544-0.194l0.583-0.194l0.545-0.194l0.544-0.117l0.544-0.116
		l0.506-0.117l0.505-0.077l0.467-0.078l0.506-0.039l0.428-0.038l0.427-0.039l0.39-0.039h0.389h0.35h0.311h0.816l0.816,0.039
		l0.739,0.039l0.777,0.077l0.699,0.078l0.7,0.116l0.661,0.155l0.66,0.156l0.584,0.155l0.622,0.233l0.544,0.194l0.544,0.233
		l0.545,0.271l0.505,0.272l0.467,0.311l0.466,0.312l0.428,0.35l0.428,0.389l0.389,0.389l0.351,0.389l0.35,0.428l0.311,0.467
		l0.312,0.467l0.311,0.466l0.272,0.545l0.233,0.505l0.233,0.583l0.194,0.545l0.194,0.622l0.194,0.622l0.155,0.622l0.116,0.66
		l0.117,0.661l0.116,0.7l0.078,0.738l0.078,0.738l0.038,0.778l0.039,0.777l0.039,0.816v0.816H423.434z"/>
</g>
<g id="LWPOLYLINE_7_">
	
		<path fill="none" stroke="#000000" stroke-width="0.7087" stroke-linecap="round" stroke-linejoin="round" stroke-miterlimit="10" d="
		M452.901,498.977c-0.194,0-0.35,0-0.35,0c-0.194,0-0.389,0-0.389,0h-0.233h-0.272h-0.311h-0.312h-0.35h-0.389h-0.389h-0.389h-0.428
		h-0.428h-0.428h-0.428h-0.466h-0.428h-0.467h-0.428h-0.428h-0.428h-0.428h-0.428h-0.389h-0.389h-0.389h-0.35h-0.312h-0.311h-0.272
		h-0.232h-0.195c-0.194,0-0.35,0-0.35,0c-0.194,0.117-0.194,0.233-0.194,0.233c0,0.156,0,0.351,0,0.351v0.271v0.272v0.311v0.312
		v0.389v0.389v0.428v0.428v0.428v0.505v0.467v0.505v0.467v0.506v0.505v0.545v0.466v0.506v0.505v0.467v0.467v0.466v0.428v0.428v0.389
		v0.389v0.312v0.311v0.272v0.272v0.194c0,0.155,0,0.271,0,0.271c0.194,0.117,0.35,0.117,0.35,0.117c0.194,0,0.39,0,0.39,0h0.232
		h0.272h0.311h0.312h0.35h0.389h0.389h0.389h0.428h0.428h0.428h0.428h0.428h0.467h0.428h0.466h0.428h0.428h0.428h0.428h0.389h0.389
		h0.389h0.35h0.312h0.311h0.272h0.233h0.194c0.194,0,0.35,0,0.35,0C452.901,512.545,452.901,498.977,452.901,498.977z"/>
</g>
<g id="LWPOLYLINE_8_">
	
		<path fill="none" stroke="#000000" stroke-width="0.7087" stroke-linecap="round" stroke-linejoin="round" stroke-miterlimit="10" d="
		M53.201,561.878c0.058,0.155,0.175,0.622,0.175,0.622l0.233,0.699l0.291,0.973l0.369,1.244l0.428,1.438l0.506,1.71l0.563,1.866
		l0.622,2.061l0.681,2.216l0.699,2.371l0.759,2.527l0.797,2.644l0.836,2.76l0.854,2.838l0.875,2.916l0.895,2.993l0.913,2.993
		l0.914,3.071l0.933,3.071l0.933,3.071l0.914,3.071l0.913,3.032l0.895,2.955l0.875,2.915l0.855,2.838l0.835,2.761l0.798,2.644
		l0.758,2.526l0.719,2.372l0.661,2.216l0.622,2.06l0.563,1.905l0.506,1.672l0.428,1.438l0.369,1.244l0.311,0.972l0.214,0.699
		l0.136,0.467c0.117,0.155,0.214,0.155,0.214,0.155c0.137,0,0.312,0,0.312,0c0.194,0,0.428,0,0.428,0h0.253h0.271h0.312h0.311h0.35
		h0.351h0.369h0.389h0.408h0.408h0.408h0.408h0.428h0.408h0.428h0.408h0.408h0.389h0.389h0.369h0.369h0.331h0.33h0.292h0.291h0.253
		h0.233c0.194,0,0.35,0,0.35,0c0.136,0,0.233,0,0.233,0c0.136-0.155,0.272-0.622,0.272-0.622l0.213-0.699l0.292-0.972l0.369-1.244
		l0.447-1.438l0.486-1.672l0.563-1.905l0.622-2.06l0.68-2.216l0.72-2.372l0.758-2.526l0.797-2.644l0.816-2.761l0.855-2.838
		l0.875-2.915l0.913-2.955l0.895-3.032l0.933-3.071l0.914-3.071l0.933-3.071l0.914-3.071l0.913-2.993l0.895-2.993l0.874-2.916
		l0.855-2.838l0.836-2.76l0.797-2.644l0.759-2.527l0.719-2.371l0.661-2.216l0.622-2.061l0.563-1.866l0.505-1.71l0.447-1.438
		l0.369-1.244l0.292-0.973l0.214-0.699l0.136-0.467c0.039,0,0.039,0.467,0.039,0.467v0.699v0.973v1.244v1.438v1.71v1.866v2.061
		v2.216v2.371v2.527v2.644v2.76v2.838v2.916v2.993v2.993v3.071v3.071v3.071v3.071v3.032v2.955v2.915v2.838v2.761v2.644v2.526v2.372
		v2.216v2.06v1.905v1.672v1.438v1.244v0.972v0.699v0.467c0.175,0.155,0.312,0.155,0.312,0.155c0.175,0,0.369,0,0.369,0h0.233h0.252
		h0.272h0.311h0.312h0.35h0.35h0.39h0.389h0.389h0.408h0.408h0.408h0.428h0.408h0.427h0.408h0.408h0.39h0.389h0.369h0.369h0.33
		h0.331h0.311h0.272h0.253h0.233c0.194,0,0.369,0,0.369,0c0.116,0,0.214,0,0.214,0c0.097-0.194,0.097-0.66,0.097-0.66v-0.816v-1.128
		v-1.36v-1.672v-1.866v-2.099v-2.333v-2.488v-2.682v-2.838v-2.994v-3.109v-3.188v-3.266v-3.382v-3.382v-3.46v-3.46v-3.46v-3.46
		v-3.383v-3.382v-3.266v-3.227v-3.071v-2.993v-2.838v-2.683v-2.488v-2.332v-2.1v-1.905v-1.633v-1.36v-1.127v-0.816v-0.506
		c-0.155-0.155-0.311-0.155-0.311-0.155h-0.233h-0.292h-0.33h-0.389h-0.447h-0.467h-0.524h-0.544h-0.603h-0.604h-0.641h-0.661
		h-0.681h-0.699h-0.7h-0.719h-0.72h-0.719h-0.7h-0.719h-0.681h-0.681h-0.66h-0.642h-0.622h-0.583h-0.563h-0.506h-0.486h-0.446
		h-0.389h-0.331h-0.291h-0.233c-0.156,0-0.272,0-0.272,0c-0.078,0.155-0.194,0.544-0.194,0.544l-0.194,0.7l-0.272,0.933l-0.33,1.128
		l-0.389,1.399l-0.447,1.555l-0.524,1.788l-0.564,1.944l-0.603,2.061l-0.641,2.254l-0.681,2.372l-0.72,2.488l-0.758,2.604
		l-0.758,2.683l-0.797,2.721l-0.816,2.838l-0.816,2.838l-0.836,2.877l-0.836,2.877l-0.836,2.916l-0.836,2.876l-0.816,2.838
		l-0.816,2.8l-0.777,2.76l-0.777,2.683l-0.758,2.604l-0.72,2.488l-0.68,2.371l-0.642,2.216l-0.603,2.1l-0.564,1.943l-0.505,1.75
		l-0.467,1.594l-0.389,1.36l-0.33,1.167l-0.272,0.933l-0.194,0.661l-0.116,0.428c-0.078,0-0.214-0.428-0.214-0.428l-0.194-0.661
		l-0.253-0.933l-0.35-1.167l-0.389-1.36l-0.447-1.594l-0.525-1.75l-0.544-1.943l-0.622-2.1l-0.642-2.216l-0.68-2.371l-0.72-2.488
		l-0.738-2.604l-0.777-2.683l-0.798-2.76l-0.815-2.8l-0.816-2.838l-0.836-2.876l-0.836-2.916l-0.836-2.877l-0.836-2.877
		l-0.816-2.838l-0.816-2.838l-0.777-2.721l-0.777-2.683l-0.739-2.604l-0.738-2.488l-0.681-2.372l-0.642-2.254l-0.603-2.061
		l-0.563-1.944l-0.505-1.788l-0.467-1.555l-0.389-1.399l-0.331-1.128l-0.271-0.933l-0.194-0.7l-0.117-0.389
		c-0.175-0.155-0.33-0.155-0.33-0.155h-0.233h-0.272h-0.311h-0.389h-0.408h-0.467h-0.485h-0.545h-0.563h-0.583H56h-0.622h-0.661
		h-0.66h-0.681h-0.681h-0.68h-0.7h-0.681h-0.66h-0.681h-0.642h-0.642h-0.603h-0.603h-0.563h-0.524h-0.506h-0.447h-0.428h-0.369
		h-0.33h-0.272h-0.214c-0.155,0-0.271,0-0.271,0c-0.02,0.155-0.02,0.661-0.02,0.661v0.816v1.127v1.36v1.633v1.905v2.1v2.332v2.488
		v2.683v2.838v2.993v3.071v3.227v3.266v3.382v3.383v3.46v3.46v3.46v3.46v3.382v3.382v3.266v3.188v3.109v2.994v2.838v2.682v2.488
		v2.333v2.099v1.866v1.672v1.36v1.128v0.816v0.466c0.155,0.194,0.291,0.194,0.291,0.194c0.155,0,0.331,0,0.331,0h0.214h0.232h0.253
		h0.292h0.291h0.331h0.33h0.35h0.351h0.369h0.389h0.369h0.389h0.389h0.389h0.389h0.37h0.389h0.369h0.35h0.35h0.331h0.33h0.292h0.271
		h0.272h0.233h0.214c0.175,0,0.33,0,0.33,0c0.137,0,0.214,0,0.214,0C53.201,643.905,53.201,561.878,53.201,561.878z"/>
</g>
<g id="LWPOLYLINE_9_">
	
		<path fill="none" stroke="#000000" stroke-width="0.7087" stroke-linecap="round" stroke-linejoin="round" stroke-miterlimit="10" d="
		M136.803,643.905c0.194,0,0.331,0,0.331,0c0.175,0,0.389,0,0.389,0h0.253h0.271h0.292h0.33h0.351h0.369h0.369h0.408h0.408h0.428
		h0.447h0.427h0.447h0.447h0.447h0.447h0.446h0.428h0.428h0.408h0.408h0.389h0.37h0.33h0.33h0.292h0.271h0.253h0.214
		c0.175,0,0.331,0,0.331,0c0.175,0,0.194-0.038,0.194-0.038c0.038-0.117,0.097-0.312,0.097-0.312l0.098-0.272l0.097-0.35
		l0.137-0.389l0.136-0.467l0.175-0.505l0.175-0.544l0.194-0.622l0.214-0.622l0.214-0.7l0.233-0.738l0.233-0.739l0.253-0.777
		l0.252-0.777l0.272-0.816l0.253-0.816l0.271-0.816l0.272-0.855l0.253-0.816l0.271-0.854l0.272-0.816l0.253-0.816l0.253-0.778
		l0.252-0.777l0.253-0.738l0.214-0.739l0.233-0.66l0.194-0.661l0.194-0.622l0.194-0.544l0.155-0.506l0.156-0.466l0.116-0.39
		l0.116-0.35l0.078-0.233c0.059-0.233,0.098-0.35,0.098-0.35c0.077-0.039,0.271-0.039,0.271-0.039h0.292h0.408h0.524h0.603h0.7
		h0.777h0.855h0.933h0.991h1.069h1.089h1.146h1.186h1.225h1.244h1.264h1.282h1.283h1.283h1.264h1.263h1.244h1.225h1.186h1.147h1.107
		h1.05h0.991h0.934h0.855h0.777h0.699h0.622h0.506h0.408h0.311c0.175,0,0.233,0,0.233,0c0.059,0.155,0.116,0.389,0.116,0.389
		l0.078,0.233l0.078,0.35l0.116,0.39l0.136,0.466l0.137,0.506l0.175,0.544l0.175,0.622l0.175,0.661l0.194,0.66l0.214,0.739
		l0.214,0.738l0.214,0.777l0.233,0.778l0.233,0.816l0.233,0.816l0.232,0.854l0.233,0.816l0.233,0.855l0.253,0.816l0.233,0.816
		l0.233,0.816l0.214,0.777l0.232,0.777l0.214,0.739l0.194,0.738l0.194,0.7l0.195,0.622l0.175,0.622l0.155,0.544l0.136,0.505
		l0.137,0.467l0.116,0.389l0.098,0.35l0.077,0.272c0.059,0.194,0.078,0.312,0.078,0.312c0.116,0.038,0.233,0.038,0.233,0.038
		c0.175,0,0.369,0,0.369,0h0.233h0.271h0.312h0.35h0.369h0.389h0.408h0.447h0.447h0.467h0.485h0.486h0.505h0.506h0.505h0.506h0.505
		h0.506h0.486h0.485h0.467h0.467h0.427h0.408h0.408h0.351h0.35h0.311h0.272h0.233h0.214c0.155,0,0.272,0,0.272,0
		c0.058-0.194-0.117-0.66-0.117-0.66l-0.253-0.816l-0.35-1.128l-0.447-1.36l-0.524-1.672l-0.603-1.866l-0.661-2.099l-0.738-2.333
		l-0.797-2.488l-0.855-2.682l-0.914-2.838l-0.952-2.994l-0.991-3.109l-1.011-3.188l-1.05-3.266l-1.069-3.382l-1.088-3.382
		l-1.108-3.46l-1.089-3.46l-1.107-3.46l-1.108-3.46l-1.088-3.383l-1.069-3.382l-1.05-3.266l-1.011-3.227l-0.991-3.071l-0.952-2.993
		l-0.895-2.838l-0.855-2.683l-0.816-2.488l-0.738-2.332l-0.661-2.1l-0.603-1.905l-0.524-1.633l-0.447-1.36l-0.35-1.127l-0.253-0.816
		l-0.155-0.506c-0.175-0.155-0.312-0.155-0.312-0.155c-0.175,0-0.408,0-0.408,0h-0.253h-0.311h-0.35h-0.389h-0.408h-0.428h-0.467
		h-0.486h-0.505h-0.525h-0.544h-0.544h-0.563h-0.564h-0.563h-0.583h-0.544h-0.564h-0.563h-0.524h-0.525h-0.505h-0.486h-0.466h-0.447
		h-0.408h-0.369h-0.351h-0.311h-0.272h-0.233c-0.175,0-0.311,0-0.311,0C165.474,551.537,136.803,643.905,136.803,643.905z"/>
</g>
<g id="LWPOLYLINE_10_">
	
		<path fill="none" stroke="#000000" stroke-width="0.7087" stroke-linecap="round" stroke-linejoin="round" stroke-miterlimit="10" d="
		M186.953,611.25c-0.039,0-0.194,0-0.194,0h-0.253h-0.35h-0.428h-0.506h-0.583h-0.661h-0.719h-0.777h-0.836h-0.875h-0.933h-0.953
		h-0.991h-1.03h-1.03h-1.068h-1.069h-1.069h-1.069h-1.068h-1.05h-1.05h-1.03h-0.991h-0.952h-0.934h-0.874h-0.836h-0.778h-0.719
		h-0.642h-0.583h-0.524h-0.428h-0.331h-0.252c-0.156,0-0.214,0-0.214,0c0.02-0.078,0.097-0.35,0.097-0.35l0.137-0.428l0.175-0.583
		l0.214-0.739l0.252-0.854l0.292-0.973l0.33-1.127l0.351-1.205l0.389-1.322l0.408-1.399l0.446-1.516l0.467-1.556l0.486-1.633
		l0.485-1.671l0.506-1.75l0.524-1.749l0.525-1.788l0.544-1.827l0.544-1.827l0.525-1.789l0.544-1.827l0.525-1.788l0.524-1.749
		l0.505-1.75l0.506-1.671l0.467-1.633l0.466-1.556l0.447-1.516l0.408-1.399l0.389-1.322l0.351-1.205l0.33-1.127l0.291-0.973
		l0.272-0.894l0.214-0.7l0.155-0.583l0.137-0.428l0.077-0.271C172.627,562.694,186.953,611.25,186.953,611.25z"/>
</g>
<g id="LWPOLYLINE_11_">
	
		<path fill="none" stroke="#000000" stroke-width="0.7087" stroke-linecap="round" stroke-linejoin="round" stroke-miterlimit="10" d="
		M272.946,551.537c0,0.155,0,0.583,0,0.583v0.7v0.933v1.166v1.399v1.633v1.789v1.982v2.138v2.294v2.41v2.527v2.644v2.76v2.799v2.838
		v2.916v2.954v2.955v2.954v2.916v2.916v2.877v2.799v2.721v2.644v2.566v2.41v2.294v2.138v1.982v1.789v1.594v1.399v1.205v0.933v0.7
		v0.428c-0.059,0-0.253-0.428-0.253-0.428l-0.312-0.7l-0.408-0.933l-0.524-1.205l-0.622-1.399l-0.719-1.594l-0.798-1.789
		l-0.874-1.982l-0.953-2.138l-1.029-2.294l-1.069-2.41l-1.128-2.566l-1.186-2.644l-1.205-2.721l-1.244-2.799l-1.282-2.877
		l-1.283-2.916l-1.303-2.916l-1.321-2.954l-1.303-2.955l-1.321-2.954l-1.283-2.916l-1.283-2.838l-1.244-2.799l-1.205-2.76
		l-1.186-2.644l-1.127-2.527l-1.069-2.41l-1.011-2.294l-0.952-2.138l-0.895-1.982l-0.797-1.789l-0.719-1.633l-0.622-1.399
		l-0.525-1.166l-0.408-0.933l-0.311-0.7l-0.194-0.428c-0.175-0.155-0.312-0.155-0.312-0.155c-0.194,0-0.428,0-0.428,0h-0.291h-0.331
		h-0.35h-0.408h-0.428h-0.467h-0.485h-0.506h-0.544h-0.544h-0.564h-0.583h-0.583h-0.603h-0.603h-0.583h-0.603h-0.583h-0.583h-0.564
		h-0.544h-0.544h-0.506h-0.505h-0.447h-0.447h-0.389h-0.369h-0.33h-0.272h-0.233c-0.194,0-0.33,0-0.33,0
		c-0.117,0.155-0.117,0.661-0.117,0.661v0.816v1.127v1.36v1.633v1.905v2.1v2.332v2.488v2.683v2.838v2.993v3.071v3.227v3.266v3.382
		v3.383v3.46v3.46v3.46v3.46v3.382v3.382v3.266v3.188v3.109v2.994v2.838v2.682v2.488v2.333v2.099v1.866v1.672v1.36v1.128v0.816
		v0.466c0.156,0.194,0.292,0.194,0.292,0.194c0.155,0,0.33,0,0.33,0h0.214h0.233h0.253h0.291h0.292h0.33h0.331h0.35h0.35h0.369
		h0.389h0.37h0.389h0.389h0.389h0.389h0.369h0.389h0.369h0.351h0.35h0.33h0.331h0.291h0.272h0.272h0.233h0.213
		c0.176,0,0.331,0,0.331,0c0.136,0,0.214,0,0.214,0c0.077-0.155,0.077-0.583,0.077-0.583v-0.699v-0.972v-1.167v-1.438v-1.594v-1.827
		v-2.021v-2.138v-2.333v-2.449v-2.565v-2.644v-2.761v-2.838v-2.915v-2.916v-2.993v-2.955v-2.993v-2.954v-2.955v-2.877v-2.838v-2.76
		v-2.683v-2.565v-2.449v-2.294v-2.177v-1.983v-1.827v-1.633v-1.399v-1.205v-0.933v-0.7v-0.428c0.078,0,0.272,0.428,0.272,0.428
		l0.312,0.7l0.427,0.933l0.525,1.205l0.642,1.399l0.738,1.633l0.816,1.827l0.895,1.983l0.972,2.177l1.05,2.294l1.088,2.449
		l1.167,2.565l1.205,2.683l1.225,2.76l1.282,2.838l1.303,2.877l1.321,2.955l1.342,2.954l1.341,2.993l1.342,2.955l1.341,2.993
		l1.322,2.916l1.302,2.915l1.264,2.838l1.244,2.761l1.205,2.644l1.146,2.565l1.108,2.449l1.03,2.333l0.972,2.138l0.913,2.021
		l0.816,1.827l0.72,1.594l0.642,1.438l0.544,1.167l0.428,0.972l0.311,0.699l0.194,0.428c0.176,0.155,0.312,0.155,0.312,0.155
		c0.175,0,0.408,0,0.408,0h0.272h0.311h0.33h0.389h0.408h0.447h0.447h0.506h0.505h0.525h0.524h0.563h0.544h0.564h0.583h0.563h0.563
		h0.545h0.563h0.524h0.525h0.524h0.486h0.447h0.446h0.408h0.389h0.351h0.291h0.272h0.233c0.175,0,0.311,0,0.311,0
		c0.117-0.194,0.117-0.66,0.117-0.66v-0.816v-1.128v-1.36v-1.672v-1.866v-2.099v-2.333v-2.488v-2.682v-2.838v-2.994v-3.109v-3.188
		v-3.266v-3.382v-3.382v-3.46v-3.46v-3.46v-3.46v-3.383v-3.382v-3.266v-3.227v-3.071v-2.993v-2.838v-2.683v-2.488v-2.332v-2.1
		v-1.905v-1.633v-1.36v-1.127v-0.816v-0.506C283.307,551.537,272.946,551.537,272.946,551.537z"/>
</g>
<g id="LWPOLYLINE_12_">
	
		<path fill="none" stroke="#000000" stroke-width="0.7087" stroke-linecap="round" stroke-linejoin="round" stroke-miterlimit="10" d="
		M293.647,643.905c0.194,0,0.33,0,0.33,0c0.194,0,0.389,0,0.389,0h0.253h0.272h0.291h0.331h0.35h0.369h0.389h0.389h0.428h0.408
		h0.447h0.428h0.447h0.446h0.447h0.447h0.447h0.428h0.428h0.408h0.408h0.389h0.369h0.35h0.312h0.311h0.272h0.233h0.214
		c0.175,0,0.33,0,0.33,0c0.194,0,0.194-0.038,0.194-0.038c0.039-0.117,0.097-0.312,0.097-0.312l0.098-0.272l0.098-0.35l0.136-0.389
		l0.155-0.467l0.155-0.505l0.194-0.544l0.194-0.622l0.194-0.622l0.233-0.7l0.233-0.738l0.233-0.739l0.233-0.777l0.272-0.777
		l0.232-0.816l0.272-0.816l0.272-0.816l0.271-0.855l0.272-0.816l0.272-0.854l0.233-0.816l0.271-0.816l0.272-0.778l0.233-0.777
		l0.233-0.738l0.232-0.739l0.233-0.66l0.194-0.661l0.194-0.622l0.194-0.544l0.156-0.506l0.155-0.466l0.116-0.39l0.117-0.35
		l0.077-0.233c0.078-0.233,0.117-0.35,0.117-0.35c0.077-0.039,0.233-0.039,0.233-0.039h0.311h0.428h0.505h0.622h0.7h0.777h0.855
		h0.933h0.973h1.049h1.128h1.127h1.205h1.205h1.244h1.283h1.244h1.283h1.282h1.283h1.283h1.244h1.205h1.205h1.127h1.089h1.088h0.973
		h0.933h0.855h0.777h0.7h0.622h0.505h0.428h0.272c0.194,0,0.271,0,0.271,0c0.039,0.155,0.078,0.389,0.078,0.389l0.077,0.233
		l0.117,0.35l0.116,0.39l0.117,0.466l0.155,0.506l0.155,0.544l0.155,0.622l0.195,0.661l0.194,0.66l0.194,0.739l0.232,0.738
		l0.233,0.777l0.194,0.778l0.233,0.816l0.233,0.816l0.233,0.854l0.272,0.816l0.232,0.855l0.233,0.816l0.233,0.816l0.233,0.816
		l0.233,0.777l0.194,0.777l0.233,0.739l0.194,0.738l0.194,0.7l0.194,0.622l0.155,0.622l0.194,0.544l0.117,0.505l0.155,0.467
		l0.116,0.389l0.078,0.35l0.077,0.272c0.039,0.194,0.078,0.312,0.078,0.312c0.116,0.038,0.233,0.038,0.233,0.038
		c0.155,0,0.389,0,0.389,0h0.233h0.272h0.311h0.35h0.351h0.389h0.428h0.427h0.467h0.467h0.467h0.505h0.506h0.505h0.506h0.505h0.506
		h0.505h0.467h0.505h0.467h0.428h0.467h0.389h0.389h0.389h0.311h0.312h0.311h0.233h0.194c0.155,0,0.272,0,0.272,0
		c0.039-0.194-0.117-0.66-0.117-0.66l-0.232-0.816l-0.351-1.128l-0.466-1.36l-0.506-1.672l-0.622-1.866l-0.661-2.099l-0.738-2.333
		l-0.816-2.488l-0.855-2.682l-0.894-2.838l-0.934-2.994l-1.011-3.109l-1.011-3.188l-1.05-3.266l-1.088-3.382l-1.089-3.382
		l-1.089-3.46l-1.088-3.46l-1.128-3.46l-1.088-3.46l-1.089-3.383l-1.05-3.382l-1.05-3.266l-1.049-3.227l-0.973-3.071l-0.933-2.993
		l-0.933-2.838l-0.855-2.683l-0.777-2.488l-0.739-2.332l-0.699-2.1l-0.584-1.905l-0.505-1.633l-0.467-1.36l-0.35-1.127l-0.272-0.816
		l-0.155-0.506c-0.155-0.155-0.272-0.155-0.272-0.155c-0.194,0-0.427,0-0.427,0h-0.272h-0.312h-0.35h-0.35h-0.428h-0.428h-0.467
		h-0.505h-0.506h-0.505h-0.545h-0.544h-0.544h-0.583h-0.583h-0.545h-0.583h-0.544h-0.545H327.1h-0.544h-0.506h-0.466h-0.467h-0.428
		h-0.428h-0.389h-0.35h-0.312h-0.233h-0.232c-0.194,0-0.312,0-0.312,0C322.318,551.537,293.647,643.905,293.647,643.905z"/>
</g>
<g id="LWPOLYLINE_13_">
	
		<path fill="none" stroke="#000000" stroke-width="0.7087" stroke-linecap="round" stroke-linejoin="round" stroke-miterlimit="10" d="
		M343.816,611.25c-0.078,0-0.233,0-0.233,0h-0.233H343h-0.428h-0.505h-0.584h-0.66h-0.7h-0.777h-0.855h-0.855h-0.933h-0.972h-0.973
		h-1.049h-1.05h-1.05h-1.05h-1.088h-1.05h-1.089h-1.05h-1.05h-1.011h-1.011h-0.933h-0.934h-0.894h-0.816h-0.777h-0.739h-0.66h-0.584
		h-0.505h-0.428h-0.35h-0.233c-0.155,0-0.194,0-0.194,0c0-0.078,0.078-0.35,0.078-0.35l0.116-0.428l0.194-0.583l0.194-0.739
		l0.272-0.854l0.271-0.973l0.351-1.127l0.35-1.205l0.389-1.322l0.428-1.399l0.428-1.516l0.466-1.556l0.467-1.633l0.506-1.671
		l0.505-1.75l0.545-1.749l0.505-1.788l0.544-1.827l0.545-1.827l0.544-1.789l0.506-1.827l0.544-1.788l0.505-1.749l0.545-1.75
		l0.466-1.671l0.506-1.633l0.467-1.556l0.428-1.516l0.427-1.399l0.389-1.322l0.351-1.205l0.311-1.127l0.312-0.973l0.233-0.894
		l0.232-0.7l0.156-0.583l0.155-0.428l0.039-0.271C329.472,562.694,343.816,611.25,343.816,611.25z"/>
</g>
<g id="LWPOLYLINE_14_">
	
		<path fill="none" stroke="#000000" stroke-width="0.7087" stroke-linecap="round" stroke-linejoin="round" stroke-miterlimit="10" d="
		M433.774,576.223v-1.399l-0.077-1.36l-0.078-1.322l-0.116-1.282l-0.156-1.244l-0.155-1.205l-0.233-1.166l-0.233-1.089l-0.311-1.089
		l-0.311-1.011l-0.351-0.972l-0.389-0.972l-0.428-0.895l-0.466-0.894l-0.467-0.816l-0.544-0.778l-0.545-0.777l-0.622-0.699
		l-0.622-0.7l-0.66-0.622l-0.7-0.622l-0.738-0.583l-0.777-0.544l-0.816-0.506l-0.855-0.466l-0.895-0.428l-0.894-0.389l-0.973-0.389
		l-1.011-0.312l-1.011-0.311l-1.088-0.312l-1.089-0.233l-1.166-0.194l-1.167-0.194l-1.243-0.155l-1.244-0.116l-1.322-0.117
		l-1.321-0.039l-1.361-0.077H405.9l-1.399,0.039l-1.399,0.038l-1.321,0.117l-1.322,0.155l-1.282,0.155l-1.206,0.233l-1.205,0.272
		l-1.166,0.311l-1.127,0.35l-1.089,0.351l-1.089,0.428l-1.011,0.466l-0.972,0.467l-0.972,0.544l-0.895,0.584l-0.894,0.583
		l-0.816,0.66l-0.816,0.661l-0.777,0.7l-0.739,0.738l-0.699,0.777l-0.661,0.816l-0.622,0.855l-0.583,0.895l-0.544,0.894
		l-0.545,0.934l-0.466,1.011l-0.467,0.972l-0.389,1.05l-0.389,1.088l-0.351,1.089l-0.311,1.127l-0.233,1.167l-0.233,1.205
		l-0.233,1.205l-0.155,1.244l-0.116,1.282l-0.078,1.322l-0.078,1.321v1.361c0,0.039,0,0.233,0,0.233v0.232v0.39v0.427v0.545v0.622
		v0.699v0.739v0.816v0.894v0.934v0.972v1.011v1.05v1.088v1.089v1.127v1.128v1.127v1.128v1.127v1.128v1.088v1.089v1.05v1.011v0.972
		v0.933v0.895v0.816v0.738v0.7v0.622v0.544v0.428v0.389v0.233c0,0.194,0,0.233,0,0.233v1.905l0.078,1.827l0.078,1.749l0.116,1.711
		l0.155,1.671l0.233,1.594l0.233,1.556l0.233,1.516l0.311,1.438l0.351,1.399l0.389,1.322l0.389,1.283l0.467,1.243l0.466,1.206
		l0.545,1.127l0.544,1.089l0.583,1.011l0.622,1.011l0.661,0.933l0.699,0.895l0.739,0.816l0.777,0.816l0.816,0.738l0.816,0.7
		l0.894,0.66l0.895,0.622l0.972,0.545l0.972,0.544l1.011,0.467l1.089,0.428l1.089,0.389l1.127,0.35l1.166,0.311l1.205,0.233
		l1.206,0.233l1.282,0.194l1.322,0.117l1.321,0.116l1.399,0.039l1.399,0.039h0.895l0.895-0.039l0.854-0.039l0.816-0.039l0.855-0.039
		l0.816-0.077l0.816-0.039l0.777-0.117l0.778-0.077l0.777-0.117l0.777-0.116l0.738-0.116l0.739-0.117l0.738-0.155l0.7-0.155
		l0.699-0.156l0.7-0.155l0.699-0.155l0.7-0.194l0.661-0.194l0.66-0.194l0.661-0.194l0.661-0.233l0.661-0.194l0.621-0.233
		l0.661-0.233l0.622-0.233l0.622-0.271l0.622-0.233l0.622-0.272l0.622-0.233l0.583-0.271l0.622-0.272l0.622-0.272l0.583-0.271
		l0.622-0.312l0.583-0.271l0.583-0.272l0.622-0.312l0.583-0.311c0-0.078,0-0.312,0-0.312v-0.389v-0.544v-0.661v-0.777v-0.933v-1.011
		v-1.128v-1.205v-1.282v-1.361v-1.438v-1.516v-1.517v-1.594v-1.633v-1.633v-1.672v-1.671v-1.672v-1.672v-1.633v-1.633v-1.594v-1.517
		v-1.516v-1.438v-1.36v-1.283v-1.205v-1.128v-1.011v-0.933v-0.777V595v-0.544v-0.389v-0.233c-0.038-0.078-0.194-0.078-0.194-0.078
		h-0.271h-0.351h-0.428h-0.505h-0.583h-0.661h-0.699h-0.778h-0.854h-0.855h-0.934h-0.972h-0.972h-1.011h-1.05h-1.05h-1.088h-1.089
		h-1.05h-1.089h-1.049h-1.05h-1.011h-0.972h-0.973h-0.933h-0.895h-0.816h-0.777h-0.738h-0.622h-0.583h-0.545H405.9h-0.311h-0.272
		c-0.155,0-0.194,0-0.194,0c0,0.155,0,0.272,0,0.272c0,0.155,0,0.35,0,0.35v0.194v0.233v0.272v0.271v0.312v0.311v0.351v0.35v0.35
		v0.35v0.389v0.39v0.389v0.389v0.389v0.389v0.35v0.389v0.389v0.351v0.35v0.311v0.312v0.311v0.272v0.272v0.232v0.233
		c0,0.156,0,0.312,0,0.312c0,0.155,0,0.233,0,0.233c0.117,0.077,0.272,0.077,0.272,0.077h0.194h0.233h0.311h0.351h0.35h0.428h0.466
		h0.467h0.545h0.505h0.583h0.583h0.583h0.622h0.622h0.622h0.622h0.622h0.622h0.622h0.583h0.622h0.583h0.545h0.544h0.505h0.506h0.428
		h0.428h0.389h0.35h0.272h0.271h0.194c0.156,0,0.233,0,0.233,0c0.039,0.194,0.039,0.428,0.039,0.428v0.312v0.428v0.466v0.545v0.621
		v0.7v0.738v0.778v0.816v0.894v0.895v0.933v0.972v0.973v1.011v1.011v1.011v1.011v1.011v1.011v0.972v0.972v0.934v0.894v0.895v0.816
		v0.777v0.738v0.7v0.622v0.544v0.467v0.428v0.311v0.233c0,0.194-0.194,0.389-0.194,0.389c-0.194,0.155-0.389,0.35-0.389,0.35
		l-0.233,0.156l-0.233,0.194l-0.233,0.194l-0.271,0.155l-0.272,0.155l-0.272,0.194l-0.271,0.156l-0.312,0.194l-0.311,0.155
		l-0.312,0.155l-0.35,0.155l-0.35,0.156l-0.351,0.155l-0.35,0.155l-0.389,0.116l-0.389,0.156l-0.389,0.155l-0.428,0.116
		l-0.389,0.117l-0.467,0.116l-0.428,0.117l-0.428,0.116l-0.466,0.116l-0.467,0.117l-0.505,0.077l-0.467,0.078l-0.506,0.078
		l-0.505,0.077l-0.506,0.078l-0.544,0.078l-0.544,0.038l-0.545,0.039l-0.544,0.039l-0.583,0.039h-0.583l-0.545,0.039H405.9h-0.816
		l-0.815-0.039l-0.778-0.078l-0.738-0.077l-0.777-0.078l-0.7-0.116l-0.699-0.156l-0.7-0.194l-0.661-0.194l-0.622-0.233l-0.622-0.271
		l-0.583-0.312l-0.583-0.311l-0.544-0.351l-0.544-0.389l-0.506-0.428l-0.505-0.466l-0.467-0.506l-0.428-0.505l-0.428-0.583
		l-0.428-0.583l-0.389-0.661l-0.35-0.661l-0.35-0.738l-0.312-0.739l-0.311-0.816l-0.272-0.816l-0.272-0.894l-0.233-0.934
		l-0.232-0.972l-0.194-1.011l-0.195-1.089l-0.155-1.088l-0.116-1.167l-0.117-1.205l-0.116-1.282l-0.039-1.283l-0.077-1.36
		l-0.039-1.438v-1.438c0-0.078,0-0.233,0-0.233v-0.272v-0.389v-0.466v-0.545v-0.622v-0.699v-0.816v-0.816v-0.895v-0.972v-1.011
		v-1.011v-1.089v-1.127v-1.128v-1.127v-1.166v-1.167v-1.166v-1.127v-1.167v-1.127v-1.089v-1.088v-1.05v-1.011v-0.934v-0.894v-0.855
		v-0.777v-0.7v-0.66v-0.545v-0.466v-0.351v-0.271c0-0.194,0-0.233,0-0.233l0.039-1.399l0.077-1.322l0.078-1.283l0.155-1.205
		l0.194-1.127l0.233-1.089l0.272-1.011l0.311-0.972l0.35-0.895l0.351-0.854l0.389-0.816l0.428-0.739l0.427-0.738l0.467-0.622
		l0.467-0.622l0.505-0.583l0.506-0.506l0.544-0.505l0.545-0.428l0.544-0.389l0.544-0.389l0.583-0.35l0.545-0.272l0.583-0.272
		l0.544-0.271l0.583-0.195l0.545-0.194l0.544-0.155l0.544-0.155l0.545-0.116l0.505-0.117l0.506-0.077l0.505-0.078l0.467-0.039
		l0.428-0.039l0.428-0.039l0.427-0.038h0.351h0.35h0.311h0.816l0.816,0.038l0.778,0.039l0.738,0.078l0.7,0.116l0.699,0.117
		l0.661,0.116l0.661,0.155l0.622,0.194l0.583,0.194l0.583,0.195l0.544,0.271l0.506,0.233l0.505,0.312l0.467,0.271l0.467,0.35
		l0.427,0.351l0.428,0.35l0.389,0.389l0.351,0.389l0.35,0.428l0.35,0.467l0.312,0.466l0.271,0.506l0.272,0.506l0.233,0.544
		l0.233,0.544l0.233,0.583l0.155,0.583l0.194,0.622l0.155,0.622l0.117,0.661l0.155,0.7l0.077,0.699l0.078,0.7l0.078,0.738
		l0.077,0.777l0.039,0.777v0.816v0.816H433.774z"/>
</g>
<g id="LWPOLYLINE_15_">
	
		<path fill="none" stroke="#000000" stroke-width="0.7087" stroke-linecap="round" stroke-linejoin="round" stroke-miterlimit="10" d="
		M501.457,643.905c0-0.155,0-0.311,0-0.311c0-0.155,0-0.312,0-0.312v-0.232v-0.233v-0.272v-0.272v-0.311v-0.311v-0.312v-0.35v-0.351
		v-0.389v-0.389v-0.35v-0.389v-0.389v-0.389v-0.389v-0.389v-0.39v-0.35v-0.35v-0.35v-0.351v-0.311v-0.312v-0.271v-0.272v-0.233
		v-0.194c0-0.194,0-0.35,0-0.35c0-0.116,0-0.233,0-0.233c-0.077-0.039-0.271-0.039-0.271-0.039h-0.312h-0.428h-0.544h-0.622h-0.738
		h-0.816h-0.895h-0.972h-1.05h-1.089h-1.166h-1.205h-1.244h-1.283h-1.282h-1.322h-1.321h-1.36h-1.361h-1.321h-1.322h-1.282h-1.283
		h-1.244h-1.205h-1.166h-1.089h-1.05h-0.972h-0.895h-0.816h-0.738h-0.622h-0.544h-0.428h-0.312c-0.194,0-0.271,0-0.271,0
		c0-0.077,0-0.233,0-0.233v-0.311v-0.35v-0.506v-0.544v-0.661v-0.738v-0.777v-0.855v-0.934v-0.972v-1.05v-1.05v-1.127v-1.127v-1.167
		v-1.166v-1.166v-1.205v-1.205v-1.167v-1.205v-1.127v-1.128v-1.127v-1.05v-1.05v-0.972v-0.933v-0.855v-0.777v-0.739v-0.66v-0.545
		v-0.505v-0.389v-0.272c0-0.155,0-0.233,0-0.233c0.077,0,0.233,0,0.233,0h0.311h0.389h0.467h0.583h0.661h0.777h0.816h0.855h0.972
		h1.011h1.05h1.088h1.128h1.166h1.166h1.205h1.244h1.205h1.244h1.205h1.205h1.167h1.166h1.127h1.128h1.05h0.972h0.972h0.895h0.816
		h0.738h0.661h0.583h0.467h0.389h0.311c0.155,0,0.233,0,0.233,0c0-0.155,0-0.272,0-0.272c0-0.155,0-0.35,0-0.35v-0.194v-0.233
		v-0.271v-0.272v-0.312v-0.311v-0.35v-0.351v-0.35v-0.35v-0.389v-0.389v-0.389v-0.389v-0.39v-0.389v-0.389V595v-0.389v-0.35v-0.351
		v-0.311v-0.35v-0.272v-0.311v-0.233v-0.233v-0.233c0-0.155,0-0.312,0-0.312c0-0.155,0-0.232,0-0.232
		c-0.078-0.078-0.233-0.078-0.233-0.078h-0.311h-0.389h-0.467h-0.583h-0.661h-0.738h-0.816h-0.895h-0.972h-0.972h-1.05h-1.128
		h-1.127h-1.166h-1.167h-1.205h-1.205h-1.244h-1.205h-1.244h-1.205h-1.166h-1.166h-1.128h-1.088h-1.05h-1.011h-0.972h-0.855h-0.816
		h-0.777h-0.661h-0.583h-0.467h-0.389h-0.311c-0.156,0-0.233,0-0.233,0c0-0.039,0-0.194,0-0.194v-0.272v-0.35v-0.428v-0.544v-0.583
		v-0.7v-0.738v-0.777v-0.855v-0.934v-0.933v-0.972v-1.05v-1.05v-1.05v-1.088v-1.089v-1.128v-1.088v-1.089v-1.088v-1.089v-1.05
		v-1.011v-1.011v-0.933v-0.895v-0.855v-0.816v-0.738v-0.661v-0.622v-0.505v-0.428v-0.389v-0.233c0-0.155,0-0.233,0-0.233
		c0.077,0,0.271,0,0.271,0h0.312h0.389h0.544h0.622h0.7h0.816h0.894h0.934h1.011h1.088h1.128h1.166h1.205h1.244h1.283h1.282h1.322
		h1.321h1.322h1.283h1.282h1.283h1.244h1.205h1.205h1.127h1.05h1.05h0.934h0.894h0.777h0.739h0.622h0.505h0.428h0.311
		c0.195,0,0.233,0,0.233,0c0-0.155,0-0.272,0-0.272c0-0.155,0-0.35,0-0.35v-0.194v-0.233v-0.272v-0.271v-0.312v-0.311v-0.35v-0.351
		v-0.35v-0.35v-0.389v-0.389v-0.389v-0.39v-0.389v-0.389v-0.389v-0.35v-0.389v-0.35v-0.351v-0.311v-0.351v-0.271v-0.312v-0.232
		v-0.233v-0.233c0-0.155,0-0.312,0-0.312c0-0.155,0-0.233,0-0.233c-0.077-0.077-0.311-0.077-0.311-0.077h-0.428h-0.544h-0.7h-0.816
		h-0.933h-1.05h-1.166h-1.244h-1.361h-1.399h-1.477h-1.556h-1.594h-1.672h-1.671h-1.711h-1.711h-1.749h-1.711h-1.71h-1.711h-1.672
		h-1.671h-1.594h-1.556h-1.478h-1.399h-1.36h-1.244h-1.166h-1.05h-0.933h-0.816h-0.7h-0.544h-0.428h-0.233
		c-0.078,0.155-0.078,0.661-0.078,0.661v0.816v1.127v1.36v1.633v1.905v2.1v2.332v2.488v2.683v2.838v2.993v3.071v3.227v3.266v3.382
		v3.383v3.46v3.46v3.46v3.46v3.382v3.382v3.266v3.188v3.109v2.994v2.838v2.682v2.488v2.333v2.099v1.866v1.672v1.36v1.128v0.816
		v0.466C454.495,643.905,501.457,643.905,501.457,643.905z"/>
</g>
<g id="LWPOLYLINE_16_">
	
		<path fill="none" stroke="#000000" stroke-width="0.7087" stroke-linecap="round" stroke-linejoin="round" stroke-miterlimit="10" d="
		M526.144,561.878c0.116,0,0.272,0,0.272,0h0.194h0.271h0.312h0.35h0.428h0.428h0.466h0.506h0.544h0.583h0.584h0.583h0.622h0.66
		h0.622h0.661h0.661h0.661h0.66h0.622h0.661h0.622h0.583h0.583h0.583h0.545h0.505h0.467h0.428h0.428h0.35h0.311h0.272h0.194
		c0.155,0,0.233,0,0.233,0c0.039,0,0.7,0.039,0.7,0.039l0.621,0.039l0.622,0.038l0.584,0.117l0.544,0.116l0.544,0.117l0.545,0.155
		l0.505,0.194l0.467,0.194l0.466,0.233l0.467,0.233l0.428,0.271l0.428,0.272l0.389,0.272l0.35,0.311l0.389,0.35l0.351,0.312
		l0.311,0.389l0.312,0.35l0.271,0.389l0.272,0.389l0.272,0.428l0.232,0.389l0.233,0.428l0.233,0.428l0.194,0.467l0.155,0.428
		l0.194,0.467l0.156,0.466l0.116,0.467l0.117,0.467l0.116,0.466l0.116,0.506l0.078,0.467l0.078,0.466l0.038,0.506l0.039,0.467
		l0.039,0.505v0.467v0.466v0.661v0.661l-0.039,0.622l-0.077,0.661l-0.039,0.622l-0.078,0.621l-0.116,0.584l-0.117,0.622
		l-0.116,0.583l-0.155,0.583l-0.156,0.544l-0.155,0.544l-0.194,0.545l-0.194,0.544l-0.233,0.506l-0.233,0.505l-0.232,0.467
		l-0.272,0.505l-0.272,0.428l-0.271,0.467l-0.312,0.428l-0.311,0.389l-0.351,0.389l-0.35,0.389l-0.389,0.35l-0.35,0.312l-0.428,0.35
		l-0.389,0.272l-0.428,0.271l-0.428,0.272l-0.467,0.233l-0.466,0.194l-0.506,0.194l-0.467,0.155l-0.544,0.156l-0.505,0.116
		l-0.545,0.078l-0.583,0.077l-0.583,0.039h-0.583c-0.117,0-0.272,0-0.272,0h-0.194h-0.272h-0.311h-0.35h-0.428h-0.428h-0.467h-0.505
		h-0.545h-0.583H538.7h-0.583h-0.622h-0.661h-0.622h-0.66h-0.661h-0.661h-0.661h-0.622h-0.66h-0.622h-0.583h-0.584h-0.583h-0.544
		h-0.506h-0.466h-0.428h-0.428h-0.35h-0.312h-0.271h-0.194c-0.156,0-0.233,0-0.233,0
		C526.144,591.346,526.144,561.878,526.144,561.878z"/>
</g>
<g id="LWPOLYLINE_17_">
	
		<path fill="none" stroke="#000000" stroke-width="0.7087" stroke-linecap="round" stroke-linejoin="round" stroke-miterlimit="10" d="
		M514.986,643.905c0.194,0,0.311,0,0.311,0c0.155,0,0.351,0,0.351,0h0.232h0.272h0.272h0.311h0.312h0.35h0.35h0.389h0.389h0.389
		h0.39h0.427h0.428h0.389h0.428h0.428h0.389h0.428h0.389h0.389h0.389h0.351h0.35h0.311h0.312h0.272h0.232h0.233
		c0.194,0,0.389,0,0.389,0c0.117,0,0.233,0,0.233,0c0.078-0.077,0.078-0.311,0.078-0.311v-0.389V642.7v-0.622v-0.738v-0.855v-0.972
		v-1.05v-1.166v-1.205v-1.322v-1.36v-1.399v-1.478v-1.478V627.5v-1.555v-1.556v-1.594v-1.594v-1.555v-1.556v-1.555v-1.478v-1.477
		v-1.4v-1.36v-1.321v-1.205v-1.167v-1.049v-0.973v-0.854v-0.739v-0.622v-0.505v-0.389v-0.233c0.077-0.078,0.194-0.078,0.194-0.078
		c0.155,0,0.389,0,0.389,0h0.233h0.272h0.311h0.35h0.351h0.389h0.428h0.427h0.467h0.467h0.467h0.505h0.506h0.505h0.506h0.505h0.506
		h0.505h0.467h0.505h0.467h0.428h0.467h0.389h0.389h0.389h0.35h0.312h0.271h0.233h0.194c0.155,0,0.272,0,0.272,0
		c0.116,0,0.428,0,0.428,0h0.311h0.351l0.35,0.039h0.35h0.389l0.389,0.039l0.389,0.039l0.428,0.038l0.428,0.039l0.389,0.039
		l0.428,0.078l0.428,0.077l0.467,0.117l0.428,0.077l0.428,0.155l0.427,0.117l0.428,0.155l0.428,0.194l0.428,0.194l0.389,0.233
		l0.428,0.233l0.389,0.272l0.389,0.271l0.389,0.312l0.351,0.35l0.35,0.35l0.35,0.428l0.312,0.428l0.311,0.428l0.312,0.505
		l0.271,0.506l0.233,0.544l0.233,0.583l0.194,0.622l0.194,0.661l0.155,0.7l0.117,0.738l0.116,0.777l0.078,0.816l0.039,0.895
		l0.077,0.894l0.039,0.895l0.039,0.895l0.039,0.894l0.038,0.895l0.039,0.894l0.039,0.855v0.895l0.039,0.894l0.039,0.855v0.855
		l0.038,0.855l0.039,0.855v0.854l0.039,0.855l0.039,0.816l0.039,0.855l0.039,0.816l0.038,0.777l0.039,0.816l0.078,0.777l0.039,0.816
		l0.077,0.739l0.039,0.777l0.078,0.738l0.116,0.739l0.078,0.738l0.116,0.699l0.078,0.7l0.155,0.7l0.116,0.66l0.156,0.661
		l0.155,0.661l0.155,0.622l0.155,0.622l0.194,0.583l0.194,0.583l0.233,0.583l0.233,0.544c0.078,0,0.194,0,0.194,0
		c0.155,0,0.35,0,0.35,0h0.233h0.272h0.272h0.311h0.35h0.389h0.389h0.39h0.427h0.467h0.428h0.467h0.466h0.506h0.467h0.466h0.467
		h0.467h0.467h0.466h0.428h0.428h0.428h0.389h0.35h0.351h0.35h0.271h0.272h0.233c0.155,0,0.311,0,0.311,0c0.195,0,0.233,0,0.233,0
		l-0.194-0.505l-0.155-0.506l-0.155-0.544l-0.194-0.583l-0.155-0.583l-0.117-0.622l-0.155-0.661l-0.117-0.622l-0.155-0.699
		l-0.116-0.661l-0.117-0.7l-0.116-0.699l-0.116-0.739l-0.117-0.699l-0.078-0.739l-0.116-0.738l-0.078-0.738l-0.077-0.739
		l-0.078-0.738l-0.077-0.738l-0.078-0.7l-0.078-0.738l-0.077-0.7l-0.039-0.738l-0.078-0.661l-0.039-0.7l-0.038-0.66l-0.039-0.661
		l-0.039-0.622l-0.039-0.622l-0.039-0.583l-0.038-0.583v-0.506l-0.039-0.544v-0.467l-0.039-0.466v-0.428v-0.389v-0.351v-0.311
		l-0.078-1.36l-0.077-1.283l-0.078-1.244l-0.116-1.166l-0.117-1.128l-0.116-1.088l-0.155-1.05l-0.156-0.972l-0.155-0.934
		l-0.194-0.894l-0.194-0.855l-0.233-0.816l-0.233-0.777l-0.232-0.739l-0.272-0.66l-0.272-0.661l-0.311-0.622l-0.312-0.583
		l-0.35-0.545l-0.35-0.544l-0.351-0.505l-0.389-0.467l-0.389-0.428l-0.428-0.389l-0.466-0.389l-0.467-0.389l-0.467-0.312
		l-0.505-0.35l-0.506-0.312l-0.544-0.271l-0.583-0.272l-0.583-0.233l-0.583-0.233l-0.622-0.232l-0.661-0.233l-0.661-0.194
		l-0.699-0.194l-0.739-0.194l-0.738-0.194l-0.739-0.195l0.739-0.116l0.777-0.155l0.738-0.194l0.7-0.194l0.738-0.233l0.661-0.272
		l0.7-0.271l0.66-0.312l0.622-0.35l0.622-0.35l0.622-0.351l0.583-0.389l0.583-0.428l0.545-0.428l0.544-0.466l0.506-0.467
		l0.505-0.506l0.467-0.505l0.466-0.506l0.428-0.544l0.428-0.583l0.428-0.583l0.389-0.583l0.351-0.583l0.35-0.622l0.311-0.661
		l0.312-0.622l0.271-0.661l0.272-0.699l0.233-0.661l0.233-0.7l0.155-0.699l0.194-0.739l0.155-0.699l0.117-0.738l0.116-0.778
		l0.078-0.738l0.039-0.738l0.038-0.778l0.039-0.777l-0.039-0.894v-0.895l-0.077-0.895l-0.078-0.854l-0.077-0.895l-0.117-0.855
		l-0.155-0.855l-0.155-0.854l-0.233-0.816l-0.194-0.816l-0.233-0.816l-0.272-0.816l-0.311-0.777l-0.312-0.778l-0.35-0.738
		l-0.389-0.738l-0.389-0.7l-0.467-0.699l-0.467-0.661l-0.466-0.661l-0.545-0.622l-0.544-0.622l-0.583-0.583l-0.622-0.544
		l-0.622-0.545l-0.7-0.505l-0.699-0.467l-0.738-0.467l-0.778-0.389l-0.816-0.389l-0.854-0.35l-0.855-0.35l-0.934-0.272l-0.933-0.233
		l-1.011-0.233l-1.011-0.194l-1.089-0.116l-1.088-0.117l-1.128-0.038l-1.166-0.039c-0.078,0-0.233,0-0.233,0h-0.272h-0.389h-0.466
		h-0.545h-0.622h-0.699h-0.777h-0.855h-0.895h-0.972h-1.011h-1.011h-1.089h-1.088h-1.128h-1.166h-1.166h-1.167h-1.166h-1.127h-1.167
		h-1.127h-1.089h-1.088h-1.05h-0.972h-0.973h-0.894h-0.855h-0.777h-0.7h-0.622h-0.583h-0.466h-0.351h-0.271
		c-0.194,0-0.233,0-0.233,0V643.905z"/>
</g>
<g id="LWPOLYLINE_18_">
	
		<rect x="203.688" y="165.404" fill="none" stroke="#000000" stroke-width="0.7087" stroke-linecap="round" stroke-linejoin="round" stroke-miterlimit="10" width="59.714" height="39.809"/>
</g>
<g id="LWPOLYLINE_19_">
	
		<rect x="343" y="235.458" fill="none" stroke="#000000" stroke-width="0.7087" stroke-linecap="round" stroke-linejoin="round" stroke-miterlimit="10" width="59.713" height="39.809"/>
</g>
<g id="LWPOLYLINE_20_">
	
		<rect x="343" y="334.979" fill="none" stroke="#000000" stroke-width="0.7087" stroke-linecap="round" stroke-linejoin="round" stroke-miterlimit="10" width="59.713" height="39.809"/>
</g>
<g id="LWPOLYLINE_21_">
	
		<polygon fill="none" stroke="#000000" stroke-width="0.7087" stroke-linecap="round" stroke-linejoin="round" stroke-miterlimit="10" points="
		183.784,185.309 183.784,225.117 223.593,225.117 223.593,364.447 323.096,364.447 323.096,394.693 422.617,394.693 
		422.617,315.075 323.096,315.075 323.096,344.543 243.497,344.543 243.497,264.926 323.096,264.926 323.096,295.171 
		422.617,295.171 422.617,215.554 323.096,215.554 323.096,245.021 243.497,245.021 243.497,225.117 283.307,225.117 283.307,145.5 
		183.784,145.5 	"/>
</g>
</svg>
