<?xml version="1.0" encoding="utf-8"?>
<!-- Generator: Adobe Illustrator 16.0.1, SVG Export Plug-In . SVG Version: 6.00 Build 0)  -->
<!DOCTYPE svg PUBLIC "-//W3C//DTD SVG 1.0//EN" "http://www.w3.org/TR/2001/REC-SVG-20010904/DTD/svg10.dtd">
<svg version="1.0" id="_x31_" xmlns="http://www.w3.org/2000/svg" xmlns:xlink="http://www.w3.org/1999/xlink" x="0px" y="0px"
	 width="612px" height="792px" viewBox="0 0 612 792" enable-background="new 0 0 612 792" xml:space="preserve">
<g id="LWPOLYLINE">
	
		<path fill="none" stroke="#000000" stroke-width="0.7087" stroke-linecap="round" stroke-linejoin="round" stroke-miterlimit="10" d="
		M146.792,425.375c0.219,0,0.413,0,0.413,0c0.219,0,0.486,0,0.486,0h0.292h0.341h0.389h0.413h0.414h0.462h0.486h0.511h0.511h0.535
		h0.534h0.56h0.56h0.56h0.559h0.56h0.535h0.56h0.534h0.511h0.486h0.486h0.463h0.438h0.413h0.365h0.34h0.316h0.268
		c0.219,0,0.389,0,0.389,0c0.243,0,1.362,0.049,1.362,0.049h1.094l1.07,0.049l1.07,0.047l1.046,0.098l1.021,0.098l1.021,0.098
		l0.997,0.146l0.948,0.145l0.949,0.195l0.948,0.193l0.899,0.244l0.876,0.242l0.851,0.293l0.852,0.34l0.802,0.342l0.778,0.34
		l0.778,0.438l0.729,0.438l0.705,0.438l0.681,0.535l0.633,0.535l0.632,0.584l0.584,0.584l0.56,0.631l0.535,0.682l0.486,0.73
		l0.462,0.777l0.438,0.826l0.389,0.828l0.365,0.875l0.316,0.973l0.291,0.973l0.243,1.021l0.22,1.07l0.194,1.117l0.121,1.168
		l0.122,1.217l0.049,1.264l0.023,1.312l-0.023,0.584l-0.024,0.633l-0.049,0.633l-0.073,0.631l-0.073,0.682l-0.121,0.633l-0.122,0.68
		l-0.17,0.633l-0.17,0.682l-0.194,0.68l-0.243,0.682l-0.243,0.68l-0.268,0.633l-0.316,0.682l-0.341,0.68l-0.34,0.633l-0.39,0.633
		l-0.413,0.633l-0.438,0.631l-0.486,0.584l-0.486,0.584l-0.535,0.584l-0.56,0.584l-0.584,0.533l-0.632,0.488l-0.656,0.486
		l-0.705,0.486l-0.706,0.438l-0.777,0.438l-0.778,0.389l-0.852,0.34l-0.851,0.342l-0.9,0.291l-0.948,0.244l-0.973,0.242
		l-1.021,0.195l-1.046,0.145l-1.094,0.098l-1.144,0.049l-1.167,0.049c-0.146,0-0.316,0-0.316,0c-0.243,0-0.559,0-0.559,0h-0.341
		h-0.413h-0.438h-0.511h-0.535h-0.584h-0.607h-0.657h-0.656h-0.681h-0.729h-0.705h-0.754h-0.729h-0.754h-0.754h-0.729h-0.729h-0.73
		h-0.705h-0.705h-0.656h-0.656h-0.608h-0.56h-0.559h-0.487h-0.462h-0.413h-0.341h-0.315c-0.219,0-0.414,0-0.414,0
		C146.792,467.25,146.792,425.375,146.792,425.375z"/>
</g>
<g id="LWPOLYLINE_1_">
	
		<path fill="none" stroke="#000000" stroke-width="0.7087" stroke-linecap="round" stroke-linejoin="round" stroke-miterlimit="10" d="
		M146.792,377.59c0.121,0,0.316,0,0.316,0c0.219,0,0.534,0,0.534,0h0.341h0.413h0.462h0.487h0.559h0.56h0.608h0.656h0.656h0.705
		h0.705h0.73h0.729h0.729h0.754h0.754h0.729h0.754h0.705h0.729h0.681h0.656h0.657h0.607h0.584h0.535h0.511h0.438h0.413h0.341h0.315
		c0.243,0,0.414,0,0.414,0c0.146,0,1.021,0,1.021,0l0.875,0.049l0.827,0.072l0.826,0.098l0.803,0.146l0.754,0.145l0.754,0.172
		l0.729,0.219l0.705,0.219l0.681,0.268l0.657,0.268l0.656,0.291l0.608,0.34l0.583,0.342l0.584,0.363l0.535,0.391l0.535,0.389
		l0.511,0.438l0.486,0.438l0.462,0.463l0.438,0.461l0.413,0.486l0.39,0.512l0.364,0.535l0.341,0.535l0.34,0.533l0.292,0.561
		l0.292,0.584l0.243,0.582l0.243,0.609l0.219,0.607l0.171,0.607l0.17,0.633l0.146,0.633l0.122,0.631l0.121,0.658l0.073,0.656
		l0.049,0.656l0.049,0.682v0.656v0.803l-0.049,0.801l-0.049,0.803l-0.073,0.754l-0.121,0.754l-0.098,0.73l-0.146,0.729l-0.171,0.705
		l-0.194,0.682l-0.219,0.682l-0.219,0.656l-0.243,0.633l-0.268,0.631l-0.316,0.584l-0.315,0.584l-0.316,0.584l-0.365,0.535
		l-0.389,0.535l-0.389,0.51l-0.414,0.51l-0.438,0.463l-0.462,0.463l-0.486,0.438l-0.511,0.412l-0.511,0.414l-0.535,0.389
		l-0.56,0.342l-0.583,0.34l-0.608,0.316l-0.632,0.316l-0.633,0.268l-0.656,0.268l-0.681,0.242l-0.705,0.219l-0.705,0.195l-0.73,0.17
		l-0.753,0.146l-0.778,0.121l-0.803,0.121l-0.803,0.072c-0.17,0-0.34,0-0.34,0h-0.243h-0.316h-0.39h-0.413h-0.486h-0.511h-0.584
		h-0.607h-0.633h-0.681h-0.705h-0.705h-0.754h-0.754h-0.778h-0.778h-0.777h-0.803h-0.778h-0.754h-0.778h-0.729h-0.729h-0.705h-0.681
		h-0.633h-0.607h-0.584h-0.511h-0.486h-0.413h-0.39h-0.292h-0.267c-0.171,0-0.292,0-0.292,0
		C146.792,413.434,146.792,377.59,146.792,377.59z"/>
</g>
<g id="LWPOLYLINE_2_">
	
		<path fill="none" stroke="#000000" stroke-width="0.7087" stroke-linecap="round" stroke-linejoin="round" stroke-miterlimit="10" d="
		M132.833,480.188c0.073,0,0.268,0,0.268,0h0.316h0.413h0.535h0.657h0.729h0.802h0.9h0.973h1.046h1.118h1.143h1.216h1.24h1.265
		h1.313h1.313h1.337h1.338h1.361h1.338h1.313h1.312h1.265h1.24h1.216h1.144h1.094h1.046h0.973h0.899h0.827h0.729h0.632h0.535h0.438
		h0.316c0.194,0,0.268,0,0.268,0h0.973l1.021-0.049h1.021l1.07-0.098l1.069-0.049l1.095-0.098l1.118-0.096l1.119-0.146l1.118-0.195
		l1.144-0.193l1.143-0.244l1.118-0.291l1.144-0.342l1.118-0.34l1.119-0.389l1.118-0.438l1.095-0.486l1.069-0.535l1.07-0.584
		l1.046-0.682l0.997-0.68l0.997-0.779l0.948-0.826l0.924-0.875l0.9-0.924l0.851-1.021l0.803-1.07l0.778-1.168l0.729-1.215
		l0.656-1.314l0.633-1.41l0.583-1.459l0.511-1.557l0.438-1.604l0.39-1.752l0.34-1.799l0.243-1.896l0.195-1.994l0.121-2.092
		l0.024-2.189v-1.166l-0.049-1.168l-0.072-1.168l-0.073-1.117l-0.122-1.07l-0.146-1.07l-0.194-1.07l-0.195-1.021l-0.219-0.973
		l-0.268-0.973l-0.291-0.973l-0.292-0.924l-0.341-0.875l-0.389-0.875l-0.39-0.877l-0.438-0.826l-0.438-0.777l-0.486-0.779
		l-0.535-0.729l-0.535-0.73l-0.583-0.729l-0.608-0.633l-0.632-0.682l-0.657-0.584l-0.705-0.582l-0.729-0.584l-0.754-0.535
		l-0.778-0.486l-0.826-0.486l-0.852-0.486l-0.899-0.389l-0.9-0.438l-0.948-0.342l-0.997-0.34l-0.997-0.34l-1.046-0.268L183.074,420
		l-1.095-0.219l-1.143-0.195l-1.191-0.17l1.021-0.316l0.997-0.314l0.973-0.342l0.924-0.363l0.899-0.391l0.876-0.412l0.826-0.414
		l0.803-0.438l0.778-0.463l0.754-0.486l0.705-0.486l0.681-0.535l0.657-0.535l0.632-0.559l0.584-0.584l0.583-0.584l0.535-0.631
		l0.511-0.633l0.486-0.656l0.462-0.682l0.438-0.705l0.413-0.729l0.389-0.73l0.365-0.777l0.316-0.779l0.315-0.803l0.292-0.826
		l0.268-0.852l0.243-0.875l0.194-0.875l0.194-0.924l0.195-0.924l0.146-0.973l0.122-0.975l0.121-0.996l0.073-1.021l0.072-1.045
		l0.049-1.07l0.024-1.07v-1.119c0-0.145,0-0.34,0-0.34c0-0.195-0.024-0.389-0.024-0.389c-0.024-0.244-0.049-0.486-0.049-0.486
		l-0.023-0.244l-0.024-0.291l-0.049-0.268l-0.049-0.316l-0.049-0.316l-0.049-0.316l-0.048-0.34l-0.073-0.365l-0.073-0.34
		l-0.097-0.389l-0.073-0.365l-0.098-0.389l-0.097-0.414l-0.122-0.414l-0.097-0.412l-0.122-0.414l-0.146-0.438l-0.146-0.414
		l-0.146-0.438l-0.146-0.461l-0.17-0.438l-0.17-0.463l-0.17-0.438l-0.195-0.463l-0.219-0.461l-0.194-0.463l-0.219-0.461
		l-0.243-0.463l-0.243-0.463l-0.243-0.461l-0.268-0.438l-0.268-0.463l-0.268-0.461l-0.292-0.438l-0.315-0.535l-0.292-0.512
		l-0.316-0.486l-0.316-0.51l-0.34-0.486l-0.316-0.463l-0.341-0.486l-0.364-0.438l-0.365-0.463l-0.364-0.438l-0.39-0.438
		l-0.413-0.414l-0.413-0.412l-0.438-0.389l-0.462-0.391l-0.462-0.363l-0.486-0.365l-0.511-0.34l-0.511-0.342l-0.559-0.34
		l-0.584-0.291l-0.584-0.316l-0.607-0.268l-0.657-0.268l-0.681-0.268l-0.681-0.244l-0.729-0.219l-0.754-0.219l-0.778-0.193
		l-0.827-0.172l-0.851-0.17l-0.876-0.145l-0.924-0.146l-0.948-0.098l-0.973-0.098l-1.021-0.098l-1.046-0.047l-1.094-0.049
		l-1.144-0.025l-1.167-0.023c-0.073,0-0.268,0-0.268,0h-0.316h-0.438h-0.535h-0.632h-0.729h-0.827h-0.899h-0.973h-1.046h-1.094
		h-1.144h-1.216h-1.24h-1.265h-1.312h-1.313h-1.338h-1.361h-1.338h-1.337h-1.313h-1.313h-1.265h-1.24h-1.216h-1.143h-1.118h-1.046
		h-0.973h-0.9h-0.802h-0.729h-0.657h-0.535h-0.413h-0.316c-0.194,0-0.268,0-0.268,0V480.188z"/>
</g>
<g id="LWPOLYLINE_3_">
	
		<path fill="none" stroke="#000000" stroke-width="0.7087" stroke-linecap="round" stroke-linejoin="round" stroke-miterlimit="10" d="
		M215.515,480.188c0.243,0,0.413,0,0.413,0c0.219,0,0.486,0,0.486,0h0.316h0.34h0.365h0.413h0.438h0.438h0.486h0.51h0.511h0.535
		h0.535h0.56h0.56h0.559h0.56h0.56h0.56h0.534h0.535h0.511h0.511h0.462h0.462h0.438h0.413h0.364h0.341h0.316h0.268
		c0.219,0,0.389,0,0.389,0c0.243,0,0.268-0.049,0.268-0.049c0.049-0.146,0.121-0.389,0.121-0.389l0.098-0.342l0.146-0.438
		l0.146-0.486l0.194-0.584l0.194-0.631l0.243-0.682l0.243-0.777l0.243-0.779l0.292-0.875l0.292-0.924l0.292-0.924l0.316-0.973
		l0.315-0.973l0.316-1.021l0.341-1.021l0.34-1.021l0.316-1.07l0.341-1.021l0.34-1.07l0.341-1.021l0.316-1.021l0.315-0.973
		l0.316-0.973l0.292-0.924l0.292-0.924l0.268-0.826l0.267-0.828l0.243-0.777l0.22-0.682l0.219-0.631l0.17-0.584l0.17-0.486
		l0.122-0.438l0.121-0.293c0.073-0.242,0.122-0.438,0.122-0.438c0.097-0.049,0.34-0.049,0.34-0.049h0.365h0.511h0.632h0.778h0.876
		h0.973h1.069h1.168h1.24h1.312h1.387h1.435h1.483h1.532h1.556h1.581h1.581h1.604h1.605h1.604h1.581h1.556h1.532h1.483h1.435h1.387
		h1.312h1.24h1.168h1.069h0.973h0.876h0.754h0.656h0.511h0.389c0.195,0,0.292,0,0.292,0c0.049,0.244,0.146,0.486,0.146,0.486
		l0.097,0.293l0.098,0.438l0.146,0.486l0.146,0.584l0.194,0.631l0.194,0.682l0.243,0.777l0.194,0.828l0.243,0.826l0.292,0.924
		l0.243,0.924l0.292,0.973l0.292,0.973l0.292,1.021l0.291,1.021l0.292,1.07l0.292,1.021l0.292,1.07l0.292,1.021l0.292,1.021
		l0.291,1.021l0.292,0.973l0.292,0.973l0.243,0.924l0.243,0.924l0.243,0.875l0.243,0.779l0.243,0.777l0.194,0.682l0.195,0.631
		l0.146,0.584l0.146,0.486l0.098,0.438l0.098,0.342c0.097,0.242,0.146,0.389,0.146,0.389c0.098,0.049,0.243,0.049,0.243,0.049
		c0.243,0,0.486,0,0.486,0h0.292h0.34h0.39h0.438h0.438h0.486h0.535h0.535h0.584h0.583h0.584h0.632h0.633h0.632h0.633h0.632h0.633
		h0.632h0.584h0.632h0.584h0.583h0.535h0.486h0.535h0.438h0.438h0.389h0.341h0.291h0.243c0.195,0,0.341,0,0.341,0
		c0.098-0.244-0.098-0.828-0.098-0.828l-0.34-1.021l-0.438-1.41l-0.584-1.701l-0.633-2.092l-0.729-2.334l-0.875-2.627l-0.924-2.918
		l-0.973-3.113l-1.07-3.355l-1.167-3.551L298,451.492l-1.216-3.891l-1.312-3.988l-1.313-4.086l-1.313-4.23l-1.361-4.232
		l-1.362-4.328l-1.41-4.328l-1.361-4.328l-1.362-4.305l-1.361-4.281l-1.362-4.182l-1.313-4.109l-1.264-4.014l-1.24-3.865
		l-1.192-3.721l-1.143-3.551l-1.07-3.355l-0.997-3.137l-0.924-2.92l-0.826-2.625l-0.754-2.359l-0.657-2.066l-0.559-1.727
		l-0.438-1.387l-0.315-0.996l-0.22-0.633c-0.194-0.219-0.364-0.219-0.364-0.219c-0.219,0-0.511,0-0.511,0h-0.341h-0.389h-0.413
		h-0.486h-0.511h-0.56h-0.584h-0.607h-0.633h-0.656h-0.656h-0.706h-0.681h-0.705h-0.729h-0.705h-0.705h-0.705h-0.682h-0.681h-0.632
		h-0.657h-0.607h-0.584h-0.535h-0.511h-0.486h-0.438h-0.364h-0.341h-0.292c-0.219,0-0.389,0-0.389,0
		C251.358,364.629,215.515,480.188,215.515,480.188z"/>
</g>
<g id="LWPOLYLINE_4_">
	
		<path fill="none" stroke="#000000" stroke-width="0.7087" stroke-linecap="round" stroke-linejoin="round" stroke-miterlimit="10" d="
		M278.254,439.332c-0.072,0-0.243,0-0.243,0h-0.315h-0.438h-0.534h-0.633h-0.754h-0.802h-0.9h-0.973h-1.046h-1.094h-1.168h-1.191
		h-1.24h-1.288h-1.289h-1.338h-1.337h-1.338h-1.338h-1.337h-1.338h-1.289h-1.288h-1.24h-1.191h-1.168h-1.094h-1.046h-0.973h-0.899
		h-0.827h-0.729h-0.633h-0.534h-0.438h-0.315c-0.195,0-0.243,0-0.243,0c0.024-0.096,0.121-0.438,0.121-0.438l0.146-0.535
		l0.219-0.729l0.268-0.924l0.315-1.07l0.39-1.217l0.389-1.41l0.462-1.508l0.486-1.652l0.511-1.752l0.56-1.896l0.584-1.945
		l0.583-2.043l0.633-2.092l0.632-2.164l0.656-2.213l0.657-2.236l0.681-2.262l0.656-2.287l0.682-2.285l0.656-2.262l0.681-2.236
		l0.633-2.213l0.656-2.164l0.608-2.092l0.607-2.043l0.584-1.971l0.535-1.848l0.534-1.775l0.486-1.652l0.438-1.508l0.413-1.41
		l0.364-1.217l0.316-1.094l0.268-0.9l0.219-0.729l0.171-0.535l0.097-0.342C260.332,378.586,278.254,439.332,278.254,439.332z"/>
</g>
<g id="LWPOLYLINE_5_">
	
		<path fill="none" stroke="#000000" stroke-width="0.7087" stroke-linecap="round" stroke-linejoin="round" stroke-miterlimit="10" d="
		M385.837,396.51l0.146-1.703l0.049-1.654l0.049-1.604v-1.557v-1.508L385.982,387l-0.097-1.434l-0.195-1.387l-0.194-1.338
		l-0.243-1.289l-0.292-1.264l-0.34-1.191l-0.39-1.168l-0.438-1.117l-0.438-1.096l-0.535-1.021l-0.535-0.996l-0.584-0.949
		l-0.681-0.898l-0.681-0.877l-0.729-0.801l-0.778-0.779l-0.827-0.729l-0.875-0.705l-0.875-0.633l-0.974-0.607l-1.021-0.584
		l-1.021-0.512l-1.119-0.486l-1.118-0.438l-1.216-0.389l-1.216-0.34l-1.313-0.316l-1.313-0.268l-1.361-0.219l-1.459-0.195
		l-1.459-0.146l-1.508-0.096l-1.605-0.074l-1.604-0.023l-1.702,0.023l-1.654,0.049l-1.653,0.098l-1.604,0.121l-1.557,0.17
		l-1.508,0.195l-1.508,0.242l-1.459,0.293l-1.41,0.34l-1.362,0.365l-1.361,0.438l-1.265,0.463l-1.265,0.535l-1.216,0.559
		l-1.216,0.633l-1.119,0.68l-1.118,0.73l-1.07,0.777l-0.973,0.852l-0.973,0.9l-0.973,0.973l-0.875,1.021l-0.827,1.094l-0.827,1.143
		l-0.729,1.217l-0.729,1.289l-0.632,1.361l-0.633,1.41l-0.583,1.482l-0.535,1.557l-0.438,1.654L321.734,387l-0.389,1.775
		l-0.341,1.873l-0.292,1.922l-0.194,2.018l-0.194,2.092l-0.146,2.188l-0.049,2.262l-0.049,2.359c0,0.244,0,0.512,0,0.512v0.412
		v0.486v0.584v0.656v0.754v0.826v0.9v0.949v1.021v1.045v1.094v1.145v1.191v1.191v1.191v1.24v1.24v1.215v1.217v1.215v1.217v1.168
		v1.117v1.119v1.07v0.973v0.973v0.875v0.826v0.779v0.682v0.582v0.486v0.391v0.291c0,0.242,0.049,3.502,0.049,3.502l0.146,3.113
		l0.194,2.967l0.243,2.82l0.341,2.674l0.438,2.529l0.438,2.336l0.534,2.285l0.633,2.092l0.632,1.994l0.729,1.848l0.729,1.75
		l0.827,1.605l0.827,1.508l0.924,1.41l0.924,1.266l0.973,1.215l1.021,1.119l1.021,0.973l1.07,0.924l1.118,0.875l1.119,0.73
		l1.118,0.68l1.167,0.633l1.168,0.535l1.216,0.438l1.167,0.438l1.216,0.342l1.216,0.34l1.167,0.242l1.216,0.244l1.217,0.146
		l1.167,0.145l1.216,0.098l1.167,0.098l1.119,0.049l1.167,0.049l1.07,0.049h1.118h1.07h0.583h0.729l0.729-0.049h0.778l0.876-0.049
		l0.875-0.049l0.924-0.049l0.973-0.098l0.974-0.145l1.021-0.146l1.021-0.195l1.07-0.242l1.07-0.244l1.118-0.34l1.07-0.34
		l1.118-0.438l1.07-0.439l1.118-0.535l1.07-0.582l1.07-0.682l1.069-0.729l1.021-0.779l1.021-0.875l0.973-0.973l0.973-1.021
		l0.876-1.119l0.875-1.215l0.827-1.314l0.778-1.41l0.729-1.508l0.681-1.605l0.584-1.701l0.534-1.848l0.486-1.945l0.39-2.043
		l0.34-2.189l0.243-2.285l0.146-2.432l0.049-2.578v-2.676c-0.243,0-0.438,0-0.438,0c-0.194,0-0.486,0-0.486,0h-0.291h-0.341h-0.389
		h-0.39h-0.438h-0.438h-0.486H383.6h-0.486h-0.535h-0.535h-0.584h-0.534h-0.584h-0.535h-0.583h-0.535h-0.535h-0.535h-0.535h-0.486
		h-0.486h-0.438h-0.438h-0.438h-0.34h-0.341h-0.34h-0.243c-0.243,0-0.39,0-0.39,0c-0.243,0-0.292,1.703-0.292,1.703l-0.048,1.557
		l-0.146,1.557l-0.146,1.459l-0.195,1.361l-0.243,1.312l-0.243,1.266l-0.34,1.166l-0.341,1.119l-0.34,1.07l-0.438,0.973
		l-0.438,0.924l-0.438,0.875l-0.486,0.828l-0.486,0.777l-0.535,0.73l-0.535,0.631l-0.535,0.633l-0.534,0.584l-0.584,0.535
		l-0.584,0.486l-0.583,0.438l-0.633,0.389l-0.583,0.34l-0.584,0.342l-0.633,0.291l-0.583,0.291l-0.584,0.195l-0.583,0.244
		l-0.584,0.145l-0.584,0.146l-0.535,0.146l-0.534,0.098l-0.535,0.096l-0.535,0.049l-0.486,0.049l-0.438,0.049l-0.438,0.049h-0.438
		h-0.389h-0.827l-0.778-0.049l-0.826-0.049l-0.778-0.049l-0.778-0.098l-0.778-0.096l-0.778-0.146l-0.729-0.146l-0.729-0.193
		l-0.729-0.244l-0.729-0.242l-0.681-0.293l-0.681-0.34l-0.633-0.389l-0.681-0.391l-0.584-0.486l-0.632-0.486l-0.584-0.535
		l-0.583-0.582l-0.535-0.682l-0.535-0.682l-0.535-0.729l-0.486-0.826l-0.438-0.877l-0.438-0.924l-0.438-0.973l-0.389-1.07
		l-0.389-1.117l-0.341-1.168l-0.292-1.264l-0.292-1.314l-0.292-1.41l-0.194-1.459l-0.243-1.557l-0.146-1.652l-0.146-1.703
		l-0.097-1.75l-0.098-1.898l-0.049-1.945l-0.048-2.043c0-0.242,0-0.533,0-0.533v-0.342v-0.486v-0.535v-0.631v-0.682v-0.777v-0.877
		v-0.875v-0.924v-1.021v-1.021v-1.07v-1.117v-1.119v-1.119v-1.168v-1.166v-1.168v-1.119v-1.143v-1.143v-1.094v-1.07v-1.021v-0.998
		v-0.947v-0.9v-0.852v-0.754v-0.705v-0.631v-0.561v-0.461v-0.365v-0.268c0-0.219,0.048-1.703,0.048-1.703v-1.385v-1.338l0.049-1.289
		l0.049-1.215l0.049-1.168l0.049-1.119l0.097-1.045l0.049-1.021l0.098-0.949l0.097-0.898l0.098-0.852l0.097-0.826l0.098-0.754
		l0.098-0.73l0.097-0.682l0.098-0.631l0.146-0.584l0.098-0.559l0.097-0.535l0.098-0.486l0.146-0.439l0.098-0.438l0.098-0.389
		l0.097-0.34l0.146-0.34l0.097-0.316l0.098-0.268l0.049-0.244c0.097-0.242,0.194-0.438,0.194-0.438
		c0.098-0.195,0.146-0.365,0.146-0.365c0.049-0.17,0.098-0.291,0.098-0.291c0.098-0.244,0.098-0.34,0.098-0.34
		c0.048-0.172,0.146-0.316,0.146-0.316c0.098-0.17,0.194-0.365,0.194-0.365c0.146-0.219,0.292-0.438,0.292-0.438
		c0.146-0.244,0.292-0.486,0.292-0.486l0.194-0.244l0.243-0.268l0.243-0.291l0.243-0.268l0.243-0.291l0.292-0.293l0.292-0.316
		l0.34-0.291l0.341-0.316l0.341-0.291l0.389-0.316l0.389-0.293l0.438-0.314l0.438-0.293l0.438-0.291l0.486-0.268l0.486-0.293
		l0.535-0.268l0.584-0.268l0.534-0.242l0.584-0.244l0.633-0.219l0.632-0.219l0.681-0.193l0.681-0.195l0.682-0.146l0.729-0.145
		l0.778-0.146l0.777-0.098l0.827-0.098l0.827-0.049l0.826-0.047h0.925c0.146,0,0.291,0,0.291,0c0.195,0.023,0.438,0.023,0.438,0.023
		c0.194,0.023,0.438,0.049,0.438,0.049l0.243,0.023l0.292,0.025l0.292,0.049l0.291,0.049l0.292,0.049l0.292,0.047l0.341,0.074
		l0.291,0.049l0.341,0.072l0.341,0.098l0.34,0.072l0.341,0.098l0.341,0.098l0.389,0.121l0.341,0.121l0.34,0.123l0.39,0.121
		l0.34,0.146l0.341,0.145l0.389,0.146l0.341,0.17l0.341,0.17l0.34,0.195l0.341,0.193l0.292,0.195l0.34,0.195l0.341,0.242
		l0.292,0.219l0.292,0.244l0.291,0.242l0.243,0.268l0.243,0.268l0.292,0.293l0.194,0.291l0.243,0.291l0.195,0.316l0.194,0.316
		l0.243,0.316l0.146,0.34l0.194,0.342l0.195,0.34l0.146,0.34l0.194,0.365l0.146,0.365l0.146,0.389l0.146,0.365l0.146,0.389
		l0.146,0.389l0.098,0.389l0.146,0.414l0.098,0.414l0.098,0.412l0.097,0.414l0.098,0.438l0.097,0.414l0.098,0.438l0.098,0.461
		l0.048,0.439l0.049,0.461l0.098,0.463l0.049,0.461l0.048,0.463l0.049,0.486l0.049,0.461l0.049,0.486l0.049,0.486v0.486l0.048,0.512
		v0.486l0.049,0.51v0.512v0.51v0.535v0.512H385.837z"/>
</g>
<g id="LWPOLYLINE_6_">
	
		<path fill="none" stroke="#000000" stroke-width="0.7087" stroke-linecap="round" stroke-linejoin="round" stroke-miterlimit="10" d="
		M407.771,480.188c0.194,0,0.389,0,0.389,0c0.195,0,0.438,0,0.438,0h0.291h0.292h0.341h0.389h0.438h0.39h0.486h0.438h0.486h0.486
		h0.535h0.486h0.535h0.535h0.535h0.486h0.534h0.486h0.535h0.438h0.486h0.438h0.438h0.389h0.39h0.34h0.341h0.292h0.243
		c0.194,0,0.389,0,0.389,0c0.195-0.146,0.195-0.438,0.195-0.438v-0.535v-0.73v-0.924v-1.07v-1.264v-1.361v-1.508v-1.654v-1.799
		v-1.85v-1.945v-2.043v-2.09v-2.189V456.6v-2.238v-2.285v-2.287v-2.285v-2.238v-2.236v-2.236v-2.141v-2.092v-2.043v-1.994v-1.848
		v-1.75v-1.654v-1.557v-1.361v-1.266v-1.068v-0.926v-0.705v-0.535v-0.314c0.243-0.123,0.291-0.123,0.291-0.123
		c0.195,0,0.243,0,0.243,0c0.243,0,0.292,0,0.292,0c0.194,0,0.243,0.123,0.243,0.123l0.194,0.314l0.39,0.535l0.438,0.705
		l0.584,0.926l0.681,1.068l0.827,1.266l0.875,1.361l0.973,1.557l1.07,1.654l1.118,1.75l1.168,1.848l1.264,1.994l1.313,2.043
		l1.313,2.092l1.41,2.141l1.41,2.236l1.411,2.236l1.459,2.238l1.459,2.285l1.459,2.287l1.459,2.285l1.41,2.238l1.411,2.188
		l1.41,2.189l1.313,2.09l1.312,2.043l1.265,1.945l1.167,1.85l1.168,1.799l1.021,1.654l0.973,1.508l0.924,1.361l0.778,1.264
		l0.681,1.07l0.584,0.924l0.486,0.73l0.34,0.535l0.194,0.291c0.195,0.146,0.39,0.146,0.39,0.146c0.194,0,0.486,0,0.486,0h0.341
		h0.389h0.438h0.486h0.486h0.584h0.535h0.632h0.633h0.681h0.632h0.729h0.682h0.681h0.729h0.729h0.681h0.681h0.729h0.633h0.681h0.633
		h0.583h0.584h0.583h0.486h0.486h0.438h0.389h0.341h0.292c0.194,0,0.389,0,0.389,0c0.049-0.146-0.194-0.486-0.194-0.486l-0.39-0.535
		l-0.534-0.779l-0.633-0.973l-0.778-1.117l-0.924-1.314l-0.973-1.459l-1.119-1.557l-1.167-1.75l-1.265-1.848l-1.361-1.945
		l-1.41-2.092l-1.46-2.092l-1.556-2.236l-1.557-2.287l-1.557-2.285l-1.653-2.383l-1.604-2.336l-1.654-2.432l-1.653-2.383
		l-1.605-2.383l-1.653-2.334l-1.557-2.336l-1.556-2.236l-1.557-2.236l-1.459-2.141l-1.41-2.043l-1.362-1.945l-1.265-1.848
		l-1.167-1.752l-1.118-1.605l-0.973-1.459l-0.925-1.287l-0.778-1.119l-0.632-0.949l-0.535-0.777l-0.389-0.561l-0.243-0.34
		c0-0.219,0.243-0.486,0.243-0.486l0.34-0.461l0.486-0.633l0.633-0.754l0.681-0.924l0.875-1.07l0.925-1.168l1.021-1.312l1.118-1.41
		l1.167-1.484l1.265-1.604l1.313-1.654l1.361-1.752l1.411-1.799l1.459-1.848l1.508-1.873l1.459-1.922l1.556-1.92l1.508-1.945
		l1.557-1.945l1.508-1.922l1.508-1.92l1.508-1.873l1.41-1.848l1.459-1.801l1.362-1.727l1.312-1.678l1.265-1.58l1.167-1.508
		l1.119-1.41l1.021-1.289l0.924-1.191l0.827-1.047l0.729-0.924l0.632-0.777l0.486-0.633l0.341-0.438l0.243-0.291
		c-0.194-0.098-0.39-0.098-0.39-0.098c-0.243,0-0.534,0-0.534,0h-0.341h-0.341h-0.389h-0.438H474.5h-0.486h-0.486h-0.535h-0.584
		h-0.535h-0.583h-0.584h-0.584h-0.632h-0.584h-0.583h-0.584h-0.584h-0.583h-0.535h-0.535h-0.535h-0.486h-0.438h-0.438h-0.39h-0.389
		h-0.341h-0.243c-0.243,0-0.438,0-0.438,0c-0.243,0-0.292,0-0.292,0c-0.049,0.098-0.243,0.365-0.243,0.365l-0.34,0.461l-0.486,0.607
		l-0.584,0.754l-0.681,0.9l-0.778,1.045l-0.924,1.168l-0.973,1.264l-1.021,1.387l-1.168,1.459l-1.167,1.557l-1.265,1.654
		l-1.312,1.701l-1.313,1.752l-1.41,1.824l-1.411,1.848l-1.41,1.871l-1.459,1.873l-1.459,1.922l-1.459,1.896l-1.459,1.896
		l-1.411,1.873l-1.41,1.848l-1.41,1.799l-1.313,1.775l-1.313,1.703l-1.264,1.629l-1.168,1.557l-1.118,1.482l-1.07,1.387
		l-0.973,1.266l-0.875,1.166l-0.827,1.021l-0.681,0.9l-0.584,0.777l-0.438,0.609l-0.39,0.438l-0.194,0.268
		c-0.194,0.096-0.243,0.096-0.243,0.096c-0.243,0-0.292,0-0.292,0c-0.194,0-0.243,0-0.243,0c-0.243,0-0.243,0-0.243,0
		c-0.048-0.096-0.048-0.363-0.048-0.363v-0.438v-0.609v-0.777v-0.9v-1.021v-1.166v-1.266V407.5v-1.482v-1.557v-1.629v-1.703v-1.775
		v-1.799v-1.848v-1.873v-1.896v-1.896v-1.922v-1.873v-1.871v-1.848v-1.824v-1.752v-1.701v-1.654v-1.557v-1.459v-1.387v-1.264v-1.168
		v-1.045v-0.9v-0.754v-0.607v-0.461v-0.268c-0.195-0.098-0.39-0.098-0.39-0.098c-0.194,0-0.438,0-0.438,0h-0.292h-0.341h-0.34h-0.39
		h-0.389h-0.438h-0.438h-0.486h-0.438h-0.535h-0.486h-0.534h-0.486h-0.535h-0.535h-0.535h-0.486h-0.535h-0.486h-0.486h-0.438h-0.486
		h-0.39h-0.438h-0.389h-0.341h-0.292h-0.291c-0.243,0-0.438,0-0.438,0c-0.194,0-0.292,0-0.292,0
		C407.771,364.629,407.771,480.188,407.771,480.188z"/>
</g>
<g id="LWPOLYLINE_7_">
	
		<path fill="none" stroke="#000000" stroke-width="0.7087" stroke-linecap="round" stroke-linejoin="round" stroke-miterlimit="10" d="
		M95.968,608.684l-0.049,0.826l-0.073,0.924l-0.049,0.924l-0.048,1.021l-0.024,1.021l-0.024,1.07l0.024,1.119l0.048,1.117
		l0.049,1.168l0.122,1.168l0.121,1.215l0.171,1.217l0.219,1.215l0.243,1.217l0.315,1.215l0.365,1.266l0.389,1.215l0.463,1.217
		l0.534,1.215l0.584,1.168l0.632,1.168l0.729,1.166l0.778,1.07l0.876,1.119l0.948,1.021l1.021,1.021l1.094,0.973l1.192,0.875
		l1.288,0.875l1.387,0.826l1.459,0.73l1.58,0.682l1.679,0.631l1.774,0.535l1.897,0.486l1.994,0.389l2.115,0.342l2.237,0.242
		l2.335,0.146h2.48h1.337l1.338-0.049l1.337-0.049l1.338-0.146l1.313-0.145l1.288-0.146l1.289-0.195l1.265-0.242l1.265-0.291
		l1.24-0.342l1.24-0.34l1.191-0.389l1.191-0.438l1.144-0.486l1.143-0.486l1.094-0.584l1.095-0.584l1.046-0.633l1.021-0.68
		l0.997-0.73l0.948-0.777l0.899-0.779l0.9-0.875l0.851-0.924l0.803-0.973l0.754-0.973l0.729-1.07l0.681-1.119l0.608-1.119
		l0.607-1.215l0.535-1.264l0.486-1.314l0.413-1.361l0.39-1.41l0.315-1.508l0.292-1.508l0.194-1.605l0.171-1.654l0.073-1.701
		l0.048-1.752l-0.097-2.674l-0.268-2.529l-0.462-2.432l-0.608-2.238l-0.754-2.188l-0.899-1.994l-1.046-1.896l-1.143-1.801
		l-1.289-1.701l-1.386-1.605l-1.46-1.557l-1.556-1.41l-1.654-1.41l-1.702-1.264l-1.751-1.266l-1.823-1.168l-1.824-1.166l-1.872-1.07
		l-1.897-1.07l-1.921-1.07l-1.896-0.973l-1.896-1.021l-1.873-1.021l-1.848-0.973l-1.8-1.021l-1.775-1.02l-1.702-1.021l-1.629-1.07
		l-1.557-1.07l-1.483-1.119l-1.386-1.215l-1.265-1.217l-1.168-1.264l-1.021-1.363l-0.9-1.41l-0.778-1.508l-0.607-1.604l-0.438-1.703
		l-0.268-1.75l-0.098-1.898l0.024-0.875l0.049-0.875l0.072-0.826l0.122-0.828l0.121-0.777l0.171-0.73l0.219-0.729l0.219-0.73
		l0.268-0.68l0.268-0.633l0.316-0.633l0.315-0.631l0.365-0.584l0.364-0.535l0.414-0.535l0.413-0.535l0.438-0.486l0.462-0.486
		l0.486-0.438l0.486-0.389l0.511-0.438l0.535-0.342l0.535-0.389l0.56-0.34l0.583-0.293l0.584-0.291l0.584-0.293l0.607-0.242
		l0.633-0.195l0.607-0.242l0.656-0.146l0.633-0.193l0.656-0.146l0.657-0.098l0.656-0.098l0.656-0.098l0.657-0.096l0.681-0.049h0.656
		h0.681h0.949l0.924,0.049l0.899,0.096l0.852,0.098l0.826,0.146l0.803,0.195l0.754,0.193l0.729,0.244l0.705,0.242l0.682,0.293
		l0.632,0.34l0.608,0.34l0.607,0.389l0.535,0.391l0.535,0.438l0.511,0.438l0.486,0.486l0.462,0.486l0.413,0.535l0.413,0.584
		l0.39,0.535l0.341,0.582l0.34,0.633l0.316,0.633l0.268,0.68l0.268,0.682l0.268,0.682l0.219,0.68l0.194,0.73l0.17,0.777l0.171,0.779
		l0.146,0.777l0.121,0.779l0.122,0.826l0.073,0.826l0.072,0.826l0.073,0.828l0.024,0.875l0.024,0.875v0.924c0.243,0,0.438,0,0.438,0
		c0.219,0,0.486,0,0.486,0h0.292h0.341h0.389h0.389h0.438h0.462h0.486h0.511h0.511h0.535h0.534h0.56h0.56h0.56h0.559h0.56h0.535
		h0.56h0.511h0.534h0.486h0.486h0.463h0.438h0.413h0.365h0.34h0.316h0.243c0.243,0,0.413,0,0.413,0c0.243,0,0.292-1.701,0.292-1.701
		v-1.654l-0.049-1.605l-0.097-1.555l-0.122-1.508l-0.194-1.412l-0.243-1.41l-0.268-1.361l-0.316-1.361l-0.364-1.266l-0.413-1.215
		l-0.463-1.168l-0.486-1.117l-0.534-1.119l-0.584-1.021l-0.608-1.021l-0.681-0.924l-0.705-0.924l-0.729-0.877l-0.803-0.826
		l-0.803-0.777l-0.875-0.73l-0.899-0.68l-0.925-0.682l-0.973-0.584l-1.021-0.584l-1.045-0.535l-1.095-0.486l-1.118-0.438
		l-1.144-0.438l-1.191-0.34l-1.216-0.34l-1.265-0.293l-1.289-0.242l-1.337-0.195l-1.338-0.195l-1.386-0.145l-1.41-0.098l-1.46-0.049
		h-1.483h-1.41l-1.386,0.049l-1.387,0.098l-1.361,0.145l-1.338,0.195l-1.337,0.195l-1.289,0.242l-1.289,0.293l-1.24,0.291
		l-1.24,0.389l-1.191,0.389l-1.191,0.438l-1.144,0.439l-1.143,0.533l-1.094,0.535l-1.046,0.584l-1.046,0.633l-0.997,0.682
		l-0.973,0.729l-0.924,0.73l-0.9,0.777l-0.851,0.826l-0.827,0.877l-0.803,0.875l-0.729,0.973l-0.705,0.973l-0.656,1.021l-0.633,1.07
		l-0.583,1.117l-0.511,1.119l-0.486,1.168l-0.438,1.264l-0.414,1.266l-0.34,1.264l-0.292,1.361l-0.243,1.363l-0.17,1.459
		l-0.146,1.459l-0.073,1.508l-0.048,1.555l0.097,2.529l0.292,2.432l0.438,2.238l0.608,2.188l0.754,2.043l0.899,1.896l1.046,1.85
		l1.167,1.701l1.265,1.654l1.386,1.557l1.483,1.459l1.557,1.361l1.63,1.312l1.702,1.266l1.751,1.215l1.823,1.168l1.849,1.119
		l1.872,1.07l1.896,1.02l1.897,1.021l1.896,1.021l1.896,0.973l1.873,0.973l1.848,0.973l1.8,1.021l1.775,0.973l1.702,1.021
		l1.629,1.07l1.557,1.07l1.483,1.119l1.386,1.117l1.265,1.217l1.168,1.264l1.021,1.314l0.925,1.361l0.754,1.459l0.607,1.557
		l0.438,1.605l0.292,1.75l0.073,1.799v1.021l-0.049,1.021l-0.098,0.973l-0.097,0.926l-0.146,0.875l-0.17,0.875l-0.219,0.826
		l-0.243,0.828l-0.243,0.777l-0.292,0.73l-0.316,0.729l-0.34,0.682l-0.39,0.631l-0.389,0.633l-0.413,0.584l-0.438,0.584
		l-0.462,0.535l-0.486,0.535l-0.511,0.486l-0.534,0.438l-0.56,0.438l-0.56,0.438l-0.607,0.34l-0.608,0.389l-0.632,0.342
		l-0.633,0.291l-0.656,0.293l-0.681,0.242l-0.706,0.244l-0.705,0.242l-0.705,0.195l-0.754,0.145l-0.729,0.146l-0.778,0.146
		l-0.754,0.098l-0.778,0.096l-0.802,0.049l-0.803,0.049l-0.803,0.049h-0.826h-0.682l-0.656-0.049l-0.681-0.049l-0.682-0.049
		l-0.681-0.096l-0.681-0.098l-0.681-0.146l-0.657-0.146l-0.681-0.193l-0.656-0.195l-0.657-0.242l-0.632-0.244l-0.656-0.242
		l-0.633-0.342l-0.607-0.291l-0.608-0.389l-0.583-0.389l-0.584-0.391l-0.584-0.438l-0.535-0.486l-0.534-0.486l-0.511-0.535
		l-0.511-0.584l-0.462-0.582l-0.463-0.633l-0.438-0.633l-0.413-0.729l-0.389-0.682l-0.341-0.777l-0.341-0.779l-0.315-0.826
		l-0.268-0.875l-0.268-0.924l-0.219-0.926l-0.195-0.973l-0.146-1.021l-0.122-1.068l-0.097-1.07l-0.049-1.168l-0.024-1.166
		c0-0.244,0-0.293,0-0.293c0-0.242,0-0.34,0-0.34c0-0.195,0-0.293,0-0.293c0-0.242,0-0.34,0-0.34c0-0.242,0-0.34,0-0.34
		c0-0.195,0-0.342,0-0.342c0-0.193,0-0.291,0-0.291c0-0.195,0-0.291,0-0.291c0-0.195,0-0.293,0-0.293
		C109.926,608.684,95.968,608.684,95.968,608.684z"/>
</g>
<g id="LWPOLYLINE_8_">
	
		<path fill="none" stroke="#000000" stroke-width="0.7087" stroke-linecap="round" stroke-linejoin="round" stroke-miterlimit="10" d="
		M199.562,540.934c0.146,0,0.341,0,0.341,0c0.219,0,0.535,0,0.535,0h0.34h0.414h0.462h0.486h0.535h0.583h0.608h0.656h0.656h0.706
		h0.705h0.705h0.754h0.729h0.754h0.754h0.729h0.729h0.729h0.705h0.705h0.656h0.657h0.607h0.584h0.535h0.486h0.462h0.413h0.341h0.316
		c0.219,0,0.413,0,0.413,0c0.146,0,0.389,0,0.389,0h0.268l0.316,0.049l0.341,0.049l0.364,0.047l0.39,0.049l0.438,0.049l0.438,0.098
		l0.462,0.098l0.486,0.146l0.486,0.145l0.511,0.146l0.535,0.195l0.535,0.242l0.535,0.195l0.535,0.291l0.559,0.291l0.535,0.293
		l0.56,0.34l0.535,0.389l0.534,0.391l0.535,0.486l0.535,0.438l0.511,0.535l0.486,0.535l0.486,0.582l0.438,0.633l0.462,0.682
		l0.414,0.68l0.389,0.779l0.365,0.777l0.34,0.828l0.292,0.875l0.268,0.924l0.243,0.973l0.194,1.07l0.146,1.07l0.121,1.117
		l0.073,1.217l0.024,1.215l-0.024,1.314l-0.073,1.264l-0.121,1.217l-0.171,1.117l-0.219,1.119l-0.268,1.021l-0.291,0.973
		l-0.341,0.924l-0.365,0.924l-0.413,0.828l-0.413,0.777l-0.486,0.73l-0.486,0.729l-0.511,0.633l-0.56,0.633l-0.56,0.582
		l-0.583,0.535l-0.584,0.486l-0.632,0.439l-0.608,0.438l-0.656,0.389l-0.657,0.389l-0.656,0.34l-0.656,0.293l-0.657,0.242
		l-0.656,0.244l-0.681,0.242l-0.657,0.195l-0.656,0.195l-0.656,0.145l-0.633,0.098l-0.632,0.146l-0.608,0.098l-0.607,0.047
		l-0.56,0.049l-0.584,0.049l-0.534,0.049h-0.511l-0.486,0.049h-0.462c-0.122,0-0.268,0-0.268,0c-0.195,0-0.414,0-0.414,0h-0.292
		h-0.34h-0.341h-0.413h-0.438h-0.462h-0.486h-0.511h-0.535h-0.56h-0.56h-0.583h-0.584h-0.584h-0.607h-0.584h-0.607h-0.584h-0.584
		h-0.559h-0.56h-0.535h-0.511h-0.486h-0.462h-0.438h-0.414h-0.34h-0.341h-0.292c-0.219,0-0.413,0-0.413,0c-0.219,0-0.268,0-0.268,0
		V540.934z"/>
</g>
<g id="LWPOLYLINE_9_">
	
		<path fill="none" stroke="#000000" stroke-width="0.7087" stroke-linecap="round" stroke-linejoin="round" stroke-miterlimit="10" d="
		M199.562,643.555c0-0.098,0-0.389,0-0.389v-0.438v-0.633v-0.73v-0.924v-1.021v-1.166v-1.266v-1.41v-1.459v-1.557v-1.652v-1.703
		v-1.75v-1.801v-1.848v-1.896v-1.896v-1.898v-1.896v-1.896v-1.848v-1.848v-1.801v-1.799v-1.703v-1.604v-1.557v-1.508v-1.361v-1.266
		v-1.168v-1.068v-0.877v-0.777v-0.584v-0.438v-0.291c0.146-0.098,0.316-0.098,0.316-0.098c0.219,0,0.511,0,0.511,0h0.34h0.39h0.413
		h0.486h0.511h0.56h0.56h0.632h0.632h0.657h0.656h0.705h0.682h0.705h0.729h0.705h0.705h0.681h0.705h0.657h0.656h0.633h0.607h0.584
		h0.559h0.511h0.486h0.414h0.389h0.341h0.292c0.219,0,0.389,0,0.389,0c0.146,0,1.046,0,1.046,0l0.948-0.049l0.948-0.049l0.997-0.098
		l0.997-0.098l1.021-0.145l1.046-0.195l1.045-0.193l1.046-0.244l1.07-0.244l1.07-0.34l1.045-0.34l1.07-0.389l1.07-0.391l1.045-0.486
		l1.046-0.486l1.046-0.582l1.021-0.584l0.997-0.633l0.973-0.682l0.973-0.729l0.924-0.779l0.899-0.826l0.9-0.924l0.826-0.924
		l0.803-0.973l0.778-1.07l0.729-1.119l0.681-1.166l0.657-1.217l0.583-1.312l0.535-1.361l0.486-1.412l0.438-1.459l0.365-1.555
		l0.316-1.654l0.243-1.654l0.17-1.799l0.121-1.799l0.024-1.898l-0.024-1.994l-0.097-1.896l-0.146-1.848l-0.219-1.75l-0.268-1.654
		l-0.315-1.605l-0.365-1.557l-0.438-1.459l-0.486-1.41l-0.511-1.312l-0.56-1.266l-0.632-1.215l-0.656-1.168l-0.682-1.07
		l-0.729-1.021l-0.778-0.973l-0.802-0.924l-0.852-0.875l-0.875-0.777l-0.9-0.779l-0.924-0.68l-0.948-0.682l-0.973-0.584
		l-1.021-0.584l-1.021-0.486l-1.046-0.486l-1.045-0.438l-1.07-0.389l-1.095-0.34l-1.094-0.293l-1.119-0.291l-1.118-0.244
		l-1.144-0.193l-1.118-0.195l-1.143-0.146l-1.119-0.096l-1.143-0.098l-1.144-0.049l-1.118-0.049h-1.119c-0.243,0-0.534,0-0.534,0
		h-0.39h-0.511h-0.583h-0.657h-0.754h-0.826h-0.9h-0.948h-0.997h-1.069h-1.095h-1.143h-1.168h-1.191h-1.216h-1.24h-1.216h-1.24
		h-1.216h-1.216h-1.191h-1.168h-1.143h-1.118h-1.046h-1.021h-0.948h-0.9h-0.802h-0.754h-0.682h-0.583h-0.486h-0.39h-0.291
		c-0.243,0.195-0.243,0.826-0.243,0.826v1.021v1.361v1.752V535v2.383v2.627v2.918v3.111v3.357v3.549v3.746v3.842v4.037v4.086v4.182
		v4.279v4.33v4.328v4.328v4.279v4.281v4.182v4.135v3.988v3.891v3.697v3.549v3.357v3.16v2.869v2.676v2.334v2.043v1.752v1.361v1.021
		v0.631C185.628,643.555,199.562,643.555,199.562,643.555z"/>
</g>
<g id="LWPOLYLINE_10_">
	
		<path fill="none" stroke="#000000" stroke-width="0.7087" stroke-linecap="round" stroke-linejoin="round" stroke-miterlimit="10" d="
		M259.335,643.555c0.243,0,0.413,0,0.413,0c0.219,0,0.486,0,0.486,0h0.316h0.341h0.364h0.414h0.438h0.462h0.462h0.511h0.511h0.535
		h0.56h0.534h0.56h0.56h0.56h0.559h0.56h0.535h0.535h0.511h0.511h0.486h0.438h0.438h0.413h0.365h0.341h0.315h0.268
		c0.219,0,0.39,0,0.39,0c0.243,0,0.267-0.098,0.267-0.098c0.049-0.146,0.122-0.389,0.122-0.389l0.122-0.34l0.121-0.391l0.17-0.486
		l0.171-0.582l0.219-0.633l0.219-0.682l0.243-0.777l0.268-0.828l0.268-0.826l0.292-0.924l0.291-0.924l0.316-0.973l0.316-0.973
		l0.34-1.021l0.316-1.021l0.341-1.07l0.34-1.021l0.316-1.07l0.341-1.021l0.34-1.021l0.316-1.02l0.316-0.973l0.315-0.975l0.316-0.973
		l0.268-0.875l0.292-0.875l0.268-0.777l0.243-0.779l0.194-0.68l0.243-0.633l0.146-0.584l0.194-0.486l0.097-0.438l0.146-0.34
		c0.049-0.244,0.097-0.391,0.097-0.391c0.098-0.049,0.341-0.049,0.341-0.049h0.389h0.486h0.633h0.778h0.875h0.973h1.07h1.167h1.265
		h1.313h1.361h1.459h1.459h1.508h1.605h1.556h1.605h1.604h1.605h1.604h1.557h1.557h1.557h1.459h1.459h1.361h1.313h1.265h1.118h1.119
		h0.973h0.875h0.729h0.633h0.535h0.389c0.194,0,0.292,0,0.292,0c0.049,0.195,0.146,0.439,0.146,0.439l0.098,0.34l0.097,0.438
		l0.146,0.486l0.146,0.584l0.194,0.633l0.195,0.68l0.243,0.779l0.194,0.777l0.292,0.875l0.243,0.875l0.243,0.973l0.292,0.975
		l0.291,0.973l0.292,1.02l0.292,1.021l0.292,1.021l0.292,1.07l0.291,1.021l0.292,1.07l0.292,1.021l0.292,1.021l0.292,0.973
		l0.292,0.973l0.243,0.924l0.291,0.924l0.243,0.826l0.195,0.828l0.243,0.777l0.194,0.682l0.194,0.633l0.146,0.582l0.146,0.486
		l0.097,0.391l0.098,0.34c0.098,0.242,0.146,0.389,0.146,0.389c0.097,0.098,0.291,0.098,0.291,0.098c0.195,0,0.438,0,0.438,0h0.291
		h0.341h0.389h0.438h0.438h0.486h0.535h0.535h0.583h0.584h0.632h0.584h0.632h0.633h0.632h0.633h0.632h0.633h0.632h0.584h0.583h0.584
		h0.535h0.535h0.486h0.438h0.438h0.389h0.341h0.292h0.243c0.243,0,0.389,0,0.389,0c0.049-0.244-0.146-0.875-0.146-0.875
		l-0.341-1.021l-0.438-1.361l-0.535-1.752l-0.681-2.043l-0.729-2.334l-0.875-2.676l-0.925-2.869l-0.973-3.16l-1.069-3.357
		l-1.168-3.549l-1.167-3.697l-1.216-3.891l-1.313-3.988l-1.312-4.135l-1.313-4.182l-1.362-4.281l-1.361-4.279l-1.41-4.328
		l-1.362-4.328l-1.361-4.33l-1.362-4.279l-1.361-4.182l-1.313-4.086l-1.265-4.037l-1.265-3.842l-1.167-3.746l-1.119-3.549
		l-1.069-3.357l-1.021-3.111l-0.924-2.918l-0.827-2.627L316.336,535l-0.632-2.043l-0.535-1.752l-0.438-1.361l-0.341-1.021
		l-0.194-0.631c-0.194-0.195-0.39-0.195-0.39-0.195c-0.243,0-0.486,0-0.486,0h-0.34h-0.39h-0.438h-0.486h-0.486h-0.584h-0.583
		h-0.584h-0.632h-0.682h-0.681h-0.681h-0.681h-0.729h-0.682h-0.729h-0.681h-0.729h-0.681h-0.681h-0.633h-0.632h-0.633h-0.583h-0.535
		h-0.486h-0.486h-0.438h-0.39h-0.34h-0.292c-0.194,0-0.39,0-0.39,0C295.18,527.996,259.335,643.555,259.335,643.555z"/>
</g>
<g id="LWPOLYLINE_11_">
	
		<path fill="none" stroke="#000000" stroke-width="0.7087" stroke-linecap="round" stroke-linejoin="round" stroke-miterlimit="10" d="
		M322.075,602.701c-0.049,0-0.243,0-0.243,0h-0.341h-0.389h-0.535h-0.681h-0.729h-0.778h-0.924h-0.973h-1.021h-1.119h-1.167h-1.216
		h-1.216h-1.265h-1.313h-1.312h-1.362h-1.313h-1.361h-1.362h-1.312h-1.313h-1.265h-1.216h-1.216h-1.167h-1.07h-1.07h-0.973h-0.875
		h-0.827h-0.729h-0.632h-0.535h-0.438h-0.341c-0.194,0-0.243,0-0.243,0c0.049-0.098,0.146-0.438,0.146-0.438l0.146-0.535l0.194-0.73
		l0.292-0.924l0.292-1.07l0.389-1.264l0.39-1.363l0.486-1.506l0.486-1.654l0.486-1.801l0.583-1.848l0.535-1.945l0.633-2.043
		l0.632-2.09l0.633-2.189l0.632-2.189l0.681-2.236l0.633-2.285l0.681-2.287l0.681-2.285l0.681-2.238l0.633-2.236l0.681-2.238
		l0.632-2.139l0.633-2.092l0.584-2.043l0.583-1.994l0.535-1.848l0.535-1.752l0.486-1.652l0.438-1.557l0.438-1.361l0.341-1.266
		l0.341-1.07l0.243-0.875l0.243-0.729l0.146-0.535l0.098-0.342C304.177,541.955,322.075,602.701,322.075,602.701z"/>
</g>
<g id="LWPOLYLINE_12_">
	
		<path fill="none" stroke="#000000" stroke-width="0.7087" stroke-linecap="round" stroke-linejoin="round" stroke-miterlimit="10" d="
		M429.657,559.852l0.146-1.701l0.048-1.654l0.049-1.605l0.049-1.555l-0.049-1.508l-0.097-1.459l-0.098-1.459l-0.194-1.363
		l-0.194-1.361l-0.243-1.264l-0.292-1.266l-0.341-1.215l-0.389-1.168l-0.39-1.119l-0.486-1.07l-0.535-1.02l-0.534-1.021
		l-0.584-0.926l-0.632-0.924l-0.729-0.875l-0.73-0.777l-0.777-0.779l-0.827-0.729l-0.827-0.73l-0.924-0.631l-0.973-0.584
		l-1.021-0.584l-1.021-0.535l-1.118-0.486l-1.119-0.438l-1.216-0.389l-1.216-0.342l-1.313-0.291l-1.312-0.293l-1.362-0.242
		l-1.459-0.146l-1.459-0.145l-1.508-0.098l-1.604-0.098h-1.605h-1.702l-1.653,0.049l-1.653,0.098l-1.605,0.145l-1.557,0.146
		l-1.508,0.195l-1.507,0.242l-1.46,0.293l-1.41,0.34l-1.361,0.389l-1.362,0.438l-1.265,0.438l-1.265,0.535l-1.216,0.584
		l-1.216,0.633l-1.118,0.68l-1.119,0.73l-1.021,0.777l-1.021,0.828l-0.973,0.924l-0.973,0.973l-0.876,1.021l-0.827,1.07
		l-0.826,1.166l-0.729,1.217l-0.729,1.264l-0.633,1.361l-0.632,1.412l-0.584,1.508l-0.486,1.555l-0.486,1.605l-0.438,1.752
		l-0.39,1.75l-0.34,1.848l-0.243,1.945l-0.243,2.043l-0.194,2.092l-0.146,2.189l-0.049,2.236l-0.048,2.383c0,0.195,0,0.486,0,0.486
		v0.389v0.535v0.584v0.633v0.777v0.828v0.875v0.973v1.021v1.021v1.119v1.117v1.168v1.215v1.217v1.217v1.215v1.264v1.217v1.217v1.166
		v1.217v1.117v1.119v1.021v1.021v0.973v0.875v0.828v0.777v0.633v0.584v0.486v0.438v0.291c0,0.195,0.048,3.502,0.048,3.502
		l0.146,3.113l0.194,2.967l0.243,2.82l0.341,2.627l0.438,2.529l0.438,2.383l0.584,2.236l0.583,2.141l0.633,1.945l0.729,1.896
		l0.729,1.703l0.827,1.652l0.875,1.508l0.875,1.363l0.925,1.312l0.973,1.215l1.021,1.07l1.069,1.021l1.07,0.924l1.07,0.828
		l1.118,0.777l1.119,0.682l1.167,0.582l1.167,0.535l1.216,0.486l1.167,0.439l1.217,0.34l1.216,0.34l1.216,0.244l1.167,0.193
		l1.216,0.195l1.167,0.146l1.216,0.096l1.168,0.098l1.118,0.049l1.167,0.049h1.119h1.07h1.069h0.633h0.681h0.729h0.778l0.875-0.049
		l0.876-0.049l0.924-0.098l0.973-0.096l0.973-0.098l1.021-0.146l1.07-0.195l1.021-0.242l1.119-0.291l1.07-0.293l1.069-0.34
		l1.119-0.438l1.118-0.486l1.07-0.535l1.07-0.584l1.069-0.633l1.07-0.729l1.021-0.828l1.021-0.875l0.973-0.924l0.973-1.07
		l0.924-1.119l0.827-1.215l0.826-1.266l0.778-1.41l0.729-1.508l0.681-1.604l0.584-1.752l0.584-1.799l0.438-1.945l0.389-2.043
		l0.341-2.189l0.243-2.285l0.146-2.432l0.098-2.578l-0.049-2.674c-0.243,0-0.438,0-0.438,0c-0.194,0-0.486,0-0.486,0h-0.292h-0.341
		h-0.389h-0.389h-0.438h-0.438h-0.486h-0.535h-0.486h-0.535h-0.534h-0.584h-0.535h-0.583h-0.535h-0.584h-0.535h-0.535h-0.534h-0.535
		h-0.486h-0.486h-0.438h-0.438h-0.438h-0.341h-0.34h-0.341h-0.243c-0.243,0-0.389,0-0.389,0c-0.243,0-0.292,1.652-0.292,1.652
		l-0.049,1.605l-0.098,1.557l-0.194,1.459l-0.194,1.361l-0.243,1.312l-0.243,1.266l-0.341,1.166l-0.34,1.119l-0.341,1.021
		l-0.438,1.021l-0.39,0.924l-0.486,0.875l-0.486,0.828l-0.486,0.777l-0.486,0.682l-0.534,0.68l-0.584,0.633l-0.535,0.584
		l-0.584,0.486l-0.583,0.486l-0.584,0.438l-0.584,0.438l-0.632,0.342l-0.584,0.34l-0.632,0.291l-0.584,0.244l-0.583,0.242
		l-0.584,0.195l-0.584,0.193l-0.583,0.146l-0.535,0.146l-0.535,0.098l-0.535,0.098l-0.535,0.047l-0.486,0.049l-0.438,0.049h-0.438
		l-0.438,0.049h-0.39h-0.826l-0.778-0.049l-0.827-0.049l-0.778-0.049l-0.778-0.096l-0.777-0.098l-0.778-0.146l-0.729-0.146
		l-0.729-0.193l-0.729-0.244l-0.682-0.242l-0.729-0.293l-0.681-0.34l-0.632-0.389l-0.633-0.389l-0.632-0.486l-0.633-0.486
		l-0.583-0.535l-0.584-0.633l-0.535-0.633l-0.535-0.68l-0.534-0.779l-0.486-0.777l-0.438-0.875l-0.438-0.926l-0.438-1.021
		l-0.39-1.02l-0.389-1.119l-0.341-1.217l-0.291-1.215l-0.292-1.363l-0.243-1.361l-0.243-1.508l-0.194-1.508l-0.195-1.652
		l-0.146-1.703l-0.098-1.799l-0.097-1.848l-0.049-1.994v-2.043c0-0.195,0-0.486,0-0.486v-0.342v-0.486v-0.535v-0.631v-0.73v-0.777
		v-0.828v-0.875v-0.973v-0.973v-1.07v-1.068v-1.07v-1.119v-1.168v-1.117v-1.168v-1.168v-1.166v-1.119v-1.119v-1.119v-1.068v-1.021
		v-0.973v-0.973v-0.877v-0.875v-0.777v-0.682v-0.633v-0.535v-0.486v-0.34v-0.291c0-0.244,0-1.703,0-1.703v-1.361l0.049-1.361v-1.266
		l0.048-1.215l0.049-1.168l0.098-1.119l0.049-1.068l0.097-1.021l0.049-0.926l0.098-0.924l0.097-0.826l0.098-0.826l0.098-0.779
		l0.097-0.729l0.098-0.682l0.097-0.633l0.146-0.582l0.097-0.535l0.098-0.535l0.146-0.486l0.098-0.438l0.098-0.438l0.097-0.391
		l0.146-0.34l0.097-0.34l0.098-0.342l0.097-0.242l0.098-0.244c0.049-0.242,0.146-0.486,0.146-0.486
		c0.098-0.145,0.146-0.34,0.146-0.34c0.049-0.146,0.097-0.291,0.097-0.291c0.098-0.244,0.146-0.342,0.146-0.342
		c0-0.145,0.097-0.291,0.097-0.291c0.098-0.195,0.195-0.389,0.195-0.389c0.146-0.195,0.292-0.438,0.292-0.438
		c0.146-0.244,0.34-0.486,0.34-0.486l0.194-0.244l0.195-0.242l0.243-0.293l0.243-0.291l0.243-0.293l0.291-0.291l0.292-0.291
		l0.341-0.293l0.34-0.34l0.341-0.293l0.39-0.291l0.389-0.291l0.438-0.342l0.438-0.291l0.438-0.293l0.486-0.291l0.534-0.242
		l0.487-0.293l0.583-0.242l0.535-0.244l0.632-0.242l0.584-0.244l0.633-0.195l0.681-0.193l0.681-0.195l0.681-0.193l0.778-0.098
		l0.729-0.146l0.778-0.098l0.827-0.096l0.826-0.049l0.876-0.049h0.875c0.146,0,0.341,0,0.341,0c0.194,0,0.389,0,0.389,0
		c0.194,0.049,0.438,0.049,0.438,0.049l0.292,0.049h0.243l0.292,0.047l0.292,0.049l0.292,0.049l0.292,0.049l0.34,0.098l0.292,0.049
		l0.341,0.049l0.34,0.098l0.341,0.096l0.34,0.098l0.39,0.098l0.341,0.098l0.34,0.145l0.39,0.098l0.34,0.146l0.341,0.146l0.34,0.145
		l0.39,0.146l0.34,0.146l0.341,0.193l0.341,0.195l0.34,0.146l0.341,0.242l0.292,0.195l0.34,0.193l0.292,0.244l0.292,0.242
		l0.292,0.244l0.243,0.291l0.292,0.244l0.243,0.291l0.194,0.293l0.243,0.291l0.194,0.34l0.243,0.293l0.194,0.34l0.195,0.34
		l0.146,0.342l0.194,0.34l0.194,0.34l0.146,0.342l0.146,0.389l0.146,0.389l0.146,0.34l0.146,0.391l0.146,0.389l0.097,0.389
		l0.146,0.438l0.098,0.389l0.097,0.438l0.098,0.391l0.097,0.438l0.098,0.438l0.098,0.438l0.097,0.438l0.049,0.438l0.098,0.486
		l0.048,0.438l0.049,0.486l0.049,0.439l0.049,0.486l0.049,0.486l0.048,0.486l0.049,0.486v0.486l0.049,0.486v0.486l0.049,0.535v0.486
		v0.533v0.486v0.535H429.657z"/>
</g>
<g id="LWPOLYLINE_13_">
	
		<path fill="none" stroke="#000000" stroke-width="0.7087" stroke-linecap="round" stroke-linejoin="round" stroke-miterlimit="10" d="
		M510.344,643.555c0-0.244,0-0.389,0-0.389c0-0.195,0-0.438,0-0.438v-0.244v-0.291v-0.342v-0.34v-0.389v-0.389v-0.438v-0.439v-0.438
		v-0.438v-0.486v-0.486v-0.486v-0.486v-0.486v-0.486v-0.438v-0.486v-0.438v-0.486v-0.438v-0.389V633v-0.389v-0.34v-0.342v-0.291
		v-0.291c0-0.195,0-0.391,0-0.391c0-0.145,0-0.291,0-0.291c-0.097-0.098-0.34-0.098-0.34-0.098h-0.39h-0.534h-0.682h-0.778h-0.924
		h-1.021h-1.118h-1.216h-1.313h-1.361h-1.459h-1.508h-1.557h-1.557h-1.653h-1.653h-1.654h-1.702h-1.653h-1.702h-1.653h-1.605h-1.604
		h-1.557h-1.508h-1.459h-1.362h-1.312h-1.216h-1.119h-1.021h-0.924h-0.778h-0.681h-0.535h-0.389c-0.243,0-0.341,0-0.341,0
		c0-0.049,0-0.291,0-0.291v-0.342v-0.486v-0.582v-0.682v-0.826v-0.924v-0.973v-1.119v-1.119v-1.264v-1.266v-1.361v-1.361v-1.41
		v-1.459v-1.461v-1.506v-1.461v-1.506v-1.508v-1.459v-1.459v-1.412v-1.361v-1.361v-1.266v-1.215v-1.168v-1.07v-1.02v-0.877v-0.826
		v-0.73v-0.582v-0.486v-0.342c0-0.193,0-0.291,0-0.291c0.098,0,0.292,0,0.292,0h0.389h0.486h0.584h0.729h0.827h0.973h1.021h1.118
		h1.167h1.265h1.313h1.361h1.411h1.459h1.459h1.508h1.556h1.508h1.557h1.508h1.508h1.459h1.459h1.41h1.411h1.312h1.216h1.216h1.119
		h1.021h0.924h0.827h0.729h0.632h0.486h0.341c0.194,0,0.292,0,0.292,0c0-0.195,0-0.34,0-0.34c0-0.195,0-0.439,0-0.439v-0.291v-0.291
		v-0.293v-0.389v-0.34v-0.391v-0.438v-0.438v-0.438v-0.486v-0.438v-0.486v-0.486v-0.486v-0.486v-0.486v-0.486v-0.438v-0.486v-0.438
		v-0.438v-0.439v-0.389v-0.389v-0.34v-0.293v-0.34v-0.244c0-0.242,0-0.438,0-0.438c0-0.145,0-0.242,0-0.242
		c-0.098-0.098-0.292-0.098-0.292-0.098h-0.341h-0.486h-0.632h-0.729h-0.827h-0.924h-1.021h-1.119h-1.216h-1.216h-1.312h-1.411
		h-1.41h-1.459h-1.459h-1.508h-1.508h-1.557h-1.508h-1.556h-1.508h-1.459h-1.459h-1.411h-1.361h-1.313h-1.265h-1.167h-1.118h-1.021
		h-0.973h-0.827h-0.729h-0.584h-0.486h-0.389c-0.194,0-0.292,0-0.292,0c0-0.098,0-0.291,0-0.291v-0.293v-0.438v-0.584v-0.631v-0.779
		v-0.826v-0.924v-1.021v-1.07v-1.119v-1.166v-1.266v-1.264v-1.314V563.5v-1.361v-1.41v-1.363v-1.361v-1.41v-1.361v-1.314v-1.312
		v-1.264v-1.266v-1.166v-1.168v-1.07v-0.973v-0.924v-0.826v-0.779v-0.633v-0.582v-0.438v-0.293c0-0.242,0-0.291,0-0.291
		c0.098,0,0.341,0,0.341,0h0.389h0.535h0.632h0.778h0.876h1.021h1.118h1.167h1.265h1.362h1.41h1.459h1.508h1.604h1.557h1.653h1.605
		h1.653h1.654h1.604h1.605h1.604h1.557h1.556h1.46h1.41h1.361h1.265h1.167h1.119h0.973h0.924h0.778h0.633h0.534h0.39
		c0.243,0,0.292,0,0.292,0c0-0.195,0-0.342,0-0.342c0-0.193,0-0.438,0-0.438v-0.291v-0.293v-0.291v-0.389v-0.34v-0.391v-0.438
		v-0.438v-0.438v-0.486v-0.438v-0.486v-0.486v-0.486v-0.486v-0.486v-0.486v-0.438v-0.486v-0.438v-0.439v-0.438v-0.389v-0.389v-0.34
		v-0.293v-0.34v-0.244c0-0.242,0-0.438,0-0.438c0-0.145,0-0.242,0-0.242c-0.098-0.098-0.39-0.098-0.39-0.098h-0.535h-0.681h-0.875
		h-1.021h-1.167h-1.313h-1.459h-1.557h-1.702h-1.751h-1.848h-1.946h-1.994h-2.091h-2.092h-2.14h-2.14h-2.141h-2.188h-2.14h-2.14
		h-2.092h-2.091h-1.994h-1.945h-1.849h-1.751h-1.702h-1.557h-1.459h-1.312h-1.168h-1.021h-0.875h-0.681h-0.535h-0.292
		c-0.098,0.195-0.098,0.826-0.098,0.826v1.021v1.361v1.752V535v2.383v2.627v2.918v3.111v3.357v3.549v3.746v3.842v4.037v4.086v4.182
		v4.279v4.33v4.328v4.328v4.279v4.281v4.182v4.135v3.988v3.891v3.697v3.549v3.357v3.16v2.869v2.676v2.334v2.043v1.752v1.361v1.021
		v0.631C451.592,643.555,510.344,643.555,510.344,643.555z"/>
</g>
<g id="LWPOLYLINE_14_">
	
		<polygon fill="none" stroke="#000000" stroke-width="0.7087" stroke-linecap="round" stroke-linejoin="round" stroke-miterlimit="10" points="
		517.299,221.055 256.514,221.055 256.514,270.008 98.959,207.219 256.514,145.5 256.514,193.383 517.299,193.383 	"/>
</g>
</svg>
