<?xml version="1.0" encoding="utf-8"?>
<!-- Generator: Adobe Illustrator 16.0.1, SVG Export Plug-In . SVG Version: 6.00 Build 0)  -->
<!DOCTYPE svg PUBLIC "-//W3C//DTD SVG 1.0//EN" "http://www.w3.org/TR/2001/REC-SVG-20010904/DTD/svg10.dtd">
<svg version="1.0" id="_x31_" xmlns="http://www.w3.org/2000/svg" xmlns:xlink="http://www.w3.org/1999/xlink" x="0px" y="0px"
	 width="612px" height="792px" viewBox="0 0 612 792" enable-background="new 0 0 612 792" xml:space="preserve">
<g id="LWPOLYLINE">
	
		<path fill="none" stroke="#000000" stroke-width="0.7087" stroke-linecap="round" stroke-linejoin="round" stroke-miterlimit="10" d="
		M137.965,551.688c-0.175,0-0.311,0-0.311,0c-0.175,0-0.369,0-0.369,0h-0.232H136.8h-0.271h-0.311h-0.311h-0.349h-0.369h-0.369
		h-0.388h-0.388h-0.408h-0.407h-0.407h-0.428h-0.407h-0.427h-0.407h-0.408h-0.388h-0.389h-0.368h-0.369h-0.33h-0.33h-0.31h-0.272
		h-0.252h-0.233c-0.193,0-0.349,0-0.349,0c-0.136,0-0.233,0-0.233,0c-0.097,0.193-0.097,0.698-0.097,0.698v0.776v1.125v1.359v1.669
		v1.862v2.097v2.328v2.523v2.639v2.834v2.988v3.105v3.183v3.299v3.338v3.416v3.416v3.454v3.454v3.455v3.377v3.376v3.261v3.222v3.066
		v2.988v2.834v2.678v2.484v2.328v2.097v1.901v1.631v1.358v1.125v0.815v0.505c0.194,0.155,0.33,0.155,0.33,0.155
		c0.155,0,0.349,0,0.349,0h0.233h0.252h0.272h0.31h0.33h0.33h0.369h0.368h0.389h0.388h0.408h0.407h0.427h0.407h0.428h0.407h0.407
		h0.408h0.388h0.388h0.369h0.369h0.349h0.311h0.311h0.271h0.253h0.232h0.194c0.175,0,0.311,0,0.311,0
		C137.965,643.909,137.965,551.688,137.965,551.688z"/>
</g>
<g id="LWPOLYLINE_1_">
	
		<path fill="none" stroke="#000000" stroke-width="0.7087" stroke-linecap="round" stroke-linejoin="round" stroke-miterlimit="10" d="
		M207.907,551.688c0,0.154,0,0.582,0,0.582v0.698v0.932v1.164v1.437v1.591v1.786v1.979v2.135v2.29v2.406v2.562v2.64v2.717v2.795
		v2.872v2.911v2.911v2.949v2.95v2.95v2.872v2.872v2.795v2.756v2.639v2.523v2.406v2.29v2.135v1.979v1.785v1.63v1.397v1.165v0.932
		v0.698v0.427c-0.059,0-0.252-0.427-0.252-0.427l-0.311-0.698l-0.408-0.932l-0.523-1.165l-0.621-1.397l-0.718-1.63l-0.796-1.785
		l-0.873-1.979l-0.951-2.135l-1.028-2.29l-1.067-2.406l-1.126-2.523l-1.164-2.639l-1.223-2.756l-1.242-2.795l-1.281-2.872
		l-1.28-2.872l-1.301-2.95l-1.319-2.95l-1.301-2.949l-1.3-2.911l-1.301-2.911l-1.261-2.872l-1.262-2.795l-1.203-2.717l-1.184-2.64
		l-1.126-2.562l-1.067-2.406l-1.009-2.29l-0.951-2.135l-0.873-1.979l-0.815-1.786l-0.699-1.591l-0.62-1.437l-0.524-1.164
		l-0.427-0.932l-0.311-0.698l-0.194-0.428c-0.175-0.154-0.311-0.154-0.311-0.154c-0.194,0-0.427,0-0.427,0h-0.291h-0.311h-0.369
		h-0.407h-0.427h-0.466h-0.485h-0.505h-0.543h-0.544h-0.562h-0.582h-0.582h-0.602h-0.582h-0.603h-0.602h-0.582h-0.582h-0.562h-0.544
		h-0.543h-0.505h-0.485h-0.466h-0.427h-0.407h-0.369h-0.311h-0.291h-0.232c-0.194,0-0.33,0-0.33,0
		c-0.116,0.193-0.116,0.698-0.116,0.698v0.776v1.125v1.359v1.669v1.862v2.097v2.328v2.523v2.639v2.834v2.988v3.105v3.183v3.299
		v3.338v3.416v3.416v3.454v3.454v3.455v3.377v3.376v3.261v3.222v3.066v2.988v2.834v2.678v2.484v2.328v2.097v1.901v1.631v1.358v1.125
		v0.815v0.505c0.155,0.155,0.291,0.155,0.291,0.155c0.155,0,0.33,0,0.33,0h0.213h0.233h0.271h0.271h0.311h0.311h0.33h0.35h0.349
		h0.369h0.388h0.369h0.388h0.389h0.388h0.389h0.388h0.369h0.368h0.35h0.35h0.33h0.329h0.292h0.291h0.252h0.232h0.214
		c0.194,0,0.35,0,0.35,0c0.116,0,0.193,0,0.193,0c0.078-0.155,0.078-0.583,0.078-0.583v-0.698v-0.932v-1.203v-1.397v-1.63v-1.824
		v-1.979v-2.174v-2.29v-2.445v-2.562v-2.679v-2.755v-2.834v-2.872v-2.95v-2.949v-2.989v-2.988v-2.95v-2.949v-2.873v-2.833v-2.756
		v-2.678v-2.562v-2.445v-2.289v-2.174v-1.979v-1.824v-1.631v-1.396v-1.204v-0.931V565v-0.427c0.077,0,0.271,0.427,0.271,0.427
		l0.311,0.699l0.427,0.931l0.544,1.204l0.621,1.396l0.737,1.631l0.815,1.824l0.893,1.979l0.97,2.174l1.048,2.289l1.087,2.445
		l1.165,2.562l1.203,2.678l1.242,2.756l1.261,2.833l1.301,2.873l1.319,2.949l1.339,2.95l1.34,2.988l1.339,2.989l1.339,2.949
		l1.319,2.95l1.301,2.872l1.262,2.834l1.241,2.755l1.204,2.679l1.145,2.562l1.106,2.445l1.048,2.29l0.971,2.174l0.893,1.979
		l0.814,1.824l0.737,1.63l0.621,1.397l0.544,1.203l0.427,0.932l0.311,0.698l0.194,0.428c0.175,0.155,0.311,0.155,0.311,0.155
		c0.175,0,0.407,0,0.407,0h0.271h0.311h0.33h0.388h0.408h0.446h0.466h0.485h0.504h0.524h0.543h0.544h0.562h0.562h0.563h0.562h0.562
		h0.563h0.543h0.543h0.524h0.505h0.485h0.466h0.427h0.407h0.388h0.35h0.311h0.253h0.232c0.175,0,0.311,0,0.311,0
		c0.116-0.155,0.116-0.66,0.116-0.66v-0.815v-1.125v-1.358v-1.631v-1.901v-2.097v-2.328v-2.484v-2.678v-2.834v-2.988v-3.066v-3.222
		v-3.261v-3.376v-3.377v-3.455v-3.454v-3.454v-3.416v-3.416v-3.338v-3.299v-3.183v-3.105v-2.988v-2.834v-2.639v-2.523v-2.328v-2.097
		v-1.862v-1.669v-1.359v-1.125v-0.776v-0.505C218.251,551.688,207.907,551.688,207.907,551.688z"/>
</g>
<g id="LWPOLYLINE_2_">
	
		<path fill="none" stroke="#000000" stroke-width="0.7087" stroke-linecap="round" stroke-linejoin="round" stroke-miterlimit="10" d="
		M234.941,616.079l-0.059,0.699l-0.059,0.698l-0.038,0.776l-0.039,0.776l-0.02,0.814v0.854l0.02,0.893l0.02,0.893l0.058,0.932
		l0.078,0.971l0.116,0.931l0.136,0.971l0.155,0.971l0.214,1.009l0.232,0.971l0.291,0.97l0.33,0.971l0.369,0.971l0.407,0.97
		l0.466,0.971l0.524,0.932l0.562,0.893l0.641,0.893l0.679,0.854l0.757,0.854l0.815,0.776l0.893,0.776l0.951,0.737l1.028,0.698
		l1.087,0.621l1.184,0.621l1.242,0.544l1.339,0.504l1.417,0.427l1.514,0.389l1.592,0.311l1.688,0.232l1.785,0.194l1.883,0.116
		l1.979,0.039h1.067l1.067-0.039l1.067-0.077l1.048-0.078l1.048-0.116l1.028-0.155l1.028-0.155l1.029-0.194l1.009-0.232l0.989-0.233
		l0.971-0.31l0.951-0.311l0.951-0.35l0.931-0.35l0.894-0.427l0.893-0.427l0.854-0.466l0.835-0.544l0.814-0.543l0.796-0.543
		l0.757-0.621l0.737-0.66l0.699-0.699l0.679-0.698l0.641-0.776l0.602-0.814l0.582-0.815l0.544-0.893l0.504-0.932l0.466-0.971
		l0.428-1.009l0.388-1.048l0.35-1.087l0.291-1.126l0.271-1.164l0.214-1.242l0.175-1.242l0.116-1.319l0.077-1.358l0.02-1.397
		l-0.077-2.174l-0.214-2.019l-0.35-1.901l-0.484-1.824l-0.603-1.708l-0.737-1.63l-0.814-1.514l-0.932-1.437l-1.01-1.358
		l-1.105-1.281l-1.185-1.203l-1.241-1.164l-1.301-1.087l-1.358-1.048l-1.417-0.971l-1.436-0.97l-1.476-0.894l-1.494-0.893
		l-1.514-0.854l-1.514-0.815l-1.533-0.814l-1.494-0.815l-1.494-0.776l-1.476-0.815l-1.455-0.775l-1.397-0.815l-1.358-0.815
		l-1.3-0.854l-1.262-0.893l-1.165-0.893l-1.105-0.932l-1.01-0.971l-0.932-1.048l-0.834-1.087l-0.718-1.126l-0.602-1.203l-0.485-1.28
		l-0.369-1.32l-0.213-1.436l-0.078-1.514l0.02-0.699l0.039-0.659l0.058-0.699l0.098-0.621l0.116-0.621l0.136-0.621l0.155-0.582
		l0.194-0.543l0.193-0.544l0.233-0.543l0.232-0.505l0.272-0.466l0.271-0.466l0.311-0.466l0.311-0.427l0.349-0.388l0.35-0.427
		l0.369-0.35l0.368-0.35l0.408-0.35l0.407-0.311l0.427-0.31l0.427-0.272l0.446-0.271l0.447-0.271l0.465-0.233l0.485-0.193
		l0.485-0.194l0.485-0.194l0.505-0.155l0.504-0.155l0.505-0.116l0.524-0.116l0.523-0.116l0.524-0.078l0.523-0.077l0.544-0.039
		l0.523-0.039l0.544-0.039h0.543h0.757l0.737,0.039l0.699,0.078l0.679,0.116l0.66,0.116l0.641,0.116l0.602,0.155l0.582,0.194
		l0.562,0.232l0.544,0.233l0.523,0.232l0.485,0.311l0.466,0.272l0.446,0.349l0.427,0.311l0.408,0.389l0.368,0.388l0.369,0.389
		l0.35,0.427l0.31,0.427l0.311,0.466l0.292,0.466l0.252,0.505l0.252,0.504l0.233,0.505l0.213,0.543l0.194,0.544l0.175,0.582
		l0.155,0.582l0.155,0.582l0.136,0.621l0.116,0.621l0.098,0.621l0.077,0.66l0.078,0.659l0.058,0.66l0.039,0.699l0.039,0.698
		l0.02,0.698v0.699c0.193,0,0.329,0,0.329,0c0.175,0,0.389,0,0.389,0h0.252h0.271h0.291h0.33h0.35h0.369h0.368h0.407h0.408h0.427
		h0.427h0.446h0.446h0.446h0.447h0.446h0.446h0.427h0.427h0.407h0.408h0.388h0.35h0.35h0.329h0.291h0.272h0.252h0.214
		c0.175,0,0.311,0,0.311,0c0.193,0,0.232-1.358,0.232-1.358v-1.281l-0.02-1.28l-0.077-1.242l-0.117-1.203l-0.136-1.165l-0.193-1.125
		l-0.214-1.087l-0.271-1.048l-0.291-1.01l-0.311-0.97l-0.369-0.932l-0.388-0.932l-0.446-0.854l-0.446-0.854l-0.505-0.776
		l-0.524-0.776l-0.562-0.737l-0.602-0.66l-0.621-0.659l-0.66-0.621l-0.679-0.621l-0.718-0.544l-0.757-0.504l-0.776-0.505
		l-0.796-0.466l-0.854-0.427l-0.854-0.389l-0.893-0.349l-0.932-0.311l-0.951-0.311l-0.97-0.271l-1.01-0.233l-1.028-0.194
		l-1.048-0.155l-1.087-0.116l-1.106-0.116l-1.125-0.078l-1.165-0.038l-1.164-0.039l-1.146,0.039l-1.105,0.038l-1.106,0.078
		l-1.087,0.116l-1.067,0.116l-1.048,0.155l-1.048,0.194l-1.01,0.233l-1.009,0.271l-0.971,0.271L252,551.92l-0.951,0.35l-0.912,0.388
		l-0.893,0.427l-0.873,0.428l-0.854,0.465l-0.814,0.505l-0.815,0.544l-0.757,0.543l-0.757,0.621l-0.699,0.621l-0.698,0.66
		l-0.66,0.659l-0.621,0.737l-0.602,0.738l-0.562,0.814l-0.524,0.815l-0.484,0.815l-0.466,0.893l-0.428,0.932l-0.388,0.931
		l-0.35,0.971l-0.311,1.009l-0.271,1.049l-0.232,1.048l-0.194,1.125l-0.155,1.126l-0.116,1.164l-0.059,1.203l-0.02,1.242
		l0.078,2.058l0.213,1.901l0.35,1.824l0.485,1.708l0.621,1.63l0.718,1.553l0.815,1.437l0.932,1.397l1.028,1.28l1.087,1.242
		l1.184,1.164l1.242,1.126l1.3,1.048l1.358,1.01l1.417,0.97l1.437,0.893l1.475,0.894l1.494,0.854l1.514,0.854l1.514,0.815
		l1.533,0.776l1.514,0.815l1.495,0.775l1.475,0.776l1.436,0.776l1.397,0.815l1.358,0.815l1.32,0.814l1.242,0.854l1.164,0.893
		l1.106,0.932l1.028,0.932l0.912,1.009l0.834,1.048l0.719,1.126l0.602,1.164l0.485,1.242l0.368,1.28l0.214,1.359l0.077,1.475
		l-0.02,0.815l-0.038,0.775l-0.059,0.776l-0.097,0.738l-0.117,0.737l-0.136,0.659l-0.175,0.699l-0.174,0.621l-0.214,0.621
		l-0.232,0.582l-0.253,0.582l-0.271,0.543l-0.291,0.544l-0.311,0.466l-0.35,0.504l-0.349,0.428l-0.369,0.466l-0.388,0.388
		l-0.408,0.389l-0.427,0.388l-0.427,0.35l-0.466,0.311l-0.466,0.311l-0.485,0.271l-0.505,0.271l-0.523,0.271L269,633.778
		l-0.543,0.232l-0.544,0.194l-0.562,0.155l-0.582,0.155l-0.582,0.155l-0.602,0.116l-0.602,0.117l-0.621,0.077l-0.621,0.078
		l-0.621,0.038l-0.641,0.039l-0.66,0.039h-0.64h-0.544l-0.543-0.039l-0.544-0.039l-0.543-0.038l-0.544-0.078l-0.543-0.116
		l-0.524-0.078l-0.543-0.155l-0.524-0.116l-0.523-0.155l-0.524-0.194l-0.523-0.193l-0.505-0.233l-0.505-0.232l-0.504-0.271
		l-0.485-0.272l-0.466-0.311l-0.466-0.349l-0.446-0.35l-0.446-0.35l-0.427-0.427l-0.408-0.427l-0.388-0.427l-0.389-0.466
		l-0.368-0.505l-0.33-0.543l-0.33-0.544l-0.311-0.582l-0.291-0.621l-0.271-0.621l-0.253-0.66l-0.213-0.698l-0.194-0.698
		l-0.175-0.776l-0.155-0.776l-0.136-0.815l-0.097-0.815l-0.078-0.893l-0.038-0.893l-0.02-0.932c0-0.193,0-0.271,0-0.271
		c0-0.194,0-0.271,0-0.271c0-0.155,0-0.233,0-0.233c0-0.155,0-0.232,0-0.232c0-0.194,0-0.271,0-0.271c0-0.194,0-0.272,0-0.272
		c0-0.193,0-0.271,0-0.271c0-0.116,0-0.193,0-0.193c0-0.194,0-0.233,0-0.233C246.062,616.079,234.941,616.079,234.941,616.079z"/>
</g>
<g id="LWPOLYLINE_3_">
	
		<path fill="none" stroke="#000000" stroke-width="0.7087" stroke-linecap="round" stroke-linejoin="round" stroke-miterlimit="10" d="
		M353.362,643.909c0-0.155,0-0.272,0-0.272c0-0.155,0-0.349,0-0.349v-0.233v-0.232v-0.233v-0.311v-0.271v-0.35v-0.311v-0.349v-0.35
		v-0.389v-0.349v-0.389v-0.388v-0.389v-0.388v-0.389v-0.388v-0.388v-0.35v-0.35v-0.35v-0.349v-0.311v-0.311v-0.271v-0.272v-0.232
		v-0.194c0-0.194,0-0.35,0-0.35c0-0.116,0-0.193,0-0.193c-0.039-0.078-0.233-0.078-0.233-0.078h-0.311h-0.427h-0.543h-0.621h-0.737
		h-0.815h-0.893h-0.971h-1.048h-1.125h-1.126h-1.203h-1.242h-1.281h-1.28h-1.32h-1.358h-1.319h-1.358h-1.319h-1.32h-1.319h-1.281
		h-1.203h-1.203h-1.164h-1.087h-1.048h-0.971h-0.893h-0.815h-0.737h-0.66h-0.504h-0.427h-0.311c-0.194,0-0.272,0-0.272,0
		c0-0.077,0-0.232,0-0.232v-0.271v-0.389v-0.466v-0.582v-0.66v-0.698v-0.815v-0.854v-0.932v-0.971v-1.048v-1.048v-1.087v-1.164
		v-1.126v-1.203v-1.164v-1.203v-1.203v-1.165v-1.164v-1.165v-1.125v-1.126v-1.048v-1.009v-1.01v-0.893v-0.893v-0.776v-0.737v-0.66
		v-0.543v-0.466V602.3v-0.31c0-0.155,0-0.194,0-0.194c0.039,0,0.233,0,0.233,0h0.271h0.388h0.505h0.582h0.66h0.737h0.815h0.893
		h0.932h1.009h1.048h1.126h1.126h1.125h1.203h1.203h1.204h1.241h1.204h1.241h1.165h1.203h1.164h1.126h1.087h1.048h1.009h0.932h0.893
		h0.815h0.737h0.698h0.544h0.505h0.388h0.271c0.194,0,0.271,0,0.271,0c0-0.194,0-0.311,0-0.311c0-0.155,0-0.35,0-0.35v-0.194v-0.232
		v-0.271v-0.272v-0.31v-0.311v-0.35v-0.311v-0.389v-0.349v-0.389v-0.388v-0.389v-0.388v-0.389v-0.349v-0.389v-0.388v-0.35v-0.388
		v-0.35v-0.311v-0.311v-0.311v-0.271v-0.271v-0.233v-0.232c0-0.155,0-0.311,0-0.311c0-0.116,0-0.233,0-0.233
		c-0.077-0.077-0.271-0.077-0.271-0.077h-0.271h-0.388h-0.505h-0.544h-0.698h-0.737h-0.815h-0.893h-0.932h-1.009h-1.048h-1.087
		h-1.126h-1.164h-1.203h-1.165h-1.241h-1.204h-1.241h-1.204h-1.203h-1.203h-1.125h-1.126h-1.126h-1.048h-1.009h-0.932h-0.893h-0.815
		h-0.737h-0.66h-0.582h-0.505h-0.388h-0.271c-0.194,0-0.233,0-0.233,0c0-0.039,0-0.194,0-0.194v-0.271v-0.35v-0.427v-0.544v-0.582
		v-0.659v-0.776v-0.776v-0.854v-0.893v-0.97v-0.971v-1.009v-1.048v-1.087v-1.087v-1.087v-1.126v-1.087v-1.086v-1.087v-1.087v-1.048
		v-1.01v-0.97v-0.971v-0.893v-0.854v-0.814v-0.737v-0.66v-0.582v-0.544v-0.427v-0.35v-0.271c0-0.155,0-0.193,0-0.193
		c0.078,0,0.233,0,0.233,0h0.311h0.427h0.543h0.621h0.699h0.814h0.854h0.97h1.01h1.087h1.125h1.165h1.203h1.242h1.28h1.281h1.319
		h1.281h1.319h1.319h1.281h1.281h1.241h1.204h1.164h1.126h1.086h1.01h0.97h0.854h0.815h0.698h0.621h0.543h0.427h0.311
		c0.155,0,0.233,0,0.233,0c0-0.194,0-0.311,0-0.311c0-0.155,0-0.35,0-0.35v-0.194v-0.232v-0.272v-0.271v-0.311v-0.311v-0.349v-0.311
		v-0.389v-0.35v-0.388v-0.388v-0.389v-0.388v-0.389v-0.35v-0.388v-0.388v-0.35v-0.389v-0.349v-0.311v-0.311v-0.311v-0.271v-0.272
		v-0.232v-0.233c0-0.155,0-0.311,0-0.311c0-0.116,0-0.232,0-0.232c-0.078-0.077-0.35-0.077-0.35-0.077h-0.388h-0.544h-0.698h-0.815
		h-0.932h-1.086h-1.126h-1.281h-1.319h-1.437h-1.475h-1.553h-1.591h-1.631h-1.669h-1.707h-1.708h-1.747h-1.708h-1.746h-1.708h-1.669
		h-1.63h-1.592h-1.553h-1.475h-1.437h-1.319h-1.242h-1.164h-1.048h-0.971h-0.815h-0.698h-0.543h-0.389h-0.271
		c-0.078,0.193-0.078,0.698-0.078,0.698v0.776v1.125v1.359v1.669v1.862v2.097v2.328v2.523v2.639v2.834v2.988v3.105v3.183v3.299
		v3.338v3.416v3.416v3.454v3.454v3.455v3.377v3.376v3.261v3.222v3.066v2.988v2.834v2.678v2.484v2.328v2.097v1.901v1.631v1.358v1.125
		v0.815v0.505C306.475,643.909,353.362,643.909,353.362,643.909z"/>
</g>
<g id="LWPOLYLINE_4_">
	
		<path fill="none" stroke="#000000" stroke-width="0.7087" stroke-linecap="round" stroke-linejoin="round" stroke-miterlimit="10" d="
		M378.009,562.051c0.155,0,0.311,0,0.311,0h0.194h0.271h0.311h0.35h0.388h0.466h0.466h0.505h0.543h0.544h0.582h0.621h0.621h0.621
		h0.659h0.66h0.66h0.659h0.621h0.66h0.621h0.621h0.621h0.582h0.582h0.505h0.543h0.466h0.427h0.389h0.388h0.311h0.233h0.232
		c0.155,0,0.233,0,0.233,0c0.038,0,0.698,0,0.698,0l0.621,0.038l0.582,0.078l0.582,0.077l0.582,0.116l0.544,0.117l0.505,0.155
		l0.504,0.193l0.505,0.194l0.466,0.233l0.466,0.232l0.427,0.271l0.389,0.272l0.388,0.311l0.388,0.31l0.35,0.311l0.35,0.35l0.35,0.35
		l0.311,0.35l0.271,0.388l0.271,0.388l0.271,0.428l0.233,0.388l0.232,0.427l0.194,0.466l0.194,0.427l0.193,0.466l0.155,0.428
		l0.155,0.466l0.155,0.465l0.116,0.466l0.117,0.505l0.077,0.466l0.078,0.466l0.077,0.505l0.078,0.466l0.038,0.504l0.039,0.466v0.466
		v0.505v0.66l-0.039,0.621l-0.038,0.659l-0.039,0.621l-0.078,0.621l-0.077,0.621l-0.078,0.582l-0.116,0.621l-0.116,0.582
		l-0.155,0.582l-0.155,0.544l-0.155,0.582l-0.194,0.505l-0.193,0.543l-0.233,0.505l-0.232,0.505l-0.233,0.504l-0.271,0.466
		l-0.271,0.466l-0.311,0.427l-0.311,0.428l-0.311,0.388l-0.311,0.388l-0.35,0.389l-0.388,0.35l-0.389,0.349l-0.388,0.311
		l-0.389,0.271l-0.427,0.272l-0.466,0.271l-0.427,0.232l-0.466,0.194l-0.505,0.194l-0.504,0.155l-0.505,0.155l-0.543,0.116
		l-0.544,0.078l-0.543,0.077l-0.582,0.039h-0.583c-0.116,0-0.271,0-0.271,0h-0.232h-0.233h-0.311h-0.388h-0.389h-0.427h-0.466
		h-0.543h-0.505h-0.582h-0.582h-0.621h-0.621h-0.621h-0.66h-0.621h-0.659h-0.66h-0.66h-0.659h-0.621h-0.621h-0.621h-0.582h-0.544
		h-0.543h-0.505h-0.466h-0.466h-0.388h-0.35h-0.311h-0.271h-0.194c-0.155,0-0.271,0-0.271,0
		C378.009,591.433,378.009,562.051,378.009,562.051z"/>
</g>
<g id="LWPOLYLINE_5_">
	
		<path fill="none" stroke="#000000" stroke-width="0.7087" stroke-linecap="round" stroke-linejoin="round" stroke-miterlimit="10" d="
		M366.908,643.909c0.155,0,0.311,0,0.311,0c0.155,0,0.35,0,0.35,0h0.232h0.233h0.311h0.271h0.349h0.35h0.35h0.35h0.388h0.427h0.389
		h0.427h0.388h0.428h0.427h0.388h0.427h0.389h0.427h0.389h0.349h0.35h0.35h0.349h0.272h0.311h0.232h0.232c0.194,0,0.35,0,0.35,0
		c0.155,0,0.233,0,0.233,0c0.077-0.078,0.077-0.311,0.077-0.311v-0.35v-0.505v-0.659v-0.738v-0.854v-0.971v-1.048v-1.164v-1.203
		v-1.281v-1.358v-1.437v-1.436v-1.514v-1.553v-1.553v-1.553v-1.591v-1.553v-1.592v-1.552v-1.514v-1.515v-1.475v-1.397v-1.358v-1.28
		v-1.242v-1.126v-1.087v-0.932v-0.893v-0.737v-0.621v-0.505v-0.388v-0.194c0.116-0.077,0.233-0.077,0.233-0.077
		c0.155,0,0.349,0,0.349,0h0.272h0.271h0.311h0.311h0.388h0.389h0.427h0.427h0.466h0.466h0.466h0.505h0.465h0.505h0.505h0.543h0.505
		h0.466h0.505h0.466h0.466h0.465h0.428h0.427h0.388h0.389h0.311h0.311h0.271h0.271h0.194c0.155,0,0.271,0,0.271,0
		c0.116,0,0.389,0,0.389,0h0.349h0.35h0.35h0.349l0.389,0.039H394l0.389,0.038l0.427,0.039l0.388,0.039l0.428,0.077l0.427,0.039
		l0.427,0.078l0.427,0.116l0.427,0.116l0.428,0.116l0.466,0.155l0.427,0.155l0.427,0.155l0.388,0.194l0.428,0.232l0.427,0.233
		l0.388,0.271l0.389,0.271l0.388,0.35l0.35,0.311l0.35,0.388l0.349,0.389l0.311,0.427l0.311,0.466l0.271,0.466l0.272,0.505
		l0.271,0.582l0.232,0.582l0.194,0.621l0.194,0.66l0.155,0.698l0.116,0.698l0.116,0.776l0.078,0.815l0.038,0.893l0.039,0.893
		l0.078,0.893l0.038,0.894l0.039,0.893l0.039,0.893v0.893l0.039,0.893l0.038,0.854l0.039,0.893v0.854l0.039,0.854l0.039,0.894v0.854
		l0.038,0.815l0.039,0.854l0.039,0.854l0.039,0.815l0.038,0.815l0.039,0.814l0.039,0.776l0.039,0.815l0.077,0.776l0.039,0.776
		l0.077,0.737l0.078,0.776l0.077,0.737l0.117,0.698l0.077,0.738l0.116,0.698l0.117,0.66l0.154,0.698l0.117,0.66l0.155,0.621
		l0.155,0.621l0.193,0.621l0.194,0.582l0.194,0.582l0.232,0.582l0.233,0.544c0.077,0,0.194,0,0.194,0c0.155,0,0.349,0,0.349,0h0.233
		h0.232h0.311h0.311h0.35h0.35h0.388h0.427h0.427h0.428h0.466h0.465h0.466h0.466h0.466h0.505h0.466h0.466h0.466h0.466h0.427h0.427
		h0.427h0.389h0.35h0.349h0.311h0.311h0.233h0.232c0.194,0,0.35,0,0.35,0c0.194,0,0.194,0,0.194,0l-0.155-0.505l-0.194-0.505
		l-0.155-0.543l-0.155-0.582l-0.155-0.583l-0.155-0.621l-0.116-0.62l-0.155-0.66l-0.117-0.66l-0.116-0.698l-0.116-0.699
		l-0.116-0.698l-0.116-0.699l-0.117-0.737l-0.116-0.737l-0.077-0.737l-0.078-0.737l-0.116-0.737l-0.078-0.737l-0.077-0.699
		l-0.078-0.737l-0.038-0.737l-0.078-0.699l-0.039-0.698l-0.077-0.698l-0.039-0.699l-0.039-0.66l-0.077-0.659l-0.039-0.621v-0.621
		l-0.039-0.582l-0.038-0.544l-0.039-0.543v-0.505l-0.039-0.505v-0.465v-0.428v-0.388l-0.039-0.35v-0.311l-0.038-1.319l-0.078-1.319
		l-0.116-1.204l-0.078-1.203l-0.116-1.125l-0.155-1.087l-0.116-1.01l-0.155-1.009l-0.194-0.932l-0.193-0.893l-0.194-0.854
		l-0.194-0.815l-0.232-0.776l-0.272-0.698l-0.271-0.699l-0.271-0.659l-0.271-0.621l-0.35-0.583l-0.311-0.543l-0.35-0.543
		l-0.349-0.466l-0.389-0.466l-0.427-0.466l-0.427-0.389l-0.427-0.388l-0.466-0.35l-0.466-0.35l-0.505-0.311l-0.543-0.31
		l-0.544-0.311l-0.543-0.233l-0.582-0.271l-0.621-0.233l-0.621-0.232l-0.621-0.233l-0.699-0.193l-0.698-0.194l-0.698-0.194
		l-0.738-0.193l-0.776-0.155l0.776-0.155l0.738-0.155l0.737-0.194l0.737-0.194l0.698-0.232l0.699-0.272l0.659-0.271l0.66-0.311
		l0.66-0.311l0.621-0.349l0.582-0.389l0.621-0.388l0.543-0.428l0.582-0.427l0.505-0.466l0.543-0.466l0.505-0.466l0.466-0.504
		l0.466-0.544l0.427-0.543l0.427-0.544l0.389-0.582l0.388-0.621l0.389-0.582l0.311-0.621l0.35-0.621l0.31-0.659l0.272-0.66
		l0.232-0.66l0.271-0.698l0.194-0.699l0.194-0.698l0.194-0.737l0.155-0.699l0.116-0.737l0.116-0.737l0.077-0.776l0.039-0.737
		l0.039-0.776v-0.776v-0.893l-0.039-0.893l-0.039-0.854l-0.077-0.894l-0.116-0.854l-0.116-0.893l-0.117-0.854l-0.193-0.854
		l-0.194-0.815l-0.194-0.814l-0.271-0.815l-0.271-0.815l-0.272-0.775l-0.349-0.738l-0.35-0.775l-0.35-0.738l-0.427-0.698
		l-0.427-0.698l-0.466-0.66l-0.505-0.66l-0.504-0.621l-0.544-0.621l-0.582-0.582l-0.621-0.543l-0.66-0.544l-0.659-0.504
		l-0.699-0.466l-0.776-0.428l-0.776-0.427l-0.775-0.388l-0.854-0.35l-0.893-0.311l-0.893-0.311l-0.971-0.232l-0.97-0.233
		l-1.048-0.155l-1.049-0.155l-1.086-0.116l-1.126-0.039l-1.203-0.038c-0.039,0-0.194,0-0.194,0h-0.271h-0.389h-0.466h-0.543h-0.621
		h-0.737h-0.776h-0.815h-0.932h-0.931h-1.01h-1.048h-1.048h-1.126h-1.125h-1.126h-1.164h-1.165h-1.164h-1.164h-1.126h-1.126h-1.125
		h-1.048h-1.048h-1.01h-0.932h-0.932h-0.814h-0.776h-0.699h-0.659h-0.544h-0.466h-0.388h-0.271c-0.155,0-0.194,0-0.194,0V643.909z"
		/>
</g>
<g id="LWPOLYLINE_6_">
	
		<path fill="none" stroke="#000000" stroke-width="0.7087" stroke-linecap="round" stroke-linejoin="round" stroke-miterlimit="10" d="
		M425.711,551.688c0,0.193,0,0.31,0,0.31c0,0.155,0,0.311,0,0.311v0.233v0.232v0.272v0.271v0.311v0.311v0.311v0.349v0.389v0.35
		v0.388v0.388v0.35v0.389v0.388v0.389v0.388v0.388v0.35v0.389v0.311v0.349v0.311v0.311v0.271v0.272v0.232v0.194
		c0,0.194,0,0.35,0,0.35c0,0.116,0,0.232,0,0.232c0.194,0.078,0.389,0.078,0.389,0.078h0.271h0.388h0.428h0.465h0.544h0.621h0.621
		h0.698h0.737h0.776h0.776h0.854h0.814h0.893h0.854h0.893h0.893h0.893h0.893h0.893h0.854h0.854h0.815h0.815h0.776h0.737h0.698h0.621
		h0.621h0.543h0.466h0.428h0.349h0.311h0.194c0.194,0.116,0.194,0.582,0.194,0.582v0.698v1.01v1.203v1.475v1.669v1.863v2.057v2.213
		v2.367v2.523v2.639v2.756v2.834v2.911v2.988v3.027v3.027v3.066v3.066v3.066v3.027v2.95v2.949v2.834v2.717v2.64v2.522v2.368v2.251
		v2.057v1.863v1.669v1.437v1.242v0.97v0.737v0.428c0.193,0.155,0.311,0.155,0.311,0.155c0.193,0,0.388,0,0.388,0h0.271h0.271h0.272
		h0.349h0.35h0.35h0.388h0.389h0.427h0.427h0.427h0.428h0.465h0.428h0.466h0.427h0.427h0.466h0.427h0.389h0.427h0.35h0.388h0.35
		h0.311h0.311h0.271h0.232h0.233c0.155,0,0.311,0,0.311,0c0.193-0.155,0.193-0.583,0.193-0.583v-0.737v-0.97v-1.242v-1.437v-1.669
		v-1.863v-2.057v-2.251v-2.368v-2.522v-2.64v-2.717v-2.834v-2.949v-2.95v-3.027v-3.066v-3.066v-3.066v-3.027v-3.027v-2.988v-2.911
		v-2.834v-2.756v-2.639v-2.523v-2.367v-2.213v-2.057v-1.863v-1.669v-1.475v-1.203v-1.01v-0.698v-0.466
		c0.155-0.116,0.35-0.116,0.35-0.116h0.271h0.35h0.427h0.466h0.544h0.543h0.66h0.659h0.699h0.737h0.776h0.815h0.814h0.815h0.854
		h0.854h0.893h0.854h0.854h0.854h0.854h0.815h0.776h0.776h0.737h0.737h0.66h0.621h0.582h0.543h0.466h0.389h0.35h0.271h0.193
		c0.194-0.194,0.194-0.311,0.194-0.311c0-0.155,0-0.35,0-0.35v-0.194v-0.232v-0.272v-0.271v-0.311v-0.311v-0.349v-0.311v-0.389
		v-0.35v-0.388v-0.388v-0.389v-0.388v-0.389v-0.35v-0.388v-0.388v-0.35v-0.389v-0.349v-0.311v-0.311v-0.311v-0.271v-0.272v-0.232
		v-0.233c0-0.155,0-0.311,0-0.311c0-0.116,0-0.232,0-0.232C484.553,551.688,425.711,551.688,425.711,551.688z"/>
</g>
<g id="LWPOLYLINE_7_">
	
		<polygon fill="none" stroke="#000000" stroke-width="0.7087" stroke-linecap="round" stroke-linejoin="round" stroke-miterlimit="10" points="
		393.573,236.558 485.174,328.178 302.516,510.854 210.896,419.254 227.761,402.37 302.516,477.126 451.444,328.178 
		302.516,179.229 228.304,253.422 211.459,236.558 302.516,145.5 	"/>
</g>
<g id="LWPOLYLINE_8_">
	
		<polyline fill="none" stroke="#000000" stroke-width="0.7087" stroke-linecap="round" stroke-linejoin="round" stroke-miterlimit="10" points="
		286.835,243.874 288.776,245.097 290.697,246.319 292.58,247.562 294.462,248.822 296.325,250.104 298.169,251.385 
		299.993,252.704 301.798,254.023 303.564,255.362 305.35,256.702 307.096,258.08 308.804,259.458 310.512,260.854 312.22,262.271 
		313.889,263.708 315.558,265.144 317.188,266.6 318.817,268.074 320.409,269.568 321.962,271.062 323.553,272.596 325.066,274.129 
		326.619,275.682 328.095,277.254 329.608,278.825 331.083,280.417 332.52,282.027 333.955,283.658 335.353,285.308 336.75,286.957 
		338.147,288.646 339.506,290.334 340.825,292.022 342.145,293.75 343.465,295.477 344.745,297.224 345.987,299.009 
		347.229,300.774 348.472,302.58 349.675,304.385 	"/>
</g>
<g id="LINE">
	
		<line fill="none" stroke="#000000" stroke-width="0.7087" stroke-linecap="round" stroke-linejoin="round" stroke-miterlimit="10" x1="349.675" y1="304.385" x2="278.742" y2="375.782"/>
</g>
<g id="LINE_1_">
	
		<line fill="none" stroke="#000000" stroke-width="0.7087" stroke-linecap="round" stroke-linejoin="round" stroke-miterlimit="10" x1="278.742" y1="375.782" x2="292.25" y2="389.367"/>
</g>
<g id="LINE_2_">
	
		<line fill="none" stroke="#000000" stroke-width="0.7087" stroke-linecap="round" stroke-linejoin="round" stroke-miterlimit="10" x1="292.929" y1="388.688" x2="373.312" y2="307.781"/>
</g>
<g id="LWPOLYLINE_9_">
	
		<polyline fill="none" stroke="#000000" stroke-width="0.7087" stroke-linecap="round" stroke-linejoin="round" stroke-miterlimit="10" points="
		373.312,307.781 371.683,305.199 370.014,302.657 368.345,300.135 366.637,297.65 364.929,295.186 363.221,292.76 361.475,290.373 
		359.728,288.024 357.981,285.695 356.195,283.387 354.371,281.135 352.586,278.903 350.723,276.71 348.898,274.537 
		347.035,272.402 345.173,270.306 343.271,268.249 341.369,266.211 339.467,264.212 337.526,262.232 335.585,260.292 
		333.605,258.391 331.626,256.508 329.608,254.664 327.629,252.859 325.571,251.093 323.553,249.347 321.496,247.619 
		319.438,245.95 317.343,244.301 315.247,242.69 313.112,241.099 310.978,239.546 308.843,238.032 306.669,236.538 304.495,235.082 
		302.303,233.666 300.09,232.288 297.858,230.93 295.627,229.59 	"/>
</g>
<g id="LINE_3_">
	
		<line fill="none" stroke="#000000" stroke-width="0.7087" stroke-linecap="round" stroke-linejoin="round" stroke-miterlimit="10" x1="294.947" y1="228.911" x2="286.835" y2="241.157"/>
</g>
<g id="LWPOLYLINE_10_">
	
		<polyline fill="none" stroke="#000000" stroke-width="0.7087" stroke-linecap="round" stroke-linejoin="round" stroke-miterlimit="10" points="
		324.756,411.025 322.815,409.822 320.914,408.58 319.012,407.338 317.11,406.077 315.247,404.796 313.423,403.516 311.599,402.215 
		309.813,400.876 308.027,399.556 306.242,398.197 304.495,396.819 302.769,395.441 301.061,394.045 299.372,392.628 
		297.703,391.211 296.034,389.756 294.404,388.3 292.793,386.825 291.183,385.331 289.61,383.837 288.038,382.304 286.505,380.771 
		284.972,379.218 283.478,377.665 281.983,376.074 280.509,374.482 279.072,372.872 277.637,371.241 276.22,369.592 
		274.822,367.942 273.444,366.273 272.105,364.585 270.767,362.877 269.446,361.149 268.127,359.423 266.846,357.676 
		265.585,355.91 264.343,354.125 263.12,352.339 261.917,350.515 	"/>
</g>
<g id="LINE_4_">
	
		<line fill="none" stroke="#000000" stroke-width="0.7087" stroke-linecap="round" stroke-linejoin="round" stroke-miterlimit="10" x1="261.917" y1="350.515" x2="332.868" y2="279.136"/>
</g>
<g id="LINE_5_">
	
		<line fill="none" stroke="#000000" stroke-width="0.7087" stroke-linecap="round" stroke-linejoin="round" stroke-miterlimit="10" x1="332.868" y1="279.136" x2="319.322" y2="265.532"/>
</g>
<g id="LINE_6_">
	
		<line fill="none" stroke="#000000" stroke-width="0.7087" stroke-linecap="round" stroke-linejoin="round" stroke-miterlimit="10" x1="318.662" y1="266.211" x2="238.26" y2="347.118"/>
</g>
<g id="LWPOLYLINE_11_">
	
		<polyline fill="none" stroke="#000000" stroke-width="0.7087" stroke-linecap="round" stroke-linejoin="round" stroke-miterlimit="10" points="
		238.26,347.118 239.909,349.7 241.578,352.262 243.247,354.784 244.936,357.269 246.644,359.714 248.371,362.14 250.098,364.526 
		251.864,366.895 253.63,369.223 255.396,371.513 257.201,373.765 259.025,375.996 260.85,378.189 262.693,380.362 264.556,382.497 
		266.419,384.594 268.302,386.67 270.223,388.708 272.125,390.707 274.065,392.667 276.025,394.607 277.985,396.509 
		279.965,398.392 281.964,400.235 283.963,402.04 286.001,403.825 288.038,405.553 290.096,407.28 292.172,408.949 294.249,410.599 
		296.364,412.229 298.479,413.801 300.614,415.354 302.749,416.887 304.923,418.361 307.096,419.798 309.27,421.233 
		311.482,422.631 313.733,423.989 315.945,425.31 	"/>
</g>
<g id="LINE_7_">
	
		<line fill="none" stroke="#000000" stroke-width="0.7087" stroke-linecap="round" stroke-linejoin="round" stroke-miterlimit="10" x1="316.645" y1="425.969" x2="324.756" y2="413.742"/>
</g>
</svg>
