<?xml version="1.0" encoding="utf-8"?>
<!-- Generator: Adobe Illustrator 16.0.1, SVG Export Plug-In . SVG Version: 6.00 Build 0)  -->
<!DOCTYPE svg PUBLIC "-//W3C//DTD SVG 1.0//EN" "http://www.w3.org/TR/2001/REC-SVG-20010904/DTD/svg10.dtd">
<svg version="1.0" id="_x31_" xmlns="http://www.w3.org/2000/svg" xmlns:xlink="http://www.w3.org/1999/xlink" x="0px" y="0px"
	 width="612px" height="792px" viewBox="0 0 612 792" enable-background="new 0 0 612 792" xml:space="preserve">
<g id="LWPOLYLINE">
	
		<path fill="none" stroke="#000000" stroke-width="0.7087" stroke-linecap="round" stroke-linejoin="round" stroke-miterlimit="10" d="
		M178.875,551.688c-0.174,0-0.311,0-0.311,0c-0.155,0-0.368,0-0.368,0h-0.214h-0.252h-0.291h-0.291h-0.33h-0.35h-0.35h-0.368h-0.389
		h-0.407h-0.388h-0.428h-0.407h-0.407h-0.427h-0.408h-0.407h-0.407h-0.408h-0.388h-0.369h-0.349h-0.35h-0.33h-0.291H168.9h-0.253
		h-0.213c-0.194,0-0.369,0-0.369,0c-0.136,0-0.232,0-0.232,0c-0.078,0.193-0.078,0.698-0.078,0.698v0.776v1.125v1.359v1.669v1.862
		v2.097v2.328v2.523v2.639v2.834v2.988v3.105v3.183v3.299v3.338v3.416v3.416v3.454v3.454v3.455v3.377v3.376v3.261v3.222v3.066v2.988
		v2.834v2.678v2.484v2.328v2.097v1.901v1.631v1.358v1.125v0.815v0.505c0.175,0.155,0.311,0.155,0.311,0.155c0.175,0,0.369,0,0.369,0
		h0.213h0.253h0.291h0.291h0.33h0.35h0.349h0.369h0.388h0.408h0.407h0.407h0.408h0.427h0.407h0.407h0.428h0.388h0.407h0.389h0.368
		h0.35h0.35h0.33h0.291h0.291h0.252h0.214h0.213c0.155,0,0.292,0,0.292,0C178.875,643.909,178.875,551.688,178.875,551.688z"/>
</g>
<g id="LWPOLYLINE_1_">
	
		<path fill="none" stroke="#000000" stroke-width="0.7087" stroke-linecap="round" stroke-linejoin="round" stroke-miterlimit="10" d="
		M248.837,551.688c0,0.154,0,0.582,0,0.582v0.698v0.932v1.164v1.437v1.591v1.786v1.979v2.135v2.29v2.406v2.562v2.64v2.717v2.795
		v2.872v2.911v2.911v2.949v2.95v2.95v2.872v2.872v2.795v2.756v2.639v2.523v2.406v2.29v2.135v1.979v1.785v1.63v1.397v1.165v0.932
		v0.698v0.427c-0.077,0-0.252-0.427-0.252-0.427l-0.311-0.698l-0.427-0.932l-0.524-1.165l-0.621-1.397l-0.718-1.63l-0.796-1.785
		l-0.873-1.979l-0.951-2.135l-1.009-2.29l-1.067-2.406l-1.146-2.523l-1.164-2.639l-1.203-2.756l-1.262-2.795l-1.261-2.872
		l-1.301-2.872l-1.3-2.95l-1.301-2.95l-1.319-2.949l-1.301-2.911l-1.3-2.911l-1.262-2.872l-1.242-2.795l-1.223-2.717l-1.164-2.64
		l-1.126-2.562l-1.087-2.406l-1.009-2.29l-0.951-2.135l-0.873-1.979l-0.796-1.786l-0.718-1.591l-0.621-1.437l-0.524-1.164
		l-0.427-0.932l-0.291-0.698l-0.194-0.428c-0.174-0.154-0.329-0.154-0.329-0.154c-0.175,0-0.428,0-0.428,0h-0.271h-0.33h-0.368
		h-0.389h-0.427h-0.466h-0.485h-0.523h-0.524h-0.562h-0.562h-0.583h-0.582h-0.582h-0.602h-0.602h-0.582h-0.582h-0.583h-0.562h-0.562
		h-0.524h-0.523h-0.485h-0.466h-0.427h-0.389h-0.368h-0.33h-0.271h-0.253c-0.193,0-0.33,0-0.33,0
		c-0.116,0.193-0.116,0.698-0.116,0.698v0.776v1.125v1.359v1.669v1.862v2.097v2.328v2.523v2.639v2.834v2.988v3.105v3.183v3.299
		v3.338v3.416v3.416v3.454v3.454v3.455v3.377v3.376v3.261v3.222v3.066v2.988v2.834v2.678v2.484v2.328v2.097v1.901v1.631v1.358v1.125
		v0.815v0.505c0.175,0.155,0.291,0.155,0.291,0.155c0.155,0,0.35,0,0.35,0h0.214h0.232h0.252h0.292h0.291h0.311h0.349h0.33h0.369
		h0.368h0.369h0.388h0.389h0.388h0.389h0.368h0.389h0.368h0.369h0.368h0.35h0.33h0.311h0.311h0.271h0.252h0.253h0.213
		c0.175,0,0.33,0,0.33,0c0.116,0,0.214,0,0.214,0c0.077-0.155,0.077-0.583,0.077-0.583v-0.698v-0.932v-1.203v-1.397v-1.63v-1.824
		v-1.979v-2.174v-2.29v-2.445v-2.562v-2.679v-2.755v-2.834v-2.872v-2.95v-2.949v-2.989v-2.988v-2.95v-2.949v-2.873v-2.833v-2.756
		v-2.678v-2.562v-2.445v-2.289v-2.174v-1.979v-1.824v-1.631v-1.396v-1.204v-0.931V565v-0.427c0.059,0,0.253,0.427,0.253,0.427
		l0.311,0.699l0.427,0.931l0.543,1.204l0.641,1.396l0.718,1.631l0.835,1.824l0.893,1.979l0.971,2.174l1.028,2.289l1.106,2.445
		l1.145,2.562l1.203,2.678l1.242,2.756l1.281,2.833l1.3,2.873l1.32,2.949l1.319,2.95l1.339,2.988l1.339,2.989l1.34,2.949l1.319,2.95
		l1.3,2.872l1.281,2.834l1.242,2.755l1.203,2.679l1.145,2.562l1.106,2.445l1.028,2.29l0.971,2.174l0.893,1.979l0.815,1.824
		l0.737,1.63l0.641,1.397l0.523,1.203l0.446,0.932l0.311,0.698l0.194,0.428c0.175,0.155,0.311,0.155,0.311,0.155
		c0.175,0,0.389,0,0.389,0h0.271h0.311h0.349h0.389h0.407h0.427h0.466h0.485h0.505h0.523h0.544h0.543h0.563h0.562h0.562h0.563h0.562
		h0.562h0.544h0.543h0.524h0.504h0.485h0.466h0.446h0.407h0.369h0.35h0.311h0.271h0.232c0.175,0,0.311,0,0.311,0
		c0.098-0.155,0.098-0.66,0.098-0.66v-0.815v-1.125v-1.358v-1.631v-1.901v-2.097v-2.328v-2.484v-2.678v-2.834v-2.988v-3.066v-3.222
		v-3.261v-3.376v-3.377v-3.455v-3.454v-3.454v-3.416v-3.416v-3.338v-3.299v-3.183v-3.105v-2.988v-2.834v-2.639v-2.523v-2.328v-2.097
		v-1.862v-1.669v-1.359v-1.125v-0.776v-0.505C259.162,551.688,248.837,551.688,248.837,551.688z"/>
</g>
<g id="LWPOLYLINE_2_">
	
		<path fill="none" stroke="#000000" stroke-width="0.7087" stroke-linecap="round" stroke-linejoin="round" stroke-miterlimit="10" d="
		M290.174,562.051c0.116,0,0.253,0,0.253,0c0.193,0,0.427,0,0.427,0h0.271h0.33h0.368h0.389h0.446h0.446h0.505h0.504h0.544h0.543
		h0.563h0.582h0.582h0.602h0.582h0.602h0.602h0.582h0.583h0.562h0.543h0.544h0.505h0.484h0.466h0.427h0.408h0.349h0.33h0.291h0.233
		c0.194,0,0.33,0,0.33,0c0.116,0,0.311,0,0.311,0h0.232h0.233l0.271,0.038l0.311,0.039l0.311,0.039l0.311,0.077l0.388,0.078
		l0.35,0.077l0.388,0.078l0.389,0.116l0.427,0.155l0.427,0.155l0.427,0.155l0.428,0.194l0.427,0.193l0.427,0.233l0.427,0.271
		l0.466,0.271l0.427,0.311l0.428,0.311l0.427,0.35l0.427,0.388l0.388,0.389l0.389,0.466l0.388,0.466l0.35,0.466l0.35,0.543
		l0.349,0.582l0.311,0.582l0.311,0.621l0.233,0.699l0.271,0.698l0.194,0.737l0.194,0.776l0.154,0.815l0.117,0.854l0.116,0.932
		l0.039,0.932l0.038,1.009l-0.038,1.049l-0.039,1.009l-0.116,0.932l-0.155,0.932l-0.155,0.854l-0.194,0.815l-0.232,0.814
		l-0.272,0.738l-0.311,0.698l-0.311,0.66l-0.349,0.621l-0.389,0.621l-0.388,0.543l-0.389,0.543l-0.466,0.466l-0.427,0.466
		l-0.466,0.428l-0.504,0.388l-0.466,0.388l-0.505,0.35l-0.505,0.311l-0.543,0.271l-0.505,0.272l-0.543,0.232l-0.505,0.232
		l-0.543,0.194l-0.544,0.155l-0.505,0.155l-0.543,0.155l-0.505,0.116l-0.504,0.117l-0.505,0.077l-0.505,0.078l-0.466,0.077
		l-0.466,0.039l-0.446,0.039h-0.446l-0.407,0.038h-0.389h-0.368c-0.098,0-0.194,0-0.194,0c-0.155,0-0.35,0-0.35,0h-0.232h-0.252
		h-0.291h-0.33h-0.33h-0.369h-0.407h-0.407h-0.428h-0.427h-0.466h-0.446h-0.485h-0.466h-0.484h-0.466h-0.485h-0.466h-0.466h-0.446
		h-0.446h-0.427h-0.408h-0.388h-0.369h-0.349h-0.311h-0.292h-0.271h-0.213c-0.194,0-0.35,0-0.35,0c-0.175,0-0.194,0-0.194,0V562.051
		z"/>
</g>
<g id="LWPOLYLINE_3_">
	
		<path fill="none" stroke="#000000" stroke-width="0.7087" stroke-linecap="round" stroke-linejoin="round" stroke-miterlimit="10" d="
		M290.174,643.909c0-0.078,0-0.311,0-0.311v-0.35v-0.466v-0.621v-0.698v-0.854v-0.932v-1.009v-1.087v-1.203v-1.242v-1.281v-1.358
		v-1.396v-1.476v-1.475v-1.475v-1.514v-1.515v-1.514v-1.514v-1.514v-1.475v-1.437v-1.397v-1.358v-1.319v-1.242v-1.164v-1.126v-1.009
		v-0.932v-0.815v-0.737v-0.582v-0.505v-0.349v-0.233c0.098-0.039,0.233-0.039,0.233-0.039c0.175,0,0.407,0,0.407,0h0.271h0.311h0.35
		h0.369h0.407h0.446h0.466h0.485h0.504h0.524h0.543h0.544h0.562h0.562h0.563h0.562h0.562h0.563h0.543h0.544h0.523h0.505h0.485h0.466
		h0.427h0.407h0.388h0.35h0.311h0.271h0.214c0.175,0,0.311,0,0.311,0c0.116,0,0.834-0.038,0.834-0.038h0.776l0.738-0.078
		l0.814-0.039l0.776-0.116l0.815-0.116l0.814-0.116l0.854-0.194l0.854-0.155l0.854-0.233l0.814-0.232l0.854-0.271l0.854-0.311
		l0.854-0.35l0.854-0.35l0.815-0.427l0.854-0.427l0.815-0.466l0.775-0.505l0.776-0.543l0.776-0.621l0.737-0.621l0.738-0.66
		l0.698-0.698l0.66-0.737l0.659-0.815l0.621-0.854l0.582-0.854l0.544-0.97l0.505-0.971l0.466-1.009l0.427-1.087l0.388-1.126
		l0.35-1.203l0.311-1.242l0.232-1.28l0.194-1.358l0.155-1.397l0.078-1.476l0.038-1.514l-0.038-1.552l-0.078-1.553l-0.116-1.437
		l-0.155-1.397l-0.233-1.358l-0.232-1.28l-0.311-1.203l-0.35-1.165l-0.388-1.125l-0.389-1.087l-0.466-1.01l-0.504-0.97l-0.505-0.893
		l-0.543-0.894l-0.621-0.814l-0.583-0.776l-0.659-0.699l-0.66-0.698l-0.698-0.66l-0.737-0.582l-0.738-0.582l-0.737-0.505
		l-0.814-0.504l-0.776-0.428l-0.815-0.427l-0.854-0.35l-0.815-0.349l-0.893-0.311l-0.854-0.271l-0.893-0.272l-0.854-0.232
		l-0.893-0.155l-0.932-0.194l-0.893-0.116l-0.893-0.116l-0.932-0.117l-0.894-0.038l-0.893-0.078h-0.893l-0.912-0.038
		c-0.194,0-0.427,0-0.427,0h-0.311h-0.388h-0.466h-0.544h-0.602h-0.66h-0.698h-0.776h-0.796h-0.854h-0.873h-0.912h-0.932h-0.951
		h-0.971h-0.97h-0.99h-0.989h-0.971h-0.971h-0.95h-0.932h-0.912h-0.873h-0.854h-0.796h-0.776h-0.698h-0.66h-0.602h-0.543h-0.466
		h-0.389h-0.31h-0.233c-0.194,0.193-0.194,0.698-0.194,0.698v0.776v1.125v1.359v1.669v1.862v2.097v2.328v2.523v2.639v2.834v2.988
		v3.105v3.183v3.299v3.338v3.416v3.416v3.454v3.454v3.455v3.377v3.376v3.261v3.222v3.066v2.988v2.834v2.678v2.484v2.328v2.097v1.901
		v1.631v1.358v1.125v0.815v0.505C279.034,643.909,290.174,643.909,290.174,643.909z"/>
</g>
<g id="LWPOLYLINE_4_">
	
		<path fill="none" stroke="#000000" stroke-width="0.7087" stroke-linecap="round" stroke-linejoin="round" stroke-miterlimit="10" d="
		M345.813,609.714v1.901l0.078,1.824l0.077,1.747l0.116,1.708l0.155,1.669l0.233,1.591l0.232,1.553l0.233,1.514l0.311,1.437
		l0.35,1.397l0.388,1.319l0.388,1.281l0.466,1.241l0.466,1.204l0.544,1.125l0.543,1.087l0.582,1.048l0.621,0.971l0.66,0.932
		l0.698,0.893l0.738,0.854l0.775,0.776l0.815,0.737l0.815,0.699l0.893,0.659l0.893,0.621l0.971,0.544l0.97,0.543l1.01,0.466
		l1.087,0.427l1.086,0.389l1.126,0.349l1.164,0.311l1.204,0.272l1.203,0.193l1.28,0.194l1.32,0.116l1.319,0.117l1.397,0.038
		l1.397,0.039l1.436-0.039l1.358-0.038l1.358-0.117l1.281-0.116l1.281-0.194l1.241-0.193l1.203-0.272l1.165-0.311l1.125-0.349
		l1.087-0.389l1.048-0.427l1.01-0.466l1.009-0.543l0.932-0.544l0.893-0.621l0.893-0.659l0.854-0.699l0.776-0.737l0.776-0.776
		l0.737-0.854l0.698-0.893l0.66-0.932l0.621-0.971l0.621-1.048l0.543-1.087l0.505-1.125l0.505-1.204l0.427-1.241l0.427-1.281
		l0.35-1.319l0.349-1.397l0.311-1.437l0.272-1.514l0.232-1.553l0.194-1.591l0.155-1.669l0.116-1.708l0.116-1.747l0.039-1.824v-1.901
		c0-0.078,0-0.389,0-0.389v-0.543v-0.66v-0.893v-1.009v-1.203v-1.32v-1.475v-1.553v-1.708v-1.785v-1.863v-1.94v-2.019v-2.057v-2.096
		v-2.135v-2.174v-2.174v-2.174v-2.173v-2.135v-2.097v-2.096v-1.979v-1.979v-1.863v-1.785v-1.669v-1.592v-1.436v-1.32v-1.203v-1.009
		v-0.893v-0.699v-0.504v-0.311c-0.155-0.116-0.311-0.116-0.311-0.116c-0.194,0-0.388,0-0.388,0h-0.233h-0.271h-0.311h-0.311h-0.35
		h-0.388h-0.389h-0.388h-0.427h-0.428h-0.427h-0.427h-0.466h-0.427h-0.466h-0.427h-0.427h-0.466h-0.428h-0.388h-0.389h-0.388h-0.388
		h-0.35h-0.311h-0.311h-0.271h-0.233h-0.232c-0.155,0-0.311,0-0.311,0c-0.194,0.116-0.194,0.427-0.194,0.427v0.543v0.699v0.854
		v1.048v1.203v1.358v1.476v1.591v1.708v1.824v1.863v1.979v2.057v2.097v2.135v2.173v2.174v2.213v2.212v2.174v2.173v2.135v2.097v2.057
		v1.979v1.863v1.824v1.708v1.591v1.476v1.358v1.203v1.048v0.854v0.738v0.504v0.311c0,0.117,0,1.592,0,1.592l-0.039,1.397
		l-0.038,1.358l-0.078,1.319l-0.077,1.242l-0.117,1.203l-0.155,1.164l-0.155,1.126l-0.155,1.048l-0.232,1.01l-0.194,0.97
		l-0.232,0.932l-0.271,0.893l-0.272,0.854l-0.311,0.776l-0.349,0.775l-0.311,0.699l-0.389,0.698l-0.388,0.621l-0.389,0.621
		l-0.427,0.544l-0.466,0.543l-0.466,0.466l-0.504,0.466l-0.505,0.427l-0.505,0.389l-0.582,0.349l-0.543,0.311l-0.621,0.311
		l-0.621,0.271l-0.621,0.233l-0.66,0.194l-0.66,0.193l-0.698,0.155l-0.737,0.117l-0.737,0.116l-0.776,0.077l-0.776,0.039
		l-0.815,0.039h-0.814h-0.815l-0.815-0.039l-0.776-0.039l-0.737-0.077l-0.776-0.116l-0.698-0.117l-0.699-0.155l-0.698-0.193
		l-0.66-0.194l-0.621-0.233l-0.62-0.271l-0.583-0.311l-0.582-0.311l-0.543-0.349l-0.544-0.389l-0.504-0.427l-0.505-0.466
		l-0.466-0.466l-0.427-0.543l-0.427-0.544l-0.428-0.621l-0.388-0.621l-0.35-0.698l-0.35-0.699l-0.31-0.775l-0.311-0.776
		l-0.272-0.854l-0.271-0.893l-0.232-0.932l-0.233-0.97l-0.194-1.01l-0.193-1.048l-0.155-1.126l-0.116-1.164l-0.117-1.203
		l-0.116-1.242l-0.039-1.319l-0.077-1.358l-0.039-1.397v-1.475c0-0.117,0-0.428,0-0.428v-0.504v-0.738v-0.854v-1.048v-1.203v-1.358
		v-1.476v-1.591v-1.708v-1.824v-1.863v-1.979v-2.057v-2.097v-2.135v-2.173v-2.174v-2.212v-2.213v-2.174v-2.173v-2.135v-2.097v-2.057
		v-1.979v-1.863v-1.824v-1.708v-1.591v-1.476v-1.358v-1.203v-1.048v-0.854v-0.699v-0.543v-0.311
		c-0.194-0.116-0.311-0.116-0.311-0.116c-0.194,0-0.427,0-0.427,0h-0.233h-0.271h-0.271h-0.35h-0.349h-0.35h-0.389h-0.388h-0.427
		h-0.427h-0.428h-0.427h-0.466h-0.427h-0.466h-0.427h-0.466h-0.427h-0.427h-0.428h-0.388h-0.389h-0.349h-0.35h-0.311h-0.311h-0.271
		h-0.233h-0.232c-0.155,0-0.311,0-0.311,0C345.813,551.688,345.813,609.714,345.813,609.714z"/>
</g>
<g id="LWPOLYLINE_5_">
	
		<path fill="none" stroke="#000000" stroke-width="0.7087" stroke-linecap="round" stroke-linejoin="round" stroke-miterlimit="10" d="
		M413.389,551.688c0,0.193,0,0.31,0,0.31c0,0.155,0,0.311,0,0.311v0.233v0.232v0.272v0.271v0.311v0.311v0.311v0.349v0.389v0.35
		v0.388v0.388v0.35v0.389v0.388v0.389v0.388v0.388v0.35v0.389v0.311v0.349v0.311v0.311v0.271v0.272v0.232v0.194
		c0,0.194,0,0.35,0,0.35c0,0.116,0,0.232,0,0.232c0.155,0.078,0.388,0.078,0.388,0.078h0.272h0.349h0.428h0.504h0.544h0.582h0.66
		h0.698h0.698h0.776h0.815h0.815h0.854h0.854h0.893h0.894h0.893h0.893h0.893h0.893h0.854h0.854h0.815h0.814h0.737h0.738h0.698h0.66
		h0.582h0.543h0.505h0.427h0.35h0.271h0.233c0.155,0.116,0.155,0.582,0.155,0.582v0.698v1.01v1.203v1.475v1.669v1.863v2.057v2.213
		v2.367v2.523v2.639v2.756v2.834v2.911v2.988v3.027v3.027v3.066v3.066v3.066v3.027v2.95v2.949v2.834v2.717v2.64v2.522v2.368v2.251
		v2.057v1.863v1.669v1.437v1.242v0.97v0.737v0.428c0.193,0.155,0.349,0.155,0.349,0.155c0.155,0,0.389,0,0.389,0h0.232h0.271h0.311
		h0.311h0.35h0.389h0.349h0.427h0.389h0.427h0.427h0.466h0.427h0.466h0.428h0.466h0.427h0.427h0.427h0.427h0.389h0.388h0.35h0.35
		h0.349h0.272h0.271h0.271h0.194c0.193,0,0.311,0,0.311,0c0.193-0.155,0.193-0.583,0.193-0.583v-0.737v-0.97v-1.242v-1.437v-1.669
		v-1.863v-2.057v-2.251v-2.368v-2.522v-2.64v-2.717v-2.834v-2.949v-2.95v-3.027v-3.066v-3.066v-3.066v-3.027v-3.027v-2.988v-2.911
		v-2.834v-2.756v-2.639v-2.523v-2.367v-2.213v-2.057v-1.863v-1.669v-1.475v-1.203v-1.01v-0.698v-0.466
		c0.194-0.116,0.389-0.116,0.389-0.116h0.271h0.35h0.388h0.505h0.505h0.582h0.621h0.659h0.738h0.737h0.776h0.776h0.814h0.854h0.854
		h0.854h0.854h0.893h0.854h0.854h0.814h0.815h0.815h0.776h0.737h0.698h0.66h0.66h0.543h0.543h0.466h0.428h0.349h0.271h0.194
		c0.155-0.194,0.155-0.311,0.155-0.311c0-0.155,0-0.35,0-0.35v-0.194v-0.232v-0.272v-0.271v-0.311v-0.311v-0.349v-0.311v-0.389
		v-0.35v-0.388v-0.388v-0.389v-0.388v-0.389v-0.35v-0.388v-0.388v-0.35v-0.389v-0.349v-0.311v-0.311v-0.311v-0.271v-0.272v-0.232
		v-0.233c0-0.155,0-0.311,0-0.311c0-0.116,0-0.232,0-0.232C472.191,551.688,413.389,551.688,413.389,551.688z"/>
</g>
<g id="LWPOLYLINE_6_">
	
		<polygon fill="none" stroke="#000000" stroke-width="0.7087" stroke-linecap="round" stroke-linejoin="round" stroke-miterlimit="10" points="
		407.45,236.558 499.09,328.178 316.393,510.854 224.772,419.254 241.638,402.37 316.393,477.126 465.36,328.178 316.393,179.229 
		242.2,253.422 225.336,236.558 316.393,145.5 	"/>
</g>
<g id="LWPOLYLINE_7_">
	
		<polygon fill="none" stroke="#000000" stroke-width="0.7087" stroke-linecap="round" stroke-linejoin="round" stroke-miterlimit="10" points="
		112.911,317.193 259.957,317.193 259.957,278.243 385.56,328.333 259.957,377.606 259.957,339.453 112.911,339.453 	"/>
</g>
</svg>
