<?xml version="1.0" encoding="utf-8"?>
<!-- Generator: Adobe Illustrator 16.0.1, SVG Export Plug-In . SVG Version: 6.00 Build 0)  -->
<!DOCTYPE svg PUBLIC "-//W3C//DTD SVG 1.0//EN" "http://www.w3.org/TR/2001/REC-SVG-20010904/DTD/svg10.dtd">
<svg version="1.0" id="_x31_" xmlns="http://www.w3.org/2000/svg" xmlns:xlink="http://www.w3.org/1999/xlink" x="0px" y="0px"
	 width="612px" height="792px" viewBox="0 0 612 792" enable-background="new 0 0 612 792" xml:space="preserve">
<g id="LWPOLYLINE">
	
		<path fill="none" stroke="#000000" stroke-width="0.7087" stroke-linecap="round" stroke-linejoin="round" stroke-miterlimit="10" d="
		M31.516,195.5l0.19,0.766l0.625,2.153l1.003,3.497l1.34,4.785l1.725,5.984l2.009,7.134l2.297,8.137l2.634,9.144l2.825,10.05
		l3.109,10.869l3.303,11.584l3.494,12.303l3.641,12.875l3.828,13.403l3.925,13.884l4.069,14.215l4.119,14.553l4.213,14.744
		l4.212,14.935l4.259,14.984l4.259,14.984l4.263,14.935l4.212,14.743l4.116,14.504l4.069,14.266l3.925,13.884l3.831,13.403
		l3.638,12.925l3.494,12.253l3.303,11.585l3.112,10.915l2.825,9.957l2.584,9.19l2.344,8.138l2.012,7.084l1.722,6.031l1.34,4.787
		l1.006,3.544l0.622,2.106l0.19,0.766c0.431,0,1.006,0,1.006,0h0.719h0.909h1.053h1.244h1.388h1.531h1.678h1.769h1.869h1.913h2.06
		h2.106h2.153h2.203h2.25h2.297h2.25h2.3h2.25h2.25h2.2h2.153h2.106h2.06h1.962h1.869h1.769h1.628h1.531h1.391h1.244h1.053h0.956
		h0.719h0.528c0.428,0,0.622-0.672,0.622-0.672l0.525-1.818l0.862-2.966l1.244-4.119l1.484-5.071l1.772-6.129l2.06-6.894l2.25-7.85
		l2.534-8.522l2.681-9.287l2.922-9.859l3.062-10.531l3.256-11.013l3.35-11.391l3.447-11.872l3.541-12.062l3.641-12.446l3.685-12.544
		l3.734-12.781l3.781-12.781l3.734-12.781l3.734-12.685l3.685-12.59l3.637-12.397l3.544-12.159l3.447-11.825l3.4-11.44l3.207-11.01
		l3.062-10.484l2.922-9.909l2.681-9.237l2.534-8.569l2.25-7.803l2.06-6.94l1.772-6.078l1.531-5.125l1.15-4.069l0.909-2.966
		l0.525-1.869l0.19-0.622l0.194,0.622l0.478,1.869l0.863,2.966l1.146,4.069l1.341,5.125l1.725,6.078l1.913,6.94l2.105,7.803
		l2.395,8.569l2.587,9.237l2.679,9.909l2.871,10.484l3.066,11.01l3.159,11.44l3.253,11.825l3.354,12.159l3.446,12.397l3.447,12.59
		l3.54,12.685l3.544,12.781l3.447,12.781l3.54,12.781l3.447,12.544l3.447,12.446l3.35,12.062l3.256,11.872l3.16,11.391l3.062,11.013
		l2.871,10.531l2.682,9.859l2.584,9.287l2.395,8.522l2.105,7.85l1.916,6.894l1.725,6.129l1.435,5.071l1.054,4.119l0.862,2.966
		l0.478,1.818l0.191,0.672c0.478,0,0.959,0,0.959,0h0.766h0.859h1.15h1.243h1.341h1.534h1.625h1.819h1.821h2.01h2.009h2.106h2.203
		h2.203h2.2h2.297h2.203h2.297h2.3h2.2h2.203h2.203h2.106h2.009h2.01h1.818h1.822h1.625h1.534h1.338h1.247h1.146h0.862h0.766h0.479
		c0.481,0,0.672-0.766,0.672-0.766l0.669-2.106l1.053-3.544l1.438-4.787l1.818-6.031l2.106-7.084l2.394-8.138l2.775-9.19
		l2.969-9.957l3.256-10.915l3.447-11.585l3.731-12.253l3.831-12.925l4.021-13.403l4.116-13.884l4.31-14.266l4.306-14.504
		l4.406-14.743l4.5-14.935l4.5-14.984l4.403-14.984l4.5-14.935l4.403-14.744l4.31-14.553l4.306-14.215l4.119-13.884l4.019-13.403
		l3.831-12.875l3.734-12.303l3.447-11.584l3.253-10.869l2.969-10.05l2.775-9.144l2.394-8.137l2.203-7.134l1.725-5.984l1.435-4.785
		l1.053-3.497l0.672-2.153l0.191-0.766c-0.385,0-0.863,0-0.863,0h-0.668h-0.766h-1.054h-1.053h-1.247h-1.435h-1.438h-1.628h-1.722
		h-1.726h-1.818h-1.912h-2.013h-2.01h-2.013h-2.009h-2.106H551h-2.012h-2.106h-1.913h-2.012h-1.916h-1.818H537.5h-1.725h-1.625
		h-1.438h-1.435h-1.247h-1.053h-1.053h-0.766h-0.669c-0.479,0-0.766,0-0.766,0c-0.097,0-0.288,0.622-0.288,0.622l-0.478,1.771
		l-0.769,2.919l-1.147,3.975l-1.341,4.978l-1.531,5.888l-1.915,6.75l-2.01,7.562l-2.3,8.331l-2.394,8.997l-2.679,9.622l-2.777,10.15
		l-2.872,10.675l-3.062,11.106l-3.065,11.488l-3.254,11.825l-3.256,12.016l-3.35,12.253l-3.354,12.35l-3.35,12.4l-3.447,12.444
		l-3.35,12.353l-3.257,12.207l-3.35,12.062l-3.159,11.774l-3.16,11.491l-2.969,11.105l-2.969,10.723l-2.774,10.146l-2.585,9.575
		l-2.49,9l-2.2,8.328l-2.106,7.565l-1.818,6.797l-1.628,5.841l-1.341,4.978l-1.053,4.02l-0.863,2.875l-0.478,1.818l-0.097,0.572
		l-0.191-0.572l-0.478-1.818l-0.862-2.875l-1.054-4.02l-1.438-4.978l-1.625-5.841l-1.818-6.797l-2.106-7.565l-2.394-8.328l-2.491-9
		l-2.681-9.575l-2.775-10.146l-2.969-10.723L409.4,433.51l-3.159-11.491l-3.257-11.774l-3.35-12.062l-3.447-12.207l-3.446-12.353
		l-3.447-12.444l-3.446-12.4l-3.444-12.35l-3.353-12.253l-3.351-12.016l-3.256-11.825l-3.253-11.488l-3.066-11.106l-2.965-10.675
		l-2.875-10.15l-2.585-9.622l-2.584-8.997l-2.297-8.331l-2.106-7.562l-1.818-6.75l-1.726-5.888l-1.341-4.978l-1.053-3.975
		l-0.859-2.919l-0.481-1.771l-0.19-0.622c-0.097,0-0.479,0-0.479,0h-0.574h-0.863h-1.053h-1.146h-1.438h-1.531h-1.723h-1.915h-2.013
		h-2.106h-2.2h-2.297h-2.394h-2.394h-2.49h-2.585h-2.49h-2.585h-2.584H303.8h-2.538h-2.49h-2.441h-2.344h-2.347h-2.203h-2.106
		h-1.962h-1.866h-1.725H280.2h-1.387h-1.247h-1.003h-0.816h-0.622c-0.381,0-0.478,0-0.478,0l-0.191,0.622l-0.528,1.771l-0.863,2.872
		l-1.147,3.925l-1.438,4.885l-1.675,5.837l-1.962,6.656l-2.203,7.516l-2.391,8.184l-2.634,8.903l-2.775,9.478l-2.969,10.1
		l-3.112,10.531l-3.206,10.962l-3.303,11.347l-3.447,11.678l-3.494,11.872l-3.543,12.112l-3.591,12.207l-3.59,12.256l-3.591,12.3
		l-3.587,12.209l-3.544,12.062l-3.494,11.918l-3.4,11.632l-3.35,11.347l-3.206,10.962l-3.113,10.531l-2.922,10.147l-2.822,9.478
		l-2.584,8.906l-2.444,8.231l-2.2,7.469l-1.916,6.606l-1.725,5.841l-1.435,4.881l-1.15,3.925l-0.859,2.872l-0.528,1.822
		l-0.144,0.571l-0.19-0.571l-0.479-1.822l-0.766-2.872l-1.053-3.925l-1.341-4.881l-1.534-5.841l-1.819-6.606l-2.009-7.469
		l-2.203-8.231l-2.394-8.906l-2.584-9.478l-2.681-10.147l-2.872-10.531l-2.966-10.962l-3.065-11.347l-3.113-11.632l-3.206-11.918
		l-3.256-12.062l-3.3-12.209l-3.303-12.3l-3.303-12.256l-3.303-12.207l-3.256-12.112l-3.206-11.872l-3.112-11.678l-3.062-11.347
		l-2.969-10.962l-2.872-10.531l-2.681-10.1l-2.584-9.478l-2.394-8.903l-2.203-8.184l-2.01-7.516l-1.818-6.656l-1.531-5.837
		l-1.341-4.885l-1.053-3.925l-0.766-2.872l-0.481-1.771L90.3,195.5H31.516z"/>
</g>
</svg>
