<?xml version="1.0" encoding="utf-8"?>
<!-- Generator: Adobe Illustrator 16.0.1, SVG Export Plug-In . SVG Version: 6.00 Build 0)  -->
<!DOCTYPE svg PUBLIC "-//W3C//DTD SVG 1.0//EN" "http://www.w3.org/TR/2001/REC-SVG-20010904/DTD/svg10.dtd">
<svg version="1.0" id="_x31_" xmlns="http://www.w3.org/2000/svg" xmlns:xlink="http://www.w3.org/1999/xlink" x="0px" y="0px"
	 width="612px" height="792px" viewBox="0 0 612 792" enable-background="new 0 0 612 792" xml:space="preserve">
<g id="LWPOLYLINE">
	
		<path fill="none" stroke="#000000" stroke-width="0.7087" stroke-linecap="round" stroke-linejoin="round" stroke-miterlimit="10" d="
		M160.578,595.5c0.432,0,0.91,0,0.91,0h0.67h0.812h0.959h1.148h1.244h1.34h1.533h1.578h1.676h1.771h1.867h1.867h1.963h2.01h2.01
		h2.059h2.059h2.059h2.059h2.01h2.012h1.914h1.916h1.865h1.771h1.676h1.58h1.484h1.389h1.244h1.148h0.957h0.814h0.67
		c0.479,0,0.766,0,0.766,0c0.096-0.285,0.096-1.34,0.096-1.34v-1.531v-2.203v-2.68v-3.254v-3.641v-4.113v-4.5v-4.883v-5.266v-5.555
		v-5.84v-6.031v-6.223v-6.414v-6.605v-6.609v-6.797v-6.699v-6.801v-6.699v-6.703v-6.508v-6.418v-6.223v-6.125v-5.746v-5.551v-5.266
		v-4.883v-4.5v-4.164v-3.688v-3.16v-2.727V418v-1.578v-0.957c0.145-0.336,0.527-0.336,0.527-0.336h0.621h0.863h1.053h1.244h1.436
		h1.629h1.77h1.916h2.059h2.154h2.25h2.393h2.441h2.488h2.586h2.584h2.635h2.68h2.633h2.633h2.633h2.49h2.584h2.395h2.393h2.297
		h2.107h2.105h1.916h1.723h1.627h1.438h1.244h1.053h0.861h0.67c0.383,0,0.479,0,0.479,0h4.883l4.691,0.094l4.596,0.145l4.309,0.238
		l4.213,0.289l4.021,0.383l3.828,0.43l3.639,0.527l3.543,0.574l3.35,0.672l3.256,0.766l3.064,0.859l2.871,0.91l2.777,1.055
		l2.584,1.102l2.49,1.242l2.393,1.293l2.299,1.438l2.105,1.531l2.01,1.629l1.916,1.77l1.723,1.82l1.723,2.008l1.533,2.059
		l1.531,2.25l1.34,2.301l1.246,2.488l1.244,2.586l1.148,2.68l1.053,2.871l0.957,3.062l0.863,3.066l0.861,3.254l0.766,3.445
		l0.67,3.543l0.67,3.734l0.574,3.828l0.574,4.023l0.48,4.211l0.479,4.309l0.287,2.203l0.287,2.395l0.287,2.297l0.287,2.488
		l0.383,2.488l0.287,2.586l0.383,2.586l0.383,2.586l0.287,2.773l0.383,2.684l0.383,2.773l0.383,2.777l0.383,2.871l0.385,2.777
		l0.383,2.871l0.479,2.875l0.383,2.965l0.383,2.875l0.479,2.871l0.383,2.969l0.479,2.871l0.479,2.871l0.479,2.875l0.383,2.871
		l0.479,2.871l0.48,2.875l0.574,2.773l0.479,2.777l0.479,2.68l0.479,2.684l0.574,2.68l0.479,2.586l0.574,2.582l0.479,2.492
		l0.574,2.488l0.576,2.395l0.574,2.297l0.574,2.203l0.574,2.199l0.574,2.105c0.479,0,0.957,0,0.957,0h0.766h0.863h1.053h1.244h1.436
		h1.533h1.627h1.723h1.916h1.914h2.105h2.107h2.105h2.203h2.297h2.299h2.201h2.297h2.299h2.201h2.203h2.201h2.107h2.01h2.01h1.82
		h1.818h1.627h1.533h1.34h1.244h1.053h0.959h0.766h0.479c0.479,0-0.67-3.348-0.67-3.348l-1.15-3.352l-1.053-3.258l-1.053-3.348
		l-0.957-3.16l-0.957-3.254l-0.959-3.16l-0.861-3.16l-0.861-3.16l-0.766-3.16l-0.766-3.062l-0.766-3.062l-0.766-3.16l-0.672-3.062
		l-0.67-3.066l-0.67-3.062l-0.67-2.969l-0.574-3.062l-0.574-3.062l-0.574-3.066l-0.479-3.062l-0.576-3.062l-0.479-3.066
		l-0.479-3.062l-0.479-3.062l-0.479-3.16l-0.479-3.062l-0.479-3.16l-0.383-3.16l-0.479-3.16l-0.383-3.254l-0.479-3.16l-0.383-3.254
		l-0.48-3.352l-0.383-3.254l-0.479-3.352l-0.383-3.445l-0.383-3.352l-0.479-3.543l-0.383-3.449l-0.479-3.637l-0.574-3.543
		l-0.479-3.352l-0.67-3.254l-0.576-3.16l-0.766-3.062l-0.67-2.969l-0.861-2.871l-0.861-2.777l-0.861-2.633l-0.959-2.586
		l-0.957-2.441l-1.053-2.391l-1.148-2.297l-1.148-2.203l-1.15-2.105l-1.34-2.059l-1.34-1.965l-1.34-1.867l-1.438-1.77l-1.531-1.723
		l-1.531-1.676l-1.629-1.582l-1.627-1.531l-1.818-1.434l-1.82-1.438l-1.818-1.293l-1.914-1.293l-2.012-1.242l-2.105-1.152
		l-2.107-1.098l-2.201-1.055l-2.201-1.055l-2.395-0.957l-2.393-0.91l-2.49-0.906l-2.488-0.863l-2.682-0.812l-2.68-0.766
		l-2.682-0.766l0.861-0.145l0.957-0.191l0.863-0.191l0.957-0.191l1.053-0.191l0.957-0.242l0.957-0.285l1.055-0.289l1.053-0.285
		l1.053-0.336l1.148-0.336l1.053-0.336l1.15-0.383l1.148-0.43l1.148-0.43l1.148-0.48l1.15-0.477l1.148-0.527l1.244-0.527
		l1.148-0.574l1.244-0.621l1.246-0.621l1.244-0.672l1.244-0.719l1.244-0.719l1.246-0.766l1.34-0.766l1.244-0.859l1.244-0.863
		l1.342-0.863l1.244-0.957l1.34-0.957l1.34-1.051l1.246-1.055l1.34-1.055l1.34-1.148l1.34-1.195l1.342-1.195l1.244-1.246l1.34-1.293
		l1.342-1.34l1.244-1.387l1.34-1.391l1.244-1.434l1.148-1.438l1.246-1.484l1.148-1.484l1.148-1.531l1.148-1.578l1.055-1.582
		l1.053-1.578l1.053-1.629l0.957-1.676l0.957-1.629l0.959-1.723l0.957-1.723l0.861-1.723l0.861-1.723l0.861-1.773l0.766-1.816
		l0.768-1.82l0.67-1.82l0.766-1.816l0.574-1.867l0.67-1.914l0.574-1.867l0.574-1.918l0.479-1.914l0.479-1.961l0.385-1.914
		l0.383-2.012l0.383-1.961l0.287-1.965l0.287-2.012l0.287-2.008l0.191-2.012l0.096-2.059l0.096-2.012l0.096-2.059V295.5v-2.344
		l-0.096-2.348l-0.096-2.344l-0.287-2.344l-0.191-2.348l-0.383-2.344l-0.383-2.348l-0.383-2.297l-0.479-2.297l-0.576-2.348
		l-0.574-2.25l-0.67-2.297l-0.766-2.297l-0.766-2.25l-0.861-2.203l-0.861-2.25l-0.959-2.203l-0.957-2.152l-1.053-2.156l-1.148-2.152
		l-1.148-2.152l-1.246-2.059l-1.244-2.109l-1.34-2.059l-1.438-2.008l-1.436-1.965l-1.436-1.961l-1.531-1.965l-1.629-1.914
		l-1.627-1.867l-1.723-1.816l-1.82-1.82l-1.818-1.773l-1.818-1.723l-1.916-1.723l-2.01-1.625l-2.012-1.629l-2.105-1.582
		l-2.105-1.531l-2.203-1.484l-2.201-1.289l-2.299-1.246l-2.297-1.148l-2.395-1.102l-2.393-1.055l-2.395-1.004l-2.488-0.91
		l-2.49-0.859l-2.584-0.816l-2.488-0.766l-2.586-0.719l-2.586-0.715l-2.584-0.625l-2.586-0.574l-2.584-0.527l-2.682-0.477
		l-2.584-0.48l-2.586-0.43l-2.584-0.383l-2.586-0.336l-2.584-0.285l-2.49-0.289l-2.584-0.285l-2.49-0.191l-2.488-0.191l-2.393-0.195
		l-2.395-0.141l-2.393-0.145l-2.299-0.098l-2.297-0.094l-2.299-0.098l-2.105-0.047l-2.203-0.047l-2.01-0.047h-2.01l-2.012-0.051
		h-1.818h-1.818h-1.725h-1.723c-0.191,0-1.053,0-1.053,0h-1.246h-1.723h-2.105h-2.586h-2.871h-3.256h-3.639h-3.83h-4.211h-4.404
		h-4.596h-4.787h-4.979h-5.074h-5.217h-5.268h-5.312h-5.361h-5.361h-5.361h-5.266h-5.219h-5.074h-4.979h-4.787h-4.643h-4.404h-4.117
		h-3.924h-3.592h-3.254h-2.92h-2.537H164.6h-1.725h-1.244h-0.766C160.578,195.5,160.578,595.5,160.578,595.5z"/>
</g>
<g id="LWPOLYLINE_1_">
	
		<path fill="none" stroke="#000000" stroke-width="0.7087" stroke-linecap="round" stroke-linejoin="round" stroke-miterlimit="10" d="
		M215.484,240.594c0.191,0,0.623,0,0.623,0h0.766h1.053h1.293h1.531h1.771h1.963h2.154h2.346h2.488h2.682h2.775h2.873h3.016h3.064
		h3.111h3.207h3.207h3.207h3.256h3.254h3.16h3.16h3.062h2.969h2.871h2.777h2.68h2.49h2.297h2.203h2.01h1.723h1.533h1.34h0.957h0.766
		c0.479,0,0.67,0,0.67,0h1.82h1.914l2.107,0.051l2.105,0.047l2.201,0.047l2.395,0.098l2.393,0.094l2.395,0.191l2.584,0.238
		l2.586,0.242l2.584,0.332l2.682,0.434l2.584,0.477l2.682,0.527l2.68,0.621l2.777,0.766l2.584,0.816l2.682,0.91l2.682,1.051
		l2.584,1.148l2.49,1.293l2.584,1.391l2.393,1.531l2.395,1.676l2.297,1.816l2.203,1.965l2.105,2.152l2.012,2.297l1.818,2.441
		l1.818,2.633l1.629,2.828l1.531,3.016l1.34,3.207l1.244,3.398l0.959,3.637l0.957,3.828l0.67,4.023l0.479,4.258l0.287,4.5
		l0.096,4.742v3.445l-0.191,3.352l-0.287,3.254l-0.383,3.113l-0.479,3.016l-0.67,2.918l-0.67,2.824l-0.863,2.684l-0.861,2.582
		l-1.053,2.441l-1.053,2.395l-1.244,2.25l-1.246,2.203l-1.436,2.059l-1.436,2.008l-1.531,1.867l-1.629,1.773l-1.627,1.723
		l-1.818,1.578l-1.82,1.531l-1.914,1.438l-2.012,1.34l-2.01,1.246l-2.105,1.148l-2.203,1.102l-2.201,1.004l-2.299,0.957
		l-2.297,0.816l-2.395,0.766l-2.393,0.715l-2.49,0.625l-2.488,0.574l-2.586,0.477l-2.584,0.383l-2.682,0.383l-2.68,0.242
		l-2.682,0.238l-2.68,0.145l-2.777,0.094l-2.775,0.047c-0.191,0-0.766,0-0.766,0h-0.863h-1.148h-1.436h-1.818h-1.916h-2.297h-2.395
		h-2.68h-2.873h-3.062h-3.064H285.9h-3.35h-3.543h-3.543h-3.637h-3.639h-3.639h-3.734h-3.637h-3.59h-3.592h-3.494h-3.398h-3.256
		h-3.158h-3.016h-2.873h-2.633h-2.488h-2.203h-2.01h-1.771h-1.436h-1.197h-0.861h-0.527
		C215.484,368.07,215.484,240.594,215.484,240.594z"/>
</g>
</svg>
