<?xml version="1.0" encoding="utf-8"?>
<!-- Generator: Adobe Illustrator 16.0.1, SVG Export Plug-In . SVG Version: 6.00 Build 0)  -->
<!DOCTYPE svg PUBLIC "-//W3C//DTD SVG 1.0//EN" "http://www.w3.org/TR/2001/REC-SVG-20010904/DTD/svg10.dtd">
<svg version="1.0" id="_x31_" xmlns="http://www.w3.org/2000/svg" xmlns:xlink="http://www.w3.org/1999/xlink" x="0px" y="0px"
	 width="612px" height="792px" viewBox="0 0 612 792" enable-background="new 0 0 612 792" xml:space="preserve">
<g id="LWPOLYLINE">
	
		<path fill="none" stroke="#000000" stroke-width="0.7087" stroke-linecap="round" stroke-linejoin="round" stroke-miterlimit="10" d="
		M334.434,595.5v-0.668v-1.914v-3.066v-4.211v-5.266v-6.32v-7.18v-8.043v-8.902v-9.574v-10.242v-10.82v-11.395v-11.871v-12.156
		V471.23v-12.828v-13.02v-13.117v-13.211v-13.262v-13.164v-13.02v-12.828v-12.543v-12.254V330.16v-11.348v-10.863v-10.246v-9.574
		v-8.855v-8.09v-7.18v-6.273v-5.266v-4.258v-3.062v-1.918v-0.668c0.287,0,0.959,0,0.959,0h1.244h1.627h2.012h2.393h2.777h3.062
		h3.352h3.734h3.924h4.117h4.404h4.5h4.691h4.787h4.979h4.979h5.074h5.074h4.979h5.074h4.979h4.979h4.785h4.691h4.5h4.404h4.117
		h3.926h3.732h3.352h3.064h2.775h2.395h2.01h1.627h1.246h0.67c0.287-0.336,0.287-0.766,0.287-0.766v-0.527v-0.719v-0.863v-0.957
		v-1.051v-1.199v-1.242v-1.391v-1.434v-1.531v-1.582v-1.625v-1.676v-1.727v-1.723v-1.77v-1.723v-1.773v-1.77v-1.723v-1.723v-1.676
		v-1.629v-1.578v-1.535v-1.434v-1.34v-1.293v-1.199v-1.051v-0.957v-0.863v-0.668v-0.578c0-0.43,0-0.668,0-0.668
		c0-0.098-0.574-0.098-0.574-0.098h-1.82h-2.871h-3.926h-4.883h-5.84H443.1h-7.469h-8.137h-8.904h-9.574h-10.053h-10.531h-11.01
		h-11.297h-11.682h-11.871H330.51h-12.256H306h-12.256h-12.205h-12.111h-11.873h-11.68h-11.346h-10.961h-10.58h-10.053h-9.479
		h-8.902h-8.234h-7.467h-6.703h-5.791h-4.932h-3.877h-2.92h-1.771h-0.574c0,0.336,0,0.766,0,0.766v0.578v0.668v0.863v0.957v1.051
		v1.199v1.293v1.34v1.434v1.535v1.578v1.629v1.676v1.723v1.723v1.77v1.773v1.723v1.77v1.723v1.727v1.676v1.625v1.582v1.531v1.434
		v1.391v1.242v1.199v1.051v0.957v0.863v0.719v0.527c0,0.43,0,0.668,0,0.668c0.238,0.098,0.957,0.098,0.957,0.098h1.197h1.627h2.012
		h2.441h2.729h3.111h3.398h3.639h3.973h4.117h4.355h4.547h4.691h4.836h4.883h5.025h5.027h5.074H215h5.025h5.027h4.883h4.834h4.691
		h4.547h4.357h4.115h3.926h3.686h3.4h3.111h2.729h2.441h2.01h1.627h1.197h0.719c0.238,0,0.238,0.668,0.238,0.668v1.918v3.062v4.258
		v5.266v6.273v7.18v8.09v8.855v9.574v10.246v10.863v11.348v11.824v12.254v12.543v12.828v13.02v13.164v13.262v13.211v13.117v13.02
		v12.828v12.641v12.156v11.871v11.395v10.82v10.242v9.574v8.902v8.043v7.18v6.32v5.266v4.211v3.066v1.914v0.668H334.434z"/>
</g>
</svg>
