<?xml version="1.0" encoding="utf-8"?>
<!-- Generator: Adobe Illustrator 16.0.1, SVG Export Plug-In . SVG Version: 6.00 Build 0)  -->
<!DOCTYPE svg PUBLIC "-//W3C//DTD SVG 1.0//EN" "http://www.w3.org/TR/2001/REC-SVG-20010904/DTD/svg10.dtd">
<svg version="1.0" id="_x31_" xmlns="http://www.w3.org/2000/svg" xmlns:xlink="http://www.w3.org/1999/xlink" x="0px" y="0px"
	 width="612px" height="792px" viewBox="0 0 612 792" enable-background="new 0 0 612 792" xml:space="preserve">
<g id="LWPOLYLINE">
	
		<polygon fill="none" stroke="#000000" stroke-width="0.7087" stroke-linecap="round" stroke-linejoin="round" stroke-miterlimit="10" points="
		128.662,399.273 128.754,407.012 128.984,414.75 129.4,422.398 129.998,430 130.781,437.508 131.748,444.969 132.9,452.246 
		134.236,459.523 135.756,466.711 137.506,473.711 139.441,480.621 141.605,487.438 143.955,494.07 146.535,500.609 
		149.344,506.969 152.385,513.141 155.654,519.219 159.156,525.117 162.887,530.828 166.848,536.262 171.086,541.605 
		175.553,546.766 180.297,551.648 185.318,556.344 190.57,560.766 196.098,565.004 201.9,568.965 207.98,572.742 214.338,576.246 
		220.971,579.375 227.926,582.324 235.158,585.09 242.666,587.391 250.496,589.512 258.648,591.352 267.125,592.828 
		275.875,593.934 284.949,594.762 294.393,595.312 304.111,595.5 314.291,595.312 324.057,594.762 333.545,593.84 342.574,592.551 
		351.324,590.891 359.801,588.957 367.906,586.652 375.646,584.074 383.107,581.219 390.201,577.996 397.018,574.492 
		403.559,570.809 409.824,566.754 415.719,562.52 421.338,558.004 426.682,553.215 431.748,548.238 436.539,543.078 
		441.145,537.645 445.383,532.023 449.344,526.223 453.121,520.324 456.623,514.152 459.939,507.891 462.979,501.441 
		465.742,494.809 468.322,488.176 470.625,481.355 472.836,474.355 474.678,467.355 476.428,460.168 477.902,452.984 
		479.285,445.707 480.391,438.383 481.311,431.012 482.049,423.551 482.602,416.086 483.062,408.625 483.246,401.117 
		483.338,393.609 483.246,383.984 482.877,374.539 482.232,365.375 481.402,356.438 480.297,347.73 479.008,339.258 
		477.441,331.012 475.6,322.996 473.572,315.258 471.361,307.75 468.875,300.473 466.203,293.426 463.256,286.609 460.123,280.066 
		456.807,273.711 453.213,267.629 449.436,261.781 445.475,256.207 441.238,250.863 436.908,245.75 432.301,240.867 
		427.512,236.262 422.537,231.887 417.285,227.742 411.941,223.871 406.414,220.234 400.611,216.824 394.715,213.691 
		388.543,210.789 382.279,208.164 375.738,205.77 369.105,203.605 362.287,201.715 355.287,200.059 348.102,198.676 340.73,197.523 
		333.27,196.648 325.623,196.004 317.793,195.637 309.777,195.5 300.564,195.684 291.582,196.188 282.877,197.02 274.447,198.168 
		266.248,199.645 258.281,201.395 250.588,203.465 243.127,205.816 235.895,208.488 228.939,211.434 222.215,214.66 
		215.719,218.113 209.5,221.891 203.514,225.898 197.756,230.137 192.229,234.652 186.932,239.348 181.91,244.324 177.074,249.527 
		172.514,254.918 168.184,260.582 164.084,266.387 160.168,272.422 156.529,278.641 153.121,285.043 149.943,291.629 
		146.996,298.398 144.232,305.355 141.744,312.449 139.441,319.68 137.369,327.051 135.525,334.605 133.914,342.297 
		132.531,350.082 131.334,358.004 130.367,366.066 129.631,374.219 129.078,382.461 128.754,390.848 	"/>
</g>
<g id="LWPOLYLINE_1_">
	
		<polygon fill="none" stroke="#000000" stroke-width="0.7087" stroke-linecap="round" stroke-linejoin="round" stroke-miterlimit="10" points="
		306,552.109 299.045,551.922 292.365,551.555 285.918,550.816 279.744,549.898 273.803,548.699 268.092,547.227 262.656,545.566 
		257.404,543.633 252.43,541.422 247.641,539.027 243.08,536.445 238.703,533.59 234.605,530.551 230.643,527.328 226.959,523.918 
		223.412,520.324 220.096,516.547 216.916,512.586 213.969,508.535 211.205,504.203 208.58,499.781 206.184,495.176 
		203.928,490.477 201.809,485.688 199.875,480.711 198.078,475.645 196.465,470.395 194.992,465.145 193.656,459.707 
		192.459,454.18 191.398,448.562 190.432,442.941 189.648,437.184 188.957,431.379 188.359,425.531 187.898,419.59 187.576,413.645 
		187.346,407.613 187.207,401.578 187.16,395.5 187.207,389.695 187.346,383.891 187.576,378.086 187.943,372.328 188.404,366.57 
		188.957,360.812 189.648,355.148 190.477,349.527 191.398,343.91 192.504,338.383 193.701,332.945 195.084,327.559 
		196.604,322.262 198.262,317.055 200.059,311.941 202.039,306.969 204.203,302.086 206.508,297.293 208.994,292.688 
		211.666,288.176 214.521,283.844 217.562,279.652 220.785,275.598 224.24,271.73 227.879,268.047 231.703,264.543 235.756,261.227 
		240.039,258.098 244.508,255.195 249.207,252.477 254.182,250.035 259.34,247.777 264.775,245.75 270.441,243.953 276.336,242.48 
		282.508,241.191 288.912,240.223 295.59,239.488 302.545,239.074 309.777,238.887 316.318,239.027 322.582,239.395 
		328.754,239.992 334.559,240.824 340.27,241.93 345.705,243.219 350.957,244.738 356.023,246.441 360.814,248.422 365.42,250.59 
		369.934,252.938 374.172,255.516 378.225,258.281 382.094,261.227 385.779,264.359 389.279,267.723 392.596,271.223 
		395.729,274.91 398.676,278.73 401.533,282.785 404.111,286.977 406.6,291.305 408.994,295.773 411.113,300.426 413.141,305.219 
		414.982,310.145 416.641,315.258 418.207,320.418 419.68,325.762 420.971,331.242 422.076,336.816 423.09,342.527 424.01,348.332 
		424.748,354.227 425.393,360.262 425.854,366.34 426.221,372.559 426.498,378.871 426.682,385.273 426.773,391.723 
		426.682,397.938 426.59,404.113 426.314,410.285 425.945,416.41 425.393,422.445 424.84,428.477 424.102,434.422 423.273,440.27 
		422.26,446.074 421.154,451.785 419.865,457.406 418.482,462.934 416.916,468.367 415.258,473.711 413.416,478.961 
		411.389,484.027 409.271,489.004 406.967,493.793 404.389,498.492 401.717,503.008 398.861,507.43 395.912,511.664 
		392.688,515.719 389.279,519.59 385.688,523.273 381.91,526.773 377.857,530 373.711,533.129 369.289,536.078 364.684,538.75 
		359.801,541.145 354.826,543.355 349.482,545.383 344.047,547.133 338.244,548.605 332.348,549.805 326.084,550.816 
		319.635,551.555 312.91,551.922 	"/>
</g>
</svg>
