<?xml version="1.0" encoding="utf-8"?>
<!-- Generator: Adobe Illustrator 16.0.1, SVG Export Plug-In . SVG Version: 6.00 Build 0)  -->
<!DOCTYPE svg PUBLIC "-//W3C//DTD SVG 1.0//EN" "http://www.w3.org/TR/2001/REC-SVG-20010904/DTD/svg10.dtd">
<svg version="1.0" id="_x31_" xmlns="http://www.w3.org/2000/svg" xmlns:xlink="http://www.w3.org/1999/xlink" x="0px" y="0px"
	 width="612px" height="792px" viewBox="0 0 612 792" enable-background="new 0 0 612 792" xml:space="preserve">
<g id="LWPOLYLINE">
	
		<path fill="none" stroke="#000000" stroke-width="0.7087" stroke-linecap="round" stroke-linejoin="round" stroke-miterlimit="10" d="
		M169.232,595.5c0.383,0,0.861,0,0.861,0h0.67h0.814h0.957h1.15h1.244h1.389h1.482h1.58h1.676h1.818h1.82h1.914h1.914h2.012h2.01
		h2.059h2.059h2.059h2.059h2.01h2.012h1.961h1.916h1.818h1.771h1.676h1.58h1.531h1.34h1.293h1.102h0.957h0.861h0.623
		c0.479,0,0.812,0,0.812,0c0.096-0.285,0.096-1.34,0.096-1.34v-1.531v-2.105v-2.68v-3.16v-3.637v-4.117v-4.5v-4.789v-5.168v-5.555
		v-5.742v-5.938v-6.223v-6.32v-6.508v-6.605v-6.609v-6.699v-6.703v-6.605v-6.605v-6.512v-6.316v-6.227v-5.934v-5.746v-5.457v-5.266
		v-4.785v-4.5v-4.07v-3.637v-3.16v-2.68v-2.156v-1.531v-1.004c0.479-0.289,1.055-0.289,1.055-0.289h0.812h1.006h1.148h1.389h1.484
		h1.676h1.818h1.963h2.01h2.154h2.25h2.297h2.395h2.393h2.49h2.488h2.49h2.488h2.49h2.488h2.395h2.393h2.299h2.201h2.203h2.01h1.914
		h1.82h1.723h1.531h1.342h1.148h1.053h0.766h0.574c0.479,0,5.84-0.047,5.84-0.047l5.17-0.094l5.074-0.098l4.883-0.191l4.691-0.238
		l4.596-0.242l4.404-0.332l4.309-0.383l4.117-0.434l4.02-0.43l3.83-0.527l3.734-0.574l3.639-0.574l3.445-0.668l3.447-0.672
		l3.256-0.719l3.062-0.766l3.064-0.812l2.967-0.863l2.873-0.91l2.68-0.957l2.682-0.957l2.584-1.004l2.49-1.102l2.393-1.055
		l2.299-1.148l2.297-1.195l2.203-1.195l2.105-1.246l2.012-1.246l2.01-1.34l1.914-1.34l1.916-1.387l1.818-1.391l1.818-1.484
		l1.725-1.484l1.723-1.48l1.723-1.535l1.629-1.578l1.627-1.629l1.627-1.625l1.533-1.629l1.531-1.676l1.436-1.629l1.438-1.723
		l1.34-1.676l1.34-1.723l1.244-1.723l1.342-1.723l1.148-1.773l1.148-1.77l1.148-1.77l1.053-1.82l1.055-1.82l1.053-1.816l0.957-1.867
		l0.861-1.867l0.861-1.867l0.863-1.867l0.766-1.914l0.766-1.918l0.766-1.914l0.67-1.961l0.574-1.965l0.574-2.008l0.574-1.965
		l0.48-2.008l0.479-2.012l0.479-2.059l0.383-2.059l0.383-2.059l0.287-2.059l0.287-2.105l0.287-2.105l0.191-2.156l0.096-2.105
		l0.191-2.152l0.096-2.203v-2.156l0.096-2.199l-0.096-2.203v-2.203l-0.096-2.203l-0.096-2.152l-0.191-2.152l-0.191-2.203
		l-0.287-2.105l-0.287-2.156l-0.287-2.152l-0.383-2.105l-0.383-2.109l-0.383-2.105l-0.479-2.059l-0.48-2.105l-0.574-2.059
		l-0.574-2.059l-0.574-2.012l-0.67-2.008l-0.67-2.012l-0.67-2.012l-0.766-1.961l-0.768-1.965L434,257.254l-0.861-1.914l-0.861-1.914
		l-0.957-1.918l-0.957-1.867l-1.055-1.863l-1.053-1.867l-1.053-1.82l-1.148-1.82l-1.148-1.77l-1.246-1.773l-1.148-1.77l-1.34-1.723
		l-1.244-1.723l-1.342-1.676l-1.436-1.676l-1.34-1.676l-1.533-1.629l-2.01-2.152l-2.105-2.012l-2.107-1.961l-2.201-1.867
		l-2.107-1.773l-2.201-1.676l-2.201-1.578l-2.299-1.531l-2.297-1.391l-2.299-1.34l-2.297-1.242l-2.395-1.199l-2.393-1.102
		l-2.49-1.051l-2.393-0.957l-2.586-0.91l-2.488-0.812l-2.586-0.766l-2.68-0.719l-2.682-0.672l-2.68-0.574l-2.682-0.527l-2.871-0.527
		l-2.777-0.43l-2.871-0.43l-2.969-0.336l-2.969-0.336l-2.967-0.238l-3.064-0.285l-3.158-0.195l-3.16-0.191l-3.16-0.141l-3.254-0.098
		l-3.352-0.094l-3.352-0.098l-3.445-0.047l-3.447-0.047l-3.543-0.051h-3.541h-3.639c-0.287,0-1.053,0-1.053,0h-1.148h-1.629h-2.01
		h-2.395h-2.775h-3.064h-3.445h-3.639h-3.926h-4.213h-4.309h-4.594h-4.691h-4.787H252h-5.027h-5.025h-5.074h-5.074h-5.027h-5.025
		h-4.883h-4.834h-4.691h-4.549h-4.355h-4.164h-3.926h-3.639h-3.398h-3.111h-2.777h-2.393h-2.012h-1.627h-1.197h-0.717
		C169.232,195.5,169.232,595.5,169.232,595.5z"/>
</g>
<g id="LWPOLYLINE_1_">
	
		<path fill="none" stroke="#000000" stroke-width="0.7087" stroke-linecap="round" stroke-linejoin="round" stroke-miterlimit="10" d="
		M224.139,240.594c0.145,0,0.574,0,0.574,0h0.672h0.957h1.148h1.389h1.627h1.771h1.963h2.154h2.25h2.441h2.488h2.633h2.729h2.777
		h2.871h2.873h2.967h2.873h2.969h2.967h2.873h2.871h2.777h2.68h2.682h2.488h2.395h2.297h2.107h2.01h1.818h1.533h1.436h1.148h0.957
		h0.672c0.479,0,0.574,0,0.574,0h2.297h2.299l2.393,0.051l2.49,0.047l2.488,0.047l2.584,0.098l2.682,0.094l2.586,0.191l2.775,0.191
		l2.682,0.289l2.775,0.285l2.682,0.43l2.775,0.434l2.777,0.527l2.68,0.621l2.777,0.719l2.68,0.812l2.586,0.91l2.68,1.004l2.49,1.102
		l2.488,1.246l2.49,1.34l2.393,1.484l2.299,1.625l2.201,1.773l2.107,1.914l2.01,2.059l1.914,2.25l1.82,2.395l1.723,2.535l1.531,2.73
		l1.438,2.918l1.34,3.113l1.148,3.301l0.957,3.496l0.766,3.734l0.672,3.926l0.479,4.117l0.287,4.355l0.096,4.594l-0.096,4.738
		l-0.287,4.5l-0.479,4.309l-0.768,4.117l-0.861,3.879l-1.053,3.637l-1.244,3.496l-1.438,3.301l-1.531,3.113l-1.723,2.918
		l-1.818,2.777l-2.012,2.586l-2.105,2.395l-2.203,2.25l-2.297,2.105l-2.49,1.961l-2.488,1.82l-2.682,1.676l-2.68,1.578l-2.777,1.438
		l-2.871,1.293l-2.969,1.148l-2.967,1.102l-3.064,0.957l-3.064,0.859l-3.062,0.766l-3.16,0.719l-3.158,0.574l-3.16,0.527l-3.16,0.48
		l-3.158,0.336l-3.16,0.332l-3.16,0.289l-3.158,0.191l-3.064,0.145l-3.062,0.141l-2.969,0.098l-2.969,0.047h-2.871h-2.873
		c-0.479,0-1.053,0-1.053,0h-0.766h-1.053h-1.148h-1.342h-1.531h-1.723h-1.82h-1.914h-2.01h-2.203h-2.201h-2.299h-2.393h-2.395
		h-2.488h-2.49h-2.488h-2.49h-2.488h-2.49h-2.393h-2.395h-2.297h-2.25H238.5h-2.01h-1.963h-1.818h-1.676h-1.484h-1.389h-1.148
		h-1.006h-0.812h-0.576C224.139,371.949,224.139,240.594,224.139,240.594z"/>
</g>
</svg>
