<?xml version="1.0" encoding="utf-8"?>
<!-- Generator: Adobe Illustrator 16.0.1, SVG Export Plug-In . SVG Version: 6.00 Build 0)  -->
<!DOCTYPE svg PUBLIC "-//W3C//DTD SVG 1.0//EN" "http://www.w3.org/TR/2001/REC-SVG-20010904/DTD/svg10.dtd">
<svg version="1.0" id="_x31_" xmlns="http://www.w3.org/2000/svg" xmlns:xlink="http://www.w3.org/1999/xlink" x="0px" y="0px"
	 width="612px" height="792px" viewBox="0 0 612 792" enable-background="new 0 0 612 792" xml:space="preserve">
<g id="LWPOLYLINE">
	
		<path fill="none" stroke="#000000" stroke-width="0.7087" stroke-linecap="round" stroke-linejoin="round" stroke-miterlimit="10" d="
		M141.303,595.5c0.24,0,0.861,0,0.861,0h0.959h1.387h1.676h2.059h2.299h2.584H156h3.111h3.303h3.447h3.686h3.828h3.926h4.07h4.115
		h4.213h4.213h4.26h4.262h4.26h4.164h4.166h4.02h3.975h3.781h3.686h3.494h3.303h3.064h2.873h2.584h2.346h2.01h1.676h1.389h1.006
		h0.621c0.191,0,4.596,0,4.596,0h4.357h4.307h4.309l4.213-0.094h4.213l4.213-0.098l4.117-0.094l4.115-0.098l4.07-0.094l4.02-0.191
		l4.021-0.191l3.975-0.289l3.924-0.285l3.926-0.289l3.83-0.383l3.83-0.477l3.828-0.48l3.734-0.477l3.734-0.672l3.732-0.574
		l3.639-0.766l3.639-0.766l3.543-0.863l3.637-0.957l3.447-1.051l3.543-1.055l3.445-1.148l3.447-1.34l3.447-1.34l3.35-1.438
		l3.352-1.531l3.352-1.723l3.254-1.727l3.256-1.816l3.16-2.012l3.254-2.105l3.16-2.203l3.158-2.297l3.064-2.395l2.201-2.012
		l2.299-2.008l2.201-2.203l2.299-2.297l2.297-2.395l2.299-2.488l2.297-2.586l2.299-2.68l2.297-2.777l2.297-2.969l2.299-2.965
		l2.297-3.16l2.203-3.258l2.201-3.348l2.203-3.449l2.201-3.543l2.105-3.73l2.107-3.734l2.01-3.926l1.916-4.023l1.914-4.117
		l1.914-4.305l1.82-4.406l1.723-4.402l1.627-4.598l1.629-4.785l1.436-4.789l1.436-4.977l1.342-5.074l1.244-5.172l1.148-5.266
		l0.957-5.457l0.957-5.551l0.863-5.699l0.67-5.789l0.574-5.891l0.479-6.031l0.287-6.176l0.287-6.27v-6.414v-4.117l-0.096-4.117
		l-0.096-4.07l-0.191-4.113l-0.287-4.07l-0.287-4.07l-0.287-4.02l-0.479-4.07l-0.479-4.02l-0.48-4.023l-0.574-3.973l-0.67-4.02
		l-0.766-3.973l-0.766-3.926l-0.861-3.926l-0.861-3.926l-0.959-3.926l-1.053-3.875l-1.148-3.832l-1.148-3.828l-1.246-3.832
		l-1.34-3.781l-1.34-3.781l-1.531-3.734l-1.533-3.684l-1.627-3.734l-1.627-3.637l-1.82-3.641l-1.818-3.59l-1.914-3.59l-2.012-3.543
		l-2.01-3.543l-2.203-3.492l-2.201-3.449l-2.393-3.445l-2.395-3.398l-2.488-3.352l-2.586-3.301l-2.584-3.305l-2.777-3.254
		l-3.256-3.734l-3.35-3.543l-3.447-3.352l-3.543-3.207l-3.541-2.969l-3.639-2.871l-3.734-2.68l-3.732-2.539l-3.83-2.344l-3.83-2.25
		l-3.926-2.059l-4.021-1.965l-4.02-1.77l-4.021-1.676l-4.117-1.578l-4.117-1.438l-4.213-1.293l-4.115-1.242L347,202.875
		l-4.213-1.008l-4.309-0.91l-4.309-0.812l-4.307-0.719l-4.309-0.668l-4.309-0.574l-4.309-0.48l-4.404-0.43l-4.309-0.383
		l-4.355-0.336l-4.355-0.238l-4.309-0.242l-4.357-0.141l-4.307-0.145l-4.262-0.098l-4.309-0.094l-4.211-0.047l-4.262-0.051h-4.164
		h-4.213h-4.117c-0.191,0-0.861,0-0.861,0h-1.006h-1.387h-1.725h-2.059h-2.346h-2.633h-2.92h-3.158h-3.352h-3.543h-3.732h-3.879
		h-4.02h-4.117h-4.164h-4.309h-4.309h-4.309h-4.355h-4.309h-4.26h-4.213h-4.117h-4.021h-3.877h-3.734h-3.543h-3.35h-3.16h-2.871
		h-2.633h-2.395h-2.059h-1.723h-1.389h-1.006h-0.621C141.303,195.5,141.303,595.5,141.303,595.5z"/>
</g>
<g id="LWPOLYLINE_1_">
	
		<path fill="none" stroke="#000000" stroke-width="0.7087" stroke-linecap="round" stroke-linejoin="round" stroke-miterlimit="10" d="
		M196.209,240.594c0.145,0,0.527,0,0.527,0h0.574h0.814h1.053h1.197h1.436h1.531h1.725h1.867h2.01h2.105h2.203h2.297h2.395h2.441
		h2.488h2.537h2.537h2.586h2.584h2.537h2.537h2.49h2.441h2.393h2.299h2.201h2.105h2.012H256h1.723h1.58h1.389h1.195h1.053h0.814
		h0.574c0.383,0,0.527,0,0.527,0h3.639l3.59,0.051l3.494,0.094l3.447,0.098l3.398,0.141l3.35,0.191l3.256,0.191l3.207,0.289
		l3.16,0.285l3.111,0.336l3.062,0.336l3.018,0.43l2.967,0.434l2.873,0.523l2.871,0.527l2.777,0.625l2.775,0.621l2.682,0.668
		l2.68,0.719l2.682,0.816l2.584,0.812l2.49,0.91l2.584,0.91l2.395,1.004l2.488,1.051l2.395,1.102l2.393,1.199l2.299,1.195
		l2.393,1.293l2.203,1.34l2.297,1.438l2.203,1.484l2.201,1.531l2.201,1.578l2.203,1.676l2.105,1.723l2.107,1.82l2.105,1.867
		l2.105,1.961l2.012,2.012l2.775,3.16l2.586,3.254l2.488,3.305l2.299,3.398l2.297,3.492l2.107,3.543l2.01,3.59l1.818,3.641
		l1.82,3.684l1.627,3.734l1.627,3.734l1.438,3.781l1.436,3.781l1.244,3.781l1.244,3.781l1.15,3.785l0.957,3.781l0.957,3.734
		l0.957,3.684l0.766,3.688l0.768,3.59l0.67,3.59l0.574,3.496l0.574,3.398l0.479,3.352l0.383,3.254l0.383,3.207l0.383,3.062
		l0.287,2.969l0.287,2.824l0.191,2.73l0.191,2.582l0.096,2.441l0.096,2.297l0.096,2.156l0.096,2.012v1.816l0.098,1.676v1.438v1.293
		v1.676v1.867l-0.098,2.059v2.152l-0.096,2.297l-0.096,2.441l-0.191,2.586l-0.191,2.68l-0.191,2.777l-0.287,2.922l-0.287,3.016
		l-0.383,3.109l-0.479,3.16l-0.574,3.254l-0.574,3.352l-0.67,3.398l-0.67,3.449l-0.863,3.539l-0.957,3.543l-0.957,3.543
		l-1.148,3.637l-1.244,3.641l-1.342,3.637l-1.436,3.734l-1.531,3.637l-1.725,3.641l-1.818,3.637l-1.914,3.637l-2.107,3.641
		l-2.201,3.543l-2.299,3.539l-2.584,3.449l-2.586,3.445l-2.871,3.352l-2.969,3.254l-3.158,3.258l-3.352,3.156l-3.447,3.066
		l-3.732,2.871l-3.926,2.871l-1.916,1.438l-2.01,1.438l-2.01,1.242l-2.107,1.246l-2.201,1.242l-2.203,1.055l-2.201,1.148
		l-2.299,0.957l-2.393,0.957l-2.393,0.957l-2.395,0.863l-2.488,0.766l-2.49,0.766l-2.488,0.672l-2.586,0.668l-2.68,0.672
		l-2.586,0.574l-2.68,0.574l-2.682,0.477l-2.68,0.48l-2.777,0.383l-2.729,0.383l-2.777,0.383l-2.775,0.289l-2.777,0.285
		l-2.824,0.289l-2.824,0.191l-2.824,0.285l-2.871,0.098l-2.824,0.191l-2.873,0.094l-2.824,0.191l-2.873,0.098l-2.871,0.094h-2.824
		l-2.824,0.098h-2.873h-2.824h-2.775h-2.824c-0.385,0-0.91,0-0.91,0h-0.67h-0.861h-1.006h-1.148h-1.293h-1.436h-1.58h-1.629h-1.723
		h-1.867h-1.914h-1.963h-2.01h-2.059h-2.107h-2.105h-2.154h-2.105h-2.154h-2.059h-2.107h-2.01h-1.963h-1.914h-1.82h-1.771h-1.627
		h-1.531h-1.436h-1.293h-1.197h-1.006h-0.812h-0.719h-0.479C196.209,548.398,196.209,240.594,196.209,240.594z"/>
</g>
</svg>
