<?xml version="1.0" encoding="utf-8"?>
<!-- Generator: Adobe Illustrator 16.0.1, SVG Export Plug-In . SVG Version: 6.00 Build 0)  -->
<!DOCTYPE svg PUBLIC "-//W3C//DTD SVG 1.0//EN" "http://www.w3.org/TR/2001/REC-SVG-20010904/DTD/svg10.dtd">
<svg version="1.0" id="_x31_" xmlns="http://www.w3.org/2000/svg" xmlns:xlink="http://www.w3.org/1999/xlink" x="0px" y="0px"
	 width="612px" height="792px" viewBox="0 0 612 792" enable-background="new 0 0 612 792" xml:space="preserve">
<g id="LWPOLYLINE">
	
		<path fill="none" stroke="#000000" stroke-width="0.7087" stroke-linecap="round" stroke-linejoin="round" stroke-miterlimit="10" d="
		M186.898,595.5c0.43,0,0.908,0,0.908,0h0.67h0.814h0.957h1.102h1.293h1.387h1.484h1.58h1.676h1.771h1.867h1.865h1.963h2.012h2.01
		h2.059h2.059h2.059h2.059h2.01h2.012h1.914h1.914h1.867h1.771h1.676h1.58h1.482h1.389h1.244h1.15h0.957h0.812h0.672
		c0.479,0,0.766,0,0.766,0c0.096-0.285,0.096-1.34,0.096-1.34v-1.531v-2.203v-2.68v-3.254v-3.641v-4.113v-4.5v-4.883v-5.266v-5.555
		v-5.84v-6.031v-6.223v-6.414v-6.605v-6.609v-6.797v-6.699v-6.801v-6.699v-6.703v-6.508v-6.418v-6.223v-6.125v-5.746v-5.551v-5.266
		v-4.883v-4.5v-4.164v-3.688v-3.16v-2.727V418v-1.578v-0.957c0.334-0.336,1.293-0.336,1.293-0.336h1.531h2.059h2.633h3.111h3.543
		h4.02h4.309h4.787h5.074h5.361h5.648h5.84h6.033h6.223h6.318h6.414h6.512h6.605h6.51h6.51h6.416h6.318h6.223h6.031h5.84h5.648
		h5.363h5.074h4.785h4.309h4.021h3.543h3.158h2.586h2.105h1.533h0.957c0.287-0.383,0.287-0.812,0.287-0.812v-0.578v-0.715v-0.91
		v-1.008v-1.098v-1.246v-1.293v-1.438V404.5v-1.578v-1.629v-1.676v-1.77v-1.773v-1.816v-1.82v-1.82v-1.863v-1.82v-1.82v-1.77v-1.723
		v-1.727v-1.625v-1.582v-1.531v-1.387v-1.34v-1.246v-1.102v-1.004v-0.863v-0.766v-0.574c0-0.43,0-0.668,0-0.668
		c-0.287-0.098-1.244-0.098-1.244-0.098h-1.533h-2.105h-2.586h-3.158h-3.543h-4.021h-4.309h-4.785h-5.074h-5.363h-5.648h-5.84
		h-6.031h-6.223h-6.318h-6.416h-6.51h-6.51h-6.605h-6.512h-6.414h-6.318h-6.223h-6.033h-5.84h-5.648h-5.361h-5.074h-4.787h-4.309
		h-4.02h-3.543h-3.111h-2.633h-2.059h-1.531h-0.959c-0.334-0.238-0.334-0.91-0.334-0.91v-1.102v-1.484v-1.816v-2.203v-2.535v-2.824
		v-3.113v-3.352v-3.543v-3.828v-3.973v-4.117V327v-4.402v-4.453v-4.598v-4.594v-4.645v-4.594v-4.645v-4.547v-4.5v-4.355v-4.309
		v-4.117v-4.02v-3.785v-3.59V258.5v-3.066v-2.824v-2.535v-2.203v-1.867v-1.484v-1.051v-0.672c0.334-0.238,1.34-0.238,1.34-0.238
		h1.627h2.203h2.775h3.256h3.781h4.166h4.689h4.979h5.361h5.65h5.936h6.223h6.318h6.605h6.703h6.797h6.893h6.895h6.893h6.893h6.799
		h6.701h6.51h6.416h6.127h5.936h5.744h5.266h5.074h4.596h4.213h3.734h3.35h2.682h2.201h1.627h1.055
		c0.287-0.336,0.287-0.766,0.287-0.766v-0.527v-0.719v-0.863v-0.957v-1.051v-1.199v-1.242v-1.391v-1.434v-1.531v-1.582v-1.625
		v-1.676v-1.727v-1.723v-1.77v-1.723v-1.773v-1.77v-1.723v-1.723v-1.676v-1.629v-1.578v-1.535v-1.434v-1.34v-1.293v-1.199v-1.051
		v-0.957v-0.863v-0.668v-0.578c0-0.43,0-0.668,0-0.668c-0.383-0.098-1.725-0.098-1.725-0.098h-2.105H419.4h-3.541h-4.213h-4.979
		h-5.457h-5.936h-6.512h-6.988H374.5h-7.756h-8.041h-8.234h-8.521h-8.711h-8.809h-8.904h-9h-8.998h-8.904h-8.809h-8.711h-8.521
		h-8.281h-7.994h-7.707h-7.373h-6.941h-6.461h-6.033h-5.457h-4.883h-4.26h-3.59h-2.824h-2.107h-1.291
		C186.898,195.5,186.898,595.5,186.898,595.5z"/>
</g>
</svg>
