<?xml version="1.0" encoding="utf-8"?>
<!-- Generator: Adobe Illustrator 16.0.1, SVG Export Plug-In . SVG Version: 6.00 Build 0)  -->
<!DOCTYPE svg PUBLIC "-//W3C//DTD SVG 1.0//EN" "http://www.w3.org/TR/2001/REC-SVG-20010904/DTD/svg10.dtd">
<svg version="1.0" id="_x31_" xmlns="http://www.w3.org/2000/svg" xmlns:xlink="http://www.w3.org/1999/xlink" x="0px" y="0px"
	 width="612px" height="792px" viewBox="0 0 612 792" enable-background="new 0 0 612 792" xml:space="preserve">
<g id="LWPOLYLINE">
	
		<path fill="none" stroke="#000000" stroke-width="0.7087" stroke-linecap="round" stroke-linejoin="round" stroke-miterlimit="10" d="
		M154.061,595.5c0.383,0,0.861,0,0.861,0h0.672h0.812h0.957h1.15h1.244h1.389h1.482h1.58h1.676h1.771h1.867h1.867h1.961h2.012h2.01
		h2.059h2.059h2.059h2.059h2.01h2.012h1.963h1.865h1.867h1.771h1.676h1.58h1.484h1.387h1.246h1.148h0.957h0.814h0.67
		c0.479,0,0.766,0,0.766,0c0.096-0.285,0.096-1.34,0.096-1.34v-1.531v-2.203v-2.68v-3.254v-3.641v-4.113v-4.5v-4.883v-5.266v-5.555
		v-5.84v-6.031v-6.223v-6.414v-6.605v-6.609v-6.797v-6.699v-6.801v-6.699v-6.703v-6.508v-6.418v-6.223v-6.125v-5.746v-5.551v-5.266
		v-4.883v-4.5v-4.164v-3.688v-3.16v-2.727V418v-1.578v-0.957c0.383-0.336,1.436-0.336,1.436-0.336h1.676h2.297h2.873h3.398h3.926
		h4.404h4.834h5.219h5.553h5.936h6.176h6.414h6.701h6.799h6.988h7.084h7.182h7.229h7.18h7.18h7.086h6.988h6.799h6.701h6.414h6.223
		h5.84h5.65h5.17h4.883h4.307h3.926h3.447h2.871h2.299h1.723h1.053c0.287,0.336,0.287,1.293,0.287,1.293V418v2.156v2.727v3.16v3.688
		v4.164v4.5v4.883v5.266v5.551v5.746v6.125v6.223v6.418v6.508v6.703v6.699v6.801v6.699v6.797v6.609v6.605v6.414v6.223v6.031v5.84
		v5.555v5.266v4.883v4.5v4.113v3.641v3.254v2.68v2.203v1.531v1.055c0.479,0.285,0.959,0.285,0.959,0.285h0.67h0.861h0.957h1.148
		h1.342h1.436h1.531h1.627h1.82h1.818h1.916h1.914h2.01h2.107h2.105h2.107h2.105h2.105h2.203h2.105h2.012h2.01h2.01h1.916h1.818
		h1.723h1.629h1.627h1.34h1.342h1.148h1.053h0.861h0.67h0.479c0.383,0,0.383-0.766,0.383-0.766v-2.105v-3.543v-4.785v-6.031v-7.086
		v-8.137v-9.191v-9.957v-10.914v-11.586v-12.254v-12.926v-13.402v-13.883v-14.266v-14.504v-14.742v-14.938V395.5v-14.98v-14.938
		V350.84v-14.555V322.07v-13.883v-13.402v-12.879v-12.301V258.02v-10.867v-10.051v-9.145v-8.137v-7.133v-5.984v-4.785v-3.496v-2.156
		V195.5c-0.383,0-0.861,0-0.861,0h-0.67h-0.861h-1.053h-1.148h-1.342h-1.34h-1.627h-1.629h-1.723h-1.818h-1.916h-2.01h-2.01h-2.012
		h-2.105h-2.203h-2.105h-2.105h-2.107h-2.105h-2.107h-2.01h-1.914h-1.916h-1.818h-1.82h-1.627h-1.531h-1.436h-1.342h-1.148h-0.957
		h-0.861h-0.67h-0.48c-0.479,0.336-0.479,1.246-0.479,1.246v1.484v2.059v2.535v3.066v3.445v3.926v4.262v4.641v4.934v5.266v5.504
		v5.695v5.938v6.031v6.223v6.27v6.367v6.414v6.367v6.367v6.32v6.172v6.082v5.934v5.699v5.504v5.219v4.977v4.645v4.262v3.875v3.496
		v3.016v2.586v2.008v1.531v0.91c-0.287,0.336-1.34,0.336-1.34,0.336h-1.723h-2.299h-2.871h-3.447h-3.926h-4.307h-4.883h-5.17h-5.65
		h-5.84h-6.223h-6.414h-6.701h-6.799h-6.988h-7.086h-7.18h-7.18h-7.229h-7.182h-7.084h-6.988h-6.799h-6.701h-6.414h-6.176h-5.936
		h-5.553h-5.219h-4.834h-4.404H220.6h-3.398h-2.873h-2.297h-1.676h-1.053c-0.383-0.336-0.383-1.246-0.383-1.246v-1.531v-2.008
		v-2.586v-3.016v-3.496v-3.875v-4.262v-4.645v-4.977v-5.219v-5.504v-5.699v-5.934v-6.082v-6.172v-6.32v-6.367v-6.367v-6.414v-6.367
		v-6.27v-6.223V249.5v-5.938v-5.695v-5.504v-5.266v-4.934v-4.641v-4.262v-3.926v-3.445v-3.066v-2.535v-2.059v-1.484v-0.91
		c-0.383-0.336-0.861-0.336-0.861-0.336h-0.67h-0.814h-0.957h-1.148h-1.246h-1.387h-1.484h-1.58h-1.676h-1.771h-1.867h-1.865h-1.963
		h-2.012h-2.01h-2.059h-2.059h-2.059h-2.059h-2.01h-2.012h-1.961h-1.867h-1.867h-1.771h-1.676h-1.58h-1.482h-1.389h-1.244h-1.15
		h-0.957h-0.812h-0.672c-0.479,0-0.766,0-0.766,0C154.061,195.5,154.061,595.5,154.061,595.5z"/>
</g>
</svg>
