<?xml version="1.0" encoding="utf-8"?>
<!-- Generator: Adobe Illustrator 16.0.1, SVG Export Plug-In . SVG Version: 6.00 Build 0)  -->
<!DOCTYPE svg PUBLIC "-//W3C//DTD SVG 1.0//EN" "http://www.w3.org/TR/2001/REC-SVG-20010904/DTD/svg10.dtd">
<svg version="1.0" id="_x31_" xmlns="http://www.w3.org/2000/svg" xmlns:xlink="http://www.w3.org/1999/xlink" x="0px" y="0px"
	 width="612px" height="792px" viewBox="0 0 612 792" enable-background="new 0 0 612 792" xml:space="preserve">
<g id="LWPOLYLINE">
	
		<path fill="none" stroke="#000000" stroke-width="0.7087" stroke-linecap="round" stroke-linejoin="round" stroke-miterlimit="10" d="
		M146.211,595.5c0.383,0,0.861,0,0.861,0h0.67h0.814h0.957h1.148h1.244h1.389h1.484h1.58h1.723h1.723h1.867h1.916h1.914h2.01h2.059
		h2.012h2.059h2.057h2.059h2.012h2.01h1.963h1.914h1.82h1.771h1.674h1.58h1.533h1.34h1.293h1.1h0.957h0.814h0.67
		c0.479,0,0.766,0,0.766,0c0.145-0.383,0.145-1.531,0.145-1.531v-1.914v-2.586v-3.156v-3.832v-4.309v-4.883v-5.359v-5.84v-6.223
		v-6.512v-6.895v-7.18v-7.371v-7.66v-7.754v-7.852v-8.043v-7.945v-8.043v-7.945v-7.852v-7.852v-7.562v-7.418v-7.133v-6.895v-6.605
		v-6.176v-5.793v-5.359v-4.883v-4.406v-3.781v-3.207v-2.535v-1.867v-1.148c0.334,0,1.34,1.148,1.34,1.148l1.627,1.867l2.25,2.535
		l2.777,3.207l3.303,3.781l3.781,4.406l4.262,4.883l4.691,5.359l5.074,5.793l5.408,6.176l5.697,6.605l5.982,6.895l6.271,7.133
		l6.463,7.418l6.605,7.562l6.799,7.852l6.844,7.852l6.941,7.945l6.99,8.043l6.988,7.945l6.988,8.043l6.799,7.852l6.797,7.754
		l6.605,7.66l6.51,7.371l6.225,7.18l6.031,6.895l5.648,6.512l5.457,6.223l5.074,5.84l4.691,5.359l4.213,4.883l3.83,4.309
		l3.254,3.832l2.777,3.156l2.297,2.586l1.627,1.914l0.959,1.148c0.479,0.383,0.957,0.383,0.957,0.383h0.67h0.957h1.148h1.438h1.531
		h1.818h2.012h2.105h2.299h2.393h2.49h2.68h2.682h2.775h2.873h2.871h2.969h2.967h2.873h2.969h2.871h2.873h2.775h2.682h2.68h2.49
		h2.393h2.299h2.105h2.01h1.82h1.531h1.436h1.15h0.957h0.67c0.479,0,0.574,0,0.574,0c-0.383-0.383-1.436-1.625-1.436-1.625
		l-1.725-1.914l-2.393-2.684l-3.064-3.254l-3.541-4.02l-4.021-4.5l-4.596-5.074l-5.074-5.555l-5.361-6.031l-5.84-6.414l-6.127-6.797
		l-6.416-7.086l-6.701-7.469l-6.988-7.656l-7.086-7.949l-7.275-8.039l-7.373-8.141l-7.467-8.234l-7.467-8.328l-7.564-8.328
		l-7.467-8.234l-7.373-8.234l-7.275-8.043l-7.086-7.848l-6.893-7.66l-6.701-7.469l-6.512-7.133l-6.127-6.797l-5.791-6.414
		l-5.41-6.031l-5.025-5.555l-4.596-5.074l-4.07-4.5l-3.541-3.973l-3.016-3.301l-2.395-2.633l-1.723-1.965l-1.102-1.195
		c-0.383-0.43-0.047-0.719-0.047-0.719l1.004-1.004l1.58-1.531l2.154-2.156l2.682-2.68l3.207-3.16l3.686-3.637l4.117-4.07l4.547-4.5
		l4.883-4.836l5.219-5.168l5.553-5.504l5.84-5.746l6.031-5.984l6.223-6.176l6.414-6.367l6.607-6.461l6.605-6.605l6.797-6.652
		l6.703-6.656l6.797-6.703l6.701-6.652l6.703-6.559l6.51-6.508l6.414-6.367l6.223-6.176l6.127-5.984l5.746-5.746l5.553-5.457
		l5.266-5.215l4.883-4.836l4.5-4.453l4.115-4.066l3.734-3.688l3.16-3.16l2.775-2.68l2.107-2.105l1.627-1.582l0.957-0.957
		c-0.191-0.336-0.861-0.336-0.861-0.336h-0.957h-1.148h-1.342h-1.531h-1.818h-1.916h-2.01h-2.299h-2.297h-2.49h-2.584h-2.586h-2.775
		h-2.777h-2.775h-2.873h-2.871h-2.873h-2.871h-2.777h-2.775h-2.777h-2.586h-2.584h-2.488h-2.299h-2.297h-2.012h-1.914h-1.82h-1.531
		h-1.34h-1.148h-0.957h-0.672c-0.383,0-0.479,0-0.479,0c-0.383,0.336-1.244,1.246-1.244,1.246l-1.531,1.531l-2.012,2.105
		l-2.488,2.633l-2.969,3.113l-3.445,3.543l-3.926,3.973l-4.213,4.402l-4.596,4.742l-4.883,5.074l-5.17,5.359l-5.457,5.602
		l-5.648,5.84l-5.84,6.078l-5.936,6.176l-6.176,6.367l-6.223,6.414l-6.271,6.512l-6.318,6.559l-6.318,6.508l-6.271,6.512
		l-6.223,6.461l-6.129,6.32l-6.031,6.223l-5.84,6.031l-5.648,5.887l-5.408,5.602l-5.219,5.363l-4.883,5.074l-4.596,4.738
		l-4.213,4.355l-3.877,4.023l-3.398,3.539l-3.016,3.113l-2.537,2.586l-2.012,2.105l-1.482,1.531l-0.91,0.957
		c-0.287,0-0.287-0.957-0.287-0.957v-1.531v-2.105v-2.586v-3.113v-3.539v-4.023v-4.355v-4.738v-5.074v-5.363v-5.602v-5.887v-6.031
		v-6.223v-6.32v-6.461v-6.512v-6.508v-6.559v-6.512v-6.414v-6.367v-6.176v-6.078v-5.84v-5.602v-5.359v-5.074v-4.742v-4.402v-3.973
		v-3.543v-3.113v-2.633v-2.105v-1.531v-0.91c-0.432-0.336-0.91-0.336-0.91-0.336h-0.67h-0.814h-0.957h-1.1h-1.293h-1.34H192.5h-1.58
		h-1.674h-1.771h-1.82h-1.914h-1.963h-2.01h-2.012h-2.059h-2.057h-2.059h-2.012h-2.059h-2.01h-1.914h-1.916h-1.867h-1.723h-1.723
		h-1.58h-1.484h-1.389h-1.244h-1.148h-0.957h-0.814h-0.67c-0.479,0-0.766,0-0.766,0C146.211,195.5,146.211,595.5,146.211,595.5z"/>
</g>
</svg>
