<?xml version="1.0" encoding="utf-8"?>
<!-- Generator: Adobe Illustrator 16.0.1, SVG Export Plug-In . SVG Version: 6.00 Build 0)  -->
<!DOCTYPE svg PUBLIC "-//W3C//DTD SVG 1.0//EN" "http://www.w3.org/TR/2001/REC-SVG-20010904/DTD/svg10.dtd">
<svg version="1.0" id="_x31_" xmlns="http://www.w3.org/2000/svg" xmlns:xlink="http://www.w3.org/1999/xlink" x="0px" y="0px"
	 width="612px" height="792px" viewBox="0 0 612 792" enable-background="new 0 0 612 792" xml:space="preserve">
<g id="LWPOLYLINE">
	
		<path fill="none" stroke="#000000" stroke-width="0.7087" stroke-linecap="round" stroke-linejoin="round" stroke-miterlimit="10" d="
		M184.912,595.5c0.479,0,1.771,0,1.771,0h2.152h2.922h3.637h4.309h4.979h5.553h6.08h6.605h7.086h7.467h7.803h8.186h8.426h8.615
		h8.809h9h9.096h9.094h9.096h9.096h9h8.807h8.617h8.426h8.137h7.852h7.467h7.086h6.605h6.127h5.553h4.883h4.404h3.639h2.871h2.107
		h1.34c0.479-0.383,0.479-0.766,0.479-0.766v-0.574v-0.766v-0.859v-1.055v-1.055v-1.242v-1.34v-1.438v-1.531v-1.531v-1.629v-1.723
		v-1.723v-1.82v-1.82v-1.816v-1.82v-1.82v-1.816v-1.82v-1.82v-1.723v-1.723v-1.629v-1.531v-1.531v-1.438v-1.34v-1.242v-1.148v-0.961
		v-0.859v-0.766v-0.574c0-0.383,0-0.672,0-0.672c-0.383-0.094-1.34-0.094-1.34-0.094h-1.723h-2.203h-2.871h-3.352h-3.83h-4.309
		h-4.691h-5.074h-5.553H387.4h-6.031h-6.318h-6.51h-6.703h-6.893h-6.893h-7.086h-6.988h-7.086h-6.988h-6.988h-6.799h-6.701h-6.51
		h-6.318h-6.129h-5.744h-5.457h-5.074h-4.787h-4.309h-3.828h-3.352h-2.824h-2.25h-1.627h-1.006c-0.383,0-0.383-0.672-0.383-0.672
		v-1.914v-3.062v-4.215v-5.266v-6.223v-7.18v-7.945v-8.809v-9.574v-10.148v-10.82v-11.297v-11.773v-12.16V422.93v-12.73v-12.973
		v-13.07v-13.164v-13.164v-13.07v-12.973v-12.73v-12.496v-12.156v-11.777v-11.297v-10.77v-10.199v-9.523v-8.809v-8.043v-7.133v-6.27
		v-5.266v-4.168v-3.109v-1.867V195.5c-0.383,0-0.861,0-0.861,0h-0.67h-0.814h-0.957h-1.148h-1.246h-1.387h-1.484h-1.58h-1.676
		h-1.771h-1.867h-1.914h-1.914h-2.012h-2.01h-2.059h-2.059h-2.059h-2.059h-2.01h-2.012h-1.961h-1.867h-1.867h-1.771h-1.676h-1.58
		h-1.531h-1.34h-1.244h-1.15h-0.957h-0.812h-0.672c-0.479,0-0.766,0-0.766,0C184.912,195.5,184.912,595.5,184.912,595.5z"/>
</g>
</svg>
