<?xml version="1.0" encoding="utf-8"?>
<!-- Generator: Adobe Illustrator 16.0.1, SVG Export Plug-In . SVG Version: 6.00 Build 0)  -->
<!DOCTYPE svg PUBLIC "-//W3C//DTD SVG 1.0//EN" "http://www.w3.org/TR/2001/REC-SVG-20010904/DTD/svg10.dtd">
<svg version="1.0" id="_x31_" xmlns="http://www.w3.org/2000/svg" xmlns:xlink="http://www.w3.org/1999/xlink" x="0px" y="0px"
	 width="612px" height="792px" viewBox="0 0 612 792" enable-background="new 0 0 612 792" xml:space="preserve">
<g id="LWPOLYLINE">
	
		<path fill="none" stroke="#000000" stroke-width="0.7087" stroke-linecap="round" stroke-linejoin="round" stroke-miterlimit="10" d="
		M94.395,196c0,0.143,0.035,0.531,0.035,0.531l0.035,0.672l0.035,0.92l0.07,1.168l0.07,1.346l0.107,1.592l0.105,1.734l0.105,1.945
		l0.107,2.088l0.141,2.229l0.107,2.336l0.141,2.477l0.143,2.584l0.176,2.654l0.143,2.76l0.176,2.795l0.143,2.832l0.176,2.865
		l0.143,2.867l0.176,2.865l0.143,2.867l0.176,2.83l0.143,2.795l0.176,2.762l0.143,2.652l0.141,2.584l0.143,2.477l0.141,2.336
		l0.143,2.229l0.105,2.088l0.105,1.947l0.107,1.732l0.07,1.559l0.07,1.379l0.072,1.168l0.07,0.92l0.035,0.672v0.391
		c0.283,0.141,0.459,0.141,0.459,0.141c0.248,0,0.531,0,0.531,0c0.318,0,0.709,0,0.709,0h0.389h0.424h0.461h0.494h0.531h0.531h0.531
		h0.566h0.602h0.564h0.602h0.602h0.602h0.602h0.566h0.602h0.566h0.531h0.531h0.529h0.496h0.461h0.424h0.389h0.391
		c0.318,0,0.602,0,0.602,0c0.246,0,0.424,0,0.424,0c0.283-0.141,0.283-0.531,0.283-0.531l0.035-0.672l0.07-0.92l0.072-1.168
		l0.07-1.379l0.07-1.559l0.105-1.732l0.107-1.947l0.105-2.088l0.143-2.229l0.141-2.336l0.141-2.477l0.143-2.584l0.141-2.652
		l0.178-2.762l0.141-2.795l0.178-2.83l0.143-2.867l0.176-2.865l0.143-2.867l0.176-2.865l0.143-2.832l0.176-2.795l0.143-2.76
		l0.176-2.654l0.143-2.584l0.141-2.477l0.107-2.336l0.141-2.229l0.105-2.088l0.107-1.945l0.105-1.734l0.105-1.592l0.072-1.346
		l0.07-1.168l0.035-0.92l0.035-0.672l0.035-0.389C119.021,196,94.395,196,94.395,196z"/>
</g>
<g id="LWPOLYLINE_1_">
	
		<path fill="none" stroke="#000000" stroke-width="0.7087" stroke-linecap="round" stroke-linejoin="round" stroke-miterlimit="10" d="
		M145.102,196c0.035,0.143,0.035,0.531,0.035,0.531l0.035,0.672l0.07,0.92l0.072,1.168l0.07,1.346l0.07,1.592l0.105,1.734
		l0.107,1.945l0.141,2.088l0.107,2.229l0.141,2.336l0.143,2.477l0.141,2.584l0.141,2.654l0.178,2.76l0.143,2.795l0.176,2.832
		l0.143,2.865l0.176,2.867l0.178,2.865l0.141,2.867l0.178,2.83l0.141,2.795l0.143,2.762l0.176,2.652l0.143,2.584l0.141,2.477
		l0.143,2.336l0.105,2.229l0.105,2.088l0.143,1.947l0.07,1.732l0.107,1.559l0.07,1.379l0.07,1.168l0.035,0.92l0.035,0.672
		l0.035,0.391c0.283,0.141,0.496,0.141,0.496,0.141c0.248,0,0.566,0,0.566,0c0.354,0,0.742,0,0.742,0h0.461h0.459h0.496h0.531h0.566
		h0.602h0.602h0.602h0.637h0.637h0.672h0.637h0.637h0.674h0.637h0.637h0.602h0.602h0.602h0.566h0.529h0.496h0.461h0.459h0.389
		c0.355,0,0.674,0,0.674,0c0.246,0,0.459,0,0.459,0c0.283-0.141,0.318-0.531,0.318-0.531l0.035-0.672l0.035-0.92l0.072-1.168
		l0.07-1.379l0.105-1.559l0.107-1.732l0.105-1.947l0.105-2.088l0.143-2.229l0.105-2.336l0.143-2.477l0.141-2.584l0.178-2.652
		l0.141-2.762l0.178-2.795l0.141-2.83l0.178-2.867l0.141-2.865l0.178-2.867l0.141-2.865l0.178-2.832l0.141-2.795l0.178-2.76
		l0.141-2.654l0.143-2.584l0.141-2.477l0.143-2.336l0.141-2.229l0.107-2.088l0.105-1.945l0.105-1.734l0.072-1.592l0.07-1.346
		l0.07-1.168l0.07-0.92l0.035-0.672v-0.389C171.217,196,145.102,196,145.102,196z"/>
</g>
<g id="LWPOLYLINE_2_">
	
		<path fill="none" stroke="#000000" stroke-width="0.7087" stroke-linecap="round" stroke-linejoin="round" stroke-miterlimit="10" d="
		M474.152,462.668c0,0.281,0,0.99,0,0.99l0.072,1.133l0.07,1.627l0.141,1.982l0.072,2.406l0.141,2.689l0.213,3.043l0.141,3.326
		l0.143,3.609l0.211,3.893l0.213,4.104l0.213,4.318l0.211,4.457l0.283,4.602l0.213,4.74l0.213,4.885l0.283,4.883l0.211,5.023
		l0.283,4.955l0.213,5.025l0.283,4.953l0.283,4.953l0.213,4.812l0.211,4.742l0.283,4.6l0.213,4.529l0.213,4.248l0.211,4.104
		l0.143,3.893l0.213,3.609l0.141,3.326l0.213,3.043l0.07,2.76l0.141,2.336l0.143,1.982l0.07,1.627l0.07,1.203v0.709
		c0.213,0.211,0.496,0.211,0.496,0.211c0.354,0,0.779,0,0.779,0h0.566h0.637h0.637h0.777h0.85h0.85h0.92h0.99h0.992h1.061h1.062
		h1.061h1.133h1.133h1.131h1.133h1.133h1.062h1.131h1.062h1.061h0.992h0.99h0.92h0.85h0.85h0.707h0.707h0.637h0.496h0.496
		c0.354,0,0.566,0,0.566,0c0.283-0.211,0.283-0.92,0.283-0.92l0.07-1.203l0.07-1.627l0.141-1.982l0.072-2.336l0.141-2.76
		l0.143-3.043l0.211-3.326l0.143-3.609l0.213-3.893l0.211-4.104l0.213-4.248l0.213-4.529l0.211-4.6l0.283-4.742l0.213-4.812
		l0.283-4.953l0.213-4.953l0.283-5.025l0.211-4.955l0.283-5.023l0.213-4.883l0.283-4.885l0.213-4.74l0.211-4.602l0.283-4.457
		l0.213-4.318l0.213-4.104l0.141-3.893l0.213-3.609l0.141-3.326l0.143-3.043l0.141-2.689l0.143-2.406l0.07-1.982l0.141-1.627v-1.133
		l0.072-0.709C517.607,462.668,474.152,462.668,474.152,462.668z"/>
</g>
</svg>
