<?xml version="1.0" encoding="utf-8"?>
<!-- Generator: Adobe Illustrator 16.0.1, SVG Export Plug-In . SVG Version: 6.00 Build 0)  -->
<!DOCTYPE svg PUBLIC "-//W3C//DTD SVG 1.0//EN" "http://www.w3.org/TR/2001/REC-SVG-20010904/DTD/svg10.dtd">
<svg version="1.0" id="_x31_" xmlns="http://www.w3.org/2000/svg" xmlns:xlink="http://www.w3.org/1999/xlink" x="0px" y="0px"
	 width="612px" height="792px" viewBox="0 0 612 792" enable-background="new 0 0 612 792" xml:space="preserve">
<g id="LWPOLYLINE">
	
		<path fill="none" stroke="#000000" stroke-width="0.7087" stroke-linecap="round" stroke-linejoin="round" stroke-miterlimit="10" d="
		M154.061,595.5h0.527h1.676h2.633h3.637h4.549h5.408h6.225h6.939h7.611h8.281h8.809h9.336h9.812h10.148h10.531h10.818h11.059
		h11.201h11.346H306h11.393h11.297h11.201h11.107h10.818h10.531h10.148h9.861h9.287h8.807h8.234h7.658h6.99h6.127h5.457h4.5h3.639
		h2.68h1.627h0.574c0-0.383,0-0.766,0-0.766v-0.574v-0.766v-0.859v-1.055v-1.055v-1.242v-1.34v-1.438v-1.531v-1.531v-1.629v-1.723
		v-1.723v-1.82v-1.82v-1.816v-1.82v-1.82v-1.816v-1.82v-1.82v-1.723v-1.723v-1.629v-1.531v-1.531v-1.438v-1.34v-1.242v-1.148v-0.961
		v-0.859v-0.766v-0.574c0-0.383,0-0.672,0-0.672c-0.383-0.094-1.723-0.094-1.723-0.094h-2.105h-2.873h-3.639h-4.307h-4.883h-5.553
		h-6.033h-6.51h-7.084h-7.373h-7.754h-8.139h-8.328h-8.617h-8.713H355.4h-8.998h-9h-9.096h-9h-8.902h-8.713h-8.617h-8.328h-8.09
		H268.9h-7.42h-6.988h-6.559h-6.08h-5.504h-4.932h-4.26h-3.639h-2.871h-2.107h-1.291c-0.48,0-0.049-0.574-0.049-0.574l1.293-1.535
		l2.105-2.68l2.824-3.543l3.543-4.402l4.213-5.266l4.883-6.031l5.408-6.797l5.936-7.375l6.463-8.039l6.895-8.617l7.275-9.098
		l7.658-9.574l7.947-9.859l8.186-10.34l8.473-10.484l8.568-10.77l8.809-10.914l8.809-11.059l8.904-11.105l8.902-11.059l8.809-11.059
		l8.809-10.914l8.615-10.77l8.426-10.531l8.234-10.246l7.945-9.957l7.66-9.523l7.275-9.098l6.893-8.613l6.416-8.043l6.031-7.422
		l5.361-6.75l4.883-6.031l4.213-5.266l3.541-4.449l2.777-3.543l2.105-2.586l1.342-1.629l0.383-0.523c0-0.387,0-0.863,0-0.863v-0.672
		v-0.812v-1.004v-1.102v-1.246v-1.387v-1.484v-1.629v-1.676v-1.77v-1.82v-1.914v-1.961v-1.965v-2.059v-2.059v-2.008v-2.059v-2.059
		v-2.059v-1.965v-1.961v-1.914v-1.82v-1.77v-1.676v-1.629v-1.484v-1.387v-1.246v-1.102v-1.004v-0.812v-0.672c0-0.48,0-0.766,0-0.766
		c0-0.098-0.479-0.098-0.479-0.098h-1.629h-2.584h-3.543h-4.404h-5.17h-6.031h-6.701H416.1h-8.041h-8.521h-9h-9.479h-9.859h-10.244
		H350.52h-10.725h-10.818h-11.01h-11.01h-11.01h-10.963h-10.865h-10.676h-10.482h-10.148h-9.861h-9.479h-9.047h-8.57h-7.945h-7.42
		h-6.701h-5.984h-5.266h-4.404h-3.494h-2.586h-1.58H159.9c0,0.336,0,0.766,0,0.766v0.578v0.668v0.863v0.957v1.051v1.199v1.293v1.34
		v1.434v1.535v1.578v1.629v1.676v1.723v1.723v1.77v1.773v1.723v1.77v1.723v1.727v1.676v1.625v1.582v1.531v1.434v1.391v1.242v1.199
		v1.051v0.957v0.863v0.719v0.527c0,0.43,0,0.668,0,0.668c0.432,0.098,1.676,0.098,1.676,0.098h2.012h2.775h3.398h4.117h4.645h5.266
		h5.744h6.223h6.654h7.084h7.371h7.707h7.947h8.139h8.377h8.424h8.57h8.615h8.568h8.57h8.473h8.328h8.139h7.945h7.756h7.371h6.99
		h6.701h6.223h5.744h5.266h4.691h4.021h3.447h2.775h2.012h1.244c0.383,0,0,0.527,0,0.527l-1.244,1.625l-2.107,2.586l-2.775,3.543
		l-3.543,4.453l-4.213,5.266l-4.787,6.031l-5.361,6.75l-5.936,7.465l-6.414,8.043l-6.797,8.57l-7.182,9.094l-7.658,9.527
		l-7.852,9.957l-8.137,10.242l-8.426,10.531l-8.521,10.77l-8.664,10.918l-8.809,11.055l-8.807,11.105l-8.809,11.059l-8.76,11.059
		l-8.713,10.914l-8.521,10.77L228.498,445l-8.186,10.242l-7.85,9.863l-7.611,9.574l-7.229,9.094l-6.799,8.617l-6.414,8.043
		l-5.887,7.371l-5.41,6.797l-4.787,6.031l-4.164,5.266l-3.543,4.406l-2.824,3.539l-2.059,2.684l-1.244,1.531l-0.432,0.574V595.5z"/>
</g>
</svg>
