<?xml version="1.0" encoding="utf-8"?>
<!-- Generator: Adobe Illustrator 16.0.1, SVG Export Plug-In . SVG Version: 6.00 Build 0)  -->
<!DOCTYPE svg PUBLIC "-//W3C//DTD SVG 1.0//EN" "http://www.w3.org/TR/2001/REC-SVG-20010904/DTD/svg10.dtd">
<svg version="1.0" id="_x31_" xmlns="http://www.w3.org/2000/svg" xmlns:xlink="http://www.w3.org/1999/xlink" x="0px" y="0px"
	 width="612px" height="792px" viewBox="0 0 612 792" enable-background="new 0 0 612 792" xml:space="preserve">
<g id="LWPOLYLINE">
	
		<path fill="none" stroke="#000000" stroke-width="0.7087" stroke-linecap="round" stroke-linejoin="round" stroke-miterlimit="10" d="
		M460.699,306.828l-0.645-6.539l-0.922-6.266l-1.197-6.035l-1.475-5.848l-1.658-5.574l-1.842-5.344l-2.119-5.113l-2.303-4.926
		l-2.488-4.699l-2.58-4.469l-2.855-4.285l-3.039-4.051l-3.133-3.871l-3.316-3.684l-3.5-3.5l-3.502-3.273l-3.777-3.129l-3.775-2.949
		l-3.963-2.766l-3.961-2.578l-4.145-2.441l-4.146-2.258l-4.33-2.117l-4.33-1.98l-4.328-1.797l-4.422-1.66l-4.516-1.52l-4.422-1.379
		l-4.514-1.246l-4.514-1.105l-4.514-0.965l-4.514-0.875l-4.516-0.785l-4.514-0.598l-4.422-0.555l-4.422-0.414l-4.33-0.32
		l-4.236-0.23l-4.238-0.141l-4.146-0.043l-10.133,0.227l-9.766,0.691l-9.35,1.105l-8.982,1.52l-8.613,1.891l-8.246,2.305
		l-7.922,2.668l-7.555,2.996l-7.186,3.363l-6.908,3.684l-6.541,3.961l-6.219,4.285l-5.941,4.559l-5.574,4.793l-5.344,5.066
		l-5.02,5.25l-4.699,5.48l-4.467,5.711l-4.191,5.852l-3.916,6.078l-3.639,6.172l-3.408,6.359l-3.18,6.449l-2.9,6.539l-2.719,6.633
		l-2.441,6.727l-2.256,6.77l-2.074,6.863l-1.842,6.816l-1.611,6.91l-1.475,6.863l-1.244,6.863l-1.105,6.816l-0.92,6.773
		l-0.783,6.676l-0.6,6.633l-0.461,6.543l-0.322,6.402l-0.184,6.309l-0.092,6.172l0.045,5.758l0.186,5.898l0.275,6.031l0.369,6.129
		l0.553,6.262l0.645,6.359l0.828,6.449l0.969,6.492l1.105,6.543l1.336,6.539l1.473,6.633l1.658,6.543l1.844,6.633l2.072,6.445
		l2.256,6.543l2.488,6.449l2.764,6.262l2.947,6.266l3.18,6.172l3.453,5.988l3.686,5.895l3.961,5.715l4.238,5.527l4.561,5.344
		l4.789,5.156l5.113,4.883l5.436,4.699l5.711,4.516l6.08,4.145l6.404,3.867l6.678,3.594l7.094,3.316l7.416,2.949l7.785,2.578
		l8.152,2.305l8.521,1.84l8.936,1.566l9.305,1.016l9.719,0.645l10.088,0.277l4.975-0.094l4.975-0.184l4.975-0.277l4.975-0.461
		l4.975-0.551l4.883-0.645l4.975-0.832l4.883-0.922l4.883-1.012l4.789-1.199l4.791-1.379l4.699-1.383l4.605-1.66l4.605-1.656
		l4.516-1.844l4.514-2.027l4.33-2.117l4.328-2.305l4.146-2.395l4.053-2.578l3.963-2.672l3.869-2.855l3.775-2.949l3.594-3.133
		l3.5-3.223l3.41-3.41l3.223-3.59l3.041-3.688l2.947-3.867l2.764-3.961l2.58-4.238l2.395-4.238l2.211-4.516l2.027-4.605l1.934-4.789
		l1.658-4.977l1.475-5.066l1.197-5.25l1.014-5.438l0.83-5.527c-0.369,0-0.922,0-0.922,0h-0.736h-0.922h-1.014h-1.289h-1.383h-1.473
		h-1.658h-1.752h-1.842h-1.934h-2.027h-2.119h-2.119h-2.211h-2.211h-2.303h-2.211h-2.303h-2.211h-2.303h-2.119h-2.211H417.4h-2.027
		h-1.934h-1.936h-1.75h-1.566h-1.564h-1.383h-1.197h-1.105h-0.922h-0.736h-0.461c-0.461,0-1.105,2.859-1.105,2.859l-0.645,2.945
		l-0.738,2.766l-0.828,2.855l-0.83,2.672l-1.012,2.672l-1.014,2.578l-1.105,2.488l-1.197,2.488l-1.199,2.395l-1.289,2.301
		l-1.475,2.305L387,521.43l-1.566,2.121l-1.658,2.117l-1.658,1.934l-1.75,1.938l-1.842,1.84l-1.936,1.75l-1.934,1.75l-2.027,1.66
		l-2.119,1.473l-2.211,1.477l-2.303,1.473l-2.396,1.289l-2.395,1.199l-2.486,1.195l-2.58,1.105l-2.672,1.016l-2.764,0.922
		l-2.764,0.828l-2.855,0.738l-2.949,0.645l-3.039,0.551l-3.133,0.555l-3.225,0.367l-3.223,0.277l-3.41,0.273l-3.408,0.094
		l-3.5,0.094l-6.449-0.188l-6.355-0.367l-5.988-0.738l-5.805-1.012l-5.527-1.289l-5.344-1.473l-5.066-1.754l-4.883-2.023
		l-4.605-2.211l-4.469-2.488l-4.191-2.672l-4.006-2.949l-3.824-3.039l-3.639-3.316l-3.408-3.41l-3.225-3.684l-3.041-3.867
		l-2.9-3.965l-2.672-4.145l-2.533-4.238l-2.35-4.422l-2.211-4.512l-2.027-4.699l-1.889-4.789l-1.75-4.883L219.428,475L218,469.934
		l-1.336-5.16l-1.152-5.25l-1.059-5.344l-0.969-5.344l-0.828-5.434l-0.691-5.434l-0.598-5.484l-0.508-5.527l-0.367-5.527
		l-0.324-5.527l-0.184-5.574l-0.139-5.527l-0.045-5.527l0.045-4.879l0.094-4.977l0.137-5.066l0.23-5.16l0.322-5.25l0.416-5.25
		l0.506-5.344l0.6-5.391l0.689-5.387l0.783-5.438l0.922-5.391l1.059-5.387l1.197-5.391l1.291-5.344l1.475-5.297l1.564-5.203
		l1.797-5.16l1.889-5.066l2.072-4.973l2.258-4.883l2.441-4.746l2.58-4.605l2.809-4.516l2.994-4.281l3.178-4.148l3.41-3.961
		l3.592-3.777l3.822-3.59l4.055-3.363l4.33-3.133l4.514-2.855l4.744-2.625l5.021-2.395l5.297-2.074l5.527-1.797l5.803-1.52
		l6.035-1.199l6.355-0.828l6.633-0.551l6.91-0.188l5.527,0.094l5.344,0.324l5.066,0.504l4.789,0.645l4.516,0.832l4.422,0.965
		l4.053,1.152l3.961,1.289l3.686,1.43l3.5,1.52l3.316,1.656l3.133,1.797l2.947,1.844l2.764,1.934l2.58,2.027l2.395,2.117
		l2.211,2.168l2.119,2.211l1.936,2.211l1.842,2.301l1.658,2.305l1.475,2.348l1.473,2.305l1.291,2.348l1.105,2.305l1.105,2.301
		l0.92,2.305l0.922,2.211l0.736,2.164l0.738,2.164l0.553,2.027l0.553,1.98l0.461,1.938l0.367,1.793l0.369,1.707l0.277,1.609
		l0.275,1.477l0.184,1.336l0.186,1.242l0.184,1.059H460.699z"/>
</g>
</svg>
