<?xml version="1.0" encoding="utf-8"?>
<!-- Generator: Adobe Illustrator 16.0.1, SVG Export Plug-In . SVG Version: 6.00 Build 0)  -->
<!DOCTYPE svg PUBLIC "-//W3C//DTD SVG 1.0//EN" "http://www.w3.org/TR/2001/REC-SVG-20010904/DTD/svg10.dtd">
<svg version="1.0" id="_x31_" xmlns="http://www.w3.org/2000/svg" xmlns:xlink="http://www.w3.org/1999/xlink" x="0px" y="0px"
	 width="612px" height="792px" viewBox="0 0 612 792" enable-background="new 0 0 612 792" xml:space="preserve">
<g id="LWPOLYLINE">
	
		<path fill="none" stroke="#000000" stroke-width="0.7087" stroke-linecap="round" stroke-linejoin="round" stroke-miterlimit="10" d="
		M483.326,195.5c-0.383,0-0.861,0-0.861,0h-0.67h-0.861h-1.053h-1.148h-1.246h-1.436h-1.531h-1.725h-1.723h-1.818h-1.916h-1.914
		h-2.105h-2.012h-2.105h-2.107h-2.201h-2.107h-2.105h-2.105h-2.012h-2.105h-1.914h-1.916h-1.818h-1.725h-1.723h-1.531h-1.436h-1.246
		H430h-1.053h-0.861h-0.67h-0.48c-0.383,0-0.67,0.625-0.67,0.625l-0.67,1.867l-1.053,2.965l-1.436,4.117l-1.82,5.074l-2.201,6.082
		l-2.49,6.941l-2.775,7.801l-2.969,8.57l-3.35,9.285l-3.543,9.91l-3.734,10.484l-3.926,10.961l-4.02,11.441l-4.213,11.824
		l-4.309,12.156l-4.5,12.398l-4.404,12.59l-4.596,12.734l-4.498,12.781l-4.596,12.781l-4.5,12.688l-4.5,12.59l-4.404,12.395
		l-4.309,12.16l-4.213,11.824l-4.115,11.441L331.197,463l-3.734,10.434l-3.543,9.957l-3.254,9.285l-3.064,8.523l-2.775,7.754
		l-2.49,6.988l-2.201,6.031l-1.82,5.172l-1.436,4.02l-1.053,3.062l-0.67,1.82l-0.191,0.672l-0.24-0.672l-0.621-1.82l-1.006-3.062
		l-1.34-4.02l-1.725-5.172l-2.01-6.031l-2.299-6.988l-2.633-7.754l-2.824-8.523l-3.111-9.285l-3.303-9.957L280.359,463
		l-3.639-11.012l-3.83-11.441l-3.924-11.824l-4.07-12.16l-4.115-12.395l-4.213-12.59l-4.213-12.688l-4.26-12.781l-4.262-12.781
		l-4.26-12.734l-4.213-12.59l-4.117-12.398l-4.02-12.156l-3.975-11.824l-3.781-11.441l-3.686-10.961l-3.494-10.484l-3.305-9.91
		l-3.111-9.285l-2.824-8.57l-2.584-7.801l-2.346-6.941l-2.012-6.082l-1.723-5.074l-1.34-4.117l-1.006-2.965l-0.621-1.867
		l-0.193-0.625c-0.479,0-1.004,0-1.004,0h-0.766h-0.91h-1.148h-1.293h-1.389h-1.58h-1.723h-1.818h-1.916h-2.059h-2.057h-2.203h-2.25
		h-2.25h-2.346h-2.297h-2.395h-2.346h-2.346h-2.297h-2.297h-2.203h-2.201h-2.107h-2.01h-1.914h-1.82h-1.723h-1.58h-1.389h-1.291
		h-1.15h-0.908h-0.768h-0.525c-0.479,0-0.191,0.766-0.191,0.766l0.766,2.156l1.293,3.496l1.723,4.785l2.154,5.984l2.584,7.133
		l2.969,8.137l3.303,9.145l3.639,10.051l3.973,10.867l4.213,11.586l4.451,12.301l4.691,12.879l4.836,13.402l5.025,13.883
		l5.17,14.215l5.266,14.555l5.361,14.742l5.41,14.938l5.457,14.98l5.408,14.984l5.41,14.938l5.361,14.742l5.266,14.504l5.17,14.266
		l5.027,13.883l4.883,13.402l4.643,12.926l4.5,12.254l4.213,11.586l3.924,10.914l3.639,9.957l3.303,9.191l2.969,8.137l2.584,7.086
		l2.154,6.031l1.771,4.785l1.244,3.543l0.814,2.105l0.24,0.766c0.43,0,0.957,0,0.957,0h0.766h0.91h1.053h1.244h1.389h1.531h1.676
		h1.723h1.867h1.963h2.059h2.105h2.154h2.203h2.25h2.25h2.297h2.25h2.297h2.203h2.201h2.203h2.105h2.01h2.012h1.818h1.82h1.627
		h1.531h1.34h1.246h1.148h0.861h0.766h0.479C334.355,595.5,483.326,195.5,483.326,195.5z"/>
</g>
</svg>
