<?xml version="1.0" encoding="utf-8"?>
<!-- Generator: Adobe Illustrator 16.0.1, SVG Export Plug-In . SVG Version: 6.00 Build 0)  -->
<!DOCTYPE svg PUBLIC "-//W3C//DTD SVG 1.0//EN" "http://www.w3.org/TR/2001/REC-SVG-20010904/DTD/svg10.dtd">
<svg version="1.0" id="_x31_" xmlns="http://www.w3.org/2000/svg" xmlns:xlink="http://www.w3.org/1999/xlink" x="0px" y="0px"
	 width="612px" height="792px" viewBox="0 0 612 792" enable-background="new 0 0 612 792" xml:space="preserve">
<g id="LWPOLYLINE">
	
		<path fill="none" stroke="#000000" stroke-width="0.7087" stroke-linecap="round" stroke-linejoin="round" stroke-miterlimit="10" d="
		M514.16,357.746c-0.293,0-1.168,0.148-1.168,0.148l-1.605,0.145l-2.188,0.219l-2.629,0.219l-3.062,0.363l-3.648,0.367l-4.086,0.363
		l-4.375,0.512l-4.816,0.438l-5.105,0.582l-5.547,0.512l-5.688,0.582l-5.836,0.586l-6.129,0.656l-6.422,0.656l-6.418,0.656
		l-6.422,0.656l-6.711,0.656l-6.566,0.656l-6.711,0.73l-6.566,0.656l-6.562,0.656l-6.422,0.656l-6.273,0.656l-6.129,0.586
		l-5.836,0.656l-5.836,0.582l-5.398,0.512l-5.105,0.512l-4.816,0.508l-4.375,0.441l-4.086,0.438l-3.648,0.363l-3.062,0.293
		l-2.773,0.289l-2.043,0.219l-1.605,0.148l-0.875,0.145c-0.145-0.293,0.438-1.02,0.438-1.02l0.875-1.242l1.312-1.676l1.605-2.117
		l2.043-2.48l2.188-2.844l2.48-3.211l2.629-3.574l2.918-3.793l3.207-4.086l3.359-4.305l3.5-4.598l3.648-4.668l3.648-4.887
		l3.938-5.035l3.941-5.105l3.938-5.18l4.086-5.254l4.086-5.25l4.086-5.254l3.938-5.254l4.086-5.25l3.938-5.109l3.797-4.961
		l3.793-4.887l3.648-4.742l3.5-4.523l3.211-4.305l3.207-4.086l2.922-3.793l2.77-3.574l2.48-3.211l2.188-2.844l1.898-2.555
		l1.605-2.043l1.312-1.75l1.023-1.168l0.582-0.801c-0.293-0.512-0.875-0.875-0.875-0.875l-0.875-0.512l-1.023-0.582l-1.312-0.656
		l-1.312-0.875l-1.605-0.879l-1.75-1.02l-1.75-1.02l-2.043-1.168l-2.191-1.242l-2.188-1.238l-2.188-1.387l-2.48-1.312l-2.48-1.461
		l-2.48-1.457l-2.48-1.461l-2.48-1.457l-2.625-1.461l-2.629-1.531l-2.48-1.461l-2.625-1.457l-2.48-1.461l-2.336-1.383l-2.48-1.387
		l-2.332-1.312l-2.191-1.316l-2.039-1.238l-2.043-1.094l-1.898-1.094l-1.605-1.023l-1.605-0.875l-1.457-0.801l-1.168-0.73
		l-1.02-0.586l-0.879-0.508c-0.582-0.293-0.875-0.512-0.875-0.512c-0.289,0.219-0.727,1.02-0.727,1.02l-0.586,1.461l-0.875,1.898
		l-1.168,2.332l-1.168,2.844l-1.457,3.211l-1.75,3.648l-1.754,4.012l-2.039,4.305l-2.043,4.598l-2.191,4.887l-2.332,5.105
		l-2.48,5.328l-2.48,5.469l-2.629,5.691l-2.625,5.762l-2.625,5.836l-2.629,5.91l-2.77,5.984l-2.629,5.906l-2.77,5.91l-2.629,5.836
		l-2.625,5.836l-2.625,5.617l-2.48,5.473l-2.48,5.324l-2.191,5.109l-2.332,4.887l-2.043,4.598l-1.898,4.301l-1.895,4.016
		l-1.605,3.645l-1.461,3.211l-1.312,2.848l-1.02,2.332l-0.875,1.898l-0.73,1.457l-0.293,0.805c-0.293,0-0.73-0.805-0.73-0.805
		l-0.582-1.457l-0.875-1.898l-1.023-2.332l-1.164-2.848l-1.461-3.211l-1.457-3.645l-1.754-4.016l-1.895-4.301l-2.043-4.598
		l-2.043-4.887l-2.188-5.109l-2.336-5.324l-2.336-5.473l-2.48-5.617l-2.48-5.836l-2.48-5.836l-2.625-5.91l-2.625-5.906l-2.48-5.984
		l-2.629-5.91l-2.48-5.836l-2.48-5.762l-2.477-5.691l-2.336-5.469l-2.336-5.328l-2.188-5.105l-2.188-4.887l-1.898-4.598
		l-1.895-4.305l-1.754-4.012l-1.605-3.648l-1.312-3.211l-1.168-2.844l-1.164-2.332l-0.73-1.898l-0.582-1.461l-0.441-0.801
		c-0.582,0-1.164,0.293-1.164,0.293l-0.73,0.508l-1.023,0.586l-1.164,0.73l-1.316,0.801l-1.457,0.875l-1.605,1.023l-1.824,1.094
		l-1.824,1.094l-2.043,1.238l-2.113,1.316l-2.117,1.312l-2.262,1.387l-2.332,1.383l-2.41,1.461l-2.332,1.457l-2.48,1.461
		l-2.41,1.531l-2.406,1.461l-2.48,1.457l-2.336,1.461l-2.406,1.457l-2.336,1.461l-2.188,1.312l-2.188,1.387l-2.117,1.238
		l-1.969,1.242l-1.898,1.168l-1.82,1.02l-1.605,1.02l-1.461,0.879l-1.312,0.875l-1.168,0.656l-1.02,0.582l-0.73,0.512
		c-0.582,0.363-0.949,0.582-0.949,0.582c0.074,0.293,0.656,1.094,0.656,1.094l0.875,1.168l1.316,1.75l1.531,2.043l1.895,2.555
		l2.117,2.844l2.406,3.211l2.629,3.574l2.844,3.793l2.992,4.086l3.281,4.305l3.355,4.523l3.504,4.742l3.645,4.887l3.723,4.961
		l3.793,5.109l3.867,5.25l3.938,5.254l3.867,5.254l3.941,5.25l3.938,5.254l3.867,5.18l3.793,5.105l3.648,5.035l3.648,4.887
		l3.5,4.668l3.504,4.598l3.207,4.305l2.918,4.086l2.918,3.793l2.629,3.574l2.332,3.211l2.191,2.844l1.895,2.48l1.605,2.117
		l1.168,1.676l0.875,1.242l0.582,0.727c-0.145,0.293-1.02,0.148-1.02,0.148l-1.605-0.219l-2.043-0.219l-2.773-0.367l-3.062-0.363
		l-3.648-0.438l-4.086-0.512l-4.375-0.512l-4.816-0.582l-5.105-0.656l-5.398-0.656l-5.836-0.73l-5.836-0.73l-6.129-0.727
		l-6.348-0.73l-6.418-0.805l-6.492-0.801l-6.641-0.801l-6.637-0.805l-6.641-0.801l-6.566-0.805l-6.566-0.801l-6.418-0.805
		l-6.273-0.801l-6.129-0.73l-5.98-0.73l-5.691-0.727l-5.398-0.656l-5.18-0.586l-4.816-0.582l-4.375-0.586l-4.086-0.508l-3.574-0.438
		l-3.137-0.367l-2.699-0.293l-2.117-0.289l-1.531-0.148l-0.949-0.145c-0.363,0.438-0.363,1.094-0.363,1.094v0.875v1.094v1.242v1.531
		v1.605v1.824v1.969v2.117v2.188v2.336v2.406v2.48v2.625v2.555v2.699v2.699v2.699v2.699v2.699v2.625v2.629v2.551v2.555v2.406v2.336
		v2.188v2.117v1.969v1.75v1.68v1.457v1.312v1.098v0.801c0,0.656,0,1.02,0,1.02c0.363,0.148,1.238,0.074,1.238,0.074l1.531-0.074
		l2.117-0.145l2.555-0.145l3.137-0.219l3.5-0.219l3.941-0.219l4.375-0.293l4.742-0.293l5.035-0.289l5.324-0.367l5.543-0.289
		l5.84-0.441l5.98-0.363l6.199-0.363l6.277-0.367l6.418-0.438l6.422-0.363l6.492-0.438l6.492-0.367l6.492-0.438l6.418-0.363
		l6.277-0.438l6.199-0.363l5.98-0.367l5.84-0.363l5.543-0.367l5.398-0.363l4.961-0.293l4.668-0.289l4.379-0.293l3.938-0.219
		l3.648-0.219l3.062-0.219l2.629-0.145l2.043-0.148l1.457-0.074l1.023-0.07c0,0.293-0.586,1.02-0.586,1.02l-0.875,1.242
		l-1.312,1.676l-1.605,2.117l-1.895,2.48l-2.191,2.844l-2.48,3.211l-2.77,3.574l-2.918,3.793l-3.211,4.086l-3.355,4.305
		l-3.504,4.598l-3.5,4.668l-3.793,4.887l-3.941,5.035l-3.867,5.105l-4.012,5.18l-4.012,5.254l-4.086,5.25l-4.086,5.254l-4.012,5.254
		l-4.012,5.25l-3.941,5.109l-3.863,4.961l-3.723,4.961l-3.648,4.668l-3.5,4.523l-3.285,4.375l-3.207,4.086l-2.918,3.793
		l-2.699,3.504l-2.48,3.211l-2.191,2.918l-1.969,2.48l-1.605,2.039l-1.312,1.754l-0.949,1.164l-0.582,0.73
		c0.293,0.586,0.949,0.875,0.949,0.875l0.801,0.438l1.023,0.586l1.238,0.582l1.387,0.73l1.531,0.875l1.75,0.875l1.824,1.023
		l2.043,1.02l2.117,1.168l2.188,1.168l2.262,1.168l2.406,1.164l2.48,1.316l2.48,1.312l2.48,1.312l2.629,1.457l2.551,1.316
		l2.555,1.312l2.555,1.312l2.551,1.312l2.48,1.312l2.41,1.312l2.406,1.316l2.332,1.164l2.191,1.168l2.113,1.168l1.973,1.02
		l1.895,1.023l1.68,0.875l1.605,0.73l1.383,0.73l1.242,0.727l1.02,0.586l0.805,0.289c0.582,0.441,1.02,0.586,1.02,0.586
		c0.148-0.293,0.586-1.023,0.586-1.023l0.582-1.457l0.875-1.898l1.168-2.332l1.312-2.918l1.461-3.211l1.605-3.648l1.75-3.938
		l2.043-4.379l2.043-4.523l2.188-4.961l2.336-5.105l2.48-5.254l2.48-5.543l2.625-5.547l2.625-5.836l2.629-5.836l2.77-5.98
		l2.629-5.836l2.77-5.984l2.629-5.98l2.625-5.836l2.625-5.691l2.629-5.691l2.48-5.543l2.48-5.254l2.332-5.18l2.188-4.887
		l2.043-4.594l2.043-4.305l1.754-3.941l1.602-3.648l1.605-3.281l1.168-2.773l1.168-2.406l0.875-1.898l0.582-1.383l0.438-0.879
		c0.293,0,0.586,0.879,0.586,0.879l0.73,1.457l0.875,1.969l1.02,2.41l1.312,2.844l1.461,3.355l1.605,3.723l1.895,4.012l1.898,4.449
		l2.043,4.742l2.332,4.961l2.191,5.254l2.48,5.398l2.48,5.688l2.625,5.691l2.625,5.98l2.629,5.984l2.77,5.98l2.629,6.129l2.77,6.129
		l2.629,5.98l2.625,5.984l2.625,5.98l2.629,5.691l2.48,5.691l2.48,5.398l2.332,5.25l2.191,4.961l2.043,4.668l2.039,4.523
		l1.754,3.941l1.75,3.793l1.457,3.355l1.168,2.773l1.168,2.48l0.875,1.895l0.586,1.461l0.438,0.875c0.582,0,1.164-0.438,1.164-0.438
		l0.73-0.438l1.023-0.73l1.164-0.73l1.316-0.875l1.457-1.02l1.605-1.023l1.75-1.168l1.898-1.312l2.043-1.312l2.043-1.457
		l2.188-1.316l2.336-1.602l2.332-1.461l2.336-1.605l2.332-1.605l2.48-1.605l2.48-1.602l2.336-1.605l2.48-1.605l2.336-1.605
		l2.332-1.605l2.336-1.605l2.336-1.457l2.188-1.461l2.043-1.312l2.043-1.457l1.895-1.168l1.75-1.168l1.605-1.168l1.461-0.875
		l1.312-0.875l1.168-0.875l1.02-0.586l0.73-0.582c0.582-0.293,0.875-0.582,0.875-0.582c0-0.293-0.582-1.023-0.582-1.023
		l-0.875-1.312l-1.316-1.605l-1.602-2.043l-1.754-2.48l-2.188-2.773l-2.336-3.062l-2.625-3.5l-2.918-3.648l-3.062-4.086
		l-3.211-4.086l-3.355-4.523l-3.504-4.523l-3.645-4.812l-3.648-4.816l-3.793-4.961l-3.941-5.105l-3.938-5.109l-3.941-5.105
		l-3.938-5.105l-3.793-5.105l-3.941-5.109l-3.793-5.031l-3.648-4.891l-3.648-4.742l-3.5-4.594l-3.504-4.379l-3.207-4.23
		l-2.918-3.938l-2.918-3.797l-2.629-3.426l-2.332-3.137l-2.191-2.773l-1.895-2.406l-1.605-2.043l-1.168-1.68l-0.875-1.168
		c-0.582-0.801-0.875-1.02-0.875-1.02c0.438,0,1.312,0.145,1.312,0.145l1.605,0.148l2.043,0.219l2.773,0.289l3.062,0.293
		l3.648,0.363l4.086,0.438l4.375,0.438l4.816,0.512l5.105,0.512l5.398,0.512l5.836,0.582l5.836,0.656l6.129,0.586l6.273,0.656
		l6.422,0.656l6.562,0.656l6.566,0.656l6.711,0.73l6.566,0.656l6.711,0.656l6.422,0.656l6.418,0.656l6.422,0.656l6.129,0.656
		l5.836,0.586l5.688,0.582l5.547,0.512l5.105,0.582l4.816,0.438l4.375,0.512l4.086,0.363l3.648,0.367l3.062,0.363l2.629,0.219
		l2.188,0.219l1.605,0.145l0.875,0.148C514.16,433.473,514.16,357.746,514.16,357.746z"/>
</g>
</svg>
