<?xml version="1.0" encoding="utf-8"?>
<!-- Generator: Adobe Illustrator 16.0.1, SVG Export Plug-In . SVG Version: 6.00 Build 0)  -->
<!DOCTYPE svg PUBLIC "-//W3C//DTD SVG 1.0//EN" "http://www.w3.org/TR/2001/REC-SVG-20010904/DTD/svg10.dtd">
<svg version="1.0" id="_x31_" xmlns="http://www.w3.org/2000/svg" xmlns:xlink="http://www.w3.org/1999/xlink" x="0px" y="0px"
	 width="612px" height="792px" viewBox="0 0 612 792" enable-background="new 0 0 612 792" xml:space="preserve">
<g id="LWPOLYLINE">
	
		<path fill="none" stroke="#000000" stroke-width="0.7087" stroke-linecap="round" stroke-linejoin="round" stroke-miterlimit="10" d="
		M400.113,596c0.086,0,0.302,0,0.302,0h0.388h0.518h0.646h0.776h0.862h0.991h1.078h1.207h1.251h1.336h1.38h1.466h1.466h1.553h1.595
		h1.596h1.595h1.639h1.596h1.638h1.596h1.552h1.553h1.509h1.423h1.423h1.293h1.294h1.164h1.078h0.991h0.862h0.776h0.646h0.518h0.388
		h0.259c0.043-0.215,0.043-0.389,0.043-0.389c0-0.172,0-0.43,0-0.43v-0.26v-0.301v-0.346v-0.346v-0.387v-0.432v-0.432v-0.43v-0.432
		v-0.475v-0.518v-0.475v-0.475v-0.516v-0.475v-0.518v-0.475v-0.475v-0.475v-0.475v-0.43v-0.432v-0.432v-0.344v-0.389V584.1v-0.301
		v-0.26v-0.215c0-0.215,0-0.389,0-0.389c-0.172-0.172-0.345-0.172-0.345-0.172h-0.302h-0.345h-0.432h-0.474H440.9h-0.604h-0.647
		h-0.689h-0.733h-0.775h-0.776h-0.862h-0.819h-0.862h-0.905h-0.862h-0.905h-0.905h-0.862h-0.905h-0.862h-0.862h-0.819h-0.776h-0.776
		h-0.732h-0.69h-0.646h-0.604h-0.561h-0.475h-0.431h-0.345h-0.302c-0.216,0-0.346,0-0.346,0c-0.043,0-0.043-0.389-0.043-0.389
		v-1.033v-1.682v-2.285v-2.846v-3.406v-3.924v-4.398v-4.785v-5.217v-5.562v-5.863v-6.209v-6.424v-6.639v-6.812v-6.941v-7.072v-7.156
		v-7.199v-7.158v-7.156v-7.072v-6.941v-6.812v-6.639v-6.467v-6.166v-5.863v-5.562v-5.217v-4.785v-4.398v-3.924v-3.406v-2.846v-2.307
		v-1.68v-1.035v-0.346c0.173,0,0.389,0,0.389,0h0.302h0.345h0.431h0.475h0.561h0.604h0.646h0.69h0.732h0.776h0.776h0.819h0.862
		h0.862h0.905h0.862h0.905h0.905h0.862h0.905h0.862h0.819h0.862h0.776h0.775h0.733h0.689h0.647h0.604h0.561h0.474h0.432h0.345h0.302
		c0.173,0,0.302,0,0.302,0c0.043-0.215,0.043-0.367,0.043-0.367c0-0.215,0-0.451,0-0.451v-0.26v-0.301v-0.346v-0.344v-0.389v-0.41
		v-0.432v-0.43v-0.475v-0.475v-0.475v-0.496v-0.475v-0.494v-0.518v-0.475v-0.496v-0.475v-0.475v-0.473v-0.432v-0.432v-0.41v-0.387
		v-0.346v-0.346v-0.301v-0.26v-0.236c0-0.193,0-0.367,0-0.367c-0.043-0.215-0.302-0.215-0.302-0.215h-0.388h-0.518h-0.646h-0.776
		h-0.862h-0.991h-1.078h-1.164h-1.294h-1.293h-1.423h-1.423h-1.509h-1.553h-1.552h-1.596h-1.638h-1.596h-1.639h-1.595h-1.596h-1.595
		h-1.553h-1.466h-1.466h-1.38h-1.336h-1.251h-1.207h-1.078h-0.991h-0.862h-0.776h-0.646h-0.518h-0.388h-0.216
		C400.113,377.881,400.113,596,400.113,596z"/>
</g>
<g id="LWPOLYLINE_1_">
	
		<path fill="none" stroke="#000000" stroke-width="0.7087" stroke-linecap="round" stroke-linejoin="round" stroke-miterlimit="10" d="
		M169.642,265.738l1.487,0.15l1.423,0.195l1.337,0.215l1.25,0.238l1.207,0.258l1.143,0.303l1.057,0.344l1.013,0.346l0.949,0.387
		l0.884,0.41l0.819,0.432l0.775,0.453l0.733,0.475l0.668,0.494l0.604,0.518l0.582,0.518l0.518,0.561l0.496,0.582l0.431,0.582
		l0.41,0.604l0.345,0.625l0.323,0.625l0.302,0.648l0.259,0.668l0.237,0.668l0.194,0.689l0.172,0.689l0.151,0.689l0.129,0.713
		l0.108,0.711l0.086,0.711l0.064,0.732l0.043,0.713l0.043,0.732l0.021,0.732l0.021,0.732l0.022,0.756v0.732v0.732v0.713
		c0,0.15,0,0.236,0,0.236c0,0.193,0,0.324,0,0.324c0,0.129,0,0.279,0,0.279c0,0.15,0,0.324,0,0.324c0,0.15,0,0.344,0,0.344
		c0,0.172,0,0.367,0,0.367c0,0.193,0,0.389,0,0.389c0,0.193,0,0.387,0,0.387c0,0.195,0,0.41,0,0.41c0,0.193,0,0.389,0,0.389
		c0,0.172,0,0.365,0,0.365c0,0.174,0,0.346,0,0.346c0,0.172,0,0.322,0,0.322c0,0.131,0,0.281,0,0.281c0,0.107,0,0.215,0,0.215
		c0,0.174,0,0.238,0,0.238c0,0.086,0,1.4,0,1.4l0.021,1.314l0.021,1.295l0.043,1.293l0.043,1.271l0.086,1.25l0.087,1.229l0.129,1.23
		l0.13,1.207l0.172,1.186l0.216,1.164l0.237,1.143l0.259,1.121l0.302,1.1l0.345,1.076l0.409,1.057l0.432,1.014l0.474,1.014
		l0.539,0.969l0.582,0.928l0.647,0.928l0.689,0.883l0.755,0.842l0.818,0.818l0.884,0.775l0.949,0.756l1.034,0.711l1.078,0.668
		l1.164,0.646l1.251,0.604l1.314,0.561l1.401,0.518l1.487,0.475l1.553,0.432l1.659,0.387l1.746,0.346l1.854,0.303l1.94,0.258
		l2.026,0.193l2.134,0.174c0-0.131,0-0.238,0-0.238c0-0.107,0-0.258,0-0.258c0-0.15,0-0.346,0-0.346c0-0.193,0-0.41,0-0.41v-0.236
		v-0.236v-0.26v-0.258v-0.281v-0.279v-0.303v-0.279v-0.303v-0.301v-0.281v-0.301v-0.303v-0.279v-0.281v-0.279v-0.281v-0.236v-0.26
		v-0.215c0-0.215,0-0.432,0-0.432c0-0.172,0-0.344,0-0.344c0-0.131,0-0.26,0-0.26c0-0.193,0-0.215,0-0.215l-1.358-0.15l-1.293-0.195
		l-1.207-0.236l-1.164-0.26l-1.1-0.301l-1.035-0.324l-0.97-0.365l-0.927-0.389l-0.862-0.432l-0.798-0.453l-0.776-0.473l-0.689-0.518
		l-0.669-0.539l-0.604-0.539l-0.561-0.582l-0.539-0.604l-0.474-0.625l-0.432-0.625l-0.409-0.67l-0.366-0.668l-0.324-0.689
		l-0.302-0.689l-0.258-0.711l-0.237-0.734l-0.216-0.732l-0.173-0.732l-0.172-0.754l-0.13-0.756l-0.107-0.754l-0.107-0.775
		l-0.087-0.756l-0.043-0.775l-0.064-0.754l-0.021-0.777l-0.043-0.754v-0.775l-0.021-0.756v-0.754v-0.732v-0.734
		c0-0.15,0-0.236,0-0.236c0-0.193,0-0.303,0-0.303c0-0.15,0-0.279,0-0.279c0-0.15,0-0.324,0-0.324c0-0.172,0-0.344,0-0.344
		c0-0.195,0-0.367,0-0.367c0-0.193,0-0.41,0-0.41c0-0.193,0-0.387,0-0.387c0-0.195,0-0.389,0-0.389c0-0.193,0-0.389,0-0.389
		c0-0.193,0-0.387,0-0.387c0-0.174,0-0.346,0-0.346c0-0.15,0-0.301,0-0.301c0-0.152,0-0.281,0-0.281c0-0.129,0-0.236,0-0.236
		c0-0.174,0-0.238,0-0.238c0-0.086,0-0.947,0-0.947v-0.885l-0.022-0.883v-0.906l-0.021-0.906l-0.021-0.904l-0.043-0.906
		l-0.064-0.926l-0.064-0.928l-0.087-0.904l-0.107-0.928l-0.129-0.906l-0.151-0.904l-0.173-0.906l-0.193-0.904l-0.237-0.885
		l-0.259-0.883l-0.28-0.863l-0.323-0.84l-0.366-0.842l-0.41-0.818l-0.431-0.799l-0.475-0.797l-0.539-0.754l-0.561-0.734
		l-0.625-0.711l-0.668-0.689l-0.712-0.668l-0.775-0.625l-0.841-0.604l-0.884-0.582l-0.949-0.539l-0.991-0.496l-1.078-0.475
		l-1.121-0.432l-1.207-0.387l-1.271-0.346l-1.337-0.324l-1.401-0.258l-1.487-0.215l1.487-0.238l1.401-0.258l1.337-0.303l1.271-0.365
		l1.207-0.389l1.121-0.432l1.078-0.475l0.991-0.496l0.949-0.537l0.884-0.584l0.841-0.604l0.775-0.625l0.712-0.668l0.668-0.689
		l0.625-0.711l0.561-0.734l0.539-0.754l0.475-0.775l0.431-0.82l0.41-0.818l0.366-0.818l0.323-0.863l0.28-0.861l0.259-0.885
		l0.237-0.885l0.193-0.883l0.173-0.906l0.151-0.904l0.129-0.928l0.107-0.926l0.087-0.906l0.064-0.928l0.064-0.904l0.043-0.928
		l0.021-0.904l0.021-0.906v-0.904l0.022-0.885v-0.885v-0.861c0-0.215,0-0.281,0-0.281c0-0.172,0-0.279,0-0.279
		c0-0.215,0-0.324,0-0.324c0-0.107,0-0.236,0-0.236c0-0.129,0-0.258,0-0.258c0-0.131,0-0.26,0-0.26c0-0.129,0-0.258,0-0.258
		c0-0.131,0-0.26,0-0.26c0-0.129,0-0.258,0-0.258c0-0.129,0-0.238,0-0.238c0-0.107,0-0.236,0-0.236c0-0.193,0-0.281,0-0.281
		c0-0.215,0-0.258,0-0.258c0-0.107,0-0.906,0-0.906v-0.797v-0.818l0.021-0.82v-0.84l0.043-0.82l0.021-0.84l0.064-0.82l0.043-0.818
		l0.087-0.84l0.107-0.82l0.107-0.818l0.13-0.799l0.172-0.797l0.173-0.797l0.216-0.777l0.237-0.775l0.258-0.754l0.302-0.734
		l0.324-0.711l0.366-0.711l0.409-0.689l0.432-0.648l0.474-0.646l0.539-0.625l0.561-0.582l0.604-0.561l0.669-0.539l0.689-0.496
		l0.776-0.473l0.798-0.453l0.862-0.41l0.927-0.367l0.97-0.344l1.035-0.303l1.1-0.258l1.164-0.215l1.207-0.174l1.293-0.15
		l1.358-0.086c0-0.129,0-0.217,0-0.217c0-0.129,0-0.258,0-0.258c0-0.172,0-0.346,0-0.346c0-0.193,0-0.408,0-0.408v-0.238v-0.236
		v-0.26v-0.279v-0.26v-0.301v-0.281v-0.301v-0.281v-0.301v-0.303v-0.301v-0.281v-0.301V198.5v-0.279v-0.26v-0.258v-0.236v-0.238
		c0-0.215,0-0.41,0-0.41c0-0.193,0-0.344,0-0.344c0-0.15,0-0.26,0-0.26c0-0.215,0-0.215,0-0.215l-2.264,0.15l-2.155,0.217
		l-2.026,0.279l-1.94,0.324l-1.811,0.387l-1.725,0.432l-1.639,0.496l-1.53,0.539l-1.423,0.561l-1.358,0.625l-1.25,0.668
		l-1.187,0.711l-1.099,0.756l-1.014,0.775l-0.948,0.842l-0.862,0.84l-0.798,0.906l-0.733,0.904l-0.668,0.971l-0.625,0.971
		l-0.539,1.012l-0.496,1.014l-0.452,1.057l-0.389,1.078l-0.345,1.1l-0.302,1.121l-0.28,1.121l-0.216,1.143l-0.193,1.164
		l-0.151,1.164l-0.129,1.186l-0.108,1.186l-0.086,1.207l-0.064,1.186l-0.043,1.207l-0.021,1.207l-0.021,1.207l-0.021,1.207v1.207
		v1.186c0,0.195,0,0.26,0,0.26c0,0.193,0,0.301,0,0.301c0,0.131,0,0.26,0,0.26c0,0.129,0,0.279,0,0.279c0,0.152,0,0.303,0,0.303
		c0,0.15,0,0.301,0,0.301c0,0.174,0,0.346,0,0.346c0,0.15,0,0.324,0,0.324c0,0.172,0,0.322,0,0.322c0,0.172,0,0.324,0,0.324
		c0,0.15,0,0.301,0,0.301c0,0.15,0,0.281,0,0.281c0,0.129,0,0.236,0,0.236c0,0.215,0,0.303,0,0.303c0,0.193,0,0.236,0,0.236
		c0,0.043,0,0.561,0,0.561v0.539v0.518v0.518v0.518l-0.022,0.494v0.518l-0.021,0.496l-0.021,0.496l-0.021,0.496l-0.043,0.496
		l-0.021,0.475l-0.064,0.496l-0.043,0.473l-0.065,0.475l-0.064,0.475l-0.086,0.453l-0.086,0.475l-0.087,0.451l-0.129,0.432
		l-0.108,0.453l-0.129,0.432l-0.15,0.451l-0.173,0.41l-0.173,0.432l-0.172,0.432l-0.216,0.408l-0.216,0.41l-0.237,0.389
		l-0.259,0.408l-0.258,0.389l-0.302,0.389l-0.302,0.365l-0.324,0.367l-0.345,0.367l-0.366,0.365l-0.388,0.367l-0.41,0.346
		l-0.409,0.322l-0.453,0.346l-0.409,0.258l-0.41,0.26l-0.388,0.236l-0.409,0.215l-0.41,0.238l-0.409,0.215l-0.41,0.195l-0.409,0.193
		l-0.41,0.193l-0.409,0.174l-0.409,0.172l-0.41,0.15l-0.409,0.172l-0.41,0.131l-0.388,0.15l-0.409,0.129l-0.389,0.129l-0.388,0.109
		l-0.389,0.107l-0.388,0.107l-0.388,0.086l-0.367,0.086l-0.366,0.086l-0.366,0.086l-0.345,0.066l-0.345,0.064l-0.346,0.064
		l-0.345,0.043l-0.302,0.064l-0.323,0.043l-0.302,0.043l-0.302,0.021l-0.28,0.043l-0.28,0.021l-0.259,0.021h-0.259l-0.237,0.021
		h-0.237c-0.215,0.021-0.431,0.021-0.431,0.021V265.738z"/>
</g>
</svg>
