<?xml version="1.0" encoding="utf-8"?>
<!-- Generator: Adobe Illustrator 16.0.1, SVG Export Plug-In . SVG Version: 6.00 Build 0)  -->
<!DOCTYPE svg PUBLIC "-//W3C//DTD SVG 1.0//EN" "http://www.w3.org/TR/2001/REC-SVG-20010904/DTD/svg10.dtd">
<svg version="1.0" id="_x31_" xmlns="http://www.w3.org/2000/svg" xmlns:xlink="http://www.w3.org/1999/xlink" x="0px" y="0px"
	 width="612px" height="792px" viewBox="0 0 612 792" enable-background="new 0 0 612 792" xml:space="preserve">
<g id="LWPOLYLINE">
	
		<path fill="none" stroke="#000000" stroke-width="0.7087" stroke-linecap="round" stroke-linejoin="round" stroke-miterlimit="10" d="
		M437.124,377.881c-0.087,0-0.302,0-0.302,0h-0.389h-0.517h-0.647h-0.775h-0.862h-0.992h-1.078h-1.207h-1.25h-1.294h-1.423h-1.423
		h-1.509h-1.552h-1.553h-1.595h-1.639h-1.595h-1.639h-1.639h-1.595h-1.553h-1.552h-1.509h-1.423h-1.38h-1.337h-1.25h-1.207h-1.078
		h-0.991h-0.862h-0.776h-0.646h-0.518h-0.389h-0.215c-0.087,0.215-0.087,0.389-0.087,0.389c0,0.193,0,0.43,0,0.43v0.26v0.301v0.346
		v0.346v0.387v0.41v0.432v0.432v0.473v0.475v0.475v0.496v0.475v0.518v0.494v0.475v0.496v0.475v0.475v0.475v0.43v0.432v0.41v0.389
		v0.344v0.346v0.301v0.26v0.236c0,0.215,0,0.367,0,0.367c0.173,0.215,0.389,0.215,0.389,0.215h0.259h0.388h0.388h0.518h0.518h0.604
		h0.646h0.69h0.732h0.776h0.819h0.819h0.819h0.862h0.905h0.905h0.862h0.905h0.905h0.862h0.862h0.862h0.819h0.776h0.775h0.733h0.689
		h0.647h0.604h0.561h0.474h0.432h0.345h0.302c0.216,0,0.345,0,0.345,0c0.043,0,0.043,0.346,0.043,0.346v1.035v1.68v2.307v2.846
		v3.406v3.924v4.398v4.785v5.217v5.562v5.863v6.166v6.467v6.639v6.812v6.941v7.072v7.156v7.158v7.199v7.156v7.072v6.941v6.812v6.639
		v6.424v6.209v5.863v5.562v5.217v4.785v4.398v3.924v3.406v2.846v2.285v1.682v1.033v0.389c-0.172,0-0.388,0-0.388,0h-0.302h-0.345
		h-0.432h-0.474h-0.561h-0.604h-0.647h-0.689h-0.733h-0.775h-0.776h-0.819h-0.862h-0.862h-0.862h-0.905h-0.905h-0.862h-0.905h-0.905
		h-0.862h-0.819h-0.819h-0.819h-0.776h-0.732h-0.69h-0.646h-0.604h-0.518h-0.518h-0.388h-0.388h-0.259c-0.216,0-0.345,0-0.345,0
		c-0.044,0.172-0.044,0.346-0.044,0.346c0,0.215,0,0.43,0,0.43v0.26v0.301v0.346v0.389v0.344v0.432v0.432v0.43v0.475v0.475v0.475
		v0.475v0.518v0.475v0.516v0.475v0.475v0.518v0.475v0.432v0.43v0.432v0.432v0.387v0.346v0.346v0.301v0.26v0.258
		c0,0.172,0,0.346,0,0.346c0.087,0.215,0.302,0.215,0.302,0.215h0.389h0.518h0.646h0.776h0.862h0.991h1.078h1.207h1.25h1.337h1.38
		h1.423h1.509h1.552h1.553h1.595h1.639h1.639h1.595h1.639h1.595h1.553h1.552h1.509h1.423h1.423h1.294h1.25h1.207h1.078h0.992h0.862
		h0.775h0.647h0.517h0.389h0.215C437.124,596,437.124,377.881,437.124,377.881z"/>
</g>
<g id="LWPOLYLINE_1_">
	
		<path fill="none" stroke="#000000" stroke-width="0.7087" stroke-linecap="round" stroke-linejoin="round" stroke-miterlimit="10" d="
		M226.097,257.805l-1.487-0.215l-1.401-0.236l-1.336-0.26l-1.272-0.301l-1.207-0.303l-1.121-0.344l-1.078-0.346l-1.013-0.389
		l-0.927-0.387l-0.905-0.432l-0.819-0.432l-0.776-0.453l-0.711-0.496l-0.669-0.494l-0.625-0.496l-0.582-0.539l-0.518-0.539
		l-0.474-0.561l-0.453-0.582l-0.388-0.582l-0.367-0.604l-0.323-0.625l-0.302-0.625l-0.259-0.646l-0.215-0.648l-0.216-0.646
		l-0.173-0.668l-0.15-0.689l-0.108-0.668l-0.107-0.689l-0.086-0.713l-0.065-0.689l-0.064-0.711l-0.043-0.732l-0.021-0.713
		l-0.021-0.711l-0.021-0.732v-0.732v-0.713v-0.732c0-0.15,0-0.236,0-0.236c0-0.195,0-0.324,0-0.324c0-0.129,0-0.279,0-0.279
		c0-0.152,0-0.303,0-0.303c0-0.172,0-0.367,0-0.367c0-0.172,0-0.365,0-0.365c0-0.195,0-0.389,0-0.389c0-0.193,0-0.389,0-0.389
		c0-0.193,0-0.408,0-0.408c0-0.195,0-0.389,0-0.389c0-0.172,0-0.367,0-0.367c0-0.172,0-0.344,0-0.344c0-0.15,0-0.324,0-0.324
		c0-0.129,0-0.258,0-0.258c0-0.129,0-0.238,0-0.238c0-0.172,0-0.236,0-0.236c0-0.086,0-1.4,0-1.4v-1.316l-0.021-1.293l-0.043-1.293
		l-0.021-1.25l-0.065-1.273l-0.086-1.229l-0.086-1.229l-0.13-1.207l-0.15-1.186l-0.194-1.164l-0.194-1.143l-0.259-1.121l-0.279-1.1
		l-0.324-1.078l-0.366-1.057l-0.431-1.012l-0.453-0.992l-0.518-0.992l-0.582-0.926l-0.604-0.928l-0.689-0.863l-0.755-0.861
		l-0.798-0.818l-0.884-0.777l-0.948-0.754l-1.014-0.711l-1.099-0.668l-1.164-0.648l-1.251-0.582l-1.336-0.561l-1.423-0.516
		l-1.51-0.496l-1.595-0.432l-1.682-0.389l-1.789-0.344l-1.897-0.303l-1.983-0.258l-2.091-0.195l-2.199-0.15c0,0.107,0,0.215,0,0.215
		c0,0.109,0,0.26,0,0.26c0,0.15,0,0.344,0,0.344c0,0.195,0,0.41,0,0.41v0.238v0.236v0.258v0.26v0.279v0.281v0.301v0.281v0.301v0.303
		v0.301v0.281v0.301v0.281v0.301v0.26v0.279v0.26v0.236v0.238c0,0.215,0,0.408,0,0.408c0,0.174,0,0.346,0,0.346
		c0,0.129,0,0.258,0,0.258c0,0.195,0,0.217,0,0.217l1.358,0.086l1.294,0.15l1.229,0.174l1.164,0.215l1.078,0.258l1.034,0.303
		l0.992,0.322l0.905,0.389l0.862,0.41l0.819,0.432l0.754,0.473l0.712,0.496l0.646,0.539l0.604,0.539l0.582,0.582l0.518,0.604
		l0.475,0.646l0.431,0.646l0.41,0.67l0.366,0.689l0.323,0.689l0.302,0.711l0.28,0.734l0.237,0.754l0.193,0.754l0.194,0.754
		l0.151,0.777l0.129,0.775l0.13,0.799l0.086,0.775l0.086,0.775l0.064,0.799l0.044,0.797l0.043,0.775l0.021,0.777l0.021,0.775v0.754
		l0.021,0.756v0.754v0.732c0,0.195,0,0.281,0,0.281c0,0.172,0,0.301,0,0.301c0,0.107,0,0.238,0,0.238c0,0.129,0,0.279,0,0.279
		c0,0.15,0,0.303,0,0.303c0,0.15,0,0.322,0,0.322c0,0.152,0,0.324,0,0.324c0,0.172,0,0.322,0,0.322c0,0.174,0,0.324,0,0.324
		c0,0.172,0,0.324,0,0.324c0,0.15,0,0.301,0,0.301c0,0.15,0,0.281,0,0.281c0,0.129,0,0.258,0,0.258c0,0.193,0,0.279,0,0.279
		c0,0.217,0,0.238,0,0.238c0,0.043,0,0.971,0,0.971v0.947l0.021,0.949l0.021,0.947l0.021,0.949l0.043,0.971l0.064,0.947l0.065,0.971
		l0.086,0.949l0.107,0.969l0.13,0.949l0.15,0.928l0.173,0.947l0.194,0.928l0.215,0.906l0.259,0.904l0.28,0.885l0.302,0.883
		l0.346,0.842l0.388,0.84l0.409,0.82l0.453,0.797l0.496,0.775l0.538,0.756l0.582,0.711l0.604,0.689l0.689,0.668l0.711,0.646
		l0.755,0.604l0.819,0.561l0.884,0.539l0.927,0.518l0.971,0.453l1.056,0.432l1.078,0.387l1.164,0.324l1.229,0.301l1.294,0.26
		l1.358,0.193l1.422,0.174l-1.487,0.215l-1.423,0.279l-1.336,0.303l-1.272,0.367l-1.186,0.408l-1.143,0.432l-1.056,0.496
		l-1.014,0.518l-0.948,0.561l-0.884,0.604l-0.819,0.604l-0.776,0.668l-0.732,0.689l-0.669,0.711l-0.604,0.734l-0.582,0.754
		l-0.518,0.775l-0.495,0.799l-0.432,0.818l-0.409,0.842l-0.346,0.861l-0.345,0.863l-0.28,0.861l-0.259,0.906l-0.236,0.883
		l-0.194,0.906l-0.173,0.904l-0.15,0.906l-0.13,0.906l-0.107,0.904l-0.086,0.906l-0.065,0.904l-0.043,0.885l-0.043,0.883
		l-0.043,0.885v0.861l-0.021,0.863v0.84v0.82v0.797c0,0.195,0,0.281,0,0.281c0,0.193,0,0.301,0,0.301c0,0.107,0,0.238,0,0.238
		c0,0.15,0,0.279,0,0.279c0,0.15,0,0.303,0,0.303c0,0.15,0,0.322,0,0.322c0,0.15,0,0.324,0,0.324c0,0.172,0,0.322,0,0.322
		c0,0.174,0,0.346,0,0.346c0,0.15,0,0.301,0,0.301c0,0.152,0,0.303,0,0.303c0,0.15,0,0.279,0,0.279c0,0.131,0,0.26,0,0.26
		c0,0.193,0,0.301,0,0.301c0,0.195,0,0.238,0,0.238c0,0.021,0,0.818,0,0.818v0.799l-0.021,0.818v0.797l-0.021,0.82l-0.021,0.818
		l-0.043,0.82l-0.044,0.797l-0.064,0.82l-0.086,0.797l-0.086,0.797l-0.13,0.799l-0.129,0.797l-0.151,0.775l-0.194,0.756
		l-0.193,0.754l-0.237,0.754l-0.28,0.734l-0.302,0.711l-0.323,0.711l-0.366,0.689l-0.41,0.668l-0.431,0.648l-0.475,0.625
		l-0.518,0.625l-0.582,0.582l-0.604,0.561l-0.646,0.539l-0.712,0.518l-0.754,0.473l-0.819,0.475l-0.862,0.41l-0.905,0.41
		l-0.992,0.365l-1.034,0.324l-1.078,0.301l-1.164,0.26l-1.229,0.236l-1.294,0.195l-1.358,0.15c0,0.129,0,0.215,0,0.215
		c0,0.129,0,0.26,0,0.26c0,0.172,0,0.344,0,0.344c0,0.217,0,0.432,0,0.432v0.215v0.26v0.236v0.281v0.279v0.281v0.279v0.303v0.301
		v0.281v0.301v0.303v0.279v0.303v0.279v0.281v0.258v0.26v0.236v0.236c0,0.217,0,0.41,0,0.41c0,0.195,0,0.346,0,0.346
		c0,0.15,0,0.258,0,0.258c0,0.217,0,0.238,0,0.238l2.264-0.174l2.156-0.215l2.026-0.281l1.94-0.322l1.832-0.389l1.725-0.432
		l1.617-0.494l1.53-0.539l1.444-0.561l1.337-0.625l1.271-0.67l1.164-0.711l1.1-0.754l1.013-0.775l0.949-0.82l0.862-0.861
		l0.797-0.906l0.733-0.904l0.689-0.949l0.604-0.992l0.539-0.992l0.496-1.033l0.453-1.057l0.388-1.078l0.345-1.1l0.323-1.121
		l0.259-1.121l0.216-1.143l0.194-1.164l0.172-1.164l0.13-1.186l0.107-1.186l0.064-1.207l0.064-1.186l0.044-1.207l0.043-1.207v-1.207
		l0.021-1.209v-1.186v-1.207c0-0.193,0-0.258,0-0.258c0-0.195,0-0.303,0-0.303c0-0.129,0-0.258,0-0.258c0-0.129,0-0.281,0-0.281
		c0-0.129,0-0.301,0-0.301c0-0.15,0-0.303,0-0.303c0-0.172,0-0.344,0-0.344c0-0.152,0-0.324,0-0.324c0-0.15,0-0.322,0-0.322
		c0-0.174,0-0.324,0-0.324c0-0.15,0-0.303,0-0.303c0-0.129,0-0.279,0-0.279c0-0.129,0-0.236,0-0.236c0-0.217,0-0.303,0-0.303
		c0-0.193,0-0.236,0-0.236c0-0.043,0-0.561,0-0.561v-0.518v-0.539v-0.518l0.021-0.496v-0.518l0.021-0.518v-0.496l0.021-0.494
		l0.043-0.496l0.021-0.496l0.043-0.475l0.044-0.496l0.043-0.475l0.064-0.473l0.064-0.475l0.086-0.453l0.087-0.453l0.107-0.453
		l0.108-0.451l0.129-0.453l0.129-0.432l0.151-0.432l0.15-0.432l0.173-0.43l0.194-0.41l0.193-0.432l0.216-0.387l0.237-0.41
		l0.259-0.389l0.259-0.408l0.302-0.367l0.302-0.389l0.323-0.365l0.345-0.367l0.366-0.367l0.389-0.344l0.409-0.346l0.432-0.346
		l0.452-0.344l0.389-0.26l0.409-0.236l0.41-0.258l0.388-0.217l0.409-0.236l0.41-0.195l0.409-0.215l0.41-0.193l0.431-0.195
		l0.409-0.172l0.41-0.172l0.388-0.15l0.41-0.152l0.409-0.15l0.41-0.15l0.388-0.129l0.409-0.109l0.389-0.129l0.388-0.107l0.388-0.107
		l0.367-0.086l0.366-0.088l0.366-0.086l0.366-0.086l0.367-0.064l0.345-0.064l0.323-0.064l0.345-0.043l0.323-0.064l0.302-0.043
		l0.324-0.021l0.279-0.045l0.303-0.021l0.258-0.043l0.28-0.021h0.259l0.237-0.021h0.237c0.216-0.021,0.409-0.021,0.409-0.021
		V257.805z"/>
</g>
</svg>
