<?xml version="1.0" encoding="utf-8"?>
<!-- Generator: Adobe Illustrator 16.0.1, SVG Export Plug-In . SVG Version: 6.00 Build 0)  -->
<!DOCTYPE svg PUBLIC "-//W3C//DTD SVG 1.0//EN" "http://www.w3.org/TR/2001/REC-SVG-20010904/DTD/svg10.dtd">
<svg version="1.0" id="_x31_" xmlns="http://www.w3.org/2000/svg" xmlns:xlink="http://www.w3.org/1999/xlink" x="0px" y="0px"
	 width="612px" height="792px" viewBox="0 0 612 792" enable-background="new 0 0 612 792" xml:space="preserve">
<g id="LWPOLYLINE">
	
		<path fill="none" stroke="#000000" stroke-width="0.7087" stroke-linecap="round" stroke-linejoin="round" stroke-miterlimit="10" d="
		M398.751,391.029c-0.146,0-0.34,0-0.34,0c-0.242,0-0.532,0-0.532,0h-0.34h-0.388h-0.484h-0.484h-0.533h-0.582h-0.581h-0.631h-0.678
		h-0.679h-0.727h-0.728h-0.727h-0.728h-0.727h-0.728h-0.775h-0.727h-0.679h-0.727h-0.679h-0.679h-0.63h-0.581h-0.582h-0.533h-0.533
		h-0.436h-0.388h-0.34h-0.339c-0.194,0-0.388,0-0.388,0c-0.146,0,0,0.363,0,0.363l0.388,1.115l0.63,1.793l0.872,2.447l1.066,3.053
		l1.309,3.637l1.454,4.166l1.647,4.678l1.842,5.137l1.987,5.549l2.084,5.963l2.229,6.25l2.326,6.592l2.423,6.834l2.521,7.125
		l2.568,7.27l2.665,7.414l2.666,7.561l2.665,7.609l2.715,7.656l2.714,7.658l2.714,7.656l2.665,7.514l2.666,7.463l2.568,7.27
		l2.521,7.076l2.423,6.881l2.326,6.543l2.229,6.301l2.084,5.961l1.987,5.525l1.793,5.137l1.696,4.652l1.454,4.168l1.309,3.635
		l1.066,3.102l0.872,2.424l0.63,1.793l0.388,1.115l0.146,0.387c0.146,0,0.339,0,0.339,0h0.242h0.291h0.388h0.437h0.484h0.484h0.582
		h0.63h0.63h0.679h0.679h0.727h0.728h0.775h0.775h0.775h0.775h0.775h0.775h0.775h0.775h0.727h0.728h0.679h0.678h0.63h0.631h0.581
		h0.484h0.485h0.436h0.388h0.291h0.242c0.194,0,0.291,0,0.291,0C472.271,595.5,398.751,391.029,398.751,391.029z"/>
</g>
<g id="LWPOLYLINE_1_">
	
		<path fill="none" stroke="#000000" stroke-width="0.7087" stroke-linecap="round" stroke-linejoin="round" stroke-miterlimit="10" d="
		M140.775,364.229c0.121,0,0.291,0,0.291,0c0.242,0,0.509,0,0.509,0h0.339h0.388h0.437h0.46h0.509h0.558h0.582h0.605h0.63h0.654
		h0.679h0.679h0.702h0.703h0.703h0.702h0.703h0.702h0.679h0.679h0.654h0.63h0.605h0.582h0.533h0.509h0.484h0.437h0.388h0.314h0.291
		c0.219,0,0.388,0,0.388,0c0.146,0,0.146-0.314,0.146-0.314v-0.922v-1.477v-2.012v-2.52v-3.006v-3.441v-3.852v-4.242v-4.578v-4.896
		v-5.186v-5.451v-5.646v-5.84v-6.01v-6.131v-6.227v-6.301v-6.324v-6.326v-6.275v-6.229v-6.131v-6.008v-5.865v-5.646v-5.428v-5.186
		v-4.895v-4.604v-4.217v-3.854v-3.441v-3.004v-2.52v-2.037v-1.477v-0.922V195.5c-0.146,0-0.314,0-0.314,0c-0.219,0-0.51,0-0.51,0
		h-0.314h-0.388h-0.437h-0.484h-0.509h-0.533h-0.582h-0.605h-0.63h-0.654h-0.679h-0.679h-0.702h-0.703h-0.702h-0.703h-0.703h-0.702
		h-0.679h-0.679h-0.654h-0.63h-0.605h-0.582h-0.558h-0.509h-0.46h-0.437h-0.388h-0.339h-0.267c-0.242,0-0.412,0-0.412,0
		C140.775,195.5,140.775,364.229,140.775,364.229z"/>
</g>
</svg>
