<?xml version="1.0" encoding="utf-8"?>
<!-- Generator: Adobe Illustrator 16.0.1, SVG Export Plug-In . SVG Version: 6.00 Build 0)  -->
<!DOCTYPE svg PUBLIC "-//W3C//DTD SVG 1.0//EN" "http://www.w3.org/TR/2001/REC-SVG-20010904/DTD/svg10.dtd">
<svg version="1.0" id="_x31_" xmlns="http://www.w3.org/2000/svg" xmlns:xlink="http://www.w3.org/1999/xlink" x="0px" y="0px"
	 width="612px" height="792px" viewBox="0 0 612 792" enable-background="new 0 0 612 792" xml:space="preserve">
<g id="LWPOLYLINE">
	
		<path fill="none" stroke="#000000" stroke-width="0.7087" stroke-linecap="round" stroke-linejoin="round" stroke-miterlimit="10" d="
		M413.198,445.838c0.09,0,0.271,0,0.271,0h0.271h0.406h0.451h0.586h0.677h0.722h0.812h0.857h0.947h0.992h1.037h1.083h1.128h1.172
		h1.173h1.173h1.218h1.218h1.219h1.172H433h1.172h1.128h1.128h1.082h1.038h0.992h0.947h0.902h0.812h0.722h0.677h0.541h0.496h0.406
		h0.271c0.181,0,0.226,0,0.226,0c0-0.045,0-0.225,0-0.225v-0.316v-0.451v-0.496v-0.631v-0.723v-0.812v-0.855v-0.947v-1.037v-1.084
		v-1.127v-1.174v-1.217v-1.264v-1.262v-1.309V429.6v-1.309v-1.307v-1.309v-1.309v-1.262v-1.264v-1.219v-1.172v-1.127v-1.084v-1.014
		v-0.947v-0.881v-0.811v-0.723v-0.609v-0.541v-0.406v-0.314c0-0.182,0-0.248,0-0.248c-0.045,0-0.226,0-0.226,0h-0.271h-0.406h-0.496
		H443.6h-0.677h-0.722h-0.812h-0.902h-0.947h-0.992h-1.038h-1.082H435.3h-1.128H433h-1.219h-1.172h-1.219h-1.218h-1.218h-1.173
		h-1.173h-1.172h-1.128h-1.083h-1.037h-0.992h-0.947h-0.857h-0.812h-0.722h-0.677h-0.586h-0.451h-0.406h-0.271
		c-0.181,0-0.271,0-0.271,0V445.838z"/>
</g>
<g id="LWPOLYLINE_1_">
	
		<path fill="none" stroke="#000000" stroke-width="0.7087" stroke-linecap="round" stroke-linejoin="round" stroke-miterlimit="10" d="
		M418.746,523.42c0,0.137-0.136,0.541-0.136,0.541l-0.18,0.633l-0.226,0.855l-0.271,1.084l-0.361,1.307l-0.406,1.443l-0.405,1.67
		l-0.496,1.805l-0.542,1.939l-0.541,2.074l-0.632,2.256l-0.586,2.301l-0.677,2.436l-0.677,2.48l-0.677,2.57l-0.722,2.617
		l-0.722,2.66l-0.722,2.662l-0.722,2.707l-0.722,2.705l-0.722,2.707l-0.722,2.66l-0.676,2.617l-0.722,2.525l-0.677,2.525
		l-0.632,2.391l-0.632,2.346l-0.586,2.211l-0.586,2.074l-0.497,1.984l-0.496,1.805l-0.451,1.625l-0.405,1.488l-0.316,1.262
		l-0.315,1.084l-0.226,0.855l-0.181,0.633l-0.09,0.406c0.136,0.135,0.271,0.135,0.271,0.135h0.271h0.316h0.36h0.406h0.451h0.496
		h0.586h0.587h0.631h0.632h0.677h0.722h0.722h0.722h0.767h0.767h0.767h0.722h0.768h0.767h0.722h0.722h0.722h0.677h0.631h0.632h0.587
		h0.586h0.496h0.451h0.406h0.36h0.315h0.271c0.18,0,0.271,0,0.271,0c0.09-0.135,0.271-0.541,0.271-0.541l0.315-0.633l0.361-0.855
		l0.496-1.084l0.631-1.262l0.677-1.488l0.722-1.625l0.857-1.805l0.902-1.984l0.947-2.074l1.037-2.211l1.082-2.346l1.128-2.391
		l1.128-2.525l1.173-2.525l1.218-2.617l1.218-2.66l1.263-2.707l1.218-2.705l1.264-2.707l1.263-2.662l1.218-2.66l1.218-2.617
		l1.173-2.57l1.128-2.48l1.127-2.436l1.083-2.301l0.992-2.256l0.992-2.074l0.902-1.939l0.812-1.805l0.768-1.67l0.676-1.443
		l0.587-1.307l0.496-1.084l0.406-0.855l0.315-0.633l0.181-0.404C452.937,523.42,418.746,523.42,418.746,523.42z"/>
</g>
<g id="LWPOLYLINE_2_">
	
		<path fill="none" stroke="#000000" stroke-width="0.7087" stroke-linecap="round" stroke-linejoin="round" stroke-miterlimit="10" d="
		M160.108,218.594c0.158,0,0.36,0,0.36,0h0.248h0.339h0.406h0.45h0.496h0.564h0.586h0.654h0.677h0.722h0.744h0.767h0.789h0.812
		h0.812h0.835h0.812h0.835h0.834h0.812h0.812h0.789h0.767h0.745h0.722h0.676h0.632h0.609h0.563h0.496h0.451h0.406h0.315h0.271
		c0.203,0,0.315,0,0.315,0c0.046-0.158,0.046-0.361,0.046-0.361v-0.27v-0.361v-0.406v-0.473v-0.52v-0.586v-0.631v-0.678v-0.699
		v-0.744V212.1v-0.812v-0.812v-0.857v-0.834v-0.879v-0.857v-0.857v-0.857v-0.855v-0.836v-0.834v-0.789v-0.789v-0.744v-0.699v-0.678
		v-0.631v-0.564v-0.541v-0.473v-0.406v-0.338v-0.271c0-0.203,0-0.338,0-0.338c-0.158-0.045-0.361-0.045-0.361-0.045h-0.271h-0.315
		h-0.406h-0.451h-0.496h-0.563h-0.609h-0.632h-0.676h-0.722h-0.745h-0.767h-0.789h-0.812h-0.812h-0.834h-0.835h-0.812h-0.835h-0.812
		h-0.812h-0.789h-0.767h-0.744h-0.722h-0.677h-0.654h-0.586h-0.564h-0.496h-0.45h-0.406h-0.339h-0.248c-0.202,0-0.315,0-0.315,0
		C160.108,195.5,160.108,218.594,160.108,218.594z"/>
</g>
<g id="LWPOLYLINE_3_">
	
		<path fill="none" stroke="#000000" stroke-width="0.7087" stroke-linecap="round" stroke-linejoin="round" stroke-miterlimit="10" d="
		M160.108,295.273c0.158,0,0.36,0,0.36,0h0.248h0.339h0.406h0.45h0.496h0.564h0.586h0.654h0.677h0.722h0.744h0.767h0.789h0.812
		h0.812h0.835h0.812h0.835h0.834h0.812h0.812h0.789h0.767h0.745h0.722h0.676h0.632h0.609h0.563h0.496h0.451h0.406h0.315h0.271
		c0.203,0,0.315,0,0.315,0c0.046-0.18,0.046-0.383,0.046-0.383v-0.293v-0.361v-0.428v-0.496v-0.541v-0.609v-0.654v-0.699v-0.721
		v-0.768v-0.812v-0.834v-0.857v-0.879v-0.879v-0.902v-0.902v-0.902v-0.879v-0.902v-0.857v-0.857v-0.834v-0.812v-0.766v-0.746V275
		v-0.654v-0.588v-0.562v-0.475v-0.428v-0.361v-0.293c0-0.203,0-0.338,0-0.338c-0.158-0.045-0.361-0.045-0.361-0.045h-0.271h-0.315
		h-0.406h-0.451h-0.496h-0.563h-0.609h-0.632h-0.676h-0.722h-0.745h-0.767h-0.789h-0.812h-0.812h-0.834h-0.835h-0.812h-0.835h-0.812
		h-0.812h-0.789h-0.767h-0.744h-0.722h-0.677h-0.654h-0.586h-0.564h-0.496h-0.45h-0.406h-0.339h-0.248c-0.202,0-0.315,0-0.315,0
		C160.108,271.256,160.108,295.273,160.108,295.273z"/>
</g>
</svg>
