<?xml version="1.0" encoding="utf-8"?>
<!-- Generator: Adobe Illustrator 16.0.1, SVG Export Plug-In . SVG Version: 6.00 Build 0)  -->
<!DOCTYPE svg PUBLIC "-//W3C//DTD SVG 1.0//EN" "http://www.w3.org/TR/2001/REC-SVG-20010904/DTD/svg10.dtd">
<svg version="1.0" id="_x31_" xmlns="http://www.w3.org/2000/svg" xmlns:xlink="http://www.w3.org/1999/xlink" x="0px" y="0px"
	 width="612px" height="792px" viewBox="0 0 612 792" enable-background="new 0 0 612 792" xml:space="preserve">
<g id="LWPOLYLINE">
	
		<path fill="none" stroke="#000000" stroke-width="0.7087" stroke-linecap="round" stroke-linejoin="round" stroke-miterlimit="10" d="
		M531.873,595.5c0-0.137,0-0.598,0-0.598v-0.781v-1.01v-1.24v-1.518v-1.746v-1.93v-2.115v-2.297v-2.482v-2.572v-2.758v-2.803v-2.941
		v-3.033v-3.08v-3.125v-3.17v-3.172v-3.17v-3.125v-3.125v-3.08v-3.033v-2.941v-2.848v-2.713v-2.619v-2.436v-2.297v-2.16v-1.93
		v-1.701v-1.518v-1.285v-1.012v-0.734v-0.461c-0.184-0.137-0.368-0.137-0.368-0.137h-0.321h-0.368h-0.413h-0.506h-0.551h-0.644
		h-0.644h-0.689h-0.781h-0.781h-0.827h-0.827h-0.873h-0.919h-0.873h-0.92h-0.919h-0.919h-0.919h-0.873h-0.919h-0.874h-0.827h-0.827
		h-0.781h-0.781h-0.689h-0.688h-0.598H509.4h-0.506h-0.413h-0.368h-0.321c-0.184,0-0.321,0-0.321,0
		c-0.046,0.092-0.046,0.412-0.046,0.412v0.506v0.689v0.828v1.057v1.148v1.332v1.426v1.562v1.654v1.793v1.838v1.93v1.977v2.068v2.066
		v2.115v2.16v2.113v2.16v2.16v2.113v2.068v2.068v1.977v1.93v1.838v1.793v1.654v1.562v1.424v1.332v1.15v1.01v0.873v0.689v0.506v0.322
		c0,0.092-0.506,0.092-0.506,0.092h-1.471h-2.344h-3.217h-4.044h-4.779h-5.515h-6.112h-6.756h-7.307h-7.858h-8.227h-8.686h-9.054
		h-9.329h-9.559h-9.788h-9.927H382.93h-10.11h-10.064H352.69h-9.926h-9.789h-9.559h-9.329h-9.03h-8.686H288.1h-7.812h-7.307h-6.756
		h-6.135h-5.492h-4.802h-4.021h-3.217h-2.367h-1.47h-0.483c0-0.092,0-0.414,0-0.414v-0.506v-0.689v-0.873v-1.01v-1.15v-1.332v-1.424
		v-1.562v-1.654v-1.793v-1.838v-1.93v-1.977v-2.068v-2.068v-2.113v-2.16v-2.16v-2.113v-2.16v-2.115v-2.066v-2.068v-1.977v-1.93
		v-1.838v-1.793v-1.654v-1.562v-1.426v-1.332v-1.148v-1.057v-0.828v-0.689v-0.506v-0.32c-0.184-0.092-0.413-0.092-0.413-0.092
		h-0.299h-0.391h-0.437h-0.528h-0.574h-0.644h-0.689h-0.735h-0.781h-0.827h-0.851h-0.873H229.3h-0.942h-0.919h-0.966h-0.941h-0.966
		h-0.941h-0.942h-0.919h-0.896h-0.873h-0.85h-0.828h-0.781H216.8h-0.689h-0.644h-0.574h-0.529h-0.459h-0.368h-0.299
		c-0.229,0-0.367,0-0.367,0c-0.046,0.137-0.046,0.598-0.046,0.598v0.734v1.012v1.285v1.518v1.701v1.93v2.16v2.297v2.436v2.619v2.713
		v2.848v2.941v3.033v3.08v3.125v3.125v3.17v3.172v3.17v3.125v3.08v3.033v2.941v2.803v2.758v2.572v2.482v2.297v2.115v1.93v1.746
		v1.518v1.24v1.01v0.781v0.461c0,0.137,0.598,0.137,0.598,0.137h1.723h2.804h3.814h4.779h5.652h6.526h7.283h8.02h8.663h9.26h9.789
		h10.294h10.685h11.053h11.351h11.627h11.765h11.902h11.949h11.948h11.902h11.765h11.581h11.352h11.075h10.707h10.295h9.788h9.237
		h8.686h7.996H506h6.479h5.698h4.779h3.814h2.804h1.7H531.873z"/>
</g>
<g id="LWPOLYLINE_1_">
	
		<path fill="none" stroke="#000000" stroke-width="0.7087" stroke-linecap="round" stroke-linejoin="round" stroke-miterlimit="10" d="
		M123.417,315.031c0.115,0,0.275,0,0.275,0c0.185,0,0.437,0,0.437,0h0.322h0.345h0.367h0.437h0.46h0.482h0.528h0.552h0.574h0.574
		h0.598h0.62h0.621h0.644h0.62h0.644h0.643h0.621h0.62h0.598h0.574h0.574h0.552h0.506h0.505h0.46h0.413h0.391h0.345h0.299h0.253
		c0.207,0,0.368,0,0.368,0c0.114-0.092,0.114-0.32,0.114-0.32v-0.369v-0.527v-0.645v-0.781v-0.873v-0.988v-1.078v-1.172v-1.266
		v-1.332v-1.402v-1.447v-1.492v-1.541v-1.584v-1.586v-1.631v-1.609v-1.631v-1.609v-1.586v-1.584v-1.541v-1.492v-1.471v-1.379v-1.332
		v-1.266v-1.172v-1.078v-0.988v-0.896v-0.758v-0.668v-0.504v-0.391c0-0.23,0-0.299,0-0.299c0.069,0,0.299,0,0.299,0h0.391h0.506
		h0.62h0.758h0.874h0.965h1.057h1.149h1.24h1.287h1.379h1.401h1.471h1.517h1.539h1.562h1.586h1.585h1.586h1.562h1.562h1.539h1.517
		h1.471h1.425h1.355h1.31h1.218h1.149h1.08h0.965h0.851h0.758h0.644h0.506h0.367c0.229,0,0.299,0,0.299,0c0-0.115,0-0.254,0-0.254
		c0-0.184,0-0.391,0-0.391v-0.275v-0.299v-0.344v-0.391v-0.414v-0.438v-0.459v-0.482v-0.506v-0.527v-0.529v-0.551v-0.553v-0.551
		v-0.574v-0.553v-0.574v-0.551v-0.551v-0.529v-0.529v-0.504v-0.482v-0.461v-0.436v-0.414v-0.367v-0.346v-0.32v-0.254
		c0-0.229,0-0.414,0-0.414c0-0.205,0-0.252,0-0.252c-0.069,0-0.299,0-0.299,0h-0.367h-0.506h-0.644h-0.758h-0.851h-0.965h-1.08
		h-1.149h-1.218h-1.31h-1.355h-1.425h-1.471h-1.517h-1.539h-1.562h-1.562h-1.586h-1.585h-1.586h-1.562h-1.539h-1.517h-1.471h-1.401
		h-1.379h-1.287h-1.24h-1.149h-1.057h-0.965h-0.874h-0.758h-0.62h-0.506h-0.391c-0.229,0-0.299,0-0.299,0c0-0.068,0-0.299,0-0.299
		v-0.391v-0.506v-0.666v-0.758v-0.873v-1.012v-1.08v-1.172v-1.264v-1.332v-1.379v-1.447v-1.518v-1.539v-1.562v-1.609v-1.607v-1.631
		v-1.609v-1.607v-1.609v-1.586v-1.539v-1.494v-1.447v-1.4v-1.334v-1.24v-1.172v-1.104v-0.988v-0.873v-0.781v-0.643v-0.529v-0.367
		c0-0.23,0-0.322,0-0.322c-0.114,0-0.275,0-0.275,0c-0.207,0-0.46,0-0.46,0h-0.299h-0.345h-0.391h-0.413h-0.46h-0.505h-0.506h-0.552
		h-0.574h-0.574H134.4h-0.62h-0.621h-0.643h-0.644h-0.62h-0.644h-0.621h-0.62h-0.598h-0.574h-0.574h-0.552h-0.528h-0.482h-0.46
		h-0.437h-0.367h-0.345h-0.322h-0.252c-0.185,0-0.345,0-0.345,0c-0.115,0.092-0.115,0.322-0.115,0.322v0.367v0.529v0.643v0.781
		v0.873v0.988v1.104v1.172v1.24v1.334v1.4v1.447v1.494v1.539v1.586v1.609v1.607v1.609v1.631v1.607v1.609v1.562v1.539v1.518v1.447
		v1.379v1.332v1.264v1.172v1.08v1.012v0.873v0.758v0.666v0.506v0.391c0,0.23,0,0.299,0,0.299c-0.092,0-0.321,0-0.321,0h-0.368
		h-0.528h-0.644h-0.781h-0.873h-0.988h-1.103h-1.172h-1.241h-1.332h-1.402h-1.447h-1.494h-1.539h-1.586h-1.608h-1.608h-1.608h-1.631
		h-1.608h-1.608h-1.562h-1.54h-1.517h-1.447h-1.379h-1.333h-1.264H85.71h-1.08h-1.011h-0.873h-0.759h-0.666h-0.506h-0.391
		c-0.229,0-0.298,0-0.298,0c0,0.115,0,0.252,0,0.252c0,0.186,0,0.414,0,0.414v0.254v0.32v0.346v0.367v0.414v0.436v0.461v0.482v0.504
		v0.529v0.529v0.551v0.551v0.574v0.553v0.574v0.551v0.553v0.551v0.529v0.527v0.506v0.482v0.459v0.438v0.414v0.391v0.344v0.299v0.275
		c0,0.207,0,0.391,0,0.391c0,0.23,0,0.254,0,0.254c0.068,0,0.298,0,0.298,0h0.391h0.506h0.666h0.759h0.873h1.011h1.08h1.172h1.264
		h1.333h1.379h1.447h1.517h1.54h1.562h1.608h1.608h1.631h1.608h1.608h1.608h1.586h1.539h1.494h1.447h1.402h1.332h1.241h1.172h1.103
		h0.988h0.873h0.781h0.644h0.528h0.368c0.229,0,0.321,0,0.321,0V315.031z"/>
</g>
<g id="LWPOLYLINE_2_">
	
		<path fill="none" stroke="#000000" stroke-width="0.7087" stroke-linecap="round" stroke-linejoin="round" stroke-miterlimit="10" d="
		M191.179,341.387c0.207,0,0.368,0,0.368,0c0.206,0,0.437,0,0.437,0h0.253h0.298h0.345h0.345h0.391h0.414h0.413h0.437h0.46h0.482
		h0.482h0.482h0.483h0.505h0.482h0.482h0.506h0.46h0.482h0.459h0.437h0.414h0.413h0.391h0.345h0.345h0.299h0.276
		c0.229,0,0.413,0,0.413,0c0.161,0,0.275,0,0.275,0c0.093,0,0.185-0.275,0.185-0.275l0.253-0.781l0.413-1.287l0.574-1.746
		l0.689-2.182l0.851-2.598l0.965-2.963l1.057-3.355l1.195-3.654l1.264-3.951l1.379-4.252l1.447-4.48l1.517-4.688l1.562-4.895
		l1.632-5.055l1.677-5.193l1.724-5.307l1.724-5.377l1.769-5.445l1.747-5.469l1.769-5.469l1.747-5.424l1.746-5.377l1.7-5.309
		l1.678-5.191l1.631-5.057l1.586-4.893l1.517-4.711l1.447-4.48l1.355-4.229l1.287-3.953l1.172-3.676l1.08-3.332l0.965-2.963
		l0.827-2.598l0.713-2.184l0.574-1.746l0.413-1.285l0.253-0.781l0.069-0.277c-0.207,0-0.368,0-0.368,0c-0.184,0-0.413,0-0.413,0
		h-0.276h-0.298h-0.345h-0.345h-0.391h-0.414h-0.413h-0.437h-0.46h-0.482h-0.46h-0.505h-0.482h-0.483h-0.505h-0.482h-0.482h-0.483
		h-0.482h-0.459h-0.437h-0.414h-0.413h-0.391h-0.345h-0.345h-0.299h-0.253c-0.229,0-0.437,0-0.437,0c-0.161,0-0.275,0-0.275,0
		C238.237,195.5,191.179,341.387,191.179,341.387z"/>
</g>
<g id="LWPOLYLINE_3_">
	
		<path fill="none" stroke="#000000" stroke-width="0.7087" stroke-linecap="round" stroke-linejoin="round" stroke-miterlimit="10" d="
		M370.936,271.742c0-0.115,0-0.254,0-0.254c0-0.184,0-0.391,0-0.391v-0.275v-0.299v-0.344v-0.391v-0.414v-0.438v-0.459v-0.482
		v-0.506v-0.527v-0.529v-0.551v-0.553v-0.551v-0.574v-0.553v-0.574v-0.551v-0.551v-0.529v-0.529v-0.504v-0.482v-0.461v-0.436v-0.414
		v-0.367v-0.346v-0.32v-0.254c0-0.229,0-0.414,0-0.414c0-0.205,0-0.252,0-0.252c-0.184,0-0.735,0-0.735,0h-0.919h-1.195h-1.562
		h-1.792h-2.114h-2.344H357.7h-2.804h-2.94h-3.172h-3.309h-3.446h-3.539h-3.676h-3.723h-3.769h-3.814h-3.86h-3.86h-3.814h-3.768
		h-3.746h-3.653h-3.538h-3.447h-3.309h-3.148h-2.986h-2.781h-2.573h-2.344h-2.091h-1.838h-1.517h-1.241h-0.896h-0.551
		c-0.184,0.115-0.184,0.252-0.184,0.252c0,0.186,0,0.414,0,0.414v0.254v0.32v0.346v0.367v0.414v0.436v0.461v0.482v0.504v0.529v0.529
		v0.551v0.551v0.574v0.553v0.574v0.551v0.553v0.551v0.529v0.527v0.506v0.482v0.459v0.438v0.414v0.391v0.344v0.299v0.275
		c0,0.207,0,0.391,0,0.391c0,0.23,0,0.254,0,0.254c0.184,0,0.734,0,0.734,0h0.896h1.241h1.517h1.838h2.091h2.344h2.573h2.781h2.986
		h3.148h3.309h3.447h3.538h3.653h3.746h3.768h3.814h3.86h3.86h3.814h3.769h3.723h3.676h3.539h3.446h3.309h3.172h2.94h2.804h2.573
		h2.344h2.114h1.792h1.562h1.195h0.919C370.2,271.742,370.752,271.742,370.936,271.742z"/>
</g>
</svg>
