<?xml version="1.0" encoding="utf-8"?>
<!-- Generator: Adobe Illustrator 16.0.1, SVG Export Plug-In . SVG Version: 6.00 Build 0)  -->
<!DOCTYPE svg PUBLIC "-//W3C//DTD SVG 1.0//EN" "http://www.w3.org/TR/2001/REC-SVG-20010904/DTD/svg10.dtd">
<svg version="1.0" id="_x31_" xmlns="http://www.w3.org/2000/svg" xmlns:xlink="http://www.w3.org/1999/xlink" x="0px" y="0px"
	 width="612px" height="792px" viewBox="0 0 612 792" enable-background="new 0 0 612 792" xml:space="preserve">
<g id="LWPOLYLINE">
	
		<path fill="none" stroke="#000000" stroke-width="0.7087" stroke-linecap="round" stroke-linejoin="round" stroke-miterlimit="10" d="
		M358.395,430.102c0.188,0,0.704,0,0.704,0h0.892h1.174h1.456h1.736h2.02h2.206h2.488h2.676h2.817h3.005h3.192h3.286h3.381h3.474
		h3.568h3.615h3.661h3.709h3.662h3.662h3.615h3.568h3.474h3.428h3.286h3.146h3.005h2.863h2.63h2.488h2.253h1.972h1.737h1.502h1.174
		h0.846h0.517c0.188,0,0.047,0.328,0.047,0.328l-0.376,0.893l-0.657,1.455l-0.845,1.973l-1.127,2.488l-1.268,2.91l-1.503,3.381
		l-1.689,3.803l-1.831,4.131l-1.972,4.508l-2.113,4.789l-2.253,5.07l-2.348,5.352l-2.441,5.539l-2.535,5.729l-2.629,5.869
		l-2.63,6.008l-2.723,6.104l-2.723,6.197l-2.724,6.197l-2.723,6.197l-2.723,6.15l-2.724,6.104l-2.629,6.01l-2.629,5.867
		l-2.535,5.729l-2.441,5.539l-2.348,5.354l-2.253,5.07l-2.113,4.789l-1.972,4.506l-1.878,4.18l-1.644,3.756l-1.502,3.379
		l-1.268,2.912l-1.127,2.488l-0.845,1.971l-0.657,1.455l-0.376,0.893l-0.141,0.328c0.188,0,0.47,0,0.47,0h0.375h0.47h0.517h0.657
		h0.704h0.751h0.846h0.892h0.939h0.985h1.033h1.08h1.079h1.127h1.127h1.174h1.127h1.173h1.127h1.174h1.08h1.127h1.032h1.033h0.986
		h0.985h0.893h0.798h0.798h0.704h0.61h0.563h0.47h0.375h0.235c0.234,0,0.375-0.328,0.375-0.328l0.376-0.893l0.61-1.455l0.845-1.971
		l1.033-2.488l1.268-2.912l1.408-3.379l1.597-3.756l1.784-4.18l1.925-4.506l2.019-4.789l2.159-5.07l2.254-5.354l2.348-5.539
		l2.441-5.729l2.488-5.867l2.582-6.01l2.582-6.104l2.629-6.15l2.629-6.197l2.63-6.197l2.582-6.197l2.582-6.104l2.582-6.008
		l2.488-5.869l2.441-5.729l2.348-5.539l2.253-5.352l2.16-5.07l2.019-4.789l1.925-4.508l1.784-4.131l1.596-3.803l1.409-3.381
		l1.268-2.91l1.032-2.488l0.846-1.973l0.61-1.455l0.375-0.893l0.141-0.328c0-0.141,0-0.375,0-0.375v-0.236v-0.375v-0.422v-0.471
		v-0.516v-0.562v-0.658v-0.656v-0.705v-0.752v-0.75v-0.799v-0.846v-0.844v-0.846v-0.846v-0.867v-0.869v-0.846v-0.867v-0.822v-0.822
		v-0.82v-0.752v-0.75v-0.705v-0.682v-0.633v-0.564v-0.539v-0.469v-0.4v-0.352v-0.281c0-0.188,0-0.328,0-0.328
		c-0.234-0.023-0.892-0.023-0.892-0.023h-1.127h-1.502h-1.878h-2.254h-2.582h-2.863h-3.146h-3.427h-3.662h-3.85h-4.085h-4.225
		h-4.366h-4.46h-4.602h-4.647h-4.695h-4.694h-4.742h-4.694h-4.648h-4.554h-4.507h-4.366h-4.226h-4.038h-3.896h-3.662h-3.427h-3.146
		h-2.864h-2.582h-2.253h-1.878h-1.503h-1.08h-0.704C358.395,407.051,358.395,430.102,358.395,430.102z"/>
</g>
<g id="LWPOLYLINE_1_">
	
		<path fill="none" stroke="#000000" stroke-width="0.7087" stroke-linecap="round" stroke-linejoin="round" stroke-miterlimit="10" d="
		M217.057,240.688v1.504v1.455l-0.023,1.408l-0.023,1.361l-0.047,1.338l-0.047,1.291l-0.048,1.268l-0.07,1.221l-0.07,1.174
		l-0.07,1.174l-0.094,1.127l-0.094,1.08l-0.117,1.08l-0.118,1.031l-0.141,1.01l-0.141,0.986l-0.164,0.963l-0.165,0.939l-0.164,0.914
		l-0.211,0.893l-0.188,0.869l-0.235,0.844l-0.211,0.846l-0.259,0.822l-0.258,0.797l-0.258,0.799l-0.306,0.775l-0.281,0.773
		l-0.329,0.752l-0.328,0.75l-0.353,0.752l-0.352,0.729l-0.376,0.727l-0.399,0.705l-0.398,0.727l-0.423,0.729l-0.446,0.705
		l-0.47,0.727l-0.469,0.705l-0.493,0.727c-0.211-0.211-0.47-0.445-0.47-0.445l-0.352-0.328l-0.423-0.424l-0.517-0.492l-0.587-0.588
		l-0.657-0.633l-0.728-0.705l-0.774-0.75l-0.846-0.799l-0.892-0.869l-0.915-0.891l-0.986-0.939l-0.986-0.963l-1.032-0.986
		l-1.057-1.008l-1.057-1.033l-1.079-1.057l-1.08-1.033l-1.08-1.057l-1.08-1.033l-1.056-1.031l-1.057-1.01l-1.01-0.986l-1.009-0.963
		l-0.963-0.939l-0.938-0.891l-0.893-0.869l-0.821-0.799l-0.798-0.773l-0.704-0.682l-0.657-0.656l-0.61-0.564l-0.493-0.492
		l-0.446-0.422l-0.352-0.33l-0.235-0.234c-0.211-0.211,0.306-0.586,0.306-0.586l0.563-0.4l0.586-0.398l0.61-0.445l0.634-0.447
		l0.682-0.492l0.681-0.494l0.704-0.516l0.728-0.562L186,246.58l0.751-0.586l0.775-0.611l0.751-0.633l0.774-0.635l0.774-0.68
		l0.774-0.705l0.752-0.703l0.774-0.752l0.751-0.752l0.751-0.797l0.728-0.799l0.729-0.822l0.681-0.844l0.681-0.869l0.657-0.893
		l0.634-0.914l0.61-0.939l0.587-0.939l0.54-0.986l0.516-1.01l0.47-1.008l0.423-1.033l0.399-1.08l0.352-1.08l0.282-1.104l0.258-1.127
		l0.211-1.15l0.142-1.174l0.094-1.195l0.023-1.221v-0.494l-0.023-0.492l-0.023-0.518l-0.047-0.469l-0.048-0.492l-0.047-0.494
		l-0.07-0.469l-0.07-0.471l-0.094-0.469l-0.094-0.469l-0.094-0.471l-0.117-0.469l-0.118-0.445l-0.141-0.447l-0.141-0.445
		l-0.141-0.424l-0.165-0.445l-0.141-0.422l-0.188-0.424l-0.164-0.422l-0.188-0.422l-0.188-0.4l-0.211-0.398l-0.188-0.398
		l-0.211-0.375l-0.211-0.4l-0.235-0.375l-0.234-0.375l-0.234-0.354l-0.235-0.352l-0.234-0.352l-0.259-0.354l-0.258-0.352
		l-0.258-0.328l-0.282-0.328l-0.258-0.307l-0.282-0.328l-0.281-0.305l-0.282-0.305l-0.281-0.283l-0.282-0.281l-0.305-0.305
		l-0.305-0.281l-0.329-0.281l-0.329-0.283l-0.328-0.281l-0.353-0.281l-0.375-0.281l-0.376-0.283l-0.375-0.258l-0.399-0.281
		l-0.423-0.258l-0.445-0.258l-0.446-0.26l-0.47-0.258l-0.493-0.234l-0.493-0.234l-0.539-0.234l-0.54-0.236l-0.563-0.211
		l-0.587-0.211l-0.61-0.211l-0.634-0.211l-0.657-0.188l-0.681-0.166l-0.704-0.164l-0.728-0.164l-0.775-0.164l-0.774-0.141
		l-0.821-0.141l-0.846-0.117l-0.868-0.094l-0.915-0.117l-0.916-0.07l-0.986-0.072l-0.985-0.07l-1.033-0.047l-1.079-0.023
		l-1.08-0.023l-1.15-0.023l-1.573,0.023l-1.525,0.07l-1.479,0.094l-1.456,0.143l-1.408,0.164l-1.361,0.211l-1.338,0.234
		l-1.291,0.281l-1.244,0.33l-1.197,0.352l-1.174,0.375l-1.127,0.422l-1.104,0.471l-1.056,0.469l-1.01,0.518l-0.963,0.562
		l-0.938,0.588l-0.892,0.609l-0.846,0.635l-0.821,0.68l-0.774,0.682l-0.729,0.727l-0.681,0.752l-0.657,0.797l-0.61,0.799
		l-0.587,0.846l-0.539,0.867l-0.493,0.869l-0.446,0.916l-0.423,0.939l-0.375,0.961l-0.329,0.986l-0.305,0.986l-0.259,1.033
		l-0.211,1.057l-0.188,1.055l-0.142,1.08l-0.094,1.127l-0.07,1.127l-0.023,1.127l0.023,1.08l0.047,1.033l0.07,1.033l0.118,0.984
		l0.141,0.986l0.141,0.939l0.188,0.916l0.212,0.914l0.234,0.869l0.258,0.869l0.282,0.844l0.305,0.799l0.306,0.799l0.328,0.773
		l0.353,0.752l0.353,0.729l0.375,0.727l0.399,0.682l0.398,0.68l0.399,0.658l0.423,0.656l0.422,0.611l0.446,0.609l0.446,0.588
		l0.423,0.562l0.445,0.564l0.47,0.539l0.446,0.516l0.445,0.518l0.446,0.492l0.446,0.471l0.446,0.469l0.422,0.445l0.423,0.447
		l0.423,0.422l0.422,0.422l0.399,0.4l0.399,0.375l0.375,0.398l0.376,0.354l-0.939,0.656l-0.938,0.658l-0.939,0.68l-0.915,0.658
		l-0.939,0.703l-0.915,0.682l-0.916,0.727l-0.892,0.705l-0.893,0.729l-0.892,0.75l-0.868,0.752l-0.869,0.773l-0.845,0.775
		l-0.821,0.799l-0.822,0.797l-0.798,0.846l-0.774,0.822l-0.751,0.867l-0.752,0.869l-0.704,0.893l-0.704,0.914l-0.657,0.939
		l-0.634,0.939l-0.634,0.963l-0.587,0.986l-0.54,1.008l-0.54,1.033l-0.492,1.057l-0.446,1.08l-0.446,1.08l-0.375,1.127l-0.353,1.15
		l-0.329,1.172l-0.281,1.197l-0.234,1.221l-0.212,1.244l-0.141,1.268l-0.117,1.291l-0.07,1.34l-0.023,1.361l0.023,1.361l0.07,1.338
		l0.141,1.338l0.188,1.314l0.235,1.291l0.305,1.268l0.353,1.268l0.375,1.221l0.446,1.221l0.517,1.174l0.54,1.174l0.587,1.15
		l0.657,1.104l0.704,1.078l0.728,1.057l0.798,1.033l0.846,0.986l0.892,0.986l0.939,0.914l0.985,0.916l1.033,0.869l1.08,0.822
		l1.126,0.797l1.174,0.752l1.221,0.727l1.268,0.682l1.291,0.633l1.362,0.611l1.385,0.539l1.455,0.518l1.479,0.469l1.526,0.422
		l1.549,0.377l1.62,0.328l1.644,0.281l1.713,0.234l1.714,0.189l1.784,0.141l1.808,0.07l1.854,0.023h1.221l1.221-0.047l1.221-0.047
		l1.197-0.07l1.173-0.094l1.197-0.119l1.174-0.141l1.174-0.164l1.15-0.188l1.15-0.188l1.127-0.234l1.149-0.234l1.104-0.26
		l1.127-0.281l1.104-0.305l1.079-0.328l1.08-0.354l1.08-0.352l1.057-0.398l1.056-0.4l1.033-0.422l1.033-0.445l1.032-0.471
		l0.986-0.469l1.009-0.516l0.986-0.518l0.963-0.539l0.962-0.564l0.939-0.586l0.938-0.588l0.916-0.633l0.915-0.635l0.892-0.656
		l0.893-0.658l0.868-0.703l0.869-0.705l0.821-0.727l0.845-0.752l0.799-0.775l0.821-0.773c0.094,0.094,0.234,0.234,0.234,0.234
		c0.188,0.164,0.423,0.375,0.423,0.375l0.258,0.258l0.329,0.307l0.353,0.328l0.375,0.352l0.423,0.398l0.446,0.424l0.469,0.445
		l0.493,0.447l0.517,0.492l0.54,0.492l0.54,0.518l0.562,0.539l0.563,0.518l0.587,0.539l0.563,0.539l0.587,0.541l0.563,0.539
		l0.563,0.541l0.563,0.516l0.563,0.518l0.517,0.492l0.516,0.492l0.493,0.471l0.47,0.422l0.47,0.422l0.398,0.4l0.399,0.352
		l0.353,0.328l0.305,0.307l0.282,0.258c0.234,0.211,0.398,0.375,0.398,0.375c0.235,0.211,0.259,0.234,0.259,0.234
		c0.164,0,0.375,0,0.375,0h0.259h0.352h0.423h0.47h0.516h0.587h0.634h0.657h0.705h0.751h0.774h0.798h0.822h0.845h0.845h0.869h0.845
		h0.868h0.869h0.845h0.845h0.822h0.798h0.774h0.752h0.704h0.657h0.634h0.587h0.516h0.47h0.423h0.328h0.282c0.211,0,0.328,0,0.328,0
		c-0.164-0.188-0.398-0.445-0.398-0.445l-0.329-0.328l-0.422-0.424l-0.493-0.492l-0.563-0.564l-0.657-0.633l-0.681-0.705
		l-0.775-0.75l-0.798-0.822l-0.868-0.846l-0.893-0.914l-0.938-0.916l-0.963-0.986l-0.985-0.986l-1.01-1.008l-1.032-1.033
		l-1.033-1.033l-1.057-1.057l-1.032-1.033l-1.057-1.033l-1.033-1.031l-1.009-1.01l-0.986-1.01l-0.963-0.963l-0.938-0.939
		l-0.892-0.891l-0.869-0.846l-0.798-0.822l-0.774-0.75l-0.681-0.705l-0.634-0.633l-0.587-0.564l-0.493-0.516l-0.423-0.398
		l-0.328-0.354l-0.235-0.234c-0.211-0.211,0.563-1.197,0.563-1.197l0.774-1.01l0.729-0.984l0.704-1.01l0.681-0.986l0.657-0.986
		l0.634-0.986l0.61-0.984l0.587-1.01l0.563-0.986l0.539-1.01l0.517-1.01l0.517-1.008l0.47-1.033l0.47-1.033l0.422-1.057l0.423-1.057
		l0.376-1.08l0.375-1.104l0.353-1.102l0.328-1.127l0.329-1.15l0.281-1.174l0.282-1.174l0.258-1.221l0.234-1.221l0.212-1.268
		l0.211-1.291l0.188-1.314l0.165-1.338l0.141-1.385l0.141-1.408l0.117-1.457l0.095-1.455l0.094-1.525l0.047-1.549l0.07-1.574
		l0.023-1.643l0.023-1.666l0.023-1.715H217.057z"/>
</g>
<g id="LWPOLYLINE_2_">
	
		<polygon fill="none" stroke="#000000" stroke-width="0.7087" stroke-linecap="round" stroke-linejoin="round" stroke-miterlimit="10" points="
		168.981,240.688 168.418,240.195 167.854,239.68 167.314,239.186 166.774,238.67 166.234,238.176 165.719,237.66 165.226,237.168 
		164.732,236.65 164.263,236.158 163.794,235.641 163.324,235.148 162.901,234.633 162.479,234.139 162.057,233.623 
		161.657,233.129 161.259,232.613 160.883,232.121 160.53,231.604 160.179,231.111 159.85,230.594 159.545,230.102 159.239,229.586 
		158.935,229.092 158.676,228.576 158.418,228.082 158.16,227.566 157.948,227.074 157.737,226.557 157.55,226.064 157.361,225.547 
		157.197,225.055 157.057,224.539 156.916,224.045 156.798,223.529 156.704,223.035 156.634,222.52 156.563,222.027 156.517,221.51 
		156.493,221.018 156.493,220.5 156.493,220.078 156.54,219.633 156.587,219.209 156.657,218.787 156.751,218.365 156.868,217.941 
		157.01,217.52 157.15,217.098 157.338,216.674 157.526,216.275 157.737,215.877 157.972,215.477 158.207,215.078 158.488,214.703 
		158.771,214.326 159.075,213.951 159.38,213.6 159.732,213.246 160.085,212.895 160.46,212.566 160.836,212.262 161.234,211.955 
		161.657,211.65 162.104,211.369 162.55,211.088 162.995,210.854 163.488,210.594 163.981,210.383 164.475,210.148 165.015,209.961 
		165.53,209.773 166.094,209.609 166.657,209.467 167.221,209.35 167.808,209.232 168.395,209.139 169.005,209.068 169.639,209.021 
		170.272,208.975 170.906,208.975 171.681,208.975 172.455,209.021 173.184,209.068 173.888,209.139 174.568,209.232 
		175.226,209.326 175.859,209.467 176.47,209.609 177.057,209.773 177.62,209.938 178.16,210.148 178.676,210.336 179.192,210.57 
		179.662,210.807 180.132,211.041 180.554,211.299 180.977,211.58 181.353,211.861 181.728,212.145 182.08,212.449 182.408,212.777 
		182.737,213.082 183.019,213.412 183.301,213.74 183.559,214.092 183.794,214.42 184.005,214.797 184.216,215.148 184.404,215.5 
		184.568,215.877 184.709,216.229 184.85,216.604 184.967,216.979 185.062,217.332 185.155,217.707 185.202,218.082 
		185.272,218.459 185.296,218.811 185.319,219.186 185.343,219.539 185.319,220.336 185.249,221.111 185.132,221.885 
		184.967,222.637 184.779,223.365 184.568,224.092 184.286,224.82 184.005,225.523 183.676,226.229 183.324,226.908 
		182.925,227.566 182.526,228.223 182.104,228.881 181.634,229.516 181.164,230.125 180.695,230.734 180.179,231.322 
		179.662,231.885 179.146,232.449 178.605,233.012 178.065,233.529 177.502,234.068 176.963,234.562 176.399,235.055 
		175.859,235.523 175.296,235.994 174.756,236.439 174.216,236.861 173.676,237.262 173.16,237.66 172.667,238.035 172.174,238.412 
		171.681,238.764 171.234,239.092 170.789,239.396 170.366,239.68 169.99,239.961 169.615,240.242 169.286,240.477 	"/>
</g>
<g id="LWPOLYLINE_3_">
	
		<polygon fill="none" stroke="#000000" stroke-width="0.7087" stroke-linecap="round" stroke-linejoin="round" stroke-miterlimit="10" points="
		197.831,292.613 197.526,292.918 197.221,293.223 196.893,293.553 196.54,293.904 196.164,294.256 195.766,294.633 
		195.366,295.008 194.92,295.406 194.475,295.783 194.005,296.205 193.535,296.604 193.019,297.027 192.502,297.426 
		191.939,297.848 191.376,298.271 190.789,298.693 190.179,299.092 189.545,299.516 188.888,299.914 188.207,300.312 
		187.526,300.711 186.798,301.088 186.07,301.463 185.296,301.838 184.521,302.168 183.699,302.52 182.878,302.848 182.033,303.152 
		181.164,303.436 180.249,303.717 179.333,303.951 178.395,304.186 177.408,304.396 176.423,304.586 175.413,304.75 
		174.356,304.867 173.301,304.984 172.197,305.055 171.094,305.102 169.943,305.125 169.216,305.102 168.465,305.078 
		167.69,305.055 166.916,304.984 166.117,304.914 165.296,304.82 164.475,304.727 163.652,304.586 162.831,304.443 161.986,304.256 
		161.141,304.068 160.319,303.857 159.475,303.6 158.629,303.342 157.808,303.035 156.986,302.73 156.188,302.379 155.39,302.004 
		154.615,301.58 153.841,301.158 153.089,300.688 152.361,300.195 151.657,299.656 150.977,299.092 150.319,298.506 
		149.686,297.871 149.099,297.191 148.535,296.486 147.995,295.76 147.502,294.984 147.033,294.162 146.634,293.295 
		146.259,292.402 145.906,291.463 145.624,290.477 145.39,289.467 145.202,288.389 145.062,287.285 144.967,286.135 
		144.943,284.938 144.967,284.279 144.99,283.646 145.038,282.988 145.108,282.355 145.179,281.721 145.296,281.088 
		145.413,280.453 145.554,279.82 145.719,279.186 145.906,278.553 146.117,277.918 146.353,277.285 146.61,276.674 146.893,276.041 
		147.174,275.406 147.502,274.75 147.854,274.115 148.23,273.482 148.605,272.824 149.028,272.191 149.475,271.533 149.943,270.877 
		150.46,270.219 150.977,269.562 151.517,268.881 152.104,268.223 152.714,267.543 153.324,266.861 154.005,266.158 
		154.686,265.453 155.39,264.75 156.141,264.045 156.916,263.318 157.737,262.59 158.559,261.838 159.428,261.088 160.343,260.336 
		161.259,259.562 162.221,258.787 163.207,258.012 	"/>
</g>
</svg>
