<?xml version="1.0" encoding="utf-8"?>
<!-- Generator: Adobe Illustrator 16.0.1, SVG Export Plug-In . SVG Version: 6.00 Build 0)  -->
<!DOCTYPE svg PUBLIC "-//W3C//DTD SVG 1.0//EN" "http://www.w3.org/TR/2001/REC-SVG-20010904/DTD/svg10.dtd">
<svg version="1.0" id="_x31_" xmlns="http://www.w3.org/2000/svg" xmlns:xlink="http://www.w3.org/1999/xlink" x="0px" y="0px"
	 width="612px" height="792px" viewBox="0 0 612 792" enable-background="new 0 0 612 792" xml:space="preserve">
<g id="LWPOLYLINE">
	
		<polygon fill="none" stroke="#000000" stroke-width="0.7087" stroke-linecap="round" stroke-linejoin="round" stroke-miterlimit="10" points="
		415.921,595.5 419.469,595.451 422.827,595.264 426.138,595.025 429.307,594.648 432.381,594.176 435.36,593.607 438.246,592.945 
		441.036,592.188 443.686,591.338 446.239,590.391 448.746,589.398 451.111,588.311 453.381,587.174 455.557,585.945 
		457.638,584.621 459.625,583.248 461.517,581.83 463.313,580.363 465.063,578.803 466.672,577.242 468.232,575.586 
		469.651,573.885 471.023,572.182 472.301,570.385 473.483,568.586 474.571,566.742 475.611,564.896 476.558,563.006 
		477.409,561.066 478.213,559.127 478.875,557.188 479.537,555.201 480.058,553.215 480.53,551.229 480.909,549.242 481.24,547.256 
		481.477,545.27 481.666,543.281 481.76,541.295 481.808,539.309 481.76,536.613 481.571,534.012 481.334,531.504 480.956,529.141 
		480.483,526.822 479.915,524.646 479.253,522.518 478.496,520.531 477.692,518.592 476.794,516.795 475.848,515.045 
		474.808,513.391 473.767,511.828 472.632,510.314 471.449,508.896 470.22,507.572 468.942,506.295 467.665,505.064 466.341,503.93 
		464.97,502.889 463.598,501.896 462.226,500.951 460.807,500.051 459.436,499.201 458.017,498.443 456.645,497.734 
		455.226,497.072 453.854,496.457 452.482,495.842 451.158,495.322 449.881,494.85 448.604,494.375 447.327,493.949 
		446.145,493.572 445.01,493.24 443.922,492.91 442.881,492.625 441.888,492.342 440.989,492.105 440.138,491.869 442.077,491.396 
		443.969,490.875 445.813,490.309 447.611,489.74 449.313,489.078 451.017,488.369 452.672,487.66 454.232,486.855 455.746,486.051 
		457.26,485.199 458.679,484.301 460.051,483.355 461.375,482.41 462.699,481.416 463.929,480.375 465.111,479.287 466.246,478.199 
		467.334,477.111 468.375,475.977 469.32,474.795 470.267,473.611 471.165,472.383 472.017,471.152 472.82,469.875 473.53,468.598 
		474.239,467.322 474.902,466.045 475.47,464.721 476.037,463.348 476.51,462.023 476.983,460.652 477.409,459.328 477.74,457.957 
		478.071,456.584 478.308,455.166 478.544,453.795 478.686,452.422 478.828,451.051 478.875,449.633 478.922,448.26 
		478.875,446.084 478.733,443.957 478.496,441.875 478.213,439.793 477.834,437.76 477.361,435.773 476.794,433.787 
		476.179,431.848 475.47,430.004 474.665,428.158 473.767,426.314 472.82,424.564 471.78,422.861 470.646,421.205 469.463,419.551 
		468.186,417.99 466.813,416.453 465.395,414.986 463.882,413.566 462.32,412.195 460.665,410.871 458.915,409.617 457.118,408.412 
		455.273,407.252 453.334,406.164 451.3,405.148 449.219,404.178 447.043,403.279 444.82,402.451 442.55,401.672 440.186,400.986 
		437.726,400.348 435.266,399.779 432.665,399.283 430.063,398.881 427.367,398.525 424.577,398.242 421.786,398.053 
		418.901,397.936 415.921,397.889 412.941,397.936 409.962,398.053 407.076,398.242 404.286,398.525 401.495,398.881 
		398.847,399.283 396.198,399.779 393.691,400.348 391.185,400.986 388.772,401.672 386.454,402.451 384.185,403.279 
		382.009,404.178 379.88,405.148 377.847,406.164 375.859,407.252 373.968,408.412 372.123,409.617 370.373,410.871 
		368.718,412.195 367.109,413.566 365.596,414.986 364.177,416.453 362.806,417.99 361.528,419.551 360.299,421.205 
		359.163,422.861 358.123,424.564 357.177,426.314 356.278,428.158 355.475,430.004 354.765,431.848 354.103,433.787 
		353.582,435.773 353.109,437.76 352.684,439.793 352.399,441.875 352.163,443.957 352.068,446.084 352.021,448.26 352.021,449.633 
		352.116,451.051 352.211,452.422 352.399,453.795 352.589,455.166 352.873,456.584 353.156,457.957 353.535,459.328 
		353.961,460.652 354.387,462.023 354.906,463.348 355.475,464.721 356.089,466.045 356.704,467.322 357.413,468.598 
		358.17,469.875 358.975,471.152 359.825,472.383 360.725,473.611 361.718,474.795 362.711,475.977 363.751,477.111 
		364.887,478.199 366.021,479.287 367.251,480.375 368.528,481.416 369.806,482.41 371.177,483.355 372.596,484.301 
		374.062,485.199 375.623,486.051 377.184,486.855 378.792,487.66 380.495,488.369 382.245,489.078 384.042,489.74 385.887,490.309 
		387.779,490.875 389.718,491.396 391.704,491.869 390.806,492.105 389.86,492.342 388.819,492.625 387.731,492.91 386.597,493.24 
		385.414,493.572 384.185,493.949 382.954,494.375 381.63,494.85 380.306,495.322 378.981,495.842 377.609,496.457 376.238,497.072 
		374.819,497.734 373.447,498.443 372.028,499.201 370.657,500.051 369.285,500.951 367.914,501.896 366.542,502.889 
		365.218,503.93 363.894,505.064 362.616,506.295 361.387,507.572 360.204,508.896 359.021,510.314 357.934,511.828 
		356.894,513.391 355.9,515.045 354.954,516.795 354.103,518.592 353.299,520.531 352.589,522.518 351.927,524.646 351.406,526.822 
		350.934,529.141 350.556,531.504 350.271,534.012 350.13,536.613 350.082,539.309 350.13,541.295 350.225,543.281 350.366,545.27 
		350.603,547.256 350.934,549.242 351.312,551.229 351.737,553.215 352.258,555.201 352.873,557.188 353.535,559.127 
		354.292,561.066 355.144,563.006 356.042,564.896 357.082,566.742 358.123,568.586 359.306,570.385 360.582,572.182 
		361.907,573.885 363.326,575.586 364.839,577.242 366.447,578.803 368.15,580.363 369.947,581.83 371.84,583.248 373.826,584.621 
		375.907,585.945 378.083,587.174 380.353,588.311 382.718,589.398 385.225,590.391 387.826,591.338 390.475,592.188 
		393.312,592.945 396.198,593.607 399.225,594.176 402.347,594.648 405.562,595.025 408.921,595.264 412.374,595.451 	"/>
</g>
<g id="LWPOLYLINE_1_">
	
		<polygon fill="none" stroke="#000000" stroke-width="0.7087" stroke-linecap="round" stroke-linejoin="round" stroke-miterlimit="10" points="
		415.921,479.287 414.36,479.24 412.8,479.193 411.238,479.051 409.726,478.91 408.259,478.721 406.793,478.484 405.326,478.248 
		403.955,477.916 402.536,477.537 401.212,477.16 399.887,476.734 398.61,476.26 397.333,475.74 396.104,475.221 394.921,474.605 
		393.786,473.99 392.65,473.328 391.61,472.666 390.569,471.91 389.529,471.152 388.583,470.348 387.685,469.545 386.785,468.646 
		385.935,467.746 385.178,466.848 384.421,465.855 383.711,464.861 383.049,463.822 382.435,462.781 381.866,461.693 
		381.394,460.559 380.921,459.422 380.495,458.24 380.164,457.059 379.833,455.828 379.597,454.551 379.407,453.273 
		379.266,451.949 379.171,450.625 379.123,449.254 379.171,447.93 379.218,446.652 379.359,445.375 379.502,444.145 
		379.738,442.916 379.975,441.686 380.306,440.504 380.637,439.32 381.016,438.186 381.488,437.051 381.961,435.916 
		382.528,434.828 383.097,433.787 383.711,432.746 384.373,431.754 385.13,430.807 385.887,429.861 386.691,428.916 
		387.542,428.064 388.441,427.213 389.387,426.361 390.38,425.604 391.421,424.848 392.509,424.139 393.644,423.43 394.826,422.814 
		396.056,422.199 397.333,421.631 398.61,421.111 399.981,420.639 401.354,420.166 402.819,419.787 404.286,419.432 
		405.847,419.125 407.407,418.865 409.016,418.629 410.671,418.463 412.421,418.344 414.171,418.273 415.921,418.25 
		417.671,418.273 419.374,418.344 421.029,418.463 422.638,418.629 424.198,418.865 425.759,419.125 427.226,419.432 
		428.691,419.787 430.11,420.166 431.482,420.639 432.854,421.111 434.131,421.631 435.408,422.199 436.638,422.814 437.82,423.43 
		438.955,424.139 440.043,424.848 441.084,425.604 442.124,426.361 443.07,427.213 443.969,428.064 444.867,428.916 
		445.719,429.861 446.476,430.807 447.232,431.754 447.942,432.746 448.604,433.787 449.219,434.828 449.739,435.916 
		450.26,437.051 450.732,438.186 451.158,439.32 451.537,440.504 451.868,441.686 452.104,442.916 452.341,444.145 452.53,445.375 
		452.672,446.652 452.719,447.93 452.767,449.254 452.719,450.625 452.624,451.949 452.482,453.273 452.293,454.551 452.01,455.828 
		451.679,457.059 451.3,458.24 450.874,459.422 450.401,460.559 449.881,461.693 449.267,462.781 448.651,463.822 447.989,464.861 
		447.232,465.855 446.476,466.848 445.672,467.746 444.773,468.646 443.874,469.545 442.976,470.348 441.982,471.152 
		440.941,471.91 439.901,472.666 438.813,473.328 437.679,473.99 436.543,474.605 435.36,475.221 434.131,475.74 432.854,476.26 
		431.577,476.734 430.3,477.16 428.928,477.537 427.604,477.916 426.185,478.248 424.813,478.484 423.347,478.721 421.928,478.91 
		420.462,479.051 418.948,479.193 417.482,479.24 	"/>
</g>
<g id="LWPOLYLINE_2_">
	
		<polygon fill="none" stroke="#000000" stroke-width="0.7087" stroke-linecap="round" stroke-linejoin="round" stroke-miterlimit="10" points="
		415.921,503.504 417.624,503.504 419.232,503.6 420.84,503.693 422.401,503.883 423.962,504.119 425.476,504.355 426.989,504.688 
		428.408,505.064 429.874,505.49 431.246,505.916 432.617,506.438 433.941,507.004 435.219,507.572 436.448,508.234 
		437.679,508.896 438.86,509.605 439.996,510.363 441.084,511.166 442.172,512.018 443.165,512.916 444.158,513.863 
		445.104,514.809 446.003,515.85 446.854,516.891 447.658,517.979 448.415,519.066 449.124,520.248 449.787,521.43 450.401,522.66 
		450.969,523.938 451.489,525.215 451.915,526.539 452.341,527.91 452.719,529.33 453.003,530.748 453.287,532.215 453.476,533.68 
		453.618,535.193 453.712,536.756 453.712,538.363 453.712,539.404 453.665,540.443 453.618,541.531 453.523,542.619 
		453.381,543.756 453.192,544.891 453.003,546.025 452.767,547.207 452.482,548.344 452.199,549.525 451.82,550.707 
		451.442,551.844 450.969,553.025 450.496,554.207 449.929,555.344 449.361,556.479 448.699,557.613 448.036,558.701 
		447.28,559.789 446.476,560.877 445.577,561.918 444.679,562.91 443.686,563.904 442.645,564.85 441.51,565.748 440.327,566.646 
		439.098,567.451 437.772,568.256 436.401,569.012 434.935,569.674 433.374,570.336 431.766,570.904 430.063,571.424 
		428.313,571.896 426.469,572.275 424.529,572.607 422.496,572.891 420.414,573.08 418.239,573.174 415.921,573.223 413.65,573.174 
		411.476,573.08 409.347,572.891 407.312,572.607 405.374,572.275 403.529,571.896 401.731,571.424 400.029,570.904 
		398.374,570.336 396.812,569.674 395.299,569.012 393.928,568.256 392.556,567.451 391.279,566.646 390.049,565.748 
		388.914,564.85 387.826,563.904 386.785,562.91 385.84,561.918 384.941,560.877 384.09,559.789 383.333,558.701 382.576,557.613 
		381.914,556.479 381.299,555.344 380.731,554.207 380.164,553.025 379.69,551.844 379.266,550.707 378.887,549.525 
		378.556,548.344 378.271,547.207 377.988,546.025 377.752,544.891 377.609,543.756 377.468,542.619 377.326,541.531 
		377.278,540.443 377.231,539.404 377.184,538.363 377.231,536.756 377.326,535.193 377.468,533.68 377.657,532.215 
		377.894,530.748 378.225,529.33 378.556,527.91 378.981,526.539 379.454,525.215 379.975,523.938 380.542,522.66 381.157,521.43 
		381.866,520.248 382.576,519.066 383.333,517.979 384.137,516.891 384.988,515.85 385.887,514.809 386.88,513.863 387.873,512.916 
		388.914,512.018 389.954,511.166 391.09,510.363 392.272,509.605 393.455,508.896 394.731,508.234 396.009,507.572 
		397.333,507.004 398.705,506.438 400.076,505.916 401.495,505.49 403.009,505.064 404.475,504.688 406.036,504.355 
		407.597,504.119 409.205,503.883 410.86,503.693 412.516,503.6 414.219,503.504 	"/>
</g>
<g id="LWPOLYLINE_3_">
	
		<path fill="none" stroke="#000000" stroke-width="0.7087" stroke-linecap="round" stroke-linejoin="round" stroke-miterlimit="10" d="
		M217.364,229.223c-0.071,0-0.261,0.023-0.261,0.023l-0.331,0.023l-0.449,0.047l-0.544,0.072l-0.662,0.047l-0.757,0.094
		l-0.852,0.072l-0.945,0.094l-0.994,0.119l-1.088,0.094l-1.135,0.119l-1.206,0.117l-1.229,0.143l-1.301,0.117l-1.324,0.143
		l-1.349,0.119l-1.371,0.141l-1.372,0.143l-1.396,0.143l-1.395,0.141l-1.396,0.143l-1.372,0.143l-1.348,0.141l-1.324,0.119
		l-1.277,0.141l-1.253,0.119l-1.183,0.117l-1.159,0.119l-1.064,0.119l-1.017,0.094l-0.922,0.094l-0.852,0.096l-0.757,0.07
		l-0.662,0.072l-0.567,0.047l-0.426,0.047l-0.331,0.023c-0.213,0.023-0.284,0.023-0.284,0.023c0.166-0.189,0.379-0.449,0.379-0.449
		l0.26-0.355l0.354-0.449l0.402-0.52l0.473-0.592l0.497-0.662l0.591-0.732l0.615-0.805l0.662-0.852l0.686-0.898l0.733-0.945
		l0.757-0.971l0.804-1.016l0.805-1.041l0.827-1.064l0.828-1.088l0.852-1.088l0.851-1.088l0.852-1.111l0.852-1.088l0.852-1.064
		l0.827-1.088l0.805-1.039l0.78-0.994l0.757-0.994l0.733-0.945l0.709-0.898l0.662-0.852l0.615-0.779l0.567-0.734l0.521-0.686
		l0.473-0.592l0.402-0.52l0.331-0.426l0.283-0.355l0.189-0.26c0.142-0.236,0.071-0.283,0.071-0.283
		c-0.143-0.07-0.308-0.166-0.308-0.166c-0.213-0.117-0.473-0.26-0.473-0.26l-0.284-0.189l-0.331-0.189l-0.379-0.189l-0.378-0.236
		l-0.426-0.236l-0.426-0.26l-0.473-0.26l-0.473-0.285l-0.521-0.283l-0.497-0.283l-0.521-0.309l-0.544-0.307l-0.544-0.307
		l-0.52-0.309l-0.544-0.307l-0.544-0.309l-0.521-0.307l-0.544-0.283l-0.497-0.309l-0.496-0.283l-0.497-0.283l-0.449-0.262
		l-0.449-0.26l-0.426-0.236l-0.378-0.213l-0.379-0.213l-0.308-0.189l-0.307-0.164l-0.261-0.143
		c-0.213-0.119-0.378-0.236-0.378-0.236c-0.236-0.119-0.261-0.07-0.261-0.07c-0.094,0.188-0.213,0.473-0.213,0.473l-0.188,0.402
		l-0.236,0.496l-0.261,0.592l-0.308,0.662l-0.354,0.756l-0.378,0.828l-0.402,0.898l-0.449,0.945l-0.449,1.018l-0.497,1.064
		l-0.521,1.111l-0.52,1.158l-0.544,1.16l-0.544,1.205l-0.567,1.23l-0.544,1.229l-0.568,1.23l-0.567,1.23l-0.567,1.229l-0.567,1.23
		l-0.544,1.205l-0.544,1.16l-0.521,1.158l-0.521,1.111l-0.496,1.041l-0.449,1.018l-0.45,0.969l-0.401,0.898l-0.379,0.828
		l-0.354,0.756l-0.308,0.662l-0.283,0.592l-0.213,0.496l-0.189,0.402l-0.118,0.283c-0.236,0-0.354-0.283-0.354-0.283l-0.166-0.402
		l-0.213-0.496l-0.26-0.592l-0.284-0.662l-0.331-0.756l-0.378-0.828l-0.379-0.898l-0.426-0.969l-0.449-1.018l-0.449-1.041
		l-0.496-1.111l-0.497-1.158l-0.497-1.16l-0.544-1.205l-0.52-1.23l-0.544-1.229l-0.544-1.23l-0.521-1.23l-0.544-1.229l-0.544-1.23
		l-0.521-1.205l-0.496-1.16l-0.497-1.158l-0.496-1.111l-0.474-1.064l-0.426-1.018l-0.426-0.945l-0.401-0.898l-0.354-0.828
		l-0.332-0.756l-0.283-0.662l-0.26-0.592l-0.213-0.496l-0.166-0.402l-0.142-0.285c-0.189-0.188-0.308-0.117-0.308-0.117
		c-0.166,0.117-0.379,0.236-0.379,0.236l-0.236,0.143l-0.283,0.164l-0.308,0.189l-0.354,0.213l-0.355,0.213l-0.401,0.236
		l-0.426,0.26l-0.426,0.262l-0.473,0.283l-0.474,0.283l-0.473,0.309l-0.497,0.283l-0.52,0.307l-0.497,0.309l-0.521,0.307
		l-0.496,0.309l-0.521,0.307l-0.497,0.307l-0.496,0.309l-0.497,0.283l-0.473,0.283l-0.449,0.285l-0.426,0.26l-0.426,0.26
		l-0.402,0.236l-0.378,0.236l-0.331,0.189l-0.308,0.189l-0.284,0.189l-0.236,0.143c-0.213,0.117-0.378,0.213-0.378,0.213
		c-0.166,0.188-0.048,0.354-0.048,0.354l0.189,0.26l0.261,0.355l0.331,0.426l0.378,0.52l0.449,0.592l0.521,0.686l0.544,0.734
		l0.591,0.779l0.639,0.852l0.686,0.898l0.71,0.945l0.733,0.994l0.757,0.994l0.78,1.039l0.804,1.088l0.804,1.064l0.828,1.088
		l0.828,1.111l0.804,1.088l0.828,1.088l0.827,1.088l0.78,1.064l0.78,1.041l0.781,1.016l0.732,0.971l0.71,0.945l0.662,0.898
		l0.639,0.852l0.591,0.805l0.567,0.732l0.497,0.662l0.449,0.592l0.402,0.52l0.307,0.449l0.284,0.355l0.189,0.26
		c-0.118,0.166-0.449,0.119-0.449,0.119l-0.449-0.047l-0.544-0.072l-0.662-0.07l-0.757-0.094l-0.852-0.096l-0.923-0.117
		l-1.017-0.119l-1.088-0.143l-1.135-0.141l-1.183-0.143l-1.254-0.143l-1.276-0.164l-1.324-0.143l-1.372-0.166l-1.348-0.166
		l-1.396-0.188l-1.396-0.166l-1.396-0.166l-1.371-0.166l-1.372-0.164l-1.348-0.166l-1.324-0.166l-1.301-0.143l-1.229-0.164
		l-1.207-0.143l-1.135-0.143l-1.088-0.117l-0.993-0.119l-0.946-0.117l-0.851-0.096l-0.757-0.094l-0.662-0.096l-0.544-0.07
		l-0.45-0.047l-0.331-0.023c-0.188-0.047-0.26-0.047-0.26-0.047c0,0.236,0,0.426,0,0.426c0,0.211,0,0.496,0,0.496v0.307v0.332v0.377
		v0.402v0.449v0.449v0.498v0.496v0.52v0.545v0.543v0.545v0.566v0.545v0.568v0.566v0.545v0.543v0.545v0.52v0.496v0.498v0.449v0.449
		v0.4v0.379v0.332v0.307v0.283c0,0.213,0,0.402,0,0.402c0.071,0.236,0.26,0.213,0.26,0.213l0.308-0.023l0.449-0.023l0.544-0.023
		l0.639-0.047l0.757-0.049l0.828-0.047l0.898-0.07l0.993-0.047l1.064-0.072l1.111-0.07l1.183-0.07l1.206-0.072l1.277-0.07
		l1.276-0.094l1.324-0.072l1.349-0.094l1.348-0.07l1.372-0.096l1.371-0.07l1.349-0.096l1.348-0.07l1.324-0.094l1.301-0.072
		l1.253-0.094l1.206-0.07l1.183-0.072l1.111-0.07l1.064-0.07l0.993-0.049l0.899-0.047l0.851-0.07l0.733-0.047l0.639-0.025
		l0.544-0.047l0.449-0.023l0.308-0.023c0.213,0,0.26,0,0.26,0c-0.165,0.213-0.354,0.449-0.354,0.449l-0.26,0.355l-0.355,0.449
		l-0.401,0.52l-0.474,0.592l-0.52,0.662l-0.568,0.732l-0.614,0.805l-0.662,0.852l-0.687,0.898l-0.732,0.945l-0.757,0.971
		l-0.805,1.016l-0.804,1.041l-0.828,1.064l-0.827,1.088l-0.852,1.088l-0.852,1.088l-0.852,1.111l-0.851,1.088l-0.852,1.088
		l-0.828,1.064l-0.804,1.041l-0.78,0.992l-0.78,0.994l-0.733,0.945l-0.686,0.898l-0.662,0.852l-0.615,0.805l-0.567,0.709
		l-0.521,0.686l-0.473,0.592l-0.402,0.52l-0.331,0.449l-0.284,0.332l-0.188,0.26c-0.143,0.236-0.071,0.283-0.071,0.283
		c0.142,0.049,0.308,0.143,0.308,0.143c0.213,0.119,0.473,0.236,0.473,0.236l0.284,0.166l0.331,0.166l0.354,0.188l0.402,0.213
		l0.426,0.213l0.425,0.238l0.474,0.236l0.473,0.26l0.521,0.26l0.496,0.26l0.521,0.26l0.544,0.285l0.521,0.283l0.544,0.283
		l0.544,0.285l0.544,0.283l0.521,0.26l0.52,0.283l0.521,0.262l0.497,0.26l0.496,0.26l0.449,0.236l0.449,0.236l0.426,0.213
		l0.379,0.213l0.354,0.189l0.331,0.166l0.308,0.141l0.26,0.143c0.213,0.119,0.379,0.213,0.379,0.213
		c0.236,0.117,0.26,0.047,0.26,0.047c0.071-0.189,0.213-0.473,0.213-0.473l0.189-0.379l0.213-0.496l0.283-0.592l0.308-0.686
		l0.331-0.756l0.402-0.828l0.402-0.898l0.449-0.947l0.449-1.016l0.496-1.064l0.497-1.111l0.544-1.135l0.544-1.184l0.544-1.205
		l0.544-1.207l0.567-1.229l0.567-1.254l0.567-1.23l0.568-1.229l0.567-1.23l0.544-1.184l0.544-1.182l0.521-1.135l0.52-1.111
		l0.474-1.064l0.473-1.018l0.449-0.969l0.402-0.898l0.378-0.805l0.355-0.756l0.307-0.688l0.261-0.59l0.236-0.498l0.189-0.377
		l0.118-0.309c0.236,0.023,0.354,0.309,0.354,0.309l0.189,0.402l0.213,0.52l0.283,0.592l0.308,0.686l0.354,0.779l0.379,0.852
		l0.401,0.898l0.45,0.994l0.449,1.041l0.496,1.088l0.521,1.135l0.521,1.158l0.544,1.207l0.544,1.229l0.567,1.254l0.567,1.254
		l0.567,1.254l0.568,1.275l0.544,1.254l0.567,1.254l0.544,1.229l0.544,1.184l0.52,1.182l0.521,1.137l0.497,1.086l0.449,1.041
		l0.449,0.971l0.402,0.922l0.378,0.852l0.354,0.756l0.308,0.711l0.261,0.59l0.236,0.498l0.188,0.4l0.119,0.309
		c0.094,0.189,0.118,0.236,0.118,0.236c0.213-0.143,0.378-0.236,0.378-0.236c0.213-0.143,0.449-0.309,0.449-0.309l0.284-0.189
		l0.308-0.188l0.354-0.236l0.354-0.238l0.402-0.26l0.426-0.283l0.426-0.283l0.473-0.309l0.473-0.307l0.474-0.332l0.496-0.33
		l0.497-0.332l0.52-0.33l0.521-0.332l0.497-0.33l0.521-0.355l0.496-0.33l0.497-0.309l0.473-0.33l0.473-0.309l0.474-0.307
		l0.426-0.283l0.425-0.285l0.402-0.26l0.379-0.236l0.331-0.236l0.307-0.213l0.284-0.166l0.236-0.166
		c0.213-0.141,0.379-0.236,0.379-0.236c0.165-0.213,0.047-0.354,0.047-0.354l-0.189-0.26l-0.26-0.332l-0.331-0.426l-0.378-0.52
		l-0.45-0.568l-0.52-0.662l-0.544-0.709l-0.592-0.781l-0.639-0.828l-0.686-0.875l-0.709-0.922l-0.733-0.945l-0.757-0.994
		l-0.78-1.016l-0.805-1.041l-0.804-1.041l-0.827-1.064l-0.828-1.064l-0.828-1.088l-0.804-1.062l-0.828-1.041l-0.78-1.041
		l-0.78-1.018l-0.78-0.992l-0.733-0.947l-0.709-0.922l-0.662-0.875l-0.639-0.828l-0.615-0.779l-0.544-0.709l-0.496-0.662
		l-0.449-0.568l-0.402-0.52l-0.331-0.426l-0.261-0.332l-0.188-0.26c0.118-0.166,0.449-0.143,0.449-0.143l0.426,0.047l0.567,0.049
		l0.662,0.07l0.757,0.07l0.852,0.096l0.922,0.094l1.017,0.096l1.064,0.117l1.159,0.119l1.183,0.117l1.253,0.119l1.277,0.141
		l1.324,0.119l1.348,0.143l1.372,0.141l1.396,0.143l1.395,0.143l1.396,0.141l1.372,0.143l1.371,0.143l1.349,0.117l1.324,0.143
		l1.301,0.141l1.229,0.119l1.206,0.117l1.135,0.119l1.088,0.119l0.994,0.094l0.945,0.094l0.852,0.072l0.757,0.094l0.662,0.047
		l0.544,0.072l0.449,0.047l0.331,0.023c0.189,0.023,0.261,0.023,0.261,0.023V229.223z"/>
</g>
</svg>
