<?xml version="1.0" encoding="utf-8"?>
<!-- Generator: Adobe Illustrator 16.0.1, SVG Export Plug-In . SVG Version: 6.00 Build 0)  -->
<!DOCTYPE svg PUBLIC "-//W3C//DTD SVG 1.0//EN" "http://www.w3.org/TR/2001/REC-SVG-20010904/DTD/svg10.dtd">
<svg version="1.0" id="_x31_" xmlns="http://www.w3.org/2000/svg" xmlns:xlink="http://www.w3.org/1999/xlink" x="0px" y="0px"
	 width="612px" height="792px" viewBox="0 0 612 792" enable-background="new 0 0 612 792" xml:space="preserve">
<g id="LWPOLYLINE">
	
		<polygon fill="none" stroke="#000000" stroke-width="0.7087" stroke-linecap="round" stroke-linejoin="round" stroke-miterlimit="10" points="
		341.119,547.18 341.119,547.736 341.119,548.338 341.119,548.939 341.119,549.588 341.119,550.234 341.119,550.883 
		341.166,551.531 341.166,552.225 341.212,552.92 341.258,553.66 341.305,554.354 341.351,555.096 341.443,555.836 341.489,556.576 
		341.582,557.363 341.721,558.104 341.813,558.891 341.952,559.678 342.092,560.463 342.276,561.25 342.462,562.084 
		342.693,562.871 342.878,563.703 343.156,564.49 343.434,565.324 343.711,566.156 343.989,566.943 344.359,567.775 
		344.729,568.609 345.1,569.443 345.517,570.275 345.933,571.062 346.396,571.896 346.904,572.682 347.46,573.516 348.016,574.348 
		348.617,575.135 349.219,575.922 349.867,576.709 350.562,577.496 351.07,578.006 351.626,578.514 352.181,579.07 352.782,579.625 
		353.431,580.18 354.079,580.736 354.772,581.338 355.467,581.939 356.208,582.494 356.994,583.096 357.827,583.697 358.66,584.299 
		359.494,584.9 360.419,585.502 361.345,586.104 362.317,586.707 363.289,587.309 364.308,587.863 365.372,588.418 366.437,588.975 
		367.593,589.529 368.704,590.084 369.907,590.594 371.11,591.104 372.36,591.566 373.656,592.029 374.952,592.445 376.294,592.861 
		377.683,593.277 379.118,593.648 380.553,593.973 382.033,594.297 383.561,594.574 385.088,594.805 386.662,594.99 
		388.281,595.176 389.948,595.314 391.66,595.408 393.373,595.5 395.132,595.5 399.528,595.408 403.694,595.084 407.721,594.621 
		411.562,593.926 415.265,593.047 418.736,591.982 422.068,590.779 425.262,589.391 428.271,587.863 431.14,586.15 433.824,584.346 
		436.416,582.402 438.822,580.318 441.091,578.098 443.266,575.783 445.302,573.33 447.153,570.83 448.959,568.193 450.578,565.463 
		452.105,562.686 453.541,559.816 454.837,556.9 456.04,553.938 457.15,550.883 458.169,547.781 459.095,544.682 459.928,541.533 
		460.668,538.34 461.316,535.146 461.918,531.953 462.427,528.713 462.844,525.52 463.214,522.326 463.538,519.133 463.815,515.939 
		464.001,512.838 464.14,509.738 464.232,506.684 464.324,503.674 464.324,500.713 464.324,497.287 464.232,493.863 464.14,490.391 
		464.001,486.92 463.815,483.449 463.584,479.932 463.307,476.461 462.936,472.988 462.52,469.564 462.057,466.139 461.501,462.715 
		460.854,459.381 460.159,456.049 459.372,452.764 458.493,449.523 457.475,446.377 456.41,443.275 455.253,440.221 
		453.957,437.258 452.568,434.389 451.088,431.566 449.468,428.881 447.755,426.244 445.904,423.744 443.914,421.338 
		441.785,419.047 439.563,416.895 437.156,414.834 434.611,412.938 431.927,411.154 429.104,409.512 426.095,408.031 
		422.947,406.689 419.615,405.531 416.144,404.514 412.487,403.68 408.646,403.01 404.666,402.547 400.454,402.246 396.058,402.152 
		394.067,402.176 392.077,402.314 390.04,402.5 388.004,402.777 385.968,403.148 383.931,403.588 381.895,404.098 379.858,404.676 
		377.868,405.324 375.832,406.064 373.842,406.852 371.897,407.73 369.954,408.656 368.01,409.674 366.112,410.738 364.261,411.873 
		362.409,413.1 360.65,414.348 358.892,415.691 357.226,417.08 355.56,418.537 353.986,420.041 352.459,421.615 350.978,423.234 
		349.543,424.9 348.201,426.66 346.951,428.465 345.748,430.316 344.591,432.168 343.572,434.158 342.601,436.148 341.721,438.184 
		340.935,440.268 340.24,442.396 339.639,444.617 339.176,446.84 338.759,449.107 338.481,451.422 338.296,453.781 338.25,456.188 
		338.296,459.475 338.435,462.668 338.713,465.77 339.037,468.824 339.5,471.74 340.009,474.562 340.656,477.34 341.351,479.979 
		342.138,482.57 343.017,485.023 343.942,487.43 345.007,489.744 346.071,491.965 347.275,494.094 348.479,496.131 349.82,498.121 
		351.163,499.973 352.598,501.777 354.125,503.49 355.652,505.109 357.272,506.637 358.938,508.117 360.65,509.459 362.409,510.756 
		364.215,512.006 366.065,513.117 367.964,514.182 369.861,515.105 371.852,516.031 373.842,516.818 375.878,517.559 
		377.914,518.207 379.997,518.764 382.126,519.271 384.255,519.688 386.384,520.012 388.56,520.291 390.734,520.475 392.91,520.613 
		395.132,520.613 396.289,520.613 397.399,520.613 398.557,520.568 399.714,520.475 400.871,520.383 402.027,520.291 
		403.231,520.15 404.388,519.967 405.545,519.781 406.702,519.596 407.905,519.365 409.062,519.086 410.22,518.809 411.377,518.484 
		412.534,518.115 413.691,517.744 414.848,517.328 415.959,516.865 417.116,516.402 418.227,515.893 419.338,515.338 
		420.448,514.736 421.56,514.135 422.624,513.486 423.688,512.746 424.753,512.006 425.817,511.219 426.835,510.432 
		427.854,509.553 428.872,508.627 429.844,507.701 430.815,506.684 431.741,505.619 432.667,504.555 433.593,503.396 
		434.472,502.193 435.305,500.943 436.185,499.693 436.972,498.352 437.758,496.918 437.758,500.99 437.712,504.924 
		437.619,508.766 437.48,512.469 437.295,516.078 437.063,519.549 436.786,522.883 436.462,526.121 436.092,529.27 435.676,532.277 
		435.213,535.193 434.703,537.971 434.148,540.654 433.546,543.199 432.898,545.699 432.158,548.061 431.417,550.281 
		430.584,552.457 429.705,554.494 428.779,556.391 427.808,558.242 426.743,559.955 425.632,561.621 424.475,563.148 
		423.226,564.582 421.976,565.879 420.634,567.129 419.198,568.238 417.718,569.303 416.19,570.229 414.57,571.109 412.904,571.85 
		411.146,572.498 409.341,573.1 407.489,573.562 405.545,573.979 403.509,574.256 401.426,574.488 399.251,574.627 397.029,574.672 
		396.104,574.627 395.132,574.627 394.206,574.58 393.234,574.488 392.262,574.395 391.29,574.256 390.318,574.07 389.347,573.885 
		388.374,573.701 387.402,573.424 386.431,573.145 385.458,572.82 384.486,572.498 383.561,572.127 382.589,571.711 381.71,571.248 
		380.784,570.785 379.904,570.275 379.025,569.674 378.192,569.072 377.359,568.424 376.572,567.775 375.785,567.035 
		375.045,566.25 374.351,565.463 373.656,564.582 373.009,563.656 372.406,562.732 371.805,561.713 371.296,560.648 
		370.787,559.537 370.37,558.381 369.954,557.178 369.63,555.928 369.306,554.633 369.028,553.244 368.843,551.809 368.704,550.328 
		368.611,548.754 368.565,547.18 	"/>
</g>
<g id="LWPOLYLINE_1_">
	
		<polygon fill="none" stroke="#000000" stroke-width="0.7087" stroke-linecap="round" stroke-linejoin="round" stroke-miterlimit="10" points="
		399.853,500.713 398.371,500.713 396.891,500.619 395.455,500.48 394.021,500.295 392.586,500.064 391.197,499.787 
		389.809,499.463 388.467,499.047 387.125,498.629 385.829,498.121 384.579,497.611 383.329,497.01 382.08,496.361 380.876,495.715 
		379.72,494.973 378.608,494.188 377.498,493.4 376.434,492.52 375.369,491.594 374.396,490.67 373.425,489.65 372.499,488.633 
		371.62,487.521 370.787,486.41 370,485.207 369.26,484.004 368.519,482.754 367.871,481.459 367.223,480.117 366.668,478.729 
		366.158,477.293 365.695,475.859 365.279,474.377 364.909,472.805 364.585,471.23 364.308,469.609 364.122,467.99 363.983,466.277 
		363.891,464.566 363.845,462.807 363.891,461.094 363.937,459.428 364.076,457.809 364.215,456.188 364.399,454.568 
		364.678,452.994 364.955,451.467 365.279,449.939 365.695,448.459 366.112,446.979 366.575,445.59 367.084,444.201 367.64,442.812 
		368.241,441.516 368.89,440.221 369.583,438.971 370.324,437.768 371.064,436.611 371.897,435.453 372.73,434.389 373.61,433.324 
		374.536,432.307 375.508,431.381 376.525,430.455 377.591,429.576 378.701,428.789 379.812,428.002 380.969,427.309 
		382.172,426.613 383.422,426.012 384.718,425.457 386.061,424.947 387.402,424.484 388.791,424.113 390.226,423.791 
		391.707,423.512 393.234,423.281 394.762,423.143 396.335,423.049 397.955,423.004 399.39,423.004 400.778,423.096 
		402.213,423.234 403.602,423.42 404.943,423.605 406.332,423.883 407.674,424.207 409.017,424.576 410.312,424.994 
		411.608,425.502 412.858,426.012 414.107,426.566 415.311,427.215 416.515,427.863 417.718,428.604 418.828,429.391 
		419.939,430.178 421.05,431.057 422.068,431.982 423.087,432.955 424.059,433.973 424.984,435.037 425.91,436.148 426.789,437.352 
		427.576,438.555 428.362,439.805 429.104,441.146 429.798,442.488 430.445,443.924 431.047,445.404 431.557,446.932 
		432.065,448.459 432.481,450.078 432.898,451.746 433.223,453.457 433.5,455.262 433.686,457.068 433.87,458.92 433.963,460.863 
		434.009,462.807 433.963,464.52 433.917,466.186 433.777,467.805 433.639,469.379 433.407,470.953 433.176,472.525 
		432.853,474.008 432.528,475.488 432.158,476.924 431.741,478.311 431.232,479.699 430.723,481.043 430.168,482.338 
		429.566,483.588 428.918,484.791 428.271,485.994 427.529,487.105 426.743,488.217 425.956,489.281 425.123,490.299 
		424.197,491.271 423.271,492.197 422.3,493.076 421.281,493.908 420.264,494.742 419.152,495.482 418.042,496.176 416.838,496.824 
		415.635,497.426 414.386,497.982 413.089,498.49 411.793,498.953 410.405,499.371 409.017,499.74 407.582,500.018 406.101,500.295 
		404.619,500.48 403.046,500.619 401.473,500.713 	"/>
</g>
<g id="LWPOLYLINE_2_">
	
		<path fill="none" stroke="#000000" stroke-width="0.7087" stroke-linecap="round" stroke-linejoin="round" stroke-miterlimit="10" d="
		M178.064,336.732l-0.647-2.314l-0.602-2.268l-0.625-2.223l-0.602-2.197l-0.579-2.129l-0.578-2.105l-0.579-2.061l-0.555-2.014
		l-0.532-1.99l-0.532-1.943l-0.51-1.92l-0.485-1.875l-0.486-1.852l-0.486-1.828l-0.439-1.805l-0.463-1.783l-0.416-1.758
		l-0.417-1.736l-0.394-1.711l-0.394-1.689l-0.347-1.689l-0.347-1.666l-0.348-1.645l-0.301-1.643l-0.301-1.643l-0.277-1.621
		l-0.278-1.619l-0.231-1.619l-0.231-1.621l-0.208-1.596l-0.208-1.621l-0.162-1.619l-0.162-1.619l-0.115-1.621l-0.116-1.643
		l-0.093-1.643l-0.069-1.645l-0.069-1.666l-0.023-1.689v-1.688v-0.787v-0.787v-0.764l0.023-0.787l0.023-0.764v-0.764l0.046-0.787
		l0.023-0.764l0.023-0.787l0.046-0.764l0.046-0.787l0.047-0.785l0.046-0.787l0.047-0.787l0.069-0.787l0.069-0.811l0.069-0.809
		l0.069-0.811l0.093-0.834l0.069-0.809l0.093-0.857l0.115-0.832l0.093-0.879l0.115-0.857l0.116-0.879l0.115-0.902l0.116-0.902
		l0.139-0.926l0.139-0.926l0.139-0.949l0.14-0.973l0.161-0.971l0.162-0.996l0.162-1.018l0.186-1.018l0.185-1.041l0.186-1.088
		l0.208-1.088l0.186-1.088l0.208-1.135l0.301-1.133l0.277-1.111l0.278-1.111l0.277-1.088l0.301-1.064l0.278-1.064l0.277-1.041
		l0.277-1.041l0.278-1.018l0.277-0.996l0.277-0.994l0.278-0.973l0.254-0.949l0.278-0.947l0.254-0.926l0.278-0.926l0.254-0.902
		l0.255-0.881l0.255-0.879l0.254-0.855l0.255-0.857l0.231-0.832l0.231-0.811l0.255-0.811l0.231-0.785l0.208-0.764l0.231-0.764
		l0.208-0.742l0.208-0.74l0.209-0.717l0.208-0.695l0.208-0.693l0.186-0.693l0.185-0.648l0.186-0.648l0.162-0.625l0.162-0.625
		l0.162-0.602l0.162-0.602l0.139-0.578c-0.162,0-0.301,0-0.301,0c-0.14,0-0.324,0-0.324,0c-0.231,0-0.463,0-0.463,0h-0.255h-0.277
		h-0.301h-0.324h-0.347h-0.348h-0.37h-0.37h-0.37h-0.394h-0.37h-0.394h-0.394h-0.394h-0.394h-0.37h-0.37h-0.37h-0.348h-0.323h-0.324
		h-0.301h-0.277h-0.278h-0.231c-0.208,0-0.394,0-0.394,0c-0.161,0-0.277,0-0.277,0c-0.186,0-0.394,0.51-0.394,0.51l-0.208,0.531
		l-0.231,0.533l-0.231,0.531l-0.231,0.578l-0.231,0.58l-0.231,0.578l-0.231,0.602l-0.255,0.625l-0.231,0.625l-0.254,0.646
		l-0.255,0.672l-0.255,0.672l-0.277,0.693l-0.255,0.693l-0.277,0.719l-0.255,0.74l-0.277,0.74l-0.277,0.764l-0.301,0.764
		l-0.278,0.787l-0.301,0.811l-0.277,0.832l-0.301,0.811l-0.301,0.855l-0.301,0.857l-0.301,0.879l-0.324,0.879l-0.301,0.902
		l-0.324,0.926l-0.324,0.926l-0.323,0.949l-0.324,0.973l-0.348,0.971l-0.323,0.973l-0.348,1.018l-0.347,1.018l-0.348,1.02
		l-0.347,1.041l-0.348,1.064l-0.277,0.926l-0.277,0.926l-0.278,0.949l-0.277,0.926l-0.255,0.947l-0.277,0.926l-0.255,0.949
		l-0.255,0.949l-0.254,0.949l-0.231,0.947l-0.231,0.949l-0.231,0.949l-0.231,0.949L151.753,240l-0.208,0.949l-0.209,0.949
		l-0.208,0.973l-0.185,0.947l-0.186,0.973l-0.186,0.949l-0.161,0.971l-0.186,0.949l-0.162,0.973l-0.139,0.949l-0.139,0.971
		l-0.139,0.949l-0.14,0.949l-0.115,0.949l-0.116,0.971l-0.092,0.949l-0.093,0.949l-0.093,0.949l-0.069,0.947l-0.069,0.926
		l-0.047,0.949l-0.046,0.949l-0.046,0.926l-0.023,0.926l-0.023,0.949v0.926l0.023,1.781l0.069,1.781l0.093,1.805l0.115,1.807
		l0.162,1.828l0.209,1.828l0.23,1.828l0.255,1.828l0.278,1.852l0.323,1.828l0.348,1.85l0.37,1.852l0.416,1.875l0.417,1.852
		l0.439,1.852l0.463,1.852l0.486,1.873l0.509,1.852l0.532,1.852l0.556,1.852l0.556,1.828l0.555,1.852l0.602,1.852l0.603,1.828
		l0.602,1.828l0.624,1.805l0.625,1.805l0.648,1.805l0.647,1.807l0.648,1.781l0.647,1.758l0.672,1.76l0.647,1.758l0.671,1.736
		l0.648,1.713l0.671,1.711l0.647,1.689l0.672,1.689l0.647,1.645l0.625,1.643H178.064z"/>
</g>
</svg>
