<?xml version="1.0" encoding="utf-8"?>
<!-- Generator: Adobe Illustrator 16.0.1, SVG Export Plug-In . SVG Version: 6.00 Build 0)  -->
<!DOCTYPE svg PUBLIC "-//W3C//DTD SVG 1.0//EN" "http://www.w3.org/TR/2001/REC-SVG-20010904/DTD/svg10.dtd">
<svg version="1.0" id="_x31_" xmlns="http://www.w3.org/2000/svg" xmlns:xlink="http://www.w3.org/1999/xlink" x="0px" y="0px"
	 width="612px" height="792px" viewBox="0 0 612 792" enable-background="new 0 0 612 792" xml:space="preserve">
<g id="LWPOLYLINE">
	
		<polygon fill="none" stroke="#000000" stroke-width="0.7087" stroke-linecap="round" stroke-linejoin="round" stroke-miterlimit="10" points="
		482.341,447.691 482.341,447.078 482.293,446.512 482.293,445.852 482.293,445.238 482.246,444.578 482.246,443.918 
		482.199,443.209 482.151,442.502 482.104,441.795 482.01,441.086 481.963,440.332 481.868,439.623 481.774,438.869 
		481.633,438.066 481.491,437.312 481.35,436.51 481.208,435.756 481.02,434.953 480.831,434.104 480.642,433.303 480.406,432.5 
		480.17,431.65 479.887,430.85 479.604,430 479.321,429.197 478.99,428.348 478.613,427.5 478.236,426.65 477.858,425.848 
		477.434,424.998 476.962,424.15 476.49,423.348 476.019,422.498 475.5,421.648 474.934,420.848 474.32,419.998 473.707,419.195 
		473.094,418.371 472.386,417.568 471.678,416.766 471.159,416.176 470.641,415.586 470.074,414.996 469.461,414.383 
		468.848,413.77 468.187,413.133 467.479,412.52 466.771,411.883 466.063,411.27 465.262,410.633 464.46,410.02 463.658,409.383 
		462.809,408.77 461.912,408.156 460.969,407.566 460.025,406.977 459.034,406.387 457.996,405.797 456.959,405.23 455.873,404.689 
		454.741,404.146 453.608,403.627 452.382,403.131 451.155,402.637 449.929,402.188 448.608,401.74 447.287,401.314 
		445.872,400.914 444.456,400.537 443.041,400.184 441.531,399.877 440.021,399.57 438.418,399.311 436.813,399.074 
		435.162,398.885 433.464,398.721 431.718,398.578 429.973,398.484 428.133,398.438 426.293,398.414 421.858,398.531 
		417.659,398.885 413.602,399.475 409.733,400.301 406.054,401.314 402.515,402.541 399.165,403.957 395.957,405.584 
		392.891,407.354 389.966,409.336 387.229,411.459 384.635,413.723 382.181,416.152 379.822,418.701 377.652,421.414 
		375.576,424.197 373.642,427.121 371.802,430.141 370.15,433.254 368.547,436.463 367.084,439.719 365.716,443.068 
		364.489,446.512 363.31,449.955 362.271,453.447 361.328,457.033 360.432,460.57 359.677,464.156 358.97,467.789 358.356,471.375 
		357.79,474.961 357.318,478.547 356.94,482.131 356.61,485.623 356.327,489.113 356.092,492.559 355.95,495.955 355.809,499.258 
		355.762,502.512 355.762,505.674 355.762,507.418 355.762,509.164 355.809,510.957 355.855,512.703 355.903,514.496 
		355.997,516.336 356.045,518.129 356.186,519.969 356.28,521.762 356.422,523.602 356.563,525.441 356.752,527.281 356.94,529.074 
		357.177,530.914 357.413,532.754 357.695,534.594 357.979,536.434 358.309,538.273 358.64,540.066 359.017,541.906 
		359.395,543.699 359.818,545.492 360.29,547.285 360.763,549.078 361.281,550.822 361.8,552.615 362.366,554.314 362.979,556.061 
		363.64,557.758 364.301,559.457 365.008,561.154 365.763,562.807 366.565,564.41 367.367,566.061 368.217,567.619 369.112,569.223 
		370.057,570.732 371.047,572.289 372.085,573.752 373.123,575.215 373.972,576.158 374.774,577.055 375.671,577.951 
		376.567,578.846 377.463,579.695 378.407,580.545 379.397,581.348 380.389,582.148 381.379,582.951 382.417,583.705 
		383.502,584.414 384.587,585.168 385.672,585.828 386.805,586.537 387.937,587.15 389.116,587.811 390.296,588.424 391.476,588.99 
		392.702,589.557 393.929,590.074 395.155,590.594 396.382,591.066 397.655,591.537 398.93,592.01 400.25,592.387 401.524,592.811 
		402.845,593.189 404.166,593.52 405.487,593.803 406.855,594.133 408.177,594.369 409.545,594.604 410.865,594.84 412.233,594.982 
		413.602,595.17 414.97,595.266 416.338,595.406 417.754,595.453 419.122,595.5 420.49,595.5 422.943,595.453 425.396,595.359 
		427.85,595.123 430.256,594.84 432.662,594.463 435.021,594.037 437.38,593.473 439.738,592.859 442.05,592.15 444.314,591.35 
		446.532,590.453 448.75,589.51 450.92,588.471 453.043,587.338 455.118,586.16 457.1,584.838 459.081,583.471 461.016,582.008 
		462.903,580.498 464.695,578.846 466.441,577.148 468.093,575.355 469.744,573.469 471.254,571.533 472.716,569.459 
		474.132,567.336 475.452,565.164 476.679,562.854 477.858,560.494 478.896,557.994 479.887,555.494 480.783,552.852 
		481.586,550.162 482.246,547.332 482.859,544.453 483.378,541.529 483.756,538.463 484.039,535.348 484.181,532.141 
		484.274,528.838 484.228,525.912 484.039,523.035 483.803,520.252 483.473,517.562 483.096,514.92 482.576,512.326 
		481.963,509.824 481.303,507.418 480.548,505.061 479.698,502.795 478.755,500.578 477.764,498.455 476.727,496.379 
		475.594,494.398 474.367,492.463 473.094,490.67 471.772,488.877 470.357,487.18 468.895,485.576 467.338,484.02 465.781,482.557 
		464.13,481.188 462.432,479.867 460.686,478.641 458.893,477.461 457.006,476.375 455.118,475.338 453.185,474.395 
		451.203,473.545 449.222,472.742 447.146,472.035 445.069,471.375 442.899,470.809 440.776,470.289 438.559,469.912 
		436.342,469.535 434.124,469.299 431.859,469.109 429.548,468.969 427.236,468.922 425.16,468.969 423.179,469.062 
		421.245,469.205 419.357,469.393 417.518,469.629 415.772,469.912 414.073,470.242 412.422,470.619 410.818,471.045 
		409.262,471.516 407.799,471.988 406.384,472.508 404.968,473.074 403.647,473.688 402.326,474.301 401.1,474.961 399.92,475.621 
		398.74,476.328 397.655,477.037 396.57,477.744 395.532,478.498 394.542,479.254 393.599,480.055 392.654,480.857 391.806,481.66 
		390.956,482.414 390.107,483.264 389.353,484.066 388.55,484.867 387.843,485.67 387.135,486.473 386.475,487.227 385.813,488.029 
		385.2,488.783 384.587,489.586 383.974,490.293 383.408,491.049 382.889,491.756 382.37,492.416 381.851,493.076 382.087,489.396 
		382.322,485.764 382.653,482.227 382.983,478.828 383.408,475.527 383.832,472.318 384.257,469.205 384.776,466.186 
		385.342,463.26 385.908,460.43 386.521,457.693 387.229,455.098 387.937,452.551 388.691,450.145 389.494,447.785 390.343,445.568 
		391.192,443.398 392.136,441.369 393.127,439.389 394.164,437.549 395.249,435.756 396.335,434.104 397.514,432.547 
		398.74,431.037 400.015,429.67 401.336,428.348 402.704,427.168 404.119,426.037 405.581,424.998 407.091,424.055 408.695,423.254 
		410.3,422.498 411.998,421.838 413.743,421.225 415.536,420.752 417.376,420.375 419.263,420.045 421.245,419.855 423.227,419.715 
		425.302,419.668 426.198,419.668 427.095,419.715 427.991,419.762 428.935,419.855 429.831,419.951 430.774,420.092 
		431.718,420.234 432.709,420.469 433.652,420.658 434.596,420.941 435.54,421.225 436.483,421.508 437.474,421.885 
		438.418,422.262 439.313,422.688 440.258,423.111 441.154,423.631 442.05,424.15 442.946,424.715 443.796,425.328 444.646,425.99 
		445.447,426.697 446.249,427.451 447.004,428.207 447.759,429.057 448.467,429.953 449.174,430.85 449.787,431.84 450.4,432.877 
		451.014,433.916 451.533,435.047 452.052,436.227 452.477,437.453 452.901,438.775 453.231,440.096 453.562,441.512 
		453.845,442.973 454.033,444.482 454.223,446.041 454.316,447.691 	"/>
</g>
<g id="LWPOLYLINE_1_">
	
		<polygon fill="none" stroke="#000000" stroke-width="0.7087" stroke-linecap="round" stroke-linejoin="round" stroke-miterlimit="10" points="
		421.434,574.27 419.877,574.223 418.319,574.129 416.763,573.988 415.253,573.752 413.79,573.469 412.328,573.139 410.865,572.713 
		409.45,572.242 408.082,571.723 406.761,571.156 405.44,570.496 404.166,569.836 402.893,569.08 401.666,568.279 400.486,567.43 
		399.354,566.533 398.222,565.59 397.137,564.6 396.099,563.514 395.108,562.428 394.164,561.297 393.268,560.07 392.372,558.844 
		391.522,557.568 390.768,556.248 390.013,554.881 389.305,553.465 388.645,552.002 388.031,550.539 387.465,548.982 
		386.993,547.426 386.521,545.822 386.097,544.17 385.767,542.52 385.437,540.773 385.2,539.027 385.012,537.283 384.87,535.443 
		384.776,533.604 384.729,531.764 384.776,530.158 384.823,528.555 384.965,526.951 385.106,525.395 385.342,523.838 
		385.578,522.232 385.908,520.723 386.238,519.166 386.663,517.656 387.088,516.146 387.606,514.637 388.126,513.174 
		388.739,511.76 389.353,510.344 390.013,508.977 390.768,507.607 391.522,506.287 392.372,504.965 393.221,503.738 
		394.164,502.512 395.108,501.332 396.146,500.201 397.184,499.115 398.316,498.078 399.448,497.088 400.675,496.143 
		401.901,495.246 403.176,494.398 404.544,493.596 405.912,492.889 407.374,492.229 408.837,491.615 410.394,491.096 
		411.95,490.576 413.602,490.199 415.253,489.869 416.999,489.586 418.744,489.396 420.537,489.256 422.424,489.256 
		424.735,489.303 427,489.443 429.123,489.727 431.152,490.057 433.086,490.529 434.974,491.049 436.719,491.662 438.37,492.369 
		439.975,493.123 441.437,493.973 442.853,494.869 444.221,495.859 445.447,496.898 446.627,497.982 447.759,499.115 
		448.797,500.295 449.74,501.521 450.637,502.795 451.486,504.068 452.24,505.438 452.948,506.758 453.608,508.127 454.223,509.541 
		454.788,510.957 455.26,512.373 455.731,513.787 456.109,515.203 456.486,516.619 456.77,517.986 457.053,519.402 457.289,520.77 
		457.524,522.139 457.666,523.459 457.808,524.781 457.949,526.055 458.044,527.281 458.091,528.461 458.138,529.592 
		458.138,530.725 458.186,531.764 458.138,534.027 458.044,536.244 457.854,538.367 457.619,540.443 457.289,542.473 
		456.911,544.406 456.486,546.246 456.015,548.039 455.496,549.785 454.883,551.436 454.223,553.041 453.515,554.551 
		452.76,556.012 451.958,557.428 451.155,558.797 450.259,560.07 449.315,561.297 448.372,562.428 447.382,563.561 446.344,564.6 
		445.259,565.59 444.173,566.533 443.041,567.383 441.908,568.184 440.729,568.939 439.503,569.646 438.276,570.307 437.05,570.92 
		435.775,571.486 434.502,571.959 433.228,572.43 431.954,572.809 430.633,573.139 429.312,573.469 428.038,573.705 
		426.718,573.893 425.396,574.082 424.075,574.176 422.754,574.223 	"/>
</g>
<g id="LWPOLYLINE_2_">
	
		<path fill="none" stroke="#000000" stroke-width="0.7087" stroke-linecap="round" stroke-linejoin="round" stroke-miterlimit="10" d="
		M149.946,237.064c0.142-0.213,0.331-0.447,0.331-0.447l0.235-0.355l0.307-0.4l0.354-0.52l0.425-0.564l0.448-0.639l0.52-0.707
		l0.542-0.754l0.59-0.826l0.637-0.85l0.637-0.896l0.685-0.943l0.708-0.967l0.73-1.014l0.731-1.016l0.755-1.037l0.755-1.039
		l0.755-1.037l0.755-1.062l0.755-1.037l0.755-1.037l0.731-1.016l0.731-0.99l0.707-0.99l0.685-0.92l0.637-0.92l0.637-0.85l0.59-0.826
		l0.543-0.754l0.519-0.709l0.448-0.637l0.425-0.566l0.354-0.494l0.307-0.426l0.236-0.33l0.188-0.26c0.188-0.141,0.283,0,0.283,0
		l0.165,0.26l0.235,0.33l0.283,0.426l0.354,0.494l0.4,0.566l0.425,0.637l0.495,0.709l0.52,0.754l0.565,0.826l0.59,0.85l0.613,0.92
		l0.661,0.92l0.66,0.99l0.708,0.99l0.684,1.016l0.731,1.037l0.708,1.037l0.731,1.062l0.707,1.037l0.731,1.039l0.708,1.037
		l0.707,1.016l0.685,1.014l0.684,0.967l0.637,0.943l0.614,0.896l0.613,0.85l0.542,0.826l0.543,0.754l0.472,0.707l0.448,0.639
		l0.4,0.564l0.331,0.52l0.282,0.4l0.236,0.355l0.165,0.234c0.188,0.213,0.33,0.213,0.33,0.213c0.213,0,0.495,0,0.495,0h0.354h0.448
		h0.472h0.566h0.589h0.661h0.707h0.755h0.755h0.826h0.825h0.873h0.873h0.896h0.896h0.896h0.921h0.896h0.896h0.873h0.85h0.849h0.803
		h0.778h0.755h0.684h0.66h0.613h0.543h0.495h0.425h0.378h0.282c0.213,0,0.331,0,0.331,0c0-0.094-0.165-0.307-0.165-0.307
		l-0.26-0.377l-0.354-0.496l-0.448-0.613l-0.543-0.73l-0.613-0.85l-0.685-0.967l-0.755-1.039l-0.802-1.131l-0.873-1.203l-0.92-1.275
		l-0.967-1.344l-0.99-1.393l-1.038-1.438l-1.085-1.463l-1.086-1.51l-1.108-1.533l-1.108-1.557l-1.133-1.557l-1.108-1.557
		l-1.108-1.559l-1.109-1.533l-1.085-1.51l-1.085-1.461l-1.038-1.439l-0.99-1.416l-0.968-1.32l-0.92-1.273l-0.872-1.227l-0.826-1.109
		l-0.731-1.062l-0.684-0.943l-0.613-0.848l-0.543-0.732l-0.448-0.613l-0.354-0.494l-0.26-0.379
		c-0.165-0.211-0.212-0.307-0.212-0.307c-0.188,0-0.401,0-0.401,0h-0.307h-0.377h-0.448h-0.52h-0.565h-0.637h-0.685h-0.731h-0.778
		h-0.802h-0.85h-0.849h-0.896h-0.92h-0.92h-0.944H171.2h-0.943h-0.943h-0.92h-0.92h-0.873h-0.873h-0.849h-0.803h-0.778h-0.731
		h-0.684h-0.637h-0.566h-0.519h-0.448h-0.378h-0.283c-0.235,0-0.354,0-0.354,0c-0.118,0.096-0.283,0.307-0.283,0.307l-0.26,0.379
		l-0.377,0.494l-0.472,0.613l-0.543,0.732l-0.637,0.848l-0.708,0.943l-0.778,1.062l-0.825,1.109l-0.896,1.227l-0.967,1.273
		l-0.991,1.32l-1.038,1.416l-1.062,1.439l-1.108,1.461l-1.108,1.51l-1.156,1.533l-1.156,1.559l-1.155,1.557l-1.156,1.557
		l-1.155,1.557l-1.133,1.533l-1.132,1.51l-1.085,1.463l-1.086,1.438l-1.037,1.393l-0.991,1.344l-0.943,1.275l-0.896,1.203
		l-0.85,1.131l-0.778,1.039l-0.707,0.967l-0.638,0.85l-0.542,0.73l-0.448,0.613l-0.378,0.496l-0.282,0.377
		c-0.166,0.213-0.213,0.307-0.213,0.307H149.946z"/>
</g>
</svg>
