<?xml version="1.0" encoding="utf-8"?>
<!-- Generator: Adobe Illustrator 16.0.1, SVG Export Plug-In . SVG Version: 6.00 Build 0)  -->
<!DOCTYPE svg PUBLIC "-//W3C//DTD SVG 1.0//EN" "http://www.w3.org/TR/2001/REC-SVG-20010904/DTD/svg10.dtd">
<svg version="1.0" id="_x31_" xmlns="http://www.w3.org/2000/svg" xmlns:xlink="http://www.w3.org/1999/xlink" x="0px" y="0px"
	 width="612px" height="792px" viewBox="0 0 612 792" enable-background="new 0 0 612 792" xml:space="preserve">
<g id="LWPOLYLINE">
	
		<path fill="none" stroke="#000000" stroke-width="0.7087" stroke-linecap="round" stroke-linejoin="round" stroke-miterlimit="10" d="
		M418.355,595.5c0.189,0,0.426,0,0.426,0h0.283h0.379h0.473h0.567h0.567h0.662h0.71h0.757h0.804h0.852h0.851h0.946h0.898h0.946
		h0.993h0.945h0.993h0.993h0.993h0.946h0.945h0.946h0.898h0.851h0.852h0.804h0.757h0.71h0.662h0.614h0.521h0.473h0.379h0.331
		c0.236,0,0.378,0,0.378,0c0.047,0,0.047-0.33,0.047-0.33v-1.041v-1.656v-2.27v-2.838v-3.404v-3.879v-4.303v-4.777v-5.154v-5.533
		v-5.816v-6.102v-6.385v-6.572v-6.764v-6.904v-7v-7.094v-7.094v-7.094v-7.094v-7v-6.904v-6.764v-6.572v-6.385v-6.102v-5.816v-5.533
		v-5.154v-4.777v-4.303v-3.879v-3.381v-2.838v-2.27v-1.68v-1.016v-0.355c-0.188,0-0.425,0-0.425,0h-0.284h-0.331h-0.426h-0.52
		h-0.568h-0.567h-0.662h-0.709h-0.757h-0.757h-0.852h-0.804h-0.898h-0.852h-0.898H433.3h-0.898h-0.946h-0.898h-0.898h-0.851h-0.852
		h-0.852h-0.804h-0.804h-0.71h-0.709h-0.662h-0.615h-0.567h-0.473h-0.426h-0.378h-0.284c-0.236,0-0.331,0-0.331,0
		c-0.047,0-0.898,0.732-0.898,0.732l-0.804,0.734l-0.899,0.756l-0.898,0.732l-0.898,0.758l-0.945,0.756l-0.993,0.781l-0.993,0.756
		l-0.993,0.781l-1.041,0.756l-1.087,0.781l-1.041,0.779l-1.135,0.781l-1.088,0.803l-1.135,0.781l-1.183,0.779l-1.135,0.781
		l-1.183,0.779l-1.229,0.805l-1.183,0.756l-1.229,0.805l-1.229,0.758l-1.229,0.756l-1.277,0.805l-1.276,0.756l-1.277,0.756
		l-1.276,0.758l-1.277,0.756l-1.276,0.758l-1.324,0.756l-1.324,0.709l-1.277,0.758l-1.324,0.709l-1.324,0.709l-1.324,0.709
		l-1.276,0.711l-1.324,0.662l-1.324,0.709l-1.324,0.662l-1.277,0.662c0,0.189,0,0.426,0,0.426v0.33v0.426v0.473v0.521v0.662v0.662
		v0.756v0.756v0.852v0.852v0.945v0.898v0.994v0.992v0.994v0.992v1.041v0.994v1.039v0.994v0.992v0.947v0.945v0.898v0.898v0.805v0.803
		v0.709v0.711v0.613v0.568v0.473v0.379v0.33c0,0.236,0,0.379,0,0.379c0,0.047,0.993-0.379,0.993-0.379l1.041-0.473l1.088-0.473
		l1.04-0.52l1.088-0.521l1.135-0.566l1.088-0.568l1.135-0.566l1.135-0.568l1.136-0.615l1.182-0.615l1.136-0.662l1.182-0.662
		l1.183-0.66l1.135-0.662l1.183-0.711l1.183-0.662l1.182-0.709l1.183-0.709l1.183-0.758l1.182-0.709l1.183-0.756l1.183-0.709
		l1.182-0.758l1.136-0.756l1.182-0.758l1.136-0.756l1.135-0.756l1.135-0.758l1.088-0.756l1.135-0.805l1.088-0.756l1.088-0.758
		l1.04-0.756l1.041-0.758l1.04-0.756l1.041-0.709l0.993-0.758l0.993-0.756l0.945-0.709V595.5z"/>
</g>
<g id="LWPOLYLINE_1_">
	
		<path fill="none" stroke="#000000" stroke-width="0.7087" stroke-linecap="round" stroke-linejoin="round" stroke-miterlimit="10" d="
		M185.89,195.5c-0.143,0-0.308,0-0.308,0c-0.213,0-0.473,0-0.473,0h-0.331h-0.379h-0.426h-0.473h-0.497h-0.52h-0.567h-0.592h-0.614
		h-0.639h-0.662h-0.662h-0.686h-0.686h-0.687h-0.686h-0.686h-0.686h-0.662h-0.662h-0.639h-0.614h-0.592h-0.567h-0.544h-0.496h-0.449
		h-0.426h-0.379h-0.331h-0.283c-0.213,0-0.379,0-0.379,0c-0.118,0.166-0.095,0.662-0.095,0.662l0.024,0.805l0.047,1.088l0.071,1.348
		l0.07,1.631l0.071,1.844l0.095,2.082l0.095,2.293l0.095,2.459l0.118,2.648l0.118,2.791l0.118,2.932l0.142,3.074l0.142,3.145
		l0.118,3.24l0.143,3.311l0.142,3.357l0.142,3.404l0.166,3.406l0.142,3.404l0.142,3.406l0.143,3.357l0.142,3.311l0.142,3.238
		l0.118,3.146l0.143,3.049l0.118,2.934l0.118,2.812l0.118,2.625l0.095,2.482l0.118,2.295l0.07,2.08l0.095,1.844l0.071,1.633
		l0.047,1.348l0.048,1.088l0.023,0.805l0.023,0.496c0.189,0.166,0.331,0.166,0.331,0.166c0.189,0,0.379,0,0.379,0
		c0.236,0,0.52,0,0.52,0h0.284h0.308h0.354h0.354h0.378h0.379h0.401h0.426h0.402h0.449h0.426h0.426h0.449h0.426h0.425h0.426h0.426
		h0.402h0.378h0.379h0.354h0.331h0.331h0.283h0.261c0.236,0,0.449,0,0.449,0c0.165,0,0.308,0,0.308,0
		C182.98,286.539,185.89,195.5,185.89,195.5z"/>
</g>
<g id="LWPOLYLINE_2_">
	
		<path fill="none" stroke="#000000" stroke-width="0.7087" stroke-linecap="round" stroke-linejoin="round" stroke-miterlimit="10" d="
		M167.492,314.629c0.118,0,0.284,0,0.284,0c0.189,0,0.449,0,0.449,0h0.331h0.354h0.378h0.45h0.473h0.496h0.544h0.567h0.568h0.614
		h0.615h0.638h0.639h0.662h0.639h0.662h0.639h0.662h0.614h0.639h0.591h0.592h0.567h0.521h0.52h0.473h0.426h0.402h0.354h0.308h0.26
		c0.213,0,0.379,0,0.379,0c0.118-0.117,0.118-0.26,0.118-0.26c0-0.213,0-0.449,0-0.449v-0.283v-0.355v-0.377v-0.402v-0.449v-0.473
		v-0.521v-0.52v-0.543v-0.568v-0.592v-0.613v-0.592v-0.615V306.4v-0.613v-0.615v-0.615v-0.592v-0.59v-0.568v-0.568v-0.52v-0.496
		v-0.496v-0.449v-0.402v-0.379v-0.33v-0.309v-0.236c0-0.189,0-0.33,0-0.33c-0.118-0.119-0.284-0.119-0.284-0.119
		c-0.213,0-0.473,0-0.473,0h-0.308h-0.354h-0.402h-0.426H182.2h-0.52h-0.521h-0.567h-0.592h-0.591h-0.639h-0.614h-0.662h-0.639
		h-0.662h-0.639h-0.662h-0.639h-0.638h-0.615h-0.614h-0.568h-0.567h-0.544h-0.496h-0.473h-0.45h-0.378h-0.354h-0.331h-0.26
		c-0.189,0-0.355,0-0.355,0C167.492,298.172,167.492,314.629,167.492,314.629z"/>
</g>
</svg>
