<?xml version="1.0" encoding="utf-8"?>
<!-- Generator: Adobe Illustrator 16.0.1, SVG Export Plug-In . SVG Version: 6.00 Build 0)  -->
<!DOCTYPE svg PUBLIC "-//W3C//DTD SVG 1.0//EN" "http://www.w3.org/TR/2001/REC-SVG-20010904/DTD/svg10.dtd">
<svg version="1.0" id="_x31_" xmlns="http://www.w3.org/2000/svg" xmlns:xlink="http://www.w3.org/1999/xlink" x="0px" y="0px"
	 width="612px" height="792px" viewBox="0 0 612 792" enable-background="new 0 0 612 792" xml:space="preserve">
<g id="LWPOLYLINE">
	
		<path fill="none" stroke="#000000" stroke-width="0.7087" stroke-linecap="round" stroke-linejoin="round" stroke-miterlimit="10" d="
		M366.563,595.5c0.234,0,0.892,0,0.892,0h1.033h1.455h1.784h2.16h2.441h2.723h3.052h3.239h3.521h3.662h3.896h4.037h4.132h4.272
		h4.366h4.46h4.46h4.507h4.507h4.508h4.413h4.366h4.271h4.179h4.038h3.85h3.709h3.474h3.287h3.004h2.724h2.488h2.112h1.831h1.408
		h1.08h0.657c0.188-0.188,0.188-0.375,0.188-0.375v-0.234v-0.328v-0.424v-0.422v-0.518v-0.562v-0.609v-0.611v-0.705v-0.703v-0.752
		v-0.75v-0.799v-0.799v-0.797v-0.846v-0.846v-0.797v-0.846v-0.799v-0.797v-0.799v-0.75v-0.752v-0.705v-0.703v-0.658v-0.562v-0.564
		v-0.516v-0.469v-0.377v-0.328v-0.281c0-0.188,0-0.281,0-0.281c-0.141-0.047-0.657-0.047-0.657-0.047h-0.751h-1.08h-1.361h-1.549
		h-1.831h-2.066h-2.253h-2.395h-2.629h-2.724h-2.91h-2.958h-3.099h-3.192h-3.239h-3.334h-3.333h-3.333h-3.334h-3.333h-3.333h-3.239
		h-3.193h-3.098h-3.005h-2.864h-2.77h-2.582h-2.441h-2.207h-2.065h-1.831h-1.597h-1.314h-1.079h-0.799h-0.469
		c0.094-0.236,0.375-0.518,0.375-0.518l0.376-0.375l0.517-0.422l0.562-0.564l0.657-0.609l0.752-0.705l0.845-0.799l0.845-0.844
		l0.986-0.893l0.986-0.939l1.032-0.986l1.127-1.031l1.127-1.08l1.174-1.08l1.174-1.127l1.221-1.127l1.22-1.127l1.221-1.174
		l1.221-1.127l1.221-1.174l1.221-1.125l1.174-1.127l1.174-1.08l1.127-1.08l1.08-1.033l1.079-0.986l0.986-0.938l0.938-0.893
		l0.893-0.846l0.845-0.75l0.704-0.705l0.704-0.658l0.563-0.516l0.47-0.469l0.423-0.377l0.281-0.281
		c0.235-0.234,1.831-1.736,1.831-1.736l1.69-1.598l1.69-1.596l1.736-1.689l1.784-1.689l1.831-1.738l1.831-1.783l1.878-1.785
		l1.878-1.877l1.878-1.879l1.878-1.877l1.925-1.973l1.878-1.971l1.878-2.02l1.878-2.02l1.878-2.064l1.831-2.113l1.831-2.113
		l1.784-2.158l1.737-2.16l1.689-2.207l1.69-2.207l1.597-2.205l1.596-2.254l1.503-2.301l1.408-2.301l1.408-2.301l1.268-2.348
		l1.221-2.346l1.174-2.348l1.033-2.348l0.985-2.395l0.845-2.395l0.799-2.441l0.657-2.395l0.563-2.441l0.422-2.441l0.329-2.441
		l0.188-2.441l0.047-2.441l-0.047-2.957l-0.141-2.91l-0.281-2.771l-0.376-2.676l-0.47-2.629l-0.563-2.488l-0.704-2.441l-0.751-2.301
		l-0.845-2.252l-0.939-2.16l-0.985-2.066l-1.08-1.971l-1.174-1.926l-1.268-1.783l-1.314-1.738l-1.408-1.643l-1.409-1.596
		l-1.549-1.48l-1.55-1.408l-1.643-1.338l-1.69-1.268l-1.737-1.174l-1.784-1.127l-1.831-1.031l-1.878-0.963l-1.878-0.893
		l-1.972-0.846l-1.972-0.75l-2.019-0.705l-2.065-0.609l-2.066-0.564l-2.065-0.516l-2.112-0.422l-2.113-0.377l-2.159-0.328
		l-2.16-0.234l-2.159-0.211l-2.16-0.141l-2.159-0.072l-2.16-0.023h-0.938l-0.939,0.023l-0.985,0.023l-0.986,0.049l-0.985,0.047
		l-0.986,0.07l-0.985,0.07l-0.986,0.094l-1.033,0.117l-1.032,0.117l-0.986,0.141l-1.033,0.141l-1.079,0.188l-1.033,0.188
		l-1.033,0.189l-1.032,0.234l-1.08,0.234l-1.033,0.258l-1.079,0.281l-1.08,0.283l-1.033,0.328l-1.079,0.328l-1.08,0.352l-1.033,0.4
		l-1.08,0.398l-1.079,0.422l-1.08,0.447l-1.033,0.469l-1.079,0.494l-1.08,0.492l-1.033,0.539l-1.079,0.564l-1.033,0.609
		l-1.033,0.611l-1.032,0.633l-1.08,0.682l-1.033,0.68l-0.985,0.729l-1.033,0.752l-1.033,0.773l-1.174,1.104l-1.173,1.08l-1.08,1.127
		l-1.033,1.127l-0.938,1.127l-0.939,1.127l-0.892,1.174l-0.846,1.125l-0.751,1.174l-0.751,1.174l-0.704,1.174l-0.657,1.127
		l-0.61,1.174l-0.563,1.174l-0.517,1.174l-0.517,1.127l-0.469,1.174l-0.423,1.127l-0.376,1.127l-0.375,1.125l-0.329,1.127
		l-0.281,1.08l-0.282,1.08l-0.234,1.08l-0.188,1.08l-0.235,1.033l-0.141,0.984l-0.141,1.033l-0.142,0.986l-0.141,0.939l-0.094,0.939
		l-0.047,0.891l-0.094,0.893l-0.047,0.846l-0.047,0.844v0.799l-0.047,0.752v0.75v0.705v0.656c0.188,0,0.469,0,0.469,0h0.329h0.423
		h0.516h0.61h0.657h0.705h0.798h0.845h0.846h0.938h0.986h0.985h1.033h1.033h1.079h1.08h1.08h1.079h1.08h1.033h1.08h1.032h0.986
		h0.985h0.893h0.892h0.846h0.798h0.704h0.657h0.61h0.517h0.423h0.328h0.281c0.188,0,0.188-0.516,0.188-0.516v-0.611v-0.703
		l0.047-0.705v-0.797l0.047-0.846l0.094-0.893l0.047-0.891l0.141-0.986l0.095-0.986l0.188-1.033l0.188-1.033l0.235-1.08l0.234-1.125
		l0.328-1.08l0.329-1.127l0.376-1.127l0.469-1.08l0.47-1.127l0.563-1.127l0.61-1.08l0.657-1.08l0.751-1.031l0.798-1.033l0.846-1.033
		l0.938-0.939l1.033-0.939l1.08-0.891l1.174-0.846l1.268-0.752l1.314-0.75l1.455-0.658l1.502-0.609l1.644-0.564l1.69-0.469
		l1.831-0.422l1.925-0.283l2.019-0.234l2.159-0.141l2.207-0.047l2.019,0.047l1.878,0.094l1.784,0.188l1.737,0.283l1.596,0.328
		l1.55,0.375l1.502,0.471l1.409,0.469l1.314,0.562l1.268,0.611l1.174,0.703l1.079,0.705l1.08,0.752l0.986,0.797l0.892,0.799
		l0.892,0.893l0.799,0.891l0.751,0.893l0.657,0.939l0.657,0.986l0.563,0.984l0.563,0.986l0.47,0.986l0.469,1.033l0.423,1.033
		l0.329,1.031l0.328,1.033l0.329,0.986l0.234,1.033l0.234,0.986l0.188,1.031l0.141,0.939l0.141,0.986l0.141,0.939l0.094,0.891
		l0.048,0.893l0.047,0.846l0.047,0.846v0.75v0.752l-0.047,1.83l-0.142,1.785l-0.234,1.83l-0.329,1.832l-0.422,1.83l-0.517,1.879
		l-0.563,1.83l-0.657,1.83l-0.704,1.832l-0.798,1.877l-0.893,1.832l-0.892,1.83l-0.986,1.832l-1.032,1.783l-1.08,1.832l-1.127,1.783
		l-1.221,1.785l-1.174,1.783l-1.268,1.736l-1.268,1.738l-1.314,1.736l-1.361,1.691l-1.361,1.689l-1.362,1.643l-1.408,1.645
		l-1.408,1.643l-1.408,1.549l-1.409,1.549l-1.408,1.551l-1.408,1.502l-1.408,1.455l-1.361,1.408l-1.409,1.408l-1.361,1.361
		l-1.314,1.314l-1.314,1.268l-1.268,1.221l-1.268,1.221l-1.221,1.127l-1.174,1.127c-0.094,0.094-0.376,0.328-0.376,0.328
		l-0.422,0.471l-0.61,0.562l-0.751,0.752l-0.893,0.844l-0.985,1.033l-1.174,1.127l-1.221,1.221l-1.361,1.314l-1.456,1.408
		l-1.549,1.504l-1.597,1.596l-1.69,1.643l-1.736,1.689l-1.784,1.785l-1.784,1.736l-1.878,1.832l-1.831,1.83l-1.878,1.832
		l-1.878,1.83l-1.878,1.832l-1.831,1.83l-1.831,1.785l-1.784,1.736l-1.736,1.689l-1.644,1.645l-1.644,1.596l-1.502,1.502
		l-1.455,1.408l-1.362,1.361l-1.268,1.221l-1.126,1.127l-1.033,0.986l-0.893,0.846l-0.751,0.75l-0.61,0.611l-0.422,0.422
		l-0.282,0.234C366.563,570.477,366.563,595.5,366.563,595.5z"/>
</g>
<g id="LWPOLYLINE_1_">
	
		<path fill="none" stroke="#000000" stroke-width="0.7087" stroke-linecap="round" stroke-linejoin="round" stroke-miterlimit="10" d="
		M208.888,227.238c-0.047,0.164-0.07,0.305-0.07,0.305c-0.047,0.141-0.095,0.328-0.095,0.328c-0.07,0.234-0.141,0.471-0.141,0.471
		l-0.07,0.258l-0.07,0.281l-0.094,0.328l-0.094,0.307l-0.07,0.352l-0.118,0.352l-0.094,0.375l-0.094,0.377l-0.117,0.375
		l-0.094,0.398l-0.117,0.377l-0.095,0.398l-0.117,0.398l-0.117,0.4l-0.094,0.398l-0.117,0.375l-0.094,0.375l-0.095,0.377
		l-0.094,0.352l-0.094,0.328l-0.094,0.33l-0.094,0.305l-0.07,0.281l-0.07,0.281l-0.071,0.234c-0.047,0.213-0.117,0.4-0.117,0.4
		c-0.023,0.164-0.07,0.281-0.07,0.281C206,237.59,206,237.379,206,237.379c-0.023-0.211-0.023-0.424-0.023-0.424
		c-0.023-0.211-0.047-0.445-0.047-0.445c-0.023-0.211-0.047-0.422-0.047-0.422c-0.047-0.211-0.07-0.424-0.07-0.424
		c-0.047-0.211-0.094-0.422-0.094-0.422c-0.047-0.211-0.118-0.422-0.118-0.422c-0.047-0.211-0.117-0.4-0.117-0.4
		c-0.07-0.211-0.141-0.422-0.141-0.422c-0.094-0.188-0.188-0.398-0.188-0.398c-0.094-0.188-0.188-0.377-0.188-0.377
		c-0.094-0.211-0.211-0.398-0.211-0.398c-0.117-0.188-0.234-0.375-0.234-0.375c-0.117-0.188-0.259-0.352-0.259-0.352
		c-0.141-0.189-0.281-0.377-0.281-0.377c-0.164-0.164-0.306-0.328-0.306-0.328c-0.164-0.188-0.352-0.352-0.352-0.352
		c-0.164-0.164-0.353-0.307-0.353-0.307c-0.188-0.164-0.398-0.305-0.398-0.305c-0.212-0.164-0.423-0.305-0.423-0.305l-0.282-0.352
		l-0.305-0.354l-0.305-0.305l-0.306-0.328l-0.329-0.281l-0.328-0.307l-0.329-0.258l-0.328-0.258l-0.353-0.258l-0.352-0.234
		l-0.353-0.236l-0.352-0.188l-0.376-0.211l-0.353-0.188l-0.375-0.188l-0.376-0.164l-0.398-0.164l-0.376-0.143l-0.399-0.141
		l-0.398-0.141l-0.399-0.117l-0.399-0.117l-0.398-0.094l-0.399-0.094l-0.422-0.094l-0.399-0.094l-0.423-0.07l-0.422-0.047
		l-0.423-0.07l-0.423-0.047l-0.422-0.047l-0.423-0.049l-0.423-0.023l-0.446-0.047l-0.422-0.023l-0.423-0.023h-0.446l-0.422-0.023
		h-0.446h-0.423l-1.432,0.047l-1.408,0.119l-1.361,0.188l-1.362,0.258l-1.314,0.328l-1.314,0.398l-1.244,0.471l-1.244,0.539
		l-1.221,0.588l-1.174,0.633l-1.149,0.705l-1.104,0.773l-1.08,0.799l-1.057,0.869l-1.032,0.891l-0.986,0.963l-0.938,0.986
		l-0.916,1.033l-0.892,1.057l-0.846,1.104l-0.821,1.125l-0.774,1.174l-0.728,1.174l-0.704,1.221l-0.657,1.244l-0.635,1.268
		l-0.562,1.268l-0.563,1.291l-0.493,1.314l-0.47,1.314l-0.423,1.34l-0.375,1.338l-0.329,1.338l-0.305,1.338l-0.235,1.338
		l-0.211,1.338l-0.164,1.338l-0.117,1.338l-0.07,1.314l-0.023,1.314l0.023,1.127l0.047,1.127l0.07,1.104l0.117,1.08l0.141,1.033
		l0.164,1.031l0.212,1.01l0.234,0.986l0.259,0.963l0.281,0.914l0.329,0.916l0.328,0.893l0.376,0.846l0.398,0.82l0.423,0.799
		l0.446,0.799l0.469,0.727l0.517,0.729l0.517,0.703l0.54,0.658l0.563,0.633l0.61,0.611l0.61,0.562l0.634,0.541l0.657,0.516
		l0.681,0.492l0.704,0.447l0.728,0.422l0.751,0.398l0.752,0.354l0.774,0.328l0.798,0.305l0.822,0.258l0.845,0.213l0.845,0.211
		l0.869,0.141l0.868,0.141l0.915,0.07l0.916,0.07h0.915h1.15l1.104-0.07l1.057-0.117l1.032-0.141l0.986-0.164l0.962-0.211
		l0.939-0.236l0.892-0.281l0.869-0.305l0.845-0.352l0.798-0.354l0.775-0.375l0.751-0.422l0.728-0.424l0.681-0.445l0.657-0.469
		l0.634-0.471l0.61-0.492l0.563-0.518l0.563-0.516l0.517-0.516l0.517-0.541l0.469-0.539l0.47-0.541l0.423-0.562l0.422-0.541
		l0.376-0.539l0.376-0.539l0.352-0.541l0.306-0.539l0.305-0.518l0.306-0.516l0.258-0.492l0.259-0.494l0.234-0.469l0.211-0.471
		l0.188-0.422l0.188-0.422l0.164-0.4l0.141-0.375c0,0.141,0,0.281,0,0.281c0,0.141,0,0.283,0,0.283c0,0.117,0,0.234,0,0.234
		c0,0.141,0,0.258,0,0.258c0,0.234,0,0.352,0,0.352c0,0.234,0,0.352,0,0.352c0,0.213,0,0.33,0,0.33c0,0.211,0,0.328,0,0.328
		c0,0.211,0,0.305,0,0.305c0,0.234,0,0.33,0,0.33c0,0.234,0,0.352,0,0.352c0,0.234,0,0.352,0,0.352c0,0.117,0,0.258,0,0.258
		c0,0.117,0,0.258,0,0.258c0,0.119,0,0.26,0,0.26c0,0.141,0,0.281,0,0.281l0.023,0.562l0.023,0.564l0.07,0.539l0.071,0.518
		l0.094,0.516l0.094,0.492l0.141,0.494l0.141,0.469l0.165,0.447l0.188,0.445l0.211,0.422l0.212,0.424l0.234,0.375l0.258,0.398
		l0.259,0.354l0.281,0.375l0.306,0.328l0.305,0.328l0.329,0.307l0.328,0.305l0.353,0.281l0.352,0.258l0.376,0.258l0.399,0.236
		l0.375,0.211l0.423,0.211l0.399,0.211l0.422,0.164l0.446,0.164l0.446,0.166l0.445,0.141l0.446,0.117l0.47,0.094l0.47,0.094
		l0.492,0.094l0.47,0.07l0.493,0.047l0.493,0.023l0.493,0.023h0.516l1.221-0.023l1.244-0.094l1.221-0.141l1.221-0.211l1.221-0.281
		l1.221-0.33l1.221-0.375l1.197-0.445l1.197-0.494l1.197-0.562l1.174-0.611l1.15-0.656l1.126-0.705l1.127-0.773l1.104-0.822
		l1.057-0.869l1.056-0.939l1.033-0.961l0.985-1.033l0.986-1.08l0.939-1.127l0.915-1.174l0.868-1.221l0.822-1.268l0.821-1.314
		l0.751-1.338l0.728-1.408l0.657-1.455l0.634-1.479l0.587-1.551l0.54-1.572l0.493-1.619l0.446-1.645l0.375-1.713l0.329-1.736
		l0.281-1.785l0.212-1.807l0.164-1.855l0.094-1.9l0.047-1.926l-0.07-2.488l-0.141-2.418l-0.235-2.371l-0.352-2.299l-0.423-2.23
		l-0.517-2.16l-0.61-2.113l-0.681-2.041l-0.774-1.973l-0.845-1.9l-0.939-1.855l-0.985-1.783l-1.08-1.715l-1.15-1.666l-1.197-1.596
		l-1.268-1.525l-1.338-1.457l-1.385-1.408l-1.456-1.338l-1.502-1.268l-1.572-1.221l-1.597-1.15l-1.667-1.08l-1.689-1.031
		l-1.737-0.963l-1.784-0.893l-1.831-0.846l-1.854-0.773l-1.901-0.705l-1.901-0.633l-1.948-0.588l-1.972-0.539l-1.995-0.471
		l-2.02-0.398l-2.042-0.328l-2.042-0.281l-2.066-0.211l-2.089-0.143l-2.065-0.094l-2.09-0.047l-2.464,0.047l-2.441,0.117
		l-2.441,0.213l-2.441,0.281l-2.418,0.375l-2.395,0.469l-2.395,0.518l-2.37,0.609l-2.324,0.705l-2.324,0.775l-2.277,0.867
		l-2.253,0.916l-2.207,1.033l-2.183,1.08l-2.113,1.174l-2.089,1.268l-2.042,1.314l-1.972,1.408l-1.925,1.502l-1.878,1.572
		l-1.808,1.645l-1.737,1.713l-1.69,1.783l-1.596,1.879l-1.526,1.947l-1.455,2.043l-1.385,2.09l-1.291,2.184l-1.221,2.252
		l-1.104,2.324l-1.033,2.418l-0.915,2.465l-0.846,2.559l-0.728,2.629l-0.634,2.699l-0.517,2.771l-0.422,2.84l-0.282,2.934
		l-0.188,2.982l-0.047,3.074l0.047,2.629l0.141,2.605l0.235,2.559l0.328,2.512l0.423,2.465l0.517,2.418l0.61,2.348l0.681,2.324
		l0.774,2.254l0.868,2.207l0.939,2.135l1.009,2.113l1.104,2.02l1.197,1.994l1.268,1.902l1.314,1.854l1.408,1.809l1.503,1.713
		l1.549,1.689l1.62,1.598l1.69,1.525l1.76,1.479l1.831,1.385l1.878,1.338l1.973,1.244l1.995,1.197l2.089,1.104l2.112,1.033
		l2.207,0.963l2.23,0.891l2.3,0.799l2.348,0.729l2.418,0.633l2.441,0.564l2.512,0.469l2.535,0.398l2.605,0.305l2.629,0.236
		l2.677,0.117l2.723,0.047h1.572l1.55-0.047l1.525-0.07l1.503-0.07l1.479-0.117l1.455-0.143l1.433-0.141l1.408-0.188l1.408-0.211
		l1.361-0.234l1.362-0.234l1.338-0.283l1.338-0.281l1.291-0.328l1.291-0.328l1.268-0.377l1.268-0.375l1.221-0.398l1.244-0.424
		l1.197-0.422l1.221-0.469l1.174-0.494l1.174-0.492l1.173-0.518l1.174-0.539l1.127-0.539l1.15-0.588l1.127-0.586l1.127-0.611
		l1.126-0.633l1.104-0.635l1.104-0.656l1.104-0.682l1.079-0.703l1.104-0.705l1.08-0.729l1.104-0.75l1.079-0.752l1.08-0.773
		l1.08-0.775c-0.164-0.211-0.235-0.305-0.235-0.305c-0.164-0.188-0.258-0.307-0.258-0.307c-0.117-0.141-0.211-0.281-0.211-0.281
		c-0.141-0.141-0.259-0.305-0.259-0.305c-0.117-0.164-0.258-0.328-0.258-0.328c-0.141-0.164-0.282-0.354-0.282-0.354
		c-0.141-0.164-0.281-0.352-0.281-0.352c-0.141-0.164-0.281-0.352-0.281-0.352c-0.142-0.188-0.282-0.352-0.282-0.352
		c-0.141-0.189-0.281-0.354-0.281-0.354c-0.142-0.164-0.259-0.328-0.259-0.328c-0.141-0.164-0.258-0.305-0.258-0.305
		c-0.094-0.141-0.212-0.258-0.212-0.258c-0.188-0.236-0.258-0.33-0.258-0.33c-0.164-0.234-0.211-0.258-0.211-0.258
		c-0.023-0.047-0.963,0.611-0.963,0.611l-0.938,0.633l-0.963,0.635l-0.938,0.609l-0.963,0.611l-0.962,0.609l-0.963,0.588
		l-0.986,0.586l-0.985,0.562l-0.986,0.564l-1.009,0.539l-1.01,0.541l-1.01,0.539l-1.032,0.494l-1.033,0.492l-1.057,0.492
		l-1.056,0.471L216,306.533l-1.08,0.445l-1.103,0.424l-1.104,0.398l-1.127,0.398l-1.127,0.377l-1.15,0.352l-1.149,0.328l-1.174,0.33
		l-1.197,0.305l-1.221,0.281l-1.221,0.258l-1.244,0.234l-1.244,0.213l-1.268,0.211l-1.291,0.164l-1.314,0.164l-1.338,0.117
		l-1.339,0.117l-1.385,0.094l-1.385,0.047l-1.408,0.047h-1.433l-2.44-0.023l-2.395-0.117l-2.371-0.188l-2.324-0.258l-2.301-0.328
		l-2.253-0.4l-2.207-0.492l-2.159-0.541l-2.137-0.609l-2.065-0.682l-2.042-0.75l-1.972-0.822l-1.948-0.867l-1.878-0.963l-1.831-1.01
		l-1.761-1.08l-1.737-1.127l-1.667-1.197l-1.596-1.268l-1.55-1.338l-1.479-1.361l-1.408-1.455l-1.361-1.502l-1.291-1.551
		l-1.221-1.619l-1.174-1.666l-1.08-1.715l-1.01-1.783l-0.938-1.807l-0.869-1.902l-0.798-1.926l-0.704-1.971l-0.634-2.043
		l-0.563-2.088l-0.47-2.113l-0.398-2.184l-0.306-2.23l-0.211-2.252l-0.141-2.324l-0.047-2.348l0.047-2.723l0.164-2.652l0.258-2.584
		l0.353-2.512l0.446-2.463l0.54-2.395l0.634-2.348l0.704-2.254l0.798-2.207l0.892-2.16l0.986-2.064l1.033-2.02l1.126-1.947
		l1.197-1.879l1.268-1.807l1.338-1.738l1.409-1.689l1.479-1.619l1.526-1.527l1.596-1.479l1.644-1.408l1.713-1.338l1.761-1.268
		l1.808-1.221l1.854-1.127l1.901-1.057l1.948-0.986l1.995-0.914l2.043-0.846l2.042-0.775l2.112-0.703l2.137-0.635l2.159-0.562
		l2.184-0.469l2.206-0.424l2.23-0.328l2.253-0.281l2.277-0.188l2.301-0.096l2.3-0.047l1.854,0.023l1.878,0.072l1.831,0.141
		l1.831,0.164l1.808,0.234l1.784,0.281l1.761,0.328l1.737,0.377l1.736,0.445l1.69,0.469l1.644,0.541l1.643,0.586l1.597,0.635
		l1.572,0.68l1.526,0.752l1.479,0.799l1.456,0.844l1.408,0.893l1.361,0.963l1.338,0.986l1.268,1.055l1.221,1.104l1.174,1.174
		l1.127,1.197l1.08,1.268l1.009,1.314l0.939,1.361l0.915,1.434l0.821,1.479l0.775,1.525l0.704,1.572l0.634,1.645l0.587,1.689
		l0.493,1.736l0.422,1.809l0.353,1.83l0.281,1.902l0.212,1.971l0.117,1.996l0.047,2.066l-0.023,1.502l-0.07,1.502l-0.117,1.455
		l-0.165,1.455l-0.188,1.408l-0.234,1.41l-0.282,1.385l-0.305,1.338L236,257.332l-0.376,1.291l-0.422,1.268l-0.446,1.244
		l-0.493,1.221l-0.517,1.174l-0.516,1.15l-0.563,1.104l-0.61,1.078l-0.61,1.057l-0.634,1.01l-0.657,0.986l-0.681,0.939l-0.681,0.891
		l-0.729,0.846l-0.704,0.822l-0.751,0.773l-0.751,0.729l-0.774,0.703l-0.775,0.635l-0.798,0.609l-0.798,0.541l-0.798,0.492
		l-0.799,0.471l-0.798,0.398l-0.821,0.352l-0.822,0.305l-0.798,0.26l-0.821,0.188l-0.798,0.141l-0.799,0.094l-0.798,0.023
		c-0.164,0-0.306-0.023-0.306-0.023c-0.188,0-0.352-0.023-0.352-0.023c-0.188,0-0.376-0.023-0.376-0.023
		c-0.211-0.047-0.398-0.07-0.398-0.07c-0.212-0.047-0.446-0.094-0.446-0.094c-0.211-0.07-0.423-0.141-0.423-0.141
		c-0.234-0.07-0.445-0.141-0.445-0.141c-0.235-0.094-0.47-0.189-0.47-0.189c-0.212-0.117-0.446-0.234-0.446-0.234
		c-0.211-0.117-0.423-0.258-0.423-0.258c-0.211-0.164-0.422-0.328-0.422-0.328c-0.212-0.164-0.423-0.354-0.423-0.354
		c-0.188-0.188-0.376-0.398-0.376-0.398c-0.164-0.234-0.352-0.469-0.352-0.469l-0.141-0.234l-0.165-0.26l-0.141-0.281l-0.117-0.305
		l-0.117-0.305l-0.094-0.33l-0.094-0.328l-0.071-0.352l-0.07-0.375l-0.023-0.4l-0.047-0.398v-0.422v-0.283l0.023-0.305v-0.281
		l0.023-0.305l0.047-0.307l0.023-0.305l0.047-0.305l0.048-0.305l0.047-0.33l0.07-0.305l0.047-0.328l0.07-0.305l0.07-0.33l0.07-0.328
		l0.07-0.305l0.094-0.328l0.07-0.33l0.095-0.328l0.07-0.305l0.094-0.328l0.094-0.33l0.094-0.328l0.094-0.328l0.094-0.305l0.095-0.33
		l0.094-0.328l0.094-0.305l0.094-0.328l0.094-0.33l0.094-0.305l0.095-0.305l0.094-0.328l0.094-0.307l0.094-0.305l0.094-0.305
		l0.094-0.305l0.07-0.307l0.071-0.305l0.094-0.281l0.07-0.281c0.023-0.07,0.07-0.26,0.07-0.26l0.094-0.281l0.094-0.422l0.164-0.494
		l0.165-0.609l0.188-0.682l0.234-0.773l0.235-0.846l0.258-0.893l0.282-0.984l0.281-1.033l0.329-1.08l0.305-1.127l0.353-1.174
		l0.328-1.197l0.353-1.221l0.352-1.244l0.353-1.268l0.375-1.244l0.353-1.268l0.353-1.244l0.375-1.244l0.329-1.221l0.352-1.197
		l0.329-1.174l0.328-1.127l0.306-1.078l0.305-1.033l0.282-0.986l0.258-0.916l0.235-0.846l0.211-0.773l0.211-0.682l0.165-0.586
		l0.141-0.518l0.117-0.398l0.094-0.305c0.047-0.164,0.07-0.234,0.07-0.234H208.888z"/>
</g>
<g id="LWPOLYLINE_2_">
	
		<polygon fill="none" stroke="#000000" stroke-width="0.7087" stroke-linecap="round" stroke-linejoin="round" stroke-miterlimit="10" points="
		201.188,245.5 201.188,246.041 201.164,246.674 201.094,247.355 201.023,248.105 200.93,248.928 200.789,249.797 200.648,250.711 
		200.483,251.697 200.272,252.707 200.062,253.764 199.803,254.844 199.545,255.947 199.239,257.098 198.911,258.246 
		198.559,259.42 198.184,260.594 197.784,261.791 197.338,262.965 196.868,264.162 196.399,265.336 195.859,266.51 195.319,267.66 
		194.732,268.787 194.146,269.867 193.488,270.947 192.831,271.979 192.127,272.965 191.399,273.904 190.624,274.82 189.85,275.664 
		189.005,276.439 188.16,277.168 187.268,277.824 186.329,278.412 185.366,278.904 184.38,279.326 183.348,279.68 182.291,279.914 
		181.188,280.078 180.038,280.125 179.404,280.102 178.771,280.055 178.184,279.984 177.597,279.891 177.033,279.773 
		176.47,279.633 175.93,279.443 175.413,279.256 174.92,279.021 174.451,278.787 173.981,278.506 173.535,278.223 173.089,277.918 
		172.69,277.59 172.291,277.238 171.916,276.861 171.54,276.463 171.188,276.064 170.859,275.641 170.554,275.195 170.249,274.727 
		169.967,274.256 169.709,273.764 169.451,273.271 169.216,272.754 169.005,272.215 168.794,271.674 168.605,271.111 
		168.441,270.547 168.277,269.984 168.137,269.396 168.019,268.787 167.901,268.199 167.808,267.59 167.737,266.955 
		167.667,266.346 167.62,265.711 167.573,265.055 167.55,264.42 167.55,263.764 167.55,262.824 167.597,261.861 167.69,260.854 
		167.808,259.844 167.948,258.834 168.112,257.777 168.324,256.721 168.559,255.664 168.817,254.609 169.099,253.553 
		169.428,252.473 169.779,251.416 170.155,250.336 170.554,249.279 171,248.246 171.446,247.215 171.939,246.182 172.455,245.172 
		172.995,244.186 173.559,243.223 174.146,242.285 174.756,241.369 175.39,240.477 176.047,239.609 176.751,238.787 
		177.455,237.988 178.184,237.238 178.935,236.533 179.732,235.877 180.53,235.242 181.353,234.68 182.197,234.139 183.042,233.67 
		183.935,233.246 184.85,232.895 185.766,232.59 186.704,232.355 187.667,232.191 188.652,232.074 189.662,232.051 190.015,232.051 
		190.39,232.074 190.766,232.098 191.141,232.145 191.54,232.191 191.916,232.262 192.314,232.332 192.714,232.426 193.089,232.543 
		193.488,232.66 193.888,232.801 194.263,232.965 194.662,233.129 195.038,233.318 195.413,233.506 195.789,233.74 196.164,233.975 
		196.517,234.232 196.893,234.516 197.221,234.82 197.573,235.125 197.901,235.453 198.207,235.83 198.512,236.205 198.817,236.604 
		199.099,237.027 199.356,237.473 199.615,237.941 199.85,238.436 200.062,238.951 200.272,239.49 200.46,240.055 200.624,240.641 
		200.766,241.252 200.906,241.885 201,242.566 201.094,243.246 201.141,243.975 201.188,244.727 	"/>
</g>
</svg>
