<?xml version="1.0" encoding="UTF-8" standalone="no"?>
<!-- Generator: Adobe Illustrator 16.0.1, SVG Export Plug-In . SVG Version: 6.00 Build 0)  -->

<svg
   xmlns:dc="http://purl.org/dc/elements/1.1/"
   xmlns:cc="http://creativecommons.org/ns#"
   xmlns:rdf="http://www.w3.org/1999/02/22-rdf-syntax-ns#"
   xmlns:svg="http://www.w3.org/2000/svg"
   xmlns="http://www.w3.org/2000/svg"
   xmlns:xlink="http://www.w3.org/1999/xlink"
   xmlns:sodipodi="http://sodipodi.sourceforge.net/DTD/sodipodi-0.dtd"
   xmlns:inkscape="http://www.inkscape.org/namespaces/inkscape"
   version="1.0"
   id="_x31_"
   x="0px"
   y="0px"
   width="350"
   height="350"
   viewBox="0 0 350 350"
   enable-background="new 0 0 612 792"
   xml:space="preserve"
   inkscape:version="0.48.2 r9819"
   sodipodi:docname="7056.svg"><metadata
   id="metadata16"><rdf:RDF><cc:Work
       rdf:about=""><dc:format>image/svg+xml</dc:format><dc:type
         rdf:resource="http://purl.org/dc/dcmitype/StillImage" /></cc:Work></rdf:RDF></metadata><defs
   id="defs14"><radialGradient
     r="333.18735"
     fy="467.91885"
     fx="373.24265"
     cy="467.91885"
     cx="373.24265"
     gradientTransform="matrix(0.83393192,2.4025531e-7,-2.452288e-7,0.76469446,-575.89311,126.3946)"
     gradientUnits="userSpaceOnUse"
     id="radialGradient2894"
     xlink:href="#linearGradient5443"
     inkscape:collect="always" /><linearGradient
     y2="254.73526"
     x2="123.47623"
     y1="344.03848"
     x1="123.50603"
     gradientTransform="matrix(2.3189708,0,0,2.0930998,-543.56606,-225.82362)"
     gradientUnits="userSpaceOnUse"
     id="linearGradient2892"
     xlink:href="#linearGradient3187"
     inkscape:collect="always" /><radialGradient
     r="333.18735"
     fy="710.99164"
     fx="373.24265"
     cy="710.99164"
     cx="373.24265"
     gradientTransform="matrix(0.8612608,1.0093481e-7,-5.1010329e-8,0.29743416,-586.09339,395.79293)"
     gradientUnits="userSpaceOnUse"
     id="radialGradient2890"
     xlink:href="#linearGradient5443"
     inkscape:collect="always" /><linearGradient
     id="linearGradient5443-5"><stop
       style="stop-color:#ffffff;stop-opacity:0;"
       offset="0"
       id="stop5445-4" /><stop
       style="stop-color:#000000;stop-opacity:0.33962265;"
       offset="1"
       id="stop5447-3" /></linearGradient><radialGradient
     r="333.18735"
     fy="710.99164"
     fx="373.24265"
     cy="710.99164"
     cx="373.24265"
     gradientTransform="matrix(0.9503534,1.1750652e-7,-5.6287062e-8,0.3462676,317.80591,185.68771)"
     gradientUnits="userSpaceOnUse"
     id="radialGradient4835-3"
     xlink:href="#linearGradient5443-5"
     inkscape:collect="always" /><filter
     color-interpolation-filters="sRGB"
     id="filter5511"
     inkscape:collect="always"><feGaussianBlur
       id="feGaussianBlur5513"
       stdDeviation="3.2374974"
       inkscape:collect="always" /></filter><radialGradient
     r="333.18735"
     fy="710.99164"
     fx="373.24265"
     cy="710.99164"
     cx="373.24265"
     gradientTransform="matrix(0.8612608,1.0093481e-7,-5.1010329e-8,0.29743416,-586.09339,395.79293)"
     gradientUnits="userSpaceOnUse"
     id="radialGradient4835"
     xlink:href="#linearGradient5443"
     inkscape:collect="always" /><radialGradient
     r="333.18735"
     fy="467.91885"
     fx="373.24265"
     cy="467.91885"
     cx="373.24265"
     gradientTransform="matrix(0.83393192,2.4025531e-7,-2.452288e-7,0.76469446,-575.89311,126.3946)"
     gradientUnits="userSpaceOnUse"
     id="radialGradient4832"
     xlink:href="#linearGradient5443"
     inkscape:collect="always" /><linearGradient
     y2="254.73526"
     x2="123.47623"
     y1="344.03848"
     x1="123.50603"
     gradientTransform="matrix(2.3189708,0,0,2.0930998,-543.56606,-225.82362)"
     gradientUnits="userSpaceOnUse"
     id="linearGradient4827"
     xlink:href="#linearGradient3187"
     inkscape:collect="always" /><linearGradient
     y2="254.73526"
     x2="123.47623"
     y1="344.03848"
     x1="123.50603"
     gradientTransform="matrix(2.3189708,0,0,2.0930998,93.115298,-256.84999)"
     gradientUnits="userSpaceOnUse"
     id="linearGradient4824"
     xlink:href="#linearGradient3187"
     inkscape:collect="always" /><radialGradient
     r="333.18735"
     fy="467.91885"
     fx="373.24265"
     cy="467.91885"
     cx="373.24265"
     gradientTransform="matrix(0.9201975,2.7970099e-7,-2.7059634e-7,0.8902438,28.590287,48.634335)"
     gradientUnits="userSpaceOnUse"
     id="radialGradient4822"
     xlink:href="#linearGradient3171"
     inkscape:collect="always" /><radialGradient
     r="333.18735"
     fy="710.99164"
     fx="373.24265"
     cy="710.99164"
     cx="373.24265"
     gradientTransform="matrix(0.9503534,1.1750652e-7,-5.6287062e-8,0.3462676,17.334826,362.44227)"
     gradientUnits="userSpaceOnUse"
     id="radialGradient4820"
     xlink:href="#linearGradient3157"
     inkscape:collect="always" /><radialGradient
     r="333.18735"
     fy="710.99164"
     fx="373.24265"
     cy="710.99164"
     cx="373.24265"
     gradientTransform="matrix(0.9503534,1.1750652e-7,-5.6287062e-8,0.3462676,17.334826,362.44227)"
     gradientUnits="userSpaceOnUse"
     id="radialGradient4805"
     xlink:href="#linearGradient3157"
     inkscape:collect="always" /><radialGradient
     r="333.18735"
     fy="467.91885"
     fx="373.24265"
     cy="467.91885"
     cx="373.24265"
     gradientTransform="matrix(0.9201975,2.7970099e-7,-2.7059634e-7,0.8902438,28.590287,48.634335)"
     gradientUnits="userSpaceOnUse"
     id="radialGradient4802"
     xlink:href="#linearGradient3171"
     inkscape:collect="always" /><linearGradient
     y2="254.73526"
     x2="123.47623"
     y1="344.03848"
     x1="123.50603"
     gradientTransform="matrix(2.3189708,0,0,2.0930998,93.115298,-256.84999)"
     gradientUnits="userSpaceOnUse"
     id="linearGradient4799"
     xlink:href="#linearGradient3187"
     inkscape:collect="always" /><linearGradient
     y2="254.73526"
     x2="123.47623"
     y1="344.03848"
     x1="123.50603"
     gradientTransform="matrix(2.3189708,0,0,2.0930998,93.115298,-256.84999)"
     gradientUnits="userSpaceOnUse"
     id="linearGradient4794"
     xlink:href="#linearGradient3187"
     inkscape:collect="always" /><radialGradient
     r="333.18735"
     fy="467.91885"
     fx="373.24265"
     cy="467.91885"
     cx="373.24265"
     gradientTransform="matrix(0.9201975,2.7970099e-7,-2.7059634e-7,0.8902438,28.590287,48.634335)"
     gradientUnits="userSpaceOnUse"
     id="radialGradient4792"
     xlink:href="#linearGradient3171"
     inkscape:collect="always" /><radialGradient
     r="333.18735"
     fy="710.99164"
     fx="373.24265"
     cy="710.99164"
     cx="373.24265"
     gradientTransform="matrix(0.9503534,1.1750652e-7,-5.6287062e-8,0.3462676,17.334826,362.44227)"
     gradientUnits="userSpaceOnUse"
     id="radialGradient4790"
     xlink:href="#linearGradient3157"
     inkscape:collect="always" /><radialGradient
     r="333.18735"
     fy="710.99164"
     fx="373.24265"
     cy="710.99164"
     cx="373.24265"
     gradientTransform="matrix(0.9503534,1.1750652e-7,-5.6287062e-8,0.3462676,17.334826,362.44227)"
     gradientUnits="userSpaceOnUse"
     id="radialGradient4779"
     xlink:href="#linearGradient3157"
     inkscape:collect="always" /><radialGradient
     r="333.18735"
     fy="467.91885"
     fx="373.24265"
     cy="467.91885"
     cx="373.24265"
     gradientTransform="matrix(0.9201975,2.7970099e-7,-2.7059634e-7,0.8902438,28.590287,48.634335)"
     gradientUnits="userSpaceOnUse"
     id="radialGradient4776"
     xlink:href="#linearGradient3171"
     inkscape:collect="always" /><linearGradient
     y2="254.73526"
     x2="123.47623"
     y1="344.03848"
     x1="123.50603"
     gradientTransform="matrix(2.3189708,0,0,2.0930998,93.115298,-256.84999)"
     gradientUnits="userSpaceOnUse"
     id="linearGradient4773"
     xlink:href="#linearGradient3187"
     inkscape:collect="always" /><linearGradient
     y2="254.73526"
     x2="123.47623"
     y1="344.03848"
     x1="123.50603"
     gradientTransform="matrix(2.3189708,0,0,2.0930998,93.115298,-256.84999)"
     gradientUnits="userSpaceOnUse"
     id="linearGradient4770"
     xlink:href="#linearGradient3187"
     inkscape:collect="always" /><radialGradient
     r="333.18735"
     fy="467.91885"
     fx="373.24265"
     cy="467.91885"
     cx="373.24265"
     gradientTransform="matrix(0.9201975,2.7970099e-7,-2.7059634e-7,0.8902438,28.590287,48.634335)"
     gradientUnits="userSpaceOnUse"
     id="radialGradient4768"
     xlink:href="#linearGradient3171"
     inkscape:collect="always" /><radialGradient
     r="333.18735"
     fy="710.99164"
     fx="373.24265"
     cy="710.99164"
     cx="373.24265"
     gradientTransform="matrix(0.9503534,1.1750652e-7,-5.6287062e-8,0.3462676,17.334826,362.44227)"
     gradientUnits="userSpaceOnUse"
     id="radialGradient4766"
     xlink:href="#linearGradient3157"
     inkscape:collect="always" /><filter
     color-interpolation-filters="sRGB"
     id="filter4659"
     inkscape:collect="always"><feGaussianBlur
       id="feGaussianBlur4661"
       stdDeviation="2.7750933"
       inkscape:collect="always" /></filter><radialGradient
     r="333.18735"
     fy="710.99164"
     fx="373.24265"
     cy="710.99164"
     cx="373.24265"
     gradientTransform="matrix(0.9503534,1.1750652e-7,-5.6287062e-8,0.3462676,17.334826,362.44227)"
     gradientUnits="userSpaceOnUse"
     id="radialGradient4572"
     xlink:href="#linearGradient3157"
     inkscape:collect="always" /><radialGradient
     r="333.18735"
     fy="467.91885"
     fx="373.24265"
     cy="467.91885"
     cx="373.24265"
     gradientTransform="matrix(0.9201975,2.7970099e-7,-2.7059634e-7,0.8902438,28.590287,48.634335)"
     gradientUnits="userSpaceOnUse"
     id="radialGradient4569"
     xlink:href="#linearGradient3171"
     inkscape:collect="always" /><linearGradient
     y2="254.73526"
     x2="123.47623"
     y1="344.03848"
     x1="123.50603"
     gradientTransform="matrix(2.3189708,0,0,2.0930998,93.115298,-256.84999)"
     gradientUnits="userSpaceOnUse"
     id="linearGradient4562"
     xlink:href="#linearGradient3187"
     inkscape:collect="always" /><linearGradient
     gradientUnits="userSpaceOnUse"
     y2="540.86719"
     x2="360.49777"
     y1="167.50403"
     x1="360.49777"
     id="linearGradient4401"
     xlink:href="#linearGradient4395"
     inkscape:collect="always" /><linearGradient
     gradientUnits="userSpaceOnUse"
     y2="655.4505"
     x2="396.91168"
     y1="298.59412"
     x1="371.42194"
     id="linearGradient4389"
     xlink:href="#linearGradient4383"
     inkscape:collect="always" /><inkscape:perspective
     id="perspective3214"
     inkscape:persp3d-origin="372.04724 : 350.78739 : 1"
     inkscape:vp_z="744.09448 : 526.18109 : 1"
     inkscape:vp_y="0 : 1000 : 0"
     inkscape:vp_x="0 : 526.18109 : 1"
     sodipodi:type="inkscape:persp3d" /><linearGradient
     id="linearGradient4383"><stop
       id="stop4385"
       offset="0"
       style="stop-color:#00037f;stop-opacity:1;" /><stop
       id="stop4387"
       offset="1"
       style="stop-color:#00037f;stop-opacity:0;" /></linearGradient><linearGradient
     id="linearGradient4395"><stop
       id="stop4397"
       offset="0"
       style="stop-color:#110084;stop-opacity:1;" /><stop
       id="stop4399"
       offset="1"
       style="stop-color:#a695ff;stop-opacity:1;" /></linearGradient><linearGradient
     id="linearGradient3187"><stop
       id="stop3189"
       offset="0"
       style="stop-color:#ffffff;stop-opacity:0.39622641;" /><stop
       id="stop3191"
       offset="1"
       style="stop-color:#000000;stop-opacity:1;" /></linearGradient><linearGradient
     id="linearGradient3171"><stop
       style="stop-color:#49bcff;stop-opacity:1;"
       offset="0"
       id="stop3173" /><stop
       style="stop-color:#494cdc;stop-opacity:1;"
       offset="1"
       id="stop3175" /></linearGradient><linearGradient
     id="linearGradient3157"><stop
       id="stop3159"
       offset="0"
       style="stop-color:#49bcff;stop-opacity:1;" /><stop
       id="stop3161"
       offset="1"
       style="stop-color:#494c96;stop-opacity:1;" /></linearGradient><linearGradient
     id="linearGradient5443"><stop
       style="stop-color:#ffffff;stop-opacity:0;"
       offset="0"
       id="stop5445" /><stop
       style="stop-color:#000000;stop-opacity:0.33962265;"
       offset="1"
       id="stop5447" /></linearGradient><radialGradient
     inkscape:collect="always"
     xlink:href="#linearGradient5443"
     id="radialGradient3243"
     gradientUnits="userSpaceOnUse"
     gradientTransform="matrix(0.8612608,1.0093481e-7,-5.1010329e-8,0.29743416,-586.09339,395.79293)"
     cx="373.24265"
     cy="710.99164"
     fx="373.24265"
     fy="710.99164"
     r="333.18735" /><linearGradient
     inkscape:collect="always"
     xlink:href="#linearGradient3187"
     id="linearGradient3245"
     gradientUnits="userSpaceOnUse"
     gradientTransform="matrix(2.3189708,0,0,2.0930998,-543.56606,-225.82362)"
     x1="123.50603"
     y1="344.03848"
     x2="123.47623"
     y2="254.73526" /><radialGradient
     inkscape:collect="always"
     xlink:href="#linearGradient5443"
     id="radialGradient3247"
     gradientUnits="userSpaceOnUse"
     gradientTransform="matrix(0.83393192,2.4025531e-7,-2.452288e-7,0.76469446,-575.89311,126.3946)"
     cx="373.24265"
     cy="467.91885"
     fx="373.24265"
     fy="467.91885"
     r="333.18735" /><radialGradient
     inkscape:collect="always"
     xlink:href="#linearGradient5443"
     id="radialGradient3263"
     gradientUnits="userSpaceOnUse"
     gradientTransform="matrix(0.8612608,1.0093481e-7,-5.1010329e-8,0.29743416,-586.09339,395.79293)"
     cx="373.24265"
     cy="710.99164"
     fx="373.24265"
     fy="710.99164"
     r="333.18735" /><linearGradient
     inkscape:collect="always"
     xlink:href="#linearGradient3187"
     id="linearGradient3265"
     gradientUnits="userSpaceOnUse"
     gradientTransform="matrix(2.3189708,0,0,2.0930998,-543.56606,-225.82362)"
     x1="123.50603"
     y1="344.03848"
     x2="123.47623"
     y2="254.73526" /><radialGradient
     inkscape:collect="always"
     xlink:href="#linearGradient5443"
     id="radialGradient3267"
     gradientUnits="userSpaceOnUse"
     gradientTransform="matrix(0.83393192,2.4025531e-7,-2.452288e-7,0.76469446,-575.89311,126.3946)"
     cx="373.24265"
     cy="467.91885"
     fx="373.24265"
     fy="467.91885"
     r="333.18735" /><radialGradient
     inkscape:collect="always"
     xlink:href="#linearGradient5443"
     id="radialGradient3279"
     gradientUnits="userSpaceOnUse"
     gradientTransform="matrix(0.83535069,2.5391116e-7,-2.4564601e-7,0.80815885,470.11582,406.728)"
     cx="373.24265"
     cy="467.91885"
     fx="373.24265"
     fy="467.91885"
     r="333.18735" /><radialGradient
     inkscape:collect="always"
     xlink:href="#linearGradient5443"
     id="radialGradient3283"
     gradientUnits="userSpaceOnUse"
     gradientTransform="matrix(0.86272606,1.0667183e-7,-5.1097113e-8,0.31433999,459.89819,691.43863)"
     cx="373.24265"
     cy="710.99164"
     fx="373.24265"
     fy="710.99164"
     r="333.18735" /><radialGradient
     inkscape:collect="always"
     xlink:href="#linearGradient5443"
     id="radialGradient3293"
     gradientUnits="userSpaceOnUse"
     gradientTransform="matrix(0.86272606,1.0667183e-7,-5.1097113e-8,0.31433999,459.89819,691.43863)"
     cx="373.24265"
     cy="710.99164"
     fx="373.24265"
     fy="710.99164"
     r="333.18735" /><linearGradient
     inkscape:collect="always"
     xlink:href="#linearGradient3187"
     id="linearGradient3295"
     gradientUnits="userSpaceOnUse"
     gradientTransform="matrix(2.3189708,0,0,2.0930998,-543.56606,-225.82362)"
     x1="123.50603"
     y1="344.03848"
     x2="123.47623"
     y2="254.73526" /><radialGradient
     inkscape:collect="always"
     xlink:href="#linearGradient5443"
     id="radialGradient3297"
     gradientUnits="userSpaceOnUse"
     gradientTransform="matrix(0.83535069,2.5391116e-7,-2.4564601e-7,0.80815885,470.11582,406.728)"
     cx="373.24265"
     cy="467.91885"
     fx="373.24265"
     fy="467.91885"
     r="333.18735" /></defs><sodipodi:namedview
   pagecolor="#ffffff"
   bordercolor="#666666"
   borderopacity="1"
   objecttolerance="10"
   gridtolerance="10"
   guidetolerance="10"
   inkscape:pageopacity="0"
   inkscape:pageshadow="2"
   inkscape:window-width="1920"
   inkscape:window-height="1068"
   id="namedview12"
   showgrid="false"
   inkscape:zoom="0.84281414"
   inkscape:cx="-176.41331"
   inkscape:cy="112.03236"
   inkscape:window-x="0"
   inkscape:window-y="0"
   inkscape:window-maximized="1"
   inkscape:current-layer="_x31_"
   fit-margin-top="0"
   fit-margin-left="0"
   fit-margin-right="0"
   fit-margin-bottom="0" />

<g
   id="g3286"
   transform="translate(-606.90436,-609.88101)"><rect
     transform="matrix(2.1051501,0,0,2.1051501,335.90138,521.51412)"
     ry="12.45238"
     rx="16.067965"
     y="48.636749"
     x="135.39355"
     height="152.93848"
     width="152.93848"
     id="rect3279"
     style="opacity:0.61338286;fill:#464646;fill-opacity:0.78540775;stroke:none;filter:url(#filter4659)"
     inkscape:export-filename="C:\Documents and Settings\adscro24\Desktop\128.png"
     inkscape:export-xdpi="29.879425"
     inkscape:export-ydpi="29.879425" /><rect
     ry="26.214128"
     rx="33.825478"
     y="623.90173"
     x="620.92511"
     height="321.95844"
     width="321.95847"
     id="rect3155"
     style="opacity:0.61338286;fill:url(#radialGradient3293);fill-opacity:1;stroke:#000000;stroke-width:3.26806188;stroke-miterlimit:4;stroke-opacity:1;stroke-dasharray:none"
     inkscape:export-filename="C:\Documents and Settings\adscro24\Desktop\128.png"
     inkscape:export-xdpi="29.879425"
     inkscape:export-ydpi="29.879425" /><path
     id="rect3177"
     d="m -397.80626,329.07489 c -19.62748,0 -35.44272,12.0976 -35.44272,27.14163 l 0,124.30857 c 29.25482,11.38638 132.70149,11.89599 165.40488,-5.79022 33.32802,-18.02397 127.54379,-68.44264 171.824837,-52.72052 l 0,-65.79783 c 0,-15.04403 -15.798597,-27.14163 -35.426097,-27.14163 l -266.3609,0 z m -35.44272,263.47103 0,42.88373 c 0,1.33144 0.14331,2.63588 0.38253,3.915 -0.11919,-12.81092 -0.25965,-28.88939 -0.38253,-46.79873 z"
     style="opacity:0.61338286;fill:url(#linearGradient3295);fill-opacity:1;stroke:none;filter:url(#filter5511)"
     inkscape:connector-curvature="0"
     inkscape:export-filename="C:\Documents and Settings\adscro24\Desktop\128.png"
     inkscape:export-xdpi="29.879425"
     inkscape:export-ydpi="29.879425"
     transform="matrix(0.907795,0,0,0.90779498,1022.1379,345.31779)" /><rect
     ry="24.924911"
     rx="32.161926"
     y="631.81879"
     x="628.84216"
     height="306.12445"
     width="306.12445"
     id="rect3473"
     style="opacity:0.61338286;fill:url(#radialGradient3297);fill-opacity:1;stroke:#ffffff;stroke-width:0.68992418;stroke-linecap:square;stroke-miterlimit:4;stroke-opacity:1;stroke-dasharray:none"
     inkscape:export-filename="C:\Documents and Settings\adscro24\Desktop\128.png"
     inkscape:export-xdpi="29.879425"
     inkscape:export-ydpi="29.879425" /><rect
     ry="26.214128"
     rx="33.825478"
     y="623.90173"
     x="620.92511"
     height="321.95844"
     width="321.95847"
     id="rect3155-2"
     style="opacity:0.61338286;fill:#ffffff;fill-opacity:0;stroke:#000000;stroke-width:3.26806188;stroke-miterlimit:4;stroke-opacity:1;stroke-dasharray:none"
     inkscape:export-filename="C:\Documents and Settings\adscro24\Desktop\128.png"
     inkscape:export-xdpi="29.879425"
     inkscape:export-ydpi="29.879425" /></g><g
   id="LWPOLYLINE_1_"
   transform="translate(-315.5928,-502.59119)">
	
		
</g>
<g
   id="g2986"
   transform="matrix(0.50050161,0,0,0.50050161,21.847196,-22.949396)"><g
     style="fill:#000000;fill-opacity:1;stroke:none"
     id="LWPOLYLINE">
	
		<path
   inkscape:connector-curvature="0"
   id="path4"
   d="m 24.53125,203.1875 c -0.32134,130.77014 -0.187609,261.54175 -0.25,392.3125 17.916667,0 35.833333,0 53.75,0 0.220329,-58.22242 0.03067,-116.45947 0.09375,-174.6875 43.53748,-1.84492 88.04781,3.34684 130.96196,-6.83878 21.13775,-4.70623 40.64482,-16.10918 54.38179,-32.94237 21.41786,-22.77922 29.27346,-55.5047 25.35471,-86.03418 -2.16214,-24.41036 -13.34067,-47.7078 -31.19365,-64.52438 -19.3531,-21.07598 -49.15842,-26.1797 -76.45171,-26.87563 C 128.97859,202.68691 76.739945,203.4281 24.53125,203.1875 z m 53.59375,44.25 c 32.29734,0.36974 64.64074,-0.79727 96.90625,0.6874 20.20848,1.25592 42.47069,9.85387 50.97432,29.66102 8.30539,19.91789 8.05239,43.54477 -0.29726,63.40847 -9.68106,21.83771 -34.08382,31.55636 -56.4636,33.69437 -27.53814,2.63856 -55.27606,0.82055 -82.90096,1.36104 -11.878984,3.39028 -7.248521,-10.15741 -8.00848,-17.91195 C 78.148665,321.37143 78.141735,284.4043 78.125,247.4375 z"
   style="fill:#000000;fill-opacity:1;stroke:none" />
</g><g
     style="fill:#000000;fill-opacity:1;stroke:none"
     id="LWPOLYLINE_2_">
	
		<path
   style="fill:#000000;fill-opacity:1;stroke:none"
   id="path10"
   d="m 337.763,595.5 c 0.469,0 1.781,0 1.781,0 h 2.257 2.909 3.756 4.507 5.071 5.729 6.29 6.76 7.231 7.7 8.074 8.356 8.638 8.922 9.106 9.203 9.294 9.391 9.391 9.293 9.203 9.109 8.919 8.638 8.359 8.075 7.696 7.231 6.854 6.2 5.725 5.166 4.412 3.756 3.007 2.159 1.312 c 0.472,-0.375 0.472,-0.75 0.472,-0.75 v -0.562 -0.659 -0.844 -0.94 -1.031 -1.223 -1.219 -1.315 -1.409 -1.5 -1.597 -1.597 -1.598 -1.69 -1.688 -1.69 -1.784 -1.69 -1.785 -1.69 -1.69 -1.594 -1.597 -1.597 -1.41 -1.5 -1.315 -1.222 -1.125 -1.128 -0.938 -0.753 -0.75 -0.562 c 0,-0.379 0,-0.66 0,-0.66 -0.284,-0.094 -1.315,-0.094 -1.315,-0.094 h -1.69 -2.159 -2.816 -3.287 -3.85 -4.226 -4.693 -5.072 -5.446 -5.729 -6.01 -6.196 -6.479 -6.665 -6.763 -6.854 -7.044 -6.946 -6.95 -6.947 -6.946 -6.763 -6.666 -6.478 -6.2 -6.01 -5.725 -5.447 -5.071 -4.694 -4.225 -3.85 -3.288 -2.815 -2.159 -1.69 -1.035 c 0.191,-0.469 0.848,-1.031 0.848,-1.031 l 0.75,-0.753 1.034,-1.031 1.312,-1.128 1.409,-1.312 1.503,-1.503 1.784,-1.69 1.879,-1.691 1.972,-1.972 2.159,-1.972 2.253,-2.065 2.347,-2.253 2.348,-2.254 2.44,-2.347 2.537,-2.347 2.534,-2.443 2.629,-2.441 2.537,-2.44 2.628,-2.44 2.628,-2.443 2.535,-2.441 2.537,-2.347 2.44,-2.347 2.347,-2.253 2.348,-2.159 2.253,-2.16 2.065,-1.972 2.068,-1.878 1.875,-1.784 1.691,-1.69 1.597,-1.41 1.409,-1.406 1.219,-1.128 1.034,-0.938 0.844,-0.847 0.659,-0.562 c 0.375,-0.375 0.469,-0.469 0.469,-0.469 l 3.382,-3.193 3.472,-3.288 3.568,-3.378 3.569,-3.475 3.756,-3.569 3.757,-3.568 3.85,-3.757 3.85,-3.753 3.848,-3.85 3.943,-3.851 3.943,-4.037 3.944,-3.99 3.85,-4.132 3.944,-4.131 3.85,-4.229 3.85,-4.271 3.851,-4.319 3.756,-4.412 3.663,-4.412 3.568,-4.507 3.565,-4.509 3.382,-4.601 3.381,-4.6 3.19,-4.65 3.101,-4.693 3.003,-4.741 2.818,-4.791 2.722,-4.788 2.441,-4.837 2.347,-4.881 2.162,-4.881 2.065,-4.931 1.785,-4.928 1.5,-4.931 1.409,-4.975 1.128,-5.025 0.938,-5.022 0.656,-4.978 0.378,-5.069 0.094,-5.025 -0.094,-6.244 -0.284,-6.057 -0.562,-5.822 -0.844,-5.634 -0.94,-5.397 -1.219,-5.259 -1.315,-5.025 -1.598,-4.881 -1.784,-4.647 -1.878,-4.462 -2.159,-4.272 -2.253,-4.131 -2.441,-3.943 -2.534,-3.756 -2.818,-3.566 -2.815,-3.381 -3.007,-3.241 -3.19,-3.097 -3.287,-2.912 -3.382,-2.722 -3.565,-2.581 -3.568,-2.444 -3.757,-2.3 -3.85,-2.113 -3.944,-1.972 -3.943,-1.832 -4.131,-1.737 -4.132,-1.5 -4.225,-1.409 -4.319,-1.316 -4.415,-1.125 -4.319,-1.034 -4.506,-0.844 -4.506,-0.753 -4.507,-0.656 -4.509,-0.516 -4.601,-0.375 -4.6,-0.284 -4.604,-0.188 -4.6,-0.047 h -1.972 l -1.879,0.047 -1.972,0.047 -1.972,0.047 -1.972,0.094 -1.972,0.097 -2.066,0.094 -2.065,0.188 -2.065,0.141 -2.065,0.234 -2.159,0.234 -2.066,0.234 -2.159,0.281 -2.159,0.328 -2.159,0.378 -2.159,0.375 -2.16,0.469 -2.256,0.469 -2.159,0.516 -2.159,0.565 -2.254,0.562 -2.159,0.656 -2.253,0.707 -2.159,0.703 -2.253,0.797 -2.16,0.847 -2.159,0.891 -2.256,0.94 -2.159,0.984 -2.16,1.082 -2.159,1.078 -2.159,1.175 -2.159,1.222 -2.159,1.312 -2.066,1.362 -2.159,1.409 -2.065,1.5 -2.065,1.55 -2.065,1.644 -2.066,1.691 -2.537,2.3 -2.347,2.347 -2.347,2.347 -2.16,2.35 -2.065,2.394 -1.972,2.394 -1.878,2.394 -1.784,2.44 -1.598,2.397 -1.594,2.394 -1.409,2.441 -1.409,2.394 -1.315,2.441 -1.219,2.396 -1.128,2.394 -1.031,2.394 -0.941,2.347 -0.938,2.347 -0.753,2.347 -0.75,2.303 -0.75,2.3 -0.565,2.3 -0.562,2.253 -0.562,2.207 -0.469,2.159 -0.378,2.16 -0.375,2.159 -0.281,2.065 -0.281,2.019 -0.281,2.019 -0.188,1.972 -0.188,1.925 -0.094,1.831 -0.094,1.832 -0.094,1.784 -0.097,1.691 v 1.69 1.597 l -0.094,1.5 v 1.503 c 0.472,0 1.034,0 1.034,0 h 0.656 0.94 1.031 1.222 1.315 1.5 1.691 1.69 1.784 1.972 1.972 2.066 2.159 2.159 2.159 2.253 2.254 2.253 2.162 2.253 2.16 2.065 2.065 2.065 1.878 1.879 1.69 1.594 1.503 1.409 1.219 1.034 0.844 0.754 0.562 c 0.375,0 0.375,-1.222 0.375,-1.222 V 306.4 l 0.094,-1.503 0.094,-1.597 v -1.738 l 0.188,-1.784 0.19,-1.922 0.188,-1.972 0.281,-2.065 0.281,-2.163 0.375,-2.159 0.469,-2.253 0.565,-2.3 0.562,-2.3 0.656,-2.347 0.847,-2.347 0.844,-2.35 1.034,-2.347 1.031,-2.347 1.223,-2.3 1.312,-2.3 1.409,-2.253 1.597,-2.206 1.784,-2.163 1.784,-2.113 2.066,-2.019 2.159,-1.925 2.253,-1.828 2.44,-1.738 2.722,-1.644 2.819,-1.55 3.003,-1.409 3.193,-1.266 3.382,-1.128 3.565,-0.984 3.756,-0.8 3.944,-0.656 4.225,-0.469 4.416,-0.328 4.693,-0.097 4.038,0.097 3.943,0.234 3.662,0.422 3.569,0.516 3.378,0.703 3.193,0.8 3.098,0.938 2.912,1.081 2.722,1.172 2.632,1.269 2.44,1.41 2.253,1.503 2.159,1.594 2.065,1.644 1.879,1.737 1.784,1.831 1.597,1.878 1.594,1.925 1.409,1.972 1.315,2.065 1.219,2.065 1.129,2.113 0.938,2.112 0.94,2.16 0.844,2.159 0.753,2.206 0.656,2.16 0.656,2.159 0.472,2.209 0.469,2.112 0.375,2.113 0.375,2.112 0.281,2.066 0.188,2.019 0.19,1.972 0.188,1.878 0.094,1.878 v 1.781 l 0.094,1.691 v 1.644 l -0.094,3.756 -0.378,3.756 -0.469,3.803 -0.75,3.803 -0.847,3.85 -1.031,3.803 -1.315,3.847 -1.406,3.803 -1.503,3.85 -1.691,3.803 -1.878,3.85 -1.972,3.803 -2.065,3.803 -2.159,3.756 -2.348,3.756 -2.347,3.756 -2.537,3.707 -2.534,3.709 -2.629,3.615 -2.725,3.663 -2.815,3.569 -2.815,3.565 -2.819,3.475 -2.909,3.475 -2.912,3.428 -2.91,3.332 -3.006,3.334 -2.909,3.24 -3.007,3.191 -2.909,3.146 -2.912,3.05 -2.815,3.007 -2.91,2.956 -2.725,2.818 -2.815,2.815 -2.632,2.676 -2.628,2.631 -2.534,2.534 -2.44,2.44 -2.347,2.348 c -0.191,0.19 -0.754,0.706 -0.754,0.706 l -0.938,0.891 -1.222,1.175 -1.597,1.503 -1.784,1.781 -2.159,2.065 -2.348,2.257 -2.628,2.534 -2.818,2.722 -3.003,2.913 -3.194,3.097 -3.378,3.193 -3.475,3.382 -3.569,3.378 -3.662,3.568 -3.851,3.663 -3.756,3.662 -3.943,3.756 -3.848,3.754 -3.943,3.756 -3.85,3.756 -3.851,3.663 -3.756,3.662 -3.663,3.569 -3.568,3.378 -3.568,3.381 -3.285,3.194 -3.193,3.097 -3.003,2.912 -2.819,2.722 -2.628,2.535 -2.347,2.253 -2.159,2.065 -1.878,1.784 -1.504,1.503 -1.222,1.129 -0.938,0.938 -0.562,0.469 c -0.188,0.186 -0.188,54.082 -0.188,54.082 z"
   stroke-miterlimit="10"
   inkscape:connector-curvature="0" />
</g></g>
</svg>