<?xml version="1.0" encoding="UTF-8" standalone="no"?>
<!-- Generator: Adobe Illustrator 16.0.1, SVG Export Plug-In . SVG Version: 6.00 Build 0)  -->

<svg
   xmlns:dc="http://purl.org/dc/elements/1.1/"
   xmlns:cc="http://creativecommons.org/ns#"
   xmlns:rdf="http://www.w3.org/1999/02/22-rdf-syntax-ns#"
   xmlns:svg="http://www.w3.org/2000/svg"
   xmlns="http://www.w3.org/2000/svg"
   xmlns:xlink="http://www.w3.org/1999/xlink"
   xmlns:sodipodi="http://sodipodi.sourceforge.net/DTD/sodipodi-0.dtd"
   xmlns:inkscape="http://www.inkscape.org/namespaces/inkscape"
   version="1.0"
   id="_x31_"
   x="0px"
   y="0px"
   width="350"
   height="350"
   viewBox="0 0 350 350"
   enable-background="new 0 0 612 792"
   xml:space="preserve"
   inkscape:version="0.48.2 r9819"
   sodipodi:docname="7050.svg"><metadata
   id="metadata111"><rdf:RDF><cc:Work
       rdf:about=""><dc:format>image/svg+xml</dc:format><dc:type
         rdf:resource="http://purl.org/dc/dcmitype/StillImage" /></cc:Work></rdf:RDF></metadata><defs
   id="defs109"><radialGradient
     r="333.18735"
     fy="710.99164"
     fx="373.24265"
     cy="710.99164"
     cx="373.24265"
     gradientTransform="matrix(0.86272608,1.0667183e-7,-5.1097115e-8,0.31434,-147.00617,81.5576)"
     gradientUnits="userSpaceOnUse"
     id="radialGradient3092"
     xlink:href="#linearGradient5443"
     inkscape:collect="always" /><radialGradient
     r="333.18735"
     fy="467.91885"
     fx="373.24265"
     cy="467.91885"
     cx="373.24265"
     gradientTransform="matrix(0.83535071,2.5391117e-7,-2.4564601e-7,0.80815889,-136.78854,-203.15302)"
     gradientUnits="userSpaceOnUse"
     id="radialGradient3088"
     xlink:href="#linearGradient5443"
     inkscape:collect="always" /><radialGradient
     r="333.18735"
     fy="467.91885"
     fx="373.24265"
     cy="467.91885"
     cx="373.24265"
     gradientTransform="matrix(0.83535071,2.5391117e-7,-2.4564601e-7,0.80815889,783.12101,707.99698)"
     gradientUnits="userSpaceOnUse"
     id="radialGradient3736"
     xlink:href="#linearGradient5443"
     inkscape:collect="always" /><linearGradient
     y2="254.73526"
     x2="123.47623"
     y1="344.03848"
     x1="123.50603"
     gradientTransform="matrix(2.3189708,0,0,2.0930998,-99.17808,-231.54972)"
     gradientUnits="userSpaceOnUse"
     id="linearGradient3734"
     xlink:href="#linearGradient3187"
     inkscape:collect="always" /><radialGradient
     r="333.18735"
     fy="710.99164"
     fx="373.24265"
     cy="710.99164"
     cx="373.24265"
     gradientTransform="matrix(0.86272608,1.0667183e-7,-5.1097115e-8,0.31434,772.90338,992.7076)"
     gradientUnits="userSpaceOnUse"
     id="radialGradient3732"
     xlink:href="#linearGradient5443"
     inkscape:collect="always" /><radialGradient
     r="333.18735"
     fy="710.99164"
     fx="373.24265"
     cy="710.99164"
     cx="373.24265"
     gradientTransform="matrix(0.86272608,1.0667183e-7,-5.1097115e-8,0.31434,772.90338,992.7076)"
     gradientUnits="userSpaceOnUse"
     id="radialGradient3722"
     xlink:href="#linearGradient5443"
     inkscape:collect="always" /><radialGradient
     r="333.18735"
     fy="467.91885"
     fx="373.24265"
     cy="467.91885"
     cx="373.24265"
     gradientTransform="matrix(0.83535071,2.5391117e-7,-2.4564601e-7,0.80815889,783.12101,707.99698)"
     gradientUnits="userSpaceOnUse"
     id="radialGradient3718"
     xlink:href="#linearGradient5443"
     inkscape:collect="always" /><radialGradient
     r="333.18735"
     fy="467.91885"
     fx="373.24265"
     cy="467.91885"
     cx="373.24265"
     gradientTransform="matrix(0.9201975,2.7970099e-7,-2.7059634e-7,0.8902438,-163.70313,61.921561)"
     gradientUnits="userSpaceOnUse"
     id="radialGradient3703"
     xlink:href="#linearGradient5443"
     inkscape:collect="always" /><linearGradient
     y2="254.73526"
     x2="123.47623"
     y1="344.03848"
     x1="123.50603"
     gradientTransform="matrix(2.3189708,0,0,2.0930998,-99.17808,-231.54972)"
     gradientUnits="userSpaceOnUse"
     id="linearGradient3701"
     xlink:href="#linearGradient3187"
     inkscape:collect="always" /><radialGradient
     r="333.18735"
     fy="710.99164"
     fx="373.24265"
     cy="710.99164"
     cx="373.24265"
     gradientTransform="matrix(0.9503534,1.1750652e-7,-5.6287062e-8,0.3462676,-174.95857,375.55031)"
     gradientUnits="userSpaceOnUse"
     id="radialGradient3699"
     xlink:href="#linearGradient5443"
     inkscape:collect="always" /><radialGradient
     r="333.18735"
     fy="467.91885"
     fx="373.24265"
     cy="467.91885"
     cx="373.24265"
     gradientTransform="matrix(0.9201975,2.7970099e-7,-2.7059634e-7,0.8902438,-163.70313,61.921561)"
     gradientUnits="userSpaceOnUse"
     id="radialGradient3680"
     xlink:href="#linearGradient5443"
     inkscape:collect="always" /><linearGradient
     y2="254.73526"
     x2="123.47623"
     y1="344.03848"
     x1="123.50603"
     gradientTransform="matrix(2.3189708,0,0,2.0930998,-99.17808,-231.54972)"
     gradientUnits="userSpaceOnUse"
     id="linearGradient3678"
     xlink:href="#linearGradient3187"
     inkscape:collect="always" /><radialGradient
     r="333.18735"
     fy="710.99164"
     fx="373.24265"
     cy="710.99164"
     cx="373.24265"
     gradientTransform="matrix(0.9503534,1.1750652e-7,-5.6287062e-8,0.3462676,-174.95857,375.55031)"
     gradientUnits="userSpaceOnUse"
     id="radialGradient3676"
     xlink:href="#linearGradient5443"
     inkscape:collect="always" /><radialGradient
     r="333.18735"
     fy="467.91885"
     fx="373.24265"
     cy="467.91885"
     cx="373.24265"
     gradientTransform="matrix(0.9201975,2.7970099e-7,-2.7059634e-7,0.8902438,-163.70313,61.921561)"
     gradientUnits="userSpaceOnUse"
     id="radialGradient3654"
     xlink:href="#linearGradient5443"
     inkscape:collect="always" /><linearGradient
     y2="254.73526"
     x2="123.47623"
     y1="344.03848"
     x1="123.50603"
     gradientTransform="matrix(2.3189708,0,0,2.0930998,-99.17808,-231.54972)"
     gradientUnits="userSpaceOnUse"
     id="linearGradient3652"
     xlink:href="#linearGradient3187"
     inkscape:collect="always" /><radialGradient
     r="333.18735"
     fy="710.99164"
     fx="373.24265"
     cy="710.99164"
     cx="373.24265"
     gradientTransform="matrix(0.9503534,1.1750652e-7,-5.6287062e-8,0.3462676,-174.95857,375.55031)"
     gradientUnits="userSpaceOnUse"
     id="radialGradient3650"
     xlink:href="#linearGradient5443"
     inkscape:collect="always" /><radialGradient
     r="333.18735"
     fy="467.91885"
     fx="373.24265"
     cy="467.91885"
     cx="373.24265"
     gradientTransform="matrix(0.9201975,2.7970099e-7,-2.7059634e-7,0.8902438,-163.70313,61.921561)"
     gradientUnits="userSpaceOnUse"
     id="radialGradient3627"
     xlink:href="#linearGradient5443"
     inkscape:collect="always" /><linearGradient
     y2="254.73526"
     x2="123.47623"
     y1="344.03848"
     x1="123.50603"
     gradientTransform="matrix(2.3189708,0,0,2.0930998,-99.17808,-231.54972)"
     gradientUnits="userSpaceOnUse"
     id="linearGradient3625"
     xlink:href="#linearGradient3187"
     inkscape:collect="always" /><radialGradient
     r="333.18735"
     fy="710.99164"
     fx="373.24265"
     cy="710.99164"
     cx="373.24265"
     gradientTransform="matrix(0.9503534,1.1750652e-7,-5.6287062e-8,0.3462676,-174.95857,375.55031)"
     gradientUnits="userSpaceOnUse"
     id="radialGradient3623"
     xlink:href="#linearGradient5443"
     inkscape:collect="always" /><radialGradient
     r="333.18735"
     fy="467.91885"
     fx="373.24265"
     cy="467.91885"
     cx="373.24265"
     gradientTransform="matrix(0.9201975,2.7970099e-7,-2.7059634e-7,0.8902438,-163.70313,61.921561)"
     gradientUnits="userSpaceOnUse"
     id="radialGradient3599"
     xlink:href="#linearGradient5443"
     inkscape:collect="always" /><linearGradient
     y2="254.73526"
     x2="123.47623"
     y1="344.03848"
     x1="123.50603"
     gradientTransform="matrix(2.3189708,0,0,2.0930998,-99.17808,-231.54972)"
     gradientUnits="userSpaceOnUse"
     id="linearGradient3597"
     xlink:href="#linearGradient3187"
     inkscape:collect="always" /><radialGradient
     r="333.18735"
     fy="710.99164"
     fx="373.24265"
     cy="710.99164"
     cx="373.24265"
     gradientTransform="matrix(0.9503534,1.1750652e-7,-5.6287062e-8,0.3462676,-174.95857,375.55031)"
     gradientUnits="userSpaceOnUse"
     id="radialGradient3595"
     xlink:href="#linearGradient5443"
     inkscape:collect="always" /><radialGradient
     r="333.18735"
     fy="467.91885"
     fx="373.24265"
     cy="467.91885"
     cx="373.24265"
     gradientTransform="matrix(0.9201975,2.7970099e-7,-2.7059634e-7,0.8902438,-163.70313,61.921561)"
     gradientUnits="userSpaceOnUse"
     id="radialGradient3525"
     xlink:href="#linearGradient5443"
     inkscape:collect="always" /><linearGradient
     y2="254.73526"
     x2="123.47623"
     y1="344.03848"
     x1="123.50603"
     gradientTransform="matrix(2.3189708,0,0,2.0930998,-99.17808,-231.54972)"
     gradientUnits="userSpaceOnUse"
     id="linearGradient3523"
     xlink:href="#linearGradient3187"
     inkscape:collect="always" /><radialGradient
     r="333.18735"
     fy="710.99164"
     fx="373.24265"
     cy="710.99164"
     cx="373.24265"
     gradientTransform="matrix(0.9503534,1.1750652e-7,-5.6287062e-8,0.3462676,-174.95857,375.55031)"
     gradientUnits="userSpaceOnUse"
     id="radialGradient3521"
     xlink:href="#linearGradient5443"
     inkscape:collect="always" /><radialGradient
     r="333.18735"
     fy="467.91885"
     fx="373.24265"
     cy="467.91885"
     cx="373.24265"
     gradientTransform="matrix(0.9201975,2.7970099e-7,-2.7059634e-7,0.8902438,-163.70313,61.921561)"
     gradientUnits="userSpaceOnUse"
     id="radialGradient3497"
     xlink:href="#linearGradient5443"
     inkscape:collect="always" /><linearGradient
     y2="254.73526"
     x2="123.47623"
     y1="344.03848"
     x1="123.50603"
     gradientTransform="matrix(2.3189708,0,0,2.0930998,-99.17808,-231.54972)"
     gradientUnits="userSpaceOnUse"
     id="linearGradient3495"
     xlink:href="#linearGradient3187"
     inkscape:collect="always" /><radialGradient
     r="333.18735"
     fy="710.99164"
     fx="373.24265"
     cy="710.99164"
     cx="373.24265"
     gradientTransform="matrix(0.9503534,1.1750652e-7,-5.6287062e-8,0.3462676,-174.95857,375.55031)"
     gradientUnits="userSpaceOnUse"
     id="radialGradient3493"
     xlink:href="#linearGradient5443"
     inkscape:collect="always" /><linearGradient
     id="linearGradient5443"><stop
       id="stop5445"
       offset="0"
       style="stop-color:#ffffff;stop-opacity:0;" /><stop
       id="stop5447"
       offset="1"
       style="stop-color:#000000;stop-opacity:0.33962265;" /></linearGradient><linearGradient
     id="linearGradient3157"><stop
       style="stop-color:#49bcff;stop-opacity:1;"
       offset="0"
       id="stop3159" /><stop
       style="stop-color:#494c96;stop-opacity:1;"
       offset="1"
       id="stop3161" /></linearGradient><linearGradient
     id="linearGradient3171"><stop
       id="stop3173"
       offset="0"
       style="stop-color:#49bcff;stop-opacity:1;" /><stop
       id="stop3175"
       offset="1"
       style="stop-color:#494cdc;stop-opacity:1;" /></linearGradient><linearGradient
     id="linearGradient3187"><stop
       style="stop-color:#ffffff;stop-opacity:0.39622641;"
       offset="0"
       id="stop3189" /><stop
       style="stop-color:#000000;stop-opacity:1;"
       offset="1"
       id="stop3191" /></linearGradient><linearGradient
     id="linearGradient4395"><stop
       style="stop-color:#110084;stop-opacity:1;"
       offset="0"
       id="stop4397" /><stop
       style="stop-color:#a695ff;stop-opacity:1;"
       offset="1"
       id="stop4399" /></linearGradient><linearGradient
     id="linearGradient4383"><stop
       style="stop-color:#00037f;stop-opacity:1;"
       offset="0"
       id="stop4385" /><stop
       style="stop-color:#00037f;stop-opacity:0;"
       offset="1"
       id="stop4387" /></linearGradient><inkscape:perspective
     sodipodi:type="inkscape:persp3d"
     inkscape:vp_x="0 : 526.18109 : 1"
     inkscape:vp_y="0 : 1000 : 0"
     inkscape:vp_z="744.09448 : 526.18109 : 1"
     inkscape:persp3d-origin="372.04724 : 350.78739 : 1"
     id="perspective3214" /><linearGradient
     inkscape:collect="always"
     xlink:href="#linearGradient4383"
     id="linearGradient4389"
     x1="371.42194"
     y1="298.59412"
     x2="396.91168"
     y2="655.4505"
     gradientUnits="userSpaceOnUse" /><linearGradient
     inkscape:collect="always"
     xlink:href="#linearGradient4395"
     id="linearGradient4401"
     x1="360.49777"
     y1="167.50403"
     x2="360.49777"
     y2="540.86719"
     gradientUnits="userSpaceOnUse" /><linearGradient
     inkscape:collect="always"
     xlink:href="#linearGradient3187"
     id="linearGradient4562"
     gradientUnits="userSpaceOnUse"
     gradientTransform="matrix(2.3189708,0,0,2.0930998,93.115298,-256.84999)"
     x1="123.50603"
     y1="344.03848"
     x2="123.47623"
     y2="254.73526" /><radialGradient
     inkscape:collect="always"
     xlink:href="#linearGradient3171"
     id="radialGradient4569"
     gradientUnits="userSpaceOnUse"
     gradientTransform="matrix(0.9201975,2.7970099e-7,-2.7059634e-7,0.8902438,28.590287,48.634335)"
     cx="373.24265"
     cy="467.91885"
     fx="373.24265"
     fy="467.91885"
     r="333.18735" /><radialGradient
     inkscape:collect="always"
     xlink:href="#linearGradient3157"
     id="radialGradient4572"
     gradientUnits="userSpaceOnUse"
     gradientTransform="matrix(0.9503534,1.1750652e-7,-5.6287062e-8,0.3462676,17.334826,362.44227)"
     cx="373.24265"
     cy="710.99164"
     fx="373.24265"
     fy="710.99164"
     r="333.18735" /><filter
     inkscape:collect="always"
     id="filter4659"
     color-interpolation-filters="sRGB"><feGaussianBlur
       inkscape:collect="always"
       stdDeviation="2.7750933"
       id="feGaussianBlur4661" /></filter><radialGradient
     inkscape:collect="always"
     xlink:href="#linearGradient3157"
     id="radialGradient4766"
     gradientUnits="userSpaceOnUse"
     gradientTransform="matrix(0.9503534,1.1750652e-7,-5.6287062e-8,0.3462676,17.334826,362.44227)"
     cx="373.24265"
     cy="710.99164"
     fx="373.24265"
     fy="710.99164"
     r="333.18735" /><radialGradient
     inkscape:collect="always"
     xlink:href="#linearGradient3171"
     id="radialGradient4768"
     gradientUnits="userSpaceOnUse"
     gradientTransform="matrix(0.9201975,2.7970099e-7,-2.7059634e-7,0.8902438,28.590287,48.634335)"
     cx="373.24265"
     cy="467.91885"
     fx="373.24265"
     fy="467.91885"
     r="333.18735" /><linearGradient
     inkscape:collect="always"
     xlink:href="#linearGradient3187"
     id="linearGradient4770"
     gradientUnits="userSpaceOnUse"
     gradientTransform="matrix(2.3189708,0,0,2.0930998,93.115298,-256.84999)"
     x1="123.50603"
     y1="344.03848"
     x2="123.47623"
     y2="254.73526" /><linearGradient
     inkscape:collect="always"
     xlink:href="#linearGradient3187"
     id="linearGradient4773"
     gradientUnits="userSpaceOnUse"
     gradientTransform="matrix(2.3189708,0,0,2.0930998,93.115298,-256.84999)"
     x1="123.50603"
     y1="344.03848"
     x2="123.47623"
     y2="254.73526" /><radialGradient
     inkscape:collect="always"
     xlink:href="#linearGradient3171"
     id="radialGradient4776"
     gradientUnits="userSpaceOnUse"
     gradientTransform="matrix(0.9201975,2.7970099e-7,-2.7059634e-7,0.8902438,28.590287,48.634335)"
     cx="373.24265"
     cy="467.91885"
     fx="373.24265"
     fy="467.91885"
     r="333.18735" /><radialGradient
     inkscape:collect="always"
     xlink:href="#linearGradient3157"
     id="radialGradient4779"
     gradientUnits="userSpaceOnUse"
     gradientTransform="matrix(0.9503534,1.1750652e-7,-5.6287062e-8,0.3462676,17.334826,362.44227)"
     cx="373.24265"
     cy="710.99164"
     fx="373.24265"
     fy="710.99164"
     r="333.18735" /><radialGradient
     inkscape:collect="always"
     xlink:href="#linearGradient3157"
     id="radialGradient4790"
     gradientUnits="userSpaceOnUse"
     gradientTransform="matrix(0.9503534,1.1750652e-7,-5.6287062e-8,0.3462676,17.334826,362.44227)"
     cx="373.24265"
     cy="710.99164"
     fx="373.24265"
     fy="710.99164"
     r="333.18735" /><radialGradient
     inkscape:collect="always"
     xlink:href="#linearGradient3171"
     id="radialGradient4792"
     gradientUnits="userSpaceOnUse"
     gradientTransform="matrix(0.9201975,2.7970099e-7,-2.7059634e-7,0.8902438,28.590287,48.634335)"
     cx="373.24265"
     cy="467.91885"
     fx="373.24265"
     fy="467.91885"
     r="333.18735" /><linearGradient
     inkscape:collect="always"
     xlink:href="#linearGradient3187"
     id="linearGradient4794"
     gradientUnits="userSpaceOnUse"
     gradientTransform="matrix(2.3189708,0,0,2.0930998,93.115298,-256.84999)"
     x1="123.50603"
     y1="344.03848"
     x2="123.47623"
     y2="254.73526" /><linearGradient
     inkscape:collect="always"
     xlink:href="#linearGradient3187"
     id="linearGradient4799"
     gradientUnits="userSpaceOnUse"
     gradientTransform="matrix(2.3189708,0,0,2.0930998,93.115298,-256.84999)"
     x1="123.50603"
     y1="344.03848"
     x2="123.47623"
     y2="254.73526" /><radialGradient
     inkscape:collect="always"
     xlink:href="#linearGradient3171"
     id="radialGradient4802"
     gradientUnits="userSpaceOnUse"
     gradientTransform="matrix(0.9201975,2.7970099e-7,-2.7059634e-7,0.8902438,28.590287,48.634335)"
     cx="373.24265"
     cy="467.91885"
     fx="373.24265"
     fy="467.91885"
     r="333.18735" /><radialGradient
     inkscape:collect="always"
     xlink:href="#linearGradient3157"
     id="radialGradient4805"
     gradientUnits="userSpaceOnUse"
     gradientTransform="matrix(0.9503534,1.1750652e-7,-5.6287062e-8,0.3462676,17.334826,362.44227)"
     cx="373.24265"
     cy="710.99164"
     fx="373.24265"
     fy="710.99164"
     r="333.18735" /><radialGradient
     inkscape:collect="always"
     xlink:href="#linearGradient3157"
     id="radialGradient4820"
     gradientUnits="userSpaceOnUse"
     gradientTransform="matrix(0.9503534,1.1750652e-7,-5.6287062e-8,0.3462676,17.334826,362.44227)"
     cx="373.24265"
     cy="710.99164"
     fx="373.24265"
     fy="710.99164"
     r="333.18735" /><radialGradient
     inkscape:collect="always"
     xlink:href="#linearGradient3171"
     id="radialGradient4822"
     gradientUnits="userSpaceOnUse"
     gradientTransform="matrix(0.9201975,2.7970099e-7,-2.7059634e-7,0.8902438,28.590287,48.634335)"
     cx="373.24265"
     cy="467.91885"
     fx="373.24265"
     fy="467.91885"
     r="333.18735" /><linearGradient
     inkscape:collect="always"
     xlink:href="#linearGradient3187"
     id="linearGradient4824"
     gradientUnits="userSpaceOnUse"
     gradientTransform="matrix(2.3189708,0,0,2.0930998,93.115298,-256.84999)"
     x1="123.50603"
     y1="344.03848"
     x2="123.47623"
     y2="254.73526" /><linearGradient
     inkscape:collect="always"
     xlink:href="#linearGradient3187"
     id="linearGradient4827"
     gradientUnits="userSpaceOnUse"
     gradientTransform="matrix(2.3189708,0,0,2.0930998,-99.17808,-231.54972)"
     x1="123.50603"
     y1="344.03848"
     x2="123.47623"
     y2="254.73526" /><radialGradient
     inkscape:collect="always"
     xlink:href="#linearGradient5443"
     id="radialGradient4832"
     gradientUnits="userSpaceOnUse"
     gradientTransform="matrix(0.9201975,2.7970099e-7,-2.7059634e-7,0.8902438,-163.70313,61.921561)"
     cx="373.24265"
     cy="467.91885"
     fx="373.24265"
     fy="467.91885"
     r="333.18735" /><radialGradient
     inkscape:collect="always"
     xlink:href="#linearGradient5443"
     id="radialGradient4835"
     gradientUnits="userSpaceOnUse"
     gradientTransform="matrix(0.9503534,1.1750652e-7,-5.6287062e-8,0.3462676,-174.95857,375.55031)"
     cx="373.24265"
     cy="710.99164"
     fx="373.24265"
     fy="710.99164"
     r="333.18735" /><filter
     inkscape:collect="always"
     id="filter5511"
     color-interpolation-filters="sRGB"><feGaussianBlur
       inkscape:collect="always"
       stdDeviation="3.2374974"
       id="feGaussianBlur5513" /></filter><radialGradient
     inkscape:collect="always"
     xlink:href="#linearGradient5443-5"
     id="radialGradient4835-3"
     gradientUnits="userSpaceOnUse"
     gradientTransform="matrix(0.9503534,1.1750652e-7,-5.6287062e-8,0.3462676,317.80591,185.68771)"
     cx="373.24265"
     cy="710.99164"
     fx="373.24265"
     fy="710.99164"
     r="333.18735" /><linearGradient
     id="linearGradient5443-5"><stop
       id="stop5445-4"
       offset="0"
       style="stop-color:#ffffff;stop-opacity:0;" /><stop
       id="stop5447-3"
       offset="1"
       style="stop-color:#000000;stop-opacity:0.33962265;" /></linearGradient><radialGradient
     inkscape:collect="always"
     xlink:href="#linearGradient5443"
     id="radialGradient3272"
     gradientUnits="userSpaceOnUse"
     gradientTransform="matrix(0.9503534,1.1750652e-7,-5.6287062e-8,0.3462676,-174.95857,375.55031)"
     cx="373.24265"
     cy="710.99164"
     fx="373.24265"
     fy="710.99164"
     r="333.18735" /><linearGradient
     inkscape:collect="always"
     xlink:href="#linearGradient3187"
     id="linearGradient3274"
     gradientUnits="userSpaceOnUse"
     gradientTransform="matrix(2.3189708,0,0,2.0930998,-99.17808,-231.54972)"
     x1="123.50603"
     y1="344.03848"
     x2="123.47623"
     y2="254.73526" /><radialGradient
     inkscape:collect="always"
     xlink:href="#linearGradient5443"
     id="radialGradient3276"
     gradientUnits="userSpaceOnUse"
     gradientTransform="matrix(0.9201975,2.7970099e-7,-2.7059634e-7,0.8902438,-163.70313,61.921561)"
     cx="373.24265"
     cy="467.91885"
     fx="373.24265"
     fy="467.91885"
     r="333.18735" /></defs><sodipodi:namedview
   pagecolor="#ffffff"
   bordercolor="#666666"
   borderopacity="1"
   objecttolerance="10"
   gridtolerance="10"
   guidetolerance="10"
   inkscape:pageopacity="0"
   inkscape:pageshadow="2"
   inkscape:window-width="1387"
   inkscape:window-height="908"
   id="namedview107"
   showgrid="false"
   inkscape:zoom="0.64"
   inkscape:cx="-236.27635"
   inkscape:cy="239.17633"
   inkscape:window-x="141"
   inkscape:window-y="33"
   inkscape:window-maximized="0"
   inkscape:current-layer="_x31_"
   fit-margin-top="0"
   fit-margin-left="0"
   fit-margin-right="0"
   fit-margin-bottom="0" />
























<g
   id="g3289"
   transform="translate(-4.0524846e-6,3.5529444e-6)"><rect
     inkscape:export-ydpi="29.879425"
     inkscape:export-xdpi="29.879425"
     inkscape:export-filename="C:\Documents and Settings\adscro24\Desktop\128.png"
     style="opacity:0.61338286;fill:#464646;fill-opacity:0.78540775;stroke:none;filter:url(#filter4659)"
     id="rect3279"
     width="152.93848"
     height="152.93848"
     x="135.39355"
     y="48.636749"
     rx="16.067965"
     ry="12.45238"
     transform="matrix(2.1051501,0,0,2.1051501,-271.00298,-88.36689)" /><rect
     inkscape:export-ydpi="29.879425"
     inkscape:export-xdpi="29.879425"
     inkscape:export-filename="C:\Documents and Settings\adscro24\Desktop\128.png"
     style="opacity:0.61338286;fill:url(#radialGradient3092);fill-opacity:1;stroke:#000000;stroke-width:3.26806188;stroke-miterlimit:4;stroke-opacity:1;stroke-dasharray:none"
     id="rect3155"
     width="321.95847"
     height="321.95847"
     x="14.020748"
     y="14.020716"
     rx="33.825481"
     ry="26.21413" /><path
     transform="matrix(0.90779502,0,0,0.90779502,11.82035,-259.3651)"
     inkscape:export-ydpi="29.879425"
     inkscape:export-xdpi="29.879425"
     inkscape:export-filename="C:\Documents and Settings\adscro24\Desktop\128.png"
     inkscape:connector-curvature="0"
     style="opacity:0.61338286;fill:url(#linearGradient3734);fill-opacity:1;stroke:none;filter:url(#filter5511)"
     d="m 46.58172,323.34879 c -19.62748,0 -35.44272,12.0976 -35.44272,27.14163 l 0,124.30857 c 29.25482,11.38638 132.70149,11.89599 165.40488,-5.79022 33.32802,-18.02397 127.54379,-68.44264 171.82484,-52.72052 l 0,-65.79783 c 0,-15.04403 -15.7986,-27.14163 -35.4261,-27.14163 l -266.3609,0 z M 11.139,586.81982 l 0,42.88373 c 0,1.33144 0.14331,2.63588 0.38253,3.915 -0.11919,-12.81092 -0.25965,-28.88939 -0.38253,-46.79873 z"
     id="rect3177" /><rect
     inkscape:export-ydpi="29.879425"
     inkscape:export-xdpi="29.879425"
     inkscape:export-filename="C:\Documents and Settings\adscro24\Desktop\128.png"
     style="opacity:0.61338286;fill:url(#radialGradient3088);fill-opacity:1;stroke:#ffffff;stroke-width:0.68992418;stroke-linecap:square;stroke-miterlimit:4;stroke-opacity:1;stroke-dasharray:none"
     id="rect3473"
     width="306.12445"
     height="306.12445"
     x="21.937801"
     y="21.937769"
     rx="32.161926"
     ry="24.924913" /><rect
     inkscape:export-ydpi="29.879425"
     inkscape:export-xdpi="29.879425"
     inkscape:export-filename="C:\Documents and Settings\adscro24\Desktop\128.png"
     style="opacity:0.61338286;fill:#ffffff;fill-opacity:0;stroke:#000000;stroke-width:3.26806188;stroke-miterlimit:4;stroke-opacity:1;stroke-dasharray:none"
     id="rect3155-2"
     width="321.95847"
     height="321.95847"
     x="14.020748"
     y="14.020716"
     rx="33.825481"
     ry="26.21413" /><g
     transform="translate(400.39145,135.8211)"
     style="fill:#000000;fill-opacity:1;stroke:none"
     id="LWPOLYLINE_2_">
	
		
</g></g><g
   id="g2993"
   transform="matrix(0.5358833,0,0,0.5358833,7.3250359,54.183438)"><g
     style="fill:#000000;fill-opacity:1;stroke:none"
     transform="matrix(0.56896411,0,0,0.56896411,134.86878,0.42494781)"
     id="g3130"><g
       style="fill:#000000;fill-opacity:1;stroke:none"
       id="LWPOLYLINE">
	
		<path
   inkscape:connector-curvature="0"
   id="polygon4"
   transform="translate(0,170.05192)"
   d="m 623.03125,75.71875 -2.625,0.0625 -2.5625,0.15625 -2.65625,0.125 -2.625,0.21875 -2.5625,0.25 -2.625,0.3125 -2.5625,0.34375 -2.5625,0.375 -2.5625,0.40625 -2.65625,0.5 -2.46875,0.5 -2.5625,0.59375 -2.5625,0.59375 -2.5,0.65625 -2.5625,0.6875 -2.5,0.78125 -2.5,0.75 -2.5,0.84375 -2.40625,0.84375 -2.5,0.9375 -2.4375,0.9375 -2.40625,1.03125 -2.375,1.03125 -2.34375,1.09375 -2.375,1.125 -2.34375,1.15625 -2.34375,1.21875 -2.3125,1.21875 -2.28125,1.3125 -2.21875,1.3125 -2.21875,1.375 -2.21875,1.40625 -2.21875,1.4375 -2.125,1.46875 -2.09375,1.53125 -2.15625,1.5625 -2.0625,1.59375 -2,1.625 -2.03125,1.65625 -2,1.6875 -1.9375,1.75 -1.9375,1.75 -1.875,1.8125 -1.875,1.8125 -1.875,1.875 -1.71875,1.875 -1.8125,1.90625 -1.71875,2 -1.65625,1.96875 -1.6875,2 -1.65625,2.09375 -1.59375,2.03125 -1.53125,2.125 -1.5,2.09375 -1.53125,2.1875 -1.40625,2.15625 -1.4375,2.21875 -1.3125,2.21875 -1.3125,2.25 -1.34375,2.28125 -1.21875,2.28125 -1.1875,2.34375 -1.1875,2.34375 -1.09375,2.34375 -1.125,2.375 -1.03125,2.40625 -1.03125,2.40625 -0.90625,2.40625 -0.96875,2.46875 -0.84375,2.46875 -0.8125,2.5 -0.84375,2.5 -0.6875,2.46875 -0.6875,2.53125 -0.71875,2.53125 -0.625,2.53125 -0.53125,2.5625 -0.5,2.53125 -0.46875,2.59375 -0.4375,2.5625 -0.40625,2.59375 -0.34375,2.59375 -0.28125,2.59375 -0.28125,2.59375 -0.1875,2.625 -0.15625,2.59375 -0.125,2.59375 -0.0625,2.65625 0,2.59375 0,2.59375 0.0625,2.625 0.125,2.59375 0.15625,2.59375 0.1875,2.65625 0.28125,2.59375 0.28125,2.59375 0.34375,2.5625 0.40625,2.59375 0.4375,2.5625 0.46875,2.59375 0.5,2.53125 0.53125,2.5625 0.625,2.5625 0.71875,2.5 0.6875,2.5625 0.6875,2.5 0.84375,2.5 0.8125,2.4375 0.84375,2.46875 0.96875,2.4375 0.90625,2.4375 1.03125,2.40625 1.03125,2.4375 1.125,2.34375 1.09375,2.375 1.1875,2.34375 1.1875,2.28125 1.21875,2.375 1.34375,2.1875 1.3125,2.3125 1.3125,2.21875 1.4375,2.21875 1.40625,2.125 1.53125,2.15625 1.5,2.15625 1.53125,2.0625 1.59375,2.09375 1.65625,2.0625 1.6875,2.03125 1.65625,2 1.71875,1.9375 1.8125,1.9375 1.71875,1.875 1.875,1.875 1.875,1.8125 1.875,1.78125 1.9375,1.8125 1.9375,1.71875 2,1.65625 2.03125,1.6875 2,1.65625 2.0625,1.59375 2.15625,1.53125 2.09375,1.5 2.125,1.46875 2.21875,1.46875 2.21875,1.375 2.21875,1.375 2.21875,1.3125 2.28125,1.34375 2.3125,1.21875 2.34375,1.1875 2.34375,1.1875 2.375,1.09375 2.34375,1.125 2.375,1.03125 2.40625,0.96875 2.4375,0.96875 2.5,0.90625 2.40625,0.90625 2.5,0.8125 2.5,0.78125 2.5,0.75 2.5625,0.6875 2.5,0.625 2.5625,0.625 2.5625,0.5625 2.46875,0.5625 2.65625,0.46875 2.5625,0.4375 2.5625,0.40625 2.5625,0.34375 2.625,0.28125 2.5625,0.21875 2.625,0.1875 2.65625,0.21875 2.5625,0.0625 2.625,0.0625 2.625,0.0937 2.5625,-0.0937 2.65625,-0.0625 2.625,-0.0625 2.5625,-0.21875 2.625,-0.1875 2.625,-0.21875 2.5625,-0.28125 2.5625,-0.34375 2.65625,-0.40625 2.5625,-0.4375 2.5625,-0.46875 2.5625,-0.5625 2.5625,-0.5625 2.5,-0.625 2.5625,-0.625 2.5,-0.6875 2.46875,-0.75 2.5,-0.78125 2.5,-0.8125 2.5,-0.90625 2.40625,-0.90625 2.4375,-0.96875 2.4375,-0.96875 2.40625,-1.03125 2.375,-1.125 2.34375,-1.09375 2.34375,-1.1875 2.3125,-1.1875 2.28125,-1.21875 L 700.5,355.0625 702.78125,353.75 705,352.375 707.21875,351 l 2.15625,-1.46875 2.15625,-1.46875 2.125,-1.5 2.09375,-1.53125 2.0625,-1.59375 2.03125,-1.65625 2.0625,-1.6875 1.9375,-1.65625 1.9375,-1.71875 1.9375,-1.8125 1.9375,-1.78125 1.875,-1.8125 1.8125,-1.875 1.8125,-1.875 1.71875,-1.9375 1.75,-1.9375 1.71875,-2 1.65625,-2.03125 1.59375,-2.0625 1.59375,-2.09375 1.59375,-2.0625 1.53125,-2.15625 1.46875,-2.15625 1.4375,-2.125 1.375,-2.21875 1.40625,-2.21875 1.3125,-2.3125 1.25,-2.1875 1.25,-2.375 1.25,-2.28125 1.15625,-2.34375 1.125,-2.375 1.09375,-2.34375 1.03125,-2.4375 1,-2.40625 0.96875,-2.4375 0.875,-2.4375 0.90625,-2.46875 0.84375,-2.4375 0.75,-2.5 0.78125,-2.5 0.6875,-2.5625 0.625,-2.5 0.625,-2.5625 0.53125,-2.5625 0.5625,-2.53125 0.5,-2.59375 0.40625,-2.5625 0.34375,-2.59375 0.34375,-2.5625 0.34375,-2.59375 0.21875,-2.59375 0.21875,-2.65625 0.125,-2.59375 0.125,-2.59375 0.0937,-2.625 0,-2.59375 0,-2.59375 -0.0937,-2.65625 -0.125,-2.59375 L 775,215 l -0.21875,-2.625 -0.21875,-2.59375 -0.34375,-2.59375 -0.34375,-2.59375 -0.34375,-2.59375 -0.40625,-2.5625 -0.5,-2.59375 -0.5625,-2.53125 -0.53125,-2.5625 -0.625,-2.53125 -0.625,-2.53125 -0.6875,-2.53125 -0.78125,-2.46875 -0.75,-2.5 -0.84375,-2.5 -0.90625,-2.46875 -0.875,-2.46875 -0.96875,-2.40625 -1,-2.40625 -1.03125,-2.40625 -1.09375,-2.375 -1.125,-2.34375 -1.15625,-2.34375 -1.25,-2.34375 -1.25,-2.28125 -1.25,-2.28125 -1.3125,-2.25 -1.40625,-2.21875 -1.375,-2.21875 -1.4375,-2.15625 -1.46875,-2.1875 -1.53125,-2.09375 -1.59375,-2.125 -1.59375,-2.03125 L 742,131.1875 l -1.65625,-2 -1.71875,-1.96875 -1.75,-2 -1.71875,-1.90625 -1.8125,-1.875 -1.8125,-1.875 -1.875,-1.8125 -1.9375,-1.8125 -1.9375,-1.75 -1.9375,-1.75 -1.9375,-1.6875 -2.0625,-1.65625 -2.03125,-1.625 -2.0625,-1.59375 -2.09375,-1.5625 -2.125,-1.53125 L 709.375,101.3125 707.21875,99.875 705,98.46875 702.78125,97.09375 700.5,95.78125 698.21875,94.46875 695.9375,93.25 693.625,92.03125 691.28125,90.875 688.9375,89.75 l -2.375,-1.09375 -2.40625,-1.03125 -2.4375,-1.03125 -2.4375,-0.9375 -2.40625,-0.9375 -2.5,-0.84375 -2.5,-0.84375 -2.5,-0.75 -2.46875,-0.78125 -2.5,-0.6875 -2.5625,-0.65625 -2.5,-0.59375 -2.5625,-0.59375 -2.5625,-0.5 -2.5625,-0.5 -2.5625,-0.40625 -2.65625,-0.375 -2.5625,-0.34375 -2.5625,-0.3125 -2.625,-0.25 -2.625,-0.21875 -2.5625,-0.125 -2.625,-0.15625 -2.65625,-0.0625 -2.5625,0 -2.625,0 z m -0.21875,29.8125 2.09375,0 2.0625,0 2.15625,0.0625 2.09375,0.0937 2,0.125 2.0625,0.15625 2.09375,0.21875 2.0625,0.1875 2.09375,0.28125 2.09375,0.3125 2,0.34375 2.0625,0.375 2.03125,0.4375 2,0.4375 2.09375,0.5 2,0.5 2,0.5625 1.9375,0.59375 2.03125,0.625 2,0.65625 1.9375,0.6875 1.9375,0.71875 1.9375,0.78125 1.9375,0.78125 1.875,0.84375 1.9375,0.875 1.875,0.875 1.875,0.9375 1.78125,0.96875 1.875,0.96875 1.8125,1.0625 1.8125,1.03125 1.71875,1.09375 1.71875,1.125 1.75,1.15625 1.71875,1.15625 1.75,1.21875 1.65625,1.25 1.65625,1.25 1.59375,1.3125 1.59375,1.3125 1.59375,1.34375 1.59375,1.40625 1.53125,1.375 1.53125,1.46875 1.4375,1.4375 1.46875,1.46875 1.4375,1.53125 1.40625,1.5 1.375,1.5625 1.3125,1.59375 1.3125,1.59375 1.34375,1.625 1.21875,1.6875 1.25,1.65625 1.25,1.6875 1.1875,1.75 1.09375,1.71875 1.125,1.71875 1.09375,1.78125 1.0625,1.8125 1.03125,1.78125 0.96875,1.84375 0.96875,1.875 0.96875,1.84375 0.90625,1.84375 0.84375,1.90625 0.8125,1.90625 0.84375,1.96875 0.75,1.90625 0.6875,1.96875 0.6875,1.9375 0.71875,1.96875 0.625,2 0.53125,2 0.5625,2 0.5625,2 0.46875,2.0625 0.4375,2 0.40625,2.03125 0.40625,2.0625 0.34375,2.03125 0.28125,2.09375 0.28125,2.03125 0.21875,2.0625 0.1875,2.09375 0.21875,2.09375 0.0625,2.03125 0.15625,2.0625 0.0625,2.125 0,2.09375 0,2.0625 -0.0625,2.09375 -0.15625,2.0625 -0.0625,2.09375 -0.21875,2.03125 -0.1875,2.09375 -0.21875,2.0625 -0.28125,2.0625 -0.28125,2.0625 -0.34375,2.0625 -0.40625,2.03125 -0.40625,2.03125 -0.4375,2.0625 -0.46875,2 -0.5625,2 -0.5625,2.03125 -0.53125,1.96875 -0.625,1.96875 -0.71875,2 -0.6875,1.9375 -0.6875,1.96875 -0.75,1.9375 -0.84375,1.9375 -0.8125,1.875 L 733,275.125 732.09375,277 l -0.96875,1.84375 -0.96875,1.8125 -0.96875,1.875 -1.03125,1.8125 -1.0625,1.78125 -1.09375,1.75 -1.125,1.78125 -1.09375,1.75 -1.1875,1.65625 -1.25,1.71875 -1.25,1.6875 -1.21875,1.65625 -1.34375,1.59375 -1.3125,1.65625 -1.3125,1.53125 -1.375,1.59375 -1.40625,1.53125 -1.4375,1.5 -1.46875,1.46875 -1.4375,1.4375 -1.53125,1.46875 -1.53125,1.375 -1.59375,1.40625 -1.59375,1.375 -1.59375,1.3125 -1.59375,1.25 -1.65625,1.3125 -1.65625,1.25 -1.75,1.1875 -1.71875,1.1875 -1.75,1.15625 -1.71875,1.125 -1.71875,1.03125 -1.8125,1.09375 -1.8125,0.96875 -1.875,1.0625 -1.78125,0.96875 -1.875,0.90625 -1.875,0.875 -1.9375,0.84375 -1.875,0.84375 -1.9375,0.8125 -1.9375,0.78125 -1.9375,0.6875 -1.9375,0.6875 -2,0.6875 -2.03125,0.625 -1.9375,0.5625 -2,0.5625 -2,0.53125 -2.09375,0.5 -2,0.40625 -2.03125,0.40625 -2.0625,0.4375 -2,0.34375 -2.09375,0.28125 -2.09375,0.28125 -2.0625,0.28125 -2.09375,0.1875 -2.0625,0.15625 -2,0.125 -2.09375,0.0625 -2.15625,0.0625 -2.0625,0 -2.09375,0 -2.0625,-0.0625 -2.09375,-0.0625 -2.0625,-0.125 -2.03125,-0.15625 -2.0625,-0.1875 -2.09375,-0.28125 -2.0625,-0.28125 -2.09375,-0.28125 -2,-0.34375 -2.0625,-0.4375 -2.03125,-0.40625 -2,-0.40625 -2.09375,-0.5 -2,-0.53125 -2,-0.5625 -1.9375,-0.5625 -2.03125,-0.625 -2,-0.6875 -1.9375,-0.6875 -1.9375,-0.6875 -1.9375,-0.78125 -1.9375,-0.8125 -1.875,-0.84375 -1.9375,-0.84375 -1.875,-0.875 -1.8125,-0.90625 -1.875,-0.96875 -1.84375,-1.0625 -1.8125,-0.96875 -1.8125,-1.09375 -1.71875,-1.03125 -1.75,-1.125 -1.78125,-1.15625 -1.6875,-1.1875 -1.71875,-1.1875 -1.65625,-1.25 -1.65625,-1.3125 -1.59375,-1.25 -1.59375,-1.3125 -1.59375,-1.375 -1.59375,-1.40625 -1.53125,-1.375 -1.53125,-1.46875 -1.4375,-1.4375 -1.46875,-1.46875 -1.46875,-1.5 -1.375,-1.53125 -1.375,-1.59375 -1.3125,-1.53125 -1.34375,-1.65625 L 531,298.125 l -1.25,-1.65625 -1.21875,-1.6875 -1.25,-1.71875 -1.1875,-1.65625 -1.125,-1.75 -1.09375,-1.78125 -1.125,-1.75 -1.03125,-1.78125 -1.03125,-1.8125 -0.96875,-1.875 -0.96875,-1.8125 -0.96875,-1.84375 -0.90625,-1.875 -0.84375,-1.9375 -0.8125,-1.875 -0.84375,-1.9375 -0.75,-1.9375 -0.6875,-1.96875 -0.71875,-1.9375 -0.6875,-2 -0.625,-1.96875 -0.53125,-1.96875 -0.5625,-2.03125 -0.5625,-2 -0.46875,-2 -0.4375,-2.0625 -0.40625,-2.03125 -0.40625,-2.03125 -0.34375,-2.0625 -0.28125,-2.0625 -0.28125,-2.0625 -0.21875,-2.0625 -0.1875,-2.09375 L 506,233.0625 l -0.0625,-2.09375 -0.15625,-2.0625 -0.0625,-2.09375 0,-2.0625 0,-2.09375 0.0625,-2.125 0.15625,-2.0625 0.0625,-2.03125 0.21875,-2.09375 0.1875,-2.09375 0.21875,-2.0625 0.28125,-2.03125 0.28125,-2.09375 0.34375,-2.03125 0.40625,-2.0625 0.40625,-2.03125 0.4375,-2 0.46875,-2.0625 0.5625,-2 0.5625,-2 0.53125,-2 0.625,-2 0.6875,-1.96875 0.71875,-1.9375 0.6875,-1.96875 0.75,-1.90625 0.84375,-1.96875 0.8125,-1.90625 0.84375,-1.90625 0.90625,-1.84375 0.96875,-1.84375 0.96875,-1.875 0.96875,-1.84375 1.03125,-1.78125 1.03125,-1.8125 1.125,-1.78125 1.09375,-1.71875 1.125,-1.71875 1.1875,-1.75 1.25,-1.6875 L 529.75,153 l 1.25,-1.6875 1.3125,-1.625 1.34375,-1.59375 1.3125,-1.59375 1.375,-1.5625 1.375,-1.5 1.46875,-1.53125 1.46875,-1.46875 1.4375,-1.4375 1.53125,-1.46875 1.53125,-1.375 1.59375,-1.40625 1.59375,-1.34375 1.59375,-1.3125 1.59375,-1.3125 1.65625,-1.25 1.65625,-1.25 1.71875,-1.21875 1.6875,-1.15625 1.78125,-1.15625 1.75,-1.125 1.71875,-1.09375 1.8125,-1.03125 1.8125,-1.0625 1.84375,-0.96875 1.875,-0.96875 1.8125,-0.9375 1.875,-0.875 1.9375,-0.875 1.875,-0.84375 1.9375,-0.78125 1.9375,-0.78125 1.9375,-0.71875 1.9375,-0.6875 2,-0.65625 2.03125,-0.625 1.9375,-0.59375 2,-0.5625 2,-0.5 2.09375,-0.5 2,-0.4375 2.03125,-0.4375 2.0625,-0.375 2,-0.34375 2.09375,-0.3125 2.0625,-0.28125 2.09375,-0.1875 2.0625,-0.21875 2.03125,-0.15625 2.0625,-0.125 2.09375,-0.0937 2.0625,-0.0625 z"
   style="fill:#000000;fill-opacity:1;stroke:none" />
</g><g
       style="fill:#000000;fill-opacity:1;stroke:none"
       id="LWPOLYLINE_1_">
	
		
</g><g
       style="fill:#000000;fill-opacity:1;stroke:none"
       id="LINE">
	
		
</g><g
       style="fill:#000000;fill-opacity:1;stroke:none"
       id="LINE_1_">
	
		<path
   inkscape:connector-curvature="0"
   id="line13"
   transform="translate(0,170.05192)"
   d="m 521.3125,169.375 103.59375,174.53125 102.9375,-174.53125 -206.53125,0 z m 44,21.28125 123.46875,0 -64.5625,107.875 -58.90625,-107.875 z"
   style="fill:#000000;fill-opacity:1;stroke:none" />
</g><g
       style="fill:#000000;fill-opacity:1;stroke:none"
       id="LINE_2_">
	
		
</g><g
       style="fill:#000000;fill-opacity:1;stroke:none"
       id="LINE_3_">
	
		
</g><g
       style="fill:#000000;fill-opacity:1;stroke:none"
       id="LINE_4_">
	
		
</g><g
       style="fill:#000000;fill-opacity:1;stroke:none"
       id="LINE_5_">
	
		
</g></g><path
     inkscape:connector-curvature="0"
     id="path3128"
     d="m 133.06487,300.92716 c -1.85656,-4.23772 -13.53327,-31.17094 -25.94823,-59.85161 -12.414961,-28.68067 -22.876439,-52.14109 -23.247729,-52.13427 -0.371294,0.007 -4.291657,8.20765 -8.711921,18.22407 l -8.036852,18.21167 -8.671297,0 c -4.769217,0 -8.671298,-0.16892 -8.671298,-0.37537 0,-0.28186 27.318511,-66.39808 33.250206,-80.47211 0.923548,-2.19128 1.042509,-1.93598 26.817131,57.55029 14.23921,32.86323 26.21923,59.7441 26.62227,59.73525 0.40305,-0.009 12.27662,-26.74007 26.38572,-59.40275 14.1091,-32.66268 25.81127,-59.38848 26.00481,-59.39067 0.19355,-0.002 11.87746,26.59887 25.96424,59.11348 14.08678,32.5146 25.87218,59.27806 26.18977,59.47434 0.31759,0.19628 0.7296,0.2047 0.91559,0.0187 0.26846,-0.26848 48.04782,-110.1097 51.10944,-117.49689 0.75208,-1.81463 2.27258,1.48096 26.70784,57.88782 14.2507,32.89661 26.24648,59.80399 26.6573,59.79417 0.41081,-0.01 4.27172,-7.83225 8.57981,-17.38322 l 7.83288,-17.36536 9.27555,-0.18822 c 5.1916,-0.10536 9.17361,0.0749 9.04403,0.40937 -3.46887,8.9541 -34.7677,80.92687 -35.047,80.59182 -0.21954,-0.26336 -11.91808,-27.13351 -25.99675,-59.71141 -14.07866,-32.57791 -25.90135,-59.22712 -26.27265,-59.22047 -0.37129,0.007 -12.18525,26.66132 -26.25322,59.23257 -14.06799,32.57125 -25.76369,59.42539 -25.99046,59.67587 -0.22676,0.25049 -11.92616,-26.17876 -25.99865,-58.73166 -14.07251,-32.55292 -25.83909,-59.47062 -26.14797,-59.81716 -0.30889,-0.34655 -0.74831,-0.44337 -0.97651,-0.21517 -0.30432,0.30432 -31.75708,72.58918 -51.45328,118.25012 -0.4431,1.02723 -1.24833,-0.28587 -3.93277,-6.41322 l 0,0 z"
     style="fill:#000000;fill-opacity:1;stroke:none" /></g></svg>