<?xml version="1.0" encoding="UTF-8" standalone="no"?>
<!-- Generator: Adobe Illustrator 16.0.1, SVG Export Plug-In . SVG Version: 6.00 Build 0)  -->

<svg
   xmlns:dc="http://purl.org/dc/elements/1.1/"
   xmlns:cc="http://creativecommons.org/ns#"
   xmlns:rdf="http://www.w3.org/1999/02/22-rdf-syntax-ns#"
   xmlns:svg="http://www.w3.org/2000/svg"
   xmlns="http://www.w3.org/2000/svg"
   xmlns:xlink="http://www.w3.org/1999/xlink"
   xmlns:sodipodi="http://sodipodi.sourceforge.net/DTD/sodipodi-0.dtd"
   xmlns:inkscape="http://www.inkscape.org/namespaces/inkscape"
   version="1.0"
   id="_x31_"
   x="0px"
   y="0px"
   width="350"
   height="350"
   viewBox="0 0 350 350"
   enable-background="new 0 0 612 792"
   xml:space="preserve"
   inkscape:version="0.48.2 r9819"
   sodipodi:docname="7006.svg"><metadata
   id="metadata37"><rdf:RDF><cc:Work
       rdf:about=""><dc:format>image/svg+xml</dc:format><dc:type
         rdf:resource="http://purl.org/dc/dcmitype/StillImage" /></cc:Work></rdf:RDF></metadata><defs
   id="defs35"><radialGradient
     r="333.18735"
     fy="710.99164"
     fx="373.24265"
     cy="710.99164"
     cx="373.24265"
     gradientTransform="matrix(0.86272608,1.0667183e-7,-5.1097115e-8,0.31434,772.90338,992.7076)"
     gradientUnits="userSpaceOnUse"
     id="radialGradient3722"
     xlink:href="#linearGradient5443"
     inkscape:collect="always" /><radialGradient
     r="333.18735"
     fy="467.91885"
     fx="373.24265"
     cy="467.91885"
     cx="373.24265"
     gradientTransform="matrix(0.83535071,2.5391117e-7,-2.4564601e-7,0.80815889,783.12101,707.99698)"
     gradientUnits="userSpaceOnUse"
     id="radialGradient3718"
     xlink:href="#linearGradient5443"
     inkscape:collect="always" /><radialGradient
     r="333.18735"
     fy="467.91885"
     fx="373.24265"
     cy="467.91885"
     cx="373.24265"
     gradientTransform="matrix(0.9201975,2.7970099e-7,-2.7059634e-7,0.8902438,-163.70313,61.921561)"
     gradientUnits="userSpaceOnUse"
     id="radialGradient3703"
     xlink:href="#linearGradient5443"
     inkscape:collect="always" /><linearGradient
     y2="254.73526"
     x2="123.47623"
     y1="344.03848"
     x1="123.50603"
     gradientTransform="matrix(2.3189708,0,0,2.0930998,-99.17808,-231.54972)"
     gradientUnits="userSpaceOnUse"
     id="linearGradient3701"
     xlink:href="#linearGradient3187"
     inkscape:collect="always" /><radialGradient
     r="333.18735"
     fy="710.99164"
     fx="373.24265"
     cy="710.99164"
     cx="373.24265"
     gradientTransform="matrix(0.9503534,1.1750652e-7,-5.6287062e-8,0.3462676,-174.95857,375.55031)"
     gradientUnits="userSpaceOnUse"
     id="radialGradient3699"
     xlink:href="#linearGradient5443"
     inkscape:collect="always" /><radialGradient
     r="333.18735"
     fy="467.91885"
     fx="373.24265"
     cy="467.91885"
     cx="373.24265"
     gradientTransform="matrix(0.9201975,2.7970099e-7,-2.7059634e-7,0.8902438,-163.70313,61.921561)"
     gradientUnits="userSpaceOnUse"
     id="radialGradient3680"
     xlink:href="#linearGradient5443"
     inkscape:collect="always" /><linearGradient
     y2="254.73526"
     x2="123.47623"
     y1="344.03848"
     x1="123.50603"
     gradientTransform="matrix(2.3189708,0,0,2.0930998,-99.17808,-231.54972)"
     gradientUnits="userSpaceOnUse"
     id="linearGradient3678"
     xlink:href="#linearGradient3187"
     inkscape:collect="always" /><radialGradient
     r="333.18735"
     fy="710.99164"
     fx="373.24265"
     cy="710.99164"
     cx="373.24265"
     gradientTransform="matrix(0.9503534,1.1750652e-7,-5.6287062e-8,0.3462676,-174.95857,375.55031)"
     gradientUnits="userSpaceOnUse"
     id="radialGradient3676"
     xlink:href="#linearGradient5443"
     inkscape:collect="always" /><radialGradient
     r="333.18735"
     fy="467.91885"
     fx="373.24265"
     cy="467.91885"
     cx="373.24265"
     gradientTransform="matrix(0.9201975,2.7970099e-7,-2.7059634e-7,0.8902438,-163.70313,61.921561)"
     gradientUnits="userSpaceOnUse"
     id="radialGradient3654"
     xlink:href="#linearGradient5443"
     inkscape:collect="always" /><linearGradient
     y2="254.73526"
     x2="123.47623"
     y1="344.03848"
     x1="123.50603"
     gradientTransform="matrix(2.3189708,0,0,2.0930998,-99.17808,-231.54972)"
     gradientUnits="userSpaceOnUse"
     id="linearGradient3652"
     xlink:href="#linearGradient3187"
     inkscape:collect="always" /><radialGradient
     r="333.18735"
     fy="710.99164"
     fx="373.24265"
     cy="710.99164"
     cx="373.24265"
     gradientTransform="matrix(0.9503534,1.1750652e-7,-5.6287062e-8,0.3462676,-174.95857,375.55031)"
     gradientUnits="userSpaceOnUse"
     id="radialGradient3650"
     xlink:href="#linearGradient5443"
     inkscape:collect="always" /><radialGradient
     r="333.18735"
     fy="467.91885"
     fx="373.24265"
     cy="467.91885"
     cx="373.24265"
     gradientTransform="matrix(0.9201975,2.7970099e-7,-2.7059634e-7,0.8902438,-163.70313,61.921561)"
     gradientUnits="userSpaceOnUse"
     id="radialGradient3627"
     xlink:href="#linearGradient5443"
     inkscape:collect="always" /><linearGradient
     y2="254.73526"
     x2="123.47623"
     y1="344.03848"
     x1="123.50603"
     gradientTransform="matrix(2.3189708,0,0,2.0930998,-99.17808,-231.54972)"
     gradientUnits="userSpaceOnUse"
     id="linearGradient3625"
     xlink:href="#linearGradient3187"
     inkscape:collect="always" /><radialGradient
     r="333.18735"
     fy="710.99164"
     fx="373.24265"
     cy="710.99164"
     cx="373.24265"
     gradientTransform="matrix(0.9503534,1.1750652e-7,-5.6287062e-8,0.3462676,-174.95857,375.55031)"
     gradientUnits="userSpaceOnUse"
     id="radialGradient3623"
     xlink:href="#linearGradient5443"
     inkscape:collect="always" /><radialGradient
     r="333.18735"
     fy="467.91885"
     fx="373.24265"
     cy="467.91885"
     cx="373.24265"
     gradientTransform="matrix(0.9201975,2.7970099e-7,-2.7059634e-7,0.8902438,-163.70313,61.921561)"
     gradientUnits="userSpaceOnUse"
     id="radialGradient3599"
     xlink:href="#linearGradient5443"
     inkscape:collect="always" /><linearGradient
     y2="254.73526"
     x2="123.47623"
     y1="344.03848"
     x1="123.50603"
     gradientTransform="matrix(2.3189708,0,0,2.0930998,-99.17808,-231.54972)"
     gradientUnits="userSpaceOnUse"
     id="linearGradient3597"
     xlink:href="#linearGradient3187"
     inkscape:collect="always" /><radialGradient
     r="333.18735"
     fy="710.99164"
     fx="373.24265"
     cy="710.99164"
     cx="373.24265"
     gradientTransform="matrix(0.9503534,1.1750652e-7,-5.6287062e-8,0.3462676,-174.95857,375.55031)"
     gradientUnits="userSpaceOnUse"
     id="radialGradient3595"
     xlink:href="#linearGradient5443"
     inkscape:collect="always" /><radialGradient
     r="333.18735"
     fy="467.91885"
     fx="373.24265"
     cy="467.91885"
     cx="373.24265"
     gradientTransform="matrix(0.9201975,2.7970099e-7,-2.7059634e-7,0.8902438,-163.70313,61.921561)"
     gradientUnits="userSpaceOnUse"
     id="radialGradient3525"
     xlink:href="#linearGradient5443"
     inkscape:collect="always" /><linearGradient
     y2="254.73526"
     x2="123.47623"
     y1="344.03848"
     x1="123.50603"
     gradientTransform="matrix(2.3189708,0,0,2.0930998,-99.17808,-231.54972)"
     gradientUnits="userSpaceOnUse"
     id="linearGradient3523"
     xlink:href="#linearGradient3187"
     inkscape:collect="always" /><radialGradient
     r="333.18735"
     fy="710.99164"
     fx="373.24265"
     cy="710.99164"
     cx="373.24265"
     gradientTransform="matrix(0.9503534,1.1750652e-7,-5.6287062e-8,0.3462676,-174.95857,375.55031)"
     gradientUnits="userSpaceOnUse"
     id="radialGradient3521"
     xlink:href="#linearGradient5443"
     inkscape:collect="always" /><radialGradient
     r="333.18735"
     fy="467.91885"
     fx="373.24265"
     cy="467.91885"
     cx="373.24265"
     gradientTransform="matrix(0.9201975,2.7970099e-7,-2.7059634e-7,0.8902438,-163.70313,61.921561)"
     gradientUnits="userSpaceOnUse"
     id="radialGradient3497"
     xlink:href="#linearGradient5443"
     inkscape:collect="always" /><linearGradient
     y2="254.73526"
     x2="123.47623"
     y1="344.03848"
     x1="123.50603"
     gradientTransform="matrix(2.3189708,0,0,2.0930998,-99.17808,-231.54972)"
     gradientUnits="userSpaceOnUse"
     id="linearGradient3495"
     xlink:href="#linearGradient3187"
     inkscape:collect="always" /><radialGradient
     r="333.18735"
     fy="710.99164"
     fx="373.24265"
     cy="710.99164"
     cx="373.24265"
     gradientTransform="matrix(0.9503534,1.1750652e-7,-5.6287062e-8,0.3462676,-174.95857,375.55031)"
     gradientUnits="userSpaceOnUse"
     id="radialGradient3493"
     xlink:href="#linearGradient5443"
     inkscape:collect="always" /><linearGradient
     id="linearGradient5443"><stop
       id="stop5445"
       offset="0"
       style="stop-color:#ffffff;stop-opacity:0;" /><stop
       id="stop5447"
       offset="1"
       style="stop-color:#000000;stop-opacity:0.33962265;" /></linearGradient><linearGradient
     id="linearGradient3157"><stop
       style="stop-color:#49bcff;stop-opacity:1;"
       offset="0"
       id="stop3159" /><stop
       style="stop-color:#494c96;stop-opacity:1;"
       offset="1"
       id="stop3161" /></linearGradient><linearGradient
     id="linearGradient3171"><stop
       id="stop3173"
       offset="0"
       style="stop-color:#49bcff;stop-opacity:1;" /><stop
       id="stop3175"
       offset="1"
       style="stop-color:#494cdc;stop-opacity:1;" /></linearGradient><linearGradient
     id="linearGradient3187"><stop
       style="stop-color:#ffffff;stop-opacity:0.39622641;"
       offset="0"
       id="stop3189" /><stop
       style="stop-color:#000000;stop-opacity:1;"
       offset="1"
       id="stop3191" /></linearGradient><linearGradient
     id="linearGradient4395"><stop
       style="stop-color:#110084;stop-opacity:1;"
       offset="0"
       id="stop4397" /><stop
       style="stop-color:#a695ff;stop-opacity:1;"
       offset="1"
       id="stop4399" /></linearGradient><linearGradient
     id="linearGradient4383"><stop
       style="stop-color:#00037f;stop-opacity:1;"
       offset="0"
       id="stop4385" /><stop
       style="stop-color:#00037f;stop-opacity:0;"
       offset="1"
       id="stop4387" /></linearGradient><inkscape:perspective
     sodipodi:type="inkscape:persp3d"
     inkscape:vp_x="0 : 526.18109 : 1"
     inkscape:vp_y="0 : 1000 : 0"
     inkscape:vp_z="744.09448 : 526.18109 : 1"
     inkscape:persp3d-origin="372.04724 : 350.78739 : 1"
     id="perspective3214" /><linearGradient
     inkscape:collect="always"
     xlink:href="#linearGradient4383"
     id="linearGradient4389"
     x1="371.42194"
     y1="298.59412"
     x2="396.91168"
     y2="655.4505"
     gradientUnits="userSpaceOnUse" /><linearGradient
     inkscape:collect="always"
     xlink:href="#linearGradient4395"
     id="linearGradient4401"
     x1="360.49777"
     y1="167.50403"
     x2="360.49777"
     y2="540.86719"
     gradientUnits="userSpaceOnUse" /><linearGradient
     inkscape:collect="always"
     xlink:href="#linearGradient3187"
     id="linearGradient4562"
     gradientUnits="userSpaceOnUse"
     gradientTransform="matrix(2.3189708,0,0,2.0930998,93.115298,-256.84999)"
     x1="123.50603"
     y1="344.03848"
     x2="123.47623"
     y2="254.73526" /><radialGradient
     inkscape:collect="always"
     xlink:href="#linearGradient3171"
     id="radialGradient4569"
     gradientUnits="userSpaceOnUse"
     gradientTransform="matrix(0.9201975,2.7970099e-7,-2.7059634e-7,0.8902438,28.590287,48.634335)"
     cx="373.24265"
     cy="467.91885"
     fx="373.24265"
     fy="467.91885"
     r="333.18735" /><radialGradient
     inkscape:collect="always"
     xlink:href="#linearGradient3157"
     id="radialGradient4572"
     gradientUnits="userSpaceOnUse"
     gradientTransform="matrix(0.9503534,1.1750652e-7,-5.6287062e-8,0.3462676,17.334826,362.44227)"
     cx="373.24265"
     cy="710.99164"
     fx="373.24265"
     fy="710.99164"
     r="333.18735" /><radialGradient
     inkscape:collect="always"
     xlink:href="#linearGradient3157"
     id="radialGradient4766"
     gradientUnits="userSpaceOnUse"
     gradientTransform="matrix(0.9503534,1.1750652e-7,-5.6287062e-8,0.3462676,17.334826,362.44227)"
     cx="373.24265"
     cy="710.99164"
     fx="373.24265"
     fy="710.99164"
     r="333.18735" /><radialGradient
     inkscape:collect="always"
     xlink:href="#linearGradient3171"
     id="radialGradient4768"
     gradientUnits="userSpaceOnUse"
     gradientTransform="matrix(0.9201975,2.7970099e-7,-2.7059634e-7,0.8902438,28.590287,48.634335)"
     cx="373.24265"
     cy="467.91885"
     fx="373.24265"
     fy="467.91885"
     r="333.18735" /><linearGradient
     inkscape:collect="always"
     xlink:href="#linearGradient3187"
     id="linearGradient4770"
     gradientUnits="userSpaceOnUse"
     gradientTransform="matrix(2.3189708,0,0,2.0930998,93.115298,-256.84999)"
     x1="123.50603"
     y1="344.03848"
     x2="123.47623"
     y2="254.73526" /><linearGradient
     inkscape:collect="always"
     xlink:href="#linearGradient3187"
     id="linearGradient4773"
     gradientUnits="userSpaceOnUse"
     gradientTransform="matrix(2.3189708,0,0,2.0930998,93.115298,-256.84999)"
     x1="123.50603"
     y1="344.03848"
     x2="123.47623"
     y2="254.73526" /><radialGradient
     inkscape:collect="always"
     xlink:href="#linearGradient3171"
     id="radialGradient4776"
     gradientUnits="userSpaceOnUse"
     gradientTransform="matrix(0.9201975,2.7970099e-7,-2.7059634e-7,0.8902438,28.590287,48.634335)"
     cx="373.24265"
     cy="467.91885"
     fx="373.24265"
     fy="467.91885"
     r="333.18735" /><radialGradient
     inkscape:collect="always"
     xlink:href="#linearGradient3157"
     id="radialGradient4779"
     gradientUnits="userSpaceOnUse"
     gradientTransform="matrix(0.9503534,1.1750652e-7,-5.6287062e-8,0.3462676,17.334826,362.44227)"
     cx="373.24265"
     cy="710.99164"
     fx="373.24265"
     fy="710.99164"
     r="333.18735" /><radialGradient
     inkscape:collect="always"
     xlink:href="#linearGradient3157"
     id="radialGradient4790"
     gradientUnits="userSpaceOnUse"
     gradientTransform="matrix(0.9503534,1.1750652e-7,-5.6287062e-8,0.3462676,17.334826,362.44227)"
     cx="373.24265"
     cy="710.99164"
     fx="373.24265"
     fy="710.99164"
     r="333.18735" /><radialGradient
     inkscape:collect="always"
     xlink:href="#linearGradient3171"
     id="radialGradient4792"
     gradientUnits="userSpaceOnUse"
     gradientTransform="matrix(0.9201975,2.7970099e-7,-2.7059634e-7,0.8902438,28.590287,48.634335)"
     cx="373.24265"
     cy="467.91885"
     fx="373.24265"
     fy="467.91885"
     r="333.18735" /><linearGradient
     inkscape:collect="always"
     xlink:href="#linearGradient3187"
     id="linearGradient4794"
     gradientUnits="userSpaceOnUse"
     gradientTransform="matrix(2.3189708,0,0,2.0930998,93.115298,-256.84999)"
     x1="123.50603"
     y1="344.03848"
     x2="123.47623"
     y2="254.73526" /><linearGradient
     inkscape:collect="always"
     xlink:href="#linearGradient3187"
     id="linearGradient4799"
     gradientUnits="userSpaceOnUse"
     gradientTransform="matrix(2.3189708,0,0,2.0930998,93.115298,-256.84999)"
     x1="123.50603"
     y1="344.03848"
     x2="123.47623"
     y2="254.73526" /><radialGradient
     inkscape:collect="always"
     xlink:href="#linearGradient3171"
     id="radialGradient4802"
     gradientUnits="userSpaceOnUse"
     gradientTransform="matrix(0.9201975,2.7970099e-7,-2.7059634e-7,0.8902438,28.590287,48.634335)"
     cx="373.24265"
     cy="467.91885"
     fx="373.24265"
     fy="467.91885"
     r="333.18735" /><radialGradient
     inkscape:collect="always"
     xlink:href="#linearGradient3157"
     id="radialGradient4805"
     gradientUnits="userSpaceOnUse"
     gradientTransform="matrix(0.9503534,1.1750652e-7,-5.6287062e-8,0.3462676,17.334826,362.44227)"
     cx="373.24265"
     cy="710.99164"
     fx="373.24265"
     fy="710.99164"
     r="333.18735" /><radialGradient
     inkscape:collect="always"
     xlink:href="#linearGradient3157"
     id="radialGradient4820"
     gradientUnits="userSpaceOnUse"
     gradientTransform="matrix(0.9503534,1.1750652e-7,-5.6287062e-8,0.3462676,17.334826,362.44227)"
     cx="373.24265"
     cy="710.99164"
     fx="373.24265"
     fy="710.99164"
     r="333.18735" /><radialGradient
     inkscape:collect="always"
     xlink:href="#linearGradient3171"
     id="radialGradient4822"
     gradientUnits="userSpaceOnUse"
     gradientTransform="matrix(0.9201975,2.7970099e-7,-2.7059634e-7,0.8902438,28.590287,48.634335)"
     cx="373.24265"
     cy="467.91885"
     fx="373.24265"
     fy="467.91885"
     r="333.18735" /><linearGradient
     inkscape:collect="always"
     xlink:href="#linearGradient3187"
     id="linearGradient4824"
     gradientUnits="userSpaceOnUse"
     gradientTransform="matrix(2.3189708,0,0,2.0930998,93.115298,-256.84999)"
     x1="123.50603"
     y1="344.03848"
     x2="123.47623"
     y2="254.73526" /><linearGradient
     inkscape:collect="always"
     xlink:href="#linearGradient3187"
     id="linearGradient4827"
     gradientUnits="userSpaceOnUse"
     gradientTransform="matrix(2.3189708,0,0,2.0930998,-99.17808,-231.54972)"
     x1="123.50603"
     y1="344.03848"
     x2="123.47623"
     y2="254.73526" /><radialGradient
     inkscape:collect="always"
     xlink:href="#linearGradient5443"
     id="radialGradient4832"
     gradientUnits="userSpaceOnUse"
     gradientTransform="matrix(0.9201975,2.7970099e-7,-2.7059634e-7,0.8902438,-163.70313,61.921561)"
     cx="373.24265"
     cy="467.91885"
     fx="373.24265"
     fy="467.91885"
     r="333.18735" /><radialGradient
     inkscape:collect="always"
     xlink:href="#linearGradient5443"
     id="radialGradient4835"
     gradientUnits="userSpaceOnUse"
     gradientTransform="matrix(0.9503534,1.1750652e-7,-5.6287062e-8,0.3462676,-174.95857,375.55031)"
     cx="373.24265"
     cy="710.99164"
     fx="373.24265"
     fy="710.99164"
     r="333.18735" /><radialGradient
     inkscape:collect="always"
     xlink:href="#linearGradient5443-5"
     id="radialGradient4835-3"
     gradientUnits="userSpaceOnUse"
     gradientTransform="matrix(0.9503534,1.1750652e-7,-5.6287062e-8,0.3462676,317.80591,185.68771)"
     cx="373.24265"
     cy="710.99164"
     fx="373.24265"
     fy="710.99164"
     r="333.18735" /><linearGradient
     id="linearGradient5443-5"><stop
       id="stop5445-4"
       offset="0"
       style="stop-color:#ffffff;stop-opacity:0;" /><stop
       id="stop5447-3"
       offset="1"
       style="stop-color:#000000;stop-opacity:0.33962265;" /></linearGradient><radialGradient
     inkscape:collect="always"
     xlink:href="#linearGradient5443"
     id="radialGradient3272"
     gradientUnits="userSpaceOnUse"
     gradientTransform="matrix(0.9503534,1.1750652e-7,-5.6287062e-8,0.3462676,-174.95857,375.55031)"
     cx="373.24265"
     cy="710.99164"
     fx="373.24265"
     fy="710.99164"
     r="333.18735" /><linearGradient
     inkscape:collect="always"
     xlink:href="#linearGradient3187"
     id="linearGradient3274"
     gradientUnits="userSpaceOnUse"
     gradientTransform="matrix(2.3189708,0,0,2.0930998,-99.17808,-231.54972)"
     x1="123.50603"
     y1="344.03848"
     x2="123.47623"
     y2="254.73526" /><radialGradient
     inkscape:collect="always"
     xlink:href="#linearGradient5443"
     id="radialGradient3276"
     gradientUnits="userSpaceOnUse"
     gradientTransform="matrix(0.9201975,2.7970099e-7,-2.7059634e-7,0.8902438,-163.70313,61.921561)"
     cx="373.24265"
     cy="467.91885"
     fx="373.24265"
     fy="467.91885"
     r="333.18735" /><linearGradient
     y2="254.73526"
     x2="123.47623"
     y1="344.03848"
     x1="123.50603"
     gradientTransform="matrix(2.3189708,0,0,2.0930998,-543.56606,-225.82362)"
     gradientUnits="userSpaceOnUse"
     id="linearGradient3593"
     xlink:href="#linearGradient3187-3"
     inkscape:collect="always" /><radialGradient
     r="333.18735"
     fy="710.99164"
     fx="373.24265"
     cy="710.99164"
     cx="373.24265"
     gradientTransform="matrix(0.86272606,1.0667183e-7,-5.1097113e-8,0.31433999,-147.00617,81.557672)"
     gradientUnits="userSpaceOnUse"
     id="radialGradient3551"
     xlink:href="#linearGradient5443-1"
     inkscape:collect="always" /><radialGradient
     r="333.18735"
     fy="467.91885"
     fx="373.24265"
     cy="467.91885"
     cx="373.24265"
     gradientTransform="matrix(0.83535069,2.5391116e-7,-2.4564601e-7,0.80815885,-136.78851,-203.15299)"
     gradientUnits="userSpaceOnUse"
     id="radialGradient3547"
     xlink:href="#linearGradient5443-1"
     inkscape:collect="always" /><radialGradient
     r="333.18735"
     fy="467.91885"
     fx="373.24265"
     cy="467.91885"
     cx="373.24265"
     gradientTransform="matrix(0.83393192,2.4025531e-7,-2.452288e-7,0.76469446,-575.89311,126.3946)"
     gradientUnits="userSpaceOnUse"
     id="radialGradient2894"
     xlink:href="#linearGradient5443-1"
     inkscape:collect="always" /><linearGradient
     y2="254.73526"
     x2="123.47623"
     y1="344.03848"
     x1="123.50603"
     gradientTransform="matrix(2.3189708,0,0,2.0930998,-543.56606,-225.82362)"
     gradientUnits="userSpaceOnUse"
     id="linearGradient2892"
     xlink:href="#linearGradient3187-3"
     inkscape:collect="always" /><radialGradient
     r="333.18735"
     fy="710.99164"
     fx="373.24265"
     cy="710.99164"
     cx="373.24265"
     gradientTransform="matrix(0.8612608,1.0093481e-7,-5.1010329e-8,0.29743416,-586.09339,395.79293)"
     gradientUnits="userSpaceOnUse"
     id="radialGradient2890"
     xlink:href="#linearGradient5443-1"
     inkscape:collect="always" /><linearGradient
     id="linearGradient5443-5-1"><stop
       style="stop-color:#ffffff;stop-opacity:0;"
       offset="0"
       id="stop5445-4-5" /><stop
       style="stop-color:#000000;stop-opacity:0.33962265;"
       offset="1"
       id="stop5447-3-5" /></linearGradient><radialGradient
     r="333.18735"
     fy="710.99164"
     fx="373.24265"
     cy="710.99164"
     cx="373.24265"
     gradientTransform="matrix(0.9503534,1.1750652e-7,-5.6287062e-8,0.3462676,317.80591,185.68771)"
     gradientUnits="userSpaceOnUse"
     id="radialGradient4835-3-9"
     xlink:href="#linearGradient5443-5-1"
     inkscape:collect="always" /><filter
     color-interpolation-filters="sRGB"
     id="filter5511-4"
     inkscape:collect="always"><feGaussianBlur
       id="feGaussianBlur5513-4"
       stdDeviation="3.2374974"
       inkscape:collect="always" /></filter><radialGradient
     r="333.18735"
     fy="710.99164"
     fx="373.24265"
     cy="710.99164"
     cx="373.24265"
     gradientTransform="matrix(0.8612608,1.0093481e-7,-5.1010329e-8,0.29743416,-586.09339,395.79293)"
     gradientUnits="userSpaceOnUse"
     id="radialGradient4835-7"
     xlink:href="#linearGradient5443-1"
     inkscape:collect="always" /><radialGradient
     r="333.18735"
     fy="467.91885"
     fx="373.24265"
     cy="467.91885"
     cx="373.24265"
     gradientTransform="matrix(0.83393192,2.4025531e-7,-2.452288e-7,0.76469446,-575.89311,126.3946)"
     gradientUnits="userSpaceOnUse"
     id="radialGradient4832-7"
     xlink:href="#linearGradient5443-1"
     inkscape:collect="always" /><linearGradient
     y2="254.73526"
     x2="123.47623"
     y1="344.03848"
     x1="123.50603"
     gradientTransform="matrix(2.3189708,0,0,2.0930998,-543.56606,-225.82362)"
     gradientUnits="userSpaceOnUse"
     id="linearGradient4827-8"
     xlink:href="#linearGradient3187-3"
     inkscape:collect="always" /><linearGradient
     y2="254.73526"
     x2="123.47623"
     y1="344.03848"
     x1="123.50603"
     gradientTransform="matrix(2.3189708,0,0,2.0930998,93.115298,-256.84999)"
     gradientUnits="userSpaceOnUse"
     id="linearGradient4824-7"
     xlink:href="#linearGradient3187-3"
     inkscape:collect="always" /><radialGradient
     r="333.18735"
     fy="467.91885"
     fx="373.24265"
     cy="467.91885"
     cx="373.24265"
     gradientTransform="matrix(0.9201975,2.7970099e-7,-2.7059634e-7,0.8902438,28.590287,48.634335)"
     gradientUnits="userSpaceOnUse"
     id="radialGradient4822-8"
     xlink:href="#linearGradient3171-8"
     inkscape:collect="always" /><radialGradient
     r="333.18735"
     fy="710.99164"
     fx="373.24265"
     cy="710.99164"
     cx="373.24265"
     gradientTransform="matrix(0.9503534,1.1750652e-7,-5.6287062e-8,0.3462676,17.334826,362.44227)"
     gradientUnits="userSpaceOnUse"
     id="radialGradient4820-1"
     xlink:href="#linearGradient3157-8"
     inkscape:collect="always" /><radialGradient
     r="333.18735"
     fy="710.99164"
     fx="373.24265"
     cy="710.99164"
     cx="373.24265"
     gradientTransform="matrix(0.9503534,1.1750652e-7,-5.6287062e-8,0.3462676,17.334826,362.44227)"
     gradientUnits="userSpaceOnUse"
     id="radialGradient4805-7"
     xlink:href="#linearGradient3157-8"
     inkscape:collect="always" /><radialGradient
     r="333.18735"
     fy="467.91885"
     fx="373.24265"
     cy="467.91885"
     cx="373.24265"
     gradientTransform="matrix(0.9201975,2.7970099e-7,-2.7059634e-7,0.8902438,28.590287,48.634335)"
     gradientUnits="userSpaceOnUse"
     id="radialGradient4802-1"
     xlink:href="#linearGradient3171-8"
     inkscape:collect="always" /><linearGradient
     y2="254.73526"
     x2="123.47623"
     y1="344.03848"
     x1="123.50603"
     gradientTransform="matrix(2.3189708,0,0,2.0930998,93.115298,-256.84999)"
     gradientUnits="userSpaceOnUse"
     id="linearGradient4799-4"
     xlink:href="#linearGradient3187-3"
     inkscape:collect="always" /><linearGradient
     y2="254.73526"
     x2="123.47623"
     y1="344.03848"
     x1="123.50603"
     gradientTransform="matrix(2.3189708,0,0,2.0930998,93.115298,-256.84999)"
     gradientUnits="userSpaceOnUse"
     id="linearGradient4794-8"
     xlink:href="#linearGradient3187-3"
     inkscape:collect="always" /><radialGradient
     r="333.18735"
     fy="467.91885"
     fx="373.24265"
     cy="467.91885"
     cx="373.24265"
     gradientTransform="matrix(0.9201975,2.7970099e-7,-2.7059634e-7,0.8902438,28.590287,48.634335)"
     gradientUnits="userSpaceOnUse"
     id="radialGradient4792-7"
     xlink:href="#linearGradient3171-8"
     inkscape:collect="always" /><radialGradient
     r="333.18735"
     fy="710.99164"
     fx="373.24265"
     cy="710.99164"
     cx="373.24265"
     gradientTransform="matrix(0.9503534,1.1750652e-7,-5.6287062e-8,0.3462676,17.334826,362.44227)"
     gradientUnits="userSpaceOnUse"
     id="radialGradient4790-6"
     xlink:href="#linearGradient3157-8"
     inkscape:collect="always" /><radialGradient
     r="333.18735"
     fy="710.99164"
     fx="373.24265"
     cy="710.99164"
     cx="373.24265"
     gradientTransform="matrix(0.9503534,1.1750652e-7,-5.6287062e-8,0.3462676,17.334826,362.44227)"
     gradientUnits="userSpaceOnUse"
     id="radialGradient4779-6"
     xlink:href="#linearGradient3157-8"
     inkscape:collect="always" /><radialGradient
     r="333.18735"
     fy="467.91885"
     fx="373.24265"
     cy="467.91885"
     cx="373.24265"
     gradientTransform="matrix(0.9201975,2.7970099e-7,-2.7059634e-7,0.8902438,28.590287,48.634335)"
     gradientUnits="userSpaceOnUse"
     id="radialGradient4776-2"
     xlink:href="#linearGradient3171-8"
     inkscape:collect="always" /><linearGradient
     y2="254.73526"
     x2="123.47623"
     y1="344.03848"
     x1="123.50603"
     gradientTransform="matrix(2.3189708,0,0,2.0930998,93.115298,-256.84999)"
     gradientUnits="userSpaceOnUse"
     id="linearGradient4773-2"
     xlink:href="#linearGradient3187-3"
     inkscape:collect="always" /><linearGradient
     y2="254.73526"
     x2="123.47623"
     y1="344.03848"
     x1="123.50603"
     gradientTransform="matrix(2.3189708,0,0,2.0930998,93.115298,-256.84999)"
     gradientUnits="userSpaceOnUse"
     id="linearGradient4770-5"
     xlink:href="#linearGradient3187-3"
     inkscape:collect="always" /><radialGradient
     r="333.18735"
     fy="467.91885"
     fx="373.24265"
     cy="467.91885"
     cx="373.24265"
     gradientTransform="matrix(0.9201975,2.7970099e-7,-2.7059634e-7,0.8902438,28.590287,48.634335)"
     gradientUnits="userSpaceOnUse"
     id="radialGradient4768-3"
     xlink:href="#linearGradient3171-8"
     inkscape:collect="always" /><radialGradient
     r="333.18735"
     fy="710.99164"
     fx="373.24265"
     cy="710.99164"
     cx="373.24265"
     gradientTransform="matrix(0.9503534,1.1750652e-7,-5.6287062e-8,0.3462676,17.334826,362.44227)"
     gradientUnits="userSpaceOnUse"
     id="radialGradient4766-8"
     xlink:href="#linearGradient3157-8"
     inkscape:collect="always" /><filter
     color-interpolation-filters="sRGB"
     id="filter4659-1"
     inkscape:collect="always"><feGaussianBlur
       id="feGaussianBlur4661-8"
       stdDeviation="2.7750933"
       inkscape:collect="always" /></filter><radialGradient
     r="333.18735"
     fy="710.99164"
     fx="373.24265"
     cy="710.99164"
     cx="373.24265"
     gradientTransform="matrix(0.9503534,1.1750652e-7,-5.6287062e-8,0.3462676,17.334826,362.44227)"
     gradientUnits="userSpaceOnUse"
     id="radialGradient4572-4"
     xlink:href="#linearGradient3157-8"
     inkscape:collect="always" /><radialGradient
     r="333.18735"
     fy="467.91885"
     fx="373.24265"
     cy="467.91885"
     cx="373.24265"
     gradientTransform="matrix(0.9201975,2.7970099e-7,-2.7059634e-7,0.8902438,28.590287,48.634335)"
     gradientUnits="userSpaceOnUse"
     id="radialGradient4569-5"
     xlink:href="#linearGradient3171-8"
     inkscape:collect="always" /><linearGradient
     y2="254.73526"
     x2="123.47623"
     y1="344.03848"
     x1="123.50603"
     gradientTransform="matrix(2.3189708,0,0,2.0930998,93.115298,-256.84999)"
     gradientUnits="userSpaceOnUse"
     id="linearGradient4562-5"
     xlink:href="#linearGradient3187-3"
     inkscape:collect="always" /><linearGradient
     gradientUnits="userSpaceOnUse"
     y2="540.86719"
     x2="360.49777"
     y1="167.50403"
     x1="360.49777"
     id="linearGradient4401-7"
     xlink:href="#linearGradient4395-3"
     inkscape:collect="always" /><linearGradient
     gradientUnits="userSpaceOnUse"
     y2="655.4505"
     x2="396.91168"
     y1="298.59412"
     x1="371.42194"
     id="linearGradient4389-1"
     xlink:href="#linearGradient4383-9"
     inkscape:collect="always" /><inkscape:perspective
     id="perspective3214-9"
     inkscape:persp3d-origin="372.04724 : 350.78739 : 1"
     inkscape:vp_z="744.09448 : 526.18109 : 1"
     inkscape:vp_y="0 : 1000 : 0"
     inkscape:vp_x="0 : 526.18109 : 1"
     sodipodi:type="inkscape:persp3d" /><linearGradient
     id="linearGradient4383-9"><stop
       id="stop4385-5"
       offset="0"
       style="stop-color:#00037f;stop-opacity:1;" /><stop
       id="stop4387-4"
       offset="1"
       style="stop-color:#00037f;stop-opacity:0;" /></linearGradient><linearGradient
     id="linearGradient4395-3"><stop
       id="stop4397-6"
       offset="0"
       style="stop-color:#110084;stop-opacity:1;" /><stop
       id="stop4399-5"
       offset="1"
       style="stop-color:#a695ff;stop-opacity:1;" /></linearGradient><linearGradient
     id="linearGradient3187-3"><stop
       id="stop3189-5"
       offset="0"
       style="stop-color:#ffffff;stop-opacity:0.39622641;" /><stop
       id="stop3191-4"
       offset="1"
       style="stop-color:#000000;stop-opacity:1;" /></linearGradient><linearGradient
     id="linearGradient3171-8"><stop
       style="stop-color:#49bcff;stop-opacity:1;"
       offset="0"
       id="stop3173-1" /><stop
       style="stop-color:#494cdc;stop-opacity:1;"
       offset="1"
       id="stop3175-5" /></linearGradient><linearGradient
     id="linearGradient3157-8"><stop
       id="stop3159-8"
       offset="0"
       style="stop-color:#49bcff;stop-opacity:1;" /><stop
       id="stop3161-3"
       offset="1"
       style="stop-color:#494c96;stop-opacity:1;" /></linearGradient><linearGradient
     id="linearGradient5443-1"><stop
       style="stop-color:#ffffff;stop-opacity:0;"
       offset="0"
       id="stop5445-3" /><stop
       style="stop-color:#000000;stop-opacity:0.33962265;"
       offset="1"
       id="stop5447-7" /></linearGradient><radialGradient
     inkscape:collect="always"
     xlink:href="#linearGradient5443-1"
     id="radialGradient3253"
     gradientUnits="userSpaceOnUse"
     gradientTransform="matrix(0.8612608,1.0093481e-7,-5.1010329e-8,0.29743416,-586.09339,395.79293)"
     cx="373.24265"
     cy="710.99164"
     fx="373.24265"
     fy="710.99164"
     r="333.18735" /><linearGradient
     inkscape:collect="always"
     xlink:href="#linearGradient3187-3"
     id="linearGradient3255"
     gradientUnits="userSpaceOnUse"
     gradientTransform="matrix(2.3189708,0,0,2.0930998,-543.56606,-225.82362)"
     x1="123.50603"
     y1="344.03848"
     x2="123.47623"
     y2="254.73526" /><radialGradient
     inkscape:collect="always"
     xlink:href="#linearGradient5443-1"
     id="radialGradient3257"
     gradientUnits="userSpaceOnUse"
     gradientTransform="matrix(0.83393192,2.4025531e-7,-2.452288e-7,0.76469446,-575.89311,126.3946)"
     cx="373.24265"
     cy="467.91885"
     fx="373.24265"
     fy="467.91885"
     r="333.18735" /><radialGradient
     inkscape:collect="always"
     xlink:href="#linearGradient5443-1"
     id="radialGradient3273"
     gradientUnits="userSpaceOnUse"
     gradientTransform="matrix(0.8612608,1.0093481e-7,-5.1010329e-8,0.29743416,-586.09339,395.79293)"
     cx="373.24265"
     cy="710.99164"
     fx="373.24265"
     fy="710.99164"
     r="333.18735" /><linearGradient
     inkscape:collect="always"
     xlink:href="#linearGradient3187-3"
     id="linearGradient3275"
     gradientUnits="userSpaceOnUse"
     gradientTransform="matrix(2.3189708,0,0,2.0930998,-543.56606,-225.82362)"
     x1="123.50603"
     y1="344.03848"
     x2="123.47623"
     y2="254.73526" /><radialGradient
     inkscape:collect="always"
     xlink:href="#linearGradient5443-1"
     id="radialGradient3277"
     gradientUnits="userSpaceOnUse"
     gradientTransform="matrix(0.83393192,2.4025531e-7,-2.452288e-7,0.76469446,-575.89311,126.3946)"
     cx="373.24265"
     cy="467.91885"
     fx="373.24265"
     fy="467.91885"
     r="333.18735" /><radialGradient
     inkscape:collect="always"
     xlink:href="#linearGradient5443-1"
     id="radialGradient3289"
     gradientUnits="userSpaceOnUse"
     gradientTransform="matrix(0.83535069,2.5391116e-7,-2.4564601e-7,0.80815885,-136.78853,-203.153)"
     cx="373.24265"
     cy="467.91885"
     fx="373.24265"
     fy="467.91885"
     r="333.18735" /><radialGradient
     inkscape:collect="always"
     xlink:href="#linearGradient5443-1"
     id="radialGradient3293"
     gradientUnits="userSpaceOnUse"
     gradientTransform="matrix(0.86272606,1.0667183e-7,-5.1097113e-8,0.31433999,-147.00618,81.557668)"
     cx="373.24265"
     cy="710.99164"
     fx="373.24265"
     fy="710.99164"
     r="333.18735" /><linearGradient
     inkscape:collect="always"
     xlink:href="#linearGradient3187-3"
     id="linearGradient3316"
     gradientUnits="userSpaceOnUse"
     gradientTransform="matrix(2.3189708,0,0,2.0930998,-543.56606,-225.82362)"
     x1="123.50603"
     y1="344.03848"
     x2="123.47623"
     y2="254.73526" /><radialGradient
     inkscape:collect="always"
     xlink:href="#linearGradient5443-1"
     id="radialGradient4207"
     gradientUnits="userSpaceOnUse"
     gradientTransform="matrix(0.83535069,2.5391116e-7,-2.4564601e-7,0.80815885,-136.78853,-203.15299)"
     cx="373.24265"
     cy="467.91885"
     fx="373.24265"
     fy="467.91885"
     r="333.18735" /><radialGradient
     inkscape:collect="always"
     xlink:href="#linearGradient5443-1"
     id="radialGradient4211"
     gradientUnits="userSpaceOnUse"
     gradientTransform="matrix(0.86272606,1.0667183e-7,-5.1097113e-8,0.31433999,-147.00618,81.557672)"
     cx="373.24265"
     cy="710.99164"
     fx="373.24265"
     fy="710.99164"
     r="333.18735" /><linearGradient
     inkscape:collect="always"
     xlink:href="#linearGradient3187-3"
     id="linearGradient4298"
     gradientUnits="userSpaceOnUse"
     gradientTransform="matrix(2.3189708,0,0,2.0930998,-543.56606,-225.82362)"
     x1="123.50603"
     y1="344.03848"
     x2="123.47623"
     y2="254.73526" /></defs><sodipodi:namedview
   pagecolor="#ffffff"
   bordercolor="#666666"
   borderopacity="1"
   objecttolerance="10"
   gridtolerance="10"
   guidetolerance="10"
   inkscape:pageopacity="0"
   inkscape:pageshadow="2"
   inkscape:window-width="1920"
   inkscape:window-height="1071"
   id="namedview33"
   showgrid="false"
   inkscape:zoom="1.1919192"
   inkscape:cx="412.25763"
   inkscape:cy="165.29175"
   inkscape:window-x="0"
   inkscape:window-y="0"
   inkscape:window-maximized="1"
   inkscape:current-layer="_x31_"
   fit-margin-top="0"
   fit-margin-left="0"
   fit-margin-right="0"
   fit-margin-bottom="0" />
<g
   id="LWPOLYLINE_2_"
   style="fill:#000000;fill-opacity:1;stroke:none"
   transform="translate(498.84746,-182.40679)">
	
		
</g><g
   id="LWPOLYLINE_4_"
   style="fill:#000000;fill-opacity:1;stroke:none"
   transform="translate(498.84746,-182.40679)">
	
		
</g><g
   id="LWPOLYLINE_6_"
   style="fill:#000000;fill-opacity:1;stroke:none"
   transform="translate(498.84746,-182.40679)">
	
		
</g><g
   id="LWPOLYLINE_8_"
   style="fill:#000000;fill-opacity:1;stroke:none"
   transform="translate(498.84746,-182.40679)">
	
		
</g>









<g
   id="LWPOLYLINE-5"
   style="fill:#000000;fill-opacity:1;stroke:none"
   transform="translate(434.84376,-92.566468)">
	
		
</g><g
   id="LWPOLYLINE_3_-8"
   style="fill:#000000;fill-opacity:1;stroke:none"
   transform="translate(434.84376,-92.566468)">
	
		
</g><g
   id="LINE"
   transform="translate(434.84376,-92.566468)">
	
		
</g><g
   id="LINE_3_"
   transform="translate(434.84376,-92.566468)">
	
		
</g><g
   id="LINE_4_"
   transform="translate(434.84376,-92.566468)">
	
		
</g><g
   id="LINE_5_"
   transform="translate(434.84376,-92.566468)">
	
		
</g><g
   id="LINE_6_"
   transform="translate(434.84376,-92.566468)">
	
		
</g><g
   id="LINE_7_"
   transform="translate(434.84376,-92.566468)">
	
		
</g><g
   id="LINE_8_"
   transform="translate(434.84376,-92.566468)">
	
		
</g><g
   id="LINE_10_"
   transform="translate(434.84376,-92.566468)">
	
		
</g><g
   id="LWPOLYLINE_9_-2"
   transform="translate(434.84376,-92.566468)">
	
		
</g><g
   id="LWPOLYLINE_11_"
   transform="translate(434.84376,-92.566468)">
	
		
</g><g
   id="LWPOLYLINE_12_"
   style="fill:#000000;fill-opacity:1;stroke:none"
   transform="translate(434.84376,-92.566468)">
	
		
</g><g
   id="LWPOLYLINE_6_-9"
   style="fill:#000000;fill-opacity:1;stroke:none"
   transform="translate(561.7994,-83.074462)">
	
		
</g><g
   id="LWPOLYLINE-1"
   style="fill:#000000;fill-opacity:1;stroke:none"
   transform="translate(561.7994,-83.074462)">
	
		
</g><g
   id="LWPOLYLINE_3_-7"
   style="fill:#000000;fill-opacity:1;stroke:none"
   transform="translate(561.7994,-83.074462)">
	
		
</g><rect
   inkscape:export-ydpi="29.879425"
   inkscape:export-xdpi="29.879425"
   inkscape:export-filename="C:\Documents and Settings\adscro24\Desktop\128.png"
   style="opacity:0.61338286;fill:#464646;fill-opacity:0.78540775;stroke:none;filter:url(#filter4659-1)"
   id="rect3279"
   width="152.93848"
   height="152.93848"
   x="135.39355"
   y="48.636749"
   rx="16.067965"
   ry="12.45238"
   transform="matrix(2.1051501,0,0,2.1051501,-271.00298,-88.366886)" /><rect
   inkscape:export-ydpi="29.879425"
   inkscape:export-xdpi="29.879425"
   inkscape:export-filename="C:\Documents and Settings\adscro24\Desktop\128.png"
   style="opacity:0.61338286;fill:url(#radialGradient4211);fill-opacity:1;stroke:#000000;stroke-width:3.26806188;stroke-miterlimit:4;stroke-opacity:1;stroke-dasharray:none"
   id="rect3155"
   width="321.95847"
   height="321.95844"
   x="14.020765"
   y="14.020776"
   rx="33.825478"
   ry="26.214128" /><path
   transform="matrix(0.907795,0,0,0.90779498,415.23353,-264.5632)"
   inkscape:export-ydpi="29.879425"
   inkscape:export-xdpi="29.879425"
   inkscape:export-filename="C:\Documents and Settings\adscro24\Desktop\128.png"
   inkscape:connector-curvature="0"
   style="opacity:0.61338286;fill:url(#linearGradient4298);fill-opacity:1;stroke:none;filter:url(#filter5511-4)"
   d="m -397.80626,329.07489 c -19.62748,0 -35.44272,12.0976 -35.44272,27.14163 l 0,124.30857 c 29.25482,11.38638 132.70149,11.89599 165.40488,-5.79022 33.32802,-18.02397 127.54379,-68.44264 171.824837,-52.72052 l 0,-65.79783 c 0,-15.04403 -15.798597,-27.14163 -35.426097,-27.14163 l -266.3609,0 z m -35.44272,263.47103 0,42.88373 c 0,1.33144 0.14331,2.63588 0.38253,3.915 -0.11919,-12.81092 -0.25965,-28.88939 -0.38253,-46.79873 z"
   id="rect3177" /><rect
   inkscape:export-ydpi="29.879425"
   inkscape:export-xdpi="29.879425"
   inkscape:export-filename="C:\Documents and Settings\adscro24\Desktop\128.png"
   style="opacity:0.61338286;fill:url(#radialGradient4207);fill-opacity:1;stroke:#ffffff;stroke-width:0.68992418;stroke-linecap:square;stroke-miterlimit:4;stroke-opacity:1;stroke-dasharray:none"
   id="rect3473"
   width="306.12445"
   height="306.12445"
   x="21.937757"
   y="21.937769"
   rx="32.161926"
   ry="24.924911" /><rect
   inkscape:export-ydpi="29.879425"
   inkscape:export-xdpi="29.879425"
   inkscape:export-filename="C:\Documents and Settings\adscro24\Desktop\128.png"
   style="opacity:0.61338286;fill:#ffffff;fill-opacity:0;stroke:#000000;stroke-width:3.26806188;stroke-miterlimit:4;stroke-opacity:1;stroke-dasharray:none"
   id="rect3155-2"
   width="321.95847"
   height="321.95844"
   x="14.020765"
   y="14.020776"
   rx="33.825478"
   ry="26.214128" /><g
   id="g4284"
   transform="matrix(0.59948197,0,0,0.59948197,-8.4379641,-62.39516)"><g
     style="fill:#000000;fill-opacity:1;stroke:none"
     id="LWPOLYLINE_7_">
	
		<path
   id="polygon25"
   d="m 510.90625,396.40625 -1.8125,0.0312 -1.75,0.0937 -1.6875,0.15625 -1.625,0.21875 -1.5625,0.28125 -1.5,0.34375 -1.4375,0.34375 -1.375,0.4375 -1.34375,0.53125 -1.28125,0.53125 -1.1875,0.59375 -1.15625,0.625 -1.125,0.6875 -1.09375,0.71875 -1,0.75 -0.9375,0.8125 -0.90625,0.84375 -0.875,0.875 -0.78125,0.9375 -0.78125,0.9375 -0.71875,1 -0.625,1 -0.65625,1.0625 -0.59375,1.0625 -0.53125,1.09375 -0.46875,1.125 -0.46875,1.15625 -0.40625,1.15625 -0.40625,1.1875 -0.3125,1.21875 -0.3125,1.1875 -0.28125,1.25 -0.21875,1.25 -0.1875,1.21875 -0.21875,1.28125 -0.0937,1.28125 -0.125,1.28125 L 479,428.25 l -0.0312,1.28125 -0.0312,1.28125 0.0312,1.84375 0.0937,1.75 0.125,1.75 0.15625,1.625 0.21875,1.65625 0.28125,1.53125 0.34375,1.5 0.34375,1.46875 0.40625,1.40625 0.46875,1.375 0.5,1.3125 0.5625,1.28125 L 483,450.5 l 0.65625,1.15625 0.625,1.125 0.75,1.09375 0.71875,1 0.75,1 0.84375,0.90625 0.84375,0.90625 0.875,0.8125 0.875,0.8125 0.96875,0.71875 0.9375,0.71875 1,0.65625 1.0625,0.625 1.0625,0.5625 1.09375,0.53125 1.125,0.46875 1.125,0.4375 1.15625,0.40625 1.1875,0.3125 1.21875,0.3125 1.21875,0.28125 1.25,0.21875 1.28125,0.1875 1.28125,0.125 1.3125,0.125 1.34375,0.0625 1.34375,0 1.28125,0 1.28125,-0.0625 1.25,-0.125 1.21875,-0.125 1.25,-0.1875 1.21875,-0.21875 1.1875,-0.28125 1.15625,-0.3125 1.15625,-0.3125 1.125,-0.40625 1.125,-0.4375 1.09375,-0.46875 1.03125,-0.53125 1.03125,-0.5625 1,-0.625 1,-0.65625 0.96875,-0.71875 0.90625,-0.71875 0.90625,-0.8125 0.8125,-0.8125 0.84375,-0.90625 0.8125,-0.90625 0.75,-1 0.71875,-1 0.6875,-1.09375 0.6875,-1.125 L 538,450.5 l 0.5625,-1.1875 0.5625,-1.28125 0.46875,-1.3125 0.4375,-1.375 0.46875,-1.40625 0.34375,-1.46875 0.3125,-1.5 0.25,-1.53125 0.25,-1.65625 0.15625,-1.625 0.15625,-1.75 0.0625,-1.75 0,-1.84375 0,-1.28125 L 542,428.25 l -0.0625,-1.28125 -0.125,-1.28125 -0.125,-1.28125 -0.15625,-1.28125 -0.21875,-1.21875 -0.21875,-1.25 -0.25,-1.25 -0.3125,-1.1875 -0.3125,-1.21875 -0.40625,-1.1875 -0.40625,-1.15625 -0.4375,-1.15625 -0.5,-1.125 -0.53125,-1.09375 -0.5625,-1.0625 -0.625,-1.0625 -0.65625,-1 -0.6875,-1 -0.75,-0.9375 -0.78125,-0.9375 -0.84375,-0.875 -0.90625,-0.84375 -0.9375,-0.8125 -0.9375,-0.75 -1.0625,-0.71875 -1.0625,-0.6875 -1.125,-0.625 -1.1875,-0.59375 -1.25,-0.53125 -1.28125,-0.53125 -1.375,-0.4375 -1.40625,-0.34375 -1.4375,-0.34375 -1.5,-0.28125 -1.5625,-0.21875 -1.65625,-0.15625 -1.6875,-0.0937 -1.75,-0.0312 z m -0.84375,11.46875 0.84375,0 0.8125,0 0.75,0.0937 0.75,0.0937 0.71875,0.0937 0.6875,0.15625 0.6875,0.21875 0.6875,0.25 0.625,0.21875 0.59375,0.3125 0.625,0.34375 0.59375,0.34375 0.53125,0.375 0.53125,0.4375 0.53125,0.4375 0.46875,0.46875 0.5,0.53125 0.4375,0.53125 0.4375,0.5625 0.4375,0.59375 0.375,0.59375 0.375,0.625 0.375,0.6875 0.3125,0.6875 0.3125,0.71875 0.28125,0.75 0.28125,0.78125 0.25,0.78125 0.25,0.8125 0.21875,0.84375 0.21875,0.84375 0.15625,0.875 0.15625,0.875 0.15625,0.9375 0.125,0.9375 0.0937,0.9375 0.0625,1 0.0937,0.9375 0.0312,1 0.0312,1.0625 0,1.03125 0,0.84375 -0.0312,0.875 0,0.84375 -0.0312,0.875 -0.0937,0.84375 -0.0625,0.84375 -0.0937,0.84375 -0.125,0.84375 -0.125,0.78125 -0.0937,0.8125 -0.1875,0.8125 -0.1875,0.78125 -0.1875,0.8125 -0.21875,0.75 -0.21875,0.71875 -0.25,0.78125 -0.28125,0.65625 -0.3125,0.71875 -0.34375,0.6875 -0.3125,0.65625 -0.34375,0.625 -0.40625,0.59375 -0.40625,0.625 -0.4375,0.5625 -0.46875,0.5 -0.5,0.53125 -0.53125,0.46875 -0.5,0.5 -0.59375,0.375 -0.625,0.40625 -0.59375,0.375 -0.6875,0.3125 -0.65625,0.3125 -0.6875,0.25 -0.75,0.1875 -0.78125,0.21875 -0.84375,0.15625 -0.84375,0.0625 -0.8125,0.0937 -0.9375,0 -0.96875,0 -0.90625,-0.0937 -0.9375,-0.0625 -0.8125,-0.15625 -0.84375,-0.21875 -0.78125,-0.1875 -0.75,-0.25 -0.71875,-0.3125 -0.71875,-0.3125 -0.65625,-0.375 -0.625,-0.40625 -0.59375,-0.375 -0.5625,-0.5 -0.5625,-0.46875 -0.53125,-0.53125 -0.46875,-0.5 -0.4375,-0.5625 -0.4375,-0.625 -0.40625,-0.59375 -0.40625,-0.625 -0.34375,-0.65625 -0.34375,-0.6875 -0.3125,-0.71875 -0.28125,-0.65625 -0.25,-0.78125 -0.21875,-0.71875 -0.25,-0.75 -0.1875,-0.8125 -0.21875,-0.78125 -0.15625,-0.8125 -0.125,-0.8125 -0.125,-0.78125 -0.0937,-0.84375 -0.125,-0.84375 -0.0625,-0.84375 -0.0625,-0.84375 -0.0312,-0.875 -0.0625,-0.84375 0,-0.875 -0.0312,-0.84375 0.0312,-1.03125 0,-1.0625 0.0625,-1 0.0625,-0.9375 0.0937,-1 0.125,-0.9375 0.0937,-0.9375 0.125,-0.9375 0.21875,-0.875 0.15625,-0.875 0.1875,-0.84375 0.25,-0.84375 0.25,-0.8125 0.21875,-0.78125 0.28125,-0.78125 0.3125,-0.75 0.34375,-0.71875 0.34375,-0.6875 0.375,-0.6875 0.40625,-0.625 0.375,-0.59375 0.4375,-0.59375 0.4375,-0.5625 0.5,-0.53125 0.46875,-0.53125 0.53125,-0.46875 0.5625,-0.4375 0.5625,-0.4375 0.59375,-0.375 0.59375,-0.34375 0.65625,-0.34375 0.625,-0.3125 0.6875,-0.21875 0.71875,-0.25 0.71875,-0.21875 0.75,-0.15625 0.78125,-0.0937 0.78125,-0.0937 0.84375,-0.0937 z"
   style="fill:#000000;fill-opacity:1;stroke:none"
   inkscape:connector-curvature="0" />
</g><g
     style="fill:#000000;fill-opacity:1;stroke:none"
     id="LWPOLYLINE_5_">
	
		<path
   id="polygon19"
   d="m 418.1875,325.9375 -1.6875,0.0937 -1.65625,0.15625 -1.59375,0.21875 -1.5,0.25 -1.5,0.3125 -1.40625,0.375 -1.34375,0.40625 -1.3125,0.5 -1.28125,0.5 -1.21875,0.5625 -1.15625,0.625 -1.09375,0.65625 -1.0625,0.71875 -1,0.75 -0.96875,0.78125 -0.90625,0.8125 -0.84375,0.875 -0.84375,0.90625 -0.75,0.9375 -0.78125,0.96875 -0.6875,1 -0.625,1.03125 -0.59375,1.0625 -0.5625,1.09375 -0.53125,1.125 -0.46875,1.125 -0.4375,1.15625 -0.40625,1.21875 -0.375,1.1875 -0.3125,1.25 -0.28125,1.25 -0.25,1.28125 -0.21875,1.28125 -0.15625,1.28125 -0.15625,1.3125 -0.0937,1.3125 -0.0937,1.34375 -0.0625,1.34375 0,1.34375 0.0312,1.75 0.0937,1.71875 0.125,1.65625 0.1875,1.625 0.25,1.59375 0.28125,1.53125 0.3125,1.5 0.40625,1.4375 0.375,1.375 0.5,1.34375 0.5,1.3125 0.5625,1.25 0.625,1.21875 0.625,1.15625 0.6875,1.125 0.71875,1.0625 0.75,1.0625 0.8125,0.96875 0.84375,0.9375 0.84375,0.90625 0.875,0.875 0.90625,0.78125 0.96875,0.78125 1,0.71875 1,0.65625 1.03125,0.65625 1.0625,0.5625 1.09375,0.5625 1.09375,0.5 1.125,0.4375 1.15625,0.4375 1.15625,0.34375 1.21875,0.34375 1.1875,0.28125 1.25,0.25 1.21875,0.1875 1.25,0.15625 1.28125,0.0937 1.28125,0.0625 1.28125,0.0312 1.28125,-0.0312 1.28125,-0.0625 1.25,-0.0937 1.28125,-0.15625 1.21875,-0.1875 1.21875,-0.25 1.1875,-0.28125 1.21875,-0.34375 1.15625,-0.34375 1.15625,-0.4375 1.125,-0.4375 1.125,-0.5 1.0625,-0.5625 1.09375,-0.5625 1,-0.65625 1.03125,-0.65625 0.96875,-0.71875 0.96875,-0.78125 0.90625,-0.78125 0.875,-0.875 0.875,-0.90625 0.84375,-0.9375 0.78125,-0.96875 0.75,-1.0625 0.71875,-1.0625 0.6875,-1.125 0.625,-1.15625 0.625,-1.21875 0.53125,-1.25 0.53125,-1.3125 0.5,-1.34375 0.4375,-1.375 0.34375,-1.4375 0.375,-1.5 0.28125,-1.53125 0.21875,-1.59375 0.15625,-1.625 0.1875,-1.65625 0.0625,-1.71875 0,-1.75 0,-1.34375 -0.0312,-1.34375 -0.0937,-1.34375 -0.125,-1.3125 -0.15625,-1.3125 -0.15625,-1.28125 -0.1875,-1.28125 -0.28125,-1.28125 -0.28125,-1.25 -0.3125,-1.25 -0.375,-1.1875 -0.40625,-1.21875 -0.4375,-1.15625 -0.46875,-1.125 -0.53125,-1.125 -0.5625,-1.09375 -0.59375,-1.0625 -0.625,-1.03125 -0.6875,-1 -0.71875,-0.96875 -0.8125,-0.9375 -0.8125,-0.90625 -0.875,-0.875 -0.90625,-0.8125 -0.96875,-0.78125 -1,-0.75 -1.03125,-0.71875 -1.125,-0.65625 -1.15625,-0.625 -1.21875,-0.5625 -1.21875,-0.5 -1.34375,-0.5 -1.34375,-0.40625 -1.4375,-0.375 -1.4375,-0.3125 -1.5625,-0.25 -1.5625,-0.21875 -1.65625,-0.15625 -1.6875,-0.0937 -1.75,0 -1.75,0 z m 1.75,11.4375 0.84375,0.0312 0.8125,0.0625 0.78125,0.0937 0.8125,0.125 0.75,0.15625 0.71875,0.21875 0.6875,0.21875 0.6875,0.25 0.6875,0.3125 0.625,0.3125 0.59375,0.34375 0.59375,0.375 0.5625,0.4375 0.53125,0.46875 0.53125,0.46875 0.5,0.5 0.5,0.53125 0.4375,0.5625 0.4375,0.59375 0.40625,0.625 0.375,0.625 0.375,0.6875 0.375,0.6875 0.3125,0.71875 0.28125,0.71875 0.28125,0.78125 0.28125,0.78125 0.21875,0.84375 0.25,0.8125 0.1875,0.84375 0.1875,0.90625 0.15625,0.875 0.15625,0.90625 0.125,0.9375 0.0625,0.9375 0.125,1 0.0312,0.96875 0.0625,1 0.0312,1.03125 0,1.03125 0,0.875 0,0.84375 -0.0312,0.875 -0.0937,0.84375 -0.0937,0.84375 -0.0625,0.84375 -0.125,0.84375 -0.125,0.84375 -0.125,0.8125 -0.15625,0.8125 -0.1875,0.78125 -0.21875,0.8125 -0.21875,0.78125 -0.25,0.75 -0.25,0.75 -0.28125,0.75 -0.3125,0.6875 -0.3125,0.6875 -0.375,0.6875 -0.34375,0.65625 -0.40625,0.625 -0.4375,0.625 -0.4375,0.59375 -0.4375,0.5625 -0.53125,0.53125 -0.5,0.53125 -0.53125,0.46875 -0.5625,0.46875 -0.59375,0.40625 -0.65625,0.40625 -0.625,0.34375 -0.6875,0.34375 -0.6875,0.28125 -0.75,0.25 -0.71875,0.21875 -0.8125,0.1875 -0.84375,0.15625 -0.84375,0.0937 -0.875,0.0625 -0.875,0.0312 -0.90625,-0.0312 -0.90625,-0.0625 -0.8125,-0.0937 -0.8125,-0.15625 -0.8125,-0.1875 -0.75,-0.21875 -0.71875,-0.25 -0.71875,-0.28125 -0.6875,-0.34375 -0.625,-0.34375 -0.625,-0.40625 -0.59375,-0.40625 -0.5625,-0.46875 -0.5625,-0.46875 -0.5,-0.53125 -0.5,-0.53125 -0.46875,-0.5625 -0.4375,-0.59375 -0.40625,-0.625 -0.40625,-0.625 -0.40625,-0.65625 -0.3125,-0.6875 -0.34375,-0.6875 -0.28125,-0.6875 -0.28125,-0.75 -0.28125,-0.75 -0.25,-0.75 -0.1875,-0.78125 -0.25,-0.8125 -0.15625,-0.78125 -0.15625,-0.8125 -0.15625,-0.8125 -0.125,-0.84375 -0.125,-0.84375 -0.0937,-0.84375 -0.0625,-0.84375 -0.0312,-0.84375 -0.0625,-0.875 -0.0312,-0.84375 0,-0.875 0,-1.03125 0.0312,-1.03125 0.0625,-1 0.0625,-0.96875 0.0937,-1 0.125,-0.9375 0.0937,-0.9375 0.125,-0.90625 0.15625,-0.875 0.21875,-0.90625 0.1875,-0.84375 0.21875,-0.8125 0.21875,-0.84375 0.28125,-0.78125 0.28125,-0.78125 0.3125,-0.71875 0.34375,-0.71875 0.34375,-0.6875 0.375,-0.6875 0.34375,-0.625 0.4375,-0.625 0.40625,-0.59375 0.5,-0.5625 0.46875,-0.53125 0.46875,-0.5 0.53125,-0.46875 0.5625,-0.46875 0.5625,-0.4375 0.5625,-0.375 0.625,-0.34375 0.65625,-0.3125 0.625,-0.3125 0.6875,-0.25 0.71875,-0.21875 0.71875,-0.21875 0.75,-0.15625 0.78125,-0.125 0.78125,-0.0937 0.84375,-0.0625 0.84375,-0.0312 z"
   style="fill:#000000;fill-opacity:1;stroke:none"
   inkscape:connector-curvature="0" />
</g><g
     style="fill:#000000;fill-opacity:1;stroke:none"
     id="LWPOLYLINE_3_">
	
		<path
   id="polygon13"
   d="M 306.8125,325.9375 303.875,326 l -2.8125,0.25 -2.71875,0.375 -2.5625,0.53125 -2.4375,0.6875 -2.3125,0.8125 -2.21875,0.9375 -2.09375,1.0625 -2,1.15625 -1.90625,1.28125 -1.75,1.40625 -1.6875,1.5 -1.59375,1.5625 -1.46875,1.6875 -1.40625,1.75 -1.3125,1.84375 -1.21875,1.875 -1.125,2 -1.0625,2 -0.96875,2.09375 -0.90625,2.125 -0.8125,2.1875 -0.75,2.1875 -0.71875,2.25 -0.625,2.25 -0.5625,2.28125 -0.5,2.28125 -0.46875,2.3125 -0.40625,2.3125 -0.34375,2.28125 -0.28125,2.3125 -0.28125,2.25 -0.21875,2.28125 -0.15625,2.21875 -0.15625,2.15625 -0.125,2.1875 -0.0625,2.09375 -0.0625,2.0625 -0.0312,2 0,1.9375 0,2.3125 0.0625,2.3125 0.0625,2.34375 0.0937,2.375 0.15625,2.40625 0.1875,2.4375 0.21875,2.4375 0.28125,2.4375 0.3125,2.40625 0.34375,2.4375 0.4375,2.4375 0.4375,2.40625 0.5,2.40625 0.59375,2.375 0.625,2.34375 0.6875,2.3125 0.75,2.28125 0.8125,2.21875 0.875,2.1875 0.96875,2.125 1,2.09375 1.09375,2.03125 1.1875,1.90625 1.21875,1.90625 1.3125,1.78125 1.40625,1.71875 1.5,1.65625 1.5625,1.53125 1.65625,1.46875 1.78125,1.3125 1.84375,1.25 1.9375,1.125 2.03125,1.03125 2.15625,0.875 2.21875,0.8125 2.34375,0.625 2.4375,0.5 2.5625,0.40625 2.625,0.1875 2.78125,0.0625 2.78125,-0.0625 2.65625,-0.1875 2.5625,-0.40625 2.46875,-0.5 2.3125,-0.625 2.25,-0.8125 2.15625,-0.875 2.09375,-1.03125 1.90625,-1.125 1.90625,-1.25 1.78125,-1.3125 1.6875,-1.46875 1.59375,-1.53125 1.53125,-1.65625 1.40625,-1.71875 1.34375,-1.78125 1.28125,-1.90625 1.21875,-1.90625 1.09375,-2.03125 1.0625,-2.09375 1,-2.125 0.875,-2.1875 0.875,-2.21875 0.78125,-2.28125 0.71875,-2.3125 0.625,-2.34375 0.59375,-2.375 0.5625,-2.40625 0.5,-2.40625 0.4375,-2.4375 0.34375,-2.4375 0.375,-2.40625 0.28125,-2.4375 0.21875,-2.4375 0.21875,-2.4375 0.15625,-2.40625 0.125,-2.375 0.0625,-2.34375 0.0625,-2.3125 0,-2.3125 0,-1.9375 -0.0625,-2 -0.0312,-2.0625 -0.0937,-2.09375 -0.0937,-2.1875 -0.1875,-2.15625 -0.15625,-2.21875 -0.21875,-2.28125 -0.25,-2.25 -0.3125,-2.3125 -0.375,-2.28125 -0.40625,-2.3125 -0.4375,-2.3125 -0.5,-2.28125 -0.625,-2.28125 -0.59375,-2.25 -0.71875,-2.25 -0.75,-2.1875 -0.84375,-2.1875 -0.90625,-2.125 -1,-2.09375 -1.09375,-2 -1.125,-2 -1.25,-1.875 -1.3439,-1.84375 -1.40625,-1.75 -1.53125,-1.6875 -1.59375,-1.5625 -1.71875,-1.5 -1.8125,-1.40625 -1.90625,-1.28125 -2.03125,-1.15625 -2.1875,-1.0625 -2.21875,-0.9375 -2.375,-0.8125 -2.5,-0.6875 -2.625,-0.53125 -2.75,-0.375 -2.84375,-0.25 -3.03125,-0.0625 z m 0,15.5625 1.59375,0.0312 1.46875,0.125 1.5,0.21875 1.375,0.28125 1.34375,0.40625 1.3125,0.4375 1.25,0.53125 1.15625,0.59375 1.15625,0.6875 1.09375,0.75 1.03125,0.84375 0.96875,0.90625 0.9375,0.96875 0.875,1.0625 0.84375,1.09375 0.8125,1.1875 0.75,1.21875 0.71875,1.3125 0.6875,1.375 0.65625,1.4375 0.59375,1.5 0.5625,1.5313 0.5,1.59375 0.5,1.65625 0.4375,1.71875 0.40625,1.78125 0.34375,1.84375 0.375,1.84375 0.3125,1.9375 0.28125,1.96875 0.25,2.03125 0.1875,2.0625 0.1875,2.09375 0.1875,2.15625 0.0937,2.1875 0.125,2.21875 0.0937,2.28125 0.0312,2.3125 0.0312,2.34375 0,2.375 0,1.875 0,1.84375 -0.0625,1.875 -0.0312,1.875 -0.0937,1.9375 -0.125,1.875 -0.125,1.875 -0.15625,1.9375 -0.15625,1.875 -0.25,1.875 -0.21875,1.84375 -0.25,1.84375 -0.3125,1.84375 -0.34375,1.78125 -0.34375,1.78125 -0.40625,1.71875 -0.4375,1.71875 -0.46875,1.6875 -0.53125,1.625 -0.59375,1.5625 -0.59375,1.5625 -0.65625,1.46875 -0.6875,1.46875 -0.75,1.375 -0.8125,1.34375 -0.8125,1.28125 -0.90625,1.1875 -0.9375,1.125 -1,1.0625 -1.0625,0.96875 -1.125,0.9375 -1.15625,0.78125 -1.21875,0.78125 -1.28125,0.625 -1.375,0.5625 -1.40625,0.46875 -1.46875,0.375 -1.5625,0.25 -1.59375,0.1875 -1.71875,0.0312 -1.625,-0.0312 -1.5625,-0.1875 -1.5,-0.25 -1.40625,-0.375 -1.375,-0.46875 -1.3125,-0.5625 -1.25,-0.625 -1.1875,-0.78125 -1.125,-0.78125 -1.0625,-0.9375 -1.0625,-0.96875 -0.9375,-1.0625 -0.9375,-1.125 -0.84375,-1.1875 -0.84375,-1.28125 -0.75,-1.34375 -0.71875,-1.375 -0.6875,-1.46875 -0.625,-1.46875 -0.59375,-1.5625 -0.53125,-1.5625 -0.53125,-1.625 -0.46875,-1.6875 -0.4375,-1.71875 -0.375,-1.71875 -0.375,-1.78125 -0.3125,-1.78125 -0.3125,-1.84375 -0.25,-1.84375 -0.21875,-1.84375 -0.21875,-1.875 -0.1875,-1.875 -0.125,-1.9375 -0.15625,-1.875 -0.0937,-1.875 -0.0937,-1.9375 -0.0625,-1.875 -0.0312,-1.875 -0.0312,-1.84375 0,-1.875 0,-2.375 0.0312,-2.34375 0.0625,-2.3125 0.0937,-2.28125 0.0937,-2.21875 0.125,-2.1875 0.15625,-2.15625 0.1875,-2.09375 0.21875,-2.0625 0.25,-2.03125 0.28125,-1.96875 0.28125,-1.9375 0.34375,-1.84375 0.375,-1.84375 0.40625,-1.78125 0.4375,-1.71875 0.4375,-1.65625 0.53125,-1.59375 0.53125,-1.53125 0.59375,-1.5 0.59375,-1.4375 0.65625,-1.375 0.71875,-1.3125 0.71875,-1.21875 0.78125,-1.1875 0.84375,-1.09375 0.875,-1.0625 0.90625,-0.96875 0.9375,-0.90625 1,-0.84375 1.0625,-0.75 1.09375,-0.6875 1.15625,-0.59375 1.1875,-0.53125 1.25,-0.4375 1.28125,-0.40625 1.375,-0.28125 1.375,-0.21875 1.46875,-0.125 1.5,-0.0312 z"
   style="fill:#000000;fill-opacity:1;stroke:none"
   inkscape:connector-curvature="0" />
</g><g
     style="fill:#000000;fill-opacity:1;stroke:none"
     id="LWPOLYLINE_1_">
	
		<path
   id="polygon7"
   d="M 193.6875,325.9375 190.75,326 l -2.8125,0.25 -2.6875,0.375 -2.5625,0.53125 -2.46875,0.6875 -2.3125,0.8125 -2.21875,0.9375 -2.09375,1.0625 -2,1.15625 -1.875,1.28125 -1.78125,1.40625 -1.65625,1.5 -1.59375,1.5625 -1.5,1.6875 -1.375,1.75 -1.34375,1.84375 -1.1875,1.875 -1.125,2 -1.0625,2 -1,2.09375 -0.90625,2.125 -0.8125,2.1875 -0.75,2.1875 -0.6875,2.25 -0.625,2.25 -0.5625,2.28125 -0.5,2.28125 -0.46875,2.3125 -0.40625,2.3125 -0.34375,2.28125 -0.3125,2.3125 -0.25,2.25 -0.21875,2.28125 -0.1875,2.21875 -0.15625,2.15625 -0.0937,2.1875 -0.0937,2.09375 -0.0312,2.0625 -0.0625,2 0,1.9375 0,2.3125 0.0625,2.3125 0.0625,2.34375 0.125,2.375 0.15625,2.40625 0.15625,2.4375 0.25,2.4375 0.25,2.4375 0.34375,2.40625 0.34375,2.4375 0.40625,2.4375 0.46875,2.40625 0.5,2.40625 0.5625,2.375 0.65625,2.34375 0.65625,2.3125 0.78125,2.28125 0.78125,2.21875 0.90625,2.1875 0.9375,2.125 1,2.09375 1.125,2.03125 1.15625,1.90625 1.25,1.90625 1.3125,1.78125 1.40625,1.71875 1.5,1.65625 1.5625,1.53125 1.65625,1.46875 1.78125,1.3125 1.8125,1.25 1.96875,1.125 2,1.03125 2.15625,0.875 2.21875,0.8125 2.34375,0.625 2.46875,0.5 2.53125,0.40625 2.65625,0.1875 2.75,0.0625 2.78125,-0.0625 2.6875,-0.1875 2.5625,-0.40625 2.4375,-0.5 2.34375,-0.625 2.25,-0.8125 2.15625,-0.875 2.0625,-1.03125 1.9375,-1.125 1.875,-1.25 1.78125,-1.3125 1.6875,-1.46875 1.59375,-1.53125 1.53125,-1.65625 1.4375,-1.71875 1.34375,-1.78125 1.28125,-1.90625 1.1875,-1.90625 1.125,-2.03125 1.0625,-2.09375 0.96875,-2.125 0.90625,-2.1875 0.84375,-2.21875 0.78125,-2.28125 0.71875,-2.3125 0.65625,-2.34375 0.59375,-2.375 0.53125,-2.40625 0.5,-2.40625 0.4375,-2.4375 0.375,-2.4375 0.34375,-2.40625 0.28125,-2.4375 0.21875,-2.4375 0.21875,-2.4375 0.15625,-2.40625 0.125,-2.375 0.0625,-2.34375 0.0625,-2.3125 0,-2.3125 0,-1.9375 -0.0312,-2 -0.0625,-2.0625 -0.0625,-2.09375 -0.125,-2.1875 -0.15625,-2.15625 -0.1875,-2.21875 -0.21875,-2.28125 -0.25,-2.25 -0.28125,-2.3125 -0.375,-2.28125 -0.40625,-2.3125 -0.46875,-2.3125 -0.5,-2.28125 -0.59375,-2.28125 -0.625,-2.25 -0.6875,-2.25 -0.78125,-2.1875 -0.84375,-2.1875 -0.90625,-2.125 -1,-2.09375 -1.0625,-2 -1.15625,-2 -1.25,-1.875 L 226.25,341 l -1.4375,-1.75 -1.5,-1.6875 L 221.6875,336 220,334.5 l -1.8125,-1.40625 -1.9375,-1.28125 -2.03125,-1.15625 -2.15625,-1.0625 -2.21875,-0.9375 -2.40625,-0.8125 -2.5,-0.6875 -2.59375,-0.53125 -2.75,-0.375 -2.875,-0.25 -3.03125,-0.0625 z m 0,15.5625 1.59375,0.0312 1.5,0.125 1.46875,0.21875 1.40625,0.28125 1.3125,0.40625 1.3125,0.4375 1.25,0.53125 1.1875,0.59375 1.125,0.6875 1.09375,0.75 1.03125,0.84375 0.96875,0.90625 0.9375,0.96875 0.90625,1.0625 0.84375,1.09375 0.8125,1.1875 0.75,1.21875 0.71875,1.3125 0.6875,1.375 0.625,1.4375 0.59375,1.5 0.5625,1.53125 0.53125,1.59375 0.46875,1.65625 0.4375,1.71875 0.40625,1.78125 0.375,1.84375 0.375,1.84375 0.28125,1.9375 0.28125,1.96875 0.25,2.03125 0.21875,2.0625 0.1875,2.09375 0.15625,2.15625 0.125,2.1875 0.0937,2.21875 0.0937,2.28125 0.0625,2.3125 0.0312,2.34375 0,2.375 0,1.875 -0.0312,1.84375 -0.0312,1.875 -0.0625,1.875 -0.0937,1.9375 -0.0937,1.875 -0.15625,1.875 -0.125,1.9375 -0.1875,1.875 -0.21875,1.875 -0.25,1.84375 -0.25,1.84375 -0.28125,1.84375 -0.34375,1.78125 -0.375,1.78125 -0.40625,1.71875 -0.4375,1.71875 -0.46875,1.6875 -0.53125,1.625 -0.5625,1.5625 -0.625,1.5625 -0.625,1.46875 -0.6875,1.46875 -0.75,1.375 -0.8125,1.34375 -0.84375,1.28125 -0.875,1.1875 -0.96875,1.125 -1,1.0625 -1.03125,0.96875 -1.125,0.9375 -1.1875,0.78125 -1.21875,0.78125 -1.28125,0.625 -1.34375,0.5625 -1.4375,0.46875 -1.46875,0.375 -1.53125,0.25 -1.625,0.1875 -1.71875,0.0312 -1.59375,-0.0312 -1.5625,-0.1875 -1.5,-0.25 -1.4375,-0.375 -1.3438,-0.4687 -1.34375,-0.5625 -1.21875,-0.625 -1.1875,-0.78125 -1.15625,-0.78125 -1.0625,-0.9375 -1.03125,-0.96875 -0.96875,-1.0625 -0.90625,-1.125 -0.875,-1.1875 -0.8125,-1.28125 -0.78125,-1.34375 -0.71875,-1.375 -0.65625,-1.46875 -0.65625,-1.46875 -0.59375,-1.5625 -0.53125,-1.5625 -0.5,-1.625 -0.46875,-1.6875 -0.4375,-1.71875 -0.40625,-1.71875 -0.34375,-1.78125 -0.3125,-1.78125 -0.3125,-1.84375 -0.25,-1.84375 -0.25,-1.84375 -0.1875,-1.875 -0.1875,-1.875 -0.15625,-1.9375 -0.125,-1.875 -0.0937,-1.875 -0.0937,-1.9375 -0.0625,-1.875 -0.0625,-1.875 0,-1.84375 0,-1.875 0,-2.375 0.0312,-2.34375 0.0625,-2.3125 0.0625,-2.28125 0.125,-2.21875 0.125,-2.1875 0.15625,-2.15625 0.1875,-2.09375 0.1875,-2.0625 0.28125,-2.03125 0.25,-1.96875 0.3125,-1.9375 0.3125,-1.84375 0.375,-1.84375 0.40625,-1.78125 0.4375,-1.71875 0.46875,-1.65625 0.5,-1.59375 0.5625,-1.53125 0.5625,-1.5 0.625,-1.4375 0.65625,-1.375 0.71875,-1.3125 0.71875,-1.21875 0.78125,-1.1875 0.8125,-1.09375 0.875,-1.0625 0.90625,-0.96875 0.96875,-0.90625 1,-0.84375 1.03125,-0.75 1.125,-0.6875 1.125,-0.59375 1.21875,-0.53125 1.21875,-0.4375 1.3125,-0.40625 1.34375,-0.28125 1.40625,-0.21875 1.4375,-0.125 1.5,-0.0312 z"
   style="fill:#000000;fill-opacity:1;stroke:none"
   inkscape:connector-curvature="0" />
</g><g
     style="fill:#000000;fill-opacity:1;stroke:none"
     id="LWPOLYLINE">
	
		<path
   style="fill:#000000;fill-opacity:1;stroke:none"
   id="path4"
   d="m 101.911,463.636 c 0.141,0 0.28,0 0.28,0 h 0.22 0.28 0.32 0.36 0.42 0.44 0.5 0.521 0.561 0.58 0.601 0.62 0.641 0.66 0.66 0.681 0.681 0.66 0.68 0.661 0.66 0.641 0.62 0.6 0.581 0.56 0.521 0.5 0.44 0.421 0.359 0.32 0.28 0.221 c 0.159,0 0.239,0 0.239,0 0.04,0 0.04,-0.279 0.04,-0.279 v -0.721 -1.201 -1.601 -2.041 -2.401 -2.762 -3.081 -3.402 -3.642 -3.922 -4.162 -4.362 -4.522 -4.723 -4.803 -4.923 -4.963 -5.042 -5.083 -5.062 -5.043 -5.003 -4.902 -4.822 -4.683 -4.542 -4.343 -4.162 -3.922 -3.683 -3.382 -3.102 -2.762 -2.4 -2.021 -1.621 -1.181 -0.74 -0.24 c -0.12,0 -0.279,0 -0.279,0 h -0.2 -0.262 -0.3 -0.36 -0.38 -0.44 -0.46 -0.501 -0.54 -0.54 -0.58 -0.601 -0.62 -0.621 -0.64 -0.641 -0.641 -0.64 -0.641 -0.641 -0.62 -0.62 -0.601 -0.58 -0.54 -0.541 -0.5 -0.46 -0.44 -0.38 -0.36 -0.301 -0.26 -0.2 c -0.16,0 -0.24,0 -0.24,0 -0.04,0 -0.601,0.5 -0.601,0.5 l -0.58,0.501 -0.6,0.5 -0.621,0.5 -0.62,0.521 -0.66,0.521 -0.66,0.54 -0.681,0.521 -0.7,0.54 -0.7,0.521 -0.741,0.54 -0.74,0.54 -0.74,0.561 -0.78,0.54 -0.78,0.541 -0.78,0.56 -0.82,0.541 -0.801,0.56 -0.841,0.561 -0.84,0.54 -0.841,0.561 -0.86,0.561 -0.881,0.54 -0.88,0.561 -0.881,0.54 -0.9,0.561 -0.921,0.54 -0.9,0.54 -0.92,0.541 -0.94,0.54 -0.94,0.54 -0.94,0.54 -0.94,0.521 -0.961,0.521 -0.961,0.521 -0.96,0.52 -0.98,0.521 -0.961,0.501 -0.98,0.5 -0.98,0.5 c 0,0.14 0,0.32 0,0.32 v 0.22 0.301 0.36 0.399 0.44 0.5 0.521 0.58 0.601 0.641 0.66 0.681 0.7 0.721 0.72 0.721 0.74 0.74 0.74 0.721 0.721 0.7 0.681 0.66 0.62 0.62 0.561 0.54 0.501 0.439 0.4 0.36 0.28 0.24 c 0,0.18 0,0.28 0,0.28 0,0.04 0.74,-0.28 0.74,-0.28 l 0.74,-0.32 0.781,-0.36 0.78,-0.36 0.78,-0.36 0.78,-0.38 0.82,-0.4 0.801,-0.42 0.82,-0.42 0.82,-0.421 0.841,-0.46 0.82,-0.44 0.84,-0.46 0.841,-0.48 0.841,-0.48 0.84,-0.5 0.86,-0.48 0.841,-0.52 0.841,-0.501 0.86,-0.52 0.84,-0.541 0.841,-0.52 0.841,-0.541 0.84,-0.54 0.82,-0.54 0.82,-0.561 0.821,-0.54 0.82,-0.561 0.8,-0.561 0.801,-0.56 0.801,-0.561 0.78,-0.561 0.78,-0.561 0.761,-0.56 0.74,-0.581 0.74,-0.56 0.721,-0.561 0.72,-0.561 0.7,-0.54 0.681,-0.561 v 113.937 z"
   stroke-miterlimit="10"
   inkscape:connector-curvature="0" />
</g><g
     style="fill:#000000;fill-opacity:1;stroke:none"
     id="LWPOLYLINE_9_">
	
		<path
   style="fill:#000000;fill-opacity:1;stroke:none"
   id="path31"
   d="m 427.305,471 0.16,-0.28 0.48,-0.8 0.76,-1.321 1.041,-1.801 1.28,-2.241 1.562,-2.682 1.761,-3.041 2.001,-3.442 2.161,-3.762 2.361,-4.082 2.521,-4.322 2.682,-4.643 2.801,-4.803 2.922,-5.043 3.002,-5.202 3.081,-5.323 3.162,-5.483 3.201,-5.522 3.242,-5.603 3.241,-5.604 3.282,-5.623 3.241,-5.583 3.202,-5.543 3.162,-5.442 3.081,-5.343 3.002,-5.203 2.921,-5.022 2.802,-4.843 2.682,-4.603 2.521,-4.362 2.361,-4.062 2.161,-3.762 2.001,-3.441 1.761,-3.042 1.561,-2.682 1.281,-2.241 1.04,-1.801 0.761,-1.32 0.48,-0.801 0.16,-0.28 c -0.08,0 -0.2,0 -0.2,0 -0.16,0 -0.36,0 -0.36,0 h -0.24 -0.28 -0.28 -0.32 -0.359 -0.4 -0.4 -0.4 -0.44 -0.479 -0.44 -0.48 -0.48 -0.521 -0.479 -0.48 -0.48 -0.48 -0.479 -0.48 -0.44 -0.44 -0.44 -0.399 -0.4 -0.32 -0.36 -0.28 -0.28 -0.24 c -0.199,0 -0.319,0 -0.319,0 -0.2,0 -0.24,0 -0.24,0 l -0.16,0.28 -0.48,0.801 -0.761,1.32 -1.04,1.801 -1.281,2.241 -1.561,2.682 -1.761,3.042 -2.001,3.441 -2.161,3.762 -2.361,4.062 -2.521,4.362 -2.682,4.603 -2.802,4.843 -2.881,5.022 -3.042,5.203 -3.081,5.343 -3.162,5.442 -3.202,5.543 -3.241,5.583 -3.253,5.623 -3.281,5.604 -3.202,5.603 -3.241,5.522 -3.122,5.483 -3.121,5.323 -3.002,5.202 -2.922,5.043 -2.801,4.803 -2.642,4.643 -2.521,4.322 -2.361,4.082 -2.201,3.762 -1.961,3.442 -1.801,3.041 -1.521,2.682 -1.32,2.241 -1.041,1.801 -0.76,1.321 -0.48,0.8 -0.16,0.28 h 13.125 z"
   stroke-miterlimit="10"
   inkscape:connector-curvature="0" />
</g></g></svg>