<?xml version="1.0" encoding="UTF-8" standalone="no"?>
<!-- Generator: Adobe Illustrator 16.0.1, SVG Export Plug-In . SVG Version: 6.00 Build 0)  -->

<svg
   xmlns:dc="http://purl.org/dc/elements/1.1/"
   xmlns:cc="http://creativecommons.org/ns#"
   xmlns:rdf="http://www.w3.org/1999/02/22-rdf-syntax-ns#"
   xmlns:svg="http://www.w3.org/2000/svg"
   xmlns="http://www.w3.org/2000/svg"
   xmlns:xlink="http://www.w3.org/1999/xlink"
   xmlns:sodipodi="http://sodipodi.sourceforge.net/DTD/sodipodi-0.dtd"
   xmlns:inkscape="http://www.inkscape.org/namespaces/inkscape"
   version="1.0"
   id="_x31_"
   x="0px"
   y="0px"
   width="350"
   height="350"
   viewBox="0 0 350 350"
   enable-background="new 0 0 612 792"
   xml:space="preserve"
   inkscape:version="0.48.2 r9819"
   sodipodi:docname="7003.svg"><metadata
   id="metadata97"><rdf:RDF><cc:Work
       rdf:about=""><dc:format>image/svg+xml</dc:format><dc:type
         rdf:resource="http://purl.org/dc/dcmitype/StillImage" /></cc:Work></rdf:RDF></metadata><defs
   id="defs95"><linearGradient
     y2="254.73526"
     x2="123.47623"
     y1="344.03848"
     x1="123.50603"
     gradientTransform="matrix(2.3189708,0,0,2.0930998,-543.56606,-225.82362)"
     gradientUnits="userSpaceOnUse"
     id="linearGradient3316"
     xlink:href="#linearGradient3187"
     inkscape:collect="always" /><radialGradient
     r="333.18735"
     fy="710.99164"
     fx="373.24265"
     cy="710.99164"
     cx="373.24265"
     gradientTransform="matrix(0.86272606,1.0667183e-7,-5.1097113e-8,0.31433999,-147.00618,81.557668)"
     gradientUnits="userSpaceOnUse"
     id="radialGradient3293"
     xlink:href="#linearGradient5443"
     inkscape:collect="always" /><radialGradient
     r="333.18735"
     fy="467.91885"
     fx="373.24265"
     cy="467.91885"
     cx="373.24265"
     gradientTransform="matrix(0.83535069,2.5391116e-7,-2.4564601e-7,0.80815885,-136.78853,-203.153)"
     gradientUnits="userSpaceOnUse"
     id="radialGradient3289"
     xlink:href="#linearGradient5443"
     inkscape:collect="always" /><radialGradient
     r="333.18735"
     fy="467.91885"
     fx="373.24265"
     cy="467.91885"
     cx="373.24265"
     gradientTransform="matrix(0.83393192,2.4025531e-7,-2.452288e-7,0.76469446,-575.89311,126.3946)"
     gradientUnits="userSpaceOnUse"
     id="radialGradient3277"
     xlink:href="#linearGradient5443"
     inkscape:collect="always" /><linearGradient
     y2="254.73526"
     x2="123.47623"
     y1="344.03848"
     x1="123.50603"
     gradientTransform="matrix(2.3189708,0,0,2.0930998,-543.56606,-225.82362)"
     gradientUnits="userSpaceOnUse"
     id="linearGradient3275"
     xlink:href="#linearGradient3187"
     inkscape:collect="always" /><radialGradient
     r="333.18735"
     fy="710.99164"
     fx="373.24265"
     cy="710.99164"
     cx="373.24265"
     gradientTransform="matrix(0.8612608,1.0093481e-7,-5.1010329e-8,0.29743416,-586.09339,395.79293)"
     gradientUnits="userSpaceOnUse"
     id="radialGradient3273"
     xlink:href="#linearGradient5443"
     inkscape:collect="always" /><radialGradient
     r="333.18735"
     fy="467.91885"
     fx="373.24265"
     cy="467.91885"
     cx="373.24265"
     gradientTransform="matrix(0.83393192,2.4025531e-7,-2.452288e-7,0.76469446,-575.89311,126.3946)"
     gradientUnits="userSpaceOnUse"
     id="radialGradient3257"
     xlink:href="#linearGradient5443"
     inkscape:collect="always" /><linearGradient
     y2="254.73526"
     x2="123.47623"
     y1="344.03848"
     x1="123.50603"
     gradientTransform="matrix(2.3189708,0,0,2.0930998,-543.56606,-225.82362)"
     gradientUnits="userSpaceOnUse"
     id="linearGradient3255"
     xlink:href="#linearGradient3187"
     inkscape:collect="always" /><radialGradient
     r="333.18735"
     fy="710.99164"
     fx="373.24265"
     cy="710.99164"
     cx="373.24265"
     gradientTransform="matrix(0.8612608,1.0093481e-7,-5.1010329e-8,0.29743416,-586.09339,395.79293)"
     gradientUnits="userSpaceOnUse"
     id="radialGradient3253"
     xlink:href="#linearGradient5443"
     inkscape:collect="always" /><linearGradient
     id="linearGradient5443"><stop
       id="stop5445"
       offset="0"
       style="stop-color:#ffffff;stop-opacity:0;" /><stop
       id="stop5447"
       offset="1"
       style="stop-color:#000000;stop-opacity:0.33962265;" /></linearGradient><linearGradient
     id="linearGradient3157"><stop
       style="stop-color:#49bcff;stop-opacity:1;"
       offset="0"
       id="stop3159" /><stop
       style="stop-color:#494c96;stop-opacity:1;"
       offset="1"
       id="stop3161" /></linearGradient><linearGradient
     id="linearGradient3171"><stop
       id="stop3173"
       offset="0"
       style="stop-color:#49bcff;stop-opacity:1;" /><stop
       id="stop3175"
       offset="1"
       style="stop-color:#494cdc;stop-opacity:1;" /></linearGradient><linearGradient
     id="linearGradient3187"><stop
       style="stop-color:#ffffff;stop-opacity:0.39622641;"
       offset="0"
       id="stop3189" /><stop
       style="stop-color:#000000;stop-opacity:1;"
       offset="1"
       id="stop3191" /></linearGradient><linearGradient
     id="linearGradient4395"><stop
       style="stop-color:#110084;stop-opacity:1;"
       offset="0"
       id="stop4397" /><stop
       style="stop-color:#a695ff;stop-opacity:1;"
       offset="1"
       id="stop4399" /></linearGradient><linearGradient
     id="linearGradient4383"><stop
       style="stop-color:#00037f;stop-opacity:1;"
       offset="0"
       id="stop4385" /><stop
       style="stop-color:#00037f;stop-opacity:0;"
       offset="1"
       id="stop4387" /></linearGradient><inkscape:perspective
     sodipodi:type="inkscape:persp3d"
     inkscape:vp_x="0 : 526.18109 : 1"
     inkscape:vp_y="0 : 1000 : 0"
     inkscape:vp_z="744.09448 : 526.18109 : 1"
     inkscape:persp3d-origin="372.04724 : 350.78739 : 1"
     id="perspective3214" /><linearGradient
     inkscape:collect="always"
     xlink:href="#linearGradient4383"
     id="linearGradient4389"
     x1="371.42194"
     y1="298.59412"
     x2="396.91168"
     y2="655.4505"
     gradientUnits="userSpaceOnUse" /><linearGradient
     inkscape:collect="always"
     xlink:href="#linearGradient4395"
     id="linearGradient4401"
     x1="360.49777"
     y1="167.50403"
     x2="360.49777"
     y2="540.86719"
     gradientUnits="userSpaceOnUse" /><linearGradient
     inkscape:collect="always"
     xlink:href="#linearGradient3187"
     id="linearGradient4562"
     gradientUnits="userSpaceOnUse"
     gradientTransform="matrix(2.3189708,0,0,2.0930998,93.115298,-256.84999)"
     x1="123.50603"
     y1="344.03848"
     x2="123.47623"
     y2="254.73526" /><radialGradient
     inkscape:collect="always"
     xlink:href="#linearGradient3171"
     id="radialGradient4569"
     gradientUnits="userSpaceOnUse"
     gradientTransform="matrix(0.9201975,2.7970099e-7,-2.7059634e-7,0.8902438,28.590287,48.634335)"
     cx="373.24265"
     cy="467.91885"
     fx="373.24265"
     fy="467.91885"
     r="333.18735" /><radialGradient
     inkscape:collect="always"
     xlink:href="#linearGradient3157"
     id="radialGradient4572"
     gradientUnits="userSpaceOnUse"
     gradientTransform="matrix(0.9503534,1.1750652e-7,-5.6287062e-8,0.3462676,17.334826,362.44227)"
     cx="373.24265"
     cy="710.99164"
     fx="373.24265"
     fy="710.99164"
     r="333.18735" /><filter
     inkscape:collect="always"
     id="filter4659"
     color-interpolation-filters="sRGB"><feGaussianBlur
       inkscape:collect="always"
       stdDeviation="2.7750933"
       id="feGaussianBlur4661" /></filter><radialGradient
     inkscape:collect="always"
     xlink:href="#linearGradient3157"
     id="radialGradient4766"
     gradientUnits="userSpaceOnUse"
     gradientTransform="matrix(0.9503534,1.1750652e-7,-5.6287062e-8,0.3462676,17.334826,362.44227)"
     cx="373.24265"
     cy="710.99164"
     fx="373.24265"
     fy="710.99164"
     r="333.18735" /><radialGradient
     inkscape:collect="always"
     xlink:href="#linearGradient3171"
     id="radialGradient4768"
     gradientUnits="userSpaceOnUse"
     gradientTransform="matrix(0.9201975,2.7970099e-7,-2.7059634e-7,0.8902438,28.590287,48.634335)"
     cx="373.24265"
     cy="467.91885"
     fx="373.24265"
     fy="467.91885"
     r="333.18735" /><linearGradient
     inkscape:collect="always"
     xlink:href="#linearGradient3187"
     id="linearGradient4770"
     gradientUnits="userSpaceOnUse"
     gradientTransform="matrix(2.3189708,0,0,2.0930998,93.115298,-256.84999)"
     x1="123.50603"
     y1="344.03848"
     x2="123.47623"
     y2="254.73526" /><linearGradient
     inkscape:collect="always"
     xlink:href="#linearGradient3187"
     id="linearGradient4773"
     gradientUnits="userSpaceOnUse"
     gradientTransform="matrix(2.3189708,0,0,2.0930998,93.115298,-256.84999)"
     x1="123.50603"
     y1="344.03848"
     x2="123.47623"
     y2="254.73526" /><radialGradient
     inkscape:collect="always"
     xlink:href="#linearGradient3171"
     id="radialGradient4776"
     gradientUnits="userSpaceOnUse"
     gradientTransform="matrix(0.9201975,2.7970099e-7,-2.7059634e-7,0.8902438,28.590287,48.634335)"
     cx="373.24265"
     cy="467.91885"
     fx="373.24265"
     fy="467.91885"
     r="333.18735" /><radialGradient
     inkscape:collect="always"
     xlink:href="#linearGradient3157"
     id="radialGradient4779"
     gradientUnits="userSpaceOnUse"
     gradientTransform="matrix(0.9503534,1.1750652e-7,-5.6287062e-8,0.3462676,17.334826,362.44227)"
     cx="373.24265"
     cy="710.99164"
     fx="373.24265"
     fy="710.99164"
     r="333.18735" /><radialGradient
     inkscape:collect="always"
     xlink:href="#linearGradient3157"
     id="radialGradient4790"
     gradientUnits="userSpaceOnUse"
     gradientTransform="matrix(0.9503534,1.1750652e-7,-5.6287062e-8,0.3462676,17.334826,362.44227)"
     cx="373.24265"
     cy="710.99164"
     fx="373.24265"
     fy="710.99164"
     r="333.18735" /><radialGradient
     inkscape:collect="always"
     xlink:href="#linearGradient3171"
     id="radialGradient4792"
     gradientUnits="userSpaceOnUse"
     gradientTransform="matrix(0.9201975,2.7970099e-7,-2.7059634e-7,0.8902438,28.590287,48.634335)"
     cx="373.24265"
     cy="467.91885"
     fx="373.24265"
     fy="467.91885"
     r="333.18735" /><linearGradient
     inkscape:collect="always"
     xlink:href="#linearGradient3187"
     id="linearGradient4794"
     gradientUnits="userSpaceOnUse"
     gradientTransform="matrix(2.3189708,0,0,2.0930998,93.115298,-256.84999)"
     x1="123.50603"
     y1="344.03848"
     x2="123.47623"
     y2="254.73526" /><linearGradient
     inkscape:collect="always"
     xlink:href="#linearGradient3187"
     id="linearGradient4799"
     gradientUnits="userSpaceOnUse"
     gradientTransform="matrix(2.3189708,0,0,2.0930998,93.115298,-256.84999)"
     x1="123.50603"
     y1="344.03848"
     x2="123.47623"
     y2="254.73526" /><radialGradient
     inkscape:collect="always"
     xlink:href="#linearGradient3171"
     id="radialGradient4802"
     gradientUnits="userSpaceOnUse"
     gradientTransform="matrix(0.9201975,2.7970099e-7,-2.7059634e-7,0.8902438,28.590287,48.634335)"
     cx="373.24265"
     cy="467.91885"
     fx="373.24265"
     fy="467.91885"
     r="333.18735" /><radialGradient
     inkscape:collect="always"
     xlink:href="#linearGradient3157"
     id="radialGradient4805"
     gradientUnits="userSpaceOnUse"
     gradientTransform="matrix(0.9503534,1.1750652e-7,-5.6287062e-8,0.3462676,17.334826,362.44227)"
     cx="373.24265"
     cy="710.99164"
     fx="373.24265"
     fy="710.99164"
     r="333.18735" /><radialGradient
     inkscape:collect="always"
     xlink:href="#linearGradient3157"
     id="radialGradient4820"
     gradientUnits="userSpaceOnUse"
     gradientTransform="matrix(0.9503534,1.1750652e-7,-5.6287062e-8,0.3462676,17.334826,362.44227)"
     cx="373.24265"
     cy="710.99164"
     fx="373.24265"
     fy="710.99164"
     r="333.18735" /><radialGradient
     inkscape:collect="always"
     xlink:href="#linearGradient3171"
     id="radialGradient4822"
     gradientUnits="userSpaceOnUse"
     gradientTransform="matrix(0.9201975,2.7970099e-7,-2.7059634e-7,0.8902438,28.590287,48.634335)"
     cx="373.24265"
     cy="467.91885"
     fx="373.24265"
     fy="467.91885"
     r="333.18735" /><linearGradient
     inkscape:collect="always"
     xlink:href="#linearGradient3187"
     id="linearGradient4824"
     gradientUnits="userSpaceOnUse"
     gradientTransform="matrix(2.3189708,0,0,2.0930998,93.115298,-256.84999)"
     x1="123.50603"
     y1="344.03848"
     x2="123.47623"
     y2="254.73526" /><linearGradient
     inkscape:collect="always"
     xlink:href="#linearGradient3187"
     id="linearGradient4827"
     gradientUnits="userSpaceOnUse"
     gradientTransform="matrix(2.3189708,0,0,2.0930998,-543.56606,-225.82362)"
     x1="123.50603"
     y1="344.03848"
     x2="123.47623"
     y2="254.73526" /><radialGradient
     inkscape:collect="always"
     xlink:href="#linearGradient5443"
     id="radialGradient4832"
     gradientUnits="userSpaceOnUse"
     gradientTransform="matrix(0.83393192,2.4025531e-7,-2.452288e-7,0.76469446,-575.89311,126.3946)"
     cx="373.24265"
     cy="467.91885"
     fx="373.24265"
     fy="467.91885"
     r="333.18735" /><radialGradient
     inkscape:collect="always"
     xlink:href="#linearGradient5443"
     id="radialGradient4835"
     gradientUnits="userSpaceOnUse"
     gradientTransform="matrix(0.8612608,1.0093481e-7,-5.1010329e-8,0.29743416,-586.09339,395.79293)"
     cx="373.24265"
     cy="710.99164"
     fx="373.24265"
     fy="710.99164"
     r="333.18735" /><filter
     inkscape:collect="always"
     id="filter5511"
     color-interpolation-filters="sRGB"><feGaussianBlur
       inkscape:collect="always"
       stdDeviation="3.2374974"
       id="feGaussianBlur5513" /></filter><radialGradient
     inkscape:collect="always"
     xlink:href="#linearGradient5443-5"
     id="radialGradient4835-3"
     gradientUnits="userSpaceOnUse"
     gradientTransform="matrix(0.9503534,1.1750652e-7,-5.6287062e-8,0.3462676,317.80591,185.68771)"
     cx="373.24265"
     cy="710.99164"
     fx="373.24265"
     fy="710.99164"
     r="333.18735" /><linearGradient
     id="linearGradient5443-5"><stop
       id="stop5445-4"
       offset="0"
       style="stop-color:#ffffff;stop-opacity:0;" /><stop
       id="stop5447-3"
       offset="1"
       style="stop-color:#000000;stop-opacity:0.33962265;" /></linearGradient><radialGradient
     inkscape:collect="always"
     xlink:href="#linearGradient5443"
     id="radialGradient2890"
     gradientUnits="userSpaceOnUse"
     gradientTransform="matrix(0.8612608,1.0093481e-7,-5.1010329e-8,0.29743416,-586.09339,395.79293)"
     cx="373.24265"
     cy="710.99164"
     fx="373.24265"
     fy="710.99164"
     r="333.18735" /><linearGradient
     inkscape:collect="always"
     xlink:href="#linearGradient3187"
     id="linearGradient2892"
     gradientUnits="userSpaceOnUse"
     gradientTransform="matrix(2.3189708,0,0,2.0930998,-543.56606,-225.82362)"
     x1="123.50603"
     y1="344.03848"
     x2="123.47623"
     y2="254.73526" /><radialGradient
     inkscape:collect="always"
     xlink:href="#linearGradient5443"
     id="radialGradient2894"
     gradientUnits="userSpaceOnUse"
     gradientTransform="matrix(0.83393192,2.4025531e-7,-2.452288e-7,0.76469446,-575.89311,126.3946)"
     cx="373.24265"
     cy="467.91885"
     fx="373.24265"
     fy="467.91885"
     r="333.18735" /><radialGradient
     inkscape:collect="always"
     xlink:href="#linearGradient5443"
     id="radialGradient3547"
     gradientUnits="userSpaceOnUse"
     gradientTransform="matrix(0.83535069,2.5391116e-7,-2.4564601e-7,0.80815885,-136.78851,-203.15299)"
     cx="373.24265"
     cy="467.91885"
     fx="373.24265"
     fy="467.91885"
     r="333.18735" /><radialGradient
     inkscape:collect="always"
     xlink:href="#linearGradient5443"
     id="radialGradient3551"
     gradientUnits="userSpaceOnUse"
     gradientTransform="matrix(0.86272606,1.0667183e-7,-5.1097113e-8,0.31433999,-147.00617,81.557672)"
     cx="373.24265"
     cy="710.99164"
     fx="373.24265"
     fy="710.99164"
     r="333.18735" /><linearGradient
     inkscape:collect="always"
     xlink:href="#linearGradient3187"
     id="linearGradient3593"
     gradientUnits="userSpaceOnUse"
     gradientTransform="matrix(2.3189708,0,0,2.0930998,-543.56606,-225.82362)"
     x1="123.50603"
     y1="344.03848"
     x2="123.47623"
     y2="254.73526" /></defs><sodipodi:namedview
   pagecolor="#ffffff"
   bordercolor="#666666"
   borderopacity="1"
   objecttolerance="10"
   gridtolerance="10"
   guidetolerance="10"
   inkscape:pageopacity="0"
   inkscape:pageshadow="2"
   inkscape:window-width="1920"
   inkscape:window-height="1071"
   id="namedview93"
   showgrid="false"
   inkscape:zoom="0.84281414"
   inkscape:cx="547.01366"
   inkscape:cy="-59.74903"
   inkscape:window-x="0"
   inkscape:window-y="0"
   inkscape:window-maximized="1"
   inkscape:current-layer="_x31_"
   fit-margin-top="0"
   fit-margin-left="0"
   fit-margin-right="0"
   fit-margin-bottom="0" />
<g
   id="LWPOLYLINE"
   style="fill:#000000;fill-opacity:1;stroke:none"
   transform="translate(434.84376,-92.566468)">
	
		
</g>


<g
   id="LWPOLYLINE_3_"
   style="fill:#000000;fill-opacity:1;stroke:none"
   transform="translate(434.84376,-92.566468)">
	
		
</g>




<g
   id="LINE"
   transform="translate(434.84376,-92.566468)">
	
		
</g>


<g
   id="LINE_3_"
   transform="translate(434.84376,-92.566468)">
	
		
</g>
<g
   id="LINE_4_"
   transform="translate(434.84376,-92.566468)">
	
		
</g>
<g
   id="LINE_5_"
   transform="translate(434.84376,-92.566468)">
	
		
</g>
<g
   id="LINE_6_"
   transform="translate(434.84376,-92.566468)">
	
		
</g>
<g
   id="LINE_7_"
   transform="translate(434.84376,-92.566468)">
	
		
</g>
<g
   id="LINE_8_"
   transform="translate(434.84376,-92.566468)">
	
		
</g>

<g
   id="LINE_10_"
   transform="translate(434.84376,-92.566468)">
	
		
</g>



<g
   id="LWPOLYLINE_9_"
   transform="translate(434.84376,-92.566468)">
	
		
</g>

<g
   id="LWPOLYLINE_11_"
   transform="translate(434.84376,-92.566468)">
	
		
</g>
<g
   id="LWPOLYLINE_12_"
   style="fill:#000000;fill-opacity:1;stroke:none"
   transform="translate(434.84376,-92.566468)">
	
		
</g>




<g
   id="LWPOLYLINE_6_-9"
   style="fill:#000000;fill-opacity:1;stroke:none"
   transform="translate(561.7994,-83.074462)">
	
		
</g><g
   id="LWPOLYLINE-1"
   style="fill:#000000;fill-opacity:1;stroke:none"
   transform="translate(561.7994,-83.074462)">
	
		
</g><g
   id="LWPOLYLINE_3_-7"
   style="fill:#000000;fill-opacity:1;stroke:none"
   transform="translate(561.7994,-83.074462)">
	
		
</g><rect
   inkscape:export-ydpi="29.879425"
   inkscape:export-xdpi="29.879425"
   inkscape:export-filename="C:\Documents and Settings\adscro24\Desktop\128.png"
   style="opacity:0.61338286;fill:#464646;fill-opacity:0.78540775;stroke:none;filter:url(#filter4659)"
   id="rect3279"
   width="152.93848"
   height="152.93848"
   x="135.39355"
   y="48.636749"
   rx="16.067965"
   ry="12.45238"
   transform="matrix(2.1051501,0,0,2.1051501,-271.00298,-88.366886)" /><rect
   inkscape:export-ydpi="29.879425"
   inkscape:export-xdpi="29.879425"
   inkscape:export-filename="C:\Documents and Settings\adscro24\Desktop\128.png"
   style="opacity:0.61338286;fill:url(#radialGradient3551);fill-opacity:1;stroke:#000000;stroke-width:3.26806188;stroke-miterlimit:4;stroke-opacity:1;stroke-dasharray:none"
   id="rect3155"
   width="321.95847"
   height="321.95844"
   x="14.020758"
   y="14.020782"
   rx="33.825478"
   ry="26.214128" /><path
   transform="matrix(0.907795,0,0,0.90779498,415.23353,-264.5632)"
   inkscape:export-ydpi="29.879425"
   inkscape:export-xdpi="29.879425"
   inkscape:export-filename="C:\Documents and Settings\adscro24\Desktop\128.png"
   inkscape:connector-curvature="0"
   style="opacity:0.61338286;fill:url(#linearGradient3593);fill-opacity:1;stroke:none;filter:url(#filter5511)"
   d="m -397.80626,329.07489 c -19.62748,0 -35.44272,12.0976 -35.44272,27.14163 l 0,124.30857 c 29.25482,11.38638 132.70149,11.89599 165.40488,-5.79022 33.32802,-18.02397 127.54379,-68.44264 171.824837,-52.72052 l 0,-65.79783 c 0,-15.04403 -15.798597,-27.14163 -35.426097,-27.14163 l -266.3609,0 z m -35.44272,263.47103 0,42.88373 c 0,1.33144 0.14331,2.63588 0.38253,3.915 -0.11919,-12.81092 -0.25965,-28.88939 -0.38253,-46.79873 z"
   id="rect3177" /><rect
   inkscape:export-ydpi="29.879425"
   inkscape:export-xdpi="29.879425"
   inkscape:export-filename="C:\Documents and Settings\adscro24\Desktop\128.png"
   style="opacity:0.61338286;fill:url(#radialGradient3547);fill-opacity:1;stroke:#ffffff;stroke-width:0.68992418;stroke-linecap:square;stroke-miterlimit:4;stroke-opacity:1;stroke-dasharray:none"
   id="rect3473"
   width="306.12445"
   height="306.12445"
   x="21.93778"
   y="21.937773"
   rx="32.161926"
   ry="24.924911" /><rect
   inkscape:export-ydpi="29.879425"
   inkscape:export-xdpi="29.879425"
   inkscape:export-filename="C:\Documents and Settings\adscro24\Desktop\128.png"
   style="opacity:0.61338286;fill:#ffffff;fill-opacity:0;stroke:#000000;stroke-width:3.26806188;stroke-miterlimit:4;stroke-opacity:1;stroke-dasharray:none"
   id="rect3155-2"
   width="321.95847"
   height="321.95844"
   x="14.020758"
   y="14.020782"
   rx="33.825478"
   ry="26.214128" /><g
   id="g3557"
   transform="matrix(0.49950645,0,0,0.49950645,22.165916,-22.750946)"><g
     style="fill:#000000;fill-opacity:1;stroke:none"
     id="LWPOLYLINE_1_">
	
		<path
   inkscape:connector-curvature="0"
   id="path7"
   d="m 263.15625,545.46875 c -0.44299,32.8366 -0.057,65.77955 -0.1875,98.65625 11.27054,4.05309 13.44636,-1.41304 11.9375,-10.37011 0.1729,-10.90045 -0.34055,-22.33679 0.25,-32.91114 13.70295,-10e-4 30.94986,2.07753 39.25,-11.6249 7.85522,-14.00541 4.73353,-37.37134 -12.71875,-42.3125 -12.51993,-2.79093 -25.78204,-0.87173 -38.53125,-1.4376 z m 11.75,11.0625 c 9.59965,0.84588 22.65745,-3.33654 28.5625,6.9373 6.23251,10.75715 -0.62955,27.18125 -14.12505,26.3123 -4.8125,0 -9.625,0 -14.4375,0 3e-5,-11.08293 -7e-5,-22.168 5e-5,-33.2496 z"
   style="fill:#000000;fill-opacity:1;stroke:none" />
</g><g
     style="fill:#000000;fill-opacity:1;stroke:none"
     id="LWPOLYLINE_2_">
	
		<path
   inkscape:connector-curvature="0"
   id="path10"
   d="m 365.1875,543.78125 c -14.08556,-1.06095 -28.46732,8.64295 -29.96875,23.2499 -1.32912,16.40011 -0.74223,33.01311 -0.26592,49.4552 0.34023,13.32159 8.64755,27.77335 23.07842,28.9823 13.33751,2.51934 30.07798,-1.87921 34.59375,-16.1875 5.62384,-17.8916 2.43781,-36.99417 3.18745,-55.4375 0.77763,-14.45308 -9.77869,-28.9467 -24.81245,-29.6875 -1.92122,-0.33919 -3.86905,-0.34249 -5.8125,-0.3749 z M 364.46875,554 c 11.0793,-1.24075 19.3286,9.28929 18.5937,19.81235 -0.8525,17.24439 2.0031,34.93686 -2.15615,51.84375 -4.37645,15.04273 -30.76453,13.20545 -32.25,-2.875 -2.6569,-16.62193 -0.9461,-33.62922 -1.24995,-50.4061 0.0292,-9.65076 6.84613,-18.70365 17.0624,-18.375 z"
   style="fill:#000000;fill-opacity:1;stroke:none" />
</g><g
     style="fill:#000000;fill-opacity:1;stroke:none"
     id="LWPOLYLINE_13_">
	
		<path
   inkscape:connector-curvature="0"
   id="path82"
   d="m 22.78125,545.46875 c 0.229533,32.82255 -0.458824,66.56299 0.34375,98.8125 3.651554,-0.47713 8.860984,0.97133 11.5625,-0.6875 0.175006,-14.75936 -0.35024,-30.00408 0.25,-44.4687 8.705588,1.01269 19.791455,-2.88866 26.40625,4.56225 5.69832,12.62424 0.285207,27.6994 5.75,40.59395 4.190476,-0.38134 10.553554,0.77448 13.4375,-0.53125 -5.1548,-14.55738 -0.286101,-31.14961 -7.46875,-45.03125 -1.889378,-4.14818 -10.177669,-5.61037 -11.09375,-6.53125 21.96013,-3.52092 22.928975,-39.95985 2,-45.65625 -13.482649,-2.31756 -27.534619,-0.46829 -41.1875,-1.0625 z m 11.90625,11.0625 c 8.896805,0.95455 19.033352,-2.38042 26.9375,2.78115 8.554667,8.18134 5.325424,28.41836 -8.1875,28.74995 -6.239583,0 -12.479167,0 -18.71875,0 -0.05041,-10.51012 -0.02437,-21.02136 -0.03125,-31.5311 z"
   style="fill:#000000;fill-opacity:1;stroke:none" />
</g><g
     style="fill:#000000;fill-opacity:1;stroke:none"
     id="LWPOLYLINE_4_">
	
		<path
   inkscape:connector-curvature="0"
   id="path16"
   d="m 429.056,545.475 c -3.75909,0.46717 -9.21128,-0.96916 -11.895,0.707 0.23243,32.62719 -0.45355,65.82274 0.333,98.107 3.826,0 7.652,0 11.478,0 0.11664,-32.93772 0.0615,-65.87608 0.084,-98.814 z"
   style="fill:#000000;fill-opacity:1;stroke:none" />
</g><g
     style="fill:#000000;fill-opacity:1;stroke:none"
     id="LWPOLYLINE_5_">
	
		<path
   inkscape:connector-curvature="0"
   id="path19"
   d="m 504.043,545.475 c 0,28.05867 0,56.11733 0,84.176 -12.78887,-27.92254 -24.77964,-56.48725 -37.763,-84.176 -5.545,0 -11.09,0 -16.635,0 -0.0926,32.85444 -0.4339,66.22252 0.166,98.814 3.40562,-0.419 8.29816,0.86015 10.772,-0.623 0,-28.12733 0,-56.25467 0,-84.382 13.07191,28.19584 25.3262,57.04223 38.594,85.006 5.268,0 10.536,0 15.804,0 0.29296,-32.84643 0.0377,-65.74058 0.124,-98.605 -3.67721,-0.29912 -7.3765,-0.15242 -11.062,-0.21 z"
   style="fill:#000000;fill-opacity:1;stroke:none" />
</g><g
     style="fill:#000000;fill-opacity:1;stroke:none"
     id="LWPOLYLINE_6_">
	
		<path
   inkscape:connector-curvature="0"
   id="path22"
   d="m 526.169,545.475 c 0.46366,3.47252 -0.9648,8.73017 0.707,11.064 8.22067,0 16.44133,0 24.662,0 0.65018,29.12287 -0.46683,59.00886 0.541,87.75 3.9816,-0.43449 9.22442,0.88177 12.435,-0.623 0,-28.986 0,-57.972 0,-86.958 8.09079,-0.64378 16.81793,0.41071 24.703,-0.459 0,-3.56333 0,-7.12667 0,-10.69 -21.01559,-0.11389 -42.0321,-0.0638 -63.048,-0.084 z"
   style="fill:#000000;fill-opacity:1;stroke:none" />
</g><g
     style="fill:#000000;fill-opacity:1;stroke:none"
     id="LWPOLYLINE_7_">
	
		<path
   id="polygon25"
   d="m 295.34375,292.5 -1.21875,0.0312 -1.21875,0 -1.21875,0.0625 -1.21875,0.0937 -1.21875,0.0937 -1.21875,0.125 -1.1875,0.125 -1.21875,0.15625 -1.1875,0.1875 -1.21875,0.21875 -1.21875,0.1875 -1.1875,0.25 -1.1875,0.28125 -1.1875,0.28125 -1.15625,0.3125 -1.1875,0.3125 -1.1875,0.34375 -1.15625,0.375 -1.15625,0.375 -1.15625,0.4375 -1.125,0.4375 -1.125,0.4375 -1.125,0.46875 -1.125,0.5 -1.09375,0.5 -1.125,0.53125 -1.09375,0.5625 -1.0625,0.5625 -1.0625,0.5625 -1.0625,0.625 -1.0625,0.59375 -1.0625,0.65625 -1,0.65625 -1.03125,0.6875 -1,0.6875 -1,0.71875 -0.96875,0.71875 -0.96875,0.75 -0.96875,0.75 -0.9375,0.78125 -0.9375,0.8125 -0.875,0.8125 -0.9375,0.8125 -0.875,0.875 -0.875,0.84375 -0.84375,0.875 -0.8125,0.875 -0.84375,0.90625 -0.8125,0.9375 -0.78125,0.90625 -0.78125,0.96875 -0.75,0.9375 -0.75,1 -0.71875,0.96875 -0.71875,1 -0.6875,1.03125 -0.6875,1 -0.625,1.03125 -0.65625,1.0625 -0.625,1.0625 -0.59375,1.0625 -0.59375,1.0625 -0.5625,1.09375 -0.53125,1.09375 -0.53125,1.09375 -0.5,1.125 -0.5,1.125 -0.4375,1.15625 -0.46875,1.125 -0.40625,1.15625 -0.40625,1.15625 -0.375,1.15625 -0.375,1.1875 -0.375,1.15625 -0.3125,1.1875 -0.3125,1.1875 -0.28125,1.1875 -0.25,1.1875 -0.25,1.21875 -0.21875,1.21875 -0.1875,1.1875 -0.1875,1.2189 -0.1875,1.21875 -0.125,1.21875 -0.125,1.21875 -0.0937,1.21875 -0.0625,1.21875 -0.0625,1.25 -0.0312,1.21875 0,1.21875 0,1.25 0.0312,1.1875 0.0625,1.21875 0.0625,1.25 0.0937,1.21875 0.125,1.21875 0.125,1.21875 0.1875,1.21875 0.1875,1.21875 0.1875,1.1875 0.21875,1.21875 0.25,1.1875 0.25,1.21875 0.28125,1.1875 0.3125,1.1875 0.3125,1.1875 0.375,1.1875 0.375,1.15625 0.375,1.15625 0.40625,1.15625 0.40625,1.15625 0.46875,1.125 0.4375,1.15625 0.5,1.125 0.5,1.09375 0.53125,1.125 0.53125,1.09375 0.5625,1.09375 0.59375,1.0625 0.59375,1.0625 0.625,1.09375 0.65625,1.03125 0.625,1.03125 0.6875,1 0.6875,1 0.71875,1 0.71875,1 0.75,1 0.75,0.96875 0.78125,0.90625 0.78125,0.96875 0.8125,0.90625 0.84375,0.90625 0.8125,0.875 0.84375,0.875 0.875,0.875 0.875,0.84375 0.9375,0.8125 0.875,0.8125 0.9375,0.8125 0.9375,0.75 0.96875,0.78125 0.96875,0.75 0.96875,0.71875 1,0.71875 1,0.6875 1.03125,0.65625 1,0.6875 1.0625,0.65625 1.0625,0.59375 1.0625,0.625 1.0625,0.5625 1.0625,0.59375 1.09375,0.53125 1.125,0.53125 1.09375,0.5 1.125,0.5 1.125,0.46875 1.125,0.46875 1.125,0.40625 1.15625,0.40625 1.15625,0.375 1.15625,0.375 1.1875,0.34375 1.1875,0.34375 1.15625,0.3125 1.1875,0.3125 1.1875,0.25 1.1875,0.25 1.21875,0.1875 1.21875,0.21875 1.1875,0.15625 1.21875,0.1875 1.1875,0.15625 1.21875,0.0937 1.21875,0.125 1.21875,0.0625 1.21875,0.0312 1.21875,0.0625 1.21875,0 1.21875,0 1.21875,-0.0625 1.21875,-0.0312 1.21875,-0.0625 1.21875,-0.125 1.21875,-0.0937 1.1875,-0.15625 1.21875,-0.1875 1.21875,-0.15625 1.21875,-0.21875 1.15625,-0.1875 1.1875,-0.25 1.21875,-0.25 1.15625,-0.3125 1.21875,-0.3125 1.15625,-0.34375 1.15625,-0.34375 1.1875,-0.375 1.15625,-0.375 1.125,-0.40625 1.15625,-0.40625 1.125,-0.46875 1.125,-0.46875 1.125,-0.5 1.125,-0.5 1.0625,-0.53125 1.09375,-0.53125 1.09375,-0.59375 1.0625,-0.5625 1.09375,-0.625 1.03125,-0.59375 1.03125,-0.65625 1.0625,-0.6875 1,-0.65625 1,-0.6875 1,-0.71875 0.96875,-0.71875 0.96875,-0.75 0.96875,-0.78125 0.90625,-0.75 0.96875,-0.8125 0.90625,-0.8125 0.875,-0.8125 0.90625,-0.84375 0.875,-0.875 0.84375,-0.875 0.8125,-0.875 0.84375,-0.90625 0.78125,-0.90625 0.78125,-0.96875 0.8125,-0.90625 0.75,-0.96875 0.75,-1 0.75,-1 0.6875,-1 0.6875,-1 0.65625,-1 0.65625,-1.03125 0.65625,-1.03125 0.59375,-1.09375 0.625,-1.0625 0.59375,-1.0625 0.53125,-1.09375 0.53125,-1.09375 0.5625,-1.125 0.5,-1.09375 0.5,-1.125 0.4375,-1.15625 0.46875,-1.125 0.40625,-1.15625 0.40625,-1.15625 0.375,-1.15625 0.375,-1.15625 0.34375,-1.1875 0.34375,-1.1875 0.28125,-1.1875 0.28125,-1.1875 0.3125,-1.21875 0.1875,-1.1875 0.25,-1.21875 0.21875,-1.1875 0.15625,-1.21875 0.1875,-1.21875 0.125,-1.21875 0.125,-1.21875 0.0625,-1.21875 0.0937,-1.25 0.0312,-1.21875 0.0625,-1.1875 0,-1.25 0,-1.21875 -0.0625,-1.21875 -0.0312,-1.25 L 365,357.875 l -0.0625,-1.21875 -0.125,-1.21875 -0.125,-1.21875 L 364.5,353 l -0.15625,-1.21875 -0.21875,-1.1875 -0.25,-1.21875 -0.1875,-1.21875 -0.3125,-1.1875 -0.28125,-1.1875 -0.28125,-1.1875 -0.34375,-1.1875 -0.34375,-1.15625 -0.375,-1.1875 -0.375,-1.15625 -0.40625,-1.15625 -0.40625,-1.15625 -0.46875,-1.125 -0.4375,-1.15625 -0.5,-1.125 -0.5,-1.125 -0.5625,-1.09375 -0.53125,-1.09375 -0.53125,-1.09375 -0.59375,-1.0625 -0.625,-1.0625 -0.59375,-1.0625 -0.65625,-1.0625 -0.65625,-1.03125 -0.65625,-1 -0.6875,-1.03125 -0.6875,-1 -0.75,-0.96875 -0.75,-1 -0.75,-0.9375 -0.8125,-0.96875 -0.78125,-0.90625 -0.78125,-0.9375 -0.84375,-0.90625 -0.8125,-0.875 -0.84375,-0.875 -0.875,-0.84375 -0.90625,-0.875 -0.875,-0.8125 -0.90625,-0.8125 -0.96875,-0.8125 -0.90625,-0.78125 -0.96875,-0.75 -0.96875,-0.75 -0.96875,-0.71875 -1,-0.71875 -1,-0.6875 -1,-0.6875 -1.0625,-0.65625 -1.03125,-0.65625 -1.03125,-0.59375 -1.09375,-0.625 -1.0625,-0.5625 -1.09375,-0.5625 -1.09375,-0.5625 -1.0625,-0.53125 -1.125,-0.5 -1.125,-0.5 -1.125,-0.46875 -1.125,-0.4375 -1.15625,-0.4375 -1.125,-0.4375 -1.15625,-0.375 -1.1875,-0.375 -1.15625,-0.34375 -1.15625,-0.3125 -1.21875,-0.3125 -1.15625,-0.28125 -1.21875,-0.28125 -1.1875,-0.25 -1.15625,-0.1875 -1.21875,-0.21875 -1.21875,-0.1875 -1.21875,-0.15625 -1.1875,-0.125 -1.21875,-0.125 -1.21875,-0.0937 -1.21875,-0.0937 -1.21875,-0.0625 -1.21875,0 -1.21875,-0.0312 z M 294.5,317.21875 c 24.6,0 44.668,19.67925 45.125,44.28125 l -45.125,0.84375 0,45.125 -0.875,0 C 268.692,407.01075 248.896,386.434 249.375,361.5 l 45.125,0.84375 0,-45.125 z"
   style="fill:#000000;fill-opacity:1;stroke:none"
   inkscape:connector-curvature="0" />
</g><g
     id="LINE_1_">
	
		<path
   id="line31"
   d="m 512.52698,350.43799 0,25.535"
   style="fill:none;stroke:#000000;stroke-width:0.7087;stroke-linecap:round;stroke-linejoin:round;stroke-miterlimit:10"
   inkscape:connector-curvature="0" />
</g><g
     style="fill:#000000;fill-opacity:1;stroke:none"
     id="LINE_2_">
	
		<path
   sodipodi:nodetypes="cccc"
   inkscape:connector-curvature="0"
   id="line34"
   d="m 512.52698,375.97299 -150.76499,0 0,-25.535 150.76499,0"
   style="fill:#000000;fill-opacity:1;stroke:none" />
</g><g
     id="LINE_9_">
	
		<path
   sodipodi:nodetypes="cccccccc"
   inkscape:connector-curvature="0"
   id="line55"
   d="m 107.956,373.436 0,-21.29299 42.589,0 0,-31.52601 72.38901,42.58799 -72.38901,42.60901 0,-32.378 z"
   style="fill:#000000;fill-opacity:1;stroke:none" />
</g><g
     id="LINE_11_">
	
		<path
   sodipodi:nodetypes="cc"
   inkscape:connector-curvature="0"
   id="line61"
   d="m 308.10999,146 -25.53598,0"
   style="fill:none;stroke:#000000;stroke-width:0.7087;stroke-linecap:round;stroke-linejoin:round;stroke-miterlimit:10" />
</g><g
     style="fill:#000000;fill-opacity:1;stroke:none"
     id="LINE_12_">
	
		<path
   sodipodi:nodetypes="cccc"
   inkscape:connector-curvature="0"
   id="line64"
   d="m 282.57401,146 0,148.73245 25.53598,0 0,-148.73245"
   style="fill:#000000;fill-opacity:1;stroke:none" />
</g><g
     id="LWPOLYLINE_8_">
	
		<path
   id="path67"
   d="m 294.489,407.479 c 24.934,0 45.146,-20.193 45.146,-45.127 0,-0.291 0,-0.561 0,-0.852 l -45.146,0.852 v 45.127 z"
   stroke-miterlimit="10"
   inkscape:connector-curvature="0"
   style="fill:none;stroke:#000000;stroke-width:0.7087;stroke-linecap:round;stroke-linejoin:round;stroke-miterlimit:10" />
</g><g
     id="LWPOLYLINE_10_">
	
		<path
   id="path73"
   d="m 294.489,317.205 c -24.601,0 -44.668,19.693 -45.125,44.295 l 45.125,0.852 v -45.147 z"
   stroke-miterlimit="10"
   inkscape:connector-curvature="0"
   style="fill:none;stroke:#000000;stroke-width:0.7087;stroke-linecap:round;stroke-linejoin:round;stroke-miterlimit:10" />
</g><g
     style="fill:#000000;fill-opacity:1;stroke:none"
     id="LWPOLYLINE_14_">
	
		<path
   inkscape:connector-curvature="0"
   id="path85"
   d="m 146.282,644.293 c -0.42583,-3.4928 0.87616,-8.52264 -0.625,-11.062 -12.47989,-0.17045 -25.63512,0.33446 -37.701,-0.25 0.18874,-11.1786 -0.34543,-23.0801 0.25,-33.852 11.44244,-0.21156 23.70365,0.39565 34.671,-0.291 -0.38786,-3.41244 0.78858,-8.20289 -0.561,-10.771 -11.37325,-0.15109 -23.33179,0.28312 -34.364,-0.209 0.22085,-10.30882 -0.39339,-21.45273 0.271,-31.318 12.29597,-0.20536 25.39627,0.3936 37.211,-0.293 -0.24854,-3.48748 0.50349,-7.76588 -0.354,-10.772 -16.32033,0 -32.64067,0 -48.961,0 -0.245691,32.86723 -0.03166,65.76809 -0.104,98.648 16.75366,0.23559 33.51176,0.12289 50.267,0.17 z"
   style="fill:#000000;fill-opacity:1;stroke:none" />
</g><g
     style="fill:#000000;fill-opacity:1;stroke:none"
     id="LWPOLYLINE_15_">
	
		<path
   inkscape:connector-curvature="0"
   id="path88"
   d="m 172.691,644.293 c 0.17541,-14.98863 -0.35052,-30.48533 0.25,-45.166 11.15103,-0.22031 23.14569,0.40302 33.823,-0.291 -0.37497,-3.41894 0.76188,-8.16237 -0.541,-10.771 -11.08944,-0.15756 -22.78252,0.28852 -33.532,-0.209 0.2033,-10.3187 -0.36231,-21.40631 0.25,-31.316 11.73401,-0.20565 24.27309,0.39376 35.526,-0.293 -0.50717,-3.36209 1.0456,-8.59312 -0.77,-10.772 -15.61233,0 -31.22467,0 -46.837,0 -0.24569,32.86723 -0.0317,65.76809 -0.104,98.648 3.97218,0.24226 7.95778,0.12332 11.935,0.17 z"
   style="fill:#000000;fill-opacity:1;stroke:none" />
</g><g
     style="fill:#000000;fill-opacity:1;stroke:none"
     id="LWPOLYLINE_16_">
	
		<path
   inkscape:connector-curvature="0"
   id="path91"
   d="m 229.754,629.82 c -4.06995,0.4381 -9.57558,-0.89354 -12.777,0.623 0.27364,4.50564 -0.53803,9.78315 0.354,13.849 4.07167,0 8.14333,0 12.215,0 0.27964,-4.81702 0.16082,-9.64915 0.208,-14.472 z"
   style="fill:#000000;fill-opacity:1;stroke:none" />
</g></g></svg>