<?xml version="1.0" encoding="UTF-8" standalone="no"?>
<!-- Generator: Adobe Illustrator 16.0.1, SVG Export Plug-In . SVG Version: 6.00 Build 0)  -->

<svg
   xmlns:dc="http://purl.org/dc/elements/1.1/"
   xmlns:cc="http://creativecommons.org/ns#"
   xmlns:rdf="http://www.w3.org/1999/02/22-rdf-syntax-ns#"
   xmlns:svg="http://www.w3.org/2000/svg"
   xmlns="http://www.w3.org/2000/svg"
   xmlns:xlink="http://www.w3.org/1999/xlink"
   xmlns:sodipodi="http://sodipodi.sourceforge.net/DTD/sodipodi-0.dtd"
   xmlns:inkscape="http://www.inkscape.org/namespaces/inkscape"
   version="1.0"
   id="_x31_"
   x="0px"
   y="0px"
   width="350"
   height="350"
   viewBox="0 0 350 350"
   enable-background="new 0 0 612 792"
   xml:space="preserve"
   inkscape:version="0.48.2 r9819"
   sodipodi:docname="7053.svg"><metadata
   id="metadata64"><rdf:RDF><cc:Work
       rdf:about=""><dc:format>image/svg+xml</dc:format><dc:type
         rdf:resource="http://purl.org/dc/dcmitype/StillImage" /></cc:Work></rdf:RDF></metadata><defs
   id="defs62"><radialGradient
     r="333.18735"
     fy="710.99164"
     fx="373.24265"
     cy="710.99164"
     cx="373.24265"
     gradientTransform="matrix(0.86272608,1.0667183e-7,-5.1097115e-8,0.31434,-147.00617,81.5576)"
     gradientUnits="userSpaceOnUse"
     id="radialGradient3092"
     xlink:href="#linearGradient5443"
     inkscape:collect="always" /><radialGradient
     r="333.18735"
     fy="467.91885"
     fx="373.24265"
     cy="467.91885"
     cx="373.24265"
     gradientTransform="matrix(0.83535071,2.5391117e-7,-2.4564601e-7,0.80815889,-136.78854,-203.15302)"
     gradientUnits="userSpaceOnUse"
     id="radialGradient3088"
     xlink:href="#linearGradient5443"
     inkscape:collect="always" /><radialGradient
     r="333.18735"
     fy="467.91885"
     fx="373.24265"
     cy="467.91885"
     cx="373.24265"
     gradientTransform="matrix(0.83535071,2.5391117e-7,-2.4564601e-7,0.80815889,783.12101,707.99698)"
     gradientUnits="userSpaceOnUse"
     id="radialGradient3736"
     xlink:href="#linearGradient5443"
     inkscape:collect="always" /><linearGradient
     y2="254.73526"
     x2="123.47623"
     y1="344.03848"
     x1="123.50603"
     gradientTransform="matrix(2.3189708,0,0,2.0930998,-99.17808,-231.54972)"
     gradientUnits="userSpaceOnUse"
     id="linearGradient3734"
     xlink:href="#linearGradient3187"
     inkscape:collect="always" /><radialGradient
     r="333.18735"
     fy="710.99164"
     fx="373.24265"
     cy="710.99164"
     cx="373.24265"
     gradientTransform="matrix(0.86272608,1.0667183e-7,-5.1097115e-8,0.31434,772.90338,992.7076)"
     gradientUnits="userSpaceOnUse"
     id="radialGradient3732"
     xlink:href="#linearGradient5443"
     inkscape:collect="always" /><radialGradient
     r="333.18735"
     fy="710.99164"
     fx="373.24265"
     cy="710.99164"
     cx="373.24265"
     gradientTransform="matrix(0.86272608,1.0667183e-7,-5.1097115e-8,0.31434,772.90338,992.7076)"
     gradientUnits="userSpaceOnUse"
     id="radialGradient3722"
     xlink:href="#linearGradient5443"
     inkscape:collect="always" /><radialGradient
     r="333.18735"
     fy="467.91885"
     fx="373.24265"
     cy="467.91885"
     cx="373.24265"
     gradientTransform="matrix(0.83535071,2.5391117e-7,-2.4564601e-7,0.80815889,783.12101,707.99698)"
     gradientUnits="userSpaceOnUse"
     id="radialGradient3718"
     xlink:href="#linearGradient5443"
     inkscape:collect="always" /><radialGradient
     r="333.18735"
     fy="467.91885"
     fx="373.24265"
     cy="467.91885"
     cx="373.24265"
     gradientTransform="matrix(0.9201975,2.7970099e-7,-2.7059634e-7,0.8902438,-163.70313,61.921561)"
     gradientUnits="userSpaceOnUse"
     id="radialGradient3703"
     xlink:href="#linearGradient5443"
     inkscape:collect="always" /><linearGradient
     y2="254.73526"
     x2="123.47623"
     y1="344.03848"
     x1="123.50603"
     gradientTransform="matrix(2.3189708,0,0,2.0930998,-99.17808,-231.54972)"
     gradientUnits="userSpaceOnUse"
     id="linearGradient3701"
     xlink:href="#linearGradient3187"
     inkscape:collect="always" /><radialGradient
     r="333.18735"
     fy="710.99164"
     fx="373.24265"
     cy="710.99164"
     cx="373.24265"
     gradientTransform="matrix(0.9503534,1.1750652e-7,-5.6287062e-8,0.3462676,-174.95857,375.55031)"
     gradientUnits="userSpaceOnUse"
     id="radialGradient3699"
     xlink:href="#linearGradient5443"
     inkscape:collect="always" /><radialGradient
     r="333.18735"
     fy="467.91885"
     fx="373.24265"
     cy="467.91885"
     cx="373.24265"
     gradientTransform="matrix(0.9201975,2.7970099e-7,-2.7059634e-7,0.8902438,-163.70313,61.921561)"
     gradientUnits="userSpaceOnUse"
     id="radialGradient3680"
     xlink:href="#linearGradient5443"
     inkscape:collect="always" /><linearGradient
     y2="254.73526"
     x2="123.47623"
     y1="344.03848"
     x1="123.50603"
     gradientTransform="matrix(2.3189708,0,0,2.0930998,-99.17808,-231.54972)"
     gradientUnits="userSpaceOnUse"
     id="linearGradient3678"
     xlink:href="#linearGradient3187"
     inkscape:collect="always" /><radialGradient
     r="333.18735"
     fy="710.99164"
     fx="373.24265"
     cy="710.99164"
     cx="373.24265"
     gradientTransform="matrix(0.9503534,1.1750652e-7,-5.6287062e-8,0.3462676,-174.95857,375.55031)"
     gradientUnits="userSpaceOnUse"
     id="radialGradient3676"
     xlink:href="#linearGradient5443"
     inkscape:collect="always" /><radialGradient
     r="333.18735"
     fy="467.91885"
     fx="373.24265"
     cy="467.91885"
     cx="373.24265"
     gradientTransform="matrix(0.9201975,2.7970099e-7,-2.7059634e-7,0.8902438,-163.70313,61.921561)"
     gradientUnits="userSpaceOnUse"
     id="radialGradient3654"
     xlink:href="#linearGradient5443"
     inkscape:collect="always" /><linearGradient
     y2="254.73526"
     x2="123.47623"
     y1="344.03848"
     x1="123.50603"
     gradientTransform="matrix(2.3189708,0,0,2.0930998,-99.17808,-231.54972)"
     gradientUnits="userSpaceOnUse"
     id="linearGradient3652"
     xlink:href="#linearGradient3187"
     inkscape:collect="always" /><radialGradient
     r="333.18735"
     fy="710.99164"
     fx="373.24265"
     cy="710.99164"
     cx="373.24265"
     gradientTransform="matrix(0.9503534,1.1750652e-7,-5.6287062e-8,0.3462676,-174.95857,375.55031)"
     gradientUnits="userSpaceOnUse"
     id="radialGradient3650"
     xlink:href="#linearGradient5443"
     inkscape:collect="always" /><radialGradient
     r="333.18735"
     fy="467.91885"
     fx="373.24265"
     cy="467.91885"
     cx="373.24265"
     gradientTransform="matrix(0.9201975,2.7970099e-7,-2.7059634e-7,0.8902438,-163.70313,61.921561)"
     gradientUnits="userSpaceOnUse"
     id="radialGradient3627"
     xlink:href="#linearGradient5443"
     inkscape:collect="always" /><linearGradient
     y2="254.73526"
     x2="123.47623"
     y1="344.03848"
     x1="123.50603"
     gradientTransform="matrix(2.3189708,0,0,2.0930998,-99.17808,-231.54972)"
     gradientUnits="userSpaceOnUse"
     id="linearGradient3625"
     xlink:href="#linearGradient3187"
     inkscape:collect="always" /><radialGradient
     r="333.18735"
     fy="710.99164"
     fx="373.24265"
     cy="710.99164"
     cx="373.24265"
     gradientTransform="matrix(0.9503534,1.1750652e-7,-5.6287062e-8,0.3462676,-174.95857,375.55031)"
     gradientUnits="userSpaceOnUse"
     id="radialGradient3623"
     xlink:href="#linearGradient5443"
     inkscape:collect="always" /><radialGradient
     r="333.18735"
     fy="467.91885"
     fx="373.24265"
     cy="467.91885"
     cx="373.24265"
     gradientTransform="matrix(0.9201975,2.7970099e-7,-2.7059634e-7,0.8902438,-163.70313,61.921561)"
     gradientUnits="userSpaceOnUse"
     id="radialGradient3599"
     xlink:href="#linearGradient5443"
     inkscape:collect="always" /><linearGradient
     y2="254.73526"
     x2="123.47623"
     y1="344.03848"
     x1="123.50603"
     gradientTransform="matrix(2.3189708,0,0,2.0930998,-99.17808,-231.54972)"
     gradientUnits="userSpaceOnUse"
     id="linearGradient3597"
     xlink:href="#linearGradient3187"
     inkscape:collect="always" /><radialGradient
     r="333.18735"
     fy="710.99164"
     fx="373.24265"
     cy="710.99164"
     cx="373.24265"
     gradientTransform="matrix(0.9503534,1.1750652e-7,-5.6287062e-8,0.3462676,-174.95857,375.55031)"
     gradientUnits="userSpaceOnUse"
     id="radialGradient3595"
     xlink:href="#linearGradient5443"
     inkscape:collect="always" /><radialGradient
     r="333.18735"
     fy="467.91885"
     fx="373.24265"
     cy="467.91885"
     cx="373.24265"
     gradientTransform="matrix(0.9201975,2.7970099e-7,-2.7059634e-7,0.8902438,-163.70313,61.921561)"
     gradientUnits="userSpaceOnUse"
     id="radialGradient3525"
     xlink:href="#linearGradient5443"
     inkscape:collect="always" /><linearGradient
     y2="254.73526"
     x2="123.47623"
     y1="344.03848"
     x1="123.50603"
     gradientTransform="matrix(2.3189708,0,0,2.0930998,-99.17808,-231.54972)"
     gradientUnits="userSpaceOnUse"
     id="linearGradient3523"
     xlink:href="#linearGradient3187"
     inkscape:collect="always" /><radialGradient
     r="333.18735"
     fy="710.99164"
     fx="373.24265"
     cy="710.99164"
     cx="373.24265"
     gradientTransform="matrix(0.9503534,1.1750652e-7,-5.6287062e-8,0.3462676,-174.95857,375.55031)"
     gradientUnits="userSpaceOnUse"
     id="radialGradient3521"
     xlink:href="#linearGradient5443"
     inkscape:collect="always" /><radialGradient
     r="333.18735"
     fy="467.91885"
     fx="373.24265"
     cy="467.91885"
     cx="373.24265"
     gradientTransform="matrix(0.9201975,2.7970099e-7,-2.7059634e-7,0.8902438,-163.70313,61.921561)"
     gradientUnits="userSpaceOnUse"
     id="radialGradient3497"
     xlink:href="#linearGradient5443"
     inkscape:collect="always" /><linearGradient
     y2="254.73526"
     x2="123.47623"
     y1="344.03848"
     x1="123.50603"
     gradientTransform="matrix(2.3189708,0,0,2.0930998,-99.17808,-231.54972)"
     gradientUnits="userSpaceOnUse"
     id="linearGradient3495"
     xlink:href="#linearGradient3187"
     inkscape:collect="always" /><radialGradient
     r="333.18735"
     fy="710.99164"
     fx="373.24265"
     cy="710.99164"
     cx="373.24265"
     gradientTransform="matrix(0.9503534,1.1750652e-7,-5.6287062e-8,0.3462676,-174.95857,375.55031)"
     gradientUnits="userSpaceOnUse"
     id="radialGradient3493"
     xlink:href="#linearGradient5443"
     inkscape:collect="always" /><linearGradient
     id="linearGradient5443"><stop
       id="stop5445"
       offset="0"
       style="stop-color:#ffffff;stop-opacity:0;" /><stop
       id="stop5447"
       offset="1"
       style="stop-color:#000000;stop-opacity:0.33962265;" /></linearGradient><linearGradient
     id="linearGradient3157"><stop
       style="stop-color:#49bcff;stop-opacity:1;"
       offset="0"
       id="stop3159" /><stop
       style="stop-color:#494c96;stop-opacity:1;"
       offset="1"
       id="stop3161" /></linearGradient><linearGradient
     id="linearGradient3171"><stop
       id="stop3173"
       offset="0"
       style="stop-color:#49bcff;stop-opacity:1;" /><stop
       id="stop3175"
       offset="1"
       style="stop-color:#494cdc;stop-opacity:1;" /></linearGradient><linearGradient
     id="linearGradient3187"><stop
       style="stop-color:#ffffff;stop-opacity:0.39622641;"
       offset="0"
       id="stop3189" /><stop
       style="stop-color:#000000;stop-opacity:1;"
       offset="1"
       id="stop3191" /></linearGradient><linearGradient
     id="linearGradient4395"><stop
       style="stop-color:#110084;stop-opacity:1;"
       offset="0"
       id="stop4397" /><stop
       style="stop-color:#a695ff;stop-opacity:1;"
       offset="1"
       id="stop4399" /></linearGradient><linearGradient
     id="linearGradient4383"><stop
       style="stop-color:#00037f;stop-opacity:1;"
       offset="0"
       id="stop4385" /><stop
       style="stop-color:#00037f;stop-opacity:0;"
       offset="1"
       id="stop4387" /></linearGradient><inkscape:perspective
     sodipodi:type="inkscape:persp3d"
     inkscape:vp_x="0 : 526.18109 : 1"
     inkscape:vp_y="0 : 1000 : 0"
     inkscape:vp_z="744.09448 : 526.18109 : 1"
     inkscape:persp3d-origin="372.04724 : 350.78739 : 1"
     id="perspective3214" /><linearGradient
     inkscape:collect="always"
     xlink:href="#linearGradient4383"
     id="linearGradient4389"
     x1="371.42194"
     y1="298.59412"
     x2="396.91168"
     y2="655.4505"
     gradientUnits="userSpaceOnUse" /><linearGradient
     inkscape:collect="always"
     xlink:href="#linearGradient4395"
     id="linearGradient4401"
     x1="360.49777"
     y1="167.50403"
     x2="360.49777"
     y2="540.86719"
     gradientUnits="userSpaceOnUse" /><linearGradient
     inkscape:collect="always"
     xlink:href="#linearGradient3187"
     id="linearGradient4562"
     gradientUnits="userSpaceOnUse"
     gradientTransform="matrix(2.3189708,0,0,2.0930998,93.115298,-256.84999)"
     x1="123.50603"
     y1="344.03848"
     x2="123.47623"
     y2="254.73526" /><radialGradient
     inkscape:collect="always"
     xlink:href="#linearGradient3171"
     id="radialGradient4569"
     gradientUnits="userSpaceOnUse"
     gradientTransform="matrix(0.9201975,2.7970099e-7,-2.7059634e-7,0.8902438,28.590287,48.634335)"
     cx="373.24265"
     cy="467.91885"
     fx="373.24265"
     fy="467.91885"
     r="333.18735" /><radialGradient
     inkscape:collect="always"
     xlink:href="#linearGradient3157"
     id="radialGradient4572"
     gradientUnits="userSpaceOnUse"
     gradientTransform="matrix(0.9503534,1.1750652e-7,-5.6287062e-8,0.3462676,17.334826,362.44227)"
     cx="373.24265"
     cy="710.99164"
     fx="373.24265"
     fy="710.99164"
     r="333.18735" /><filter
     inkscape:collect="always"
     id="filter4659"
     color-interpolation-filters="sRGB"><feGaussianBlur
       inkscape:collect="always"
       stdDeviation="2.7750933"
       id="feGaussianBlur4661" /></filter><radialGradient
     inkscape:collect="always"
     xlink:href="#linearGradient3157"
     id="radialGradient4766"
     gradientUnits="userSpaceOnUse"
     gradientTransform="matrix(0.9503534,1.1750652e-7,-5.6287062e-8,0.3462676,17.334826,362.44227)"
     cx="373.24265"
     cy="710.99164"
     fx="373.24265"
     fy="710.99164"
     r="333.18735" /><radialGradient
     inkscape:collect="always"
     xlink:href="#linearGradient3171"
     id="radialGradient4768"
     gradientUnits="userSpaceOnUse"
     gradientTransform="matrix(0.9201975,2.7970099e-7,-2.7059634e-7,0.8902438,28.590287,48.634335)"
     cx="373.24265"
     cy="467.91885"
     fx="373.24265"
     fy="467.91885"
     r="333.18735" /><linearGradient
     inkscape:collect="always"
     xlink:href="#linearGradient3187"
     id="linearGradient4770"
     gradientUnits="userSpaceOnUse"
     gradientTransform="matrix(2.3189708,0,0,2.0930998,93.115298,-256.84999)"
     x1="123.50603"
     y1="344.03848"
     x2="123.47623"
     y2="254.73526" /><linearGradient
     inkscape:collect="always"
     xlink:href="#linearGradient3187"
     id="linearGradient4773"
     gradientUnits="userSpaceOnUse"
     gradientTransform="matrix(2.3189708,0,0,2.0930998,93.115298,-256.84999)"
     x1="123.50603"
     y1="344.03848"
     x2="123.47623"
     y2="254.73526" /><radialGradient
     inkscape:collect="always"
     xlink:href="#linearGradient3171"
     id="radialGradient4776"
     gradientUnits="userSpaceOnUse"
     gradientTransform="matrix(0.9201975,2.7970099e-7,-2.7059634e-7,0.8902438,28.590287,48.634335)"
     cx="373.24265"
     cy="467.91885"
     fx="373.24265"
     fy="467.91885"
     r="333.18735" /><radialGradient
     inkscape:collect="always"
     xlink:href="#linearGradient3157"
     id="radialGradient4779"
     gradientUnits="userSpaceOnUse"
     gradientTransform="matrix(0.9503534,1.1750652e-7,-5.6287062e-8,0.3462676,17.334826,362.44227)"
     cx="373.24265"
     cy="710.99164"
     fx="373.24265"
     fy="710.99164"
     r="333.18735" /><radialGradient
     inkscape:collect="always"
     xlink:href="#linearGradient3157"
     id="radialGradient4790"
     gradientUnits="userSpaceOnUse"
     gradientTransform="matrix(0.9503534,1.1750652e-7,-5.6287062e-8,0.3462676,17.334826,362.44227)"
     cx="373.24265"
     cy="710.99164"
     fx="373.24265"
     fy="710.99164"
     r="333.18735" /><radialGradient
     inkscape:collect="always"
     xlink:href="#linearGradient3171"
     id="radialGradient4792"
     gradientUnits="userSpaceOnUse"
     gradientTransform="matrix(0.9201975,2.7970099e-7,-2.7059634e-7,0.8902438,28.590287,48.634335)"
     cx="373.24265"
     cy="467.91885"
     fx="373.24265"
     fy="467.91885"
     r="333.18735" /><linearGradient
     inkscape:collect="always"
     xlink:href="#linearGradient3187"
     id="linearGradient4794"
     gradientUnits="userSpaceOnUse"
     gradientTransform="matrix(2.3189708,0,0,2.0930998,93.115298,-256.84999)"
     x1="123.50603"
     y1="344.03848"
     x2="123.47623"
     y2="254.73526" /><linearGradient
     inkscape:collect="always"
     xlink:href="#linearGradient3187"
     id="linearGradient4799"
     gradientUnits="userSpaceOnUse"
     gradientTransform="matrix(2.3189708,0,0,2.0930998,93.115298,-256.84999)"
     x1="123.50603"
     y1="344.03848"
     x2="123.47623"
     y2="254.73526" /><radialGradient
     inkscape:collect="always"
     xlink:href="#linearGradient3171"
     id="radialGradient4802"
     gradientUnits="userSpaceOnUse"
     gradientTransform="matrix(0.9201975,2.7970099e-7,-2.7059634e-7,0.8902438,28.590287,48.634335)"
     cx="373.24265"
     cy="467.91885"
     fx="373.24265"
     fy="467.91885"
     r="333.18735" /><radialGradient
     inkscape:collect="always"
     xlink:href="#linearGradient3157"
     id="radialGradient4805"
     gradientUnits="userSpaceOnUse"
     gradientTransform="matrix(0.9503534,1.1750652e-7,-5.6287062e-8,0.3462676,17.334826,362.44227)"
     cx="373.24265"
     cy="710.99164"
     fx="373.24265"
     fy="710.99164"
     r="333.18735" /><radialGradient
     inkscape:collect="always"
     xlink:href="#linearGradient3157"
     id="radialGradient4820"
     gradientUnits="userSpaceOnUse"
     gradientTransform="matrix(0.9503534,1.1750652e-7,-5.6287062e-8,0.3462676,17.334826,362.44227)"
     cx="373.24265"
     cy="710.99164"
     fx="373.24265"
     fy="710.99164"
     r="333.18735" /><radialGradient
     inkscape:collect="always"
     xlink:href="#linearGradient3171"
     id="radialGradient4822"
     gradientUnits="userSpaceOnUse"
     gradientTransform="matrix(0.9201975,2.7970099e-7,-2.7059634e-7,0.8902438,28.590287,48.634335)"
     cx="373.24265"
     cy="467.91885"
     fx="373.24265"
     fy="467.91885"
     r="333.18735" /><linearGradient
     inkscape:collect="always"
     xlink:href="#linearGradient3187"
     id="linearGradient4824"
     gradientUnits="userSpaceOnUse"
     gradientTransform="matrix(2.3189708,0,0,2.0930998,93.115298,-256.84999)"
     x1="123.50603"
     y1="344.03848"
     x2="123.47623"
     y2="254.73526" /><linearGradient
     inkscape:collect="always"
     xlink:href="#linearGradient3187"
     id="linearGradient4827"
     gradientUnits="userSpaceOnUse"
     gradientTransform="matrix(2.3189708,0,0,2.0930998,-99.17808,-231.54972)"
     x1="123.50603"
     y1="344.03848"
     x2="123.47623"
     y2="254.73526" /><radialGradient
     inkscape:collect="always"
     xlink:href="#linearGradient5443"
     id="radialGradient4832"
     gradientUnits="userSpaceOnUse"
     gradientTransform="matrix(0.9201975,2.7970099e-7,-2.7059634e-7,0.8902438,-163.70313,61.921561)"
     cx="373.24265"
     cy="467.91885"
     fx="373.24265"
     fy="467.91885"
     r="333.18735" /><radialGradient
     inkscape:collect="always"
     xlink:href="#linearGradient5443"
     id="radialGradient4835"
     gradientUnits="userSpaceOnUse"
     gradientTransform="matrix(0.9503534,1.1750652e-7,-5.6287062e-8,0.3462676,-174.95857,375.55031)"
     cx="373.24265"
     cy="710.99164"
     fx="373.24265"
     fy="710.99164"
     r="333.18735" /><filter
     inkscape:collect="always"
     id="filter5511"
     color-interpolation-filters="sRGB"><feGaussianBlur
       inkscape:collect="always"
       stdDeviation="3.2374974"
       id="feGaussianBlur5513" /></filter><radialGradient
     inkscape:collect="always"
     xlink:href="#linearGradient5443-5"
     id="radialGradient4835-3"
     gradientUnits="userSpaceOnUse"
     gradientTransform="matrix(0.9503534,1.1750652e-7,-5.6287062e-8,0.3462676,317.80591,185.68771)"
     cx="373.24265"
     cy="710.99164"
     fx="373.24265"
     fy="710.99164"
     r="333.18735" /><linearGradient
     id="linearGradient5443-5"><stop
       id="stop5445-4"
       offset="0"
       style="stop-color:#ffffff;stop-opacity:0;" /><stop
       id="stop5447-3"
       offset="1"
       style="stop-color:#000000;stop-opacity:0.33962265;" /></linearGradient><radialGradient
     inkscape:collect="always"
     xlink:href="#linearGradient5443"
     id="radialGradient3272"
     gradientUnits="userSpaceOnUse"
     gradientTransform="matrix(0.9503534,1.1750652e-7,-5.6287062e-8,0.3462676,-174.95857,375.55031)"
     cx="373.24265"
     cy="710.99164"
     fx="373.24265"
     fy="710.99164"
     r="333.18735" /><linearGradient
     inkscape:collect="always"
     xlink:href="#linearGradient3187"
     id="linearGradient3274"
     gradientUnits="userSpaceOnUse"
     gradientTransform="matrix(2.3189708,0,0,2.0930998,-99.17808,-231.54972)"
     x1="123.50603"
     y1="344.03848"
     x2="123.47623"
     y2="254.73526" /><radialGradient
     inkscape:collect="always"
     xlink:href="#linearGradient5443"
     id="radialGradient3276"
     gradientUnits="userSpaceOnUse"
     gradientTransform="matrix(0.9201975,2.7970099e-7,-2.7059634e-7,0.8902438,-163.70313,61.921561)"
     cx="373.24265"
     cy="467.91885"
     fx="373.24265"
     fy="467.91885"
     r="333.18735" /></defs><sodipodi:namedview
   pagecolor="#ffffff"
   bordercolor="#666666"
   borderopacity="1"
   objecttolerance="10"
   gridtolerance="10"
   guidetolerance="10"
   inkscape:pageopacity="0"
   inkscape:pageshadow="2"
   inkscape:window-width="1920"
   inkscape:window-height="1068"
   id="namedview60"
   showgrid="false"
   inkscape:zoom="1.1919192"
   inkscape:cx="59.794346"
   inkscape:cy="163.34067"
   inkscape:window-x="0"
   inkscape:window-y="0"
   inkscape:window-maximized="1"
   inkscape:current-layer="_x31_"
   fit-margin-top="0"
   fit-margin-left="0"
   fit-margin-right="0"
   fit-margin-bottom="0" />


















<g
   id="g3311"
   transform="translate(-4.0524846e-6,3.5529445e-6)"><rect
     inkscape:export-ydpi="29.879425"
     inkscape:export-xdpi="29.879425"
     inkscape:export-filename="C:\Documents and Settings\adscro24\Desktop\128.png"
     style="opacity:0.61338286;fill:#464646;fill-opacity:0.78540775;stroke:none;filter:url(#filter4659)"
     id="rect3279"
     width="152.93848"
     height="152.93848"
     x="135.39355"
     y="48.636749"
     rx="16.067965"
     ry="12.45238"
     transform="matrix(2.1051501,0,0,2.1051501,-271.00298,-88.36689)" /><rect
     inkscape:export-ydpi="29.879425"
     inkscape:export-xdpi="29.879425"
     inkscape:export-filename="C:\Documents and Settings\adscro24\Desktop\128.png"
     style="opacity:0.61338286;fill:url(#radialGradient3092);fill-opacity:1;stroke:#000000;stroke-width:3.26806188;stroke-miterlimit:4;stroke-opacity:1;stroke-dasharray:none"
     id="rect3155"
     width="321.95847"
     height="321.95847"
     x="14.020748"
     y="14.020716"
     rx="33.825481"
     ry="26.21413" /><path
     transform="matrix(0.90779502,0,0,0.90779502,11.82035,-259.3651)"
     inkscape:export-ydpi="29.879425"
     inkscape:export-xdpi="29.879425"
     inkscape:export-filename="C:\Documents and Settings\adscro24\Desktop\128.png"
     inkscape:connector-curvature="0"
     style="opacity:0.61338286;fill:url(#linearGradient3734);fill-opacity:1;stroke:none;filter:url(#filter5511)"
     d="m 46.58172,323.34879 c -19.62748,0 -35.44272,12.0976 -35.44272,27.14163 l 0,124.30857 c 29.25482,11.38638 132.70149,11.89599 165.40488,-5.79022 33.32802,-18.02397 127.54379,-68.44264 171.82484,-52.72052 l 0,-65.79783 c 0,-15.04403 -15.7986,-27.14163 -35.4261,-27.14163 l -266.3609,0 z M 11.139,586.81982 l 0,42.88373 c 0,1.33144 0.14331,2.63588 0.38253,3.915 -0.11919,-12.81092 -0.25965,-28.88939 -0.38253,-46.79873 z"
     id="rect3177" /><rect
     inkscape:export-ydpi="29.879425"
     inkscape:export-xdpi="29.879425"
     inkscape:export-filename="C:\Documents and Settings\adscro24\Desktop\128.png"
     style="opacity:0.61338286;fill:url(#radialGradient3088);fill-opacity:1;stroke:#ffffff;stroke-width:0.68992418;stroke-linecap:square;stroke-miterlimit:4;stroke-opacity:1;stroke-dasharray:none"
     id="rect3473"
     width="306.12445"
     height="306.12445"
     x="21.937801"
     y="21.937769"
     rx="32.161926"
     ry="24.924913" /><rect
     inkscape:export-ydpi="29.879425"
     inkscape:export-xdpi="29.879425"
     inkscape:export-filename="C:\Documents and Settings\adscro24\Desktop\128.png"
     style="opacity:0.61338286;fill:#ffffff;fill-opacity:0;stroke:#000000;stroke-width:3.26806188;stroke-miterlimit:4;stroke-opacity:1;stroke-dasharray:none"
     id="rect3155-2"
     width="321.95847"
     height="321.95847"
     x="14.020748"
     y="14.020716"
     rx="33.825481"
     ry="26.21413" /><g
     transform="translate(400.39145,135.8211)"
     style="fill:#000000;fill-opacity:1;stroke:none"
     id="LWPOLYLINE_2_">
	
		
</g></g><g
   id="g3004"
   transform="matrix(0.5,0,0,0.5,21.749491,-23.000006)"><g
     style="fill:#000000;fill-opacity:1;stroke:none"
     id="LINE_9_">
	
		<path
   id="line31"
   d="m 47.03125,210.5625 0,368.3125 368.3125,0 0,-368.3125 -368.3125,0 z m 29.09375,29.09375 310.125,0 0,310.125 -310.125,0 0,-310.125 z"
   style="fill:#000000;fill-opacity:1;stroke:none"
   inkscape:connector-curvature="0" />
</g><g
     id="LINE">
	
		
</g><g
     id="LINE_1_">
	
		
</g><g
     style="fill:#000000;fill-opacity:1;stroke:none"
     id="LINE_2_">
	
		<path
   sodipodi:nodetypes="cccccccccc"
   inkscape:connector-curvature="0"
   id="line10"
   d="M 498.914,646 565.97302,397.914 498.914,146 l -451.885001,0 0,37.979 424.011991,0 0,424.00898 -424.011991,0 0,38.01202 z"
   style="fill:#000000;fill-opacity:1;stroke:none" />
</g><g
     id="LINE_3_">
	
		
</g><g
     id="LINE_4_">
	
		
</g><g
     id="LINE_5_">
	
		
</g><g
     id="LINE_6_">
	
		
</g><g
     id="LINE_7_">
	
		
</g><g
     id="LINE_8_">
	
		
</g><g
     id="LINE_10_">
	
		
</g><g
     id="LINE_11_">
	
		
</g><g
     id="LINE_12_">
	
		
</g><g
     id="LINE_13_">
	
		
</g><g
     id="LINE_14_">
	
		
</g><g
     id="LINE_15_">
	
		
</g><g
     id="LINE_16_">
	
		
</g><g
     style="fill:#000000;fill-opacity:1;stroke:none"
     id="LWPOLYLINE">
	
		<path
   style="fill:#000000;fill-opacity:1;stroke:none"
   id="path55"
   d="m 164.736,300.695 1.854,-0.709 1.854,-0.65 1.793,-0.648 1.762,-0.588 1.762,-0.586 1.699,-0.525 1.668,-0.494 1.67,-0.494 1.607,-0.434 1.605,-0.402 1.545,-0.4 1.516,-0.371 1.514,-0.34 1.453,-0.309 1.42,-0.279 1.391,-0.277 1.33,-0.248 1.328,-0.246 1.268,-0.186 1.268,-0.186 1.205,-0.186 1.143,-0.154 1.143,-0.125 1.082,-0.123 1.051,-0.123 0.988,-0.094 0.99,-0.061 0.926,-0.094 0.865,-0.061 0.836,-0.031 0.803,-0.062 0.742,-0.031 h 0.711 l 0.68,-0.031 0.617,-0.029 h 0.557 0.525 0.463 0.434 0.4 0.742 0.865 0.959 l 1.051,0.029 1.143,0.031 1.205,0.062 1.268,0.062 1.328,0.123 1.391,0.123 1.453,0.154 1.482,0.186 1.514,0.217 1.576,0.277 1.576,0.311 1.607,0.369 1.607,0.434 1.637,0.463 1.639,0.525 1.607,0.619 1.605,0.648 1.607,0.742 1.545,0.803 1.545,0.865 1.516,0.959 1.451,1.051 1.391,1.143 1.359,1.205 1.299,1.328 1.236,1.391 1.143,1.516 1.082,1.637 0.959,1.73 0.895,1.824 0.805,1.945 0.68,2.072 0.586,2.193 0.465,2.318 0.34,2.439 0.186,2.598 0.092,2.688 -0.031,1.514 -0.061,1.516 -0.125,1.482 -0.154,1.453 -0.215,1.451 -0.248,1.422 -0.277,1.422 -0.34,1.391 -0.402,1.422 -0.434,1.391 -0.494,1.391 -0.525,1.391 -0.586,1.422 -0.619,1.391 -0.68,1.391 -0.742,1.42 -0.771,1.391 -0.834,1.453 -0.865,1.422 -0.959,1.451 -0.957,1.453 -1.051,1.484 -1.082,1.514 -1.143,1.514 -1.176,1.576 -1.236,1.576 -1.297,1.576 -1.359,1.637 -1.391,1.67 -1.484,1.699 -1.482,1.73 -1.576,1.762 -1.639,1.793 -1.668,1.854 -1.73,1.885 -1.793,1.916 -1.854,1.979 -1.885,2.039 -1.979,2.07 -2.008,2.133 -1.391,1.391 -1.299,1.359 -1.266,1.297 -1.176,1.236 -1.111,1.174 -1.082,1.113 -0.988,1.113 -0.928,0.988 -0.896,1.051 -0.834,0.928 -0.773,0.926 -0.711,0.928 -0.68,0.865 -0.617,0.803 -0.588,0.805 -0.525,0.803 -0.494,0.742 -0.463,0.74 -0.402,0.742 -0.371,0.742 -0.34,0.68 -0.309,0.742 -0.277,0.68 -0.248,0.742 -0.186,0.68 -0.217,0.74 -0.154,0.68 -0.123,0.742 -0.123,0.742 -0.094,0.742 -0.092,0.803 -0.062,0.742 -0.062,0.865 -0.029,0.803 -0.031,0.865 v 0.928 l -0.031,0.926 v 0.99 0.988 1.051 c 0,0.309 0,0.617 0,0.617 v 0.434 0.557 0.68 0.742 0.865 0.926 0.99 1.111 1.113 1.174 1.236 1.297 1.361 1.297 1.422 1.359 1.359 1.422 1.359 1.359 1.359 1.361 1.236 1.297 1.174 1.113 1.111 0.99 0.926 0.865 0.742 0.68 0.557 0.434 0.309 c 0.217,0.309 0.494,0.309 0.494,0.309 h 0.34 0.434 0.525 0.617 0.68 0.742 0.803 0.865 0.896 0.959 0.988 1.051 1.051 1.082 1.08 1.113 1.113 1.111 1.113 1.082 1.08 1.051 1.02 0.99 0.957 0.928 0.865 0.803 0.742 0.68 0.588 0.525 0.463 0.34 c 0.277,0 0.432,0 0.432,0 0.062,-0.309 0.062,-0.617 0.062,-0.617 v -0.434 -0.557 -0.68 -0.742 -0.865 -0.926 -0.99 -1.111 -1.113 -1.174 -1.297 -1.236 -1.361 -1.359 -1.359 -1.359 -1.422 -1.359 -1.359 -1.422 -1.297 -1.361 -1.297 -1.236 -1.174 -1.113 -1.111 -0.99 -0.926 -0.865 -0.742 -0.68 -0.557 -0.434 -0.309 c 0,-0.309 0,-0.617 0,-0.617 v -0.371 -0.309 l 0.031,-0.371 v -0.309 c 0.031,-0.311 0.062,-0.619 0.062,-0.619 0.029,-0.309 0.061,-0.617 0.061,-0.617 0.062,-0.248 0.094,-0.557 0.094,-0.557 0.061,-0.248 0.123,-0.557 0.123,-0.557 0.062,-0.246 0.123,-0.557 0.123,-0.557 0.062,-0.246 0.125,-0.494 0.125,-0.494 0.092,-0.246 0.186,-0.494 0.186,-0.494 0.061,-0.248 0.154,-0.494 0.154,-0.494 0.092,-0.248 0.215,-0.494 0.215,-0.494 0.094,-0.248 0.217,-0.494 0.217,-0.494 0.094,-0.248 0.217,-0.434 0.217,-0.434 0.123,-0.248 0.246,-0.494 0.246,-0.494 0.125,-0.248 0.279,-0.494 0.279,-0.494 0.123,-0.248 0.277,-0.494 0.277,-0.494 0.154,-0.248 0.309,-0.496 0.309,-0.496 0.156,-0.246 0.311,-0.494 0.311,-0.494 0.186,-0.246 0.34,-0.557 0.34,-0.557 0.215,-0.309 0.309,-0.369 0.309,-0.369 0.154,-0.186 0.371,-0.434 0.371,-0.434 0.277,-0.246 0.586,-0.617 0.586,-0.617 l 0.371,-0.371 0.402,-0.434 0.432,-0.494 0.496,-0.557 0.525,-0.555 0.555,-0.557 0.588,-0.68 0.617,-0.619 0.619,-0.68 0.648,-0.68 0.648,-0.742 0.682,-0.68 0.68,-0.74 0.68,-0.742 0.711,-0.742 0.68,-0.742 0.68,-0.74 0.68,-0.742 0.68,-0.68 0.648,-0.742 0.619,-0.68 0.617,-0.617 0.588,-0.682 0.586,-0.617 0.525,-0.557 0.494,-0.494 0.465,-0.494 0.432,-0.494 0.371,-0.371 0.34,-0.371 c 0.309,-0.309 0.525,-0.557 0.525,-0.557 0.309,-0.309 2.504,-2.533 2.504,-2.533 l 2.131,-2.164 2.072,-2.07 2.008,-2.039 1.947,-2.008 1.885,-1.947 1.822,-1.885 1.762,-1.855 1.699,-1.822 1.639,-1.793 1.607,-1.762 1.514,-1.699 1.482,-1.699 1.422,-1.67 1.359,-1.668 1.299,-1.637 1.236,-1.607 1.174,-1.607 1.113,-1.607 1.111,-1.576 0.99,-1.605 0.988,-1.607 0.865,-1.576 0.865,-1.607 0.803,-1.607 0.742,-1.637 0.68,-1.639 0.68,-1.668 0.557,-1.699 0.557,-1.699 0.432,-1.732 0.434,-1.76 0.371,-1.793 0.371,-1.854 0.246,-1.885 0.248,-1.916 0.186,-1.979 0.123,-2.01 0.062,-2.07 v -2.131 -1.145 l -0.062,-1.174 v -1.143 l -0.123,-1.176 -0.062,-1.143 -0.123,-1.113 -0.125,-1.143 -0.186,-1.143 -0.184,-1.113 -0.186,-1.113 -0.248,-1.111 -0.248,-1.082 -0.246,-1.113 -0.248,-1.08 -0.309,-1.082 -0.309,-1.051 -0.371,-1.082 -0.371,-1.051 -0.371,-1.051 -0.371,-1.02 -0.432,-1.02 -0.434,-1.02 -0.432,-1.02 -0.434,-0.99 -0.494,-0.988 -0.494,-0.988 -0.494,-0.959 -0.557,-0.988 -0.494,-0.928 -0.617,-0.926 -0.557,-0.928 -0.557,-0.928 -0.617,-0.895 -0.619,-0.896 -0.617,-0.865 -0.68,-0.865 -0.682,-0.865 -0.68,-0.834 -0.68,-0.836 -0.68,-0.803 -1.111,-1.174 -1.113,-1.113 -1.113,-1.082 -1.174,-1.051 -1.236,-1.051 -1.236,-0.988 -1.266,-0.957 -1.299,-0.928 -1.328,-0.928 -1.359,-0.865 -1.391,-0.834 -1.422,-0.803 -1.422,-0.805 -1.482,-0.74 -1.516,-0.711 -1.545,-0.711 -1.545,-0.648 -1.607,-0.65 -1.637,-0.586 -1.639,-0.588 -1.668,-0.557 -1.73,-0.525 -1.73,-0.463 -1.762,-0.463 -1.824,-0.434 -1.822,-0.402 -1.854,-0.369 -1.855,-0.34 -1.916,-0.34 -1.945,-0.279 -1.979,-0.246 -1.979,-0.248 -2.008,-0.217 -2.07,-0.154 -2.07,-0.154 -2.102,-0.123 -2.133,-0.094 -2.162,-0.061 -2.164,-0.062 h -2.225 -1.854 l -1.793,0.031 -1.793,0.031 -1.73,0.061 -1.73,0.094 -1.668,0.061 -1.639,0.125 -1.607,0.092 -1.574,0.154 -1.547,0.125 -1.514,0.154 -1.482,0.154 -1.453,0.186 -1.422,0.186 -1.391,0.186 -1.359,0.184 -1.328,0.217 -1.299,0.217 -1.266,0.217 -1.236,0.215 -1.205,0.217 -1.176,0.248 -1.143,0.217 -1.143,0.246 -1.082,0.248 -1.082,0.215 -1.02,0.248 -1.02,0.248 -0.99,0.246 -0.988,0.217 -0.928,0.248 -0.895,0.215 -0.896,0.248 -0.865,0.217 -0.834,0.215 -0.836,0.217 -0.771,0.217 -0.773,0.186 -0.74,0.186 -0.742,0.186 v 32.316 z"
   stroke-miterlimit="10"
   inkscape:connector-curvature="0" />
</g><g
     style="fill:#000000;fill-opacity:1;stroke:none"
     id="LWPOLYLINE_1_">
	
		<path
   style="fill:#000000;fill-opacity:1;stroke:none"
   id="path58"
   d="m 197.955,524.49 c 0.279,0 0.619,0 0.619,0 h 0.432 0.588 0.68 0.773 0.865 0.957 1.02 1.113 1.143 1.236 1.268 1.328 1.33 1.391 1.391 1.42 1.422 1.422 1.422 1.391 1.391 1.328 1.328 1.268 1.236 1.174 1.082 1.051 0.928 0.865 0.771 0.68 0.588 0.432 0.342 c 0.277,-0.309 0.277,-0.617 0.277,-0.617 v -0.434 -0.494 -0.68 -0.68 -0.865 -0.865 -0.988 -1.051 -1.113 -1.111 -1.236 -1.236 -1.299 -1.297 -1.299 -1.359 -1.359 -1.359 -1.299 -1.359 -1.297 -1.236 -1.236 -1.236 -1.174 -1.113 -0.988 -0.988 -0.928 -0.803 -0.742 -0.619 -0.555 -0.434 -0.309 c -0.277,-0.248 -0.619,-0.248 -0.619,-0.248 h -0.432 -0.588 -0.68 -0.771 -0.865 -0.928 -1.051 -1.082 -1.174 -1.236 -1.268 -1.328 -1.328 -1.391 -1.391 -1.422 -1.422 -1.422 -1.42 -1.391 -1.391 -1.33 -1.328 -1.268 -1.236 -1.143 -1.113 -1.02 -0.957 -0.865 -0.773 -0.68 -0.588 -0.432 -0.34 c -0.279,-0.002 -0.279,35.906 -0.279,35.906 z"
   stroke-miterlimit="10"
   inkscape:connector-curvature="0" />
</g></g>
</svg>